<?xml version="1.0" encoding="UTF-8" ?>
<!DOCTYPE svg PUBLIC "-//W3C//DTD SVG 1.1//EN" "http://www.w3.org/Graphics/SVG/1.1/DTD/svg11.dtd">
<svg width="64pt" height="64pt" viewBox="0 0 64 64" version="1.1" xmlns="http://www.w3.org/2000/svg">
<g id="#6b90b2ff">
<path fill="#6b90b2" opacity="1.00" d=" M 7.21 6.46 C 9.57 4.27 12.81 3.25 16.01 3.37 C 26.65 3.37 37.29 3.37 47.93 3.36 C 51.11 3.25 54.36 4.23 56.74 6.40 C 61.36 13.67 59.32 22.49 59.52 30.57 C 58.52 33.49 57.75 36.57 56.01 39.16 C 53.80 39.58 51.41 39.71 49.26 38.92 C 48.06 37.51 47.16 35.88 46.03 34.42 C 44.53 32.96 42.38 34.14 40.84 34.86 L 40.00 35.06 C 40.25 33.96 40.50 32.87 40.74 31.77 C 46.18 31.16 52.66 30.98 56.54 26.56 C 58.50 22.43 58.08 17.54 57.65 13.09 C 56.33 10.91 54.98 8.53 52.64 7.31 C 49.69 5.67 46.19 6.00 42.95 5.92 C 33.96 6.10 24.95 5.76 15.96 6.05 C 11.54 6.02 8.15 9.36 6.36 13.11 C 5.95 17.56 5.53 22.46 7.47 26.60 C 11.45 30.97 17.96 31.29 23.48 31.61 C 23.43 32.29 23.34 33.66 23.29 34.34 C 21.19 33.86 18.16 33.02 16.60 35.00 C 15.68 36.70 14.93 38.51 13.74 40.06 C 11.59 40.58 9.35 40.16 7.17 40.06 C 6.47 35.84 5.56 31.66 4.48 27.53 C 4.31 20.44 3.19 12.79 7.21 6.46 Z" />
</g>
<g id="#dfe8f0ff">
<path fill="#dfe8f0" opacity="1.00" d=" M 6.36 13.11 C 8.15 9.36 11.54 6.02 15.96 6.05 C 24.95 5.76 33.96 6.10 42.95 5.92 C 46.19 6.00 49.69 5.67 52.64 7.31 C 54.98 8.53 56.33 10.91 57.65 13.09 C 57.36 13.21 56.79 13.44 56.51 13.55 C 54.83 11.31 53.00 8.63 49.96 8.30 C 44.00 7.52 37.97 8.08 31.99 7.93 C 26.03 8.07 20.03 7.53 14.11 8.28 C 11.03 8.61 9.16 11.29 7.48 13.57 C 7.20 13.45 6.64 13.23 6.36 13.11 Z" />
</g>
<g id="#3e5571e7">
<path fill="#3e5571" opacity="0.91" d=" M 3.12 22.99 C 3.15 17.34 2.15 10.42 7.21 6.46 C 3.19 12.79 4.31 20.44 4.48 27.53 C 4.31 34.70 4.29 41.90 4.71 49.06 C 4.89 54.88 10.23 59.71 16.02 59.47 C 26.70 59.52 37.39 59.53 48.07 59.47 C 53.51 59.67 58.66 55.36 59.18 49.90 C 59.82 43.48 59.54 37.01 59.52 30.57 C 59.32 22.49 61.36 13.67 56.74 6.40 C 62.12 10.61 60.75 18.00 60.87 23.96 C 60.58 33.57 61.38 43.24 60.35 52.81 C 58.29 57.19 54.12 60.82 49.06 60.76 C 37.67 60.85 26.27 60.86 14.87 60.76 C 9.85 60.79 5.72 57.17 3.64 52.83 C 2.61 42.93 3.42 32.93 3.12 22.99 Z" />
</g>
<g id="#a6c1dbff">
<path fill="#a6c1db" opacity="1.00" d=" M 7.48 13.57 C 9.16 11.29 11.03 8.61 14.11 8.28 C 20.03 7.53 26.03 8.07 31.99 7.93 C 37.97 8.08 44.00 7.52 49.96 8.30 C 53.00 8.63 54.83 11.31 56.51 13.55 C 52.58 15.36 48.19 15.67 43.93 15.26 C 42.36 14.96 40.76 15.00 39.21 15.39 C 36.81 15.68 34.38 15.69 31.98 15.39 C 30.47 15.00 28.91 14.94 27.37 15.21 C 20.76 14.96 13.70 16.49 7.48 13.57 Z" />
</g>
<g id="#97b4d0ff">
<path fill="#97b4d0" opacity="1.00" d=" M 7.47 26.60 C 5.53 22.46 5.95 17.56 6.36 13.11 C 6.64 13.23 7.20 13.45 7.48 13.57 C 13.70 16.49 20.76 14.96 27.37 15.21 L 27.30 15.75 C 26.83 18.83 26.33 21.93 25.31 24.89 C 23.31 24.15 19.87 23.09 18.53 25.24 C 18.38 26.58 18.26 27.93 18.15 29.29 C 20.35 29.32 22.54 29.46 24.73 29.51 C 24.28 31.25 23.87 33.02 23.27 34.72 L 23.29 34.34 C 23.34 33.66 23.43 32.29 23.48 31.61 C 17.96 31.29 11.45 30.97 7.47 26.60 Z" />
<path fill="#97b4d0" opacity="1.00" d=" M 31.98 15.39 C 34.38 15.69 36.81 15.68 39.21 15.39 L 39.10 15.88 C 38.52 18.82 37.88 21.74 37.21 24.66 C 35.03 24.09 32.72 24.10 30.55 24.69 C 31.05 21.76 31.59 18.84 31.92 15.88 L 31.98 15.39 Z" />
</g>
<g id="#96b4d0ff">
<path fill="#96b4d0" opacity="1.00" d=" M 43.93 15.26 C 48.19 15.67 52.58 15.36 56.51 13.55 C 56.79 13.44 57.36 13.21 57.65 13.09 C 58.08 17.54 58.50 22.43 56.54 26.56 C 52.66 30.98 46.18 31.16 40.74 31.77 C 40.88 31.22 41.16 30.10 41.30 29.55 C 43.52 29.42 45.74 29.37 47.97 29.36 C 47.89 27.94 47.80 26.53 47.72 25.12 L 47.69 24.70 C 46.04 24.06 44.19 24.03 42.52 24.62 C 42.98 21.68 43.51 18.74 43.87 15.77 L 43.93 15.26 Z" />
</g>
<g id="#6398c3ff">
<path fill="#6398c3" opacity="1.00" d=" M 27.37 15.21 C 28.91 14.94 30.47 15.00 31.98 15.39 L 31.92 15.88 C 30.49 16.59 28.66 16.67 27.30 15.75 L 27.37 15.21 Z" />
<path fill="#6398c3" opacity="1.00" d=" M 39.21 15.39 C 40.76 15.00 42.36 14.96 43.93 15.26 L 43.87 15.77 C 42.42 16.58 40.59 16.64 39.10 15.88 L 39.21 15.39 Z" />
</g>
<g id="#ffffffff">
<path fill="#ffffff" opacity="1.00" d=" M 27.30 15.75 C 28.66 16.67 30.49 16.59 31.92 15.88 C 31.59 18.84 31.05 21.76 30.55 24.69 L 30.49 25.05 C 32.67 25.58 34.96 25.57 37.13 25.01 L 37.21 24.66 C 37.88 21.74 38.52 18.82 39.10 15.88 C 40.59 16.64 42.42 16.58 43.87 15.77 C 43.51 18.74 42.98 21.68 42.52 24.62 L 42.45 25.06 C 44.15 25.58 46.00 25.56 47.72 25.12 C 47.80 26.53 47.89 27.94 47.97 29.36 C 45.74 29.37 43.52 29.42 41.30 29.55 C 41.16 30.10 40.88 31.22 40.74 31.77 C 40.50 32.87 40.25 33.96 40.00 35.06 L 40.84 34.86 C 42.56 35.09 44.34 35.39 46.05 34.93 C 46.13 36.38 46.21 37.84 46.27 39.30 C 43.96 39.27 41.65 39.29 39.34 39.26 C 38.69 42.30 38.04 45.34 37.40 48.39 C 35.69 48.39 33.98 48.39 32.28 48.39 C 32.94 45.37 33.59 42.34 34.22 39.31 C 31.95 39.29 29.68 39.28 27.42 39.26 C 26.77 42.31 26.13 45.36 25.46 48.41 C 23.82 48.40 22.19 48.39 20.55 48.38 C 21.23 45.36 21.87 42.33 22.48 39.29 C 20.44 39.31 18.40 39.27 16.36 39.29 C 16.44 37.86 16.52 36.43 16.60 35.00 C 18.80 35.05 21.16 35.54 23.27 34.72 C 23.87 33.02 24.28 31.25 24.73 29.51 C 22.54 29.46 20.35 29.32 18.15 29.29 C 18.26 27.93 18.38 26.58 18.53 25.24 C 20.76 25.39 23.20 25.85 25.31 24.89 C 26.33 21.93 26.83 18.83 27.30 15.75 M 28.44 34.44 C 29.84 35.55 33.87 35.68 35.12 34.33 C 35.55 32.75 35.97 31.16 36.35 29.56 C 34.06 29.53 31.77 29.50 29.49 29.46 C 29.13 31.12 28.74 32.77 28.44 34.44 Z" />
</g>
<g id="#437eb0ff">
<path fill="#437eb0" opacity="1.00" d=" M 18.53 25.24 C 19.87 23.09 23.31 24.15 25.31 24.89 C 23.20 25.85 20.76 25.39 18.53 25.24 Z" />
</g>
<g id="#417cafff">
<path fill="#417caf" opacity="1.00" d=" M 30.55 24.69 C 32.72 24.10 35.03 24.09 37.21 24.66 L 37.13 25.01 C 34.96 25.57 32.67 25.58 30.49 25.05 L 30.55 24.69 Z" />
</g>
<g id="#447eafff">
<path fill="#447eaf" opacity="1.00" d=" M 42.52 24.62 C 44.19 24.03 46.04 24.06 47.69 24.70 L 47.72 25.12 C 46.00 25.56 44.15 25.58 42.45 25.06 L 42.52 24.62 Z" />
</g>
<g id="#6182a1ff">
<path fill="#6182a1" opacity="1.00" d=" M 4.48 27.53 C 5.56 31.66 6.47 35.84 7.17 40.06 C 9.35 40.16 11.59 40.58 13.74 40.06 C 14.93 38.51 15.68 36.70 16.60 35.00 C 16.52 36.43 16.44 37.86 16.36 39.29 C 18.40 39.27 20.44 39.31 22.48 39.29 C 21.87 42.33 21.23 45.36 20.55 48.38 C 22.19 48.39 23.82 48.40 25.46 48.41 C 26.13 45.36 26.77 42.31 27.42 39.26 C 29.68 39.28 31.95 39.29 34.22 39.31 C 33.59 42.34 32.94 45.37 32.28 48.39 C 33.98 48.39 35.69 48.39 37.40 48.39 C 38.04 45.34 38.69 42.30 39.34 39.26 C 41.65 39.29 43.96 39.27 46.27 39.30 C 46.21 37.84 46.13 36.38 46.05 34.93 L 46.03 34.42 C 47.16 35.88 48.06 37.51 49.26 38.92 C 51.41 39.71 53.80 39.58 56.01 39.16 C 57.75 36.57 58.52 33.49 59.52 30.57 C 59.54 37.01 59.82 43.48 59.18 49.90 C 58.66 55.36 53.51 59.67 48.07 59.47 C 37.39 59.53 26.70 59.52 16.02 59.47 C 10.23 59.71 4.89 54.88 4.71 49.06 C 4.29 41.90 4.31 34.70 4.48 27.53 Z" />
</g>
<g id="#7f9fbeff">
<path fill="#7f9fbe" opacity="1.00" d=" M 28.44 34.44 C 28.74 32.77 29.13 31.12 29.49 29.46 C 31.77 29.50 34.06 29.53 36.35 29.56 C 35.97 31.16 35.55 32.75 35.12 34.33 C 32.91 33.87 30.63 33.94 28.44 34.44 Z" />
</g>
<g id="#2b5491ff">
<path fill="#2b5491" opacity="1.00" d=" M 16.60 35.00 C 18.16 33.02 21.19 33.86 23.29 34.34 L 23.27 34.72 C 21.16 35.54 18.80 35.05 16.60 35.00 Z" />
</g>
<g id="#28518fff">
<path fill="#28518f" opacity="1.00" d=" M 28.44 34.44 C 30.63 33.94 32.91 33.87 35.12 34.33 C 33.87 35.68 29.84 35.55 28.44 34.44 Z" />
<path fill="#28518f" opacity="1.00" d=" M 40.84 34.86 C 42.38 34.14 44.53 32.96 46.03 34.42 L 46.05 34.93 C 44.34 35.39 42.56 35.09 40.84 34.86 Z" />
</g>
<g id="#00000026">
<path fill="#000000" opacity="0.15" d=" M 3.64 52.83 C 5.72 57.17 9.85 60.79 14.87 60.76 C 26.27 60.86 37.67 60.85 49.06 60.76 C 54.12 60.82 58.29 57.19 60.35 52.81 C 60.33 58.52 55.74 62.44 50.65 64.00 L 13.28 64.00 C 8.26 62.40 3.64 58.51 3.64 52.83 Z" />
</g>
</svg>
