<?xml version="1.0" encoding="UTF-8" ?>
<!DOCTYPE svg PUBLIC "-//W3C//DTD SVG 1.1//EN" "http://www.w3.org/Graphics/SVG/1.1/DTD/svg11.dtd">
<svg width="64pt" height="64pt" viewBox="0 0 64 64" version="1.1" xmlns="http://www.w3.org/2000/svg">
<g id="#6a90b1ff">
<path fill="#6a90b1" opacity="1.00" d=" M 7.54 6.11 C 9.88 4.17 12.97 3.32 15.98 3.37 C 26.33 3.35 36.67 3.39 47.02 3.35 C 50.36 3.24 53.88 3.92 56.48 6.14 C 60.86 12.45 59.72 20.31 59.56 27.52 C 58.67 31.69 57.55 35.81 56.75 40.00 C 52.96 40.46 49.13 40.46 45.34 40.06 C 44.79 37.65 44.20 35.24 43.81 32.80 L 43.75 31.90 C 48.05 30.95 53.05 30.66 56.29 27.30 C 58.53 24.24 57.80 20.14 57.90 16.59 C 57.86 15.61 57.86 14.60 57.55 13.66 C 56.28 9.50 52.63 6.10 48.13 6.08 C 39.43 5.69 30.72 6.13 22.01 5.90 C 18.23 6.01 14.04 5.53 10.70 7.70 C 8.52 9.02 7.42 11.42 6.45 13.67 C 6.14 14.61 6.15 15.63 6.10 16.61 C 6.23 20.32 5.33 24.87 8.20 27.79 C 11.80 30.62 16.57 31.04 20.88 32.11 C 21.26 33.50 21.62 34.90 21.97 36.31 C 22.10 36.87 22.37 37.98 22.51 38.54 C 17.72 40.89 12.37 40.79 7.22 40.03 C 6.42 35.83 5.32 31.70 4.44 27.52 C 4.29 20.30 3.11 12.42 7.54 6.11 Z" />
</g>
<g id="#e0e8f1ff">
<path fill="#e0e8f1" opacity="1.00" d=" M 10.70 7.70 C 14.04 5.53 18.23 6.01 22.01 5.90 C 30.72 6.13 39.43 5.69 48.13 6.08 C 52.63 6.10 56.28 9.50 57.55 13.66 C 54.93 11.08 52.01 8.08 48.05 8.12 C 40.38 7.85 32.71 8.21 25.05 8.05 C 21.15 8.10 17.19 7.70 13.35 8.51 C 10.60 9.50 8.49 11.66 6.45 13.67 C 7.42 11.42 8.52 9.02 10.70 7.70 Z" />
</g>
<g id="#3e5571e7">
<path fill="#3e5571" opacity="0.91" d=" M 3.12 24.04 C 3.20 17.92 1.90 10.34 7.54 6.11 C 3.11 12.42 4.29 20.30 4.44 27.52 C 4.43 34.69 4.20 41.87 4.71 49.03 C 4.89 52.44 6.60 55.80 9.54 57.64 C 12.62 59.70 16.49 59.48 20.03 59.55 C 28.01 59.46 36.00 59.46 43.98 59.55 C 47.54 59.48 51.44 59.69 54.52 57.58 C 57.45 55.74 59.12 52.39 59.29 48.98 C 59.80 41.84 59.57 34.68 59.56 27.52 C 59.72 20.31 60.86 12.45 56.48 6.14 C 62.10 10.37 60.79 17.91 60.88 24.02 C 60.57 33.61 61.39 43.26 60.37 52.80 C 58.37 56.84 54.72 60.44 49.99 60.67 C 40.33 61.07 30.65 60.65 20.98 60.84 C 17.15 60.77 13.02 61.24 9.51 59.35 C 6.82 57.97 5.09 55.38 3.64 52.83 C 2.60 43.29 3.43 33.63 3.12 24.04 Z" />
</g>
<g id="#a3bed8ff">
<path fill="#a3bed8" opacity="1.00" d=" M 13.35 8.51 C 17.19 7.70 21.15 8.10 25.05 8.05 C 32.71 8.21 40.38 7.85 48.05 8.12 C 52.01 8.08 54.93 11.08 57.55 13.66 C 57.86 14.60 57.86 15.61 57.90 16.59 C 57.48 18.17 56.99 19.73 56.51 21.30 C 51.22 20.70 45.24 21.70 40.75 18.22 C 36.27 13.11 26.92 13.59 23.48 19.64 C 18.65 22.44 12.72 20.17 7.45 21.22 C 6.98 19.69 6.51 18.16 6.10 16.61 C 6.15 15.63 6.14 14.61 6.45 13.67 C 8.49 11.66 10.60 9.50 13.35 8.51 Z" />
</g>
<g id="#73a0c7ff">
<path fill="#73a0c7" opacity="1.00" d=" M 23.48 19.64 C 26.92 13.59 36.27 13.11 40.75 18.22 L 39.08 17.59 C 36.01 16.48 32.57 15.59 29.36 16.58 C 26.74 17.33 24.97 19.56 23.18 21.46 C 23.25 21.00 23.40 20.10 23.48 19.64 Z" />
</g>
<g id="#ffffffff">
<path fill="#ffffff" opacity="1.00" d=" M 29.36 16.58 C 32.57 15.59 36.01 16.48 39.08 17.59 C 42.51 21.54 43.70 26.77 43.75 31.90 L 43.81 32.80 C 43.59 38.03 42.10 44.43 36.58 46.43 C 30.64 49.02 23.46 44.90 22.51 38.54 C 22.37 37.98 22.10 36.87 21.97 36.31 C 21.54 31.32 22.26 26.35 23.18 21.46 C 24.97 19.56 26.74 17.33 29.36 16.58 M 29.64 22.58 C 27.63 25.57 27.96 29.32 27.65 32.74 C 27.94 35.32 28.36 37.88 28.95 40.41 L 29.96 40.35 C 30.09 42.61 34.26 42.75 35.24 40.89 L 36.04 41.09 C 37.06 38.28 37.57 35.32 37.79 32.34 C 37.49 29.18 37.70 25.72 35.98 22.91 C 34.76 20.69 31.06 20.48 29.64 22.58 Z" />
</g>
<g id="#8caac8ff">
<path fill="#8caac8" opacity="1.00" d=" M 6.10 16.61 C 6.51 18.16 6.98 19.69 7.45 21.22 C 12.72 20.17 18.65 22.44 23.48 19.64 C 23.40 20.10 23.25 21.00 23.18 21.46 C 22.26 26.35 21.54 31.32 21.97 36.31 C 21.62 34.90 21.26 33.50 20.88 32.11 C 16.57 31.04 11.80 30.62 8.20 27.79 C 5.33 24.87 6.23 20.32 6.10 16.61 Z" />
<path fill="#8caac8" opacity="1.00" d=" M 56.51 21.30 C 56.99 19.73 57.48 18.17 57.90 16.59 C 57.80 20.14 58.53 24.24 56.29 27.30 C 53.05 30.66 48.05 30.95 43.75 31.90 C 43.70 26.77 42.51 21.54 39.08 17.59 L 40.75 18.22 C 45.24 21.70 51.22 20.70 56.51 21.30 Z" />
</g>
<g id="#88a7c5ff">
<path fill="#88a7c5" opacity="1.00" d=" M 29.64 22.58 C 31.06 20.48 34.76 20.69 35.98 22.91 C 37.70 25.72 37.49 29.18 37.79 32.34 C 34.41 32.48 31.03 32.60 27.65 32.74 C 27.96 29.32 27.63 25.57 29.64 22.58 Z" />
</g>
<g id="#6182a1ff">
<path fill="#6182a1" opacity="1.00" d=" M 4.44 27.52 C 5.32 31.70 6.42 35.83 7.22 40.03 C 12.37 40.79 17.72 40.89 22.51 38.54 C 23.46 44.90 30.64 49.02 36.58 46.43 C 42.10 44.43 43.59 38.03 43.81 32.80 C 44.20 35.24 44.79 37.65 45.34 40.06 C 49.13 40.46 52.96 40.46 56.75 40.00 C 57.55 35.81 58.67 31.69 59.56 27.52 C 59.57 34.68 59.80 41.84 59.29 48.98 C 59.12 52.39 57.45 55.74 54.52 57.58 C 51.44 59.69 47.54 59.48 43.98 59.55 C 36.00 59.46 28.01 59.46 20.03 59.55 C 16.49 59.48 12.62 59.70 9.54 57.64 C 6.60 55.80 4.89 52.44 4.71 49.03 C 4.20 41.87 4.43 34.69 4.44 27.52 Z" />
</g>
<g id="#6a8fb0ff">
<path fill="#6a8fb0" opacity="1.00" d=" M 27.65 32.74 C 31.03 32.60 34.41 32.48 37.79 32.34 C 37.57 35.32 37.06 38.28 36.04 41.09 L 35.24 40.89 C 33.53 40.41 31.73 40.21 29.96 40.35 L 28.95 40.41 C 28.36 37.88 27.94 35.32 27.65 32.74 Z" />
</g>
<g id="#38568cff">
<path fill="#38568c" opacity="1.00" d=" M 29.96 40.35 C 31.73 40.21 33.53 40.41 35.24 40.89 C 34.26 42.75 30.09 42.61 29.96 40.35 Z" />
</g>
<g id="#00000026">
<path fill="#000000" opacity="0.15" d=" M 3.64 52.83 C 5.09 55.38 6.82 57.97 9.51 59.35 C 13.02 61.24 17.15 60.77 20.98 60.84 C 30.65 60.65 40.33 61.07 49.99 60.67 C 54.72 60.44 58.37 56.84 60.37 52.80 C 60.23 58.44 55.83 62.46 50.73 64.00 L 13.31 64.00 C 10.74 62.96 8.11 61.77 6.20 59.70 C 4.51 57.82 4.17 55.20 3.64 52.83 Z" />
</g>
</svg>
