<?xml version="1.0" encoding="UTF-8" ?>
<!DOCTYPE svg PUBLIC "-//W3C//DTD SVG 1.1//EN" "http://www.w3.org/Graphics/SVG/1.1/DTD/svg11.dtd">
<svg width="64pt" height="64pt" viewBox="0 0 64 64" version="1.1" xmlns="http://www.w3.org/2000/svg">
<g id="#6a8fb0ff">
<path fill="#6a8fb0" opacity="1.00" d=" M 6.97 6.75 C 9.09 4.63 12.03 3.37 15.04 3.39 C 26.03 3.33 37.02 3.39 48.01 3.36 C 51.31 3.22 54.67 4.35 57.00 6.72 C 58.20 10.03 59.14 13.48 59.02 17.04 C 58.93 23.66 59.25 30.39 57.84 36.90 C 57.44 38.82 56.37 41.28 54.02 41.08 C 49.17 41.42 44.29 41.42 39.46 40.91 C 38.94 38.43 38.52 35.92 37.91 33.46 L 37.81 32.34 C 43.84 32.48 50.62 31.88 55.49 28.02 C 58.49 24.90 57.55 20.29 57.89 16.37 C 57.84 14.75 57.66 13.10 56.88 11.65 C 54.95 8.06 51.06 5.81 46.97 5.97 C 36.97 5.93 26.96 5.93 16.96 5.97 C 12.89 5.83 9.04 8.09 7.11 11.66 C 6.53 12.89 6.18 14.22 6.13 15.59 C 5.88 20.18 4.98 26.59 9.85 29.17 C 16.46 32.37 24.00 32.60 31.20 32.79 C 31.22 34.54 31.19 36.28 31.20 38.02 C 27.88 43.19 21.10 40.70 16.03 41.27 C 12.87 40.93 7.77 42.41 6.57 38.34 C 4.75 32.09 5.21 25.46 4.93 19.02 C 4.68 14.83 5.48 10.66 6.97 6.75 Z" />
</g>
<g id="#e1eaf1ff">
<path fill="#e1eaf1" opacity="1.00" d=" M 7.11 11.66 C 9.04 8.09 12.89 5.83 16.96 5.97 C 26.96 5.93 36.97 5.93 46.97 5.97 C 51.06 5.81 54.95 8.06 56.88 11.65 C 53.64 11.11 51.59 7.59 48.02 8.02 C 37.35 7.85 26.67 7.85 16.00 8.01 C 12.43 7.60 10.35 11.07 7.11 11.66 Z" />
</g>
<g id="#6182a1ff">
<path fill="#6182a1" opacity="1.00" d=" M 3.82 11.55 C 4.42 9.69 5.58 8.09 6.97 6.75 C 5.48 10.66 4.68 14.83 4.93 19.02 C 5.21 25.46 4.75 32.09 6.57 38.34 C 7.77 42.41 12.87 40.93 16.03 41.27 C 21.10 40.70 27.88 43.19 31.20 38.02 C 31.20 40.80 31.16 43.58 31.12 46.36 C 33.18 46.40 35.24 46.40 37.30 46.42 C 37.21 41.91 37.36 37.40 37.22 32.90 L 37.91 33.46 C 38.52 35.92 38.94 38.43 39.46 40.91 C 44.29 41.42 49.17 41.42 54.02 41.08 C 56.37 41.28 57.44 38.82 57.84 36.90 C 59.25 30.39 58.93 23.66 59.02 17.04 C 59.14 13.48 58.20 10.03 57.00 6.72 C 58.41 8.07 59.58 9.68 60.17 11.55 C 59.75 24.06 59.77 36.58 59.43 49.09 C 59.23 54.92 53.86 59.73 48.09 59.55 C 37.39 59.59 26.69 59.58 16.00 59.55 C 10.20 59.78 4.74 54.94 4.56 49.08 C 4.23 36.58 4.27 24.06 3.82 11.55 Z" />
</g>
<g id="#a6c1dbff">
<path fill="#a6c1db" opacity="1.00" d=" M 7.11 11.66 C 10.35 11.07 12.43 7.60 16.00 8.01 C 26.67 7.85 37.35 7.85 48.02 8.02 C 51.59 7.59 53.64 11.11 56.88 11.65 C 57.66 13.10 57.84 14.75 57.89 16.37 C 57.51 16.37 56.75 16.38 56.37 16.39 C 56.12 15.52 55.87 14.66 55.61 13.80 C 51.34 15.83 46.52 15.05 41.96 15.08 C 32.31 14.61 22.64 15.42 12.99 15.09 C 11.40 15.05 9.94 14.35 8.46 13.85 C 7.91 15.09 7.29 16.29 6.78 17.55 C 6.62 17.06 6.29 16.08 6.13 15.59 C 6.18 14.22 6.53 12.89 7.11 11.66 Z" />
</g>
<g id="#3a4f68e3">
<path fill="#3a4f68" opacity="0.89" d=" M 3.11 28.02 C 3.40 22.55 2.37 16.90 3.82 11.55 C 4.27 24.06 4.23 36.58 4.56 49.08 C 4.74 54.94 10.20 59.78 16.00 59.55 C 26.69 59.58 37.39 59.59 48.09 59.55 C 53.86 59.73 59.23 54.92 59.43 49.09 C 59.77 36.58 59.75 24.06 60.17 11.55 C 61.61 16.57 60.62 21.88 60.90 27.02 C 60.58 35.64 61.48 44.35 60.31 52.91 C 58.29 57.30 54.06 60.82 49.06 60.81 C 37.67 60.87 26.28 60.88 14.89 60.81 C 9.89 60.80 5.68 57.26 3.68 52.87 C 2.54 44.65 3.41 36.30 3.11 28.02 Z" />
</g>
<g id="#99b6d1ff">
<path fill="#99b6d1" opacity="1.00" d=" M 6.78 17.55 C 7.29 16.29 7.91 15.09 8.46 13.85 C 9.94 14.35 11.40 15.05 12.99 15.09 C 22.64 15.42 32.31 14.61 41.96 15.08 C 46.52 15.05 51.34 15.83 55.61 13.80 C 55.87 14.66 56.12 15.52 56.37 16.39 C 56.75 16.38 57.51 16.37 57.89 16.37 C 57.55 20.29 58.49 24.90 55.49 28.02 C 50.00 25.01 43.53 27.82 37.84 25.51 C 37.77 27.79 37.70 30.06 37.81 32.34 L 37.91 33.46 L 37.22 32.90 C 36.82 27.57 37.47 22.23 37.06 16.91 L 37.03 16.41 C 35.74 15.46 33.13 15.03 32.52 16.97 C 31.98 18.31 31.54 19.76 30.37 20.70 C 28.31 19.98 26.22 21.07 24.20 21.45 C 18.57 22.66 12.77 22.27 7.05 22.45 C 6.98 20.82 6.88 19.18 6.78 17.55 Z" />
</g>
<g id="#88a7c5ff">
<path fill="#88a7c5" opacity="1.00" d=" M 6.13 15.59 C 6.29 16.08 6.62 17.06 6.78 17.55 C 6.88 19.18 6.98 20.82 7.05 22.45 C 12.77 22.27 18.57 22.66 24.20 21.45 C 24.64 21.74 25.50 22.32 25.93 22.61 C 25.35 22.74 24.18 23.01 23.60 23.14 C 23.55 24.49 23.53 25.84 23.53 27.19 C 26.07 27.24 28.61 27.20 31.15 27.23 C 31.19 29.09 31.21 30.94 31.20 32.79 C 24.00 32.60 16.46 32.37 9.85 29.17 C 4.98 26.59 5.88 20.18 6.13 15.59 Z" />
</g>
<g id="#679cc6ff">
<path fill="#679cc6" opacity="1.00" d=" M 32.52 16.97 C 33.13 15.03 35.74 15.46 37.03 16.41 L 37.06 16.91 C 35.56 17.16 34.03 17.10 32.52 16.97 Z" />
</g>
<g id="#ffffffff">
<path fill="#ffffff" opacity="1.00" d=" M 32.52 16.97 C 34.03 17.10 35.56 17.16 37.06 16.91 C 37.47 22.23 36.82 27.57 37.22 32.90 C 37.36 37.40 37.21 41.91 37.30 46.42 C 35.24 46.40 33.18 46.40 31.12 46.36 C 31.16 43.58 31.20 40.80 31.20 38.02 C 31.19 36.28 31.22 34.54 31.20 32.79 C 31.21 30.94 31.19 29.09 31.15 27.23 C 28.61 27.20 26.07 27.24 23.53 27.19 C 23.53 25.84 23.55 24.49 23.60 23.14 C 24.18 23.01 25.35 22.74 25.93 22.61 C 27.50 22.29 29.17 21.83 30.37 20.70 C 31.54 19.76 31.98 18.31 32.52 16.97 Z" />
</g>
<g id="#5990bdff">
<path fill="#5990bd" opacity="1.00" d=" M 24.20 21.45 C 26.22 21.07 28.31 19.98 30.37 20.70 C 29.17 21.83 27.50 22.29 25.93 22.61 C 25.50 22.32 24.64 21.74 24.20 21.45 Z" />
</g>
<g id="#82a3c1ff">
<path fill="#82a3c1" opacity="1.00" d=" M 37.84 25.51 C 43.53 27.82 50.00 25.01 55.49 28.02 C 50.62 31.88 43.84 32.48 37.81 32.34 C 37.70 30.06 37.77 27.79 37.84 25.51 Z" />
</g>
<g id="#00000026">
<path fill="#000000" opacity="0.15" d=" M 3.68 52.87 C 5.68 57.26 9.89 60.80 14.89 60.81 C 26.28 60.88 37.67 60.87 49.06 60.81 C 54.06 60.82 58.29 57.30 60.31 52.91 C 60.29 58.52 55.72 62.50 50.69 64.00 L 13.34 64.00 C 8.28 62.47 3.64 58.56 3.68 52.87 Z" />
</g>
</svg>
