<?xml version="1.0" encoding="UTF-8" ?>
<!DOCTYPE svg PUBLIC "-//W3C//DTD SVG 1.1//EN" "http://www.w3.org/Graphics/SVG/1.1/DTD/svg11.dtd">
<svg width="64pt" height="64pt" viewBox="0 0 64 64" version="1.1" xmlns="http://www.w3.org/2000/svg">
<g id="#3f5572e6">
<path fill="#3f5572" opacity="0.90" d=" M 3.16 14.99 C 3.16 8.72 8.71 3.23 14.95 3.20 C 25.98 3.11 37.00 3.18 48.03 3.16 C 51.35 3.07 54.79 4.19 57.05 6.71 C 53.98 6.15 51.22 4.26 48.01 4.44 C 37.32 4.45 26.63 4.45 15.94 4.45 C 10.48 4.21 4.75 8.34 4.32 14.00 C 4.09 18.53 4.33 23.08 4.42 27.62 C 4.18 33.73 4.50 39.85 4.52 45.97 C 4.55 49.58 5.22 53.51 7.88 56.16 C 10.49 58.83 14.43 59.55 18.02 59.52 C 27.35 59.49 36.68 59.48 46.02 59.52 C 49.82 59.53 54.04 58.64 56.62 55.61 C 59.12 52.70 59.49 48.66 59.50 44.98 C 59.49 39.17 59.83 33.36 59.57 27.56 C 59.68 23.38 59.85 19.19 59.74 15.01 C 59.67 12.04 57.82 9.52 57.06 6.72 C 62.22 10.94 60.66 18.21 60.87 24.04 C 60.57 33.61 61.43 43.27 60.31 52.79 C 58.35 57.20 54.14 60.77 49.15 60.77 C 37.72 60.84 26.29 60.84 14.86 60.77 C 9.88 60.77 5.67 57.22 3.70 52.83 C 3.25 50.58 3.12 48.29 3.16 46.00 C 3.22 35.66 3.06 25.32 3.16 14.99 Z" />
</g>
<g id="#6a90b1ff">
<path fill="#6a90b1" opacity="1.00" d=" M 4.32 14.00 C 4.75 8.34 10.48 4.21 15.94 4.45 C 26.63 4.45 37.32 4.45 48.01 4.44 C 51.22 4.26 53.98 6.15 57.05 6.71 L 57.06 6.72 C 57.82 9.52 59.67 12.04 59.74 15.01 C 59.85 19.19 59.68 23.38 59.57 27.56 C 57.26 31.30 59.04 36.59 55.75 39.77 C 52.38 40.70 48.83 40.42 45.42 39.92 C 44.79 38.58 45.66 35.13 43.33 35.55 C 42.40 33.15 40.51 31.46 38.32 30.22 L 39.92 29.67 C 44.60 33.15 50.72 30.97 55.22 28.30 C 58.86 25.26 58.02 19.85 57.94 15.64 C 57.81 14.79 57.64 13.96 57.42 13.14 C 55.80 9.40 52.39 6.10 48.07 6.21 C 37.36 6.08 26.65 6.10 15.94 6.21 C 11.54 6.13 7.81 9.53 6.57 13.61 C 6.20 14.60 6.13 15.67 6.08 16.71 C 6.01 20.81 5.19 26.14 9.23 28.73 C 15.51 32.27 23.02 32.33 30.03 32.75 C 32.14 33.14 34.82 32.79 36.30 34.66 C 37.31 36.09 37.23 37.91 36.81 39.52 C 35.14 39.16 33.67 40.24 32.06 40.42 C 30.45 40.09 28.92 39.47 27.35 38.99 C 27.14 38.01 26.92 37.03 26.72 36.05 C 25.96 34.16 22.07 34.38 21.17 36.10 C 20.21 37.47 20.03 39.94 18.00 40.07 C 15.04 40.49 11.99 40.52 9.03 40.03 C 7.22 39.83 6.86 37.83 6.46 36.39 C 5.87 33.44 5.88 30.33 4.42 27.62 C 4.33 23.08 4.09 18.53 4.32 14.00 Z" />
</g>
<g id="#ffffffff">
<path fill="#ffffff" opacity="1.00" d=" M 6.57 13.61 C 7.81 9.53 11.54 6.13 15.94 6.21 C 26.65 6.10 37.36 6.08 48.07 6.21 C 52.39 6.10 55.80 9.40 57.42 13.14 L 56.93 13.46 C 55.51 11.72 54.20 9.74 52.09 8.78 C 49.30 7.37 46.08 7.63 43.05 7.60 C 34.02 7.71 24.97 7.48 15.94 7.70 C 11.88 7.73 9.08 10.84 6.57 13.61 Z" />
<path fill="#ffffff" opacity="1.00" d=" M 30.21 16.12 C 33.26 15.90 36.26 16.52 38.94 17.99 C 42.48 20.86 43.63 26.43 39.92 29.67 L 38.32 30.22 C 40.51 31.46 42.40 33.15 43.33 35.55 C 45.05 43.69 35.32 49.24 28.38 46.54 C 23.71 45.46 20.80 40.75 21.17 36.10 C 23.01 36.28 24.88 36.29 26.72 36.05 C 26.92 37.03 27.14 38.01 27.35 38.99 C 28.97 42.88 34.77 43.23 36.81 39.52 C 37.23 37.91 37.31 36.09 36.30 34.66 C 34.82 32.79 32.14 33.14 30.03 32.75 C 30.09 31.55 30.11 30.34 30.17 29.13 C 32.60 28.99 35.53 28.54 36.59 25.98 C 36.90 23.36 34.75 20.68 31.98 21.18 C 28.92 20.80 28.08 24.12 27.35 26.36 C 25.46 26.34 23.56 26.33 21.67 26.28 C 22.14 21.44 25.35 17.19 30.21 16.12 Z" />
</g>
<g id="#a3bed8ff">
<path fill="#a3bed8" opacity="1.00" d=" M 6.57 13.61 C 9.08 10.84 11.88 7.73 15.94 7.70 C 24.97 7.48 34.02 7.71 43.05 7.60 C 46.08 7.63 49.30 7.37 52.09 8.78 C 54.20 9.74 55.51 11.72 56.93 13.46 L 57.42 13.14 C 57.64 13.96 57.81 14.79 57.94 15.64 C 57.57 17.25 57.07 18.82 56.54 20.39 C 52.74 20.21 48.94 20.21 45.14 20.34 C 43.14 20.69 41.89 18.84 40.42 17.85 C 37.09 14.45 31.85 14.30 27.53 15.55 C 24.59 16.22 23.26 19.37 20.75 20.65 C 16.30 20.81 11.85 20.83 7.44 21.48 C 6.93 19.91 6.47 18.32 6.08 16.71 C 6.13 15.67 6.20 14.60 6.57 13.61 Z" />
</g>
<g id="#6c9cc5ff">
<path fill="#6c9cc5" opacity="1.00" d=" M 27.53 15.55 C 31.85 14.30 37.09 14.45 40.42 17.85 L 38.94 17.99 C 36.26 16.52 33.26 15.90 30.21 16.12 C 29.54 15.98 28.20 15.69 27.53 15.55 Z" />
</g>
<g id="#89a8c7ff">
<path fill="#89a8c7" opacity="1.00" d=" M 20.75 20.65 C 23.26 19.37 24.59 16.22 27.53 15.55 C 28.20 15.69 29.54 15.98 30.21 16.12 C 25.35 17.19 22.14 21.44 21.67 26.28 C 23.56 26.33 25.46 26.34 27.35 26.36 C 28.08 24.12 28.92 20.80 31.98 21.18 C 34.75 20.68 36.90 23.36 36.59 25.98 C 34.49 26.41 32.38 26.80 30.28 27.24 C 30.25 27.71 30.20 28.66 30.17 29.13 C 30.11 30.34 30.09 31.55 30.03 32.75 C 23.02 32.33 15.51 32.27 9.23 28.73 C 5.19 26.14 6.01 20.81 6.08 16.71 C 6.47 18.32 6.93 19.91 7.44 21.48 C 11.85 20.83 16.30 20.81 20.75 20.65 Z" />
</g>
<g id="#8caac8ff">
<path fill="#8caac8" opacity="1.00" d=" M 56.54 20.39 C 57.07 18.82 57.57 17.25 57.94 15.64 C 58.02 19.85 58.86 25.26 55.22 28.30 C 50.72 30.97 44.60 33.15 39.92 29.67 C 43.63 26.43 42.48 20.86 38.94 17.99 L 40.42 17.85 C 41.89 18.84 43.14 20.69 45.14 20.34 C 48.94 20.21 52.74 20.21 56.54 20.39 Z" />
</g>
<g id="#6794bbff">
<path fill="#6794bb" opacity="1.00" d=" M 30.28 27.24 C 32.38 26.80 34.49 26.41 36.59 25.98 C 35.53 28.54 32.60 28.99 30.17 29.13 C 30.20 28.66 30.25 27.71 30.28 27.24 Z" />
</g>
<g id="#6182a1ff">
<path fill="#6182a1" opacity="1.00" d=" M 4.42 27.62 C 5.88 30.33 5.87 33.44 6.46 36.39 C 6.86 37.83 7.22 39.83 9.03 40.03 C 11.99 40.52 15.04 40.49 18.00 40.07 C 20.03 39.94 20.21 37.47 21.17 36.10 C 20.80 40.75 23.71 45.46 28.38 46.54 C 35.32 49.24 45.05 43.69 43.33 35.55 C 45.66 35.13 44.79 38.58 45.42 39.92 C 48.83 40.42 52.38 40.70 55.75 39.77 C 59.04 36.59 57.26 31.30 59.57 27.56 C 59.83 33.36 59.49 39.17 59.50 44.98 C 59.49 48.66 59.12 52.70 56.62 55.61 C 54.04 58.64 49.82 59.53 46.02 59.52 C 36.68 59.48 27.35 59.49 18.02 59.52 C 14.43 59.55 10.49 58.83 7.88 56.16 C 5.22 53.51 4.55 49.58 4.52 45.97 C 4.50 39.85 4.18 33.73 4.42 27.62 Z" />
</g>
<g id="#21508dff">
<path fill="#21508d" opacity="1.00" d=" M 21.17 36.10 C 22.07 34.38 25.96 34.16 26.72 36.05 C 24.88 36.29 23.01 36.28 21.17 36.10 Z" />
</g>
<g id="#416195ff">
<path fill="#416195" opacity="1.00" d=" M 27.35 38.99 C 28.92 39.47 30.45 40.09 32.06 40.42 C 33.67 40.24 35.14 39.16 36.81 39.52 C 34.77 43.23 28.97 42.88 27.35 38.99 Z" />
</g>
<g id="#00000026">
<path fill="#000000" opacity="0.15" d=" M 3.70 52.83 C 5.67 57.22 9.88 60.77 14.86 60.77 C 26.29 60.84 37.72 60.84 49.15 60.77 C 54.14 60.77 58.35 57.20 60.31 52.79 C 60.40 58.48 55.70 62.49 50.65 64.00 L 13.32 64.00 C 8.27 62.51 3.62 58.48 3.70 52.83 Z" />
</g>
</svg>
