<?xml version="1.0" encoding="UTF-8" ?>
<!DOCTYPE svg PUBLIC "-//W3C//DTD SVG 1.1//EN" "http://www.w3.org/Graphics/SVG/1.1/DTD/svg11.dtd">
<svg width="64pt" height="64pt" viewBox="0 0 64 64" version="1.1" xmlns="http://www.w3.org/2000/svg">
<g id="#6b90b2ff">
<path fill="#6b90b2" opacity="1.00" d=" M 7.52 6.20 C 9.63 4.49 12.25 3.32 15.01 3.39 C 26.34 3.35 37.67 3.35 48.99 3.39 C 51.77 3.32 54.40 4.50 56.52 6.23 C 57.52 8.48 58.90 10.60 59.53 12.98 C 59.98 17.83 59.57 22.72 59.59 27.59 C 58.32 31.45 58.15 35.70 56.33 39.34 C 52.05 41.42 47.16 40.18 42.76 39.22 C 43.61 34.58 42.05 29.45 37.80 27.00 C 38.22 26.91 39.07 26.74 39.49 26.65 C 41.56 27.79 43.32 29.93 45.91 29.69 C 49.62 29.78 54.36 30.20 56.70 26.64 C 58.30 23.60 57.77 19.98 58.06 16.66 C 58.14 15.48 57.85 14.32 57.54 13.19 C 56.01 9.28 52.43 6.10 48.08 6.03 C 37.37 5.91 26.65 5.91 15.94 6.03 C 11.58 6.09 7.99 9.28 6.46 13.20 C 6.15 14.34 5.89 15.51 5.92 16.70 C 6.01 19.82 5.71 23.09 6.86 26.06 C 8.54 29.41 12.62 30.05 15.87 31.03 C 19.52 31.83 22.97 34.57 26.85 33.18 C 28.81 31.13 31.83 30.49 34.46 31.55 C 36.62 32.95 37.30 35.78 36.78 38.19 C 35.56 38.86 34.33 39.52 33.06 40.09 C 31.26 41.26 29.46 39.49 27.80 38.92 L 27.51 39.75 C 27.28 39.31 26.82 38.42 26.59 37.97 C 24.70 37.94 22.82 37.91 20.93 37.92 C 20.92 38.31 20.89 39.08 20.88 39.47 C 16.50 38.95 11.74 42.24 7.71 39.27 C 5.74 35.73 5.78 31.39 4.42 27.58 C 4.43 22.71 4.02 17.82 4.47 12.97 C 5.11 10.57 6.52 8.45 7.52 6.20 M 21.00 36.32 C 22.06 37.68 25.18 37.07 26.85 36.71 C 25.93 35.19 22.61 35.77 21.00 36.32 Z" />
</g>
<g id="#e0e8f0ff">
<path fill="#e0e8f0" opacity="1.00" d=" M 6.46 13.20 C 7.99 9.28 11.58 6.09 15.94 6.03 C 26.65 5.91 37.37 5.91 48.08 6.03 C 52.43 6.10 56.01 9.28 57.54 13.19 C 57.29 13.28 56.81 13.47 56.56 13.56 C 54.72 10.55 51.78 7.85 48.01 8.03 C 37.32 7.91 26.62 7.90 15.93 8.03 C 12.21 7.87 9.27 10.54 7.51 13.56 C 7.25 13.47 6.72 13.29 6.46 13.20 Z" />
</g>
<g id="#3f5571e7">
<path fill="#3f5571" opacity="0.91" d=" M 3.12 15.94 C 3.07 12.27 4.43 8.38 7.52 6.20 C 6.52 8.45 5.11 10.57 4.47 12.97 C 4.02 17.82 4.43 22.71 4.42 27.58 C 4.26 34.75 4.43 41.92 4.66 49.08 C 4.85 54.90 10.22 59.69 15.99 59.49 C 26.67 59.50 37.35 59.50 48.03 59.49 C 53.80 59.66 59.20 54.88 59.34 49.03 C 59.57 41.89 59.74 34.74 59.59 27.59 C 59.57 22.72 59.98 17.83 59.53 12.98 C 58.90 10.60 57.52 8.48 56.52 6.23 C 60.60 9.07 61.17 14.43 60.89 18.99 C 60.53 30.25 61.45 41.59 60.32 52.80 C 58.36 57.21 54.13 60.77 49.14 60.77 C 37.74 60.85 26.34 60.83 14.94 60.78 C 9.93 60.80 5.67 57.25 3.69 52.83 C 3.33 50.92 3.15 48.98 3.16 47.04 C 3.20 36.67 3.11 26.31 3.12 15.94 Z" />
</g>
<g id="#a6c1dbff">
<path fill="#a6c1db" opacity="1.00" d=" M 7.51 13.56 C 9.27 10.54 12.21 7.87 15.93 8.03 C 26.62 7.90 37.32 7.91 48.01 8.03 C 51.78 7.85 54.72 10.55 56.56 13.56 C 53.81 14.61 50.89 15.38 47.93 15.20 C 37.63 14.64 27.31 14.69 17.01 15.20 C 13.76 15.42 10.54 14.70 7.51 13.56 Z" />
</g>
<g id="#9ab7d2ff">
<path fill="#9ab7d2" opacity="1.00" d=" M 5.92 16.70 C 5.89 15.51 6.15 14.34 6.46 13.20 C 6.72 13.29 7.25 13.47 7.51 13.56 C 10.54 14.70 13.76 15.42 17.01 15.20 C 27.31 14.69 37.63 14.64 47.93 15.20 C 50.89 15.38 53.81 14.61 56.56 13.56 C 56.81 13.47 57.29 13.28 57.54 13.19 C 57.85 14.32 58.14 15.48 58.06 16.66 C 57.63 18.56 57.05 20.42 56.45 22.26 C 51.85 21.89 46.09 23.44 42.48 19.86 C 42.08 20.46 41.68 21.06 41.28 21.66 C 41.30 20.11 41.30 18.55 41.28 16.99 L 41.27 15.93 C 35.79 15.83 30.28 15.56 24.81 16.12 L 24.65 17.01 C 24.26 19.37 23.85 21.73 23.41 24.09 C 23.28 23.46 23.02 22.21 22.89 21.58 C 17.75 21.88 12.62 22.85 7.45 22.34 C 6.89 20.47 6.34 18.60 5.92 16.70 Z" />
</g>
<g id="#669cc6ff">
<path fill="#669cc6" opacity="1.00" d=" M 24.81 16.12 C 30.28 15.56 35.79 15.83 41.27 15.93 L 41.28 16.99 C 35.74 17.00 30.19 17.00 24.65 17.01 L 24.81 16.12 Z" />
</g>
<g id="#89a8c7ff">
<path fill="#89a8c7" opacity="1.00" d=" M 5.92 16.70 C 6.34 18.60 6.89 20.47 7.45 22.34 C 12.62 22.85 17.75 21.88 22.89 21.58 C 23.02 22.21 23.28 23.46 23.41 24.09 C 22.91 27.04 22.37 29.99 21.86 32.94 C 23.52 33.02 25.19 33.10 26.85 33.18 C 22.97 34.57 19.52 31.83 15.87 31.03 C 12.62 30.05 8.54 29.41 6.86 26.06 C 5.71 23.09 6.01 19.82 5.92 16.70 Z" />
</g>
<g id="#ffffffff">
<path fill="#ffffff" opacity="1.00" d=" M 24.65 17.01 C 30.19 17.00 35.74 17.00 41.28 16.99 C 41.30 18.55 41.30 20.11 41.28 21.66 C 37.17 21.76 33.06 21.66 28.96 21.75 C 28.82 23.09 28.62 24.42 28.37 25.75 C 28.21 26.37 27.91 27.62 27.75 28.25 C 30.73 26.22 34.42 25.79 37.80 27.00 C 42.05 29.45 43.61 34.58 42.76 39.22 C 40.93 45.14 34.02 48.71 28.16 46.61 C 24.63 45.81 21.66 43.04 20.88 39.47 C 20.89 39.08 20.92 38.31 20.93 37.92 C 22.82 37.91 24.70 37.94 26.59 37.97 C 26.82 38.42 27.28 39.31 27.51 39.75 C 29.51 43.74 35.80 42.32 36.78 38.19 C 37.30 35.78 36.62 32.95 34.46 31.55 C 31.83 30.49 28.81 31.13 26.85 33.18 C 25.19 33.10 23.52 33.02 21.86 32.94 C 22.37 29.99 22.91 27.04 23.41 24.09 C 23.85 21.73 24.26 19.37 24.65 17.01 Z" />
</g>
<g id="#8fadcaff">
<path fill="#8fadca" opacity="1.00" d=" M 56.45 22.26 C 57.05 20.42 57.63 18.56 58.06 16.66 C 57.77 19.98 58.30 23.60 56.70 26.64 C 54.36 30.20 49.62 29.78 45.91 29.69 C 43.32 29.93 41.56 27.79 39.49 26.65 C 36.32 24.05 32.01 24.87 28.37 25.75 C 28.62 24.42 28.82 23.09 28.96 21.75 C 33.06 21.66 37.17 21.76 41.28 21.66 C 41.68 21.06 42.08 20.46 42.48 19.86 C 46.09 23.44 51.85 21.89 56.45 22.26 Z" />
</g>
<g id="#5287b4ff">
<path fill="#5287b4" opacity="1.00" d=" M 28.37 25.75 C 32.01 24.87 36.32 24.05 39.49 26.65 C 39.07 26.74 38.22 26.91 37.80 27.00 C 34.42 25.79 30.73 26.22 27.75 28.25 C 27.91 27.62 28.21 26.37 28.37 25.75 Z" />
</g>
<g id="#6182a1ff">
<path fill="#6182a1" opacity="1.00" d=" M 4.42 27.58 C 5.78 31.39 5.74 35.73 7.71 39.27 C 11.74 42.24 16.50 38.95 20.88 39.47 C 21.66 43.04 24.63 45.81 28.16 46.61 C 34.02 48.71 40.93 45.14 42.76 39.22 C 47.16 40.18 52.05 41.42 56.33 39.34 C 58.15 35.70 58.32 31.45 59.59 27.59 C 59.74 34.74 59.57 41.89 59.34 49.03 C 59.20 54.88 53.80 59.66 48.03 59.49 C 37.35 59.50 26.67 59.50 15.99 59.49 C 10.22 59.69 4.85 54.90 4.66 49.08 C 4.43 41.92 4.26 34.75 4.42 27.58 Z" />
</g>
<g id="#305f92ff">
<path fill="#305f92" opacity="1.00" d=" M 21.00 36.32 C 22.61 35.77 25.93 35.19 26.85 36.71 C 25.18 37.07 22.06 37.68 21.00 36.32 Z" />
</g>
<g id="#3d6093ff">
<path fill="#3d6093" opacity="1.00" d=" M 33.06 40.09 C 34.33 39.52 35.56 38.86 36.78 38.19 C 35.80 42.32 29.51 43.74 27.51 39.75 L 27.80 38.92 C 29.46 39.49 31.26 41.26 33.06 40.09 Z" />
</g>
<g id="#00000026">
<path fill="#000000" opacity="0.15" d=" M 3.69 52.83 C 5.67 57.25 9.93 60.80 14.94 60.78 C 26.34 60.83 37.74 60.85 49.14 60.77 C 54.13 60.77 58.36 57.21 60.32 52.80 C 60.37 58.51 55.75 62.49 50.65 64.00 L 13.36 64.00 C 8.25 62.53 3.66 58.52 3.69 52.83 Z" />
</g>
</svg>
