<?xml version="1.0" encoding="UTF-8" ?>
<!DOCTYPE svg PUBLIC "-//W3C//DTD SVG 1.1//EN" "http://www.w3.org/Graphics/SVG/1.1/DTD/svg11.dtd">
<svg width="64pt" height="64pt" viewBox="0 0 64 64" version="1.1" xmlns="http://www.w3.org/2000/svg">
<g id="#6a90b1ff">
<path fill="#6a90b1" opacity="1.00" d=" M 7.22 6.51 C 9.30 4.56 12.14 3.34 15.02 3.39 C 26.34 3.36 37.65 3.36 48.97 3.38 C 51.86 3.33 54.71 4.57 56.80 6.53 C 57.53 8.77 58.96 10.72 59.55 13.00 C 59.98 17.87 59.60 22.76 59.58 27.63 C 57.50 31.38 58.28 35.86 56.74 39.76 C 53.03 40.55 49.10 40.66 45.40 39.78 C 44.78 37.63 44.63 35.25 43.08 33.49 C 42.24 31.00 40.66 28.77 38.26 27.56 L 38.75 26.29 C 41.34 27.21 42.69 29.68 44.52 31.53 C 48.52 31.58 52.62 30.21 55.80 27.80 C 58.85 24.98 57.76 20.39 57.86 16.71 C 57.82 15.66 57.85 14.56 57.43 13.56 C 56.15 9.54 52.49 6.15 48.10 6.21 C 37.38 6.10 26.65 6.10 15.92 6.21 C 11.50 6.11 8.00 9.55 6.53 13.48 C 5.19 17.24 6.20 21.47 6.72 25.33 C 8.93 29.85 14.75 30.93 19.28 31.49 C 20.24 29.97 21.05 28.36 21.88 26.77 C 20.97 30.75 21.35 34.93 22.16 38.89 C 17.42 40.56 12.19 40.95 7.30 39.69 C 5.71 35.81 6.26 31.39 4.42 27.57 C 4.40 22.71 4.01 17.82 4.45 12.97 C 5.06 10.69 6.49 8.75 7.22 6.51 Z" />
<path fill="#6a90b1" opacity="1.00" d=" M 27.53 15.78 C 32.02 14.48 37.53 14.22 40.95 17.97 L 40.76 19.26 C 37.24 15.57 31.00 14.99 26.87 17.98 L 25.78 18.14 C 26.22 17.55 27.09 16.37 27.53 15.78 Z" />
</g>
<g id="#ffffffff">
<path fill="#ffffff" opacity="1.00" d=" M 6.53 13.48 C 8.00 9.55 11.50 6.11 15.92 6.21 C 26.65 6.10 37.38 6.10 48.10 6.21 C 52.49 6.15 56.15 9.54 57.43 13.56 C 54.89 10.80 52.11 7.69 48.00 7.69 C 37.68 7.54 27.35 7.65 17.03 7.63 C 13.14 7.57 9.13 9.59 7.57 13.28 C 7.31 13.33 6.79 13.43 6.53 13.48 Z" />
<path fill="#ffffff" opacity="1.00" d=" M 26.87 17.98 C 31.00 14.99 37.24 15.57 40.76 19.26 C 41.60 20.86 42.38 22.50 42.88 24.25 C 40.99 24.31 39.09 24.43 37.21 24.23 C 36.07 22.35 34.57 19.98 31.97 20.67 C 28.26 22.02 27.79 26.48 26.79 29.72 C 29.91 26.86 34.31 26.05 38.26 27.56 C 40.66 28.77 42.24 31.00 43.08 33.49 C 44.40 38.69 41.68 44.80 36.41 46.47 C 30.61 48.91 23.54 44.95 22.16 38.89 C 21.35 34.93 20.97 30.75 21.88 26.77 C 22.68 23.43 24.32 20.31 26.87 17.98 M 28.41 39.41 C 29.70 42.84 35.48 43.16 36.46 39.40 L 36.97 39.49 C 37.82 36.39 36.95 31.33 32.96 31.24 C 28.71 30.54 26.52 36.27 28.41 39.41 Z" />
</g>
<g id="#3f5571e8">
<path fill="#3f5571" opacity="0.91" d=" M 3.12 15.95 C 3.10 12.46 4.25 8.60 7.22 6.51 C 6.49 8.75 5.06 10.69 4.45 12.97 C 4.01 17.82 4.40 22.71 4.42 27.57 C 4.16 33.74 4.52 39.90 4.54 46.07 C 4.52 49.64 5.19 53.57 7.85 56.17 C 10.49 58.80 14.40 59.64 18.01 59.51 C 28.02 59.44 38.03 59.55 48.04 59.46 C 53.81 59.52 59.06 54.88 59.32 49.04 C 59.55 41.91 59.78 34.76 59.58 27.63 C 59.60 22.76 59.98 17.87 59.55 13.00 C 58.96 10.72 57.53 8.77 56.80 6.53 C 59.77 8.63 60.91 12.50 60.88 16.00 C 60.86 26.68 60.82 37.36 60.82 48.04 C 60.88 49.67 60.59 51.28 60.24 52.86 C 58.35 57.32 54.02 60.76 49.07 60.80 C 37.70 60.81 26.32 60.82 14.94 60.80 C 9.99 60.76 5.65 57.32 3.76 52.86 C 3.41 51.29 3.12 49.69 3.18 48.08 C 3.18 37.37 3.14 26.66 3.12 15.95 Z" />
</g>
<g id="#a5bfd9ff">
<path fill="#a5bfd9" opacity="1.00" d=" M 7.57 13.28 C 9.13 9.59 13.14 7.57 17.03 7.63 C 27.35 7.65 37.68 7.54 48.00 7.69 C 52.11 7.69 54.89 10.80 57.43 13.56 C 57.85 14.56 57.82 15.66 57.86 16.71 C 57.47 18.27 57.04 19.83 56.43 21.32 C 52.95 21.05 49.49 20.55 45.99 20.60 C 43.87 20.91 42.48 19.09 40.95 17.97 C 37.53 14.22 32.02 14.48 27.53 15.78 C 22.37 14.99 17.15 15.51 11.96 15.33 C 10.26 15.31 8.97 14.05 7.57 13.28 Z" />
</g>
<g id="#94b2cfff">
<path fill="#94b2cf" opacity="1.00" d=" M 6.72 25.33 C 6.20 21.47 5.19 17.24 6.53 13.48 C 6.79 13.43 7.31 13.33 7.57 13.28 C 8.97 14.05 10.26 15.31 11.96 15.33 C 17.15 15.51 22.37 14.99 27.53 15.78 C 27.09 16.37 26.22 17.55 25.78 18.14 L 26.87 17.98 C 24.32 20.31 22.68 23.43 21.88 26.77 C 21.05 28.36 20.24 29.97 19.28 31.49 C 14.75 30.93 8.93 29.85 6.72 25.33 Z" />
</g>
<g id="#8caac8ff">
<path fill="#8caac8" opacity="1.00" d=" M 56.43 21.32 C 57.04 19.83 57.47 18.27 57.86 16.71 C 57.76 20.39 58.85 24.98 55.80 27.80 C 52.62 30.21 48.52 31.58 44.52 31.53 C 42.69 29.68 41.34 27.21 38.75 26.29 L 38.26 27.56 C 34.31 26.05 29.91 26.86 26.79 29.72 C 27.79 26.48 28.26 22.02 31.97 20.67 C 34.57 19.98 36.07 22.35 37.21 24.23 C 39.09 24.43 40.99 24.31 42.88 24.25 C 42.38 22.50 41.60 20.86 40.76 19.26 L 40.95 17.97 C 42.48 19.09 43.87 20.91 45.99 20.60 C 49.49 20.55 52.95 21.05 56.43 21.32 Z" />
</g>
<g id="#6182a1ff">
<path fill="#6182a1" opacity="1.00" d=" M 4.42 27.57 C 6.26 31.39 5.71 35.81 7.30 39.69 C 12.19 40.95 17.42 40.56 22.16 38.89 C 23.54 44.95 30.61 48.91 36.41 46.47 C 41.68 44.80 44.40 38.69 43.08 33.49 C 44.63 35.25 44.78 37.63 45.40 39.78 C 49.10 40.66 53.03 40.55 56.74 39.76 C 58.28 35.86 57.50 31.38 59.58 27.63 C 59.78 34.76 59.55 41.91 59.32 49.04 C 59.06 54.88 53.81 59.52 48.04 59.46 C 38.03 59.55 28.02 59.44 18.01 59.51 C 14.40 59.64 10.49 58.80 7.85 56.17 C 5.19 53.57 4.52 49.64 4.54 46.07 C 4.52 39.90 4.16 33.74 4.42 27.57 Z" />
</g>
<g id="#6a8fb0ff">
<path fill="#6a8fb0" opacity="1.00" d=" M 28.41 39.41 C 26.52 36.27 28.71 30.54 32.96 31.24 C 36.95 31.33 37.82 36.39 36.97 39.49 L 36.46 39.40 C 35.11 39.08 33.96 40.12 32.70 40.40 C 31.24 40.20 29.93 38.99 28.41 39.41 Z" />
</g>
<g id="#456596ff">
<path fill="#456596" opacity="1.00" d=" M 28.41 39.41 C 29.93 38.99 31.24 40.20 32.70 40.40 C 33.96 40.12 35.11 39.08 36.46 39.40 C 35.48 43.16 29.70 42.84 28.41 39.41 Z" />
</g>
<g id="#00000026">
<path fill="#000000" opacity="0.15" d=" M 3.76 52.86 C 5.65 57.32 9.99 60.76 14.94 60.80 C 26.32 60.82 37.70 60.81 49.07 60.80 C 54.02 60.76 58.35 57.32 60.24 52.86 C 60.48 58.58 55.65 62.53 50.62 64.00 L 13.36 64.00 C 8.26 62.60 3.58 58.55 3.76 52.86 Z" />
</g>
</svg>
