<?xml version="1.0" encoding="UTF-8" ?>
<!DOCTYPE svg PUBLIC "-//W3C//DTD SVG 1.1//EN" "http://www.w3.org/Graphics/SVG/1.1/DTD/svg11.dtd">
<svg width="64pt" height="64pt" viewBox="0 0 64 64" version="1.1" xmlns="http://www.w3.org/2000/svg">
<g id="#6a90b1ff">
<path fill="#6a90b1" opacity="1.00" d=" M 7.54 6.20 C 9.62 4.47 12.27 3.37 15.00 3.39 C 25.65 3.32 36.31 3.41 46.97 3.35 C 50.35 3.15 53.88 3.91 56.47 6.21 C 57.71 9.02 59.76 11.69 59.70 14.89 C 59.82 19.13 59.65 23.37 59.57 27.61 C 58.39 31.53 57.69 35.57 56.48 39.49 C 49.93 40.79 43.12 40.60 36.54 39.67 C 35.98 38.36 35.43 37.05 34.90 35.73 C 35.37 34.19 35.95 32.69 36.56 31.21 C 41.12 33.18 46.09 31.80 50.63 30.53 C 53.41 29.69 56.54 28.36 57.38 25.28 C 57.73 21.18 58.32 17.02 57.61 12.93 C 57.44 12.66 57.10 12.12 56.93 11.85 C 55.09 8.19 51.21 5.83 47.11 5.98 C 37.03 5.93 26.95 5.93 16.88 5.98 C 12.77 5.84 8.91 8.20 7.05 11.84 C 6.51 13.05 6.16 14.34 6.13 15.67 C 5.97 20.21 4.90 26.61 9.84 29.10 C 15.55 31.78 22.03 32.66 28.29 32.49 C 30.14 29.76 31.50 26.44 34.65 24.94 C 32.14 28.46 30.22 32.36 28.77 36.42 C 26.38 37.99 24.11 40.24 21.06 40.23 C 16.53 40.50 11.94 40.58 7.49 39.55 C 6.32 35.60 5.62 31.53 4.43 27.58 C 4.34 23.37 4.18 19.15 4.30 14.94 C 4.22 11.71 6.28 9.02 7.54 6.20 Z" />
</g>
<g id="#e2eaf1ff">
<path fill="#e2eaf1" opacity="1.00" d=" M 7.05 11.84 C 8.91 8.20 12.77 5.84 16.88 5.98 C 26.95 5.93 37.03 5.93 47.11 5.98 C 51.21 5.83 55.09 8.19 56.93 11.85 C 53.82 10.86 51.57 7.79 48.08 8.02 C 37.39 7.85 26.69 7.86 16.00 8.02 C 12.45 7.74 10.21 10.89 7.05 11.84 Z" />
</g>
<g id="#3e5571e7">
<path fill="#3e5571" opacity="0.91" d=" M 3.13 23.05 C 3.16 17.29 2.06 10.00 7.54 6.20 C 6.28 9.02 4.22 11.71 4.30 14.94 C 4.18 19.15 4.34 23.37 4.43 27.58 C 4.29 34.41 4.45 41.24 4.62 48.06 C 4.68 52.00 6.61 55.98 10.12 57.95 C 12.75 59.61 15.97 59.51 18.96 59.50 C 28.66 59.41 38.37 59.53 48.07 59.46 C 52.08 59.53 56.05 57.33 57.94 53.77 C 59.41 51.10 59.44 47.98 59.49 45.01 C 59.50 39.21 59.75 33.41 59.57 27.61 C 59.65 23.37 59.82 19.13 59.70 14.89 C 59.76 11.69 57.71 9.02 56.47 6.21 C 61.92 10.00 60.84 17.25 60.87 22.99 C 60.57 32.91 61.41 42.91 60.33 52.79 C 58.35 57.19 54.14 60.77 49.14 60.77 C 37.73 60.85 26.32 60.83 14.91 60.77 C 9.90 60.79 5.65 57.21 3.67 52.80 C 2.59 42.94 3.43 32.96 3.13 23.05 Z" />
</g>
<g id="#a5bfd9ff">
<path fill="#a5bfd9" opacity="1.00" d=" M 7.05 11.84 C 10.21 10.89 12.45 7.74 16.00 8.02 C 26.69 7.86 37.39 7.85 48.08 8.02 C 51.57 7.79 53.82 10.86 56.93 11.85 C 57.10 12.12 57.44 12.66 57.61 12.93 C 57.35 14.39 57.07 15.84 56.78 17.29 C 51.06 17.95 45.54 16.36 40.04 15.09 C 33.50 14.79 26.76 14.32 20.40 16.21 C 15.83 17.36 11.07 17.15 6.41 17.73 C 6.34 17.22 6.20 16.18 6.13 15.67 C 6.16 14.34 6.51 13.05 7.05 11.84 Z" />
</g>
<g id="#97b4d0ff">
<path fill="#97b4d0" opacity="1.00" d=" M 57.61 12.93 C 58.32 17.02 57.73 21.18 57.38 25.28 C 51.82 24.84 46.24 24.80 40.69 24.21 C 41.39 23.39 42.08 22.56 42.77 21.73 C 42.78 20.15 42.78 18.57 42.71 17.00 L 42.66 16.11 C 36.14 15.73 29.58 15.79 23.05 16.04 L 22.66 17.01 C 22.60 17.47 22.47 18.40 22.40 18.87 C 21.61 20.23 21.11 21.93 19.75 22.84 C 15.67 23.77 11.43 23.49 7.29 23.35 C 6.99 21.48 6.72 19.60 6.41 17.73 C 11.07 17.15 15.83 17.36 20.40 16.21 C 26.76 14.32 33.50 14.79 40.04 15.09 C 45.54 16.36 51.06 17.95 56.78 17.29 C 57.07 15.84 57.35 14.39 57.61 12.93 Z" />
</g>
<g id="#88a7c5ff">
<path fill="#88a7c5" opacity="1.00" d=" M 6.13 15.67 C 6.20 16.18 6.34 17.22 6.41 17.73 C 6.72 19.60 6.99 21.48 7.29 23.35 C 11.43 23.49 15.67 23.77 19.75 22.84 C 21.11 21.93 21.61 20.23 22.40 18.87 C 22.38 20.04 22.38 21.22 22.40 22.40 C 27.14 22.43 31.88 22.38 36.63 22.37 C 35.99 23.24 35.33 24.10 34.65 24.94 C 31.50 26.44 30.14 29.76 28.29 32.49 C 22.03 32.66 15.55 31.78 9.84 29.10 C 4.90 26.61 5.97 20.21 6.13 15.67 Z" />
</g>
<g id="#659bc6ff">
<path fill="#659bc6" opacity="1.00" d=" M 23.05 16.04 C 29.58 15.79 36.14 15.73 42.66 16.11 L 42.71 17.00 C 36.03 17.00 29.35 16.99 22.66 17.01 L 23.05 16.04 Z" />
</g>
<g id="#ffffffff">
<path fill="#ffffff" opacity="1.00" d=" M 22.40 18.87 C 22.47 18.40 22.60 17.47 22.66 17.01 C 29.35 16.99 36.03 17.00 42.71 17.00 C 42.78 18.57 42.78 20.15 42.77 21.73 C 42.08 22.56 41.39 23.39 40.69 24.21 C 38.97 26.32 37.60 28.70 36.56 31.21 C 35.95 32.69 35.37 34.19 34.90 35.73 C 33.89 39.20 33.31 42.79 33.11 46.39 C 30.91 46.40 28.72 46.40 26.53 46.39 C 27.04 43.02 27.65 39.65 28.77 36.42 C 30.22 32.36 32.14 28.46 34.65 24.94 C 35.33 24.10 35.99 23.24 36.63 22.37 C 31.88 22.38 27.14 22.43 22.40 22.40 C 22.38 21.22 22.38 20.04 22.40 18.87 Z" />
</g>
<g id="#85a5c3ff">
<path fill="#85a5c3" opacity="1.00" d=" M 36.56 31.21 C 37.60 28.70 38.97 26.32 40.69 24.21 C 46.24 24.80 51.82 24.84 57.38 25.28 C 56.54 28.36 53.41 29.69 50.63 30.53 C 46.09 31.80 41.12 33.18 36.56 31.21 Z" />
</g>
<g id="#6284a3ff">
<path fill="#6284a3" opacity="1.00" d=" M 4.43 27.58 C 5.62 31.53 6.32 35.60 7.49 39.55 C 11.94 40.58 16.53 40.50 21.06 40.23 C 24.11 40.24 26.38 37.99 28.77 36.42 C 27.65 39.65 27.04 43.02 26.53 46.39 C 28.72 46.40 30.91 46.40 33.11 46.39 C 33.31 42.79 33.89 39.20 34.90 35.73 C 35.43 37.05 35.98 38.36 36.54 39.67 C 43.12 40.60 49.93 40.79 56.48 39.49 C 57.69 35.57 58.39 31.53 59.57 27.61 C 59.75 33.41 59.50 39.21 59.49 45.01 C 59.44 47.98 59.41 51.10 57.94 53.77 C 56.05 57.33 52.08 59.53 48.07 59.46 C 38.37 59.53 28.66 59.41 18.96 59.50 C 15.97 59.51 12.75 59.61 10.12 57.95 C 6.61 55.98 4.68 52.00 4.62 48.06 C 4.45 41.24 4.29 34.41 4.43 27.58 Z" />
</g>
<g id="#00000026">
<path fill="#000000" opacity="0.15" d=" M 3.67 52.80 C 5.65 57.21 9.90 60.79 14.91 60.77 C 26.32 60.83 37.73 60.85 49.14 60.77 C 54.14 60.77 58.35 57.19 60.33 52.79 C 60.38 58.49 55.74 62.47 50.66 64.00 L 13.39 64.00 C 8.26 62.52 3.62 58.52 3.67 52.80 Z" />
</g>
</svg>
