<?xml version="1.0" encoding="UTF-8" ?>
<!DOCTYPE svg PUBLIC "-//W3C//DTD SVG 1.1//EN" "http://www.w3.org/Graphics/SVG/1.1/DTD/svg11.dtd">
<svg width="64pt" height="64pt" viewBox="0 0 64 64" version="1.1" xmlns="http://www.w3.org/2000/svg">
<g id="#6a90b1ff">
<path fill="#6a90b1" opacity="1.00" d=" M 7.27 6.47 C 9.33 4.52 12.15 3.36 14.99 3.39 C 26.33 3.36 37.66 3.36 49.00 3.39 C 51.87 3.36 54.70 4.53 56.77 6.50 C 57.56 9.05 59.53 11.21 59.65 13.95 C 59.86 18.50 59.63 23.05 59.58 27.60 C 57.79 31.44 58.22 35.84 56.61 39.72 C 52.85 41.10 48.86 40.32 45.23 38.96 C 44.89 39.15 44.23 39.54 43.90 39.74 C 44.88 35.71 42.37 31.74 38.66 30.20 C 39.00 30.03 39.68 29.67 40.03 29.49 C 44.62 33.23 50.76 30.97 55.24 28.25 C 58.98 25.31 57.93 19.91 57.93 15.74 C 57.90 14.99 57.74 14.27 57.46 13.58 C 56.14 9.54 52.46 6.13 48.05 6.20 C 37.35 6.10 26.65 6.10 15.95 6.20 C 11.55 6.12 7.89 9.53 6.54 13.53 C 6.27 14.24 6.09 14.98 6.03 15.74 C 6.14 19.87 5.17 25.21 8.74 28.21 C 13.58 31.09 20.27 33.31 25.22 29.43 C 25.60 29.67 26.36 30.16 26.74 30.40 C 24.70 31.28 22.95 32.61 21.93 34.62 C 20.63 36.06 20.01 37.91 19.23 39.65 C 15.47 40.96 11.21 40.49 7.34 39.79 C 5.89 35.87 6.10 31.52 4.42 27.65 C 4.35 23.43 4.21 19.21 4.29 15.00 C 4.08 11.83 6.30 9.32 7.27 6.47 Z" />
</g>
<g id="#ffffffff">
<path fill="#ffffff" opacity="1.00" d=" M 6.54 13.53 C 7.89 9.53 11.55 6.12 15.95 6.20 C 26.65 6.10 37.35 6.10 48.05 6.20 C 52.46 6.13 56.14 9.54 57.46 13.58 C 54.88 10.83 52.09 7.70 47.98 7.70 C 37.32 7.58 26.65 7.58 15.99 7.70 C 11.92 7.73 9.13 10.82 6.54 13.53 Z" />
<path fill="#ffffff" opacity="1.00" d=" M 25.95 18.06 C 29.12 16.07 33.05 15.61 36.63 16.61 C 38.91 17.70 41.25 19.19 42.21 21.64 C 43.37 24.38 42.53 27.80 40.03 29.49 C 39.68 29.67 39.00 30.03 38.66 30.20 C 42.37 31.74 44.88 35.71 43.90 39.74 C 41.27 49.17 25.62 49.70 21.84 40.88 C 21.16 38.86 21.38 36.64 21.93 34.62 C 22.95 32.61 24.70 31.28 26.74 30.40 C 26.36 30.16 25.60 29.67 25.22 29.43 C 21.36 26.58 22.35 20.68 25.95 18.06 M 28.03 26.25 L 28.58 26.32 C 29.89 29.47 35.11 29.63 36.80 26.74 L 37.07 26.68 C 37.96 23.95 36.22 20.39 33.04 20.64 C 29.85 20.24 27.69 23.30 28.03 26.25 M 28.25 40.38 L 28.34 40.36 C 30.47 43.66 36.43 43.23 37.63 39.33 L 38.00 39.19 C 38.69 35.64 35.66 31.98 31.94 32.74 C 28.26 32.88 26.15 37.42 28.25 40.38 Z" />
</g>
<g id="#3f5571e7">
<path fill="#3f5571" opacity="0.91" d=" M 3.12 15.91 C 3.09 12.41 4.30 8.56 7.27 6.47 C 6.30 9.32 4.08 11.83 4.29 15.00 C 4.21 19.21 4.35 23.43 4.42 27.65 C 4.20 34.78 4.46 41.93 4.67 49.06 C 4.90 54.88 10.17 59.55 15.92 59.47 C 26.27 59.54 36.63 59.47 46.99 59.50 C 50.54 59.60 54.33 58.41 56.67 55.62 C 59.00 53.03 59.50 49.36 59.46 46.01 C 59.47 39.87 59.85 33.74 59.58 27.60 C 59.63 23.05 59.86 18.50 59.65 13.95 C 59.53 11.21 57.56 9.05 56.77 6.50 C 59.72 8.60 60.91 12.43 60.88 15.92 C 60.86 26.97 60.84 38.01 60.81 49.06 C 60.81 50.34 60.48 51.58 60.25 52.84 C 58.36 57.31 54.02 60.78 49.05 60.80 C 37.67 60.82 26.29 60.82 14.90 60.80 C 9.95 60.76 5.66 57.31 3.76 52.87 C 3.53 51.61 3.19 50.35 3.19 49.06 C 3.16 38.01 3.14 26.96 3.12 15.91 Z" />
</g>
<g id="#a3bed8ff">
<path fill="#a3bed8" opacity="1.00" d=" M 6.54 13.53 C 9.13 10.82 11.92 7.73 15.99 7.70 C 26.65 7.58 37.32 7.58 47.98 7.70 C 52.09 7.70 54.88 10.83 57.46 13.58 C 57.74 14.27 57.90 14.99 57.93 15.74 C 57.56 17.29 57.16 18.83 56.58 20.32 C 53.04 20.55 49.47 20.43 45.94 20.08 C 42.33 19.79 40.49 15.92 37.01 15.19 C 32.77 14.51 28.18 14.64 24.64 17.39 C 19.41 20.21 13.19 19.24 7.49 19.24 C 6.90 18.12 6.46 16.92 6.03 15.74 C 6.09 14.98 6.27 14.24 6.54 13.53 Z" />
</g>
<g id="#6a9bc5ff">
<path fill="#6a9bc5" opacity="1.00" d=" M 24.64 17.39 C 28.18 14.64 32.77 14.51 37.01 15.19 L 36.63 16.61 C 33.05 15.61 29.12 16.07 25.95 18.06 C 25.63 17.89 24.97 17.56 24.64 17.39 Z" />
</g>
<g id="#8caac8ff">
<path fill="#8caac8" opacity="1.00" d=" M 37.01 15.19 C 40.49 15.92 42.33 19.79 45.94 20.08 C 49.47 20.43 53.04 20.55 56.58 20.32 C 57.16 18.83 57.56 17.29 57.93 15.74 C 57.93 19.91 58.98 25.31 55.24 28.25 C 50.76 30.97 44.62 33.23 40.03 29.49 C 42.53 27.80 43.37 24.38 42.21 21.64 C 41.25 19.19 38.91 17.70 36.63 16.61 L 37.01 15.19 Z" />
</g>
<g id="#8fadcaff">
<path fill="#8fadca" opacity="1.00" d=" M 6.03 15.74 C 6.46 16.92 6.90 18.12 7.49 19.24 C 13.19 19.24 19.41 20.21 24.64 17.39 C 24.97 17.56 25.63 17.89 25.95 18.06 C 22.35 20.68 21.36 26.58 25.22 29.43 C 20.27 33.31 13.58 31.09 8.74 28.21 C 5.17 25.21 6.14 19.87 6.03 15.74 Z" />
<path fill="#8fadca" opacity="1.00" d=" M 28.03 26.25 C 27.69 23.30 29.85 20.24 33.04 20.64 C 36.22 20.39 37.96 23.95 37.07 26.68 L 36.80 26.74 C 34.06 26.60 31.31 26.64 28.58 26.32 L 28.03 26.25 Z" />
</g>
<g id="#6692baff">
<path fill="#6692ba" opacity="1.00" d=" M 28.58 26.32 C 31.31 26.64 34.06 26.60 36.80 26.74 C 35.11 29.63 29.89 29.47 28.58 26.32 Z" />
</g>
<g id="#6182a1ff">
<path fill="#6182a1" opacity="1.00" d=" M 4.42 27.65 C 6.10 31.52 5.89 35.87 7.34 39.79 C 11.21 40.49 15.47 40.96 19.23 39.65 C 20.01 37.91 20.63 36.06 21.93 34.62 C 21.38 36.64 21.16 38.86 21.84 40.88 C 25.62 49.70 41.27 49.17 43.90 39.74 C 44.23 39.54 44.89 39.15 45.23 38.96 C 48.86 40.32 52.85 41.10 56.61 39.72 C 58.22 35.84 57.79 31.44 59.58 27.60 C 59.85 33.74 59.47 39.87 59.46 46.01 C 59.50 49.36 59.00 53.03 56.67 55.62 C 54.33 58.41 50.54 59.60 46.99 59.50 C 36.63 59.47 26.27 59.54 15.92 59.47 C 10.17 59.55 4.90 54.88 4.67 49.06 C 4.46 41.93 4.20 34.78 4.42 27.65 Z" />
</g>
<g id="#6a8fb0ff">
<path fill="#6a8fb0" opacity="1.00" d=" M 28.25 40.38 C 26.15 37.42 28.26 32.88 31.94 32.74 C 35.66 31.98 38.69 35.64 38.00 39.19 L 37.63 39.33 C 36.33 39.74 35.10 40.35 33.82 40.81 C 31.96 41.68 30.15 39.40 28.34 40.36 L 28.25 40.38 Z" />
</g>
<g id="#35588dff">
<path fill="#35588d" opacity="1.00" d=" M 33.82 40.81 C 35.10 40.35 36.33 39.74 37.63 39.33 C 36.43 43.23 30.47 43.66 28.34 40.36 C 30.15 39.40 31.96 41.68 33.82 40.81 Z" />
</g>
<g id="#00000026">
<path fill="#000000" opacity="0.15" d=" M 3.76 52.87 C 5.66 57.31 9.95 60.76 14.90 60.80 C 26.29 60.82 37.67 60.82 49.05 60.80 C 54.02 60.78 58.36 57.31 60.25 52.84 C 60.41 58.54 55.68 62.53 50.62 64.00 L 13.34 64.00 C 8.32 62.49 3.54 58.57 3.76 52.87 Z" />
</g>
</svg>
