<?xml version="1.0" encoding="UTF-8" ?>
<!DOCTYPE svg PUBLIC "-//W3C//DTD SVG 1.1//EN" "http://www.w3.org/Graphics/SVG/1.1/DTD/svg11.dtd">
<svg width="64pt" height="64pt" viewBox="0 0 64 64" version="1.1" xmlns="http://www.w3.org/2000/svg">
<g id="#6a90b1ff">
<path fill="#6a90b1" opacity="1.00" d=" M 3.33 15.98 C 2.76 9.47 8.51 3.28 15.03 3.38 C 26.33 3.36 37.63 3.36 48.92 3.38 C 55.50 3.25 61.28 9.50 60.67 16.06 C 60.38 28.29 61.17 40.61 60.16 52.80 L 59.72 53.41 C 59.57 44.93 59.37 36.43 58.60 27.98 C 58.10 31.89 58.13 35.95 56.67 39.67 C 53.68 40.94 50.10 40.11 46.89 40.23 C 45.13 40.51 43.95 39.19 42.84 38.07 C 43.40 35.79 43.75 33.46 43.71 31.10 C 47.26 32.22 50.90 30.40 54.17 29.12 C 58.74 26.70 57.86 20.98 57.81 16.68 C 57.81 15.46 57.76 14.23 57.43 13.05 C 55.99 9.13 52.32 6.12 48.07 6.01 C 37.35 5.91 26.63 5.91 15.91 6.01 C 11.66 6.13 8.01 9.15 6.56 13.07 C 6.16 14.26 6.23 15.52 6.22 16.75 C 6.33 20.25 5.41 24.26 7.66 27.28 C 11.67 31.11 17.55 31.48 22.78 32.03 C 25.82 37.33 33.69 38.28 37.83 33.77 C 37.51 35.66 37.56 37.79 36.30 39.37 C 36.23 39.05 36.10 38.41 36.04 38.10 C 36.55 39.88 33.96 40.10 33.49 41.62 C 31.74 42.06 29.80 41.91 28.64 40.38 C 28.42 40.04 27.98 39.36 27.76 39.02 L 28.94 38.67 C 27.75 36.33 23.55 36.35 21.85 38.11 C 21.19 38.77 20.52 39.41 19.82 40.03 C 15.67 40.41 11.38 40.59 7.27 39.83 C 5.99 36.00 5.76 31.94 5.41 27.96 C 4.55 36.42 4.46 44.95 4.30 53.44 L 3.84 52.77 C 2.83 40.57 3.62 28.24 3.33 15.98 Z" />
</g>
<g id="#dfe8f0ff">
<path fill="#dfe8f0" opacity="1.00" d=" M 6.56 13.07 C 8.01 9.15 11.66 6.13 15.91 6.01 C 26.63 5.91 37.35 5.91 48.07 6.01 C 52.32 6.12 55.99 9.13 57.43 13.05 L 56.87 13.73 C 54.87 11.19 52.57 8.25 49.02 8.20 C 38.01 7.90 26.98 8.04 15.96 8.12 C 12.24 7.85 9.33 10.56 7.53 13.52 C 7.28 13.41 6.80 13.18 6.56 13.07 Z" />
</g>
<g id="#a3bed8ff">
<path fill="#a3bed8" opacity="1.00" d=" M 7.53 13.52 C 9.33 10.56 12.24 7.85 15.96 8.12 C 26.98 8.04 38.01 7.90 49.02 8.20 C 52.57 8.25 54.87 11.19 56.87 13.73 L 57.43 13.05 C 57.76 14.23 57.81 15.46 57.81 16.68 C 57.44 18.28 57.06 19.88 56.54 21.44 C 52.70 20.77 48.81 20.74 44.92 20.82 C 43.43 20.92 42.42 19.61 41.32 18.83 C 37.53 13.63 29.55 13.67 24.66 17.23 C 22.90 18.21 22.25 20.95 19.96 20.81 C 15.76 20.81 11.56 20.71 7.41 21.49 C 6.93 19.93 6.57 18.34 6.22 16.75 C 6.23 15.52 6.16 14.26 6.56 13.07 C 6.80 13.18 7.28 13.41 7.53 13.52 Z" />
</g>
<g id="#709fc7ff">
<path fill="#709fc7" opacity="1.00" d=" M 24.66 17.23 C 29.55 13.67 37.53 13.63 41.32 18.83 L 39.94 19.06 C 36.21 15.43 30.00 15.14 25.82 18.17 C 25.53 17.94 24.95 17.46 24.66 17.23 Z" />
</g>
<g id="#ffffffff">
<path fill="#ffffff" opacity="1.00" d=" M 25.82 18.17 C 30.00 15.14 36.21 15.43 39.94 19.06 C 42.77 22.42 43.48 26.85 43.71 31.10 C 43.75 33.46 43.40 35.79 42.84 38.07 C 41.70 42.28 38.45 46.21 33.98 46.97 C 28.71 48.23 22.95 44.49 22.15 39.06 C 24.02 38.99 25.89 38.99 27.76 39.02 C 27.98 39.36 28.42 40.04 28.64 40.38 C 29.72 42.47 32.18 42.56 34.20 42.07 C 35.05 41.30 35.83 40.43 36.30 39.37 C 37.56 37.79 37.51 35.66 37.83 33.77 C 33.69 38.28 25.82 37.33 22.78 32.03 C 20.85 27.30 21.80 21.52 25.82 18.17 M 31.21 21.26 C 27.80 22.36 27.38 26.66 28.10 29.67 L 28.57 29.52 C 29.58 33.27 35.39 32.89 36.72 29.52 C 38.58 25.91 35.79 19.98 31.21 21.26 Z" />
</g>
<g id="#8caac8ff">
<path fill="#8caac8" opacity="1.00" d=" M 6.22 16.75 C 6.57 18.34 6.93 19.93 7.41 21.49 C 11.56 20.71 15.76 20.81 19.96 20.81 C 22.25 20.95 22.90 18.21 24.66 17.23 C 24.95 17.46 25.53 17.94 25.82 18.17 C 21.80 21.52 20.85 27.30 22.78 32.03 C 17.55 31.48 11.67 31.11 7.66 27.28 C 5.41 24.26 6.33 20.25 6.22 16.75 Z" />
<path fill="#8caac8" opacity="1.00" d=" M 56.54 21.44 C 57.06 19.88 57.44 18.28 57.81 16.68 C 57.86 20.98 58.74 26.70 54.17 29.12 C 50.90 30.40 47.26 32.22 43.71 31.10 C 43.48 26.85 42.77 22.42 39.94 19.06 L 41.32 18.83 C 42.42 19.61 43.43 20.92 44.92 20.82 C 48.81 20.74 52.70 20.77 56.54 21.44 Z" />
</g>
<g id="#8aaac8ff">
<path fill="#8aaac8" opacity="1.00" d=" M 31.21 21.26 C 35.79 19.98 38.58 25.91 36.72 29.52 C 35.06 29.23 33.73 30.51 32.16 30.75 C 30.95 30.44 29.87 28.92 28.57 29.52 L 28.10 29.67 C 27.38 26.66 27.80 22.36 31.21 21.26 Z" />
</g>
<g id="#6081a0ff">
<path fill="#6081a0" opacity="1.00" d=" M 4.30 53.44 C 4.46 44.95 4.55 36.42 5.41 27.96 C 5.76 31.94 5.99 36.00 7.27 39.83 C 11.38 40.59 15.67 40.41 19.82 40.03 C 20.52 39.41 21.19 38.77 21.85 38.11 L 22.15 39.06 C 22.95 44.49 28.71 48.23 33.98 46.97 C 38.45 46.21 41.70 42.28 42.84 38.07 C 43.95 39.19 45.13 40.51 46.89 40.23 C 50.10 40.11 53.68 40.94 56.67 39.67 C 58.13 35.95 58.10 31.89 58.60 27.98 C 59.37 36.43 59.57 44.93 59.72 53.41 C 57.87 57.56 53.60 60.70 48.98 60.62 C 37.65 60.63 26.32 60.63 14.99 60.62 C 10.40 60.68 6.15 57.57 4.30 53.44 Z" />
</g>
<g id="#4c7caaff">
<path fill="#4c7caa" opacity="1.00" d=" M 28.57 29.52 C 29.87 28.92 30.95 30.44 32.16 30.75 C 33.73 30.51 35.06 29.23 36.72 29.52 C 35.39 32.89 29.58 33.27 28.57 29.52 Z" />
</g>
<g id="#496b9bff">
<path fill="#496b9b" opacity="1.00" d=" M 21.85 38.11 C 23.55 36.35 27.75 36.33 28.94 38.67 L 27.76 39.02 C 25.89 38.99 24.02 38.99 22.15 39.06 L 21.85 38.11 Z" />
</g>
<g id="#00000026">
<path fill="#000000" opacity="0.15" d=" M 33.49 41.62 C 33.96 40.10 36.55 39.88 36.04 38.10 C 36.10 38.41 36.23 39.05 36.30 39.37 C 35.83 40.43 35.05 41.30 34.20 42.07 C 32.18 42.56 29.72 42.47 28.64 40.38 C 29.80 41.91 31.74 42.06 33.49 41.62 Z" />
<path fill="#000000" opacity="0.15" d=" M 3.84 52.77 L 4.30 53.44 C 6.15 57.57 10.40 60.68 14.99 60.62 C 26.32 60.63 37.65 60.63 48.98 60.62 C 53.60 60.70 57.87 57.56 59.72 53.41 L 60.16 52.80 C 60.58 58.53 55.66 62.58 50.61 64.00 L 13.41 64.00 C 8.36 62.52 3.41 58.56 3.84 52.77 Z" />
</g>
</svg>
