<?xml version="1.0" encoding="UTF-8" ?>
<!DOCTYPE svg PUBLIC "-//W3C//DTD SVG 1.1//EN" "http://www.w3.org/Graphics/SVG/1.1/DTD/svg11.dtd">
<svg width="64pt" height="64pt" viewBox="0 0 64 64" version="1.1" xmlns="http://www.w3.org/2000/svg">
<g id="#323232ff">
<path fill="#323232" opacity="1.00" d=" M 28.18 7.28 C 40.88 5.01 54.14 14.23 56.48 26.89 C 58.18 35.26 55.45 44.39 49.09 50.15 C 42.11 56.94 31.01 58.75 22.14 54.89 C 14.41 51.62 8.54 44.21 7.33 35.88 C 4.87 22.69 14.91 9.00 28.18 7.28 M 27.40 13.51 C 20.14 15.23 14.32 21.55 13.15 28.91 C 11.46 37.85 17.25 47.41 25.92 50.11 C 35.21 53.62 46.49 48.16 49.82 38.88 C 53.13 30.88 49.91 20.97 42.72 16.25 C 38.31 13.16 32.60 12.35 27.40 13.51 Z" />
<path fill="#323232" opacity="1.00" d=" M 26.01 19.96 C 30.14 17.62 36.13 17.84 39.44 21.52 C 41.06 23.21 41.58 25.56 42.36 27.69 C 40.89 27.69 39.41 27.71 37.93 27.75 C 36.69 24.17 32.50 22.05 29.04 24.00 C 23.67 27.67 24.38 38.15 30.88 40.23 C 34.24 41.13 37.03 38.64 38.01 35.64 C 39.51 35.66 41.01 35.67 42.51 35.68 C 41.42 40.15 38.17 45.03 33.03 44.88 C 28.53 45.53 23.85 43.17 21.87 39.06 C 18.68 32.88 19.72 23.80 26.01 19.96 Z" />
</g>
</svg>
