<?xml version="1.0" encoding="UTF-8" ?>
<!DOCTYPE svg PUBLIC "-//W3C//DTD SVG 1.1//EN" "http://www.w3.org/Graphics/SVG/1.1/DTD/svg11.dtd">
<svg width="64pt" height="64pt" viewBox="0 0 64 64" version="1.1" xmlns="http://www.w3.org/2000/svg">
<g id="#333333ff">
<path fill="#333333" opacity="1.00" d=" M 26.25 7.20 C 38.25 4.06 51.71 11.48 55.80 23.11 C 58.88 30.60 57.60 39.42 53.11 46.05 C 48.54 53.06 40.28 57.32 31.97 57.46 C 23.93 57.29 15.94 53.31 11.32 46.67 C 6.71 40.21 5.08 31.51 7.89 23.99 C 10.55 15.68 17.79 9.18 26.25 7.20 M 26.34 13.48 C 17.72 15.98 11.61 25.01 12.68 33.96 C 13.43 42.90 21.13 50.58 30.06 51.35 C 38.27 52.31 46.65 47.29 49.83 39.69 C 53.02 32.61 51.27 23.71 45.68 18.32 C 40.79 13.29 33.03 11.38 26.34 13.48 Z" />
<path fill="#333333" opacity="1.00" d=" M 22.86 19.20 C 28.21 19.63 34.26 17.86 39.03 21.03 C 43.25 24.92 41.28 33.36 35.05 33.74 C 37.20 37.32 39.21 40.98 41.33 44.57 C 39.64 44.56 37.95 44.56 36.26 44.57 C 34.12 41.06 32.77 36.95 30.12 33.83 C 29.49 33.78 28.24 33.69 27.62 33.64 C 27.58 37.29 27.57 40.93 27.60 44.57 C 26.01 44.56 24.43 44.55 22.85 44.55 C 22.87 36.10 22.82 27.65 22.86 19.20 M 27.60 23.23 C 27.60 25.41 27.60 27.60 27.60 29.78 C 30.46 29.42 35.48 30.93 36.34 27.05 C 36.80 22.25 30.66 23.22 27.60 23.23 Z" />
</g>
</svg>
