<?xml version="1.0" encoding="UTF-8" ?>
<!DOCTYPE svg PUBLIC "-//W3C//DTD SVG 1.1//EN" "http://www.w3.org/Graphics/SVG/1.1/DTD/svg11.dtd">
<svg width="64pt" height="64pt" viewBox="0 0 64 64" version="1.1" xmlns="http://www.w3.org/2000/svg">
<g id="#f2ecd7ff">
<path fill="#f2ecd7" opacity="1.00" d=" M 13.74 3.73 C 17.72 2.46 21.91 3.27 26.00 3.07 C 33.33 3.12 40.66 2.99 47.99 3.23 C 50.69 3.24 53.71 4.89 54.04 7.80 C 54.34 14.56 54.07 21.34 54.18 28.10 C 51.19 28.48 48.32 29.45 45.93 31.33 C 46.42 28.45 47.53 25.75 48.35 22.96 C 46.01 17.36 39.53 17.74 34.55 18.56 C 34.57 16.35 34.59 14.15 34.61 11.95 C 35.16 11.41 36.26 10.35 36.81 9.82 C 33.55 8.24 29.99 7.51 26.46 6.85 C 28.68 10.65 29.03 15.02 28.97 19.32 C 25.40 19.92 21.77 21.12 18.13 20.32 C 17.25 20.82 16.38 21.32 15.51 21.83 C 16.30 25.03 17.11 28.24 17.84 31.46 C 15.30 30.26 12.58 29.56 9.82 29.08 C 9.90 22.33 9.73 15.59 9.90 8.85 C 9.89 6.53 11.68 4.57 13.74 3.73 Z" />
<path fill="#f2ecd7" opacity="1.00" d=" M 34.51 22.36 C 37.38 22.36 40.26 22.32 43.13 22.27 C 44.20 26.12 42.28 29.86 41.59 33.59 C 39.12 33.56 36.65 33.30 34.22 32.82 C 34.38 29.33 34.46 25.85 34.51 22.36 Z" />
<path fill="#f2ecd7" opacity="1.00" d=" M 20.33 24.27 C 23.27 23.62 26.23 23.11 29.21 22.66 C 29.38 25.97 29.53 29.29 29.72 32.60 C 26.88 32.65 24.05 33.13 21.46 34.31 C 21.26 30.94 20.81 27.60 20.33 24.27 Z" />
</g>
<g id="#b41b02ff">
<path fill="#b41b02" opacity="1.00" d=" M 26.46 6.85 C 29.99 7.51 33.55 8.24 36.81 9.82 C 36.26 10.35 35.16 11.41 34.61 11.95 C 34.59 14.15 34.57 16.35 34.55 18.56 C 39.53 17.74 46.01 17.36 48.35 22.96 C 47.53 25.75 46.42 28.45 45.93 31.33 C 45.42 34.03 44.68 36.68 43.76 39.27 C 40.69 37.60 37.45 36.24 33.93 35.98 C 33.33 43.22 33.41 50.68 30.91 57.60 C 30.33 50.32 30.46 42.99 29.96 35.70 C 27.30 36.04 24.65 36.44 22.02 36.95 C 21.34 38.18 20.64 39.40 19.93 40.61 C 18.99 37.62 18.43 34.53 17.84 31.46 C 17.11 28.24 16.30 25.03 15.51 21.83 C 16.38 21.32 17.25 20.82 18.13 20.32 C 21.77 21.12 25.40 19.92 28.97 19.32 C 29.03 15.02 28.68 10.65 26.46 6.85 M 34.51 22.36 C 34.46 25.85 34.38 29.33 34.22 32.82 C 36.65 33.30 39.12 33.56 41.59 33.59 C 42.28 29.86 44.20 26.12 43.13 22.27 C 40.26 22.32 37.38 22.36 34.51 22.36 M 20.33 24.27 C 20.81 27.60 21.26 30.94 21.46 34.31 C 24.05 33.13 26.88 32.65 29.72 32.60 C 29.53 29.29 29.38 25.97 29.21 22.66 C 26.23 23.11 23.27 23.62 20.33 24.27 Z" />
</g>
<g id="#cbc6b1ff">
<path fill="#cbc6b1" opacity="1.00" d=" M 45.93 31.33 C 48.32 29.45 51.19 28.48 54.18 28.10 C 54.27 37.46 54.13 46.83 54.25 56.19 C 53.65 57.62 52.94 59.08 51.48 59.80 L 51.55 60.43 C 50.77 60.47 49.21 60.55 48.43 60.59 L 48.63 61.40 C 37.55 61.26 26.45 61.26 15.37 61.40 L 15.57 60.59 C 14.85 60.56 13.43 60.50 12.72 60.47 C 11.51 59.21 10.46 57.81 9.72 56.23 C 9.92 47.18 9.71 38.13 9.82 29.08 C 12.58 29.56 15.30 30.26 17.84 31.46 C 18.43 34.53 18.99 37.62 19.93 40.61 C 20.64 39.40 21.34 38.18 22.02 36.95 C 24.65 36.44 27.30 36.04 29.96 35.70 C 30.46 42.99 30.33 50.32 30.91 57.60 C 33.41 50.68 33.33 43.22 33.93 35.98 C 37.45 36.24 40.69 37.60 43.76 39.27 C 44.68 36.68 45.42 34.03 45.93 31.33 Z" />
</g>
</svg>
