<?xml version="1.0" encoding="UTF-8" ?>
<!DOCTYPE svg PUBLIC "-//W3C//DTD SVG 1.1//EN" "http://www.w3.org/Graphics/SVG/1.1/DTD/svg11.dtd">
<svg width="64pt" height="64pt" viewBox="0 0 64 64" version="1.1" xmlns="http://www.w3.org/2000/svg">
<g id="#00000025">
<path fill="#000000" opacity="0.15" d=" M 17.15 2.25 C 27.09 2.03 37.04 2.24 46.99 2.16 C 48.35 2.40 50.43 1.75 51.10 3.41 C 39.82 2.89 28.48 3.07 17.19 3.30 L 17.15 2.25 Z" />
</g>
<g id="#fafafaff">
<path fill="#fafafa" opacity="1.00" d=" M 17.19 3.30 C 28.48 3.07 39.82 2.89 51.10 3.41 C 51.91 3.79 52.70 4.20 53.48 4.64 C 54.66 11.85 53.67 19.25 53.99 26.53 C 52.72 24.93 51.50 23.30 50.41 21.58 C 48.14 15.76 39.91 16.24 36.67 20.91 C 37.09 18.34 36.89 15.52 38.17 13.16 C 39.03 11.40 41.18 11.30 42.81 10.71 C 43.47 11.26 44.79 12.36 45.45 12.92 C 44.95 11.22 44.30 8.87 42.06 9.00 C 36.07 8.05 32.12 13.96 31.21 19.14 C 29.03 14.61 23.07 11.48 18.44 14.42 C 15.62 15.93 15.13 19.29 15.22 22.18 C 14.95 23.88 14.04 25.35 13.04 26.71 C 13.04 20.47 12.93 14.23 13.03 8.00 C 12.89 6.38 14.10 5.19 14.94 3.97 C 15.50 3.80 16.63 3.47 17.19 3.30 Z" />
</g>
<g id="#06060651">
<path fill="#060606" opacity="0.32" d=" M 12.03 10.94 C 12.10 8.39 11.92 4.88 14.94 3.97 C 14.10 5.19 12.89 6.38 13.03 8.00 C 12.93 14.23 13.04 20.47 13.04 26.71 C 12.96 32.08 13.04 37.44 13.03 42.81 C 13.02 47.91 12.88 53.02 13.16 58.11 L 13.22 59.60 C 12.16 57.92 11.99 55.94 12.02 54.01 C 12.07 39.65 12.05 25.30 12.03 10.94 Z" />
</g>
<g id="#03030350">
<path fill="#030303" opacity="0.31" d=" M 53.48 4.64 C 55.68 6.44 54.76 9.55 55.00 12.02 C 54.74 27.81 55.38 43.63 54.67 59.41 C 54.52 59.00 54.22 58.17 54.06 57.76 C 53.93 52.78 54.05 47.80 53.97 42.82 C 53.99 37.39 54.02 31.96 53.99 26.53 C 53.67 19.25 54.66 11.85 53.48 4.64 Z" />
</g>
<g id="#333030ff">
<path fill="#333030" opacity="1.00" d=" M 31.21 19.14 C 32.12 13.96 36.07 8.05 42.06 9.00 C 44.30 8.87 44.95 11.22 45.45 12.92 C 44.79 12.36 43.47 11.26 42.81 10.71 C 41.18 11.30 39.03 11.40 38.17 13.16 C 36.89 15.52 37.09 18.34 36.67 20.91 C 39.91 16.24 48.14 15.76 50.41 21.58 C 50.33 24.04 50.59 26.96 48.63 28.83 C 47.63 29.69 46.19 28.94 45.04 29.05 C 45.82 28.77 47.39 28.21 48.17 27.93 C 48.47 25.68 48.66 22.36 45.87 21.62 C 42.58 20.56 40.64 24.04 39.43 26.46 C 38.23 26.18 37.02 25.97 35.82 25.75 C 32.16 24.87 27.99 25.42 25.46 28.44 C 23.47 31.72 23.89 35.90 25.79 39.10 L 25.25 38.51 C 24.61 37.76 23.98 37.00 23.38 36.22 C 21.19 32.76 24.36 28.57 26.71 26.02 C 26.74 23.68 27.10 21.15 25.92 19.01 C 24.34 16.13 19.46 16.39 18.04 19.29 C 16.86 21.10 18.47 22.92 18.98 24.63 C 17.69 23.86 16.41 23.09 15.22 22.18 C 15.13 19.29 15.62 15.93 18.44 14.42 C 23.07 11.48 29.03 14.61 31.21 19.14 Z" />
</g>
<g id="#eeeeeeff">
<path fill="#eeeeee" opacity="1.00" d=" M 18.04 19.29 C 19.46 16.39 24.34 16.13 25.92 19.01 C 27.10 21.15 26.74 23.68 26.71 26.02 C 24.36 28.57 21.19 32.76 23.38 36.22 C 20.89 36.70 18.41 37.16 15.92 37.64 C 15.02 39.40 14.08 41.13 13.03 42.81 C 13.04 37.44 12.96 32.08 13.04 26.71 C 14.04 25.35 14.95 23.88 15.22 22.18 C 16.41 23.09 17.69 23.86 18.98 24.63 C 18.47 22.92 16.86 21.10 18.04 19.29 Z" />
</g>
<g id="#ebebebff">
<path fill="#ebebeb" opacity="1.00" d=" M 39.43 26.46 C 40.64 24.04 42.58 20.56 45.87 21.62 C 48.66 22.36 48.47 25.68 48.17 27.93 C 47.39 28.21 45.82 28.77 45.04 29.05 C 46.19 28.94 47.63 29.69 48.63 28.83 C 50.59 26.96 50.33 24.04 50.41 21.58 C 51.50 23.30 52.72 24.93 53.99 26.53 C 54.02 31.96 53.99 37.39 53.97 42.82 C 52.82 41.18 51.90 39.41 51.07 37.60 C 48.21 37.30 45.37 36.96 42.53 36.51 C 45.03 33.27 42.10 28.68 39.43 26.46 Z" />
</g>
<g id="#fbe0c6ff">
<path fill="#fbe0c6" opacity="1.00" d=" M 25.46 28.44 C 27.99 25.42 32.16 24.87 35.82 25.75 C 37.27 26.95 38.65 28.25 39.91 29.65 C 39.73 31.23 39.57 32.81 39.34 34.38 L 38.63 34.73 C 38.75 34.27 38.99 33.34 39.10 32.88 C 37.39 30.47 33.52 33.11 36.24 35.25 C 37.58 36.32 37.93 37.57 36.44 38.67 L 37.09 37.66 C 34.71 37.76 32.18 37.31 29.92 38.27 L 29.56 38.66 C 29.14 38.06 28.74 37.46 28.36 36.85 C 28.84 36.28 29.30 35.71 29.76 35.14 C 32.43 33.00 28.13 30.19 26.80 33.07 C 26.39 31.52 25.94 29.97 25.46 28.44 M 32.26 35.92 C 32.44 39.22 35.27 34.35 32.26 35.92 Z" />
</g>
<g id="#ab896dff">
<path fill="#ab896d" opacity="1.00" d=" M 35.82 25.75 C 37.02 25.97 38.23 26.18 39.43 26.46 C 42.10 28.68 45.03 33.27 42.53 36.51 C 42.04 37.08 41.54 37.64 41.02 38.19 C 40.14 39.06 39.24 39.93 38.28 40.72 C 38.23 40.26 38.12 39.35 38.07 38.90 C 41.19 37.54 41.22 34.03 40.97 31.14 C 40.70 30.77 40.17 30.03 39.91 29.65 C 38.65 28.25 37.27 26.95 35.82 25.75 Z" />
</g>
<g id="#deaf89ff">
<path fill="#deaf89" opacity="1.00" d=" M 25.79 39.10 C 23.89 35.90 23.47 31.72 25.46 28.44 C 25.94 29.97 26.39 31.52 26.80 33.07 C 26.89 33.59 27.07 34.62 27.16 35.14 C 27.81 35.14 29.11 35.14 29.76 35.14 C 29.30 35.71 28.84 36.28 28.36 36.85 C 28.74 37.46 29.14 38.06 29.56 38.66 C 31.47 40.60 34.44 40.26 36.44 38.67 C 37.93 37.57 37.58 36.32 36.24 35.25 C 36.84 35.12 38.03 34.86 38.63 34.73 L 39.34 34.38 C 39.57 32.81 39.73 31.23 39.91 29.65 C 40.17 30.03 40.70 30.77 40.97 31.14 C 41.22 34.03 41.19 37.54 38.07 38.90 C 38.12 39.35 38.23 40.26 38.28 40.72 C 34.43 43.56 28.81 42.75 25.79 39.10 Z" />
</g>
<g id="#3b3431ff">
<path fill="#3b3431" opacity="1.00" d=" M 26.80 33.07 C 28.13 30.19 32.43 33.00 29.76 35.14 C 29.11 35.14 27.81 35.14 27.16 35.14 C 27.07 34.62 26.89 33.59 26.80 33.07 Z" />
</g>
<g id="#1d1d1eff">
<path fill="#1d1d1e" opacity="1.00" d=" M 36.24 35.25 C 33.52 33.11 37.39 30.47 39.10 32.88 C 38.99 33.34 38.75 34.27 38.63 34.73 C 38.03 34.86 36.84 35.12 36.24 35.25 Z" />
<path fill="#1d1d1e" opacity="1.00" d=" M 22.31 40.14 C 23.05 39.73 24.52 38.91 25.25 38.51 L 25.79 39.10 C 28.81 42.75 34.43 43.56 38.28 40.72 C 39.24 39.93 40.14 39.06 41.02 38.19 C 43.78 39.82 46.55 41.45 49.25 43.19 C 46.29 43.27 43.33 43.33 40.36 43.37 C 39.67 44.03 38.98 44.69 38.30 45.36 C 36.71 45.42 35.11 45.47 33.52 45.50 C 33.17 45.50 32.82 45.50 32.47 45.48 C 28.32 45.67 24.76 43.31 22.31 40.14 Z" />
</g>
<g id="#dbdbdbff">
<path fill="#dbdbdb" opacity="1.00" d=" M 23.38 36.22 C 23.98 37.00 24.61 37.76 25.25 38.51 C 24.52 38.91 23.05 39.73 22.31 40.14 C 19.65 41.61 17.04 43.19 14.49 44.86 C 18.21 44.94 21.92 44.87 25.64 44.69 C 24.30 48.67 23.21 52.73 22.38 56.84 C 26.01 53.31 29.61 49.68 32.47 45.48 C 32.82 45.50 33.17 45.50 33.52 45.50 C 35.54 49.28 38.06 52.78 40.85 56.02 C 40.61 52.73 40.25 49.45 39.55 46.22 C 40.06 45.61 40.57 45.01 41.09 44.41 C 44.74 44.83 48.41 45.03 52.09 45.13 C 51.15 44.47 50.20 43.83 49.25 43.19 C 46.55 41.45 43.78 39.82 41.02 38.19 C 41.54 37.64 42.04 37.08 42.53 36.51 C 45.37 36.96 48.21 37.30 51.07 37.60 C 51.90 39.41 52.82 41.18 53.97 42.82 C 54.05 47.80 53.93 52.78 54.06 57.76 C 53.66 58.82 52.98 59.65 52.02 60.26 C 43.42 61.53 34.66 60.52 25.99 60.85 C 21.81 60.60 16.85 61.90 13.52 58.60 C 13.43 58.48 13.25 58.24 13.16 58.11 C 12.88 53.02 13.02 47.91 13.03 42.81 C 14.08 41.13 15.02 39.40 15.92 37.64 C 18.41 37.16 20.89 36.70 23.38 36.22 Z" />
</g>
<g id="#997a5dff">
<path fill="#997a5d" opacity="1.00" d=" M 32.26 35.92 C 35.27 34.35 32.44 39.22 32.26 35.92 Z" />
</g>
<g id="#391112ff">
<path fill="#391112" opacity="1.00" d=" M 29.92 38.27 C 32.18 37.31 34.71 37.76 37.09 37.66 L 36.44 38.67 C 34.44 40.26 31.47 40.60 29.56 38.66 L 29.92 38.27 Z" />
</g>
<g id="#3b3737ff">
<path fill="#3b3737" opacity="1.00" d=" M 14.49 44.86 C 17.04 43.19 19.65 41.61 22.31 40.14 C 24.76 43.31 28.32 45.67 32.47 45.48 C 29.61 49.68 26.01 53.31 22.38 56.84 C 23.21 52.73 24.30 48.67 25.64 44.69 C 21.92 44.87 18.21 44.94 14.49 44.86 Z" />
</g>
<g id="#3c3737ff">
<path fill="#3c3737" opacity="1.00" d=" M 49.25 43.19 C 50.20 43.83 51.15 44.47 52.09 45.13 C 48.41 45.03 44.74 44.83 41.09 44.41 C 40.57 45.01 40.06 45.61 39.55 46.22 C 40.25 49.45 40.61 52.73 40.85 56.02 C 38.06 52.78 35.54 49.28 33.52 45.50 C 35.11 45.47 36.71 45.42 38.30 45.36 C 38.98 44.69 39.67 44.03 40.36 43.37 C 43.33 43.33 46.29 43.27 49.25 43.19 Z" />
</g>
<g id="#09090986">
<path fill="#090909" opacity="0.53" d=" M 13.52 58.60 C 16.85 61.90 21.81 60.60 25.99 60.85 C 34.66 60.52 43.42 61.53 52.02 60.26 L 53.26 60.05 C 51.71 62.43 48.45 62.11 45.97 62.28 C 36.97 62.17 27.95 62.39 18.95 62.18 C 16.86 61.92 13.34 61.43 13.52 58.60 Z" />
</g>
</svg>
