<?xml version="1.0" encoding="UTF-8" ?>
<!DOCTYPE svg PUBLIC "-//W3C//DTD SVG 1.1//EN" "http://www.w3.org/Graphics/SVG/1.1/DTD/svg11.dtd">
<svg width="64pt" height="64pt" viewBox="0 0 64 64" version="1.1" xmlns="http://www.w3.org/2000/svg">
<g id="#0067c1ff">
<path fill="#0067c1" opacity="1.00" d=" M 4.92 9.12 C 7.12 5.76 10.89 3.23 14.99 3.32 C 26.34 3.30 37.68 3.30 49.02 3.32 C 52.56 3.22 55.80 5.16 58.10 7.73 C 59.00 10.08 58.51 12.60 58.11 14.99 C 57.89 14.51 57.45 13.56 57.23 13.08 C 55.85 9.25 52.27 6.13 48.06 6.19 C 37.33 6.10 26.60 6.09 15.88 6.19 C 12.14 6.18 8.81 8.66 7.26 11.97 L 6.18 13.16 C 4.20 16.75 4.89 21.05 5.08 24.97 C 5.45 28.46 4.82 31.93 4.35 35.39 C 4.10 26.65 3.03 17.75 4.92 9.12 Z" />
</g>
<g id="#ffffffff">
<path fill="#ffffff" opacity="1.00" d=" M 7.26 11.97 C 8.81 8.66 12.14 6.18 15.88 6.19 C 26.60 6.09 37.33 6.10 48.06 6.19 C 52.27 6.13 55.85 9.25 57.23 13.08 L 56.98 13.82 C 55.22 10.45 51.92 7.85 48.02 7.70 C 37.68 7.54 27.34 7.64 16.99 7.65 C 13.23 7.62 9.08 9.56 7.66 13.19 C 7.50 13.75 7.17 14.87 7.01 15.43 C 7.07 14.57 7.20 12.84 7.26 11.97 Z" />
<path fill="#ffffff" opacity="1.00" d=" M 21.22 16.15 C 26.18 16.08 31.13 16.11 36.08 16.12 C 39.20 16.18 42.26 17.75 44.07 20.30 C 45.87 23.91 46.01 28.39 43.76 31.85 C 39.91 36.72 33.25 35.43 27.83 35.62 C 27.77 39.19 27.79 42.76 27.87 46.32 C 25.65 46.46 23.43 46.40 21.21 46.37 C 21.23 40.11 21.21 33.85 21.23 27.59 C 21.31 23.77 21.25 19.96 21.22 16.15 M 27.78 21.39 C 27.75 23.85 27.73 26.32 27.80 28.78 L 27.81 30.34 C 31.57 30.04 37.38 31.71 38.97 27.01 C 39.50 24.81 38.24 22.15 35.96 21.56 C 33.25 21.22 30.51 21.39 27.78 21.39 Z" />
</g>
<g id="#5dabf0ff">
<path fill="#5dabf0" opacity="1.00" d=" M 7.66 13.19 C 9.08 9.56 13.23 7.62 16.99 7.65 C 27.34 7.64 37.68 7.54 48.02 7.70 C 51.92 7.85 55.22 10.45 56.98 13.82 L 57.23 13.08 C 57.45 13.56 57.89 14.51 58.11 14.99 C 58.03 15.44 57.88 16.32 57.81 16.77 C 57.37 18.16 56.92 19.56 56.32 20.89 C 52.97 20.52 49.61 20.28 46.24 20.45 C 45.67 19.84 45.08 19.24 44.49 18.65 C 42.58 16.62 39.98 14.80 37.07 14.91 C 31.77 14.93 26.45 14.75 21.15 15.00 C 20.86 15.35 20.28 16.06 19.98 16.41 C 15.94 14.89 10.95 16.49 7.66 13.19 Z" />
</g>
<g id="#0063e5ff">
<path fill="#0063e5" opacity="1.00" d=" M 58.11 14.99 C 58.51 12.60 59.00 10.08 58.10 7.73 C 58.65 8.57 59.23 9.40 59.62 10.33 C 59.82 21.47 59.71 32.61 59.56 43.76 C 58.43 46.29 57.52 48.92 56.32 51.43 C 54.55 51.83 52.72 51.81 50.92 51.86 C 38.29 51.80 25.66 51.80 13.04 51.86 C 11.25 51.82 9.44 51.84 7.69 51.45 C 6.47 48.87 5.56 46.16 4.43 43.55 C 4.37 40.83 4.36 38.11 4.35 35.39 C 4.82 31.93 5.45 28.46 5.08 24.97 C 4.89 21.05 4.20 16.75 6.18 13.16 C 6.09 17.68 5.57 22.69 7.51 26.89 C 10.23 30.49 15.36 31.20 19.58 31.63 C 20.19 30.31 20.71 28.94 21.23 27.59 C 21.21 33.85 21.23 40.11 21.21 46.37 C 23.43 46.40 25.65 46.46 27.87 46.32 C 27.79 42.76 27.77 39.19 27.83 35.62 C 33.25 35.43 39.91 36.72 43.76 31.85 C 47.75 31.38 51.95 30.79 55.24 28.30 C 58.76 25.54 57.72 20.65 57.81 16.77 C 57.88 16.32 58.03 15.44 58.11 14.99 Z" />
</g>
<g id="#02339edd">
<path fill="#02339e" opacity="0.87" d=" M 3.12 14.86 C 3.16 12.82 3.90 10.86 4.92 9.12 C 3.03 17.75 4.10 26.65 4.35 35.39 C 4.36 38.11 4.37 40.83 4.43 43.55 C 4.44 47.99 3.51 53.37 7.36 56.62 C 9.50 59.19 12.82 60.07 16.05 59.76 C 27.40 59.71 38.74 59.81 50.09 59.71 C 53.53 59.91 56.29 57.34 58.21 54.77 C 60.34 51.49 59.45 47.42 59.56 43.76 C 59.71 32.61 59.82 21.47 59.62 10.33 C 60.63 12.02 60.96 14.01 60.91 15.95 C 60.89 27.00 60.91 38.04 60.88 49.09 C 60.88 50.98 60.31 52.81 59.52 54.51 C 57.29 58.57 52.69 61.05 48.10 60.93 C 37.38 60.92 26.66 60.92 15.94 60.93 C 11.34 61.06 6.74 58.59 4.49 54.54 C 3.70 52.83 3.12 51.00 3.13 49.10 C 3.07 37.69 3.12 26.27 3.12 14.86 Z" />
</g>
<g id="#429deeff">
<path fill="#429dee" opacity="1.00" d=" M 6.18 13.16 L 7.26 11.97 C 7.20 12.84 7.07 14.57 7.01 15.43 C 7.17 14.87 7.50 13.75 7.66 13.19 C 10.95 16.49 15.94 14.89 19.98 16.41 C 20.09 19.66 20.02 22.94 19.55 26.17 C 15.53 25.45 11.30 24.91 7.51 26.89 C 5.57 22.69 6.09 17.68 6.18 13.16 Z" />
</g>
<g id="#268bebff">
<path fill="#268beb" opacity="1.00" d=" M 19.98 16.41 C 20.28 16.06 20.86 15.35 21.15 15.00 L 21.22 16.15 C 21.25 19.96 21.31 23.77 21.23 27.59 C 20.71 28.94 20.19 30.31 19.58 31.63 C 15.36 31.20 10.23 30.49 7.51 26.89 C 11.30 24.91 15.53 25.45 19.55 26.17 C 20.02 22.94 20.09 19.66 19.98 16.41 Z" />
</g>
<g id="#2c4dd4ff">
<path fill="#2c4dd4" opacity="1.00" d=" M 21.15 15.00 C 26.45 14.75 31.77 14.93 37.07 14.91 C 39.98 14.80 42.58 16.62 44.49 18.65 L 44.07 20.30 C 42.26 17.75 39.20 16.18 36.08 16.12 C 31.13 16.11 26.18 16.08 21.22 16.15 L 21.15 15.00 Z" />
</g>
<g id="#3494edff">
<path fill="#3494ed" opacity="1.00" d=" M 56.32 20.89 C 56.92 19.56 57.37 18.16 57.81 16.77 C 57.72 20.65 58.76 25.54 55.24 28.30 C 52.68 28.13 50.11 27.97 47.60 27.42 C 46.92 25.15 46.62 22.79 46.24 20.45 C 49.61 20.28 52.97 20.52 56.32 20.89 Z" />
</g>
<g id="#2088ebff">
<path fill="#2088eb" opacity="1.00" d=" M 44.49 18.65 C 45.08 19.24 45.67 19.84 46.24 20.45 C 46.62 22.79 46.92 25.15 47.60 27.42 C 50.11 27.97 52.68 28.13 55.24 28.30 C 51.95 30.79 47.75 31.38 43.76 31.85 C 46.01 28.39 45.87 23.91 44.07 20.30 L 44.49 18.65 Z" />
</g>
<g id="#3092ecff">
<path fill="#3092ec" opacity="1.00" d=" M 27.78 21.39 C 30.51 21.39 33.25 21.22 35.96 21.56 C 38.24 22.15 39.50 24.81 38.97 27.01 C 35.62 29.21 31.64 29.07 27.80 28.78 C 27.73 26.32 27.75 23.85 27.78 21.39 Z" />
</g>
<g id="#0f36ccff">
<path fill="#0f36cc" opacity="1.00" d=" M 27.80 28.78 C 31.64 29.07 35.62 29.21 38.97 27.01 C 37.38 31.71 31.57 30.04 27.81 30.34 L 27.80 28.78 Z" />
</g>
<g id="#0455e3ff">
<path fill="#0455e3" opacity="1.00" d=" M 4.43 43.55 C 5.56 46.16 6.47 48.87 7.69 51.45 C 9.44 51.84 11.25 51.82 13.04 51.86 C 25.66 51.80 38.29 51.80 50.92 51.86 C 52.72 51.81 54.55 51.83 56.32 51.43 C 57.52 48.92 58.43 46.29 59.56 43.76 C 59.45 47.42 60.34 51.49 58.21 54.77 C 56.29 57.34 53.53 59.91 50.09 59.71 C 38.74 59.81 27.40 59.71 16.05 59.76 C 12.82 60.07 9.50 59.19 7.36 56.62 C 3.51 53.37 4.44 47.99 4.43 43.55 Z" />
</g>
<g id="#00000026">
<path fill="#000000" opacity="0.15" d=" M 13.34 64.00 C 9.14 62.51 4.14 59.71 4.49 54.54 C 6.74 58.59 11.34 61.06 15.94 60.93 C 26.66 60.92 37.38 60.92 48.10 60.93 C 52.69 61.05 57.29 58.57 59.52 54.51 C 59.84 59.70 54.90 62.58 50.62 64.00 L 13.34 64.00 Z" />
</g>
</svg>
