<?xml version="1.0" encoding="UTF-8" ?>
<!DOCTYPE svg PUBLIC "-//W3C//DTD SVG 1.1//EN" "http://www.w3.org/Graphics/SVG/1.1/DTD/svg11.dtd">
<svg width="64pt" height="64pt" viewBox="0 0 64 64" version="1.1" xmlns="http://www.w3.org/2000/svg">
<g id="#c51f06ff">
<path fill="#c51f06" opacity="1.00" d=" M 13.31 3.44 C 24.88 3.08 36.47 3.40 48.04 3.28 C 54.49 2.79 60.77 8.32 60.71 14.86 C 60.79 26.28 60.71 37.70 60.67 49.12 C 60.81 55.27 55.18 60.84 49.05 60.69 C 37.67 60.72 26.29 60.73 14.92 60.69 C 8.80 60.83 3.19 55.25 3.33 49.12 C 3.29 37.71 3.22 26.31 3.28 14.91 C 3.24 9.31 7.85 4.27 13.31 3.44 M 6.91 13.55 L 5.97 13.71 C 6.31 17.58 6.13 21.49 6.71 25.34 C 8.21 28.62 12.00 29.44 15.02 30.72 C 16.02 29.40 17.06 28.13 18.07 26.83 C 16.83 31.99 17.77 37.84 21.11 42.05 C 26.67 48.92 38.66 49.00 44.17 42.02 C 47.83 37.60 48.23 31.33 47.01 25.93 C 48.21 27.33 49.20 28.88 49.83 30.61 C 52.52 29.23 55.90 28.34 57.28 25.36 C 57.85 21.65 57.71 17.87 57.97 14.13 L 57.34 13.64 C 56.14 9.60 52.52 6.19 48.15 6.22 C 37.75 6.04 27.33 6.15 16.92 6.16 C 12.36 5.85 7.80 8.97 6.91 13.55 Z" />
<path fill="#c51f06" opacity="1.00" d=" M 24.42 30.93 C 29.57 32.85 35.10 32.48 40.48 32.27 C 40.47 32.95 40.44 34.31 40.43 34.98 C 39.65 38.81 36.07 42.05 32.02 41.45 C 26.68 41.46 24.15 35.54 24.42 30.93 Z" />
</g>
<g id="#ffffffff">
<path fill="#ffffff" opacity="1.00" d=" M 6.91 13.55 C 7.80 8.97 12.36 5.85 16.92 6.16 C 27.33 6.15 37.75 6.04 48.15 6.22 C 52.52 6.19 56.14 9.60 57.34 13.64 C 55.39 12.27 54.36 9.83 52.11 8.84 C 49.60 7.59 46.72 7.65 43.99 7.62 C 36.00 7.67 28.01 7.67 20.02 7.62 C 17.29 7.65 14.43 7.59 11.92 8.82 C 9.71 9.75 8.71 12.11 6.91 13.55 Z" />
<path fill="#ffffff" opacity="1.00" d=" M 21.35 20.44 C 26.28 14.35 36.36 13.72 42.24 18.75 C 44.55 20.60 45.70 23.37 47.01 25.93 C 48.23 31.33 47.83 37.60 44.17 42.02 C 38.66 49.00 26.67 48.92 21.11 42.05 C 17.77 37.84 16.83 31.99 18.07 26.83 C 19.04 24.64 19.81 22.31 21.35 20.44 M 24.11 30.85 L 24.42 30.93 C 24.15 35.54 26.68 41.46 32.02 41.45 C 36.07 42.05 39.65 38.81 40.43 34.98 C 42.28 29.46 39.82 21.05 33.01 20.86 C 27.42 20.32 24.38 26.02 24.11 30.85 Z" />
</g>
<g id="#ef5d56ff">
<path fill="#ef5d56" opacity="1.00" d=" M 11.92 8.82 C 14.43 7.59 17.29 7.65 20.02 7.62 C 28.01 7.67 36.00 7.67 43.99 7.62 C 46.72 7.65 49.60 7.59 52.11 8.84 C 54.36 9.83 55.39 12.27 57.34 13.64 L 57.97 14.13 C 57.71 17.87 57.85 21.65 57.28 25.36 C 55.90 28.34 52.52 29.23 49.83 30.61 C 49.20 28.88 48.21 27.33 47.01 25.93 C 45.70 23.37 44.55 20.60 42.24 18.75 C 36.36 13.72 26.28 14.35 21.35 20.44 C 19.81 22.31 19.04 24.64 18.07 26.83 C 17.06 28.13 16.02 29.40 15.02 30.72 C 12.00 29.44 8.21 28.62 6.71 25.34 C 6.13 21.49 6.31 17.58 5.97 13.71 L 6.91 13.55 C 8.71 12.11 9.71 9.75 11.92 8.82 Z" />
<path fill="#ef5d56" opacity="1.00" d=" M 24.11 30.85 C 24.38 26.02 27.42 20.32 33.01 20.86 C 39.82 21.05 42.28 29.46 40.43 34.98 C 40.44 34.31 40.47 32.95 40.48 32.27 C 35.10 32.48 29.57 32.85 24.42 30.93 L 24.11 30.85 Z" />
</g>
</svg>
