<?xml version="1.0" encoding="UTF-8" ?>
<!DOCTYPE svg PUBLIC "-//W3C//DTD SVG 1.1//EN" "http://www.w3.org/Graphics/SVG/1.1/DTD/svg11.dtd">
<svg width="64pt" height="64pt" viewBox="0 0 64 64" version="1.1" xmlns="http://www.w3.org/2000/svg">
<g id="#c51e06ff">
<path fill="#c51e06" opacity="1.00" d=" M 13.37 3.42 C 25.24 3.12 37.13 3.35 49.01 3.30 C 55.15 3.26 60.78 8.74 60.72 14.92 C 60.78 26.30 60.71 37.68 60.67 49.05 C 60.84 55.24 55.18 60.86 49.00 60.69 C 37.68 60.72 26.36 60.72 15.04 60.70 C 8.84 60.89 3.14 55.24 3.32 49.02 C 3.29 37.66 3.22 26.30 3.28 14.94 C 3.23 9.31 7.86 4.24 13.37 3.42 M 6.96 13.62 L 5.98 13.19 C 6.24 17.21 6.17 21.28 6.68 25.28 C 8.81 29.97 14.60 29.67 18.53 31.69 C 18.32 29.87 18.64 28.22 20.47 27.36 C 20.35 33.70 20.49 40.04 20.42 46.38 C 25.61 46.39 30.80 46.40 35.99 46.39 C 39.78 46.44 43.98 44.67 45.55 41.01 C 46.59 37.51 46.30 32.60 42.54 30.82 L 44.39 30.01 C 44.94 30.27 46.04 30.77 46.59 31.02 C 50.50 30.18 55.28 29.27 57.29 25.35 C 57.89 21.44 57.68 17.45 58.06 13.51 L 57.11 13.53 C 56.25 9.40 52.33 6.23 48.12 6.21 C 37.72 6.05 27.32 6.15 16.92 6.16 C 12.40 5.86 7.66 8.99 6.96 13.62 Z" />
<path fill="#c51e06" opacity="1.00" d=" M 27.09 28.24 C 29.67 25.22 34.34 26.97 37.88 26.55 C 35.13 29.55 30.66 27.95 27.09 28.24 Z" />
<path fill="#c51e06" opacity="1.00" d=" M 27.29 33.07 C 30.49 33.37 33.76 32.50 36.90 33.34 C 40.10 34.31 40.27 39.71 37.02 40.74 C 33.87 41.65 30.51 41.10 27.27 41.21 C 27.28 38.50 27.29 35.78 27.29 33.07 Z" />
</g>
<g id="#ffffffff">
<path fill="#ffffff" opacity="1.00" d=" M 6.96 13.62 C 7.66 8.99 12.40 5.86 16.92 6.16 C 27.32 6.15 37.72 6.05 48.12 6.21 C 52.33 6.23 56.25 9.40 57.11 13.53 C 56.16 13.36 55.88 12.31 55.32 11.68 C 53.41 8.55 49.45 7.62 46.02 7.64 C 36.67 7.65 27.33 7.65 17.98 7.65 C 14.54 7.61 10.55 8.57 8.65 11.72 C 8.08 12.32 7.89 13.44 6.96 13.62 Z" />
<path fill="#ffffff" opacity="1.00" d=" M 20.49 16.15 C 26.70 16.35 33.02 15.57 39.16 16.58 C 45.62 17.55 46.47 27.26 40.80 29.96 C 41.37 30.26 41.95 30.55 42.54 30.82 C 46.30 32.60 46.59 37.51 45.55 41.01 C 43.98 44.67 39.78 46.44 35.99 46.39 C 30.80 46.40 25.61 46.39 20.42 46.38 C 20.49 40.04 20.35 33.70 20.47 27.36 C 20.66 23.63 20.48 19.89 20.49 16.15 M 27.20 21.32 C 27.06 23.62 27.11 25.93 27.09 28.24 C 30.66 27.95 35.13 29.55 37.88 26.55 L 38.08 26.55 C 38.42 24.73 38.33 22.33 36.23 21.64 C 33.30 20.87 30.20 21.42 27.20 21.32 M 27.29 33.07 C 27.29 35.78 27.28 38.50 27.27 41.21 C 30.51 41.10 33.87 41.65 37.02 40.74 C 40.27 39.71 40.10 34.31 36.90 33.34 C 33.76 32.50 30.49 33.37 27.29 33.07 Z" />
</g>
<g id="#ef5d56ff">
<path fill="#ef5d56" opacity="1.00" d=" M 8.65 11.72 C 10.55 8.57 14.54 7.61 17.98 7.65 C 27.33 7.65 36.67 7.65 46.02 7.64 C 49.45 7.62 53.41 8.55 55.32 11.68 C 55.88 12.31 56.16 13.36 57.11 13.53 L 58.06 13.51 C 57.68 17.45 57.89 21.44 57.29 25.35 C 55.28 29.27 50.50 30.18 46.59 31.02 C 46.04 30.77 44.94 30.27 44.39 30.01 L 42.54 30.82 C 41.95 30.55 41.37 30.26 40.80 29.96 C 46.47 27.26 45.62 17.55 39.16 16.58 C 33.02 15.57 26.70 16.35 20.49 16.15 C 20.48 19.89 20.66 23.63 20.47 27.36 C 18.64 28.22 18.32 29.87 18.53 31.69 C 14.60 29.67 8.81 29.97 6.68 25.28 C 6.17 21.28 6.24 17.21 5.98 13.19 L 6.96 13.62 C 7.89 13.44 8.08 12.32 8.65 11.72 Z" />
<path fill="#ef5d56" opacity="1.00" d=" M 27.20 21.32 C 30.20 21.42 33.30 20.87 36.23 21.64 C 38.33 22.33 38.42 24.73 38.08 26.55 L 37.88 26.55 C 34.34 26.97 29.67 25.22 27.09 28.24 C 27.11 25.93 27.06 23.62 27.20 21.32 Z" />
</g>
</svg>
