<?xml version="1.0" encoding="UTF-8" ?>
<!DOCTYPE svg PUBLIC "-//W3C//DTD SVG 1.1//EN" "http://www.w3.org/Graphics/SVG/1.1/DTD/svg11.dtd">
<svg width="64pt" height="64pt" viewBox="0 0 64 64" version="1.1" xmlns="http://www.w3.org/2000/svg">
<g id="#c11e06ff">
<path fill="#c11e06" opacity="1.00" d=" M 13.37 3.42 C 25.25 3.11 37.16 3.35 49.06 3.29 C 55.18 3.29 60.77 8.74 60.73 14.90 C 60.77 26.31 60.73 37.72 60.67 49.13 C 60.82 55.29 55.15 60.85 49.03 60.71 C 37.67 60.73 26.31 60.72 14.96 60.71 C 8.80 60.84 3.16 55.25 3.31 49.07 C 3.29 37.70 3.22 26.32 3.27 14.94 C 3.23 9.31 7.86 4.23 13.37 3.42 M 7.32 12.30 C 7.01 12.69 6.37 13.47 6.06 13.87 C 6.32 17.65 6.24 21.48 6.69 25.24 C 7.43 28.40 10.73 27.55 13.12 27.63 C 13.84 25.61 14.38 23.41 16.15 22.01 C 13.74 30.08 11.94 38.32 9.54 46.39 C 11.73 46.39 13.93 46.40 16.12 46.39 C 16.58 44.30 17.06 42.21 17.54 40.13 C 20.18 40.17 22.83 40.17 25.48 40.12 C 25.98 42.20 26.46 44.28 26.88 46.38 C 29.08 46.40 31.28 46.39 33.49 46.38 C 31.81 41.07 30.74 35.60 29.04 30.31 C 30.81 30.83 32.62 31.27 34.25 32.16 C 34.13 36.89 34.20 41.63 34.20 46.36 C 38.80 46.25 43.47 46.77 48.02 46.07 C 55.56 44.81 56.43 32.08 48.89 30.12 L 50.62 29.56 C 54.07 29.76 57.81 26.61 57.55 23.03 C 57.60 20.09 57.83 17.16 57.88 14.22 L 57.47 13.88 C 56.27 9.73 52.58 6.16 48.09 6.21 C 37.72 6.05 27.35 6.15 16.99 6.16 C 12.93 5.91 8.54 8.30 7.32 12.30 Z" />
<path fill="#c11e06" opacity="1.00" d=" M 34.24 15.39 C 38.90 15.49 43.55 15.40 48.20 15.38 C 48.47 15.71 49.01 16.36 49.28 16.69 C 44.36 15.53 39.25 16.28 34.24 16.11 L 34.24 15.39 Z" />
<path fill="#c11e06" opacity="1.00" d=" M 18.60 34.90 C 19.65 30.41 20.84 25.95 21.25 21.33 C 22.26 25.87 23.35 30.38 24.44 34.90 C 22.49 34.90 20.55 34.90 18.60 34.90 Z" />
<path fill="#c11e06" opacity="1.00" d=" M 40.35 32.78 C 42.76 32.71 45.99 32.37 47.27 34.98 C 47.71 36.80 48.03 39.12 46.60 40.62 C 44.95 42.23 42.46 41.77 40.38 41.98 C 40.30 38.91 40.32 35.84 40.35 32.78 Z" />
</g>
<g id="#ffffffff">
<path fill="#ffffff" opacity="1.00" d=" M 7.32 12.30 C 8.54 8.30 12.93 5.91 16.99 6.16 C 27.35 6.15 37.72 6.05 48.09 6.21 C 52.58 6.16 56.27 9.73 57.47 13.88 C 55.71 12.51 54.79 10.29 52.80 9.19 C 49.87 7.36 46.31 7.63 43.01 7.63 C 33.98 7.72 24.94 7.51 15.92 7.72 C 11.81 7.87 8.38 10.78 6.92 14.52 C 7.02 13.97 7.22 12.85 7.32 12.30 Z" />
<path fill="#ffffff" opacity="1.00" d=" M 17.83 16.13 C 20.27 16.12 22.71 16.12 25.15 16.12 C 26.60 20.80 27.54 25.63 29.04 30.31 C 30.74 35.60 31.81 41.07 33.49 46.38 C 31.28 46.39 29.08 46.40 26.88 46.38 C 26.46 44.28 25.98 42.20 25.48 40.12 C 22.83 40.17 20.18 40.17 17.54 40.13 C 17.06 42.21 16.58 44.30 16.12 46.39 C 13.93 46.40 11.73 46.39 9.54 46.39 C 11.94 38.32 13.74 30.08 16.15 22.01 C 16.81 20.08 17.30 18.10 17.83 16.13 M 18.60 34.90 C 20.55 34.90 22.49 34.90 24.44 34.90 C 23.35 30.38 22.26 25.87 21.25 21.33 C 20.84 25.95 19.65 30.41 18.60 34.90 Z" />
<path fill="#ffffff" opacity="1.00" d=" M 34.24 16.11 C 39.25 16.28 44.36 15.53 49.28 16.69 C 53.73 19.29 54.35 26.08 50.62 29.56 L 48.89 30.12 C 56.43 32.08 55.56 44.81 48.02 46.07 C 43.47 46.77 38.80 46.25 34.20 46.36 C 34.20 41.63 34.13 36.89 34.25 32.16 C 34.34 26.81 34.24 21.46 34.24 16.11 M 40.22 20.55 C 40.42 23.20 39.56 26.08 40.42 28.59 C 42.24 29.01 44.06 28.33 45.82 27.95 C 47.45 26.11 47.65 22.95 45.72 21.25 C 44.09 20.16 42.05 20.59 40.22 20.55 M 40.35 32.78 C 40.32 35.84 40.30 38.91 40.38 41.98 C 42.46 41.77 44.95 42.23 46.60 40.62 C 48.03 39.12 47.71 36.80 47.27 34.98 C 45.99 32.37 42.76 32.71 40.35 32.78 Z" />
</g>
<g id="#f2635cff">
<path fill="#f2635c" opacity="1.00" d=" M 6.92 14.52 C 8.38 10.78 11.81 7.87 15.92 7.72 C 24.94 7.51 33.98 7.72 43.01 7.63 C 46.31 7.63 49.87 7.36 52.80 9.19 C 54.79 10.29 55.71 12.51 57.47 13.88 L 57.88 14.22 C 57.83 17.16 57.60 20.09 57.55 23.03 C 57.81 26.61 54.07 29.76 50.62 29.56 C 54.35 26.08 53.73 19.29 49.28 16.69 C 49.01 16.36 48.47 15.71 48.20 15.38 C 43.55 15.40 38.90 15.49 34.24 15.39 L 34.24 16.11 C 34.24 21.46 34.34 26.81 34.25 32.16 C 32.62 31.27 30.81 30.83 29.04 30.31 C 27.54 25.63 26.60 20.80 25.15 16.12 C 22.71 16.12 20.27 16.12 17.83 16.13 C 17.30 18.10 16.81 20.08 16.15 22.01 C 14.38 23.41 13.84 25.61 13.12 27.63 C 10.73 27.55 7.43 28.40 6.69 25.24 C 6.24 21.48 6.32 17.65 6.06 13.87 C 6.37 13.47 7.01 12.69 7.32 12.30 C 7.22 12.85 7.02 13.97 6.92 14.52 Z" />
<path fill="#f2635c" opacity="1.00" d=" M 40.22 20.55 C 42.05 20.59 44.09 20.16 45.72 21.25 C 47.65 22.95 47.45 26.11 45.82 27.95 C 44.06 28.33 42.24 29.01 40.42 28.59 C 39.56 26.08 40.42 23.20 40.22 20.55 Z" />
</g>
</svg>
