<?xml version="1.0" encoding="UTF-8" ?>
<!DOCTYPE svg PUBLIC "-//W3C//DTD SVG 1.1//EN" "http://www.w3.org/Graphics/SVG/1.1/DTD/svg11.dtd">
<svg width="64pt" height="64pt" viewBox="0 0 64 64" version="1.1" xmlns="http://www.w3.org/2000/svg">
<g id="#9e570cde">
<path fill="#9e570c" opacity="0.87" d=" M 8.96 5.02 C 11.06 3.68 13.53 3.06 16.01 3.13 C 26.70 3.14 37.39 3.14 48.07 3.14 C 50.51 3.05 52.93 3.70 55.00 4.99 C 46.09 3.64 37.04 4.49 28.07 4.26 C 21.70 4.33 15.27 3.89 8.96 5.02 Z" />
</g>
<g id="#da8515ff">
<path fill="#da8515" opacity="1.00" d=" M 8.96 5.02 C 15.27 3.89 21.70 4.33 28.07 4.26 C 37.04 4.49 46.09 3.64 55.00 4.99 C 56.56 6.12 57.97 7.49 59.05 9.09 C 61.21 17.69 59.75 26.60 59.67 35.34 C 58.10 28.40 59.92 21.27 58.58 14.33 C 58.39 14.11 58.03 13.65 57.84 13.42 L 57.32 12.73 C 55.98 10.77 54.80 8.52 52.59 7.41 C 50.00 5.86 46.85 6.21 43.96 6.12 C 34.61 6.20 25.26 6.02 15.91 6.21 C 11.96 6.14 8.64 8.90 7.03 12.35 L 6.20 13.30 C 4.81 14.42 5.07 16.36 4.89 17.95 C 4.75 23.58 5.19 29.24 4.41 34.84 C 4.26 26.28 2.90 17.56 4.93 9.13 C 6.00 7.52 7.40 6.15 8.96 5.02 Z" />
</g>
<g id="#ffffffff">
<path fill="#ffffff" opacity="1.00" d=" M 7.03 12.35 C 8.64 8.90 11.96 6.14 15.91 6.21 C 25.26 6.02 34.61 6.20 43.96 6.12 C 46.85 6.21 50.00 5.86 52.59 7.41 C 54.80 8.52 55.98 10.77 57.32 12.73 L 56.99 13.63 C 55.01 10.48 51.92 7.82 48.03 7.72 C 37.68 7.52 27.32 7.65 16.97 7.66 C 12.80 7.54 8.93 10.01 7.23 13.80 C 7.18 13.44 7.08 12.71 7.03 12.35 Z" />
<path fill="#ffffff" opacity="1.00" d=" M 32.57 29.01 C 33.50 21.13 45.37 19.93 49.32 26.02 C 49.54 27.07 49.76 28.12 50.00 29.17 C 47.62 29.40 44.89 29.56 44.23 26.66 C 41.90 25.51 38.72 25.41 37.27 27.97 C 38.67 32.03 44.12 30.81 47.24 32.80 C 51.12 34.35 51.79 40.06 48.61 42.63 C 43.44 47.05 32.59 45.23 32.04 37.38 C 33.14 37.33 35.35 37.23 36.45 37.18 C 37.15 41.21 42.23 42.43 45.26 40.31 C 46.92 39.04 45.67 36.43 43.80 36.15 C 39.62 34.71 33.52 34.40 32.57 29.01 Z" />
<path fill="#ffffff" opacity="1.00" d=" M 13.39 22.87 C 14.99 22.88 16.58 22.88 18.18 22.87 C 19.99 27.89 21.28 33.07 23.05 38.09 C 25.11 33.30 26.27 28.18 27.97 23.26 C 29.69 22.84 31.45 23.06 33.17 23.37 C 30.37 30.23 28.17 37.33 25.86 44.37 C 23.99 44.45 22.12 44.37 20.24 44.26 C 19.94 43.18 19.63 42.10 19.31 41.03 C 18.25 37.66 17.12 34.32 16.05 30.95 C 15.19 28.25 14.29 25.56 13.39 22.87 Z" />
</g>
<g id="#ffbf5dff">
<path fill="#ffbf5d" opacity="1.00" d=" M 7.23 13.80 C 8.93 10.01 12.80 7.54 16.97 7.66 C 27.32 7.65 37.68 7.52 48.03 7.72 C 51.92 7.82 55.01 10.48 56.99 13.63 L 57.32 12.73 L 57.84 13.42 C 57.90 17.26 57.63 21.10 57.48 24.94 C 55.13 23.51 52.46 23.35 50.00 24.64 C 48.08 22.80 45.80 21.18 43.05 21.00 C 39.53 20.18 36.31 22.12 33.17 23.37 C 31.45 23.06 29.69 22.84 27.97 23.26 C 26.08 23.77 24.02 24.76 22.11 23.69 C 19.57 22.38 17.21 19.44 14.03 20.94 C 11.73 22.57 9.38 24.17 6.70 25.15 C 6.37 21.21 6.08 17.26 6.20 13.30 L 7.03 12.35 C 7.08 12.71 7.18 13.44 7.23 13.80 Z" />
</g>
<g id="#be490bde">
<path fill="#be490b" opacity="0.87" d=" M 3.13 15.96 C 3.07 13.57 3.65 11.16 4.93 9.13 C 2.90 17.56 4.26 26.28 4.41 34.84 C 4.38 37.41 4.31 39.99 4.43 42.56 C 4.54 46.37 3.54 50.62 5.74 54.03 C 7.66 57.22 11.05 60.06 14.97 59.78 C 26.31 59.81 37.66 59.81 49.00 59.78 C 52.94 60.10 56.32 57.24 58.23 54.05 C 60.46 50.61 59.46 46.33 59.56 42.49 C 59.66 40.11 59.68 37.73 59.67 35.34 C 59.75 26.60 61.21 17.69 59.05 9.09 C 60.13 10.85 60.81 12.87 60.83 14.95 C 60.92 25.65 60.86 36.35 60.89 47.05 C 60.91 49.03 60.71 51.01 60.30 52.95 C 58.35 57.38 54.05 60.79 49.11 60.89 C 37.72 60.94 26.33 60.94 14.94 60.89 C 9.97 60.81 5.64 57.39 3.70 52.93 C 3.29 50.99 3.09 49.01 3.11 47.02 C 3.13 36.67 3.10 26.32 3.13 15.96 Z" />
</g>
<g id="#ff9219ff">
<path fill="#ff9219" opacity="1.00" d=" M 4.89 17.95 C 5.07 16.36 4.81 14.42 6.20 13.30 C 6.08 17.26 6.37 21.21 6.70 25.15 C 7.69 29.41 12.58 29.85 16.05 30.95 C 17.12 34.32 18.25 37.66 19.31 41.03 C 15.47 42.09 11.45 42.52 7.52 41.69 C 6.72 39.30 5.77 36.96 4.41 34.84 C 5.19 29.24 4.75 23.58 4.89 17.95 Z" />
</g>
<g id="#ff8316ff">
<path fill="#ff8316" opacity="1.00" d=" M 57.84 13.42 C 58.03 13.65 58.39 14.11 58.58 14.33 C 59.92 21.27 58.10 28.40 59.67 35.34 C 59.68 37.73 59.66 40.11 59.56 42.49 C 57.82 44.93 58.32 48.26 56.77 50.68 C 45.19 51.34 33.54 50.75 21.93 50.95 C 17.03 50.84 12.09 51.29 7.21 50.66 C 5.67 48.27 6.23 44.94 4.43 42.56 C 4.31 39.99 4.38 37.41 4.41 34.84 C 5.77 36.96 6.72 39.30 7.52 41.69 C 11.45 42.52 15.47 42.09 19.31 41.03 C 19.63 42.10 19.94 43.18 20.24 44.26 C 22.12 44.37 23.99 44.45 25.86 44.37 C 28.17 37.33 30.37 30.23 33.17 23.37 C 36.31 22.12 39.53 20.18 43.05 21.00 C 45.80 21.18 48.08 22.80 50.00 24.64 C 49.83 24.99 49.49 25.68 49.32 26.02 C 45.37 19.93 33.50 21.13 32.57 29.01 C 33.52 34.40 39.62 34.71 43.80 36.15 C 45.67 36.43 46.92 39.04 45.26 40.31 C 42.23 42.43 37.15 41.21 36.45 37.18 C 35.35 37.23 33.14 37.33 32.04 37.38 C 32.59 45.23 43.44 47.05 48.61 42.63 C 51.79 40.06 51.12 34.35 47.24 32.80 C 44.12 30.81 38.67 32.03 37.27 27.97 C 42.35 29.88 48.19 31.98 53.48 29.56 C 55.52 28.80 57.03 27.07 57.48 24.94 C 57.63 21.10 57.90 17.26 57.84 13.42 Z" />
</g>
<g id="#ffab3cff">
<path fill="#ffab3c" opacity="1.00" d=" M 6.70 25.15 C 9.38 24.17 11.73 22.57 14.03 20.94 C 17.21 19.44 19.57 22.38 22.11 23.69 C 24.02 24.76 26.08 23.77 27.97 23.26 C 26.27 28.18 25.11 33.30 23.05 38.09 C 21.28 33.07 19.99 27.89 18.18 22.87 C 16.58 22.88 14.99 22.88 13.39 22.87 C 14.29 25.56 15.19 28.25 16.05 30.95 C 12.58 29.85 7.69 29.41 6.70 25.15 Z" />
<path fill="#ffab3c" opacity="1.00" d=" M 50.00 24.64 C 52.46 23.35 55.13 23.51 57.48 24.94 C 57.03 27.07 55.52 28.80 53.48 29.56 C 48.19 31.98 42.35 29.88 37.27 27.97 C 38.72 25.41 41.90 25.51 44.23 26.66 C 44.89 29.56 47.62 29.40 50.00 29.17 C 49.76 28.12 49.54 27.07 49.32 26.02 C 49.49 25.68 49.83 24.99 50.00 24.64 Z" />
</g>
<g id="#ff7814ff">
<path fill="#ff7814" opacity="1.00" d=" M 4.43 42.56 C 6.23 44.94 5.67 48.27 7.21 50.66 C 12.09 51.29 17.03 50.84 21.93 50.95 C 33.54 50.75 45.19 51.34 56.77 50.68 C 58.32 48.26 57.82 44.93 59.56 42.49 C 59.46 46.33 60.46 50.61 58.23 54.05 C 56.32 57.24 52.94 60.10 49.00 59.78 C 37.66 59.81 26.31 59.81 14.97 59.78 C 11.05 60.06 7.66 57.22 5.74 54.03 C 3.54 50.62 4.54 46.37 4.43 42.56 Z" />
</g>
<g id="#00000026">
<path fill="#000000" opacity="0.15" d=" M 3.70 52.93 C 5.64 57.39 9.97 60.81 14.94 60.89 C 26.33 60.94 37.72 60.94 49.11 60.89 C 54.05 60.79 58.35 57.38 60.30 52.95 C 60.30 58.58 55.68 62.42 50.71 64.00 L 13.33 64.00 C 8.30 62.49 3.71 58.57 3.70 52.93 Z" />
</g>
</svg>
