<?xml version="1.0" encoding="UTF-8" ?>
<!DOCTYPE svg PUBLIC "-//W3C//DTD SVG 1.1//EN" "http://www.w3.org/Graphics/SVG/1.1/DTD/svg11.dtd">
<svg width="64pt" height="64pt" viewBox="0 0 64 64" version="1.1" xmlns="http://www.w3.org/2000/svg">
<g id="#2c3c56c3">
<path fill="#2c3c56" opacity="0.76" d=" M 11.76 3.77 C 25.13 2.46 38.86 2.51 52.24 3.75 C 38.75 4.04 25.24 4.27 11.76 3.77 Z" />
</g>
<g id="#4a6587f6">
<path fill="#4a6587" opacity="0.96" d=" M 4.65 9.72 C 5.95 6.79 8.67 4.60 11.76 3.77 C 25.24 4.27 38.75 4.04 52.24 3.75 C 55.31 4.60 58.02 6.76 59.33 9.69 L 58.32 9.82 C 55.66 6.98 52.48 3.70 48.01 5.04 C 36.02 4.98 24.03 4.85 12.05 5.08 C 9.39 5.74 7.56 7.99 5.57 9.72 L 4.65 9.72 Z" />
</g>
<g id="#6b90b3ff">
<path fill="#6b90b3" opacity="1.00" d=" M 5.57 9.72 C 7.56 7.99 9.39 5.74 12.05 5.08 C 24.03 4.85 36.02 4.98 48.01 5.04 C 52.48 3.70 55.66 6.98 58.32 9.82 C 59.24 18.86 59.41 28.02 57.89 37.01 C 55.47 37.28 53.14 36.99 50.92 36.12 C 50.96 34.14 50.99 32.15 51.04 30.17 C 53.23 30.21 54.94 28.97 56.19 27.26 C 58.36 23.94 57.85 19.64 57.95 15.80 C 58.14 14.07 57.52 12.45 56.38 11.17 C 54.01 7.94 50.50 4.80 46.01 6.04 C 35.67 5.94 25.32 5.91 14.98 6.01 C 11.75 6.13 9.47 8.82 7.62 11.17 C 6.48 12.45 5.86 14.07 6.06 15.80 C 5.41 19.97 6.34 23.96 7.63 27.86 C 7.33 30.70 7.30 33.62 6.47 36.38 C 6.16 33.49 6.07 30.56 5.29 27.74 C 5.02 21.75 4.66 15.68 5.57 9.72 Z" />
</g>
<g id="#e1eaf1ff">
<path fill="#e1eaf1" opacity="1.00" d=" M 7.62 11.17 C 9.47 8.82 11.75 6.13 14.98 6.01 C 25.32 5.91 35.67 5.94 46.01 6.04 C 50.50 4.80 54.01 7.94 56.38 11.17 C 55.72 11.17 55.06 11.15 54.39 11.11 C 52.37 8.77 49.37 6.93 46.01 8.04 C 35.67 7.94 25.32 7.91 14.98 8.01 C 12.76 7.96 11.01 9.58 9.61 11.12 C 8.94 11.15 8.28 11.17 7.62 11.17 Z" />
</g>
<g id="#a7c1daff">
<path fill="#a7c1da" opacity="1.00" d=" M 9.61 11.12 C 11.01 9.58 12.76 7.96 14.98 8.01 C 25.32 7.91 35.67 7.94 46.01 8.04 C 49.37 6.93 52.37 8.77 54.39 11.11 C 54.21 11.53 53.84 12.36 53.65 12.78 C 39.21 13.02 24.70 13.37 10.28 12.78 C 10.11 12.36 9.78 11.53 9.61 11.12 Z" />
</g>
<g id="#537295fe">
<path fill="#537295" opacity="1.00" d=" M 3.78 11.76 C 4.00 11.25 4.43 10.23 4.65 9.72 L 5.57 9.72 C 4.66 15.68 5.02 21.75 5.29 27.74 C 5.19 31.09 4.98 34.44 5.16 37.79 C 5.11 39.20 5.05 40.60 4.99 42.00 L 4.02 42.00 C 3.89 31.92 4.25 21.84 3.78 11.76 Z" />
</g>
<g id="#5c7d9dff">
<path fill="#5c7d9d" opacity="1.00" d=" M 58.32 9.82 L 59.33 9.69 C 59.56 10.21 60.02 11.25 60.25 11.77 C 59.94 19.77 60.15 27.79 59.80 35.79 C 58.18 43.09 61.73 55.41 52.34 58.35 C 40.68 59.72 28.75 58.81 16.99 58.94 C 13.75 59.65 10.94 58.13 8.25 56.71 C 4.30 52.73 4.98 47.12 4.99 42.00 C 5.05 40.60 5.11 39.20 5.16 37.79 C 5.71 41.83 5.97 45.96 7.24 49.86 C 23.76 50.12 40.29 50.09 56.81 49.89 C 57.46 46.70 58.77 43.19 57.55 40.02 C 56.67 37.42 54.43 36.79 50.84 38.12 C 50.86 37.62 50.90 36.62 50.92 36.12 C 53.14 36.99 55.47 37.28 57.89 37.01 C 59.41 28.02 59.24 18.86 58.32 9.82 Z" />
</g>
<g id="#a1bcd6ff">
<path fill="#a1bcd6" opacity="1.00" d=" M 6.06 15.80 C 5.86 14.07 6.48 12.45 7.62 11.17 C 8.28 11.17 8.94 11.15 9.61 11.12 C 9.78 11.53 10.11 12.36 10.28 12.78 C 24.70 13.37 39.21 13.02 53.65 12.78 C 53.84 12.36 54.21 11.53 54.39 11.11 C 55.06 11.15 55.72 11.17 56.38 11.17 C 57.52 12.45 58.14 14.07 57.95 15.80 C 57.55 16.72 57.13 17.63 56.72 18.54 C 40.27 17.81 23.73 17.54 7.28 18.46 C 6.87 17.58 6.46 16.69 6.06 15.80 Z" />
</g>
<g id="#2b3b53c9">
<path fill="#2b3b53" opacity="0.79" d=" M 3.75 52.22 C 2.62 38.82 2.37 25.12 3.78 11.76 C 4.25 21.84 3.89 31.92 4.02 42.00 C 3.98 45.40 3.96 48.82 3.75 52.22 Z" />
<path fill="#2b3b53" opacity="0.79" d=" M 60.25 11.77 C 61.61 25.13 61.37 38.81 60.28 52.22 C 60.10 46.74 60.06 41.26 59.80 35.79 C 60.15 27.79 59.94 19.77 60.25 11.77 Z" />
</g>
<g id="#95b3cfff">
<path fill="#95b3cf" opacity="1.00" d=" M 6.06 15.80 C 6.46 16.69 6.87 17.58 7.28 18.46 C 23.73 17.54 40.27 17.81 56.72 18.54 C 57.13 17.63 57.55 16.72 57.95 15.80 C 57.85 19.64 58.36 23.94 56.19 27.26 C 54.34 26.34 52.18 25.75 51.13 23.80 C 50.87 20.31 46.37 22.29 45.40 24.50 C 42.45 20.43 35.61 21.17 33.54 25.72 C 30.41 21.74 24.10 20.10 20.73 24.61 C 17.70 22.78 13.40 20.30 10.17 22.98 C 10.32 23.28 10.64 23.87 10.79 24.16 C 9.80 25.62 9.04 27.21 8.86 29.00 L 7.88 28.78 L 7.63 27.86 C 6.34 23.96 5.41 19.97 6.06 15.80 Z" />
</g>
<g id="#7aa1c3ff">
<path fill="#7aa1c3" opacity="1.00" d=" M 10.17 22.98 C 13.40 20.30 17.70 22.78 20.73 24.61 C 24.10 20.10 30.41 21.74 33.54 25.72 C 35.61 21.17 42.45 20.43 45.40 24.50 C 46.37 22.29 50.87 20.31 51.13 23.80 L 50.05 23.90 C 49.54 23.94 48.53 24.01 48.02 24.05 C 45.98 24.17 47.47 27.57 46.96 29.03 L 46.10 29.03 C 45.91 28.69 45.51 28.02 45.31 27.68 C 44.01 22.59 35.30 21.88 34.38 27.34 C 34.27 28.72 34.05 31.48 33.94 32.86 L 33.18 33.16 C 33.01 31.34 33.05 29.43 32.30 27.72 C 31.37 22.86 22.96 21.83 21.64 26.64 C 20.50 29.23 21.23 32.28 20.89 35.04 L 20.09 35.08 C 18.79 35.08 17.48 35.09 16.18 35.11 C 16.45 33.06 20.32 34.95 20.19 32.34 C 17.25 33.47 14.51 32.41 11.99 30.83 C 11.86 29.05 11.87 25.17 14.66 26.26 C 15.82 28.18 17.54 29.54 19.92 29.10 C 19.35 27.38 18.92 25.56 17.84 24.06 C 16.08 24.09 12.56 24.14 10.79 24.16 C 10.64 23.87 10.32 23.28 10.17 22.98 Z" />
</g>
<g id="#f5f8faff">
<path fill="#f5f8fa" opacity="1.00" d=" M 10.79 24.16 C 12.56 24.14 16.08 24.09 17.84 24.06 C 18.92 25.56 19.35 27.38 19.92 29.10 C 17.54 29.54 15.82 28.18 14.66 26.26 C 11.87 25.17 11.86 29.05 11.99 30.83 C 12.02 33.60 10.54 39.29 14.86 39.01 C 15.62 37.83 15.84 36.45 16.18 35.11 C 17.48 35.09 18.79 35.08 20.09 35.08 C 19.10 38.52 16.87 43.23 12.05 40.97 C 10.32 40.77 9.31 38.76 8.68 37.28 C 8.77 34.52 8.83 31.76 8.86 29.00 C 9.04 27.21 9.80 25.62 10.79 24.16 Z" />
</g>
<g id="#f7f9fbff">
<path fill="#f7f9fb" opacity="1.00" d=" M 21.64 26.64 C 22.96 21.83 31.37 22.86 32.30 27.72 C 32.24 30.90 32.13 34.09 32.25 37.27 C 30.87 43.79 19.88 41.69 20.89 35.04 C 21.23 32.28 20.50 29.23 21.64 26.64 M 25.19 26.09 C 23.35 29.43 24.08 33.39 24.00 37.01 L 24.97 36.96 C 26.75 41.90 30.66 36.23 28.95 33.10 C 29.79 29.84 29.51 24.87 25.19 26.09 Z" />
<path fill="#f7f9fb" opacity="1.00" d=" M 34.38 27.34 C 35.30 21.88 44.01 22.59 45.31 27.68 C 45.23 30.87 45.14 34.06 45.20 37.24 C 44.62 41.61 38.15 42.77 35.68 39.31 C 33.49 37.87 34.09 35.10 33.94 32.86 C 34.05 31.48 34.27 28.72 34.38 27.34 M 37.97 27.99 L 37.04 28.03 C 37.76 30.40 34.74 37.09 38.02 36.96 C 38.18 40.32 43.04 38.85 42.15 35.83 C 43.76 34.91 43.74 30.11 42.19 29.18 C 43.23 26.11 36.90 24.18 37.97 27.99 Z" />
</g>
<g id="#dee5edff">
<path fill="#dee5ed" opacity="1.00" d=" M 46.96 29.03 C 47.47 27.57 45.98 24.17 48.02 24.05 C 47.95 29.35 47.96 34.65 48.06 39.95 C 47.59 38.21 56.96 41.69 55.67 39.27 C 54.46 38.98 52.05 38.41 50.84 38.12 C 54.43 36.79 56.67 37.42 57.55 40.02 C 54.93 40.28 49.69 40.79 47.07 41.04 C 47.00 37.04 46.97 33.04 46.96 29.03 Z" />
</g>
<g id="#ffffffff">
<path fill="#ffffff" opacity="1.00" d=" M 48.02 24.05 C 48.53 24.01 49.54 23.94 50.05 23.90 C 50.92 28.19 48.32 34.72 50.84 38.12 C 52.05 38.41 54.46 38.98 55.67 39.27 C 56.96 41.69 47.59 38.21 48.06 39.95 C 47.96 34.65 47.95 29.35 48.02 24.05 Z" />
</g>
<g id="#ccdae6ff">
<path fill="#ccdae6" opacity="1.00" d=" M 50.05 23.90 L 51.13 23.80 C 51.07 25.92 51.03 28.05 51.04 30.17 C 50.99 32.15 50.96 34.14 50.92 36.12 C 50.90 36.62 50.86 37.62 50.84 38.12 C 48.32 34.72 50.92 28.19 50.05 23.90 Z" />
</g>
<g id="#82a4c3ff">
<path fill="#82a4c3" opacity="1.00" d=" M 51.13 23.80 C 52.18 25.75 54.34 26.34 56.19 27.26 C 54.94 28.97 53.23 30.21 51.04 30.17 C 51.03 28.05 51.07 25.92 51.13 23.80 Z" />
</g>
<g id="#8aa9c5ff">
<path fill="#8aa9c5" opacity="1.00" d=" M 25.19 26.09 C 29.51 24.87 29.79 29.84 28.95 33.10 C 27.64 32.83 26.34 32.52 25.04 32.26 C 24.94 33.82 24.97 35.39 24.97 36.96 L 24.00 37.01 C 24.08 33.39 23.35 29.43 25.19 26.09 Z" />
</g>
<g id="#83a3c2ff">
<path fill="#83a3c2" opacity="1.00" d=" M 37.97 27.99 C 36.90 24.18 43.23 26.11 42.19 29.18 C 42.11 29.89 41.95 31.32 41.87 32.04 C 40.62 32.86 39.27 32.81 37.99 32.09 C 37.98 30.73 37.97 29.36 37.97 27.99 Z" />
</g>
<g id="#6588a8ff">
<path fill="#6588a8" opacity="1.00" d=" M 5.29 27.74 C 6.07 30.56 6.16 33.49 6.47 36.38 C 7.30 33.62 7.33 30.70 7.63 27.86 L 7.88 28.78 C 8.10 31.62 7.52 34.62 8.68 37.28 C 9.31 38.76 10.32 40.77 12.05 40.97 C 16.87 43.23 19.10 38.52 20.09 35.08 L 20.89 35.04 C 19.88 41.69 30.87 43.79 32.25 37.27 C 32.78 35.96 32.96 34.55 33.18 33.16 L 33.94 32.86 C 34.09 35.10 33.49 37.87 35.68 39.31 C 38.15 42.77 44.62 41.61 45.20 37.24 C 45.85 34.56 45.89 31.77 46.10 29.03 L 46.96 29.03 C 46.97 33.04 47.00 37.04 47.07 41.04 C 49.69 40.79 54.93 40.28 57.55 40.02 C 58.77 43.19 57.46 46.70 56.81 49.89 C 40.29 50.09 23.76 50.12 7.24 49.86 C 5.97 45.96 5.71 41.83 5.16 37.79 C 4.98 34.44 5.19 31.09 5.29 27.74 Z" />
</g>
<g id="#a5bcd2ff">
<path fill="#a5bcd2" opacity="1.00" d=" M 32.30 27.72 C 33.05 29.43 33.01 31.34 33.18 33.16 C 32.96 34.55 32.78 35.96 32.25 37.27 C 32.13 34.09 32.24 30.90 32.30 27.72 Z" />
</g>
<g id="#bacbdbff">
<path fill="#bacbdb" opacity="1.00" d=" M 37.04 28.03 L 37.97 27.99 C 37.97 29.36 37.98 30.73 37.99 32.09 C 37.98 33.72 37.99 35.34 38.02 36.96 C 34.74 37.09 37.76 30.40 37.04 28.03 Z" />
</g>
<g id="#c1d1e0ff">
<path fill="#c1d1e0" opacity="1.00" d=" M 45.31 27.68 C 45.51 28.02 45.91 28.69 46.10 29.03 C 45.89 31.77 45.85 34.56 45.20 37.24 C 45.14 34.06 45.23 30.87 45.31 27.68 Z" />
</g>
<g id="#b0c5d8ff">
<path fill="#b0c5d8" opacity="1.00" d=" M 7.88 28.78 L 8.86 29.00 C 8.83 31.76 8.77 34.52 8.68 37.28 C 7.52 34.62 8.10 31.62 7.88 28.78 Z" />
</g>
<g id="#dae4edff">
<path fill="#dae4ed" opacity="1.00" d=" M 42.19 29.18 C 43.74 30.11 43.76 34.91 42.15 35.83 C 42.04 34.57 41.95 33.30 41.87 32.04 C 41.95 31.32 42.11 29.89 42.19 29.18 Z" />
</g>
<g id="#5c82aaff">
<path fill="#5c82aa" opacity="1.00" d=" M 11.99 30.83 C 14.51 32.41 17.25 33.47 20.19 32.34 C 20.32 34.95 16.45 33.06 16.18 35.11 C 15.84 36.45 15.62 37.83 14.86 39.01 C 10.54 39.29 12.02 33.60 11.99 30.83 Z" />
</g>
<g id="#6286adff">
<path fill="#6286ad" opacity="1.00" d=" M 25.04 32.26 C 26.34 32.52 27.64 32.83 28.95 33.10 C 30.66 36.23 26.75 41.90 24.97 36.96 C 24.97 35.39 24.94 33.82 25.04 32.26 Z" />
</g>
<g id="#5e84abff">
<path fill="#5e84ab" opacity="1.00" d=" M 37.99 32.09 C 39.27 32.81 40.62 32.86 41.87 32.04 C 41.95 33.30 42.04 34.57 42.15 35.83 C 43.04 38.85 38.18 40.32 38.02 36.96 C 37.99 35.34 37.98 33.72 37.99 32.09 Z" />
</g>
<g id="#465f7cfa">
<path fill="#465f7c" opacity="0.98" d=" M 52.34 58.35 C 61.73 55.41 58.18 43.09 59.80 35.79 C 60.06 41.26 60.10 46.74 60.28 52.22 C 60.23 52.64 60.12 53.48 60.06 53.91 C 58.03 56.61 55.69 59.42 52.24 60.26 C 38.75 59.96 25.24 59.73 11.76 60.23 C 8.30 59.43 5.97 56.62 3.96 53.91 C 3.90 53.49 3.80 52.64 3.75 52.22 C 3.96 48.82 3.98 45.40 4.02 42.00 L 4.99 42.00 C 4.98 47.12 4.30 52.73 8.25 56.71 C 10.94 58.13 13.75 59.65 16.99 58.94 C 28.75 58.81 40.68 59.72 52.34 58.35 Z" />
</g>
<g id="#01010127">
<path fill="#010101" opacity="0.15" d=" M 3.96 53.91 C 5.97 56.62 8.30 59.43 11.76 60.23 C 25.13 61.54 38.86 61.49 52.24 60.26 C 55.69 59.42 58.03 56.61 60.06 53.91 C 60.22 59.36 55.13 62.44 50.62 64.00 L 13.38 64.00 C 8.88 62.44 3.76 59.37 3.96 53.91 Z" />
</g>
<g id="#29384ccc">
<path fill="#29384c" opacity="0.80" d=" M 11.76 60.23 C 25.24 59.73 38.75 59.96 52.24 60.26 C 38.86 61.49 25.13 61.54 11.76 60.23 Z" />
</g>
</svg>
