<?xml version="1.0" encoding="UTF-8" ?>
<!DOCTYPE svg PUBLIC "-//W3C//DTD SVG 1.1//EN" "http://www.w3.org/Graphics/SVG/1.1/DTD/svg11.dtd">
<svg width="64pt" height="64pt" viewBox="0 0 64 64" version="1.1" xmlns="http://www.w3.org/2000/svg">
<g id="#2c3c55c3">
<path fill="#2c3c55" opacity="0.76" d=" M 11.75 3.77 C 25.13 2.46 38.87 2.51 52.24 3.74 C 38.75 4.04 25.24 4.27 11.75 3.77 Z" />
</g>
<g id="#4b6587f6">
<path fill="#4b6587" opacity="0.96" d=" M 4.68 9.69 C 5.97 6.76 8.69 4.61 11.75 3.77 C 25.24 4.27 38.75 4.04 52.24 3.74 C 56.07 4.79 59.17 7.92 60.23 11.74 L 59.21 11.96 C 57.54 8.99 55.40 5.65 51.63 5.42 C 38.57 4.69 25.43 4.71 12.37 5.41 C 9.47 5.65 7.53 7.81 5.70 9.83 L 4.68 9.69 Z" />
</g>
<g id="#6d91b4ff">
<path fill="#6d91b4" opacity="1.00" d=" M 12.37 5.41 C 25.43 4.71 38.57 4.69 51.63 5.42 C 55.40 5.65 57.54 8.99 59.21 11.96 C 59.04 16.90 59.09 21.85 58.86 26.79 C 57.87 30.90 58.79 37.15 54.06 39.25 C 51.07 39.71 50.02 30.40 46.61 32.95 C 45.52 32.07 46.38 31.01 46.94 30.12 C 49.74 31.46 52.87 29.73 55.25 28.24 C 58.85 25.56 57.80 20.71 57.94 16.77 C 58.10 14.77 57.86 12.68 56.40 11.18 C 54.03 7.94 50.50 4.80 46.01 6.04 C 35.67 5.94 25.32 5.91 14.99 6.01 C 11.75 6.14 9.44 8.82 7.60 11.18 C 6.47 12.46 5.87 14.08 6.06 15.79 C 5.91 19.60 5.54 23.93 7.82 27.25 C 8.66 29.25 10.53 28.85 12.23 28.31 C 11.93 29.26 11.61 30.21 11.30 31.16 C 7.45 26.33 13.15 41.17 7.16 37.90 C 6.31 34.22 6.29 30.39 5.27 26.75 C 5.01 21.11 4.59 15.40 5.70 9.83 C 7.53 7.81 9.47 5.65 12.37 5.41 Z" />
</g>
<g id="#e1eaf1ff">
<path fill="#e1eaf1" opacity="1.00" d=" M 7.60 11.18 C 9.44 8.82 11.75 6.14 14.99 6.01 C 25.32 5.91 35.67 5.94 46.01 6.04 C 50.50 4.80 54.03 7.94 56.40 11.18 C 55.72 11.18 55.04 11.16 54.36 11.11 C 52.38 8.72 49.34 6.96 46.01 8.04 C 35.67 7.94 25.32 7.91 14.98 8.01 C 12.77 7.96 11.01 9.55 9.64 11.11 C 8.96 11.16 8.28 11.18 7.60 11.18 Z" />
</g>
<g id="#a7c1daff">
<path fill="#a7c1da" opacity="1.00" d=" M 9.64 11.11 C 11.01 9.55 12.77 7.96 14.98 8.01 C 25.32 7.91 35.67 7.94 46.01 8.04 C 49.34 6.96 52.38 8.72 54.36 11.11 C 54.19 11.53 53.85 12.37 53.68 12.79 C 39.22 13.02 24.70 13.35 10.25 12.79 C 10.10 12.37 9.79 11.53 9.64 11.11 Z" />
</g>
<g id="#547396fe">
<path fill="#547396" opacity="1.00" d=" M 3.78 11.77 C 4.00 11.25 4.45 10.21 4.68 9.69 L 5.70 9.83 C 4.59 15.40 5.01 21.11 5.27 26.75 C 5.23 29.74 5.05 32.75 5.23 35.75 C 5.12 37.83 5.02 39.91 4.96 42.00 L 4.01 42.00 C 3.89 31.93 4.25 21.84 3.78 11.77 Z" />
</g>
<g id="#a1bcd6ff">
<path fill="#a1bcd6" opacity="1.00" d=" M 6.06 15.79 C 5.87 14.08 6.47 12.46 7.60 11.18 C 8.28 11.18 8.96 11.16 9.64 11.11 C 9.79 11.53 10.10 12.37 10.25 12.79 C 24.70 13.35 39.22 13.02 53.68 12.79 C 53.85 12.37 54.19 11.53 54.36 11.11 C 55.04 11.16 55.72 11.18 56.40 11.18 C 57.86 12.68 58.10 14.77 57.94 16.77 C 57.70 17.28 57.23 18.31 56.99 18.82 C 40.52 17.35 23.80 17.75 7.28 18.47 C 6.86 17.58 6.46 16.69 6.06 15.79 Z" />
</g>
<g id="#2b3b53ca">
<path fill="#2b3b53" opacity="0.79" d=" M 3.75 52.22 C 2.62 38.82 2.37 25.12 3.78 11.77 C 4.25 21.84 3.89 31.93 4.01 42.00 C 3.97 45.41 3.97 48.82 3.75 52.22 Z" />
<path fill="#2b3b53" opacity="0.79" d=" M 60.23 11.74 C 61.62 25.11 61.37 38.80 60.28 52.22 C 60.09 46.82 60.03 41.44 59.93 36.04 C 60.04 27.94 59.95 19.84 60.23 11.74 Z" />
</g>
<g id="#56769aff">
<path fill="#56769a" opacity="1.00" d=" M 59.21 11.96 L 60.23 11.74 C 59.95 19.84 60.04 27.94 59.93 36.04 L 58.86 35.74 C 58.90 32.75 58.90 29.78 58.86 26.79 C 59.09 21.85 59.04 16.90 59.21 11.96 Z" />
</g>
<g id="#96b3cfff">
<path fill="#96b3cf" opacity="1.00" d=" M 6.06 15.79 C 6.46 16.69 6.86 17.58 7.28 18.47 C 23.80 17.75 40.52 17.35 56.99 18.82 C 56.98 20.59 56.98 22.36 56.91 24.13 C 55.62 23.16 54.93 21.15 53.18 20.98 C 47.75 19.64 45.05 25.15 41.30 27.93 C 41.02 27.40 40.44 26.34 40.16 25.82 C 40.09 25.13 39.96 23.75 39.89 23.06 C 39.77 20.53 36.25 20.29 34.83 21.83 C 33.13 23.78 31.32 25.59 29.11 23.18 C 25.07 20.23 19.09 19.89 15.14 23.10 C 12.83 24.72 10.42 26.16 7.82 27.25 C 5.54 23.93 5.91 19.60 6.06 15.79 Z" />
</g>
<g id="#8eacc9ff">
<path fill="#8eacc9" opacity="1.00" d=" M 56.99 18.82 C 57.23 18.31 57.70 17.28 57.94 16.77 C 57.80 20.71 58.85 25.56 55.25 28.24 C 52.87 29.73 49.74 31.46 46.94 30.12 C 48.48 27.40 51.79 25.79 52.83 22.83 C 52.92 22.37 53.09 21.44 53.18 20.98 C 54.93 21.15 55.62 23.16 56.91 24.13 C 56.98 22.36 56.98 20.59 56.99 18.82 Z" />
</g>
<g id="#6094bdff">
<path fill="#6094bd" opacity="1.00" d=" M 15.14 23.10 C 19.09 19.89 25.07 20.23 29.11 23.18 C 28.82 23.40 28.24 23.85 27.96 24.07 C 23.90 21.18 19.24 22.28 15.00 24.04 L 15.14 23.10 Z" />
</g>
<g id="#6d9cc3ff">
<path fill="#6d9cc3" opacity="1.00" d=" M 34.83 21.83 C 36.25 20.29 39.77 20.53 39.89 23.06 L 38.98 23.04 C 37.61 22.99 36.25 22.93 34.89 22.87 L 34.83 21.83 Z" />
</g>
<g id="#6998bfff">
<path fill="#6998bf" opacity="1.00" d=" M 41.30 27.93 C 45.05 25.15 47.75 19.64 53.18 20.98 C 53.09 21.44 52.92 22.37 52.83 22.83 C 47.03 22.23 44.17 28.01 40.17 31.15 C 40.15 29.37 40.14 27.59 40.16 25.82 C 40.44 26.34 41.02 27.40 41.30 27.93 Z" />
</g>
<g id="#f6f8faff">
<path fill="#f6f8fa" opacity="1.00" d=" M 15.00 24.04 C 19.24 22.28 23.90 21.18 27.96 24.07 C 31.90 27.40 32.30 32.40 32.30 37.26 C 30.95 42.66 24.72 46.23 19.38 44.60 C 13.42 43.79 9.98 36.69 11.30 31.16 C 11.61 30.21 11.93 29.26 12.23 28.31 C 13.13 26.87 14.06 25.45 15.00 24.04 M 20.27 26.28 C 18.86 27.12 16.28 27.69 17.11 29.87 C 15.83 31.69 14.12 36.10 16.84 37.17 C 17.21 41.88 24.29 42.31 26.27 38.69 C 27.67 37.36 28.96 33.08 27.00 31.20 C 27.03 28.15 23.37 24.84 20.27 26.28 Z" />
</g>
<g id="#89a9c7ff">
<path fill="#89a9c7" opacity="1.00" d=" M 29.11 23.18 C 31.32 25.59 33.13 23.78 34.83 21.83 L 34.89 22.87 C 34.97 26.65 35.01 30.42 34.89 34.20 C 33.77 32.05 31.93 25.91 32.73 35.78 C 32.62 36.15 32.41 36.89 32.30 37.26 C 32.30 32.40 31.90 27.40 27.96 24.07 C 28.24 23.85 28.82 23.40 29.11 23.18 Z" />
</g>
<g id="#7ba0c2ff">
<path fill="#7ba0c2" opacity="1.00" d=" M 7.82 27.25 C 10.42 26.16 12.83 24.72 15.14 23.10 L 15.00 24.04 C 14.06 25.45 13.13 26.87 12.23 28.31 C 10.53 28.85 8.66 29.25 7.82 27.25 Z" />
</g>
<g id="#fbfcfdff">
<path fill="#fbfcfd" opacity="1.00" d=" M 34.89 22.87 C 36.25 22.93 37.61 22.99 38.98 23.04 C 38.99 26.07 38.94 29.10 39.05 32.12 C 39.33 31.88 39.89 31.39 40.17 31.15 C 44.17 28.01 47.03 22.23 52.83 22.83 C 51.79 25.79 48.48 27.40 46.94 30.12 C 46.38 31.01 45.52 32.07 46.61 32.95 C 49.04 36.68 51.84 40.18 54.11 44.03 C 46.87 46.96 46.22 38.92 42.87 35.08 C 41.83 35.68 40.86 36.39 39.89 37.08 C 38.47 39.18 38.20 41.46 39.10 43.90 C 37.76 44.01 36.42 44.04 35.07 43.98 C 34.98 40.72 35.00 37.46 34.89 34.20 C 35.01 30.42 34.97 26.65 34.89 22.87 Z" />
</g>
<g id="#d3deeaff">
<path fill="#d3deea" opacity="1.00" d=" M 38.98 23.04 L 39.89 23.06 C 39.96 23.75 40.09 25.13 40.16 25.82 C 40.14 27.59 40.15 29.37 40.17 31.15 C 39.89 31.39 39.33 31.88 39.05 32.12 C 38.94 29.10 38.99 26.07 38.98 23.04 Z" />
</g>
<g id="#87a6c3ff">
<path fill="#87a6c3" opacity="1.00" d=" M 20.27 26.28 C 23.37 24.84 27.03 28.15 27.00 31.20 C 23.76 31.40 18.82 33.81 17.11 29.87 C 16.28 27.69 18.86 27.12 20.27 26.28 Z" />
</g>
<g id="#6588a8ff">
<path fill="#6588a8" opacity="1.00" d=" M 5.27 26.75 C 6.29 30.39 6.31 34.22 7.16 37.90 C 13.15 41.17 7.45 26.33 11.30 31.16 C 9.98 36.69 13.42 43.79 19.38 44.60 C 24.72 46.23 30.95 42.66 32.30 37.26 C 32.41 36.89 32.62 36.15 32.73 35.78 C 31.93 25.91 33.77 32.05 34.89 34.20 C 35.00 37.46 34.98 40.72 35.07 43.98 C 36.42 44.04 37.76 44.01 39.10 43.90 C 40.59 42.13 40.86 39.86 39.89 37.08 C 40.86 36.39 41.83 35.68 42.87 35.08 C 46.22 38.92 46.87 46.96 54.11 44.03 C 51.84 40.18 49.04 36.68 46.61 32.95 C 50.02 30.40 51.07 39.71 54.06 39.25 C 58.79 37.15 57.87 30.90 58.86 26.79 C 58.90 29.78 58.90 32.75 58.86 35.74 C 58.22 40.46 57.69 45.20 56.84 49.90 C 40.26 50.10 23.69 50.07 7.11 49.91 C 6.26 45.22 6.61 40.34 5.23 35.75 C 5.05 32.75 5.23 29.74 5.27 26.75 Z" />
</g>
<g id="#6d92b3ff">
<path fill="#6d92b3" opacity="1.00" d=" M 17.11 29.87 C 18.82 33.81 23.76 31.40 27.00 31.20 C 28.96 33.08 27.67 37.36 26.27 38.69 C 23.00 38.71 19.57 39.38 16.84 37.17 C 14.12 36.10 15.83 31.69 17.11 29.87 Z" />
</g>
<g id="#5e7f9dff">
<path fill="#5e7f9d" opacity="1.00" d=" M 5.23 35.75 C 6.61 40.34 6.26 45.22 7.11 49.91 C 23.69 50.07 40.26 50.10 56.84 49.90 C 57.69 45.20 58.22 40.46 58.86 35.74 C 58.72 43.67 61.76 56.63 50.91 58.91 C 38.31 58.99 25.69 59.26 13.10 58.87 C 4.72 57.50 4.69 48.61 4.96 42.00 C 5.02 39.91 5.12 37.83 5.23 35.75 Z" />
</g>
<g id="#465f7cfa">
<path fill="#465f7c" opacity="0.98" d=" M 58.86 35.74 L 59.93 36.04 C 60.03 41.44 60.09 46.82 60.28 52.22 C 60.22 52.64 60.11 53.48 60.06 53.91 C 58.03 56.61 55.69 59.42 52.24 60.26 C 38.75 59.96 25.24 59.72 11.75 60.23 C 8.30 59.43 5.97 56.62 3.96 53.91 C 3.90 53.49 3.80 52.64 3.75 52.22 C 3.97 48.82 3.97 45.41 4.01 42.00 L 4.96 42.00 C 4.69 48.61 4.72 57.50 13.10 58.87 C 25.69 59.26 38.31 58.99 50.91 58.91 C 61.76 56.63 58.72 43.67 58.86 35.74 Z" />
</g>
<g id="#416396ff">
<path fill="#416396" opacity="1.00" d=" M 16.84 37.17 C 19.57 39.38 23.00 38.71 26.27 38.69 C 24.29 42.31 17.21 41.88 16.84 37.17 Z" />
</g>
<g id="#ccd8e4ff">
<path fill="#ccd8e4" opacity="1.00" d=" M 39.10 43.90 C 38.20 41.46 38.47 39.18 39.89 37.08 C 40.86 39.86 40.59 42.13 39.10 43.90 Z" />
</g>
<g id="#01010127">
<path fill="#010101" opacity="0.15" d=" M 3.96 53.91 C 5.97 56.62 8.30 59.43 11.75 60.23 C 25.13 61.54 38.87 61.49 52.24 60.26 C 55.69 59.42 58.03 56.61 60.06 53.91 C 60.23 59.37 55.13 62.44 50.61 64.00 L 13.39 64.00 C 8.88 62.44 3.76 59.37 3.96 53.91 Z" />
</g>
<g id="#29384ccc">
<path fill="#29384c" opacity="0.80" d=" M 11.75 60.23 C 25.24 59.72 38.75 59.96 52.24 60.26 C 38.87 61.49 25.13 61.54 11.75 60.23 Z" />
</g>
</svg>
