<?xml version="1.0" encoding="UTF-8" ?>
<!DOCTYPE svg PUBLIC "-//W3C//DTD SVG 1.1//EN" "http://www.w3.org/Graphics/SVG/1.1/DTD/svg11.dtd">
<svg width="64pt" height="64pt" viewBox="0 0 64 64" version="1.1" xmlns="http://www.w3.org/2000/svg">
<g id="#8f4bb2ff">
<path fill="#8f4bb2" opacity="1.00" d=" M 12.50 3.63 C 24.30 2.94 36.18 3.53 48.00 3.33 C 54.48 2.81 60.76 8.38 60.68 14.93 C 60.72 26.32 60.66 37.70 60.62 49.09 C 60.77 55.20 55.17 60.76 49.07 60.64 C 37.71 60.67 26.34 60.68 14.98 60.64 C 8.86 60.80 3.23 55.21 3.38 49.08 C 3.34 37.69 3.27 26.29 3.32 14.90 C 3.28 9.61 7.43 4.81 12.50 3.63 M 6.75 13.31 L 5.99 13.57 C 5.79 17.51 6.06 21.47 6.69 25.35 C 7.41 28.06 10.16 29.29 12.69 29.73 C 12.98 30.03 13.55 30.63 13.84 30.92 C 13.61 36.09 13.85 41.27 13.69 46.45 C 15.93 46.44 18.18 46.44 20.43 46.45 C 20.29 41.50 20.45 36.55 20.25 31.61 C 21.87 31.95 23.49 32.30 25.11 32.66 C 25.09 37.30 25.06 41.93 25.14 46.57 C 30.26 46.41 35.41 46.78 40.52 46.33 C 45.59 45.80 49.94 41.90 51.22 37.01 C 52.59 31.38 52.01 25.19 48.72 20.32 L 49.91 20.14 C 52.05 22.67 52.60 26.05 53.52 29.12 C 55.32 28.25 57.16 26.88 57.42 24.74 C 57.93 21.06 58.33 17.33 57.96 13.61 L 57.41 13.40 C 56.36 11.29 55.32 8.97 53.20 7.73 C 50.81 6.02 47.75 6.17 44.97 6.07 C 35.30 6.12 25.63 6.04 15.97 6.20 C 11.65 6.06 7.94 9.29 6.75 13.31 Z" />
<path fill="#8f4bb2" opacity="1.00" d=" M 24.92 15.00 C 30.87 15.18 36.86 14.57 42.77 15.29 C 45.17 16.10 48.76 17.25 48.72 20.32 C 42.25 14.26 32.95 16.54 24.97 16.22 L 24.92 15.00 Z" />
<path fill="#8f4bb2" opacity="1.00" d=" M 31.51 32.24 C 36.18 32.68 40.89 32.53 45.45 31.41 C 45.10 34.03 45.06 37.03 42.95 38.95 C 39.98 42.06 35.35 40.78 31.55 41.00 C 31.57 38.08 31.59 35.16 31.51 32.24 Z" />
</g>
<g id="#ffffffff">
<path fill="#ffffff" opacity="1.00" d=" M 6.75 13.31 C 7.94 9.29 11.65 6.06 15.97 6.20 C 25.63 6.04 35.30 6.12 44.97 6.07 C 47.75 6.17 50.81 6.02 53.20 7.73 C 55.32 8.97 56.36 11.29 57.41 13.40 C 57.23 13.32 56.86 13.16 56.67 13.09 C 54.86 11.31 53.35 8.92 50.72 8.30 C 45.57 7.06 40.22 7.82 34.98 7.65 C 28.34 7.82 21.68 7.27 15.06 7.90 C 11.67 8.07 9.45 10.72 7.40 13.07 C 7.23 13.13 6.91 13.25 6.75 13.31 Z" />
<path fill="#ffffff" opacity="1.00" d=" M 24.97 16.22 C 32.95 16.54 42.25 14.26 48.72 20.32 C 52.01 25.19 52.59 31.38 51.22 37.01 C 49.94 41.90 45.59 45.80 40.52 46.33 C 35.41 46.78 30.26 46.41 25.14 46.57 C 25.06 41.93 25.09 37.30 25.11 32.66 C 25.14 27.18 25.22 21.70 24.97 16.22 M 31.56 21.66 C 31.39 25.19 31.34 28.72 31.51 32.24 C 31.59 35.16 31.57 38.08 31.55 41.00 C 35.35 40.78 39.98 42.06 42.95 38.95 C 45.06 37.03 45.10 34.03 45.45 31.41 C 45.12 28.80 44.92 25.92 42.94 23.94 C 40.07 20.76 35.35 21.84 31.56 21.66 Z" />
<path fill="#ffffff" opacity="1.00" d=" M 13.85 16.25 C 15.99 16.27 18.14 16.29 20.28 16.32 C 20.27 21.42 20.06 26.51 20.25 31.61 C 20.45 36.55 20.29 41.50 20.43 46.45 C 18.18 46.44 15.93 46.44 13.69 46.45 C 13.85 41.27 13.61 36.09 13.84 30.92 C 14.03 26.03 13.86 21.14 13.85 16.25 Z" />
</g>
<g id="#c38ae0ff">
<path fill="#c38ae0" opacity="1.00" d=" M 7.40 13.07 C 9.45 10.72 11.67 8.07 15.06 7.90 C 21.68 7.27 28.34 7.82 34.98 7.65 C 40.22 7.82 45.57 7.06 50.72 8.30 C 53.35 8.92 54.86 11.31 56.67 13.09 C 56.86 13.16 57.23 13.32 57.41 13.40 L 57.96 13.61 C 58.33 17.33 57.93 21.06 57.42 24.74 C 57.16 26.88 55.32 28.25 53.52 29.12 C 52.60 26.05 52.05 22.67 49.91 20.14 L 48.72 20.32 C 48.76 17.25 45.17 16.10 42.77 15.29 C 36.86 14.57 30.87 15.18 24.92 15.00 L 24.97 16.22 C 25.22 21.70 25.14 27.18 25.11 32.66 C 23.49 32.30 21.87 31.95 20.25 31.61 C 20.06 26.51 20.27 21.42 20.28 16.32 C 18.14 16.29 15.99 16.27 13.85 16.25 C 13.86 21.14 14.03 26.03 13.84 30.92 C 13.55 30.63 12.98 30.03 12.69 29.73 C 10.16 29.29 7.41 28.06 6.69 25.35 C 6.06 21.47 5.79 17.51 5.99 13.57 L 6.75 13.31 C 6.91 13.25 7.23 13.13 7.40 13.07 Z" />
<path fill="#c38ae0" opacity="1.00" d=" M 31.56 21.66 C 35.35 21.84 40.07 20.76 42.94 23.94 C 44.92 25.92 45.12 28.80 45.45 31.41 C 40.89 32.53 36.18 32.68 31.51 32.24 C 31.34 28.72 31.39 25.19 31.56 21.66 Z" />
</g>
</svg>
