<?xml version="1.0" encoding="UTF-8" ?>
<!DOCTYPE svg PUBLIC "-//W3C//DTD SVG 1.1//EN" "http://www.w3.org/Graphics/SVG/1.1/DTD/svg11.dtd">
<svg width="64pt" height="64pt" viewBox="0 0 64 64" version="1.1" xmlns="http://www.w3.org/2000/svg">
<g id="#ba1508ff">
<path fill="#ba1508" opacity="1.00" d=" M 12.42 3.60 C 24.23 2.88 36.13 3.49 47.98 3.28 C 54.51 2.73 60.80 8.35 60.73 14.94 C 60.77 26.30 60.72 37.66 60.67 49.01 C 60.86 55.20 55.21 60.88 49.02 60.69 C 37.69 60.73 26.35 60.73 15.01 60.69 C 8.80 60.89 3.13 55.20 3.33 48.99 C 3.28 37.66 3.23 26.32 3.27 14.98 C 3.23 9.68 7.30 4.80 12.42 3.60 M 7.01 13.37 L 6.11 12.84 C 5.93 16.25 6.28 19.66 6.44 23.06 C 6.21 26.70 9.74 29.46 13.12 29.76 C 13.19 34.52 12.61 39.67 15.03 43.98 C 17.73 48.18 23.63 48.36 27.93 46.99 C 32.53 45.28 33.13 39.78 33.19 35.56 C 31.13 35.56 29.06 35.56 27.00 35.56 C 26.77 37.66 26.94 39.91 25.91 41.82 C 24.62 44.17 20.61 43.60 20.01 40.98 C 19.16 37.84 19.27 34.56 19.11 31.34 C 24.66 32.99 30.48 32.24 36.17 32.43 C 36.12 37.36 36.17 42.28 36.13 47.21 C 41.75 47.22 47.37 47.21 52.99 47.21 C 52.99 45.54 52.99 43.87 52.99 42.21 C 49.40 42.20 45.82 42.21 42.23 42.19 C 42.22 38.69 42.27 35.19 42.13 31.69 C 46.42 31.35 50.78 30.52 54.58 28.41 C 56.02 27.37 57.52 25.87 57.49 23.96 C 57.74 20.50 57.85 17.04 58.07 13.57 L 57.17 13.41 C 56.03 9.41 52.34 6.20 48.10 6.24 C 37.74 6.06 27.38 6.17 17.02 6.18 C 12.56 5.86 7.86 8.84 7.01 13.37 Z" />
</g>
<g id="#ffffffff">
<path fill="#ffffff" opacity="1.00" d=" M 7.01 13.37 C 7.86 8.84 12.56 5.86 17.02 6.18 C 27.38 6.17 37.74 6.06 48.10 6.24 C 52.34 6.20 56.03 9.41 57.17 13.41 C 57.03 13.37 56.74 13.31 56.60 13.28 C 54.63 9.88 51.09 7.50 47.05 7.66 C 37.05 7.60 27.04 7.60 17.04 7.66 C 12.95 7.53 9.04 9.83 7.41 13.62 C 7.31 13.56 7.11 13.43 7.01 13.37 Z" />
<path fill="#ffffff" opacity="1.00" d=" M 16.97 18.15 C 20.50 15.78 25.53 15.68 29.20 17.80 C 32.33 19.72 32.59 23.68 32.97 26.95 C 30.99 26.99 29.00 27.06 27.02 27.09 C 26.75 25.45 26.49 23.80 25.96 22.21 C 24.78 20.18 21.35 20.18 20.35 22.38 C 19.10 25.18 19.11 28.33 19.11 31.34 C 19.27 34.56 19.16 37.84 20.01 40.98 C 20.61 43.60 24.62 44.17 25.91 41.82 C 26.94 39.91 26.77 37.66 27.00 35.56 C 29.06 35.56 31.13 35.56 33.19 35.56 C 33.13 39.78 32.53 45.28 27.93 46.99 C 23.63 48.36 17.73 48.18 15.03 43.98 C 12.61 39.67 13.19 34.52 13.12 29.76 C 13.37 25.72 13.57 20.93 16.97 18.15 Z" />
<path fill="#ffffff" opacity="1.00" d=" M 36.16 17.00 C 38.16 17.01 40.15 17.01 42.15 17.01 C 42.16 21.90 41.97 26.80 42.13 31.69 C 42.27 35.19 42.22 38.69 42.23 42.19 C 45.82 42.21 49.40 42.20 52.99 42.21 C 52.99 43.87 52.99 45.54 52.99 47.21 C 47.37 47.21 41.75 47.22 36.13 47.21 C 36.17 42.28 36.12 37.36 36.17 32.43 C 36.22 27.29 36.19 22.15 36.16 17.00 Z" />
</g>
<g id="#ed5346ff">
<path fill="#ed5346" opacity="1.00" d=" M 7.41 13.62 C 9.04 9.83 12.95 7.53 17.04 7.66 C 27.04 7.60 37.05 7.60 47.05 7.66 C 51.09 7.50 54.63 9.88 56.60 13.28 C 56.74 13.31 57.03 13.37 57.17 13.41 L 58.07 13.57 C 57.85 17.04 57.74 20.50 57.49 23.96 C 57.52 25.87 56.02 27.37 54.58 28.41 C 50.78 30.52 46.42 31.35 42.13 31.69 C 41.97 26.80 42.16 21.90 42.15 17.01 C 40.15 17.01 38.16 17.01 36.16 17.00 C 36.19 22.15 36.22 27.29 36.17 32.43 C 30.48 32.24 24.66 32.99 19.11 31.34 C 19.11 28.33 19.10 25.18 20.35 22.38 C 21.35 20.18 24.78 20.18 25.96 22.21 C 26.49 23.80 26.75 25.45 27.02 27.09 C 29.00 27.06 30.99 26.99 32.97 26.95 C 32.59 23.68 32.33 19.72 29.20 17.80 C 25.53 15.68 20.50 15.78 16.97 18.15 C 13.57 20.93 13.37 25.72 13.12 29.76 C 9.74 29.46 6.21 26.70 6.44 23.06 C 6.28 19.66 5.93 16.25 6.11 12.84 L 7.01 13.37 C 7.11 13.43 7.31 13.56 7.41 13.62 Z" />
</g>
</svg>
