<?xml version="1.0" encoding="UTF-8" ?>
<!DOCTYPE svg PUBLIC "-//W3C//DTD SVG 1.1//EN" "http://www.w3.org/Graphics/SVG/1.1/DTD/svg11.dtd">
<svg width="64pt" height="64pt" viewBox="0 0 64 64" version="1.1" xmlns="http://www.w3.org/2000/svg">
<g id="#7091afff">
<path fill="#7091af" opacity="1.00" d=" M 6.98 6.70 C 9.17 4.67 12.04 3.34 15.05 3.38 C 26.36 3.37 37.67 3.37 48.98 3.38 C 51.98 3.35 54.83 4.68 57.01 6.70 C 58.28 10.33 59.62 14.05 59.34 17.97 C 59.04 25.98 59.46 34.25 56.96 41.96 C 56.52 44.00 54.18 43.94 52.57 43.63 C 51.34 41.99 50.40 40.17 49.22 38.50 C 49.24 34.63 49.97 30.79 49.80 26.91 C 50.43 28.04 51.07 29.17 51.86 30.20 C 54.22 29.29 57.03 27.95 57.33 25.09 C 57.46 21.30 58.29 17.38 57.52 13.65 C 56.27 9.53 52.49 6.17 48.06 6.17 C 37.34 6.06 26.61 6.06 15.88 6.17 C 11.48 6.19 7.73 9.54 6.51 13.65 C 5.67 17.39 6.57 21.36 6.69 25.18 C 6.95 27.51 9.02 28.96 11.06 29.68 C 11.94 29.17 12.79 28.63 13.62 28.04 C 13.60 28.67 13.58 29.91 13.56 30.54 C 12.18 33.55 12.05 36.89 11.56 40.12 C 10.15 40.42 8.64 40.52 7.30 39.89 C 4.66 33.30 5.03 26.00 4.66 19.03 C 4.30 14.76 5.53 10.66 6.98 6.70 Z" />
</g>
<g id="#ffffffff">
<path fill="#ffffff" opacity="1.00" d=" M 6.51 13.65 C 7.73 9.54 11.48 6.19 15.88 6.17 C 26.61 6.06 37.34 6.06 48.06 6.17 C 52.49 6.17 56.27 9.53 57.52 13.65 C 55.53 11.92 53.98 9.54 51.46 8.52 C 47.45 7.11 43.12 7.84 38.96 7.67 C 30.98 7.81 22.97 7.39 15.00 7.88 C 11.22 8.09 9.05 11.34 6.51 13.65 Z" />
<path fill="#ffffff" opacity="1.00" d=" M 13.62 23.07 C 15.07 22.97 16.52 22.99 17.96 23.02 C 18.05 25.90 17.97 28.77 18.00 31.64 C 18.31 34.57 17.37 37.87 18.41 40.58 C 19.30 42.14 21.67 42.28 22.63 40.71 C 23.75 38.01 22.81 34.65 23.10 31.71 C 23.18 28.81 23.08 25.92 23.08 23.02 C 24.56 22.99 26.03 22.97 27.51 23.06 C 27.52 25.47 27.32 27.88 27.53 30.29 C 26.97 34.73 29.15 40.74 24.80 43.82 C 21.26 45.50 15.42 45.34 13.97 40.97 C 13.22 37.56 13.78 34.01 13.56 30.54 C 13.58 29.91 13.60 28.67 13.62 28.04 C 13.70 26.38 13.61 24.73 13.62 23.07 Z" />
<path fill="#ffffff" opacity="1.00" d=" M 29.91 23.04 C 33.21 23.01 36.52 22.90 39.81 23.10 C 41.69 23.88 42.83 25.57 43.55 27.41 C 44.31 30.69 42.84 34.19 39.63 35.48 C 37.86 35.75 36.07 35.73 34.28 35.80 C 34.22 38.67 34.29 41.54 34.33 44.41 C 32.84 44.47 31.35 44.46 29.87 44.39 C 29.88 42.33 29.92 40.27 29.88 38.21 C 30.11 33.16 29.96 28.10 29.91 23.04 M 34.28 25.92 C 34.43 28.16 33.74 30.51 34.25 32.67 C 36.58 33.84 40.05 31.87 39.24 29.03 C 39.52 26.19 36.48 25.50 34.28 25.92 Z" />
<path fill="#ffffff" opacity="1.00" d=" M 45.54 27.05 C 45.63 25.71 45.60 24.36 45.70 23.02 C 47.07 22.99 48.43 22.99 49.80 23.03 C 49.80 24.32 49.80 25.61 49.80 26.91 C 49.97 30.79 49.24 34.63 49.22 38.50 C 48.44 38.50 46.88 38.50 46.10 38.49 C 46.13 34.67 45.41 30.88 45.54 27.05 Z" />
</g>
<g id="#63809bff">
<path fill="#63809b" opacity="1.00" d=" M 3.65 12.45 C 3.99 10.22 5.37 8.24 6.98 6.70 C 5.53 10.66 4.30 14.76 4.66 19.03 C 5.03 26.00 4.66 33.30 7.30 39.89 C 8.64 40.52 10.15 40.42 11.56 40.12 C 12.05 36.89 12.18 33.55 13.56 30.54 C 13.78 34.01 13.22 37.56 13.97 40.97 C 15.42 45.34 21.26 45.50 24.80 43.82 C 29.15 40.74 26.97 34.73 27.53 30.29 C 29.54 32.46 29.77 35.41 29.88 38.21 C 29.92 40.27 29.88 42.33 29.87 44.39 C 31.35 44.46 32.84 44.47 34.33 44.41 C 34.29 41.54 34.22 38.67 34.28 35.80 C 36.07 35.73 37.86 35.75 39.63 35.48 C 38.85 36.63 37.48 37.01 36.34 37.67 C 35.38 39.21 36.07 41.20 36.28 42.88 C 38.37 43.37 40.65 43.66 42.74 42.99 C 44.01 41.61 45.02 40.02 46.10 38.49 C 46.88 38.50 48.44 38.50 49.22 38.50 C 50.40 40.17 51.34 41.99 52.57 43.63 C 54.18 43.94 56.52 44.00 56.96 41.96 C 59.46 34.25 59.04 25.98 59.34 17.97 C 59.62 14.05 58.28 10.33 57.01 6.70 C 59.94 9.22 61.00 13.22 60.71 16.98 C 60.50 28.71 61.05 40.48 60.33 52.17 L 59.81 52.67 C 57.13 55.61 54.57 59.66 50.07 59.60 C 38.39 59.76 26.70 59.66 15.01 59.65 C 11.41 59.85 7.86 57.71 6.04 54.66 C 3.50 50.56 4.62 45.55 4.27 41.01 C 3.89 31.49 4.32 21.95 3.65 12.45 M 45.63 40.68 C 45.61 41.62 45.57 43.50 45.55 44.44 C 47.00 44.48 48.44 44.46 49.89 44.37 C 49.88 43.47 49.88 41.66 49.87 40.76 C 48.46 40.60 47.05 40.58 45.63 40.68 Z" />
</g>
<g id="#a3bfd7ff">
<path fill="#a3bfd7" opacity="1.00" d=" M 6.51 13.65 C 9.05 11.34 11.22 8.09 15.00 7.88 C 22.97 7.39 30.98 7.81 38.96 7.67 C 43.12 7.84 47.45 7.11 51.46 8.52 C 53.98 9.54 55.53 11.92 57.52 13.65 C 58.29 17.38 57.46 21.30 57.33 25.09 C 54.31 24.10 51.52 22.60 48.81 20.96 C 46.73 19.80 45.07 22.01 43.40 22.90 C 40.65 21.98 38.02 20.29 34.99 20.73 C 31.02 21.11 27.05 21.12 23.07 20.97 C 22.09 22.45 21.40 24.09 20.60 25.66 C 19.70 24.06 18.98 22.33 17.80 20.90 C 13.61 20.06 10.43 23.91 6.69 25.18 C 6.57 21.36 5.67 17.39 6.51 13.65 Z" />
</g>
<g id="#3f5164e3">
<path fill="#3f5164" opacity="0.89" d=" M 3.09 17.04 C 3.14 15.50 3.00 13.89 3.65 12.45 C 4.32 21.95 3.89 31.49 4.27 41.01 C 4.62 45.55 3.50 50.56 6.04 54.66 C 7.86 57.71 11.41 59.85 15.01 59.65 C 26.70 59.66 38.39 59.76 50.07 59.60 C 54.57 59.66 57.13 55.61 59.81 52.67 C 59.27 57.23 54.32 60.39 49.97 60.81 C 38.28 60.94 26.59 60.83 14.90 60.86 C 8.65 60.88 3.15 55.35 3.16 49.11 C 3.14 38.42 3.09 27.73 3.09 17.04 Z" />
</g>
<g id="#8ca9c5ff">
<path fill="#8ca9c5" opacity="1.00" d=" M 6.69 25.18 C 10.43 23.91 13.61 20.06 17.80 20.90 C 18.98 22.33 19.70 24.06 20.60 25.66 C 21.40 24.09 22.09 22.45 23.07 20.97 C 27.05 21.12 31.02 21.11 34.99 20.73 C 38.02 20.29 40.65 21.98 43.40 22.90 C 45.07 22.01 46.73 19.80 48.81 20.96 C 51.52 22.60 54.31 24.10 57.33 25.09 C 57.03 27.95 54.22 29.29 51.86 30.20 C 51.07 29.17 50.43 28.04 49.80 26.91 C 49.80 25.61 49.80 24.32 49.80 23.03 C 48.43 22.99 47.07 22.99 45.70 23.02 C 45.60 24.36 45.63 25.71 45.54 27.05 L 43.55 27.41 C 42.83 25.57 41.69 23.88 39.81 23.10 C 36.52 22.90 33.21 23.01 29.91 23.04 C 29.96 28.10 30.11 33.16 29.88 38.21 C 29.77 35.41 29.54 32.46 27.53 30.29 C 27.32 27.88 27.52 25.47 27.51 23.06 C 26.03 22.97 24.56 22.99 23.08 23.02 C 23.08 25.92 23.18 28.81 23.10 31.71 C 21.40 31.68 19.70 31.66 18.00 31.64 C 17.97 28.77 18.05 25.90 17.96 23.02 C 16.52 22.99 15.07 22.97 13.62 23.07 C 13.61 24.73 13.70 26.38 13.62 28.04 C 12.79 28.63 11.94 29.17 11.06 29.68 C 9.02 28.96 6.95 27.51 6.69 25.18 Z" />
</g>
<g id="#89a7c2ff">
<path fill="#89a7c2" opacity="1.00" d=" M 34.28 25.92 C 36.48 25.50 39.52 26.19 39.24 29.03 C 40.05 31.87 36.58 33.84 34.25 32.67 C 33.74 30.51 34.43 28.16 34.28 25.92 M 35.18 31.30 L 35.19 31.88 C 35.67 31.96 36.63 32.12 37.11 32.20 C 39.64 31.40 36.01 30.12 35.18 31.30 Z" />
</g>
<g id="#6d8daaff">
<path fill="#6d8daa" opacity="1.00" d=" M 43.55 27.41 L 45.54 27.05 C 45.41 30.88 46.13 34.67 46.10 38.49 C 45.02 40.02 44.01 41.61 42.74 42.99 C 40.65 43.66 38.37 43.37 36.28 42.88 C 36.07 41.20 35.38 39.21 36.34 37.67 C 37.48 37.01 38.85 36.63 39.63 35.48 C 42.84 34.19 44.31 30.69 43.55 27.41 Z" />
</g>
<g id="#3f6d97ff">
<path fill="#3f6d97" opacity="1.00" d=" M 35.18 31.30 C 36.01 30.12 39.64 31.40 37.11 32.20 C 36.63 32.12 35.67 31.96 35.19 31.88 L 35.18 31.30 Z" />
</g>
<g id="#6e8fadff">
<path fill="#6e8fad" opacity="1.00" d=" M 18.00 31.64 C 19.70 31.66 21.40 31.68 23.10 31.71 C 22.81 34.65 23.75 38.01 22.63 40.71 C 21.66 39.40 19.47 39.39 18.41 40.58 C 17.37 37.87 18.31 34.57 18.00 31.64 Z" />
</g>
<g id="#537a9eff">
<path fill="#537a9e" opacity="1.00" d=" M 18.41 40.58 C 19.47 39.39 21.66 39.40 22.63 40.71 C 21.67 42.28 19.30 42.14 18.41 40.58 Z" />
</g>
<g id="#f9fafcff">
<path fill="#f9fafc" opacity="1.00" d=" M 45.63 40.68 C 47.05 40.58 48.46 40.60 49.87 40.76 C 49.88 41.66 49.88 43.47 49.89 44.37 C 48.44 44.46 47.00 44.48 45.55 44.44 C 45.57 43.50 45.61 41.62 45.63 40.68 Z" />
</g>
</svg>
