<?xml version="1.0" encoding="UTF-8" ?>
<!DOCTYPE svg PUBLIC "-//W3C//DTD SVG 1.1//EN" "http://www.w3.org/Graphics/SVG/1.1/DTD/svg11.dtd">
<svg width="64pt" height="64pt" viewBox="0 0 64 64" version="1.1" xmlns="http://www.w3.org/2000/svg">
<g id="#597899f8">
<path fill="#597899" opacity="0.97" d=" M 7.05 6.65 C 9.16 4.57 12.02 3.25 15.01 3.35 C 26.33 3.32 37.64 3.32 48.96 3.35 C 51.85 3.25 54.62 4.47 56.73 6.40 C 54.76 6.40 52.80 6.42 50.83 6.29 C 43.30 5.14 35.62 6.02 28.03 5.75 C 22.80 5.97 17.44 5.10 12.34 6.59 C 10.58 6.71 8.81 6.68 7.05 6.65 Z" />
</g>
<g id="#6e93b6ff">
<path fill="#6e93b6" opacity="1.00" d=" M 7.05 6.65 C 8.81 6.68 10.58 6.71 12.34 6.59 C 10.27 7.86 8.43 9.48 7.14 11.56 C 5.22 15.95 6.37 21.17 7.30 25.72 C 8.26 25.66 9.21 25.61 10.17 25.55 C 11.01 23.92 11.90 22.31 12.82 20.72 C 14.37 20.90 16.22 20.41 17.47 21.61 C 20.14 23.90 23.25 25.58 25.92 27.86 C 25.66 30.95 26.18 34.02 26.19 37.11 C 22.59 32.62 20.20 27.31 16.97 22.56 C 15.41 22.55 13.84 22.54 12.27 22.55 C 12.31 27.03 12.44 31.51 12.42 35.99 C 11.54 37.01 10.65 38.02 9.76 39.03 C 9.22 38.92 8.15 38.70 7.62 38.59 C 6.54 36.27 5.44 33.95 4.45 31.59 C 4.44 26.03 4.26 20.47 4.32 14.91 C 4.14 11.89 6.10 9.40 7.04 6.66 L 7.05 6.65 Z" />
</g>
<g id="#e0e9f1ff">
<path fill="#e0e9f1" opacity="1.00" d=" M 12.34 6.59 C 17.44 5.10 22.80 5.97 28.03 5.75 C 35.62 6.02 43.30 5.14 50.83 6.29 C 53.39 7.37 55.53 9.21 57.00 11.57 C 55.12 11.89 53.90 10.32 52.47 9.45 C 50.35 7.81 47.50 8.23 45.00 8.11 C 35.00 8.23 24.98 7.95 14.98 8.24 C 12.16 8.23 10.30 10.56 8.12 11.97 L 7.14 11.56 C 8.43 9.48 10.27 7.86 12.34 6.59 Z" />
</g>
<g id="#6284a3ff">
<path fill="#6284a3" opacity="1.00" d=" M 50.83 6.29 C 52.80 6.42 54.76 6.40 56.73 6.40 C 58.20 7.83 59.48 9.50 60.13 11.47 C 59.60 23.98 59.75 36.51 59.42 49.02 C 59.33 54.50 54.55 59.47 49.03 59.49 C 37.67 59.52 26.31 59.52 14.95 59.49 C 9.44 59.47 4.66 54.49 4.58 49.02 C 4.45 43.21 4.32 37.40 4.45 31.59 C 5.44 33.95 6.54 36.27 7.62 38.59 C 8.15 38.70 9.22 38.92 9.76 39.03 C 10.65 38.02 11.54 37.01 12.42 35.99 C 12.39 38.81 12.37 41.62 12.35 44.44 C 13.82 44.43 15.30 44.42 16.77 44.40 C 16.65 39.54 16.69 34.68 16.76 29.82 C 19.93 34.60 22.75 39.60 25.87 44.42 C 27.38 44.42 28.89 44.42 30.40 44.42 C 30.21 37.07 32.68 29.67 31.11 22.40 C 29.08 22.12 27.06 21.78 25.04 21.40 C 26.98 21.04 29.16 20.74 30.95 21.77 C 31.48 22.79 31.97 23.84 32.41 24.91 C 35.06 24.72 36.70 22.30 39.11 21.47 C 41.77 20.60 44.62 20.77 47.37 21.00 C 46.92 21.31 46.01 21.92 45.56 22.22 C 42.61 21.93 39.46 22.19 37.03 24.06 C 31.48 28.19 31.19 37.23 36.04 42.00 C 39.60 45.39 45.97 45.85 49.33 41.95 C 49.16 44.38 50.75 44.74 52.77 44.45 C 52.61 40.49 52.80 36.52 52.67 32.57 C 52.38 32.12 51.78 31.22 51.48 30.77 C 53.91 29.74 56.98 28.54 57.46 25.59 C 57.09 20.93 59.57 15.86 57.00 11.57 C 55.53 9.21 53.39 7.37 50.83 6.29 Z" />
</g>
<g id="#3b506be1">
<path fill="#3b506b" opacity="0.88" d=" M 3.14 23.00 C 3.25 17.46 1.99 10.53 7.04 6.66 C 6.10 9.40 4.14 11.89 4.32 14.91 C 4.26 20.47 4.44 26.03 4.45 31.59 C 4.32 37.40 4.45 43.21 4.58 49.02 C 4.66 54.49 9.44 59.47 14.95 59.49 C 26.31 59.52 37.67 59.52 49.03 59.49 C 54.55 59.47 59.33 54.50 59.42 49.02 C 59.75 36.51 59.60 23.98 60.13 11.47 C 61.58 15.83 60.59 20.54 60.86 25.05 C 60.59 34.26 61.36 43.54 60.36 52.71 C 58.45 57.20 54.12 60.83 49.07 60.78 C 37.70 60.82 26.33 60.82 14.96 60.79 C 9.93 60.84 5.61 57.25 3.66 52.79 C 2.59 42.92 3.44 32.92 3.14 23.00 Z" />
</g>
<g id="#a0bbd6ff">
<path fill="#a0bbd6" opacity="1.00" d=" M 8.12 11.97 C 10.30 10.56 12.16 8.23 14.98 8.24 C 24.98 7.95 35.00 8.23 45.00 8.11 C 47.50 8.23 50.35 7.81 52.47 9.45 C 53.90 10.32 55.12 11.89 57.00 11.57 C 59.57 15.86 57.09 20.93 57.46 25.59 C 54.03 24.20 50.89 22.15 47.37 21.00 C 44.62 20.77 41.77 20.60 39.11 21.47 C 36.70 22.30 35.06 24.72 32.41 24.91 C 31.97 23.84 31.48 22.79 30.95 21.77 C 29.16 20.74 26.98 21.04 25.04 21.40 C 27.06 21.78 29.08 22.12 31.11 22.40 C 32.68 29.67 30.21 37.07 30.40 44.42 C 29.79 37.19 30.11 29.94 30.15 22.69 C 28.84 22.77 27.53 22.85 26.22 22.93 C 26.13 24.57 26.01 26.21 25.92 27.86 C 23.25 25.58 20.14 23.90 17.47 21.61 C 16.22 20.41 14.37 20.90 12.82 20.72 C 11.90 22.31 11.01 23.92 10.17 25.55 C 9.21 25.61 8.26 25.66 7.30 25.72 C 6.37 21.17 5.22 15.95 7.14 11.56 L 8.12 11.97 Z" />
</g>
<g id="#82a3c2ff">
<path fill="#82a3c2" opacity="1.00" d=" M 47.37 21.00 C 50.89 22.15 54.03 24.20 57.46 25.59 C 56.98 28.54 53.91 29.74 51.48 30.77 C 48.93 30.95 46.35 30.86 43.83 31.34 C 41.64 31.84 39.49 32.47 37.32 33.02 C 37.42 29.84 39.38 26.03 43.04 26.20 C 45.64 25.74 47.16 28.00 48.64 29.70 C 49.67 29.63 51.74 29.50 52.78 29.43 C 51.75 25.92 49.04 23.27 45.56 22.22 C 46.01 21.92 46.92 21.31 47.37 21.00 Z" />
</g>
<g id="#ffffffff">
<path fill="#ffffff" opacity="1.00" d=" M 37.03 24.06 C 39.46 22.19 42.61 21.93 45.56 22.22 C 49.04 23.27 51.75 25.92 52.78 29.43 C 51.74 29.50 49.67 29.63 48.64 29.70 C 47.16 28.00 45.64 25.74 43.04 26.20 C 39.38 26.03 37.42 29.84 37.32 33.02 C 37.39 34.72 37.59 36.44 38.27 38.03 C 40.22 41.42 45.62 42.00 47.97 38.72 C 48.22 38.15 48.72 37.01 48.97 36.44 C 47.20 35.96 45.37 35.85 43.55 35.80 C 43.61 34.71 43.67 33.62 43.73 32.53 C 46.71 32.51 49.69 32.50 52.67 32.57 C 52.80 36.52 52.61 40.49 52.77 44.45 C 50.75 44.74 49.16 44.38 49.33 41.95 C 45.97 45.85 39.60 45.39 36.04 42.00 C 31.19 37.23 31.48 28.19 37.03 24.06 Z" />
<path fill="#ffffff" opacity="1.00" d=" M 12.27 22.55 C 13.84 22.54 15.41 22.55 16.97 22.56 C 20.20 27.31 22.59 32.62 26.19 37.11 C 26.18 34.02 25.66 30.95 25.92 27.86 C 26.01 26.21 26.13 24.57 26.22 22.93 C 27.53 22.85 28.84 22.77 30.15 22.69 C 30.11 29.94 29.79 37.19 30.40 44.42 C 28.89 44.42 27.38 44.42 25.87 44.42 C 22.75 39.60 19.93 34.60 16.76 29.82 C 16.69 34.68 16.65 39.54 16.77 44.40 C 15.30 44.42 13.82 44.43 12.35 44.44 C 12.37 41.62 12.39 38.81 12.42 35.99 C 12.44 31.51 12.31 27.03 12.27 22.55 Z" />
</g>
<g id="#6a8fb1ff">
<path fill="#6a8fb1" opacity="1.00" d=" M 37.32 33.02 C 39.49 32.47 41.64 31.84 43.83 31.34 L 43.73 32.53 C 43.67 33.62 43.61 34.71 43.55 35.80 C 45.37 35.85 47.20 35.96 48.97 36.44 C 48.72 37.01 48.22 38.15 47.97 38.72 C 44.73 38.59 41.49 38.37 38.27 38.03 C 37.59 36.44 37.39 34.72 37.32 33.02 Z" />
</g>
<g id="#366c9eff">
<path fill="#366c9e" opacity="1.00" d=" M 43.83 31.34 C 46.35 30.86 48.93 30.95 51.48 30.77 C 51.78 31.22 52.38 32.12 52.67 32.57 C 49.69 32.50 46.71 32.51 43.73 32.53 L 43.83 31.34 Z" />
</g>
<g id="#47749eff">
<path fill="#47749e" opacity="1.00" d=" M 38.27 38.03 C 41.49 38.37 44.73 38.59 47.97 38.72 C 45.62 42.00 40.22 41.42 38.27 38.03 Z" />
</g>
<g id="#00000026">
<path fill="#000000" opacity="0.15" d=" M 3.66 52.79 C 5.61 57.25 9.93 60.84 14.96 60.79 C 26.33 60.82 37.70 60.82 49.07 60.78 C 54.12 60.83 58.45 57.20 60.36 52.71 C 60.46 58.45 55.72 62.51 50.60 64.00 L 13.36 64.00 C 8.27 62.51 3.59 58.49 3.66 52.79 Z" />
</g>
</svg>
