<?xml version="1.0" encoding="UTF-8" ?>
<!DOCTYPE svg PUBLIC "-//W3C//DTD SVG 1.1//EN" "http://www.w3.org/Graphics/SVG/1.1/DTD/svg11.dtd">
<svg width="64pt" height="64pt" viewBox="0 0 64 64" version="1.1" xmlns="http://www.w3.org/2000/svg">
<g id="#66839eff">
<path fill="#66839e" opacity="1.00" d=" M 13.40 3.48 C 25.27 3.16 37.17 3.40 49.05 3.36 C 55.15 3.31 60.74 8.79 60.68 14.93 C 60.72 26.28 60.65 37.63 60.63 48.98 C 60.80 55.11 55.22 60.78 49.08 60.64 C 37.70 60.68 26.32 60.67 14.94 60.64 C 8.81 60.79 3.24 55.16 3.37 49.05 C 3.35 37.69 3.28 26.32 3.32 14.95 C 3.26 9.34 7.91 4.24 13.40 3.48 M 7.04 11.79 L 6.77 11.92 C 4.94 14.89 5.70 18.53 5.92 21.81 C 9.25 21.79 12.58 21.82 15.91 22.02 L 15.93 23.26 C 12.72 23.22 9.51 23.22 6.29 23.27 C 6.34 29.19 6.42 35.10 6.30 41.02 C 7.03 41.04 8.50 41.07 9.24 41.08 C 9.21 38.58 9.21 36.08 9.21 33.57 C 11.26 33.56 13.30 33.55 15.35 33.52 L 15.40 33.73 C 15.41 33.10 15.43 31.85 15.44 31.23 C 16.70 31.33 17.96 31.43 19.21 31.53 C 19.18 34.70 19.15 37.88 19.13 41.06 C 19.88 41.06 21.36 41.06 22.10 41.06 C 22.09 38.52 22.11 35.98 22.18 33.45 C 25.83 34.10 26.41 38.37 28.18 41.01 C 29.08 41.03 30.88 41.07 31.78 41.09 C 30.39 38.44 29.02 35.76 27.16 33.39 C 27.67 33.15 28.68 32.67 29.18 32.43 C 30.94 32.45 32.69 32.45 34.44 32.46 C 34.36 35.32 34.31 38.19 34.30 41.06 C 37.95 41.06 41.61 41.06 45.26 41.06 C 45.20 40.36 45.06 38.98 45.00 38.28 C 42.33 38.26 39.67 38.22 37.00 38.19 C 37.00 37.61 37.00 36.47 37.00 35.90 C 37.60 35.19 38.20 34.49 38.80 33.79 C 40.51 33.78 42.22 33.77 43.93 33.73 C 45.24 32.42 46.75 31.36 48.41 30.53 C 48.33 34.04 48.36 37.54 48.30 41.05 C 51.87 41.08 55.44 41.07 59.00 40.99 C 58.99 40.31 58.97 38.95 58.96 38.27 C 56.29 38.26 53.63 38.23 50.97 38.19 C 51.08 36.58 51.20 34.98 51.32 33.37 C 53.69 33.39 56.07 33.39 58.45 33.38 C 58.33 32.64 58.11 31.15 58.00 30.41 C 55.69 30.46 53.39 30.47 51.09 30.38 C 51.18 29.41 51.37 27.46 51.46 26.48 C 53.93 26.53 56.40 26.50 58.87 26.39 C 58.82 25.36 58.77 24.34 58.71 23.31 C 55.29 23.21 51.87 23.21 48.45 23.26 L 48.43 21.86 C 51.60 21.89 54.78 21.81 57.96 21.84 C 58.45 18.55 58.92 14.93 57.28 11.87 L 56.95 11.73 C 54.84 7.75 50.49 5.79 46.12 5.91 C 36.43 5.83 26.72 5.74 17.03 5.95 C 12.90 5.94 8.99 8.10 7.04 11.79 Z" />
<path fill="#66839e" opacity="1.00" d=" M 19.26 22.02 C 21.93 21.79 24.61 21.75 27.28 21.86 C 27.63 22.31 28.34 23.22 28.69 23.68 C 25.56 23.22 22.39 23.12 19.22 23.24 L 19.26 22.02 Z" />
<path fill="#66839e" opacity="1.00" d=" M 34.42 21.89 C 37.85 21.80 41.30 21.74 44.73 22.06 L 44.76 23.26 C 41.32 23.23 37.89 23.23 34.45 23.25 L 34.42 21.89 Z" />
<path fill="#66839e" opacity="1.00" d=" M 9.03 29.62 C 10.70 29.18 13.56 28.37 14.54 30.29 C 12.71 30.65 10.79 30.71 9.03 30.04 L 9.03 29.62 Z" />
<path fill="#66839e" opacity="1.00" d=" M 22.07 28.42 C 24.05 28.55 26.02 28.81 27.94 29.31 C 26.73 31.56 24.12 30.92 22.06 31.03 C 22.07 30.38 22.07 29.07 22.07 28.42 Z" />
<path fill="#66839e" opacity="1.00" d=" M 37.85 30.12 C 39.42 29.00 42.70 27.93 43.71 30.13 C 41.77 30.53 39.79 30.37 37.85 30.12 Z" />
</g>
<g id="#fefeffff">
<path fill="#fefeff" opacity="1.00" d=" M 7.04 11.79 C 8.99 8.10 12.90 5.94 17.03 5.95 C 26.72 5.74 36.43 5.83 46.12 5.91 C 50.49 5.79 54.84 7.75 56.95 11.73 C 53.86 10.63 51.54 7.70 48.05 7.76 C 40.37 7.43 32.68 7.75 25.01 7.63 C 21.10 7.71 17.10 7.24 13.28 8.26 C 11.10 9.24 9.28 10.89 7.04 11.79 Z" />
<path fill="#fefeff" opacity="1.00" d=" M 6.29 23.27 C 9.51 23.22 12.72 23.22 15.93 23.26 C 15.94 23.96 15.96 25.35 15.97 26.05 C 13.65 26.11 11.34 26.17 9.02 26.24 C 9.02 27.09 9.02 28.78 9.03 29.62 L 9.03 30.04 C 10.79 30.71 12.71 30.65 14.54 30.29 C 14.82 31.36 15.09 32.44 15.35 33.52 C 13.30 33.55 11.26 33.56 9.21 33.57 C 9.21 36.08 9.21 38.58 9.24 41.08 C 8.50 41.07 7.03 41.04 6.30 41.02 C 6.42 35.10 6.34 29.19 6.29 23.27 Z" />
<path fill="#fefeff" opacity="1.00" d=" M 19.22 23.24 C 22.39 23.12 25.56 23.22 28.69 23.68 C 30.71 26.25 31.05 29.68 29.18 32.43 C 28.68 32.67 27.67 33.15 27.16 33.39 C 29.02 35.76 30.39 38.44 31.78 41.09 C 30.88 41.07 29.08 41.03 28.18 41.01 C 26.41 38.37 25.83 34.10 22.18 33.45 C 22.11 35.98 22.09 38.52 22.10 41.06 C 21.36 41.06 19.88 41.06 19.13 41.06 C 19.15 37.88 19.18 34.70 19.21 31.53 C 19.24 28.77 19.19 26.01 19.22 23.24 M 21.87 26.15 C 21.92 26.71 22.02 27.85 22.07 28.42 C 22.07 29.07 22.07 30.38 22.06 31.03 C 24.12 30.92 26.73 31.56 27.94 29.31 L 28.34 29.40 C 28.16 25.84 24.53 25.87 21.87 26.15 Z" />
<path fill="#fefeff" opacity="1.00" d=" M 34.44 32.46 C 34.51 29.39 34.51 26.32 34.45 23.25 C 37.89 23.23 41.32 23.23 44.76 23.26 C 44.77 23.96 44.77 25.35 44.77 26.05 C 42.19 26.12 39.61 26.15 37.04 26.23 C 37.01 27.59 36.99 28.95 36.98 30.31 L 37.85 30.12 C 39.79 30.37 41.77 30.53 43.71 30.13 C 43.81 30.86 44.00 32.33 44.10 33.06 C 41.73 33.07 39.35 33.07 36.98 33.07 C 36.99 33.78 36.99 35.19 37.00 35.90 C 37.00 36.47 37.00 37.61 37.00 38.19 C 39.67 38.22 42.33 38.26 45.00 38.28 C 45.06 38.98 45.20 40.36 45.26 41.06 C 41.61 41.06 37.95 41.06 34.30 41.06 C 34.31 38.19 34.36 35.32 34.44 32.46 Z" />
<path fill="#fefeff" opacity="1.00" d=" M 48.41 30.53 C 48.46 28.11 48.50 25.68 48.45 23.26 C 51.87 23.21 55.29 23.21 58.71 23.31 C 58.77 24.34 58.82 25.36 58.87 26.39 C 56.40 26.50 53.93 26.53 51.46 26.48 C 51.37 27.46 51.18 29.41 51.09 30.38 C 53.39 30.47 55.69 30.46 58.00 30.41 C 58.11 31.15 58.33 32.64 58.45 33.38 C 56.07 33.39 53.69 33.39 51.32 33.37 C 51.20 34.98 51.08 36.58 50.97 38.19 C 53.63 38.23 56.29 38.26 58.96 38.27 C 58.97 38.95 58.99 40.31 59.00 40.99 C 55.44 41.07 51.87 41.08 48.30 41.05 C 48.36 37.54 48.33 34.04 48.41 30.53 Z" />
</g>
<g id="#a2bed6ff">
<path fill="#a2bed6" opacity="1.00" d=" M 13.28 8.26 C 17.10 7.24 21.10 7.71 25.01 7.63 C 32.68 7.75 40.37 7.43 48.05 7.76 C 51.54 7.70 53.86 10.63 56.95 11.73 L 57.28 11.87 C 58.92 14.93 58.45 18.55 57.96 21.84 C 54.78 21.81 51.60 21.89 48.43 21.86 L 48.45 23.26 C 48.50 25.68 48.46 28.11 48.41 30.53 C 46.75 31.36 45.24 32.42 43.93 33.73 C 42.22 33.77 40.51 33.78 38.80 33.79 C 38.20 34.49 37.60 35.19 37.00 35.90 C 36.99 35.19 36.99 33.78 36.98 33.07 C 39.35 33.07 41.73 33.07 44.10 33.06 C 44.00 32.33 43.81 30.86 43.71 30.13 C 42.70 27.93 39.42 29.00 37.85 30.12 L 36.98 30.31 C 36.99 28.95 37.01 27.59 37.04 26.23 C 39.61 26.15 42.19 26.12 44.77 26.05 C 44.77 25.35 44.77 23.96 44.76 23.26 L 44.73 22.06 C 41.30 21.74 37.85 21.80 34.42 21.89 L 34.45 23.25 C 34.51 26.32 34.51 29.39 34.44 32.46 C 32.69 32.45 30.94 32.45 29.18 32.43 C 31.05 29.68 30.71 26.25 28.69 23.68 C 28.34 23.22 27.63 22.31 27.28 21.86 C 24.61 21.75 21.93 21.79 19.26 22.02 L 19.22 23.24 C 19.19 26.01 19.24 28.77 19.21 31.53 C 17.96 31.43 16.70 31.33 15.44 31.23 C 15.43 31.85 15.41 33.10 15.40 33.73 L 15.35 33.52 C 15.09 32.44 14.82 31.36 14.54 30.29 C 13.56 28.37 10.70 29.18 9.03 29.62 C 9.02 28.78 9.02 27.09 9.02 26.24 C 11.34 26.17 13.65 26.11 15.97 26.05 C 15.96 25.35 15.94 23.96 15.93 23.26 L 15.91 22.02 C 12.58 21.82 9.25 21.79 5.92 21.81 C 5.70 18.53 4.94 14.89 6.77 11.92 L 7.04 11.79 C 9.28 10.89 11.10 9.24 13.28 8.26 Z" />
<path fill="#a2bed6" opacity="1.00" d=" M 21.87 26.15 C 24.53 25.87 28.16 25.84 28.34 29.40 L 27.94 29.31 C 26.02 28.81 24.05 28.55 22.07 28.42 C 22.02 27.85 21.92 26.71 21.87 26.15 Z" />
</g>
</svg>
