<?xml version="1.0" encoding="UTF-8" ?>
<!DOCTYPE svg PUBLIC "-//W3C//DTD SVG 1.1//EN" "http://www.w3.org/Graphics/SVG/1.1/DTD/svg11.dtd">
<svg width="64pt" height="64pt" viewBox="0 0 64 64" version="1.1" xmlns="http://www.w3.org/2000/svg">
<g id="#fe432fff">
<path fill="#fe432f" opacity="1.00" d=" M 41.26 11.46 C 47.71 10.80 54.31 11.10 60.55 12.94 C 60.53 25.74 60.91 38.56 60.32 51.33 L 59.27 49.91 C 53.26 48.29 46.98 48.43 40.81 48.69 C 41.42 36.30 41.02 23.87 41.26 11.46 Z" />
</g>
<g id="#f2eeeeff">
<path fill="#f2eeee" opacity="1.00" d=" M 22.91 15.39 C 29.11 14.47 35.06 12.37 41.26 11.46 C 41.02 23.87 41.42 36.30 40.81 48.69 L 40.77 49.17 C 38.50 49.18 36.23 49.46 34.07 50.14 C 32.74 50.52 31.35 50.61 30.08 51.16 C 28.75 51.51 27.39 51.68 26.10 52.16 C 25.36 52.27 23.88 52.49 23.14 52.60 C 22.87 40.20 22.97 27.79 22.91 15.39 Z" />
</g>
<g id="#00d45bff">
<path fill="#00d45b" opacity="1.00" d=" M 3.31 13.47 C 9.54 15.85 16.35 15.55 22.91 15.39 C 22.97 27.79 22.87 40.20 23.14 52.60 C 17.77 52.84 12.36 53.00 7.03 52.22 C 5.87 51.81 4.69 51.44 3.51 51.10 C 3.32 38.56 3.47 26.01 3.31 13.47 Z" />
</g>
</svg>
