<?xml version="1.0" encoding="UTF-8" ?>
<!DOCTYPE svg PUBLIC "-//W3C//DTD SVG 1.1//EN" "http://www.w3.org/Graphics/SVG/1.1/DTD/svg11.dtd">
<svg width="64pt" height="64pt" viewBox="0 0 64 64" version="1.1" xmlns="http://www.w3.org/2000/svg">
<g id="#004caeff">
<path fill="#004cae" opacity="1.00" d=" M 36.40 12.40 C 43.06 10.54 50.04 11.12 56.83 11.71 L 56.36 11.85 C 48.95 14.20 42.55 19.05 36.27 23.28 C 36.38 19.66 36.28 16.03 36.40 12.40 Z" />
</g>
<g id="#ffffffff">
<path fill="#ffffff" opacity="1.00" d=" M 34.54 12.76 C 35.01 12.67 35.94 12.49 36.40 12.40 C 36.28 16.03 36.38 19.66 36.27 23.28 C 42.55 19.05 48.95 14.20 56.36 11.85 L 57.84 12.28 C 51.21 16.45 42.83 18.56 37.67 24.64 C 38.50 24.49 40.16 24.21 40.99 24.06 C 46.11 20.81 51.40 17.83 57.01 15.49 C 59.09 14.42 60.12 17.23 59.15 18.69 C 58.64 18.96 57.63 19.51 57.12 19.78 C 54.97 21.26 51.38 21.70 50.08 23.76 C 52.77 23.53 55.34 24.36 57.96 24.82 C 58.67 25.10 60.09 25.68 60.80 25.96 C 60.07 26.61 59.24 27.07 58.32 27.34 C 54.59 26.52 50.76 26.41 46.96 26.31 C 44.95 26.30 42.95 26.42 40.95 26.64 C 39.68 26.74 38.42 26.96 37.19 27.30 C 36.54 27.38 35.24 27.55 34.59 27.63 C 34.57 22.69 34.62 17.74 34.54 12.80 L 34.54 12.76 Z" />
<path fill="#ffffff" opacity="1.00" d=" M 3.25 13.37 C 4.91 14.45 6.93 14.51 8.73 15.05 C 9.27 15.41 10.36 16.14 10.91 16.51 C 13.08 16.50 15.25 16.55 17.42 16.63 C 17.48 18.03 16.74 19.58 17.53 20.87 C 20.97 22.53 24.31 24.39 27.82 25.89 C 27.88 22.12 27.81 18.35 27.78 14.58 C 27.13 14.65 25.84 14.79 25.19 14.86 C 26.67 14.66 28.16 14.50 29.60 14.10 C 29.58 19.14 29.72 24.19 29.49 29.23 C 26.10 29.87 22.72 30.68 19.25 30.69 C 15.55 30.66 11.79 30.84 8.15 30.03 C 6.41 29.89 4.96 29.23 3.79 28.02 C 3.88 31.08 3.67 34.14 3.76 37.19 C 5.17 37.27 6.58 37.41 7.98 37.59 C 11.23 38.16 14.54 38.31 17.83 38.22 C 20.25 38.19 22.69 38.17 25.07 37.66 C 26.57 37.40 28.08 37.06 29.61 37.07 C 29.40 41.83 29.77 46.60 29.38 51.35 C 29.12 51.41 28.59 51.54 28.33 51.60 C 27.24 48.15 28.20 44.40 27.86 40.84 C 26.07 41.96 24.69 43.59 22.95 44.78 C 18.80 47.62 14.25 49.82 9.94 52.31 C 8.98 52.23 7.98 52.34 7.07 51.97 C 13.49 47.78 21.52 45.69 26.79 39.90 C 25.84 40.05 23.94 40.35 22.98 40.50 C 18.23 43.68 13.25 46.54 7.97 48.74 C 7.20 47.63 6.69 46.41 6.43 45.08 C 6.83 44.90 7.62 44.53 8.01 44.35 C 10.10 43.00 12.91 42.32 14.67 40.73 C 12.03 40.76 9.39 40.58 6.85 39.81 C 5.70 39.52 4.60 39.10 3.55 38.55 L 3.35 38.46 C 3.30 31.23 3.37 23.98 3.32 16.77 C 6.27 21.55 11.78 23.51 16.06 26.81 C 17.63 28.21 19.86 27.81 21.79 27.94 L 21.78 27.27 C 14.62 24.49 7.37 20.60 3.44 13.71 L 3.25 13.37 M 3.78 27.09 C 7.20 27.51 10.64 27.52 14.07 27.79 C 10.99 25.37 6.20 23.32 5.04 19.22 C 2.84 21.24 4.04 24.49 3.78 27.09 Z" />
<path fill="#ffffff" opacity="1.00" d=" M 34.54 35.72 C 36.55 34.80 38.80 34.47 40.99 34.21 C 41.68 34.13 43.06 33.98 43.74 33.91 C 47.48 33.70 51.21 33.90 54.92 34.31 C 56.83 34.39 58.59 35.16 60.37 35.79 C 60.41 35.95 60.48 36.25 60.51 36.40 C 60.57 36.71 60.70 37.34 60.76 37.66 L 60.59 37.65 C 59.76 37.55 58.09 37.35 57.25 37.25 C 54.89 36.66 52.42 36.78 50.04 36.27 C 50.52 38.49 53.38 38.57 54.77 40.15 C 57.00 41.56 58.56 43.72 60.46 45.49 C 60.36 45.70 60.16 46.10 60.06 46.30 C 56.25 42.21 51.35 39.36 46.55 36.59 C 45.14 36.15 43.61 36.46 42.14 36.36 C 42.19 36.60 42.29 37.10 42.34 37.35 C 48.71 40.09 54.90 43.74 59.66 48.78 L 60.71 48.40 L 60.57 49.53 C 58.32 49.83 56.14 49.13 54.04 48.45 C 52.00 46.53 49.39 45.33 47.00 43.89 C 43.77 41.99 40.23 40.66 37.05 38.66 C 36.59 38.34 36.13 38.38 35.69 38.79 C 36.95 42.16 36.02 45.99 36.23 49.56 C 35.84 49.62 35.07 49.76 34.68 49.82 C 34.56 45.12 34.76 40.42 34.54 35.72 Z" />
</g>
<g id="#e84147ff">
<path fill="#e84147" opacity="1.00" d=" M 29.60 14.10 C 31.16 13.35 32.92 13.36 34.54 12.80 C 34.62 17.74 34.57 22.69 34.59 27.63 C 35.24 27.55 36.54 27.38 37.19 27.30 C 32.63 30.64 26.16 31.68 23.04 36.70 C 23.55 36.94 24.56 37.42 25.07 37.66 C 22.69 38.17 20.25 38.19 17.83 38.22 C 18.44 35.74 18.77 33.20 19.25 30.69 C 22.72 30.68 26.10 29.87 29.49 29.23 C 29.72 24.19 29.58 19.14 29.60 14.10 Z" />
</g>
<g id="#f42e32ff">
<path fill="#f42e32" opacity="1.00" d=" M 37.67 24.64 C 42.83 18.56 51.21 16.45 57.84 12.28 C 58.88 12.33 59.79 12.71 60.57 13.41 C 59.38 14.10 58.22 14.84 57.01 15.49 C 51.40 17.83 46.11 20.81 40.99 24.06 C 40.16 24.21 38.50 24.49 37.67 24.64 Z" />
<path fill="#f42e32" opacity="1.00" d=" M 54.92 34.31 C 56.44 32.13 54.90 27.80 58.40 27.57 C 58.94 27.88 60.02 28.50 60.57 28.81 C 60.35 31.13 60.51 33.47 60.37 35.79 C 58.59 35.16 56.83 34.39 54.92 34.31 Z" />
<path fill="#f42e32" opacity="1.00" d=" M 42.14 36.36 C 43.61 36.46 45.14 36.15 46.55 36.59 C 51.35 39.36 56.25 42.21 60.06 46.30 C 59.96 46.92 59.76 48.16 59.66 48.78 C 54.90 43.74 48.71 40.09 42.34 37.35 C 42.29 37.10 42.19 36.60 42.14 36.36 Z" />
<path fill="#f42e32" opacity="1.00" d=" M 7.97 48.74 C 13.25 46.54 18.23 43.68 22.98 40.50 C 23.94 40.35 25.84 40.05 26.79 39.90 C 21.52 45.69 13.49 47.78 7.07 51.97 C 5.87 51.53 4.53 51.45 3.45 50.72 C 4.96 50.08 6.49 49.48 7.97 48.74 Z" />
</g>
<g id="#ff474fff">
<path fill="#ff474f" opacity="1.00" d=" M 3.44 13.71 C 7.37 20.60 14.62 24.49 21.78 27.27 L 21.79 27.94 C 19.86 27.81 17.63 28.21 16.06 26.81 C 11.78 23.51 6.27 21.55 3.32 16.77 C 3.35 16.00 3.41 14.48 3.44 13.71 Z" />
<path fill="#ff474f" opacity="1.00" d=" M 46.96 26.31 C 50.76 26.41 54.59 26.52 58.32 27.34 L 58.40 27.57 C 54.90 27.80 56.44 32.13 54.92 34.31 C 51.21 33.90 47.48 33.70 43.74 33.91 C 45.07 33.53 46.40 33.15 47.72 32.74 C 47.15 32.11 46.59 31.47 46.03 30.83 C 46.10 29.28 46.58 27.80 46.96 26.31 Z" />
</g>
<g id="#a7a0a4ed">
<path fill="#a7a0a4" opacity="0.93" d=" M 57.01 15.49 C 58.22 14.84 59.38 14.10 60.57 13.41 C 61.06 14.80 60.68 16.35 60.70 17.80 C 60.31 18.02 59.54 18.47 59.15 18.69 C 60.12 17.23 59.09 14.42 57.01 15.49 Z" />
</g>
<g id="#006ed2ff">
<path fill="#006ed2" opacity="1.00" d=" M 8.73 15.05 C 14.19 15.35 19.79 16.07 25.19 14.86 C 25.84 14.79 27.13 14.65 27.78 14.58 C 27.81 18.35 27.88 22.12 27.82 25.89 C 24.31 24.39 20.97 22.53 17.53 20.87 C 16.74 19.58 17.48 18.03 17.42 16.63 C 15.25 16.55 13.08 16.50 10.91 16.51 C 10.36 16.14 9.27 15.41 8.73 15.05 Z" />
</g>
<g id="#002b77ff">
<path fill="#002b77" opacity="1.00" d=" M 59.15 18.69 C 59.54 18.47 60.31 18.02 60.70 17.80 C 60.74 24.02 61.09 30.21 60.51 36.40 C 60.48 36.25 60.41 35.95 60.37 35.79 C 60.51 33.47 60.35 31.13 60.57 28.81 C 60.02 28.50 58.94 27.88 58.40 27.57 L 58.32 27.34 C 59.24 27.07 60.07 26.61 60.80 25.96 C 60.09 25.68 58.67 25.10 57.96 24.82 C 57.30 23.21 57.49 21.45 57.12 19.78 C 57.63 19.51 58.64 18.96 59.15 18.69 Z" />
</g>
<g id="#0559baff">
<path fill="#0559ba" opacity="1.00" d=" M 3.78 27.09 C 4.04 24.49 2.84 21.24 5.04 19.22 C 6.20 23.32 10.99 25.37 14.07 27.79 C 10.64 27.52 7.20 27.51 3.78 27.09 Z" />
</g>
<g id="#0548a5ff">
<path fill="#0548a5" opacity="1.00" d=" M 50.08 23.76 C 51.38 21.70 54.97 21.26 57.12 19.78 C 57.49 21.45 57.30 23.21 57.96 24.82 C 55.34 24.36 52.77 23.53 50.08 23.76 Z" />
</g>
<g id="#d82d31ff">
<path fill="#d82d31" opacity="1.00" d=" M 37.19 27.30 C 38.42 26.96 39.68 26.74 40.95 26.64 C 40.95 29.16 40.98 31.69 40.99 34.21 C 38.80 34.47 36.55 34.80 34.54 35.72 C 34.08 36.05 33.16 36.70 32.70 37.03 C 32.09 38.46 33.77 41.91 31.42 41.73 C 31.27 40.19 31.38 38.61 30.95 37.11 L 29.61 37.07 C 28.08 37.06 26.57 37.40 25.07 37.66 C 24.56 37.42 23.55 36.94 23.04 36.70 C 26.16 31.68 32.63 30.64 37.19 27.30 Z" />
</g>
<g id="#ef3339ff">
<path fill="#ef3339" opacity="1.00" d=" M 40.95 26.64 C 42.95 26.42 44.95 26.30 46.96 26.31 C 46.58 27.80 46.10 29.28 46.03 30.83 C 46.59 31.47 47.15 32.11 47.72 32.74 C 46.40 33.15 45.07 33.53 43.74 33.91 C 43.06 33.98 41.68 34.13 40.99 34.21 C 40.98 31.69 40.95 29.16 40.95 26.64 Z" />
</g>
<g id="#e74248ff">
<path fill="#e74248" opacity="1.00" d=" M 3.76 37.19 C 3.67 34.14 3.88 31.08 3.79 28.02 C 4.96 29.23 6.41 29.89 8.15 30.03 C 8.44 32.28 8.71 34.54 9.50 36.69 C 9.12 36.92 8.36 37.37 7.98 37.59 C 6.58 37.41 5.17 37.27 3.76 37.19 Z" />
</g>
<g id="#ff6f78ff">
<path fill="#ff6f78" opacity="1.00" d=" M 8.15 30.03 C 11.79 30.84 15.55 30.66 19.25 30.69 C 18.77 33.20 18.44 35.74 17.83 38.22 C 14.54 38.31 11.23 38.16 7.98 37.59 C 8.36 37.37 9.12 36.92 9.50 36.69 C 8.71 34.54 8.44 32.28 8.15 30.03 Z" />
</g>
<g id="#c21d1fff">
<path fill="#c21d1f" opacity="1.00" d=" M 32.70 37.03 C 33.16 36.70 34.08 36.05 34.54 35.72 C 34.76 40.42 34.56 45.12 34.68 49.82 C 33.02 50.67 31.13 50.79 29.38 51.35 C 29.77 46.60 29.40 41.83 29.61 37.07 L 30.95 37.11 C 31.38 38.61 31.27 40.19 31.42 41.73 C 33.77 41.91 32.09 38.46 32.70 37.03 Z" />
</g>
<g id="#144aa5ff">
<path fill="#144aa5" opacity="1.00" d=" M 50.04 36.27 C 52.42 36.78 54.89 36.66 57.25 37.25 C 56.42 38.21 55.59 39.18 54.77 40.15 C 53.38 38.57 50.52 38.49 50.04 36.27 Z" />
</g>
<g id="#00276aff">
<path fill="#00276a" opacity="1.00" d=" M 35.69 38.79 C 36.13 38.38 36.59 38.34 37.05 38.66 C 40.23 40.66 43.77 41.99 47.00 43.89 C 46.69 44.42 46.05 45.49 45.74 46.03 C 46.49 46.91 47.27 47.76 48.09 48.58 C 44.09 48.42 40.17 49.03 36.23 49.56 C 36.02 45.99 36.95 42.16 35.69 38.79 Z" />
<path fill="#00276a" opacity="1.00" d=" M 22.95 44.78 C 24.69 43.59 26.07 41.96 27.86 40.84 C 28.20 44.40 27.24 48.15 28.33 51.60 C 26.26 52.28 24.11 52.67 21.93 52.72 C 23.98 50.51 24.13 47.45 22.95 44.78 Z" />
</g>
<g id="#02317dff">
<path fill="#02317d" opacity="1.00" d=" M 54.77 40.15 C 55.59 39.18 56.42 38.21 57.25 37.25 C 58.09 37.35 59.76 37.55 60.59 37.65 C 60.71 40.25 61.00 42.94 60.46 45.49 C 58.56 43.72 57.00 41.56 54.77 40.15 Z" />
</g>
<g id="#0000004a">
<path fill="#000000" opacity="0.29" d=" M 3.35 38.46 L 3.55 38.55 C 3.22 41.22 3.39 43.93 3.49 46.61 C 3.38 47.98 3.36 49.35 3.45 50.72 C 4.53 51.45 5.87 51.53 7.07 51.97 C 7.98 52.34 8.98 52.23 9.94 52.31 C 13.82 53.40 17.94 52.72 21.93 52.72 C 24.11 52.67 26.26 52.28 28.33 51.60 C 28.59 51.54 29.12 51.41 29.38 51.35 C 31.13 50.79 33.02 50.67 34.68 49.82 C 35.07 49.76 35.84 49.62 36.23 49.56 C 40.17 49.03 44.09 48.42 48.09 48.58 C 50.08 48.42 52.08 49.03 54.04 48.45 C 56.14 49.13 58.32 49.83 60.57 49.53 C 60.64 50.07 60.77 51.17 60.84 51.72 C 57.16 52.10 53.73 50.16 50.04 50.59 C 41.44 49.89 33.14 52.55 24.91 54.55 C 17.91 54.47 10.58 55.67 3.90 53.14 C 1.72 49.12 3.06 44.21 2.78 39.81 L 3.35 38.46 Z" />
</g>
<g id="#00368aff">
<path fill="#00368a" opacity="1.00" d=" M 3.55 38.55 C 4.60 39.10 5.70 39.52 6.85 39.81 C 7.23 41.32 7.60 42.84 8.01 44.35 C 7.62 44.53 6.83 44.90 6.43 45.08 C 5.44 45.57 4.46 46.08 3.49 46.61 C 3.39 43.93 3.22 41.22 3.55 38.55 Z" />
</g>
<g id="#1556b1ff">
<path fill="#1556b1" opacity="1.00" d=" M 6.85 39.81 C 9.39 40.58 12.03 40.76 14.67 40.73 C 12.91 42.32 10.10 43.00 8.01 44.35 C 7.60 42.84 7.23 41.32 6.85 39.81 Z" />
</g>
<g id="#023a91ff">
<path fill="#023a91" opacity="1.00" d=" M 47.00 43.89 C 49.39 45.33 52.00 46.53 54.04 48.45 C 52.08 49.03 50.08 48.42 48.09 48.58 C 47.27 47.76 46.49 46.91 45.74 46.03 C 46.05 45.49 46.69 44.42 47.00 43.89 Z" />
<path fill="#023a91" opacity="1.00" d=" M 9.94 52.31 C 14.25 49.82 18.80 47.62 22.95 44.78 C 24.13 47.45 23.98 50.51 21.93 52.72 C 17.94 52.72 13.82 53.40 9.94 52.31 Z" />
</g>
<g id="#ccc9cdff">
<path fill="#ccc9cd" opacity="1.00" d=" M 3.49 46.61 C 4.46 46.08 5.44 45.57 6.43 45.08 C 6.69 46.41 7.20 47.63 7.97 48.74 C 6.49 49.48 4.96 50.08 3.45 50.72 C 3.36 49.35 3.38 47.98 3.49 46.61 Z" />
</g>
</svg>
