<?xml version="1.0" encoding="UTF-8" ?>
<!DOCTYPE svg PUBLIC "-//W3C//DTD SVG 1.1//EN" "http://www.w3.org/Graphics/SVG/1.1/DTD/svg11.dtd">
<svg width="64pt" height="64pt" viewBox="0 0 64 64" version="1.1" xmlns="http://www.w3.org/2000/svg">
<g id="#ff4724ff">
<path fill="#ff4724" opacity="1.00" d=" M 39.93 11.60 C 46.20 10.84 52.76 10.72 58.86 12.50 C 57.91 13.28 56.54 13.92 56.51 15.35 C 54.60 24.93 55.73 34.77 54.49 44.40 C 54.36 46.18 52.97 47.20 51.33 47.51 C 49.96 47.42 48.59 47.33 47.22 47.24 C 47.21 41.09 44.87 35.21 45.25 29.03 C 44.72 24.30 44.37 19.53 43.59 14.83 C 43.96 14.02 44.36 13.22 44.71 12.41 C 43.13 12.05 41.54 11.79 39.93 11.60 Z" />
</g>
<g id="#ec4610ff">
<path fill="#ec4610" opacity="1.00" d=" M 22.72 15.38 C 28.52 14.39 34.14 12.55 39.93 11.60 C 41.54 11.79 43.13 12.05 44.71 12.41 C 44.36 13.22 43.96 14.02 43.59 14.83 C 41.80 17.69 42.59 21.30 41.25 24.28 C 36.81 26.96 32.05 29.11 27.39 31.38 C 25.55 32.27 24.20 34.20 22.10 34.46 C 20.84 33.67 20.61 32.06 19.92 30.85 C 19.80 30.47 19.57 29.73 19.46 29.35 C 21.83 24.62 23.29 18.26 28.86 16.30 C 26.80 16.07 24.76 15.73 22.72 15.38 M 26.22 21.34 C 25.42 23.08 25.94 23.60 27.75 22.90 C 28.37 21.29 27.86 20.77 26.22 21.34 M 26.10 27.08 C 25.53 28.77 26.07 29.31 27.71 28.68 C 28.30 26.97 27.76 26.43 26.10 27.08 M 21.98 31.38 C 21.40 33.00 21.97 33.55 23.71 33.05 C 24.29 31.42 23.71 30.87 21.98 31.38 Z" />
</g>
<g id="#f6300dff">
<path fill="#f6300d" opacity="1.00" d=" M 56.51 15.35 C 56.54 13.92 57.91 13.28 58.86 12.50 L 60.09 12.71 C 59.24 24.63 59.89 36.67 59.73 48.63 C 58.99 48.80 57.50 49.14 56.76 49.31 C 51.61 48.02 46.17 48.40 40.92 48.73 C 44.37 48.12 47.99 48.72 51.33 47.51 C 52.97 47.20 54.36 46.18 54.49 44.40 C 55.73 34.77 54.60 24.93 56.51 15.35 Z" />
</g>
<g id="#681404cc">
<path fill="#681404" opacity="0.80" d=" M 60.09 12.71 C 61.78 13.41 60.84 15.57 61.11 16.94 C 61.11 28.00 61.10 39.06 61.12 50.13 L 60.31 50.59 L 58.95 50.12 C 58.40 49.92 57.31 49.51 56.76 49.31 C 57.50 49.14 58.99 48.80 59.73 48.63 C 59.89 36.67 59.24 24.63 60.09 12.71 Z" />
</g>
<g id="#00000044">
<path fill="#000000" opacity="0.27" d=" M 2.60 17.97 C 2.61 16.37 2.63 14.70 3.44 13.28 C 3.44 13.85 3.43 14.99 3.42 15.56 C 3.29 27.18 3.45 38.80 3.43 50.42 C 5.16 51.97 8.05 52.17 10.35 52.41 C 10.72 52.44 11.47 52.52 11.85 52.55 C 17.27 53.04 22.79 52.87 28.08 51.55 C 32.34 50.56 36.56 49.32 40.92 48.73 C 46.17 48.40 51.61 48.02 56.76 49.31 C 57.31 49.51 58.40 49.92 58.95 50.12 C 59.47 50.45 60.50 51.10 61.02 51.43 C 57.97 52.14 55.00 50.64 51.96 50.60 C 47.40 50.56 42.75 50.15 38.28 51.29 C 31.86 52.51 25.63 55.08 18.99 54.71 C 13.81 54.55 8.10 55.35 3.46 52.57 C 2.62 50.85 2.64 48.90 2.63 47.04 C 2.65 37.35 2.66 27.66 2.60 17.97 Z" />
</g>
<g id="#fb6d2bff">
<path fill="#fb6d2b" opacity="1.00" d=" M 3.44 13.28 C 5.10 14.52 7.17 14.37 9.03 15.06 C 7.27 16.02 8.28 17.13 9.18 18.14 C 9.28 19.72 8.99 21.30 8.93 22.88 C 8.39 22.79 7.32 22.61 6.79 22.53 C 7.59 23.40 8.41 24.27 9.23 25.13 C 8.90 26.25 8.59 27.37 8.31 28.51 C 8.84 35.98 9.02 43.47 8.95 50.96 C 8.61 50.60 7.92 49.89 7.58 49.53 C 7.28 44.68 7.60 39.79 7.33 34.93 C 6.68 29.12 5.89 23.32 5.44 17.48 C 4.93 17.00 3.92 16.04 3.42 15.56 C 3.43 14.99 3.44 13.85 3.44 13.28 Z" />
</g>
<g id="#feff6bff">
<path fill="#feff6b" opacity="1.00" d=" M 9.03 15.06 C 9.59 15.12 10.70 15.24 11.26 15.30 L 10.46 15.44 L 9.42 15.64 C 9.40 16.19 9.37 17.29 9.35 17.84 C 9.72 19.20 10.01 20.59 10.20 21.99 C 10.56 21.49 11.29 20.49 11.65 19.98 C 12.24 20.91 12.73 21.90 13.31 22.84 C 14.04 22.94 15.51 23.13 16.24 23.22 C 16.60 23.28 17.31 23.41 17.66 23.47 C 16.55 24.19 15.45 24.93 14.37 25.69 C 14.61 26.55 15.09 28.26 15.33 29.11 C 14.13 28.57 13.05 27.81 11.89 27.21 C 10.57 27.11 9.49 28.08 8.31 28.51 C 8.59 27.37 8.90 26.25 9.23 25.13 C 8.41 24.27 7.59 23.40 6.79 22.53 C 7.32 22.61 8.39 22.79 8.93 22.88 C 8.99 21.30 9.28 19.72 9.18 18.14 C 8.28 17.13 7.27 16.02 9.03 15.06 Z" />
</g>
<g id="#fb752cff">
<path fill="#fb752c" opacity="1.00" d=" M 11.26 15.30 C 15.07 15.45 18.91 15.50 22.72 15.38 C 24.76 15.73 26.80 16.07 28.86 16.30 C 23.29 18.26 21.83 24.62 19.46 29.35 C 18.03 27.69 18.32 25.66 18.75 23.68 C 18.47 23.63 17.93 23.52 17.66 23.47 C 17.31 23.41 16.60 23.28 16.24 23.22 C 16.36 21.99 16.50 20.76 16.68 19.54 C 17.46 18.65 18.32 17.83 19.15 16.98 C 17.60 16.07 15.83 15.64 14.04 15.63 C 13.15 15.58 11.36 15.49 10.46 15.44 L 11.26 15.30 M 22.09 18.20 C 21.42 19.83 21.95 20.34 23.69 19.74 C 24.27 18.07 23.73 17.55 22.09 18.20 Z" />
</g>
<g id="#e92e0bff">
<path fill="#e92e0b" opacity="1.00" d=" M 43.59 14.83 C 44.37 19.53 44.72 24.30 45.25 29.03 C 44.87 35.21 47.21 41.09 47.22 47.24 C 44.63 47.11 42.01 47.07 39.46 46.55 C 38.16 42.92 39.49 37.59 35.35 35.61 C 32.90 33.85 29.50 36.00 28.39 38.42 C 25.95 42.10 25.36 46.56 25.47 50.89 C 26.12 51.05 27.43 51.39 28.08 51.55 C 22.79 52.87 17.27 53.04 11.85 52.55 C 13.77 52.23 15.68 51.86 17.58 51.42 C 18.79 48.79 18.26 45.83 18.43 43.03 C 18.29 38.90 19.48 34.92 19.92 30.85 C 20.61 32.06 20.84 33.67 22.10 34.46 C 24.20 34.20 25.55 32.27 27.39 31.38 C 32.05 29.11 36.81 26.96 41.25 24.28 C 42.59 21.30 41.80 17.69 43.59 14.83 Z" />
</g>
<g id="#da3710ff">
<path fill="#da3710" opacity="1.00" d=" M 3.42 15.56 C 3.92 16.04 4.93 17.00 5.44 17.48 C 5.89 23.32 6.68 29.12 7.33 34.93 C 7.60 39.79 7.28 44.68 7.58 49.53 C 7.92 49.89 8.61 50.60 8.95 50.96 C 9.30 51.32 10.00 52.05 10.35 52.41 C 8.05 52.17 5.16 51.97 3.43 50.42 C 3.45 38.80 3.29 27.18 3.42 15.56 Z" />
</g>
<g id="#ffbc84ff">
<path fill="#ffbc84" opacity="1.00" d=" M 9.42 15.64 L 10.46 15.44 C 11.36 15.49 13.15 15.58 14.04 15.63 C 14.74 16.41 15.41 17.21 16.06 18.03 C 13.83 18.39 11.57 18.22 9.35 17.84 C 9.37 17.29 9.40 16.19 9.42 15.64 Z" />
</g>
<g id="#ffa167ff">
<path fill="#ffa167" opacity="1.00" d=" M 14.04 15.63 C 15.83 15.64 17.60 16.07 19.15 16.98 C 18.32 17.83 17.46 18.65 16.68 19.54 C 16.50 20.76 16.36 21.99 16.24 23.22 C 15.51 23.13 14.04 22.94 13.31 22.84 C 12.73 21.90 12.24 20.91 11.65 19.98 C 11.29 20.49 10.56 21.49 10.20 21.99 C 10.01 20.59 9.72 19.20 9.35 17.84 C 11.57 18.22 13.83 18.39 16.06 18.03 C 15.41 17.21 14.74 16.41 14.04 15.63 Z" />
</g>
<g id="#fbe040ff">
<path fill="#fbe040" opacity="1.00" d=" M 22.09 18.20 C 23.73 17.55 24.27 18.07 23.69 19.74 C 21.95 20.34 21.42 19.83 22.09 18.20 Z" />
</g>
<g id="#f8d037ff">
<path fill="#f8d037" opacity="1.00" d=" M 26.22 21.34 C 27.86 20.77 28.37 21.29 27.75 22.90 C 25.94 23.60 25.42 23.08 26.22 21.34 Z" />
</g>
<g id="#ff623dff">
<path fill="#ff623d" opacity="1.00" d=" M 17.66 23.47 C 17.93 23.52 18.47 23.63 18.75 23.68 C 18.32 25.66 18.03 27.69 19.46 29.35 C 19.57 29.73 19.80 30.47 19.92 30.85 C 19.48 34.92 18.29 38.90 18.43 43.03 C 18.26 45.83 18.79 48.79 17.58 51.42 C 15.68 51.86 13.77 52.23 11.85 52.55 C 11.47 52.52 10.72 52.44 10.35 52.41 C 10.00 52.05 9.30 51.32 8.95 50.96 C 9.02 43.47 8.84 35.98 8.31 28.51 C 9.49 28.08 10.57 27.11 11.89 27.21 C 13.05 27.81 14.13 28.57 15.33 29.11 C 15.09 28.26 14.61 26.55 14.37 25.69 C 15.45 24.93 16.55 24.19 17.66 23.47 Z" />
</g>
<g id="#f7c532ff">
<path fill="#f7c532" opacity="1.00" d=" M 26.10 27.08 C 27.76 26.43 28.30 26.97 27.71 28.68 C 26.07 29.31 25.53 28.77 26.10 27.08 Z" />
</g>
<g id="#f9c533ff">
<path fill="#f9c533" opacity="1.00" d=" M 21.98 31.38 C 23.71 30.87 24.29 31.42 23.71 33.05 C 21.97 33.55 21.40 33.00 21.98 31.38 Z" />
</g>
<g id="#ce2007ff">
<path fill="#ce2007" opacity="1.00" d=" M 28.39 38.42 C 29.50 36.00 32.90 33.85 35.35 35.61 C 39.49 37.59 38.16 42.92 39.46 46.55 C 42.01 47.07 44.63 47.11 47.22 47.24 C 48.59 47.33 49.96 47.42 51.33 47.51 C 47.99 48.72 44.37 48.12 40.92 48.73 C 36.56 49.32 32.34 50.56 28.08 51.55 C 27.43 51.39 26.12 51.05 25.47 50.89 C 25.36 46.56 25.95 42.10 28.39 38.42 Z" />
</g>
</svg>
