<?xml version="1.0" encoding="UTF-8" ?>
<!DOCTYPE svg PUBLIC "-//W3C//DTD SVG 1.1//EN" "http://www.w3.org/Graphics/SVG/1.1/DTD/svg11.dtd">
<svg width="64pt" height="64pt" viewBox="0 0 64 64" version="1.1" xmlns="http://www.w3.org/2000/svg">
<g id="#d9353cfb">
<path fill="#d9353c" opacity="1.00" d=" M 32.50 13.41 C 41.53 11.02 51.31 10.25 60.32 13.10 C 60.40 13.79 60.57 15.17 60.65 15.86 C 51.51 12.61 41.68 13.69 32.47 15.98 C 32.48 15.34 32.49 14.05 32.50 13.41 Z" />
<path fill="#d9353c" opacity="1.00" d=" M 32.43 19.11 C 41.60 16.45 51.27 16.89 60.60 18.44 C 60.59 19.57 60.61 20.70 60.62 21.83 C 51.57 18.46 41.59 19.55 32.43 21.87 C 32.43 21.18 32.43 19.80 32.43 19.11 Z" />
<path fill="#d9353c" opacity="1.00" d=" M 32.44 24.92 C 41.53 22.28 51.21 22.59 60.44 24.27 L 60.52 24.98 C 60.55 25.68 60.63 27.10 60.67 27.81 C 51.71 24.20 41.54 25.35 32.44 27.83 C 32.44 27.10 32.44 25.65 32.44 24.92 Z" />
<path fill="#d9353c" opacity="1.00" d=" M 32.38 30.66 C 41.50 28.15 51.20 28.28 60.41 30.14 L 60.53 31.11 C 60.67 32.62 60.73 34.13 60.84 35.64 C 60.04 33.93 58.78 32.38 56.78 32.19 C 48.65 30.70 40.15 31.32 32.27 33.78 C 32.30 33.00 32.35 31.44 32.38 30.66 Z" />
<path fill="#d9353c" opacity="1.00" d=" M 33.95 36.08 C 42.74 33.61 51.92 34.65 60.84 35.64 C 60.75 36.55 60.57 38.38 60.48 39.29 C 54.93 37.04 48.79 36.93 42.90 37.45 C 36.43 37.97 30.35 40.57 23.91 41.24 C 17.06 42.01 10.16 41.16 3.35 40.35 C 3.41 39.39 3.52 37.48 3.58 36.53 C 13.11 41.36 24.17 38.66 33.95 36.08 Z" />
<path fill="#d9353c" opacity="1.00" d=" M 33.21 42.05 C 42.09 39.47 51.45 40.16 60.48 41.54 C 60.50 42.37 60.55 44.03 60.58 44.85 C 55.86 43.50 50.95 42.78 46.03 43.01 C 36.83 43.12 28.30 47.61 19.05 47.32 C 13.80 47.10 8.27 47.51 3.34 45.37 C 3.35 44.65 3.38 43.21 3.40 42.49 C 12.91 46.44 23.61 44.78 33.21 42.05 Z" />
<path fill="#d9353c" opacity="1.00" d=" M 19.95 50.40 C 27.83 50.09 35.14 46.51 43.01 46.14 C 48.75 45.89 54.56 46.20 60.15 47.58 L 61.28 49.77 C 55.50 49.97 49.79 48.23 44.01 48.92 C 41.59 49.20 39.18 49.48 36.76 49.70 L 36.04 50.14 C 31.02 51.15 26.17 53.05 21.01 53.17 C 15.95 53.21 10.83 53.50 5.88 52.32 C 5.27 52.02 4.05 51.42 3.44 51.11 C 3.43 50.43 3.40 49.06 3.39 48.37 C 8.63 50.51 14.35 50.93 19.95 50.40 Z" />
</g>
<g id="#326a9ff8">
<path fill="#326a9f" opacity="0.97" d=" M 3.26 13.56 C 12.63 16.73 23.09 16.19 32.50 13.41 C 32.49 14.05 32.48 15.34 32.47 15.98 C 32.45 17.02 32.44 18.06 32.43 19.11 C 32.43 19.80 32.43 21.18 32.43 21.87 C 32.43 22.63 32.43 24.15 32.44 24.92 C 32.44 25.65 32.44 27.10 32.44 27.83 C 32.42 28.54 32.40 29.96 32.38 30.66 C 32.35 31.44 32.30 33.00 32.27 33.78 C 23.43 36.85 14.07 35.71 4.96 35.06 L 3.97 35.01 C 3.76 34.61 3.33 33.82 3.11 33.43 C 3.66 26.82 3.30 20.18 3.26 13.56 M 7.74 16.23 C 8.37 17.42 9.45 18.17 10.62 18.76 C 10.56 19.22 10.44 20.13 10.38 20.59 C 11.21 20.59 12.88 20.61 13.72 20.61 C 13.61 20.13 13.39 19.15 13.27 18.66 C 15.25 18.98 16.53 18.27 17.11 16.53 C 13.99 16.34 10.86 16.23 7.74 16.23 M 25.06 16.16 C 24.61 17.58 25.08 18.04 26.48 17.54 C 26.93 16.13 26.46 15.67 25.06 16.16 M 19.84 17.10 C 20.05 20.42 22.80 15.50 19.84 17.10 M 6.43 18.35 C 6.96 18.92 6.96 18.92 6.43 18.35 M 23.24 18.24 C 21.89 18.86 21.84 19.53 23.12 20.24 C 24.47 19.62 24.51 18.95 23.24 18.24 M 27.36 18.05 C 27.44 21.39 30.37 16.55 27.36 18.05 M 17.17 19.36 C 17.80 19.88 17.80 19.88 17.17 19.36 M 25.09 20.25 C 24.67 21.67 25.15 22.13 26.53 21.61 C 26.95 20.19 26.47 19.74 25.09 20.25 M 9.13 20.92 C 9.73 21.46 9.73 21.46 9.13 20.92 M 14.02 21.16 C 14.18 24.54 16.96 19.56 14.02 21.16 M 20.20 21.29 C 20.76 21.88 20.76 21.88 20.20 21.29 M 6.40 22.24 C 6.89 22.83 6.89 22.83 6.40 22.24 M 27.35 22.07 C 27.40 25.41 30.37 20.59 27.35 22.07 M 11.24 23.05 C 11.36 26.44 14.21 21.51 11.24 23.05 M 17.21 23.43 C 17.73 24.06 17.73 24.06 17.21 23.43 M 22.48 22.99 C 22.66 26.31 25.44 21.41 22.48 22.99 M 29.89 23.29 C 28.37 26.29 33.23 23.38 29.89 23.29 M 4.34 24.20 C 4.83 24.74 4.83 24.74 4.34 24.20 M 8.47 24.36 C 7.96 25.96 8.53 26.51 10.17 26.01 C 10.69 24.41 10.13 23.86 8.47 24.36 M 25.09 24.29 C 24.68 25.73 25.16 26.17 26.53 25.61 C 26.93 24.18 26.45 23.74 25.09 24.29 M 14.50 25.46 C 15.08 26.03 15.08 26.03 14.50 25.46 M 20.02 24.98 C 18.54 27.97 23.39 25.04 20.02 24.98 M 6.38 26.37 C 6.85 26.97 6.85 26.97 6.38 26.37 M 27.35 26.12 C 27.27 29.46 30.42 24.75 27.35 26.12 M 11.24 27.09 C 11.25 30.46 14.27 25.66 11.24 27.09 M 16.82 27.09 C 16.41 28.50 16.91 28.95 18.32 28.44 C 18.72 27.04 18.22 26.58 16.82 27.09 M 22.47 27.04 C 22.59 30.35 25.47 25.51 22.47 27.04 M 29.92 27.38 C 28.46 30.41 33.26 27.41 29.92 27.38 M 9.01 29.08 C 9.58 29.64 9.58 29.64 9.01 29.08 M 13.82 28.94 C 13.36 30.57 13.94 31.10 15.57 30.55 C 16.02 28.92 15.44 28.39 13.82 28.94 M 20.17 29.37 C 20.75 29.93 20.75 29.93 20.17 29.37 M 6.26 30.26 C 4.79 33.26 9.60 30.35 6.26 30.26 M 11.20 31.19 C 11.38 34.55 14.16 29.62 11.20 31.19 M 17.12 31.11 C 15.37 33.97 20.46 31.46 17.12 31.11 M 22.46 31.11 C 22.64 34.42 25.43 29.53 22.46 31.11 M 8.46 32.94 C 8.65 36.28 11.41 31.36 8.46 32.94 M 14.20 33.16 C 12.60 36.09 17.57 33.36 14.20 33.16 M 20.05 33.07 C 18.42 36.01 23.38 33.30 20.05 33.07 Z" />
</g>
<g id="#ecdee1ff">
<path fill="#ecdee1" opacity="1.00" d=" M 32.47 15.98 C 41.68 13.69 51.51 12.61 60.65 15.86 C 60.64 16.50 60.61 17.79 60.60 18.44 C 51.27 16.89 41.60 16.45 32.43 19.11 C 32.44 18.06 32.45 17.02 32.47 15.98 Z" />
<path fill="#ecdee1" opacity="1.00" d=" M 7.74 16.23 C 10.86 16.23 13.99 16.34 17.11 16.53 C 16.53 18.27 15.25 18.98 13.27 18.66 C 13.39 19.15 13.61 20.13 13.72 20.61 C 12.88 20.61 11.21 20.59 10.38 20.59 C 10.44 20.13 10.56 19.22 10.62 18.76 C 9.45 18.17 8.37 17.42 7.74 16.23 Z" />
<path fill="#ecdee1" opacity="1.00" d=" M 25.06 16.16 C 26.46 15.67 26.93 16.13 26.48 17.54 C 25.08 18.04 24.61 17.58 25.06 16.16 Z" />
<path fill="#ecdee1" opacity="1.00" d=" M 19.84 17.10 C 22.80 15.50 20.05 20.42 19.84 17.10 Z" />
<path fill="#ecdee1" opacity="1.00" d=" M 6.43 18.35 C 6.96 18.92 6.96 18.92 6.43 18.35 Z" />
<path fill="#ecdee1" opacity="1.00" d=" M 23.24 18.24 C 24.51 18.95 24.47 19.62 23.12 20.24 C 21.84 19.53 21.89 18.86 23.24 18.24 Z" />
<path fill="#ecdee1" opacity="1.00" d=" M 27.36 18.05 C 30.37 16.55 27.44 21.39 27.36 18.05 Z" />
<path fill="#ecdee1" opacity="1.00" d=" M 17.17 19.36 C 17.80 19.88 17.80 19.88 17.17 19.36 Z" />
<path fill="#ecdee1" opacity="1.00" d=" M 25.09 20.25 C 26.47 19.74 26.95 20.19 26.53 21.61 C 25.15 22.13 24.67 21.67 25.09 20.25 Z" />
<path fill="#ecdee1" opacity="1.00" d=" M 32.43 21.87 C 41.59 19.55 51.57 18.46 60.62 21.83 C 60.59 22.61 60.54 24.19 60.52 24.98 L 60.44 24.27 C 51.21 22.59 41.53 22.28 32.44 24.92 C 32.43 24.15 32.43 22.63 32.43 21.87 Z" />
<path fill="#ecdee1" opacity="1.00" d=" M 9.13 20.92 C 9.73 21.46 9.73 21.46 9.13 20.92 Z" />
<path fill="#ecdee1" opacity="1.00" d=" M 14.02 21.16 C 16.96 19.56 14.18 24.54 14.02 21.16 Z" />
<path fill="#ecdee1" opacity="1.00" d=" M 20.20 21.29 C 20.76 21.88 20.76 21.88 20.20 21.29 Z" />
<path fill="#ecdee1" opacity="1.00" d=" M 6.40 22.24 C 6.89 22.83 6.89 22.83 6.40 22.24 Z" />
<path fill="#ecdee1" opacity="1.00" d=" M 27.35 22.07 C 30.37 20.59 27.40 25.41 27.35 22.07 Z" />
<path fill="#ecdee1" opacity="1.00" d=" M 11.24 23.05 C 14.21 21.51 11.36 26.44 11.24 23.05 Z" />
<path fill="#ecdee1" opacity="1.00" d=" M 17.21 23.43 C 17.73 24.06 17.73 24.06 17.21 23.43 Z" />
<path fill="#ecdee1" opacity="1.00" d=" M 22.48 22.99 C 25.44 21.41 22.66 26.31 22.48 22.99 Z" />
<path fill="#ecdee1" opacity="1.00" d=" M 29.89 23.29 C 33.23 23.38 28.37 26.29 29.89 23.29 Z" />
<path fill="#ecdee1" opacity="1.00" d=" M 4.34 24.20 C 4.83 24.74 4.83 24.74 4.34 24.20 Z" />
<path fill="#ecdee1" opacity="1.00" d=" M 8.47 24.36 C 10.13 23.86 10.69 24.41 10.17 26.01 C 8.53 26.51 7.96 25.96 8.47 24.36 Z" />
<path fill="#ecdee1" opacity="1.00" d=" M 25.09 24.29 C 26.45 23.74 26.93 24.18 26.53 25.61 C 25.16 26.17 24.68 25.73 25.09 24.29 Z" />
<path fill="#ecdee1" opacity="1.00" d=" M 14.50 25.46 C 15.08 26.03 15.08 26.03 14.50 25.46 Z" />
<path fill="#ecdee1" opacity="1.00" d=" M 20.02 24.98 C 23.39 25.04 18.54 27.97 20.02 24.98 Z" />
<path fill="#ecdee1" opacity="1.00" d=" M 6.38 26.37 C 6.85 26.97 6.85 26.97 6.38 26.37 Z" />
<path fill="#ecdee1" opacity="1.00" d=" M 27.35 26.12 C 30.42 24.75 27.27 29.46 27.35 26.12 Z" />
<path fill="#ecdee1" opacity="1.00" d=" M 32.44 27.83 C 41.54 25.35 51.71 24.20 60.67 27.81 C 60.63 28.63 60.56 30.28 60.53 31.11 L 60.41 30.14 C 51.20 28.28 41.50 28.15 32.38 30.66 C 32.40 29.96 32.42 28.54 32.44 27.83 Z" />
<path fill="#ecdee1" opacity="1.00" d=" M 11.24 27.09 C 14.27 25.66 11.25 30.46 11.24 27.09 Z" />
<path fill="#ecdee1" opacity="1.00" d=" M 16.82 27.09 C 18.22 26.58 18.72 27.04 18.32 28.44 C 16.91 28.95 16.41 28.50 16.82 27.09 Z" />
<path fill="#ecdee1" opacity="1.00" d=" M 22.47 27.04 C 25.47 25.51 22.59 30.35 22.47 27.04 Z" />
<path fill="#ecdee1" opacity="1.00" d=" M 29.92 27.38 C 33.26 27.41 28.46 30.41 29.92 27.38 Z" />
<path fill="#ecdee1" opacity="1.00" d=" M 9.01 29.08 C 9.58 29.64 9.58 29.64 9.01 29.08 Z" />
<path fill="#ecdee1" opacity="1.00" d=" M 13.82 28.94 C 15.44 28.39 16.02 28.92 15.57 30.55 C 13.94 31.10 13.36 30.57 13.82 28.94 Z" />
<path fill="#ecdee1" opacity="1.00" d=" M 20.17 29.37 C 20.75 29.93 20.75 29.93 20.17 29.37 Z" />
<path fill="#ecdee1" opacity="1.00" d=" M 6.26 30.26 C 9.60 30.35 4.79 33.26 6.26 30.26 Z" />
<path fill="#ecdee1" opacity="1.00" d=" M 11.20 31.19 C 14.16 29.62 11.38 34.55 11.20 31.19 Z" />
<path fill="#ecdee1" opacity="1.00" d=" M 17.12 31.11 C 20.46 31.46 15.37 33.97 17.12 31.11 Z" />
<path fill="#ecdee1" opacity="1.00" d=" M 22.46 31.11 C 25.43 29.53 22.64 34.42 22.46 31.11 Z" />
<path fill="#ecdee1" opacity="1.00" d=" M 32.27 33.78 C 40.15 31.32 48.65 30.70 56.78 32.19 C 58.78 32.38 60.04 33.93 60.84 35.64 C 51.92 34.65 42.74 33.61 33.95 36.08 C 24.17 38.66 13.11 41.36 3.58 36.53 L 3.03 35.05 C 3.51 35.05 4.48 35.06 4.96 35.06 C 14.07 35.71 23.43 36.85 32.27 33.78 Z" />
<path fill="#ecdee1" opacity="1.00" d=" M 8.46 32.94 C 11.41 31.36 8.65 36.28 8.46 32.94 Z" />
<path fill="#ecdee1" opacity="1.00" d=" M 14.20 33.16 C 17.57 33.36 12.60 36.09 14.20 33.16 Z" />
<path fill="#ecdee1" opacity="1.00" d=" M 20.05 33.07 C 23.38 33.30 18.42 36.01 20.05 33.07 Z" />
<path fill="#ecdee1" opacity="1.00" d=" M 23.91 41.24 C 30.35 40.57 36.43 37.97 42.90 37.45 C 48.79 36.93 54.93 37.04 60.48 39.29 C 60.48 39.85 60.48 40.98 60.48 41.54 C 51.45 40.16 42.09 39.47 33.21 42.05 C 23.61 44.78 12.91 46.44 3.40 42.49 C 3.37 41.95 3.32 40.88 3.29 40.34 L 3.35 40.35 C 10.16 41.16 17.06 42.01 23.91 41.24 Z" />
<path fill="#ecdee1" opacity="1.00" d=" M 19.05 47.32 C 28.30 47.61 36.83 43.12 46.03 43.01 C 50.95 42.78 55.86 43.50 60.58 44.85 L 60.61 44.86 C 60.60 45.80 60.60 46.75 60.60 47.69 L 60.15 47.58 C 54.56 46.20 48.75 45.89 43.01 46.14 C 35.14 46.51 27.83 50.09 19.95 50.40 C 14.35 50.93 8.63 50.51 3.39 48.37 C 3.36 47.37 3.34 46.37 3.34 45.37 C 8.27 47.51 13.80 47.10 19.05 47.32 Z" />
</g>
</svg>
