<?xml version="1.0" encoding="UTF-8" ?>
<!DOCTYPE svg PUBLIC "-//W3C//DTD SVG 1.1//EN" "http://www.w3.org/Graphics/SVG/1.1/DTD/svg11.dtd">
<svg width="64pt" height="64pt" viewBox="0 0 64 64" version="1.1" xmlns="http://www.w3.org/2000/svg">
<g id="#fbfbfbff">
<path fill="#fbfbfb" opacity="1.00" d=" M 36.06 12.25 C 43.88 10.71 52.29 10.29 59.95 12.82 C 59.42 13.09 58.36 13.62 57.83 13.88 C 57.89 20.34 57.74 26.82 56.75 33.22 C 52.91 30.63 48.96 27.82 44.10 27.91 C 43.49 28.83 42.88 29.75 42.27 30.68 C 41.90 29.80 41.54 28.93 41.17 28.05 L 40.87 27.35 C 41.08 26.77 41.50 25.59 41.70 25.00 C 40.35 20.52 40.84 14.75 36.06 12.25 M 45.07 17.57 L 44.64 15.65 L 43.09 17.18 C 45.33 19.94 47.56 22.70 50.03 25.26 C 51.13 24.39 52.26 23.58 53.41 22.78 C 51.20 20.02 49.10 17.17 46.88 14.42 C 46.28 15.47 45.71 16.54 45.07 17.57 M 40.54 17.85 C 42.83 20.98 44.92 24.64 48.42 26.54 C 49.14 23.39 44.99 22.88 44.78 20.29 C 43.66 18.97 42.56 17.34 40.54 17.85 Z" />
</g>
<g id="#ececebff">
<path fill="#ececeb" opacity="1.00" d=" M 28.82 14.11 C 31.22 13.44 33.64 12.85 36.06 12.25 C 40.84 14.75 40.35 20.52 41.70 25.00 C 41.50 25.59 41.08 26.77 40.87 27.35 C 39.34 24.96 37.13 22.48 34.02 22.58 C 29.65 22.77 26.48 26.21 24.00 29.44 C 23.91 28.87 23.75 27.73 23.66 27.15 C 25.76 23.12 26.78 18.30 30.50 15.34 C 29.94 14.93 29.38 14.52 28.82 14.11 Z" />
</g>
<g id="#e9e8e8ff">
<path fill="#e9e8e8" opacity="1.00" d=" M 57.83 13.88 C 58.36 13.62 59.42 13.09 59.95 12.82 L 60.52 12.54 C 60.65 25.01 60.49 37.49 60.57 49.97 C 60.26 49.89 59.65 49.74 59.34 49.66 C 57.75 49.24 56.15 48.86 54.56 48.48 C 49.90 46.46 44.72 47.29 39.81 46.62 C 38.99 44.13 37.85 41.77 36.32 39.64 C 37.99 38.00 39.51 36.17 40.58 34.08 C 41.02 32.10 41.18 30.07 41.17 28.05 C 41.54 28.93 41.90 29.80 42.27 30.68 C 42.88 29.75 43.49 28.83 44.10 27.91 C 48.96 27.82 52.91 30.63 56.75 33.22 C 57.74 26.82 57.89 20.34 57.83 13.88 M 46.58 34.59 C 44.68 37.25 41.61 39.64 40.89 42.82 C 41.39 42.77 42.38 42.68 42.88 42.63 C 44.54 39.92 46.45 37.41 48.55 35.03 L 47.92 33.90 C 47.58 34.07 46.91 34.42 46.58 34.59 M 47.27 39.13 C 48.71 39.42 50.38 37.43 50.23 36.05 C 48.79 35.90 47.17 37.73 47.27 39.13 M 51.56 37.32 C 50.60 38.06 49.10 39.41 49.77 40.75 C 51.51 41.54 54.51 36.58 51.56 37.32 M 45.98 40.97 C 46.74 40.41 46.74 40.41 45.98 40.97 M 45.38 40.92 C 44.19 41.55 43.71 42.46 43.94 43.64 C 45.17 43.91 46.60 42.10 45.98 40.97 L 45.38 40.92 M 48.65 41.25 C 47.40 41.84 45.63 43.39 46.19 44.89 C 47.75 45.48 50.65 41.91 48.65 41.25 Z" />
</g>
<g id="#f7f7f6ff">
<path fill="#f7f7f6" opacity="1.00" d=" M 3.43 49.87 C 2.90 37.72 3.67 25.55 3.34 13.38 C 11.51 16.15 20.47 15.91 28.82 14.11 C 29.38 14.52 29.94 14.93 30.50 15.34 C 26.78 18.30 25.76 23.12 23.66 27.15 C 23.75 27.73 23.91 28.87 24.00 29.44 C 23.90 29.80 23.71 30.51 23.62 30.87 C 22.77 33.83 23.04 37.03 24.77 39.63 C 24.14 41.55 23.49 43.48 22.97 45.45 C 21.20 42.85 19.06 40.53 16.78 38.37 C 15.52 39.23 14.27 40.10 13.00 40.95 C 14.36 42.14 15.71 43.35 17.25 44.32 C 17.29 45.55 17.71 46.83 18.73 47.60 C 19.38 48.57 21.31 48.10 20.51 46.80 C 19.93 45.44 18.54 44.80 17.25 44.32 L 16.58 40.91 C 18.76 42.81 20.16 45.71 23.06 46.68 C 23.82 48.24 23.28 51.19 21.06 51.01 C 16.61 51.15 11.97 51.70 7.66 50.36 C 6.67 47.68 6.79 44.77 6.68 41.96 C 6.62 33.23 5.57 24.55 4.49 15.89 C 2.19 27.14 5.27 38.63 3.43 49.87 M 17.12 19.39 C 14.73 21.77 12.75 24.54 10.67 27.18 L 12.26 27.37 C 14.79 25.16 16.70 22.35 18.81 19.76 C 18.39 19.67 17.54 19.49 17.12 19.39 M 16.96 25.00 L 17.36 25.07 C 18.62 24.17 20.43 22.72 20.28 21.05 C 18.61 21.18 16.91 23.37 16.96 25.00 M 15.45 29.91 C 16.03 30.06 16.62 30.17 17.22 30.25 C 19.69 27.70 21.87 24.85 23.51 21.69 C 19.45 22.39 18.15 27.26 15.45 29.91 M 16.50 24.89 C 15.27 25.63 13.70 27.10 13.94 28.65 C 15.48 28.65 17.33 26.54 16.96 25.00 L 16.50 24.89 M 10.72 40.85 C 12.27 43.97 14.44 46.76 16.73 49.37 C 17.28 49.40 18.37 49.48 18.91 49.52 C 16.45 46.50 14.67 42.08 10.72 40.85 Z" />
<path fill="#f7f7f6" opacity="1.00" d=" M 46.65 18.65 C 48.88 16.91 49.30 21.51 51.08 22.17 C 50.79 22.55 50.50 22.94 50.21 23.32 C 49.27 21.58 48.04 20.04 46.65 18.65 Z" />
</g>
<g id="#54514fff">
<path fill="#54514f" opacity="1.00" d=" M 45.07 17.57 C 45.71 16.54 46.28 15.47 46.88 14.42 C 49.10 17.17 51.20 20.02 53.41 22.78 C 52.26 23.58 51.13 24.39 50.03 25.26 C 47.56 22.70 45.33 19.94 43.09 17.18 L 44.64 15.65 L 45.07 17.57 M 46.65 18.65 C 48.04 20.04 49.27 21.58 50.21 23.32 C 50.50 22.94 50.79 22.55 51.08 22.17 C 49.30 21.51 48.88 16.91 46.65 18.65 Z" />
</g>
<g id="#d6d6d5ff">
<path fill="#d6d6d5" opacity="1.00" d=" M 4.49 15.89 C 5.57 24.55 6.62 33.23 6.68 41.96 C 6.79 44.77 6.67 47.68 7.66 50.36 C 11.97 51.70 16.61 51.15 21.06 51.01 C 23.28 51.19 23.82 48.24 23.06 46.68 C 23.04 46.37 22.99 45.76 22.97 45.45 C 23.49 43.48 24.14 41.55 24.77 39.63 C 26.07 40.48 27.40 41.29 28.78 42.02 C 27.66 45.14 26.57 48.26 25.46 51.39 C 25.91 51.42 26.81 51.49 27.25 51.53 C 19.42 53.19 10.78 53.58 3.29 50.36 L 3.43 49.87 C 5.27 38.63 2.19 27.14 4.49 15.89 Z" />
</g>
<g id="#3f3c3aff">
<path fill="#3f3c3a" opacity="1.00" d=" M 40.54 17.85 C 42.56 17.34 43.66 18.97 44.78 20.29 C 44.99 22.88 49.14 23.39 48.42 26.54 C 44.92 24.64 42.83 20.98 40.54 17.85 Z" />
<path fill="#3f3c3a" opacity="1.00" d=" M 46.58 34.59 C 46.91 34.42 47.58 34.07 47.92 33.90 L 48.55 35.03 C 46.45 37.41 44.54 39.92 42.88 42.63 C 42.38 42.68 41.39 42.77 40.89 42.82 C 41.61 39.64 44.68 37.25 46.58 34.59 Z" />
</g>
<g id="#5f5852ff">
<path fill="#5f5852" opacity="1.00" d=" M 17.12 19.39 C 17.54 19.49 18.39 19.67 18.81 19.76 C 16.70 22.35 14.79 25.16 12.26 27.37 L 10.67 27.18 C 12.75 24.54 14.73 21.77 17.12 19.39 Z" />
</g>
<g id="#1d1914ff">
<path fill="#1d1914" opacity="1.00" d=" M 16.96 25.00 C 16.91 23.37 18.61 21.18 20.28 21.05 C 20.43 22.72 18.62 24.17 17.36 25.07 L 16.96 25.00 Z" />
</g>
<g id="#413d3aff">
<path fill="#413d3a" opacity="1.00" d=" M 15.45 29.91 C 18.15 27.26 19.45 22.39 23.51 21.69 C 21.87 24.85 19.69 27.70 17.22 30.25 C 16.62 30.17 16.03 30.06 15.45 29.91 Z" />
</g>
<g id="#d33046ff">
<path fill="#d33046" opacity="1.00" d=" M 24.00 29.44 C 26.48 26.21 29.65 22.77 34.02 22.58 C 37.13 22.48 39.34 24.96 40.87 27.35 L 41.17 28.05 C 41.18 30.07 41.02 32.10 40.58 34.08 C 40.18 32.02 39.49 29.17 36.84 29.21 C 32.27 28.78 31.64 35.95 26.98 35.38 C 24.77 34.99 24.16 32.70 23.62 30.87 C 23.71 30.51 23.90 29.80 24.00 29.44 Z" />
</g>
<g id="#4a433cff">
<path fill="#4a433c" opacity="1.00" d=" M 16.50 24.89 L 16.96 25.00 C 17.33 26.54 15.48 28.65 13.94 28.65 C 13.70 27.10 15.27 25.63 16.50 24.89 Z" />
</g>
<g id="#003a73ff">
<path fill="#003a73" opacity="1.00" d=" M 26.98 35.38 C 31.64 35.95 32.27 28.78 36.84 29.21 C 39.49 29.17 40.18 32.02 40.58 34.08 C 39.51 36.17 37.99 38.00 36.32 39.64 C 34.10 41.18 31.49 42.04 28.78 42.02 C 27.40 41.29 26.07 40.48 24.77 39.63 C 23.04 37.03 22.77 33.83 23.62 30.87 C 24.16 32.70 24.77 34.99 26.98 35.38 Z" />
</g>
<g id="#1b1511ff">
<path fill="#1b1511" opacity="1.00" d=" M 47.27 39.13 C 47.17 37.73 48.79 35.90 50.23 36.05 C 50.38 37.43 48.71 39.42 47.27 39.13 Z" />
</g>
<g id="#3d3834ff">
<path fill="#3d3834" opacity="1.00" d=" M 51.56 37.32 C 54.51 36.58 51.51 41.54 49.77 40.75 C 49.10 39.41 50.60 38.06 51.56 37.32 Z" />
</g>
<g id="#44403cff">
<path fill="#44403c" opacity="1.00" d=" M 13.00 40.95 C 14.27 40.10 15.52 39.23 16.78 38.37 C 19.06 40.53 21.20 42.85 22.97 45.45 C 22.99 45.76 23.04 46.37 23.06 46.68 C 20.16 45.71 18.76 42.81 16.58 40.91 L 17.25 44.32 C 15.71 43.35 14.36 42.14 13.00 40.95 Z" />
</g>
<g id="#c5c3c1ff">
<path fill="#c5c3c1" opacity="1.00" d=" M 28.78 42.02 C 31.49 42.04 34.10 41.18 36.32 39.64 C 37.85 41.77 38.99 44.13 39.81 46.62 C 44.72 47.29 49.90 46.46 54.56 48.48 C 54.03 48.48 52.99 48.46 52.47 48.45 C 45.11 47.42 37.38 47.82 30.49 50.79 C 29.41 51.06 28.34 51.31 27.25 51.53 C 26.81 51.49 25.91 51.42 25.46 51.39 C 26.57 48.26 27.66 45.14 28.78 42.02 Z" />
</g>
<g id="#080201ff">
<path fill="#080201" opacity="1.00" d=" M 45.98 40.97 C 46.74 40.41 46.74 40.41 45.98 40.97 Z" />
</g>
<g id="#4d4844ff">
<path fill="#4d4844" opacity="1.00" d=" M 10.72 40.85 C 14.67 42.08 16.45 46.50 18.91 49.52 C 18.37 49.48 17.28 49.40 16.73 49.37 C 14.44 46.76 12.27 43.97 10.72 40.85 Z" />
</g>
<g id="#171614ff">
<path fill="#171614" opacity="1.00" d=" M 45.38 40.92 L 45.98 40.97 C 46.60 42.10 45.17 43.91 43.94 43.64 C 43.71 42.46 44.19 41.55 45.38 40.92 Z" />
</g>
<g id="#332f2cff">
<path fill="#332f2c" opacity="1.00" d=" M 48.65 41.25 C 50.65 41.91 47.75 45.48 46.19 44.89 C 45.63 43.39 47.40 41.84 48.65 41.25 Z" />
</g>
<g id="#2b2723ff">
<path fill="#2b2723" opacity="1.00" d=" M 17.25 44.32 C 18.54 44.80 19.93 45.44 20.51 46.80 C 21.31 48.10 19.38 48.57 18.73 47.60 C 17.71 46.83 17.29 45.55 17.25 44.32 Z" />
</g>
<g id="#5c5c5bbf">
<path fill="#5c5c5b" opacity="0.75" d=" M 30.49 50.79 C 37.38 47.82 45.11 47.42 52.47 48.45 C 45.07 48.52 37.71 49.17 30.49 50.79 Z" />
</g>
<g id="#00000033">
<path fill="#000000" opacity="0.20" d=" M 52.47 48.45 C 52.99 48.46 54.03 48.48 54.56 48.48 C 56.15 48.86 57.75 49.24 59.34 49.66 C 59.94 50.34 60.50 51.05 61.03 51.79 C 53.34 50.66 45.45 49.68 37.75 51.33 C 32.14 52.30 26.76 54.68 20.99 54.63 C 15.20 54.63 9.29 55.00 3.69 53.24 C 3.59 52.52 3.39 51.08 3.29 50.36 C 10.78 53.58 19.42 53.19 27.25 51.53 C 28.34 51.31 29.41 51.06 30.49 50.79 C 37.71 49.17 45.07 48.52 52.47 48.45 Z" />
</g>
</svg>
