<?xml version="1.0" encoding="UTF-8" ?>
<!DOCTYPE svg PUBLIC "-//W3C//DTD SVG 1.1//EN" "http://www.w3.org/Graphics/SVG/1.1/DTD/svg11.dtd">
<svg width="64pt" height="64pt" viewBox="0 0 64 64" version="1.1" xmlns="http://www.w3.org/2000/svg">
<g id="#015fe5ff">
<path fill="#015fe5" opacity="1.00" d=" M 13.38 3.49 C 24.91 3.17 36.47 3.45 48.02 3.35 C 54.46 2.83 60.71 8.39 60.66 14.91 C 60.74 26.30 60.68 37.70 60.65 49.09 C 60.82 55.25 55.16 60.83 49.02 60.70 C 37.67 60.72 26.31 60.73 14.96 60.70 C 8.85 60.83 3.20 55.27 3.35 49.14 C 3.32 37.73 3.27 26.32 3.34 14.92 C 3.31 9.33 7.92 4.29 13.38 3.49 M 7.14 12.78 C 6.87 13.08 6.34 13.67 6.07 13.96 C 6.53 18.86 5.11 24.85 9.31 28.48 C 10.37 28.55 11.42 28.62 12.47 28.70 C 12.55 26.88 12.82 25.07 13.50 23.37 C 16.23 23.93 20.00 22.50 21.88 25.13 C 19.22 25.26 16.55 25.16 13.89 25.13 C 13.86 26.67 13.83 28.20 13.79 29.73 C 16.38 29.68 18.96 29.66 21.55 29.63 C 21.59 32.80 21.59 35.97 21.50 39.14 C 23.18 39.10 24.85 39.04 26.52 38.96 C 26.40 35.85 26.43 32.75 26.45 29.64 C 30.19 29.67 33.93 29.67 37.67 29.63 C 37.59 33.74 37.76 38.23 35.23 41.72 C 33.04 44.91 29.36 46.52 25.80 47.67 C 26.84 49.06 27.86 50.46 28.86 51.88 C 33.09 50.21 37.30 47.84 39.76 43.87 C 42.44 39.65 42.37 34.45 42.52 29.62 C 45.04 29.65 47.56 29.67 50.07 29.85 C 52.87 29.19 56.13 28.09 57.15 25.08 C 57.97 21.51 57.66 17.79 57.88 14.15 L 57.39 13.64 C 56.12 9.60 52.55 6.15 48.13 6.21 C 37.75 6.04 27.35 6.15 16.97 6.16 C 12.72 5.90 8.20 8.50 7.14 12.78 Z" />
<path fill="#015fe5" opacity="1.00" d=" M 26.05 25.01 C 29.52 22.71 34.54 23.11 38.13 24.99 C 34.12 25.35 30.07 25.38 26.05 25.01 Z" />
<path fill="#015fe5" opacity="1.00" d=" M 42.52 24.51 C 44.89 23.74 47.45 23.82 49.81 24.57 L 49.82 24.88 C 47.42 25.32 44.92 25.45 42.53 24.88 L 42.52 24.51 Z" />
</g>
<g id="#ffffffff">
<path fill="#ffffff" opacity="1.00" d=" M 7.14 12.78 C 8.20 8.50 12.72 5.90 16.97 6.16 C 27.35 6.15 37.75 6.04 48.13 6.21 C 52.55 6.15 56.12 9.60 57.39 13.64 C 54.83 10.95 52.11 7.75 48.03 7.79 C 37.35 7.55 26.63 7.55 15.94 7.79 C 11.81 7.77 8.96 10.89 6.77 13.99 L 7.14 12.78 Z" />
<path fill="#ffffff" opacity="1.00" d=" M 21.64 18.00 C 23.21 18.00 24.78 18.00 26.35 18.00 C 26.28 20.34 26.22 22.68 26.05 25.01 C 30.07 25.38 34.12 25.35 38.13 24.99 C 38.01 22.66 37.93 20.33 37.85 18.01 C 39.38 18.01 40.92 18.00 42.45 18.00 C 42.45 20.17 42.46 22.34 42.52 24.51 L 42.53 24.88 C 44.92 25.45 47.42 25.32 49.82 24.88 C 49.91 26.54 49.99 28.19 50.07 29.85 C 47.56 29.67 45.04 29.65 42.52 29.62 C 42.37 34.45 42.44 39.65 39.76 43.87 C 37.30 47.84 33.09 50.21 28.86 51.88 C 27.86 50.46 26.84 49.06 25.80 47.67 C 29.36 46.52 33.04 44.91 35.23 41.72 C 37.76 38.23 37.59 33.74 37.67 29.63 C 33.93 29.67 30.19 29.67 26.45 29.64 C 26.43 32.75 26.40 35.85 26.52 38.96 C 24.85 39.04 23.18 39.10 21.50 39.14 C 21.59 35.97 21.59 32.80 21.55 29.63 C 18.96 29.66 16.38 29.68 13.79 29.73 C 13.83 28.20 13.86 26.67 13.89 25.13 C 16.55 25.16 19.22 25.26 21.88 25.13 C 21.76 22.75 21.71 20.38 21.64 18.00 Z" />
</g>
<g id="#51a5efff">
<path fill="#51a5ef" opacity="1.00" d=" M 6.77 13.99 C 8.96 10.89 11.81 7.77 15.94 7.79 C 26.63 7.55 37.35 7.55 48.03 7.79 C 52.11 7.75 54.83 10.95 57.39 13.64 L 57.88 14.15 C 57.66 17.79 57.97 21.51 57.15 25.08 C 56.13 28.09 52.87 29.19 50.07 29.85 C 49.99 28.19 49.91 26.54 49.82 24.88 L 49.81 24.57 C 47.45 23.82 44.89 23.74 42.52 24.51 C 42.46 22.34 42.45 20.17 42.45 18.00 C 40.92 18.00 39.38 18.01 37.85 18.01 C 37.93 20.33 38.01 22.66 38.13 24.99 C 34.54 23.11 29.52 22.71 26.05 25.01 C 26.22 22.68 26.28 20.34 26.35 18.00 C 24.78 18.00 23.21 18.00 21.64 18.00 C 21.71 20.38 21.76 22.75 21.88 25.13 C 20.00 22.50 16.23 23.93 13.50 23.37 C 12.82 25.07 12.55 26.88 12.47 28.70 C 11.42 28.62 10.37 28.55 9.31 28.48 C 5.11 24.85 6.53 18.86 6.07 13.96 C 6.34 13.67 6.87 13.08 7.14 12.78 L 6.77 13.99 Z" />
</g>
</svg>
