<?xml version="1.0" encoding="UTF-8" ?>
<!DOCTYPE svg PUBLIC "-//W3C//DTD SVG 1.1//EN" "http://www.w3.org/Graphics/SVG/1.1/DTD/svg11.dtd">
<svg width="64pt" height="64pt" viewBox="0 0 64 64" version="1.1" xmlns="http://www.w3.org/2000/svg">
<g id="#31445dd8">
<path fill="#31445d" opacity="0.85" d=" M 12.32 3.33 C 25.42 2.77 38.58 2.77 51.68 3.33 C 54.39 4.63 58.18 6.09 58.75 9.32 C 55.84 7.51 53.16 5.28 49.91 4.08 C 37.95 3.93 25.97 3.85 14.01 4.10 C 10.80 5.33 8.13 7.53 5.25 9.32 C 5.82 6.09 9.61 4.63 12.32 3.33 Z" />
<path fill="#31445d" opacity="0.85" d=" M 3.06 12.01 L 4.02 12.04 C 4.15 24.56 3.52 37.12 4.41 49.63 C 5.14 55.01 9.68 59.19 14.98 59.98 C 26.62 60.04 38.27 60.13 49.91 59.91 C 55.58 58.61 59.46 53.64 59.95 48.01 C 60.14 36.02 59.95 24.03 59.99 12.04 L 60.96 11.99 C 61.03 23.66 61.05 35.33 60.97 47.01 C 62.03 55.07 54.00 62.55 46.02 61.02 C 35.34 60.95 24.66 61.09 13.99 60.99 C 7.09 60.04 1.71 52.97 2.98 46.02 C 3.09 34.68 2.83 23.34 3.06 12.01 Z" />
<path fill="#31445d" opacity="0.85" d=" M 14.00 38.01 C 16.75 38.01 22.25 38.00 25.00 38.00 L 24.95 38.97 C 22.21 38.98 16.74 38.99 14.00 39.00 L 14.00 38.01 Z" />
<path fill="#31445d" opacity="0.85" d=" M 36.00 38.01 C 38.75 38.01 44.25 38.00 47.00 38.00 L 46.95 38.97 C 44.21 38.98 38.74 38.99 36.00 39.00 L 36.00 38.01 Z" />
</g>
<g id="#6284a4ff">
<path fill="#6284a4" opacity="1.00" d=" M 14.01 4.10 C 25.97 3.85 37.95 3.93 49.91 4.08 C 53.16 5.28 55.84 7.51 58.75 9.32 C 59.24 10.19 59.65 11.10 59.99 12.04 C 59.95 24.03 60.14 36.02 59.95 48.01 C 59.46 53.64 55.58 58.61 49.91 59.91 C 38.27 60.13 26.62 60.04 14.98 59.98 C 9.68 59.19 5.14 55.01 4.41 49.63 C 3.52 37.12 4.15 24.56 4.02 12.04 C 4.35 11.10 4.76 10.19 5.25 9.32 C 8.13 7.53 10.80 5.33 14.01 4.10 M 14.32 6.33 C 11.38 7.72 7.42 9.35 6.90 12.94 C 4.74 17.27 4.72 25.30 9.27 28.71 C 13.73 30.93 18.80 31.70 23.72 31.94 C 24.05 30.53 24.31 29.10 24.83 27.75 C 25.01 31.16 25.08 34.58 25.00 38.00 C 22.25 38.00 16.75 38.01 14.00 38.01 L 14.00 39.00 C 13.50 39.01 12.50 39.03 12.01 39.04 L 12.01 43.92 C 18.00 44.06 23.99 44.26 29.95 44.95 C 30.14 40.62 29.97 36.29 30.02 31.96 C 34.96 32.13 39.90 32.01 44.84 31.91 C 45.77 30.67 46.25 29.18 46.89 27.78 C 47.01 31.19 47.07 34.59 47.00 38.00 C 44.25 38.00 38.75 38.01 36.00 38.01 L 36.00 39.00 C 35.50 39.01 34.50 39.03 34.01 39.04 L 34.01 43.92 C 39.99 44.06 45.98 44.26 51.93 44.95 C 52.16 39.98 51.95 35.00 52.03 30.03 C 59.29 28.03 59.37 18.30 57.09 12.95 C 56.61 9.04 52.01 7.54 48.94 6.06 C 37.40 6.06 25.84 5.64 14.32 6.33 Z" />
<path fill="#6284a4" opacity="1.00" d=" M 13.17 19.45 C 18.73 19.86 24.32 19.99 29.90 20.10 L 29.96 21.04 C 24.20 21.00 18.44 20.96 12.69 20.75 C 12.81 20.43 13.05 19.78 13.17 19.45 Z" />
<path fill="#6284a4" opacity="1.00" d=" M 35.17 19.45 C 40.73 19.86 46.32 19.99 51.90 20.10 L 51.96 21.04 C 46.20 21.00 40.44 20.96 34.69 20.75 C 34.81 20.43 35.05 19.78 35.17 19.45 Z" />
</g>
<g id="#f6f8faff">
<path fill="#f6f8fa" opacity="1.00" d=" M 14.32 6.33 C 25.84 5.64 37.40 6.06 48.94 6.06 C 52.01 7.54 56.61 9.04 57.09 12.95 C 53.67 10.70 50.88 6.49 46.01 8.04 C 35.99 7.92 25.98 7.96 15.97 7.97 C 12.13 7.57 9.81 11.13 6.90 12.94 C 7.42 9.35 11.38 7.72 14.32 6.33 Z" />
<path fill="#f6f8fa" opacity="1.00" d=" M 11.96 25.91 C 12.14 24.62 12.50 22.04 12.69 20.75 C 18.44 20.96 24.20 21.00 29.96 21.04 C 30.11 24.68 29.96 28.32 30.02 31.96 C 29.97 36.29 30.14 40.62 29.95 44.95 C 23.99 44.26 18.00 44.06 12.01 43.92 L 12.01 39.04 C 12.50 39.03 13.50 39.01 14.00 39.00 C 16.74 38.99 22.21 38.98 24.95 38.97 L 25.00 38.00 C 25.08 34.58 25.01 31.16 24.83 27.75 C 24.83 27.33 24.81 26.50 24.80 26.08 C 20.53 25.82 16.24 26.08 11.96 25.91 Z" />
<path fill="#f6f8fa" opacity="1.00" d=" M 33.96 25.91 C 34.14 24.62 34.50 22.04 34.69 20.75 C 40.44 20.96 46.20 21.00 51.96 21.04 C 52.10 24.04 51.99 27.03 52.03 30.03 C 51.95 35.00 52.16 39.98 51.93 44.95 C 45.98 44.26 39.99 44.06 34.01 43.92 L 34.01 39.04 C 34.50 39.03 35.50 39.01 36.00 39.00 C 38.74 38.99 44.21 38.98 46.95 38.97 L 47.00 38.00 C 47.07 34.59 47.01 31.19 46.89 27.78 C 46.87 27.36 46.85 26.51 46.83 26.09 C 42.55 25.82 38.25 26.08 33.96 25.91 Z" />
</g>
<g id="#99b5d1ff">
<path fill="#99b5d1" opacity="1.00" d=" M 6.90 12.94 C 9.81 11.13 12.13 7.57 15.97 7.97 C 25.98 7.96 35.99 7.92 46.01 8.04 C 50.88 6.49 53.67 10.70 57.09 12.95 C 59.37 18.30 59.29 28.03 52.03 30.03 C 51.99 27.03 52.10 24.04 51.96 21.04 L 51.90 20.10 C 46.32 19.99 40.73 19.86 35.17 19.45 C 35.05 19.78 34.81 20.43 34.69 20.75 C 34.50 22.04 34.14 24.62 33.96 25.91 C 38.25 26.08 42.55 25.82 46.83 26.09 C 46.85 26.51 46.87 27.36 46.89 27.78 C 46.25 29.18 45.77 30.67 44.84 31.91 C 39.90 32.01 34.96 32.13 30.02 31.96 C 29.96 28.32 30.11 24.68 29.96 21.04 L 29.90 20.10 C 24.32 19.99 18.73 19.86 13.17 19.45 C 13.05 19.78 12.81 20.43 12.69 20.75 C 12.50 22.04 12.14 24.62 11.96 25.91 C 16.24 26.08 20.53 25.82 24.80 26.08 C 24.81 26.50 24.83 27.33 24.83 27.75 C 24.31 29.10 24.05 30.53 23.72 31.94 C 18.80 31.70 13.73 30.93 9.27 28.71 C 4.72 25.30 4.74 17.27 6.90 12.94 Z" />
</g>
</svg>
