<?xml version="1.0" encoding="UTF-8" ?>
<!DOCTYPE svg PUBLIC "-//W3C//DTD SVG 1.1//EN" "http://www.w3.org/Graphics/SVG/1.1/DTD/svg11.dtd">
<svg width="64pt" height="64pt" viewBox="0 0 64 64" version="1.1" xmlns="http://www.w3.org/2000/svg">
<g id="#00ac1fff">
<path fill="#00ac1f" opacity="1.00" d=" M 3.62 12.28 C 4.89 7.24 9.76 3.26 15.02 3.35 C 26.34 3.27 37.67 3.27 49.00 3.35 C 54.26 3.27 59.14 7.27 60.39 12.32 C 60.20 24.56 59.60 36.79 59.62 49.03 C 59.94 54.70 54.81 59.95 49.12 59.64 C 38.41 59.73 27.70 59.56 16.99 59.70 C 13.56 59.81 9.78 59.36 7.41 56.57 C 4.06 53.71 4.32 49.01 4.28 45.02 C 4.48 34.10 3.64 23.20 3.62 12.28 M 6.46 13.96 C 6.35 14.09 6.13 14.34 6.02 14.46 C 6.27 17.47 6.45 20.49 6.61 23.51 C 8.12 23.50 9.64 23.50 11.15 23.50 C 12.04 22.13 12.94 20.76 13.83 19.39 C 15.30 19.83 16.79 20.23 18.23 20.77 C 16.91 20.51 14.49 20.20 13.87 21.67 C 13.78 22.72 13.60 24.84 13.50 25.89 C 15.26 25.82 17.02 25.75 18.78 25.67 C 18.81 27.96 18.84 30.24 18.88 32.53 C 17.01 32.88 15.14 33.21 13.26 33.53 C 13.44 34.63 13.78 36.84 13.95 37.95 C 15.58 37.55 17.21 37.15 18.84 36.75 C 18.83 39.92 18.84 43.10 18.87 46.28 C 17.13 46.24 15.40 46.17 13.66 46.10 C 14.01 47.52 14.36 48.94 14.69 50.37 C 17.27 50.03 20.86 51.17 22.55 48.59 C 23.18 44.27 22.68 39.86 22.81 35.50 C 24.15 35.02 25.50 34.54 26.85 34.07 C 26.90 33.14 26.99 31.26 27.03 30.33 C 25.63 30.70 24.22 31.07 22.82 31.45 C 22.82 29.53 22.82 27.61 22.81 25.69 C 24.17 25.76 25.53 25.82 26.89 25.89 C 26.82 24.48 26.74 23.08 26.64 21.68 C 26.63 20.07 23.79 20.22 22.97 21.21 C 22.90 19.50 22.88 17.79 22.90 16.07 C 23.16 17.36 23.44 18.65 23.74 19.93 C 25.39 19.79 27.03 19.65 28.67 19.52 C 29.07 22.48 27.01 27.72 31.09 28.72 C 35.95 29.55 41.03 29.48 45.91 28.81 C 49.25 28.46 49.73 24.72 50.02 22.07 C 48.58 21.70 47.13 21.34 45.68 21.01 L 45.36 19.33 C 49.33 20.41 53.43 20.82 57.54 20.83 C 57.59 18.58 58.21 16.21 57.58 14.02 C 56.23 9.89 52.72 6.16 48.11 6.23 C 37.38 6.08 26.63 6.07 15.90 6.23 C 11.32 6.15 7.79 9.84 6.46 13.96 M 28.67 31.09 C 29.06 37.61 28.82 44.14 28.82 50.65 C 30.03 50.65 31.25 50.65 32.46 50.64 C 32.76 50.22 33.35 49.37 33.64 48.94 C 36.92 48.58 40.23 48.86 43.53 48.80 C 43.56 49.26 43.63 50.19 43.67 50.66 C 45.09 50.65 46.51 50.65 47.93 50.65 C 47.86 44.15 47.45 37.61 48.18 31.14 C 45.17 29.29 41.39 30.70 38.06 30.33 C 34.96 30.63 31.45 29.32 28.67 31.09 Z" />
<path fill="#00ac1f" opacity="1.00" d=" M 33.22 35.12 C 36.69 35.13 40.15 35.12 43.62 35.13 C 43.60 35.89 43.56 37.40 43.54 38.15 L 43.32 38.13 C 39.88 37.73 36.40 37.70 32.95 38.09 C 33.02 37.34 33.16 35.86 33.22 35.12 Z" />
<path fill="#00ac1f" opacity="1.00" d=" M 33.15 41.75 C 36.62 41.74 40.10 41.74 43.57 41.75 C 43.60 42.87 43.61 43.99 43.61 45.11 C 40.11 45.13 36.61 45.13 33.11 45.11 C 33.12 44.27 33.14 42.59 33.15 41.75 Z" />
</g>
<g id="#ffffffff">
<path fill="#ffffff" opacity="1.00" d=" M 6.46 13.96 C 7.79 9.84 11.32 6.15 15.90 6.23 C 26.63 6.07 37.38 6.08 48.11 6.23 C 52.72 6.16 56.23 9.89 57.58 14.02 C 56.10 12.25 54.60 10.45 52.67 9.17 C 50.07 7.55 46.89 7.68 43.94 7.60 C 35.96 7.65 27.98 7.65 19.99 7.60 C 17.27 7.66 14.39 7.59 11.89 8.84 C 9.69 10.07 8.14 12.13 6.46 13.96 Z" />
<path fill="#ffffff" opacity="1.00" d=" M 18.97 14.01 C 20.26 14.00 21.56 14.00 22.85 14.00 C 22.86 14.52 22.88 15.56 22.90 16.07 C 22.88 17.79 22.90 19.50 22.97 21.21 L 22.99 21.71 C 24.21 21.94 25.42 21.93 26.64 21.68 C 26.74 23.08 26.82 24.48 26.89 25.89 C 25.53 25.82 24.17 25.76 22.81 25.69 C 22.82 27.61 22.82 29.53 22.82 31.45 C 24.22 31.07 25.63 30.70 27.03 30.33 C 26.99 31.26 26.90 33.14 26.85 34.07 C 25.50 34.54 24.15 35.02 22.81 35.50 C 22.68 39.86 23.18 44.27 22.55 48.59 C 20.86 51.17 17.27 50.03 14.69 50.37 C 14.36 48.94 14.01 47.52 13.66 46.10 C 15.40 46.17 17.13 46.24 18.87 46.28 C 18.84 43.10 18.83 39.92 18.84 36.75 C 17.21 37.15 15.58 37.55 13.95 37.95 C 13.78 36.84 13.44 34.63 13.26 33.53 C 15.14 33.21 17.01 32.88 18.88 32.53 C 18.84 30.24 18.81 27.96 18.78 25.67 C 17.02 25.75 15.26 25.82 13.50 25.89 C 13.60 24.84 13.78 22.72 13.87 21.67 C 15.56 21.88 17.30 21.97 18.95 21.50 L 18.96 21.05 C 19.02 18.71 19.00 16.36 18.97 14.01 Z" />
<path fill="#ffffff" opacity="1.00" d=" M 28.67 19.52 C 28.74 17.65 28.77 15.78 28.83 13.92 C 30.13 14.37 31.43 14.37 32.74 13.91 C 32.79 15.46 32.83 17.01 32.87 18.55 C 37.35 17.88 41.77 16.79 45.95 15.03 C 46.92 16.13 47.89 17.22 48.87 18.32 C 47.70 18.66 46.53 19.00 45.36 19.33 C 41.27 20.49 37.06 21.11 32.89 21.96 C 32.78 22.45 32.57 23.43 32.46 23.91 C 35.71 26.33 40.27 25.33 44.03 24.96 C 44.53 24.66 45.53 24.06 46.02 23.77 C 45.94 22.84 45.83 21.92 45.68 21.01 C 47.13 21.34 48.58 21.70 50.02 22.07 C 49.73 24.72 49.25 28.46 45.91 28.81 C 41.03 29.48 35.95 29.55 31.09 28.72 C 27.01 27.72 29.07 22.48 28.67 19.52 Z" />
<path fill="#ffffff" opacity="1.00" d=" M 28.67 31.09 C 35.16 31.57 41.69 31.53 48.18 31.14 C 47.45 37.61 47.86 44.15 47.93 50.65 C 46.51 50.65 45.09 50.65 43.67 50.66 C 43.63 50.19 43.56 49.26 43.53 48.80 C 40.23 48.86 36.92 48.58 33.64 48.94 C 33.35 49.37 32.76 50.22 32.46 50.64 C 31.25 50.65 30.03 50.65 28.82 50.65 C 28.82 44.14 29.06 37.61 28.67 31.09 M 33.22 35.12 C 33.16 35.86 33.02 37.34 32.95 38.09 L 33.88 38.09 L 32.20 38.48 C 36.30 39.21 40.56 39.37 44.61 38.25 L 43.54 38.15 C 43.56 37.40 43.60 35.89 43.62 35.13 C 40.15 35.12 36.69 35.13 33.22 35.12 M 33.15 41.75 C 33.14 42.59 33.12 44.27 33.11 45.11 C 36.61 45.13 40.11 45.13 43.61 45.11 C 43.61 43.99 43.60 42.87 43.57 41.75 C 40.10 41.74 36.62 41.74 33.15 41.75 Z" />
</g>
<g id="#44d667ff">
<path fill="#44d667" opacity="1.00" d=" M 11.89 8.84 C 14.39 7.59 17.27 7.66 19.99 7.60 C 27.98 7.65 35.96 7.65 43.94 7.60 C 46.89 7.68 50.07 7.55 52.67 9.17 C 54.60 10.45 56.10 12.25 57.58 14.02 C 58.21 16.21 57.59 18.58 57.54 20.83 C 53.43 20.82 49.33 20.41 45.36 19.33 C 46.53 19.00 47.70 18.66 48.87 18.32 C 47.89 17.22 46.92 16.13 45.95 15.03 C 41.77 16.79 37.35 17.88 32.87 18.55 C 32.83 17.01 32.79 15.46 32.74 13.91 L 32.72 13.39 C 31.43 12.82 30.14 12.82 28.84 13.38 L 28.83 13.92 C 28.77 15.78 28.74 17.65 28.67 19.52 C 27.03 19.65 25.39 19.79 23.74 19.93 C 23.44 18.65 23.16 17.36 22.90 16.07 C 22.88 15.56 22.86 14.52 22.85 14.00 C 21.56 14.00 20.26 14.00 18.97 14.01 C 19.00 16.36 19.02 18.71 18.96 21.05 L 18.23 20.77 C 16.79 20.23 15.30 19.83 13.83 19.39 C 12.94 20.76 12.04 22.13 11.15 23.50 C 9.64 23.50 8.12 23.50 6.61 23.51 C 6.45 20.49 6.27 17.47 6.02 14.46 C 6.13 14.34 6.35 14.09 6.46 13.96 C 8.14 12.13 9.69 10.07 11.89 8.84 Z" />
<path fill="#44d667" opacity="1.00" d=" M 32.89 21.96 C 37.06 21.11 41.27 20.49 45.36 19.33 L 45.68 21.01 C 45.83 21.92 45.94 22.84 46.02 23.77 C 41.50 23.70 36.98 23.68 32.46 23.91 C 32.57 23.43 32.78 22.45 32.89 21.96 Z" />
</g>
<g id="#055610dc">
<path fill="#055610" opacity="0.86" d=" M 3.05 36.02 C 3.28 28.11 2.53 20.14 3.62 12.28 C 3.64 23.20 4.48 34.10 4.28 45.02 C 4.32 49.01 4.06 53.71 7.41 56.57 C 9.78 59.36 13.56 59.81 16.99 59.70 C 27.70 59.56 38.41 59.73 49.12 59.64 C 54.81 59.95 59.94 54.70 59.62 49.03 C 59.60 36.79 60.20 24.56 60.39 12.32 C 61.46 20.14 60.72 28.08 60.95 35.96 C 60.78 41.81 61.48 47.78 60.22 53.55 C 57.92 57.59 53.87 60.88 49.04 60.88 C 37.67 60.99 26.30 61.00 14.94 60.88 C 10.11 60.87 6.07 57.59 3.78 53.55 C 2.52 47.79 3.22 41.85 3.05 36.02 Z" />
<path fill="#055610" opacity="0.86" d=" M 28.84 13.38 C 30.14 12.82 31.43 12.82 32.72 13.39 L 32.74 13.91 C 31.43 14.37 30.13 14.37 28.83 13.92 L 28.84 13.38 Z" />
<path fill="#055610" opacity="0.86" d=" M 13.87 21.67 C 14.49 20.20 16.91 20.51 18.23 20.77 L 18.96 21.05 L 18.95 21.50 C 17.30 21.97 15.56 21.88 13.87 21.67 Z" />
<path fill="#055610" opacity="0.86" d=" M 22.97 21.21 C 23.79 20.22 26.63 20.07 26.64 21.68 C 25.42 21.93 24.21 21.94 22.99 21.71 L 22.97 21.21 Z" />
<path fill="#055610" opacity="0.86" d=" M 32.46 23.91 C 36.98 23.68 41.50 23.70 46.02 23.77 C 45.53 24.06 44.53 24.66 44.03 24.96 C 40.27 25.33 35.71 26.33 32.46 23.91 Z" />
<path fill="#055610" opacity="0.86" d=" M 28.67 31.09 C 31.45 29.32 34.96 30.63 38.06 30.33 C 41.39 30.70 45.17 29.29 48.18 31.14 C 41.69 31.53 35.16 31.57 28.67 31.09 Z" />
</g>
<g id="#bedec5ff">
<path fill="#bedec5" opacity="1.00" d=" M 33.88 38.09 C 37.03 37.98 40.18 38.02 43.32 38.13 L 43.54 38.15 L 44.61 38.25 C 40.56 39.37 36.30 39.21 32.20 38.48 L 33.88 38.09 Z" />
</g>
<g id="#00000022">
<path fill="#000000" opacity="0.13" d=" M 3.78 53.55 C 6.07 57.59 10.11 60.87 14.94 60.88 C 26.30 61.00 37.67 60.99 49.04 60.88 C 53.87 60.88 57.92 57.59 60.22 53.55 C 59.57 55.89 59.15 58.54 57.31 60.30 C 55.45 62.06 53.05 63.08 50.70 64.00 L 13.30 64.00 C 8.38 62.63 4.18 58.89 3.78 53.55 Z" />
</g>
</svg>
