<?xml version="1.0" encoding="UTF-8" ?>
<!DOCTYPE svg PUBLIC "-//W3C//DTD SVG 1.1//EN" "http://www.w3.org/Graphics/SVG/1.1/DTD/svg11.dtd">
<svg width="64pt" height="64pt" viewBox="0 0 64 64" version="1.1" xmlns="http://www.w3.org/2000/svg">
<g id="#de2404ff">
<path fill="#de2404" opacity="1.00" d=" M 14.26 3.36 C 25.84 3.25 37.42 3.32 49.00 3.33 C 55.15 3.23 60.74 8.76 60.71 14.92 C 60.76 26.28 60.70 37.64 60.68 49.00 C 60.88 55.24 55.17 60.88 48.96 60.71 C 37.65 60.73 26.34 60.73 15.03 60.71 C 8.85 60.87 3.16 55.29 3.32 49.09 C 3.30 37.69 3.24 26.29 3.29 14.89 C 3.28 9.01 8.40 3.66 14.26 3.36 M 6.74 13.63 L 6.10 13.95 C 6.77 18.29 5.40 23.23 7.99 27.07 C 10.47 28.45 13.44 30.84 16.36 29.97 C 16.54 30.29 16.90 30.91 17.08 31.23 C 18.76 31.33 20.45 31.36 22.14 31.35 C 21.93 38.32 22.50 45.33 21.78 52.27 C 23.26 52.28 24.75 52.28 26.23 52.27 C 25.60 45.65 26.20 38.99 25.94 32.36 C 28.87 32.35 31.79 32.35 34.72 32.33 C 34.52 35.38 35.10 38.58 34.46 41.55 C 33.88 41.52 32.72 41.44 32.14 41.41 C 32.21 39.43 32.26 37.45 32.28 35.47 C 31.35 35.46 29.50 35.46 28.57 35.46 C 28.82 39.34 28.74 43.23 28.61 47.12 C 29.49 47.12 31.24 47.12 32.12 47.13 C 32.17 46.61 32.26 45.59 32.30 45.08 C 36.50 45.17 40.69 45.09 44.88 45.18 C 44.94 41.98 44.65 38.75 45.17 35.57 C 44.21 35.57 42.30 35.56 41.34 35.55 C 41.46 37.53 41.50 39.51 41.47 41.48 C 40.80 41.48 39.47 41.46 38.80 41.45 C 38.82 38.41 38.82 35.37 38.82 32.33 C 41.73 32.29 44.64 32.29 47.55 32.28 C 47.47 37.47 47.76 42.69 47.39 47.87 C 45.66 47.88 43.94 47.80 42.22 47.64 C 42.58 49.00 42.94 50.36 43.30 51.72 C 45.96 51.43 50.32 52.83 51.49 49.58 C 51.74 42.62 51.34 35.64 51.72 28.68 C 47.43 28.96 43.13 28.79 38.83 28.82 C 38.82 28.26 38.80 27.14 38.79 26.58 C 43.16 26.78 47.53 26.48 51.89 26.79 C 52.57 27.48 53.25 28.18 53.94 28.87 C 58.95 25.70 57.31 19.26 57.83 14.30 C 57.72 14.20 57.52 14.01 57.42 13.91 C 56.30 9.72 52.54 6.17 48.06 6.21 C 37.34 6.10 26.63 6.09 15.91 6.21 C 11.58 6.19 7.81 9.53 6.74 13.63 M 16.81 34.07 C 15.40 38.73 14.37 43.61 11.77 47.79 C 12.99 48.92 14.08 50.25 15.58 51.04 C 17.78 46.46 18.86 41.48 20.32 36.65 C 19.16 35.78 17.99 34.92 16.81 34.07 Z" />
<path fill="#de2404" opacity="1.00" d=" M 32.85 14.42 C 35.19 14.28 37.67 13.86 39.95 14.50 C 38.73 16.36 34.95 15.11 32.87 14.86 L 32.85 14.42 Z" />
<path fill="#de2404" opacity="1.00" d=" M 32.81 19.61 C 35.41 19.62 38.02 19.64 40.62 19.56 C 40.66 20.45 40.69 21.35 40.73 22.24 C 38.10 22.27 35.46 22.28 32.83 22.25 C 32.82 21.37 32.82 20.49 32.81 19.61 Z" />
<path fill="#de2404" opacity="1.00" d=" M 44.79 20.57 C 47.80 20.57 50.81 20.53 53.81 20.64 L 53.77 22.13 C 50.79 22.21 47.81 22.29 44.83 22.25 L 44.79 20.57 Z" />
<path fill="#de2404" opacity="1.00" d=" M 19.85 27.41 C 24.27 27.02 28.71 27.16 33.14 27.20 C 33.63 27.52 34.60 28.18 35.09 28.50 C 30.75 29.13 26.35 28.76 21.99 28.76 L 19.85 27.41 Z" />
</g>
<g id="#ffffffff">
<path fill="#ffffff" opacity="1.00" d=" M 6.74 13.63 C 7.81 9.53 11.58 6.19 15.91 6.21 C 26.63 6.09 37.34 6.10 48.06 6.21 C 52.54 6.17 56.30 9.72 57.42 13.91 C 55.12 11.26 52.84 8.10 48.99 7.82 C 39.02 7.36 29.01 7.76 19.02 7.61 C 15.69 7.51 11.96 7.95 9.54 10.49 C 8.53 11.47 7.98 12.90 6.74 13.63 Z" />
<path fill="#ffffff" opacity="1.00" d=" M 11.79 14.19 C 12.75 13.29 13.74 12.42 14.89 11.77 C 16.83 13.44 18.71 15.19 20.44 17.08 C 20.87 16.78 21.72 16.19 22.15 15.89 C 24.36 15.96 26.58 15.96 28.80 15.85 C 28.82 15.06 28.88 13.47 28.91 12.67 C 29.83 12.65 31.68 12.60 32.60 12.57 C 32.66 13.03 32.79 13.96 32.85 14.42 L 32.87 14.86 L 32.90 15.88 C 35.54 15.79 38.19 15.77 40.84 15.80 C 40.86 15.01 40.89 13.42 40.91 12.63 C 42.21 12.64 43.51 12.65 44.81 12.66 C 44.82 13.48 44.82 15.10 44.83 15.92 C 47.29 15.96 49.74 15.94 52.20 15.84 C 52.33 17.08 52.42 18.32 52.48 19.55 C 49.91 19.45 47.33 19.40 44.76 19.41 L 44.79 20.57 L 44.83 22.25 C 47.81 22.29 50.79 22.21 53.77 22.13 C 53.74 23.40 53.71 24.68 53.69 25.96 C 48.72 25.72 43.75 25.77 38.78 25.78 L 38.79 26.58 C 38.80 27.14 38.82 28.26 38.83 28.82 C 43.13 28.79 47.43 28.96 51.72 28.68 C 51.34 35.64 51.74 42.62 51.49 49.58 C 50.32 52.83 45.96 51.43 43.30 51.72 C 42.94 50.36 42.58 49.00 42.22 47.64 C 43.94 47.80 45.66 47.88 47.39 47.87 C 47.76 42.69 47.47 37.47 47.55 32.28 C 44.64 32.29 41.73 32.29 38.82 32.33 C 38.82 35.37 38.82 38.41 38.80 41.45 C 39.47 41.46 40.80 41.48 41.47 41.48 C 41.50 39.51 41.46 37.53 41.34 35.55 C 42.30 35.56 44.21 35.57 45.17 35.57 C 44.65 38.75 44.94 41.98 44.88 45.18 C 40.69 45.09 36.50 45.17 32.30 45.08 C 32.26 45.59 32.17 46.61 32.12 47.13 C 31.24 47.12 29.49 47.12 28.61 47.12 C 28.74 43.23 28.82 39.34 28.57 35.46 C 29.50 35.46 31.35 35.46 32.28 35.47 C 32.26 37.45 32.21 39.43 32.14 41.41 C 32.72 41.44 33.88 41.52 34.46 41.55 C 35.10 38.58 34.52 35.38 34.72 32.33 C 31.79 32.35 28.87 32.35 25.94 32.36 C 26.20 38.99 25.60 45.65 26.23 52.27 C 24.75 52.28 23.26 52.28 21.78 52.27 C 22.50 45.33 21.93 38.32 22.14 31.35 C 22.10 30.70 22.03 29.41 21.99 28.76 C 26.35 28.76 30.75 29.13 35.09 28.50 L 35.09 28.50 C 35.04 27.83 34.93 26.48 34.88 25.81 C 29.92 25.73 24.96 25.74 20.01 25.95 C 20.01 24.68 20.01 23.42 20.00 22.16 C 23.02 22.31 26.04 22.52 29.05 22.24 C 29.02 21.58 28.96 20.24 28.93 19.58 C 26.04 19.20 23.10 19.72 20.24 19.12 C 19.83 19.55 19.01 20.41 18.60 20.84 C 16.50 18.46 14.27 16.18 11.79 14.19 M 32.81 19.61 C 32.82 20.49 32.82 21.37 32.83 22.25 C 35.46 22.28 38.10 22.27 40.73 22.24 C 40.69 21.35 40.66 20.45 40.62 19.56 C 38.02 19.64 35.41 19.62 32.81 19.61 Z" />
<path fill="#ffffff" opacity="1.00" d=" M 10.78 24.40 C 11.77 23.62 12.47 22.18 13.78 22.00 C 16.14 23.73 18.08 25.96 20.17 28.00 C 19.18 29.11 18.14 30.18 17.08 31.23 C 16.90 30.91 16.54 30.29 16.36 29.97 C 14.87 27.78 12.74 26.15 10.78 24.40 Z" />
<path fill="#ffffff" opacity="1.00" d=" M 16.81 34.07 C 17.99 34.92 19.16 35.78 20.32 36.65 C 18.86 41.48 17.78 46.46 15.58 51.04 C 14.08 50.25 12.99 48.92 11.77 47.79 C 14.37 43.61 15.40 38.73 16.81 34.07 Z" />
</g>
<g id="#fd685cff">
<path fill="#fd685c" opacity="1.00" d=" M 9.54 10.49 C 11.96 7.95 15.69 7.51 19.02 7.61 C 29.01 7.76 39.02 7.36 48.99 7.82 C 52.84 8.10 55.12 11.26 57.42 13.91 C 57.52 14.01 57.72 14.20 57.83 14.30 C 57.31 19.26 58.95 25.70 53.94 28.87 C 53.25 28.18 52.57 27.48 51.89 26.79 C 47.53 26.48 43.16 26.78 38.79 26.58 L 38.78 25.78 C 43.75 25.77 48.72 25.72 53.69 25.96 C 53.71 24.68 53.74 23.40 53.77 22.13 L 53.81 20.64 C 50.81 20.53 47.80 20.57 44.79 20.57 L 44.76 19.41 C 47.33 19.40 49.91 19.45 52.48 19.55 C 52.42 18.32 52.33 17.08 52.20 15.84 C 49.74 15.94 47.29 15.96 44.83 15.92 C 44.82 15.10 44.82 13.48 44.81 12.66 C 43.51 12.65 42.21 12.64 40.91 12.63 C 40.89 13.42 40.86 15.01 40.84 15.80 C 38.19 15.77 35.54 15.79 32.90 15.88 L 32.87 14.86 C 34.95 15.11 38.73 16.36 39.95 14.50 C 37.67 13.86 35.19 14.28 32.85 14.42 C 32.79 13.96 32.66 13.03 32.60 12.57 C 31.68 12.60 29.83 12.65 28.91 12.67 C 28.88 13.47 28.82 15.06 28.80 15.85 C 26.58 15.96 24.36 15.96 22.15 15.89 C 21.72 16.19 20.87 16.78 20.44 17.08 C 18.71 15.19 16.83 13.44 14.89 11.77 C 13.74 12.42 12.75 13.29 11.79 14.19 C 14.27 16.18 16.50 18.46 18.60 20.84 C 19.01 20.41 19.83 19.55 20.24 19.12 C 23.10 19.72 26.04 19.20 28.93 19.58 C 28.96 20.24 29.02 21.58 29.05 22.24 C 26.04 22.52 23.02 22.31 20.00 22.16 C 20.01 23.42 20.01 24.68 20.01 25.95 C 24.96 25.74 29.92 25.73 34.88 25.81 C 34.93 26.48 35.04 27.83 35.09 28.50 L 35.09 28.50 C 34.60 28.18 33.63 27.52 33.14 27.20 C 28.71 27.16 24.27 27.02 19.85 27.41 L 21.99 28.76 C 22.03 29.41 22.10 30.70 22.14 31.35 C 20.45 31.36 18.76 31.33 17.08 31.23 C 18.14 30.18 19.18 29.11 20.17 28.00 C 18.08 25.96 16.14 23.73 13.78 22.00 C 12.47 22.18 11.77 23.62 10.78 24.40 C 12.74 26.15 14.87 27.78 16.36 29.97 C 13.44 30.84 10.47 28.45 7.99 27.07 C 5.40 23.23 6.77 18.29 6.10 13.95 L 6.74 13.63 C 7.98 12.90 8.53 11.47 9.54 10.49 Z" />
</g>
</svg>
