<?xml version="1.0" encoding="UTF-8" ?>
<!DOCTYPE svg PUBLIC "-//W3C//DTD SVG 1.1//EN" "http://www.w3.org/Graphics/SVG/1.1/DTD/svg11.dtd">
<svg width="64pt" height="64pt" viewBox="0 0 64 64" version="1.1" xmlns="http://www.w3.org/2000/svg">
<g id="#d12266ff">
<path fill="#d12266" opacity="1.00" d=" M 3.51 12.66 C 4.63 7.44 9.60 3.29 14.98 3.32 C 26.29 3.27 37.61 3.27 48.92 3.32 C 54.34 3.24 59.39 7.43 60.49 12.70 C 60.10 22.79 60.45 32.90 59.95 42.98 C 59.80 45.82 60.14 48.64 60.50 51.44 C 60.45 51.78 60.35 52.45 60.30 52.78 C 58.19 57.08 54.10 60.81 49.05 60.69 C 37.71 60.74 26.36 60.73 15.02 60.69 C 9.95 60.83 5.82 57.10 3.71 52.78 C 3.65 52.44 3.55 51.76 3.50 51.43 C 4.40 45.66 3.73 39.83 3.77 34.03 C 3.70 26.90 3.76 19.78 3.51 12.66 M 11.58 7.11 C 7.54 6.80 4.96 11.47 4.75 15.01 C 4.54 26.35 5.16 37.69 5.35 49.02 C 5.27 54.44 10.56 59.43 15.99 58.70 C 26.69 58.62 37.39 58.64 48.09 58.74 C 53.52 59.42 58.65 54.41 58.65 49.05 C 58.85 37.69 59.51 26.33 59.18 14.97 C 59.04 11.42 56.51 6.69 52.42 7.12 C 50.05 6.15 47.44 6.15 44.92 6.12 C 36.61 6.14 28.31 6.15 20.00 6.12 C 17.18 6.14 14.25 6.05 11.58 7.11 Z" />
</g>
<g id="#ffffffff">
<path fill="#ffffff" opacity="1.00" d=" M 11.58 7.11 C 14.25 6.05 17.18 6.14 20.00 6.12 C 28.31 6.15 36.61 6.14 44.92 6.12 C 47.44 6.15 50.05 6.15 52.42 7.12 C 54.29 8.66 56.21 10.37 57.02 12.73 C 57.04 12.97 57.09 13.45 57.11 13.69 C 55.57 11.94 54.28 9.80 52.10 8.78 C 49.61 7.55 46.76 7.63 44.06 7.58 C 36.03 7.63 27.99 7.63 19.96 7.58 C 17.04 7.64 13.85 7.52 11.27 9.14 C 9.52 10.44 8.11 12.12 6.54 13.63 C 7.54 11.00 9.34 8.79 11.58 7.11 Z" />
<path fill="#ffffff" opacity="1.00" d=" M 23.58 13.28 C 24.98 13.52 26.45 13.55 27.81 13.09 C 27.83 13.55 27.87 14.46 27.89 14.91 L 27.96 16.48 C 30.75 16.47 33.55 16.40 36.33 16.25 C 36.40 18.79 36.44 21.32 36.37 23.86 C 35.42 24.58 34.51 25.36 33.65 26.18 C 31.20 26.59 26.59 25.04 27.34 29.14 C 29.73 29.14 32.12 29.13 34.52 29.12 C 34.50 30.19 34.49 31.26 34.48 32.33 C 32.12 32.31 29.77 32.31 27.41 32.34 C 27.51 33.30 27.61 34.25 27.71 35.21 C 30.52 35.16 33.34 35.11 36.15 35.04 C 36.20 36.25 36.24 37.46 36.29 38.67 C 28.96 38.49 21.63 38.53 14.30 38.66 C 14.29 37.46 14.28 36.26 14.28 35.06 C 17.46 35.12 20.65 35.15 23.84 35.12 C 23.82 34.41 23.78 33.00 23.76 32.29 C 21.31 32.29 18.87 32.29 16.43 32.30 C 16.45 31.48 16.49 29.85 16.51 29.03 C 18.90 29.10 21.30 29.19 23.70 29.16 C 23.72 28.79 23.75 28.04 23.77 27.66 C 23.77 27.33 23.78 26.67 23.78 26.34 C 20.59 26.35 17.33 26.21 14.60 24.35 C 14.74 21.60 14.76 18.82 14.00 16.15 C 17.16 16.42 20.34 16.48 23.51 16.45 L 23.53 14.95 C 23.54 14.53 23.57 13.70 23.58 13.28 M 18.85 19.71 L 18.53 20.32 L 18.52 20.26 C 18.46 20.84 18.33 21.99 18.27 22.56 C 20.00 22.80 22.00 23.59 23.54 22.37 C 26.27 20.38 29.14 23.89 32.24 22.76 C 32.46 21.97 32.66 21.18 32.84 20.38 L 33.13 20.09 C 28.43 18.54 23.64 20.00 18.85 19.71 Z" />
<path fill="#ffffff" opacity="1.00" d=" M 44.38 16.04 C 45.98 16.03 47.57 16.02 49.16 16.01 L 49.20 16.43 C 48.78 19.45 48.59 22.51 48.74 25.56 C 48.55 33.58 49.10 41.64 48.44 49.62 C 46.68 52.90 42.17 51.39 39.14 51.74 C 38.79 50.39 38.44 49.05 38.11 47.70 C 40.15 47.91 42.19 48.02 44.24 48.05 C 44.34 47.58 44.52 46.65 44.62 46.18 C 44.75 41.55 44.57 36.92 44.62 32.29 C 44.93 26.88 45.02 21.43 44.38 16.04 Z" />
<path fill="#ffffff" opacity="1.00" d=" M 38.40 18.16 C 39.77 18.18 41.14 18.17 42.51 18.12 C 42.36 26.35 42.17 34.59 42.36 42.82 C 40.94 42.81 39.52 42.80 38.11 42.79 C 38.14 41.44 38.18 40.09 38.21 38.73 C 38.40 31.88 37.93 25.01 38.40 18.16 Z" />
<path fill="#ffffff" opacity="1.00" d=" M 16.75 41.14 C 22.59 41.22 28.44 41.22 34.28 41.15 C 34.20 45.17 34.18 49.19 34.33 53.21 C 33.47 53.20 31.76 53.17 30.91 53.16 C 28.46 51.02 24.95 51.94 21.99 52.00 C 20.76 53.81 18.67 53.66 16.75 53.70 C 16.92 49.52 16.91 45.33 16.75 41.14 M 21.01 44.53 C 21.04 45.15 21.11 46.37 21.14 46.98 L 20.71 48.26 C 23.71 49.55 27.15 48.86 30.27 48.39 L 30.11 46.98 C 30.12 46.36 30.14 45.12 30.14 44.51 C 27.10 44.47 24.05 44.48 21.01 44.53 Z" />
</g>
<g id="#e42a76ff">
<path fill="#e42a76" opacity="1.00" d=" M 4.75 15.01 C 4.96 11.47 7.54 6.80 11.58 7.11 C 9.34 8.79 7.54 11.00 6.54 13.63 C 6.40 14.63 6.31 15.63 6.25 16.63 C 6.16 19.76 5.72 23.05 6.83 26.06 C 8.15 28.99 11.58 29.71 14.34 30.62 C 15.94 26.63 20.32 27.50 23.77 27.66 C 23.75 28.04 23.72 28.79 23.70 29.16 C 21.30 29.19 18.90 29.10 16.51 29.03 C 16.49 29.85 16.45 31.48 16.43 32.30 C 18.87 32.29 21.31 32.29 23.76 32.29 C 23.78 33.00 23.82 34.41 23.84 35.12 C 20.65 35.15 17.46 35.12 14.28 35.06 C 14.28 36.26 14.29 37.46 14.30 38.66 C 21.63 38.53 28.96 38.49 36.29 38.67 C 36.77 38.69 37.73 38.72 38.21 38.73 C 38.18 40.09 38.14 41.44 38.11 42.79 C 39.52 42.80 40.94 42.81 42.36 42.82 C 42.17 34.59 42.36 26.35 42.51 18.12 L 43.41 17.69 C 43.86 22.54 42.84 27.65 44.62 32.29 C 44.57 36.92 44.75 41.55 44.62 46.18 C 42.34 46.22 40.06 46.24 37.78 46.35 C 37.86 46.69 38.03 47.36 38.11 47.70 C 38.44 49.05 38.79 50.39 39.14 51.74 C 42.17 51.39 46.68 52.90 48.44 49.62 C 49.10 41.64 48.55 33.58 48.74 25.56 C 49.25 27.12 49.82 28.66 50.38 30.21 C 52.98 29.58 55.96 28.75 57.17 26.09 C 58.28 23.09 57.83 19.78 57.82 16.65 C 57.81 15.31 57.51 13.98 57.02 12.73 C 56.21 10.37 54.29 8.66 52.42 7.12 C 56.51 6.69 59.04 11.42 59.18 14.97 C 59.51 26.33 58.85 37.69 58.65 49.05 C 58.65 54.41 53.52 59.42 48.09 58.74 C 37.39 58.64 26.69 58.62 15.99 58.70 C 10.56 59.43 5.27 54.44 5.35 49.02 C 5.16 37.69 4.54 26.35 4.75 15.01 M 16.57 39.97 L 16.75 41.14 C 16.91 45.33 16.92 49.52 16.75 53.70 C 18.67 53.66 20.76 53.81 21.99 52.00 C 24.95 51.94 28.46 51.02 30.91 53.16 C 31.76 53.17 33.47 53.20 34.33 53.21 C 34.18 49.19 34.20 45.17 34.28 41.15 L 34.42 39.92 C 28.47 39.95 22.52 39.99 16.57 39.97 Z" />
</g>
<g id="#ff72adff">
<path fill="#ff72ad" opacity="1.00" d=" M 11.27 9.14 C 13.85 7.52 17.04 7.64 19.96 7.58 C 27.99 7.63 36.03 7.63 44.06 7.58 C 46.76 7.63 49.61 7.55 52.10 8.78 C 54.28 9.80 55.57 11.94 57.11 13.69 C 57.09 13.45 57.04 12.97 57.02 12.73 C 57.51 13.98 57.81 15.31 57.82 16.65 C 57.39 18.55 56.88 20.43 56.40 22.32 C 54.45 21.90 52.46 21.75 50.53 22.31 C 50.26 20.31 49.80 18.35 49.20 16.43 L 49.16 16.01 C 49.11 15.54 49.01 14.62 48.96 14.15 C 47.36 14.12 45.76 14.15 44.17 14.18 C 44.22 14.64 44.33 15.57 44.38 16.04 C 45.02 21.43 44.93 26.88 44.62 32.29 C 42.84 27.65 43.86 22.54 43.41 17.69 L 42.51 18.12 C 41.14 18.17 39.77 18.18 38.40 18.16 C 37.93 17.07 37.45 15.99 36.97 14.90 C 33.94 14.87 30.92 14.87 27.89 14.91 C 27.87 14.46 27.83 13.55 27.81 13.09 L 27.79 12.59 C 26.62 11.82 23.76 11.32 23.58 13.28 C 23.57 13.70 23.54 14.53 23.53 14.95 C 20.68 14.96 17.83 14.91 14.98 15.00 C 14.73 15.29 14.24 15.86 14.00 16.15 C 13.21 17.81 12.77 19.61 12.30 21.37 C 10.70 21.73 9.11 22.08 7.52 22.42 C 7.10 20.49 6.64 18.57 6.25 16.63 C 6.31 15.63 6.40 14.63 6.54 13.63 C 8.11 12.12 9.52 10.44 11.27 9.14 Z" />
</g>
<g id="#9e3c64ff">
<path fill="#9e3c64" opacity="1.00" d=" M 23.58 13.28 C 23.76 11.32 26.62 11.82 27.79 12.59 L 27.81 13.09 C 26.45 13.55 24.98 13.52 23.58 13.28 Z" />
</g>
<g id="#8a1134cd">
<path fill="#8a1134" opacity="0.80" d=" M 3.07 31.97 C 3.27 25.54 2.62 19.05 3.51 12.66 C 3.76 19.78 3.70 26.90 3.77 34.03 C 3.73 39.83 4.40 45.66 3.50 51.43 C 2.55 44.98 3.26 38.46 3.07 31.97 Z" />
<path fill="#8a1134" opacity="0.80" d=" M 60.49 12.70 C 61.32 18.10 60.78 23.57 60.92 29.00 C 60.71 36.48 61.52 44.01 60.50 51.44 C 60.14 48.64 59.80 45.82 59.95 42.98 C 60.45 32.90 60.10 22.79 60.49 12.70 Z" />
</g>
<g id="#a95d7dff">
<path fill="#a95d7d" opacity="1.00" d=" M 44.17 14.18 C 45.76 14.15 47.36 14.12 48.96 14.15 C 49.01 14.62 49.11 15.54 49.16 16.01 C 47.57 16.02 45.98 16.03 44.38 16.04 C 44.33 15.57 44.22 14.64 44.17 14.18 Z" />
</g>
<g id="#90355aff">
<path fill="#90355a" opacity="1.00" d=" M 14.00 16.15 C 14.24 15.86 14.73 15.29 14.98 15.00 C 17.83 14.91 20.68 14.96 23.53 14.95 L 23.51 16.45 C 20.34 16.48 17.16 16.42 14.00 16.15 Z" />
</g>
<g id="#ec3f88ff">
<path fill="#ec3f88" opacity="1.00" d=" M 27.89 14.91 C 30.92 14.87 33.94 14.87 36.97 14.90 C 37.45 15.99 37.93 17.07 38.40 18.16 C 37.93 25.01 38.40 31.88 38.21 38.73 C 37.73 38.72 36.77 38.69 36.29 38.67 C 36.24 37.46 36.20 36.25 36.15 35.04 C 33.34 35.11 30.52 35.16 27.71 35.21 C 27.61 34.25 27.51 33.30 27.41 32.34 C 29.77 32.31 32.12 32.31 34.48 32.33 C 34.49 31.26 34.50 30.19 34.52 29.12 C 32.12 29.13 29.73 29.14 27.34 29.14 C 26.59 25.04 31.20 26.59 33.65 26.18 C 34.51 25.36 35.42 24.58 36.37 23.86 C 36.44 21.32 36.40 18.79 36.33 16.25 C 33.55 16.40 30.75 16.47 27.96 16.48 L 27.89 14.91 Z" />
</g>
<g id="#fb5298ff">
<path fill="#fb5298" opacity="1.00" d=" M 12.30 21.37 C 12.77 19.61 13.21 17.81 14.00 16.15 C 14.76 18.82 14.74 21.60 14.60 24.35 C 17.33 26.21 20.59 26.35 23.78 26.34 C 23.78 26.67 23.77 27.33 23.77 27.66 C 20.32 27.50 15.94 26.63 14.34 30.62 C 11.58 29.71 8.15 28.99 6.83 26.06 C 5.72 23.05 6.16 19.76 6.25 16.63 C 6.64 18.57 7.10 20.49 7.52 22.42 C 9.11 22.08 10.70 21.73 12.30 21.37 Z" />
<path fill="#fb5298" opacity="1.00" d=" M 49.20 16.43 C 49.80 18.35 50.26 20.31 50.53 22.31 C 52.46 21.75 54.45 21.90 56.40 22.32 C 56.88 20.43 57.39 18.55 57.82 16.65 C 57.83 19.78 58.28 23.09 57.17 26.09 C 55.96 28.75 52.98 29.58 50.38 30.21 C 49.82 28.66 49.25 27.12 48.74 25.56 C 48.59 22.51 48.78 19.45 49.20 16.43 Z" />
</g>
<g id="#ff60a4ff">
<path fill="#ff60a4" opacity="1.00" d=" M 18.85 19.71 C 23.64 20.00 28.43 18.54 33.13 20.09 L 32.84 20.38 C 31.78 22.05 29.39 22.78 27.92 21.16 C 25.97 19.10 23.23 20.76 22.15 22.82 C 20.32 22.75 18.37 22.62 18.53 20.32 L 18.85 19.71 Z" />
</g>
<g id="#00000026">
<path fill="#000000" opacity="0.15" d=" M 18.52 20.26 L 18.53 20.32 C 18.37 22.62 20.32 22.75 22.15 22.82 C 23.23 20.76 25.97 19.10 27.92 21.16 C 29.39 22.78 31.78 22.05 32.84 20.38 C 32.66 21.18 32.46 21.97 32.24 22.76 C 29.14 23.89 26.27 20.38 23.54 22.37 C 22.00 23.59 20.00 22.80 18.27 22.56 C 18.33 21.99 18.46 20.84 18.52 20.26 Z" />
<path fill="#000000" opacity="0.15" d=" M 3.71 52.78 C 5.82 57.10 9.95 60.83 15.02 60.69 C 26.36 60.73 37.71 60.74 49.05 60.69 C 54.10 60.81 58.19 57.08 60.30 52.78 C 60.36 58.47 55.75 62.46 50.67 64.00 L 13.31 64.00 C 8.24 62.46 3.68 58.44 3.71 52.78 Z" />
</g>
<g id="#70193aff">
<path fill="#70193a" opacity="1.00" d=" M 16.57 39.97 C 22.52 39.99 28.47 39.95 34.42 39.92 L 34.28 41.15 C 28.44 41.22 22.59 41.22 16.75 41.14 L 16.57 39.97 Z" />
</g>
<g id="#e62876ff">
<path fill="#e62876" opacity="1.00" d=" M 21.01 44.53 C 24.05 44.48 27.10 44.47 30.14 44.51 C 30.14 45.12 30.12 46.36 30.11 46.98 C 27.12 47.00 24.13 47.00 21.14 46.98 C 21.11 46.37 21.04 45.15 21.01 44.53 Z" />
</g>
<g id="#99365bff">
<path fill="#99365b" opacity="1.00" d=" M 37.78 46.35 C 40.06 46.24 42.34 46.22 44.62 46.18 C 44.52 46.65 44.34 47.58 44.24 48.05 C 42.19 48.02 40.15 47.91 38.11 47.70 C 38.03 47.36 37.86 46.69 37.78 46.35 Z" />
</g>
<g id="#860b3dff">
<path fill="#860b3d" opacity="1.00" d=" M 21.14 46.98 C 24.13 47.00 27.12 47.00 30.11 46.98 L 30.27 48.39 C 27.09 48.10 23.89 48.03 20.71 48.26 L 21.14 46.98 Z" />
</g>
<g id="#ac9aa1ff">
<path fill="#ac9aa1" opacity="1.00" d=" M 20.71 48.26 C 23.89 48.03 27.09 48.10 30.27 48.39 C 27.15 48.86 23.71 49.55 20.71 48.26 Z" />
</g>
</svg>
