<?xml version="1.0" encoding="UTF-8" ?>
<!DOCTYPE svg PUBLIC "-//W3C//DTD SVG 1.1//EN" "http://www.w3.org/Graphics/SVG/1.1/DTD/svg11.dtd">
<svg width="64pt" height="64pt" viewBox="0 0 64 64" version="1.1" xmlns="http://www.w3.org/2000/svg">
<g id="#da8515ff">
<path fill="#da8515" opacity="1.00" d=" M 3.75 11.76 C 5.24 6.99 9.92 3.32 14.97 3.36 C 26.33 3.29 37.69 3.29 49.04 3.36 C 52.86 3.27 56.21 5.49 58.61 8.29 C 58.44 10.34 58.25 12.39 58.12 14.44 C 57.99 14.21 57.73 13.74 57.60 13.51 C 56.10 10.83 54.40 7.81 51.28 6.81 C 47.94 5.83 44.40 6.18 40.97 6.11 C 32.62 6.25 24.26 5.95 15.91 6.23 C 11.72 6.15 8.29 9.27 6.71 12.94 C 6.57 13.24 6.27 13.86 6.13 14.16 C 3.48 20.84 5.49 28.29 4.39 35.28 C 4.11 27.44 3.71 19.60 3.75 11.76 Z" />
<path fill="#da8515" opacity="1.00" d=" M 28.08 24.48 C 34.21 23.83 40.42 23.71 46.54 24.53 C 40.43 25.29 34.20 25.26 28.08 24.48 Z" />
</g>
<g id="#ffffffff">
<path fill="#ffffff" opacity="1.00" d=" M 6.71 12.94 C 8.29 9.27 11.72 6.15 15.91 6.23 C 24.26 5.95 32.62 6.25 40.97 6.11 C 44.40 6.18 47.94 5.83 51.28 6.81 C 54.40 7.81 56.10 10.83 57.60 13.51 C 54.97 10.86 52.07 7.80 48.05 7.75 C 41.71 7.35 35.35 7.73 29.00 7.61 C 24.05 7.71 19.05 7.20 14.14 8.02 C 10.97 8.51 9.02 11.30 6.74 13.25 L 6.71 12.94 Z" />
<path fill="#ffffff" opacity="1.00" d=" M 28.25 13.87 C 29.74 14.29 31.28 14.53 32.83 14.43 C 32.58 15.06 32.08 16.32 31.84 16.95 L 31.32 18.16 C 37.65 18.19 43.98 18.23 50.31 18.10 C 50.34 19.50 50.37 20.89 50.41 22.28 C 43.51 22.24 36.61 22.04 29.72 22.31 C 29.31 22.86 28.49 23.94 28.08 24.48 C 27.89 24.74 27.51 25.26 27.32 25.52 C 33.35 26.03 39.42 26.09 45.46 25.67 C 45.19 33.12 45.75 40.61 45.16 48.05 C 43.81 51.80 38.63 50.05 35.58 50.54 C 35.24 49.03 34.91 47.52 34.58 46.01 C 36.68 46.61 38.96 46.85 41.04 46.06 L 41.06 45.66 C 41.09 44.83 41.15 43.18 41.19 42.35 C 36.16 42.34 31.14 42.34 26.11 42.34 C 26.13 45.16 26.17 47.98 26.23 50.79 C 24.72 50.80 23.22 50.80 21.71 50.81 C 21.88 44.83 21.81 38.84 21.81 32.85 C 19.94 34.47 18.07 36.08 16.20 37.69 C 15.24 36.42 14.27 35.16 13.29 33.91 C 17.87 31.15 21.76 27.33 24.52 22.74 L 24.99 22.13 C 21.50 22.18 18.00 22.23 14.51 22.31 C 14.47 20.88 14.42 19.45 14.34 18.02 C 18.26 18.21 22.21 18.49 26.11 17.95 C 26.44 17.67 27.09 17.11 27.42 16.82 C 27.71 15.84 27.98 14.85 28.25 13.87 M 26.08 29.42 C 26.11 29.82 26.16 30.61 26.19 31.00 L 26.12 32.25 C 30.71 32.18 35.32 32.44 39.91 32.17 C 40.34 31.93 41.19 31.45 41.61 31.21 C 41.46 30.76 41.15 29.87 40.99 29.42 C 36.02 29.41 31.05 29.42 26.08 29.42 M 25.64 36.63 L 25.72 38.38 C 31.02 39.25 36.82 39.67 42.00 38.12 L 40.25 36.97 L 41.86 36.02 C 36.50 36.01 30.78 34.82 25.64 36.63 Z" />
</g>
<g id="#ffc364ff">
<path fill="#ffc364" opacity="1.00" d=" M 6.74 13.25 C 9.02 11.30 10.97 8.51 14.14 8.02 C 19.05 7.20 24.05 7.71 29.00 7.61 C 35.35 7.73 41.71 7.35 48.05 7.75 C 52.07 7.80 54.97 10.86 57.60 13.51 C 57.73 13.74 57.99 14.21 58.12 14.44 C 58.10 14.78 58.07 15.44 58.05 15.78 C 57.51 17.24 56.91 18.68 56.33 20.12 C 53.40 18.54 50.55 16.33 47.08 16.28 C 42.31 16.02 37.53 16.42 32.78 16.86 L 31.84 16.95 C 32.08 16.32 32.58 15.06 32.83 14.43 C 32.92 14.18 33.12 13.68 33.21 13.43 C 31.82 12.50 28.92 11.76 28.25 13.87 C 27.98 14.85 27.71 15.84 27.42 16.82 C 23.03 16.79 18.64 16.87 14.25 16.83 C 13.48 18.04 12.70 19.25 11.93 20.45 C 10.39 20.41 8.86 20.38 7.32 20.34 C 6.90 19.14 6.48 17.94 6.10 16.73 C 6.11 16.09 6.12 14.81 6.13 14.16 C 6.27 13.86 6.57 13.24 6.71 12.94 L 6.74 13.25 Z" />
</g>
<g id="#ff9219ff">
<path fill="#ff9219" opacity="1.00" d=" M 58.12 14.44 C 58.25 12.39 58.44 10.34 58.61 8.29 C 59.12 9.28 59.60 10.29 60.05 11.32 C 59.37 20.31 59.79 29.33 59.58 38.33 C 59.27 37.23 58.94 36.14 58.61 35.04 C 57.96 37.37 57.33 39.69 56.74 42.03 C 53.58 42.23 50.41 42.27 47.25 42.15 C 46.90 37.76 46.59 33.37 45.97 29.02 C 46.68 29.68 47.40 30.34 48.11 31.00 C 51.31 29.92 55.35 29.31 57.06 26.00 C 58.27 22.75 57.81 19.18 58.05 15.78 C 58.07 15.44 58.10 14.78 58.12 14.44 Z" />
<path fill="#ff9219" opacity="1.00" d=" M 26.08 29.42 C 31.05 29.42 36.02 29.41 40.99 29.42 C 41.15 29.87 41.46 30.76 41.61 31.21 C 36.48 30.87 31.33 31.03 26.19 31.00 C 26.16 30.61 26.11 29.82 26.08 29.42 Z" />
</g>
<g id="#bd480bde">
<path fill="#bd480b" opacity="0.87" d=" M 3.12 35.99 C 3.39 27.92 2.47 19.76 3.75 11.76 C 3.71 19.60 4.11 27.44 4.39 35.28 C 4.39 37.31 4.41 39.35 4.45 41.38 C 4.48 45.12 3.97 48.95 4.89 52.63 C 6.28 56.78 10.42 60.00 14.90 59.76 C 24.91 59.88 34.93 59.66 44.95 59.83 C 48.75 59.79 53.20 60.20 56.07 57.17 C 61.40 52.45 59.35 44.60 59.58 38.33 C 59.79 29.33 59.37 20.31 60.05 11.32 C 61.74 17.73 60.55 24.45 60.88 30.99 C 60.52 38.77 61.81 46.73 59.86 54.36 C 57.36 57.90 53.57 60.84 49.05 60.86 C 38.02 61.01 26.99 60.90 15.96 60.91 C 11.11 61.16 6.83 58.26 4.15 54.40 C 2.43 48.42 3.31 42.12 3.12 35.99 Z" />
</g>
<g id="#ff7914ff">
<path fill="#ff7914" opacity="1.00" d=" M 28.25 13.87 C 28.92 11.76 31.82 12.50 33.21 13.43 C 33.12 13.68 32.92 14.18 32.83 14.43 C 31.28 14.53 29.74 14.29 28.25 13.87 Z" />
<path fill="#ff7914" opacity="1.00" d=" M 45.46 25.67 C 45.63 26.78 45.80 27.90 45.97 29.02 C 46.59 33.37 46.90 37.76 47.25 42.15 C 50.41 42.27 53.58 42.23 56.74 42.03 C 57.33 39.69 57.96 37.37 58.61 35.04 C 58.94 36.14 59.27 37.23 59.58 38.33 C 59.35 44.60 61.40 52.45 56.07 57.17 C 53.20 60.20 48.75 59.79 44.95 59.83 C 34.93 59.66 24.91 59.88 14.90 59.76 C 10.42 60.00 6.28 56.78 4.89 52.63 C 3.97 48.95 4.48 45.12 4.45 41.38 C 5.40 44.16 6.46 46.91 7.43 49.68 C 11.40 49.90 15.38 49.91 19.35 49.72 C 19.78 47.73 20.21 45.75 20.65 43.76 C 21.01 46.11 21.36 48.46 21.71 50.81 C 23.22 50.80 24.72 50.80 26.23 50.79 C 26.17 47.98 26.13 45.16 26.11 42.34 C 31.14 42.34 36.16 42.34 41.19 42.35 C 41.15 43.18 41.09 44.83 41.06 45.66 C 38.95 44.84 36.62 44.96 34.51 45.70 L 34.58 46.01 C 34.91 47.52 35.24 49.03 35.58 50.54 C 38.63 50.05 43.81 51.80 45.16 48.05 C 45.75 40.61 45.19 33.12 45.46 25.67 Z" />
</g>
<g id="#ff8a18ff">
<path fill="#ff8a18" opacity="1.00" d=" M 4.39 35.28 C 5.49 28.29 3.48 20.84 6.13 14.16 C 6.12 14.81 6.11 16.09 6.10 16.73 C 6.22 20.03 5.62 23.64 7.21 26.69 C 9.09 29.19 12.37 29.89 15.07 31.15 C 14.45 32.05 13.87 32.98 13.29 33.91 C 14.27 35.16 15.24 36.42 16.20 37.69 C 18.07 36.08 19.94 34.47 21.81 32.85 C 21.81 38.84 21.88 44.83 21.71 50.81 C 21.36 48.46 21.01 46.11 20.65 43.76 C 20.21 45.75 19.78 47.73 19.35 49.72 C 15.38 49.91 11.40 49.90 7.43 49.68 C 6.46 46.91 5.40 44.16 4.45 41.38 C 4.41 39.35 4.39 37.31 4.39 35.28 Z" />
</g>
<g id="#ffb041ff">
<path fill="#ffb041" opacity="1.00" d=" M 32.78 16.86 C 37.53 16.42 42.31 16.02 47.08 16.28 C 50.55 16.33 53.40 18.54 56.33 20.12 C 56.91 18.68 57.51 17.24 58.05 15.78 C 57.81 19.18 58.27 22.75 57.06 26.00 C 55.35 29.31 51.31 29.92 48.11 31.00 C 47.40 30.34 46.68 29.68 45.97 29.02 C 45.80 27.90 45.63 26.78 45.46 25.67 C 39.42 26.09 33.35 26.03 27.32 25.52 C 27.51 25.26 27.89 24.74 28.08 24.48 C 34.20 25.26 40.43 25.29 46.54 24.53 C 40.42 23.71 34.21 23.83 28.08 24.48 C 28.49 23.94 29.31 22.86 29.72 22.31 C 36.61 22.04 43.51 22.24 50.41 22.28 C 50.37 20.89 50.34 19.50 50.31 18.10 L 50.29 17.00 C 44.45 17.07 38.62 16.94 32.78 16.86 Z" />
<path fill="#ffb041" opacity="1.00" d=" M 6.10 16.73 C 6.48 17.94 6.90 19.14 7.32 20.34 C 8.86 20.38 10.39 20.41 11.93 20.45 C 12.70 19.25 13.48 18.04 14.25 16.83 L 14.34 18.02 C 14.42 19.45 14.47 20.88 14.51 22.31 C 18.00 22.23 21.50 22.18 24.99 22.13 L 24.52 22.74 C 21.25 25.41 17.91 28.02 15.07 31.15 C 12.37 29.89 9.09 29.19 7.21 26.69 C 5.62 23.64 6.22 20.03 6.10 16.73 Z" />
</g>
<g id="#ff571bff">
<path fill="#ff571b" opacity="1.00" d=" M 14.25 16.83 C 18.64 16.87 23.03 16.79 27.42 16.82 C 27.09 17.11 26.44 17.67 26.11 17.95 C 22.21 18.49 18.26 18.21 14.34 18.02 L 14.25 16.83 Z" />
</g>
<g id="#ff5517ff">
<path fill="#ff5517" opacity="1.00" d=" M 31.84 16.95 L 32.78 16.86 C 38.62 16.94 44.45 17.07 50.29 17.00 L 50.31 18.10 C 43.98 18.23 37.65 18.19 31.32 18.16 L 31.84 16.95 Z" />
</g>
<g id="#ff6d36ff">
<path fill="#ff6d36" opacity="1.00" d=" M 15.07 31.15 C 17.91 28.02 21.25 25.41 24.52 22.74 C 21.76 27.33 17.87 31.15 13.29 33.91 C 13.87 32.98 14.45 32.05 15.07 31.15 Z" />
</g>
<g id="#ff470eff">
<path fill="#ff470e" opacity="1.00" d=" M 26.19 31.00 C 31.33 31.03 36.48 30.87 41.61 31.21 C 41.19 31.45 40.34 31.93 39.91 32.17 C 35.32 32.44 30.71 32.18 26.12 32.25 L 26.19 31.00 Z" />
</g>
<g id="#ff8b1aff">
<path fill="#ff8b1a" opacity="1.00" d=" M 25.64 36.63 C 30.78 34.82 36.50 36.01 41.86 36.02 L 40.25 36.97 C 35.38 36.98 30.50 37.10 25.64 36.63 Z" />
</g>
<g id="#ff5403ff">
<path fill="#ff5403" opacity="1.00" d=" M 25.64 36.63 C 30.50 37.10 35.38 36.98 40.25 36.97 L 42.00 38.12 C 36.57 38.10 31.13 37.86 25.72 38.38 L 25.64 36.63 Z" />
</g>
<g id="#ff685bff">
<path fill="#ff685b" opacity="1.00" d=" M 25.72 38.38 C 31.13 37.86 36.57 38.10 42.00 38.12 C 36.82 39.67 31.02 39.25 25.72 38.38 Z" />
</g>
<g id="#ff4106ff">
<path fill="#ff4106" opacity="1.00" d=" M 34.51 45.70 C 36.62 44.96 38.95 44.84 41.06 45.66 L 41.04 46.06 C 38.96 46.85 36.68 46.61 34.58 46.01 L 34.51 45.70 Z" />
</g>
<g id="#00000026">
<path fill="#000000" opacity="0.15" d=" M 4.15 54.40 C 6.83 58.26 11.11 61.16 15.96 60.91 C 26.99 60.90 38.02 61.01 49.05 60.86 C 53.57 60.84 57.36 57.90 59.86 54.36 C 59.43 59.44 55.22 62.62 50.67 64.00 L 13.34 64.00 C 8.86 62.55 4.55 59.49 4.15 54.40 Z" />
</g>
</svg>
