<?xml version="1.0" encoding="UTF-8" ?>
<!DOCTYPE svg PUBLIC "-//W3C//DTD SVG 1.1//EN" "http://www.w3.org/Graphics/SVG/1.1/DTD/svg11.dtd">
<svg width="64pt" height="64pt" viewBox="0 0 64 64" version="1.1" xmlns="http://www.w3.org/2000/svg">
<g id="#991301ff">
<path fill="#991301" opacity="1.00" d=" M 3.16 14.95 C 3.18 8.77 8.67 3.17 14.89 3.21 C 26.27 3.17 37.66 3.17 49.04 3.21 C 55.30 3.13 60.85 8.76 60.84 14.99 C 60.83 26.34 60.83 37.70 60.79 49.05 C 60.89 51.60 59.85 54.02 58.44 56.08 C 56.09 58.83 52.73 60.84 49.02 60.78 C 37.66 60.79 26.29 60.80 14.93 60.78 C 11.25 60.81 7.90 58.81 5.56 56.09 C 4.17 54.02 3.11 51.62 3.21 49.08 C 3.16 37.70 3.17 26.33 3.16 14.95 M 12.18 5.33 C 8.46 6.03 5.65 9.32 4.65 12.84 C 3.67 17.14 4.51 21.57 4.56 25.93 C 4.59 34.28 4.74 42.65 5.61 50.97 C 6.40 55.05 9.78 58.62 14.06 58.91 C 21.00 59.75 28.06 59.02 35.04 59.26 C 41.00 59.01 47.18 60.11 52.94 58.13 C 55.74 56.82 57.79 54.01 58.37 50.98 C 59.76 40.72 59.07 30.32 59.73 20.01 C 60.18 15.69 59.59 10.84 56.28 7.70 C 52.54 4.03 46.80 4.89 42.03 4.77 C 32.09 5.04 22.05 4.12 12.18 5.33 Z" />
<path fill="#991301" opacity="1.00" d=" M 43.25 42.20 C 46.19 43.03 49.03 44.19 51.74 45.60 L 52.39 45.94 C 52.43 46.37 52.52 47.22 52.56 47.65 L 51.86 47.86 C 48.59 46.66 45.81 44.51 43.25 42.20 Z" />
</g>
<g id="#cf1d02ff">
<path fill="#cf1d02" opacity="1.00" d=" M 12.18 5.33 C 22.05 4.12 32.09 5.04 42.03 4.77 C 46.80 4.89 52.54 4.03 56.28 7.70 C 59.59 10.84 60.18 15.69 59.73 20.01 C 59.07 30.32 59.76 40.72 58.37 50.98 C 57.79 54.01 55.74 56.82 52.94 58.13 C 47.18 60.11 41.00 59.01 35.04 59.26 C 28.06 59.02 21.00 59.75 14.06 58.91 C 9.78 58.62 6.40 55.05 5.61 50.97 C 4.74 42.65 4.59 34.28 4.56 25.93 C 4.51 21.57 3.67 17.14 4.65 12.84 C 5.65 9.32 8.46 6.03 12.18 5.33 M 6.90 13.42 L 6.07 13.35 C 5.79 16.98 5.94 20.69 6.10 24.33 C 6.12 24.71 6.14 25.47 6.16 25.85 C 5.32 31.82 7.11 37.73 7.32 43.69 C 9.83 46.44 14.47 43.73 17.73 45.16 C 16.06 46.40 14.28 47.58 12.21 48.00 C 13.12 49.36 14.38 50.45 15.37 51.76 C 19.21 50.11 23.38 46.84 25.01 42.91 C 23.99 42.54 22.99 42.12 22.11 41.49 C 24.59 40.90 27.14 41.32 29.65 41.32 C 29.21 43.45 30.53 46.33 29.00 47.97 C 28.61 46.20 24.84 46.67 23.77 47.62 C 23.68 48.99 23.92 50.41 24.49 51.86 C 27.60 51.67 31.60 52.94 34.13 50.78 L 34.68 50.61 C 35.38 47.67 34.75 44.59 34.97 41.60 C 37.15 41.75 39.33 41.01 41.49 41.61 C 40.79 42.05 39.39 42.94 38.69 43.38 C 41.24 46.77 44.85 49.92 48.64 51.78 C 49.65 50.42 50.68 49.09 51.86 47.86 L 52.56 47.65 C 52.52 47.22 52.43 46.37 52.39 45.94 L 51.74 45.60 C 53.38 45.10 55.56 45.25 56.72 43.81 C 56.93 37.80 58.58 31.88 57.92 25.85 C 57.90 25.50 57.86 24.80 57.83 24.45 C 58.27 20.94 57.93 17.37 58.08 13.84 C 57.79 13.63 57.19 13.21 56.89 13.01 C 55.92 9.11 51.98 6.22 48.00 6.28 C 37.35 6.18 26.70 6.19 16.06 6.27 C 11.83 6.17 7.92 9.36 6.90 13.42 Z" />
</g>
<g id="#ffffffff">
<path fill="#ffffff" opacity="1.00" d=" M 6.90 13.42 C 7.92 9.36 11.83 6.17 16.06 6.27 C 26.70 6.19 37.35 6.18 48.00 6.28 C 51.98 6.22 55.92 9.11 56.89 13.01 L 56.71 14.06 C 54.78 8.42 48.12 7.53 42.99 8.03 C 38.66 8.61 34.32 7.52 30.02 8.16 C 24.34 8.32 18.61 7.77 12.97 8.54 C 10.72 9.57 8.47 10.99 7.68 13.47 C 7.48 13.46 7.09 13.44 6.90 13.42 Z" />
<path fill="#ffffff" opacity="1.00" d=" M 20.27 12.03 C 21.42 12.03 23.74 12.03 24.89 12.03 C 24.81 13.09 24.75 14.16 24.73 15.22 C 26.59 15.32 28.45 15.23 30.31 15.17 C 30.38 16.28 30.52 18.49 30.59 19.59 C 29.01 19.46 27.43 19.38 25.85 19.34 C 27.08 20.94 28.68 22.22 30.37 23.31 C 31.40 24.81 29.70 25.94 28.84 26.93 C 26.76 26.48 26.25 24.07 24.67 22.91 C 24.63 24.99 24.69 27.08 24.86 29.15 C 23.71 29.16 21.42 29.17 20.27 29.18 C 20.38 27.14 20.59 25.10 20.42 23.06 C 19.98 23.48 19.64 23.97 19.40 24.52 C 17.63 26.41 15.74 28.17 13.66 29.72 C 13.13 28.53 12.40 27.49 11.49 26.60 L 11.47 25.78 C 13.69 24.59 15.65 22.98 17.47 21.24 C 17.85 20.72 18.61 19.68 18.99 19.16 C 16.71 19.20 14.43 19.37 12.15 19.37 C 12.13 18.03 12.12 16.70 12.10 15.36 C 14.87 15.21 17.66 15.41 20.44 15.23 C 20.45 14.16 20.39 13.09 20.27 12.03 Z" />
<path fill="#ffffff" opacity="1.00" d=" M 38.27 12.04 C 39.80 11.99 41.34 11.98 42.88 12.02 C 42.84 12.83 42.78 14.43 42.75 15.23 C 45.79 15.31 48.84 15.27 51.88 15.13 L 51.93 16.34 C 51.92 17.37 51.90 18.41 51.88 19.45 C 49.39 19.32 46.91 19.26 44.43 19.14 C 44.14 20.55 45.84 21.04 46.63 21.85 C 48.56 23.42 50.61 24.85 52.86 25.94 C 51.77 27.09 50.83 28.36 50.05 29.75 C 47.31 27.73 44.90 25.36 42.68 22.79 C 42.63 24.92 42.78 27.04 42.77 29.16 C 41.68 29.15 39.49 29.13 38.39 29.12 C 38.49 27.03 38.87 24.88 38.28 22.83 C 36.86 25.09 35.01 27.01 33.00 28.74 L 31.99 28.77 C 31.47 27.71 30.81 26.74 30.00 25.87 C 30.51 25.48 31.51 24.71 32.01 24.32 C 33.98 22.84 35.69 21.05 37.43 19.32 C 35.46 19.39 33.49 19.50 31.51 19.55 C 31.65 18.48 31.93 16.32 32.08 15.24 C 34.20 15.16 36.32 15.35 38.44 15.22 C 38.44 14.16 38.38 13.10 38.27 12.04 Z" />
<path fill="#ffffff" opacity="1.00" d=" M 17.22 30.82 C 26.80 30.66 36.74 31.23 46.43 30.55 C 47.26 31.66 46.56 33.43 46.78 34.77 C 36.94 34.78 27.10 34.61 17.26 34.88 C 17.23 33.53 17.21 32.17 17.22 30.82 Z" />
<path fill="#ffffff" opacity="1.00" d=" M 12.48 37.10 C 25.37 37.35 38.28 37.39 51.17 37.08 C 51.13 38.50 51.06 39.92 50.95 41.34 C 45.66 40.73 40.41 41.21 35.11 41.02 L 34.64 41.39 C 34.38 44.52 34.97 47.71 34.13 50.78 C 31.60 52.94 27.60 51.67 24.49 51.86 C 23.92 50.41 23.68 48.99 23.77 47.62 C 25.44 48.08 27.30 48.38 29.00 47.97 C 30.53 46.33 29.21 43.45 29.65 41.32 C 27.14 41.32 24.59 40.90 22.11 41.49 C 22.99 42.12 23.99 42.54 25.01 42.91 C 23.38 46.84 19.21 50.11 15.37 51.76 C 14.38 50.45 13.12 49.36 12.21 48.00 C 14.28 47.58 16.06 46.40 17.73 45.16 C 19.10 44.04 20.32 42.73 21.41 41.34 C 18.42 41.08 15.43 41.34 12.45 41.51 C 12.41 40.04 12.42 38.57 12.48 37.10 Z" />
<path fill="#ffffff" opacity="1.00" d=" M 41.49 41.61 C 41.70 41.55 42.11 41.45 42.32 41.39 C 42.55 41.59 43.02 42.00 43.25 42.20 C 45.81 44.51 48.59 46.66 51.86 47.86 C 50.68 49.09 49.65 50.42 48.64 51.78 C 44.85 49.92 41.24 46.77 38.69 43.38 C 39.39 42.94 40.79 42.05 41.49 41.61 Z" />
</g>
<g id="#fb654fff">
<path fill="#fb654f" opacity="1.00" d=" M 12.97 8.54 C 18.61 7.77 24.34 8.32 30.02 8.16 C 34.32 7.52 38.66 8.61 42.99 8.03 C 48.12 7.53 54.78 8.42 56.71 14.06 L 56.89 13.01 C 57.19 13.21 57.79 13.63 58.08 13.84 C 57.93 17.37 58.27 20.94 57.83 24.45 C 57.04 22.23 57.41 19.22 55.17 17.82 C 53.92 16.94 53.85 15.26 53.23 13.98 C 50.74 12.42 47.74 13.66 45.01 13.35 C 43.97 10.17 40.69 10.99 38.09 11.02 C 37.42 11.77 36.76 12.52 36.10 13.28 C 33.05 13.39 29.99 13.61 26.95 13.28 C 25.85 9.99 22.30 11.16 19.66 10.99 C 19.54 11.59 19.29 12.78 19.16 13.37 C 16.84 13.38 14.53 13.13 12.21 13.20 L 12.16 15.00 C 14.92 15.14 17.68 15.16 20.44 15.23 C 17.66 15.41 14.87 15.21 12.10 15.36 C 12.12 16.70 12.13 18.03 12.15 19.37 C 10.72 19.14 9.32 18.81 7.89 18.61 C 6.88 20.35 6.65 22.42 6.10 24.33 C 5.94 20.69 5.79 16.98 6.07 13.35 L 6.90 13.42 C 7.09 13.44 7.48 13.46 7.68 13.47 C 8.47 10.99 10.72 9.57 12.97 8.54 Z" />
</g>
<g id="#ef0f07ff">
<path fill="#ef0f07" opacity="1.00" d=" M 19.66 10.99 C 22.30 11.16 25.85 9.99 26.95 13.28 C 29.99 13.61 33.05 13.39 36.10 13.28 C 36.76 12.52 37.42 11.77 38.09 11.02 C 40.69 10.99 43.97 10.17 45.01 13.35 C 47.74 13.66 50.74 12.42 53.23 13.98 C 52.91 14.57 52.25 15.75 51.93 16.34 L 51.88 15.13 C 48.84 15.27 45.79 15.31 42.75 15.23 C 42.78 14.43 42.84 12.83 42.88 12.02 C 41.34 11.98 39.80 11.99 38.27 12.04 C 38.38 13.10 38.44 14.16 38.44 15.22 C 36.32 15.35 34.20 15.16 32.08 15.24 C 31.93 16.32 31.65 18.48 31.51 19.55 C 33.49 19.50 35.46 19.39 37.43 19.32 C 35.69 21.05 33.98 22.84 32.01 24.32 C 31.60 24.07 30.78 23.57 30.37 23.31 C 28.68 22.22 27.08 20.94 25.85 19.34 C 27.43 19.38 29.01 19.46 30.59 19.59 C 30.52 18.49 30.38 16.28 30.31 15.17 C 28.45 15.23 26.59 15.32 24.73 15.22 C 24.75 14.16 24.81 13.09 24.89 12.03 C 23.74 12.03 21.42 12.03 20.27 12.03 C 20.39 13.09 20.45 14.16 20.44 15.23 C 17.68 15.16 14.92 15.14 12.16 15.00 L 12.21 13.20 C 14.53 13.13 16.84 13.38 19.16 13.37 C 19.29 12.78 19.54 11.59 19.66 10.99 Z" />
<path fill="#ef0f07" opacity="1.00" d=" M 10.12 25.04 C 11.39 22.57 14.68 20.88 17.47 21.24 C 15.65 22.98 13.69 24.59 11.47 25.78 L 11.49 26.60 C 10.93 26.17 10.47 25.65 10.12 25.04 Z" />
<path fill="#ef0f07" opacity="1.00" d=" M 47.03 20.87 C 49.22 21.65 54.23 22.81 52.86 25.94 C 50.61 24.85 48.56 23.42 46.63 21.85 L 47.03 20.87 Z" />
</g>
<g id="#f14a30ff">
<path fill="#f14a30" opacity="1.00" d=" M 53.23 13.98 C 53.85 15.26 53.92 16.94 55.17 17.82 C 57.41 19.22 57.04 22.23 57.83 24.45 C 57.86 24.80 57.90 25.50 57.92 25.85 C 55.35 27.91 52.59 30.15 49.26 30.72 C 48.11 30.15 47.10 29.35 45.98 28.72 C 43.70 28.68 41.50 30.00 39.22 29.39 C 37.18 28.92 35.09 28.72 33.00 28.74 C 35.01 27.01 36.86 25.09 38.28 22.83 C 38.87 24.88 38.49 27.03 38.39 29.12 C 39.49 29.13 41.68 29.15 42.77 29.16 C 42.78 27.04 42.63 24.92 42.68 22.79 C 44.90 25.36 47.31 27.73 50.05 29.75 C 50.83 28.36 51.77 27.09 52.86 25.94 C 54.23 22.81 49.22 21.65 47.03 20.87 L 46.63 21.85 C 45.84 21.04 44.14 20.55 44.43 19.14 C 46.91 19.26 49.39 19.32 51.88 19.45 C 51.90 18.41 51.92 17.37 51.93 16.34 C 52.25 15.75 52.91 14.57 53.23 13.98 Z" />
</g>
<g id="#f35037ff">
<path fill="#f35037" opacity="1.00" d=" M 6.10 24.33 C 6.65 22.42 6.88 20.35 7.89 18.61 C 9.32 18.81 10.72 19.14 12.15 19.37 C 14.43 19.37 16.71 19.20 18.99 19.16 C 18.61 19.68 17.85 20.72 17.47 21.24 C 14.68 20.88 11.39 22.57 10.12 25.04 C 10.47 25.65 10.93 26.17 11.49 26.60 C 12.40 27.49 13.13 28.53 13.66 29.72 C 15.74 28.17 17.63 26.41 19.40 24.52 C 19.59 25.75 19.78 26.99 19.74 28.24 C 17.82 28.88 16.03 29.83 14.17 30.60 C 11.23 29.53 8.69 27.64 6.16 25.85 C 6.14 25.47 6.12 24.71 6.10 24.33 Z" />
</g>
<g id="#e01f03ff">
<path fill="#e01f03" opacity="1.00" d=" M 19.40 24.52 C 19.64 23.97 19.98 23.48 20.42 23.06 C 20.59 25.10 20.38 27.14 20.27 29.18 C 21.42 29.17 23.71 29.16 24.86 29.15 C 27.23 28.95 29.61 28.85 31.99 28.77 L 33.00 28.74 C 35.09 28.72 37.18 28.92 39.22 29.39 C 41.50 30.00 43.70 28.68 45.98 28.72 C 47.10 29.35 48.11 30.15 49.26 30.72 C 52.59 30.15 55.35 27.91 57.92 25.85 C 58.58 31.88 56.93 37.80 56.72 43.81 C 55.56 45.25 53.38 45.10 51.74 45.60 C 49.03 44.19 46.19 43.03 43.25 42.20 C 45.56 40.63 48.86 42.09 51.57 41.63 C 51.53 40.11 51.38 38.59 51.17 37.08 L 50.93 36.06 C 47.04 35.43 42.99 36.33 39.03 36.07 C 30.29 35.66 21.54 36.31 12.82 35.88 L 12.48 37.10 C 12.42 38.57 12.41 40.04 12.45 41.51 C 15.43 41.34 18.42 41.08 21.41 41.34 C 20.32 42.73 19.10 44.04 17.73 45.16 C 14.47 43.73 9.83 46.44 7.32 43.69 C 7.11 37.73 5.32 31.82 6.16 25.85 C 8.69 27.64 11.23 29.53 14.17 30.60 C 16.03 29.83 17.82 28.88 19.74 28.24 C 19.78 26.99 19.59 25.75 19.40 24.52 M 17.22 30.82 C 17.21 32.17 17.23 33.53 17.26 34.88 C 27.10 34.61 36.94 34.78 46.78 34.77 C 46.56 33.43 47.26 31.66 46.43 30.55 C 36.74 31.23 26.80 30.66 17.22 30.82 Z" />
</g>
<g id="#ee4027ff">
<path fill="#ee4027" opacity="1.00" d=" M 24.67 22.91 C 26.25 24.07 26.76 26.48 28.84 26.93 C 29.70 25.94 31.40 24.81 30.37 23.31 C 30.78 23.57 31.60 24.07 32.01 24.32 C 31.51 24.71 30.51 25.48 30.00 25.87 C 30.81 26.74 31.47 27.71 31.99 28.77 C 29.61 28.85 27.23 28.95 24.86 29.15 C 24.69 27.08 24.63 24.99 24.67 22.91 Z" />
</g>
<g id="#940404ff">
<path fill="#940404" opacity="1.00" d=" M 12.82 35.88 C 21.54 36.31 30.29 35.66 39.03 36.07 C 42.99 36.33 47.04 35.43 50.93 36.06 L 51.17 37.08 C 38.28 37.39 25.37 37.35 12.48 37.10 L 12.82 35.88 Z" />
</g>
<g id="#e67d73ff">
<path fill="#e67d73" opacity="1.00" d=" M 51.17 37.08 C 51.38 38.59 51.53 40.11 51.57 41.63 C 48.86 42.09 45.56 40.63 43.25 42.20 C 43.02 42.00 42.55 41.59 42.32 41.39 C 42.11 41.45 41.70 41.55 41.49 41.61 C 39.33 41.01 37.15 41.75 34.97 41.60 C 34.75 44.59 35.38 47.67 34.68 50.61 L 34.13 50.78 C 34.97 47.71 34.38 44.52 34.64 41.39 L 35.11 41.02 C 40.41 41.21 45.66 40.73 50.95 41.34 C 51.06 39.92 51.13 38.50 51.17 37.08 Z" />
</g>
<g id="#582d2dff">
<path fill="#582d2d" opacity="1.00" d=" M 23.77 47.62 C 24.84 46.67 28.61 46.20 29.00 47.97 C 27.30 48.38 25.44 48.08 23.77 47.62 Z" />
</g>
<g id="#00000026">
<path fill="#000000" opacity="0.15" d=" M 3.82 54.88 C 4.25 55.18 5.12 55.79 5.56 56.09 C 7.90 58.81 11.25 60.81 14.93 60.78 C 26.29 60.80 37.66 60.79 49.02 60.78 C 52.73 60.84 56.09 58.83 58.44 56.08 C 58.89 55.80 59.80 55.23 60.25 54.95 C 59.05 59.59 55.02 62.64 50.61 64.00 L 13.40 64.00 C 9.04 62.60 4.72 59.69 3.82 54.88 Z" />
</g>
</svg>
