<?xml version="1.0" encoding="UTF-8" ?>
<!DOCTYPE svg PUBLIC "-//W3C//DTD SVG 1.1//EN" "http://www.w3.org/Graphics/SVG/1.1/DTD/svg11.dtd">
<svg width="64pt" height="64pt" viewBox="0 0 64 64" version="1.1" xmlns="http://www.w3.org/2000/svg">
<g id="#ff8115ff">
<path fill="#ff8115" opacity="1.00" d=" M 12.44 3.67 C 24.28 2.98 36.20 3.57 48.07 3.37 C 54.53 2.84 60.71 8.46 60.66 14.95 C 60.72 26.31 60.68 37.67 60.66 49.03 C 60.85 55.18 55.24 60.78 49.11 60.70 C 37.71 60.73 26.30 60.73 14.90 60.70 C 8.77 60.79 3.17 55.20 3.34 49.05 C 3.32 37.70 3.29 26.35 3.34 15.00 C 3.30 9.72 7.37 4.90 12.44 3.67 M 6.79 13.43 C 5.39 14.11 6.19 15.88 6.07 17.06 C 6.34 19.82 6.25 22.61 6.69 25.35 C 8.04 28.36 11.39 29.33 14.15 30.57 C 14.95 29.89 15.76 29.21 16.57 28.53 C 16.34 33.62 16.63 38.73 16.36 43.82 C 17.81 43.83 19.26 43.83 20.71 43.84 C 20.86 43.28 21.17 42.15 21.32 41.59 C 24.18 41.42 27.05 41.57 29.91 41.55 C 29.94 44.98 29.93 48.40 29.72 51.82 C 31.34 51.82 32.96 51.83 34.58 51.84 C 34.26 48.40 34.24 44.94 34.40 41.49 C 37.49 41.55 40.59 41.55 43.68 41.54 C 43.69 42.11 43.70 43.25 43.70 43.81 C 45.25 43.82 46.80 43.82 48.36 43.83 C 48.16 39.53 48.37 35.22 48.16 30.91 C 48.46 30.57 49.07 29.89 49.37 29.55 C 51.12 29.40 53.16 29.81 54.57 28.49 C 59.34 25.35 57.14 18.94 58.06 14.19 C 57.89 14.03 57.56 13.72 57.40 13.57 C 56.46 11.36 55.31 9.07 53.18 7.79 C 50.53 5.88 47.11 6.18 44.02 6.12 C 34.65 6.21 25.28 6.01 15.91 6.21 C 11.64 6.18 7.88 9.37 6.79 13.43 Z" />
<path fill="#ff8115" opacity="1.00" d=" M 29.72 12.61 C 31.35 12.68 32.98 12.74 34.61 12.80 C 34.71 14.48 34.82 16.16 34.92 17.84 C 39.44 18.04 43.95 18.00 48.47 17.97 L 48.30 19.25 C 43.64 19.46 38.98 19.35 34.32 19.33 C 34.39 17.52 34.48 15.72 34.55 13.92 C 32.97 13.89 31.38 13.86 29.80 13.84 L 29.72 12.61 Z" />
<path fill="#ff8115" opacity="1.00" d=" M 16.11 18.00 C 20.76 17.97 25.40 17.98 30.05 17.97 L 30.13 19.32 C 25.53 19.35 20.93 19.45 16.33 19.25 L 16.11 18.00 Z" />
<path fill="#ff8115" opacity="1.00" d=" M 20.66 28.37 C 22.49 25.59 28.26 25.92 30.41 28.30 L 29.73 28.23 C 26.93 27.94 24.06 27.72 21.28 28.25 L 20.66 28.37 Z" />
<path fill="#ff8115" opacity="1.00" d=" M 34.37 28.61 L 35.23 26.79 C 37.92 27.11 42.71 25.03 43.72 28.57 L 42.72 28.37 C 40.29 27.82 37.70 27.50 35.31 28.37 L 34.37 28.61 Z" />
<path fill="#ff8115" opacity="1.00" d=" M 20.98 32.32 C 23.95 32.34 26.92 32.35 29.90 32.35 C 29.93 34.12 29.94 35.88 29.92 37.65 C 26.97 37.63 24.02 37.63 21.07 37.65 C 20.94 35.88 20.91 34.10 20.98 32.32 Z" />
<path fill="#ff8115" opacity="1.00" d=" M 34.35 32.34 C 37.46 32.35 40.57 32.33 43.68 32.28 C 43.70 34.05 43.73 35.82 43.74 37.60 C 40.58 37.66 37.41 37.66 34.25 37.59 C 34.28 35.84 34.31 34.09 34.35 32.34 Z" />
</g>
<g id="#ffffffff">
<path fill="#ffffff" opacity="1.00" d=" M 6.79 13.43 C 7.88 9.37 11.64 6.18 15.91 6.21 C 25.28 6.01 34.65 6.21 44.02 6.12 C 47.11 6.18 50.53 5.88 53.18 7.79 C 55.31 9.07 56.46 11.36 57.40 13.57 C 54.93 11.21 52.68 8.10 48.97 7.86 C 40.32 7.31 31.63 7.81 22.97 7.62 C 19.04 7.71 14.76 7.10 11.22 9.18 C 9.53 10.36 8.37 12.12 6.79 13.43 Z" />
<path fill="#ffffff" opacity="1.00" d=" M 29.80 13.84 C 31.38 13.86 32.97 13.89 34.55 13.92 C 34.48 15.72 34.39 17.52 34.32 19.33 C 38.98 19.35 43.64 19.46 48.30 19.25 C 47.89 23.12 47.94 27.03 48.16 30.91 C 48.37 35.22 48.16 39.53 48.36 43.83 C 46.80 43.82 45.25 43.82 43.70 43.81 C 43.70 43.25 43.69 42.11 43.68 41.54 C 40.59 41.55 37.49 41.55 34.40 41.49 C 34.24 44.94 34.26 48.40 34.58 51.84 C 32.96 51.83 31.34 51.82 29.72 51.82 C 29.93 48.40 29.94 44.98 29.91 41.55 C 27.05 41.57 24.18 41.42 21.32 41.59 C 21.17 42.15 20.86 43.28 20.71 43.84 C 19.26 43.83 17.81 43.83 16.36 43.82 C 16.63 38.73 16.34 33.62 16.57 28.53 C 16.70 25.44 16.73 22.33 16.33 19.25 C 20.93 19.45 25.53 19.35 30.13 19.32 L 30.05 17.97 C 29.98 16.59 29.89 15.22 29.80 13.84 M 20.96 23.25 C 20.89 24.96 20.79 26.67 20.66 28.37 L 21.28 28.25 C 21.61 29.67 23.91 28.80 24.98 29.06 C 26.44 28.63 29.19 30.27 29.73 28.23 L 30.41 28.30 C 30.21 26.61 30.05 24.92 29.92 23.23 C 26.93 23.19 23.95 23.20 20.96 23.25 M 34.27 23.19 C 34.29 24.55 34.34 27.25 34.37 28.61 L 35.31 28.37 L 35.14 28.68 C 37.67 29.34 40.36 29.21 42.89 28.66 L 42.72 28.37 L 43.72 28.57 C 43.73 27.22 43.73 24.53 43.74 23.18 C 40.58 23.21 37.42 23.21 34.27 23.19 M 20.98 32.32 C 20.91 34.10 20.94 35.88 21.07 37.65 C 24.02 37.63 26.97 37.63 29.92 37.65 C 29.94 35.88 29.93 34.12 29.90 32.35 C 26.92 32.35 23.95 32.34 20.98 32.32 M 34.35 32.34 C 34.31 34.09 34.28 35.84 34.25 37.59 C 37.41 37.66 40.58 37.66 43.74 37.60 C 43.73 35.82 43.70 34.05 43.68 32.28 C 40.57 32.33 37.46 32.35 34.35 32.34 Z" />
</g>
<g id="#ffbe5bff">
<path fill="#ffbe5b" opacity="1.00" d=" M 11.22 9.18 C 14.76 7.10 19.04 7.71 22.97 7.62 C 31.63 7.81 40.32 7.31 48.97 7.86 C 52.68 8.10 54.93 11.21 57.40 13.57 C 57.56 13.72 57.89 14.03 58.06 14.19 C 57.14 18.94 59.34 25.35 54.57 28.49 C 53.16 29.81 51.12 29.40 49.37 29.55 C 49.07 29.89 48.46 30.57 48.16 30.91 C 47.94 27.03 47.89 23.12 48.30 19.25 L 48.47 17.97 C 43.95 18.00 39.44 18.04 34.92 17.84 C 34.82 16.16 34.71 14.48 34.61 12.80 C 32.98 12.74 31.35 12.68 29.72 12.61 L 29.80 13.84 C 29.89 15.22 29.98 16.59 30.05 17.97 C 25.40 17.98 20.76 17.97 16.11 18.00 L 16.33 19.25 C 16.73 22.33 16.70 25.44 16.57 28.53 C 15.76 29.21 14.95 29.89 14.15 30.57 C 11.39 29.33 8.04 28.36 6.69 25.35 C 6.25 22.61 6.34 19.82 6.07 17.06 C 6.19 15.88 5.39 14.11 6.79 13.43 C 8.37 12.12 9.53 10.36 11.22 9.18 Z" />
<path fill="#ffbe5b" opacity="1.00" d=" M 20.96 23.25 C 23.95 23.20 26.93 23.19 29.92 23.23 C 30.05 24.92 30.21 26.61 30.41 28.30 C 28.26 25.92 22.49 25.59 20.66 28.37 C 20.79 26.67 20.89 24.96 20.96 23.25 Z" />
<path fill="#ffbe5b" opacity="1.00" d=" M 34.27 23.19 C 37.42 23.21 40.58 23.21 43.74 23.18 C 43.73 24.53 43.73 27.22 43.72 28.57 C 42.71 25.03 37.92 27.11 35.23 26.79 L 34.37 28.61 C 34.34 27.25 34.29 24.55 34.27 23.19 Z" />
<path fill="#ffbe5b" opacity="1.00" d=" M 21.28 28.25 C 24.06 27.72 26.93 27.94 29.73 28.23 C 29.19 30.27 26.44 28.63 24.98 29.06 C 23.91 28.80 21.61 29.67 21.28 28.25 Z" />
<path fill="#ffbe5b" opacity="1.00" d=" M 35.31 28.37 C 37.70 27.50 40.29 27.82 42.72 28.37 L 42.89 28.66 C 40.36 29.21 37.67 29.34 35.14 28.68 L 35.31 28.37 Z" />
</g>
</svg>
