<?xml version="1.0" encoding="UTF-8" ?>
<!DOCTYPE svg PUBLIC "-//W3C//DTD SVG 1.1//EN" "http://www.w3.org/Graphics/SVG/1.1/DTD/svg11.dtd">
<svg width="64pt" height="64pt" viewBox="0 0 64 64" version="1.1" xmlns="http://www.w3.org/2000/svg">
<g id="#660c00d4">
<path fill="#660c00" opacity="0.83" d=" M 11.76 3.77 C 25.13 2.46 38.86 2.51 52.24 3.74 C 38.75 4.04 25.24 4.27 11.76 3.77 Z" />
</g>
<g id="#9c1402fa">
<path fill="#9c1402" opacity="0.98" d=" M 3.75 11.80 C 4.77 7.95 7.91 4.79 11.76 3.77 C 25.24 4.27 38.75 4.04 52.24 3.74 C 56.08 4.80 59.23 7.94 60.25 11.80 C 60.16 12.39 60.00 13.57 59.92 14.17 C 58.52 9.79 55.74 6.05 50.91 5.09 C 38.60 4.91 26.28 4.91 13.98 5.04 C 8.79 5.50 5.50 9.52 4.08 14.17 C 4.00 13.57 3.84 12.39 3.75 11.80 Z" />
</g>
<g id="#cd1d03ff">
<path fill="#cd1d03" opacity="1.00" d=" M 4.08 14.17 C 5.50 9.52 8.79 5.50 13.98 5.04 C 26.28 4.91 38.60 4.91 50.91 5.09 C 55.74 6.05 58.52 9.79 59.92 14.17 C 59.93 18.04 59.89 21.91 59.78 25.78 C 58.48 34.02 59.40 42.38 58.64 50.65 C 57.42 55.68 52.54 60.18 47.01 58.96 C 37.00 59.08 27.00 59.08 16.99 58.96 C 12.42 60.20 8.92 56.82 6.29 53.73 C 3.56 44.71 6.05 34.98 4.25 25.78 C 4.12 21.91 4.06 18.04 4.08 14.17 M 13.00 6.02 L 13.00 7.00 C 12.49 7.02 11.47 7.07 10.95 7.10 L 10.83 8.11 C 8.88 9.06 6.97 11.02 6.65 13.29 L 5.93 13.24 C 6.03 16.01 6.24 21.53 6.34 24.29 C 6.26 24.70 6.11 25.51 6.03 25.92 C 5.48 32.25 7.23 38.44 7.24 44.75 C 9.14 47.38 13.19 45.57 15.99 45.99 C 16.46 47.15 14.97 50.31 16.98 50.01 C 17.00 50.50 17.02 51.49 17.04 51.98 L 18.01 52.01 C 19.27 52.06 20.53 52.01 21.78 51.84 C 28.36 49.81 35.52 51.13 42.22 51.79 C 43.47 52.00 44.72 52.07 45.99 52.01 C 46.25 51.51 46.76 50.51 47.02 50.01 C 49.03 50.30 47.54 47.14 48.01 45.98 C 50.85 45.59 55.01 47.66 56.79 44.77 C 57.51 38.50 58.10 32.18 57.97 25.86 C 57.91 25.47 57.78 24.68 57.72 24.28 C 57.18 20.62 59.75 13.81 56.29 11.38 C 54.99 9.59 53.59 6.79 51.02 7.00 L 50.97 6.05 C 38.32 5.89 25.66 6.02 13.00 6.02 Z" />
</g>
<g id="#f7c4bcff">
<path fill="#f7c4bc" opacity="1.00" d=" M 13.00 6.02 C 25.66 6.02 38.32 5.89 50.97 6.05 L 51.02 7.00 C 38.35 6.99 25.68 7.01 13.00 7.00 L 13.00 6.02 Z" />
</g>
<g id="#fddfdcff">
<path fill="#fddfdc" opacity="1.00" d=" M 10.95 7.10 C 11.47 7.07 12.49 7.02 13.00 7.00 C 25.68 7.01 38.35 6.99 51.02 7.00 C 53.59 6.79 54.99 9.59 56.29 11.38 C 53.99 11.34 52.66 8.66 50.25 8.71 C 38.17 7.57 25.79 7.47 13.73 8.71 C 13.31 8.81 12.48 9.01 12.07 9.11 C 11.76 8.86 11.14 8.36 10.83 8.11 L 10.95 7.10 Z" />
</g>
<g id="#fabab1ff">
<path fill="#fabab1" opacity="1.00" d=" M 6.65 13.29 C 6.97 11.02 8.88 9.06 10.83 8.11 C 11.14 8.36 11.76 8.86 12.07 9.11 C 9.91 10.00 8.94 13.22 6.65 13.29 Z" />
</g>
<g id="#fc806dff">
<path fill="#fc806d" opacity="1.00" d=" M 13.73 8.71 C 25.79 7.47 38.17 7.57 50.25 8.71 C 38.08 8.96 25.88 9.42 13.73 8.71 Z" />
</g>
<g id="#f9654fff">
<path fill="#f9654f" opacity="1.00" d=" M 12.07 9.11 C 12.48 9.01 13.31 8.81 13.73 8.71 C 25.88 9.42 38.08 8.96 50.25 8.71 C 52.66 8.66 53.99 11.34 56.29 11.38 C 59.75 13.81 57.18 20.62 57.72 24.28 C 57.53 23.71 57.17 22.57 56.98 21.99 C 56.96 20.53 56.90 17.59 56.87 16.12 C 51.17 16.05 45.44 16.19 39.81 15.14 C 37.17 13.08 35.30 9.17 30.97 10.97 C 27.61 9.91 26.32 13.40 24.16 15.13 C 18.84 17.51 12.88 16.65 7.21 17.16 C 7.13 19.56 6.84 21.94 6.34 24.29 C 6.24 21.53 6.03 16.01 5.93 13.24 L 6.65 13.29 C 8.94 13.22 9.91 10.00 12.07 9.11 Z" />
</g>
<g id="#e71a12ff">
<path fill="#e71a12" opacity="1.00" d=" M 24.16 15.13 C 26.32 13.40 27.61 9.91 30.97 10.97 C 35.30 9.17 37.17 13.08 39.81 15.14 C 43.19 18.38 47.55 20.35 51.80 22.19 C 53.45 22.63 54.86 24.46 53.17 25.81 C 48.18 22.93 42.68 20.62 38.75 16.25 C 36.15 14.17 34.43 9.91 29.99 12.02 C 24.36 16.92 19.19 22.68 11.98 25.33 C 10.61 25.77 9.18 26.15 10.19 24.20 C 15.00 21.42 20.22 19.17 24.16 15.13 Z" />
</g>
<g id="#680c00d9">
<path fill="#680c00" opacity="0.85" d=" M 3.74 52.22 C 2.61 38.82 2.40 25.15 3.75 11.80 C 3.84 12.39 4.00 13.57 4.08 14.17 C 4.06 18.04 4.12 21.91 4.25 25.78 C 3.83 34.59 4.29 43.42 3.74 52.22 Z" />
<path fill="#680c00" opacity="0.85" d=" M 60.25 11.80 C 61.61 25.15 61.37 38.82 60.27 52.22 C 59.85 43.41 60.24 34.59 59.78 25.78 C 59.89 21.91 59.93 18.04 59.92 14.17 C 60.00 13.57 60.16 12.39 60.25 11.80 Z" />
</g>
<g id="#fef4f4ff">
<path fill="#fef4f4" opacity="1.00" d=" M 29.99 12.02 C 34.43 9.91 36.15 14.17 38.75 16.25 C 42.68 20.62 48.18 22.93 53.17 25.81 C 52.09 27.13 51.08 28.57 51.00 30.34 C 48.70 29.38 46.52 28.13 44.20 27.20 C 37.29 30.87 28.66 28.28 21.13 28.93 C 20.72 24.88 16.17 29.63 13.82 29.91 C 13.18 28.40 12.53 26.88 11.98 25.33 C 19.19 22.68 24.36 16.92 29.99 12.02 M 25.79 23.12 L 24.69 23.37 C 24.53 23.76 24.21 24.55 24.05 24.95 C 29.35 25.08 34.65 25.08 39.96 24.95 C 39.98 24.51 40.03 23.62 40.06 23.18 L 39.28 23.28 L 38.20 23.09 C 36.48 20.74 34.50 18.42 31.96 16.95 C 29.40 18.30 27.63 20.93 25.79 23.12 Z" />
</g>
<g id="#f35138ff">
<path fill="#f35138" opacity="1.00" d=" M 7.21 17.16 C 12.88 16.65 18.84 17.51 24.16 15.13 C 20.22 19.17 15.00 21.42 10.19 24.20 C 9.18 26.15 10.61 25.77 11.98 25.33 C 12.53 26.88 13.18 28.40 13.82 29.91 L 12.97 30.25 C 10.57 28.96 8.22 27.55 6.03 25.92 C 6.11 25.51 6.26 24.70 6.34 24.29 C 6.84 21.94 7.13 19.56 7.21 17.16 Z" />
</g>
<g id="#f6563dff">
<path fill="#f6563d" opacity="1.00" d=" M 39.81 15.14 C 45.44 16.19 51.17 16.05 56.87 16.12 C 56.90 17.59 56.96 20.53 56.98 21.99 C 55.25 22.04 53.53 22.12 51.80 22.19 C 47.55 20.35 43.19 18.38 39.81 15.14 Z" />
</g>
<g id="#f55b44ff">
<path fill="#f55b44" opacity="1.00" d=" M 25.79 23.12 C 27.63 20.93 29.40 18.30 31.96 16.95 C 34.50 18.42 36.48 20.74 38.20 23.09 C 34.09 22.41 29.85 21.90 25.79 23.12 Z" />
</g>
<g id="#e00f05ff">
<path fill="#e00f05" opacity="1.00" d=" M 25.79 23.12 C 29.85 21.90 34.09 22.41 38.20 23.09 L 39.28 23.28 C 34.49 23.82 29.42 24.81 24.69 23.37 L 25.79 23.12 Z" />
</g>
<g id="#ef482fff">
<path fill="#ef482f" opacity="1.00" d=" M 51.80 22.19 C 53.53 22.12 55.25 22.04 56.98 21.99 C 57.17 22.57 57.53 23.71 57.72 24.28 C 57.78 24.68 57.91 25.47 57.97 25.86 C 55.91 27.72 53.72 29.53 51.00 30.34 C 51.08 28.57 52.09 27.13 53.17 25.81 C 54.86 24.46 53.45 22.63 51.80 22.19 Z" />
</g>
<g id="#e49392ff">
<path fill="#e49392" opacity="1.00" d=" M 24.05 24.95 C 24.21 24.55 24.53 23.76 24.69 23.37 C 29.42 24.81 34.49 23.82 39.28 23.28 L 40.06 23.18 C 40.03 23.62 39.98 24.51 39.96 24.95 C 34.65 25.08 29.35 25.08 24.05 24.95 Z" />
</g>
<g id="#a31502fc">
<path fill="#a31502" opacity="1.00" d=" M 4.25 25.78 C 6.05 34.98 3.56 44.71 6.29 53.73 C 8.92 56.82 12.42 60.20 16.99 58.96 C 27.00 59.08 37.00 59.08 47.01 58.96 C 52.54 60.18 57.42 55.68 58.64 50.65 C 59.40 42.38 58.48 34.02 59.78 25.78 C 60.24 34.59 59.85 43.41 60.27 52.22 C 60.22 52.64 60.11 53.48 60.06 53.91 C 58.03 56.61 55.69 59.43 52.24 60.26 C 38.75 59.96 25.24 59.73 11.76 60.23 C 8.30 59.44 5.97 56.61 3.96 53.91 C 3.90 53.49 3.80 52.64 3.74 52.22 C 4.29 43.42 3.83 34.59 4.25 25.78 Z" />
</g>
<g id="#de1f03ff">
<path fill="#de1f03" opacity="1.00" d=" M 6.03 25.92 C 8.22 27.55 10.57 28.96 12.97 30.25 C 13.86 30.66 14.79 30.95 15.77 31.12 C 14.79 36.02 16.35 41.04 15.99 45.99 C 13.19 45.57 9.14 47.38 7.24 44.75 C 7.23 38.44 5.48 32.25 6.03 25.92 Z" />
<path fill="#de1f03" opacity="1.00" d=" M 51.00 30.34 C 53.72 29.53 55.91 27.72 57.97 25.86 C 58.10 32.18 57.51 38.50 56.79 44.77 C 55.01 47.66 50.85 45.59 48.01 45.98 C 47.64 41.02 48.95 36.04 48.25 31.11 C 49.18 30.91 50.10 30.66 51.00 30.34 Z" />
</g>
<g id="#ea3f25ff">
<path fill="#ea3f25" opacity="1.00" d=" M 13.82 29.91 C 16.17 29.63 20.72 24.88 21.13 28.93 L 21.37 29.85 C 28.84 30.01 36.34 30.33 43.80 29.87 C 43.90 29.20 44.10 27.87 44.20 27.20 C 46.52 28.13 48.70 29.38 51.00 30.34 C 50.10 30.66 49.18 30.91 48.25 31.11 C 37.42 30.94 26.59 30.93 15.77 31.12 C 14.79 30.95 13.86 30.66 12.97 30.25 L 13.82 29.91 Z" />
</g>
<g id="#f0705eff">
<path fill="#f0705e" opacity="1.00" d=" M 21.13 28.93 C 28.66 28.28 37.29 30.87 44.20 27.20 C 44.10 27.87 43.90 29.20 43.80 29.87 C 36.34 30.33 28.84 30.01 21.37 29.85 L 21.13 28.93 Z" />
</g>
<g id="#d80800ff">
<path fill="#d80800" opacity="1.00" d=" M 15.77 31.12 C 26.59 30.93 37.42 30.94 48.25 31.11 C 48.95 36.04 47.64 41.02 48.01 45.98 C 47.54 47.14 49.03 50.30 47.02 50.01 C 46.99 44.34 47.10 38.67 46.98 33.00 L 46.93 32.04 C 36.98 31.92 27.02 31.92 17.07 32.04 L 17.02 33.00 C 16.90 38.67 17.01 44.34 16.98 50.01 C 14.97 50.31 16.46 47.15 15.99 45.99 C 16.35 41.04 14.79 36.02 15.77 31.12 Z" />
</g>
<g id="#9d4040ff">
<path fill="#9d4040" opacity="1.00" d=" M 17.07 32.04 C 27.02 31.92 36.98 31.92 46.93 32.04 L 46.98 33.00 L 46.00 33.02 C 36.67 32.99 27.33 32.98 18.00 33.02 L 17.02 33.00 L 17.07 32.04 Z" />
</g>
<g id="#e17170ff">
<path fill="#e17170" opacity="1.00" d=" M 17.02 33.00 L 18.00 33.02 C 18.00 39.35 17.99 45.68 18.01 52.01 L 17.04 51.98 C 17.02 51.49 17.00 50.50 16.98 50.01 C 17.01 44.34 16.90 38.67 17.02 33.00 Z" />
</g>
<g id="#fffefeff">
<path fill="#fffefe" opacity="1.00" d=" M 18.00 33.02 C 27.33 32.98 36.67 32.99 46.00 33.02 C 46.00 39.35 46.01 45.68 45.99 52.01 C 44.72 52.07 43.47 52.00 42.22 51.79 C 42.15 51.35 41.99 50.47 41.91 50.02 L 41.74 49.10 C 35.24 48.88 28.75 48.88 22.26 49.10 L 22.09 50.03 C 22.01 50.48 21.86 51.39 21.78 51.84 C 20.53 52.01 19.27 52.06 18.01 52.01 C 17.99 45.68 18.00 39.35 18.00 33.02 M 22.04 37.01 C 22.76 39.36 19.75 46.13 22.97 45.95 C 28.98 46.14 35.01 46.03 41.03 45.96 L 41.96 45.99 C 41.24 43.64 44.25 36.87 41.01 37.05 C 35.01 36.86 29.00 36.97 22.99 37.03 L 22.04 37.01 Z" />
</g>
<g id="#e1706fff">
<path fill="#e1706f" opacity="1.00" d=" M 46.00 33.02 L 46.98 33.00 C 47.10 38.67 46.99 44.34 47.02 50.01 C 46.76 50.51 46.25 51.51 45.99 52.01 C 46.01 45.68 46.00 39.35 46.00 33.02 Z" />
</g>
<g id="#dd7171ff">
<path fill="#dd7171" opacity="1.00" d=" M 22.04 37.01 L 22.99 37.03 L 23.01 38.01 C 23.00 39.67 23.00 41.34 23.03 43.00 L 23.03 44.00 L 23.01 44.98 L 22.97 45.95 C 19.75 46.13 22.76 39.36 22.04 37.01 Z" />
<path fill="#dd7171" opacity="1.00" d=" M 41.01 37.05 C 44.25 36.87 41.24 43.64 41.96 45.99 L 41.03 45.96 L 40.99 44.99 L 40.97 44.00 L 40.97 43.00 C 41.00 41.34 41.00 39.68 40.99 38.02 L 41.01 37.05 Z" />
</g>
<g id="#e64d41ff">
<path fill="#e64d41" opacity="1.00" d=" M 22.99 37.03 C 29.00 36.97 35.01 36.86 41.01 37.05 L 40.99 38.02 C 35.00 38.00 29.00 38.00 23.01 38.01 L 22.99 37.03 Z" />
</g>
<g id="#db1902ff">
<path fill="#db1902" opacity="1.00" d=" M 23.01 38.01 C 29.00 38.00 35.00 38.00 40.99 38.02 C 41.00 39.68 41.00 41.34 40.97 43.00 C 34.99 43.00 29.01 43.00 23.03 43.00 C 23.00 41.34 23.00 39.67 23.01 38.01 Z" />
</g>
<g id="#d30000ff">
<path fill="#d30000" opacity="1.00" d=" M 23.03 43.00 C 29.01 43.00 34.99 43.00 40.97 43.00 L 40.97 44.00 C 34.99 44.00 29.01 44.00 23.03 44.00 L 23.03 43.00 Z" />
</g>
<g id="#9a0000ff">
<path fill="#9a0000" opacity="1.00" d=" M 23.03 44.00 C 29.01 44.00 34.99 44.00 40.97 44.00 L 40.99 44.99 C 34.99 45.00 29.00 45.00 23.01 44.98 L 23.03 44.00 Z" />
</g>
<g id="#816969ff">
<path fill="#816969" opacity="1.00" d=" M 23.01 44.98 C 29.00 45.00 34.99 45.00 40.99 44.99 L 41.03 45.96 C 35.01 46.03 28.98 46.14 22.97 45.95 L 23.01 44.98 Z" />
</g>
<g id="#fae8e5ff">
<path fill="#fae8e5" opacity="1.00" d=" M 22.26 49.10 C 28.75 48.88 35.24 48.88 41.74 49.10 L 41.91 50.02 C 35.30 50.00 28.70 49.96 22.09 50.03 L 22.26 49.10 Z" />
</g>
<g id="#d9412bff">
<path fill="#d9412b" opacity="1.00" d=" M 22.09 50.03 C 28.70 49.96 35.30 50.00 41.91 50.02 C 41.99 50.47 42.15 51.35 42.22 51.79 C 35.52 51.13 28.36 49.81 21.78 51.84 C 21.86 51.39 22.01 50.48 22.09 50.03 Z" />
</g>
<g id="#02000027">
<path fill="#020000" opacity="0.15" d=" M 3.96 53.91 C 5.97 56.61 8.30 59.44 11.76 60.23 C 25.13 61.54 38.86 61.49 52.24 60.26 C 55.69 59.43 58.03 56.61 60.06 53.91 C 60.23 59.37 55.13 62.44 50.61 64.00 L 13.39 64.00 C 8.88 62.44 3.76 59.37 3.96 53.91 Z" />
</g>
<g id="#680c00d5">
<path fill="#680c00" opacity="0.84" d=" M 11.76 60.23 C 25.24 59.73 38.75 59.96 52.24 60.26 C 38.86 61.49 25.13 61.54 11.76 60.23 Z" />
</g>
</svg>
