<?xml version="1.0" encoding="UTF-8" ?>
<!DOCTYPE svg PUBLIC "-//W3C//DTD SVG 1.1//EN" "http://www.w3.org/Graphics/SVG/1.1/DTD/svg11.dtd">
<svg width="64pt" height="64pt" viewBox="0 0 64 64" version="1.1" xmlns="http://www.w3.org/2000/svg">
<g id="#ce0000ea">
<path fill="#ce0000" opacity="0.92" d=" M 28.29 3.38 C 42.62 1.18 57.32 11.54 60.16 25.73 C 63.53 39.53 54.94 54.75 41.48 59.17 C 32.47 62.32 21.92 60.69 14.40 54.76 C 5.44 48.03 1.16 35.78 4.03 24.93 C 6.73 13.68 16.79 4.72 28.29 3.38 M 24.54 6.76 C 11.85 10.23 3.28 24.19 6.15 37.08 C 8.49 50.96 23.35 60.97 37.11 57.84 C 51.36 55.45 61.44 39.85 57.62 25.86 C 54.58 11.62 38.42 2.23 24.54 6.76 Z" />
<path fill="#ce0000" opacity="0.92" d=" M 21.23 11.80 C 21.84 12.16 23.05 12.89 23.65 13.25 C 21.10 17.18 17.82 20.57 14.10 23.40 C 13.64 22.87 12.72 21.82 12.26 21.29 C 15.84 18.75 19.04 15.64 21.23 11.80 Z" />
<path fill="#ce0000" opacity="0.92" d=" M 26.93 13.56 C 33.82 13.66 40.72 13.68 47.61 13.54 C 47.43 18.08 47.43 22.63 47.58 27.17 C 40.74 27.09 33.89 27.09 27.04 27.17 C 27.12 22.63 27.15 18.09 26.93 13.56 M 29.78 16.03 C 29.79 16.80 29.79 18.32 29.79 19.09 C 34.79 19.12 39.79 19.13 44.79 19.08 C 44.77 18.30 44.73 16.75 44.71 15.98 C 39.73 15.94 34.76 15.90 29.78 16.03 M 29.88 21.36 C 29.82 22.51 29.77 23.66 29.73 24.81 C 34.74 24.83 39.75 24.83 44.76 24.81 C 44.77 23.67 44.78 22.54 44.78 21.40 C 39.81 21.38 34.84 21.41 29.88 21.36 Z" />
<path fill="#ce0000" opacity="0.92" d=" M 21.62 20.95 C 22.44 21.46 23.26 21.96 24.08 22.47 C 22.72 24.94 20.11 27.04 20.27 30.07 C 20.28 37.12 20.18 44.17 20.39 51.22 C 19.61 51.19 18.05 51.13 17.28 51.10 C 17.63 44.41 17.27 37.72 17.57 31.03 C 16.15 32.49 14.72 33.94 13.25 35.35 C 12.80 34.76 11.90 33.57 11.45 32.97 C 15.76 29.85 19.28 25.74 21.62 20.95 Z" />
<path fill="#ce0000" opacity="0.92" d=" M 22.91 30.07 C 32.07 30.06 41.23 30.34 50.37 29.89 C 50.38 30.60 50.38 32.00 50.39 32.71 C 48.59 32.61 46.80 32.51 45.01 32.43 C 44.94 33.61 44.87 34.79 44.81 35.97 C 46.72 35.93 48.62 35.89 50.53 35.83 C 50.54 36.51 50.55 37.86 50.56 38.54 C 48.66 38.47 46.77 38.42 44.87 38.37 C 44.74 42.07 45.23 45.83 44.50 49.48 C 42.08 51.13 38.86 50.54 36.12 50.26 C 35.84 49.60 35.27 48.26 34.99 47.60 C 37.37 47.72 39.75 47.85 42.13 47.91 C 42.21 44.74 42.21 41.56 42.13 38.39 C 35.57 38.46 29.01 38.27 22.46 38.53 C 22.47 37.86 22.49 36.51 22.50 35.84 C 29.05 36.04 35.61 35.93 42.16 35.96 C 42.18 35.10 42.21 33.39 42.23 32.54 C 35.78 32.46 29.33 32.43 22.89 32.61 C 22.89 31.97 22.91 30.71 22.91 30.07 Z" />
<path fill="#ce0000" opacity="0.92" d=" M 28.18 40.86 C 28.58 40.36 29.39 39.37 29.80 38.87 C 31.86 40.93 33.81 43.10 35.69 45.33 C 34.96 46.01 34.23 46.70 33.50 47.39 C 31.86 45.11 29.96 43.03 28.18 40.86 Z" />
</g>
</svg>
