<?xml version="1.0" encoding="UTF-8" ?>
<!DOCTYPE svg PUBLIC "-//W3C//DTD SVG 1.1//EN" "http://www.w3.org/Graphics/SVG/1.1/DTD/svg11.dtd">
<svg width="64pt" height="64pt" viewBox="0 0 64 64" version="1.1" xmlns="http://www.w3.org/2000/svg">
<g id="#b66613ff">
<path fill="#b66613" opacity="1.00" d=" M 21.93 5.10 C 34.24 0.26 49.36 5.34 56.25 16.62 C 61.82 25.06 61.99 36.24 57.73 45.28 C 54.28 50.87 49.51 55.84 43.35 58.39 C 33.44 62.71 20.92 60.97 13.06 53.37 C 17.06 54.18 20.60 56.23 24.39 57.63 C 34.25 60.55 45.81 57.44 52.51 49.53 C 57.78 43.47 60.13 35.00 58.67 27.10 C 58.25 25.42 57.00 24.14 56.14 22.69 C 53.64 17.26 49.87 12.28 44.53 9.39 C 35.67 4.27 23.69 5.24 15.85 11.87 C 12.22 14.66 9.86 18.65 7.86 22.69 C 3.96 26.95 4.66 33.17 5.69 38.39 C 6.85 43.97 11.18 48.06 13.04 53.35 C 10.30 51.09 8.16 48.22 6.26 45.26 C 4.70 41.35 3.28 37.30 3.28 33.05 C 2.65 20.97 10.61 9.22 21.93 5.10 Z" />
</g>
<g id="#ffffffff">
<path fill="#ffffff" opacity="1.00" d=" M 15.85 11.87 C 23.69 5.24 35.67 4.27 44.53 9.39 C 49.87 12.28 53.64 17.26 56.14 22.69 C 56.52 24.27 56.88 25.86 57.25 27.45 C 55.45 22.50 52.82 17.77 48.88 14.20 C 40.34 6.16 26.10 5.61 16.84 12.74 C 12.05 16.49 8.76 21.75 6.76 27.44 C 7.12 25.86 7.49 24.27 7.86 22.69 C 9.86 18.65 12.22 14.66 15.85 11.87 Z" />
<path fill="#ffffff" opacity="1.00" d=" M 15.88 16.98 C 26.46 17.09 37.06 17.05 47.65 17.01 C 47.65 18.95 47.67 20.89 47.69 22.84 C 46.34 22.76 44.99 22.68 43.64 22.60 C 43.65 23.30 43.67 24.69 43.68 25.39 C 43.72 32.91 43.77 40.44 43.66 47.97 C 41.12 50.72 36.92 49.32 33.61 49.63 C 33.35 48.39 33.10 47.15 32.85 45.91 C 34.96 46.00 37.54 46.65 39.27 45.08 L 39.12 44.51 L 38.97 43.94 C 40.15 36.91 39.40 29.74 39.60 22.65 C 31.69 22.69 23.77 22.52 15.86 22.79 C 15.87 20.86 15.88 18.92 15.88 16.98 Z" />
<path fill="#ffffff" opacity="1.00" d=" M 18.92 25.98 C 24.26 26.33 29.61 26.12 34.95 26.12 C 34.86 30.86 34.88 35.60 35.00 40.34 L 34.99 40.97 C 31.06 40.94 27.14 40.94 23.22 40.94 C 23.21 41.68 23.20 43.15 23.20 43.89 C 21.87 43.81 20.54 43.74 19.21 43.61 C 19.35 37.74 19.80 31.82 18.92 25.98 M 23.24 29.76 C 23.24 32.44 23.18 35.13 22.93 37.80 L 23.86 36.98 C 25.86 37.51 29.67 38.18 30.97 36.59 C 31.01 34.30 31.03 32.02 31.04 29.74 C 28.44 29.75 25.84 29.75 23.24 29.76 Z" />
</g>
<g id="#f8b55fff">
<path fill="#f8b55f" opacity="1.00" d=" M 16.84 12.74 C 26.10 5.61 40.34 6.16 48.88 14.20 C 45.67 15.08 42.37 15.63 39.04 15.52 C 31.90 15.32 24.75 15.72 17.62 15.19 C 17.35 14.37 17.09 13.56 16.84 12.74 Z" />
</g>
<g id="#eda13dff">
<path fill="#eda13d" opacity="1.00" d=" M 6.76 27.44 C 8.76 21.75 12.05 16.49 16.84 12.74 C 17.09 13.56 17.35 14.37 17.62 15.19 C 24.75 15.72 31.90 15.32 39.04 15.52 C 42.37 15.63 45.67 15.08 48.88 14.20 C 52.82 17.77 55.45 22.50 57.25 27.45 C 57.33 27.79 57.48 28.48 57.56 28.82 C 53.14 28.54 48.79 27.54 44.70 25.83 L 43.68 25.39 C 43.67 24.69 43.65 23.30 43.64 22.60 C 44.99 22.68 46.34 22.76 47.69 22.84 C 47.67 20.89 47.65 18.95 47.65 17.01 L 47.64 16.02 C 37.05 15.99 26.46 15.98 15.87 16.02 L 15.88 16.98 C 15.88 18.92 15.87 20.86 15.86 22.79 C 23.77 22.52 31.69 22.69 39.60 22.65 C 39.40 29.74 40.15 36.91 38.97 43.94 C 38.71 43.71 38.19 43.24 37.93 43.00 C 40.96 37.71 38.61 31.27 39.09 25.48 C 38.12 25.38 36.19 25.19 35.22 25.09 C 30.11 24.94 24.97 24.79 19.87 25.17 L 18.92 25.98 C 14.97 27.68 10.69 28.37 6.44 28.84 C 6.52 28.49 6.68 27.79 6.76 27.44 Z" />
</g>
<g id="#d8280bff">
<path fill="#d8280b" opacity="1.00" d=" M 15.87 16.02 C 26.46 15.98 37.05 15.99 47.64 16.02 L 47.65 17.01 C 37.06 17.05 26.46 17.09 15.88 16.98 L 15.87 16.02 Z" />
</g>
<g id="#cf8019ff">
<path fill="#cf8019" opacity="1.00" d=" M 5.69 38.39 C 4.66 33.17 3.96 26.95 7.86 22.69 C 7.49 24.27 7.12 25.86 6.76 27.44 C 6.68 27.79 6.52 28.49 6.44 28.84 C 5.51 33.58 6.84 38.37 9.28 42.44 C 12.59 42.79 15.90 43.26 19.21 43.61 C 20.54 43.74 21.87 43.81 23.20 43.89 C 23.20 43.15 23.21 41.68 23.22 40.94 C 27.14 40.94 31.06 40.94 34.99 40.97 L 35.00 40.34 C 35.39 35.27 35.25 30.17 35.22 25.09 C 36.19 25.19 38.12 25.38 39.09 25.48 C 38.61 31.27 40.96 37.71 37.93 43.00 C 38.19 43.24 38.71 43.71 38.97 43.94 L 39.12 44.51 C 37.00 44.81 34.86 45.05 32.79 45.63 L 32.85 45.91 C 33.10 47.15 33.35 48.39 33.61 49.63 C 36.92 49.32 41.12 50.72 43.66 47.97 C 44.38 46.47 44.89 44.88 45.27 43.27 C 48.41 43.13 51.54 42.94 54.66 42.70 C 57.16 38.55 58.61 33.67 57.56 28.82 C 57.48 28.48 57.33 27.79 57.25 27.45 C 56.88 25.86 56.52 24.27 56.14 22.69 C 57.00 24.14 58.25 25.42 58.67 27.10 C 60.13 35.00 57.78 43.47 52.51 49.53 C 45.81 57.44 34.25 60.55 24.39 57.63 C 20.60 56.23 17.06 54.18 13.06 53.37 L 13.04 53.35 C 11.18 48.06 6.85 43.97 5.69 38.39 Z" />
</g>
<g id="#c63f01ff">
<path fill="#c63f01" opacity="1.00" d=" M 19.87 25.17 C 24.97 24.79 30.11 24.94 35.22 25.09 C 35.25 30.17 35.39 35.27 35.00 40.34 C 34.88 35.60 34.86 30.86 34.95 26.12 C 29.61 26.12 24.26 26.33 18.92 25.98 L 19.87 25.17 Z" />
</g>
<g id="#df8a1aff">
<path fill="#df8a1a" opacity="1.00" d=" M 6.44 28.84 C 10.69 28.37 14.97 27.68 18.92 25.98 C 19.80 31.82 19.35 37.74 19.21 43.61 C 15.90 43.26 12.59 42.79 9.28 42.44 C 6.84 38.37 5.51 33.58 6.44 28.84 Z" />
</g>
<g id="#d67200ff">
<path fill="#d67200" opacity="1.00" d=" M 43.68 25.39 L 44.70 25.83 C 44.97 31.64 44.96 37.46 45.27 43.27 C 44.89 44.88 44.38 46.47 43.66 47.97 C 43.77 40.44 43.72 32.91 43.68 25.39 Z" />
</g>
<g id="#de891aff">
<path fill="#de891a" opacity="1.00" d=" M 44.70 25.83 C 48.79 27.54 53.14 28.54 57.56 28.82 C 58.61 33.67 57.16 38.55 54.66 42.70 C 51.54 42.94 48.41 43.13 45.27 43.27 C 44.96 37.46 44.97 31.64 44.70 25.83 Z" />
</g>
<g id="#e18b1bff">
<path fill="#e18b1b" opacity="1.00" d=" M 23.24 29.76 C 25.84 29.75 28.44 29.75 31.04 29.74 C 31.03 32.02 31.01 34.30 30.97 36.59 C 28.66 36.38 25.92 35.58 23.86 36.98 L 22.93 37.80 C 23.18 35.13 23.24 32.44 23.24 29.76 Z" />
</g>
<g id="#9e0e00ff">
<path fill="#9e0e00" opacity="1.00" d=" M 23.86 36.98 C 25.92 35.58 28.66 36.38 30.97 36.59 C 29.67 38.18 25.86 37.51 23.86 36.98 Z" />
</g>
<g id="#551212ff">
<path fill="#551212" opacity="1.00" d=" M 32.79 45.63 C 34.86 45.05 37.00 44.81 39.12 44.51 L 39.27 45.08 C 37.54 46.65 34.96 46.00 32.85 45.91 L 32.79 45.63 Z" />
</g>
<g id="#00000026">
<path fill="#000000" opacity="0.15" d=" M 14.98 58.14 C 10.82 54.94 6.70 50.78 6.26 45.26 C 8.16 48.22 10.30 51.09 13.04 53.35 L 13.06 53.37 C 20.92 60.97 33.44 62.71 43.35 58.39 C 49.51 55.84 54.28 50.87 57.73 45.28 C 57.28 47.92 56.59 50.62 54.71 52.64 C 49.85 59.01 42.30 62.71 34.50 64.00 L 29.54 64.00 C 24.39 62.98 19.21 61.36 14.98 58.14 Z" />
</g>
</svg>
