<?xml version="1.0" encoding="UTF-8" ?>
<!DOCTYPE svg PUBLIC "-//W3C//DTD SVG 1.1//EN" "http://www.w3.org/Graphics/SVG/1.1/DTD/svg11.dtd">
<svg width="64pt" height="64pt" viewBox="0 0 64 64" version="1.1" xmlns="http://www.w3.org/2000/svg">
<g id="#363636e2">
<path fill="#363636" opacity="0.89" d=" M 9.03 9.93 C 8.96 3.70 18.37 0.61 21.06 6.88 C 18.39 9.43 12.35 4.60 12.28 9.81 C 14.93 14.58 19.72 17.71 23.16 21.89 C 22.78 22.39 22.04 23.38 21.67 23.88 C 21.32 24.15 20.64 24.68 20.29 24.94 C 17.33 19.42 10.94 16.16 9.03 9.93 Z" />
</g>
<g id="#a11023dd">
<path fill="#a11023" opacity="0.87" d=" M 31.20 9.87 C 33.26 11.29 34.38 13.55 35.32 15.80 C 33.82 15.06 32.33 14.30 30.81 13.62 C 30.93 12.37 31.06 11.11 31.20 9.87 Z" />
</g>
<g id="#ef5681fe">
<path fill="#ef5681" opacity="1.00" d=" M 29.93 16.05 C 30.15 15.45 30.59 14.23 30.81 13.62 C 32.33 14.30 33.82 15.06 35.32 15.80 C 36.00 17.09 36.63 18.40 37.21 19.74 C 39.37 26.95 43.13 33.56 47.00 39.97 C 49.08 42.58 50.03 46.36 53.21 47.92 C 53.49 48.40 54.05 49.36 54.33 49.84 C 54.32 51.93 53.81 52.35 52.79 51.10 C 45.88 42.11 38.86 33.17 31.29 24.72 C 29.56 22.12 26.51 20.17 25.86 16.97 C 27.28 17.92 28.57 19.03 29.95 20.03 C 29.97 18.70 29.96 17.38 29.93 16.05 Z" />
</g>
<g id="#7a101a9d">
<path fill="#7a101a" opacity="0.62" d=" M 24.10 20.96 C 23.73 18.49 22.79 13.59 26.14 15.57 C 25.63 16.92 24.61 19.61 24.10 20.96 Z" />
</g>
<g id="#e4516ffe">
<path fill="#e4516f" opacity="1.00" d=" M 24.10 20.96 C 24.61 19.61 25.63 16.92 26.14 15.57 C 27.40 15.76 28.66 15.92 29.93 16.05 C 29.96 17.38 29.97 18.70 29.95 20.03 C 28.57 19.03 27.28 17.92 25.86 16.97 C 26.51 20.17 29.56 22.12 31.29 24.72 C 38.86 33.17 45.88 42.11 52.79 51.10 C 53.81 52.35 54.32 51.93 54.33 49.84 C 55.72 52.07 57.14 54.29 58.37 56.61 C 57.74 57.01 56.48 57.79 55.85 58.18 C 54.90 57.54 53.94 56.92 52.97 56.31 C 53.51 56.19 54.57 55.95 55.10 55.82 C 51.05 51.85 45.76 49.34 41.85 45.20 C 36.12 38.33 29.16 32.46 22.31 26.68 C 22.15 25.98 21.83 24.58 21.67 23.88 C 22.04 23.38 22.78 22.39 23.16 21.89 C 23.39 21.65 23.86 21.19 24.10 20.96 Z" />
</g>
<g id="#b91833ea">
<path fill="#b91833" opacity="0.92" d=" M 37.21 19.74 C 43.13 28.74 48.32 38.32 53.21 47.92 C 50.03 46.36 49.08 42.58 47.00 39.97 C 43.13 33.56 39.37 26.95 37.21 19.74 Z" />
</g>
<g id="#e64567ff">
<path fill="#e64567" opacity="1.00" d=" M 20.29 24.94 C 20.64 24.68 21.32 24.15 21.67 23.88 C 21.83 24.58 22.15 25.98 22.31 26.68 C 29.16 32.46 36.12 38.33 41.85 45.20 C 33.69 39.44 25.77 33.18 18.79 26.03 C 19.17 25.76 19.92 25.22 20.29 24.94 Z" />
</g>
<g id="#b91d2fea">
<path fill="#b91d2f" opacity="0.92" d=" M 16.10 25.11 C 17.49 25.02 18.89 24.97 20.29 24.94 C 19.92 25.22 19.17 25.76 18.79 26.03 C 17.57 26.04 16.99 26.66 17.05 27.89 C 16.77 28.42 16.22 29.49 15.94 30.03 C 15.98 28.39 15.98 26.75 16.10 25.11 Z" />
</g>
<g id="#ed5a80fd">
<path fill="#ed5a80" opacity="1.00" d=" M 17.05 27.89 C 16.99 26.66 17.57 26.04 18.79 26.03 C 25.77 33.18 33.69 39.44 41.85 45.20 C 45.76 49.34 51.05 51.85 55.10 55.82 C 54.57 55.95 53.51 56.19 52.97 56.31 L 52.19 56.37 C 49.45 54.63 46.70 52.90 43.95 51.18 C 40.24 46.15 33.01 45.10 29.43 39.85 C 26.51 34.73 21.27 31.78 17.05 27.89 Z" />
</g>
<g id="#d02147f6">
<path fill="#d02147" opacity="0.96" d=" M 17.05 27.89 C 21.27 31.78 26.51 34.73 29.43 39.85 C 33.01 45.10 40.24 46.15 43.95 51.18 C 32.05 45.34 20.38 38.91 8.84 32.40 C 11.31 31.96 13.82 31.44 15.94 30.03 C 16.22 29.49 16.77 28.42 17.05 27.89 Z" />
</g>
<g id="#0100001c">
<path fill="#010000" opacity="0.11" d=" M 52.19 56.37 L 52.97 56.31 C 53.94 56.92 54.90 57.54 55.85 58.18 C 56.73 58.88 57.61 59.58 58.47 60.30 C 56.28 61.82 52.66 61.28 51.52 64.00 L 39.41 64.00 C 38.37 58.79 28.22 64.08 27.94 58.13 C 35.91 56.23 44.13 57.47 52.19 56.37 M 38.22 58.15 C 34.57 59.95 41.77 63.65 43.00 61.02 C 45.44 60.98 50.34 60.89 52.78 60.85 C 56.43 59.06 49.22 55.33 48.00 57.98 C 45.56 58.02 40.66 58.11 38.22 58.15 Z" />
</g>
<g id="#27181ac8">
<path fill="#27181a" opacity="0.78" d=" M 55.85 58.18 C 56.48 57.79 57.74 57.01 58.37 56.61 C 59.27 57.76 61.12 60.11 58.47 60.30 C 57.61 59.58 56.73 58.88 55.85 58.18 Z" />
</g>
<g id="#00000038">
<path fill="#000000" opacity="0.22" d=" M 38.22 58.15 C 40.66 58.11 45.56 58.02 48.00 57.98 C 49.22 55.33 56.43 59.06 52.78 60.85 C 50.34 60.89 45.44 60.98 43.00 61.02 C 41.77 63.65 34.57 59.95 38.22 58.15 Z" />
</g>
</svg>
