<?xml version="1.0" encoding="UTF-8" ?>
<!DOCTYPE svg PUBLIC "-//W3C//DTD SVG 1.1//EN" "http://www.w3.org/Graphics/SVG/1.1/DTD/svg11.dtd">
<svg width="64pt" height="64pt" viewBox="0 0 64 64" version="1.1" xmlns="http://www.w3.org/2000/svg">
<g id="#3ec2e7ff">
<path fill="#3ec2e7" opacity="1.00" d=" M 21.14 4.93 C 24.30 3.01 28.13 2.94 31.70 2.58 C 28.37 4.09 24.78 4.76 21.14 4.93 Z" />
<path fill="#3ec2e7" opacity="1.00" d=" M 33.19 7.87 C 33.68 7.53 34.65 6.84 35.13 6.49 C 37.07 7.65 39.02 8.81 41.06 9.79 C 40.88 10.10 40.52 10.72 40.33 11.02 C 39.09 10.33 37.85 9.64 36.60 8.95 C 36.47 10.56 36.34 12.16 36.20 13.77 L 35.54 13.54 C 32.95 12.33 30.37 11.09 27.78 9.89 C 29.31 9.35 30.86 8.83 32.38 8.24 L 33.19 7.87 Z" />
</g>
<g id="#6dba9bfb">
<path fill="#6dba9b" opacity="1.00" d=" M 31.70 2.58 C 36.25 2.52 40.90 3.63 44.98 5.70 L 44.53 6.64 C 41.34 6.20 38.21 5.44 35.09 4.67 C 34.25 4.41 33.41 4.15 32.57 3.90 C 32.54 4.56 32.49 5.88 32.46 6.53 C 30.35 6.70 28.22 6.87 26.26 7.71 C 24.70 7.06 23.15 6.38 21.54 5.87 L 20.00 5.39 L 21.14 4.93 C 24.78 4.76 28.37 4.09 31.70 2.58 Z" />
</g>
<g id="#daf142ff">
<path fill="#daf142" opacity="1.00" d=" M 32.57 3.90 C 33.41 4.15 34.25 4.41 35.09 4.67 L 35.72 5.82 C 37.82 6.61 39.93 7.39 42.01 8.20 C 41.78 8.60 41.30 9.39 41.06 9.79 C 39.02 8.81 37.07 7.65 35.13 6.49 C 34.65 6.84 33.68 7.53 33.19 7.87 L 32.38 8.24 L 32.46 6.53 C 32.49 5.88 32.54 4.56 32.57 3.90 Z" />
<path fill="#daf142" opacity="1.00" d=" M 36.60 8.95 C 37.85 9.64 39.09 10.33 40.33 11.02 C 40.95 11.05 42.19 11.11 42.80 11.14 C 44.15 12.42 45.49 13.70 46.71 15.10 C 46.62 15.51 46.44 16.34 46.36 16.75 C 45.49 14.55 43.75 13.71 41.14 14.22 C 41.80 14.78 43.11 15.88 43.77 16.44 C 39.30 16.30 37.20 20.38 34.63 23.25 C 34.96 24.22 35.31 25.20 35.67 26.17 C 34.74 25.20 33.85 24.20 32.96 23.19 C 30.76 23.55 28.58 23.97 26.40 24.45 C 26.47 25.47 26.60 27.51 26.66 28.53 C 25.68 28.77 24.71 29.01 23.73 29.25 C 22.89 28.13 22.10 26.97 21.24 25.87 C 20.89 25.56 20.19 24.96 19.84 24.65 C 20.69 24.65 22.39 24.64 23.24 24.63 C 25.63 22.30 27.97 19.92 30.30 17.53 C 32.16 17.49 34.02 17.43 35.88 17.37 C 34.83 16.20 33.78 15.03 32.73 13.87 C 33.43 13.78 34.84 13.62 35.54 13.54 L 36.20 13.77 C 36.34 12.16 36.47 10.56 36.60 8.95 Z" />
</g>
<g id="#6aceeaff">
<path fill="#6aceea" opacity="1.00" d=" M 9.13 13.60 C 12.30 10.33 15.63 6.99 20.00 5.39 L 21.54 5.87 C 17.47 7.31 13.84 9.71 10.57 12.49 C 11.78 13.34 12.98 14.21 14.16 15.11 C 14.77 17.50 14.81 20.19 16.59 22.10 C 17.66 22.96 18.77 23.79 19.84 24.65 C 20.19 24.96 20.89 25.56 21.24 25.87 C 17.43 25.42 13.60 26.03 9.99 27.28 C 9.23 25.41 7.99 23.53 8.33 21.43 C 8.66 19.07 9.96 17.02 10.95 14.90 C 10.50 14.58 9.58 13.92 9.13 13.60 Z" />
</g>
<g id="#0190d0ff">
<path fill="#0190d0" opacity="1.00" d=" M 35.09 4.67 C 38.21 5.44 41.34 6.20 44.53 6.64 L 46.14 6.29 C 46.76 6.82 47.37 7.36 47.99 7.90 L 47.24 8.31 C 47.20 8.69 47.10 9.45 47.06 9.83 C 47.17 10.18 47.39 10.88 47.50 11.23 C 48.67 14.95 50.03 19.32 47.93 22.96 C 46.01 26.15 43.27 28.72 40.74 31.41 C 40.73 31.91 40.71 32.90 40.70 33.40 C 39.12 33.43 37.55 33.56 35.97 33.66 C 35.74 33.95 35.29 34.55 35.06 34.85 C 28.30 39.45 20.47 45.63 11.76 42.99 C 12.47 42.48 13.19 42.00 13.91 41.52 C 15.03 40.86 16.17 40.25 17.33 39.69 C 22.54 38.42 26.89 35.25 31.33 32.41 C 31.84 32.94 32.85 33.99 33.35 34.52 C 33.59 33.89 33.81 33.26 34.02 32.62 L 34.06 30.87 C 34.20 29.97 34.34 29.07 34.50 28.18 C 35.16 28.37 36.48 28.75 37.14 28.94 C 37.35 28.75 37.78 28.38 37.99 28.19 C 41.44 24.95 45.40 21.65 46.36 16.75 C 46.44 16.34 46.62 15.51 46.71 15.10 C 45.49 13.70 44.15 12.42 42.80 11.14 C 42.19 11.11 40.95 11.05 40.33 11.02 C 40.52 10.72 40.88 10.10 41.06 9.79 C 41.30 9.39 41.78 8.60 42.01 8.20 C 39.93 7.39 37.82 6.61 35.72 5.82 L 35.09 4.67 M 39.04 28.26 C 38.54 29.86 39.12 30.39 40.78 29.87 C 41.28 28.27 40.70 27.74 39.04 28.26 Z" />
</g>
<g id="#c7e790ff">
<path fill="#c7e790" opacity="1.00" d=" M 10.57 12.49 C 13.84 9.71 17.47 7.31 21.54 5.87 C 23.15 6.38 24.70 7.06 26.26 7.71 C 22.01 9.59 17.04 10.75 14.36 14.91 L 14.16 15.11 C 12.98 14.21 11.78 13.34 10.57 12.49 Z" />
</g>
<g id="#e9f88eff">
<path fill="#e9f88e" opacity="1.00" d=" M 26.26 7.71 C 28.22 6.87 30.35 6.70 32.46 6.53 L 32.38 8.24 C 30.86 8.83 29.31 9.35 27.78 9.89 C 30.37 11.09 32.95 12.33 35.54 13.54 C 34.84 13.62 33.43 13.78 32.73 13.87 C 32.16 13.94 31.02 14.10 30.45 14.18 C 30.39 15.29 30.35 16.41 30.30 17.53 C 27.97 19.92 25.63 22.30 23.24 24.63 C 22.39 24.64 20.69 24.65 19.84 24.65 C 18.77 23.79 17.66 22.96 16.59 22.10 C 19.20 20.73 22.93 19.97 23.76 16.68 C 24.52 15.28 23.89 12.98 22.02 13.11 C 19.39 13.34 16.88 14.20 14.36 14.91 C 17.04 10.75 22.01 9.59 26.26 7.71 Z" />
</g>
<g id="#89b11dff">
<path fill="#89b11d" opacity="1.00" d=" M 47.24 8.31 L 47.99 7.90 L 48.73 8.29 C 48.91 9.35 49.55 10.04 50.64 10.37 C 50.43 12.06 47.52 11.09 47.06 9.83 C 47.10 9.45 47.20 8.69 47.24 8.31 Z" />
</g>
<g id="#36683bd5">
<path fill="#36683b" opacity="0.84" d=" M 48.73 8.29 L 49.71 8.26 C 50.06 8.71 50.75 9.62 51.10 10.07 L 50.64 10.37 C 49.55 10.04 48.91 9.35 48.73 8.29 Z" />
</g>
<g id="#0063aaff">
<path fill="#0063aa" opacity="1.00" d=" M 50.08 12.00 C 51.00 11.63 51.91 11.26 52.83 10.87 C 53.07 11.33 53.55 12.23 53.80 12.69 C 54.66 14.41 55.53 16.12 56.38 17.85 C 55.85 21.39 55.55 25.02 54.32 28.41 C 53.13 31.36 51.20 33.93 49.48 36.58 C 48.17 35.95 46.87 35.31 45.56 34.68 C 45.10 34.48 44.19 34.07 43.73 33.87 C 47.08 31.16 50.94 28.33 51.85 23.83 C 53.08 19.85 51.49 15.88 50.13 12.18 L 50.08 12.00 Z" />
</g>
<g id="#007bbfff">
<path fill="#007bbf" opacity="1.00" d=" M 47.50 11.23 C 48.14 11.42 49.43 11.80 50.08 12.00 L 50.13 12.18 C 51.49 15.88 53.08 19.85 51.85 23.83 C 50.94 28.33 47.08 31.16 43.73 33.87 C 42.97 33.75 41.46 33.52 40.70 33.40 C 40.71 32.90 40.73 31.91 40.74 31.41 C 43.27 28.72 46.01 26.15 47.93 22.96 C 50.03 19.32 48.67 14.95 47.50 11.23 Z" />
<path fill="#007bbf" opacity="1.00" d=" M 11.76 42.99 C 20.47 45.63 28.30 39.45 35.06 34.85 C 35.46 35.12 36.27 35.67 36.67 35.95 L 36.06 37.73 C 35.63 38.83 35.18 39.92 34.73 41.01 C 30.14 43.28 25.90 46.42 20.92 47.79 C 16.02 48.46 11.47 45.76 6.61 45.48 L 6.43 45.46 C 4.96 42.49 3.83 39.35 3.16 36.10 C 6.03 39.12 9.86 40.79 13.91 41.52 C 13.19 42.00 12.47 42.48 11.76 42.99 Z" />
</g>
<g id="#ebf8b6ff">
<path fill="#ebf8b6" opacity="1.00" d=" M 14.36 14.91 C 16.88 14.20 19.39 13.34 22.02 13.11 C 23.89 12.98 24.52 15.28 23.76 16.68 C 22.93 19.97 19.20 20.73 16.59 22.10 C 14.81 20.19 14.77 17.50 14.16 15.11 L 14.36 14.91 Z" />
</g>
<g id="#004576ff">
<path fill="#004576" opacity="1.00" d=" M 53.80 12.69 C 56.92 15.79 59.33 20.01 59.91 24.38 C 58.98 29.98 59.38 36.06 55.98 40.94 C 55.62 40.72 54.89 40.28 54.52 40.06 C 54.07 39.79 53.18 39.25 52.74 38.98 C 56.25 32.74 60.65 24.81 56.38 17.85 C 55.53 16.12 54.66 14.41 53.80 12.69 Z" />
</g>
<g id="#4db6dbff">
<path fill="#4db6db" opacity="1.00" d=" M 9.13 13.60 C 9.58 13.92 10.50 14.58 10.95 14.90 C 9.96 17.02 8.66 19.07 8.33 21.43 C 7.99 23.53 9.23 25.41 9.99 27.28 C 9.12 28.70 8.22 30.10 7.31 31.50 C 5.94 30.94 4.57 30.41 3.19 29.88 C 2.96 23.90 5.73 18.33 9.13 13.60 Z" />
</g>
<g id="#b8e1b7ff">
<path fill="#b8e1b7" opacity="1.00" d=" M 30.45 14.18 C 31.02 14.10 32.16 13.94 32.73 13.87 C 33.78 15.03 34.83 16.20 35.88 17.37 C 34.02 17.43 32.16 17.49 30.30 17.53 C 30.35 16.41 30.39 15.29 30.45 14.18 Z" />
</g>
<g id="#03a9deff">
<path fill="#03a9de" opacity="1.00" d=" M 41.14 14.22 C 43.75 13.71 45.49 14.55 46.36 16.75 C 45.40 21.65 41.44 24.95 37.99 28.19 C 37.49 27.77 36.49 26.93 36.00 26.51 L 35.67 26.17 C 35.31 25.20 34.96 24.22 34.63 23.25 C 37.20 20.38 39.30 16.30 43.77 16.44 C 43.11 15.88 41.80 14.78 41.14 14.22 Z" />
</g>
<g id="#005492ff">
<path fill="#005492" opacity="1.00" d=" M 56.38 17.85 C 60.65 24.81 56.25 32.74 52.74 38.98 L 52.35 39.56 C 51.06 39.02 49.77 38.49 48.48 37.96 C 48.73 37.62 49.23 36.93 49.48 36.58 C 51.20 33.93 53.13 31.36 54.32 28.41 C 55.55 25.02 55.85 21.39 56.38 17.85 Z" />
</g>
<g id="#12b8e6ff">
<path fill="#12b8e6" opacity="1.00" d=" M 26.40 24.45 C 28.58 23.97 30.76 23.55 32.96 23.19 C 33.85 24.20 34.74 25.20 35.67 26.17 L 36.00 26.51 C 35.11 26.73 34.61 27.29 34.50 28.18 C 34.34 29.07 34.20 29.97 34.06 30.87 C 33.40 30.88 32.07 30.90 31.40 30.90 C 31.58 30.07 31.95 28.40 32.13 27.57 C 31.00 28.12 29.88 28.68 28.75 29.24 C 28.23 29.06 27.18 28.71 26.66 28.53 C 26.60 27.51 26.47 25.47 26.40 24.45 Z" />
</g>
<g id="#34c8ecff">
<path fill="#34c8ec" opacity="1.00" d=" M 9.99 27.28 C 13.60 26.03 17.43 25.42 21.24 25.87 C 22.10 26.97 22.89 28.13 23.73 29.25 L 23.96 29.51 C 20.23 30.77 16.50 32.42 13.89 35.49 C 11.46 34.58 9.13 33.38 7.31 31.50 C 8.22 30.10 9.12 28.70 9.99 27.28 Z" />
</g>
<g id="#003255ff">
<path fill="#003255" opacity="1.00" d=" M 59.91 24.38 C 65.66 41.31 50.77 61.04 33.01 60.81 C 28.61 60.63 23.47 60.91 19.87 57.95 C 25.35 58.89 31.12 59.28 36.35 57.03 C 37.48 57.52 38.76 57.96 39.72 56.88 C 44.25 53.29 49.16 49.81 52.19 44.75 C 53.05 43.23 53.81 41.66 54.52 40.06 C 54.89 40.28 55.62 40.72 55.98 40.94 C 59.38 36.06 58.98 29.98 59.91 24.38 Z" />
</g>
<g id="#4bbea7ff">
<path fill="#4bbea7" opacity="1.00" d=" M 34.50 28.18 C 34.61 27.29 35.11 26.73 36.00 26.51 C 36.49 26.93 37.49 27.77 37.99 28.19 C 37.78 28.38 37.35 28.75 37.14 28.94 C 36.48 28.75 35.16 28.37 34.50 28.18 Z" />
</g>
<g id="#a1d156ff">
<path fill="#a1d156" opacity="1.00" d=" M 23.73 29.25 C 24.71 29.01 25.68 28.77 26.66 28.53 C 27.18 28.71 28.23 29.06 28.75 29.24 C 29.88 28.68 31.00 28.12 32.13 27.57 C 31.95 28.40 31.58 30.07 31.40 30.90 C 32.07 30.90 33.40 30.88 34.06 30.87 L 34.02 32.62 C 33.81 33.26 33.59 33.89 33.35 34.52 C 32.85 33.99 31.84 32.94 31.33 32.41 C 28.92 31.32 26.39 30.54 23.96 29.51 L 23.73 29.25 Z" />
</g>
<g id="#40ae99ff">
<path fill="#40ae99" opacity="1.00" d=" M 39.04 28.26 C 40.70 27.74 41.28 28.27 40.78 29.87 C 39.12 30.39 38.54 29.86 39.04 28.26 Z" />
</g>
<g id="#22a2daff">
<path fill="#22a2da" opacity="1.00" d=" M 3.19 29.88 C 4.57 30.41 5.94 30.94 7.31 31.50 C 9.13 33.38 11.46 34.58 13.89 35.49 C 12.97 36.53 12.10 37.63 11.23 38.72 C 13.26 39.06 15.29 39.43 17.33 39.69 C 16.17 40.25 15.03 40.86 13.91 41.52 C 9.86 40.79 6.03 39.12 3.16 36.10 C 3.24 34.02 3.23 31.95 3.19 29.88 Z" />
</g>
<g id="#0daddfff">
<path fill="#0daddf" opacity="1.00" d=" M 13.89 35.49 C 16.50 32.42 20.23 30.77 23.96 29.51 C 26.39 30.54 28.92 31.32 31.33 32.41 C 26.89 35.25 22.54 38.42 17.33 39.69 C 15.29 39.43 13.26 39.06 11.23 38.72 C 12.10 37.63 12.97 36.53 13.89 35.49 Z" />
</g>
<g id="#a7ca1eff">
<path fill="#a7ca1e" opacity="1.00" d=" M 35.97 33.66 C 37.55 33.56 39.12 33.43 40.70 33.40 C 41.46 33.52 42.97 33.75 43.73 33.87 C 44.19 34.07 45.10 34.48 45.56 34.68 C 42.73 37.22 39.68 39.52 36.27 41.22 C 36.22 40.35 36.11 38.60 36.06 37.73 L 36.67 35.95 C 36.27 35.67 35.46 35.12 35.06 34.85 C 35.29 34.55 35.74 33.95 35.97 33.66 Z" />
</g>
<g id="#8cb219ff">
<path fill="#8cb219" opacity="1.00" d=" M 45.56 34.68 C 46.87 35.31 48.17 35.95 49.48 36.58 C 49.23 36.93 48.73 37.62 48.48 37.96 C 46.07 40.15 43.59 42.31 40.79 43.99 C 39.14 44.04 37.55 43.45 36.00 42.96 C 35.68 42.47 35.04 41.49 34.73 41.01 C 35.18 39.92 35.63 38.83 36.06 37.73 C 36.11 38.60 36.22 40.35 36.27 41.22 C 39.68 39.52 42.73 37.22 45.56 34.68 Z" />
</g>
<g id="#789c15ff">
<path fill="#789c15" opacity="1.00" d=" M 40.79 43.99 C 43.59 42.31 46.07 40.15 48.48 37.96 C 49.77 38.49 51.06 39.02 52.35 39.56 C 49.10 44.22 44.58 47.90 39.37 50.18 C 39.53 49.07 39.68 47.96 39.82 46.85 C 38.78 45.97 37.72 45.11 36.78 44.13 L 36.00 42.96 C 37.55 43.45 39.14 44.04 40.79 43.99 Z" />
</g>
<g id="#658713ff">
<path fill="#658713" opacity="1.00" d=" M 52.35 39.56 L 52.74 38.98 C 53.18 39.25 54.07 39.79 54.52 40.06 C 53.81 41.66 53.05 43.23 52.19 44.75 C 47.07 48.47 42.79 53.26 37.34 56.53 C 37.64 55.65 38.24 53.88 38.53 53.00 C 38.83 52.06 39.12 51.13 39.37 50.18 C 44.58 47.90 49.10 44.22 52.35 39.56 Z" />
</g>
<g id="#0063acff">
<path fill="#0063ac" opacity="1.00" d=" M 20.92 47.79 C 25.90 46.42 30.14 43.28 34.73 41.01 C 35.04 41.49 35.68 42.47 36.00 42.96 L 36.78 44.13 C 33.88 48.99 28.34 51.18 23.01 52.09 C 18.46 52.70 14.05 51.07 9.70 49.98 L 9.19 49.83 C 8.31 48.39 7.45 46.95 6.61 45.48 C 11.47 45.76 16.02 48.46 20.92 47.79 Z" />
</g>
<g id="#004e92ff">
<path fill="#004e92" opacity="1.00" d=" M 36.78 44.13 C 37.72 45.11 38.78 45.97 39.82 46.85 C 39.68 47.96 39.53 49.07 39.37 50.18 C 39.12 51.13 38.83 52.06 38.53 53.00 C 30.44 55.17 21.62 57.64 13.54 53.98 C 11.78 53.20 10.78 51.47 9.70 49.98 C 14.05 51.07 18.46 52.70 23.01 52.09 C 28.34 51.18 33.88 48.99 36.78 44.13 Z" />
</g>
<g id="#385418ff">
<path fill="#385418" opacity="1.00" d=" M 37.34 56.53 C 42.79 53.26 47.07 48.47 52.19 44.75 C 49.16 49.81 44.25 53.29 39.72 56.88 C 38.76 57.96 37.48 57.52 36.35 57.03 L 37.34 56.53 Z" />
</g>
<g id="#004071ff">
<path fill="#004071" opacity="1.00" d=" M 13.54 53.98 C 21.62 57.64 30.44 55.17 38.53 53.00 C 38.24 53.88 37.64 55.65 37.34 56.53 L 36.35 57.03 C 31.12 59.28 25.35 58.89 19.87 57.95 C 17.43 57.24 15.45 55.59 13.54 53.98 Z" />
</g>
</svg>
