<?xml version="1.0" encoding="UTF-8" ?>
<!DOCTYPE svg PUBLIC "-//W3C//DTD SVG 1.1//EN" "http://www.w3.org/Graphics/SVG/1.1/DTD/svg11.dtd">
<svg width="64pt" height="64pt" viewBox="0 0 64 64" version="1.1" xmlns="http://www.w3.org/2000/svg">
<g id="#0000005d">
<path fill="#000000" opacity="0.36" d=" M 4.24 3.92 C 6.47 2.16 9.41 2.72 12.04 2.62 C 25.35 3.20 38.68 3.14 51.99 2.62 C 54.60 2.69 57.48 2.25 59.74 3.92 C 41.24 4.06 22.74 4.05 4.24 3.92 Z" />
</g>
<g id="#fefefeff">
<path fill="#fefefe" opacity="1.00" d=" M 3.89 3.91 L 4.24 3.92 C 22.74 4.05 41.24 4.06 59.74 3.92 L 60.11 3.91 L 60.10 4.36 C 59.90 15.54 59.99 26.73 59.99 37.92 C 59.24 37.89 57.76 37.84 57.02 37.82 C 57.14 30.00 56.93 22.18 56.85 14.36 C 56.95 11.92 56.96 9.48 56.99 7.04 C 56.68 7.05 56.06 7.06 55.75 7.07 C 40.59 7.00 25.43 6.93 10.27 7.05 L 9.62 7.03 C 8.96 7.01 7.65 6.98 7.00 6.96 C 7.00 12.15 6.95 17.34 7.05 22.52 C 6.90 27.22 6.91 31.91 7.08 36.61 C 7.08 37.08 7.08 38.03 7.08 38.50 C 6.31 38.33 4.78 38.00 4.02 37.84 C 4.01 26.65 4.10 15.47 3.90 4.28 L 3.89 3.91 Z" />
</g>
<g id="#00000086">
<path fill="#000000" opacity="0.53" d=" M 3.09 9.95 C 3.06 8.03 3.21 6.09 3.90 4.28 C 4.10 15.47 4.01 26.65 4.02 37.84 C 3.97 45.23 4.01 52.61 4.00 60.00 C 22.67 60.04 41.33 60.04 60.00 60.00 C 59.99 52.64 60.02 45.28 59.99 37.92 C 59.99 26.73 59.90 15.54 60.10 4.36 C 60.80 6.16 60.93 8.09 60.91 10.01 C 60.87 25.33 60.89 40.66 60.90 55.98 C 60.93 58.20 60.74 60.46 59.76 62.49 C 49.87 61.55 39.91 62.29 29.99 62.05 C 21.41 62.23 12.79 61.62 4.23 62.46 C 3.24 60.43 3.07 58.17 3.10 55.95 C 3.11 40.61 3.13 25.28 3.09 9.95 Z" />
</g>
<g id="#00020dff">
<path fill="#00020d" opacity="1.00" d=" M 7.00 6.96 C 7.65 6.98 8.96 7.01 9.62 7.03 C 7.09 11.83 8.90 17.50 7.05 22.52 C 6.95 17.34 7.00 12.15 7.00 6.96 Z" />
</g>
<g id="#0e142fff">
<path fill="#0e142f" opacity="1.00" d=" M 9.62 7.03 L 10.27 7.05 C 12.42 8.16 14.73 9.50 17.26 9.03 C 25.17 7.53 33.27 8.59 41.26 7.81 C 39.85 10.28 38.35 12.73 37.50 15.47 C 36.97 16.07 36.44 16.66 35.90 17.25 C 34.51 16.36 33.12 15.47 31.74 14.56 C 30.27 15.34 29.02 16.44 27.90 17.65 C 27.93 16.29 27.94 14.92 27.95 13.55 C 24.85 15.73 21.49 17.49 17.92 18.75 C 16.27 19.08 15.56 20.61 14.97 22.01 L 14.68 22.69 C 12.18 21.46 9.48 22.81 8.60 25.37 C 8.04 29.10 8.13 32.94 7.08 36.61 C 6.91 31.91 6.90 27.22 7.05 22.52 C 8.90 17.50 7.09 11.83 9.62 7.03 M 33.18 9.20 C 33.71 9.71 33.71 9.71 33.18 9.20 M 23.29 10.27 C 23.81 10.80 23.81 10.80 23.29 10.27 M 13.18 11.24 C 11.86 14.34 16.51 11.14 13.18 11.24 Z" />
<path fill="#0e142f" opacity="1.00" d=" M 55.91 19.17 C 55.73 17.49 56.33 15.91 56.85 14.36 C 56.93 22.18 57.14 30.00 57.02 37.82 C 56.99 39.48 56.97 41.14 56.95 42.81 C 56.30 40.66 55.73 38.48 55.62 36.24 C 55.63 32.84 55.86 29.45 56.04 26.07 C 56.14 23.77 56.03 21.47 55.91 19.17 Z" />
</g>
<g id="#090c1dff">
<path fill="#090c1d" opacity="1.00" d=" M 10.27 7.05 C 25.43 6.93 40.59 7.00 55.75 7.07 L 55.69 7.67 L 54.55 7.71 C 53.93 7.73 52.70 7.76 52.09 7.78 L 50.99 7.81 C 47.75 7.73 44.50 7.61 41.26 7.81 C 33.27 8.59 25.17 7.53 17.26 9.03 C 14.73 9.50 12.42 8.16 10.27 7.05 Z" />
</g>
<g id="#555f80ff">
<path fill="#555f80" opacity="1.00" d=" M 55.75 7.07 C 56.06 7.06 56.68 7.05 56.99 7.04 C 56.96 9.48 56.95 11.92 56.85 14.36 C 56.33 15.91 55.73 17.49 55.91 19.17 C 55.24 19.58 54.57 19.99 53.90 20.41 C 53.21 20.07 52.52 19.73 51.83 19.39 C 51.35 20.46 50.87 21.53 50.38 22.60 C 50.01 22.38 49.26 21.93 48.89 21.70 L 48.18 22.14 C 48.17 22.58 48.16 23.46 48.16 23.90 C 48.09 25.35 47.96 26.81 47.74 28.24 C 47.26 28.44 46.28 28.84 45.80 29.04 L 45.93 27.48 C 45.92 26.47 45.87 25.45 45.79 24.44 C 45.48 24.08 44.86 23.35 44.55 22.99 C 45.37 20.81 45.93 18.54 46.13 16.22 C 45.44 16.16 44.06 16.06 43.37 16.01 C 43.40 16.48 43.44 17.41 43.46 17.88 C 43.00 17.98 42.07 18.19 41.61 18.29 C 41.45 17.59 41.12 16.19 40.96 15.50 C 41.88 14.91 42.80 14.33 43.70 13.71 C 43.88 15.64 47.13 15.11 46.06 13.18 C 47.61 14.66 48.93 16.43 50.77 17.57 C 51.91 17.59 52.55 17.03 52.68 15.87 C 52.91 13.16 52.39 10.46 52.09 7.78 C 52.70 7.76 53.93 7.73 54.55 7.71 C 54.68 9.61 54.82 11.51 55.01 13.41 C 55.26 11.50 55.50 9.59 55.69 7.67 L 55.75 7.07 M 47.43 17.09 C 47.65 20.36 50.45 15.54 47.43 17.09 Z" />
</g>
<g id="#2e334eff">
<path fill="#2e334e" opacity="1.00" d=" M 41.26 7.81 C 44.50 7.61 47.75 7.73 50.99 7.81 C 50.14 9.30 49.35 10.85 48.56 12.38 C 46.72 12.17 44.88 11.87 43.02 11.92 C 40.98 12.76 39.27 14.20 37.50 15.47 C 38.35 12.73 39.85 10.28 41.26 7.81 Z" />
</g>
<g id="#414969ff">
<path fill="#414969" opacity="1.00" d=" M 50.99 7.81 L 52.09 7.78 C 52.39 10.46 52.91 13.16 52.68 15.87 C 52.55 17.03 51.91 17.59 50.77 17.57 C 48.93 16.43 47.61 14.66 46.06 13.18 L 45.33 12.67 C 44.92 12.93 44.11 13.45 43.70 13.71 C 42.80 14.33 41.88 14.91 40.96 15.50 C 37.56 17.61 34.45 20.21 30.85 22.01 C 30.67 22.50 30.32 23.48 30.14 23.97 L 29.83 24.82 C 29.08 23.95 28.31 23.09 27.53 22.25 C 27.68 23.49 27.85 24.73 28.02 25.97 C 27.18 26.38 26.35 26.80 25.51 27.22 C 25.47 26.73 25.38 25.74 25.34 25.25 C 24.17 25.13 23.00 25.02 21.84 24.90 C 22.36 23.26 23.03 21.69 23.70 20.11 C 24.63 20.72 25.55 21.34 26.47 21.96 C 29.05 21.32 30.79 19.33 32.33 17.30 C 32.13 16.39 31.93 15.47 31.74 14.56 C 33.12 15.47 34.51 16.36 35.90 17.25 C 36.44 16.66 36.97 16.07 37.50 15.47 C 39.27 14.20 40.98 12.76 43.02 11.92 C 44.88 11.87 46.72 12.17 48.56 12.38 C 49.35 10.85 50.14 9.30 50.99 7.81 M 50.26 12.93 C 50.33 16.26 53.29 11.45 50.26 12.93 Z" />
</g>
<g id="#eaeaeaff">
<path fill="#eaeaea" opacity="1.00" d=" M 54.55 7.71 L 55.69 7.67 C 55.50 9.59 55.26 11.50 55.01 13.41 C 54.82 11.51 54.68 9.61 54.55 7.71 Z" />
<path fill="#eaeaea" opacity="1.00" d=" M 4.02 37.84 C 4.78 38.00 6.31 38.33 7.08 38.50 C 6.97 40.44 7.03 42.39 7.07 44.33 L 7.07 44.53 C 6.97 48.69 7.00 52.85 6.98 57.00 C 23.66 57.00 40.34 57.00 57.02 57.00 C 57.00 55.08 57.02 53.15 56.99 51.23 C 56.98 48.42 57.04 45.61 56.95 42.81 C 56.97 41.14 56.99 39.48 57.02 37.82 C 57.76 37.84 59.24 37.89 59.99 37.92 C 60.02 45.28 59.99 52.64 60.00 60.00 C 41.33 60.04 22.67 60.04 4.00 60.00 C 4.01 52.61 3.97 45.23 4.02 37.84 Z" />
</g>
<g id="#4b586aff">
<path fill="#4b586a" opacity="1.00" d=" M 33.18 9.20 C 33.71 9.71 33.71 9.71 33.18 9.20 Z" />
</g>
<g id="#494e67ff">
<path fill="#494e67" opacity="1.00" d=" M 23.29 10.27 C 23.81 10.80 23.81 10.80 23.29 10.27 Z" />
</g>
<g id="#323752ff">
<path fill="#323752" opacity="1.00" d=" M 13.18 11.24 C 16.51 11.14 11.86 14.34 13.18 11.24 Z" />
</g>
<g id="#9fb0c4ff">
<path fill="#9fb0c4" opacity="1.00" d=" M 43.70 13.71 C 44.11 13.45 44.92 12.93 45.33 12.67 L 46.06 13.18 C 47.13 15.11 43.88 15.64 43.70 13.71 Z" />
</g>
<g id="#697187ff">
<path fill="#697187" opacity="1.00" d=" M 50.26 12.93 C 53.29 11.45 50.33 16.26 50.26 12.93 Z" />
</g>
<g id="#1a2447ff">
<path fill="#1a2447" opacity="1.00" d=" M 17.92 18.75 C 21.49 17.49 24.85 15.73 27.95 13.55 C 27.94 14.92 27.93 16.29 27.90 17.65 C 29.02 16.44 30.27 15.34 31.74 14.56 C 31.93 15.47 32.13 16.39 32.33 17.30 C 30.79 19.33 29.05 21.32 26.47 21.96 C 25.55 21.34 24.63 20.72 23.70 20.11 C 23.03 21.69 22.36 23.26 21.84 24.90 C 21.73 25.75 21.63 26.60 21.55 27.45 C 18.05 26.82 14.66 25.65 11.78 23.52 C 12.25 24.87 12.72 26.22 13.18 27.57 C 9.48 30.10 8.92 34.74 7.08 38.50 C 7.08 38.03 7.08 37.08 7.08 36.61 C 8.13 32.94 8.04 29.10 8.60 25.37 C 9.48 22.81 12.18 21.46 14.68 22.69 C 15.18 24.02 18.17 24.01 16.67 22.29 C 16.25 22.22 15.40 22.08 14.97 22.01 C 15.56 20.61 16.27 19.08 17.92 18.75 M 21.53 19.12 C 21.72 22.44 24.50 17.54 21.53 19.12 M 19.33 20.26 C 19.84 20.78 19.84 20.78 19.33 20.26 Z" />
</g>
<g id="#5f6f98ff">
<path fill="#5f6f98" opacity="1.00" d=" M 30.85 22.01 C 34.45 20.21 37.56 17.61 40.96 15.50 C 41.12 16.19 41.45 17.59 41.61 18.29 C 41.72 18.68 41.94 19.45 42.06 19.84 C 42.71 19.87 44.01 19.93 44.67 19.96 C 44.37 19.44 43.76 18.40 43.46 17.88 C 43.44 17.41 43.40 16.48 43.37 16.01 C 44.06 16.06 45.44 16.16 46.13 16.22 C 45.93 18.54 45.37 20.81 44.55 22.99 C 44.11 23.08 43.22 23.27 42.78 23.37 C 42.44 22.72 41.76 21.43 41.41 20.78 C 39.70 20.94 37.17 20.77 36.91 23.07 C 36.30 25.42 38.97 25.89 40.70 25.95 C 42.54 26.12 44.17 25.15 45.79 24.44 C 45.87 25.45 45.92 26.47 45.93 27.48 C 43.82 28.90 41.82 30.47 40.08 32.31 C 39.65 32.20 38.79 31.99 38.37 31.88 C 38.83 33.38 39.30 34.89 39.84 36.37 C 37.68 35.17 35.56 33.90 33.65 32.34 C 33.92 31.74 34.45 30.53 34.72 29.93 C 34.11 29.95 32.88 30.01 32.26 30.04 C 32.47 28.96 32.66 27.88 32.84 26.80 C 31.18 27.85 29.54 28.94 27.98 30.12 C 27.65 29.81 27.01 29.19 26.69 28.88 C 27.20 28.32 27.69 27.74 28.17 27.14 C 28.13 26.85 28.06 26.26 28.02 25.97 C 27.85 24.73 27.68 23.49 27.53 22.25 C 28.31 23.09 29.08 23.95 29.83 24.82 C 30.25 26.72 33.46 25.99 31.95 24.17 C 31.50 24.12 30.59 24.02 30.14 23.97 C 30.32 23.48 30.67 22.50 30.85 22.01 Z" />
</g>
<g id="#8794acff">
<path fill="#8794ac" opacity="1.00" d=" M 47.43 17.09 C 50.45 15.54 47.65 20.36 47.43 17.09 Z" />
</g>
<g id="#a7b9d0ff">
<path fill="#a7b9d0" opacity="1.00" d=" M 41.61 18.29 C 42.07 18.19 43.00 17.98 43.46 17.88 C 43.76 18.40 44.37 19.44 44.67 19.96 C 44.01 19.93 42.71 19.87 42.06 19.84 C 41.94 19.45 41.72 18.68 41.61 18.29 Z" />
</g>
<g id="#475473ff">
<path fill="#475473" opacity="1.00" d=" M 21.53 19.12 C 24.50 17.54 21.72 22.44 21.53 19.12 Z" />
</g>
<g id="#3b4360ff">
<path fill="#3b4360" opacity="1.00" d=" M 51.83 19.39 C 52.52 19.73 53.21 20.07 53.90 20.41 C 54.57 19.99 55.24 19.58 55.91 19.17 C 56.03 21.47 56.14 23.77 56.04 26.07 C 55.17 25.56 54.31 25.06 53.44 24.55 C 52.76 25.16 52.09 25.77 51.41 26.38 C 52.33 27.19 53.27 27.97 54.20 28.77 C 51.66 28.79 49.18 29.36 46.71 29.87 C 46.19 29.96 45.15 30.15 44.64 30.24 C 44.93 29.94 45.51 29.34 45.80 29.04 C 46.28 28.84 47.26 28.44 47.74 28.24 C 47.96 26.81 48.09 25.35 48.16 23.90 C 48.71 23.58 49.82 22.93 50.38 22.60 C 50.87 21.53 51.35 20.46 51.83 19.39 Z" />
</g>
<g id="#515978ff">
<path fill="#515978" opacity="1.00" d=" M 19.33 20.26 C 19.84 20.78 19.84 20.78 19.33 20.26 Z" />
</g>
<g id="#7883a2ff">
<path fill="#7883a2" opacity="1.00" d=" M 36.91 23.07 C 37.17 20.77 39.70 20.94 41.41 20.78 C 41.76 21.43 42.44 22.72 42.78 23.37 C 43.22 23.27 44.11 23.08 44.55 22.99 C 44.86 23.35 45.48 24.08 45.79 24.44 C 44.17 25.15 42.54 26.12 40.70 25.95 C 38.97 25.89 36.30 25.42 36.91 23.07 Z" />
</g>
<g id="#4f5e7eff">
<path fill="#4f5e7e" opacity="1.00" d=" M 14.97 22.01 C 15.40 22.08 16.25 22.22 16.67 22.29 C 18.17 24.01 15.18 24.02 14.68 22.69 L 14.97 22.01 Z" />
</g>
<g id="#a3b5c7ff">
<path fill="#a3b5c7" opacity="1.00" d=" M 48.18 22.14 L 48.89 21.70 C 49.26 21.93 50.01 22.38 50.38 22.60 C 49.82 22.93 48.71 23.58 48.16 23.90 C 48.16 23.46 48.17 22.58 48.18 22.14 Z" />
</g>
<g id="#2c3b6dff">
<path fill="#2c3b6d" opacity="1.00" d=" M 11.78 23.52 C 14.66 25.65 18.05 26.82 21.55 27.45 C 21.63 26.60 21.73 25.75 21.84 24.90 C 23.00 25.02 24.17 25.13 25.34 25.25 C 25.38 25.74 25.47 26.73 25.51 27.22 C 21.05 29.74 16.54 32.69 11.12 31.97 C 11.14 33.60 11.16 35.22 11.12 36.84 C 11.15 37.32 11.21 38.28 11.24 38.75 C 10.49 38.71 8.98 38.62 8.22 38.57 C 8.05 39.44 7.70 41.18 7.52 42.04 C 7.41 42.62 7.18 43.76 7.07 44.33 C 7.03 42.39 6.97 40.44 7.08 38.50 C 8.92 34.74 9.48 30.10 13.18 27.57 C 12.72 26.22 12.25 24.87 11.78 23.52 Z" />
</g>
<g id="#a2b3ceff">
<path fill="#a2b3ce" opacity="1.00" d=" M 30.14 23.97 C 30.59 24.02 31.50 24.12 31.95 24.17 C 33.46 25.99 30.25 26.72 29.83 24.82 L 30.14 23.97 Z" />
</g>
<g id="#172344ff">
<path fill="#172344" opacity="1.00" d=" M 53.44 24.55 C 54.31 25.06 55.17 25.56 56.04 26.07 C 55.86 29.45 55.63 32.84 55.62 36.24 C 53.97 36.78 52.45 37.62 51.01 38.57 C 49.71 36.76 48.39 34.95 46.73 33.45 L 46.54 33.27 C 46.58 32.14 46.65 31.00 46.71 29.87 C 49.18 29.36 51.66 28.79 54.20 28.77 C 53.27 27.97 52.33 27.19 51.41 26.38 C 52.09 25.77 52.76 25.16 53.44 24.55 M 51.26 33.32 C 51.77 33.84 51.77 33.84 51.26 33.32 M 54.01 33.07 C 52.47 36.07 57.32 33.24 54.01 33.07 Z" />
</g>
<g id="#475694ff">
<path fill="#475694" opacity="1.00" d=" M 25.51 27.22 C 26.35 26.80 27.18 26.38 28.02 25.97 C 28.06 26.26 28.13 26.85 28.17 27.14 C 27.69 27.74 27.20 28.32 26.69 28.88 C 26.39 29.18 25.81 29.77 25.52 30.07 C 24.75 31.07 24.01 32.08 23.25 33.09 C 18.52 33.19 14.98 36.65 13.06 40.71 C 12.09 40.46 11.11 40.24 10.13 40.02 C 9.26 40.70 8.39 41.37 7.52 42.04 C 7.70 41.18 8.05 39.44 8.22 38.57 C 8.98 38.62 10.49 38.71 11.24 38.75 C 13.95 40.04 13.66 35.73 11.12 36.84 C 11.16 35.22 11.14 33.60 11.12 31.97 C 16.54 32.69 21.05 29.74 25.51 27.22 Z" />
</g>
<g id="#606faeff">
<path fill="#606fae" opacity="1.00" d=" M 27.98 30.12 C 29.54 28.94 31.18 27.85 32.84 26.80 C 32.66 27.88 32.47 28.96 32.26 30.04 C 29.89 34.41 24.61 37.51 19.68 35.68 C 19.40 36.80 19.12 37.92 18.89 39.05 L 18.05 39.33 C 17.67 39.75 16.92 40.59 16.54 41.01 C 16.27 41.33 15.74 41.97 15.47 42.29 C 14.67 41.75 13.87 41.22 13.06 40.71 C 14.98 36.65 18.52 33.19 23.25 33.09 C 24.01 32.08 24.75 31.07 25.52 30.07 C 26.25 31.02 27.07 31.03 27.98 30.12 Z" />
</g>
<g id="#34488aff">
<path fill="#34488a" opacity="1.00" d=" M 40.08 32.31 C 41.82 30.47 43.82 28.90 45.93 27.48 L 45.80 29.04 C 45.51 29.34 44.93 29.94 44.64 30.24 C 42.28 34.07 44.77 38.80 47.86 41.44 C 46.91 41.73 45.96 42.03 45.01 42.32 C 43.31 40.32 41.60 38.32 39.84 36.37 C 39.30 34.89 38.83 33.38 38.37 31.88 C 38.79 31.99 39.65 32.20 40.08 32.31 Z" />
</g>
<g id="#8ea1c3ff">
<path fill="#8ea1c3" opacity="1.00" d=" M 25.52 30.07 C 25.81 29.77 26.39 29.18 26.69 28.88 C 27.01 29.19 27.65 29.81 27.98 30.12 C 27.07 31.03 26.25 31.02 25.52 30.07 Z" />
</g>
<g id="#6e80ceff">
<path fill="#6e80ce" opacity="1.00" d=" M 32.26 30.04 C 32.88 30.01 34.11 29.95 34.72 29.93 C 34.45 30.53 33.92 31.74 33.65 32.34 C 33.48 32.76 33.15 33.62 32.98 34.04 C 30.83 32.70 31.02 36.42 33.01 34.86 C 33.05 35.37 33.13 36.38 33.17 36.88 C 32.19 36.69 31.21 36.51 30.23 36.33 C 29.06 37.60 27.89 38.88 26.45 39.85 C 24.44 40.99 22.43 42.11 20.48 43.34 C 19.16 42.57 17.85 41.79 16.54 41.01 C 16.92 40.59 17.67 39.75 18.05 39.33 C 16.82 41.62 20.28 40.94 18.89 39.05 C 19.12 37.92 19.40 36.80 19.68 35.68 C 24.61 37.51 29.89 34.41 32.26 30.04 Z" />
</g>
<g id="#213874ff">
<path fill="#213874" opacity="1.00" d=" M 47.86 41.44 C 44.77 38.80 42.28 34.07 44.64 30.24 C 45.15 30.15 46.19 29.96 46.71 29.87 C 46.65 31.00 46.58 32.14 46.54 33.27 C 46.54 33.28 46.54 33.31 46.54 33.33 L 46.73 33.45 C 48.39 34.95 49.71 36.76 51.01 38.57 C 52.45 37.62 53.97 36.78 55.62 36.24 C 55.73 38.48 56.30 40.66 56.95 42.81 C 57.04 45.61 56.98 48.42 56.99 51.23 C 56.90 50.96 56.73 50.41 56.65 50.14 C 55.95 48.04 55.22 45.96 54.46 43.89 C 52.15 43.44 49.70 43.05 47.86 41.44 M 54.23 39.41 C 54.75 39.95 54.75 39.95 54.23 39.41 Z" />
</g>
<g id="#3957abff">
<path fill="#3957ab" opacity="1.00" d=" M 32.98 34.04 C 33.15 33.62 33.48 32.76 33.65 32.34 C 35.56 33.90 37.68 35.17 39.84 36.37 C 41.60 38.32 43.31 40.32 45.01 42.32 C 45.96 42.03 46.91 41.73 47.86 41.44 C 49.70 43.05 52.15 43.44 54.46 43.89 C 55.22 45.96 55.95 48.04 56.65 50.14 C 54.14 49.41 51.58 47.74 48.89 48.47 C 46.21 47.88 43.51 48.33 41.16 49.76 C 39.66 49.15 38.17 48.54 36.72 47.82 C 35.70 47.15 34.70 46.43 33.70 45.72 C 32.61 45.97 31.52 46.23 30.44 46.49 C 28.23 44.88 26.41 42.72 26.45 39.85 C 27.89 38.88 29.06 37.60 30.23 36.33 C 31.21 36.51 32.19 36.69 33.17 36.88 C 33.13 36.38 33.05 35.37 33.01 34.86 L 32.98 34.04 Z" />
</g>
<g id="#5f6a91ff">
<path fill="#5f6a91" opacity="1.00" d=" M 46.54 33.33 C 46.54 33.31 46.54 33.28 46.54 33.27 L 46.73 33.45 L 46.54 33.33 Z" />
</g>
<g id="#555c73ff">
<path fill="#555c73" opacity="1.00" d=" M 51.26 33.32 C 51.77 33.84 51.77 33.84 51.26 33.32 Z" />
</g>
<g id="#465073ff">
<path fill="#465073" opacity="1.00" d=" M 54.01 33.07 C 57.32 33.24 52.47 36.07 54.01 33.07 Z" />
</g>
<g id="#c5d4eaff">
<path fill="#c5d4ea" opacity="1.00" d=" M 33.01 34.86 C 31.02 36.42 30.83 32.70 32.98 34.04 L 33.01 34.86 Z" />
</g>
<g id="#9eb1d0ff">
<path fill="#9eb1d0" opacity="1.00" d=" M 11.12 36.84 C 13.66 35.73 13.95 40.04 11.24 38.75 C 11.21 38.28 11.15 37.32 11.12 36.84 Z" />
</g>
<g id="#b2c4e4ff">
<path fill="#b2c4e4" opacity="1.00" d=" M 18.05 39.33 L 18.89 39.05 C 20.28 40.94 16.82 41.62 18.05 39.33 Z" />
</g>
<g id="#788ebdff">
<path fill="#788ebd" opacity="1.00" d=" M 54.23 39.41 C 54.75 39.95 54.75 39.95 54.23 39.41 Z" />
</g>
<g id="#4c67c7ff">
<path fill="#4c67c7" opacity="1.00" d=" M 10.13 40.02 C 11.11 40.24 12.09 40.46 13.06 40.71 C 13.87 41.22 14.67 41.75 15.47 42.29 C 15.74 41.97 16.27 41.33 16.54 41.01 C 17.85 41.79 19.16 42.57 20.48 43.34 C 22.43 42.11 24.44 40.99 26.45 39.85 C 26.41 42.72 28.23 44.88 30.44 46.49 C 31.52 46.23 32.61 45.97 33.70 45.72 C 34.70 46.43 35.70 47.15 36.72 47.82 C 32.75 48.59 28.90 49.86 24.95 50.73 C 21.72 50.52 18.62 49.48 15.47 48.76 C 13.09 50.12 10.34 50.15 7.67 50.06 C 7.48 48.22 7.23 46.38 7.07 44.53 L 7.07 44.33 C 7.18 43.76 7.41 42.62 7.52 42.04 C 8.39 41.37 9.26 40.70 10.13 40.02 Z" />
<path fill="#4c67c7" opacity="1.00" d=" M 41.16 49.76 C 43.51 48.33 46.21 47.88 48.89 48.47 C 46.57 50.00 43.81 51.72 41.16 49.76 Z" />
</g>
<g id="#121827ff">
<path fill="#121827" opacity="1.00" d=" M 7.07 44.53 C 7.23 46.38 7.48 48.22 7.67 50.06 C 10.34 50.15 13.09 50.12 15.47 48.76 C 18.62 49.48 21.72 50.52 24.95 50.73 C 28.90 49.86 32.75 48.59 36.72 47.82 C 38.17 48.54 39.66 49.15 41.16 49.76 C 43.81 51.72 46.57 50.00 48.89 48.47 C 51.58 47.74 54.14 49.41 56.65 50.14 C 56.73 50.41 56.90 50.96 56.99 51.23 C 57.02 53.15 57.00 55.08 57.02 57.00 C 40.34 57.00 23.66 57.00 6.98 57.00 C 7.00 52.85 6.97 48.69 7.07 44.53 M 8.62 53.48 C 8.47 54.10 8.17 55.34 8.02 55.96 C 23.97 56.18 39.95 56.26 55.91 55.94 C 55.79 55.33 55.55 54.12 55.44 53.52 C 51.33 52.62 47.12 52.69 42.95 52.76 C 34.32 52.71 25.70 52.90 17.07 52.72 C 14.23 52.64 11.41 52.96 8.62 53.48 Z" />
</g>
<g id="#212a45ff">
<path fill="#212a45" opacity="1.00" d=" M 8.62 53.48 C 11.41 52.96 14.23 52.64 17.07 52.72 C 25.70 52.90 34.32 52.71 42.95 52.76 C 47.12 52.69 51.33 52.62 55.44 53.52 C 55.55 54.12 55.79 55.33 55.91 55.94 C 39.95 56.26 23.97 56.18 8.02 55.96 C 8.17 55.34 8.47 54.10 8.62 53.48 Z" />
</g>
<g id="#00000055">
<path fill="#000000" opacity="0.33" d=" M 4.23 62.46 C 12.79 61.62 21.41 62.23 29.99 62.05 C 39.91 62.29 49.87 61.55 59.76 62.49 C 58.27 63.16 56.68 63.64 55.03 63.53 C 39.36 63.48 23.69 63.51 8.03 63.52 C 6.67 63.51 5.40 63.16 4.23 62.46 Z" />
</g>
</svg>
