<?xml version="1.0" encoding="UTF-8" ?>
<!DOCTYPE svg PUBLIC "-//W3C//DTD SVG 1.1//EN" "http://www.w3.org/Graphics/SVG/1.1/DTD/svg11.dtd">
<svg width="64pt" height="64pt" viewBox="0 0 64 64" version="1.1" xmlns="http://www.w3.org/2000/svg">
<g id="#00000028">
<path fill="#000000" opacity="0.16" d=" M 4.23 2.18 C 21.14 1.74 38.08 2.08 55.01 2.02 C 57.74 0.52 62.30 2.76 61.99 5.98 C 62.01 22.65 62.08 39.33 61.95 56.01 C 62.82 59.04 61.25 61.53 59.99 64.00 L 4.02 64.00 C 3.27 62.39 2.06 60.86 2.02 59.02 C 1.94 42.34 1.98 25.67 2.02 8.99 C 0.14 5.75 2.43 3.91 4.23 2.18 M 5.00 3.02 L 5.01 4.00 C 4.75 4.25 4.25 4.75 3.99 5.01 L 3.02 5.00 C 2.97 23.32 3.00 41.64 3.00 59.95 L 3.95 60.11 C 3.97 60.58 4.01 61.50 4.03 61.96 L 5.00 62.00 L 5.02 62.95 C 23.01 63.09 41.01 62.98 59.00 62.98 L 58.99 62.00 C 59.26 61.52 59.79 60.57 60.06 60.09 L 61.00 59.97 C 61.00 41.65 61.03 23.33 60.98 5.00 L 60.01 5.01 C 59.76 4.76 59.25 4.25 59.00 4.00 L 58.98 3.05 C 40.99 2.91 22.99 3.02 5.00 3.02 Z" />
</g>
<g id="#0000005d">
<path fill="#000000" opacity="0.36" d=" M 5.00 3.02 C 22.99 3.02 40.99 2.91 58.98 3.05 L 59.00 4.00 C 41.00 4.00 23.00 4.01 5.01 4.00 L 5.00 3.02 Z" />
</g>
<g id="#fefefeff">
<path fill="#fefefe" opacity="1.00" d=" M 3.99 5.01 C 4.25 4.75 4.75 4.25 5.01 4.00 C 23.00 4.01 41.00 4.00 59.00 4.00 C 59.25 4.25 59.76 4.76 60.01 5.01 C 60.01 9.00 60.00 13.00 59.99 17.00 C 59.24 17.00 57.76 17.02 57.02 17.02 C 56.99 13.70 57.14 10.37 56.90 7.05 C 40.30 6.95 23.69 6.93 7.08 7.06 C 6.99 10.38 6.98 13.70 6.99 17.02 C 6.24 17.02 4.76 17.00 4.01 17.00 C 4.00 13.00 3.99 9.00 3.99 5.01 Z" />
</g>
<g id="#00000076">
<path fill="#000000" opacity="0.46" d=" M 3.02 5.00 L 3.99 5.01 C 3.99 9.00 4.00 13.00 4.01 17.00 C 3.99 24.00 3.96 31.00 4.02 38.00 C 3.99 45.37 4.00 52.74 3.95 60.11 L 3.00 59.95 C 3.00 41.64 2.97 23.32 3.02 5.00 Z" />
<path fill="#000000" opacity="0.46" d=" M 60.01 5.01 L 60.98 5.00 C 61.03 23.33 61.00 41.65 61.00 59.97 L 60.06 60.09 C 59.99 52.72 60.02 45.36 59.99 38.00 C 60.01 31.00 60.04 24.00 59.99 17.00 C 60.00 13.00 60.01 9.00 60.01 5.01 Z" />
</g>
<g id="#cb3005ff">
<path fill="#cb3005" opacity="1.00" d=" M 7.08 7.06 C 23.69 6.93 40.30 6.95 56.90 7.05 C 57.14 10.37 56.99 13.70 57.02 17.02 L 56.99 18.04 L 56.01 17.86 C 55.23 14.87 57.43 10.45 54.74 8.14 C 39.57 7.88 24.37 7.90 9.20 8.11 C 6.52 10.47 8.52 14.71 7.99 17.86 L 7.01 18.04 L 6.99 17.02 C 6.98 13.70 6.99 10.38 7.08 7.06 Z" />
</g>
<g id="#fc560dff">
<path fill="#fc560d" opacity="1.00" d=" M 9.20 8.11 C 24.37 7.90 39.57 7.88 54.74 8.14 C 57.43 10.45 55.23 14.87 56.01 17.86 C 53.42 18.70 50.85 19.59 48.22 20.30 C 47.37 20.18 45.66 19.94 44.81 19.82 C 47.83 16.76 54.52 16.54 55.04 11.90 C 49.75 13.03 46.01 17.56 40.93 19.10 C 41.64 15.13 46.15 13.33 48.10 9.92 C 43.82 11.02 41.59 15.71 38.02 18.19 C 33.52 14.32 27.35 16.07 23.80 20.26 C 23.64 19.75 23.32 18.72 23.16 18.21 C 23.63 18.10 24.58 17.88 25.05 17.78 C 22.14 15.15 19.97 10.86 15.92 9.92 C 18.23 12.78 20.97 15.26 23.16 18.21 C 17.87 18.81 14.30 12.50 8.97 11.91 C 9.58 16.36 16.26 16.59 19.16 19.85 C 18.32 19.96 16.63 20.18 15.78 20.29 C 13.15 19.59 10.58 18.70 7.99 17.86 C 8.52 14.71 6.52 10.47 9.20 8.11 Z" />
</g>
<g id="#ff6e12ff">
<path fill="#ff6e12" opacity="1.00" d=" M 15.92 9.92 C 19.97 10.86 22.14 15.15 25.05 17.78 C 24.58 17.88 23.63 18.10 23.16 18.21 C 20.97 15.26 18.23 12.78 15.92 9.92 Z" />
</g>
<g id="#fe7713ff">
<path fill="#fe7713" opacity="1.00" d=" M 38.02 18.19 C 41.59 15.71 43.82 11.02 48.10 9.92 C 46.15 13.33 41.64 15.13 40.93 19.10 C 46.01 17.56 49.75 13.03 55.04 11.90 C 54.52 16.54 47.83 16.76 44.81 19.82 C 45.66 19.94 47.37 20.18 48.22 20.30 C 46.31 20.97 44.39 21.68 42.76 22.92 C 47.27 23.10 51.51 21.19 55.98 20.88 C 56.00 22.20 56.00 23.51 56.00 24.83 C 51.96 24.11 47.84 25.18 43.78 25.27 C 43.35 25.18 42.48 25.01 42.04 24.92 C 41.85 24.39 41.47 23.32 41.28 22.78 C 40.68 20.95 39.18 19.66 38.02 18.19 Z" />
</g>
<g id="#fe7814ff">
<path fill="#fe7814" opacity="1.00" d=" M 8.97 11.91 C 14.30 12.50 17.87 18.81 23.16 18.21 C 23.32 18.72 23.64 19.75 23.80 20.26 C 23.43 21.10 23.09 21.94 22.77 22.80 C 22.57 23.34 22.18 24.41 21.99 24.95 C 21.55 25.04 20.66 25.21 20.22 25.30 C 16.15 25.38 12.08 24.51 8.01 24.81 C 8.00 23.50 8.01 22.19 8.02 20.88 C 12.49 21.19 16.73 23.10 21.24 22.92 C 19.61 21.69 17.69 20.97 15.78 20.29 C 16.63 20.18 18.32 19.96 19.16 19.85 C 16.26 16.59 9.58 16.36 8.97 11.91 Z" />
</g>
<g id="#fef832ff">
<path fill="#fef832" opacity="1.00" d=" M 23.80 20.26 C 27.35 16.07 33.52 14.32 38.02 18.19 C 39.18 19.66 40.68 20.95 41.28 22.78 C 41.12 25.76 41.49 28.96 39.75 31.54 C 38.74 33.20 39.61 28.55 37.90 29.12 L 37.03 28.90 L 37.32 28.17 C 39.13 25.27 36.87 22.09 34.74 20.12 C 28.42 16.96 23.19 26.07 27.90 30.31 C 27.95 31.55 27.97 32.78 27.96 34.02 C 27.00 33.39 26.08 32.69 25.16 32.01 C 22.51 29.66 23.08 26.02 22.77 22.80 C 23.09 21.94 23.43 21.10 23.80 20.26 Z" />
</g>
<g id="#f7f7f7ff">
<path fill="#f7f7f7" opacity="1.00" d=" M 4.01 17.00 C 4.76 17.00 6.24 17.02 6.99 17.02 L 7.01 18.04 C 7.00 22.36 6.97 26.67 6.99 30.98 C 6.99 32.74 6.97 36.25 6.96 38.00 C 6.23 38.00 4.75 38.00 4.02 38.00 C 3.96 31.00 3.99 24.00 4.01 17.00 Z" />
<path fill="#f7f7f7" opacity="1.00" d=" M 57.02 17.02 C 57.76 17.02 59.24 17.00 59.99 17.00 C 60.04 24.00 60.01 31.00 59.99 38.00 C 59.25 38.00 57.77 38.00 57.03 38.00 C 57.02 36.25 57.01 32.76 57.00 31.01 C 57.01 26.69 57.01 22.36 56.99 18.04 L 57.02 17.02 Z" />
</g>
<g id="#cb6d11ff">
<path fill="#cb6d11" opacity="1.00" d=" M 7.01 18.04 L 7.99 17.86 C 8.00 18.61 8.01 20.13 8.02 20.88 C 8.01 22.19 8.00 23.50 8.01 24.81 C 8.01 25.37 8.01 26.49 8.01 27.04 C 7.99 28.36 7.97 29.67 7.96 30.99 L 6.99 30.98 C 6.97 26.67 7.00 22.36 7.01 18.04 Z" />
<path fill="#cb6d11" opacity="1.00" d=" M 56.01 17.86 L 56.99 18.04 C 57.01 22.36 57.01 26.69 57.00 31.01 L 56.03 30.94 C 56.02 29.64 56.01 28.33 56.00 27.03 C 56.00 26.48 56.00 25.38 56.00 24.83 C 56.00 23.51 56.00 22.20 55.98 20.88 C 55.99 20.13 56.00 18.62 56.01 17.86 Z" />
</g>
<g id="#fd9d1aff">
<path fill="#fd9d1a" opacity="1.00" d=" M 7.99 17.86 C 10.58 18.70 13.15 19.59 15.78 20.29 C 17.69 20.97 19.61 21.69 21.24 22.92 C 16.73 23.10 12.49 21.19 8.02 20.88 C 8.01 20.13 8.00 18.61 7.99 17.86 Z" />
</g>
<g id="#fd9c1aff">
<path fill="#fd9c1a" opacity="1.00" d=" M 48.22 20.30 C 50.85 19.59 53.42 18.70 56.01 17.86 C 56.00 18.62 55.99 20.13 55.98 20.88 C 51.51 21.19 47.27 23.10 42.76 22.92 C 44.39 21.68 46.31 20.97 48.22 20.30 Z" />
</g>
<g id="#fffd56ff">
<path fill="#fffd56" opacity="1.00" d=" M 27.90 30.31 C 23.19 26.07 28.42 16.96 34.74 20.12 C 36.87 22.09 39.13 25.27 37.32 28.17 L 36.23 28.09 C 35.83 25.93 36.75 22.78 34.03 21.93 C 30.67 19.39 25.22 24.40 28.76 28.20 L 28.88 29.07 L 28.88 30.02 L 27.90 30.31 Z" />
</g>
<g id="#fefe78ff">
<path fill="#fefe78" opacity="1.00" d=" M 28.76 28.20 C 25.22 24.40 30.67 19.39 34.03 21.93 C 36.75 22.78 35.83 25.93 36.23 28.09 C 35.70 28.08 34.63 28.05 34.10 28.04 C 34.53 26.82 35.17 25.57 34.90 24.23 C 33.67 22.40 30.33 22.41 29.10 24.23 C 28.94 25.57 29.44 26.85 29.77 28.13 L 28.76 28.20 Z" />
</g>
<g id="#feb41fff">
<path fill="#feb41f" opacity="1.00" d=" M 21.99 24.95 C 22.18 24.41 22.57 23.34 22.77 22.80 C 23.08 26.02 22.51 29.66 25.16 32.01 C 24.01 32.96 22.85 33.90 21.73 34.89 L 20.78 34.99 L 19.85 35.02 L 19.02 35.01 L 19.05 34.11 C 19.77 33.42 20.45 32.69 21.09 31.93 C 16.58 33.52 12.01 35.28 8.06 38.02 C 8.14 36.38 8.37 34.75 8.29 33.10 C 11.92 32.34 15.44 31.11 18.91 29.80 C 18.65 29.49 18.14 28.87 17.88 28.55 C 20.19 28.19 22.76 28.02 21.99 24.95 Z" />
</g>
<g id="#ffff9aff">
<path fill="#ffff9a" opacity="1.00" d=" M 29.10 24.23 C 30.33 22.41 33.67 22.40 34.90 24.23 C 35.17 25.57 34.53 26.82 34.10 28.04 C 32.65 28.06 31.21 28.09 29.77 28.13 C 29.44 26.85 28.94 25.57 29.10 24.23 Z" />
</g>
<g id="#f9b41fff">
<path fill="#f9b41f" opacity="1.00" d=" M 41.28 22.78 C 41.47 23.32 41.85 24.39 42.04 24.92 C 41.21 28.01 43.78 28.20 46.12 28.55 C 45.86 28.87 45.35 29.49 45.09 29.80 C 48.64 31.14 52.24 32.42 55.98 33.13 C 56.00 34.76 56.02 36.39 56.02 38.02 C 54.57 37.02 53.02 36.18 51.35 35.61 C 51.04 35.43 50.40 35.07 50.08 34.89 C 47.79 33.66 45.39 32.56 42.85 31.98 C 43.80 33.10 44.93 34.02 46.09 34.91 C 44.89 35.38 42.00 34.06 42.02 35.96 C 41.80 37.57 41.59 39.20 41.68 40.83 C 41.52 41.11 41.18 41.67 41.02 41.96 C 39.96 41.60 38.92 41.22 37.88 40.80 C 37.89 40.14 37.91 38.82 37.91 38.15 C 37.94 35.14 37.99 32.13 37.90 29.12 C 39.61 28.55 38.74 33.20 39.75 31.54 C 41.49 28.96 41.12 25.76 41.28 22.78 Z" />
</g>
<g id="#fdc423ff">
<path fill="#fdc423" opacity="1.00" d=" M 8.01 24.81 C 12.08 24.51 16.15 25.38 20.22 25.30 C 16.24 26.48 12.12 26.81 8.01 27.04 C 8.01 26.49 8.01 25.37 8.01 24.81 Z" />
<path fill="#fdc423" opacity="1.00" d=" M 43.78 25.27 C 47.84 25.18 51.96 24.11 56.00 24.83 C 56.00 25.38 56.00 26.48 56.00 27.03 C 51.83 27.13 47.75 26.56 43.78 25.27 Z" />
</g>
<g id="#fd9419ff">
<path fill="#fd9419" opacity="1.00" d=" M 20.22 25.30 C 20.66 25.21 21.55 25.04 21.99 24.95 C 22.76 28.02 20.19 28.19 17.88 28.55 C 14.55 29.25 11.23 30.03 7.96 30.99 C 7.97 29.67 7.99 28.36 8.01 27.04 C 12.12 26.81 16.24 26.48 20.22 25.30 Z" />
<path fill="#fd9419" opacity="1.00" d=" M 42.04 24.92 C 42.48 25.01 43.35 25.18 43.78 25.27 C 47.75 26.56 51.83 27.13 56.00 27.03 C 56.01 28.33 56.02 29.64 56.03 30.94 C 52.76 30.03 49.44 29.25 46.12 28.55 C 43.78 28.20 41.21 28.01 42.04 24.92 Z" />
</g>
<g id="#f9da64ff">
<path fill="#f9da64" opacity="1.00" d=" M 28.76 28.20 L 29.77 28.13 C 31.21 28.09 32.65 28.06 34.10 28.04 C 34.63 28.05 35.70 28.08 36.23 28.09 L 37.32 28.17 L 37.03 28.90 C 34.31 28.97 31.60 29.02 28.88 29.07 L 28.76 28.20 Z" />
</g>
<g id="#fcdb27ff">
<path fill="#fcdb27" opacity="1.00" d=" M 7.96 30.99 C 11.23 30.03 14.55 29.25 17.88 28.55 C 18.14 28.87 18.65 29.49 18.91 29.80 C 15.44 31.11 11.92 32.34 8.29 33.10 C 8.21 32.57 8.04 31.52 7.96 30.99 Z" />
<path fill="#fcdb27" opacity="1.00" d=" M 45.09 29.80 C 45.35 29.49 45.86 28.87 46.12 28.55 C 49.44 29.25 52.76 30.03 56.03 30.94 C 56.02 31.49 55.99 32.58 55.98 33.13 C 52.24 32.42 48.64 31.14 45.09 29.80 Z" />
</g>
<g id="#d83a0cff">
<path fill="#d83a0c" opacity="1.00" d=" M 28.88 29.07 C 31.60 29.02 34.31 28.97 37.03 28.90 L 37.90 29.12 C 37.99 32.13 37.94 35.14 37.91 38.15 C 35.44 35.81 32.20 36.37 29.03 36.99 C 28.99 35.25 28.92 31.77 28.88 30.02 L 28.88 29.07 Z" />
</g>
<g id="#fbca25ff">
<path fill="#fbca25" opacity="1.00" d=" M 27.90 30.31 L 28.88 30.02 C 28.92 31.77 28.99 35.25 29.03 36.99 C 29.03 38.72 29.03 42.18 29.03 43.91 L 29.00 44.92 C 28.26 44.96 26.78 45.05 26.04 45.09 L 26.05 44.19 C 26.50 44.04 27.40 43.74 27.84 43.59 C 30.23 34.84 27.52 39.44 26.08 41.14 C 26.05 39.63 25.98 36.62 25.95 35.12 C 24.55 34.99 23.14 34.91 21.73 34.89 C 22.85 33.90 24.01 32.96 25.16 32.01 C 26.08 32.69 27.00 33.39 27.96 34.02 C 27.97 32.78 27.95 31.55 27.90 30.31 Z" />
</g>
<g id="#da9c1aff">
<path fill="#da9c1a" opacity="1.00" d=" M 6.99 30.98 L 7.96 30.99 C 8.04 31.52 8.21 32.57 8.29 33.10 C 8.37 34.75 8.14 36.38 8.06 38.02 C 7.92 39.56 7.57 41.53 9.81 40.85 C 10.97 41.13 12.11 41.46 13.24 41.84 C 11.47 41.91 9.70 41.98 7.93 42.03 L 7.00 42.01 C 6.99 40.67 6.98 39.34 6.96 38.00 C 6.97 36.25 6.99 32.74 6.99 30.98 Z" />
</g>
<g id="#bba01bff">
<path fill="#bba01b" opacity="1.00" d=" M 56.03 30.94 L 57.00 31.01 C 57.01 32.76 57.02 36.25 57.03 38.00 C 57.02 39.75 57.00 43.26 56.99 45.01 C 55.03 45.00 53.06 44.98 51.09 44.95 L 50.81 44.17 C 52.52 44.09 54.24 44.03 55.95 43.85 C 55.97 42.39 56.00 39.48 56.02 38.02 C 56.02 36.39 56.00 34.76 55.98 33.13 C 55.99 32.58 56.02 31.49 56.03 30.94 Z" />
</g>
<g id="#fce92aff">
<path fill="#fce92a" opacity="1.00" d=" M 8.06 38.02 C 12.01 35.28 16.58 33.52 21.09 31.93 C 20.45 32.69 19.77 33.42 19.05 34.11 C 15.75 36.04 12.69 38.34 9.81 40.85 C 7.57 41.53 7.92 39.56 8.06 38.02 Z" />
</g>
<g id="#ffe129ff">
<path fill="#ffe129" opacity="1.00" d=" M 42.85 31.98 C 45.39 32.56 47.79 33.66 50.08 34.89 C 48.75 34.90 47.42 34.91 46.09 34.91 C 44.93 34.02 43.80 33.10 42.85 31.98 Z" />
</g>
<g id="#ffcd25ff">
<path fill="#ffcd25" opacity="1.00" d=" M 9.81 40.85 C 12.69 38.34 15.75 36.04 19.05 34.11 L 19.02 35.01 C 18.99 35.72 18.94 37.14 18.91 37.85 C 16.94 39.06 15.07 40.42 13.24 41.84 C 12.11 41.46 10.97 41.13 9.81 40.85 Z" />
</g>
<g id="#6d6027ff">
<path fill="#6d6027" opacity="1.00" d=" M 19.02 35.01 L 19.85 35.02 C 19.92 36.84 20.56 38.48 21.54 39.99 C 20.68 42.68 20.06 45.43 19.23 48.13 C 19.13 44.70 18.99 41.28 18.91 37.85 C 18.94 37.14 18.99 35.72 19.02 35.01 Z" />
</g>
<g id="#1c1305ff">
<path fill="#1c1305" opacity="1.00" d=" M 19.85 35.02 L 20.78 34.99 C 24.92 37.21 26.82 42.94 23.59 46.65 C 24.86 47.49 24.89 48.43 23.72 49.40 C 24.34 51.39 25.16 53.31 25.89 55.27 C 25.92 55.69 25.98 56.53 26.01 56.95 C 24.26 56.97 20.76 56.99 19.01 57.00 C 18.99 55.36 18.98 53.72 18.95 52.08 C 19.01 50.76 19.11 49.44 19.23 48.13 C 20.06 45.43 20.68 42.68 21.54 39.99 C 20.56 38.48 19.92 36.84 19.85 35.02 Z" />
</g>
<g id="#5a4309ff">
<path fill="#5a4309" opacity="1.00" d=" M 20.78 34.99 L 21.73 34.89 C 23.14 34.91 24.55 34.99 25.95 35.12 C 25.98 36.62 26.05 39.63 26.08 41.14 C 26.08 41.90 26.06 43.43 26.05 44.19 L 26.04 45.09 C 26.00 48.17 26.05 51.26 26.05 54.34 L 25.89 55.27 C 25.16 53.31 24.34 51.39 23.72 49.40 C 24.89 48.43 24.86 47.49 23.59 46.65 C 26.82 42.94 24.92 37.21 20.78 34.99 Z" />
</g>
<g id="#d85319ff">
<path fill="#d85319" opacity="1.00" d=" M 42.02 35.96 C 42.00 34.06 44.89 35.38 46.09 34.91 C 47.42 34.91 48.75 34.90 50.08 34.89 C 50.40 35.07 51.04 35.43 51.35 35.61 C 51.27 36.22 51.10 37.46 51.01 38.07 C 48.38 36.19 45.12 36.25 42.02 35.96 Z" />
</g>
<g id="#bb2f07ff">
<path fill="#bb2f07" opacity="1.00" d=" M 29.03 36.99 C 32.20 36.37 35.44 35.81 37.91 38.15 C 37.91 38.82 37.89 40.14 37.88 40.80 C 34.55 41.21 34.97 44.44 34.74 47.00 C 32.88 45.89 30.98 44.86 29.03 43.91 C 29.03 42.18 29.03 38.72 29.03 36.99 Z" />
</g>
<g id="#c5390fff">
<path fill="#c5390f" opacity="1.00" d=" M 42.02 35.96 C 45.12 36.25 48.38 36.19 51.01 38.07 C 50.97 40.11 50.90 42.14 50.81 44.17 C 50.36 39.43 45.09 41.39 41.68 40.83 C 41.59 39.20 41.80 37.57 42.02 35.96 Z" />
</g>
<g id="#fbe028ff">
<path fill="#fbe028" opacity="1.00" d=" M 51.35 35.61 C 53.02 36.18 54.57 37.02 56.02 38.02 C 56.00 39.48 55.97 42.39 55.95 43.85 C 54.24 44.03 52.52 44.09 50.81 44.17 C 50.90 42.14 50.97 40.11 51.01 38.07 C 51.10 37.46 51.27 36.22 51.35 35.61 Z" />
</g>
<g id="#ecececff">
<path fill="#ececec" opacity="1.00" d=" M 4.02 38.00 C 4.75 38.00 6.23 38.00 6.96 38.00 C 6.98 39.34 6.99 40.67 7.00 42.01 C 7.00 43.73 7.01 47.17 7.02 48.89 C 7.02 50.52 7.00 52.16 7.04 53.79 C 5.57 58.73 10.96 56.77 14.20 56.90 C 15.80 56.97 17.41 57.00 19.01 57.00 C 20.76 56.99 24.26 56.97 26.01 56.95 C 26.46 56.95 27.34 56.93 27.78 56.92 C 33.84 56.96 39.89 57.04 45.94 57.07 L 47.02 57.07 C 50.33 57.05 53.65 57.15 56.95 56.90 C 57.03 52.94 57.04 48.97 56.99 45.01 C 57.00 43.26 57.02 39.75 57.03 38.00 C 57.77 38.00 59.25 38.00 59.99 38.00 C 60.02 45.36 59.99 52.72 60.06 60.09 L 59.23 60.32 C 41.10 59.79 22.94 59.87 4.81 60.21 L 3.95 60.11 C 4.00 52.74 3.99 45.37 4.02 38.00 Z" />
</g>
<g id="#fdeb2aff">
<path fill="#fdeb2a" opacity="1.00" d=" M 13.24 41.84 C 15.07 40.42 16.94 39.06 18.91 37.85 C 18.99 41.28 19.13 44.70 19.23 48.13 C 16.98 47.66 15.49 48.23 15.83 50.74 C 15.12 50.81 13.72 50.94 13.01 51.01 C 13.00 50.55 12.96 49.62 12.95 49.16 C 12.95 48.41 12.95 46.89 12.95 46.14 C 13.02 44.70 13.12 43.27 13.24 41.84 Z" />
</g>
<g id="#fff42dff">
<path fill="#fff42d" opacity="1.00" d=" M 26.08 41.14 C 27.52 39.44 30.23 34.84 27.84 43.59 C 27.40 43.74 26.50 44.04 26.05 44.19 C 26.06 43.43 26.08 41.90 26.08 41.14 Z" />
</g>
<g id="#231504ff">
<path fill="#231504" opacity="1.00" d=" M 34.74 47.00 C 34.97 44.44 34.55 41.21 37.88 40.80 C 38.92 41.22 39.96 41.60 41.02 41.96 C 39.52 47.18 44.03 47.08 45.31 50.22 C 45.31 52.53 45.52 54.81 45.94 57.07 C 39.89 57.04 33.84 56.96 27.78 56.92 C 28.10 56.70 28.74 56.27 29.06 56.06 C 33.21 56.90 32.13 53.00 31.79 49.81 C 31.88 47.92 34.53 48.51 34.74 47.00 Z" />
</g>
<g id="#a42703ff">
<path fill="#a42703" opacity="1.00" d=" M 41.02 41.96 C 41.18 41.67 41.52 41.11 41.68 40.83 C 45.09 41.39 50.36 39.43 50.81 44.17 L 51.09 44.95 C 50.36 44.99 48.89 45.06 48.16 45.10 C 46.20 45.57 47.23 49.05 45.31 50.22 C 44.03 47.08 39.52 47.18 41.02 41.96 Z" />
</g>
<g id="#b13907ff">
<path fill="#b13907" opacity="1.00" d=" M 7.00 42.01 L 7.93 42.03 C 7.95 42.50 7.99 43.44 8.02 43.91 C 7.36 46.96 10.03 49.31 12.95 49.16 C 12.96 49.62 13.00 50.55 13.01 51.01 C 10.78 51.14 8.00 51.40 7.02 48.89 C 7.01 47.17 7.00 43.73 7.00 42.01 Z" />
</g>
<g id="#f45c15ff">
<path fill="#f45c15" opacity="1.00" d=" M 7.93 42.03 C 9.70 41.98 11.47 41.91 13.24 41.84 C 13.12 43.27 13.02 44.70 12.95 46.14 C 11.01 46.02 8.89 45.96 8.02 43.91 C 7.99 43.44 7.95 42.50 7.93 42.03 Z" />
</g>
<g id="#d44c0aff">
<path fill="#d44c0a" opacity="1.00" d=" M 8.02 43.91 C 8.89 45.96 11.01 46.02 12.95 46.14 C 12.95 46.89 12.95 48.41 12.95 49.16 C 10.03 49.31 7.36 46.96 8.02 43.91 Z" />
</g>
<g id="#932303ff">
<path fill="#932303" opacity="1.00" d=" M 29.03 43.91 C 30.98 44.86 32.88 45.89 34.74 47.00 C 34.53 48.51 31.88 47.92 31.79 49.81 C 31.28 51.44 30.40 52.16 28.93 50.93 L 28.89 49.89 C 28.95 48.23 28.99 46.58 29.00 44.92 L 29.03 43.91 Z" />
</g>
<g id="#f15e15ff">
<path fill="#f15e15" opacity="1.00" d=" M 26.04 45.09 C 26.78 45.05 28.26 44.96 29.00 44.92 C 28.99 46.58 28.95 48.23 28.89 49.89 C 28.11 51.47 27.25 53.03 26.05 54.34 C 26.05 51.26 26.00 48.17 26.04 45.09 Z" />
</g>
<g id="#741f07ff">
<path fill="#741f07" opacity="1.00" d=" M 45.31 50.22 C 47.23 49.05 46.20 45.57 48.16 45.10 C 47.79 49.07 48.17 53.21 47.02 57.07 L 45.94 57.07 C 45.52 54.81 45.31 52.53 45.31 50.22 Z" />
</g>
<g id="#1b1505ff">
<path fill="#1b1505" opacity="1.00" d=" M 48.16 45.10 C 48.89 45.06 50.36 44.99 51.09 44.95 C 53.06 44.98 55.03 45.00 56.99 45.01 C 57.04 48.97 57.03 52.94 56.95 56.90 C 53.65 57.15 50.33 57.05 47.02 57.07 C 48.17 53.21 47.79 49.07 48.16 45.10 Z" />
</g>
<g id="#922d05ff">
<path fill="#922d05" opacity="1.00" d=" M 15.83 50.74 C 15.49 48.23 16.98 47.66 19.23 48.13 C 19.11 49.44 19.01 50.76 18.95 52.08 C 18.27 50.79 17.24 50.22 15.83 50.74 Z" />
</g>
<g id="#702109ff">
<path fill="#702109" opacity="1.00" d=" M 7.02 48.89 C 8.00 51.40 10.78 51.14 13.01 51.01 C 13.72 50.94 15.12 50.81 15.83 50.74 C 17.24 50.22 18.27 50.79 18.95 52.08 C 18.98 53.72 18.99 55.36 19.01 57.00 C 17.41 57.00 15.80 56.97 14.20 56.90 C 11.78 55.93 9.51 54.63 7.04 53.79 C 7.00 52.16 7.02 50.52 7.02 48.89 Z" />
</g>
<g id="#b83f08ff">
<path fill="#b83f08" opacity="1.00" d=" M 26.05 54.34 C 27.25 53.03 28.11 51.47 28.89 49.89 L 28.93 50.93 C 28.97 52.64 29.02 54.35 29.06 56.06 C 28.74 56.27 28.10 56.70 27.78 56.92 C 27.34 56.93 26.46 56.95 26.01 56.95 C 25.98 56.53 25.92 55.69 25.89 55.27 L 26.05 54.34 Z" />
</g>
<g id="#6d1801ff">
<path fill="#6d1801" opacity="1.00" d=" M 28.93 50.93 C 30.40 52.16 31.28 51.44 31.79 49.81 C 32.13 53.00 33.21 56.90 29.06 56.06 C 29.02 54.35 28.97 52.64 28.93 50.93 Z" />
</g>
<g id="#180400ff">
<path fill="#180400" opacity="1.00" d=" M 7.04 53.79 C 9.51 54.63 11.78 55.93 14.20 56.90 C 10.96 56.77 5.57 58.73 7.04 53.79 Z" />
</g>
<g id="#00000081">
<path fill="#000000" opacity="0.51" d=" M 3.95 60.11 L 4.81 60.21 C 18.13 61.88 31.61 60.60 45.00 61.03 C 49.71 60.71 54.64 61.80 59.23 60.32 L 60.06 60.09 C 59.79 60.57 59.26 61.52 58.99 62.00 C 40.99 62.00 23.00 62.00 5.00 62.00 L 4.03 61.96 C 4.01 61.50 3.97 60.58 3.95 60.11 Z" />
</g>
<g id="#000000ad">
<path fill="#000000" opacity="0.68" d=" M 4.81 60.21 C 22.94 59.87 41.10 59.79 59.23 60.32 C 54.64 61.80 49.71 60.71 45.00 61.03 C 31.61 60.60 18.13 61.88 4.81 60.21 Z" />
</g>
<g id="#00000055">
<path fill="#000000" opacity="0.33" d=" M 5.00 62.00 C 23.00 62.00 40.99 62.00 58.99 62.00 L 59.00 62.98 C 41.01 62.98 23.01 63.09 5.02 62.95 L 5.00 62.00 Z" />
</g>
</svg>
