<?xml version="1.0" encoding="UTF-8" ?>
<!DOCTYPE svg PUBLIC "-//W3C//DTD SVG 1.1//EN" "http://www.w3.org/Graphics/SVG/1.1/DTD/svg11.dtd">
<svg width="64pt" height="64pt" viewBox="0 0 64 64" version="1.1" xmlns="http://www.w3.org/2000/svg">
<g id="#656c74ff">
<path fill="#656c74" opacity="1.00" d=" M 11.45 14.65 C 16.18 11.96 21.56 9.82 27.11 10.96 C 27.52 11.27 28.34 11.88 28.75 12.19 C 29.44 12.29 30.81 12.48 31.49 12.58 L 31.76 13.13 C 29.61 13.44 27.47 13.76 25.31 13.94 C 22.45 13.85 19.59 14.25 16.94 15.37 C 14.18 16.65 11.68 18.44 9.80 20.85 C 7.91 23.53 4.15 24.35 3.11 27.70 C 2.99 28.45 2.92 29.21 2.83 29.97 C 2.73 31.94 2.48 33.92 1.50 35.67 C 0.07 33.96 0.16 31.64 0.00 29.55 L 0.00 26.50 C 1.18 24.76 2.34 23.01 3.49 21.24 C 4.09 21.23 5.28 21.22 5.87 21.21 C 6.54 19.85 7.30 18.54 8.19 17.31 C 9.36 16.54 10.43 15.62 11.45 14.65 Z" />
<path fill="#656c74" opacity="1.00" d=" M 0.00 48.45 C 1.07 47.98 2.14 47.53 3.22 47.10 C 4.41 47.13 5.59 47.20 6.77 47.31 C 5.53 47.68 4.24 47.80 2.94 47.75 L 3.01 48.61 C 3.10 50.67 3.09 52.74 3.12 54.81 C 2.08 53.89 1.03 52.98 0.00 52.04 L 0.00 48.45 Z" />
</g>
<g id="#485c63ff">
<path fill="#485c63" opacity="1.00" d=" M 25.31 13.94 C 27.47 13.76 29.61 13.44 31.76 13.13 C 32.00 13.69 32.50 14.81 32.74 15.37 C 32.66 16.98 32.66 18.58 32.47 20.18 C 34.30 20.80 36.12 21.42 37.96 22.00 C 38.29 22.41 38.96 23.21 39.29 23.62 C 38.59 25.04 37.88 26.46 37.14 27.86 C 36.87 27.26 36.32 26.06 36.04 25.46 C 34.35 25.70 32.72 26.19 31.14 26.83 L 30.74 25.32 C 30.64 24.57 30.55 23.82 30.47 23.06 C 30.17 20.48 29.58 17.94 29.08 15.39 C 27.83 14.89 26.58 14.41 25.31 13.94 Z" />
<path fill="#485c63" opacity="1.00" d=" M 60.27 44.82 C 61.60 43.75 62.82 42.57 64.00 41.34 L 64.00 45.50 C 63.37 45.64 62.12 45.91 61.49 46.04 C 61.19 45.74 60.58 45.13 60.27 44.82 Z" />
<path fill="#485c63" opacity="1.00" d=" M 31.50 60.80 C 32.45 61.11 33.40 61.44 34.36 61.73 C 38.08 62.64 41.97 62.52 45.71 61.79 C 47.19 61.45 48.63 60.95 50.08 60.50 C 51.42 60.65 52.77 60.76 54.12 60.92 C 57.44 61.04 60.67 59.99 64.00 59.95 L 64.00 64.00 L 36.06 64.00 C 33.84 63.19 31.69 62.21 29.65 61.02 C 30.11 60.96 31.04 60.85 31.50 60.80 Z" />
</g>
<g id="#93cbcdff">
<path fill="#93cbcd" opacity="1.00" d=" M 16.94 15.37 C 19.59 14.25 22.45 13.85 25.31 13.94 C 26.58 14.41 27.83 14.89 29.08 15.39 C 29.58 17.94 30.17 20.48 30.47 23.06 C 29.52 22.91 27.62 22.60 26.68 22.45 C 26.83 21.94 27.13 20.93 27.28 20.42 C 25.74 18.99 24.41 17.34 23.21 15.62 C 22.10 15.40 20.98 15.20 19.87 14.99 C 19.91 15.89 19.98 17.68 20.01 18.57 C 18.94 17.55 17.93 16.46 16.94 15.37 Z" />
<path fill="#93cbcd" opacity="1.00" d=" M 3.11 27.70 C 4.25 27.34 5.40 27.02 6.54 26.69 C 7.35 28.19 8.12 29.71 8.83 31.25 C 10.11 29.98 10.97 27.74 12.93 27.42 C 14.17 27.91 15.01 29.01 15.85 30.00 C 15.39 30.68 14.47 32.03 14.02 32.70 C 13.42 32.33 12.23 31.58 11.63 31.20 C 12.52 33.22 14.46 34.38 16.05 35.77 C 14.56 36.73 13.05 37.66 11.51 38.54 C 11.55 37.82 11.62 36.38 11.66 35.67 C 10.64 35.57 9.61 35.46 8.59 35.35 C 7.70 36.25 6.83 37.16 5.96 38.07 C 6.19 36.48 6.39 34.89 6.61 33.30 C 5.26 32.30 4.02 31.17 2.83 29.97 C 2.92 29.21 2.99 28.45 3.11 27.70 Z" />
<path fill="#93cbcd" opacity="1.00" d=" M 18.52 48.69 C 18.97 46.48 20.08 44.56 21.86 43.16 C 23.21 45.89 24.82 48.48 26.61 50.94 L 25.18 50.79 C 25.71 54.90 27.72 58.81 31.50 60.80 C 31.04 60.85 30.11 60.96 29.65 61.02 C 29.38 60.87 28.85 60.56 28.58 60.40 C 25.95 58.34 23.28 54.85 19.90 54.82 C 19.15 57.45 21.97 59.19 23.57 60.74 L 23.80 61.45 C 21.97 61.41 20.14 61.37 18.31 61.36 C 18.30 60.15 18.29 58.94 18.28 57.74 C 17.37 57.53 16.46 57.32 15.56 57.11 C 15.37 58.49 15.19 59.87 15.01 61.25 C 14.47 61.22 13.94 61.18 13.40 61.14 C 13.62 60.58 14.07 59.46 14.29 58.91 C 12.75 58.66 11.74 57.58 10.90 56.36 C 8.45 56.13 6.12 58.22 3.76 57.06 C 4.50 56.66 5.96 55.86 6.70 55.46 C 6.79 54.36 6.89 53.27 6.97 52.17 C 7.73 51.43 8.48 50.68 9.24 49.94 C 8.56 49.04 7.89 48.13 7.23 47.22 C 7.76 47.06 8.80 46.74 9.32 46.58 C 12.12 48.27 12.87 51.47 13.67 54.39 C 14.71 54.57 15.74 54.74 16.78 54.91 C 17.18 53.90 17.58 52.89 17.98 51.89 C 16.87 50.85 15.76 49.82 14.68 48.75 C 15.96 48.63 17.24 48.64 18.52 48.69 Z" />
<path fill="#93cbcd" opacity="1.00" d=" M 53.27 48.06 C 56.39 46.58 53.27 51.32 53.27 48.06 Z" />
<path fill="#93cbcd" opacity="1.00" d=" M 3.01 48.61 C 4.19 49.82 5.43 50.97 6.74 52.04 C 5.51 53.23 4.33 54.46 3.14 55.69 L 3.12 54.81 C 3.09 52.74 3.10 50.67 3.01 48.61 Z" />
<path fill="#93cbcd" opacity="1.00" d=" M 61.87 54.99 C 62.40 54.53 63.47 53.61 64.00 53.15 L 64.00 53.77 C 61.04 56.59 57.38 58.49 54.12 60.92 C 52.77 60.76 51.42 60.65 50.08 60.50 C 54.27 59.28 57.99 56.93 61.87 54.99 Z" />
</g>
<g id="#0e1348ff">
<path fill="#0e1348" opacity="1.00" d=" M 19.87 14.99 C 20.98 15.20 22.10 15.40 23.21 15.62 C 24.41 17.34 25.74 18.99 27.28 20.42 C 27.13 20.93 26.83 21.94 26.68 22.45 C 25.15 25.05 23.46 27.55 21.97 30.17 C 20.36 28.63 18.10 28.31 16.03 27.82 C 16.26 27.06 16.48 26.31 16.71 25.55 C 13.99 25.27 11.66 23.82 11.04 21.00 C 13.12 20.04 14.24 17.67 16.49 17.07 C 16.60 16.65 16.83 15.79 16.94 15.37 C 17.93 16.46 18.94 17.55 20.01 18.57 C 19.98 17.68 19.91 15.89 19.87 14.99 Z" />
<path fill="#0e1348" opacity="1.00" d=" M 1.50 35.67 C 2.48 33.92 2.73 31.94 2.83 29.97 C 4.02 31.17 5.26 32.30 6.61 33.30 C 6.39 34.89 6.19 36.48 5.96 38.07 C 6.83 37.16 7.70 36.25 8.59 35.35 C 9.61 35.46 10.64 35.57 11.66 35.67 C 11.62 36.38 11.55 37.82 11.51 38.54 C 13.05 37.66 14.56 36.73 16.05 35.77 C 14.46 34.38 12.52 33.22 11.63 31.20 C 12.23 31.58 13.42 32.33 14.02 32.70 C 14.47 32.03 15.39 30.68 15.85 30.00 C 16.84 31.08 17.84 32.14 18.82 33.23 C 19.75 33.38 20.69 33.53 21.62 33.68 C 21.36 33.08 20.83 31.88 20.56 31.28 L 23.18 32.07 C 23.78 34.19 24.02 36.38 24.41 38.54 C 23.19 38.07 21.97 37.60 20.75 37.13 C 18.61 42.00 14.08 44.74 9.32 46.58 C 8.80 46.74 7.76 47.06 7.23 47.22 L 6.77 47.31 C 5.59 47.20 4.41 47.13 3.22 47.10 C 2.73 43.34 4.19 38.80 1.50 35.67 Z" />
<path fill="#0e1348" opacity="1.00" d=" M 28.96 43.81 C 29.56 44.00 30.75 44.38 31.34 44.57 C 31.80 45.42 32.26 46.28 32.72 47.13 C 33.66 48.77 34.75 50.32 35.86 51.86 C 35.68 50.91 35.31 49.02 35.13 48.07 C 35.74 48.51 36.97 49.39 37.59 49.83 C 37.88 49.63 38.46 49.21 38.75 49.01 C 39.55 49.22 40.34 49.44 41.14 49.67 C 42.82 50.90 44.39 52.27 45.96 53.63 L 44.43 50.63 C 45.42 51.14 47.39 52.14 48.38 52.65 C 49.45 52.44 50.51 52.23 51.58 52.02 C 51.88 51.96 52.49 51.84 52.79 51.78 C 55.35 51.22 57.86 50.51 60.39 49.85 C 60.90 51.55 61.36 53.28 61.87 54.99 C 57.99 56.93 54.27 59.28 50.08 60.50 C 48.63 60.95 47.19 61.45 45.71 61.79 C 42.10 60.11 38.00 60.17 34.36 61.73 C 33.40 61.44 32.45 61.11 31.50 60.80 C 27.72 58.81 25.71 54.90 25.18 50.79 L 26.61 50.94 C 30.38 51.23 33.94 52.60 37.36 54.11 C 34.99 52.36 32.89 50.28 30.76 48.25 C 30.64 47.21 30.51 46.17 30.36 45.14 C 30.01 44.80 29.31 44.14 28.96 43.81 Z" />
<path fill="#0e1348" opacity="1.00" d=" M 6.74 52.04 L 6.97 52.17 C 6.89 53.27 6.79 54.36 6.70 55.46 C 5.96 55.86 4.50 56.66 3.76 57.06 C 6.12 58.22 8.45 56.13 10.90 56.36 C 11.74 57.58 12.75 58.66 14.29 58.91 C 14.07 59.46 13.62 60.58 13.40 61.14 C 10.09 60.86 6.77 60.66 3.44 60.51 C 3.34 58.91 3.21 57.30 3.14 55.69 C 4.33 54.46 5.51 53.23 6.74 52.04 Z" />
<path fill="#0e1348" opacity="1.00" d=" M 19.90 54.82 C 23.28 54.85 25.95 58.34 28.58 60.40 C 26.91 60.52 25.24 60.64 23.57 60.74 C 21.97 59.19 19.15 57.45 19.90 54.82 Z" />
<path fill="#0e1348" opacity="1.00" d=" M 15.56 57.11 C 16.46 57.32 17.37 57.53 18.28 57.74 C 18.29 58.94 18.30 60.15 18.31 61.36 C 17.21 61.34 16.11 61.30 15.01 61.25 C 15.19 59.87 15.37 58.49 15.56 57.11 Z" />
</g>
<g id="#e0f7f8ff">
<path fill="#e0f7f8" opacity="1.00" d=" M 9.80 20.85 C 11.68 18.44 14.18 16.65 16.94 15.37 C 16.83 15.79 16.60 16.65 16.49 17.07 C 14.24 17.67 13.12 20.04 11.04 21.00 C 11.66 23.82 13.99 25.27 16.71 25.55 C 16.48 26.31 16.26 27.06 16.03 27.82 C 18.10 28.31 20.36 28.63 21.97 30.17 C 22.27 30.64 22.88 31.59 23.18 32.07 L 20.56 31.28 C 20.83 31.88 21.36 33.08 21.62 33.68 C 20.69 33.53 19.75 33.38 18.82 33.23 C 17.84 32.14 16.84 31.08 15.85 30.00 C 15.01 29.01 14.17 27.91 12.93 27.42 C 10.97 27.74 10.11 29.98 8.83 31.25 C 8.12 29.71 7.35 28.19 6.54 26.69 C 5.40 27.02 4.25 27.34 3.11 27.70 C 4.15 24.35 7.91 23.53 9.80 20.85 Z" />
<path fill="#e0f7f8" opacity="1.00" d=" M 9.32 46.58 C 14.08 44.74 18.61 42.00 20.75 37.13 C 21.97 37.60 23.19 38.07 24.41 38.54 C 26.29 39.97 27.14 42.31 28.96 43.81 C 29.31 44.14 30.01 44.80 30.36 45.14 C 30.51 46.17 30.64 47.21 30.76 48.25 C 32.89 50.28 34.99 52.36 37.36 54.11 C 33.94 52.60 30.38 51.23 26.61 50.94 C 24.82 48.48 23.21 45.89 21.86 43.16 C 20.08 44.56 18.97 46.48 18.52 48.69 C 17.24 48.64 15.96 48.63 14.68 48.75 C 15.76 49.82 16.87 50.85 17.98 51.89 C 17.58 52.89 17.18 53.90 16.78 54.91 C 15.74 54.74 14.71 54.57 13.67 54.39 C 12.87 51.47 12.12 48.27 9.32 46.58 Z" />
<path fill="#e0f7f8" opacity="1.00" d=" M 57.54 46.61 C 58.23 46.16 59.59 45.27 60.27 44.82 C 60.58 45.13 61.19 45.74 61.49 46.04 C 60.34 46.55 58.64 47.88 57.54 46.61 Z" />
<path fill="#e0f7f8" opacity="1.00" d=" M 6.77 47.31 L 7.23 47.22 C 7.89 48.13 8.56 49.04 9.24 49.94 C 8.48 50.68 7.73 51.43 6.97 52.17 L 6.74 52.04 C 5.43 50.97 4.19 49.82 3.01 48.61 L 2.94 47.75 C 4.24 47.80 5.53 47.68 6.77 47.31 Z" />
<path fill="#e0f7f8" opacity="1.00" d=" M 32.72 47.13 C 34.75 47.69 36.74 48.39 38.75 49.01 C 38.46 49.21 37.88 49.63 37.59 49.83 C 36.97 49.39 35.74 48.51 35.13 48.07 C 35.31 49.02 35.68 50.91 35.86 51.86 C 34.75 50.32 33.66 48.77 32.72 47.13 Z" />
<path fill="#e0f7f8" opacity="1.00" d=" M 56.22 47.49 C 56.91 48.12 56.91 48.12 56.22 47.49 Z" />
<path fill="#e0f7f8" opacity="1.00" d=" M 51.89 49.66 C 55.97 49.74 59.98 48.80 64.00 48.24 L 64.00 48.88 C 62.79 49.20 61.59 49.52 60.39 49.85 C 57.86 50.51 55.35 51.22 52.79 51.78 C 52.57 51.25 52.11 50.19 51.89 49.66 Z" />
<path fill="#e0f7f8" opacity="1.00" d=" M 41.14 49.67 C 44.69 49.91 48.25 49.63 51.78 49.24 C 51.73 49.93 51.63 51.33 51.58 52.02 C 50.51 52.23 49.45 52.44 48.38 52.65 C 47.39 52.14 45.42 51.14 44.43 50.63 L 45.96 53.63 C 44.39 52.27 42.82 50.90 41.14 49.67 Z" />
</g>
<g id="#050720ff">
<path fill="#050720" opacity="1.00" d=" M 21.97 30.17 C 23.46 27.55 25.15 25.05 26.68 22.45 C 27.62 22.60 29.52 22.91 30.47 23.06 C 30.55 23.82 30.64 24.57 30.74 25.32 C 28.11 25.06 25.76 27.23 25.86 29.89 C 26.09 34.80 28.16 39.75 31.97 42.95 C 41.78 50.22 56.49 46.63 64.00 37.62 L 64.00 41.34 C 62.82 42.57 61.60 43.75 60.27 44.82 C 59.59 45.27 58.23 46.16 57.54 46.61 C 58.64 47.88 60.34 46.55 61.49 46.04 C 62.12 45.91 63.37 45.64 64.00 45.50 L 64.00 48.24 C 59.98 48.80 55.97 49.74 51.89 49.66 C 52.11 50.19 52.57 51.25 52.79 51.78 C 52.49 51.84 51.88 51.96 51.58 52.02 C 51.63 51.33 51.73 49.93 51.78 49.24 C 48.25 49.63 44.69 49.91 41.14 49.67 C 40.34 49.44 39.55 49.22 38.75 49.01 C 36.74 48.39 34.75 47.69 32.72 47.13 C 32.26 46.28 31.80 45.42 31.34 44.57 C 30.75 44.38 29.56 44.00 28.96 43.81 C 27.14 42.31 26.29 39.97 24.41 38.54 C 24.02 36.38 23.78 34.19 23.18 32.07 C 22.88 31.59 22.27 30.64 21.97 30.17 M 56.22 47.49 C 56.91 48.12 56.91 48.12 56.22 47.49 M 53.27 48.06 C 53.27 51.32 56.39 46.58 53.27 48.06 Z" />
<path fill="#050720" opacity="1.00" d=" M 0.00 29.55 C 0.16 31.64 0.07 33.96 1.50 35.67 C 4.19 38.80 2.73 43.34 3.22 47.10 C 2.14 47.53 1.07 47.98 0.00 48.45 L 0.00 29.55 Z" />
<path fill="#050720" opacity="1.00" d=" M 60.39 49.85 C 61.59 49.52 62.79 49.20 64.00 48.88 L 64.00 53.15 C 63.47 53.61 62.40 54.53 61.87 54.99 C 61.36 53.28 60.90 51.55 60.39 49.85 Z" />
<path fill="#050720" opacity="1.00" d=" M 0.00 52.04 C 1.03 52.98 2.08 53.89 3.12 54.81 L 3.14 55.69 C 3.21 57.30 3.34 58.91 3.44 60.51 C 6.77 60.66 10.09 60.86 13.40 61.14 C 13.94 61.18 14.47 61.22 15.01 61.25 C 16.11 61.30 17.21 61.34 18.31 61.36 C 20.14 61.37 21.97 61.41 23.80 61.45 L 23.57 60.74 C 25.24 60.64 26.91 60.52 28.58 60.40 C 28.85 60.56 29.38 60.87 29.65 61.02 C 31.69 62.21 33.84 63.19 36.06 64.00 L 0.00 64.00 L 0.00 52.04 Z" />
<path fill="#050720" opacity="1.00" d=" M 54.12 60.92 C 57.38 58.49 61.04 56.59 64.00 53.77 L 64.00 59.95 C 60.67 59.99 57.44 61.04 54.12 60.92 Z" />
<path fill="#050720" opacity="1.00" d=" M 34.36 61.73 C 38.00 60.17 42.10 60.11 45.71 61.79 C 41.97 62.52 38.08 62.64 34.36 61.73 Z" />
</g>
</svg>
