<?xml version="1.0" encoding="UTF-8" ?>
<!DOCTYPE svg PUBLIC "-//W3C//DTD SVG 1.1//EN" "http://www.w3.org/Graphics/SVG/1.1/DTD/svg11.dtd">
<svg width="64pt" height="64pt" viewBox="0 0 64 64" version="1.1" xmlns="http://www.w3.org/2000/svg">
<g id="#0000005d">
<path fill="#000000" opacity="0.36" d=" M 4.53 3.93 C 5.73 2.74 7.50 3.10 9.01 3.01 C 25.32 3.13 41.63 2.90 57.94 3.13 C 58.31 3.33 59.07 3.73 59.44 3.93 C 41.14 4.04 22.83 4.04 4.53 3.93 Z" />
</g>
<g id="#fefefeff">
<path fill="#fefefe" opacity="1.00" d=" M 3.91 3.92 L 4.53 3.93 C 22.83 4.04 41.14 4.04 59.44 3.93 L 60.09 3.92 L 60.07 4.56 C 59.92 15.73 59.98 26.89 59.98 38.05 C 59.25 38.03 57.78 37.97 57.04 37.95 C 57.20 30.58 56.55 23.22 56.95 15.85 C 56.94 12.90 56.99 9.94 57.02 6.99 C 40.34 7.01 23.66 7.01 6.97 6.99 C 7.00 8.61 7.03 10.23 7.07 11.85 C 7.63 20.53 6.60 29.20 6.95 37.89 C 6.21 37.91 4.75 37.97 4.02 38.00 C 4.02 26.86 4.08 15.72 3.93 4.57 L 3.91 3.92 Z" />
</g>
<g id="#00000086">
<path fill="#000000" opacity="0.53" d=" M 3.10 10.03 C 3.21 8.21 2.87 6.19 3.93 4.57 C 4.08 15.72 4.02 26.86 4.02 38.00 C 3.98 45.34 4.01 52.67 4.00 60.00 C 22.67 60.05 41.33 60.05 60.00 60.00 C 59.99 52.68 60.02 45.37 59.98 38.05 C 59.98 26.89 59.92 15.73 60.07 4.56 C 61.13 6.20 60.80 8.21 60.91 10.04 C 60.87 25.70 60.92 41.35 60.88 57.01 C 60.61 58.77 61.20 61.20 59.37 62.25 C 41.10 62.00 22.83 62.00 4.57 62.24 C 2.82 61.10 3.37 58.73 3.12 56.96 C 3.08 41.32 3.12 25.68 3.10 10.03 Z" />
</g>
<g id="#75a0a9ff">
<path fill="#75a0a9" opacity="1.00" d=" M 6.97 6.99 C 23.66 7.01 40.34 7.01 57.02 6.99 C 56.99 9.94 56.94 12.90 56.95 15.85 L 55.76 16.16 C 55.78 13.60 55.63 11.05 55.45 8.51 C 39.82 8.33 24.17 8.20 8.55 8.56 C 8.43 9.71 8.33 10.86 8.26 12.02 L 7.07 11.85 C 7.03 10.23 7.00 8.61 6.97 6.99 Z" />
</g>
<g id="#8ddae7ff">
<path fill="#8ddae7" opacity="1.00" d=" M 8.55 8.56 C 24.17 8.20 39.82 8.33 55.45 8.51 C 55.63 11.05 55.78 13.60 55.76 16.16 C 55.71 17.84 55.69 19.52 55.71 21.20 C 55.44 19.25 55.01 17.33 54.61 15.40 C 50.08 15.28 45.54 14.84 41.01 15.13 C 38.72 15.35 36.43 14.94 34.30 14.12 C 33.31 13.10 33.25 10.52 31.35 11.03 C 30.76 12.07 30.19 13.12 29.64 14.19 C 28.09 14.60 26.64 15.65 24.98 15.47 C 19.43 14.65 13.90 13.69 8.31 13.29 L 8.26 12.02 C 8.33 10.86 8.43 9.71 8.55 8.56 Z" />
</g>
<g id="#c7827cff">
<path fill="#c7827c" opacity="1.00" d=" M 31.35 11.03 C 33.25 10.52 33.31 13.10 34.30 14.12 C 35.06 15.21 35.92 16.23 36.76 17.26 L 37.41 18.10 L 37.34 19.70 C 35.12 18.54 32.96 15.67 30.18 17.00 C 27.63 19.66 22.94 21.49 23.81 25.94 L 23.87 27.06 L 23.53 26.41 C 22.96 25.68 22.36 24.98 21.75 24.30 C 20.35 25.24 18.94 26.18 17.46 27.00 C 17.07 27.05 16.28 27.16 15.89 27.21 C 18.99 25.69 22.14 24.01 24.56 21.50 C 26.29 19.09 27.82 16.54 29.64 14.19 C 30.19 13.12 30.76 12.07 31.35 11.03 Z" />
</g>
<g id="#9e9da2ff">
<path fill="#9e9da2" opacity="1.00" d=" M 7.07 11.85 L 8.26 12.02 L 8.31 13.29 C 8.41 17.96 8.19 22.64 8.47 27.30 C 8.65 36.74 8.45 46.17 8.40 55.61 C 13.93 55.68 19.45 55.48 24.97 55.56 C 35.17 55.58 45.36 55.98 55.55 55.61 C 56.01 51.83 56.18 48.02 55.91 44.22 C 55.86 38.60 55.42 32.98 55.79 27.36 C 55.79 25.31 55.78 23.25 55.71 21.20 C 55.69 19.52 55.71 17.84 55.76 16.16 L 56.95 15.85 C 56.55 23.22 57.20 30.58 57.04 37.95 C 56.65 44.30 56.75 50.66 57.03 57.01 C 40.35 56.75 23.67 57.11 7.00 57.01 C 6.98 50.63 7.05 44.26 6.95 37.89 C 6.60 29.20 7.63 20.53 7.07 11.85 Z" />
</g>
<g id="#dff3faff">
<path fill="#dff3fa" opacity="1.00" d=" M 8.31 13.29 C 13.90 13.69 19.43 14.65 24.98 15.47 C 26.64 15.65 28.09 14.60 29.64 14.19 C 27.82 16.54 26.29 19.09 24.56 21.50 C 22.14 24.01 18.99 25.69 15.89 27.21 C 13.43 27.54 10.93 27.49 8.47 27.30 C 8.19 22.64 8.41 17.96 8.31 13.29 Z" />
</g>
<g id="#c4ebf3ff">
<path fill="#c4ebf3" opacity="1.00" d=" M 34.30 14.12 C 36.43 14.94 38.72 15.35 41.01 15.13 C 45.54 14.84 50.08 15.28 54.61 15.40 C 55.01 17.33 55.44 19.25 55.71 21.20 C 55.78 23.25 55.79 25.31 55.79 27.36 L 55.69 26.77 C 55.70 22.34 51.03 21.22 48.18 18.88 C 44.99 16.19 40.56 17.30 36.76 17.26 C 35.92 16.23 35.06 15.21 34.30 14.12 Z" />
</g>
<g id="#e1e0d8ff">
<path fill="#e1e0d8" opacity="1.00" d=" M 30.18 17.00 C 32.96 15.67 35.12 18.54 37.34 19.70 L 37.41 18.10 C 38.22 19.12 38.90 20.24 39.56 21.36 C 38.25 20.92 36.94 20.46 35.64 20.00 C 34.52 21.67 33.48 23.44 33.27 25.48 C 34.83 25.77 36.40 26.06 37.96 26.35 C 35.80 27.39 33.51 28.12 31.22 28.83 C 30.42 27.45 29.62 26.07 28.81 24.69 C 27.14 25.07 25.47 25.50 23.81 25.94 C 22.94 21.49 27.63 19.66 30.18 17.00 Z" />
</g>
<g id="#e1f1f9ff">
<path fill="#e1f1f9" opacity="1.00" d=" M 36.76 17.26 C 40.56 17.30 44.99 16.19 48.18 18.88 C 51.03 21.22 55.70 22.34 55.69 26.77 L 55.17 28.30 C 50.55 27.51 46.48 25.05 42.02 23.75 C 40.68 24.64 39.35 25.53 37.96 26.35 C 36.40 26.06 34.83 25.77 33.27 25.48 C 33.48 23.44 34.52 21.67 35.64 20.00 C 36.94 20.46 38.25 20.92 39.56 21.36 C 38.90 20.24 38.22 19.12 37.41 18.10 L 36.76 17.26 Z" />
</g>
<g id="#c5d7deff">
<path fill="#c5d7de" opacity="1.00" d=" M 23.81 25.94 C 25.47 25.50 27.14 25.07 28.81 24.69 C 29.62 26.07 30.42 27.45 31.22 28.83 C 33.51 28.12 35.80 27.39 37.96 26.35 C 39.35 25.53 40.68 24.64 42.02 23.75 C 46.48 25.05 50.55 27.51 55.17 28.30 C 54.46 29.88 53.54 31.36 52.61 32.82 C 50.88 31.89 49.20 30.88 47.58 29.77 C 46.96 30.15 46.33 30.53 45.71 30.92 C 43.99 29.60 42.31 28.24 40.69 26.81 C 38.56 29.03 41.36 31.66 41.94 33.98 C 43.17 36.23 43.49 40.46 46.93 40.11 C 48.68 40.07 50.72 40.33 52.23 39.27 C 52.82 37.89 53.20 36.44 53.68 35.03 C 55.47 37.71 55.18 41.17 55.91 44.22 C 56.18 48.02 56.01 51.83 55.55 55.61 C 45.36 55.98 35.17 55.58 24.97 55.56 C 23.82 52.99 23.59 50.10 22.45 47.55 C 20.68 46.27 18.45 45.13 18.31 42.65 C 17.22 40.15 20.16 38.97 21.69 37.70 C 24.21 36.25 25.60 33.66 26.77 31.12 C 25.62 29.91 24.49 28.64 23.87 27.06 L 23.81 25.94 Z" />
</g>
<g id="#c1d5dcff">
<path fill="#c1d5dc" opacity="1.00" d=" M 21.75 24.30 C 22.36 24.98 22.96 25.68 23.53 26.41 C 23.11 27.99 22.68 29.57 22.25 31.15 C 20.22 30.32 18.49 28.98 17.46 27.00 C 18.94 26.18 20.35 25.24 21.75 24.30 Z" />
</g>
<g id="#acc2cbff">
<path fill="#acc2cb" opacity="1.00" d=" M 8.47 27.30 C 10.93 27.49 13.43 27.54 15.89 27.21 C 16.28 27.16 17.07 27.05 17.46 27.00 C 18.49 28.98 20.22 30.32 22.25 31.15 C 22.68 29.57 23.11 27.99 23.53 26.41 L 23.87 27.06 C 24.49 28.64 25.62 29.91 26.77 31.12 C 25.60 33.66 24.21 36.25 21.69 37.70 C 20.16 38.97 17.22 40.15 18.31 42.65 C 18.45 45.13 20.68 46.27 22.45 47.55 C 23.59 50.10 23.82 52.99 24.97 55.56 C 19.45 55.48 13.93 55.68 8.40 55.61 C 8.45 46.17 8.65 36.74 8.47 27.30 Z" />
</g>
<g id="#b0c7cfff">
<path fill="#b0c7cf" opacity="1.00" d=" M 41.94 33.98 C 41.36 31.66 38.56 29.03 40.69 26.81 C 42.31 28.24 43.99 29.60 45.71 30.92 C 46.33 30.53 46.96 30.15 47.58 29.77 C 49.20 30.88 50.88 31.89 52.61 32.82 C 53.54 31.36 54.46 29.88 55.17 28.30 L 55.69 26.77 L 55.79 27.36 C 55.42 32.98 55.86 38.60 55.91 44.22 C 55.18 41.17 55.47 37.71 53.68 35.03 C 53.20 36.44 52.82 37.89 52.23 39.27 C 50.72 40.33 48.68 40.07 46.93 40.11 C 43.49 40.46 43.17 36.23 41.94 33.98 Z" />
</g>
<g id="#eaeaeaff">
<path fill="#eaeaea" opacity="1.00" d=" M 4.02 38.00 C 4.75 37.97 6.21 37.91 6.95 37.89 C 7.05 44.26 6.98 50.63 7.00 57.01 C 23.67 57.11 40.35 56.75 57.03 57.01 C 56.75 50.66 56.65 44.30 57.04 37.95 C 57.78 37.97 59.25 38.03 59.98 38.05 C 60.02 45.37 59.99 52.68 60.00 60.00 C 41.33 60.05 22.67 60.05 4.00 60.00 C 4.01 52.67 3.98 45.34 4.02 38.00 Z" />
</g>
<g id="#00000055">
<path fill="#000000" opacity="0.33" d=" M 4.57 62.24 C 22.83 62.00 41.10 62.00 59.37 62.25 C 58.48 63.24 57.36 63.65 56.02 63.47 C 40.03 63.45 24.04 63.44 8.04 63.47 C 6.67 63.64 5.51 63.23 4.57 62.24 Z" />
</g>
</svg>
