<?xml version="1.0" encoding="UTF-8" ?>
<!DOCTYPE svg PUBLIC "-//W3C//DTD SVG 1.1//EN" "http://www.w3.org/Graphics/SVG/1.1/DTD/svg11.dtd">
<svg width="64pt" height="64pt" viewBox="0 0 64 64" version="1.1" xmlns="http://www.w3.org/2000/svg">
<g id="#00000028">
<path fill="#000000" opacity="0.16" d=" M 4.23 2.18 C 21.14 1.74 38.08 2.08 55.01 2.02 C 57.74 0.52 62.30 2.76 61.99 5.98 C 62.01 22.66 62.08 39.33 61.95 56.01 C 62.82 59.04 61.25 61.53 59.99 64.00 L 4.02 64.00 C 3.27 62.39 2.06 60.86 2.02 59.02 C 1.94 42.34 1.98 25.67 2.02 8.99 C 0.15 5.75 2.43 3.91 4.23 2.18 M 5.00 3.02 L 5.01 4.00 C 4.76 4.25 4.25 4.75 4.00 5.01 L 3.02 5.00 C 2.97 23.32 3.00 41.64 3.00 59.96 L 3.95 60.11 C 3.97 60.58 4.01 61.50 4.03 61.96 L 5.00 62.00 L 5.02 62.95 C 23.01 63.09 41.01 62.98 59.00 62.98 L 58.99 62.00 C 59.26 61.52 59.79 60.56 60.06 60.09 L 61.00 59.98 C 61.00 41.65 61.04 23.33 60.98 5.00 L 60.00 5.01 C 59.75 4.76 59.25 4.25 59.00 4.00 L 58.98 3.05 C 40.99 2.91 22.99 3.02 5.00 3.02 Z" />
</g>
<g id="#0000005d">
<path fill="#000000" opacity="0.36" d=" M 5.00 3.02 C 22.99 3.02 40.99 2.91 58.98 3.05 L 59.00 4.00 C 41.00 4.00 23.00 4.01 5.01 4.00 L 5.00 3.02 Z" />
</g>
<g id="#fdfdfdff">
<path fill="#fdfdfd" opacity="1.00" d=" M 4.00 5.01 C 4.25 4.75 4.76 4.25 5.01 4.00 C 23.00 4.01 41.00 4.00 59.00 4.00 C 59.25 4.25 59.75 4.76 60.00 5.01 C 59.99 11.33 60.04 17.65 59.99 23.98 C 59.21 24.01 57.66 24.09 56.88 24.13 C 56.98 18.44 57.12 12.74 56.96 7.05 C 40.32 6.95 23.68 6.93 7.04 7.06 C 6.95 12.12 6.87 17.18 7.24 22.23 C 7.18 22.68 7.05 23.56 6.99 24.01 C 6.24 24.01 4.76 24.00 4.01 24.00 C 3.98 17.67 4.00 11.34 4.00 5.01 Z" />
</g>
<g id="#00000076">
<path fill="#000000" opacity="0.46" d=" M 3.02 5.00 L 4.00 5.01 C 4.00 11.34 3.98 17.67 4.01 24.00 C 3.99 30.66 3.96 37.33 4.02 43.99 C 3.98 49.36 4.03 54.74 3.95 60.11 L 3.00 59.96 C 3.00 41.64 2.97 23.32 3.02 5.00 Z" />
<path fill="#000000" opacity="0.46" d=" M 60.00 5.01 L 60.98 5.00 C 61.04 23.33 61.00 41.65 61.00 59.98 L 60.06 60.09 C 60.01 54.72 60.03 49.36 59.98 44.00 C 60.00 37.32 60.03 30.65 59.99 23.98 C 60.04 17.65 59.99 11.33 60.00 5.01 Z" />
</g>
<g id="#1f0e47ff">
<path fill="#1f0e47" opacity="1.00" d=" M 7.04 7.06 C 23.68 6.93 40.32 6.95 56.96 7.05 C 57.12 12.74 56.98 18.44 56.88 24.13 L 56.84 25.19 C 55.72 22.43 57.14 18.41 54.74 16.20 C 48.53 16.21 42.36 15.05 36.17 15.10 C 36.06 15.59 35.84 16.57 35.73 17.07 C 35.48 16.75 34.97 16.11 34.72 15.79 C 34.55 15.39 34.20 14.58 34.03 14.17 C 33.29 12.97 33.30 10.45 31.29 11.18 C 30.84 12.18 30.40 13.20 29.98 14.22 C 29.48 14.80 28.98 15.38 28.46 15.96 C 22.12 14.38 15.62 14.72 9.17 14.21 C 8.23 16.80 7.90 19.56 7.24 22.23 C 6.87 17.18 6.95 12.12 7.04 7.06 M 25.03 8.95 C 24.87 10.68 24.53 12.86 27.03 12.01 C 29.60 12.09 26.92 7.99 25.03 8.95 Z" />
</g>
<g id="#b6b51eff">
<path fill="#b6b51e" opacity="1.00" d=" M 25.03 8.95 C 26.92 7.99 29.60 12.09 27.03 12.01 C 24.53 12.86 24.87 10.68 25.03 8.95 Z" />
</g>
<g id="#2d1709ff">
<path fill="#2d1709" opacity="1.00" d=" M 31.29 11.18 C 33.30 10.45 33.29 12.97 34.03 14.17 C 32.70 14.63 31.32 14.64 29.98 14.22 C 30.40 13.20 30.84 12.18 31.29 11.18 Z" />
</g>
<g id="#2a0972ff">
<path fill="#2a0972" opacity="1.00" d=" M 9.17 14.21 C 15.62 14.72 22.12 14.38 28.46 15.96 L 28.32 16.84 C 23.23 23.26 15.65 29.27 7.05 28.99 C 7.01 27.33 6.99 25.67 6.99 24.01 C 7.05 23.56 7.18 22.68 7.24 22.23 C 7.90 19.56 8.23 16.80 9.17 14.21 Z" />
</g>
<g id="#9f5e03ff">
<path fill="#9f5e03" opacity="1.00" d=" M 29.98 14.22 C 31.32 14.64 32.70 14.63 34.03 14.17 C 34.20 14.58 34.55 15.39 34.72 15.79 L 34.05 16.21 C 33.32 16.84 32.83 17.67 32.58 18.69 C 30.51 19.91 31.12 17.14 30.74 15.93 C 30.25 16.62 29.77 17.32 29.31 18.03 C 29.07 17.73 28.57 17.14 28.32 16.84 L 28.46 15.96 C 28.98 15.38 29.48 14.80 29.98 14.22 Z" />
</g>
<g id="#26086bff">
<path fill="#26086b" opacity="1.00" d=" M 36.17 15.10 C 42.36 15.05 48.53 16.21 54.74 16.20 C 57.14 18.41 55.72 22.43 56.84 25.19 C 56.91 26.49 56.95 27.79 56.97 29.09 C 55.02 28.89 53.09 28.57 51.16 28.25 C 45.05 26.12 39.81 22.03 35.73 17.07 C 35.84 16.57 36.06 15.59 36.17 15.10 M 44.01 18.01 C 44.02 18.77 44.02 20.29 44.03 21.05 C 45.85 21.35 47.35 19.85 47.05 18.03 C 46.29 18.02 44.77 18.02 44.01 18.01 Z" />
</g>
<g id="#4a2522ff">
<path fill="#4a2522" opacity="1.00" d=" M 29.31 18.03 C 29.77 17.32 30.25 16.62 30.74 15.93 C 31.12 17.14 30.51 19.91 32.58 18.69 C 32.83 17.67 33.32 16.84 34.05 16.21 C 34.30 17.03 34.57 17.84 34.86 18.64 C 33.24 19.94 33.06 21.97 32.71 23.87 C 29.78 24.39 31.69 19.54 29.01 18.59 L 29.31 18.03 Z" />
</g>
<g id="#c17205ff">
<path fill="#c17205" opacity="1.00" d=" M 34.05 16.21 L 34.72 15.79 C 34.97 16.11 35.48 16.75 35.73 17.07 C 39.81 22.03 45.05 26.12 51.16 28.25 C 50.85 28.37 50.22 28.61 49.90 28.73 C 47.42 28.74 48.18 31.36 47.96 33.03 L 47.91 34.02 C 47.45 34.03 46.52 34.04 46.06 34.04 L 46.23 33.24 C 48.67 29.22 45.58 27.41 42.86 25.67 C 41.98 25.03 41.07 24.44 40.18 23.81 C 38.89 22.42 37.55 21.08 36.13 19.82 C 35.81 19.52 35.18 18.93 34.86 18.64 C 34.57 17.84 34.30 17.03 34.05 16.21 Z" />
</g>
<g id="#b96f0fff">
<path fill="#b96f0f" opacity="1.00" d=" M 28.32 16.84 C 28.57 17.14 29.07 17.73 29.31 18.03 L 29.01 18.59 C 28.71 18.89 28.13 19.49 27.84 19.79 C 26.44 21.40 23.83 22.52 24.01 24.98 C 23.89 27.64 23.90 30.31 24.04 32.97 C 25.19 32.63 28.12 34.04 27.96 32.10 C 28.09 30.66 28.20 29.22 28.28 27.78 C 28.45 29.33 28.79 32.44 28.96 34.00 C 27.25 34.01 23.82 34.04 22.11 34.05 L 22.24 33.20 C 21.62 32.04 25.15 22.99 21.13 25.62 C 20.06 26.40 19.04 27.25 17.98 28.06 C 17.51 28.30 16.57 28.80 16.09 29.05 C 14.23 30.05 9.82 30.12 11.82 33.12 L 12.06 34.02 C 10.64 33.98 9.22 33.84 7.86 33.39 C 11.56 33.35 9.65 29.87 7.05 29.83 L 7.05 28.99 C 15.65 29.27 23.23 23.26 28.32 16.84 Z" />
</g>
<g id="#bbb629ff">
<path fill="#bbb629" opacity="1.00" d=" M 44.01 18.01 C 44.77 18.02 46.29 18.02 47.05 18.03 C 47.35 19.85 45.85 21.35 44.03 21.05 C 44.02 20.29 44.02 18.77 44.01 18.01 Z" />
</g>
<g id="#80490eff">
<path fill="#80490e" opacity="1.00" d=" M 27.84 19.79 C 28.13 19.49 28.71 18.89 29.01 18.59 C 31.69 19.54 29.78 24.39 32.71 23.87 C 33.06 21.97 33.24 19.94 34.86 18.64 C 35.18 18.93 35.81 19.52 36.13 19.82 C 36.10 21.60 36.03 25.16 36.00 26.94 L 35.97 27.96 L 35.03 27.99 L 34.19 27.93 C 33.97 25.78 31.62 25.76 30.04 25.08 C 30.02 25.81 29.99 27.27 29.97 28.00 C 29.94 30.95 29.94 33.90 29.97 36.86 C 28.76 40.96 32.40 39.15 34.84 38.87 C 34.88 39.38 34.95 40.40 34.99 40.91 C 32.94 40.98 30.89 41.05 28.84 41.18 C 28.92 39.45 29.02 37.72 29.01 35.99 L 29.00 34.99 L 28.96 34.00 C 28.79 32.44 28.45 29.33 28.28 27.78 C 28.21 27.13 28.09 25.85 28.03 25.21 C 27.97 23.40 27.90 21.59 27.84 19.79 Z" />
</g>
<g id="#290387ff">
<path fill="#290387" opacity="1.00" d=" M 24.01 24.98 C 23.83 22.52 26.44 21.40 27.84 19.79 C 27.90 21.59 27.97 23.40 28.03 25.21 C 26.99 25.31 25.94 25.34 24.90 25.28 L 24.01 24.98 Z" />
</g>
<g id="#28018dff">
<path fill="#28018d" opacity="1.00" d=" M 36.13 19.82 C 37.55 21.08 38.89 22.42 40.18 23.81 C 40.14 25.18 40.11 26.54 40.09 27.91 C 38.46 29.51 37.03 28.64 36.00 26.94 C 36.03 25.16 36.10 21.60 36.13 19.82 Z" />
</g>
<g id="#f3f3f3ff">
<path fill="#f3f3f3" opacity="1.00" d=" M 4.01 24.00 C 4.76 24.00 6.24 24.01 6.99 24.01 C 6.99 25.67 7.01 27.33 7.05 28.99 L 7.05 29.83 C 7.04 30.66 7.01 32.32 7.00 33.15 C 7.00 33.62 7.00 34.54 7.00 35.01 L 6.99 35.98 C 6.97 38.67 6.95 41.35 6.93 44.04 C 6.20 44.03 4.75 44.00 4.02 43.99 C 3.96 37.33 3.99 30.66 4.01 24.00 Z" />
<path fill="#f3f3f3" opacity="1.00" d=" M 56.88 24.13 C 57.66 24.09 59.21 24.01 59.99 23.98 C 60.03 30.65 60.00 37.32 59.98 44.00 C 59.25 44.00 57.77 44.00 57.04 44.00 C 57.03 41.33 57.01 38.65 56.99 35.98 L 56.99 34.99 L 57.00 34.00 C 57.02 32.36 57.02 30.73 56.97 29.09 C 56.95 27.79 56.91 26.49 56.84 25.19 L 56.88 24.13 Z" />
</g>
<g id="#7d4120ff">
<path fill="#7d4120" opacity="1.00" d=" M 40.18 23.81 C 41.07 24.44 41.98 25.03 42.86 25.67 C 42.44 26.80 42.07 27.94 41.75 29.10 C 41.34 28.80 40.50 28.21 40.09 27.91 C 40.11 26.54 40.14 25.18 40.18 23.81 Z" />
</g>
<g id="#71315eff">
<path fill="#71315e" opacity="1.00" d=" M 21.13 25.62 C 25.15 22.99 21.62 32.04 22.24 33.20 C 22.31 30.58 21.94 28.05 21.13 25.62 Z" />
</g>
<g id="#531393ff">
<path fill="#531393" opacity="1.00" d=" M 24.01 24.98 L 24.90 25.28 C 24.79 28.54 23.65 32.95 27.96 32.10 C 28.12 34.04 25.19 32.63 24.04 32.97 C 23.90 30.31 23.89 27.64 24.01 24.98 Z" />
</g>
<g id="#2d00a6ff">
<path fill="#2d00a6" opacity="1.00" d=" M 24.90 25.28 C 25.94 25.34 26.99 25.31 28.03 25.21 C 28.09 25.85 28.21 27.13 28.28 27.78 C 28.20 29.22 28.09 30.66 27.96 32.10 C 23.65 32.95 24.79 28.54 24.90 25.28 Z" />
</g>
<g id="#a26005ff">
<path fill="#a26005" opacity="1.00" d=" M 30.04 25.08 C 31.62 25.76 33.97 25.78 34.19 27.93 C 32.79 27.95 31.38 27.98 29.97 28.00 C 29.99 27.27 30.02 25.81 30.04 25.08 Z" />
</g>
<g id="#3505abff">
<path fill="#3505ab" opacity="1.00" d=" M 17.98 28.06 C 19.04 27.25 20.06 26.40 21.13 25.62 C 21.94 28.05 22.31 30.58 22.24 33.20 C 20.85 33.12 19.47 33.00 18.09 32.86 C 17.96 31.26 17.97 29.66 17.98 28.06 Z" />
</g>
<g id="#3b0b99ff">
<path fill="#3b0b99" opacity="1.00" d=" M 41.75 29.10 C 42.07 27.94 42.44 26.80 42.86 25.67 C 45.58 27.41 48.67 29.22 46.23 33.24 C 43.04 33.65 41.24 32.43 41.75 29.10 Z" />
</g>
<g id="#3605a8ff">
<path fill="#3605a8" opacity="1.00" d=" M 36.00 26.94 C 37.03 28.64 38.46 29.51 40.09 27.91 C 40.05 29.60 40.03 31.29 39.90 32.97 C 38.63 33.05 37.36 33.05 36.09 32.97 C 35.97 31.30 35.98 29.63 35.97 27.96 L 36.00 26.94 Z" />
</g>
<g id="#ac6623ff">
<path fill="#ac6623" opacity="1.00" d=" M 16.09 29.05 C 16.57 28.80 17.51 28.30 17.98 28.06 C 17.97 29.66 17.96 31.26 18.09 32.86 C 19.47 33.00 20.85 33.12 22.24 33.20 L 22.11 34.05 C 18.76 34.06 15.41 34.12 12.06 34.02 L 11.82 33.12 C 13.17 33.08 14.52 32.99 15.86 32.87 C 15.97 31.60 16.05 30.32 16.09 29.05 Z" />
</g>
<g id="#3f2401ff">
<path fill="#3f2401" opacity="1.00" d=" M 29.97 28.00 C 31.38 27.98 32.79 27.95 34.19 27.93 C 34.08 30.85 34.16 33.79 33.85 36.70 C 32.56 36.75 31.26 36.72 29.97 36.86 C 29.94 33.90 29.94 30.95 29.97 28.00 Z" />
</g>
<g id="#5f3900ff">
<path fill="#5f3900" opacity="1.00" d=" M 34.19 27.93 L 35.03 27.99 C 35.20 29.52 35.56 32.58 35.74 34.11 L 35.60 34.86 C 35.53 35.18 35.37 35.83 35.30 36.16 C 35.18 36.83 34.96 38.19 34.84 38.87 C 32.40 39.15 28.76 40.96 29.97 36.86 C 31.26 36.72 32.56 36.75 33.85 36.70 C 34.16 33.79 34.08 30.85 34.19 27.93 Z" />
</g>
<g id="#af6620ff">
<path fill="#af6620" opacity="1.00" d=" M 35.03 27.99 L 35.97 27.96 C 35.98 29.63 35.97 31.30 36.09 32.97 C 37.36 33.05 38.63 33.05 39.90 32.97 C 40.03 31.29 40.05 29.60 40.09 27.91 C 40.50 28.21 41.34 28.80 41.75 29.10 C 41.24 32.43 43.04 33.65 46.23 33.24 L 46.06 34.04 C 42.62 34.07 39.18 34.00 35.74 34.11 C 35.56 32.58 35.20 29.52 35.03 27.99 Z" />
</g>
<g id="#a05c28ff">
<path fill="#a05c28" opacity="1.00" d=" M 51.16 28.25 C 53.09 28.57 55.02 28.89 56.97 29.09 C 57.02 30.73 57.02 32.36 57.00 34.00 C 53.96 34.00 50.94 34.02 47.91 34.02 L 47.96 33.03 C 49.42 32.53 52.98 34.08 53.00 32.04 C 53.82 29.59 51.25 29.93 49.65 29.56 L 49.90 28.73 C 50.22 28.61 50.85 28.37 51.16 28.25 Z" />
</g>
<g id="#3b08b3ff">
<path fill="#3b08b3" opacity="1.00" d=" M 11.82 33.12 C 9.82 30.12 14.23 30.05 16.09 29.05 C 16.05 30.32 15.97 31.60 15.86 32.87 C 14.52 32.99 13.17 33.08 11.82 33.12 Z" />
</g>
<g id="#541591ff">
<path fill="#541591" opacity="1.00" d=" M 47.96 33.03 C 48.18 31.36 47.42 28.74 49.90 28.73 L 49.65 29.56 C 47.75 32.52 50.83 32.06 53.00 32.04 C 52.98 34.08 49.42 32.53 47.96 33.03 Z" />
</g>
<g id="#581c7cff">
<path fill="#581c7c" opacity="1.00" d=" M 7.05 29.83 C 9.65 29.87 11.56 33.35 7.86 33.39 L 7.00 33.15 C 7.01 32.32 7.04 30.66 7.05 29.83 Z" />
</g>
<g id="#2703aaff">
<path fill="#2703aa" opacity="1.00" d=" M 53.00 32.04 C 50.83 32.06 47.75 32.52 49.65 29.56 C 51.25 29.93 53.82 29.59 53.00 32.04 Z" />
</g>
<g id="#443201ff">
<path fill="#443201" opacity="1.00" d=" M 7.00 33.15 L 7.86 33.39 C 9.22 33.84 10.64 33.98 12.06 34.02 C 15.41 34.12 18.76 34.06 22.11 34.05 C 23.82 34.04 27.25 34.01 28.96 34.00 L 29.00 34.99 C 21.66 35.00 14.33 35.00 7.00 35.01 C 7.00 34.54 7.00 33.62 7.00 33.15 Z" />
</g>
<g id="#403100ff">
<path fill="#403100" opacity="1.00" d=" M 35.74 34.11 C 39.18 34.00 42.62 34.07 46.06 34.04 C 46.52 34.04 47.45 34.03 47.91 34.02 C 50.94 34.02 53.96 34.00 57.00 34.00 L 56.99 34.99 C 49.86 34.96 42.73 35.15 35.60 34.86 L 35.74 34.11 Z" />
</g>
<g id="#824948ff">
<path fill="#824948" opacity="1.00" d=" M 7.00 35.01 C 14.33 35.00 21.66 35.00 29.00 34.99 L 29.01 35.99 C 21.99 36.00 14.98 35.99 7.97 36.01 L 6.99 35.98 L 7.00 35.01 Z" />
</g>
<g id="#824947ff">
<path fill="#824947" opacity="1.00" d=" M 35.30 36.16 C 35.37 35.83 35.53 35.18 35.60 34.86 C 42.73 35.15 49.86 34.96 56.99 34.99 L 56.99 35.98 L 56.01 36.00 C 49.60 36.00 43.19 35.93 36.79 36.23 C 36.42 36.21 35.67 36.18 35.30 36.16 Z" />
</g>
<g id="#49079bff">
<path fill="#49079b" opacity="1.00" d=" M 6.99 35.98 L 7.97 36.01 C 8.05 37.75 8.16 39.49 8.27 41.24 C 8.14 41.97 7.88 43.43 7.74 44.16 L 6.93 44.04 C 6.95 41.35 6.97 38.67 6.99 35.98 Z" />
</g>
<g id="#5b10b8ff">
<path fill="#5b10b8" opacity="1.00" d=" M 7.97 36.01 C 14.98 35.99 21.99 36.00 29.01 35.99 C 29.02 37.72 28.92 39.45 28.84 41.18 C 28.41 39.85 28.05 38.50 27.63 37.16 C 21.52 37.03 15.37 36.59 9.28 37.17 C 8.92 38.52 8.63 39.89 8.27 41.24 C 8.16 39.49 8.05 37.75 7.97 36.01 Z" />
</g>
<g id="#4a01c8ff">
<path fill="#4a01c8" opacity="1.00" d=" M 35.30 36.16 C 35.67 36.18 36.42 36.21 36.79 36.23 C 42.71 37.28 48.74 36.63 54.69 37.18 C 55.09 38.54 55.44 39.91 55.87 41.26 C 56.08 42.31 55.92 43.22 55.40 43.98 C 49.28 42.58 42.98 42.98 36.76 43.14 L 36.16 43.13 C 35.90 42.81 35.36 42.17 35.10 41.85 L 34.99 40.91 C 34.95 40.40 34.88 39.38 34.84 38.87 C 34.96 38.19 35.18 36.83 35.30 36.16 Z" />
</g>
<g id="#570fb2ff">
<path fill="#570fb2" opacity="1.00" d=" M 36.79 36.23 C 43.19 35.93 49.60 36.00 56.01 36.00 C 55.97 37.76 55.91 39.51 55.87 41.26 C 55.44 39.91 55.09 38.54 54.69 37.18 C 48.74 36.63 42.71 37.28 36.79 36.23 Z" />
</g>
<g id="#320984ff">
<path fill="#320984" opacity="1.00" d=" M 56.01 36.00 L 56.99 35.98 C 57.01 38.65 57.03 41.33 57.04 44.00 C 57.03 45.31 57.02 46.63 57.01 47.94 L 56.17 48.06 L 55.29 48.16 C 55.14 47.66 54.83 46.67 54.68 46.17 C 49.13 45.91 43.58 45.94 38.03 45.96 C 42.84 43.04 50.55 47.28 55.40 43.98 C 55.92 43.22 56.08 42.31 55.87 41.26 C 55.91 39.51 55.97 37.76 56.01 36.00 Z" />
</g>
<g id="#4d00d0ff">
<path fill="#4d00d0" opacity="1.00" d=" M 9.28 37.17 C 15.37 36.59 21.52 37.03 27.63 37.16 C 28.05 38.50 28.41 39.85 28.84 41.18 C 28.67 41.65 28.33 42.57 28.16 43.04 L 27.58 42.94 C 21.39 42.70 14.69 42.16 8.67 43.83 L 7.74 44.16 C 7.88 43.43 8.14 41.97 8.27 41.24 C 8.63 39.89 8.92 38.52 9.28 37.17 Z" />
</g>
<g id="#c17d05ff">
<path fill="#c17d05" opacity="1.00" d=" M 28.84 41.18 C 30.89 41.05 32.94 40.98 34.99 40.91 L 35.10 41.85 L 35.08 42.92 C 33.01 42.98 30.94 43.02 28.88 43.05 L 28.16 43.04 C 28.33 42.57 28.67 41.65 28.84 41.18 Z" />
</g>
<g id="#5a00edff">
<path fill="#5a00ed" opacity="1.00" d=" M 8.67 43.83 C 14.69 42.16 21.39 42.70 27.58 42.94 L 27.06 43.77 C 20.93 44.06 14.80 43.98 8.67 43.83 Z" />
</g>
<g id="#9c620aff">
<path fill="#9c620a" opacity="1.00" d=" M 35.10 41.85 C 35.36 42.17 35.90 42.81 36.16 43.13 C 35.94 45.40 35.90 47.68 35.92 49.96 L 35.10 50.36 C 35.10 48.50 35.09 44.78 35.08 42.92 L 35.10 41.85 Z" />
</g>
<g id="#7b3d66ff">
<path fill="#7b3d66" opacity="1.00" d=" M 27.58 42.94 L 28.16 43.04 C 27.92 45.34 27.89 47.69 28.08 50.00 C 27.83 49.76 27.32 49.28 27.07 49.04 C 26.99 48.28 26.82 46.74 26.73 45.97 L 26.81 44.88 L 27.06 43.77 L 27.58 42.94 Z" />
</g>
<g id="#714801ff">
<path fill="#714801" opacity="1.00" d=" M 28.16 43.04 L 28.88 43.05 C 28.85 44.73 28.79 48.09 28.76 49.76 L 28.08 50.00 C 27.89 47.69 27.92 45.34 28.16 43.04 Z" />
</g>
<g id="#3c2201ff">
<path fill="#3c2201" opacity="1.00" d=" M 28.88 43.05 C 30.94 43.02 33.01 42.98 35.08 42.92 C 35.09 44.78 35.10 48.50 35.10 50.36 C 33.04 49.80 30.89 49.75 28.76 49.76 C 28.79 48.09 28.85 44.73 28.88 43.05 Z" />
</g>
<g id="#834364ff">
<path fill="#834364" opacity="1.00" d=" M 36.16 43.13 L 36.76 43.14 L 37.12 43.91 C 37.14 44.72 37.17 46.36 37.19 47.17 C 37.03 47.84 36.71 49.17 36.55 49.83 L 35.92 49.96 C 35.90 47.68 35.94 45.40 36.16 43.13 Z" />
</g>
<g id="#5800e5ff">
<path fill="#5800e5" opacity="1.00" d=" M 36.76 43.14 C 42.98 42.98 49.28 42.58 55.40 43.98 C 49.31 43.98 43.21 44.04 37.12 43.91 L 36.76 43.14 Z" />
</g>
<g id="#ecececff">
<path fill="#ececec" opacity="1.00" d=" M 4.02 43.99 C 4.75 44.00 6.20 44.03 6.93 44.04 C 6.95 45.42 6.97 46.79 6.98 48.17 C 6.96 49.78 6.94 51.38 6.96 52.99 C 6.95 54.31 6.99 55.63 7.09 56.95 C 23.69 57.06 40.29 57.04 56.89 56.96 C 56.95 55.57 56.97 54.18 56.95 52.79 C 56.99 51.17 57.01 49.56 57.01 47.94 C 57.02 46.63 57.03 45.31 57.04 44.00 C 57.77 44.00 59.25 44.00 59.98 44.00 C 60.03 49.36 60.01 54.72 60.06 60.09 L 59.23 60.32 C 41.10 59.79 22.95 59.87 4.82 60.21 L 3.95 60.11 C 4.03 54.74 3.98 49.36 4.02 43.99 Z" />
</g>
<g id="#2b0981ff">
<path fill="#2b0981" opacity="1.00" d=" M 6.93 44.04 L 7.74 44.16 C 14.02 45.37 20.45 45.11 26.81 44.88 L 26.73 45.97 C 20.91 47.02 13.85 44.02 8.57 47.07 C 8.32 47.25 7.83 47.59 7.58 47.76 L 6.98 48.17 C 6.97 46.79 6.95 45.42 6.93 44.04 Z" />
</g>
<g id="#3603a1ff">
<path fill="#3603a1" opacity="1.00" d=" M 7.74 44.16 L 8.67 43.83 C 14.80 43.98 20.93 44.06 27.06 43.77 L 26.81 44.88 C 20.45 45.11 14.02 45.37 7.74 44.16 Z" />
</g>
<g id="#3202a0ff">
<path fill="#3202a0" opacity="1.00" d=" M 37.12 43.91 C 43.21 44.04 49.31 43.98 55.40 43.98 C 50.55 47.28 42.84 43.04 38.03 45.96 C 37.82 46.26 37.40 46.87 37.19 47.17 C 37.17 46.36 37.14 44.72 37.12 43.91 Z" />
</g>
<g id="#4315a7ff">
<path fill="#4315a7" opacity="1.00" d=" M 8.57 47.07 C 13.85 44.02 20.91 47.02 26.73 45.97 C 26.82 46.74 26.99 48.28 27.07 49.04 C 21.21 46.66 14.35 49.56 8.57 47.07 Z" />
</g>
<g id="#4618a6ff">
<path fill="#4618a6" opacity="1.00" d=" M 38.03 45.96 C 43.58 45.94 49.13 45.91 54.68 46.17 C 54.83 46.67 55.14 47.66 55.29 48.16 C 53.61 48.68 51.86 48.71 50.14 48.47 C 46.52 49.47 39.76 45.33 37.47 49.66 L 36.55 49.83 C 36.71 49.17 37.03 47.84 37.19 47.17 C 37.40 46.87 37.82 46.26 38.03 45.96 Z" />
</g>
<g id="#5c338fff">
<path fill="#5c338f" opacity="1.00" d=" M 7.58 47.76 C 7.83 47.59 8.32 47.25 8.57 47.07 C 14.35 49.56 21.21 46.66 27.07 49.04 C 27.32 49.28 27.83 49.76 28.08 50.00 L 28.02 50.70 C 27.79 51.04 27.32 51.73 27.09 52.07 L 26.20 51.98 C 26.05 51.55 25.76 50.69 25.61 50.26 C 19.93 48.48 13.92 49.99 8.09 49.81 C 7.96 49.30 7.71 48.27 7.58 47.76 Z" />
</g>
<g id="#543a5cff">
<path fill="#543a5c" opacity="1.00" d=" M 6.98 48.17 L 7.58 47.76 C 7.71 48.27 7.96 49.30 8.09 49.81 C 8.75 52.50 10.71 53.23 13.99 52.02 C 18.06 52.02 22.13 52.01 26.20 51.98 L 27.09 52.07 L 27.13 53.09 C 20.72 53.03 14.31 52.99 7.90 53.01 L 6.96 52.99 C 6.94 51.38 6.96 49.78 6.98 48.17 Z" />
</g>
<g id="#592d99ff">
<path fill="#592d99" opacity="1.00" d=" M 37.47 49.66 C 39.76 45.33 46.52 49.47 50.14 48.47 C 45.92 48.89 41.66 48.96 37.47 49.66 Z" />
</g>
<g id="#64417eff">
<path fill="#64417e" opacity="1.00" d=" M 50.14 48.47 C 51.86 48.71 53.61 48.68 55.29 48.16 L 56.17 48.06 L 56.06 48.93 C 51.69 54.00 43.07 48.65 37.54 51.93 C 36.97 51.30 36.43 50.64 35.92 49.96 L 36.55 49.83 L 37.47 49.66 C 41.66 48.96 45.92 48.89 50.14 48.47 Z" />
</g>
<g id="#3e275dff">
<path fill="#3e275d" opacity="1.00" d=" M 56.17 48.06 L 57.01 47.94 C 57.01 49.56 56.99 51.17 56.95 52.79 C 56.75 53.12 56.36 53.77 56.17 54.10 C 49.40 53.14 41.82 55.89 35.50 52.62 C 32.78 51.86 29.59 51.42 27.13 53.09 L 27.09 52.07 C 27.32 51.73 27.79 51.04 28.02 50.70 C 30.56 51.75 32.92 51.63 35.10 50.36 L 35.92 49.96 C 36.43 50.64 36.97 51.30 37.54 51.93 C 42.30 54.16 48.68 52.58 53.97 52.99 C 56.02 53.02 55.86 50.36 56.06 48.93 L 56.17 48.06 Z" />
</g>
<g id="#654772ff">
<path fill="#654772" opacity="1.00" d=" M 8.09 49.81 C 13.92 49.99 19.93 48.48 25.61 50.26 C 25.76 50.69 26.05 51.55 26.20 51.98 C 22.13 52.01 18.06 52.02 13.99 52.02 C 10.71 53.23 8.75 52.50 8.09 49.81 Z" />
</g>
<g id="#5b4364ff">
<path fill="#5b4364" opacity="1.00" d=" M 37.54 51.93 C 43.07 48.65 51.69 54.00 56.06 48.93 C 55.86 50.36 56.02 53.02 53.97 52.99 C 48.68 52.58 42.30 54.16 37.54 51.93 Z" />
</g>
<g id="#210e2bff">
<path fill="#210e2b" opacity="1.00" d=" M 28.08 50.00 L 28.76 49.76 C 30.89 49.75 33.04 49.80 35.10 50.36 C 32.92 51.63 30.56 51.75 28.02 50.70 L 28.08 50.00 Z" />
</g>
<g id="#2a1f49ff">
<path fill="#2a1f49" opacity="1.00" d=" M 27.13 53.09 C 29.59 51.42 32.78 51.86 35.50 52.62 C 41.82 55.89 49.40 53.14 56.17 54.10 C 56.03 54.54 55.74 55.42 55.60 55.86 C 47.06 56.48 38.53 55.59 30.02 55.16 C 22.77 55.98 15.48 56.28 8.19 55.95 C 8.15 55.47 8.05 54.49 8.00 54.00 C 14.23 53.17 21.23 55.66 27.13 53.09 Z" />
</g>
<g id="#210e29ff">
<path fill="#210e29" opacity="1.00" d=" M 6.96 52.99 L 7.90 53.01 L 8.00 54.00 C 8.05 54.49 8.15 55.47 8.19 55.95 C 15.48 56.28 22.77 55.98 30.02 55.16 C 38.53 55.59 47.06 56.48 55.60 55.86 C 55.74 55.42 56.03 54.54 56.17 54.10 C 56.36 53.77 56.75 53.12 56.95 52.79 C 56.97 54.18 56.95 55.57 56.89 56.96 C 40.29 57.04 23.69 57.06 7.09 56.95 C 6.99 55.63 6.95 54.31 6.96 52.99 Z" />
</g>
<g id="#3f2e5bff">
<path fill="#3f2e5b" opacity="1.00" d=" M 7.90 53.01 C 14.31 52.99 20.72 53.03 27.13 53.09 C 21.23 55.66 14.23 53.17 8.00 54.00 L 7.90 53.01 Z" />
</g>
<g id="#00000081">
<path fill="#000000" opacity="0.51" d=" M 3.95 60.11 L 4.82 60.21 C 18.13 61.88 31.61 60.60 45.00 61.03 C 49.71 60.71 54.64 61.80 59.23 60.32 L 60.06 60.09 C 59.79 60.56 59.26 61.52 58.99 62.00 C 40.99 62.00 23.00 62.00 5.00 62.00 L 4.03 61.96 C 4.01 61.50 3.97 60.58 3.95 60.11 Z" />
</g>
<g id="#000000ad">
<path fill="#000000" opacity="0.68" d=" M 4.82 60.21 C 22.95 59.87 41.10 59.79 59.23 60.32 C 54.64 61.80 49.71 60.71 45.00 61.03 C 31.61 60.60 18.13 61.88 4.82 60.21 Z" />
</g>
<g id="#00000055">
<path fill="#000000" opacity="0.33" d=" M 5.00 62.00 C 23.00 62.00 40.99 62.00 58.99 62.00 L 59.00 62.98 C 41.01 62.98 23.01 63.09 5.02 62.95 L 5.00 62.00 Z" />
</g>
</svg>
