<?xml version="1.0" encoding="UTF-8" ?>
<!DOCTYPE svg PUBLIC "-//W3C//DTD SVG 1.1//EN" "http://www.w3.org/Graphics/SVG/1.1/DTD/svg11.dtd">
<svg width="64pt" height="64pt" viewBox="0 0 64 64" version="1.1" xmlns="http://www.w3.org/2000/svg">
<g id="#0000001e">
<path fill="#000000" opacity="0.12" d=" M 4.41 2.22 C 22.75 1.84 41.14 1.81 59.49 2.25 L 59.94 2.98 C 41.30 2.97 22.65 3.07 4.01 2.95 L 4.41 2.22 Z" />
</g>
<g id="#0000005c">
<path fill="#000000" opacity="0.36" d=" M 4.01 2.95 C 22.65 3.07 41.30 2.97 59.94 2.98 L 60.39 3.70 C 41.47 4.04 22.50 4.39 3.59 3.71 L 4.01 2.95 Z" />
</g>
<g id="#00000075">
<path fill="#000000" opacity="0.46" d=" M 2.91 4.93 C 3.08 4.62 3.42 4.01 3.59 3.71 C 3.87 8.14 3.96 12.57 4.03 17.00 C 4.01 24.00 3.95 31.00 4.02 38.00 C 4.00 45.40 4.08 52.80 3.69 60.19 L 2.73 60.25 C 3.23 41.82 3.00 23.37 2.91 4.93 Z" />
<path fill="#000000" opacity="0.46" d=" M 60.39 3.70 C 60.57 4.01 60.94 4.61 61.12 4.91 C 61.09 23.36 60.65 41.83 61.25 60.28 L 60.30 60.17 C 59.92 52.78 60.01 45.39 59.98 38.00 C 60.01 31.00 60.04 24.00 59.97 17.00 C 60.03 12.57 60.14 8.13 60.39 3.70 Z" />
</g>
<g id="#fefefeff">
<path fill="#fefefe" opacity="1.00" d=" M 3.59 3.71 C 22.50 4.39 41.47 4.04 60.39 3.70 C 60.14 8.13 60.03 12.57 59.97 17.00 C 59.24 17.00 57.77 17.00 57.03 17.00 C 56.99 13.68 57.14 10.36 56.90 7.05 C 40.30 6.95 23.69 6.93 7.09 7.06 C 6.99 10.37 6.99 13.69 6.97 17.00 C 6.24 17.00 4.77 17.00 4.03 17.00 C 3.96 12.57 3.87 8.14 3.59 3.71 Z" />
</g>
<g id="#0000002b">
<path fill="#000000" opacity="0.17" d=" M 1.98 25.00 C 2.31 18.35 1.17 11.39 2.91 4.93 C 3.00 23.37 3.23 41.82 2.73 60.25 C 1.15 48.58 2.37 36.74 1.98 25.00 Z" />
<path fill="#000000" opacity="0.17" d=" M 61.12 4.91 C 62.70 23.11 62.41 41.95 61.25 60.28 C 60.65 41.83 61.09 23.36 61.12 4.91 Z" />
<path fill="#000000" opacity="0.17" d=" M 2.73 60.25 L 3.69 60.19 C 3.98 60.68 4.57 61.65 4.86 62.14 C 19.17 64.21 35.08 62.37 50.00 63.04 C 52.33 61.64 57.09 64.45 59.15 62.17 C 59.43 61.67 60.01 60.67 60.30 60.17 L 61.25 60.28 C 60.97 61.54 60.56 62.78 60.11 64.00 L 3.89 64.00 C 3.43 62.77 3.02 61.53 2.73 60.25 Z" />
</g>
<g id="#cb2f05ff">
<path fill="#cb2f05" opacity="1.00" d=" M 7.09 7.06 C 23.69 6.93 40.30 6.95 56.90 7.05 C 57.14 10.36 56.99 13.68 57.03 17.00 C 57.00 18.68 56.99 20.35 56.96 22.03 L 55.99 21.86 C 55.99 20.13 56.00 16.68 56.00 14.96 C 55.99 14.51 55.97 13.63 55.96 13.19 C 55.75 11.47 56.55 9.21 54.75 8.13 C 39.57 7.90 24.37 7.88 9.20 8.12 C 7.49 9.26 8.25 11.47 8.03 13.19 C 8.02 13.63 8.01 14.51 8.00 14.95 C 8.00 16.68 8.01 20.13 8.02 21.86 L 7.04 22.03 C 7.01 20.35 7.00 18.68 6.97 17.00 C 6.99 13.69 6.99 10.37 7.09 7.06 Z" />
</g>
<g id="#ef470aff">
<path fill="#ef470a" opacity="1.00" d=" M 9.20 8.12 C 24.37 7.88 39.57 7.90 54.75 8.13 C 56.55 9.21 55.75 11.47 55.96 13.19 C 54.48 10.65 53.83 6.18 49.01 8.99 C 36.08 9.18 23.11 8.64 10.19 9.14 C 9.32 10.41 8.73 11.83 8.03 13.19 C 8.25 11.47 7.49 9.26 9.20 8.12 Z" />
</g>
<g id="#ff560dff">
<path fill="#ff560d" opacity="1.00" d=" M 10.19 9.14 C 23.11 8.64 36.08 9.18 49.01 8.99 C 53.83 6.18 54.48 10.65 55.96 13.19 C 55.97 13.63 55.99 14.51 56.00 14.96 C 51.86 11.88 50.41 20.28 45.98 19.06 C 46.45 16.95 47.23 14.93 47.84 12.87 C 45.26 12.44 43.73 14.52 42.80 16.60 C 41.80 18.00 41.31 20.34 39.15 20.12 C 39.05 18.54 38.85 15.37 38.75 13.79 C 37.33 15.86 35.98 17.97 34.69 20.12 C 31.82 18.89 34.94 13.01 31.22 14.08 C 30.89 15.57 30.23 18.55 29.90 20.04 C 28.14 19.53 27.86 17.23 26.99 15.83 C 27.08 14.07 26.55 11.64 24.27 11.93 C 24.54 14.56 23.79 16.74 22.02 18.45 C 21.81 18.03 21.39 17.20 21.17 16.78 C 20.38 14.45 18.66 12.28 15.91 12.97 C 16.39 14.71 17.20 16.33 17.86 18.00 C 16.58 18.03 15.31 18.02 14.03 17.98 C 12.53 16.12 10.69 12.68 8.00 14.95 C 8.01 14.51 8.02 13.63 8.03 13.19 C 8.73 11.83 9.32 10.41 10.19 9.14 Z" />
</g>
<g id="#ff6910ff">
<path fill="#ff6910" opacity="1.00" d=" M 24.27 11.93 C 26.55 11.64 27.08 14.07 26.99 15.83 C 22.57 15.64 29.04 23.00 23.67 22.39 C 23.37 22.01 22.76 21.26 22.46 20.88 C 22.31 20.07 22.16 19.26 22.02 18.45 C 23.79 16.74 24.54 14.56 24.27 11.93 Z" />
</g>
<g id="#ff6b11ff">
<path fill="#ff6b11" opacity="1.00" d=" M 15.91 12.97 C 18.66 12.28 20.38 14.45 21.17 16.78 C 15.91 16.61 23.80 22.61 19.15 24.20 C 18.48 23.35 17.79 22.52 17.07 21.71 C 16.03 20.49 14.99 19.26 14.03 17.98 C 15.31 18.02 16.58 18.03 17.86 18.00 C 17.20 16.33 16.39 14.71 15.91 12.97 Z" />
</g>
<g id="#fe7012ff">
<path fill="#fe7012" opacity="1.00" d=" M 42.80 16.60 C 43.73 14.52 45.26 12.44 47.84 12.87 C 47.23 14.93 46.45 16.95 45.98 19.06 C 50.41 20.28 51.86 11.88 56.00 14.96 C 56.00 16.68 55.99 20.13 55.99 21.86 L 55.89 22.74 C 55.48 22.99 54.64 23.49 54.22 23.74 C 53.68 24.11 52.61 24.83 52.07 25.20 C 50.62 24.97 49.19 24.70 47.78 24.34 C 49.48 22.83 51.88 21.52 52.17 19.03 C 47.41 19.78 45.29 25.00 40.91 26.09 C 41.18 24.15 42.34 22.55 43.35 20.93 C 44.53 19.39 46.17 16.36 42.80 16.60 Z" />
</g>
<g id="#fc6e11ff">
<path fill="#fc6e11" opacity="1.00" d=" M 8.00 14.95 C 10.69 12.68 12.53 16.12 14.03 17.98 C 12.64 17.99 11.25 18.03 9.86 18.10 C 11.26 19.93 12.94 21.55 14.81 22.89 C 15.21 23.20 15.99 23.81 16.38 24.12 C 14.96 24.69 13.45 24.99 11.94 25.22 C 11.40 24.85 10.32 24.12 9.77 23.75 C 9.36 23.50 8.52 22.99 8.11 22.74 L 8.02 21.86 C 8.01 20.13 8.00 16.68 8.00 14.95 Z" />
</g>
<g id="#ff7d14ff">
<path fill="#ff7d14" opacity="1.00" d=" M 31.22 14.08 C 34.94 13.01 31.82 18.89 34.69 20.12 C 35.98 17.97 37.33 15.86 38.75 13.79 C 38.85 15.37 39.05 18.54 39.15 20.12 C 41.31 20.34 41.80 18.00 42.80 16.60 C 46.17 16.36 44.53 19.39 43.35 20.93 C 43.03 20.74 42.38 20.35 42.06 20.16 C 39.97 22.77 38.72 26.11 36.02 28.19 C 36.09 25.35 36.94 22.60 36.95 19.76 C 35.34 22.42 34.86 25.60 33.36 28.33 C 30.97 27.76 35.41 19.71 31.11 20.99 C 31.02 22.80 30.86 26.42 30.77 28.23 C 28.99 25.65 28.70 22.39 27.05 19.76 C 27.06 22.60 27.91 25.36 27.97 28.20 C 26.10 26.63 24.95 24.43 23.67 22.39 C 29.04 23.00 22.57 15.64 26.99 15.83 C 27.86 17.23 28.14 19.53 29.90 20.04 C 30.23 18.55 30.89 15.57 31.22 14.08 Z" />
</g>
<g id="#f6f6f6ff">
<path fill="#f6f6f6" opacity="1.00" d=" M 4.03 17.00 C 4.77 17.00 6.24 17.00 6.97 17.00 C 7.00 18.68 7.01 20.35 7.04 22.03 C 7.00 24.69 6.99 27.34 7.00 30.00 C 7.00 32.67 6.99 35.33 6.98 38.00 C 6.24 38.00 4.76 38.00 4.02 38.00 C 3.95 31.00 4.01 24.00 4.03 17.00 Z" />
<path fill="#f6f6f6" opacity="1.00" d=" M 57.03 17.00 C 57.77 17.00 59.24 17.00 59.97 17.00 C 60.04 24.00 60.01 31.00 59.98 38.00 C 59.24 38.00 57.77 38.00 57.03 38.00 C 57.03 35.33 57.02 32.67 57.00 30.00 C 57.01 27.35 56.99 24.69 56.96 22.03 C 56.99 20.35 57.00 18.68 57.03 17.00 Z" />
</g>
<g id="#ff8817ff">
<path fill="#ff8817" opacity="1.00" d=" M 19.15 24.20 C 23.80 22.61 15.91 16.61 21.17 16.78 C 21.39 17.20 21.81 18.03 22.02 18.45 C 22.16 19.26 22.31 20.07 22.46 20.88 C 21.93 23.31 26.84 28.13 22.86 28.32 C 21.54 27.03 20.25 25.70 19.15 24.20 Z" />
</g>
<g id="#ff8c18ff">
<path fill="#ff8c18" opacity="1.00" d=" M 9.86 18.10 C 11.25 18.03 12.64 17.99 14.03 17.98 C 14.99 19.26 16.03 20.49 17.07 21.71 C 16.51 22.00 15.38 22.60 14.81 22.89 C 12.94 21.55 11.26 19.93 9.86 18.10 Z" />
</g>
<g id="#ffa31cff">
<path fill="#ffa31c" opacity="1.00" d=" M 40.91 26.09 C 45.29 25.00 47.41 19.78 52.17 19.03 C 51.88 21.52 49.48 22.83 47.78 24.34 C 45.92 25.59 44.31 27.10 42.97 28.87 C 43.75 28.95 45.33 29.12 46.12 29.20 C 44.15 30.42 42.15 31.57 40.22 32.85 C 36.30 28.41 30.16 28.25 25.36 31.13 C 24.55 30.18 23.71 29.25 22.86 28.32 C 26.84 28.13 21.93 23.31 22.46 20.88 C 22.76 21.26 23.37 22.01 23.67 22.39 C 24.95 24.43 26.10 26.63 27.97 28.20 C 27.91 25.36 27.06 22.60 27.05 19.76 C 28.70 22.39 28.99 25.65 30.77 28.23 C 30.86 26.42 31.02 22.80 31.11 20.99 C 35.41 19.71 30.97 27.76 33.36 28.33 C 34.86 25.60 35.34 22.42 36.95 19.76 C 36.94 22.60 36.09 25.35 36.02 28.19 C 38.72 26.11 39.97 22.77 42.06 20.16 C 42.38 20.35 43.03 20.74 43.35 20.93 C 42.34 22.55 41.18 24.15 40.91 26.09 Z" />
</g>
<g id="#cb6f11ff">
<path fill="#cb6f11" opacity="1.00" d=" M 7.04 22.03 L 8.02 21.86 L 8.11 22.74 C 8.07 24.55 8.00 28.17 7.96 29.98 L 7.00 30.00 C 6.99 27.34 7.00 24.69 7.04 22.03 Z" />
<path fill="#cb6f11" opacity="1.00" d=" M 55.99 21.86 L 56.96 22.03 C 56.99 24.69 57.01 27.35 57.00 30.00 L 56.04 29.98 C 56.01 28.17 55.93 24.55 55.89 22.74 L 55.99 21.86 Z" />
</g>
<g id="#febb21ff">
<path fill="#febb21" opacity="1.00" d=" M 14.81 22.89 C 15.38 22.60 16.51 22.00 17.07 21.71 C 17.79 22.52 18.48 23.35 19.15 24.20 C 20.25 25.70 21.54 27.03 22.86 28.32 C 23.71 29.25 24.55 30.18 25.36 31.13 C 24.59 32.43 23.71 33.66 22.94 34.96 C 22.48 35.80 22.04 36.64 21.62 37.50 C 17.12 37.33 12.63 37.03 8.13 36.96 C 8.37 34.94 8.23 32.92 8.04 30.91 L 8.82 31.12 C 10.48 35.96 17.19 34.34 21.19 35.90 C 20.11 34.47 18.43 33.87 16.83 33.25 C 17.05 32.76 17.49 31.78 17.71 31.28 C 15.09 29.93 12.53 28.45 9.96 27.02 C 8.29 26.56 9.44 24.75 9.77 23.75 C 10.32 24.12 11.40 24.85 11.94 25.22 C 15.56 27.31 18.73 30.95 23.12 31.03 C 21.08 28.55 18.92 26.12 16.38 24.12 C 15.99 23.81 15.21 23.20 14.81 22.89 Z" />
</g>
<g id="#fb9f1bff">
<path fill="#fb9f1b" opacity="1.00" d=" M 8.11 22.74 C 8.52 22.99 9.36 23.50 9.77 23.75 C 9.44 24.75 8.29 26.56 9.96 27.02 C 12.53 28.45 15.09 29.93 17.71 31.28 C 17.49 31.78 17.05 32.76 16.83 33.25 C 14.16 32.54 11.53 31.67 8.82 31.12 L 8.04 30.91 L 7.96 29.98 C 8.00 28.17 8.07 24.55 8.11 22.74 Z" />
</g>
<g id="#fba01bff">
<path fill="#fba01b" opacity="1.00" d=" M 54.22 23.74 C 54.64 23.49 55.48 22.99 55.89 22.74 C 55.93 24.55 56.01 28.17 56.04 29.98 L 55.96 30.91 L 55.18 31.12 C 52.48 31.66 49.87 32.55 47.21 33.26 C 46.36 33.16 44.66 32.94 43.82 32.83 C 47.34 30.53 51.13 28.68 54.84 26.70 C 54.93 25.67 54.72 24.68 54.22 23.74 Z" />
</g>
<g id="#ff9319ff">
<path fill="#ff9319" opacity="1.00" d=" M 16.38 24.12 C 18.92 26.12 21.08 28.55 23.12 31.03 C 18.73 30.95 15.56 27.31 11.94 25.22 C 13.45 24.99 14.96 24.69 16.38 24.12 Z" />
</g>
<g id="#ff8f18ff">
<path fill="#ff8f18" opacity="1.00" d=" M 42.97 28.87 C 44.31 27.10 45.92 25.59 47.78 24.34 C 49.19 24.70 50.62 24.97 52.07 25.20 C 50.12 26.59 48.16 27.96 46.12 29.20 C 45.33 29.12 43.75 28.95 42.97 28.87 Z" />
</g>
<g id="#febf22ff">
<path fill="#febf22" opacity="1.00" d=" M 52.07 25.20 C 52.61 24.83 53.68 24.11 54.22 23.74 C 54.72 24.68 54.93 25.67 54.84 26.70 C 51.13 28.68 47.34 30.53 43.82 32.83 C 44.66 32.94 46.36 33.16 47.21 33.26 C 45.57 33.85 43.87 34.43 42.82 35.91 C 46.81 34.33 53.53 35.96 55.18 31.12 L 55.96 30.91 C 55.77 32.92 55.63 34.94 55.87 36.96 C 51.87 36.72 47.90 37.03 44.00 37.86 C 42.40 38.48 41.80 36.96 41.21 35.85 C 40.88 34.85 40.55 33.85 40.22 32.85 C 42.15 31.57 44.15 30.42 46.12 29.20 C 48.16 27.96 50.12 26.59 52.07 25.20 Z" />
</g>
<g id="#fefc32ff">
<path fill="#fefc32" opacity="1.00" d=" M 25.36 31.13 C 30.16 28.25 36.30 28.41 40.22 32.85 C 40.55 33.85 40.88 34.85 41.21 35.85 C 41.06 37.69 40.89 39.54 40.41 41.33 C 39.84 41.26 38.70 41.10 38.13 41.03 C 38.72 37.38 37.70 34.19 34.69 32.18 C 29.04 29.56 24.31 35.97 25.88 41.02 C 25.33 41.09 24.23 41.21 23.68 41.27 C 23.49 39.69 23.13 36.54 22.94 34.96 C 23.71 33.66 24.59 32.43 25.36 31.13 Z" />
</g>
<g id="#cb961bff">
<path fill="#cb961b" opacity="1.00" d=" M 7.00 30.00 L 7.96 29.98 L 8.04 30.91 C 8.23 32.92 8.37 34.94 8.13 36.96 C 8.03 38.38 7.95 39.88 8.67 41.17 L 9.00 42.00 L 8.02 42.01 L 7.03 41.99 C 7.01 40.66 6.99 39.33 6.98 38.00 C 6.99 35.33 7.00 32.67 7.00 30.00 Z" />
<path fill="#cb961b" opacity="1.00" d=" M 56.04 29.98 L 57.00 30.00 C 57.02 32.67 57.03 35.33 57.03 38.00 C 57.01 39.33 56.99 40.66 56.98 42.00 L 55.99 42.02 L 55.00 42.01 L 55.33 41.19 C 56.05 39.89 55.97 38.39 55.87 36.96 C 55.63 34.94 55.77 32.92 55.96 30.91 L 56.04 29.98 Z" />
</g>
<g id="#ffd626ff">
<path fill="#ffd626" opacity="1.00" d=" M 8.82 31.12 C 11.53 31.67 14.16 32.54 16.83 33.25 C 18.43 33.87 20.11 34.47 21.19 35.90 C 17.19 34.34 10.48 35.96 8.82 31.12 Z" />
<path fill="#ffd626" opacity="1.00" d=" M 47.21 33.26 C 49.87 32.55 52.48 31.66 55.18 31.12 C 53.53 35.96 46.81 34.33 42.82 35.91 C 43.87 34.43 45.57 33.85 47.21 33.26 Z" />
</g>
<g id="#fefe4aff">
<path fill="#fefe4a" opacity="1.00" d=" M 25.88 41.02 C 24.31 35.97 29.04 29.56 34.69 32.18 C 37.70 34.19 38.72 37.38 38.13 41.03 C 37.61 41.01 36.58 40.98 36.06 40.96 C 37.16 37.07 35.82 33.83 32.00 33.02 C 28.18 33.83 26.83 37.07 27.94 40.97 C 27.43 40.98 26.39 41.01 25.88 41.02 Z" />
</g>
<g id="#fefe6eff">
<path fill="#fefe6e" opacity="1.00" d=" M 27.94 40.97 C 26.83 37.07 28.18 33.83 32.00 33.02 C 35.82 33.83 37.16 37.07 36.06 40.96 C 33.35 40.97 30.65 40.97 27.94 40.97 Z" />
</g>
<g id="#fed927ff">
<path fill="#fed927" opacity="1.00" d=" M 21.62 37.50 C 22.04 36.64 22.48 35.80 22.94 34.96 C 23.13 36.54 23.49 39.69 23.68 41.27 L 23.78 42.18 C 23.13 42.08 21.84 41.87 21.19 41.76 C 17.07 40.88 12.86 41.05 8.67 41.17 C 7.95 39.88 8.03 38.38 8.13 36.96 C 12.63 37.03 17.12 37.33 21.62 37.50 Z" />
</g>
<g id="#fdda27ff">
<path fill="#fdda27" opacity="1.00" d=" M 41.21 35.85 C 41.80 36.96 42.40 38.48 44.00 37.86 C 47.90 37.03 51.87 36.72 55.87 36.96 C 55.97 38.39 56.05 39.89 55.33 41.19 C 51.17 41.24 46.88 40.67 42.78 41.66 C 42.14 41.81 40.85 42.09 40.21 42.24 L 40.41 41.33 C 40.89 39.54 41.06 37.69 41.21 35.85 Z" />
</g>
<g id="#ecececff">
<path fill="#ececec" opacity="1.00" d=" M 4.02 38.00 C 4.76 38.00 6.24 38.00 6.98 38.00 C 6.99 39.33 7.01 40.66 7.03 41.99 C 6.99 44.65 6.97 47.32 6.97 49.99 C 6.99 51.73 7.03 55.21 7.05 56.95 C 23.68 57.04 40.31 57.07 56.93 56.94 C 56.96 55.21 57.00 51.75 57.03 50.02 C 57.03 47.34 57.01 44.67 56.98 42.00 C 56.99 40.66 57.01 39.33 57.03 38.00 C 57.77 38.00 59.24 38.00 59.98 38.00 C 60.01 45.39 59.92 52.78 60.30 60.17 L 59.35 60.37 C 41.14 59.78 22.89 59.80 4.68 60.27 L 3.69 60.19 C 4.08 52.80 4.00 45.40 4.02 38.00 Z" />
</g>
<g id="#f59b2fff">
<path fill="#f59b2f" opacity="1.00" d=" M 8.67 41.17 C 12.86 41.05 17.07 40.88 21.19 41.76 C 20.59 41.83 19.39 41.96 18.78 42.03 C 17.47 42.03 16.15 42.04 14.84 42.05 C 12.89 42.02 10.95 42.02 9.00 42.00 L 8.67 41.17 Z" />
<path fill="#f59b2f" opacity="1.00" d=" M 42.78 41.66 C 46.88 40.67 51.17 41.24 55.33 41.19 L 55.00 42.01 C 52.99 42.03 50.98 42.04 48.97 42.06 C 47.26 41.99 45.56 41.89 43.85 41.77 L 42.78 41.66 Z" />
</g>
<g id="#ffe242ff">
<path fill="#ffe242" opacity="1.00" d=" M 23.68 41.27 C 24.23 41.21 25.33 41.09 25.88 41.02 C 26.39 41.01 27.43 40.98 27.94 40.97 C 30.65 40.97 33.35 40.97 36.06 40.96 C 36.58 40.98 37.61 41.01 38.13 41.03 C 38.70 41.10 39.84 41.26 40.41 41.33 L 40.21 42.24 C 34.73 42.10 29.25 41.84 23.78 42.18 L 23.68 41.27 Z" />
</g>
<g id="#681c25ff">
<path fill="#681c25" opacity="1.00" d=" M 7.03 41.99 L 8.02 42.01 C 8.04 42.44 8.08 43.32 8.11 43.75 C 8.10 44.27 8.08 45.32 8.07 45.85 C 8.04 46.66 7.99 48.27 7.97 49.08 L 7.92 50.05 L 6.97 49.99 C 6.97 47.32 6.99 44.65 7.03 41.99 Z" />
<path fill="#681c25" opacity="1.00" d=" M 55.99 42.02 L 56.98 42.00 C 57.01 44.67 57.03 47.34 57.03 50.02 L 56.04 49.97 L 55.99 48.89 C 55.98 47.23 55.96 45.56 55.95 43.90 C 55.96 43.43 55.98 42.49 55.99 42.02 Z" />
</g>
<g id="#ce4f41ff">
<path fill="#ce4f41" opacity="1.00" d=" M 8.02 42.01 L 9.00 42.00 C 10.95 42.02 12.89 42.02 14.84 42.05 C 15.14 43.38 15.49 44.69 15.93 45.97 C 14.56 46.03 13.19 46.10 11.82 46.17 C 10.64 45.27 9.42 44.43 8.11 43.75 C 8.08 43.32 8.04 42.44 8.02 42.01 Z" />
</g>
<g id="#ed6948ff">
<path fill="#ed6948" opacity="1.00" d=" M 14.84 42.05 C 16.15 42.04 17.47 42.03 18.78 42.03 C 19.29 43.42 20.56 44.13 21.69 44.93 C 20.94 45.87 20.27 46.87 19.66 47.92 C 18.43 47.25 17.18 46.61 15.93 45.97 C 15.49 44.69 15.14 43.38 14.84 42.05 Z" />
</g>
<g id="#ff944fff">
<path fill="#ff944f" opacity="1.00" d=" M 18.78 42.03 C 19.39 41.96 20.59 41.83 21.19 41.76 C 21.84 41.87 23.13 42.08 23.78 42.18 C 28.55 45.94 35.46 46.06 40.21 42.24 C 40.85 42.09 42.14 41.81 42.78 41.66 L 43.85 41.77 C 43.20 42.78 42.55 43.80 42.09 44.91 C 36.04 49.02 27.79 48.89 21.69 44.93 C 20.56 44.13 19.29 43.42 18.78 42.03 Z" />
</g>
<g id="#ffc13dff">
<path fill="#ffc13d" opacity="1.00" d=" M 23.78 42.18 C 29.25 41.84 34.73 42.10 40.21 42.24 C 35.46 46.06 28.55 45.94 23.78 42.18 Z" />
</g>
<g id="#f16d46ff">
<path fill="#f16d46" opacity="1.00" d=" M 43.85 41.77 C 45.56 41.89 47.26 41.99 48.97 42.06 C 49.04 42.56 49.20 43.55 49.27 44.05 C 47.96 45.48 46.25 46.42 44.56 47.32 C 43.75 46.49 42.93 45.69 42.09 44.91 C 42.55 43.80 43.20 42.78 43.85 41.77 Z" />
</g>
<g id="#c94c41ff">
<path fill="#c94c41" opacity="1.00" d=" M 48.97 42.06 C 50.98 42.04 52.99 42.03 55.00 42.01 L 55.99 42.02 C 55.98 42.49 55.96 43.43 55.95 43.90 C 54.67 44.93 53.50 46.15 52.04 46.92 C 51.08 46.00 50.15 45.05 49.27 44.05 C 49.20 43.55 49.04 42.56 48.97 42.06 Z" />
</g>
<g id="#9c4858ff">
<path fill="#9c4858" opacity="1.00" d=" M 8.11 43.75 C 9.42 44.43 10.64 45.27 11.82 46.17 C 13.83 48.08 16.59 48.76 19.02 49.98 L 18.99 50.95 C 18.46 51.02 17.40 51.16 16.87 51.23 L 16.12 50.97 C 13.57 48.80 9.48 49.39 8.07 45.85 C 8.08 45.32 8.10 44.27 8.11 43.75 Z" />
</g>
<g id="#c85859ff">
<path fill="#c85859" opacity="1.00" d=" M 49.27 44.05 C 50.15 45.05 51.08 46.00 52.04 46.92 C 49.72 48.03 47.29 48.86 44.97 49.94 C 43.63 49.98 42.29 50.03 40.95 50.10 C 41.94 49.35 42.97 48.64 43.92 47.83 L 44.56 47.32 C 46.25 46.42 47.96 45.48 49.27 44.05 Z" />
</g>
<g id="#91465bff">
<path fill="#91465b" opacity="1.00" d=" M 52.04 46.92 C 53.50 46.15 54.67 44.93 55.95 43.90 C 55.96 45.56 55.98 47.23 55.99 48.89 C 53.00 49.41 50.07 50.19 47.21 51.22 C 46.66 51.15 45.56 51.01 45.01 50.94 L 44.97 49.94 C 47.29 48.86 49.72 48.03 52.04 46.92 Z" />
</g>
<g id="#f3795eff">
<path fill="#f3795e" opacity="1.00" d=" M 19.66 47.92 C 20.27 46.87 20.94 45.87 21.69 44.93 C 27.79 48.89 36.04 49.02 42.09 44.91 C 42.93 45.69 43.75 46.49 44.56 47.32 L 43.92 47.83 C 38.77 48.69 33.62 50.81 28.33 49.59 C 25.47 48.89 22.62 48.06 19.66 47.92 Z" />
</g>
<g id="#76415fff">
<path fill="#76415f" opacity="1.00" d=" M 8.07 45.85 C 9.48 49.39 13.57 48.80 16.12 50.97 C 13.35 50.62 10.60 50.02 7.97 49.08 C 7.99 48.27 8.04 46.66 8.07 45.85 Z" />
</g>
<g id="#c4575bff">
<path fill="#c4575b" opacity="1.00" d=" M 11.82 46.17 C 13.19 46.10 14.56 46.03 15.93 45.97 C 17.18 46.61 18.43 47.25 19.66 47.92 C 20.79 48.62 21.95 49.28 23.09 49.97 C 21.73 49.97 20.38 49.97 19.02 49.98 C 16.59 48.76 13.83 48.08 11.82 46.17 Z" />
</g>
<g id="#db6668ff">
<path fill="#db6668" opacity="1.00" d=" M 19.66 47.92 C 22.62 48.06 25.47 48.89 28.33 49.59 C 33.62 50.81 38.77 48.69 43.92 47.83 C 42.97 48.64 41.94 49.35 40.95 50.10 C 35.18 50.85 28.63 52.31 23.09 49.97 C 21.95 49.28 20.79 48.62 19.66 47.92 Z" />
</g>
<g id="#5a4375ff">
<path fill="#5a4375" opacity="1.00" d=" M 7.97 49.08 C 10.60 50.02 13.35 50.62 16.12 50.97 L 16.87 51.23 C 26.61 54.81 37.51 55.04 47.21 51.22 C 50.07 50.19 53.00 49.41 55.99 48.89 L 56.04 49.97 L 56.03 51.01 C 40.53 56.20 23.37 56.74 7.95 51.01 L 7.92 50.05 L 7.97 49.08 Z" />
</g>
<g id="#0c155bff">
<path fill="#0c155b" opacity="1.00" d=" M 6.97 49.99 L 7.92 50.05 L 7.95 51.01 C 7.97 51.73 8.00 53.17 8.02 53.89 C 8.04 54.41 8.09 55.44 8.11 55.95 C 12.48 56.04 16.85 55.98 21.21 55.84 C 28.39 56.06 35.57 56.10 42.74 55.72 C 47.13 55.82 51.53 56.16 55.92 55.95 C 55.94 55.45 55.98 54.44 56.00 53.93 C 56.01 53.20 56.02 51.74 56.03 51.01 L 56.04 49.97 L 57.03 50.02 C 57.00 51.75 56.96 55.21 56.93 56.94 C 40.31 57.07 23.68 57.04 7.05 56.95 C 7.03 55.21 6.99 51.73 6.97 49.99 Z" />
</g>
<g id="#af5771ff">
<path fill="#af5771" opacity="1.00" d=" M 19.02 49.98 C 20.38 49.97 21.73 49.97 23.09 49.97 C 28.63 52.31 35.18 50.85 40.95 50.10 C 42.29 50.03 43.63 49.98 44.97 49.94 L 45.01 50.94 C 36.42 53.27 27.59 53.25 18.99 50.95 L 19.02 49.98 Z" />
</g>
<g id="#3b3c7aff">
<path fill="#3b3c7a" opacity="1.00" d=" M 7.95 51.01 C 23.37 56.74 40.53 56.20 56.03 51.01 C 56.02 51.74 56.01 53.20 56.00 53.93 C 51.57 54.42 47.07 54.60 42.74 55.72 C 35.57 56.10 28.39 56.06 21.21 55.84 C 16.78 55.39 12.42 54.51 8.02 53.89 C 8.00 53.17 7.97 51.73 7.95 51.01 Z" />
</g>
<g id="#7f4c77ff">
<path fill="#7f4c77" opacity="1.00" d=" M 16.87 51.23 C 17.40 51.16 18.46 51.02 18.99 50.95 C 27.59 53.25 36.42 53.27 45.01 50.94 C 45.56 51.01 46.66 51.15 47.21 51.22 C 37.51 55.04 26.61 54.81 16.87 51.23 Z" />
</g>
<g id="#25367aff">
<path fill="#25367a" opacity="1.00" d=" M 8.02 53.89 C 12.42 54.51 16.78 55.39 21.21 55.84 C 16.85 55.98 12.48 56.04 8.11 55.95 C 8.09 55.44 8.04 54.41 8.02 53.89 Z" />
</g>
<g id="#24367aff">
<path fill="#24367a" opacity="1.00" d=" M 42.74 55.72 C 47.07 54.60 51.57 54.42 56.00 53.93 C 55.98 54.44 55.94 55.45 55.92 55.95 C 51.53 56.16 47.13 55.82 42.74 55.72 Z" />
</g>
<g id="#00000081">
<path fill="#000000" opacity="0.51" d=" M 3.69 60.19 L 4.68 60.27 C 18.06 61.79 31.57 60.65 45.00 61.03 C 49.76 60.78 54.68 61.67 59.35 60.37 L 60.30 60.17 C 60.01 60.67 59.43 61.67 59.15 62.17 C 41.05 61.91 22.96 61.89 4.86 62.14 C 4.57 61.65 3.98 60.68 3.69 60.19 Z" />
</g>
<g id="#000000ad">
<path fill="#000000" opacity="0.68" d=" M 4.68 60.27 C 22.89 59.80 41.14 59.78 59.35 60.37 C 54.68 61.67 49.76 60.78 45.00 61.03 C 31.57 60.65 18.06 61.79 4.68 60.27 Z" />
</g>
<g id="#00000055">
<path fill="#000000" opacity="0.33" d=" M 4.86 62.14 C 22.96 61.89 41.05 61.91 59.15 62.17 C 57.09 64.45 52.33 61.64 50.00 63.04 C 35.08 62.37 19.17 64.21 4.86 62.14 Z" />
</g>
</svg>
