<?xml version="1.0" encoding="UTF-8" ?>
<!DOCTYPE svg PUBLIC "-//W3C//DTD SVG 1.1//EN" "http://www.w3.org/Graphics/SVG/1.1/DTD/svg11.dtd">
<svg width="64pt" height="64pt" viewBox="0 0 64 64" version="1.1" xmlns="http://www.w3.org/2000/svg">
<g id="#00000028">
<path fill="#000000" opacity="0.16" d=" M 2.19 4.28 C 3.09 3.52 3.70 1.99 5.07 2.07 C 23.28 1.99 41.51 1.80 59.72 2.19 C 60.49 3.08 61.96 3.71 61.94 5.05 C 62.09 22.03 62.03 39.02 61.95 56.00 C 62.87 59.05 61.25 61.54 59.97 64.00 L 4.04 64.00 C 3.28 62.39 2.04 60.87 2.01 59.02 C 2.07 40.78 1.76 22.52 2.19 4.28 M 5.00 3.02 L 5.01 4.00 C 4.75 4.25 4.25 4.75 4.00 5.01 L 3.02 5.00 C 2.96 23.33 3.01 41.65 3.00 59.98 L 3.95 60.10 C 3.97 60.57 4.01 61.50 4.03 61.96 L 5.01 62.00 L 5.02 62.95 C 23.01 63.09 41.01 62.98 59.00 62.98 L 58.99 62.00 C 59.26 61.51 59.79 60.54 60.06 60.06 L 61.00 59.99 C 60.99 41.66 61.04 23.33 60.98 5.00 L 60.00 5.01 C 59.75 4.76 59.25 4.25 59.00 4.00 L 58.98 3.05 C 40.99 2.91 22.99 3.02 5.00 3.02 Z" />
</g>
<g id="#0000005d">
<path fill="#000000" opacity="0.36" d=" M 5.00 3.02 C 22.99 3.02 40.99 2.91 58.98 3.05 L 59.00 4.00 C 41.00 4.00 23.00 4.01 5.01 4.00 L 5.00 3.02 Z" />
</g>
<g id="#fdfdfdff">
<path fill="#fdfdfd" opacity="1.00" d=" M 4.00 5.01 C 4.25 4.75 4.75 4.25 5.01 4.00 C 23.00 4.01 41.00 4.00 59.00 4.00 C 59.25 4.25 59.75 4.76 60.00 5.01 C 59.98 11.33 60.04 17.65 59.99 23.98 C 59.21 24.01 57.64 24.09 56.85 24.13 C 56.95 20.40 57.05 16.67 56.99 12.95 C 56.98 11.47 56.95 8.53 56.93 7.06 C 40.31 6.94 23.69 6.94 7.06 7.06 C 7.05 8.53 7.02 11.48 7.00 12.95 C 6.97 16.69 6.94 20.43 7.13 24.16 C 6.35 24.11 4.79 24.02 4.01 23.97 C 3.97 17.65 4.01 11.33 4.00 5.01 Z" />
</g>
<g id="#00000076">
<path fill="#000000" opacity="0.46" d=" M 3.02 5.00 L 4.00 5.01 C 4.01 11.33 3.97 17.65 4.01 23.97 C 3.99 30.64 3.95 37.32 4.02 44.00 C 3.98 49.36 4.03 54.73 3.95 60.10 L 3.00 59.98 C 3.01 41.65 2.96 23.33 3.02 5.00 Z" />
<path fill="#000000" opacity="0.46" d=" M 60.00 5.01 L 60.98 5.00 C 61.04 23.33 60.99 41.66 61.00 59.99 L 60.06 60.06 C 60.01 54.70 60.03 49.35 59.98 44.00 C 60.00 37.32 60.03 30.65 59.99 23.98 C 60.04 17.65 59.98 11.33 60.00 5.01 Z" />
</g>
<g id="#340522ff">
<path fill="#340522" opacity="1.00" d=" M 7.06 7.06 C 23.69 6.94 40.31 6.94 56.93 7.06 C 56.95 8.53 56.98 11.47 56.99 12.95 L 55.94 13.19 C 55.99 11.48 56.03 9.76 55.93 8.04 C 39.98 8.00 24.02 7.87 8.07 8.07 C 7.97 9.78 8.01 11.49 8.04 13.19 L 7.00 12.95 C 7.02 11.48 7.05 8.53 7.06 7.06 Z" />
</g>
<g id="#632f52ff">
<path fill="#632f52" opacity="1.00" d=" M 8.07 8.07 C 24.02 7.87 39.98 8.00 55.93 8.04 C 56.03 9.76 55.99 11.48 55.94 13.19 L 55.85 14.20 C 55.14 12.53 54.48 10.83 53.66 9.20 C 46.44 8.97 39.17 10.45 32.00 9.25 C 24.80 10.33 17.49 9.59 10.29 9.15 C 9.51 10.82 8.85 12.55 8.10 14.23 L 8.04 13.19 C 8.01 11.49 7.97 9.78 8.07 8.07 Z" />
</g>
<g id="#7c4163ff">
<path fill="#7c4163" opacity="1.00" d=" M 10.29 9.15 C 17.49 9.59 24.80 10.33 32.00 9.25 C 39.17 10.45 46.44 8.97 53.66 9.20 C 54.48 10.83 55.14 12.53 55.85 14.20 C 55.84 14.59 55.82 15.37 55.81 15.75 C 55.34 16.02 54.39 16.57 53.92 16.84 C 53.19 17.50 52.54 18.23 51.94 19.01 C 50.60 19.02 49.27 18.99 47.93 18.92 C 48.52 16.90 49.51 15.03 50.07 13.00 C 46.40 11.83 44.46 14.72 43.94 17.94 C 42.55 17.91 41.16 17.87 39.77 17.81 C 39.90 17.42 40.15 16.63 40.28 16.24 C 40.87 14.82 41.42 13.39 41.92 11.93 C 38.85 11.18 37.02 12.96 37.09 16.00 C 37.01 16.52 36.86 17.57 36.79 18.09 C 33.70 18.41 32.75 16.72 33.94 13.00 C 34.23 11.02 31.29 12.36 30.17 12.04 C 30.73 15.41 30.83 18.73 27.21 18.00 L 27.05 16.93 C 27.04 13.79 25.72 10.89 22.09 11.93 C 22.64 13.59 23.25 15.22 23.90 16.84 L 24.20 17.72 C 22.83 17.82 21.47 17.90 20.10 17.96 C 19.53 14.74 17.60 11.81 13.91 13.01 C 14.09 15.13 15.50 16.82 16.82 18.38 L 17.37 19.15 C 16.03 19.83 14.52 19.95 13.04 20.04 C 11.71 18.41 9.12 14.00 8.15 18.15 C 8.10 16.85 8.08 15.54 8.10 14.23 C 8.85 12.55 9.51 10.82 10.29 9.15 Z" />
</g>
<g id="#964d6cff">
<path fill="#964d6c" opacity="1.00" d=" M 22.09 11.93 C 25.72 10.89 27.04 13.79 27.05 16.93 C 26.03 16.49 24.95 16.61 23.90 16.84 C 23.25 15.22 22.64 13.59 22.09 11.93 Z" />
</g>
<g id="#94516dff">
<path fill="#94516d" opacity="1.00" d=" M 30.17 12.04 C 31.29 12.36 34.23 11.02 33.94 13.00 C 32.75 16.72 33.70 18.41 36.79 18.09 C 36.62 19.39 36.35 20.67 36.16 21.97 C 36.08 22.47 35.93 23.45 35.85 23.95 C 35.14 23.97 33.73 24.00 33.03 24.02 C 33.02 23.26 33.02 21.75 33.01 20.99 C 33.05 19.01 33.30 16.71 31.09 15.84 C 31.00 17.56 30.99 19.28 31.01 21.01 C 31.00 21.76 30.99 23.27 30.98 24.02 C 30.28 24.00 28.86 23.97 28.15 23.95 C 28.08 23.45 27.93 22.47 27.85 21.97 C 27.66 20.64 27.39 19.33 27.21 18.00 C 30.83 18.73 30.73 15.41 30.17 12.04 Z" />
</g>
<g id="#944c6bff">
<path fill="#944c6b" opacity="1.00" d=" M 37.09 16.00 C 37.02 12.96 38.85 11.18 41.92 11.93 C 41.42 13.39 40.87 14.82 40.28 16.24 C 39.48 16.18 37.88 16.06 37.09 16.00 Z" />
</g>
<g id="#5c1933ff">
<path fill="#5c1933" opacity="1.00" d=" M 7.00 12.95 L 8.04 13.19 L 8.10 14.23 C 8.08 15.54 8.10 16.85 8.15 18.15 C 8.21 18.81 8.33 20.13 8.39 20.79 C 8.07 22.29 7.69 23.78 7.21 25.25 L 7.13 24.16 C 6.94 20.43 6.97 16.69 7.00 12.95 Z" />
<path fill="#5c1933" opacity="1.00" d=" M 55.94 13.19 L 56.99 12.95 C 57.05 16.67 56.95 20.40 56.85 24.13 L 56.79 25.20 C 56.36 22.06 55.98 18.92 55.81 15.75 C 55.82 15.37 55.84 14.59 55.85 14.20 L 55.94 13.19 Z" />
</g>
<g id="#9b516dff">
<path fill="#9b516d" opacity="1.00" d=" M 13.91 13.01 C 17.60 11.81 19.53 14.74 20.10 17.96 C 19.28 18.06 17.64 18.27 16.82 18.38 C 15.50 16.82 14.09 15.13 13.91 13.01 Z" />
</g>
<g id="#99546eff">
<path fill="#99546e" opacity="1.00" d=" M 43.94 17.94 C 44.46 14.72 46.40 11.83 50.07 13.00 C 49.51 15.03 48.52 16.90 47.93 18.92 C 49.27 18.99 50.60 19.02 51.94 19.01 C 50.72 20.69 49.30 22.20 47.92 23.75 C 47.22 24.52 46.55 25.32 45.91 26.15 C 44.76 25.85 43.64 25.48 42.53 25.05 C 43.15 24.12 43.76 23.19 44.36 22.25 C 45.39 20.95 46.29 19.55 47.06 18.08 C 46.28 18.05 44.72 17.97 43.94 17.94 Z" />
</g>
<g id="#a15b70ff">
<path fill="#a15b70" opacity="1.00" d=" M 8.15 18.15 C 9.12 14.00 11.71 18.41 13.04 20.04 C 12.26 20.05 10.69 20.08 9.91 20.09 C 10.21 22.79 12.90 24.26 14.69 26.00 C 15.09 26.31 15.87 26.93 16.26 27.24 C 14.85 27.70 13.40 28.00 11.94 28.24 C 11.40 27.85 10.32 27.06 9.78 26.66 C 9.58 26.39 9.20 25.86 9.01 25.59 C 8.92 23.97 8.75 22.36 8.39 20.79 C 8.33 20.13 8.21 18.81 8.15 18.15 Z" />
</g>
<g id="#b06178ff">
<path fill="#b06178" opacity="1.00" d=" M 23.90 16.84 C 24.95 16.61 26.03 16.49 27.05 16.93 L 27.21 18.00 C 27.39 19.33 27.66 20.64 27.85 21.97 C 26.80 21.19 26.15 21.26 25.90 22.16 C 25.25 20.71 24.78 19.19 24.20 17.72 L 23.90 16.84 Z" />
</g>
<g id="#b26278ff">
<path fill="#b26278" opacity="1.00" d=" M 31.09 15.84 C 33.30 16.71 33.05 19.01 33.01 20.99 C 32.51 20.99 31.51 21.00 31.01 21.01 C 30.99 19.28 31.00 17.56 31.09 15.84 Z" />
</g>
<g id="#ae6077ff">
<path fill="#ae6077" opacity="1.00" d=" M 37.09 16.00 C 37.88 16.06 39.48 16.18 40.28 16.24 C 40.15 16.63 39.90 17.42 39.77 17.81 C 39.20 19.26 38.74 20.74 38.10 22.16 C 37.86 21.25 37.21 21.19 36.16 21.97 C 36.35 20.67 36.62 19.39 36.79 18.09 C 36.86 17.57 37.01 16.52 37.09 16.00 Z" />
</g>
<g id="#894b5aff">
<path fill="#894b5a" opacity="1.00" d=" M 53.92 16.84 C 54.39 16.57 55.34 16.02 55.81 15.75 C 55.98 18.92 56.36 22.06 56.79 25.20 C 56.82 27.88 56.82 30.56 56.79 33.24 C 56.48 32.18 56.20 31.11 55.96 30.04 C 56.53 27.45 54.77 25.69 53.32 23.84 C 54.81 21.71 55.65 19.13 53.92 16.84 Z" />
</g>
<g id="#b16a78ff">
<path fill="#b16a78" opacity="1.00" d=" M 51.94 19.01 C 52.54 18.23 53.19 17.50 53.92 16.84 C 55.65 19.13 54.81 21.71 53.32 23.84 C 54.77 25.69 56.53 27.45 55.96 30.04 L 54.94 29.79 C 54.92 29.06 54.88 27.62 54.85 26.89 C 52.04 27.80 49.89 29.98 47.26 31.29 C 46.43 31.21 44.76 31.05 43.92 30.98 C 45.93 28.67 48.17 26.56 50.04 24.14 C 49.51 24.04 48.45 23.85 47.92 23.75 C 49.30 22.20 50.72 20.69 51.94 19.01 Z" />
</g>
<g id="#b7677aff">
<path fill="#b7677a" opacity="1.00" d=" M 16.82 18.38 C 17.64 18.27 19.28 18.06 20.10 17.96 C 20.70 19.31 21.31 20.67 21.92 22.01 C 21.37 22.08 20.26 22.22 19.70 22.29 C 18.91 21.26 18.15 20.20 17.37 19.15 L 16.82 18.38 Z" />
</g>
<g id="#96536fff">
<path fill="#96536f" opacity="1.00" d=" M 20.10 17.96 C 21.47 17.90 22.83 17.82 24.20 17.72 C 24.78 19.19 25.25 20.71 25.90 22.16 L 26.27 23.04 C 25.23 23.49 24.17 23.88 23.08 24.20 C 22.79 23.65 22.21 22.56 21.92 22.01 C 21.31 20.67 20.70 19.31 20.10 17.96 Z" />
</g>
<g id="#95536fff">
<path fill="#95536f" opacity="1.00" d=" M 38.10 22.16 C 38.74 20.74 39.20 19.26 39.77 17.81 C 41.16 17.87 42.55 17.91 43.94 17.94 C 43.05 19.73 42.05 21.47 41.19 23.29 L 40.80 24.12 C 39.75 23.82 38.73 23.47 37.73 23.05 L 38.10 22.16 Z" />
</g>
<g id="#b7677bff">
<path fill="#b7677b" opacity="1.00" d=" M 43.94 17.94 C 44.72 17.97 46.28 18.05 47.06 18.08 C 46.29 19.55 45.39 20.95 44.36 22.25 C 43.30 22.59 42.25 22.93 41.19 23.29 C 42.05 21.47 43.05 19.73 43.94 17.94 Z" />
</g>
<g id="#9b5770ff">
<path fill="#9b5770" opacity="1.00" d=" M 17.37 19.15 C 18.15 20.20 18.91 21.26 19.70 22.29 C 20.27 23.21 20.86 24.13 21.47 25.03 C 20.36 25.47 19.23 25.84 18.08 26.15 C 17.80 25.81 17.26 25.12 16.99 24.78 C 15.70 23.18 14.30 21.67 13.04 20.04 C 14.52 19.95 16.03 19.83 17.37 19.15 Z" />
</g>
<g id="#c07381ff">
<path fill="#c07381" opacity="1.00" d=" M 9.91 20.09 C 10.69 20.08 12.26 20.05 13.04 20.04 C 14.30 21.67 15.70 23.18 16.99 24.78 C 16.41 25.09 15.27 25.70 14.69 26.00 C 12.90 24.26 10.21 22.79 9.91 20.09 Z" />
</g>
<g id="#80474eff">
<path fill="#80474e" opacity="1.00" d=" M 8.39 20.79 C 8.75 22.36 8.92 23.97 9.01 25.59 C 8.42 28.14 8.00 30.73 7.27 33.25 C 7.20 30.58 7.19 27.91 7.21 25.25 C 7.69 23.78 8.07 22.29 8.39 20.79 Z" />
</g>
<g id="#c38784ff">
<path fill="#c38784" opacity="1.00" d=" M 25.90 22.16 C 26.15 21.26 26.80 21.19 27.85 21.97 C 27.93 22.47 28.08 23.45 28.15 23.95 C 29.03 25.97 27.80 30.42 30.97 30.06 C 30.97 28.55 30.98 25.53 30.98 24.02 C 30.99 23.27 31.00 21.76 31.01 21.01 C 31.51 21.00 32.51 20.99 33.01 20.99 C 33.02 21.75 33.02 23.26 33.03 24.02 C 33.03 25.53 33.03 28.55 33.03 30.06 C 36.20 30.43 34.97 25.97 35.85 23.95 C 35.93 23.45 36.08 22.47 36.16 21.97 C 37.21 21.19 37.86 21.25 38.10 22.16 L 37.73 23.05 C 36.81 25.27 36.12 27.63 35.95 30.04 C 39.17 30.39 39.51 26.25 40.80 24.12 L 41.19 23.29 C 42.25 22.93 43.30 22.59 44.36 22.25 C 43.76 23.19 43.15 24.12 42.53 25.05 C 41.98 26.88 36.84 31.06 40.81 31.47 C 41.89 32.16 42.93 31.44 43.92 30.98 C 44.76 31.05 46.43 31.21 47.26 31.29 C 45.72 32.45 44.06 33.51 42.84 35.04 C 46.80 34.08 50.20 31.67 53.96 30.19 C 54.15 31.43 54.48 32.66 55.11 33.76 C 51.64 34.92 48.19 36.11 44.77 37.38 C 43.50 37.25 42.22 37.15 40.94 37.07 C 38.89 35.42 37.10 33.37 34.67 32.24 C 31.31 30.56 28.60 32.66 25.99 34.20 C 24.91 33.28 23.87 32.32 22.85 31.33 C 26.98 31.35 22.56 26.83 21.47 25.03 C 20.86 24.13 20.27 23.21 19.70 22.29 C 20.26 22.22 21.37 22.08 21.92 22.01 C 22.21 22.56 22.79 23.65 23.08 24.20 C 24.53 26.25 24.86 30.38 28.05 30.04 C 27.88 27.63 27.19 25.27 26.27 23.04 L 25.90 22.16 Z" />
</g>
<g id="#ad6a79ff">
<path fill="#ad6a79" opacity="1.00" d=" M 26.27 23.04 C 27.19 25.27 27.88 27.63 28.05 30.04 C 24.86 30.38 24.53 26.25 23.08 24.20 C 24.17 23.88 25.23 23.49 26.27 23.04 Z" />
<path fill="#ad6a79" opacity="1.00" d=" M 35.95 30.04 C 36.12 27.63 36.81 25.27 37.73 23.05 C 38.73 23.47 39.75 23.82 40.80 24.12 C 39.51 26.25 39.17 30.39 35.95 30.04 Z" />
</g>
<g id="#f3f3f3ff">
<path fill="#f3f3f3" opacity="1.00" d=" M 4.01 23.97 C 4.79 24.02 6.35 24.11 7.13 24.16 L 7.21 25.25 C 7.19 27.91 7.20 30.58 7.27 33.25 C 7.14 36.20 7.06 39.16 7.00 42.12 C 6.97 42.60 6.92 43.55 6.89 44.03 C 6.17 44.02 4.74 44.00 4.02 44.00 C 3.95 37.32 3.99 30.64 4.01 23.97 Z" />
<path fill="#f3f3f3" opacity="1.00" d=" M 56.85 24.13 C 57.64 24.09 59.21 24.01 59.99 23.98 C 60.03 30.65 60.00 37.32 59.98 44.00 C 59.24 44.00 57.76 44.00 57.02 44.00 C 57.03 42.66 57.03 41.33 57.01 39.99 C 56.95 38.30 56.84 34.93 56.79 33.24 C 56.82 30.56 56.82 27.88 56.79 25.20 L 56.85 24.13 Z" />
</g>
<g id="#ad6b79ff">
<path fill="#ad6b79" opacity="1.00" d=" M 28.15 23.95 C 28.86 23.97 30.28 24.00 30.98 24.02 C 30.98 25.53 30.97 28.55 30.97 30.06 C 27.80 30.42 29.03 25.97 28.15 23.95 Z" />
<path fill="#ad6b79" opacity="1.00" d=" M 33.03 24.02 C 33.73 24.00 35.14 23.97 35.85 23.95 C 34.97 25.97 36.20 30.43 33.03 30.06 C 33.03 28.55 33.03 25.53 33.03 24.02 Z" />
</g>
<g id="#d1988fff">
<path fill="#d1988f" opacity="1.00" d=" M 45.91 26.15 C 46.55 25.32 47.22 24.52 47.92 23.75 C 48.45 23.85 49.51 24.04 50.04 24.14 C 48.17 26.56 45.93 28.67 43.92 30.98 C 42.93 31.44 41.89 32.16 40.81 31.47 C 42.70 29.90 44.47 28.15 45.91 26.15 Z" />
</g>
<g id="#cea18aff">
<path fill="#cea18a" opacity="1.00" d=" M 14.69 26.00 C 15.27 25.70 16.41 25.09 16.99 24.78 C 17.26 25.12 17.80 25.81 18.08 26.15 C 19.48 28.04 21.13 29.73 22.85 31.33 C 23.87 32.32 24.91 33.28 25.99 34.20 C 23.45 36.49 22.24 39.42 22.83 43.02 C 20.67 41.48 18.56 39.74 15.99 38.91 L 16.00 38.04 C 16.80 37.99 18.41 37.87 19.22 37.82 C 18.12 37.24 16.97 36.77 15.83 36.27 C 17.30 36.05 18.89 36.09 20.14 35.18 C 20.44 35.00 21.06 34.65 21.37 34.47 C 21.78 34.28 22.60 33.88 23.00 33.69 C 20.97 31.34 18.82 29.03 16.26 27.24 C 15.87 26.93 15.09 26.31 14.69 26.00 Z" />
</g>
<g id="#b2707bff">
<path fill="#b2707b" opacity="1.00" d=" M 21.47 25.03 C 22.56 26.83 26.98 31.35 22.85 31.33 C 21.13 29.73 19.48 28.04 18.08 26.15 C 19.23 25.84 20.36 25.47 21.47 25.03 Z" />
<path fill="#b2707b" opacity="1.00" d=" M 40.81 31.47 C 36.84 31.06 41.98 26.88 42.53 25.05 C 43.64 25.48 44.76 25.85 45.91 26.15 C 44.47 28.15 42.70 29.90 40.81 31.47 Z" />
</g>
<g id="#ac806eff">
<path fill="#ac806e" opacity="1.00" d=" M 7.27 33.25 C 8.00 30.73 8.42 28.14 9.01 25.59 C 9.20 25.86 9.58 26.39 9.78 26.66 C 8.83 28.32 8.53 30.49 10.95 30.71 L 11.91 31.11 C 11.23 32.03 10.53 32.93 9.81 33.83 C 5.19 35.02 10.92 37.72 13.19 37.68 C 10.96 38.92 8.93 40.46 7.00 42.12 C 7.06 39.16 7.14 36.20 7.27 33.25 Z" />
</g>
<g id="#d09c8eff">
<path fill="#d09c8e" opacity="1.00" d=" M 10.95 30.71 C 8.53 30.49 8.83 28.32 9.78 26.66 C 10.32 27.06 11.40 27.85 11.94 28.24 C 12.65 28.75 13.36 29.26 14.07 29.76 C 13.02 30.05 11.98 30.36 10.95 30.71 Z" />
</g>
<g id="#b7787dff">
<path fill="#b7787d" opacity="1.00" d=" M 16.26 27.24 C 18.82 29.03 20.97 31.34 23.00 33.69 C 22.60 33.88 21.78 34.28 21.37 34.47 C 18.91 32.94 16.50 31.33 14.07 29.76 C 13.36 29.26 12.65 28.75 11.94 28.24 C 13.40 28.00 14.85 27.70 16.26 27.24 Z" />
</g>
<g id="#d8ae96ff">
<path fill="#d8ae96" opacity="1.00" d=" M 47.26 31.29 C 49.89 29.98 52.04 27.80 54.85 26.89 C 54.88 27.62 54.92 29.06 54.94 29.79 L 53.96 30.19 C 50.20 31.67 46.80 34.08 42.84 35.04 C 44.06 33.51 45.72 32.45 47.26 31.29 Z" />
</g>
<g id="#dcb89aff">
<path fill="#dcb89a" opacity="1.00" d=" M 10.95 30.71 C 11.98 30.36 13.02 30.05 14.07 29.76 C 16.50 31.33 18.91 32.94 21.37 34.47 C 21.06 34.65 20.44 35.00 20.14 35.18 C 17.44 33.72 14.75 32.25 11.91 31.11 L 10.95 30.71 Z" />
</g>
<g id="#a07563ff">
<path fill="#a07563" opacity="1.00" d=" M 53.96 30.19 L 54.94 29.79 L 55.96 30.04 C 56.20 31.11 56.48 32.18 56.79 33.24 C 56.84 34.93 56.95 38.30 57.01 39.99 L 56.07 40.00 L 55.02 39.97 C 55.03 39.24 55.06 37.76 55.08 37.03 C 55.52 35.93 56.11 34.76 55.11 33.76 C 54.48 32.66 54.15 31.43 53.96 30.19 Z" />
</g>
<g id="#c28a82ff">
<path fill="#c28a82" opacity="1.00" d=" M 11.91 31.11 C 14.75 32.25 17.44 33.72 20.14 35.18 C 18.89 36.09 17.30 36.05 15.83 36.27 C 13.81 35.50 11.79 34.72 9.81 33.83 C 10.53 32.93 11.23 32.03 11.91 31.11 Z" />
</g>
<g id="#f5f538ff">
<path fill="#f5f538" opacity="1.00" d=" M 25.99 34.20 C 28.60 32.66 31.31 30.56 34.67 32.24 C 37.10 33.37 38.89 35.42 40.94 37.07 C 41.02 39.77 41.10 42.47 41.18 45.17 C 39.22 47.47 36.70 49.16 34.53 51.24 C 33.04 50.82 31.57 50.37 30.09 49.91 C 29.78 49.48 29.16 48.61 28.84 48.17 C 33.80 50.11 40.98 45.94 39.03 39.97 C 38.00 32.91 28.28 31.86 25.23 38.26 C 25.09 39.76 24.81 42.78 24.67 44.29 C 24.21 43.97 23.29 43.34 22.83 43.02 C 22.24 39.42 23.45 36.49 25.99 34.20 Z" />
</g>
<g id="#dfcaa0ff">
<path fill="#dfcaa0" opacity="1.00" d=" M 13.19 37.68 C 10.92 37.72 5.19 35.02 9.81 33.83 C 11.79 34.72 13.81 35.50 15.83 36.27 C 16.97 36.77 18.12 37.24 19.22 37.82 C 18.41 37.87 16.80 37.99 16.00 38.04 C 15.30 37.95 13.89 37.77 13.19 37.68 Z" />
</g>
<g id="#fafb4cff">
<path fill="#fafb4c" opacity="1.00" d=" M 25.23 38.26 C 28.28 31.86 38.00 32.91 39.03 39.97 C 40.98 45.94 33.80 50.11 28.84 48.17 C 27.44 46.90 26.06 45.59 24.67 44.29 C 24.81 42.78 25.09 39.76 25.23 38.26 M 29.23 36.13 C 27.80 37.50 26.60 39.14 26.00 41.05 C 25.90 45.79 32.04 48.87 35.73 45.72 C 41.06 41.99 35.21 32.80 29.23 36.13 Z" />
</g>
<g id="#e0cba1ff">
<path fill="#e0cba1" opacity="1.00" d=" M 44.77 37.38 C 48.19 36.11 51.64 34.92 55.11 33.76 C 56.11 34.76 55.52 35.93 55.08 37.03 C 51.67 37.16 48.15 38.40 44.77 37.38 Z" />
</g>
<g id="#fdfd6cff">
<path fill="#fdfd6c" opacity="1.00" d=" M 29.23 36.13 C 35.21 32.80 41.06 41.99 35.73 45.72 C 32.04 48.87 25.90 45.79 26.00 41.05 C 26.60 39.14 27.80 37.50 29.23 36.13 M 31.28 37.28 C 29.76 38.11 27.35 38.76 27.97 41.00 C 27.62 44.79 33.38 46.70 35.30 43.31 C 37.86 40.50 34.36 36.61 31.28 37.28 Z" />
</g>
<g id="#fdfe8dff">
<path fill="#fdfe8d" opacity="1.00" d=" M 31.28 37.28 C 34.36 36.61 37.86 40.50 35.30 43.31 C 33.38 46.70 27.62 44.79 27.97 41.00 C 27.35 38.76 29.76 38.11 31.28 37.28 Z" />
</g>
<g id="#cfa989ff">
<path fill="#cfa989" opacity="1.00" d=" M 40.94 37.07 C 42.22 37.15 43.50 37.25 44.77 37.38 C 48.15 38.40 51.67 37.16 55.08 37.03 C 55.06 37.76 55.03 39.24 55.02 39.97 C 51.00 40.12 47.02 40.65 43.02 41.01 C 40.19 41.67 43.94 42.45 45.06 42.12 C 43.73 43.09 42.43 44.10 41.18 45.17 C 41.10 42.47 41.02 39.77 40.94 37.07 Z" />
</g>
<g id="#252930ff">
<path fill="#252930" opacity="1.00" d=" M 7.00 42.12 C 8.93 40.46 10.96 38.92 13.19 37.68 C 13.89 37.77 15.30 37.95 16.00 38.04 L 15.99 38.91 L 15.92 39.90 C 12.14 38.32 9.12 41.95 7.73 45.07 L 6.95 44.97 L 6.89 44.03 C 6.92 43.55 6.97 42.60 7.00 42.12 Z" />
</g>
<g id="#7b7c79ff">
<path fill="#7b7c79" opacity="1.00" d=" M 7.73 45.07 C 9.12 41.95 12.14 38.32 15.92 39.90 C 19.43 42.84 23.31 45.38 26.33 48.86 C 25.93 49.26 25.14 50.06 24.75 50.46 C 23.05 49.39 21.60 48.00 20.06 46.72 C 18.23 45.18 15.73 43.43 13.81 45.90 C 13.22 45.18 12.61 44.47 11.98 43.78 C 11.01 45.35 10.18 47.01 9.11 48.53 C 8.59 47.39 8.14 46.24 7.73 45.07 Z" />
</g>
<g id="#15181fff">
<path fill="#15181f" opacity="1.00" d=" M 15.99 38.91 C 18.56 39.74 20.67 41.48 22.83 43.02 C 23.29 43.34 24.21 43.97 24.67 44.29 C 26.06 45.59 27.44 46.90 28.84 48.17 C 29.16 48.61 29.78 49.48 30.09 49.91 C 30.75 50.90 31.44 51.87 32.12 52.84 L 31.27 53.04 L 30.46 53.20 C 29.13 51.71 27.76 50.25 26.33 48.86 C 23.31 45.38 19.43 42.84 15.92 39.90 L 15.99 38.91 Z" />
</g>
<g id="#e1cda1ff">
<path fill="#e1cda1" opacity="1.00" d=" M 43.02 41.01 C 47.02 40.65 51.00 40.12 55.02 39.97 L 56.07 40.00 C 55.72 42.02 55.21 44.01 54.81 46.03 C 54.37 45.75 53.50 45.20 53.07 44.92 C 51.05 43.11 48.77 41.43 45.89 42.13 L 45.06 42.12 C 43.94 42.45 40.19 41.67 43.02 41.01 Z" />
</g>
<g id="#a9936dff">
<path fill="#a9936d" opacity="1.00" d=" M 56.07 40.00 L 57.01 39.99 C 57.03 41.33 57.03 42.66 57.02 44.00 C 57.00 44.81 56.95 46.43 56.92 47.24 C 56.39 46.94 55.34 46.33 54.81 46.03 C 55.21 44.01 55.72 42.02 56.07 40.00 Z" />
</g>
<g id="#383c43ff">
<path fill="#383c43" opacity="1.00" d=" M 45.06 42.12 L 45.89 42.13 C 46.22 42.37 46.88 42.85 47.21 43.09 C 45.14 43.93 42.97 44.94 42.08 47.16 C 41.34 47.93 40.59 48.69 39.82 49.42 C 38.26 50.34 36.80 51.46 35.09 52.11 L 34.53 51.24 C 36.70 49.16 39.22 47.47 41.18 45.17 C 42.43 44.10 43.73 43.09 45.06 42.12 Z" />
<path fill="#383c43" opacity="1.00" d=" M 44.87 55.96 C 45.07 55.42 45.47 54.32 45.68 53.78 C 47.44 54.92 51.14 53.07 51.13 55.99 C 49.04 56.04 46.96 56.05 44.87 55.96 Z" />
</g>
<g id="#1c1d23ff">
<path fill="#1c1d23" opacity="1.00" d=" M 45.89 42.13 C 48.77 41.43 51.05 43.11 53.07 44.92 L 52.06 44.89 C 51.61 44.87 50.72 44.81 50.28 44.79 C 49.26 44.21 48.24 43.65 47.21 43.09 C 46.88 42.85 46.22 42.37 45.89 42.13 Z" />
</g>
<g id="#676a72ff">
<path fill="#676a72" opacity="1.00" d=" M 47.21 43.09 C 48.24 43.65 49.26 44.21 50.28 44.79 C 50.50 46.39 52.33 51.71 49.65 48.72 C 47.29 48.63 45.98 51.63 45.68 53.78 C 45.47 54.32 45.07 55.42 44.87 55.96 C 43.31 55.75 40.20 55.34 38.64 55.13 C 39.43 52.02 44.04 52.21 43.96 48.95 C 44.67 46.97 46.38 47.21 48.07 47.67 C 49.09 42.94 44.19 45.97 42.08 47.16 C 42.97 44.94 45.14 43.93 47.21 43.09 Z" />
</g>
<g id="#ebebebff">
<path fill="#ebebeb" opacity="1.00" d=" M 4.02 44.00 C 4.74 44.00 6.17 44.02 6.89 44.03 L 6.95 44.97 C 7.02 46.23 7.11 47.48 7.22 48.74 C 7.07 51.48 7.01 54.22 7.04 56.96 C 23.68 57.03 40.31 57.07 56.94 56.94 C 57.02 53.70 57.05 50.47 56.92 47.24 C 56.95 46.43 57.00 44.81 57.02 44.00 C 57.76 44.00 59.24 44.00 59.98 44.00 C 60.03 49.35 60.01 54.70 60.06 60.06 L 59.23 60.31 C 41.10 59.80 22.95 59.87 4.81 60.21 L 3.95 60.10 C 4.03 54.73 3.98 49.36 4.02 44.00 Z" />
</g>
<g id="#6a6d74ff">
<path fill="#6a6d74" opacity="1.00" d=" M 9.11 48.53 C 10.18 47.01 11.01 45.35 11.98 43.78 C 12.61 44.47 13.22 45.18 13.81 45.90 C 13.65 46.45 13.34 47.56 13.18 48.11 C 12.02 50.21 11.57 55.57 8.19 53.15 L 8.29 52.24 C 8.61 51.01 8.88 49.77 9.11 48.53 Z" />
</g>
<g id="#54575fff">
<path fill="#54575f" opacity="1.00" d=" M 13.81 45.90 C 15.73 43.43 18.23 45.18 20.06 46.72 C 16.66 46.50 19.22 50.19 19.00 52.11 C 16.46 50.83 16.53 45.71 13.18 48.11 C 13.34 47.56 13.65 46.45 13.81 45.90 Z" />
</g>
<g id="#41444bff">
<path fill="#41444b" opacity="1.00" d=" M 6.95 44.97 L 7.73 45.07 C 8.14 46.24 8.59 47.39 9.11 48.53 C 8.88 49.77 8.61 51.01 8.29 52.24 C 7.97 51.06 7.62 49.89 7.22 48.74 C 7.11 47.48 7.02 46.23 6.95 44.97 Z" />
</g>
<g id="#9fa19bff">
<path fill="#9fa19b" opacity="1.00" d=" M 42.08 47.16 C 44.19 45.97 49.09 42.94 48.07 47.67 C 46.38 47.21 44.67 46.97 43.96 48.95 C 42.61 49.31 41.22 49.78 39.82 49.42 C 40.59 48.69 41.34 47.93 42.08 47.16 Z" />
</g>
<g id="#4a4e56ff">
<path fill="#4a4e56" opacity="1.00" d=" M 50.28 44.79 C 50.72 44.81 51.61 44.87 52.06 44.89 L 52.23 45.81 C 53.18 49.19 52.07 52.58 51.99 55.98 L 51.13 55.99 C 51.14 53.07 47.44 54.92 45.68 53.78 C 45.98 51.63 47.29 48.63 49.65 48.72 C 52.33 51.71 50.50 46.39 50.28 44.79 Z" />
</g>
<g id="#0a0b10ff">
<path fill="#0a0b10" opacity="1.00" d=" M 52.06 44.89 L 53.07 44.92 C 53.50 45.20 54.37 45.75 54.81 46.03 C 55.34 46.33 56.39 46.94 56.92 47.24 C 57.05 50.47 57.02 53.70 56.94 56.94 C 40.31 57.07 23.68 57.03 7.04 56.96 C 7.01 54.22 7.07 51.48 7.22 48.74 C 7.62 49.89 7.97 51.06 8.29 52.24 L 8.19 53.15 C 6.30 58.45 13.70 55.39 16.80 55.96 C 22.56 56.00 28.32 56.08 34.07 55.96 C 33.48 54.88 32.83 53.84 32.12 52.84 C 31.44 51.87 30.75 50.90 30.09 49.91 C 31.57 50.37 33.04 50.82 34.53 51.24 L 35.09 52.11 C 35.86 53.53 37.32 54.30 38.64 55.13 C 40.20 55.34 43.31 55.75 44.87 55.96 C 46.96 56.05 49.04 56.04 51.13 55.99 L 51.99 55.98 C 53.42 55.96 55.07 56.18 55.93 54.75 C 58.14 50.48 54.66 48.16 52.23 45.81 L 52.06 44.89 Z" />
</g>
<g id="#393d45ff">
<path fill="#393d45" opacity="1.00" d=" M 52.23 45.81 C 54.66 48.16 58.14 50.48 55.93 54.75 C 55.07 56.18 53.42 55.96 51.99 55.98 C 52.07 52.58 53.18 49.19 52.23 45.81 Z" />
</g>
<g id="#40434aff">
<path fill="#40434a" opacity="1.00" d=" M 13.18 48.11 C 16.53 45.71 16.46 50.83 19.00 52.11 C 19.22 50.19 16.66 46.50 20.06 46.72 C 21.60 48.00 23.05 49.39 24.75 50.46 C 26.59 51.39 28.22 53.93 30.46 53.20 L 31.27 53.04 C 32.63 55.82 31.21 56.49 27.00 55.02 C 24.95 55.38 24.30 53.19 23.08 52.05 C 21.37 53.31 19.59 54.73 17.32 54.37 C 17.19 54.77 16.93 55.56 16.80 55.96 C 13.70 55.39 6.30 58.45 8.19 53.15 C 11.57 55.57 12.02 50.21 13.18 48.11 Z" />
</g>
<g id="#696a5fff">
<path fill="#696a5f" opacity="1.00" d=" M 26.33 48.86 C 27.76 50.25 29.13 51.71 30.46 53.20 C 28.22 53.93 26.59 51.39 24.75 50.46 C 25.14 50.06 25.93 49.26 26.33 48.86 Z" />
</g>
<g id="#898b88ff">
<path fill="#898b88" opacity="1.00" d=" M 35.09 52.11 C 36.80 51.46 38.26 50.34 39.82 49.42 C 41.22 49.78 42.61 49.31 43.96 48.95 C 44.04 52.21 39.43 52.02 38.64 55.13 C 37.32 54.30 35.86 53.53 35.09 52.11 Z" />
</g>
<g id="#272a31ff">
<path fill="#272a31" opacity="1.00" d=" M 17.32 54.37 C 19.59 54.73 21.37 53.31 23.08 52.05 C 24.30 53.19 24.95 55.38 27.00 55.02 C 31.21 56.49 32.63 55.82 31.27 53.04 L 32.12 52.84 C 32.83 53.84 33.48 54.88 34.07 55.96 C 28.32 56.08 22.56 56.00 16.80 55.96 C 16.93 55.56 17.19 54.77 17.32 54.37 Z" />
</g>
<g id="#00000081">
<path fill="#000000" opacity="0.51" d=" M 3.95 60.10 L 4.81 60.21 C 18.12 61.93 31.61 60.56 45.00 61.03 C 49.70 60.67 54.67 61.87 59.23 60.31 L 60.06 60.06 C 59.79 60.54 59.26 61.51 58.99 62.00 C 40.99 62.00 23.00 62.01 5.01 62.00 L 4.03 61.96 C 4.01 61.50 3.97 60.57 3.95 60.10 Z" />
</g>
<g id="#000000ae">
<path fill="#000000" opacity="0.68" d=" M 4.81 60.21 C 22.95 59.87 41.10 59.80 59.23 60.31 C 54.67 61.87 49.70 60.67 45.00 61.03 C 31.61 60.56 18.12 61.93 4.81 60.21 Z" />
</g>
<g id="#00000055">
<path fill="#000000" opacity="0.33" d=" M 5.01 62.00 C 23.00 62.01 40.99 62.00 58.99 62.00 L 59.00 62.98 C 41.01 62.98 23.01 63.09 5.02 62.95 L 5.01 62.00 Z" />
</g>
</svg>
