<?xml version="1.0" encoding="UTF-8" ?>
<!DOCTYPE svg PUBLIC "-//W3C//DTD SVG 1.1//EN" "http://www.w3.org/Graphics/SVG/1.1/DTD/svg11.dtd">
<svg width="64pt" height="64pt" viewBox="0 0 64 64" version="1.1" xmlns="http://www.w3.org/2000/svg">
<g id="#5ec7e6ff">
<path fill="#5ec7e6" opacity="1.00" d=" M 20.29 5.33 C 24.65 2.66 30.30 2.48 35.34 2.69 C 36.55 3.94 38.73 3.19 40.34 3.62 C 40.39 3.79 40.48 4.14 40.53 4.31 C 41.58 5.25 42.84 5.93 44.13 6.49 C 41.86 6.37 39.27 7.22 37.37 5.54 C 32.65 4.10 27.77 5.87 24.14 8.98 C 25.82 9.20 27.50 9.38 29.19 9.52 C 29.90 7.90 31.13 6.67 32.66 5.81 C 32.65 7.31 32.56 8.81 32.45 10.31 C 30.34 10.55 28.23 10.63 26.11 10.58 C 24.96 11.34 23.82 12.11 22.68 12.88 C 21.99 11.81 21.27 10.77 20.61 9.69 C 19.85 10.89 18.77 11.78 17.55 12.50 C 18.26 12.20 19.69 11.60 20.40 11.30 C 20.68 12.78 21.13 14.21 21.75 15.58 C 20.37 15.64 19.00 15.70 17.62 15.77 C 17.71 18.27 18.41 21.25 16.02 22.96 C 13.82 24.62 14.23 27.55 13.68 29.95 C 14.54 31.12 15.36 32.32 16.27 33.45 L 16.96 34.28 C 14.87 34.32 12.76 34.64 10.68 34.30 C 8.40 32.66 6.21 30.82 3.50 29.91 C 3.51 23.99 6.37 18.53 9.56 13.71 C 10.81 13.47 11.79 12.62 12.45 11.58 L 12.13 10.50 C 14.48 8.25 17.23 6.45 20.29 5.33 Z" />
<path fill="#5ec7e6" opacity="1.00" d=" M 35.79 13.59 C 37.85 13.68 41.74 13.79 41.60 16.59 C 39.24 16.21 36.86 15.93 34.48 16.32 C 34.81 15.64 35.46 14.27 35.79 13.59 Z" />
<path fill="#5ec7e6" opacity="1.00" d=" M 24.24 15.20 C 26.28 14.53 27.82 16.33 29.11 17.60 C 29.48 16.99 30.23 15.78 30.60 15.17 L 31.56 17.31 C 32.28 16.79 32.99 16.26 33.71 15.74 C 34.02 16.29 34.63 17.38 34.94 17.92 C 36.39 17.99 37.85 18.06 39.30 18.13 C 39.26 19.30 38.87 20.33 38.15 21.23 C 36.05 21.25 33.95 21.09 32.01 20.23 C 31.56 20.56 30.66 21.21 30.21 21.53 C 29.09 20.96 27.91 20.56 26.67 20.33 C 26.44 19.86 25.97 18.91 25.74 18.44 C 23.26 18.55 20.78 18.68 18.30 18.83 C 20.71 18.27 21.62 15.12 24.24 15.20 Z" />
</g>
<g id="#00385fff">
<path fill="#00385f" opacity="1.00" d=" M 40.53 4.31 L 42.14 4.14 C 46.25 6.25 50.79 8.27 53.36 12.32 C 50.93 10.38 48.66 8.15 45.78 6.86 C 45.37 6.77 44.54 6.58 44.13 6.49 C 42.84 5.93 41.58 5.25 40.53 4.31 Z" />
<path fill="#00385f" opacity="1.00" d=" M 53.37 12.34 C 58.27 16.66 60.64 23.51 60.96 29.94 C 62.43 45.55 48.82 60.87 33.05 60.80 C 28.99 61.01 25.00 60.23 21.10 59.17 C 20.80 58.81 20.21 58.08 19.91 57.72 C 32.41 57.96 44.89 52.50 52.77 42.73 C 54.92 39.86 58.09 36.70 57.22 32.79 C 57.32 31.17 57.45 29.54 57.56 27.92 C 58.08 27.46 59.12 26.55 59.64 26.09 C 58.70 21.06 56.18 16.55 53.37 12.34 Z" />
</g>
<g id="#d6ef43ff">
<path fill="#d6ef43" opacity="1.00" d=" M 24.14 8.98 C 27.77 5.87 32.65 4.10 37.37 5.54 C 39.27 7.22 41.86 6.37 44.13 6.49 C 44.54 6.58 45.37 6.77 45.78 6.86 C 44.34 8.45 45.25 10.12 46.18 11.65 C 45.34 12.51 44.54 13.41 43.73 14.29 C 44.44 15.65 45.13 17.01 45.79 18.39 C 46.21 18.49 47.04 18.68 47.46 18.78 L 47.34 19.19 C 46.31 19.78 45.27 20.37 44.21 20.93 C 44.68 22.37 45.16 23.81 45.62 25.25 C 43.69 25.56 41.91 24.66 40.17 23.96 C 39.33 23.14 38.43 22.38 37.52 21.64 C 38.13 23.11 38.79 24.55 39.49 25.98 C 35.75 28.38 32.47 31.53 28.44 33.44 C 24.39 33.30 20.32 32.59 16.27 33.45 C 15.36 32.32 14.54 31.12 13.68 29.95 C 14.23 27.55 13.82 24.62 16.02 22.96 C 18.41 21.25 17.71 18.27 17.62 15.77 C 19.00 15.70 20.37 15.64 21.75 15.58 C 21.13 14.21 20.68 12.78 20.40 11.30 C 19.69 11.60 18.26 12.20 17.55 12.50 C 18.77 11.78 19.85 10.89 20.61 9.69 C 21.27 10.77 21.99 11.81 22.68 12.88 C 23.82 12.11 24.96 11.34 26.11 10.58 C 28.23 10.63 30.34 10.55 32.45 10.31 C 32.56 8.81 32.65 7.31 32.66 5.81 C 31.13 6.67 29.90 7.90 29.19 9.52 C 27.50 9.38 25.82 9.20 24.14 8.98 M 35.79 13.59 C 35.46 14.27 34.81 15.64 34.48 16.32 C 36.86 15.93 39.24 16.21 41.60 16.59 C 41.74 13.79 37.85 13.68 35.79 13.59 M 24.24 15.20 C 21.62 15.12 20.71 18.27 18.30 18.83 C 20.78 18.68 23.26 18.55 25.74 18.44 C 25.97 18.91 26.44 19.86 26.67 20.33 C 27.91 20.56 29.09 20.96 30.21 21.53 C 30.66 21.21 31.56 20.56 32.01 20.23 C 33.95 21.09 36.05 21.25 38.15 21.23 C 38.87 20.33 39.26 19.30 39.30 18.13 C 37.85 18.06 36.39 17.99 34.94 17.92 C 34.63 17.38 34.02 16.29 33.71 15.74 C 32.99 16.26 32.28 16.79 31.56 17.31 L 30.60 15.17 C 30.23 15.78 29.48 16.99 29.11 17.60 C 27.82 16.33 26.28 14.53 24.24 15.20 Z" />
</g>
<g id="#abcf20ff">
<path fill="#abcf20" opacity="1.00" d=" M 46.18 11.65 C 45.25 10.12 44.34 8.45 45.78 6.86 C 48.66 8.15 50.93 10.38 53.36 12.32 C 53.37 12.33 53.37 12.33 53.37 12.34 C 56.18 16.55 58.70 21.06 59.64 26.09 C 59.12 26.55 58.08 27.46 57.56 27.92 C 57.45 29.54 57.32 31.17 57.22 32.79 C 56.65 31.14 56.42 29.41 56.27 27.68 C 56.02 27.30 55.51 26.56 55.25 26.18 C 53.08 23.37 49.38 23.15 46.07 23.12 C 47.23 23.78 49.53 25.10 50.68 25.76 C 48.49 28.12 45.43 29.20 42.66 30.69 C 43.28 28.06 41.13 26.18 40.17 23.96 C 41.91 24.66 43.69 25.56 45.62 25.25 C 45.16 23.81 44.68 22.37 44.21 20.93 C 45.27 20.37 46.31 19.78 47.34 19.19 L 47.46 18.78 C 47.45 17.11 46.69 15.60 46.22 14.03 C 45.60 14.10 44.36 14.23 43.73 14.29 C 44.54 13.41 45.34 12.51 46.18 11.65 Z" />
<path fill="#abcf20" opacity="1.00" d=" M 39.49 25.98 C 40.29 27.71 41.35 29.30 42.66 30.69 C 42.88 30.92 43.32 31.38 43.54 31.61 C 44.39 31.44 46.09 31.11 46.94 30.94 C 45.70 34.26 42.63 36.19 40.43 38.79 C 40.49 39.42 40.62 40.69 40.69 41.32 C 40.74 42.07 40.85 43.56 40.90 44.31 C 40.39 44.43 39.38 44.66 38.87 44.78 C 38.22 47.48 36.77 49.87 34.45 51.44 C 33.81 51.48 32.55 51.54 31.91 51.57 C 31.64 51.55 31.08 51.51 30.81 51.50 C 29.38 49.48 28.21 47.30 27.13 45.09 C 27.47 43.89 27.97 42.68 27.87 41.41 C 27.28 40.02 26.46 38.75 25.56 37.54 C 25.66 36.71 25.76 35.87 25.86 35.04 C 24.84 34.54 23.81 34.04 22.78 33.55 C 20.90 34.15 18.93 34.35 16.96 34.28 L 16.27 33.45 C 20.32 32.59 24.39 33.30 28.44 33.44 C 32.47 31.53 35.75 28.38 39.49 25.98 Z" />
<path fill="#abcf20" opacity="1.00" d=" M 43.86 43.88 C 44.39 43.69 45.45 43.30 45.98 43.10 C 45.26 44.45 44.59 45.83 44.13 47.30 C 43.65 47.42 42.69 47.66 42.21 47.78 C 42.68 46.45 43.24 45.15 43.86 43.88 Z" />
</g>
<g id="#00497fff">
<path fill="#00497f" opacity="1.00" d=" M 11.60 11.21 L 12.45 11.58 C 11.79 12.62 10.81 13.47 9.56 13.71 C 6.37 18.53 3.51 23.99 3.50 29.91 C 2.82 34.65 4.44 39.12 6.45 43.32 C 7.35 45.28 8.22 47.25 9.03 49.24 C 2.61 41.93 1.72 31.17 4.30 22.12 C 6.12 18.19 7.84 13.67 11.60 11.21 Z" />
<path fill="#00497f" opacity="1.00" d=" M 55.25 26.18 C 55.51 26.56 56.02 27.30 56.27 27.68 C 56.42 29.41 56.65 31.14 57.22 32.79 C 58.09 36.70 54.92 39.86 52.77 42.73 C 44.89 52.50 32.41 57.96 19.91 57.72 C 16.95 57.48 14.85 54.82 12.48 53.24 C 18.93 53.32 26.08 55.16 31.91 51.57 C 32.55 51.54 33.81 51.48 34.45 51.44 C 36.77 49.87 38.22 47.48 38.87 44.78 C 39.38 44.66 40.39 44.43 40.90 44.31 C 40.85 43.56 40.74 42.07 40.69 41.32 C 41.74 41.35 42.97 41.86 43.93 41.17 C 49.28 37.70 54.35 32.82 55.25 26.18 M 43.86 43.88 C 43.24 45.15 42.68 46.45 42.21 47.78 C 42.69 47.66 43.65 47.42 44.13 47.30 C 44.59 45.83 45.26 44.45 45.98 43.10 C 45.45 43.30 44.39 43.69 43.86 43.88 Z" />
</g>
<g id="#0c96d3ff">
<path fill="#0c96d3" opacity="1.00" d=" M 43.73 14.29 C 44.36 14.23 45.60 14.10 46.22 14.03 C 46.69 15.60 47.45 17.11 47.46 18.78 C 47.04 18.68 46.21 18.49 45.79 18.39 C 45.13 17.01 44.44 15.65 43.73 14.29 Z" />
<path fill="#0c96d3" opacity="1.00" d=" M 37.52 21.64 C 38.43 22.38 39.33 23.14 40.17 23.96 C 41.13 26.18 43.28 28.06 42.66 30.69 C 41.35 29.30 40.29 27.71 39.49 25.98 C 38.79 24.55 38.13 23.11 37.52 21.64 Z" />
<path fill="#0c96d3" opacity="1.00" d=" M 3.50 29.91 C 6.21 30.82 8.40 32.66 10.68 34.30 C 12.76 34.64 14.87 34.32 16.96 34.28 C 18.93 34.35 20.90 34.15 22.78 33.55 C 23.81 34.04 24.84 34.54 25.86 35.04 C 25.76 35.87 25.66 36.71 25.56 37.54 C 26.46 38.75 27.28 40.02 27.87 41.41 C 24.00 43.00 20.11 44.68 15.98 45.51 C 12.73 45.16 9.62 44.07 6.45 43.32 C 4.44 39.12 2.82 34.65 3.50 29.91 Z" />
</g>
<g id="#0062a6ff">
<path fill="#0062a6" opacity="1.00" d=" M 46.07 23.12 C 49.38 23.15 53.08 23.37 55.25 26.18 C 54.35 32.82 49.28 37.70 43.93 41.17 C 42.97 41.86 41.74 41.35 40.69 41.32 C 40.62 40.69 40.49 39.42 40.43 38.79 C 42.63 36.19 45.70 34.26 46.94 30.94 C 46.09 31.11 44.39 31.44 43.54 31.61 C 43.32 31.38 42.88 30.92 42.66 30.69 C 45.43 29.20 48.49 28.12 50.68 25.76 C 49.53 25.10 47.23 23.78 46.07 23.12 Z" />
<path fill="#0062a6" opacity="1.00" d=" M 15.98 45.51 C 20.11 44.68 24.00 43.00 27.87 41.41 C 27.97 42.68 27.47 43.89 27.13 45.09 C 28.21 47.30 29.38 49.48 30.81 51.50 C 31.08 51.51 31.64 51.55 31.91 51.57 C 26.08 55.16 18.93 53.32 12.48 53.24 C 11.24 52.11 9.72 50.86 9.03 49.24 C 8.22 47.25 7.35 45.28 6.45 43.32 C 9.62 44.07 12.73 45.16 15.98 45.51 Z" />
</g>
</svg>
