<?xml version="1.0" encoding="UTF-8" ?>
<!DOCTYPE svg PUBLIC "-//W3C//DTD SVG 1.1//EN" "http://www.w3.org/Graphics/SVG/1.1/DTD/svg11.dtd">
<svg width="64pt" height="64pt" viewBox="0 0 64 64" version="1.1" xmlns="http://www.w3.org/2000/svg">
<g id="#f7e572ff">
<path fill="#f7e572" opacity="1.00" d=" M 25.89 3.76 C 32.70 2.70 39.96 3.53 45.92 7.17 C 55.52 12.61 61.38 23.97 60.09 34.94 C 59.13 44.46 53.15 53.28 44.55 57.52 C 38.67 60.68 31.78 61.12 25.27 60.18 C 29.31 56.12 32.42 51.11 33.96 45.58 C 33.53 44.44 33.24 43.25 33.99 42.18 C 31.94 40.32 34.76 38.25 35.42 36.41 C 33.13 35.52 29.08 36.74 28.02 34.06 C 32.47 30.04 35.57 24.12 34.76 17.99 C 33.88 12.28 30.12 7.49 25.89 3.76 Z" />
</g>
</svg>
