<?xml version="1.0" encoding="UTF-8" ?>
<!DOCTYPE svg PUBLIC "-//W3C//DTD SVG 1.1//EN" "http://www.w3.org/Graphics/SVG/1.1/DTD/svg11.dtd">
<svg width="64pt" height="64pt" viewBox="0 0 64 64" version="1.1" xmlns="http://www.w3.org/2000/svg">
<g id="#94884deb">
<path fill="#94884d" opacity="0.92" d=" M 16.33 8.09 C 20.84 4.49 26.81 3.25 32.47 3.33 C 30.76 4.83 28.84 6.07 26.83 7.15 L 26.05 6.71 C 25.20 6.53 24.34 6.40 23.47 6.30 C 22.98 6.33 21.99 6.40 21.50 6.44 C 19.74 6.85 18.01 7.42 16.33 8.09 Z" />
</g>
<g id="#575a6cff">
<path fill="#575a6c" opacity="1.00" d=" M 32.47 3.33 L 32.75 3.10 L 33.23 3.37 C 36.83 5.82 41.89 6.76 43.89 11.05 C 45.56 14.48 46.75 18.20 47.12 22.01 C 47.43 24.26 45.49 25.66 44.46 27.37 C 44.19 29.59 44.59 31.86 44.14 34.07 C 43.54 35.93 42.24 37.43 41.15 39.02 C 40.19 38.14 39.23 37.25 38.27 36.37 C 37.38 37.67 36.62 39.06 36.02 40.52 C 35.45 40.75 34.32 41.21 33.75 41.44 C 32.47 41.48 31.19 41.47 29.91 41.44 C 28.53 39.52 26.42 37.57 23.88 38.57 C 22.17 40.28 20.99 42.44 19.62 44.41 C 19.17 43.17 18.73 41.92 18.32 40.67 C 19.48 37.00 19.89 33.21 20.01 29.39 C 21.49 29.34 22.96 29.26 24.43 29.18 C 24.12 30.55 23.82 31.91 23.52 33.28 C 25.53 34.09 27.96 34.20 29.78 32.86 C 32.09 30.77 33.27 27.26 36.77 26.84 C 36.18 23.64 36.87 20.50 37.52 17.38 C 36.25 12.05 31.16 9.61 26.83 7.15 C 28.84 6.07 30.76 4.83 32.47 3.33 Z" />
</g>
<g id="#42454fff">
<path fill="#42454f" opacity="1.00" d=" M 33.23 3.37 C 38.45 3.52 43.79 5.09 47.97 8.25 C 49.81 12.11 53.47 15.37 53.33 19.94 C 52.92 28.48 51.71 37.48 46.73 44.68 C 45.45 46.41 45.60 48.72 44.54 50.53 C 41.92 53.27 37.95 53.88 34.91 55.98 C 33.51 57.20 32.94 59.82 30.68 59.52 C 29.62 59.26 28.57 58.98 27.52 58.71 C 25.44 55.95 23.29 53.19 21.78 50.06 C 22.61 49.02 23.43 47.96 24.25 46.91 C 27.79 47.69 31.38 46.94 34.89 46.33 C 34.00 44.84 33.52 43.18 33.75 41.44 C 34.32 41.21 35.45 40.75 36.02 40.52 C 36.62 39.06 37.38 37.67 38.27 36.37 C 39.23 37.25 40.19 38.14 41.15 39.02 C 42.24 37.43 43.54 35.93 44.14 34.07 C 44.59 31.86 44.19 29.59 44.46 27.37 C 45.49 25.66 47.43 24.26 47.12 22.01 C 46.75 18.20 45.56 14.48 43.89 11.05 C 41.89 6.76 36.83 5.82 33.23 3.37 Z" />
</g>
<g id="#898b98ff">
<path fill="#898b98" opacity="1.00" d=" M 23.47 6.30 C 24.34 6.40 25.20 6.53 26.05 6.71 C 21.90 10.28 22.06 16.21 22.33 21.21 C 24.04 19.34 24.52 16.83 24.84 14.41 C 26.68 14.65 28.65 14.69 30.30 15.68 C 31.64 17.54 32.23 19.84 32.69 22.05 C 32.18 23.41 30.72 24.06 29.68 24.97 C 29.35 23.78 29.03 22.58 28.71 21.39 C 28.00 22.08 27.29 22.77 26.57 23.46 C 23.65 23.60 19.48 22.64 18.08 26.08 C 17.25 29.18 17.44 32.45 16.74 35.57 C 16.00 37.09 15.20 38.57 14.49 40.10 C 14.52 37.62 14.62 35.13 14.83 32.66 C 16.07 28.72 16.86 24.67 17.50 20.60 C 18.28 15.40 21.23 10.94 23.47 6.30 Z" />
</g>
<g id="#f2e585ff">
<path fill="#f2e585" opacity="1.00" d=" M 16.33 8.09 C 18.01 7.42 19.74 6.85 21.50 6.44 C 20.77 7.43 20.06 8.43 19.39 9.46 C 12.34 11.57 8.06 19.04 6.84 25.94 C 9.15 28.98 9.48 32.95 11.12 36.33 C 11.51 36.37 12.28 36.43 12.66 36.46 C 12.82 36.47 13.16 36.48 13.32 36.49 C 13.88 35.23 14.38 33.95 14.83 32.66 C 14.62 35.13 14.52 37.62 14.49 40.10 C 14.47 41.34 14.52 42.57 14.62 43.80 C 12.60 42.74 10.44 41.87 8.62 40.47 C 7.20 37.82 6.49 34.75 4.24 32.60 C 3.69 26.78 5.99 21.36 8.27 16.16 C 10.22 12.88 13.11 10.13 16.33 8.09 Z" />
</g>
<g id="#c9c8afff">
<path fill="#c9c8af" opacity="1.00" d=" M 21.50 6.44 C 21.99 6.40 22.98 6.33 23.47 6.30 C 21.23 10.94 18.28 15.40 17.50 20.60 C 16.86 24.67 16.07 28.72 14.83 32.66 C 14.38 33.95 13.88 35.23 13.32 36.49 C 13.16 36.48 12.82 36.47 12.66 36.46 C 13.73 30.96 12.74 25.16 14.70 19.83 C 15.90 16.22 17.60 12.80 19.39 9.46 C 20.06 8.43 20.77 7.43 21.50 6.44 Z" />
</g>
<g id="#6f7384ff">
<path fill="#6f7384" opacity="1.00" d=" M 22.33 21.21 C 22.06 16.21 21.90 10.28 26.05 6.71 L 26.83 7.15 C 31.16 9.61 36.25 12.05 37.52 17.38 C 36.87 20.50 36.18 23.64 36.77 26.84 C 33.27 27.26 32.09 30.77 29.78 32.86 C 27.96 34.20 25.53 34.09 23.52 33.28 C 23.82 31.91 24.12 30.55 24.43 29.18 C 22.96 29.26 21.49 29.34 20.01 29.39 C 19.89 33.21 19.48 37.00 18.32 40.67 L 17.11 41.88 C 16.74 39.80 16.52 37.68 16.74 35.57 C 17.44 32.45 17.25 29.18 18.08 26.08 C 19.48 22.64 23.65 23.60 26.57 23.46 C 27.29 22.77 28.00 22.08 28.71 21.39 C 29.03 22.58 29.35 23.78 29.68 24.97 C 30.72 24.06 32.18 23.41 32.69 22.05 C 32.23 19.84 31.64 17.54 30.30 15.68 C 28.65 14.69 26.68 14.65 24.84 14.41 C 24.52 16.83 24.04 19.34 22.33 21.21 Z" />
</g>
<g id="#f5efb0ff">
<path fill="#f5efb0" opacity="1.00" d=" M 6.84 25.94 C 8.06 19.04 12.34 11.57 19.39 9.46 C 17.60 12.80 15.90 16.22 14.70 19.83 C 12.74 25.16 13.73 30.96 12.66 36.46 C 12.28 36.43 11.51 36.37 11.12 36.33 C 9.48 32.95 9.15 28.98 6.84 25.94 Z" />
</g>
<g id="#2b2d35ff">
<path fill="#2b2d35" opacity="1.00" d=" M 47.97 8.25 C 59.48 15.29 63.95 31.22 58.43 43.42 C 53.28 55.70 38.77 63.47 25.76 59.97 L 26.45 59.89 C 27.86 59.76 29.27 59.64 30.68 59.52 C 32.94 59.82 33.51 57.20 34.91 55.98 C 37.95 53.88 41.92 53.27 44.54 50.53 C 45.60 48.72 45.45 46.41 46.73 44.68 C 51.71 37.48 52.92 28.48 53.33 19.94 C 53.47 15.37 49.81 12.11 47.97 8.25 Z" />
</g>
<g id="#a99035e5">
<path fill="#a99035" opacity="0.90" d=" M 3.49 27.89 C 4.24 23.73 5.37 19.37 8.27 16.16 C 5.99 21.36 3.69 26.78 4.24 32.60 C 3.70 37.22 5.85 41.25 8.34 44.92 C 9.41 49.66 13.10 53.13 17.40 55.08 C 17.79 54.69 18.17 54.29 18.56 53.90 C 19.81 55.43 21.13 56.90 22.54 58.28 C 22.26 57.20 21.96 56.12 21.64 55.06 C 23.33 56.65 25.10 58.41 27.52 58.71 C 28.57 58.98 29.62 59.26 30.68 59.52 C 29.27 59.64 27.86 59.76 26.45 59.89 C 11.75 58.18 0.98 42.27 3.49 27.89 Z" />
</g>
<g id="#eed866ff">
<path fill="#eed866" opacity="1.00" d=" M 4.24 32.60 C 6.49 34.75 7.20 37.82 8.62 40.47 C 10.44 41.87 12.60 42.74 14.62 43.80 C 15.61 47.55 16.89 51.23 17.40 55.08 C 13.10 53.13 9.41 49.66 8.34 44.92 C 5.85 41.25 3.70 37.22 4.24 32.60 Z" />
</g>
<g id="#b6ac68ff">
<path fill="#b6ac68" opacity="1.00" d=" M 14.49 40.10 C 15.20 38.57 16.00 37.09 16.74 35.57 C 16.52 37.68 16.74 39.80 17.11 41.88 C 17.68 46.54 19.28 51.00 21.64 55.06 C 21.96 56.12 22.26 57.20 22.54 58.28 C 21.13 56.90 19.81 55.43 18.56 53.90 C 18.17 54.29 17.79 54.69 17.40 55.08 C 16.89 51.23 15.61 47.55 14.62 43.80 C 14.52 42.57 14.47 41.34 14.49 40.10 Z" />
</g>
<g id="#4d505eff">
<path fill="#4d505e" opacity="1.00" d=" M 19.62 44.41 C 20.99 42.44 22.17 40.28 23.88 38.57 C 26.42 37.57 28.53 39.52 29.91 41.44 C 31.19 41.47 32.47 41.48 33.75 41.44 C 33.52 43.18 34.00 44.84 34.89 46.33 C 31.38 46.94 27.79 47.69 24.25 46.91 C 23.43 47.96 22.61 49.02 21.78 50.06 C 20.98 48.21 20.31 46.31 19.62 44.41 Z" />
</g>
<g id="#777156ff">
<path fill="#777156" opacity="1.00" d=" M 17.11 41.88 L 18.32 40.67 C 18.73 41.92 19.17 43.17 19.62 44.41 C 20.31 46.31 20.98 48.21 21.78 50.06 C 23.29 53.19 25.44 55.95 27.52 58.71 C 25.10 58.41 23.33 56.65 21.64 55.06 C 19.28 51.00 17.68 46.54 17.11 41.88 Z" />
</g>
</svg>
