<?xml version="1.0" encoding="UTF-8" ?>
<!DOCTYPE svg PUBLIC "-//W3C//DTD SVG 1.1//EN" "http://www.w3.org/Graphics/SVG/1.1/DTD/svg11.dtd">
<svg width="64pt" height="64pt" viewBox="0 0 64 64" version="1.1" xmlns="http://www.w3.org/2000/svg">
<g id="#ec851fff">
<path fill="#ec851f" opacity="1.00" d=" M 32.20 4.38 C 36.60 3.44 41.30 4.88 45.09 7.11 C 43.23 7.26 41.37 7.29 39.52 7.36 C 40.51 9.01 41.47 10.68 42.15 12.49 C 39.59 8.91 35.74 6.79 32.20 4.38 Z" />
</g>
<g id="#f4c032ff">
<path fill="#f4c032" opacity="1.00" d=" M 39.52 7.36 C 41.37 7.29 43.23 7.26 45.09 7.11 C 54.18 11.62 60.55 21.74 59.95 32.00 C 60.53 41.35 55.26 50.48 47.54 55.54 C 40.12 60.66 30.16 61.23 21.80 58.35 C 12.94 54.90 6.00 46.80 4.33 37.41 C 4.20 35.67 3.76 33.84 4.53 32.18 C 8.02 39.74 15.37 45.96 24.00 45.88 C 32.02 46.45 39.92 41.68 43.57 34.60 C 47.26 27.72 46.57 18.87 42.15 12.49 C 41.47 10.68 40.51 9.01 39.52 7.36 M 45.18 11.37 C 45.81 12.85 46.66 14.22 47.37 15.66 C 47.17 20.23 49.61 24.79 47.67 29.25 C 45.27 39.83 35.02 48.41 24.00 47.63 C 18.60 47.70 13.85 44.80 9.23 42.38 C 9.04 46.99 12.75 50.24 15.98 52.94 C 24.04 59.35 36.12 60.15 44.92 54.76 C 51.19 51.50 55.45 45.16 57.26 38.45 C 57.86 31.99 58.18 24.75 54.27 19.21 C 53.98 19.36 53.40 19.67 53.11 19.82 C 51.30 16.41 48.75 13.04 45.18 11.37 Z" />
</g>
<g id="#fdf7caff">
<path fill="#fdf7ca" opacity="1.00" d=" M 45.18 11.37 C 48.75 13.04 51.30 16.41 53.11 19.82 C 56.37 26.09 56.60 33.65 54.05 40.21 C 52.16 37.86 50.17 35.58 48.57 33.01 C 50.25 27.35 49.99 21.00 47.37 15.66 C 46.66 14.22 45.81 12.85 45.18 11.37 Z" />
</g>
<g id="#f7e34aff">
<path fill="#f7e34a" opacity="1.00" d=" M 47.37 15.66 C 49.99 21.00 50.25 27.35 48.57 33.01 C 47.16 36.66 45.28 40.14 42.63 43.04 C 40.39 44.89 38.11 46.68 35.58 48.12 C 31.56 49.49 27.13 49.74 23.40 51.90 C 27.85 56.77 35.60 55.69 41.13 53.38 C 43.96 52.16 46.65 50.49 48.71 48.18 C 50.84 45.79 52.95 43.26 54.05 40.21 C 56.60 33.65 56.37 26.09 53.11 19.82 C 53.40 19.67 53.98 19.36 54.27 19.21 C 58.18 24.75 57.86 31.99 57.26 38.45 C 55.45 45.16 51.19 51.50 44.92 54.76 C 36.12 60.15 24.04 59.35 15.98 52.94 C 12.75 50.24 9.04 46.99 9.23 42.38 C 13.85 44.80 18.60 47.70 24.00 47.63 C 35.02 48.41 45.27 39.83 47.67 29.25 C 49.61 24.79 47.17 20.23 47.37 15.66 Z" />
</g>
<g id="#fbf5a5ff">
<path fill="#fbf5a5" opacity="1.00" d=" M 42.63 43.04 C 45.28 40.14 47.16 36.66 48.57 33.01 C 50.17 35.58 52.16 37.86 54.05 40.21 C 52.95 43.26 50.84 45.79 48.71 48.18 C 46.58 46.59 44.56 44.86 42.63 43.04 Z" />
</g>
<g id="#faf284ff">
<path fill="#faf284" opacity="1.00" d=" M 35.58 48.12 C 38.11 46.68 40.39 44.89 42.63 43.04 C 44.56 44.86 46.58 46.59 48.71 48.18 C 46.65 50.49 43.96 52.16 41.13 53.38 C 38.48 52.56 35.97 51.13 35.58 48.12 Z" />
</g>
<g id="#f9f06aff">
<path fill="#f9f06a" opacity="1.00" d=" M 23.40 51.90 C 27.13 49.74 31.56 49.49 35.58 48.12 C 35.97 51.13 38.48 52.56 41.13 53.38 C 35.60 55.69 27.85 56.77 23.40 51.90 Z" />
</g>
</svg>
