<?xml version="1.0" encoding="UTF-8" ?>
<!DOCTYPE svg PUBLIC "-//W3C//DTD SVG 1.1//EN" "http://www.w3.org/Graphics/SVG/1.1/DTD/svg11.dtd">
<svg width="64pt" height="64pt" viewBox="0 0 64 64" version="1.1" xmlns="http://www.w3.org/2000/svg">
<g id="#585b6dff">
<path fill="#585b6d" opacity="1.00" d=" M 18.86 6.38 C 22.01 4.91 25.33 3.83 28.80 3.45 C 27.78 8.09 25.26 12.16 23.76 16.61 C 23.86 19.17 25.00 21.52 25.72 23.95 C 24.74 25.64 24.18 27.55 22.95 29.10 C 24.65 29.61 26.43 29.75 28.14 30.24 C 28.19 34.24 29.01 38.15 30.24 41.95 C 30.57 48.20 30.77 54.46 30.53 60.72 L 30.49 60.23 C 30.25 55.86 29.29 51.17 25.75 48.24 C 22.68 45.90 22.39 41.83 20.19 38.89 C 17.85 35.24 15.76 31.32 14.56 27.15 C 14.53 20.03 16.75 13.12 18.86 6.38 Z" />
</g>
<g id="#7d808bff">
<path fill="#7d808b" opacity="1.00" d=" M 28.80 3.45 C 29.79 3.37 30.78 3.28 31.77 3.18 C 30.40 12.19 28.18 21.50 31.21 30.45 C 30.95 34.29 30.47 38.11 30.24 41.95 C 29.01 38.15 28.19 34.24 28.14 30.24 C 26.43 29.75 24.65 29.61 22.95 29.10 C 24.18 27.55 24.74 25.64 25.72 23.95 C 25.00 21.52 23.86 19.17 23.76 16.61 C 25.26 12.16 27.78 8.09 28.80 3.45 Z" />
</g>
<g id="#bbbcaeff">
<path fill="#bbbcae" opacity="1.00" d=" M 31.77 3.18 C 32.15 3.26 32.92 3.41 33.30 3.48 C 33.45 4.27 33.75 5.86 33.90 6.65 C 33.51 14.17 32.03 21.79 34.04 29.21 C 33.82 33.19 33.56 37.16 33.46 41.14 C 33.38 42.83 33.20 44.50 33.09 46.19 C 32.33 40.95 32.85 35.56 31.21 30.45 C 28.18 21.50 30.40 12.19 31.77 3.18 Z" />
</g>
<g id="#fef78eff">
<path fill="#fef78e" opacity="1.00" d=" M 33.30 3.48 C 38.42 3.41 43.31 5.28 47.64 7.90 L 47.64 7.96 C 47.64 11.83 49.12 15.67 48.48 19.51 C 46.50 23.42 43.86 26.96 41.57 30.69 C 40.62 30.65 39.68 30.60 38.74 30.50 C 38.79 29.44 39.64 28.54 39.53 27.49 C 38.80 26.40 37.93 25.41 37.10 24.39 C 38.32 23.15 39.27 21.68 40.14 20.18 C 39.91 19.44 39.68 18.71 39.45 17.97 C 40.53 17.87 41.61 17.77 42.69 17.68 C 41.98 17.28 41.28 16.88 40.58 16.48 C 39.63 14.08 38.65 11.33 35.68 11.01 C 35.06 9.57 34.45 8.12 33.90 6.65 C 33.75 5.86 33.45 4.27 33.30 3.48 Z" />
</g>
<g id="#434653ff">
<path fill="#434653" opacity="1.00" d=" M 9.93 13.49 C 12.51 10.65 15.48 8.21 18.86 6.38 C 16.75 13.12 14.53 20.03 14.56 27.15 C 15.76 31.32 17.85 35.24 20.19 38.89 C 22.39 41.83 22.68 45.90 25.75 48.24 C 29.29 51.17 30.25 55.86 30.49 60.23 C 30.04 60.30 29.16 60.44 28.72 60.51 C 26.35 56.14 21.88 53.87 18.52 50.48 C 15.73 45.63 12.08 40.84 11.84 35.04 C 11.72 31.68 9.83 28.85 8.73 25.79 C 8.65 21.67 9.81 17.61 9.93 13.49 Z" />
</g>
<g id="#faf7b4ff">
<path fill="#faf7b4" opacity="1.00" d=" M 33.90 6.65 C 34.45 8.12 35.06 9.57 35.68 11.01 C 38.65 11.33 39.63 14.08 40.58 16.48 C 41.28 16.88 41.98 17.28 42.69 17.68 C 41.61 17.77 40.53 17.87 39.45 17.97 C 39.68 18.71 39.91 19.44 40.14 20.18 C 39.27 21.68 38.32 23.15 37.10 24.39 C 37.93 25.41 38.80 26.40 39.53 27.49 C 39.64 28.54 38.79 29.44 38.74 30.50 C 37.15 30.16 35.58 29.72 34.04 29.21 C 32.03 21.79 33.51 14.17 33.90 6.65 Z" />
</g>
<g id="#f4e77eff">
<path fill="#f4e77e" opacity="1.00" d=" M 47.64 7.96 C 50.04 9.63 52.25 11.54 54.19 13.72 C 53.75 17.44 52.01 20.68 49.50 23.40 C 49.33 25.56 50.13 27.65 50.60 29.73 C 47.23 33.11 45.02 37.37 42.22 41.18 C 40.60 39.85 39.03 38.47 37.50 37.03 C 37.00 38.43 36.50 39.84 36.00 41.24 C 35.15 41.21 34.31 41.18 33.46 41.14 C 33.56 37.16 33.82 33.19 34.04 29.21 C 35.58 29.72 37.15 30.16 38.74 30.50 C 39.68 30.60 40.62 30.65 41.57 30.69 C 43.86 26.96 46.50 23.42 48.48 19.51 C 49.12 15.67 47.64 11.83 47.64 7.96 Z" />
</g>
<g id="#2f313aff">
<path fill="#2f313a" opacity="1.00" d=" M 3.36 34.93 C 2.51 27.25 5.04 19.42 9.93 13.49 C 9.81 17.61 8.65 21.67 8.73 25.79 C 9.83 28.85 11.72 31.68 11.84 35.04 C 12.08 40.84 15.73 45.63 18.52 50.48 C 21.88 53.87 26.35 56.14 28.72 60.51 C 15.62 59.39 4.48 47.98 3.36 34.93 Z" />
</g>
<g id="#f1db70ff">
<path fill="#f1db70" opacity="1.00" d=" M 54.19 13.72 C 54.90 14.71 55.63 15.69 56.38 16.66 C 56.32 19.75 55.37 22.72 54.43 25.62 C 51.99 31.30 51.27 37.48 50.05 43.48 C 48.70 43.47 47.35 43.48 45.99 43.48 C 45.87 45.51 45.54 47.53 45.08 49.51 C 43.34 50.69 41.54 51.78 39.74 52.84 C 38.12 52.35 36.50 51.86 34.88 51.38 C 34.74 52.52 34.60 53.67 34.47 54.82 L 33.57 54.98 C 33.59 52.04 33.30 49.12 33.09 46.19 C 33.20 44.50 33.38 42.83 33.46 41.14 C 34.31 41.18 35.15 41.21 36.00 41.24 C 36.50 39.84 37.00 38.43 37.50 37.03 C 39.03 38.47 40.60 39.85 42.22 41.18 C 45.02 37.37 47.23 33.11 50.60 29.73 C 50.13 27.65 49.33 25.56 49.50 23.40 C 52.01 20.68 53.75 17.44 54.19 13.72 Z" />
</g>
<g id="#e9c65bff">
<path fill="#e9c65b" opacity="1.00" d=" M 56.38 16.66 C 62.24 26.10 62.07 38.67 55.97 47.95 L 55.87 47.97 C 53.52 48.37 50.89 48.30 48.90 49.80 C 46.56 51.58 45.00 54.13 43.34 56.50 C 43.09 55.85 42.59 54.56 42.34 53.92 C 41.47 55.59 40.49 57.21 39.39 58.74 C 38.31 58.82 37.22 58.90 36.14 58.98 C 35.58 57.59 35.02 56.21 34.47 54.82 C 34.60 53.67 34.74 52.52 34.88 51.38 C 36.50 51.86 38.12 52.35 39.74 52.84 C 41.54 51.78 43.34 50.69 45.08 49.51 C 45.54 47.53 45.87 45.51 45.99 43.48 C 47.35 43.48 48.70 43.47 50.05 43.48 C 51.27 37.48 51.99 31.30 54.43 25.62 C 55.37 22.72 56.32 19.75 56.38 16.66 Z" />
</g>
<g id="#a29368ff">
<path fill="#a29368" opacity="1.00" d=" M 31.21 30.45 C 32.85 35.56 32.33 40.95 33.09 46.19 C 33.30 49.12 33.59 52.04 33.57 54.98 C 33.56 56.88 33.52 58.79 33.49 60.69 C 32.75 60.70 31.27 60.71 30.53 60.72 C 30.77 54.46 30.57 48.20 30.24 41.95 C 30.47 38.11 30.95 34.29 31.21 30.45 Z" />
</g>
<g id="#e1b751ff">
<path fill="#e1b751" opacity="1.00" d=" M 48.90 49.80 C 50.89 48.30 53.52 48.37 55.87 47.97 C 50.91 55.38 42.45 60.33 33.49 60.69 C 33.52 58.79 33.56 56.88 33.57 54.98 L 34.47 54.82 C 35.02 56.21 35.58 57.59 36.14 58.98 C 37.22 58.90 38.31 58.82 39.39 58.74 C 40.49 57.21 41.47 55.59 42.34 53.92 C 42.59 54.56 43.09 55.85 43.34 56.50 C 45.00 54.13 46.56 51.58 48.90 49.80 Z" />
</g>
</svg>
