<?xml version="1.0" encoding="UTF-8" ?>
<!DOCTYPE svg PUBLIC "-//W3C//DTD SVG 1.1//EN" "http://www.w3.org/Graphics/SVG/1.1/DTD/svg11.dtd">
<svg width="64pt" height="64pt" viewBox="0 0 64 64" version="1.1" xmlns="http://www.w3.org/2000/svg">
<g id="#6487a5ff">
<path fill="#6487a5" opacity="1.00" d=" M 24.14 3.85 C 28.98 1.84 34.55 1.66 39.42 3.70 C 48.68 6.19 56.60 13.34 59.59 22.51 C 61.47 27.32 62.84 32.91 60.76 37.87 C 58.32 49.11 49.13 58.30 37.88 60.71 C 34.26 62.13 29.75 62.11 26.12 60.72 C 14.89 58.29 5.67 49.13 3.25 37.88 C 1.27 33.21 2.39 27.87 4.15 23.29 C 6.94 13.95 14.76 6.45 24.14 3.85 M 20.55 19.40 C 23.68 20.20 26.88 20.71 30.11 20.89 C 29.94 16.03 30.50 11.13 29.67 6.31 C 24.20 8.23 22.79 14.69 20.55 19.40 M 33.92 6.52 C 33.89 11.31 33.91 16.10 33.89 20.89 C 37.12 20.71 40.32 20.20 43.45 19.40 C 41.90 15.52 40.31 11.55 37.65 8.27 C 36.87 6.94 35.22 6.95 33.92 6.52 M 12.17 15.98 C 13.74 16.71 15.30 17.47 16.86 18.22 C 18.06 14.84 19.59 11.59 21.61 8.62 C 18.16 10.65 14.81 12.93 12.17 15.98 M 42.38 8.62 C 44.40 11.58 45.94 14.83 47.13 18.20 C 48.69 17.45 50.25 16.70 51.81 15.95 C 49.17 12.92 45.84 10.64 42.38 8.62 M 10.00 19.12 C 8.26 22.50 7.13 26.14 6.60 29.91 C 9.40 29.95 12.20 29.94 14.99 29.85 C 15.16 27.22 15.42 24.60 15.78 21.99 C 13.82 21.10 11.90 20.11 10.00 19.12 M 48.21 21.97 C 48.58 24.59 48.84 27.22 49.02 29.86 C 51.81 29.94 54.60 29.94 57.39 29.92 C 56.88 26.13 55.72 22.47 53.99 19.07 C 52.08 20.08 50.17 21.07 48.21 21.97 M 33.87 24.81 C 33.88 26.51 33.88 28.21 33.89 29.91 C 37.67 29.94 41.46 29.94 45.24 29.92 C 44.96 27.68 44.65 25.44 44.37 23.20 C 40.94 24.16 37.42 24.64 33.87 24.81 M 19.63 23.24 C 19.34 25.47 19.04 27.69 18.75 29.92 C 22.54 29.94 26.33 29.94 30.11 29.91 C 30.12 28.20 30.12 26.50 30.13 24.80 C 26.58 24.65 23.06 24.17 19.63 23.24 M 6.57 33.81 C 7.13 38.55 8.65 43.18 11.49 47.05 C 13.17 46.28 14.85 45.51 16.54 44.75 C 15.62 41.15 15.13 37.47 14.73 33.78 C 12.01 33.81 9.29 33.81 6.57 33.81 M 18.75 33.82 C 19.05 37.08 19.51 40.33 20.26 43.52 C 23.51 42.83 26.80 42.36 30.12 42.15 C 30.19 39.33 30.24 36.50 29.77 33.71 C 26.10 33.86 22.42 33.82 18.75 33.82 M 34.23 33.71 C 33.75 36.50 33.82 39.33 33.88 42.15 C 37.20 42.35 40.51 42.77 43.76 43.52 C 44.49 40.32 44.96 37.08 45.26 33.82 C 41.58 33.82 37.90 33.86 34.23 33.71 M 49.28 33.78 C 48.86 37.45 48.38 41.11 47.45 44.69 C 49.15 45.47 50.84 46.25 52.53 47.03 C 55.36 43.16 56.87 38.55 57.43 33.81 C 54.71 33.81 51.99 33.81 49.28 33.78 M 21.97 46.99 C 23.15 51.15 25.17 56.99 30.15 57.51 C 30.15 53.71 30.14 49.91 30.15 46.11 C 27.42 46.32 24.69 46.62 21.97 46.99 M 33.85 46.12 C 33.86 49.91 33.85 53.71 33.86 57.51 C 35.18 57.10 36.90 57.17 37.66 55.79 C 39.63 53.15 41.51 50.28 42.05 46.98 C 39.32 46.60 36.59 46.32 33.85 46.12 M 13.91 50.00 C 16.39 52.12 19.10 53.93 21.92 55.56 C 20.30 53.35 18.93 50.96 17.88 48.43 C 16.56 48.96 15.23 49.48 13.91 50.00 M 46.12 48.42 C 45.07 50.96 43.71 53.35 42.08 55.56 C 44.91 53.94 47.62 52.11 50.10 49.99 C 48.77 49.48 47.44 48.95 46.12 48.42 Z" />
</g>
</svg>
