<?xml version="1.0" encoding="UTF-8" ?>
<!DOCTYPE svg PUBLIC "-//W3C//DTD SVG 1.1//EN" "http://www.w3.org/Graphics/SVG/1.1/DTD/svg11.dtd">
<svg width="64pt" height="64pt" viewBox="0 0 64 64" version="1.1" xmlns="http://www.w3.org/2000/svg">
<g id="#ccbd60f4">
<path fill="#ccbd60" opacity="0.96" d=" M 12.99 10.27 C 18.54 5.95 25.51 2.68 32.69 3.56 L 32.70 2.73 L 33.39 3.64 L 33.56 4.40 L 32.43 5.22 C 31.42 5.31 30.41 5.34 29.40 5.37 C 25.02 5.07 20.62 6.58 17.07 9.07 C 16.90 9.51 16.56 10.39 16.38 10.83 C 15.82 10.90 14.69 11.05 14.13 11.13 C 13.84 10.91 13.27 10.48 12.99 10.27 Z" />
</g>
<g id="#575a6aff">
<path fill="#575a6a" opacity="1.00" d=" M 33.39 3.64 C 35.06 3.18 36.94 3.63 38.54 4.15 C 42.23 6.48 46.83 8.03 48.57 12.44 C 51.70 16.77 50.09 22.14 50.71 27.05 C 51.19 30.19 49.08 32.88 48.53 35.87 C 47.90 39.34 44.76 41.57 43.91 44.97 C 43.14 48.78 38.96 49.99 36.75 52.77 C 35.49 54.73 34.62 56.91 33.59 59.00 C 33.46 56.15 33.37 53.29 33.51 50.44 C 35.54 43.59 33.43 36.27 35.44 29.43 C 36.71 29.45 37.98 29.47 39.25 29.49 C 39.89 27.07 37.27 25.32 37.39 22.93 C 37.06 20.40 39.13 18.47 39.39 16.07 C 38.38 14.06 36.79 12.29 36.48 9.98 C 36.13 7.82 35.35 5.78 33.56 4.40 L 33.39 3.64 Z" />
</g>
<g id="#393b46ff">
<path fill="#393b46" opacity="1.00" d=" M 38.54 4.15 C 45.04 5.32 51.12 9.44 54.87 14.81 C 55.44 19.68 58.57 23.97 58.30 28.99 C 57.42 37.22 54.83 45.73 48.57 51.51 C 45.86 55.02 40.96 55.98 38.66 59.83 L 38.53 60.01 C 36.66 60.41 34.75 60.67 32.84 60.81 C 33.03 60.36 33.40 59.46 33.59 59.00 C 34.62 56.91 35.49 54.73 36.75 52.77 C 38.96 49.99 43.14 48.78 43.91 44.97 C 44.76 41.57 47.90 39.34 48.53 35.87 C 49.08 32.88 51.19 30.19 50.71 27.05 C 50.09 22.14 51.70 16.77 48.57 12.44 C 46.83 8.03 42.23 6.48 38.54 4.15 Z" />
</g>
<g id="#c8c6adff">
<path fill="#c8c6ad" opacity="1.00" d=" M 29.40 5.37 C 30.41 5.34 31.42 5.31 32.43 5.22 C 32.98 10.49 33.84 15.72 33.58 21.05 C 34.30 27.35 30.59 33.33 32.00 39.60 L 30.51 39.78 C 30.60 37.19 30.68 34.61 30.59 32.02 C 30.44 34.17 30.35 36.33 30.14 38.48 L 29.33 38.65 C 29.39 37.28 29.41 35.92 29.40 34.56 C 29.10 31.43 28.99 28.25 29.93 25.21 C 30.88 21.38 30.92 17.26 29.82 13.46 C 29.94 10.75 30.19 8.02 29.40 5.37 Z" />
</g>
<g id="#868590ff">
<path fill="#868590" opacity="1.00" d=" M 32.43 5.22 L 33.56 4.40 C 35.35 5.78 36.13 7.82 36.48 9.98 C 36.79 12.29 38.38 14.06 39.39 16.07 C 39.13 18.47 37.06 20.40 37.39 22.93 C 37.27 25.32 39.89 27.07 39.25 29.49 C 37.98 29.47 36.71 29.45 35.44 29.43 C 33.43 36.27 35.54 43.59 33.51 50.44 L 32.67 49.76 C 32.60 46.37 32.84 42.93 32.00 39.60 C 30.59 33.33 34.30 27.35 33.58 21.05 C 33.84 15.72 32.98 10.49 32.43 5.22 Z" />
</g>
<g id="#faf3b1ff">
<path fill="#faf3b1" opacity="1.00" d=" M 17.07 9.07 C 20.62 6.58 25.02 5.07 29.40 5.37 C 30.19 8.02 29.94 10.75 29.82 13.46 C 28.49 12.99 27.53 12.00 26.77 10.84 C 24.68 10.75 22.68 10.16 20.65 9.78 C 16.46 11.77 12.65 16.14 13.03 21.04 C 13.63 23.50 14.30 25.94 14.55 28.47 C 14.95 28.85 15.77 29.60 16.18 29.97 C 16.89 28.39 17.61 26.82 18.33 25.24 C 19.63 25.95 20.94 26.66 22.25 27.37 C 24.21 25.87 26.10 23.98 28.64 23.56 C 28.96 23.97 29.60 24.79 29.93 25.21 C 28.99 28.25 29.10 31.43 29.40 34.56 C 28.32 35.52 27.27 36.51 26.24 37.53 C 24.59 36.54 22.95 35.51 21.32 34.49 C 19.65 34.89 18.00 35.49 16.27 35.62 C 15.26 34.71 14.01 34.28 12.68 34.10 C 11.47 32.45 10.13 30.90 8.42 29.76 C 8.44 29.34 8.48 28.49 8.50 28.06 L 9.68 28.52 C 9.40 27.22 8.91 25.86 9.45 24.55 C 6.96 20.69 10.30 15.52 13.92 13.40 C 13.97 12.83 14.08 11.69 14.13 11.13 C 14.69 11.05 15.82 10.90 16.38 10.83 C 16.56 10.39 16.90 9.51 17.07 9.07 Z" />
</g>
<g id="#faf6cdff">
<path fill="#faf6cd" opacity="1.00" d=" M 20.65 9.78 C 22.68 10.16 24.68 10.75 26.77 10.84 C 27.53 12.00 28.49 12.99 29.82 13.46 C 30.92 17.26 30.88 21.38 29.93 25.21 C 29.60 24.79 28.96 23.97 28.64 23.56 C 26.10 23.98 24.21 25.87 22.25 27.37 C 20.94 26.66 19.63 25.95 18.33 25.24 C 17.61 26.82 16.89 28.39 16.18 29.97 C 15.77 29.60 14.95 28.85 14.55 28.47 C 14.30 25.94 13.63 23.50 13.03 21.04 C 12.65 16.14 16.46 11.77 20.65 9.78 Z" />
</g>
<g id="#f5e67eff">
<path fill="#f5e67e" opacity="1.00" d=" M 11.30 10.73 C 12.00 10.83 13.42 11.03 14.13 11.13 C 14.08 11.69 13.97 12.83 13.92 13.40 C 10.30 15.52 6.96 20.69 9.45 24.55 C 8.91 25.86 9.40 27.22 9.68 28.52 L 8.50 28.06 C 8.48 28.49 8.44 29.34 8.42 29.76 C 7.81 31.26 6.71 32.92 7.48 34.58 C 10.44 38.37 15.26 39.60 19.11 42.18 C 20.52 43.14 21.65 41.38 22.83 40.84 C 24.65 39.29 27.09 39.09 29.33 38.65 L 30.14 38.48 C 30.35 36.33 30.44 34.17 30.59 32.02 C 30.68 34.61 30.60 37.19 30.51 39.78 C 30.45 42.79 30.52 45.82 30.13 48.83 C 29.73 48.69 28.92 48.41 28.52 48.27 C 28.20 49.30 27.89 50.33 27.57 51.36 C 24.10 49.96 20.10 50.26 16.92 48.11 C 13.33 46.36 11.07 42.74 7.35 41.23 C 2.64 36.19 4.63 28.52 5.23 22.37 C 6.28 18.20 8.99 14.35 12.22 11.55 L 11.30 10.73 Z" />
</g>
<g id="#282925ff">
<path fill="#282925" opacity="1.00" d=" M 54.87 14.81 C 63.14 24.74 62.55 40.48 54.26 50.25 C 50.27 54.95 44.82 58.80 38.66 59.83 C 40.96 55.98 45.86 55.02 48.57 51.51 C 54.83 45.73 57.42 37.22 58.30 28.99 C 58.57 23.97 55.44 19.68 54.87 14.81 Z" />
</g>
<g id="#c1a43eeb">
<path fill="#c1a43e" opacity="0.92" d=" M 5.11 41.71 C 2.61 35.73 2.35 28.25 5.23 22.37 C 4.63 28.52 2.64 36.19 7.35 41.23 C 9.53 44.46 9.15 49.00 12.71 51.31 C 17.38 54.79 23.16 58.54 29.25 57.40 C 29.48 55.85 29.70 54.29 29.80 52.72 C 30.18 55.06 30.37 57.41 30.21 59.78 C 26.26 60.44 22.07 59.13 18.91 56.72 C 18.77 56.85 18.49 57.11 18.35 57.24 L 18.11 57.46 C 14.36 54.59 9.82 51.80 8.01 47.29 C 7.96 45.13 6.96 42.90 5.11 41.71 Z" />
</g>
<g id="#fcf39bff">
<path fill="#fcf39b" opacity="1.00" d=" M 8.42 29.76 C 10.13 30.90 11.47 32.45 12.68 34.10 C 14.01 34.28 15.26 34.71 16.27 35.62 C 18.00 35.49 19.65 34.89 21.32 34.49 C 22.95 35.51 24.59 36.54 26.24 37.53 C 27.27 36.51 28.32 35.52 29.40 34.56 C 29.41 35.92 29.39 37.28 29.33 38.65 C 27.09 39.09 24.65 39.29 22.83 40.84 C 21.65 41.38 20.52 43.14 19.11 42.18 C 15.26 39.60 10.44 38.37 7.48 34.58 C 6.71 32.92 7.81 31.26 8.42 29.76 Z" />
</g>
<g id="#b2a86bff">
<path fill="#b2a86b" opacity="1.00" d=" M 30.51 39.78 L 32.00 39.60 C 32.84 42.93 32.60 46.37 32.67 49.76 C 32.52 52.99 32.77 56.35 31.45 59.40 C 31.14 59.49 30.52 59.68 30.21 59.78 C 30.37 57.41 30.18 55.06 29.80 52.72 C 29.87 51.42 29.98 50.12 30.13 48.83 C 30.52 45.82 30.45 42.79 30.51 39.78 Z" />
</g>
<g id="#f0d664ff">
<path fill="#f0d664" opacity="1.00" d=" M 7.35 41.23 C 11.07 42.74 13.33 46.36 16.92 48.11 C 20.10 50.26 24.10 49.96 27.57 51.36 C 27.89 50.33 28.20 49.30 28.52 48.27 C 28.92 48.41 29.73 48.69 30.13 48.83 C 29.98 50.12 29.87 51.42 29.80 52.72 C 29.70 54.29 29.48 55.85 29.25 57.40 C 23.16 58.54 17.38 54.79 12.71 51.31 C 9.15 49.00 9.53 44.46 7.35 41.23 Z" />
</g>
<g id="#8d721ec7">
<path fill="#8d721e" opacity="0.78" d=" M 5.11 41.71 C 6.96 42.90 7.96 45.13 8.01 47.29 C 6.35 46.79 5.01 43.46 5.11 41.71 Z" />
</g>
<g id="#857032e5">
<path fill="#857032" opacity="0.90" d=" M 32.67 49.76 L 33.51 50.44 C 33.37 53.29 33.46 56.15 33.59 59.00 C 33.40 59.46 33.03 60.36 32.84 60.81 C 27.84 61.08 22.89 59.58 18.37 57.66 L 18.35 57.24 C 18.49 57.11 18.77 56.85 18.91 56.72 C 22.07 59.13 26.26 60.44 30.21 59.78 C 30.52 59.68 31.14 59.49 31.45 59.40 C 32.77 56.35 32.52 52.99 32.67 49.76 Z" />
</g>
</svg>
