<?xml version="1.0" encoding="UTF-8" ?>
<!DOCTYPE svg PUBLIC "-//W3C//DTD SVG 1.1//EN" "http://www.w3.org/Graphics/SVG/1.1/DTD/svg11.dtd">
<svg width="64pt" height="64pt" viewBox="0 0 64 64" version="1.1" xmlns="http://www.w3.org/2000/svg">
<g id="#fdbc39ff">
<path fill="#fdbc39" opacity="1.00" d=" M 28.66 8.12 C 29.76 5.54 30.82 2.95 31.99 0.41 C 33.21 2.93 34.26 5.53 35.10 8.21 C 36.91 6.02 38.64 3.76 40.15 1.35 C 40.60 4.15 40.61 6.99 40.87 9.81 C 43.16 8.07 45.41 6.26 47.80 4.65 C 47.55 7.45 47.16 10.24 46.63 13.00 C 48.07 12.41 49.53 11.85 51.00 11.32 C 52.12 10.70 53.25 10.12 54.41 9.57 C 53.39 12.19 52.04 14.66 50.96 17.25 C 53.74 16.83 56.53 16.45 59.33 16.20 C 57.79 18.50 56.07 20.67 54.31 22.81 C 56.96 23.34 59.63 23.77 62.34 23.60 C 60.68 25.83 58.00 26.87 55.85 28.52 C 58.04 30.01 61.53 30.17 63.02 32.33 C 60.62 33.47 58.11 34.40 55.51 34.97 C 57.79 36.71 60.01 38.53 62.49 39.98 C 59.81 40.86 56.95 40.63 54.18 40.87 C 55.93 43.16 57.75 45.40 59.32 47.82 C 56.44 47.55 53.57 47.14 50.74 46.51 C 52.01 49.14 53.15 51.83 54.37 54.48 C 51.77 53.33 49.25 52.03 46.64 50.90 C 47.12 53.70 47.54 56.50 47.82 59.33 C 45.43 57.76 43.21 55.96 40.94 54.22 C 40.67 56.92 40.41 59.64 40.52 62.36 C 38.11 60.56 36.98 57.64 35.12 55.36 C 34.41 58.03 33.48 60.65 32.26 63.14 C 30.29 61.34 29.96 58.29 28.72 55.98 C 27.04 57.96 25.48 60.06 24.36 62.41 C 23.01 59.88 23.54 56.90 23.11 54.16 C 20.83 55.92 18.58 57.72 16.16 59.29 C 16.44 56.54 16.83 53.81 17.27 51.08 C 14.64 52.01 12.13 53.22 9.67 54.54 C 10.73 51.82 12.05 49.21 13.29 46.58 C 10.43 47.13 7.55 47.55 4.64 47.78 C 6.24 45.43 8.03 43.21 9.75 40.94 C 7.07 40.64 4.37 40.41 1.67 40.50 C 3.55 38.26 6.24 36.97 8.49 35.15 C 6.09 34.02 2.52 33.93 0.95 31.70 C 3.29 30.58 5.73 29.70 8.15 28.78 C 5.99 27.02 3.78 25.31 1.41 23.82 C 4.16 23.46 6.93 23.31 9.69 22.96 C 8.00 20.72 6.22 18.54 4.67 16.20 C 7.50 16.44 10.31 16.82 13.10 17.32 C 12.03 14.71 10.87 12.15 9.57 9.65 C 12.17 10.69 14.69 11.93 17.26 13.04 C 16.84 10.27 16.45 7.49 16.18 4.70 C 18.51 6.21 20.68 7.95 22.84 9.68 C 23.38 7.05 23.74 4.37 23.44 1.68 C 25.70 3.36 26.79 6.07 28.66 8.12 Z" />
</g>
</svg>
