<?xml version="1.0" encoding="UTF-8" ?>
<!DOCTYPE svg PUBLIC "-//W3C//DTD SVG 1.1//EN" "http://www.w3.org/Graphics/SVG/1.1/DTD/svg11.dtd">
<svg width="64pt" height="64pt" viewBox="0 0 64 64" version="1.1" xmlns="http://www.w3.org/2000/svg">
<g id="#0000003e">
<path fill="#000000" opacity="0.24" d=" M 4.36 2.85 C 7.17 2.17 10.10 2.51 12.97 2.46 C 26.98 2.48 40.99 2.51 55.00 2.44 C 56.53 2.47 58.11 2.43 59.59 2.91 L 59.92 3.98 C 41.31 3.97 22.70 3.97 4.09 3.98 L 4.36 2.85 Z" />
</g>
<g id="#00000084">
<path fill="#000000" opacity="0.52" d=" M 3.07 10.99 C 3.14 8.24 2.92 5.31 4.36 2.85 L 4.09 3.98 C 3.85 15.27 4.14 26.58 4.02 37.87 C 3.97 45.25 4.01 52.63 4.00 60.01 C 22.67 60.04 41.33 60.04 60.00 60.01 C 59.99 52.62 60.03 45.23 59.98 37.85 C 59.87 26.56 60.14 15.27 59.92 3.98 L 59.59 2.91 C 61.06 4.95 60.80 7.59 60.92 9.98 C 60.91 23.67 60.89 37.37 60.92 51.07 C 60.87 54.90 61.30 58.87 59.86 62.52 C 49.93 61.59 39.94 62.26 29.98 62.07 C 21.35 62.24 12.70 61.65 4.10 62.46 C 3.39 60.38 3.01 58.21 3.08 56.01 C 3.09 41.00 3.11 26.00 3.07 10.99 Z" />
</g>
<g id="#fffffeff">
<path fill="#fffffe" opacity="1.00" d=" M 4.02 37.87 C 4.14 26.58 3.85 15.27 4.09 3.98 C 22.70 3.97 41.31 3.97 59.92 3.98 C 60.14 15.27 59.87 26.56 59.98 37.85 C 59.24 37.86 57.76 37.90 57.02 37.92 C 57.08 27.61 56.99 17.31 57.00 7.00 C 40.33 7.00 23.67 7.00 7.00 7.00 C 7.00 14.49 6.93 21.98 7.02 29.47 C 6.93 32.27 6.94 35.06 6.97 37.85 C 6.23 37.86 4.76 37.87 4.02 37.87 Z" />
</g>
<g id="#000921ff">
<path fill="#000921" opacity="1.00" d=" M 7.00 7.00 C 23.67 7.00 40.33 7.00 57.00 7.00 C 56.99 17.31 57.08 27.61 57.02 37.92 C 56.93 44.26 57.03 50.59 57.00 56.93 C 55.54 56.94 54.08 56.95 52.62 56.97 L 53.51 56.70 C 54.55 56.36 55.58 56.00 56.60 55.62 C 56.49 51.93 56.43 48.24 56.25 44.55 C 56.87 37.42 55.90 30.31 55.72 23.18 C 55.93 18.27 55.87 13.35 55.49 8.45 C 39.83 8.32 24.16 8.41 8.50 8.41 C 8.24 15.44 8.50 22.55 7.02 29.47 C 6.93 21.98 7.00 14.49 7.00 7.00 Z" />
</g>
<g id="#00223eff">
<path fill="#00223e" opacity="1.00" d=" M 8.50 8.41 C 24.16 8.41 39.83 8.32 55.49 8.45 C 55.87 13.35 55.93 18.27 55.72 23.18 C 55.17 22.36 54.62 21.54 54.08 20.71 C 53.63 20.02 53.17 19.33 52.72 18.64 C 53.62 17.75 54.51 16.85 55.40 15.96 C 49.54 15.23 43.55 14.31 37.71 15.69 C 34.00 16.31 30.34 17.27 26.79 18.50 C 26.40 18.63 25.64 18.89 25.26 19.02 C 19.63 18.95 14.78 22.22 10.60 25.63 C 8.64 27.18 8.50 29.83 8.28 32.11 C 7.87 38.19 7.60 44.30 8.25 50.38 C 8.25 52.28 8.27 54.18 8.28 56.09 C 12.56 56.62 16.87 56.73 21.18 56.63 C 29.05 56.66 36.93 56.62 44.81 56.58 C 47.71 56.63 50.61 56.74 53.51 56.70 L 52.62 56.97 C 37.41 57.05 22.21 56.97 7.00 57.00 C 7.06 50.62 7.01 44.23 6.97 37.85 C 6.94 35.06 6.93 32.27 7.02 29.47 C 8.50 22.55 8.24 15.44 8.50 8.41 Z" />
</g>
<g id="#22474fff">
<path fill="#22474f" opacity="1.00" d=" M 37.71 15.69 C 43.55 14.31 49.54 15.23 55.40 15.96 C 54.51 16.85 53.62 17.75 52.72 18.64 C 53.17 19.33 53.63 20.02 54.08 20.71 C 52.75 21.87 51.42 23.03 50.16 24.28 C 48.55 22.76 46.94 21.24 45.34 19.71 C 47.17 18.79 49.09 18.07 51.01 17.36 C 48.12 17.56 45.21 17.67 42.39 18.38 C 42.38 17.90 42.37 16.94 42.37 16.46 C 40.82 16.19 39.27 15.92 37.71 15.69 Z" />
</g>
<g id="#496553ff">
<path fill="#496553" opacity="1.00" d=" M 26.79 18.50 C 30.34 17.27 34.00 16.31 37.71 15.69 C 39.27 15.92 40.82 16.19 42.37 16.46 C 42.37 16.94 42.38 17.90 42.39 18.38 C 40.48 19.07 38.61 19.87 36.81 20.81 C 35.53 21.54 34.27 22.31 33.05 23.15 C 31.01 21.54 28.91 20.00 26.79 18.50 Z" />
</g>
<g id="#949f44ff">
<path fill="#949f44" opacity="1.00" d=" M 42.39 18.38 C 45.21 17.67 48.12 17.56 51.01 17.36 C 49.09 18.07 47.17 18.79 45.34 19.71 C 43.65 20.81 42.05 22.05 40.44 23.25 L 40.03 22.95 C 38.97 22.21 37.89 21.51 36.81 20.81 C 38.61 19.87 40.48 19.07 42.39 18.38 Z" />
</g>
<g id="#003966ff">
<path fill="#003966" opacity="1.00" d=" M 10.60 25.63 C 14.78 22.22 19.63 18.95 25.26 19.02 C 22.35 20.44 19.48 21.92 16.61 23.41 C 16.83 24.04 17.28 25.30 17.51 25.93 C 14.93 29.27 11.86 32.47 10.78 36.68 C 9.60 41.18 9.12 45.82 8.25 50.38 C 7.60 44.30 7.87 38.19 8.28 32.11 C 8.50 29.83 8.64 27.18 10.60 25.63 Z" />
</g>
<g id="#65806aff">
<path fill="#65806a" opacity="1.00" d=" M 25.26 19.02 C 25.64 18.89 26.40 18.63 26.79 18.50 C 28.91 20.00 31.01 21.54 33.05 23.15 C 31.75 24.10 30.48 25.11 29.24 26.14 C 28.01 27.20 26.82 28.30 25.63 29.39 C 24.59 28.73 23.55 28.06 22.51 27.40 C 20.51 26.11 18.55 24.77 16.61 23.41 C 19.48 21.92 22.35 20.44 25.26 19.02 Z" />
</g>
<g id="#335859ff">
<path fill="#335859" opacity="1.00" d=" M 40.44 23.25 C 42.05 22.05 43.65 20.81 45.34 19.71 C 46.94 21.24 48.55 22.76 50.16 24.28 C 48.96 25.75 47.89 27.31 46.81 28.87 L 46.48 28.59 C 44.45 26.82 42.53 24.94 40.44 23.25 Z" />
</g>
<g id="#fef336ff">
<path fill="#fef336" opacity="1.00" d=" M 33.05 23.15 C 34.27 22.31 35.53 21.54 36.81 20.81 C 37.89 21.51 38.97 22.21 40.03 22.95 C 38.53 24.45 37.02 25.94 35.61 27.53 C 35.13 28.12 34.17 29.30 33.69 29.89 C 31.22 30.22 30.39 27.80 29.24 26.14 C 30.48 25.11 31.75 24.10 33.05 23.15 Z" />
<path fill="#fef336" opacity="1.00" d=" M 16.61 23.41 C 18.55 24.77 20.51 26.11 22.51 27.40 C 21.47 28.49 20.42 29.57 19.37 30.66 C 19.18 30.18 18.81 29.22 18.62 28.74 C 18.24 27.81 17.87 26.87 17.51 25.93 C 17.28 25.30 16.83 24.04 16.61 23.41 Z" />
<path fill="#fef336" opacity="1.00" d=" M 11.53 41.47 C 13.07 40.31 14.61 39.16 16.15 37.99 L 16.76 37.53 C 17.43 38.81 18.10 40.10 18.76 41.38 L 17.56 41.42 C 17.23 41.42 16.56 41.43 16.22 41.43 C 14.66 41.44 13.09 41.45 11.53 41.47 Z" />
</g>
<g id="#00355fff">
<path fill="#00355f" opacity="1.00" d=" M 50.16 24.28 C 51.42 23.03 52.75 21.87 54.08 20.71 C 54.62 21.54 55.17 22.36 55.72 23.18 C 55.90 30.31 56.87 37.42 56.25 44.55 C 55.15 41.30 54.66 37.84 53.25 34.71 C 51.49 32.37 48.99 30.76 46.81 28.87 C 47.89 27.31 48.96 25.75 50.16 24.28 Z" />
</g>
<g id="#48746dff">
<path fill="#48746d" opacity="1.00" d=" M 40.03 22.95 L 40.44 23.25 C 42.53 24.94 44.45 26.82 46.48 28.59 C 44.92 31.78 43.35 34.98 42.41 38.41 C 40.02 34.86 37.85 31.18 35.61 27.53 C 37.02 25.94 38.53 24.45 40.03 22.95 Z" />
</g>
<g id="#005292ff">
<path fill="#005292" opacity="1.00" d=" M 17.51 25.93 C 17.87 26.87 18.24 27.81 18.62 28.74 C 16.79 31.50 16.14 34.73 16.15 37.99 C 14.61 39.16 13.07 40.31 11.53 41.47 C 13.09 41.45 14.66 41.44 16.22 41.43 C 17.07 45.61 16.29 49.91 16.74 54.09 C 18.10 55.13 19.64 55.90 21.18 56.63 C 16.87 56.73 12.56 56.62 8.28 56.09 C 8.27 54.18 8.25 52.28 8.25 50.38 C 9.12 45.82 9.60 41.18 10.78 36.68 C 11.86 32.47 14.93 29.27 17.51 25.93 Z" />
</g>
<g id="#fffaa0ff">
<path fill="#fffaa0" opacity="1.00" d=" M 25.63 29.39 C 26.82 28.30 28.01 27.20 29.24 26.14 C 30.39 27.80 31.22 30.22 33.69 29.89 C 33.17 31.02 32.71 32.19 32.23 33.34 C 32.72 33.86 33.22 34.36 33.73 34.86 C 33.62 37.00 33.53 39.14 33.46 41.28 C 32.27 41.34 31.09 41.41 29.91 41.49 C 29.64 42.69 29.37 43.88 29.08 45.08 C 28.92 44.50 28.62 43.34 28.47 42.77 C 26.66 42.73 24.84 42.69 23.03 42.66 C 22.84 42.30 22.46 41.58 22.27 41.22 C 22.03 40.75 21.55 39.81 21.31 39.34 C 23.45 39.84 25.71 41.09 27.92 40.23 C 30.11 38.95 29.94 36.07 29.32 33.96 C 28.13 31.57 25.07 32.35 22.95 32.65 C 21.27 34.46 21.53 37.07 21.31 39.34 C 20.98 37.80 20.73 36.24 20.43 34.69 C 20.14 33.33 19.80 31.98 19.37 30.66 C 20.42 29.57 21.47 28.49 22.51 27.40 C 23.55 28.06 24.59 28.73 25.63 29.39 Z" />
</g>
<g id="#6e928dff">
<path fill="#6e928d" opacity="1.00" d=" M 33.69 29.89 C 34.17 29.30 35.13 28.12 35.61 27.53 C 37.85 31.18 40.02 34.86 42.41 38.41 C 42.17 39.56 41.95 40.70 41.74 41.85 C 40.76 41.60 39.77 41.36 38.77 41.14 C 39.51 41.10 40.99 41.03 41.73 40.99 C 39.07 38.94 36.28 37.05 33.73 34.86 C 33.22 34.36 32.72 33.86 32.23 33.34 C 32.71 32.19 33.17 31.02 33.69 29.89 Z" />
</g>
<g id="#678faeff">
<path fill="#678fae" opacity="1.00" d=" M 18.62 28.74 C 18.81 29.22 19.18 30.18 19.37 30.66 C 19.80 31.98 20.14 33.33 20.43 34.69 C 19.21 35.64 17.99 36.59 16.76 37.53 L 16.15 37.99 C 16.14 34.73 16.79 31.50 18.62 28.74 Z" />
</g>
<g id="#004d8cff">
<path fill="#004d8c" opacity="1.00" d=" M 46.48 28.59 L 46.81 28.87 C 48.99 30.76 51.49 32.37 53.25 34.71 C 54.66 37.84 55.15 41.30 56.25 44.55 C 56.43 48.24 56.49 51.93 56.60 55.62 C 55.58 56.00 54.55 56.36 53.51 56.70 C 50.61 56.74 47.71 56.63 44.81 56.58 C 46.17 55.63 47.53 54.69 48.89 53.75 C 47.03 49.48 44.43 45.62 41.74 41.85 C 41.95 40.70 42.17 39.56 42.41 38.41 C 43.35 34.98 44.92 31.78 46.48 28.59 Z" />
</g>
<g id="#fffef4ff">
<path fill="#fffef4" opacity="1.00" d=" M 21.31 39.34 C 21.53 37.07 21.27 34.46 22.95 32.65 C 25.07 32.35 28.13 31.57 29.32 33.96 C 29.94 36.07 30.11 38.95 27.92 40.23 C 25.71 41.09 23.45 39.84 21.31 39.34 Z" />
</g>
<g id="#fffa8cff">
<path fill="#fffa8c" opacity="1.00" d=" M 16.76 37.53 C 17.99 36.59 19.21 35.64 20.43 34.69 C 20.73 36.24 20.98 37.80 21.31 39.34 C 21.55 39.81 22.03 40.75 22.27 41.22 C 21.10 41.28 19.93 41.33 18.76 41.38 C 18.10 40.10 17.43 38.81 16.76 37.53 Z" />
</g>
<g id="#fff747ff">
<path fill="#fff747" opacity="1.00" d=" M 33.73 34.86 C 36.28 37.05 39.07 38.94 41.73 40.99 C 40.99 41.03 39.51 41.10 38.77 41.14 C 37.00 41.15 35.23 41.20 33.46 41.28 C 33.53 39.14 33.62 37.00 33.73 34.86 Z" />
</g>
<g id="#ebebebff">
<path fill="#ebebeb" opacity="1.00" d=" M 4.02 37.87 C 4.76 37.87 6.23 37.86 6.97 37.85 C 7.01 44.23 7.06 50.62 7.00 57.00 C 22.21 56.97 37.41 57.05 52.62 56.97 C 54.08 56.95 55.54 56.94 57.00 56.93 C 57.03 50.59 56.93 44.26 57.02 37.92 C 57.76 37.90 59.24 37.86 59.98 37.85 C 60.03 45.23 59.99 52.62 60.00 60.01 C 41.33 60.04 22.67 60.04 4.00 60.01 C 4.01 52.63 3.97 45.25 4.02 37.87 Z" />
</g>
<g id="#5d95c5ff">
<path fill="#5d95c5" opacity="1.00" d=" M 18.76 41.38 C 19.93 41.33 21.10 41.28 22.27 41.22 C 22.46 41.58 22.84 42.30 23.03 42.66 C 23.74 44.17 24.33 45.73 24.96 47.28 C 21.91 46.16 18.68 44.78 17.56 41.42 L 18.76 41.38 Z" />
</g>
<g id="#0067baff">
<path fill="#0067ba" opacity="1.00" d=" M 29.91 41.49 C 31.09 41.41 32.27 41.34 33.46 41.28 C 35.23 41.20 37.00 41.15 38.77 41.14 C 39.77 41.36 40.76 41.60 41.74 41.85 C 44.43 45.62 47.03 49.48 48.89 53.75 C 47.53 54.69 46.17 55.63 44.81 56.58 C 36.93 56.62 29.05 56.66 21.18 56.63 C 19.64 55.90 18.10 55.13 16.74 54.09 C 16.29 49.91 17.07 45.61 16.22 41.43 C 16.56 41.43 17.23 41.42 17.56 41.42 C 18.68 44.78 21.91 46.16 24.96 47.28 C 25.65 48.99 26.34 50.70 27.14 52.37 C 27.84 49.95 28.47 47.52 29.08 45.08 C 29.37 43.88 29.64 42.69 29.91 41.49 Z" />
</g>
<g id="#fff864ff">
<path fill="#fff864" opacity="1.00" d=" M 23.03 42.66 C 24.84 42.69 26.66 42.73 28.47 42.77 C 28.62 43.34 28.92 44.50 29.08 45.08 C 28.47 47.52 27.84 49.95 27.14 52.37 C 26.34 50.70 25.65 48.99 24.96 47.28 C 24.33 45.73 23.74 44.17 23.03 42.66 Z" />
</g>
<g id="#00000055">
<path fill="#000000" opacity="0.33" d=" M 4.10 62.46 C 12.70 61.65 21.35 62.24 29.98 62.07 C 39.94 62.26 49.93 61.59 59.86 62.52 C 58.33 63.19 56.70 63.62 55.02 63.54 C 39.67 63.49 24.32 63.48 8.97 63.54 C 7.27 63.62 5.61 63.24 4.10 62.46 Z" />
</g>
</svg>
