<?xml version="1.0" encoding="UTF-8" ?>
<!DOCTYPE svg PUBLIC "-//W3C//DTD SVG 1.1//EN" "http://www.w3.org/Graphics/SVG/1.1/DTD/svg11.dtd">
<svg width="64pt" height="64pt" viewBox="0 0 64 64" version="1.1" xmlns="http://www.w3.org/2000/svg">
<g id="#ead631ff">
<path fill="#ead631" opacity="1.00" d=" M 23.33 9.85 C 25.10 4.95 30.76 2.74 35.52 4.63 C 37.71 5.64 40.19 7.63 39.89 10.32 C 39.83 11.30 39.74 12.28 39.62 13.25 C 38.71 16.19 37.21 18.90 35.60 21.51 C 32.91 21.18 30.16 21.14 27.52 21.83 C 25.48 18.09 24.20 14.00 23.33 9.85 M 28.19 14.79 C 29.04 16.74 28.85 19.55 30.82 20.76 C 34.02 21.26 34.88 17.34 35.13 14.93 C 34.56 13.31 33.15 12.18 32.13 10.85 C 30.82 12.17 29.51 13.49 28.19 14.79 Z" />
</g>
<g id="#e1bd15ff">
<path fill="#e1bd15" opacity="1.00" d=" M 14.53 10.45 C 17.14 8.68 20.43 9.23 23.33 9.85 C 24.20 14.00 25.48 18.09 27.52 21.83 C 26.94 22.20 26.35 22.57 25.78 22.96 C 24.53 20.44 24.00 17.05 21.34 15.58 C 18.97 14.44 16.83 16.77 16.62 19.02 C 17.23 22.44 20.94 23.42 23.79 24.26 C 23.47 25.37 23.15 26.47 22.82 27.58 L 22.82 26.83 C 22.34 26.55 21.38 25.98 20.90 25.69 C 17.29 23.38 12.86 23.33 8.73 23.52 C 9.60 23.10 10.47 22.68 11.34 22.26 C 9.15 18.23 10.48 12.72 14.53 10.45 Z" />
</g>
<g id="#e0bd12ff">
<path fill="#e0bd12" opacity="1.00" d=" M 39.89 10.32 C 43.02 9.46 46.60 8.68 49.52 10.63 C 53.27 12.68 55.37 18.61 52.49 22.00 C 51.26 22.43 50.02 22.81 48.77 23.19 C 48.47 20.51 49.38 17.00 46.84 15.18 C 44.66 13.89 42.05 13.74 39.62 13.25 C 39.74 12.28 39.83 11.30 39.89 10.32 Z" />
</g>
<g id="#f2e065ff">
<path fill="#f2e065" opacity="1.00" d=" M 28.19 14.79 C 29.51 13.49 30.82 12.17 32.13 10.85 C 33.15 12.18 34.56 13.31 35.13 14.93 C 34.88 17.34 34.02 21.26 30.82 20.76 C 28.85 19.55 29.04 16.74 28.19 14.79 Z" />
</g>
<g id="#dec424ff">
<path fill="#dec424" opacity="1.00" d=" M 39.62 13.25 C 42.05 13.74 44.66 13.89 46.84 15.18 C 49.38 17.00 48.47 20.51 48.77 23.19 C 50.02 22.81 51.26 22.43 52.49 22.00 C 55.59 23.58 58.82 26.15 58.83 29.97 C 59.45 33.99 56.74 39.09 52.26 39.06 C 48.97 38.52 45.78 37.50 42.60 36.51 C 42.33 34.61 42.05 32.71 41.77 30.81 C 42.48 32.47 43.23 34.16 44.41 35.56 C 47.38 36.09 50.63 35.02 52.51 32.62 C 53.35 29.97 51.72 27.49 50.77 25.13 C 47.90 25.39 45.03 25.70 42.17 26.09 C 41.97 27.28 41.78 28.48 41.61 29.68 L 41.52 30.34 C 41.21 28.77 40.88 27.20 40.48 25.65 L 40.10 24.37 C 42.22 23.53 44.62 22.85 46.12 21.01 C 46.86 19.43 46.16 17.59 46.16 15.91 C 44.45 16.24 42.71 16.46 41.04 16.98 C 39.81 18.89 39.15 21.08 38.31 23.18 C 37.42 22.60 36.52 22.03 35.60 21.51 C 37.21 18.90 38.71 16.19 39.62 13.25 Z" />
</g>
<g id="#e7c743ff">
<path fill="#e7c743" opacity="1.00" d=" M 16.62 19.02 C 16.83 16.77 18.97 14.44 21.34 15.58 C 24.00 17.05 24.53 20.44 25.78 22.96 C 25.28 23.28 24.28 23.93 23.79 24.26 C 20.94 23.42 17.23 22.44 16.62 19.02 Z" />
<path fill="#e7c743" opacity="1.00" d=" M 41.04 16.98 C 42.71 16.46 44.45 16.24 46.16 15.91 C 46.16 17.59 46.86 19.43 46.12 21.01 C 44.62 22.85 42.22 23.53 40.10 24.37 C 39.65 24.07 38.76 23.48 38.31 23.18 C 39.15 21.08 39.81 18.89 41.04 16.98 Z" />
</g>
<g id="#e1924cff">
<path fill="#e1924c" opacity="1.00" d=" M 27.52 21.83 C 30.16 21.14 32.91 21.18 35.60 21.51 C 36.52 22.03 37.42 22.60 38.31 23.18 C 38.76 23.48 39.65 24.07 40.10 24.37 L 40.48 25.65 C 37.35 25.23 34.23 24.26 31.05 24.51 C 28.15 25.05 25.52 26.46 22.82 27.58 C 23.15 26.47 23.47 25.37 23.79 24.26 C 24.28 23.93 25.28 23.28 25.78 22.96 C 26.35 22.57 26.94 22.20 27.52 21.83 Z" />
</g>
<g id="#e0c426ff">
<path fill="#e0c426" opacity="1.00" d=" M 11.23 38.88 C 3.90 38.56 2.85 26.82 8.73 23.52 C 12.86 23.33 17.29 23.38 20.90 25.69 C 18.84 25.77 16.52 25.41 14.71 26.61 C 13.20 27.88 12.06 29.52 10.82 31.03 C 13.18 32.96 15.81 35.23 19.13 34.49 C 21.26 32.48 21.79 29.45 22.82 26.83 L 22.82 27.58 C 22.75 30.17 22.52 32.75 22.55 35.34 C 19.14 37.48 15.25 38.71 11.23 38.88 Z" />
</g>
<g id="#c36c13ff">
<path fill="#c36c13" opacity="1.00" d=" M 22.82 27.58 C 25.52 26.46 28.15 25.05 31.05 24.51 C 34.23 24.26 37.35 25.23 40.48 25.65 C 40.88 27.20 41.21 28.77 41.52 30.34 C 41.24 32.50 40.89 34.65 40.64 36.82 C 40.06 34.60 39.31 32.44 38.54 30.29 C 34.50 28.86 30.17 29.39 25.99 29.64 C 25.74 30.62 25.48 31.59 25.18 32.56 C 24.64 33.96 24.00 35.33 23.36 36.69 C 23.16 36.35 22.75 35.68 22.55 35.34 C 22.52 32.75 22.75 30.17 22.82 27.58 Z" />
</g>
<g id="#ebd34bff">
<path fill="#ebd34b" opacity="1.00" d=" M 42.17 26.09 C 45.03 25.70 47.90 25.39 50.77 25.13 C 51.72 27.49 53.35 29.97 52.51 32.62 C 50.63 35.02 47.38 36.09 44.41 35.56 C 43.23 34.16 42.48 32.47 41.77 30.81 L 41.61 29.68 C 41.78 28.48 41.97 27.28 42.17 26.09 Z" />
</g>
<g id="#edd44eff">
<path fill="#edd44e" opacity="1.00" d=" M 14.71 26.61 C 16.52 25.41 18.84 25.77 20.90 25.69 C 21.38 25.98 22.34 26.55 22.82 26.83 C 21.79 29.45 21.26 32.48 19.13 34.49 C 15.81 35.23 13.18 32.96 10.82 31.03 C 12.06 29.52 13.20 27.88 14.71 26.61 Z" />
</g>
<g id="#954009ff">
<path fill="#954009" opacity="1.00" d=" M 25.99 29.64 C 30.17 29.39 34.50 28.86 38.54 30.29 C 37.76 32.90 37.14 36.31 33.95 36.98 C 30.23 38.85 27.69 34.53 25.18 32.56 C 25.48 31.59 25.74 30.62 25.99 29.64 Z" />
</g>
<g id="#cd970cff">
<path fill="#cd970c" opacity="1.00" d=" M 41.52 30.34 L 41.61 29.68 L 41.77 30.81 C 42.05 32.71 42.33 34.61 42.60 36.51 C 45.78 37.50 48.97 38.52 52.26 39.06 L 53.21 39.22 C 53.88 42.90 54.41 47.38 51.16 50.06 C 48.28 53.33 43.56 52.95 39.79 51.72 C 39.32 48.27 38.58 44.88 37.94 41.46 L 38.50 41.89 C 40.45 43.68 42.18 47.59 45.41 46.35 C 48.14 45.70 47.49 42.50 47.89 40.41 C 45.45 39.39 43.03 38.34 40.62 37.24 L 40.64 36.82 C 40.89 34.65 41.24 32.50 41.52 30.34 Z" />
</g>
<g id="#975315ff">
<path fill="#975315" opacity="1.00" d=" M 38.54 30.29 C 39.31 32.44 40.06 34.60 40.64 36.82 L 40.62 37.24 C 39.89 38.05 39.17 38.87 38.47 39.70 C 38.48 40.25 38.49 41.34 38.50 41.89 L 37.94 41.46 C 33.89 41.28 29.83 41.27 25.78 41.50 L 25.42 41.56 C 25.39 41.15 25.34 40.33 25.31 39.92 C 24.80 39.01 24.26 38.12 23.70 37.24 L 23.36 36.69 C 24.00 35.33 24.64 33.96 25.18 32.56 C 27.69 34.53 30.23 38.85 33.95 36.98 C 37.14 36.31 37.76 32.90 38.54 30.29 Z" />
</g>
<g id="#cd960cff">
<path fill="#cd960c" opacity="1.00" d=" M 11.23 38.88 C 15.25 38.71 19.14 37.48 22.55 35.34 C 22.75 35.68 23.16 36.35 23.36 36.69 L 23.70 37.24 C 20.90 38.33 18.10 39.43 15.29 40.53 C 16.34 42.80 16.45 47.10 19.89 46.68 C 22.71 46.56 23.80 43.38 25.42 41.56 L 25.78 41.50 C 25.04 45.07 24.34 48.66 24.11 52.30 C 20.29 52.75 15.59 53.67 12.84 50.19 C 9.51 47.34 10.05 42.62 11.23 38.88 Z" />
</g>
<g id="#dcac2eff">
<path fill="#dcac2e" opacity="1.00" d=" M 15.29 40.53 C 18.10 39.43 20.90 38.33 23.70 37.24 C 24.26 38.12 24.80 39.01 25.31 39.92 C 25.34 40.33 25.39 41.15 25.42 41.56 C 23.80 43.38 22.71 46.56 19.89 46.68 C 16.45 47.10 16.34 42.80 15.29 40.53 Z" />
</g>
<g id="#dcad2eff">
<path fill="#dcad2e" opacity="1.00" d=" M 38.47 39.70 C 39.17 38.87 39.89 38.05 40.62 37.24 C 43.03 38.34 45.45 39.39 47.89 40.41 C 47.49 42.50 48.14 45.70 45.41 46.35 C 42.18 47.59 40.45 43.68 38.50 41.89 C 38.49 41.34 38.48 40.25 38.47 39.70 Z" />
</g>
<g id="#d4b619ff">
<path fill="#d4b619" opacity="1.00" d=" M 25.78 41.50 C 29.83 41.27 33.89 41.28 37.94 41.46 C 38.58 44.88 39.32 48.27 39.79 51.72 C 40.34 54.36 37.56 55.84 35.93 57.35 C 33.32 57.28 30.70 57.21 28.11 57.53 C 26.57 56.06 23.82 54.84 24.11 52.30 C 24.34 48.66 25.04 45.07 25.78 41.50 M 26.33 46.02 C 26.78 48.15 28.19 49.91 29.24 51.77 C 31.27 51.52 33.78 52.09 35.22 50.24 C 37.12 48.61 37.17 45.74 36.34 43.56 C 33.69 42.20 30.58 42.71 27.72 42.45 C 27.27 43.64 26.49 44.74 26.33 46.02 Z" />
</g>
<g id="#e6c73aff">
<path fill="#e6c73a" opacity="1.00" d=" M 26.33 46.02 C 26.49 44.74 27.27 43.64 27.72 42.45 C 30.58 42.71 33.69 42.20 36.34 43.56 C 37.17 45.74 37.12 48.61 35.22 50.24 C 33.78 52.09 31.27 51.52 29.24 51.77 C 28.19 49.91 26.78 48.15 26.33 46.02 Z" />
</g>
<g id="#64c494ff">
<path fill="#64c494" opacity="1.00" d=" M 29.09 57.65 C 30.72 57.75 32.35 57.76 33.98 57.96 C 33.81 59.98 33.82 62.03 34.33 64.00 L 29.25 64.00 C 29.21 61.88 29.17 59.77 29.09 57.65 Z" />
</g>
<g id="#33604af3">
<path fill="#33604a" opacity="0.95" d=" M 33.98 57.96 C 35.90 59.25 35.23 62.12 34.71 64.00 L 34.33 64.00 C 33.82 62.03 33.81 59.98 33.98 57.96 Z" />
</g>
</svg>
