<?xml version="1.0" encoding="UTF-8" ?>
<!DOCTYPE svg PUBLIC "-//W3C//DTD SVG 1.1//EN" "http://www.w3.org/Graphics/SVG/1.1/DTD/svg11.dtd">
<svg width="64pt" height="64pt" viewBox="0 0 64 64" version="1.1" xmlns="http://www.w3.org/2000/svg">
<g id="#667512fb">
<path fill="#667512" opacity="1.00" d=" M 31.35 2.27 C 31.72 2.20 32.47 2.07 32.84 2.00 C 34.80 5.25 36.32 8.93 39.45 11.24 C 39.29 13.02 41.18 13.62 42.14 14.81 C 41.35 14.89 39.78 15.05 38.99 15.13 C 40.42 17.92 42.74 19.89 45.16 21.80 C 36.53 20.66 51.62 29.46 45.09 30.23 C 45.86 33.42 48.94 34.71 51.13 36.74 C 47.77 35.89 47.45 39.68 49.75 41.24 C 50.85 44.23 55.84 43.60 56.08 46.87 C 46.58 42.86 53.71 48.25 50.87 49.65 C 47.04 47.61 44.21 53.05 40.31 51.58 C 38.55 50.70 36.78 51.36 35.16 52.22 C 35.00 55.13 35.09 58.07 34.91 60.99 C 25.56 64.71 30.85 55.26 27.82 51.06 C 25.65 51.17 23.35 52.48 21.64 50.42 C 20.40 48.90 17.15 52.41 17.07 50.00 C 17.91 45.53 9.05 51.67 10.54 47.78 C 10.86 46.09 7.11 46.88 7.05 45.09 C 9.76 43.10 14.72 42.08 15.05 38.13 C 13.65 38.03 12.25 37.93 10.85 37.83 C 13.25 35.05 16.84 33.42 18.94 30.34 C 17.99 29.91 17.05 29.43 16.14 28.91 C 16.72 27.75 17.43 26.64 17.61 25.34 C 19.60 24.16 21.84 23.23 23.13 21.19 C 22.31 21.10 20.68 20.91 19.87 20.81 C 20.83 18.64 29.61 15.43 24.15 13.68 C 23.44 11.42 26.48 11.26 27.51 9.81 C 27.49 6.87 30.15 4.80 31.35 2.27 Z" />
</g>
</svg>
