<?xml version="1.0" encoding="UTF-8" ?>
<!DOCTYPE svg PUBLIC "-//W3C//DTD SVG 1.1//EN" "http://www.w3.org/Graphics/SVG/1.1/DTD/svg11.dtd">
<svg width="64pt" height="64pt" viewBox="0 0 64 64" version="1.1" xmlns="http://www.w3.org/2000/svg">
<g id="#ba3067ff">
<path fill="#ba3067" opacity="1.00" d=" M 23.98 7.70 C 27.02 1.63 37.09 1.66 40.05 7.78 C 37.00 8.38 34.83 5.62 32.00 5.20 C 29.18 5.58 27.01 8.47 23.98 7.70 Z" />
<path fill="#ba3067" opacity="1.00" d=" M 45.54 17.74 C 46.88 22.76 47.60 29.24 43.18 32.98 C 39.67 33.50 36.33 34.89 34.15 37.80 C 34.11 37.20 34.03 36.00 34.00 35.40 C 35.45 33.79 36.48 31.34 38.88 31.02 C 40.93 30.21 44.23 30.46 44.67 27.67 C 45.34 24.40 45.18 21.04 45.54 17.74 Z" />
</g>
<g id="#66132cff">
<path fill="#66132c" opacity="1.00" d=" M 23.98 7.70 C 27.01 8.47 29.18 5.58 32.00 5.20 C 34.83 5.62 37.00 8.38 40.05 7.78 C 40.96 6.78 42.58 5.49 42.94 7.70 L 41.99 7.17 C 40.87 7.53 40.09 8.33 39.64 9.57 C 39.40 9.79 38.93 10.24 38.70 10.46 C 36.64 8.81 34.57 6.93 31.98 6.20 C 29.42 6.97 27.37 8.80 25.32 10.43 C 25.09 10.21 24.62 9.78 24.38 9.56 C 23.91 7.99 23.04 7.26 21.77 7.37 L 21.11 7.60 C 21.33 7.21 21.78 6.43 22.00 6.04 C 22.38 6.44 23.15 7.23 23.53 7.62 L 23.98 7.70 Z" />
<path fill="#66132c" opacity="1.00" d=" M 16.08 28.99 C 15.91 23.79 17.44 18.72 18.89 13.78 C 18.16 18.48 18.12 23.25 18.34 27.99 C 18.25 29.37 19.22 30.46 19.80 31.63 C 22.29 35.19 26.21 38.08 30.51 38.85 C 30.93 35.90 30.23 32.63 32.01 30.02 C 33.65 32.69 33.13 35.91 33.50 38.87 C 37.34 38.32 40.54 35.69 43.18 32.98 C 47.60 29.24 46.88 22.76 45.54 17.74 C 45.40 16.42 45.26 15.09 45.11 13.77 C 46.56 18.74 48.10 23.83 47.92 29.06 C 47.41 31.16 45.71 32.73 44.40 34.37 C 42.14 37.27 38.21 38.65 36.96 42.34 C 33.65 42.18 30.34 42.12 27.04 42.42 C 24.68 37.02 17.74 34.92 16.08 28.99 Z" />
</g>
<g id="#eebcd6ff">
<path fill="#eebcd6" opacity="1.00" d=" M 25.32 10.43 C 27.37 8.80 29.42 6.97 31.98 6.20 C 34.57 6.93 36.64 8.81 38.70 10.46 L 37.83 11.25 C 35.90 10.14 34.02 8.95 32.06 7.90 C 30.03 8.89 28.14 10.11 26.18 11.22 L 25.32 10.43 Z" />
</g>
<g id="#ee61a1ff">
<path fill="#ee61a1" opacity="1.00" d=" M 21.11 7.60 L 21.77 7.37 C 21.29 14.00 26.21 19.31 27.32 25.65 C 25.10 25.65 22.88 25.60 20.68 25.35 C 19.12 20.61 19.90 15.65 19.93 10.78 C 20.28 9.70 20.67 8.64 21.11 7.60 Z" />
</g>
<g id="#eea3c4ff">
<path fill="#eea3c4" opacity="1.00" d=" M 21.77 7.37 C 23.04 7.26 23.91 7.99 24.38 9.56 C 26.41 15.25 28.09 21.05 29.37 26.95 C 29.13 28.30 28.85 29.64 28.57 30.98 C 28.16 29.20 27.75 27.42 27.32 25.65 C 26.21 19.31 21.29 14.00 21.77 7.37 Z" />
</g>
<g id="#ff64c7ff">
<path fill="#ff64c7" opacity="1.00" d=" M 26.18 11.22 C 28.14 10.11 30.03 8.89 32.06 7.90 C 34.02 8.95 35.90 10.14 37.83 11.25 C 36.91 14.03 35.94 16.81 35.22 19.65 C 32.71 18.81 32.79 15.87 31.92 13.79 C 30.85 15.67 29.83 17.59 28.80 19.50 C 28.06 16.70 27.05 13.98 26.18 11.22 Z" />
</g>
<g id="#f0a7c8ff">
<path fill="#f0a7c8" opacity="1.00" d=" M 39.64 9.57 C 40.09 8.33 40.87 7.53 41.99 7.17 C 42.86 11.52 40.28 15.18 39.00 19.11 C 38.32 21.04 37.61 22.96 36.98 24.91 C 36.34 26.88 35.84 28.89 35.42 30.91 C 35.15 29.93 34.89 28.94 34.64 27.95 C 35.70 21.67 37.54 15.57 39.64 9.57 Z" />
</g>
<g id="#f676b3ff">
<path fill="#f676b3" opacity="1.00" d=" M 41.99 7.17 L 42.94 7.70 C 43.09 8.10 43.38 8.91 43.52 9.31 C 42.97 12.16 43.41 15.07 43.12 17.93 C 42.25 19.20 40.31 18.65 39.00 19.11 C 40.28 15.18 42.86 11.52 41.99 7.17 Z" />
</g>
<g id="#aa245fff">
<path fill="#aa245f" opacity="1.00" d=" M 24.38 9.56 C 24.62 9.78 25.09 10.21 25.32 10.43 L 26.18 11.22 C 27.05 13.98 28.06 16.70 28.80 19.50 C 29.17 20.95 29.65 22.38 30.22 23.76 C 31.43 23.74 32.65 23.69 33.86 23.58 C 34.40 22.30 34.89 21.00 35.22 19.65 C 35.94 16.81 36.91 14.03 37.83 11.25 L 38.70 10.46 C 38.93 10.24 39.40 9.79 39.64 9.57 C 37.54 15.57 35.70 21.67 34.64 27.95 C 33.96 30.37 33.87 32.90 34.00 35.40 C 34.03 36.00 34.11 37.20 34.15 37.80 C 36.33 34.89 39.67 33.50 43.18 32.98 C 40.54 35.69 37.34 38.32 33.50 38.87 C 33.13 35.91 33.65 32.69 32.01 30.02 C 30.23 32.63 30.93 35.90 30.51 38.85 C 26.21 38.08 22.29 35.19 19.80 31.63 C 22.39 31.52 24.97 31.83 27.45 32.56 C 28.22 34.01 28.99 35.46 29.76 36.91 C 30.22 33.60 30.31 30.19 29.37 26.95 C 28.09 21.05 26.41 15.25 24.38 9.56 Z" />
</g>
<g id="#eb5b9dff">
<path fill="#eb5b9d" opacity="1.00" d=" M 43.52 9.31 C 43.66 9.69 43.92 10.43 44.06 10.81 C 43.75 14.99 45.27 19.45 43.42 23.40 C 41.28 23.95 39.14 24.48 36.98 24.91 C 37.61 22.96 38.32 21.04 39.00 19.11 C 40.31 18.65 42.25 19.20 43.12 17.93 C 43.41 15.07 42.97 12.16 43.52 9.31 Z" />
</g>
<g id="#d2407dff">
<path fill="#d2407d" opacity="1.00" d=" M 18.89 13.78 C 19.21 12.77 19.56 11.77 19.93 10.78 C 19.90 15.65 19.12 20.61 20.68 25.35 C 22.88 25.60 25.10 25.65 27.32 25.65 C 27.75 27.42 28.16 29.20 28.57 30.98 C 28.85 29.64 29.13 28.30 29.37 26.95 C 30.31 30.19 30.22 33.60 29.76 36.91 C 28.99 35.46 28.22 34.01 27.45 32.56 C 24.97 31.83 22.39 31.52 19.80 31.63 C 19.22 30.46 18.25 29.37 18.34 27.99 C 18.12 23.25 18.16 18.48 18.89 13.78 Z" />
</g>
<g id="#d84685ff">
<path fill="#d84685" opacity="1.00" d=" M 44.06 10.81 C 44.43 11.79 44.78 12.78 45.11 13.77 C 45.26 15.09 45.40 16.42 45.54 17.74 C 45.18 21.04 45.34 24.40 44.67 27.67 C 44.23 30.46 40.93 30.21 38.88 31.02 C 36.48 31.34 35.45 33.79 34.00 35.40 C 33.87 32.90 33.96 30.37 34.64 27.95 C 34.89 28.94 35.15 29.93 35.42 30.91 C 35.84 28.89 36.34 26.88 36.98 24.91 C 39.14 24.48 41.28 23.95 43.42 23.40 C 45.27 19.45 43.75 14.99 44.06 10.81 Z" />
</g>
<g id="#da3e8fff">
<path fill="#da3e8f" opacity="1.00" d=" M 28.80 19.50 C 29.83 17.59 30.85 15.67 31.92 13.79 C 32.79 15.87 32.71 18.81 35.22 19.65 C 34.89 21.00 34.40 22.30 33.86 23.58 C 32.65 23.69 31.43 23.74 30.22 23.76 C 29.65 22.38 29.17 20.95 28.80 19.50 Z" />
</g>
<g id="#20934eff">
<path fill="#20934e" opacity="1.00" d=" M 57.37 26.53 C 58.68 25.14 59.90 23.66 61.09 22.17 C 62.34 28.04 59.18 33.74 56.03 38.46 C 56.15 35.18 57.81 32.28 58.70 29.19 C 56.59 31.32 54.52 33.52 52.14 35.37 C 53.10 31.92 56.88 30.16 57.37 26.53 Z" />
</g>
<g id="#269a55ff">
<path fill="#269a55" opacity="1.00" d=" M 3.28 22.25 C 4.84 24.04 6.40 25.84 8.18 27.41 C 7.71 28.48 7.85 29.43 8.60 30.26 C 10.44 32.53 12.63 34.54 14.04 37.13 C 11.48 35.42 9.38 33.16 7.13 31.07 C 7.76 33.85 8.83 36.53 9.02 39.39 C 5.34 34.52 2.51 28.50 3.28 22.25 Z" />
</g>
<g id="#286643ff">
<path fill="#286643" opacity="1.00" d=" M 39.81 44.88 C 43.47 36.99 50.53 31.54 57.37 26.53 C 56.88 30.16 53.10 31.92 52.14 35.37 C 47.61 40.20 42.18 45.14 41.02 51.96 C 42.69 51.22 44.37 50.51 46.05 49.79 C 41.83 53.61 38.37 58.30 37.26 64.00 L 27.21 64.00 C 26.42 61.75 25.82 59.41 24.67 57.31 C 22.96 54.04 19.94 51.78 17.62 48.98 C 20.04 49.81 21.69 51.87 23.89 53.09 C 22.67 46.78 18.35 41.66 14.04 37.13 C 12.63 34.54 10.44 32.53 8.60 30.26 C 7.85 29.43 7.71 28.48 8.18 27.41 C 14.30 31.98 20.59 36.90 24.06 43.91 C 26.43 47.93 27.50 52.50 28.56 56.99 C 29.05 52.10 29.04 47.00 27.04 42.42 C 30.34 42.12 33.65 42.18 36.96 42.34 C 34.83 47.43 34.94 53.08 35.45 58.47 C 36.68 53.90 37.40 49.08 39.81 44.88 M 29.35 44.35 C 30.30 50.45 30.56 56.59 30.29 62.77 C 31.43 62.77 32.57 62.77 33.72 62.75 C 33.48 56.58 33.71 50.44 34.65 44.33 C 32.88 44.26 31.11 44.27 29.35 44.35 Z" />
</g>
<g id="#4ccb84ff">
<path fill="#4ccb84" opacity="1.00" d=" M 58.70 29.19 C 57.81 32.28 56.15 35.18 56.03 38.46 C 53.18 42.62 49.72 46.33 46.05 49.79 C 44.37 50.51 42.69 51.22 41.02 51.96 C 42.18 45.14 47.61 40.20 52.14 35.37 C 54.52 33.52 56.59 31.32 58.70 29.19 Z" />
</g>
<g id="#4ccc84ff">
<path fill="#4ccc84" opacity="1.00" d=" M 7.13 31.07 C 9.38 33.16 11.48 35.42 14.04 37.13 C 18.35 41.66 22.67 46.78 23.89 53.09 C 21.69 51.87 20.04 49.81 17.62 48.98 C 15.84 47.28 14.06 45.58 12.55 43.64 C 12.50 43.59 12.41 43.49 12.36 43.44 C 11.13 42.19 10.00 40.84 9.02 39.39 C 8.83 36.53 7.76 33.85 7.13 31.07 Z" />
</g>
<g id="#296c48e0">
<path fill="#296c48" opacity="0.88" d=" M 12.36 43.44 C 12.41 43.49 12.50 43.59 12.55 43.64 C 12.50 43.59 12.41 43.49 12.36 43.44 Z" />
</g>
<g id="#4ab078ff">
<path fill="#4ab078" opacity="1.00" d=" M 29.35 44.35 C 31.11 44.27 32.88 44.26 34.65 44.33 C 33.71 50.44 33.48 56.58 33.72 62.75 C 32.57 62.77 31.43 62.77 30.29 62.77 C 30.56 56.59 30.30 50.45 29.35 44.35 Z" />
</g>
</svg>
