<?xml version="1.0" encoding="UTF-8" ?>
<!DOCTYPE svg PUBLIC "-//W3C//DTD SVG 1.1//EN" "http://www.w3.org/Graphics/SVG/1.1/DTD/svg11.dtd">
<svg width="64pt" height="64pt" viewBox="0 0 64 64" version="1.1" xmlns="http://www.w3.org/2000/svg">
<g id="#b47813ff">
<path fill="#b47813" opacity="1.00" d=" M 34.43 0.00 L 35.53 0.00 C 35.67 3.21 36.81 6.24 37.48 9.36 C 39.34 7.62 41.23 5.90 43.22 4.30 C 44.38 6.13 44.17 8.32 44.02 10.37 C 43.90 10.87 43.65 11.88 43.52 12.38 C 45.07 11.80 46.63 11.24 48.19 10.69 C 48.99 10.86 50.60 11.21 51.40 11.39 C 50.09 13.52 48.81 15.67 47.41 17.75 L 48.36 17.91 C 50.45 18.40 52.54 18.84 54.65 19.22 C 54.57 19.68 54.43 20.61 54.36 21.07 C 52.81 22.19 51.20 23.23 49.62 24.31 C 52.30 25.65 54.97 27.06 57.39 28.86 C 54.34 29.62 51.29 30.39 48.21 30.98 C 50.41 33.29 52.44 35.76 54.22 38.42 C 51.21 38.23 48.24 37.73 45.29 37.17 C 45.52 37.79 45.99 39.02 46.22 39.64 C 46.49 41.45 47.72 43.91 45.07 44.40 C 43.25 43.31 41.51 42.09 39.73 40.93 C 39.60 44.02 39.39 47.12 38.67 50.14 C 37.37 48.96 36.22 47.61 35.25 46.15 L 35.21 45.44 C 35.68 45.82 36.63 46.59 37.10 46.97 C 39.58 44.72 38.33 40.53 38.53 37.44 C 36.64 37.22 34.80 37.61 32.97 38.00 C 31.77 38.22 30.57 38.40 29.36 38.53 C 27.95 41.38 27.95 44.88 29.89 47.49 C 30.95 45.64 31.93 43.69 33.61 42.31 C 33.91 42.99 34.51 44.35 34.80 45.03 C 34.41 44.66 33.64 43.92 33.25 43.55 C 32.10 45.90 30.83 48.20 29.26 50.29 C 29.05 49.96 28.61 49.30 28.40 48.98 C 27.62 46.69 27.10 44.33 26.59 41.98 C 24.27 44.12 21.81 46.10 19.14 47.80 C 19.42 44.84 19.83 41.89 20.44 38.97 C 17.64 39.92 14.82 40.79 11.96 41.52 C 12.95 39.38 14.10 37.31 15.33 35.30 C 15.37 35.73 15.43 36.57 15.46 37.00 L 15.57 38.60 C 19.25 39.49 23.71 36.49 22.51 32.40 C 23.65 33.55 24.84 34.66 26.02 35.78 C 25.26 35.72 23.74 35.59 22.98 35.53 C 20.80 38.18 21.36 41.71 21.40 44.89 C 24.17 42.57 28.30 41.02 28.56 36.85 C 32.05 37.69 35.55 36.59 38.74 35.23 C 39.73 38.33 41.26 41.80 45.00 42.04 C 44.64 40.25 44.22 38.47 43.77 36.70 C 46.22 36.67 48.67 36.60 51.12 36.51 C 50.89 36.23 50.44 35.66 50.21 35.37 C 48.87 33.73 47.42 32.19 45.95 30.66 C 45.14 30.60 43.52 30.49 42.71 30.44 C 42.98 29.81 43.53 28.55 43.81 27.91 C 43.09 27.56 41.67 26.84 40.96 26.48 C 41.61 26.44 42.93 26.36 43.58 26.32 C 43.15 23.85 42.76 21.35 41.91 18.98 C 45.12 17.87 48.72 16.32 48.83 12.33 C 46.78 12.85 44.74 13.40 42.71 13.96 C 42.66 11.66 42.60 9.35 42.52 7.05 C 39.98 9.15 36.55 10.93 36.06 14.54 C 31.19 13.38 25.64 14.87 22.49 18.88 C 20.80 15.50 16.04 14.27 13.07 16.75 C 12.39 15.72 11.74 14.67 11.11 13.60 C 13.26 13.69 15.42 13.75 17.57 13.82 L 18.64 13.93 C 18.03 12.19 17.43 10.45 16.73 8.75 C 17.32 8.00 17.93 7.25 18.55 6.52 C 20.40 7.89 22.35 9.12 24.28 10.35 C 24.41 7.15 24.68 3.95 25.47 0.83 C 27.24 3.21 29.03 5.57 30.78 7.97 C 31.88 5.26 33.88 2.92 34.43 0.00 M 33.05 14.00 C 36.31 11.82 36.22 7.41 34.67 4.21 C 32.03 6.64 31.31 10.86 33.05 14.00 M 26.55 5.19 C 26.00 8.06 24.29 11.41 25.85 14.20 C 27.88 15.22 30.24 13.43 31.78 12.15 C 30.41 9.57 28.49 7.35 26.55 5.19 M 18.45 9.13 C 18.76 12.41 20.48 16.16 24.18 16.30 C 25.58 13.03 21.59 9.53 18.45 9.13 M 43.50 20.81 C 44.03 23.26 44.49 25.74 44.70 28.25 C 47.29 29.79 50.28 29.82 52.91 28.36 C 51.78 26.78 49.68 26.55 48.01 25.82 C 48.64 23.59 51.55 22.55 51.74 20.30 C 49.23 19.26 45.74 18.88 43.50 20.81 Z" />
</g>
<g id="#3d170182">
<path fill="#3d1701" opacity="0.51" d=" M 43.22 4.30 C 43.83 3.86 44.44 3.42 45.06 2.99 C 45.13 5.49 44.74 7.98 44.02 10.37 C 44.17 8.32 44.38 6.13 43.22 4.30 Z" />
</g>
<g id="#fde02fff">
<path fill="#fde02f" opacity="1.00" d=" M 33.05 14.00 C 31.31 10.86 32.03 6.64 34.67 4.21 C 36.22 7.41 36.31 11.82 33.05 14.00 Z" />
<path fill="#fde02f" opacity="1.00" d=" M 10.98 31.20 C 13.47 29.35 15.88 26.66 19.31 27.31 C 20.00 28.34 20.67 29.38 21.32 30.43 C 21.38 30.91 21.50 31.86 21.56 32.34 C 19.82 32.69 18.06 32.93 16.29 32.92 C 14.51 32.37 12.75 31.77 10.98 31.20 Z" />
</g>
<g id="#fec325ff">
<path fill="#fec325" opacity="1.00" d=" M 26.55 5.19 C 28.49 7.35 30.41 9.57 31.78 12.15 C 30.24 13.43 27.88 15.22 25.85 14.20 C 24.29 11.41 26.00 8.06 26.55 5.19 Z" />
</g>
<g id="#37150184">
<path fill="#371501" opacity="0.52" d=" M 15.82 6.71 C 15.67 4.77 17.86 5.69 18.55 6.52 C 17.93 7.25 17.32 8.00 16.73 8.75 C 16.50 8.24 16.05 7.22 15.82 6.71 Z" />
</g>
<g id="#fac425ff">
<path fill="#fac425" opacity="1.00" d=" M 36.06 14.54 C 36.55 10.93 39.98 9.15 42.52 7.05 C 42.60 9.35 42.66 11.66 42.71 13.96 C 44.74 13.40 46.78 12.85 48.83 12.33 C 48.72 16.32 45.12 17.87 41.91 18.98 C 40.30 17.09 38.23 15.69 36.06 14.54 Z" />
</g>
<g id="#fed92bff">
<path fill="#fed92b" opacity="1.00" d=" M 18.45 9.13 C 21.59 9.53 25.58 13.03 24.18 16.30 C 20.48 16.16 18.76 12.41 18.45 9.13 Z" />
</g>
<g id="#512102b8">
<path fill="#512102" opacity="0.72" d=" M 48.19 10.69 C 49.24 9.77 53.39 8.98 51.40 11.39 C 50.60 11.21 48.99 10.86 48.19 10.69 Z" />
</g>
<g id="#5d2c04ae">
<path fill="#5d2c04" opacity="0.68" d=" M 9.42 12.66 C 12.18 12.71 14.90 13.15 17.57 13.82 C 15.42 13.75 13.26 13.69 11.11 13.60 C 11.74 14.67 12.39 15.72 13.07 16.75 C 13.28 17.05 13.68 17.65 13.89 17.95 C 12.05 16.50 10.67 14.62 9.42 12.66 Z" />
</g>
<g id="#4d2204ff">
<path fill="#4d2204" opacity="1.00" d=" M 22.49 18.88 C 25.64 14.87 31.19 13.38 36.06 14.54 C 38.23 15.69 40.30 17.09 41.91 18.98 C 42.76 21.35 43.15 23.85 43.58 26.32 C 42.93 26.36 41.61 26.44 40.96 26.48 C 41.67 26.84 43.09 27.56 43.81 27.91 C 43.53 28.55 42.98 29.81 42.71 30.44 C 41.97 31.79 41.17 33.11 40.39 34.43 C 39.98 34.63 39.15 35.03 38.74 35.23 C 35.55 36.59 32.05 37.69 28.56 36.85 C 27.93 36.58 26.65 36.05 26.02 35.78 C 24.84 34.66 23.65 33.55 22.51 32.40 C 20.86 32.82 19.21 33.22 17.54 33.56 C 16.83 34.69 16.12 35.83 15.46 37.00 C 15.43 36.57 15.37 35.73 15.33 35.30 C 15.61 34.81 16.17 33.83 16.44 33.34 C 14.94 33.27 13.43 33.21 11.93 33.15 C 13.38 33.06 14.83 32.99 16.29 32.92 C 18.06 32.93 19.82 32.69 21.56 32.34 C 21.50 31.86 21.38 30.91 21.32 30.43 C 20.70 27.64 20.21 24.78 20.84 21.94 C 21.35 20.90 21.90 19.88 22.49 18.88 M 25.91 19.33 C 26.01 19.79 26.22 20.71 26.33 21.17 C 25.22 21.29 24.12 21.47 23.02 21.61 C 22.36 23.94 22.19 26.38 22.23 28.80 C 22.55 30.07 23.41 33.16 25.26 31.34 C 25.41 31.90 25.72 33.03 25.87 33.59 C 27.86 34.94 30.05 35.98 32.47 36.24 C 32.22 35.80 31.72 34.92 31.47 34.48 C 31.83 34.38 32.55 34.20 32.91 34.11 C 33.19 34.62 33.77 35.64 34.05 36.15 L 35.12 34.68 C 35.78 34.72 37.10 34.79 37.76 34.82 C 37.74 34.56 37.71 34.03 37.69 33.77 C 38.80 32.98 39.76 32.03 40.56 30.94 C 40.92 30.76 41.64 30.40 42.00 30.22 C 41.38 29.12 40.76 28.02 40.14 26.91 C 40.40 25.88 40.66 24.85 40.93 23.82 C 40.60 23.71 39.96 23.49 39.64 23.38 C 41.76 23.03 40.25 20.14 38.62 20.61 L 39.52 19.83 C 36.94 20.48 35.07 17.81 32.53 18.64 L 31.86 18.98 C 29.92 18.13 26.86 16.19 25.91 19.33 Z" />
</g>
<g id="#fed329ff">
<path fill="#fed329" opacity="1.00" d=" M 13.07 16.75 C 16.04 14.27 20.80 15.50 22.49 18.88 C 21.90 19.88 21.35 20.90 20.84 21.94 C 17.62 22.45 16.34 19.23 13.89 17.95 C 13.68 17.65 13.28 17.05 13.07 16.75 Z" />
</g>
<g id="#ad7314f0">
<path fill="#ad7314" opacity="0.94" d=" M 13.89 17.95 C 16.34 19.23 17.62 22.45 20.84 21.94 C 20.21 24.78 20.70 27.64 21.32 30.43 C 20.67 29.38 20.00 28.34 19.31 27.31 C 15.88 26.66 13.47 29.35 10.98 31.20 C 12.75 31.77 14.51 32.37 16.29 32.92 C 14.83 32.99 13.38 33.06 11.93 33.15 L 11.19 33.11 C 10.60 32.68 9.42 31.81 8.83 31.38 C 9.42 30.78 10.62 29.60 11.21 29.00 C 12.25 28.30 13.28 27.60 14.32 26.89 C 12.29 25.84 10.22 24.86 8.21 23.78 C 9.39 22.63 10.68 21.57 12.21 20.90 C 13.38 20.68 14.55 20.49 15.73 20.32 C 15.27 19.73 14.35 18.54 13.89 17.95 M 11.11 23.58 C 13.42 26.13 16.98 26.31 19.99 25.00 C 19.07 21.53 13.38 21.44 11.11 23.58 Z" />
</g>
<g id="#995d10ff">
<path fill="#995d10" opacity="1.00" d=" M 25.91 19.33 C 26.86 16.19 29.92 18.13 31.86 18.98 C 31.17 20.19 33.63 22.12 33.66 20.09 C 33.38 19.73 32.81 19.00 32.53 18.64 C 35.07 17.81 36.94 20.48 39.52 19.83 L 38.62 20.61 C 36.79 21.45 38.04 23.44 39.64 23.38 C 39.96 23.49 40.60 23.71 40.93 23.82 C 40.66 24.85 40.40 25.88 40.14 26.91 C 40.76 28.02 41.38 29.12 42.00 30.22 C 41.64 30.40 40.92 30.76 40.56 30.94 C 40.10 29.95 39.66 28.95 39.25 27.94 C 39.94 25.97 37.75 23.99 36.40 26.17 L 36.03 25.69 C 34.25 23.93 32.21 22.46 30.15 21.04 C 29.45 22.38 28.75 23.71 28.05 25.05 C 29.68 26.28 31.67 26.71 33.64 27.01 C 33.13 28.06 32.62 29.12 32.15 30.20 L 32.09 29.33 C 31.51 29.52 30.37 29.89 29.79 30.08 C 28.61 29.54 27.44 29.00 26.25 28.49 C 25.55 28.33 24.15 28.02 23.45 27.86 C 24.06 29.02 24.66 30.18 25.26 31.34 C 23.41 33.16 22.55 30.07 22.23 28.80 C 22.19 26.38 22.36 23.94 23.02 21.61 C 24.12 21.47 25.22 21.29 26.33 21.17 C 26.94 21.14 28.17 21.07 28.78 21.04 C 29.13 19.62 27.00 18.87 25.91 19.33 M 25.05 24.42 C 24.48 26.06 25.03 26.58 26.71 25.98 C 27.21 24.36 26.66 23.84 25.05 24.42 M 28.16 26.96 C 28.29 30.20 31.26 25.54 28.16 26.96 Z" />
</g>
<g id="#5c2c04b3">
<path fill="#5c2c04" opacity="0.70" d=" M 48.36 17.91 C 51.24 17.91 54.13 18.06 56.94 18.76 C 56.19 19.64 55.32 20.42 54.36 21.07 C 54.43 20.61 54.57 19.68 54.65 19.22 C 52.54 18.84 50.45 18.40 48.36 17.91 Z" />
</g>
<g id="#c29a67ff">
<path fill="#c29a67" opacity="1.00" d=" M 25.91 19.33 C 27.00 18.87 29.13 19.62 28.78 21.04 C 28.17 21.07 26.94 21.14 26.33 21.17 C 26.22 20.71 26.01 19.79 25.91 19.33 Z" />
</g>
<g id="#b47f45ff">
<path fill="#b47f45" opacity="1.00" d=" M 31.86 18.98 L 32.53 18.64 C 32.81 19.00 33.38 19.73 33.66 20.09 C 33.63 22.12 31.17 20.19 31.86 18.98 Z" />
</g>
<g id="#fed429ff">
<path fill="#fed429" opacity="1.00" d=" M 43.50 20.81 C 45.74 18.88 49.23 19.26 51.74 20.30 C 51.55 22.55 48.64 23.59 48.01 25.82 C 49.68 26.55 51.78 26.78 52.91 28.36 C 50.28 29.82 47.29 29.79 44.70 28.25 C 44.49 25.74 44.03 23.26 43.50 20.81 Z" />
<path fill="#fed429" opacity="1.00" d=" M 11.11 23.58 C 13.38 21.44 19.07 21.53 19.99 25.00 C 16.98 26.31 13.42 26.13 11.11 23.58 Z" />
</g>
<g id="#592703b8">
<path fill="#592703" opacity="0.72" d=" M 6.25 22.42 C 8.21 21.82 10.19 21.28 12.21 20.90 C 10.68 21.57 9.39 22.63 8.21 23.78 C 7.54 23.35 6.89 22.90 6.25 22.42 Z" />
</g>
<g id="#734c0dff">
<path fill="#734c0d" opacity="1.00" d=" M 30.15 21.04 C 32.21 22.46 34.25 23.93 36.03 25.69 C 35.03 27.75 34.07 29.82 33.00 31.84 L 32.25 32.02 C 32.22 31.57 32.17 30.66 32.15 30.20 C 32.62 29.12 33.13 28.06 33.64 27.01 C 31.67 26.71 29.68 26.28 28.05 25.05 C 28.75 23.71 29.45 22.38 30.15 21.04 Z" />
</g>
<g id="#a17f54ff">
<path fill="#a17f54" opacity="1.00" d=" M 39.64 23.38 C 38.04 23.44 36.79 21.45 38.62 20.61 C 40.25 20.14 41.76 23.03 39.64 23.38 Z" />
</g>
<g id="#c39c55ff">
<path fill="#c39c55" opacity="1.00" d=" M 25.05 24.42 C 26.66 23.84 27.21 24.36 26.71 25.98 C 25.03 26.58 24.48 26.06 25.05 24.42 Z" />
</g>
<g id="#c29a47ff">
<path fill="#c29a47" opacity="1.00" d=" M 36.40 26.17 C 37.75 23.99 39.94 25.97 39.25 27.94 C 37.79 28.27 36.85 27.68 36.40 26.17 Z" />
</g>
<g id="#af7e19ff">
<path fill="#af7e19" opacity="1.00" d=" M 36.03 25.69 L 36.40 26.17 C 36.85 27.68 37.79 28.27 39.25 27.94 C 39.66 28.95 40.10 29.95 40.56 30.94 C 39.76 32.03 38.80 32.98 37.69 33.77 C 37.22 32.84 36.64 31.97 36.09 31.08 C 35.67 31.18 34.84 31.39 34.42 31.49 C 34.06 31.58 33.35 31.76 33.00 31.84 C 34.07 29.82 35.03 27.75 36.03 25.69 Z" />
</g>
<g id="#c59920ff">
<path fill="#c59920" opacity="1.00" d=" M 28.16 26.96 C 31.26 25.54 28.29 30.20 28.16 26.96 Z" />
</g>
<g id="#caa826ff">
<path fill="#caa826" opacity="1.00" d=" M 23.45 27.86 C 24.15 28.02 25.55 28.33 26.25 28.49 C 27.28 29.55 28.06 30.81 28.84 32.06 C 28.10 32.44 26.61 33.21 25.87 33.59 C 25.72 33.03 25.41 31.90 25.26 31.34 C 24.66 30.18 24.06 29.02 23.45 27.86 Z" />
</g>
<g id="#4721038f">
<path fill="#472103" opacity="0.56" d=" M 6.89 32.57 C 7.98 31.00 9.61 29.99 11.21 29.00 C 10.62 29.60 9.42 30.78 8.83 31.38 C 9.42 31.81 10.60 32.68 11.19 33.11 C 9.75 32.98 8.32 32.80 6.89 32.57 Z" />
</g>
<g id="#a17e1fff">
<path fill="#a17e1f" opacity="1.00" d=" M 26.25 28.49 C 27.44 29.00 28.61 29.54 29.79 30.08 C 29.91 30.71 30.13 31.96 30.25 32.58 C 31.14 33.07 32.03 33.58 32.91 34.11 C 32.55 34.20 31.83 34.38 31.47 34.48 C 31.72 34.92 32.22 35.80 32.47 36.24 C 30.05 35.98 27.86 34.94 25.87 33.59 C 26.61 33.21 28.10 32.44 28.84 32.06 C 28.06 30.81 27.28 29.55 26.25 28.49 Z" />
</g>
<g id="#c3a53aff">
<path fill="#c3a53a" opacity="1.00" d=" M 29.79 30.08 C 30.37 29.89 31.51 29.52 32.09 29.33 L 32.15 30.20 C 32.17 30.66 32.22 31.57 32.25 32.02 L 33.00 31.84 C 33.35 31.76 34.06 31.58 34.42 31.49 C 34.59 32.29 34.94 33.89 35.12 34.68 L 34.05 36.15 C 33.77 35.64 33.19 34.62 32.91 34.11 C 32.03 33.58 31.14 33.07 30.25 32.58 C 30.13 31.96 29.91 30.71 29.79 30.08 Z" />
</g>
<g id="#bea862ff">
<path fill="#bea862" opacity="1.00" d=" M 34.42 31.49 C 34.84 31.39 35.67 31.18 36.09 31.08 C 36.64 31.97 37.22 32.84 37.69 33.77 C 37.71 34.03 37.74 34.56 37.76 34.82 C 37.10 34.79 35.78 34.72 35.12 34.68 C 34.94 33.89 34.59 32.29 34.42 31.49 Z" />
</g>
<g id="#fee632ff">
<path fill="#fee632" opacity="1.00" d=" M 40.39 34.43 C 41.17 33.11 41.97 31.79 42.71 30.44 C 43.52 30.49 45.14 30.60 45.95 30.66 C 47.42 32.19 48.87 33.73 50.21 35.37 C 46.89 35.89 43.44 36.10 40.39 34.43 Z" />
</g>
<g id="#f7c224ff">
<path fill="#f7c224" opacity="1.00" d=" M 17.54 33.56 C 19.21 33.22 20.86 32.82 22.51 32.40 C 23.71 36.49 19.25 39.49 15.57 38.60 L 15.46 37.00 C 16.12 35.83 16.83 34.69 17.54 33.56 Z" />
</g>
<g id="#fece27ff">
<path fill="#fece27" opacity="1.00" d=" M 38.74 35.23 C 39.15 35.03 39.98 34.63 40.39 34.43 C 43.44 36.10 46.89 35.89 50.21 35.37 C 50.44 35.66 50.89 36.23 51.12 36.51 C 48.67 36.60 46.22 36.67 43.77 36.70 C 44.22 38.47 44.64 40.25 45.00 42.04 C 41.26 41.80 39.73 38.33 38.74 35.23 Z" />
<path fill="#fece27" opacity="1.00" d=" M 29.36 38.53 C 30.57 38.40 31.77 38.22 32.97 38.00 C 33.19 39.43 33.36 40.88 33.61 42.31 C 31.93 43.69 30.95 45.64 29.89 47.49 C 27.95 44.88 27.95 41.38 29.36 38.53 Z" />
</g>
<g id="#fef036ff">
<path fill="#fef036" opacity="1.00" d=" M 22.98 35.53 C 23.74 35.59 25.26 35.72 26.02 35.78 C 26.65 36.05 27.93 36.58 28.56 36.85 C 28.30 41.02 24.17 42.57 21.40 44.89 C 21.36 41.71 20.80 38.18 22.98 35.53 Z" />
<path fill="#fef036" opacity="1.00" d=" M 32.97 38.00 C 34.80 37.61 36.64 37.22 38.53 37.44 C 38.33 40.53 39.58 44.72 37.10 46.97 C 36.63 46.59 35.68 45.82 35.21 45.44 L 34.80 45.03 C 34.51 44.35 33.91 42.99 33.61 42.31 C 33.36 40.88 33.19 39.43 32.97 38.00 Z" />
</g>
<g id="#6a2b04ba">
<path fill="#6a2b04" opacity="0.73" d=" M 46.22 39.64 C 47.02 41.70 47.68 43.81 48.21 45.96 C 47.15 45.46 46.09 44.97 45.07 44.40 C 47.72 43.91 46.49 41.45 46.22 39.64 Z" />
</g>
<g id="#34540bff">
<path fill="#34540b" opacity="1.00" d=" M 33.25 43.55 C 33.64 43.92 34.41 44.66 34.80 45.03 L 35.21 45.44 L 35.25 46.15 C 35.30 49.47 35.03 52.79 35.07 56.11 C 34.95 56.86 35.29 57.64 36.12 57.60 C 39.95 58.20 43.83 58.09 47.69 58.24 C 43.77 60.35 38.54 57.00 35.14 60.93 C 35.15 61.70 35.18 63.23 35.19 64.00 L 28.88 64.00 C 28.59 62.57 29.45 60.17 27.54 59.61 C 24.10 57.33 19.43 60.56 16.26 57.78 C 13.39 55.41 11.93 51.87 10.33 48.62 C 14.01 48.59 17.78 48.61 21.34 49.70 C 23.92 50.53 25.31 53.06 26.83 55.11 C 24.90 54.13 23.17 52.83 21.36 51.66 C 19.15 50.31 16.48 50.61 14.01 50.52 C 14.14 53.24 15.20 55.97 17.61 57.43 C 20.97 58.31 24.51 58.08 27.96 58.39 C 27.67 57.36 27.37 56.34 27.06 55.32 L 28.87 56.79 C 28.86 54.18 28.91 51.55 28.40 48.98 C 28.61 49.30 29.05 49.96 29.26 50.29 C 30.83 48.20 32.10 45.90 33.25 43.55 M 30.37 53.98 C 29.72 56.83 28.95 59.98 30.31 62.76 C 31.70 62.60 34.55 63.34 34.31 61.01 C 34.08 56.68 33.30 52.39 33.39 48.03 C 31.49 49.41 30.94 51.83 30.37 53.98 Z" />
<path fill="#34540b" opacity="1.00" d=" M 41.80 50.49 C 45.51 48.28 50.02 48.74 54.17 48.58 C 53.41 50.28 52.57 51.95 51.61 53.55 C 51.51 52.77 51.30 51.21 51.20 50.43 C 48.06 50.47 44.91 51.05 41.80 50.49 Z" />
</g>
<g id="#79b020ff">
<path fill="#79b020" opacity="1.00" d=" M 30.37 53.98 C 30.94 51.83 31.49 49.41 33.39 48.03 C 33.30 52.39 34.08 56.68 34.31 61.01 C 34.55 63.34 31.70 62.60 30.31 62.76 C 28.95 59.98 29.72 56.83 30.37 53.98 Z" />
</g>
<g id="#71b220ff">
<path fill="#71b220" opacity="1.00" d=" M 36.12 57.60 C 37.39 54.80 39.69 52.66 41.80 50.49 C 44.91 51.05 48.06 50.47 51.20 50.43 C 51.30 51.21 51.51 52.77 51.61 53.55 C 50.43 55.19 49.19 56.85 47.69 58.24 C 43.83 58.09 39.95 58.20 36.12 57.60 Z" />
</g>
<g id="#7bb722ff">
<path fill="#7bb722" opacity="1.00" d=" M 14.01 50.52 C 16.48 50.61 19.15 50.31 21.36 51.66 C 23.17 52.83 24.90 54.13 26.83 55.11 L 27.06 55.32 C 27.37 56.34 27.67 57.36 27.96 58.39 C 24.51 58.08 20.97 58.31 17.61 57.43 C 15.20 55.97 14.14 53.24 14.01 50.52 Z" />
</g>
</svg>
