<?xml version="1.0" encoding="UTF-8" ?>
<!DOCTYPE svg PUBLIC "-//W3C//DTD SVG 1.1//EN" "http://www.w3.org/Graphics/SVG/1.1/DTD/svg11.dtd">
<svg width="64pt" height="64pt" viewBox="0 0 64 64" version="1.1" xmlns="http://www.w3.org/2000/svg">
<g id="#5535185e">
<path fill="#553518" opacity="0.37" d=" M 16.06 3.78 C 16.20 1.55 20.51 3.22 19.73 5.05 C 18.49 4.67 17.27 4.22 16.06 3.78 Z" />
</g>
<g id="#f9eaa4fc">
<path fill="#f9eaa4" opacity="1.00" d=" M 9.87 4.49 C 11.79 3.50 13.96 3.23 16.06 3.78 C 17.27 4.22 18.49 4.67 19.73 5.05 L 20.66 5.38 C 20.87 5.76 21.28 6.53 21.49 6.91 C 19.16 8.55 16.61 9.82 14.17 11.28 C 13.77 11.07 12.97 10.65 12.57 10.45 C 13.57 7.90 16.46 7.31 18.54 5.98 C 16.90 6.50 15.26 7.04 13.62 7.58 C 13.67 6.97 13.78 5.76 13.83 5.15 C 13.34 5.52 12.36 6.26 11.87 6.62 C 11.37 6.09 10.37 5.02 9.87 4.49 Z" />
</g>
<g id="#e19703ff">
<path fill="#e19703" opacity="1.00" d=" M 9.87 4.49 C 10.37 5.02 11.37 6.09 11.87 6.62 C 12.36 6.26 13.34 5.52 13.83 5.15 C 13.78 5.76 13.67 6.97 13.62 7.58 C 15.26 7.04 16.90 6.50 18.54 5.98 C 16.46 7.31 13.57 7.90 12.57 10.45 L 12.06 10.26 C 12.72 12.89 14.69 14.91 16.64 16.67 C 20.01 20.79 23.40 24.93 26.25 29.42 C 27.76 32.18 29.75 34.63 32.09 36.71 L 32.64 37.20 C 33.36 38.79 34.41 40.18 35.52 41.51 C 36.07 42.25 37.16 43.73 37.70 44.47 C 34.65 42.99 31.52 41.33 29.66 38.36 C 29.28 38.64 28.51 39.19 28.13 39.46 C 27.71 39.31 26.87 39.00 26.45 38.85 C 24.38 33.18 18.81 29.69 17.14 23.83 C 18.36 25.36 19.79 26.73 21.41 27.85 C 19.85 24.18 17.30 21.07 14.84 17.97 C 12.77 15.87 10.60 13.57 10.37 10.46 C 9.80 10.26 8.67 9.86 8.10 9.66 C 8.26 8.81 8.56 7.12 8.71 6.27 C 9.00 5.82 9.58 4.94 9.87 4.49 M 10.43 7.26 C 9.92 8.93 10.45 9.52 12.04 9.01 C 12.54 7.34 12.00 6.75 10.43 7.26 M 21.05 28.08 C 20.67 29.73 21.27 30.31 22.85 29.81 C 23.23 28.15 22.63 27.58 21.05 28.08 M 22.61 30.41 C 23.81 32.41 24.84 35.05 27.41 35.58 C 26.59 33.39 25.27 30.63 22.61 30.41 M 27.21 36.00 C 26.76 37.37 27.24 37.88 28.66 37.53 C 29.12 36.15 28.64 35.65 27.21 36.00 Z" />
</g>
<g id="#c9dcb1ff">
<path fill="#c9dcb1" opacity="1.00" d=" M 7.31 10.05 C 7.49 8.71 8.15 7.49 8.71 6.27 C 8.56 7.12 8.26 8.81 8.10 9.66 C 8.67 9.86 9.80 10.26 10.37 10.46 C 10.60 13.57 12.77 15.87 14.84 17.97 C 17.30 21.07 19.85 24.18 21.41 27.85 C 19.79 26.73 18.36 25.36 17.14 23.83 C 14.30 18.97 11.54 13.86 7.31 10.05 Z" />
<path fill="#c9dcb1" opacity="1.00" d=" M 36.46 35.61 C 37.79 35.53 39.12 35.50 40.45 35.48 C 40.74 37.78 41.33 40.04 41.46 42.36 C 40.09 39.90 38.05 37.92 36.46 35.61 Z" />
<path fill="#c9dcb1" opacity="1.00" d=" M 50.37 41.30 C 52.17 41.26 53.98 41.21 55.78 41.15 C 56.87 43.73 57.70 46.43 57.62 49.26 C 55.87 49.41 54.07 49.84 52.32 49.42 C 51.44 46.77 51.01 44.01 50.37 41.30 Z" />
</g>
<g id="#fdec8eff">
<path fill="#fdec8e" opacity="1.00" d=" M 10.43 7.26 C 12.00 6.75 12.54 7.34 12.04 9.01 C 10.45 9.52 9.92 8.93 10.43 7.26 Z" />
</g>
<g id="#ec9626ff">
<path fill="#ec9626" opacity="1.00" d=" M 14.17 11.28 C 16.61 9.82 19.16 8.55 21.49 6.91 L 22.29 6.37 C 25.72 9.61 29.29 12.77 31.98 16.68 C 29.14 13.91 26.62 10.71 23.09 8.74 C 23.23 10.83 24.29 12.23 26.26 12.95 C 24.42 13.92 22.60 14.92 20.78 15.94 C 22.56 18.17 24.23 20.50 26.15 22.62 C 26.74 22.25 27.93 21.52 28.52 21.15 C 27.83 20.66 26.44 19.69 25.74 19.20 C 26.90 18.25 28.05 17.29 29.20 16.33 C 29.63 17.12 30.49 18.70 30.91 19.48 C 31.30 18.92 32.09 17.79 32.48 17.22 C 34.06 18.81 35.56 20.49 36.82 22.35 C 35.39 21.03 34.04 19.63 32.75 18.18 C 31.57 19.57 28.84 20.69 29.91 22.89 C 31.17 23.39 32.31 21.25 33.49 20.79 C 33.63 21.17 33.91 21.93 34.05 22.31 C 32.38 22.76 31.77 23.60 32.22 24.81 C 33.56 25.33 34.77 24.81 35.83 23.27 C 35.38 25.10 33.05 26.26 34.24 28.34 C 35.58 27.43 36.90 26.49 38.21 25.54 C 36.92 27.09 35.64 28.71 35.27 30.77 C 37.38 29.91 39.10 28.40 40.74 26.87 L 41.01 26.63 C 40.65 29.57 40.48 32.52 40.45 35.48 C 39.12 35.50 37.79 35.53 36.46 35.61 C 38.05 37.92 40.09 39.90 41.46 42.36 C 41.47 42.85 41.48 43.84 41.49 44.34 C 40.29 44.73 39.08 44.80 37.87 44.54 C 38.43 44.24 39.55 43.63 40.10 43.32 C 38.75 42.46 38.11 39.50 36.16 40.12 C 36.00 40.46 35.68 41.16 35.52 41.51 C 34.41 40.18 33.36 38.79 32.64 37.20 C 33.94 36.77 33.98 33.72 32.28 34.94 C 32.24 35.38 32.14 36.27 32.09 36.71 C 29.75 34.63 27.76 32.18 26.25 29.42 C 26.95 29.46 28.34 29.52 29.04 29.55 C 25.31 24.16 21.55 18.79 17.58 13.58 C 17.27 14.61 16.95 15.64 16.64 16.67 C 14.69 14.91 12.72 12.89 12.06 10.26 L 12.57 10.45 C 12.97 10.65 13.77 11.07 14.17 11.28 M 22.50 8.06 C 23.04 8.63 23.04 8.63 22.50 8.06 M 20.55 9.46 C 19.25 9.68 17.50 10.04 16.96 11.42 C 17.50 13.67 22.80 10.37 20.55 9.46 M 15.10 12.24 C 13.46 15.18 18.50 12.43 15.10 12.24 M 22.50 12.50 C 23.02 13.09 23.02 13.09 22.50 12.50 M 19.58 13.10 C 19.12 14.52 19.60 14.97 21.02 14.45 C 21.48 13.04 21.00 12.59 19.58 13.10 M 28.15 18.92 C 28.33 22.33 31.10 17.32 28.15 18.92 M 27.43 22.84 C 26.92 24.50 27.46 25.07 29.05 24.54 C 29.57 22.87 29.03 22.30 27.43 22.84 M 29.64 27.24 C 31.67 29.14 32.74 32.43 35.83 32.80 C 35.07 29.76 32.95 27.28 30.71 25.19 C 29.41 24.32 28.67 26.57 29.64 27.24 M 28.33 30.22 C 28.45 33.61 31.30 28.63 28.33 30.22 M 38.45 31.46 C 39.01 31.99 39.01 31.99 38.45 31.46 M 30.05 32.06 C 29.55 33.71 30.11 34.28 31.71 33.79 C 32.20 32.14 31.65 31.56 30.05 32.06 M 35.42 32.97 C 34.82 34.60 35.33 35.17 36.96 34.70 C 37.57 33.06 37.06 32.48 35.42 32.97 M 33.99 37.59 C 33.55 39.00 34.03 39.48 35.44 39.02 C 35.88 37.61 35.39 37.13 33.99 37.59 Z" />
</g>
<g id="#fffff6ff">
<path fill="#fffff6" opacity="1.00" d=" M 22.50 8.06 C 23.04 8.63 23.04 8.63 22.50 8.06 Z" />
</g>
<g id="#fffbcfff">
<path fill="#fffbcf" opacity="1.00" d=" M 20.55 9.46 C 22.80 10.37 17.50 13.67 16.96 11.42 C 17.50 10.04 19.25 9.68 20.55 9.46 Z" />
</g>
<g id="#fdf0aeff">
<path fill="#fdf0ae" opacity="1.00" d=" M 23.09 8.74 C 26.62 10.71 29.14 13.91 31.98 16.68 L 32.48 17.22 C 32.09 17.79 31.30 18.92 30.91 19.48 C 30.49 18.70 29.63 17.12 29.20 16.33 C 28.05 17.29 26.90 18.25 25.74 19.20 C 26.44 19.69 27.83 20.66 28.52 21.15 C 27.93 21.52 26.74 22.25 26.15 22.62 C 24.23 20.50 22.56 18.17 20.78 15.94 C 22.60 14.92 24.42 13.92 26.26 12.95 C 24.29 12.23 23.23 10.83 23.09 8.74 M 26.56 14.34 C 25.55 14.63 22.77 17.64 25.42 17.05 C 26.93 17.16 29.25 13.75 26.56 14.34 Z" />
</g>
<g id="#bb6d1cfe">
<path fill="#bb6d1c" opacity="1.00" d=" M 7.31 10.05 C 11.54 13.86 14.30 18.97 17.14 23.83 C 16.79 24.41 16.09 25.57 15.74 26.16 C 15.18 26.10 14.06 25.97 13.50 25.91 C 11.09 20.81 6.54 16.11 7.31 10.05 Z" />
</g>
<g id="#fffff3ff">
<path fill="#fffff3" opacity="1.00" d=" M 15.10 12.24 C 18.50 12.43 13.46 15.18 15.10 12.24 Z" />
</g>
<g id="#ffffffff">
<path fill="#ffffff" opacity="1.00" d=" M 22.50 12.50 C 23.02 13.09 23.02 13.09 22.50 12.50 Z" />
</g>
<g id="#ffffdeff">
<path fill="#ffffde" opacity="1.00" d=" M 19.58 13.10 C 21.00 12.59 21.48 13.04 21.02 14.45 C 19.60 14.97 19.12 14.52 19.58 13.10 Z" />
</g>
<g id="#fded9eff">
<path fill="#fded9e" opacity="1.00" d=" M 16.64 16.67 C 16.95 15.64 17.27 14.61 17.58 13.58 C 21.55 18.79 25.31 24.16 29.04 29.55 C 28.34 29.52 26.95 29.46 26.25 29.42 C 23.40 24.93 20.01 20.79 16.64 16.67 Z" />
</g>
<g id="#f6c553ff">
<path fill="#f6c553" opacity="1.00" d=" M 26.56 14.34 C 29.25 13.75 26.93 17.16 25.42 17.05 C 22.77 17.64 25.55 14.63 26.56 14.34 Z" />
</g>
<g id="#55a04cff">
<path fill="#55a04c" opacity="1.00" d=" M 44.81 18.17 C 48.91 14.30 54.86 13.79 60.20 14.52 C 59.53 15.45 58.73 16.55 57.42 16.45 C 55.32 16.36 53.22 16.15 51.12 15.97 C 51.73 16.67 52.34 17.37 52.95 18.07 C 51.42 19.73 49.90 21.40 48.38 23.07 C 47.13 21.48 45.97 19.82 44.81 18.17 Z" />
</g>
<g id="#538745ff">
<path fill="#538745" opacity="1.00" d=" M 51.12 15.97 C 53.22 16.15 55.32 16.36 57.42 16.45 C 54.81 18.82 51.84 21.20 50.84 24.75 C 49.82 27.91 51.02 31.16 51.96 34.17 C 49.20 31.75 46.15 29.37 42.37 28.97 C 40.53 34.86 42.87 40.75 44.61 46.35 C 45.37 48.53 46.11 50.78 47.45 52.69 C 49.56 54.33 52.41 54.23 54.93 54.52 L 55.89 54.60 C 52.59 59.61 46.22 62.11 40.39 60.56 C 38.39 59.78 36.56 58.65 34.79 57.44 L 34.75 57.44 C 25.48 50.45 15.18 43.45 3.14 43.12 C 4.01 41.97 4.90 40.82 5.79 39.68 C 8.80 41.32 12.05 42.44 15.42 43.04 C 19.07 45.37 22.86 47.49 26.93 48.99 C 30.95 50.42 34.20 53.30 38.07 55.02 C 40.12 55.97 42.35 54.89 44.42 54.63 C 43.46 53.29 42.47 51.96 41.46 50.65 C 42.48 50.24 43.48 49.78 44.46 49.29 C 44.10 48.75 43.39 47.69 43.03 47.15 C 42.49 46.23 41.95 45.30 41.49 44.34 C 41.48 43.84 41.47 42.85 41.46 42.36 C 41.33 40.04 40.74 37.78 40.45 35.48 C 40.48 32.52 40.65 29.57 41.01 26.63 C 41.56 23.56 42.77 20.56 44.81 18.17 C 45.97 19.82 47.13 21.48 48.38 23.07 C 49.90 21.40 51.42 19.73 52.95 18.07 C 52.34 17.37 51.73 16.67 51.12 15.97 Z" />
</g>
<g id="#ffffe9ff">
<path fill="#ffffe9" opacity="1.00" d=" M 28.15 18.92 C 31.10 17.32 28.33 22.33 28.15 18.92 Z" />
</g>
<g id="#fbeeb0ff">
<path fill="#fbeeb0" opacity="1.00" d=" M 29.91 22.89 C 28.84 20.69 31.57 19.57 32.75 18.18 C 34.04 19.63 35.39 21.03 36.82 22.35 C 38.27 23.73 39.50 25.31 40.74 26.87 C 39.10 28.40 37.38 29.91 35.27 30.77 C 35.64 28.71 36.92 27.09 38.21 25.54 C 36.90 26.49 35.58 27.43 34.24 28.34 C 33.05 26.26 35.38 25.10 35.83 23.27 C 34.77 24.81 33.56 25.33 32.22 24.81 C 31.77 23.60 32.38 22.76 34.05 22.31 C 33.91 21.93 33.63 21.17 33.49 20.79 C 32.31 21.25 31.17 23.39 29.91 22.89 Z" />
</g>
<g id="#fffabaff">
<path fill="#fffaba" opacity="1.00" d=" M 27.43 22.84 C 29.03 22.30 29.57 22.87 29.05 24.54 C 27.46 25.07 26.92 24.50 27.43 22.84 Z" />
</g>
<g id="#af550bf6">
<path fill="#af550b" opacity="0.96" d=" M 15.74 26.16 C 16.09 25.57 16.79 24.41 17.14 23.83 C 18.81 29.69 24.38 33.18 26.45 38.85 C 24.50 38.17 22.53 37.53 20.51 37.07 L 20.90 36.28 C 21.04 35.74 21.33 34.66 21.48 34.12 C 20.88 34.06 19.70 33.95 19.10 33.90 C 17.07 34.05 16.93 31.23 15.90 29.97 C 16.47 30.05 17.62 30.20 18.20 30.28 C 17.39 28.90 16.57 27.53 15.74 26.16 M 17.97 31.29 C 17.52 32.65 18.01 33.17 19.43 32.86 C 19.88 31.50 19.40 30.98 17.97 31.29 Z" />
</g>
<g id="#fef5adff">
<path fill="#fef5ad" opacity="1.00" d=" M 29.64 27.24 C 28.67 26.57 29.41 24.32 30.71 25.19 C 32.95 27.28 35.07 29.76 35.83 32.80 C 32.74 32.43 31.67 29.14 29.64 27.24 Z" />
</g>
<g id="#ae773de5">
<path fill="#ae773d" opacity="0.90" d=" M 13.50 25.91 C 14.06 25.97 15.18 26.10 15.74 26.16 C 16.57 27.53 17.39 28.90 18.20 30.28 C 17.62 30.20 16.47 30.05 15.90 29.97 C 14.83 28.79 14.21 27.31 13.50 25.91 Z" />
</g>
<g id="#fada91ff">
<path fill="#fada91" opacity="1.00" d=" M 21.05 28.08 C 22.63 27.58 23.23 28.15 22.85 29.81 C 21.27 30.31 20.67 29.73 21.05 28.08 Z" />
</g>
<g id="#8cb375ff">
<path fill="#8cb375" opacity="1.00" d=" M 42.37 28.97 C 46.15 29.37 49.20 31.75 51.96 34.17 C 52.91 35.34 53.44 36.79 54.10 38.14 C 52.30 37.46 50.47 36.89 48.65 36.31 C 47.71 38.01 45.83 39.58 46.31 41.71 C 46.81 44.49 47.35 47.68 49.73 49.50 C 51.68 51.20 54.27 51.76 56.69 52.45 C 56.51 52.98 56.16 54.05 55.98 54.59 L 54.93 54.52 C 52.41 54.23 49.56 54.33 47.45 52.69 C 46.11 50.78 45.37 48.53 44.61 46.35 C 42.87 40.75 40.53 34.86 42.37 28.97 Z" />
</g>
<g id="#ffffe3ff">
<path fill="#ffffe3" opacity="1.00" d=" M 28.33 30.22 C 31.30 28.63 28.45 33.61 28.33 30.22 Z" />
</g>
<g id="#c18840fe">
<path fill="#c18840" opacity="1.00" d=" M 17.97 31.29 C 19.40 30.98 19.88 31.50 19.43 32.86 C 18.01 33.17 17.52 32.65 17.97 31.29 Z" />
</g>
<g id="#f9de95ff">
<path fill="#f9de95" opacity="1.00" d=" M 22.61 30.41 C 25.27 30.63 26.59 33.39 27.41 35.58 C 24.84 35.05 23.81 32.41 22.61 30.41 Z" />
</g>
<g id="#feffedff">
<path fill="#feffed" opacity="1.00" d=" M 38.45 31.46 C 39.01 31.99 39.01 31.99 38.45 31.46 Z" />
</g>
<g id="#fffec4ff">
<path fill="#fffec4" opacity="1.00" d=" M 30.05 32.06 C 31.65 31.56 32.20 32.14 31.71 33.79 C 30.11 34.28 29.55 33.71 30.05 32.06 Z" />
</g>
<g id="#fffec8ff">
<path fill="#fffec8" opacity="1.00" d=" M 35.42 32.97 C 37.06 32.48 37.57 33.06 36.96 34.70 C 35.33 35.17 34.82 34.60 35.42 32.97 Z" />
</g>
<g id="#b57733ed">
<path fill="#b57733" opacity="0.93" d=" M 19.10 33.90 C 19.70 33.95 20.88 34.06 21.48 34.12 C 21.33 34.66 21.04 35.74 20.90 36.28 C 19.25 36.24 18.65 35.45 19.10 33.90 Z" />
</g>
<g id="#fffdc5ff">
<path fill="#fffdc5" opacity="1.00" d=" M 32.28 34.94 C 33.98 33.72 33.94 36.77 32.64 37.20 L 32.09 36.71 C 32.14 36.27 32.24 35.38 32.28 34.94 Z" />
</g>
<g id="#f7dc96fe">
<path fill="#f7dc96" opacity="1.00" d=" M 27.21 36.00 C 28.64 35.65 29.12 36.15 28.66 37.53 C 27.24 37.88 26.76 37.37 27.21 36.00 Z" />
</g>
<g id="#a9c48dff">
<path fill="#a9c48d" opacity="1.00" d=" M 46.31 41.71 C 45.83 39.58 47.71 38.01 48.65 36.31 C 50.47 36.89 52.30 37.46 54.10 38.14 C 54.70 39.12 55.26 40.12 55.78 41.15 C 53.98 41.21 52.17 41.26 50.37 41.30 C 51.01 44.01 51.44 46.77 52.32 49.42 C 54.07 49.84 55.87 49.41 57.62 49.26 C 57.39 50.06 56.92 51.65 56.69 52.45 C 54.27 51.76 51.68 51.20 49.73 49.50 C 47.35 47.68 46.81 44.49 46.31 41.71 Z" />
</g>
<g id="#b5cb93ff">
<path fill="#b5cb93" opacity="1.00" d=" M 5.79 39.68 C 9.99 36.55 15.49 35.99 20.51 37.07 C 22.53 37.53 24.50 38.17 26.45 38.85 C 26.87 39.00 27.71 39.31 28.13 39.46 C 28.51 39.19 29.28 38.64 29.66 38.36 C 31.52 41.33 34.65 42.99 37.70 44.47 L 37.87 44.54 C 39.08 44.80 40.29 44.73 41.49 44.34 C 41.95 45.30 42.49 46.23 43.03 47.15 C 43.02 47.64 43.01 48.61 43.00 49.10 C 40.60 48.36 38.20 47.62 35.78 46.93 C 37.50 49.03 39.28 51.08 41.08 53.12 C 36.89 50.92 33.20 47.82 28.76 46.12 C 24.48 44.47 20.14 42.33 15.42 43.04 C 12.05 42.44 8.80 41.32 5.79 39.68 Z" />
</g>
<g id="#fef9bfff">
<path fill="#fef9bf" opacity="1.00" d=" M 33.99 37.59 C 35.39 37.13 35.88 37.61 35.44 39.02 C 34.03 39.48 33.55 39.00 33.99 37.59 Z" />
</g>
<g id="#fdf1abff">
<path fill="#fdf1ab" opacity="1.00" d=" M 36.16 40.12 C 38.11 39.50 38.75 42.46 40.10 43.32 C 39.55 43.63 38.43 44.24 37.87 44.54 L 37.70 44.47 C 37.16 43.73 36.07 42.25 35.52 41.51 C 35.68 41.16 36.00 40.46 36.16 40.12 Z" />
</g>
<g id="#84ae70ff">
<path fill="#84ae70" opacity="1.00" d=" M 15.42 43.04 C 20.14 42.33 24.48 44.47 28.76 46.12 C 33.20 47.82 36.89 50.92 41.08 53.12 C 39.28 51.08 37.50 49.03 35.78 46.93 C 38.20 47.62 40.60 48.36 43.00 49.10 C 43.01 48.61 43.02 47.64 43.03 47.15 C 43.39 47.69 44.10 48.75 44.46 49.29 C 43.48 49.78 42.48 50.24 41.46 50.65 C 42.47 51.96 43.46 53.29 44.42 54.63 C 42.35 54.89 40.12 55.97 38.07 55.02 C 34.20 53.30 30.95 50.42 26.93 48.99 C 22.86 47.49 19.07 45.37 15.42 43.04 Z" />
</g>
<g id="#0000009b">
<path fill="#000000" opacity="0.61" d=" M 34.75 57.44 L 34.79 57.44 C 36.56 58.65 38.39 59.78 40.39 60.56 C 35.80 61.19 31.06 61.92 26.50 60.60 C 25.28 60.25 24.07 59.83 22.84 59.49 C 24.72 59.17 26.60 58.89 28.48 58.59 C 30.58 58.28 32.65 57.81 34.75 57.44 Z" />
</g>
<g id="#00000043">
<path fill="#000000" opacity="0.26" d=" M 16.68 59.18 C 20.53 58.37 24.63 57.05 28.48 58.59 C 26.60 58.89 24.72 59.17 22.84 59.49 C 24.07 59.83 25.28 60.25 26.50 60.60 C 23.26 61.73 19.29 61.67 16.68 59.18 Z" />
</g>
</svg>
