<?xml version="1.0" encoding="UTF-8" ?>
<!DOCTYPE svg PUBLIC "-//W3C//DTD SVG 1.1//EN" "http://www.w3.org/Graphics/SVG/1.1/DTD/svg11.dtd">
<svg width="64pt" height="64pt" viewBox="0 0 64 64" version="1.1" xmlns="http://www.w3.org/2000/svg">
<g id="#a41f10f7">
<path fill="#a41f10" opacity="0.97" d=" M 21.24 4.15 C 23.07 0.85 27.31 2.69 29.72 4.30 C 33.37 8.29 38.95 4.35 42.91 2.77 C 46.04 2.48 44.71 6.29 45.27 8.22 L 45.32 9.01 C 47.97 8.06 53.57 5.68 53.09 10.62 C 48.13 8.85 45.34 15.89 46.64 19.82 C 46.55 22.21 46.71 24.60 46.80 26.99 C 45.88 26.49 44.98 25.96 44.12 25.37 C 45.04 20.95 45.18 16.42 44.95 11.93 C 41.85 12.50 39.12 14.56 35.92 14.57 C 36.97 13.20 40.47 10.36 37.70 9.22 C 35.03 9.25 28.83 7.66 27.91 11.75 C 26.93 10.43 25.93 10.43 24.98 11.79 C 21.79 9.12 17.14 12.26 14.08 9.85 C 13.59 7.74 16.20 7.72 17.43 6.79 C 19.27 7.05 21.06 7.56 22.87 7.98 C 22.34 6.70 21.71 5.46 21.24 4.15 Z" />
</g>
<g id="#5e0d01d0">
<path fill="#5e0d01" opacity="0.82" d=" M 42.91 2.77 C 47.00 0.21 46.45 4.66 45.27 8.22 C 44.71 6.29 46.04 2.48 42.91 2.77 Z" />
</g>
<g id="#a01704fa">
<path fill="#a01704" opacity="0.98" d=" M 9.89 8.22 C 12.29 7.41 14.86 6.32 17.43 6.79 C 16.20 7.72 13.59 7.74 14.08 9.85 C 17.14 12.26 21.79 9.12 24.98 11.79 C 25.93 10.43 26.93 10.43 27.91 11.75 C 29.65 13.22 31.24 15.42 33.83 14.70 C 34.15 14.98 34.79 15.53 35.11 15.81 C 33.76 16.10 31.06 16.67 29.71 16.96 C 27.49 16.22 25.38 15.21 23.19 14.39 C 20.54 13.20 17.89 11.79 14.88 12.01 C 13.17 10.81 11.35 9.74 9.89 8.22 Z" />
</g>
<g id="#d86661ff">
<path fill="#d86661" opacity="1.00" d=" M 27.91 11.75 C 28.83 7.66 35.03 9.25 37.70 9.22 C 40.47 10.36 36.97 13.20 35.92 14.57 C 35.40 14.60 34.35 14.67 33.83 14.70 C 31.24 15.42 29.65 13.22 27.91 11.75 Z" />
</g>
<g id="#630a00f9">
<path fill="#630a00" opacity="0.98" d=" M 14.88 12.01 C 17.89 11.79 20.54 13.20 23.19 14.39 C 20.80 15.36 18.39 14.35 16.07 13.74 C 15.77 13.30 15.18 12.44 14.88 12.01 Z" />
</g>
<g id="#c32a1cff">
<path fill="#c32a1c" opacity="1.00" d=" M 35.92 14.57 C 39.12 14.56 41.85 12.50 44.95 11.93 C 45.18 16.42 45.04 20.95 44.12 25.37 C 43.05 24.66 41.98 23.96 40.91 23.25 C 44.69 23.63 43.96 17.60 41.73 16.10 C 39.24 15.40 34.32 15.65 33.71 19.02 C 32.34 18.40 31.04 17.65 29.71 16.96 C 31.06 16.67 33.76 16.10 35.11 15.81 C 34.79 15.53 34.15 14.98 33.83 14.70 C 34.35 14.67 35.40 14.60 35.92 14.57 Z" />
</g>
<g id="#821101f9">
<path fill="#821101" opacity="0.98" d=" M 13.65 21.15 C 10.98 18.31 13.71 15.19 16.07 13.74 C 18.39 14.35 20.80 15.36 23.19 14.39 C 25.38 15.21 27.49 16.22 29.71 16.96 C 31.04 17.65 32.34 18.40 33.71 19.02 C 36.13 20.41 38.54 21.79 40.91 23.25 C 41.98 23.96 43.05 24.66 44.12 25.37 C 44.98 25.96 45.88 26.49 46.80 26.99 C 46.71 24.60 46.55 22.21 46.64 19.82 C 47.01 22.96 48.11 25.92 49.12 28.88 C 49.17 30.70 49.26 34.34 49.31 36.16 L 48.22 35.96 C 47.66 33.34 49.36 28.70 44.00 29.99 C 40.04 28.62 35.86 29.03 31.76 28.95 C 32.06 28.69 32.66 28.15 32.95 27.89 C 37.71 27.95 42.42 28.53 47.16 28.89 C 44.93 27.40 42.61 26.05 40.28 24.74 C 38.57 23.75 36.84 22.82 35.14 21.83 C 29.81 19.02 24.29 15.55 18.00 15.97 C 15.20 15.66 13.82 18.81 13.65 21.15 Z" />
</g>
<g id="#ab1b07fc">
<path fill="#ab1b07" opacity="1.00" d=" M 13.65 21.15 C 13.82 18.81 15.20 15.66 18.00 15.97 C 24.29 15.55 29.81 19.02 35.14 21.83 C 34.60 21.87 33.51 21.94 32.97 21.98 C 29.77 20.38 26.35 19.28 23.07 17.83 C 20.88 16.78 18.24 16.88 16.30 18.31 C 13.22 19.66 16.99 22.36 18.00 23.95 L 16.98 24.06 C 15.80 23.18 14.61 22.27 13.65 21.15 Z" />
</g>
<g id="#d14f48ff">
<path fill="#d14f48" opacity="1.00" d=" M 33.71 19.02 C 34.32 15.65 39.24 15.40 41.73 16.10 C 43.96 17.60 44.69 23.63 40.91 23.25 C 38.54 21.79 36.13 20.41 33.71 19.02 Z" />
</g>
<g id="#c32819ff">
<path fill="#c32819" opacity="1.00" d=" M 16.30 18.31 C 18.24 16.88 20.88 16.78 23.07 17.83 C 21.00 17.92 18.95 18.31 17.06 19.18 C 16.71 20.85 18.17 21.81 19.25 22.76 C 24.78 24.14 30.39 25.56 36.09 26.03 C 36.26 23.97 34.27 23.13 32.97 21.98 C 33.51 21.94 34.60 21.87 35.14 21.83 C 36.84 22.82 38.57 23.75 40.28 24.74 C 42.78 29.21 35.73 26.49 33.08 27.05 C 28.42 26.99 23.84 25.96 19.32 24.86 C 18.99 24.63 18.33 24.18 18.00 23.95 C 16.99 22.36 13.22 19.66 16.30 18.31 Z" />
</g>
<g id="#cd433cff">
<path fill="#cd433c" opacity="1.00" d=" M 17.06 19.18 C 18.95 18.31 21.00 17.92 23.07 17.83 C 26.35 19.28 29.77 20.38 32.97 21.98 C 34.27 23.13 36.26 23.97 36.09 26.03 C 30.39 25.56 24.78 24.14 19.25 22.76 C 18.17 21.81 16.71 20.85 17.06 19.18 Z" />
</g>
<g id="#721302fa">
<path fill="#721302" opacity="0.98" d=" M 16.98 24.06 L 18.00 23.95 C 18.33 24.18 18.99 24.63 19.32 24.86 C 14.48 27.84 17.33 34.56 19.80 38.30 C 18.66 37.66 17.60 36.90 16.60 36.08 C 16.28 33.31 16.00 30.55 15.72 27.78 C 16.10 26.52 16.51 25.28 16.98 24.06 Z" />
</g>
<g id="#9b1a03ff">
<path fill="#9b1a03" opacity="1.00" d=" M 19.32 24.86 C 23.84 25.96 28.42 26.99 33.08 27.05 L 32.95 27.89 C 32.66 28.15 32.06 28.69 31.76 28.95 C 31.27 29.03 30.29 29.17 29.79 29.25 C 29.40 29.12 28.63 28.85 28.24 28.72 C 27.72 28.49 26.70 28.03 26.19 27.79 C 23.63 26.74 20.71 27.06 17.99 27.00 C 17.50 31.79 19.52 37.06 24.32 38.72 C 30.97 39.43 37.63 38.80 44.25 38.26 C 41.52 40.33 38.40 41.05 35.09 40.12 C 33.25 39.38 33.39 44.06 31.78 42.11 C 30.61 41.04 29.38 39.89 27.69 40.60 C 24.78 41.59 22.20 39.66 19.80 38.30 C 17.33 34.56 14.48 27.84 19.32 24.86 Z" />
</g>
<g id="#b21b06ff">
<path fill="#b21b06" opacity="1.00" d=" M 40.28 24.74 C 42.61 26.05 44.93 27.40 47.16 28.89 C 42.42 28.53 37.71 27.95 32.95 27.89 L 33.08 27.05 C 35.73 26.49 42.78 29.21 40.28 24.74 Z" />
</g>
<g id="#ba1e08ff">
<path fill="#ba1e08" opacity="1.00" d=" M 17.99 27.00 C 20.71 27.06 23.63 26.74 26.19 27.79 C 24.45 27.86 22.71 27.95 20.98 28.15 C 18.94 32.98 23.95 38.88 29.03 36.95 C 34.45 36.48 40.11 36.16 45.13 33.89 C 42.87 29.71 37.91 29.84 33.75 30.28 C 32.41 30.00 31.08 29.72 29.79 29.25 C 30.29 29.17 31.27 29.03 31.76 28.95 C 35.86 29.03 40.04 28.62 44.00 29.99 C 49.36 28.70 47.66 33.34 48.22 35.96 C 46.90 36.74 45.61 37.56 44.25 38.26 C 37.63 38.80 30.97 39.43 24.32 38.72 C 19.52 37.06 17.50 31.79 17.99 27.00 Z" />
</g>
<g id="#4d1904f7">
<path fill="#4d1904" opacity="0.97" d=" M 14.78 28.93 C 15.01 28.64 15.48 28.07 15.72 27.78 C 16.00 30.55 16.28 33.31 16.60 36.08 C 16.35 36.37 15.86 36.96 15.61 37.26 C 15.44 36.96 15.08 36.36 14.90 36.07 C 14.87 34.28 14.81 30.72 14.78 28.93 Z" />
</g>
<g id="#c83429ff">
<path fill="#c83429" opacity="1.00" d=" M 20.98 28.15 C 22.71 27.95 24.45 27.86 26.19 27.79 C 26.70 28.03 27.72 28.49 28.24 28.72 C 25.47 29.34 19.64 27.49 23.12 33.74 C 27.50 36.99 34.53 34.40 39.72 33.77 C 43.36 30.83 36.04 30.95 33.75 30.28 C 37.91 29.84 42.87 29.71 45.13 33.89 C 40.11 36.16 34.45 36.48 29.03 36.95 C 23.95 38.88 18.94 32.98 20.98 28.15 Z" />
</g>
<g id="#1407015c">
<path fill="#140701" opacity="0.36" d=" M 14.90 36.07 C 12.66 34.53 12.90 30.77 14.78 28.93 C 14.81 30.72 14.87 34.28 14.90 36.07 Z" />
</g>
<g id="#cf4a44ff">
<path fill="#cf4a44" opacity="1.00" d=" M 23.12 33.74 C 19.64 27.49 25.47 29.34 28.24 28.72 C 28.63 28.85 29.40 29.12 29.79 29.25 C 31.08 29.72 32.41 30.00 33.75 30.28 C 36.04 30.95 43.36 30.83 39.72 33.77 C 34.53 34.40 27.50 36.99 23.12 33.74 Z" />
</g>
<g id="#2911027f">
<path fill="#291102" opacity="0.50" d=" M 49.12 28.88 C 51.39 30.59 50.72 33.97 49.31 36.16 C 49.26 34.34 49.17 30.70 49.12 28.88 Z" />
</g>
<g id="#79a11cfe">
<path fill="#79a11c" opacity="1.00" d=" M 15.61 37.26 C 15.86 36.96 16.35 36.37 16.60 36.08 C 17.60 36.90 18.66 37.66 19.80 38.30 C 22.20 39.66 24.78 41.59 27.69 40.60 C 29.38 39.89 30.61 41.04 31.78 42.11 C 33.39 44.06 33.25 39.38 35.09 40.12 C 38.40 41.05 41.52 40.33 44.25 38.26 C 45.61 37.56 46.90 36.74 48.22 35.96 L 49.31 36.16 C 48.40 38.43 47.26 40.70 45.21 42.17 C 42.51 43.09 39.89 44.20 37.21 45.17 C 33.73 45.13 30.26 45.06 26.79 45.14 C 24.11 44.19 21.49 43.08 18.80 42.16 C 17.22 40.91 16.50 38.99 15.61 37.26 Z" />
</g>
<g id="#436510ed">
<path fill="#436510" opacity="0.93" d=" M 18.80 42.16 C 21.49 43.08 24.11 44.19 26.79 45.14 C 30.26 46.28 33.73 46.29 37.21 45.17 C 39.89 44.20 42.51 43.09 45.21 42.17 C 43.73 43.81 41.32 44.34 39.99 46.04 C 40.80 47.94 41.87 49.72 43.09 51.39 C 42.01 51.72 40.93 52.02 39.85 52.30 C 38.08 50.99 37.67 47.64 35.00 48.02 C 33.48 48.14 30.44 48.38 28.92 48.50 C 26.65 47.79 25.99 50.45 24.66 51.70 C 22.11 52.62 19.37 53.03 16.65 52.79 C 20.59 52.56 22.95 49.67 23.92 46.06 C 22.87 44.23 20.13 43.93 18.80 42.16 Z" />
</g>
<g id="#598917ff">
<path fill="#598917" opacity="1.00" d=" M 26.79 45.14 C 30.26 45.06 33.73 45.13 37.21 45.17 C 33.73 46.29 30.26 46.28 26.79 45.14 Z" />
</g>
<g id="#608419f0">
<path fill="#608419" opacity="0.94" d=" M 28.92 48.50 C 30.44 48.38 33.48 48.14 35.00 48.02 C 33.36 53.19 35.46 58.72 34.08 64.00 L 30.11 64.00 C 29.12 58.86 30.29 53.58 28.92 48.50 M 31.08 56.02 C 31.20 58.30 31.59 60.70 31.30 63.01 C 34.17 63.88 35.06 54.32 31.08 56.02 Z" />
</g>
<g id="#20300885">
<path fill="#203008" opacity="0.52" d=" M 43.09 51.39 C 44.82 51.29 48.05 49.94 46.97 52.99 C 44.40 53.33 42.02 53.10 39.85 52.30 C 40.93 52.02 42.01 51.72 43.09 51.39 Z" />
</g>
<g id="#92b442ff">
<path fill="#92b442" opacity="1.00" d=" M 31.08 56.02 C 35.06 54.32 34.17 63.88 31.30 63.01 C 31.59 60.70 31.20 58.30 31.08 56.02 Z" />
</g>
</svg>
