<?xml version="1.0" encoding="UTF-8" ?>
<!DOCTYPE svg PUBLIC "-//W3C//DTD SVG 1.1//EN" "http://www.w3.org/Graphics/SVG/1.1/DTD/svg11.dtd">
<svg width="64pt" height="64pt" viewBox="0 0 64 64" version="1.1" xmlns="http://www.w3.org/2000/svg">
<g id="#758818fd">
<path fill="#758818" opacity="1.00" d=" M 29.35 1.48 C 31.70 1.66 36.39 2.01 38.74 2.19 C 42.01 6.82 46.66 10.24 50.56 14.35 C 51.00 16.74 53.24 17.68 54.82 19.22 C 55.66 20.95 51.71 22.50 54.22 23.75 C 56.26 24.82 55.93 26.94 55.42 28.81 C 56.51 30.28 58.27 31.28 59.00 32.98 C 57.74 34.44 57.25 36.04 57.84 37.93 C 55.38 41.03 57.90 47.12 52.39 46.37 C 51.17 49.03 49.07 50.89 46.13 49.33 C 44.97 53.12 40.35 52.24 37.98 49.98 C 33.76 51.35 35.44 56.31 34.81 59.79 C 33.69 61.61 30.29 61.60 29.17 59.77 C 29.11 57.33 28.97 52.44 28.91 50.00 C 26.44 50.80 23.64 51.71 21.66 49.44 C 17.58 48.90 10.14 52.41 8.42 46.67 C 8.05 43.07 2.98 41.68 5.42 37.30 C 4.17 31.67 7.28 26.78 7.22 21.24 C 12.70 18.62 10.24 8.79 16.72 7.63 C 19.01 5.89 19.78 2.42 23.05 2.06 C 25.23 2.34 27.38 2.71 29.35 1.48 Z" />
</g>
</svg>
