<?xml version="1.0" encoding="UTF-8" ?>
<!DOCTYPE svg PUBLIC "-//W3C//DTD SVG 1.1//EN" "http://www.w3.org/Graphics/SVG/1.1/DTD/svg11.dtd">
<svg width="64pt" height="64pt" viewBox="0 0 64 64" version="1.1" xmlns="http://www.w3.org/2000/svg">
<g id="#468c27ff">
<path fill="#468c27" opacity="1.00" d=" M 22.90 6.75 C 23.79 2.47 28.04 -0.06 32.22 0.01 L 31.87 1.40 C 31.66 2.16 31.23 3.66 31.02 4.41 C 30.06 3.70 29.10 2.99 28.15 2.28 C 27.17 3.81 26.17 5.32 25.24 6.88 C 23.20 10.22 23.83 14.28 23.96 17.99 C 24.11 25.59 27.94 32.48 28.35 40.06 C 29.03 37.87 30.30 35.92 31.01 33.74 C 31.66 36.11 32.32 38.47 33.07 40.81 C 33.75 38.05 33.98 35.20 33.78 32.37 L 33.77 30.38 C 34.70 32.66 35.75 34.90 36.79 37.15 C 37.24 34.56 37.70 31.97 38.17 29.39 C 37.55 29.41 36.32 29.45 35.71 29.48 C 37.09 27.83 38.49 26.18 39.90 24.55 C 41.18 32.58 38.94 40.43 37.68 48.29 C 38.16 48.37 39.10 48.54 39.57 48.62 C 38.17 51.62 37.40 54.86 37.06 58.14 C 34.09 58.74 31.08 59.11 28.07 59.54 C 26.83 53.64 26.84 47.58 25.91 41.64 C 23.09 37.73 23.53 32.67 23.39 28.11 C 23.42 20.98 23.29 13.86 22.90 6.75 Z" />
</g>
<g id="#64a747ff">
<path fill="#64a747" opacity="1.00" d=" M 32.22 0.01 C 34.30 0.38 36.35 1.01 38.25 1.94 C 38.91 4.62 39.73 7.26 40.24 9.97 C 41.11 14.83 39.65 19.68 39.90 24.55 C 38.49 26.18 37.09 27.83 35.71 29.48 C 36.32 29.45 37.55 29.41 38.17 29.39 C 37.70 31.97 37.24 34.56 36.79 37.15 C 35.75 34.90 34.70 32.66 33.77 30.38 C 33.76 28.37 33.90 26.36 34.00 24.35 C 34.97 24.78 35.94 25.20 36.91 25.63 C 37.54 22.13 38.07 18.58 37.78 15.02 C 37.44 14.07 37.06 13.15 36.70 12.21 C 37.29 10.15 39.15 7.68 37.40 5.70 C 35.75 4.03 33.71 2.84 31.87 1.40 L 32.22 0.01 Z" />
</g>
<g id="#8dc76bff">
<path fill="#8dc76b" opacity="1.00" d=" M 28.15 2.28 C 29.10 2.99 30.06 3.70 31.02 4.41 C 31.23 3.66 31.66 2.16 31.87 1.40 C 33.71 2.84 35.75 4.03 37.40 5.70 C 39.15 7.68 37.29 10.15 36.70 12.21 C 37.06 13.15 37.44 14.07 37.78 15.02 C 37.32 16.27 36.86 17.52 36.39 18.77 C 36.00 17.82 35.61 16.87 35.22 15.93 C 35.01 16.13 34.59 16.53 34.39 16.73 C 34.08 17.02 33.45 17.58 33.14 17.87 C 31.90 18.17 30.65 18.48 29.41 18.79 C 28.41 16.68 27.40 14.57 26.49 12.42 C 26.57 12.12 26.74 11.51 26.82 11.21 C 26.47 11.24 25.76 11.29 25.40 11.32 C 25.35 9.84 25.30 8.36 25.24 6.88 C 26.17 5.32 27.17 3.81 28.15 2.28 M 31.15 9.10 C 30.68 10.52 31.15 10.99 32.54 10.52 C 33.01 9.10 32.54 8.63 31.15 9.10 Z" />
</g>
<g id="#30771eff">
<path fill="#30771e" opacity="1.00" d=" M 38.25 1.94 C 41.39 4.73 41.72 9.08 41.64 13.00 C 41.54 23.77 41.55 34.54 41.61 45.31 C 42.80 44.42 43.97 43.51 45.13 42.58 C 45.17 44.32 45.25 46.06 45.34 47.79 C 47.62 47.65 49.89 47.50 52.17 47.35 C 52.68 44.93 53.33 42.51 53.39 40.02 C 52.63 38.08 51.19 36.50 50.01 34.82 C 51.63 35.68 53.14 36.73 54.31 38.16 C 53.92 41.69 54.04 45.27 53.57 48.79 C 53.46 51.28 50.88 52.48 48.80 53.08 C 46.24 53.98 43.87 52.22 41.60 51.28 C 41.41 55.07 40.63 59.19 37.66 61.85 C 34.32 63.16 30.52 62.87 27.11 61.99 C 24.54 61.32 24.49 58.19 24.23 56.05 C 23.99 50.81 22.73 45.69 22.41 40.46 C 22.09 40.66 21.46 41.06 21.14 41.26 C 21.49 37.97 21.52 34.67 21.58 31.37 L 22.40 32.04 C 22.65 23.61 21.89 15.13 22.90 6.75 C 23.29 13.86 23.42 20.98 23.39 28.11 C 23.53 32.67 23.09 37.73 25.91 41.64 C 26.84 47.58 26.83 53.64 28.07 59.54 C 31.08 59.11 34.09 58.74 37.06 58.14 C 37.40 54.86 38.17 51.62 39.57 48.62 C 39.10 48.54 38.16 48.37 37.68 48.29 C 38.94 40.43 41.18 32.58 39.90 24.55 C 39.65 19.68 41.11 14.83 40.24 9.97 C 39.73 7.26 38.91 4.62 38.25 1.94 Z" />
</g>
<g id="#62a642ff">
<path fill="#62a642" opacity="1.00" d=" M 23.96 17.99 C 23.83 14.28 23.20 10.22 25.24 6.88 C 25.30 8.36 25.35 9.84 25.40 11.32 C 25.76 11.29 26.47 11.24 26.82 11.21 C 26.74 11.51 26.57 12.12 26.49 12.42 C 24.82 15.18 27.35 17.66 27.45 20.41 C 27.67 23.43 27.75 26.47 28.12 29.48 C 29.28 28.94 30.43 28.39 31.59 27.84 C 32.32 29.35 33.08 30.85 33.78 32.37 C 33.98 35.20 33.75 38.05 33.07 40.81 C 32.32 38.47 31.66 36.11 31.01 33.74 C 30.30 35.92 29.03 37.87 28.35 40.06 C 27.94 32.48 24.11 25.59 23.96 17.99 Z" />
</g>
<g id="#69a34bff">
<path fill="#69a34b" opacity="1.00" d=" M 31.15 9.10 C 32.54 8.63 33.01 9.10 32.54 10.52 C 31.15 10.99 30.68 10.52 31.15 9.10 Z" />
</g>
<g id="#7bbc5aff">
<path fill="#7bbc5a" opacity="1.00" d=" M 27.45 20.41 C 27.35 17.66 24.82 15.18 26.49 12.42 C 27.40 14.57 28.41 16.68 29.41 18.79 C 30.65 18.48 31.90 18.17 33.14 17.87 C 32.16 19.17 34.40 21.10 34.76 19.00 C 34.66 18.43 34.48 17.30 34.39 16.73 C 34.59 16.53 35.01 16.13 35.22 15.93 C 35.61 16.87 36.00 17.82 36.39 18.77 C 36.86 17.52 37.32 16.27 37.78 15.02 C 38.07 18.58 37.54 22.13 36.91 25.63 C 35.94 25.20 34.97 24.78 34.00 24.35 C 33.90 26.36 33.76 28.37 33.77 30.38 L 33.78 32.37 C 33.08 30.85 32.32 29.35 31.59 27.84 C 30.43 28.39 29.28 28.94 28.12 29.48 C 27.75 26.47 27.67 23.43 27.45 20.41 M 28.84 24.23 C 29.30 25.25 29.08 28.06 31.00 27.14 C 31.48 25.82 31.82 24.45 32.20 23.09 C 31.08 23.47 29.96 23.85 28.84 24.23 Z" />
</g>
<g id="#428928ff">
<path fill="#428928" opacity="1.00" d=" M 9.81 19.57 C 10.51 15.20 17.89 14.78 18.81 19.21 C 19.51 22.69 19.15 26.27 19.22 29.80 C 19.81 30.19 20.99 30.98 21.58 31.37 C 21.52 34.67 21.49 37.97 21.14 41.26 C 17.28 42.64 12.60 40.72 10.76 37.10 C 9.80 31.33 10.30 25.40 9.81 19.57 M 11.63 18.37 C 11.30 20.77 10.42 23.23 11.04 25.65 C 10.83 28.92 11.27 32.18 12.20 35.32 C 13.67 35.61 15.13 35.94 16.59 36.28 C 18.04 35.90 19.49 35.53 20.95 35.18 C 17.74 30.61 18.09 25.02 17.51 19.74 L 17.59 18.70 C 15.61 18.51 13.61 18.54 11.63 18.37 Z" />
</g>
<g id="#619743ff">
<path fill="#619743" opacity="1.00" d=" M 34.39 16.73 C 34.48 17.30 34.66 18.43 34.76 19.00 C 34.40 21.10 32.16 19.17 33.14 17.87 C 33.45 17.58 34.08 17.02 34.39 16.73 Z" />
</g>
<g id="#75b758ff">
<path fill="#75b758" opacity="1.00" d=" M 11.63 18.37 C 13.61 18.54 15.61 18.51 17.59 18.70 L 17.51 19.74 C 17.72 24.12 16.15 28.19 12.77 31.02 C 12.17 29.23 11.56 27.46 11.04 25.65 C 10.42 23.23 11.30 20.77 11.63 18.37 Z" />
</g>
<g id="#134a0dff">
<path fill="#134a0d" opacity="1.00" d=" M 9.49 33.08 C 9.72 28.58 9.17 24.04 9.81 19.57 C 10.30 25.40 9.80 31.33 10.76 37.10 C 12.60 40.72 17.28 42.64 21.14 41.26 C 21.46 41.06 22.09 40.66 22.41 40.46 C 22.73 45.69 23.99 50.81 24.23 56.05 C 24.49 58.19 24.54 61.32 27.11 61.99 C 30.52 62.87 34.32 63.16 37.66 61.85 C 40.63 59.19 41.41 55.07 41.60 51.28 C 43.87 52.22 46.24 53.98 48.80 53.08 C 50.88 52.48 53.46 51.28 53.57 48.79 C 54.04 45.27 53.92 41.69 54.31 38.16 C 54.60 37.61 55.18 36.50 55.46 35.94 C 54.29 39.88 54.35 43.98 54.52 48.03 C 54.36 49.95 54.88 52.77 52.64 53.66 C 49.10 55.40 45.22 56.30 41.52 57.63 C 41.57 59.75 41.63 61.88 41.69 64.00 L 22.44 64.00 C 22.27 58.66 22.40 53.32 22.43 47.98 C 18.78 45.45 14.87 43.29 11.40 40.51 C 9.18 38.74 9.50 35.61 9.49 33.08 Z" />
</g>
<g id="#62a544ff">
<path fill="#62a544" opacity="1.00" d=" M 17.51 19.74 C 18.09 25.02 17.74 30.61 20.95 35.18 C 19.49 35.53 18.04 35.90 16.59 36.28 C 15.13 35.94 13.67 35.61 12.20 35.32 C 11.27 32.18 10.83 28.92 11.04 25.65 C 11.56 27.46 12.17 29.23 12.77 31.02 C 16.15 28.19 17.72 24.12 17.51 19.74 Z" />
</g>
<g id="#62a23eff">
<path fill="#62a23e" opacity="1.00" d=" M 28.84 24.23 C 29.96 23.85 31.08 23.47 32.20 23.09 C 31.82 24.45 31.48 25.82 31.00 27.14 C 29.08 28.06 29.30 25.25 28.84 24.23 Z" />
</g>
<g id="#62a748ff">
<path fill="#62a748" opacity="1.00" d=" M 45.91 36.95 C 47.05 35.88 48.63 35.46 50.01 34.82 C 51.19 36.50 52.63 38.08 53.39 40.02 C 53.33 42.51 52.68 44.93 52.17 47.35 C 49.89 47.50 47.62 47.65 45.34 47.79 C 45.25 46.06 45.17 44.32 45.13 42.58 C 45.21 40.71 44.92 38.62 45.91 36.95 Z" />
</g>
</svg>
