<?xml version="1.0" encoding="UTF-8" ?>
<!DOCTYPE svg PUBLIC "-//W3C//DTD SVG 1.1//EN" "http://www.w3.org/Graphics/SVG/1.1/DTD/svg11.dtd">
<svg width="64pt" height="64pt" viewBox="0 0 64 64" version="1.1" xmlns="http://www.w3.org/2000/svg">
<g id="#8eb169fd">
<path fill="#8eb169" opacity="1.00" d=" M 43.10 2.29 C 45.82 1.67 48.56 1.14 51.35 1.06 C 52.00 5.94 50.11 10.62 48.35 15.06 C 47.17 16.33 46.03 17.64 45.05 19.07 C 44.10 19.84 43.06 20.48 41.95 21.00 C 38.71 21.36 35.62 22.40 32.62 23.65 C 31.19 25.88 30.39 28.40 29.73 30.95 C 29.67 35.29 29.41 39.65 29.87 43.98 C 31.29 47.82 29.64 52.13 30.47 56.13 C 32.24 54.32 33.58 52.04 35.83 50.75 C 39.38 48.59 42.46 45.77 45.96 43.54 C 50.10 42.18 54.51 42.39 58.80 42.26 C 57.66 45.39 56.60 48.55 55.52 51.70 C 54.39 52.62 53.25 53.52 52.11 54.42 C 50.92 54.79 49.75 55.19 48.57 55.58 L 48.59 56.52 C 45.78 56.38 42.97 56.28 40.20 55.82 C 37.90 55.15 33.60 56.49 34.06 52.65 C 33.90 54.50 32.98 55.77 31.30 56.46 C 29.92 58.27 30.11 60.58 29.56 62.66 C 28.17 63.31 27.18 61.51 26.36 60.67 C 25.92 58.90 27.51 57.41 28.32 55.98 C 28.39 55.07 28.54 53.25 28.61 52.34 L 27.32 52.71 L 27.49 51.95 C 26.15 50.80 24.83 49.63 23.51 48.45 C 21.00 48.66 18.45 48.71 16.02 47.96 C 12.62 45.32 8.19 44.06 5.36 40.69 C 3.43 38.07 2.95 34.75 2.29 31.66 C 6.57 31.52 10.91 31.32 14.98 32.89 C 17.49 34.04 19.98 35.44 21.50 37.83 C 22.30 41.18 23.14 44.52 23.73 47.92 C 25.34 49.27 26.96 50.59 28.60 51.91 C 28.68 46.26 28.35 40.62 28.10 34.98 C 27.67 33.69 26.97 32.20 28.24 31.13 C 29.30 28.79 30.40 26.46 31.23 24.02 C 31.62 21.36 30.96 18.56 31.94 15.98 C 32.85 13.51 34.09 11.17 35.09 8.73 C 37.40 6.15 40.21 4.16 43.10 2.29 Z" />
<path fill="#8eb169" opacity="1.00" d=" M 7.50 15.52 C 8.78 15.31 10.06 15.08 11.33 14.84 C 14.56 15.17 17.76 15.68 20.82 16.79 C 22.11 18.27 23.44 19.76 24.33 21.53 C 24.73 23.53 24.55 25.58 24.62 27.60 C 23.46 27.22 22.47 27.92 21.54 28.52 C 19.94 28.60 18.35 28.67 16.75 28.72 C 16.30 28.28 15.39 27.38 14.93 26.94 C 13.92 26.25 12.90 25.57 11.87 24.91 C 10.09 21.93 8.62 18.80 7.50 15.52 Z" />
<path fill="#8eb169" opacity="1.00" d=" M 51.26 19.08 C 51.55 18.76 52.12 18.13 52.40 17.82 C 53.14 22.01 54.11 26.33 53.48 30.59 C 51.07 34.67 47.41 37.88 44.04 41.17 C 41.68 41.66 39.26 41.75 36.86 41.74 C 36.38 37.33 36.08 32.73 38.74 28.89 C 38.96 28.43 39.42 27.49 39.64 27.03 C 41.86 25.56 43.87 23.81 45.77 21.96 C 47.58 20.96 49.38 19.95 51.26 19.08 Z" />
</g>
</svg>
