<?xml version="1.0" encoding="UTF-8" ?>
<!DOCTYPE svg PUBLIC "-//W3C//DTD SVG 1.1//EN" "http://www.w3.org/Graphics/SVG/1.1/DTD/svg11.dtd">
<svg width="64pt" height="64pt" viewBox="0 0 64 64" version="1.1" xmlns="http://www.w3.org/2000/svg">
<g id="#bf3b6fff">
<path fill="#bf3b6f" opacity="1.00" d=" M 14.23 8.68 C 17.34 4.44 22.91 3.08 27.92 3.38 C 29.91 3.44 31.95 4.16 33.30 5.68 C 33.46 6.93 33.64 8.19 33.83 9.44 C 33.41 9.18 32.56 8.67 32.13 8.41 C 31.77 8.77 31.04 9.49 30.67 9.85 C 30.44 8.66 30.08 7.51 29.78 6.34 C 25.88 6.43 21.56 5.54 18.17 7.98 C 16.87 8.28 15.56 8.52 14.23 8.68 Z" />
</g>
<g id="#7f2b49d0">
<path fill="#7f2b49" opacity="0.82" d=" M 39.51 4.77 C 46.31 4.40 53.71 8.02 56.33 14.58 C 58.40 18.31 59.17 24.06 54.41 26.12 L 54.45 25.12 C 54.63 23.20 56.52 21.93 56.52 20.00 C 55.55 12.45 48.37 6.03 40.73 6.35 C 37.64 6.04 36.35 9.11 34.63 11.02 L 33.83 9.44 C 33.64 8.19 33.46 6.93 33.30 5.68 C 33.64 6.70 34.33 8.74 34.68 9.76 C 35.66 7.72 36.81 4.81 39.51 4.77 Z" />
</g>
<g id="#f86ea6ff">
<path fill="#f86ea6" opacity="1.00" d=" M 18.17 7.98 C 21.56 5.54 25.88 6.43 29.78 6.34 C 30.08 7.51 30.44 8.66 30.67 9.85 C 30.47 12.46 30.24 15.07 30.15 17.70 C 30.71 18.15 31.84 19.05 32.40 19.50 L 32.11 19.87 C 30.06 19.07 28.20 17.87 26.40 16.61 C 26.45 15.50 27.41 13.77 25.86 13.29 C 24.23 13.19 22.59 13.25 20.96 13.25 C 18.96 15.59 16.80 18.17 17.59 21.48 C 14.27 21.51 14.46 17.22 13.49 14.92 C 14.21 13.52 14.90 12.10 15.60 10.68 C 16.49 10.63 17.39 10.58 18.29 10.53 C 18.26 9.89 18.20 8.62 18.17 7.98 Z" />
</g>
<g id="#f2516eff">
<path fill="#f2516e" opacity="1.00" d=" M 34.63 11.02 C 36.35 9.11 37.64 6.04 40.73 6.35 C 40.21 9.77 38.98 13.20 39.38 16.70 C 40.67 20.85 43.75 24.10 46.41 27.43 C 45.85 27.55 44.74 27.77 44.18 27.89 C 39.92 27.73 37.67 23.53 35.72 20.32 C 35.17 17.28 35.25 14.17 34.65 11.14 L 34.63 11.02 Z" />
</g>
<g id="#fa76a5ff">
<path fill="#fa76a5" opacity="1.00" d=" M 40.73 6.35 C 48.37 6.03 55.55 12.45 56.52 20.00 C 56.52 21.93 54.63 23.20 54.45 25.12 L 54.27 25.76 C 53.90 25.92 53.15 26.26 52.77 26.42 C 50.64 26.70 48.51 26.99 46.41 27.43 C 43.75 24.10 40.67 20.85 39.38 16.70 C 38.98 13.20 40.21 9.77 40.73 6.35 Z" />
</g>
<g id="#db4879ff">
<path fill="#db4879" opacity="1.00" d=" M 14.23 8.68 C 15.56 8.52 16.87 8.28 18.17 7.98 C 18.20 8.62 18.26 9.89 18.29 10.53 C 17.39 10.58 16.49 10.63 15.60 10.68 C 14.90 12.10 14.21 13.52 13.49 14.92 C 14.46 17.22 14.27 21.51 17.59 21.48 C 18.19 21.49 19.38 21.51 19.98 21.52 C 21.75 21.49 23.50 22.49 22.83 24.64 C 21.13 24.61 19.42 24.52 17.72 24.47 C 17.73 25.57 17.73 26.67 17.76 27.76 C 17.13 27.71 15.88 27.62 15.25 27.57 C 12.69 27.01 10.13 26.32 7.49 26.46 C 7.56 27.60 7.91 28.69 7.99 29.83 C 7.71 30.18 7.16 30.88 6.88 31.23 C 6.72 31.42 6.39 31.79 6.23 31.98 C 6.72 32.95 7.19 33.93 7.68 34.90 C 6.62 35.26 5.55 35.62 4.48 35.98 C 4.12 32.45 4.60 28.65 6.66 25.67 C 8.73 24.06 11.36 23.53 13.84 22.91 C 12.95 21.27 11.84 19.71 11.34 17.90 C 10.84 14.54 13.14 11.73 14.21 8.74 L 14.23 8.68 Z" />
</g>
<g id="#e85072ff">
<path fill="#e85072" opacity="1.00" d=" M 32.13 8.41 C 32.56 8.67 33.41 9.18 33.83 9.44 L 34.63 11.02 L 34.65 11.14 C 34.98 14.14 34.45 17.18 32.40 19.50 C 31.84 19.05 30.71 18.15 30.15 17.70 C 30.24 15.07 30.47 12.46 30.67 9.85 C 31.04 9.49 31.77 8.77 32.13 8.41 Z" />
</g>
<g id="#8a2f4ce1">
<path fill="#8a2f4c" opacity="0.88" d=" M 9.57 17.19 C 9.90 13.92 11.77 10.88 14.21 8.74 C 13.14 11.73 10.84 14.54 11.34 17.90 C 11.84 19.71 12.95 21.27 13.84 22.91 C 11.36 23.53 8.73 24.06 6.66 25.67 C 4.60 28.65 4.12 32.45 4.48 35.98 C 5.25 37.56 6.38 39.07 6.25 40.91 L 5.88 42.06 C 1.76 37.23 2.76 29.94 5.68 24.78 C 7.11 21.99 10.51 22.06 13.16 22.49 C 11.60 21.09 9.35 19.59 9.57 17.19 Z" />
</g>
<g id="#da2c2cff">
<path fill="#da2c2c" opacity="1.00" d=" M 34.65 11.14 C 35.25 14.17 35.17 17.28 35.72 20.32 C 37.67 23.53 39.92 27.73 44.18 27.89 C 44.43 28.44 44.70 28.99 45.00 29.53 C 45.31 30.12 45.94 31.31 46.26 31.90 C 47.08 31.73 47.91 31.56 48.74 31.39 C 48.84 31.84 49.06 32.75 49.16 33.20 C 46.27 30.08 43.15 34.10 43.28 37.02 C 43.46 38.93 41.78 39.95 40.57 41.07 C 40.53 42.93 40.51 44.80 40.57 46.66 C 37.75 42.94 33.05 43.44 28.97 42.62 C 26.46 42.17 24.06 43.38 21.68 43.97 C 21.62 43.49 21.51 42.54 21.45 42.06 C 21.76 41.54 22.38 40.49 22.69 39.96 C 21.36 35.81 21.08 30.95 17.76 27.76 C 17.73 26.67 17.73 25.57 17.72 24.47 C 19.42 24.52 21.13 24.61 22.83 24.64 C 23.50 22.49 21.75 21.49 19.98 21.52 C 21.31 21.57 22.64 21.64 23.96 21.73 C 24.46 23.63 25.60 25.23 27.55 25.77 C 27.44 28.60 27.53 31.56 28.83 34.14 C 29.99 35.91 32.30 35.31 34.07 35.48 C 34.87 34.71 35.68 33.95 36.49 33.19 C 36.49 31.75 36.41 30.30 36.23 28.87 C 35.21 30.22 34.19 31.57 33.16 32.92 C 32.58 32.44 31.41 31.49 30.83 31.01 C 30.40 29.12 29.96 27.24 29.47 25.36 C 29.76 24.33 30.05 23.31 30.34 22.28 C 31.34 22.50 32.34 22.72 33.33 22.94 C 32.93 21.92 32.52 20.89 32.11 19.87 L 32.40 19.50 C 34.45 17.18 34.98 14.14 34.65 11.14 Z" />
</g>
<g id="#c44756ff">
<path fill="#c44756" opacity="1.00" d=" M 17.59 21.48 C 16.80 18.17 18.96 15.59 20.96 13.25 C 20.95 14.35 20.92 15.44 20.88 16.54 C 19.33 18.21 21.37 20.43 23.22 19.14 C 23.44 20.01 23.69 20.88 23.96 21.73 C 22.64 21.64 21.31 21.57 19.98 21.52 C 19.38 21.51 18.19 21.49 17.59 21.48 Z" />
</g>
<g id="#ce1f16ff">
<path fill="#ce1f16" opacity="1.00" d=" M 20.96 13.25 C 22.59 13.25 24.23 13.19 25.86 13.29 C 27.41 13.77 26.45 15.50 26.40 16.61 C 26.30 17.17 26.10 18.29 26.00 18.84 C 25.61 17.53 24.88 16.49 23.78 15.72 C 23.64 16.58 23.36 18.29 23.22 19.14 C 23.16 17.67 22.38 16.80 20.88 16.54 C 20.92 15.44 20.95 14.35 20.96 13.25 Z" />
</g>
<g id="#77140dff">
<path fill="#77140d" opacity="1.00" d=" M 23.22 19.14 C 21.37 20.43 19.33 18.21 20.88 16.54 C 22.38 16.80 23.16 17.67 23.22 19.14 Z" />
</g>
<g id="#f39e3cff">
<path fill="#f39e3c" opacity="1.00" d=" M 23.78 15.72 C 24.88 16.49 25.61 17.53 26.00 18.84 C 26.10 18.29 26.30 17.17 26.40 16.61 C 28.20 17.87 30.06 19.07 32.11 19.87 C 32.52 20.89 32.93 21.92 33.33 22.94 C 32.34 22.72 31.34 22.50 30.34 22.28 C 30.05 23.31 29.76 24.33 29.47 25.36 L 27.55 25.77 C 25.60 25.23 24.46 23.63 23.96 21.73 C 23.69 20.88 23.44 20.01 23.22 19.14 C 23.36 18.29 23.64 16.58 23.78 15.72 Z" />
</g>
<g id="#f76aa3ff">
<path fill="#f76aa3" opacity="1.00" d=" M 7.49 26.46 C 10.13 26.32 12.69 27.01 15.25 27.57 C 14.90 28.67 14.55 29.77 14.21 30.87 C 11.77 31.04 9.32 31.10 6.88 31.23 C 7.16 30.88 7.71 30.18 7.99 29.83 C 7.91 28.69 7.56 27.60 7.49 26.46 Z" />
</g>
<g id="#550802ff">
<path fill="#550802" opacity="1.00" d=" M 27.55 25.77 L 29.47 25.36 C 29.96 27.24 30.40 29.12 30.83 31.01 C 31.41 31.49 32.58 32.44 33.16 32.92 C 34.19 31.57 35.21 30.22 36.23 28.87 C 36.41 30.30 36.49 31.75 36.49 33.19 C 35.68 33.95 34.87 34.71 34.07 35.48 C 32.30 35.31 29.99 35.91 28.83 34.14 C 27.53 31.56 27.44 28.60 27.55 25.77 Z" />
</g>
<g id="#8b2946d9">
<path fill="#8b2946" opacity="0.85" d=" M 44.18 27.89 C 44.74 27.77 45.85 27.55 46.41 27.43 C 48.51 26.99 50.64 26.70 52.77 26.42 C 55.75 26.55 59.38 27.33 60.16 30.72 C 61.31 35.66 61.48 42.01 57.73 45.90 C 59.41 41.22 60.50 36.06 59.07 31.17 C 55.88 27.03 48.81 25.43 45.00 29.53 C 44.70 28.99 44.43 28.44 44.18 27.89 Z" />
</g>
<g id="#fb5b78ff">
<path fill="#fb5b78" opacity="1.00" d=" M 15.25 27.57 C 15.88 27.62 17.13 27.71 17.76 27.76 C 21.08 30.95 21.36 35.81 22.69 39.96 C 22.38 40.49 21.76 41.54 21.45 42.06 C 20.54 42.70 19.62 43.32 18.69 43.94 C 17.79 39.43 16.93 34.69 14.21 30.87 C 14.55 29.77 14.90 28.67 15.25 27.57 Z" />
</g>
<g id="#e14975ff">
<path fill="#e14975" opacity="1.00" d=" M 45.00 29.53 C 48.81 25.43 55.88 27.03 59.07 31.17 C 60.50 36.06 59.41 41.22 57.73 45.90 C 57.34 46.15 56.56 46.66 56.17 46.91 C 56.56 45.61 56.94 44.31 57.28 42.99 C 58.78 39.64 54.91 38.11 52.77 36.42 C 54.78 36.52 56.81 36.52 58.81 36.21 C 57.63 35.51 56.46 34.79 55.22 34.20 C 55.88 33.13 56.55 32.06 57.21 30.99 C 54.48 30.92 51.71 30.80 49.01 31.32 L 48.74 31.39 C 47.91 31.56 47.08 31.73 46.26 31.90 C 45.94 31.31 45.31 30.12 45.00 29.53 Z" />
</g>
<g id="#f97fafff">
<path fill="#f97faf" opacity="1.00" d=" M 6.23 31.98 C 6.39 31.79 6.72 31.42 6.88 31.23 C 9.32 31.10 11.77 31.04 14.21 30.87 C 16.93 34.69 17.79 39.43 18.69 43.94 C 18.57 44.80 18.42 45.67 18.24 46.53 C 16.43 47.81 14.36 49.37 12.00 48.49 C 9.20 46.88 6.65 44.25 6.25 40.91 C 6.38 39.07 5.25 37.56 4.48 35.98 C 5.55 35.62 6.62 35.26 7.68 34.90 C 7.19 33.93 6.72 32.95 6.23 31.98 Z" />
</g>
<g id="#f1618eff">
<path fill="#f1618e" opacity="1.00" d=" M 48.74 31.39 L 49.01 31.32 C 51.71 30.80 54.48 30.92 57.21 30.99 C 56.55 32.06 55.88 33.13 55.22 34.20 C 53.28 34.18 51.34 34.24 49.41 34.27 C 49.88 34.83 50.35 35.39 50.83 35.95 C 49.79 36.42 48.76 36.91 47.72 37.38 C 47.89 37.70 48.24 38.35 48.41 38.67 C 47.10 39.74 45.80 40.81 44.50 41.90 C 44.52 42.72 44.53 43.54 44.54 44.37 C 43.56 45.68 43.05 47.24 43.05 48.89 C 43.20 50.90 43.55 52.89 43.87 54.87 C 41.92 56.62 39.88 58.41 37.33 59.19 C 35.05 59.40 32.77 59.50 30.48 59.42 C 33.59 58.51 36.72 57.57 39.62 56.10 C 38.69 53.43 37.55 50.83 36.14 48.38 C 37.66 47.94 39.14 47.35 40.57 46.66 C 40.51 44.80 40.53 42.93 40.57 41.07 C 41.78 39.95 43.46 38.93 43.28 37.02 C 43.15 34.10 46.27 30.08 49.16 33.20 C 49.06 32.75 48.84 31.84 48.74 31.39 Z" />
</g>
<g id="#fd8fbaff">
<path fill="#fd8fba" opacity="1.00" d=" M 49.41 34.27 C 51.34 34.24 53.28 34.18 55.22 34.20 C 56.46 34.79 57.63 35.51 58.81 36.21 C 56.81 36.52 54.78 36.52 52.77 36.42 C 54.91 38.11 58.78 39.64 57.28 42.99 C 56.75 42.71 55.69 42.13 55.17 41.85 C 54.85 44.76 53.15 47.23 50.75 48.85 C 47.87 49.12 46.40 46.01 44.54 44.37 C 44.53 43.54 44.52 42.72 44.50 41.90 C 45.80 40.81 47.10 39.74 48.41 38.67 C 48.24 38.35 47.89 37.70 47.72 37.38 C 48.76 36.91 49.79 36.42 50.83 35.95 C 50.35 35.39 49.88 34.83 49.41 34.27 Z" />
</g>
<g id="#465f25ff">
<path fill="#465f25" opacity="1.00" d=" M 5.88 42.06 L 6.25 40.91 C 6.65 44.25 9.20 46.88 12.00 48.49 C 14.36 49.37 16.43 47.81 18.24 46.53 C 17.78 48.77 16.53 51.13 17.46 53.42 C 18.45 55.88 20.96 57.17 23.18 58.35 C 24.07 58.81 24.96 59.25 25.87 59.66 C 23.60 59.87 22.13 62.12 19.90 62.60 C 19.73 62.27 19.39 61.60 19.23 61.26 C 21.38 60.88 21.36 58.30 19.43 57.61 C 16.51 56.22 16.75 52.44 14.48 50.57 C 11.62 49.37 8.87 47.41 5.66 47.39 C 5.35 51.91 2.44 55.91 3.47 60.58 C 3.49 61.07 3.53 62.03 3.55 62.52 C 7.68 62.60 11.81 62.48 15.93 62.23 C 15.10 63.47 13.30 63.06 12.03 63.19 C 8.46 63.03 4.77 63.65 1.28 62.75 C 0.77 60.61 1.18 58.38 1.30 56.22 L 1.94 56.35 C 2.56 51.40 4.49 46.79 5.88 42.06 Z" />
<path fill="#465f25" opacity="1.00" d=" M 43.05 48.89 C 45.09 51.52 48.24 53.70 51.44 51.43 C 51.68 51.32 52.16 51.09 52.39 50.98 C 53.74 53.74 57.31 56.31 56.54 59.61 C 54.47 61.08 51.93 61.89 49.49 62.49 L 48.26 61.97 C 50.50 61.26 52.70 60.41 54.87 59.52 C 54.63 57.32 53.75 55.30 52.59 53.44 C 50.14 53.41 47.69 53.32 45.23 53.23 C 44.93 53.88 44.31 55.17 44.00 55.81 L 43.87 54.87 C 43.55 52.89 43.20 50.90 43.05 48.89 Z" />
</g>
<g id="#dd557eff">
<path fill="#dd557e" opacity="1.00" d=" M 18.69 43.94 C 19.62 43.32 20.54 42.70 21.45 42.06 C 21.51 42.54 21.62 43.49 21.68 43.97 C 21.26 45.97 20.73 47.95 20.47 49.99 C 20.00 53.10 21.75 55.76 23.18 58.35 C 20.96 57.17 18.45 55.88 17.46 53.42 C 16.53 51.13 17.78 48.77 18.24 46.53 C 18.42 45.67 18.57 44.80 18.69 43.94 Z" />
</g>
<g id="#e56eabff">
<path fill="#e56eab" opacity="1.00" d=" M 55.17 41.85 C 55.69 42.13 56.75 42.71 57.28 42.99 C 56.94 44.31 56.56 45.61 56.17 46.91 C 54.46 48.27 52.96 49.86 51.44 51.43 C 48.24 53.70 45.09 51.52 43.05 48.89 C 43.05 47.24 43.56 45.68 44.54 44.37 C 46.40 46.01 47.87 49.12 50.75 48.85 C 53.15 47.23 54.85 44.76 55.17 41.85 Z" />
</g>
<g id="#fc6483ff">
<path fill="#fc6483" opacity="1.00" d=" M 21.68 43.97 C 24.06 43.38 26.46 42.17 28.97 42.62 C 33.05 43.44 37.75 42.94 40.57 46.66 C 39.14 47.35 37.66 47.94 36.14 48.38 C 30.92 49.01 25.23 47.04 20.47 49.99 C 20.73 47.95 21.26 45.97 21.68 43.97 Z" />
</g>
<g id="#b3dd6dff">
<path fill="#b3dd6d" opacity="1.00" d=" M 5.66 47.39 C 8.87 47.41 11.62 49.37 14.48 50.57 C 11.56 54.67 7.72 57.94 3.47 60.58 C 2.44 55.91 5.35 51.91 5.66 47.39 Z" />
</g>
<g id="#7c385ccd">
<path fill="#7c385c" opacity="0.80" d=" M 51.44 51.43 C 52.96 49.86 54.46 48.27 56.17 46.91 L 56.93 47.53 C 55.45 48.72 54.10 50.12 52.39 50.98 C 52.16 51.09 51.68 51.32 51.44 51.43 Z" />
</g>
<g id="#fd8fc8ff">
<path fill="#fd8fc8" opacity="1.00" d=" M 20.47 49.99 C 25.23 47.04 30.92 49.01 36.14 48.38 C 37.55 50.83 38.69 53.43 39.62 56.10 C 36.72 57.57 33.59 58.51 30.48 59.42 C 28.03 59.16 25.65 58.43 23.18 58.35 C 21.75 55.76 20.00 53.10 20.47 49.99 Z" />
</g>
<g id="#b5e06dff">
<path fill="#b5e06d" opacity="1.00" d=" M 3.47 60.58 C 7.72 57.94 11.56 54.67 14.48 50.57 C 16.75 52.44 16.51 56.22 19.43 57.61 C 21.36 58.30 21.38 60.88 19.23 61.26 C 18.11 61.52 17.01 61.85 15.93 62.23 C 11.81 62.48 7.68 62.60 3.55 62.52 C 3.53 62.03 3.49 61.07 3.47 60.58 Z" />
</g>
<g id="#a8d758ff">
<path fill="#a8d758" opacity="1.00" d=" M 45.23 53.23 C 47.69 53.32 50.14 53.41 52.59 53.44 C 53.75 55.30 54.63 57.32 54.87 59.52 C 52.70 60.41 50.50 61.26 48.26 61.97 C 45.17 62.72 42.21 61.95 39.57 60.29 C 41.12 58.89 43.06 57.75 44.00 55.81 C 44.31 55.17 44.93 53.88 45.23 53.23 Z" />
</g>
<g id="#587724f1">
<path fill="#587724" opacity="0.95" d=" M 43.87 54.87 L 44.00 55.81 C 43.06 57.75 41.12 58.89 39.57 60.29 C 42.21 61.95 45.17 62.72 48.26 61.97 L 49.49 62.49 C 44.56 65.11 39.09 63.01 34.94 59.99 C 35.54 59.79 36.73 59.39 37.33 59.19 C 39.88 58.41 41.92 56.62 43.87 54.87 Z" />
</g>
<g id="#843d69d4">
<path fill="#843d69" opacity="0.83" d=" M 23.18 58.35 C 25.65 58.43 28.03 59.16 30.48 59.42 C 32.77 59.50 35.05 59.40 37.33 59.19 C 36.73 59.39 35.54 59.79 34.94 59.99 C 31.99 60.80 28.67 61.13 25.87 59.66 C 24.96 59.25 24.07 58.81 23.18 58.35 Z" />
</g>
</svg>
