<?xml version="1.0" encoding="UTF-8" ?>
<!DOCTYPE svg PUBLIC "-//W3C//DTD SVG 1.1//EN" "http://www.w3.org/Graphics/SVG/1.1/DTD/svg11.dtd">
<svg width="64pt" height="64pt" viewBox="0 0 64 64" version="1.1" xmlns="http://www.w3.org/2000/svg">
<g id="#d1cb5dff">
<path fill="#d1cb5d" opacity="1.00" d=" M 21.94 5.66 C 24.57 4.28 27.57 3.91 30.50 4.09 C 29.16 4.67 27.87 5.34 26.63 6.10 C 30.13 5.82 33.69 5.50 37.16 6.31 C 33.84 6.58 30.52 7.28 27.75 9.25 C 28.67 9.19 30.50 9.05 31.41 8.98 C 30.36 11.53 33.62 11.76 35.32 11.32 C 36.28 10.82 37.18 8.96 38.40 10.11 C 37.75 10.81 37.05 11.47 36.37 12.15 C 37.34 12.39 39.28 12.87 40.25 13.11 C 40.54 13.33 41.11 13.76 41.40 13.97 C 37.65 13.64 33.86 13.74 30.16 14.45 C 29.48 13.89 28.13 12.78 27.45 12.23 C 28.02 12.04 29.15 11.67 29.72 11.48 C 27.78 11.01 25.96 11.99 24.32 12.87 C 22.74 10.77 22.32 8.19 21.94 5.66 Z" />
<path fill="#d1cb5d" opacity="1.00" d=" M 45.18 24.67 C 45.89 24.59 47.31 24.41 48.02 24.33 C 48.95 24.33 50.82 24.34 51.75 24.34 C 51.68 24.58 51.54 25.05 51.47 25.29 C 52.31 25.81 53.18 26.29 54.08 26.70 C 55.02 26.57 55.97 26.44 56.91 26.33 C 56.37 26.61 55.30 27.17 54.76 27.45 C 55.28 28.02 56.33 29.14 56.86 29.70 C 53.24 28.56 49.59 27.44 45.80 27.04 C 45.64 26.44 45.33 25.26 45.18 24.67 Z" />
</g>
<g id="#73703282">
<path fill="#737032" opacity="0.51" d=" M 30.50 4.09 C 33.19 4.34 35.90 4.38 38.58 3.98 C 38.67 5.73 38.39 7.47 38.22 9.21 C 38.94 9.90 39.67 10.59 40.38 11.30 C 40.35 11.75 40.28 12.66 40.25 13.11 C 39.28 12.87 37.34 12.39 36.37 12.15 C 37.05 11.47 37.75 10.81 38.40 10.11 C 37.18 8.96 36.28 10.82 35.32 11.32 C 33.62 11.76 30.36 11.53 31.41 8.98 C 30.50 9.05 28.67 9.19 27.75 9.25 C 30.52 7.28 33.84 6.58 37.16 6.31 C 33.69 5.50 30.13 5.82 26.63 6.10 C 27.87 5.34 29.16 4.67 30.50 4.09 Z" />
</g>
<g id="#cdbe34ff">
<path fill="#cdbe34" opacity="1.00" d=" M 17.53 10.74 C 18.71 8.81 20.23 7.12 21.94 5.66 C 22.32 8.19 22.74 10.77 24.32 12.87 C 24.20 13.00 23.97 13.27 23.85 13.41 C 25.05 13.01 26.25 12.64 27.45 12.23 C 28.13 12.78 29.48 13.89 30.16 14.45 C 27.12 15.04 24.25 16.30 21.70 18.03 C 20.61 17.96 19.53 17.90 18.44 17.82 C 18.37 15.44 18.02 13.07 17.53 10.74 Z" />
</g>
<g id="#c1a913ff">
<path fill="#c1a913" opacity="1.00" d=" M 13.03 22.81 C 13.94 18.60 15.38 14.48 17.53 10.74 C 18.02 13.07 18.37 15.44 18.44 17.82 C 19.53 17.90 20.61 17.96 21.70 18.03 C 20.66 18.81 19.64 19.59 18.63 20.39 L 18.26 20.50 C 17.99 20.76 17.43 21.27 17.15 21.52 C 16.54 21.95 15.31 22.80 14.69 23.22 C 14.28 23.12 13.45 22.91 13.03 22.81 Z" />
<path fill="#c1a913" opacity="1.00" d=" M 16.23 62.27 C 16.72 62.77 16.72 62.77 16.23 62.27 Z" />
</g>
<g id="#02341294">
<path fill="#023412" opacity="0.58" d=" M 46.30 12.15 C 49.02 10.88 51.18 13.54 52.67 15.43 C 51.00 14.65 49.37 13.81 47.75 12.95 C 46.97 13.93 46.15 14.89 45.24 15.76 L 45.14 15.76 L 43.61 15.93 C 44.46 14.64 45.28 13.32 46.30 12.15 Z" />
</g>
<g id="#01240fa6">
<path fill="#01240f" opacity="0.65" d=" M 9.57 26.59 C 10.59 21.83 11.23 16.88 13.42 12.49 C 12.78 17.71 11.34 22.79 10.35 27.95 C 10.64 28.55 11.22 29.74 11.52 30.34 C 11.12 34.28 11.26 38.25 11.37 42.21 C 10.99 38.81 11.05 35.38 10.96 31.96 C 9.05 32.46 9.54 34.73 9.19 36.19 C 8.37 45.55 9.84 54.92 12.02 64.00 L 9.46 64.00 C 6.78 52.82 6.56 41.19 8.80 29.92 C 7.09 25.64 6.42 21.07 7.41 16.50 C 7.89 19.90 8.10 23.42 9.57 26.59 Z" />
</g>
<g id="#d2ce5aff">
<path fill="#d2ce5a" opacity="1.00" d=" M 40.24 16.33 C 41.36 16.18 42.49 16.05 43.61 15.93 L 45.14 15.76 C 45.34 16.78 45.57 17.80 45.80 18.81 C 46.57 18.82 47.34 18.83 48.11 18.83 C 49.91 19.07 51.71 19.32 53.52 19.53 L 53.32 20.30 C 54.21 21.03 55.99 22.47 56.88 23.19 C 53.21 21.29 49.08 20.89 45.02 21.17 C 47.60 21.70 52.75 22.77 55.32 23.31 C 50.68 23.78 46.01 23.75 41.37 23.32 C 40.97 21.00 40.63 18.66 40.24 16.33 Z" />
</g>
<g id="#8b8941a6">
<path fill="#8b8941" opacity="0.65" d=" M 45.14 15.76 L 45.24 15.76 C 48.79 16.25 52.24 17.27 55.48 18.78 C 53.01 18.43 50.56 18.45 48.11 18.83 C 47.34 18.83 46.57 18.82 45.80 18.81 C 45.57 17.80 45.34 16.78 45.14 15.76 Z" />
</g>
<g id="#cec234ff">
<path fill="#cec234" opacity="1.00" d=" M 31.56 23.32 C 34.04 20.54 36.73 17.78 40.24 16.33 C 40.63 18.66 40.97 21.00 41.37 23.32 C 41.40 23.44 41.46 23.67 41.49 23.79 C 43.66 24.00 45.83 24.21 48.02 24.33 C 47.31 24.41 45.89 24.59 45.18 24.67 C 45.33 25.26 45.64 26.44 45.80 27.04 C 43.05 26.68 40.28 26.98 37.63 27.77 C 36.93 27.95 35.54 28.30 34.85 28.48 C 33.46 28.46 32.07 28.42 30.68 28.34 C 31.59 27.39 32.51 26.45 33.42 25.50 C 32.80 24.77 32.18 24.04 31.56 23.32 Z" />
</g>
<g id="#79763592">
<path fill="#797635" opacity="0.57" d=" M 55.25 19.46 C 55.86 20.07 55.86 20.07 55.25 19.46 Z" />
</g>
<g id="#022c0bc0">
<path fill="#022c0b" opacity="0.75" d=" M 18.26 20.50 L 18.63 20.39 C 19.95 23.91 23.21 26.34 24.34 30.00 C 24.70 31.15 25.03 32.31 25.34 33.48 C 24.91 33.73 24.04 34.24 23.61 34.49 C 23.35 33.69 23.08 32.89 22.79 32.10 C 19.12 34.30 15.62 36.92 13.29 40.58 C 13.26 39.93 13.21 38.63 13.19 37.98 C 15.42 34.48 19.08 32.37 22.72 30.62 C 21.26 27.36 19.34 24.35 17.15 21.52 C 17.43 21.27 17.99 20.76 18.26 20.50 Z" />
</g>
<g id="#135028d4">
<path fill="#135028" opacity="0.83" d=" M 13.03 22.81 C 13.45 22.91 14.28 23.12 14.69 23.22 C 13.72 28.07 12.86 33.01 13.19 37.98 C 13.21 38.63 13.26 39.93 13.29 40.58 C 13.34 42.45 13.53 44.32 13.74 46.17 L 12.14 47.10 C 11.85 45.48 11.54 43.85 11.37 42.21 C 11.26 38.25 11.12 34.28 11.52 30.34 C 11.96 27.82 12.48 25.31 13.03 22.81 Z" />
</g>
<g id="#a59412ed">
<path fill="#a59412" opacity="0.93" d=" M 28.11 28.35 C 28.99 26.50 30.23 24.86 31.56 23.32 C 32.18 24.04 32.80 24.77 33.42 25.50 C 32.51 26.45 31.59 27.39 30.68 28.34 C 32.07 28.42 33.46 28.46 34.85 28.48 L 35.49 28.48 C 33.14 29.40 30.83 30.46 28.37 31.07 L 27.05 30.69 C 27.32 30.11 27.85 28.94 28.11 28.35 Z" />
</g>
<g id="#023412c2">
<path fill="#023412" opacity="0.76" d=" M 34.85 28.48 C 35.54 28.30 36.93 27.95 37.63 27.77 C 35.63 32.06 33.40 36.25 31.83 40.72 C 35.00 40.29 38.21 40.22 41.40 40.49 C 38.04 41.12 34.69 41.73 31.34 42.39 C 29.34 49.45 28.40 56.73 27.50 64.00 L 25.34 64.00 C 25.86 56.73 27.38 49.58 29.56 42.65 C 26.91 43.96 24.35 45.48 22.06 47.37 C 22.31 46.38 22.55 45.39 22.79 44.40 C 25.08 42.96 27.55 41.88 30.10 41.01 C 31.92 36.70 33.95 32.47 36.30 28.43 L 35.49 28.48 L 34.85 28.48 Z" />
</g>
<g id="#011c0870">
<path fill="#011c08" opacity="0.44" d=" M 24.34 30.00 C 25.59 29.45 26.85 28.90 28.11 28.35 C 27.85 28.94 27.32 30.11 27.05 30.69 C 26.62 31.39 25.77 32.78 25.34 33.48 C 25.03 32.31 24.70 31.15 24.34 30.00 Z" />
</g>
<g id="#125329de">
<path fill="#125329" opacity="0.87" d=" M 27.05 30.69 L 28.37 31.07 C 26.07 35.31 24.05 39.73 22.79 44.40 C 22.55 45.39 22.31 46.38 22.06 47.37 C 21.52 49.42 21.10 51.52 20.89 53.63 C 20.14 52.16 19.62 50.59 19.68 48.92 C 20.28 43.91 23.20 39.50 23.61 34.49 C 24.04 34.24 24.91 33.73 25.34 33.48 C 25.77 32.78 26.62 31.39 27.05 30.69 Z" />
</g>
<g id="#002411bf">
<path fill="#002411" opacity="0.75" d=" M 38.81 44.94 C 40.31 43.01 42.33 40.83 45.01 41.03 C 47.77 41.61 49.47 43.99 50.86 46.24 C 48.67 44.60 46.39 43.07 43.91 41.89 C 37.78 47.89 34.79 56.18 31.72 64.00 L 29.67 64.00 C 31.99 57.34 34.59 50.65 38.81 44.94 Z" />
</g>
<g id="#024b17e6">
<path fill="#024b17" opacity="0.90" d=" M 12.14 47.10 L 13.74 46.17 C 14.66 50.76 15.88 55.30 17.51 59.68 C 17.01 60.36 16.51 61.03 16.00 61.70 C 14.81 56.81 12.96 52.09 12.14 47.10 Z" />
</g>
<g id="#024016ba">
<path fill="#024016" opacity="0.73" d=" M 18.69 64.00 C 18.98 58.97 18.53 53.87 19.68 48.92 C 19.62 50.59 20.14 52.16 20.89 53.63 C 20.88 57.09 20.60 60.54 20.56 64.00 L 18.69 64.00 Z" />
</g>
</svg>
