<?xml version="1.0" encoding="UTF-8" ?>
<!DOCTYPE svg PUBLIC "-//W3C//DTD SVG 1.1//EN" "http://www.w3.org/Graphics/SVG/1.1/DTD/svg11.dtd">
<svg width="64pt" height="64pt" viewBox="0 0 64 64" version="1.1" xmlns="http://www.w3.org/2000/svg">
<g id="#74af3ff8">
<path fill="#74af3f" opacity="0.97" d=" M 24.15 5.21 C 27.45 3.85 30.51 1.85 33.96 0.88 C 34.00 2.43 34.10 5.52 34.14 7.07 C 34.53 12.03 27.78 13.85 24.18 11.81 C 23.97 10.19 23.95 8.55 23.92 6.92 C 23.98 6.49 24.09 5.64 24.15 5.21 Z" />
</g>
<g id="#906126f1">
<path fill="#906126" opacity="0.95" d=" M 10.00 6.97 C 12.31 6.80 14.91 7.80 16.10 9.89 C 18.10 13.36 20.73 16.91 19.83 21.14 C 18.46 18.34 18.13 14.79 15.35 12.92 C 13.22 11.10 8.80 10.78 10.00 6.97 Z" />
</g>
<g id="#667c2ff5">
<path fill="#667c2f" opacity="0.96" d=" M 22.43 9.67 C 22.40 8.68 22.84 7.22 23.92 6.92 C 23.95 8.55 23.97 10.19 24.18 11.81 C 27.78 13.85 34.53 12.03 34.14 7.07 C 35.57 7.40 39.02 5.89 39.01 7.92 C 34.77 7.09 33.82 9.59 35.03 14.00 C 34.83 14.25 34.44 14.75 34.24 15.00 C 34.16 14.54 34.00 13.63 33.92 13.17 C 30.38 14.49 26.23 17.63 22.96 14.13 C 22.88 12.63 22.73 11.14 22.43 9.67 Z" />
</g>
<g id="#e78218fe">
<path fill="#e78218" opacity="1.00" d=" M 35.03 14.00 C 33.82 9.59 34.77 7.09 39.01 7.92 C 48.01 9.37 55.70 17.31 58.01 25.98 C 58.01 30.31 58.02 34.64 57.99 38.97 C 55.86 38.54 53.71 38.35 51.54 38.40 C 49.56 40.44 47.86 42.78 45.62 44.55 C 41.30 46.79 36.45 48.03 32.77 51.38 C 29.24 52.31 25.56 52.13 22.04 53.04 C 19.03 52.18 15.58 51.99 13.15 49.82 C 10.35 46.12 7.43 42.24 6.40 37.62 C 5.45 33.03 6.82 28.51 6.99 23.94 C 7.07 19.10 11.63 15.54 15.35 12.92 C 18.13 14.79 18.46 18.34 19.83 21.14 L 19.88 21.90 C 17.80 23.82 15.80 25.84 13.96 28.00 C 10.29 31.64 10.89 37.54 14.60 40.76 C 14.30 42.33 15.21 44.04 16.92 44.17 C 21.58 46.54 27.00 45.90 31.85 47.53 C 34.44 46.43 36.66 43.54 39.72 44.88 C 37.39 41.16 43.55 42.88 43.44 39.37 C 46.44 39.51 47.09 38.21 46.05 35.54 C 47.82 35.56 49.32 34.60 50.77 33.69 C 51.64 30.95 48.78 28.86 47.88 26.48 C 48.90 26.46 49.97 26.60 50.86 25.97 C 49.48 21.54 47.11 17.40 43.16 14.79 C 41.13 12.44 36.89 10.30 35.03 14.00 Z" />
</g>
<g id="#643e13fe">
<path fill="#643e13" opacity="1.00" d=" M 16.10 9.89 C 17.25 9.89 18.15 10.35 18.82 11.26 C 20.03 12.65 21.21 14.09 22.59 15.33 C 23.37 16.62 24.23 18.05 25.89 18.22 C 25.89 18.63 25.89 19.46 25.89 19.88 C 25.12 20.59 24.37 21.32 23.63 22.06 C 22.38 22.00 21.13 21.95 19.88 21.90 L 19.83 21.14 C 20.73 16.91 18.10 13.36 16.10 9.89 Z" />
</g>
<g id="#a86a19fc">
<path fill="#a86a19" opacity="1.00" d=" M 18.82 11.26 C 19.85 10.36 21.06 9.83 22.43 9.67 C 22.73 11.14 22.88 12.63 22.96 14.13 L 22.59 15.33 C 21.21 14.09 20.03 12.65 18.82 11.26 Z" />
</g>
<g id="#f7a536ff">
<path fill="#f7a536" opacity="1.00" d=" M 35.03 14.00 C 36.89 10.30 41.13 12.44 43.16 14.79 C 47.11 17.40 49.48 21.54 50.86 25.97 C 49.97 26.60 48.90 26.46 47.88 26.48 C 48.78 28.86 51.64 30.95 50.77 33.69 C 49.32 34.60 47.82 35.56 46.05 35.54 C 47.09 38.21 46.44 39.51 43.44 39.37 C 43.55 42.88 37.39 41.16 39.72 44.88 C 36.66 43.54 34.44 46.43 31.85 47.53 C 27.00 45.90 21.58 46.54 16.92 44.17 C 15.21 44.04 14.30 42.33 14.60 40.76 L 15.53 40.89 C 19.18 41.23 22.74 41.92 26.16 43.28 C 28.26 42.14 30.73 42.30 33.11 42.28 C 35.16 41.24 37.38 40.65 39.57 39.98 C 38.03 36.04 44.99 35.27 43.15 31.30 C 44.11 31.52 45.08 31.73 46.06 31.92 C 46.57 29.53 43.92 29.10 42.19 28.81 C 43.93 27.43 44.35 25.23 44.66 23.15 C 42.02 19.29 36.85 18.83 32.98 16.80 C 33.30 16.35 33.93 15.45 34.24 15.00 C 34.44 14.75 34.83 14.25 35.03 14.00 Z" />
</g>
<g id="#4e5a26ff">
<path fill="#4e5a26" opacity="1.00" d=" M 22.96 14.13 C 26.23 17.63 30.38 14.49 33.92 13.17 C 34.00 13.63 34.16 14.54 34.24 15.00 C 31.35 15.75 28.57 16.90 25.89 18.22 C 24.23 18.05 23.37 16.62 22.59 15.33 L 22.96 14.13 Z" />
</g>
<g id="#c08534ff">
<path fill="#c08534" opacity="1.00" d=" M 25.89 18.22 C 28.57 16.90 31.35 15.75 34.24 15.00 C 33.93 15.45 33.30 16.35 32.98 16.80 C 30.81 18.23 28.35 19.09 25.89 19.88 C 25.89 19.46 25.89 18.63 25.89 18.22 Z" />
</g>
<g id="#fdba61ff">
<path fill="#fdba61" opacity="1.00" d=" M 25.89 19.88 C 28.35 19.09 30.81 18.23 32.98 16.80 C 36.85 18.83 42.02 19.29 44.66 23.15 C 44.35 25.23 43.93 27.43 42.19 28.81 C 43.92 29.10 46.57 29.53 46.06 31.92 C 45.08 31.73 44.11 31.52 43.15 31.30 C 44.99 35.27 38.03 36.04 39.57 39.98 C 37.38 40.65 35.16 41.24 33.11 42.28 C 30.73 42.30 28.26 42.14 26.16 43.28 C 22.74 41.92 19.18 41.23 15.53 40.89 C 16.20 40.63 17.53 40.09 18.20 39.83 C 20.80 40.54 21.95 39.74 21.94 37.17 C 24.43 38.55 27.18 39.32 29.97 39.82 C 31.84 38.78 33.70 37.69 35.83 37.31 C 37.57 35.47 38.53 33.08 39.57 30.81 C 38.31 27.95 38.11 24.87 38.64 21.80 C 36.84 22.28 36.85 24.44 35.86 25.73 C 32.25 26.01 29.70 22.94 26.31 22.26 C 26.02 24.83 24.69 23.12 23.63 22.06 C 24.37 21.32 25.12 20.59 25.89 19.88 Z" />
</g>
<g id="#fec984ff">
<path fill="#fec984" opacity="1.00" d=" M 13.96 28.00 C 15.80 25.84 17.80 23.82 19.88 21.90 C 21.13 21.95 22.38 22.00 23.63 22.06 C 24.69 23.12 26.02 24.83 26.31 22.26 C 29.70 22.94 32.25 26.01 35.86 25.73 C 36.85 24.44 36.84 22.28 38.64 21.80 C 38.11 24.87 38.31 27.95 39.57 30.81 C 38.53 33.08 37.57 35.47 35.83 37.31 C 33.70 37.69 31.84 38.78 29.97 39.82 C 27.18 39.32 24.43 38.55 21.94 37.17 C 21.95 39.74 20.80 40.54 18.20 39.83 C 16.90 38.74 15.50 37.78 14.22 36.67 C 14.05 33.78 13.92 30.89 13.96 28.00 M 19.23 25.13 C 14.95 27.87 14.24 38.68 21.60 35.81 C 23.16 33.29 27.76 32.67 28.03 28.99 C 28.23 24.70 22.25 24.00 19.23 25.13 Z" />
</g>
<g id="#b14008f0">
<path fill="#b14008" opacity="0.94" d=" M 5.02 28.98 C 5.59 27.39 5.28 24.63 6.99 23.94 C 6.82 28.51 5.45 33.03 6.40 37.62 C 7.43 42.24 10.35 46.12 13.15 49.82 C 15.58 51.99 19.03 52.18 22.04 53.04 C 21.39 53.93 20.72 54.81 20.15 55.75 C 22.36 57.10 24.76 58.05 27.21 58.86 C 26.36 58.98 24.67 59.24 23.82 59.37 L 23.08 59.38 C 22.11 59.00 21.14 58.60 20.18 58.20 C 11.76 54.74 6.63 46.67 5.00 38.01 C 4.99 35.00 4.97 31.99 5.02 28.98 Z" />
</g>
<g id="#ffdcb1ff">
<path fill="#ffdcb1" opacity="1.00" d=" M 19.23 25.13 C 22.25 24.00 28.23 24.70 28.03 28.99 C 27.76 32.67 23.16 33.29 21.60 35.81 C 14.24 38.68 14.95 27.87 19.23 25.13 Z" />
</g>
<g id="#9f490ae1">
<path fill="#9f490a" opacity="0.88" d=" M 58.01 25.98 L 58.97 26.02 C 58.98 26.52 59.01 27.50 59.02 28.00 C 59.00 31.67 58.98 35.34 59.02 39.01 C 58.76 39.51 58.26 40.51 58.00 41.00 C 58.00 40.50 57.99 39.48 57.99 38.97 C 58.02 34.64 58.01 30.31 58.01 25.98 Z" />
</g>
<g id="#fcaf4bff">
<path fill="#fcaf4b" opacity="1.00" d=" M 14.60 40.76 C 10.89 37.54 10.29 31.64 13.96 28.00 C 13.92 30.89 14.05 33.78 14.22 36.67 C 15.50 37.78 16.90 38.74 18.20 39.83 C 17.53 40.09 16.20 40.63 15.53 40.89 L 14.60 40.76 Z" />
</g>
<g id="#240d0239">
<path fill="#240d02" opacity="0.22" d=" M 59.02 28.00 L 60.00 28.00 C 59.99 30.75 59.99 36.24 59.99 38.99 L 59.02 39.01 C 58.98 35.34 59.00 31.67 59.02 28.00 Z" />
</g>
<g id="#3111024d">
<path fill="#311102" opacity="0.30" d=" M 4.05 29.02 L 5.02 28.98 C 4.97 31.99 4.99 35.00 5.00 38.01 C 1.74 37.92 4.75 31.45 4.05 29.02 Z" />
</g>
<g id="#dd5a0cfd">
<path fill="#dd5a0c" opacity="1.00" d=" M 51.54 38.40 C 53.71 38.35 55.86 38.54 57.99 38.97 C 57.99 39.48 58.00 40.50 58.00 41.00 C 57.02 43.63 56.38 47.62 53.97 49.20 C 49.58 48.96 54.25 44.49 54.25 42.14 C 50.98 44.06 47.55 45.76 45.21 48.87 C 44.87 45.16 43.66 49.17 42.71 50.41 C 39.28 49.75 36.22 52.39 32.77 51.38 C 36.45 48.03 41.30 46.79 45.62 44.55 C 47.86 42.78 49.56 40.44 51.54 38.40 Z" />
</g>
<g id="#d93906fe">
<path fill="#d93906" opacity="1.00" d=" M 45.21 48.87 C 47.55 45.76 50.98 44.06 54.25 42.14 C 54.25 44.49 49.58 48.96 53.97 49.20 C 52.07 52.11 49.50 55.05 46.10 56.05 C 40.08 58.43 33.79 59.80 27.21 58.86 C 24.76 58.05 22.36 57.10 20.15 55.75 C 20.72 54.81 21.39 53.93 22.04 53.04 C 25.56 52.13 29.24 52.31 32.77 51.38 C 36.22 52.39 39.28 49.75 42.71 50.41 C 43.66 49.17 44.87 45.16 45.21 48.87 Z" />
</g>
<g id="#9e2e04ed">
<path fill="#9e2e04" opacity="0.93" d=" M 27.21 58.86 C 33.79 59.80 40.08 58.43 46.10 56.05 C 45.63 57.06 44.89 57.76 43.88 58.15 C 42.92 58.53 41.95 58.90 40.97 59.25 C 39.74 59.63 38.50 59.99 37.24 60.25 C 33.74 60.16 30.25 60.02 26.76 60.20 C 25.77 59.96 24.79 59.68 23.82 59.37 C 24.67 59.24 26.36 58.98 27.21 58.86 Z" />
</g>
<g id="#04010030">
<path fill="#040100" opacity="0.19" d=" M 20.18 58.20 C 21.14 58.60 22.11 59.00 23.08 59.38 C 22.05 59.66 21.02 59.95 20.00 60.23 C 20.70 60.83 21.42 61.41 22.15 61.97 C 19.23 61.84 15.30 63.38 13.86 60.17 C 16.56 60.79 18.67 60.14 20.18 58.20 Z" />
</g>
<g id="#03010037">
<path fill="#030100" opacity="0.22" d=" M 40.97 59.25 C 41.95 58.90 42.92 58.53 43.88 58.15 C 43.39 62.10 51.88 58.34 47.79 61.88 C 46.32 61.91 43.37 61.96 41.89 61.99 L 40.90 61.97 C 42.64 60.93 43.38 59.88 40.97 59.25 Z" />
</g>
<g id="#07020071">
<path fill="#070200" opacity="0.44" d=" M 23.08 59.38 L 23.82 59.37 C 24.79 59.68 25.77 59.96 26.76 60.20 C 30.24 61.21 33.74 61.23 37.24 60.25 C 38.50 59.99 39.74 59.63 40.97 59.25 C 43.38 59.88 42.64 60.93 40.90 61.97 C 34.65 62.00 28.40 62.04 22.15 61.97 C 21.42 61.41 20.70 60.83 20.00 60.23 C 21.02 59.95 22.05 59.66 23.08 59.38 Z" />
</g>
<g id="#5e1903d9">
<path fill="#5e1903" opacity="0.85" d=" M 26.76 60.20 C 30.25 60.02 33.74 60.16 37.24 60.25 C 33.74 61.23 30.24 61.21 26.76 60.20 Z" />
</g>
<g id="#0000001c">
<path fill="#000000" opacity="0.11" d=" M 22.15 61.97 C 28.40 62.04 34.65 62.00 40.90 61.97 L 41.89 61.99 L 42.05 62.97 C 35.35 63.07 28.65 63.06 21.95 62.93 L 22.15 61.97 Z" />
</g>
</svg>
