<?xml version="1.0" encoding="UTF-8" ?>
<!DOCTYPE svg PUBLIC "-//W3C//DTD SVG 1.1//EN" "http://www.w3.org/Graphics/SVG/1.1/DTD/svg11.dtd">
<svg width="64pt" height="64pt" viewBox="0 0 64 64" version="1.1" xmlns="http://www.w3.org/2000/svg">
<g id="#7cae38ff">
<path fill="#7cae38" opacity="1.00" d=" M 3.24 34.08 C 2.08 24.73 4.87 14.85 11.60 8.12 C 12.51 8.87 13.46 9.56 14.52 10.10 L 14.43 10.13 C 14.12 10.26 13.50 10.53 13.18 10.66 C 8.02 18.01 4.93 27.37 7.46 36.29 C 6.06 35.55 4.65 34.81 3.24 34.08 Z" />
</g>
<g id="#f1f4f4ff">
<path fill="#f1f4f4" opacity="1.00" d=" M 13.18 10.66 C 13.50 10.53 14.12 10.26 14.43 10.13 C 14.95 10.50 16.00 11.22 16.52 11.59 C 16.18 12.10 15.50 13.12 15.16 13.64 C 13.53 16.11 12.09 18.73 11.11 21.53 C 9.26 26.85 9.06 32.75 10.99 38.08 C 14.09 47.38 23.24 54.32 33.09 54.48 C 42.31 55.05 50.77 49.54 56.10 42.38 C 56.71 42.93 57.93 44.02 58.54 44.57 C 53.48 50.08 47.38 55.29 39.76 56.56 C 29.73 58.46 18.17 55.14 12.21 46.45 C 10.09 43.35 8.47 39.91 7.46 36.29 C 4.93 27.37 8.02 18.01 13.18 10.66 Z" />
</g>
<g id="#fe8391ff">
<path fill="#fe8391" opacity="1.00" d=" M 16.52 11.59 C 18.15 12.96 19.87 14.21 21.58 15.47 L 21.68 15.82 C 22.09 18.23 23.54 20.19 24.78 22.22 C 23.69 24.60 19.71 24.16 19.06 27.25 C 21.54 27.13 24.03 27.23 26.49 27.56 C 27.38 26.70 28.28 25.87 29.16 25.01 C 32.36 27.11 36.09 28.88 38.20 32.22 C 37.62 32.52 36.46 33.11 35.89 33.41 C 33.59 32.16 31.30 30.90 29.12 29.45 C 28.26 29.98 27.39 30.50 26.53 31.03 C 24.28 31.33 23.96 35.40 26.72 33.95 L 26.65 35.22 C 24.74 34.59 22.88 33.81 20.92 33.37 C 18.81 33.40 16.71 33.99 14.60 33.62 C 14.91 33.25 15.52 32.50 15.83 32.13 C 18.74 28.97 16.26 24.45 18.33 20.95 C 19.49 23.15 21.90 20.37 20.59 18.90 C 19.42 16.58 17.14 15.19 15.16 13.64 C 15.50 13.12 16.18 12.10 16.52 11.59 Z" />
</g>
<g id="#fd6978ff">
<path fill="#fd6978" opacity="1.00" d=" M 15.16 13.64 C 17.14 15.19 19.42 16.58 20.59 18.90 C 19.40 19.08 18.65 19.76 18.33 20.95 C 16.26 24.45 18.74 28.97 15.83 32.13 C 15.30 28.63 11.18 33.57 14.60 33.62 C 16.71 33.99 18.81 33.40 20.92 33.37 C 22.88 33.81 24.74 34.59 26.65 35.22 L 26.72 33.95 C 26.67 33.22 26.58 31.76 26.53 31.03 C 27.39 30.50 28.26 29.98 29.12 29.45 C 31.30 30.90 33.59 32.16 35.89 33.41 C 35.96 33.80 36.11 34.57 36.19 34.96 C 36.59 34.90 37.40 34.77 37.80 34.71 C 38.61 34.15 39.41 33.57 40.19 32.98 C 42.53 34.32 44.67 35.97 46.62 37.82 C 46.10 38.22 45.06 39.02 44.55 39.43 C 43.46 38.31 42.40 37.17 41.32 36.05 C 41.50 37.15 41.67 38.25 41.85 39.35 C 39.96 38.70 37.99 38.90 36.09 39.39 C 35.45 38.42 34.80 37.45 34.16 36.48 C 31.50 36.49 28.91 37.13 26.39 37.98 C 26.80 37.37 27.21 36.76 27.61 36.14 C 26.10 36.25 24.59 36.41 23.07 36.50 C 21.83 35.65 20.59 34.79 19.31 34.01 C 19.93 35.14 20.55 36.27 21.19 37.40 C 20.14 38.97 18.36 39.16 16.64 38.88 C 16.06 36.49 14.12 35.14 12.42 33.60 C 11.90 29.56 13.58 25.24 11.11 21.53 C 12.09 18.73 13.53 16.11 15.16 13.64 Z" />
</g>
<g id="#ffa0abff">
<path fill="#ffa0ab" opacity="1.00" d=" M 21.68 15.82 C 30.93 22.67 39.99 29.82 48.97 37.02 C 48.38 37.22 47.21 37.62 46.62 37.82 C 44.67 35.97 42.53 34.32 40.19 32.98 C 39.41 33.57 38.61 34.15 37.80 34.71 C 37.90 34.08 38.10 32.84 38.20 32.22 C 36.09 28.88 32.36 27.11 29.16 25.01 C 28.28 25.87 27.38 26.70 26.49 27.56 C 24.03 27.23 21.54 27.13 19.06 27.25 C 19.71 24.16 23.69 24.60 24.78 22.22 C 23.54 20.19 22.09 18.23 21.68 15.82 Z" />
</g>
<g id="#594749ff">
<path fill="#594749" opacity="1.00" d=" M 18.33 20.95 C 18.65 19.76 19.40 19.08 20.59 18.90 C 21.90 20.37 19.49 23.15 18.33 20.95 Z" />
</g>
<g id="#fc5766ff">
<path fill="#fc5766" opacity="1.00" d=" M 11.11 21.53 C 13.58 25.24 11.90 29.56 12.42 33.60 C 14.12 35.14 16.06 36.49 16.64 38.88 C 18.36 39.16 20.14 38.97 21.19 37.40 C 20.55 36.27 19.93 35.14 19.31 34.01 C 20.59 34.79 21.83 35.65 23.07 36.50 C 24.59 36.41 26.10 36.25 27.61 36.14 C 27.21 36.76 26.80 37.37 26.39 37.98 C 28.91 37.13 31.50 36.49 34.16 36.48 C 34.80 37.45 35.45 38.42 36.09 39.39 C 37.99 38.90 39.96 38.70 41.85 39.35 C 41.67 38.25 41.50 37.15 41.32 36.05 C 42.40 37.17 43.46 38.31 44.55 39.43 C 45.06 39.02 46.10 38.22 46.62 37.82 C 47.21 37.62 48.38 37.22 48.97 37.02 L 49.15 36.96 C 51.47 38.76 53.77 40.59 56.10 42.38 C 50.77 49.54 42.31 55.05 33.09 54.48 C 23.24 54.32 14.09 47.38 10.99 38.08 C 9.06 32.75 9.26 26.85 11.11 21.53 M 26.69 41.66 C 25.45 41.06 24.22 40.43 22.99 39.81 C 22.30 40.63 21.24 41.46 21.58 42.66 C 20.29 43.37 19.08 44.32 18.91 45.89 C 19.64 45.84 21.10 45.76 21.83 45.71 C 21.80 46.25 21.76 47.33 21.74 47.87 C 28.45 52.78 38.11 53.30 45.39 49.40 C 45.41 48.41 45.47 47.42 45.51 46.44 L 46.04 45.87 L 45.91 47.05 C 46.64 47.00 48.11 46.89 48.84 46.84 C 48.88 45.70 48.68 44.61 48.22 43.57 C 45.83 41.36 43.62 43.91 41.69 45.34 C 41.15 45.07 40.62 44.79 40.09 44.51 C 38.62 45.86 37.29 47.94 34.98 47.45 L 35.10 45.94 C 37.38 47.73 38.20 42.39 35.55 44.19 C 33.83 42.23 30.89 41.59 29.03 43.70 C 28.05 42.38 27.94 40.67 27.55 39.13 C 27.27 39.97 26.98 40.82 26.69 41.66 Z" />
</g>
<g id="#614447ff">
<path fill="#614447" opacity="1.00" d=" M 14.60 33.62 C 11.18 33.57 15.30 28.63 15.83 32.13 C 15.52 32.50 14.91 33.25 14.60 33.62 Z" />
</g>
<g id="#5a4346ff">
<path fill="#5a4346" opacity="1.00" d=" M 26.72 33.95 C 23.96 35.40 24.28 31.33 26.53 31.03 C 26.58 31.76 26.67 33.22 26.72 33.95 Z" />
</g>
<g id="#4f3d3fff">
<path fill="#4f3d3f" opacity="1.00" d=" M 35.89 33.41 C 36.46 33.11 37.62 32.52 38.20 32.22 C 38.10 32.84 37.90 34.08 37.80 34.71 C 37.40 34.77 36.59 34.90 36.19 34.96 C 36.11 34.57 35.96 33.80 35.89 33.41 Z" />
</g>
<g id="#628f2cff">
<path fill="#628f2c" opacity="1.00" d=" M 3.24 34.08 C 4.65 34.81 6.06 35.55 7.46 36.29 C 8.47 39.91 10.09 43.35 12.21 46.45 C 11.10 47.01 10.00 47.56 8.90 48.12 C 6.01 43.93 3.86 39.17 3.24 34.08 Z" />
</g>
<g id="#fc4958ff">
<path fill="#fc4958" opacity="1.00" d=" M 26.69 41.66 C 26.98 40.82 27.27 39.97 27.55 39.13 C 27.94 40.67 28.05 42.38 29.03 43.70 C 30.89 41.59 33.83 42.23 35.55 44.19 C 35.44 44.62 35.21 45.50 35.10 45.94 L 34.98 47.45 C 37.29 47.94 38.62 45.86 40.09 44.51 C 40.62 44.79 41.15 45.07 41.69 45.34 C 43.62 43.91 45.83 41.36 48.22 43.57 C 47.49 44.33 46.76 45.09 46.04 45.87 L 45.51 46.44 C 45.47 47.42 45.41 48.41 45.39 49.40 C 38.11 53.30 28.45 52.78 21.74 47.87 C 21.76 47.33 21.80 46.25 21.83 45.71 C 21.76 44.69 21.68 43.68 21.58 42.66 C 21.24 41.46 22.30 40.63 22.99 39.81 C 24.22 40.43 25.45 41.06 26.69 41.66 Z" />
</g>
<g id="#804248ff">
<path fill="#804248" opacity="1.00" d=" M 18.91 45.89 C 19.08 44.32 20.29 43.37 21.58 42.66 C 21.68 43.68 21.76 44.69 21.83 45.71 C 21.10 45.76 19.64 45.84 18.91 45.89 Z" />
</g>
<g id="#442e30ff">
<path fill="#442e30" opacity="1.00" d=" M 35.55 44.19 C 38.20 42.39 37.38 47.73 35.10 45.94 C 35.21 45.50 35.44 44.62 35.55 44.19 Z" />
</g>
<g id="#7f4147ff">
<path fill="#7f4147" opacity="1.00" d=" M 46.04 45.87 C 46.76 45.09 47.49 44.33 48.22 43.57 C 48.68 44.61 48.88 45.70 48.84 46.84 C 48.11 46.89 46.64 47.00 45.91 47.05 L 46.04 45.87 Z" />
</g>
<g id="#557b26ff">
<path fill="#557b26" opacity="1.00" d=" M 58.54 44.57 C 59.31 45.16 60.07 45.75 60.85 46.34 C 56.81 52.34 50.94 57.28 43.94 59.39 C 36.75 61.94 28.91 61.48 21.96 58.42 C 16.74 56.31 12.25 52.61 8.90 48.12 C 10.00 47.56 11.10 47.01 12.21 46.45 C 18.17 55.14 29.73 58.46 39.76 56.56 C 47.38 55.29 53.48 50.08 58.54 44.57 Z" />
</g>
<g id="#00010073">
<path fill="#000100" opacity="0.45" d=" M 21.96 58.42 C 28.91 61.48 36.75 61.94 43.94 59.39 C 45.21 60.82 47.16 61.04 48.88 61.54 C 45.89 61.10 42.95 61.68 40.02 62.22 C 30.38 62.60 20.67 62.66 11.15 60.97 C 14.70 59.94 18.92 60.59 21.96 58.42 Z" />
</g>
</svg>
