<?xml version="1.0" encoding="UTF-8" ?>
<!DOCTYPE svg PUBLIC "-//W3C//DTD SVG 1.1//EN" "http://www.w3.org/Graphics/SVG/1.1/DTD/svg11.dtd">
<svg width="64pt" height="64pt" viewBox="0 0 64 64" version="1.1" xmlns="http://www.w3.org/2000/svg">
<g id="#594115ba">
<path fill="#594115" opacity="0.73" d=" M 29.21 5.91 C 28.01 4.61 29.45 3.17 30.70 2.82 C 31.53 3.62 32.25 4.52 32.84 5.50 C 30.32 7.41 32.17 11.10 30.14 13.31 C 31.46 10.85 30.07 8.27 29.21 5.91 Z" />
</g>
<g id="#c9921dff">
<path fill="#c9921d" opacity="1.00" d=" M 30.14 13.31 C 32.17 11.10 30.32 7.41 32.84 5.50 C 33.07 5.90 33.55 6.69 33.79 7.08 C 32.39 9.38 34.78 11.27 35.77 13.17 C 36.42 14.42 37.08 15.66 37.75 16.90 C 37.69 17.61 37.57 19.04 37.51 19.76 C 35.52 23.05 33.76 26.84 34.30 30.78 C 38.00 29.81 38.63 24.67 38.98 21.38 L 39.97 21.15 C 40.20 21.47 40.65 22.09 40.87 22.40 C 40.71 23.05 40.40 24.35 40.24 25.00 C 39.36 28.09 37.83 30.96 37.08 34.08 C 36.69 35.46 38.25 36.30 38.87 37.33 C 38.63 37.60 38.15 38.15 37.91 38.43 C 36.11 36.71 35.34 34.22 33.51 32.49 C 33.14 28.70 29.38 25.71 30.69 21.75 C 31.30 22.75 31.92 23.75 32.56 24.73 C 34.66 21.66 37.49 17.32 34.19 14.01 C 33.13 16.10 32.28 18.28 31.24 20.38 C 30.07 18.50 30.25 16.27 30.16 14.16 L 30.14 13.31 Z" />
</g>
<g id="#d7a744ff">
<path fill="#d7a744" opacity="1.00" d=" M 35.77 13.17 C 34.78 11.27 32.39 9.38 33.79 7.08 L 34.71 7.92 C 36.35 10.07 39.50 8.85 41.68 10.17 C 42.11 10.25 42.97 10.41 43.40 10.49 L 43.64 11.14 C 43.85 11.79 44.28 13.08 44.49 13.72 C 41.59 14.54 38.68 13.38 35.77 13.17 Z" />
</g>
<g id="#37290f70">
<path fill="#37290f" opacity="0.44" d=" M 34.71 7.92 C 37.12 8.16 39.49 8.73 41.85 9.30 L 41.68 10.17 C 39.50 8.85 36.35 10.07 34.71 7.92 Z" />
</g>
<g id="#7d5d23d9">
<path fill="#7d5d23" opacity="0.85" d=" M 43.64 11.14 C 45.31 11.16 47.21 12.61 47.89 14.11 C 47.15 14.02 45.68 13.84 44.95 13.75 L 44.49 13.72 C 44.28 13.08 43.85 11.79 43.64 11.14 Z" />
</g>
<g id="#ecc04aff">
<path fill="#ecc04a" opacity="1.00" d=" M 35.77 13.17 C 38.68 13.38 41.59 14.54 44.49 13.72 L 44.95 13.75 C 46.46 15.08 48.24 16.23 49.19 18.08 C 45.34 18.08 41.59 17.08 37.75 16.90 C 37.08 15.66 36.42 14.42 35.77 13.17 Z" />
</g>
<g id="#864c0ce9">
<path fill="#864c0c" opacity="0.91" d=" M 28.75 17.55 C 29.22 16.54 28.71 14.15 30.16 14.16 C 30.25 16.27 30.07 18.50 31.24 20.38 C 31.10 20.72 30.82 21.41 30.69 21.75 C 29.38 25.71 33.14 28.70 33.51 32.49 C 35.34 34.22 36.11 36.71 37.91 38.43 C 38.15 38.15 38.63 37.60 38.87 37.33 C 40.06 33.78 44.23 30.07 41.73 26.28 L 42.25 25.98 C 42.64 26.51 43.44 27.56 43.83 28.08 C 44.06 28.60 44.52 29.62 44.74 30.13 C 45.07 30.73 45.74 31.93 46.07 32.53 C 45.08 31.95 44.09 31.39 43.09 30.83 C 42.24 34.01 39.53 36.98 40.46 40.42 C 41.40 41.28 42.64 41.39 43.82 41.64 C 46.05 43.25 48.46 44.64 50.95 45.83 C 51.81 45.44 52.69 45.27 53.58 45.33 C 53.92 45.73 54.59 46.52 54.92 46.91 C 55.45 44.83 55.20 42.67 55.58 40.58 C 56.16 43.36 56.32 46.20 56.15 49.03 C 54.99 48.97 53.83 48.95 52.69 49.20 C 48.66 45.93 43.25 44.76 39.26 41.60 C 39.80 39.54 37.83 38.57 36.06 38.94 L 35.22 38.92 L 35.13 38.02 C 35.14 36.80 34.53 36.01 33.32 35.67 C 32.52 34.91 32.09 33.97 32.04 32.85 C 32.14 31.34 31.74 29.53 30.27 28.78 C 28.66 25.42 28.49 21.29 28.75 17.55 Z" />
</g>
<g id="#e6b42aff">
<path fill="#e6b42a" opacity="1.00" d=" M 34.19 14.01 C 37.49 17.32 34.66 21.66 32.56 24.73 C 31.92 23.75 31.30 22.75 30.69 21.75 C 30.82 21.41 31.10 20.72 31.24 20.38 C 32.28 18.28 33.13 16.10 34.19 14.01 Z" />
</g>
<g id="#bf9331fd">
<path fill="#bf9331" opacity="1.00" d=" M 44.95 13.75 C 45.68 13.84 47.15 14.02 47.89 14.11 C 48.92 14.46 49.60 15.15 49.92 16.17 C 50.49 17.80 50.87 20.03 53.05 20.08 C 53.29 20.31 53.79 20.77 54.04 21.00 C 54.25 24.18 57.52 26.84 56.52 30.04 C 56.19 30.22 55.52 30.59 55.18 30.78 C 51.70 30.58 48.23 30.30 44.74 30.13 C 44.52 29.62 44.06 28.60 43.83 28.08 C 47.65 28.02 51.35 29.68 55.16 29.18 C 55.45 27.21 54.05 25.33 52.01 25.34 C 48.80 25.24 45.05 23.79 42.25 25.98 L 41.73 26.28 C 41.36 25.96 40.61 25.32 40.24 25.00 C 40.40 24.35 40.71 23.05 40.87 22.40 C 44.93 22.70 48.91 24.02 53.00 23.80 C 53.44 22.30 52.01 20.88 50.74 20.30 C 47.03 19.15 43.09 19.18 39.24 18.94 C 39.43 19.49 39.79 20.60 39.97 21.15 L 38.98 21.38 C 38.61 20.98 37.88 20.16 37.51 19.76 C 37.57 19.04 37.69 17.61 37.75 16.90 C 41.59 17.08 45.34 18.08 49.19 18.08 C 48.24 16.23 46.46 15.08 44.95 13.75 Z" />
</g>
<g id="#674c1abd">
<path fill="#674c1a" opacity="0.74" d=" M 49.92 16.17 C 51.26 15.95 53.23 18.84 53.05 20.08 C 50.87 20.03 50.49 17.80 49.92 16.17 Z" />
</g>
<g id="#864f0eed">
<path fill="#864f0e" opacity="0.93" d=" M 17.95 23.23 C 20.77 22.60 19.82 17.47 23.08 18.12 C 23.40 20.18 22.48 22.24 23.03 24.32 C 22.69 24.17 22.00 23.85 21.66 23.70 C 21.60 24.05 21.50 24.75 21.45 25.10 C 20.92 25.34 19.86 25.83 19.33 26.07 C 19.47 25.66 19.74 24.83 19.87 24.42 C 18.87 22.84 17.34 24.85 16.28 25.31 C 13.84 27.69 10.69 29.97 10.22 33.58 C 8.71 36.07 8.41 38.94 8.13 41.77 C 11.23 41.24 14.63 40.26 16.76 37.79 C 16.82 38.27 16.95 39.24 17.02 39.72 C 16.61 40.70 16.22 41.69 15.85 42.68 C 15.46 45.47 14.57 48.16 13.73 50.83 L 13.12 50.52 C 13.68 47.29 14.97 44.19 15.24 40.91 C 12.76 41.35 7.95 42.19 8.89 45.67 L 7.51 45.74 C 5.27 40.68 7.42 35.24 9.77 30.66 C 11.76 27.52 14.34 24.52 17.95 23.23 Z" />
</g>
<g id="#e7bf3fff">
<path fill="#e7bf3f" opacity="1.00" d=" M 39.24 18.94 C 43.09 19.18 47.03 19.15 50.74 20.30 C 52.01 20.88 53.44 22.30 53.00 23.80 C 48.91 24.02 44.93 22.70 40.87 22.40 C 40.65 22.09 40.20 21.47 39.97 21.15 C 39.79 20.60 39.43 19.49 39.24 18.94 Z" />
</g>
<g id="#dfaa20ff">
<path fill="#dfaa20" opacity="1.00" d=" M 34.30 30.78 C 33.76 26.84 35.52 23.05 37.51 19.76 C 37.88 20.16 38.61 20.98 38.98 21.38 C 38.63 24.67 38.00 29.81 34.30 30.78 Z" />
</g>
<g id="#603d0cc2">
<path fill="#603d0c" opacity="0.76" d=" M 54.04 21.00 C 59.05 26.49 57.50 34.37 56.91 41.08 C 56.22 45.33 57.08 49.59 57.86 53.76 C 56.21 52.15 54.37 50.76 52.69 49.20 C 53.83 48.95 54.99 48.97 56.15 49.03 C 56.32 46.20 56.16 43.36 55.58 40.58 C 56.55 37.40 56.85 33.97 56.47 30.67 L 55.18 30.78 C 55.52 30.59 56.19 30.22 56.52 30.04 C 57.52 26.84 54.25 24.18 54.04 21.00 Z" />
</g>
<g id="#8e1c03ff">
<path fill="#8e1c03" opacity="1.00" d=" M 21.45 25.10 C 21.50 24.75 21.60 24.05 21.66 23.70 C 22.00 23.85 22.69 24.17 23.03 24.32 C 27.49 28.37 27.22 35.30 26.40 40.83 C 25.81 46.09 21.59 49.73 17.64 52.73 C 14.80 54.86 12.75 57.80 10.86 60.75 C 11.35 55.46 9.19 50.61 7.51 45.74 L 8.89 45.67 C 10.95 48.19 10.19 53.06 13.95 53.88 C 16.37 51.45 18.93 49.15 21.31 46.69 C 24.63 44.52 24.82 40.25 25.71 36.77 C 26.17 35.48 25.84 34.17 25.36 32.96 C 24.14 30.68 23.47 27.95 21.42 26.24 C 20.66 26.91 19.96 27.63 19.31 28.41 C 19.30 29.16 19.28 30.68 19.27 31.43 C 19.02 31.16 18.50 30.62 18.25 30.35 C 18.84 28.99 19.00 27.50 19.33 26.07 C 19.86 25.83 20.92 25.34 21.45 25.10 Z" />
</g>
<g id="#d78a18ff">
<path fill="#d78a18" opacity="1.00" d=" M 16.28 25.31 C 17.34 24.85 18.87 22.84 19.87 24.42 C 19.74 24.83 19.47 25.66 19.33 26.07 C 19.00 27.50 18.84 28.99 18.25 30.35 C 17.06 32.64 16.42 35.20 16.76 37.79 C 14.63 40.26 11.23 41.24 8.13 41.77 C 8.41 38.94 8.71 36.07 10.22 33.58 C 10.69 29.97 13.84 27.69 16.28 25.31 Z" />
</g>
<g id="#dea41eff">
<path fill="#dea41e" opacity="1.00" d=" M 40.24 25.00 C 40.61 25.32 41.36 25.96 41.73 26.28 C 44.23 30.07 40.06 33.78 38.87 37.33 C 38.25 36.30 36.69 35.46 37.08 34.08 C 37.83 30.96 39.36 28.09 40.24 25.00 Z" />
</g>
<g id="#ebc146ff">
<path fill="#ebc146" opacity="1.00" d=" M 42.25 25.98 C 45.05 23.79 48.80 25.24 52.01 25.34 C 54.05 25.33 55.45 27.21 55.16 29.18 C 51.35 29.68 47.65 28.02 43.83 28.08 C 43.44 27.56 42.64 26.51 42.25 25.98 Z" />
</g>
<g id="#dd931aff">
<path fill="#dd931a" opacity="1.00" d=" M 19.31 28.41 C 19.96 27.63 20.66 26.91 21.42 26.24 C 23.47 27.95 24.14 30.68 25.36 32.96 C 25.19 33.59 24.86 34.86 24.69 35.49 C 24.22 35.38 23.28 35.17 22.82 35.07 C 23.42 36.99 23.79 38.98 23.61 41.00 C 23.15 40.34 22.23 39.01 21.77 38.34 C 20.03 36.40 18.84 34.14 19.27 31.43 C 19.28 30.68 19.30 29.16 19.31 28.41 Z" />
</g>
<g id="#381601a4">
<path fill="#381601" opacity="0.64" d=" M 30.27 28.78 C 31.74 29.53 32.14 31.34 32.04 32.85 C 30.64 32.92 29.73 29.87 30.27 28.78 Z" />
</g>
<g id="#d28014ff">
<path fill="#d28014" opacity="1.00" d=" M 18.25 30.35 C 18.50 30.62 19.02 31.16 19.27 31.43 C 18.84 34.14 20.03 36.40 21.77 38.34 C 19.50 40.46 24.29 42.73 21.91 44.88 C 20.25 43.19 18.69 41.41 17.02 39.72 C 16.95 39.24 16.82 38.27 16.76 37.79 C 16.42 35.20 17.06 32.64 18.25 30.35 Z" />
</g>
<g id="#eebd44ff">
<path fill="#eebd44" opacity="1.00" d=" M 44.74 30.13 C 48.23 30.30 51.70 30.58 55.18 30.78 C 55.11 32.07 55.00 33.36 54.85 34.65 C 51.76 35.28 48.69 34.08 46.07 32.53 C 45.74 31.93 45.07 30.73 44.74 30.13 Z" />
</g>
<g id="#e1a424ff">
<path fill="#e1a424" opacity="1.00" d=" M 43.09 30.83 C 44.09 31.39 45.08 31.95 46.07 32.53 C 48.69 34.08 51.76 35.28 54.85 34.65 C 55.00 33.36 55.11 32.07 55.18 30.78 L 56.47 30.67 C 56.85 33.97 56.55 37.40 55.58 40.58 C 55.20 42.67 55.45 44.83 54.92 46.91 C 54.59 46.52 53.92 45.73 53.58 45.33 C 52.69 45.27 51.81 45.44 50.95 45.83 C 48.46 44.64 46.05 43.25 43.82 41.64 C 42.64 41.39 41.40 41.28 40.46 40.42 C 39.53 36.98 42.24 34.01 43.09 30.83 M 49.13 39.21 C 48.47 40.20 49.49 42.42 50.79 41.71 C 51.54 40.75 50.31 38.70 49.13 39.21 Z" />
</g>
<g id="#b3550bff">
<path fill="#b3550b" opacity="1.00" d=" M 25.36 32.96 C 25.84 34.17 26.17 35.48 25.71 36.77 C 24.82 40.25 24.63 44.52 21.31 46.69 C 19.56 45.44 18.54 41.19 15.85 42.68 C 16.22 41.69 16.61 40.70 17.02 39.72 C 18.69 41.41 20.25 43.19 21.91 44.88 C 24.29 42.73 19.50 40.46 21.77 38.34 C 22.23 39.01 23.15 40.34 23.61 41.00 C 23.79 38.98 23.42 36.99 22.82 35.07 C 23.28 35.17 24.22 35.38 24.69 35.49 C 24.86 34.86 25.19 33.59 25.36 32.96 Z" />
</g>
<g id="#3c1501b3">
<path fill="#3c1501" opacity="0.70" d=" M 33.32 35.67 C 34.53 36.01 35.14 36.80 35.13 38.02 C 33.78 38.06 33.18 37.27 33.32 35.67 Z" />
</g>
<g id="#4e2103cf">
<path fill="#4e2103" opacity="0.81" d=" M 36.06 38.94 C 37.83 38.57 39.80 39.54 39.26 41.60 C 37.87 41.77 36.83 40.24 35.75 39.53 L 36.06 38.94 Z" />
</g>
<g id="#9a6415ff">
<path fill="#9a6415" opacity="1.00" d=" M 49.13 39.21 C 50.31 38.70 51.54 40.75 50.79 41.71 C 49.49 42.42 48.47 40.20 49.13 39.21 Z" />
</g>
<g id="#db7111ff">
<path fill="#db7111" opacity="1.00" d=" M 8.89 45.67 C 7.95 42.19 12.76 41.35 15.24 40.91 C 14.97 44.19 13.68 47.29 13.12 50.52 L 13.73 50.83 C 14.57 48.16 15.46 45.47 15.85 42.68 C 18.54 41.19 19.56 45.44 21.31 46.69 C 18.93 49.15 16.37 51.45 13.95 53.88 C 10.19 53.06 10.95 48.19 8.89 45.67 Z" />
</g>
</svg>
