<?xml version="1.0" encoding="UTF-8" ?>
<!DOCTYPE svg PUBLIC "-//W3C//DTD SVG 1.1//EN" "http://www.w3.org/Graphics/SVG/1.1/DTD/svg11.dtd">
<svg width="64pt" height="64pt" viewBox="0 0 64 64" version="1.1" xmlns="http://www.w3.org/2000/svg">
<g id="#c5b170ff">
<path fill="#c5b170" opacity="1.00" d=" M 6.56 11.33 C 7.25 8.72 8.84 6.15 11.41 5.06 L 12.28 5.96 C 12.88 12.37 11.50 19.01 13.67 25.21 C 14.63 28.81 15.81 32.39 17.82 35.55 C 19.15 35.30 20.48 35.00 21.79 34.65 L 22.23 35.36 C 21.81 36.32 21.38 37.28 20.93 38.24 L 20.41 38.97 C 20.33 38.37 20.18 37.16 20.10 36.56 C 16.60 36.20 13.06 36.48 9.62 37.16 C 5.17 29.45 3.75 19.86 6.56 11.33 Z" />
</g>
<g id="#e1d8a5ff">
<path fill="#e1d8a5" opacity="1.00" d=" M 11.41 5.06 C 13.58 4.80 15.98 4.82 17.54 6.60 C 20.16 9.79 20.97 13.91 22.18 17.74 C 23.44 22.25 25.44 26.58 28.12 30.43 C 27.88 31.00 27.42 32.12 27.18 32.69 C 22.91 27.04 20.34 20.40 18.39 13.65 C 17.57 10.28 14.51 8.35 12.28 5.96 L 11.41 5.06 Z" />
</g>
<g id="#f7f5aaff">
<path fill="#f7f5aa" opacity="1.00" d=" M 12.28 5.96 C 14.51 8.35 17.57 10.28 18.39 13.65 C 20.34 20.40 22.91 27.04 27.18 32.69 C 27.06 32.95 26.82 33.46 26.70 33.72 C 25.07 34.06 23.41 34.25 21.79 34.65 C 20.48 35.00 19.15 35.30 17.82 35.55 C 15.81 32.39 14.63 28.81 13.67 25.21 C 11.50 19.01 12.88 12.37 12.28 5.96 Z" />
</g>
<g id="#edd97aff">
<path fill="#edd97a" opacity="1.00" d=" M 28.35 29.89 C 31.63 29.08 35.22 27.79 38.27 30.03 C 34.90 28.72 31.27 29.17 28.07 30.69 C 31.92 35.69 37.17 39.45 42.54 42.71 C 43.87 43.59 45.31 44.31 46.80 44.88 C 50.70 46.67 54.86 47.80 58.87 49.20 C 54.92 49.91 51.14 48.10 47.59 46.63 C 45.38 45.47 43.14 44.37 40.80 43.52 C 41.77 45.05 42.85 46.51 43.83 48.03 C 38.30 46.88 33.50 43.74 29.54 39.81 C 30.69 39.10 31.83 38.36 32.94 37.60 C 31.92 35.96 30.60 34.50 29.06 33.35 C 26.81 34.57 24.27 34.50 21.79 34.65 C 23.41 34.25 25.07 34.06 26.70 33.72 C 26.82 33.46 27.06 32.95 27.18 32.69 C 27.42 32.12 27.88 31.00 28.12 30.43 L 28.35 29.89 Z" />
</g>
<g id="#b08a2cff">
<path fill="#b08a2c" opacity="1.00" d=" M 28.07 30.69 C 31.27 29.17 34.90 28.72 38.27 30.03 C 38.92 30.30 39.50 30.67 40.02 31.14 C 38.98 32.45 37.90 33.71 36.95 35.08 C 38.70 37.71 41.46 39.64 42.54 42.71 C 37.17 39.45 31.92 35.69 28.07 30.69 Z" />
</g>
<g id="#cbad43ff">
<path fill="#cbad43" opacity="1.00" d=" M 40.02 31.14 C 44.18 34.41 47.30 39.42 46.80 44.88 C 45.31 44.31 43.87 43.59 42.54 42.71 C 41.46 39.64 38.70 37.71 36.95 35.08 C 37.90 33.71 38.98 32.45 40.02 31.14 Z" />
</g>
<g id="#e2bd46ff">
<path fill="#e2bd46" opacity="1.00" d=" M 21.79 34.65 C 24.27 34.50 26.81 34.57 29.06 33.35 C 30.60 34.50 31.92 35.96 32.94 37.60 C 31.83 38.36 30.69 39.10 29.54 39.81 C 27.73 38.75 26.01 37.55 24.22 36.47 C 24.12 36.80 23.92 37.45 23.82 37.77 C 23.28 36.97 22.75 36.17 22.23 35.36 L 21.79 34.65 Z" />
</g>
<g id="#b39434ff">
<path fill="#b39434" opacity="1.00" d=" M 22.23 35.36 C 22.75 36.17 23.28 36.97 23.82 37.77 C 28.28 45.03 35.80 49.80 43.82 52.28 C 48.41 53.93 53.34 53.64 58.14 53.71 C 54.66 55.42 50.71 54.42 47.01 54.53 C 43.27 54.23 39.67 55.95 35.93 55.32 C 31.15 54.35 26.01 53.05 22.53 49.39 C 22.00 46.22 23.05 43.12 23.52 40.03 C 22.87 39.58 21.58 38.69 20.93 38.24 C 21.38 37.28 21.81 36.32 22.23 35.36 Z" />
</g>
<g id="#e7cc56ff">
<path fill="#e7cc56" opacity="1.00" d=" M 24.22 36.47 C 26.01 37.55 27.73 38.75 29.54 39.81 C 33.50 43.74 38.30 46.88 43.83 48.03 C 42.85 46.51 41.77 45.05 40.80 43.52 C 43.14 44.37 45.38 45.47 47.59 46.63 C 47.66 48.34 47.77 50.07 47.56 51.79 C 46.32 52.02 45.07 52.18 43.82 52.28 C 35.80 49.80 28.28 45.03 23.82 37.77 C 23.92 37.45 24.12 36.80 24.22 36.47 Z" />
</g>
<g id="#e6dda2ff">
<path fill="#e6dda2" opacity="1.00" d=" M 9.62 37.16 C 13.06 36.48 16.60 36.20 20.10 36.56 C 20.18 37.16 20.33 38.37 20.41 38.97 C 19.85 39.70 19.29 40.44 18.74 41.17 C 14.49 41.15 10.05 42.03 5.99 40.33 C 6.47 39.65 7.44 38.28 7.92 37.59 C 8.34 37.48 9.19 37.27 9.62 37.16 Z" />
</g>
<g id="#89651eff">
<path fill="#89651e" opacity="1.00" d=" M 20.41 38.97 L 20.93 38.24 C 21.58 38.69 22.87 39.58 23.52 40.03 C 23.05 43.12 22.00 46.22 22.53 49.39 C 26.01 53.05 31.15 54.35 35.93 55.32 C 39.67 55.95 43.27 54.23 47.01 54.53 C 50.71 54.42 54.66 55.42 58.14 53.71 C 59.33 53.23 60.53 52.73 61.71 52.22 C 61.72 57.25 55.20 58.91 51.15 59.40 C 44.85 60.06 38.48 59.51 32.55 57.21 C 26.99 55.39 22.07 51.98 17.86 47.96 C 17.71 51.56 19.13 54.88 19.75 58.35 C 19.55 59.07 19.34 59.78 19.11 60.49 C 17.70 62.02 15.48 62.18 13.68 61.30 C 15.06 60.90 16.89 61.19 17.82 59.84 C 19.59 57.75 17.90 55.11 17.45 52.85 C 17.36 51.00 17.35 49.15 17.32 47.31 C 17.24 45.15 17.83 43.11 18.74 41.17 C 19.29 40.44 19.85 39.70 20.41 38.97 Z" />
</g>
<g id="#d1c077ff">
<path fill="#d1c077" opacity="1.00" d=" M 5.08 45.19 C 5.10 43.52 5.41 41.89 5.99 40.33 C 10.05 42.03 14.49 41.15 18.74 41.17 C 17.83 43.11 17.24 45.15 17.32 47.31 C 13.16 47.16 9.21 45.61 5.08 45.19 Z" />
</g>
<g id="#ac914dff">
<path fill="#ac914d" opacity="1.00" d=" M 5.08 45.19 C 9.21 45.61 13.16 47.16 17.32 47.31 C 17.35 49.15 17.36 51.00 17.45 52.85 C 13.52 53.60 9.56 52.97 5.70 52.16 C 5.00 49.93 5.02 47.52 5.08 45.19 Z" />
</g>
<g id="#d6b647ff">
<path fill="#d6b647" opacity="1.00" d=" M 47.59 46.63 C 51.14 48.10 54.92 49.91 58.87 49.20 C 60.14 49.81 61.13 50.96 61.71 52.22 C 60.53 52.73 59.33 53.23 58.14 53.71 C 53.34 53.64 48.41 53.93 43.82 52.28 C 45.07 52.18 46.32 52.02 47.56 51.79 C 47.77 50.07 47.66 48.34 47.59 46.63 Z" />
</g>
<g id="#bca45bff">
<path fill="#bca45b" opacity="1.00" d=" M 5.70 52.16 C 9.56 52.97 13.52 53.60 17.45 52.85 C 17.90 55.11 19.59 57.75 17.82 59.84 C 16.89 61.19 15.06 60.90 13.68 61.30 C 10.12 59.29 7.08 56.06 5.70 52.16 Z" />
</g>
<g id="#00000046">
<path fill="#000000" opacity="0.27" d=" M 32.55 57.21 C 38.48 59.51 44.85 60.06 51.15 59.40 C 51.13 60.79 50.45 61.45 49.11 61.38 C 44.09 61.66 39.07 61.65 34.05 61.49 C 29.07 61.23 24.00 61.75 19.11 60.49 C 19.34 59.78 19.55 59.07 19.75 58.35 C 24.05 58.53 28.36 58.24 32.55 57.21 Z" />
</g>
</svg>
