<?xml version="1.0" encoding="UTF-8" ?>
<!DOCTYPE svg PUBLIC "-//W3C//DTD SVG 1.1//EN" "http://www.w3.org/Graphics/SVG/1.1/DTD/svg11.dtd">
<svg width="64pt" height="64pt" viewBox="0 0 64 64" version="1.1" xmlns="http://www.w3.org/2000/svg">
<g id="#837f18f9">
<path fill="#837f18" opacity="0.98" d=" M 22.26 2.29 C 24.50 1.13 21.09 5.99 23.00 6.16 C 24.54 7.30 25.78 5.81 27.01 5.00 C 26.71 6.35 26.26 7.67 26.00 9.03 C 28.85 9.56 28.80 5.74 30.99 4.88 C 29.54 7.88 32.05 9.09 31.16 11.82 C 32.08 12.93 33.54 12.91 34.83 13.19 C 33.19 16.19 32.17 20.88 35.97 22.61 C 35.44 22.89 34.38 23.47 33.85 23.76 C 45.30 24.19 52.73 34.48 56.99 44.07 C 58.33 52.37 50.56 61.08 41.99 60.01 C 35.88 60.74 31.77 54.59 28.95 50.03 C 25.52 46.08 25.19 40.80 24.16 35.92 C 25.92 26.69 23.67 31.33 22.16 33.09 C 22.07 31.78 21.95 30.47 21.81 29.16 C 19.25 27.41 16.57 29.70 13.93 30.02 C 15.07 27.83 17.30 26.39 18.14 24.07 C 16.70 24.65 15.31 25.35 13.87 25.94 C 13.99 24.01 16.05 23.55 17.13 22.26 C 13.95 21.39 10.75 20.84 7.91 22.94 C 7.72 21.08 8.80 19.62 9.88 18.25 C 8.22 18.25 8.19 17.33 8.78 16.08 C 7.47 16.00 6.15 15.93 4.84 15.86 C 6.43 13.91 9.75 14.59 11.08 12.26 C 10.57 12.15 9.53 11.93 9.02 11.82 C 10.68 9.68 13.21 8.00 16.03 8.67 C 15.79 6.72 15.10 4.85 14.98 2.88 C 16.76 4.10 18.13 5.81 19.88 7.06 C 20.88 5.55 20.82 3.50 22.26 2.29 Z" />
</g>
</svg>
