<?xml version="1.0" encoding="UTF-8" ?>
<!DOCTYPE svg PUBLIC "-//W3C//DTD SVG 1.1//EN" "http://www.w3.org/Graphics/SVG/1.1/DTD/svg11.dtd">
<svg width="64pt" height="64pt" viewBox="0 0 64 64" version="1.1" xmlns="http://www.w3.org/2000/svg">
<g id="#d25119ff">
<path fill="#d25119" opacity="1.00" d=" M 32.00 3.17 C 34.97 9.55 39.02 15.71 39.58 22.91 C 39.65 25.70 40.36 28.61 39.53 31.33 L 39.08 32.63 C 38.36 29.10 37.76 25.55 37.54 21.95 C 37.43 18.75 36.47 15.67 35.35 12.70 C 34.53 10.31 33.25 8.12 31.97 5.95 C 29.13 10.37 27.41 15.42 26.93 20.65 C 26.70 22.37 26.55 24.09 26.37 25.81 C 25.92 27.80 25.20 29.71 24.54 31.63 C 24.65 24.88 25.29 18.05 27.80 11.72 C 29.09 8.81 30.68 6.06 32.00 3.17 Z" />
<path fill="#d25119" opacity="1.00" d=" M 9.17 28.53 C 12.84 31.18 14.39 35.73 17.81 38.67 C 18.74 39.71 19.64 40.78 20.54 41.85 C 19.97 43.41 19.42 44.99 18.85 46.56 C 19.53 47.50 20.21 48.44 20.89 49.38 C 24.96 49.34 29.04 49.21 33.07 49.88 C 31.93 50.44 30.81 51.05 29.74 51.73 L 28.95 51.30 C 28.63 51.14 28.00 50.82 27.69 50.65 C 25.49 51.09 23.30 51.80 21.03 51.72 C 17.14 51.72 13.71 49.65 10.36 47.94 C 9.39 47.34 8.55 46.57 7.66 45.87 C 10.63 45.79 13.60 45.71 16.56 45.42 L 17.50 44.49 C 18.26 43.71 18.94 42.85 19.64 42.03 C 13.75 39.87 11.87 33.54 9.17 28.53 Z" />
</g>
<g id="#ffb38cff">
<path fill="#ffb38c" opacity="1.00" d=" M 26.93 20.65 C 27.41 15.42 29.13 10.37 31.97 5.95 C 33.25 8.12 34.53 10.31 35.35 12.70 C 35.03 16.14 37.00 20.71 33.75 23.16 C 33.50 20.91 33.30 18.64 32.97 16.39 C 31.02 17.88 30.86 20.37 30.37 22.59 C 29.23 21.94 28.08 21.30 26.93 20.65 Z" />
</g>
<g id="#7f391ac8">
<path fill="#7f391a" opacity="0.78" d=" M 23.82 31.65 C 23.63 24.85 24.27 17.70 27.80 11.72 C 25.29 18.05 24.65 24.88 24.54 31.63 L 24.49 32.68 C 23.22 32.13 21.95 31.55 20.68 30.97 C 16.28 28.20 11.99 25.23 7.20 23.15 C 13.48 24.15 18.58 28.36 23.82 31.65 Z" />
</g>
<g id="#fc9b7cff">
<path fill="#fc9b7c" opacity="1.00" d=" M 35.35 12.70 C 36.47 15.67 37.43 18.75 37.54 21.95 C 37.43 24.88 36.06 27.47 33.67 29.15 C 33.63 27.32 33.60 25.50 33.59 23.68 C 32.92 23.65 31.58 23.59 30.91 23.55 C 30.78 25.27 30.67 27.00 30.55 28.72 C 29.16 27.74 27.77 26.77 26.37 25.81 C 26.55 24.09 26.70 22.37 26.93 20.65 C 28.08 21.30 29.23 21.94 30.37 22.59 C 30.86 20.37 31.02 17.88 32.97 16.39 C 33.30 18.64 33.50 20.91 33.75 23.16 C 37.00 20.71 35.03 16.14 35.35 12.70 Z" />
</g>
<g id="#f27a6dff">
<path fill="#f27a6d" opacity="1.00" d=" M 37.54 21.95 C 37.76 25.55 38.36 29.10 39.08 32.63 C 38.65 34.30 38.41 36.05 37.66 37.63 C 36.54 38.75 34.96 39.23 33.57 39.96 C 33.38 36.18 33.64 32.25 32.07 28.69 C 31.11 32.40 31.01 36.24 30.55 40.02 C 27.11 39.05 25.56 35.81 24.49 32.68 L 24.54 31.63 C 25.20 29.71 25.92 27.80 26.37 25.81 C 27.77 26.77 29.16 27.74 30.55 28.72 C 30.67 27.00 30.78 25.27 30.91 23.55 C 31.58 23.59 32.92 23.65 33.59 23.68 C 33.60 25.50 33.63 27.32 33.67 29.15 C 36.06 27.47 37.43 24.88 37.54 21.95 Z" />
</g>
<g id="#fe803fff">
<path fill="#fe803f" opacity="1.00" d=" M 2.93 22.44 C 4.41 22.42 5.83 22.66 7.20 23.15 C 11.99 25.23 16.28 28.20 20.68 30.97 C 19.13 33.34 18.36 36.08 18.36 38.91 L 17.81 38.67 C 14.39 35.73 12.84 31.18 9.17 28.53 C 6.98 26.61 5.13 24.34 2.93 22.44 Z" />
</g>
<g id="#fb7f3eff">
<path fill="#fb7f3e" opacity="1.00" d=" M 41.29 31.43 C 47.18 27.23 53.61 22.87 61.05 22.43 C 58.88 24.37 57.02 26.62 54.83 28.54 C 51.16 31.18 49.73 35.79 46.20 38.61 L 45.50 38.91 C 43.94 36.50 42.80 33.86 41.29 31.43 Z" />
</g>
<g id="#d25118ff">
<path fill="#d25118" opacity="1.00" d=" M 46.20 38.61 C 49.73 35.79 51.16 31.18 54.83 28.54 C 52.13 33.51 50.28 39.84 44.42 41.99 C 44.77 42.48 45.48 43.47 45.84 43.96 C 46.09 44.27 46.60 44.90 46.85 45.21 C 49.70 45.83 52.58 46.29 55.46 46.75 C 54.96 47.07 53.96 47.71 53.46 48.03 C 48.73 51.07 43.13 52.56 37.57 51.20 L 38.71 49.64 C 40.57 49.51 42.44 49.48 44.32 49.46 C 45.60 46.91 44.43 44.26 43.59 41.80 C 44.44 40.72 45.29 39.64 46.20 38.61 Z" />
</g>
<g id="#e96655ff">
<path fill="#e96655" opacity="1.00" d=" M 30.55 40.02 C 31.01 36.24 31.11 32.40 32.07 28.69 C 33.64 32.25 33.38 36.18 33.57 39.96 C 34.96 39.23 36.54 38.75 37.66 37.63 C 38.41 36.05 38.65 34.30 39.08 32.63 L 39.53 31.33 L 41.29 31.43 C 42.80 33.86 43.94 36.50 45.50 38.91 C 44.29 39.38 43.08 39.84 41.86 40.30 C 41.70 41.84 41.57 43.38 41.41 44.92 C 37.92 44.50 35.00 42.52 32.16 40.61 C 29.29 42.72 26.20 44.67 22.56 44.96 C 22.43 43.41 22.30 41.86 22.17 40.31 C 20.90 39.85 19.62 39.39 18.36 38.91 C 18.36 36.08 19.13 33.34 20.68 30.97 C 21.95 31.55 23.22 32.13 24.49 32.68 C 25.56 35.81 27.11 39.05 30.55 40.02 Z" />
</g>
<g id="#db563eff">
<path fill="#db563e" opacity="1.00" d=" M 17.81 38.67 L 18.36 38.91 C 19.62 39.39 20.90 39.85 22.17 40.31 C 22.30 41.86 22.43 43.41 22.56 44.96 C 26.20 44.67 29.29 42.72 32.16 40.61 C 35.00 42.52 37.92 44.50 41.41 44.92 C 41.57 43.38 41.70 41.84 41.86 40.30 C 43.08 39.84 44.29 39.38 45.50 38.91 L 46.20 38.61 C 45.29 39.64 44.44 40.72 43.59 41.80 C 44.43 44.26 45.60 46.91 44.32 49.46 C 42.44 49.48 40.57 49.51 38.71 49.64 C 36.83 49.73 34.95 49.84 33.07 49.88 C 29.04 49.21 24.96 49.34 20.89 49.38 C 20.21 48.44 19.53 47.50 18.85 46.56 C 19.42 44.99 19.97 43.41 20.54 41.85 C 19.64 40.78 18.74 39.71 17.81 38.67 Z" />
</g>
<g id="#6d2c0ec6">
<path fill="#6d2c0e" opacity="0.78" d=" M 6.51 44.48 C 10.16 44.93 13.86 45.13 17.50 44.49 L 16.56 45.42 C 13.60 45.71 10.63 45.79 7.66 45.87 C 7.38 45.52 6.80 44.83 6.51 44.48 Z" />
</g>
<g id="#6c2c0ec7">
<path fill="#6c2c0e" opacity="0.78" d=" M 45.84 43.96 C 49.60 45.57 53.71 44.73 57.65 44.56 C 56.98 45.30 56.50 46.45 55.46 46.75 C 52.58 46.29 49.70 45.83 46.85 45.21 C 46.60 44.90 46.09 44.27 45.84 43.96 Z" />
</g>
<g id="#581d03ff">
<path fill="#581d03" opacity="1.00" d=" M 10.36 47.94 C 13.71 49.65 17.14 51.72 21.03 51.72 C 23.30 51.80 25.49 51.09 27.69 50.65 C 28.00 50.82 28.63 51.14 28.95 51.30 C 25.85 52.67 22.43 53.83 19.02 53.05 C 15.75 52.14 12.90 50.13 10.36 47.94 Z" />
<path fill="#581d03" opacity="1.00" d=" M 37.57 51.20 C 43.13 52.56 48.73 51.07 53.46 48.03 C 50.26 50.79 46.41 53.58 41.97 53.27 C 39.58 53.20 37.37 52.22 35.17 51.38 C 35.97 51.30 36.77 51.24 37.57 51.20 Z" />
<path fill="#581d03" opacity="1.00" d=" M 29.10 52.55 C 30.66 53.41 32.41 53.77 34.16 53.44 C 33.87 55.91 33.54 58.38 33.27 60.86 C 32.65 60.81 31.42 60.71 30.81 60.66 C 30.22 57.96 30.41 55.07 29.10 52.55 Z" />
</g>
<g id="#a23c17fe">
<path fill="#a23c17" opacity="1.00" d=" M 33.07 49.88 C 34.95 49.84 36.83 49.73 38.71 49.64 L 37.57 51.20 C 36.77 51.24 35.97 51.30 35.17 51.38 C 34.92 51.89 34.41 52.92 34.16 53.44 C 32.41 53.77 30.66 53.41 29.10 52.55 L 29.74 51.73 C 30.81 51.05 31.93 50.44 33.07 49.88 Z" />
</g>
</svg>
