<?xml version="1.0" encoding="UTF-8" ?>
<!DOCTYPE svg PUBLIC "-//W3C//DTD SVG 1.1//EN" "http://www.w3.org/Graphics/SVG/1.1/DTD/svg11.dtd">
<svg width="64pt" height="64pt" viewBox="0 0 64 64" version="1.1" xmlns="http://www.w3.org/2000/svg">
<g id="#63d23dfd">
<path fill="#63d23d" opacity="1.00" d=" M 12.73 9.65 C 14.95 7.52 15.62 3.66 19.05 3.04 C 22.99 3.69 28.06 3.92 30.05 7.96 C 32.46 12.12 30.03 18.10 33.13 21.90 C 33.60 21.70 34.55 21.30 35.03 21.10 C 37.74 19.58 35.33 14.71 35.99 11.99 C 33.96 3.69 47.80 -0.43 50.05 7.96 C 51.80 11.84 57.31 12.06 59.15 15.93 C 58.98 17.85 59.42 20.41 57.04 21.05 C 51.79 24.30 42.15 18.64 38.65 24.75 C 38.43 25.24 37.97 26.22 37.75 26.71 C 37.52 28.24 37.05 31.30 36.82 32.83 C 33.50 31.64 30.21 32.53 27.05 33.76 C 26.03 31.59 26.56 29.19 26.18 26.91 C 25.94 26.38 25.47 25.31 25.23 24.77 C 20.34 19.45 11.34 24.85 6.23 19.80 C 4.57 18.74 5.14 16.59 4.83 14.94 C 6.51 12.06 9.54 10.37 12.73 9.65 Z" />
</g>
<g id="#146012bd">
<path fill="#146012" opacity="0.74" d=" M 35.03 21.10 C 35.84 18.67 33.52 13.02 35.99 11.99 C 35.33 14.71 37.74 19.58 35.03 21.10 Z" />
</g>
<g id="#199b21f8">
<path fill="#199b21" opacity="0.97" d=" M 9.98 25.01 C 5.30 25.10 0.88 18.36 4.83 14.94 C 5.14 16.59 4.57 18.74 6.23 19.80 C 11.34 24.85 20.34 19.45 25.23 24.77 C 20.15 24.91 15.07 25.03 9.98 25.01 Z" />
</g>
<g id="#1ea123fa">
<path fill="#1ea123" opacity="0.98" d=" M 59.15 15.93 C 63.52 19.31 58.84 25.96 54.02 25.03 C 48.89 24.97 43.77 25.14 38.65 24.75 C 42.15 18.64 51.79 24.30 57.04 21.05 C 59.42 20.41 58.98 17.85 59.15 15.93 Z" />
</g>
<g id="#0b360a96">
<path fill="#0b360a" opacity="0.59" d=" M 9.98 25.01 C 15.07 25.03 20.15 24.91 25.23 24.77 C 25.47 25.31 25.94 26.38 26.18 26.91 L 25.43 26.81 C 20.33 26.05 15.19 25.76 10.02 25.96 L 9.98 25.01 Z" />
</g>
<g id="#0a340996">
<path fill="#0a3409" opacity="0.59" d=" M 37.75 26.71 C 37.97 26.22 38.43 25.24 38.65 24.75 C 43.77 25.14 48.89 24.97 54.02 25.03 L 53.98 25.97 C 48.83 25.86 43.69 26.08 38.58 26.64 L 37.75 26.71 Z" />
</g>
<g id="#4bb232fe">
<path fill="#4bb232" opacity="1.00" d=" M 25.43 26.81 L 26.18 26.91 C 26.56 29.19 26.03 31.59 27.05 33.76 C 30.21 32.53 33.50 31.64 36.82 32.83 C 37.05 31.30 37.52 28.24 37.75 26.71 L 38.58 26.64 C 38.93 27.24 39.64 28.43 39.99 29.03 C 43.02 30.20 46.42 30.28 50.22 29.27 C 51.90 29.20 55.28 29.06 56.96 28.99 C 59.28 29.52 60.01 32.97 60.24 35.13 C 59.74 41.26 53.27 43.56 49.32 47.33 C 44.92 49.16 38.05 47.29 37.13 41.91 C 36.12 40.24 36.77 36.71 34.10 36.93 C 33.76 37.13 33.09 37.51 32.75 37.70 C 31.60 40.53 31.51 44.39 32.71 47.31 C 34.30 50.33 35.10 53.75 37.14 56.53 C 35.51 58.67 33.66 57.50 32.10 55.94 C 31.54 54.17 30.89 52.44 30.18 50.73 C 30.07 47.80 29.99 44.88 29.93 41.96 C 29.52 40.37 32.18 35.93 29.13 37.11 C 26.77 38.97 23.64 40.83 24.59 44.65 C 21.63 47.65 16.07 47.57 12.22 45.89 C 9.29 42.69 4.91 40.62 3.73 36.17 C 4.59 30.25 11.52 26.89 17.00 28.12 C 19.98 28.17 23.83 30.31 25.43 26.81 Z" />
</g>
<g id="#176815d1">
<path fill="#176815" opacity="0.82" d=" M 46.98 28.01 C 49.48 28.25 54.47 28.75 56.96 28.99 C 55.28 29.06 51.90 29.20 50.22 29.27 C 49.41 29.21 47.81 29.09 47.01 29.03 L 46.98 28.01 Z" />
</g>
<g id="#31a124ff">
<path fill="#31a124" opacity="1.00" d=" M 39.99 29.03 C 41.75 29.03 45.26 29.03 47.01 29.03 C 47.81 29.09 49.41 29.21 50.22 29.27 C 46.42 30.28 43.02 30.20 39.99 29.03 Z" />
</g>
<g id="#086613f1">
<path fill="#086613" opacity="0.95" d=" M 60.24 35.13 C 63.35 33.79 60.55 40.27 59.73 41.74 C 58.27 42.97 56.58 43.88 55.06 45.04 C 53.16 46.41 52.33 49.37 49.97 49.98 C 47.30 50.00 44.64 50.01 41.98 50.01 C 36.04 49.18 36.06 41.42 34.10 36.93 C 36.77 36.71 36.12 40.24 37.13 41.91 C 38.05 47.29 44.92 49.16 49.32 47.33 C 53.27 43.56 59.74 41.26 60.24 35.13 Z" />
</g>
<g id="#065810e5">
<path fill="#065810" opacity="0.90" d=" M 2.92 35.91 L 3.73 36.17 C 4.91 40.62 9.29 42.69 12.22 45.89 C 12.15 46.42 12.02 47.47 11.96 48.00 C 10.26 47.51 10.08 45.16 8.28 44.70 C 4.72 43.36 2.39 39.73 2.92 35.91 Z" />
</g>
<g id="#17891dfc">
<path fill="#17891d" opacity="1.00" d=" M 24.59 44.65 C 23.64 40.83 26.77 38.97 29.13 37.11 C 28.79 38.75 28.40 40.39 28.07 42.03 C 27.86 43.54 27.19 45.01 26.13 46.10 C 23.03 50.88 16.34 51.16 11.96 48.00 C 12.02 47.47 12.15 46.42 12.22 45.89 C 16.07 47.57 21.63 47.65 24.59 44.65 Z" />
</g>
<g id="#0a2f096a">
<path fill="#0a2f09" opacity="0.42" d=" M 29.13 37.11 C 32.18 35.93 29.52 40.37 29.93 41.96 L 29.00 42.01 L 28.07 42.03 C 28.40 40.39 28.79 38.75 29.13 37.11 Z" />
</g>
<g id="#1b5c18d3">
<path fill="#1b5c18" opacity="0.83" d=" M 32.71 47.31 C 31.51 44.39 31.60 40.53 32.75 37.70 C 32.95 40.90 33.19 44.13 32.71 47.31 Z" />
</g>
<g id="#196019e2">
<path fill="#196019" opacity="0.89" d=" M 29.00 42.01 L 29.93 41.96 C 29.99 44.88 30.07 47.80 30.18 50.73 C 26.86 51.87 29.74 44.17 29.00 42.01 Z" />
</g>
<g id="#004009eb">
<path fill="#004009" opacity="0.92" d=" M 11.96 48.00 C 16.34 51.16 23.03 50.88 26.13 46.10 C 26.98 50.39 21.00 51.58 17.99 51.02 C 15.82 51.06 11.63 51.05 11.96 48.00 Z" />
</g>
<g id="#003306d9">
<path fill="#003306" opacity="0.85" d=" M 41.98 50.01 C 44.64 50.01 47.30 50.00 49.97 49.98 C 49.23 52.23 44.40 50.54 42.03 50.95 L 41.98 50.01 Z" />
</g>
<g id="#155716e5">
<path fill="#155716" opacity="0.90" d=" M 30.18 50.73 C 30.89 52.44 31.54 54.17 32.10 55.94 C 32.07 56.50 32.02 57.62 31.99 58.18 C 30.06 56.56 30.04 53.18 30.18 50.73 Z" />
</g>
<g id="#1e8922fd">
<path fill="#1e8922" opacity="1.00" d=" M 32.10 55.94 C 33.66 57.50 35.51 58.67 37.14 56.53 L 37.99 55.96 L 38.07 56.96 C 38.64 60.75 34.33 58.32 31.99 58.18 C 32.02 57.62 32.07 56.50 32.10 55.94 Z" />
</g>
<g id="#015b10f4">
<path fill="#015b10" opacity="0.96" d=" M 38.07 56.96 C 39.09 57.43 39.86 58.19 40.36 59.24 C 37.60 59.61 34.83 59.90 32.05 60.07 C 32.03 59.60 32.00 58.65 31.99 58.18 C 34.33 58.32 38.64 60.75 38.07 56.96 Z" />
</g>
<g id="#002804c8">
<path fill="#002804" opacity="0.78" d=" M 40.36 59.24 L 41.10 59.15 C 41.67 63.61 34.71 60.21 32.01 60.98 L 32.05 60.07 C 34.83 59.90 37.60 59.61 40.36 59.24 Z" />
</g>
</svg>
