<?xml version="1.0" encoding="UTF-8" ?>
<!DOCTYPE svg PUBLIC "-//W3C//DTD SVG 1.1//EN" "http://www.w3.org/Graphics/SVG/1.1/DTD/svg11.dtd">
<svg width="64pt" height="64pt" viewBox="0 0 64 64" version="1.1" xmlns="http://www.w3.org/2000/svg">
<g id="#6e8016f4">
<path fill="#6e8016" opacity="0.96" d=" M 18.96 9.96 C 21.53 9.39 21.16 13.63 23.79 12.57 C 28.51 12.85 33.23 13.05 37.96 13.01 L 38.02 13.97 C 33.44 14.07 28.83 13.71 24.26 14.13 C 24.18 14.58 24.01 15.47 23.93 15.92 C 23.72 16.55 23.32 17.80 23.11 18.43 C 22.45 17.19 21.89 15.90 21.19 14.68 C 19.80 13.51 17.68 14.20 15.99 13.93 C 15.77 12.04 18.71 13.45 19.83 12.95 C 19.51 11.97 19.22 10.97 18.96 9.96 Z" />
</g>
<g id="#719a17fa">
<path fill="#719a17" opacity="0.98" d=" M 23.79 12.57 C 28.18 8.80 34.71 10.25 40.05 10.04 C 40.17 11.33 39.50 13.07 37.96 13.01 C 33.23 13.05 28.51 12.85 23.79 12.57 Z" />
</g>
<g id="#8cb113fa">
<path fill="#8cb113" opacity="0.98" d=" M 10.00 19.00 C 11.86 17.49 13.01 13.68 15.99 13.93 C 17.68 14.20 19.80 13.51 21.19 14.68 C 19.06 14.93 16.61 15.53 16.01 18.01 C 13.06 24.92 10.62 32.06 7.92 39.08 C 12.22 36.31 16.31 32.43 17.25 27.21 C 20.46 23.80 21.17 19.19 21.19 14.68 C 21.89 15.90 22.45 17.19 23.11 18.43 C 23.06 19.59 23.00 20.76 22.94 21.92 C 20.48 26.55 19.01 31.66 16.18 36.10 C 15.14 36.70 14.12 37.34 13.11 38.00 C 10.41 39.99 7.34 41.42 4.04 42.05 C 5.70 34.30 5.25 25.77 10.00 19.00 Z" />
</g>
<g id="#d3a812f7">
<path fill="#d3a812" opacity="0.97" d=" M 24.26 14.13 C 28.83 13.71 33.44 14.07 38.02 13.97 C 41.56 14.26 45.35 15.47 47.79 18.18 C 47.90 18.59 48.13 19.41 48.24 19.82 C 43.95 17.85 39.88 14.50 34.91 14.93 C 31.88 15.23 27.55 13.63 25.84 16.95 C 25.36 16.69 24.41 16.18 23.93 15.92 C 24.01 15.47 24.18 14.58 24.26 14.13 Z" />
</g>
<g id="#afd716ff">
<path fill="#afd716" opacity="1.00" d=" M 16.01 18.01 C 16.61 15.53 19.06 14.93 21.19 14.68 C 21.17 19.19 20.46 23.80 17.25 27.21 C 16.31 32.43 12.22 36.31 7.92 39.08 C 10.62 32.06 13.06 24.92 16.01 18.01 Z" />
</g>
<g id="#f7da44ff">
<path fill="#f7da44" opacity="1.00" d=" M 25.84 16.95 C 27.55 13.63 31.88 15.23 34.91 14.93 C 35.77 15.53 36.39 16.28 36.79 17.19 C 35.50 17.67 34.20 18.12 32.90 18.57 C 31.23 18.68 29.35 18.12 27.82 18.85 C 26.75 19.33 25.89 20.63 24.59 20.17 C 25.00 19.09 25.42 18.02 25.84 16.95 Z" />
</g>
<g id="#fdd61eff">
<path fill="#fdd61e" opacity="1.00" d=" M 34.91 14.93 C 39.88 14.50 43.95 17.85 48.24 19.82 C 58.37 29.13 56.80 44.68 50.76 55.75 C 45.94 57.79 40.61 55.93 35.74 57.45 C 33.91 57.71 32.58 55.85 30.99 55.17 C 31.18 53.49 32.45 48.90 33.35 52.95 C 34.82 52.05 35.73 50.55 36.41 49.00 C 37.50 49.20 38.58 49.44 39.67 49.61 C 40.12 45.79 44.20 44.86 47.03 43.29 C 45.33 42.83 43.62 42.36 41.95 41.79 C 42.65 39.90 44.37 40.29 45.96 40.57 C 47.39 39.96 48.67 39.07 50.02 38.31 C 47.64 38.51 45.09 35.89 46.60 33.67 C 47.06 32.13 48.95 32.64 49.89 31.58 C 47.94 31.09 48.42 29.28 48.57 27.76 C 47.33 29.27 46.14 30.18 45.00 28.03 C 44.89 25.10 48.98 24.91 49.21 22.10 C 47.81 22.67 44.56 25.50 44.10 23.00 C 44.48 19.54 41.64 22.81 40.08 23.17 L 39.13 23.15 C 38.77 21.19 40.62 18.40 38.48 17.15 C 37.69 18.67 37.00 19.47 36.79 17.19 C 36.39 16.28 35.77 15.53 34.91 14.93 Z" />
</g>
<g id="#d1bf39ff">
<path fill="#d1bf39" opacity="1.00" d=" M 23.93 15.92 C 24.41 16.18 25.36 16.69 25.84 16.95 C 25.42 18.02 25.00 19.09 24.59 20.17 C 24.04 20.75 23.49 21.34 22.94 21.92 C 23.00 20.76 23.06 19.59 23.11 18.43 C 23.32 17.80 23.72 16.55 23.93 15.92 Z" />
</g>
<g id="#ffef63ff">
<path fill="#ffef63" opacity="1.00" d=" M 32.90 18.57 C 34.20 18.12 35.50 17.67 36.79 17.19 C 37.00 19.47 37.69 18.67 38.48 17.15 C 40.62 18.40 38.77 21.19 39.13 23.15 C 37.94 24.92 36.52 26.52 35.13 28.14 C 34.99 26.49 35.06 24.56 32.84 24.68 C 34.14 23.05 35.68 21.63 37.07 20.08 C 35.79 19.32 34.34 18.92 32.90 18.57 Z" />
</g>
<g id="#fef28fff">
<path fill="#fef28f" opacity="1.00" d=" M 27.82 18.85 C 29.35 18.12 31.23 18.68 32.90 18.57 C 34.34 18.92 35.79 19.32 37.07 20.08 C 35.68 21.63 34.14 23.05 32.84 24.68 C 29.44 23.11 28.50 28.75 25.19 25.97 C 25.00 23.26 27.98 21.65 27.82 18.85 Z" />
</g>
<g id="#d89d06fb">
<path fill="#d89d06" opacity="1.00" d=" M 47.79 18.18 C 52.80 21.30 57.17 27.86 58.03 33.98 C 58.00 37.66 58.00 41.34 58.01 45.02 C 57.56 50.29 54.65 55.02 52.83 59.90 L 51.96 59.97 C 46.97 60.01 41.97 59.96 36.98 60.07 C 35.25 59.99 33.49 59.91 31.83 59.34 C 31.16 58.53 30.49 57.72 29.80 56.93 C 30.10 56.49 30.69 55.61 30.99 55.17 C 32.58 55.85 33.91 57.71 35.74 57.45 C 40.61 55.93 45.94 57.79 50.76 55.75 C 56.80 44.68 58.37 29.13 48.24 19.82 C 48.13 19.41 47.90 18.59 47.79 18.18 Z" />
</g>
<g id="#e6d877ff">
<path fill="#e6d877" opacity="1.00" d=" M 24.59 20.17 C 25.89 20.63 26.75 19.33 27.82 18.85 C 27.98 21.65 25.00 23.26 25.19 25.97 C 25.88 29.92 21.30 32.62 22.59 36.87 C 21.97 38.63 21.32 40.37 20.66 42.12 C 20.20 42.15 19.28 42.22 18.82 42.26 C 18.15 41.65 17.61 40.96 17.20 40.18 C 20.07 34.67 24.25 28.39 22.94 21.92 C 23.49 21.34 24.04 20.75 24.59 20.17 Z" />
</g>
<g id="#ffed4fff">
<path fill="#ffed4f" opacity="1.00" d=" M 40.08 23.17 C 41.64 22.81 44.48 19.54 44.10 23.00 C 44.56 25.50 47.81 22.67 49.21 22.10 C 48.98 24.91 44.89 25.10 45.00 28.03 C 43.24 28.24 41.44 28.63 39.72 28.01 C 39.05 26.39 39.50 24.74 40.08 23.17 Z" />
</g>
<g id="#c2b550ff">
<path fill="#c2b550" opacity="1.00" d=" M 16.18 36.10 C 19.01 31.66 20.48 26.55 22.94 21.92 C 24.25 28.39 20.07 34.67 17.20 40.18 C 16.55 38.91 16.40 37.49 16.18 36.10 Z" />
</g>
<g id="#fff597ff">
<path fill="#fff597" opacity="1.00" d=" M 39.13 23.15 L 40.08 23.17 C 39.50 24.74 39.05 26.39 39.72 28.01 C 38.45 28.71 37.25 29.55 35.98 30.26 C 35.77 29.73 35.35 28.67 35.13 28.14 C 36.52 26.52 37.94 24.92 39.13 23.15 Z" />
</g>
<g id="#fcf3afff">
<path fill="#fcf3af" opacity="1.00" d=" M 25.19 25.97 C 28.50 28.75 29.44 23.11 32.84 24.68 C 35.06 24.56 34.99 26.49 35.13 28.14 C 35.35 28.67 35.77 29.73 35.98 30.26 C 37.38 31.21 38.72 32.14 36.07 32.30 C 36.36 32.55 36.93 33.05 37.22 33.30 C 35.32 33.23 33.44 33.41 33.22 35.69 C 36.29 36.23 33.85 37.59 32.17 37.62 C 31.30 38.88 31.30 40.66 29.97 41.61 C 27.25 40.43 24.23 39.56 22.59 36.87 C 21.30 32.62 25.88 29.92 25.19 25.97 Z" />
</g>
<g id="#fff079ff">
<path fill="#fff079" opacity="1.00" d=" M 35.98 30.26 C 37.25 29.55 38.45 28.71 39.72 28.01 C 41.44 28.63 43.24 28.24 45.00 28.03 C 43.49 29.21 42.01 30.82 39.91 30.52 C 39.95 31.97 41.08 32.94 41.81 34.07 C 40.99 35.80 40.03 37.47 39.17 39.18 C 38.34 39.10 36.70 38.94 35.88 38.86 C 37.79 37.51 40.90 34.59 37.22 33.30 C 36.93 33.05 36.36 32.55 36.07 32.30 C 38.72 32.14 37.38 31.21 35.98 30.26 Z" />
</g>
<g id="#ffe755ff">
<path fill="#ffe755" opacity="1.00" d=" M 45.00 28.03 C 46.14 30.18 47.33 29.27 48.57 27.76 C 48.42 29.28 47.94 31.09 49.89 31.58 C 48.95 32.64 47.06 32.13 46.60 33.67 C 45.09 35.89 47.64 38.51 50.02 38.31 C 48.67 39.07 47.39 39.96 45.96 40.57 C 44.37 40.29 42.65 39.90 41.95 41.79 C 43.62 42.36 45.33 42.83 47.03 43.29 C 44.20 44.86 40.12 45.79 39.67 49.61 C 38.58 49.44 37.50 49.20 36.41 49.00 C 36.11 48.73 35.52 48.19 35.22 47.92 C 35.48 46.25 35.78 44.59 35.97 42.92 C 35.55 39.89 39.01 41.87 40.20 42.85 C 39.91 41.61 39.56 40.38 39.17 39.18 C 40.03 37.47 40.99 35.80 41.81 34.07 C 41.08 32.94 39.95 31.97 39.91 30.52 C 42.01 30.82 43.49 29.21 45.00 28.03 Z" />
</g>
<g id="#fded90ff">
<path fill="#fded90" opacity="1.00" d=" M 33.22 35.69 C 33.44 33.41 35.32 33.23 37.22 33.30 C 40.90 34.59 37.79 37.51 35.88 38.86 C 36.70 38.94 38.34 39.10 39.17 39.18 C 39.56 40.38 39.91 41.61 40.20 42.85 C 39.01 41.87 35.55 39.89 35.97 42.92 C 34.05 41.34 33.31 43.00 33.51 44.88 C 32.11 44.49 30.53 43.79 30.91 46.04 C 31.63 48.05 26.88 45.32 28.77 45.06 C 31.54 43.98 27.03 43.82 26.54 42.36 C 25.40 45.96 22.51 44.25 20.66 42.12 C 21.32 40.37 21.97 38.63 22.59 36.87 C 24.23 39.56 27.25 40.43 29.97 41.61 C 31.30 40.66 31.30 38.88 32.17 37.62 C 33.85 37.59 36.29 36.23 33.22 35.69 Z" />
</g>
<g id="#734a01a2">
<path fill="#734a01" opacity="0.64" d=" M 58.03 33.98 L 59.00 34.01 C 59.00 36.75 58.99 42.24 58.99 44.98 L 58.01 45.02 C 58.00 41.34 58.00 37.66 58.03 33.98 Z" />
</g>
<g id="#bd8815f5">
<path fill="#bd8815" opacity="0.96" d=" M 13.11 38.00 C 14.12 37.34 15.14 36.70 16.18 36.10 C 16.40 37.49 16.55 38.91 17.20 40.18 C 17.61 40.96 18.15 41.65 18.82 42.26 C 17.24 45.19 19.75 46.81 20.99 49.14 C 22.51 53.08 27.49 53.54 29.80 56.93 C 30.49 57.72 31.16 58.53 31.83 59.34 C 31.35 59.25 30.37 59.06 29.89 58.97 C 29.47 58.81 28.63 58.49 28.21 58.33 C 19.83 54.66 14.64 46.79 13.11 38.00 Z" />
</g>
<g id="#fbdc62ff">
<path fill="#fbdc62" opacity="1.00" d=" M 18.82 42.26 C 19.28 42.22 20.20 42.15 20.66 42.12 C 22.51 44.25 25.40 45.96 26.54 42.36 C 27.03 43.82 31.54 43.98 28.77 45.06 C 26.88 45.32 31.63 48.05 30.91 46.04 C 30.53 43.79 32.11 44.49 33.51 44.88 C 33.31 43.00 34.05 41.34 35.97 42.92 C 35.78 44.59 35.48 46.25 35.22 47.92 C 33.69 50.43 34.09 47.21 33.84 45.94 C 32.09 47.11 29.61 53.11 28.19 49.38 C 33.34 46.44 24.54 50.44 23.53 47.32 C 22.64 47.86 21.83 48.52 20.99 49.14 C 19.75 46.81 17.24 45.19 18.82 42.26 Z" />
</g>
<g id="#f9ca39ff">
<path fill="#f9ca39" opacity="1.00" d=" M 28.19 49.38 C 29.61 53.11 32.09 47.11 33.84 45.94 C 34.09 47.21 33.69 50.43 35.22 47.92 C 35.52 48.19 36.11 48.73 36.41 49.00 C 35.73 50.55 34.82 52.05 33.35 52.95 C 32.45 48.90 31.18 53.49 30.99 55.17 C 30.69 55.61 30.10 56.49 29.80 56.93 C 27.49 53.54 22.51 53.08 20.99 49.14 C 21.83 48.52 22.64 47.86 23.53 47.32 C 24.54 50.44 33.34 46.44 28.19 49.38 Z" />
</g>
<g id="#0101003f">
<path fill="#010100" opacity="0.25" d=" M 28.21 58.33 C 28.63 58.49 29.47 58.81 29.89 58.97 C 29.70 62.80 34.47 60.62 36.99 61.03 C 41.33 61.05 45.66 60.99 50.00 61.01 L 50.00 61.99 C 39.98 62.39 29.99 61.78 20.03 60.89 C 18.91 56.43 25.80 60.24 28.21 58.33 Z" />
</g>
<g id="#1d12009a">
<path fill="#1d1200" opacity="0.60" d=" M 29.89 58.97 C 30.37 59.06 31.35 59.25 31.83 59.34 C 33.49 59.91 35.25 59.99 36.98 60.07 L 36.99 61.03 C 34.47 60.62 29.70 62.80 29.89 58.97 Z" />
</g>
<g id="#855500e9">
<path fill="#855500" opacity="0.91" d=" M 36.98 60.07 C 41.97 59.96 46.97 60.01 51.96 59.97 L 52.00 60.96 C 51.50 60.97 50.50 61.00 50.00 61.01 C 45.66 60.99 41.33 61.05 36.99 61.03 L 36.98 60.07 Z" />
</g>
</svg>
