<?xml version="1.0" encoding="UTF-8" ?>
<!DOCTYPE svg PUBLIC "-//W3C//DTD SVG 1.1//EN" "http://www.w3.org/Graphics/SVG/1.1/DTD/svg11.dtd">
<svg width="64pt" height="64pt" viewBox="0 0 64 64" version="1.1" xmlns="http://www.w3.org/2000/svg">
<g id="#85471bef">
<path fill="#85471b" opacity="0.94" d=" M 8.17 18.02 C 15.14 2.17 40.45 -0.64 50.89 11.99 L 50.75 12.98 C 49.55 12.78 48.33 12.64 47.11 12.67 C 44.07 9.87 40.64 5.11 36.00 6.33 C 33.51 5.76 31.21 6.50 28.96 7.49 C 23.59 7.08 18.19 8.78 14.79 13.14 C 13.92 14.00 13.07 14.88 12.28 15.81 L 11.78 16.41 C 9.11 18.63 9.40 22.28 7.81 25.11 L 6.81 24.72 C 7.32 22.50 7.88 20.28 8.17 18.02 Z" />
</g>
<g id="#cf8d4aff">
<path fill="#cf8d4a" opacity="1.00" d=" M 28.96 7.49 C 31.21 6.50 33.51 5.76 36.00 6.33 C 38.31 8.19 35.14 9.57 34.03 11.00 C 32.56 11.73 29.27 11.36 30.11 13.83 C 31.85 16.08 32.55 13.07 33.56 11.78 C 33.75 14.73 36.58 15.88 38.18 17.98 C 36.42 18.04 34.18 18.27 33.50 16.19 C 31.35 17.53 29.70 19.55 30.72 22.19 C 29.07 21.00 29.47 17.95 27.09 17.90 C 27.08 19.50 28.60 21.44 27.20 22.77 C 26.31 21.36 25.35 19.89 23.97 18.93 C 22.17 19.06 22.17 21.44 21.76 22.77 C 19.70 24.96 20.22 22.98 20.63 21.12 C 19.60 19.33 17.07 19.76 18.18 22.15 C 15.64 20.65 14.64 17.43 11.78 16.41 L 12.28 15.81 C 14.30 16.36 16.14 17.40 18.13 18.05 C 17.59 16.03 15.37 15.15 14.79 13.14 C 18.19 8.78 23.59 7.08 28.96 7.49 M 22.24 15.34 C 21.21 16.03 17.85 16.76 19.68 18.34 C 20.50 19.68 22.06 18.43 23.10 18.14 C 24.98 18.11 23.55 14.41 22.24 15.34 Z" />
</g>
<g id="#cc833eff">
<path fill="#cc833e" opacity="1.00" d=" M 36.00 6.33 C 40.64 5.11 44.07 9.87 47.11 12.67 C 47.53 14.25 48.51 14.95 50.10 14.41 C 50.35 16.54 48.92 18.10 47.90 19.79 C 50.66 19.72 51.47 20.23 49.06 21.94 C 50.59 23.30 51.39 25.02 51.03 27.10 C 49.29 25.82 47.77 24.27 46.07 22.92 C 46.33 24.34 46.69 25.74 46.92 27.16 C 44.01 25.73 42.65 21.85 38.84 21.97 C 39.84 23.32 42.80 24.16 40.90 26.04 C 39.48 24.77 35.99 23.29 38.18 21.21 C 39.74 19.83 37.61 19.38 36.53 18.89 C 36.81 22.30 33.29 27.87 30.02 24.10 C 29.38 26.83 25.27 24.26 27.20 22.77 C 28.60 21.44 27.08 19.50 27.09 17.90 C 29.47 17.95 29.07 21.00 30.72 22.19 C 29.70 19.55 31.35 17.53 33.50 16.19 C 34.18 18.27 36.42 18.04 38.18 17.98 C 36.58 15.88 33.75 14.73 33.56 11.78 L 34.03 11.00 C 35.14 9.57 38.31 8.19 36.00 6.33 M 34.88 13.85 C 37.04 12.06 36.67 15.09 38.24 14.72 C 40.57 15.57 42.46 17.38 42.17 20.03 C 42.96 19.09 43.76 18.16 44.91 17.66 C 42.65 16.00 38.97 14.28 41.00 10.99 C 39.44 10.73 38.67 11.42 38.68 13.04 C 37.36 10.70 34.82 10.80 34.88 13.85 Z" />
</g>
<g id="#e4ad6bff">
<path fill="#e4ad6b" opacity="1.00" d=" M 30.11 13.83 C 29.27 11.36 32.56 11.73 34.03 11.00 L 33.56 11.78 C 32.55 13.07 31.85 16.08 30.11 13.83 Z" />
</g>
<g id="#e4af72ff">
<path fill="#e4af72" opacity="1.00" d=" M 34.88 13.85 C 34.82 10.80 37.36 10.70 38.68 13.04 C 38.57 13.46 38.35 14.30 38.24 14.72 C 36.67 15.09 37.04 12.06 34.88 13.85 Z" />
</g>
<g id="#da9851ff">
<path fill="#da9851" opacity="1.00" d=" M 38.68 13.04 C 38.67 11.42 39.44 10.73 41.00 10.99 C 38.97 14.28 42.65 16.00 44.91 17.66 C 43.76 18.16 42.96 19.09 42.17 20.03 C 42.46 17.38 40.57 15.57 38.24 14.72 C 38.35 14.30 38.57 13.46 38.68 13.04 Z" />
</g>
<g id="#c17029ff">
<path fill="#c17029" opacity="1.00" d=" M 47.11 12.67 C 48.33 12.64 49.55 12.78 50.75 12.98 C 51.30 14.11 52.13 15.05 53.00 15.94 C 51.70 19.17 54.95 21.74 55.00 24.86 C 53.88 25.71 51.54 24.90 52.01 27.02 C 51.95 27.49 51.82 28.43 51.76 28.90 C 48.76 28.69 42.99 27.09 42.03 30.86 C 45.69 30.30 49.23 31.33 52.66 31.38 C 55.03 31.15 56.95 31.27 55.15 33.89 C 53.34 35.75 51.16 37.19 49.08 38.72 C 50.90 38.86 51.20 39.64 49.87 40.81 C 48.22 40.33 46.61 39.70 45.04 39.01 C 45.17 36.73 45.21 34.33 42.24 34.71 C 40.31 34.13 38.01 33.94 37.19 31.78 C 37.24 28.76 33.19 32.13 33.58 28.71 C 35.81 27.82 39.04 30.02 40.09 27.07 C 37.67 26.00 34.40 25.44 33.58 28.71 C 29.64 28.40 31.03 32.12 34.07 32.27 C 34.44 34.74 32.58 33.29 31.33 32.78 C 29.74 30.71 27.10 31.59 24.87 31.39 C 25.27 34.61 29.27 33.22 31.33 32.78 C 30.96 33.32 30.23 34.41 29.87 34.96 C 26.61 35.48 22.82 34.13 19.77 35.72 L 19.10 36.18 C 16.61 39.92 14.27 34.83 11.18 34.68 C 11.45 34.24 11.99 33.36 12.26 32.92 C 15.03 33.52 13.69 31.35 12.27 30.50 C 12.66 28.38 14.89 29.04 15.46 30.73 C 17.90 29.16 19.90 26.13 23.12 27.86 C 21.74 26.52 20.21 25.36 18.90 23.95 C 18.72 23.50 18.36 22.60 18.18 22.15 C 17.07 19.76 19.60 19.33 20.63 21.12 C 20.22 22.98 19.70 24.96 21.76 22.77 C 22.25 25.38 24.29 27.72 27.17 27.00 C 25.66 25.27 23.92 23.63 21.76 22.77 C 22.17 21.44 22.17 19.06 23.97 18.93 C 25.35 19.89 26.31 21.36 27.20 22.77 C 25.27 24.26 29.38 26.83 30.02 24.10 C 33.29 27.87 36.81 22.30 36.53 18.89 C 37.61 19.38 39.74 19.83 38.18 21.21 C 35.99 23.29 39.48 24.77 40.90 26.04 C 42.80 24.16 39.84 23.32 38.84 21.97 C 42.65 21.85 44.01 25.73 46.92 27.16 C 46.69 25.74 46.33 24.34 46.07 22.92 C 47.77 24.27 49.29 25.82 51.03 27.10 C 51.39 25.02 50.59 23.30 49.06 21.94 C 51.47 20.23 50.66 19.72 47.90 19.79 C 48.92 18.10 50.35 16.54 50.10 14.41 C 48.51 14.95 47.53 14.25 47.11 12.67 M 50.31 33.33 C 48.15 33.27 44.13 38.94 47.74 37.78 C 48.44 36.52 52.42 33.31 50.31 33.33 Z" />
</g>
<g id="#6e320be6">
<path fill="#6e320b" opacity="0.90" d=" M 50.89 11.99 C 52.73 13.00 55.37 14.69 54.81 17.15 C 54.36 16.85 53.46 16.24 53.00 15.94 C 52.13 15.05 51.30 14.11 50.75 12.98 L 50.89 11.99 Z" />
</g>
<g id="#bb7234ff">
<path fill="#bb7234" opacity="1.00" d=" M 12.28 15.81 C 13.07 14.88 13.92 14.00 14.79 13.14 C 15.37 15.15 17.59 16.03 18.13 18.05 C 16.14 17.40 14.30 16.36 12.28 15.81 Z" />
</g>
<g id="#c9732eff">
<path fill="#c9732e" opacity="1.00" d=" M 22.24 15.34 C 23.55 14.41 24.98 18.11 23.10 18.14 C 22.06 18.43 20.50 19.68 19.68 18.34 C 17.85 16.76 21.21 16.03 22.24 15.34 Z" />
</g>
<g id="#a2591fff">
<path fill="#a2591f" opacity="1.00" d=" M 53.00 15.94 C 53.46 16.24 54.36 16.85 54.81 17.15 C 57.13 22.72 57.39 28.85 57.86 34.82 C 56.95 34.52 56.05 34.21 55.15 33.89 C 56.95 31.27 55.03 31.15 52.66 31.38 C 53.76 30.37 56.18 30.24 55.87 28.30 C 54.58 27.87 53.29 27.47 52.01 27.02 C 51.54 24.90 53.88 25.71 55.00 24.86 C 54.95 21.74 51.70 19.17 53.00 15.94 Z" />
</g>
<g id="#bd722fff">
<path fill="#bd722f" opacity="1.00" d=" M 7.81 25.11 C 9.40 22.28 9.11 18.63 11.78 16.41 C 14.64 17.43 15.64 20.65 18.18 22.15 C 13.83 21.87 10.84 22.45 13.31 26.23 C 11.95 27.92 10.55 29.64 9.98 31.78 C 9.79 32.10 9.41 32.76 9.22 33.08 C 8.79 30.42 8.19 27.78 7.81 25.11 Z" />
</g>
<g id="#723207f7">
<path fill="#723207" opacity="0.97" d=" M 54.81 17.15 C 59.20 19.18 59.74 26.68 59.61 31.04 C 59.36 32.49 58.86 35.40 58.61 36.85 C 56.60 44.02 51.25 49.36 45.11 53.25 C 45.11 52.50 45.10 50.99 45.10 50.24 C 48.78 49.66 51.39 46.24 53.27 43.26 C 54.61 40.30 57.15 37.19 55.15 33.89 C 56.05 34.21 56.95 34.52 57.86 34.82 C 57.39 28.85 57.13 22.72 54.81 17.15 Z" />
</g>
<g id="#5f2604f2">
<path fill="#5f2604" opacity="0.95" d=" M 4.04 29.05 C 5.47 25.75 4.81 19.89 8.17 18.02 C 7.88 20.28 7.32 22.50 6.81 24.72 C 3.95 35.33 10.00 45.96 18.95 51.31 C 19.00 51.81 19.11 52.81 19.17 53.31 L 18.97 54.21 C 15.46 52.03 12.61 48.89 8.99 46.93 C 3.75 43.21 4.24 34.74 4.04 29.05 Z" />
</g>
<g id="#b95b18ff">
<path fill="#b95b18" opacity="1.00" d=" M 18.18 22.15 C 18.36 22.60 18.72 23.50 18.90 23.95 C 16.66 23.62 14.89 24.81 13.31 26.23 C 10.84 22.45 13.83 21.87 18.18 22.15 Z" />
</g>
<g id="#db9c55ff">
<path fill="#db9c55" opacity="1.00" d=" M 21.76 22.77 C 23.92 23.63 25.66 25.27 27.17 27.00 C 24.29 27.72 22.25 25.38 21.76 22.77 Z" />
</g>
<g id="#d0883fff">
<path fill="#d0883f" opacity="1.00" d=" M 13.31 26.23 C 14.89 24.81 16.66 23.62 18.90 23.95 C 20.21 25.36 21.74 26.52 23.12 27.86 C 19.90 26.13 17.90 29.16 15.46 30.73 C 14.89 29.04 12.66 28.38 12.27 30.50 C 13.69 31.35 15.03 33.52 12.26 32.92 C 11.69 32.64 10.55 32.06 9.98 31.78 C 10.55 29.64 11.95 27.92 13.31 26.23 Z" />
</g>
<g id="#a95714ff">
<path fill="#a95714" opacity="1.00" d=" M 18.95 51.31 C 10.00 45.96 3.95 35.33 6.81 24.72 L 7.81 25.11 C 8.19 27.78 8.79 30.42 9.22 33.08 C 9.41 32.76 9.79 32.10 9.98 31.78 C 10.55 32.06 11.69 32.64 12.26 32.92 C 11.99 33.36 11.45 34.24 11.18 34.68 C 14.27 34.83 16.61 39.92 19.10 36.18 C 18.99 41.22 18.99 46.26 18.95 51.31 Z" />
</g>
<g id="#d08944ff">
<path fill="#d08944" opacity="1.00" d=" M 33.58 28.71 C 34.40 25.44 37.67 26.00 40.09 27.07 C 39.04 30.02 35.81 27.82 33.58 28.71 Z" />
</g>
<g id="#cb833aff">
<path fill="#cb833a" opacity="1.00" d=" M 52.01 27.02 C 53.29 27.47 54.58 27.87 55.87 28.30 C 56.18 30.24 53.76 30.37 52.66 31.38 C 49.23 31.33 45.69 30.30 42.03 30.86 C 42.99 27.09 48.76 28.69 51.76 28.90 C 51.82 28.43 51.95 27.49 52.01 27.02 Z" />
</g>
<g id="#d79247ff">
<path fill="#d79247" opacity="1.00" d=" M 34.07 32.27 C 31.03 32.12 29.64 28.40 33.58 28.71 C 33.19 32.13 37.24 28.76 37.19 31.78 C 36.41 31.90 34.85 32.15 34.07 32.27 Z" />
</g>
<g id="#b76017ff">
<path fill="#b76017" opacity="1.00" d=" M 24.87 31.39 C 27.10 31.59 29.74 30.71 31.33 32.78 C 29.27 33.22 25.27 34.61 24.87 31.39 Z" />
</g>
<g id="#3e1401c8">
<path fill="#3e1401" opacity="0.78" d=" M 58.61 36.85 C 58.86 35.40 59.36 32.49 59.61 31.04 C 60.19 32.83 61.28 37.24 58.95 37.68 L 58.61 36.85 Z" />
</g>
<g id="#b85b16ff">
<path fill="#b85b16" opacity="1.00" d=" M 34.07 32.27 C 34.85 32.15 36.41 31.90 37.19 31.78 C 38.01 33.94 40.31 34.13 42.24 34.71 C 38.12 34.86 33.99 34.94 29.87 34.96 C 30.23 34.41 30.96 33.32 31.33 32.78 C 32.58 33.29 34.44 34.74 34.07 32.27 Z" />
</g>
<g id="#b35b14ff">
<path fill="#b35b14" opacity="1.00" d=" M 50.31 33.33 C 52.42 33.31 48.44 36.52 47.74 37.78 C 44.13 38.94 48.15 33.27 50.31 33.33 Z" />
</g>
<g id="#af5b14ff">
<path fill="#af5b14" opacity="1.00" d=" M 49.08 38.72 C 51.16 37.19 53.34 35.75 55.15 33.89 C 57.15 37.19 54.61 40.30 53.27 43.26 C 50.81 43.92 47.81 43.78 46.29 46.21 C 46.33 47.53 47.15 49.32 45.08 49.28 C 45.03 48.76 44.94 47.73 44.90 47.22 C 44.94 44.48 44.99 41.74 45.04 39.01 C 46.61 39.70 48.22 40.33 49.87 40.81 C 51.20 39.64 50.90 38.86 49.08 38.72 Z" />
</g>
<g id="#5f4414ff">
<path fill="#5f4414" opacity="1.00" d=" M 19.77 35.72 C 22.82 34.13 26.61 35.48 29.87 34.96 C 33.99 34.94 38.12 34.86 42.24 34.71 C 45.21 34.33 45.17 36.73 45.04 39.01 C 44.99 41.74 44.94 44.48 44.90 47.22 C 44.67 46.90 44.20 46.26 43.97 45.95 C 42.53 43.29 46.81 34.54 40.94 35.99 C 39.00 35.96 37.06 35.99 35.12 36.05 C 33.40 36.06 29.94 36.08 28.22 36.09 C 26.35 36.05 22.63 35.99 20.77 35.95 L 19.77 35.72 Z" />
</g>
<g id="#4b330aff">
<path fill="#4b330a" opacity="1.00" d=" M 19.10 36.18 L 19.77 35.72 C 19.89 39.16 19.96 42.60 20.03 46.04 C 20.04 47.63 20.10 49.21 20.19 50.79 C 19.94 51.42 19.42 52.68 19.17 53.31 C 19.11 52.81 19.00 51.81 18.95 51.31 C 18.99 46.26 18.99 41.22 19.10 36.18 Z" />
</g>
<g id="#2f320eff">
<path fill="#2f320e" opacity="1.00" d=" M 19.77 35.72 L 20.77 35.95 C 24.36 37.80 24.25 42.94 22.07 45.84 C 21.56 45.89 20.54 45.99 20.03 46.04 C 19.96 42.60 19.89 39.16 19.77 35.72 Z" />
</g>
<g id="#3d3f16ff">
<path fill="#3d3f16" opacity="1.00" d=" M 20.77 35.95 C 22.63 35.99 26.35 36.05 28.22 36.09 C 28.26 38.37 24.54 41.25 27.25 42.83 C 31.19 43.71 32.43 38.03 35.12 36.05 C 37.06 35.99 39.00 35.96 40.94 35.99 C 39.85 38.78 41.88 41.23 42.08 43.95 C 40.82 43.84 39.58 43.62 38.33 43.48 C 37.89 44.57 37.80 45.96 36.55 46.46 C 33.73 47.51 32.02 50.04 29.97 52.07 C 30.16 50.65 30.46 49.25 30.72 47.85 C 28.44 48.26 26.30 49.15 24.09 49.77 C 23.30 48.52 22.73 47.16 22.07 45.84 C 24.25 42.94 24.36 37.80 20.77 35.95 Z" />
</g>
<g id="#484a1eff">
<path fill="#484a1e" opacity="1.00" d=" M 28.22 36.09 C 29.94 36.08 33.40 36.06 35.12 36.05 C 32.43 38.03 31.19 43.71 27.25 42.83 C 24.54 41.25 28.26 38.37 28.22 36.09 Z" />
</g>
<g id="#30320fff">
<path fill="#30320f" opacity="1.00" d=" M 40.94 35.99 C 46.81 34.54 42.53 43.29 43.97 45.95 C 42.65 45.02 41.74 45.00 41.90 46.92 C 42.26 49.13 39.00 46.23 39.10 48.12 C 39.30 50.77 36.56 48.85 35.09 48.94 C 35.60 50.26 38.44 52.91 35.79 53.36 C 33.43 52.97 31.83 54.62 30.12 55.95 C 28.54 53.25 28.24 48.30 23.03 50.93 C 20.93 50.85 22.54 47.32 22.07 45.84 C 22.73 47.16 23.30 48.52 24.09 49.77 C 26.30 49.15 28.44 48.26 30.72 47.85 C 30.46 49.25 30.16 50.65 29.97 52.07 C 32.02 50.04 33.73 47.51 36.55 46.46 C 37.80 45.96 37.89 44.57 38.33 43.48 C 39.58 43.62 40.82 43.84 42.08 43.95 C 41.88 41.23 39.85 38.78 40.94 35.99 Z" />
</g>
<g id="#401401ef">
<path fill="#401401" opacity="0.94" d=" M 45.11 53.25 C 51.25 49.36 56.60 44.02 58.61 36.85 L 58.95 37.68 C 58.71 45.61 52.47 52.44 45.89 56.28 L 45.08 55.89 C 45.09 55.23 45.10 53.91 45.11 53.25 Z" />
</g>
<g id="#9d4a0aff">
<path fill="#9d4a0a" opacity="1.00" d=" M 46.29 46.21 C 47.81 43.78 50.81 43.92 53.27 43.26 C 51.39 46.24 48.78 49.66 45.10 50.24 L 45.08 49.28 C 47.15 49.32 46.33 47.53 46.29 46.21 Z" />
</g>
<g id="#232306ff">
<path fill="#232306" opacity="1.00" d=" M 41.90 46.92 C 41.74 45.00 42.65 45.02 43.97 45.95 C 44.20 46.26 44.67 46.90 44.90 47.22 C 44.94 47.73 45.03 48.76 45.08 49.28 L 45.10 50.24 C 45.10 50.99 45.11 52.50 45.11 53.25 C 45.10 53.91 45.09 55.23 45.08 55.89 C 44.06 55.44 42.79 54.97 43.42 53.61 C 46.96 45.44 42.43 50.16 40.35 51.39 C 39.83 53.21 39.69 55.11 39.50 56.98 C 36.93 57.84 35.72 54.68 33.30 55.03 C 33.15 55.76 32.85 57.23 32.70 57.96 C 28.55 58.89 27.98 53.69 25.54 51.85 C 25.12 53.32 25.89 56.80 23.40 55.78 C 22.93 53.77 21.74 52.13 20.19 50.79 C 20.10 49.21 20.04 47.63 20.03 46.04 C 20.54 45.99 21.56 45.89 22.07 45.84 C 22.54 47.32 20.93 50.85 23.03 50.93 C 28.24 48.30 28.54 53.25 30.12 55.95 C 31.83 54.62 33.43 52.97 35.79 53.36 C 38.44 52.91 35.60 50.26 35.09 48.94 C 36.56 48.85 39.30 50.77 39.10 48.12 C 39.00 46.23 42.26 49.13 41.90 46.92 Z" />
</g>
<g id="#310d01e8">
<path fill="#310d01" opacity="0.91" d=" M 8.99 46.93 C 12.61 48.89 15.46 52.03 18.97 54.21 C 19.00 54.88 19.07 56.21 19.10 56.88 C 15.21 54.46 10.03 51.56 8.99 46.93 Z" />
</g>
<g id="#0f1101f9">
<path fill="#0f1101" opacity="0.98" d=" M 40.35 51.39 C 42.43 50.16 46.96 45.44 43.42 53.61 C 42.79 54.97 44.06 55.44 45.08 55.89 L 45.89 56.28 C 43.16 59.06 38.85 60.22 35.01 60.00 C 29.74 59.88 23.18 61.14 19.10 56.88 C 19.07 56.21 19.00 54.88 18.97 54.21 L 19.17 53.31 C 19.42 52.68 19.94 51.42 20.19 50.79 C 21.74 52.13 22.93 53.77 23.40 55.78 C 25.89 56.80 25.12 53.32 25.54 51.85 C 27.98 53.69 28.55 58.89 32.70 57.96 C 32.85 57.23 33.15 55.76 33.30 55.03 C 35.72 54.68 36.93 57.84 39.50 56.98 C 39.69 55.11 39.83 53.21 40.35 51.39 Z" />
</g>
</svg>
