<?xml version="1.0" encoding="UTF-8" ?>
<!DOCTYPE svg PUBLIC "-//W3C//DTD SVG 1.1//EN" "http://www.w3.org/Graphics/SVG/1.1/DTD/svg11.dtd">
<svg width="64pt" height="64pt" viewBox="0 0 64 64" version="1.1" xmlns="http://www.w3.org/2000/svg">
<g id="#b9b9b9ff">
<path fill="#b9b9b9" opacity="1.00" d=" M 27.11 8.07 C 29.35 9.30 31.13 6.45 33.31 8.09 C 33.66 7.99 34.35 7.78 34.70 7.68 C 35.72 8.78 37.44 8.70 38.40 9.93 C 38.95 12.27 42.48 11.60 42.00 14.64 C 38.98 15.07 37.24 12.05 34.26 11.93 C 33.96 11.16 33.65 10.39 33.34 9.63 C 32.09 10.13 30.80 10.51 29.50 10.86 C 29.07 11.74 28.76 12.68 28.36 13.57 C 27.36 13.54 26.35 13.51 25.35 13.50 C 23.76 15.48 23.14 17.95 22.48 20.35 C 20.63 20.53 19.09 21.42 18.16 23.07 C 18.80 23.76 19.46 24.42 20.15 25.07 C 18.95 25.31 17.75 25.49 16.54 25.67 C 16.44 28.85 20.03 28.58 22.26 29.01 C 20.12 29.71 17.92 29.13 15.74 29.19 C 15.37 29.20 14.63 29.20 14.26 29.21 C 14.21 28.20 14.20 27.19 14.21 26.18 C 17.30 22.69 18.95 18.50 21.74 14.81 C 23.73 12.70 25.02 10.12 27.11 8.07 Z" />
</g>
<g id="#e7e7e7ff">
<path fill="#e7e7e7" opacity="1.00" d=" M 33.34 9.63 C 33.65 10.39 33.96 11.16 34.26 11.93 C 37.24 12.05 38.98 15.07 42.00 14.64 L 42.68 15.03 L 42.03 15.84 C 40.80 16.98 40.34 18.44 41.13 19.99 C 40.43 21.42 39.29 22.48 37.86 23.15 C 38.41 21.71 39.10 20.32 39.56 18.84 C 39.42 18.50 39.12 17.80 38.98 17.45 C 37.95 17.90 36.95 18.43 35.94 18.91 C 36.11 17.68 36.38 16.47 36.48 15.23 C 36.07 14.58 35.59 14.00 35.04 13.47 C 32.93 15.82 29.91 15.52 27.17 16.08 C 26.62 18.36 24.64 19.87 23.92 22.07 C 23.37 23.70 21.68 24.57 20.15 25.07 C 19.46 24.42 18.80 23.76 18.16 23.07 C 19.09 21.42 20.63 20.53 22.48 20.35 C 23.14 17.95 23.76 15.48 25.35 13.50 C 26.35 13.51 27.36 13.54 28.36 13.57 C 28.76 12.68 29.07 11.74 29.50 10.86 C 30.80 10.51 32.09 10.13 33.34 9.63 Z" />
</g>
<g id="#eeeeeeff">
<path fill="#eeeeee" opacity="1.00" d=" M 27.17 16.08 C 29.91 15.52 32.93 15.82 35.04 13.47 C 35.59 14.00 36.07 14.58 36.48 15.23 C 36.38 16.47 36.11 17.68 35.94 18.91 C 36.95 18.43 37.95 17.90 38.98 17.45 C 39.12 17.80 39.42 18.50 39.56 18.84 C 39.10 20.32 38.41 21.71 37.86 23.15 C 39.29 22.48 40.43 21.42 41.13 19.99 C 43.18 21.07 45.31 22.35 46.08 24.69 C 47.12 27.51 49.01 30.10 51.98 31.04 C 50.60 31.39 49.19 31.66 47.80 32.00 C 49.48 33.70 51.54 34.96 53.40 36.44 C 52.75 37.69 52.21 39.01 51.39 40.17 C 48.99 40.29 46.83 41.40 44.61 42.20 C 44.56 40.01 44.58 37.83 44.58 35.64 C 43.95 35.60 42.69 35.51 42.06 35.47 C 36.43 35.17 30.79 35.16 25.15 35.35 C 23.26 35.56 21.37 35.47 19.48 35.49 C 19.46 36.18 19.44 37.57 19.43 38.26 C 17.11 35.88 15.68 32.54 15.74 29.19 C 17.92 29.13 20.12 29.71 22.26 29.01 C 20.03 28.58 16.44 28.85 16.54 25.67 C 17.75 25.49 18.95 25.31 20.15 25.07 C 21.68 24.57 23.37 23.70 23.92 22.07 C 24.64 19.87 26.62 18.36 27.17 16.08 Z" />
</g>
<g id="#c2c2c2ff">
<path fill="#c2c2c2" opacity="1.00" d=" M 42.03 15.84 C 45.14 16.74 46.12 20.00 47.43 22.58 C 48.72 23.32 49.20 24.70 49.53 26.07 C 51.67 26.58 51.29 29.25 53.53 29.47 C 53.81 30.47 54.33 31.37 55.08 32.20 C 55.48 32.89 55.85 33.60 56.20 34.33 C 55.76 35.66 55.18 37.18 55.70 38.56 C 56.53 39.51 57.63 40.24 58.15 41.43 C 56.96 41.58 55.77 41.67 54.59 41.77 C 52.54 41.87 50.49 41.87 48.45 41.98 C 50.28 43.82 52.89 44.45 55.08 45.74 C 55.08 44.98 55.08 43.47 55.09 42.72 C 55.61 43.73 56.15 44.73 56.56 45.80 C 55.85 46.26 55.13 46.71 54.40 47.15 C 54.59 48.17 54.80 49.19 55.02 50.21 C 54.10 49.65 53.17 49.08 52.25 48.52 C 50.93 50.83 48.87 52.13 46.18 52.21 C 47.16 50.76 46.74 48.72 45.03 48.04 C 44.98 49.67 45.00 51.30 45.01 52.93 C 44.92 53.75 44.76 55.40 44.68 56.22 C 44.28 52.71 44.01 49.22 44.57 45.72 C 44.57 44.55 44.56 43.37 44.61 42.20 C 46.83 41.40 48.99 40.29 51.39 40.17 C 52.21 39.01 52.75 37.69 53.40 36.44 C 51.54 34.96 49.48 33.70 47.80 32.00 C 49.19 31.66 50.60 31.39 51.98 31.04 C 49.01 30.10 47.12 27.51 46.08 24.69 C 45.31 22.35 43.18 21.07 41.13 19.99 C 40.34 18.44 40.80 16.98 42.03 15.84 M 45.16 44.14 C 44.58 45.83 45.11 46.41 46.76 45.85 C 47.30 44.24 46.77 43.67 45.16 44.14 M 48.05 45.97 C 47.08 47.44 49.46 49.57 50.85 48.69 C 51.62 47.25 49.46 45.08 48.05 45.97 Z" />
</g>
<g id="#cacacaff">
<path fill="#cacaca" opacity="1.00" d=" M 12.08 27.97 C 12.42 26.83 13.13 26.23 14.21 26.18 C 14.20 27.19 14.21 28.20 14.26 29.21 C 14.63 29.20 15.37 29.20 15.74 29.19 C 15.68 32.54 17.11 35.88 19.43 38.26 L 19.45 38.67 C 15.94 40.47 16.23 44.43 14.84 47.57 C 13.09 47.87 11.34 48.15 9.60 48.47 C 9.24 48.20 8.53 47.64 8.17 47.36 C 8.44 45.60 8.61 43.82 9.03 42.09 C 9.48 41.81 10.39 41.27 10.84 41.00 C 11.35 42.04 11.87 43.07 12.41 44.08 C 13.84 42.80 15.31 41.53 16.51 40.03 C 15.03 38.66 15.86 36.72 16.12 35.04 C 14.51 34.62 13.71 35.28 13.71 37.01 C 11.82 34.29 10.90 31.20 12.08 27.97 Z" />
</g>
<g id="#c0c0c0ff">
<path fill="#c0c0c0" opacity="1.00" d=" M 9.50 30.43 C 11.53 31.06 11.46 29.31 12.08 27.97 C 10.90 31.20 11.82 34.29 13.71 37.01 C 13.54 38.82 12.42 40.19 10.84 41.00 C 10.39 41.27 9.48 41.81 9.03 42.09 C 8.61 43.82 8.44 45.60 8.17 47.36 C 7.43 46.52 6.75 45.64 6.11 44.72 C 5.85 42.92 7.07 41.67 8.25 40.52 C 7.20 40.48 6.15 40.44 5.10 40.34 C 5.01 39.68 4.82 38.36 4.73 37.70 C 6.52 35.51 9.24 33.50 9.50 30.43 M 8.16 39.89 C 8.82 39.87 10.13 39.82 10.79 39.80 C 12.52 38.88 11.72 36.69 12.05 35.12 C 9.99 36.00 8.46 37.60 8.16 39.89 Z" />
</g>
<g id="#9c9c9cff">
<path fill="#9c9c9c" opacity="1.00" d=" M 55.08 32.20 C 57.60 34.04 58.84 37.19 59.64 40.10 C 59.20 41.69 59.56 43.20 60.29 44.64 C 58.51 45.63 57.10 47.13 55.81 48.69 C 56.53 48.98 57.96 49.56 58.68 49.85 L 58.58 50.49 C 56.38 50.40 54.26 50.91 52.52 52.30 C 52.59 53.19 52.67 54.08 52.76 54.97 C 50.94 54.67 49.11 54.67 47.34 55.24 C 47.22 56.04 46.98 57.65 46.87 58.46 C 46.36 58.52 45.36 58.65 44.85 58.71 C 44.81 58.09 44.72 56.84 44.68 56.22 C 44.76 55.40 44.92 53.75 45.01 52.93 C 45.30 52.75 45.89 52.39 46.18 52.21 C 48.87 52.13 50.93 50.83 52.25 48.52 C 53.17 49.08 54.10 49.65 55.02 50.21 C 54.80 49.19 54.59 48.17 54.40 47.15 C 55.13 46.71 55.85 46.26 56.56 45.80 C 56.15 44.73 55.61 43.73 55.09 42.72 L 54.59 41.77 C 55.77 41.67 56.96 41.58 58.15 41.43 C 57.63 40.24 56.53 39.51 55.70 38.56 C 55.18 37.18 55.76 35.66 56.20 34.33 C 55.85 33.60 55.48 32.89 55.08 32.20 Z" />
</g>
<g id="#d6d6d6ff">
<path fill="#d6d6d6" opacity="1.00" d=" M 8.16 39.89 C 8.46 37.60 9.99 36.00 12.05 35.12 C 11.72 36.69 12.52 38.88 10.79 39.80 C 10.13 39.82 8.82 39.87 8.16 39.89 Z" />
</g>
<g id="#e3e3e3ff">
<path fill="#e3e3e3" opacity="1.00" d=" M 13.71 37.01 C 13.71 35.28 14.51 34.62 16.12 35.04 C 15.86 36.72 15.03 38.66 16.51 40.03 C 15.31 41.53 13.84 42.80 12.41 44.08 C 11.87 43.07 11.35 42.04 10.84 41.00 C 12.42 40.19 13.54 38.82 13.71 37.01 Z" />
</g>
<g id="#292c0aff">
<path fill="#292c0a" opacity="1.00" d=" M 19.48 35.49 C 21.37 35.47 23.26 35.56 25.15 35.35 C 23.78 35.89 22.41 36.46 21.17 37.27 C 21.01 38.97 22.30 40.41 22.69 42.03 C 21.07 44.58 21.99 47.32 23.60 49.62 C 25.86 49.92 28.07 48.37 30.33 48.01 C 30.40 50.06 30.34 52.11 30.45 54.16 C 31.10 52.58 31.55 50.90 32.40 49.41 C 34.44 47.52 37.10 46.33 38.56 43.84 C 39.95 44.08 41.31 44.51 42.68 44.87 C 43.08 41.72 42.51 38.58 42.06 35.47 C 42.69 35.51 43.95 35.60 44.58 35.64 C 44.58 37.83 44.56 40.01 44.61 42.20 C 44.56 43.37 44.57 44.55 44.57 45.72 C 43.61 48.25 42.01 50.36 40.10 52.24 C 39.67 53.69 39.64 55.23 39.39 56.72 C 37.34 57.52 35.81 55.48 34.11 54.71 C 33.37 55.80 32.70 56.95 31.86 57.98 C 28.77 57.73 28.06 54.59 27.21 52.18 C 26.85 52.26 26.14 52.41 25.79 52.49 C 25.16 53.43 24.55 54.37 23.95 55.33 C 20.54 51.61 20.14 46.55 19.44 41.80 C 19.44 41.02 19.45 39.45 19.45 38.67 L 19.43 38.26 C 19.44 37.57 19.46 36.18 19.48 35.49 Z" />
</g>
<g id="#434519ff">
<path fill="#434519" opacity="1.00" d=" M 25.15 35.35 C 30.79 35.16 36.43 35.17 42.06 35.47 C 42.51 38.58 43.08 41.72 42.68 44.87 C 41.31 44.51 39.95 44.08 38.56 43.84 C 37.10 46.33 34.44 47.52 32.40 49.41 C 31.55 50.90 31.10 52.58 30.45 54.16 C 30.34 52.11 30.40 50.06 30.33 48.01 C 28.07 48.37 25.86 49.92 23.60 49.62 C 21.99 47.32 21.07 44.58 22.69 42.03 C 22.30 40.41 21.01 38.97 21.17 37.27 C 22.41 36.46 23.78 35.89 25.15 35.35 Z" />
</g>
<g id="#828282f9">
<path fill="#828282" opacity="0.98" d=" M 3.80 39.97 C 4.03 39.41 4.50 38.27 4.73 37.70 C 4.82 38.36 5.01 39.68 5.10 40.34 C 6.15 40.44 7.20 40.48 8.25 40.52 C 7.07 41.67 5.85 42.92 6.11 44.72 C 6.75 45.64 7.43 46.52 8.17 47.36 C 8.53 47.64 9.24 48.20 9.60 48.47 C 10.03 48.80 10.89 49.46 11.31 49.78 C 11.47 50.17 11.77 50.96 11.93 51.35 L 12.16 51.92 C 12.52 52.93 13.15 53.81 13.75 54.68 C 14.49 54.63 15.23 54.58 15.97 54.53 C 16.51 55.90 16.40 57.26 15.66 58.61 C 14.88 58.17 14.34 57.51 14.05 56.63 C 13.44 56.68 12.22 56.78 11.62 56.82 C 11.42 56.72 11.02 56.52 10.82 56.42 C 10.67 54.86 10.93 53.21 10.44 51.70 C 9.23 50.27 7.63 49.34 5.73 49.26 L 5.26 49.13 C 4.11 47.35 2.96 44.67 4.43 42.77 C 4.27 42.07 3.96 40.67 3.80 39.97 Z" />
</g>
<g id="#dddcddff">
<path fill="#dddcdd" opacity="1.00" d=" M 14.84 47.57 C 16.23 44.43 15.94 40.47 19.45 38.67 C 19.45 39.45 19.44 41.02 19.44 41.80 C 19.24 44.96 19.44 48.13 19.43 51.29 C 17.34 50.63 16.77 48.35 14.84 47.57 Z" />
</g>
<g id="#0c0f01ff">
<path fill="#0c0f01" opacity="1.00" d=" M 19.44 41.80 C 20.14 46.55 20.54 51.61 23.95 55.33 C 24.55 54.37 25.16 53.43 25.79 52.49 C 26.14 52.41 26.85 52.26 27.21 52.18 C 28.06 54.59 28.77 57.73 31.86 57.98 C 32.70 56.95 33.37 55.80 34.11 54.71 C 35.81 55.48 37.34 57.52 39.39 56.72 C 39.64 55.23 39.67 53.69 40.10 52.24 C 42.01 50.36 43.61 48.25 44.57 45.72 C 44.01 49.22 44.28 52.71 44.68 56.22 C 44.72 56.84 44.81 58.09 44.85 58.71 C 45.36 58.65 46.36 58.52 46.87 58.46 C 47.50 58.38 48.76 58.23 49.39 58.16 C 45.45 59.80 41.30 60.87 36.99 60.60 C 31.27 60.21 25.52 60.89 19.81 60.21 C 18.72 59.08 17.28 58.91 15.81 59.34 C 14.55 58.23 12.87 57.87 11.62 56.82 C 12.22 56.78 13.44 56.68 14.05 56.63 C 14.34 57.51 14.88 58.17 15.66 58.61 C 16.57 58.54 18.40 58.42 19.32 58.35 C 19.35 56.00 19.42 53.64 19.43 51.29 C 19.44 48.13 19.24 44.96 19.44 41.80 Z" />
</g>
<g id="#d9d9d9ff">
<path fill="#d9d9d9" opacity="1.00" d=" M 48.45 41.98 C 50.49 41.87 52.54 41.87 54.59 41.77 L 55.09 42.72 C 55.08 43.47 55.08 44.98 55.08 45.74 C 52.89 44.45 50.28 43.82 48.45 41.98 Z" />
</g>
<g id="#efefefff">
<path fill="#efefef" opacity="1.00" d=" M 45.16 44.14 C 46.77 43.67 47.30 44.24 46.76 45.85 C 45.11 46.41 44.58 45.83 45.16 44.14 Z" />
</g>
<g id="#727272ff">
<path fill="#727272" opacity="1.00" d=" M 55.81 48.69 C 57.10 47.13 58.51 45.63 60.29 44.64 L 59.85 45.99 C 58.79 46.70 58.52 47.68 59.04 48.91 L 59.30 50.08 L 58.68 49.85 C 57.96 49.56 56.53 48.98 55.81 48.69 Z" />
</g>
<g id="#e2e2e3ff">
<path fill="#e2e2e3" opacity="1.00" d=" M 48.05 45.97 C 49.46 45.08 51.62 47.25 50.85 48.69 C 49.46 49.57 47.08 47.44 48.05 45.97 Z" />
</g>
<g id="#1c1c1c93">
<path fill="#1c1c1c" opacity="0.58" d=" M 59.04 48.91 C 58.52 47.68 58.79 46.70 59.85 45.99 C 60.56 47.49 60.29 48.47 59.04 48.91 Z" />
</g>
<g id="#b2b2b3ff">
<path fill="#b2b2b3" opacity="1.00" d=" M 9.60 48.47 C 11.34 48.15 13.09 47.87 14.84 47.57 C 16.77 48.35 17.34 50.63 19.43 51.29 C 19.42 53.64 19.35 56.00 19.32 58.35 C 18.40 58.42 16.57 58.54 15.66 58.61 C 16.40 57.26 16.51 55.90 15.97 54.53 C 15.23 54.58 14.49 54.63 13.75 54.68 C 13.15 53.81 12.52 52.93 12.16 51.92 C 13.49 52.09 15.70 51.12 14.84 49.48 C 13.55 48.77 12.72 50.65 11.93 51.35 C 11.77 50.96 11.47 50.17 11.31 49.78 C 10.89 49.46 10.03 48.80 9.60 48.47 Z" />
</g>
<g id="#5d5d5dec">
<path fill="#5d5d5d" opacity="0.93" d=" M 5.73 49.26 C 7.63 49.34 9.23 50.27 10.44 51.70 C 10.93 53.21 10.67 54.86 10.82 56.42 C 10.05 55.65 9.61 54.72 9.50 53.62 C 7.65 52.84 4.87 51.84 5.73 49.26 Z" />
</g>
<g id="#d2d2d2ff">
<path fill="#d2d2d2" opacity="1.00" d=" M 11.93 51.35 C 12.72 50.65 13.55 48.77 14.84 49.48 C 15.70 51.12 13.49 52.09 12.16 51.92 L 11.93 51.35 Z" />
</g>
<g id="#d9d9daff">
<path fill="#d9d9da" opacity="1.00" d=" M 45.01 52.93 C 45.00 51.30 44.98 49.67 45.03 48.04 C 46.74 48.72 47.16 50.76 46.18 52.21 C 45.89 52.39 45.30 52.75 45.01 52.93 Z" />
</g>
<g id="#6c6c6cfc">
<path fill="#6c6c6c" opacity="1.00" d=" M 52.52 52.30 C 54.26 50.91 56.38 50.40 58.58 50.49 C 58.00 51.53 57.19 52.26 56.17 52.67 C 54.92 52.77 54.19 53.40 53.98 54.56 L 53.89 55.91 C 53.23 55.99 51.93 56.16 51.27 56.24 L 50.94 56.76 C 50.55 57.11 49.78 57.81 49.39 58.16 C 48.76 58.23 47.50 58.38 46.87 58.46 C 46.98 57.65 47.22 56.04 47.34 55.24 C 49.11 54.67 50.94 54.67 52.76 54.97 C 52.67 54.08 52.59 53.19 52.52 52.30 Z" />
</g>
<g id="#383838c8">
<path fill="#383838" opacity="0.78" d=" M 53.98 54.56 C 54.19 53.40 54.92 52.77 56.17 52.67 C 56.35 54.03 55.62 54.66 53.98 54.56 Z" />
</g>
<g id="#0d0d0c73">
<path fill="#0d0d0c" opacity="0.45" d=" M 51.27 56.24 C 51.93 56.16 53.23 55.99 53.89 55.91 C 53.38 57.36 52.40 57.65 50.94 56.76 L 51.27 56.24 Z" />
</g>
</svg>
