<?xml version="1.0" encoding="UTF-8" ?>
<!DOCTYPE svg PUBLIC "-//W3C//DTD SVG 1.1//EN" "http://www.w3.org/Graphics/SVG/1.1/DTD/svg11.dtd">
<svg width="64pt" height="64pt" viewBox="0 0 64 64" version="1.1" xmlns="http://www.w3.org/2000/svg">
<g id="#2c5300ff">
<path fill="#2c5300" opacity="1.00" d=" M 5.04 6.98 C 11.84 4.44 19.77 2.85 26.56 6.28 C 23.28 7.07 19.95 7.60 16.64 8.25 C 16.62 8.64 16.60 9.44 16.59 9.83 C 14.71 10.49 12.88 11.30 11.28 12.49 L 10.53 13.05 C 7.77 12.30 5.37 9.87 5.04 6.98 Z" />
</g>
<g id="#234d08f4">
<path fill="#234d08" opacity="0.96" d=" M 26.56 6.28 C 28.16 6.81 29.41 8.09 30.68 9.16 C 30.86 7.66 31.67 6.87 33.13 6.78 C 33.21 7.29 33.36 8.30 33.43 8.81 C 35.70 7.70 38.16 6.97 40.65 6.59 C 42.62 7.30 44.69 8.00 46.17 9.56 C 41.40 8.81 36.39 8.99 31.90 10.90 C 27.24 8.41 21.58 8.46 16.59 9.83 C 16.60 9.44 16.62 8.64 16.64 8.25 C 19.95 7.60 23.28 7.07 26.56 6.28 Z" />
</g>
<g id="#3d7400ff">
<path fill="#3d7400" opacity="1.00" d=" M 40.65 6.59 C 47.63 5.27 54.98 8.12 58.95 14.06 C 58.18 14.46 56.65 15.27 55.88 15.67 C 53.69 12.93 50.63 10.70 47.12 10.10 L 46.78 10.01 L 46.17 9.56 C 44.69 8.00 42.62 7.30 40.65 6.59 Z" />
</g>
<g id="#c9857eff">
<path fill="#c9857e" opacity="1.00" d=" M 16.59 9.83 C 21.58 8.46 27.24 8.41 31.90 10.90 C 36.39 8.99 41.40 8.81 46.17 9.56 L 46.78 10.01 C 41.84 10.46 36.61 9.69 32.08 12.19 C 26.58 10.36 19.86 8.92 14.87 12.73 C 13.66 13.46 12.45 14.17 11.27 14.94 C 11.30 14.12 11.30 13.31 11.28 12.49 C 12.88 11.30 14.71 10.49 16.59 9.83 Z" />
</g>
<g id="#f1af91ff">
<path fill="#f1af91" opacity="1.00" d=" M 32.08 12.19 C 36.61 9.69 41.84 10.46 46.78 10.01 L 47.12 10.10 C 50.61 11.68 53.29 14.57 55.34 17.74 C 55.41 19.89 55.75 22.11 55.21 24.22 C 52.20 27.15 47.08 24.76 44.46 28.22 C 42.63 25.07 40.45 22.14 37.84 19.60 C 37.72 22.86 38.49 26.29 37.34 29.43 C 36.19 31.05 34.22 29.77 32.63 29.96 C 27.89 30.58 23.10 30.27 18.33 30.54 C 15.66 30.67 12.56 30.41 10.69 28.24 C 8.74 24.09 8.76 18.86 11.27 14.94 C 12.45 14.17 13.66 13.46 14.87 12.73 C 13.73 16.31 11.90 20.09 13.33 23.87 C 15.35 23.48 17.22 22.59 19.08 21.75 C 24.26 24.29 29.99 25.42 35.73 25.66 C 37.88 21.09 35.55 15.47 32.08 12.19 M 35.07 12.07 C 35.88 14.03 36.99 15.94 38.65 17.30 C 41.40 18.26 44.16 19.24 47.01 19.88 C 48.77 19.78 52.31 19.10 51.49 16.62 C 50.32 13.36 46.75 12.05 43.72 11.12 C 40.83 9.91 37.91 11.57 35.07 12.07 Z" />
</g>
<g id="#dd5b43ff">
<path fill="#dd5b43" opacity="1.00" d=" M 47.12 10.10 C 50.63 10.70 53.69 12.93 55.88 15.67 C 58.59 18.81 59.90 22.91 60.54 26.94 C 59.64 31.12 59.03 35.72 55.96 38.97 C 52.79 42.24 48.74 45.09 44.13 45.65 C 42.35 45.85 41.49 44.09 40.48 42.99 C 40.74 40.55 40.79 38.09 40.74 35.64 C 39.60 39.70 39.14 43.92 37.91 47.97 C 34.93 48.18 31.94 47.39 28.99 48.16 C 25.32 49.01 21.70 47.10 18.03 47.81 C 16.82 47.79 15.43 48.54 14.35 47.68 C 11.53 45.84 9.15 43.39 6.18 41.78 C 3.74 38.88 3.40 34.73 3.26 31.06 C 3.14 26.15 3.78 20.74 6.98 16.84 C 6.70 20.18 6.03 23.45 5.45 26.75 C 5.17 29.16 5.13 32.05 7.14 33.78 C 9.80 35.85 12.67 37.67 15.75 39.06 C 16.21 38.72 17.13 38.05 17.59 37.72 C 18.23 38.26 18.82 38.86 19.45 39.42 C 22.31 39.43 24.93 38.26 27.49 37.13 C 30.27 38.91 33.62 38.97 36.80 38.74 C 39.30 38.00 39.17 34.91 39.46 32.83 C 39.65 29.85 39.48 26.85 39.44 23.87 C 40.04 25.46 40.62 27.06 41.12 28.69 C 41.61 31.91 41.13 36.53 44.83 38.00 C 49.25 35.87 52.93 32.54 57.20 30.16 C 59.46 29.21 58.65 26.46 58.32 24.61 C 57.65 22.20 56.75 19.83 55.34 17.74 C 53.29 14.57 50.61 11.68 47.12 10.10 Z" />
</g>
<g id="#f5c5baff">
<path fill="#f5c5ba" opacity="1.00" d=" M 14.87 12.73 C 19.86 8.92 26.58 10.36 32.08 12.19 C 35.55 15.47 37.88 21.09 35.73 25.66 C 29.99 25.42 24.26 24.29 19.08 21.75 C 17.22 22.59 15.35 23.48 13.33 23.87 C 11.90 20.09 13.73 16.31 14.87 12.73 Z" />
</g>
<g id="#f4beb5ff">
<path fill="#f4beb5" opacity="1.00" d=" M 35.07 12.07 C 37.91 11.57 40.83 9.91 43.72 11.12 C 46.75 12.05 50.32 13.36 51.49 16.62 C 52.31 19.10 48.77 19.78 47.01 19.88 C 44.16 19.24 41.40 18.26 38.65 17.30 C 36.99 15.94 35.88 14.03 35.07 12.07 Z" />
</g>
<g id="#ec956eff">
<path fill="#ec956e" opacity="1.00" d=" M 10.53 13.05 L 11.28 12.49 C 11.30 13.31 11.30 14.12 11.27 14.94 C 8.76 18.86 8.74 24.09 10.69 28.24 C 12.56 30.41 15.66 30.67 18.33 30.54 C 23.10 30.27 27.89 30.58 32.63 29.96 C 34.22 29.77 36.19 31.05 37.34 29.43 C 38.49 26.29 37.72 22.86 37.84 19.60 C 40.45 22.14 42.63 25.07 44.46 28.22 C 47.08 24.76 52.20 27.15 55.21 24.22 C 55.75 22.11 55.41 19.89 55.34 17.74 C 56.75 19.83 57.65 22.20 58.32 24.61 C 57.27 26.04 56.42 27.83 54.59 28.39 C 51.53 29.58 48.73 31.31 45.78 32.72 C 43.21 33.50 42.41 30.19 41.12 28.69 C 40.62 27.06 40.04 25.46 39.44 23.87 C 39.48 26.85 39.65 29.85 39.46 32.83 C 38.50 33.59 37.51 34.32 36.53 35.06 C 31.51 34.00 26.49 35.51 21.45 35.46 C 15.04 35.75 8.36 32.71 5.45 26.75 C 6.03 23.45 6.70 20.18 6.98 16.84 C 7.72 15.26 9.21 14.15 10.53 13.05 Z" />
</g>
<g id="#e57858ff">
<path fill="#e57858" opacity="1.00" d=" M 54.59 28.39 C 56.42 27.83 57.27 26.04 58.32 24.61 C 58.65 26.46 59.46 29.21 57.20 30.16 C 52.93 32.54 49.25 35.87 44.83 38.00 C 41.13 36.53 41.61 31.91 41.12 28.69 C 42.41 30.19 43.21 33.50 45.78 32.72 C 48.73 31.31 51.53 29.58 54.59 28.39 Z" />
</g>
<g id="#e77e5cff">
<path fill="#e77e5c" opacity="1.00" d=" M 7.14 33.78 C 5.13 32.05 5.17 29.16 5.45 26.75 C 8.36 32.71 15.04 35.75 21.45 35.46 C 26.49 35.51 31.51 34.00 36.53 35.06 C 37.51 34.32 38.50 33.59 39.46 32.83 C 39.17 34.91 39.30 38.00 36.80 38.74 C 33.62 38.97 30.27 38.91 27.49 37.13 C 24.93 38.26 22.31 39.43 19.45 39.42 C 18.82 38.86 18.23 38.26 17.59 37.72 C 17.13 38.05 16.21 38.72 15.75 39.06 C 12.67 37.67 9.80 35.85 7.14 33.78 Z" />
</g>
<g id="#cf3d2fff">
<path fill="#cf3d2f" opacity="1.00" d=" M 60.54 26.94 C 62.25 35.60 57.93 43.96 51.46 49.47 C 47.23 49.60 43.25 52.01 39.00 51.23 C 38.99 48.41 39.72 45.69 40.48 42.99 C 41.49 44.09 42.35 45.85 44.13 45.65 C 48.74 45.09 52.79 42.24 55.96 38.97 C 59.03 35.72 59.64 31.12 60.54 26.94 Z" />
</g>
<g id="#ad211cff">
<path fill="#ad211c" opacity="1.00" d=" M 37.91 47.97 C 39.14 43.92 39.60 39.70 40.74 35.64 C 40.79 38.09 40.74 40.55 40.48 42.99 C 39.72 45.69 38.99 48.41 39.00 51.23 C 43.25 52.01 47.23 49.60 51.46 49.47 C 46.60 54.17 40.70 57.59 34.78 60.73 C 31.60 60.92 28.70 60.05 26.02 58.38 C 21.57 56.31 17.40 53.55 13.71 50.31 C 20.47 52.81 27.89 52.95 35.00 52.35 C 37.10 52.23 37.22 49.48 37.91 47.97 Z" />
</g>
<g id="#ce392dff">
<path fill="#ce392d" opacity="1.00" d=" M 6.18 41.78 C 9.15 43.39 11.53 45.84 14.35 47.68 C 15.43 48.54 16.82 47.79 18.03 47.81 C 21.70 47.10 25.32 49.01 28.99 48.16 C 31.94 47.39 34.93 48.18 37.91 47.97 C 37.22 49.48 37.10 52.23 35.00 52.35 C 27.89 52.95 20.47 52.81 13.71 50.31 C 10.76 47.94 7.87 45.19 6.18 41.78 Z" />
</g>
<g id="#00000086">
<path fill="#000000" opacity="0.53" d=" M 26.02 58.38 C 28.70 60.05 31.60 60.92 34.78 60.73 C 36.70 60.63 40.53 62.13 40.30 58.85 C 44.75 60.25 49.49 59.19 53.97 60.41 C 51.60 60.02 49.26 60.25 47.04 61.18 C 36.41 61.67 25.47 62.70 15.05 60.36 C 14.27 60.39 12.71 60.44 11.93 60.47 C 16.44 58.78 21.56 60.33 26.02 58.38 Z" />
</g>
</svg>
