<?xml version="1.0" encoding="UTF-8" ?>
<!DOCTYPE svg PUBLIC "-//W3C//DTD SVG 1.1//EN" "http://www.w3.org/Graphics/SVG/1.1/DTD/svg11.dtd">
<svg width="64pt" height="64pt" viewBox="0 0 64 64" version="1.1" xmlns="http://www.w3.org/2000/svg">
<g id="#0202020c">
<path fill="#020202" opacity="0.05" d=" M 0.00 0.00 L 64.00 0.00 L 64.00 64.00 L 0.00 64.00 L 0.00 0.00 M 24.73 7.71 C 15.43 9.22 11.39 18.36 5.25 24.23 C 2.48 26.67 4.98 30.78 4.41 33.68 C 5.52 38.98 6.52 44.63 10.02 48.99 C 19.05 62.59 40.86 63.50 51.83 51.83 C 58.18 44.65 60.48 34.60 59.87 25.22 C 56.81 22.20 52.65 20.24 50.87 16.09 C 45.49 7.50 33.95 5.63 24.73 7.71 Z" />
</g>
<g id="#bfbfbffe">
<path fill="#bfbfbf" opacity="1.00" d=" M 24.73 7.71 C 33.95 5.63 45.49 7.50 50.87 16.09 C 52.65 20.24 56.81 22.20 59.87 25.22 C 60.48 34.60 58.18 44.65 51.83 51.83 C 40.86 63.50 19.05 62.59 10.02 48.99 C 6.52 44.63 5.52 38.98 4.41 33.68 C 4.98 30.78 2.48 26.67 5.25 24.23 C 11.39 18.36 15.43 9.22 24.73 7.71 Z" />
</g>
</svg>
