<?xml version="1.0" encoding="UTF-8" ?>
<!DOCTYPE svg PUBLIC "-//W3C//DTD SVG 1.1//EN" "http://www.w3.org/Graphics/SVG/1.1/DTD/svg11.dtd">
<svg width="64pt" height="64pt" viewBox="0 0 64 64" version="1.1" xmlns="http://www.w3.org/2000/svg">
<g id="#e9e1d0fc">
<path fill="#e9e1d0" opacity="1.00" d=" M 7.99 7.93 C 11.03 6.89 12.99 3.97 16.05 3.00 C 18.37 2.98 20.29 4.70 21.87 6.23 C 23.38 9.63 19.62 13.19 22.14 16.23 C 21.15 17.27 20.03 18.18 18.96 19.13 C 16.99 18.95 15.07 18.47 13.17 17.93 C 8.55 18.16 5.72 14.68 3.83 11.10 C 3.33 8.47 6.52 8.93 7.99 7.93 Z" />
</g>
<g id="#bfaa86f5">
<path fill="#bfaa86" opacity="0.96" d=" M 6.02 17.96 C 3.61 17.70 1.69 11.50 3.83 11.10 C 5.72 14.68 8.55 18.16 13.17 17.93 C 11.38 17.93 7.81 17.95 6.02 17.96 Z" />
</g>
<g id="#904618f0">
<path fill="#904618" opacity="0.94" d=" M 22.14 16.23 C 26.11 9.17 37.93 9.11 41.11 16.93 C 43.08 21.54 48.82 22.78 51.04 27.05 C 50.58 26.99 49.67 26.86 49.21 26.80 C 45.63 23.73 41.77 20.89 39.01 17.00 C 37.54 14.80 35.59 12.69 32.94 12.03 C 26.99 12.48 23.27 17.49 19.14 21.16 C 18.59 21.11 17.48 20.99 16.93 20.94 C 17.61 20.34 18.29 19.73 18.96 19.13 C 20.03 18.18 21.15 17.27 22.14 16.23 Z" />
</g>
<g id="#ce7332ff">
<path fill="#ce7332" opacity="1.00" d=" M 19.14 21.16 C 23.27 17.49 26.99 12.48 32.94 12.03 C 35.59 12.69 37.54 14.80 39.01 17.00 C 41.77 20.89 45.63 23.73 49.21 26.80 C 51.73 29.66 49.48 33.38 48.23 36.27 C 44.83 39.65 40.83 42.88 35.99 43.84 C 29.23 41.89 24.54 36.54 18.19 33.80 C 16.44 31.91 13.96 29.90 14.02 27.07 C 14.58 24.28 17.21 22.93 19.14 21.16 M 29.27 14.29 C 25.62 16.10 22.11 19.85 21.15 23.72 C 26.58 25.09 28.04 31.39 32.74 34.05 C 32.59 30.22 36.62 33.71 37.32 35.52 C 39.58 34.77 41.70 35.98 43.94 35.94 C 45.12 35.35 47.78 35.33 46.73 33.38 C 44.23 32.38 43.70 29.54 44.55 27.22 C 42.75 24.78 40.85 22.44 38.41 20.62 C 36.13 17.72 33.84 12.54 29.27 14.29 Z" />
</g>
<g id="#e39a4bff">
<path fill="#e39a4b" opacity="1.00" d=" M 29.27 14.29 C 33.84 12.54 36.13 17.72 38.41 20.62 C 40.85 22.44 42.75 24.78 44.55 27.22 C 43.70 29.54 44.23 32.38 46.73 33.38 C 47.78 35.33 45.12 35.35 43.94 35.94 C 41.70 35.98 39.58 34.77 37.32 35.52 C 36.62 33.71 32.59 30.22 32.74 34.05 C 28.04 31.39 26.58 25.09 21.15 23.72 C 22.11 19.85 25.62 16.10 29.27 14.29 Z" />
</g>
<g id="#927e60ec">
<path fill="#927e60" opacity="0.93" d=" M 6.02 17.96 C 7.81 17.95 11.38 17.93 13.17 17.93 C 15.07 18.47 16.99 18.95 18.96 19.13 C 18.29 19.73 17.61 20.34 16.93 20.94 L 16.18 21.27 C 13.59 18.29 9.56 19.31 6.03 18.90 L 6.02 17.96 Z" />
</g>
<g id="#a64916ff">
<path fill="#a64916" opacity="1.00" d=" M 16.18 21.27 L 16.93 20.94 C 17.48 20.99 18.59 21.11 19.14 21.16 C 17.21 22.93 14.58 24.28 14.02 27.07 C 13.96 29.90 16.44 31.91 18.19 33.80 C 24.54 36.54 29.23 41.89 35.99 43.84 C 40.83 42.88 44.83 39.65 48.23 36.27 C 49.48 33.38 51.73 29.66 49.21 26.80 C 49.67 26.86 50.58 26.99 51.04 27.05 C 52.07 27.15 52.63 27.70 52.72 28.71 C 54.17 34.14 49.66 37.88 46.80 41.90 C 42.89 44.23 39.71 47.63 35.66 49.71 C 31.91 51.14 27.74 50.54 24.28 48.73 C 21.62 45.64 20.26 41.56 17.23 38.77 C 15.23 36.41 12.14 34.63 11.52 31.37 C 10.02 28.27 13.29 25.80 14.08 22.99 C 14.51 22.17 15.21 21.59 16.18 21.27 Z" />
</g>
<g id="#722b05f0">
<path fill="#722b05" opacity="0.94" d=" M 9.10 33.82 C 8.74 29.66 9.94 24.80 14.08 22.99 C 13.29 25.80 10.02 28.27 11.52 31.37 C 12.14 34.63 15.23 36.41 17.23 38.77 C 20.26 41.56 21.62 45.64 24.28 48.73 C 27.74 50.54 31.91 51.14 35.66 49.71 C 39.71 47.63 42.89 44.23 46.80 41.90 C 47.09 42.38 47.68 43.35 47.98 43.84 C 45.09 44.31 43.08 46.27 41.75 48.77 C 36.98 49.11 34.25 54.66 28.99 53.02 C 25.11 53.86 22.53 50.37 20.39 47.70 C 18.85 41.61 13.84 37.49 9.10 33.82 Z" />
</g>
<g id="#712b05eb">
<path fill="#712b05" opacity="0.92" d=" M 46.80 41.90 C 49.66 37.88 54.17 34.14 52.72 28.71 C 57.20 33.11 51.15 37.93 48.76 41.84 C 48.27 41.85 47.29 41.88 46.80 41.90 Z" />
</g>
<g id="#cdba8dfd">
<path fill="#cdba8d" opacity="1.00" d=" M 41.75 48.77 C 43.08 46.27 45.09 44.31 47.98 43.84 C 51.24 43.88 54.55 43.78 57.80 44.18 C 59.56 45.91 61.41 48.20 60.94 50.84 C 58.37 53.07 54.70 54.47 53.63 58.00 C 52.78 58.73 51.93 59.47 51.06 60.18 C 49.42 60.08 47.79 60.01 46.15 59.93 C 45.55 59.26 44.94 58.60 44.33 57.93 L 44.02 57.07 C 44.92 54.25 44.65 51.96 43.20 50.18 C 42.84 49.83 42.11 49.12 41.75 48.77 Z" />
</g>
<g id="#8e774fe9">
<path fill="#8e774f" opacity="0.91" d=" M 43.20 50.18 C 44.65 51.96 44.92 54.25 44.02 57.07 L 43.46 57.12 C 42.53 55.01 42.67 52.38 43.20 50.18 Z" />
</g>
<g id="#00000027">
<path fill="#000000" opacity="0.15" d=" M 15.95 59.14 C 25.02 57.76 34.27 56.88 43.46 57.12 C 37.86 57.90 32.20 58.12 26.67 59.33 C 34.37 62.58 43.14 60.41 51.23 60.84 L 50.94 61.89 C 40.30 62.14 29.62 62.44 19.06 60.83 C 18.00 60.45 16.34 60.38 15.95 59.14 Z" />
</g>
<g id="#08060472">
<path fill="#080604" opacity="0.45" d=" M 43.46 57.12 L 44.02 57.07 L 44.33 57.93 C 41.79 58.61 38.93 58.41 36.63 59.80 C 39.80 59.95 42.98 60.00 46.15 59.93 C 47.79 60.01 49.42 60.08 51.06 60.18 L 51.23 60.84 C 43.14 60.41 34.37 62.58 26.67 59.33 C 32.20 58.12 37.86 57.90 43.46 57.12 Z" />
</g>
<g id="#17120bac">
<path fill="#17120b" opacity="0.67" d=" M 44.33 57.93 C 44.94 58.60 45.55 59.26 46.15 59.93 C 42.98 60.00 39.80 59.95 36.63 59.80 C 38.93 58.41 41.79 58.61 44.33 57.93 Z" />
</g>
<g id="#0b09063f">
<path fill="#0b0906" opacity="0.25" d=" M 51.06 60.18 C 51.93 59.47 52.78 58.73 53.63 58.00 C 56.42 59.31 53.11 62.24 51.23 60.84 L 51.06 60.18 Z" />
</g>
</svg>
