<?xml version="1.0" encoding="UTF-8" ?>
<!DOCTYPE svg PUBLIC "-//W3C//DTD SVG 1.1//EN" "http://www.w3.org/Graphics/SVG/1.1/DTD/svg11.dtd">
<svg width="64pt" height="64pt" viewBox="0 0 64 64" version="1.1" xmlns="http://www.w3.org/2000/svg">
<g id="#8ea340e8">
<path fill="#8ea340" opacity="0.91" d=" M 25.28 2.03 C 27.14 3.50 29.63 5.09 29.02 7.84 C 27.01 8.04 25.04 8.46 23.13 9.11 C 22.60 6.50 24.45 4.35 25.28 2.03 Z" />
</g>
<g id="#a0b34cf3">
<path fill="#a0b34c" opacity="0.95" d=" M 30.55 11.22 C 32.90 7.79 37.15 6.09 41.00 4.93 C 41.00 5.42 40.99 6.41 40.98 6.90 C 38.65 10.61 34.52 11.04 30.55 11.22 Z" />
</g>
<g id="#6a8728f6">
<path fill="#6a8728" opacity="0.96" d=" M 30.55 11.22 C 34.52 11.04 38.65 10.61 40.98 6.90 C 40.61 8.13 41.86 10.76 40.04 10.99 C 36.68 11.48 35.15 15.96 30.96 13.96 C 28.36 14.83 29.21 12.83 29.76 11.28 L 30.55 11.22 Z" />
</g>
<g id="#738e2df6">
<path fill="#738e2d" opacity="0.96" d=" M 23.13 9.11 C 25.04 8.46 27.01 8.04 29.02 7.84 C 29.00 8.38 28.95 9.48 28.92 10.03 C 27.24 10.68 25.51 11.21 23.87 11.96 C 23.20 11.41 22.54 10.86 21.88 10.30 C 22.19 10.00 22.82 9.40 23.13 9.11 Z" />
</g>
<g id="#8ea53ef6">
<path fill="#8ea53e" opacity="0.96" d=" M 17.24 16.17 C 13.58 12.73 19.57 11.66 21.88 10.30 C 22.54 10.86 23.20 11.41 23.87 11.96 C 24.18 15.60 19.67 15.36 17.24 16.17 Z" />
</g>
<g id="#50691bfd">
<path fill="#50691b" opacity="1.00" d=" M 23.87 11.96 C 25.51 11.21 27.24 10.68 28.92 10.03 C 29.13 10.34 29.55 10.97 29.76 11.28 C 29.21 12.83 28.36 14.83 30.96 13.96 C 35.15 15.96 36.68 11.48 40.04 10.99 L 40.14 11.93 C 39.24 13.10 38.18 14.26 38.03 15.79 L 37.79 16.57 C 36.83 18.36 35.93 20.17 35.06 22.01 C 32.48 23.99 29.80 21.36 27.03 21.58 C 22.65 21.00 18.48 23.75 14.95 26.06 C 14.63 26.29 13.98 26.76 13.66 26.99 C 13.05 26.94 11.82 26.83 11.21 26.77 C 9.48 25.56 6.71 25.11 5.95 22.95 C 9.69 23.37 14.75 25.39 16.99 21.02 C 17.67 20.09 18.36 19.16 19.05 18.22 C 19.54 18.41 20.52 18.78 21.01 18.96 C 20.77 19.51 20.30 20.60 20.07 21.15 C 23.04 20.95 27.50 19.01 27.40 15.64 C 27.73 14.19 28.58 12.09 26.18 13.14 C 23.97 15.40 21.43 17.66 17.92 17.08 L 16.90 17.07 L 17.24 16.17 C 19.67 15.36 24.18 15.60 23.87 11.96 M 31.28 15.32 C 29.90 15.72 28.53 16.21 28.97 17.96 C 30.64 18.06 32.31 18.06 33.98 17.97 C 34.56 15.66 33.72 14.06 31.28 15.32 Z" />
</g>
<g id="#681d16f9">
<path fill="#681d16" opacity="0.98" d=" M 40.14 11.93 C 40.59 12.13 41.48 12.53 41.93 12.73 C 41.25 13.44 40.59 14.17 39.94 14.90 C 39.46 15.12 38.51 15.57 38.03 15.79 C 38.18 14.26 39.24 13.10 40.14 11.93 Z" />
</g>
<g id="#394410fb">
<path fill="#394410" opacity="1.00" d=" M 17.92 17.08 C 21.43 17.66 23.97 15.40 26.18 13.14 C 28.58 12.09 27.73 14.19 27.40 15.64 C 25.10 16.39 22.98 17.58 21.01 18.96 C 20.52 18.78 19.54 18.41 19.05 18.22 L 18.21 17.92 L 17.92 17.08 Z" />
</g>
<g id="#a52523f8">
<path fill="#a52523" opacity="0.97" d=" M 39.94 14.90 C 40.59 14.17 41.25 13.44 41.93 12.73 C 47.66 14.42 52.57 19.98 53.03 25.97 C 53.03 27.64 53.03 29.30 53.02 30.97 L 52.11 31.04 C 51.99 25.97 50.41 19.85 45.95 17.00 C 44.13 15.86 42.11 15.01 39.94 14.90 Z" />
</g>
<g id="#84a137ff">
<path fill="#84a137" opacity="1.00" d=" M 31.28 15.32 C 33.72 14.06 34.56 15.66 33.98 17.97 C 32.31 18.06 30.64 18.06 28.97 17.96 C 28.53 16.21 29.90 15.72 31.28 15.32 Z" />
</g>
<g id="#ef433fff">
<path fill="#ef433f" opacity="1.00" d=" M 38.03 15.79 C 38.51 15.57 39.46 15.12 39.94 14.90 C 42.11 15.01 44.13 15.86 45.95 17.00 C 47.50 20.15 47.53 23.76 49.40 26.78 C 49.77 30.11 46.65 31.11 44.31 32.45 C 44.22 36.22 44.04 39.99 43.78 43.75 C 40.73 48.62 34.04 45.23 30.83 42.16 C 33.83 42.82 36.64 45.04 39.76 44.85 C 45.53 40.78 40.47 33.93 39.50 28.63 C 35.93 22.78 42.11 24.53 44.67 22.84 C 45.37 18.95 41.27 16.43 37.79 16.57 L 38.03 15.79 Z" />
</g>
<g id="#719636ff">
<path fill="#719636" opacity="1.00" d=" M 21.01 18.96 C 22.98 17.58 25.10 16.39 27.40 15.64 C 27.50 19.01 23.04 20.95 20.07 21.15 C 20.30 20.60 20.77 19.51 21.01 18.96 Z" />
</g>
<g id="#f3514eff">
<path fill="#f3514e" opacity="1.00" d=" M 35.06 22.01 C 35.93 20.17 36.83 18.36 37.79 16.57 C 41.27 16.43 45.37 18.95 44.67 22.84 C 42.11 24.53 35.93 22.78 39.50 28.63 C 40.47 33.93 45.53 40.78 39.76 44.85 C 36.64 45.04 33.83 42.82 30.83 42.16 C 27.02 39.64 24.11 35.98 22.21 31.84 C 22.13 31.11 21.97 29.65 21.89 28.92 C 23.13 29.47 24.44 29.84 25.78 30.07 C 25.56 30.33 25.12 30.85 24.90 31.12 C 22.80 32.43 25.93 34.41 26.20 35.81 C 28.86 38.21 31.67 40.70 35.08 41.98 C 37.83 42.75 40.85 39.89 39.88 37.11 C 39.04 34.08 37.55 31.28 36.74 28.24 C 36.48 27.16 36.21 26.08 35.93 25.01 C 35.68 24.00 35.39 23.00 35.06 22.01 Z" />
</g>
<g id="#ca2c26ff">
<path fill="#ca2c26" opacity="1.00" d=" M 45.95 17.00 C 50.41 19.85 51.99 25.97 52.11 31.04 C 51.51 36.71 50.65 42.34 50.11 48.01 C 50.17 50.43 50.02 54.60 47.01 55.47 C 47.60 54.07 48.26 52.69 48.73 51.24 C 47.67 50.29 45.98 49.77 45.96 48.09 C 48.08 47.19 51.86 47.92 49.02 42.99 C 48.24 37.61 51.26 31.99 49.40 26.78 C 47.53 23.76 47.50 20.15 45.95 17.00 Z" />
</g>
<g id="#94a845ea">
<path fill="#94a845" opacity="0.92" d=" M 3.88 20.12 C 9.24 21.99 13.05 16.90 18.21 17.92 L 19.05 18.22 C 18.36 19.16 17.67 20.09 16.99 21.02 C 13.02 21.81 8.80 22.72 4.91 21.21 C 4.65 20.94 4.14 20.39 3.88 20.12 Z" />
</g>
<g id="#6f8c29fd">
<path fill="#6f8c29" opacity="1.00" d=" M 4.91 21.21 C 8.80 22.72 13.02 21.81 16.99 21.02 C 14.75 25.39 9.69 23.37 5.95 22.95 L 5.07 22.82 C 5.03 22.42 4.95 21.61 4.91 21.21 Z" />
</g>
<g id="#8ca73fff">
<path fill="#8ca73f" opacity="1.00" d=" M 14.95 26.06 C 18.48 23.75 22.65 21.00 27.03 21.58 C 27.03 22.45 27.05 24.17 27.06 25.04 C 25.00 25.44 23.01 25.97 21.07 26.64 C 20.26 27.36 19.50 28.13 18.80 28.96 C 16.37 29.29 14.18 29.09 14.95 26.06 Z" />
</g>
<g id="#7f9035ff">
<path fill="#7f9035" opacity="1.00" d=" M 27.03 21.58 C 29.80 21.36 32.48 23.99 35.06 22.01 C 35.39 23.00 35.68 24.00 35.93 25.01 C 32.97 25.00 30.02 25.01 27.06 25.04 C 27.05 24.17 27.03 22.45 27.03 21.58 Z" />
</g>
<g id="#616622ff">
<path fill="#616622" opacity="1.00" d=" M 21.07 26.64 C 23.01 25.97 25.00 25.44 27.06 25.04 C 27.07 25.51 27.10 26.45 27.11 26.92 C 26.83 28.04 26.39 29.09 25.78 30.07 C 24.44 29.84 23.13 29.47 21.89 28.92 L 21.56 27.96 C 21.44 27.63 21.19 26.97 21.07 26.64 Z" />
</g>
<g id="#a25e47ff">
<path fill="#a25e47" opacity="1.00" d=" M 27.06 25.04 C 30.02 25.01 32.97 25.00 35.93 25.01 C 36.21 26.08 36.48 27.16 36.74 28.24 L 35.86 27.99 C 33.19 26.58 30.06 25.76 27.11 26.92 C 27.10 26.45 27.07 25.51 27.06 25.04 Z" />
</g>
<g id="#637b22ff">
<path fill="#637b22" opacity="1.00" d=" M 13.66 26.99 C 13.98 26.76 14.63 26.29 14.95 26.06 C 14.18 29.09 16.37 29.29 18.80 28.96 C 18.89 30.71 18.96 32.46 19.02 34.21 L 19.03 35.14 C 17.62 34.00 16.23 32.84 14.81 31.72 C 14.32 30.17 13.98 28.58 13.66 26.99 Z" />
</g>
<g id="#f79d9bff">
<path fill="#f79d9b" opacity="1.00" d=" M 27.11 26.92 C 30.06 25.76 33.19 26.58 35.86 27.99 L 35.86 28.86 C 31.89 29.49 36.83 35.50 32.97 37.13 C 29.14 38.64 26.51 33.91 24.90 31.12 C 25.12 30.85 25.56 30.33 25.78 30.07 C 26.39 29.09 26.83 28.04 27.11 26.92 Z" />
</g>
<g id="#771412d3">
<path fill="#771412" opacity="0.83" d=" M 53.03 25.97 C 55.91 26.84 53.31 33.15 53.93 35.98 L 52.96 36.00 C 53.00 34.32 53.02 32.65 53.02 30.97 C 53.03 29.30 53.03 27.64 53.03 25.97 Z" />
</g>
<g id="#9f2723ff">
<path fill="#9f2723" opacity="1.00" d=" M 11.21 26.77 C 11.82 26.83 13.05 26.94 13.66 26.99 C 13.98 28.58 14.32 30.17 14.81 31.72 C 11.96 33.53 13.60 37.11 14.05 39.84 C 14.00 40.42 13.89 41.57 13.84 42.15 C 10.33 38.23 11.03 32.75 11.03 27.87 L 11.21 26.77 Z" />
</g>
<g id="#711c13ff">
<path fill="#711c13" opacity="1.00" d=" M 18.80 28.96 C 19.50 28.13 20.26 27.36 21.07 26.64 C 21.19 26.97 21.44 27.63 21.56 27.96 C 21.54 30.30 21.01 32.48 19.98 34.49 L 19.02 34.21 C 18.96 32.46 18.89 30.71 18.80 28.96 Z" />
</g>
<g id="#ed302dff">
<path fill="#ed302d" opacity="1.00" d=" M 49.40 26.78 C 51.26 31.99 48.24 37.61 49.02 42.99 C 51.86 47.92 48.08 47.19 45.96 48.09 C 45.98 49.77 47.67 50.29 48.73 51.24 C 48.26 52.69 47.60 54.07 47.01 55.47 C 43.81 54.26 39.19 54.07 38.29 50.06 C 37.84 48.75 36.06 50.04 35.07 49.74 C 31.99 49.19 29.55 46.91 27.16 45.02 C 24.51 42.90 22.03 40.55 20.03 37.79 C 19.72 36.90 19.38 36.01 19.03 35.14 L 19.02 34.21 L 19.98 34.49 C 22.25 35.89 22.17 33.63 22.21 31.84 C 24.11 35.98 27.02 39.64 30.83 42.16 C 34.04 45.23 40.73 48.62 43.78 43.75 C 44.04 39.99 44.22 36.22 44.31 32.45 C 46.65 31.11 49.77 30.11 49.40 26.78 Z" />
</g>
<g id="#64100ff2">
<path fill="#64100f" opacity="0.95" d=" M 10.04 37.94 C 10.28 35.42 10.78 30.39 11.03 27.87 C 11.03 32.75 10.33 38.23 13.84 42.15 C 18.78 49.03 27.12 51.73 34.70 54.49 C 38.60 56.13 43.16 57.94 47.38 56.37 C 48.04 56.27 49.34 56.09 49.99 55.99 C 50.50 55.99 51.50 55.99 52.00 55.99 C 52.22 57.70 50.69 59.70 49.04 59.80 C 45.97 59.38 42.87 59.34 39.78 59.15 C 38.92 58.85 38.06 58.53 37.21 58.22 C 36.25 57.83 35.29 57.46 34.32 57.12 C 24.37 53.60 13.51 48.92 10.04 37.94 Z" />
</g>
<g id="#c02826ff">
<path fill="#c02826" opacity="1.00" d=" M 19.98 34.49 C 21.01 32.48 21.54 30.30 21.56 27.96 L 21.89 28.92 C 21.97 29.65 22.13 31.11 22.21 31.84 C 22.17 33.63 22.25 35.89 19.98 34.49 Z" />
</g>
<g id="#f87370ff">
<path fill="#f87370" opacity="1.00" d=" M 35.86 27.99 L 36.74 28.24 C 37.55 31.28 39.04 34.08 39.88 37.11 C 40.85 39.89 37.83 42.75 35.08 41.98 C 31.67 40.70 28.86 38.21 26.20 35.81 C 25.93 34.41 22.80 32.43 24.90 31.12 C 26.51 33.91 29.14 38.64 32.97 37.13 C 32.39 39.01 35.24 41.44 36.33 39.16 C 38.99 36.11 36.00 32.29 35.86 28.86 L 35.86 27.99 Z" />
</g>
<g id="#f98784ff">
<path fill="#f98784" opacity="1.00" d=" M 32.97 37.13 C 36.83 35.50 31.89 29.49 35.86 28.86 C 36.00 32.29 38.99 36.11 36.33 39.16 C 35.82 37.84 34.48 36.63 32.97 37.13 Z" />
</g>
<g id="#b71715ff">
<path fill="#b71715" opacity="1.00" d=" M 52.11 31.04 L 53.02 30.97 C 53.02 32.65 53.00 34.32 52.96 36.00 C 52.92 36.44 52.84 37.34 52.79 37.79 C 51.33 43.74 53.38 50.59 49.99 55.99 C 49.34 56.09 48.04 56.27 47.38 56.37 L 47.01 55.47 C 50.02 54.60 50.17 50.43 50.11 48.01 C 50.65 42.34 51.51 36.71 52.11 31.04 Z" />
</g>
<g id="#c34a43ff">
<path fill="#c34a43" opacity="1.00" d=" M 14.05 39.84 C 13.60 37.11 11.96 33.53 14.81 31.72 C 16.23 32.84 17.62 34.00 19.03 35.14 C 19.38 36.01 19.72 36.90 20.03 37.79 C 17.93 40.91 22.75 42.56 24.21 44.79 C 24.93 46.05 26.12 45.35 27.16 45.02 C 29.55 46.91 31.99 49.19 35.07 49.74 C 36.06 50.04 37.84 48.75 38.29 50.06 C 37.92 50.46 37.18 51.27 36.81 51.67 C 28.15 50.89 19.00 47.35 14.05 39.84 Z" />
</g>
<g id="#3907066c">
<path fill="#390706" opacity="0.42" d=" M 52.96 36.00 L 53.93 35.98 C 54.09 41.65 54.07 47.32 53.98 52.98 L 53.03 53.00 C 52.97 47.93 53.05 42.86 52.79 37.79 C 52.84 37.34 52.92 36.44 52.96 36.00 Z" />
</g>
<g id="#b26e51ff">
<path fill="#b26e51" opacity="1.00" d=" M 32.97 37.13 C 34.48 36.63 35.82 37.84 36.33 39.16 C 35.24 41.44 32.39 39.01 32.97 37.13 Z" />
</g>
<g id="#d03a37ff">
<path fill="#d03a37" opacity="1.00" d=" M 20.03 37.79 C 22.03 40.55 24.51 42.90 27.16 45.02 C 26.12 45.35 24.93 46.05 24.21 44.79 C 22.75 42.56 17.93 40.91 20.03 37.79 Z" />
</g>
<g id="#99100efd">
<path fill="#99100e" opacity="1.00" d=" M 49.99 55.99 C 53.38 50.59 51.33 43.74 52.79 37.79 C 53.05 42.86 52.97 47.93 53.03 53.00 C 53.45 54.74 53.11 55.73 52.00 55.99 C 51.50 55.99 50.50 55.99 49.99 55.99 Z" />
</g>
<g id="#a03330ff">
<path fill="#a03330" opacity="1.00" d=" M 14.05 39.84 C 19.00 47.35 28.15 50.89 36.81 51.67 C 37.18 51.27 37.92 50.46 38.29 50.06 C 39.19 54.07 43.81 54.26 47.01 55.47 L 47.38 56.37 C 43.16 57.94 38.60 56.13 34.70 54.49 C 27.12 51.73 18.78 49.03 13.84 42.15 C 13.89 41.57 14.00 40.42 14.05 39.84 Z" />
</g>
<g id="#04000035">
<path fill="#040000" opacity="0.21" d=" M 34.32 57.12 C 35.29 57.46 36.25 57.83 37.21 58.22 C 34.82 58.54 32.42 58.81 30.02 59.05 C 28.35 59.04 26.67 59.02 24.99 59.01 C 25.38 55.60 32.02 59.64 34.32 57.12 Z" />
</g>
<g id="#030000a9">
<path fill="#030000" opacity="0.66" d=" M 37.21 58.22 C 38.06 58.53 38.92 58.85 39.78 59.15 C 40.92 59.74 42.07 60.28 43.21 60.87 C 38.80 60.91 34.40 61.02 29.99 60.99 C 30.00 60.51 30.02 59.53 30.02 59.05 C 32.42 58.81 34.82 58.54 37.21 58.22 Z" />
</g>
<g id="#01000032">
<path fill="#010000" opacity="0.20" d=" M 17.01 59.05 C 19.34 58.92 21.67 58.92 24.00 59.04 C 24.00 59.52 23.99 60.49 23.99 60.97 C 21.78 60.43 16.29 62.71 17.01 59.05 Z" />
</g>
<g id="#0200006a">
<path fill="#020000" opacity="0.42" d=" M 24.00 59.04 L 24.99 59.01 C 26.67 59.02 28.35 59.04 30.02 59.05 C 30.02 59.53 30.00 60.51 29.99 60.99 C 27.99 61.01 25.99 61.00 23.99 60.97 C 23.99 60.49 24.00 59.52 24.00 59.04 Z" />
</g>
<g id="#3f0505e7">
<path fill="#3f0505" opacity="0.91" d=" M 39.78 59.15 C 42.87 59.34 45.97 59.38 49.04 59.80 L 49.06 60.95 C 47.11 60.97 45.16 60.96 43.21 60.87 C 42.07 60.28 40.92 59.74 39.78 59.15 Z" />
</g>
<g id="#01000036">
<path fill="#010000" opacity="0.21" d=" M 23.99 60.97 C 25.99 61.00 27.99 61.01 29.99 60.99 C 34.40 61.02 38.80 60.91 43.21 60.87 C 45.16 60.96 47.11 60.97 49.06 60.95 L 48.98 61.97 C 40.65 62.06 32.33 62.05 24.01 61.96 L 23.99 60.97 Z" />
</g>
</svg>
