<?xml version="1.0" encoding="UTF-8" ?>
<!DOCTYPE svg PUBLIC "-//W3C//DTD SVG 1.1//EN" "http://www.w3.org/Graphics/SVG/1.1/DTD/svg11.dtd">
<svg width="64pt" height="64pt" viewBox="0 0 64 64" version="1.1" xmlns="http://www.w3.org/2000/svg">
<g id="#935821ff">
<path fill="#935821" opacity="1.00" d=" M 9.08 11.10 C 14.68 5.85 22.53 3.70 30.08 3.75 C 37.12 3.34 43.92 5.53 50.49 7.75 C 54.55 8.86 57.00 12.94 57.73 16.85 C 58.00 21.31 56.27 25.58 56.00 30.00 C 55.09 36.38 56.02 42.99 54.29 49.25 C 51.52 52.03 47.51 53.02 44.17 54.95 C 39.89 56.87 36.03 60.02 31.23 60.54 C 31.74 60.07 32.75 59.13 33.25 58.66 C 38.50 55.25 44.46 53.17 49.77 49.89 C 51.89 48.70 52.63 46.21 53.03 43.97 C 53.72 39.34 53.31 34.63 54.03 30.00 C 54.72 24.56 56.55 18.90 54.50 13.53 C 53.22 12.12 52.04 10.29 50.01 9.96 C 41.24 8.10 32.39 5.33 23.32 6.51 C 19.84 6.73 16.85 8.67 13.93 10.38 C 12.21 11.33 10.49 12.36 9.12 13.77 C 6.34 17.35 7.55 22.11 7.08 26.29 L 7.07 27.30 C 6.04 21.99 5.61 15.65 9.08 11.10 Z" />
</g>
<g id="#c2763bff">
<path fill="#c2763b" opacity="1.00" d=" M 23.32 6.51 C 32.39 5.33 41.24 8.10 50.01 9.96 C 52.04 10.29 53.22 12.12 54.50 13.53 C 49.33 10.86 43.36 11.63 37.84 10.33 C 34.89 9.46 32.95 12.60 30.80 14.02 C 25.83 10.68 19.79 9.84 13.93 10.38 C 16.85 8.67 19.84 6.73 23.32 6.51 Z" />
</g>
<g id="#ca9646ff">
<path fill="#ca9646" opacity="1.00" d=" M 30.80 14.02 C 32.95 12.60 34.89 9.46 37.84 10.33 C 43.36 11.63 49.33 10.86 54.50 13.53 C 56.55 18.90 54.72 24.56 54.03 30.00 C 53.31 34.63 53.72 39.34 53.03 43.97 C 52.63 46.21 51.89 48.70 49.77 49.89 C 44.46 53.17 38.50 55.25 33.25 58.66 L 32.25 58.97 L 32.51 57.52 C 33.69 52.47 33.82 47.25 33.24 42.10 C 32.49 37.35 34.43 32.83 35.07 28.19 C 37.48 24.10 40.67 20.54 43.34 16.62 C 40.64 17.08 37.93 17.45 35.23 17.90 C 33.77 16.58 32.34 15.23 30.80 14.02 M 42.01 35.99 C 39.72 41.83 38.76 48.06 37.11 54.10 C 41.18 52.33 45.00 50.00 48.50 47.28 C 50.84 45.68 50.32 42.48 50.83 40.04 C 51.28 33.52 53.61 26.81 51.45 20.38 C 46.23 24.05 43.95 30.18 42.01 35.99 Z" />
</g>
<g id="#e1c987ff">
<path fill="#e1c987" opacity="1.00" d=" M 9.12 13.77 C 10.49 12.36 12.21 11.33 13.93 10.38 C 19.79 9.84 25.83 10.68 30.80 14.02 C 32.34 15.23 33.77 16.58 35.23 17.90 C 35.18 21.33 35.22 24.76 35.07 28.19 C 34.43 32.83 32.49 37.35 33.24 42.10 C 33.82 47.25 33.69 52.47 32.51 57.52 C 32.02 57.14 31.04 56.37 30.55 55.98 C 32.50 49.11 30.45 41.93 31.64 34.96 C 32.37 29.55 34.27 23.25 30.58 18.46 C 25.72 11.97 15.91 10.80 9.32 15.37 L 9.12 13.77 Z" />
</g>
<g id="#e7d9b2ff">
<path fill="#e7d9b2" opacity="1.00" d=" M 9.32 15.37 C 15.91 10.80 25.72 11.97 30.58 18.46 C 34.27 23.25 32.37 29.55 31.64 34.96 C 30.45 41.93 32.50 49.11 30.55 55.98 C 25.53 52.69 19.35 51.84 14.35 48.56 C 10.47 45.45 12.23 39.92 11.22 35.67 C 9.83 28.99 9.18 22.18 9.32 15.37 Z" />
</g>
<g id="#ccb48cff">
<path fill="#ccb48c" opacity="1.00" d=" M 7.08 26.29 C 7.55 22.11 6.34 17.35 9.12 13.77 L 9.32 15.37 C 9.18 22.18 9.83 28.99 11.22 35.67 C 12.23 39.92 10.47 45.45 14.35 48.56 C 19.35 51.84 25.53 52.69 30.55 55.98 C 31.04 56.37 32.02 57.14 32.51 57.52 L 32.25 58.97 C 26.69 57.88 21.97 54.55 16.73 52.56 C 14.20 51.21 10.29 50.08 10.35 46.58 C 10.07 39.95 9.39 33.28 7.26 26.96 L 7.08 26.29 Z" />
</g>
<g id="#dab16cff">
<path fill="#dab16c" opacity="1.00" d=" M 35.23 17.90 C 37.93 17.45 40.64 17.08 43.34 16.62 C 40.67 20.54 37.48 24.10 35.07 28.19 C 35.22 24.76 35.18 21.33 35.23 17.90 Z" />
</g>
<g id="#d8ad59ff">
<path fill="#d8ad59" opacity="1.00" d=" M 42.01 35.99 C 43.95 30.18 46.23 24.05 51.45 20.38 C 53.61 26.81 51.28 33.52 50.83 40.04 C 50.32 42.48 50.84 45.68 48.50 47.28 C 45.00 50.00 41.18 52.33 37.11 54.10 C 38.76 48.06 39.72 41.83 42.01 35.99 Z" />
</g>
<g id="#8f7757d8">
<path fill="#8f7757" opacity="0.85" d=" M 7.26 26.96 C 9.39 33.28 10.07 39.95 10.35 46.58 C 10.29 50.08 14.20 51.21 16.73 52.56 C 21.97 54.55 26.69 57.88 32.25 58.97 L 33.25 58.66 C 32.75 59.13 31.74 60.07 31.23 60.54 C 24.16 56.51 16.14 54.25 9.50 49.50 C 8.75 47.46 9.31 45.16 9.11 43.02 C 9.22 37.58 7.23 32.38 7.26 26.96 Z" />
</g>
</svg>
