<?xml version="1.0" encoding="UTF-8" ?>
<!DOCTYPE svg PUBLIC "-//W3C//DTD SVG 1.1//EN" "http://www.w3.org/Graphics/SVG/1.1/DTD/svg11.dtd">
<svg width="64pt" height="64pt" viewBox="0 0 64 64" version="1.1" xmlns="http://www.w3.org/2000/svg">
<g id="#902a0de9">
<path fill="#902a0d" opacity="0.91" d=" M 48.32 3.44 C 49.90 3.40 52.72 3.48 53.26 5.17 L 53.07 5.85 C 49.09 5.13 45.04 5.02 41.01 4.97 C 40.51 1.69 46.32 4.84 48.32 3.44 Z" />
</g>
<g id="#ba531ef8">
<path fill="#ba531e" opacity="0.97" d=" M 31.96 6.99 C 33.17 3.16 37.95 5.43 41.01 4.97 C 45.04 5.02 49.09 5.13 53.07 5.85 C 53.04 6.38 52.98 7.45 52.95 7.99 C 50.93 8.09 49.43 8.67 50.10 11.05 C 49.83 11.15 49.29 11.35 49.02 11.45 C 46.66 11.28 44.34 11.86 41.98 11.92 C 43.28 10.29 44.35 8.48 45.86 7.03 C 41.42 5.74 36.49 6.34 31.96 6.99 Z" />
</g>
<g id="#47180881">
<path fill="#471808" opacity="0.51" d=" M 53.26 5.17 C 54.78 6.47 54.18 9.92 53.74 11.87 L 53.15 11.84 L 52.91 11.07 C 52.92 10.30 52.94 8.76 52.95 7.99 C 52.98 7.45 53.04 6.38 53.07 5.85 L 53.26 5.17 Z" />
</g>
<g id="#da923ffd">
<path fill="#da923f" opacity="1.00" d=" M 31.96 6.99 C 36.49 6.34 41.42 5.74 45.86 7.03 C 44.35 8.48 43.28 10.29 41.98 11.92 C 40.74 11.97 39.49 12.05 38.25 12.15 C 34.67 13.40 31.40 15.43 27.80 16.64 C 26.05 16.84 25.37 18.49 24.83 19.93 C 23.36 20.58 21.95 20.58 21.00 19.14 C 19.62 21.65 14.40 21.87 15.08 18.20 C 17.54 16.62 19.83 14.86 21.95 12.91 C 24.10 9.32 28.74 9.26 31.96 6.99 Z" />
</g>
<g id="#a2401bff">
<path fill="#a2401b" opacity="1.00" d=" M 50.10 11.05 C 49.43 8.67 50.93 8.09 52.95 7.99 C 52.94 8.76 52.92 10.30 52.91 11.07 C 52.21 11.07 50.80 11.06 50.10 11.05 Z" />
</g>
<g id="#9d4523fe">
<path fill="#9d4523" opacity="1.00" d=" M 41.98 11.92 C 44.34 11.86 46.66 11.28 49.02 11.45 C 48.76 12.05 48.24 13.24 47.98 13.84 C 46.81 14.40 45.57 14.75 44.30 14.96 C 42.44 13.40 40.12 12.84 37.74 12.72 L 38.25 12.15 C 39.49 12.05 40.74 11.97 41.98 11.92 Z" />
</g>
<g id="#ddaf6fff">
<path fill="#ddaf6f" opacity="1.00" d=" M 50.10 11.05 C 50.80 11.06 52.21 11.07 52.91 11.07 L 53.15 11.84 C 53.00 19.62 52.99 27.40 52.87 35.19 C 52.39 32.79 52.11 30.32 50.60 28.35 C 53.40 26.60 51.17 24.15 49.03 23.16 C 49.30 22.67 49.83 21.68 50.10 21.19 C 51.24 18.86 51.60 13.98 47.98 13.84 C 48.24 13.24 48.76 12.05 49.02 11.45 C 49.29 11.35 49.83 11.15 50.10 11.05 Z" />
</g>
<g id="#b2622eff">
<path fill="#b2622e" opacity="1.00" d=" M 27.80 16.64 C 31.40 15.43 34.67 13.40 38.25 12.15 L 37.74 12.72 C 35.99 14.48 34.18 16.18 32.34 17.84 C 30.87 17.31 29.34 16.94 27.80 16.64 Z" />
</g>
<g id="#a47548e4">
<path fill="#a47548" opacity="0.89" d=" M 53.15 11.84 L 53.74 11.87 C 54.29 24.28 53.95 36.72 53.94 49.14 L 53.11 48.81 C 53.07 47.13 53.00 43.78 52.97 42.10 C 52.94 40.37 52.89 36.92 52.87 35.19 C 52.99 27.40 53.00 19.62 53.15 11.84 Z" />
</g>
<g id="#b55a1df9">
<path fill="#b55a1d" opacity="0.98" d=" M 12.14 19.20 C 14.96 16.60 17.64 12.71 21.95 12.91 C 19.83 14.86 17.54 16.62 15.08 18.20 C 14.40 21.87 19.62 21.65 21.00 19.14 C 21.95 20.58 23.36 20.58 24.83 19.93 C 23.08 22.51 22.84 27.01 19.10 27.28 C 20.74 28.56 22.86 29.71 23.13 32.01 C 20.45 30.32 17.71 28.42 16.71 25.24 C 15.49 23.16 11.79 21.95 12.14 19.20 Z" />
</g>
<g id="#e1b984ff">
<path fill="#e1b984" opacity="1.00" d=" M 32.34 17.84 C 34.18 16.18 35.99 14.48 37.74 12.72 C 40.12 12.84 42.44 13.40 44.30 14.96 C 43.71 15.24 42.54 15.81 41.95 16.09 C 39.99 16.82 37.81 17.00 36.02 18.14 C 35.32 20.16 37.51 20.57 38.86 21.24 C 39.21 22.45 40.71 24.39 38.37 24.06 C 38.11 23.80 37.59 23.28 37.33 23.03 C 35.91 21.54 33.80 21.08 31.87 20.64 C 31.99 19.94 32.22 18.54 32.34 17.84 Z" />
</g>
<g id="#9f2216ff">
<path fill="#9f2216" opacity="1.00" d=" M 44.30 14.96 C 45.57 14.75 46.81 14.40 47.98 13.84 C 51.60 13.98 51.24 18.86 50.10 21.19 C 47.20 21.88 44.08 22.10 41.73 20.05 C 41.50 18.72 41.71 17.39 41.95 16.09 C 42.54 15.81 43.71 15.24 44.30 14.96 Z" />
</g>
<g id="#dfae4fff">
<path fill="#dfae4f" opacity="1.00" d=" M 36.02 18.14 C 37.81 17.00 39.99 16.82 41.95 16.09 C 41.71 17.39 41.50 18.72 41.73 20.05 L 41.80 21.01 C 41.06 21.07 39.60 21.19 38.86 21.24 C 37.51 20.57 35.32 20.16 36.02 18.14 Z" />
</g>
<g id="#913616ff">
<path fill="#913616" opacity="1.00" d=" M 24.83 19.93 C 25.37 18.49 26.05 16.84 27.80 16.64 C 29.34 16.94 30.87 17.31 32.34 17.84 C 29.83 18.51 27.29 19.10 24.83 19.93 Z" />
</g>
<g id="#d8a551fe">
<path fill="#d8a551" opacity="1.00" d=" M 24.83 19.93 C 27.29 19.10 29.83 18.51 32.34 17.84 C 32.22 18.54 31.99 19.94 31.87 20.64 C 30.15 22.09 28.68 23.81 28.75 26.21 C 28.25 25.42 27.72 24.66 27.17 23.91 C 26.37 27.26 25.59 30.62 24.85 34.00 C 23.90 33.74 23.32 33.08 23.13 32.01 C 22.86 29.71 20.74 28.56 19.10 27.28 C 22.84 27.01 23.08 22.51 24.83 19.93 Z" />
</g>
<g id="#d08423ff">
<path fill="#d08423" opacity="1.00" d=" M 41.73 20.05 C 44.08 22.10 47.20 21.88 50.10 21.19 C 49.83 21.68 49.30 22.67 49.03 23.16 L 48.11 23.27 C 45.45 24.15 43.12 23.65 41.80 21.01 L 41.73 20.05 Z" />
</g>
<g id="#932218ff">
<path fill="#932218" opacity="1.00" d=" M 28.75 26.21 C 28.68 23.81 30.15 22.09 31.87 20.64 C 33.80 21.08 35.91 21.54 37.33 23.03 C 35.31 25.65 31.65 25.36 28.75 26.21 Z" />
</g>
<g id="#e6b764ff">
<path fill="#e6b764" opacity="1.00" d=" M 38.86 21.24 C 39.60 21.19 41.06 21.07 41.80 21.01 C 43.12 23.65 45.45 24.15 48.11 23.27 C 47.98 25.05 48.37 28.56 46.71 25.41 C 44.50 28.56 41.88 23.70 38.84 24.98 C 41.41 27.46 40.78 30.21 38.86 32.88 C 39.36 32.69 40.37 32.31 40.87 32.12 C 40.89 33.30 41.21 34.36 41.83 35.29 C 43.52 38.60 47.69 38.80 49.95 35.95 C 47.90 38.69 48.70 43.28 52.97 42.10 C 53.00 43.78 53.07 47.13 53.11 48.81 C 52.14 50.99 50.06 51.40 48.14 50.17 L 47.83 49.31 C 48.52 47.91 49.28 46.54 49.87 45.09 C 48.57 43.08 46.98 44.66 45.97 45.99 C 43.49 44.42 40.69 46.01 38.04 46.10 C 37.00 45.41 35.19 45.36 34.84 43.97 C 36.01 41.65 39.78 38.23 37.12 35.96 C 35.51 35.16 33.87 34.44 32.20 33.75 C 31.42 32.19 30.54 30.68 29.92 29.04 C 33.80 32.82 39.28 29.10 38.37 24.06 C 40.71 24.39 39.21 22.45 38.86 21.24 Z" />
</g>
<g id="#b0301dff">
<path fill="#b0301d" opacity="1.00" d=" M 37.33 23.03 C 37.59 23.28 38.11 23.80 38.37 24.06 C 39.28 29.10 33.80 32.82 29.92 29.04 C 29.51 28.10 29.12 27.16 28.75 26.21 C 31.65 25.36 35.31 25.65 37.33 23.03 Z" />
</g>
<g id="#eac585ff">
<path fill="#eac585" opacity="1.00" d=" M 48.11 23.27 L 49.03 23.16 C 51.17 24.15 53.40 26.60 50.60 28.35 C 52.11 30.32 52.39 32.79 52.87 35.19 C 52.89 36.92 52.94 40.37 52.97 42.10 C 48.70 43.28 47.90 38.69 49.95 35.95 C 50.07 35.53 50.32 34.70 50.44 34.28 C 51.40 32.38 49.89 30.54 48.81 29.09 C 45.71 28.24 43.23 30.52 40.87 32.12 C 40.37 32.31 39.36 32.69 38.86 32.88 C 40.78 30.21 41.41 27.46 38.84 24.98 C 41.88 23.70 44.50 28.56 46.71 25.41 C 48.37 28.56 47.98 25.05 48.11 23.27 Z" />
</g>
<g id="#eac68cff">
<path fill="#eac68c" opacity="1.00" d=" M 27.17 23.91 C 27.72 24.66 28.25 25.42 28.75 26.21 C 29.12 27.16 29.51 28.10 29.92 29.04 C 30.54 30.68 31.42 32.19 32.20 33.75 C 30.10 36.31 27.11 36.43 24.85 34.00 C 25.59 30.62 26.37 27.26 27.17 23.91 Z" />
</g>
<g id="#97271bff">
<path fill="#97271b" opacity="1.00" d=" M 40.87 32.12 C 43.23 30.52 45.71 28.24 48.81 29.09 C 49.89 30.54 51.40 32.38 50.44 34.28 C 47.53 31.31 44.48 33.09 41.83 35.29 C 41.21 34.36 40.89 33.30 40.87 32.12 Z" />
</g>
<g id="#ae2516ff">
<path fill="#ae2516" opacity="1.00" d=" M 41.83 35.29 C 44.48 33.09 47.53 31.31 50.44 34.28 C 50.32 34.70 50.07 35.53 49.95 35.95 C 47.69 38.80 43.52 38.60 41.83 35.29 Z" />
</g>
<g id="#8f2f18f4">
<path fill="#8f2f18" opacity="0.96" d=" M 24.85 34.00 C 27.11 36.43 30.10 36.31 32.20 33.75 C 33.87 34.44 35.51 35.16 37.12 35.96 C 37.06 36.76 36.92 38.35 36.86 39.15 C 35.21 38.30 33.64 36.14 31.64 37.56 C 28.58 37.93 31.11 40.71 31.90 42.12 C 28.25 41.42 26.73 36.81 24.85 34.00 Z" />
</g>
<g id="#a83119fa">
<path fill="#a83119" opacity="0.98" d=" M 37.12 35.96 C 39.78 38.23 36.01 41.65 34.84 43.97 C 33.35 44.39 32.52 43.27 31.90 42.12 C 31.11 40.71 28.58 37.93 31.64 37.56 C 33.64 36.14 35.21 38.30 36.86 39.15 C 36.92 38.35 37.06 36.76 37.12 35.96 Z" />
</g>
<g id="#e2a84bff">
<path fill="#e2a84b" opacity="1.00" d=" M 45.97 45.99 C 46.98 44.66 48.57 43.08 49.87 45.09 C 49.28 46.54 48.52 47.91 47.83 49.31 C 47.20 48.21 46.58 47.10 45.97 45.99 Z" />
</g>
<g id="#98281afa">
<path fill="#98281a" opacity="0.98" d=" M 38.04 46.10 C 40.69 46.01 43.49 44.42 45.97 45.99 C 46.58 47.10 47.20 48.21 47.83 49.31 L 48.14 50.17 C 48.02 52.06 47.04 53.62 45.90 55.07 C 42.84 52.65 39.54 49.85 38.04 46.10 Z" />
</g>
<g id="#c98f3efb">
<path fill="#c98f3e" opacity="1.00" d=" M 48.14 50.17 C 50.06 51.40 52.14 50.99 53.11 48.81 C 52.75 52.76 50.88 56.30 51.24 60.32 C 50.29 59.59 49.35 58.86 48.40 58.14 C 48.15 57.89 47.64 57.40 47.38 57.16 C 47.01 56.63 46.27 55.59 45.90 55.07 C 47.04 53.62 48.02 52.06 48.14 50.17 Z" />
</g>
<g id="#863515e1">
<path fill="#863515" opacity="0.88" d=" M 53.11 48.81 L 53.94 49.14 C 54.06 52.22 53.44 55.49 55.13 58.23 C 53.95 59.41 52.98 61.12 51.11 61.13 L 51.24 60.32 C 50.88 56.30 52.75 52.76 53.11 48.81 Z" />
</g>
<g id="#0100004e">
<path fill="#010000" opacity="0.31" d=" M 47.38 57.16 C 47.64 57.40 48.15 57.89 48.40 58.14 C 43.69 59.09 38.89 58.80 34.13 59.09 L 33.89 59.94 C 37.96 60.43 42.31 59.30 46.26 60.74 C 39.79 60.66 32.84 62.04 26.68 59.41 C 28.34 59.14 31.64 58.61 33.29 58.34 C 37.87 57.24 43.04 59.28 47.38 57.16 Z" />
</g>
<g id="#01000026">
<path fill="#010000" opacity="0.15" d=" M 17.00 59.13 C 22.33 57.97 27.88 57.50 33.29 58.34 C 31.64 58.61 28.34 59.14 26.68 59.41 C 32.84 62.04 39.79 60.66 46.26 60.74 C 47.87 60.93 49.48 61.10 51.11 61.13 C 52.98 61.12 53.95 59.41 55.13 58.23 C 58.00 58.29 56.48 61.17 54.35 61.39 C 44.38 62.70 34.05 62.07 23.99 61.06 C 22.98 59.90 17.68 61.65 17.00 59.13 Z" />
</g>
<g id="#08030073">
<path fill="#080300" opacity="0.45" d=" M 48.40 58.14 C 49.35 58.86 50.29 59.59 51.24 60.32 L 51.11 61.13 C 49.48 61.10 47.87 60.93 46.26 60.74 C 42.31 59.30 37.96 60.43 33.89 59.94 L 34.13 59.09 C 38.89 58.80 43.69 59.09 48.40 58.14 Z" />
</g>
</svg>
