<?xml version="1.0" encoding="UTF-8" ?>
<!DOCTYPE svg PUBLIC "-//W3C//DTD SVG 1.1//EN" "http://www.w3.org/Graphics/SVG/1.1/DTD/svg11.dtd">
<svg width="64pt" height="64pt" viewBox="0 0 64 64" version="1.1" xmlns="http://www.w3.org/2000/svg">
<g id="#557833ff">
<path fill="#557833" opacity="1.00" d=" M 5.85 3.62 C 10.48 1.87 15.40 1.03 20.31 0.57 C 19.39 1.56 18.44 2.51 17.54 3.52 C 20.68 5.05 23.95 6.49 26.48 8.97 C 19.45 7.91 12.24 6.95 5.85 3.62 Z" />
</g>
<g id="#466a27ff">
<path fill="#466a27" opacity="1.00" d=" M 20.31 0.57 C 29.70 0.54 41.18 2.49 45.53 12.04 C 39.10 11.57 32.78 10.27 26.48 8.97 C 23.95 6.49 20.68 5.05 17.54 3.52 C 18.44 2.51 19.39 1.56 20.31 0.57 Z" />
</g>
<g id="#6e9148ff">
<path fill="#6e9148" opacity="1.00" d=" M 4.08 4.23 C 4.53 4.08 5.41 3.77 5.85 3.62 C 12.24 6.95 19.45 7.91 26.48 8.97 C 32.78 10.27 39.10 11.57 45.53 12.04 L 45.22 12.88 C 38.73 16.66 31.12 17.56 23.74 17.45 C 23.20 17.39 22.13 17.28 21.59 17.22 C 17.33 16.95 13.41 15.14 10.15 12.43 C 14.29 18.52 16.17 25.73 18.90 32.48 C 18.35 32.60 17.26 32.84 16.72 32.95 C 13.52 23.94 11.02 14.05 4.21 6.97 C 4.18 6.29 4.12 4.92 4.08 4.23 Z" />
</g>
<g id="#4e5012f8">
<path fill="#4e5012" opacity="0.97" d=" M 21.59 17.22 C 22.13 17.28 23.20 17.39 23.74 17.45 C 28.31 21.54 32.57 25.98 36.92 30.30 C 37.73 31.29 38.51 32.30 39.20 33.38 C 38.78 33.87 37.95 34.84 37.54 35.33 C 36.74 34.41 35.93 33.50 35.15 32.57 C 30.67 27.41 26.03 22.40 21.59 17.22 Z" />
</g>
<g id="#800b1fff">
<path fill="#800b1f" opacity="1.00" d=" M 36.92 30.30 C 42.45 27.16 50.15 26.11 55.13 30.83 C 62.55 37.26 62.32 50.29 54.20 56.06 C 53.29 56.71 52.34 57.30 51.40 57.91 C 46.56 59.66 41.01 60.03 36.45 57.28 C 36.72 56.75 37.26 55.68 37.54 55.15 C 41.46 56.28 45.76 57.32 49.71 55.65 C 55.18 53.69 58.22 47.62 57.76 42.02 C 57.63 37.66 54.87 33.97 51.86 31.04 C 48.79 27.86 42.09 26.74 40.22 31.71 C 39.97 32.13 39.46 32.96 39.20 33.38 C 38.51 32.30 37.73 31.29 36.92 30.30 Z" />
</g>
<g id="#a62035ff">
<path fill="#a62035" opacity="1.00" d=" M 40.22 31.71 C 42.09 26.74 48.79 27.86 51.86 31.04 C 51.86 32.15 51.89 33.26 51.93 34.36 L 51.59 34.09 C 48.09 32.24 44.11 31.85 40.22 31.71 Z" />
</g>
<g id="#cf3049ff">
<path fill="#cf3049" opacity="1.00" d=" M 18.90 32.48 C 21.04 32.14 23.16 31.66 25.32 31.42 C 26.02 31.79 27.41 32.52 28.11 32.89 C 29.67 36.55 32.50 40.56 30.58 44.63 C 28.36 52.62 16.72 54.81 11.41 48.62 C 7.90 45.93 8.69 41.22 8.54 37.37 C 10.79 35.15 13.65 33.67 16.72 32.95 C 17.26 32.84 18.35 32.60 18.90 32.48 M 14.57 35.63 C 12.67 36.74 11.23 38.32 11.00 40.59 L 11.82 40.75 C 13.75 43.69 15.95 47.95 20.06 47.61 C 22.95 47.84 25.01 45.24 26.33 43.00 C 27.52 39.81 25.35 36.99 23.43 34.68 L 22.75 36.04 L 22.69 34.51 C 19.92 34.31 17.21 34.86 14.57 35.63 Z" />
</g>
<g id="#900718ff">
<path fill="#900718" opacity="1.00" d=" M 25.32 31.42 C 28.66 31.38 31.80 33.51 35.15 32.57 C 35.93 33.50 36.74 34.41 37.54 35.33 C 37.26 35.62 36.72 36.19 36.45 36.48 C 36.77 37.14 37.09 37.81 37.41 38.47 C 37.81 39.32 38.62 41.03 39.02 41.89 C 39.04 42.32 39.09 43.19 39.11 43.63 C 39.23 46.12 39.14 48.63 38.91 51.11 C 38.54 52.49 38.03 53.82 37.54 55.15 C 37.26 55.68 36.72 56.75 36.45 57.28 C 35.87 57.00 35.30 56.71 34.73 56.42 C 30.13 61.17 23.23 62.85 16.91 60.97 C 15.58 60.38 14.33 59.65 13.10 58.89 C 7.77 55.09 5.09 48.11 6.68 41.73 C 7.01 46.29 7.75 51.41 11.49 54.53 C 16.04 58.26 23.16 60.00 28.26 56.33 C 31.28 53.92 33.80 50.76 35.24 47.15 C 37.22 41.45 33.35 35.22 28.11 32.89 C 27.41 32.52 26.02 31.79 25.32 31.42 Z" />
</g>
<g id="#c7263eff">
<path fill="#c7263e" opacity="1.00" d=" M 40.22 31.71 C 44.11 31.85 48.09 32.24 51.59 34.09 C 50.67 36.36 49.71 38.63 48.39 40.70 C 48.04 39.41 47.71 38.12 47.40 36.82 C 47.34 35.92 47.21 34.11 47.14 33.20 C 45.33 33.88 43.69 34.88 41.95 35.71 C 40.39 36.56 38.96 37.60 37.41 38.47 C 37.09 37.81 36.77 37.14 36.45 36.48 C 36.72 36.19 37.26 35.62 37.54 35.33 C 37.95 34.84 38.78 33.87 39.20 33.38 C 39.46 32.96 39.97 32.13 40.22 31.71 Z" />
</g>
<g id="#aa0721ff">
<path fill="#aa0721" opacity="1.00" d=" M 51.93 34.36 C 51.89 33.26 51.86 32.15 51.86 31.04 C 54.87 33.97 57.63 37.66 57.76 42.02 C 58.22 47.62 55.18 53.69 49.71 55.65 C 45.76 57.32 41.46 56.28 37.54 55.15 C 38.03 53.82 38.54 52.49 38.91 51.11 C 39.46 51.96 40.04 52.79 40.66 53.59 C 45.27 53.68 51.01 53.02 53.27 48.34 C 55.86 43.85 53.52 38.75 51.93 34.36 Z" />
</g>
<g id="#b70924ff">
<path fill="#b70924" opacity="1.00" d=" M 28.11 32.89 C 33.35 35.22 37.22 41.45 35.24 47.15 C 33.80 50.76 31.28 53.92 28.26 56.33 C 23.16 60.00 16.04 58.26 11.49 54.53 C 7.75 51.41 7.01 46.29 6.68 41.73 C 7.10 40.20 7.81 38.77 8.54 37.37 C 8.69 41.22 7.90 45.93 11.41 48.62 C 16.72 54.81 28.36 52.62 30.58 44.63 C 32.50 40.56 29.67 36.55 28.11 32.89 Z" />
</g>
<g id="#d55c71ff">
<path fill="#d55c71" opacity="1.00" d=" M 41.95 35.71 C 43.69 34.88 45.33 33.88 47.14 33.20 C 47.21 34.11 47.34 35.92 47.40 36.82 C 46.89 37.12 45.87 37.73 45.36 38.03 C 44.22 37.25 43.09 36.48 41.95 35.71 Z" />
</g>
<g id="#ca0b2eff">
<path fill="#ca0b2e" opacity="1.00" d=" M 51.59 34.09 L 51.93 34.36 C 53.52 38.75 55.86 43.85 53.27 48.34 C 51.01 53.02 45.27 53.68 40.66 53.59 C 40.04 52.79 39.46 51.96 38.91 51.11 C 39.14 48.63 39.23 46.12 39.11 43.63 C 42.46 43.65 46.06 43.45 48.39 40.70 C 49.71 38.63 50.67 36.36 51.59 34.09 Z" />
</g>
<g id="#e4e3e4ff">
<path fill="#e4e3e4" opacity="1.00" d=" M 14.57 35.63 C 17.21 34.86 19.92 34.31 22.69 34.51 L 22.75 36.04 C 22.73 36.91 22.71 37.78 22.68 38.65 C 19.89 39.15 17.08 39.57 14.27 39.94 C 14.40 38.50 14.46 37.07 14.57 35.63 Z" />
</g>
<g id="#de6272ff">
<path fill="#de6272" opacity="1.00" d=" M 22.75 36.04 L 23.43 34.68 C 25.35 36.99 27.52 39.81 26.33 43.00 C 25.01 45.24 22.95 47.84 20.06 47.61 C 15.95 47.95 13.75 43.69 11.82 40.75 C 14.88 41.13 17.76 42.25 20.49 43.65 C 21.23 41.99 22.06 40.37 22.68 38.65 C 22.71 37.78 22.73 36.91 22.75 36.04 Z" />
</g>
<g id="#e49099ff">
<path fill="#e49099" opacity="1.00" d=" M 11.00 40.59 C 11.23 38.32 12.67 36.74 14.57 35.63 C 14.46 37.07 14.40 38.50 14.27 39.94 C 17.08 39.57 19.89 39.15 22.68 38.65 C 22.06 40.37 21.23 41.99 20.49 43.65 C 17.76 42.25 14.88 41.13 11.82 40.75 L 11.00 40.59 Z" />
</g>
<g id="#e2a6afff">
<path fill="#e2a6af" opacity="1.00" d=" M 37.41 38.47 C 38.96 37.60 40.39 36.56 41.95 35.71 C 43.09 36.48 44.22 37.25 45.36 38.03 C 43.23 39.29 41.09 40.54 39.02 41.89 C 38.62 41.03 37.81 39.32 37.41 38.47 Z" />
</g>
<g id="#dc284aff">
<path fill="#dc284a" opacity="1.00" d=" M 45.36 38.03 C 45.87 37.73 46.89 37.12 47.40 36.82 C 47.71 38.12 48.04 39.41 48.39 40.70 C 46.06 43.45 42.46 43.65 39.11 43.63 C 39.09 43.19 39.04 42.32 39.02 41.89 C 41.09 40.54 43.23 39.29 45.36 38.03 Z" />
</g>
<g id="#00000077">
<path fill="#000000" opacity="0.47" d=" M 34.73 56.42 C 35.30 56.71 35.87 57.00 36.45 57.28 C 41.01 60.03 46.56 59.66 51.40 57.91 C 50.61 58.98 49.80 60.05 49.05 61.16 C 42.54 63.13 35.68 62.54 28.98 62.60 C 24.92 62.57 20.67 62.79 16.91 60.97 C 23.23 62.85 30.13 61.17 34.73 56.42 Z" />
</g>
<g id="#0000001e">
<path fill="#000000" opacity="0.12" d=" M 51.40 57.91 C 52.34 57.30 53.29 56.71 54.20 56.06 C 55.50 57.32 56.81 58.57 58.11 59.83 C 56.12 61.34 54.10 62.83 51.88 64.00 L 17.48 64.00 C 14.50 63.48 11.63 62.49 8.80 61.45 C 10.23 60.59 11.67 59.73 13.10 58.89 C 14.33 59.65 15.58 60.38 16.91 60.97 C 20.67 62.79 24.92 62.57 28.98 62.60 C 35.68 62.54 42.54 63.13 49.05 61.16 C 49.80 60.05 50.61 58.98 51.40 57.91 Z" />
</g>
</svg>
