<?xml version="1.0" encoding="UTF-8" ?>
<!DOCTYPE svg PUBLIC "-//W3C//DTD SVG 1.1//EN" "http://www.w3.org/Graphics/SVG/1.1/DTD/svg11.dtd">
<svg width="64pt" height="64pt" viewBox="0 0 64 64" version="1.1" xmlns="http://www.w3.org/2000/svg">
<g id="#f3eee0ff">
<path fill="#f3eee0" opacity="1.00" d=" M 10.99 7.00 C 12.95 4.00 17.60 3.16 20.30 5.62 C 22.71 7.79 21.96 11.60 20.61 14.15 C 21.75 16.02 23.12 17.73 24.47 19.46 C 24.38 20.75 24.28 22.05 24.16 23.35 C 23.50 23.33 22.18 23.31 21.53 23.30 C 19.44 21.36 17.39 19.39 15.28 17.48 C 13.00 17.49 10.71 17.47 8.43 17.47 C 7.37 16.41 6.33 15.34 5.29 14.26 C 5.38 13.43 5.54 11.77 5.63 10.94 C 7.20 9.39 9.72 9.01 10.99 7.00 Z" />
</g>
<g id="#604a35cf">
<path fill="#604a35" opacity="0.81" d=" M 5.43 19.32 C 2.29 17.27 2.14 12.20 5.05 9.86 C 3.49 12.16 3.25 15.56 5.06 17.78 C 7.71 19.98 11.43 18.79 14.55 19.53 C 16.15 20.55 17.22 22.18 18.32 23.69 L 18.47 24.97 C 16.88 23.50 15.83 21.27 13.84 20.30 C 11.04 20.10 7.94 20.99 5.43 19.32 Z" />
</g>
<g id="#c7af89fc">
<path fill="#c7af89" opacity="1.00" d=" M 5.05 9.86 C 5.20 10.13 5.48 10.67 5.63 10.94 C 5.54 11.77 5.38 13.43 5.29 14.26 C 6.33 15.34 7.37 16.41 8.43 17.47 C 10.71 17.47 13.00 17.49 15.28 17.48 C 17.39 19.39 19.44 21.36 21.53 23.30 C 21.19 23.75 20.53 24.64 20.20 25.09 C 19.79 25.28 18.97 25.66 18.56 25.85 C 18.54 25.63 18.50 25.19 18.47 24.97 L 18.32 23.69 C 17.22 22.18 16.15 20.55 14.55 19.53 C 11.43 18.79 7.71 19.98 5.06 17.78 C 3.25 15.56 3.49 12.16 5.05 9.86 Z" />
</g>
<g id="#99502bff">
<path fill="#99502b" opacity="1.00" d=" M 24.47 19.46 C 24.72 19.64 25.21 20.00 25.46 20.18 C 27.78 19.49 29.34 21.08 30.25 22.98 C 34.56 23.93 38.70 25.59 42.40 27.99 C 38.19 27.74 34.21 26.38 30.28 24.96 C 28.60 24.18 26.87 24.93 25.25 25.43 C 25.12 31.42 29.34 36.03 32.09 40.96 C 35.28 46.54 39.47 52.43 46.21 53.76 C 50.37 55.43 54.87 52.32 56.60 48.60 C 57.80 45.66 58.05 42.44 58.51 39.33 C 59.01 40.39 59.55 41.45 59.93 42.57 C 59.83 46.22 59.57 50.12 57.42 53.22 C 54.46 58.18 47.73 59.80 42.53 57.71 C 36.88 55.64 33.14 50.58 30.27 45.53 C 27.22 40.78 24.47 35.85 22.03 30.75 C 21.27 28.50 18.58 28.43 16.76 27.56 C 17.21 27.13 18.11 26.28 18.56 25.85 C 18.97 25.66 19.79 25.28 20.20 25.09 C 20.53 24.64 21.19 23.75 21.53 23.30 C 22.18 23.31 23.50 23.33 24.16 23.35 C 24.28 22.05 24.38 20.75 24.47 19.46 Z" />
</g>
<g id="#b66e41ff">
<path fill="#b66e41" opacity="1.00" d=" M 25.25 25.43 C 26.87 24.93 28.60 24.18 30.28 24.96 C 34.21 26.38 38.19 27.74 42.40 27.99 C 48.31 30.74 55.15 33.31 58.51 39.33 C 58.05 42.44 57.80 45.66 56.60 48.60 C 54.87 52.32 50.37 55.43 46.21 53.76 C 39.47 52.43 35.28 46.54 32.09 40.96 C 29.34 36.03 25.12 31.42 25.25 25.43 M 39.38 31.33 C 39.39 34.58 38.96 38.20 40.99 41.01 C 43.46 44.44 47.63 47.41 52.07 46.39 C 53.83 46.05 54.75 44.45 55.75 43.15 C 53.67 36.38 46.72 30.46 39.38 31.33 Z" />
</g>
<g id="#5e2d17e8">
<path fill="#5e2d17" opacity="0.91" d=" M 16.76 27.56 C 18.58 28.43 21.27 28.50 22.03 30.75 C 24.47 35.85 27.22 40.78 30.27 45.53 C 33.14 50.58 36.88 55.64 42.53 57.71 C 47.73 59.80 54.46 58.18 57.42 53.22 C 59.57 50.12 59.83 46.22 59.93 42.57 C 61.88 48.14 59.98 54.80 55.22 58.35 C 50.22 60.98 43.93 61.05 39.08 58.03 C 38.55 57.68 37.49 56.97 36.96 56.61 C 33.92 54.42 31.81 51.26 30.04 48.01 C 27.45 43.27 23.95 39.03 22.06 33.92 C 21.44 30.84 17.24 30.79 16.76 27.56 Z" />
</g>
<g id="#c69565ff">
<path fill="#c69565" opacity="1.00" d=" M 39.38 31.33 C 46.72 30.46 53.67 36.38 55.75 43.15 C 54.75 44.45 53.83 46.05 52.07 46.39 C 47.63 47.41 43.46 44.44 40.99 41.01 C 38.96 38.20 39.39 34.58 39.38 31.33 Z" />
</g>
<g id="#00000036">
<path fill="#000000" opacity="0.21" d=" M 17.75 59.33 C 24.05 57.75 30.66 58.18 36.96 56.61 C 37.49 56.97 38.55 57.68 39.08 58.03 C 35.28 58.58 31.49 59.21 27.73 59.99 C 34.89 60.81 42.10 60.90 49.29 60.83 C 44.34 62.41 39.06 61.80 33.96 61.74 C 28.52 61.40 22.84 61.55 17.75 59.33 Z" />
</g>
<g id="#00000090">
<path fill="#000000" opacity="0.56" d=" M 27.73 59.99 C 31.49 59.21 35.28 58.58 39.08 58.03 C 43.93 61.05 50.22 60.98 55.22 58.35 C 53.49 59.66 51.52 60.75 49.29 60.83 C 42.10 60.90 34.89 60.81 27.73 59.99 Z" />
</g>
</svg>
