<?xml version="1.0" encoding="UTF-8" ?>
<!DOCTYPE svg PUBLIC "-//W3C//DTD SVG 1.1//EN" "http://www.w3.org/Graphics/SVG/1.1/DTD/svg11.dtd">
<svg width="64pt" height="64pt" viewBox="0 0 64 64" version="1.1" xmlns="http://www.w3.org/2000/svg">
<g id="#906741e4">
<path fill="#906741" opacity="0.89" d=" M 25.01 7.01 C 29.66 7.00 34.32 6.85 38.97 7.04 L 39.02 7.98 C 34.34 8.00 29.67 8.04 24.99 7.98 L 25.01 7.01 Z" />
</g>
<g id="#e0934cff">
<path fill="#e0934c" opacity="1.00" d=" M 20.97 8.91 C 21.95 7.63 23.61 8.06 24.99 7.98 C 29.67 8.04 34.34 8.00 39.02 7.98 C 40.40 8.06 42.06 7.64 43.04 8.91 C 45.22 10.77 47.89 11.95 50.04 13.85 C 50.94 17.09 54.73 20.44 51.68 23.67 C 40.91 34.02 21.29 34.14 11.21 22.79 C 11.06 20.76 11.46 18.70 10.93 16.70 C 13.47 13.09 17.67 11.60 20.97 8.91 M 29.29 9.35 C 25.52 9.19 22.94 12.03 19.34 12.32 C 19.05 14.68 16.45 16.31 17.12 18.79 C 19.19 20.06 21.13 22.42 23.80 21.45 C 26.72 25.72 32.29 23.68 36.63 23.83 C 36.84 20.71 39.87 24.24 41.26 22.27 C 43.63 21.10 45.84 18.52 44.18 15.86 C 45.70 15.85 46.04 17.35 47.07 18.11 C 47.12 16.03 46.45 13.82 44.86 12.41 C 42.84 12.95 41.24 11.42 39.65 10.44 C 36.34 9.13 32.77 9.14 29.29 9.35 Z" />
</g>
<g id="#996234f1">
<path fill="#996234" opacity="0.95" d=" M 6.98 19.96 C 9.41 14.67 14.95 9.70 20.97 8.91 C 17.67 11.60 13.47 13.09 10.93 16.70 C 9.69 17.95 8.74 19.43 7.80 20.91 L 6.87 20.97 L 6.98 19.96 Z" />
<path fill="#996234" opacity="0.95" d=" M 43.04 8.91 C 48.85 9.82 55.19 14.45 57.00 20.01 L 57.11 21.03 L 56.20 20.86 C 54.50 18.23 52.48 15.84 50.04 13.85 C 47.89 11.95 45.22 10.77 43.04 8.91 Z" />
</g>
<g id="#f0a861ff">
<path fill="#f0a861" opacity="1.00" d=" M 29.29 9.35 C 32.77 9.14 36.34 9.13 39.65 10.44 C 41.24 11.42 42.84 12.95 44.86 12.41 C 46.45 13.82 47.12 16.03 47.07 18.11 C 46.04 17.35 45.70 15.85 44.18 15.86 C 45.84 18.52 43.63 21.10 41.26 22.27 C 39.87 24.24 36.84 20.71 36.63 23.83 C 32.29 23.68 26.72 25.72 23.80 21.45 C 21.13 22.42 19.19 20.06 17.12 18.79 C 16.45 16.31 19.05 14.68 19.34 12.32 C 22.94 12.03 25.52 9.19 29.29 9.35 Z" />
</g>
<g id="#d78538ff">
<path fill="#d78538" opacity="1.00" d=" M 50.04 13.85 C 52.48 15.84 54.50 18.23 56.20 20.86 C 56.17 24.21 56.79 29.41 52.72 30.74 C 39.48 36.24 23.75 36.48 10.65 30.40 C 7.10 28.82 8.30 24.13 7.80 20.91 C 8.74 19.43 9.69 17.95 10.93 16.70 C 11.46 18.70 11.06 20.76 11.21 22.79 C 21.29 34.14 40.91 34.02 51.68 23.67 C 54.73 20.44 50.94 17.09 50.04 13.85 Z" />
</g>
<g id="#915b21fc">
<path fill="#915b21" opacity="1.00" d=" M 4.93 24.15 C 5.10 22.69 5.50 20.59 6.98 19.96 L 6.87 20.97 C 6.67 23.98 5.02 27.34 6.94 30.04 C 9.52 35.01 15.88 35.16 20.61 36.44 C 31.76 37.47 43.89 38.25 54.24 33.20 C 58.43 30.57 58.36 25.32 57.11 21.03 L 57.00 20.01 C 58.57 20.44 58.83 22.74 59.05 24.14 C 59.05 25.82 59.05 29.17 59.05 30.85 C 59.02 31.35 58.98 32.35 58.96 32.85 C 56.27 33.84 53.64 34.96 50.98 36.00 C 48.02 36.85 45.09 37.97 41.98 38.10 C 35.33 38.02 28.67 37.91 22.02 38.10 C 18.51 38.24 15.33 35.72 11.83 36.57 C 10.55 36.14 9.29 35.65 8.01 35.22 C 6.74 34.78 5.46 34.34 4.18 33.92 C 4.45 32.91 4.70 31.89 4.91 30.86 C 4.92 29.18 4.93 25.83 4.93 24.15 Z" />
</g>
<g id="#bb6c2bff">
<path fill="#bb6c2b" opacity="1.00" d=" M 6.87 20.97 L 7.80 20.91 C 8.30 24.13 7.10 28.82 10.65 30.40 C 23.75 36.48 39.48 36.24 52.72 30.74 C 56.79 29.41 56.17 24.21 56.20 20.86 L 57.11 21.03 C 58.36 25.32 58.43 30.57 54.24 33.20 C 43.89 38.25 31.76 37.47 20.61 36.44 C 15.88 35.16 9.52 35.01 6.94 30.04 C 5.02 27.34 6.67 23.98 6.87 20.97 Z" />
</g>
<g id="#643815e5">
<path fill="#643815" opacity="0.90" d=" M 4.91 30.86 C 3.22 29.97 3.23 25.04 4.93 24.15 C 4.93 25.83 4.92 29.18 4.91 30.86 Z" />
<path fill="#643815" opacity="0.90" d=" M 59.05 24.14 C 60.85 24.96 60.85 30.04 59.05 30.85 C 59.05 29.17 59.05 25.82 59.05 24.14 Z" />
</g>
<g id="#978b31fb">
<path fill="#978b31" opacity="1.00" d=" M 50.98 36.00 C 53.64 34.96 56.27 33.84 58.96 32.85 L 59.99 32.86 L 59.90 33.81 C 57.87 34.62 55.90 35.57 53.87 36.38 C 52.93 36.59 51.98 36.80 51.04 37.01 L 50.98 36.00 Z" />
</g>
<g id="#422107fe">
<path fill="#422107" opacity="1.00" d=" M 4.18 33.92 C 5.46 34.34 6.74 34.78 8.01 35.22 C 4.84 36.04 7.24 39.86 9.11 40.92 C 12.94 44.53 18.85 43.49 23.41 45.52 C 34.98 47.73 23.31 44.40 24.94 41.53 C 27.26 42.69 29.62 43.79 32.01 44.82 C 35.02 43.60 37.85 41.99 40.83 40.70 C 41.42 40.82 42.58 41.04 43.16 41.15 C 41.06 42.68 36.79 42.64 36.88 45.97 C 44.21 44.79 53.84 44.49 58.00 37.23 C 56.62 36.94 55.24 36.69 53.87 36.38 C 55.90 35.57 57.87 34.62 59.90 33.81 C 59.90 36.49 60.32 39.35 58.78 41.68 C 58.31 41.96 57.38 42.51 56.91 42.79 C 55.93 43.39 54.96 44.01 54.00 44.64 C 50.85 45.96 47.49 46.74 44.12 47.24 C 41.07 45.76 38.67 45.99 36.92 47.93 C 28.95 48.46 20.90 48.14 13.21 45.78 C 11.10 44.94 9.03 43.97 7.08 42.80 C 6.61 42.53 5.67 42.00 5.20 41.73 C 3.76 39.38 4.04 36.57 4.18 33.92 Z" />
</g>
<g id="#582f09ff">
<path fill="#582f09" opacity="1.00" d=" M 8.01 35.22 C 9.29 35.65 10.55 36.14 11.83 36.57 C 14.81 37.78 17.85 38.82 20.92 39.76 C 22.30 40.26 23.64 40.86 24.94 41.53 C 23.31 44.40 34.98 47.73 23.41 45.52 C 18.85 43.49 12.94 44.53 9.11 40.92 C 7.24 39.86 4.84 36.04 8.01 35.22 Z" />
</g>
<g id="#afa537ff">
<path fill="#afa537" opacity="1.00" d=" M 11.83 36.57 C 15.33 35.72 18.51 38.24 22.02 38.10 L 21.98 38.97 C 21.71 39.17 21.19 39.56 20.92 39.76 C 17.85 38.82 14.81 37.78 11.83 36.57 Z" />
</g>
<g id="#b0a737ff">
<path fill="#b0a737" opacity="1.00" d=" M 41.98 38.10 C 45.09 37.97 48.02 36.85 50.98 36.00 L 51.04 37.01 C 48.43 38.05 45.76 38.92 43.08 39.78 C 42.82 39.57 42.30 39.16 42.04 38.96 L 41.98 38.10 Z" />
</g>
<g id="#592f09ff">
<path fill="#592f09" opacity="1.00" d=" M 51.04 37.01 C 51.98 36.80 52.93 36.59 53.87 36.38 C 55.24 36.69 56.62 36.94 58.00 37.23 C 53.84 44.49 44.21 44.79 36.88 45.97 C 36.79 42.64 41.06 42.68 43.16 41.15 C 42.58 41.04 41.42 40.82 40.83 40.70 C 41.40 40.47 42.52 40.01 43.08 39.78 C 45.76 38.92 48.43 38.05 51.04 37.01 Z" />
</g>
<g id="#877615ff">
<path fill="#877615" opacity="1.00" d=" M 22.02 38.10 C 28.67 37.91 35.33 38.02 41.98 38.10 L 42.04 38.96 C 41.60 39.05 40.73 39.22 40.29 39.31 C 34.78 39.12 29.26 38.85 23.75 39.20 C 23.31 39.14 22.42 39.03 21.98 38.97 L 22.02 38.10 Z" />
</g>
<g id="#eee73aff">
<path fill="#eee73a" opacity="1.00" d=" M 20.92 39.76 C 21.19 39.56 21.71 39.17 21.98 38.97 C 22.42 39.03 23.31 39.14 23.75 39.20 C 29.18 40.16 34.86 40.48 40.29 39.31 C 40.73 39.22 41.60 39.05 42.04 38.96 C 42.30 39.16 42.82 39.57 43.08 39.78 C 42.52 40.01 41.40 40.47 40.83 40.70 C 37.85 41.99 35.02 43.60 32.01 44.82 C 29.62 43.79 27.26 42.69 24.94 41.53 C 23.64 40.86 22.30 40.26 20.92 39.76 Z" />
</g>
<g id="#cbc423ff">
<path fill="#cbc423" opacity="1.00" d=" M 23.75 39.20 C 29.26 38.85 34.78 39.12 40.29 39.31 C 34.86 40.48 29.18 40.16 23.75 39.20 Z" />
</g>
<g id="#693d1ced">
<path fill="#693d1c" opacity="0.93" d=" M 4.16 49.77 C 5.97 48.66 1.94 42.03 5.20 41.73 C 5.67 42.00 6.61 42.53 7.08 42.80 C 3.32 42.53 5.26 47.55 6.72 49.29 C 11.20 52.92 17.22 54.50 22.88 55.27 C 34.33 57.11 46.81 56.12 56.83 49.85 C 58.52 48.11 60.91 42.69 56.91 42.79 C 57.38 42.51 58.31 41.96 58.78 41.68 C 62.25 41.78 59.52 47.46 59.86 49.82 C 49.45 58.49 34.68 57.06 22.06 56.84 C 15.94 55.34 8.73 54.58 4.16 49.77 Z" />
</g>
<g id="#a76a38ff">
<path fill="#a76a38" opacity="1.00" d=" M 6.72 49.29 C 5.26 47.55 3.32 42.53 7.08 42.80 C 9.03 43.97 11.10 44.94 13.21 45.78 C 11.76 45.87 10.30 45.98 8.85 46.13 C 15.33 54.36 27.55 54.14 37.01 54.00 C 42.95 52.88 50.01 52.18 54.25 47.29 C 55.17 46.39 55.09 45.50 54.00 44.64 C 54.96 44.01 55.93 43.39 56.91 42.79 C 60.91 42.69 58.52 48.11 56.83 49.85 C 46.81 56.12 34.33 57.11 22.88 55.27 C 17.22 54.50 11.20 52.92 6.72 49.29 Z" />
</g>
<g id="#d3945cff">
<path fill="#d3945c" opacity="1.00" d=" M 44.12 47.24 C 47.49 46.74 50.85 45.96 54.00 44.64 C 55.09 45.50 55.17 46.39 54.25 47.29 C 50.01 52.18 42.95 52.88 37.01 54.00 C 27.55 54.14 15.33 54.36 8.85 46.13 C 10.30 45.98 11.76 45.87 13.21 45.78 C 20.90 48.14 28.95 48.46 36.92 47.93 C 39.73 49.06 42.13 48.83 44.12 47.24 Z" />
</g>
<g id="#764e2efe">
<path fill="#764e2e" opacity="1.00" d=" M 36.92 47.93 C 38.67 45.99 41.07 45.76 44.12 47.24 C 42.13 48.83 39.73 49.06 36.92 47.93 Z" />
</g>
</svg>
