<?xml version="1.0" encoding="UTF-8" ?>
<!DOCTYPE svg PUBLIC "-//W3C//DTD SVG 1.1//EN" "http://www.w3.org/Graphics/SVG/1.1/DTD/svg11.dtd">
<svg width="64pt" height="64pt" viewBox="0 0 64 64" version="1.1" xmlns="http://www.w3.org/2000/svg">
<g id="#ba8f56fe">
<path fill="#ba8f56" opacity="1.00" d=" M 14.87 5.93 C 20.65 2.79 27.92 2.52 33.83 5.46 C 41.33 8.89 46.22 16.91 46.52 25.05 C 46.64 30.00 43.73 34.16 42.16 38.62 C 48.25 43.96 53.71 49.99 59.53 55.63 C 61.18 56.80 60.70 58.80 60.28 60.46 C 58.83 60.70 57.39 60.67 55.96 60.38 C 50.88 53.85 44.06 48.87 38.98 42.34 C 37.03 42.26 35.55 43.66 33.87 44.40 C 27.71 47.00 20.38 46.95 14.49 43.64 C 8.46 40.21 4.15 33.86 3.48 26.92 C 2.59 18.49 7.29 9.76 14.87 5.93 Z" />
</g>
</svg>
