<?xml version="1.0" encoding="UTF-8" ?>
<!DOCTYPE svg PUBLIC "-//W3C//DTD SVG 1.1//EN" "http://www.w3.org/Graphics/SVG/1.1/DTD/svg11.dtd">
<svg width="64pt" height="64pt" viewBox="0 0 64 64" version="1.1" xmlns="http://www.w3.org/2000/svg">
<g id="#993944ee">
<path fill="#993944" opacity="0.93" d=" M 27.01 4.01 C 30.16 5.16 37.49 1.93 39.03 4.98 C 35.01 4.98 31.00 4.99 26.98 4.99 L 27.01 4.01 Z" />
</g>
<g id="#e64863fc">
<path fill="#e64863" opacity="1.00" d=" M 13.35 15.95 C 16.15 11.74 21.50 6.54 26.98 4.99 C 31.00 4.99 35.01 4.98 39.03 4.98 C 45.22 5.55 49.82 11.31 50.45 17.28 L 50.17 18.09 L 49.41 18.26 C 48.35 17.44 47.25 16.66 46.16 15.89 L 46.07 15.03 C 45.65 13.88 46.93 10.66 44.78 11.51 C 43.19 12.02 44.88 8.63 43.10 9.07 C 43.01 9.83 42.84 11.34 42.75 12.09 C 41.03 8.71 37.06 8.47 33.81 9.87 C 32.60 9.45 31.37 9.08 30.12 8.80 C 31.40 11.33 32.88 13.58 36.10 13.25 C 33.47 14.06 31.26 15.22 29.82 17.78 C 28.46 17.29 27.16 16.63 25.83 16.05 C 25.39 15.87 24.52 15.53 24.09 15.36 C 22.42 16.30 16.75 14.64 20.85 13.68 C 20.41 11.38 18.51 12.55 17.06 13.19 C 17.31 14.57 17.86 15.87 18.31 17.20 C 17.27 17.53 16.21 17.75 15.13 17.87 C 14.54 17.23 13.94 16.59 13.35 15.95 Z" />
</g>
<g id="#fe7192ff">
<path fill="#fe7192" opacity="1.00" d=" M 30.12 8.80 C 31.37 9.08 32.60 9.45 33.81 9.87 C 34.08 10.33 34.61 11.24 34.88 11.69 C 36.50 12.00 38.39 12.08 38.49 14.17 C 38.28 15.95 36.60 15.93 35.23 16.23 C 35.88 17.47 36.61 18.66 37.18 19.93 C 36.10 19.33 35.06 18.66 33.98 18.06 C 34.52 20.35 33.83 23.29 35.91 24.90 C 35.40 25.25 34.37 25.96 33.86 26.31 C 31.51 26.00 29.16 25.62 26.83 25.17 C 26.63 24.60 26.22 23.46 26.01 22.90 C 28.86 22.33 33.01 22.96 32.12 18.99 C 30.51 22.05 25.46 18.93 25.83 16.05 C 27.16 16.63 28.46 17.29 29.82 17.78 C 31.26 15.22 33.47 14.06 36.10 13.25 C 32.88 13.58 31.40 11.33 30.12 8.80 Z" />
</g>
<g id="#fb5777ff">
<path fill="#fb5777" opacity="1.00" d=" M 33.81 9.87 C 37.06 8.47 41.03 8.71 42.75 12.09 C 42.84 11.34 43.01 9.83 43.10 9.07 C 44.88 8.63 43.19 12.02 44.78 11.51 C 46.93 10.66 45.65 13.88 46.07 15.03 L 45.27 14.51 C 43.41 11.46 38.87 14.52 40.71 17.37 C 40.73 17.98 40.77 19.20 40.79 19.82 C 39.39 21.12 38.10 22.53 37.02 24.11 C 36.75 24.31 36.19 24.70 35.91 24.90 C 33.83 23.29 34.52 20.35 33.98 18.06 C 35.06 18.66 36.10 19.33 37.18 19.93 C 36.61 18.66 35.88 17.47 35.23 16.23 C 36.60 15.93 38.28 15.95 38.49 14.17 C 40.53 11.28 36.66 8.33 34.88 11.69 C 34.61 11.24 34.08 10.33 33.81 9.87 Z" />
</g>
<g id="#f54062ff">
<path fill="#f54062" opacity="1.00" d=" M 34.88 11.69 C 36.66 8.33 40.53 11.28 38.49 14.17 C 38.39 12.08 36.50 12.00 34.88 11.69 Z" />
</g>
<g id="#44718bf8">
<path fill="#44718b" opacity="0.97" d=" M 50.45 17.28 C 53.14 15.00 52.27 8.77 57.02 10.00 C 56.15 14.28 54.56 18.37 53.64 22.64 C 52.54 25.29 51.74 28.09 52.11 31.00 L 51.35 31.11 C 51.26 28.01 47.58 30.72 45.84 29.00 C 46.31 27.73 46.82 26.48 47.34 25.23 C 48.51 22.95 49.38 20.53 50.17 18.09 L 50.45 17.28 Z" />
</g>
<g id="#f97287ff">
<path fill="#f97287" opacity="1.00" d=" M 17.06 13.19 C 18.51 12.55 20.41 11.38 20.85 13.68 C 16.75 14.64 22.42 16.30 24.09 15.36 C 24.00 15.97 23.82 17.18 23.74 17.79 C 21.94 17.46 20.13 17.26 18.31 17.20 C 17.86 15.87 17.31 14.57 17.06 13.19 Z" />
</g>
<g id="#f67f91ff">
<path fill="#f67f91" opacity="1.00" d=" M 40.71 17.37 C 38.87 14.52 43.41 11.46 45.27 14.51 C 43.35 14.81 41.75 15.71 40.71 17.37 Z" />
</g>
<g id="#fb5879ff">
<path fill="#fb5879" opacity="1.00" d=" M 24.09 15.36 C 24.52 15.53 25.39 15.87 25.83 16.05 C 25.46 18.93 30.51 22.05 32.12 18.99 C 33.01 22.96 28.86 22.33 26.01 22.90 C 24.89 21.33 22.79 19.97 23.74 17.79 C 23.82 17.18 24.00 15.97 24.09 15.36 Z" />
</g>
<g id="#f2a9b1ff">
<path fill="#f2a9b1" opacity="1.00" d=" M 40.71 17.37 C 41.75 15.71 43.35 14.81 45.27 14.51 L 46.07 15.03 L 46.16 15.89 C 45.41 16.59 44.67 17.30 43.94 18.04 C 45.67 18.73 47.63 18.81 49.41 18.26 L 50.17 18.09 C 49.38 20.53 48.51 22.95 47.34 25.23 C 46.58 23.16 45.53 21.53 43.34 23.11 C 42.48 22.02 41.61 20.94 40.79 19.82 C 40.77 19.20 40.73 17.98 40.71 17.37 Z" />
</g>
<g id="#bd8e8ff8">
<path fill="#bd8e8f" opacity="0.97" d=" M 13.35 15.95 C 13.94 16.59 14.54 17.23 15.13 17.87 L 14.16 18.01 C 10.75 17.72 10.41 21.85 9.26 24.15 C 9.15 23.42 8.93 21.96 8.82 21.23 C 9.55 18.88 11.19 17.08 13.35 15.95 Z" />
</g>
<g id="#eb8c97ff">
<path fill="#eb8c97" opacity="1.00" d=" M 46.16 15.89 C 47.25 16.66 48.35 17.44 49.41 18.26 C 47.63 18.81 45.67 18.73 43.94 18.04 C 44.67 17.30 45.41 16.59 46.16 15.89 Z" />
</g>
<g id="#f3b0b6ff">
<path fill="#f3b0b6" opacity="1.00" d=" M 18.31 17.20 C 20.13 17.26 21.94 17.46 23.74 17.79 C 22.79 19.97 24.89 21.33 26.01 22.90 C 26.22 23.46 26.63 24.60 26.83 25.17 C 26.42 24.98 25.59 24.60 25.18 24.41 C 23.20 23.44 20.78 23.76 19.80 21.33 C 17.44 22.80 14.68 22.90 11.95 23.02 C 12.67 21.34 13.50 19.71 14.16 18.01 L 15.13 17.87 C 16.21 17.75 17.27 17.53 18.31 17.20 Z" />
</g>
<g id="#f0cfcdff">
<path fill="#f0cfcd" opacity="1.00" d=" M 9.26 24.15 C 10.41 21.85 10.75 17.72 14.16 18.01 C 13.50 19.71 12.67 21.34 11.95 23.02 C 14.68 22.90 17.44 22.80 19.80 21.33 C 20.78 23.76 23.20 23.44 25.18 24.41 C 23.94 25.40 24.10 25.99 25.67 26.19 C 24.95 27.37 24.24 28.55 23.57 29.76 C 22.36 29.36 21.19 28.80 19.98 28.38 C 20.57 27.48 21.30 26.68 21.95 25.82 C 20.28 25.84 17.23 26.37 18.17 28.74 C 19.13 29.57 20.17 30.28 21.19 31.01 C 18.87 30.86 16.54 30.25 14.21 30.64 C 12.35 30.11 10.48 29.60 8.70 28.84 L 8.79 27.87 C 8.94 26.63 9.10 25.39 9.26 24.15 Z" />
</g>
<g id="#fb6e8cff">
<path fill="#fb6e8c" opacity="1.00" d=" M 37.02 24.11 C 38.10 22.53 39.39 21.12 40.79 19.82 C 41.61 20.94 42.48 22.02 43.34 23.11 C 41.34 24.04 39.24 24.86 37.02 24.11 Z" />
</g>
<g id="#544d4ba7">
<path fill="#544d4b" opacity="0.65" d=" M 8.22 27.88 C 7.92 25.95 7.18 22.33 8.82 21.23 C 8.93 21.96 9.15 23.42 9.26 24.15 C 9.10 25.39 8.94 26.63 8.79 27.87 L 8.22 27.88 Z" />
</g>
<g id="#f5cbccff">
<path fill="#f5cbcc" opacity="1.00" d=" M 43.34 23.11 C 45.53 21.53 46.58 23.16 47.34 25.23 C 46.82 26.48 46.31 27.73 45.84 29.00 C 45.70 29.33 45.41 29.98 45.26 30.31 C 44.38 29.41 43.52 28.47 43.32 27.18 C 40.85 27.32 38.37 27.81 35.88 27.55 C 38.36 26.15 42.10 26.02 43.34 23.11 Z" />
</g>
<g id="#fe9ab1ff">
<path fill="#fe9ab1" opacity="1.00" d=" M 37.02 24.11 C 39.24 24.86 41.34 24.04 43.34 23.11 C 42.10 26.02 38.36 26.15 35.88 27.55 L 35.16 27.53 C 34.83 27.22 34.19 26.61 33.86 26.31 C 34.37 25.96 35.40 25.25 35.91 24.90 C 36.19 24.70 36.75 24.31 37.02 24.11 Z" />
</g>
<g id="#9d9b9bfd">
<path fill="#9d9b9b" opacity="1.00" d=" M 52.11 31.00 C 51.74 28.09 52.54 25.29 53.64 22.64 C 54.88 23.12 55.34 24.22 55.03 25.94 C 57.28 33.70 51.40 40.34 47.01 46.05 C 44.42 48.96 40.38 49.71 36.82 50.86 C 36.11 50.94 34.69 51.10 33.98 51.18 C 33.57 53.61 36.42 54.17 38.11 54.91 C 40.59 56.19 44.66 55.56 46.05 58.09 C 39.77 59.37 34.09 52.94 28.09 56.11 C 25.22 57.91 20.18 56.45 18.65 59.82 C 16.30 61.11 16.59 57.82 18.26 57.27 C 21.24 56.19 24.20 55.08 27.14 53.92 C 30.21 53.85 30.96 49.99 27.21 51.03 C 23.44 49.19 18.43 48.69 15.92 45.09 C 13.18 40.12 7.76 34.94 8.70 28.84 C 10.48 29.60 12.35 30.11 14.21 30.64 L 13.76 31.54 C 13.57 31.90 13.19 32.63 13.00 33.00 C 17.36 41.49 28.98 42.66 37.33 41.41 C 44.19 40.53 49.11 35.46 54.12 31.19 C 53.62 31.14 52.61 31.05 52.11 31.00 Z" />
</g>
<g id="#fae7e6ff">
<path fill="#fae7e6" opacity="1.00" d=" M 25.67 26.19 C 24.10 25.99 23.94 25.40 25.18 24.41 C 25.59 24.60 26.42 24.98 26.83 25.17 C 28.89 27.59 31.97 28.57 35.16 27.53 L 35.88 27.55 C 38.37 27.81 40.85 27.32 43.32 27.18 C 43.52 28.47 44.38 29.41 45.26 30.31 C 37.96 31.22 30.59 30.95 23.25 31.27 C 22.74 31.21 21.71 31.08 21.19 31.01 C 20.17 30.28 19.13 29.57 18.17 28.74 C 17.23 26.37 20.28 25.84 21.95 25.82 C 21.30 26.68 20.57 27.48 19.98 28.38 C 21.19 28.80 22.36 29.36 23.57 29.76 C 24.24 28.55 24.95 27.37 25.67 26.19 Z" />
</g>
<g id="#fec2cdff">
<path fill="#fec2cd" opacity="1.00" d=" M 26.83 25.17 C 29.16 25.62 31.51 26.00 33.86 26.31 C 34.19 26.61 34.83 27.22 35.16 27.53 C 31.97 28.57 28.89 27.59 26.83 25.17 Z" />
</g>
<g id="#616060e5">
<path fill="#616060" opacity="0.90" d=" M 55.03 25.94 C 59.01 28.89 55.85 35.48 53.94 38.96 C 52.09 41.54 50.63 45.76 47.01 46.05 C 51.40 40.34 57.28 33.70 55.03 25.94 Z" />
</g>
<g id="#5f5e5ee4">
<path fill="#5f5e5e" opacity="0.89" d=" M 7.22 27.94 L 8.22 27.88 L 8.79 27.87 L 8.70 28.84 C 7.76 34.94 13.18 40.12 15.92 45.09 C 15.47 45.04 14.56 44.95 14.10 44.90 C 10.57 39.97 6.31 34.47 7.22 27.94 Z" />
</g>
<g id="#2d4f65ff">
<path fill="#2d4f65" opacity="1.00" d=" M 45.84 29.00 C 47.58 30.72 51.26 28.01 51.35 31.11 C 49.73 31.31 46.50 31.71 44.89 31.92 C 44.98 31.51 45.17 30.71 45.26 30.31 C 45.41 29.98 45.70 29.33 45.84 29.00 Z" />
</g>
<g id="#c2aaa6ff">
<path fill="#c2aaa6" opacity="1.00" d=" M 14.21 30.64 C 16.54 30.25 18.87 30.86 21.19 31.01 C 21.71 31.08 22.74 31.21 23.25 31.27 C 22.12 31.66 20.97 32.02 19.82 32.36 C 17.80 32.12 15.77 31.86 13.76 31.54 L 14.21 30.64 Z" />
</g>
<g id="#cfc0beff">
<path fill="#cfc0be" opacity="1.00" d=" M 23.25 31.27 C 30.59 30.95 37.96 31.22 45.26 30.31 C 45.17 30.71 44.98 31.51 44.89 31.92 C 43.50 32.12 42.12 32.36 40.76 32.67 C 33.79 33.06 26.75 33.39 19.82 32.36 C 20.97 32.02 22.12 31.66 23.25 31.27 Z" />
</g>
<g id="#d1d1d1ff">
<path fill="#d1d1d1" opacity="1.00" d=" M 51.35 31.11 L 52.11 31.00 C 52.61 31.05 53.62 31.14 54.12 31.19 C 49.11 35.46 44.19 40.53 37.33 41.41 C 28.98 42.66 17.36 41.49 13.00 33.00 C 24.29 34.37 35.67 34.08 47.02 34.00 L 46.96 33.02 C 45.41 32.93 42.31 32.76 40.76 32.67 C 42.12 32.36 43.50 32.12 44.89 31.92 C 46.50 31.71 49.73 31.31 51.35 31.11 Z" />
</g>
<g id="#e7e7e7ff">
<path fill="#e7e7e7" opacity="1.00" d=" M 13.00 33.00 C 13.19 32.63 13.57 31.90 13.76 31.54 C 15.77 31.86 17.80 32.12 19.82 32.36 C 26.75 33.39 33.79 33.06 40.76 32.67 C 42.31 32.76 45.41 32.93 46.96 33.02 L 47.02 34.00 C 35.67 34.08 24.29 34.37 13.00 33.00 Z" />
</g>
<g id="#747474fe">
<path fill="#747474" opacity="1.00" d=" M 27.21 51.03 C 30.96 49.99 30.21 53.85 27.14 53.92 C 27.16 53.20 27.19 51.75 27.21 51.03 Z" />
</g>
<g id="#686868f3">
<path fill="#686868" opacity="0.95" d=" M 33.98 51.18 C 34.69 51.10 36.11 50.94 36.82 50.86 C 37.27 52.20 37.77 53.53 38.11 54.91 C 36.42 54.17 33.57 53.61 33.98 51.18 Z" />
</g>
<g id="#bfbebefe">
<path fill="#bfbebe" opacity="1.00" d=" M 28.09 56.11 C 34.09 52.94 39.77 59.37 46.05 58.09 C 45.35 61.32 41.83 61.85 39.01 62.01 C 34.33 62.01 29.66 62.01 24.98 62.00 C 22.91 61.65 19.72 61.77 18.65 59.82 C 20.18 56.45 25.22 57.91 28.09 56.11 Z" />
</g>
<g id="#3333338d">
<path fill="#333333" opacity="0.55" d=" M 24.98 62.00 C 29.66 62.01 34.33 62.01 39.01 62.01 L 38.99 62.99 C 34.34 63.00 29.68 63.15 25.03 62.95 L 24.98 62.00 Z" />
</g>
</svg>
