<?xml version="1.0" encoding="UTF-8" ?>
<!DOCTYPE svg PUBLIC "-//W3C//DTD SVG 1.1//EN" "http://www.w3.org/Graphics/SVG/1.1/DTD/svg11.dtd">
<svg width="64pt" height="64pt" viewBox="0 0 64 64" version="1.1" xmlns="http://www.w3.org/2000/svg">
<g id="#dc71cdfc">
<path fill="#dc71cd" opacity="1.00" d=" M 3.95 11.99 C 3.59 5.32 12.68 0.19 18.03 3.93 C 18.99 5.37 20.49 6.24 21.83 7.26 C 20.99 8.49 19.96 9.59 19.09 10.80 C 20.78 11.80 23.84 11.37 24.21 13.76 C 23.27 13.51 22.33 13.27 21.39 13.04 C 22.41 15.26 19.95 15.72 18.46 16.57 C 15.99 18.51 13.84 20.82 11.78 23.17 C 10.83 23.40 9.88 23.64 8.94 23.90 C 5.05 22.29 3.29 15.89 3.95 11.99 M 11.32 6.38 C 9.65 7.21 7.91 7.87 6.10 8.31 C 6.46 12.14 6.46 17.76 10.10 19.98 C 13.52 20.62 12.39 17.11 11.97 15.16 C 12.72 15.08 14.22 14.92 14.98 14.84 C 15.95 11.89 11.62 13.98 11.57 11.33 C 9.74 10.04 13.13 5.97 11.32 6.38 Z" />
</g>
<g id="#c03faefa">
<path fill="#c03fae" opacity="0.98" d=" M 18.03 3.93 C 23.55 4.11 27.25 10.80 25.99 15.90 L 25.92 16.80 C 23.96 17.20 22.09 17.92 20.23 18.66 C 16.98 19.15 15.67 22.62 13.72 24.88 C 13.05 24.34 12.40 23.77 11.78 23.17 C 13.84 20.82 15.99 18.51 18.46 16.57 C 19.95 15.72 22.41 15.26 21.39 13.04 C 22.33 13.27 23.27 13.51 24.21 13.76 C 23.84 11.37 20.78 11.80 19.09 10.80 C 19.96 9.59 20.99 8.49 21.83 7.26 C 20.49 6.24 18.99 5.37 18.03 3.93 Z" />
</g>
<g id="#f3afe8ff">
<path fill="#f3afe8" opacity="1.00" d=" M 11.32 6.38 C 13.13 5.97 9.74 10.04 11.57 11.33 C 11.62 13.98 15.95 11.89 14.98 14.84 C 14.22 14.92 12.72 15.08 11.97 15.16 C 12.39 17.11 13.52 20.62 10.10 19.98 C 6.46 17.76 6.46 12.14 6.10 8.31 C 7.91 7.87 9.65 7.21 11.32 6.38 Z" />
</g>
<g id="#b0b1aff7">
<path fill="#b0b1af" opacity="0.97" d=" M 25.99 15.90 C 30.60 16.52 37.33 19.02 38.04 24.00 C 38.61 27.67 38.97 31.08 35.03 29.01 C 35.31 29.52 35.86 30.55 36.13 31.06 C 35.04 31.91 33.87 32.69 32.96 33.75 C 32.29 34.52 31.64 35.31 31.00 36.10 C 29.05 37.83 26.52 38.21 24.00 38.11 C 18.26 37.65 16.35 30.73 17.03 25.81 C 17.57 30.62 20.62 35.98 25.76 36.82 C 26.11 35.81 25.68 33.66 27.36 34.59 C 30.84 36.22 26.60 31.07 29.03 31.12 C 32.75 31.24 35.11 28.47 35.81 25.06 C 34.18 20.73 30.14 18.21 25.92 16.80 L 25.99 15.90 Z" />
</g>
<g id="#e8e8e8ff">
<path fill="#e8e8e8" opacity="1.00" d=" M 20.23 18.66 C 22.09 17.92 23.96 17.20 25.92 16.80 C 30.14 18.21 34.18 20.73 35.81 25.06 C 35.11 28.47 32.75 31.24 29.03 31.12 C 26.60 31.07 30.84 36.22 27.36 34.59 C 25.68 33.66 26.11 35.81 25.76 36.82 C 20.62 35.98 17.57 30.62 17.03 25.81 C 16.46 22.85 18.51 20.74 20.23 18.66 Z" />
</g>
<g id="#992688ee">
<path fill="#992688" opacity="0.93" d=" M 13.72 24.88 C 15.67 22.62 16.98 19.15 20.23 18.66 C 18.51 20.74 16.46 22.85 17.03 25.81 C 14.50 25.91 10.15 26.62 8.94 23.90 C 9.88 23.64 10.83 23.40 11.78 23.17 C 12.40 23.77 13.05 24.34 13.72 24.88 Z" />
</g>
<g id="#8d8d8df7">
<path fill="#8d8d8d" opacity="0.97" d=" M 38.04 24.00 L 38.98 24.03 C 38.99 24.52 39.00 25.50 39.01 25.99 C 39.00 27.65 38.99 29.32 38.98 30.98 C 38.27 31.00 36.85 31.04 36.13 31.06 C 35.86 30.55 35.31 29.52 35.03 29.01 C 38.97 31.08 38.61 27.67 38.04 24.00 Z" />
</g>
<g id="#3b46238b">
<path fill="#3b4623" opacity="0.55" d=" M 39.01 25.99 C 42.13 26.28 36.74 35.03 44.97 30.09 L 45.02 31.01 C 43.01 30.99 40.99 30.99 38.98 30.98 C 38.99 29.32 39.00 27.65 39.01 25.99 Z" />
</g>
<g id="#85b125fe">
<path fill="#85b125" opacity="1.00" d=" M 36.13 31.06 C 36.85 31.04 38.27 31.00 38.98 30.98 C 40.99 30.99 43.01 30.99 45.02 31.01 C 48.01 31.35 51.89 33.79 51.97 37.00 C 51.55 39.60 51.24 42.22 50.94 44.85 C 47.68 44.47 46.45 47.66 44.68 49.71 C 40.69 51.39 36.53 49.85 32.99 47.85 L 33.16 47.00 C 34.28 46.30 35.83 44.18 36.34 46.56 C 39.19 44.09 41.99 48.26 44.69 45.70 C 45.07 44.59 47.40 41.56 44.75 42.56 C 42.46 43.36 42.80 39.81 41.22 38.82 C 41.83 37.89 42.48 36.98 43.04 36.02 C 41.27 34.79 39.70 33.30 38.00 31.98 C 35.85 32.83 34.52 38.33 32.96 33.75 C 33.87 32.69 35.04 31.91 36.13 31.06 Z" />
</g>
<g id="#adcb5cff">
<path fill="#adcb5c" opacity="1.00" d=" M 32.96 33.75 C 34.52 38.33 35.85 32.83 38.00 31.98 C 39.70 33.30 41.27 34.79 43.04 36.02 C 42.48 36.98 41.83 37.89 41.22 38.82 C 39.44 38.18 37.73 37.30 35.84 37.04 C 32.09 36.48 32.19 44.74 36.01 44.01 C 37.97 44.58 38.58 42.64 39.38 41.33 C 40.00 40.49 40.61 39.66 41.22 38.82 C 42.80 39.81 42.46 43.36 44.75 42.56 C 47.40 41.56 45.07 44.59 44.69 45.70 C 41.99 48.26 39.19 44.09 36.34 46.56 C 35.83 44.18 34.28 46.30 33.16 47.00 C 32.95 44.15 32.17 41.39 31.22 38.71 C 31.17 38.06 31.06 36.75 31.00 36.10 C 31.64 35.31 32.29 34.52 32.96 33.75 Z" />
</g>
<g id="#838976f3">
<path fill="#838976" opacity="0.95" d=" M 24.00 38.11 C 26.52 38.21 29.05 37.83 31.00 36.10 C 31.06 36.75 31.17 38.06 31.22 38.71 L 30.14 38.91 C 28.61 38.71 25.54 38.31 24.00 38.11 Z" />
</g>
<g id="#dce9bcff">
<path fill="#dce9bc" opacity="1.00" d=" M 36.01 44.01 C 32.19 44.74 32.09 36.48 35.84 37.04 C 36.86 38.60 38.04 40.03 39.38 41.33 C 38.58 42.64 37.97 44.58 36.01 44.01 Z" />
</g>
<g id="#cade95ff">
<path fill="#cade95" opacity="1.00" d=" M 35.84 37.04 C 37.73 37.30 39.44 38.18 41.22 38.82 C 40.61 39.66 40.00 40.49 39.38 41.33 C 38.04 40.03 36.86 38.60 35.84 37.04 Z" />
</g>
<g id="#327112ea">
<path fill="#327112" opacity="0.92" d=" M 51.97 37.00 L 52.98 36.97 C 52.51 39.62 54.27 45.43 50.93 47.02 C 50.94 46.48 50.94 45.39 50.94 44.85 C 51.24 42.22 51.55 39.60 51.97 37.00 Z" />
</g>
<g id="#749720ef">
<path fill="#749720" opacity="0.94" d=" M 30.14 38.91 L 31.22 38.71 C 32.17 41.39 32.95 44.15 33.16 47.00 L 32.99 47.85 C 29.72 47.06 29.76 41.57 30.14 38.91 Z" />
</g>
<g id="#447916ee">
<path fill="#447916" opacity="0.93" d=" M 44.68 49.71 C 46.45 47.66 47.68 44.47 50.94 44.85 C 50.94 45.39 50.94 46.48 50.93 47.02 C 50.88 47.42 50.76 48.23 50.70 48.63 C 50.28 50.05 50.02 51.52 49.81 52.99 C 48.79 52.47 47.97 50.65 46.71 51.70 C 42.22 54.40 35.27 52.58 32.99 47.85 C 36.53 49.85 40.69 51.39 44.68 49.71 Z" />
</g>
<g id="#ab895fee">
<path fill="#ab895f" opacity="0.93" d=" M 49.81 52.99 C 50.02 51.52 50.28 50.05 50.70 48.63 C 54.92 50.71 58.92 54.43 60.86 58.83 C 60.56 59.18 59.97 59.88 59.68 60.23 C 56.96 59.94 55.32 57.64 53.17 56.25 C 52.01 55.25 50.35 54.52 49.81 52.99 Z" />
</g>
<g id="#0403022d">
<path fill="#040302" opacity="0.18" d=" M 53.17 56.25 C 55.32 57.64 56.96 59.94 59.68 60.23 L 60.17 60.93 C 50.52 60.87 40.83 61.36 31.19 60.85 C 30.85 60.42 30.16 59.56 29.82 59.12 C 37.78 59.67 45.43 57.68 53.17 56.25 Z" />
</g>
</svg>
