<?xml version="1.0" encoding="UTF-8" ?>
<!DOCTYPE svg PUBLIC "-//W3C//DTD SVG 1.1//EN" "http://www.w3.org/Graphics/SVG/1.1/DTD/svg11.dtd">
<svg width="64pt" height="64pt" viewBox="0 0 64 64" version="1.1" xmlns="http://www.w3.org/2000/svg">
<g id="#ddab6cf7">
<path fill="#ddab6c" opacity="0.97" d=" M 28.00 8.02 C 30.57 7.13 32.83 4.62 35.73 5.09 C 36.16 9.25 41.89 4.01 43.78 7.24 C 44.87 8.87 47.11 6.00 47.61 8.29 C 47.69 11.73 51.08 12.82 53.92 13.25 C 53.93 13.90 53.94 15.20 53.95 15.85 C 52.62 16.89 51.08 17.71 49.95 18.99 C 50.94 21.02 52.30 22.85 53.18 24.93 C 52.72 24.66 51.80 24.13 51.34 23.87 C 49.38 21.58 48.81 25.66 46.99 26.03 C 45.99 25.25 45.12 24.32 44.26 23.39 C 46.32 22.63 47.10 21.19 46.24 19.12 C 46.73 18.18 48.06 17.31 47.70 16.15 C 46.51 15.80 45.29 15.75 44.03 16.01 C 44.04 14.63 44.02 13.24 43.97 11.86 C 42.28 12.02 43.74 15.58 41.98 14.81 C 40.11 13.80 38.33 12.28 37.47 10.27 C 32.90 7.32 32.87 11.71 31.73 13.98 C 30.33 13.20 28.74 13.27 27.20 13.39 C 26.51 14.90 26.06 16.51 25.58 18.09 C 24.65 16.40 23.97 14.59 23.28 12.79 C 22.18 9.99 26.43 9.27 28.00 8.02 Z" />
</g>
<g id="#d49351ff">
<path fill="#d49351" opacity="1.00" d=" M 31.73 13.98 C 32.87 11.71 32.90 7.32 37.47 10.27 C 38.33 12.28 40.11 13.80 41.98 14.81 C 43.74 15.58 42.28 12.02 43.97 11.86 C 44.02 13.24 44.04 14.63 44.03 16.01 C 40.84 15.29 43.12 17.48 43.87 18.89 C 42.62 19.34 41.36 19.76 40.07 20.06 C 39.82 19.29 41.58 16.77 40.02 17.23 C 37.47 18.55 36.41 14.29 33.86 15.59 C 33.13 15.08 32.41 14.55 31.73 13.98 Z" />
</g>
<g id="#ebb0abfb">
<path fill="#ebb0ab" opacity="1.00" d=" M 7.15 12.14 C 8.74 10.13 12.70 10.48 13.27 13.29 C 9.68 13.82 6.09 15.35 7.25 20.20 C 7.04 18.05 6.89 15.89 6.72 13.73 C 6.83 13.33 7.04 12.54 7.15 12.14 Z" />
</g>
<g id="#e37367f8">
<path fill="#e37367" opacity="0.97" d=" M 4.20 20.24 C 4.45 17.06 1.87 10.34 7.15 12.14 C 7.04 12.54 6.83 13.33 6.72 13.73 C 5.02 15.49 4.76 17.94 4.20 20.24 Z" />
</g>
<g id="#e59791fd">
<path fill="#e59791" opacity="1.00" d=" M 13.27 13.29 C 14.59 12.98 14.49 15.55 15.26 16.31 C 12.95 18.79 10.51 21.16 7.59 22.93 C 7.45 22.03 7.34 21.11 7.25 20.20 C 6.09 15.35 9.68 13.82 13.27 13.29 Z" />
</g>
<g id="#cd8846fb">
<path fill="#cd8846" opacity="1.00" d=" M 23.28 12.79 C 23.97 14.59 24.65 16.40 25.58 18.09 C 26.06 16.51 26.51 14.90 27.20 13.39 C 28.74 13.27 30.33 13.20 31.73 13.98 C 32.41 14.55 33.13 15.08 33.86 15.59 C 36.32 17.59 33.92 18.87 31.80 19.27 C 30.27 19.06 28.60 18.87 28.70 20.96 C 26.82 20.65 22.68 17.55 22.82 20.94 L 21.93 21.02 C 22.02 18.21 22.10 15.37 23.28 12.79 Z" />
</g>
<g id="#c64c45f2">
<path fill="#c64c45" opacity="0.95" d=" M 4.20 20.24 C 4.76 17.94 5.02 15.49 6.72 13.73 C 6.89 15.89 7.04 18.05 7.25 20.20 C 7.34 21.11 7.45 22.03 7.59 22.93 C 7.32 23.97 7.07 25.01 6.85 26.06 C 5.50 24.55 4.16 22.30 4.20 20.24 Z" />
</g>
<g id="#c67a37fb">
<path fill="#c67a37" opacity="1.00" d=" M 33.86 15.59 C 36.41 14.29 37.47 18.55 40.02 17.23 C 41.58 16.77 39.82 19.29 40.07 20.06 C 41.36 19.76 42.62 19.34 43.87 18.89 C 43.12 17.48 40.84 15.29 44.03 16.01 C 44.68 17.11 45.45 18.13 46.24 19.12 C 47.10 21.19 46.32 22.63 44.26 23.39 C 45.12 24.32 45.99 25.25 46.99 26.03 C 48.81 25.66 49.38 21.58 51.34 23.87 C 50.55 25.23 49.64 26.51 48.87 27.89 C 47.37 27.30 45.87 26.71 44.30 26.36 C 41.57 28.54 40.50 31.66 41.83 34.96 C 41.61 35.29 41.16 35.95 40.94 36.28 C 40.01 36.85 39.10 37.46 38.21 38.10 C 38.39 36.59 38.81 35.03 38.18 33.56 L 38.05 32.89 C 38.85 30.17 37.40 25.44 33.12 27.92 C 33.74 29.55 34.45 31.14 35.01 32.80 C 32.37 34.59 29.38 33.99 27.12 31.95 C 25.63 30.78 24.17 29.05 24.01 27.08 C 23.73 25.01 23.23 22.99 22.82 20.94 C 22.68 17.55 26.82 20.65 28.70 20.96 C 29.63 23.87 34.52 22.87 35.10 20.49 C 33.82 20.61 32.69 20.22 31.80 19.27 C 33.92 18.87 36.32 17.59 33.86 15.59 M 35.32 23.37 C 33.69 25.68 28.88 22.89 28.89 26.79 C 31.22 26.29 33.58 26.58 35.73 25.34 C 37.85 27.51 41.11 26.62 42.93 24.65 C 41.90 21.69 38.69 23.34 37.20 24.97 C 37.28 23.26 36.66 22.72 35.32 23.37 Z" />
</g>
<g id="#dc7c76fa">
<path fill="#dc7c76" opacity="0.98" d=" M 15.26 16.31 C 16.76 16.54 16.62 20.65 17.29 22.34 C 14.30 24.00 10.88 25.37 10.14 29.14 C 9.24 27.09 8.42 25.01 7.59 22.93 C 10.51 21.16 12.95 18.79 15.26 16.31 Z" />
</g>
<g id="#d79752ff">
<path fill="#d79752" opacity="1.00" d=" M 44.03 16.01 C 45.29 15.75 46.51 15.80 47.70 16.15 C 48.06 17.31 46.73 18.18 46.24 19.12 C 45.45 18.13 44.68 17.11 44.03 16.01 Z" />
</g>
<g id="#dca25efc">
<path fill="#dca25e" opacity="1.00" d=" M 49.95 18.99 C 51.08 17.71 52.62 16.89 53.95 15.85 C 56.15 16.78 58.59 18.04 58.14 20.86 C 59.54 20.14 60.61 19.82 59.58 21.78 C 58.58 24.17 58.89 26.98 57.97 29.30 C 55.57 29.51 56.77 27.40 56.90 25.99 C 55.60 26.55 54.07 27.10 54.48 28.81 C 53.31 28.96 52.13 29.10 50.96 29.22 C 50.58 31.04 53.07 33.28 54.02 30.90 C 54.45 29.09 55.19 31.65 55.74 32.01 L 56.10 32.63 C 54.35 35.13 49.94 35.46 49.17 32.28 C 50.16 30.88 49.16 29.33 48.87 27.89 C 49.64 26.51 50.55 25.23 51.34 23.87 C 51.80 24.13 52.72 24.66 53.18 24.93 C 52.30 22.85 50.94 21.02 49.95 18.99 Z" />
</g>
<g id="#bf6725ff">
<path fill="#bf6725" opacity="1.00" d=" M 28.70 20.96 C 28.60 18.87 30.27 19.06 31.80 19.27 C 32.69 20.22 33.82 20.61 35.10 20.49 C 34.52 22.87 29.63 23.87 28.70 20.96 Z" />
</g>
<g id="#7b5a378d">
<path fill="#7b5a37" opacity="0.55" d=" M 21.93 21.02 L 22.82 20.94 C 23.23 22.99 23.73 25.01 24.01 27.08 C 21.20 26.33 22.08 23.21 21.93 21.02 Z" />
</g>
<g id="#d4635bfb">
<path fill="#d4635b" opacity="1.00" d=" M 17.29 22.34 C 18.62 21.95 18.38 25.64 18.92 26.90 C 15.75 27.78 14.10 30.70 11.40 32.30 C 10.98 31.24 10.56 30.19 10.14 29.14 C 10.88 25.37 14.30 24.00 17.29 22.34 Z" />
</g>
<g id="#c48240f0">
<path fill="#c48240" opacity="0.94" d=" M 57.97 29.30 C 58.89 26.98 58.58 24.17 59.58 21.78 C 60.34 23.00 62.46 23.98 61.60 25.68 C 59.99 28.66 63.61 32.63 60.75 35.01 C 59.44 35.32 58.08 35.87 56.76 35.31 C 57.67 33.96 58.44 32.58 56.10 32.63 L 55.74 32.01 C 56.49 31.11 57.28 30.24 57.97 29.30 Z" />
</g>
<g id="#b0352ef4">
<path fill="#b0352e" opacity="0.96" d=" M 6.85 26.06 C 7.07 25.01 7.32 23.97 7.59 22.93 C 8.42 25.01 9.24 27.09 10.14 29.14 C 10.56 30.19 10.98 31.24 11.40 32.30 C 11.06 32.52 10.39 32.96 10.06 33.19 C 8.37 31.59 7.92 28.35 6.85 26.06 Z" />
</g>
<g id="#bf6623ff">
<path fill="#bf6623" opacity="1.00" d=" M 35.32 23.37 C 36.66 22.72 37.28 23.26 37.20 24.97 C 38.69 23.34 41.90 21.69 42.93 24.65 C 41.11 26.62 37.85 27.51 35.73 25.34 C 33.58 26.58 31.22 26.29 28.89 26.79 C 28.88 22.89 33.69 25.68 35.32 23.37 Z" />
</g>
<g id="#d79854ff">
<path fill="#d79854" opacity="1.00" d=" M 44.30 26.36 C 45.87 26.71 47.37 27.30 48.87 27.89 C 49.16 29.33 50.16 30.88 49.17 32.28 C 46.80 33.50 44.38 34.64 44.87 37.79 C 43.83 36.68 42.36 36.48 40.94 36.28 C 41.16 35.95 41.61 35.29 41.83 34.96 C 40.50 31.66 41.57 28.54 44.30 26.36 Z" />
</g>
<g id="#e4b374ff">
<path fill="#e4b374" opacity="1.00" d=" M 54.48 28.81 C 54.07 27.10 55.60 26.55 56.90 25.99 C 56.77 27.40 55.57 29.51 57.97 29.30 C 57.28 30.24 56.49 31.11 55.74 32.01 C 55.19 31.65 54.45 29.09 54.02 30.90 C 53.07 33.28 50.58 31.04 50.96 29.22 C 52.13 29.10 53.31 28.96 54.48 28.81 Z" />
</g>
<g id="#cd4c42f8">
<path fill="#cd4c42" opacity="0.97" d=" M 11.40 32.30 C 14.10 30.70 15.75 27.78 18.92 26.90 C 20.48 30.16 19.83 34.12 21.97 37.26 L 22.29 38.18 C 20.31 39.34 19.08 37.54 17.72 36.36 C 15.74 36.76 11.82 37.37 13.78 40.10 C 13.95 42.22 16.54 41.45 17.93 42.16 C 18.22 44.19 17.51 46.14 16.91 48.04 C 13.44 43.84 11.78 38.27 10.06 33.19 C 10.39 32.96 11.06 32.52 11.40 32.30 Z" />
</g>
<g id="#b36425ee">
<path fill="#b36425" opacity="0.93" d=" M 33.12 27.92 C 37.40 25.44 38.85 30.17 38.05 32.89 C 37.04 31.44 36.00 31.15 35.01 32.80 C 34.45 31.14 33.74 29.55 33.12 27.92 Z" />
</g>
<g id="#34231f36">
<path fill="#34231f" opacity="0.21" d=" M 35.01 32.80 C 36.00 31.15 37.04 31.44 38.05 32.89 L 38.18 33.56 C 37.40 35.06 36.78 36.64 36.01 38.15 C 34.93 38.42 33.86 38.71 32.78 39.01 C 32.36 38.93 31.50 38.77 31.07 38.69 C 28.67 37.27 26.29 37.13 23.95 38.28 C 23.53 38.25 22.71 38.21 22.29 38.18 L 21.97 37.26 C 25.56 37.80 25.97 34.37 27.12 31.95 C 29.38 33.99 32.37 34.59 35.01 32.80 Z" />
</g>
<g id="#e2ad6bfe">
<path fill="#e2ad6b" opacity="1.00" d=" M 44.87 37.79 C 44.38 34.64 46.80 33.50 49.17 32.28 C 49.94 35.46 54.35 35.13 56.10 32.63 C 58.44 32.58 57.67 33.96 56.76 35.31 L 56.08 35.40 C 54.39 35.64 52.69 35.90 51.00 36.15 C 52.26 37.32 55.95 39.37 51.97 39.02 C 48.81 38.73 54.93 41.03 52.06 40.95 C 49.08 42.12 44.11 41.98 43.61 45.89 C 42.26 46.08 41.04 45.44 39.82 44.97 C 40.87 43.50 42.35 42.46 43.85 41.50 C 43.18 40.13 41.71 40.28 40.43 40.46 C 39.99 42.37 38.15 42.87 36.66 43.75 C 36.17 43.82 35.20 43.95 34.71 44.02 L 33.64 43.72 C 33.65 41.67 36.12 40.02 32.78 39.01 C 33.86 38.71 34.93 38.42 36.01 38.15 C 35.20 40.70 38.54 40.40 38.21 38.10 C 39.10 37.46 40.01 36.85 40.94 36.28 C 42.36 36.48 43.83 36.68 44.87 37.79 Z" />
</g>
<g id="#8462478f">
<path fill="#846247" opacity="0.56" d=" M 36.01 38.15 C 36.78 36.64 37.40 35.06 38.18 33.56 C 38.81 35.03 38.39 36.59 38.21 38.10 C 38.54 40.40 35.20 40.70 36.01 38.15 Z" />
</g>
<g id="#d69551ff">
<path fill="#d69551" opacity="1.00" d=" M 51.00 36.15 C 52.69 35.90 54.39 35.64 56.08 35.40 C 56.91 38.64 56.25 42.50 52.86 43.90 C 50.56 45.26 48.69 47.07 48.15 49.78 C 47.66 49.83 46.68 49.94 46.19 49.99 C 44.19 49.85 42.50 50.67 41.18 52.12 C 39.75 50.91 38.10 50.31 36.23 50.66 C 35.52 48.49 35.08 46.26 34.71 44.02 C 35.20 43.95 36.17 43.82 36.66 43.75 C 37.53 45.84 38.42 47.86 39.82 44.97 C 41.04 45.44 42.26 46.08 43.61 45.89 C 44.11 41.98 49.08 42.12 52.06 40.95 C 54.93 41.03 48.81 38.73 51.97 39.02 C 55.95 39.37 52.26 37.32 51.00 36.15 Z" />
</g>
<g id="#bb6b29f6">
<path fill="#bb6b29" opacity="0.96" d=" M 56.08 35.40 L 56.76 35.31 C 58.08 35.87 59.44 35.32 60.75 35.01 C 63.22 38.33 60.15 41.81 59.01 45.01 C 57.23 49.76 53.98 54.13 50.03 56.88 C 47.98 57.10 45.96 57.45 43.96 57.89 C 41.08 57.48 42.87 61.84 39.73 60.71 C 37.87 60.65 36.01 60.47 34.15 60.61 C 33.86 60.45 33.29 60.15 33.00 59.99 C 32.74 59.49 32.21 58.49 31.95 57.99 C 32.00 57.36 32.11 56.11 32.17 55.49 C 32.65 54.05 32.90 52.54 33.10 51.04 C 35.05 49.32 34.89 50.82 34.62 52.62 C 35.99 53.77 38.19 55.15 34.95 55.38 C 36.37 56.38 38.00 57.30 39.81 56.94 C 40.42 55.38 40.85 53.76 41.18 52.12 C 42.50 50.67 44.19 49.85 46.19 49.99 C 45.54 51.41 44.79 52.76 44.11 54.16 C 46.50 53.66 48.71 52.66 48.15 49.78 C 49.04 50.39 49.86 51.11 50.74 51.74 C 51.04 49.37 53.03 48.06 54.67 46.61 C 54.15 45.66 53.47 44.80 52.86 43.90 C 56.25 42.50 56.91 38.64 56.08 35.40 Z" />
</g>
<g id="#df6d55ff">
<path fill="#df6d55" opacity="1.00" d=" M 13.78 40.10 C 11.82 37.37 15.74 36.76 17.72 36.36 C 19.08 37.54 20.31 39.34 22.29 38.18 C 21.98 38.69 21.36 39.71 21.05 40.21 C 19.73 39.77 18.42 39.29 17.08 38.90 C 18.10 40.55 19.07 42.25 19.58 44.15 C 21.25 47.31 26.50 44.85 27.37 48.63 C 28.70 50.55 24.62 51.27 25.75 53.26 C 25.56 54.14 25.35 55.02 25.12 55.88 L 24.14 56.14 C 24.08 54.82 23.97 53.49 23.82 52.18 C 21.35 51.69 19.16 49.64 19.49 46.96 C 18.61 47.28 17.75 47.64 16.91 48.04 C 17.51 46.14 18.22 44.19 17.93 42.16 C 16.54 41.45 13.95 42.22 13.78 40.10 Z" />
</g>
<g id="#ee947bfd">
<path fill="#ee947b" opacity="1.00" d=" M 22.29 38.18 C 22.71 38.21 23.53 38.25 23.95 38.28 C 26.34 39.76 28.71 39.89 31.07 38.69 C 31.50 38.77 32.36 38.93 32.78 39.01 C 36.12 40.02 33.65 41.67 33.64 43.72 C 31.50 44.61 31.86 47.41 31.03 49.24 C 30.15 44.93 26.02 44.38 22.39 43.61 C 21.91 42.49 21.50 41.34 21.05 40.21 C 21.36 39.71 21.98 38.69 22.29 38.18 Z" />
</g>
<g id="#845e4491">
<path fill="#845e44" opacity="0.57" d=" M 23.95 38.28 C 26.29 37.13 28.67 37.27 31.07 38.69 C 28.71 39.89 26.34 39.76 23.95 38.28 Z" />
</g>
<g id="#e48061ff">
<path fill="#e48061" opacity="1.00" d=" M 17.08 38.90 C 18.42 39.29 19.73 39.77 21.05 40.21 C 21.50 41.34 21.91 42.49 22.39 43.61 C 26.02 44.38 30.15 44.93 31.03 49.24 C 30.95 50.89 30.80 52.54 30.39 54.14 C 28.99 52.85 27.42 51.61 25.75 53.26 C 24.62 51.27 28.70 50.55 27.37 48.63 C 26.50 44.85 21.25 47.31 19.58 44.15 C 19.07 42.25 18.10 40.55 17.08 38.90 Z" />
</g>
<g id="#e7ba7fff">
<path fill="#e7ba7f" opacity="1.00" d=" M 40.43 40.46 C 41.71 40.28 43.18 40.13 43.85 41.50 C 42.35 42.46 40.87 43.50 39.82 44.97 C 38.42 47.86 37.53 45.84 36.66 43.75 C 38.15 42.87 39.99 42.37 40.43 40.46 Z" />
</g>
<g id="#e3a561ff">
<path fill="#e3a561" opacity="1.00" d=" M 31.03 49.24 C 31.86 47.41 31.50 44.61 33.64 43.72 C 33.46 46.16 33.28 48.60 33.10 51.04 C 32.90 52.54 32.65 54.05 32.17 55.49 C 31.72 55.15 30.83 54.48 30.39 54.14 C 30.80 52.54 30.95 50.89 31.03 49.24 Z" />
</g>
<g id="#cb803cff">
<path fill="#cb803c" opacity="1.00" d=" M 33.64 43.72 L 34.71 44.02 C 35.08 46.26 35.52 48.49 36.23 50.66 C 38.10 50.31 39.75 50.91 41.18 52.12 C 40.85 53.76 40.42 55.38 39.81 56.94 C 38.00 57.30 36.37 56.38 34.95 55.38 C 38.19 55.15 35.99 53.77 34.62 52.62 C 34.89 50.82 35.05 49.32 33.10 51.04 C 33.28 48.60 33.46 46.16 33.64 43.72 Z" />
</g>
<g id="#cc833eff">
<path fill="#cc833e" opacity="1.00" d=" M 48.15 49.78 C 48.69 47.07 50.56 45.26 52.86 43.90 C 53.47 44.80 54.15 45.66 54.67 46.61 C 53.03 48.06 51.04 49.37 50.74 51.74 C 49.86 51.11 49.04 50.39 48.15 49.78 Z" />
</g>
<g id="#cb4e41f8">
<path fill="#cb4e41" opacity="0.97" d=" M 16.91 48.04 C 17.75 47.64 18.61 47.28 19.49 46.96 C 19.16 49.64 21.35 51.69 23.82 52.18 C 23.97 53.49 24.08 54.82 24.14 56.14 C 21.58 53.84 17.55 51.68 16.91 48.04 Z" />
</g>
<g id="#ca7e3bff">
<path fill="#ca7e3b" opacity="1.00" d=" M 46.19 49.99 C 46.68 49.94 47.66 49.83 48.15 49.78 C 48.71 52.66 46.50 53.66 44.11 54.16 C 44.79 52.76 45.54 51.41 46.19 49.99 Z" />
</g>
<g id="#cc5b46f8">
<path fill="#cc5b46" opacity="0.97" d=" M 25.75 53.26 C 27.42 51.61 28.99 52.85 30.39 54.14 C 30.83 54.48 31.72 55.15 32.17 55.49 C 32.11 56.11 32.00 57.36 31.95 57.99 L 31.20 58.05 C 30.22 57.77 29.22 57.52 28.23 57.30 C 27.04 57.14 26.00 56.67 25.12 55.88 C 25.35 55.02 25.56 54.14 25.75 53.26 Z" />
</g>
<g id="#04020170">
<path fill="#040201" opacity="0.44" d=" M 28.23 57.30 C 29.22 57.52 30.22 57.77 31.20 58.05 C 29.83 58.50 27.08 59.40 25.70 59.85 C 27.53 59.89 31.18 59.96 33.00 59.99 C 33.29 60.15 33.86 60.45 34.15 60.61 C 30.45 60.84 26.76 61.07 23.05 61.02 L 22.24 60.80 C 21.07 60.30 19.89 59.84 18.75 59.29 C 20.13 59.04 22.89 58.53 24.27 58.28 C 25.61 58.02 26.93 57.70 28.23 57.30 Z" />
</g>
<g id="#a37845b9">
<path fill="#a37845" opacity="0.73" d=" M 43.96 57.89 C 45.96 57.45 47.98 57.10 50.03 56.88 C 48.92 59.01 44.96 61.04 43.96 57.89 Z" />
</g>
<g id="#00000021">
<path fill="#000000" opacity="0.13" d=" M 7.94 59.18 C 11.32 58.44 14.83 57.67 18.29 58.30 C 16.85 58.67 15.40 58.96 13.95 59.27 C 14.68 59.83 15.41 60.37 16.16 60.90 C 13.28 60.78 9.25 62.47 7.94 59.18 Z" />
</g>
<g id="#00000041">
<path fill="#000000" opacity="0.25" d=" M 18.29 58.30 C 20.25 57.77 22.30 58.03 24.27 58.28 C 22.89 58.53 20.13 59.04 18.75 59.29 C 19.89 59.84 21.07 60.30 22.24 60.80 C 20.22 60.99 18.18 61.15 16.16 60.90 C 15.41 60.37 14.68 59.83 13.95 59.27 C 15.40 58.96 16.85 58.67 18.29 58.30 Z" />
</g>
<g id="#0a06049d">
<path fill="#0a0604" opacity="0.62" d=" M 31.20 58.05 L 31.95 57.99 C 32.21 58.49 32.74 59.49 33.00 59.99 C 31.18 59.96 27.53 59.89 25.70 59.85 C 27.08 59.40 29.83 58.50 31.20 58.05 Z" />
</g>
<g id="#0e09053a">
<path fill="#0e0905" opacity="0.23" d=" M 34.15 60.61 C 36.01 60.47 37.87 60.65 39.73 60.71 L 40.04 61.80 C 34.37 62.04 28.68 62.15 23.00 61.96 L 23.05 61.02 C 26.76 61.07 30.45 60.84 34.15 60.61 Z" />
</g>
</svg>
