<?xml version="1.0" encoding="UTF-8" ?>
<!DOCTYPE svg PUBLIC "-//W3C//DTD SVG 1.1//EN" "http://www.w3.org/Graphics/SVG/1.1/DTD/svg11.dtd">
<svg width="64pt" height="64pt" viewBox="0 0 64 64" version="1.1" xmlns="http://www.w3.org/2000/svg">
<g id="#f3e7ecff">
<path fill="#f3e7ec" opacity="1.00" d=" M 23.08 9.42 C 23.33 7.19 23.17 3.52 26.22 3.29 C 29.20 2.56 30.56 5.80 32.14 7.63 C 34.42 6.07 36.21 2.09 39.51 3.55 C 42.33 4.31 41.90 7.40 41.95 9.67 C 44.44 9.24 47.29 6.55 49.60 8.55 C 51.80 10.47 51.14 13.68 51.19 16.24 C 52.83 16.02 54.58 14.96 56.22 15.73 C 57.98 17.30 57.88 19.80 58.25 21.93 C 57.97 22.68 57.42 24.19 57.14 24.94 C 62.12 25.89 61.52 33.40 58.15 35.90 C 59.92 39.31 59.82 44.43 56.13 46.54 C 55.38 46.27 53.90 45.72 53.15 45.45 C 53.37 48.26 53.33 51.26 51.53 53.60 C 50.39 54.06 49.21 54.42 47.98 54.60 C 46.78 53.56 45.49 52.61 43.93 52.23 C 43.78 54.43 43.49 56.66 42.22 58.53 C 40.73 58.67 39.25 58.73 37.76 58.66 C 36.84 57.77 35.96 56.82 34.90 56.10 C 32.32 55.73 31.56 58.89 30.08 60.36 C 29.27 60.42 28.45 60.49 27.64 60.57 C 25.93 58.91 25.73 56.40 24.25 54.62 C 22.40 54.26 21.48 56.38 19.80 56.66 C 18.69 56.74 17.58 56.75 16.46 56.70 C 16.24 54.29 16.16 51.85 15.55 49.50 C 13.82 50.28 11.95 50.61 10.05 50.69 C 9.67 50.29 8.91 49.51 8.52 49.11 C 8.26 46.63 8.37 44.10 9.26 41.75 C 7.68 41.69 6.10 41.62 4.52 41.50 C 4.08 38.52 3.93 35.21 6.60 33.19 C 5.50 32.36 4.48 31.44 3.55 30.42 C 3.83 28.49 3.10 26.13 4.74 24.65 C 5.78 24.13 6.86 23.69 7.98 23.32 C 6.27 20.98 6.44 18.10 7.53 15.54 C 9.53 14.97 11.59 14.77 13.66 14.89 C 13.71 12.87 13.71 10.84 13.72 8.82 C 16.66 6.42 20.13 7.99 23.08 9.42 Z" />
</g>
</svg>
