<?xml version="1.0" encoding="UTF-8" ?>
<!DOCTYPE svg PUBLIC "-//W3C//DTD SVG 1.1//EN" "http://www.w3.org/Graphics/SVG/1.1/DTD/svg11.dtd">
<svg width="64pt" height="64pt" viewBox="0 0 64 64" version="1.1" xmlns="http://www.w3.org/2000/svg">
<g id="#c38225ff">
<path fill="#c38225" opacity="1.00" d=" M 12.32 9.76 C 15.73 5.37 21.74 4.68 26.89 4.15 C 34.50 3.95 42.80 3.48 49.59 7.48 C 52.28 8.90 53.98 12.78 51.44 15.18 C 57.36 19.66 57.28 28.03 56.34 34.68 L 55.78 34.96 C 55.06 32.34 56.73 29.29 55.09 26.97 C 54.15 23.71 54.15 19.89 51.62 17.32 C 49.88 16.71 48.15 17.80 46.57 18.40 C 46.04 18.54 44.97 18.84 44.44 18.98 C 44.46 18.49 44.49 17.51 44.50 17.02 C 48.21 17.48 51.77 14.67 50.54 10.71 C 48.94 9.15 46.88 8.18 44.63 8.33 C 42.74 6.86 40.46 6.06 38.13 5.63 C 32.06 4.42 25.20 4.82 19.74 7.95 L 19.18 7.13 C 17.34 7.33 16.02 8.75 14.82 10.02 C 17.63 14.62 23.54 15.67 28.35 17.08 C 29.49 18.94 31.56 20.02 32.50 22.02 L 31.30 21.81 C 27.31 20.94 23.15 20.99 19.26 19.69 C 20.04 17.89 17.16 17.73 16.24 16.75 C 13.31 15.67 13.01 12.36 12.32 9.76 Z" />
</g>
<g id="#634719ff">
<path fill="#634719" opacity="1.00" d=" M 19.74 7.95 C 25.20 4.82 32.06 4.42 38.13 5.63 C 36.69 5.65 35.25 5.69 33.84 6.01 C 34.01 8.71 31.61 9.67 29.40 10.30 L 28.36 10.12 C 25.47 9.21 21.22 11.86 19.74 7.95 Z" />
</g>
<g id="#441603ff">
<path fill="#441603" opacity="1.00" d=" M 33.84 6.01 C 35.25 5.69 36.69 5.65 38.13 5.63 C 40.46 6.06 42.74 6.86 44.63 8.33 C 42.99 8.92 41.25 9.19 39.63 9.81 C 36.50 11.61 32.76 10.68 29.40 10.30 C 31.61 9.67 34.01 8.71 33.84 6.01 Z" />
</g>
<g id="#f0a627ff">
<path fill="#f0a627" opacity="1.00" d=" M 14.82 10.02 C 16.02 8.75 17.34 7.33 19.18 7.13 L 19.74 7.95 C 21.22 11.86 25.47 9.21 28.36 10.12 L 29.01 10.52 C 29.31 11.02 29.90 12.03 30.19 12.54 C 29.57 14.05 28.95 15.56 28.35 17.08 C 23.54 15.67 17.63 14.62 14.82 10.02 Z" />
</g>
<g id="#ffc332ff">
<path fill="#ffc332" opacity="1.00" d=" M 44.63 8.33 C 46.88 8.18 48.94 9.15 50.54 10.71 C 51.77 14.67 48.21 17.48 44.50 17.02 C 44.58 15.40 44.98 13.81 44.90 12.19 C 44.29 11.38 43.57 10.69 42.73 10.12 C 38.21 11.15 33.54 12.29 29.01 10.52 L 28.36 10.12 L 29.40 10.30 C 32.76 10.68 36.50 11.61 39.63 9.81 C 41.25 9.19 42.99 8.92 44.63 8.33 Z" />
</g>
<g id="#b75a03ff">
<path fill="#b75a03" opacity="1.00" d=" M 12.75 15.14 C 11.37 13.65 11.19 11.45 12.32 9.76 C 13.01 12.36 13.31 15.67 16.24 16.75 C 17.16 17.73 20.04 17.89 19.26 19.69 C 17.12 18.95 15.12 17.88 12.99 17.13 C 10.63 20.03 15.82 21.14 16.22 23.74 C 16.93 26.61 17.95 29.41 20.74 30.86 C 20.40 30.99 19.73 31.27 19.39 31.40 C 17.79 31.08 16.19 30.75 14.60 30.41 C 12.08 29.54 9.74 28.26 7.41 26.97 C 7.68 22.56 9.16 17.99 12.75 15.14 Z" />
</g>
<g id="#ffeca4ff">
<path fill="#ffeca4" opacity="1.00" d=" M 29.01 10.52 C 33.54 12.29 38.21 11.15 42.73 10.12 C 43.57 10.69 44.29 11.38 44.90 12.19 C 44.98 13.81 44.58 15.40 44.50 17.02 C 44.49 17.51 44.46 18.49 44.44 18.98 C 44.95 20.61 45.71 22.13 46.33 23.71 C 46.70 25.85 46.78 28.01 46.87 30.17 C 46.39 28.33 45.95 26.48 45.47 24.64 C 44.87 23.63 44.09 22.73 43.47 21.74 C 43.60 18.75 44.85 15.84 43.96 12.84 C 43.08 13.68 42.24 14.58 41.30 15.36 C 38.69 15.72 36.02 15.74 33.41 15.44 C 32.29 14.52 31.28 13.49 30.19 12.54 C 29.90 12.03 29.31 11.02 29.01 10.52 Z" />
</g>
<g id="#f4c52cff">
<path fill="#f4c52c" opacity="1.00" d=" M 30.19 12.54 C 31.28 13.49 32.29 14.52 33.41 15.44 C 36.02 15.74 38.69 15.72 41.30 15.36 C 42.24 14.58 43.08 13.68 43.96 12.84 C 44.85 15.84 43.60 18.75 43.47 21.74 C 44.09 22.73 44.87 23.63 45.47 24.64 C 46.02 27.69 45.23 30.58 43.65 33.18 C 43.85 34.11 44.18 35.01 44.36 35.94 C 43.89 37.06 43.28 38.11 42.83 39.24 C 43.40 39.41 44.52 39.74 45.09 39.91 C 44.00 42.38 40.60 40.22 40.95 38.09 C 40.81 36.00 41.32 33.97 41.74 31.95 C 42.32 29.40 42.41 26.71 41.67 24.20 C 41.21 23.59 40.28 22.38 39.82 21.78 C 37.55 20.22 33.93 20.84 33.62 23.97 C 33.25 23.32 32.87 22.67 32.50 22.02 C 31.56 20.02 29.49 18.94 28.35 17.08 C 28.95 15.56 29.57 14.05 30.19 12.54 Z" />
</g>
<g id="#d88d20ff">
<path fill="#d88d20" opacity="1.00" d=" M 12.99 17.13 C 15.12 17.88 17.12 18.95 19.26 19.69 C 23.15 20.99 27.31 20.94 31.30 21.81 L 29.66 21.73 C 28.09 21.64 26.51 21.74 24.95 22.00 C 26.65 25.64 30.86 26.67 34.31 27.91 C 36.63 28.63 38.23 30.58 40.05 32.07 C 36.62 32.65 33.15 32.85 29.67 32.88 C 27.67 32.73 25.66 32.56 23.66 32.36 C 21.98 32.11 20.29 31.91 18.59 31.74 L 19.39 31.40 C 19.73 31.27 20.40 30.99 20.74 30.86 C 17.95 29.41 16.93 26.61 16.22 23.74 C 15.82 21.14 10.63 20.03 12.99 17.13 Z" />
</g>
<g id="#fabf34ff">
<path fill="#fabf34" opacity="1.00" d=" M 46.57 18.40 C 48.15 17.80 49.88 16.71 51.62 17.32 C 54.15 19.89 54.15 23.71 55.09 26.97 C 54.50 27.48 53.90 27.98 53.30 28.48 C 52.06 28.96 50.82 29.46 49.58 29.95 C 48.73 30.23 47.87 30.47 47.00 30.70 L 46.87 30.17 C 46.78 28.01 46.70 25.85 46.33 23.71 L 47.21 22.91 C 48.85 24.42 49.44 27.03 51.63 27.90 C 51.66 26.08 51.70 24.24 51.36 22.45 C 50.52 20.39 48.46 19.30 46.57 18.40 Z" />
</g>
<g id="#ffcf66ff">
<path fill="#ffcf66" opacity="1.00" d=" M 44.44 18.98 C 44.97 18.84 46.04 18.54 46.57 18.40 C 48.46 19.30 50.52 20.39 51.36 22.45 C 51.70 24.24 51.66 26.08 51.63 27.90 C 49.44 27.03 48.85 24.42 47.21 22.91 L 46.33 23.71 C 45.71 22.13 44.95 20.61 44.44 18.98 Z" />
</g>
<g id="#f3c45eff">
<path fill="#f3c45e" opacity="1.00" d=" M 33.62 23.97 C 33.93 20.84 37.55 20.22 39.82 21.78 C 38.67 21.67 37.53 21.73 36.40 21.95 C 36.17 23.26 35.95 24.57 35.73 25.89 C 33.91 26.05 32.13 25.38 30.59 24.47 C 30.36 23.78 29.90 22.42 29.66 21.73 L 31.30 21.81 L 32.50 22.02 C 32.87 22.67 33.25 23.32 33.62 23.97 Z" />
</g>
<g id="#f6b730ff">
<path fill="#f6b730" opacity="1.00" d=" M 24.95 22.00 C 26.51 21.74 28.09 21.64 29.66 21.73 C 29.90 22.42 30.36 23.78 30.59 24.47 C 32.13 25.38 33.91 26.05 35.73 25.89 C 37.74 25.47 40.72 26.66 41.67 24.20 C 42.41 26.71 42.32 29.40 41.74 31.95 C 41.32 31.98 40.47 32.04 40.05 32.07 C 38.23 30.58 36.63 28.63 34.31 27.91 C 30.86 26.67 26.65 25.64 24.95 22.00 Z" />
</g>
<g id="#fbd59fff">
<path fill="#fbd59f" opacity="1.00" d=" M 36.40 21.95 C 37.53 21.73 38.67 21.67 39.82 21.78 C 40.28 22.38 41.21 23.59 41.67 24.20 C 40.72 26.66 37.74 25.47 35.73 25.89 C 35.95 24.57 36.17 23.26 36.40 21.95 Z" />
</g>
<g id="#ffdd66ff">
<path fill="#ffdd66" opacity="1.00" d=" M 45.47 24.64 C 45.95 26.48 46.39 28.33 46.87 30.17 L 47.00 30.70 C 47.87 30.47 48.73 30.23 49.58 29.95 C 50.05 34.84 48.42 39.53 48.30 44.36 C 48.54 44.57 49.02 44.99 49.27 45.20 C 48.47 46.85 47.68 48.52 46.60 50.02 C 47.17 48.69 47.79 47.39 48.48 46.11 C 44.69 46.57 41.06 47.92 37.24 48.18 C 38.52 43.84 39.07 38.91 37.34 34.63 C 34.82 33.91 32.21 33.53 29.67 32.88 C 33.15 32.85 36.62 32.65 40.05 32.07 C 40.47 32.04 41.32 31.98 41.74 31.95 C 41.32 33.97 40.81 36.00 40.95 38.09 C 40.60 40.22 44.00 42.38 45.09 39.91 C 44.52 39.74 43.40 39.41 42.83 39.24 C 43.28 38.11 43.89 37.06 44.36 35.94 C 44.18 35.01 43.85 34.11 43.65 33.18 C 45.23 30.58 46.02 27.69 45.47 24.64 Z" />
</g>
<g id="#ffa811ff">
<path fill="#ffa811" opacity="1.00" d=" M 7.41 26.97 C 9.74 28.26 12.08 29.54 14.60 30.41 C 15.17 36.02 17.30 41.33 17.93 46.95 C 15.16 46.15 12.59 44.82 10.32 43.05 C 8.28 38.08 7.50 32.40 7.41 26.97 Z" />
</g>
<g id="#fbd86aff">
<path fill="#fbd86a" opacity="1.00" d=" M 55.09 26.97 C 56.73 29.29 55.06 32.34 55.78 34.96 C 55.78 35.34 55.77 36.11 55.77 36.49 C 54.14 39.41 53.84 43.55 50.11 44.72 C 51.58 39.41 54.04 34.12 53.30 28.48 C 53.90 27.98 54.50 27.48 55.09 26.97 Z" />
</g>
<g id="#ffedaaff">
<path fill="#ffedaa" opacity="1.00" d=" M 49.58 29.95 C 50.82 29.46 52.06 28.96 53.30 28.48 C 54.04 34.12 51.58 39.41 50.11 44.72 L 49.27 45.20 C 49.02 44.99 48.54 44.57 48.30 44.36 C 48.42 39.53 50.05 34.84 49.58 29.95 Z" />
</g>
<g id="#ffb72bff">
<path fill="#ffb72b" opacity="1.00" d=" M 17.93 46.95 C 17.30 41.33 15.17 36.02 14.60 30.41 C 16.19 30.75 17.79 31.08 19.39 31.40 L 18.59 31.74 C 18.31 31.86 17.75 32.11 17.47 32.23 C 20.89 35.61 23.84 39.85 24.08 44.81 C 23.25 45.51 22.37 46.15 21.53 46.83 C 21.93 47.09 22.75 47.61 23.16 47.87 L 22.11 47.85 C 20.70 47.65 19.29 47.37 17.93 46.95 Z" />
</g>
<g id="#ffc33eff">
<path fill="#ffc33e" opacity="1.00" d=" M 17.47 32.23 C 17.75 32.11 18.31 31.86 18.59 31.74 C 20.29 31.91 21.98 32.11 23.66 32.36 C 24.19 34.28 26.24 35.12 27.27 36.72 C 29.00 39.55 30.39 42.65 30.99 45.93 C 30.06 46.84 29.02 47.61 27.97 48.37 C 27.20 48.31 25.64 48.20 24.87 48.14 C 24.44 48.07 23.58 47.94 23.16 47.87 C 22.75 47.61 21.93 47.09 21.53 46.83 C 22.37 46.15 23.25 45.51 24.08 44.81 C 23.84 39.85 20.89 35.61 17.47 32.23 Z" />
</g>
<g id="#ffcf4eff">
<path fill="#ffcf4e" opacity="1.00" d=" M 27.27 36.72 C 26.24 35.12 24.19 34.28 23.66 32.36 C 25.66 32.56 27.67 32.73 29.67 32.88 C 32.21 33.53 34.82 33.91 37.34 34.63 C 39.07 38.91 38.52 43.84 37.24 48.18 C 34.16 48.54 31.06 48.44 27.97 48.37 C 29.02 47.61 30.06 46.84 30.99 45.93 C 30.39 42.65 29.00 39.55 27.27 36.72 Z" />
</g>
<g id="#ca8826ff">
<path fill="#ca8826" opacity="1.00" d=" M 50.11 44.72 C 53.84 43.55 54.14 39.41 55.77 36.49 C 54.71 42.69 52.40 48.71 49.49 54.29 C 43.96 56.86 36.00 56.64 32.17 51.32 C 32.72 50.57 33.28 49.84 33.86 49.11 C 30.83 49.09 27.81 48.83 24.87 48.14 C 25.64 48.20 27.20 48.31 27.97 48.37 C 31.06 48.44 34.16 48.54 37.24 48.18 C 41.06 47.92 44.69 46.57 48.48 46.11 C 47.79 47.39 47.17 48.69 46.60 50.02 C 47.68 48.52 48.47 46.85 49.27 45.20 L 50.11 44.72 Z" />
</g>
<g id="#a94000ff">
<path fill="#a94000" opacity="1.00" d=" M 10.32 43.05 C 12.59 44.82 15.16 46.15 17.93 46.95 C 19.29 47.37 20.70 47.65 22.11 47.85 C 21.67 48.27 20.77 49.10 20.32 49.52 C 22.40 54.15 27.44 56.24 30.70 59.88 C 26.42 60.14 22.02 59.69 18.18 58.04 C 13.50 55.30 12.70 49.31 10.47 44.77 L 10.32 43.05 Z" />
</g>
<g id="#bc6c15ff">
<path fill="#bc6c15" opacity="1.00" d=" M 22.11 47.85 L 23.16 47.87 C 23.58 47.94 24.44 48.07 24.87 48.14 C 27.81 48.83 30.83 49.09 33.86 49.11 C 33.28 49.84 32.72 50.57 32.17 51.32 C 36.00 56.64 43.96 56.86 49.49 54.29 C 48.94 55.82 47.71 57.82 45.82 57.59 L 45.33 58.42 C 40.69 59.95 35.64 60.05 30.70 59.88 C 27.44 56.24 22.40 54.15 20.32 49.52 C 20.77 49.10 21.67 48.27 22.11 47.85 Z" />
</g>
</svg>
