<?xml version="1.0" encoding="UTF-8" ?>
<!DOCTYPE svg PUBLIC "-//W3C//DTD SVG 1.1//EN" "http://www.w3.org/Graphics/SVG/1.1/DTD/svg11.dtd">
<svg width="64pt" height="64pt" viewBox="0 0 64 64" version="1.1" xmlns="http://www.w3.org/2000/svg">
<g id="#e0d5c1f9">
<path fill="#e0d5c1" opacity="0.98" d=" M 28.21 0.94 C 31.96 1.96 35.33 4.17 37.67 7.27 C 37.76 9.34 38.52 10.82 39.98 12.04 L 40.20 12.84 C 36.13 10.58 33.17 15.57 29.12 15.71 C 24.82 16.37 22.19 15.17 22.87 11.13 C 26.01 8.77 27.91 4.93 28.21 0.94 Z" />
</g>
<g id="#d1ba92fa">
<path fill="#d1ba92" opacity="0.98" d=" M 22.15 17.16 C 22.33 15.65 22.69 12.63 22.87 11.13 C 22.19 15.17 24.82 16.37 29.12 15.71 C 26.82 16.30 24.51 16.86 22.15 17.16 Z" />
</g>
<g id="#f1e6d4ff">
<path fill="#f1e6d4" opacity="1.00" d=" M 29.12 15.71 C 33.17 15.57 36.13 10.58 40.20 12.84 C 42.98 17.88 34.89 18.66 31.97 19.89 C 28.23 20.01 22.23 24.36 19.12 20.79 C 18.44 18.72 20.93 18.18 22.15 17.16 C 24.51 16.86 26.82 16.30 29.12 15.71 Z" />
</g>
<g id="#d3be99f8">
<path fill="#d3be99" opacity="0.97" d=" M 39.98 12.04 C 43.06 11.29 42.65 15.35 42.23 17.25 C 34.60 21.82 25.86 24.05 17.08 25.06 C 17.54 21.67 17.15 15.63 22.15 17.16 C 20.93 18.18 18.44 18.72 19.12 20.79 C 22.23 24.36 28.23 20.01 31.97 19.89 C 34.89 18.66 42.98 17.88 40.20 12.84 L 39.98 12.04 Z" />
</g>
<g id="#eee4d5ff">
<path fill="#eee4d5" opacity="1.00" d=" M 42.23 17.25 L 42.98 16.87 C 43.30 17.37 43.93 18.36 44.25 18.86 C 44.24 21.15 44.05 23.81 41.34 24.37 C 34.87 26.85 27.80 27.10 20.97 27.89 C 13.32 31.53 16.11 27.33 17.08 25.06 C 25.86 24.05 34.60 21.82 42.23 17.25 Z" />
</g>
<g id="#cfb282fc">
<path fill="#cfb282" opacity="1.00" d=" M 42.98 16.87 C 46.28 16.87 47.64 21.26 46.30 23.88 C 47.50 25.05 49.77 25.34 50.19 27.11 C 50.73 30.39 47.35 30.86 44.88 31.09 C 42.56 31.25 40.39 32.14 38.13 32.62 C 37.58 32.45 36.47 32.10 35.92 31.92 C 37.04 31.03 38.16 30.14 39.16 29.10 C 31.84 30.94 24.21 31.70 16.71 30.43 C 25.68 29.49 35.43 29.87 43.68 25.69 C 46.33 24.66 45.65 20.83 44.25 18.86 C 43.93 18.36 43.30 17.37 42.98 16.87 Z" />
</g>
<g id="#dfcaa7ff">
<path fill="#dfcaa7" opacity="1.00" d=" M 44.25 18.86 C 45.65 20.83 46.33 24.66 43.68 25.69 C 35.43 29.87 25.68 29.49 16.71 30.43 C 16.23 30.38 15.27 30.29 14.79 30.24 C 14.42 29.23 14.09 28.20 13.79 27.17 C 14.09 25.62 15.57 24.72 17.08 25.06 C 16.11 27.33 13.32 31.53 20.97 27.89 C 27.80 27.10 34.87 26.85 41.34 24.37 C 44.05 23.81 44.24 21.15 44.25 18.86 Z" />
</g>
<g id="#664925cd">
<path fill="#664925" opacity="0.80" d=" M 14.97 34.10 C 12.91 33.04 11.99 27.36 13.79 27.17 C 14.09 28.20 14.42 29.23 14.79 30.24 C 14.87 31.53 14.93 32.81 14.97 34.10 Z" />
</g>
<g id="#926b2bf1">
<path fill="#926b2b" opacity="0.95" d=" M 50.19 27.11 L 51.09 26.97 C 50.85 32.52 48.36 37.71 45.31 42.26 C 44.63 43.23 45.82 46.33 44.13 45.86 C 44.58 42.22 41.05 41.05 37.82 41.25 C 41.90 40.86 47.75 39.36 47.47 34.33 C 48.27 32.58 45.82 32.08 44.88 31.09 C 47.35 30.86 50.73 30.39 50.19 27.11 Z" />
</g>
<g id="#b99247fc">
<path fill="#b99247" opacity="1.00" d=" M 16.71 30.43 C 24.21 31.70 31.84 30.94 39.16 29.10 C 38.16 30.14 37.04 31.03 35.92 31.92 C 32.53 31.97 29.16 32.05 25.78 32.17 C 23.87 32.28 21.30 31.24 20.10 33.27 C 18.27 37.10 20.31 39.42 23.15 40.88 C 21.43 40.71 19.72 40.41 18.02 40.06 C 15.78 39.33 14.97 36.28 14.97 34.10 C 14.93 32.81 14.87 31.53 14.79 30.24 C 15.27 30.29 16.23 30.38 16.71 30.43 Z" />
</g>
<g id="#e4c561ff">
<path fill="#e4c561" opacity="1.00" d=" M 38.13 32.62 C 40.39 32.14 42.56 31.25 44.88 31.09 C 45.82 32.08 48.27 32.58 47.47 34.33 C 47.75 39.36 41.90 40.86 37.82 41.25 C 34.18 41.32 30.50 41.13 26.96 42.02 C 25.79 41.35 24.46 41.12 23.15 40.88 C 20.31 39.42 18.27 37.10 20.10 33.27 C 21.30 31.24 23.87 32.28 25.78 32.17 C 29.83 32.83 34.05 33.42 38.13 32.62 Z" />
</g>
<g id="#f1e0bdff">
<path fill="#f1e0bd" opacity="1.00" d=" M 25.78 32.17 C 29.16 32.05 32.53 31.97 35.92 31.92 C 36.47 32.10 37.58 32.45 38.13 32.62 C 34.05 33.42 29.83 32.83 25.78 32.17 Z" />
</g>
<g id="#8d692af2">
<path fill="#8d692a" opacity="0.95" d=" M 18.02 40.06 C 19.72 40.41 21.43 40.71 23.15 40.88 C 24.46 41.12 25.79 41.35 26.96 42.02 C 24.18 42.10 20.73 42.19 19.86 45.47 C 18.58 46.40 18.78 41.50 18.02 40.06 Z" />
</g>
<g id="#d9b34dfe">
<path fill="#d9b34d" opacity="1.00" d=" M 26.96 42.02 C 30.50 41.13 34.18 41.32 37.82 41.25 C 41.05 41.05 44.58 42.22 44.13 45.86 L 43.76 46.68 C 42.26 48.86 41.82 51.45 41.87 54.05 C 41.82 54.74 41.71 56.12 41.66 56.80 C 41.52 57.34 41.22 58.40 41.08 58.94 C 39.44 59.40 37.80 59.89 36.15 60.31 L 34.96 60.02 C 36.28 59.06 37.67 58.20 39.02 57.27 C 33.91 57.68 37.73 51.88 36.00 49.00 C 34.74 46.75 34.90 41.91 31.21 43.13 C 28.35 46.71 25.27 52.83 28.85 56.87 C 28.12 56.96 26.66 57.15 25.93 57.24 C 26.89 58.27 27.96 59.18 28.99 60.14 L 27.86 60.24 C 25.48 60.15 23.38 58.85 22.03 56.93 C 22.04 56.19 22.04 54.69 22.04 53.94 C 22.35 50.92 21.44 48.01 19.86 45.47 C 20.73 42.19 24.18 42.10 26.96 42.02 Z" />
</g>
<g id="#f3d365ff">
<path fill="#f3d365" opacity="1.00" d=" M 31.21 43.13 C 34.90 41.91 34.74 46.75 36.00 49.00 C 37.73 51.88 33.91 57.68 39.02 57.27 C 37.67 58.20 36.28 59.06 34.96 60.02 C 32.97 60.02 30.98 60.06 28.99 60.14 C 27.96 59.18 26.89 58.27 25.93 57.24 C 26.66 57.15 28.12 56.96 28.85 56.87 C 25.27 52.83 28.35 46.71 31.21 43.13 Z" />
</g>
<g id="#9b6a21e3">
<path fill="#9b6a21" opacity="0.89" d=" M 19.86 45.47 C 21.44 48.01 22.35 50.92 22.04 53.94 L 21.22 54.09 C 20.81 51.21 19.96 48.39 19.86 45.47 Z" />
</g>
<g id="#9b6920e0">
<path fill="#9b6920" opacity="0.88" d=" M 41.87 54.05 C 41.82 51.45 42.26 48.86 43.76 46.68 C 44.01 49.16 43.10 51.54 42.74 53.96 L 41.87 54.05 Z" />
</g>
<g id="#05030140">
<path fill="#050301" opacity="0.25" d=" M 21.22 54.09 L 22.04 53.94 C 22.04 54.69 22.04 56.19 22.03 56.93 C 21.88 58.58 21.94 60.78 24.09 60.92 C 29.53 62.25 35.24 62.13 40.65 60.73 C 40.76 60.28 40.97 59.38 41.08 58.94 C 41.22 58.40 41.52 57.34 41.66 56.80 C 42.82 58.04 45.24 58.65 44.92 60.72 C 43.85 61.06 42.79 61.39 41.72 61.71 C 34.70 63.43 27.30 63.49 20.30 61.61 C 18.93 61.06 16.18 61.45 17.14 59.20 C 19.13 57.93 21.56 56.90 21.22 54.09 Z" />
</g>
<g id="#03020024">
<path fill="#030200" opacity="0.14" d=" M 41.87 54.05 L 42.74 53.96 C 41.70 58.69 49.65 56.38 48.90 60.80 C 46.70 62.05 44.17 62.24 41.72 61.71 C 42.79 61.39 43.85 61.06 44.92 60.72 C 45.24 58.65 42.82 58.04 41.66 56.80 C 41.71 56.12 41.82 54.74 41.87 54.05 Z" />
</g>
<g id="#19100391">
<path fill="#191003" opacity="0.57" d=" M 22.03 56.93 C 23.38 58.85 25.48 60.15 27.86 60.24 C 30.60 60.81 33.49 61.45 36.15 60.31 C 37.80 59.89 39.44 59.40 41.08 58.94 C 40.97 59.38 40.76 60.28 40.65 60.73 C 35.24 62.13 29.53 62.25 24.09 60.92 C 21.94 60.78 21.88 58.58 22.03 56.93 Z" />
</g>
<g id="#a57b1eec">
<path fill="#a57b1e" opacity="0.93" d=" M 27.86 60.24 L 28.99 60.14 C 30.98 60.06 32.97 60.02 34.96 60.02 L 36.15 60.31 C 33.49 61.45 30.60 60.81 27.86 60.24 Z" />
</g>
</svg>
