<?xml version="1.0" encoding="UTF-8" ?>
<!DOCTYPE svg PUBLIC "-//W3C//DTD SVG 1.1//EN" "http://www.w3.org/Graphics/SVG/1.1/DTD/svg11.dtd">
<svg width="64pt" height="64pt" viewBox="0 0 64 64" version="1.1" xmlns="http://www.w3.org/2000/svg">
<g id="#45424587">
<path fill="#454245" opacity="0.53" d=" M 10.08 10.05 C 10.50 10.20 11.34 10.49 11.76 10.64 C 10.18 12.84 12.45 18.77 9.96 19.95 C 9.93 16.65 9.87 13.35 10.08 10.05 Z" />
</g>
<g id="#b3a9b4d2">
<path fill="#b3a9b4" opacity="0.82" d=" M 9.96 19.95 C 12.45 18.77 10.18 12.84 11.76 10.64 C 14.86 14.10 16.19 19.24 19.25 22.99 C 19.37 24.25 19.30 25.52 19.22 26.78 C 18.74 27.75 18.27 28.73 17.81 29.71 C 13.01 30.57 8.87 33.74 3.97 34.04 C 3.28 30.53 7.37 29.15 8.01 26.00 C 7.32 23.84 5.28 22.37 4.91 20.09 C 6.59 20.00 8.27 20.03 9.96 19.95 Z" />
</g>
<g id="#edaef6fd">
<path fill="#edaef6" opacity="1.00" d=" M 23.71 20.32 C 27.35 14.47 37.03 16.21 41.77 20.24 C 44.81 22.85 45.93 27.11 46.10 30.98 C 45.23 30.64 44.35 30.31 43.46 30.01 C 43.07 29.87 42.30 29.59 41.92 29.46 C 41.60 27.47 42.58 24.72 40.05 23.93 C 38.15 22.15 32.55 22.72 34.90 26.11 C 32.56 25.92 31.20 22.94 29.65 26.07 C 27.95 24.74 25.48 23.77 26.74 20.57 C 25.73 20.48 24.72 20.42 23.71 20.32 Z" />
</g>
<g id="#c785e0fd">
<path fill="#c785e0" opacity="1.00" d=" M 20.95 23.05 C 21.28 21.89 22.48 20.40 23.71 20.32 C 24.72 20.42 25.73 20.48 26.74 20.57 C 25.48 23.77 27.95 24.74 29.65 26.07 C 29.76 26.52 29.96 27.42 30.07 27.87 C 27.13 26.75 24.29 23.40 21.00 24.79 C 20.99 24.35 20.96 23.49 20.95 23.05 Z" />
</g>
<g id="#50687ff6">
<path fill="#50687f" opacity="0.96" d=" M 19.25 22.99 C 19.68 23.01 20.52 23.04 20.95 23.05 C 20.96 23.49 20.99 24.35 21.00 24.79 L 21.02 25.71 C 19.75 29.79 23.33 29.08 26.13 28.80 C 26.37 29.32 26.85 30.37 27.09 30.90 C 26.27 30.97 24.64 31.10 23.83 31.17 C 20.94 31.65 19.96 29.02 19.22 26.78 C 19.30 25.52 19.37 24.25 19.25 22.99 Z" />
</g>
<g id="#f4d6fbff">
<path fill="#f4d6fb" opacity="1.00" d=" M 34.90 26.11 C 32.55 22.72 38.15 22.15 40.05 23.93 C 42.58 24.72 41.60 27.47 41.92 29.46 C 38.04 31.77 36.02 29.01 34.90 26.11 Z" />
</g>
<g id="#9c80c6ff">
<path fill="#9c80c6" opacity="1.00" d=" M 21.00 24.79 C 24.29 23.40 27.13 26.75 30.07 27.87 C 30.08 28.38 30.11 29.42 30.12 29.93 C 28.80 29.51 27.47 29.14 26.13 28.80 C 24.47 27.70 22.81 26.60 21.02 25.71 L 21.00 24.79 Z" />
</g>
<g id="#dfcaedff">
<path fill="#dfcaed" opacity="1.00" d=" M 29.65 26.07 C 31.20 22.94 32.56 25.92 34.90 26.11 C 36.02 29.01 38.04 31.77 41.92 29.46 C 42.30 29.59 43.07 29.87 43.46 30.01 L 42.88 30.73 C 40.40 31.36 37.89 31.96 35.30 31.83 C 33.72 30.22 32.69 27.81 30.07 27.87 C 29.96 27.42 29.76 26.52 29.65 26.07 Z" />
</g>
<g id="#6673a0ff">
<path fill="#6673a0" opacity="1.00" d=" M 21.02 25.71 C 22.81 26.60 24.47 27.70 26.13 28.80 C 23.33 29.08 19.75 29.79 21.02 25.71 Z" />
</g>
<g id="#29684cfe">
<path fill="#29684c" opacity="1.00" d=" M 19.22 26.78 C 19.96 29.02 20.94 31.65 23.83 31.17 C 24.16 31.60 24.81 32.45 25.14 32.88 C 23.76 32.92 22.37 32.97 20.98 33.01 C 19.92 31.92 18.85 30.82 17.81 29.71 C 18.27 28.73 18.74 27.75 19.22 26.78 Z" />
</g>
<g id="#bcb7d7ff">
<path fill="#bcb7d7" opacity="1.00" d=" M 30.07 27.87 C 32.69 27.81 33.72 30.22 35.30 31.83 C 37.89 31.96 40.40 31.36 42.88 30.73 C 42.30 31.45 41.68 32.14 41.04 32.80 C 40.02 33.35 39.01 33.90 38.00 34.45 C 35.41 33.23 32.81 32.01 30.18 30.89 L 30.12 29.93 C 30.11 29.42 30.08 28.38 30.07 27.87 Z" />
</g>
<g id="#697ea8ff">
<path fill="#697ea8" opacity="1.00" d=" M 26.13 28.80 C 27.47 29.14 28.80 29.51 30.12 29.93 L 30.18 30.89 C 29.87 31.24 29.24 31.93 28.93 32.28 C 28.47 31.93 27.55 31.24 27.09 30.90 C 26.85 30.37 26.37 29.32 26.13 28.80 Z" />
</g>
<g id="#aba4accc">
<path fill="#aba4ac" opacity="0.80" d=" M 46.11 34.16 C 50.01 33.00 53.57 31.05 57.07 29.04 C 59.15 28.25 62.21 30.08 60.42 32.34 C 60.18 35.08 55.39 34.82 56.22 37.66 C 57.30 38.45 59.79 38.76 58.73 40.62 C 56.79 41.76 53.93 43.15 55.21 45.91 C 56.06 47.62 55.88 51.71 53.19 50.85 C 50.60 47.77 47.54 44.81 46.02 41.02 C 46.32 38.74 46.38 36.45 46.11 34.16 Z" />
</g>
<g id="#015512e7">
<path fill="#015512" opacity="0.91" d=" M 17.81 29.71 C 18.85 30.82 19.92 31.92 20.98 33.01 L 21.04 33.98 C 19.90 38.45 26.44 38.60 26.33 42.79 C 21.01 41.23 18.50 34.83 17.81 29.71 Z" />
</g>
<g id="#b98fd7ff">
<path fill="#b98fd7" opacity="1.00" d=" M 43.46 30.01 C 44.35 30.31 45.23 30.64 46.10 30.98 L 45.86 31.81 C 45.28 32.48 44.70 33.13 44.11 33.78 C 43.12 33.33 42.10 33.01 41.04 32.80 C 41.68 32.14 42.30 31.45 42.88 30.73 L 43.46 30.01 Z" />
</g>
<g id="#3d9978ff">
<path fill="#3d9978" opacity="1.00" d=" M 23.83 31.17 C 24.64 31.10 26.27 30.97 27.09 30.90 C 27.55 31.24 28.47 31.93 28.93 32.28 C 29.66 33.13 30.40 33.98 31.14 34.82 C 29.69 34.68 28.27 34.39 26.84 34.15 C 26.41 33.83 25.57 33.19 25.14 32.88 C 24.81 32.45 24.16 31.60 23.83 31.17 Z" />
</g>
<g id="#83bfc4ff">
<path fill="#83bfc4" opacity="1.00" d=" M 30.18 30.89 C 32.81 32.01 35.41 33.23 38.00 34.45 L 37.96 35.14 C 36.67 35.08 35.38 35.03 34.08 35.01 C 33.35 34.96 31.87 34.87 31.14 34.82 C 30.40 33.98 29.66 33.13 28.93 32.28 C 29.24 31.93 29.87 31.24 30.18 30.89 Z" />
</g>
<g id="#937a9ce8">
<path fill="#937a9c" opacity="0.91" d=" M 44.11 33.78 C 44.70 33.13 45.28 32.48 45.86 31.81 C 45.92 32.40 46.05 33.57 46.11 34.16 C 46.38 36.45 46.32 38.74 46.02 41.02 C 44.78 40.73 44.13 40.05 44.09 39.00 C 44.30 37.97 44.50 36.93 44.68 35.89 C 44.54 35.36 44.25 34.31 44.11 33.78 Z" />
</g>
<g id="#16973bff">
<path fill="#16973b" opacity="1.00" d=" M 20.98 33.01 C 22.37 32.97 23.76 32.92 25.14 32.88 C 25.57 33.19 26.41 33.83 26.84 34.15 L 27.22 34.93 C 25.12 34.92 23.05 34.58 21.04 33.98 L 20.98 33.01 Z" />
</g>
<g id="#8888bbff">
<path fill="#8888bb" opacity="1.00" d=" M 38.00 34.45 C 39.01 33.90 40.02 33.35 41.04 32.80 C 42.10 33.01 43.12 33.33 44.11 33.78 C 42.06 34.23 40.09 35.12 37.96 35.14 L 38.00 34.45 Z" />
</g>
<g id="#039c22ff">
<path fill="#039c22" opacity="1.00" d=" M 21.04 33.98 C 23.05 34.58 25.12 34.92 27.22 34.93 C 27.45 35.18 27.92 35.68 28.15 35.93 C 26.00 37.11 25.64 38.87 27.29 40.72 C 30.33 41.83 33.59 41.82 36.79 42.03 C 36.59 42.52 36.20 43.50 36.00 43.99 C 33.32 44.02 30.65 44.02 27.97 43.98 C 27.56 43.68 26.74 43.09 26.33 42.79 C 26.44 38.60 19.90 38.45 21.04 33.98 Z" />
</g>
<g id="#34d18bff">
<path fill="#34d18b" opacity="1.00" d=" M 26.84 34.15 C 28.27 34.39 29.69 34.68 31.14 34.82 C 31.87 34.87 33.35 34.96 34.08 35.01 L 33.80 35.71 C 33.57 36.26 33.10 37.37 32.87 37.92 C 31.63 37.50 30.36 37.17 29.09 36.85 C 28.86 36.62 28.39 36.16 28.15 35.93 C 27.92 35.68 27.45 35.18 27.22 34.93 L 26.84 34.15 Z" />
</g>
<g id="#5f739aff">
<path fill="#5f739a" opacity="1.00" d=" M 37.96 35.14 C 40.09 35.12 42.06 34.23 44.11 33.78 C 44.25 34.31 44.54 35.36 44.68 35.89 C 43.37 35.66 42.05 35.65 40.76 35.99 C 39.82 35.73 38.88 35.45 37.96 35.14 Z" />
</g>
<g id="#4c9c87ff">
<path fill="#4c9c87" opacity="1.00" d=" M 34.08 35.01 C 35.38 35.03 36.67 35.08 37.96 35.14 C 38.88 35.45 39.82 35.73 40.76 35.99 C 41.10 36.49 41.78 37.48 42.12 37.98 C 39.08 38.39 36.37 37.19 33.80 35.71 L 34.08 35.01 Z" />
</g>
<g id="#3e636efe">
<path fill="#3e636e" opacity="1.00" d=" M 40.76 35.99 C 42.05 35.65 43.37 35.66 44.68 35.89 C 44.50 36.93 44.30 37.97 44.09 39.00 L 43.29 39.04 C 43.00 38.78 42.41 38.25 42.12 37.98 C 41.78 37.48 41.10 36.49 40.76 35.99 Z" />
</g>
<g id="#03ce35ff">
<path fill="#03ce35" opacity="1.00" d=" M 28.15 35.93 C 28.39 36.16 28.86 36.62 29.09 36.85 C 31.12 39.33 34.12 40.44 37.11 41.25 L 36.79 42.03 C 33.59 41.82 30.33 41.83 27.29 40.72 C 25.64 38.87 26.00 37.11 28.15 35.93 Z" />
</g>
<g id="#2eaf66ff">
<path fill="#2eaf66" opacity="1.00" d=" M 32.87 37.92 C 33.10 37.37 33.57 36.26 33.80 35.71 C 36.37 37.19 39.08 38.39 42.12 37.98 C 42.41 38.25 43.00 38.78 43.29 39.04 C 41.95 39.40 40.60 39.69 39.22 39.83 C 37.00 39.59 34.84 38.99 32.87 37.92 Z" />
</g>
<g id="#16ca4eff">
<path fill="#16ca4e" opacity="1.00" d=" M 29.09 36.85 C 30.36 37.17 31.63 37.50 32.87 37.92 C 34.84 38.99 37.00 39.59 39.22 39.83 C 38.69 40.19 37.64 40.90 37.11 41.25 C 34.12 40.44 31.12 39.33 29.09 36.85 Z" />
</g>
<g id="#057726ed">
<path fill="#057726" opacity="0.93" d=" M 39.22 39.83 C 40.60 39.69 41.95 39.40 43.29 39.04 C 42.91 41.69 40.27 43.17 37.97 43.97 C 37.48 43.97 36.49 43.99 36.00 43.99 C 36.20 43.50 36.59 42.52 36.79 42.03 L 37.11 41.25 C 37.64 40.90 38.69 40.19 39.22 39.83 Z" />
</g>
<g id="#014a08c7">
<path fill="#014a08" opacity="0.78" d=" M 27.97 43.98 C 30.65 44.02 33.32 44.02 36.00 43.99 C 36.49 43.99 37.48 43.97 37.97 43.97 C 36.13 46.54 29.95 46.53 27.97 43.98 Z" />
</g>
<g id="#00000019">
<path fill="#000000" opacity="0.10" d=" M 13.99 59.16 C 16.58 57.96 19.44 58.20 22.23 58.22 C 20.58 58.72 18.29 58.96 19.92 61.04 C 17.85 60.86 14.75 61.83 13.99 59.16 Z" />
</g>
<g id="#00010037">
<path fill="#000100" opacity="0.22" d=" M 22.23 58.22 C 26.07 57.82 29.91 57.82 33.76 58.23 C 35.15 58.52 37.93 59.09 39.32 59.38 C 33.24 62.04 26.33 60.60 19.92 61.04 C 18.29 58.96 20.58 58.72 22.23 58.22 Z" />
</g>
<g id="#00000017">
<path fill="#000000" opacity="0.09" d=" M 33.76 58.23 C 38.63 57.29 43.36 58.30 48.09 59.21 C 45.94 61.69 42.03 60.61 39.01 61.13 C 32.73 62.10 26.37 62.23 20.04 61.97 L 19.92 61.04 C 26.33 60.60 33.24 62.04 39.32 59.38 C 37.93 59.09 35.15 58.52 33.76 58.23 Z" />
</g>
</svg>
