<?xml version="1.0" encoding="UTF-8" ?>
<!DOCTYPE svg PUBLIC "-//W3C//DTD SVG 1.1//EN" "http://www.w3.org/Graphics/SVG/1.1/DTD/svg11.dtd">
<svg width="64pt" height="64pt" viewBox="0 0 64 64" version="1.1" xmlns="http://www.w3.org/2000/svg">
<g id="#573014f1">
<path fill="#573014" opacity="0.95" d=" M 25.33 16.42 C 29.85 15.90 34.42 15.86 38.96 16.04 L 39.02 16.96 C 34.70 17.57 29.78 15.85 25.80 18.19 C 24.24 18.67 22.61 18.92 20.99 19.13 C 21.25 17.00 23.71 16.90 25.33 16.42 Z" />
</g>
<g id="#bf9d82fe">
<path fill="#bf9d82" opacity="1.00" d=" M 25.80 18.19 C 29.78 15.85 34.70 17.57 39.02 16.96 C 41.95 17.02 44.15 19.28 45.13 21.89 C 45.52 23.26 45.79 24.66 46.04 26.07 C 45.63 25.77 44.80 25.18 44.38 24.88 C 44.33 22.31 42.48 24.00 41.15 24.52 C 40.88 24.35 40.34 24.02 40.07 23.85 C 38.65 22.86 36.83 22.99 35.20 22.67 C 31.57 22.43 28.00 21.17 25.80 18.19 Z" />
</g>
<g id="#8e4919fd">
<path fill="#8e4919" opacity="1.00" d=" M 20.99 19.13 C 22.61 18.92 24.24 18.67 25.80 18.19 C 28.00 21.17 31.57 22.43 35.20 22.67 C 30.58 23.36 25.89 24.13 21.52 25.86 L 20.83 26.11 C 20.68 25.79 20.38 25.15 20.23 24.83 C 19.97 24.30 19.46 23.24 19.21 22.70 L 19.01 21.86 C 18.64 20.52 19.59 19.13 20.99 19.13 Z" />
</g>
<g id="#d5d3d3fb">
<path fill="#d5d3d3" opacity="1.00" d=" M 3.36 37.30 C 4.34 29.35 11.86 24.03 19.01 21.86 L 19.21 22.70 C 18.46 24.42 17.77 26.16 17.05 27.89 C 14.06 29.18 10.94 31.52 10.20 34.87 C 7.33 43.76 16.41 49.50 23.64 51.38 C 31.86 52.75 40.83 52.94 47.99 47.99 C 53.98 45.33 56.37 36.63 52.04 31.63 C 50.76 29.92 49.06 28.49 47.01 27.81 C 46.77 27.37 46.28 26.50 46.04 26.07 C 45.79 24.66 45.52 23.26 45.13 21.89 C 52.77 24.36 60.76 30.10 60.80 38.97 C 60.14 42.21 59.35 45.46 56.98 47.98 C 55.07 51.96 50.01 52.29 47.59 55.65 C 46.97 55.74 45.71 55.91 45.09 56.00 C 42.71 56.09 40.40 56.62 38.06 56.99 C 34.29 57.06 30.52 57.32 26.77 57.78 C 26.09 57.81 24.72 57.85 24.04 57.88 C 17.38 57.05 12.57 52.50 7.35 48.72 C 4.95 45.44 3.10 41.39 3.36 37.30 Z" />
</g>
<g id="#f6d27bff">
<path fill="#f6d27b" opacity="1.00" d=" M 19.21 22.70 C 19.46 23.24 19.97 24.30 20.23 24.83 C 20.05 26.51 19.82 28.20 19.52 29.86 C 19.27 30.88 19.10 31.91 18.99 32.94 C 18.88 36.17 21.39 39.48 19.98 42.55 C 19.43 42.47 18.34 42.32 17.79 42.24 C 15.55 40.51 14.80 37.65 14.86 34.93 C 15.88 32.68 16.83 30.37 17.05 27.89 C 17.77 26.16 18.46 24.42 19.21 22.70 Z" />
</g>
<g id="#763a0fff">
<path fill="#763a0f" opacity="1.00" d=" M 21.52 25.86 C 25.89 24.13 30.58 23.36 35.20 22.67 C 36.83 22.99 38.65 22.86 40.07 23.85 C 35.02 24.33 27.99 23.58 24.54 28.18 C 23.32 27.71 22.45 26.73 21.52 25.86 Z" />
</g>
<g id="#875627ff">
<path fill="#875627" opacity="1.00" d=" M 41.15 24.52 C 42.48 24.00 44.33 22.31 44.38 24.88 C 43.37 26.01 42.32 27.12 41.19 28.14 C 40.67 28.14 39.61 28.14 39.08 28.15 C 37.15 26.10 39.30 25.24 41.15 24.52 Z" />
</g>
<g id="#592e0cff">
<path fill="#592e0c" opacity="1.00" d=" M 24.54 28.18 C 27.99 23.58 35.02 24.33 40.07 23.85 C 40.34 24.02 40.88 24.35 41.15 24.52 C 39.30 25.24 37.15 26.10 39.08 28.15 C 34.44 29.99 28.99 30.97 24.54 28.18 Z" />
</g>
<g id="#f2b837ff">
<path fill="#f2b837" opacity="1.00" d=" M 20.23 24.83 C 20.38 25.15 20.68 25.79 20.83 26.11 C 21.35 29.41 23.03 32.13 26.64 32.41 C 30.46 32.32 37.99 35.69 38.83 29.91 C 38.99 30.63 39.29 32.07 39.45 32.80 C 39.29 33.31 38.97 34.34 38.80 34.85 C 32.32 35.47 23.85 35.85 19.52 29.86 C 19.82 28.20 20.05 26.51 20.23 24.83 Z" />
</g>
<g id="#f9e3adff">
<path fill="#f9e3ad" opacity="1.00" d=" M 44.38 24.88 C 44.80 25.18 45.63 25.77 46.04 26.07 C 46.28 26.50 46.77 27.37 47.01 27.81 C 47.28 29.83 47.83 31.80 48.35 33.76 C 48.10 35.89 47.79 38.02 47.24 40.09 C 45.53 41.08 43.86 42.12 42.10 43.02 C 42.23 38.19 41.45 33.42 40.63 28.68 L 41.19 28.14 C 42.32 27.12 43.37 26.01 44.38 24.88 Z" />
</g>
<g id="#e5a021ff">
<path fill="#e5a021" opacity="1.00" d=" M 20.83 26.11 L 21.52 25.86 C 22.45 26.73 23.32 27.71 24.54 28.18 C 28.99 30.97 34.44 29.99 39.08 28.15 C 39.61 28.14 40.67 28.14 41.19 28.14 L 40.63 28.68 C 40.18 28.99 39.28 29.60 38.83 29.91 C 37.99 35.69 30.46 32.32 26.64 32.41 C 23.03 32.13 21.35 29.41 20.83 26.11 Z" />
</g>
<g id="#633812ff">
<path fill="#633812" opacity="1.00" d=" M 10.20 34.87 C 10.94 31.52 14.06 29.18 17.05 27.89 C 16.83 30.37 15.88 32.68 14.86 34.93 C 11.05 42.16 20.32 49.48 26.99 47.08 C 30.40 46.91 33.96 47.43 37.28 46.36 C 39.33 45.81 41.32 45.08 43.26 44.24 C 44.95 43.76 46.05 42.34 47.23 41.14 L 48.09 40.88 C 49.96 44.21 44.94 46.11 42.69 47.66 C 37.55 49.38 31.96 49.32 26.62 49.49 C 18.57 49.58 10.77 43.07 10.20 34.87 Z" />
</g>
<g id="#5d320fff">
<path fill="#5d320f" opacity="1.00" d=" M 47.01 27.81 C 49.06 28.49 50.76 29.92 52.04 31.63 C 51.29 34.19 50.79 36.89 49.24 39.11 C 49.06 37.31 48.87 35.50 48.35 33.76 C 47.83 31.80 47.28 29.83 47.01 27.81 Z" />
</g>
<g id="#f9d469ff">
<path fill="#f9d469" opacity="1.00" d=" M 38.83 29.91 C 39.28 29.60 40.18 28.99 40.63 28.68 C 41.45 33.42 42.23 38.19 42.10 43.02 C 43.86 42.12 45.53 41.08 47.24 40.09 L 47.23 41.14 C 46.05 42.34 44.95 43.76 43.26 44.24 C 35.46 44.28 27.11 46.86 19.98 42.55 C 21.39 39.48 18.88 36.17 18.99 32.94 C 24.46 37.10 32.05 39.05 38.69 36.74 C 40.66 36.16 39.72 34.22 39.45 32.80 C 39.29 32.07 38.99 30.63 38.83 29.91 Z" />
</g>
<g id="#f6c550ff">
<path fill="#f6c550" opacity="1.00" d=" M 18.99 32.94 C 19.10 31.91 19.27 30.88 19.52 29.86 C 23.85 35.85 32.32 35.47 38.80 34.85 C 38.97 34.34 39.29 33.31 39.45 32.80 C 39.72 34.22 40.66 36.16 38.69 36.74 C 32.05 39.05 24.46 37.10 18.99 32.94 Z" />
</g>
<g id="#402410ff">
<path fill="#402410" opacity="1.00" d=" M 49.24 39.11 C 50.79 36.89 51.29 34.19 52.04 31.63 C 56.37 36.63 53.98 45.33 47.99 47.99 C 40.83 52.94 31.86 52.75 23.64 51.38 C 16.41 49.50 7.33 43.76 10.20 34.87 C 10.77 43.07 18.57 49.58 26.62 49.49 C 31.96 49.32 37.55 49.38 42.69 47.66 C 44.94 46.11 49.96 44.21 48.09 40.88 C 48.38 40.44 48.95 39.56 49.24 39.11 Z" />
</g>
<g id="#eebf44ff">
<path fill="#eebf44" opacity="1.00" d=" M 48.35 33.76 C 48.87 35.50 49.06 37.31 49.24 39.11 C 48.95 39.56 48.38 40.44 48.09 40.88 L 47.23 41.14 L 47.24 40.09 C 47.79 38.02 48.10 35.89 48.35 33.76 Z" />
</g>
<g id="#9a6218ff">
<path fill="#9a6218" opacity="1.00" d=" M 26.99 47.08 C 20.32 49.48 11.05 42.16 14.86 34.93 C 14.80 37.65 15.55 40.51 17.79 42.24 C 20.12 44.80 23.69 45.53 26.95 46.09 L 26.99 47.08 Z" />
</g>
<g id="#fac720ff">
<path fill="#fac720" opacity="1.00" d=" M 17.79 42.24 C 18.34 42.32 19.43 42.47 19.98 42.55 C 27.11 46.86 35.46 44.28 43.26 44.24 C 41.32 45.08 39.33 45.81 37.28 46.36 C 33.84 46.21 30.40 46.01 26.95 46.09 C 23.69 45.53 20.12 44.80 17.79 42.24 Z" />
</g>
<g id="#d58c03ff">
<path fill="#d58c03" opacity="1.00" d=" M 26.95 46.09 C 30.40 46.01 33.84 46.21 37.28 46.36 C 33.96 47.43 30.40 46.91 26.99 47.08 L 26.95 46.09 Z" />
</g>
<g id="#313131a2">
<path fill="#313131" opacity="0.64" d=" M 38.06 56.99 C 40.40 56.62 42.71 56.09 45.09 56.00 C 44.70 57.40 42.84 57.14 41.78 57.78 C 40.51 57.88 39.24 57.95 37.97 57.98 L 38.06 56.99 Z" />
</g>
<g id="#6e6e6eed">
<path fill="#6e6e6e" opacity="0.93" d=" M 26.77 57.78 C 30.52 57.32 34.29 57.06 38.06 56.99 L 37.97 57.98 C 34.23 58.07 30.50 58.02 26.77 57.78 Z" />
</g>
<g id="#0101013e">
<path fill="#010101" opacity="0.24" d=" M 24.04 57.88 C 24.72 57.85 26.09 57.81 26.77 57.78 C 30.50 58.02 34.23 58.07 37.97 57.98 C 39.24 57.95 40.51 57.88 41.78 57.78 C 42.09 58.05 42.70 58.58 43.01 58.84 C 36.82 59.46 30.02 61.70 24.19 58.77 L 24.04 57.88 Z" />
</g>
</svg>
