<?xml version="1.0" encoding="UTF-8" ?>
<!DOCTYPE svg PUBLIC "-//W3C//DTD SVG 1.1//EN" "http://www.w3.org/Graphics/SVG/1.1/DTD/svg11.dtd">
<svg width="64pt" height="64pt" viewBox="0 0 64 64" version="1.1" xmlns="http://www.w3.org/2000/svg">
<g id="#9b1b15ff">
<path fill="#9b1b15" opacity="1.00" d=" M 19.70 11.74 C 23.38 9.36 27.96 10.28 32.07 10.52 C 38.48 11.21 45.59 12.75 49.65 18.24 C 54.41 19.05 60.05 20.80 62.29 25.47 C 62.95 28.43 63.92 32.47 61.59 34.91 C 61.26 35.19 60.60 35.75 60.27 36.03 C 59.08 35.19 57.88 34.37 56.67 33.56 C 57.44 30.59 60.31 26.47 56.91 24.14 C 52.01 20.05 45.28 19.71 39.24 18.65 C 34.24 19.01 30.39 23.07 25.36 23.52 C 28.94 20.09 33.43 17.95 37.91 16.00 C 36.11 13.26 32.82 13.42 29.93 13.05 C 23.40 10.82 17.81 15.32 12.47 18.31 C 6.16 21.37 3.58 29.88 6.61 36.09 C 7.30 35.74 8.66 35.04 9.34 34.69 C 14.96 31.58 18.08 24.85 24.87 23.71 C 22.18 27.06 18.33 29.55 16.61 33.61 C 14.84 37.28 15.50 41.50 15.64 45.42 C 18.14 47.03 20.72 48.84 20.77 52.16 L 20.22 52.80 C 18.09 54.62 15.47 52.65 13.79 51.20 C 11.57 49.34 11.51 46.22 11.74 43.57 C 12.06 42.52 12.11 41.48 11.89 40.46 C 10.64 40.57 10.28 42.25 9.86 43.22 C 6.36 44.73 2.65 42.04 1.22 38.92 C 0.64 33.41 1.15 27.58 3.70 22.59 C 7.32 16.86 14.22 15.07 19.70 11.74 Z" />
</g>
<g id="#d33c2eff">
<path fill="#d33c2e" opacity="1.00" d=" M 12.47 18.31 C 17.81 15.32 23.40 10.82 29.93 13.05 C 30.90 13.53 31.87 14.01 32.84 14.50 C 32.33 15.26 31.85 16.03 31.34 16.79 C 27.79 16.46 23.97 14.93 20.55 16.58 C 18.10 17.66 15.50 18.65 13.49 20.46 C 11.08 23.22 9.46 26.60 8.22 30.03 C 8.79 30.32 9.92 30.91 10.48 31.21 C 10.07 32.36 9.71 33.52 9.34 34.69 C 8.66 35.04 7.30 35.74 6.61 36.09 C 3.58 29.88 6.16 21.37 12.47 18.31 Z" />
</g>
<g id="#ba4b2eff">
<path fill="#ba4b2e" opacity="1.00" d=" M 29.93 13.05 C 32.82 13.42 36.11 13.26 37.91 16.00 C 33.43 17.95 28.94 20.09 25.36 23.52 C 25.24 23.57 24.99 23.66 24.87 23.71 C 18.08 24.85 14.96 31.58 9.34 34.69 C 9.71 33.52 10.07 32.36 10.48 31.21 C 11.32 29.24 11.96 26.76 14.18 25.92 C 16.99 24.59 19.72 23.09 22.15 21.14 C 24.80 18.90 28.28 18.26 31.34 16.79 C 31.85 16.03 32.33 15.26 32.84 14.50 C 31.87 14.01 30.90 13.53 29.93 13.05 Z" />
</g>
<g id="#e35639ff">
<path fill="#e35639" opacity="1.00" d=" M 20.55 16.58 C 23.97 14.93 27.79 16.46 31.34 16.79 C 28.28 18.26 24.80 18.90 22.15 21.14 C 19.72 23.09 16.99 24.59 14.18 25.92 C 11.96 26.76 11.32 29.24 10.48 31.21 C 9.92 30.91 8.79 30.32 8.22 30.03 C 9.46 26.60 11.08 23.22 13.49 20.46 C 15.50 18.65 18.10 17.66 20.55 16.58 Z" />
</g>
<g id="#c83928ff">
<path fill="#c83928" opacity="1.00" d=" M 39.24 18.65 C 45.28 19.71 52.01 20.05 56.91 24.14 C 60.31 26.47 57.44 30.59 56.67 33.56 C 57.88 34.37 59.08 35.19 60.27 36.03 L 59.37 36.70 C 56.11 36.73 52.85 37.02 49.64 37.62 C 45.25 38.69 41.62 41.99 37.00 42.48 C 32.37 42.79 28.52 45.45 24.81 47.98 C 23.12 49.00 21.96 50.62 20.77 52.16 C 20.72 48.84 18.14 47.03 15.64 45.42 C 15.50 41.50 14.84 37.28 16.61 33.61 C 18.33 29.55 22.18 27.06 24.87 23.71 C 24.99 23.66 25.24 23.57 25.36 23.52 C 30.39 23.07 34.24 19.01 39.24 18.65 M 26.32 27.53 C 23.73 31.21 21.64 35.36 19.16 39.17 C 20.93 40.20 22.94 40.89 25.01 40.58 C 31.83 37.18 39.10 34.82 46.36 32.59 C 47.84 31.92 50.05 31.59 50.45 29.71 C 50.76 28.00 51.20 26.33 51.66 24.65 C 49.29 24.45 46.80 24.57 44.65 23.37 C 42.28 21.95 39.59 23.47 37.05 23.37 C 33.01 23.15 30.07 26.53 26.32 27.53 M 37.62 38.16 C 33.19 39.11 27.83 40.08 25.97 44.90 C 29.21 44.33 32.02 42.45 35.23 41.76 C 42.03 40.37 47.83 35.71 55.02 36.09 C 53.57 34.28 51.13 33.91 48.98 33.69 C 44.70 33.66 41.32 36.51 37.62 38.16 Z" />
</g>
<g id="#e55c3aff">
<path fill="#e55c3a" opacity="1.00" d=" M 26.32 27.53 C 30.07 26.53 33.01 23.15 37.05 23.37 C 39.59 23.47 42.28 21.95 44.65 23.37 C 46.80 24.57 49.29 24.45 51.66 24.65 C 51.20 26.33 50.76 28.00 50.45 29.71 C 50.05 31.59 47.84 31.92 46.36 32.59 C 39.10 34.82 31.83 37.18 25.01 40.58 C 22.94 40.89 20.93 40.20 19.16 39.17 C 21.64 35.36 23.73 31.21 26.32 27.53 Z" />
</g>
<g id="#dd614cff">
<path fill="#dd614c" opacity="1.00" d=" M 37.62 38.16 C 41.32 36.51 44.70 33.66 48.98 33.69 C 51.13 33.91 53.57 34.28 55.02 36.09 C 47.83 35.71 42.03 40.37 35.23 41.76 C 32.02 42.45 29.21 44.33 25.97 44.90 C 27.83 40.08 33.19 39.11 37.62 38.16 Z" />
</g>
<g id="#7d746eff">
<path fill="#7d746e" opacity="1.00" d=" M 60.27 36.03 C 60.60 35.75 61.26 35.19 61.59 34.91 C 61.22 37.61 61.74 40.72 59.80 42.94 C 57.33 45.84 53.58 46.95 50.07 47.98 C 43.65 49.72 37.55 52.56 30.90 53.34 C 27.38 53.60 23.54 54.36 20.22 52.80 L 20.77 52.16 C 21.96 50.62 23.12 49.00 24.81 47.98 C 25.50 48.85 26.18 49.72 26.85 50.60 C 32.45 49.94 37.97 48.62 43.33 46.86 C 48.48 45.23 54.03 44.42 58.58 41.29 C 58.59 40.13 58.63 38.96 58.70 37.79 C 55.70 37.41 52.66 37.39 49.64 37.62 C 52.85 37.02 56.11 36.73 59.37 36.70 L 60.27 36.03 Z" />
</g>
<g id="#d4d3d3ff">
<path fill="#d4d3d3" opacity="1.00" d=" M 37.00 42.48 C 41.62 41.99 45.25 38.69 49.64 37.62 C 52.66 37.39 55.70 37.41 58.70 37.79 C 58.63 38.96 58.59 40.13 58.58 41.29 C 54.03 44.42 48.48 45.23 43.33 46.86 C 37.97 48.62 32.45 49.94 26.85 50.60 C 26.18 49.72 25.50 48.85 24.81 47.98 C 28.52 45.45 32.37 42.79 37.00 42.48 Z" />
</g>
<g id="#52413dfa">
<path fill="#52413d" opacity="0.98" d=" M 9.86 43.22 C 10.28 42.25 10.64 40.57 11.89 40.46 C 12.11 41.48 12.06 42.52 11.74 43.57 C 11.27 43.48 10.33 43.31 9.86 43.22 Z" />
</g>
</svg>
