<?xml version="1.0" encoding="UTF-8" ?>
<!DOCTYPE svg PUBLIC "-//W3C//DTD SVG 1.1//EN" "http://www.w3.org/Graphics/SVG/1.1/DTD/svg11.dtd">
<svg width="64pt" height="64pt" viewBox="0 0 64 64" version="1.1" xmlns="http://www.w3.org/2000/svg">
<g id="#49393aff">
<path fill="#49393a" opacity="1.00" d=" M 4.22 4.29 C 10.74 3.83 17.07 6.04 23.51 6.73 C 25.21 7.13 28.75 7.03 27.72 9.76 C 25.66 12.72 22.30 14.56 20.67 17.84 C 20.13 18.28 19.06 19.16 18.53 19.60 C 18.32 19.81 17.92 20.22 17.72 20.43 C 14.13 22.57 12.24 27.34 7.91 28.05 C 6.53 24.54 6.35 20.74 5.63 17.07 C 5.07 12.83 3.76 8.61 4.22 4.29 M 7.47 6.36 C 7.21 6.77 6.70 7.58 6.44 7.99 C 6.23 13.23 7.48 18.51 8.59 23.62 C 10.22 23.41 12.31 23.96 13.40 22.39 C 16.25 19.28 19.29 16.36 22.30 13.42 C 23.64 12.44 23.48 10.70 23.78 9.25 C 18.67 7.09 12.98 6.40 7.47 6.36 Z" />
<path fill="#49393a" opacity="1.00" d=" M 54.56 32.67 C 56.20 33.57 57.99 35.89 56.36 37.63 C 53.98 40.47 50.99 42.73 48.69 45.64 C 48.20 46.63 47.76 47.64 47.36 48.68 C 47.45 49.22 47.62 50.29 47.71 50.82 C 46.82 50.05 45.92 49.27 45.02 48.50 C 45.42 47.57 45.81 46.65 46.19 45.72 C 49.05 43.02 51.65 40.07 54.45 37.33 C 54.74 35.79 54.59 34.22 54.56 32.67 Z" />
</g>
<g id="#837071ff">
<path fill="#837071" opacity="1.00" d=" M 7.47 6.36 C 12.98 6.40 18.67 7.09 23.78 9.25 C 23.48 10.70 23.64 12.44 22.30 13.42 C 19.29 16.36 16.25 19.28 13.40 22.39 C 12.31 23.96 10.22 23.41 8.59 23.62 C 7.48 18.51 6.23 13.23 6.44 7.99 C 6.70 7.58 7.21 6.77 7.47 6.36 Z" />
</g>
<g id="#493117e6">
<path fill="#493117" opacity="0.90" d=" M 20.67 17.84 C 22.88 18.23 24.74 16.62 26.88 16.39 C 29.41 15.87 31.96 16.50 34.29 17.45 L 34.04 18.64 C 28.59 15.65 21.65 18.22 18.81 23.56 C 16.07 27.46 17.86 32.88 21.00 35.99 C 24.03 39.00 28.66 39.03 32.60 38.38 C 35.81 37.64 37.22 33.78 40.53 33.25 C 40.15 34.04 39.40 35.62 39.03 36.42 C 38.20 38.07 37.19 39.63 36.03 41.07 C 36.06 40.43 36.11 39.15 36.14 38.50 C 31.90 41.70 26.41 41.46 21.86 39.08 L 21.77 39.25 C 17.49 36.30 15.15 30.69 16.70 25.62 C 17.08 23.90 18.42 22.26 17.72 20.43 C 17.92 20.22 18.32 19.81 18.53 19.60 L 18.85 20.20 C 20.36 20.17 20.97 19.39 20.67 17.84 Z" />
</g>
<g id="#cfa777ff">
<path fill="#cfa777" opacity="1.00" d=" M 18.53 19.60 C 19.06 19.16 20.13 18.28 20.67 17.84 C 20.97 19.39 20.36 20.17 18.85 20.20 L 18.53 19.60 Z" />
</g>
<g id="#ad884eff">
<path fill="#ad884e" opacity="1.00" d=" M 18.81 23.56 C 21.65 18.22 28.59 15.65 34.04 18.64 C 35.84 20.65 37.91 22.67 38.45 25.44 C 38.54 29.36 36.69 33.82 32.42 34.67 C 28.16 36.99 23.72 34.42 20.61 31.47 C 20.34 28.77 19.68 26.13 18.81 23.56 Z" />
</g>
<g id="#785428ff">
<path fill="#785428" opacity="1.00" d=" M 34.29 17.45 C 39.82 20.34 43.03 27.31 40.53 33.25 C 37.22 33.78 35.81 37.64 32.60 38.38 C 28.66 39.03 24.03 39.00 21.00 35.99 C 17.86 32.88 16.07 27.46 18.81 23.56 C 19.68 26.13 20.34 28.77 20.61 31.47 C 23.72 34.42 28.16 36.99 32.42 34.67 C 36.69 33.82 38.54 29.36 38.45 25.44 C 37.91 22.67 35.84 20.65 34.04 18.64 L 34.29 17.45 Z" />
</g>
<g id="#dacdc5ff">
<path fill="#dacdc5" opacity="1.00" d=" M 40.37 36.34 C 43.06 33.95 45.44 31.22 48.07 28.75 C 50.97 27.91 52.71 31.03 54.56 32.67 C 54.59 34.22 54.74 35.79 54.45 37.33 C 51.65 40.07 49.05 43.02 46.19 45.72 C 42.89 47.04 40.95 50.11 38.31 52.30 C 34.75 53.72 31.62 51.60 30.50 48.19 C 30.68 47.54 31.02 46.26 31.20 45.62 C 32.07 44.61 33.07 43.72 34.01 42.77 L 34.43 42.58 C 35.10 42.24 35.63 41.74 36.03 41.07 C 37.19 39.63 38.20 38.07 39.03 36.42 L 40.37 36.34 Z" />
</g>
<g id="#23180eab">
<path fill="#23180e" opacity="0.67" d=" M 21.77 39.25 L 21.86 39.08 C 26.41 41.46 31.90 41.70 36.14 38.50 C 36.11 39.15 36.06 40.43 36.03 41.07 C 35.63 41.74 35.10 42.24 34.43 42.58 C 31.68 38.38 23.99 43.85 21.77 39.25 Z" />
</g>
<g id="#746c69f8">
<path fill="#746c69" opacity="0.97" d=" M 28.67 47.97 C 29.37 47.04 30.22 46.25 31.20 45.62 C 31.02 46.26 30.68 47.54 30.50 48.19 C 31.62 51.60 34.75 53.72 38.31 52.30 C 40.95 50.11 42.89 47.04 46.19 45.72 C 45.81 46.65 45.42 47.57 45.02 48.50 C 44.66 49.54 43.98 50.31 43.00 50.81 C 41.98 51.26 41.26 51.99 40.81 53.00 C 40.32 53.73 39.76 54.40 39.12 55.01 C 36.05 57.07 33.18 54.91 30.86 52.89 C 29.96 52.38 29.41 51.66 29.21 50.73 C 29.07 50.04 28.80 48.66 28.67 47.97 Z" />
</g>
<g id="#cba678ed">
<path fill="#cba678" opacity="0.93" d=" M 47.36 48.68 C 47.76 47.64 48.20 46.63 48.69 45.64 C 53.01 49.65 57.30 53.76 61.10 58.27 L 60.24 59.41 C 59.78 59.46 58.87 59.56 58.41 59.61 C 54.80 55.90 51.25 52.12 47.36 48.68 Z" />
</g>
<g id="#1a171692">
<path fill="#1a1716" opacity="0.57" d=" M 29.21 50.73 C 27.69 51.45 27.07 47.90 28.67 47.97 C 28.80 48.66 29.07 50.04 29.21 50.73 Z" />
</g>
<g id="#a17d4ef5">
<path fill="#a17d4e" opacity="0.96" d=" M 47.36 48.68 C 51.25 52.12 54.80 55.90 58.41 59.61 L 57.05 59.71 C 56.52 59.29 55.45 58.46 54.92 58.04 C 54.57 57.68 53.87 56.96 53.51 56.60 C 53.18 56.21 52.52 55.42 52.19 55.03 C 51.74 54.02 51.01 53.30 49.99 52.88 C 49.10 52.34 48.34 51.65 47.71 50.82 C 47.62 50.29 47.45 49.22 47.36 48.68 Z" />
</g>
<g id="#1513126d">
<path fill="#151312" opacity="0.43" d=" M 40.81 53.00 C 41.26 51.99 41.98 51.26 43.00 50.81 C 43.27 52.53 42.55 53.26 40.81 53.00 Z" />
</g>
<g id="#332f2ec0">
<path fill="#332f2e" opacity="0.75" d=" M 30.86 52.89 C 33.18 54.91 36.05 57.07 39.12 55.01 C 38.12 56.27 36.83 57.57 35.05 56.99 C 33.30 56.02 32.02 54.46 30.86 52.89 Z" />
</g>
<g id="#2e241578">
<path fill="#2e2415" opacity="0.47" d=" M 49.99 52.88 C 51.01 53.30 51.74 54.02 52.19 55.03 C 50.47 55.31 49.74 54.60 49.99 52.88 Z" />
</g>
<g id="#0000003c">
<path fill="#000000" opacity="0.24" d=" M 40.91 59.53 C 44.99 58.10 49.29 57.46 53.51 56.60 C 53.87 56.96 54.57 57.68 54.92 58.04 C 55.19 58.34 55.72 58.92 55.99 59.22 C 54.98 61.07 52.75 60.52 51.06 60.67 C 47.66 60.56 44.12 60.85 40.91 59.53 Z" />
</g>
<g id="#453521a7">
<path fill="#453521" opacity="0.65" d=" M 54.92 58.04 C 55.45 58.46 56.52 59.29 57.05 59.71 L 58.41 59.61 C 58.87 59.56 59.78 59.46 60.24 59.41 L 60.98 59.32 C 60.04 59.98 59.09 60.64 58.15 61.29 C 57.39 60.64 56.67 59.95 55.99 59.22 C 55.72 58.92 55.19 58.34 54.92 58.04 Z" />
</g>
</svg>
