<?xml version="1.0" encoding="UTF-8" ?>
<!DOCTYPE svg PUBLIC "-//W3C//DTD SVG 1.1//EN" "http://www.w3.org/Graphics/SVG/1.1/DTD/svg11.dtd">
<svg width="64pt" height="64pt" viewBox="0 0 64 64" version="1.1" xmlns="http://www.w3.org/2000/svg">
<g id="#930e1dff">
<path fill="#930e1d" opacity="1.00" d=" M 15.62 4.73 C 16.18 4.58 17.28 4.29 17.84 4.15 C 17.55 4.33 16.98 4.70 16.69 4.89 C 16.03 7.32 15.57 9.81 15.17 12.30 C 25.27 10.29 35.75 10.85 45.91 12.11 L 46.58 12.21 C 46.61 12.89 46.67 14.23 46.70 14.91 C 46.51 14.65 46.13 14.13 45.93 13.88 C 35.49 15.31 24.76 15.79 14.37 13.71 C 15.00 10.75 15.50 7.76 15.62 4.73 Z" />
<path fill="#930e1d" opacity="1.00" d=" M 24.32 21.34 C 29.35 20.30 34.85 20.19 39.65 22.26 C 41.06 23.03 43.23 23.86 42.80 25.87 C 41.51 29.39 37.65 31.35 34.08 31.72 C 28.88 32.59 22.43 32.02 19.47 27.00 C 18.89 24.03 21.60 21.71 24.32 21.34 Z" />
</g>
<g id="#f4f4f4ff">
<path fill="#f4f4f4" opacity="1.00" d=" M 17.84 4.15 C 26.88 3.21 36.26 2.67 45.17 4.79 C 45.23 7.24 45.55 9.68 45.91 12.11 C 35.75 10.85 25.27 10.29 15.17 12.30 C 15.57 9.81 16.03 7.32 16.69 4.89 C 16.98 4.70 17.55 4.33 17.84 4.15 Z" />
<path fill="#f4f4f4" opacity="1.00" d=" M 29.21 36.34 C 29.84 36.30 31.09 36.22 31.72 36.18 C 31.80 39.71 31.78 43.23 31.68 46.76 C 31.42 46.51 30.91 46.03 30.65 45.79 C 30.48 46.68 30.15 48.45 29.98 49.33 C 29.42 45.03 29.21 40.68 29.21 36.34 Z" />
<path fill="#f4f4f4" opacity="1.00" d=" M 28.46 51.59 C 29.72 50.31 30.98 50.24 32.24 51.39 C 32.46 51.75 32.89 52.45 33.10 52.80 C 31.26 52.59 29.41 52.41 27.56 52.20 L 28.46 51.59 Z" />
<path fill="#f4f4f4" opacity="1.00" d=" M 18.92 54.23 C 21.95 53.57 25.00 52.93 28.11 52.73 C 27.22 53.20 25.42 54.14 24.53 54.61 C 27.81 54.77 31.11 55.09 34.37 54.52 C 34.25 54.19 34.00 53.54 33.87 53.22 C 34.07 53.01 34.48 52.60 34.68 52.40 C 38.21 53.00 41.91 53.63 44.86 55.81 C 42.91 59.28 38.45 59.41 34.96 59.99 C 28.70 60.41 22.02 60.04 16.38 57.01 C 16.28 56.70 16.09 56.08 16.00 55.78 C 16.94 55.19 17.91 54.67 18.92 54.23 Z" />
</g>
<g id="#690b18ff">
<path fill="#690b18" opacity="1.00" d=" M 14.37 13.71 C 24.76 15.79 35.49 15.31 45.93 13.88 C 46.13 14.13 46.51 14.65 46.70 14.91 C 47.92 18.65 48.52 22.81 47.61 26.69 C 44.81 32.66 38.18 36.13 31.72 36.18 C 31.09 36.22 29.84 36.30 29.21 36.34 C 29.21 40.68 29.42 45.03 29.98 49.33 C 30.15 48.45 30.48 46.68 30.65 45.79 C 30.91 46.03 31.42 46.51 31.68 46.76 C 32.41 48.10 32.02 49.90 32.24 51.39 C 30.98 50.24 29.72 50.31 28.46 51.59 C 29.05 46.46 28.53 41.30 28.61 36.15 C 22.37 35.92 16.09 32.44 13.38 26.69 C 12.25 22.39 13.56 17.96 14.37 13.71 M 24.32 21.34 C 21.60 21.71 18.89 24.03 19.47 27.00 C 22.43 32.02 28.88 32.59 34.08 31.72 C 37.65 31.35 41.51 29.39 42.80 25.87 C 43.23 23.86 41.06 23.03 39.65 22.26 C 34.85 20.19 29.35 20.30 24.32 21.34 Z" />
<path fill="#690b18" opacity="1.00" d=" M 18.92 54.23 C 21.30 52.40 24.66 52.24 27.56 52.20 C 29.41 52.41 31.26 52.59 33.10 52.80 L 33.87 53.22 C 34.00 53.54 34.25 54.19 34.37 54.52 C 31.11 55.09 27.81 54.77 24.53 54.61 C 25.42 54.14 27.22 53.20 28.11 52.73 C 25.00 52.93 21.95 53.57 18.92 54.23 Z" />
<path fill="#690b18" opacity="1.00" d=" M 44.86 55.81 C 44.69 58.77 41.39 59.27 39.09 59.91 C 33.13 61.07 26.87 61.10 20.95 59.71 C 19.27 59.20 17.15 58.81 16.38 57.01 C 22.02 60.04 28.70 60.41 34.96 59.99 C 38.45 59.41 42.91 59.28 44.86 55.81 Z" />
</g>
</svg>
