<?xml version="1.0" encoding="UTF-8" ?>
<!DOCTYPE svg PUBLIC "-//W3C//DTD SVG 1.1//EN" "http://www.w3.org/Graphics/SVG/1.1/DTD/svg11.dtd">
<svg width="64pt" height="64pt" viewBox="0 0 64 64" version="1.1" xmlns="http://www.w3.org/2000/svg">
<g id="#acab9cff">
<path fill="#acab9c" opacity="1.00" d=" M 14.29 8.37 C 23.90 1.40 38.52 2.61 46.74 11.24 C 52.59 17.15 55.22 25.99 53.51 34.14 C 53.54 33.74 53.59 32.96 53.62 32.56 C 55.57 20.23 46.66 7.59 34.49 5.08 C 24.76 2.71 13.84 7.10 8.48 15.55 C 3.56 22.87 3.07 32.88 7.29 40.62 C 9.14 44.19 11.91 47.17 14.90 49.82 C 8.22 45.17 3.53 37.23 3.96 28.95 C 3.51 20.89 7.73 12.94 14.29 8.37 Z" />
<path fill="#acab9c" opacity="1.00" d=" M 17.32 40.68 C 12.04 35.83 11.78 27.59 14.65 21.39 C 15.55 25.35 16.27 29.34 16.91 33.34 C 17.55 31.50 18.18 29.65 18.90 27.84 C 17.33 33.46 22.28 39.04 27.97 38.50 C 31.48 38.53 33.54 35.36 35.41 32.88 C 35.43 33.97 35.48 36.16 35.51 37.25 C 38.72 32.95 41.53 28.37 44.87 24.18 C 44.79 29.98 39.62 33.65 37.63 38.75 C 34.22 46.52 22.57 46.38 17.32 40.68 Z" />
</g>
<g id="#111111ff">
<path fill="#111111" opacity="1.00" d=" M 8.48 15.55 C 13.84 7.10 24.76 2.71 34.49 5.08 C 46.66 7.59 55.57 20.23 53.62 32.56 C 51.95 27.94 51.37 22.63 47.89 18.90 C 45.54 16.09 42.56 13.93 39.44 12.07 C 42.63 15.86 46.99 19.63 46.83 25.06 C 47.10 29.04 43.91 31.87 41.86 34.89 C 39.82 37.56 38.66 40.84 36.32 43.29 C 32.07 47.25 25.52 47.56 20.35 45.33 C 16.55 42.88 13.03 39.65 11.41 35.32 C 9.39 30.66 10.35 25.51 10.46 20.62 C 8.25 26.48 7.31 33.26 9.93 39.15 C 11.74 43.49 15.21 46.99 19.40 49.06 C 21.57 50.14 23.79 51.11 26.00 52.08 C 22.38 51.18 18.71 50.52 15.03 49.88 L 14.90 49.82 C 11.91 47.17 9.14 44.19 7.29 40.62 C 3.07 32.88 3.56 22.87 8.48 15.55 M 14.65 21.39 C 11.78 27.59 12.04 35.83 17.32 40.68 C 22.57 46.38 34.22 46.52 37.63 38.75 C 39.62 33.65 44.79 29.98 44.87 24.18 C 44.44 16.01 35.17 12.04 28.00 12.09 C 21.91 11.64 17.23 16.39 14.65 21.39 Z" />
</g>
<g id="#cdccbeff">
<path fill="#cdccbe" opacity="1.00" d=" M 14.65 21.39 C 17.23 16.39 21.91 11.64 28.00 12.09 C 35.17 12.04 44.44 16.01 44.87 24.18 C 41.53 28.37 38.72 32.95 35.51 37.25 C 35.48 36.16 35.43 33.97 35.41 32.88 C 36.16 28.23 36.17 21.72 30.93 19.73 C 25.59 18.60 20.78 23.20 18.90 27.84 C 18.18 29.65 17.55 31.50 16.91 33.34 C 16.27 29.34 15.55 25.35 14.65 21.39 Z" />
</g>
<g id="#393939ff">
<path fill="#393939" opacity="1.00" d=" M 39.44 12.07 C 42.56 13.93 45.54 16.09 47.89 18.90 C 49.07 22.79 50.47 26.74 50.50 30.86 C 49.97 38.53 45.42 46.27 37.90 48.88 C 32.02 51.71 25.49 50.10 19.40 49.06 C 19.72 47.81 20.03 46.57 20.35 45.33 C 25.52 47.56 32.07 47.25 36.32 43.29 C 38.66 40.84 39.82 37.56 41.86 34.89 C 43.91 31.87 47.10 29.04 46.83 25.06 C 46.99 19.63 42.63 15.86 39.44 12.07 Z" />
</g>
<g id="#1a1a1aff">
<path fill="#1a1a1a" opacity="1.00" d=" M 47.89 18.90 C 51.37 22.63 51.95 27.94 53.62 32.56 C 53.59 32.96 53.54 33.74 53.51 34.14 C 52.80 37.78 51.03 41.09 48.94 44.11 C 52.91 47.84 57.06 51.36 61.14 54.94 C 60.59 56.45 60.37 58.13 59.43 59.46 C 58.00 60.19 56.48 60.70 54.99 61.28 C 51.47 57.08 47.85 52.96 44.12 48.94 C 35.85 55.26 23.65 55.81 15.03 49.88 C 18.71 50.52 22.38 51.18 26.00 52.08 C 23.79 51.11 21.57 50.14 19.40 49.06 C 25.49 50.10 32.02 51.71 37.90 48.88 C 45.42 46.27 49.97 38.53 50.50 30.86 C 50.47 26.74 49.07 22.79 47.89 18.90 M 46.17 48.98 C 49.31 52.05 52.34 55.89 56.84 56.91 C 56.09 52.31 52.00 49.35 48.98 46.17 C 48.04 47.11 47.10 48.05 46.17 48.98 Z" />
</g>
<g id="#d0a92dff">
<path fill="#d0a92d" opacity="1.00" d=" M 18.90 27.84 C 20.78 23.20 25.59 18.60 30.93 19.73 C 36.17 21.72 36.16 28.23 35.41 32.88 C 33.54 35.36 31.48 38.53 27.97 38.50 C 22.28 39.04 17.33 33.46 18.90 27.84 M 22.85 23.48 L 24.27 24.33 L 23.54 24.25 L 23.39 24.89 C 21.01 25.13 21.35 27.41 21.60 29.19 C 23.08 33.09 28.06 31.23 31.23 31.53 C 32.14 29.44 33.84 27.41 33.45 24.99 C 32.90 22.93 31.40 20.47 29.01 20.47 C 26.48 20.05 24.72 22.21 22.85 23.48 Z" />
</g>
<g id="#292929ff">
<path fill="#292929" opacity="1.00" d=" M 9.93 39.15 C 7.31 33.26 8.25 26.48 10.46 20.62 C 10.35 25.51 9.39 30.66 11.41 35.32 C 13.03 39.65 16.55 42.88 20.35 45.33 C 20.03 46.57 19.72 47.81 19.40 49.06 C 15.21 46.99 11.74 43.49 9.93 39.15 Z" />
</g>
<g id="#ffd550ff">
<path fill="#ffd550" opacity="1.00" d=" M 22.85 23.48 C 24.72 22.21 26.48 20.05 29.01 20.47 C 31.40 20.47 32.90 22.93 33.45 24.99 C 33.84 27.41 32.14 29.44 31.23 31.53 C 28.06 31.23 23.08 33.09 21.60 29.19 C 21.35 27.41 21.01 25.13 23.39 24.89 C 23.07 26.48 22.19 28.23 23.47 29.65 C 24.76 29.66 26.06 29.61 27.35 29.52 C 27.40 27.90 27.46 26.29 27.54 24.67 C 26.45 24.57 25.36 24.46 24.27 24.33 L 22.85 23.48 Z" />
</g>
<g id="#ffffffff">
<path fill="#ffffff" opacity="1.00" d=" M 24.27 24.33 C 25.36 24.46 26.45 24.57 27.54 24.67 C 27.46 26.29 27.40 27.90 27.35 29.52 C 26.06 29.61 24.76 29.66 23.47 29.65 C 22.19 28.23 23.07 26.48 23.39 24.89 L 23.54 24.25 L 24.27 24.33 Z" />
</g>
<g id="#4c4c4bff">
<path fill="#4c4c4b" opacity="1.00" d=" M 46.17 48.98 C 47.10 48.05 48.04 47.11 48.98 46.17 C 52.00 49.35 56.09 52.31 56.84 56.91 C 52.34 55.89 49.31 52.05 46.17 48.98 Z" />
</g>
<g id="#090909de">
<path fill="#090909" opacity="0.87" d=" M 61.14 54.94 C 61.85 55.68 62.57 56.40 63.29 57.14 C 62.09 59.53 60.24 61.58 57.95 62.96 C 56.70 62.97 55.85 62.03 54.99 61.28 C 56.48 60.70 58.00 60.19 59.43 59.46 C 60.37 58.13 60.59 56.45 61.14 54.94 Z" />
</g>
</svg>
