<?xml version="1.0" encoding="UTF-8" ?>
<!DOCTYPE svg PUBLIC "-//W3C//DTD SVG 1.1//EN" "http://www.w3.org/Graphics/SVG/1.1/DTD/svg11.dtd">
<svg width="64pt" height="64pt" viewBox="0 0 64 64" version="1.1" xmlns="http://www.w3.org/2000/svg">
<g id="#f2f3f5ff">
<path fill="#f2f3f5" opacity="1.00" d=" M 20.27 3.90 L 20.93 -1.29 C 21.59 1.41 21.66 4.20 21.63 6.97 L 22.41 6.03 C 22.40 9.85 22.64 13.66 22.81 17.47 L 25.25 17.46 C 25.40 14.45 25.64 11.45 25.62 8.44 L 26.50 8.62 C 26.34 4.80 26.58 0.97 26.95 -2.83 C 27.44 1.76 27.62 6.37 27.63 10.99 L 28.37 10.05 C 28.41 13.32 28.45 16.59 28.39 19.87 L 27.08 19.36 C 27.26 19.86 27.62 20.86 27.80 21.36 C 27.18 21.42 25.95 21.55 25.34 21.62 C 25.42 22.08 25.58 23.01 25.66 23.48 C 25.10 23.45 23.97 23.41 23.41 23.38 C 23.42 23.88 23.45 24.87 23.47 25.37 L 22.57 25.36 C 22.65 26.88 22.71 28.40 22.77 29.93 L 23.47 29.05 C 23.36 33.30 23.77 37.55 23.69 41.80 L 24.28 41.16 C 24.34 46.25 24.80 51.34 24.67 56.43 L 26.29 57.01 L 24.71 57.58 C 24.63 59.18 24.51 60.79 24.39 62.39 C 22.38 62.47 20.37 62.50 18.36 62.58 C 18.37 61.71 18.38 59.97 18.38 59.10 C 17.96 59.67 17.12 60.82 16.70 61.39 C 16.61 59.04 16.55 56.68 16.53 54.33 L 18.85 56.80 L 17.49 54.37 C 17.27 49.61 17.61 44.83 17.56 40.06 L 18.47 40.93 C 18.23 35.03 18.73 29.14 18.52 23.25 C 18.01 23.37 16.97 23.60 16.46 23.72 C 16.46 23.14 16.46 21.97 16.46 21.38 C 15.88 21.50 14.74 21.72 14.16 21.83 L 15.39 20.28 L 13.57 20.82 C 13.14 16.03 13.55 11.23 13.55 6.43 C 14.08 6.39 15.14 6.30 15.66 6.25 C 15.60 8.43 15.61 10.62 15.50 12.80 L 16.24 12.11 C 16.38 13.92 16.52 15.72 16.67 17.53 L 18.35 17.59 C 19.61 12.32 19.72 6.86 19.26 1.47 L 20.27 3.90 Z" />
<path fill="#f2f3f5" opacity="1.00" d=" M 45.70 2.36 L 45.22 1.56 C 46.27 1.50 48.35 1.40 49.40 1.34 C 49.28 21.19 49.37 41.04 49.36 60.89 L 48.11 60.38 C 48.31 60.91 48.72 61.97 48.92 62.50 C 46.98 62.51 45.05 62.52 43.12 62.53 L 44.06 60.16 L 42.40 61.94 C 42.46 52.55 42.38 43.16 42.47 33.77 L 41.23 34.96 C 41.40 33.32 41.55 31.66 41.66 30.01 L 40.39 31.02 C 40.44 30.02 40.53 28.02 40.58 27.02 L 39.03 27.88 C 39.50 26.64 40.43 24.15 40.89 22.91 L 38.51 25.95 C 38.50 20.70 38.26 15.44 38.51 10.19 L 40.03 10.63 C 39.72 10.01 39.09 8.78 38.78 8.17 L 40.79 9.27 C 40.63 8.57 40.30 7.16 40.14 6.45 L 41.20 6.61 C 41.94 4.67 43.51 2.65 45.70 2.36 Z" />
</g>
</svg>
