<?xml version="1.0" encoding="UTF-8" ?>
<!DOCTYPE svg PUBLIC "-//W3C//DTD SVG 1.1//EN" "http://www.w3.org/Graphics/SVG/1.1/DTD/svg11.dtd">
<svg width="64pt" height="64pt" viewBox="0 0 64 64" version="1.1" xmlns="http://www.w3.org/2000/svg">
<g id="#46360993">
<path fill="#463609" opacity="0.58" d=" M 41.72 0.00 L 45.02 0.00 L 45.32 0.73 C 44.49 0.83 42.81 1.02 41.97 1.12 C 41.68 3.33 41.71 5.61 42.69 7.65 C 42.39 8.57 41.83 9.25 40.98 9.68 C 40.72 6.43 41.35 3.22 41.72 0.00 Z" />
</g>
<g id="#9e8317f8">
<path fill="#9e8317" opacity="0.97" d=" M 41.97 1.12 C 42.81 1.02 44.49 0.83 45.32 0.73 C 46.42 3.17 42.98 5.14 42.69 7.65 C 41.71 5.61 41.68 3.33 41.97 1.12 Z" />
</g>
<g id="#ae931bff">
<path fill="#ae931b" opacity="1.00" d=" M 32.06 4.88 C 31.62 2.81 33.45 1.61 35.30 2.26 C 35.52 2.94 35.96 4.30 36.19 4.98 C 35.99 6.28 35.69 7.57 35.31 8.84 C 34.67 7.18 33.03 6.31 32.06 4.88 Z" />
<path fill="#ae931b" opacity="1.00" d=" M 41.91 13.40 C 44.22 11.57 46.59 9.80 49.09 8.25 C 51.17 8.04 51.56 11.04 50.15 12.09 C 47.41 12.56 44.59 12.60 41.91 13.40 Z" />
</g>
<g id="#4b3c0aa1">
<path fill="#4b3c0a" opacity="0.63" d=" M 36.19 4.98 C 37.06 6.92 37.35 9.05 38.05 11.06 C 36.83 10.82 35.90 9.88 35.31 8.84 C 35.69 7.57 35.99 6.28 36.19 4.98 Z" />
</g>
<g id="#b8a697f7">
<path fill="#b8a697" opacity="0.97" d=" M 5.41 14.72 C 8.12 10.14 13.99 8.67 19.01 9.20 C 21.30 8.72 23.54 9.10 25.79 9.60 L 25.71 10.31 C 20.33 10.87 14.26 8.96 9.50 12.35 C 7.73 13.33 6.13 16.49 8.63 17.62 C 11.19 17.06 13.81 16.61 16.17 15.39 C 18.14 18.53 21.51 21.17 25.15 21.69 C 27.75 19.34 30.01 16.54 33.46 15.35 C 33.57 15.02 33.79 14.38 33.90 14.06 C 31.64 12.21 28.58 11.93 26.28 10.20 C 29.78 9.42 32.12 12.44 35.37 12.65 C 35.52 13.70 35.72 14.73 35.96 15.76 C 37.93 14.78 40.00 15.94 42.01 15.53 C 44.70 14.95 47.34 15.86 49.93 16.43 L 49.86 17.24 C 44.98 16.41 39.95 16.50 34.97 16.59 C 31.47 17.04 28.47 19.93 29.30 23.64 C 32.63 23.87 35.89 23.19 38.95 21.91 C 40.27 23.75 41.68 25.58 43.82 26.52 C 44.71 27.42 45.58 28.34 46.37 29.34 C 46.63 29.23 47.16 29.02 47.43 28.91 C 46.96 30.56 47.89 32.90 46.03 33.86 C 45.71 32.28 45.72 30.66 45.43 29.07 C 45.21 26.86 42.75 27.56 41.30 27.63 C 41.09 27.10 40.67 26.04 40.46 25.50 C 37.71 22.95 33.92 25.63 30.86 26.22 C 31.61 26.78 32.40 27.31 33.21 27.80 C 32.72 27.92 31.75 28.17 31.27 28.29 C 30.61 28.27 29.28 28.21 28.62 28.18 C 28.62 26.15 28.48 24.09 27.55 22.25 C 27.02 22.27 25.97 22.33 25.45 22.35 C 25.24 22.84 24.82 23.82 24.61 24.31 C 24.46 25.12 24.17 26.73 24.03 27.54 C 22.82 25.57 23.50 22.82 21.76 21.08 C 20.61 20.72 19.58 20.88 18.67 21.57 C 18.54 24.08 18.65 26.60 18.73 29.12 C 18.72 29.65 18.70 30.70 18.69 31.23 C 18.57 30.14 18.50 29.04 18.47 27.94 C 18.46 25.88 18.53 23.81 18.23 21.77 C 15.75 21.54 13.25 21.61 10.76 21.74 L 10.59 21.75 C 9.98 21.79 8.76 21.88 8.16 21.92 C 7.79 21.71 7.06 21.28 6.69 21.07 C 6.77 19.95 6.59 18.91 6.13 17.96 C 5.95 17.15 5.59 15.53 5.41 14.72 M 8.36 19.75 C 8.33 19.92 8.27 20.26 8.24 20.43 C 11.36 22.18 14.94 21.34 18.32 21.40 L 18.60 19.96 C 16.06 16.51 11.60 19.00 8.36 19.75 Z" />
</g>
<g id="#f9f6f4ff">
<path fill="#f9f6f4" opacity="1.00" d=" M 9.50 12.35 C 14.26 8.96 20.33 10.87 25.71 10.31 L 26.28 10.20 C 28.58 11.93 31.64 12.21 33.90 14.06 C 33.79 14.38 33.57 15.02 33.46 15.35 C 30.01 16.54 27.75 19.34 25.15 21.69 C 21.51 21.17 18.14 18.53 16.17 15.39 C 13.81 16.61 11.19 17.06 8.63 17.62 C 6.13 16.49 7.73 13.33 9.50 12.35 Z" />
<path fill="#f9f6f4" opacity="1.00" d=" M 29.30 23.64 C 28.47 19.93 31.47 17.04 34.97 16.59 C 39.95 16.50 44.98 16.41 49.86 17.24 C 51.35 17.02 52.86 17.24 54.29 17.68 C 54.37 17.88 54.53 18.30 54.60 18.51 C 56.01 24.51 48.50 26.84 43.82 26.52 C 41.68 25.58 40.27 23.75 38.95 21.91 C 35.89 23.19 32.63 23.87 29.30 23.64 Z" />
</g>
<g id="#773204ff">
<path fill="#773204" opacity="1.00" d=" M 6.13 17.96 C 6.59 18.91 6.77 19.95 6.69 21.07 C 7.06 21.28 7.79 21.71 8.16 21.92 C 8.12 28.62 9.13 35.63 7.23 42.12 C 6.73 34.08 6.92 25.99 6.13 17.96 Z" />
<path fill="#773204" opacity="1.00" d=" M 25.45 22.35 C 25.97 22.33 27.02 22.27 27.55 22.25 C 28.48 24.09 28.62 26.15 28.62 28.18 C 29.28 28.21 30.61 28.27 31.27 28.29 C 30.60 34.48 31.15 40.78 29.84 46.89 C 31.38 49.66 27.49 52.35 30.16 54.42 C 28.83 54.16 28.41 53.34 28.89 51.96 C 28.97 50.67 28.96 49.38 28.87 48.10 C 28.50 45.21 28.62 42.27 28.54 39.35 C 28.68 36.51 28.42 33.66 27.53 30.95 C 28.26 28.14 26.78 25.93 24.61 24.31 C 24.82 23.82 25.24 22.84 25.45 22.35 Z" />
<path fill="#773204" opacity="1.00" d=" M 51.76 28.63 C 53.56 27.06 54.81 30.10 56.71 29.51 L 57.13 30.34 L 55.69 30.85 C 55.84 38.28 54.21 45.94 56.38 53.18 C 56.14 55.32 57.38 58.39 54.66 59.32 L 53.64 58.48 C 54.49 57.29 55.79 56.27 55.91 54.71 L 54.76 54.25 C 54.81 49.54 53.96 44.89 53.73 40.21 C 53.79 37.05 53.91 33.87 53.50 30.73 C 53.01 30.57 52.04 30.25 51.56 30.09 L 51.76 28.63 Z" />
</g>
<g id="#f2f1f0ff">
<path fill="#f2f1f0" opacity="1.00" d=" M 8.36 19.75 C 11.60 19.00 16.06 16.51 18.60 19.96 L 18.32 21.40 C 14.94 21.34 11.36 22.18 8.24 20.43 C 8.27 20.26 8.33 19.92 8.36 19.75 Z" />
<path fill="#f2f1f0" opacity="1.00" d=" M 30.86 26.22 C 33.92 25.63 37.71 22.95 40.46 25.50 C 40.67 26.04 41.09 27.10 41.30 27.63 C 38.60 27.61 35.90 27.75 33.21 27.80 C 32.40 27.31 31.61 26.78 30.86 26.22 Z" />
</g>
<g id="#e1d4cbff">
<path fill="#e1d4cb" opacity="1.00" d=" M 43.82 26.52 C 48.50 26.84 56.01 24.51 54.60 18.51 C 60.18 17.89 57.82 24.23 58.61 27.48 L 57.62 27.69 C 57.39 28.14 56.93 29.06 56.71 29.51 C 54.81 30.10 53.56 27.06 51.76 28.63 L 51.56 30.09 C 50.93 31.47 52.05 34.01 50.68 34.79 C 50.71 32.78 50.93 30.75 50.43 28.78 C 49.42 28.15 48.42 28.19 47.43 28.91 C 47.16 29.02 46.63 29.23 46.37 29.34 C 45.58 28.34 44.71 27.42 43.82 26.52 Z" />
</g>
<g id="#ae5e17ff">
<path fill="#ae5e17" opacity="1.00" d=" M 18.67 21.57 C 19.58 20.88 20.61 20.72 21.76 21.08 C 23.50 22.82 22.82 25.57 24.03 27.54 C 24.17 26.73 24.46 25.12 24.61 24.31 C 26.78 25.93 28.26 28.14 27.53 30.95 C 26.94 30.18 26.30 29.47 25.61 28.80 C 20.87 29.67 22.47 22.97 18.67 21.57 Z" />
</g>
<g id="#c86a0dff">
<path fill="#c86a0d" opacity="1.00" d=" M 8.16 21.92 C 8.76 21.88 9.98 21.79 10.59 21.75 C 9.41 29.75 8.35 37.81 8.26 45.93 C 12.11 49.99 18.10 49.13 23.15 49.03 C 23.84 49.08 25.22 49.18 25.91 49.23 L 26.62 49.59 C 21.15 49.96 15.52 50.18 10.21 48.57 C 9.00 48.28 7.80 47.99 6.59 47.68 C 6.68 46.44 6.74 45.19 6.79 43.95 C 6.90 43.49 7.12 42.58 7.23 42.12 C 9.13 35.63 8.12 28.62 8.16 21.92 Z" />
<path fill="#c86a0d" opacity="1.00" d=" M 41.30 27.63 C 42.75 27.56 45.21 26.86 45.43 29.07 C 45.72 30.66 45.71 32.28 46.03 33.86 C 47.89 32.90 46.96 30.56 47.43 28.91 C 48.42 28.19 49.42 28.15 50.43 28.78 C 50.93 30.75 50.71 32.78 50.68 34.79 C 52.05 34.01 50.93 31.47 51.56 30.09 C 52.04 30.25 53.01 30.57 53.50 30.73 C 53.91 33.87 53.79 37.05 53.73 40.21 C 53.40 39.25 53.05 38.30 52.67 37.37 C 52.25 37.94 51.40 39.10 50.98 39.67 C 49.23 39.06 49.01 37.15 48.28 35.72 C 46.33 35.60 44.31 35.88 42.42 35.30 C 41.80 33.18 41.53 30.98 41.28 28.79 L 41.30 27.63 Z" />
</g>
<g id="#f4b922ff">
<path fill="#f4b922" opacity="1.00" d=" M 10.59 21.75 L 10.76 21.74 C 10.75 23.48 10.87 25.23 10.98 26.97 C 11.04 30.27 11.41 33.55 11.25 36.85 C 11.09 39.82 10.50 42.85 11.23 45.79 C 13.61 46.59 16.13 46.00 18.48 45.40 C 18.94 42.59 18.88 39.73 18.92 36.89 C 21.29 39.17 24.22 41.50 24.85 44.91 C 23.32 46.37 20.95 46.07 19.03 46.60 C 20.63 46.75 22.23 46.85 23.83 47.07 C 23.66 47.56 23.32 48.54 23.15 49.03 C 18.10 49.13 12.11 49.99 8.26 45.93 C 8.35 37.81 9.41 29.75 10.59 21.75 Z" />
</g>
<g id="#e8c49cff">
<path fill="#e8c49c" opacity="1.00" d=" M 10.76 21.74 C 13.25 21.61 15.75 21.54 18.23 21.77 C 18.53 23.81 18.46 25.88 18.47 27.94 C 16.30 27.21 14.24 28.19 12.16 28.71 C 11.87 28.28 11.28 27.41 10.98 26.97 C 10.87 25.23 10.75 23.48 10.76 21.74 Z" />
<path fill="#e8c49c" opacity="1.00" d=" M 33.21 27.80 C 35.90 27.75 38.60 27.61 41.30 27.63 L 41.28 28.79 C 41.26 31.47 41.30 34.14 41.39 36.82 C 38.88 35.78 36.22 36.12 33.69 36.86 C 33.68 33.83 33.49 30.81 33.21 27.80 Z" />
</g>
<g id="#cd700eff">
<path fill="#cd700e" opacity="1.00" d=" M 18.67 21.57 C 22.47 22.97 20.87 29.67 25.61 28.80 C 26.30 29.47 26.94 30.18 27.53 30.95 C 28.42 33.66 28.68 36.51 28.54 39.35 C 25.27 37.90 26.26 33.89 24.56 31.36 C 22.96 29.98 20.69 29.75 18.73 29.12 C 18.65 26.60 18.54 24.08 18.67 21.57 Z" />
</g>
<g id="#f0c575ff">
<path fill="#f0c575" opacity="1.00" d=" M 10.98 26.97 C 11.28 27.41 11.87 28.28 12.16 28.71 C 14.24 28.19 16.30 27.21 18.47 27.94 C 18.50 29.04 18.57 30.14 18.69 31.23 C 18.73 33.12 18.72 35.01 18.92 36.89 C 17.45 39.02 14.66 39.13 12.32 39.41 C 11.92 38.57 11.56 37.72 11.25 36.85 C 11.41 33.55 11.04 30.27 10.98 26.97 Z" />
</g>
<g id="#d58515ff">
<path fill="#d58515" opacity="1.00" d=" M 31.27 28.29 C 31.75 28.17 32.72 27.92 33.21 27.80 C 33.49 30.81 33.68 33.83 33.69 36.86 C 33.69 38.07 33.69 39.27 33.70 40.47 C 31.68 43.90 29.95 48.04 30.62 52.06 C 34.96 54.45 39.87 56.21 44.94 55.33 C 47.12 54.89 50.66 55.39 51.64 52.94 C 49.75 49.39 48.01 45.78 47.39 41.75 C 45.78 41.14 44.12 40.54 42.38 40.45 C 42.18 41.10 41.79 42.41 41.59 43.06 L 41.55 42.51 C 41.51 40.62 41.46 38.72 41.39 36.82 C 41.30 34.14 41.26 31.47 41.28 28.79 C 41.53 30.98 41.80 33.18 42.42 35.30 C 44.31 35.88 46.33 35.60 48.28 35.72 C 49.01 37.15 49.23 39.06 50.98 39.67 C 51.40 39.10 52.25 37.94 52.67 37.37 C 53.05 38.30 53.40 39.25 53.73 40.21 C 53.96 44.89 54.81 49.54 54.76 54.25 C 53.43 54.64 52.11 55.06 50.80 55.52 C 44.20 57.22 37.32 56.33 30.81 54.70 L 30.16 54.42 C 27.49 52.35 31.38 49.66 29.84 46.89 C 31.15 40.78 30.60 34.48 31.27 28.29 Z" />
</g>
<g id="#e29b1bff">
<path fill="#e29b1b" opacity="1.00" d=" M 18.73 29.12 C 20.69 29.75 22.96 29.98 24.56 31.36 C 26.26 33.89 25.27 37.90 28.54 39.35 C 28.62 42.27 28.50 45.21 28.87 48.10 L 27.37 49.18 L 25.91 49.23 C 25.22 49.18 23.84 49.08 23.15 49.03 C 23.32 48.54 23.66 47.56 23.83 47.07 C 22.23 46.85 20.63 46.75 19.03 46.60 C 20.95 46.07 23.32 46.37 24.85 44.91 C 24.22 41.50 21.29 39.17 18.92 36.89 C 18.72 35.01 18.73 33.12 18.69 31.23 C 18.70 30.70 18.72 29.65 18.73 29.12 Z" />
</g>
<g id="#f0c57cff">
<path fill="#f0c57c" opacity="1.00" d=" M 33.69 36.86 C 36.22 36.12 38.88 35.78 41.39 36.82 C 41.46 38.72 41.51 40.62 41.55 42.51 C 39.35 42.35 37.13 42.41 35.12 43.39 C 34.78 43.00 34.10 42.20 33.76 41.80 L 33.70 40.47 C 33.69 39.27 33.69 38.07 33.69 36.86 Z" />
</g>
<g id="#fccf4eff">
<path fill="#fccf4e" opacity="1.00" d=" M 11.25 36.85 C 11.56 37.72 11.92 38.57 12.32 39.41 C 14.66 39.13 17.45 39.02 18.92 36.89 C 18.88 39.73 18.94 42.59 18.48 45.40 C 16.13 46.00 13.61 46.59 11.23 45.79 C 10.50 42.85 11.09 39.82 11.25 36.85 Z" />
</g>
<g id="#ebab20ff">
<path fill="#ebab20" opacity="1.00" d=" M 42.38 40.45 C 44.12 40.54 45.78 41.14 47.39 41.75 C 48.01 45.78 49.75 49.39 51.64 52.94 C 50.66 55.39 47.12 54.89 44.94 55.33 C 39.87 56.21 34.96 54.45 30.62 52.06 C 29.95 48.04 31.68 43.90 33.70 40.47 L 33.76 41.80 C 33.67 45.29 33.24 48.80 33.72 52.28 C 36.32 52.42 39.16 52.93 41.62 51.80 C 41.74 48.89 41.70 45.97 41.59 43.06 C 41.79 42.41 42.18 41.10 42.38 40.45 Z" />
</g>
<g id="#facd51ff">
<path fill="#facd51" opacity="1.00" d=" M 33.76 41.80 C 34.10 42.20 34.78 43.00 35.12 43.39 C 37.13 42.41 39.35 42.35 41.55 42.51 L 41.59 43.06 C 41.70 45.97 41.74 48.89 41.62 51.80 C 39.16 52.93 36.32 52.42 33.72 52.28 C 33.24 48.80 33.67 45.29 33.76 41.80 Z" />
</g>
<g id="#48341fcc">
<path fill="#48341f" opacity="0.80" d=" M 5.94 51.96 C 5.69 49.26 5.63 46.46 6.79 43.95 C 6.74 45.19 6.68 46.44 6.59 47.68 C 5.72 49.99 8.56 51.15 9.49 52.87 C 8.23 52.94 7.04 52.64 5.94 51.96 Z" />
</g>
<g id="#8f8984f5">
<path fill="#8f8984" opacity="0.96" d=" M 6.59 47.68 C 7.80 47.99 9.00 48.28 10.21 48.57 C 9.51 48.65 8.09 48.81 7.38 48.89 C 8.70 51.35 11.81 51.48 14.27 51.60 C 14.27 51.96 14.28 52.67 14.28 53.03 C 15.86 53.53 17.52 53.72 19.12 54.15 C 17.39 54.18 15.66 54.22 13.93 54.26 C 12.60 53.80 11.22 53.54 9.84 53.31 L 9.49 52.87 C 8.56 51.15 5.72 49.99 6.59 47.68 Z" />
</g>
<g id="#b9b9b8ff">
<path fill="#b9b9b8" opacity="1.00" d=" M 7.38 48.89 C 8.09 48.81 9.51 48.65 10.21 48.57 C 15.52 50.18 21.15 49.96 26.62 49.59 C 27.01 49.89 27.80 50.47 28.19 50.76 C 27.04 50.97 25.90 51.21 24.77 51.46 C 24.68 51.82 24.49 52.55 24.40 52.92 C 22.92 53.52 21.31 53.74 19.76 54.15 L 19.12 54.15 C 17.52 53.72 15.86 53.53 14.28 53.03 C 14.28 52.67 14.27 51.96 14.27 51.60 C 11.81 51.48 8.70 51.35 7.38 48.89 Z" />
</g>
<g id="#9b9794ff">
<path fill="#9b9794" opacity="1.00" d=" M 25.91 49.23 L 27.37 49.18 L 28.87 48.10 C 28.96 49.38 28.97 50.67 28.89 51.96 C 26.63 54.73 22.92 54.07 19.76 54.15 C 21.31 53.74 22.92 53.52 24.40 52.92 C 24.49 52.55 24.68 51.82 24.77 51.46 C 25.90 51.21 27.04 50.97 28.19 50.76 C 27.80 50.47 27.01 49.89 26.62 49.59 L 25.91 49.23 Z" />
</g>
<g id="#47403ab1">
<path fill="#47403a" opacity="0.69" d=" M 19.76 54.15 C 22.92 54.07 26.63 54.73 28.89 51.96 C 28.41 53.34 28.83 54.16 30.16 54.42 L 30.81 54.70 L 29.09 54.43 C 29.32 55.93 30.20 57.00 31.73 57.62 C 32.49 58.60 33.36 59.50 34.42 60.16 C 32.48 60.44 30.90 59.20 29.11 58.76 C 27.85 57.55 28.87 55.46 28.45 53.96 C 23.67 54.74 18.72 55.71 13.93 54.26 C 15.66 54.22 17.39 54.18 19.12 54.15 L 19.76 54.15 Z" />
</g>
<g id="#c5c2c1ff">
<path fill="#c5c2c1" opacity="1.00" d=" M 29.09 54.43 L 30.81 54.70 C 37.32 56.33 44.20 57.22 50.80 55.52 C 51.38 55.57 52.56 55.67 53.15 55.72 C 52.53 57.75 49.72 57.30 48.05 57.98 C 43.95 58.08 39.85 58.07 35.76 58.23 C 34.47 57.76 33.12 57.31 31.73 57.62 C 30.20 57.00 29.32 55.93 29.09 54.43 Z" />
</g>
<g id="#8a8785fe">
<path fill="#8a8785" opacity="1.00" d=" M 50.80 55.52 C 52.11 55.06 53.43 54.64 54.76 54.25 L 55.91 54.71 C 55.79 56.27 54.49 57.29 53.64 58.48 C 52.11 58.86 50.74 59.82 49.15 59.95 C 48.88 59.46 48.32 58.47 48.05 57.98 C 49.72 57.30 52.53 57.75 53.15 55.72 C 52.56 55.67 51.38 55.57 50.80 55.52 Z" />
</g>
<g id="#969595ff">
<path fill="#969595" opacity="1.00" d=" M 31.73 57.62 C 33.12 57.31 34.47 57.76 35.76 58.23 C 35.77 58.73 35.78 59.73 35.78 60.22 C 35.44 60.21 34.76 60.18 34.42 60.16 C 33.36 59.50 32.49 58.60 31.73 57.62 Z" />
</g>
<g id="#b5b5b4ff">
<path fill="#b5b5b4" opacity="1.00" d=" M 35.76 58.23 C 39.85 58.07 43.95 58.08 48.05 57.98 C 48.32 58.47 48.88 59.46 49.15 59.95 C 45.29 60.64 41.40 60.51 37.53 60.50 C 37.09 60.43 36.22 60.29 35.78 60.22 C 35.78 59.73 35.77 58.73 35.76 58.23 Z" />
</g>
<g id="#55514ebf">
<path fill="#55514e" opacity="0.75" d=" M 49.15 59.95 C 50.74 59.82 52.11 58.86 53.64 58.48 L 53.84 59.48 C 48.58 60.68 42.75 62.40 37.53 60.50 C 41.40 60.51 45.29 60.64 49.15 59.95 Z" />
</g>
</svg>
