<?xml version="1.0" encoding="UTF-8" ?>
<!DOCTYPE svg PUBLIC "-//W3C//DTD SVG 1.1//EN" "http://www.w3.org/Graphics/SVG/1.1/DTD/svg11.dtd">
<svg width="64pt" height="64pt" viewBox="0 0 64 64" version="1.1" xmlns="http://www.w3.org/2000/svg">
<g id="#787871c0">
<path fill="#787871" opacity="0.75" d=" M 13.18 6.04 C 15.57 3.71 19.81 4.27 23.01 4.02 C 31.23 4.59 39.77 2.74 47.73 5.40 C 48.35 7.08 46.30 8.64 45.22 9.73 L 44.40 10.35 C 44.52 9.68 44.75 8.33 44.87 7.65 C 43.35 7.21 41.84 6.79 40.32 6.37 L 40.93 6.30 C 42.13 6.37 43.15 6.01 44.00 5.22 C 42.35 4.45 40.39 4.58 39.00 5.80 C 38.75 5.78 38.25 5.74 38.01 5.72 C 31.09 3.99 23.72 4.87 16.64 5.08 C 17.20 5.36 18.33 5.90 18.90 6.17 C 17.92 7.18 16.91 8.16 15.89 9.12 C 19.19 12.97 22.53 16.78 25.77 20.67 C 26.41 21.32 27.05 21.97 27.70 22.60 C 27.92 22.82 28.35 23.24 28.57 23.45 C 28.51 23.81 28.38 24.51 28.32 24.86 C 27.16 23.95 26.04 22.98 24.95 21.98 C 20.97 16.72 16.85 11.52 13.18 6.04 Z" />
</g>
<g id="#19181625">
<path fill="#191816" opacity="0.15" d=" M 16.64 5.08 C 23.72 4.87 31.09 3.99 38.01 5.72 L 37.04 5.81 C 32.54 6.21 28.01 5.82 23.50 6.11 C 21.96 6.12 20.43 6.18 18.90 6.17 C 18.33 5.90 17.20 5.36 16.64 5.08 Z" />
</g>
<g id="#28272443">
<path fill="#282724" opacity="0.26" d=" M 39.00 5.80 C 40.39 4.58 42.35 4.45 44.00 5.22 C 43.15 6.01 42.13 6.37 40.93 6.30 C 40.45 6.17 39.48 5.93 39.00 5.80 Z" />
</g>
<g id="#c8c8b8fb">
<path fill="#c8c8b8" opacity="1.00" d=" M 18.90 6.17 C 20.43 6.18 21.96 6.12 23.50 6.11 C 26.45 6.79 29.45 7.26 32.48 7.39 C 27.91 8.04 22.97 7.49 18.92 10.12 C 19.87 10.72 20.83 11.30 21.77 11.93 C 23.54 14.60 25.71 17.30 25.77 20.67 C 22.53 16.78 19.19 12.97 15.89 9.12 C 16.91 8.16 17.92 7.18 18.90 6.17 Z" />
</g>
<g id="#f5f0befc">
<path fill="#f5f0be" opacity="1.00" d=" M 23.50 6.11 C 28.01 5.82 32.54 6.21 37.04 5.81 L 36.73 6.91 C 35.32 7.10 33.90 7.26 32.48 7.39 C 29.45 7.26 26.45 6.79 23.50 6.11 Z" />
</g>
<g id="#6a8816ff">
<path fill="#6a8816" opacity="1.00" d=" M 37.04 5.81 L 38.01 5.72 C 38.25 5.74 38.75 5.78 39.00 5.80 C 39.48 5.93 40.45 6.17 40.93 6.30 L 40.32 6.37 C 39.01 6.36 37.98 7.22 36.92 7.85 C 36.59 9.74 35.81 11.50 34.82 13.13 C 35.60 15.26 35.76 17.57 34.17 19.38 C 33.44 19.37 31.99 19.35 31.26 19.34 C 30.40 20.74 29.56 22.15 28.57 23.45 C 28.35 23.24 27.92 22.82 27.70 22.60 C 28.63 21.42 29.52 20.21 30.43 19.01 C 29.73 17.44 29.08 15.83 28.68 14.14 C 30.15 14.62 31.62 15.13 33.07 15.67 C 33.45 14.51 33.87 13.36 34.31 12.23 C 35.20 10.49 36.29 8.84 36.73 6.91 L 37.04 5.81 Z" />
</g>
<g id="#f7f7f0ff">
<path fill="#f7f7f0" opacity="1.00" d=" M 32.48 7.39 C 33.90 7.26 35.32 7.10 36.73 6.91 C 36.29 8.84 35.20 10.49 34.31 12.23 C 33.22 11.91 32.12 11.58 31.03 11.26 C 30.32 11.78 29.62 12.32 28.93 12.86 C 26.67 11.84 24.21 11.66 21.77 11.93 C 20.83 11.30 19.87 10.72 18.92 10.12 C 22.97 7.49 27.91 8.04 32.48 7.39 Z" />
<path fill="#f7f7f0" opacity="1.00" d=" M 30.62 28.47 C 30.91 28.87 31.50 29.66 31.79 30.06 C 31.91 30.22 32.15 30.55 32.27 30.72 C 32.18 35.22 32.18 39.72 32.27 44.23 L 31.71 44.70 C 31.25 45.83 30.90 47.00 30.66 48.20 C 29.88 41.70 28.29 34.82 30.62 28.47 Z" />
</g>
<g id="#f8f7e4ff">
<path fill="#f8f7e4" opacity="1.00" d=" M 36.92 7.85 C 37.98 7.22 39.01 6.36 40.32 6.37 C 41.84 6.79 43.35 7.21 44.87 7.65 C 44.75 8.33 44.52 9.68 44.40 10.35 C 41.24 12.52 38.34 15.19 36.73 18.73 C 35.05 21.91 32.86 26.83 28.32 24.86 C 28.38 24.51 28.51 23.81 28.57 23.45 C 29.56 22.15 30.40 20.74 31.26 19.34 C 31.99 19.35 33.44 19.37 34.17 19.38 C 35.76 17.57 35.60 15.26 34.82 13.13 C 35.81 11.50 36.59 9.74 36.92 7.85 Z" />
</g>
<g id="#696b6fff">
<path fill="#696b6f" opacity="1.00" d=" M 36.73 18.73 C 38.34 15.19 41.24 12.52 44.40 10.35 L 45.22 9.73 C 41.31 15.53 37.01 21.06 32.73 26.58 C 32.50 27.45 32.02 29.19 31.79 30.06 C 31.50 29.66 30.91 28.87 30.62 28.47 C 28.29 34.82 29.88 41.70 30.66 48.20 C 30.90 47.00 31.25 45.83 31.71 44.70 C 32.87 46.93 31.75 49.70 32.96 52.00 C 34.32 52.26 35.70 52.48 37.06 52.76 C 35.82 52.43 34.71 52.66 33.75 53.43 C 33.46 53.52 32.86 53.70 32.57 53.78 C 32.36 52.10 32.38 49.87 29.97 50.43 C 29.18 51.35 28.65 52.44 28.39 53.70 C 28.18 53.85 27.77 54.17 27.56 54.32 L 27.24 52.59 C 25.85 52.77 24.47 52.92 23.09 53.05 C 24.23 51.55 26.57 52.41 28.19 52.12 C 28.64 50.45 29.19 48.76 29.03 47.00 C 28.67 40.40 29.04 33.78 28.78 27.17 C 27.92 25.20 25.89 23.96 24.95 21.98 C 26.04 22.98 27.16 23.95 28.32 24.86 C 32.86 26.83 35.05 21.91 36.73 18.73 Z" />
<path fill="#696b6f" opacity="1.00" d=" M 44.02 55.96 L 44.82 54.96 C 45.67 57.71 42.54 58.61 40.56 59.25 C 33.61 61.30 25.91 61.14 19.08 58.70 C 18.77 58.46 18.14 57.98 17.83 57.74 C 18.23 57.83 19.04 58.01 19.44 58.10 C 22.03 58.66 24.63 59.17 27.25 59.49 C 32.14 59.84 37.21 59.73 41.84 57.98 C 42.82 57.62 43.32 56.66 44.02 55.96 Z" />
</g>
<g id="#bbd230ff">
<path fill="#bbd230" opacity="1.00" d=" M 28.93 12.86 C 29.62 12.32 30.32 11.78 31.03 11.26 C 32.12 11.58 33.22 11.91 34.31 12.23 C 33.87 13.36 33.45 14.51 33.07 15.67 C 31.62 15.13 30.15 14.62 28.68 14.14 L 28.93 12.86 Z" />
</g>
<g id="#fef9d0ff">
<path fill="#fef9d0" opacity="1.00" d=" M 21.77 11.93 C 24.21 11.66 26.67 11.84 28.93 12.86 L 28.68 14.14 C 29.08 15.83 29.73 17.44 30.43 19.01 C 29.52 20.21 28.63 21.42 27.70 22.60 C 27.05 21.97 26.41 21.32 25.77 20.67 C 25.71 17.30 23.54 14.60 21.77 11.93 Z" />
</g>
<g id="#b8b8b7ff">
<path fill="#b8b8b7" opacity="1.00" d=" M 28.39 53.70 C 28.65 52.44 29.18 51.35 29.97 50.43 C 32.38 49.87 32.36 52.10 32.57 53.78 C 32.86 53.70 33.46 53.52 33.75 53.43 C 34.08 53.82 34.73 54.60 35.06 54.99 C 32.25 55.21 29.42 55.22 26.61 54.98 L 27.56 54.32 C 27.77 54.17 28.18 53.85 28.39 53.70 Z" />
</g>
<g id="#adadacf8">
<path fill="#adadac" opacity="0.97" d=" M 17.81 54.61 C 19.38 53.64 21.17 52.77 23.09 53.05 C 23.08 53.65 23.06 54.84 23.06 55.44 C 21.85 56.32 20.63 57.19 19.44 58.10 C 19.04 58.01 18.23 57.83 17.83 57.74 C 16.01 57.51 16.13 55.04 17.81 54.61 Z" />
</g>
<g id="#dfdfdeff">
<path fill="#dfdfde" opacity="1.00" d=" M 23.09 53.05 C 24.47 52.92 25.85 52.77 27.24 52.59 L 27.56 54.32 L 26.61 54.98 C 26.35 55.13 25.82 55.44 25.56 55.59 C 26.13 56.88 26.68 58.19 27.25 59.49 C 24.63 59.17 22.03 58.66 19.44 58.10 C 20.63 57.19 21.85 56.32 23.06 55.44 C 23.06 54.84 23.08 53.65 23.09 53.05 Z" />
</g>
<g id="#fcfcfcff">
<path fill="#fcfcfc" opacity="1.00" d=" M 33.75 53.43 C 34.71 52.66 35.82 52.43 37.06 52.76 C 39.33 53.06 41.51 53.85 43.66 54.65 L 44.02 55.96 C 43.32 56.66 42.82 57.62 41.84 57.98 C 37.21 59.73 32.14 59.84 27.25 59.49 C 26.68 58.19 26.13 56.88 25.56 55.59 C 25.82 55.44 26.35 55.13 26.61 54.98 C 29.42 55.22 32.25 55.21 35.06 54.99 C 34.73 54.60 34.08 53.82 33.75 53.43 Z" />
</g>
</svg>
