<?xml version="1.0" encoding="UTF-8" ?>
<!DOCTYPE svg PUBLIC "-//W3C//DTD SVG 1.1//EN" "http://www.w3.org/Graphics/SVG/1.1/DTD/svg11.dtd">
<svg width="64pt" height="64pt" viewBox="0 0 64 64" version="1.1" xmlns="http://www.w3.org/2000/svg">
<g id="#e2ad1afb">
<path fill="#e2ad1a" opacity="1.00" d=" M 57.27 2.23 C 59.33 1.21 61.42 3.18 61.99 5.00 C 61.37 7.15 59.93 8.89 58.01 10.00 C 57.72 10.22 57.15 10.66 56.87 10.88 C 56.11 13.08 55.76 15.48 55.82 18.09 C 52.54 15.16 49.41 12.07 46.39 8.87 C 46.49 8.45 46.71 7.59 46.81 7.16 C 48.36 6.97 51.44 6.59 52.98 6.40 C 54.47 5.06 55.81 3.59 57.27 2.23 Z" />
</g>
<g id="#4a7588e4">
<path fill="#4a7588" opacity="0.89" d=" M 37.38 11.77 C 36.79 9.00 42.86 3.62 43.95 7.04 L 43.90 8.00 C 41.34 6.15 38.41 10.43 39.51 12.90 C 39.35 13.41 39.01 14.44 38.85 14.95 C 38.42 14.95 37.57 14.95 37.14 14.95 C 37.45 13.92 37.75 12.84 37.38 11.77 Z" />
</g>
<g id="#8f6005da">
<path fill="#8f6005" opacity="0.85" d=" M 46.14 6.88 C 47.20 4.94 51.09 5.74 52.98 6.40 C 51.44 6.59 48.36 6.97 46.81 7.16 L 46.14 6.88 Z" />
</g>
<g id="#60b2d1ff">
<path fill="#60b2d1" opacity="1.00" d=" M 39.51 12.90 C 38.41 10.43 41.34 6.15 43.90 8.00 C 47.78 12.35 51.79 16.60 56.19 20.43 C 55.11 21.70 53.90 22.84 52.78 24.07 C 49.18 24.34 53.46 21.40 54.02 19.93 C 51.77 21.29 49.47 21.84 47.07 20.62 C 44.54 18.06 41.94 15.55 39.51 12.90 Z" />
</g>
<g id="#ab7c13ff">
<path fill="#ab7c13" opacity="1.00" d=" M 43.95 7.04 C 44.50 7.00 45.59 6.92 46.14 6.88 L 46.81 7.16 C 46.71 7.59 46.49 8.45 46.39 8.87 C 49.41 12.07 52.54 15.16 55.82 18.09 C 55.76 15.48 56.11 13.08 56.87 10.88 C 56.91 12.67 56.99 16.23 57.03 18.01 C 57.03 18.53 57.03 19.57 57.03 20.09 L 56.19 20.43 C 51.79 16.60 47.78 12.35 43.90 8.00 L 43.95 7.04 Z" />
</g>
<g id="#6b4604a1">
<path fill="#6b4604" opacity="0.63" d=" M 56.87 10.88 C 57.15 10.66 57.72 10.22 58.01 10.00 C 57.49 12.41 59.22 17.08 57.03 18.01 C 56.99 16.23 56.91 12.67 56.87 10.88 Z" />
</g>
<g id="#464c4eb3">
<path fill="#464c4e" opacity="0.70" d=" M 29.73 15.73 C 31.70 13.48 34.80 13.02 37.38 11.77 C 37.75 12.84 37.45 13.92 37.14 14.95 C 36.64 14.98 35.62 15.03 35.12 15.06 C 32.09 14.68 30.12 17.33 28.21 19.22 C 24.18 23.52 19.61 27.35 15.97 32.01 C 11.95 35.64 7.87 39.24 4.26 43.30 C 3.09 49.06 9.13 52.85 12.06 57.06 L 11.87 58.13 L 11.20 57.77 C 6.28 54.96 1.86 48.97 2.17 43.21 C 11.45 34.15 20.57 24.92 29.73 15.73 Z" />
</g>
<g id="#7d939bea">
<path fill="#7d939b" opacity="0.92" d=" M 38.85 14.95 C 39.01 14.44 39.35 13.41 39.51 12.90 C 41.94 15.55 44.54 18.06 47.07 20.62 C 47.36 21.25 47.95 22.53 48.24 23.16 C 44.92 21.84 42.65 19.02 39.95 16.81 C 39.68 16.35 39.13 15.42 38.85 14.95 Z" />
</g>
<g id="#4050565b">
<path fill="#405056" opacity="0.36" d=" M 28.21 19.22 C 30.12 17.33 32.09 14.68 35.12 15.06 L 34.66 15.84 C 34.47 16.10 34.09 16.63 33.90 16.89 C 27.59 20.72 23.03 26.78 17.80 31.88 C 17.34 31.91 16.43 31.98 15.97 32.01 C 19.61 27.35 24.18 23.52 28.21 19.22 Z" />
</g>
<g id="#dbdfdfe2">
<path fill="#dbdfdf" opacity="0.89" d=" M 35.12 15.06 C 35.62 15.03 36.64 14.98 37.14 14.95 C 37.57 14.95 38.42 14.95 38.85 14.95 C 39.13 15.42 39.68 16.35 39.95 16.81 C 39.09 18.96 40.63 20.89 40.98 22.96 C 39.79 26.13 37.02 28.38 34.88 30.92 C 34.11 30.91 32.57 30.91 31.80 30.91 C 34.26 27.57 41.22 24.98 38.29 19.95 C 38.06 19.68 37.61 19.15 37.38 18.88 C 36.47 17.86 35.55 16.87 34.66 15.84 L 35.12 15.06 Z" />
</g>
<g id="#73838789">
<path fill="#738387" opacity="0.54" d=" M 33.90 16.89 C 34.09 16.63 34.47 16.10 34.66 15.84 C 35.55 16.87 36.47 17.86 37.38 18.88 C 35.39 20.24 33.14 21.65 30.62 21.25 C 31.75 19.83 32.89 18.41 33.90 16.89 Z" />
</g>
<g id="#abb5b7bb">
<path fill="#abb5b7" opacity="0.73" d=" M 17.80 31.88 C 23.03 26.78 27.59 20.72 33.90 16.89 C 32.89 18.41 31.75 19.83 30.62 21.25 C 27.19 24.24 23.72 27.29 21.17 31.11 L 20.68 31.84 C 19.96 31.85 18.52 31.87 17.80 31.88 Z" />
</g>
<g id="#a6aaabb1">
<path fill="#a6aaab" opacity="0.69" d=" M 39.95 16.81 C 42.65 19.02 44.92 21.84 48.24 23.16 C 44.62 25.60 40.42 27.35 37.71 30.92 C 37.00 30.92 35.58 30.92 34.88 30.92 C 37.02 28.38 39.79 26.13 40.98 22.96 C 40.63 20.89 39.09 18.96 39.95 16.81 Z" />
</g>
<g id="#808f9494">
<path fill="#808f94" opacity="0.58" d=" M 30.62 21.25 C 33.14 21.65 35.39 20.24 37.38 18.88 C 34.61 24.43 27.06 25.44 23.82 30.90 C 23.16 30.95 21.83 31.05 21.17 31.11 C 23.72 27.29 27.19 24.24 30.62 21.25 Z" />
</g>
<g id="#97a3a6a8">
<path fill="#97a3a6" opacity="0.66" d=" M 37.38 18.88 C 37.61 19.15 38.06 19.68 38.29 19.95 C 37.44 25.35 31.26 28.30 26.82 30.89 C 26.07 30.89 24.57 30.90 23.82 30.90 C 27.06 25.44 34.61 24.43 37.38 18.88 Z" />
</g>
<g id="#b6bec0c5">
<path fill="#b6bec0" opacity="0.77" d=" M 38.29 19.95 C 41.22 24.98 34.26 27.57 31.80 30.91 C 30.14 30.94 28.48 30.92 26.82 30.89 C 31.26 28.30 37.44 25.35 38.29 19.95 Z" />
</g>
<g id="#4186a3ff">
<path fill="#4186a3" opacity="1.00" d=" M 47.07 20.62 C 49.47 21.84 51.77 21.29 54.02 19.93 C 53.46 21.40 49.18 24.34 52.78 24.07 C 52.80 24.53 52.85 25.44 52.87 25.89 C 51.99 25.64 51.12 25.36 50.27 25.05 C 49.60 24.41 48.93 23.78 48.24 23.16 C 47.95 22.53 47.36 21.25 47.07 20.62 Z" />
</g>
<g id="#1b597aed">
<path fill="#1b597a" opacity="0.93" d=" M 56.19 20.43 L 57.03 20.09 L 58.04 19.92 C 58.04 22.72 55.06 24.05 53.59 26.11 L 52.87 25.89 C 52.85 25.44 52.80 24.53 52.78 24.07 C 53.90 22.84 55.11 21.70 56.19 20.43 Z" />
</g>
<g id="#b6bdbfca">
<path fill="#b6bdbf" opacity="0.79" d=" M 48.24 23.16 C 48.93 23.78 49.60 24.41 50.27 25.05 C 49.99 25.55 49.42 26.54 49.14 27.04 C 47.56 28.93 46.27 31.04 45.03 33.17 L 44.14 33.11 C 42.14 32.58 40.13 32.08 38.07 31.83 L 37.71 30.92 C 40.42 27.35 44.62 25.60 48.24 23.16 Z" />
</g>
<g id="#4c5e65db">
<path fill="#4c5e65" opacity="0.86" d=" M 50.27 25.05 C 51.12 25.36 51.99 25.64 52.87 25.89 L 53.59 26.11 C 55.10 27.70 50.96 26.28 50.77 27.78 C 48.22 35.69 40.45 40.14 35.26 46.26 C 33.76 47.37 32.79 49.69 30.83 49.83 L 29.82 49.83 C 34.86 44.53 40.14 39.46 45.22 34.19 C 47.48 32.44 48.90 29.90 49.14 27.04 C 49.42 26.54 49.99 25.55 50.27 25.05 Z" />
</g>
<g id="#76939ca7">
<path fill="#76939c" opacity="0.65" d=" M 45.03 33.17 C 46.27 31.04 47.56 28.93 49.14 27.04 C 48.90 29.90 47.48 32.44 45.22 34.19 L 45.03 33.17 Z" />
</g>
<g id="#e2e2ddfd">
<path fill="#e2e2dd" opacity="1.00" d=" M 21.17 31.11 C 21.83 31.05 23.16 30.95 23.82 30.90 C 24.57 30.90 26.07 30.89 26.82 30.89 C 28.48 30.92 30.14 30.94 31.80 30.91 C 32.57 30.91 34.11 30.91 34.88 30.92 C 35.58 30.92 37.00 30.92 37.71 30.92 L 38.07 31.83 C 32.28 31.97 26.48 31.99 20.68 31.84 L 21.17 31.11 Z" />
</g>
<g id="#f4f6f2fe">
<path fill="#f4f6f2" opacity="1.00" d=" M 15.97 32.01 C 16.43 31.98 17.34 31.91 17.80 31.88 C 18.52 31.87 19.96 31.85 20.68 31.84 C 26.48 31.99 32.28 31.97 38.07 31.83 C 40.13 32.08 42.14 32.58 44.14 33.11 C 35.22 41.89 27.03 51.58 17.32 59.47 C 15.54 58.73 13.79 57.91 12.06 57.06 C 9.13 52.85 3.09 49.06 4.26 43.30 C 7.87 39.24 11.95 35.64 15.97 32.01 Z" />
</g>
<g id="#bfdce1fe">
<path fill="#bfdce1" opacity="1.00" d=" M 44.14 33.11 L 45.03 33.17 L 45.22 34.19 C 40.14 39.46 34.86 44.53 29.82 49.83 C 25.26 52.85 22.71 59.91 16.75 60.12 L 17.32 59.47 C 27.03 51.58 35.22 41.89 44.14 33.11 Z" />
</g>
<g id="#435359c6">
<path fill="#435359" opacity="0.78" d=" M 16.75 60.12 C 22.71 59.91 25.26 52.85 29.82 49.83 L 30.83 49.83 C 30.82 53.36 26.86 55.19 24.85 57.78 C 24.59 58.04 24.07 58.54 23.80 58.80 C 22.76 59.78 21.77 60.82 20.78 61.85 C 19.59 62.10 18.41 62.10 17.23 61.83 C 16.40 61.34 15.58 60.85 14.76 60.36 C 15.26 60.30 16.25 60.18 16.75 60.12 Z" />
</g>
<g id="#747a7cdb">
<path fill="#747a7c" opacity="0.86" d=" M 12.06 57.06 C 13.79 57.91 15.54 58.73 17.32 59.47 L 16.75 60.12 C 16.25 60.18 15.26 60.30 14.76 60.36 C 13.67 59.79 12.74 58.98 11.87 58.13 L 12.06 57.06 Z" />
</g>
<g id="#06060658">
<path fill="#060606" opacity="0.35" d=" M 11.20 57.77 L 11.87 58.13 C 12.74 58.98 13.67 59.79 14.76 60.36 C 15.58 60.85 16.40 61.34 17.23 61.83 C 14.49 62.57 7.49 61.67 11.20 57.77 Z" />
</g>
<g id="#00000029">
<path fill="#000000" opacity="0.16" d=" M 23.80 58.80 C 24.07 58.54 24.59 58.04 24.85 57.78 C 28.15 57.89 31.49 57.74 34.77 58.24 C 37.63 58.95 40.54 59.57 43.31 60.62 C 41.92 60.91 39.15 61.48 37.76 61.76 C 34.16 62.19 30.50 62.02 26.87 61.92 C 27.90 61.21 29.01 60.50 29.13 59.13 C 27.36 58.96 25.58 58.88 23.80 58.80 Z" />
</g>
<g id="#0000000f">
<path fill="#000000" opacity="0.06" d=" M 34.77 58.24 C 41.19 57.74 47.66 57.58 53.93 59.20 C 55.38 64.20 45.63 59.84 44.01 61.95 C 42.45 61.90 39.32 61.81 37.76 61.76 C 39.15 61.48 41.92 60.91 43.31 60.62 C 40.54 59.57 37.63 58.95 34.77 58.24 Z" />
</g>
<g id="#00000063">
<path fill="#000000" opacity="0.39" d=" M 20.78 61.85 C 21.77 60.82 22.76 59.78 23.80 58.80 C 25.58 58.88 27.36 58.96 29.13 59.13 C 29.01 60.50 27.90 61.21 26.87 61.92 C 24.85 62.12 22.80 62.01 20.78 61.85 Z" />
</g>
</svg>
