<?xml version="1.0" encoding="UTF-8" ?>
<!DOCTYPE svg PUBLIC "-//W3C//DTD SVG 1.1//EN" "http://www.w3.org/Graphics/SVG/1.1/DTD/svg11.dtd">
<svg width="64pt" height="64pt" viewBox="0 0 64 64" version="1.1" xmlns="http://www.w3.org/2000/svg">
<g id="#282423f5">
<path fill="#282423" opacity="0.96" d=" M 12.34 6.45 C 23.86 5.50 35.46 6.14 47.01 6.04 C 50.23 6.36 55.89 5.89 56.63 10.31 C 57.84 21.77 60.02 33.16 60.52 44.66 C 59.16 49.41 59.30 55.99 53.71 57.72 C 39.50 58.25 25.26 58.04 11.05 57.92 C 4.81 56.65 4.92 49.58 3.48 44.65 C 3.49 32.68 6.18 20.90 7.11 8.99 C 11.54 10.88 9.69 15.98 9.27 19.78 C 10.95 23.20 14.34 21.82 16.25 19.45 C 18.23 19.77 19.35 22.90 21.77 21.92 C 25.12 19.15 20.23 11.70 26.03 11.00 C 25.82 15.04 24.88 19.02 25.00 23.08 C 27.34 23.74 28.44 20.15 30.64 21.43 C 33.20 22.86 36.25 23.66 38.83 21.77 C 38.59 17.58 38.37 13.37 37.82 9.20 C 34.84 9.25 31.70 9.30 29.13 7.64 C 22.46 8.94 15.60 9.69 8.87 8.19 C 8.83 6.41 11.23 7.05 12.34 6.45 M 39.96 9.02 C 40.00 12.98 41.87 16.69 41.25 20.75 C 42.89 23.90 46.99 20.33 49.70 21.42 C 51.47 22.06 53.23 21.09 54.97 20.81 C 54.75 17.60 53.29 14.58 53.71 11.26 C 50.89 6.56 44.28 9.99 39.96 9.02 M 8.24 25.20 C 7.81 27.87 6.79 30.49 7.15 33.23 C 6.87 37.13 6.82 41.04 7.02 44.96 C 7.51 44.97 8.50 45.00 9.00 45.01 C 10.17 48.61 19.98 43.34 20.96 46.93 L 15.96 47.06 L 16.08 47.94 C 27.03 49.77 38.02 48.70 48.99 47.93 L 48.97 47.03 C 47.48 47.01 44.49 46.97 43.00 46.95 C 44.27 43.41 53.94 48.67 55.00 45.00 C 57.07 45.64 57.47 43.56 57.75 42.03 C 56.59 37.77 56.87 33.29 55.89 28.99 C 56.01 27.72 56.04 26.44 55.96 25.16 C 40.19 23.35 23.98 23.15 8.24 25.20 Z" />
</g>
<g id="#af5332ff">
<path fill="#af5332" opacity="1.00" d=" M 29.13 7.64 C 31.70 9.30 34.84 9.25 37.82 9.20 C 38.37 13.37 38.59 17.58 38.83 21.77 C 36.25 23.66 33.20 22.86 30.64 21.43 C 28.44 20.15 27.34 23.74 25.00 23.08 C 24.88 19.02 25.82 15.04 26.03 11.00 C 20.23 11.70 25.12 19.15 21.77 21.92 C 19.35 22.90 18.23 19.77 16.25 19.45 C 14.34 21.82 10.95 23.20 9.27 19.78 C 9.69 15.98 11.54 10.88 7.11 8.99 C 4.50 7.57 7.58 8.06 8.87 8.19 C 15.60 9.69 22.46 8.94 29.13 7.64 M 33.22 11.17 C 30.34 12.27 34.86 16.52 36.33 14.33 C 38.42 12.50 35.18 9.98 33.22 11.17 M 15.94 12.91 C 16.16 14.81 17.49 16.24 18.31 17.88 C 21.90 16.76 17.47 13.96 15.94 12.91 M 27.03 14.00 C 26.95 15.35 26.96 16.69 27.03 18.04 C 28.77 18.18 30.36 17.46 31.91 16.80 C 32.62 13.83 29.04 13.73 27.03 14.00 M 33.21 17.18 C 32.92 17.42 32.36 17.90 32.08 18.14 C 32.90 22.08 37.32 20.51 37.06 17.01 C 35.76 16.91 34.48 16.97 33.21 17.18 Z" />
<path fill="#af5332" opacity="1.00" d=" M 39.96 9.02 C 44.28 9.99 50.89 6.56 53.71 11.26 C 53.29 14.58 54.75 17.60 54.97 20.81 C 53.23 21.09 51.47 22.06 49.70 21.42 C 46.99 20.33 42.89 23.90 41.25 20.75 C 41.87 16.69 40.00 12.98 39.96 9.02 M 46.28 13.32 C 44.59 13.44 39.88 18.00 43.68 16.63 C 45.03 15.90 50.35 12.30 46.28 13.32 M 48.28 16.12 C 48.55 19.52 43.13 16.40 43.92 19.85 C 46.13 18.63 48.51 19.15 50.74 19.99 C 50.95 18.03 50.41 16.48 48.28 16.12 Z" />
<path fill="#af5332" opacity="1.00" d=" M 8.24 25.20 C 23.98 23.15 40.19 23.35 55.96 25.16 C 56.04 26.44 56.01 27.72 55.89 28.99 C 41.58 29.16 27.27 30.10 12.98 28.95 C 10.11 28.56 7.68 30.45 7.15 33.23 C 6.79 30.49 7.81 27.87 8.24 25.20 Z" />
<path fill="#af5332" opacity="1.00" d=" M 30.23 34.18 C 32.91 32.64 38.06 36.37 34.81 38.81 C 31.85 42.87 24.78 36.74 30.23 34.18 Z" />
<path fill="#af5332" opacity="1.00" d=" M 9.00 45.01 C 24.33 44.96 39.67 45.02 55.00 45.00 C 53.94 48.67 44.27 43.41 43.00 46.95 C 44.49 46.97 47.48 47.01 48.97 47.03 L 48.99 47.93 C 38.02 48.70 27.03 49.77 16.08 47.94 L 15.96 47.06 L 20.96 46.93 C 19.98 43.34 10.17 48.61 9.00 45.01 Z" />
</g>
<g id="#dfdbd5ff">
<path fill="#dfdbd5" opacity="1.00" d=" M 33.22 11.17 C 35.18 9.98 38.42 12.50 36.33 14.33 C 34.86 16.52 30.34 12.27 33.22 11.17 Z" />
<path fill="#dfdbd5" opacity="1.00" d=" M 15.94 12.91 C 17.47 13.96 21.90 16.76 18.31 17.88 C 17.49 16.24 16.16 14.81 15.94 12.91 Z" />
<path fill="#dfdbd5" opacity="1.00" d=" M 46.28 13.32 C 50.35 12.30 45.03 15.90 43.68 16.63 C 39.88 18.00 44.59 13.44 46.28 13.32 Z" />
<path fill="#dfdbd5" opacity="1.00" d=" M 27.03 14.00 C 29.04 13.73 32.62 13.83 31.91 16.80 C 30.36 17.46 28.77 18.18 27.03 18.04 C 26.96 16.69 26.95 15.35 27.03 14.00 Z" />
<path fill="#dfdbd5" opacity="1.00" d=" M 48.28 16.12 C 50.41 16.48 50.95 18.03 50.74 19.99 C 48.51 19.15 46.13 18.63 43.92 19.85 C 43.13 16.40 48.55 19.52 48.28 16.12 Z" />
<path fill="#dfdbd5" opacity="1.00" d=" M 33.21 17.18 C 34.48 16.97 35.76 16.91 37.06 17.01 C 37.32 20.51 32.90 22.08 32.08 18.14 C 32.36 17.90 32.92 17.42 33.21 17.18 Z" />
<path fill="#dfdbd5" opacity="1.00" d=" M 7.15 33.23 C 7.68 30.45 10.11 28.56 12.98 28.95 C 27.27 30.10 41.58 29.16 55.89 28.99 C 56.87 33.29 56.59 37.77 57.75 42.03 C 57.47 43.56 57.07 45.64 55.00 45.00 C 39.67 45.02 24.33 44.96 9.00 45.01 C 8.50 45.00 7.51 44.97 7.02 44.96 C 6.82 41.04 6.87 37.13 7.15 33.23 M 30.23 34.18 C 24.78 36.74 31.85 42.87 34.81 38.81 C 38.06 36.37 32.91 32.64 30.23 34.18 Z" />
</g>
</svg>
