<?xml version="1.0" encoding="UTF-8" ?>
<!DOCTYPE svg PUBLIC "-//W3C//DTD SVG 1.1//EN" "http://www.w3.org/Graphics/SVG/1.1/DTD/svg11.dtd">
<svg width="64pt" height="64pt" viewBox="0 0 64 64" version="1.1" xmlns="http://www.w3.org/2000/svg">
<g id="#72b7e1ea">
<path fill="#72b7e1" opacity="0.92" d=" M 41.52 3.43 C 43.87 2.58 46.26 1.68 48.65 0.75 C 47.32 5.78 38.81 3.07 38.32 8.37 L 38.25 8.64 C 37.46 8.64 35.90 8.65 35.12 8.66 L 34.99 8.23 C 34.48 4.29 39.18 4.90 41.52 3.43 Z" />
</g>
<g id="#4393dbf2">
<path fill="#4393db" opacity="0.95" d=" M 48.65 0.75 L 49.18 0.70 C 50.15 1.59 51.41 4.00 49.17 4.20 C 45.51 5.48 41.81 6.68 38.32 8.37 C 38.81 3.07 47.32 5.78 48.65 0.75 Z" />
</g>
<g id="#71df33ff">
<path fill="#71df33" opacity="1.00" d=" M 12.09 12.36 C 14.04 7.91 18.39 4.84 23.18 4.26 C 25.20 4.84 28.09 5.06 28.94 7.29 C 26.20 7.06 23.09 5.75 20.55 7.42 C 18.72 8.89 17.74 11.10 16.39 12.97 C 14.97 12.69 13.54 12.49 12.09 12.36 Z" />
</g>
<g id="#9ec838ff">
<path fill="#9ec838" opacity="1.00" d=" M 20.55 7.42 C 23.09 5.75 26.20 7.06 28.94 7.29 C 30.77 8.35 32.91 8.48 34.99 8.23 L 35.12 8.66 C 33.87 8.68 32.63 8.70 31.39 8.74 L 31.02 9.41 C 30.77 9.85 30.27 10.74 30.03 11.18 C 28.08 11.37 26.13 11.31 24.19 11.47 C 23.85 11.80 23.17 12.46 22.83 12.80 C 20.68 15.15 18.49 17.49 15.91 19.38 C 15.79 18.77 15.53 17.54 15.41 16.93 C 15.69 15.60 16.02 14.28 16.39 12.97 C 17.74 11.10 18.72 8.89 20.55 7.42 Z" />
</g>
<g id="#f0ebe9ff">
<path fill="#f0ebe9" opacity="1.00" d=" M 31.39 8.74 C 32.63 8.70 33.87 8.68 35.12 8.66 C 35.01 9.38 34.78 10.82 34.67 11.54 C 34.40 13.11 34.24 14.69 34.05 16.27 C 32.43 16.24 30.80 16.19 29.18 16.11 C 30.29 15.23 31.57 14.57 32.61 13.59 C 33.00 12.09 31.60 10.72 31.02 9.41 L 31.39 8.74 Z" />
</g>
<g id="#509ee3ff">
<path fill="#509ee3" opacity="1.00" d=" M 35.12 8.66 C 35.90 8.65 37.46 8.64 38.25 8.64 C 38.20 9.30 38.12 10.64 38.07 11.30 C 36.97 11.63 35.81 11.89 34.67 11.54 C 34.78 10.82 35.01 9.38 35.12 8.66 Z" />
</g>
<g id="#f5f4f4ff">
<path fill="#f5f4f4" opacity="1.00" d=" M 38.25 8.64 C 39.45 8.73 40.65 8.91 41.84 9.19 C 42.44 9.70 43.00 10.25 43.53 10.84 C 43.63 12.86 43.60 14.88 43.85 16.89 C 41.59 17.05 39.34 16.68 37.10 16.45 L 37.16 15.97 C 37.40 14.62 37.68 13.28 37.96 11.94 C 38.83 12.78 42.29 11.85 40.09 10.89 C 39.59 10.99 38.58 11.20 38.07 11.30 C 38.12 10.64 38.20 9.30 38.25 8.64 Z" />
</g>
<g id="#dc882cff">
<path fill="#dc882c" opacity="1.00" d=" M 41.84 9.19 C 42.37 9.39 43.44 9.78 43.97 9.98 C 43.85 15.94 46.05 21.63 46.06 27.57 C 45.84 29.22 45.63 30.88 45.36 32.53 C 45.12 31.04 44.90 29.54 44.69 28.04 C 44.35 25.10 43.62 22.24 43.09 19.33 C 44.10 18.75 44.36 17.94 43.85 16.89 C 43.60 14.88 43.63 12.86 43.53 10.84 C 43.00 10.25 42.44 9.70 41.84 9.19 Z" />
<path fill="#dc882c" opacity="1.00" d=" M 15.09 23.88 C 17.81 22.53 20.53 21.16 23.13 19.58 C 26.48 20.59 30.00 20.17 33.44 20.22 C 32.79 25.28 31.89 30.31 31.26 35.37 C 28.55 35.46 25.98 34.59 23.38 33.97 C 21.56 33.49 19.30 35.14 17.93 33.27 C 17.41 32.32 16.90 31.36 16.43 30.39 C 16.05 30.83 15.69 31.28 15.34 31.74 C 15.22 30.10 15.06 28.45 14.92 26.81 C 14.95 26.17 15.02 24.90 15.06 24.26 L 15.09 23.88 Z" />
</g>
<g id="#a3bf6aff">
<path fill="#a3bf6a" opacity="1.00" d=" M 31.02 9.41 C 31.60 10.72 33.00 12.09 32.61 13.59 C 31.57 14.57 30.29 15.23 29.18 16.11 C 27.43 17.04 25.69 18.01 24.13 19.22 C 23.87 19.18 23.36 19.10 23.10 19.06 C 22.96 16.98 22.85 14.89 22.83 12.80 C 23.17 12.46 23.85 11.80 24.19 11.47 C 26.13 11.31 28.08 11.37 30.03 11.18 C 30.27 10.74 30.77 9.85 31.02 9.41 Z" />
</g>
<g id="#aacceeff">
<path fill="#aaccee" opacity="1.00" d=" M 34.05 16.27 C 34.24 14.69 34.40 13.11 34.67 11.54 C 35.81 11.89 36.97 11.63 38.07 11.30 L 37.96 11.94 C 37.68 13.28 37.40 14.62 37.16 15.97 C 36.39 16.04 34.83 16.19 34.05 16.27 Z" />
</g>
<g id="#e7c8c1ff">
<path fill="#e7c8c1" opacity="1.00" d=" M 38.07 11.30 C 38.58 11.20 39.59 10.99 40.09 10.89 C 42.29 11.85 38.83 12.78 37.96 11.94 L 38.07 11.30 Z" />
</g>
<g id="#2fb115ff">
<path fill="#2fb115" opacity="1.00" d=" M 12.09 12.36 C 13.54 12.49 14.97 12.69 16.39 12.97 C 16.02 14.28 15.69 15.60 15.41 16.93 C 14.81 19.20 14.87 21.56 15.09 23.88 L 15.06 24.26 C 13.39 25.25 11.62 24.66 10.08 23.74 C 9.74 19.86 10.44 15.86 12.09 12.36 Z" />
</g>
<g id="#78a129ff">
<path fill="#78a129" opacity="1.00" d=" M 15.91 19.38 C 18.49 17.49 20.68 15.15 22.83 12.80 C 22.85 14.89 22.96 16.98 23.10 19.06 L 23.13 19.58 C 20.53 21.16 17.81 22.53 15.09 23.88 C 14.87 21.56 14.81 19.20 15.41 16.93 C 15.53 17.54 15.79 18.77 15.91 19.38 Z" />
</g>
<g id="#f8c15aff">
<path fill="#f8c15a" opacity="1.00" d=" M 24.13 19.22 C 25.69 18.01 27.43 17.04 29.18 16.11 C 30.80 16.19 32.43 16.24 34.05 16.27 C 33.93 17.09 33.70 18.72 33.58 19.54 C 30.43 19.38 27.24 19.80 24.13 19.22 Z" />
</g>
<g id="#a7b9b5ff">
<path fill="#a7b9b5" opacity="1.00" d=" M 34.05 16.27 C 34.83 16.19 36.39 16.04 37.16 15.97 L 37.10 16.45 C 36.96 17.24 36.69 18.81 36.55 19.59 C 35.81 19.58 34.33 19.55 33.58 19.54 C 33.70 18.72 33.93 17.09 34.05 16.27 Z" />
</g>
<g id="#f9cb76ff">
<path fill="#f9cb76" opacity="1.00" d=" M 37.10 16.45 C 39.34 16.68 41.59 17.05 43.85 16.89 C 44.36 17.94 44.10 18.75 43.09 19.33 C 42.22 19.50 41.36 19.68 40.49 19.87 C 39.18 19.74 37.87 19.65 36.55 19.59 C 36.69 18.81 36.96 17.24 37.10 16.45 Z" />
</g>
<g id="#ffffffff">
<path fill="#ffffff" opacity="1.00" d=" M 23.10 19.06 C 23.36 19.10 23.87 19.18 24.13 19.22 C 27.24 19.80 30.43 19.38 33.58 19.54 C 34.33 19.55 35.81 19.58 36.55 19.59 C 37.87 19.65 39.18 19.74 40.49 19.87 C 38.88 20.04 37.26 20.06 35.64 20.17 C 35.09 20.18 33.99 20.21 33.44 20.22 C 30.00 20.17 26.48 20.59 23.13 19.58 L 23.10 19.06 Z" />
<path fill="#ffffff" opacity="1.00" d=" M 35.61 53.84 C 36.23 53.68 37.46 53.36 38.08 53.21 C 40.45 53.26 42.78 54.17 44.55 55.74 C 45.09 57.34 43.47 58.35 42.13 58.52 C 34.55 60.68 26.42 60.56 18.90 58.24 C 18.15 57.04 17.14 56.33 15.84 56.10 C 16.02 55.93 16.38 55.59 16.57 55.42 L 16.92 55.70 C 17.34 56.06 18.18 56.76 18.60 57.11 C 20.60 57.22 22.46 56.35 23.93 55.06 C 25.72 54.07 27.24 55.58 29.04 55.43 C 31.89 55.72 34.67 55.11 37.35 54.17 C 36.91 54.09 36.05 53.92 35.61 53.84 Z" />
</g>
<g id="#dfa43fff">
<path fill="#dfa43f" opacity="1.00" d=" M 40.49 19.87 C 41.36 19.68 42.22 19.50 43.09 19.33 C 43.62 22.24 44.35 25.10 44.69 28.04 C 43.20 30.60 40.11 31.84 37.30 30.71 C 36.13 26.88 36.46 21.85 40.49 19.87 Z" />
</g>
<g id="#d7893cff">
<path fill="#d7893c" opacity="1.00" d=" M 35.64 20.17 C 37.26 20.06 38.88 20.04 40.49 19.87 C 36.46 21.85 36.13 26.88 37.30 30.71 C 40.11 31.84 43.20 30.60 44.69 28.04 C 44.90 29.54 45.12 31.04 45.36 32.53 L 45.24 33.29 C 41.68 34.81 37.83 34.28 34.11 34.78 C 35.09 29.97 36.05 25.11 35.64 20.17 Z" />
</g>
<g id="#bc8a53ff">
<path fill="#bc8a53" opacity="1.00" d=" M 33.44 20.22 C 33.99 20.21 35.09 20.18 35.64 20.17 C 36.05 25.11 35.09 29.97 34.11 34.78 C 33.98 35.45 33.74 36.79 33.61 37.47 C 32.72 37.92 31.82 38.37 30.93 38.84 C 31.06 37.68 31.17 36.53 31.26 35.37 C 31.89 30.31 32.79 25.28 33.44 20.22 Z" />
</g>
<g id="#c85921ff">
<path fill="#c85921" opacity="1.00" d=" M 14.48 35.53 C 14.18 32.63 14.11 29.64 14.92 26.81 C 15.06 28.45 15.22 30.10 15.34 31.74 C 15.69 31.28 16.05 30.83 16.43 30.39 C 16.90 31.36 17.41 32.32 17.93 33.27 C 19.30 35.14 21.56 33.49 23.38 33.97 C 25.98 34.59 28.55 35.46 31.26 35.37 C 31.17 36.53 31.06 37.68 30.93 38.84 C 30.82 39.11 30.58 39.66 30.47 39.94 C 27.17 38.34 23.52 38.58 19.98 38.58 C 17.87 38.68 17.30 36.14 15.92 35.00 C 15.63 35.11 15.05 35.32 14.77 35.43 L 14.48 35.53 Z" />
<path fill="#c85921" opacity="1.00" d=" M 15.84 56.10 C 17.14 56.33 18.15 57.04 18.90 58.24 C 26.42 60.56 34.55 60.68 42.13 58.52 L 41.27 59.43 C 33.90 61.24 25.96 61.37 18.70 59.05 C 17.55 58.32 15.79 57.83 15.84 56.10 Z" />
</g>
<g id="#b72e18ff">
<path fill="#b72e18" opacity="1.00" d=" M 46.06 27.57 L 46.16 26.99 C 47.34 32.03 46.96 38.19 42.84 41.82 C 40.24 44.46 36.64 46.15 32.96 46.02 C 33.74 48.38 31.43 50.10 32.77 52.34 C 32.47 51.72 31.87 50.47 31.58 49.85 C 31.83 49.05 32.34 47.45 32.59 46.65 C 31.54 46.62 29.44 46.58 28.39 46.56 C 28.69 47.38 29.27 49.02 29.57 49.84 C 29.19 50.45 28.45 51.69 28.07 52.30 C 29.61 50.00 26.46 48.29 27.84 46.00 C 24.23 46.16 20.51 44.43 18.07 41.71 C 22.06 41.91 26.00 42.59 29.97 42.96 C 30.89 43.17 31.81 43.38 32.72 43.60 C 33.31 41.97 33.72 40.28 34.11 38.58 C 36.91 38.53 39.73 38.78 42.52 38.37 C 43.94 37.04 44.81 35.17 45.24 33.29 L 45.36 32.53 C 45.63 30.88 45.84 29.22 46.06 27.57 Z" />
</g>
<g id="#c8602aff">
<path fill="#c8602a" opacity="1.00" d=" M 34.11 34.78 C 37.83 34.28 41.68 34.81 45.24 33.29 C 44.81 35.17 43.94 37.04 42.52 38.37 C 39.73 38.78 36.91 38.53 34.11 38.58 L 33.61 37.47 C 33.74 36.79 33.98 35.45 34.11 34.78 Z" />
</g>
<g id="#b73613ff">
<path fill="#b73613" opacity="1.00" d=" M 14.77 35.43 C 15.05 35.32 15.63 35.11 15.92 35.00 C 17.30 36.14 17.87 38.68 19.98 38.58 C 23.52 38.58 27.17 38.34 30.47 39.94 C 30.34 40.69 30.10 42.21 29.97 42.96 C 26.00 42.59 22.06 41.91 18.07 41.71 L 18.07 41.71 C 16.29 40.07 14.81 37.93 14.77 35.43 Z" />
<path fill="#b73613" opacity="1.00" d=" M 23.93 55.06 C 25.21 53.70 27.17 53.06 28.97 53.71 C 31.20 54.25 33.41 52.94 35.61 53.84 C 36.05 53.92 36.91 54.09 37.35 54.17 C 34.67 55.11 31.89 55.72 29.04 55.43 C 27.24 55.58 25.72 54.07 23.93 55.06 Z" />
</g>
<g id="#a3483bff">
<path fill="#a3483b" opacity="1.00" d=" M 30.93 38.84 C 31.82 38.37 32.72 37.92 33.61 37.47 L 34.11 38.58 C 33.72 40.28 33.31 41.97 32.72 43.60 C 31.81 43.38 30.89 43.17 29.97 42.96 C 30.10 42.21 30.34 40.69 30.47 39.94 C 30.58 39.66 30.82 39.11 30.93 38.84 Z" />
</g>
<g id="#eee5e1ff">
<path fill="#eee5e1" opacity="1.00" d=" M 28.39 46.56 C 29.44 46.58 31.54 46.62 32.59 46.65 C 32.34 47.45 31.83 49.05 31.58 49.85 C 31.87 50.47 32.47 51.72 32.77 52.34 C 34.49 52.64 36.60 52.21 38.08 53.21 C 37.46 53.36 36.23 53.68 35.61 53.84 C 33.41 52.94 31.20 54.25 28.97 53.71 C 27.17 53.06 25.21 53.70 23.93 55.06 C 22.46 56.35 20.60 57.22 18.60 57.11 C 18.18 56.76 17.34 56.06 16.92 55.70 C 19.39 52.75 24.35 52.88 28.07 52.30 C 28.45 51.69 29.19 50.45 29.57 49.84 C 29.27 49.02 28.69 47.38 28.39 46.56 Z" />
</g>
</svg>
