<?xml version="1.0" encoding="UTF-8" ?>
<!DOCTYPE svg PUBLIC "-//W3C//DTD SVG 1.1//EN" "http://www.w3.org/Graphics/SVG/1.1/DTD/svg11.dtd">
<svg width="64pt" height="64pt" viewBox="0 0 64 64" version="1.1" xmlns="http://www.w3.org/2000/svg">
<g id="#060606ff">
<path fill="#060606" opacity="1.00" d=" M 11.66 10.50 C 13.82 7.60 13.48 3.70 15.71 0.84 C 17.42 1.22 19.74 0.46 20.93 2.11 C 22.19 3.63 22.13 5.73 22.51 7.57 C 24.75 9.99 26.67 13.49 24.62 16.64 C 24.16 14.90 23.70 13.16 23.19 11.43 C 19.70 11.41 16.21 11.28 12.73 11.58 L 12.61 12.16 C 12.18 14.05 11.77 15.95 11.51 17.88 C 10.91 15.46 9.95 12.71 11.66 10.50 M 13.54 10.21 C 16.48 10.60 19.45 10.64 22.40 10.31 C 21.70 5.70 14.48 5.77 13.54 10.21 Z" />
</g>
<g id="#090909ff">
<path fill="#090909" opacity="1.00" d=" M 41.42 6.87 C 42.58 5.34 43.95 3.44 46.14 3.64 C 48.26 3.43 49.64 5.21 50.69 6.77 C 47.61 7.21 44.51 7.20 41.42 6.87 Z" />
</g>
<g id="#393939ff">
<path fill="#393939" opacity="1.00" d=" M 13.54 10.21 C 14.48 5.77 21.70 5.70 22.40 10.31 C 19.45 10.64 16.48 10.60 13.54 10.21 Z" />
</g>
<g id="#303030ff">
<path fill="#303030" opacity="1.00" d=" M 36.39 8.59 C 38.00 7.88 39.57 6.71 41.42 6.87 C 44.51 7.20 47.61 7.21 50.69 6.77 C 53.13 6.54 55.02 8.23 56.71 9.72 C 54.85 12.06 53.30 14.66 52.75 17.63 L 52.48 17.83 C 52.22 16.27 52.03 14.70 51.83 13.13 C 51.40 12.93 50.55 12.55 50.13 12.35 C 48.80 11.69 47.46 11.05 46.11 10.42 C 44.48 11.26 42.83 12.07 41.20 12.92 L 40.13 13.47 C 39.48 13.28 38.19 12.90 37.55 12.71 C 37.17 11.33 36.78 9.96 36.39 8.59 Z" />
</g>
<g id="#1b1b1bff">
<path fill="#1b1b1b" opacity="1.00" d=" M 35.87 15.14 C 34.31 13.15 35.75 10.65 36.39 8.59 C 36.78 9.96 37.17 11.33 37.55 12.71 C 38.19 12.90 39.48 13.28 40.13 13.47 C 39.68 16.71 41.05 19.77 43.60 21.76 L 44.53 22.54 C 41.41 20.39 38.39 17.99 35.87 15.14 Z" />
<path fill="#1b1b1b" opacity="1.00" d=" M 19.07 15.17 C 20.02 14.23 21.13 13.94 22.40 14.29 L 22.49 15.09 L 22.05 15.88 C 20.88 16.40 19.89 16.16 19.07 15.17 Z" />
<path fill="#1b1b1b" opacity="1.00" d=" M 41.18 14.21 C 42.36 14.11 43.52 14.24 44.65 14.58 C 44.84 16.01 43.23 16.65 42.06 16.28 C 41.84 15.76 41.40 14.72 41.18 14.21 Z" />
</g>
<g id="#161617ec">
<path fill="#161617" opacity="0.93" d=" M 56.71 9.72 C 56.87 11.63 57.82 13.85 56.31 15.45 C 55.36 16.49 54.45 18.54 52.75 17.63 C 53.30 14.66 54.85 12.06 56.71 9.72 Z" />
</g>
<g id="#f9dabfff">
<path fill="#f9dabf" opacity="1.00" d=" M 12.73 11.58 C 16.21 11.28 19.70 11.41 23.19 11.43 C 22.99 12.15 22.60 13.58 22.40 14.29 C 21.13 13.94 20.02 14.23 19.07 15.17 C 19.89 16.16 20.88 16.40 22.05 15.88 C 21.83 16.25 21.38 17.00 21.16 17.38 C 19.12 17.85 17.04 18.16 14.98 18.51 C 14.74 17.92 14.27 16.74 14.04 16.15 C 17.52 16.91 15.64 13.05 13.14 13.72 L 12.61 12.16 L 12.73 11.58 Z" />
</g>
<g id="#f4dac0ff">
<path fill="#f4dac0" opacity="1.00" d=" M 41.20 12.92 C 42.83 12.07 44.48 11.26 46.11 10.42 C 47.46 11.05 48.80 11.69 50.13 12.35 L 50.06 12.86 C 49.46 13.63 48.87 14.40 48.28 15.17 L 48.39 15.91 C 48.84 15.90 49.75 15.88 50.20 15.87 C 48.04 18.04 43.93 19.56 42.06 16.28 C 43.23 16.65 44.84 16.01 44.65 14.58 C 43.52 14.24 42.36 14.11 41.18 14.21 L 41.20 12.92 Z" />
</g>
<g id="#be8761ff">
<path fill="#be8761" opacity="1.00" d=" M 22.40 14.29 C 22.60 13.58 22.99 12.15 23.19 11.43 C 23.70 13.16 24.16 14.90 24.62 16.64 L 24.75 17.12 L 24.14 17.62 C 22.17 19.01 20.43 21.02 18.02 21.60 C 16.25 21.29 14.56 20.68 12.89 20.03 C 12.54 19.50 11.85 18.42 11.51 17.88 C 11.77 15.95 12.18 14.05 12.61 12.16 L 13.14 13.72 C 13.37 14.33 13.81 15.55 14.04 16.15 C 14.27 16.74 14.74 17.92 14.98 18.51 C 17.04 18.16 19.12 17.85 21.16 17.38 C 21.38 17.00 21.83 16.25 22.05 15.88 L 22.49 15.09 L 22.40 14.29 M 17.22 18.99 C 17.50 22.31 20.15 17.34 17.22 18.99 Z" />
</g>
<g id="#9e6f50f7">
<path fill="#9e6f50" opacity="0.97" d=" M 50.13 12.35 C 50.55 12.55 51.40 12.93 51.83 13.13 C 52.03 14.70 52.22 16.27 52.48 17.83 C 51.69 20.11 49.56 21.58 47.47 22.54 C 46.49 22.54 45.51 22.54 44.53 22.54 L 43.60 21.76 C 43.96 21.29 44.69 20.35 45.05 19.89 C 45.57 19.71 46.60 19.37 47.11 19.19 C 47.62 19.41 48.65 19.85 49.16 20.07 C 49.74 19.13 50.34 18.19 50.89 17.23 C 50.72 16.89 50.37 16.21 50.20 15.87 C 49.90 15.61 49.29 15.09 48.99 14.83 L 48.28 15.17 C 48.87 14.40 49.46 13.63 50.06 12.86 L 50.13 12.35 Z" />
</g>
<g id="#d19b74ff">
<path fill="#d19b74" opacity="1.00" d=" M 40.13 13.47 L 41.20 12.92 L 41.18 14.21 C 41.40 14.72 41.84 15.76 42.06 16.28 C 43.93 19.56 48.04 18.04 50.20 15.87 C 50.37 16.21 50.72 16.89 50.89 17.23 C 50.34 18.19 49.74 19.13 49.16 20.07 C 48.65 19.85 47.62 19.41 47.11 19.19 C 46.69 19.17 45.83 19.12 45.40 19.10 L 45.05 19.89 C 44.69 20.35 43.96 21.29 43.60 21.76 C 41.05 19.77 39.68 16.71 40.13 13.47 Z" />
</g>
<g id="#6c5b4aff">
<path fill="#6c5b4a" opacity="1.00" d=" M 13.14 13.72 C 15.64 13.05 17.52 16.91 14.04 16.15 C 13.81 15.55 13.37 14.33 13.14 13.72 Z" />
</g>
<g id="#43382dff">
<path fill="#43382d" opacity="1.00" d=" M 48.28 15.17 L 48.99 14.83 C 49.29 15.09 49.90 15.61 50.20 15.87 C 49.75 15.88 48.84 15.90 48.39 15.91 L 48.28 15.17 Z" />
</g>
<g id="#805637e1">
<path fill="#805637" opacity="0.88" d=" M 18.02 21.60 C 20.43 21.02 22.17 19.01 24.14 17.62 C 23.36 20.02 21.49 21.81 19.21 22.82 C 18.18 22.74 17.16 22.67 16.14 22.61 C 15.00 21.81 13.92 20.96 12.89 20.03 C 14.56 20.68 16.25 21.29 18.02 21.60 Z" />
</g>
<g id="#791a20ff">
<path fill="#791a20" opacity="1.00" d=" M 17.22 18.99 C 20.15 17.34 17.50 22.31 17.22 18.99 Z" />
</g>
<g id="#a81025ff">
<path fill="#a81025" opacity="1.00" d=" M 45.40 19.10 C 45.83 19.12 46.69 19.17 47.11 19.19 C 46.60 19.37 45.57 19.71 45.05 19.89 L 45.40 19.10 Z" />
</g>
<g id="#191638ff">
<path fill="#191638" opacity="1.00" d=" M 7.51 22.76 C 9.13 22.11 10.47 23.53 11.79 24.19 C 11.20 27.15 11.11 30.22 12.04 33.13 C 12.10 33.44 12.24 34.06 12.31 34.37 C 10.88 35.39 9.42 36.36 7.97 37.34 C 9.62 38.02 11.26 38.70 12.91 39.38 C 13.96 39.81 15.02 40.24 16.07 40.67 C 16.58 39.85 17.09 39.04 17.60 38.23 C 17.89 38.83 18.47 40.04 18.76 40.65 C 19.69 40.50 21.55 40.21 22.48 40.06 C 18.93 42.31 14.76 40.60 10.91 40.57 C 9.69 41.35 8.65 42.39 7.62 43.40 C 4.07 46.47 4.94 51.25 5.16 55.40 C 3.23 53.18 3.54 50.16 3.47 47.44 C 2.86 47.81 1.65 48.56 1.04 48.94 C 1.05 47.14 1.06 45.34 1.09 43.54 C 3.59 42.21 5.68 40.29 7.37 38.03 C 8.76 36.32 10.28 34.72 11.82 33.13 C 11.10 31.82 10.38 30.52 9.66 29.21 C 10.09 27.65 10.51 26.08 10.92 24.51 C 9.79 24.42 7.55 24.25 6.43 24.17 C 4.11 27.19 2.58 30.72 1.93 34.47 C 1.81 33.38 1.73 32.28 1.68 31.19 C 2.68 27.96 4.06 24.05 7.51 22.76 Z" />
</g>
<g id="#1d3566ff">
<path fill="#1d3566" opacity="1.00" d=" M 16.14 22.61 C 17.16 22.67 18.18 22.74 19.21 22.82 C 20.53 22.99 21.84 23.25 23.16 23.46 C 22.81 24.01 22.12 25.12 21.77 25.67 C 18.97 24.62 15.96 24.73 13.25 26.04 C 12.78 25.28 12.31 24.52 11.86 23.76 L 11.77 23.61 C 13.22 23.24 14.67 22.90 16.14 22.61 Z" />
</g>
<g id="#1c65aeff">
<path fill="#1c65ae" opacity="1.00" d=" M 24.14 24.46 C 26.40 20.88 29.78 23.86 31.92 25.70 C 31.89 26.23 31.84 27.30 31.82 27.84 C 30.12 26.79 28.40 25.77 26.67 24.78 C 26.16 27.71 25.35 30.65 25.47 33.65 C 27.19 35.80 30.03 36.26 32.52 36.98 C 32.74 34.69 32.97 32.40 33.04 30.09 C 33.16 30.21 33.40 30.45 33.52 30.57 C 33.99 32.81 34.45 35.06 34.75 37.34 L 34.81 38.09 L 34.88 39.00 C 34.29 39.60 33.71 40.20 33.12 40.81 C 32.05 40.51 30.98 40.20 29.90 39.90 C 29.13 38.92 28.31 37.98 27.42 37.11 C 25.87 36.14 24.28 35.25 22.69 34.37 C 23.24 33.18 23.80 32.00 24.38 30.83 C 24.63 30.30 25.13 29.26 25.39 28.73 C 25.06 27.28 24.66 25.85 24.14 24.46 Z" />
</g>
<g id="#9b1707f4">
<path fill="#9b1707" opacity="0.96" d=" M 35.33 22.84 C 36.63 22.79 39.29 22.18 39.17 24.27 C 39.40 26.16 39.50 28.07 39.75 29.96 C 40.16 31.65 40.64 33.31 41.10 34.99 C 39.45 35.70 37.88 36.56 36.28 37.38 C 35.91 37.56 35.18 37.91 34.81 38.09 L 34.75 37.34 C 35.90 36.04 37.20 34.86 38.20 33.44 C 38.43 29.73 37.40 25.94 35.33 22.84 Z" />
</g>
<g id="#891a10f3">
<path fill="#891a10" opacity="0.95" d=" M 44.53 22.54 C 45.51 22.54 46.49 22.54 47.47 22.54 C 49.46 22.50 51.85 24.61 53.52 23.06 C 53.91 25.20 54.57 27.27 55.42 29.26 C 54.70 30.28 53.97 31.29 53.24 32.30 C 53.28 33.29 53.32 34.27 53.37 35.26 C 52.86 35.22 51.83 35.15 51.32 35.11 C 51.71 33.75 52.11 32.39 52.44 31.01 C 52.38 29.14 54.28 25.76 52.02 24.94 C 51.74 25.06 51.18 25.28 50.90 25.39 C 47.82 25.07 44.74 24.81 41.66 24.67 C 41.73 24.32 41.88 23.63 41.96 23.28 C 42.60 23.10 43.89 22.73 44.53 22.54 Z" />
</g>
<g id="#693155f7">
<path fill="#693155" opacity="0.97" d=" M 39.17 24.27 C 40.10 23.94 41.03 23.61 41.96 23.28 C 41.88 23.63 41.73 24.32 41.66 24.67 C 41.60 25.03 41.48 25.77 41.42 26.13 C 40.85 27.41 40.30 28.68 39.75 29.96 C 39.50 28.07 39.40 26.16 39.17 24.27 Z" />
</g>
<g id="#ec2204ff">
<path fill="#ec2204" opacity="1.00" d=" M 53.52 23.06 C 58.73 21.25 61.27 27.70 62.25 31.68 C 62.48 35.20 62.59 38.73 62.51 42.25 C 62.22 42.51 61.66 43.02 61.37 43.27 C 59.65 41.11 57.88 38.96 55.75 37.19 C 55.16 36.71 53.96 35.74 53.37 35.26 C 53.32 34.27 53.28 33.29 53.24 32.30 C 53.97 31.29 54.70 30.28 55.42 29.26 C 54.57 27.27 53.91 25.20 53.52 23.06 Z" />
</g>
<g id="#ffd670ff">
<path fill="#ffd670" opacity="1.00" d=" M 11.79 24.19 L 11.86 23.76 C 12.31 24.52 12.78 25.28 13.25 26.04 C 15.31 29.82 20.08 29.20 22.73 26.45 C 22.92 26.64 23.30 27.02 23.49 27.21 C 23.71 28.12 24.16 29.92 24.38 30.83 C 23.80 32.00 23.24 33.18 22.69 34.37 C 21.05 35.27 19.41 36.17 17.72 36.97 L 16.95 36.76 C 15.02 36.00 13.27 34.82 12.04 33.13 C 11.11 30.22 11.20 27.15 11.79 24.19 Z" />
</g>
<g id="#857251fb">
<path fill="#857251" opacity="1.00" d=" M 21.77 25.67 C 22.12 25.12 22.81 24.01 23.16 23.46 C 23.40 23.71 23.90 24.21 24.14 24.46 C 24.66 25.85 25.06 27.28 25.39 28.73 C 25.13 29.26 24.63 30.30 24.38 30.83 C 24.16 29.92 23.71 28.12 23.49 27.21 C 23.30 27.02 22.92 26.64 22.73 26.45 L 21.77 25.67 Z" />
</g>
<g id="#f52504ff">
<path fill="#f52504" opacity="1.00" d=" M 32.74 25.07 C 33.39 24.51 34.68 23.40 35.33 22.84 C 37.40 25.94 38.43 29.73 38.20 33.44 C 37.20 34.86 35.90 36.04 34.75 37.34 C 34.45 35.06 33.99 32.81 33.52 30.57 C 33.40 30.45 33.16 30.21 33.04 30.09 C 32.63 28.45 32.74 26.75 32.74 25.07 Z" />
</g>
<g id="#5483c0ff">
<path fill="#5483c0" opacity="1.00" d=" M 6.43 24.17 C 7.55 24.25 9.79 24.42 10.92 24.51 C 10.51 26.08 10.09 27.65 9.66 29.21 C 10.38 30.52 11.10 31.82 11.82 33.13 C 10.28 34.72 8.76 36.32 7.37 38.03 C 5.41 37.09 3.45 36.07 1.93 34.47 C 2.58 30.72 4.11 27.19 6.43 24.17 Z" />
</g>
<g id="#35599eff">
<path fill="#35599e" opacity="1.00" d=" M 13.25 26.04 C 15.96 24.73 18.97 24.62 21.77 25.67 L 22.73 26.45 C 20.08 29.20 15.31 29.82 13.25 26.04 Z" />
</g>
<g id="#5886c1ff">
<path fill="#5886c1" opacity="1.00" d=" M 26.67 24.78 C 28.40 25.77 30.12 26.79 31.82 27.84 C 32.12 28.40 32.74 29.53 33.04 30.09 C 32.97 32.40 32.74 34.69 32.52 36.98 C 30.03 36.26 27.19 35.80 25.47 33.65 C 25.35 30.65 26.16 27.71 26.67 24.78 Z" />
</g>
<g id="#be1b03ff">
<path fill="#be1b03" opacity="1.00" d=" M 41.66 24.67 C 44.74 24.81 47.82 25.07 50.90 25.39 L 50.28 26.11 C 48.57 30.02 43.47 29.30 41.42 26.13 C 41.48 25.77 41.60 25.03 41.66 24.67 Z" />
</g>
<g id="#794981ff">
<path fill="#794981" opacity="1.00" d=" M 50.90 25.39 C 51.18 25.28 51.74 25.06 52.02 24.94 C 54.28 25.76 52.38 29.14 52.44 31.01 C 52.34 29.14 51.32 27.59 50.28 26.11 L 50.90 25.39 Z" />
</g>
<g id="#9e72caff">
<path fill="#9e72ca" opacity="1.00" d=" M 39.75 29.96 C 40.30 28.68 40.85 27.41 41.42 26.13 C 43.47 29.30 48.57 30.02 50.28 26.11 C 51.32 27.59 52.34 29.14 52.44 31.01 C 52.11 32.39 51.71 33.75 51.32 35.11 C 50.05 35.86 48.77 36.62 47.48 37.34 C 46.39 37.33 45.30 37.27 44.22 37.16 C 43.19 36.42 42.16 35.68 41.10 34.99 C 40.64 33.31 40.16 31.65 39.75 29.96 Z" />
</g>
<g id="#044d97ff">
<path fill="#044d97" opacity="1.00" d=" M 1.09 43.54 C 1.03 39.42 0.95 35.27 1.68 31.19 C 1.73 32.28 1.81 33.38 1.93 34.47 C 3.45 36.07 5.41 37.09 7.37 38.03 C 5.68 40.29 3.59 42.21 1.09 43.54 Z" />
</g>
<g id="#360c0aff">
<path fill="#360c0a" opacity="1.00" d=" M 62.25 31.68 C 63.60 37.31 62.84 43.16 62.94 48.89 C 62.29 48.47 60.99 47.65 60.34 47.24 C 60.69 50.78 60.07 54.38 57.87 57.26 L 56.83 57.25 C 49.39 56.99 41.96 57.12 34.52 57.26 C 33.80 55.82 33.10 54.38 32.48 52.90 L 32.48 52.90 C 34.41 54.45 36.21 56.84 38.98 56.58 C 44.60 56.53 50.31 57.08 55.87 56.16 C 58.75 54.16 60.38 50.07 59.37 46.65 C 59.02 46.25 58.31 45.45 57.96 45.05 C 59.11 44.47 60.25 43.89 61.37 43.27 C 61.66 43.02 62.22 42.51 62.51 42.25 C 62.59 38.73 62.48 35.20 62.25 31.68 Z" />
</g>
<g id="#cdac8cff">
<path fill="#cdac8c" opacity="1.00" d=" M 12.04 33.13 C 13.27 34.82 15.02 36.00 16.95 36.76 L 16.04 36.56 C 15.74 37.31 15.44 38.05 15.14 38.80 C 14.58 38.94 13.47 39.23 12.91 39.38 C 11.26 38.70 9.62 38.02 7.97 37.34 C 9.42 36.36 10.88 35.39 12.31 34.37 C 12.24 34.06 12.10 33.44 12.04 33.13 Z" />
</g>
<g id="#ccab8dff">
<path fill="#ccab8d" opacity="1.00" d=" M 17.72 36.97 C 19.41 36.17 21.05 35.27 22.69 34.37 C 24.28 35.25 25.87 36.14 27.42 37.11 C 26.97 37.32 26.08 37.76 25.64 37.98 C 23.79 38.33 21.94 38.64 20.08 38.95 C 19.30 38.27 18.51 37.61 17.72 36.97 Z" />
</g>
<g id="#cfae8fff">
<path fill="#cfae8f" opacity="1.00" d=" M 36.28 37.38 C 37.88 36.56 39.45 35.70 41.10 34.99 C 42.16 35.68 43.19 36.42 44.22 37.16 C 44.39 37.85 44.73 39.21 44.90 39.89 C 42.00 39.16 39.14 38.26 36.28 37.38 Z" />
</g>
<g id="#ccaa8aff">
<path fill="#ccaa8a" opacity="1.00" d=" M 51.32 35.11 C 51.83 35.15 52.86 35.22 53.37 35.26 C 53.96 35.74 55.16 36.71 55.75 37.19 C 52.92 38.23 50.01 39.07 47.09 39.81 C 47.18 39.19 47.38 37.96 47.48 37.34 C 48.77 36.62 50.05 35.86 51.32 35.11 Z" />
</g>
<g id="#857222ff">
<path fill="#857222" opacity="1.00" d=" M 15.14 38.80 C 15.44 38.05 15.74 37.31 16.04 36.56 L 16.95 36.76 L 17.72 36.97 C 18.51 37.61 19.30 38.27 20.08 38.95 C 21.94 38.64 23.79 38.33 25.64 37.98 C 25.10 38.37 24.01 39.16 23.47 39.56 C 23.22 39.68 22.73 39.93 22.48 40.06 C 21.55 40.21 19.69 40.50 18.76 40.65 C 18.47 40.04 17.89 38.83 17.60 38.23 C 17.09 39.04 16.58 39.85 16.07 40.67 C 15.02 40.24 13.96 39.81 12.91 39.38 C 13.47 39.23 14.58 38.94 15.14 38.80 Z" />
<path fill="#857222" opacity="1.00" d=" M 6.53 57.22 C 14.04 57.18 21.56 57.11 29.07 57.24 C 30.89 57.25 32.71 57.26 34.52 57.26 C 41.96 57.12 49.39 56.99 56.83 57.25 C 58.17 57.44 59.51 57.68 60.86 57.92 C 60.77 58.55 60.59 59.83 60.50 60.46 C 49.68 60.91 38.84 60.53 28.01 60.63 C 19.99 60.66 11.96 60.81 3.95 60.49 C 3.57 59.70 2.82 58.13 2.45 57.35 C 3.81 57.27 5.17 57.23 6.53 57.22 Z" />
</g>
<g id="#1d2255ff">
<path fill="#1d2255" opacity="1.00" d=" M 27.42 37.11 C 28.31 37.98 29.13 38.92 29.90 39.90 C 31.02 41.43 32.05 43.02 33.24 44.48 C 32.17 44.87 31.11 45.25 30.04 45.64 C 29.63 45.20 29.21 44.77 28.78 44.35 C 27.04 42.72 25.26 41.13 23.47 39.56 C 24.01 39.16 25.10 38.37 25.64 37.98 C 26.08 37.76 26.97 37.32 27.42 37.11 Z" />
</g>
<g id="#5d1612ff">
<path fill="#5d1612" opacity="1.00" d=" M 44.22 37.16 C 45.30 37.27 46.39 37.33 47.48 37.34 C 47.38 37.96 47.18 39.19 47.09 39.81 C 50.01 39.07 52.92 38.23 55.75 37.19 C 57.88 38.96 59.65 41.11 61.37 43.27 C 60.25 43.89 59.11 44.47 57.96 45.05 C 56.45 43.44 55.01 41.73 53.17 40.49 C 48.53 41.31 43.78 41.79 39.21 40.31 C 37.90 41.69 36.60 43.08 35.29 44.46 C 35.18 42.64 35.03 40.82 34.88 39.00 L 34.81 38.09 C 35.18 37.91 35.91 37.56 36.28 37.38 C 39.14 38.26 42.00 39.16 44.90 39.89 C 44.73 39.21 44.39 37.85 44.22 37.16 Z" />
</g>
<g id="#033179ff">
<path fill="#033179" opacity="1.00" d=" M 33.12 40.81 C 33.71 40.20 34.29 39.60 34.88 39.00 C 35.03 40.82 35.18 42.64 35.29 44.46 C 35.30 44.94 35.34 45.91 35.35 46.39 C 34.82 45.91 33.77 44.96 33.24 44.48 C 32.05 43.02 31.02 41.43 29.90 39.90 C 30.98 40.20 32.05 40.51 33.12 40.81 Z" />
</g>
<g id="#476fb3ff">
<path fill="#476fb3" opacity="1.00" d=" M 22.48 40.06 C 22.73 39.93 23.22 39.68 23.47 39.56 C 25.26 41.13 27.04 42.72 28.78 44.35 C 28.26 46.46 28.09 48.83 26.55 50.50 C 23.56 54.10 18.19 54.25 14.02 53.04 C 9.90 51.64 8.89 47.03 7.62 43.40 C 8.65 42.39 9.69 41.35 10.91 40.57 C 14.76 40.60 18.93 42.31 22.48 40.06 M 13.82 44.99 C 11.64 48.42 16.26 51.23 19.33 50.58 C 22.09 50.61 23.49 48.02 24.83 46.05 C 22.42 42.52 16.33 40.69 13.82 44.99 Z" />
</g>
<g id="#ff2a05ff">
<path fill="#ff2a05" opacity="1.00" d=" M 39.21 40.31 C 43.78 41.79 48.53 41.31 53.17 40.49 C 55.01 41.73 56.45 43.44 57.96 45.05 C 58.31 45.45 59.02 46.25 59.37 46.65 C 56.26 49.82 52.89 53.72 48.02 53.59 C 42.71 54.24 38.50 50.45 33.74 48.89 C 34.92 48.55 35.46 47.72 35.35 46.39 C 35.34 45.91 35.30 44.94 35.29 44.46 C 36.60 43.08 37.90 41.69 39.21 40.31 Z" />
</g>
<g id="#6792e2ff">
<path fill="#6792e2" opacity="1.00" d=" M 13.82 44.99 C 16.33 40.69 22.42 42.52 24.83 46.05 C 23.49 48.02 22.09 50.61 19.33 50.58 C 16.26 51.23 11.64 48.42 13.82 44.99 Z" />
</g>
<g id="#023173ff">
<path fill="#023173" opacity="1.00" d=" M 5.16 55.40 C 4.94 51.25 4.07 46.47 7.62 43.40 C 8.89 47.03 9.90 51.64 14.02 53.04 C 18.19 54.25 23.56 54.10 26.55 50.50 C 28.09 48.83 28.26 46.46 28.78 44.35 C 29.21 44.77 29.63 45.20 30.04 45.64 C 31.82 48.01 31.41 51.04 31.30 53.81 C 30.55 54.94 29.81 56.09 29.07 57.24 C 21.56 57.11 14.04 57.18 6.53 57.22 C 6.18 56.77 5.50 55.86 5.16 55.40 Z" />
</g>
<g id="#1f0c1fff">
<path fill="#1f0c1f" opacity="1.00" d=" M 30.04 45.64 C 31.11 45.25 32.17 44.87 33.24 44.48 C 33.77 44.96 34.82 45.91 35.35 46.39 C 35.46 47.72 34.92 48.55 33.74 48.89 L 32.11 48.43 C 32.22 49.92 32.34 51.41 32.48 52.90 L 32.48 52.90 C 32.18 53.13 31.59 53.58 31.30 53.81 C 31.41 51.04 31.82 48.01 30.04 45.64 Z" />
</g>
<g id="#a51702ff">
<path fill="#a51702" opacity="1.00" d=" M 48.02 53.59 C 52.89 53.72 56.26 49.82 59.37 46.65 C 60.38 50.07 58.75 54.16 55.87 56.16 C 50.31 57.08 44.60 56.53 38.98 56.58 C 36.21 56.84 34.41 54.45 32.48 52.90 C 32.34 51.41 32.22 49.92 32.11 48.43 L 33.74 48.89 C 38.50 50.45 42.71 54.24 48.02 53.59 Z" />
</g>
<g id="#3f350efd">
<path fill="#3f350e" opacity="1.00" d=" M 56.83 57.25 L 57.87 57.26 C 59.57 57.24 61.28 57.19 62.99 57.16 C 63.00 59.09 62.99 61.03 62.99 62.97 C 42.31 62.98 21.64 62.99 0.96 62.97 C 1.35 61.41 -0.05 56.29 2.45 57.35 C 2.82 58.13 3.57 59.70 3.95 60.49 C 11.96 60.81 19.99 60.66 28.01 60.63 C 38.84 60.53 49.68 60.91 60.50 60.46 C 60.59 59.83 60.77 58.55 60.86 57.92 C 59.51 57.68 58.17 57.44 56.83 57.25 Z" />
</g>
</svg>
