<?xml version="1.0" encoding="UTF-8" ?>
<!DOCTYPE svg PUBLIC "-//W3C//DTD SVG 1.1//EN" "http://www.w3.org/Graphics/SVG/1.1/DTD/svg11.dtd">
<svg width="64pt" height="64pt" viewBox="0 0 64 64" version="1.1" xmlns="http://www.w3.org/2000/svg">
<g id="#b69e74f2">
<path fill="#b69e74" opacity="0.95" d=" M 25.94 4.30 C 28.57 4.33 30.62 3.21 31.98 0.99 C 33.31 2.54 34.68 4.07 36.83 4.34 C 36.23 5.27 35.55 6.14 34.90 7.04 C 32.91 7.71 30.86 7.65 28.85 7.16 C 27.83 6.25 26.84 5.32 25.94 4.30 Z" />
</g>
<g id="#be871bf8">
<path fill="#be871b" opacity="0.97" d=" M 28.85 7.16 C 30.86 7.65 32.91 7.71 34.90 7.04 C 34.99 7.49 35.17 8.39 35.26 8.83 C 35.50 12.04 31.75 9.44 29.91 10.53 C 29.40 10.61 28.39 10.78 27.88 10.86 C 28.17 9.62 28.48 8.38 28.85 7.16 Z" />
</g>
<g id="#4e570fe5">
<path fill="#4e570f" opacity="0.90" d=" M 35.26 8.83 C 35.94 12.74 39.40 14.81 43.04 15.40 C 40.89 17.09 35.73 17.26 38.00 20.96 C 37.21 20.40 36.43 19.82 35.68 19.21 C 36.38 18.06 37.21 17.00 37.94 15.87 C 36.42 12.83 33.12 11.20 29.91 10.53 C 31.75 9.44 35.50 12.04 35.26 8.83 Z" />
</g>
<g id="#46520ee0">
<path fill="#46520e" opacity="0.88" d=" M 20.96 15.40 C 23.81 14.80 26.57 13.64 27.88 10.86 C 28.39 10.78 29.40 10.61 29.91 10.53 C 29.62 11.09 29.05 12.21 28.76 12.77 C 27.82 13.77 26.76 14.69 26.03 15.87 C 26.74 16.94 27.55 17.95 28.24 19.04 C 27.58 19.73 26.93 20.42 26.27 21.10 C 28.02 17.28 23.22 17.06 20.96 15.40 Z" />
</g>
<g id="#97b126ff">
<path fill="#97b126" opacity="1.00" d=" M 29.91 10.53 C 33.12 11.20 36.42 12.83 37.94 15.87 C 37.21 17.00 36.38 18.06 35.68 19.21 C 33.17 19.52 30.49 20.55 28.24 19.04 C 27.55 17.95 26.74 16.94 26.03 15.87 C 26.76 14.69 27.82 13.77 28.76 12.77 C 28.86 13.59 29.06 15.24 29.15 16.07 C 30.85 16.25 32.25 14.86 32.06 13.16 C 31.24 13.06 29.59 12.87 28.76 12.77 C 29.05 12.21 29.62 11.09 29.91 10.53 Z" />
</g>
<g id="#30a5c1ff">
<path fill="#30a5c1" opacity="1.00" d=" M 28.76 12.77 C 29.59 12.87 31.24 13.06 32.06 13.16 C 32.25 14.86 30.85 16.25 29.15 16.07 C 29.06 15.24 28.86 13.59 28.76 12.77 Z" />
</g>
<g id="#617b19fa">
<path fill="#617b19" opacity="0.98" d=" M 28.24 19.04 C 30.49 20.55 33.17 19.52 35.68 19.21 C 36.43 19.82 37.21 20.40 38.00 20.96 C 40.63 22.96 43.75 24.10 46.76 25.38 C 47.54 27.93 43.89 28.73 42.13 29.40 C 42.58 31.33 43.45 33.11 44.01 35.00 L 43.93 36.01 C 42.99 35.66 42.06 35.34 41.11 35.05 C 42.08 33.59 41.58 32.38 40.03 31.66 C 38.85 30.86 37.54 30.27 36.27 29.64 L 35.61 29.17 C 36.59 28.27 38.37 27.63 38.04 25.97 C 38.73 23.08 35.15 23.00 33.23 22.54 C 31.54 22.11 29.80 22.00 28.06 21.95 C 27.54 21.94 26.50 21.91 25.98 21.90 L 26.27 21.10 C 26.93 20.42 27.58 19.73 28.24 19.04 Z" />
</g>
<g id="#45540df1">
<path fill="#45540d" opacity="0.95" d=" M 16.90 26.08 C 19.33 23.67 23.37 23.08 26.27 21.10 L 25.98 21.90 C 25.65 22.39 25.01 23.39 24.68 23.88 C 22.97 24.65 20.71 25.06 19.84 26.93 C 20.61 27.76 21.41 28.57 22.24 29.35 C 20.08 29.13 17.79 28.22 16.90 26.08 Z" />
</g>
<g id="#d46b3cff">
<path fill="#d46b3c" opacity="1.00" d=" M 25.98 21.90 C 26.50 21.91 27.54 21.94 28.06 21.95 C 28.98 23.34 28.83 24.77 27.79 26.05 L 27.16 26.52 C 26.32 25.66 25.49 24.78 24.68 23.88 C 25.01 23.39 25.65 22.39 25.98 21.90 Z" />
</g>
<g id="#90ac23ff">
<path fill="#90ac23" opacity="1.00" d=" M 28.06 21.95 C 29.80 22.00 31.54 22.11 33.23 22.54 C 31.88 24.35 31.80 26.54 33.19 28.35 C 31.17 29.46 28.07 28.53 27.79 26.05 C 28.83 24.77 28.98 23.34 28.06 21.95 Z" />
</g>
<g id="#1bdf65ff">
<path fill="#1bdf65" opacity="1.00" d=" M 33.23 22.54 C 35.15 23.00 38.73 23.08 38.04 25.97 C 38.37 27.63 36.59 28.27 35.61 29.17 C 34.80 28.89 33.99 28.62 33.19 28.35 C 31.80 26.54 31.88 24.35 33.23 22.54 Z" />
</g>
<g id="#839c1ffe">
<path fill="#839c1f" opacity="1.00" d=" M 19.84 26.93 C 20.71 25.06 22.97 24.65 24.68 23.88 C 25.49 24.78 26.32 25.66 27.16 26.52 C 25.75 27.84 24.18 28.99 22.24 29.35 C 21.41 28.57 20.61 27.76 19.84 26.93 Z" />
</g>
<g id="#596e13fb">
<path fill="#596e13" opacity="1.00" d=" M 27.16 26.52 L 27.79 26.05 C 28.07 28.53 31.17 29.46 33.19 28.35 C 33.99 28.62 34.80 28.89 35.61 29.17 L 36.27 29.64 C 31.93 32.50 24.55 26.86 22.67 32.75 C 21.79 35.74 15.91 37.69 18.12 40.93 C 16.00 40.76 13.87 40.80 11.77 41.11 C 12.29 39.99 13.06 39.05 13.93 38.19 C 18.61 37.55 20.65 33.30 22.24 29.35 C 24.18 28.99 25.75 27.84 27.16 26.52 Z" />
</g>
<g id="#889f20ff">
<path fill="#889f20" opacity="1.00" d=" M 22.67 32.75 C 24.55 26.86 31.93 32.50 36.27 29.64 C 37.54 30.27 38.85 30.86 40.03 31.66 C 39.27 32.38 38.55 33.13 37.87 33.91 C 38.92 34.37 40.00 34.75 41.11 35.05 C 42.06 35.34 42.99 35.66 43.93 36.01 C 45.28 37.68 47.86 38.51 48.12 40.87 C 46.69 40.96 45.25 41.02 43.82 41.06 C 43.40 41.06 42.57 41.07 42.15 41.07 C 40.90 39.86 39.61 38.62 38.00 37.90 C 36.61 38.52 35.78 39.91 34.76 40.97 C 31.54 41.38 28.55 40.91 25.89 39.17 C 23.52 39.53 21.50 41.32 18.97 41.32 L 18.12 40.93 C 15.91 37.69 21.79 35.74 22.67 32.75 C 23.05 34.51 22.70 36.65 24.21 37.94 C 26.47 38.64 29.94 36.27 28.03 33.95 C 27.70 31.74 24.70 31.05 23.56 33.05 L 22.67 32.75 Z" />
</g>
<g id="#ede45fff">
<path fill="#ede45f" opacity="1.00" d=" M 23.56 33.05 C 24.70 31.05 27.70 31.74 28.03 33.95 C 26.52 34.15 24.65 34.38 23.56 33.05 Z" />
</g>
<g id="#229fccff">
<path fill="#229fcc" opacity="1.00" d=" M 37.87 33.91 C 38.55 33.13 39.27 32.38 40.03 31.66 C 41.58 32.38 42.08 33.59 41.11 35.05 C 40.00 34.75 38.92 34.37 37.87 33.91 Z" />
</g>
<g id="#f2e030ff">
<path fill="#f2e030" opacity="1.00" d=" M 22.67 32.75 L 23.56 33.05 C 24.65 34.38 26.52 34.15 28.03 33.95 C 29.94 36.27 26.47 38.64 24.21 37.94 C 22.70 36.65 23.05 34.51 22.67 32.75 Z" />
</g>
<g id="#3c510cf3">
<path fill="#3c510c" opacity="0.95" d=" M 44.01 35.00 C 46.89 37.21 50.20 38.98 54.09 38.24 C 53.93 42.37 47.38 42.00 44.87 42.26 C 45.70 48.70 51.49 50.72 57.02 51.30 C 56.78 55.33 52.47 56.36 49.29 57.38 C 46.45 57.30 43.61 57.25 40.77 57.20 C 38.90 56.83 37.10 56.21 35.24 55.77 C 33.01 54.93 30.83 54.90 28.70 55.68 C 26.89 56.21 25.10 56.83 23.28 57.34 C 20.44 57.29 17.60 57.26 14.76 57.25 C 11.49 56.55 7.24 55.26 6.98 51.30 C 9.99 50.75 13.02 50.11 15.80 48.77 C 17.21 46.63 18.34 44.34 19.18 41.90 C 19.42 42.41 19.91 43.45 20.16 43.96 C 18.37 47.97 15.46 51.13 12.10 53.88 C 14.05 56.27 17.77 55.20 20.29 54.22 C 21.53 54.19 22.78 54.19 24.02 54.23 C 28.05 54.58 32.08 53.87 36.12 53.99 C 36.56 53.99 37.43 54.00 37.86 54.00 C 39.48 54.93 41.28 54.84 43.02 54.32 C 44.70 53.95 46.69 54.19 47.94 52.80 C 48.46 50.83 46.85 49.39 45.95 47.86 C 45.04 45.69 42.87 43.54 43.82 41.06 C 45.25 41.02 46.69 40.96 48.12 40.87 C 47.86 38.51 45.28 37.68 43.93 36.01 L 44.01 35.00 Z" />
</g>
<g id="#232d06cf">
<path fill="#232d06" opacity="0.81" d=" M 11.77 41.11 C 8.26 39.47 11.13 36.82 13.93 38.19 C 13.06 39.05 12.29 39.99 11.77 41.11 Z" />
</g>
<g id="#ec5f49ff">
<path fill="#ec5f49" opacity="1.00" d=" M 34.76 40.97 C 35.78 39.91 36.61 38.52 38.00 37.90 C 39.61 38.62 40.90 39.86 42.15 41.07 C 41.39 42.37 40.67 43.69 39.77 44.90 C 37.83 45.55 36.43 43.85 34.97 42.91 C 34.92 42.43 34.81 41.46 34.76 40.97 Z" />
</g>
<g id="#5d7413fe">
<path fill="#5d7413" opacity="1.00" d=" M 18.97 41.32 C 21.50 41.32 23.52 39.53 25.89 39.17 C 28.55 40.91 31.54 41.38 34.76 40.97 C 34.81 41.46 34.92 42.43 34.97 42.91 C 29.90 44.84 24.63 39.85 20.16 43.96 C 19.91 43.45 19.42 42.41 19.18 41.90 L 18.97 41.32 Z" />
</g>
<g id="#343e0abe">
<path fill="#343e0a" opacity="0.75" d=" M 11.77 41.11 C 13.87 40.80 16.00 40.76 18.12 40.93 L 18.97 41.32 L 19.18 41.90 C 16.65 42.66 14.18 42.40 11.77 41.11 Z" />
</g>
<g id="#688519ff">
<path fill="#688519" opacity="1.00" d=" M 42.15 41.07 C 42.57 41.07 43.40 41.06 43.82 41.06 C 42.87 43.54 45.04 45.69 45.95 47.86 C 41.72 47.20 41.15 51.49 43.02 54.32 C 41.28 54.84 39.48 54.93 37.86 54.00 C 38.33 52.81 38.13 50.24 36.23 51.07 C 34.81 51.66 35.10 53.18 36.12 53.99 C 32.08 53.87 28.05 54.58 24.02 54.23 C 25.34 52.10 25.82 47.37 22.06 48.03 C 18.93 48.60 18.74 51.92 20.29 54.22 C 17.77 55.20 14.05 56.27 12.10 53.88 C 15.46 51.13 18.37 47.97 20.16 43.96 C 24.63 39.85 29.90 44.84 34.97 42.91 C 36.43 43.85 37.83 45.55 39.77 44.90 C 40.67 43.69 41.39 42.37 42.15 41.07 M 29.25 45.23 C 28.14 46.42 30.27 48.87 31.39 47.37 C 33.30 45.99 30.73 43.78 29.25 45.23 Z" />
</g>
<g id="#d4e134ff">
<path fill="#d4e134" opacity="1.00" d=" M 29.25 45.23 C 30.73 43.78 33.30 45.99 31.39 47.37 C 30.27 48.87 28.14 46.42 29.25 45.23 Z" />
</g>
<g id="#1ce066ff">
<path fill="#1ce066" opacity="1.00" d=" M 20.29 54.22 C 18.74 51.92 18.93 48.60 22.06 48.03 C 25.82 47.37 25.34 52.10 24.02 54.23 C 22.78 54.19 21.53 54.19 20.29 54.22 Z" />
</g>
<g id="#e9da3aff">
<path fill="#e9da3a" opacity="1.00" d=" M 43.02 54.32 C 41.15 51.49 41.72 47.20 45.95 47.86 C 46.85 49.39 48.46 50.83 47.94 52.80 C 46.69 54.19 44.70 53.95 43.02 54.32 Z" />
</g>
<g id="#1aa4daff">
<path fill="#1aa4da" opacity="1.00" d=" M 36.23 51.07 C 38.13 50.24 38.33 52.81 37.86 54.00 C 37.43 54.00 36.56 53.99 36.12 53.99 C 35.10 53.18 34.81 51.66 36.23 51.07 Z" />
</g>
<g id="#453208fe">
<path fill="#453208" opacity="1.00" d=" M 28.70 55.68 C 30.83 54.90 33.01 54.93 35.24 55.77 C 35.15 56.34 34.95 57.49 34.85 58.06 C 33.07 55.79 30.94 55.79 29.15 58.05 C 29.03 57.46 28.81 56.27 28.70 55.68 Z" />
</g>
<g id="#956a18fe">
<path fill="#956a18" opacity="1.00" d=" M 29.15 58.05 C 30.94 55.79 33.07 55.79 34.85 58.06 C 35.66 59.00 36.50 59.93 37.34 60.84 C 37.19 61.34 36.89 62.34 36.74 62.84 C 34.37 62.84 29.63 62.84 27.26 62.84 C 27.11 62.34 26.81 61.34 26.66 60.84 C 27.50 59.92 28.34 59.00 29.15 58.05 Z" />
</g>
<g id="#192103af">
<path fill="#192103" opacity="0.69" d=" M 14.76 57.25 C 17.60 57.26 20.44 57.29 23.28 57.34 C 20.54 58.46 17.56 57.86 14.76 57.25 Z" />
<path fill="#192103" opacity="0.69" d=" M 40.77 57.20 C 43.61 57.25 46.45 57.30 49.29 57.38 C 46.54 58.47 43.56 57.84 40.77 57.20 Z" />
</g>
<g id="#483209e7">
<path fill="#483209" opacity="0.91" d=" M 20.58 64.00 C 22.51 62.78 24.54 61.72 26.66 60.84 C 26.81 61.34 27.11 62.34 27.26 62.84 C 29.63 62.84 34.37 62.84 36.74 62.84 C 36.89 62.34 37.19 61.34 37.34 60.84 C 39.46 61.72 41.49 62.78 43.42 64.00 L 20.58 64.00 Z" />
</g>
</svg>
