<?xml version="1.0" encoding="UTF-8" ?>
<!DOCTYPE svg PUBLIC "-//W3C//DTD SVG 1.1//EN" "http://www.w3.org/Graphics/SVG/1.1/DTD/svg11.dtd">
<svg width="64pt" height="64pt" viewBox="0 0 64 64" version="1.1" xmlns="http://www.w3.org/2000/svg">
<g id="#41210cbb">
<path fill="#41210c" opacity="0.73" d=" M 22.81 4.95 C 25.70 4.03 25.52 7.31 25.86 9.20 C 25.61 8.79 25.12 7.98 24.88 7.57 C 24.50 7.64 23.74 7.77 23.36 7.84 C 23.22 7.11 22.95 5.67 22.81 4.95 Z" />
</g>
<g id="#37271eaf">
<path fill="#37271e" opacity="0.69" d=" M 36.10 16.31 C 36.71 12.48 37.68 8.68 38.95 5.03 C 39.48 5.01 40.55 4.99 41.09 4.97 C 40.90 5.66 40.52 7.04 40.34 7.73 C 39.85 7.92 38.88 8.30 38.39 8.49 C 37.80 11.15 37.07 13.77 36.10 16.31 Z" />
</g>
<g id="#686465ff">
<path fill="#686465" opacity="1.00" d=" M 6.41 12.51 C 11.97 10.65 17.70 9.36 23.36 7.84 C 23.74 7.77 24.50 7.64 24.88 7.57 C 25.12 7.98 25.61 8.79 25.86 9.20 C 27.89 16.45 29.72 23.76 31.77 31.01 C 33.86 26.38 34.36 21.11 36.10 16.31 C 37.07 13.77 37.80 11.15 38.39 8.49 C 38.88 8.30 39.85 7.92 40.34 7.73 C 43.05 8.58 45.91 9.02 48.50 10.24 C 45.71 9.90 42.98 9.24 40.21 8.77 C 40.11 9.17 39.91 9.98 39.81 10.38 C 39.35 12.50 38.82 14.62 38.28 16.73 C 37.53 20.68 35.74 24.45 35.45 28.45 C 35.60 28.68 35.89 29.12 36.04 29.34 C 33.34 29.95 33.53 32.84 32.76 34.98 C 32.97 35.68 33.41 37.07 33.62 37.77 C 33.00 38.26 32.35 38.73 31.70 39.19 C 31.49 39.91 31.06 41.37 30.85 42.09 C 30.53 41.66 29.90 40.79 29.58 40.36 C 30.96 36.84 31.13 33.09 29.47 29.62 C 24.89 30.73 20.34 32.75 15.65 32.79 C 19.66 30.99 24.03 30.06 28.33 29.18 C 28.23 24.30 25.97 19.76 25.12 14.97 C 24.68 12.99 24.02 11.07 23.36 9.16 C 18.94 10.14 14.59 11.37 10.23 12.59 C 8.96 12.56 7.68 12.53 6.41 12.51 Z" />
</g>
<g id="#9b9c9ff4">
<path fill="#9b9c9f" opacity="0.96" d=" M 40.21 8.77 C 42.98 9.24 45.71 9.90 48.50 10.24 C 49.41 10.39 50.33 10.58 51.23 10.79 C 50.80 11.07 49.93 11.62 49.49 11.90 C 46.31 11.12 43.13 10.00 39.81 10.38 C 39.91 9.98 40.11 9.17 40.21 8.77 Z" />
</g>
<g id="#e3e3e3ff">
<path fill="#e3e3e3" opacity="1.00" d=" M 10.23 12.59 C 14.59 11.37 18.94 10.14 23.36 9.16 C 24.02 11.07 24.68 12.99 25.12 14.97 C 25.09 15.41 25.02 16.29 24.99 16.73 C 23.49 15.62 22.18 13.48 20.03 13.99 C 15.19 14.71 10.28 15.74 5.85 17.87 C 4.90 19.13 4.85 20.84 4.41 22.32 C 3.64 19.89 2.99 17.38 3.35 14.81 C 5.72 14.31 8.00 13.52 10.23 12.59 Z" />
<path fill="#e3e3e3" opacity="1.00" d=" M 39.81 10.38 C 43.13 10.00 46.31 11.12 49.49 11.90 C 53.18 12.83 56.85 13.88 60.56 14.76 C 61.25 17.83 59.16 20.83 60.16 23.85 C 60.24 24.90 59.72 25.89 59.53 26.91 C 59.84 25.41 59.70 23.96 59.09 22.54 C 58.87 21.14 58.69 19.73 58.53 18.31 C 54.05 15.99 49.05 14.50 43.99 14.22 C 41.72 13.84 39.99 15.55 38.28 16.73 C 38.82 14.62 39.35 12.50 39.81 10.38 Z" />
</g>
<g id="#939397f0">
<path fill="#939397" opacity="0.94" d=" M 49.49 11.90 C 49.93 11.62 50.80 11.07 51.23 10.79 C 51.62 10.92 52.41 11.16 52.80 11.28 C 54.71 12.46 56.98 12.85 59.18 13.07 C 60.42 13.26 61.65 13.54 62.89 13.80 C 62.13 17.18 61.47 20.63 60.16 23.85 C 59.16 20.83 61.25 17.83 60.56 14.76 C 56.85 13.88 53.18 12.83 49.49 11.90 Z" />
</g>
<g id="#2b2b2e7a">
<path fill="#2b2b2e" opacity="0.48" d=" M 52.80 11.28 C 54.74 10.38 57.61 11.53 59.36 12.51 L 59.18 13.07 C 56.98 12.85 54.71 12.46 52.80 11.28 Z" />
</g>
<g id="#959599eb">
<path fill="#959599" opacity="0.92" d=" M 3.06 13.30 C 4.15 12.96 5.26 12.57 6.41 12.51 C 7.68 12.53 8.96 12.56 10.23 12.59 C 8.00 13.52 5.72 14.31 3.35 14.81 C 2.99 17.38 3.64 19.89 4.41 22.32 C 5.28 25.73 6.91 29.08 6.46 32.69 C 4.03 28.13 3.24 22.72 1.99 17.68 C 1.99 17.04 2.00 15.78 2.01 15.14 C 2.27 14.68 2.80 13.76 3.06 13.30 Z" />
</g>
<g id="#3434389f">
<path fill="#343438" opacity="0.62" d=" M 1.99 17.68 C -0.33 17.64 0.58 11.58 3.06 13.30 C 2.80 13.76 2.27 14.68 2.01 15.14 C 2.00 15.78 1.99 17.04 1.99 17.68 Z" />
</g>
<g id="#fdfdfdff">
<path fill="#fdfdfd" opacity="1.00" d=" M 5.85 17.87 C 10.28 15.74 15.19 14.71 20.03 13.99 C 22.18 13.48 23.49 15.62 24.99 16.73 C 25.02 16.29 25.09 15.41 25.12 14.97 C 25.97 19.76 28.23 24.30 28.33 29.18 C 24.03 30.06 19.66 30.99 15.65 32.79 C 15.53 32.91 15.30 33.14 15.18 33.26 C 12.24 33.78 9.41 35.03 6.37 34.67 C 6.40 34.01 6.43 33.35 6.46 32.69 C 6.91 29.08 5.28 25.73 4.41 22.32 C 4.85 20.84 4.90 19.13 5.85 17.87 M 11.04 24.31 C 13.48 27.09 17.84 26.42 19.46 23.16 C 20.77 19.46 16.65 15.18 13.02 17.10 C 10.24 18.29 9.53 21.85 11.04 24.31 Z" />
</g>
<g id="#fefefeff">
<path fill="#fefefe" opacity="1.00" d=" M 38.28 16.73 C 39.99 15.55 41.72 13.84 43.99 14.22 C 49.05 14.50 54.05 15.99 58.53 18.31 C 58.69 19.73 58.87 21.14 59.09 22.54 C 58.36 26.34 57.28 30.05 56.28 33.78 C 49.34 33.23 42.97 29.81 36.04 29.34 C 35.89 29.12 35.60 28.68 35.45 28.45 C 35.74 24.45 37.53 20.68 38.28 16.73 M 46.42 17.49 C 43.16 19.27 43.73 24.61 47.21 25.75 C 50.12 27.25 54.05 24.33 53.61 21.11 C 53.52 17.75 49.19 15.29 46.42 17.49 Z" />
</g>
<g id="#b71901ff">
<path fill="#b71901" opacity="1.00" d=" M 11.04 24.31 C 9.53 21.85 10.24 18.29 13.02 17.10 C 16.65 15.18 20.77 19.46 19.46 23.16 C 18.20 20.75 16.03 19.50 13.31 20.16 C 12.57 21.56 11.81 22.94 11.04 24.31 Z" />
</g>
<g id="#c51d03ff">
<path fill="#c51d03" opacity="1.00" d=" M 46.42 17.49 C 49.19 15.29 53.52 17.75 53.61 21.11 C 54.05 24.33 50.12 27.25 47.21 25.75 C 43.73 24.61 43.16 19.27 46.42 17.49 Z" />
</g>
<g id="#cf1f03ff">
<path fill="#cf1f03" opacity="1.00" d=" M 13.31 20.16 C 16.03 19.50 18.20 20.75 19.46 23.16 C 17.84 26.42 13.48 27.09 11.04 24.31 C 11.81 22.94 12.57 21.56 13.31 20.16 Z" />
</g>
<g id="#96969ae1">
<path fill="#96969a" opacity="0.88" d=" M 56.28 33.78 C 57.28 30.05 58.36 26.34 59.09 22.54 C 59.70 23.96 59.84 25.41 59.53 26.91 C 58.98 29.00 58.60 31.16 57.70 33.14 C 57.55 33.71 57.24 34.85 57.09 35.42 C 50.09 34.16 43.24 31.96 36.36 30.13 L 36.04 29.34 C 42.97 29.81 49.34 33.23 56.28 33.78 Z" />
</g>
<g id="#47474cb6">
<path fill="#47474c" opacity="0.71" d=" M 57.09 35.42 C 57.24 34.85 57.55 33.71 57.70 33.14 C 57.74 33.62 57.80 34.58 57.83 35.06 L 57.09 35.42 Z" />
</g>
<g id="#3b393cdb">
<path fill="#3b393c" opacity="0.86" d=" M 33.62 37.77 C 35.71 44.89 37.57 52.07 39.40 59.26 L 37.72 59.73 C 35.19 53.08 34.30 45.82 31.70 39.19 C 32.35 38.73 33.00 38.26 33.62 37.77 Z" />
</g>
<g id="#3f3d41ec">
<path fill="#3f3d41" opacity="0.93" d=" M 24.49 59.42 C 25.94 53.01 27.67 46.65 29.58 40.36 C 29.90 40.79 30.53 41.66 30.85 42.09 C 29.62 47.96 27.85 53.74 26.26 59.53 L 24.49 59.42 Z" />
</g>
</svg>
