<?xml version="1.0" encoding="UTF-8" ?>
<!DOCTYPE svg PUBLIC "-//W3C//DTD SVG 1.1//EN" "http://www.w3.org/Graphics/SVG/1.1/DTD/svg11.dtd">
<svg width="64pt" height="64pt" viewBox="0 0 64 64" version="1.1" xmlns="http://www.w3.org/2000/svg">
<g id="#f45c54ff">
<path fill="#f45c54" opacity="1.00" d=" M 38.44 6.42 C 40.64 4.77 42.28 1.92 45.21 1.55 C 45.24 1.71 45.30 2.03 45.33 2.18 C 45.44 2.75 45.67 3.89 45.78 4.46 C 46.12 6.79 46.00 9.13 45.43 11.41 C 43.12 11.61 40.80 11.63 38.49 11.44 C 38.47 9.77 38.46 8.10 38.44 6.42 Z" />
</g>
<g id="#4c0804ff">
<path fill="#4c0804" opacity="1.00" d=" M 45.33 2.18 C 48.54 4.82 47.20 11.28 52.06 11.81 C 51.30 11.72 49.79 11.54 49.04 11.45 C 49.45 13.09 49.46 15.00 50.98 16.06 C 50.91 16.29 50.79 16.75 50.73 16.99 L 50.32 18.30 C 49.81 18.71 48.79 19.54 48.28 19.96 C 48.38 18.78 48.48 17.61 48.58 16.44 C 43.46 15.56 39.85 20.04 34.87 19.97 C 33.47 20.13 32.09 20.34 30.70 20.55 C 26.32 18.82 19.80 16.72 16.99 21.97 C 16.72 21.51 16.18 20.60 15.91 20.15 L 16.26 19.38 C 16.38 19.11 16.63 18.57 16.75 18.30 C 17.19 18.12 18.06 17.76 18.50 17.58 C 21.60 16.10 25.04 17.01 28.31 17.06 C 30.42 15.92 32.76 16.18 35.05 16.32 C 36.29 15.50 36.52 13.87 37.20 12.64 C 37.32 13.41 37.55 14.96 37.66 15.73 C 41.44 15.22 45.10 13.98 48.93 13.75 C 48.50 10.46 47.36 7.35 45.78 4.46 C 45.67 3.89 45.44 2.75 45.33 2.18 Z" />
</g>
<g id="#8b1a12ff">
<path fill="#8b1a12" opacity="1.00" d=" M 19.09 4.05 C 22.54 4.28 25.18 6.84 27.98 8.58 C 28.94 9.29 29.90 10.01 30.85 10.73 C 31.17 11.62 31.48 12.52 31.78 13.41 C 32.72 13.44 33.66 13.47 34.59 13.50 C 34.61 12.37 34.63 11.23 34.68 10.09 C 35.09 9.90 35.92 9.52 36.33 9.32 C 36.64 10.42 36.94 11.53 37.20 12.64 C 36.52 13.87 36.29 15.50 35.05 16.32 C 32.76 16.18 30.42 15.92 28.31 17.06 C 29.03 15.44 29.62 13.75 29.70 11.97 L 29.58 10.72 C 26.54 8.66 23.53 5.92 19.59 6.22 C 18.59 9.84 16.49 13.98 18.50 17.58 C 18.06 17.76 17.19 18.12 16.75 18.30 C 16.81 16.78 16.84 15.26 16.84 13.74 C 15.28 13.66 13.72 13.61 12.16 13.73 C 13.76 12.72 15.45 11.87 17.19 11.14 C 17.43 8.68 18.10 6.31 19.09 4.05 Z" />
<path fill="#8b1a12" opacity="1.00" d=" M 16.99 21.97 C 19.80 16.72 26.32 18.82 30.70 20.55 C 26.93 22.13 22.95 23.12 18.90 23.70 C 20.45 24.24 21.99 24.79 23.51 25.41 C 23.76 27.73 23.99 30.07 24.54 32.35 C 25.94 34.71 28.98 35.55 31.28 36.88 C 29.30 36.13 27.19 35.97 25.11 35.74 C 25.38 38.99 25.53 42.25 25.76 45.50 C 25.74 49.98 26.30 54.44 27.21 58.82 C 24.91 58.52 22.96 57.15 21.25 55.67 C 19.10 53.68 16.38 52.49 13.93 50.94 C 13.28 48.89 12.61 46.84 12.23 44.72 C 12.56 45.23 13.22 46.25 13.55 46.75 C 14.21 50.19 17.11 52.16 20.00 53.66 C 19.74 50.90 19.31 48.16 18.70 45.47 C 20.68 48.20 21.65 51.48 23.19 54.45 C 23.98 46.40 24.01 38.16 22.77 30.15 C 22.41 25.77 17.30 24.46 13.73 25.73 C 13.51 24.82 13.32 23.90 13.15 22.98 C 13.10 22.58 13.00 21.78 12.95 21.38 C 13.94 20.99 14.93 20.58 15.91 20.15 C 16.18 20.60 16.72 21.51 16.99 21.97 Z" />
</g>
<g id="#f94134ff">
<path fill="#f94134" opacity="1.00" d=" M 45.78 4.46 C 47.36 7.35 48.50 10.46 48.93 13.75 C 45.10 13.98 41.44 15.22 37.66 15.73 C 37.55 14.96 37.32 13.41 37.20 12.64 C 36.94 11.53 36.64 10.42 36.33 9.32 C 36.48 9.14 36.76 8.76 36.91 8.57 C 37.29 8.03 38.06 6.96 38.44 6.42 C 38.46 8.10 38.47 9.77 38.49 11.44 C 40.80 11.63 43.12 11.61 45.43 11.41 C 46.00 9.13 46.12 6.79 45.78 4.46 Z" />
<path fill="#f94134" opacity="1.00" d=" M 18.50 17.58 C 16.49 13.98 18.59 9.84 19.59 6.22 C 19.63 8.48 18.46 11.04 19.71 13.13 C 22.95 14.36 26.65 13.37 29.70 11.97 C 29.62 13.75 29.03 15.44 28.31 17.06 C 25.04 17.01 21.60 16.10 18.50 17.58 Z" />
</g>
<g id="#f55e59ff">
<path fill="#f55e59" opacity="1.00" d=" M 19.59 6.22 C 23.53 5.92 26.54 8.66 29.58 10.72 L 29.70 11.97 C 26.65 13.37 22.95 14.36 19.71 13.13 C 18.46 11.04 19.63 8.48 19.59 6.22 Z" />
</g>
<g id="#9d6c12ff">
<path fill="#9d6c12" opacity="1.00" d=" M 27.98 8.58 C 30.82 6.70 33.88 8.80 36.91 8.57 C 36.76 8.76 36.48 9.14 36.33 9.32 C 35.92 9.52 35.09 9.90 34.68 10.09 C 33.41 10.32 32.13 10.53 30.85 10.73 C 29.90 10.01 28.94 9.29 27.98 8.58 Z" />
<path fill="#9d6c12" opacity="1.00" d=" M 2.19 16.95 C 5.56 16.00 8.82 14.74 12.16 13.73 C 13.72 13.61 15.28 13.66 16.84 13.74 C 16.84 15.26 16.81 16.78 16.75 18.30 C 16.63 18.57 16.38 19.11 16.26 19.38 L 16.32 17.63 C 16.33 16.82 16.35 15.22 16.37 14.42 C 12.42 15.06 8.65 16.47 4.91 17.83 C 6.36 18.60 7.81 19.36 9.34 19.96 C 10.55 20.41 11.75 20.88 12.95 21.38 C 13.00 21.78 13.10 22.58 13.15 22.98 C 10.41 22.07 7.69 21.13 4.91 20.34 C 5.52 25.24 10.67 26.94 14.49 28.82 C 14.60 29.27 14.81 30.18 14.92 30.64 C 13.32 30.74 11.72 30.85 10.11 30.95 C 10.34 36.45 14.11 41.17 13.55 46.75 C 13.22 46.25 12.56 45.23 12.23 44.72 C 10.20 38.96 8.65 33.01 6.89 27.16 C 6.77 25.63 5.69 24.70 4.28 24.33 C 3.48 21.90 2.82 19.43 2.19 16.95 Z" />
<path fill="#9d6c12" opacity="1.00" d=" M 44.95 23.30 L 45.64 23.03 C 45.72 26.06 45.64 29.13 44.53 31.99 C 44.52 29.93 44.56 27.86 44.61 25.79 C 41.68 27.86 38.00 29.12 35.75 32.02 C 35.56 33.58 35.48 35.15 35.49 36.73 C 35.49 38.03 35.55 39.32 35.58 40.62 C 36.14 47.71 34.18 55.29 37.38 61.94 C 36.61 62.34 35.84 62.74 35.08 63.14 C 32.38 61.84 29.90 60.13 27.21 58.82 C 26.30 54.44 25.74 49.98 25.76 45.50 L 26.56 46.53 C 27.01 49.15 27.23 51.80 27.43 54.45 C 27.04 58.44 31.25 59.97 34.38 60.83 C 35.17 54.25 34.76 47.60 34.79 40.99 C 35.15 39.13 33.53 38.13 32.19 37.28 C 32.82 37.01 34.06 36.46 34.69 36.19 C 34.68 34.76 34.52 33.37 34.19 32.00 C 31.51 30.03 28.29 29.06 25.16 28.05 C 24.94 29.48 24.73 30.91 24.54 32.35 C 23.99 30.07 23.76 27.73 23.51 25.41 L 24.24 25.73 C 27.83 27.50 31.61 28.82 35.26 30.44 C 38.44 28.06 43.13 27.02 44.95 23.30 Z" />
</g>
<g id="#f07e81ff">
<path fill="#f07e81" opacity="1.00" d=" M 30.85 10.73 C 32.13 10.53 33.41 10.32 34.68 10.09 C 34.63 11.23 34.61 12.37 34.59 13.50 C 33.66 13.47 32.72 13.44 31.78 13.41 C 31.48 12.52 31.17 11.62 30.85 10.73 Z" />
</g>
<g id="#826217cf">
<path fill="#826217" opacity="0.81" d=" M 49.04 11.45 C 49.79 11.54 51.30 11.72 52.06 11.81 C 55.35 12.24 58.59 13.02 61.85 13.64 C 61.37 16.21 60.79 18.76 60.22 21.31 C 60.06 19.09 61.38 16.29 59.46 14.54 C 57.89 13.41 55.87 13.66 54.06 13.56 C 53.10 13.48 52.16 13.51 51.21 13.67 C 50.68 14.42 50.60 15.21 50.98 16.06 C 49.46 15.00 49.45 13.09 49.04 11.45 Z" />
</g>
<g id="#e3ce46ff">
<path fill="#e3ce46" opacity="1.00" d=" M 50.98 16.06 C 50.60 15.21 50.68 14.42 51.21 13.67 C 52.16 13.51 53.10 13.48 54.06 13.56 L 54.16 14.38 C 53.94 14.71 53.49 15.38 53.27 15.71 C 52.70 15.80 51.55 15.97 50.98 16.06 Z" />
</g>
<g id="#dc9920ff">
<path fill="#dc9920" opacity="1.00" d=" M 54.06 13.56 C 55.87 13.66 57.89 13.41 59.46 14.54 C 61.38 16.29 60.06 19.09 60.22 21.31 C 59.82 21.70 59.02 22.48 58.62 22.87 C 56.94 30.87 55.51 38.93 53.75 46.92 C 53.53 48.51 51.89 49.24 50.79 50.16 C 50.22 50.53 49.10 51.26 48.53 51.63 C 48.93 48.48 49.35 45.32 49.92 42.19 L 50.25 42.12 C 49.80 44.51 49.51 46.92 49.34 49.35 C 50.70 48.36 52.09 47.23 52.42 45.48 C 53.71 40.31 54.71 35.07 55.68 29.84 C 54.91 29.41 53.35 28.56 52.57 28.14 C 52.67 27.37 52.79 26.60 52.91 25.84 C 55.99 24.34 59.26 21.94 58.95 18.09 C 57.45 18.63 55.95 19.18 54.44 19.71 C 54.13 19.40 53.52 18.80 53.22 18.49 C 54.79 17.64 56.32 16.74 57.86 15.85 C 56.94 15.48 55.08 14.75 54.16 14.38 L 54.06 13.56 Z" />
</g>
<g id="#e7d563ff">
<path fill="#e7d563" opacity="1.00" d=" M 4.91 17.83 C 8.65 16.47 12.42 15.06 16.37 14.42 C 16.35 15.22 16.33 16.82 16.32 17.63 C 13.88 17.98 9.14 16.04 9.34 19.96 C 7.81 19.36 6.36 18.60 4.91 17.83 Z" />
</g>
<g id="#fdf7abff">
<path fill="#fdf7ab" opacity="1.00" d=" M 53.27 15.71 C 53.49 15.38 53.94 14.71 54.16 14.38 C 55.08 14.75 56.94 15.48 57.86 15.85 C 56.32 16.74 54.79 17.64 53.22 18.49 C 52.60 18.12 51.35 17.36 50.73 16.99 C 50.79 16.75 50.91 16.29 50.98 16.06 C 51.55 15.97 52.70 15.80 53.27 15.71 Z" />
<path fill="#fdf7ab" opacity="1.00" d=" M 35.58 40.62 C 38.14 39.20 40.74 37.85 43.47 36.78 C 43.41 42.52 43.26 48.35 42.11 53.99 C 41.97 57.35 36.16 57.57 37.23 61.11 L 37.38 61.94 C 34.18 55.29 36.14 47.71 35.58 40.62 Z" />
</g>
<g id="#b62a21ff">
<path fill="#b62a21" opacity="1.00" d=" M 34.87 19.97 C 39.85 20.04 43.46 15.56 48.58 16.44 C 48.48 17.61 48.38 18.78 48.28 19.96 C 48.79 19.54 49.81 18.71 50.32 18.30 L 50.73 16.99 C 51.35 17.36 52.60 18.12 53.22 18.49 C 53.52 18.80 54.13 19.40 54.44 19.71 C 53.81 21.72 53.25 23.75 52.91 25.84 C 52.79 26.60 52.67 27.37 52.57 28.14 C 52.26 30.61 51.69 33.04 51.14 35.47 C 49.24 31.69 52.07 27.56 51.45 23.54 C 50.11 23.59 48.90 24.05 47.81 24.92 C 46.18 30.76 46.59 36.84 46.54 42.83 C 47.38 42.67 49.07 42.35 49.92 42.19 C 49.35 45.32 48.93 48.48 48.53 51.63 C 49.10 51.26 50.22 50.53 50.79 50.16 C 48.02 52.39 46.18 56.01 42.60 57.02 C 43.71 48.72 44.34 40.36 44.53 31.99 C 45.64 29.13 45.72 26.06 45.64 23.03 C 47.41 22.42 48.96 21.35 50.47 20.28 C 49.96 20.30 48.93 20.32 48.41 20.34 C 43.89 20.29 39.35 20.79 34.87 19.97 Z" />
</g>
<g id="#fdfab4ff">
<path fill="#fdfab4" opacity="1.00" d=" M 9.34 19.96 C 9.14 16.04 13.88 17.98 16.32 17.63 L 16.26 19.38 L 15.91 20.15 C 14.93 20.58 13.94 20.99 12.95 21.38 C 11.75 20.88 10.55 20.41 9.34 19.96 Z" />
</g>
<g id="#f3e14bff">
<path fill="#f3e14b" opacity="1.00" d=" M 54.44 19.71 C 55.95 19.18 57.45 18.63 58.95 18.09 C 59.26 21.94 55.99 24.34 52.91 25.84 C 53.25 23.75 53.81 21.72 54.44 19.71 Z" />
</g>
<g id="#bea41fff">
<path fill="#bea41f" opacity="1.00" d=" M 4.91 20.34 C 7.69 21.13 10.41 22.07 13.15 22.98 C 13.32 23.90 13.51 24.82 13.73 25.73 C 13.92 26.50 14.30 28.04 14.49 28.82 C 10.67 26.94 5.52 25.24 4.91 20.34 Z" />
</g>
<g id="#bc6042ff">
<path fill="#bc6042" opacity="1.00" d=" M 30.70 20.55 C 32.09 20.34 33.47 20.13 34.87 19.97 C 39.35 20.79 43.89 20.29 48.41 20.34 C 45.96 20.79 43.48 21.09 40.99 21.21 C 41.38 21.64 42.14 22.49 42.53 22.91 C 42.03 22.75 41.03 22.43 40.53 22.27 C 38.39 21.64 36.29 20.76 34.05 20.60 C 32.58 21.14 31.23 21.93 29.86 22.67 C 28.60 23.37 27.35 24.09 26.09 24.78 C 25.63 25.01 24.70 25.49 24.24 25.73 L 23.51 25.41 C 21.99 24.79 20.45 24.24 18.90 23.70 C 22.95 23.12 26.93 22.13 30.70 20.55 Z" />
</g>
<g id="#e25043ff">
<path fill="#e25043" opacity="1.00" d=" M 48.41 20.34 C 48.93 20.32 49.96 20.30 50.47 20.28 C 48.96 21.35 47.41 22.42 45.64 23.03 L 44.95 23.30 L 43.50 23.24 L 42.53 22.91 C 42.14 22.49 41.38 21.64 40.99 21.21 C 43.48 21.09 45.96 20.79 48.41 20.34 Z" />
</g>
<g id="#fefbb7ff">
<path fill="#fefbb7" opacity="1.00" d=" M 29.86 22.67 C 31.23 21.93 32.58 21.14 34.05 20.60 C 36.29 20.76 38.39 21.64 40.53 22.27 C 38.72 23.18 36.97 24.25 35.02 24.82 C 33.16 24.52 31.55 23.44 29.86 22.67 Z" />
</g>
<g id="#ffffefff">
<path fill="#ffffef" opacity="1.00" d=" M 26.09 24.78 C 27.35 24.09 28.60 23.37 29.86 22.67 C 31.55 23.44 33.16 24.52 35.02 24.82 C 36.97 24.25 38.72 23.18 40.53 22.27 C 41.03 22.43 42.03 22.75 42.53 22.91 L 43.50 23.24 C 40.68 24.99 38.00 26.95 35.04 28.47 C 31.99 27.42 29.03 26.10 26.09 24.78 Z" />
</g>
<g id="#f5efaefe">
<path fill="#f5efae" opacity="1.00" d=" M 43.50 23.24 L 44.95 23.30 C 43.13 27.02 38.44 28.06 35.26 30.44 C 31.61 28.82 27.83 27.50 24.24 25.73 C 24.70 25.49 25.63 25.01 26.09 24.78 C 29.03 26.10 31.99 27.42 35.04 28.47 C 38.00 26.95 40.68 24.99 43.50 23.24 Z" />
</g>
<g id="#f97671ff">
<path fill="#f97671" opacity="1.00" d=" M 47.81 24.92 C 48.90 24.05 50.11 23.59 51.45 23.54 C 52.07 27.56 49.24 31.69 51.14 35.47 C 51.01 37.71 50.68 39.93 50.25 42.12 L 49.92 42.19 C 49.07 42.35 47.38 42.67 46.54 42.83 C 46.59 36.84 46.18 30.76 47.81 24.92 Z" />
</g>
<g id="#ce3e38ff">
<path fill="#ce3e38" opacity="1.00" d=" M 13.73 25.73 C 17.30 24.46 22.41 25.77 22.77 30.15 C 24.01 38.16 23.98 46.40 23.19 54.45 C 21.65 51.48 20.68 48.20 18.70 45.47 C 17.25 40.58 16.20 35.58 14.92 30.64 C 14.81 30.18 14.60 29.27 14.49 28.82 C 14.30 28.04 13.92 26.50 13.73 25.73 M 16.45 27.76 C 17.38 34.03 19.17 40.15 21.40 46.08 C 21.70 40.44 22.34 34.57 20.98 29.05 C 20.57 26.86 18.01 27.04 16.45 27.76 Z" />
</g>
<g id="#ff645dff">
<path fill="#ff645d" opacity="1.00" d=" M 16.45 27.76 C 18.01 27.04 20.57 26.86 20.98 29.05 C 22.34 34.57 21.70 40.44 21.40 46.08 C 19.17 40.15 17.38 34.03 16.45 27.76 Z" />
</g>
<g id="#fcf793ff">
<path fill="#fcf793" opacity="1.00" d=" M 35.75 32.02 C 38.00 29.12 41.68 27.86 44.61 25.79 C 44.56 27.86 44.52 29.93 44.53 31.99 C 41.57 33.68 38.87 35.90 35.49 36.73 C 35.48 35.15 35.56 33.58 35.75 32.02 Z" />
</g>
<g id="#c9bd24ff">
<path fill="#c9bd24" opacity="1.00" d=" M 25.16 28.05 C 28.29 29.06 31.51 30.03 34.19 32.00 C 34.52 33.37 34.68 34.76 34.69 36.19 C 34.06 36.46 32.82 37.01 32.19 37.28 L 31.28 36.88 C 28.98 35.55 25.94 34.71 24.54 32.35 C 24.73 30.91 24.94 29.48 25.16 28.05 Z" />
</g>
<g id="#fcef3cff">
<path fill="#fcef3c" opacity="1.00" d=" M 52.57 28.14 C 53.35 28.56 54.91 29.41 55.68 29.84 C 54.71 35.07 53.71 40.31 52.42 45.48 C 52.09 47.23 50.70 48.36 49.34 49.35 C 49.51 46.92 49.80 44.51 50.25 42.12 C 50.68 39.93 51.01 37.71 51.14 35.47 C 51.69 33.04 52.26 30.61 52.57 28.14 Z" />
</g>
<g id="#bc9f1dff">
<path fill="#bc9f1d" opacity="1.00" d=" M 10.11 30.95 C 11.72 30.85 13.32 30.74 14.92 30.64 C 16.20 35.58 17.25 40.58 18.70 45.47 C 19.31 48.16 19.74 50.90 20.00 53.66 C 17.11 52.16 14.21 50.19 13.55 46.75 C 14.11 41.17 10.34 36.45 10.11 30.95 Z" />
</g>
<g id="#d6b159fb">
<path fill="#d6b159" opacity="1.00" d=" M 35.49 36.73 C 38.87 35.90 41.57 33.68 44.53 31.99 C 44.34 40.36 43.71 48.72 42.60 57.02 L 42.56 57.28 C 40.82 58.61 39.19 60.10 37.23 61.11 C 36.16 57.57 41.97 57.35 42.11 53.99 C 43.26 48.35 43.41 42.52 43.47 36.78 C 40.74 37.85 38.14 39.20 35.58 40.62 C 35.55 39.32 35.49 38.03 35.49 36.73 Z" />
</g>
<g id="#c7a133ff">
<path fill="#c7a133" opacity="1.00" d=" M 25.11 35.74 C 27.19 35.97 29.30 36.13 31.28 36.88 L 32.19 37.28 C 33.53 38.13 35.15 39.13 34.79 40.99 C 34.76 47.60 35.17 54.25 34.38 60.83 C 31.25 59.97 27.04 58.44 27.43 54.45 C 29.02 54.80 30.61 55.16 32.19 55.55 C 34.91 52.40 34.39 47.83 34.24 43.97 C 34.19 40.20 29.64 40.47 26.97 40.67 C 26.83 42.62 26.67 44.57 26.56 46.53 L 25.76 45.50 C 25.53 42.25 25.38 38.99 25.11 35.74 Z" />
</g>
<g id="#d2bd4fff">
<path fill="#d2bd4f" opacity="1.00" d=" M 26.97 40.67 C 29.64 40.47 34.19 40.20 34.24 43.97 C 34.39 47.83 34.91 52.40 32.19 55.55 C 30.61 55.16 29.02 54.80 27.43 54.45 C 27.23 51.80 27.01 49.15 26.56 46.53 C 26.67 44.57 26.83 42.62 26.97 40.67 Z" />
</g>
</svg>
