<?xml version="1.0" encoding="UTF-8" ?>
<!DOCTYPE svg PUBLIC "-//W3C//DTD SVG 1.1//EN" "http://www.w3.org/Graphics/SVG/1.1/DTD/svg11.dtd">
<svg width="64pt" height="64pt" viewBox="0 0 64 64" version="1.1" xmlns="http://www.w3.org/2000/svg">
<g id="#b51814ff">
<path fill="#b51814" opacity="1.00" d=" M 17.97 11.93 C 20.72 5.21 29.11 1.51 35.88 4.26 C 44.23 7.16 47.94 18.18 43.94 25.83 C 41.20 31.23 37.06 36.04 31.80 39.10 C 32.60 40.30 33.46 41.45 34.30 42.62 C 32.65 42.96 30.98 43.20 29.30 43.29 C 28.82 43.28 27.84 43.26 27.35 43.25 C 28.32 41.88 29.21 40.46 30.18 39.09 C 25.36 36.34 21.54 32.06 18.79 27.28 C 15.77 22.74 15.59 16.77 17.97 11.93 M 23.15 7.92 C 21.63 9.16 20.48 10.76 19.45 12.42 C 15.55 22.33 22.45 32.89 31.00 37.69 C 39.70 32.82 46.33 22.21 42.64 12.15 L 42.41 12.65 C 41.66 10.79 40.43 9.22 38.88 7.96 C 34.20 4.70 27.86 4.72 23.15 7.92 Z" />
</g>
<g id="#f38593ff">
<path fill="#f38593" opacity="1.00" d=" M 23.15 7.92 C 27.86 4.72 34.20 4.70 38.88 7.96 C 36.96 15.21 24.68 15.64 23.15 7.92 Z" />
</g>
<g id="#f55f72ff">
<path fill="#f55f72" opacity="1.00" d=" M 19.45 12.42 C 20.48 10.76 21.63 9.16 23.15 7.92 C 24.68 15.64 36.96 15.21 38.88 7.96 C 40.43 9.22 41.66 10.79 42.41 12.65 C 41.54 14.11 41.10 16.56 38.94 16.43 C 33.71 16.94 28.41 16.96 23.19 16.44 C 20.87 16.55 20.32 14.01 19.45 12.42 Z" />
</g>
<g id="#f24054ff">
<path fill="#f24054" opacity="1.00" d=" M 31.00 37.69 C 22.45 32.89 15.55 22.33 19.45 12.42 C 20.32 14.01 20.87 16.55 23.19 16.44 C 28.41 16.96 33.71 16.94 38.94 16.43 C 41.10 16.56 41.54 14.11 42.41 12.65 L 42.64 12.15 C 46.33 22.21 39.70 32.82 31.00 37.69 Z" />
</g>
<g id="#030000cf">
<path fill="#030000" opacity="0.81" d=" M 34.30 42.62 C 34.42 42.78 34.65 43.09 34.76 43.24 C 34.01 43.30 32.50 43.41 31.74 43.47 C 31.70 45.95 31.72 48.63 33.27 50.72 C 35.49 54.44 40.21 55.00 43.35 57.64 C 45.50 59.24 46.64 61.72 47.92 64.00 L 45.57 64.00 C 43.99 60.44 40.73 58.30 37.26 56.84 C 31.98 54.63 28.99 48.88 29.30 43.29 C 30.98 43.20 32.65 42.96 34.30 42.62 Z" />
</g>
</svg>
