<?xml version="1.0" encoding="UTF-8" ?>
<!DOCTYPE svg PUBLIC "-//W3C//DTD SVG 1.1//EN" "http://www.w3.org/Graphics/SVG/1.1/DTD/svg11.dtd">
<svg width="64pt" height="64pt" viewBox="0 0 64 64" version="1.1" xmlns="http://www.w3.org/2000/svg">
<g id="#4d7f1cff">
<path fill="#4d7f1c" opacity="1.00" d=" M 25.71 5.80 C 29.14 2.64 33.94 3.20 37.71 5.44 C 37.74 6.61 37.83 7.77 37.96 8.93 C 38.68 10.36 40.48 10.50 41.81 11.04 C 38.63 12.13 35.57 13.52 32.57 15.02 C 29.73 13.19 26.38 12.59 23.18 11.66 C 24.14 10.93 25.09 10.17 26.01 9.39 C 25.94 8.49 25.79 6.70 25.71 5.80 Z" />
</g>
<g id="#612504dc">
<path fill="#612504" opacity="0.86" d=" M 14.37 15.33 C 17.89 12.71 22.06 11.22 26.01 9.39 C 25.09 10.17 24.14 10.93 23.18 11.66 C 26.38 12.59 29.73 13.19 32.57 15.02 C 35.57 13.52 38.63 12.13 41.81 11.04 C 47.83 13.53 53.47 17.42 56.82 23.13 C 62.09 31.39 62.56 43.17 56.19 50.98 C 50.67 57.84 41.58 60.62 33.05 60.84 C 25.06 60.97 16.56 59.13 10.43 53.70 C 6.44 50.28 3.85 45.32 3.32 40.09 C 2.10 30.63 6.71 20.88 14.37 15.33 M 19.71 13.24 C 18.83 13.96 17.91 14.63 17.10 15.41 C 6.87 20.26 1.83 33.60 5.74 44.14 C 7.82 49.68 13.00 53.08 17.68 56.29 C 20.12 58.07 23.27 57.55 26.10 57.66 L 26.33 58.65 C 28.85 59.21 31.44 59.66 34.03 59.39 C 35.22 59.14 37.52 59.34 37.63 57.66 C 40.56 57.56 43.82 58.10 46.37 56.26 C 50.05 53.78 53.82 51.15 56.47 47.53 C 63.36 36.86 58.25 20.82 46.96 15.42 C 46.08 14.62 45.10 13.93 44.17 13.19 C 39.88 11.10 35.96 14.13 32.02 15.47 C 27.85 14.88 24.06 10.84 19.71 13.24 Z" />
</g>
<g id="#c76114ff">
<path fill="#c76114" opacity="1.00" d=" M 19.71 13.24 C 24.06 10.84 27.85 14.88 32.02 15.47 C 35.96 14.13 39.88 11.10 44.17 13.19 C 43.39 13.46 41.83 14.01 41.05 14.28 C 42.53 17.38 44.53 20.18 46.29 23.12 C 46.26 25.56 46.00 27.99 45.76 30.41 C 45.47 27.58 46.38 24.14 44.16 21.88 C 42.89 20.33 40.69 20.49 38.94 19.95 C 39.13 18.06 38.32 16.33 37.56 14.66 C 35.75 15.71 33.93 16.77 32.11 17.81 C 30.04 16.88 28.05 15.04 25.64 15.39 C 25.25 16.94 25.04 18.53 24.81 20.11 C 23.67 20.26 22.53 20.40 21.39 20.53 C 20.45 21.49 19.53 22.45 18.60 23.40 C 18.67 22.77 18.81 21.49 18.89 20.85 C 20.27 18.64 21.71 16.47 23.02 14.22 C 22.20 13.97 20.54 13.49 19.71 13.24 Z" />
</g>
<g id="#f68421ff">
<path fill="#f68421" opacity="1.00" d=" M 17.10 15.41 C 17.91 14.63 18.83 13.96 19.71 13.24 C 20.54 13.49 22.20 13.97 23.02 14.22 C 21.71 16.47 20.27 18.64 18.89 20.85 C 15.51 26.63 13.75 33.64 14.63 40.33 C 14.10 40.29 13.03 40.20 12.50 40.16 C 12.93 41.01 13.35 41.88 13.75 42.75 C 14.16 44.07 14.51 45.41 14.80 46.77 L 15.17 45.32 C 17.21 48.38 20.03 50.80 23.18 52.66 C 20.81 52.58 18.43 53.29 16.07 53.02 C 11.47 50.09 10.34 44.09 10.10 39.03 C 9.49 30.61 12.30 22.26 17.10 15.41 Z" />
</g>
<g id="#f58320ff">
<path fill="#f58320" opacity="1.00" d=" M 41.05 14.28 C 41.83 14.01 43.39 13.46 44.17 13.19 C 45.10 13.93 46.08 14.62 46.96 15.42 C 52.98 23.97 55.57 35.00 53.05 45.23 C 52.18 48.21 50.71 51.24 48.10 53.07 C 44.72 53.84 40.54 52.36 38.09 55.61 C 33.98 55.41 29.87 55.74 25.81 56.42 C 25.64 55.66 25.29 54.14 25.12 53.38 C 27.12 53.94 29.17 54.34 31.20 54.76 C 31.54 53.52 31.87 52.29 32.20 51.05 C 34.87 51.18 37.77 50.97 39.97 52.81 C 41.41 52.08 42.88 51.38 44.19 50.43 C 47.11 48.51 49.15 45.59 50.54 42.43 C 50.91 41.66 51.28 40.89 51.64 40.11 C 50.91 40.30 49.44 40.68 48.71 40.87 C 49.33 39.45 50.06 37.95 49.77 36.35 C 49.23 31.81 48.06 27.34 46.29 23.12 C 44.53 20.18 42.53 17.38 41.05 14.28 Z" />
</g>
<g id="#e5761eff">
<path fill="#e5761e" opacity="1.00" d=" M 25.64 15.39 C 28.05 15.04 30.04 16.88 32.11 17.81 C 33.93 16.77 35.75 15.71 37.56 14.66 C 38.32 16.33 39.13 18.06 38.94 19.95 C 37.30 23.02 36.07 27.23 38.93 30.03 C 40.60 32.55 43.46 30.77 45.76 30.41 C 46.00 27.99 46.26 25.56 46.29 23.12 C 48.06 27.34 49.23 31.81 49.77 36.35 C 50.06 37.95 49.33 39.45 48.71 40.87 C 49.44 40.68 50.91 40.30 51.64 40.11 C 51.28 40.89 50.91 41.66 50.54 42.43 C 48.83 42.94 47.14 43.47 45.42 43.95 C 44.03 40.55 44.48 36.82 44.59 33.25 C 43.55 33.18 42.51 33.12 41.47 33.05 C 41.46 37.00 41.34 40.95 41.07 44.90 C 37.37 45.28 33.64 45.14 29.93 45.40 C 29.74 45.79 29.35 46.57 29.15 46.96 L 28.53 48.15 C 27.98 48.08 26.89 47.94 26.35 47.87 C 26.14 41.20 25.90 34.52 26.58 27.88 C 27.04 25.13 26.44 22.37 24.81 20.11 C 25.04 18.53 25.25 16.94 25.64 15.39 M 28.15 39.47 C 30.69 40.44 33.33 40.42 35.87 39.44 C 35.52 36.77 33.81 34.69 32.02 32.81 C 30.18 34.67 28.47 36.78 28.15 39.47 Z" />
</g>
<g id="#c86310ff">
<path fill="#c86310" opacity="1.00" d=" M 5.74 44.14 C 1.83 33.60 6.87 20.26 17.10 15.41 C 12.30 22.26 9.49 30.61 10.10 39.03 C 10.34 44.09 11.47 50.09 16.07 53.02 C 18.43 53.29 20.81 52.58 23.18 52.66 C 23.66 52.84 24.63 53.20 25.12 53.38 C 25.29 54.14 25.64 55.66 25.81 56.42 C 25.88 56.73 26.03 57.35 26.10 57.66 C 23.27 57.55 20.12 58.07 17.68 56.29 C 13.00 53.08 7.82 49.68 5.74 44.14 Z" />
<path fill="#c86310" opacity="1.00" d=" M 46.96 15.42 C 58.25 20.82 63.36 36.86 56.47 47.53 C 53.82 51.15 50.05 53.78 46.37 56.26 C 43.82 58.10 40.56 57.56 37.63 57.66 C 37.74 57.15 37.98 56.13 38.09 55.61 C 40.54 52.36 44.72 53.84 48.10 53.07 C 50.71 51.24 52.18 48.21 53.05 45.23 C 55.57 35.00 52.98 23.97 46.96 15.42 Z" />
</g>
<g id="#e3e42bff">
<path fill="#e3e42b" opacity="1.00" d=" M 21.39 20.53 C 22.53 20.40 23.67 20.26 24.81 20.11 C 26.44 22.37 27.04 25.13 26.58 27.88 C 25.58 29.18 24.50 30.48 23.09 31.36 C 21.45 31.15 19.85 30.74 18.25 30.37 C 18.27 28.05 18.40 25.72 18.60 23.40 C 19.53 22.45 20.45 21.49 21.39 20.53 Z" />
<path fill="#e3e42b" opacity="1.00" d=" M 38.93 30.03 C 36.07 27.23 37.30 23.02 38.94 19.95 C 40.69 20.49 42.89 20.33 44.16 21.88 C 46.38 24.14 45.47 27.58 45.76 30.41 C 43.46 30.77 40.60 32.55 38.93 30.03 Z" />
</g>
<g id="#e3751dff">
<path fill="#e3751d" opacity="1.00" d=" M 14.63 40.33 C 13.75 33.64 15.51 26.63 18.89 20.85 C 18.81 21.49 18.67 22.77 18.60 23.40 C 18.40 25.72 18.27 28.05 18.25 30.37 C 19.75 31.23 21.31 31.95 22.86 32.72 C 21.66 32.88 20.47 33.04 19.27 33.20 C 19.12 36.42 18.95 39.64 18.78 42.86 C 17.10 42.82 15.43 42.78 13.75 42.75 C 13.35 41.88 12.93 41.01 12.50 40.16 C 13.03 40.20 14.10 40.29 14.63 40.33 Z" />
</g>
<g id="#fa8622ff">
<path fill="#fa8622" opacity="1.00" d=" M 23.09 31.36 C 24.50 30.48 25.58 29.18 26.58 27.88 C 25.90 34.52 26.14 41.20 26.35 47.87 C 25.63 47.78 24.19 47.61 23.47 47.53 C 23.04 42.60 22.92 37.66 22.86 32.72 C 21.31 31.95 19.75 31.23 18.25 30.37 C 19.85 30.74 21.45 31.15 23.09 31.36 Z" />
</g>
<g id="#cd6517ff">
<path fill="#cd6517" opacity="1.00" d=" M 19.27 33.20 C 20.47 33.04 21.66 32.88 22.86 32.72 C 22.92 37.66 23.04 42.60 23.47 47.53 C 24.19 47.61 25.63 47.78 26.35 47.87 C 26.89 47.94 27.98 48.08 28.53 48.15 C 26.55 48.65 24.50 48.67 22.47 48.72 C 22.08 47.69 21.68 46.67 21.29 45.65 C 19.35 45.12 17.41 44.57 15.48 44.02 L 15.17 45.32 L 14.80 46.77 C 14.51 45.41 14.16 44.07 13.75 42.75 C 15.43 42.78 17.10 42.82 18.78 42.86 C 18.95 39.64 19.12 36.42 19.27 33.20 Z" />
</g>
<g id="#ecfb31ff">
<path fill="#ecfb31" opacity="1.00" d=" M 28.15 39.47 C 28.47 36.78 30.18 34.67 32.02 32.81 C 33.81 34.69 35.52 36.77 35.87 39.44 C 33.33 40.42 30.69 40.44 28.15 39.47 Z" />
</g>
<g id="#bf5b14ff">
<path fill="#bf5b14" opacity="1.00" d=" M 41.47 33.05 C 42.51 33.12 43.55 33.18 44.59 33.25 C 44.48 36.82 44.03 40.55 45.42 43.95 C 43.98 44.31 42.53 44.65 41.07 44.90 C 41.34 40.95 41.46 37.00 41.47 33.05 Z" />
</g>
<g id="#d6ce26ff">
<path fill="#d6ce26" opacity="1.00" d=" M 45.42 43.95 C 47.14 43.47 48.83 42.94 50.54 42.43 C 49.15 45.59 47.11 48.51 44.19 50.43 C 44.75 49.40 45.27 48.36 45.80 47.31 C 40.26 46.90 34.70 46.42 29.15 46.96 C 29.35 46.57 29.74 45.79 29.93 45.40 C 33.64 45.14 37.37 45.28 41.07 44.90 C 42.53 44.65 43.98 44.31 45.42 43.95 Z" />
</g>
<g id="#e9f42fff">
<path fill="#e9f42f" opacity="1.00" d=" M 15.48 44.02 C 17.41 44.57 19.35 45.12 21.29 45.65 C 21.68 46.67 22.08 47.69 22.47 48.72 C 24.50 48.67 26.55 48.65 28.53 48.15 L 29.15 46.96 C 34.70 46.42 40.26 46.90 45.80 47.31 C 45.27 48.36 44.75 49.40 44.19 50.43 C 42.88 51.38 41.41 52.08 39.97 52.81 C 37.77 50.97 34.87 51.18 32.20 51.05 C 31.87 52.29 31.54 53.52 31.20 54.76 C 29.17 54.34 27.12 53.94 25.12 53.38 C 24.63 53.20 23.66 52.84 23.18 52.66 C 20.03 50.80 17.21 48.38 15.17 45.32 L 15.48 44.02 Z" />
</g>
<g id="#c8620eff">
<path fill="#c8620e" opacity="1.00" d=" M 25.81 56.42 C 29.87 55.74 33.98 55.41 38.09 55.61 C 37.98 56.13 37.74 57.15 37.63 57.66 C 37.52 59.34 35.22 59.14 34.03 59.39 C 31.44 59.66 28.85 59.21 26.33 58.65 L 26.10 57.66 C 26.03 57.35 25.88 56.73 25.81 56.42 Z" />
</g>
</svg>
