<?xml version="1.0" encoding="UTF-8" ?>
<!DOCTYPE svg PUBLIC "-//W3C//DTD SVG 1.1//EN" "http://www.w3.org/Graphics/SVG/1.1/DTD/svg11.dtd">
<svg width="64pt" height="64pt" viewBox="0 0 64 64" version="1.1" xmlns="http://www.w3.org/2000/svg">
<g id="#7b5928fa">
<path fill="#7b5928" opacity="0.98" d=" M 7.93 0.00 L 12.89 0.00 C 13.50 5.25 13.82 10.57 15.17 15.70 C 15.78 18.04 13.95 22.21 19.92 18.97 C 24.02 15.64 27.86 11.71 32.91 9.80 C 31.72 12.59 30.33 15.28 29.12 18.05 C 36.66 17.33 45.80 14.66 51.15 21.75 C 43.54 20.59 36.03 23.33 28.61 24.50 C 22.62 23.19 22.05 30.48 17.25 31.54 C 15.40 37.88 19.24 43.68 18.27 49.89 C 18.50 54.64 19.37 59.32 20.16 64.00 L 14.83 64.00 C 13.24 58.33 13.39 52.32 11.90 46.62 C 11.78 30.96 7.53 15.70 7.93 0.00 Z" />
<path fill="#7b5928" opacity="0.98" d=" M 42.02 27.02 C 44.27 27.85 46.60 28.02 48.81 26.97 C 47.53 29.13 48.27 31.18 49.96 32.82 C 47.84 32.64 46.42 33.68 45.73 35.65 C 44.35 34.62 43.60 32.21 41.04 32.82 C 42.87 31.24 42.98 29.14 42.02 27.02 Z" />
<path fill="#7b5928" opacity="0.98" d=" M 25.29 29.33 C 26.37 28.85 27.20 29.15 27.78 30.22 C 34.13 39.69 45.65 45.38 57.02 45.13 C 56.67 51.27 50.08 54.61 45.01 56.91 C 33.48 53.53 24.73 44.48 18.00 34.95 C 18.61 31.95 22.54 30.33 25.29 29.33 Z" />
</g>
</svg>
