<?xml version="1.0" encoding="UTF-8" ?>
<!DOCTYPE svg PUBLIC "-//W3C//DTD SVG 1.1//EN" "http://www.w3.org/Graphics/SVG/1.1/DTD/svg11.dtd">
<svg width="64pt" height="64pt" viewBox="0 0 64 64" version="1.1" xmlns="http://www.w3.org/2000/svg">
<g id="#00000027">
<path fill="#000000" opacity="0.15" d=" M 2.19 4.29 C 3.09 3.52 3.70 1.97 5.07 2.08 C 21.71 1.88 38.36 2.02 55.01 2.01 C 57.76 0.50 62.29 2.77 62.00 5.98 C 62.00 22.66 62.07 39.33 61.95 56.00 C 62.88 59.06 61.25 61.54 59.96 64.00 L 4.05 64.00 C 3.28 62.39 2.03 60.87 2.01 59.01 C 2.07 40.77 1.76 22.53 2.19 4.29 M 5.00 3.02 L 5.00 4.00 C 4.75 4.25 4.24 4.75 3.99 5.01 L 3.02 5.00 C 2.96 23.33 3.01 41.66 2.99 59.98 L 3.94 60.10 C 3.96 60.56 4.01 61.50 4.03 61.96 L 5.00 61.99 L 5.02 62.95 C 23.01 63.09 41.01 62.98 59.00 62.98 L 58.99 62.00 C 59.26 61.51 59.79 60.54 60.06 60.05 L 61.00 60.00 C 60.99 41.66 61.03 23.33 60.98 5.00 L 60.01 5.01 C 59.76 4.76 59.25 4.25 59.00 4.00 L 58.98 3.05 C 40.99 2.91 23.00 3.02 5.00 3.02 Z" />
</g>
<g id="#0000005d">
<path fill="#000000" opacity="0.36" d=" M 5.00 3.02 C 23.00 3.02 40.99 2.91 58.98 3.05 L 59.00 4.00 C 41.00 4.00 23.00 4.01 5.00 4.00 L 5.00 3.02 Z" />
</g>
<g id="#fffffeff">
<path fill="#fffffe" opacity="1.00" d=" M 3.99 5.01 C 4.24 4.75 4.75 4.25 5.00 4.00 C 23.00 4.01 41.00 4.00 59.00 4.00 C 59.25 4.25 59.76 4.76 60.01 5.01 C 60.01 9.01 60.00 13.00 59.99 17.00 C 59.23 16.99 57.73 16.98 56.98 16.97 C 56.98 13.66 57.15 10.35 56.91 7.05 C 51.27 6.92 45.64 6.97 40.00 7.01 C 39.49 7.01 38.47 7.00 37.96 6.99 C 33.96 6.97 29.97 6.95 25.97 6.96 L 24.98 6.96 C 19.01 7.02 13.03 6.81 7.06 7.07 C 6.98 10.38 6.99 13.69 6.98 17.00 C 6.24 17.00 4.75 17.00 4.01 17.00 C 4.00 13.00 3.99 9.00 3.99 5.01 Z" />
</g>
<g id="#00000076">
<path fill="#000000" opacity="0.46" d=" M 3.02 5.00 L 3.99 5.01 C 3.99 9.00 4.00 13.00 4.01 17.00 C 3.99 24.00 3.96 31.01 4.02 38.01 C 3.99 45.37 4.00 52.73 3.94 60.10 L 2.99 59.98 C 3.01 41.66 2.96 23.33 3.02 5.00 Z" />
<path fill="#000000" opacity="0.46" d=" M 60.01 5.01 L 60.98 5.00 C 61.03 23.33 60.99 41.66 61.00 60.00 L 60.06 60.05 C 59.99 52.70 60.02 45.36 59.99 38.01 C 60.01 31.00 60.04 24.00 59.99 17.00 C 60.00 13.00 60.01 9.01 60.01 5.01 Z" />
</g>
<g id="#061f34ff">
<path fill="#061f34" opacity="1.00" d=" M 7.06 7.07 C 13.03 6.81 19.01 7.02 24.98 6.96 C 23.13 9.14 25.32 11.31 26.31 13.31 C 25.55 16.79 22.09 15.16 20.11 13.85 C 20.64 15.15 21.25 16.41 21.72 17.73 C 20.76 18.27 19.80 18.79 18.83 19.30 C 16.98 17.71 15.58 15.09 12.91 14.90 C 13.25 16.04 13.66 17.16 14.14 18.25 C 13.67 18.49 12.71 18.97 12.24 19.21 C 10.89 18.32 9.65 17.16 8.00 16.87 C 7.94 18.51 7.69 20.51 9.98 20.27 C 6.99 25.71 8.22 32.17 8.00 38.14 L 7.01 37.96 C 6.97 30.97 7.05 23.99 6.98 17.00 C 6.99 13.69 6.98 10.38 7.06 7.07 M 11.96 7.96 C 12.06 10.44 14.56 12.94 17.04 13.04 C 16.94 10.56 14.44 8.06 11.96 7.96 Z" />
</g>
<g id="#d0c847ff">
<path fill="#d0c847" opacity="1.00" d=" M 24.98 6.96 L 25.97 6.96 C 26.49 7.89 26.93 8.85 27.30 9.85 C 27.08 11.03 26.75 12.19 26.31 13.31 C 25.32 11.31 23.13 9.14 24.98 6.96 Z" />
</g>
<g id="#0b2838ff">
<path fill="#0b2838" opacity="1.00" d=" M 25.97 6.96 C 29.97 6.95 33.96 6.97 37.96 6.99 C 37.44 8.23 36.99 9.49 36.65 10.79 C 36.10 12.93 36.15 15.70 33.14 15.11 C 33.90 12.35 30.16 12.34 30.84 15.08 C 27.50 15.65 27.49 12.70 27.30 9.85 C 26.93 8.85 26.49 7.89 25.97 6.96 Z" />
</g>
<g id="#c9c044ff">
<path fill="#c9c044" opacity="1.00" d=" M 37.96 6.99 C 38.47 7.00 39.49 7.01 40.00 7.01 L 40.23 8.03 C 39.56 9.85 38.64 11.55 37.65 13.21 C 37.40 12.60 36.90 11.39 36.65 10.79 C 36.99 9.49 37.44 8.23 37.96 6.99 Z" />
</g>
<g id="#02060fff">
<path fill="#02060f" opacity="1.00" d=" M 40.00 7.01 C 45.64 6.97 51.27 6.92 56.91 7.05 C 57.15 10.35 56.98 13.66 56.98 16.97 L 56.00 17.15 C 56.12 14.05 57.56 6.99 52.25 8.03 C 51.72 8.02 50.64 8.01 50.10 8.00 C 46.81 7.98 43.52 7.99 40.23 8.03 L 40.00 7.01 Z" />
</g>
<g id="#334539ff">
<path fill="#334539" opacity="1.00" d=" M 11.96 7.96 C 14.44 8.06 16.94 10.56 17.04 13.04 C 14.56 12.94 12.06 10.44 11.96 7.96 Z" />
</g>
<g id="#0c2b40ff">
<path fill="#0c2b40" opacity="1.00" d=" M 40.23 8.03 C 43.52 7.99 46.81 7.98 50.10 8.00 C 49.17 9.24 48.05 10.43 47.90 12.05 C 50.33 12.37 51.52 9.92 52.25 8.03 C 57.56 6.99 56.12 14.05 56.00 17.15 C 54.73 17.75 52.04 17.99 52.30 19.83 C 53.59 20.64 55.06 19.75 55.99 18.81 C 55.99 20.20 55.99 21.59 55.98 22.98 C 52.02 24.60 49.32 21.50 45.89 20.25 C 46.44 19.99 47.55 19.49 48.10 19.23 C 49.60 18.28 51.01 16.84 51.14 14.97 C 49.21 15.80 47.48 16.98 45.81 18.23 C 44.44 19.65 42.79 19.75 41.17 18.60 C 40.88 18.27 40.29 17.60 40.00 17.27 C 38.91 16.05 36.70 15.14 37.65 13.21 C 38.64 11.55 39.56 9.85 40.23 8.03 Z" />
</g>
<g id="#364739ff">
<path fill="#364739" opacity="1.00" d=" M 50.10 8.00 C 50.64 8.01 51.72 8.02 52.25 8.03 C 51.52 9.92 50.33 12.37 47.90 12.05 C 48.05 10.43 49.17 9.24 50.10 8.00 Z" />
</g>
<g id="#3a5853ff">
<path fill="#3a5853" opacity="1.00" d=" M 27.30 9.85 C 27.49 12.70 27.50 15.65 30.84 15.08 C 30.87 15.51 30.93 16.38 30.95 16.81 C 29.00 16.98 27.36 17.95 25.87 19.14 C 24.88 18.39 23.90 17.64 22.88 16.95 C 23.27 17.99 23.71 19.01 24.21 20.01 C 23.80 22.19 22.05 24.02 19.81 24.28 C 18.86 24.40 17.91 24.56 16.97 24.76 C 14.30 25.49 10.12 19.81 18.61 22.57 C 20.37 22.39 19.62 21.17 19.10 20.12 L 18.83 19.30 C 19.80 18.79 20.76 18.27 21.72 17.73 C 21.25 16.41 20.64 15.15 20.11 13.85 C 22.09 15.16 25.55 16.79 26.31 13.31 C 26.75 12.19 27.08 11.03 27.30 9.85 Z" />
</g>
<g id="#445e52ff">
<path fill="#445e52" opacity="1.00" d=" M 33.14 15.11 C 36.15 15.70 36.10 12.93 36.65 10.79 C 36.90 11.39 37.40 12.60 37.65 13.21 C 36.70 15.14 38.91 16.05 40.00 17.27 C 39.12 18.23 38.21 19.17 37.28 20.08 C 35.88 19.58 34.45 19.17 33.00 18.85 C 33.01 18.39 33.02 17.47 33.02 17.01 C 33.05 16.53 33.11 15.58 33.14 15.11 Z" />
</g>
<g id="#90984fff">
<path fill="#90984f" opacity="1.00" d=" M 30.84 15.08 C 30.16 12.34 33.90 12.35 33.14 15.11 C 33.11 15.58 33.05 16.53 33.02 17.01 C 32.50 16.96 31.47 16.86 30.95 16.81 C 30.93 16.38 30.87 15.51 30.84 15.08 Z" />
</g>
<g id="#d4d04eff">
<path fill="#d4d04e" opacity="1.00" d=" M 12.91 14.90 C 15.58 15.09 16.98 17.71 18.83 19.30 L 19.10 20.12 C 17.42 19.56 15.78 18.91 14.14 18.25 C 13.66 17.16 13.25 16.04 12.91 14.90 Z" />
</g>
<g id="#e7e04fff">
<path fill="#e7e04f" opacity="1.00" d=" M 45.81 18.23 C 47.48 16.98 49.21 15.80 51.14 14.97 C 51.01 16.84 49.60 18.28 48.10 19.23 C 47.53 18.98 46.38 18.48 45.81 18.23 Z" />
</g>
<g id="#f6f6f6ff">
<path fill="#f6f6f6" opacity="1.00" d=" M 4.01 17.00 C 4.75 17.00 6.24 17.00 6.98 17.00 C 7.05 23.99 6.97 30.97 7.01 37.96 C 6.26 37.97 4.76 38.00 4.02 38.01 C 3.96 31.01 3.99 24.00 4.01 17.00 Z" />
<path fill="#f6f6f6" opacity="1.00" d=" M 56.98 16.97 C 57.73 16.98 59.23 16.99 59.99 17.00 C 60.04 24.00 60.01 31.00 59.99 38.01 C 59.24 38.00 57.74 37.97 57.00 37.96 C 57.01 30.96 56.99 23.96 56.98 16.97 Z" />
</g>
<g id="#2e453eff">
<path fill="#2e453e" opacity="1.00" d=" M 8.00 16.87 C 9.65 17.16 10.89 18.32 12.24 19.21 C 11.67 19.47 10.54 20.00 9.98 20.27 C 7.69 20.51 7.94 18.51 8.00 16.87 Z" />
</g>
<g id="#d3cd57ff">
<path fill="#d3cd57" opacity="1.00" d=" M 22.88 16.95 C 23.90 17.64 24.88 18.39 25.87 19.14 C 26.17 19.39 26.78 19.89 27.09 20.14 L 26.78 20.81 C 26.59 21.15 26.20 21.81 26.01 22.14 C 25.40 21.43 24.80 20.72 24.21 20.01 C 23.71 19.01 23.27 17.99 22.88 16.95 Z" />
<path fill="#d3cd57" opacity="1.00" d=" M 40.00 17.27 C 40.29 17.60 40.88 18.27 41.17 18.60 C 40.20 19.54 39.29 20.56 38.69 21.78 L 37.88 21.90 C 37.66 21.62 37.22 21.06 37.01 20.78 L 37.28 20.08 C 38.21 19.17 39.12 18.23 40.00 17.27 Z" />
</g>
<g id="#59715bff">
<path fill="#59715b" opacity="1.00" d=" M 25.87 19.14 C 27.36 17.95 29.00 16.98 30.95 16.81 C 30.97 17.34 30.99 18.39 31.00 18.91 C 29.69 19.30 28.39 19.73 27.09 20.14 C 26.78 19.89 26.17 19.39 25.87 19.14 Z" />
</g>
<g id="#e1d95dff">
<path fill="#e1d95d" opacity="1.00" d=" M 30.95 16.81 C 31.47 16.86 32.50 16.96 33.02 17.01 C 33.02 17.47 33.01 18.39 33.00 18.85 C 32.96 19.40 32.88 20.50 32.84 21.05 C 32.42 21.05 31.58 21.05 31.16 21.05 C 31.12 20.52 31.04 19.45 31.00 18.91 C 30.99 18.39 30.97 17.34 30.95 16.81 Z" />
</g>
<g id="#354b40ff">
<path fill="#354b40" opacity="1.00" d=" M 52.30 19.83 C 52.04 17.99 54.73 17.75 56.00 17.15 C 56.00 17.56 55.99 18.39 55.99 18.81 C 55.06 19.75 53.59 20.64 52.30 19.83 Z" />
</g>
<g id="#05162bff">
<path fill="#05162b" opacity="1.00" d=" M 56.00 17.15 L 56.98 16.97 C 56.99 23.96 57.01 30.96 57.00 37.96 L 56.03 38.14 C 55.99 33.08 56.03 28.03 55.98 22.98 C 55.99 21.59 55.99 20.20 55.99 18.81 C 55.99 18.39 56.00 17.56 56.00 17.15 Z" />
</g>
<g id="#0a3856ff">
<path fill="#0a3856" opacity="1.00" d=" M 14.14 18.25 C 15.78 18.91 17.42 19.56 19.10 20.12 C 19.62 21.17 20.37 22.39 18.61 22.57 C 10.12 19.81 14.30 25.49 16.97 24.76 C 16.41 26.78 14.75 27.26 12.83 27.08 C 11.50 27.14 10.01 26.96 9.08 28.13 C 9.13 30.22 11.49 29.92 12.92 29.57 C 14.72 31.05 11.70 31.83 10.92 32.94 C 9.06 33.94 9.37 36.16 8.95 37.91 L 8.00 38.14 C 8.22 32.17 6.99 25.71 9.98 20.27 C 10.54 20.00 11.67 19.47 12.24 19.21 C 12.71 18.97 13.67 18.49 14.14 18.25 Z" />
</g>
<g id="#4d6859ff">
<path fill="#4d6859" opacity="1.00" d=" M 41.17 18.60 C 42.79 19.75 44.44 19.65 45.81 18.23 C 46.38 18.48 47.53 18.98 48.10 19.23 C 47.55 19.49 46.44 19.99 45.89 20.25 C 43.90 20.66 44.53 22.98 44.20 24.42 C 42.12 24.09 40.34 23.02 38.69 21.78 C 39.29 20.56 40.20 19.54 41.17 18.60 Z" />
</g>
<g id="#919f6dff">
<path fill="#919f6d" opacity="1.00" d=" M 27.09 20.14 C 28.39 19.73 29.69 19.30 31.00 18.91 C 31.04 19.45 31.12 20.52 31.16 21.05 C 30.22 23.92 28.36 22.01 26.78 20.81 L 27.09 20.14 Z" />
</g>
<g id="#8e9c6cff">
<path fill="#8e9c6c" opacity="1.00" d=" M 33.00 18.85 C 34.45 19.17 35.88 19.58 37.28 20.08 L 37.01 20.78 C 35.53 22.15 33.77 23.88 32.84 21.05 C 32.88 20.50 32.96 19.40 33.00 18.85 Z" />
</g>
<g id="#778a61ff">
<path fill="#778a61" opacity="1.00" d=" M 24.21 20.01 C 24.80 20.72 25.40 21.43 26.01 22.14 L 26.35 22.90 C 25.08 25.61 22.39 24.89 19.81 24.28 C 22.05 24.02 23.80 22.19 24.21 20.01 Z" />
</g>
<g id="#144159ff">
<path fill="#144159" opacity="1.00" d=" M 44.20 24.42 C 44.53 22.98 43.90 20.66 45.89 20.25 C 49.32 21.50 52.02 24.60 55.98 22.98 C 56.03 28.03 55.99 33.08 56.03 38.14 L 55.13 37.92 C 55.22 35.38 53.97 33.21 52.74 31.09 C 53.54 30.43 54.32 29.76 55.09 29.06 C 53.68 27.91 51.82 28.09 50.12 28.07 C 47.88 28.43 46.60 27.17 45.99 25.15 C 48.21 23.36 45.50 24.24 44.20 24.42 Z" />
</g>
<g id="#f2ea86ff">
<path fill="#f2ea86" opacity="1.00" d=" M 26.01 22.14 C 26.20 21.81 26.59 21.15 26.78 20.81 C 28.36 22.01 30.22 23.92 31.16 21.05 C 31.58 21.05 32.42 21.05 32.84 21.05 C 33.77 23.88 35.53 22.15 37.01 20.78 C 37.22 21.06 37.66 21.62 37.88 21.90 L 37.63 22.77 C 35.75 25.88 38.67 26.32 41.20 26.69 C 37.89 27.91 38.94 31.17 42.19 31.29 C 40.86 31.51 38.20 31.95 36.87 32.17 C 37.27 33.59 37.95 34.89 38.63 36.19 L 39.04 36.98 C 38.78 37.22 38.27 37.71 38.01 37.95 C 37.39 36.40 36.16 35.70 34.66 36.72 C 32.83 36.93 31.00 36.96 29.17 36.90 C 28.48 35.19 27.00 37.88 26.04 38.22 C 25.77 37.91 25.21 37.30 24.93 37.00 L 25.36 36.17 C 26.05 34.89 26.73 33.60 27.12 32.19 C 25.79 31.93 23.13 31.41 21.80 31.15 C 24.67 30.74 26.16 28.01 22.90 26.66 C 25.20 26.28 28.41 25.83 26.35 22.90 L 26.01 22.14 M 31.28 24.28 C 29.03 24.92 27.64 26.84 27.01 29.00 C 27.70 31.91 30.64 34.62 33.74 33.79 C 34.80 32.83 35.82 31.81 36.78 30.75 C 38.42 27.32 34.28 23.97 31.28 24.28 Z" />
</g>
<g id="#879668ff">
<path fill="#879668" opacity="1.00" d=" M 37.88 21.90 L 38.69 21.78 C 40.34 23.02 42.12 24.09 44.20 24.42 C 41.67 24.77 37.40 26.58 37.63 22.77 L 37.88 21.90 Z" />
</g>
<g id="#c8c867ff">
<path fill="#c8c867" opacity="1.00" d=" M 26.35 22.90 C 28.41 25.83 25.20 26.28 22.90 26.66 L 22.05 26.87 C 21.51 26.64 20.43 26.20 19.88 25.97 C 18.92 25.55 17.95 25.14 16.97 24.76 C 17.91 24.56 18.86 24.40 19.81 24.28 C 22.39 24.89 25.08 25.61 26.35 22.90 Z" />
</g>
<g id="#cccc67ff">
<path fill="#cccc67" opacity="1.00" d=" M 41.20 26.69 C 38.67 26.32 35.75 25.88 37.63 22.77 C 37.40 26.58 41.67 24.77 44.20 24.42 C 45.50 24.24 48.21 23.36 45.99 25.15 C 45.50 25.40 44.51 25.91 44.02 26.16 C 43.09 26.37 42.15 26.55 41.20 26.69 Z" />
</g>
<g id="#fffad5ff">
<path fill="#fffad5" opacity="1.00" d=" M 31.28 24.28 C 34.28 23.97 38.42 27.32 36.78 30.75 C 35.82 31.81 34.80 32.83 33.74 33.79 C 30.64 34.62 27.70 31.91 27.01 29.00 C 27.64 26.84 29.03 24.92 31.28 24.28 Z" />
</g>
<g id="#315d68ff">
<path fill="#315d68" opacity="1.00" d=" M 16.97 24.76 C 17.95 25.14 18.92 25.55 19.88 25.97 C 19.15 27.84 19.00 29.84 18.90 31.82 L 18.22 32.03 C 17.46 31.00 16.70 29.96 15.88 28.97 C 15.13 28.01 13.84 27.72 12.83 27.08 C 14.75 27.26 16.41 26.78 16.97 24.76 Z" />
</g>
<g id="#3a656aff">
<path fill="#3a656a" opacity="1.00" d=" M 44.02 26.16 C 44.51 25.91 45.50 25.40 45.99 25.15 C 46.60 27.17 47.88 28.43 50.12 28.07 C 49.37 28.60 48.63 29.15 47.90 29.71 C 47.12 30.49 46.82 31.51 47.00 32.79 C 46.02 32.46 45.05 32.15 44.07 31.84 C 44.02 29.95 44.00 28.05 44.02 26.16 Z" />
</g>
<g id="#4e746dff">
<path fill="#4e746d" opacity="1.00" d=" M 19.88 25.97 C 20.43 26.20 21.51 26.64 22.05 26.87 C 21.98 28.30 21.90 29.72 21.80 31.15 C 20.83 31.35 19.86 31.57 18.90 31.82 C 19.00 29.84 19.15 27.84 19.88 25.97 Z" />
</g>
<g id="#67856eff">
<path fill="#67856e" opacity="1.00" d=" M 41.20 26.69 C 42.15 26.55 43.09 26.37 44.02 26.16 C 44.00 28.05 44.02 29.95 44.07 31.84 C 43.60 31.70 42.66 31.43 42.19 31.29 C 41.90 29.75 41.57 28.22 41.20 26.69 Z" />
</g>
<g id="#cdce52ff">
<path fill="#cdce52" opacity="1.00" d=" M 9.08 28.13 C 10.01 26.96 11.50 27.14 12.83 27.08 C 13.84 27.72 15.13 28.01 15.88 28.97 C 14.89 29.14 13.90 29.34 12.92 29.57 C 11.49 29.92 9.13 30.22 9.08 28.13 Z" />
</g>
<g id="#91a477ff">
<path fill="#91a477" opacity="1.00" d=" M 22.05 26.87 L 22.90 26.66 C 26.16 28.01 24.67 30.74 21.80 31.15 C 21.90 29.72 21.98 28.30 22.05 26.87 Z" />
</g>
<g id="#a2b179ff">
<path fill="#a2b179" opacity="1.00" d=" M 42.19 31.29 C 38.94 31.17 37.89 27.91 41.20 26.69 C 41.57 28.22 41.90 29.75 42.19 31.29 Z" />
</g>
<g id="#cdcc52ff">
<path fill="#cdcc52" opacity="1.00" d=" M 50.12 28.07 C 51.82 28.09 53.68 27.91 55.09 29.06 C 54.32 29.76 53.54 30.43 52.74 31.09 C 51.14 30.58 49.54 30.09 47.90 29.71 C 48.63 29.15 49.37 28.60 50.12 28.07 Z" />
</g>
<g id="#084c7cff">
<path fill="#084c7c" opacity="1.00" d=" M 12.92 29.57 C 13.90 29.34 14.89 29.14 15.88 28.97 C 16.70 29.96 17.46 31.00 18.22 32.03 C 17.43 32.66 16.65 33.30 15.88 33.96 C 16.62 33.88 18.11 33.73 18.85 33.65 C 18.60 35.07 18.40 36.49 18.10 37.90 C 16.41 38.63 14.65 39.19 13.06 40.13 C 12.78 41.63 13.47 42.37 15.13 42.33 C 14.51 43.65 13.85 44.94 13.21 46.24 C 12.70 47.18 12.16 48.12 11.61 49.04 C 9.86 51.16 8.96 54.69 12.11 56.02 C 10.75 56.01 9.40 55.96 8.04 55.88 C 7.94 50.96 7.93 46.05 8.04 41.14 C 9.95 40.08 11.92 38.95 13.15 37.08 C 11.74 37.30 10.35 37.63 8.95 37.91 C 9.37 36.16 9.06 33.94 10.92 32.94 C 11.70 31.83 14.72 31.05 12.92 29.57 Z" />
</g>
<g id="#064b7cff">
<path fill="#064b7c" opacity="1.00" d=" M 47.00 32.79 C 46.82 31.51 47.12 30.49 47.90 29.71 C 49.54 30.09 51.14 30.58 52.74 31.09 C 53.97 33.21 55.22 35.38 55.13 37.92 C 53.70 37.64 52.28 37.30 50.85 37.08 C 52.08 38.95 54.04 40.08 55.96 41.14 C 55.94 46.05 56.23 50.98 55.92 55.89 C 54.58 55.97 53.23 56.01 51.88 56.02 C 55.08 54.68 54.05 51.16 52.48 48.93 C 51.98 47.99 51.46 47.06 50.91 46.15 C 50.21 44.89 49.50 43.63 48.85 42.34 C 53.91 41.54 48.39 38.00 45.96 37.74 C 45.61 36.38 45.38 35.01 45.11 33.64 C 46.44 33.77 49.25 34.62 47.00 32.79 Z" />
</g>
<g id="#b2bc70ff">
<path fill="#b2bc70" opacity="1.00" d=" M 18.90 31.82 C 19.86 31.57 20.83 31.35 21.80 31.15 C 23.13 31.41 25.79 31.93 27.12 32.19 C 26.73 33.60 26.05 34.89 25.36 36.17 C 24.87 32.71 22.08 32.16 18.85 33.65 C 18.11 33.73 16.62 33.88 15.88 33.96 C 16.65 33.30 17.43 32.66 18.22 32.03 L 18.90 31.82 Z" />
</g>
<g id="#bac172ff">
<path fill="#bac172" opacity="1.00" d=" M 42.19 31.29 C 42.66 31.43 43.60 31.70 44.07 31.84 C 45.05 32.15 46.02 32.46 47.00 32.79 C 49.25 34.62 46.44 33.77 45.11 33.64 C 41.84 32.05 39.14 32.76 38.63 36.19 C 37.95 34.89 37.27 33.59 36.87 32.17 C 38.20 31.95 40.86 31.51 42.19 31.29 Z" />
</g>
<g id="#658c80ff">
<path fill="#658c80" opacity="1.00" d=" M 18.85 33.65 C 22.08 32.16 24.87 32.71 25.36 36.17 L 24.93 37.00 L 24.22 37.47 C 22.70 35.79 21.36 33.75 18.85 33.65 Z" />
</g>
<g id="#698e7fff">
<path fill="#698e7f" opacity="1.00" d=" M 38.63 36.19 C 39.14 32.76 41.84 32.05 45.11 33.64 C 43.00 34.39 41.42 36.03 39.71 37.39 L 39.04 36.98 L 38.63 36.19 Z" />
</g>
<g id="#327088ff">
<path fill="#327088" opacity="1.00" d=" M 18.85 33.65 C 21.36 33.75 22.70 35.79 24.22 37.47 C 23.56 38.45 22.85 39.40 22.11 40.32 C 21.14 39.72 20.16 39.15 19.18 38.59 C 18.91 38.42 18.37 38.07 18.10 37.90 C 18.40 36.49 18.60 35.07 18.85 33.65 Z" />
</g>
<g id="#347087ff">
<path fill="#347087" opacity="1.00" d=" M 39.71 37.39 C 41.42 36.03 43.00 34.39 45.11 33.64 C 45.38 35.01 45.61 36.38 45.96 37.74 C 45.70 37.98 45.20 38.47 44.94 38.71 C 44.04 39.33 43.13 39.93 42.21 40.53 C 41.29 39.55 40.45 38.50 39.71 37.39 Z" />
</g>
<g id="#518a92ff">
<path fill="#518a92" opacity="1.00" d=" M 26.04 38.22 C 27.00 37.88 28.48 35.19 29.17 36.90 C 29.55 38.93 29.89 40.96 30.01 43.02 C 27.10 40.46 27.60 44.56 27.30 47.22 C 27.20 46.35 27.00 44.60 26.91 43.73 C 26.91 42.16 25.63 41.11 24.85 39.89 C 25.15 39.47 25.74 38.63 26.04 38.22 Z" />
</g>
<g id="#8daa82ff">
<path fill="#8daa82" opacity="1.00" d=" M 34.66 36.72 C 36.16 35.70 37.39 36.40 38.01 37.95 C 36.51 38.74 35.07 39.68 34.06 41.07 C 34.14 39.61 34.38 38.16 34.66 36.72 Z" />
</g>
<g id="#2a5b6cff">
<path fill="#2a5b6c" opacity="1.00" d=" M 8.95 37.91 C 10.35 37.63 11.74 37.30 13.15 37.08 C 11.92 38.95 9.95 40.08 8.04 41.14 C 8.03 40.39 8.01 38.89 8.00 38.14 L 8.95 37.91 Z" />
<path fill="#2a5b6c" opacity="1.00" d=" M 50.85 37.08 C 52.28 37.30 53.70 37.64 55.13 37.92 L 56.03 38.14 C 56.01 38.89 55.98 40.39 55.96 41.14 C 54.04 40.08 52.08 38.95 50.85 37.08 Z" />
</g>
<g id="#b3c06dff">
<path fill="#b3c06d" opacity="1.00" d=" M 24.22 37.47 L 24.93 37.00 C 25.21 37.30 25.77 37.91 26.04 38.22 C 25.74 38.63 25.15 39.47 24.85 39.89 C 23.70 40.67 21.50 43.43 22.11 40.32 C 22.85 39.40 23.56 38.45 24.22 37.47 Z" />
<path fill="#b3c06d" opacity="1.00" d=" M 39.04 36.98 L 39.71 37.39 C 40.45 38.50 41.29 39.55 42.21 40.53 C 41.90 40.83 41.27 41.45 40.96 41.76 C 39.95 40.51 38.94 39.26 38.01 37.95 C 38.27 37.71 38.78 37.22 39.04 36.98 Z" />
</g>
<g id="#e8e25cff">
<path fill="#e8e25c" opacity="1.00" d=" M 29.17 36.90 C 31.00 36.96 32.83 36.93 34.66 36.72 C 34.38 38.16 34.14 39.61 34.06 41.07 C 34.02 41.81 33.96 43.28 33.92 44.02 C 33.53 48.01 33.00 51.99 32.93 56.00 C 32.46 56.00 31.52 56.00 31.05 56.00 C 31.41 51.61 30.53 47.34 30.01 43.02 C 29.89 40.96 29.55 38.93 29.17 36.90 Z" />
</g>
<g id="#ecececff">
<path fill="#ececec" opacity="1.00" d=" M 4.02 38.01 C 4.76 38.00 6.26 37.97 7.01 37.96 C 7.09 44.29 6.75 50.63 7.08 56.95 C 8.56 56.97 11.51 57.00 12.99 57.01 C 25.66 57.00 38.34 57.01 51.02 57.01 C 52.50 56.99 55.46 56.95 56.94 56.93 C 57.09 50.61 57.00 44.28 57.00 37.96 C 57.74 37.97 59.24 38.00 59.99 38.01 C 60.02 45.36 59.99 52.70 60.06 60.05 L 59.23 60.30 C 41.10 59.80 22.94 59.87 4.81 60.21 L 3.94 60.10 C 4.00 52.73 3.99 45.37 4.02 38.01 Z" />
</g>
<g id="#022354ff">
<path fill="#022354" opacity="1.00" d=" M 7.01 37.96 L 8.00 38.14 C 8.01 38.89 8.03 40.39 8.04 41.14 C 7.93 46.05 7.94 50.96 8.04 55.88 C 9.40 55.96 10.75 56.01 12.11 56.02 L 13.05 56.05 L 12.99 57.01 C 11.51 57.00 8.56 56.97 7.08 56.95 C 6.75 50.63 7.09 44.29 7.01 37.96 Z" />
<path fill="#022354" opacity="1.00" d=" M 56.03 38.14 L 57.00 37.96 C 57.00 44.28 57.09 50.61 56.94 56.93 C 55.46 56.95 52.50 56.99 51.02 57.01 L 50.95 56.06 L 51.88 56.02 C 53.23 56.01 54.58 55.97 55.92 55.89 C 56.23 50.98 55.94 46.05 55.96 41.14 C 55.98 40.39 56.01 38.89 56.03 38.14 Z" />
</g>
<g id="#d8d858ff">
<path fill="#d8d858" opacity="1.00" d=" M 13.06 40.13 C 14.65 39.19 16.41 38.63 18.10 37.90 C 18.37 38.07 18.91 38.42 19.18 38.59 C 17.78 39.78 16.45 41.05 15.13 42.33 C 13.47 42.37 12.78 41.63 13.06 40.13 Z" />
</g>
<g id="#377d99ff">
<path fill="#377d99" opacity="1.00" d=" M 34.06 41.07 C 35.07 39.68 36.51 38.74 38.01 37.95 C 38.94 39.26 39.95 40.51 40.96 41.76 C 39.58 42.08 37.72 41.90 37.62 43.79 C 37.04 45.18 36.90 46.71 36.68 48.19 C 36.35 45.50 36.87 41.52 33.92 44.02 C 33.96 43.28 34.02 41.81 34.06 41.07 Z" />
</g>
<g id="#d0d35cff">
<path fill="#d0d35c" opacity="1.00" d=" M 44.94 38.71 C 45.20 38.47 45.70 37.98 45.96 37.74 C 48.39 38.00 53.91 41.54 48.85 42.34 C 47.58 41.10 46.29 39.87 44.94 38.71 Z" />
</g>
<g id="#065c9eff">
<path fill="#065c9e" opacity="1.00" d=" M 15.13 42.33 C 16.45 41.05 17.78 39.78 19.18 38.59 C 20.16 39.15 21.14 39.72 22.11 40.32 C 21.50 43.43 23.70 40.67 24.85 39.89 C 25.63 41.11 26.91 42.16 26.91 43.73 L 26.17 44.16 C 24.31 45.18 22.77 46.65 21.12 47.98 C 19.02 48.91 14.89 53.66 18.74 54.32 C 20.10 54.71 22.84 55.47 24.20 55.86 C 20.48 55.90 16.77 56.00 13.05 56.05 L 12.11 56.02 C 8.96 54.69 9.86 51.16 11.61 49.04 C 14.51 51.61 16.54 46.33 17.17 44.06 C 15.83 44.75 14.54 45.52 13.21 46.24 C 13.85 44.94 14.51 43.65 15.13 42.33 Z" />
</g>
<g id="#055b9dff">
<path fill="#055b9d" opacity="1.00" d=" M 42.21 40.53 C 43.13 39.93 44.04 39.33 44.94 38.71 C 46.29 39.87 47.58 41.10 48.85 42.34 C 49.50 43.63 50.21 44.89 50.91 46.15 C 49.53 45.50 48.19 44.76 46.82 44.09 C 47.46 46.39 49.67 51.82 52.48 48.93 C 54.05 51.16 55.08 54.68 51.88 56.02 L 50.95 56.06 C 47.23 56.03 43.51 55.98 39.80 55.88 C 42.07 55.81 44.18 55.33 46.14 54.42 C 48.32 52.33 44.90 49.11 42.86 48.03 C 42.82 45.12 39.76 44.70 37.62 43.79 C 37.72 41.90 39.58 42.08 40.96 41.76 C 41.27 41.45 41.90 40.83 42.21 40.53 Z" />
</g>
<g id="#0969b5ff">
<path fill="#0969b5" opacity="1.00" d=" M 27.30 47.22 C 27.60 44.56 27.10 40.46 30.01 43.02 C 30.53 47.34 31.41 51.61 31.05 56.00 L 30.05 56.00 C 30.03 54.32 30.03 52.64 29.92 50.97 C 27.16 50.58 27.83 54.24 26.90 55.95 C 26.23 55.93 24.88 55.88 24.20 55.86 C 22.84 55.47 20.10 54.71 18.74 54.32 C 19.90 52.36 20.92 50.28 21.12 47.98 C 22.77 46.65 24.31 45.18 26.17 44.16 C 25.27 46.40 23.94 48.56 23.93 51.05 C 26.31 51.54 27.24 49.14 27.30 47.22 Z" />
</g>
<g id="#0868b5ff">
<path fill="#0868b5" opacity="1.00" d=" M 33.92 44.02 C 36.87 41.52 36.35 45.50 36.68 48.19 C 36.87 49.91 38.24 51.38 40.06 51.05 C 40.08 48.41 38.54 46.17 37.62 43.79 C 39.76 44.70 42.82 45.12 42.86 48.03 C 43.08 50.50 44.02 52.97 46.14 54.42 C 44.18 55.33 42.07 55.81 39.80 55.88 C 39.12 55.89 37.77 55.93 37.09 55.95 C 36.17 54.24 36.84 50.58 34.08 50.97 C 33.97 52.64 33.97 54.32 33.94 56.00 L 32.93 56.00 C 33.00 51.99 33.53 48.01 33.92 44.02 Z" />
</g>
<g id="#306e88ff">
<path fill="#306e88" opacity="1.00" d=" M 13.21 46.24 C 14.54 45.52 15.83 44.75 17.17 44.06 C 16.54 46.33 14.51 51.61 11.61 49.04 C 12.16 48.12 12.70 47.18 13.21 46.24 Z" />
</g>
<g id="#cbd363ff">
<path fill="#cbd363" opacity="1.00" d=" M 26.17 44.16 L 26.91 43.73 C 27.00 44.60 27.20 46.35 27.30 47.22 C 27.24 49.14 26.31 51.54 23.93 51.05 C 23.94 48.56 25.27 46.40 26.17 44.16 Z" />
<path fill="#cbd363" opacity="1.00" d=" M 36.68 48.19 C 36.90 46.71 37.04 45.18 37.62 43.79 C 38.54 46.17 40.08 48.41 40.06 51.05 C 38.24 51.38 36.87 49.91 36.68 48.19 Z" />
</g>
<g id="#2f6d88ff">
<path fill="#2f6d88" opacity="1.00" d=" M 46.82 44.09 C 48.19 44.76 49.53 45.50 50.91 46.15 C 51.46 47.06 51.98 47.99 52.48 48.93 C 49.67 51.82 47.46 46.39 46.82 44.09 Z" />
</g>
<g id="#31789aff">
<path fill="#31789a" opacity="1.00" d=" M 18.74 54.32 C 14.89 53.66 19.02 48.91 21.12 47.98 C 20.92 50.28 19.90 52.36 18.74 54.32 Z" />
</g>
<g id="#30789bff">
<path fill="#30789b" opacity="1.00" d=" M 42.86 48.03 C 44.90 49.11 48.32 52.33 46.14 54.42 C 44.02 52.97 43.08 50.50 42.86 48.03 Z" />
</g>
<g id="#297caaff">
<path fill="#297caa" opacity="1.00" d=" M 26.90 55.95 C 27.83 54.24 27.16 50.58 29.92 50.97 C 30.03 52.64 30.03 54.32 30.05 56.00 C 29.26 55.99 27.69 55.96 26.90 55.95 Z" />
</g>
<g id="#287baaff">
<path fill="#287baa" opacity="1.00" d=" M 34.08 50.97 C 36.84 50.58 36.17 54.24 37.09 55.95 C 36.31 55.96 34.73 55.99 33.94 56.00 C 33.97 54.32 33.97 52.64 34.08 50.97 Z" />
</g>
<g id="#064184ff">
<path fill="#064184" opacity="1.00" d=" M 13.05 56.05 C 16.77 56.00 20.48 55.90 24.20 55.86 C 24.88 55.88 26.23 55.93 26.90 55.95 C 27.69 55.96 29.26 55.99 30.05 56.00 L 31.05 56.00 C 31.52 56.00 32.46 56.00 32.93 56.00 L 33.94 56.00 C 34.73 55.99 36.31 55.96 37.09 55.95 C 37.77 55.93 39.12 55.89 39.80 55.88 C 43.51 55.98 47.23 56.03 50.95 56.06 L 51.02 57.01 C 38.34 57.01 25.66 57.00 12.99 57.01 L 13.05 56.05 Z" />
</g>
<g id="#00000081">
<path fill="#000000" opacity="0.51" d=" M 3.94 60.10 L 4.81 60.21 C 18.12 61.94 31.61 60.56 45.00 61.03 C 49.70 60.66 54.67 61.89 59.23 60.30 L 60.06 60.05 C 59.79 60.54 59.26 61.51 58.99 62.00 C 40.99 62.00 23.00 62.01 5.00 61.99 L 4.03 61.96 C 4.01 61.50 3.96 60.56 3.94 60.10 Z" />
</g>
<g id="#000000ad">
<path fill="#000000" opacity="0.68" d=" M 4.81 60.21 C 22.94 59.87 41.10 59.80 59.23 60.30 C 54.67 61.89 49.70 60.66 45.00 61.03 C 31.61 60.56 18.12 61.94 4.81 60.21 Z" />
</g>
<g id="#00000055">
<path fill="#000000" opacity="0.33" d=" M 5.00 61.99 C 23.00 62.01 40.99 62.00 58.99 62.00 L 59.00 62.98 C 41.01 62.98 23.01 63.09 5.02 62.95 L 5.00 61.99 Z" />
</g>
</svg>
