<?xml version="1.0" encoding="UTF-8" ?>
<!DOCTYPE svg PUBLIC "-//W3C//DTD SVG 1.1//EN" "http://www.w3.org/Graphics/SVG/1.1/DTD/svg11.dtd">
<svg width="64pt" height="64pt" viewBox="0 0 64 64" version="1.1" xmlns="http://www.w3.org/2000/svg">
<g id="#70888efb">
<path fill="#70888e" opacity="1.00" d=" M 1.18 7.99 C 0.55 4.22 6.29 2.90 8.00 5.91 C 9.58 8.01 7.94 10.45 6.33 11.93 C 6.31 13.40 6.31 14.86 6.32 16.32 C 11.40 16.13 16.15 14.22 21.06 13.14 C 22.36 10.96 23.60 8.77 24.82 6.55 C 30.27 7.72 35.81 8.49 41.23 9.86 C 41.37 10.61 41.65 12.11 41.79 12.87 C 48.12 10.87 54.39 8.69 60.66 6.50 C 60.63 8.18 60.60 9.86 60.57 11.54 C 58.09 12.95 56.91 15.23 57.37 18.09 C 58.40 18.78 59.43 19.48 60.46 20.17 C 60.54 21.72 60.61 23.27 60.69 24.82 C 54.11 24.67 47.73 22.81 41.18 22.44 C 39.32 23.85 37.25 24.93 35.13 25.87 C 35.30 26.60 35.63 28.06 35.80 28.79 C 32.28 28.53 29.22 26.76 25.97 25.59 C 19.40 25.28 12.84 24.79 6.33 23.75 C 6.26 29.81 6.30 35.87 6.29 41.93 C 10.79 41.81 14.98 40.09 19.33 39.18 C 20.87 37.11 22.05 34.82 22.97 32.41 C 27.82 33.37 32.70 34.23 37.44 35.67 C 37.51 36.39 37.64 37.85 37.71 38.58 C 43.36 36.90 48.57 33.68 54.52 33.12 C 54.19 34.78 54.58 36.85 53.05 38.02 C 51.34 39.35 51.48 41.54 51.44 43.49 C 52.39 44.36 53.33 45.25 54.28 46.13 C 54.30 47.66 54.32 49.20 54.35 50.74 C 48.86 50.12 43.51 48.39 37.98 48.21 C 35.67 49.48 31.24 50.57 32.45 54.03 C 29.04 53.89 26.21 51.96 23.10 50.85 C 17.45 50.82 11.84 50.27 6.29 49.24 C 6.29 54.16 6.30 59.08 6.28 64.00 L 3.44 64.00 C 3.27 46.65 3.51 29.30 3.32 11.95 C 2.37 10.79 0.91 9.70 1.18 7.99 M 8.34 22.93 C 8.44 20.97 8.52 19.02 8.61 17.07 C 5.31 16.96 5.24 22.71 8.34 22.93 M 6.40 43.66 C 6.12 45.71 6.09 48.09 8.64 48.52 C 8.70 46.58 8.77 44.63 8.85 42.68 C 8.24 42.93 7.02 43.42 6.40 43.66 Z" />
</g>
</svg>
