<?xml version="1.0" encoding="UTF-8" ?>
<!DOCTYPE svg PUBLIC "-//W3C//DTD SVG 1.1//EN" "http://www.w3.org/Graphics/SVG/1.1/DTD/svg11.dtd">
<svg width="64pt" height="64pt" viewBox="0 0 64 64" version="1.1" xmlns="http://www.w3.org/2000/svg">
<g id="#8f1826ff">
<path fill="#8f1826" opacity="1.00" d=" M 23.11 3.93 C 26.39 2.51 29.89 3.67 33.07 4.75 C 31.73 4.42 30.27 5.21 30.01 6.59 C 29.77 7.24 29.27 8.56 29.02 9.21 C 26.30 9.26 23.54 9.24 20.89 8.50 C 21.33 6.87 21.46 4.87 23.11 3.93 Z" />
<path fill="#8f1826" opacity="1.00" d=" M 50.45 8.76 C 51.00 8.56 52.11 8.16 52.66 7.96 C 58.23 12.45 59.55 19.94 59.89 26.68 C 60.20 34.24 60.49 41.80 60.53 49.36 C 60.48 50.30 60.27 51.21 59.90 52.08 L 58.60 52.58 C 59.50 46.60 59.35 40.54 58.61 34.56 C 57.85 26.99 57.66 18.77 53.08 12.33 C 52.29 11.08 51.38 9.91 50.45 8.76 Z" />
</g>
<g id="#504540f5">
<path fill="#504540" opacity="0.96" d=" M 30.01 6.59 C 30.27 5.21 31.73 4.42 33.07 4.75 C 33.39 5.10 34.05 5.79 34.37 6.14 L 34.11 6.76 C 32.73 6.88 31.37 6.82 30.01 6.59 Z" />
</g>
<g id="#831621ff">
<path fill="#831621" opacity="1.00" d=" M 36.04 8.35 C 36.89 6.36 38.72 4.50 41.03 4.52 C 45.17 4.17 49.39 5.39 52.66 7.96 C 52.11 8.16 51.00 8.56 50.45 8.76 C 49.54 8.29 48.64 7.81 47.75 7.31 C 46.68 8.60 45.68 9.93 44.64 11.23 C 41.56 10.92 38.48 10.55 35.44 9.92 C 35.59 9.53 35.89 8.74 36.04 8.35 Z" />
</g>
<g id="#886863ff">
<path fill="#886863" opacity="1.00" d=" M 30.01 6.59 C 31.37 6.82 32.73 6.88 34.11 6.76 L 35.00 6.76 C 35.26 7.16 35.78 7.95 36.04 8.35 C 35.89 8.74 35.59 9.53 35.44 9.92 C 33.33 9.50 31.18 9.21 29.02 9.21 C 29.27 8.56 29.77 7.24 30.01 6.59 Z" />
</g>
<g id="#a11a28ff">
<path fill="#a11a28" opacity="1.00" d=" M 3.18 20.76 C 3.88 12.52 12.71 5.40 20.89 8.50 C 23.54 9.24 26.30 9.26 29.02 9.21 C 31.18 9.21 33.33 9.50 35.44 9.92 C 38.48 10.55 41.56 10.92 44.64 11.23 L 45.63 11.37 C 45.25 11.51 44.50 11.81 44.13 11.96 C 40.06 11.65 36.00 12.65 32.82 15.27 C 25.11 14.18 17.14 14.40 9.75 11.64 C 8.44 13.08 7.19 14.58 6.08 16.17 C 5.08 17.68 4.15 19.23 3.18 20.76 Z" />
</g>
<g id="#c02f45ff">
<path fill="#c02f45" opacity="1.00" d=" M 9.75 11.64 C 17.14 14.40 25.11 14.18 32.82 15.27 C 31.54 17.15 30.36 19.09 29.35 21.14 C 29.41 20.71 29.53 19.84 29.59 19.41 C 24.45 20.65 19.30 18.86 14.18 18.49 C 11.34 18.30 8.62 17.44 6.08 16.17 C 7.19 14.58 8.44 13.08 9.75 11.64 Z" />
</g>
<g id="#44080dff">
<path fill="#44080d" opacity="1.00" d=" M 32.82 15.27 C 36.00 12.65 40.06 11.65 44.13 11.96 C 43.06 12.68 41.98 13.39 40.89 14.07 C 38.41 14.90 35.61 15.57 34.00 17.82 C 31.93 20.15 31.69 23.38 31.71 26.35 C 31.69 27.50 31.70 28.66 31.73 29.81 L 31.71 29.82 C 30.36 29.49 29.03 29.15 27.69 28.79 C 28.27 26.25 28.85 23.70 29.35 21.14 C 30.36 19.09 31.54 17.15 32.82 15.27 Z" />
</g>
<g id="#75111cff">
<path fill="#75111c" opacity="1.00" d=" M 44.13 11.96 C 44.50 11.81 45.25 11.51 45.63 11.37 C 48.61 13.19 51.41 16.16 51.19 19.91 C 51.14 30.42 51.35 40.94 51.06 51.44 C 50.78 52.64 50.47 53.83 50.16 55.02 C 51.96 54.55 53.77 54.08 55.56 53.55 C 56.32 53.30 57.84 52.82 58.60 52.58 L 59.90 52.08 C 57.38 56.05 52.11 55.89 47.98 56.47 C 42.58 56.40 37.68 58.83 32.69 60.56 C 29.63 52.84 30.30 44.37 30.65 36.26 L 30.64 35.71 C 35.54 34.77 40.39 33.59 45.27 32.55 L 45.14 34.27 C 45.00 35.71 44.83 37.14 44.68 38.58 C 44.01 38.80 42.67 39.25 42.00 39.47 C 41.21 38.05 40.92 36.43 40.49 34.89 C 37.74 35.61 34.99 36.33 32.24 37.03 C 31.29 43.90 31.99 50.98 34.00 57.61 C 39.17 56.43 46.55 55.73 48.06 49.54 C 50.09 39.16 50.73 28.28 49.05 17.81 C 46.98 15.41 43.93 14.47 40.89 14.07 C 41.98 13.39 43.06 12.68 44.13 11.96 M 42.23 37.76 C 45.17 39.98 44.43 34.76 44.74 33.18 C 41.91 32.81 40.50 35.68 42.23 37.76 Z" />
</g>
<g id="#5d4845dc">
<path fill="#5d4845" opacity="0.86" d=" M 53.08 12.33 C 57.66 18.77 57.85 26.99 58.61 34.56 C 58.03 38.77 58.26 43.10 57.14 47.23 C 57.05 35.52 56.66 23.57 53.08 12.33 Z" />
</g>
<g id="#9f1c2dff">
<path fill="#9f1c2d" opacity="1.00" d=" M 34.00 17.82 C 35.61 15.57 38.41 14.90 40.89 14.07 C 43.93 14.47 46.98 15.41 49.05 17.81 C 48.85 24.44 49.58 31.11 48.70 37.70 C 48.55 39.76 47.07 41.27 45.67 42.62 C 44.46 41.56 43.23 40.51 42.00 39.47 C 42.67 39.25 44.01 38.80 44.68 38.58 C 44.83 37.14 45.00 35.71 45.14 34.27 C 45.66 34.37 46.69 34.57 47.21 34.67 C 47.42 30.83 48.29 25.85 44.76 23.20 C 41.76 21.22 38.29 22.69 35.50 24.24 C 35.23 23.04 34.96 21.84 34.69 20.64 C 33.66 22.52 32.63 24.41 31.71 26.35 C 31.69 23.38 31.93 20.15 34.00 17.82 Z" />
</g>
<g id="#d4475eff">
<path fill="#d4475e" opacity="1.00" d=" M 3.18 20.76 C 4.15 19.23 5.08 17.68 6.08 16.17 C 8.62 17.44 11.34 18.30 14.18 18.49 C 19.30 18.86 24.45 20.65 29.59 19.41 C 29.53 19.84 29.41 20.71 29.35 21.14 C 28.85 23.70 28.27 26.25 27.69 28.79 C 29.03 29.15 30.36 29.49 31.71 29.82 C 31.24 30.06 30.29 30.56 29.82 30.81 C 29.28 30.62 28.18 30.25 27.64 30.06 C 27.50 31.15 27.38 32.23 27.26 33.32 C 25.53 31.52 24.08 28.95 21.33 28.74 C 16.08 27.84 10.77 27.40 5.51 26.60 C 5.13 28.07 4.76 29.55 4.38 31.02 C 4.03 27.62 3.66 24.22 3.12 20.85 L 3.18 20.76 Z" />
</g>
<g id="#912833ff">
<path fill="#912833" opacity="1.00" d=" M 49.05 17.81 C 50.73 28.28 50.09 39.16 48.06 49.54 C 46.55 55.73 39.17 56.43 34.00 57.61 C 31.99 50.98 31.29 43.90 32.24 37.03 C 32.99 39.99 33.65 42.97 34.29 45.96 C 34.60 45.31 35.21 44.02 35.52 43.37 C 36.75 44.76 38.00 46.14 39.23 47.53 C 41.42 45.95 43.62 44.38 45.67 42.62 C 47.07 41.27 48.55 39.76 48.70 37.70 C 49.58 31.11 48.85 24.44 49.05 17.81 Z" />
</g>
<g id="#c92e47ff">
<path fill="#c92e47" opacity="1.00" d=" M 3.08 21.70 C 3.09 21.48 3.11 21.06 3.12 20.85 C 3.66 24.22 4.03 27.62 4.38 31.02 C 4.76 29.55 5.13 28.07 5.51 26.60 C 10.77 27.40 16.08 27.84 21.33 28.74 C 24.08 28.95 25.53 31.52 27.26 33.32 C 27.07 35.36 27.06 37.42 27.12 39.47 C 26.23 37.73 25.25 36.03 24.27 34.34 C 18.06 33.51 11.83 32.91 5.60 32.23 C 4.96 33.65 4.31 35.06 3.71 36.49 C 3.20 31.58 2.81 26.64 3.08 21.70 Z" />
</g>
<g id="#be2b41ff">
<path fill="#be2b41" opacity="1.00" d=" M 31.71 26.35 C 32.63 24.41 33.66 22.52 34.69 20.64 C 34.96 21.84 35.23 23.04 35.50 24.24 C 38.29 22.69 41.76 21.22 44.76 23.20 C 48.29 25.85 47.42 30.83 47.21 34.67 C 46.69 34.57 45.66 34.37 45.14 34.27 L 45.27 32.55 C 44.94 31.10 44.48 29.68 43.99 28.27 C 43.86 27.93 43.60 27.23 43.48 26.88 C 39.56 27.86 35.62 28.74 31.73 29.81 C 31.70 28.66 31.69 27.50 31.71 26.35 Z" />
</g>
<g id="#760f18ff">
<path fill="#760f18" opacity="1.00" d=" M 4.54 50.19 C 2.63 40.92 0.72 31.02 3.08 21.70 C 2.81 26.64 3.20 31.58 3.71 36.49 C 3.76 37.02 3.85 38.06 3.89 38.58 C 4.20 40.85 4.67 43.10 5.08 45.36 C 5.13 45.75 5.23 46.54 5.29 46.94 C 5.56 46.62 6.11 45.99 6.39 45.68 C 7.17 46.97 8.20 47.14 9.50 46.19 C 14.97 47.35 20.56 47.73 26.12 48.11 C 26.31 48.91 26.67 50.52 26.85 51.32 C 27.13 48.96 27.44 46.59 27.38 44.20 C 27.33 42.62 27.24 41.05 27.12 39.47 C 27.06 37.42 27.07 35.36 27.26 33.32 C 27.38 32.23 27.50 31.15 27.64 30.06 C 28.18 30.25 29.28 30.62 29.82 30.81 C 30.13 32.44 30.42 34.07 30.64 35.71 L 30.65 36.26 C 29.78 34.72 28.90 33.19 28.01 31.66 C 27.22 40.57 28.61 49.44 28.69 58.34 C 27.63 58.36 25.51 58.40 24.45 58.42 C 17.72 55.92 11.23 52.81 4.54 50.19 M 23.30 53.23 L 23.40 54.00 C 23.82 53.95 24.65 53.86 25.07 53.81 L 24.97 53.03 C 26.58 50.30 20.69 51.19 23.30 53.23 Z" />
</g>
<g id="#d25c6fff">
<path fill="#d25c6f" opacity="1.00" d=" M 31.73 29.81 C 35.62 28.74 39.56 27.86 43.48 26.88 C 43.60 27.23 43.86 27.93 43.99 28.27 C 39.33 29.37 34.71 31.37 29.82 30.81 C 30.29 30.56 31.24 30.06 31.71 29.82 L 31.73 29.81 Z" />
</g>
<g id="#470c13b3">
<path fill="#470c13" opacity="0.70" d=" M 59.89 26.68 C 61.52 34.10 61.25 41.84 60.53 49.36 C 60.49 41.80 60.20 34.24 59.89 26.68 Z" />
</g>
<g id="#9d2532ff">
<path fill="#9d2532" opacity="1.00" d=" M 29.82 30.81 C 34.71 31.37 39.33 29.37 43.99 28.27 C 44.48 29.68 44.94 31.10 45.27 32.55 C 40.39 33.59 35.54 34.77 30.64 35.71 C 30.42 34.07 30.13 32.44 29.82 30.81 Z" />
</g>
<g id="#b31d31ff">
<path fill="#b31d31" opacity="1.00" d=" M 5.60 32.23 C 11.83 32.91 18.06 33.51 24.27 34.34 C 25.25 36.03 26.23 37.73 27.12 39.47 C 27.24 41.05 27.33 42.62 27.38 44.20 C 26.13 42.05 25.04 39.02 22.15 38.79 C 17.78 37.98 13.34 37.53 8.92 37.21 C 7.09 36.89 5.49 37.89 3.89 38.58 C 3.85 38.06 3.76 37.02 3.71 36.49 C 4.31 35.06 4.96 33.65 5.60 32.23 Z" />
</g>
<g id="#3e060bff">
<path fill="#3e060b" opacity="1.00" d=" M 28.01 31.66 C 28.90 33.19 29.78 34.72 30.65 36.26 C 30.30 44.37 29.63 52.84 32.69 60.56 C 31.45 60.46 30.20 60.43 28.95 60.47 C 27.45 59.78 25.92 59.17 24.45 58.42 C 25.51 58.40 27.63 58.36 28.69 58.34 C 28.61 49.44 27.22 40.57 28.01 31.66 Z" />
</g>
<g id="#b7c6cbff">
<path fill="#b7c6cb" opacity="1.00" d=" M 42.23 37.76 C 40.50 35.68 41.91 32.81 44.74 33.18 C 44.43 34.76 45.17 39.98 42.23 37.76 Z" />
</g>
<g id="#ad3647ff">
<path fill="#ad3647" opacity="1.00" d=" M 32.24 37.03 C 34.99 36.33 37.74 35.61 40.49 34.89 C 40.92 36.43 41.21 38.05 42.00 39.47 C 43.23 40.51 44.46 41.56 45.67 42.62 C 43.62 44.38 41.42 45.95 39.23 47.53 C 38.00 46.14 36.75 44.76 35.52 43.37 C 35.21 44.02 34.60 45.31 34.29 45.96 C 33.65 42.97 32.99 39.99 32.24 37.03 Z" />
</g>
<g id="#8f7a71ff">
<path fill="#8f7a71" opacity="1.00" d=" M 57.14 47.23 C 58.26 43.10 58.03 38.77 58.61 34.56 C 59.35 40.54 59.50 46.60 58.60 52.58 C 57.84 52.82 56.32 53.30 55.56 53.55 L 53.55 53.80 C 54.41 52.31 55.28 50.81 56.13 49.31 C 56.39 48.79 56.89 47.75 57.14 47.23 Z" />
</g>
<g id="#a01827ff">
<path fill="#a01827" opacity="1.00" d=" M 3.89 38.58 C 5.49 37.89 7.09 36.89 8.92 37.21 C 13.34 37.53 17.78 37.98 22.15 38.79 C 25.04 39.02 26.13 42.05 27.38 44.20 C 27.44 46.59 27.13 48.96 26.85 51.32 C 26.67 50.52 26.31 48.91 26.12 48.11 C 25.80 46.62 25.50 45.13 25.20 43.64 C 18.97 42.62 12.69 42.08 6.41 41.51 C 5.95 42.79 5.49 44.07 5.08 45.36 C 4.67 43.10 4.20 40.85 3.89 38.58 Z" />
</g>
<g id="#8b121eff">
<path fill="#8b121e" opacity="1.00" d=" M 6.41 41.51 C 12.69 42.08 18.97 42.62 25.20 43.64 C 25.50 45.13 25.80 46.62 26.12 48.11 C 20.56 47.73 14.97 47.35 9.50 46.19 C 8.55 44.70 7.51 44.53 6.39 45.68 C 6.11 45.99 5.56 46.62 5.29 46.94 C 5.23 46.54 5.13 45.75 5.08 45.36 C 5.49 44.07 5.95 42.79 6.41 41.51 Z" />
</g>
<g id="#99abadff">
<path fill="#99abad" opacity="1.00" d=" M 6.39 45.68 C 7.51 44.53 8.55 44.70 9.50 46.19 C 8.20 47.14 7.17 46.97 6.39 45.68 Z" />
</g>
<g id="#51423de1">
<path fill="#51423d" opacity="0.88" d=" M 51.06 51.44 C 52.79 50.85 54.53 50.21 56.13 49.31 C 55.28 50.81 54.41 52.31 53.55 53.80 L 55.56 53.55 C 53.77 54.08 51.96 54.55 50.16 55.02 C 50.47 53.83 50.78 52.64 51.06 51.44 Z" />
</g>
<g id="#ab989cff">
<path fill="#ab989c" opacity="1.00" d=" M 23.30 53.23 C 20.69 51.19 26.58 50.30 24.97 53.03 C 24.55 53.08 23.72 53.18 23.30 53.23 Z" />
</g>
<g id="#606663fe">
<path fill="#606663" opacity="1.00" d=" M 23.30 53.23 C 23.72 53.18 24.55 53.08 24.97 53.03 L 25.07 53.81 C 24.65 53.86 23.82 53.95 23.40 54.00 L 23.30 53.23 Z" />
</g>
</svg>
