<?xml version="1.0" encoding="UTF-8" ?>
<!DOCTYPE svg PUBLIC "-//W3C//DTD SVG 1.1//EN" "http://www.w3.org/Graphics/SVG/1.1/DTD/svg11.dtd">
<svg width="64pt" height="64pt" viewBox="0 0 64 64" version="1.1" xmlns="http://www.w3.org/2000/svg">
<g id="#363738ff">
<path fill="#363738" opacity="1.00" d=" M 31.39 0.00 L 32.59 0.00 C 38.39 5.08 45.22 8.84 51.43 13.40 C 55.66 15.98 59.34 19.55 64.00 21.35 L 64.00 22.57 C 59.21 25.60 55.38 29.88 51.23 33.69 C 52.03 38.83 48.75 43.12 45.80 46.93 C 42.09 51.51 36.97 54.62 32.00 57.63 C 24.05 53.28 16.76 47.24 13.05 38.76 C 12.36 46.30 14.20 53.76 14.11 61.26 L 12.55 63.25 C 12.07 61.74 11.59 60.23 11.11 58.73 C 10.66 60.28 10.15 61.86 9.06 63.10 C 7.06 54.11 11.01 44.93 9.04 35.86 C 10.13 35.11 11.22 34.36 12.31 33.61 C 8.66 29.50 4.60 25.61 0.00 22.59 L 0.00 21.35 C 3.57 20.13 6.36 17.49 9.50 15.49 C 16.73 10.24 24.59 5.79 31.39 0.00 Z" />
</g>
</svg>
