<?xml version="1.0" encoding="UTF-8" ?>
<!DOCTYPE svg PUBLIC "-//W3C//DTD SVG 1.1//EN" "http://www.w3.org/Graphics/SVG/1.1/DTD/svg11.dtd">
<svg width="64pt" height="64pt" viewBox="0 0 64 64" version="1.1" xmlns="http://www.w3.org/2000/svg">
<g id="#d7dddffb">
<path fill="#d7dddf" opacity="1.00" d=" M 32.29 1.00 C 33.03 1.05 34.50 1.16 35.23 1.21 C 34.94 2.29 34.65 3.37 34.36 4.46 C 35.41 4.49 37.51 4.56 38.56 4.59 L 38.48 5.72 C 38.95 5.62 39.90 5.42 40.37 5.32 L 40.34 6.59 L 41.64 6.27 L 41.48 7.27 C 42.74 7.43 43.50 8.12 43.75 9.33 C 45.92 9.64 45.23 12.25 45.56 13.75 C 45.76 13.66 46.17 13.48 46.37 13.39 C 46.38 15.15 46.41 16.91 46.45 18.66 C 46.19 18.54 45.66 18.30 45.40 18.18 C 45.44 19.04 45.52 20.77 45.56 21.64 L 44.17 21.28 C 44.28 21.81 44.51 22.88 44.62 23.42 C 43.76 23.42 42.04 23.40 41.18 23.40 L 41.71 24.49 C 39.80 24.50 37.90 24.51 35.99 24.42 C 33.88 26.58 35.02 29.77 34.66 32.45 C 36.27 32.78 37.87 33.19 39.48 33.53 C 41.24 37.42 41.00 41.89 40.10 45.97 C 38.78 48.89 37.14 51.65 34.94 53.99 C 32.71 55.90 30.53 58.10 27.63 58.93 L 27.39 59.80 C 22.51 58.83 17.74 57.36 12.88 56.28 C 14.24 53.54 17.36 52.55 19.25 50.28 C 22.08 47.44 23.90 43.84 25.20 40.09 C 25.36 36.86 26.14 33.19 24.00 30.42 C 23.50 29.85 23.58 29.12 23.75 28.44 L 24.47 30.34 C 27.24 30.29 29.88 31.17 32.53 31.84 C 32.46 29.36 32.34 26.88 32.29 24.39 C 29.97 24.59 27.64 24.51 25.32 24.46 C 25.44 24.17 25.68 23.61 25.79 23.32 C 25.06 23.36 23.59 23.44 22.85 23.47 C 20.99 19.66 21.38 15.40 21.50 11.29 L 22.82 11.68 C 22.66 11.16 22.34 10.13 22.18 9.61 L 23.31 9.65 C 23.43 8.31 24.15 7.54 25.45 7.35 L 25.45 6.46 L 26.66 6.50 L 26.73 5.37 C 27.07 5.44 27.76 5.56 28.10 5.63 C 29.00 3.95 31.08 4.74 32.56 4.40 C 32.49 3.55 32.36 1.85 32.29 1.00 Z" />
</g>
</svg>
