<?xml version="1.0" encoding="UTF-8" ?>
<!DOCTYPE svg PUBLIC "-//W3C//DTD SVG 1.1//EN" "http://www.w3.org/Graphics/SVG/1.1/DTD/svg11.dtd">
<svg width="64pt" height="64pt" viewBox="0 0 64 64" version="1.1" xmlns="http://www.w3.org/2000/svg">
<g id="#0000005d">
<path fill="#000000" opacity="0.36" d=" M 4.71 3.93 C 5.77 2.70 7.54 3.23 8.94 3.08 C 25.27 3.17 41.61 2.98 57.93 3.17 C 58.27 3.36 58.95 3.74 59.28 3.93 C 41.09 4.04 22.90 4.03 4.71 3.93 Z" />
</g>
<g id="#fdfdfdff">
<path fill="#fdfdfd" opacity="1.00" d=" M 3.92 3.93 L 4.71 3.93 C 22.90 4.03 41.09 4.04 59.28 3.93 L 60.08 3.92 L 60.07 4.73 C 59.94 17.79 59.97 30.85 59.98 43.91 C 59.22 43.91 57.70 43.92 56.94 43.93 C 56.94 35.81 57.12 27.67 56.97 19.55 L 57.04 18.54 C 57.38 14.68 57.30 10.80 57.01 6.94 C 53.26 6.71 49.49 6.75 45.74 7.04 C 32.83 6.96 19.91 7.02 7.00 7.00 C 7.02 11.76 6.95 16.52 7.03 21.27 C 6.89 27.21 7.02 33.14 6.92 39.08 C 6.89 40.71 6.97 42.33 7.08 43.96 C 6.31 43.95 4.78 43.92 4.02 43.91 C 4.03 30.85 4.06 17.79 3.93 4.74 L 3.92 3.93 Z" />
</g>
<g id="#00000086">
<path fill="#000000" opacity="0.53" d=" M 3.11 9.95 C 3.22 8.20 2.82 6.25 3.93 4.74 C 4.06 17.79 4.03 30.85 4.02 43.91 C 3.97 49.27 4.01 54.64 4.00 60.00 C 22.67 60.04 41.33 60.05 60.00 60.00 C 59.99 54.63 60.03 49.27 59.98 43.91 C 59.97 30.85 59.94 17.79 60.07 4.73 C 61.17 6.27 60.78 8.23 60.89 10.00 C 60.89 25.32 60.87 40.63 60.89 55.94 C 60.73 58.11 61.25 60.79 59.26 62.29 C 41.13 62.02 22.98 62.10 4.84 62.22 C 2.80 61.31 3.35 58.80 3.13 57.01 C 3.09 41.32 3.13 25.63 3.11 9.95 Z" />
</g>
<g id="#02063eff">
<path fill="#02063e" opacity="1.00" d=" M 7.00 7.00 C 19.91 7.02 32.83 6.96 45.74 7.04 L 44.77 8.12 C 32.73 8.70 20.60 7.94 8.59 8.55 C 8.01 12.78 8.11 17.11 7.03 21.27 C 6.95 16.52 7.02 11.76 7.00 7.00 Z" />
</g>
<g id="#fdfdcdff">
<path fill="#fdfdcd" opacity="1.00" d=" M 45.74 7.04 C 49.49 6.75 53.26 6.71 57.01 6.94 C 57.30 10.80 57.38 14.68 57.04 18.54 C 52.85 20.82 47.78 17.82 45.74 13.98 C 44.87 12.14 44.49 10.15 44.77 8.12 L 45.74 7.04 Z" />
</g>
<g id="#00256eff">
<path fill="#00256e" opacity="1.00" d=" M 8.59 8.55 C 20.60 7.94 32.73 8.70 44.77 8.12 C 44.49 10.15 44.87 12.14 45.74 13.98 C 44.03 15.62 41.84 14.63 39.83 14.36 C 37.22 13.89 34.56 14.06 31.95 14.32 C 31.39 13.28 31.02 12.18 30.86 11.01 C 26.93 10.42 23.09 11.61 19.72 13.58 C 17.25 14.87 14.49 16.21 13.39 18.97 C 11.29 19.41 8.52 20.56 8.43 23.05 C 8.22 26.74 7.74 30.45 8.17 34.14 C 7.88 35.82 7.80 37.53 7.60 39.22 L 6.92 39.08 C 7.02 33.14 6.89 27.21 7.03 21.27 C 8.11 17.11 8.01 12.78 8.59 8.55 Z" />
<path fill="#00256e" opacity="1.00" d=" M 55.38 20.24 C 55.78 20.07 56.57 19.73 56.97 19.55 C 57.12 27.67 56.94 35.81 56.94 43.93 C 56.94 44.79 56.95 46.52 56.95 47.38 C 56.37 45.02 56.18 42.59 56.24 40.16 C 56.27 38.13 56.28 36.10 56.20 34.07 C 56.03 31.75 55.92 29.42 55.81 27.10 C 55.66 24.81 55.48 22.53 55.38 20.24 Z" />
<path fill="#00256e" opacity="1.00" d=" M 8.13 43.21 C 8.67 43.71 9.19 43.98 9.70 44.02 L 8.69 44.96 C 8.22 48.72 8.70 52.58 7.98 56.34 L 7.24 56.28 C 7.69 53.26 7.28 50.20 7.32 47.16 C 7.32 45.78 7.82 44.52 8.13 43.21 Z" />
</g>
<g id="#44607bff">
<path fill="#44607b" opacity="1.00" d=" M 19.72 13.58 C 23.09 11.61 26.93 10.42 30.86 11.01 C 31.02 12.18 31.39 13.28 31.95 14.32 C 31.66 14.82 31.07 15.82 30.78 16.33 C 29.45 15.80 26.75 17.05 26.62 14.94 C 27.81 14.70 29.02 14.49 30.22 14.31 C 27.49 12.95 24.46 13.84 21.84 15.01 C 21.31 14.65 20.25 13.94 19.72 13.58 Z" />
</g>
<g id="#d7d06cff">
<path fill="#d7d06c" opacity="1.00" d=" M 13.39 18.97 C 14.49 16.21 17.25 14.87 19.72 13.58 C 20.25 13.94 21.31 14.65 21.84 15.01 C 24.46 13.84 27.49 12.95 30.22 14.31 C 29.02 14.49 27.81 14.70 26.62 14.94 C 24.45 15.69 22.59 17.07 21.06 18.76 C 22.42 18.45 23.79 18.22 25.15 17.93 C 23.72 20.60 19.41 20.35 18.66 23.58 C 22.91 21.34 27.06 18.28 32.18 18.89 C 33.27 18.95 34.30 19.28 35.25 19.89 C 30.38 20.83 25.53 22.32 21.37 25.10 C 21.10 25.27 20.58 25.62 20.32 25.80 C 17.21 24.47 14.91 22.06 12.97 19.38 L 13.39 18.97 Z" />
</g>
<g id="#013987ff">
<path fill="#013987" opacity="1.00" d=" M 31.95 14.32 C 34.56 14.06 37.22 13.89 39.83 14.36 C 41.84 14.63 44.03 15.62 45.74 13.98 C 47.78 17.82 52.85 20.82 57.04 18.54 L 56.97 19.55 C 56.57 19.73 55.78 20.07 55.38 20.24 C 55.48 22.53 55.66 24.81 55.81 27.10 C 55.34 26.23 54.90 25.36 54.48 24.48 C 50.51 23.24 46.50 22.09 42.36 21.57 C 39.97 21.17 37.39 21.19 35.25 19.89 C 34.30 19.28 33.27 18.95 32.18 18.89 C 32.51 18.44 33.18 17.54 33.51 17.08 C 32.83 16.89 31.46 16.52 30.78 16.33 C 31.07 15.82 31.66 14.82 31.95 14.32 Z" />
</g>
<g id="#7c9b89ff">
<path fill="#7c9b89" opacity="1.00" d=" M 21.06 18.76 C 22.59 17.07 24.45 15.69 26.62 14.94 C 26.75 17.05 29.45 15.80 30.78 16.33 C 31.46 16.52 32.83 16.89 33.51 17.08 C 33.18 17.54 32.51 18.44 32.18 18.89 C 27.06 18.28 22.91 21.34 18.66 23.58 C 19.41 20.35 23.72 20.60 25.15 17.93 C 23.79 18.22 22.42 18.45 21.06 18.76 Z" />
</g>
<g id="#104c97ff">
<path fill="#104c97" opacity="1.00" d=" M 8.43 23.05 C 8.52 20.56 11.29 19.41 13.39 18.97 L 12.97 19.38 C 12.24 21.52 11.43 23.63 11.02 25.87 C 10.97 29.24 8.98 33.48 11.73 36.14 L 11.85 36.29 L 10.40 36.40 C 9.88 35.03 9.65 33.58 9.49 32.13 C 9.07 32.81 8.63 33.48 8.17 34.14 C 7.74 30.45 8.22 26.74 8.43 23.05 Z" />
</g>
<g id="#d4c43bff">
<path fill="#d4c43b" opacity="1.00" d=" M 12.97 19.38 C 14.91 22.06 17.21 24.47 20.32 25.80 C 18.91 27.15 17.56 28.55 16.37 30.09 C 14.71 28.54 12.94 27.08 11.02 25.87 C 11.43 23.63 12.24 21.52 12.97 19.38 Z" />
</g>
<g id="#0d4f9cff">
<path fill="#0d4f9c" opacity="1.00" d=" M 21.37 25.10 C 25.53 22.32 30.38 20.83 35.25 19.89 C 37.39 21.19 39.97 21.17 42.36 21.57 C 46.50 22.09 50.51 23.24 54.48 24.48 C 54.90 25.36 55.34 26.23 55.81 27.10 C 55.92 29.42 56.03 31.75 56.20 34.07 C 54.58 30.64 50.59 30.62 47.34 30.09 C 47.51 30.53 47.87 31.40 48.04 31.83 C 47.58 31.88 46.66 31.97 46.20 32.01 C 46.25 31.31 46.35 29.90 46.40 29.20 C 45.98 25.86 41.13 24.61 39.82 28.03 C 35.80 30.23 29.03 24.72 26.89 30.15 L 25.90 30.29 C 25.73 28.67 25.67 27.00 25.04 25.48 C 23.77 25.89 22.47 26.02 21.37 25.10 Z" />
</g>
<g id="#2361aeff">
<path fill="#2361ae" opacity="1.00" d=" M 20.32 25.80 C 20.58 25.62 21.10 25.27 21.37 25.10 C 22.47 26.02 23.77 25.89 25.04 25.48 C 25.67 27.00 25.73 28.67 25.90 30.29 L 26.89 30.15 C 26.77 30.68 26.54 31.73 26.42 32.26 C 25.74 32.53 24.36 33.06 23.68 33.33 C 19.59 33.20 15.02 34.43 12.38 37.73 C 12.24 37.37 11.98 36.65 11.85 36.29 L 11.73 36.14 C 13.34 34.17 14.86 32.14 16.37 30.09 C 17.56 28.55 18.91 27.15 20.32 25.80 Z" />
</g>
<g id="#d1ba22ff">
<path fill="#d1ba22" opacity="1.00" d=" M 11.02 25.87 C 12.94 27.08 14.71 28.54 16.37 30.09 C 14.86 32.14 13.34 34.17 11.73 36.14 C 8.98 33.48 10.97 29.24 11.02 25.87 Z" />
<path fill="#d1ba22" opacity="1.00" d=" M 9.70 44.02 C 11.79 46.14 11.96 49.13 12.80 51.82 C 12.36 52.26 11.48 53.13 11.04 53.57 C 11.12 52.16 10.52 50.44 9.04 50.00 C 9.16 47.99 9.34 45.99 9.70 44.02 Z" />
</g>
<g id="#eeeeeeff">
<path fill="#eeeeee" opacity="1.00" d=" M 39.82 28.03 C 41.13 24.61 45.98 25.86 46.40 29.20 C 45.71 29.30 44.32 29.51 43.62 29.62 C 43.10 31.32 42.44 33.03 40.99 34.16 C 39.07 35.59 38.94 38.17 38.74 40.35 C 40.42 39.22 42.27 38.33 44.24 37.82 C 43.10 35.66 43.73 32.90 46.20 32.01 C 46.66 31.97 47.58 31.88 48.04 31.83 C 49.06 32.79 49.99 33.83 50.17 35.28 C 49.49 35.35 48.13 35.50 47.45 35.57 C 46.63 37.01 46.10 38.55 45.94 40.20 C 47.40 39.55 48.50 38.33 49.89 37.57 C 52.26 37.42 53.71 39.51 53.99 41.62 C 52.95 41.51 51.93 41.32 50.93 41.04 C 50.70 41.94 50.35 42.82 49.88 43.68 C 49.59 43.87 49.00 44.26 48.71 44.45 C 47.64 43.33 47.12 41.00 45.19 41.21 C 43.79 41.51 43.66 43.34 42.97 44.36 C 40.57 44.29 39.79 41.24 37.84 40.18 C 37.28 41.54 36.69 42.89 36.06 44.23 C 35.65 44.30 34.84 44.44 34.44 44.52 C 33.36 42.94 32.86 41.12 32.89 39.23 C 33.60 39.40 35.01 39.75 35.71 39.93 C 35.70 37.33 36.70 35.00 36.95 32.36 C 37.73 32.20 39.31 31.89 40.10 31.74 C 40.03 30.50 39.94 29.26 39.82 28.03 Z" />
</g>
<g id="#2365b1ff">
<path fill="#2365b1" opacity="1.00" d=" M 26.89 30.15 C 29.03 24.72 35.80 30.23 39.82 28.03 C 39.94 29.26 40.03 30.50 40.10 31.74 C 39.31 31.89 37.73 32.20 36.95 32.36 C 33.44 32.36 29.93 32.08 26.42 32.26 C 26.54 31.73 26.77 30.68 26.89 30.15 Z" />
</g>
<g id="#a7a7a7ff">
<path fill="#a7a7a7" opacity="1.00" d=" M 43.62 29.62 C 44.32 29.51 45.71 29.30 46.40 29.20 C 46.35 29.90 46.25 31.31 46.20 32.01 C 43.73 32.90 43.10 35.66 44.24 37.82 C 42.27 38.33 40.42 39.22 38.74 40.35 C 38.94 38.17 39.07 35.59 40.99 34.16 C 42.44 33.03 43.10 31.32 43.62 29.62 Z" />
</g>
<g id="#2f69b2ff">
<path fill="#2f69b2" opacity="1.00" d=" M 47.34 30.09 C 50.59 30.62 54.58 30.64 56.20 34.07 C 56.28 36.10 56.27 38.13 56.24 40.16 C 54.76 38.41 52.79 37.32 50.61 36.70 C 50.50 36.35 50.28 35.64 50.17 35.28 C 49.99 33.83 49.06 32.79 48.04 31.83 C 47.87 31.40 47.51 30.53 47.34 30.09 Z" />
</g>
<g id="#4579b7ff">
<path fill="#4579b7" opacity="1.00" d=" M 8.17 34.14 C 8.63 33.48 9.07 32.81 9.49 32.13 C 9.65 33.58 9.88 35.03 10.40 36.40 C 10.76 38.27 10.63 40.17 10.71 42.06 C 9.27 41.61 8.54 40.27 7.60 39.22 C 7.80 37.53 7.88 35.82 8.17 34.14 Z" />
</g>
<g id="#3978beff">
<path fill="#3978be" opacity="1.00" d=" M 26.42 32.26 C 29.93 32.08 33.44 32.36 36.95 32.36 C 36.70 35.00 35.70 37.33 35.71 39.93 C 35.01 39.75 33.60 39.40 32.89 39.23 C 32.10 39.28 30.53 39.39 29.74 39.44 C 28.92 38.20 27.52 38.09 26.22 38.50 L 26.15 37.37 C 25.28 37.52 24.49 37.82 23.78 38.30 C 22.53 38.32 21.27 38.33 20.02 38.33 C 22.65 37.05 25.46 36.24 28.34 35.77 C 27.03 34.44 25.14 34.59 23.43 34.56 L 23.68 33.33 C 24.36 33.06 25.74 32.53 26.42 32.26 Z" />
</g>
<g id="#d7d074ff">
<path fill="#d7d074" opacity="1.00" d=" M 12.38 37.73 C 15.02 34.43 19.59 33.20 23.68 33.33 L 23.43 34.56 C 25.14 34.59 27.03 34.44 28.34 35.77 C 25.46 36.24 22.65 37.05 20.02 38.33 C 21.27 38.33 22.53 38.32 23.78 38.30 C 22.00 40.67 18.93 41.63 17.40 44.28 C 16.81 41.43 14.91 39.10 12.38 37.73 Z" />
</g>
<g id="#6b8aacff">
<path fill="#6b8aac" opacity="1.00" d=" M 47.45 35.57 C 48.13 35.50 49.49 35.35 50.17 35.28 C 50.28 35.64 50.50 36.35 50.61 36.70 C 52.79 37.32 54.76 38.41 56.24 40.16 C 56.18 42.59 56.37 45.02 56.95 47.38 C 57.08 50.59 56.97 53.80 57.00 57.01 C 55.00 56.97 53.00 57.01 51.00 56.99 L 51.10 56.01 C 52.60 55.83 54.11 55.72 55.61 55.62 C 55.67 54.99 55.77 53.74 55.83 53.11 C 55.40 50.46 56.39 46.80 54.09 44.89 L 53.15 44.81 L 51.94 44.79 C 52.61 43.72 53.33 42.69 53.99 41.62 C 53.71 39.51 52.26 37.42 49.89 37.57 C 48.50 38.33 47.40 39.55 45.94 40.20 C 46.10 38.55 46.63 37.01 47.45 35.57 Z" />
</g>
<g id="#357c58ff">
<path fill="#357c58" opacity="1.00" d=" M 10.40 36.40 L 11.85 36.29 C 11.98 36.65 12.24 37.37 12.38 37.73 C 12.62 41.58 13.04 45.42 14.08 49.14 C 15.42 47.69 16.02 45.71 17.40 44.28 C 18.93 41.63 22.00 40.67 23.78 38.30 C 24.49 37.82 25.28 37.52 26.15 37.37 L 26.22 38.50 C 23.87 40.42 21.59 42.44 19.60 44.74 C 18.17 46.28 16.89 47.99 16.10 49.96 C 14.80 52.40 15.15 55.90 18.09 56.93 C 19.38 55.32 19.17 53.07 19.68 51.16 C 20.16 49.08 20.50 46.97 20.88 44.87 C 21.25 44.64 21.98 44.17 22.34 43.94 C 22.12 45.24 21.89 46.54 21.67 47.84 C 21.27 50.70 20.27 53.54 20.57 56.47 C 24.70 57.42 23.79 52.51 24.55 50.04 C 25.13 47.50 25.94 45.03 26.69 42.55 C 27.30 42.44 28.50 42.23 29.11 42.13 C 28.16 44.63 27.43 47.20 26.76 49.79 C 26.37 51.98 25.71 54.13 25.85 56.38 C 28.94 56.52 32.03 56.52 35.12 56.36 L 35.11 56.94 C 26.16 56.94 17.23 56.82 8.30 57.06 C 8.42 56.25 8.66 54.63 8.79 53.82 C 9.18 53.94 9.96 54.18 10.35 54.29 C 10.19 56.71 12.43 56.89 14.25 56.35 C 13.77 54.84 13.41 53.29 12.80 51.82 C 11.96 49.13 11.79 46.14 9.70 44.02 C 9.19 43.98 8.67 43.71 8.13 43.21 C 7.82 44.52 7.32 45.78 7.32 47.16 C 7.26 46.36 7.14 44.76 7.08 43.96 C 6.97 42.33 6.89 40.71 6.92 39.08 L 7.60 39.22 C 8.54 40.27 9.27 41.61 10.71 42.06 C 10.63 40.17 10.76 38.27 10.40 36.40 Z" />
</g>
<g id="#ddd248ff">
<path fill="#ddd248" opacity="1.00" d=" M 12.38 37.73 C 14.91 39.10 16.81 41.43 17.40 44.28 C 16.02 45.71 15.42 47.69 14.08 49.14 C 13.04 45.42 12.62 41.58 12.38 37.73 Z" />
</g>
<g id="#c8cc81ff">
<path fill="#c8cc81" opacity="1.00" d=" M 26.22 38.50 C 27.52 38.09 28.92 38.20 29.74 39.44 C 30.50 40.27 31.23 41.13 32.02 41.93 C 31.29 41.98 29.83 42.08 29.11 42.13 C 28.50 42.23 27.30 42.44 26.69 42.55 C 25.23 42.98 23.78 43.45 22.34 43.94 C 21.98 44.17 21.25 44.64 20.88 44.87 L 19.60 44.74 C 21.59 42.44 23.87 40.42 26.22 38.50 Z" />
</g>
<g id="#75a1d0ff">
<path fill="#75a1d0" opacity="1.00" d=" M 29.74 39.44 C 30.53 39.39 32.10 39.28 32.89 39.23 C 32.86 41.12 33.36 42.94 34.44 44.52 L 33.85 44.55 L 32.96 44.70 L 31.96 44.65 C 31.96 45.42 31.97 46.97 31.98 47.74 C 32.75 47.78 34.31 47.88 35.09 47.92 C 35.10 48.46 35.12 49.54 35.13 50.08 C 32.34 49.95 29.55 49.88 26.76 49.79 C 27.43 47.20 28.16 44.63 29.11 42.13 C 29.83 42.08 31.29 41.98 32.02 41.93 C 31.23 41.13 30.50 40.27 29.74 39.44 Z" />
<path fill="#75a1d0" opacity="1.00" d=" M 22.34 43.94 C 23.78 43.45 25.23 42.98 26.69 42.55 C 25.94 45.03 25.13 47.50 24.55 50.04 C 23.87 48.94 22.91 48.21 21.67 47.84 C 21.89 46.54 22.12 45.24 22.34 43.94 Z" />
</g>
<g id="#89969fff">
<path fill="#89969f" opacity="1.00" d=" M 37.84 40.18 C 39.79 41.24 40.57 44.29 42.97 44.36 C 43.66 43.34 43.79 41.51 45.19 41.21 C 47.12 41.00 47.64 43.33 48.71 44.45 L 47.89 44.85 C 43.21 44.76 38.51 45.13 33.85 44.55 L 34.44 44.52 C 34.84 44.44 35.65 44.30 36.06 44.23 C 36.69 42.89 37.28 41.54 37.84 40.18 Z" />
</g>
<g id="#a8aaa8ff">
<path fill="#a8aaa8" opacity="1.00" d=" M 49.88 43.68 C 50.35 42.82 50.70 41.94 50.93 41.04 C 51.93 41.32 52.95 41.51 53.99 41.62 C 53.33 42.69 52.61 43.72 51.94 44.79 C 50.59 44.78 49.24 44.80 47.89 44.85 L 48.71 44.45 C 49.00 44.26 49.59 43.87 49.88 43.68 Z" />
</g>
<g id="#eaeaeaff">
<path fill="#eaeaea" opacity="1.00" d=" M 4.02 43.91 C 4.78 43.92 6.31 43.95 7.08 43.96 C 7.14 44.76 7.26 46.36 7.32 47.16 C 7.28 50.20 7.69 53.26 7.24 56.28 L 7.17 56.90 L 7.87 56.96 L 7.98 56.34 C 8.70 52.58 8.22 48.72 8.69 44.96 L 9.70 44.02 C 9.34 45.99 9.16 47.99 9.04 50.00 C 8.91 51.27 8.83 52.54 8.79 53.82 C 8.66 54.63 8.42 56.25 8.30 57.06 C 17.23 56.82 26.16 56.94 35.11 56.94 L 36.03 56.94 C 41.02 57.09 46.01 56.95 51.00 56.99 C 53.00 57.01 55.00 56.97 57.00 57.01 C 56.97 53.80 57.08 50.59 56.95 47.38 C 56.95 46.52 56.94 44.79 56.94 43.93 C 57.70 43.92 59.22 43.91 59.98 43.91 C 60.03 49.27 59.99 54.63 60.00 60.00 C 41.33 60.05 22.67 60.04 4.00 60.00 C 4.01 54.64 3.97 49.27 4.02 43.91 Z" />
</g>
<g id="#76a2c7ff">
<path fill="#76a2c7" opacity="1.00" d=" M 16.10 49.96 C 16.89 47.99 18.17 46.28 19.60 44.74 L 20.88 44.87 C 20.50 46.97 20.16 49.08 19.68 51.16 C 18.48 50.77 17.29 50.37 16.10 49.96 Z" />
</g>
<g id="#613e11ff">
<path fill="#613e11" opacity="1.00" d=" M 31.96 44.65 L 32.96 44.70 C 33.01 45.26 33.11 46.39 33.16 46.96 C 39.66 47.59 46.34 47.43 52.85 46.99 C 52.93 46.44 53.08 45.35 53.15 44.81 L 54.09 44.89 C 54.06 45.63 54.01 47.09 53.98 47.83 C 53.23 47.85 51.72 47.89 50.97 47.91 C 50.99 48.65 51.03 50.12 51.05 50.85 C 50.07 50.32 49.28 49.16 48.05 49.31 C 44.22 49.29 40.38 49.14 36.57 49.51 C 36.46 50.09 36.22 51.24 36.11 51.81 C 36.14 53.19 36.16 54.57 36.14 55.94 L 36.03 56.94 L 35.11 56.94 L 35.12 56.36 C 35.15 54.27 35.19 52.17 35.13 50.08 C 35.12 49.54 35.10 48.46 35.09 47.92 C 34.31 47.88 32.75 47.78 31.98 47.74 C 31.97 46.97 31.96 45.42 31.96 44.65 Z" />
</g>
<g id="#8c4d09ff">
<path fill="#8c4d09" opacity="1.00" d=" M 32.96 44.70 L 33.85 44.55 C 38.51 45.13 43.21 44.76 47.89 44.85 C 49.24 44.80 50.59 44.78 51.94 44.79 L 53.15 44.81 C 53.08 45.35 52.93 46.44 52.85 46.99 C 46.34 47.43 39.66 47.59 33.16 46.96 C 33.11 46.39 33.01 45.26 32.96 44.70 Z" />
</g>
<g id="#749fc8ff">
<path fill="#749fc8" opacity="1.00" d=" M 54.09 44.89 C 56.39 46.80 55.40 50.46 55.83 53.11 C 54.85 51.25 53.25 49.54 51.05 50.85 C 51.03 50.12 50.99 48.65 50.97 47.91 C 51.72 47.89 53.23 47.85 53.98 47.83 C 54.01 47.09 54.06 45.63 54.09 44.89 Z" />
</g>
<g id="#92b4d7ff">
<path fill="#92b4d7" opacity="1.00" d=" M 21.67 47.84 C 22.91 48.21 23.87 48.94 24.55 50.04 C 23.79 52.51 24.70 57.42 20.57 56.47 C 20.27 53.54 21.27 50.70 21.67 47.84 Z" />
</g>
<g id="#7c4609ff">
<path fill="#7c4609" opacity="1.00" d=" M 36.57 49.51 C 40.38 49.14 44.22 49.29 48.05 49.31 C 49.28 49.16 50.07 50.32 51.05 50.85 C 51.08 52.57 51.16 54.29 51.10 56.01 L 51.00 56.99 C 46.01 56.95 41.02 57.09 36.03 56.94 L 36.14 55.94 C 40.69 55.94 45.24 56.24 49.77 55.74 C 49.63 54.29 50.23 52.32 48.74 51.38 C 47.60 51.16 46.45 51.02 45.29 50.96 C 43.77 50.94 42.25 50.95 40.72 51.00 C 39.17 51.18 37.63 51.47 36.11 51.81 C 36.22 51.24 36.46 50.09 36.57 49.51 Z" />
</g>
<g id="#b2971aff">
<path fill="#b2971a" opacity="1.00" d=" M 9.04 50.00 C 10.52 50.44 11.12 52.16 11.04 53.57 L 10.35 54.29 C 9.96 54.18 9.18 53.94 8.79 53.82 C 8.83 52.54 8.91 51.27 9.04 50.00 Z" />
</g>
<g id="#97b7d8ff">
<path fill="#97b7d8" opacity="1.00" d=" M 16.10 49.96 C 17.29 50.37 18.48 50.77 19.68 51.16 C 19.17 53.07 19.38 55.32 18.09 56.93 C 15.15 55.90 14.80 52.40 16.10 49.96 Z" />
<path fill="#97b7d8" opacity="1.00" d=" M 25.85 56.38 C 25.71 54.13 26.37 51.98 26.76 49.79 C 29.55 49.88 32.34 49.95 35.13 50.08 C 35.19 52.17 35.15 54.27 35.12 56.36 C 32.03 56.52 28.94 56.52 25.85 56.38 Z" />
<path fill="#97b7d8" opacity="1.00" d=" M 51.05 50.85 C 53.25 49.54 54.85 51.25 55.83 53.11 C 55.77 53.74 55.67 54.99 55.61 55.62 C 54.11 55.72 52.60 55.83 51.10 56.01 C 51.16 54.29 51.08 52.57 51.05 50.85 Z" />
</g>
<g id="#a75a0eff">
<path fill="#a75a0e" opacity="1.00" d=" M 36.11 51.81 C 37.63 51.47 39.17 51.18 40.72 51.00 C 40.86 52.96 41.71 54.78 44.01 54.50 C 44.63 53.39 45.06 52.21 45.29 50.96 C 46.45 51.02 47.60 51.16 48.74 51.38 C 50.23 52.32 49.63 54.29 49.77 55.74 C 45.24 56.24 40.69 55.94 36.14 55.94 C 36.16 54.57 36.14 53.19 36.11 51.81 Z" />
</g>
<g id="#553207ff">
<path fill="#553207" opacity="1.00" d=" M 40.72 51.00 C 42.25 50.95 43.77 50.94 45.29 50.96 C 45.06 52.21 44.63 53.39 44.01 54.50 C 41.71 54.78 40.86 52.96 40.72 51.00 Z" />
</g>
<g id="#8eafbcff">
<path fill="#8eafbc" opacity="1.00" d=" M 11.04 53.57 C 11.48 53.13 12.36 52.26 12.80 51.82 C 13.41 53.29 13.77 54.84 14.25 56.35 C 12.43 56.89 10.19 56.71 10.35 54.29 L 11.04 53.57 Z" />
</g>
<g id="#093f23ff">
<path fill="#093f23" opacity="1.00" d=" M 7.24 56.28 L 7.98 56.34 L 7.87 56.96 L 7.17 56.90 L 7.24 56.28 Z" />
</g>
<g id="#00000055">
<path fill="#000000" opacity="0.33" d=" M 4.84 62.22 C 22.98 62.10 41.13 62.02 59.26 62.29 C 58.37 63.19 57.29 63.56 56.02 63.40 C 40.04 63.35 24.05 63.44 8.07 63.37 C 6.77 63.55 5.70 63.16 4.84 62.22 Z" />
</g>
</svg>
