<?xml version="1.0" encoding="UTF-8" ?>
<!DOCTYPE svg PUBLIC "-//W3C//DTD SVG 1.1//EN" "http://www.w3.org/Graphics/SVG/1.1/DTD/svg11.dtd">
<svg width="64pt" height="64pt" viewBox="0 0 64 64" version="1.1" xmlns="http://www.w3.org/2000/svg">
<g id="#0000001f">
<path fill="#000000" opacity="0.12" d=" M 5.40 2.22 C 23.06 1.70 40.81 1.92 58.49 2.24 L 58.91 3.01 C 40.96 2.99 23.02 3.00 5.07 3.00 L 5.40 2.22 Z" />
</g>
<g id="#0000005d">
<path fill="#000000" opacity="0.36" d=" M 5.07 3.00 C 23.02 3.00 40.96 2.99 58.91 3.01 L 59.31 3.75 C 41.12 4.14 22.92 4.16 4.74 3.80 L 5.07 3.00 Z" />
</g>
<g id="#fefefeff">
<path fill="#fefefe" opacity="1.00" d=" M 3.77 4.71 C 4.01 4.48 4.50 4.03 4.74 3.80 C 22.92 4.16 41.12 4.14 59.31 3.75 C 59.53 4.00 59.98 4.50 60.21 4.75 C 60.05 10.16 60.01 15.58 59.98 21.00 C 59.24 21.00 57.77 21.00 57.03 21.00 C 57.02 20.24 57.00 18.72 56.99 17.96 C 56.98 15.24 56.96 9.79 56.95 7.06 C 40.32 6.94 23.68 6.94 7.05 7.06 C 7.04 9.79 7.02 15.24 7.01 17.96 C 7.00 18.72 6.98 20.24 6.97 21.00 C 6.23 21.00 4.76 21.00 4.02 21.00 C 3.94 15.57 4.18 10.13 3.77 4.71 Z" />
</g>
<g id="#0000002b">
<path fill="#000000" opacity="0.17" d=" M 2.23 5.50 L 3.01 5.10 C 2.96 20.40 3.06 35.70 2.95 51.00 C 3.48 53.96 2.24 57.43 3.70 60.28 C 3.97 60.75 4.52 61.70 4.80 62.17 L 5.37 62.80 C 21.91 63.30 38.47 62.84 55.02 63.05 C 56.38 62.84 58.21 63.41 59.22 62.22 C 59.49 61.73 60.02 60.75 60.29 60.26 C 61.90 41.96 60.59 23.44 61.01 5.05 L 61.83 5.36 C 62.21 22.23 61.99 39.13 61.95 56.00 C 62.84 59.05 61.25 61.53 59.98 64.00 L 4.03 64.00 C 2.55 61.26 0.86 58.39 1.98 55.02 C 2.14 38.51 1.69 22.00 2.23 5.50 Z" />
</g>
<g id="#00000076">
<path fill="#000000" opacity="0.46" d=" M 3.01 5.10 L 3.77 4.71 C 4.18 10.13 3.94 15.57 4.02 21.00 C 3.99 28.00 3.95 35.00 4.03 42.00 C 3.99 48.09 4.04 54.19 3.70 60.28 C 2.24 57.43 3.48 53.96 2.95 51.00 C 3.06 35.70 2.96 20.40 3.01 5.10 Z" />
<path fill="#000000" opacity="0.46" d=" M 60.21 4.75 L 61.01 5.05 C 60.59 23.44 61.90 41.96 60.29 60.26 C 60.04 54.17 60.01 48.09 59.98 42.00 C 60.00 35.00 60.04 28.00 59.98 21.00 C 60.01 15.58 60.05 10.16 60.21 4.75 Z" />
</g>
<g id="#033a9eff">
<path fill="#033a9e" opacity="1.00" d=" M 7.05 7.06 C 23.68 6.94 40.32 6.94 56.95 7.06 C 56.96 9.79 56.98 15.24 56.99 17.96 L 56.00 18.11 C 55.99 17.62 55.97 16.64 55.96 16.14 C 56.03 13.44 56.03 10.74 55.93 8.04 C 39.98 8.01 24.01 7.85 8.06 8.08 C 8.02 10.77 8.01 13.45 8.03 16.13 C 8.02 16.63 8.00 17.62 7.99 18.11 L 7.01 17.96 C 7.02 15.24 7.04 9.79 7.05 7.06 Z" />
</g>
<g id="#1565cdff">
<path fill="#1565cd" opacity="1.00" d=" M 8.06 8.08 C 24.01 7.85 39.98 8.01 55.93 8.04 C 56.03 10.74 56.03 13.44 55.96 16.14 C 54.34 14.11 53.07 11.08 49.39 12.54 C 44.69 12.05 39.92 11.00 35.18 11.61 C 33.51 9.49 30.40 9.43 28.82 11.70 C 22.60 10.60 16.39 12.07 10.31 13.27 C 9.47 14.16 8.76 15.16 8.03 16.13 C 8.01 13.45 8.02 10.77 8.06 8.08 Z" />
</g>
<g id="#9ca6aeff">
<path fill="#9ca6ae" opacity="1.00" d=" M 28.82 11.70 C 30.40 9.43 33.51 9.49 35.18 11.61 C 33.07 11.95 30.93 11.97 28.82 11.70 Z" />
</g>
<g id="#307bd2ff">
<path fill="#307bd2" opacity="1.00" d=" M 10.31 13.27 C 16.39 12.07 22.60 10.60 28.82 11.70 C 30.93 11.97 33.07 11.95 35.18 11.61 C 39.92 11.00 44.69 12.05 49.39 12.54 C 53.07 11.08 54.34 14.11 55.96 16.14 C 55.97 16.64 55.99 17.62 56.00 18.11 L 55.97 19.12 C 54.05 18.51 52.13 17.88 50.24 17.18 C 48.40 15.91 45.80 15.44 44.81 17.95 C 41.94 16.01 38.90 14.04 35.37 13.70 C 33.08 13.02 30.83 12.99 28.62 13.60 C 25.13 14.27 22.02 16.05 19.02 17.89 C 17.74 16.17 15.41 15.21 13.86 17.22 C 11.92 17.88 9.97 18.50 8.02 19.11 L 7.99 18.11 C 8.00 17.62 8.02 16.63 8.03 16.13 C 8.76 15.16 9.47 14.16 10.31 13.27 Z" />
</g>
<g id="#8f32a5ff">
<path fill="#8f32a5" opacity="1.00" d=" M 28.62 13.60 C 30.83 12.99 33.08 13.02 35.37 13.70 C 34.99 14.24 34.24 15.32 33.86 15.86 L 32.89 15.91 C 32.42 15.92 31.49 15.94 31.02 15.95 L 30.07 15.90 C 29.71 15.33 28.98 14.17 28.62 13.60 Z" />
</g>
<g id="#e8e6e8ff">
<path fill="#e8e6e8" opacity="1.00" d=" M 19.02 17.89 C 22.02 16.05 25.13 14.27 28.62 13.60 C 28.98 14.17 29.71 15.33 30.07 15.90 C 26.71 16.79 23.03 17.70 20.89 20.69 C 20.58 21.03 19.97 21.70 19.67 22.04 L 18.90 21.76 C 18.92 21.04 18.95 19.59 18.96 18.86 L 19.02 17.89 Z" />
</g>
<g id="#e7e6e6ff">
<path fill="#e7e6e6" opacity="1.00" d=" M 35.37 13.70 C 38.90 14.04 41.94 16.01 44.81 17.95 L 44.90 18.93 C 44.94 19.67 45.03 21.15 45.08 21.89 L 44.29 21.97 C 44.00 21.66 43.42 21.03 43.13 20.71 C 40.96 17.70 37.24 16.79 33.86 15.86 C 34.24 15.32 34.99 14.24 35.37 13.70 Z" />
</g>
<g id="#a8aeb4ff">
<path fill="#a8aeb4" opacity="1.00" d=" M 13.86 17.22 C 15.41 15.21 17.74 16.17 19.02 17.89 C 17.30 18.22 15.29 18.50 13.86 17.22 Z" />
</g>
<g id="#5fa4d9ff">
<path fill="#5fa4d9" opacity="1.00" d=" M 20.89 20.69 C 23.03 17.70 26.71 16.79 30.07 15.90 L 31.02 15.95 C 31.02 17.69 31.02 21.19 31.03 22.94 C 28.87 21.67 25.86 21.45 24.63 24.06 C 23.41 22.91 22.17 21.78 20.89 20.69 Z" />
</g>
<g id="#cd7a83ff">
<path fill="#cd7a83" opacity="1.00" d=" M 31.02 15.95 C 31.49 15.94 32.42 15.92 32.89 15.91 L 32.78 16.80 C 32.07 20.83 32.03 24.92 31.95 29.00 L 30.95 29.06 C 31.00 27.02 31.04 24.98 31.03 22.94 C 31.02 21.19 31.02 17.69 31.02 15.95 Z" />
</g>
<g id="#60a1d4ff">
<path fill="#60a1d4" opacity="1.00" d=" M 32.89 15.91 L 33.86 15.86 C 37.24 16.79 40.96 17.70 43.13 20.71 C 42.20 21.46 41.30 22.22 40.39 22.99 C 38.45 21.68 36.29 20.77 34.06 20.09 C 33.84 21.37 33.41 23.93 33.19 25.20 C 33.06 22.40 32.92 19.60 32.78 16.80 L 32.89 15.91 Z" />
</g>
<g id="#9ba8b1ff">
<path fill="#9ba8b1" opacity="1.00" d=" M 44.81 17.95 C 45.80 15.44 48.40 15.91 50.24 17.18 C 48.77 17.73 47.27 18.19 45.79 18.69 L 44.90 18.93 L 44.81 17.95 Z" />
</g>
<g id="#4c8ec9ff">
<path fill="#4c8ec9" opacity="1.00" d=" M 8.02 19.11 C 9.97 18.50 11.92 17.88 13.86 17.22 C 15.29 18.50 17.30 18.22 19.02 17.89 L 18.96 18.86 C 15.89 17.95 13.81 18.55 12.72 20.66 C 8.35 20.70 9.35 26.19 8.24 29.22 C 8.16 25.85 8.00 22.49 8.02 19.11 Z" />
</g>
<g id="#f07375ff">
<path fill="#f07375" opacity="1.00" d=" M 31.95 29.00 C 32.03 24.92 32.07 20.83 32.78 16.80 C 32.92 19.60 33.06 22.40 33.19 25.20 C 33.11 26.48 33.05 27.77 33.00 29.05 L 31.95 29.00 Z" />
</g>
<g id="#4b8ecaff">
<path fill="#4b8eca" opacity="1.00" d=" M 50.24 17.18 C 52.13 17.88 54.05 18.51 55.97 19.12 C 55.98 22.48 55.95 25.84 55.88 29.20 C 55.03 26.30 55.55 20.73 51.25 20.56 C 50.69 18.13 47.59 19.22 45.79 18.69 C 47.27 18.19 48.77 17.73 50.24 17.18 Z" />
</g>
<g id="#2669a1ff">
<path fill="#2669a1" opacity="1.00" d=" M 7.01 17.96 L 7.99 18.11 L 8.02 19.11 C 8.00 22.49 8.16 25.85 8.24 29.22 L 8.06 30.10 L 7.05 29.99 C 7.01 26.99 7.01 24.00 6.97 21.00 C 6.98 20.24 7.00 18.72 7.01 17.96 Z" />
<path fill="#2669a1" opacity="1.00" d=" M 56.00 18.11 L 56.99 17.96 C 57.00 18.72 57.02 20.24 57.03 21.00 C 57.00 23.99 57.01 26.99 56.96 29.98 L 55.98 30.10 L 55.88 29.20 C 55.95 25.84 55.98 22.48 55.97 19.12 L 56.00 18.11 Z" />
</g>
<g id="#d24f52ff">
<path fill="#d24f52" opacity="1.00" d=" M 12.72 20.66 C 13.81 18.55 15.89 17.95 18.96 18.86 C 18.95 19.59 18.92 21.04 18.90 21.76 C 17.92 22.20 16.95 22.65 15.98 23.11 C 14.89 22.30 13.82 21.46 12.72 20.66 Z" />
</g>
<g id="#d14f53ff">
<path fill="#d14f53" opacity="1.00" d=" M 44.90 18.93 L 45.79 18.69 C 47.59 19.22 50.69 18.13 51.25 20.56 C 50.36 21.37 49.51 22.20 48.67 23.06 C 47.47 22.68 46.28 22.27 45.08 21.89 C 45.03 21.15 44.94 19.67 44.90 18.93 Z" />
</g>
<g id="#70b4e0ff">
<path fill="#70b4e0" opacity="1.00" d=" M 34.06 20.09 C 36.29 20.77 38.45 21.68 40.39 22.99 C 38.32 25.10 36.26 27.24 34.00 29.16 L 33.00 29.05 C 33.05 27.77 33.11 26.48 33.19 25.20 C 33.41 23.93 33.84 21.37 34.06 20.09 Z" />
</g>
<g id="#f5f5f5ff">
<path fill="#f5f5f5" opacity="1.00" d=" M 4.02 21.00 C 4.76 21.00 6.23 21.00 6.97 21.00 C 7.01 24.00 7.01 26.99 7.05 29.99 C 7.02 33.99 7.00 38.00 6.98 42.00 C 6.24 42.00 4.76 42.00 4.03 42.00 C 3.95 35.00 3.99 28.00 4.02 21.00 Z" />
<path fill="#f5f5f5" opacity="1.00" d=" M 57.03 21.00 C 57.77 21.00 59.24 21.00 59.98 21.00 C 60.04 28.00 60.00 35.00 59.98 42.00 C 59.24 42.00 57.76 42.00 57.02 42.00 C 57.00 37.99 56.98 33.99 56.96 29.98 C 57.01 26.99 57.00 23.99 57.03 21.00 Z" />
</g>
<g id="#63a1d2ff">
<path fill="#63a1d2" opacity="1.00" d=" M 8.24 29.22 C 9.35 26.19 8.35 20.70 12.72 20.66 C 13.82 21.46 14.89 22.30 15.98 23.11 C 15.15 24.72 14.36 26.34 13.59 27.97 C 12.64 28.62 11.65 29.23 10.79 29.99 C 11.52 30.65 12.29 31.29 13.09 31.89 C 11.67 31.67 10.55 31.99 9.75 32.82 C 9.34 34.17 8.54 36.85 8.14 38.19 C 8.09 35.49 8.07 32.79 8.06 30.10 L 8.24 29.22 Z" />
</g>
<g id="#d67980ff">
<path fill="#d67980" opacity="1.00" d=" M 19.67 22.04 C 19.97 21.70 20.58 21.03 20.89 20.69 C 22.17 21.78 23.41 22.91 24.63 24.06 C 26.32 25.86 28.07 27.62 30.00 29.17 C 29.69 29.67 29.09 30.66 28.78 31.16 C 25.69 28.17 22.59 25.19 19.67 22.04 Z" />
</g>
<g id="#d7797fff">
<path fill="#d7797f" opacity="1.00" d=" M 40.39 22.99 C 41.30 22.22 42.20 21.46 43.13 20.71 C 43.42 21.03 44.00 21.66 44.29 21.97 C 43.15 23.27 41.98 24.54 40.81 25.81 C 38.93 27.60 37.03 29.37 35.14 31.15 C 34.85 30.65 34.28 29.66 34.00 29.16 C 36.26 27.24 38.32 25.10 40.39 22.99 Z" />
</g>
<g id="#62a1d1ff">
<path fill="#62a1d1" opacity="1.00" d=" M 48.67 23.06 C 49.51 22.20 50.36 21.37 51.25 20.56 C 55.55 20.73 55.03 26.30 55.88 29.20 L 55.98 30.10 C 55.99 34.47 55.91 38.83 55.86 43.20 C 55.26 40.09 55.36 36.82 54.37 33.79 C 54.38 31.71 52.41 32.01 50.92 31.88 C 54.22 30.55 51.97 28.69 50.34 26.93 C 49.78 25.64 49.21 24.35 48.67 23.06 Z" />
</g>
<g id="#f5f1f0ff">
<path fill="#f5f1f0" opacity="1.00" d=" M 15.98 23.11 C 16.95 22.65 17.92 22.20 18.90 21.76 C 18.21 23.45 17.51 25.15 16.97 26.89 C 16.02 28.09 14.92 29.99 13.59 27.97 C 14.36 26.34 15.15 24.72 15.98 23.11 Z" />
</g>
<g id="#7ab8e0ff">
<path fill="#7ab8e0" opacity="1.00" d=" M 18.90 21.76 L 19.67 22.04 C 22.59 25.19 25.69 28.17 28.78 31.16 L 28.92 32.03 C 24.62 32.01 20.32 31.99 16.01 32.00 C 16.38 30.31 16.72 28.61 16.97 26.89 C 17.51 25.15 18.21 23.45 18.90 21.76 Z" />
</g>
<g id="#72b6e1ff">
<path fill="#72b6e1" opacity="1.00" d=" M 24.63 24.06 C 25.86 21.45 28.87 21.67 31.03 22.94 C 31.04 24.98 31.00 27.02 30.95 29.06 L 30.00 29.17 C 28.07 27.62 26.32 25.86 24.63 24.06 Z" />
</g>
<g id="#70afd9ff">
<path fill="#70afd9" opacity="1.00" d=" M 44.29 21.97 L 45.08 21.89 C 45.85 23.52 46.64 25.15 47.31 26.82 C 47.44 30.93 42.62 26.86 40.81 25.81 C 41.98 24.54 43.15 23.27 44.29 21.97 Z" />
</g>
<g id="#eeececff">
<path fill="#eeecec" opacity="1.00" d=" M 45.08 21.89 C 46.28 22.27 47.47 22.68 48.67 23.06 C 49.21 24.35 49.78 25.64 50.34 26.93 C 50.05 28.08 49.36 28.84 48.25 29.22 C 48.01 28.62 47.55 27.42 47.31 26.82 C 46.64 25.15 45.85 23.52 45.08 21.89 Z" />
</g>
<g id="#80bbe0ff">
<path fill="#80bbe0" opacity="1.00" d=" M 35.14 31.15 C 37.03 29.37 38.93 27.60 40.81 25.81 C 42.62 26.86 47.44 30.93 47.31 26.82 C 47.55 27.42 48.01 28.62 48.25 29.22 C 48.17 29.92 48.01 31.31 47.93 32.01 C 43.66 32.01 39.39 32.00 35.12 32.03 L 35.14 31.15 Z" />
</g>
<g id="#b3b7bcff">
<path fill="#b3b7bc" opacity="1.00" d=" M 13.59 27.97 C 14.92 29.99 16.02 28.09 16.97 26.89 C 16.72 28.61 16.38 30.31 16.01 32.00 C 15.28 31.98 13.82 31.92 13.09 31.89 C 12.29 31.29 11.52 30.65 10.79 29.99 C 11.65 29.23 12.64 28.62 13.59 27.97 Z" />
</g>
<g id="#b3b6baff">
<path fill="#b3b6ba" opacity="1.00" d=" M 50.34 26.93 C 51.97 28.69 54.22 30.55 50.92 31.88 C 50.17 31.91 48.67 31.98 47.93 32.01 C 48.01 31.31 48.17 29.92 48.25 29.22 C 49.36 28.84 50.05 28.08 50.34 26.93 Z" />
</g>
<g id="#912ba5ff">
<path fill="#912ba5" opacity="1.00" d=" M 30.00 29.17 L 30.95 29.06 L 31.95 29.00 L 33.00 29.05 L 34.00 29.16 C 34.28 29.66 34.85 30.65 35.14 31.15 L 35.12 32.03 C 35.11 32.53 35.07 33.52 35.06 34.02 C 33.47 34.72 31.76 34.97 30.05 35.11 C 29.85 34.81 29.47 34.22 29.27 33.92 C 29.18 33.45 29.01 32.51 28.92 32.03 L 28.78 31.16 C 29.09 30.66 29.69 29.67 30.00 29.17 Z" />
</g>
<g id="#5086aaff">
<path fill="#5086aa" opacity="1.00" d=" M 7.05 29.99 L 8.06 30.10 C 8.07 32.79 8.09 35.49 8.14 38.19 C 8.61 44.11 6.73 50.53 8.70 56.25 L 9.02 57.05 C 8.54 57.02 7.56 56.96 7.07 56.93 C 6.94 51.95 7.02 46.98 6.98 42.00 C 7.00 38.00 7.02 33.99 7.05 29.99 Z" />
<path fill="#5086aa" opacity="1.00" d=" M 55.98 30.10 L 56.96 29.98 C 56.98 33.99 57.00 37.99 57.02 42.00 C 56.92 46.97 57.23 51.96 56.90 56.92 C 56.44 56.95 55.51 57.01 55.04 57.04 L 55.26 56.21 C 56.29 51.95 56.02 47.54 55.86 43.20 C 55.91 38.83 55.99 34.47 55.98 30.10 Z" />
</g>
<g id="#9133a5ff">
<path fill="#9133a5" opacity="1.00" d=" M 9.75 32.82 C 10.55 31.99 11.67 31.67 13.09 31.89 C 13.82 31.92 15.28 31.98 16.01 32.00 C 15.97 32.50 15.87 33.48 15.82 33.97 C 15.33 34.28 14.34 34.88 13.85 35.19 C 13.09 35.07 11.58 34.84 10.82 34.72 C 10.55 34.25 10.02 33.30 9.75 32.82 Z" />
</g>
<g id="#e5797cff">
<path fill="#e5797c" opacity="1.00" d=" M 16.01 32.00 C 20.32 31.99 24.62 32.01 28.92 32.03 C 29.01 32.51 29.18 33.45 29.27 33.92 C 24.79 33.98 20.31 33.99 15.82 33.97 C 15.87 33.48 15.97 32.50 16.01 32.00 Z" />
</g>
<g id="#e6787cff">
<path fill="#e6787c" opacity="1.00" d=" M 35.12 32.03 C 39.39 32.00 43.66 32.01 47.93 32.01 C 48.00 32.49 48.13 33.46 48.20 33.94 C 43.82 33.98 39.44 33.99 35.06 34.02 C 35.07 33.52 35.11 32.53 35.12 32.03 Z" />
</g>
<g id="#9133a6ff">
<path fill="#9133a6" opacity="1.00" d=" M 47.93 32.01 C 48.67 31.98 50.17 31.91 50.92 31.88 C 52.41 32.01 54.38 31.71 54.37 33.79 C 52.98 34.37 51.56 34.89 50.11 35.32 C 49.64 34.98 48.68 34.29 48.20 33.94 C 48.13 33.46 48.00 32.49 47.93 32.01 Z" />
</g>
<g id="#77aed1ff">
<path fill="#77aed1" opacity="1.00" d=" M 8.14 38.19 C 8.54 36.85 9.34 34.17 9.75 32.82 C 10.02 33.30 10.55 34.25 10.82 34.72 C 8.23 41.48 8.46 49.16 9.74 56.18 L 8.70 56.25 C 6.73 50.53 8.61 44.11 8.14 38.19 Z" />
</g>
<g id="#f0efefff">
<path fill="#f0efef" opacity="1.00" d=" M 13.85 35.19 C 14.34 34.88 15.33 34.28 15.82 33.97 C 16.21 36.90 17.69 39.49 18.96 42.11 C 17.63 41.54 16.38 40.83 15.16 40.06 C 14.69 38.45 14.22 36.83 13.85 35.19 Z" />
<path fill="#f0efef" opacity="1.00" d=" M 18.96 42.11 C 19.38 42.37 20.22 42.89 20.64 43.15 C 20.95 43.43 21.57 43.98 21.88 44.26 C 23.10 45.43 24.54 46.31 25.94 47.24 L 25.99 48.17 L 25.74 49.07 C 23.15 48.37 21.03 46.75 19.14 44.93 C 19.10 44.22 19.00 42.81 18.96 42.11 Z" />
</g>
<g id="#94c6e4ff">
<path fill="#94c6e4" opacity="1.00" d=" M 15.82 33.97 C 20.31 33.99 24.79 33.98 29.27 33.92 C 26.45 37.05 23.38 39.95 20.64 43.15 C 20.22 42.89 19.38 42.37 18.96 42.11 C 17.69 39.49 16.21 36.90 15.82 33.97 Z" />
</g>
<g id="#d67b81ff">
<path fill="#d67b81" opacity="1.00" d=" M 29.27 33.92 C 29.47 34.22 29.85 34.81 30.05 35.11 C 29.38 36.71 28.90 38.38 28.41 40.04 C 26.13 38.87 24.00 43.11 21.88 44.26 C 21.57 43.98 20.95 43.43 20.64 43.15 C 23.38 39.95 26.45 37.05 29.27 33.92 Z" />
</g>
<g id="#c64444ff">
<path fill="#c64444" opacity="1.00" d=" M 30.05 35.11 C 31.76 34.97 33.47 34.72 35.06 34.02 L 35.11 34.85 C 35.05 36.67 34.97 38.49 34.87 40.31 L 34.30 39.77 C 33.88 38.20 33.58 35.24 31.24 36.13 C 30.41 38.13 29.87 40.25 29.10 42.28 L 28.08 41.93 C 28.17 41.46 28.33 40.52 28.41 40.04 C 28.90 38.38 29.38 36.71 30.05 35.11 Z" />
</g>
<g id="#93c5e3ff">
<path fill="#93c5e3" opacity="1.00" d=" M 35.06 34.02 C 39.44 33.99 43.82 33.98 48.20 33.94 C 47.81 36.84 46.38 39.43 45.02 41.97 C 44.78 42.14 44.31 42.48 44.08 42.65 L 43.43 43.10 C 40.75 40.26 38.05 37.42 35.11 34.85 L 35.06 34.02 Z" />
</g>
<g id="#eeedecff">
<path fill="#eeedec" opacity="1.00" d=" M 48.20 33.94 C 48.68 34.29 49.64 34.98 50.11 35.32 C 49.72 37.16 49.26 38.98 48.98 40.84 C 47.66 41.22 46.34 41.61 45.02 41.97 C 46.38 39.43 47.81 36.84 48.20 33.94 Z" />
</g>
<g id="#84badbff">
<path fill="#84badb" opacity="1.00" d=" M 50.11 35.32 C 51.56 34.89 52.98 34.37 54.37 33.79 C 55.36 36.82 55.26 40.09 55.86 43.20 C 56.02 47.54 56.29 51.95 55.26 56.21 C 50.81 55.94 46.30 56.28 41.88 55.60 C 45.91 55.23 49.97 55.22 54.00 54.86 C 54.48 51.17 53.82 47.54 52.83 44.02 C 52.32 44.68 51.81 45.34 51.30 46.02 L 50.98 45.15 C 51.41 43.41 47.16 44.57 48.58 43.39 C 49.91 42.91 49.34 41.81 48.98 40.84 C 49.26 38.98 49.72 37.16 50.11 35.32 Z" />
</g>
<g id="#88bfe0ff">
<path fill="#88bfe0" opacity="1.00" d=" M 9.74 56.18 C 8.46 49.16 8.23 41.48 10.82 34.72 C 11.58 34.84 13.09 35.07 13.85 35.19 C 14.22 36.83 14.69 38.45 15.16 40.06 C 14.81 40.61 14.10 41.69 13.75 42.23 C 13.15 43.02 12.86 43.92 12.88 44.93 L 12.61 45.82 C 11.70 48.47 10.59 51.07 10.03 53.82 C 13.67 56.38 18.91 54.48 23.15 55.20 C 18.72 55.98 14.22 55.97 9.74 56.18 Z" />
</g>
<g id="#d87a7fff">
<path fill="#d87a7f" opacity="1.00" d=" M 35.11 34.85 C 38.05 37.42 40.75 40.26 43.43 43.10 C 43.10 43.39 42.44 43.98 42.11 44.28 C 39.95 43.38 38.06 38.45 35.61 39.75 L 34.87 40.31 C 34.97 38.49 35.05 36.67 35.11 34.85 Z" />
</g>
<g id="#f98385ff">
<path fill="#f98385" opacity="1.00" d=" M 31.24 36.13 C 33.58 35.24 33.88 38.20 34.30 39.77 C 34.00 40.89 33.68 42.01 33.33 43.11 C 31.41 40.17 30.35 44.89 29.11 46.16 C 29.08 44.86 29.07 43.57 29.10 42.28 C 29.87 40.25 30.41 38.13 31.24 36.13 Z" />
</g>
<g id="#9ec8e1ff">
<path fill="#9ec8e1" opacity="1.00" d=" M 21.88 44.26 C 24.00 43.11 26.13 38.87 28.41 40.04 C 28.33 40.52 28.17 41.46 28.08 41.93 C 27.33 43.68 26.64 45.46 25.94 47.24 C 24.54 46.31 23.10 45.43 21.88 44.26 Z" />
</g>
<g id="#9dc7e1ff">
<path fill="#9dc7e1" opacity="1.00" d=" M 35.61 39.75 C 38.06 38.45 39.95 43.38 42.11 44.28 C 40.89 45.45 39.43 46.31 38.01 47.21 C 37.07 44.77 36.21 42.29 35.61 39.75 Z" />
</g>
<g id="#b0b3b9ff">
<path fill="#b0b3b9" opacity="1.00" d=" M 15.16 40.06 C 16.38 40.83 17.63 41.54 18.96 42.11 C 19.00 42.81 19.10 44.22 19.14 44.93 L 18.11 44.77 C 16.64 43.95 14.55 43.91 13.75 42.23 C 14.10 41.69 14.81 40.61 15.16 40.06 Z" />
</g>
<g id="#f76667ff">
<path fill="#f76667" opacity="1.00" d=" M 34.30 39.77 L 34.87 40.31 C 35.10 42.96 35.67 45.56 35.90 48.21 C 34.76 46.67 33.95 44.92 33.33 43.11 C 33.68 42.01 34.00 40.89 34.30 39.77 Z" />
</g>
<g id="#dc3733ff">
<path fill="#dc3733" opacity="1.00" d=" M 34.87 40.31 L 35.61 39.75 C 36.21 42.29 37.07 44.77 38.01 47.21 L 37.98 48.04 C 37.04 48.89 35.97 49.56 34.81 50.05 C 33.04 47.79 30.96 47.80 29.19 50.06 C 28.06 49.53 26.99 48.90 25.99 48.17 L 25.94 47.24 C 26.64 45.46 27.33 43.68 28.08 41.93 L 29.10 42.28 C 29.07 43.57 29.08 44.86 29.11 46.16 C 30.35 44.89 31.41 40.17 33.33 43.11 C 33.95 44.92 34.76 46.67 35.90 48.21 C 35.67 45.56 35.10 42.96 34.87 40.31 Z" />
</g>
<g id="#b0a6adff">
<path fill="#b0a6ad" opacity="1.00" d=" M 45.02 41.97 C 46.34 41.61 47.66 41.22 48.98 40.84 C 49.34 41.81 49.91 42.91 48.58 43.39 C 47.16 44.57 51.41 43.41 50.98 45.15 C 49.03 45.04 47.08 45.00 45.13 44.98 C 44.87 44.40 44.34 43.23 44.08 42.65 C 44.31 42.48 44.78 42.14 45.02 41.97 Z" />
</g>
<g id="#ebebebff">
<path fill="#ebebeb" opacity="1.00" d=" M 4.03 42.00 C 4.76 42.00 6.24 42.00 6.98 42.00 C 7.02 46.98 6.94 51.95 7.07 56.93 C 7.56 56.96 8.54 57.02 9.02 57.05 C 14.01 57.10 18.99 57.05 23.97 56.97 C 24.69 56.97 26.11 56.95 26.82 56.95 C 30.27 56.97 33.73 57.02 37.18 56.96 C 37.90 56.96 39.33 56.97 40.04 56.97 C 45.04 56.99 50.04 57.12 55.04 57.04 C 55.51 57.01 56.44 56.95 56.90 56.92 C 57.23 51.96 56.92 46.97 57.02 42.00 C 57.76 42.00 59.24 42.00 59.98 42.00 C 60.01 48.09 60.04 54.17 60.29 60.26 L 59.35 60.42 C 41.14 59.75 22.89 59.77 4.68 60.31 L 3.70 60.28 C 4.04 54.19 3.99 48.09 4.03 42.00 Z" />
</g>
<g id="#968c9dff">
<path fill="#968c9d" opacity="1.00" d=" M 12.88 44.93 C 12.86 43.92 13.15 43.02 13.75 42.23 C 14.55 43.91 16.64 43.95 18.11 44.77 C 16.38 45.07 14.61 45.33 12.88 44.93 Z" />
</g>
<g id="#ede8e8ff">
<path fill="#ede8e8" opacity="1.00" d=" M 43.43 43.10 L 44.08 42.65 C 44.34 43.23 44.87 44.40 45.13 44.98 L 44.79 45.94 C 42.85 47.15 40.91 48.39 38.85 49.40 C 38.63 49.06 38.20 48.38 37.98 48.04 L 38.01 47.21 C 39.43 46.31 40.89 45.45 42.11 44.28 C 42.44 43.98 43.10 43.39 43.43 43.10 Z" />
</g>
<g id="#99cceaff">
<path fill="#99ccea" opacity="1.00" d=" M 51.30 46.02 C 51.81 45.34 52.32 44.68 52.83 44.02 C 53.82 47.54 54.48 51.17 54.00 54.86 C 49.97 55.22 45.91 55.23 41.88 55.60 C 41.40 55.48 40.42 55.23 39.93 55.11 C 39.55 53.21 39.14 51.32 38.85 49.40 C 40.91 48.39 42.85 47.15 44.79 45.94 C 45.86 48.79 50.16 48.81 51.30 46.02 Z" />
</g>
<g id="#dc4b4cff">
<path fill="#dc4b4c" opacity="1.00" d=" M 12.88 44.93 C 14.61 45.33 16.38 45.07 18.11 44.77 L 19.14 44.93 C 19.21 48.90 13.91 49.09 12.61 45.82 L 12.88 44.93 Z" />
</g>
<g id="#9ccce9ff">
<path fill="#9ccce9" opacity="1.00" d=" M 19.14 44.93 C 21.03 46.75 23.15 48.37 25.74 49.07 C 25.18 51.08 24.51 53.07 23.98 55.09 L 23.15 55.20 C 18.91 54.48 13.67 56.38 10.03 53.82 C 10.59 51.07 11.70 48.47 12.61 45.82 C 13.91 49.09 19.21 48.90 19.14 44.93 Z" />
</g>
<g id="#dc4b4dff">
<path fill="#dc4b4d" opacity="1.00" d=" M 45.13 44.98 C 47.08 45.00 49.03 45.04 50.98 45.15 L 51.30 46.02 C 50.16 48.81 45.86 48.79 44.79 45.94 L 45.13 44.98 Z" />
</g>
<g id="#ac2014ff">
<path fill="#ac2014" opacity="1.00" d=" M 25.99 48.17 C 26.99 48.90 28.06 49.53 29.19 50.06 C 28.69 51.31 28.14 52.55 27.69 53.83 C 27.34 54.85 27.05 55.89 26.82 56.95 C 26.11 56.95 24.69 56.97 23.97 56.97 C 23.98 56.50 23.98 55.56 23.98 55.09 C 24.51 53.07 25.18 51.08 25.74 49.07 L 25.99 48.17 Z" />
</g>
<g id="#b0cfe4ff">
<path fill="#b0cfe4" opacity="1.00" d=" M 29.19 50.06 C 30.96 47.80 33.04 47.79 34.81 50.05 C 35.31 51.31 35.86 52.55 36.31 53.83 C 36.49 58.11 30.88 55.66 28.13 55.87 C 28.02 55.36 27.80 54.34 27.69 53.83 C 28.14 52.55 28.69 51.31 29.19 50.06 Z" />
</g>
<g id="#ac2114ff">
<path fill="#ac2114" opacity="1.00" d=" M 34.81 50.05 C 35.97 49.56 37.04 48.89 37.98 48.04 C 38.20 48.38 38.63 49.06 38.85 49.40 C 39.14 51.32 39.55 53.21 39.93 55.11 C 39.96 55.57 40.02 56.50 40.04 56.97 C 39.33 56.97 37.90 56.96 37.18 56.96 C 36.95 55.90 36.66 54.86 36.31 53.83 C 35.86 52.55 35.31 51.31 34.81 50.05 Z" />
</g>
<g id="#7b97aeff">
<path fill="#7b97ae" opacity="1.00" d=" M 26.82 56.95 C 27.05 55.89 27.34 54.85 27.69 53.83 C 27.80 54.34 28.02 55.36 28.13 55.87 C 30.88 55.66 36.49 58.11 36.31 53.83 C 36.66 54.86 36.95 55.90 37.18 56.96 C 33.73 57.02 30.27 56.97 26.82 56.95 Z" />
</g>
<g id="#6c97b3ff">
<path fill="#6c97b3" opacity="1.00" d=" M 23.15 55.20 L 23.98 55.09 C 23.98 55.56 23.98 56.50 23.97 56.97 C 18.99 57.05 14.01 57.10 9.02 57.05 L 8.70 56.25 L 9.74 56.18 C 14.22 55.97 18.72 55.98 23.15 55.20 Z" />
<path fill="#6c97b3" opacity="1.00" d=" M 39.93 55.11 C 40.42 55.23 41.40 55.48 41.88 55.60 C 46.30 56.28 50.81 55.94 55.26 56.21 L 55.04 57.04 C 50.04 57.12 45.04 56.99 40.04 56.97 C 40.02 56.50 39.96 55.57 39.93 55.11 Z" />
</g>
<g id="#00000081">
<path fill="#000000" opacity="0.51" d=" M 3.70 60.28 L 4.68 60.31 C 18.07 61.73 31.57 60.68 45.00 61.03 C 49.77 60.83 54.66 61.57 59.35 60.42 L 60.29 60.26 C 60.02 60.75 59.49 61.73 59.22 62.22 C 41.08 61.88 22.93 61.86 4.80 62.17 C 4.52 61.70 3.97 60.75 3.70 60.28 Z" />
</g>
<g id="#000000ad">
<path fill="#000000" opacity="0.68" d=" M 4.68 60.31 C 22.89 59.77 41.14 59.75 59.35 60.42 C 54.66 61.57 49.77 60.83 45.00 61.03 C 31.57 60.68 18.07 61.73 4.68 60.31 Z" />
</g>
<g id="#00000055">
<path fill="#000000" opacity="0.33" d=" M 4.80 62.17 C 22.93 61.86 41.08 61.88 59.22 62.22 C 58.21 63.41 56.38 62.84 55.02 63.05 C 38.47 62.84 21.91 63.30 5.37 62.80 L 4.80 62.17 Z" />
</g>
</svg>
