<?xml version="1.0" encoding="UTF-8" ?>
<!DOCTYPE svg PUBLIC "-//W3C//DTD SVG 1.1//EN" "http://www.w3.org/Graphics/SVG/1.1/DTD/svg11.dtd">
<svg width="64pt" height="64pt" viewBox="0 0 64 64" version="1.1" xmlns="http://www.w3.org/2000/svg">
<g id="#1c110c85">
<path fill="#1c110c" opacity="0.52" d=" M 13.55 9.09 C 19.83 6.09 26.71 4.43 33.53 3.26 C 36.52 3.44 39.51 3.84 42.42 4.55 C 33.64 4.11 24.93 6.19 16.81 9.42 C 15.40 13.17 16.25 17.82 16.46 21.88 C 15.90 22.80 15.37 22.89 14.88 22.14 C 13.75 17.89 16.73 12.65 13.55 9.09 Z" />
</g>
<g id="#743f1de0">
<path fill="#743f1d" opacity="0.88" d=" M 33.53 3.26 C 40.47 2.42 48.29 3.31 53.56 8.34 C 55.42 10.27 57.54 12.43 57.94 15.18 C 58.21 15.63 58.75 16.52 59.02 16.97 L 59.18 17.73 C 59.37 19.91 59.47 22.09 59.59 24.28 L 58.10 22.92 C 57.05 19.68 56.34 16.27 54.92 13.12 C 54.67 12.11 54.09 11.35 53.17 10.84 C 52.41 10.25 51.73 9.57 51.14 8.81 C 50.65 7.89 49.90 7.28 48.90 7.00 C 46.75 6.17 44.65 5.17 42.42 4.55 C 39.51 3.84 36.52 3.44 33.53 3.26 Z" />
</g>
<g id="#0a03005c">
<path fill="#0a0300" opacity="0.36" d=" M 48.90 7.00 C 49.90 7.28 50.65 7.89 51.14 8.81 C 49.43 9.36 48.68 8.76 48.90 7.00 Z" />
</g>
<g id="#16090368">
<path fill="#160903" opacity="0.41" d=" M 53.17 10.84 C 54.09 11.35 54.67 12.11 54.92 13.12 C 53.17 13.31 52.58 12.55 53.17 10.84 Z" />
</g>
<g id="#210d039f">
<path fill="#210d03" opacity="0.62" d=" M 57.94 15.18 L 58.84 15.22 L 59.39 16.14 L 59.02 16.97 C 58.75 16.52 58.21 15.63 57.94 15.18 Z" />
</g>
<g id="#3d2516c1">
<path fill="#3d2516" opacity="0.76" d=" M 59.18 17.73 C 62.47 30.73 59.36 44.26 56.79 57.12 C 56.11 59.05 56.38 62.49 53.37 61.93 C 56.61 57.70 57.24 52.18 57.10 47.02 C 56.35 48.53 55.92 50.15 55.44 51.76 L 55.11 51.25 C 52.59 49.82 48.29 52.81 45.84 49.69 C 48.84 49.51 53.74 51.13 55.03 47.34 C 55.37 47.24 56.05 47.03 56.38 46.93 C 56.76 45.63 57.06 44.31 57.29 42.97 C 57.14 41.70 56.98 40.43 56.79 39.17 C 56.32 38.87 55.38 38.27 54.91 37.97 L 55.84 37.83 C 56.23 37.79 57.02 37.72 57.42 37.68 C 57.55 37.00 57.80 35.65 57.93 34.98 C 57.85 36.56 57.75 38.13 57.64 39.71 C 58.09 40.35 58.55 40.99 59.01 41.63 C 59.19 35.85 60.13 30.07 59.59 24.28 C 59.47 22.09 59.37 19.91 59.18 17.73 Z" />
</g>
<g id="#2a4570fe">
<path fill="#2a4570" opacity="1.00" d=" M 5.97 33.32 C 5.98 28.99 8.96 24.75 13.17 23.48 C 13.35 24.22 13.71 25.71 13.90 26.45 C 13.40 27.22 12.70 27.80 11.79 28.16 C 11.92 27.25 12.18 25.41 12.32 24.50 C 5.38 28.17 6.54 37.84 9.29 43.88 C 9.71 44.76 10.15 45.63 10.61 46.49 C 10.77 46.77 11.11 47.32 11.27 47.60 C 9.93 47.31 8.59 46.99 7.24 46.70 C 7.80 44.97 8.43 43.10 5.77 42.93 C 5.42 42.14 5.08 41.34 4.78 40.53 L 5.39 38.83 C 6.21 37.10 6.07 35.17 5.97 33.32 Z" />
</g>
<g id="#f1f8feff">
<path fill="#f1f8fe" opacity="1.00" d=" M 14.84 24.44 C 15.76 24.04 16.72 23.78 17.73 23.66 C 18.65 24.28 19.60 24.87 20.55 25.45 C 20.39 26.33 20.07 28.09 19.91 28.97 C 18.26 27.26 15.38 28.00 16.03 30.67 L 15.99 32.05 C 15.03 32.94 14.06 33.81 13.07 34.66 C 12.61 34.51 11.71 34.20 11.26 34.05 C 10.85 33.63 10.01 32.79 9.59 32.37 C 9.83 31.26 10.09 30.15 10.37 29.05 C 10.72 28.83 11.43 28.39 11.79 28.16 C 12.70 27.80 13.40 27.22 13.90 26.45 C 14.13 25.95 14.60 24.94 14.84 24.44 Z" />
</g>
<g id="#965d39ef">
<path fill="#965d39" opacity="0.94" d=" M 58.10 22.92 L 59.59 24.28 C 60.13 30.07 59.19 35.85 59.01 41.63 C 58.55 40.99 58.09 40.35 57.64 39.71 C 57.75 38.13 57.85 36.56 57.93 34.98 C 58.18 30.96 58.02 26.94 58.10 22.92 Z" />
</g>
<g id="#cee4f5ff">
<path fill="#cee4f5" opacity="1.00" d=" M 9.29 43.88 C 6.54 37.84 5.38 28.17 12.32 24.50 C 12.18 25.41 11.92 27.25 11.79 28.16 C 11.43 28.39 10.72 28.83 10.37 29.05 C 10.09 30.15 9.83 31.26 9.59 32.37 C 10.01 32.79 10.85 33.63 11.26 34.05 C 11.49 34.35 11.94 34.96 12.17 35.26 C 11.34 38.18 10.38 41.06 9.29 43.88 Z" />
</g>
<g id="#94c4e9ff">
<path fill="#94c4e9" opacity="1.00" d=" M 20.55 25.45 C 20.56 25.59 20.58 25.87 20.59 26.01 C 20.75 28.50 20.74 31.00 20.64 33.49 C 20.09 33.99 18.98 35.01 18.42 35.52 C 16.64 35.23 14.84 35.01 13.07 34.66 C 14.06 33.81 15.03 32.94 15.99 32.05 L 16.03 30.67 C 16.54 31.10 17.57 31.95 18.08 32.38 C 18.46 31.93 19.22 31.02 19.60 30.57 C 19.68 30.17 19.83 29.37 19.91 28.97 C 20.07 28.09 20.39 26.33 20.55 25.45 Z" />
</g>
<g id="#4078bdff">
<path fill="#4078bd" opacity="1.00" d=" M 20.59 26.01 L 21.77 26.84 C 24.32 33.05 22.97 40.20 19.13 45.58 C 19.41 42.30 20.02 39.07 20.76 35.87 L 20.04 35.79 C 19.64 35.72 18.83 35.59 18.42 35.52 C 18.98 35.01 20.09 33.99 20.64 33.49 C 20.74 31.00 20.75 28.50 20.59 26.01 Z" />
</g>
<g id="#203f73ef">
<path fill="#203f73" opacity="0.94" d=" M 21.77 26.84 C 23.24 29.16 25.01 31.25 27.37 32.71 C 29.35 33.94 27.33 36.35 27.17 38.09 C 27.13 35.98 26.55 33.95 25.66 32.04 C 24.77 36.34 23.61 40.58 21.83 44.59 C 22.45 44.50 23.68 44.31 24.30 44.21 C 22.52 46.58 19.97 48.11 17.45 49.55 C 17.19 49.22 16.68 48.55 16.43 48.22 C 17.37 47.38 18.29 46.51 19.13 45.58 C 22.97 40.20 24.32 33.05 21.77 26.84 Z" />
</g>
<g id="#454d52ff">
<path fill="#454d52" opacity="1.00" d=" M 16.03 30.67 C 15.38 28.00 18.26 27.26 19.91 28.97 C 19.83 29.37 19.68 30.17 19.60 30.57 C 19.22 31.02 18.46 31.93 18.08 32.38 C 17.57 31.95 16.54 31.10 16.03 30.67 Z" />
</g>
<g id="#747b7dff">
<path fill="#747b7d" opacity="1.00" d=" M 44.58 28.77 C 45.53 28.90 47.41 29.17 48.36 29.30 C 47.78 30.09 47.21 30.88 46.64 31.67 C 46.88 33.09 47.12 34.51 47.35 35.94 C 49.23 35.86 51.10 35.75 52.97 35.73 C 53.69 36.25 55.12 37.31 55.84 37.83 L 54.91 37.97 C 53.90 38.20 52.90 38.45 51.90 38.71 C 51.66 39.95 51.41 41.19 51.14 42.42 C 50.93 42.74 50.52 43.38 50.31 43.70 L 50.01 43.31 C 49.76 42.95 49.26 42.24 49.01 41.88 C 48.16 40.61 47.30 39.34 46.43 38.08 C 45.63 38.44 44.01 39.14 43.20 39.50 C 42.94 41.72 42.73 43.96 42.74 46.20 C 40.62 42.14 43.29 38.04 46.52 35.60 C 46.17 34.84 45.49 33.32 45.14 32.56 C 45.06 31.95 44.91 30.74 44.83 30.14 L 44.58 28.77 Z" />
</g>
<g id="#2c2c2dcd">
<path fill="#2c2c2d" opacity="0.80" d=" M 48.36 29.30 L 48.65 28.90 C 49.65 31.12 49.05 33.17 47.33 34.85 C 49.23 34.98 51.13 35.23 52.97 35.73 C 51.10 35.75 49.23 35.86 47.35 35.94 C 47.12 34.51 46.88 33.09 46.64 31.67 C 47.21 30.88 47.78 30.09 48.36 29.30 Z" />
</g>
<g id="#423e3ce5">
<path fill="#423e3c" opacity="0.90" d=" M 44.47 32.77 C 43.23 31.60 43.35 30.72 44.83 30.14 C 44.91 30.74 45.06 31.95 45.14 32.56 L 44.47 32.77 Z" />
</g>
<g id="#070a1276">
<path fill="#070a12" opacity="0.46" d=" M 5.39 38.83 C 4.29 37.46 3.96 33.78 5.97 33.32 C 6.07 35.17 6.21 37.10 5.39 38.83 Z" />
</g>
<g id="#446f9bfb">
<path fill="#446f9b" opacity="1.00" d=" M 25.66 32.04 C 26.55 33.95 27.13 35.98 27.17 38.09 C 26.84 39.08 26.43 40.05 25.94 40.97 C 25.65 41.41 25.07 42.29 24.78 42.73 C 24.66 43.10 24.42 43.84 24.30 44.21 C 23.68 44.31 22.45 44.50 21.83 44.59 C 23.61 40.58 24.77 36.34 25.66 32.04 Z" />
</g>
<g id="#01000037">
<path fill="#010000" opacity="0.22" d=" M 11.26 34.05 C 11.71 34.20 12.61 34.51 13.07 34.66 C 14.84 35.01 16.64 35.23 18.42 35.52 C 18.83 35.59 19.64 35.72 20.04 35.79 C 17.83 35.68 15.62 35.57 13.41 35.41 C 13.10 35.37 12.48 35.30 12.17 35.26 C 11.94 34.96 11.49 34.35 11.26 34.05 Z" />
<path fill="#010000" opacity="0.22" d=" M 5.68 60.00 C 9.90 57.24 15.20 58.54 19.94 58.31 C 25.40 58.09 30.51 60.56 35.96 60.43 C 41.84 60.31 47.73 60.39 53.61 60.26 L 53.52 60.71 C 47.09 61.89 40.43 61.86 33.97 60.88 C 29.32 59.95 24.75 61.96 20.06 61.63 C 15.28 61.39 9.99 62.70 5.68 60.00 Z" />
</g>
<g id="#a8d6f5ff">
<path fill="#a8d6f5" opacity="1.00" d=" M 12.17 35.26 C 12.48 35.30 13.10 35.37 13.41 35.41 C 14.84 36.06 16.27 36.74 17.70 37.43 C 17.41 40.50 16.69 43.51 15.48 46.35 C 14.57 45.75 13.66 45.16 12.75 44.56 C 12.03 45.21 11.32 45.85 10.61 46.49 C 10.15 45.63 9.71 44.76 9.29 43.88 C 10.38 41.06 11.34 38.18 12.17 35.26 Z" />
</g>
<g id="#77b5e4ff">
<path fill="#77b5e4" opacity="1.00" d=" M 13.41 35.41 C 15.62 35.57 17.83 35.68 20.04 35.79 L 20.76 35.87 C 20.02 39.07 19.41 42.30 19.13 45.58 C 18.29 46.51 17.37 47.38 16.43 48.22 C 15.68 48.69 14.93 49.18 14.17 49.63 C 13.20 48.96 12.22 48.31 11.27 47.60 C 11.11 47.32 10.77 46.77 10.61 46.49 C 11.32 45.85 12.03 45.21 12.75 44.56 C 13.66 45.16 14.57 45.75 15.48 46.35 C 16.69 43.51 17.41 40.50 17.70 37.43 C 16.27 36.74 14.84 36.06 13.41 35.41 Z" />
</g>
<g id="#a9acadff">
<path fill="#a9acad" opacity="1.00" d=" M 51.90 38.71 C 52.90 38.45 53.90 38.20 54.91 37.97 C 55.38 38.27 56.32 38.87 56.79 39.17 C 56.98 40.43 57.14 41.70 57.29 42.97 C 56.52 42.08 55.74 41.20 54.95 40.33 C 53.67 41.02 52.39 41.70 51.14 42.42 C 51.41 41.19 51.66 39.95 51.90 38.71 Z" />
</g>
<g id="#c0c2c3ff">
<path fill="#c0c2c3" opacity="1.00" d=" M 43.20 39.50 C 44.01 39.14 45.63 38.44 46.43 38.08 C 47.30 39.34 48.16 40.61 49.01 41.88 C 47.35 41.64 45.68 41.41 44.02 41.19 C 44.12 42.59 44.18 44.00 44.28 45.40 C 45.64 45.45 47.00 45.40 48.36 45.46 C 47.06 46.51 45.53 47.23 43.86 47.47 L 42.75 47.71 L 42.74 46.20 C 42.73 43.96 42.94 41.72 43.20 39.50 Z" />
</g>
<g id="#0f1729aa">
<path fill="#0f1729" opacity="0.67" d=" M 3.12 43.16 C 2.94 42.21 3.49 40.11 4.78 40.53 C 5.08 41.34 5.42 42.14 5.77 42.93 C 5.75 44.35 3.36 44.63 3.12 43.16 Z" />
</g>
<g id="#101a288e">
<path fill="#101a28" opacity="0.56" d=" M 24.78 42.73 C 25.07 42.29 25.65 41.41 25.94 40.97 L 26.30 41.83 L 25.70 42.73 L 24.78 42.73 Z" />
</g>
<g id="#ffffffff">
<path fill="#ffffff" opacity="1.00" d=" M 44.02 41.19 C 45.68 41.41 47.35 41.64 49.01 41.88 C 49.26 42.24 49.76 42.95 50.01 43.31 C 49.81 43.66 49.41 44.37 49.21 44.72 L 48.36 45.46 C 47.00 45.40 45.64 45.45 44.28 45.40 C 44.18 44.00 44.12 42.59 44.02 41.19 Z" />
</g>
<g id="#f9fcfdff">
<path fill="#f9fcfd" opacity="1.00" d=" M 51.14 42.42 C 52.39 41.70 53.67 41.02 54.95 40.33 C 55.74 41.20 56.52 42.08 57.29 42.97 C 57.06 44.31 56.76 45.63 56.38 46.93 C 54.05 46.53 51.94 45.43 50.31 43.70 C 50.52 43.38 50.93 42.74 51.14 42.42 Z" />
</g>
<g id="#6d7477ff">
<path fill="#6d7477" opacity="1.00" d=" M 49.21 44.72 C 49.41 44.37 49.81 43.66 50.01 43.31 L 50.31 43.70 C 51.94 45.43 54.05 46.53 56.38 46.93 C 56.05 47.03 55.37 47.24 55.03 47.34 C 53.74 51.13 48.84 49.51 45.84 49.69 C 45.60 49.65 45.12 49.56 44.88 49.51 C 47.41 48.97 48.83 47.22 49.21 44.72 Z" />
</g>
<g id="#83888afc">
<path fill="#83888a" opacity="1.00" d=" M 48.36 45.46 L 49.21 44.72 C 48.83 47.22 47.41 48.97 44.88 49.51 C 44.63 49.00 44.12 47.98 43.86 47.47 C 45.53 47.23 47.06 46.51 48.36 45.46 Z" />
</g>
<g id="#446c9fff">
<path fill="#446c9f" opacity="1.00" d=" M 11.27 47.60 C 12.22 48.31 13.20 48.96 14.17 49.63 C 14.93 49.18 15.68 48.69 16.43 48.22 C 16.68 48.55 17.19 49.22 17.45 49.55 L 18.81 51.33 C 16.63 53.75 13.30 52.95 10.49 52.45 C 10.56 51.77 10.70 50.41 10.77 49.73 C 10.90 49.20 11.15 48.13 11.27 47.60 Z" />
</g>
<g id="#855231e0">
<path fill="#855231" opacity="0.88" d=" M 55.44 51.76 C 55.92 50.15 56.35 48.53 57.10 47.02 C 57.24 52.18 56.61 57.70 53.37 61.93 L 53.29 62.06 L 53.52 60.71 L 53.61 60.26 C 54.18 57.42 54.73 54.57 55.44 51.76 Z" />
</g>
<g id="#1e304ce4">
<path fill="#1e304c" opacity="0.89" d=" M 7.26 54.33 C 8.41 52.78 9.56 51.23 10.77 49.73 C 10.70 50.41 10.56 51.77 10.49 52.45 C 13.30 52.95 16.63 53.75 18.81 51.33 C 19.58 52.33 20.35 53.33 21.12 54.34 C 16.51 53.86 11.87 53.86 7.26 54.33 Z" />
</g>
</svg>
