<?xml version="1.0" encoding="UTF-8" ?>
<!DOCTYPE svg PUBLIC "-//W3C//DTD SVG 1.1//EN" "http://www.w3.org/Graphics/SVG/1.1/DTD/svg11.dtd">
<svg width="64pt" height="64pt" viewBox="0 0 64 64" version="1.1" xmlns="http://www.w3.org/2000/svg">
<g id="#000000ff">
<path fill="#000000" opacity="1.00" d=" M 50.10 4.74 C 52.49 4.31 54.86 3.82 57.25 3.39 C 57.83 5.98 58.52 8.55 58.97 11.17 C 54.97 13.05 50.39 13.39 46.17 14.73 C 41.47 15.67 36.93 17.73 32.06 17.61 C 34.37 16.77 36.79 16.33 39.21 15.97 C 38.39 13.70 37.26 11.56 36.04 9.49 C 35.22 9.59 33.60 9.77 32.79 9.86 C 35.92 8.16 39.52 7.81 42.91 6.83 C 45.65 6.23 48.38 4.96 51.25 5.54 C 49.54 6.03 47.81 6.46 46.08 6.82 C 47.25 8.86 48.47 10.87 49.72 12.87 C 52.36 12.30 54.97 11.64 57.61 11.12 C 57.50 9.19 57.40 7.27 57.21 5.35 L 56.28 5.37 C 54.21 5.25 52.15 5.03 50.10 4.74 Z" />
<path fill="#000000" opacity="1.00" d=" M 1.26 17.41 C 10.76 15.22 20.09 11.96 29.77 10.78 L 29.16 11.07 C 27.29 12.00 25.19 12.28 23.17 12.73 C 24.43 14.72 25.63 16.76 27.19 18.54 L 27.90 19.39 C 23.00 20.65 18.01 21.64 13.19 23.19 C 13.01 23.77 12.63 24.93 12.45 25.51 C 28.53 25.70 44.61 25.58 60.70 25.57 L 60.78 26.18 C 57.86 26.06 54.94 25.99 52.02 26.14 C 51.89 26.28 51.62 26.56 51.49 26.71 C 51.20 27.25 50.62 28.34 50.33 28.89 C 49.69 30.10 49.06 31.32 48.47 32.56 C 45.46 32.70 42.42 32.72 39.45 32.12 C 39.24 31.87 38.84 31.36 38.64 31.10 C 39.53 29.58 40.35 28.01 41.18 26.45 C 36.94 26.46 32.69 26.47 28.45 26.44 C 27.61 28.10 26.81 29.77 25.99 31.43 C 25.72 31.66 25.19 32.10 24.93 32.32 C 22.07 32.60 19.21 32.54 16.35 32.56 L 16.35 31.34 C 17.12 29.68 17.96 28.05 18.81 26.43 C 14.52 26.48 10.23 26.24 5.94 26.23 C 5.34 27.92 4.75 29.61 4.23 31.33 C 4.00 31.33 3.53 31.35 3.30 31.35 C 3.52 26.61 2.61 21.94 1.26 17.41 M 6.96 16.72 C 5.66 17.08 4.35 17.43 3.05 17.75 C 3.31 20.00 4.53 21.92 5.62 23.84 C 7.73 23.75 9.91 23.71 11.87 22.82 C 13.56 22.20 15.29 21.66 17.05 21.29 C 16.45 19.07 15.20 17.13 13.99 15.20 C 12.62 15.39 11.29 15.71 9.99 16.15 C 8.98 16.36 7.97 16.54 6.96 16.72 Z" />
<path fill="#000000" opacity="1.00" d=" M 4.58 59.56 C 15.93 59.50 27.29 59.49 38.64 59.56 C 38.82 59.56 39.16 59.56 39.34 59.56 C 46.03 59.56 52.73 59.37 59.43 59.65 C 58.38 61.11 56.53 60.70 55.02 60.81 C 39.69 60.76 24.37 60.76 9.05 60.81 C 7.52 60.66 5.53 61.20 4.58 59.56 Z" />
</g>
<g id="#fefefeff">
<path fill="#fefefe" opacity="1.00" d=" M 56.28 5.37 L 57.21 5.35 C 57.40 7.27 57.50 9.19 57.61 11.12 C 54.97 11.64 52.36 12.30 49.72 12.87 C 48.47 10.87 47.25 8.86 46.08 6.82 C 47.81 6.46 49.54 6.03 51.25 5.54 C 52.92 5.65 54.61 5.59 56.28 5.37 Z" />
<path fill="#fefefe" opacity="1.00" d=" M 29.16 11.07 C 30.08 10.61 31.02 10.24 32.00 9.97 L 32.79 9.86 C 33.60 9.77 35.22 9.59 36.04 9.49 C 37.26 11.56 38.39 13.70 39.21 15.97 C 36.79 16.33 34.37 16.77 32.06 17.61 C 31.79 17.71 31.24 17.89 30.96 17.98 C 29.74 18.51 28.48 18.69 27.19 18.54 C 25.63 16.76 24.43 14.72 23.17 12.73 C 25.19 12.28 27.29 12.00 29.16 11.07 Z" />
<path fill="#fefefe" opacity="1.00" d=" M 6.96 16.72 C 7.97 16.54 8.98 16.36 9.99 16.15 C 11.29 15.71 12.62 15.39 13.99 15.20 C 15.20 17.13 16.45 19.07 17.05 21.29 C 15.29 21.66 13.56 22.20 11.87 22.82 C 9.91 23.71 7.73 23.75 5.62 23.84 C 4.53 21.92 3.31 20.00 3.05 17.75 C 4.35 17.43 5.66 17.08 6.96 16.72 Z" />
<path fill="#fefefe" opacity="1.00" d=" M 5.94 26.23 C 10.23 26.24 14.52 26.48 18.81 26.43 C 17.96 28.05 17.12 29.68 16.35 31.34 C 12.31 31.17 8.27 31.29 4.23 31.33 C 4.75 29.61 5.34 27.92 5.94 26.23 Z" />
<path fill="#fefefe" opacity="1.00" d=" M 28.45 26.44 C 32.69 26.47 36.94 26.46 41.18 26.45 C 40.35 28.01 39.53 29.58 38.64 31.10 C 38.84 31.36 39.24 31.87 39.45 32.12 C 39.63 35.16 39.65 38.21 39.65 41.26 C 46.32 41.39 53.02 40.93 59.67 41.57 C 58.21 42.19 56.61 42.43 55.03 42.42 C 39.33 42.31 23.63 42.43 7.93 42.50 C 6.46 42.53 5.05 42.11 3.66 41.67 C 15.20 40.68 26.81 41.52 38.38 41.26 C 38.36 37.89 38.32 34.52 38.31 31.15 C 34.20 31.35 30.09 31.14 25.99 31.43 C 26.81 29.77 27.61 28.10 28.45 26.44 Z" />
<path fill="#fefefe" opacity="1.00" d=" M 51.49 26.71 C 54.65 26.80 60.41 25.60 59.75 30.65 C 56.35 30.77 52.94 30.80 49.53 30.80 L 50.33 28.89 C 50.62 28.34 51.20 27.25 51.49 26.71 Z" />
<path fill="#fefefe" opacity="1.00" d=" M 6.20 34.34 C 9.63 34.43 13.06 34.49 16.49 34.48 C 16.49 35.06 16.49 36.20 16.48 36.78 C 14.62 36.66 12.62 34.50 11.00 36.38 C 9.47 35.68 7.80 35.57 6.15 35.59 C 6.16 35.28 6.18 34.65 6.20 34.34 Z" />
<path fill="#fefefe" opacity="1.00" d=" M 41.56 34.57 C 43.37 34.43 45.18 34.38 47.00 34.33 C 46.97 34.65 46.93 35.29 46.91 35.61 C 45.10 35.41 43.07 35.82 41.56 34.57 Z" />
<path fill="#fefefe" opacity="1.00" d=" M 6.25 44.37 C 10.11 44.34 13.97 44.43 17.83 44.31 C 17.79 44.60 17.71 45.18 17.68 45.47 C 13.91 45.35 10.13 45.46 6.36 45.55 C 6.33 45.25 6.28 44.66 6.25 44.37 Z" />
<path fill="#fefefe" opacity="1.00" d=" M 5.13 51.11 C 17.43 51.21 29.73 51.19 42.04 51.22 C 48.10 51.28 54.20 50.81 60.24 51.50 C 53.30 52.08 46.33 51.65 39.37 51.86 C 39.34 54.42 39.32 56.99 39.34 59.56 C 39.16 59.56 38.82 59.56 38.64 59.56 C 38.68 56.99 38.65 54.42 38.64 51.86 C 27.48 51.81 16.33 51.82 5.18 51.75 L 5.13 51.11 Z" />
<path fill="#fefefe" opacity="1.00" d=" M 42.33 53.47 C 43.67 52.79 45.44 52.97 46.79 53.55 C 46.54 54.90 42.54 54.95 42.33 53.47 Z" />
<path fill="#fefefe" opacity="1.00" d=" M 5.83 54.55 C 10.78 54.07 15.89 53.64 20.79 54.66 C 15.81 54.91 10.80 54.98 5.83 54.55 Z" />
</g>
<g id="#59766bfc">
<path fill="#59766b" opacity="1.00" d=" M 51.49 26.71 C 51.62 26.56 51.89 26.28 52.02 26.14 C 54.94 25.99 57.86 26.06 60.78 26.18 C 60.21 37.34 61.25 48.57 60.16 59.68 L 59.43 59.65 C 52.73 59.37 46.03 59.56 39.34 59.56 C 39.32 56.99 39.34 54.42 39.37 51.86 C 46.33 51.65 53.30 52.08 60.24 51.50 C 54.20 50.81 48.10 51.28 42.04 51.22 C 29.73 51.19 17.43 51.21 5.13 51.11 L 5.18 51.75 C 16.33 51.82 27.48 51.81 38.64 51.86 C 38.65 54.42 38.68 56.99 38.64 59.56 C 27.29 59.49 15.93 59.50 4.58 59.56 C 3.16 59.68 3.70 57.94 3.45 57.10 C 3.24 48.52 3.41 39.93 3.30 31.35 C 3.53 31.35 4.00 31.33 4.23 31.33 C 8.27 31.29 12.31 31.17 16.35 31.34 L 16.35 32.56 C 19.21 32.54 22.07 32.60 24.93 32.32 C 25.19 32.10 25.72 31.66 25.99 31.43 C 30.09 31.14 34.20 31.35 38.31 31.15 C 38.32 34.52 38.36 37.89 38.38 41.26 C 26.81 41.52 15.20 40.68 3.66 41.67 C 5.05 42.11 6.46 42.53 7.93 42.50 C 23.63 42.43 39.33 42.31 55.03 42.42 C 56.61 42.43 58.21 42.19 59.67 41.57 C 53.02 40.93 46.32 41.39 39.65 41.26 C 39.65 38.21 39.63 35.16 39.45 32.12 C 42.42 32.72 45.46 32.70 48.47 32.56 C 49.06 31.32 49.69 30.10 50.33 28.89 L 49.53 30.80 C 52.94 30.80 56.35 30.77 59.75 30.65 C 60.41 25.60 54.65 26.80 51.49 26.71 M 6.20 34.34 C 6.18 34.65 6.16 35.28 6.15 35.59 C 7.80 35.57 9.47 35.68 11.00 36.38 C 12.62 34.50 14.62 36.66 16.48 36.78 C 16.49 36.20 16.49 35.06 16.49 34.48 C 13.06 34.49 9.63 34.43 6.20 34.34 M 41.56 34.57 C 43.07 35.82 45.10 35.41 46.91 35.61 C 46.93 35.29 46.97 34.65 47.00 34.33 C 45.18 34.38 43.37 34.43 41.56 34.57 M 6.25 44.37 C 6.28 44.66 6.33 45.25 6.36 45.55 C 10.13 45.46 13.91 45.35 17.68 45.47 C 17.71 45.18 17.79 44.60 17.83 44.31 C 13.97 44.43 10.11 44.34 6.25 44.37 M 42.33 53.47 C 42.54 54.95 46.54 54.90 46.79 53.55 C 45.44 52.97 43.67 52.79 42.33 53.47 M 5.83 54.55 C 10.80 54.98 15.81 54.91 20.79 54.66 C 15.89 53.64 10.78 54.07 5.83 54.55 Z" />
</g>
</svg>
