<?xml version="1.0" encoding="UTF-8" ?>
<!DOCTYPE svg PUBLIC "-//W3C//DTD SVG 1.1//EN" "http://www.w3.org/Graphics/SVG/1.1/DTD/svg11.dtd">
<svg width="64pt" height="64pt" viewBox="0 0 64 64" version="1.1" xmlns="http://www.w3.org/2000/svg">
<g id="#00000033">
<path fill="#000000" opacity="0.20" d=" M 0.00 0.00 L 64.00 0.00 L 64.00 64.00 L 0.00 64.00 L 0.00 0.00 M 4.04 4.03 C 3.96 22.67 3.98 41.32 4.03 59.96 C 22.67 60.04 41.32 60.02 59.96 59.97 C 60.04 41.33 60.02 22.68 59.97 4.04 C 41.33 3.96 22.68 3.98 4.04 4.03 Z" />
</g>
<g id="#c7d9e3ff">
<path fill="#c7d9e3" opacity="1.00" d=" M 4.04 4.03 C 22.68 3.98 41.33 3.96 59.97 4.04 C 60.02 22.68 60.04 41.33 59.96 59.97 C 41.32 60.02 22.67 60.04 4.03 59.96 C 3.98 41.32 3.96 22.67 4.04 4.03 M 7.05 7.03 C 6.86 14.35 7.00 21.68 7.01 29.00 L 7.96 28.99 C 8.62 22.59 6.75 14.85 10.20 9.15 C 21.49 8.83 32.72 7.08 44.01 8.84 C 51.45 5.79 47.73 11.09 47.84 13.88 C 46.64 13.36 45.50 12.70 44.26 12.29 C 42.20 14.52 38.29 15.58 39.74 19.81 C 38.27 20.80 36.63 20.45 35.01 20.09 C 35.86 22.47 36.57 24.75 33.06 24.17 C 33.15 27.56 32.06 31.67 34.61 34.37 C 35.95 36.11 33.95 37.69 32.80 38.80 C 28.35 43.37 21.37 47.21 15.00 44.02 C 12.07 42.75 9.50 40.87 7.00 38.92 C 4.69 43.93 9.52 45.82 12.79 47.33 C 12.86 49.73 13.01 54.54 13.08 56.95 C 14.32 57.03 15.57 57.06 16.81 57.03 C 15.48 52.74 13.83 44.36 21.93 48.01 C 22.10 51.00 21.95 53.98 22.05 56.97 C 23.34 57.04 24.63 57.04 25.92 56.96 C 26.00 54.56 26.15 49.76 26.23 47.36 C 28.23 46.39 30.14 45.27 31.97 44.00 C 32.09 48.33 31.93 52.65 32.03 56.98 C 32.77 56.98 34.23 56.98 34.96 56.98 C 34.99 53.25 35.04 45.79 35.06 42.05 C 36.84 39.20 38.82 36.48 40.90 33.85 C 41.20 41.55 40.84 49.27 41.03 56.97 C 42.33 57.05 43.64 57.04 44.94 56.97 C 45.26 47.40 44.66 37.82 45.21 28.26 C 46.97 26.32 48.88 24.53 50.90 22.86 C 51.27 34.22 50.78 45.60 51.04 56.96 C 52.27 57.04 53.51 57.05 54.75 57.00 C 53.32 46.73 54.22 36.32 54.00 25.99 C 49.21 26.33 56.45 17.37 55.96 20.92 C 56.88 23.03 53.57 29.54 56.97 28.97 C 57.12 21.66 57.02 14.35 56.96 7.04 C 40.32 6.96 23.69 6.97 7.05 7.03 Z" />
</g>
<g id="#894543ff">
<path fill="#894543" opacity="1.00" d=" M 7.05 7.03 C 23.69 6.97 40.32 6.96 56.96 7.04 C 57.02 14.35 57.12 21.66 56.97 28.97 C 53.57 29.54 56.88 23.03 55.96 20.92 C 56.45 17.37 49.21 26.33 54.00 25.99 C 54.22 36.32 53.32 46.73 54.75 57.00 C 53.51 57.05 52.27 57.04 51.04 56.96 C 50.78 45.60 51.27 34.22 50.90 22.86 C 48.88 24.53 46.97 26.32 45.21 28.26 C 44.66 37.82 45.26 47.40 44.94 56.97 C 43.64 57.04 42.33 57.05 41.03 56.97 C 40.84 49.27 41.20 41.55 40.90 33.85 C 38.82 36.48 36.84 39.20 35.06 42.05 C 35.04 45.79 34.99 53.25 34.96 56.98 C 34.23 56.98 32.77 56.98 32.03 56.98 C 31.93 52.65 32.09 48.33 31.97 44.00 C 30.14 45.27 28.23 46.39 26.23 47.36 C 26.15 49.76 26.00 54.56 25.92 56.96 C 24.63 57.04 23.34 57.04 22.05 56.97 C 21.95 53.98 22.10 51.00 21.93 48.01 C 13.83 44.36 15.48 52.74 16.81 57.03 C 15.57 57.06 14.32 57.03 13.08 56.95 C 13.01 54.54 12.86 49.73 12.79 47.33 C 9.52 45.82 4.69 43.93 7.00 38.92 C 9.50 40.87 12.07 42.75 15.00 44.02 C 21.37 47.21 28.35 43.37 32.80 38.80 C 33.95 37.69 35.95 36.11 34.61 34.37 C 32.06 31.67 33.15 27.56 33.06 24.17 C 36.57 24.75 35.86 22.47 35.01 20.09 C 36.63 20.45 38.27 20.80 39.74 19.81 C 38.29 15.58 42.20 14.52 44.26 12.29 C 45.50 12.70 46.64 13.36 47.84 13.88 C 47.73 11.09 51.45 5.79 44.01 8.84 C 32.72 7.08 21.49 8.83 10.20 9.15 C 6.75 14.85 8.62 22.59 7.96 28.99 L 7.01 29.00 C 7.00 21.68 6.86 14.35 7.05 7.03 Z" />
</g>
</svg>
