<?xml version="1.0" encoding="UTF-8" ?>
<!DOCTYPE svg PUBLIC "-//W3C//DTD SVG 1.1//EN" "http://www.w3.org/Graphics/SVG/1.1/DTD/svg11.dtd">
<svg width="64pt" height="64pt" viewBox="0 0 64 64" version="1.1" xmlns="http://www.w3.org/2000/svg">
<g id="#676767df">
<path fill="#676767" opacity="0.87" d=" M 18.70 14.31 C 21.34 11.26 28.59 11.25 31.07 14.90 C 26.98 14.16 22.83 13.89 18.70 14.31 Z" />
</g>
<g id="#6c6c6ce4">
<path fill="#6c6c6c" opacity="0.89" d=" M 41.78 13.48 C 44.62 11.71 48.30 11.78 51.19 13.41 C 48.08 13.82 44.87 14.36 41.78 13.48 Z" />
</g>
<g id="#4d4d4dfb">
<path fill="#4d4d4d" opacity="1.00" d=" M 37.71 17.37 C 38.68 15.95 39.97 13.53 41.78 13.48 C 44.87 14.36 48.08 13.82 51.19 13.41 C 52.91 13.61 54.23 15.66 55.20 17.03 C 55.81 20.33 51.37 16.47 52.09 19.66 L 51.20 20.08 C 48.53 17.72 43.43 16.48 41.44 20.14 C 41.18 18.53 42.13 17.24 42.89 15.93 C 41.17 16.41 39.54 17.37 37.71 17.37 Z" />
</g>
<g id="#4f4f4ffe">
<path fill="#4f4f4f" opacity="1.00" d=" M 15.72 17.30 C 16.39 16.16 17.30 14.53 18.70 14.31 C 22.83 13.89 26.98 14.16 31.07 14.90 C 32.16 15.31 32.90 16.13 33.29 17.37 C 31.46 17.39 29.83 16.41 28.11 15.93 C 28.87 17.24 29.82 18.53 29.56 20.13 C 27.82 16.88 24.12 18.61 21.11 18.47 C 19.43 17.57 17.59 17.38 15.72 17.30 Z" />
</g>
<g id="#242525fe">
<path fill="#242525" opacity="1.00" d=" M 28.11 15.93 C 29.83 16.41 31.46 17.39 33.29 17.37 C 34.74 17.66 34.75 20.13 35.30 21.34 C 33.02 24.44 32.38 20.60 31.25 18.70 C 30.09 22.01 32.82 27.65 28.69 29.68 C 25.57 32.35 21.47 30.29 18.74 28.15 C 18.81 27.38 18.96 25.83 19.04 25.06 C 21.44 26.46 24.24 29.40 27.04 27.06 C 30.22 25.96 29.99 22.88 29.56 20.13 C 29.82 18.53 28.87 17.24 28.11 15.93 Z" />
</g>
<g id="#222323fe">
<path fill="#222323" opacity="1.00" d=" M 37.71 17.37 C 39.54 17.37 41.17 16.41 42.89 15.93 C 42.13 17.24 41.18 18.53 41.44 20.14 C 41.27 22.59 40.47 25.49 43.31 26.68 C 47.28 30.26 53.81 25.24 51.20 20.08 L 52.09 19.66 C 55.48 24.99 51.00 33.16 44.32 30.72 C 39.06 29.29 40.27 23.08 39.81 18.84 C 39.12 20.71 35.97 25.53 35.85 20.94 C 36.24 19.81 36.37 17.58 37.71 17.37 Z" />
</g>
<g id="#151616fd">
<path fill="#151616" opacity="1.00" d=" M 14.07 22.83 C 13.84 21.08 14.00 17.86 15.72 17.30 C 17.59 17.38 19.43 17.57 21.11 18.47 C 24.12 18.61 27.82 16.88 29.56 20.13 C 29.99 22.88 30.22 25.96 27.04 27.06 C 24.24 29.40 21.44 26.46 19.04 25.06 C 18.96 25.83 18.81 27.38 18.74 28.15 C 17.77 26.09 17.19 23.88 16.30 21.80 C 16.17 22.62 15.92 24.27 15.79 25.10 C 15.20 24.36 14.63 23.60 14.07 22.83 M 24.14 19.10 C 22.02 20.87 24.42 23.80 24.23 26.10 C 26.76 24.55 27.80 19.87 24.14 19.10 Z" />
</g>
<g id="#0d0d0dfa">
<path fill="#0d0d0d" opacity="0.98" d=" M 55.20 17.03 C 60.23 22.47 55.62 32.97 48.26 33.78 C 47.94 33.33 47.30 32.43 46.98 31.99 C 45.23 31.98 41.72 31.97 39.97 31.96 C 38.16 29.87 36.92 27.39 35.34 25.15 C 34.24 27.65 32.76 29.95 30.89 31.94 C 27.24 32.03 23.59 32.25 19.95 32.59 C 16.45 31.33 13.22 26.90 14.07 22.83 C 14.63 23.60 15.20 24.36 15.79 25.10 C 15.92 24.27 16.17 22.62 16.30 21.80 C 17.19 23.88 17.77 26.09 18.74 28.15 C 21.47 30.29 25.57 32.35 28.69 29.68 C 32.82 27.65 30.09 22.01 31.25 18.70 C 32.38 20.60 33.02 24.44 35.30 21.34 L 35.85 20.94 C 35.97 25.53 39.12 20.71 39.81 18.84 C 40.27 23.08 39.06 29.29 44.32 30.72 C 51.00 33.16 55.48 24.99 52.09 19.66 C 51.37 16.47 55.81 20.33 55.20 17.03 Z" />
</g>
<g id="#101011ff">
<path fill="#101011" opacity="1.00" d=" M 41.44 20.14 C 43.43 16.48 48.53 17.72 51.20 20.08 C 53.81 25.24 47.28 30.26 43.31 26.68 C 40.47 25.49 41.27 22.59 41.44 20.14 M 46.18 19.23 C 42.99 20.52 44.64 26.33 47.81 25.98 C 48.30 23.61 49.59 19.72 46.18 19.23 Z" />
</g>
<g id="#3e3e3eff">
<path fill="#3e3e3e" opacity="1.00" d=" M 24.14 19.10 C 27.80 19.87 26.76 24.55 24.23 26.10 C 24.42 23.80 22.02 20.87 24.14 19.10 Z" />
</g>
<g id="#373838ff">
<path fill="#373838" opacity="1.00" d=" M 46.18 19.23 C 49.59 19.72 48.30 23.61 47.81 25.98 C 44.64 26.33 42.99 20.52 46.18 19.23 Z" />
</g>
<g id="#0303032c">
<path fill="#030303" opacity="0.17" d=" M 35.34 25.15 C 36.92 27.39 38.16 29.87 39.97 31.96 C 36.94 31.95 33.92 31.95 30.89 31.94 C 32.76 29.95 34.24 27.65 35.34 25.15 Z" />
</g>
<g id="#090909ca">
<path fill="#090909" opacity="0.79" d=" M 3.98 37.00 C -2.23 32.97 7.50 30.22 6.91 32.82 C 2.87 32.82 5.59 38.21 5.04 40.85 C 5.14 45.81 4.67 50.80 5.15 55.75 C 5.59 55.87 6.46 56.11 6.90 56.23 C 7.45 58.75 -2.22 56.00 3.98 52.00 C 3.98 48.25 3.98 40.75 3.98 37.00 Z" />
</g>
<g id="#5f5f5ffc">
<path fill="#5f5f5f" opacity="1.00" d=" M 19.95 32.59 C 23.59 32.25 27.24 32.03 30.89 31.94 C 33.92 31.95 36.94 31.95 39.97 31.96 C 39.48 35.90 44.47 33.57 46.99 34.02 C 46.99 34.49 46.99 35.43 46.99 35.89 C 45.14 39.96 40.55 36.71 38.16 34.88 C 35.42 32.60 31.96 33.24 28.84 34.17 C 26.19 34.10 23.54 34.06 20.89 34.03 C 20.65 33.67 20.18 32.95 19.95 32.59 Z" />
</g>
<g id="#727272ff">
<path fill="#727272" opacity="1.00" d=" M 39.97 31.96 C 41.72 31.97 45.23 31.98 46.98 31.99 C 46.98 32.49 46.99 33.51 46.99 34.02 C 44.47 33.57 39.48 35.90 39.97 31.96 Z" />
</g>
<g id="#414141ff">
<path fill="#414141" opacity="1.00" d=" M 46.98 31.99 C 47.30 32.43 47.94 33.33 48.26 33.78 C 48.39 34.10 48.64 34.76 48.77 35.08 L 48.64 35.83 C 48.35 37.10 48.18 38.38 48.09 39.68 L 47.98 40.67 C 47.78 41.06 47.37 41.85 47.17 42.25 C 39.18 41.00 31.49 38.30 23.40 37.70 C 23.60 35.23 20.93 36.09 20.89 34.03 C 23.54 34.06 26.19 34.10 28.84 34.17 C 32.59 37.53 37.66 38.29 42.38 39.49 C 48.38 43.54 46.70 38.39 46.99 35.89 C 46.99 35.43 46.99 34.49 46.99 34.02 C 46.99 33.51 46.98 32.49 46.98 31.99 Z" />
</g>
<g id="#202121fa">
<path fill="#202121" opacity="0.98" d=" M 5.04 40.85 C 5.59 38.21 2.87 32.82 6.91 32.82 C 8.48 33.57 11.07 33.29 11.99 34.79 L 11.09 35.06 L 10.22 35.34 C 10.11 36.70 9.90 39.42 9.79 40.78 C 9.12 42.03 9.31 44.66 7.22 43.81 C 6.43 42.88 5.74 41.85 5.04 40.85 Z" />
</g>
<g id="#343434ff">
<path fill="#343434" opacity="1.00" d=" M 19.95 32.59 C 20.18 32.95 20.65 33.67 20.89 34.03 C 20.93 36.09 23.60 35.23 23.40 37.70 C 31.49 38.30 39.18 41.00 47.17 42.25 C 46.95 46.14 42.37 42.67 42.73 46.60 C 36.56 46.32 30.08 45.05 24.07 47.00 C 24.09 46.48 24.13 45.44 24.15 44.92 C 29.69 44.98 35.25 45.20 40.79 44.86 C 41.10 44.46 41.72 43.67 42.04 43.28 C 34.77 40.04 26.01 43.11 19.55 37.89 L 19.67 37.01 C 19.86 35.54 19.95 34.07 19.95 32.59 Z" />
</g>
<g id="#505050ff">
<path fill="#505050" opacity="1.00" d=" M 28.84 34.17 C 31.96 33.24 35.42 32.60 38.16 34.88 C 40.55 36.71 45.14 39.96 46.99 35.89 C 46.70 38.39 48.38 43.54 42.38 39.49 C 37.66 38.29 32.59 37.53 28.84 34.17 Z" />
</g>
<g id="#4c4c4cff">
<path fill="#4c4c4c" opacity="1.00" d=" M 10.22 35.34 L 11.09 35.06 C 11.03 38.01 11.02 40.97 10.94 43.92 L 9.93 44.00 C 9.89 43.20 9.82 41.59 9.79 40.78 C 9.90 39.42 10.11 36.70 10.22 35.34 Z" />
<path fill="#4c4c4c" opacity="1.00" d=" M 49.81 35.94 C 53.20 36.05 56.58 36.00 59.98 35.99 L 59.74 36.75 C 59.56 37.28 59.21 38.34 59.03 38.87 C 57.82 39.69 56.68 40.63 55.42 41.38 C 52.63 40.48 50.92 38.58 49.81 35.94 Z" />
</g>
<g id="#8e8e8efc">
<path fill="#8e8e8e" opacity="1.00" d=" M 11.09 35.06 L 11.99 34.79 C 13.35 35.39 15.80 35.39 16.16 37.09 C 16.18 38.80 16.22 42.22 16.25 43.92 C 14.54 43.02 12.62 42.90 10.94 43.92 C 11.02 40.97 11.03 38.01 11.09 35.06 Z" />
</g>
<g id="#4a4a4ad3">
<path fill="#4a4a4a" opacity="0.83" d=" M 48.77 35.08 C 51.58 35.07 57.19 35.03 60.00 35.01 L 59.98 35.99 C 56.58 36.00 53.20 36.05 49.81 35.94 L 48.64 35.83 L 48.77 35.08 Z" />
</g>
<g id="#1f2020ff">
<path fill="#1f2020" opacity="1.00" d=" M 48.09 39.68 C 48.18 38.38 48.35 37.10 48.64 35.83 C 50.11 39.25 50.91 42.90 51.21 46.61 C 53.15 46.79 55.16 46.94 57.00 46.13 C 56.70 48.74 58.24 53.52 52.01 50.01 C 48.46 48.84 50.65 42.51 48.09 39.68 Z" />
</g>
<g id="#393939ff">
<path fill="#393939" opacity="1.00" d=" M 48.64 35.83 L 49.81 35.94 C 50.92 38.58 52.63 40.48 55.42 41.38 C 56.68 40.63 57.82 39.69 59.03 38.87 C 58.90 41.17 56.89 42.83 57.09 45.19 L 57.00 46.13 C 55.16 46.94 53.15 46.79 51.21 46.61 C 50.91 42.90 50.11 39.25 48.64 35.83 Z" />
</g>
<g id="#6f6f6fff">
<path fill="#6f6f6f" opacity="1.00" d=" M 16.16 37.09 L 16.83 37.09 C 16.87 38.81 16.93 42.23 16.97 43.95 L 16.25 43.92 C 16.22 42.22 16.18 38.80 16.16 37.09 Z" />
</g>
<g id="#131414fe">
<path fill="#131414" opacity="1.00" d=" M 16.83 37.09 C 17.54 37.07 18.96 37.03 19.67 37.01 L 19.55 37.89 C 18.37 41.17 22.58 42.65 24.15 44.92 C 24.13 45.44 24.09 46.48 24.07 47.00 C 24.06 47.71 24.05 49.14 24.04 49.86 C 28.03 49.48 31.99 48.79 36.01 48.95 C 39.36 46.71 41.04 49.16 42.83 50.86 C 42.40 47.60 45.61 46.84 48.01 45.98 C 49.01 50.08 43.45 49.86 42.86 53.63 C 36.65 53.07 30.36 52.61 24.17 53.54 C 22.98 50.90 23.85 46.53 20.36 45.64 C 19.29 45.16 18.12 45.88 17.02 45.93 C 17.00 45.43 16.98 44.44 16.97 43.95 C 16.93 42.23 16.87 38.81 16.83 37.09 Z" />
</g>
<g id="#1c1c1cf7">
<path fill="#1c1c1c" opacity="0.97" d=" M 59.03 38.87 C 59.21 38.34 59.56 37.28 59.74 36.75 C 59.80 38.56 59.94 42.17 60.00 43.98 C 59.04 44.39 58.07 44.80 57.09 45.19 C 56.89 42.83 58.90 41.17 59.03 38.87 Z" />
</g>
<g id="#252526ff">
<path fill="#252526" opacity="1.00" d=" M 24.15 44.92 C 22.58 42.65 18.37 41.17 19.55 37.89 C 26.01 43.11 34.77 40.04 42.04 43.28 C 41.72 43.67 41.10 44.46 40.79 44.86 C 35.25 45.20 29.69 44.98 24.15 44.92 Z" />
</g>
<g id="#050506fe">
<path fill="#050506" opacity="1.00" d=" M 48.09 39.68 C 50.65 42.51 48.46 48.84 52.01 50.01 C 58.24 53.52 56.70 48.74 57.00 46.13 L 57.09 45.19 C 58.07 44.80 59.04 44.39 60.00 43.98 C 60.05 46.97 60.12 49.97 59.95 52.96 C 56.02 52.66 52.30 52.93 48.78 53.78 C 48.62 54.34 48.28 55.46 48.12 56.02 L 47.26 56.28 C 38.22 55.92 29.18 56.03 20.14 55.91 C 19.60 54.79 20.77 52.08 19.01 52.09 C 18.51 52.02 17.50 51.88 17.00 51.81 C 16.99 51.34 16.99 50.41 16.99 49.94 C 17.00 48.60 17.01 47.27 17.02 45.93 C 18.12 45.88 19.29 45.16 20.36 45.64 C 23.85 46.53 22.98 50.90 24.17 53.54 C 30.36 52.61 36.65 53.07 42.86 53.63 C 43.45 49.86 49.01 50.08 48.01 45.98 C 48.04 44.21 47.98 42.44 47.98 40.67 L 48.09 39.68 Z" />
</g>
<g id="#0d0e0efd">
<path fill="#0d0e0e" opacity="1.00" d=" M 5.04 40.85 C 5.74 41.85 6.43 42.88 7.22 43.81 C 9.31 44.66 9.12 42.03 9.79 40.78 C 9.82 41.59 9.89 43.20 9.93 44.00 C 10.00 47.14 9.66 50.38 10.73 53.39 C 10.79 53.75 10.90 54.47 10.96 54.83 C 9.62 55.34 8.31 55.93 6.90 56.23 C 6.46 56.11 5.59 55.87 5.15 55.75 C 4.67 50.80 5.14 45.81 5.04 40.85 Z" />
</g>
<g id="#232424ff">
<path fill="#232424" opacity="1.00" d=" M 47.17 42.25 C 47.37 41.85 47.78 41.06 47.98 40.67 C 47.98 42.44 48.04 44.21 48.01 45.98 C 45.61 46.84 42.40 47.60 42.83 50.86 C 41.04 49.16 39.36 46.71 36.01 48.95 C 31.99 48.79 28.03 49.48 24.04 49.86 C 24.05 49.14 24.06 47.71 24.07 47.00 C 30.08 45.05 36.56 46.32 42.73 46.60 C 42.37 42.67 46.95 46.14 47.17 42.25 Z" />
</g>
<g id="#787878ff">
<path fill="#787878" opacity="1.00" d=" M 10.94 43.92 C 12.62 42.90 14.54 43.02 16.25 43.92 C 16.18 44.40 16.04 45.36 15.97 45.84 C 14.32 46.19 12.68 46.61 11.05 47.04 C 11.02 46.26 10.97 44.70 10.94 43.92 Z" />
</g>
<g id="#2d2e2eff">
<path fill="#2d2e2e" opacity="1.00" d=" M 9.93 44.00 L 10.94 43.92 C 10.97 44.70 11.02 46.26 11.05 47.04 C 11.06 47.84 11.08 49.43 11.09 50.22 C 11.00 51.01 10.82 52.60 10.73 53.39 C 9.66 50.38 10.00 47.14 9.93 44.00 Z" />
</g>
<g id="#4a4a4aff">
<path fill="#4a4a4a" opacity="1.00" d=" M 16.25 43.92 L 16.97 43.95 C 16.98 44.44 17.00 45.43 17.02 45.93 C 17.01 47.27 17.00 48.60 16.99 49.94 C 15.10 51.43 12.98 52.57 10.73 53.39 C 10.82 52.60 11.00 51.01 11.09 50.22 C 12.89 49.03 16.20 48.58 15.97 45.84 C 16.04 45.36 16.18 44.40 16.25 43.92 Z" />
</g>
<g id="#636363ff">
<path fill="#636363" opacity="1.00" d=" M 11.05 47.04 C 12.68 46.61 14.32 46.19 15.97 45.84 C 16.20 48.58 12.89 49.03 11.09 50.22 C 11.08 49.43 11.06 47.84 11.05 47.04 Z" />
</g>
<g id="#222222e3">
<path fill="#222222" opacity="0.89" d=" M 10.73 53.39 C 12.98 52.57 15.10 51.43 16.99 49.94 C 16.99 50.41 16.99 51.34 17.00 51.81 C 16.51 54.03 12.85 53.84 10.96 54.83 C 10.90 54.47 10.79 53.75 10.73 53.39 Z" />
</g>
<g id="#01010169">
<path fill="#010101" opacity="0.41" d=" M 19.01 52.09 C 20.77 52.08 19.60 54.79 20.14 55.91 C 20.72 57.85 24.20 57.13 25.95 58.05 L 26.04 59.00 C 24.38 59.01 22.72 59.00 21.06 58.96 L 20.25 58.76 C 17.80 58.36 16.45 57.70 18.91 55.90 C 18.97 54.63 19.01 53.36 19.01 52.09 Z" />
</g>
<g id="#010101bf">
<path fill="#010101" opacity="0.75" d=" M 48.78 53.78 C 52.30 52.93 56.02 52.66 59.95 52.96 L 60.02 53.98 C 57.21 53.93 51.59 53.83 48.78 53.78 Z" />
</g>
<g id="#00000026">
<path fill="#000000" opacity="0.15" d=" M 10.98 57.19 C 13.58 56.51 16.20 55.82 18.91 55.90 C 16.45 57.70 17.80 58.36 20.25 58.76 C 17.26 58.87 13.04 59.91 10.98 57.19 Z" />
</g>
<g id="#000000dd">
<path fill="#000000" opacity="0.87" d=" M 20.14 55.91 C 29.18 56.03 38.22 55.92 47.26 56.28 C 46.26 56.61 45.26 56.92 44.26 57.22 C 38.14 57.09 32.07 58.21 25.95 58.05 C 24.20 57.13 20.72 57.85 20.14 55.91 Z" />
</g>
<g id="#02020259">
<path fill="#020202" opacity="0.35" d=" M 47.26 56.28 L 48.12 56.02 C 47.99 57.87 46.14 58.17 44.79 58.86 C 44.34 58.89 43.45 58.95 43.00 58.98 C 42.19 58.94 40.58 58.86 39.78 58.82 C 41.26 58.26 42.77 57.77 44.26 57.22 C 45.26 56.92 46.26 56.61 47.26 56.28 Z" />
</g>
<g id="#00000022">
<path fill="#000000" opacity="0.13" d=" M 48.12 56.02 C 50.14 56.00 52.04 56.79 54.00 57.18 C 52.08 59.84 47.83 58.78 44.79 58.86 C 46.14 58.17 47.99 57.87 48.12 56.02 Z" />
</g>
<g id="#00000089">
<path fill="#000000" opacity="0.54" d=" M 25.95 58.05 C 32.07 58.21 38.14 57.09 44.26 57.22 C 42.77 57.77 41.26 58.26 39.78 58.82 C 35.20 58.94 30.62 59.04 26.04 59.00 L 25.95 58.05 Z" />
</g>
<g id="#00000018">
<path fill="#000000" opacity="0.09" d=" M 21.06 58.96 C 22.72 59.00 24.38 59.01 26.04 59.00 C 30.62 59.04 35.20 58.94 39.78 58.82 C 40.58 58.86 42.19 58.94 43.00 58.98 L 43.00 59.98 C 35.67 60.00 28.33 60.14 21.00 59.95 L 21.06 58.96 Z" />
</g>
</svg>
