<?xml version="1.0" encoding="UTF-8" ?>
<!DOCTYPE svg PUBLIC "-//W3C//DTD SVG 1.1//EN" "http://www.w3.org/Graphics/SVG/1.1/DTD/svg11.dtd">
<svg width="64pt" height="64pt" viewBox="0 0 64 64" version="1.1" xmlns="http://www.w3.org/2000/svg">
<g id="#653f0dff">
<path fill="#653f0d" opacity="1.00" d=" M 26.49 3.72 C 40.70 2.62 56.92 9.55 62.22 23.57 C 63.97 30.59 63.55 38.81 58.60 44.53 C 47.42 58.33 25.97 60.40 10.94 52.01 C 8.43 50.50 5.32 47.69 6.59 44.44 C 9.38 38.47 15.70 34.92 18.21 28.82 C 19.21 27.08 16.34 25.70 15.09 26.75 C 10.71 28.06 7.05 32.04 2.27 31.68 C 0.21 28.45 0.84 24.14 1.58 20.58 C 5.15 10.31 16.29 4.88 26.49 3.72 M 6.98 13.75 L 7.31 15.11 L 6.94 13.76 C 3.81 17.78 1.49 24.27 4.69 28.66 C 9.44 28.52 13.27 24.60 18.19 25.35 C 18.38 27.33 19.14 29.43 18.31 31.35 C 16.86 34.11 14.52 36.25 12.68 38.74 C 10.76 40.18 9.17 42.34 9.34 44.86 C 9.45 47.20 11.72 48.55 13.46 49.71 C 21.20 54.10 30.42 54.07 39.02 53.31 C 47.09 51.97 55.53 48.17 59.65 40.72 C 62.45 35.68 63.66 29.06 60.88 23.79 C 59.75 20.45 58.11 16.91 54.89 15.11 C 49.38 8.36 40.34 5.92 32.06 4.67 C 22.89 4.07 13.79 7.69 6.98 13.75 Z" />
<path fill="#653f0d" opacity="1.00" d=" M 26.16 13.31 C 24.91 12.48 24.15 9.67 26.04 9.25 C 25.81 13.78 30.29 16.56 34.45 15.72 L 35.45 14.57 C 35.99 13.11 36.42 11.61 36.80 10.10 C 37.07 12.58 36.36 15.63 33.64 16.42 C 30.68 17.45 28.26 14.97 26.16 13.31 Z" />
</g>
<g id="#edcb89ff">
<path fill="#edcb89" opacity="1.00" d=" M 6.98 13.75 C 13.79 7.69 22.89 4.07 32.06 4.67 C 40.34 5.92 49.38 8.36 54.89 15.11 C 56.10 17.91 57.21 20.75 58.42 23.55 C 56.43 23.30 53.57 21.25 52.49 23.94 C 52.22 24.30 51.66 25.03 51.38 25.39 C 45.22 25.94 38.96 24.13 32.90 25.83 C 29.54 26.47 26.11 25.72 22.76 25.28 C 20.34 25.04 18.94 22.78 17.30 21.26 C 19.36 19.98 21.55 18.90 23.47 17.40 C 23.50 16.20 23.35 15.01 23.20 13.83 C 20.27 11.37 16.24 11.12 13.27 13.64 C 13.19 15.76 13.27 17.89 13.27 20.01 C 12.98 22.16 10.42 22.18 9.20 20.87 C 8.23 19.08 7.86 17.05 7.31 15.11 L 6.98 13.75 M 25.34 7.90 C 25.51 8.24 25.87 8.91 26.04 9.25 C 24.15 9.67 24.91 12.48 26.16 13.31 C 28.26 14.97 30.68 17.45 33.64 16.42 C 36.36 15.63 37.07 12.58 36.80 10.10 C 36.36 9.50 35.49 8.30 35.06 7.70 C 31.92 6.23 28.54 7.33 25.34 7.90 M 41.47 16.32 C 41.30 16.80 40.96 17.77 40.78 18.26 C 40.40 20.05 39.89 22.83 42.42 23.19 C 46.93 24.64 51.60 21.51 51.65 16.69 C 50.25 15.43 49.16 13.24 47.01 13.37 C 44.58 12.84 43.05 14.91 41.47 16.32 Z" />
</g>
<g id="#6d87ffff">
<path fill="#6d87ff" opacity="1.00" d=" M 25.34 7.90 C 28.54 7.33 31.92 6.23 35.06 7.70 C 34.93 8.37 34.67 9.72 34.54 10.39 C 32.05 10.26 29.56 10.16 27.07 10.04 C 26.81 9.84 26.30 9.45 26.04 9.25 C 25.87 8.91 25.51 8.24 25.34 7.90 Z" />
</g>
<g id="#1740fcff">
<path fill="#1740fc" opacity="1.00" d=" M 35.06 7.70 C 35.49 8.30 36.36 9.50 36.80 10.10 C 36.42 11.61 35.99 13.11 35.45 14.57 C 32.28 13.86 28.92 12.96 27.07 10.04 C 29.56 10.16 32.05 10.26 34.54 10.39 C 34.67 9.72 34.93 8.37 35.06 7.70 Z" />
</g>
<g id="#0a25bdff">
<path fill="#0a25bd" opacity="1.00" d=" M 26.04 9.25 C 26.30 9.45 26.81 9.84 27.07 10.04 C 28.92 12.96 32.28 13.86 35.45 14.57 L 34.45 15.72 C 30.29 16.56 25.81 13.78 26.04 9.25 Z" />
</g>
<g id="#49e26bff">
<path fill="#49e26b" opacity="1.00" d=" M 13.27 13.64 C 16.24 11.12 20.27 11.37 23.20 13.83 C 19.89 13.68 16.58 13.66 13.27 13.64 Z" />
</g>
<g id="#fc6350ff">
<path fill="#fc6350" opacity="1.00" d=" M 41.47 16.32 C 43.05 14.91 44.58 12.84 47.01 13.37 C 49.16 13.24 50.25 15.43 51.65 16.69 L 51.25 16.67 C 49.45 16.29 47.68 15.76 45.91 15.24 C 45.22 15.90 44.53 16.57 43.84 17.24 C 43.25 17.01 42.06 16.55 41.47 16.32 Z" />
</g>
<g id="#009817ff">
<path fill="#009817" opacity="1.00" d=" M 13.27 20.01 C 13.27 17.89 13.19 15.76 13.27 13.64 C 14.03 15.48 14.78 17.32 15.51 19.17 C 18.40 17.92 21.41 16.57 23.20 13.83 C 23.35 15.01 23.50 16.20 23.47 17.40 C 21.55 18.90 19.36 19.98 17.30 21.26 C 16.76 21.25 15.68 21.24 15.14 21.23 C 14.67 20.92 13.74 20.31 13.27 20.01 Z" />
</g>
<g id="#00ef2fff">
<path fill="#00ef2f" opacity="1.00" d=" M 13.27 13.64 C 16.58 13.66 19.89 13.68 23.20 13.83 C 21.41 16.57 18.40 17.92 15.51 19.17 C 14.78 17.32 14.03 15.48 13.27 13.64 Z" />
</g>
<g id="#d9b46bff">
<path fill="#d9b46b" opacity="1.00" d=" M 4.69 28.66 C 1.49 24.27 3.81 17.78 6.94 13.76 L 7.31 15.11 C 7.86 17.05 8.23 19.08 9.20 20.87 C 10.42 22.18 12.98 22.16 13.27 20.01 C 13.74 20.31 14.67 20.92 15.14 21.23 C 15.68 21.24 16.76 21.25 17.30 21.26 C 18.94 22.78 20.34 25.04 22.76 25.28 C 26.11 25.72 29.54 26.47 32.90 25.83 C 38.96 24.13 45.22 25.94 51.38 25.39 C 50.27 26.72 49.00 27.90 47.73 29.07 C 47.82 30.73 47.92 32.39 48.03 34.04 C 44.81 35.66 41.34 37.04 38.75 39.61 C 39.01 40.01 39.53 40.79 39.79 41.19 C 38.48 41.60 37.18 42.02 35.89 42.47 C 32.99 41.49 35.87 39.54 36.88 38.16 C 34.54 38.17 31.97 38.52 29.98 36.99 C 26.88 34.73 23.01 34.52 19.31 34.45 C 20.23 31.50 22.45 26.69 18.19 25.35 C 13.27 24.60 9.44 28.52 4.69 28.66 Z" />
</g>
<g id="#ff3407ff">
<path fill="#ff3407" opacity="1.00" d=" M 43.84 17.24 C 44.53 16.57 45.22 15.90 45.91 15.24 C 47.68 15.76 49.45 16.29 51.25 16.67 C 50.31 17.94 49.47 19.30 48.42 20.48 C 46.59 21.73 44.17 21.52 42.09 21.21 C 41.59 20.25 41.16 19.27 40.78 18.26 C 40.96 17.77 41.30 16.80 41.47 16.32 C 42.06 16.55 43.25 17.01 43.84 17.24 Z" />
</g>
<g id="#d0a557ff">
<path fill="#d0a557" opacity="1.00" d=" M 54.89 15.11 C 58.11 16.91 59.75 20.45 60.88 23.79 C 62.21 31.89 60.25 41.10 53.10 45.94 C 52.53 45.19 51.97 44.43 51.41 43.67 C 50.19 41.99 49.07 40.23 47.93 38.49 C 47.47 37.83 46.56 36.49 46.10 35.82 C 44.89 36.95 43.67 38.08 42.53 39.29 C 42.33 39.65 41.92 40.37 41.72 40.73 C 41.48 42.59 41.38 44.47 41.21 46.34 C 38.71 48.80 34.78 47.20 31.69 47.41 C 31.21 45.07 30.74 42.73 30.26 40.39 C 29.79 40.40 28.87 40.42 28.41 40.43 C 27.65 39.88 26.89 39.32 26.13 38.76 C 24.78 38.43 23.43 38.10 22.08 37.76 C 20.97 38.14 19.85 38.52 18.73 38.90 C 18.46 39.42 17.91 40.48 17.64 41.00 C 17.23 40.15 16.79 39.32 16.34 38.49 C 15.97 40.74 15.63 42.99 15.28 45.25 C 14.35 44.67 13.38 44.15 12.50 43.49 C 12.31 41.91 12.51 40.31 12.68 38.74 C 14.52 36.25 16.86 34.11 18.31 31.35 C 19.14 29.43 18.38 27.33 18.19 25.35 C 22.45 26.69 20.23 31.50 19.31 34.45 C 23.01 34.52 26.88 34.73 29.98 36.99 C 31.97 38.52 34.54 38.17 36.88 38.16 C 35.87 39.54 32.99 41.49 35.89 42.47 C 37.18 42.02 38.48 41.60 39.79 41.19 C 39.53 40.79 39.01 40.01 38.75 39.61 C 41.34 37.04 44.81 35.66 48.03 34.04 C 50.38 34.63 53.21 36.32 55.41 34.42 C 58.41 32.18 57.26 27.97 56.45 24.90 C 55.42 24.55 54.38 24.26 53.32 24.02 L 52.49 23.94 C 53.57 21.25 56.43 23.30 58.42 23.55 C 57.21 20.75 56.10 17.91 54.89 15.11 Z" />
</g>
<g id="#9d4017ff">
<path fill="#9d4017" opacity="1.00" d=" M 51.25 16.67 L 51.65 16.69 C 51.60 21.51 46.93 24.64 42.42 23.19 C 39.89 22.83 40.40 20.05 40.78 18.26 C 41.16 19.27 41.59 20.25 42.09 21.21 C 44.17 21.52 46.59 21.73 48.42 20.48 C 49.47 19.30 50.31 17.94 51.25 16.67 Z" />
<path fill="#9d4017" opacity="1.00" d=" M 51.38 25.39 C 51.66 25.03 52.22 24.30 52.49 23.94 L 53.32 24.02 C 52.16 25.30 50.96 26.56 49.76 27.81 C 47.82 29.14 48.30 31.57 48.18 33.60 C 50.96 34.40 54.75 35.43 56.59 32.43 C 57.01 30.68 56.83 28.88 56.76 27.11 C 56.69 26.56 56.53 25.46 56.45 24.90 C 57.26 27.97 58.41 32.18 55.41 34.42 C 53.21 36.32 50.38 34.63 48.03 34.04 C 47.92 32.39 47.82 30.73 47.73 29.07 C 49.00 27.90 50.27 26.72 51.38 25.39 Z" />
</g>
<g id="#fee95bff">
<path fill="#fee95b" opacity="1.00" d=" M 53.32 24.02 C 54.38 24.26 55.42 24.55 56.45 24.90 C 56.53 25.46 56.69 26.56 56.76 27.11 C 54.79 29.34 52.19 29.42 49.76 27.81 C 50.96 26.56 52.16 25.30 53.32 24.02 Z" />
</g>
<g id="#a97f3aff">
<path fill="#a97f3a" opacity="1.00" d=" M 60.88 23.79 C 63.66 29.06 62.45 35.68 59.65 40.72 C 55.53 48.17 47.09 51.97 39.02 53.31 C 30.42 54.07 21.20 54.10 13.46 49.71 C 11.72 48.55 9.45 47.20 9.34 44.86 C 9.17 42.34 10.76 40.18 12.68 38.74 C 12.51 40.31 12.31 41.91 12.50 43.49 C 13.38 44.15 14.35 44.67 15.28 45.25 C 15.63 42.99 15.97 40.74 16.34 38.49 C 16.79 39.32 17.23 40.15 17.64 41.00 C 17.68 41.53 17.75 42.57 17.79 43.10 C 20.00 45.90 24.17 47.46 27.33 45.24 C 29.22 44.31 28.59 42.07 28.41 40.43 C 28.87 40.42 29.79 40.40 30.26 40.39 C 30.74 42.73 31.21 45.07 31.69 47.41 C 34.78 47.20 38.71 48.80 41.21 46.34 C 43.57 49.18 47.07 48.16 49.98 46.84 L 50.75 45.31 C 50.98 44.77 51.20 44.22 51.41 43.67 C 51.97 44.43 52.53 45.19 53.10 45.94 C 60.25 41.10 62.21 31.89 60.88 23.79 Z" />
</g>
<g id="#f6dc29ff">
<path fill="#f6dc29" opacity="1.00" d=" M 56.76 27.11 C 56.83 28.88 57.01 30.68 56.59 32.43 C 54.75 35.43 50.96 34.40 48.18 33.60 C 48.30 31.57 47.82 29.14 49.76 27.81 C 52.19 29.42 54.79 29.34 56.76 27.11 Z" />
</g>
<g id="#f867eaff">
<path fill="#f867ea" opacity="1.00" d=" M 42.53 39.29 C 43.67 38.08 44.89 36.95 46.10 35.82 C 46.56 36.49 47.47 37.83 47.93 38.49 C 46.35 39.75 44.41 39.66 42.53 39.29 Z" />
</g>
<g id="#ff38f1ff">
<path fill="#ff38f1" opacity="1.00" d=" M 42.53 39.29 C 44.41 39.66 46.35 39.75 47.93 38.49 C 49.07 40.23 50.19 41.99 51.41 43.67 C 51.20 44.22 50.98 44.77 50.75 45.31 C 48.04 45.41 45.33 45.50 42.62 45.58 C 42.32 43.96 42.02 42.34 41.72 40.73 C 41.92 40.37 42.33 39.65 42.53 39.29 Z" />
</g>
<g id="#902f6cff">
<path fill="#902f6c" opacity="1.00" d=" M 41.21 46.34 C 41.38 44.47 41.48 42.59 41.72 40.73 C 42.02 42.34 42.32 43.96 42.62 45.58 C 45.33 45.50 48.04 45.41 50.75 45.31 L 49.98 46.84 C 47.07 48.16 43.57 49.18 41.21 46.34 Z" />
</g>
</svg>
