<?xml version="1.0" encoding="UTF-8" ?>
<!DOCTYPE svg PUBLIC "-//W3C//DTD SVG 1.1//EN" "http://www.w3.org/Graphics/SVG/1.1/DTD/svg11.dtd">
<svg width="64pt" height="64pt" viewBox="0 0 64 64" version="1.1" xmlns="http://www.w3.org/2000/svg">
<g id="#0000005a">
<path fill="#000000" opacity="0.35" d=" M 11.03 17.52 C 27.81 17.69 44.58 17.54 61.35 17.68 C 63.18 22.93 62.34 28.55 62.47 33.99 C 62.34 38.51 62.84 43.07 62.27 47.57 C 61.89 48.07 61.14 49.07 60.76 49.57 L 60.79 47.95 C 60.83 38.30 60.82 28.65 60.82 19.00 C 54.22 19.24 47.50 18.27 40.99 19.68 C 39.36 19.34 37.71 19.02 36.04 18.98 C 25.02 18.87 13.98 19.15 2.96 18.85 C 5.35 17.23 8.30 17.52 11.03 17.52 Z" />
</g>
<g id="#fff899ff">
<path fill="#fff899" opacity="1.00" d=" M 2.84 18.84 L 2.96 18.85 C 13.98 19.15 25.02 18.87 36.04 18.98 C 37.71 19.02 39.36 19.34 40.99 19.68 C 47.50 18.27 54.22 19.24 60.82 19.00 C 60.82 28.65 60.83 38.30 60.79 47.95 C 55.48 47.85 50.18 48.05 44.87 47.90 C 42.65 48.14 40.55 44.58 39.04 47.88 C 27.02 48.00 15.01 47.90 3.00 47.93 C 2.92 38.44 3.17 28.95 2.86 19.46 L 2.84 18.84 M 44.03 22.58 C 42.45 22.33 40.84 22.22 39.24 22.19 C 39.84 23.55 41.36 26.26 42.48 22.91 C 44.53 25.65 41.23 26.48 39.09 26.84 C 40.10 27.57 41.08 28.37 42.32 28.74 L 41.28 26.56 C 42.07 27.27 43.66 28.70 44.45 29.41 C 42.94 29.87 41.41 30.23 39.85 30.51 C 39.81 31.10 39.77 31.69 39.73 32.28 C 40.75 32.36 41.80 32.17 42.80 32.41 C 42.92 33.22 42.87 34.04 42.63 34.86 L 41.03 34.30 C 38.26 33.27 40.74 35.93 40.58 36.97 C 41.71 36.19 42.82 35.39 43.93 34.58 C 49.04 35.51 54.26 35.09 59.42 34.98 C 59.42 30.12 59.41 25.26 59.43 20.40 C 55.49 20.39 51.56 20.46 47.62 20.29 C 47.49 22.40 46.47 24.27 45.74 26.20 C 45.38 24.12 46.56 22.27 47.04 20.32 C 46.26 20.37 44.70 20.46 43.91 20.51 L 44.03 22.58 M 7.46 22.08 C 7.27 23.83 6.53 25.30 4.82 26.03 C 6.10 26.79 7.46 27.00 8.81 26.30 C 10.63 27.28 12.42 26.75 13.87 25.43 C 14.12 25.95 14.61 26.99 14.85 27.51 C 14.93 26.78 15.09 25.33 15.16 24.61 C 16.18 25.44 17.19 26.27 18.19 27.10 C 18.53 26.60 19.21 25.59 19.54 25.08 C 20.39 25.85 21.23 26.61 22.08 27.37 C 22.06 25.34 22.04 23.31 21.99 21.28 C 21.50 22.16 21.02 23.05 20.55 23.94 C 19.96 22.52 18.73 21.90 17.29 21.64 C 16.77 22.49 16.23 23.31 15.66 24.12 C 15.36 23.44 14.76 22.08 14.46 21.39 C 14.34 21.86 14.10 22.79 13.98 23.25 C 12.20 21.49 9.70 22.10 7.46 22.08 M 9.90 32.66 C 9.03 31.30 8.14 29.96 7.22 28.63 C 6.60 30.25 6.00 31.87 5.38 33.49 C 6.14 32.76 6.89 32.03 7.65 31.29 C 8.30 32.17 9.10 32.91 9.91 33.63 C 10.29 33.05 11.06 31.87 11.44 31.28 C 11.88 31.11 12.76 30.78 13.20 30.61 L 13.95 34.08 C 14.08 32.45 14.03 30.81 13.84 29.19 C 12.92 28.92 12.00 28.66 11.07 28.43 C 10.08 29.57 10.43 31.33 9.90 32.66 M 24.74 27.86 C 24.26 28.29 23.31 29.14 22.83 29.56 C 23.32 30.56 23.84 31.60 23.43 32.73 L 25.86 31.96 L 24.16 34.06 C 25.23 33.34 26.37 32.74 27.53 32.17 C 27.52 31.16 27.53 30.16 27.53 29.15 C 26.28 29.26 25.04 29.38 23.79 29.51 L 24.74 27.86 M 32.66 29.54 C 32.66 30.61 32.64 31.68 32.63 32.74 C 33.70 32.65 34.77 32.56 35.84 32.48 C 35.82 31.39 35.80 30.29 35.78 29.20 L 34.21 29.92 L 34.32 28.19 C 33.77 28.64 33.22 29.09 32.66 29.54 M 13.51 28.60 C 14.88 30.69 16.39 32.72 18.45 34.19 C 18.16 32.43 17.87 30.68 17.57 28.92 C 16.55 28.84 14.53 28.68 13.51 28.60 M 21.30 34.21 C 21.29 32.03 21.26 29.85 21.20 27.67 C 18.88 29.23 18.32 33.00 21.30 34.21 M 28.68 28.70 C 28.69 30.24 28.68 31.78 28.66 33.32 C 29.34 33.39 30.71 33.55 31.39 33.63 C 31.37 31.88 31.36 30.13 31.38 28.38 C 30.71 28.46 29.36 28.62 28.68 28.70 M 5.22 36.50 C 5.54 37.51 5.87 38.52 6.19 39.53 C 9.92 39.39 13.66 39.50 17.38 39.72 C 17.33 38.45 17.27 37.18 17.22 35.92 C 16.38 36.74 15.54 37.57 14.71 38.40 C 14.67 37.91 14.59 36.94 14.56 36.45 C 12.86 37.01 11.15 37.49 9.43 37.98 L 9.42 36.46 C 8.02 36.48 6.62 36.49 5.22 36.50 M 19.61 36.02 C 19.76 37.15 19.91 38.29 20.05 39.42 C 22.62 39.52 25.19 39.62 27.76 39.71 C 28.14 38.94 28.51 38.17 28.88 37.40 C 26.11 37.61 23.16 37.37 20.67 38.88 L 21.81 36.02 C 21.26 36.02 20.16 36.02 19.61 36.02 M 47.71 40.12 C 49.43 40.47 51.19 40.49 52.90 40.06 C 52.24 39.93 50.92 39.65 50.26 39.52 C 50.26 38.81 50.26 37.39 50.26 36.67 C 49.39 37.81 48.55 38.97 47.71 40.12 M 51.36 38.24 C 52.02 38.28 53.35 38.36 54.01 38.40 C 53.82 39.39 53.64 40.38 53.46 41.37 L 54.66 41.23 C 54.63 39.85 54.60 38.46 54.58 37.07 C 53.50 37.46 52.43 37.84 51.36 38.24 M 39.66 38.03 C 39.74 38.73 39.91 40.12 39.99 40.81 C 40.96 40.06 42.01 39.42 43.15 38.95 C 41.99 38.63 40.83 38.32 39.66 38.03 M 4.87 44.29 C 7.02 44.89 9.20 45.36 11.39 45.81 C 11.40 44.70 11.41 42.48 11.41 41.37 C 9.54 41.69 8.79 43.35 7.95 44.79 C 8.02 43.92 8.15 42.19 8.22 41.32 C 7.11 42.32 6.00 43.32 4.87 44.29 M 12.31 42.53 C 11.44 43.75 11.69 44.46 13.05 44.66 C 13.91 43.45 13.67 42.74 12.31 42.53 M 14.15 44.74 C 15.52 44.53 15.77 43.83 14.89 42.63 C 13.53 42.85 13.28 43.55 14.15 44.74 M 15.93 44.81 C 17.31 44.58 17.55 43.88 16.63 42.69 C 15.28 42.94 15.05 43.65 15.93 44.81 M 18.06 41.36 C 18.08 42.08 18.13 43.52 18.15 44.24 C 18.17 46.15 20.43 44.85 21.46 45.14 C 20.55 43.69 19.47 42.36 18.06 41.36 M 22.32 42.07 C 22.40 43.25 22.48 44.42 22.56 45.60 C 24.03 45.38 25.50 45.17 26.97 44.94 C 26.74 43.94 26.63 42.94 26.65 41.92 C 25.19 41.61 23.74 41.66 22.32 42.07 M 39.78 42.71 C 39.00 43.58 41.30 45.45 41.84 44.00 C 43.78 42.60 40.40 41.18 39.78 42.71 M 48.23 42.66 C 46.92 43.65 48.38 46.29 49.84 45.10 C 51.27 44.10 49.69 41.40 48.23 42.66 M 51.47 41.56 C 51.54 42.54 51.67 44.49 51.74 45.47 C 53.31 45.33 54.88 45.19 56.46 45.05 C 56.36 42.23 53.47 42.23 51.47 41.56 Z" />
<path fill="#fff899" opacity="1.00" d=" M 48.37 22.37 C 50.20 22.62 52.05 22.69 53.89 22.48 L 53.18 24.27 C 53.99 23.78 55.63 22.82 56.45 22.33 C 56.95 23.01 57.44 23.68 57.94 24.35 C 54.40 24.23 50.54 25.31 47.26 23.63 L 51.38 23.93 L 48.37 22.37 Z" />
<path fill="#fff899" opacity="1.00" d=" M 48.73 34.41 C 49.35 31.80 50.42 29.34 51.62 26.95 C 52.64 29.32 53.57 31.73 54.28 34.20 C 53.21 33.23 52.17 32.23 51.11 31.23 C 50.34 32.31 49.54 33.36 48.73 34.41 M 51.17 30.24 C 51.91 30.75 51.91 30.75 51.17 30.24 Z" />
<path fill="#fff899" opacity="1.00" d=" M 25.37 30.37 C 25.65 30.65 25.65 30.65 25.37 30.37 Z" />
<path fill="#fff899" opacity="1.00" d=" M 33.92 30.22 C 37.22 30.44 32.39 33.33 33.92 30.22 Z" />
</g>
<g id="#020201ab">
<path fill="#020201" opacity="0.67" d=" M 2.14 34.99 C 2.28 29.82 1.59 24.54 2.86 19.46 C 3.17 28.95 2.92 38.44 3.00 47.93 C 15.01 47.90 27.02 48.00 39.04 47.88 C 40.55 44.58 42.65 48.14 44.87 47.90 C 50.18 48.05 55.48 47.85 60.79 47.95 L 60.76 49.57 C 60.76 49.82 60.75 50.32 60.74 50.57 C 41.58 50.60 22.42 50.55 3.25 50.69 C 1.46 45.64 2.28 40.23 2.14 34.99 Z" />
</g>
<g id="#000000ff">
<path fill="#000000" opacity="1.00" d=" M 44.03 22.58 L 43.91 20.51 C 44.70 20.46 46.26 20.37 47.04 20.32 C 46.56 22.27 45.38 24.12 45.74 26.20 C 46.47 24.27 47.49 22.40 47.62 20.29 C 51.56 20.46 55.49 20.39 59.43 20.40 C 59.41 25.26 59.42 30.12 59.42 34.98 C 54.26 35.09 49.04 35.51 43.93 34.58 C 42.82 35.39 41.71 36.19 40.58 36.97 C 40.74 35.93 38.26 33.27 41.03 34.30 L 42.63 34.86 C 42.87 34.04 42.92 33.22 42.80 32.41 C 41.80 32.17 40.75 32.36 39.73 32.28 C 39.77 31.69 39.81 31.10 39.85 30.51 C 41.41 30.23 42.94 29.87 44.45 29.41 C 43.66 28.70 42.07 27.27 41.28 26.56 L 42.32 28.74 C 41.08 28.37 40.10 27.57 39.09 26.84 C 41.23 26.48 44.53 25.65 42.48 22.91 C 41.36 26.26 39.84 23.55 39.24 22.19 C 40.84 22.22 42.45 22.33 44.03 22.58 M 48.37 22.37 L 51.38 23.93 L 47.26 23.63 C 50.54 25.31 54.40 24.23 57.94 24.35 C 57.44 23.68 56.95 23.01 56.45 22.33 C 55.63 22.82 53.99 23.78 53.18 24.27 L 53.89 22.48 C 52.05 22.69 50.20 22.62 48.37 22.37 M 48.73 34.41 C 49.54 33.36 50.34 32.31 51.11 31.23 C 52.17 32.23 53.21 33.23 54.28 34.20 C 53.57 31.73 52.64 29.32 51.62 26.95 C 50.42 29.34 49.35 31.80 48.73 34.41 Z" />
<path fill="#000000" opacity="1.00" d=" M 9.90 32.66 C 10.43 31.33 10.08 29.57 11.07 28.43 C 12.00 28.66 12.92 28.92 13.84 29.19 C 14.03 30.81 14.08 32.45 13.95 34.08 L 13.20 30.61 C 12.76 30.78 11.88 31.11 11.44 31.28 C 11.06 31.87 10.29 33.05 9.91 33.63 C 9.10 32.91 8.30 32.17 7.65 31.29 C 6.89 32.03 6.14 32.76 5.38 33.49 C 6.00 31.87 6.60 30.25 7.22 28.63 C 8.14 29.96 9.03 31.30 9.90 32.66 Z" />
<path fill="#000000" opacity="1.00" d=" M 24.74 27.86 L 23.79 29.51 C 25.04 29.38 26.28 29.26 27.53 29.15 C 27.53 30.16 27.52 31.16 27.53 32.17 C 26.37 32.74 25.23 33.34 24.16 34.06 L 25.86 31.96 L 23.43 32.73 C 23.84 31.60 23.32 30.56 22.83 29.56 C 23.31 29.14 24.26 28.29 24.74 27.86 M 25.37 30.37 C 25.65 30.65 25.65 30.65 25.37 30.37 Z" />
<path fill="#000000" opacity="1.00" d=" M 32.66 29.54 C 33.22 29.09 33.77 28.64 34.32 28.19 L 34.21 29.92 L 35.78 29.20 C 35.80 30.29 35.82 31.39 35.84 32.48 C 34.77 32.56 33.70 32.65 32.63 32.74 C 32.64 31.68 32.66 30.61 32.66 29.54 M 33.92 30.22 C 32.39 33.33 37.22 30.44 33.92 30.22 Z" />
<path fill="#000000" opacity="1.00" d=" M 51.17 30.24 C 51.91 30.75 51.91 30.75 51.17 30.24 Z" />
<path fill="#000000" opacity="1.00" d=" M 47.71 40.12 C 48.55 38.97 49.39 37.81 50.26 36.67 C 50.26 37.39 50.26 38.81 50.26 39.52 C 50.92 39.65 52.24 39.93 52.90 40.06 C 51.19 40.49 49.43 40.47 47.71 40.12 Z" />
<path fill="#000000" opacity="1.00" d=" M 51.36 38.24 C 52.43 37.84 53.50 37.46 54.58 37.07 C 54.60 38.46 54.63 39.85 54.66 41.23 L 53.46 41.37 C 53.64 40.38 53.82 39.39 54.01 38.40 C 53.35 38.36 52.02 38.28 51.36 38.24 Z" />
<path fill="#000000" opacity="1.00" d=" M 39.66 38.03 C 40.83 38.32 41.99 38.63 43.15 38.95 C 42.01 39.42 40.96 40.06 39.99 40.81 C 39.91 40.12 39.74 38.73 39.66 38.03 Z" />
<path fill="#000000" opacity="1.00" d=" M 39.78 42.71 C 40.40 41.18 43.78 42.60 41.84 44.00 C 41.30 45.45 39.00 43.58 39.78 42.71 Z" />
<path fill="#000000" opacity="1.00" d=" M 48.23 42.66 C 49.69 41.40 51.27 44.10 49.84 45.10 C 48.38 46.29 46.92 43.65 48.23 42.66 Z" />
</g>
<g id="#7a7649ff">
<path fill="#7a7649" opacity="1.00" d=" M 7.46 22.08 C 9.70 22.10 12.20 21.49 13.98 23.25 C 14.10 22.79 14.34 21.86 14.46 21.39 C 14.76 22.08 15.36 23.44 15.66 24.12 C 16.23 23.31 16.77 22.49 17.29 21.64 C 18.73 21.90 19.96 22.52 20.55 23.94 C 21.02 23.05 21.50 22.16 21.99 21.28 C 22.04 23.31 22.06 25.34 22.08 27.37 C 21.23 26.61 20.39 25.85 19.54 25.08 C 19.21 25.59 18.53 26.60 18.19 27.10 C 17.19 26.27 16.18 25.44 15.16 24.61 C 15.09 25.33 14.93 26.78 14.85 27.51 C 14.61 26.99 14.12 25.95 13.87 25.43 C 12.42 26.75 10.63 27.28 8.81 26.30 C 7.46 27.00 6.10 26.79 4.82 26.03 C 6.53 25.30 7.27 23.83 7.46 22.08 M 10.39 23.21 C 9.15 24.09 10.47 26.52 11.83 25.50 C 13.05 24.59 11.79 22.13 10.39 23.21 Z" />
</g>
<g id="#eeeb95ff">
<path fill="#eeeb95" opacity="1.00" d=" M 10.39 23.21 C 11.79 22.13 13.05 24.59 11.83 25.50 C 10.47 26.52 9.15 24.09 10.39 23.21 Z" />
</g>
<g id="#68653dff">
<path fill="#68653d" opacity="1.00" d=" M 13.51 28.60 C 14.53 28.68 16.55 28.84 17.57 28.92 C 17.87 30.68 18.16 32.43 18.45 34.19 C 16.39 32.72 14.88 30.69 13.51 28.60 Z" />
<path fill="#68653d" opacity="1.00" d=" M 21.30 34.21 C 18.32 33.00 18.88 29.23 21.20 27.67 C 21.26 29.85 21.29 32.03 21.30 34.21 Z" />
<path fill="#68653d" opacity="1.00" d=" M 5.22 36.50 C 6.62 36.49 8.02 36.48 9.42 36.46 L 9.43 37.98 C 11.15 37.49 12.86 37.01 14.56 36.45 C 14.59 36.94 14.67 37.91 14.71 38.40 C 15.54 37.57 16.38 36.74 17.22 35.92 C 17.27 37.18 17.33 38.45 17.38 39.72 C 13.66 39.50 9.92 39.39 6.19 39.53 C 5.87 38.52 5.54 37.51 5.22 36.50 Z" />
<path fill="#68653d" opacity="1.00" d=" M 4.87 44.29 C 6.00 43.32 7.11 42.32 8.22 41.32 C 8.15 42.19 8.02 43.92 7.95 44.79 C 8.79 43.35 9.54 41.69 11.41 41.37 C 11.41 42.48 11.40 44.70 11.39 45.81 C 9.20 45.36 7.02 44.89 4.87 44.29 Z" />
<path fill="#68653d" opacity="1.00" d=" M 18.06 41.36 C 19.47 42.36 20.55 43.69 21.46 45.14 C 20.43 44.85 18.17 46.15 18.15 44.24 C 18.13 43.52 18.08 42.08 18.06 41.36 Z" />
</g>
<g id="#7b7749ff">
<path fill="#7b7749" opacity="1.00" d=" M 28.68 28.70 C 29.36 28.62 30.71 28.46 31.38 28.38 C 31.36 30.13 31.37 31.88 31.39 33.63 C 30.71 33.55 29.34 33.39 28.66 33.32 C 28.68 31.78 28.69 30.24 28.68 28.70 Z" />
</g>
<g id="#6f6c43ff">
<path fill="#6f6c43" opacity="1.00" d=" M 19.61 36.02 C 20.16 36.02 21.26 36.02 21.81 36.02 L 20.67 38.88 C 23.16 37.37 26.11 37.61 28.88 37.40 C 28.51 38.17 28.14 38.94 27.76 39.71 C 25.19 39.62 22.62 39.52 20.05 39.42 C 19.91 38.29 19.76 37.15 19.61 36.02 Z" />
<path fill="#6f6c43" opacity="1.00" d=" M 22.32 42.07 C 23.74 41.66 25.19 41.61 26.65 41.92 C 26.63 42.94 26.74 43.94 26.97 44.94 C 25.50 45.17 24.03 45.38 22.56 45.60 C 22.48 44.42 22.40 43.25 22.32 42.07 Z" />
</g>
<g id="#68663fff">
<path fill="#68663f" opacity="1.00" d=" M 12.31 42.53 C 13.67 42.74 13.91 43.45 13.05 44.66 C 11.69 44.46 11.44 43.75 12.31 42.53 Z" />
</g>
<g id="#7d794bff">
<path fill="#7d794b" opacity="1.00" d=" M 14.15 44.74 C 13.28 43.55 13.53 42.85 14.89 42.63 C 15.77 43.83 15.52 44.53 14.15 44.74 Z" />
</g>
<g id="#797548ff">
<path fill="#797548" opacity="1.00" d=" M 15.93 44.81 C 15.05 43.65 15.28 42.94 16.63 42.69 C 17.55 43.88 17.31 44.58 15.93 44.81 Z" />
</g>
<g id="#807c4dff">
<path fill="#807c4d" opacity="1.00" d=" M 51.47 41.56 C 53.47 42.23 56.36 42.23 56.46 45.05 C 54.88 45.19 53.31 45.33 51.74 45.47 C 51.67 44.49 51.54 42.54 51.47 41.56 Z" />
</g>
</svg>
