<?xml version="1.0" encoding="UTF-8" ?>
<!DOCTYPE svg PUBLIC "-//W3C//DTD SVG 1.1//EN" "http://www.w3.org/Graphics/SVG/1.1/DTD/svg11.dtd">
<svg width="64pt" height="64pt" viewBox="0 0 64 64" version="1.1" xmlns="http://www.w3.org/2000/svg">
<g id="#444546f8">
<path fill="#444546" opacity="0.97" d=" M 23.04 2.01 C 23.52 2.01 24.49 2.01 24.97 2.01 C 25.02 7.68 25.11 13.35 25.00 19.01 C 25.74 22.93 17.53 24.48 17.99 20.00 C 17.28 17.10 21.13 17.60 22.87 16.71 C 22.91 13.03 23.00 5.68 23.04 2.01 Z" />
<path fill="#444546" opacity="0.97" d=" M 46.33 3.35 C 51.71 1.69 56.63 5.23 59.70 9.27 C 61.90 14.55 60.48 21.32 55.71 24.70 C 38.78 30.38 28.29 46.26 13.95 55.97 C 12.68 55.79 11.49 55.27 10.22 55.15 C 8.08 56.64 6.99 60.30 3.97 60.03 C 3.70 57.01 7.36 55.92 8.85 53.78 C 8.88 52.11 7.21 50.15 8.72 48.72 C 17.98 37.72 28.40 27.57 36.55 15.65 C 38.21 10.54 40.68 4.82 46.33 3.35 Z" />
<path fill="#444546" opacity="0.97" d=" M 7.03 13.01 C 7.52 13.01 8.48 13.01 8.97 13.00 C 8.95 18.98 9.25 24.98 8.92 30.96 C 8.66 34.62 1.34 35.54 2.01 31.04 C 2.08 28.58 5.26 29.17 6.94 28.81 C 6.98 23.54 7.01 18.28 7.03 13.01 Z" />
<path fill="#444546" opacity="0.97" d=" M 52.04 31.01 C 52.53 31.01 53.49 31.01 53.97 31.01 C 53.95 36.99 54.25 42.98 53.92 48.96 C 53.65 52.16 47.58 53.62 47.02 49.95 C 46.33 47.10 50.08 46.87 51.81 45.67 C 51.87 42.00 51.99 34.67 52.04 31.01 Z" />
</g>
</svg>
