<?xml version="1.0" encoding="UTF-8" ?>
<!DOCTYPE svg PUBLIC "-//W3C//DTD SVG 1.1//EN" "http://www.w3.org/Graphics/SVG/1.1/DTD/svg11.dtd">
<svg width="64pt" height="64pt" viewBox="0 0 64 64" version="1.1" xmlns="http://www.w3.org/2000/svg">
<g id="#1a1a1a9c">
<path fill="#1a1a1a" opacity="0.61" d=" M 22.01 6.02 C 28.69 5.94 35.38 5.94 42.06 6.02 L 41.88 6.99 L 40.86 7.03 C 39.20 7.05 35.87 7.09 34.20 7.12 C 32.52 7.09 30.85 7.06 29.17 7.09 C 27.37 7.07 23.78 7.02 21.99 7.00 L 22.01 6.02 Z" />
</g>
<g id="#080808f5">
<path fill="#080808" opacity="0.96" d=" M 10.88 11.12 C 10.89 5.85 19.11 8.35 21.99 7.00 C 23.78 7.02 27.37 7.07 29.17 7.09 C 28.40 7.70 27.62 8.30 26.85 8.91 C 23.12 8.98 19.46 9.57 15.81 10.29 C 14.45 10.50 13.12 10.90 11.78 11.21 L 10.88 11.12 Z" />
</g>
<g id="#323232ff">
<path fill="#323232" opacity="1.00" d=" M 29.17 7.09 C 30.85 7.06 32.52 7.09 34.20 7.12 C 33.08 7.71 31.94 8.28 30.82 8.87 C 30.40 8.94 29.57 9.07 29.15 9.14 C 28.58 9.08 27.43 8.97 26.85 8.91 C 27.62 8.30 28.40 7.70 29.17 7.09 Z" />
</g>
<g id="#5a5a5aff">
<path fill="#5a5a5a" opacity="1.00" d=" M 34.20 7.12 C 35.87 7.09 39.20 7.05 40.86 7.03 C 41.18 7.51 41.82 8.48 42.14 8.97 C 38.36 8.97 34.59 8.99 30.82 8.87 C 31.94 8.28 33.08 7.71 34.20 7.12 Z" />
<path fill="#5a5a5a" opacity="1.00" d=" M 41.96 12.04 C 42.41 11.98 43.33 11.87 43.79 11.82 C 45.23 20.11 45.10 28.54 45.01 36.92 C 44.50 36.95 43.47 37.01 42.96 37.04 C 43.03 28.70 43.39 20.29 41.96 12.04 Z" />
</g>
<g id="#3e3e3efd">
<path fill="#3e3e3e" opacity="1.00" d=" M 40.86 7.03 L 41.88 6.99 C 42.60 7.04 44.03 7.14 44.75 7.18 C 45.87 8.12 47.02 9.02 48.20 9.88 L 47.26 10.21 C 45.53 9.90 43.83 9.44 42.14 8.97 C 41.82 8.48 41.18 7.51 40.86 7.03 Z" />
</g>
<g id="#0e0e0ee9">
<path fill="#0e0e0e" opacity="0.91" d=" M 44.75 7.18 C 47.51 7.59 53.31 6.98 52.99 11.04 C 51.40 10.62 49.81 10.21 48.20 9.88 C 47.02 9.02 45.87 8.12 44.75 7.18 Z" />
</g>
<g id="#646464ff">
<path fill="#646464" opacity="1.00" d=" M 15.81 10.29 C 19.46 9.57 23.12 8.98 26.85 8.91 C 27.43 8.97 28.58 9.08 29.15 9.14 C 26.68 9.65 24.19 10.05 21.75 10.71 C 20.27 10.60 17.29 10.40 15.81 10.29 Z" />
</g>
<g id="#8d8d8eff">
<path fill="#8d8d8e" opacity="1.00" d=" M 29.15 9.14 C 29.57 9.07 30.40 8.94 30.82 8.87 C 34.59 8.99 38.36 8.97 42.14 8.97 C 43.83 9.44 45.53 9.90 47.26 10.21 C 46.11 10.75 44.94 11.28 43.79 11.82 C 43.33 11.87 42.41 11.98 41.96 12.04 C 41.21 12.03 39.73 12.02 38.98 12.02 C 38.29 11.99 36.91 11.94 36.22 11.92 C 34.21 11.17 32.07 10.96 29.94 10.99 C 27.21 10.94 24.48 10.85 21.75 10.71 C 24.19 10.05 26.68 9.65 29.15 9.14 Z" />
</g>
<g id="#4d4d4eff">
<path fill="#4d4d4e" opacity="1.00" d=" M 11.78 11.21 C 13.12 10.90 14.45 10.50 15.81 10.29 C 17.29 10.40 20.27 10.60 21.75 10.71 C 24.48 10.85 27.21 10.94 29.94 10.99 L 30.25 11.95 L 29.23 12.05 C 28.72 12.06 27.69 12.09 27.18 12.10 C 25.81 12.07 24.45 12.05 23.08 12.02 C 19.30 11.99 15.53 11.72 11.78 11.21 Z" />
</g>
<g id="#5d5d5dfd">
<path fill="#5d5d5d" opacity="1.00" d=" M 47.26 10.21 L 48.20 9.88 C 49.81 10.21 51.40 10.62 52.99 11.04 L 53.06 11.95 L 52.21 12.18 C 50.75 12.10 49.29 12.04 47.83 11.98 C 47.33 11.96 46.32 11.93 45.82 11.91 C 45.31 11.89 44.30 11.84 43.79 11.82 C 44.94 11.28 46.11 10.75 47.26 10.21 Z" />
</g>
<g id="#131212fe">
<path fill="#131212" opacity="1.00" d=" M 10.88 11.12 L 11.78 11.21 C 15.53 11.72 19.30 11.99 23.08 12.02 C 24.83 14.30 21.55 14.95 20.28 16.30 C 18.40 23.04 19.97 30.09 20.03 36.93 C 19.53 36.91 18.53 36.88 18.03 36.86 L 18.21 36.10 C 19.72 28.65 14.49 18.81 21.11 13.03 C 17.74 12.99 14.39 12.99 11.02 12.99 C 10.99 12.52 10.92 11.58 10.88 11.12 Z" />
</g>
<g id="#6e6e6fff">
<path fill="#6e6e6f" opacity="1.00" d=" M 29.94 10.99 C 32.07 10.96 34.21 11.17 36.22 11.92 C 31.98 19.73 31.71 29.72 33.97 38.10 C 33.46 38.09 32.44 38.05 31.93 38.04 C 32.70 29.45 30.20 20.18 34.04 12.13 C 33.56 12.10 32.60 12.06 32.12 12.03 C 31.65 12.01 30.71 11.97 30.25 11.95 L 29.94 10.99 Z" />
</g>
<g id="#212121ff">
<path fill="#212121" opacity="1.00" d=" M 23.08 12.02 C 24.45 12.05 25.81 12.07 27.18 12.10 C 24.75 16.07 20.99 19.85 21.98 25.01 C 22.42 28.99 20.73 34.09 24.19 37.12 C 22.80 37.05 21.42 36.98 20.03 36.93 C 19.97 30.09 18.40 23.04 20.28 16.30 C 21.55 14.95 24.83 14.30 23.08 12.02 Z" />
</g>
<g id="#2e2e2eff">
<path fill="#2e2e2e" opacity="1.00" d=" M 27.18 12.10 C 27.69 12.09 28.72 12.06 29.23 12.05 C 24.46 19.31 25.72 28.52 26.54 36.75 C 26.22 36.87 25.57 37.12 25.25 37.24 L 24.19 37.12 C 20.73 34.09 22.42 28.99 21.98 25.01 C 20.99 19.85 24.75 16.07 27.18 12.10 Z" />
</g>
<g id="#3e3d3dff">
<path fill="#3e3d3d" opacity="1.00" d=" M 29.23 12.05 L 30.25 11.95 C 27.26 20.32 28.10 29.28 27.94 38.01 C 27.43 38.01 26.42 38.00 25.92 38.00 L 24.84 37.97 L 25.25 37.24 C 25.57 37.12 26.22 36.87 26.54 36.75 C 25.72 28.52 24.46 19.31 29.23 12.05 Z" />
</g>
<g id="#4c4c4cff">
<path fill="#4c4c4c" opacity="1.00" d=" M 30.25 11.95 C 30.71 11.97 31.65 12.01 32.12 12.03 C 28.91 20.25 29.59 29.48 30.88 38.02 C 30.14 38.02 28.67 38.02 27.94 38.01 C 28.10 29.28 27.26 20.32 30.25 11.95 Z" />
</g>
<g id="#5f5f5fff">
<path fill="#5f5f5f" opacity="1.00" d=" M 32.12 12.03 C 32.60 12.06 33.56 12.10 34.04 12.13 C 30.20 20.18 32.70 29.45 31.93 38.04 L 30.88 38.02 C 29.59 29.48 28.91 20.25 32.12 12.03 Z" />
</g>
<g id="#7b7b7bff">
<path fill="#7b7b7b" opacity="1.00" d=" M 36.22 11.92 C 36.91 11.94 38.29 11.99 38.98 12.02 C 43.22 19.43 43.02 28.90 41.14 36.96 L 40.20 36.79 C 40.07 30.28 39.94 23.76 39.82 17.25 C 39.02 16.39 38.13 15.59 37.15 14.93 C 32.86 21.72 35.56 30.48 35.07 38.15 L 33.97 38.10 C 31.71 29.72 31.98 19.73 36.22 11.92 Z" />
</g>
<g id="#6e6e6eff">
<path fill="#6e6e6e" opacity="1.00" d=" M 38.98 12.02 C 39.73 12.02 41.21 12.03 41.96 12.04 C 43.39 20.29 43.03 28.70 42.96 37.04 L 41.98 37.11 L 41.14 36.96 C 43.02 28.90 43.22 19.43 38.98 12.02 Z" />
</g>
<g id="#444443ff">
<path fill="#444443" opacity="1.00" d=" M 43.79 11.82 C 44.30 11.84 45.31 11.89 45.82 11.91 C 44.67 19.81 46.82 27.95 46.04 35.94 L 46.03 36.87 L 45.01 36.92 C 45.10 28.54 45.23 20.11 43.79 11.82 Z" />
</g>
<g id="#313131ff">
<path fill="#313131" opacity="1.00" d=" M 45.82 11.91 C 46.32 11.93 47.33 11.96 47.83 11.98 C 46.45 19.90 47.09 27.96 47.01 35.95 L 46.04 35.94 C 46.82 27.95 44.67 19.81 45.82 11.91 Z" />
</g>
<g id="#1a1919ff">
<path fill="#1a1919" opacity="1.00" d=" M 47.83 11.98 C 49.29 12.04 50.75 12.10 52.21 12.18 C 49.97 13.27 46.12 13.29 49.01 18.02 C 49.00 23.58 48.72 29.16 49.13 34.71 C 49.56 34.82 50.44 35.05 50.87 35.16 L 50.89 36.07 C 50.41 36.06 49.45 36.04 48.97 36.03 C 48.48 36.01 47.50 35.97 47.01 35.95 C 47.09 27.96 46.45 19.90 47.83 11.98 Z" />
</g>
<g id="#060606f5">
<path fill="#060606" opacity="0.96" d=" M 52.21 12.18 L 53.06 11.95 C 53.22 18.24 52.34 24.49 51.63 30.71 C 51.29 32.18 51.06 33.67 50.87 35.16 C 50.44 35.05 49.56 34.82 49.13 34.71 C 48.72 29.16 49.00 23.58 49.01 18.02 C 46.12 13.29 49.97 13.27 52.21 12.18 Z" />
</g>
<g id="#020101f6">
<path fill="#020101" opacity="0.96" d=" M 11.02 12.99 C 14.39 12.99 17.74 12.99 21.11 13.03 C 14.49 18.81 19.72 28.65 18.21 36.10 C 16.35 36.45 12.40 34.74 12.98 37.96 L 12.03 38.03 C 12.43 29.65 11.62 21.31 11.02 12.99 Z" />
</g>
<g id="#898887ff">
<path fill="#898887" opacity="1.00" d=" M 37.15 14.93 C 38.13 15.59 39.02 16.39 39.82 17.25 C 39.94 23.76 40.07 30.28 40.20 36.79 L 41.14 36.96 L 41.98 37.11 L 42.25 37.82 C 41.70 37.86 40.59 37.93 40.04 37.97 C 38.75 38.03 37.47 38.11 36.19 38.21 L 35.07 38.15 C 35.56 30.48 32.86 21.72 37.15 14.93 Z" />
</g>
<g id="#120c019e">
<path fill="#120c01" opacity="0.62" d=" M 50.87 35.16 C 51.06 33.67 51.29 32.18 51.63 30.71 C 51.90 34.12 52.13 37.55 51.99 40.97 L 51.05 41.01 C 51.00 39.36 50.96 37.71 50.89 36.07 L 50.87 35.16 Z" />
</g>
<g id="#372403fc">
<path fill="#372403" opacity="1.00" d=" M 12.98 37.96 C 12.40 34.74 16.35 36.45 18.21 36.10 L 18.03 36.86 C 14.07 37.23 16.89 42.69 14.99 45.19 C 14.46 45.16 13.40 45.11 12.86 45.09 C 12.73 44.75 12.45 44.08 12.32 43.75 C 12.82 41.86 12.95 39.91 12.98 37.96 Z" />
</g>
<g id="#6f531cff">
<path fill="#6f531c" opacity="1.00" d=" M 46.04 35.94 L 47.01 35.95 C 47.50 35.97 48.48 36.01 48.97 36.03 C 49.02 39.08 49.04 42.14 49.18 45.19 C 48.60 45.48 47.43 46.06 46.84 46.35 C 47.65 43.57 49.97 37.30 46.03 36.87 L 46.04 35.94 Z" />
</g>
<g id="#533c0cff">
<path fill="#533c0c" opacity="1.00" d=" M 48.97 36.03 C 49.45 36.04 50.41 36.06 50.89 36.07 C 50.96 37.71 51.00 39.36 51.05 41.01 C 51.06 41.54 51.06 42.60 51.07 43.12 C 51.04 43.58 50.98 44.49 50.96 44.95 C 50.51 45.01 49.62 45.13 49.18 45.19 C 49.04 42.14 49.02 39.08 48.97 36.03 Z" />
</g>
<g id="#543804ff">
<path fill="#543804" opacity="1.00" d=" M 14.99 45.19 C 16.89 42.69 14.07 37.23 18.03 36.86 C 18.01 39.90 17.99 42.95 18.04 45.99 C 17.02 45.74 16.00 45.47 14.99 45.19 Z" />
</g>
<g id="#6f500dff">
<path fill="#6f500d" opacity="1.00" d=" M 18.03 36.86 C 18.53 36.88 19.53 36.91 20.03 36.93 C 21.42 36.98 22.80 37.05 24.19 37.12 L 25.25 37.24 L 24.84 37.97 C 24.37 37.98 23.42 38.00 22.95 38.01 L 21.99 38.03 C 17.62 37.20 21.06 43.84 19.00 46.22 L 18.04 45.99 C 17.99 42.95 18.01 39.90 18.03 36.86 Z" />
</g>
<g id="#c6a049ff">
<path fill="#c6a049" opacity="1.00" d=" M 41.98 37.11 L 42.96 37.04 C 43.47 37.01 44.50 36.95 45.01 36.92 L 46.03 36.87 C 46.02 39.85 46.01 42.83 46.02 45.81 C 45.65 46.12 44.92 46.74 44.56 47.05 C 44.10 47.04 43.18 47.02 42.72 47.01 L 41.84 46.98 C 45.82 45.28 43.06 40.73 42.25 37.82 L 41.98 37.11 Z" />
</g>
<g id="#9c782aff">
<path fill="#9c782a" opacity="1.00" d=" M 46.03 36.87 C 49.97 37.30 47.65 43.57 46.84 46.35 L 46.02 45.81 C 46.01 42.83 46.02 39.85 46.03 36.87 Z" />
</g>
<g id="#8e690eff">
<path fill="#8e690e" opacity="1.00" d=" M 19.00 46.22 C 21.06 43.84 17.62 37.20 21.99 38.03 C 22.68 40.99 22.73 44.01 22.82 47.04 C 21.53 46.84 20.26 46.56 19.00 46.22 Z" />
</g>
<g id="#aa8616ff">
<path fill="#aa8616" opacity="1.00" d=" M 21.99 38.03 L 22.95 38.01 C 25.08 40.74 25.45 44.13 23.79 47.21 L 22.82 47.04 C 22.73 44.01 22.68 40.99 21.99 38.03 Z" />
</g>
<g id="#bc9a21ff">
<path fill="#bc9a21" opacity="1.00" d=" M 22.95 38.01 C 23.42 38.00 24.37 37.98 24.84 37.97 L 25.92 38.00 C 27.22 41.15 23.88 47.98 28.98 47.05 L 30.01 47.11 L 29.85 48.08 C 29.43 48.09 28.59 48.12 28.17 48.13 C 26.70 47.88 25.24 47.57 23.79 47.21 C 25.45 44.13 25.08 40.74 22.95 38.01 Z" />
</g>
<g id="#e4be2dff">
<path fill="#e4be2d" opacity="1.00" d=" M 25.92 38.00 C 26.42 38.00 27.43 38.01 27.94 38.01 L 28.03 38.99 C 28.27 41.68 28.52 44.38 28.98 47.05 C 23.88 47.98 27.22 41.15 25.92 38.00 Z" />
</g>
<g id="#cecd5fff">
<path fill="#cecd5f" opacity="1.00" d=" M 27.94 38.01 C 28.67 38.02 30.14 38.02 30.88 38.02 L 31.93 38.04 C 32.44 38.05 33.46 38.09 33.97 38.10 L 35.07 38.15 L 36.19 38.21 C 35.65 38.43 34.56 38.85 34.02 39.06 C 33.25 39.06 31.71 39.05 30.94 39.05 C 30.21 39.04 28.76 39.01 28.03 38.99 L 27.94 38.01 Z" />
</g>
<g id="#fcfa7bff">
<path fill="#fcfa7b" opacity="1.00" d=" M 36.19 38.21 C 37.47 38.11 38.75 38.03 40.04 37.97 C 40.04 41.02 40.02 44.08 40.13 47.13 C 38.08 47.06 36.02 47.02 33.97 47.00 C 33.98 44.35 34.00 41.71 34.02 39.06 C 34.56 38.85 35.65 38.43 36.19 38.21 Z" />
</g>
<g id="#f0cf68ff">
<path fill="#f0cf68" opacity="1.00" d=" M 40.04 37.97 C 40.59 37.93 41.70 37.86 42.25 37.82 C 43.06 40.73 45.82 45.28 41.84 46.98 C 41.41 47.02 40.56 47.09 40.13 47.13 C 40.02 44.08 40.04 41.02 40.04 37.97 Z" />
</g>
<g id="#faf045ff">
<path fill="#faf045" opacity="1.00" d=" M 28.03 38.99 C 28.76 39.01 30.21 39.04 30.94 39.05 C 31.09 41.73 30.87 44.51 31.90 47.04 C 31.43 47.06 30.48 47.09 30.01 47.11 L 28.98 47.05 C 28.52 44.38 28.27 41.68 28.03 38.99 Z" />
</g>
<g id="#fcfb61ff">
<path fill="#fcfb61" opacity="1.00" d=" M 30.94 39.05 C 31.71 39.05 33.25 39.06 34.02 39.06 C 34.00 41.71 33.98 44.35 33.97 47.00 C 33.45 47.01 32.42 47.03 31.90 47.04 C 30.87 44.51 31.09 41.73 30.94 39.05 Z" />
</g>
<g id="#2a2a2afb">
<path fill="#2a2a2a" opacity="1.00" d=" M 51.07 43.12 C 54.13 44.23 58.29 44.50 60.24 47.18 C 60.47 50.14 57.88 51.58 55.30 51.85 C 53.77 51.07 52.06 51.37 50.41 51.37 C 49.85 48.17 45.44 49.98 44.56 47.05 C 44.92 46.74 45.65 46.12 46.02 45.81 L 46.84 46.35 C 46.99 49.58 51.92 47.74 50.96 44.95 C 50.98 44.49 51.04 43.58 51.07 43.12 Z" />
</g>
<g id="#171616f7">
<path fill="#171616" opacity="0.97" d=" M 3.74 47.20 C 5.34 45.11 8.72 43.75 11.45 44.19 C 9.67 46.66 7.60 48.99 4.68 50.11 C 4.10 49.26 3.79 48.29 3.74 47.20 Z" />
</g>
<g id="#282928ff">
<path fill="#282928" opacity="1.00" d=" M 11.45 44.19 L 12.32 43.75 C 12.45 44.08 12.73 44.75 12.86 45.09 C 14.12 50.48 20.84 49.62 24.97 51.02 C 25.20 51.58 25.67 52.71 25.91 53.27 C 20.14 53.65 14.37 50.61 8.71 51.80 C 7.32 51.46 5.69 51.23 4.68 50.11 C 7.60 48.99 9.67 46.66 11.45 44.19 Z" />
</g>
<g id="#0b0905ff">
<path fill="#0b0905" opacity="1.00" d=" M 12.86 45.09 C 13.40 45.11 14.46 45.16 14.99 45.19 C 16.00 45.47 17.02 45.74 18.04 45.99 L 19.00 46.22 C 20.26 46.56 21.53 46.84 22.82 47.04 L 23.79 47.21 C 25.24 47.57 26.70 47.88 28.17 48.13 C 27.78 49.08 27.43 50.03 27.09 51.00 C 26.56 51.00 25.50 51.01 24.97 51.02 C 20.84 49.62 14.12 50.48 12.86 45.09 Z" />
</g>
<g id="#151412ff">
<path fill="#151412" opacity="1.00" d=" M 49.18 45.19 C 49.62 45.13 50.51 45.01 50.96 44.95 C 51.92 47.74 46.99 49.58 46.84 46.35 C 47.43 46.06 48.60 45.48 49.18 45.19 Z" />
</g>
<g id="#040404e7">
<path fill="#040404" opacity="0.91" d=" M 4.75 53.25 C 2.69 52.67 0.77 45.51 3.74 47.20 C 3.79 48.29 4.10 49.26 4.68 50.11 C 5.69 51.23 7.32 51.46 8.71 51.80 C 11.84 52.59 14.96 53.37 18.11 54.04 C 17.40 54.59 16.69 55.16 15.99 55.74 C 17.42 56.06 18.86 56.35 20.28 56.73 C 14.98 57.34 9.33 55.89 4.75 53.25 Z" />
</g>
<g id="#cdca69ff">
<path fill="#cdca69" opacity="1.00" d=" M 30.01 47.11 C 30.48 47.09 31.43 47.06 31.90 47.04 C 32.42 47.03 33.45 47.01 33.97 47.00 C 36.02 47.02 38.08 47.06 40.13 47.13 C 39.77 47.39 39.05 47.91 38.69 48.17 C 37.49 48.09 36.29 48.03 35.09 48.00 C 34.32 48.00 32.80 48.00 32.04 48.00 C 31.49 48.02 30.39 48.06 29.85 48.08 L 30.01 47.11 Z" />
</g>
<g id="#626161ff">
<path fill="#626161" opacity="1.00" d=" M 40.13 47.13 C 40.56 47.09 41.41 47.02 41.84 46.98 L 42.72 47.01 C 42.86 50.57 46.91 51.16 49.24 53.01 C 48.63 53.29 47.39 53.84 46.78 54.12 C 46.12 54.09 44.79 54.04 44.12 54.01 C 42.22 52.16 40.32 50.28 38.69 48.17 C 39.05 47.91 39.77 47.39 40.13 47.13 Z" />
</g>
<g id="#414141ff">
<path fill="#414141" opacity="1.00" d=" M 42.72 47.01 C 43.18 47.02 44.10 47.04 44.56 47.05 C 45.44 49.98 49.85 48.17 50.41 51.37 C 52.06 51.37 53.77 51.07 55.30 51.85 C 53.32 52.40 51.31 52.89 49.24 53.01 C 46.91 51.16 42.86 50.57 42.72 47.01 Z" />
</g>
<g id="#050505ec">
<path fill="#050505" opacity="0.93" d=" M 60.24 47.18 L 61.06 46.89 C 63.15 53.84 54.30 56.54 49.19 55.77 C 48.38 55.22 47.58 54.67 46.78 54.12 C 47.39 53.84 48.63 53.29 49.24 53.01 C 51.31 52.89 53.32 52.40 55.30 51.85 C 57.88 51.58 60.47 50.14 60.24 47.18 Z" />
</g>
<g id="#282828ff">
<path fill="#282828" opacity="1.00" d=" M 28.17 48.13 C 28.59 48.12 29.43 48.09 29.85 48.08 C 29.90 48.80 29.99 50.25 30.04 50.97 C 29.31 50.98 27.83 50.99 27.09 51.00 C 27.43 50.03 27.78 49.08 28.17 48.13 Z" />
</g>
<g id="#474746ff">
<path fill="#474746" opacity="1.00" d=" M 29.85 48.08 C 30.39 48.06 31.49 48.02 32.04 48.00 C 33.46 50.30 32.92 51.57 30.04 50.97 C 29.99 50.25 29.90 48.80 29.85 48.08 Z" />
</g>
<g id="#606060ff">
<path fill="#606060" opacity="1.00" d=" M 32.04 48.00 C 32.80 48.00 34.32 48.00 35.09 48.00 C 37.43 51.19 32.55 52.15 30.77 53.87 C 33.64 53.96 39.38 54.14 42.25 54.23 C 38.27 54.94 34.24 55.03 30.22 54.89 C 28.80 54.31 27.35 53.80 25.91 53.27 C 27.60 52.92 30.51 53.65 30.04 50.97 C 32.92 51.57 33.46 50.30 32.04 48.00 Z" />
</g>
<g id="#7e7e7eff">
<path fill="#7e7e7e" opacity="1.00" d=" M 35.09 48.00 C 36.29 48.03 37.49 48.09 38.69 48.17 C 40.32 50.28 42.22 52.16 44.12 54.01 C 43.66 54.07 42.72 54.17 42.25 54.23 C 39.38 54.14 33.64 53.96 30.77 53.87 C 32.55 52.15 37.43 51.19 35.09 48.00 Z" />
</g>
<g id="#404040ff">
<path fill="#404040" opacity="1.00" d=" M 8.71 51.80 C 14.37 50.61 20.14 53.65 25.91 53.27 C 27.35 53.80 28.80 54.31 30.22 54.89 C 26.17 54.95 22.15 54.30 18.11 54.04 C 14.96 53.37 11.84 52.59 8.71 51.80 Z" />
<path fill="#404040" opacity="1.00" d=" M 24.97 51.02 C 25.50 51.01 26.56 51.00 27.09 51.00 C 27.83 50.99 29.31 50.98 30.04 50.97 C 30.51 53.65 27.60 52.92 25.91 53.27 C 25.67 52.71 25.20 51.58 24.97 51.02 Z" />
</g>
<g id="#141414fb">
<path fill="#141414" opacity="1.00" d=" M 18.11 54.04 C 22.15 54.30 26.17 54.95 30.22 54.89 C 34.24 55.03 38.27 54.94 42.25 54.23 C 42.72 54.17 43.66 54.07 44.12 54.01 C 44.79 54.04 46.12 54.09 46.78 54.12 C 47.58 54.67 48.38 55.22 49.19 55.77 C 47.54 57.43 45.10 56.94 43.00 57.03 C 35.69 56.96 28.38 57.04 21.07 56.91 L 20.28 56.73 C 18.86 56.35 17.42 56.06 15.99 55.74 C 16.69 55.16 17.40 54.59 18.11 54.04 Z" />
</g>
<g id="#0c0c0c8d">
<path fill="#0c0c0c" opacity="0.55" d=" M 21.07 56.91 C 28.38 57.04 35.69 56.96 43.00 57.03 L 43.00 57.99 C 35.66 57.99 28.32 58.15 20.99 57.93 L 21.07 56.91 Z" />
</g>
</svg>
