<?xml version="1.0" encoding="UTF-8" ?>
<!DOCTYPE svg PUBLIC "-//W3C//DTD SVG 1.1//EN" "http://www.w3.org/Graphics/SVG/1.1/DTD/svg11.dtd">
<svg width="64pt" height="64pt" viewBox="0 0 64 64" version="1.1" xmlns="http://www.w3.org/2000/svg">
<g id="#0d0d0df8">
<path fill="#0d0d0d" opacity="0.97" d=" M 13.98 6.06 C 17.73 3.87 22.31 2.59 26.62 3.49 C 30.56 5.24 31.41 10.14 31.81 13.98 C 31.98 18.70 32.38 23.88 29.90 28.12 C 31.95 20.78 32.22 12.76 29.20 5.64 C 27.91 5.22 26.63 4.81 25.35 4.39 C 21.47 3.98 17.51 4.25 13.98 6.06 Z" />
<path fill="#0d0d0d" opacity="0.97" d=" M 51.29 6.29 C 52.03 6.26 53.51 6.21 54.24 6.18 C 54.55 15.14 54.42 24.11 54.35 33.07 C 54.06 39.21 43.73 40.51 41.61 34.97 C 41.32 33.03 42.72 29.71 45.04 30.23 C 44.54 31.35 44.21 32.54 43.94 33.74 C 45.74 33.63 47.55 33.52 49.36 33.44 C 49.53 32.46 49.71 31.48 49.88 30.50 C 48.60 30.24 47.31 30.02 46.02 29.85 L 45.47 29.34 C 47.26 28.53 49.24 28.82 51.13 28.78 C 51.32 21.28 51.05 13.78 51.29 6.29 Z" />
<path fill="#0d0d0d" opacity="0.97" d=" M 35.23 15.99 C 35.99 15.92 37.52 15.80 38.28 15.74 C 38.48 24.82 38.49 33.92 38.32 42.99 C 37.71 48.30 30.19 49.40 26.65 46.35 C 24.57 44.42 25.80 41.22 27.86 39.83 C 29.85 37.97 32.72 38.41 35.21 38.39 C 35.20 30.92 35.16 23.45 35.23 15.99 M 28.16 43.59 C 29.26 43.60 30.37 43.61 31.47 43.62 L 31.63 42.78 C 32.92 42.37 34.14 41.81 35.30 41.11 C 32.81 38.62 27.15 39.16 28.16 43.59 Z" />
<path fill="#0d0d0d" opacity="0.97" d=" M 57.75 25.51 C 58.53 25.53 60.09 25.59 60.87 25.62 C 60.62 34.73 61.05 43.85 60.67 52.95 C 59.71 58.00 52.48 58.95 49.01 55.94 C 47.25 54.15 48.01 51.14 49.88 49.74 C 51.93 47.70 54.99 47.95 57.64 47.82 C 57.64 40.38 57.40 32.93 57.75 25.51 M 49.81 52.50 C 51.68 52.61 53.56 52.62 55.43 52.64 C 55.57 51.48 55.71 50.33 55.84 49.18 C 53.30 49.04 50.38 49.46 49.81 52.50 Z" />
</g>
<g id="#b8b8b8ff">
<path fill="#b8b8b8" opacity="1.00" d=" M 13.98 6.06 C 17.51 4.25 21.47 3.98 25.35 4.39 C 26.63 4.81 27.91 5.22 29.20 5.64 C 32.22 12.76 31.95 20.78 29.90 28.12 C 28.79 31.36 24.87 32.51 21.93 31.10 C 19.46 29.84 18.03 27.32 15.91 25.61 C 13.78 24.78 12.54 27.13 12.73 28.92 C 12.50 38.94 12.78 48.97 12.56 58.99 C 12.71 60.34 10.94 60.35 10.06 60.60 C 7.88 61.05 5.68 60.52 3.54 60.14 C 3.19 49.76 3.53 39.38 3.40 29.00 C 3.29 25.20 3.66 21.38 4.75 17.73 L 5.47 18.73 C 5.04 32.36 4.69 46.07 5.39 59.68 C 6.74 53.34 5.46 46.65 5.99 40.17 C 6.91 40.29 8.74 40.54 9.66 40.66 C 10.43 36.56 10.11 32.32 11.09 28.26 C 11.95 25.93 13.93 22.78 16.85 23.63 C 18.75 25.04 20.46 26.67 22.26 28.21 C 23.92 20.91 23.98 13.29 22.28 5.99 C 20.60 6.65 19.02 7.51 17.52 8.51 C 13.31 7.86 10.77 11.44 7.88 13.80 C 7.86 13.40 7.81 12.61 7.78 12.22 C 8.71 9.48 11.62 7.67 13.98 6.06 Z" />
<path fill="#b8b8b8" opacity="1.00" d=" M 45.04 30.23 L 46.02 29.85 C 47.31 30.02 48.60 30.24 49.88 30.50 C 49.71 31.48 49.53 32.46 49.36 33.44 C 47.55 33.52 45.74 33.63 43.94 33.74 C 44.21 32.54 44.54 31.35 45.04 30.23 Z" />
<path fill="#b8b8b8" opacity="1.00" d=" M 28.16 43.59 C 27.15 39.16 32.81 38.62 35.30 41.11 C 34.14 41.81 32.92 42.37 31.63 42.78 L 31.47 43.62 C 30.37 43.61 29.26 43.60 28.16 43.59 Z" />
<path fill="#b8b8b8" opacity="1.00" d=" M 49.81 52.50 C 50.38 49.46 53.30 49.04 55.84 49.18 C 55.71 50.33 55.57 51.48 55.43 52.64 C 53.56 52.62 51.68 52.61 49.81 52.50 Z" />
</g>
<g id="#f3f3f3ff">
<path fill="#f3f3f3" opacity="1.00" d=" M 17.52 8.51 C 19.02 7.51 20.60 6.65 22.28 5.99 C 23.98 13.29 23.92 20.91 22.26 28.21 C 20.46 26.67 18.75 25.04 16.85 23.63 C 13.93 22.78 11.95 25.93 11.09 28.26 C 10.11 32.32 10.43 36.56 9.66 40.66 C 8.74 40.54 6.91 40.29 5.99 40.17 C 5.46 46.65 6.74 53.34 5.39 59.68 C 4.69 46.07 5.04 32.36 5.47 18.73 C 5.45 17.93 5.41 16.33 5.39 15.52 L 6.25 15.52 C 6.51 14.35 6.61 12.87 7.78 12.22 C 7.81 12.61 7.86 13.40 7.88 13.80 C 10.77 11.44 13.31 7.86 17.52 8.51 Z" />
</g>
</svg>
