<?xml version="1.0" encoding="UTF-8" ?>
<!DOCTYPE svg PUBLIC "-//W3C//DTD SVG 1.1//EN" "http://www.w3.org/Graphics/SVG/1.1/DTD/svg11.dtd">
<svg width="64pt" height="64pt" viewBox="0 0 64 64" version="1.1" xmlns="http://www.w3.org/2000/svg">
<g id="#cc1e03ff">
<path fill="#cc1e03" opacity="1.00" d=" M 24.08 4.26 C 35.33 0.85 48.40 5.33 55.22 14.89 C 60.35 21.66 61.93 30.70 60.03 38.92 C 58.24 37.66 56.23 36.78 54.18 36.05 C 54.32 32.14 55.11 27.93 53.18 24.31 C 54.81 25.42 55.17 28.17 57.50 28.08 C 55.95 14.71 42.30 4.47 29.05 6.34 C 17.66 7.49 7.34 17.15 6.54 28.75 C 9.43 29.28 8.50 25.10 10.83 24.30 C 6.97 34.24 11.71 46.71 21.23 51.64 C 27.20 55.00 34.67 55.26 40.94 52.58 C 41.88 54.55 43.06 56.40 44.52 58.02 C 36.39 61.72 26.55 61.77 18.64 57.48 C 8.34 52.29 1.99 40.42 3.34 28.98 C 4.33 17.50 12.98 7.27 24.08 4.26 Z" />
<path fill="#cc1e03" opacity="1.00" d=" M 12.81 29.74 C 14.89 28.53 17.31 28.38 19.66 28.32 C 18.51 32.54 19.44 37.30 22.45 40.54 C 26.25 44.95 33.83 46.53 38.49 42.61 C 38.74 45.04 39.22 47.45 39.82 49.81 C 34.38 51.63 28.21 51.86 23.08 49.00 C 16.09 45.48 12.08 37.46 12.81 29.74 Z" />
<path fill="#cc1e03" opacity="1.00" d=" M 27.49 40.45 C 22.87 38.19 21.09 31.98 23.48 27.49 C 26.09 27.49 28.71 27.36 31.32 27.39 L 32.01 28.55 C 30.28 29.02 28.82 30.17 28.66 32.05 C 28.89 34.13 31.14 36.17 33.07 34.51 C 34.89 35.95 36.70 37.39 38.58 38.75 L 38.40 39.84 C 35.07 41.52 30.90 42.43 27.49 40.45 Z" />
<path fill="#cc1e03" opacity="1.00" d=" M 32.35 27.29 C 35.07 27.41 37.80 27.49 40.52 27.50 C 41.89 30.26 41.93 33.52 40.54 36.28 C 38.60 34.35 36.99 32.07 34.87 30.33 C 34.23 29.93 32.95 29.12 32.31 28.72 L 32.35 27.29 Z" />
<path fill="#cc1e03" opacity="1.00" d=" M 44.34 28.34 C 46.69 28.37 49.09 28.54 51.19 29.72 C 51.22 31.63 51.15 33.54 51.09 35.45 C 48.87 35.28 46.63 35.33 44.41 35.42 C 44.87 33.08 44.94 30.67 44.34 28.34 Z" />
</g>
<g id="#fc7671ff">
<path fill="#fc7671" opacity="1.00" d=" M 6.54 28.75 C 7.34 17.15 17.66 7.49 29.05 6.34 C 42.30 4.47 55.95 14.71 57.50 28.08 C 55.17 28.17 54.81 25.42 53.18 24.31 C 49.81 15.78 41.33 9.22 31.97 9.48 C 22.64 9.25 14.19 15.79 10.83 24.30 C 8.50 25.10 9.43 29.28 6.54 28.75 Z" />
<path fill="#fc7671" opacity="1.00" d=" M 17.15 19.81 C 24.28 10.65 39.67 10.64 46.82 19.77 C 44.43 20.39 42.04 21.02 39.66 21.65 C 35.10 18.48 28.86 18.49 24.31 21.67 C 21.92 21.06 19.54 20.43 17.15 19.81 Z" />
</g>
<g id="#ffffffff">
<path fill="#ffffff" opacity="1.00" d=" M 10.83 24.30 C 14.19 15.79 22.64 9.25 31.97 9.48 C 41.33 9.22 49.81 15.78 53.18 24.31 C 55.11 27.93 54.32 32.14 54.18 36.05 C 53.15 35.82 52.13 35.62 51.09 35.45 C 51.15 33.54 51.22 31.63 51.19 29.72 C 50.65 26.07 49.06 22.68 46.82 19.77 C 39.67 10.64 24.28 10.65 17.15 19.81 C 14.92 22.71 13.34 26.10 12.81 29.74 C 12.08 37.46 16.09 45.48 23.08 49.00 C 28.21 51.86 34.38 51.63 39.82 49.81 C 40.17 50.75 40.54 51.67 40.94 52.58 C 34.67 55.26 27.20 55.00 21.23 51.64 C 11.71 46.71 6.97 34.24 10.83 24.30 Z" />
<path fill="#ffffff" opacity="1.00" d=" M 24.31 21.67 C 28.86 18.49 35.10 18.48 39.66 21.65 C 41.84 23.38 43.39 25.74 44.34 28.34 C 44.94 30.67 44.87 33.08 44.41 35.42 C 43.09 35.57 41.82 35.95 40.54 36.28 C 41.93 33.52 41.89 30.26 40.52 27.50 C 37.28 20.85 26.73 20.84 23.48 27.49 C 21.09 31.98 22.87 38.19 27.49 40.45 C 30.90 42.43 35.07 41.52 38.40 39.84 C 38.42 40.54 38.47 41.92 38.49 42.61 C 33.83 46.53 26.25 44.95 22.45 40.54 C 19.44 37.30 18.51 32.54 19.66 28.32 C 20.62 25.74 22.15 23.40 24.31 21.67 Z" />
<path fill="#ffffff" opacity="1.00" d=" M 28.66 32.05 C 28.82 30.17 30.28 29.02 32.01 28.55 C 32.09 28.60 32.24 28.68 32.31 28.72 C 32.95 29.12 34.23 29.93 34.87 30.33 L 33.01 30.25 C 32.60 30.23 31.80 30.20 31.39 30.18 C 31.58 31.06 31.96 32.82 32.15 33.70 C 32.38 33.91 32.84 34.31 33.07 34.51 C 31.14 36.17 28.89 34.13 28.66 32.05 Z" />
</g>
<g id="#f35b54ff">
<path fill="#f35b54" opacity="1.00" d=" M 12.81 29.74 C 13.34 26.10 14.92 22.71 17.15 19.81 C 19.54 20.43 21.92 21.06 24.31 21.67 C 22.15 23.40 20.62 25.74 19.66 28.32 C 17.31 28.38 14.89 28.53 12.81 29.74 Z" />
<path fill="#f35b54" opacity="1.00" d=" M 46.82 19.77 C 49.06 22.68 50.65 26.07 51.19 29.72 C 49.09 28.54 46.69 28.37 44.34 28.34 C 43.39 25.74 41.84 23.38 39.66 21.65 C 42.04 21.02 44.43 20.39 46.82 19.77 Z" />
<path fill="#f35b54" opacity="1.00" d=" M 23.48 27.49 C 26.73 20.84 37.28 20.85 40.52 27.50 C 37.80 27.49 35.07 27.41 32.35 27.29 L 32.31 28.72 C 32.24 28.68 32.09 28.60 32.01 28.55 L 31.32 27.39 C 28.71 27.36 26.09 27.49 23.48 27.49 Z" />
</g>
<g id="#0669f7fe">
<path fill="#0669f7" opacity="1.00" d=" M 31.39 30.18 C 31.80 30.20 32.60 30.23 33.01 30.25 C 33.45 31.30 33.54 32.62 34.57 33.31 C 41.94 39.61 48.82 46.60 56.95 51.95 L 57.90 52.62 C 56.73 54.77 56.92 57.48 55.31 59.39 C 52.03 62.04 47.26 60.85 44.52 58.02 C 43.06 56.40 41.88 54.55 40.94 52.58 C 40.54 51.67 40.17 50.75 39.82 49.81 C 39.22 47.45 38.74 45.04 38.49 42.61 C 38.47 41.92 38.42 40.54 38.40 39.84 L 38.58 38.75 C 36.70 37.39 34.89 35.95 33.07 34.51 C 32.84 34.31 32.38 33.91 32.15 33.70 C 31.96 32.82 31.58 31.06 31.39 30.18 M 42.24 42.80 C 42.25 45.34 42.44 47.87 42.73 50.39 C 44.22 50.58 45.72 50.61 47.21 50.54 C 47.83 52.83 48.37 55.21 49.87 57.12 C 52.14 55.69 54.10 51.76 51.09 50.00 C 47.90 47.89 45.49 44.81 42.24 42.80 Z" />
<path fill="#0669f7" opacity="1.00" d=" M 40.54 36.28 C 41.82 35.95 43.09 35.57 44.41 35.42 C 46.63 35.33 48.87 35.28 51.09 35.45 C 52.13 35.62 53.15 35.82 54.18 36.05 C 56.23 36.78 58.24 37.66 60.03 38.92 L 60.85 39.71 C 54.98 37.51 48.57 36.52 42.41 38.20 C 41.76 37.58 41.14 36.95 40.54 36.28 Z" />
</g>
<g id="#59b4fcff">
<path fill="#59b4fc" opacity="1.00" d=" M 33.01 30.25 L 34.87 30.33 C 36.99 32.07 38.60 34.35 40.54 36.28 C 41.14 36.95 41.76 37.58 42.41 38.20 C 42.82 38.52 43.64 39.17 44.05 39.50 C 47.84 39.25 51.89 37.97 55.54 39.54 C 57.61 41.58 59.12 44.10 60.72 46.51 C 59.32 47.89 57.77 49.11 56.13 50.20 C 56.34 50.64 56.75 51.52 56.95 51.95 C 48.82 46.60 41.94 39.61 34.57 33.31 C 33.54 32.62 33.45 31.30 33.01 30.25 Z" />
<path fill="#59b4fc" opacity="1.00" d=" M 42.24 42.80 C 45.49 44.81 47.90 47.89 51.09 50.00 C 54.10 51.76 52.14 55.69 49.87 57.12 C 48.37 55.21 47.83 52.83 47.21 50.54 C 45.72 50.61 44.22 50.58 42.73 50.39 C 42.44 47.87 42.25 45.34 42.24 42.80 Z" />
</g>
<g id="#04aefcff">
<path fill="#04aefc" opacity="1.00" d=" M 42.41 38.20 C 48.57 36.52 54.98 37.51 60.85 39.71 C 62.85 41.54 64.26 44.19 63.90 46.96 C 63.91 50.27 60.17 51.16 57.90 52.62 L 56.95 51.95 C 56.75 51.52 56.34 50.64 56.13 50.20 C 57.77 49.11 59.32 47.89 60.72 46.51 C 59.12 44.10 57.61 41.58 55.54 39.54 C 51.89 37.97 47.84 39.25 44.05 39.50 C 43.64 39.17 42.82 38.52 42.41 38.20 Z" />
</g>
</svg>
