<?xml version="1.0" encoding="UTF-8" ?>
<!DOCTYPE svg PUBLIC "-//W3C//DTD SVG 1.1//EN" "http://www.w3.org/Graphics/SVG/1.1/DTD/svg11.dtd">
<svg width="64pt" height="64pt" viewBox="0 0 64 64" version="1.1" xmlns="http://www.w3.org/2000/svg">
<g id="#6284a4ff">
<path fill="#6284a4" opacity="1.00" d=" M 12.52 3.64 C 24.34 2.95 36.23 3.53 48.07 3.34 C 54.51 2.85 60.78 8.42 60.66 14.95 C 60.73 26.32 60.65 37.70 60.62 49.07 C 60.76 55.19 55.14 60.80 49.03 60.63 C 37.65 60.66 26.28 60.68 14.91 60.62 C 8.78 60.78 3.19 55.11 3.38 48.99 C 3.35 37.63 3.27 26.26 3.34 14.90 C 3.28 9.61 7.45 4.81 12.52 3.64 M 6.35 13.54 C 6.20 13.69 5.88 13.97 5.72 14.11 C 5.93 17.90 6.07 21.71 6.69 25.47 C 7.64 28.18 10.50 29.53 13.20 29.82 C 13.28 35.22 13.26 40.61 13.23 46.01 C 17.21 43.84 21.24 41.76 25.17 39.50 C 25.20 42.15 24.81 45.90 28.01 46.92 C 32.61 47.59 37.31 47.06 41.96 47.23 C 44.21 47.51 47.01 46.40 47.44 43.96 C 47.66 40.00 47.61 36.03 47.51 32.07 C 47.54 30.11 45.55 29.16 44.34 27.97 C 44.99 27.88 46.28 27.70 46.93 27.60 C 47.65 28.67 48.36 29.74 49.07 30.82 C 52.60 29.90 57.43 28.25 57.56 23.89 C 57.50 20.54 59.09 16.80 57.65 13.68 C 56.38 10.74 54.46 7.76 51.25 6.73 C 46.93 5.54 42.40 6.13 37.99 6.15 C 30.32 6.09 22.63 5.95 14.97 6.27 C 10.79 6.45 7.87 9.97 6.35 13.54 Z" />
<path fill="#6284a4" opacity="1.00" d=" M 22.19 19.52 C 22.15 16.01 25.75 13.70 28.99 13.97 C 31.90 14.31 34.83 16.57 34.69 19.73 C 33.21 17.06 30.25 14.66 27.02 15.60 C 24.82 16.00 23.46 17.87 22.19 19.52 Z" />
<path fill="#6284a4" opacity="1.00" d=" M 38.18 19.53 C 38.07 13.05 49.14 11.83 50.10 18.41 C 48.32 16.76 46.10 14.94 43.50 15.49 C 41.10 15.78 39.51 17.71 38.18 19.53 Z" />
<path fill="#6284a4" opacity="1.00" d=" M 29.42 28.10 C 30.13 27.78 31.55 27.14 32.27 26.82 C 34.80 26.54 37.36 26.44 39.91 26.59 C 40.78 26.96 42.54 27.68 43.42 28.05 C 38.75 28.22 34.08 28.18 29.42 28.10 Z" />
<path fill="#6284a4" opacity="1.00" d=" M 23.09 32.56 C 23.98 30.92 24.85 29.28 25.83 27.69 C 26.44 27.72 27.66 27.78 28.27 27.81 C 25.57 29.72 24.76 32.78 25.16 35.97 C 21.51 34.01 17.88 32.00 14.22 30.07 L 12.73 27.60 C 16.27 29.07 19.69 30.79 23.09 32.56 Z" />
</g>
<g id="#ffffffff">
<path fill="#ffffff" opacity="1.00" d=" M 6.35 13.54 C 7.87 9.97 10.79 6.45 14.97 6.27 C 22.63 5.95 30.32 6.09 37.99 6.15 C 42.40 6.13 46.93 5.54 51.25 6.73 C 54.46 7.76 56.38 10.74 57.65 13.68 C 55.05 10.94 52.11 7.88 48.06 7.79 C 39.73 7.42 31.38 7.81 23.04 7.64 C 19.33 7.71 15.37 7.23 11.91 8.87 C 9.82 10.13 8.12 11.89 6.35 13.54 Z" />
<path fill="#ffffff" opacity="1.00" d=" M 43.50 15.49 C 46.10 14.94 48.32 16.76 50.10 18.41 C 51.45 21.88 50.23 25.77 46.93 27.60 C 46.28 27.70 44.99 27.88 44.34 27.97 C 45.55 29.16 47.54 30.11 47.51 32.07 C 47.61 36.03 47.66 40.00 47.44 43.96 C 47.01 46.40 44.21 47.51 41.96 47.23 C 37.31 47.06 32.61 47.59 28.01 46.92 C 24.81 45.90 25.20 42.15 25.17 39.50 C 21.24 41.76 17.21 43.84 13.23 46.01 C 13.26 40.61 13.28 35.22 13.20 29.82 L 14.22 30.07 C 17.88 32.00 21.51 34.01 25.16 35.97 C 24.76 32.78 25.57 29.72 28.27 27.81 C 27.66 27.78 26.44 27.72 25.83 27.69 C 23.12 25.88 21.51 22.80 22.19 19.52 C 23.46 17.87 24.82 16.00 27.02 15.60 C 30.25 14.66 33.21 17.06 34.69 19.73 C 35.02 22.35 34.12 24.95 32.27 26.82 C 31.55 27.14 30.13 27.78 29.42 28.10 C 34.08 28.18 38.75 28.22 43.42 28.05 C 42.54 27.68 40.78 26.96 39.91 26.59 C 38.77 24.42 37.73 22.05 38.18 19.53 C 39.51 17.71 41.10 15.78 43.50 15.49 Z" />
</g>
<g id="#9cb8d3ff">
<path fill="#9cb8d3" opacity="1.00" d=" M 11.91 8.87 C 15.37 7.23 19.33 7.71 23.04 7.64 C 31.38 7.81 39.73 7.42 48.06 7.79 C 52.11 7.88 55.05 10.94 57.65 13.68 C 59.09 16.80 57.50 20.54 57.56 23.89 C 57.43 28.25 52.60 29.90 49.07 30.82 C 48.36 29.74 47.65 28.67 46.93 27.60 C 50.23 25.77 51.45 21.88 50.10 18.41 C 49.14 11.83 38.07 13.05 38.18 19.53 C 37.73 22.05 38.77 24.42 39.91 26.59 C 37.36 26.44 34.80 26.54 32.27 26.82 C 34.12 24.95 35.02 22.35 34.69 19.73 C 34.83 16.57 31.90 14.31 28.99 13.97 C 25.75 13.70 22.15 16.01 22.19 19.52 C 21.51 22.80 23.12 25.88 25.83 27.69 C 24.85 29.28 23.98 30.92 23.09 32.56 C 19.69 30.79 16.27 29.07 12.73 27.60 L 14.22 30.07 L 13.20 29.82 C 10.50 29.53 7.64 28.18 6.69 25.47 C 6.07 21.71 5.93 17.90 5.72 14.11 C 5.88 13.97 6.20 13.69 6.35 13.54 C 8.12 11.89 9.82 10.13 11.91 8.87 Z" />
</g>
</svg>
