<?xml version="1.0" encoding="UTF-8" ?>
<!DOCTYPE svg PUBLIC "-//W3C//DTD SVG 1.1//EN" "http://www.w3.org/Graphics/SVG/1.1/DTD/svg11.dtd">
<svg width="64pt" height="64pt" viewBox="0 0 64 64" version="1.1" xmlns="http://www.w3.org/2000/svg">
<g id="#d9d9d9ff">
<path fill="#d9d9d9" opacity="1.00" d=" M 38.79 6.88 C 39.23 4.66 41.65 3.62 43.70 4.30 L 43.58 4.70 C 41.01 7.32 42.65 12.01 39.77 14.06 C 39.33 11.69 38.57 9.32 38.79 6.88 Z" />
<path fill="#d9d9d9" opacity="1.00" d=" M 49.94 15.20 C 49.19 11.36 47.51 4.46 53.53 4.38 C 52.52 7.96 51.41 11.60 51.79 15.37 C 51.33 15.33 50.40 15.24 49.94 15.20 Z" />
</g>
<g id="#cecfcffc">
<path fill="#cecfcf" opacity="1.00" d=" M 29.46 15.28 C 28.63 11.35 26.92 4.79 32.82 4.22 C 32.55 7.92 31.59 11.55 31.63 15.27 C 31.08 15.28 30.00 15.28 29.46 15.28 Z" />
</g>
<g id="#969696ff">
<path fill="#969696" opacity="1.00" d=" M 32.82 4.22 C 33.65 4.80 34.47 5.40 35.28 6.00 C 35.40 8.94 35.21 11.89 34.91 14.82 L 34.05 15.27 C 33.44 15.27 32.23 15.27 31.63 15.27 C 31.59 11.55 32.55 7.92 32.82 4.22 Z" />
</g>
<g id="#9b9a9aff">
<path fill="#9b9a9a" opacity="1.00" d=" M 39.77 14.06 C 42.65 12.01 41.01 7.32 43.58 4.70 C 46.97 6.52 44.84 10.73 44.66 13.69 C 42.95 13.85 41.24 14.02 39.54 14.22 L 39.77 14.06 Z" />
<path fill="#9b9a9a" opacity="1.00" d=" M 40.07 16.57 C 41.42 16.32 42.74 16.44 44.04 16.96 L 44.01 17.36 C 42.94 17.90 40.10 18.23 40.07 16.57 Z" />
</g>
<g id="#a4a5a5fe">
<path fill="#a4a5a5" opacity="1.00" d=" M 53.53 4.38 C 54.00 4.69 54.95 5.32 55.43 5.63 C 54.63 8.81 54.29 12.08 54.16 15.35 C 53.57 15.35 52.38 15.36 51.79 15.37 C 51.41 11.60 52.52 7.96 53.53 4.38 Z" />
</g>
<g id="#393939a5">
<path fill="#393939" opacity="0.65" d=" M 35.28 6.00 C 36.60 8.66 36.40 12.36 34.91 14.82 C 35.21 11.89 35.40 8.94 35.28 6.00 Z" />
</g>
<g id="#737474ff">
<path fill="#737474" opacity="1.00" d=" M 55.43 5.63 C 57.46 8.51 56.16 12.15 55.46 15.25 L 54.16 15.35 C 54.29 12.08 54.63 8.81 55.43 5.63 Z" />
<path fill="#737474" opacity="1.00" d=" M 19.05 25.00 C 21.24 24.99 23.43 25.17 25.61 25.36 C 26.32 27.50 26.99 29.65 27.61 31.82 C 24.17 34.71 22.44 39.17 18.66 41.68 C 15.86 43.55 13.67 46.09 11.40 48.53 C 9.40 50.99 5.38 49.10 4.38 46.57 C 3.28 43.39 3.60 39.95 3.71 36.65 C 4.24 35.13 5.08 33.76 5.92 32.40 C 5.46 36.44 2.93 41.56 6.80 44.63 C 10.34 42.56 14.21 41.19 17.99 39.66 C 20.64 38.60 21.65 35.67 22.79 33.30 C 23.40 32.10 23.29 30.72 22.89 29.47 C 21.91 27.75 20.46 26.36 19.05 25.00 Z" />
</g>
<g id="#ac2323ff">
<path fill="#ac2323" opacity="1.00" d=" M 39.54 14.22 C 41.24 14.02 42.95 13.85 44.66 13.69 C 44.50 14.50 44.19 16.14 44.04 16.96 C 42.74 16.44 41.42 16.32 40.07 16.57 C 39.94 15.98 39.67 14.81 39.54 14.22 Z" />
</g>
<g id="#ae2f2fff">
<path fill="#ae2f2f" opacity="1.00" d=" M 29.46 15.28 C 30.00 15.28 31.08 15.28 31.63 15.27 C 32.23 15.27 33.44 15.27 34.05 15.27 L 34.35 16.13 L 34.45 17.39 C 32.93 17.20 31.40 17.04 29.87 16.90 C 29.77 16.50 29.56 15.68 29.46 15.28 Z" />
</g>
<g id="#a82d2df7">
<path fill="#a82d2d" opacity="0.97" d=" M 49.94 15.20 C 50.40 15.24 51.33 15.33 51.79 15.37 C 52.38 15.36 53.57 15.35 54.16 15.35 L 55.46 15.25 C 55.47 15.87 55.48 17.10 55.48 17.72 C 53.78 17.44 52.07 17.19 50.37 16.87 C 50.26 16.46 50.05 15.62 49.94 15.20 Z" />
</g>
<g id="#afa2a2ff">
<path fill="#afa2a2" opacity="1.00" d=" M 29.87 16.90 C 31.40 17.04 32.93 17.20 34.45 17.39 L 35.24 17.59 L 34.23 18.55 C 32.75 18.79 31.26 18.99 29.77 19.15 C 29.79 18.59 29.84 17.46 29.87 16.90 Z" />
</g>
<g id="#bab9b9ff">
<path fill="#bab9b9" opacity="1.00" d=" M 50.37 16.87 C 52.07 17.19 53.78 17.44 55.48 17.72 C 55.09 18.04 54.30 18.69 53.91 19.01 C 52.78 19.00 51.64 19.00 50.51 19.02 C 50.47 18.49 50.40 17.41 50.37 16.87 Z" />
<path fill="#bab9b9" opacity="1.00" d=" M 29.66 20.59 C 30.56 20.64 32.34 20.74 33.23 20.79 C 32.90 22.90 32.67 25.03 32.44 27.15 C 32.16 26.96 31.61 26.57 31.33 26.38 C 30.28 25.85 29.21 25.37 28.13 24.92 C 28.65 23.48 29.15 22.03 29.66 20.59 Z" />
</g>
<g id="#af2626ff">
<path fill="#af2626" opacity="1.00" d=" M 29.77 19.15 C 31.26 18.99 32.75 18.79 34.23 18.55 C 34.38 19.11 34.69 20.21 34.84 20.76 L 33.23 20.79 C 32.34 20.74 30.56 20.64 29.66 20.59 C 29.69 20.23 29.74 19.51 29.77 19.15 Z" />
</g>
<g id="#dededeff">
<path fill="#dedede" opacity="1.00" d=" M 36.95 25.96 C 38.31 23.35 38.76 20.11 40.89 18.01 C 41.78 22.68 40.74 27.34 39.73 31.89 C 38.95 29.85 38.01 27.87 36.95 25.96 Z" />
</g>
<g id="#a5a6a6ff">
<path fill="#a5a6a6" opacity="1.00" d=" M 40.89 18.01 C 41.84 18.12 43.74 18.35 44.69 18.47 C 44.64 18.83 44.54 19.56 44.49 19.92 C 43.82 23.10 44.32 26.33 44.21 29.53 C 43.65 32.80 41.66 35.56 40.06 38.39 L 39.93 37.31 C 39.79 35.51 39.73 33.70 39.73 31.89 C 40.74 27.34 41.78 22.68 40.89 18.01 Z" />
</g>
<g id="#828282ff">
<path fill="#828282" opacity="1.00" d=" M 50.51 19.02 C 51.64 19.00 52.78 19.00 53.91 19.01 L 55.22 19.41 C 55.89 24.53 59.61 28.74 59.80 33.97 C 59.97 39.64 58.13 45.10 56.22 50.36 C 54.03 50.42 51.84 50.43 49.66 50.41 C 48.71 48.29 47.75 46.16 47.29 43.87 C 49.88 41.40 51.73 38.25 53.21 35.02 C 53.93 30.46 53.56 25.79 53.53 21.18 C 53.09 21.13 52.21 21.03 51.77 20.98 C 51.37 20.95 50.57 20.90 50.18 20.88 C 50.26 20.42 50.42 19.49 50.51 19.02 Z" />
</g>
<g id="#898989ff">
<path fill="#898989" opacity="1.00" d=" M 33.23 20.79 L 34.84 20.76 C 35.36 22.56 36.01 24.33 36.95 25.96 C 38.01 27.87 38.95 29.85 39.73 31.89 C 39.73 33.70 39.79 35.51 39.93 37.31 C 39.13 35.22 38.10 33.21 36.94 31.30 C 35.58 29.77 34.05 28.41 32.44 27.15 C 32.67 25.03 32.90 22.90 33.23 20.79 Z" />
</g>
<g id="#808080ff">
<path fill="#808080" opacity="1.00" d=" M 44.49 19.92 C 45.73 22.20 46.79 24.57 47.78 26.96 C 46.30 30.21 45.25 33.76 45.96 37.36 C 46.24 38.65 46.57 39.94 46.83 41.24 C 46.65 42.07 46.28 43.71 46.10 44.54 C 44.31 44.84 42.52 45.21 40.74 45.61 C 40.54 43.20 40.32 40.79 40.06 38.39 C 41.66 35.56 43.65 32.80 44.21 29.53 C 44.32 26.33 43.82 23.10 44.49 19.92 Z" />
</g>
<g id="#e3e3e3ff">
<path fill="#e3e3e3" opacity="1.00" d=" M 50.18 20.88 C 50.57 20.90 51.37 20.95 51.77 20.98 C 50.30 26.49 51.36 32.65 48.14 37.63 C 47.60 37.56 46.51 37.43 45.96 37.36 C 45.25 33.76 46.30 30.21 47.78 26.96 C 48.63 24.96 49.43 22.93 50.18 20.88 Z" />
<path fill="#e3e3e3" opacity="1.00" d=" M 13.49 32.80 C 14.75 31.33 16.70 30.74 18.39 29.92 C 17.68 32.07 19.12 33.72 20.91 34.70 L 20.35 35.05 C 18.55 35.78 16.71 36.47 14.79 36.79 C 13.41 35.78 12.98 34.45 13.49 32.80 Z" />
</g>
<g id="#b7b7b7ff">
<path fill="#b7b7b7" opacity="1.00" d=" M 51.77 20.98 C 52.21 21.03 53.09 21.13 53.53 21.18 C 53.56 25.79 53.93 30.46 53.21 35.02 C 51.73 38.25 49.88 41.40 47.29 43.87 L 46.83 41.24 C 46.57 39.94 46.24 38.65 45.96 37.36 C 46.51 37.43 47.60 37.56 48.14 37.63 C 51.36 32.65 50.30 26.49 51.77 20.98 Z" />
</g>
<g id="#515151ff">
<path fill="#515151" opacity="1.00" d=" M 15.74 25.13 C 19.37 23.02 24.23 23.85 28.13 24.92 C 29.21 25.37 30.28 25.85 31.33 26.38 C 31.95 28.81 32.51 31.27 32.65 33.79 C 30.85 33.01 27.84 32.19 27.41 34.97 C 27.33 37.83 30.40 38.24 32.44 37.27 C 32.39 37.43 32.29 37.75 32.24 37.92 C 28.72 40.27 24.99 42.63 23.21 46.68 C 21.57 44.99 18.55 43.38 16.91 45.99 C 15.13 48.34 17.99 50.83 20.30 51.08 C 20.64 51.19 21.31 51.40 21.64 51.51 C 18.91 53.03 16.29 55.29 13.04 55.47 C 10.23 55.09 7.79 53.44 5.33 52.13 C 2.49 47.54 2.12 41.74 3.71 36.65 C 3.60 39.95 3.28 43.39 4.38 46.57 C 5.38 49.10 9.40 50.99 11.40 48.53 C 13.67 46.09 15.86 43.55 18.66 41.68 C 22.44 39.17 24.17 34.71 27.61 31.82 C 26.99 29.65 26.32 27.50 25.61 25.36 C 23.43 25.17 21.24 24.99 19.05 25.00 C 18.22 25.03 16.57 25.10 15.74 25.13 Z" />
</g>
<g id="#454646c8">
<path fill="#454646" opacity="0.78" d=" M 11.79 27.08 C 11.59 25.48 14.23 24.59 15.50 25.14 C 14.71 26.43 13.15 26.76 11.79 27.08 Z" />
</g>
<g id="#8e8e8eff">
<path fill="#8e8e8e" opacity="1.00" d=" M 15.50 25.14 L 15.74 25.13 C 16.57 25.10 18.22 25.03 19.05 25.00 C 20.46 26.36 21.91 27.75 22.89 29.47 C 22.32 29.36 21.19 29.14 20.63 29.03 C 17.70 28.67 14.04 27.29 11.62 29.70 C 9.12 31.72 8.01 34.82 7.12 37.80 C 10.32 38.42 13.62 39.07 16.89 38.57 C 18.75 38.40 19.24 36.23 20.35 35.05 L 20.91 34.70 C 21.38 34.35 22.32 33.65 22.79 33.30 C 21.65 35.67 20.64 38.60 17.99 39.66 C 14.21 41.19 10.34 42.56 6.80 44.63 C 2.93 41.56 5.46 36.44 5.92 32.40 C 7.40 30.24 9.20 27.89 11.79 27.08 C 13.15 26.76 14.71 26.43 15.50 25.14 Z" />
</g>
<g id="#353535ff">
<path fill="#353535" opacity="1.00" d=" M 31.33 26.38 C 31.61 26.57 32.16 26.96 32.44 27.15 C 34.05 28.41 35.58 29.77 36.94 31.30 C 36.93 36.40 36.86 42.09 33.14 46.07 C 29.81 49.51 25.49 51.86 22.37 55.54 C 19.14 59.26 13.93 57.95 9.70 57.39 C 8.04 55.82 6.49 54.11 5.33 52.13 C 7.79 53.44 10.23 55.09 13.04 55.47 C 16.29 55.29 18.91 53.03 21.64 51.51 C 21.31 51.40 20.64 51.19 20.30 51.08 C 21.30 49.63 22.29 48.18 23.21 46.68 C 24.99 42.63 28.72 40.27 32.24 37.92 C 32.29 37.75 32.39 37.43 32.44 37.27 C 32.49 36.40 32.60 34.66 32.65 33.79 C 32.51 31.27 31.95 28.81 31.33 26.38 Z" />
</g>
<g id="#acacacff">
<path fill="#acacac" opacity="1.00" d=" M 11.62 29.70 C 14.04 27.29 17.70 28.67 20.63 29.03 C 20.07 29.25 18.95 29.69 18.39 29.92 C 16.70 30.74 14.75 31.33 13.49 32.80 C 12.98 34.45 13.41 35.78 14.79 36.79 C 16.71 36.47 18.55 35.78 20.35 35.05 C 19.24 36.23 18.75 38.40 16.89 38.57 C 13.62 39.07 10.32 38.42 7.12 37.80 C 8.01 34.82 9.12 31.72 11.62 29.70 Z" />
</g>
<g id="#060606ff">
<path fill="#060606" opacity="1.00" d=" M 18.39 29.92 C 18.95 29.69 20.07 29.25 20.63 29.03 C 21.19 29.14 22.32 29.36 22.89 29.47 C 23.29 30.72 23.40 32.10 22.79 33.30 C 22.32 33.65 21.38 34.35 20.91 34.70 C 19.12 33.72 17.68 32.07 18.39 29.92 Z" />
</g>
<g id="#1b1b1bff">
<path fill="#1b1b1b" opacity="1.00" d=" M 33.14 46.07 C 36.86 42.09 36.93 36.40 36.94 31.30 C 38.10 33.21 39.13 35.22 39.93 37.31 L 40.06 38.39 C 40.32 40.79 40.54 43.20 40.74 45.61 C 42.52 45.21 44.31 44.84 46.10 44.54 C 45.07 46.88 42.29 46.24 40.24 46.37 C 39.07 50.82 36.68 55.09 32.82 57.74 C 31.53 58.84 29.51 59.53 29.34 61.47 C 25.55 61.39 21.74 61.99 17.98 61.38 C 14.87 60.94 12.27 59.05 9.70 57.39 C 13.93 57.95 19.14 59.26 22.37 55.54 C 25.49 51.86 29.81 49.51 33.14 46.07 Z" />
</g>
<g id="#161616ff">
<path fill="#161616" opacity="1.00" d=" M 27.41 34.97 C 27.84 32.19 30.85 33.01 32.65 33.79 C 32.60 34.66 32.49 36.40 32.44 37.27 C 30.40 38.24 27.33 37.83 27.41 34.97 Z" />
</g>
<g id="#0e0e0eff">
<path fill="#0e0e0e" opacity="1.00" d=" M 16.91 45.99 C 18.55 43.38 21.57 44.99 23.21 46.68 C 22.29 48.18 21.30 49.63 20.30 51.08 C 17.99 50.83 15.13 48.34 16.91 45.99 Z" />
</g>
</svg>
