<?xml version="1.0" encoding="UTF-8" ?>
<!DOCTYPE svg PUBLIC "-//W3C//DTD SVG 1.1//EN" "http://www.w3.org/Graphics/SVG/1.1/DTD/svg11.dtd">
<svg width="64pt" height="64pt" viewBox="0 0 64 64" version="1.1" xmlns="http://www.w3.org/2000/svg">
<g id="#02e6b6ff">
<path fill="#02e6b6" opacity="1.00" d=" M 35.44 0.00 L 37.12 0.00 C 38.53 2.84 39.57 5.86 39.91 9.03 C 43.72 18.44 47.21 27.98 50.86 37.45 C 52.90 37.92 54.97 38.63 57.09 38.27 C 58.58 37.50 59.69 36.20 60.92 35.08 C 60.52 36.88 60.58 38.85 59.62 40.47 C 58.17 42.40 55.60 42.76 53.48 43.56 C 53.44 44.27 53.36 45.70 53.32 46.42 C 52.64 45.27 51.95 44.13 51.27 42.99 C 49.16 42.48 47.05 41.85 45.21 40.68 C 37.39 35.89 30.14 30.25 22.68 24.92 C 22.16 27.66 21.66 30.41 21.30 33.17 C 26.39 39.23 31.75 45.05 37.37 50.62 C 40.73 54.18 46.10 56.57 50.78 54.14 C 49.34 56.45 48.10 59.23 45.38 60.28 C 41.93 61.00 38.18 59.87 35.56 57.56 C 30.04 52.53 25.27 46.77 20.44 41.10 C 19.73 44.14 19.15 47.21 18.65 50.29 C 19.18 50.64 20.24 51.33 20.77 51.68 C 20.79 52.38 20.81 53.78 20.82 54.48 C 18.12 55.01 14.23 54.44 13.94 51.05 C 15.01 50.76 16.08 50.48 17.15 50.19 C 17.71 46.45 18.35 42.72 18.69 38.94 C 13.03 32.35 7.62 25.54 2.27 18.70 C 0.94 17.40 1.98 15.60 2.35 14.13 C 3.74 14.46 5.34 14.51 6.29 15.75 C 10.99 20.77 14.93 26.49 19.99 31.18 C 20.14 28.63 21.24 25.95 20.55 23.43 C 17.47 20.48 13.77 18.27 10.47 15.57 C 10.51 15.02 10.58 13.93 10.62 13.38 C 15.09 12.43 18.16 16.66 21.64 18.65 C 23.02 13.66 21.95 8.37 23.48 3.38 C 24.48 3.51 25.48 3.63 26.49 3.75 C 26.19 9.29 23.44 14.36 23.48 19.92 C 31.90 25.35 39.84 31.60 48.80 36.12 C 45.97 27.91 42.64 19.88 39.62 11.74 C 38.24 7.83 35.00 4.39 35.44 0.00 Z" />
<path fill="#02e6b6" opacity="1.00" d=" M 15.64 55.13 C 16.61 55.10 17.59 55.09 18.56 55.10 C 17.85 56.72 17.39 58.43 16.55 60.00 C 16.47 58.32 16.16 56.70 15.64 55.13 Z" />
</g>
</svg>
