<?xml version="1.0" encoding="UTF-8" ?>
<!DOCTYPE svg PUBLIC "-//W3C//DTD SVG 1.1//EN" "http://www.w3.org/Graphics/SVG/1.1/DTD/svg11.dtd">
<svg width="64pt" height="64pt" viewBox="0 0 64 64" version="1.1" xmlns="http://www.w3.org/2000/svg">
<g id="#ffffffff">
<path fill="#ffffff" opacity="1.00" d=" M 0.87 6.52 C 21.54 6.11 42.25 6.41 62.93 6.33 L 63.00 6.98 C 56.57 6.74 50.13 6.62 43.71 7.20 C 32.74 6.70 21.78 7.08 10.82 7.40 C 7.51 7.04 4.18 6.85 0.87 6.52 Z" />
<path fill="#ffffff" opacity="1.00" d=" M 8.38 15.73 C 10.26 17.04 12.26 18.78 14.73 18.43 C 16.88 18.27 18.46 16.64 19.94 15.26 C 20.67 20.35 20.17 25.45 19.23 30.48 C 18.50 30.25 17.78 30.01 17.06 29.78 C 17.36 26.95 18.61 24.39 19.74 21.83 C 19.10 20.12 16.96 21.19 15.61 20.98 C 13.06 19.61 10.19 20.44 7.49 20.64 C 7.62 19.35 7.89 16.76 8.02 15.46 L 8.38 15.73 Z" />
<path fill="#ffffff" opacity="1.00" d=" M 61.49 30.17 C 60.82 37.83 61.88 45.51 61.84 53.19 C 61.48 52.93 60.77 52.41 60.42 52.16 C 59.95 45.96 60.49 39.75 60.39 33.55 C 60.75 32.42 61.11 31.29 61.49 30.17 Z" />
<path fill="#ffffff" opacity="1.00" d=" M 2.55 35.01 C 2.95 36.14 3.35 37.27 3.71 38.40 C 3.64 42.69 3.88 46.98 3.70 51.26 C 3.35 51.60 2.63 52.27 2.28 52.60 C 2.21 46.74 2.73 40.88 2.55 35.01 Z" />
</g>
<g id="#a8a8a8ff">
<path fill="#a8a8a8" opacity="1.00" d=" M 0.87 6.52 C 4.18 6.85 7.51 7.04 10.82 7.40 C 8.35 8.46 5.71 9.14 3.01 8.95 C 2.75 8.60 2.25 7.92 2.00 7.57 C 2.23 15.49 1.14 23.71 3.94 31.30 C 3.97 33.67 3.85 36.04 3.71 38.40 C 3.35 37.27 2.95 36.14 2.55 35.01 C 2.73 40.88 2.21 46.74 2.28 52.60 C 1.99 52.86 1.40 53.38 1.11 53.64 C 0.85 37.93 1.20 22.22 0.87 6.52 Z" />
</g>
<g id="#656666ff">
<path fill="#656666" opacity="1.00" d=" M 10.82 7.40 C 21.78 7.08 32.74 6.70 43.71 7.20 C 49.35 8.31 55.04 9.87 60.84 9.18 C 60.70 9.33 60.42 9.62 60.28 9.77 C 50.20 10.30 40.13 9.35 30.05 9.54 C 21.26 9.52 12.47 10.27 3.69 9.91 C 3.52 9.67 3.18 9.19 3.01 8.95 C 5.71 9.14 8.35 8.46 10.82 7.40 Z" />
<path fill="#656666" opacity="1.00" d=" M 6.07 49.77 C 5.87 47.36 4.15 43.47 6.97 42.11 C 14.13 42.02 21.37 41.54 28.47 42.60 C 28.49 44.95 28.38 47.30 27.96 49.61 C 20.66 49.60 13.37 49.86 6.07 49.77 M 7.07 43.00 C 6.93 44.80 6.78 46.60 6.62 48.40 C 13.36 49.05 20.17 48.98 26.92 48.74 C 28.17 47.15 27.02 44.86 27.15 43.00 C 20.46 43.00 13.77 43.00 7.07 43.00 Z" />
</g>
<g id="#aaaaa9ff">
<path fill="#aaaaa9" opacity="1.00" d=" M 43.71 7.20 C 50.13 6.62 56.57 6.74 63.00 6.98 C 62.94 22.63 62.95 38.28 62.87 53.94 L 61.84 53.19 C 61.88 45.51 60.82 37.83 61.49 30.17 C 61.11 31.29 60.75 32.42 60.39 33.55 C 60.30 31.20 60.19 28.85 60.19 26.49 C 63.09 20.66 62.19 14.03 62.18 7.76 C 61.85 8.11 61.18 8.82 60.84 9.18 C 55.04 9.87 49.35 8.31 43.71 7.20 Z" />
<path fill="#aaaaa9" opacity="1.00" d=" M 42.38 11.56 L 42.80 12.53 L 42.93 13.01 L 43.20 13.94 C 45.48 15.34 47.02 18.40 50.02 18.12 C 52.00 18.23 53.95 17.32 55.13 15.73 C 55.25 15.85 55.48 16.09 55.60 16.21 C 54.89 17.80 54.52 19.44 55.07 21.13 C 51.49 21.24 47.90 21.16 44.31 21.00 C 44.31 22.74 44.27 24.47 44.27 26.21 C 45.99 25.67 47.70 25.11 49.42 24.56 C 48.04 26.69 46.90 28.96 46.10 31.37 C 48.19 31.39 50.29 31.42 52.38 31.27 C 52.56 31.07 52.93 30.67 53.12 30.48 C 54.09 30.46 55.07 30.47 56.05 30.50 C 55.90 31.26 55.61 32.77 55.47 33.52 C 54.94 33.56 53.88 33.62 53.35 33.66 L 52.98 33.60 C 51.46 33.26 49.93 32.92 48.38 32.77 C 47.06 33.72 45.78 34.70 44.51 35.70 C 44.26 34.91 43.76 33.34 43.51 32.55 C 43.28 34.73 43.07 36.92 42.91 39.11 L 42.48 39.26 C 42.46 30.03 42.15 20.79 42.38 11.56 Z" />
</g>
<g id="#797978ff">
<path fill="#797978" opacity="1.00" d=" M 2.00 7.57 C 2.25 7.92 2.75 8.60 3.01 8.95 C 3.18 9.19 3.52 9.67 3.69 9.91 C 3.88 17.04 4.22 24.17 3.94 31.30 C 1.14 23.71 2.23 15.49 2.00 7.57 Z" />
</g>
<g id="#727272ff">
<path fill="#727272" opacity="1.00" d=" M 60.84 9.18 C 61.18 8.82 61.85 8.11 62.18 7.76 C 62.19 14.03 63.09 20.66 60.19 26.49 C 59.87 20.92 60.00 15.34 60.28 9.77 C 60.42 9.62 60.70 9.33 60.84 9.18 Z" />
</g>
<g id="#37342dff">
<path fill="#37342d" opacity="1.00" d=" M 3.69 9.91 C 12.47 10.27 21.26 9.52 30.05 9.54 C 40.13 9.35 50.20 10.30 60.28 9.77 C 60.00 15.34 59.87 20.92 60.19 26.49 C 60.19 28.85 60.30 31.20 60.39 33.55 C 60.49 39.75 59.95 45.96 60.42 52.16 C 60.77 52.41 61.48 52.93 61.84 53.19 L 62.87 53.94 L 63.09 54.09 C 58.61 53.79 54.10 54.36 49.64 53.72 L 48.50 53.54 C 51.93 53.57 55.36 53.45 58.79 53.43 C 58.73 52.95 58.61 51.99 58.55 51.51 C 44.83 51.44 31.12 50.92 17.40 51.36 C 12.84 51.02 8.27 51.11 3.70 51.26 C 3.88 46.98 3.64 42.69 3.71 38.40 C 3.85 36.04 3.97 33.67 3.94 31.30 C 4.22 24.17 3.88 17.04 3.69 9.91 M 6.10 11.83 C 6.34 20.87 5.54 29.93 6.04 38.97 C 6.29 39.20 6.80 39.67 7.05 39.90 C 12.09 40.01 17.21 40.27 22.19 39.31 C 22.29 30.14 22.38 20.96 22.15 11.79 C 16.82 11.29 11.43 11.31 6.10 11.83 M 23.91 11.80 C 24.09 21.09 23.85 30.37 24.00 39.66 L 25.14 39.04 C 29.87 38.34 34.66 38.80 39.42 38.58 L 39.53 39.32 C 39.70 30.80 39.31 22.26 39.75 13.74 C 41.21 12.44 39.06 11.27 37.85 11.35 C 33.21 11.29 28.49 10.88 23.91 11.80 M 42.56 11.02 L 42.80 12.53 L 42.38 11.56 C 42.15 20.79 42.46 30.03 42.48 39.26 L 41.62 39.54 C 47.02 40.07 52.45 39.74 57.86 39.66 C 59.06 32.17 58.00 24.56 58.49 17.02 C 58.20 15.13 59.24 11.98 56.76 11.33 C 52.06 10.69 47.29 11.12 42.56 11.02 M 6.07 49.77 C 13.37 49.86 20.66 49.60 27.96 49.61 C 28.38 47.30 28.49 44.95 28.47 42.60 C 21.37 41.54 14.13 42.02 6.97 42.11 C 4.15 43.47 5.87 47.36 6.07 49.77 M 31.30 42.32 C 30.18 44.66 31.01 47.30 31.16 49.76 C 34.52 49.32 39.35 51.40 41.58 48.12 C 38.51 49.41 35.17 49.26 31.91 49.04 C 31.95 47.02 31.98 45.00 32.01 42.98 C 34.64 42.99 37.27 43.00 39.90 43.00 C 40.08 44.41 40.28 45.82 40.49 47.23 C 40.98 45.60 41.10 43.90 41.09 42.21 C 37.84 42.05 34.50 41.48 31.30 42.32 M 32.91 43.79 C 32.95 45.10 33.10 46.39 33.35 47.67 C 35.25 47.77 37.11 47.22 38.97 46.89 C 38.89 45.25 38.47 43.14 36.32 44.63 C 35.18 44.35 34.04 44.07 32.91 43.79 M 45.32 48.37 C 48.96 48.17 52.62 48.51 56.25 48.18 C 56.53 47.89 57.08 47.29 57.36 46.99 C 56.43 45.97 56.02 42.68 54.03 44.02 C 53.99 44.64 53.92 45.88 53.88 46.49 C 53.59 45.83 52.99 44.50 52.70 43.84 C 50.32 43.76 47.94 43.66 45.56 43.58 C 45.48 45.17 45.41 46.77 45.32 48.37 Z" />
</g>
<g id="#8b8b8aff">
<path fill="#8b8b8a" opacity="1.00" d=" M 6.10 11.83 C 11.43 11.31 16.82 11.29 22.15 11.79 C 22.38 20.96 22.29 30.14 22.19 39.31 C 17.21 40.27 12.09 40.01 7.05 39.90 C 6.80 39.67 6.29 39.20 6.04 38.97 C 5.54 29.93 6.34 20.87 6.10 11.83 M 7.33 12.82 L 6.66 14.28 C 7.23 14.31 8.37 14.35 8.94 14.38 C 8.80 14.72 8.52 15.39 8.38 15.73 L 8.02 15.46 C 7.89 16.76 7.62 19.35 7.49 20.64 C 10.19 20.44 13.06 19.61 15.61 20.98 C 13.19 21.26 10.76 21.08 8.34 20.85 C 8.36 22.69 8.37 24.54 8.38 26.38 L 7.40 26.73 C 7.99 28.29 8.37 30.04 9.83 31.05 C 12.15 31.11 14.45 31.22 16.77 31.31 C 16.84 30.93 16.99 30.16 17.06 29.78 C 17.78 30.01 18.50 30.25 19.23 30.48 C 20.17 25.45 20.67 20.35 19.94 15.26 C 20.52 14.51 21.01 13.71 21.39 12.83 C 16.74 12.41 11.94 11.95 7.33 12.82 M 12.54 32.89 L 12.38 33.18 C 11.06 34.03 9.75 34.89 8.46 35.77 C 8.03 34.93 7.59 34.09 7.16 33.25 C 7.09 35.08 7.04 36.91 6.98 38.74 C 11.67 38.99 16.36 38.96 21.04 38.86 C 20.98 36.86 20.90 34.87 20.82 32.87 C 20.55 33.60 20.02 35.05 19.75 35.78 C 18.64 34.95 17.57 34.06 16.30 33.48 L 17.03 33.41 C 15.54 33.21 14.04 33.04 12.54 32.89 Z" />
<path fill="#8b8b8a" opacity="1.00" d=" M 34.95 30.81 C 36.18 30.57 37.42 30.32 38.66 30.08 C 38.58 31.30 38.42 33.73 38.34 34.94 C 36.25 34.30 34.21 33.43 32.03 33.14 C 29.73 33.17 27.87 34.77 25.93 35.83 C 25.90 34.09 25.89 32.35 25.79 30.62 C 26.35 30.72 27.45 30.91 28.00 31.01 C 30.31 31.27 32.66 31.28 34.95 30.81 Z" />
</g>
<g id="#848482ff">
<path fill="#848482" opacity="1.00" d=" M 23.91 11.80 C 28.49 10.88 33.21 11.29 37.85 11.35 C 39.06 11.27 41.21 12.44 39.75 13.74 L 39.62 13.93 C 37.58 11.96 34.57 12.68 32.02 12.51 C 29.45 12.73 26.33 11.94 24.37 14.11 C 25.01 14.09 26.28 14.05 26.92 14.03 C 26.81 14.31 26.60 14.86 26.50 15.14 C 23.71 19.63 25.05 24.77 25.69 29.63 C 25.53 32.77 25.23 35.90 25.14 39.04 L 24.00 39.66 C 23.85 30.37 24.09 21.09 23.91 11.80 Z" />
</g>
<g id="#61615fff">
<path fill="#61615f" opacity="1.00" d=" M 42.56 11.02 C 47.29 11.12 52.06 10.69 56.76 11.33 C 59.24 11.98 58.20 15.13 58.49 17.02 C 58.00 24.56 59.06 32.17 57.86 39.66 C 52.45 39.74 47.02 40.07 41.62 39.54 L 42.48 39.26 L 42.91 39.11 C 47.65 38.83 52.39 39.19 57.13 39.11 C 57.06 38.44 56.93 37.09 56.87 36.41 C 55.69 35.50 54.53 34.57 53.35 33.66 C 53.88 33.62 54.94 33.56 55.47 33.52 C 55.61 32.77 55.90 31.26 56.05 30.50 C 56.52 25.81 57.86 20.62 55.60 16.21 C 55.48 16.09 55.25 15.85 55.13 15.73 C 55.46 14.56 56.28 13.66 57.03 12.74 C 52.33 12.69 47.62 12.60 42.93 13.01 L 42.80 12.53 L 42.56 11.02 Z" />
</g>
<g id="#202100ff">
<path fill="#202100" opacity="1.00" d=" M 24.37 14.11 C 26.33 11.94 29.45 12.73 32.02 12.51 C 34.57 12.68 37.58 11.96 39.62 13.93 C 39.39 14.23 38.93 14.83 38.70 15.12 C 36.34 16.33 34.17 18.60 31.29 18.14 C 29.25 18.10 27.90 16.36 26.50 15.14 C 26.60 14.86 26.81 14.31 26.92 14.03 C 26.28 14.05 25.01 14.09 24.37 14.11 M 27.28 13.86 C 28.45 15.45 29.68 17.68 32.02 17.39 C 34.39 17.70 35.80 15.57 36.85 13.82 C 33.66 13.72 30.47 13.74 27.28 13.86 Z" />
<path fill="#202100" opacity="1.00" d=" M 42.93 13.01 C 47.62 12.60 52.33 12.69 57.03 12.74 C 56.28 13.66 55.46 14.56 55.13 15.73 C 53.95 17.32 52.00 18.23 50.02 18.12 C 47.02 18.40 45.48 15.34 43.20 13.94 L 42.93 13.01 M 45.50 13.85 C 46.41 15.57 47.72 17.65 49.99 17.39 C 52.38 17.71 53.79 15.59 54.83 13.82 C 51.72 13.72 48.61 13.74 45.50 13.85 Z" />
<path fill="#202100" opacity="1.00" d=" M 7.33 12.82 C 11.94 11.95 16.74 12.41 21.39 12.83 C 21.01 13.71 20.52 14.51 19.94 15.26 C 18.46 16.64 16.88 18.27 14.73 18.43 C 12.26 18.78 10.26 17.04 8.38 15.73 C 8.52 15.39 8.80 14.72 8.94 14.38 C 8.37 14.35 7.23 14.31 6.66 14.28 L 7.33 12.82 M 9.28 13.86 C 10.44 15.46 11.70 17.71 14.05 17.39 C 16.41 17.70 17.83 15.59 18.83 13.82 C 15.65 13.71 12.46 13.73 9.28 13.86 Z" />
<path fill="#202100" opacity="1.00" d=" M 8.34 20.85 C 10.76 21.08 13.19 21.26 15.61 20.98 C 16.96 21.19 19.10 20.12 19.74 21.83 C 18.61 24.39 17.36 26.95 17.06 29.78 C 16.99 30.16 16.84 30.93 16.77 31.31 C 14.45 31.22 12.15 31.11 9.83 31.05 C 10.84 28.79 12.02 26.62 13.37 24.54 C 11.70 25.13 10.06 25.82 8.38 26.38 C 8.37 24.54 8.36 22.69 8.34 20.85 M 8.78 21.79 C 8.82 22.71 8.89 24.54 8.92 25.46 C 9.46 25.02 10.55 24.15 11.10 23.71 C 12.70 23.90 14.31 24.10 15.92 24.28 C 13.99 25.75 12.22 27.47 11.47 29.84 C 12.92 29.85 14.36 29.84 15.81 29.84 C 16.13 26.99 17.09 24.29 18.57 21.83 C 15.30 21.80 12.04 21.76 8.78 21.79 Z" />
<path fill="#202100" opacity="1.00" d=" M 26.26 21.01 C 30.13 20.80 34.02 20.99 37.86 21.53 C 36.07 24.32 34.96 27.47 34.95 30.81 C 32.66 31.28 30.31 31.27 28.00 31.01 C 28.94 28.76 30.12 26.62 31.42 24.55 C 29.69 25.10 27.99 25.73 26.26 26.26 C 26.25 24.51 26.27 22.76 26.26 21.01 M 26.79 21.83 C 26.80 22.69 26.83 24.40 26.84 25.26 C 28.84 23.40 31.49 23.91 33.94 24.22 C 32.02 25.81 29.86 27.45 29.82 30.21 C 31.14 30.10 32.46 29.98 33.78 29.86 C 34.13 27.08 35.04 24.41 36.48 21.99 C 33.25 21.72 30.02 21.59 26.79 21.83 Z" />
<path fill="#202100" opacity="1.00" d=" M 44.31 21.00 C 47.90 21.16 51.49 21.24 55.07 21.13 L 55.26 22.26 C 54.08 24.86 53.08 27.57 53.12 30.48 C 52.93 30.67 52.56 31.07 52.38 31.27 C 50.29 31.42 48.19 31.39 46.10 31.37 C 46.90 28.96 48.04 26.69 49.42 24.56 C 47.70 25.11 45.99 25.67 44.27 26.21 C 44.27 24.47 44.31 22.74 44.31 21.00 M 44.82 21.79 C 44.82 22.66 44.83 24.39 44.83 25.26 C 46.83 23.38 49.48 23.91 51.94 24.23 C 50.02 25.75 48.25 27.48 47.38 29.83 C 48.84 29.84 50.30 29.85 51.76 29.86 C 52.14 27.06 53.07 24.39 54.48 21.95 C 51.26 21.83 48.04 21.74 44.82 21.79 Z" />
<path fill="#202100" opacity="1.00" d=" M 25.14 39.04 C 25.23 35.90 25.53 32.77 25.69 29.63 L 25.79 30.62 C 25.89 32.35 25.90 34.09 25.93 35.83 C 27.87 34.77 29.73 33.17 32.03 33.14 C 34.21 33.43 36.25 34.30 38.34 34.94 C 38.42 33.73 38.58 31.30 38.66 30.08 C 38.94 32.91 39.10 35.75 39.42 38.58 C 34.66 38.80 29.87 38.34 25.14 39.04 M 27.88 36.89 C 30.47 36.78 33.05 36.48 35.62 36.17 C 34.42 35.33 33.24 34.47 32.04 33.64 C 30.52 34.54 29.12 35.63 27.88 36.89 Z" />
</g>
<g id="#b000baff">
<path fill="#b000ba" opacity="1.00" d=" M 9.28 13.86 C 12.46 13.73 15.65 13.71 18.83 13.82 C 17.83 15.59 16.41 17.70 14.05 17.39 C 11.70 17.71 10.44 15.46 9.28 13.86 Z" />
<path fill="#b000ba" opacity="1.00" d=" M 27.28 13.86 C 30.47 13.74 33.66 13.72 36.85 13.82 C 35.80 15.57 34.39 17.70 32.02 17.39 C 29.68 17.68 28.45 15.45 27.28 13.86 Z" />
<path fill="#b000ba" opacity="1.00" d=" M 45.50 13.85 C 48.61 13.74 51.72 13.72 54.83 13.82 C 53.79 15.59 52.38 17.71 49.99 17.39 C 47.72 17.65 46.41 15.57 45.50 13.85 Z" />
</g>
<g id="#b7b7b7ff">
<path fill="#b7b7b7" opacity="1.00" d=" M 39.62 13.93 L 39.75 13.74 C 39.31 22.26 39.70 30.80 39.53 39.32 L 39.42 38.58 C 39.10 35.75 38.94 32.91 38.66 30.08 C 37.42 30.32 36.18 30.57 34.95 30.81 C 34.96 27.47 36.07 24.32 37.86 21.53 C 34.02 20.99 30.13 20.80 26.26 21.01 C 26.27 22.76 26.25 24.51 26.26 26.26 C 27.99 25.73 29.69 25.10 31.42 24.55 C 30.12 26.62 28.94 28.76 28.00 31.01 C 27.45 30.91 26.35 30.72 25.79 30.62 L 25.69 29.63 C 25.05 24.77 23.71 19.63 26.50 15.14 C 27.90 16.36 29.25 18.10 31.29 18.14 C 34.17 18.60 36.34 16.33 38.70 15.12 C 38.93 14.83 39.39 14.23 39.62 13.93 Z" />
</g>
<g id="#c8c8c8ff">
<path fill="#c8c8c8" opacity="1.00" d=" M 55.60 16.21 C 57.86 20.62 56.52 25.81 56.05 30.50 C 55.07 30.47 54.09 30.46 53.12 30.48 C 53.08 27.57 54.08 24.86 55.26 22.26 L 55.07 21.13 C 54.52 19.44 54.89 17.80 55.60 16.21 Z" />
<path fill="#c8c8c8" opacity="1.00" d=" M 8.38 26.38 C 10.06 25.82 11.70 25.13 13.37 24.54 C 12.02 26.62 10.84 28.79 9.83 31.05 C 8.37 30.04 7.99 28.29 7.40 26.73 L 8.38 26.38 Z" />
<path fill="#c8c8c8" opacity="1.00" d=" M 17.40 51.36 C 31.12 50.92 44.83 51.44 58.55 51.51 C 58.61 51.99 58.73 52.95 58.79 53.43 C 55.36 53.45 51.93 53.57 48.50 53.54 C 43.36 52.79 38.17 53.34 33.00 53.33 C 24.67 53.58 16.38 52.61 8.06 52.59 C 11.20 52.41 14.31 51.94 17.40 51.36 Z" />
</g>
<g id="#cc0c0cff">
<path fill="#cc0c0c" opacity="1.00" d=" M 8.78 21.79 C 12.04 21.76 15.30 21.80 18.57 21.83 C 17.09 24.29 16.13 26.99 15.81 29.84 C 14.36 29.84 12.92 29.85 11.47 29.84 C 12.22 27.47 13.99 25.75 15.92 24.28 C 14.31 24.10 12.70 23.90 11.10 23.71 C 10.55 24.15 9.46 25.02 8.92 25.46 C 8.89 24.54 8.82 22.71 8.78 21.79 Z" />
<path fill="#cc0c0c" opacity="1.00" d=" M 26.79 21.83 C 30.02 21.59 33.25 21.72 36.48 21.99 C 35.04 24.41 34.13 27.08 33.78 29.86 C 32.46 29.98 31.14 30.10 29.82 30.21 C 29.86 27.45 32.02 25.81 33.94 24.22 C 31.49 23.91 28.84 23.40 26.84 25.26 C 26.83 24.40 26.80 22.69 26.79 21.83 Z" />
<path fill="#cc0c0c" opacity="1.00" d=" M 44.82 21.79 C 48.04 21.74 51.26 21.83 54.48 21.95 C 53.07 24.39 52.14 27.06 51.76 29.86 C 50.30 29.85 48.84 29.84 47.38 29.83 C 48.25 27.48 50.02 25.75 51.94 24.23 C 49.48 23.91 46.83 23.38 44.83 25.26 C 44.83 24.39 44.82 22.66 44.82 21.79 Z" />
</g>
<g id="#5c5d29ff">
<path fill="#5c5d29" opacity="1.00" d=" M 12.54 32.89 C 14.04 33.04 15.54 33.21 17.03 33.41 L 16.30 33.48 L 15.14 33.58 C 16.04 34.58 16.94 35.57 17.84 36.57 C 15.34 36.63 12.84 36.71 10.33 36.81 C 11.02 35.60 11.70 34.39 12.38 33.18 L 12.54 32.89 Z" />
<path fill="#5c5d29" opacity="1.00" d=" M 48.38 32.77 C 49.93 32.92 51.46 33.26 52.98 33.60 L 51.29 33.41 C 52.14 34.46 53.00 35.52 53.86 36.56 C 51.36 36.63 48.86 36.72 46.37 36.82 C 47.04 35.48 47.70 34.12 48.38 32.77 Z" />
</g>
<g id="#201f14ff">
<path fill="#201f14" opacity="1.00" d=" M 7.16 33.25 C 7.59 34.09 8.03 34.93 8.46 35.77 C 9.75 34.89 11.06 34.03 12.38 33.18 C 11.70 34.39 11.02 35.60 10.33 36.81 C 12.84 36.71 15.34 36.63 17.84 36.57 C 16.94 35.57 16.04 34.58 15.14 33.58 L 16.30 33.48 C 17.57 34.06 18.64 34.95 19.75 35.78 C 20.02 35.05 20.55 33.60 20.82 32.87 C 20.90 34.87 20.98 36.86 21.04 38.86 C 16.36 38.96 11.67 38.99 6.98 38.74 C 7.04 36.91 7.09 35.08 7.16 33.25 Z" />
</g>
<g id="#56532fff">
<path fill="#56532f" opacity="1.00" d=" M 27.88 36.89 C 29.12 35.63 30.52 34.54 32.04 33.64 C 33.24 34.47 34.42 35.33 35.62 36.17 C 33.05 36.48 30.47 36.78 27.88 36.89 Z" />
</g>
<g id="#1c1b13ff">
<path fill="#1c1b13" opacity="1.00" d=" M 43.51 32.55 C 43.76 33.34 44.26 34.91 44.51 35.70 C 45.78 34.70 47.06 33.72 48.38 32.77 C 47.70 34.12 47.04 35.48 46.37 36.82 C 48.86 36.72 51.36 36.63 53.86 36.56 C 53.00 35.52 52.14 34.46 51.29 33.41 L 52.98 33.60 L 53.35 33.66 C 54.53 34.57 55.69 35.50 56.87 36.41 C 56.93 37.09 57.06 38.44 57.13 39.11 C 52.39 39.19 47.65 38.83 42.91 39.11 C 43.07 36.92 43.28 34.73 43.51 32.55 Z" />
</g>
<g id="#51504dff">
<path fill="#51504d" opacity="1.00" d=" M 31.30 42.32 C 34.50 41.48 37.84 42.05 41.09 42.21 C 41.10 43.90 40.98 45.60 40.49 47.23 C 40.28 45.82 40.08 44.41 39.90 43.00 C 37.27 43.00 34.64 42.99 32.01 42.98 C 31.98 45.00 31.95 47.02 31.91 49.04 C 35.17 49.26 38.51 49.41 41.58 48.12 C 39.35 51.40 34.52 49.32 31.16 49.76 C 31.01 47.30 30.18 44.66 31.30 42.32 Z" />
</g>
<g id="#231f1fff">
<path fill="#231f1f" opacity="1.00" d=" M 7.07 43.00 C 13.77 43.00 20.46 43.00 27.15 43.00 C 27.02 44.86 28.17 47.15 26.92 48.74 C 20.17 48.98 13.36 49.05 6.62 48.40 C 6.78 46.60 6.93 44.80 7.07 43.00 M 9.05 44.01 C 8.78 44.60 8.22 45.80 7.95 46.39 C 8.22 46.78 8.77 47.56 9.04 47.95 C 14.31 47.65 19.63 48.37 24.86 47.76 L 25.92 46.61 C 25.65 45.98 25.11 44.72 24.84 44.09 C 23.35 44.03 21.87 43.99 20.38 43.95 C 20.64 44.47 21.15 45.52 21.41 46.04 L 20.52 45.90 C 20.25 45.51 19.69 44.72 19.41 44.32 C 16.00 43.76 12.50 44.15 9.05 44.01 Z" />
</g>
<g id="#801313ff">
<path fill="#801313" opacity="1.00" d=" M 9.05 44.01 C 12.50 44.15 16.00 43.76 19.41 44.32 C 19.69 44.72 20.25 45.51 20.52 45.90 C 19.76 45.88 18.99 46.02 18.23 45.87 C 17.91 46.16 17.28 46.74 16.96 47.03 C 16.38 46.41 15.81 45.78 15.26 45.14 C 15.14 45.60 14.91 46.54 14.80 47.00 C 14.04 46.68 13.25 46.39 12.60 45.86 C 11.10 46.40 9.51 46.31 7.95 46.39 C 8.22 45.80 8.78 44.60 9.05 44.01 Z" />
</g>
<g id="#7d1818ff">
<path fill="#7d1818" opacity="1.00" d=" M 20.38 43.95 C 21.87 43.99 23.35 44.03 24.84 44.09 C 25.11 44.72 25.65 45.98 25.92 46.61 C 24.43 46.32 22.91 46.25 21.41 46.04 C 21.15 45.52 20.64 44.47 20.38 43.95 Z" />
</g>
<g id="#751212ff">
<path fill="#751212" opacity="1.00" d=" M 32.91 43.79 C 34.04 44.07 35.18 44.35 36.32 44.63 C 38.47 43.14 38.89 45.25 38.97 46.89 C 37.11 47.22 35.25 47.77 33.35 47.67 C 33.10 46.39 32.95 45.10 32.91 43.79 Z" />
</g>
<g id="#590202ff">
<path fill="#590202" opacity="1.00" d=" M 45.32 48.37 C 45.41 46.77 45.48 45.17 45.56 43.58 C 47.94 43.66 50.32 43.76 52.70 43.84 C 52.99 44.50 53.59 45.83 53.88 46.49 C 53.98 46.76 54.19 47.29 54.29 47.56 C 55.31 47.36 56.34 47.17 57.36 46.99 C 57.08 47.29 56.53 47.89 56.25 48.18 C 52.62 48.51 48.96 48.17 45.32 48.37 Z" />
</g>
<g id="#730d0dff">
<path fill="#730d0d" opacity="1.00" d=" M 54.03 44.02 C 56.02 42.68 56.43 45.97 57.36 46.99 C 56.34 47.17 55.31 47.36 54.29 47.56 C 54.19 47.29 53.98 46.76 53.88 46.49 C 53.92 45.88 53.99 44.64 54.03 44.02 Z" />
</g>
<g id="#420606ff">
<path fill="#420606" opacity="1.00" d=" M 12.60 45.86 C 13.25 46.39 14.04 46.68 14.80 47.00 C 14.91 46.54 15.14 45.60 15.26 45.14 C 15.81 45.78 16.38 46.41 16.96 47.03 C 17.28 46.74 17.91 46.16 18.23 45.87 C 18.99 46.02 19.76 45.88 20.52 45.90 L 21.41 46.04 C 22.91 46.25 24.43 46.32 25.92 46.61 L 24.86 47.76 C 19.63 48.37 14.31 47.65 9.04 47.95 C 8.77 47.56 8.22 46.78 7.95 46.39 C 9.51 46.31 11.10 46.40 12.60 45.86 Z" />
</g>
<g id="#898988ff">
<path fill="#898988" opacity="1.00" d=" M 3.70 51.26 C 8.27 51.11 12.84 51.02 17.40 51.36 C 14.31 51.94 11.20 52.41 8.06 52.59 C 16.38 52.61 24.67 53.58 33.00 53.33 C 38.17 53.34 43.36 52.79 48.50 53.54 L 49.64 53.72 C 33.37 54.37 17.07 53.81 0.78 53.93 L 1.11 53.64 C 1.40 53.38 1.99 52.86 2.28 52.60 C 2.63 52.27 3.35 51.60 3.70 51.26 Z" />
</g>
</svg>
