<?xml version="1.0" encoding="UTF-8" ?>
<!DOCTYPE svg PUBLIC "-//W3C//DTD SVG 1.1//EN" "http://www.w3.org/Graphics/SVG/1.1/DTD/svg11.dtd">
<svg width="64pt" height="64pt" viewBox="0 0 64 64" version="1.1" xmlns="http://www.w3.org/2000/svg">
<g id="#222122ff">
<path fill="#222122" opacity="1.00" d=" M 12.77 5.88 C 12.64 3.13 15.90 2.79 17.93 2.85 C 28.64 2.91 39.35 2.81 50.06 2.90 C 51.83 2.88 54.58 3.48 54.25 5.85 C 54.37 21.54 54.24 37.25 54.30 52.95 C 54.31 55.80 54.65 58.79 53.27 61.41 C 40.20 61.47 27.13 61.60 14.07 61.35 C 13.73 60.82 13.05 59.76 12.71 59.23 C 12.76 41.44 12.62 23.66 12.77 5.88 M 15.25 41.17 C 26.96 36.39 41.22 36.23 51.94 43.59 C 51.70 32.40 52.15 21.22 52.16 10.03 C 52.27 8.45 51.84 6.94 51.38 5.46 C 39.45 5.64 27.51 5.50 15.58 5.53 C 14.58 17.36 15.56 29.30 15.25 41.17 Z" />
</g>
<g id="#c81818ff">
<path fill="#c81818" opacity="1.00" d=" M 15.25 41.17 C 15.56 29.30 14.58 17.36 15.58 5.53 C 27.51 5.50 39.45 5.64 51.38 5.46 C 51.84 6.94 52.27 8.45 52.16 10.03 C 52.15 21.22 51.70 32.40 51.94 43.59 C 41.22 36.23 26.96 36.39 15.25 41.17 M 27.20 10.10 C 22.89 10.86 19.02 13.92 17.57 18.09 C 14.98 24.38 18.77 32.22 25.18 34.34 C 32.43 37.34 41.45 31.86 42.18 24.05 C 43.47 15.88 35.26 8.28 27.20 10.10 Z" />
</g>
<g id="#f5f5f5ff">
<path fill="#f5f5f5" opacity="1.00" d=" M 27.20 10.10 C 35.26 8.28 43.47 15.88 42.18 24.05 C 41.45 31.86 32.43 37.34 25.18 34.34 C 18.77 32.22 14.98 24.38 17.57 18.09 C 19.02 13.92 22.89 10.86 27.20 10.10 Z" />
</g>
</svg>
