<?xml version="1.0" encoding="UTF-8" ?>
<!DOCTYPE svg PUBLIC "-//W3C//DTD SVG 1.1//EN" "http://www.w3.org/Graphics/SVG/1.1/DTD/svg11.dtd">
<svg width="64pt" height="64pt" viewBox="0 0 64 64" version="1.1" xmlns="http://www.w3.org/2000/svg">
<g id="#846e31fa">
<path fill="#846e31" opacity="0.98" d=" M 53.32 7.21 C 55.68 7.13 58.06 9.53 57.97 11.91 C 56.83 12.50 55.53 12.66 54.28 12.83 C 52.42 14.43 51.14 16.50 49.58 18.36 C 52.25 18.24 54.45 20.39 54.99 22.89 C 55.96 26.12 53.70 29.09 52.13 31.66 C 53.06 32.51 53.97 33.39 54.86 34.28 C 54.61 35.09 54.20 35.78 53.61 36.37 C 51.73 37.36 50.77 34.83 49.42 33.98 C 48.60 34.80 47.79 35.61 46.97 36.43 C 47.44 37.72 48.76 38.49 49.66 39.48 C 49.39 40.58 48.49 42.13 47.13 41.71 C 45.96 41.14 45.19 40.00 44.25 39.13 C 43.38 40.01 42.51 40.90 41.64 41.79 C 42.71 42.77 43.69 43.84 44.65 44.93 C 43.37 48.29 40.46 46.26 39.09 44.24 C 37.45 45.86 35.93 47.69 33.87 48.79 C 30.84 50.46 26.58 49.49 24.74 46.50 C 22.36 51.41 20.75 56.96 21.42 62.46 C 18.28 63.55 15.72 61.08 13.30 59.50 L 13.10 58.49 C 14.75 58.04 16.21 59.03 17.62 59.71 C 18.11 56.17 15.22 52.47 11.43 53.40 C 11.59 55.14 11.81 56.87 12.08 58.59 C 8.14 54.63 3.03 50.34 2.58 44.45 C 10.84 43.94 19.46 41.63 25.97 36.28 L 26.52 36.51 C 26.80 36.73 27.36 37.17 27.64 37.39 C 28.67 36.85 29.77 36.44 30.78 35.84 C 31.35 37.74 28.80 38.64 28.14 40.21 C 25.92 42.27 28.22 46.09 30.98 45.72 C 33.46 45.70 34.82 43.18 36.50 41.73 C 34.69 39.67 32.56 37.93 30.78 35.84 C 31.57 34.84 32.28 33.77 33.24 32.92 L 34.41 32.67 C 33.76 35.72 37.64 36.94 39.07 39.19 C 39.93 38.31 40.79 37.43 41.65 36.55 C 39.78 34.68 37.96 32.73 35.92 31.02 C 36.30 29.74 37.21 28.78 38.21 27.94 L 39.27 27.69 C 39.34 30.62 42.69 31.80 44.17 34.00 C 44.84 33.34 46.18 32.02 46.85 31.36 C 44.85 29.63 43.37 27.14 40.83 26.14 C 41.21 24.54 42.51 23.28 44.11 22.92 C 45.42 25.34 47.70 27.02 49.66 28.89 C 50.99 27.07 52.61 24.34 50.52 22.42 C 48.88 20.47 46.30 22.19 44.46 22.80 C 44.89 19.46 48.70 18.06 50.24 15.23 C 48.92 15.96 47.85 17.34 46.27 17.46 C 46.35 14.94 49.76 14.07 51.19 12.20 C 52.96 11.10 52.51 8.85 53.32 7.21 M 8.05 44.96 C 9.69 46.99 11.93 48.41 13.75 50.26 C 15.88 52.24 17.29 54.92 19.73 56.57 C 17.65 49.76 24.22 45.38 25.75 39.35 L 24.20 39.33 C 19.22 42.14 13.84 44.59 8.05 44.96 Z" />
<path fill="#846e31" opacity="0.98" d=" M 36.17 20.60 C 33.99 18.91 39.72 15.64 38.67 19.57 C 39.47 19.91 41.07 20.57 41.87 20.90 C 43.12 20.15 43.75 18.00 45.43 18.19 L 45.52 19.24 C 43.47 20.91 41.43 22.59 39.32 24.18 C 37.82 23.24 38.54 19.89 36.17 20.60 Z" />
<path fill="#846e31" opacity="0.98" d=" M 30.29 25.23 C 30.69 23.66 31.83 22.80 33.43 23.07 C 33.48 23.65 33.57 24.81 33.61 25.39 L 34.87 25.15 C 35.27 25.35 36.09 25.74 36.50 25.94 C 36.93 25.69 37.78 25.21 38.20 24.97 C 37.60 26.86 35.99 28.12 34.42 29.21 C 33.15 28.46 32.56 27.35 32.64 25.89 C 32.05 25.72 30.87 25.40 30.29 25.23 Z" />
<path fill="#846e31" opacity="0.98" d=" M 25.10 30.40 C 25.55 28.71 26.62 27.95 28.30 28.12 C 28.33 28.68 28.38 29.81 28.41 30.37 C 29.16 30.59 30.65 31.04 31.40 31.27 C 31.86 30.94 32.77 30.27 33.23 29.94 C 32.36 32.22 30.31 33.90 28.34 35.23 C 28.57 32.94 27.60 30.68 25.10 30.40 Z" />
</g>
<g id="#dfc34bff">
<path fill="#dfc34b" opacity="1.00" d=" M 46.27 17.46 C 47.85 17.34 48.92 15.96 50.24 15.23 C 48.70 18.06 44.89 19.46 44.46 22.80 C 44.37 22.83 44.19 22.89 44.11 22.92 C 42.51 23.28 41.21 24.54 40.83 26.14 C 40.74 26.46 40.54 27.10 40.44 27.43 C 40.15 27.49 39.56 27.62 39.27 27.69 L 38.21 27.94 C 37.21 28.78 36.30 29.74 35.92 31.02 C 35.79 31.37 35.53 32.05 35.40 32.40 C 35.15 32.47 34.66 32.60 34.41 32.67 L 33.24 32.92 C 32.28 33.77 31.57 34.84 30.78 35.84 C 29.77 36.44 28.67 36.85 27.64 37.39 C 27.36 37.17 26.80 36.73 26.52 36.51 L 26.71 35.70 C 27.12 35.58 27.93 35.35 28.34 35.23 C 30.31 33.90 32.36 32.22 33.23 29.94 L 33.43 29.38 L 34.42 29.21 C 35.99 28.12 37.60 26.86 38.20 24.97 L 38.43 24.42 L 39.32 24.18 C 41.43 22.59 43.47 20.91 45.52 19.24 L 45.43 18.19 L 45.27 17.24 L 46.27 17.46 Z" />
<path fill="#dfc34b" opacity="1.00" d=" M 8.05 44.96 C 13.84 44.59 19.22 42.14 24.20 39.33 L 25.75 39.35 C 24.22 45.38 17.65 49.76 19.73 56.57 C 17.29 54.92 15.88 52.24 13.75 50.26 C 11.93 48.41 9.69 46.99 8.05 44.96 Z" />
<path fill="#dfc34b" opacity="1.00" d=" M 11.43 53.40 C 15.22 52.47 18.11 56.17 17.62 59.71 C 16.21 59.03 14.75 58.04 13.10 58.49 C 12.85 58.51 12.34 58.56 12.08 58.59 C 11.81 56.87 11.59 55.14 11.43 53.40 Z" />
</g>
</svg>
