<?xml version="1.0" encoding="UTF-8" ?>
<!DOCTYPE svg PUBLIC "-//W3C//DTD SVG 1.1//EN" "http://www.w3.org/Graphics/SVG/1.1/DTD/svg11.dtd">
<svg width="64pt" height="64pt" viewBox="0 0 64 64" version="1.1" xmlns="http://www.w3.org/2000/svg">
<g id="#2f1c0473">
<path fill="#2f1c04" opacity="0.45" d=" M 45.59 16.92 C 46.70 14.74 48.21 12.67 50.67 11.95 C 51.06 12.22 51.84 12.77 52.23 13.04 C 51.47 13.12 49.95 13.28 49.19 13.36 C 47.98 14.54 46.77 15.71 45.59 16.92 Z" />
</g>
<g id="#997a2eff">
<path fill="#997a2e" opacity="1.00" d=" M 49.19 13.36 C 49.95 13.28 51.47 13.12 52.23 13.04 C 54.41 14.76 57.28 15.61 59.06 17.82 C 58.69 18.31 57.96 19.28 57.59 19.77 C 56.40 19.59 55.22 19.43 54.04 19.25 C 53.80 18.73 53.31 17.68 53.07 17.16 C 52.54 16.42 51.97 15.70 51.41 14.99 C 50.69 15.82 49.97 16.65 49.28 17.50 L 49.42 15.76 C 45.82 19.04 43.26 23.22 40.13 26.91 C 40.40 22.55 36.11 26.89 39.04 28.23 C 38.31 29.10 37.61 29.99 36.93 30.90 C 36.98 30.45 37.06 29.56 37.10 29.11 C 35.73 28.76 33.89 28.92 33.48 27.19 C 34.25 26.10 35.28 25.34 36.57 24.91 C 36.57 24.30 36.57 23.08 36.57 22.46 C 38.00 22.72 39.43 22.99 40.87 23.26 C 42.45 21.15 44.05 19.06 45.59 16.92 C 46.77 15.71 47.98 14.54 49.19 13.36 Z" />
<path fill="#997a2e" opacity="1.00" d=" M 30.84 29.91 C 31.46 29.64 32.71 29.11 33.33 28.85 C 33.76 30.35 34.03 32.24 35.97 32.34 C 35.37 33.21 34.77 34.08 34.12 34.91 C 34.09 34.41 34.03 33.40 33.99 32.90 C 33.08 32.71 32.18 32.54 31.27 32.38 C 31.36 33.86 31.46 35.35 31.56 36.83 C 29.47 37.08 27.92 36.29 27.52 34.12 C 28.27 33.76 29.78 33.03 30.53 32.67 C 30.63 31.75 30.73 30.83 30.84 29.91 Z" />
</g>
<g id="#b0861bff">
<path fill="#b0861b" opacity="1.00" d=" M 51.41 14.99 C 51.97 15.70 52.54 16.42 53.07 17.16 C 49.72 19.55 47.59 23.09 45.27 26.39 C 44.89 26.03 44.12 25.33 43.74 24.97 C 45.58 22.47 47.43 19.98 49.28 17.50 C 49.97 16.65 50.69 15.82 51.41 14.99 Z" />
</g>
<g id="#e0cf85ff">
<path fill="#e0cf85" opacity="1.00" d=" M 40.13 26.91 C 43.26 23.22 45.82 19.04 49.42 15.76 L 49.28 17.50 C 47.43 19.98 45.58 22.47 43.74 24.97 C 35.93 36.04 28.04 47.04 19.68 57.70 C 19.79 56.52 19.86 55.33 19.93 54.14 C 23.77 49.98 26.80 45.20 30.04 40.57 C 30.97 39.48 31.52 38.17 31.98 36.83 C 32.71 36.21 33.42 35.57 34.12 34.91 C 34.77 34.08 35.37 33.21 35.97 32.34 C 36.21 31.98 36.69 31.26 36.93 30.90 C 37.61 29.99 38.31 29.10 39.04 28.23 C 39.31 27.90 39.86 27.24 40.13 26.91 Z" />
</g>
<g id="#5b1f03ff">
<path fill="#5b1f03" opacity="1.00" d=" M 45.27 26.39 C 47.59 23.09 49.72 19.55 53.07 17.16 C 53.31 17.68 53.80 18.73 54.04 19.25 L 52.56 18.16 C 42.43 31.60 33.87 46.23 23.65 59.63 C 23.10 60.23 22.02 61.43 21.48 62.03 C 20.25 62.76 18.97 63.41 17.66 64.00 L 10.31 64.00 L 8.90 63.24 C 9.72 63.26 11.37 63.29 12.19 63.30 C 14.61 63.39 17.32 63.45 19.22 61.70 C 22.39 59.34 24.90 56.24 27.09 52.99 C 33.11 44.10 39.00 35.11 45.27 26.39 Z" />
<path fill="#5b1f03" opacity="1.00" d=" M 5.48 31.61 C 8.64 31.03 11.90 30.89 15.06 31.61 C 13.24 31.63 10.90 30.76 9.57 32.48 C 7.31 34.49 7.53 37.70 7.40 40.45 C 7.37 41.03 7.33 42.21 7.30 42.80 C 7.13 42.99 6.79 43.38 6.62 43.57 C 6.26 43.97 5.53 44.75 5.16 45.15 C 6.67 40.77 7.58 35.97 5.48 31.61 Z" />
<path fill="#5b1f03" opacity="1.00" d=" M 31.27 32.38 C 32.18 32.54 33.08 32.71 33.99 32.90 C 34.03 33.40 34.09 34.41 34.12 34.91 C 33.42 35.57 32.71 36.21 31.98 36.83 C 31.52 38.17 30.97 39.48 30.04 40.57 C 28.81 39.38 27.68 38.09 26.49 36.86 C 26.78 36.69 27.36 36.36 27.65 36.20 C 27.61 35.68 27.55 34.64 27.52 34.12 C 27.92 36.29 29.47 37.08 31.56 36.83 C 31.46 35.35 31.36 33.86 31.27 32.38 Z" />
<path fill="#5b1f03" opacity="1.00" d=" M 4.77 60.48 C 2.12 57.07 2.27 52.52 3.90 48.70 C 3.26 52.65 3.91 56.62 4.77 60.48 Z" />
</g>
<g id="#120b02c7">
<path fill="#120b02" opacity="0.78" d=" M 59.06 17.82 C 60.00 19.61 62.58 21.05 62.01 23.25 C 59.19 22.29 56.44 21.04 54.04 19.25 C 55.22 19.43 56.40 19.59 57.59 19.77 C 57.96 19.28 58.69 18.31 59.06 17.82 Z" />
</g>
<g id="#342206ff">
<path fill="#342206" opacity="1.00" d=" M 39.04 28.23 C 36.11 26.89 40.40 22.55 40.13 26.91 C 39.86 27.24 39.31 27.90 39.04 28.23 Z" />
</g>
<g id="#bc9a34ff">
<path fill="#bc9a34" opacity="1.00" d=" M 19.68 57.70 C 28.04 47.04 35.93 36.04 43.74 24.97 C 44.12 25.33 44.89 26.03 45.27 26.39 C 39.00 35.11 33.11 44.10 27.09 52.99 C 24.90 56.24 22.39 59.34 19.22 61.70 L 19.42 60.13 C 19.50 59.32 19.58 58.51 19.68 57.70 Z" />
</g>
<g id="#4a2806e6">
<path fill="#4a2806" opacity="0.90" d=" M 33.33 28.85 C 33.37 28.43 33.44 27.60 33.48 27.19 C 33.89 28.92 35.73 28.76 37.10 29.11 C 37.06 29.56 36.98 30.45 36.93 30.90 C 36.69 31.26 36.21 31.98 35.97 32.34 C 34.03 32.24 33.76 30.35 33.33 28.85 Z" />
</g>
<g id="#b19131fc">
<path fill="#b19131" opacity="1.00" d=" M 9.57 32.48 C 10.90 30.76 13.24 31.63 15.06 31.61 C 15.57 31.72 16.58 31.94 17.08 32.06 C 18.09 33.90 19.60 35.69 19.54 37.91 C 19.14 42.75 15.54 46.63 15.16 51.49 C 14.84 52.58 15.17 53.41 16.13 53.98 C 18.17 53.26 19.38 51.33 20.91 49.92 C 23.50 47.45 25.81 44.66 27.22 41.35 L 27.45 40.97 C 26.69 39.82 25.94 38.66 25.19 37.51 L 26.49 36.86 C 27.68 38.09 28.81 39.38 30.04 40.57 C 26.80 45.20 23.77 49.98 19.93 54.14 C 17.41 54.62 14.90 55.11 12.39 55.59 C 12.29 51.54 13.77 47.72 15.34 44.06 C 16.67 41.17 18.30 37.80 16.11 34.85 C 14.57 31.71 10.96 34.45 9.52 36.29 C 9.32 37.24 8.93 39.14 8.74 40.08 L 7.40 40.45 C 7.53 37.70 7.31 34.49 9.57 32.48 Z" />
</g>
<g id="#65440cd7">
<path fill="#65440c" opacity="0.84" d=" M 17.08 32.06 C 18.47 32.65 19.83 33.31 21.19 33.97 C 21.02 35.27 21.41 36.37 22.34 37.26 C 20.11 39.56 19.45 42.81 18.22 45.67 C 19.37 46.47 20.52 47.28 21.68 48.09 C 23.44 45.77 25.30 43.53 27.22 41.35 C 25.81 44.66 23.50 47.45 20.91 49.92 C 19.71 49.06 18.51 48.20 17.31 47.35 C 16.58 48.72 15.84 50.09 15.16 51.49 C 15.54 46.63 19.14 42.75 19.54 37.91 C 19.60 35.69 18.09 33.90 17.08 32.06 Z" />
</g>
<g id="#e3c457ff">
<path fill="#e3c457" opacity="1.00" d=" M 9.52 36.29 C 10.96 34.45 14.57 31.71 16.11 34.85 C 18.30 37.80 16.67 41.17 15.34 44.06 C 12.86 42.69 10.03 42.85 7.30 42.80 C 7.33 42.21 7.37 41.03 7.40 40.45 L 8.74 40.08 L 8.40 42.03 C 9.45 41.98 10.51 41.93 11.56 41.87 C 11.65 39.76 11.85 37.29 9.52 36.29 Z" />
</g>
<g id="#3e2403d8">
<path fill="#3e2403" opacity="0.85" d=" M 21.19 33.97 C 22.71 34.28 24.01 36.18 22.34 37.26 C 21.41 36.37 21.02 35.27 21.19 33.97 Z" />
</g>
<g id="#eeeacaff">
<path fill="#eeeaca" opacity="1.00" d=" M 9.52 36.29 C 11.85 37.29 11.65 39.76 11.56 41.87 C 10.51 41.93 9.45 41.98 8.40 42.03 L 8.74 40.08 C 8.93 39.14 9.32 37.24 9.52 36.29 Z" />
</g>
<g id="#d9b94aff">
<path fill="#d9b94a" opacity="1.00" d=" M 7.30 42.80 C 10.03 42.85 12.86 42.69 15.34 44.06 C 13.77 47.72 12.29 51.54 12.39 55.59 C 14.90 55.11 17.41 54.62 19.93 54.14 C 19.86 55.33 19.79 56.52 19.68 57.70 C 19.58 58.51 19.50 59.32 19.42 60.13 C 16.10 61.18 12.28 62.04 9.40 59.43 C 11.59 59.30 13.77 59.24 15.96 59.21 C 13.49 58.78 10.79 58.95 8.51 57.81 C 6.62 57.04 7.22 54.90 6.64 53.36 C 5.38 54.16 6.61 56.40 6.26 57.65 C 3.70 55.01 4.07 50.74 6.46 48.13 C 6.42 48.98 6.33 50.69 6.29 51.55 C 6.77 51.45 7.74 51.25 8.23 51.15 C 8.68 49.23 9.03 47.29 9.25 45.33 C 8.58 45.47 7.25 45.75 6.58 45.89 C 6.59 45.31 6.61 44.15 6.62 43.57 C 6.79 43.38 7.13 42.99 7.30 42.80 Z" />
</g>
<g id="#895b11f1">
<path fill="#895b11" opacity="0.95" d=" M 5.16 45.15 C 5.53 44.75 6.26 43.97 6.62 43.57 C 6.61 44.15 6.59 45.31 6.58 45.89 C 6.56 46.63 6.52 47.38 6.46 48.13 C 4.07 50.74 3.70 55.01 6.26 57.65 C 6.33 57.77 6.49 58.00 6.56 58.12 C 7.64 60.60 9.99 61.98 12.19 63.30 C 11.37 63.29 9.72 63.26 8.90 63.24 C 7.43 62.48 6.06 61.52 4.77 60.48 C 3.91 56.62 3.26 52.65 3.90 48.70 C 4.28 47.50 4.72 46.32 5.16 45.15 Z" />
</g>
<g id="#f0f0e7ff">
<path fill="#f0f0e7" opacity="1.00" d=" M 6.58 45.89 C 7.25 45.75 8.58 45.47 9.25 45.33 C 9.03 47.29 8.68 49.23 8.23 51.15 C 7.74 51.25 6.77 51.45 6.29 51.55 C 6.33 50.69 6.42 48.98 6.46 48.13 C 6.52 47.38 6.56 46.63 6.58 45.89 Z" />
<path fill="#f0f0e7" opacity="1.00" d=" M 6.26 57.65 C 6.61 56.40 5.38 54.16 6.64 53.36 C 7.22 54.90 6.62 57.04 8.51 57.81 C 10.79 58.95 13.49 58.78 15.96 59.21 C 13.77 59.24 11.59 59.30 9.40 59.43 C 8.47 58.96 7.52 58.53 6.56 58.12 C 6.49 58.00 6.33 57.77 6.26 57.65 Z" />
</g>
<g id="#b17f16ff">
<path fill="#b17f16" opacity="1.00" d=" M 6.56 58.12 C 7.52 58.53 8.47 58.96 9.40 59.43 C 12.28 62.04 16.10 61.18 19.42 60.13 L 19.22 61.70 C 17.32 63.45 14.61 63.39 12.19 63.30 C 9.99 61.98 7.64 60.60 6.56 58.12 Z" />
</g>
<g id="#00000048">
<path fill="#000000" opacity="0.28" d=" M 21.48 62.03 C 22.02 61.43 23.10 60.23 23.65 59.63 C 30.19 60.08 36.90 59.72 43.30 61.40 C 40.08 62.89 36.49 62.71 33.03 62.79 C 29.18 62.82 25.23 63.18 21.48 62.03 Z" />
</g>
</svg>
