<?xml version="1.0" encoding="UTF-8" ?>
<!DOCTYPE svg PUBLIC "-//W3C//DTD SVG 1.1//EN" "http://www.w3.org/Graphics/SVG/1.1/DTD/svg11.dtd">
<svg width="64pt" height="64pt" viewBox="0 0 64 64" version="1.1" xmlns="http://www.w3.org/2000/svg">
<g id="#03020258">
<path fill="#030202" opacity="0.35" d=" M 57.41 3.78 C 58.65 0.44 63.55 5.36 60.22 6.58 C 60.19 4.91 59.07 3.81 57.41 3.78 Z" />
</g>
<g id="#181817f9">
<path fill="#181817" opacity="0.98" d=" M 57.41 3.78 C 59.07 3.81 60.19 4.91 60.22 6.58 C 58.87 6.83 58.04 7.61 57.74 8.92 C 57.30 8.95 56.41 9.00 55.97 9.03 C 55.55 8.82 54.70 8.40 54.28 8.20 C 54.24 6.46 57.69 6.22 57.41 3.78 Z" />
</g>
<g id="#565655e2">
<path fill="#565655" opacity="0.89" d=" M 54.28 8.20 C 54.70 8.40 55.55 8.82 55.97 9.03 C 55.71 10.03 55.44 11.03 55.18 12.03 C 51.66 11.87 51.32 17.34 48.29 17.77 C 47.17 17.54 46.05 17.33 44.94 17.08 C 47.90 14.13 50.07 9.56 54.28 8.20 Z" />
</g>
<g id="#11100e94">
<path fill="#11100e" opacity="0.58" d=" M 55.97 9.03 C 56.41 9.00 57.30 8.95 57.74 8.92 C 59.28 8.57 61.66 9.79 60.75 11.62 C 59.36 12.30 58.69 13.69 57.77 14.86 C 55.77 15.72 55.63 13.37 55.18 12.03 C 55.44 11.03 55.71 10.03 55.97 9.03 Z" />
</g>
<g id="#6d6967f8">
<path fill="#6d6967" opacity="0.97" d=" M 37.15 21.30 C 40.84 23.56 41.99 17.75 44.94 17.08 C 46.05 17.33 47.17 17.54 48.29 17.77 C 47.26 19.28 46.07 21.07 44.27 21.68 C 41.29 22.26 38.25 25.09 38.08 28.25 L 37.24 27.68 C 36.94 27.44 36.33 26.95 36.03 26.70 C 35.77 26.48 35.24 26.03 34.98 25.81 C 35.61 24.82 36.43 23.90 36.72 22.74 C 36.83 22.38 37.04 21.66 37.15 21.30 Z" />
</g>
<g id="#cc8240fa">
<path fill="#cc8240" opacity="0.98" d=" M 23.29 28.00 C 25.14 22.65 31.79 16.64 37.15 21.30 C 37.04 21.66 36.83 22.38 36.72 22.74 C 33.68 24.95 30.04 27.19 28.86 31.00 C 28.64 31.28 28.22 31.83 28.01 32.11 C 27.12 33.28 26.59 34.67 25.83 35.91 C 24.45 35.07 23.16 34.10 21.85 33.17 C 22.62 31.51 24.06 29.92 23.29 28.00 Z" />
</g>
<g id="#834c33da">
<path fill="#834c33" opacity="0.85" d=" M 57.71 20.73 C 58.89 18.56 63.13 20.90 60.02 21.96 C 59.59 22.05 58.73 22.25 58.30 22.35 C 53.69 29.37 49.56 36.72 44.32 43.31 L 43.26 43.23 C 47.28 35.49 53.20 28.34 57.71 20.73 Z" />
</g>
<g id="#909192fd">
<path fill="#909192" opacity="1.00" d=" M 38.08 28.25 C 38.25 25.09 41.29 22.26 44.27 21.68 C 43.72 22.93 42.68 23.87 41.76 24.84 C 40.53 25.97 39.30 27.11 38.08 28.25 Z" />
</g>
<g id="#1b16143c">
<path fill="#1b1614" opacity="0.24" d=" M 58.30 22.35 C 58.73 22.25 59.59 22.05 60.02 21.96 C 53.18 33.24 46.39 45.00 37.92 55.06 C 37.60 54.12 37.29 53.17 36.98 52.23 C 39.54 49.36 42.36 46.65 44.32 43.31 C 49.56 36.72 53.69 29.37 58.30 22.35 Z" />
</g>
<g id="#925c2aff">
<path fill="#925c2a" opacity="1.00" d=" M 28.86 31.00 C 30.04 27.19 33.68 24.95 36.72 22.74 C 36.43 23.90 35.61 24.82 34.98 25.81 C 32.97 27.58 30.93 29.31 28.86 31.00 Z" />
</g>
<g id="#8a5b32fd">
<path fill="#8a5b32" opacity="1.00" d=" M 38.08 28.25 C 39.30 27.11 40.53 25.97 41.76 24.84 C 42.00 25.32 42.48 26.28 42.72 26.76 C 38.65 28.52 37.57 34.14 32.99 35.13 C 34.67 32.85 36.92 30.89 38.08 28.25 Z" />
</g>
<g id="#9b9793fe">
<path fill="#9b9793" opacity="1.00" d=" M 28.86 31.00 C 30.93 29.31 32.97 27.58 34.98 25.81 C 35.24 26.03 35.77 26.48 36.03 26.70 C 33.60 28.94 31.26 31.27 28.75 33.43 C 28.57 33.10 28.20 32.44 28.01 32.11 C 28.22 31.83 28.64 31.28 28.86 31.00 Z" />
</g>
<g id="#4c4a48ff">
<path fill="#4c4a48" opacity="1.00" d=" M 28.75 33.43 C 31.26 31.27 33.60 28.94 36.03 26.70 C 36.33 26.95 36.94 27.44 37.24 27.68 C 34.90 30.32 32.60 33.03 29.94 35.36 C 29.64 34.88 29.05 33.91 28.75 33.43 Z" />
</g>
<g id="#d07c3bff">
<path fill="#d07c3b" opacity="1.00" d=" M 32.99 35.13 C 37.57 34.14 38.65 28.52 42.72 26.76 C 44.17 28.06 44.19 30.05 43.93 31.84 C 40.95 37.09 35.60 39.37 30.10 41.16 C 28.09 39.09 29.96 37.32 31.79 36.11 C 32.09 35.87 32.69 35.38 32.99 35.13 Z" />
</g>
<g id="#9d9792ff">
<path fill="#9d9792" opacity="1.00" d=" M 29.94 35.36 C 32.60 33.03 34.90 30.32 37.24 27.68 L 38.08 28.25 C 36.92 30.89 34.67 32.85 32.99 35.13 C 32.69 35.38 32.09 35.87 31.79 36.11 C 31.33 35.92 30.40 35.55 29.94 35.36 Z" />
</g>
<g id="#ba7442fc">
<path fill="#ba7442" opacity="1.00" d=" M 25.83 35.91 C 26.59 34.67 27.12 33.28 28.01 32.11 C 28.20 32.44 28.57 33.10 28.75 33.43 C 29.05 33.91 29.64 34.88 29.94 35.36 C 30.40 35.55 31.33 35.92 31.79 36.11 C 29.96 37.32 28.09 39.09 30.10 41.16 C 29.12 41.57 28.11 41.89 27.08 42.13 C 24.78 42.08 23.42 44.12 21.98 45.58 C 20.85 46.75 19.78 47.95 18.71 49.16 C 17.62 47.54 16.73 45.80 15.86 44.05 C 16.85 42.96 17.89 41.66 15.63 42.51 C 13.17 44.25 4.43 43.79 6.93 38.95 C 7.76 35.98 12.85 37.52 13.27 34.17 C 16.15 36.89 18.98 34.43 21.85 33.17 C 23.16 34.10 24.45 35.07 25.83 35.91 Z" />
</g>
<g id="#7c2b0de8">
<path fill="#7c2b0d" opacity="0.91" d=" M 30.10 41.16 C 35.60 39.37 40.95 37.09 43.93 31.84 C 44.42 36.30 39.42 39.05 36.01 40.73 C 32.89 39.56 30.68 42.69 29.28 45.02 C 29.19 43.47 27.80 43.27 26.60 42.91 L 27.08 42.13 C 28.11 41.89 29.12 41.57 30.10 41.16 Z" />
</g>
<g id="#c25221fc">
<path fill="#c25221" opacity="1.00" d=" M 7.11 53.28 C 2.46 50.10 1.87 42.13 6.93 38.95 C 4.43 43.79 13.17 44.25 15.63 42.51 C 17.89 41.66 16.85 42.96 15.86 44.05 C 13.64 45.94 12.25 48.57 10.98 51.15 C 9.70 51.88 8.43 52.62 7.11 53.28 Z" />
</g>
<g id="#c95929ff">
<path fill="#c95929" opacity="1.00" d=" M 21.98 45.58 C 23.42 44.12 24.78 42.08 27.08 42.13 L 26.60 42.91 C 25.74 44.28 24.78 45.60 24.03 47.04 C 24.14 49.25 26.59 49.18 27.91 48.02 C 28.02 49.31 28.09 50.60 28.13 51.90 L 27.34 51.77 C 26.11 51.24 25.16 52.35 24.10 52.78 C 23.20 50.44 22.64 47.99 21.98 45.58 Z" />
</g>
<g id="#983f1af7">
<path fill="#983f1a" opacity="0.97" d=" M 24.03 47.04 C 24.78 45.60 25.74 44.28 26.60 42.91 C 27.80 43.27 29.19 43.47 29.28 45.02 C 29.13 46.16 28.67 47.16 27.91 48.02 C 26.59 49.18 24.14 49.25 24.03 47.04 Z" />
</g>
<g id="#5a341ed6">
<path fill="#5a341e" opacity="0.84" d=" M 36.05 52.13 C 38.13 49.12 40.18 44.62 43.26 43.23 L 44.32 43.31 C 42.36 46.65 39.54 49.36 36.98 52.23 L 36.05 52.13 Z" />
</g>
<g id="#5a463dfe">
<path fill="#5a463d" opacity="1.00" d=" M 10.98 51.15 C 12.25 48.57 13.64 45.94 15.86 44.05 C 16.73 45.80 17.62 47.54 18.71 49.16 C 17.47 50.53 15.79 51.39 14.20 52.27 C 14.89 50.88 15.61 49.49 16.16 48.03 C 14.46 49.11 12.87 50.39 10.98 51.15 Z" />
</g>
<g id="#ca4b21ff">
<path fill="#ca4b21" opacity="1.00" d=" M 18.71 49.16 C 19.78 47.95 20.85 46.75 21.98 45.58 C 22.64 47.99 23.20 50.44 24.10 52.78 C 25.16 52.35 26.11 51.24 27.34 51.77 C 25.77 54.60 23.87 57.60 20.66 58.74 C 16.80 60.41 13.62 57.87 10.64 56.01 C 11.80 54.73 13.00 53.50 14.20 52.27 C 15.79 51.39 17.47 50.53 18.71 49.16 Z" />
</g>
<g id="#2f2420f6">
<path fill="#2f2420" opacity="0.96" d=" M 10.98 51.15 C 12.87 50.39 14.46 49.11 16.16 48.03 C 15.61 49.49 14.89 50.88 14.20 52.27 C 13.00 53.50 11.80 54.73 10.64 56.01 C 10.41 56.25 9.95 56.74 9.72 56.99 C 8.50 56.15 6.63 55.04 7.11 53.28 C 8.43 52.62 9.70 51.88 10.98 51.15 Z" />
</g>
<g id="#651002e0">
<path fill="#651002" opacity="0.88" d=" M 27.34 51.77 L 28.13 51.90 C 27.91 53.72 27.03 55.43 25.84 56.81 C 24.80 57.78 23.77 58.77 22.75 59.75 C 18.30 62.14 13.11 60.30 9.72 56.99 C 9.95 56.74 10.41 56.25 10.64 56.01 C 13.62 57.87 16.80 60.41 20.66 58.74 C 23.87 57.60 25.77 54.60 27.34 51.77 Z" />
</g>
<g id="#473428e4">
<path fill="#473428" opacity="0.89" d=" M 31.06 57.26 C 32.46 55.44 33.72 52.64 36.05 52.13 L 36.98 52.23 C 37.29 53.17 37.60 54.12 37.92 55.06 C 37.29 55.89 37.53 58.27 36.07 57.84 C 34.15 55.36 30.52 60.96 31.06 57.26 Z" />
</g>
<g id="#0804034b">
<path fill="#080403" opacity="0.29" d=" M 22.75 59.75 C 23.77 58.77 24.80 57.78 25.84 56.81 C 27.58 56.87 29.33 56.96 31.06 57.26 C 30.52 60.96 34.15 55.36 36.07 57.84 C 34.27 62.70 26.76 59.16 22.75 59.75 Z" />
</g>
</svg>
