<?xml version="1.0" encoding="UTF-8" ?>
<!DOCTYPE svg PUBLIC "-//W3C//DTD SVG 1.1//EN" "http://www.w3.org/Graphics/SVG/1.1/DTD/svg11.dtd">
<svg width="64pt" height="64pt" viewBox="0 0 64 64" version="1.1" xmlns="http://www.w3.org/2000/svg">
<g id="#dd7516ff">
<path fill="#dd7516" opacity="1.00" d=" M 57.08 2.42 C 60.47 2.17 55.92 5.56 57.08 2.42 Z" />
<path fill="#dd7516" opacity="1.00" d=" M 50.14 4.45 C 51.77 4.29 52.20 4.98 51.43 6.53 C 49.78 6.65 49.35 5.96 50.14 4.45 Z" />
<path fill="#dd7516" opacity="1.00" d=" M 53.75 2.81 C 55.61 5.90 59.50 3.74 62.29 4.45 L 59.82 7.93 L 59.05 4.63 L 58.58 7.45 C 58.05 7.58 56.99 7.83 56.45 7.96 C 58.06 8.53 59.58 9.26 61.02 10.16 C 59.40 10.32 56.15 10.63 54.53 10.78 C 55.87 11.37 58.57 12.54 59.91 13.13 C 57.72 13.33 55.51 13.55 53.51 14.58 C 53.39 14.49 53.14 14.32 53.01 14.24 C 46.40 20.71 39.95 27.34 33.39 33.86 L 33.65 34.61 L 33.01 34.57 C 32.29 35.46 31.50 36.28 30.64 37.03 C 30.67 37.87 30.74 39.54 30.77 40.38 C 33.25 39.99 35.74 39.58 38.24 39.38 C 38.38 40.42 38.52 41.46 38.65 42.51 L 37.39 42.35 L 37.42 43.82 C 36.92 43.71 35.93 43.48 35.43 43.37 L 35.66 44.27 C 34.11 44.80 32.57 45.33 31.02 45.86 C 30.67 46.61 29.95 48.10 29.60 48.85 C 29.56 49.78 29.52 50.71 29.48 51.65 L 28.56 51.36 C 28.58 52.18 28.63 53.82 28.65 54.64 L 27.31 54.48 C 27.46 54.99 27.75 56.00 27.89 56.50 L 27.16 56.56 C 26.29 57.43 25.44 58.31 24.59 59.20 C 24.54 59.48 24.44 60.05 24.39 60.34 C 24.07 60.40 23.44 60.53 23.12 60.59 C 21.58 61.01 19.36 63.16 18.64 59.81 L 19.95 62.37 C 17.93 62.39 15.92 62.36 13.91 62.28 L 15.36 60.34 C 14.13 60.95 12.89 61.52 11.62 62.05 L 11.50 61.10 C 4.63 58.67 0.50 51.12 1.68 44.00 C 3.75 40.52 6.01 36.47 10.28 35.46 C 12.91 34.39 16.39 34.55 18.18 32.07 C 19.45 28.66 20.44 25.07 22.80 22.21 C 23.98 22.38 25.17 22.55 26.35 22.73 C 26.85 25.38 27.32 28.04 27.73 30.71 C 30.99 29.56 33.18 26.82 35.54 24.46 C 39.78 20.07 44.20 15.85 48.30 11.32 C 48.30 10.11 48.30 8.90 48.31 7.69 C 49.36 7.33 50.43 7.00 51.43 6.53 C 53.19 6.03 53.96 4.79 53.75 2.81 Z" />
</g>
</svg>
