<?xml version="1.0" encoding="UTF-8" ?>
<!DOCTYPE svg PUBLIC "-//W3C//DTD SVG 1.1//EN" "http://www.w3.org/Graphics/SVG/1.1/DTD/svg11.dtd">
<svg width="64pt" height="64pt" viewBox="0 0 64 64" version="1.1" xmlns="http://www.w3.org/2000/svg">
<g id="#2d2e32fe">
<path fill="#2d2e32" opacity="1.00" d=" M 3.00 6.08 C 4.56 3.95 6.64 1.37 10.00 3.04 C 25.67 2.95 41.34 2.99 57.01 3.01 C 58.87 2.90 59.99 4.81 61.01 6.07 C 61.04 24.08 60.92 42.09 61.05 60.10 L 61.04 61.15 L 60.21 61.31 C 41.46 60.72 22.68 61.06 3.92 61.04 C 1.78 42.98 3.57 24.36 3.00 6.08 M 5.04 13.02 C 4.95 28.35 4.98 43.68 5.03 59.01 L 6.00 58.99 C 9.99 59.08 13.99 59.08 17.99 58.97 C 17.98 58.48 17.96 57.52 17.96 57.04 C 17.88 52.14 18.89 46.80 16.80 42.23 C 15.52 41.74 13.55 42.54 12.75 41.24 C 13.36 34.26 13.03 27.22 12.78 20.24 C 12.84 18.44 12.95 14.84 13.00 13.04 C 10.35 12.92 7.69 12.91 5.04 13.02 M 21.19 13.97 C 20.90 16.64 20.85 19.31 21.03 22.00 C 21.02 27.33 20.99 32.67 20.96 38.00 C 23.45 42.78 16.55 44.23 19.03 49.00 C 19.01 51.45 18.96 56.36 18.94 58.82 L 19.72 58.63 C 23.09 59.21 26.56 59.13 29.96 58.84 C 31.31 58.26 32.69 58.26 34.05 58.82 C 37.43 59.27 40.85 58.87 44.24 58.72 C 44.42 56.29 44.79 51.43 44.97 49.00 C 47.45 44.23 40.55 42.78 43.05 38.00 C 43.01 32.67 42.98 27.33 42.97 22.00 C 43.08 19.32 43.03 16.64 42.82 13.97 C 42.07 12.15 36.92 12.15 36.19 13.97 C 35.90 16.64 35.85 19.31 36.04 22.00 C 35.82 28.33 36.13 34.65 36.07 40.98 C 33.37 40.91 30.68 40.89 27.98 40.94 C 27.87 34.62 28.14 28.31 27.97 22.00 C 28.08 19.32 28.03 16.64 27.82 13.97 C 27.07 12.15 21.92 12.15 21.19 13.97 M 51.00 13.01 C 51.08 14.82 51.23 18.45 51.31 20.27 C 50.46 27.21 51.12 34.27 51.25 41.24 C 50.48 42.56 48.47 41.74 47.21 42.24 C 44.65 46.70 46.45 52.14 46.04 56.99 C 45.33 62.30 55.21 57.31 58.01 58.99 L 58.97 58.99 C 59.03 43.68 59.03 28.36 58.97 13.05 C 56.31 12.92 53.66 12.90 51.00 13.01 Z" />
</g>
<g id="#00000034">
<path fill="#000000" opacity="0.20" d=" M 2.04 5.96 L 3.00 6.08 C 3.57 24.36 1.78 42.98 3.92 61.04 L 4.29 61.86 C 22.92 61.80 41.65 62.78 60.21 61.31 L 61.04 61.15 C 61.02 61.60 60.98 62.50 60.96 62.95 C 41.70 62.96 22.42 63.19 3.17 62.87 C 1.36 59.21 2.35 54.90 1.98 51.01 C 2.04 35.99 1.92 20.98 2.04 5.96 Z" />
<path fill="#000000" opacity="0.20" d=" M 61.01 6.07 L 61.96 5.97 C 62.00 23.95 62.08 41.94 61.96 59.93 L 61.05 60.10 C 60.92 42.09 61.04 24.08 61.01 6.07 Z" />
</g>
<g id="#a3a3a3ff">
<path fill="#a3a3a3" opacity="1.00" d=" M 5.04 13.02 C 7.69 12.91 10.35 12.92 13.00 13.04 C 12.95 14.84 12.84 18.44 12.78 20.24 C 13.58 14.77 11.46 12.35 6.06 14.01 C 6.00 16.96 5.94 19.91 5.97 22.86 C 6.01 34.59 5.98 46.31 6.02 58.03 L 6.00 58.99 L 5.03 59.01 C 4.98 43.68 4.95 28.35 5.04 13.02 Z" />
<path fill="#a3a3a3" opacity="1.00" d=" M 21.19 13.97 C 21.92 12.15 27.07 12.15 27.82 13.97 C 26.16 13.97 22.84 13.97 21.19 13.97 Z" />
<path fill="#a3a3a3" opacity="1.00" d=" M 36.19 13.97 C 36.92 12.15 42.07 12.15 42.82 13.97 C 41.16 13.97 37.84 13.97 36.19 13.97 Z" />
<path fill="#a3a3a3" opacity="1.00" d=" M 51.00 13.01 C 53.66 12.90 56.31 12.92 58.97 13.05 C 59.03 28.36 59.03 43.68 58.97 58.99 L 58.01 58.99 L 57.98 58.03 C 58.01 46.31 57.99 34.59 58.03 22.88 C 58.03 19.92 58.13 16.96 57.91 14.01 C 51.30 11.11 51.83 16.17 51.31 20.27 C 51.23 18.45 51.08 14.82 51.00 13.01 Z" />
<path fill="#a3a3a3" opacity="1.00" d=" M 27.98 40.94 C 30.68 40.89 33.37 40.91 36.07 40.98 C 34.45 42.98 29.81 41.78 32.99 47.05 C 32.79 50.73 33.08 54.38 33.87 57.97 L 34.05 58.82 C 32.69 58.26 31.31 58.26 29.96 58.84 L 30.13 58.00 C 30.25 52.62 34.00 43.60 27.98 40.94 Z" />
</g>
<g id="#d7d7d7ff">
<path fill="#d7d7d7" opacity="1.00" d=" M 6.06 14.01 C 11.46 12.35 13.58 14.77 12.78 20.24 C 13.03 27.22 13.36 34.26 12.75 41.24 C 11.22 35.11 12.43 28.40 11.90 22.02 C 10.41 22.23 7.45 22.65 5.97 22.86 C 5.94 19.91 6.00 16.96 6.06 14.01 Z" />
<path fill="#d7d7d7" opacity="1.00" d=" M 21.19 13.97 C 22.84 13.97 26.16 13.97 27.82 13.97 C 28.03 16.64 28.08 19.32 27.97 22.00 C 26.23 22.00 22.76 22.00 21.03 22.00 C 20.85 19.31 20.90 16.64 21.19 13.97 Z" />
<path fill="#d7d7d7" opacity="1.00" d=" M 36.19 13.97 C 37.84 13.97 41.16 13.97 42.82 13.97 C 43.03 16.64 43.08 19.32 42.97 22.00 C 41.23 22.00 37.77 22.00 36.04 22.00 C 35.85 19.31 35.90 16.64 36.19 13.97 Z" />
<path fill="#d7d7d7" opacity="1.00" d=" M 51.31 20.27 C 51.83 16.17 51.30 11.11 57.91 14.01 C 58.13 16.96 58.03 19.92 58.03 22.88 C 56.55 22.65 53.57 22.21 52.08 21.99 C 51.19 28.28 53.45 35.23 51.25 41.24 C 51.12 34.27 50.46 27.21 51.31 20.27 Z" />
<path fill="#d7d7d7" opacity="1.00" d=" M 6.02 58.03 C 10.02 58.07 14.02 57.73 17.96 57.04 C 17.96 57.52 17.98 58.48 17.99 58.97 C 13.99 59.08 9.99 59.08 6.00 58.99 L 6.02 58.03 Z" />
<path fill="#d7d7d7" opacity="1.00" d=" M 46.04 56.99 C 49.88 58.32 53.98 58.08 57.98 58.03 L 58.01 58.99 C 55.21 57.31 45.33 62.30 46.04 56.99 Z" />
<path fill="#d7d7d7" opacity="1.00" d=" M 19.72 58.63 C 23.10 57.62 26.67 58.09 30.13 58.00 L 29.96 58.84 C 26.56 59.13 23.09 59.21 19.72 58.63 Z" />
<path fill="#d7d7d7" opacity="1.00" d=" M 33.87 57.97 C 37.34 57.96 40.80 58.22 44.24 58.72 C 40.85 58.87 37.43 59.27 34.05 58.82 L 33.87 57.97 Z" />
</g>
<g id="#f9f9f9ff">
<path fill="#f9f9f9" opacity="1.00" d=" M 5.97 22.86 C 7.45 22.65 10.41 22.23 11.90 22.02 C 12.43 28.40 11.22 35.11 12.75 41.24 C 13.55 42.54 15.52 41.74 16.80 42.23 C 18.89 46.80 17.88 52.14 17.96 57.04 C 14.02 57.73 10.02 58.07 6.02 58.03 C 5.98 46.31 6.01 34.59 5.97 22.86 Z" />
<path fill="#f9f9f9" opacity="1.00" d=" M 21.03 22.00 C 22.76 22.00 26.23 22.00 27.97 22.00 C 28.14 28.31 27.87 34.62 27.98 40.94 C 34.00 43.60 30.25 52.62 30.13 58.00 C 26.67 58.09 23.10 57.62 19.72 58.63 L 18.94 58.82 C 18.96 56.36 19.01 51.45 19.03 49.00 C 16.55 44.23 23.45 42.78 20.96 38.00 C 20.99 32.67 21.02 27.33 21.03 22.00 Z" />
<path fill="#f9f9f9" opacity="1.00" d=" M 36.04 22.00 C 37.77 22.00 41.23 22.00 42.97 22.00 C 42.98 27.33 43.01 32.67 43.05 38.00 C 40.55 42.78 47.45 44.23 44.97 49.00 C 44.79 51.43 44.42 56.29 44.24 58.72 C 40.80 58.22 37.34 57.96 33.87 57.97 C 33.08 54.38 32.79 50.73 32.99 47.05 C 29.81 41.78 34.45 42.98 36.07 40.98 C 36.13 34.65 35.82 28.33 36.04 22.00 Z" />
<path fill="#f9f9f9" opacity="1.00" d=" M 52.08 21.99 C 53.57 22.21 56.55 22.65 58.03 22.88 C 57.99 34.59 58.01 46.31 57.98 58.03 C 53.98 58.08 49.88 58.32 46.04 56.99 C 46.45 52.14 44.65 46.70 47.21 42.24 C 48.47 41.74 50.48 42.56 51.25 41.24 C 53.45 35.23 51.19 28.28 52.08 21.99 Z" />
</g>
<g id="#00000066">
<path fill="#000000" opacity="0.40" d=" M 3.92 61.04 C 22.68 61.06 41.46 60.72 60.21 61.31 C 41.65 62.78 22.92 61.80 4.29 61.86 L 3.92 61.04 Z" />
</g>
</svg>
