<?xml version="1.0" encoding="UTF-8" ?>
<!DOCTYPE svg PUBLIC "-//W3C//DTD SVG 1.1//EN" "http://www.w3.org/Graphics/SVG/1.1/DTD/svg11.dtd">
<svg width="64pt" height="64pt" viewBox="0 0 64 64" version="1.1" xmlns="http://www.w3.org/2000/svg">
<g id="#62382ef3">
<path fill="#62382e" opacity="0.95" d=" M 13.95 10.23 C 18.99 4.44 27.69 2.80 35.10 3.41 C 37.10 3.86 39.83 3.47 41.14 5.34 C 36.18 5.77 29.25 2.10 26.12 7.68 C 23.03 12.41 20.88 17.71 19.80 23.26 C 23.27 23.26 26.74 23.35 30.21 23.58 C 30.25 23.16 30.33 22.31 30.37 21.88 C 31.72 19.03 33.70 16.42 36.56 14.95 L 35.81 16.15 C 33.75 18.19 32.17 20.63 31.18 23.36 C 32.75 23.82 34.27 24.40 35.89 24.70 C 37.14 24.98 38.40 25.27 39.63 25.64 C 39.15 25.93 38.17 26.51 37.69 26.80 C 35.75 26.46 33.81 26.09 31.87 25.72 C 31.89 26.53 31.94 28.15 31.96 28.95 C 31.53 28.82 30.66 28.55 30.22 28.41 C 30.00 27.38 29.80 26.35 29.60 25.31 C 26.16 25.08 22.71 25.04 19.27 25.17 C 19.10 28.49 18.85 31.80 18.78 35.12 C 18.53 33.43 17.82 31.86 17.18 30.28 C 17.15 28.62 17.37 26.97 17.55 25.31 C 15.93 25.68 14.30 26.03 12.68 26.39 C 12.38 28.77 12.06 31.16 11.73 33.55 L 11.31 33.04 C 11.07 32.74 10.60 32.13 10.36 31.83 C 10.66 30.15 10.84 28.45 11.01 26.75 C 9.04 27.64 7.13 28.67 5.41 30.00 C 5.12 30.22 4.52 30.67 4.23 30.90 C 4.10 29.24 4.03 27.58 3.93 25.93 C 5.13 20.15 8.16 14.23 13.08 10.81 C 10.59 14.28 11.56 18.40 12.34 22.25 C 12.40 22.82 12.52 23.96 12.57 24.54 C 14.32 24.24 16.07 23.95 17.82 23.65 C 19.11 19.15 20.33 14.56 22.67 10.46 C 23.64 8.80 24.41 7.03 25.06 5.23 C 21.23 6.62 17.84 9.00 13.95 10.23 M 5.29 26.99 C 7.29 26.58 9.24 25.94 11.11 25.12 C 10.89 22.33 10.64 19.50 9.61 16.86 C 7.10 19.68 6.29 23.46 5.29 26.99 Z" />
</g>
<g id="#cb6c47ff">
<path fill="#cb6c47" opacity="1.00" d=" M 13.95 10.23 C 17.84 9.00 21.23 6.62 25.06 5.23 C 24.41 7.03 23.64 8.80 22.67 10.46 C 17.62 12.08 11.83 16.29 12.34 22.25 C 11.56 18.40 10.59 14.28 13.08 10.81 L 13.24 10.47 L 13.95 10.23 Z" />
</g>
<g id="#cc5d1eff">
<path fill="#cc5d1e" opacity="1.00" d=" M 26.12 7.68 C 29.25 2.10 36.18 5.77 41.14 5.34 C 44.38 5.37 46.87 7.84 49.52 9.37 C 49.28 9.66 48.79 10.24 48.55 10.53 C 46.51 11.20 44.42 11.68 42.35 12.24 C 37.67 8.72 31.94 7.20 26.12 7.68 Z" />
</g>
<g id="#fc974dff">
<path fill="#fc974d" opacity="1.00" d=" M 26.12 7.68 C 31.94 7.20 37.67 8.72 42.35 12.24 C 40.79 12.74 39.26 13.36 37.81 14.14 C 37.28 13.62 36.23 12.59 35.70 12.08 C 33.24 12.22 30.37 12.73 29.23 15.25 C 27.54 17.45 29.52 19.82 30.37 21.88 C 30.33 22.31 30.25 23.16 30.21 23.58 C 26.74 23.35 23.27 23.26 19.80 23.26 C 20.88 17.71 23.03 12.41 26.12 7.68 Z" />
</g>
<g id="#0e0503ff">
<path fill="#0e0503" opacity="1.00" d=" M 49.52 9.37 L 49.70 9.15 C 50.81 10.18 51.94 11.20 53.06 12.21 C 50.99 12.19 48.82 11.92 46.84 12.71 C 46.39 12.82 45.47 13.03 45.02 13.14 C 43.33 13.55 41.64 13.91 39.98 14.41 C 38.54 14.86 37.18 15.52 35.81 16.15 L 36.56 14.95 C 36.87 14.75 37.50 14.34 37.81 14.14 C 39.26 13.36 40.79 12.74 42.35 12.24 C 44.42 11.68 46.51 11.20 48.55 10.53 C 48.79 10.24 49.28 9.66 49.52 9.37 Z" />
<path fill="#0e0503" opacity="1.00" d=" M 37.69 26.80 C 38.17 26.51 39.15 25.93 39.63 25.64 C 40.20 25.82 41.33 26.17 41.89 26.34 C 43.69 26.98 45.45 27.72 47.17 28.53 C 50.72 30.22 54.08 32.27 57.27 34.56 C 58.10 35.12 58.95 35.65 59.80 36.18 C 60.21 32.75 60.44 29.29 60.18 25.85 C 62.98 38.04 56.80 51.70 45.56 57.31 C 43.00 58.62 40.34 59.75 37.60 60.64 C 31.69 61.66 24.95 61.20 19.74 57.97 C 20.59 57.96 22.29 57.93 23.14 57.92 C 22.52 56.59 21.85 55.27 21.23 53.94 C 21.06 53.57 20.73 52.84 20.57 52.47 C 19.93 51.01 19.31 49.54 18.76 48.04 C 18.31 45.90 17.92 43.75 17.60 41.58 C 17.19 38.37 17.13 35.12 17.16 31.88 L 17.18 30.28 C 17.82 31.86 18.53 33.43 18.78 35.12 C 18.80 35.65 18.82 36.70 18.84 37.23 C 19.03 41.22 19.85 45.15 20.95 48.99 C 21.13 49.54 21.50 50.63 21.68 51.18 C 22.43 52.97 23.42 54.65 24.53 56.24 C 26.86 59.97 31.52 57.72 35.02 57.77 C 39.25 57.74 43.24 56.33 46.93 54.38 C 45.11 51.51 42.46 49.36 40.26 46.80 C 38.94 45.23 37.67 43.61 36.44 41.96 C 35.68 40.91 34.94 39.84 34.23 38.75 C 32.46 35.89 31.19 32.73 30.46 29.45 L 30.22 28.41 C 30.66 28.55 31.53 28.82 31.96 28.95 C 32.44 30.71 32.99 32.45 33.65 34.14 C 34.65 36.13 35.80 38.05 37.02 39.91 C 38.08 41.40 39.20 42.84 40.36 44.25 C 42.85 47.15 45.59 49.82 48.18 52.62 C 48.75 52.27 49.87 51.57 50.44 51.22 C 53.80 48.10 55.85 43.85 57.92 39.82 C 58.94 38.29 57.15 37.15 56.26 36.17 C 54.89 35.10 53.50 34.07 52.05 33.11 C 50.25 31.95 48.39 30.88 46.46 29.95 C 44.79 29.18 43.08 28.49 41.35 27.90 C 40.14 27.50 38.92 27.13 37.69 26.80 Z" />
<path fill="#0e0503" opacity="1.00" d=" M 10.36 31.83 C 10.60 32.13 11.07 32.74 11.31 33.04 C 11.02 34.31 10.69 35.57 10.34 36.82 C 9.73 38.84 9.04 40.84 8.45 42.86 C 8.19 43.83 7.97 44.80 7.77 45.78 L 7.56 47.15 C 6.88 46.00 6.21 44.84 5.56 43.68 L 5.69 43.54 C 6.71 42.52 7.56 41.34 7.99 39.95 C 8.85 37.26 9.69 34.57 10.36 31.83 Z" />
</g>
<g id="#f9954bff">
<path fill="#f9954b" opacity="1.00" d=" M 12.34 22.25 C 11.83 16.29 17.62 12.08 22.67 10.46 C 20.33 14.56 19.11 19.15 17.82 23.65 C 16.07 23.95 14.32 24.24 12.57 24.54 C 12.52 23.96 12.40 22.82 12.34 22.25 Z" />
</g>
<g id="#feb68cff">
<path fill="#feb68c" opacity="1.00" d=" M 29.23 15.25 C 30.37 12.73 33.24 12.22 35.70 12.08 C 36.23 12.59 37.28 13.62 37.81 14.14 C 37.50 14.34 36.87 14.75 36.56 14.95 C 33.70 16.42 31.72 19.03 30.37 21.88 C 29.52 19.82 27.54 17.45 29.23 15.25 Z" />
</g>
<g id="#cc5a0eff">
<path fill="#cc5a0e" opacity="1.00" d=" M 45.02 13.14 C 45.47 13.03 46.39 12.82 46.84 12.71 C 47.60 12.73 49.12 12.78 49.88 12.80 C 49.29 15.37 51.22 17.53 51.45 20.00 C 51.26 23.30 49.35 26.18 47.17 28.53 C 45.45 27.72 43.69 26.98 41.89 26.34 C 43.12 24.80 44.48 23.33 45.43 21.58 C 46.38 18.83 45.53 15.89 45.02 13.14 Z" />
</g>
<g id="#9c3c08ff">
<path fill="#9c3c08" opacity="1.00" d=" M 49.88 12.80 C 50.63 12.73 52.12 12.59 52.86 12.52 C 53.95 13.70 55.31 14.78 55.79 16.38 C 57.73 22.25 58.16 28.45 57.27 34.56 C 54.08 32.27 50.72 30.22 47.17 28.53 C 49.35 26.18 51.26 23.30 51.45 20.00 C 51.22 17.53 49.29 15.37 49.88 12.80 Z" />
</g>
<g id="#e27224ff">
<path fill="#e27224" opacity="1.00" d=" M 39.98 14.41 C 41.64 13.91 43.33 13.55 45.02 13.14 C 45.53 15.89 46.38 18.83 45.43 21.58 C 44.48 23.33 43.12 24.80 41.89 26.34 C 41.33 26.17 40.20 25.82 39.63 25.64 C 38.40 25.27 37.14 24.98 35.89 24.70 C 40.52 24.24 42.50 19.42 41.63 15.31 C 41.21 15.08 40.39 14.63 39.98 14.41 Z" />
</g>
<g id="#f3aa7fff">
<path fill="#f3aa7f" opacity="1.00" d=" M 35.81 16.15 C 37.18 15.52 38.54 14.86 39.98 14.41 C 40.39 14.63 41.21 15.08 41.63 15.31 C 42.50 19.42 40.52 24.24 35.89 24.70 C 34.27 24.40 32.75 23.82 31.18 23.36 C 32.17 20.63 33.75 18.19 35.81 16.15 Z" />
</g>
<g id="#d97846ff">
<path fill="#d97846" opacity="1.00" d=" M 5.29 26.99 C 6.29 23.46 7.10 19.68 9.61 16.86 C 10.64 19.50 10.89 22.33 11.11 25.12 C 9.24 25.94 7.29 26.58 5.29 26.99 Z" />
</g>
<g id="#481201ef">
<path fill="#481201" opacity="0.94" d=" M 55.79 16.38 C 58.34 18.89 59.29 22.49 60.18 25.85 C 60.44 29.29 60.21 32.75 59.80 36.18 C 58.95 35.65 58.10 35.12 57.27 34.56 C 58.16 28.45 57.73 22.25 55.79 16.38 Z" />
</g>
<g id="#fe8d2fff">
<path fill="#fe8d2f" opacity="1.00" d=" M 12.68 26.39 C 14.30 26.03 15.93 25.68 17.55 25.31 C 17.37 26.97 17.15 28.62 17.18 30.28 L 17.16 31.88 C 15.71 32.86 14.26 33.85 12.81 34.84 C 12.54 34.51 12.00 33.87 11.73 33.55 C 12.06 31.16 12.38 28.77 12.68 26.39 Z" />
</g>
<g id="#f57e23ff">
<path fill="#f57e23" opacity="1.00" d=" M 19.27 25.17 C 22.71 25.04 26.16 25.08 29.60 25.31 C 29.80 26.35 30.00 27.38 30.22 28.41 L 30.46 29.45 C 25.34 29.46 21.93 33.73 18.84 37.23 C 18.82 36.70 18.80 35.65 18.78 35.12 C 18.85 31.80 19.10 28.49 19.27 25.17 Z" />
</g>
<g id="#812e15ff">
<path fill="#812e15" opacity="1.00" d=" M 5.69 43.54 C 3.19 38.05 2.72 31.80 3.93 25.93 C 4.03 27.58 4.10 29.24 4.23 30.90 C 4.52 30.67 5.12 30.22 5.41 30.00 C 5.43 33.46 5.21 37.36 7.99 39.95 C 7.56 41.34 6.71 42.52 5.69 43.54 Z" />
</g>
<g id="#db6b23ff">
<path fill="#db6b23" opacity="1.00" d=" M 31.87 25.72 C 33.81 26.09 35.75 26.46 37.69 26.80 C 38.92 27.13 40.14 27.50 41.35 27.90 C 38.61 29.76 35.92 31.71 33.65 34.14 C 32.99 32.45 32.44 30.71 31.96 28.95 C 31.94 28.15 31.89 26.53 31.87 25.72 Z" />
</g>
<g id="#db7331ff">
<path fill="#db7331" opacity="1.00" d=" M 5.41 30.00 C 7.13 28.67 9.04 27.64 11.01 26.75 C 10.84 28.45 10.66 30.15 10.36 31.83 C 9.69 34.57 8.85 37.26 7.99 39.95 C 5.21 37.36 5.43 33.46 5.41 30.00 Z" />
</g>
<g id="#c0550dff">
<path fill="#c0550d" opacity="1.00" d=" M 41.35 27.90 C 43.08 28.49 44.79 29.18 46.46 29.95 C 43.49 33.44 39.61 36.08 37.02 39.91 C 35.80 38.05 34.65 36.13 33.65 34.14 C 35.92 31.71 38.61 29.76 41.35 27.90 Z" />
</g>
<g id="#d45e10ff">
<path fill="#d45e10" opacity="1.00" d=" M 18.84 37.23 C 21.93 33.73 25.34 29.46 30.46 29.45 C 31.19 32.73 32.46 35.89 34.23 38.75 C 29.38 41.56 24.97 45.10 20.95 48.99 C 19.85 45.15 19.03 41.22 18.84 37.23 Z" />
</g>
<g id="#a54709ff">
<path fill="#a54709" opacity="1.00" d=" M 46.46 29.95 C 48.39 30.88 50.25 31.95 52.05 33.11 C 48.22 36.88 43.18 39.57 40.36 44.25 C 39.20 42.84 38.08 41.40 37.02 39.91 C 39.61 36.08 43.49 33.44 46.46 29.95 Z" />
</g>
<g id="#f07822ff">
<path fill="#f07822" opacity="1.00" d=" M 12.81 34.84 C 14.26 33.85 15.71 32.86 17.16 31.88 C 17.13 35.12 17.19 38.37 17.60 41.58 C 15.75 41.29 13.91 41.00 12.06 40.71 C 11.48 39.42 10.91 38.12 10.34 36.82 C 10.69 35.57 11.02 34.31 11.31 33.04 L 11.73 33.55 C 12.00 33.87 12.54 34.51 12.81 34.84 Z" />
</g>
<g id="#863806ff">
<path fill="#863806" opacity="1.00" d=" M 52.05 33.11 C 53.50 34.07 54.89 35.10 56.26 36.17 C 53.90 41.22 49.40 44.62 45.96 48.86 C 47.19 48.79 48.42 48.72 49.65 48.64 C 49.85 49.29 50.24 50.57 50.44 51.22 C 49.87 51.57 48.75 52.27 48.18 52.62 C 45.59 49.82 42.85 47.15 40.36 44.25 C 43.18 39.57 48.22 36.88 52.05 33.11 Z" />
</g>
<g id="#5e2203ff">
<path fill="#5e2203" opacity="1.00" d=" M 56.26 36.17 C 57.15 37.15 58.94 38.29 57.92 39.82 C 55.85 43.85 53.80 48.10 50.44 51.22 C 50.24 50.57 49.85 49.29 49.65 48.64 C 48.42 48.72 47.19 48.79 45.96 48.86 C 49.40 44.62 53.90 41.22 56.26 36.17 Z" />
</g>
<g id="#df7b2bff">
<path fill="#df7b2b" opacity="1.00" d=" M 8.45 42.86 C 9.04 40.84 9.73 38.84 10.34 36.82 C 10.91 38.12 11.48 39.42 12.06 40.71 C 13.48 43.76 14.98 47.46 18.76 48.04 C 19.31 49.54 19.93 51.01 20.57 52.47 C 18.37 52.83 16.63 51.28 15.01 50.04 C 12.42 48.05 10.35 45.50 8.45 42.86 Z" />
</g>
<g id="#b04d0aff">
<path fill="#b04d0a" opacity="1.00" d=" M 34.23 38.75 C 34.94 39.84 35.68 40.91 36.44 41.96 C 32.63 45.48 28.15 48.21 24.45 51.87 C 23.53 51.62 22.61 51.40 21.68 51.18 C 21.50 50.63 21.13 49.54 20.95 48.99 C 24.97 45.10 29.38 41.56 34.23 38.75 Z" />
</g>
<g id="#d86111ff">
<path fill="#d86111" opacity="1.00" d=" M 12.06 40.71 C 13.91 41.00 15.75 41.29 17.60 41.58 C 17.92 43.75 18.31 45.90 18.76 48.04 C 14.98 47.46 13.48 43.76 12.06 40.71 Z" />
</g>
<g id="#9a4207ff">
<path fill="#9a4207" opacity="1.00" d=" M 36.44 41.96 C 37.67 43.61 38.94 45.23 40.26 46.80 C 37.53 48.11 34.98 49.76 32.51 51.51 C 32.33 52.10 31.96 53.29 31.77 53.89 C 29.23 53.67 26.83 52.75 24.45 51.87 C 28.15 48.21 32.63 45.48 36.44 41.96 Z" />
</g>
<g id="#9c3d0cff">
<path fill="#9c3d0c" opacity="1.00" d=" M 7.77 45.78 C 7.97 44.80 8.19 43.83 8.45 42.86 C 10.35 45.50 12.42 48.05 15.01 50.04 C 16.63 51.28 18.37 52.83 20.57 52.47 C 20.73 52.84 21.06 53.57 21.23 53.94 L 21.24 55.56 C 15.82 53.80 11.50 49.95 7.77 45.78 Z" />
</g>
<g id="#521602f3">
<path fill="#521602" opacity="0.95" d=" M 7.77 45.78 C 11.50 49.95 15.82 53.80 21.24 55.56 L 21.23 53.94 C 21.85 55.27 22.52 56.59 23.14 57.92 C 22.29 57.93 20.59 57.96 19.74 57.97 C 14.74 55.70 10.34 51.90 7.56 47.15 L 7.77 45.78 Z" />
</g>
<g id="#7d3405ff">
<path fill="#7d3405" opacity="1.00" d=" M 32.51 51.51 C 34.98 49.76 37.53 48.11 40.26 46.80 C 42.46 49.36 45.11 51.51 46.93 54.38 C 43.24 56.33 39.25 57.74 35.02 57.77 C 31.52 57.72 26.86 59.97 24.53 56.24 C 30.13 56.31 36.00 56.83 41.21 54.32 C 38.06 54.20 34.91 54.15 31.77 53.89 C 31.96 53.29 32.33 52.10 32.51 51.51 Z" />
</g>
<g id="#c16b28ff">
<path fill="#c16b28" opacity="1.00" d=" M 21.68 51.18 C 22.61 51.40 23.53 51.62 24.45 51.87 C 26.83 52.75 29.23 53.67 31.77 53.89 C 34.91 54.15 38.06 54.20 41.21 54.32 C 36.00 56.83 30.13 56.31 24.53 56.24 C 23.42 54.65 22.43 52.97 21.68 51.18 Z" />
</g>
<g id="#04000083">
<path fill="#040000" opacity="0.51" d=" M 37.60 60.64 C 40.34 59.75 43.00 58.62 45.56 57.31 C 48.51 58.88 52.08 58.04 54.98 59.78 C 49.35 60.95 43.22 62.50 37.60 60.64 Z" />
</g>
</svg>
