<?xml version="1.0" encoding="UTF-8" ?>
<!DOCTYPE svg PUBLIC "-//W3C//DTD SVG 1.1//EN" "http://www.w3.org/Graphics/SVG/1.1/DTD/svg11.dtd">
<svg width="64pt" height="64pt" viewBox="0 0 64 64" version="1.1" xmlns="http://www.w3.org/2000/svg">
<g id="#d08a2aff">
<path fill="#d08a2a" opacity="1.00" d=" M 38.65 2.39 C 44.48 0.81 51.00 1.30 56.30 4.32 C 55.87 5.32 55.45 6.33 55.04 7.33 C 51.87 6.95 49.37 5.01 46.73 3.43 C 44.04 3.07 41.32 2.95 38.65 2.39 Z" />
</g>
<g id="#d79733ff">
<path fill="#d79733" opacity="1.00" d=" M 7.86 25.01 C 14.62 13.88 25.80 5.04 38.65 2.39 C 41.32 2.95 44.04 3.07 46.73 3.43 C 49.37 5.01 51.87 6.95 55.04 7.33 C 52.32 10.11 50.29 14.26 46.20 15.10 C 44.61 13.15 42.50 12.02 39.95 12.65 C 40.91 11.58 41.85 10.48 42.80 9.40 C 39.39 9.53 34.73 6.57 32.37 10.23 C 32.00 10.01 31.26 9.59 30.89 9.37 C 28.59 9.89 26.19 10.14 23.99 11.01 C 21.87 12.50 20.13 14.45 18.21 16.19 C 13.12 20.85 10.49 27.40 7.57 33.49 C 5.79 37.35 10.25 40.17 9.64 43.93 C 10.22 44.38 10.81 44.82 11.40 45.26 C 11.59 43.82 10.39 41.57 12.12 40.83 C 12.31 41.38 12.69 42.47 12.88 43.02 C 14.02 42.90 15.16 42.79 16.30 42.67 C 16.44 42.97 16.71 43.58 16.84 43.88 C 15.75 46.41 14.24 48.76 12.31 50.74 C 10.28 52.07 8.16 54.42 5.49 53.49 C 4.36 52.57 3.37 51.51 2.37 50.47 C 0.98 41.62 3.15 32.57 7.86 25.01 Z" />
</g>
<g id="#b26214ff">
<path fill="#b26214" opacity="1.00" d=" M 56.30 4.32 C 58.42 5.96 60.27 8.05 61.18 10.61 C 60.59 16.68 62.46 23.97 57.98 28.93 C 55.48 31.76 54.67 35.59 52.47 38.60 C 44.85 47.72 34.49 54.59 23.09 57.98 C 19.58 59.19 16.28 61.32 12.41 61.05 C 7.13 60.54 3.25 55.43 2.37 50.47 C 3.37 51.51 4.36 52.57 5.49 53.49 C 8.16 54.42 10.28 52.07 12.31 50.74 L 13.56 50.66 L 12.28 52.26 C 10.54 53.95 8.85 55.73 7.94 58.02 C 11.63 57.05 15.28 55.94 18.95 54.91 C 21.43 54.46 22.78 52.15 24.62 50.71 C 24.83 50.60 25.23 50.38 25.43 50.27 C 25.55 49.77 25.78 48.77 25.89 48.27 C 26.77 49.06 27.41 50.04 27.86 51.12 C 34.23 47.25 39.43 41.83 45.26 37.24 C 48.96 34.66 49.84 29.95 52.64 26.63 C 56.85 21.44 57.34 14.49 58.80 8.21 C 58.46 7.88 57.76 7.23 57.42 6.90 C 55.97 8.30 54.60 9.78 53.27 11.30 C 51.18 13.45 49.05 15.70 48.18 18.66 C 47.64 17.41 46.93 16.25 46.20 15.10 C 50.29 14.26 52.32 10.11 55.04 7.33 C 55.45 6.33 55.87 5.32 56.30 4.32 Z" />
</g>
<g id="#c57820ff">
<path fill="#c57820" opacity="1.00" d=" M 57.42 6.90 C 57.76 7.23 58.46 7.88 58.80 8.21 C 57.34 14.49 56.85 21.44 52.64 26.63 C 49.84 29.95 48.96 34.66 45.26 37.24 C 39.43 41.83 34.23 47.25 27.86 51.12 C 27.41 50.04 26.77 49.06 25.89 48.27 C 26.16 45.72 29.45 45.86 30.78 44.11 C 32.21 41.94 34.65 40.88 36.65 39.35 C 35.76 39.05 34.86 38.77 33.97 38.47 C 38.30 38.55 39.73 34.14 43.24 32.58 C 43.29 31.89 43.34 31.21 43.38 30.52 C 44.07 30.46 44.76 30.38 45.45 30.27 C 46.40 28.08 47.84 26.15 50.18 25.34 C 50.27 22.97 50.10 20.46 51.26 18.31 C 52.22 16.04 54.45 13.94 53.27 11.30 C 54.60 9.78 55.97 8.30 57.42 6.90 Z" />
</g>
<g id="#e0ab47ff">
<path fill="#e0ab47" opacity="1.00" d=" M 32.37 10.23 C 34.73 6.57 39.39 9.53 42.80 9.40 C 41.85 10.48 40.91 11.58 39.95 12.65 C 42.50 12.02 44.61 13.15 46.20 15.10 C 44.15 15.44 42.13 15.87 40.11 16.31 C 40.04 17.60 39.97 18.89 39.88 20.18 C 39.08 20.08 37.47 19.86 36.66 19.76 C 37.20 19.39 38.27 18.66 38.81 18.30 C 38.61 17.66 38.39 17.02 38.16 16.39 C 37.74 16.47 36.90 16.64 36.48 16.72 C 36.17 16.53 35.55 16.16 35.24 15.98 C 33.15 14.81 31.03 12.90 28.45 13.46 C 23.46 14.67 18.50 17.30 16.03 22.01 C 13.09 25.95 11.68 31.91 15.87 35.54 C 15.21 36.53 14.58 37.53 13.98 38.54 L 14.69 39.01 C 14.98 39.20 15.56 39.59 15.84 39.78 C 15.96 40.50 16.19 41.95 16.30 42.67 C 15.16 42.79 14.02 42.90 12.88 43.02 C 12.69 42.47 12.31 41.38 12.12 40.83 C 10.39 41.57 11.59 43.82 11.40 45.26 C 10.81 44.82 10.22 44.38 9.64 43.93 C 10.25 40.17 5.79 37.35 7.57 33.49 C 10.49 27.40 13.12 20.85 18.21 16.19 C 20.13 14.45 21.87 12.50 23.99 11.01 C 26.19 10.14 28.59 9.89 30.89 9.37 C 31.26 9.59 32.00 10.01 32.37 10.23 Z" />
</g>
<g id="#9f4e0dff">
<path fill="#9f4e0d" opacity="1.00" d=" M 61.18 10.61 C 63.77 17.01 62.68 24.23 60.52 30.59 C 55.48 44.54 43.82 56.00 29.70 60.61 L 29.40 61.43 C 28.61 61.47 27.02 61.56 26.23 61.60 L 26.97 63.36 C 22.34 61.77 17.04 63.36 12.13 62.55 C 12.20 62.17 12.34 61.42 12.41 61.05 C 16.28 61.32 19.58 59.19 23.09 57.98 C 34.49 54.59 44.85 47.72 52.47 38.60 C 54.67 35.59 55.48 31.76 57.98 28.93 C 62.46 23.97 60.59 16.68 61.18 10.61 Z" />
</g>
<g id="#dba33bff">
<path fill="#dba33b" opacity="1.00" d=" M 48.18 18.66 C 49.05 15.70 51.18 13.45 53.27 11.30 C 54.45 13.94 52.22 16.04 51.26 18.31 C 50.10 20.46 50.27 22.97 50.18 25.34 C 47.84 26.15 46.40 28.08 45.45 30.27 C 44.76 30.38 44.07 30.46 43.38 30.52 C 43.34 31.21 43.29 31.89 43.24 32.58 C 39.73 34.14 38.30 38.55 33.97 38.47 C 34.86 38.77 35.76 39.05 36.65 39.35 C 34.65 40.88 32.21 41.94 30.78 44.11 C 29.45 45.86 26.16 45.72 25.89 48.27 C 25.78 48.77 25.55 49.77 25.43 50.27 C 25.23 50.38 24.83 50.60 24.62 50.71 C 20.45 48.13 16.58 53.32 12.28 52.26 L 13.56 50.66 C 16.86 48.99 20.35 46.94 24.19 48.17 C 24.61 46.53 24.24 44.91 23.74 43.33 C 25.21 43.68 26.68 44.02 28.15 44.35 C 28.66 42.65 28.12 40.94 27.73 39.29 C 29.33 39.72 31.01 40.37 32.63 39.66 C 32.44 38.75 32.26 37.83 32.08 36.91 C 32.62 36.85 33.71 36.73 34.25 36.67 C 35.96 36.02 37.06 34.70 36.12 32.90 C 36.66 32.84 37.73 32.73 38.27 32.67 C 39.00 32.07 39.76 31.51 40.55 30.99 C 40.42 30.47 40.16 29.42 40.04 28.90 C 40.59 28.84 41.69 28.72 42.25 28.66 C 42.81 28.35 43.95 27.74 44.52 27.43 C 44.26 26.09 44.03 24.74 43.77 23.40 C 45.13 23.64 46.50 24.60 47.90 24.09 C 48.75 22.45 48.04 20.45 48.18 18.66 Z" />
</g>
<g id="#e7ba5fff">
<path fill="#e7ba5f" opacity="1.00" d=" M 28.45 13.46 C 31.03 12.90 33.15 14.81 35.24 15.98 C 33.66 17.64 32.17 19.39 30.62 21.08 C 28.51 19.85 26.31 18.77 24.01 17.94 C 21.92 20.66 19.93 23.55 18.89 26.84 C 19.50 27.15 20.12 27.48 20.74 27.82 C 20.30 28.38 19.85 28.94 19.41 29.50 C 19.51 30.05 19.71 31.13 19.82 31.68 C 18.46 32.92 17.14 34.21 15.87 35.54 C 11.68 31.91 13.09 25.95 16.03 22.01 C 18.50 17.30 23.46 14.67 28.45 13.46 Z" />
</g>
<g id="#c28e57ff">
<path fill="#c28e57" opacity="1.00" d=" M 40.11 16.31 C 42.13 15.87 44.15 15.44 46.20 15.10 C 46.93 16.25 47.64 17.41 48.18 18.66 C 48.04 20.45 48.75 22.45 47.90 24.09 C 46.50 24.60 45.13 23.64 43.77 23.40 C 44.03 24.74 44.26 26.09 44.52 27.43 C 43.95 27.74 42.81 28.35 42.25 28.66 C 41.69 28.32 40.58 27.63 40.03 27.28 C 40.03 27.69 40.03 28.49 40.04 28.90 C 40.16 29.42 40.42 30.47 40.55 30.99 C 39.76 31.51 39.00 32.07 38.27 32.67 C 37.71 32.32 36.60 31.63 36.04 31.29 C 36.06 31.69 36.10 32.50 36.12 32.90 C 37.06 34.70 35.96 36.02 34.25 36.67 C 33.70 36.32 32.60 35.62 32.05 35.27 C 32.06 35.68 32.07 36.50 32.08 36.91 C 32.26 37.83 32.44 38.75 32.63 39.66 C 31.01 40.37 29.33 39.72 27.73 39.29 C 28.12 40.94 28.66 42.65 28.15 44.35 C 26.68 44.02 25.21 43.68 23.74 43.33 C 24.24 44.91 24.61 46.53 24.19 48.17 C 20.35 46.94 16.86 48.99 13.56 50.66 L 12.31 50.74 C 14.24 48.76 15.75 46.41 16.84 43.88 C 16.71 43.58 16.44 42.97 16.30 42.67 C 16.19 41.95 15.96 40.50 15.84 39.78 C 16.13 39.97 16.71 40.36 17.00 40.55 C 18.43 43.15 20.76 45.02 23.10 46.75 C 21.98 44.25 20.24 42.09 18.01 40.49 C 18.70 40.16 19.40 39.83 20.09 39.49 C 19.51 38.11 18.89 35.92 20.97 35.39 L 21.28 36.78 C 22.30 39.48 24.96 41.01 27.06 42.80 C 26.00 40.26 24.19 38.18 22.04 36.50 C 22.57 36.27 23.62 35.83 24.15 35.60 C 23.82 34.19 23.16 32.50 24.71 31.51 L 25.31 32.21 C 25.70 35.34 28.86 36.86 30.97 38.76 C 30.25 37.34 29.43 35.98 28.44 34.74 C 28.63 34.31 29.01 33.45 29.21 33.03 C 28.18 31.45 26.35 28.77 28.85 27.58 L 29.08 28.48 C 29.73 31.50 32.91 33.00 35.12 34.83 C 33.75 32.28 31.86 30.06 29.53 28.34 C 30.42 28.08 31.30 27.81 32.18 27.55 C 31.87 26.38 31.59 25.18 31.80 23.97 C 32.99 23.77 34.19 23.56 35.38 23.35 C 35.44 22.40 35.48 21.45 35.58 20.50 C 35.85 20.31 36.39 19.94 36.66 19.76 C 37.47 19.86 39.08 20.08 39.88 20.18 C 39.97 18.89 40.04 17.60 40.11 16.31 M 40.87 16.93 C 41.91 19.64 44.72 21.19 47.00 22.79 C 45.43 20.53 43.91 17.19 40.87 16.93 M 36.77 20.93 C 38.16 23.49 40.71 25.15 43.00 26.85 C 41.51 24.49 39.94 20.96 36.77 20.93 M 32.79 24.95 C 34.34 27.36 36.67 29.08 38.90 30.80 C 37.63 28.36 35.92 24.81 32.79 24.95 Z" />
<path fill="#c28e57" opacity="1.00" d=" M 35.24 15.98 C 35.55 16.16 36.17 16.53 36.48 16.72 C 29.49 24.42 21.54 31.19 14.69 39.01 L 13.98 38.54 C 14.58 37.53 15.21 36.53 15.87 35.54 C 17.14 34.21 18.46 32.92 19.82 31.68 C 23.74 28.48 27.23 24.83 30.62 21.08 C 32.17 19.39 33.66 17.64 35.24 15.98 Z" />
</g>
<g id="#ebc46fff">
<path fill="#ebc46f" opacity="1.00" d=" M 36.48 16.72 C 36.90 16.64 37.74 16.47 38.16 16.39 C 38.39 17.02 38.61 17.66 38.81 18.30 C 38.27 18.66 37.20 19.39 36.66 19.76 C 36.39 19.94 35.85 20.31 35.58 20.50 C 35.48 21.45 35.44 22.40 35.38 23.35 C 34.19 23.56 32.99 23.77 31.80 23.97 C 31.59 25.18 31.87 26.38 32.18 27.55 C 31.30 27.81 30.42 28.08 29.53 28.34 L 29.08 28.48 L 28.85 27.58 C 26.35 28.77 28.18 31.45 29.21 33.03 C 29.01 33.45 28.63 34.31 28.44 34.74 C 27.42 33.87 26.35 33.05 25.31 32.21 L 24.71 31.51 C 23.16 32.50 23.82 34.19 24.15 35.60 C 23.62 35.83 22.57 36.27 22.04 36.50 C 21.85 36.57 21.47 36.71 21.28 36.78 L 20.97 35.39 C 18.89 35.92 19.51 38.11 20.09 39.49 C 19.40 39.83 18.70 40.16 18.01 40.49 C 17.76 40.51 17.25 40.54 17.00 40.55 C 16.71 40.36 16.13 39.97 15.84 39.78 C 15.56 39.59 14.98 39.20 14.69 39.01 C 21.54 31.19 29.49 24.42 36.48 16.72 Z" />
</g>
<g id="#e3c19eff">
<path fill="#e3c19e" opacity="1.00" d=" M 40.87 16.93 C 43.91 17.19 45.43 20.53 47.00 22.79 C 44.72 21.19 41.91 19.64 40.87 16.93 Z" />
</g>
<g id="#ebc473ff">
<path fill="#ebc473" opacity="1.00" d=" M 18.89 26.84 C 19.93 23.55 21.92 20.66 24.01 17.94 C 26.31 18.77 28.51 19.85 30.62 21.08 C 27.23 24.83 23.74 28.48 19.82 31.68 C 19.71 31.13 19.51 30.05 19.41 29.50 C 19.85 28.94 20.30 28.38 20.74 27.82 C 20.12 27.48 19.50 27.15 18.89 26.84 Z" />
</g>
<g id="#e4c39fff">
<path fill="#e4c39f" opacity="1.00" d=" M 36.77 20.93 C 39.94 20.96 41.51 24.49 43.00 26.85 C 40.71 25.15 38.16 23.49 36.77 20.93 Z" />
</g>
<g id="#e2bc95ff">
<path fill="#e2bc95" opacity="1.00" d=" M 32.79 24.95 C 35.92 24.81 37.63 28.36 38.90 30.80 C 36.67 29.08 34.34 27.36 32.79 24.95 Z" />
</g>
<g id="#e6bd66ff">
<path fill="#e6bd66" opacity="1.00" d=" M 40.03 27.28 C 40.58 27.63 41.69 28.32 42.25 28.66 C 41.69 28.72 40.59 28.84 40.04 28.90 C 40.03 28.49 40.03 27.69 40.03 27.28 Z" />
</g>
<g id="#e5c39fff">
<path fill="#e5c39f" opacity="1.00" d=" M 29.08 28.48 L 29.53 28.34 C 31.86 30.06 33.75 32.28 35.12 34.83 C 32.91 33.00 29.73 31.50 29.08 28.48 Z" />
</g>
<g id="#e9c169ff">
<path fill="#e9c169" opacity="1.00" d=" M 36.04 31.29 C 36.60 31.63 37.71 32.32 38.27 32.67 C 37.73 32.73 36.66 32.84 36.12 32.90 C 36.10 32.50 36.06 31.69 36.04 31.29 Z" />
</g>
<g id="#e5c29dff">
<path fill="#e5c29d" opacity="1.00" d=" M 25.31 32.21 C 26.35 33.05 27.42 33.87 28.44 34.74 C 29.43 35.98 30.25 37.34 30.97 38.76 C 28.86 36.86 25.70 35.34 25.31 32.21 Z" />
</g>
<g id="#e8be66ff">
<path fill="#e8be66" opacity="1.00" d=" M 32.05 35.27 C 32.60 35.62 33.70 36.32 34.25 36.67 C 33.71 36.73 32.62 36.85 32.08 36.91 C 32.07 36.50 32.06 35.68 32.05 35.27 Z" />
</g>
<g id="#e5c39eff">
<path fill="#e5c39e" opacity="1.00" d=" M 21.28 36.78 C 21.47 36.71 21.85 36.57 22.04 36.50 C 24.19 38.18 26.00 40.26 27.06 42.80 C 24.96 41.01 22.30 39.48 21.28 36.78 Z" />
</g>
<g id="#e5c19aff">
<path fill="#e5c19a" opacity="1.00" d=" M 17.00 40.55 C 17.25 40.54 17.76 40.51 18.01 40.49 C 20.24 42.09 21.98 44.25 23.10 46.75 C 20.76 45.02 18.43 43.15 17.00 40.55 Z" />
</g>
<g id="#c57c20ff">
<path fill="#c57c20" opacity="1.00" d=" M 12.28 52.26 C 16.58 53.32 20.45 48.13 24.62 50.71 C 22.78 52.15 21.43 54.46 18.95 54.91 C 15.28 55.94 11.63 57.05 7.94 58.02 C 8.85 55.73 10.54 53.95 12.28 52.26 Z" />
</g>
</svg>
