<?xml version="1.0" encoding="UTF-8" ?>
<!DOCTYPE svg PUBLIC "-//W3C//DTD SVG 1.1//EN" "http://www.w3.org/Graphics/SVG/1.1/DTD/svg11.dtd">
<svg width="64pt" height="64pt" viewBox="0 0 64 64" version="1.1" xmlns="http://www.w3.org/2000/svg">
<g id="#501619ff">
<path fill="#501619" opacity="1.00" d=" M 38.56 4.23 C 45.05 3.14 52.26 2.59 58.25 5.79 C 60.76 9.28 60.70 13.90 60.78 18.02 C 60.66 21.80 60.46 25.74 58.88 29.24 C 58.74 26.90 58.49 24.56 58.11 22.25 C 57.91 17.87 59.53 13.04 57.33 8.98 C 55.19 10.68 53.09 12.43 51.06 14.26 C 49.19 15.95 47.44 17.76 45.77 19.65 C 44.39 21.21 43.01 22.77 41.63 24.33 C 41.17 23.90 40.26 23.04 39.80 22.61 C 41.42 21.25 43.02 19.88 44.59 18.46 C 46.47 16.78 48.27 15.00 49.94 13.11 C 51.41 11.44 52.80 9.69 54.15 7.92 C 50.52 4.25 45.08 4.51 40.33 4.58 C 39.89 4.49 39.00 4.31 38.56 4.23 Z" />
</g>
<g id="#634b4fda">
<path fill="#634b4f" opacity="0.85" d=" M 3.98 37.26 C 8.45 21.14 21.90 7.34 38.56 4.23 C 39.00 4.31 39.89 4.49 40.33 4.58 L 41.02 5.49 C 37.63 5.54 33.56 5.44 30.98 8.01 C 20.41 12.15 12.15 20.91 7.72 31.27 C 6.71 33.33 6.06 35.54 5.31 37.72 C 5.04 37.62 4.51 37.44 4.24 37.35 L 3.98 37.26 Z" />
</g>
<g id="#883c38ff">
<path fill="#883c38" opacity="1.00" d=" M 40.33 4.58 C 45.08 4.51 50.52 4.25 54.15 7.92 C 52.80 9.69 51.41 11.44 49.94 13.11 C 47.94 11.38 45.97 9.63 43.92 7.96 C 42.93 7.16 41.97 6.34 41.02 5.49 L 40.33 4.58 Z" />
</g>
<g id="#caccccff">
<path fill="#cacccc" opacity="1.00" d=" M 30.98 8.01 C 33.56 5.44 37.63 5.54 41.02 5.49 C 41.97 6.34 42.93 7.16 43.92 7.96 C 42.14 8.24 40.37 8.51 38.60 8.79 C 38.57 10.26 38.55 11.73 38.53 13.19 C 37.76 12.61 36.99 12.03 36.21 11.46 C 34.52 10.23 32.75 9.12 30.98 8.01 Z" />
</g>
<g id="#ae6d67ff">
<path fill="#ae6d67" opacity="1.00" d=" M 7.72 31.27 C 12.15 20.91 20.41 12.15 30.98 8.01 C 32.75 9.12 34.52 10.23 36.21 11.46 C 32.77 19.14 25.69 24.08 20.20 30.15 C 17.79 32.85 14.95 35.12 11.86 36.99 C 10.44 35.11 9.06 33.20 7.72 31.27 Z" />
</g>
<g id="#edeeeeff">
<path fill="#edeeee" opacity="1.00" d=" M 38.60 8.79 C 40.37 8.51 42.14 8.24 43.92 7.96 C 45.97 9.63 47.94 11.38 49.94 13.11 C 48.27 15.00 46.47 16.78 44.59 18.46 C 43.20 17.16 41.82 15.85 40.35 14.62 C 39.90 14.27 38.99 13.55 38.53 13.19 C 38.55 11.73 38.57 10.26 38.60 8.79 Z" />
</g>
<g id="#6f2b29ff">
<path fill="#6f2b29" opacity="1.00" d=" M 51.06 14.26 C 53.09 12.43 55.19 10.68 57.33 8.98 C 59.53 13.04 57.91 17.87 58.11 22.25 C 57.52 21.56 56.92 20.88 56.32 20.20 C 55.42 19.16 54.52 18.13 53.60 17.12 C 52.75 16.16 51.91 15.21 51.06 14.26 Z" />
</g>
<g id="#a4594fff">
<path fill="#a4594f" opacity="1.00" d=" M 20.20 30.15 C 25.69 24.08 32.77 19.14 36.21 11.46 C 36.99 12.03 37.76 12.61 38.53 13.19 C 38.99 13.55 39.90 14.27 40.35 14.62 C 35.85 20.31 30.05 24.75 25.08 29.99 C 21.25 33.14 18.75 37.74 14.30 40.13 C 13.98 39.73 13.34 38.91 13.02 38.51 C 12.73 38.13 12.15 37.37 11.86 36.99 C 14.95 35.12 17.79 32.85 20.20 30.15 Z" />
</g>
<g id="#96473dff">
<path fill="#96473d" opacity="1.00" d=" M 25.08 29.99 C 30.05 24.75 35.85 20.31 40.35 14.62 C 41.82 15.85 43.20 17.16 44.59 18.46 C 43.02 19.88 41.42 21.25 39.80 22.61 C 38.42 23.78 37.17 25.09 35.97 26.43 C 34.80 25.46 33.88 23.73 32.10 24.07 C 30.73 25.41 33.00 26.55 33.54 27.71 L 34.01 28.39 C 32.86 29.49 31.72 30.59 30.60 31.71 C 29.72 30.83 28.85 29.95 27.97 29.06 C 27.48 29.31 26.49 29.80 26.00 30.05 C 27.00 31.29 28.04 32.51 29.10 33.70 C 27.71 34.70 26.40 35.81 25.17 37.01 C 24.13 36.05 23.09 35.09 22.05 34.13 C 21.74 34.58 21.13 35.47 20.82 35.92 C 21.46 36.56 22.09 37.21 22.73 37.85 C 22.57 38.25 22.23 39.04 22.07 39.43 C 21.78 40.01 21.21 41.16 20.92 41.74 C 20.10 42.79 19.23 43.81 18.34 44.81 C 16.98 43.26 15.60 41.73 14.30 40.13 C 18.75 37.74 21.25 33.14 25.08 29.99 Z" />
</g>
<g id="#e0e1e1ff">
<path fill="#e0e1e1" opacity="1.00" d=" M 45.77 19.65 C 47.44 17.76 49.19 15.95 51.06 14.26 C 51.91 15.21 52.75 16.16 53.60 17.12 C 53.38 19.37 54.04 21.53 54.79 23.62 C 52.64 23.22 50.49 22.76 48.33 22.38 C 47.50 21.45 46.62 20.56 45.77 19.65 Z" />
<path fill="#e0e1e1" opacity="1.00" d=" M 35.97 26.43 C 37.17 25.09 38.42 23.78 39.80 22.61 C 40.26 23.04 41.17 23.90 41.63 24.33 C 40.41 25.69 39.19 27.06 38.00 28.44 C 39.12 29.74 40.68 31.15 39.29 32.90 C 37.34 31.21 35.42 29.49 33.54 27.71 C 33.00 26.55 30.73 25.41 32.10 24.07 C 33.88 23.73 34.80 25.46 35.97 26.43 Z" />
<path fill="#e0e1e1" opacity="1.00" d=" M 26.00 30.05 C 26.49 29.80 27.48 29.31 27.97 29.06 C 28.85 29.95 29.72 30.83 30.60 31.71 C 31.72 30.59 32.86 29.49 34.01 28.39 C 34.39 28.99 35.15 30.19 35.53 30.80 C 34.49 31.72 33.44 32.65 32.40 33.58 C 33.41 34.81 35.58 35.83 34.49 37.70 C 32.79 37.79 31.93 35.98 30.71 35.11 C 29.57 36.44 28.38 37.72 27.16 38.97 C 28.11 40.05 29.06 41.14 30.00 42.23 C 26.78 43.97 25.03 39.39 22.73 37.85 C 22.09 37.21 21.46 36.56 20.82 35.92 C 21.13 35.47 21.74 34.58 22.05 34.13 C 23.09 35.09 24.13 36.05 25.17 37.01 C 26.40 35.81 27.71 34.70 29.10 33.70 C 28.04 32.51 27.00 31.29 26.00 30.05 Z" />
</g>
<g id="#a4a2a3ff">
<path fill="#a4a2a3" opacity="1.00" d=" M 53.60 17.12 C 54.52 18.13 55.42 19.16 56.32 20.20 C 56.71 22.72 56.77 25.28 56.70 27.82 C 55.01 27.35 53.31 26.89 51.61 26.43 C 50.59 25.02 49.45 23.71 48.33 22.38 C 50.49 22.76 52.64 23.22 54.79 23.62 C 54.04 21.53 53.38 19.37 53.60 17.12 Z" />
</g>
<g id="#72332cff">
<path fill="#72332c" opacity="1.00" d=" M 41.63 24.33 C 43.01 22.77 44.39 21.21 45.77 19.65 C 46.62 20.56 47.50 21.45 48.33 22.38 C 49.45 23.71 50.59 25.02 51.61 26.43 C 51.97 27.03 52.71 28.22 53.08 28.82 C 48.68 36.29 41.77 41.67 35.21 47.11 C 32.69 49.24 29.73 50.72 26.69 51.92 C 25.22 50.75 23.75 49.59 22.31 48.40 C 21.32 47.55 20.37 46.65 19.40 45.77 C 20.30 45.00 21.24 44.26 22.21 43.56 C 23.62 42.66 25.75 41.49 24.16 39.55 C 23.64 39.52 22.59 39.46 22.07 39.43 C 22.23 39.04 22.57 38.25 22.73 37.85 C 25.03 39.39 26.78 43.97 30.00 42.23 C 29.06 41.14 28.11 40.05 27.16 38.97 C 28.38 37.72 29.57 36.44 30.71 35.11 C 31.93 35.98 32.79 37.79 34.49 37.70 C 35.58 35.83 33.41 34.81 32.40 33.58 C 33.44 32.65 34.49 31.72 35.53 30.80 C 35.15 30.19 34.39 28.99 34.01 28.39 L 33.54 27.71 C 35.42 29.49 37.34 31.21 39.29 32.90 C 40.68 31.15 39.12 29.74 38.00 28.44 C 39.19 27.06 40.41 25.69 41.63 24.33 Z" />
</g>
<g id="#5e5e5eff">
<path fill="#5e5e5e" opacity="1.00" d=" M 56.32 20.20 C 56.92 20.88 57.52 21.56 58.11 22.25 C 58.49 24.56 58.74 26.90 58.88 29.24 C 58.75 30.67 58.10 31.95 57.39 33.17 C 55.83 31.85 54.30 30.47 53.08 28.82 C 52.71 28.22 51.97 27.03 51.61 26.43 C 53.31 26.89 55.01 27.35 56.70 27.82 C 56.77 25.28 56.71 22.72 56.32 20.20 Z" />
</g>
<g id="#491a18ff">
<path fill="#491a18" opacity="1.00" d=" M 35.21 47.11 C 41.77 41.67 48.68 36.29 53.08 28.82 C 54.30 30.47 55.83 31.85 57.39 33.17 L 57.74 33.48 C 53.03 43.78 44.80 53.11 34.03 57.13 C 33.93 57.16 33.75 57.21 33.66 57.24 C 32.57 56.28 31.50 55.31 30.35 54.42 C 29.15 53.56 27.92 52.73 26.69 51.92 C 29.73 50.72 32.69 49.24 35.21 47.11 Z" />
</g>
<g id="#bbbcbcff">
<path fill="#bbbcbc" opacity="1.00" d=" M 7.72 31.27 C 9.06 33.20 10.44 35.11 11.86 36.99 C 12.15 37.37 12.73 38.13 13.02 38.51 C 11.66 38.53 10.29 38.56 8.93 38.58 C 8.19 39.94 7.45 41.29 6.71 42.65 C 5.92 41.47 5.17 40.27 4.45 39.05 L 5.31 37.72 C 6.06 35.54 6.71 33.33 7.72 31.27 Z" />
</g>
<g id="#270607ff">
<path fill="#270607" opacity="1.00" d=" M 4.24 37.35 C 4.51 37.44 5.04 37.62 5.31 37.72 L 4.45 39.05 C 4.11 44.66 3.89 50.51 6.24 55.77 C 8.69 54.04 10.96 52.08 13.10 49.98 C 14.89 48.30 16.68 46.61 18.34 44.81 C 19.23 43.81 20.10 42.79 20.92 41.74 C 21.24 42.20 21.89 43.11 22.21 43.56 C 21.24 44.26 20.30 45.00 19.40 45.77 C 17.56 47.46 15.83 49.25 14.12 51.06 C 12.81 52.46 11.52 53.88 10.22 55.29 C 9.55 56.03 8.88 56.77 8.22 57.51 C 12.57 59.62 17.53 58.56 22.14 58.23 L 22.70 58.33 C 23.58 58.87 24.46 59.42 25.32 59.99 C 24.62 60.16 23.23 60.50 22.54 60.67 C 16.93 61.39 10.56 61.36 5.53 58.46 C 2.15 52.05 2.82 44.20 4.24 37.35 Z" />
</g>
<g id="#e9ebebff">
<path fill="#e9ebeb" opacity="1.00" d=" M 6.71 42.65 C 7.45 41.29 8.19 39.94 8.93 38.58 C 10.29 38.56 11.66 38.53 13.02 38.51 C 13.34 38.91 13.98 39.73 14.30 40.13 C 15.60 41.73 16.98 43.26 18.34 44.81 C 16.68 46.61 14.89 48.30 13.10 49.98 C 10.92 47.59 8.70 45.21 6.71 42.65 Z" />
</g>
<g id="#803934ff">
<path fill="#803934" opacity="1.00" d=" M 6.24 55.77 C 3.89 50.51 4.11 44.66 4.45 39.05 C 5.17 40.27 5.92 41.47 6.71 42.65 C 8.70 45.21 10.92 47.59 13.10 49.98 C 10.96 52.08 8.69 54.04 6.24 55.77 Z" />
</g>
<g id="#c6c3c3ff">
<path fill="#c6c3c3" opacity="1.00" d=" M 20.92 41.74 C 21.21 41.16 21.78 40.01 22.07 39.43 C 22.59 39.46 23.64 39.52 24.16 39.55 C 25.75 41.49 23.62 42.66 22.21 43.56 C 21.89 43.11 21.24 42.20 20.92 41.74 Z" />
</g>
<g id="#d7d8d8ff">
<path fill="#d7d8d8" opacity="1.00" d=" M 14.12 51.06 C 15.83 49.25 17.56 47.46 19.40 45.77 C 20.37 46.65 21.32 47.55 22.31 48.40 C 22.45 51.38 24.71 53.48 26.21 55.84 C 23.48 55.39 20.81 54.63 18.17 53.81 C 16.62 53.22 15.42 52.05 14.12 51.06 Z" />
</g>
<g id="#999595ff">
<path fill="#999595" opacity="1.00" d=" M 22.31 48.40 C 23.75 49.59 25.22 50.75 26.69 51.92 C 27.17 53.71 27.66 55.50 28.15 57.28 C 25.88 57.24 23.61 57.20 21.35 57.20 C 20.32 56.35 19.19 55.63 18.11 54.86 L 18.17 53.81 C 20.81 54.63 23.48 55.39 26.21 55.84 C 24.71 53.48 22.45 51.38 22.31 48.40 Z" />
</g>
<g id="#6f2f29ff">
<path fill="#6f2f29" opacity="1.00" d=" M 10.22 55.29 C 11.52 53.88 12.81 52.46 14.12 51.06 C 15.42 52.05 16.62 53.22 18.17 53.81 L 18.11 54.86 C 15.70 56.50 12.84 56.25 10.22 55.29 Z" />
</g>
<g id="#6f6a6cff">
<path fill="#6f6a6c" opacity="1.00" d=" M 26.69 51.92 C 27.92 52.73 29.15 53.56 30.35 54.42 C 30.14 55.60 29.93 56.77 29.73 57.95 C 27.40 58.24 25.05 58.44 22.70 58.33 L 22.14 58.23 L 21.35 57.20 C 23.61 57.20 25.88 57.24 28.15 57.28 C 27.66 55.50 27.17 53.71 26.69 51.92 Z" />
</g>
<g id="#433c3ffd">
<path fill="#433c3f" opacity="1.00" d=" M 30.35 54.42 C 31.50 55.31 32.57 56.28 33.66 57.24 C 30.96 58.39 28.19 59.36 25.32 59.99 C 24.46 59.42 23.58 58.87 22.70 58.33 C 25.05 58.44 27.40 58.24 29.73 57.95 C 29.93 56.77 30.14 55.60 30.35 54.42 Z" />
</g>
<g id="#541c1cff">
<path fill="#541c1c" opacity="1.00" d=" M 8.22 57.51 C 8.88 56.77 9.55 56.03 10.22 55.29 C 12.84 56.25 15.70 56.50 18.11 54.86 C 19.19 55.63 20.32 56.35 21.35 57.20 L 22.14 58.23 C 17.53 58.56 12.57 59.62 8.22 57.51 Z" />
</g>
<g id="#000000ac">
<path fill="#000000" opacity="0.67" d=" M 33.66 57.24 C 33.75 57.21 33.93 57.16 34.03 57.13 C 36.44 58.93 39.51 58.03 42.26 58.57 C 43.83 59.04 45.39 59.55 46.96 60.03 C 46.36 60.13 45.15 60.33 44.54 60.43 C 37.26 62.31 29.87 60.80 22.54 60.67 C 23.23 60.50 24.62 60.16 25.32 59.99 C 28.19 59.36 30.96 58.39 33.66 57.24 Z" />
</g>
<g id="#01000043">
<path fill="#010000" opacity="0.26" d=" M 42.26 58.57 C 45.29 56.46 48.95 58.39 52.19 58.86 C 51.16 61.74 46.75 62.17 44.54 60.43 C 45.15 60.33 46.36 60.13 46.96 60.03 C 45.39 59.55 43.83 59.04 42.26 58.57 Z" />
</g>
</svg>
