<?xml version="1.0" encoding="UTF-8" ?>
<!DOCTYPE svg PUBLIC "-//W3C//DTD SVG 1.1//EN" "http://www.w3.org/Graphics/SVG/1.1/DTD/svg11.dtd">
<svg width="64pt" height="64pt" viewBox="0 0 64 64" version="1.1" xmlns="http://www.w3.org/2000/svg">
<g id="#efefefff">
<path fill="#efefef" opacity="1.00" d=" M 6.78 5.01 C 7.38 4.82 8.57 4.42 9.17 4.22 C 9.24 4.88 9.40 6.21 9.47 6.87 C 9.26 7.32 8.83 8.22 8.62 8.67 C 8.74 15.97 8.68 23.27 8.66 30.57 C 8.51 39.34 8.75 48.11 8.62 56.89 C 7.19 57.05 6.56 56.43 6.73 55.02 C 6.74 38.35 6.65 21.68 6.78 5.01 Z" />
<path fill="#efefef" opacity="1.00" d=" M 18.69 24.70 C 22.14 24.72 25.59 24.74 29.00 24.10 C 28.94 26.50 28.95 28.91 28.87 31.31 C 29.12 31.45 29.62 31.73 29.86 31.88 C 30.86 33.96 29.74 36.10 29.31 38.16 C 29.34 36.11 29.42 34.07 29.35 32.03 C 27.64 32.17 25.94 32.43 24.23 32.59 C 22.15 32.49 20.08 32.44 18.01 32.45 C 18.00 29.87 18.00 27.30 18.00 24.73 L 18.69 24.70 Z" />
</g>
<g id="#000000ff">
<path fill="#000000" opacity="1.00" d=" M 9.47 6.87 C 9.76 6.00 9.97 5.12 10.13 4.22 C 10.39 5.19 10.93 7.13 11.19 8.11 C 12.77 8.41 14.36 8.64 15.96 8.81 C 15.54 8.96 14.71 9.26 14.29 9.42 C 14.33 11.77 14.55 14.11 14.54 16.46 C 12.80 16.22 11.10 15.83 9.43 15.28 C 9.67 17.92 9.53 20.57 9.56 23.22 C 11.29 23.54 12.92 24.28 14.68 24.47 C 14.56 27.12 13.70 30.16 15.82 32.28 C 14.23 32.06 12.61 32.00 11.06 31.58 C 10.46 31.33 9.26 30.82 8.66 30.57 C 8.68 23.27 8.74 15.97 8.62 8.67 C 8.83 8.22 9.26 7.32 9.47 6.87 Z" />
<path fill="#000000" opacity="1.00" d=" M 29.09 8.34 C 33.88 7.43 38.53 5.60 43.43 5.45 L 42.67 5.65 C 41.46 5.62 40.32 5.83 39.24 6.27 C 38.30 8.53 39.89 11.12 38.49 13.25 C 41.98 13.49 45.47 13.08 48.97 13.25 C 49.03 15.90 49.02 18.54 49.01 21.19 C 45.60 20.98 42.16 21.08 38.80 21.74 L 38.76 22.76 C 38.73 25.04 38.75 27.33 38.74 29.61 C 41.92 28.98 45.16 29.20 48.37 29.11 L 48.81 29.31 C 49.35 31.67 48.91 34.18 49.28 36.59 C 51.73 36.68 54.56 35.90 56.39 38.02 C 57.28 35.67 57.52 33.33 57.32 30.77 C 55.78 29.81 54.00 29.44 52.21 29.30 C 52.92 26.96 52.72 24.55 52.43 22.17 C 52.82 22.03 53.59 21.77 53.98 21.63 C 54.83 21.85 56.52 22.29 57.37 22.50 C 57.28 19.93 57.35 17.36 57.33 14.79 C 55.77 13.91 54.00 13.64 52.25 13.42 C 52.69 10.87 52.85 8.29 52.98 5.72 C 54.53 6.26 56.32 6.28 57.70 7.20 C 57.81 17.68 57.75 28.17 57.73 38.66 C 49.87 36.05 41.35 37.18 33.45 38.57 C 34.52 36.86 36.72 37.80 38.34 37.37 C 38.99 34.85 38.67 32.21 38.76 29.64 C 35.79 30.34 32.77 30.92 29.86 31.88 C 29.62 31.73 29.12 31.45 28.87 31.31 C 28.95 28.91 28.94 26.50 29.00 24.10 C 25.59 24.74 22.14 24.72 18.69 24.70 L 19.24 24.56 C 19.80 24.30 20.93 23.79 21.49 23.53 C 21.72 21.31 21.67 19.07 21.80 16.84 C 24.22 16.83 26.63 16.58 29.00 16.13 C 29.05 18.59 28.98 21.05 29.04 23.51 C 29.48 23.55 30.35 23.62 30.79 23.66 C 33.39 22.83 36.09 22.41 38.69 21.61 C 39.36 20.10 38.80 18.37 38.97 16.77 C 39.75 15.53 38.88 14.32 38.00 13.54 C 36.37 14.47 34.46 14.53 32.73 15.21 C 31.59 15.57 30.44 15.77 29.25 15.82 C 28.76 13.61 29.13 11.30 29.03 9.05 L 29.09 8.34 Z" />
<path fill="#000000" opacity="1.00" d=" M 24.23 32.59 C 25.94 32.43 27.64 32.17 29.35 32.03 C 29.42 34.07 29.34 36.11 29.31 38.16 L 29.30 38.85 C 30.53 38.69 31.77 38.59 33.00 38.57 C 28.83 41.01 23.00 40.69 18.09 40.64 C 16.30 40.33 14.13 40.96 12.65 39.71 C 14.43 39.72 16.21 39.94 18.00 39.87 C 19.18 39.82 20.36 39.72 21.53 39.58 C 21.72 37.32 21.68 35.05 21.74 32.78 C 22.36 32.73 23.60 32.64 24.23 32.59 Z" />
</g>
<g id="#252525ff">
<path fill="#252525" opacity="1.00" d=" M 43.43 5.45 C 46.60 5.06 49.82 5.43 52.98 5.72 C 52.85 8.29 52.69 10.87 52.25 13.42 C 51.45 13.35 49.83 13.23 49.03 13.16 C 48.96 10.68 49.22 8.20 49.01 5.73 C 46.91 5.42 44.78 5.62 42.67 5.65 L 43.43 5.45 Z" />
<path fill="#252525" opacity="1.00" d=" M 18.00 32.76 C 19.24 32.77 20.49 32.78 21.74 32.78 C 21.68 35.05 21.72 37.32 21.53 39.58 C 20.36 39.72 19.18 39.82 18.00 39.87 C 18.00 39.53 18.00 38.84 18.00 38.50 C 17.99 36.59 18.00 34.67 18.00 32.76 Z" />
</g>
<g id="#323232ff">
<path fill="#323232" opacity="1.00" d=" M 5.93 6.05 L 6.78 5.01 C 6.65 21.68 6.74 38.35 6.73 55.02 C 6.56 56.43 7.19 57.05 8.62 56.89 C 8.75 48.11 8.51 39.34 8.66 30.57 C 9.26 30.82 10.46 31.33 11.06 31.58 L 9.54 31.25 C 9.65 33.52 9.47 35.81 9.76 38.07 C 10.48 38.51 11.20 38.95 11.91 39.40 L 11.13 40.04 C 10.80 45.68 11.16 51.36 10.94 57.02 C 10.31 59.25 6.58 59.28 6.02 56.97 C 5.93 40.00 6.11 23.02 5.93 6.05 Z" />
<path fill="#323232" opacity="1.00" d=" M 18.06 24.48 C 18.80 21.89 16.56 18.42 19.03 16.59 C 19.72 16.65 21.11 16.78 21.80 16.84 C 21.67 19.07 21.72 21.31 21.49 23.53 C 20.93 23.79 19.80 24.30 19.24 24.56 L 18.06 24.48 Z" />
</g>
<g id="#f5f5f5ff">
<path fill="#f5f5f5" opacity="1.00" d=" M 39.24 6.27 C 40.32 5.83 41.46 5.62 42.67 5.65 C 44.78 5.62 46.91 5.42 49.01 5.73 C 49.22 8.20 48.96 10.68 49.03 13.16 C 49.83 13.23 51.45 13.35 52.25 13.42 C 54.00 13.64 55.77 13.91 57.33 14.79 C 57.35 17.36 57.28 19.93 57.37 22.50 C 56.52 22.29 54.83 21.85 53.98 21.63 C 52.39 21.33 50.78 21.25 49.17 21.11 C 48.88 23.78 49.10 26.49 49.06 29.17 C 49.84 29.20 51.42 29.27 52.21 29.30 C 54.00 29.44 55.78 29.81 57.32 30.77 C 57.52 33.33 57.28 35.67 56.39 38.02 C 54.56 35.90 51.73 36.68 49.28 36.59 C 48.91 34.18 49.35 31.67 48.81 29.31 L 48.37 29.11 C 46.86 28.32 45.16 28.07 43.54 27.60 C 43.20 26.17 42.99 24.72 42.64 23.30 C 41.41 22.84 40.12 22.66 38.76 22.76 L 38.80 21.74 C 42.16 21.08 45.60 20.98 49.01 21.19 C 49.02 18.54 49.03 15.90 48.97 13.25 C 45.47 13.08 41.98 13.49 38.49 13.25 C 39.89 11.12 38.30 8.53 39.24 6.27 Z" />
</g>
<g id="#5d5d5dff">
<path fill="#5d5d5d" opacity="1.00" d=" M 15.96 8.81 C 20.32 9.61 24.76 9.06 29.09 8.34 L 29.03 9.05 C 25.35 9.55 21.59 9.26 17.94 9.74 C 17.54 12.13 19.03 14.79 17.12 16.80 C 16.47 16.72 15.18 16.55 14.54 16.46 C 14.55 14.11 14.33 11.77 14.29 9.42 C 14.71 9.26 15.54 8.96 15.96 8.81 Z" />
</g>
<g id="#fcfcfcff">
<path fill="#fcfcfc" opacity="1.00" d=" M 17.94 9.74 C 21.59 9.26 25.35 9.55 29.03 9.05 C 29.13 11.30 28.76 13.61 29.25 15.82 C 30.44 15.77 31.59 15.57 32.73 15.21 C 31.26 17.78 29.82 20.63 30.79 23.66 C 30.35 23.62 29.48 23.55 29.04 23.51 C 28.98 21.05 29.05 18.59 29.00 16.13 C 26.63 16.58 24.22 16.83 21.80 16.84 C 21.11 16.78 19.72 16.65 19.03 16.59 C 16.56 18.42 18.80 21.89 18.06 24.48 L 19.24 24.56 L 18.69 24.70 L 18.00 24.73 C 17.17 24.66 15.51 24.53 14.68 24.47 C 12.92 24.28 11.29 23.54 9.56 23.22 C 9.53 20.57 9.67 17.92 9.43 15.28 C 11.10 15.83 12.80 16.22 14.54 16.46 C 15.18 16.55 16.47 16.72 17.12 16.80 C 19.03 14.79 17.54 12.13 17.94 9.74 Z" />
</g>
<g id="#e1e1e1ff">
<path fill="#e1e1e1" opacity="1.00" d=" M 32.73 15.21 C 34.46 14.53 36.37 14.47 38.00 13.54 C 38.88 14.32 39.75 15.53 38.97 16.77 C 38.80 18.37 39.36 20.10 38.69 21.61 C 36.09 22.41 33.39 22.83 30.79 23.66 C 29.82 20.63 31.26 17.78 32.73 15.21 Z" />
</g>
<g id="#202020ff">
<path fill="#202020" opacity="1.00" d=" M 49.17 21.11 C 50.78 21.25 52.39 21.33 53.98 21.63 C 53.59 21.77 52.82 22.03 52.43 22.17 C 52.72 24.55 52.92 26.96 52.21 29.30 C 51.42 29.27 49.84 29.20 49.06 29.17 C 49.10 26.49 48.88 23.78 49.17 21.11 Z" />
</g>
<g id="#dcdcdcff">
<path fill="#dcdcdc" opacity="1.00" d=" M 38.76 22.76 C 40.12 22.66 41.41 22.84 42.64 23.30 C 42.99 24.72 43.20 26.17 43.54 27.60 C 45.16 28.07 46.86 28.32 48.37 29.11 C 45.16 29.20 41.92 28.98 38.74 29.61 C 38.75 27.33 38.73 25.04 38.76 22.76 Z" />
</g>
<g id="#414141ff">
<path fill="#414141" opacity="1.00" d=" M 14.68 24.47 C 15.51 24.53 17.17 24.66 18.00 24.73 C 18.00 27.30 18.00 29.87 18.01 32.45 C 17.46 32.40 16.36 32.32 15.82 32.28 C 13.70 30.16 14.56 27.12 14.68 24.47 Z" />
</g>
<g id="#bebebeff">
<path fill="#bebebe" opacity="1.00" d=" M 29.86 31.88 C 32.77 30.92 35.79 30.34 38.76 29.64 C 38.67 32.21 38.99 34.85 38.34 37.37 C 36.72 37.80 34.52 36.86 33.45 38.57 C 33.34 38.57 33.11 38.57 33.00 38.57 C 31.77 38.59 30.53 38.69 29.30 38.85 L 29.31 38.16 C 29.74 36.10 30.86 33.96 29.86 31.88 Z" />
</g>
<g id="#b8b8b8fe">
<path fill="#b8b8b8" opacity="1.00" d=" M 9.54 31.25 L 11.06 31.58 C 12.61 32.00 14.23 32.06 15.82 32.28 C 16.36 32.32 17.46 32.40 18.01 32.45 C 20.08 32.44 22.15 32.49 24.23 32.59 C 23.60 32.64 22.36 32.73 21.74 32.78 C 20.49 32.78 19.24 32.77 18.00 32.76 C 15.80 32.72 13.60 32.59 11.40 32.52 C 10.34 36.49 14.40 39.33 18.00 38.50 C 18.00 38.84 18.00 39.53 18.00 39.87 C 16.21 39.94 14.43 39.72 12.65 39.71 L 11.91 39.40 C 11.20 38.95 10.48 38.51 9.76 38.07 C 9.47 35.81 9.65 33.52 9.54 31.25 Z" />
</g>
<g id="#f3f3f3ff">
<path fill="#f3f3f3" opacity="1.00" d=" M 11.40 32.52 C 13.60 32.59 15.80 32.72 18.00 32.76 C 18.00 34.67 17.99 36.59 18.00 38.50 C 14.40 39.33 10.34 36.49 11.40 32.52 Z" />
</g>
</svg>
