<?xml version="1.0" encoding="UTF-8" ?>
<!DOCTYPE svg PUBLIC "-//W3C//DTD SVG 1.1//EN" "http://www.w3.org/Graphics/SVG/1.1/DTD/svg11.dtd">
<svg width="64pt" height="64pt" viewBox="0 0 64 64" version="1.1" xmlns="http://www.w3.org/2000/svg">
<g id="#d3d3d4ff">
<path fill="#d3d3d4" opacity="1.00" d=" M 3.58 3.50 C 22.53 3.52 41.48 3.52 60.43 3.50 C 60.64 22.49 60.46 41.48 60.49 60.47 C 54.14 60.44 47.78 60.39 41.42 60.50 C 41.31 57.88 41.08 52.64 40.97 50.02 C 40.77 53.01 40.38 58.99 40.18 61.98 L 39.52 59.40 C 38.50 59.48 36.46 59.63 35.44 59.71 C 35.46 57.31 35.44 54.92 35.39 52.52 C 37.88 52.59 40.44 52.69 42.80 51.73 C 35.62 51.31 28.40 51.26 21.23 51.73 C 23.44 53.13 26.14 52.40 28.60 52.49 C 28.56 54.79 28.54 57.09 28.58 59.39 C 27.01 59.81 23.87 60.64 22.30 61.05 C 23.30 60.42 25.31 59.16 26.31 58.53 C 25.29 58.55 23.24 58.58 22.22 58.59 C 22.37 59.05 22.68 59.96 22.83 60.42 C 16.39 60.48 9.95 60.40 3.51 60.46 C 3.55 41.47 3.36 22.48 3.58 3.50 M 28.89 10.79 C 30.09 12.14 33.31 11.55 35.07 11.12 C 33.86 9.74 30.65 10.33 28.89 10.79 M 8.88 22.97 C 9.41 23.15 10.48 23.50 11.01 23.68 C 10.79 24.08 10.36 24.87 10.14 25.27 C 10.70 25.28 11.82 25.28 12.38 25.28 C 12.41 24.35 12.44 23.41 12.47 22.47 C 11.27 22.63 10.08 22.80 8.88 22.97 M 51.11 22.12 L 51.72 22.24 C 51.67 23.10 51.57 24.81 51.52 25.66 C 52.45 25.67 53.38 25.68 54.32 25.67 C 54.61 24.60 54.69 23.54 54.55 22.49 C 53.42 22.26 52.27 22.13 51.11 22.12 M 10.28 29.50 C 10.36 32.86 13.29 27.99 10.28 29.50 M 16.36 30.15 C 17.46 31.12 18.26 30.99 18.75 29.75 C 17.67 28.77 16.87 28.90 16.36 30.15 M 28.89 30.13 C 30.67 30.52 33.92 31.15 35.10 29.79 C 33.33 29.34 30.08 28.74 28.89 30.13 M 45.26 29.70 C 45.66 30.96 46.45 31.13 47.61 30.20 C 47.19 28.93 46.41 28.77 45.26 29.70 M 52.30 29.47 C 52.44 32.87 55.24 27.91 52.30 29.47 M 23.25 42.62 C 23.67 45.98 26.06 40.79 23.25 42.62 M 39.30 42.54 C 39.35 45.93 42.30 41.06 39.30 42.54 Z" />
<path fill="#d3d3d4" opacity="1.00" d=" M 29.35 52.51 C 31.12 52.53 32.88 52.53 34.65 52.51 C 34.63 54.88 34.60 57.24 34.63 59.61 C 32.87 59.58 31.12 59.58 29.37 59.61 C 29.40 57.24 29.38 54.88 29.35 52.51 Z" />
</g>
</svg>
