<?xml version="1.0" encoding="UTF-8" ?>
<!DOCTYPE svg PUBLIC "-//W3C//DTD SVG 1.1//EN" "http://www.w3.org/Graphics/SVG/1.1/DTD/svg11.dtd">
<svg width="64pt" height="64pt" viewBox="0 0 64 64" version="1.1" xmlns="http://www.w3.org/2000/svg">
<g id="#706560fd">
<path fill="#706560" opacity="1.00" d=" M 26.49 2.99 C 27.03 3.01 28.10 3.05 28.64 3.07 C 28.79 6.10 28.95 9.17 28.21 12.14 L 26.54 11.55 C 26.60 8.81 27.19 5.81 26.49 2.99 Z" />
</g>
<g id="#2c2c2cff">
<path fill="#2c2c2c" opacity="1.00" d=" M 28.64 3.07 C 29.12 3.06 30.09 3.03 30.57 3.02 C 30.78 5.60 30.69 8.73 32.96 10.48 C 34.43 9.86 35.83 9.09 37.31 8.49 C 37.87 8.95 38.41 9.43 38.92 9.96 C 39.07 10.53 39.35 11.69 39.50 12.27 C 35.74 12.17 31.97 12.36 28.21 12.14 C 28.95 9.17 28.79 6.10 28.64 3.07 Z" />
<path fill="#2c2c2c" opacity="1.00" d=" M 21.07 4.06 L 23.37 3.00 C 23.04 5.33 23.43 7.70 23.04 10.02 L 22.78 10.19 C 20.49 8.95 20.92 6.22 21.07 4.06 Z" />
</g>
<g id="#494a4aff">
<path fill="#494a4a" opacity="1.00" d=" M 30.57 3.02 C 33.35 3.01 36.13 2.94 38.90 3.08 C 38.71 5.37 38.65 7.67 38.92 9.96 C 38.41 9.43 37.87 8.95 37.31 8.49 C 35.83 9.09 34.43 9.86 32.96 10.48 C 30.69 8.73 30.78 5.60 30.57 3.02 Z" />
</g>
<g id="#6e645efc">
<path fill="#6e645e" opacity="1.00" d=" M 38.90 3.08 L 40.54 3.15 C 40.80 6.21 40.62 9.28 40.18 12.32 L 39.50 12.27 C 39.35 11.69 39.07 10.53 38.92 9.96 C 38.65 7.67 38.71 5.37 38.90 3.08 Z" />
</g>
<g id="#18191aff">
<path fill="#18191a" opacity="1.00" d=" M 40.54 3.15 C 42.21 3.44 44.11 3.36 45.55 4.33 C 45.78 7.10 45.32 9.91 45.81 12.66 C 43.93 12.61 42.05 12.52 40.18 12.32 C 40.62 9.28 40.80 6.21 40.54 3.15 Z" />
<path fill="#18191a" opacity="1.00" d=" M 39.89 53.84 C 41.79 53.52 43.70 53.20 45.59 52.84 C 45.59 55.15 45.64 57.47 45.59 59.79 C 44.34 60.29 43.03 60.58 41.66 60.67 L 41.57 60.29 C 41.15 58.11 40.53 55.97 39.89 53.84 Z" />
</g>
<g id="#1c1919f4">
<path fill="#1c1919" opacity="0.96" d=" M 20.06 4.17 L 21.07 4.06 C 20.92 6.22 20.49 8.95 22.78 10.19 L 23.04 10.02 C 23.26 10.29 23.69 10.84 23.90 11.11 L 24.28 12.02 C 22.92 12.52 21.47 12.62 20.06 12.89 C 19.80 10.01 19.91 7.07 20.06 4.17 Z" />
</g>
<g id="#7d6f6aff">
<path fill="#7d6f6a" opacity="1.00" d=" M 23.90 11.11 C 23.74 8.35 23.06 5.11 24.96 2.77 C 27.36 5.42 26.60 8.99 24.91 11.74 L 24.28 12.02 L 23.90 11.11 Z" />
</g>
<g id="#7c2d25f8">
<path fill="#7c2d25" opacity="0.97" d=" M 20.06 12.89 C 21.47 12.62 22.92 12.52 24.28 12.02 L 24.91 11.74 C 25.31 11.69 26.13 11.60 26.54 11.55 L 28.21 12.14 C 31.97 12.36 35.74 12.17 39.50 12.27 L 40.18 12.32 C 42.05 12.52 43.93 12.61 45.81 12.66 L 46.64 12.84 C 47.53 13.76 48.44 14.68 49.19 15.73 C 49.37 17.30 49.53 18.87 49.76 20.44 C 47.56 17.88 45.82 14.22 42.09 13.76 C 36.04 13.41 29.96 13.48 23.92 13.78 C 18.01 14.44 16.40 20.90 14.36 25.45 C 14.23 24.83 13.97 23.58 13.84 22.96 C 14.77 19.11 16.59 15.02 20.06 12.89 Z" />
</g>
<g id="#b73223ff">
<path fill="#b73223" opacity="1.00" d=" M 14.36 25.45 C 16.40 20.90 18.01 14.44 23.92 13.78 C 29.96 13.48 36.04 13.41 42.09 13.76 C 45.82 14.22 47.56 17.88 49.76 20.44 C 54.60 30.21 52.50 43.82 43.32 50.28 C 36.68 50.71 30.01 50.60 23.37 50.37 C 19.80 49.98 17.78 46.65 16.36 43.72 C 13.50 38.13 12.56 31.52 14.36 25.45 M 23.31 16.40 C 19.35 17.28 17.96 21.60 17.13 25.07 C 13.83 35.17 23.45 46.72 33.90 45.69 C 39.82 45.88 44.66 41.40 47.63 36.68 C 51.09 30.67 49.05 23.13 45.23 17.81 C 42.43 15.42 38.49 15.52 35.02 15.53 C 31.11 15.65 27.07 15.08 23.31 16.40 Z" />
</g>
<g id="#ec5933ff">
<path fill="#ec5933" opacity="1.00" d=" M 23.31 16.40 C 27.07 15.08 31.11 15.65 35.02 15.53 C 38.49 15.52 42.43 15.42 45.23 17.81 C 49.05 23.13 51.09 30.67 47.63 36.68 C 44.66 41.40 39.82 45.88 33.90 45.69 C 23.45 46.72 13.83 35.17 17.13 25.07 C 17.96 21.60 19.35 17.28 23.31 16.40 M 27.18 21.25 C 27.42 22.36 29.02 22.08 29.86 22.55 C 27.88 22.63 25.79 22.68 24.17 24.00 C 24.65 24.52 25.14 25.04 25.62 25.55 C 25.09 25.71 24.02 26.02 23.49 26.17 C 23.53 27.30 23.32 28.38 22.68 29.33 C 23.48 32.71 23.25 37.17 27.26 38.60 C 27.36 38.90 27.54 39.51 27.64 39.82 C 30.82 41.38 34.79 41.75 38.05 40.16 C 38.88 37.54 41.98 36.83 43.44 34.62 C 43.27 34.32 42.94 33.72 42.77 33.42 C 43.06 32.44 43.59 31.44 42.86 30.49 C 43.00 30.22 43.28 29.67 43.41 29.40 C 42.46 28.58 42.68 27.43 42.63 26.32 C 41.93 26.02 41.23 25.73 40.52 25.46 C 40.84 25.11 41.47 24.43 41.79 24.09 C 40.59 22.78 38.89 22.65 37.23 22.68 C 37.90 22.32 38.40 21.82 38.72 21.20 C 35.00 19.77 30.93 20.18 27.18 21.25 Z" />
</g>
<g id="#631b1bff">
<path fill="#631b1b" opacity="1.00" d=" M 49.19 15.73 C 53.09 21.65 53.62 29.14 53.25 36.04 C 52.33 42.12 50.36 48.69 45.59 52.84 C 43.70 53.20 41.79 53.52 39.89 53.84 L 39.55 53.86 C 35.82 53.59 32.02 53.29 28.33 54.13 L 27.89 54.19 C 26.59 54.24 25.31 54.14 24.04 53.89 C 22.74 53.49 21.44 53.13 20.13 52.76 L 19.51 52.54 C 12.74 44.47 11.13 32.95 13.84 22.96 C 13.97 23.58 14.23 24.83 14.36 25.45 C 12.56 31.52 13.50 38.13 16.36 43.72 C 17.78 46.65 19.80 49.98 23.37 50.37 C 30.01 50.60 36.68 50.71 43.32 50.28 C 52.50 43.82 54.60 30.21 49.76 20.44 C 49.53 18.87 49.37 17.30 49.19 15.73 Z" />
</g>
<g id="#f18034ff">
<path fill="#f18034" opacity="1.00" d=" M 27.18 21.25 C 30.93 20.18 35.00 19.77 38.72 21.20 C 38.40 21.82 37.90 22.32 37.23 22.68 C 38.89 22.65 40.59 22.78 41.79 24.09 C 41.47 24.43 40.84 25.11 40.52 25.46 C 41.23 25.73 41.93 26.02 42.63 26.32 C 42.68 27.43 42.46 28.58 43.41 29.40 C 43.28 29.67 43.00 30.22 42.86 30.49 C 43.59 31.44 43.06 32.44 42.77 33.42 C 42.94 33.72 43.27 34.32 43.44 34.62 C 41.98 36.83 38.88 37.54 38.05 40.16 C 34.79 41.75 30.82 41.38 27.64 39.82 C 27.54 39.51 27.36 38.90 27.26 38.60 C 23.25 37.17 23.48 32.71 22.68 29.33 C 23.32 28.38 23.53 27.30 23.49 26.17 C 24.02 26.02 25.09 25.71 25.62 25.55 C 25.14 25.04 24.65 24.52 24.17 24.00 C 25.79 22.68 27.88 22.63 29.86 22.55 C 29.02 22.08 27.42 22.36 27.18 21.25 M 27.00 26.33 C 27.96 26.78 28.95 27.15 29.91 27.62 C 28.35 28.28 26.75 28.80 25.20 29.46 C 26.53 29.84 28.01 29.92 29.16 30.76 C 27.85 31.03 26.54 31.26 25.22 31.46 C 26.45 32.12 27.69 32.74 28.91 33.43 C 27.99 33.78 27.07 34.15 26.17 34.53 C 30.96 36.23 36.06 35.74 40.92 34.62 C 39.75 34.01 37.93 34.52 37.17 33.30 C 38.39 32.76 39.74 32.42 40.81 31.58 C 39.49 31.18 38.16 30.83 36.84 30.43 C 38.17 30.06 39.51 29.73 40.87 29.43 C 39.32 28.67 37.63 28.26 36.10 27.47 C 37.03 27.11 37.96 26.75 38.88 26.40 C 35.02 25.11 30.90 25.31 27.00 26.33 Z" />
</g>
<g id="#f1a43fff">
<path fill="#f1a43f" opacity="1.00" d=" M 27.00 26.33 C 30.90 25.31 35.02 25.11 38.88 26.40 C 37.96 26.75 37.03 27.11 36.10 27.47 C 37.63 28.26 39.32 28.67 40.87 29.43 C 39.51 29.73 38.17 30.06 36.84 30.43 C 38.16 30.83 39.49 31.18 40.81 31.58 C 39.74 32.42 38.39 32.76 37.17 33.30 C 37.93 34.52 39.75 34.01 40.92 34.62 C 36.06 35.74 30.96 36.23 26.17 34.53 C 27.07 34.15 27.99 33.78 28.91 33.43 C 27.69 32.74 26.45 32.12 25.22 31.46 C 26.54 31.26 27.85 31.03 29.16 30.76 C 28.01 29.92 26.53 29.84 25.20 29.46 C 26.75 28.80 28.35 28.28 29.91 27.62 C 28.95 27.15 27.96 26.78 27.00 26.33 Z" />
</g>
<g id="#242525ff">
<path fill="#242525" opacity="1.00" d=" M 20.13 52.76 C 21.44 53.13 22.74 53.49 24.04 53.89 C 23.52 55.98 23.03 58.15 23.60 60.30 C 24.25 60.34 25.55 60.44 26.20 60.49 L 25.86 60.67 C 23.98 60.62 22.07 60.46 20.25 59.94 C 19.63 57.58 20.17 55.15 20.13 52.76 Z" />
</g>
<g id="#57504cff">
<path fill="#57504c" opacity="1.00" d=" M 24.04 53.89 C 25.31 54.14 26.59 54.24 27.89 54.19 C 28.19 56.43 29.00 59.52 26.20 60.49 C 25.55 60.44 24.25 60.34 23.60 60.30 C 23.03 58.15 23.52 55.98 24.04 53.89 Z" />
</g>
<g id="#494846ff">
<path fill="#494846" opacity="1.00" d=" M 27.89 54.19 L 28.33 54.13 C 28.57 54.53 29.04 55.33 29.27 55.72 C 32.41 55.04 35.63 56.24 38.64 55.87 C 38.87 55.37 39.32 54.36 39.55 53.86 L 39.89 53.84 C 40.53 55.97 41.15 58.11 41.57 60.29 C 36.47 61.38 31.07 60.74 25.86 60.67 L 26.20 60.49 C 29.00 59.52 28.19 56.43 27.89 54.19 Z" />
</g>
<g id="#292423ff">
<path fill="#292423" opacity="1.00" d=" M 28.33 54.13 C 32.02 53.29 35.82 53.59 39.55 53.86 C 39.32 54.36 38.87 55.37 38.64 55.87 C 35.63 56.24 32.41 55.04 29.27 55.72 C 29.04 55.33 28.57 54.53 28.33 54.13 Z" />
</g>
</svg>
