<?xml version="1.0" encoding="UTF-8" ?>
<!DOCTYPE svg PUBLIC "-//W3C//DTD SVG 1.1//EN" "http://www.w3.org/Graphics/SVG/1.1/DTD/svg11.dtd">
<svg width="64pt" height="64pt" viewBox="0 0 64 64" version="1.1" xmlns="http://www.w3.org/2000/svg">
<g id="#381e07ff">
<path fill="#381e07" opacity="1.00" d=" M 29.16 3.34 C 37.58 3.04 46.02 3.25 54.44 3.27 C 55.53 5.00 56.74 6.66 57.64 8.50 C 57.80 13.73 57.51 18.97 57.63 24.20 L 57.17 23.56 C 56.40 18.98 56.75 14.31 56.77 9.69 C 46.70 9.74 36.64 9.52 26.58 9.79 L 25.79 10.03 C 25.55 14.60 25.97 19.18 25.89 23.75 C 19.77 23.15 13.63 23.50 7.51 23.37 L 6.34 22.64 C 12.06 22.10 17.81 22.61 23.54 22.37 C 24.33 21.97 25.06 21.48 25.73 20.91 C 25.67 16.83 25.48 12.76 25.46 8.69 C 26.40 6.76 27.46 4.69 29.16 3.34 M 31.15 4.30 C 29.15 3.97 28.45 5.94 28.12 7.52 C 37.04 7.71 45.96 7.59 54.88 7.60 C 54.68 5.98 54.03 3.92 51.98 4.30 C 45.04 4.20 38.09 4.22 31.15 4.30 Z" />
</g>
<g id="#684525ff">
<path fill="#684525" opacity="1.00" d=" M 31.15 4.30 C 38.09 4.22 45.04 4.20 51.98 4.30 C 54.03 3.92 54.68 5.98 54.88 7.60 C 45.96 7.59 37.04 7.71 28.12 7.52 C 28.45 5.94 29.15 3.97 31.15 4.30 Z" />
<path fill="#684525" opacity="1.00" d=" M 7.51 23.37 C 13.63 23.50 19.77 23.15 25.89 23.75 C 25.78 24.37 25.58 25.61 25.47 26.23 C 18.93 26.26 11.95 27.89 5.69 25.47 C 5.79 24.97 5.99 23.97 6.09 23.47 L 7.51 23.37 Z" />
</g>
<g id="#5a7173ff">
<path fill="#5a7173" opacity="1.00" d=" M 25.79 10.03 L 26.58 9.79 C 26.89 15.76 26.30 21.71 26.21 27.67 C 26.08 38.36 26.17 49.05 26.26 59.73 C 18.87 60.17 11.47 59.95 4.07 59.96 C 3.44 49.64 4.30 39.28 3.26 28.98 L 4.40 28.97 C 4.35 35.29 4.52 41.60 4.48 47.92 C 4.46 51.70 4.52 55.48 4.62 59.26 C 10.93 59.28 17.27 59.67 23.55 58.83 C 23.89 48.97 22.96 38.98 24.85 29.24 C 25.06 28.24 25.27 27.24 25.47 26.23 C 25.58 25.61 25.78 24.37 25.89 23.75 C 25.97 19.18 25.55 14.60 25.79 10.03 Z" />
<path fill="#5a7173" opacity="1.00" d=" M 57.40 28.75 C 58.23 28.75 59.90 28.73 60.73 28.72 C 59.39 39.01 60.51 49.41 59.91 59.74 C 58.86 59.72 57.81 59.69 56.76 59.66 C 57.72 49.39 56.89 39.05 57.40 28.75 Z" />
</g>
<g id="#bedaddff">
<path fill="#bedadd" opacity="1.00" d=" M 26.58 9.79 C 36.64 9.52 46.70 9.74 56.77 9.69 C 56.75 14.31 56.40 18.98 57.17 23.56 C 57.34 25.29 57.42 27.02 57.40 28.75 C 56.89 39.05 57.72 49.39 56.76 59.66 C 56.14 59.64 54.90 59.60 54.28 59.58 C 53.14 58.96 52.02 58.31 50.89 57.66 C 52.25 57.60 53.61 57.53 54.96 57.44 C 55.16 57.42 55.56 57.38 55.76 57.36 C 56.23 52.04 56.05 46.65 54.77 41.45 C 53.75 41.48 51.73 41.55 50.72 41.58 C 50.03 38.31 49.04 35.11 48.11 31.90 C 47.27 31.90 45.59 31.89 44.74 31.89 C 44.74 34.03 44.75 36.18 44.76 38.32 C 43.00 38.50 41.24 38.68 39.48 38.85 C 39.35 36.57 39.23 34.30 39.00 32.03 L 38.38 31.98 C 37.57 31.93 35.94 31.85 35.12 31.80 C 35.13 34.00 35.14 36.20 35.16 38.40 C 34.75 38.42 33.93 38.46 33.52 38.48 C 33.09 36.27 32.65 34.06 32.20 31.86 C 31.33 31.87 29.60 31.89 28.74 31.91 C 28.74 34.02 28.76 36.14 28.77 38.25 C 28.40 38.28 27.65 38.34 27.27 38.37 C 27.06 34.79 26.62 31.23 26.21 27.67 C 26.30 21.71 26.89 15.76 26.58 9.79 M 28.76 12.71 C 28.82 15.36 28.44 18.06 28.96 20.67 C 28.75 23.39 28.73 26.11 28.74 28.84 C 31.83 28.70 35.12 29.31 38.07 28.16 C 41.32 26.34 39.63 20.79 35.91 20.99 C 37.69 19.55 40.14 17.67 39.13 15.04 C 36.97 11.49 32.17 13.08 28.76 12.71 M 41.54 12.71 C 41.54 15.00 41.53 17.29 41.55 19.57 L 41.74 19.82 C 41.56 22.92 41.52 26.03 41.63 29.13 C 42.74 29.08 43.85 29.03 44.96 29.00 C 44.96 26.91 44.94 24.83 44.93 22.74 C 45.15 22.54 45.59 22.14 45.81 21.94 C 47.46 24.30 48.92 26.89 51.12 28.79 C 52.44 28.87 53.76 28.89 55.09 28.87 C 52.81 25.79 50.21 22.96 48.16 19.71 C 50.31 17.55 52.08 15.05 53.89 12.61 C 49.18 12.06 47.76 17.56 44.88 20.23 C 44.84 17.74 44.83 15.25 44.88 12.77 C 44.05 12.75 42.38 12.73 41.54 12.71 M 51.14 32.35 C 51.14 32.62 51.14 33.14 51.15 33.40 C 51.13 35.05 51.12 36.70 51.11 38.36 C 51.94 38.32 53.59 38.25 54.42 38.21 C 54.97 36.24 54.55 34.21 54.30 32.22 C 53.25 32.27 52.20 32.31 51.14 32.35 Z" />
</g>
<g id="#343636ff">
<path fill="#343636" opacity="1.00" d=" M 28.76 12.71 C 32.17 13.08 36.97 11.49 39.13 15.04 C 40.14 17.67 37.69 19.55 35.91 20.99 C 35.56 21.26 34.86 21.79 34.51 22.06 C 33.92 21.93 32.75 21.68 32.17 21.55 C 32.12 23.28 32.09 25.01 32.07 26.74 C 31.14 24.66 30.07 22.65 28.96 20.67 C 28.44 18.06 28.82 15.36 28.76 12.71 M 31.73 15.23 C 31.79 16.32 31.92 18.49 31.98 19.58 C 34.43 19.51 36.11 17.93 35.82 15.43 C 34.46 15.35 33.10 15.28 31.73 15.23 Z" />
</g>
<g id="#383a3aff">
<path fill="#383a3a" opacity="1.00" d=" M 41.54 12.71 C 42.38 12.73 44.05 12.75 44.88 12.77 C 44.83 15.25 44.84 17.74 44.88 20.23 C 47.76 17.56 49.18 12.06 53.89 12.61 C 52.08 15.05 50.31 17.55 48.16 19.71 C 47.40 20.48 46.60 21.21 45.81 21.94 C 45.59 22.14 45.15 22.54 44.93 22.74 C 44.94 24.83 44.96 26.91 44.96 29.00 C 43.85 29.03 42.74 29.08 41.63 29.13 C 46.49 28.23 44.28 22.14 41.74 19.82 L 41.55 19.57 C 41.53 17.29 41.54 15.00 41.54 12.71 Z" />
</g>
<g id="#c2dee1ff">
<path fill="#c2dee1" opacity="1.00" d=" M 31.73 15.23 C 33.10 15.28 34.46 15.35 35.82 15.43 C 36.11 17.93 34.43 19.51 31.98 19.58 C 31.92 18.49 31.79 16.32 31.73 15.23 Z" />
<path fill="#c2dee1" opacity="1.00" d=" M 32.17 21.55 C 32.75 21.68 33.92 21.93 34.51 22.06 C 35.01 22.51 36.01 23.40 36.51 23.85 C 37.05 26.77 33.98 26.35 32.07 26.74 C 32.09 25.01 32.12 23.28 32.17 21.55 Z" />
</g>
<g id="#090807ff">
<path fill="#090807" opacity="1.00" d=" M 45.81 21.94 C 46.60 21.21 47.40 20.48 48.16 19.71 C 50.21 22.96 52.81 25.79 55.09 28.87 C 53.76 28.89 52.44 28.87 51.12 28.79 C 48.92 26.89 47.46 24.30 45.81 21.94 Z" />
<path fill="#090807" opacity="1.00" d=" M 57.17 23.56 L 57.63 24.20 C 58.76 25.64 59.81 27.14 60.73 28.72 C 59.90 28.73 58.23 28.75 57.40 28.75 C 57.42 27.02 57.34 25.29 57.17 23.56 Z" />
<path fill="#090807" opacity="1.00" d=" M 51.00 49.61 C 50.44 48.21 52.69 47.01 53.84 47.75 C 54.88 48.73 54.98 49.83 54.14 51.04 L 53.80 51.17 C 54.24 49.63 52.10 48.75 51.00 49.61 Z" />
</g>
<g id="#010000ff">
<path fill="#010000" opacity="1.00" d=" M 34.51 22.06 C 34.86 21.79 35.56 21.26 35.91 20.99 C 39.63 20.79 41.32 26.34 38.07 28.16 C 35.12 29.31 31.83 28.70 28.74 28.84 C 28.73 26.11 28.75 23.39 28.96 20.67 C 30.07 22.65 31.14 24.66 32.07 26.74 C 33.98 26.35 37.05 26.77 36.51 23.85 C 36.01 23.40 35.01 22.51 34.51 22.06 Z" />
<path fill="#010000" opacity="1.00" d=" M 9.46 32.33 C 10.53 32.32 11.61 32.31 12.69 32.30 C 12.71 34.32 12.77 36.33 12.86 38.34 C 12.24 36.30 13.63 32.47 9.95 32.79 C 9.86 34.61 9.77 36.43 9.64 38.26 C 9.28 36.30 9.20 34.31 9.46 32.33 Z" />
<path fill="#010000" opacity="1.00" d=" M 51.14 32.35 C 52.20 32.31 53.25 32.27 54.30 32.22 C 54.55 34.21 54.97 36.24 54.42 38.21 C 54.23 36.54 54.10 34.86 53.97 33.18 C 53.03 33.25 52.09 33.33 51.15 33.40 C 51.14 33.14 51.14 32.62 51.14 32.35 Z" />
<path fill="#010000" opacity="1.00" d=" M 9.70 43.00 C 7.86 40.35 15.06 40.66 12.67 42.96 C 11.93 42.97 10.45 42.99 9.70 43.00 Z" />
<path fill="#010000" opacity="1.00" d=" M 16.02 43.39 C 14.41 41.52 19.14 40.08 19.41 42.33 L 18.98 42.98 C 18.24 43.08 16.76 43.29 16.02 43.39 Z" />
<path fill="#010000" opacity="1.00" d=" M 28.96 43.29 C 27.13 40.66 33.75 40.74 31.88 43.31 C 31.15 43.31 29.69 43.29 28.96 43.29 Z" />
<path fill="#010000" opacity="1.00" d=" M 35.39 43.26 C 33.51 40.65 39.99 40.66 38.28 43.31 C 37.56 43.30 36.11 43.27 35.39 43.26 Z" />
<path fill="#010000" opacity="1.00" d=" M 44.88 43.42 C 43.32 41.51 47.98 40.09 48.25 42.35 L 47.81 43.00 C 47.08 43.11 45.61 43.32 44.88 43.42 Z" />
</g>
<g id="#080707ff">
<path fill="#080707" opacity="1.00" d=" M 41.74 19.82 C 44.28 22.14 46.49 28.23 41.63 29.13 C 41.52 26.03 41.56 22.92 41.74 19.82 Z" />
</g>
<g id="#3c2c1bfd">
<path fill="#3c2c1b" opacity="1.00" d=" M 5.27 25.28 L 5.69 25.47 C 11.95 27.89 18.93 26.26 25.47 26.23 C 25.27 27.24 25.06 28.24 24.85 29.24 L 23.14 29.13 C 16.90 28.72 10.65 28.93 4.40 28.97 L 3.26 28.98 C 3.92 27.75 4.60 26.52 5.27 25.28 Z" />
</g>
<g id="#b5d2d4ff">
<path fill="#b5d2d4" opacity="1.00" d=" M 26.21 27.67 C 26.62 31.23 27.06 34.79 27.27 38.37 C 27.65 38.34 28.40 38.28 28.77 38.25 L 30.16 38.15 L 30.68 38.12 L 31.99 38.06 C 32.06 35.99 32.12 33.92 32.20 31.86 C 32.65 34.06 33.09 36.27 33.52 38.48 C 33.93 38.46 34.75 38.42 35.16 38.40 C 35.97 38.36 37.61 38.28 38.42 38.24 C 38.41 36.15 38.40 34.07 38.38 31.98 L 39.00 32.03 C 39.23 34.30 39.35 36.57 39.48 38.85 C 41.24 38.68 43.00 38.50 44.76 38.32 L 46.12 38.18 L 46.63 38.14 L 48.02 38.04 C 48.05 35.99 48.08 33.94 48.11 31.90 C 49.04 35.11 50.03 38.31 50.72 41.58 C 50.87 42.36 51.17 43.92 51.33 44.70 C 52.07 44.73 53.56 44.80 54.30 44.83 C 54.42 43.99 54.65 42.29 54.77 41.45 C 56.05 46.65 56.23 52.04 55.76 57.36 C 55.56 57.38 55.16 57.42 54.96 57.44 C 55.00 54.98 53.54 53.81 51.17 53.77 C 51.10 54.75 50.96 56.69 50.89 57.66 C 52.02 58.31 53.14 58.96 54.28 59.58 C 52.21 59.58 50.15 59.65 48.08 59.73 C 48.15 56.73 48.28 53.74 48.50 50.75 C 43.84 50.87 39.17 50.88 34.51 50.71 C 35.01 53.69 35.21 56.71 35.15 59.73 C 32.19 59.61 29.22 59.60 26.26 59.73 C 26.17 49.05 26.08 38.36 26.21 27.67 M 28.96 43.29 L 28.55 43.89 C 28.54 46.29 33.50 45.35 31.88 43.31 C 33.75 40.74 27.13 40.66 28.96 43.29 M 35.39 43.26 L 34.92 43.83 C 34.95 45.79 38.41 45.84 38.64 43.94 L 38.28 43.31 C 39.99 40.66 33.51 40.65 35.39 43.26 M 44.88 43.42 C 43.43 46.31 50.06 45.22 47.81 43.00 L 48.25 42.35 C 47.98 40.09 43.32 41.51 44.88 43.42 M 28.70 51.18 C 29.56 51.17 31.26 51.16 32.12 51.15 C 32.11 50.34 32.09 48.72 32.08 47.91 C 31.24 47.90 29.57 47.87 28.73 47.86 C 28.72 48.97 28.71 50.07 28.70 51.18 M 51.00 49.61 C 51.15 51.40 52.09 51.92 53.80 51.17 L 54.14 51.04 C 54.98 49.83 54.88 48.73 53.84 47.75 C 52.69 47.01 50.44 48.21 51.00 49.61 M 28.86 54.12 C 28.81 54.98 28.73 56.71 28.68 57.58 C 29.56 57.56 31.32 57.51 32.20 57.48 C 32.14 56.67 32.02 55.04 31.96 54.23 C 31.19 54.20 29.63 54.15 28.86 54.12 Z" />
</g>
<g id="#3e494ad0">
<path fill="#3e494a" opacity="0.82" d=" M 3.10 60.82 C 3.14 50.21 2.95 39.59 3.26 28.98 C 4.30 39.28 3.44 49.64 4.07 59.96 C 11.47 59.95 18.87 60.17 26.26 59.73 C 29.22 59.60 32.19 59.61 35.15 59.73 C 39.46 59.94 43.78 59.95 48.08 59.73 C 50.15 59.65 52.21 59.58 54.28 59.58 C 54.90 59.60 56.14 59.64 56.76 59.66 C 57.81 59.69 58.86 59.72 59.91 59.74 C 60.51 49.41 59.39 39.01 60.73 28.72 C 61.12 39.42 60.85 50.12 60.89 60.81 C 41.63 60.95 22.36 60.98 3.10 60.82 Z" />
</g>
<g id="#a0c4c8ff">
<path fill="#a0c4c8" opacity="1.00" d=" M 4.40 28.97 C 10.65 28.93 16.90 28.72 23.14 29.13 C 22.12 36.23 21.44 43.38 20.81 50.52 C 20.18 49.78 19.54 49.05 18.88 48.34 L 18.16 47.74 C 17.70 47.89 16.77 48.19 16.31 48.33 C 15.39 49.00 14.50 49.71 13.55 50.33 C 13.05 48.35 11.45 47.67 9.59 47.45 C 9.17 48.53 8.75 49.61 8.32 50.68 C 7.04 49.76 5.76 48.84 4.48 47.92 C 4.52 41.60 4.35 35.29 4.40 28.97 M 9.46 32.33 C 9.20 34.31 9.28 36.30 9.64 38.26 C 10.45 38.28 12.06 38.32 12.86 38.34 C 12.77 36.33 12.71 34.32 12.69 32.30 C 11.61 32.31 10.53 32.32 9.46 32.33 M 15.98 31.98 C 15.96 34.07 15.95 36.17 15.94 38.26 L 17.32 37.96 L 17.85 37.96 L 19.21 38.35 C 19.21 36.23 19.20 34.11 19.19 32.00 C 18.38 31.99 16.78 31.98 15.98 31.98 M 9.70 43.00 C 8.13 45.72 14.63 45.44 12.67 42.96 C 15.06 40.66 7.86 40.35 9.70 43.00 M 16.02 43.39 C 14.57 46.22 21.16 45.25 18.98 42.98 L 19.41 42.33 C 19.14 40.08 14.41 41.52 16.02 43.39 Z" />
</g>
<g id="#91b4b6ff">
<path fill="#91b4b6" opacity="1.00" d=" M 23.14 29.13 L 24.85 29.24 C 22.96 38.98 23.89 48.97 23.55 58.83 C 17.27 59.67 10.93 59.28 4.62 59.26 C 4.52 55.48 4.46 51.70 4.48 47.92 C 5.76 48.84 7.04 49.76 8.32 50.68 C 8.75 49.61 9.17 48.53 9.59 47.45 C 9.59 48.41 9.60 50.34 9.60 51.31 C 10.93 51.02 12.24 50.69 13.55 50.33 C 14.50 49.71 15.39 49.00 16.31 48.33 L 16.18 48.98 C 15.24 50.72 17.75 52.13 18.97 50.75 C 18.97 50.31 18.97 49.44 18.98 49.00 L 18.88 48.34 C 19.54 49.05 20.18 49.78 20.81 50.52 C 21.44 43.38 22.12 36.23 23.14 29.13 M 9.72 54.02 C 9.64 54.89 9.48 56.63 9.40 57.50 C 10.33 57.46 12.18 57.38 13.11 57.34 C 13.03 56.56 12.88 55.00 12.81 54.22 C 12.04 54.17 10.49 54.07 9.72 54.02 M 16.13 54.20 C 16.04 54.99 15.86 56.57 15.77 57.36 C 16.67 57.39 18.45 57.44 19.35 57.47 C 19.29 56.62 19.18 54.94 19.13 54.09 C 18.38 54.12 16.88 54.17 16.13 54.20 Z" />
</g>
<g id="#07629bff">
<path fill="#07629b" opacity="1.00" d=" M 15.98 31.98 C 16.78 31.98 18.38 31.99 19.19 32.00 C 19.20 34.11 19.21 36.23 19.21 38.35 L 17.85 37.96 C 18.29 37.01 18.86 34.51 17.27 34.48 C 16.64 35.61 16.66 36.77 17.32 37.96 L 15.94 38.26 C 15.95 36.17 15.96 34.07 15.98 31.98 Z" />
<path fill="#07629b" opacity="1.00" d=" M 28.74 31.91 C 29.60 31.89 31.33 31.87 32.20 31.86 C 32.12 33.92 32.06 35.99 31.99 38.06 L 30.68 38.12 C 31.30 36.89 31.32 35.68 30.72 34.51 C 29.14 34.61 29.78 37.16 30.16 38.15 L 28.77 38.25 C 28.76 36.14 28.74 34.02 28.74 31.91 Z" />
<path fill="#07629b" opacity="1.00" d=" M 44.74 31.89 C 45.59 31.89 47.27 31.90 48.11 31.90 C 48.08 33.94 48.05 35.99 48.02 38.04 L 46.63 38.14 C 47.27 36.91 47.30 35.71 46.72 34.53 C 45.13 34.63 45.74 37.17 46.12 38.18 L 44.76 38.32 C 44.75 36.18 44.74 34.03 44.74 31.89 Z" />
</g>
<g id="#0084d6ff">
<path fill="#0084d6" opacity="1.00" d=" M 35.12 31.80 C 35.94 31.85 37.57 31.93 38.38 31.98 C 38.40 34.07 38.41 36.15 38.42 38.24 C 37.61 38.28 35.97 38.36 35.16 38.40 C 35.14 36.20 35.13 34.00 35.12 31.80 Z" />
<path fill="#0084d6" opacity="1.00" d=" M 51.15 33.40 C 52.09 33.33 53.03 33.25 53.97 33.18 C 54.10 34.86 54.23 36.54 54.42 38.21 C 53.59 38.25 51.94 38.32 51.11 38.36 C 51.12 36.70 51.13 35.05 51.15 33.40 Z" />
<path fill="#0084d6" opacity="1.00" d=" M 9.70 43.00 C 10.45 42.99 11.93 42.97 12.67 42.96 C 14.63 45.44 8.13 45.72 9.70 43.00 Z" />
<path fill="#0084d6" opacity="1.00" d=" M 16.02 43.39 C 16.76 43.29 18.24 43.08 18.98 42.98 C 21.16 45.25 14.57 46.22 16.02 43.39 Z" />
<path fill="#0084d6" opacity="1.00" d=" M 28.96 43.29 C 29.69 43.29 31.15 43.31 31.88 43.31 C 33.50 45.35 28.54 46.29 28.55 43.89 L 28.96 43.29 Z" />
<path fill="#0084d6" opacity="1.00" d=" M 35.39 43.26 C 36.11 43.27 37.56 43.30 38.28 43.31 L 38.64 43.94 C 38.41 45.84 34.95 45.79 34.92 43.83 L 35.39 43.26 Z" />
<path fill="#0084d6" opacity="1.00" d=" M 44.88 43.42 C 45.61 43.32 47.08 43.11 47.81 43.00 C 50.06 45.22 43.43 46.31 44.88 43.42 Z" />
<path fill="#0084d6" opacity="1.00" d=" M 51.00 49.61 C 52.10 48.75 54.24 49.63 53.80 51.17 C 52.09 51.92 51.15 51.40 51.00 49.61 Z" />
</g>
<g id="#007acaff">
<path fill="#007aca" opacity="1.00" d=" M 9.64 38.26 C 9.77 36.43 9.86 34.61 9.95 32.79 C 13.63 32.47 12.24 36.30 12.86 38.34 C 12.06 38.32 10.45 38.28 9.64 38.26 Z" />
</g>
<g id="#0087d9ff">
<path fill="#0087d9" opacity="1.00" d=" M 17.27 34.48 C 18.86 34.51 18.29 37.01 17.85 37.96 L 17.32 37.96 C 16.66 36.77 16.64 35.61 17.27 34.48 Z" />
<path fill="#0087d9" opacity="1.00" d=" M 30.16 38.15 C 29.78 37.16 29.14 34.61 30.72 34.51 C 31.32 35.68 31.30 36.89 30.68 38.12 L 30.16 38.15 Z" />
<path fill="#0087d9" opacity="1.00" d=" M 46.12 38.18 C 45.74 37.17 45.13 34.63 46.72 34.53 C 47.30 35.71 47.27 36.91 46.63 38.14 L 46.12 38.18 Z" />
</g>
<g id="#1a689cff">
<path fill="#1a689c" opacity="1.00" d=" M 50.72 41.58 C 51.73 41.55 53.75 41.48 54.77 41.45 C 54.65 42.29 54.42 43.99 54.30 44.83 C 53.56 44.80 52.07 44.73 51.33 44.70 C 51.17 43.92 50.87 42.36 50.72 41.58 Z" />
</g>
<g id="#105e91ff">
<path fill="#105e91" opacity="1.00" d=" M 9.59 47.45 C 11.45 47.67 13.05 48.35 13.55 50.33 C 12.24 50.69 10.93 51.02 9.60 51.31 C 9.60 50.34 9.59 48.41 9.59 47.45 Z" />
</g>
<g id="#114465ff">
<path fill="#114465" opacity="1.00" d=" M 16.31 48.33 C 16.77 48.19 17.70 47.89 18.16 47.74 L 18.88 48.34 L 18.98 49.00 C 18.28 48.99 16.88 48.99 16.18 48.98 L 16.31 48.33 Z" />
</g>
<g id="#2a719bff">
<path fill="#2a719b" opacity="1.00" d=" M 28.70 51.18 C 28.71 50.07 28.72 48.97 28.73 47.86 C 29.57 47.87 31.24 47.90 32.08 47.91 C 32.09 48.72 32.11 50.34 32.12 51.15 C 31.26 51.16 29.56 51.17 28.70 51.18 Z" />
</g>
<g id="#0366a5ff">
<path fill="#0366a5" opacity="1.00" d=" M 16.18 48.98 C 16.88 48.99 18.28 48.99 18.98 49.00 C 18.97 49.44 18.97 50.31 18.97 50.75 C 17.75 52.13 15.24 50.72 16.18 48.98 Z" />
</g>
<g id="#656b6cff">
<path fill="#656b6c" opacity="1.00" d=" M 34.51 50.71 C 39.17 50.88 43.84 50.87 48.50 50.75 C 48.28 53.74 48.15 56.73 48.08 59.73 C 43.78 59.95 39.46 59.94 35.15 59.73 C 35.21 56.71 35.01 53.69 34.51 50.71 M 36.16 53.34 C 35.98 56.11 36.69 59.77 40.45 58.66 C 40.61 56.87 40.77 55.09 40.94 53.30 C 39.35 53.31 37.76 53.33 36.16 53.34 M 42.22 53.22 C 42.34 54.97 42.47 56.71 42.60 58.46 C 43.87 58.52 45.14 58.57 46.40 58.63 C 46.77 56.95 47.15 55.26 47.52 53.58 C 45.75 53.45 43.99 53.34 42.22 53.22 Z" />
</g>
<g id="#9aa5a6ff">
<path fill="#9aa5a6" opacity="1.00" d=" M 36.16 53.34 C 37.76 53.33 39.35 53.31 40.94 53.30 C 40.77 55.09 40.61 56.87 40.45 58.66 C 36.69 59.77 35.98 56.11 36.16 53.34 Z" />
<path fill="#9aa5a6" opacity="1.00" d=" M 42.22 53.22 C 43.99 53.34 45.75 53.45 47.52 53.58 C 47.15 55.26 46.77 56.95 46.40 58.63 C 45.14 58.57 43.87 58.52 42.60 58.46 C 42.47 56.71 42.34 54.97 42.22 53.22 Z" />
</g>
<g id="#1c608cff">
<path fill="#1c608c" opacity="1.00" d=" M 9.72 54.02 C 10.49 54.07 12.04 54.17 12.81 54.22 C 12.88 55.00 13.03 56.56 13.11 57.34 C 12.18 57.38 10.33 57.46 9.40 57.50 C 9.48 56.63 9.64 54.89 9.72 54.02 Z" />
</g>
<g id="#145b8bff">
<path fill="#145b8b" opacity="1.00" d=" M 16.13 54.20 C 16.88 54.17 18.38 54.12 19.13 54.09 C 19.18 54.94 19.29 56.62 19.35 57.47 C 18.45 57.44 16.67 57.39 15.77 57.36 C 15.86 56.57 16.04 54.99 16.13 54.20 Z" />
</g>
<g id="#195f8eff">
<path fill="#195f8e" opacity="1.00" d=" M 28.86 54.12 C 29.63 54.15 31.19 54.20 31.96 54.23 C 32.02 55.04 32.14 56.67 32.20 57.48 C 31.32 57.51 29.56 57.56 28.68 57.58 C 28.73 56.71 28.81 54.98 28.86 54.12 Z" />
</g>
<g id="#2e6d94ff">
<path fill="#2e6d94" opacity="1.00" d=" M 51.17 53.77 C 53.54 53.81 55.00 54.98 54.96 57.44 C 53.61 57.53 52.25 57.60 50.89 57.66 C 50.96 56.69 51.10 54.75 51.17 53.77 Z" />
</g>
</svg>
