<?xml version="1.0" encoding="UTF-8" ?>
<!DOCTYPE svg PUBLIC "-//W3C//DTD SVG 1.1//EN" "http://www.w3.org/Graphics/SVG/1.1/DTD/svg11.dtd">
<svg width="64pt" height="64pt" viewBox="0 0 64 64" version="1.1" xmlns="http://www.w3.org/2000/svg">
<g id="#4b0100ff">
<path fill="#4b0100" opacity="1.00" d=" M 35.30 3.23 C 40.53 3.21 45.75 3.23 50.98 3.19 C 52.43 3.40 54.49 2.69 55.28 4.42 C 49.23 4.19 43.16 3.98 37.11 4.29 C 35.14 4.03 34.52 6.16 33.51 7.37 C 40.69 7.63 47.91 7.86 55.08 7.36 C 55.26 6.63 55.60 5.17 55.77 4.44 C 57.27 6.25 58.96 7.89 60.60 9.57 L 59.75 9.67 C 49.70 9.75 39.65 9.64 29.59 9.71 L 28.75 9.71 C 30.92 7.53 33.12 5.39 35.30 3.23 Z" />
<path fill="#4b0100" opacity="1.00" d=" M 7.53 23.16 C 14.38 23.56 21.24 23.11 28.08 23.49 C 21.36 23.91 14.63 23.57 7.90 23.69 C 7.52 24.39 6.77 25.79 6.39 26.50 C 13.77 26.86 21.17 26.37 28.55 26.86 L 28.42 28.52 C 20.37 28.34 12.31 28.50 4.26 28.42 C 3.13 27.01 6.13 24.82 6.62 23.11 L 7.53 23.16 Z" />
</g>
<g id="#871b13ff">
<path fill="#871b13" opacity="1.00" d=" M 33.51 7.37 C 34.52 6.16 35.14 4.03 37.11 4.29 C 43.16 3.98 49.23 4.19 55.28 4.42 L 55.77 4.44 C 55.60 5.17 55.26 6.63 55.08 7.36 C 47.91 7.86 40.69 7.63 33.51 7.37 Z" />
<path fill="#871b13" opacity="1.00" d=" M 6.66 22.63 C 14.03 22.29 21.41 22.50 28.79 22.51 C 28.74 23.96 28.65 25.41 28.55 26.86 C 21.17 26.37 13.77 26.86 6.39 26.50 C 6.77 25.79 7.52 24.39 7.90 23.69 C 14.63 23.57 21.36 23.91 28.08 23.49 C 21.24 23.11 14.38 23.56 7.53 23.16 L 6.66 22.63 Z" />
</g>
<g id="#574334ff">
<path fill="#574334" opacity="1.00" d=" M 28.75 9.71 L 29.59 9.71 C 29.61 19.32 29.14 28.93 29.35 38.54 C 29.23 45.62 29.37 52.69 29.35 59.77 C 21.06 60.50 12.72 60.33 4.42 60.02 L 4.38 59.50 C 11.68 59.43 18.99 59.77 26.28 59.38 C 26.53 59.13 27.02 58.61 27.27 58.36 C 27.55 48.62 27.52 38.87 27.61 29.13 L 26.32 29.11 C 18.85 28.94 11.38 29.01 3.91 29.12 L 4.26 28.42 C 12.31 28.50 20.37 28.34 28.42 28.52 L 28.55 26.86 C 28.65 25.41 28.74 23.96 28.79 22.51 C 28.86 18.25 28.76 13.98 28.75 9.71 Z" />
<path fill="#574334" opacity="1.00" d=" M 59.75 9.67 L 60.60 9.57 L 60.87 9.53 C 60.79 26.60 60.90 43.66 60.78 60.72 C 57.52 60.79 54.26 60.79 50.99 60.79 L 50.94 59.60 C 53.64 59.19 57.18 60.82 59.43 59.14 C 60.02 52.20 59.59 45.21 59.71 38.24 C 59.69 28.72 59.74 19.19 59.75 9.67 Z" />
<path fill="#574334" opacity="1.00" d=" M 54.23 22.32 C 55.39 22.23 56.56 22.21 57.73 22.25 C 57.74 24.55 57.66 26.86 57.56 29.16 L 57.54 28.73 C 57.49 26.94 57.46 25.15 57.43 23.37 C 56.71 23.37 55.28 23.37 54.57 23.37 C 54.53 25.20 54.50 27.02 54.46 28.85 C 54.34 26.67 54.27 24.49 54.23 22.32 Z" />
</g>
<g id="#e1ccb9ff">
<path fill="#e1ccb9" opacity="1.00" d=" M 29.59 9.71 C 39.65 9.64 49.70 9.75 59.75 9.67 C 59.74 19.19 59.69 28.72 59.71 38.24 L 57.67 38.27 C 57.65 36.17 57.64 34.06 57.62 31.96 C 56.54 31.94 55.46 31.92 54.37 31.91 C 54.36 34.04 54.36 36.17 54.36 38.30 C 53.94 38.30 53.11 38.30 52.69 38.30 C 52.45 36.19 52.22 34.08 51.89 31.98 L 51.20 31.93 C 50.38 31.92 48.73 31.90 47.91 31.90 L 47.52 32.41 C 47.22 34.13 47.02 35.87 46.67 37.58 C 45.93 36.54 45.18 35.51 44.39 34.52 C 43.50 35.82 42.80 37.26 41.76 38.46 C 41.68 36.28 41.64 34.09 41.59 31.91 C 40.51 31.93 39.44 31.94 38.36 31.96 C 38.36 34.07 38.36 36.18 38.36 38.28 C 37.95 38.25 37.13 38.18 36.72 38.15 C 36.48 36.11 36.23 34.07 35.90 32.04 L 35.20 31.98 C 34.38 31.94 32.75 31.87 31.93 31.83 C 31.05 34.06 30.14 36.28 29.35 38.54 C 29.14 28.93 29.61 19.32 29.59 9.71 M 54.22 13.54 L 54.02 12.02 C 54.27 14.38 54.35 16.76 54.28 19.13 C 55.14 19.13 56.86 19.13 57.72 19.13 C 57.65 16.75 57.73 14.38 57.98 12.01 L 57.79 13.54 C 56.90 13.54 55.11 13.54 54.22 13.54 M 31.96 12.79 C 31.95 14.92 31.94 17.05 31.93 19.18 C 32.76 19.18 34.41 19.17 35.23 19.17 C 35.23 17.05 35.22 14.93 35.21 12.81 C 34.39 12.80 32.77 12.80 31.96 12.79 M 38.33 28.88 C 39.44 28.88 40.56 28.88 41.67 28.88 C 41.65 26.73 41.63 24.58 41.61 22.44 C 43.73 22.45 45.84 22.45 47.96 22.45 C 47.93 24.58 47.90 26.72 47.89 28.86 C 48.73 28.88 50.40 28.91 51.24 28.93 C 51.24 25.34 51.19 21.75 51.31 18.17 C 51.29 16.36 51.28 14.55 51.26 12.74 C 50.42 12.73 48.75 12.72 47.91 12.72 C 47.90 14.83 47.91 16.93 47.91 19.04 C 45.87 19.03 43.82 19.02 41.78 19.02 C 41.77 16.94 41.77 14.86 41.77 12.78 C 40.88 12.77 39.11 12.76 38.22 12.75 C 38.58 18.12 38.31 23.50 38.33 28.88 M 32.06 24.02 C 31.98 25.59 31.94 27.16 31.93 28.74 C 32.77 28.75 34.43 28.78 35.27 28.79 C 35.23 27.15 35.18 25.51 35.09 23.87 C 36.60 21.35 30.45 21.58 32.06 24.02 M 54.23 22.32 C 54.27 24.49 54.34 26.67 54.46 28.85 C 55.23 28.82 56.77 28.76 57.54 28.73 L 57.56 29.16 C 57.66 26.86 57.74 24.55 57.73 22.25 C 56.56 22.21 55.39 22.23 54.23 22.32 Z" />
</g>
<g id="#0040b3ff">
<path fill="#0040b3" opacity="1.00" d=" M 31.96 12.79 C 32.77 12.80 34.39 12.80 35.21 12.81 C 35.22 14.93 35.23 17.05 35.23 19.17 C 34.41 19.17 32.76 19.18 31.93 19.18 C 31.94 17.05 31.95 14.92 31.96 12.79 Z" />
<path fill="#0040b3" opacity="1.00" d=" M 32.06 24.02 C 32.82 23.98 34.33 23.91 35.09 23.87 C 35.18 25.51 35.23 27.15 35.27 28.79 C 34.43 28.78 32.77 28.75 31.93 28.74 C 31.94 27.16 31.98 25.59 32.06 24.02 Z" />
<path fill="#0040b3" opacity="1.00" d=" M 31.93 31.83 C 32.75 31.87 34.38 31.94 35.20 31.98 C 35.21 34.11 35.21 36.24 35.20 38.38 C 34.39 38.36 32.76 38.32 31.95 38.30 C 31.94 36.14 31.94 33.99 31.93 31.83 Z" />
<path fill="#0040b3" opacity="1.00" d=" M 47.91 31.90 C 48.73 31.90 50.38 31.92 51.20 31.93 C 51.21 34.08 51.21 36.23 51.21 38.37 C 50.39 38.36 48.76 38.32 47.95 38.30 C 47.94 36.16 47.93 34.03 47.91 31.90 Z" />
</g>
<g id="#6f1d01ff">
<path fill="#6f1d01" opacity="1.00" d=" M 38.33 28.88 C 38.31 23.50 38.58 18.12 38.22 12.75 C 38.68 15.02 39.14 17.28 39.61 19.55 C 43.54 19.94 47.89 20.70 51.31 18.17 C 51.19 21.75 51.24 25.34 51.24 28.93 C 50.40 28.91 48.73 28.88 47.89 28.86 C 47.90 26.72 47.93 24.58 47.96 22.45 C 45.84 22.45 43.73 22.45 41.61 22.44 C 41.63 24.58 41.65 26.73 41.67 28.88 C 40.56 28.88 39.44 28.88 38.33 28.88 Z" />
</g>
<g id="#9a4a2cff">
<path fill="#9a4a2c" opacity="1.00" d=" M 38.22 12.75 C 39.11 12.76 40.88 12.77 41.77 12.78 C 41.77 14.86 41.77 16.94 41.78 19.02 C 43.82 19.02 45.87 19.03 47.91 19.04 C 47.91 16.93 47.90 14.83 47.91 12.72 C 48.75 12.72 50.42 12.73 51.26 12.74 C 51.28 14.55 51.29 16.36 51.31 18.17 C 47.89 20.70 43.54 19.94 39.61 19.55 C 39.14 17.28 38.68 15.02 38.22 12.75 Z" />
</g>
<g id="#0035a8ff">
<path fill="#0035a8" opacity="1.00" d=" M 54.28 19.13 C 54.86 17.55 54.17 14.82 56.00 14.02 C 57.82 14.82 57.14 17.55 57.72 19.13 C 56.86 19.13 55.14 19.13 54.28 19.13 Z" />
<path fill="#0035a8" opacity="1.00" d=" M 54.57 23.37 C 55.28 23.37 56.71 23.37 57.43 23.37 C 57.46 25.15 57.49 26.94 57.54 28.73 C 56.77 28.76 55.23 28.82 54.46 28.85 C 54.50 27.02 54.53 25.20 54.57 23.37 Z" />
<path fill="#0035a8" opacity="1.00" d=" M 38.36 31.96 C 39.44 31.94 40.51 31.93 41.59 31.91 C 41.64 34.09 41.68 36.28 41.76 38.46 C 40.63 38.42 39.49 38.36 38.36 38.28 C 38.36 36.18 38.36 34.07 38.36 31.96 Z" />
<path fill="#0035a8" opacity="1.00" d=" M 54.37 31.91 C 55.46 31.92 56.54 31.94 57.62 31.96 C 57.64 34.06 57.65 36.17 57.67 38.27 C 56.57 38.29 55.46 38.30 54.36 38.30 C 54.36 36.17 54.36 34.04 54.37 31.91 Z" />
</g>
<g id="#2f3b65ff">
<path fill="#2f3b65" opacity="1.00" d=" M 32.06 24.02 C 30.45 21.58 36.60 21.35 35.09 23.87 C 34.33 23.91 32.82 23.98 32.06 24.02 Z" />
</g>
<g id="#353332e0">
<path fill="#353332" opacity="0.88" d=" M 3.46 29.22 L 3.91 29.12 C 3.51 33.95 4.43 38.77 4.20 43.61 C 3.55 48.90 4.23 54.21 4.38 59.50 L 4.42 60.02 C 12.72 60.33 21.06 60.50 29.35 59.77 C 32.28 59.59 35.21 59.62 38.15 59.67 L 38.21 59.08 C 38.35 58.43 38.62 57.13 38.75 56.48 C 39.19 57.02 40.07 58.09 40.51 58.62 C 41.65 58.66 42.78 58.69 43.92 58.73 C 44.07 56.87 44.23 55.02 44.40 53.17 C 42.40 53.29 40.40 53.43 38.40 53.59 C 38.31 52.95 38.13 51.67 38.04 51.03 C 42.47 50.84 46.90 50.83 51.34 50.92 C 50.98 53.80 50.79 56.70 50.94 59.60 L 50.99 60.79 C 35.04 60.93 19.09 60.88 3.14 60.81 C 3.26 50.30 2.59 39.64 3.46 29.22 M 45.28 53.46 C 45.39 55.13 45.50 56.80 45.60 58.47 C 46.97 58.57 48.33 58.67 49.70 58.76 C 49.91 56.90 50.18 55.04 50.36 53.18 C 48.67 53.28 46.97 53.35 45.28 53.46 Z" />
</g>
<g id="#d4bdacff">
<path fill="#d4bdac" opacity="1.00" d=" M 3.91 29.12 C 11.38 29.01 18.85 28.94 26.32 29.11 C 25.78 36.28 25.06 43.48 23.50 50.51 L 22.70 50.79 C 22.61 49.74 22.53 48.69 22.45 47.64 C 21.32 47.81 20.18 47.97 19.05 48.14 C 17.02 48.31 14.97 48.29 12.94 48.13 C 11.83 47.96 10.73 47.78 9.63 47.61 C 9.51 48.69 9.39 49.76 9.27 50.83 C 7.34 48.61 5.66 46.17 4.20 43.61 C 4.43 38.77 3.51 33.95 3.91 29.12 M 9.36 32.21 C 9.46 34.22 9.53 36.23 9.53 38.24 C 10.32 38.30 11.90 38.43 12.69 38.49 C 12.94 36.30 13.03 34.11 13.03 31.91 C 11.80 31.94 10.58 32.04 9.36 32.21 M 18.98 31.92 C 18.94 34.13 19.05 36.34 19.34 38.53 C 20.13 38.45 21.70 38.31 22.48 38.23 C 22.47 36.21 22.54 34.19 22.62 32.17 C 21.41 32.02 20.20 31.93 18.98 31.92 M 9.44 41.53 C 9.49 42.37 9.58 44.05 9.63 44.89 C 10.43 44.85 12.04 44.77 12.85 44.73 C 12.90 43.96 13.02 42.41 13.07 41.63 C 12.16 41.61 10.35 41.56 9.44 41.53 M 18.93 41.63 C 18.99 42.41 19.10 43.96 19.16 44.74 C 19.97 44.77 21.61 44.84 22.42 44.87 C 22.44 44.02 22.48 42.32 22.50 41.47 C 21.61 41.51 19.82 41.59 18.93 41.63 Z" />
</g>
<g id="#bba290ff">
<path fill="#bba290" opacity="1.00" d=" M 26.32 29.11 L 27.61 29.13 C 27.52 38.87 27.55 48.62 27.27 58.36 C 27.02 58.61 26.53 59.13 26.28 59.38 C 18.99 59.77 11.68 59.43 4.38 59.50 C 4.23 54.21 3.55 48.90 4.20 43.61 C 5.66 46.17 7.34 48.61 9.27 50.83 C 10.53 51.00 11.78 51.14 13.04 51.25 C 13.02 50.47 12.96 48.91 12.94 48.13 C 14.97 48.29 17.02 48.31 19.05 48.14 C 19.03 48.92 18.99 50.49 18.97 51.27 C 20.21 51.14 21.46 50.98 22.70 50.79 L 23.50 50.51 C 25.06 43.48 25.78 36.28 26.32 29.11 M 9.69 54.00 C 9.62 55.23 9.54 56.46 9.44 57.69 C 10.35 57.62 12.17 57.49 13.08 57.43 C 13.01 56.64 12.88 55.06 12.82 54.27 C 12.03 54.20 10.47 54.07 9.69 54.00 M 19.21 54.31 C 19.14 55.09 19.00 56.65 18.92 57.43 C 19.83 57.45 21.65 57.51 22.56 57.54 C 22.48 56.68 22.31 54.96 22.23 54.10 C 21.47 54.15 19.96 54.26 19.21 54.31 Z" />
</g>
<g id="#445581ff">
<path fill="#445581" opacity="1.00" d=" M 9.36 32.21 C 10.58 32.04 11.80 31.94 13.03 31.91 C 13.03 34.11 12.94 36.30 12.69 38.49 C 12.51 36.58 12.34 34.67 12.18 32.77 C 9.25 33.00 9.98 36.17 9.53 38.24 C 9.53 36.23 9.46 34.22 9.36 32.21 Z" />
<path fill="#445581" opacity="1.00" d=" M 18.98 31.92 C 20.20 31.93 21.41 32.02 22.62 32.17 C 22.54 34.19 22.47 36.21 22.48 38.23 C 22.03 36.15 22.68 33.07 19.83 32.69 C 19.68 34.63 19.52 36.58 19.34 38.53 C 19.05 36.34 18.94 34.13 18.98 31.92 Z" />
</g>
<g id="#d7c0afff">
<path fill="#d7c0af" opacity="1.00" d=" M 29.35 38.54 C 30.14 36.28 31.05 34.06 31.93 31.83 C 31.94 33.99 31.94 36.14 31.95 38.30 C 32.76 38.32 34.39 38.36 35.20 38.38 C 35.21 36.24 35.21 34.11 35.20 31.98 L 35.90 32.04 C 36.23 34.07 36.48 36.11 36.72 38.15 C 37.13 38.18 37.95 38.25 38.36 38.28 C 39.49 38.36 40.63 38.42 41.76 38.46 C 42.80 37.26 43.50 35.82 44.39 34.52 C 45.18 35.51 45.93 36.54 46.67 37.58 C 47.02 35.87 47.22 34.13 47.52 32.41 L 47.91 31.90 C 47.93 34.03 47.94 36.16 47.95 38.30 C 48.76 38.32 50.39 38.36 51.21 38.37 C 51.21 36.23 51.21 34.08 51.20 31.93 L 51.89 31.98 C 52.22 34.08 52.45 36.19 52.69 38.30 C 53.11 38.30 53.94 38.30 54.36 38.30 C 55.46 38.30 56.57 38.29 57.67 38.27 L 59.71 38.24 C 59.59 45.21 60.02 52.20 59.43 59.14 C 56.79 59.39 54.16 59.53 51.52 59.58 C 51.54 55.55 52.36 51.59 52.61 47.58 C 47.52 47.46 42.43 47.44 37.35 47.53 C 37.46 51.40 37.91 55.23 38.21 59.08 L 38.15 59.67 C 35.21 59.62 32.28 59.59 29.35 59.77 C 29.37 52.69 29.23 45.62 29.35 38.54 M 31.88 41.61 C 31.91 42.39 31.98 43.94 32.01 44.72 C 32.81 44.74 34.41 44.79 35.22 44.81 C 35.22 43.98 35.24 42.33 35.25 41.51 C 34.41 41.53 32.72 41.58 31.88 41.61 M 38.27 44.71 C 39.40 44.72 40.52 44.72 41.65 44.72 C 41.65 43.61 41.59 42.50 41.47 41.39 C 38.85 40.81 37.98 42.38 38.27 44.71 M 47.88 41.60 C 47.92 42.39 48.00 43.96 48.04 44.75 C 48.83 44.76 50.42 44.79 51.21 44.80 C 51.22 43.98 51.24 42.33 51.25 41.51 C 50.41 41.53 48.72 41.58 47.88 41.60 M 54.26 44.71 C 55.39 44.72 56.51 44.72 57.64 44.71 C 57.65 43.61 57.60 42.51 57.50 41.42 C 56.77 41.48 55.31 41.60 54.58 41.67 C 54.44 42.68 54.34 43.70 54.26 44.71 M 31.88 48.07 C 31.90 48.84 31.94 50.39 31.95 51.17 C 32.78 51.17 34.42 51.16 35.25 51.16 C 35.24 50.33 35.23 48.67 35.22 47.84 C 34.39 47.90 32.72 48.01 31.88 48.07 M 54.21 48.08 C 54.54 49.18 53.84 51.87 56.00 51.15 C 56.41 51.14 57.24 51.12 57.66 51.10 C 57.65 50.34 57.64 48.81 57.63 48.04 C 56.49 48.04 55.35 48.05 54.21 48.08 M 32.03 54.32 C 31.98 55.12 31.86 56.73 31.80 57.53 C 32.68 57.55 34.43 57.59 35.31 57.61 C 35.28 56.75 35.21 55.04 35.18 54.19 C 34.39 54.22 32.82 54.29 32.03 54.32 M 54.37 54.36 C 54.37 55.42 54.37 56.48 54.37 57.54 C 55.45 57.54 56.53 57.55 57.61 57.55 C 57.62 56.49 57.64 55.44 57.65 54.38 C 56.55 54.37 55.46 54.37 54.37 54.36 Z" />
</g>
<g id="#0033a2ff">
<path fill="#0033a2" opacity="1.00" d=" M 9.53 38.24 C 9.98 36.17 9.25 33.00 12.18 32.77 C 12.34 34.67 12.51 36.58 12.69 38.49 C 11.90 38.43 10.32 38.30 9.53 38.24 Z" />
<path fill="#0033a2" opacity="1.00" d=" M 19.83 32.69 C 22.68 33.07 22.03 36.15 22.48 38.23 C 21.70 38.31 20.13 38.45 19.34 38.53 C 19.52 36.58 19.68 34.63 19.83 32.69 Z" />
</g>
<g id="#1c3880ff">
<path fill="#1c3880" opacity="1.00" d=" M 9.44 41.53 C 10.35 41.56 12.16 41.61 13.07 41.63 C 13.02 42.41 12.90 43.96 12.85 44.73 C 12.04 44.77 10.43 44.85 9.63 44.89 C 9.58 44.05 9.49 42.37 9.44 41.53 Z" />
<path fill="#1c3880" opacity="1.00" d=" M 18.93 41.63 C 19.82 41.59 21.61 41.51 22.50 41.47 C 22.48 42.32 22.44 44.02 22.42 44.87 C 21.61 44.84 19.97 44.77 19.16 44.74 C 19.10 43.96 18.99 42.41 18.93 41.63 Z" />
</g>
<g id="#15337eff">
<path fill="#15337e" opacity="1.00" d=" M 31.88 41.61 C 32.72 41.58 34.41 41.53 35.25 41.51 C 35.24 42.33 35.22 43.98 35.22 44.81 C 34.41 44.79 32.81 44.74 32.01 44.72 C 31.98 43.94 31.91 42.39 31.88 41.61 Z" />
<path fill="#15337e" opacity="1.00" d=" M 47.88 41.60 C 48.72 41.58 50.41 41.53 51.25 41.51 C 51.24 42.33 51.22 43.98 51.21 44.80 C 50.42 44.79 48.83 44.76 48.04 44.75 C 48.00 43.96 47.92 42.39 47.88 41.60 Z" />
</g>
<g id="#002691ff">
<path fill="#002691" opacity="1.00" d=" M 38.27 44.71 C 37.98 42.38 38.85 40.81 41.47 41.39 C 41.59 42.50 41.65 43.61 41.65 44.72 C 40.52 44.72 39.40 44.72 38.27 44.71 Z" />
<path fill="#002691" opacity="1.00" d=" M 54.26 44.71 C 54.34 43.70 54.44 42.68 54.58 41.67 C 55.31 41.60 56.77 41.48 57.50 41.42 C 57.60 42.51 57.65 43.61 57.64 44.71 C 56.51 44.72 55.39 44.72 54.26 44.71 Z" />
<path fill="#002691" opacity="1.00" d=" M 54.21 48.08 C 55.35 48.05 56.49 48.04 57.63 48.04 C 57.64 48.81 57.65 50.34 57.66 51.10 C 57.24 51.12 56.41 51.14 56.00 51.15 C 53.84 51.87 54.54 49.18 54.21 48.08 Z" />
<path fill="#002691" opacity="1.00" d=" M 54.37 54.36 C 55.46 54.37 56.55 54.37 57.65 54.38 C 57.64 55.44 57.62 56.49 57.61 57.55 C 56.53 57.55 55.45 57.54 54.37 57.54 C 54.37 56.48 54.37 55.42 54.37 54.36 Z" />
</g>
<g id="#7b8993ff">
<path fill="#7b8993" opacity="1.00" d=" M 37.35 47.53 C 42.43 47.44 47.52 47.46 52.61 47.58 C 52.36 51.59 51.54 55.55 51.52 59.58 C 54.16 59.53 56.79 59.39 59.43 59.14 C 57.18 60.82 53.64 59.19 50.94 59.60 C 50.79 56.70 50.98 53.80 51.34 50.92 C 46.90 50.83 42.47 50.84 38.04 51.03 C 38.13 51.67 38.31 52.95 38.40 53.59 C 40.40 53.43 42.40 53.29 44.40 53.17 C 44.23 55.02 44.07 56.87 43.92 58.73 C 42.78 58.69 41.65 58.66 40.51 58.62 C 40.07 58.09 39.19 57.02 38.75 56.48 C 38.62 57.13 38.35 58.43 38.21 59.08 C 37.91 55.23 37.46 51.40 37.35 47.53 M 37.64 47.92 C 37.79 48.58 38.08 49.89 38.22 50.55 C 42.63 51.04 47.07 50.72 51.50 50.76 C 51.67 50.05 52.01 48.65 52.18 47.94 C 47.34 47.85 42.49 47.82 37.64 47.92 Z" />
<path fill="#7b8993" opacity="1.00" d=" M 45.28 53.46 C 46.97 53.35 48.67 53.28 50.36 53.18 C 50.18 55.04 49.91 56.90 49.70 58.76 C 48.33 58.67 46.97 58.57 45.60 58.47 C 45.50 56.80 45.39 55.13 45.28 53.46 Z" />
</g>
<g id="#2c417aff">
<path fill="#2c417a" opacity="1.00" d=" M 9.27 50.83 C 9.39 49.76 9.51 48.69 9.63 47.61 C 10.73 47.78 11.83 47.96 12.94 48.13 C 12.96 48.91 13.02 50.47 13.04 51.25 C 11.78 51.14 10.53 51.00 9.27 50.83 Z" />
<path fill="#2c417a" opacity="1.00" d=" M 19.05 48.14 C 20.18 47.97 21.32 47.81 22.45 47.64 C 22.53 48.69 22.61 49.74 22.70 50.79 C 21.46 50.98 20.21 51.14 18.97 51.27 C 18.99 50.49 19.03 48.92 19.05 48.14 Z" />
</g>
<g id="#0a2a73ff">
<path fill="#0a2a73" opacity="1.00" d=" M 31.88 48.07 C 32.72 48.01 34.39 47.90 35.22 47.84 C 35.23 48.67 35.24 50.33 35.25 51.16 C 34.42 51.16 32.78 51.17 31.95 51.17 C 31.94 50.39 31.90 48.84 31.88 48.07 Z" />
</g>
<g id="#dcc7b4ff">
<path fill="#dcc7b4" opacity="1.00" d=" M 37.64 47.92 C 42.49 47.82 47.34 47.85 52.18 47.94 C 52.01 48.65 51.67 50.05 51.50 50.76 C 47.07 50.72 42.63 51.04 38.22 50.55 C 38.08 49.89 37.79 48.58 37.64 47.92 Z" />
</g>
<g id="#313f71ff">
<path fill="#313f71" opacity="1.00" d=" M 9.69 54.00 C 10.47 54.07 12.03 54.20 12.82 54.27 C 12.88 55.06 13.01 56.64 13.08 57.43 C 12.17 57.49 10.35 57.62 9.44 57.69 C 9.54 56.46 9.62 55.23 9.69 54.00 Z" />
</g>
<g id="#24366fff">
<path fill="#24366f" opacity="1.00" d=" M 19.21 54.31 C 19.96 54.26 21.47 54.15 22.23 54.10 C 22.31 54.96 22.48 56.68 22.56 57.54 C 21.65 57.51 19.83 57.45 18.92 57.43 C 19.00 56.65 19.14 55.09 19.21 54.31 Z" />
</g>
<g id="#1f3573ff">
<path fill="#1f3573" opacity="1.00" d=" M 32.03 54.32 C 32.82 54.29 34.39 54.22 35.18 54.19 C 35.21 55.04 35.28 56.75 35.31 57.61 C 34.43 57.59 32.68 57.55 31.80 57.53 C 31.86 56.73 31.98 55.12 32.03 54.32 Z" />
</g>
</svg>
