<?xml version="1.0" encoding="UTF-8" ?>
<!DOCTYPE svg PUBLIC "-//W3C//DTD SVG 1.1//EN" "http://www.w3.org/Graphics/SVG/1.1/DTD/svg11.dtd">
<svg width="64pt" height="64pt" viewBox="0 0 64 64" version="1.1" xmlns="http://www.w3.org/2000/svg">
<g id="#d42d14fd">
<path fill="#d42d14" opacity="1.00" d=" M 3.43 3.46 C 11.81 3.25 20.19 3.25 28.57 3.46 C 28.48 6.47 28.48 9.48 28.57 12.49 C 21.86 13.14 15.13 12.36 8.40 12.57 C 8.41 13.49 8.44 15.34 8.45 16.26 C 16.35 16.30 24.25 16.16 32.15 16.11 C 32.21 11.85 32.25 7.59 32.24 3.33 C 41.70 3.41 51.16 3.34 60.62 3.37 C 60.64 22.45 60.58 41.54 60.64 60.63 C 54.18 60.57 47.71 60.34 41.25 60.62 L 41.36 59.53 C 41.59 57.17 41.60 54.79 41.65 52.43 C 40.57 52.40 39.48 52.37 38.40 52.35 C 38.41 55.00 38.41 57.66 38.68 60.30 L 38.70 60.57 C 34.23 60.47 29.75 60.41 25.29 60.64 L 25.40 59.34 C 25.62 57.03 25.60 54.71 25.62 52.40 C 24.56 52.38 23.49 52.35 22.42 52.33 C 22.43 55.07 22.49 57.81 22.60 60.54 L 22.61 60.58 C 16.19 60.38 9.78 60.56 3.36 60.63 C 3.40 45.82 3.40 31.01 3.36 16.21 C 4.76 16.23 6.15 16.26 7.55 16.28 C 7.56 15.34 7.58 13.46 7.58 12.52 C 6.20 12.52 4.82 12.53 3.44 12.54 C 3.52 9.52 3.52 6.49 3.43 3.46 M 4.23 4.17 C 4.27 6.73 4.30 9.29 4.36 11.85 C 4.86 11.76 5.85 11.59 6.35 11.50 C 6.33 9.04 6.32 6.58 6.31 4.12 C 5.79 4.13 4.75 4.16 4.23 4.17 M 12.85 3.56 C 12.83 6.27 12.83 8.97 12.86 11.67 C 14.95 11.67 17.05 11.67 19.14 11.67 C 19.17 8.97 19.17 6.27 19.15 3.57 C 17.05 3.57 14.95 3.57 12.85 3.56 M 25.69 4.12 C 25.68 6.58 25.67 9.05 25.66 11.51 C 26.15 11.60 27.14 11.76 27.64 11.85 C 27.69 9.29 27.73 6.73 27.77 4.17 C 27.25 4.16 26.21 4.13 25.69 4.12 M 32.28 4.62 C 41.37 4.91 50.49 4.89 59.58 4.65 C 55.09 3.88 50.51 4.36 45.97 4.25 C 41.41 4.33 36.81 3.92 32.28 4.62 M 32.45 6.53 C 32.33 10.83 33.01 15.26 31.64 19.42 C 29.11 19.35 26.58 19.31 24.06 19.14 C 20.39 17.98 16.61 20.17 12.96 18.81 C 9.81 18.48 6.65 18.74 3.61 19.61 C 3.71 32.92 3.67 46.23 3.67 59.55 C 5.65 59.61 7.62 59.66 9.59 59.72 C 9.63 56.65 9.53 53.58 9.19 50.53 C 24.40 50.61 39.61 50.60 54.82 50.53 C 54.43 53.58 54.37 56.66 54.44 59.74 C 56.40 59.67 58.36 59.61 60.33 59.53 C 60.32 41.87 60.34 24.21 60.38 6.55 C 51.07 6.34 41.76 6.37 32.45 6.53 M 3.54 17.22 C 8.32 17.84 13.15 17.48 17.95 17.55 C 22.68 17.49 27.43 17.89 32.12 17.16 C 25.46 16.14 18.73 16.74 12.03 16.56 C 9.19 16.55 6.26 16.19 3.54 17.22 M 11.28 53.45 C 11.35 55.14 11.42 56.83 11.47 58.52 C 12.49 58.53 13.51 58.53 14.52 58.53 C 14.58 56.83 14.65 55.14 14.72 53.45 C 13.57 53.45 12.43 53.45 11.28 53.45 M 17.28 53.45 C 17.35 55.14 17.42 56.83 17.47 58.52 C 18.49 58.53 19.51 58.53 20.53 58.53 C 20.58 56.83 20.65 55.14 20.72 53.45 C 19.57 53.45 18.43 53.45 17.28 53.45 M 27.28 53.45 C 27.35 55.13 27.42 56.82 27.47 58.51 C 28.49 58.53 29.51 58.53 30.53 58.53 C 30.58 56.84 30.65 55.14 30.72 53.45 C 29.57 53.45 28.43 53.45 27.28 53.45 M 33.28 53.45 C 33.35 55.14 33.42 56.83 33.47 58.52 C 34.49 58.53 35.51 58.53 36.53 58.53 C 36.58 56.83 36.65 55.14 36.72 53.45 C 35.57 53.45 34.43 53.45 33.28 53.45 M 43.28 53.45 C 43.35 55.14 43.42 56.83 43.47 58.53 C 44.49 58.53 45.51 58.53 46.53 58.52 C 46.58 56.83 46.65 55.14 46.72 53.45 C 45.57 53.45 44.43 53.45 43.28 53.45 M 49.28 53.45 C 49.35 55.14 49.42 56.83 49.47 58.52 C 50.49 58.53 51.51 58.53 52.53 58.52 C 52.58 56.83 52.65 55.14 52.72 53.45 C 51.57 53.45 50.43 53.45 49.28 53.45 Z" />
<path fill="#d42d14" opacity="1.00" d=" M 38.67 11.01 C 39.87 9.84 43.58 9.81 44.85 11.02 C 42.94 11.73 40.60 11.62 38.67 11.01 Z" />
<path fill="#d42d14" opacity="1.00" d=" M 47.70 11.50 C 48.44 8.55 53.82 8.88 54.94 11.36 C 52.53 11.49 50.11 11.50 47.70 11.50 Z" />
<path fill="#d42d14" opacity="1.00" d=" M 38.46 16.20 C 40.55 16.22 42.65 16.22 44.75 16.21 C 44.67 16.91 44.51 18.33 44.43 19.04 C 44.16 18.96 43.64 18.81 43.37 18.73 L 43.74 17.44 C 42.27 17.46 40.81 17.48 39.35 17.48 L 39.67 18.81 C 39.40 18.83 38.87 18.87 38.60 18.89 C 38.57 18.21 38.50 16.87 38.46 16.20 Z" />
<path fill="#d42d14" opacity="1.00" d=" M 47.47 17.48 C 49.05 15.34 52.06 16.53 54.29 16.18 C 54.34 16.54 54.42 17.26 54.46 17.63 C 52.13 17.58 49.80 17.58 47.47 17.48 Z" />
<path fill="#d42d14" opacity="1.00" d=" M 9.12 24.41 C 9.86 21.30 13.47 22.79 15.74 22.41 C 15.77 22.95 15.83 24.03 15.86 24.57 C 13.61 24.50 11.36 24.47 9.12 24.41 Z" />
<path fill="#d42d14" opacity="1.00" d=" M 19.40 22.45 C 21.39 22.46 23.38 22.46 25.38 22.46 C 25.46 22.98 25.63 24.02 25.71 24.54 C 23.54 24.49 21.36 24.49 19.19 24.53 C 19.24 24.01 19.35 22.97 19.40 22.45 Z" />
<path fill="#d42d14" opacity="1.00" d=" M 29.25 22.44 C 31.08 22.45 32.92 22.45 34.75 22.43 C 34.80 22.96 34.91 24.01 34.97 24.53 C 32.99 24.49 31.00 24.49 29.02 24.53 C 29.08 24.01 29.19 22.96 29.25 22.44 Z" />
<path fill="#d42d14" opacity="1.00" d=" M 38.63 22.46 C 40.62 22.46 42.62 22.46 44.61 22.46 C 44.66 22.97 44.75 24.01 44.79 24.53 C 42.62 24.49 40.45 24.49 38.28 24.54 C 38.37 24.02 38.54 22.98 38.63 22.46 Z" />
<path fill="#d42d14" opacity="1.00" d=" M 48.37 22.39 C 50.62 22.77 54.17 21.34 54.87 24.42 C 52.58 24.48 50.29 24.48 48.00 24.52 C 48.09 23.99 48.28 22.92 48.37 22.39 Z" />
<path fill="#d42d14" opacity="1.00" d=" M 9.88 30.03 C 10.99 28.82 14.78 28.78 15.90 30.03 C 14.04 30.72 11.75 30.67 9.88 30.03 Z" />
<path fill="#d42d14" opacity="1.00" d=" M 19.06 29.26 C 21.25 29.22 23.44 29.18 25.64 29.13 C 25.51 29.94 25.26 31.56 25.13 32.37 C 24.93 31.87 24.54 30.87 24.35 30.37 C 22.63 30.46 20.91 30.53 19.19 30.63 C 19.16 30.29 19.09 29.60 19.06 29.26 Z" />
<path fill="#d42d14" opacity="1.00" d=" M 38.35 28.86 C 40.85 28.85 43.75 28.18 45.59 30.38 C 43.63 30.46 41.67 30.44 39.71 30.41 C 39.48 30.87 39.02 31.78 38.79 32.24 C 38.68 31.40 38.46 29.70 38.35 28.86 Z" />
<path fill="#d42d14" opacity="1.00" d=" M 48.65 30.29 C 46.87 29.42 50.57 29.09 51.06 29.23 C 52.41 29.01 53.43 29.28 54.12 30.03 C 52.42 30.74 50.44 30.49 48.65 30.29 Z" />
<path fill="#d42d14" opacity="1.00" d=" M 10.16 35.26 C 12.01 35.29 13.86 35.28 15.71 35.27 C 15.74 35.84 15.80 36.98 15.83 37.55 C 13.95 37.50 12.06 37.49 10.18 37.54 C 10.18 36.97 10.17 35.83 10.16 35.26 Z" />
<path fill="#d42d14" opacity="1.00" d=" M 19.39 35.28 C 21.42 35.30 23.44 35.31 25.47 35.31 C 25.51 35.86 25.59 36.96 25.64 37.51 C 23.50 37.48 21.37 37.48 19.23 37.54 C 19.27 36.97 19.35 35.84 19.39 35.28 Z" />
<path fill="#d42d14" opacity="1.00" d=" M 29.12 35.27 C 31.05 35.28 32.97 35.29 34.90 35.27 C 34.84 35.96 34.73 37.33 34.67 38.02 C 33.56 37.57 32.67 36.86 31.99 35.89 C 31.34 36.90 30.44 37.59 29.29 37.98 C 29.25 37.30 29.16 35.95 29.12 35.27 Z" />
<path fill="#d42d14" opacity="1.00" d=" M 38.54 35.31 C 40.56 35.31 42.58 35.30 44.61 35.28 C 44.65 35.84 44.73 36.97 44.77 37.54 C 42.63 37.48 40.49 37.47 38.35 37.51 C 38.40 36.96 38.49 35.86 38.54 35.31 Z" />
<path fill="#d42d14" opacity="1.00" d=" M 48.29 35.27 C 50.14 35.28 51.99 35.29 53.83 35.26 C 53.83 35.83 53.83 36.97 53.83 37.54 C 51.94 37.49 50.05 37.49 48.16 37.55 C 48.19 36.98 48.26 35.84 48.29 35.27 Z" />
<path fill="#d42d14" opacity="1.00" d=" M 8.76 43.26 C 10.39 40.97 13.29 41.71 15.68 41.55 C 15.76 42.06 15.92 43.08 16.00 43.59 C 13.58 43.51 11.17 43.45 8.76 43.26 Z" />
<path fill="#d42d14" opacity="1.00" d=" M 19.25 42.98 C 20.57 41.81 23.90 41.79 25.16 42.95 C 23.39 43.70 21.00 43.79 19.25 42.98 Z" />
<path fill="#d42d14" opacity="1.00" d=" M 29.21 41.61 C 31.07 41.61 32.94 41.61 34.80 41.61 C 34.85 42.09 34.95 43.05 35.00 43.53 C 33.00 43.50 31.00 43.50 29.00 43.53 C 29.05 43.05 29.15 42.09 29.21 41.61 Z" />
<path fill="#d42d14" opacity="1.00" d=" M 39.24 42.82 C 39.36 42.67 39.59 42.36 39.71 42.21 C 41.30 42.19 43.68 41.75 44.77 43.02 C 43.11 43.76 40.82 43.80 39.24 42.82 Z" />
<path fill="#d42d14" opacity="1.00" d=" M 48.30 41.60 C 50.15 41.60 51.99 41.60 53.84 41.60 C 53.87 42.08 53.92 43.03 53.95 43.51 C 51.98 43.50 50.00 43.51 48.03 43.55 C 48.09 43.06 48.23 42.09 48.30 41.60 Z" />
</g>
<g id="#d4d4d4ff">
<path fill="#d4d4d4" opacity="1.00" d=" M 4.23 4.17 C 4.75 4.16 5.79 4.13 6.31 4.12 C 6.32 6.58 6.33 9.04 6.35 11.50 C 5.85 11.59 4.86 11.76 4.36 11.85 C 4.30 9.29 4.27 6.73 4.23 4.17 Z" />
<path fill="#d4d4d4" opacity="1.00" d=" M 25.69 4.12 C 26.21 4.13 27.25 4.16 27.77 4.17 C 27.73 6.73 27.69 9.29 27.64 11.85 C 27.14 11.76 26.15 11.60 25.66 11.51 C 25.67 9.05 25.68 6.58 25.69 4.12 Z" />
<path fill="#d4d4d4" opacity="1.00" d=" M 32.28 4.62 C 36.81 3.92 41.41 4.33 45.97 4.25 C 50.51 4.36 55.09 3.88 59.58 4.65 C 50.49 4.89 41.37 4.91 32.28 4.62 Z" />
<path fill="#d4d4d4" opacity="1.00" d=" M 32.45 6.53 C 41.76 6.37 51.07 6.34 60.38 6.55 C 60.34 24.21 60.32 41.87 60.33 59.53 C 58.36 59.61 56.40 59.67 54.44 59.74 C 54.37 56.66 54.43 53.58 54.82 50.53 C 39.61 50.60 24.40 50.61 9.19 50.53 C 9.53 53.58 9.63 56.65 9.59 59.72 C 7.62 59.66 5.65 59.61 3.67 59.55 C 3.67 46.23 3.71 32.92 3.61 19.61 C 6.65 18.74 9.81 18.48 12.96 18.81 C 16.61 20.17 20.39 17.98 24.06 19.14 C 26.58 19.31 29.11 19.35 31.64 19.42 C 33.01 15.26 32.33 10.83 32.45 6.53 M 38.67 11.01 C 40.60 11.62 42.94 11.73 44.85 11.02 C 43.58 9.81 39.87 9.84 38.67 11.01 M 47.70 11.50 C 50.11 11.50 52.53 11.49 54.94 11.36 C 53.82 8.88 48.44 8.55 47.70 11.50 M 38.46 16.20 C 38.50 16.87 38.57 18.21 38.60 18.89 C 38.87 18.87 39.40 18.83 39.67 18.81 L 39.35 17.48 C 40.81 17.48 42.27 17.46 43.74 17.44 L 43.37 18.73 C 43.64 18.81 44.16 18.96 44.43 19.04 C 44.51 18.33 44.67 16.91 44.75 16.21 C 42.65 16.22 40.55 16.22 38.46 16.20 M 47.47 17.48 C 49.80 17.58 52.13 17.58 54.46 17.63 C 54.42 17.26 54.34 16.54 54.29 16.18 C 52.06 16.53 49.05 15.34 47.47 17.48 M 9.12 24.41 C 11.36 24.47 13.61 24.50 15.86 24.57 C 15.83 24.03 15.77 22.95 15.74 22.41 C 13.47 22.79 9.86 21.30 9.12 24.41 M 19.40 22.45 C 19.35 22.97 19.24 24.01 19.19 24.53 C 21.36 24.49 23.54 24.49 25.71 24.54 C 25.63 24.02 25.46 22.98 25.38 22.46 C 23.38 22.46 21.39 22.46 19.40 22.45 M 29.25 22.44 C 29.19 22.96 29.08 24.01 29.02 24.53 C 31.00 24.49 32.99 24.49 34.97 24.53 C 34.91 24.01 34.80 22.96 34.75 22.43 C 32.92 22.45 31.08 22.45 29.25 22.44 M 38.63 22.46 C 38.54 22.98 38.37 24.02 38.28 24.54 C 40.45 24.49 42.62 24.49 44.79 24.53 C 44.75 24.01 44.66 22.97 44.61 22.46 C 42.62 22.46 40.62 22.46 38.63 22.46 M 48.37 22.39 C 48.28 22.92 48.09 23.99 48.00 24.52 C 50.29 24.48 52.58 24.48 54.87 24.42 C 54.17 21.34 50.62 22.77 48.37 22.39 M 9.88 30.03 C 11.75 30.67 14.04 30.72 15.90 30.03 C 14.78 28.78 10.99 28.82 9.88 30.03 M 19.06 29.26 C 19.09 29.60 19.16 30.29 19.19 30.63 C 20.91 30.53 22.63 30.46 24.35 30.37 C 24.54 30.87 24.93 31.87 25.13 32.37 C 25.26 31.56 25.51 29.94 25.64 29.13 C 23.44 29.18 21.25 29.22 19.06 29.26 M 38.35 28.86 C 38.46 29.70 38.68 31.40 38.79 32.24 C 39.02 31.78 39.48 30.87 39.71 30.41 C 41.67 30.44 43.63 30.46 45.59 30.38 C 43.75 28.18 40.85 28.85 38.35 28.86 M 48.65 30.29 C 50.44 30.49 52.42 30.74 54.12 30.03 C 53.43 29.28 52.41 29.01 51.06 29.23 C 50.57 29.09 46.87 29.42 48.65 30.29 M 10.16 35.26 C 10.17 35.83 10.18 36.97 10.18 37.54 C 12.06 37.49 13.95 37.50 15.83 37.55 C 15.80 36.98 15.74 35.84 15.71 35.27 C 13.86 35.28 12.01 35.29 10.16 35.26 M 19.39 35.28 C 19.35 35.84 19.27 36.97 19.23 37.54 C 21.37 37.48 23.50 37.48 25.64 37.51 C 25.59 36.96 25.51 35.86 25.47 35.31 C 23.44 35.31 21.42 35.30 19.39 35.28 M 29.12 35.27 C 29.16 35.95 29.25 37.30 29.29 37.98 C 30.44 37.59 31.34 36.90 31.99 35.89 C 32.67 36.86 33.56 37.57 34.67 38.02 C 34.73 37.33 34.84 35.96 34.90 35.27 C 32.97 35.29 31.05 35.28 29.12 35.27 M 38.54 35.31 C 38.49 35.86 38.40 36.96 38.35 37.51 C 40.49 37.47 42.63 37.48 44.77 37.54 C 44.73 36.97 44.65 35.84 44.61 35.28 C 42.58 35.30 40.56 35.31 38.54 35.31 M 48.29 35.27 C 48.26 35.84 48.19 36.98 48.16 37.55 C 50.05 37.49 51.94 37.49 53.83 37.54 C 53.83 36.97 53.83 35.83 53.83 35.26 C 51.99 35.29 50.14 35.28 48.29 35.27 M 8.76 43.26 C 11.17 43.45 13.58 43.51 16.00 43.59 C 15.92 43.08 15.76 42.06 15.68 41.55 C 13.29 41.71 10.39 40.97 8.76 43.26 M 19.25 42.98 C 21.00 43.79 23.39 43.70 25.16 42.95 C 23.90 41.79 20.57 41.81 19.25 42.98 M 29.21 41.61 C 29.15 42.09 29.05 43.05 29.00 43.53 C 31.00 43.50 33.00 43.50 35.00 43.53 C 34.95 43.05 34.85 42.09 34.80 41.61 C 32.94 41.61 31.07 41.61 29.21 41.61 M 39.24 42.82 C 40.82 43.80 43.11 43.76 44.77 43.02 C 43.68 41.75 41.30 42.19 39.71 42.21 C 39.59 42.36 39.36 42.67 39.24 42.82 M 48.30 41.60 C 48.23 42.09 48.09 43.06 48.03 43.55 C 50.00 43.51 51.98 43.50 53.95 43.51 C 53.92 43.03 53.87 42.08 53.84 41.60 C 51.99 41.60 50.15 41.60 48.30 41.60 Z" />
<path fill="#d4d4d4" opacity="1.00" d=" M 3.54 17.22 C 6.26 16.19 9.19 16.55 12.03 16.56 C 18.73 16.74 25.46 16.14 32.12 17.16 C 27.43 17.89 22.68 17.49 17.95 17.55 C 13.15 17.48 8.32 17.84 3.54 17.22 Z" />
<path fill="#d4d4d4" opacity="1.00" d=" M 22.42 52.33 C 23.49 52.35 24.56 52.38 25.62 52.40 C 25.60 54.71 25.62 57.03 25.40 59.34 L 24.61 60.40 L 22.60 60.54 C 22.49 57.81 22.43 55.07 22.42 52.33 Z" />
<path fill="#d4d4d4" opacity="1.00" d=" M 38.40 52.35 C 39.48 52.37 40.57 52.40 41.65 52.43 C 41.60 54.79 41.59 57.17 41.36 59.53 L 40.45 60.64 L 38.68 60.30 C 38.41 57.66 38.41 55.00 38.40 52.35 Z" />
<path fill="#d4d4d4" opacity="1.00" d=" M 11.28 53.45 C 12.43 53.45 13.57 53.45 14.72 53.45 C 14.65 55.14 14.58 56.83 14.52 58.53 C 13.51 58.53 12.49 58.53 11.47 58.52 C 11.42 56.83 11.35 55.14 11.28 53.45 Z" />
<path fill="#d4d4d4" opacity="1.00" d=" M 17.28 53.45 C 18.43 53.45 19.57 53.45 20.72 53.45 C 20.65 55.14 20.58 56.83 20.53 58.53 C 19.51 58.53 18.49 58.53 17.47 58.52 C 17.42 56.83 17.35 55.14 17.28 53.45 Z" />
<path fill="#d4d4d4" opacity="1.00" d=" M 27.28 53.45 C 28.43 53.45 29.57 53.45 30.72 53.45 C 30.65 55.14 30.58 56.84 30.53 58.53 C 29.51 58.53 28.49 58.53 27.47 58.51 C 27.42 56.82 27.35 55.13 27.28 53.45 Z" />
<path fill="#d4d4d4" opacity="1.00" d=" M 33.28 53.45 C 34.43 53.45 35.57 53.45 36.72 53.45 C 36.65 55.14 36.58 56.83 36.53 58.53 C 35.51 58.53 34.49 58.53 33.47 58.52 C 33.42 56.83 33.35 55.14 33.28 53.45 Z" />
<path fill="#d4d4d4" opacity="1.00" d=" M 43.28 53.45 C 44.43 53.45 45.57 53.45 46.72 53.45 C 46.65 55.14 46.58 56.83 46.53 58.52 C 45.51 58.53 44.49 58.53 43.47 58.53 C 43.42 56.83 43.35 55.14 43.28 53.45 Z" />
<path fill="#d4d4d4" opacity="1.00" d=" M 49.28 53.45 C 50.43 53.45 51.57 53.45 52.72 53.45 C 52.65 55.14 52.58 56.83 52.53 58.52 C 51.51 58.53 50.49 58.53 49.47 58.52 C 49.42 56.83 49.35 55.14 49.28 53.45 Z" />
</g>
<g id="#efeeedff">
<path fill="#efeeed" opacity="1.00" d=" M 12.85 3.56 C 14.95 3.57 17.05 3.57 19.15 3.57 C 19.17 6.27 19.17 8.97 19.14 11.67 C 17.05 11.67 14.95 11.67 12.86 11.67 C 12.83 8.97 12.83 6.27 12.85 3.56 Z" />
</g>
</svg>
