<?xml version="1.0" encoding="UTF-8" ?>
<!DOCTYPE svg PUBLIC "-//W3C//DTD SVG 1.1//EN" "http://www.w3.org/Graphics/SVG/1.1/DTD/svg11.dtd">
<svg width="64pt" height="64pt" viewBox="0 0 64 64" version="1.1" xmlns="http://www.w3.org/2000/svg">
<g id="#0000001f">
<path fill="#000000" opacity="0.12" d=" M 4.41 2.22 C 22.75 1.84 41.14 1.81 59.49 2.25 L 59.94 2.98 C 41.30 2.97 22.65 3.07 4.01 2.95 L 4.41 2.22 Z" />
</g>
<g id="#0000005c">
<path fill="#000000" opacity="0.36" d=" M 4.01 2.95 C 22.65 3.07 41.30 2.97 59.94 2.98 L 60.39 3.70 C 41.47 4.04 22.50 4.39 3.59 3.71 L 4.01 2.95 Z" />
</g>
<g id="#00000075">
<path fill="#000000" opacity="0.46" d=" M 2.91 4.93 C 3.08 4.62 3.42 4.01 3.59 3.71 C 3.87 8.14 3.96 12.57 4.03 17.00 C 4.01 24.00 3.95 31.00 4.02 38.00 C 4.00 45.40 4.08 52.80 3.69 60.19 L 2.73 60.25 C 3.23 41.82 3.00 23.37 2.91 4.93 Z" />
<path fill="#000000" opacity="0.46" d=" M 60.39 3.70 C 60.57 4.01 60.94 4.61 61.13 4.91 C 61.09 23.36 60.65 41.83 61.25 60.28 L 60.30 60.17 C 59.92 52.78 60.00 45.39 59.98 38.00 C 60.01 31.00 60.04 24.00 59.97 17.00 C 60.03 12.56 60.14 8.13 60.39 3.70 Z" />
</g>
<g id="#fefeffff">
<path fill="#fefeff" opacity="1.00" d=" M 3.59 3.71 C 22.50 4.39 41.47 4.04 60.39 3.70 C 60.14 8.13 60.03 12.56 59.97 17.00 C 59.24 17.00 57.78 17.00 57.05 17.00 C 57.05 15.27 57.05 11.79 57.05 10.05 C 57.02 9.30 56.95 7.80 56.92 7.05 C 40.31 6.94 23.69 6.94 7.08 7.05 C 7.05 7.80 6.98 9.30 6.95 10.05 C 6.95 11.79 6.95 15.27 6.95 17.01 C 6.22 17.00 4.76 17.00 4.03 17.00 C 3.96 12.57 3.87 8.14 3.59 3.71 Z" />
</g>
<g id="#0000002a">
<path fill="#000000" opacity="0.16" d=" M 1.98 25.00 C 2.31 18.35 1.17 11.39 2.91 4.93 C 3.00 23.37 3.23 41.82 2.73 60.25 C 1.15 48.58 2.37 36.74 1.98 25.00 Z" />
<path fill="#000000" opacity="0.16" d=" M 61.13 4.91 C 62.69 23.11 62.41 41.95 61.25 60.28 C 60.65 41.83 61.09 23.36 61.13 4.91 Z" />
</g>
<g id="#38a2c3ff">
<path fill="#38a2c3" opacity="1.00" d=" M 7.08 7.05 C 23.69 6.94 40.31 6.94 56.92 7.05 C 56.95 7.80 57.02 9.30 57.05 10.05 L 56.16 9.89 C 56.04 9.44 55.81 8.55 55.69 8.11 C 39.88 7.97 24.05 7.81 8.25 8.13 C 8.15 8.57 7.94 9.44 7.84 9.88 L 6.95 10.05 C 6.98 9.30 7.05 7.80 7.08 7.05 Z" />
</g>
<g id="#66c6e6ff">
<path fill="#66c6e6" opacity="1.00" d=" M 8.25 8.13 C 24.05 7.81 39.88 7.97 55.69 8.11 C 55.81 8.55 56.04 9.44 56.16 9.89 C 56.02 11.34 55.89 12.79 55.76 14.24 C 55.60 13.65 55.28 12.48 55.12 11.89 C 55.03 11.19 54.86 9.79 54.77 9.09 C 39.57 8.92 24.37 8.92 9.18 9.08 C 9.11 9.79 8.96 11.20 8.89 11.91 C 8.73 12.49 8.40 13.66 8.24 14.24 C 8.11 12.79 7.98 11.33 7.84 9.88 C 7.94 9.44 8.15 8.57 8.25 8.13 Z" />
</g>
<g id="#74daf9ff">
<path fill="#74daf9" opacity="1.00" d=" M 9.18 9.08 C 24.37 8.92 39.57 8.92 54.77 9.09 C 54.86 9.79 55.03 11.19 55.12 11.89 C 39.90 9.51 24.00 8.60 8.89 11.91 C 8.96 11.20 9.11 9.79 9.18 9.08 Z" />
</g>
<g id="#63adc7ff">
<path fill="#63adc7" opacity="1.00" d=" M 6.95 10.05 L 7.84 9.88 C 7.98 11.33 8.11 12.79 8.24 14.24 C 8.20 14.96 8.11 16.39 8.06 17.11 C 8.04 17.58 7.98 18.52 7.95 18.99 L 7.00 19.00 C 6.99 18.50 6.97 17.50 6.95 17.01 C 6.95 15.27 6.95 11.79 6.95 10.05 Z" />
<path fill="#63adc7" opacity="1.00" d=" M 56.16 9.89 L 57.05 10.05 C 57.05 11.79 57.05 15.27 57.05 17.00 C 57.03 17.50 57.01 18.50 57.00 19.00 L 56.06 18.98 C 56.03 18.51 55.97 17.57 55.94 17.10 C 55.90 16.38 55.81 14.96 55.76 14.24 C 55.89 12.79 56.02 11.34 56.16 9.89 Z" />
</g>
<g id="#8ce1fcff">
<path fill="#8ce1fc" opacity="1.00" d=" M 8.89 11.91 C 24.00 8.60 39.90 9.51 55.12 11.89 C 55.28 12.48 55.60 13.65 55.76 14.24 C 55.81 14.96 55.90 16.38 55.94 17.10 C 54.55 14.35 51.22 15.05 48.60 14.52 C 43.34 14.52 37.58 11.41 32.54 13.94 C 32.26 13.95 31.70 13.95 31.42 13.95 C 24.09 11.79 16.66 14.30 9.39 15.34 C 9.06 15.79 8.40 16.67 8.06 17.11 C 8.11 16.39 8.20 14.96 8.24 14.24 C 8.40 13.66 8.73 12.49 8.89 11.91 Z" />
</g>
<g id="#a9e4f4ff">
<path fill="#a9e4f4" opacity="1.00" d=" M 9.39 15.34 C 16.66 14.30 24.09 11.79 31.42 13.95 C 27.78 16.30 23.66 17.72 19.84 19.72 C 16.84 17.09 11.63 18.26 9.34 21.29 C 9.07 23.94 9.01 26.67 8.28 29.25 C 8.16 25.83 8.00 22.41 7.95 18.99 C 7.98 18.52 8.04 17.58 8.06 17.11 C 8.40 16.67 9.06 15.79 9.39 15.34 Z" />
<path fill="#a9e4f4" opacity="1.00" d=" M 32.54 13.94 C 37.58 11.41 43.34 14.52 48.60 14.52 C 51.22 15.05 54.55 14.35 55.94 17.10 C 55.97 17.57 56.03 18.51 56.06 18.98 C 56.02 22.39 55.96 25.80 55.83 29.21 C 54.79 26.06 56.26 21.25 52.71 19.34 C 49.83 18.47 46.62 17.32 44.16 19.72 C 40.33 17.70 36.19 16.30 32.54 13.94 Z" />
</g>
<g id="#2c2e23ff">
<path fill="#2c2e23" opacity="1.00" d=" M 31.42 13.95 C 31.70 13.95 32.26 13.95 32.54 13.94 C 36.19 16.30 40.33 17.70 44.16 19.72 C 42.99 20.58 41.85 21.48 40.68 22.34 C 39.39 21.54 39.01 20.01 38.01 18.95 C 34.00 18.88 30.00 18.88 25.99 18.95 C 24.99 20.01 24.60 21.54 23.33 22.35 C 22.15 21.48 21.01 20.58 19.84 19.72 C 23.66 17.72 27.78 16.30 31.42 13.95 Z" />
</g>
<g id="#f7f6f7ff">
<path fill="#f7f6f7" opacity="1.00" d=" M 4.03 17.00 C 4.76 17.00 6.22 17.00 6.95 17.01 C 6.97 17.50 6.99 18.50 7.00 19.00 C 6.99 25.33 7.03 31.67 6.98 38.00 C 6.24 38.00 4.76 38.00 4.02 38.00 C 3.95 31.00 4.01 24.00 4.03 17.00 Z" />
<path fill="#f7f6f7" opacity="1.00" d=" M 57.05 17.00 C 57.78 17.00 59.24 17.00 59.97 17.00 C 60.04 24.00 60.01 31.00 59.98 38.00 C 59.24 38.00 57.75 38.00 57.00 38.00 C 56.99 31.66 57.01 25.33 57.00 19.00 C 57.01 18.50 57.03 17.50 57.05 17.00 Z" />
</g>
<g id="#cef0f6ff">
<path fill="#cef0f6" opacity="1.00" d=" M 9.34 21.29 C 11.63 18.26 16.84 17.09 19.84 19.72 C 21.01 20.58 22.15 21.48 23.33 22.35 C 24.03 24.33 21.66 25.32 20.85 26.86 C 20.20 27.53 19.54 28.19 18.86 28.84 C 16.64 29.37 12.18 30.43 9.95 30.96 C 10.14 32.61 12.58 31.72 13.71 32.36 C 15.67 33.05 14.73 35.36 14.98 36.93 C 14.51 37.19 13.56 37.72 13.09 37.98 C 9.67 37.19 8.59 40.32 8.55 43.10 C 8.40 42.81 8.10 42.23 7.94 41.94 C 8.01 37.71 7.99 33.48 8.28 29.25 C 9.01 26.67 9.07 23.94 9.34 21.29 Z" />
</g>
<g id="#cef0f7ff">
<path fill="#cef0f7" opacity="1.00" d=" M 44.16 19.72 C 46.62 17.32 49.83 18.47 52.71 19.34 C 56.26 21.25 54.79 26.06 55.83 29.21 C 55.93 32.76 56.05 36.31 55.91 39.86 C 55.54 39.95 54.79 40.12 54.41 40.21 C 53.92 37.52 51.44 36.50 49.11 35.83 C 47.87 32.35 51.65 31.80 54.17 31.62 C 52.38 30.45 50.30 29.96 48.20 29.75 C 46.38 29.06 44.54 28.32 43.07 26.99 C 42.51 25.27 39.91 24.37 40.68 22.34 C 41.85 21.48 42.99 20.58 44.16 19.72 Z" />
</g>
<g id="#9ebfc7ff">
<path fill="#9ebfc7" opacity="1.00" d=" M 7.00 19.00 L 7.95 18.99 C 8.00 22.41 8.16 25.83 8.28 29.25 C 7.99 33.48 8.01 37.71 7.94 41.94 L 7.02 41.96 C 7.00 40.64 6.99 39.32 6.98 38.00 C 7.03 31.67 6.99 25.33 7.00 19.00 Z" />
</g>
<g id="#717672ff">
<path fill="#717672" opacity="1.00" d=" M 23.33 22.35 C 24.60 21.54 24.99 20.01 25.99 18.95 L 26.00 19.97 C 25.65 22.55 25.94 24.84 29.14 24.33 C 28.06 24.85 26.93 25.25 25.82 25.67 C 24.15 26.01 22.48 26.34 20.85 26.86 C 21.66 25.32 24.03 24.33 23.33 22.35 Z" />
<path fill="#717672" opacity="1.00" d=" M 38.01 18.95 C 39.01 20.01 39.39 21.54 40.68 22.34 C 39.91 24.37 42.51 25.27 43.07 26.99 C 41.50 26.36 39.84 25.99 38.19 25.66 C 37.07 25.23 35.93 24.85 34.86 24.33 C 38.05 24.84 38.35 22.55 38.00 19.97 L 38.01 18.95 Z" />
</g>
<g id="#c8c9c7ff">
<path fill="#c8c9c7" opacity="1.00" d=" M 25.99 18.95 C 30.00 18.88 34.00 18.88 38.01 18.95 L 38.00 19.97 C 34.00 19.99 30.00 19.99 26.00 19.97 L 25.99 18.95 Z" />
</g>
<g id="#9cbec7ff">
<path fill="#9cbec7" opacity="1.00" d=" M 56.06 18.98 L 57.00 19.00 C 57.01 25.33 56.99 31.66 57.00 38.00 C 56.99 38.50 56.96 39.50 56.95 40.00 L 55.91 39.86 C 56.05 36.31 55.93 32.76 55.83 29.21 C 55.96 25.80 56.02 22.39 56.06 18.98 Z" />
</g>
<g id="#fefefeff">
<path fill="#fefefe" opacity="1.00" d=" M 26.00 19.97 C 30.00 19.99 34.00 19.99 38.00 19.97 C 38.35 22.55 38.05 24.84 34.86 24.33 C 33.92 23.09 34.23 20.45 32.00 21.01 C 29.77 20.45 30.08 23.09 29.14 24.33 C 25.94 24.84 25.65 22.55 26.00 19.97 Z" />
</g>
<g id="#55564dff">
<path fill="#55564d" opacity="1.00" d=" M 29.14 24.33 C 30.08 23.09 29.77 20.45 32.00 21.01 C 34.23 20.45 33.92 23.09 34.86 24.33 C 35.93 24.85 37.07 25.23 38.19 25.66 C 37.65 25.91 36.57 26.41 36.03 26.66 C 33.34 26.46 30.62 26.07 27.97 26.63 C 27.43 26.39 26.35 25.91 25.82 25.67 C 26.93 25.25 28.06 24.85 29.14 24.33 Z" />
</g>
<g id="#3c3e2bff">
<path fill="#3c3e2b" opacity="1.00" d=" M 20.85 26.86 C 22.48 26.34 24.15 26.01 25.82 25.67 C 26.35 25.91 27.43 26.39 27.97 26.63 L 26.92 27.06 C 22.28 31.02 34.92 28.14 36.03 29.04 C 37.86 29.96 38.98 27.56 37.09 27.05 L 36.03 26.66 C 36.57 26.41 37.65 25.91 38.19 25.66 C 39.84 25.99 41.50 26.36 43.07 26.99 C 44.54 28.32 46.38 29.06 48.20 29.75 C 39.12 31.66 29.72 31.23 20.52 30.61 C 20.11 30.17 19.28 29.28 18.86 28.84 C 19.54 28.19 20.20 27.53 20.85 26.86 Z" />
</g>
<g id="#eeeeeeff">
<path fill="#eeeeee" opacity="1.00" d=" M 27.97 26.63 C 30.62 26.07 33.34 26.46 36.03 26.66 L 37.09 27.05 C 33.70 28.12 30.31 28.12 26.92 27.06 L 27.97 26.63 Z" />
</g>
<g id="#b6b6b3ff">
<path fill="#b6b6b3" opacity="1.00" d=" M 36.03 29.04 C 34.92 28.14 22.28 31.02 26.92 27.06 C 30.31 28.12 33.70 28.12 37.09 27.05 C 38.98 27.56 37.86 29.96 36.03 29.04 Z" />
</g>
<g id="#292e26ff">
<path fill="#292e26" opacity="1.00" d=" M 9.95 30.96 C 12.18 30.43 16.64 29.37 18.86 28.84 C 19.28 29.28 20.11 30.17 20.52 30.61 C 29.72 31.23 39.12 31.66 48.20 29.75 C 50.30 29.96 52.38 30.45 54.17 31.62 C 51.65 31.80 47.87 32.35 49.11 35.83 C 49.15 36.35 49.22 37.41 49.26 37.93 C 48.94 38.20 48.30 38.73 47.98 38.99 L 47.97 38.08 C 47.96 36.58 47.94 33.57 47.93 32.06 C 37.31 31.96 26.68 31.86 16.06 32.07 C 16.05 33.57 16.04 36.57 16.03 38.07 L 16.02 38.98 L 15.13 38.90 C 15.09 38.41 15.02 37.42 14.98 36.93 C 14.73 35.36 15.67 33.05 13.71 32.36 C 12.58 31.72 10.14 32.61 9.95 30.96 Z" />
</g>
<g id="#f6f6f6ff">
<path fill="#f6f6f6" opacity="1.00" d=" M 16.06 32.07 C 26.68 31.86 37.31 31.96 47.93 32.06 C 47.94 33.57 47.96 36.58 47.97 38.08 C 46.72 38.04 45.47 37.96 44.22 37.85 C 43.73 36.38 44.74 33.24 42.20 34.06 C 41.75 35.67 42.73 38.84 40.00 38.01 C 36.29 39.33 39.71 32.87 36.21 34.07 C 36.06 35.36 35.90 36.66 35.74 37.95 C 33.23 38.11 30.72 38.10 28.21 37.92 C 27.71 36.44 28.78 33.22 26.20 34.06 C 25.75 35.67 26.73 38.84 24.00 38.01 C 20.28 39.33 23.71 32.86 20.21 34.07 C 20.57 37.22 19.22 38.70 16.03 38.07 C 16.04 36.57 16.05 33.57 16.06 32.07 Z" />
</g>
<g id="#5e5e56ff">
<path fill="#5e5e56" opacity="1.00" d=" M 20.21 34.07 C 23.71 32.86 20.28 39.33 24.00 38.01 C 26.73 38.84 25.75 35.67 26.20 34.06 C 28.78 33.22 27.71 36.44 28.21 37.92 C 30.72 38.10 33.23 38.11 35.74 37.95 C 35.90 36.66 36.06 35.36 36.21 34.07 C 39.71 32.87 36.29 39.33 40.00 38.01 C 42.73 38.84 41.75 35.67 42.20 34.06 C 44.74 33.24 43.73 36.38 44.22 37.85 C 45.47 37.96 46.72 38.04 47.97 38.08 L 47.98 38.99 C 37.33 39.07 26.67 39.06 16.02 38.98 L 16.03 38.07 C 19.22 38.70 20.57 37.22 20.21 34.07 Z" />
</g>
<g id="#25802eff">
<path fill="#25802e" opacity="1.00" d=" M 49.11 35.83 C 51.44 36.50 53.92 37.52 54.41 40.21 C 53.60 40.14 51.98 39.99 51.17 39.91 C 50.53 39.25 49.90 38.59 49.26 37.93 C 49.22 37.41 49.15 36.35 49.11 35.83 Z" />
</g>
<g id="#3e462dff">
<path fill="#3e462d" opacity="1.00" d=" M 13.09 37.98 C 13.56 37.72 14.51 37.19 14.98 36.93 C 15.02 37.42 15.09 38.41 15.13 38.90 L 16.02 38.98 C 26.67 39.06 37.33 39.07 47.98 38.99 C 48.30 38.73 48.94 38.20 49.26 37.93 C 49.90 38.59 50.53 39.25 51.17 39.91 C 38.05 40.04 24.93 40.05 11.81 39.92 C 12.13 39.44 12.77 38.47 13.09 37.98 Z" />
</g>
<g id="#ececedff">
<path fill="#ececed" opacity="1.00" d=" M 4.02 38.00 C 4.76 38.00 6.24 38.00 6.98 38.00 C 6.99 39.32 7.00 40.64 7.02 41.96 C 7.02 44.90 7.01 47.85 7.12 50.80 C 7.11 52.32 7.10 55.38 7.09 56.91 C 8.70 57.03 10.33 57.02 11.95 57.01 C 15.62 57.01 19.29 57.03 22.96 56.95 C 28.98 56.99 35.00 57.04 41.02 56.99 C 44.44 57.00 47.86 56.99 51.27 56.91 L 52.17 56.94 C 53.75 57.00 55.33 57.03 56.92 56.93 C 56.90 55.40 56.87 52.33 56.86 50.80 C 56.96 47.20 57.03 43.60 56.95 40.00 C 56.96 39.50 56.99 38.50 57.00 38.00 C 57.75 38.00 59.24 38.00 59.98 38.00 C 60.00 45.39 59.92 52.78 60.30 60.17 L 59.35 60.37 C 41.14 59.78 22.89 59.80 4.68 60.27 L 3.69 60.19 C 4.08 52.80 4.00 45.40 4.02 38.00 Z" />
</g>
<g id="#0d891aff">
<path fill="#0d891a" opacity="1.00" d=" M 8.55 43.10 C 8.59 40.32 9.67 37.19 13.09 37.98 C 12.77 38.47 12.13 39.44 11.81 39.92 C 7.04 40.52 14.68 40.99 14.76 42.89 C 13.63 45.19 14.81 52.38 10.18 50.92 C 8.13 48.79 7.69 45.86 8.55 43.10 Z" />
</g>
<g id="#17230fff">
<path fill="#17230f" opacity="1.00" d=" M 14.76 42.89 C 14.68 40.99 7.04 40.52 11.81 39.92 C 24.93 40.05 38.05 40.04 51.17 39.91 C 51.98 39.99 53.60 40.14 54.41 40.21 C 52.64 40.89 50.85 41.54 49.02 42.04 L 48.12 41.88 C 37.57 40.17 26.78 41.15 16.13 41.08 L 16.05 42.02 C 16.25 44.52 16.00 46.93 15.29 49.26 C 15.14 47.14 15.00 45.01 14.76 42.89 Z" />
</g>
<g id="#088916ff">
<path fill="#088916" opacity="1.00" d=" M 54.41 40.21 C 54.79 40.12 55.54 39.95 55.91 39.86 C 55.22 44.02 57.40 50.90 51.23 51.34 C 49.39 48.56 48.79 45.37 49.02 42.04 C 50.85 41.54 52.64 40.89 54.41 40.21 Z" />
</g>
<g id="#06650fff">
<path fill="#06650f" opacity="1.00" d=" M 55.91 39.86 L 56.95 40.00 C 57.03 43.60 56.96 47.20 56.86 50.80 C 56.60 52.11 56.08 54.73 55.83 56.04 C 53.58 56.46 52.46 54.20 50.92 53.03 C 50.71 52.79 50.29 52.29 50.08 52.04 C 50.37 51.86 50.94 51.51 51.23 51.34 C 57.40 50.90 55.22 44.02 55.91 39.86 Z" />
</g>
<g id="#777777ff">
<path fill="#777777" opacity="1.00" d=" M 16.13 41.08 C 26.78 41.15 37.57 40.17 48.12 41.88 C 37.43 42.04 26.74 41.99 16.05 42.02 L 16.13 41.08 Z" />
</g>
<g id="#07630fff">
<path fill="#07630f" opacity="1.00" d=" M 7.02 41.96 L 7.94 41.94 C 8.10 42.23 8.40 42.81 8.55 43.10 C 7.69 45.86 8.13 48.79 10.18 50.92 C 14.81 52.38 13.63 45.19 14.76 42.89 C 15.00 45.01 15.14 47.14 15.29 49.26 C 14.70 50.92 13.72 52.40 12.76 53.87 L 12.16 54.31 C 10.96 55.18 9.77 56.22 8.18 56.06 C 7.91 54.74 7.39 52.11 7.12 50.80 C 7.01 47.85 7.02 44.90 7.02 41.96 Z" />
</g>
<g id="#e5e4e2ff">
<path fill="#e5e4e2" opacity="1.00" d=" M 16.05 42.02 C 26.74 41.99 37.43 42.04 48.12 41.88 C 47.97 45.05 47.88 48.27 49.31 51.18 C 47.40 52.01 45.29 51.53 43.28 51.51 C 42.74 50.48 43.47 48.37 42.01 48.13 C 40.52 47.67 39.02 47.24 37.54 46.76 C 37.72 45.27 37.83 43.74 36.33 42.89 C 36.19 43.62 35.90 45.07 35.76 45.80 C 33.26 45.17 30.74 45.17 28.24 45.80 C 28.10 45.07 27.81 43.61 27.66 42.89 C 26.27 43.74 26.28 45.20 26.39 46.65 C 24.76 47.54 22.31 47.66 21.79 49.77 C 19.46 50.56 16.81 51.30 15.05 53.04 C 14.83 53.53 14.39 54.50 14.17 54.98 L 13.83 55.83 L 13.02 55.79 C 12.95 55.31 12.83 54.35 12.76 53.87 C 13.72 52.40 14.70 50.92 15.29 49.26 C 16.00 46.93 16.25 44.52 16.05 42.02 Z" />
</g>
<g id="#083c09ff">
<path fill="#083c09" opacity="1.00" d=" M 48.12 41.88 L 49.02 42.04 C 48.79 45.37 49.39 48.56 51.23 51.34 C 50.94 51.51 50.37 51.86 50.08 52.04 C 49.89 51.82 49.50 51.39 49.31 51.18 C 47.88 48.27 47.97 45.05 48.12 41.88 Z" />
</g>
<g id="#494b43ff">
<path fill="#494b43" opacity="1.00" d=" M 26.39 46.65 C 26.28 45.20 26.27 43.74 27.66 42.89 C 27.81 43.61 28.10 45.07 28.24 45.80 C 30.74 45.17 33.26 45.17 35.76 45.80 C 35.90 45.07 36.19 43.62 36.33 42.89 C 37.83 43.74 37.72 45.27 37.54 46.76 C 39.02 47.24 40.52 47.67 42.01 48.13 C 41.81 48.64 41.42 49.66 41.22 50.16 C 38.22 48.99 35.13 48.06 32.00 47.30 C 28.61 48.18 25.29 49.40 21.79 49.77 C 22.31 47.66 24.76 47.54 26.39 46.65 Z" />
</g>
<g id="#e3e3e3ff">
<path fill="#e3e3e3" opacity="1.00" d=" M 21.79 49.77 C 25.29 49.40 28.61 48.18 32.00 47.30 C 35.13 48.06 38.22 48.99 41.22 50.16 C 41.07 52.11 40.98 54.06 40.89 56.01 C 35.01 56.00 29.12 56.01 23.23 55.94 C 23.18 55.42 23.08 54.39 23.03 53.88 C 23.01 52.41 22.46 51.05 21.79 49.77 Z" />
</g>
<g id="#c2b7adff">
<path fill="#c2b7ad" opacity="1.00" d=" M 42.01 48.13 C 43.47 48.37 42.74 50.48 43.28 51.51 C 45.29 51.53 47.40 52.01 49.31 51.18 C 49.50 51.39 49.89 51.82 50.08 52.04 C 50.29 52.29 50.71 52.79 50.92 53.03 C 51.34 54.33 51.76 55.63 52.17 56.94 L 51.27 56.91 C 50.99 56.64 50.43 56.11 50.14 55.85 C 49.88 55.60 49.34 55.12 49.08 54.87 C 47.53 52.96 42.11 51.91 41.99 54.98 L 41.85 55.96 L 40.89 56.01 C 40.98 54.06 41.07 52.11 41.22 50.16 C 41.42 49.66 41.81 48.64 42.01 48.13 Z" />
</g>
<g id="#d2c3b5ff">
<path fill="#d2c3b5" opacity="1.00" d=" M 15.05 53.04 C 16.81 51.30 19.46 50.56 21.79 49.77 C 22.46 51.05 23.01 52.41 23.03 53.88 C 20.45 53.07 17.71 53.34 15.05 53.04 Z" />
</g>
<g id="#033405ff">
<path fill="#033405" opacity="1.00" d=" M 7.12 50.80 C 7.39 52.11 7.91 54.74 8.18 56.06 C 9.77 56.22 10.96 55.18 12.16 54.31 C 12.10 54.99 12.00 56.33 11.95 57.01 C 10.33 57.02 8.70 57.03 7.09 56.91 C 7.10 55.38 7.11 52.32 7.12 50.80 Z" />
</g>
<g id="#063608ff">
<path fill="#063608" opacity="1.00" d=" M 55.83 56.04 C 56.08 54.73 56.60 52.11 56.86 50.80 C 56.87 52.33 56.90 55.40 56.92 56.93 C 55.33 57.03 53.75 57.00 52.17 56.94 C 51.76 55.63 51.34 54.33 50.92 53.03 C 52.46 54.20 53.58 56.46 55.83 56.04 Z" />
</g>
<g id="#aa988dff">
<path fill="#aa988d" opacity="1.00" d=" M 15.05 53.04 C 17.71 53.34 20.45 53.07 23.03 53.88 C 23.08 54.39 23.18 55.42 23.23 55.94 L 22.25 55.82 C 19.57 55.46 16.88 55.09 14.17 54.98 C 14.39 54.50 14.83 53.53 15.05 53.04 Z" />
</g>
<g id="#a59185ff">
<path fill="#a59185" opacity="1.00" d=" M 41.99 54.98 C 42.11 51.91 47.53 52.96 49.08 54.87 C 47.31 54.90 43.76 54.95 41.99 54.98 Z" />
</g>
<g id="#4d4b43ff">
<path fill="#4d4b43" opacity="1.00" d=" M 12.16 54.31 L 12.76 53.87 C 12.83 54.35 12.95 55.31 13.02 55.79 L 13.83 55.83 C 16.64 55.87 19.44 55.87 22.25 55.82 L 23.23 55.94 L 22.96 56.95 C 19.29 57.03 15.62 57.01 11.95 57.01 C 12.00 56.33 12.10 54.99 12.16 54.31 Z" />
</g>
<g id="#776b63ff">
<path fill="#776b63" opacity="1.00" d=" M 14.17 54.98 C 16.88 55.09 19.57 55.46 22.25 55.82 C 19.44 55.87 16.64 55.87 13.83 55.83 L 14.17 54.98 Z" />
</g>
<g id="#786c63ff">
<path fill="#786c63" opacity="1.00" d=" M 41.99 54.98 C 43.76 54.95 47.31 54.90 49.08 54.87 C 49.34 55.12 49.88 55.60 50.14 55.85 C 47.38 55.89 44.61 55.93 41.85 55.96 L 41.99 54.98 Z" />
</g>
<g id="#c8c8c8ff">
<path fill="#c8c8c8" opacity="1.00" d=" M 23.23 55.94 C 29.12 56.01 35.01 56.00 40.89 56.01 L 41.02 56.99 C 35.00 57.04 28.98 56.99 22.96 56.95 L 23.23 55.94 Z" />
</g>
<g id="#45403aff">
<path fill="#45403a" opacity="1.00" d=" M 40.89 56.01 L 41.85 55.96 C 44.61 55.93 47.38 55.89 50.14 55.85 C 50.43 56.11 50.99 56.64 51.27 56.91 C 47.86 56.99 44.44 57.00 41.02 56.99 L 40.89 56.01 Z" />
</g>
<g id="#0000002b">
<path fill="#000000" opacity="0.17" d=" M 2.73 60.25 L 3.69 60.19 C 3.98 60.68 4.57 61.65 4.86 62.14 C 19.18 64.20 35.08 62.37 50.00 63.04 C 52.33 61.64 57.09 64.45 59.15 62.17 C 59.43 61.67 60.01 60.67 60.30 60.17 L 61.25 60.28 C 60.97 61.54 60.56 62.78 60.11 64.00 L 3.89 64.00 C 3.44 62.77 3.01 61.53 2.73 60.25 Z" />
</g>
<g id="#00000081">
<path fill="#000000" opacity="0.51" d=" M 3.69 60.19 L 4.68 60.27 C 18.06 61.79 31.57 60.65 45.00 61.03 C 49.76 60.78 54.68 61.67 59.35 60.37 L 60.30 60.17 C 60.01 60.67 59.43 61.67 59.15 62.17 C 41.05 61.91 22.96 61.89 4.86 62.14 C 4.57 61.65 3.98 60.68 3.69 60.19 Z" />
</g>
<g id="#000000ad">
<path fill="#000000" opacity="0.68" d=" M 4.68 60.27 C 22.89 59.80 41.14 59.78 59.35 60.37 C 54.68 61.67 49.76 60.78 45.00 61.03 C 31.57 60.65 18.06 61.79 4.68 60.27 Z" />
</g>
<g id="#00000055">
<path fill="#000000" opacity="0.33" d=" M 4.86 62.14 C 22.96 61.89 41.05 61.91 59.15 62.17 C 57.09 64.45 52.33 61.64 50.00 63.04 C 35.08 62.37 19.18 64.20 4.86 62.14 Z" />
</g>
</svg>
