<?xml version="1.0" encoding="UTF-8" ?>
<!DOCTYPE svg PUBLIC "-//W3C//DTD SVG 1.1//EN" "http://www.w3.org/Graphics/SVG/1.1/DTD/svg11.dtd">
<svg width="64pt" height="64pt" viewBox="0 0 64 64" version="1.1" xmlns="http://www.w3.org/2000/svg">
<g id="#731f1ffc">
<path fill="#731f1f" opacity="1.00" d=" M 35.32 3.31 C 40.54 3.23 45.77 3.28 51.00 3.23 C 55.48 2.54 58.03 7.19 60.72 9.96 C 60.97 26.88 60.78 43.81 60.78 60.74 C 41.60 60.66 22.43 60.81 3.25 60.74 C 3.18 51.03 3.16 41.32 3.36 31.62 L 3.42 32.31 C 3.74 41.39 4.47 50.45 4.40 59.53 C 12.06 59.44 19.71 59.58 27.37 59.41 C 27.39 50.39 27.51 41.36 27.57 32.33 C 19.52 32.04 11.47 32.06 3.42 32.31 C 4.43 29.98 5.68 27.77 7.06 25.64 C 14.33 25.64 21.59 25.66 28.86 25.64 C 29.05 20.31 28.13 14.86 29.33 9.63 C 29.48 26.30 29.02 42.97 29.30 59.64 C 32.34 59.65 35.37 59.67 38.40 59.68 C 38.52 55.69 38.14 51.68 36.77 47.91 C 37.12 48.59 37.83 49.94 38.18 50.61 C 42.57 51.20 47.02 50.77 51.44 50.96 C 51.87 50.20 52.72 48.69 53.15 47.93 C 51.39 51.60 51.01 55.65 51.26 59.67 C 54.08 59.66 56.90 59.66 59.73 59.66 C 59.77 43.08 59.89 26.50 59.84 9.92 C 49.67 9.58 39.49 10.11 29.33 9.63 L 28.87 9.60 C 31.06 7.55 33.22 5.46 35.32 3.31 M 45.44 53.60 C 45.82 55.22 46.24 56.84 46.65 58.46 C 47.59 58.45 48.54 58.46 49.49 58.48 C 49.55 56.80 49.62 55.13 49.70 53.45 C 48.28 53.50 46.86 53.55 45.44 53.60 M 40.52 58.48 C 41.51 58.46 42.50 58.47 43.49 58.48 C 43.55 56.81 43.62 55.14 43.69 53.47 C 42.84 53.47 41.13 53.47 40.27 53.48 C 40.36 55.14 40.44 56.81 40.52 58.48 Z" />
<path fill="#731f1f" opacity="1.00" d=" M 4.44 10.92 C 3.34 7.94 5.58 3.86 8.96 4.01 C 11.27 3.64 12.81 5.57 14.39 6.87 C 16.23 4.85 18.92 3.03 21.73 4.40 C 24.46 5.47 24.13 8.79 23.98 11.17 C 23.78 14.01 21.71 16.17 19.86 18.13 C 21.47 15.73 22.83 13.17 23.92 10.49 C 23.47 8.45 23.32 5.64 20.90 4.97 C 18.23 3.94 16.22 6.51 14.23 7.83 C 12.38 6.22 10.13 3.62 7.43 5.19 C 5.19 5.98 5.31 8.59 5.01 10.52 C 6.07 15.17 9.78 18.38 12.66 21.93 C 15.28 21.98 17.55 20.85 19.23 18.86 C 17.65 20.67 16.04 22.45 14.36 24.16 C 10.79 20.00 5.96 16.42 4.44 10.92 Z" />
<path fill="#731f1f" opacity="1.00" d=" M 32.05 12.89 C 33.06 12.87 34.07 12.85 35.08 12.83 C 35.10 14.82 35.11 16.80 35.13 18.79 C 34.39 18.82 32.93 18.87 32.19 18.89 C 32.17 16.89 32.11 14.89 32.05 12.89 Z" />
<path fill="#731f1f" opacity="1.00" d=" M 54.41 12.90 C 55.47 12.90 56.53 12.90 57.59 12.90 C 57.55 14.88 57.53 16.85 57.53 18.83 C 56.51 18.83 55.49 18.83 54.47 18.83 C 54.47 16.85 54.44 14.88 54.41 12.90 Z" />
<path fill="#731f1f" opacity="1.00" d=" M 32.09 22.29 C 33.11 22.33 34.12 22.37 35.13 22.40 C 35.14 24.45 35.14 26.50 35.14 28.55 C 34.17 28.59 33.19 28.63 32.22 28.68 C 32.20 26.55 32.14 24.42 32.09 22.29 Z" />
<path fill="#731f1f" opacity="1.00" d=" M 54.43 22.36 C 55.48 22.36 56.53 22.37 57.59 22.40 C 57.56 24.47 57.54 26.54 57.52 28.61 C 56.51 28.61 55.49 28.61 54.47 28.61 C 54.47 26.52 54.44 24.44 54.43 22.36 Z" />
<path fill="#731f1f" opacity="1.00" d=" M 48.22 27.71 C 48.88 27.71 50.19 27.71 50.85 27.70 C 51.29 29.30 47.83 29.30 48.22 27.71 Z" />
<path fill="#731f1f" opacity="1.00" d=" M 32.06 32.04 C 32.83 32.02 34.39 31.97 35.17 31.95 C 35.02 34.46 36.44 39.00 32.26 38.46 C 32.19 36.32 32.13 34.18 32.06 32.04 Z" />
<path fill="#731f1f" opacity="1.00" d=" M 38.38 32.01 C 39.46 32.01 40.55 32.02 41.63 32.03 C 41.58 34.10 41.54 36.17 41.51 38.23 C 40.50 38.23 39.50 38.23 38.49 38.23 C 38.46 36.16 38.42 34.09 38.38 32.01 Z" />
<path fill="#731f1f" opacity="1.00" d=" M 48.05 32.05 C 48.83 32.03 50.39 31.98 51.16 31.95 C 51.01 34.47 52.44 39.00 48.26 38.46 C 48.19 36.32 48.13 34.19 48.05 32.05 Z" />
<path fill="#731f1f" opacity="1.00" d=" M 54.39 32.01 C 55.46 32.00 56.54 32.01 57.62 32.02 C 57.58 34.09 57.54 36.16 57.51 38.23 C 56.50 38.23 55.50 38.23 54.49 38.23 C 54.46 36.16 54.42 34.08 54.39 32.01 Z" />
<path fill="#731f1f" opacity="1.00" d=" M 9.53 35.23 C 10.63 35.19 11.74 35.16 12.84 35.14 C 12.79 36.19 12.74 37.23 12.69 38.27 C 11.69 38.25 10.69 38.23 9.69 38.21 C 9.64 37.22 9.59 36.22 9.53 35.23 Z" />
<path fill="#731f1f" opacity="1.00" d=" M 19.17 35.13 C 20.27 35.16 21.38 35.20 22.48 35.24 C 22.42 36.23 22.36 37.22 22.30 38.21 C 21.30 38.23 20.31 38.25 19.31 38.27 C 19.26 37.22 19.21 36.18 19.17 35.13 Z" />
<path fill="#731f1f" opacity="1.00" d=" M 9.60 41.46 C 10.75 41.56 11.89 41.65 13.04 41.75 C 12.95 42.47 12.77 43.93 12.68 44.66 C 11.63 44.62 10.59 44.59 9.54 44.55 C 9.56 43.52 9.58 42.49 9.60 41.46 Z" />
<path fill="#731f1f" opacity="1.00" d=" M 19.24 41.46 C 20.30 41.50 21.35 41.54 22.41 41.58 C 22.42 42.57 22.44 43.56 22.46 44.55 C 21.38 44.59 20.29 44.63 19.21 44.67 C 19.21 43.60 19.22 42.53 19.24 41.46 Z" />
<path fill="#731f1f" opacity="1.00" d=" M 31.78 41.71 C 32.94 41.67 34.10 41.63 35.26 41.59 C 35.23 42.57 35.22 43.56 35.21 44.55 C 34.23 44.59 33.24 44.63 32.26 44.67 C 32.14 43.93 31.90 42.45 31.78 41.71 Z" />
<path fill="#731f1f" opacity="1.00" d=" M 38.34 41.58 C 39.45 41.57 40.55 41.57 41.66 41.58 C 41.64 42.58 41.61 43.59 41.59 44.60 C 40.53 44.59 39.47 44.59 38.40 44.59 C 38.38 43.59 38.36 42.59 38.34 41.58 Z" />
<path fill="#731f1f" opacity="1.00" d=" M 47.77 41.74 C 48.91 41.67 50.06 41.60 51.20 41.53 C 51.21 42.53 51.21 43.53 51.23 44.53 C 50.25 44.59 49.27 44.64 48.29 44.69 C 48.16 43.96 47.90 42.48 47.77 41.74 Z" />
<path fill="#731f1f" opacity="1.00" d=" M 54.35 41.57 C 55.45 41.57 56.55 41.57 57.66 41.58 C 57.64 42.59 57.62 43.59 57.60 44.59 C 56.53 44.59 55.47 44.60 54.41 44.60 C 54.38 43.59 54.36 42.58 54.35 41.57 Z" />
<path fill="#731f1f" opacity="1.00" d=" M 9.40 50.79 C 9.48 49.78 9.57 48.78 9.67 47.78 C 10.44 47.80 11.99 47.85 12.76 47.87 C 12.79 48.60 12.86 50.07 12.90 50.81 C 11.73 50.80 10.56 50.79 9.40 50.79 Z" />
<path fill="#731f1f" opacity="1.00" d=" M 19.24 47.89 C 20.00 47.85 21.52 47.77 22.28 47.74 C 22.40 48.76 22.51 49.78 22.61 50.80 C 21.44 50.80 20.27 50.80 19.10 50.80 C 19.14 50.07 19.20 48.62 19.24 47.89 Z" />
<path fill="#731f1f" opacity="1.00" d=" M 32.00 48.05 C 32.79 48.01 34.36 47.93 35.15 47.88 C 35.23 48.84 35.30 49.80 35.39 50.75 C 34.22 50.78 33.05 50.81 31.89 50.83 C 31.91 50.13 31.97 48.75 32.00 48.05 Z" />
<path fill="#731f1f" opacity="1.00" d=" M 54.39 47.98 C 55.47 47.99 56.55 48.00 57.63 48.02 C 57.63 48.72 57.64 50.13 57.64 50.83 C 56.54 50.82 55.45 50.82 54.35 50.82 C 54.36 50.11 54.38 48.69 54.39 47.98 Z" />
<path fill="#731f1f" opacity="1.00" d=" M 9.44 54.15 C 11.03 54.33 13.35 53.74 13.33 56.08 C 12.98 58.03 10.87 57.37 9.47 57.64 C 9.46 56.48 9.45 55.31 9.44 54.15 Z" />
<path fill="#731f1f" opacity="1.00" d=" M 19.18 54.23 C 20.31 54.23 21.43 54.25 22.56 54.27 C 22.55 55.35 22.54 56.43 22.54 57.51 C 21.43 57.51 20.32 57.50 19.21 57.50 C 19.19 56.41 19.18 55.32 19.18 54.23 Z" />
<path fill="#731f1f" opacity="1.00" d=" M 32.01 54.33 C 33.08 54.33 34.15 54.33 35.22 54.32 C 35.23 55.35 35.26 56.37 35.29 57.40 C 34.24 57.45 33.19 57.50 32.15 57.56 C 32.11 56.48 32.06 55.40 32.01 54.33 Z" />
<path fill="#731f1f" opacity="1.00" d=" M 54.32 54.36 C 55.44 54.36 56.56 54.36 57.69 54.37 C 57.65 55.40 57.61 56.43 57.58 57.46 C 56.53 57.45 55.47 57.45 54.41 57.45 C 54.38 56.42 54.35 55.39 54.32 54.36 Z" />
</g>
<g id="#d3b3bdff">
<path fill="#d3b3bd" opacity="1.00" d=" M 7.43 5.19 C 10.13 3.62 12.38 6.22 14.23 7.83 C 16.22 6.51 18.23 3.94 20.90 4.97 C 23.32 5.64 23.47 8.45 23.92 10.49 C 17.62 10.50 11.31 10.47 5.01 10.52 C 5.31 8.59 5.19 5.98 7.43 5.19 Z" />
<path fill="#d3b3bd" opacity="1.00" d=" M 29.33 9.63 C 39.49 10.11 49.67 9.58 59.84 9.92 C 59.89 26.50 59.77 43.08 59.73 59.66 C 56.90 59.66 54.08 59.66 51.26 59.67 C 51.01 55.65 51.39 51.60 53.15 47.93 C 52.72 48.69 51.87 50.20 51.44 50.96 C 47.02 50.77 42.57 51.20 38.18 50.61 C 37.83 49.94 37.12 48.59 36.77 47.91 C 38.14 51.68 38.52 55.69 38.40 59.68 C 35.37 59.67 32.34 59.65 29.30 59.64 C 29.02 42.97 29.48 26.30 29.33 9.63 M 32.05 12.89 C 32.11 14.89 32.17 16.89 32.19 18.89 C 32.93 18.87 34.39 18.82 35.13 18.79 C 35.11 16.80 35.10 14.82 35.08 12.83 C 34.07 12.85 33.06 12.87 32.05 12.89 M 54.41 12.90 C 54.44 14.88 54.47 16.85 54.47 18.83 C 55.49 18.83 56.51 18.83 57.53 18.83 C 57.53 16.85 57.55 14.88 57.59 12.90 C 56.53 12.90 55.47 12.90 54.41 12.90 M 38.38 13.00 C 38.44 18.27 38.38 23.54 38.42 28.81 C 39.47 28.79 40.53 28.78 41.58 28.77 C 41.59 26.64 41.61 24.52 41.62 22.39 C 43.73 22.37 45.84 22.36 47.95 22.35 C 48.01 24.14 48.08 25.93 48.22 27.71 C 47.83 29.30 51.29 29.30 50.85 27.70 C 51.46 22.78 51.09 17.81 51.14 12.87 C 50.37 12.86 48.82 12.85 48.04 12.84 C 48.05 14.96 48.04 17.08 48.04 19.20 C 45.89 19.19 43.74 19.18 41.59 19.16 C 41.60 17.10 41.59 15.03 41.60 12.96 C 40.53 12.97 39.46 12.98 38.38 13.00 M 32.09 22.29 C 32.14 24.42 32.20 26.55 32.22 28.68 C 33.19 28.63 34.17 28.59 35.14 28.55 C 35.14 26.50 35.14 24.45 35.13 22.40 C 34.12 22.37 33.11 22.33 32.09 22.29 M 54.43 22.36 C 54.44 24.44 54.47 26.52 54.47 28.61 C 55.49 28.61 56.51 28.61 57.52 28.61 C 57.54 26.54 57.56 24.47 57.59 22.40 C 56.53 22.37 55.48 22.36 54.43 22.36 M 32.06 32.04 C 32.13 34.18 32.19 36.32 32.26 38.46 C 36.44 39.00 35.02 34.46 35.17 31.95 C 34.39 31.97 32.83 32.02 32.06 32.04 M 38.38 32.01 C 38.42 34.09 38.46 36.16 38.49 38.23 C 39.50 38.23 40.50 38.23 41.51 38.23 C 41.54 36.17 41.58 34.10 41.63 32.03 C 40.55 32.02 39.46 32.01 38.38 32.01 M 48.05 32.05 C 48.13 34.19 48.19 36.32 48.26 38.46 C 52.44 39.00 51.01 34.47 51.16 31.95 C 50.39 31.98 48.83 32.03 48.05 32.05 M 54.39 32.01 C 54.42 34.08 54.46 36.16 54.49 38.23 C 55.50 38.23 56.50 38.23 57.51 38.23 C 57.54 36.16 57.58 34.09 57.62 32.02 C 56.54 32.01 55.46 32.00 54.39 32.01 M 31.78 41.71 C 31.90 42.45 32.14 43.93 32.26 44.67 C 33.24 44.63 34.23 44.59 35.21 44.55 C 35.22 43.56 35.23 42.57 35.26 41.59 C 34.10 41.63 32.94 41.67 31.78 41.71 M 38.34 41.58 C 38.36 42.59 38.38 43.59 38.40 44.59 C 39.47 44.59 40.53 44.59 41.59 44.60 C 41.61 43.59 41.64 42.58 41.66 41.58 C 40.55 41.57 39.45 41.57 38.34 41.58 M 47.77 41.74 C 47.90 42.48 48.16 43.96 48.29 44.69 C 49.27 44.64 50.25 44.59 51.23 44.53 C 51.21 43.53 51.21 42.53 51.20 41.53 C 50.06 41.60 48.91 41.67 47.77 41.74 M 54.35 41.57 C 54.36 42.58 54.38 43.59 54.41 44.60 C 55.47 44.60 56.53 44.59 57.60 44.59 C 57.62 43.59 57.64 42.59 57.66 41.58 C 56.55 41.57 55.45 41.57 54.35 41.57 M 32.00 48.05 C 31.97 48.75 31.91 50.13 31.89 50.83 C 33.05 50.81 34.22 50.78 35.39 50.75 C 35.30 49.80 35.23 48.84 35.15 47.88 C 34.36 47.93 32.79 48.01 32.00 48.05 M 54.39 47.98 C 54.38 48.69 54.36 50.11 54.35 50.82 C 55.45 50.82 56.54 50.82 57.64 50.83 C 57.64 50.13 57.63 48.72 57.63 48.02 C 56.55 48.00 55.47 47.99 54.39 47.98 M 32.01 54.33 C 32.06 55.40 32.11 56.48 32.15 57.56 C 33.19 57.50 34.24 57.45 35.29 57.40 C 35.26 56.37 35.23 55.35 35.22 54.32 C 34.15 54.33 33.08 54.33 32.01 54.33 M 54.32 54.36 C 54.35 55.39 54.38 56.42 54.41 57.45 C 55.47 57.45 56.53 57.45 57.58 57.46 C 57.61 56.43 57.65 55.40 57.69 54.37 C 56.56 54.36 55.44 54.36 54.32 54.36 Z" />
<path fill="#d3b3bd" opacity="1.00" d=" M 3.42 32.31 C 11.47 32.06 19.52 32.04 27.57 32.33 C 27.51 41.36 27.39 50.39 27.37 59.41 C 19.71 59.58 12.06 59.44 4.40 59.53 C 4.47 50.45 3.74 41.39 3.42 32.31 M 9.53 35.23 C 9.59 36.22 9.64 37.22 9.69 38.21 C 10.69 38.23 11.69 38.25 12.69 38.27 C 12.74 37.23 12.79 36.19 12.84 35.14 C 11.74 35.16 10.63 35.19 9.53 35.23 M 19.17 35.13 C 19.21 36.18 19.26 37.22 19.31 38.27 C 20.31 38.25 21.30 38.23 22.30 38.21 C 22.36 37.22 22.42 36.23 22.48 35.24 C 21.38 35.20 20.27 35.16 19.17 35.13 M 9.60 41.46 C 9.58 42.49 9.56 43.52 9.54 44.55 C 10.59 44.59 11.63 44.62 12.68 44.66 C 12.77 43.93 12.95 42.47 13.04 41.75 C 11.89 41.65 10.75 41.56 9.60 41.46 M 19.24 41.46 C 19.22 42.53 19.21 43.60 19.21 44.67 C 20.29 44.63 21.38 44.59 22.46 44.55 C 22.44 43.56 22.42 42.57 22.41 41.58 C 21.35 41.54 20.30 41.50 19.24 41.46 M 9.40 50.79 C 10.56 50.79 11.73 50.80 12.90 50.81 C 12.86 50.07 12.79 48.60 12.76 47.87 C 11.99 47.85 10.44 47.80 9.67 47.78 C 9.57 48.78 9.48 49.78 9.40 50.79 M 19.24 47.89 C 19.20 48.62 19.14 50.07 19.10 50.80 C 20.27 50.80 21.44 50.80 22.61 50.80 C 22.51 49.78 22.40 48.76 22.28 47.74 C 21.52 47.77 20.00 47.85 19.24 47.89 M 9.44 54.15 C 9.45 55.31 9.46 56.48 9.47 57.64 C 10.87 57.37 12.98 58.03 13.33 56.08 C 13.35 53.74 11.03 54.33 9.44 54.15 M 19.18 54.23 C 19.18 55.32 19.19 56.41 19.21 57.50 C 20.32 57.50 21.43 57.51 22.54 57.51 C 22.54 56.43 22.55 55.35 22.56 54.27 C 21.43 54.25 20.31 54.23 19.18 54.23 Z" />
<path fill="#d3b3bd" opacity="1.00" d=" M 45.44 53.60 C 46.86 53.55 48.28 53.50 49.70 53.45 C 49.62 55.13 49.55 56.80 49.49 58.48 C 48.54 58.46 47.59 58.45 46.65 58.46 C 46.24 56.84 45.82 55.22 45.44 53.60 Z" />
<path fill="#d3b3bd" opacity="1.00" d=" M 40.52 58.48 C 40.44 56.81 40.36 55.14 40.27 53.48 C 41.13 53.47 42.84 53.47 43.69 53.47 C 43.62 55.14 43.55 56.81 43.49 58.48 C 42.50 58.47 41.51 58.46 40.52 58.48 Z" />
</g>
<g id="#fe33b9ff">
<path fill="#fe33b9" opacity="1.00" d=" M 5.01 10.52 C 11.31 10.47 17.62 10.50 23.92 10.49 C 22.83 13.17 21.47 15.73 19.86 18.13 C 19.70 18.31 19.39 18.68 19.23 18.86 C 17.55 20.85 15.28 21.98 12.66 21.93 C 9.78 18.38 6.07 15.17 5.01 10.52 Z" />
<path fill="#fe33b9" opacity="1.00" d=" M 38.38 13.00 C 39.46 12.98 40.53 12.97 41.60 12.96 C 41.59 15.03 41.60 17.10 41.59 19.16 C 43.74 19.18 45.89 19.19 48.04 19.20 C 48.04 17.08 48.05 14.96 48.04 12.84 C 48.82 12.85 50.37 12.86 51.14 12.87 C 51.09 17.81 51.46 22.78 50.85 27.70 C 50.19 27.71 48.88 27.71 48.22 27.71 C 48.08 25.93 48.01 24.14 47.95 22.35 C 45.84 22.36 43.73 22.37 41.62 22.39 C 41.61 24.52 41.59 26.64 41.58 28.77 C 40.53 28.78 39.47 28.79 38.42 28.81 C 38.38 23.54 38.44 18.27 38.38 13.00 Z" />
</g>
</svg>
