<?xml version="1.0" encoding="UTF-8" ?>
<!DOCTYPE svg PUBLIC "-//W3C//DTD SVG 1.1//EN" "http://www.w3.org/Graphics/SVG/1.1/DTD/svg11.dtd">
<svg width="64pt" height="64pt" viewBox="0 0 64 64" version="1.1" xmlns="http://www.w3.org/2000/svg">
<g id="#00000028">
<path fill="#000000" opacity="0.16" d=" M 4.23 2.18 C 21.14 1.74 38.08 2.08 55.01 2.02 C 57.74 0.52 62.30 2.76 61.99 5.98 C 62.01 22.65 62.08 39.33 61.94 56.01 C 62.81 59.04 61.25 61.53 59.99 64.00 L 4.02 64.00 C 3.27 62.39 2.06 60.86 2.02 59.02 C 1.94 42.34 1.98 25.67 2.02 8.99 C 0.15 5.75 2.43 3.91 4.23 2.18 M 5.00 3.02 L 5.01 4.00 C 4.76 4.25 4.25 4.75 4.00 5.01 L 3.02 5.00 C 2.97 23.32 3.00 41.63 3.00 59.95 L 3.95 60.11 C 3.97 60.58 4.01 61.50 4.03 61.96 L 5.00 62.00 L 5.02 62.95 C 23.01 63.09 41.01 62.98 59.00 62.98 L 58.99 62.00 C 59.26 61.52 59.79 60.57 60.06 60.09 L 61.00 59.97 C 61.00 41.65 61.03 23.32 60.98 5.00 L 60.00 5.01 C 59.75 4.76 59.25 4.25 59.00 4.00 L 58.98 3.05 C 40.99 2.91 22.99 3.02 5.00 3.02 Z" />
</g>
<g id="#0000005d">
<path fill="#000000" opacity="0.36" d=" M 5.00 3.02 C 22.99 3.02 40.99 2.91 58.98 3.05 L 59.00 4.00 C 41.00 4.00 23.00 4.01 5.01 4.00 L 5.00 3.02 Z" />
</g>
<g id="#fcfdfdff">
<path fill="#fcfdfd" opacity="1.00" d=" M 4.00 5.01 C 4.25 4.75 4.76 4.25 5.01 4.00 C 23.00 4.01 41.00 4.00 59.00 4.00 C 59.25 4.25 59.75 4.76 60.00 5.01 C 59.97 15.00 60.04 25.00 59.99 35.00 C 59.25 35.00 57.79 35.01 57.06 35.01 C 57.04 34.25 57.01 32.72 56.99 31.96 C 56.99 31.26 56.99 29.86 56.99 29.16 C 57.00 28.35 57.01 26.73 57.01 25.92 C 57.02 24.61 57.02 23.31 56.99 22.01 C 56.99 18.94 56.98 15.88 56.93 12.81 C 58.34 9.16 57.79 7.22 55.28 6.96 C 53.42 6.99 51.57 7.09 49.72 7.17 L 48.85 7.14 C 45.49 7.02 42.12 7.02 38.76 7.15 C 37.08 7.11 33.71 7.05 32.03 7.01 C 28.61 6.98 25.20 7.03 21.79 7.17 C 20.48 7.10 19.17 7.05 17.86 7.02 C 14.86 6.95 11.87 6.87 8.87 6.96 C 8.41 6.99 7.50 7.05 7.04 7.08 C 6.97 11.00 6.98 14.91 7.08 18.83 C 7.06 20.56 7.01 22.28 6.97 24.01 C 6.23 24.01 4.75 24.00 4.01 24.00 C 3.98 17.67 4.01 11.34 4.00 5.01 Z" />
</g>
<g id="#00000076">
<path fill="#000000" opacity="0.46" d=" M 3.02 5.00 L 4.00 5.01 C 4.01 11.34 3.98 17.67 4.01 24.00 C 3.98 30.00 3.97 36.00 4.02 42.00 C 3.98 48.03 4.00 54.07 3.95 60.11 L 3.00 59.95 C 3.00 41.63 2.97 23.32 3.02 5.00 Z" />
<path fill="#000000" opacity="0.46" d=" M 60.00 5.01 L 60.98 5.00 C 61.03 23.32 61.00 41.65 61.00 59.97 L 60.06 60.09 C 59.97 51.73 60.04 43.36 59.99 35.00 C 60.04 25.00 59.97 15.00 60.00 5.01 Z" />
</g>
<g id="#8b8b8cff">
<path fill="#8b8b8c" opacity="1.00" d=" M 7.04 7.08 C 7.50 7.05 8.41 6.99 8.87 6.96 C 8.50 10.86 6.24 16.33 9.80 19.31 C 9.84 20.01 9.92 21.41 9.96 22.11 C 8.15 21.96 7.82 20.14 7.08 18.83 C 6.98 14.91 6.97 11.00 7.04 7.08 Z" />
</g>
<g id="#b4b4b4ff">
<path fill="#b4b4b4" opacity="1.00" d=" M 8.87 6.96 C 11.87 6.87 14.86 6.95 17.86 7.02 L 18.35 7.81 C 15.34 8.35 11.35 6.74 9.11 9.24 C 9.08 10.70 9.04 13.61 9.01 15.07 C 13.24 14.97 18.19 12.59 18.35 7.81 C 19.57 8.06 21.05 8.10 21.09 9.70 C 20.35 10.74 19.66 11.81 18.98 12.89 C 16.28 14.55 13.41 15.99 11.05 18.13 C 10.74 18.43 10.11 19.02 9.80 19.31 C 6.24 16.33 8.50 10.86 8.87 6.96 Z" />
</g>
<g id="#999c9dff">
<path fill="#999c9d" opacity="1.00" d=" M 17.86 7.02 C 19.17 7.05 20.48 7.10 21.79 7.17 C 24.59 7.59 27.40 8.00 30.22 8.33 C 28.84 8.65 27.43 8.85 26.03 9.05 C 25.56 9.12 24.63 9.26 24.17 9.33 C 23.61 9.45 22.50 9.70 21.94 9.82 L 21.09 9.70 C 21.05 8.10 19.57 8.06 18.35 7.81 L 17.86 7.02 Z" />
</g>
<g id="#676667ff">
<path fill="#676667" opacity="1.00" d=" M 21.79 7.17 C 25.20 7.03 28.61 6.98 32.03 7.01 L 32.00 7.98 C 31.55 8.07 30.66 8.25 30.22 8.33 C 27.40 8.00 24.59 7.59 21.79 7.17 Z" />
</g>
<g id="#abacabff">
<path fill="#abacab" opacity="1.00" d=" M 32.03 7.01 C 33.71 7.05 37.08 7.11 38.76 7.15 C 40.16 7.94 41.58 8.70 43.07 9.30 C 42.28 9.79 41.52 10.31 40.78 10.87 C 39.19 11.66 38.78 13.22 38.97 14.88 C 38.94 16.21 38.98 17.53 39.08 18.85 C 40.43 19.02 41.79 19.17 43.14 19.30 L 43.28 20.26 L 42.92 20.91 C 42.67 21.12 42.18 21.55 41.93 21.76 C 40.59 21.80 39.25 21.82 37.91 21.82 C 37.92 21.14 37.94 19.79 37.95 19.11 C 37.97 17.58 38.00 14.52 38.02 12.99 C 35.03 15.09 31.87 16.91 28.83 18.92 C 27.74 19.53 27.19 20.71 26.87 21.86 C 25.24 21.91 23.62 21.92 21.99 21.92 C 21.99 17.89 21.97 13.86 21.94 9.82 C 22.50 9.70 23.61 9.45 24.17 9.33 C 23.27 12.13 22.40 15.24 24.20 17.91 C 29.48 18.27 34.35 14.52 37.75 10.74 C 39.30 7.52 36.20 7.88 33.90 8.00 C 33.43 7.99 32.48 7.99 32.00 7.98 L 32.03 7.01 Z" />
</g>
<g id="#7c7c7cff">
<path fill="#7c7c7c" opacity="1.00" d=" M 38.76 7.15 C 42.12 7.02 45.49 7.02 48.85 7.14 L 49.12 7.95 C 47.12 8.46 45.11 8.94 43.07 9.30 C 41.58 8.70 40.16 7.94 38.76 7.15 Z" />
</g>
<g id="#b9b9b9ff">
<path fill="#b9b9b9" opacity="1.00" d=" M 48.85 7.14 L 49.72 7.17 C 50.89 7.53 52.06 7.86 53.24 8.17 C 52.37 9.92 51.17 11.46 50.00 13.02 C 47.64 15.03 45.38 17.14 43.14 19.30 C 41.79 19.17 40.43 19.02 39.08 18.85 C 38.98 17.53 38.94 16.21 38.97 14.88 C 40.10 17.61 43.69 17.69 45.24 15.31 C 46.96 13.25 51.19 11.05 49.12 7.95 L 48.85 7.14 Z" />
</g>
<g id="#898889ff">
<path fill="#898889" opacity="1.00" d=" M 49.72 7.17 C 51.57 7.09 53.42 6.99 55.28 6.96 C 55.50 8.33 55.73 9.69 55.81 11.08 C 55.00 11.49 54.17 11.87 53.34 12.24 C 53.26 11.02 54.99 8.46 53.24 8.17 C 52.06 7.86 50.89 7.53 49.72 7.17 Z" />
</g>
<g id="#495d71ff">
<path fill="#495d71" opacity="1.00" d=" M 55.28 6.96 C 57.79 7.22 58.34 9.16 56.93 12.81 L 56.18 12.71 C 56.09 12.30 55.91 11.48 55.81 11.08 C 55.73 9.69 55.50 8.33 55.28 6.96 Z" />
</g>
<g id="#dddedeff">
<path fill="#dddede" opacity="1.00" d=" M 9.11 9.24 C 11.35 6.74 15.34 8.35 18.35 7.81 C 18.19 12.59 13.24 14.97 9.01 15.07 C 9.04 13.61 9.08 10.70 9.11 9.24 Z" />
</g>
<g id="#e6e7e7ff">
<path fill="#e6e7e7" opacity="1.00" d=" M 30.22 8.33 C 30.66 8.25 31.55 8.07 32.00 7.98 C 32.48 7.99 33.43 7.99 33.90 8.00 C 38.46 10.05 33.28 13.58 30.68 14.72 C 24.86 17.73 24.37 12.22 26.03 9.05 C 27.43 8.85 28.84 8.65 30.22 8.33 Z" />
</g>
<g id="#cacbcbff">
<path fill="#cacbcb" opacity="1.00" d=" M 33.90 8.00 C 36.20 7.88 39.30 7.52 37.75 10.74 C 34.35 14.52 29.48 18.27 24.20 17.91 C 22.40 15.24 23.27 12.13 24.17 9.33 C 24.63 9.26 25.56 9.12 26.03 9.05 C 24.37 12.22 24.86 17.73 30.68 14.72 C 33.28 13.58 38.46 10.05 33.90 8.00 Z" />
</g>
<g id="#ddddddff">
<path fill="#dddddd" opacity="1.00" d=" M 43.07 9.30 C 45.11 8.94 47.12 8.46 49.12 7.95 C 51.19 11.05 46.96 13.25 45.24 15.31 C 41.89 15.74 40.20 14.29 40.78 10.87 C 41.52 10.31 42.28 9.79 43.07 9.30 Z" />
</g>
<g id="#9a9ea0ff">
<path fill="#9a9ea0" opacity="1.00" d=" M 53.24 8.17 C 54.99 8.46 53.26 11.02 53.34 12.24 C 52.27 12.66 51.16 12.92 50.00 13.02 C 51.17 11.46 52.37 9.92 53.24 8.17 Z" />
</g>
<g id="#72a0c4ff">
<path fill="#72a0c4" opacity="1.00" d=" M 18.98 12.89 C 19.66 11.81 20.35 10.74 21.09 9.70 L 21.94 9.82 C 21.97 13.86 21.99 17.89 21.99 21.92 C 21.70 22.17 21.11 22.68 20.82 22.93 L 20.10 22.79 C 17.42 22.30 14.31 21.17 11.85 22.85 C 11.37 22.67 10.43 22.30 9.96 22.11 C 9.92 21.41 9.84 20.01 9.80 19.31 C 10.11 19.02 10.74 18.43 11.05 18.13 C 14.13 17.17 20.04 17.78 18.98 12.89 Z" />
</g>
<g id="#cccccdff">
<path fill="#cccccd" opacity="1.00" d=" M 38.97 14.88 C 38.78 13.22 39.19 11.66 40.78 10.87 C 40.20 14.29 41.89 15.74 45.24 15.31 C 43.69 17.69 40.10 17.61 38.97 14.88 Z" />
</g>
<g id="#6b9cc4ff">
<path fill="#6b9cc4" opacity="1.00" d=" M 53.34 12.24 C 54.17 11.87 55.00 11.49 55.81 11.08 C 55.91 11.48 56.09 12.30 56.18 12.71 C 53.48 15.05 54.12 18.67 53.94 21.91 C 53.48 22.19 52.55 22.75 52.09 23.04 C 50.56 19.42 46.03 21.43 42.92 20.91 L 43.28 20.26 C 45.83 18.20 50.50 17.02 50.00 13.02 C 51.16 12.92 52.27 12.66 53.34 12.24 Z" />
</g>
<g id="#8f9294ff">
<path fill="#8f9294" opacity="1.00" d=" M 11.05 18.13 C 13.41 15.99 16.28 14.55 18.98 12.89 C 20.04 17.78 14.13 17.17 11.05 18.13 Z" />
</g>
<g id="#8d979eff">
<path fill="#8d979e" opacity="1.00" d=" M 28.83 18.92 C 31.87 16.91 35.03 15.09 38.02 12.99 C 38.00 14.52 37.97 17.58 37.95 19.11 C 36.23 15.41 31.91 19.97 28.83 18.92 Z" />
</g>
<g id="#93989cff">
<path fill="#93989c" opacity="1.00" d=" M 43.14 19.30 C 45.38 17.14 47.64 15.03 50.00 13.02 C 50.50 17.02 45.83 18.20 43.28 20.26 L 43.14 19.30 Z" />
</g>
<g id="#8b8c8dff">
<path fill="#8b8c8d" opacity="1.00" d=" M 53.94 21.91 C 54.12 18.67 53.48 15.05 56.18 12.71 L 56.93 12.81 C 56.98 15.88 56.99 18.94 56.99 22.01 C 56.23 21.98 54.70 21.93 53.94 21.91 Z" />
</g>
<g id="#82afccff">
<path fill="#82afcc" opacity="1.00" d=" M 28.83 18.92 C 31.91 19.97 36.23 15.41 37.95 19.11 C 37.94 19.79 37.92 21.14 37.91 21.82 C 36.33 22.77 35.96 24.42 35.92 26.15 C 33.32 26.60 30.57 27.30 28.09 26.15 C 27.80 24.69 27.41 23.25 26.87 21.86 C 27.19 20.71 27.74 19.53 28.83 18.92 Z" />
</g>
<g id="#7d4c4aff">
<path fill="#7d4c4a" opacity="1.00" d=" M 7.08 18.83 C 7.82 20.14 8.15 21.96 9.96 22.11 C 10.43 22.30 11.37 22.67 11.85 22.85 C 11.73 23.99 11.58 25.12 11.39 26.25 C 10.00 25.30 8.47 24.92 6.99 25.92 C 6.98 25.44 6.98 24.49 6.97 24.01 C 7.01 22.28 7.06 20.56 7.08 18.83 Z" />
</g>
<g id="#87b2ccff">
<path fill="#87b2cc" opacity="1.00" d=" M 41.93 21.76 C 42.18 21.55 42.67 21.12 42.92 20.91 C 46.03 21.43 50.56 19.42 52.09 23.04 C 52.24 24.11 52.42 25.17 52.64 26.23 C 52.65 26.71 52.66 27.65 52.67 28.12 C 52.45 28.33 52.02 28.76 51.81 28.97 L 51.10 28.84 C 48.77 28.46 46.43 28.14 44.08 27.89 C 43.77 26.28 44.54 24.10 43.24 22.89 C 42.92 22.61 42.26 22.04 41.93 21.76 Z" />
</g>
<g id="#8bb5ccff">
<path fill="#8bb5cc" opacity="1.00" d=" M 11.85 22.85 C 14.31 21.17 17.42 22.30 20.10 22.79 C 20.05 24.85 20.02 26.91 20.01 28.97 C 17.68 29.13 15.34 29.80 13.00 29.35 L 12.37 28.95 C 12.09 28.76 11.55 28.37 11.28 28.18 C 11.31 27.70 11.36 26.73 11.39 26.25 C 11.58 25.12 11.73 23.99 11.85 22.85 Z" />
</g>
<g id="#90524fff">
<path fill="#90524f" opacity="1.00" d=" M 20.82 22.93 C 21.11 22.68 21.70 22.17 21.99 21.92 C 23.62 21.92 25.24 21.91 26.87 21.86 C 27.41 23.25 27.80 24.69 28.09 26.15 C 27.60 26.06 26.62 25.88 26.13 25.79 C 24.61 25.12 23.08 25.32 21.67 26.17 C 21.36 25.09 21.08 24.02 20.82 22.93 Z" />
<path fill="#90524f" opacity="1.00" d=" M 35.92 26.15 C 35.96 24.42 36.33 22.77 37.91 21.82 C 39.25 21.82 40.59 21.80 41.93 21.76 C 42.26 22.04 42.92 22.61 43.24 22.89 C 42.98 23.99 42.68 25.09 42.36 26.18 C 40.93 25.30 39.37 25.11 37.84 25.85 C 37.36 25.92 36.40 26.07 35.92 26.15 Z" />
</g>
<g id="#804542ff">
<path fill="#804542" opacity="1.00" d=" M 52.09 23.04 C 52.55 22.75 53.48 22.19 53.94 21.91 C 54.70 21.93 56.23 21.98 56.99 22.01 C 57.02 23.31 57.02 24.61 57.01 25.92 C 55.55 24.94 54.02 25.28 52.64 26.23 C 52.42 25.17 52.24 24.11 52.09 23.04 Z" />
</g>
<g id="#899199ff">
<path fill="#899199" opacity="1.00" d=" M 20.10 22.79 L 20.82 22.93 C 21.08 24.02 21.36 25.09 21.67 26.17 C 21.76 26.88 21.95 28.29 22.05 29.00 L 21.01 29.04 L 20.01 28.97 C 20.02 26.91 20.05 24.85 20.10 22.79 Z" />
<path fill="#899199" opacity="1.00" d=" M 43.24 22.89 C 44.54 24.10 43.77 26.28 44.08 27.89 L 44.04 28.97 C 43.46 28.91 42.30 28.78 41.71 28.72 C 41.88 28.08 42.20 26.82 42.36 26.18 C 42.68 25.09 42.98 23.99 43.24 22.89 Z" />
</g>
<g id="#f4f4f4ff">
<path fill="#f4f4f4" opacity="1.00" d=" M 4.01 24.00 C 4.75 24.00 6.23 24.01 6.97 24.01 C 6.98 24.49 6.98 25.44 6.99 25.92 C 6.99 26.73 7.00 28.35 7.01 29.16 C 7.01 29.86 7.01 31.26 7.01 31.96 C 7.01 32.72 7.01 34.24 7.01 35.00 C 7.00 35.75 6.99 37.26 6.99 38.01 C 6.98 38.78 6.97 40.32 6.96 41.08 L 6.94 42.02 C 6.21 42.01 4.75 42.00 4.02 42.00 C 3.97 36.00 3.98 30.00 4.01 24.00 Z" />
</g>
<g id="#cfbfbdff">
<path fill="#cfbfbd" opacity="1.00" d=" M 6.99 25.92 C 8.47 24.92 10.00 25.30 11.39 26.25 C 11.36 26.73 11.31 27.70 11.28 28.18 C 9.90 28.68 8.45 28.92 7.01 29.16 C 7.00 28.35 6.99 26.73 6.99 25.92 Z" />
<path fill="#cfbfbd" opacity="1.00" d=" M 52.64 26.23 C 54.02 25.28 55.55 24.94 57.01 25.92 C 57.01 26.73 57.00 28.35 56.99 29.16 C 55.52 28.93 54.04 28.72 52.67 28.12 C 52.66 27.65 52.65 26.71 52.64 26.23 Z" />
</g>
<g id="#ebdcdbff">
<path fill="#ebdcdb" opacity="1.00" d=" M 21.67 26.17 C 23.08 25.32 24.61 25.12 26.13 25.79 C 26.07 26.52 25.96 27.98 25.91 28.70 C 24.63 28.88 23.34 28.98 22.05 29.00 C 21.95 28.29 21.76 26.88 21.67 26.17 Z" />
</g>
<g id="#f1c4c2ff">
<path fill="#f1c4c2" opacity="1.00" d=" M 37.84 25.85 C 39.37 25.11 40.93 25.30 42.36 26.18 C 42.20 26.82 41.88 28.08 41.71 28.72 C 41.41 29.76 41.13 30.82 40.90 31.88 C 40.45 31.91 39.54 31.97 39.09 32.00 C 38.87 30.89 38.61 29.79 38.32 28.69 C 38.20 27.98 37.96 26.56 37.84 25.85 Z" />
</g>
<g id="#a8c1c9ff">
<path fill="#a8c1c9" opacity="1.00" d=" M 26.13 25.79 C 26.62 25.88 27.60 26.06 28.09 26.15 C 30.57 27.30 33.32 26.60 35.92 26.15 C 36.40 26.07 37.36 25.92 37.84 25.85 C 37.96 26.56 38.20 27.98 38.32 28.69 C 35.06 26.16 34.91 32.92 38.05 32.11 C 38.03 32.81 38.00 34.22 37.99 34.92 L 37.00 34.99 C 34.03 33.83 34.14 39.72 36.91 39.17 C 36.89 39.63 36.86 40.54 36.85 41.00 L 35.96 41.13 C 34.95 41.68 34.53 42.79 34.71 44.47 C 33.24 44.72 31.75 45.01 30.25 44.92 C 29.25 43.54 28.88 41.63 27.26 40.80 C 27.22 40.37 27.14 39.52 27.10 39.10 C 29.73 39.46 28.92 36.67 29.05 35.01 C 29.02 33.62 28.91 32.22 28.53 30.88 C 28.39 29.10 27.82 27.84 25.91 28.70 C 25.96 27.98 26.07 26.52 26.13 25.79 Z" />
</g>
<g id="#c45551ff">
<path fill="#c45551" opacity="1.00" d=" M 11.28 28.18 C 11.55 28.37 12.09 28.76 12.37 28.95 C 12.02 30.06 11.65 31.16 11.25 32.25 C 9.84 32.14 8.42 32.04 7.01 31.96 C 7.01 31.26 7.01 29.86 7.01 29.16 C 8.45 28.92 9.90 28.68 11.28 28.18 Z" />
</g>
<g id="#d35e59ff">
<path fill="#d35e59" opacity="1.00" d=" M 25.91 28.70 C 27.82 27.84 28.39 29.10 28.53 30.88 C 27.92 31.19 26.68 31.81 26.06 32.12 C 24.38 32.06 22.70 32.02 21.03 31.98 C 21.02 31.25 21.02 29.78 21.01 29.04 L 22.05 29.00 C 23.34 28.98 24.63 28.88 25.91 28.70 Z" />
</g>
<g id="#b84943ff">
<path fill="#b84943" opacity="1.00" d=" M 38.05 32.11 C 34.91 32.92 35.06 26.16 38.32 28.69 C 38.61 29.79 38.87 30.89 39.09 32.00 L 38.05 32.11 Z" />
</g>
<g id="#a9c4ceff">
<path fill="#a9c4ce" opacity="1.00" d=" M 44.08 27.89 C 46.43 28.14 48.77 28.46 51.10 28.84 C 51.04 30.90 51.00 32.95 51.03 35.00 C 51.04 36.77 51.06 40.30 51.07 42.06 L 50.71 42.87 C 50.13 45.61 47.14 45.04 45.00 45.04 C 45.02 43.67 45.02 42.29 45.02 40.92 C 44.79 39.46 44.34 36.55 44.11 35.09 C 43.60 35.05 42.59 34.96 42.08 34.92 C 42.01 34.23 41.88 32.86 41.81 32.17 C 44.62 33.98 44.04 30.97 44.04 28.97 L 44.08 27.89 Z" />
</g>
<g id="#c4524dff">
<path fill="#c4524d" opacity="1.00" d=" M 51.81 28.97 C 52.02 28.76 52.45 28.33 52.67 28.12 C 54.04 28.72 55.52 28.93 56.99 29.16 C 56.99 29.86 56.99 31.26 56.99 31.96 C 55.57 32.04 54.15 32.14 52.73 32.25 C 52.39 31.16 52.08 30.07 51.81 28.97 Z" />
</g>
<g id="#91999eff">
<path fill="#91999e" opacity="1.00" d=" M 12.37 28.95 L 13.00 29.35 C 13.00 31.24 12.97 33.12 12.95 35.01 C 12.44 35.00 11.42 35.00 10.91 34.99 C 11.00 34.31 11.17 32.93 11.25 32.25 C 11.65 31.16 12.02 30.06 12.37 28.95 Z" />
</g>
<g id="#aac6cfff">
<path fill="#aac6cf" opacity="1.00" d=" M 13.00 29.35 C 15.34 29.80 17.68 29.13 20.01 28.97 C 19.85 33.35 19.44 37.72 19.10 42.08 C 19.06 42.82 18.98 44.29 18.94 45.02 C 17.35 45.08 15.75 45.07 14.16 44.87 C 12.76 41.79 13.17 38.31 12.95 35.01 C 12.97 33.12 13.00 31.24 13.00 29.35 Z" />
</g>
<g id="#8f6561ff">
<path fill="#8f6561" opacity="1.00" d=" M 20.01 28.97 L 21.01 29.04 C 21.02 29.78 21.02 31.25 21.03 31.98 C 21.02 32.74 21.02 34.26 21.02 35.02 C 21.00 36.30 20.97 37.58 20.94 38.87 C 20.75 39.40 20.36 40.47 20.16 41.00 L 19.89 41.71 L 19.10 42.08 C 19.44 37.72 19.85 33.35 20.01 28.97 Z" />
</g>
<g id="#b3504aff">
<path fill="#b3504a" opacity="1.00" d=" M 40.90 31.88 C 41.13 30.82 41.41 29.76 41.71 28.72 C 42.30 28.78 43.46 28.91 44.04 28.97 C 44.04 30.97 44.62 33.98 41.81 32.17 L 40.90 31.88 Z" />
</g>
<g id="#90989dff">
<path fill="#90989d" opacity="1.00" d=" M 51.10 28.84 L 51.81 28.97 C 52.08 30.07 52.39 31.16 52.73 32.25 C 52.81 32.93 52.99 34.30 53.07 34.99 C 52.56 34.99 51.54 35.00 51.03 35.00 C 51.00 32.95 51.04 30.90 51.10 28.84 Z" />
</g>
<g id="#9ca6aaff">
<path fill="#9ca6aa" opacity="1.00" d=" M 28.53 30.88 C 28.91 32.22 29.02 33.62 29.05 35.01 C 28.57 34.99 27.60 34.95 27.12 34.94 C 26.78 33.99 26.42 33.05 26.06 32.12 C 26.68 31.81 27.92 31.19 28.53 30.88 Z" />
</g>
<g id="#dad9d9ff">
<path fill="#dad9d9" opacity="1.00" d=" M 7.01 31.96 C 8.42 32.04 9.84 32.14 11.25 32.25 C 11.17 32.93 11.00 34.31 10.91 34.99 C 9.61 35.00 8.31 35.00 7.01 35.00 C 7.01 34.24 7.01 32.72 7.01 31.96 Z" />
</g>
<g id="#e8e7e7ff">
<path fill="#e8e7e7" opacity="1.00" d=" M 21.03 31.98 C 22.70 32.02 24.38 32.06 26.06 32.12 C 26.42 33.05 26.78 33.99 27.12 34.94 C 25.08 34.97 23.05 35.00 21.02 35.02 C 21.02 34.26 21.02 32.74 21.03 31.98 Z" />
</g>
<g id="#f5f4f4ff">
<path fill="#f5f4f4" opacity="1.00" d=" M 38.05 32.11 L 39.09 32.00 C 39.54 31.97 40.45 31.91 40.90 31.88 L 41.81 32.17 C 41.88 32.86 42.01 34.23 42.08 34.92 C 40.71 34.92 39.35 34.92 37.99 34.92 C 38.00 34.22 38.03 32.81 38.05 32.11 Z" />
</g>
<g id="#dbd9d9ff">
<path fill="#dbd9d9" opacity="1.00" d=" M 52.73 32.25 C 54.15 32.14 55.57 32.04 56.99 31.96 C 57.01 32.72 57.04 34.25 57.06 35.01 C 55.73 35.00 54.40 35.00 53.07 34.99 C 52.99 34.30 52.81 32.93 52.73 32.25 Z" />
</g>
<g id="#e56661ff">
<path fill="#e56661" opacity="1.00" d=" M 7.01 35.00 C 8.31 35.00 9.61 35.00 10.91 34.99 C 10.96 35.73 11.06 37.19 11.11 37.93 C 9.74 37.96 8.36 37.99 6.99 38.01 C 6.99 37.26 7.00 35.75 7.01 35.00 Z" />
</g>
<g id="#915e45ff">
<path fill="#915e45" opacity="1.00" d=" M 10.91 34.99 C 11.42 35.00 12.44 35.00 12.95 35.01 C 13.17 38.31 12.76 41.79 14.16 44.87 C 15.75 45.07 17.35 45.08 18.94 45.02 C 20.39 44.98 21.83 44.79 23.24 44.48 C 24.88 44.02 27.57 44.47 27.09 41.93 L 27.26 40.80 C 28.88 41.63 29.25 43.54 30.25 44.92 C 31.75 45.01 33.24 44.72 34.71 44.47 C 35.94 44.68 37.20 44.72 38.38 44.25 C 39.45 44.21 40.52 44.19 41.60 44.20 C 42.70 44.61 43.84 44.89 45.00 45.04 C 47.14 45.04 50.13 45.61 50.71 42.87 C 50.42 45.02 52.74 45.63 54.15 44.44 C 54.59 44.32 55.47 44.07 55.91 43.95 C 55.83 46.98 55.84 50.04 55.17 53.01 L 54.31 53.32 C 53.64 51.50 55.24 47.15 52.04 48.00 C 50.07 47.76 51.31 50.97 50.75 52.16 C 50.04 51.28 49.31 50.41 48.54 49.58 C 48.02 48.04 46.48 47.95 45.10 47.91 C 45.09 49.43 45.08 52.47 45.07 53.99 C 43.24 53.56 44.34 50.55 42.66 49.57 C 41.84 47.43 37.15 47.03 37.89 50.11 C 34.04 51.23 29.96 51.23 26.11 50.11 C 26.85 47.03 22.16 47.43 21.34 49.57 C 19.66 50.55 20.76 53.56 18.93 53.99 C 18.92 52.47 18.91 49.43 18.90 47.91 C 17.52 47.95 15.98 48.04 15.46 49.58 C 14.69 50.41 13.96 51.28 13.25 52.16 C 12.68 50.97 13.93 47.76 11.96 48.00 C 8.76 47.15 10.36 51.49 9.71 53.31 L 8.87 52.99 C 8.39 50.08 8.19 47.12 7.96 44.18 C 9.86 44.18 12.39 43.54 12.11 41.11 C 11.83 40.03 11.50 38.97 11.11 37.93 C 11.06 37.19 10.96 35.73 10.91 34.99 Z" />
</g>
<g id="#f1706bff">
<path fill="#f1706b" opacity="1.00" d=" M 21.02 35.02 C 23.05 35.00 25.08 34.97 27.12 34.94 C 27.09 35.70 27.02 37.23 26.99 37.99 C 24.95 38.01 22.86 38.09 20.94 38.87 C 20.97 37.58 21.00 36.30 21.02 35.02 Z" />
</g>
<g id="#9e524aff">
<path fill="#9e524a" opacity="1.00" d=" M 27.12 34.94 C 27.60 34.95 28.57 34.99 29.05 35.01 C 28.92 36.67 29.73 39.46 27.10 39.10 L 26.99 37.99 C 27.02 37.23 27.09 35.70 27.12 34.94 Z" />
</g>
<g id="#9c5149ff">
<path fill="#9c5149" opacity="1.00" d=" M 36.91 39.17 C 34.14 39.72 34.03 33.83 37.00 34.99 C 36.99 35.76 36.98 37.30 36.97 38.07 L 36.91 39.17 Z" />
</g>
<g id="#e4635dff">
<path fill="#e4635d" opacity="1.00" d=" M 37.00 34.99 L 37.99 34.92 C 39.35 34.92 40.71 34.92 42.08 34.92 C 42.59 34.96 43.60 35.05 44.11 35.09 C 44.00 36.60 44.11 38.43 42.02 38.08 C 40.33 38.05 38.65 38.05 36.97 38.07 C 36.98 37.30 36.99 35.76 37.00 34.99 Z" />
</g>
<g id="#9f9291ff">
<path fill="#9f9291" opacity="1.00" d=" M 44.11 35.09 C 44.34 36.55 44.79 39.46 45.02 40.92 L 44.17 41.06 L 43.28 41.18 C 42.88 40.14 42.46 39.10 42.02 38.08 C 44.11 38.43 44.00 36.60 44.11 35.09 Z" />
</g>
<g id="#934f4aff">
<path fill="#934f4a" opacity="1.00" d=" M 51.03 35.00 C 51.54 35.00 52.56 34.99 53.07 34.99 C 53.04 35.71 52.98 37.14 52.95 37.86 C 52.63 38.90 52.33 39.95 52.05 41.01 L 51.84 41.77 L 51.07 42.06 C 51.06 40.30 51.04 36.77 51.03 35.00 Z" />
</g>
<g id="#e46964ff">
<path fill="#e46964" opacity="1.00" d=" M 53.07 34.99 C 54.40 35.00 55.73 35.00 57.06 35.01 C 57.05 36.26 57.01 37.50 56.95 38.74 C 55.61 38.46 54.29 38.14 52.95 37.86 C 52.98 37.14 53.04 35.71 53.07 34.99 Z" />
</g>
<g id="#ecebebff">
<path fill="#ecebeb" opacity="1.00" d=" M 57.06 35.01 C 57.79 35.01 59.25 35.00 59.99 35.00 C 60.04 43.36 59.97 51.73 60.06 60.09 L 59.23 60.32 C 41.10 59.79 22.95 59.87 4.82 60.21 L 3.95 60.11 C 4.00 54.07 3.98 48.03 4.02 42.00 C 4.75 42.00 6.21 42.01 6.94 42.02 C 6.96 42.52 6.99 43.51 7.00 44.00 C 7.02 46.59 7.08 49.18 7.16 51.77 C 7.10 53.50 7.00 55.23 7.07 56.96 C 23.69 57.05 40.31 57.04 56.94 56.96 C 56.99 55.23 56.89 53.50 56.83 51.77 C 56.91 48.79 57.03 45.81 56.96 42.83 C 57.35 40.29 53.56 41.97 52.05 41.01 C 52.33 39.95 52.63 38.90 52.95 37.86 C 54.29 38.14 55.61 38.46 56.95 38.74 C 57.01 37.50 57.05 36.26 57.06 35.01 Z" />
</g>
<g id="#e3cfcfff">
<path fill="#e3cfcf" opacity="1.00" d=" M 6.99 38.01 C 8.36 37.99 9.74 37.96 11.11 37.93 C 11.50 38.97 11.83 40.03 12.11 41.11 C 10.45 41.96 8.60 42.04 6.96 41.08 C 6.97 40.32 6.98 38.78 6.99 38.01 Z" />
</g>
<g id="#f2dddcff">
<path fill="#f2dddc" opacity="1.00" d=" M 20.94 38.87 C 22.86 38.09 24.95 38.01 26.99 37.99 L 27.10 39.10 C 27.14 39.52 27.22 40.37 27.26 40.80 L 27.09 41.93 C 24.74 42.05 22.40 41.73 20.16 41.00 C 20.36 40.47 20.75 39.40 20.94 38.87 Z" />
</g>
<g id="#f6e2e1ff">
<path fill="#f6e2e1" opacity="1.00" d=" M 36.97 38.07 C 38.65 38.05 40.33 38.05 42.02 38.08 C 42.46 39.10 42.88 40.14 43.28 41.18 C 41.16 42.00 38.87 42.19 36.85 41.00 C 36.86 40.54 36.89 39.63 36.91 39.17 L 36.97 38.07 Z" />
</g>
<g id="#cf5650ff">
<path fill="#cf5650" opacity="1.00" d=" M 6.96 41.08 C 8.60 42.04 10.45 41.96 12.11 41.11 C 12.39 43.54 9.86 44.18 7.96 44.18 L 7.00 44.00 C 6.99 43.51 6.96 42.52 6.94 42.02 L 6.96 41.08 Z" />
</g>
<g id="#e26560ff">
<path fill="#e26560" opacity="1.00" d=" M 20.16 41.00 C 22.40 41.73 24.74 42.05 27.09 41.93 C 27.57 44.47 24.88 44.02 23.24 44.48 C 22.11 43.57 21.02 42.62 19.89 41.71 L 20.16 41.00 Z" />
</g>
<g id="#90271eff">
<path fill="#90271e" opacity="1.00" d=" M 34.71 44.47 C 34.53 42.79 34.95 41.68 35.96 41.13 C 36.77 42.17 37.58 43.21 38.38 44.25 C 37.20 44.72 35.94 44.68 34.71 44.47 Z" />
</g>
<g id="#e26a65ff">
<path fill="#e26a65" opacity="1.00" d=" M 35.96 41.13 L 36.85 41.00 C 38.87 42.19 41.16 42.00 43.28 41.18 L 44.17 41.06 C 43.31 42.11 42.45 43.15 41.60 44.20 C 40.52 44.19 39.45 44.21 38.38 44.25 C 37.58 43.21 36.77 42.17 35.96 41.13 Z" />
</g>
<g id="#8b2920ff">
<path fill="#8b2920" opacity="1.00" d=" M 44.17 41.06 L 45.02 40.92 C 45.02 42.29 45.02 43.67 45.00 45.04 C 43.84 44.89 42.70 44.61 41.60 44.20 C 42.45 43.15 43.31 42.11 44.17 41.06 Z" />
</g>
<g id="#d9605bff">
<path fill="#d9605b" opacity="1.00" d=" M 52.05 41.01 C 53.56 41.97 57.35 40.29 56.96 42.83 C 56.69 43.11 56.17 43.67 55.91 43.95 C 55.47 44.07 54.59 44.32 54.15 44.44 C 53.49 43.44 52.72 42.55 51.84 41.77 L 52.05 41.01 Z" />
</g>
<g id="#8a251bff">
<path fill="#8a251b" opacity="1.00" d=" M 19.10 42.08 L 19.89 41.71 C 21.02 42.62 22.11 43.57 23.24 44.48 C 21.83 44.79 20.39 44.98 18.94 45.02 C 18.98 44.29 19.06 42.82 19.10 42.08 Z" />
</g>
<g id="#8a1e14ff">
<path fill="#8a1e14" opacity="1.00" d=" M 51.07 42.06 L 51.84 41.77 C 52.72 42.55 53.49 43.44 54.15 44.44 C 52.74 45.63 50.42 45.02 50.71 42.87 L 51.07 42.06 Z" />
</g>
<g id="#613b22ff">
<path fill="#613b22" opacity="1.00" d=" M 55.91 43.95 C 56.17 43.67 56.69 43.11 56.96 42.83 C 57.03 45.81 56.91 48.79 56.83 51.77 C 55.73 54.30 56.39 59.03 50.98 55.99 C 36.76 55.87 22.51 56.33 8.30 55.83 C 7.91 54.48 7.57 53.12 7.16 51.77 C 7.08 49.18 7.02 46.59 7.00 44.00 L 7.96 44.18 C 8.19 47.12 8.39 50.08 8.87 52.99 C 8.96 53.47 9.12 54.42 9.20 54.89 C 24.40 55.09 39.61 55.10 54.81 54.89 C 54.90 54.42 55.08 53.48 55.17 53.01 C 55.84 50.04 55.83 46.98 55.91 43.95 Z" />
</g>
<g id="#c1c1c1ff">
<path fill="#c1c1c1" opacity="1.00" d=" M 9.71 53.31 C 10.36 51.49 8.76 47.15 11.96 48.00 C 13.93 47.76 12.68 50.97 13.25 52.16 C 13.42 54.57 11.17 54.04 9.71 53.31 Z" />
<path fill="#c1c1c1" opacity="1.00" d=" M 50.75 52.16 C 51.31 50.97 50.07 47.76 52.04 48.00 C 55.24 47.15 53.64 51.50 54.31 53.32 C 52.83 54.02 50.58 54.59 50.75 52.16 Z" />
</g>
<g id="#c0bfbdff">
<path fill="#c0bfbd" opacity="1.00" d=" M 15.46 49.58 C 15.98 48.04 17.52 47.95 18.90 47.91 C 18.91 49.43 18.92 52.47 18.93 53.99 C 15.61 55.14 15.78 51.95 15.46 49.58 Z" />
<path fill="#c0bfbd" opacity="1.00" d=" M 45.10 47.91 C 46.48 47.95 48.02 48.04 48.54 49.58 C 48.22 51.95 48.39 55.14 45.07 53.99 C 45.08 52.47 45.09 49.43 45.10 47.91 Z" />
</g>
<g id="#bab1acff">
<path fill="#bab1ac" opacity="1.00" d=" M 21.34 49.57 C 22.16 47.43 26.85 47.03 26.11 50.11 C 25.62 51.25 26.93 54.39 24.94 54.01 C 22.24 54.68 21.98 51.35 21.34 49.57 Z" />
<path fill="#bab1ac" opacity="1.00" d=" M 37.89 50.11 C 37.15 47.03 41.84 47.43 42.66 49.57 C 42.02 51.35 41.76 54.68 39.06 54.01 C 37.07 54.39 38.38 51.25 37.89 50.11 Z" />
</g>
<g id="#795137ff">
<path fill="#795137" opacity="1.00" d=" M 13.25 52.16 C 13.96 51.28 14.69 50.41 15.46 49.58 C 15.78 51.95 15.61 55.14 18.93 53.99 C 20.76 53.56 19.66 50.55 21.34 49.57 C 21.98 51.35 22.24 54.68 24.94 54.01 C 26.93 54.39 25.62 51.25 26.11 50.11 C 29.96 51.23 34.04 51.23 37.89 50.11 C 38.38 51.25 37.07 54.39 39.06 54.01 C 41.76 54.68 42.02 51.35 42.66 49.57 C 44.34 50.55 43.24 53.56 45.07 53.99 C 48.39 55.14 48.22 51.95 48.54 49.58 C 49.31 50.41 50.04 51.28 50.75 52.16 C 50.58 54.59 52.83 54.02 54.31 53.32 L 55.17 53.01 C 55.08 53.48 54.90 54.42 54.81 54.89 C 39.61 55.10 24.40 55.09 9.20 54.89 C 9.12 54.42 8.96 53.47 8.87 52.99 L 9.71 53.31 C 11.17 54.04 13.42 54.57 13.25 52.16 Z" />
</g>
<g id="#391807ff">
<path fill="#391807" opacity="1.00" d=" M 7.16 51.77 C 7.57 53.12 7.91 54.48 8.30 55.83 C 22.51 56.33 36.76 55.87 50.98 55.99 C 56.39 59.03 55.73 54.30 56.83 51.77 C 56.89 53.50 56.99 55.23 56.94 56.96 C 40.31 57.04 23.69 57.05 7.07 56.96 C 7.00 55.23 7.10 53.50 7.16 51.77 Z" />
</g>
<g id="#00000081">
<path fill="#000000" opacity="0.51" d=" M 3.95 60.11 L 4.82 60.21 C 18.13 61.87 31.61 60.61 45.00 61.03 C 49.71 60.71 54.64 61.78 59.23 60.32 L 60.06 60.09 C 59.79 60.57 59.26 61.52 58.99 62.00 C 40.99 62.00 23.00 62.00 5.00 62.00 L 4.03 61.96 C 4.01 61.50 3.97 60.58 3.95 60.11 Z" />
</g>
<g id="#000000ad">
<path fill="#000000" opacity="0.68" d=" M 4.82 60.21 C 22.95 59.87 41.10 59.79 59.23 60.32 C 54.64 61.78 49.71 60.71 45.00 61.03 C 31.61 60.61 18.13 61.87 4.82 60.21 Z" />
</g>
<g id="#00000055">
<path fill="#000000" opacity="0.33" d=" M 5.00 62.00 C 23.00 62.00 40.99 62.00 58.99 62.00 L 59.00 62.98 C 41.01 62.98 23.01 63.09 5.02 62.95 L 5.00 62.00 Z" />
</g>
</svg>
