<?xml version="1.0" encoding="UTF-8" ?>
<!DOCTYPE svg PUBLIC "-//W3C//DTD SVG 1.1//EN" "http://www.w3.org/Graphics/SVG/1.1/DTD/svg11.dtd">
<svg width="64pt" height="64pt" viewBox="0 0 64 64" version="1.1" xmlns="http://www.w3.org/2000/svg">
<g id="#537521fd">
<path fill="#537521" opacity="1.00" d=" M 20.12 10.08 C 22.33 11.39 25.14 10.87 27.24 11.96 C 27.84 16.33 21.21 18.91 18.85 15.05 C 18.93 15.73 19.08 17.08 19.16 17.76 C 26.21 15.10 22.16 20.83 24.64 23.22 C 24.82 21.81 25.01 20.40 25.21 18.98 C 26.61 18.90 28.07 19.09 28.23 20.77 C 28.75 22.33 31.47 21.86 31.06 24.06 C 29.37 23.86 27.73 23.40 26.07 23.04 C 26.54 24.30 29.12 26.10 26.71 26.70 C 24.59 27.71 24.16 23.74 21.94 23.89 C 21.69 25.67 22.94 26.89 23.92 28.18 C 21.96 28.60 19.98 28.53 18.03 28.15 C 18.45 31.92 22.02 31.21 24.00 29.00 C 24.45 32.67 20.28 32.08 17.89 31.98 C 18.58 28.71 14.39 28.83 13.34 30.68 C 14.85 31.16 16.42 31.38 17.89 31.98 C 18.88 32.43 19.88 32.89 20.87 33.33 C 20.29 35.26 18.62 36.13 16.86 36.80 C 17.68 36.90 19.32 37.12 20.13 37.22 C 18.14 41.17 15.70 36.71 14.17 34.85 C 14.51 36.91 14.99 38.96 15.03 41.07 C 13.64 41.02 12.15 40.95 11.07 39.95 C 11.65 38.96 12.32 38.02 12.93 37.05 C 10.52 37.48 5.47 39.67 7.18 35.27 C 9.22 34.31 11.65 33.99 13.20 32.21 C 10.73 32.43 8.27 32.65 5.80 32.89 C 5.98 30.92 8.10 30.65 9.45 29.70 C 9.37 28.50 9.19 27.31 9.15 26.11 C 11.05 25.39 13.07 25.66 15.05 25.62 C 17.78 26.49 15.94 23.03 17.82 22.04 C 17.13 22.00 15.74 21.92 15.04 21.88 C 15.78 20.53 17.43 19.54 17.43 17.89 C 17.73 15.90 17.58 13.89 16.92 11.98 C 17.85 12.48 18.86 12.41 19.84 12.13 C 20.26 13.42 20.73 14.69 21.24 15.95 C 23.33 15.71 25.25 14.16 26.27 12.37 C 23.97 13.21 21.77 12.70 19.98 11.06 L 20.12 10.08 Z" />
<path fill="#537521" opacity="1.00" d=" M 14.19 11.14 C 14.65 11.25 15.56 11.48 16.02 11.59 C 14.08 13.51 15.47 16.10 16.46 18.08 C 15.42 18.35 14.33 18.21 13.27 18.26 C 13.57 20.52 13.91 22.76 14.30 25.01 C 12.01 20.58 7.82 27.99 5.78 23.00 C 6.02 22.64 6.50 21.91 6.74 21.55 C 8.19 21.92 12.24 23.13 11.91 20.54 C 10.35 20.52 8.78 20.72 7.23 20.40 C 9.31 17.13 12.08 14.39 14.19 11.14 Z" />
<path fill="#537521" opacity="1.00" d=" M 28.25 15.24 C 31.13 15.26 29.16 19.01 26.99 18.07 C 25.10 17.55 27.46 15.73 28.25 15.24 Z" />
<path fill="#537521" opacity="1.00" d=" M 30.24 18.10 C 32.23 17.00 33.03 20.85 31.04 21.05 C 29.32 21.18 28.38 18.76 30.24 18.10 Z" />
<path fill="#537521" opacity="1.00" d=" M 6.22 26.21 C 8.52 25.03 8.08 27.29 7.88 28.83 C 6.61 29.32 5.33 29.86 3.97 30.06 C 3.70 28.30 5.08 27.26 6.22 26.21 Z" />
<path fill="#537521" opacity="1.00" d=" M 2.96 34.01 C 6.05 33.21 4.80 37.31 5.80 39.11 C 3.26 39.26 3.07 35.89 2.96 34.01 Z" />
<path fill="#537521" opacity="1.00" d=" M 21.56 40.51 C 22.78 38.80 20.55 36.44 21.73 34.72 L 22.85 34.93 C 22.89 39.03 22.88 43.12 22.82 47.21 C 22.22 45.49 22.06 43.25 19.84 43.08 C 17.89 42.27 20.98 41.26 21.56 40.51 Z" />
<path fill="#537521" opacity="1.00" d=" M 59.98 35.14 L 60.97 35.02 C 62.04 41.49 58.62 49.59 63.14 54.94 C 63.08 56.26 62.99 57.59 62.86 58.91 C 60.18 58.99 54.82 59.15 52.15 59.23 C 52.21 57.70 51.83 56.03 52.59 54.61 C 53.54 51.48 57.35 51.73 59.84 50.65 C 60.02 45.48 60.07 40.31 59.98 35.14 Z" />
<path fill="#537521" opacity="1.00" d=" M 6.19 40.30 C 7.35 39.62 8.53 39.59 9.72 40.21 C 10.41 42.54 4.85 42.95 6.19 40.30 Z" />
<path fill="#537521" opacity="1.00" d=" M 17.32 40.36 C 20.66 38.78 17.41 43.19 15.98 43.79 C 20.80 44.39 15.41 47.85 12.97 47.03 C 12.45 43.92 14.82 41.67 17.32 40.36 Z" />
<path fill="#537521" opacity="1.00" d=" M 7.33 44.23 C 9.16 43.20 11.23 46.57 8.24 46.28 C 7.29 48.70 11.89 45.02 12.15 46.97 C 14.55 51.22 7.58 50.21 5.06 48.82 C 5.00 47.02 6.61 45.76 7.33 44.23 Z" />
<path fill="#537521" opacity="1.00" d=" M 18.27 47.32 C 19.93 46.60 18.63 50.05 18.96 51.00 C 17.20 51.01 14.37 51.52 14.04 49.11 C 15.29 48.19 16.83 47.85 18.27 47.32 Z" />
<path fill="#537521" opacity="1.00" d=" M 38.01 50.01 C 39.76 50.02 43.24 50.03 44.98 50.04 C 45.00 51.49 45.02 54.40 45.04 55.85 C 42.77 54.56 40.32 55.26 38.02 56.03 C 38.02 54.53 38.02 51.51 38.01 50.01 Z" />
<path fill="#537521" opacity="1.00" d=" M 19.19 52.78 C 20.45 53.20 21.69 53.67 22.95 54.10 C 23.00 56.06 23.01 58.02 23.02 59.98 C 21.68 59.99 20.35 59.99 19.02 59.99 C 19.06 58.19 19.15 54.58 19.19 52.78 Z" />
<path fill="#537521" opacity="1.00" d=" M 26.91 60.06 L 27.86 59.97 C 29.71 59.92 33.40 59.83 35.25 59.78 L 36.21 60.22 L 35.96 61.03 C 32.97 61.05 29.98 61.03 27.00 61.01 L 26.91 60.06 Z" />
</g>
<g id="#a2ac6cff">
<path fill="#a2ac6c" opacity="1.00" d=" M 19.98 11.06 C 21.77 12.70 23.97 13.21 26.27 12.37 C 25.25 14.16 23.33 15.71 21.24 15.95 C 20.73 14.69 20.26 13.42 19.84 12.13 L 19.98 11.06 Z" />
<path fill="#a2ac6c" opacity="1.00" d=" M 16.46 18.08 C 15.47 16.10 14.08 13.51 16.02 11.59 L 16.92 11.98 C 17.58 13.89 17.73 15.90 17.43 17.89 L 16.46 18.08 Z" />
<path fill="#a2ac6c" opacity="1.00" d=" M 18.03 28.15 C 19.98 28.53 21.96 28.60 23.92 28.18 L 24.00 29.00 C 22.02 31.21 18.45 31.92 18.03 28.15 Z" />
<path fill="#a2ac6c" opacity="1.00" d=" M 22.85 34.93 C 24.23 34.69 25.60 34.38 26.98 34.11 C 24.34 42.32 26.18 51.64 26.91 60.06 C 25.61 60.03 24.31 60.00 23.02 59.98 C 23.01 58.02 23.00 56.06 22.95 54.10 C 22.92 52.38 22.85 48.94 22.82 47.21 C 22.88 43.12 22.89 39.03 22.85 34.93 Z" />
<path fill="#a2ac6c" opacity="1.00" d=" M 55.95 34.19 C 57.28 34.58 58.62 34.89 59.98 35.14 C 60.07 40.31 60.02 45.48 59.84 50.65 C 57.35 51.73 53.54 51.48 52.59 54.61 C 51.83 56.03 52.21 57.70 52.15 59.23 C 51.09 59.62 50.03 59.97 48.95 60.29 L 48.10 60.01 C 48.97 57.90 48.63 55.14 50.83 53.80 C 52.47 51.43 56.52 51.23 56.94 47.94 C 57.29 43.36 57.12 38.65 55.95 34.19 Z" />
<path fill="#a2ac6c" opacity="1.00" d=" M 37.99 36.01 C 39.25 30.77 40.29 46.82 38.00 44.99 C 37.99 41.99 38.00 39.00 37.99 36.01 Z" />
<path fill="#a2ac6c" opacity="1.00" d=" M 36.04 48.09 L 37.04 48.02 C 36.60 52.03 37.59 56.34 36.21 60.22 C 36.03 56.18 35.97 52.13 36.04 48.09 Z" />
<path fill="#a2ac6c" opacity="1.00" d=" M 45.98 48.00 C 49.47 49.44 44.68 58.11 48.10 60.01 L 48.95 60.29 L 49.04 61.08 C 48.28 61.06 46.77 61.03 46.01 61.02 C 46.00 56.68 45.99 52.34 45.98 48.00 Z" />
<path fill="#a2ac6c" opacity="1.00" d=" M 27.86 59.97 C 29.48 57.52 33.09 58.30 35.25 59.78 C 33.40 59.83 29.71 59.92 27.86 59.97 Z" />
</g>
<g id="#27370af5">
<path fill="#27370a" opacity="0.96" d=" M 27.24 11.96 C 31.56 14.70 33.08 19.76 36.54 23.23 C 31.62 27.04 25.62 29.81 21.73 34.72 C 20.55 36.44 22.78 38.80 21.56 40.51 C 20.98 41.26 17.89 42.27 19.84 43.08 C 22.06 43.25 22.22 45.49 22.82 47.21 C 22.85 48.94 22.92 52.38 22.95 54.10 C 21.69 53.67 20.45 53.20 19.19 52.78 C 15.05 50.74 10.56 51.64 6.22 51.87 C 4.16 49.45 2.90 46.48 1.07 43.90 C 2.51 36.93 1.86 29.20 5.78 23.00 C 7.82 27.99 12.01 20.58 14.30 25.01 L 15.05 25.62 C 13.07 25.66 11.05 25.39 9.15 26.11 C 9.19 27.31 9.37 28.50 9.45 29.70 C 8.10 30.65 5.98 30.92 5.80 32.89 C 8.27 32.65 10.73 32.43 13.20 32.21 C 11.65 33.99 9.22 34.31 7.18 35.27 C 5.47 39.67 10.52 37.48 12.93 37.05 C 12.32 38.02 11.65 38.96 11.07 39.95 C 12.15 40.95 13.64 41.02 15.03 41.07 C 14.99 38.96 14.51 36.91 14.17 34.85 C 15.70 36.71 18.14 41.17 20.13 37.22 C 19.32 37.12 17.68 36.90 16.86 36.80 C 18.62 36.13 20.29 35.26 20.87 33.33 C 19.88 32.89 18.88 32.43 17.89 31.98 C 20.28 32.08 24.45 32.67 24.00 29.00 L 23.92 28.18 C 22.94 26.89 21.69 25.67 21.94 23.89 C 24.16 23.74 24.59 27.71 26.71 26.70 C 29.12 26.10 26.54 24.30 26.07 23.04 C 27.73 23.40 29.37 23.86 31.06 24.06 C 31.47 21.86 28.75 22.33 28.23 20.77 C 28.07 19.09 26.61 18.90 25.21 18.98 C 25.01 20.40 24.82 21.81 24.64 23.22 C 22.16 20.83 26.21 15.10 19.16 17.76 C 19.08 17.08 18.93 15.73 18.85 15.05 C 21.21 18.91 27.84 16.33 27.24 11.96 M 28.25 15.24 C 27.46 15.73 25.10 17.55 26.99 18.07 C 29.16 19.01 31.13 15.26 28.25 15.24 M 30.24 18.10 C 28.38 18.76 29.32 21.18 31.04 21.05 C 33.03 20.85 32.23 17.00 30.24 18.10 M 6.22 26.21 C 5.08 27.26 3.70 28.30 3.97 30.06 C 5.33 29.86 6.61 29.32 7.88 28.83 C 8.08 27.29 8.52 25.03 6.22 26.21 M 2.96 34.01 C 3.07 35.89 3.26 39.26 5.80 39.11 C 4.80 37.31 6.05 33.21 2.96 34.01 M 6.19 40.30 C 4.85 42.95 10.41 42.54 9.72 40.21 C 8.53 39.59 7.35 39.62 6.19 40.30 M 17.32 40.36 C 14.82 41.67 12.45 43.92 12.97 47.03 C 15.41 47.85 20.80 44.39 15.98 43.79 C 17.41 43.19 20.66 38.78 17.32 40.36 M 7.33 44.23 C 6.61 45.76 5.00 47.02 5.06 48.82 C 7.58 50.21 14.55 51.22 12.15 46.97 C 11.89 45.02 7.29 48.70 8.24 46.28 C 11.23 46.57 9.16 43.20 7.33 44.23 M 18.27 47.32 C 16.83 47.85 15.29 48.19 14.04 49.11 C 14.37 51.52 17.20 51.01 18.96 51.00 C 18.63 50.05 19.93 46.60 18.27 47.32 Z" />
<path fill="#27370a" opacity="0.96" d=" M 13.27 18.26 C 14.33 18.21 15.42 18.35 16.46 18.08 L 17.43 17.89 C 17.43 19.54 15.78 20.53 15.04 21.88 C 15.74 21.92 17.13 22.00 17.82 22.04 C 15.94 23.03 17.78 26.49 15.05 25.62 L 14.30 25.01 C 13.91 22.76 13.57 20.52 13.27 18.26 Z" />
<path fill="#27370a" opacity="0.96" d=" M 7.23 20.40 C 8.78 20.72 10.35 20.52 11.91 20.54 C 12.24 23.13 8.19 21.92 6.74 21.55 C 6.86 21.26 7.11 20.69 7.23 20.40 Z" />
<path fill="#27370a" opacity="0.96" d=" M 13.34 30.68 C 14.39 28.83 18.58 28.71 17.89 31.98 C 16.42 31.38 14.85 31.16 13.34 30.68 Z" />
<path fill="#27370a" opacity="0.96" d=" M 37.04 48.02 C 40.02 47.88 43.00 47.90 45.98 48.00 C 45.99 52.34 46.00 56.68 46.01 61.02 C 42.66 61.01 39.31 61.03 35.96 61.03 L 36.21 60.22 C 37.59 56.34 36.60 52.03 37.04 48.02 M 38.01 50.01 C 38.02 51.51 38.02 54.53 38.02 56.03 C 40.32 55.26 42.77 54.56 45.04 55.85 C 45.02 54.40 45.00 51.49 44.98 50.04 C 43.24 50.03 39.76 50.02 38.01 50.01 Z" />
<path fill="#27370a" opacity="0.96" d=" M 63.14 54.94 L 64.00 55.26 L 64.00 59.96 C 59.22 61.71 54.01 60.84 49.04 61.08 L 48.95 60.29 C 50.03 59.97 51.09 59.62 52.15 59.23 C 54.82 59.15 60.18 58.99 62.86 58.91 C 62.99 57.59 63.08 56.26 63.14 54.94 Z" />
<path fill="#27370a" opacity="0.96" d=" M 19.02 59.99 C 20.35 59.99 21.68 59.99 23.02 59.98 C 24.31 60.00 25.61 60.03 26.91 60.06 L 27.00 61.01 C 24.83 60.23 18.66 63.39 19.02 59.99 Z" />
</g>
<g id="#c71d08ff">
<path fill="#c71d08" opacity="1.00" d=" M 36.54 23.23 C 39.05 23.04 39.96 18.85 42.66 20.32 C 46.95 23.78 51.55 26.77 55.92 30.09 C 57.69 31.61 61.38 32.10 60.97 35.02 L 59.98 35.14 C 58.62 34.89 57.28 34.58 55.95 34.19 C 51.02 31.27 46.67 27.49 41.89 24.35 C 38.03 26.97 33.86 29.22 30.44 32.43 C 29.64 33.58 28.25 33.82 26.98 34.11 C 25.60 34.38 24.23 34.69 22.85 34.93 L 21.73 34.72 C 25.62 29.81 31.62 27.04 36.54 23.23 Z" />
</g>
<g id="#dfe0c4ff">
<path fill="#dfe0c4" opacity="1.00" d=" M 30.44 32.43 C 33.86 29.22 38.03 26.97 41.89 24.35 C 46.67 27.49 51.02 31.27 55.95 34.19 C 57.12 38.65 57.29 43.36 56.94 47.94 C 56.52 51.23 52.47 51.43 50.83 53.80 C 48.63 55.14 48.97 57.90 48.10 60.01 C 44.68 58.11 49.47 49.44 45.98 48.00 C 43.00 47.90 40.02 47.88 37.04 48.02 L 36.04 48.09 C 35.97 52.13 36.03 56.18 36.21 60.22 L 35.25 59.78 C 33.09 58.30 29.48 57.52 27.86 59.97 L 26.91 60.06 C 26.18 51.64 24.34 42.32 26.98 34.11 C 28.25 33.82 29.64 33.58 30.44 32.43 M 37.99 36.01 C 36.51 36.01 33.54 36.01 32.06 36.01 C 31.86 39.00 32.02 42.00 32.03 45.00 C 33.52 45.00 36.51 44.99 38.00 44.99 C 40.29 46.82 39.25 30.77 37.99 36.01 M 45.06 36.01 C 45.25 40.48 42.56 48.57 50.94 44.99 C 50.75 40.52 53.44 32.43 45.06 36.01 Z" />
</g>
<g id="#047cc8ff">
<path fill="#047cc8" opacity="1.00" d=" M 32.06 36.01 C 33.54 36.01 36.51 36.01 37.99 36.01 C 38.00 39.00 37.99 41.99 38.00 44.99 C 36.51 44.99 33.52 45.00 32.03 45.00 C 32.02 42.00 31.86 39.00 32.06 36.01 Z" />
<path fill="#047cc8" opacity="1.00" d=" M 45.06 36.01 C 53.44 32.43 50.75 40.52 50.94 44.99 C 42.56 48.57 45.25 40.48 45.06 36.01 Z" />
</g>
</svg>
