<?xml version="1.0" encoding="UTF-8" ?>
<!DOCTYPE svg PUBLIC "-//W3C//DTD SVG 1.1//EN" "http://www.w3.org/Graphics/SVG/1.1/DTD/svg11.dtd">
<svg width="64pt" height="64pt" viewBox="0 0 64 64" version="1.1" xmlns="http://www.w3.org/2000/svg">
<g id="#00000027">
<path fill="#000000" opacity="0.15" d=" M 2.20 4.29 C 3.09 3.52 3.69 1.97 5.07 2.08 C 23.28 1.99 41.51 1.80 59.71 2.19 C 60.49 3.08 61.96 3.71 61.94 5.06 C 62.09 22.03 62.03 39.02 61.95 56.00 C 62.84 59.05 61.25 61.53 59.98 64.00 L 4.03 64.00 C 3.27 62.39 2.05 60.86 2.02 59.02 C 2.06 40.78 1.75 22.53 2.20 4.29 M 5.00 3.02 L 5.01 4.00 C 4.75 4.25 4.25 4.75 4.00 5.01 L 3.02 5.00 C 2.97 23.32 3.00 41.65 3.00 59.97 L 3.94 60.11 C 3.97 60.57 4.01 61.50 4.03 61.96 L 5.00 62.00 L 5.02 62.95 C 23.01 63.09 41.01 62.98 59.00 62.98 L 58.99 62.00 C 59.26 61.52 59.79 60.55 60.06 60.07 L 61.00 59.99 C 60.99 41.66 61.04 23.33 60.98 5.00 L 60.01 5.01 C 59.75 4.76 59.25 4.25 59.00 4.00 L 58.98 3.05 C 40.99 2.91 22.99 3.02 5.00 3.02 Z" />
</g>
<g id="#0000005d">
<path fill="#000000" opacity="0.36" d=" M 5.00 3.02 C 22.99 3.02 40.99 2.91 58.98 3.05 L 59.00 4.00 C 41.00 4.00 23.00 4.01 5.01 4.00 L 5.00 3.02 Z" />
</g>
<g id="#fdfdfdff">
<path fill="#fdfdfd" opacity="1.00" d=" M 4.00 5.01 C 4.25 4.75 4.75 4.25 5.01 4.00 C 23.00 4.01 41.00 4.00 59.00 4.00 C 59.25 4.25 59.75 4.76 60.01 5.01 C 59.99 12.68 60.03 20.34 59.99 28.01 C 59.24 28.00 57.76 27.97 57.01 27.96 L 56.99 26.92 C 57.00 23.94 57.02 20.97 57.00 18.00 C 56.99 15.26 56.96 9.79 56.95 7.06 C 50.21 6.93 43.48 6.91 36.75 7.10 C 35.09 7.05 33.44 7.04 31.79 7.04 C 30.24 7.01 28.69 7.02 27.14 7.05 C 20.44 7.11 13.73 6.72 7.04 7.09 C 7.04 9.81 7.02 15.25 7.01 17.96 C 7.00 20.95 6.99 23.94 7.01 26.93 L 6.99 27.96 C 6.24 27.97 4.76 28.00 4.01 28.01 C 3.97 20.34 4.01 12.67 4.00 5.01 Z" />
</g>
<g id="#00000076">
<path fill="#000000" opacity="0.46" d=" M 3.02 5.00 L 4.00 5.01 C 4.01 12.67 3.97 20.34 4.01 28.01 C 3.97 38.71 4.04 49.41 3.94 60.11 L 3.00 59.97 C 3.00 41.65 2.97 23.32 3.02 5.00 Z" />
<path fill="#000000" opacity="0.46" d=" M 60.01 5.01 L 60.98 5.00 C 61.04 23.33 60.99 41.66 61.00 59.99 L 60.06 60.07 C 59.96 49.38 60.03 38.70 59.99 28.01 C 60.03 20.34 59.99 12.68 60.01 5.01 Z" />
</g>
<g id="#2f5e8fff">
<path fill="#2f5e8f" opacity="1.00" d=" M 7.04 7.09 C 13.73 6.72 20.44 7.11 27.14 7.05 C 26.97 7.52 26.62 8.46 26.44 8.93 C 20.80 7.69 14.94 7.69 9.22 8.12 C 6.64 9.95 8.50 13.55 8.17 16.23 C 8.13 16.71 8.06 17.67 8.03 18.14 L 7.01 17.96 C 7.02 15.25 7.04 9.81 7.04 7.09 Z" />
<path fill="#2f5e8f" opacity="1.00" d=" M 36.75 7.10 C 43.48 6.91 50.21 6.93 56.95 7.06 C 56.96 9.79 56.99 15.26 57.00 18.00 L 56.03 18.01 C 56.01 17.56 55.98 16.64 55.97 16.18 C 55.68 13.47 57.26 9.89 54.73 8.14 C 49.14 8.40 43.10 6.82 37.71 8.76 C 37.47 8.35 36.99 7.51 36.75 7.10 Z" />
</g>
<g id="#ea250aff">
<path fill="#ea250a" opacity="1.00" d=" M 27.14 7.05 C 28.69 7.02 30.24 7.01 31.79 7.04 L 32.27 7.69 C 33.57 9.61 35.88 11.74 34.10 14.12 C 31.23 13.63 27.47 15.16 25.26 12.90 C 25.53 11.86 25.82 10.83 26.14 9.81 L 26.44 8.93 C 26.62 8.46 26.97 7.52 27.14 7.05 Z" />
</g>
<g id="#a61503ff">
<path fill="#a61503" opacity="1.00" d=" M 31.79 7.04 C 33.44 7.04 35.09 7.05 36.75 7.10 C 36.99 7.51 37.47 8.35 37.71 8.76 C 37.92 9.08 38.34 9.70 38.55 10.01 L 39.13 10.87 C 39.24 12.66 37.77 13.49 36.46 14.32 C 36.77 11.36 35.97 7.62 32.27 7.69 L 31.79 7.04 Z" />
</g>
<g id="#5484b7ff">
<path fill="#5484b7" opacity="1.00" d=" M 9.22 8.12 C 14.94 7.69 20.80 7.69 26.44 8.93 L 26.14 9.81 L 25.26 9.72 C 20.31 8.52 15.26 9.33 10.36 10.26 C 9.65 12.26 8.98 14.27 8.17 16.23 C 8.50 13.55 6.64 9.95 9.22 8.12 Z" />
</g>
<g id="#d01d03ff">
<path fill="#d01d03" opacity="1.00" d=" M 32.27 7.69 C 35.97 7.62 36.77 11.36 36.46 14.32 C 35.87 14.27 34.69 14.17 34.10 14.12 C 35.88 11.74 33.57 9.61 32.27 7.69 Z" />
</g>
<g id="#5382b4ff">
<path fill="#5382b4" opacity="1.00" d=" M 37.71 8.76 C 43.10 6.82 49.14 8.40 54.73 8.14 C 57.26 9.89 55.68 13.47 55.97 16.18 L 55.18 15.78 C 54.83 13.75 55.73 10.52 52.94 10.02 C 48.38 9.07 42.78 7.54 38.55 10.01 C 38.34 9.70 37.92 9.08 37.71 8.76 Z" />
</g>
<g id="#6599c7ff">
<path fill="#6599c7" opacity="1.00" d=" M 10.36 10.26 C 15.26 9.33 20.31 8.52 25.26 9.72 C 24.39 11.01 23.51 12.32 22.87 13.75 C 20.77 10.55 17.34 13.88 14.62 14.50 C 11.96 15.33 9.39 16.54 8.05 19.12 L 8.03 18.14 C 8.06 17.67 8.13 16.71 8.17 16.23 C 8.98 14.27 9.65 12.26 10.36 10.26 Z" />
</g>
<g id="#6196c7ff">
<path fill="#6196c7" opacity="1.00" d=" M 38.55 10.01 C 42.78 7.54 48.38 9.07 52.94 10.02 C 55.73 10.52 54.83 13.75 55.18 15.78 C 50.60 14.18 45.48 9.32 40.72 11.94 C 40.32 11.67 39.53 11.14 39.13 10.87 L 38.55 10.01 Z" />
</g>
<g id="#911002ff">
<path fill="#911002" opacity="1.00" d=" M 25.26 9.72 L 26.14 9.81 C 25.82 10.83 25.53 11.86 25.26 12.90 C 27.47 15.16 31.23 13.63 34.10 14.12 C 34.69 14.17 35.87 14.27 36.46 14.32 L 35.85 14.98 C 31.93 15.03 28.02 15.02 24.11 14.97 C 23.80 14.67 23.18 14.05 22.87 13.75 C 23.51 12.32 24.39 11.01 25.26 9.72 Z" />
</g>
<g id="#700a02ff">
<path fill="#700a02" opacity="1.00" d=" M 39.13 10.87 C 39.53 11.14 40.32 11.67 40.72 11.94 C 40.78 12.42 40.89 13.37 40.94 13.84 C 40.67 14.13 40.13 14.71 39.86 14.99 C 38.52 15.00 37.18 15.00 35.85 14.98 L 36.46 14.32 C 37.77 13.49 39.24 12.66 39.13 10.87 Z" />
</g>
<g id="#729fc4ff">
<path fill="#729fc4" opacity="1.00" d=" M 40.72 11.94 C 45.48 9.32 50.60 14.18 55.18 15.78 L 55.97 16.18 C 55.98 16.64 56.01 17.56 56.03 18.01 C 56.00 19.78 55.94 21.55 55.89 23.33 L 55.27 22.79 C 55.85 17.90 50.71 16.24 47.26 14.24 L 46.72 14.76 C 46.38 15.09 45.70 15.74 45.36 16.07 C 44.18 14.29 42.82 10.70 40.94 13.84 C 40.89 13.37 40.78 12.42 40.72 11.94 Z" />
</g>
<g id="#7fa9caff">
<path fill="#7fa9ca" opacity="1.00" d=" M 14.62 14.50 C 17.34 13.88 20.77 10.55 22.87 13.75 C 23.18 14.05 23.80 14.67 24.11 14.97 L 24.12 15.93 L 24.07 16.86 C 22.27 15.85 19.85 16.89 19.67 19.04 C 19.46 18.71 19.03 18.04 18.82 17.71 C 18.84 16.57 18.23 15.68 17.37 14.99 C 16.74 16.31 16.13 17.64 15.48 18.95 C 11.09 17.47 8.77 22.68 8.15 26.29 C 8.12 24.50 8.07 20.92 8.05 19.12 C 9.39 16.54 11.96 15.33 14.62 14.50 Z" />
</g>
<g id="#81b1d2ff">
<path fill="#81b1d2" opacity="1.00" d=" M 40.94 13.84 C 42.82 10.70 44.18 14.29 45.36 16.07 C 45.12 16.55 44.64 17.52 44.40 18.00 C 42.95 17.57 41.47 17.26 40.00 16.91 L 39.91 15.94 L 39.86 14.99 C 40.13 14.71 40.67 14.13 40.94 13.84 Z" />
</g>
<g id="#80afd2ff">
<path fill="#80afd2" opacity="1.00" d=" M 47.26 14.24 C 50.71 16.24 55.85 17.90 55.27 22.79 C 53.74 20.67 51.85 18.67 48.96 18.82 L 47.99 18.64 C 47.58 17.34 47.12 16.06 46.72 14.76 L 47.26 14.24 Z" />
</g>
<g id="#f6311aff">
<path fill="#f6311a" opacity="1.00" d=" M 17.37 14.99 C 18.23 15.68 18.84 16.57 18.82 17.71 C 18.41 21.43 18.08 25.16 17.83 28.89 C 16.40 28.93 13.54 29.02 12.11 29.06 C 12.40 27.33 12.73 25.61 12.98 23.87 C 13.86 22.25 14.71 20.62 15.48 18.95 C 16.13 17.64 16.74 16.31 17.37 14.99 Z" />
</g>
<g id="#835348ff">
<path fill="#835348" opacity="1.00" d=" M 24.11 14.97 C 28.02 15.02 31.93 15.03 35.85 14.98 C 37.18 15.00 38.52 15.00 39.86 14.99 L 39.91 15.94 C 39.43 15.95 38.48 15.97 38.00 15.98 C 37.53 15.98 36.60 15.97 36.13 15.97 C 35.64 15.96 34.65 15.96 34.15 15.95 C 32.10 15.94 30.04 15.97 27.98 16.02 L 27.00 16.02 L 26.01 16.01 C 25.53 15.99 24.59 15.95 24.12 15.93 L 24.11 14.97 Z" />
</g>
<g id="#f63825ff">
<path fill="#f63825" opacity="1.00" d=" M 45.36 16.07 C 45.70 15.74 46.38 15.09 46.72 14.76 C 47.12 16.06 47.58 17.34 47.99 18.64 C 44.02 20.89 47.19 28.78 41.98 29.06 C 42.42 26.29 44.41 23.64 43.39 20.79 C 43.72 19.86 44.05 18.93 44.40 18.00 C 44.64 17.52 45.12 16.55 45.36 16.07 Z" />
</g>
<g id="#9ec4dbff">
<path fill="#9ec4db" opacity="1.00" d=" M 19.67 19.04 C 19.85 16.89 22.27 15.85 24.07 16.86 C 24.48 19.47 24.15 21.88 23.09 24.10 C 21.94 22.42 20.77 20.75 19.67 19.04 Z" />
</g>
<g id="#987b6dff">
<path fill="#987b6d" opacity="1.00" d=" M 24.12 15.93 C 24.59 15.95 25.53 15.99 26.01 16.01 C 26.00 19.69 25.97 23.37 26.01 27.05 L 25.27 27.01 C 24.52 26.05 23.79 25.08 23.09 24.10 C 24.15 21.88 24.48 19.47 24.07 16.86 L 24.12 15.93 Z" />
</g>
<g id="#bba08fff">
<path fill="#bba08f" opacity="1.00" d=" M 26.01 16.01 L 27.00 16.02 C 26.97 20.08 26.94 24.14 26.91 28.20 C 26.69 27.91 26.24 27.34 26.01 27.05 C 25.97 23.37 26.00 19.69 26.01 16.01 Z" />
</g>
<g id="#ccb9adff">
<path fill="#ccb9ad" opacity="1.00" d=" M 27.00 16.02 L 27.98 16.02 C 28.00 22.60 27.58 29.28 29.32 35.71 C 29.92 36.96 30.43 38.62 31.89 39.08 C 33.52 36.03 32.90 32.34 33.91 29.07 L 34.11 28.11 L 35.05 27.92 C 35.12 29.36 35.20 30.80 35.28 32.23 C 36.36 36.33 34.01 40.35 29.80 40.44 L 29.06 39.95 C 28.74 39.49 28.09 38.56 27.77 38.10 C 29.23 35.05 28.99 32.63 27.05 30.84 L 26.99 29.90 C 26.97 29.48 26.93 28.62 26.91 28.20 C 26.94 24.14 26.97 20.08 27.00 16.02 Z" />
</g>
<g id="#e0d3cbff">
<path fill="#e0d3cb" opacity="1.00" d=" M 27.98 16.02 C 30.04 15.97 32.10 15.94 34.15 15.95 C 34.96 19.89 34.98 23.93 35.05 27.92 L 34.11 28.11 C 34.56 25.48 34.28 23.02 33.27 20.73 C 32.42 19.57 31.59 19.57 30.76 20.76 C 30.48 22.52 28.68 28.29 31.02 28.96 C 31.50 28.98 32.48 29.02 32.96 29.03 L 33.91 29.07 C 32.90 32.34 33.52 36.03 31.89 39.08 C 30.43 38.62 29.92 36.96 29.32 35.71 C 27.58 29.28 28.00 22.60 27.98 16.02 Z" />
</g>
<g id="#c2a998ff">
<path fill="#c2a998" opacity="1.00" d=" M 34.15 15.95 C 34.65 15.96 35.64 15.96 36.13 15.97 C 37.32 21.37 35.78 26.86 35.28 32.23 C 35.20 30.80 35.12 29.36 35.05 27.92 C 34.98 23.93 34.96 19.89 34.15 15.95 Z" />
</g>
<g id="#a88c7cff">
<path fill="#a88c7c" opacity="1.00" d=" M 36.13 15.97 C 36.60 15.97 37.53 15.98 38.00 15.98 C 37.99 19.69 38.11 23.41 37.83 27.12 L 37.63 27.88 C 37.50 28.44 37.23 29.56 37.10 30.12 C 36.83 33.41 36.48 36.72 35.17 39.78 C 33.47 41.36 31.53 42.80 29.80 40.44 C 34.01 40.35 36.36 36.33 35.28 32.23 C 35.78 26.86 37.32 21.37 36.13 15.97 Z" />
</g>
<g id="#886c61ff">
<path fill="#886c61" opacity="1.00" d=" M 38.00 15.98 C 38.48 15.97 39.43 15.95 39.91 15.94 L 40.00 16.91 C 40.12 19.38 40.33 21.84 40.62 24.30 L 40.67 25.07 C 39.72 25.75 38.77 26.43 37.83 27.12 C 38.11 23.41 37.99 19.69 38.00 15.98 Z" />
</g>
<g id="#9fc5dbff">
<path fill="#9fc5db" opacity="1.00" d=" M 40.00 16.91 C 41.47 17.26 42.95 17.57 44.40 18.00 C 44.05 18.93 43.72 19.86 43.39 20.79 C 42.47 21.97 41.51 23.11 40.62 24.30 C 40.33 21.84 40.12 19.38 40.00 16.91 Z" />
</g>
<g id="#5d839cff">
<path fill="#5d839c" opacity="1.00" d=" M 7.01 17.96 L 8.03 18.14 L 8.05 19.12 C 8.07 20.92 8.12 24.50 8.15 26.29 L 7.89 27.21 L 7.01 26.93 C 6.99 23.94 7.00 20.95 7.01 17.96 Z" />
<path fill="#5d839c" opacity="1.00" d=" M 56.03 18.01 L 57.00 18.00 C 57.02 20.97 57.00 23.94 56.99 26.92 L 56.06 27.21 C 56.02 25.92 55.97 24.62 55.89 23.33 C 55.94 21.55 56.00 19.78 56.03 18.01 Z" />
</g>
<g id="#96bad3ff">
<path fill="#96bad3" opacity="1.00" d=" M 8.15 26.29 C 8.77 22.68 11.09 17.47 15.48 18.95 C 14.71 20.62 13.86 22.25 12.98 23.87 C 11.52 25.10 10.14 26.42 8.84 27.81 L 8.16 27.96 L 7.89 27.21 L 8.15 26.29 Z" />
</g>
<g id="#e32509ff">
<path fill="#e32509" opacity="1.00" d=" M 17.83 28.89 C 18.08 25.16 18.41 21.43 18.82 17.71 C 19.03 18.04 19.46 18.71 19.67 19.04 C 20.77 20.75 21.94 22.42 23.09 24.10 C 20.23 24.94 22.47 28.10 21.13 30.08 C 18.07 30.13 15.01 30.17 11.96 29.94 L 12.11 29.06 C 13.54 29.02 16.40 28.93 17.83 28.89 Z" />
</g>
<g id="#ee270aff">
<path fill="#ee270a" opacity="1.00" d=" M 41.98 29.06 C 47.19 28.78 44.02 20.89 47.99 18.64 L 48.96 18.82 C 48.99 19.32 49.05 20.30 49.08 20.79 C 48.20 23.89 50.04 28.10 46.92 30.05 C 44.36 30.39 41.92 30.11 39.61 29.23 C 40.16 27.91 41.02 26.57 40.67 25.07 L 40.62 24.30 C 41.51 23.11 42.47 21.97 43.39 20.79 C 44.41 23.64 42.42 26.29 41.98 29.06 Z" />
</g>
<g id="#95b9d1ff">
<path fill="#95b9d1" opacity="1.00" d=" M 48.96 18.82 C 51.85 18.67 53.74 20.67 55.27 22.79 L 55.89 23.33 C 55.97 24.62 56.02 25.92 56.06 27.21 L 55.79 28.08 C 54.83 27.26 53.87 26.44 52.92 25.62 C 52.29 25.01 51.66 24.40 51.02 23.80 C 50.38 22.80 49.74 21.79 49.08 20.79 C 49.05 20.30 48.99 19.32 48.96 18.82 Z" />
</g>
<g id="#050505ff">
<path fill="#050505" opacity="1.00" d=" M 30.76 20.76 C 31.59 19.57 32.42 19.57 33.27 20.73 C 33.16 23.50 33.06 26.27 32.96 29.03 C 32.48 29.02 31.50 28.98 31.02 28.96 C 30.94 26.23 30.86 23.49 30.76 20.76 Z" />
</g>
<g id="#68635fff">
<path fill="#68635f" opacity="1.00" d=" M 31.02 28.96 C 28.68 28.29 30.48 22.52 30.76 20.76 C 30.86 23.49 30.94 26.23 31.02 28.96 Z" />
</g>
<g id="#615955ff">
<path fill="#615955" opacity="1.00" d=" M 33.27 20.73 C 34.28 23.02 34.56 25.48 34.11 28.11 L 33.91 29.07 L 32.96 29.03 C 33.06 26.27 33.16 23.50 33.27 20.73 Z" />
</g>
<g id="#d32007ff">
<path fill="#d32007" opacity="1.00" d=" M 49.08 20.79 C 49.74 21.79 50.38 22.80 51.02 23.80 C 50.69 25.87 50.73 28.00 50.14 30.03 C 49.34 30.04 47.72 30.05 46.92 30.05 C 50.04 28.10 48.20 23.89 49.08 20.79 Z" />
</g>
<g id="#b22918ff">
<path fill="#b22918" opacity="1.00" d=" M 8.84 27.81 C 10.14 26.42 11.52 25.10 12.98 23.87 C 12.73 25.61 12.40 27.33 12.11 29.06 L 11.96 29.94 C 10.87 29.31 9.88 28.53 8.84 27.81 Z" />
</g>
<g id="#ac1502ff">
<path fill="#ac1502" opacity="1.00" d=" M 21.13 30.08 C 22.47 28.10 20.23 24.94 23.09 24.10 C 23.79 25.08 24.52 26.05 25.27 27.01 C 24.79 29.13 23.43 30.60 21.13 30.08 Z" />
</g>
<g id="#aa1e0dff">
<path fill="#aa1e0d" opacity="1.00" d=" M 51.02 23.80 C 51.66 24.40 52.29 25.01 52.92 25.62 C 52.42 27.31 52.87 30.63 50.14 30.03 C 50.73 28.00 50.69 25.87 51.02 23.80 Z" />
</g>
<g id="#b31703ff">
<path fill="#b31703" opacity="1.00" d=" M 37.83 27.12 C 38.77 26.43 39.72 25.75 40.67 25.07 C 41.02 26.57 40.16 27.91 39.61 29.23 C 39.12 28.89 38.13 28.22 37.63 27.88 L 37.83 27.12 Z" />
</g>
<g id="#7d140aff">
<path fill="#7d140a" opacity="1.00" d=" M 50.14 30.03 C 52.87 30.63 52.42 27.31 52.92 25.62 C 53.87 26.44 54.83 27.26 55.79 28.08 C 55.67 28.47 55.43 29.26 55.31 29.65 C 54.97 29.97 54.28 30.62 53.94 30.94 C 52.29 30.97 50.63 30.98 48.98 31.00 C 46.29 31.01 43.60 31.03 40.91 31.05 C 39.62 30.82 38.35 30.51 37.10 30.12 C 37.23 29.56 37.50 28.44 37.63 27.88 C 38.13 28.22 39.12 28.89 39.61 29.23 C 41.92 30.11 44.36 30.39 46.92 30.05 C 47.72 30.05 49.34 30.04 50.14 30.03 Z" />
</g>
<g id="#869ba2ff">
<path fill="#869ba2" opacity="1.00" d=" M 7.01 26.93 L 7.89 27.21 L 8.16 27.96 C 8.31 28.39 8.61 29.24 8.76 29.66 C 8.26 33.05 7.93 36.46 7.95 39.89 L 7.02 39.98 C 6.99 35.97 6.99 31.96 6.99 27.96 L 7.01 26.93 Z" />
<path fill="#869ba2" opacity="1.00" d=" M 56.06 27.21 L 56.99 26.92 L 57.01 27.96 C 57.01 31.96 57.00 35.97 56.98 39.98 L 56.03 39.89 C 55.97 36.47 56.42 32.95 55.31 29.65 C 55.43 29.26 55.67 28.47 55.79 28.08 L 56.06 27.21 Z" />
</g>
<g id="#7c1107ff">
<path fill="#7c1107" opacity="1.00" d=" M 25.27 27.01 L 26.01 27.05 C 26.24 27.34 26.69 27.91 26.91 28.20 C 26.93 28.62 26.97 29.48 26.99 29.90 C 26.69 30.18 26.10 30.73 25.81 31.00 C 24.20 31.00 22.60 30.98 20.99 30.99 C 18.34 30.97 15.69 30.96 13.04 30.97 C 12.30 30.96 10.81 30.95 10.07 30.94 C 9.75 30.62 9.09 29.98 8.76 29.66 C 8.61 29.24 8.31 28.39 8.16 27.96 L 8.84 27.81 C 9.88 28.53 10.87 29.31 11.96 29.94 C 15.01 30.17 18.07 30.13 21.13 30.08 C 23.43 30.60 24.79 29.13 25.27 27.01 Z" />
</g>
<g id="#edededff">
<path fill="#ededed" opacity="1.00" d=" M 4.01 28.01 C 4.76 28.00 6.24 27.97 6.99 27.96 C 6.99 31.96 6.99 35.97 7.02 39.98 C 7.01 42.59 7.03 45.20 7.09 47.81 C 7.07 49.61 7.01 53.22 6.98 55.02 C 6.02 59.11 11.62 56.50 14.14 56.98 C 16.07 57.02 17.99 57.04 19.92 57.02 C 26.96 57.01 33.99 57.01 41.02 57.01 C 41.54 57.02 42.59 57.02 43.12 57.02 C 45.02 57.04 46.92 56.99 48.81 56.92 C 51.25 56.07 57.52 59.05 57.02 55.02 C 56.99 53.22 56.91 49.60 56.88 47.80 C 56.95 45.19 56.98 42.58 56.98 39.98 C 57.00 35.97 57.01 31.96 57.01 27.96 C 57.76 27.97 59.24 28.00 59.99 28.01 C 60.03 38.70 59.96 49.38 60.06 60.07 L 59.23 60.31 C 41.10 59.80 22.94 59.87 4.81 60.21 L 3.94 60.11 C 4.04 49.41 3.97 38.71 4.01 28.01 Z" />
</g>
<g id="#afc0c4ff">
<path fill="#afc0c4" opacity="1.00" d=" M 7.95 39.89 C 7.93 36.46 8.26 33.05 8.76 29.66 C 9.09 29.98 9.75 30.62 10.07 30.94 C 10.05 34.32 10.04 37.71 10.01 41.10 C 9.49 40.79 8.46 40.19 7.95 39.89 Z" />
</g>
<g id="#a38675ff">
<path fill="#a38675" opacity="1.00" d=" M 25.81 31.00 C 26.10 30.73 26.69 30.18 26.99 29.90 L 27.05 30.84 C 25.94 33.67 26.18 36.09 27.77 38.10 C 28.09 38.56 28.74 39.49 29.06 39.95 C 28.52 39.98 27.43 40.03 26.89 40.06 C 26.39 37.06 26.07 34.03 25.81 31.00 Z" />
</g>
<g id="#806556ff">
<path fill="#806556" opacity="1.00" d=" M 37.10 30.12 C 38.35 30.51 39.62 30.82 40.91 31.05 L 40.99 31.87 L 40.05 32.09 L 39.10 32.32 C 39.25 34.80 39.57 39.76 39.73 42.23 C 41.02 46.63 39.05 52.72 42.72 56.25 L 43.12 57.02 C 42.59 57.02 41.54 57.02 41.02 57.01 C 40.01 54.60 39.18 52.12 38.22 49.69 L 37.94 48.74 L 37.92 47.93 C 37.86 45.22 38.67 40.64 35.17 39.78 C 36.48 36.72 36.83 33.41 37.10 30.12 Z" />
</g>
<g id="#aebfc4ff">
<path fill="#aebfc4" opacity="1.00" d=" M 53.94 30.94 C 54.28 30.62 54.97 29.97 55.31 29.65 C 56.42 32.95 55.97 36.47 56.03 39.89 C 55.53 40.19 54.53 40.80 54.03 41.11 C 53.98 37.71 53.98 34.33 53.94 30.94 Z" />
</g>
<g id="#826659ff">
<path fill="#826659" opacity="1.00" d=" M 10.07 30.94 C 10.81 30.95 12.30 30.96 13.04 30.97 L 12.92 31.83 L 12.03 32.10 L 11.12 32.36 C 11.26 36.63 10.03 41.23 11.81 45.29 C 11.97 48.30 11.82 51.36 12.59 54.30 C 12.68 54.74 12.86 55.61 12.95 56.04 C 9.79 54.57 11.40 50.67 10.88 47.83 C 9.18 49.97 9.56 53.26 8.84 55.87 C 8.37 55.65 7.44 55.23 6.98 55.02 C 7.01 53.22 7.07 49.61 7.09 47.81 C 7.66 48.95 8.19 50.12 8.80 51.25 C 9.32 47.89 10.09 44.52 10.01 41.10 C 10.04 37.71 10.05 34.32 10.07 30.94 Z" />
</g>
<g id="#9f7a6eff">
<path fill="#9f7a6e" opacity="1.00" d=" M 13.04 30.97 C 15.69 30.96 18.34 30.97 20.99 30.99 L 21.04 31.92 C 20.55 31.94 19.57 31.96 19.08 31.97 C 17.37 31.98 15.65 31.98 13.94 31.96 L 12.92 31.83 L 13.04 30.97 Z" />
<path fill="#9f7a6e" opacity="1.00" d=" M 40.91 31.05 C 43.60 31.03 46.29 31.01 48.98 31.00 L 49.09 31.93 C 48.29 31.95 46.70 32.00 45.90 32.03 C 45.18 32.02 43.72 32.01 43.00 32.01 L 41.99 31.97 L 40.99 31.87 L 40.91 31.05 Z" />
</g>
<g id="#7d6355ff">
<path fill="#7d6355" opacity="1.00" d=" M 20.99 30.99 C 22.60 30.98 24.20 31.00 25.81 31.00 C 26.07 34.03 26.39 37.06 26.89 40.06 C 26.54 42.68 26.24 45.29 25.96 47.92 C 21.07 44.43 26.59 56.66 21.07 56.01 C 23.56 48.36 23.91 40.10 23.98 32.14 L 23.03 32.06 C 22.53 32.02 21.54 31.96 21.04 31.92 L 20.99 30.99 Z" />
</g>
<g id="#b9a395ff">
<path fill="#b9a395" opacity="1.00" d=" M 27.05 30.84 C 28.99 32.63 29.23 35.05 27.77 38.10 C 26.18 36.09 25.94 33.67 27.05 30.84 Z" />
</g>
<g id="#735a4dff">
<path fill="#735a4d" opacity="1.00" d=" M 48.98 31.00 C 50.63 30.98 52.29 30.97 53.94 30.94 C 53.98 34.33 53.98 37.71 54.03 41.11 C 54.04 42.30 54.06 43.49 54.11 44.68 L 53.95 45.68 C 52.59 48.74 54.31 54.73 50.21 56.24 C 51.47 48.25 53.08 40.24 53.02 32.12 L 52.03 32.05 C 51.54 32.03 50.57 31.99 50.08 31.97 L 49.09 31.93 L 48.98 31.00 Z" />
</g>
<g id="#a48472ff">
<path fill="#a48472" opacity="1.00" d=" M 11.12 32.36 L 12.03 32.10 C 11.98 36.49 11.96 40.89 11.81 45.29 C 10.03 41.23 11.26 36.63 11.12 32.36 Z" />
</g>
<g id="#bea493ff">
<path fill="#bea493" opacity="1.00" d=" M 12.03 32.10 L 12.92 31.83 C 12.97 36.18 12.97 40.53 12.97 44.89 L 11.81 45.29 C 11.96 40.89 11.98 36.49 12.03 32.10 Z" />
</g>
<g id="#d2c1b7ff">
<path fill="#d2c1b7" opacity="1.00" d=" M 12.92 31.83 L 13.94 31.96 C 14.57 38.07 12.71 46.32 17.75 51.11 C 18.24 49.15 18.74 47.20 19.04 45.20 L 19.23 44.22 C 20.78 42.16 21.43 38.64 19.18 36.97 L 19.36 36.24 C 20.02 34.81 19.82 33.33 19.08 31.97 C 19.57 31.96 20.55 31.94 21.04 31.92 C 20.65 39.51 21.61 47.63 18.82 54.89 C 12.60 56.93 14.69 49.54 13.25 45.78 L 12.97 44.89 C 12.97 40.53 12.97 36.18 12.92 31.83 Z" />
</g>
<g id="#e3d7d1ff">
<path fill="#e3d7d1" opacity="1.00" d=" M 13.94 31.96 C 15.65 31.98 17.37 31.98 19.08 31.97 C 19.82 33.33 20.02 34.81 19.36 36.24 C 18.06 35.09 17.20 34.94 16.77 35.78 C 16.68 38.29 14.84 42.04 16.79 44.18 C 17.36 44.43 18.48 44.95 19.04 45.20 C 18.74 47.20 18.24 49.15 17.75 51.11 C 12.71 46.32 14.57 38.07 13.94 31.96 Z" />
</g>
<g id="#b69e8fff">
<path fill="#b69e8f" opacity="1.00" d=" M 21.04 31.92 C 21.54 31.96 22.53 32.02 23.03 32.06 C 23.40 40.21 21.58 48.21 20.12 56.17 L 19.92 57.02 C 17.99 57.04 16.07 57.02 14.14 56.98 C 13.84 56.74 13.25 56.28 12.95 56.04 C 12.86 55.61 12.68 54.74 12.59 54.30 C 12.82 51.46 13.04 48.62 13.25 45.78 C 14.69 49.54 12.60 56.93 18.82 54.89 C 21.61 47.63 20.65 39.51 21.04 31.92 Z" />
</g>
<g id="#a08170ff">
<path fill="#a08170" opacity="1.00" d=" M 23.03 32.06 L 23.98 32.14 C 23.91 40.10 23.56 48.36 21.07 56.01 L 20.12 56.17 C 21.58 48.21 23.40 40.21 23.03 32.06 Z" />
</g>
<g id="#a0806eff">
<path fill="#a0806e" opacity="1.00" d=" M 39.10 32.32 L 40.05 32.09 C 39.99 35.47 39.97 38.86 39.73 42.23 C 39.57 39.76 39.25 34.80 39.10 32.32 Z" />
</g>
<g id="#b29684ff">
<path fill="#b29684" opacity="1.00" d=" M 40.05 32.09 L 40.99 31.87 C 41.51 36.56 39.82 41.70 41.85 46.16 L 42.09 46.89 C 42.22 50.01 42.31 53.15 42.72 56.25 C 39.05 52.72 41.02 46.63 39.73 42.23 C 39.97 38.86 39.99 35.47 40.05 32.09 Z" />
</g>
<g id="#cbb5a7ff">
<path fill="#cbb5a7" opacity="1.00" d=" M 40.99 31.87 L 41.99 31.97 C 41.99 36.69 41.97 41.43 41.85 46.16 C 39.82 41.70 41.51 36.56 40.99 31.87 Z" />
</g>
<g id="#d9ccc4ff">
<path fill="#d9ccc4" opacity="1.00" d=" M 41.99 31.97 L 43.00 32.01 C 43.01 36.31 42.90 40.62 42.99 44.92 C 43.32 44.74 43.97 44.38 44.29 44.20 L 44.87 44.31 C 46.03 44.66 47.19 45.00 48.36 45.33 C 47.71 48.62 47.49 52.11 45.88 55.11 C 42.64 53.61 43.06 49.82 42.09 46.89 L 41.85 46.16 C 41.97 41.43 41.99 36.69 41.99 31.97 Z" />
</g>
<g id="#e9dfd9ff">
<path fill="#e9dfd9" opacity="1.00" d=" M 43.00 32.01 C 43.72 32.01 45.18 32.02 45.90 32.03 C 46.74 32.90 48.87 33.74 47.25 34.99 C 46.39 35.58 45.56 36.21 44.75 36.88 C 43.38 39.23 43.22 41.67 44.29 44.20 C 43.97 44.38 43.32 44.74 42.99 44.92 C 42.90 40.62 43.01 36.31 43.00 32.01 Z" />
</g>
<g id="#ddcabdff">
<path fill="#ddcabd" opacity="1.00" d=" M 45.90 32.03 C 46.70 32.00 48.29 31.95 49.09 31.93 C 48.75 36.37 49.55 40.98 48.36 45.33 C 48.12 42.13 48.20 38.89 47.39 35.77 L 47.25 34.99 C 48.87 33.74 46.74 32.90 45.90 32.03 Z" />
</g>
<g id="#c4aea1ff">
<path fill="#c4aea1" opacity="1.00" d=" M 49.09 31.93 L 50.08 31.97 C 52.36 39.13 48.19 46.83 49.14 54.22 C 47.98 56.73 44.93 55.84 42.72 56.25 C 42.31 53.15 42.22 50.01 42.09 46.89 C 43.06 49.82 42.64 53.61 45.88 55.11 C 47.49 52.11 47.71 48.62 48.36 45.33 C 49.55 40.98 48.75 36.37 49.09 31.93 Z" />
</g>
<g id="#ad8f7dff">
<path fill="#ad8f7d" opacity="1.00" d=" M 50.08 31.97 C 50.57 31.99 51.54 32.03 52.03 32.05 C 52.10 39.48 51.35 47.19 49.14 54.22 C 48.19 46.83 52.36 39.13 50.08 31.97 Z" />
</g>
<g id="#927667ff">
<path fill="#927667" opacity="1.00" d=" M 52.03 32.05 L 53.02 32.12 C 53.08 40.24 51.47 48.25 50.21 56.24 C 49.86 56.41 49.16 56.75 48.81 56.92 C 46.92 56.99 45.02 57.04 43.12 57.02 L 42.72 56.25 C 44.93 55.84 47.98 56.73 49.14 54.22 C 51.35 47.19 52.10 39.48 52.03 32.05 Z" />
</g>
<g id="#0d0d0cff">
<path fill="#0d0d0c" opacity="1.00" d=" M 16.77 35.78 C 17.20 34.94 18.06 35.09 19.36 36.24 L 19.18 36.97 C 19.19 38.78 19.22 42.41 19.23 44.22 L 19.04 45.20 C 18.48 44.95 17.36 44.43 16.79 44.18 C 16.79 41.38 16.79 38.58 16.77 35.78 Z" />
</g>
<g id="#050504ff">
<path fill="#050504" opacity="1.00" d=" M 44.75 36.88 C 45.56 36.21 46.39 35.58 47.25 34.99 L 47.39 35.77 C 46.50 38.45 48.85 44.06 44.87 44.31 C 44.84 42.45 44.78 38.73 44.75 36.88 Z" />
</g>
<g id="#33312fff">
<path fill="#33312f" opacity="1.00" d=" M 16.79 44.18 C 14.84 42.04 16.68 38.29 16.77 35.78 C 16.79 38.58 16.79 41.38 16.79 44.18 Z" />
</g>
<g id="#403d3bff">
<path fill="#403d3b" opacity="1.00" d=" M 47.39 35.77 C 48.20 38.89 48.12 42.13 48.36 45.33 C 47.19 45.00 46.03 44.66 44.87 44.31 C 48.85 44.06 46.50 38.45 47.39 35.77 Z" />
</g>
<g id="#8d8079ff">
<path fill="#8d8079" opacity="1.00" d=" M 19.18 36.97 C 21.43 38.64 20.78 42.16 19.23 44.22 C 19.22 42.41 19.19 38.78 19.18 36.97 Z" />
</g>
<g id="#948b86ff">
<path fill="#948b86" opacity="1.00" d=" M 44.29 44.20 C 43.22 41.67 43.38 39.23 44.75 36.88 C 44.78 38.73 44.84 42.45 44.87 44.31 L 44.29 44.20 Z" />
</g>
<g id="#a8998fff">
<path fill="#a8998f" opacity="1.00" d=" M 7.02 39.98 L 7.95 39.89 C 8.46 40.19 9.49 40.79 10.01 41.10 C 10.09 44.52 9.32 47.89 8.80 51.25 C 8.19 50.12 7.66 48.95 7.09 47.81 C 7.03 45.20 7.01 42.59 7.02 39.98 Z" />
</g>
<g id="#d2c4bbff">
<path fill="#d2c4bb" opacity="1.00" d=" M 26.89 40.06 C 27.43 40.03 28.52 39.98 29.06 39.95 L 29.80 40.44 C 31.53 42.80 33.47 41.36 35.17 39.78 C 38.67 40.64 37.86 45.22 37.92 47.93 C 34.00 48.99 29.79 49.59 25.96 47.92 C 26.24 45.29 26.54 42.68 26.89 40.06 Z" />
</g>
<g id="#a89a90ff">
<path fill="#a89a90" opacity="1.00" d=" M 54.03 41.11 C 54.53 40.80 55.53 40.19 56.03 39.89 L 56.98 39.98 C 56.98 42.58 56.95 45.19 56.88 47.80 C 55.76 49.96 53.98 56.07 54.52 46.26 C 54.42 45.86 54.21 45.07 54.11 44.68 C 54.06 43.49 54.04 42.30 54.03 41.11 Z" />
</g>
<g id="#a58674ff">
<path fill="#a58674" opacity="1.00" d=" M 11.81 45.29 L 12.97 44.89 L 13.25 45.78 C 13.04 48.62 12.82 51.46 12.59 54.30 C 11.82 51.36 11.97 48.30 11.81 45.29 Z" />
</g>
<g id="#826b5eff">
<path fill="#826b5e" opacity="1.00" d=" M 54.11 44.68 C 54.21 45.07 54.42 45.86 54.52 46.26 C 53.98 56.07 55.76 49.96 56.88 47.80 C 56.91 49.60 56.99 53.22 57.02 55.02 C 56.55 55.24 55.59 55.67 55.12 55.88 C 54.61 52.50 54.21 49.09 53.95 45.68 L 54.11 44.68 Z" />
</g>
<g id="#523b2fff">
<path fill="#523b2f" opacity="1.00" d=" M 50.21 56.24 C 54.31 54.73 52.59 48.74 53.95 45.68 C 54.21 49.09 54.61 52.50 55.12 55.88 C 55.59 55.67 56.55 55.24 57.02 55.02 C 57.52 59.05 51.25 56.07 48.81 56.92 C 49.16 56.75 49.86 56.41 50.21 56.24 Z" />
</g>
<g id="#5a4236ff">
<path fill="#5a4236" opacity="1.00" d=" M 21.07 56.01 C 26.59 56.66 21.07 44.43 25.96 47.92 L 26.19 48.75 C 25.99 51.18 25.92 53.71 27.22 55.90 C 29.61 55.90 34.40 55.90 36.79 55.90 C 37.75 53.97 38.10 51.83 38.22 49.69 C 39.18 52.12 40.01 54.60 41.02 57.01 C 33.99 57.01 26.96 57.01 19.92 57.02 L 20.12 56.17 L 21.07 56.01 Z" />
</g>
<g id="#594236ff">
<path fill="#594236" opacity="1.00" d=" M 8.84 55.87 C 9.56 53.26 9.18 49.97 10.88 47.83 C 11.40 50.67 9.79 54.57 12.95 56.04 C 13.25 56.28 13.84 56.74 14.14 56.98 C 11.62 56.50 6.02 59.11 6.98 55.02 C 7.44 55.23 8.37 55.65 8.84 55.87 Z" />
</g>
<g id="#b59f91ff">
<path fill="#b59f91" opacity="1.00" d=" M 25.96 47.92 C 29.79 49.59 34.00 48.99 37.92 47.93 L 37.94 48.74 C 37.24 50.48 36.83 52.36 35.84 53.97 C 33.27 54.15 30.71 54.13 28.15 53.92 C 27.09 52.37 26.81 50.48 26.19 48.75 L 25.96 47.92 Z" />
</g>
<g id="#947a6bff">
<path fill="#947a6b" opacity="1.00" d=" M 26.19 48.75 C 26.81 50.48 27.09 52.37 28.15 53.92 C 30.71 54.13 33.27 54.15 35.84 53.97 C 36.83 52.36 37.24 50.48 37.94 48.74 L 38.22 49.69 C 38.10 51.83 37.75 53.97 36.79 55.90 C 34.40 55.90 29.61 55.90 27.22 55.90 C 25.92 53.71 25.99 51.18 26.19 48.75 Z" />
</g>
<g id="#00000081">
<path fill="#000000" opacity="0.51" d=" M 3.94 60.11 L 4.81 60.21 C 18.12 61.91 31.61 60.58 45.00 61.03 C 49.71 60.69 54.66 61.84 59.23 60.31 L 60.06 60.07 C 59.79 60.55 59.26 61.52 58.99 62.00 C 40.99 62.00 23.00 62.01 5.00 62.00 L 4.03 61.96 C 4.01 61.50 3.97 60.57 3.94 60.11 Z" />
</g>
<g id="#000000ad">
<path fill="#000000" opacity="0.68" d=" M 4.81 60.21 C 22.94 59.87 41.10 59.80 59.23 60.31 C 54.66 61.84 49.71 60.69 45.00 61.03 C 31.61 60.58 18.12 61.91 4.81 60.21 Z" />
</g>
<g id="#00000055">
<path fill="#000000" opacity="0.33" d=" M 5.00 62.00 C 23.00 62.01 40.99 62.00 58.99 62.00 L 59.00 62.98 C 41.01 62.98 23.01 63.09 5.02 62.95 L 5.00 62.00 Z" />
</g>
</svg>
