<?xml version="1.0" encoding="UTF-8" ?>
<!DOCTYPE svg PUBLIC "-//W3C//DTD SVG 1.1//EN" "http://www.w3.org/Graphics/SVG/1.1/DTD/svg11.dtd">
<svg width="64pt" height="64pt" viewBox="0 0 64 64" version="1.1" xmlns="http://www.w3.org/2000/svg">
<g id="#f4f3f2ff">
<path fill="#f4f3f2" opacity="1.00" d=" M 26.84 9.80 C 28.41 8.20 30.74 7.74 32.73 6.89 L 32.41 8.77 C 34.23 8.51 36.04 8.27 37.87 8.12 C 37.69 10.41 37.99 13.28 35.77 14.73 C 32.71 16.78 29.41 18.49 26.55 20.85 C 26.85 22.88 27.20 24.91 27.61 26.92 C 30.52 28.75 33.41 30.87 36.93 31.31 C 41.67 31.96 46.59 33.97 48.77 38.54 C 52.17 43.11 52.28 48.97 51.10 54.33 C 55.12 53.36 53.76 57.53 52.22 59.30 C 48.37 60.98 44.12 60.68 40.01 60.78 C 35.69 60.78 31.35 61.02 27.05 60.43 C 29.97 56.73 34.79 56.46 39.32 57.10 C 34.61 59.71 31.83 56.05 28.03 55.21 C 27.75 55.86 27.21 57.17 26.94 57.82 C 25.39 62.61 19.60 60.45 15.93 60.38 C 17.58 59.10 19.33 57.97 21.18 57.00 C 22.32 55.77 22.01 52.02 23.88 52.29 C 24.19 53.18 24.82 54.96 25.14 55.85 C 24.57 54.06 24.31 52.24 24.37 50.38 C 19.86 49.48 18.56 44.39 16.50 40.93 C 16.19 38.13 16.25 35.32 16.29 32.52 C 14.56 29.50 10.19 28.04 10.19 24.19 C 11.25 22.02 13.35 20.54 15.01 18.83 C 17.09 16.74 20.32 17.17 22.96 16.31 C 24.24 14.13 25.34 11.84 26.84 9.80 Z" />
</g>
</svg>
