<?xml version="1.0" encoding="UTF-8" ?>
<!DOCTYPE svg PUBLIC "-//W3C//DTD SVG 1.1//EN" "http://www.w3.org/Graphics/SVG/1.1/DTD/svg11.dtd">
<svg width="64pt" height="64pt" viewBox="0 0 64 64" version="1.1" xmlns="http://www.w3.org/2000/svg">
<g id="#b3905ffb">
<path fill="#b3905f" opacity="1.00" d=" M 8.56 22.37 C 8.91 21.86 9.60 20.84 9.95 20.34 C 10.35 20.86 11.14 21.91 11.54 22.44 C 12.87 21.88 14.21 21.33 15.55 20.80 C 15.05 24.13 18.64 24.69 21.04 25.27 C 23.59 25.42 26.15 25.56 28.62 26.31 C 33.69 27.18 38.90 26.35 43.89 25.29 C 43.89 25.83 43.88 26.92 43.87 27.46 C 44.02 26.86 44.32 25.64 44.46 25.03 C 48.38 24.36 52.73 24.72 56.13 26.89 C 59.63 29.97 58.22 34.99 58.27 39.05 C 57.71 43.98 61.50 47.68 63.34 51.88 C 63.11 54.94 61.85 57.79 60.81 60.63 C 59.19 60.25 56.02 61.39 55.77 59.03 C 56.87 58.66 58.00 58.43 59.13 58.18 C 59.34 57.79 59.74 57.00 59.95 56.60 C 58.27 55.87 55.71 56.07 54.97 54.04 C 54.35 52.43 54.57 50.64 54.45 48.95 C 53.16 47.59 51.88 46.23 50.58 44.89 C 50.11 47.60 50.28 50.36 51.04 53.00 C 49.01 55.64 46.89 58.29 44.23 60.32 C 42.34 61.03 40.27 60.31 38.37 59.99 C 39.53 58.81 41.10 58.50 42.67 58.37 C 44.00 56.50 45.26 54.58 46.34 52.55 C 44.54 49.57 43.52 46.24 43.04 42.81 C 39.20 43.73 35.25 43.95 31.32 43.82 C 31.13 49.47 31.82 55.58 28.95 60.71 C 27.31 60.55 25.58 60.74 24.03 60.07 C 22.85 58.00 26.42 58.94 27.32 58.31 C 27.50 54.22 27.06 50.11 25.39 46.34 C 22.50 51.00 21.83 56.91 17.67 60.75 C 15.88 60.57 14.11 60.33 12.35 59.98 C 13.51 58.76 15.10 58.40 16.71 58.29 C 18.74 53.56 19.56 48.28 19.15 43.16 C 15.42 39.83 12.22 36.01 9.70 31.69 C 8.90 31.66 7.29 31.62 6.48 31.60 C 6.07 32.03 5.26 32.90 4.85 33.34 C 3.58 31.97 2.37 30.54 1.23 29.06 C 3.58 26.74 5.59 23.96 8.56 22.37 M 56.32 51.54 C 55.62 52.99 57.60 55.06 59.08 54.26 C 59.67 52.95 57.61 51.11 56.32 51.54 Z" />
</g>
</svg>
