<?xml version="1.0" encoding="UTF-8" ?>
<!DOCTYPE svg PUBLIC "-//W3C//DTD SVG 1.1//EN" "http://www.w3.org/Graphics/SVG/1.1/DTD/svg11.dtd">
<svg width="64pt" height="64pt" viewBox="0 0 64 64" version="1.1" xmlns="http://www.w3.org/2000/svg">
<g id="#d2ab82ff">
<path fill="#d2ab82" opacity="1.00" d=" M 46.17 5.60 C 45.51 2.29 51.18 2.96 49.76 5.72 C 49.17 5.71 47.97 5.69 47.38 5.68 C 47.08 5.66 46.47 5.62 46.17 5.60 Z" />
<path fill="#d2ab82" opacity="1.00" d=" M 21.10 29.10 C 25.71 28.65 29.86 31.33 32.43 34.97 C 31.72 38.30 30.65 41.56 28.72 44.40 C 28.37 41.33 29.05 37.76 26.59 35.39 C 24.27 32.41 20.25 32.53 16.86 32.29 C 17.91 30.80 19.51 29.90 21.10 29.10 Z" />
</g>
<g id="#c39367ff">
<path fill="#c39367" opacity="1.00" d=" M 53.93 6.44 C 53.71 4.25 55.97 2.31 57.81 4.04 C 57.76 4.70 57.66 6.01 57.61 6.67 C 57.13 6.64 56.15 6.59 55.66 6.56 C 55.49 6.55 55.14 6.52 54.96 6.51 L 53.93 6.44 Z" />
<path fill="#c39367" opacity="1.00" d=" M 5.33 30.53 C 8.95 19.75 21.93 14.04 32.49 17.70 C 37.33 19.37 40.82 23.54 42.86 28.09 C 41.29 29.52 40.49 31.45 39.98 33.47 C 39.64 33.51 38.96 33.59 38.63 33.63 C 37.45 32.04 36.38 30.36 34.99 28.94 C 30.21 25.98 24.54 24.66 18.95 24.61 C 22.06 23.56 25.47 23.27 28.66 24.17 C 31.66 24.94 34.37 26.93 37.59 26.61 C 37.57 25.26 37.55 23.90 37.56 22.55 C 32.37 18.13 25.13 19.22 18.89 19.69 C 16.05 21.50 13.55 23.79 10.98 25.96 C 8.54 27.98 7.94 31.25 6.96 34.09 C 8.89 31.78 10.80 29.40 13.34 27.72 L 12.85 29.07 C 11.34 31.36 9.84 33.68 8.98 36.30 C 8.41 36.44 7.28 36.71 6.71 36.85 C 5.89 34.84 5.46 32.70 5.33 30.53 Z" />
</g>
<g id="#7c6c4aff">
<path fill="#7c6c4a" opacity="1.00" d=" M 46.17 5.60 C 46.47 5.62 47.08 5.66 47.38 5.68 C 47.73 6.05 48.42 6.79 48.77 7.16 C 47.94 11.16 51.48 14.43 51.04 18.33 C 49.59 18.52 48.24 19.11 47.08 19.99 C 47.40 17.75 48.07 15.47 47.67 13.19 C 47.02 10.64 47.85 7.83 46.17 5.60 Z" />
</g>
<g id="#3c1c07ff">
<path fill="#3c1c07" opacity="1.00" d=" M 47.38 5.68 C 47.97 5.69 49.17 5.71 49.76 5.72 C 49.52 6.08 49.02 6.80 48.77 7.16 C 48.42 6.79 47.73 6.05 47.38 5.68 Z" />
<path fill="#3c1c07" opacity="1.00" d=" M 44.79 34.83 L 45.45 34.19 C 45.58 35.92 45.92 37.60 46.47 39.24 C 45.63 40.37 44.76 41.47 43.85 42.55 L 42.80 42.59 C 36.81 43.15 34.98 49.69 30.47 52.62 C 28.41 54.50 25.55 54.83 22.93 55.33 C 19.17 55.86 15.14 55.95 11.70 54.12 C 11.54 53.47 11.23 52.15 11.07 51.49 C 15.83 51.08 21.02 54.27 25.39 50.85 C 27.18 49.91 28.88 48.80 30.45 47.54 C 33.25 45.76 34.21 42.51 35.37 39.61 C 38.49 39.46 41.56 38.77 44.43 37.53 C 44.52 36.86 44.70 35.51 44.79 34.83 Z" />
</g>
<g id="#a28d5aff">
<path fill="#a28d5a" opacity="1.00" d=" M 54.96 6.51 C 55.14 6.52 55.49 6.55 55.66 6.56 C 55.37 10.89 56.79 15.12 56.21 19.44 C 57.21 20.17 58.22 20.89 59.22 21.63 C 58.82 25.54 55.79 28.03 52.37 29.41 C 50.99 30.29 49.26 31.10 48.84 32.86 C 49.34 36.51 52.17 39.69 51.67 43.45 C 50.68 42.02 49.68 40.61 48.67 39.20 C 47.82 40.29 46.98 41.39 46.09 42.44 C 45.53 42.47 44.41 42.52 43.85 42.55 C 44.76 41.47 45.63 40.37 46.47 39.24 C 45.92 37.60 45.58 35.92 45.45 34.19 C 45.47 31.41 44.88 28.69 44.48 25.96 C 43.91 23.59 45.73 21.69 47.08 19.99 C 48.24 19.11 49.59 18.52 51.04 18.33 C 51.39 18.29 52.09 18.21 52.43 18.17 C 54.61 14.61 53.99 10.40 54.96 6.51 M 48.61 27.46 C 49.64 27.54 50.67 27.65 51.70 27.77 C 53.42 26.62 55.11 25.42 56.75 24.15 C 56.20 23.05 55.66 21.95 55.12 20.84 C 54.07 20.43 53.01 20.00 51.96 19.58 C 50.27 21.89 47.42 24.24 48.61 27.46 Z" />
</g>
<g id="#e1bc82ff">
<path fill="#e1bc82" opacity="1.00" d=" M 18.89 19.69 C 25.13 19.22 32.37 18.13 37.56 22.55 C 37.55 23.90 37.57 25.26 37.59 26.61 C 34.37 26.93 31.66 24.94 28.66 24.17 C 25.47 23.27 22.06 23.56 18.95 24.61 C 16.94 25.38 15.05 26.43 13.34 27.72 C 10.80 29.40 8.89 31.78 6.96 34.09 C 7.94 31.25 8.54 27.98 10.98 25.96 C 13.55 23.79 16.05 21.50 18.89 19.69 Z" />
</g>
<g id="#e8ca84ff">
<path fill="#e8ca84" opacity="1.00" d=" M 48.61 27.46 C 47.42 24.24 50.27 21.89 51.96 19.58 C 53.01 20.00 54.07 20.43 55.12 20.84 C 55.66 21.95 56.20 23.05 56.75 24.15 C 55.11 25.42 53.42 26.62 51.70 27.77 C 50.67 27.65 49.64 27.54 48.61 27.46 Z" />
</g>
<g id="#5a4820ff">
<path fill="#5a4820" opacity="1.00" d=" M 59.22 21.63 C 60.32 22.97 61.08 24.79 60.47 26.53 C 59.61 29.30 56.76 30.59 54.38 31.82 C 54.53 36.69 57.66 40.99 57.47 45.96 C 57.90 50.77 55.44 55.73 51.14 58.02 C 45.09 61.73 37.75 60.84 30.99 60.97 C 22.14 60.77 13.27 60.99 4.43 60.63 C 4.11 60.29 3.47 59.60 3.15 59.25 C 6.07 59.53 9.03 59.67 11.86 58.79 C 16.85 57.35 21.77 60.02 26.80 59.69 C 30.86 59.65 34.91 59.29 38.97 59.49 C 43.99 59.62 49.28 57.62 52.58 53.77 C 54.30 50.20 55.17 45.95 54.08 42.05 C 53.54 39.54 51.90 37.48 51.15 35.05 C 50.76 33.06 51.66 31.20 52.37 29.41 C 55.79 28.03 58.82 25.54 59.22 21.63 Z" />
</g>
<g id="#a56b39ff">
<path fill="#a56b39" opacity="1.00" d=" M 13.34 27.72 C 15.05 26.43 16.94 25.38 18.95 24.61 C 24.54 24.66 30.21 25.98 34.99 28.94 C 36.38 30.36 37.45 32.04 38.63 33.63 C 38.96 33.59 39.64 33.51 39.98 33.47 C 40.49 31.45 41.29 29.52 42.86 28.09 C 43.40 29.98 44.85 31.96 44.30 33.98 C 43.13 35.19 41.96 37.04 40.00 36.65 C 36.19 36.39 34.31 32.57 31.64 30.38 C 26.61 25.59 18.63 25.73 12.85 29.07 L 13.34 27.72 Z" />
</g>
<g id="#8f5124ff">
<path fill="#8f5124" opacity="1.00" d=" M 12.85 29.07 C 18.63 25.73 26.61 25.59 31.64 30.38 C 34.31 32.57 36.19 36.39 40.00 36.65 C 41.96 37.04 43.13 35.19 44.30 33.98 L 44.96 33.24 L 44.79 34.83 C 44.70 35.51 44.52 36.86 44.43 37.53 C 41.56 38.77 38.49 39.46 35.37 39.61 C 34.21 42.51 33.25 45.76 30.45 47.54 C 31.70 43.53 33.93 39.23 32.43 34.97 C 29.86 31.33 25.71 28.65 21.10 29.10 C 16.67 28.43 12.77 32.19 11.41 36.13 C 10.69 40.13 11.83 45.37 16.10 46.89 C 19.45 48.77 23.98 46.77 25.31 43.29 C 26.25 41.29 25.47 38.43 23.27 37.64 C 22.84 39.87 23.61 43.15 20.83 44.08 C 16.95 45.57 13.19 40.86 15.36 37.36 C 17.81 32.56 25.76 34.05 27.05 39.03 C 27.76 43.19 25.49 47.39 21.75 49.26 C 22.97 49.78 24.18 50.31 25.39 50.85 C 21.02 54.27 15.83 51.08 11.07 51.49 L 10.20 51.65 C 5.32 46.52 2.33 38.90 4.83 31.93 C 4.54 36.57 5.21 41.38 8.41 44.98 C 8.53 42.08 8.62 39.18 8.98 36.30 C 9.84 33.68 11.34 31.36 12.85 29.07 M 16.18 39.73 C 16.77 41.33 17.80 43.77 19.98 43.00 C 21.78 42.49 22.39 40.55 20.94 39.28 C 19.36 39.50 17.77 39.64 16.18 39.73 Z" />
</g>
<g id="#bc854dff">
<path fill="#bc854d" opacity="1.00" d=" M 11.41 36.13 C 12.77 32.19 16.67 28.43 21.10 29.10 C 19.51 29.90 17.91 30.80 16.86 32.29 C 20.25 32.53 24.27 32.41 26.59 35.39 C 29.05 37.76 28.37 41.33 28.72 44.40 C 30.65 41.56 31.72 38.30 32.43 34.97 C 33.93 39.23 31.70 43.53 30.45 47.54 C 28.88 48.80 27.18 49.91 25.39 50.85 C 24.18 50.31 22.97 49.78 21.75 49.26 C 25.49 47.39 27.76 43.19 27.05 39.03 C 25.76 34.05 17.81 32.56 15.36 37.36 C 13.19 40.86 16.95 45.57 20.83 44.08 C 23.61 43.15 22.84 39.87 23.27 37.64 C 25.47 38.43 26.25 41.29 25.31 43.29 C 23.98 46.77 19.45 48.77 16.10 46.89 C 11.83 45.37 10.69 40.13 11.41 36.13 Z" />
</g>
<g id="#8d6b2fff">
<path fill="#8d6b2f" opacity="1.00" d=" M 48.84 32.86 C 49.26 31.10 50.99 30.29 52.37 29.41 C 51.66 31.20 50.76 33.06 51.15 35.05 C 51.90 37.48 53.54 39.54 54.08 42.05 C 55.17 45.95 54.30 50.20 52.58 53.77 C 49.28 57.62 43.99 59.62 38.97 59.49 C 34.91 59.29 30.86 59.65 26.80 59.69 C 29.17 59.05 31.51 58.29 33.92 57.76 C 36.47 58.04 39.40 59.28 41.74 57.60 C 44.70 55.68 48.18 54.16 50.34 51.28 C 50.47 48.62 50.41 45.88 51.67 43.45 C 52.17 39.69 49.34 36.51 48.84 32.86 Z" />
</g>
<g id="#b57836ff">
<path fill="#b57836" opacity="1.00" d=" M 4.83 31.93 C 4.96 31.58 5.20 30.88 5.33 30.53 C 5.46 32.70 5.89 34.84 6.71 36.85 C 7.28 36.71 8.41 36.44 8.98 36.30 C 8.62 39.18 8.53 42.08 8.41 44.98 C 5.21 41.38 4.54 36.57 4.83 31.93 Z" />
</g>
<g id="#b68457ff">
<path fill="#b68457" opacity="1.00" d=" M 16.18 39.73 C 17.77 39.64 19.36 39.50 20.94 39.28 C 22.39 40.55 21.78 42.49 19.98 43.00 C 17.80 43.77 16.77 41.33 16.18 39.73 Z" />
</g>
<g id="#dcb877ff">
<path fill="#dcb877" opacity="1.00" d=" M 48.67 39.20 C 49.68 40.61 50.68 42.02 51.67 43.45 C 50.41 45.88 50.47 48.62 50.34 51.28 C 48.18 54.16 44.70 55.68 41.74 57.60 C 39.40 59.28 36.47 58.04 33.92 57.76 C 33.48 57.52 32.61 57.02 32.17 56.77 C 32.08 53.82 34.38 51.90 36.21 49.93 C 37.39 52.76 40.46 52.91 43.08 52.26 C 45.97 50.42 48.01 46.95 47.62 43.46 C 46.71 43.54 44.90 43.72 43.99 43.81 L 42.80 42.59 L 43.85 42.55 C 44.41 42.52 45.53 42.47 46.09 42.44 C 46.98 41.39 47.82 40.29 48.67 39.20 Z" />
</g>
<g id="#9a834fff">
<path fill="#9a834f" opacity="1.00" d=" M 30.47 52.62 C 34.98 49.69 36.81 43.15 42.80 42.59 L 43.99 43.81 C 40.83 45.02 38.41 47.44 36.21 49.93 C 34.38 51.90 32.08 53.82 32.17 56.77 C 32.61 57.02 33.48 57.52 33.92 57.76 C 31.51 58.29 29.17 59.05 26.80 59.69 C 21.77 60.02 16.85 57.35 11.86 58.79 C 9.03 59.67 6.07 59.53 3.15 59.25 C 2.97 57.12 5.28 56.59 6.71 55.76 C 8.32 55.12 9.89 53.95 11.70 54.12 C 15.14 55.95 19.17 55.86 22.93 55.33 C 25.55 54.83 28.41 54.50 30.47 52.62 Z" />
</g>
<g id="#fee8a7ff">
<path fill="#fee8a7" opacity="1.00" d=" M 36.21 49.93 C 38.41 47.44 40.83 45.02 43.99 43.81 C 44.90 43.72 46.71 43.54 47.62 43.46 C 48.01 46.95 45.97 50.42 43.08 52.26 C 40.46 52.91 37.39 52.76 36.21 49.93 Z" />
</g>
</svg>
