<?xml version="1.0" encoding="UTF-8" ?>
<!DOCTYPE svg PUBLIC "-//W3C//DTD SVG 1.1//EN" "http://www.w3.org/Graphics/SVG/1.1/DTD/svg11.dtd">
<svg width="64pt" height="64pt" viewBox="0 0 64 64" version="1.1" xmlns="http://www.w3.org/2000/svg">
<g id="#899cb3fc">
<path fill="#899cb3" opacity="1.00" d=" M 50.19 1.11 C 53.47 1.81 52.78 6.78 50.80 8.79 C 49.75 9.81 49.80 11.39 50.24 12.69 C 64.62 20.68 65.60 43.19 53.76 53.76 C 51.73 55.42 55.23 56.97 55.15 58.90 C 52.28 58.94 48.90 57.34 46.31 59.34 C 35.53 64.94 21.17 63.40 12.77 54.24 C 8.21 47.79 4.01 40.78 1.97 33.10 C 3.43 31.50 5.26 30.18 6.24 28.13 C 13.11 27.03 19.59 29.83 25.85 32.20 C 31.57 34.15 36.60 38.61 43.03 38.01 C 49.14 37.44 54.09 29.01 49.09 24.21 C 49.54 24.10 50.44 23.90 50.89 23.79 C 49.72 20.92 48.14 18.22 45.80 16.14 C 43.27 17.10 39.51 21.36 37.87 17.03 C 40.49 15.50 41.38 11.79 44.75 11.66 C 43.73 6.83 48.55 4.88 50.19 1.11 Z" />
</g>
</svg>
