<?xml version="1.0" encoding="UTF-8" ?>
<!DOCTYPE svg PUBLIC "-//W3C//DTD SVG 1.1//EN" "http://www.w3.org/Graphics/SVG/1.1/DTD/svg11.dtd">
<svg width="64pt" height="64pt" viewBox="0 0 64 64" version="1.1" xmlns="http://www.w3.org/2000/svg">
<g id="#e2dad9fa">
<path fill="#e2dad9" opacity="0.98" d=" M 24.31 22.37 C 28.29 20.35 29.12 28.61 34.01 24.94 C 41.18 24.54 48.79 26.85 53.29 32.70 C 56.59 38.24 56.83 45.77 53.53 51.40 C 55.34 56.85 50.59 58.36 46.94 59.94 C 41.63 60.08 36.33 60.09 31.02 59.98 L 30.99 59.02 C 37.00 58.76 43.49 60.13 49.02 57.04 C 52.62 56.41 51.58 48.52 45.99 53.01 C 40.28 51.76 34.62 52.94 28.81 52.94 C 29.69 50.69 32.07 51.04 34.05 50.83 C 33.77 48.59 32.37 46.71 30.84 45.14 C 28.22 46.19 26.65 48.94 26.75 51.77 C 25.15 52.21 23.55 52.69 21.91 53.00 C 23.22 51.10 25.63 49.63 25.03 46.97 C 20.98 46.97 20.84 54.45 15.89 53.00 C 18.20 50.17 20.86 47.53 21.95 43.92 C 21.63 42.00 21.11 40.13 20.71 38.23 C 16.71 34.85 12.12 32.21 8.14 28.79 C 8.17 24.80 13.80 23.76 16.99 23.06 C 19.49 24.10 21.93 23.39 24.31 22.37 Z" />
</g>
</svg>
