<?xml version="1.0" encoding="UTF-8" ?>
<!DOCTYPE svg PUBLIC "-//W3C//DTD SVG 1.1//EN" "http://www.w3.org/Graphics/SVG/1.1/DTD/svg11.dtd">
<svg width="64pt" height="64pt" viewBox="0 0 64 64" version="1.1" xmlns="http://www.w3.org/2000/svg">
<g id="#af7841fa">
<path fill="#af7841" opacity="0.98" d=" M 2.90 14.98 C 6.86 14.52 9.55 18.29 12.78 19.52 C 17.80 17.70 22.06 21.50 27.01 21.09 C 32.34 21.71 37.65 22.64 42.99 22.91 C 49.41 22.21 57.69 20.29 62.86 25.23 C 64.03 30.21 61.01 35.25 62.78 40.09 C 63.48 41.86 62.80 43.49 61.04 44.17 C 60.42 38.15 62.39 32.18 61.86 26.19 C 60.96 25.35 60.02 24.54 58.95 23.91 C 59.28 26.60 61.86 28.87 60.67 31.71 C 57.42 40.55 60.39 49.21 61.95 57.95 C 60.49 60.37 59.30 64.20 55.09 62.09 C 55.80 60.54 57.20 57.44 57.91 55.89 C 57.93 53.77 56.36 51.99 55.71 50.02 C 50.03 53.07 53.17 64.62 43.89 61.96 C 44.22 58.55 47.44 56.66 48.75 53.71 C 50.25 50.46 48.57 47.54 46.84 45.06 C 42.98 46.23 39.09 47.04 35.02 47.14 C 34.55 50.83 35.01 54.47 35.96 58.01 C 35.80 60.69 34.24 64.81 30.02 62.04 C 32.92 57.81 31.80 52.09 28.89 48.16 C 24.89 51.42 25.17 63.52 16.93 61.99 C 16.89 59.26 20.05 58.29 21.03 56.02 C 22.96 52.73 22.89 48.82 21.85 45.20 C 17.21 43.31 15.90 38.35 13.65 34.31 C 11.06 29.79 4.49 34.39 1.11 30.81 C 1.63 27.35 4.75 24.57 5.88 21.18 C 4.08 19.95 1.87 19.06 0.90 16.96 C 3.52 17.35 5.68 19.01 8.08 19.98 C 8.29 16.85 3.59 17.76 2.90 14.98 Z" />
</g>
</svg>
