<?xml version="1.0" encoding="UTF-8" ?>
<!DOCTYPE svg PUBLIC "-//W3C//DTD SVG 1.1//EN" "http://www.w3.org/Graphics/SVG/1.1/DTD/svg11.dtd">
<svg width="64pt" height="64pt" viewBox="0 0 64 64" version="1.1" xmlns="http://www.w3.org/2000/svg">
<g id="#a78363ef">
<path fill="#a78363" opacity="0.94" d=" M 58.18 11.12 C 62.07 10.01 58.26 14.53 59.60 16.31 C 61.17 20.14 62.40 26.59 58.33 28.66 C 56.84 28.25 55.33 28.71 53.83 28.84 L 54.37 28.23 C 60.34 24.20 55.98 16.60 58.18 11.12 Z" />
</g>
<g id="#8d6747f1">
<path fill="#8d6747" opacity="0.95" d=" M 8.22 22.08 C 8.63 19.99 11.82 17.65 11.69 21.02 C 11.19 21.84 10.66 22.63 10.08 23.39 C 9.62 23.06 8.68 22.41 8.22 22.08 Z" />
</g>
<g id="#a78262f8">
<path fill="#a78262" opacity="0.97" d=" M 6.06 24.13 C 5.29 22.03 6.52 19.47 8.22 22.08 C 8.68 22.41 9.62 23.06 10.08 23.39 C 8.98 24.28 7.37 23.85 6.06 24.13 Z" />
</g>
<g id="#be9871f9">
<path fill="#be9871" opacity="0.98" d=" M 10.08 23.39 C 10.66 22.63 11.19 21.84 11.69 21.02 C 13.34 23.27 16.66 23.88 17.98 26.22 C 17.28 26.04 15.87 25.70 15.17 25.52 C 11.60 23.91 5.94 25.00 4.96 29.35 C 4.30 28.52 3.65 27.68 3.01 26.83 C 3.52 25.65 4.68 24.21 6.06 24.13 C 7.37 23.85 8.98 24.28 10.08 23.39 Z" />
</g>
<g id="#e2bd99ff">
<path fill="#e2bd99" opacity="1.00" d=" M 4.96 29.35 C 5.94 25.00 11.60 23.91 15.17 25.52 C 12.79 25.74 13.40 28.97 11.10 29.18 C 9.09 29.55 6.21 32.01 4.96 29.35 Z" />
</g>
<g id="#eae3defd">
<path fill="#eae3de" opacity="1.00" d=" M 11.10 29.18 C 13.40 28.97 12.79 25.74 15.17 25.52 C 15.87 25.70 17.28 26.04 17.98 26.22 C 19.32 27.04 22.34 26.28 22.67 27.71 C 22.16 30.19 23.31 32.20 25.99 31.96 C 25.71 32.23 25.17 32.77 24.90 33.04 C 23.88 35.00 24.46 37.73 23.02 39.78 C 23.48 39.86 24.40 40.04 24.87 40.12 C 24.79 40.56 24.62 41.43 24.54 41.87 C 24.33 42.90 24.14 43.93 23.97 44.97 C 23.04 47.67 21.97 50.33 21.10 53.07 C 20.47 55.51 19.33 58.08 16.93 59.22 C 16.67 58.95 16.15 58.41 15.89 58.14 C 16.22 56.48 16.91 54.93 17.30 53.29 C 17.36 50.89 19.31 46.77 17.04 44.96 C 12.59 42.94 12.84 36.67 9.23 33.81 C 7.28 32.94 5.14 32.61 3.17 31.80 C 3.05 30.50 2.98 29.20 2.98 27.90 L 3.01 26.83 C 3.65 27.68 4.30 28.52 4.96 29.35 C 6.21 32.01 9.09 29.55 11.10 29.18 Z" />
</g>
<g id="#8e8783d3">
<path fill="#8e8783" opacity="0.83" d=" M 1.98 28.04 L 2.98 27.90 C 2.98 29.20 3.05 30.50 3.17 31.80 C 5.14 32.61 7.28 32.94 9.23 33.81 C 5.25 34.70 -0.66 34.31 1.98 28.04 Z" />
</g>
<g id="#e8c39dff">
<path fill="#e8c39d" opacity="1.00" d=" M 25.99 31.96 C 23.31 32.20 22.16 30.19 22.67 27.71 L 23.51 28.23 C 26.28 30.62 30.27 30.35 33.23 32.52 C 36.84 32.08 40.30 30.83 43.89 30.26 C 47.40 32.02 39.38 33.72 43.73 34.23 C 42.37 37.20 38.60 38.54 38.59 42.14 C 37.97 41.23 37.36 40.31 36.72 39.41 C 34.74 40.89 32.51 40.45 30.23 40.17 C 28.30 40.86 29.43 42.63 29.89 43.96 C 27.75 44.33 25.58 43.97 24.54 41.87 C 24.62 41.43 24.79 40.56 24.87 40.12 C 25.10 37.75 28.28 34.28 24.90 33.04 C 25.17 32.77 25.71 32.23 25.99 31.96 Z" />
</g>
<g id="#d8a778ff">
<path fill="#d8a778" opacity="1.00" d=" M 23.51 28.23 C 24.06 28.25 25.17 28.30 25.72 28.32 C 29.13 28.77 32.56 29.11 36.00 29.03 C 39.00 29.04 42.00 29.03 45.00 29.02 C 47.94 29.01 50.90 29.20 53.83 28.84 C 55.33 28.71 56.84 28.25 58.33 28.66 C 57.93 29.89 57.13 30.64 55.93 30.92 C 52.20 30.69 54.55 35.48 53.86 37.92 C 53.39 40.46 51.18 42.17 49.67 44.13 C 49.52 42.70 49.43 41.19 48.23 40.19 C 49.55 39.86 50.90 39.57 52.09 38.88 C 50.67 37.13 50.46 35.08 50.88 32.91 C 45.34 34.14 44.32 40.60 43.07 45.24 C 41.73 44.43 40.38 43.65 39.04 42.85 L 38.59 42.14 C 38.60 38.54 42.37 37.20 43.73 34.23 C 39.38 33.72 47.40 32.02 43.89 30.26 C 40.30 30.83 36.84 32.08 33.23 32.52 C 30.27 30.35 26.28 30.62 23.51 28.23 Z" />
</g>
<g id="#bf8955ff">
<path fill="#bf8955" opacity="1.00" d=" M 25.72 28.32 C 29.14 28.09 32.57 27.85 36.00 28.04 L 36.00 29.03 C 32.56 29.11 29.13 28.77 25.72 28.32 Z" />
</g>
<g id="#8f6a47d5">
<path fill="#8f6a47" opacity="0.84" d=" M 36.00 28.04 C 38.99 27.93 42.00 27.90 45.00 28.03 L 45.00 29.02 C 42.00 29.03 39.00 29.04 36.00 29.03 L 36.00 28.04 Z" />
</g>
<g id="#685240ab">
<path fill="#685240" opacity="0.67" d=" M 45.00 28.03 C 48.12 27.92 51.26 27.85 54.37 28.23 L 53.83 28.84 C 50.90 29.20 47.94 29.01 45.00 29.02 L 45.00 28.03 Z" />
</g>
<g id="#906845f3">
<path fill="#906845" opacity="0.95" d=" M 53.86 37.92 C 54.55 35.48 52.20 30.69 55.93 30.92 C 55.07 33.80 56.11 36.77 55.79 39.67 C 53.44 42.11 51.45 44.89 49.72 47.80 L 49.00 48.00 L 48.23 48.19 C 48.61 46.80 49.16 45.47 49.67 44.13 C 51.18 42.17 53.39 40.46 53.86 37.92 Z" />
</g>
<g id="#efd5bcff">
<path fill="#efd5bc" opacity="1.00" d=" M 23.02 39.78 C 24.46 37.73 23.88 35.00 24.90 33.04 C 28.28 34.28 25.10 37.75 24.87 40.12 C 24.40 40.04 23.48 39.86 23.02 39.78 Z" />
</g>
<g id="#e0b68eff">
<path fill="#e0b68e" opacity="1.00" d=" M 43.07 45.24 C 44.32 40.60 45.34 34.14 50.88 32.91 C 50.46 35.08 50.67 37.13 52.09 38.88 C 50.90 39.57 49.55 39.86 48.23 40.19 C 49.43 41.19 49.52 42.70 49.67 44.13 C 49.16 45.47 48.61 46.80 48.23 48.19 C 48.14 48.88 47.96 50.26 47.86 50.95 C 45.61 49.44 40.62 48.98 43.07 45.24 Z" />
</g>
<g id="#e1b78fff">
<path fill="#e1b78f" opacity="1.00" d=" M 30.23 40.17 C 32.51 40.45 34.74 40.89 36.72 39.41 C 37.36 40.31 37.97 41.23 38.59 42.14 L 39.04 42.85 C 35.96 43.04 32.91 43.34 29.89 43.96 C 29.43 42.63 28.30 40.86 30.23 40.17 Z" />
</g>
<g id="#be966ff8">
<path fill="#be966f" opacity="0.97" d=" M 49.72 47.80 C 51.45 44.89 53.44 42.11 55.79 39.67 C 57.91 41.36 58.53 44.48 59.84 46.85 C 57.21 47.13 54.91 48.50 52.65 49.77 C 51.28 50.71 50.12 48.88 49.72 47.80 Z" />
</g>
<g id="#ccc0b6fb">
<path fill="#ccc0b6" opacity="1.00" d=" M 23.97 44.97 C 24.14 43.93 24.33 42.90 24.54 41.87 C 25.58 43.97 27.75 44.33 29.89 43.96 C 32.91 43.34 35.96 43.04 39.04 42.85 C 40.38 43.65 41.73 44.43 43.07 45.24 C 40.62 48.98 45.61 49.44 47.86 50.95 C 47.71 52.34 47.34 53.69 47.01 55.05 C 45.48 58.49 42.62 62.82 37.98 61.00 C 37.13 58.10 40.74 59.61 41.79 57.80 C 45.25 54.66 41.12 50.20 40.16 46.81 C 39.57 42.30 34.89 45.10 31.80 45.57 C 29.18 45.55 26.56 45.46 23.97 44.97 Z" />
</g>
<g id="#a29993f6">
<path fill="#a29993" opacity="0.96" d=" M 31.80 45.57 C 34.89 45.10 39.57 42.30 40.16 46.81 C 37.37 46.36 34.57 46.10 31.80 45.57 Z" />
</g>
<g id="#847c79c6">
<path fill="#847c79" opacity="0.78" d=" M 17.04 44.96 C 19.31 46.77 17.36 50.89 17.30 53.29 C 16.92 50.53 16.90 47.74 17.04 44.96 Z" />
</g>
<g id="#a69e99ed">
<path fill="#a69e99" opacity="0.93" d=" M 23.97 44.97 C 26.56 45.46 29.18 45.55 31.80 45.57 C 32.77 47.91 28.31 46.09 28.63 48.67 C 28.68 53.17 27.91 62.59 21.00 61.00 C 20.30 58.84 22.26 58.97 23.77 58.73 C 25.68 56.37 24.47 53.59 23.80 51.01 C 22.87 51.66 22.01 52.40 21.10 53.07 C 21.97 50.33 23.04 47.67 23.97 44.97 Z" />
</g>
<g id="#c4b2a1f8">
<path fill="#c4b2a1" opacity="0.97" d=" M 52.65 49.77 C 54.91 48.50 57.21 47.13 59.84 46.85 C 60.65 48.19 61.46 49.56 61.99 51.04 C 62.00 54.02 62.00 57.01 62.00 60.00 C 62.36 62.06 59.15 60.59 57.98 60.97 C 57.76 59.55 58.40 58.80 59.88 58.72 C 61.47 53.67 55.25 52.34 52.65 49.77 Z" />
</g>
<g id="#85776dd8">
<path fill="#85776d" opacity="0.85" d=" M 48.23 48.19 L 49.00 48.00 C 48.75 50.42 50.15 54.12 47.01 55.05 C 47.34 53.69 47.71 52.34 47.86 50.95 C 47.96 50.26 48.14 48.88 48.23 48.19 Z" />
</g>
<g id="#5a555293">
<path fill="#5a5552" opacity="0.58" d=" M 61.99 51.04 C 65.25 50.90 62.24 57.61 62.96 59.98 L 62.00 60.00 C 62.00 57.01 62.00 54.02 61.99 51.04 Z" />
</g>
<g id="#bab3aef4">
<path fill="#bab3ae" opacity="0.96" d=" M 11.99 61.00 C 11.29 58.45 14.32 58.86 15.89 58.14 C 16.15 58.41 16.67 58.95 16.93 59.22 C 16.69 61.53 13.65 60.99 11.99 61.00 Z" />
</g>
</svg>
