<?xml version="1.0" encoding="UTF-8" ?>
<!DOCTYPE svg PUBLIC "-//W3C//DTD SVG 1.1//EN" "http://www.w3.org/Graphics/SVG/1.1/DTD/svg11.dtd">
<svg width="64pt" height="64pt" viewBox="0 0 64 64" version="1.1" xmlns="http://www.w3.org/2000/svg">
<g id="#6d6163ff">
<path fill="#6d6163" opacity="1.00" d=" M 7.03 22.16 C 9.26 21.19 10.06 17.73 12.90 18.24 C 14.55 18.08 15.44 19.56 16.09 20.82 C 18.69 21.31 20.72 19.59 22.22 17.72 C 21.57 19.89 20.11 22.32 17.47 22.13 C 16.00 22.09 14.53 22.10 13.07 22.17 L 14.16 23.62 C 17.18 23.90 15.80 27.93 16.35 30.05 C 16.14 29.83 15.70 29.38 15.49 29.15 C 15.51 28.72 15.56 27.85 15.58 27.42 C 14.75 26.18 13.55 25.28 12.61 24.14 C 12.15 25.41 11.79 26.72 11.28 27.97 C 7.61 29.51 4.23 25.40 0.60 26.60 C 3.23 25.85 4.72 23.46 7.03 22.16 Z" />
<path fill="#6d6163" opacity="1.00" d=" M 22.08 23.12 C 27.41 21.14 33.50 20.32 39.03 22.13 C 43.75 23.71 48.93 21.11 53.55 22.82 C 55.64 25.11 59.49 26.38 59.63 29.96 C 58.73 34.21 54.75 36.63 51.99 39.63 C 48.69 37.30 44.79 32.80 40.45 35.23 C 38.34 36.23 35.99 35.22 33.79 35.26 C 32.88 37.19 32.56 39.41 31.34 41.19 C 30.24 42.30 28.91 43.19 27.94 44.44 C 26.78 46.48 27.80 49.12 26.52 51.11 C 25.96 50.84 24.85 50.31 24.29 50.04 C 24.31 50.02 24.35 49.99 24.38 49.97 C 27.97 47.42 26.19 42.18 26.81 38.37 C 22.60 37.03 17.96 33.61 18.34 28.71 C 20.11 28.60 21.88 28.66 23.65 28.54 C 23.60 25.08 19.33 25.50 16.97 24.54 C 18.72 24.25 20.55 24.10 22.08 23.12 Z" />
</g>
<g id="#3d3636fe">
<path fill="#3d3636" opacity="1.00" d=" M 13.07 22.17 C 14.53 22.10 16.00 22.09 17.47 22.13 C 18.94 22.74 20.51 22.98 22.08 23.12 C 20.55 24.10 18.72 24.25 16.97 24.54 C 19.33 25.50 23.60 25.08 23.65 28.54 C 21.88 28.66 20.11 28.60 18.34 28.71 C 17.96 33.61 22.60 37.03 26.81 38.37 C 26.19 42.18 27.97 47.42 24.38 49.97 C 26.29 44.88 22.71 40.03 18.34 37.76 C 15.30 36.27 13.56 33.29 11.98 30.43 C 9.38 31.27 6.79 30.30 4.18 30.70 C 3.03 29.25 0.36 28.94 0.60 26.60 C 4.23 25.40 7.61 29.51 11.28 27.97 C 11.79 26.72 12.15 25.41 12.61 24.14 C 13.55 25.28 14.75 26.18 15.58 27.42 C 15.56 27.85 15.51 28.72 15.49 29.15 C 15.70 29.38 16.14 29.83 16.35 30.05 C 15.80 27.93 17.18 23.90 14.16 23.62 L 13.07 22.17 Z" />
<path fill="#3d3636" opacity="1.00" d=" M 53.55 22.82 C 57.13 23.58 59.52 26.44 61.85 29.00 C 64.49 33.76 62.23 39.12 61.64 44.07 C 62.74 46.06 62.21 48.32 62.33 50.47 C 62.04 50.86 61.47 51.64 61.18 52.02 C 61.39 55.16 61.80 58.16 60.61 61.02 C 59.29 61.08 57.98 61.08 56.66 61.03 C 60.98 57.04 58.51 50.63 55.75 46.48 C 55.82 48.47 55.80 50.70 54.20 52.13 C 51.99 54.46 50.82 57.46 49.09 60.08 C 48.35 61.76 46.29 60.85 44.92 61.02 C 45.52 59.34 46.38 57.80 47.74 56.62 C 50.88 53.46 51.97 48.30 49.93 44.31 C 47.00 43.79 44.00 45.52 40.96 44.88 C 37.81 45.04 35.00 42.88 31.84 43.56 C 30.83 46.86 33.11 49.77 32.49 53.04 C 32.10 54.87 33.20 56.48 33.59 58.20 C 33.35 58.91 32.86 60.32 32.62 61.03 C 31.39 61.08 30.16 61.08 28.94 61.02 C 30.79 58.10 30.95 53.35 28.27 51.09 C 27.50 53.47 26.49 55.92 26.93 58.47 C 26.59 59.11 25.92 60.38 25.58 61.02 C 24.35 61.08 23.13 61.08 21.91 61.02 C 23.41 57.55 25.61 53.99 24.29 50.04 C 24.85 50.31 25.96 50.84 26.52 51.11 C 27.80 49.12 26.78 46.48 27.94 44.44 C 28.91 43.19 30.24 42.30 31.34 41.19 C 32.56 39.41 32.88 37.19 33.79 35.26 C 35.99 35.22 38.34 36.23 40.45 35.23 C 44.79 32.80 48.69 37.30 51.99 39.63 C 54.75 36.63 58.73 34.21 59.63 29.96 C 59.49 26.38 55.64 25.11 53.55 22.82 M 61.40 30.54 C 61.07 33.01 60.71 35.49 59.72 37.80 C 58.46 40.65 59.76 43.77 60.13 46.65 C 60.11 41.21 62.94 36.04 61.40 30.54 Z" />
</g>
</svg>
