<?xml version="1.0" encoding="UTF-8" ?>
<!DOCTYPE svg PUBLIC "-//W3C//DTD SVG 1.1//EN" "http://www.w3.org/Graphics/SVG/1.1/DTD/svg11.dtd">
<svg width="64pt" height="64pt" viewBox="0 0 64 64" version="1.1" xmlns="http://www.w3.org/2000/svg">
<g id="#009442ff">
<path fill="#009442" opacity="1.00" d=" M 24.24 10.21 C 26.41 7.26 27.25 2.86 31.08 1.47 C 34.98 0.85 39.64 0.42 42.84 3.24 C 46.87 6.41 49.22 12.69 46.24 17.31 C 43.53 21.80 39.80 25.55 36.52 29.61 C 39.77 28.98 43.68 28.09 46.42 30.54 C 48.29 31.90 47.55 34.33 47.30 36.23 C 50.42 37.06 54.22 39.19 53.76 42.98 C 54.13 46.78 50.20 48.69 48.05 51.15 C 52.30 51.45 56.54 50.59 60.22 48.41 C 58.85 54.77 52.09 57.92 46.40 59.48 C 40.35 60.00 34.21 59.83 28.17 59.27 C 21.34 57.59 14.40 60.91 7.53 59.33 C 6.33 58.80 5.33 57.92 4.29 57.15 C 4.44 54.59 3.26 51.37 5.44 49.40 C 6.98 47.76 9.27 47.30 11.31 46.58 C 9.87 44.27 9.55 40.73 11.76 38.78 C 12.99 37.57 14.69 37.10 16.21 36.39 C 17.53 33.16 20.47 31.27 23.78 30.53 C 25.90 26.99 28.42 23.66 29.99 19.82 C 27.01 19.83 24.04 19.53 21.07 19.31 C 17.06 19.12 15.06 24.01 10.95 23.42 C 12.29 22.87 13.64 22.34 14.99 21.81 C 13.82 21.49 11.47 20.85 10.29 20.52 C 13.66 20.84 16.93 20.04 19.79 18.23 C 18.87 17.13 17.96 16.02 17.06 14.91 C 18.97 12.66 21.77 11.67 24.24 10.21 Z" />
</g>
</svg>
