<?xml version="1.0" encoding="UTF-8" ?>
<!DOCTYPE svg PUBLIC "-//W3C//DTD SVG 1.1//EN" "http://www.w3.org/Graphics/SVG/1.1/DTD/svg11.dtd">
<svg width="64pt" height="64pt" viewBox="0 0 64 64" version="1.1" xmlns="http://www.w3.org/2000/svg">
<g id="#030303ff">
<path fill="#030303" opacity="1.00" d=" M 7.67 3.07 C 14.46 5.63 13.37 14.68 10.38 19.80 C 12.05 18.72 14.08 19.09 15.94 19.19 C 16.13 19.24 16.50 19.34 16.69 19.39 C 14.82 21.00 12.00 18.84 9.76 19.90 C 9.70 21.31 9.63 22.72 9.57 24.13 C 9.22 22.94 8.94 21.73 8.66 20.53 C 8.93 20.10 9.45 19.23 9.72 18.80 C 7.73 17.16 8.49 14.17 6.89 12.21 C 6.24 10.34 3.71 10.65 2.97 8.94 C 7.97 9.29 8.46 14.87 9.92 18.41 C 11.78 15.35 12.26 11.29 11.36 7.80 C 10.80 5.66 8.37 5.05 7.67 3.07 Z" />
<path fill="#030303" opacity="1.00" d=" M 41.98 29.39 C 43.14 28.74 44.20 27.92 45.12 26.95 C 45.61 27.24 46.59 27.82 47.08 28.11 C 47.96 30.42 48.34 32.87 48.81 35.28 C 49.21 38.00 49.23 40.76 48.79 43.47 C 47.86 47.65 46.81 52.18 43.22 54.90 C 44.46 54.40 45.52 53.62 46.39 52.57 C 47.06 52.50 48.41 52.35 49.09 52.28 C 48.22 52.93 47.28 53.46 46.26 53.85 C 47.02 56.77 50.18 55.35 52.27 55.89 C 51.12 57.20 49.07 56.35 47.53 56.51 C 46.82 55.73 46.05 55.01 45.23 54.37 C 43.51 54.86 41.82 55.45 40.04 55.62 C 41.44 56.96 42.81 58.35 44.24 59.66 C 45.56 59.95 47.97 58.64 48.10 60.72 C 46.74 60.79 45.39 60.84 44.03 60.85 C 41.70 59.64 40.49 56.87 38.08 55.81 C 35.99 55.99 33.71 55.15 31.92 56.59 C 31.17 56.23 30.49 55.74 29.91 55.11 C 32.47 54.04 35.45 53.66 37.50 51.62 C 40.16 50.07 42.16 47.52 42.88 44.51 C 44.16 39.51 43.24 34.30 41.98 29.39 Z" />
<path fill="#030303" opacity="1.00" d=" M 3.68 30.58 C 8.74 33.09 14.41 32.64 19.87 32.50 L 18.67 34.02 C 16.76 36.45 13.96 37.90 11.30 39.37 C 7.91 37.41 4.05 34.95 3.68 30.58 Z" />
<path fill="#030303" opacity="1.00" d=" M 29.40 32.40 C 31.36 32.47 33.48 32.45 35.08 33.79 C 35.12 34.63 35.21 36.30 35.25 37.14 C 34.33 42.04 31.09 46.20 27.22 49.20 C 25.76 49.70 24.37 50.41 23.07 51.24 C 23.31 51.61 23.79 52.36 24.03 52.73 L 23.05 53.05 L 23.78 53.28 C 24.45 56.60 27.62 58.20 28.88 61.11 C 25.13 60.04 23.73 55.85 22.31 52.61 C 19.76 50.91 17.36 48.90 14.90 47.13 C 14.44 50.06 17.88 51.26 17.97 53.92 C 15.39 51.62 13.62 48.73 14.18 45.16 C 15.92 47.60 19.26 46.30 21.58 45.46 C 26.99 43.88 30.36 37.79 29.40 32.40 Z" />
<path fill="#030303" opacity="1.00" d=" M 12.48 40.23 C 15.62 39.51 14.17 42.96 14.50 44.54 L 13.22 44.85 C 12.31 47.28 11.80 49.85 11.06 52.34 C 11.59 54.41 14.50 55.48 13.96 57.87 C 12.11 56.64 11.00 54.68 9.72 52.93 C 10.44 49.56 11.64 46.31 12.28 42.92 C 12.33 42.25 12.43 40.90 12.48 40.23 Z" />
</g>
<g id="#d2cdbff6">
<path fill="#d2cdbf" opacity="0.96" d=" M 13.82 10.06 C 15.37 5.55 20.44 3.31 24.92 3.16 C 29.49 3.35 32.09 7.67 33.96 11.24 C 37.60 3.78 48.45 5.92 52.16 12.14 C 53.62 17.86 48.73 23.07 44.02 25.56 C 43.33 25.53 41.95 25.47 41.26 25.44 C 40.05 26.32 40.82 28.13 40.40 29.41 C 38.84 29.39 37.28 29.42 35.72 29.50 C 34.68 26.63 33.60 23.44 30.60 22.10 C 30.58 21.44 30.53 20.12 30.51 19.47 C 28.74 19.62 26.74 19.02 25.37 20.47 C 22.40 20.58 19.34 21.00 16.69 19.39 C 16.50 19.34 16.13 19.24 15.94 19.19 C 14.78 16.30 12.97 13.33 13.82 10.06 Z" />
<path fill="#d2cdbf" opacity="0.96" d=" M 22.82 22.73 C 23.74 22.59 25.58 22.31 26.50 22.17 C 28.09 23.54 27.91 25.72 29.01 27.38 C 26.41 27.39 23.82 27.50 21.22 27.46 C 21.10 25.68 21.69 24.08 22.82 22.73 Z" />
<path fill="#d2cdbf" opacity="0.96" d=" M 10.00 26.00 C 10.77 25.99 12.33 25.98 13.10 25.97 C 13.50 27.85 11.89 29.53 10.00 29.00 C 10.00 28.25 10.00 26.75 10.00 26.00 Z" />
<path fill="#d2cdbf" opacity="0.96" d=" M 47.08 28.11 C 50.39 30.15 52.75 33.46 54.25 36.98 L 54.48 38.00 C 52.71 36.85 51.09 35.18 48.81 35.28 C 48.34 32.87 47.96 30.42 47.08 28.11 Z" />
</g>
<g id="#4c453eff">
<path fill="#4c453e" opacity="1.00" d=" M 52.16 12.14 C 54.14 18.04 48.89 23.09 45.12 26.95 C 44.20 27.92 43.14 28.74 41.98 29.39 C 39.92 30.74 38.07 32.40 36.17 33.97 C 35.25 34.73 35.57 36.11 35.25 37.14 C 35.21 36.30 35.12 34.63 35.08 33.79 C 33.48 32.45 31.36 32.47 29.40 32.40 C 29.26 32.07 28.99 31.40 28.85 31.07 C 29.15 29.85 29.21 28.62 29.01 27.38 C 27.91 25.72 28.09 23.54 26.50 22.17 C 25.58 22.31 23.74 22.59 22.82 22.73 C 22.41 22.72 21.59 22.70 21.18 22.69 C 20.92 25.99 21.72 29.54 19.87 32.50 C 14.41 32.64 8.74 33.09 3.68 30.58 C 3.10 26.67 5.12 22.36 8.66 20.53 C 8.94 21.73 9.22 22.94 9.57 24.13 C 9.63 22.72 9.70 21.31 9.76 19.90 C 12.00 18.84 14.82 21.00 16.69 19.39 C 19.34 21.00 22.40 20.58 25.37 20.47 C 26.74 19.02 28.74 19.62 30.51 19.47 C 30.53 20.12 30.58 21.44 30.60 22.10 C 33.60 23.44 34.68 26.63 35.72 29.50 C 37.28 29.42 38.84 29.39 40.40 29.41 C 40.82 28.13 40.05 26.32 41.26 25.44 C 41.95 25.47 43.33 25.53 44.02 25.56 C 48.73 23.07 53.62 17.86 52.16 12.14 M 10.00 26.00 C 10.00 26.75 10.00 28.25 10.00 29.00 C 11.89 29.53 13.50 27.85 13.10 25.97 C 12.33 25.98 10.77 25.99 10.00 26.00 Z" />
<path fill="#4c453e" opacity="1.00" d=" M 54.25 36.98 C 54.73 38.55 54.88 40.17 55.05 41.80 C 57.75 44.10 61.15 45.53 63.68 48.01 C 60.23 47.89 56.77 47.75 53.32 47.87 C 53.84 46.42 54.84 45.08 54.90 43.50 C 54.87 41.66 54.95 39.80 54.48 38.00 L 54.25 36.98 Z" />
<path fill="#4c453e" opacity="1.00" d=" M 23.07 51.24 C 24.37 50.41 25.76 49.70 27.22 49.20 C 27.39 49.48 27.71 50.05 27.87 50.33 C 31.31 49.90 34.16 51.51 37.50 51.62 C 35.45 53.66 32.47 54.04 29.91 55.11 C 27.81 54.68 25.86 53.78 23.78 53.28 L 23.05 53.05 L 24.03 52.73 C 23.79 52.36 23.31 51.61 23.07 51.24 Z" />
</g>
<g id="#fffd4bff">
<path fill="#fffd4b" opacity="1.00" d=" M 21.18 22.69 C 21.59 22.70 22.41 22.72 22.82 22.73 C 21.69 24.08 21.10 25.68 21.22 27.46 C 23.82 27.50 26.41 27.39 29.01 27.38 C 29.21 28.62 29.15 29.85 28.85 31.07 C 27.83 33.63 26.83 36.18 26.04 38.82 C 22.79 39.19 19.71 37.09 18.67 34.02 L 19.87 32.50 C 21.72 29.54 20.92 25.99 21.18 22.69 Z" />
<path fill="#fffd4b" opacity="1.00" d=" M 36.17 33.97 C 38.07 32.40 39.92 30.74 41.98 29.39 C 43.24 34.30 44.16 39.51 42.88 44.51 C 41.82 44.06 40.77 43.59 39.73 43.09 C 39.47 41.31 39.63 39.46 39.20 37.71 C 38.28 36.39 37.20 35.20 36.17 33.97 Z" />
<path fill="#fffd4b" opacity="1.00" d=" M 48.81 35.28 C 51.09 35.18 52.71 36.85 54.48 38.00 C 54.95 39.80 54.87 41.66 54.90 43.50 C 52.86 43.50 50.83 43.54 48.79 43.47 C 49.23 40.76 49.21 38.00 48.81 35.28 Z" />
</g>
<g id="#f6bf0cff">
<path fill="#f6bf0c" opacity="1.00" d=" M 26.04 38.82 C 26.83 36.18 27.83 33.63 28.85 31.07 C 28.99 31.40 29.26 32.07 29.40 32.40 C 30.36 37.79 26.99 43.88 21.58 45.46 C 19.26 46.30 15.92 47.60 14.18 45.16 L 14.50 44.54 C 14.17 42.96 15.62 39.51 12.48 40.23 C 12.43 40.90 12.33 42.25 12.28 42.92 C 11.86 41.76 11.54 40.58 11.30 39.37 C 13.96 37.90 16.76 36.45 18.67 34.02 C 19.71 37.09 22.79 39.19 26.04 38.82 Z" />
<path fill="#f6bf0c" opacity="1.00" d=" M 35.25 37.14 C 35.57 36.11 35.25 34.73 36.17 33.97 C 37.20 35.20 38.28 36.39 39.20 37.71 C 39.63 39.46 39.47 41.31 39.73 43.09 C 40.77 43.59 41.82 44.06 42.88 44.51 C 42.16 47.52 40.16 50.07 37.50 51.62 C 34.16 51.51 31.31 49.90 27.87 50.33 C 27.71 50.05 27.39 49.48 27.22 49.20 C 31.09 46.20 34.33 42.04 35.25 37.14 Z" />
<path fill="#f6bf0c" opacity="1.00" d=" M 43.22 54.90 C 46.81 52.18 47.86 47.65 48.79 43.47 C 50.83 43.54 52.86 43.50 54.90 43.50 C 54.84 45.08 53.84 46.42 53.32 47.87 C 52.44 49.81 50.58 50.90 49.09 52.28 C 48.41 52.35 47.06 52.50 46.39 52.57 C 45.52 53.62 44.46 54.40 43.22 54.90 Z" />
</g>
</svg>
