<?xml version="1.0" encoding="UTF-8" ?>
<!DOCTYPE svg PUBLIC "-//W3C//DTD SVG 1.1//EN" "http://www.w3.org/Graphics/SVG/1.1/DTD/svg11.dtd">
<svg width="64pt" height="64pt" viewBox="0 0 64 64" version="1.1" xmlns="http://www.w3.org/2000/svg">
<g id="#cea86efb">
<path fill="#cea86e" opacity="1.00" d=" M 10.23 10.38 C 17.61 9.14 20.12 19.48 24.94 23.07 C 31.70 28.24 39.78 22.56 47.01 21.79 C 46.89 19.08 44.56 15.54 47.69 13.70 C 51.05 10.73 54.47 14.26 56.04 16.97 C 58.10 19.84 55.42 23.72 57.31 26.69 C 61.40 34.06 55.69 43.86 61.62 50.37 C 62.05 54.11 63.62 64.14 55.89 60.98 C 55.68 57.39 62.99 58.82 58.66 53.32 C 57.57 50.89 56.49 48.22 54.04 46.87 C 54.27 51.01 56.12 55.42 53.03 59.00 C 52.81 61.92 47.87 61.83 47.12 59.36 C 51.68 58.22 52.34 52.69 49.60 49.36 C 46.95 46.40 46.69 42.34 44.84 39.05 C 42.39 38.62 40.46 40.51 38.30 41.32 C 34.53 43.28 30.19 42.75 26.09 43.12 C 26.10 49.05 25.93 55.73 22.81 60.91 C 16.92 65.45 16.94 59.32 19.62 58.56 C 22.67 57.01 21.07 53.38 20.75 50.82 C 18.24 54.51 17.88 62.32 11.94 61.01 C 11.69 59.07 13.66 58.73 14.87 57.81 C 16.66 52.82 17.24 47.51 17.69 42.27 C 15.28 37.43 10.73 33.58 10.05 27.99 C 10.09 26.35 8.92 25.25 7.75 24.29 C 3.78 26.03 2.13 22.75 1.05 20.14 C 4.81 17.89 10.51 15.66 10.23 10.38 Z" />
</g>
</svg>
