<?xml version="1.0" encoding="UTF-8" ?>
<!DOCTYPE svg PUBLIC "-//W3C//DTD SVG 1.1//EN" "http://www.w3.org/Graphics/SVG/1.1/DTD/svg11.dtd">
<svg width="64pt" height="64pt" viewBox="0 0 64 64" version="1.1" xmlns="http://www.w3.org/2000/svg">
<g id="#d2d2d2ff">
<path fill="#d2d2d2" opacity="1.00" d=" M 3.53 3.99 C 4.32 2.42 6.91 5.08 6.67 6.28 C 5.13 6.64 4.12 5.19 3.53 3.99 Z" />
<path fill="#d2d2d2" opacity="1.00" d=" M 7.15 6.27 C 11.28 6.27 14.22 9.85 16.13 13.13 C 17.42 13.25 18.72 13.35 20.01 13.44 C 20.17 7.91 26.87 8.74 30.32 6.54 C 30.47 7.05 30.77 8.06 30.92 8.56 C 30.36 8.49 29.22 8.36 28.65 8.29 C 28.44 8.91 28.03 10.17 27.82 10.80 C 26.99 12.42 26.96 14.98 24.95 15.63 C 24.15 15.60 22.53 15.53 21.73 15.50 C 21.58 15.31 21.28 14.91 21.13 14.72 C 19.47 14.25 17.77 13.94 16.08 13.62 C 13.68 10.57 11.10 7.28 7.15 6.27 Z" />
<path fill="#d2d2d2" opacity="1.00" d=" M 49.41 22.40 C 49.84 22.50 50.70 22.70 51.13 22.80 C 52.40 26.24 55.63 27.96 58.30 30.10 C 54.65 28.97 52.46 25.80 50.04 23.11 C 49.88 22.93 49.57 22.58 49.41 22.40 Z" />
</g>
<g id="#4f5051ff">
<path fill="#4f5051" opacity="1.00" d=" M 35.67 6.92 C 35.78 5.55 35.90 4.14 36.70 2.97 C 36.71 4.64 36.64 6.30 36.57 7.97 C 35.25 7.82 33.58 6.77 32.73 8.33 C 33.55 8.36 35.20 8.40 36.03 8.43 C 36.63 10.98 37.29 13.60 38.84 15.77 C 38.48 16.16 37.76 16.93 37.39 17.32 C 37.53 18.63 37.67 19.93 37.81 21.24 C 37.22 21.27 36.03 21.33 35.44 21.36 C 34.97 21.39 34.02 21.45 33.54 21.49 C 33.61 18.30 33.10 15.14 32.24 12.08 C 30.76 11.65 29.29 11.23 27.82 10.80 C 28.03 10.17 28.44 8.91 28.65 8.29 C 29.22 8.36 30.36 8.49 30.92 8.56 C 30.77 8.06 30.47 7.05 30.32 6.54 C 32.12 6.43 33.91 6.60 35.67 6.92 Z" />
<path fill="#4f5051" opacity="1.00" d=" M 28.69 30.17 C 29.29 29.93 30.48 29.45 31.08 29.21 C 31.03 32.28 30.98 35.36 31.06 38.44 C 30.54 38.28 29.49 37.96 28.97 37.80 L 28.97 37.79 C 29.19 35.28 29.09 32.75 28.35 30.33 C 28.43 30.29 28.60 30.21 28.69 30.17 Z" />
<path fill="#4f5051" opacity="1.00" d=" M 52.02 41.57 L 52.31 41.67 C 52.90 41.91 54.09 42.39 54.68 42.63 C 54.18 45.06 53.31 47.45 53.51 49.98 C 53.43 52.10 55.14 54.10 54.12 56.18 C 54.68 56.68 55.79 57.66 56.35 58.16 C 55.92 58.92 55.06 60.45 54.63 61.21 C 54.14 58.61 53.18 56.14 51.63 53.99 C 51.45 50.47 51.13 46.78 52.54 43.44 L 51.56 43.78 C 51.68 43.23 51.91 42.12 52.02 41.57 Z" />
<path fill="#4f5051" opacity="1.00" d=" M 8.95 57.30 C 9.49 56.97 10.58 56.31 11.12 55.98 C 10.57 57.61 10.37 59.28 10.51 61.01 C 10.23 60.91 9.66 60.70 9.37 60.60 C 9.27 59.77 9.06 58.12 8.95 57.30 Z" />
</g>
<g id="#353534ff">
<path fill="#353534" opacity="1.00" d=" M 55.01 6.81 C 57.04 6.08 58.72 4.79 60.10 3.16 C 60.31 4.14 60.82 5.16 60.37 6.16 C 59.32 7.60 57.38 7.27 55.83 7.44 L 55.01 6.81 Z" />
<path fill="#353534" opacity="1.00" d=" M 33.41 38.74 C 33.89 35.77 34.28 32.79 34.65 29.81 C 38.60 31.90 37.34 37.42 33.41 38.74 Z" />
</g>
<g id="#060708ff">
<path fill="#060708" opacity="1.00" d=" M 7.25 7.20 C 4.84 7.92 2.93 6.51 3.53 3.99 C 4.12 5.19 5.13 6.64 6.67 6.28 L 7.15 6.27 C 11.10 7.28 13.68 10.57 16.08 13.62 C 17.77 13.94 19.47 14.25 21.13 14.72 C 21.28 14.91 21.58 15.31 21.73 15.50 C 21.74 17.07 21.74 18.64 21.74 20.21 C 20.39 19.73 19.04 19.24 17.70 18.73 C 17.98 18.09 18.55 16.79 18.83 16.15 C 18.14 16.36 16.75 16.80 16.05 17.01 C 15.19 14.20 13.15 11.91 10.87 10.11 C 9.66 9.14 7.66 8.95 7.25 7.20 Z" />
<path fill="#060708" opacity="1.00" d=" M 46.89 13.77 C 49.22 11.13 51.25 8.01 54.52 6.43 L 55.01 6.81 L 55.83 7.44 L 56.77 8.16 C 52.84 9.76 49.19 12.86 48.00 17.04 C 47.69 16.98 47.06 16.88 46.75 16.82 C 46.05 16.22 45.33 15.57 45.24 14.59 C 45.65 14.39 46.48 13.98 46.89 13.77 Z" />
<path fill="#060708" opacity="1.00" d=" M 19.03 39.17 C 19.11 37.32 19.91 36.00 21.88 35.86 C 22.30 36.39 23.15 37.46 23.58 37.99 C 23.14 38.59 22.27 39.78 21.83 40.38 C 20.90 39.96 19.97 39.56 19.03 39.17 Z" />
<path fill="#060708" opacity="1.00" d=" M 40.41 38.28 C 41.51 36.72 44.41 35.12 45.02 37.99 C 44.68 40.96 41.29 40.90 40.41 38.28 Z" />
</g>
<g id="#e9e9e9ff">
<path fill="#e9e9e9" opacity="1.00" d=" M 32.73 8.33 C 33.58 6.77 35.25 7.82 36.57 7.97 C 40.27 8.07 43.57 10.13 44.88 13.66 C 45.38 13.69 46.39 13.75 46.89 13.77 C 46.48 13.98 45.65 14.39 45.24 14.59 C 45.33 15.57 46.05 16.22 46.75 16.82 L 46.60 17.08 C 46.08 16.70 45.04 15.93 44.52 15.54 C 44.66 16.46 44.94 18.31 45.08 19.23 C 45.42 17.37 43.88 16.50 42.81 15.47 C 41.81 15.54 39.83 15.69 38.84 15.77 C 37.29 13.60 36.63 10.98 36.03 8.43 C 35.20 8.40 33.55 8.36 32.73 8.33 Z" />
</g>
<g id="#272929ff">
<path fill="#272929" opacity="1.00" d=" M 24.95 15.63 C 26.96 14.98 26.99 12.42 27.82 10.80 C 29.29 11.23 30.76 11.65 32.24 12.08 C 33.10 15.14 33.61 18.30 33.54 21.49 L 32.42 21.86 C 31.84 19.99 31.16 18.14 30.29 16.37 C 28.23 16.53 28.73 19.86 27.99 21.33 C 26.45 21.18 24.92 20.97 23.39 20.75 C 22.98 20.61 22.15 20.34 21.74 20.21 C 21.74 18.64 21.74 17.07 21.73 15.50 C 22.53 15.53 24.15 15.60 24.95 15.63 Z" />
<path fill="#272929" opacity="1.00" d=" M 37.39 17.32 C 37.76 16.93 38.48 16.16 38.84 15.77 C 39.83 15.69 41.81 15.54 42.81 15.47 C 43.88 16.50 45.42 17.37 45.08 19.23 C 43.65 19.73 42.22 20.24 40.77 20.69 C 40.03 20.83 38.55 21.10 37.81 21.24 C 37.67 19.93 37.53 18.63 37.39 17.32 Z" />
</g>
<g id="#070200ff">
<path fill="#070200" opacity="1.00" d=" M 27.99 21.33 C 28.73 19.86 28.23 16.53 30.29 16.37 C 31.16 18.14 31.84 19.99 32.42 21.86 C 32.58 24.15 32.56 26.44 32.58 28.73 C 32.59 31.75 32.58 34.76 32.66 37.78 C 32.22 42.42 33.16 47.17 32.16 51.74 L 31.97 52.04 C 31.72 51.77 31.22 51.22 30.97 50.94 C 31.07 46.78 31.26 42.61 31.06 38.44 C 30.98 35.36 31.03 32.28 31.08 29.21 C 31.13 26.60 31.14 23.99 31.11 21.38 C 30.07 21.38 29.03 21.36 27.99 21.33 Z" />
<path fill="#070200" opacity="1.00" d=" M 50.04 23.11 C 52.46 25.80 54.65 28.97 58.30 30.10 L 58.89 30.41 C 59.34 30.92 60.24 31.96 60.69 32.47 C 57.42 30.90 53.75 29.97 51.60 26.71 C 53.33 31.56 52.97 36.69 52.31 41.67 L 52.02 41.57 C 52.94 36.98 53.25 32.09 51.55 27.64 C 51.07 26.12 50.53 24.62 50.04 23.11 Z" />
<path fill="#070200" opacity="1.00" d=" M 16.87 25.47 C 19.47 26.97 21.96 28.64 24.39 30.40 C 24.03 30.89 23.32 31.85 22.96 32.34 C 21.16 32.83 19.31 32.82 17.67 31.83 C 17.45 31.33 17.00 30.33 16.78 29.83 C 16.61 28.37 16.64 26.92 16.87 25.47 Z" />
</g>
<g id="#a01f05ff">
<path fill="#a01f05" opacity="1.00" d=" M 14.95 22.49 C 15.73 21.14 16.70 19.92 17.70 18.73 C 19.04 19.24 20.39 19.73 21.74 20.21 C 22.15 20.34 22.98 20.61 23.39 20.75 C 22.26 21.07 21.12 21.41 20.00 21.77 C 20.27 21.91 20.81 22.20 21.08 22.34 C 19.59 23.27 18.13 24.25 16.87 25.47 C 16.64 26.92 16.61 28.37 16.78 29.83 C 16.30 28.60 15.88 27.35 15.44 26.10 C 15.02 28.56 14.64 31.02 14.01 33.43 C 13.68 33.92 13.01 34.89 12.68 35.38 C 12.56 33.54 12.35 31.70 12.17 29.87 L 12.10 29.05 L 12.62 27.88 C 13.09 26.68 13.42 25.44 13.76 24.19 C 14.06 23.77 14.65 22.92 14.95 22.49 Z" />
<path fill="#a01f05" opacity="1.00" d=" M 45.08 19.23 C 44.94 18.31 44.66 16.46 44.52 15.54 C 46.06 17.89 47.62 20.24 49.41 22.40 C 49.57 22.58 49.88 22.93 50.04 23.11 C 50.53 24.62 51.07 26.12 51.55 27.64 C 51.30 29.90 51.18 32.36 49.55 34.14 C 48.42 31.93 48.39 29.47 48.64 27.06 C 48.25 28.08 47.84 29.10 47.40 30.11 C 48.20 26.45 45.86 22.85 42.04 22.61 C 42.47 22.38 43.33 21.93 43.77 21.71 C 42.76 21.37 41.76 21.03 40.77 20.69 C 42.22 20.24 43.65 19.73 45.08 19.23 Z" />
</g>
<g id="#ed5d09ff">
<path fill="#ed5d09" opacity="1.00" d=" M 20.00 21.77 C 21.12 21.41 22.26 21.07 23.39 20.75 C 24.92 20.97 26.45 21.18 27.99 21.33 C 29.03 21.36 30.07 21.38 31.11 21.38 C 30.54 21.54 29.41 21.87 28.85 22.04 C 27.41 24.18 26.34 26.55 25.20 28.86 C 25.71 25.86 23.85 23.30 21.08 22.34 C 20.81 22.20 20.27 21.91 20.00 21.77 Z" />
</g>
<g id="#ef9436ff">
<path fill="#ef9436" opacity="1.00" d=" M 33.54 21.49 C 34.02 21.45 34.97 21.39 35.44 21.36 C 35.44 23.35 35.18 25.40 35.74 27.34 C 36.48 28.57 37.95 29.09 39.04 29.96 C 39.18 30.06 39.46 30.26 39.60 30.36 C 38.63 31.66 37.65 33.57 39.02 34.99 C 39.67 36.15 41.23 35.57 42.29 35.87 C 42.51 35.11 42.96 33.58 43.19 32.82 C 43.74 32.73 44.84 32.55 45.39 32.46 C 45.29 34.30 45.22 36.15 45.02 37.99 C 44.41 35.12 41.51 36.72 40.41 38.28 C 38.90 38.44 37.39 38.60 35.87 38.76 C 35.45 40.62 35.02 42.47 34.64 44.34 C 34.37 42.44 33.98 40.56 33.41 38.74 C 37.34 37.42 38.60 31.90 34.65 29.81 C 34.13 29.54 33.10 29.00 32.58 28.73 C 32.56 26.44 32.58 24.15 32.42 21.86 L 33.54 21.49 Z" />
</g>
<g id="#f26c0bff">
<path fill="#f26c0b" opacity="1.00" d=" M 35.44 21.36 C 36.03 21.33 37.22 21.27 37.81 21.24 C 38.55 21.10 40.03 20.83 40.77 20.69 C 41.76 21.03 42.76 21.37 43.77 21.71 C 43.33 21.93 42.47 22.38 42.04 22.61 C 39.08 23.84 38.28 27.08 39.04 29.96 C 37.95 29.09 36.48 28.57 35.74 27.34 C 35.18 25.40 35.44 23.35 35.44 21.36 Z" />
</g>
<g id="#39383787">
<path fill="#393837" opacity="0.53" d=" M 13.16 22.14 C 13.61 22.23 14.50 22.40 14.95 22.49 C 14.65 22.92 14.06 23.77 13.76 24.19 C 13.50 23.86 12.98 23.18 12.72 22.84 L 13.16 22.14 Z" />
</g>
<g id="#f88c0bff">
<path fill="#f88c0b" opacity="1.00" d=" M 25.20 28.86 C 26.34 26.55 27.41 24.18 28.85 22.04 C 28.65 24.74 28.67 27.46 28.69 30.17 C 28.60 30.21 28.43 30.29 28.35 30.33 C 25.95 32.46 26.53 35.99 28.97 37.79 L 28.97 37.80 C 28.92 38.33 28.81 39.40 28.76 39.93 C 27.04 39.25 25.32 38.60 23.58 37.99 C 23.15 37.46 22.30 36.39 21.88 35.86 C 22.21 34.68 22.49 33.48 22.96 32.34 C 23.32 31.85 24.03 30.89 24.39 30.40 C 24.59 30.01 25.00 29.24 25.20 28.86 Z" />
</g>
<g id="#e8a149ff">
<path fill="#e8a149" opacity="1.00" d=" M 28.85 22.04 C 29.41 21.87 30.54 21.54 31.11 21.38 C 31.14 23.99 31.13 26.60 31.08 29.21 C 30.48 29.45 29.29 29.93 28.69 30.17 C 28.67 27.46 28.65 24.74 28.85 22.04 Z" />
</g>
<g id="#090606be">
<path fill="#090606" opacity="0.75" d=" M 7.97 28.36 C 9.86 26.81 11.57 25.02 12.72 22.84 C 12.98 23.18 13.50 23.86 13.76 24.19 C 13.42 25.44 13.09 26.68 12.62 27.88 C 9.42 29.59 6.28 31.50 2.95 33.06 C 3.04 32.49 3.23 31.34 3.32 30.77 C 3.83 30.64 4.86 30.40 5.37 30.27 C 5.83 29.87 6.76 29.05 7.22 28.65 L 7.66 28.64 L 7.97 28.36 Z" />
</g>
<g id="#231816ff">
<path fill="#231816" opacity="1.00" d=" M 16.87 25.47 C 18.13 24.25 19.59 23.27 21.08 22.34 C 23.85 23.30 25.71 25.86 25.20 28.86 C 25.00 29.24 24.59 30.01 24.39 30.40 C 21.96 28.64 19.47 26.97 16.87 25.47 Z" />
</g>
<g id="#211816ff">
<path fill="#211816" opacity="1.00" d=" M 39.04 29.96 C 38.28 27.08 39.08 23.84 42.04 22.61 C 45.86 22.85 48.20 26.45 47.40 30.11 C 46.82 30.97 46.12 31.73 45.39 32.46 C 44.84 32.55 43.74 32.73 43.19 32.82 C 41.97 32.02 40.79 31.18 39.60 30.36 C 39.46 30.26 39.18 30.06 39.04 29.96 Z" />
</g>
<g id="#bf3007ff">
<path fill="#bf3007" opacity="1.00" d=" M 14.01 33.43 C 14.64 31.02 15.02 28.56 15.44 26.10 C 15.88 27.35 16.30 28.60 16.78 29.83 C 17.00 30.33 17.45 31.33 17.67 31.83 C 17.15 34.41 17.46 37.02 18.19 39.53 C 18.40 39.44 18.82 39.26 19.03 39.17 C 19.97 39.56 20.90 39.96 21.83 40.38 C 21.34 40.89 20.84 41.39 20.34 41.88 C 20.90 42.80 21.47 43.71 22.06 44.62 C 21.42 44.93 20.13 45.54 19.49 45.85 C 19.27 46.36 18.82 47.37 18.60 47.87 C 17.82 46.51 17.08 45.13 16.43 43.70 C 16.28 40.15 15.83 36.56 14.01 33.43 Z" />
</g>
<g id="#e75009ff">
<path fill="#e75009" opacity="1.00" d=" M 47.40 30.11 C 47.84 29.10 48.25 28.08 48.64 27.06 C 48.39 29.47 48.42 31.93 49.55 34.14 C 49.45 34.29 49.26 34.58 49.16 34.73 C 48.56 35.68 48.12 36.71 47.84 37.80 C 47.13 40.52 46.42 43.30 44.67 45.57 C 42.11 44.13 39.02 45.57 37.78 48.04 C 37.01 49.38 36.31 50.86 34.80 51.53 C 34.64 49.14 34.59 46.74 34.64 44.34 C 35.02 42.47 35.45 40.62 35.87 38.76 C 37.39 38.60 38.90 38.44 40.41 38.28 C 41.29 40.90 44.68 40.96 45.02 37.99 C 45.22 36.15 45.29 34.30 45.39 32.46 C 46.12 31.73 46.82 30.97 47.40 30.11 Z" />
</g>
<g id="#4444446b">
<path fill="#444444" opacity="0.42" d=" M 7.22 28.65 C 7.40 28.58 7.78 28.43 7.97 28.36 L 7.66 28.64 L 7.22 28.65 Z" />
</g>
<g id="#851403ff">
<path fill="#851403" opacity="1.00" d=" M 51.55 27.64 C 53.25 32.09 52.94 36.98 52.02 41.57 C 51.91 42.12 51.68 43.23 51.56 43.78 C 48.28 51.25 41.43 57.09 33.12 57.83 C 31.42 56.41 31.53 54.01 31.97 52.04 L 32.16 51.74 C 32.82 51.69 34.14 51.59 34.80 51.53 C 36.31 50.86 37.01 49.38 37.78 48.04 C 37.35 49.78 37.46 52.97 39.99 52.59 C 43.56 52.49 44.97 48.63 44.67 45.57 C 46.42 43.30 47.13 40.52 47.84 37.80 C 48.21 39.79 47.11 43.41 49.86 43.94 C 50.75 40.96 51.41 37.88 51.20 34.75 C 50.69 34.74 49.67 34.74 49.16 34.73 C 49.26 34.58 49.45 34.29 49.55 34.14 C 51.18 32.36 51.30 29.90 51.55 27.64 Z" />
<path fill="#851403" opacity="1.00" d=" M 12.16 41.90 C 11.52 37.97 10.70 33.70 12.17 29.87 C 12.35 31.70 12.56 33.54 12.68 35.38 C 13.06 38.23 12.18 43.80 16.43 43.70 C 17.08 45.13 17.82 46.51 18.60 47.87 C 19.81 50.25 21.71 52.21 24.32 53.01 C 26.00 53.65 27.56 54.58 28.71 56.00 C 29.23 56.02 30.26 56.06 30.77 56.07 C 30.31 57.39 28.09 57.65 27.02 56.95 C 21.13 55.34 16.51 50.83 13.58 45.62 C 13.53 45.29 13.44 44.65 13.40 44.33 L 12.89 44.01 C 12.74 43.60 12.43 42.79 12.27 42.39 L 12.16 41.90 Z" />
</g>
<g id="#77705bff">
<path fill="#77705b" opacity="1.00" d=" M 32.58 28.73 C 33.10 29.00 34.13 29.54 34.65 29.81 C 34.28 32.79 33.89 35.77 33.41 38.74 L 32.66 37.78 C 32.58 34.76 32.59 31.75 32.58 28.73 Z" />
</g>
<g id="#323333a7">
<path fill="#323333" opacity="0.65" d=" M 3.62 30.01 C 4.06 30.08 4.94 30.21 5.37 30.27 C 4.86 30.40 3.83 30.64 3.32 30.77 L 3.62 30.01 Z" />
</g>
<g id="#5f6161bf">
<path fill="#5f6161" opacity="0.75" d=" M 58.89 30.41 C 59.89 28.88 62.23 31.72 60.69 32.47 C 60.24 31.96 59.34 30.92 58.89 30.41 Z" />
</g>
<g id="#231d18ff">
<path fill="#231d18" opacity="1.00" d=" M 28.97 37.79 C 26.53 35.99 25.95 32.46 28.35 30.33 C 29.09 32.75 29.19 35.28 28.97 37.79 Z" />
</g>
<g id="#fbc087ff">
<path fill="#fbc087" opacity="1.00" d=" M 39.02 34.99 C 37.65 33.57 38.63 31.66 39.60 30.36 C 40.79 31.18 41.97 32.02 43.19 32.82 C 42.96 33.58 42.51 35.11 42.29 35.87 C 41.23 35.57 39.67 36.15 39.02 34.99 Z" />
</g>
<g id="#e9580cff">
<path fill="#e9580c" opacity="1.00" d=" M 18.19 39.53 C 17.46 37.02 17.15 34.41 17.67 31.83 C 19.31 32.82 21.16 32.83 22.96 32.34 C 22.49 33.48 22.21 34.68 21.88 35.86 C 19.91 36.00 19.11 37.32 19.03 39.17 C 18.82 39.26 18.40 39.44 18.19 39.53 Z" />
</g>
<g id="#320601ff">
<path fill="#320601" opacity="1.00" d=" M 12.68 35.38 C 13.01 34.89 13.68 33.92 14.01 33.43 C 15.83 36.56 16.28 40.15 16.43 43.70 C 12.18 43.80 13.06 38.23 12.68 35.38 Z" />
<path fill="#320601" opacity="1.00" d=" M 18.60 47.87 C 18.82 47.37 19.27 46.36 19.49 45.85 C 21.38 48.03 23.81 49.58 26.52 50.52 C 26.42 50.88 26.21 51.60 26.10 51.96 C 25.65 52.22 24.76 52.75 24.32 53.01 C 21.71 52.21 19.81 50.25 18.60 47.87 Z" />
</g>
<g id="#3e140dff">
<path fill="#3e140d" opacity="1.00" d=" M 49.16 34.73 C 49.67 34.74 50.69 34.74 51.20 34.75 C 51.41 37.88 50.75 40.96 49.86 43.94 C 47.11 43.41 48.21 39.79 47.84 37.80 C 48.12 36.71 48.56 35.68 49.16 34.73 Z" />
</g>
<g id="#e95809ff">
<path fill="#e95809" opacity="1.00" d=" M 23.58 37.99 C 25.32 38.60 27.04 39.25 28.76 39.93 C 28.48 43.61 28.80 47.29 28.60 50.97 C 27.82 50.00 27.04 49.02 26.26 48.04 C 25.24 46.49 23.65 45.50 22.06 44.62 C 21.47 43.71 20.90 42.80 20.34 41.88 C 20.84 41.39 21.34 40.89 21.83 40.38 C 22.27 39.78 23.14 38.59 23.58 37.99 Z" />
</g>
<g id="#e08645ff">
<path fill="#e08645" opacity="1.00" d=" M 28.97 37.80 C 29.49 37.96 30.54 38.28 31.06 38.44 C 31.26 42.61 31.07 46.78 30.97 50.94 C 30.38 50.95 29.19 50.96 28.60 50.97 C 28.80 47.29 28.48 43.61 28.76 39.93 C 28.81 39.40 28.92 38.33 28.97 37.80 Z" />
</g>
<g id="#e98448ff">
<path fill="#e98448" opacity="1.00" d=" M 32.66 37.78 L 33.41 38.74 C 33.98 40.56 34.37 42.44 34.64 44.34 C 34.59 46.74 34.64 49.14 34.80 51.53 C 34.14 51.59 32.82 51.69 32.16 51.74 C 33.16 47.17 32.22 42.42 32.66 37.78 Z" />
</g>
<g id="#232424a2">
<path fill="#232424" opacity="0.64" d=" M 9.74 43.77 C 7.53 43.28 11.05 40.80 12.16 41.90 L 12.27 42.39 C 11.64 42.73 10.38 43.42 9.74 43.77 Z" />
</g>
<g id="#050505ac">
<path fill="#050505" opacity="0.67" d=" M 9.74 43.77 C 10.38 43.42 11.64 42.73 12.27 42.39 C 12.43 42.79 12.74 43.60 12.89 44.01 C 12.36 44.13 11.29 44.36 10.75 44.48 C 11.28 47.96 10.17 51.83 12.05 54.99 L 12.18 55.25 C 11.91 55.43 11.38 55.79 11.12 55.98 C 10.58 56.31 9.49 56.97 8.95 57.30 C 9.06 58.12 9.27 59.77 9.37 60.60 C 6.67 59.91 8.01 57.27 9.60 56.34 C 9.70 52.15 11.01 47.99 9.74 43.77 Z" />
</g>
<g id="#343232d3">
<path fill="#343232" opacity="0.83" d=" M 10.75 44.48 C 11.29 44.36 12.36 44.13 12.89 44.01 L 13.40 44.33 C 13.44 44.65 13.53 45.29 13.58 45.62 L 12.93 46.02 C 12.70 46.14 12.25 46.39 12.02 46.51 C 11.88 49.34 12.05 52.16 12.05 54.99 C 10.17 51.83 11.28 47.96 10.75 44.48 Z" />
</g>
<g id="#2d1a15ff">
<path fill="#2d1a15" opacity="1.00" d=" M 19.49 45.85 C 20.13 45.54 21.42 44.93 22.06 44.62 C 23.65 45.50 25.24 46.49 26.26 48.04 C 26.33 48.66 26.46 49.90 26.52 50.52 C 23.81 49.58 21.38 48.03 19.49 45.85 Z" />
</g>
<g id="#29100bff">
<path fill="#29100b" opacity="1.00" d=" M 37.78 48.04 C 39.02 45.57 42.11 44.13 44.67 45.57 C 44.97 48.63 43.56 52.49 39.99 52.59 C 37.46 52.97 37.35 49.78 37.78 48.04 Z" />
</g>
<g id="#63636396">
<path fill="#636363" opacity="0.59" d=" M 12.02 46.51 C 12.25 46.39 12.70 46.14 12.93 46.02 C 12.83 49.00 13.75 52.31 12.05 54.99 C 12.05 52.16 11.88 49.34 12.02 46.51 Z" />
</g>
<g id="#9c260dff">
<path fill="#9c260d" opacity="1.00" d=" M 26.26 48.04 C 27.04 49.02 27.82 50.00 28.60 50.97 C 29.19 50.96 30.38 50.95 30.97 50.94 C 31.42 52.60 31.39 54.46 30.77 56.07 C 30.26 56.06 29.23 56.02 28.71 56.00 C 27.56 54.58 26.00 53.65 24.32 53.01 C 24.76 52.75 25.65 52.22 26.10 51.96 C 26.21 51.60 26.42 50.88 26.52 50.52 C 26.46 49.90 26.33 48.66 26.26 48.04 Z" />
</g>
</svg>
