<?xml version="1.0" encoding="UTF-8" ?>
<!DOCTYPE svg PUBLIC "-//W3C//DTD SVG 1.1//EN" "http://www.w3.org/Graphics/SVG/1.1/DTD/svg11.dtd">
<svg width="64pt" height="64pt" viewBox="0 0 64 64" version="1.1" xmlns="http://www.w3.org/2000/svg">
<g id="#325279f9">
<path fill="#325279" opacity="0.98" d=" M 22.44 10.04 C 30.60 11.47 38.89 14.24 45.06 19.98 C 47.73 22.43 49.57 25.71 50.20 29.30 C 53.88 27.96 57.13 25.74 59.90 22.99 C 58.98 31.13 59.03 39.34 59.88 47.48 C 56.71 44.72 53.17 42.41 49.30 40.78 C 48.28 41.75 47.27 42.71 46.26 43.68 C 46.59 44.71 47.24 46.77 47.57 47.79 C 45.11 47.49 42.64 46.33 40.16 47.07 C 40.00 49.46 40.64 51.80 41.26 54.09 C 37.64 53.60 34.20 52.34 30.99 50.63 C 23.68 51.14 15.69 50.07 9.96 45.11 C 7.47 43.16 6.17 40.22 5.02 37.37 C 6.17 37.27 8.45 37.09 9.60 36.99 C 8.20 36.25 5.41 34.77 4.01 34.03 C 4.03 26.09 10.86 20.44 17.51 17.39 C 19.03 14.86 20.69 12.42 22.44 10.04 M 6.21 32.92 C 6.71 33.20 7.73 33.75 8.23 34.03 C 9.64 35.53 13.49 36.46 12.45 39.09 C 10.74 39.20 9.04 39.33 7.34 39.46 C 9.79 42.21 12.64 44.55 15.83 46.40 C 21.79 47.95 27.95 47.69 34.04 47.44 C 35.04 47.01 36.04 46.58 37.05 46.16 C 42.40 44.06 46.87 40.38 51.37 36.90 C 51.44 35.74 51.51 34.57 51.58 33.41 C 51.20 33.44 50.45 33.50 50.07 33.53 C 48.00 31.29 46.18 28.82 43.89 26.79 C 41.09 26.15 38.26 25.59 35.41 25.24 L 35.68 24.30 C 34.22 24.40 32.76 24.50 31.30 24.60 L 31.75 23.41 C 29.95 23.40 28.14 23.39 26.34 23.38 C 28.28 28.83 27.62 34.66 26.12 40.13 L 26.84 40.12 C 25.22 40.57 23.97 41.86 22.58 42.75 C 23.01 42.27 23.87 41.30 24.29 40.81 C 24.30 40.17 24.33 38.89 24.34 38.25 C 26.93 33.67 25.01 28.17 24.34 23.30 C 20.39 23.27 16.43 23.32 12.49 23.68 C 13.57 22.94 14.65 22.19 15.72 21.43 C 11.01 23.53 5.80 27.04 6.21 32.92 Z" />
<path fill="#325279" opacity="0.98" d=" M 13.01 28.11 C 13.70 27.06 14.43 26.02 15.18 25.01 C 18.22 25.12 19.71 27.77 19.77 30.51 C 18.11 31.25 16.42 31.94 14.82 32.83 C 14.29 31.24 12.84 29.87 13.01 28.11 M 15.51 27.11 C 14.84 28.67 15.34 29.28 17.00 28.92 C 17.66 27.35 17.16 26.75 15.51 27.11 Z" />
</g>
<g id="#acd9f4ff">
<path fill="#acd9f4" opacity="1.00" d=" M 6.21 32.92 C 5.80 27.04 11.01 23.53 15.72 21.43 C 14.65 22.19 13.57 22.94 12.49 23.68 C 16.43 23.32 20.39 23.27 24.34 23.30 C 25.01 28.17 26.93 33.67 24.34 38.25 C 22.74 35.72 21.22 33.13 19.77 30.51 C 19.71 27.77 18.22 25.12 15.18 25.01 C 13.16 25.39 10.60 25.55 9.63 27.71 C 8.84 29.72 8.65 31.92 8.23 34.03 C 7.73 33.75 6.71 33.20 6.21 32.92 Z" />
<path fill="#acd9f4" opacity="1.00" d=" M 26.34 23.38 C 28.14 23.39 29.95 23.40 31.75 23.41 L 31.30 24.60 C 32.76 24.50 34.22 24.40 35.68 24.30 L 35.41 25.24 C 38.26 25.59 41.09 26.15 43.89 26.79 C 46.18 28.82 48.00 31.29 50.07 33.53 C 50.45 33.50 51.20 33.44 51.58 33.41 C 51.51 34.57 51.44 35.74 51.37 36.90 C 46.87 40.38 42.40 44.06 37.05 46.16 C 36.04 46.58 35.04 47.01 34.04 47.44 C 27.95 47.69 21.79 47.95 15.83 46.40 C 12.64 44.55 9.79 42.21 7.34 39.46 C 9.04 39.33 10.74 39.20 12.45 39.09 C 12.19 39.89 11.93 40.69 11.65 41.49 C 19.53 46.19 29.30 45.04 37.61 42.18 C 34.24 41.48 30.88 40.73 27.49 40.12 L 26.84 40.12 L 26.12 40.13 C 27.62 34.66 28.28 28.83 26.34 23.38 Z" />
</g>
<g id="#f2f8fcff">
<path fill="#f2f8fc" opacity="1.00" d=" M 9.63 27.71 C 10.60 25.55 13.16 25.39 15.18 25.01 C 14.43 26.02 13.70 27.06 13.01 28.11 C 12.84 29.87 14.29 31.24 14.82 32.83 C 16.42 31.94 18.11 31.25 19.77 30.51 C 21.22 33.13 22.74 35.72 24.34 38.25 C 24.33 38.89 24.30 40.17 24.29 40.81 C 23.87 41.30 23.01 42.27 22.58 42.75 C 23.97 41.86 25.22 40.57 26.84 40.12 L 27.49 40.12 C 30.88 40.73 34.24 41.48 37.61 42.18 C 29.30 45.04 19.53 46.19 11.65 41.49 C 11.93 40.69 12.19 39.89 12.45 39.09 C 13.49 36.46 9.64 35.53 8.23 34.03 C 8.65 31.92 8.84 29.72 9.63 27.71 Z" />
<path fill="#f2f8fc" opacity="1.00" d=" M 15.51 27.11 C 17.16 26.75 17.66 27.35 17.00 28.92 C 15.34 29.28 14.84 28.67 15.51 27.11 Z" />
</g>
</svg>
