<?xml version="1.0" encoding="UTF-8" ?>
<!DOCTYPE svg PUBLIC "-//W3C//DTD SVG 1.1//EN" "http://www.w3.org/Graphics/SVG/1.1/DTD/svg11.dtd">
<svg width="64pt" height="64pt" viewBox="0 0 64 64" version="1.1" xmlns="http://www.w3.org/2000/svg">
<g id="#772b36ff">
<path fill="#772b36" opacity="1.00" d=" M 11.97 17.98 C 13.67 11.00 19.74 5.41 26.83 4.28 C 32.85 3.61 39.52 3.59 44.63 7.34 C 50.53 11.13 52.65 18.32 53.56 24.89 C 54.46 31.92 52.21 39.48 46.97 44.38 C 42.43 47.97 36.97 50.95 30.97 50.35 C 24.52 50.39 19.10 46.36 14.85 41.91 C 9.52 35.21 9.28 25.82 11.97 17.98 M 15.44 14.43 C 12.37 20.98 11.10 28.91 14.17 35.70 C 15.24 37.98 16.41 41.08 19.49 40.62 C 20.68 41.73 21.78 42.96 23.15 43.86 C 25.32 45.22 27.67 43.67 29.81 43.03 C 29.06 44.50 28.56 46.06 28.11 47.64 C 30.67 48.41 33.34 48.43 35.89 47.59 C 35.45 46.06 34.97 44.55 34.25 43.12 C 36.54 43.78 39.28 45.41 41.38 43.46 C 43.27 41.46 45.69 40.24 48.02 38.90 C 53.29 31.35 52.24 20.89 47.67 13.27 C 40.68 2.36 21.58 2.93 15.44 14.43 Z" />
</g>
<g id="#a2444fff">
<path fill="#a2444f" opacity="1.00" d=" M 15.44 14.43 C 21.58 2.93 40.68 2.36 47.67 13.27 C 52.24 20.89 53.29 31.35 48.02 38.90 C 45.69 40.24 43.27 41.46 41.38 43.46 C 39.28 45.41 36.54 43.78 34.25 43.12 C 34.97 44.55 35.45 46.06 35.89 47.59 C 33.34 48.43 30.67 48.41 28.11 47.64 C 28.56 46.06 29.06 44.50 29.81 43.03 C 27.67 43.67 25.32 45.22 23.15 43.86 C 21.78 42.96 20.68 41.73 19.49 40.62 C 16.41 41.08 15.24 37.98 14.17 35.70 C 11.10 28.91 12.37 20.98 15.44 14.43 M 21.10 11.20 L 20.81 11.02 C 20.15 11.96 19.47 12.90 18.77 13.81 C 14.14 19.44 14.11 27.84 16.30 34.52 C 17.09 34.53 17.88 34.55 18.67 34.56 C 19.06 36.46 19.67 41.04 22.50 38.97 C 23.25 40.36 24.50 41.33 25.92 41.97 C 27.16 40.95 28.29 39.81 29.33 38.59 L 29.43 40.09 C 30.68 38.46 30.68 36.20 32.15 34.72 C 33.15 36.20 32.65 39.31 34.65 39.79 L 34.71 38.53 C 35.72 39.65 36.52 41.08 37.97 41.71 C 41.53 41.47 42.12 36.78 41.04 34.10 C 41.90 35.91 42.41 37.85 43.00 39.76 C 44.63 38.43 44.82 36.31 45.24 34.41 C 46.04 34.43 46.84 34.45 47.64 34.47 C 48.95 30.78 48.73 26.81 48.63 22.96 C 48.55 19.78 47.62 16.57 45.52 14.13 C 44.63 12.98 43.69 11.88 42.77 10.76 C 36.77 5.66 26.69 5.38 21.10 11.20 Z" />
</g>
<g id="#d28d92ff">
<path fill="#d28d92" opacity="1.00" d=" M 21.10 11.20 C 26.69 5.38 36.77 5.66 42.77 10.76 C 36.76 15.78 27.32 15.93 21.10 11.20 Z" />
</g>
<g id="#cb7271ff">
<path fill="#cb7271" opacity="1.00" d=" M 20.81 11.02 L 21.10 11.20 C 27.32 15.93 36.76 15.78 42.77 10.76 C 43.69 11.88 44.63 12.98 45.52 14.13 C 44.34 17.14 41.45 18.11 38.48 18.45 C 39.75 20.63 42.16 22.99 40.92 25.71 C 40.16 26.36 39.39 27.00 38.61 27.63 C 39.08 27.95 39.55 28.27 40.01 28.60 C 36.17 28.46 33.91 31.44 32.88 34.77 C 34.26 33.79 35.60 32.76 36.99 31.79 C 35.39 33.70 34.57 36.04 34.71 38.53 L 34.65 39.79 C 32.65 39.31 33.15 36.20 32.15 34.72 C 30.68 36.20 30.68 38.46 29.43 40.09 L 29.33 38.59 C 29.41 36.08 28.64 33.71 27.01 31.80 C 28.39 32.75 29.74 33.76 31.12 34.73 C 30.08 32.61 29.30 29.93 26.84 29.04 C 25.11 28.64 23.42 29.38 21.75 29.71 C 20.47 28.46 18.56 27.16 19.22 25.07 C 19.93 21.30 20.81 17.39 18.77 13.81 C 19.47 12.90 20.15 11.96 20.81 11.02 Z" />
</g>
<g id="#bf5f64ff">
<path fill="#bf5f64" opacity="1.00" d=" M 16.30 34.52 C 14.11 27.84 14.14 19.44 18.77 13.81 C 20.81 17.39 19.93 21.30 19.22 25.07 C 18.56 27.16 20.47 28.46 21.75 29.71 C 21.04 31.45 20.32 33.19 19.58 34.91 C 21.04 33.78 22.55 32.70 24.11 31.72 C 22.88 33.95 22.06 36.39 22.50 38.97 C 19.67 41.04 19.06 36.46 18.67 34.56 C 17.88 34.55 17.09 34.53 16.30 34.52 Z" />
</g>
<g id="#c26066ff">
<path fill="#c26066" opacity="1.00" d=" M 45.52 14.13 C 47.62 16.57 48.55 19.78 48.63 22.96 C 48.73 26.81 48.95 30.78 47.64 34.47 C 46.84 34.45 46.04 34.43 45.24 34.41 C 44.82 36.31 44.63 38.43 43.00 39.76 C 42.41 37.85 41.90 35.91 41.04 34.10 C 40.73 33.50 40.11 32.29 39.81 31.69 C 41.41 32.62 42.91 33.71 44.34 34.87 C 43.70 32.29 42.37 29.97 40.01 28.60 C 39.55 28.27 39.08 27.95 38.61 27.63 C 39.39 27.00 40.16 26.36 40.92 25.71 C 42.16 22.99 39.75 20.63 38.48 18.45 C 41.45 18.11 44.34 17.14 45.52 14.13 Z" />
</g>
<g id="#e69a99ff">
<path fill="#e69a99" opacity="1.00" d=" M 21.75 29.71 C 23.42 29.38 25.11 28.64 26.84 29.04 C 29.30 29.93 30.08 32.61 31.12 34.73 C 29.74 33.76 28.39 32.75 27.01 31.80 C 26.28 31.78 24.84 31.74 24.11 31.72 C 22.55 32.70 21.04 33.78 19.58 34.91 C 20.32 33.19 21.04 31.45 21.75 29.71 Z" />
<path fill="#e69a99" opacity="1.00" d=" M 32.88 34.77 C 33.91 31.44 36.17 28.46 40.01 28.60 C 42.37 29.97 43.70 32.29 44.34 34.87 C 42.91 33.71 41.41 32.62 39.81 31.69 C 39.10 31.71 37.70 31.77 36.99 31.79 C 35.60 32.76 34.26 33.79 32.88 34.77 Z" />
<path fill="#e69a99" opacity="1.00" d=" M 25.01 33.77 C 26.30 32.76 27.67 34.90 26.58 35.89 C 25.32 37.27 23.72 34.71 25.01 33.77 Z" />
<path fill="#e69a99" opacity="1.00" d=" M 38.31 33.51 C 39.94 33.55 39.75 36.38 38.14 36.26 C 36.61 36.06 36.73 33.46 38.31 33.51 Z" />
</g>
<g id="#383838ff">
<path fill="#383838" opacity="1.00" d=" M 24.11 31.72 C 24.84 31.74 26.28 31.78 27.01 31.80 C 28.64 33.71 29.41 36.08 29.33 38.59 C 28.29 39.81 27.16 40.95 25.92 41.97 C 24.50 41.33 23.25 40.36 22.50 38.97 C 22.06 36.39 22.88 33.95 24.11 31.72 M 25.01 33.77 C 23.72 34.71 25.32 37.27 26.58 35.89 C 27.67 34.90 26.30 32.76 25.01 33.77 Z" />
<path fill="#383838" opacity="1.00" d=" M 36.99 31.79 C 37.70 31.77 39.10 31.71 39.81 31.69 C 40.11 32.29 40.73 33.50 41.04 34.10 C 42.12 36.78 41.53 41.47 37.97 41.71 C 36.52 41.08 35.72 39.65 34.71 38.53 C 34.57 36.04 35.39 33.70 36.99 31.79 M 38.31 33.51 C 36.73 33.46 36.61 36.06 38.14 36.26 C 39.75 36.38 39.94 33.55 38.31 33.51 Z" />
</g>
<g id="#8f4348ff">
<path fill="#8f4348" opacity="1.00" d=" M 1.08 40.89 C 0.73 38.91 3.56 37.79 4.81 39.16 C 6.98 41.07 8.98 43.26 11.73 44.34 C 12.94 44.92 14.16 45.48 15.38 46.04 C 15.49 47.17 15.61 48.29 15.72 49.41 C 13.38 49.50 11.08 49.93 8.81 50.48 C 7.73 50.26 6.65 50.07 5.57 49.83 C 2.47 48.11 0.37 44.51 1.08 40.89 Z" />
<path fill="#8f4348" opacity="1.00" d=" M 48.64 44.86 C 53.40 45.10 56.62 41.39 59.93 38.61 C 63.77 37.94 63.07 42.59 62.74 44.96 C 61.68 46.82 60.42 48.88 58.43 49.82 C 57.34 50.08 56.25 50.28 55.16 50.51 C 52.93 50.00 50.68 49.55 48.40 49.39 C 48.47 47.88 48.55 46.37 48.64 44.86 Z" />
</g>
<g id="#4f1b21ff">
<path fill="#4f1b21" opacity="1.00" d=" M 14.85 41.91 C 19.10 46.36 24.52 50.39 30.97 50.35 C 36.97 50.95 42.43 47.97 46.97 44.38 L 48.64 44.86 C 48.55 46.37 48.47 47.88 48.40 49.39 C 50.68 49.55 52.93 50.00 55.16 50.51 C 52.14 52.71 47.90 54.02 44.73 51.30 C 44.32 50.99 43.48 50.36 43.06 50.04 C 40.74 50.30 38.52 51.01 36.39 51.94 C 35.84 55.00 38.49 57.06 40.93 58.21 C 45.85 59.17 50.95 58.70 55.83 57.72 C 48.18 62.91 34.79 60.95 32.00 51.05 C 30.44 56.30 25.47 60.12 20.01 60.34 C 15.99 60.51 11.51 60.30 8.20 57.74 C 13.06 58.71 18.14 59.15 23.04 58.23 C 25.20 57.05 28.75 54.98 27.26 52.03 C 25.43 50.65 23.13 50.34 20.92 50.05 C 20.47 50.39 19.56 51.07 19.11 51.41 C 15.94 54.03 11.79 52.64 8.81 50.48 C 11.08 49.93 13.38 49.50 15.72 49.41 C 15.61 48.29 15.49 47.17 15.38 46.04 C 14.16 45.48 12.94 44.92 11.73 44.34 C 13.45 44.69 15.18 44.77 16.92 44.59 C 16.40 43.92 15.37 42.58 14.85 41.91 Z" />
</g>
<g id="#d46469ff">
<path fill="#d46469" opacity="1.00" d=" M 5.57 49.83 C 6.65 50.07 7.73 50.26 8.81 50.48 C 11.79 52.64 15.94 54.03 19.11 51.41 C 19.82 52.37 20.54 53.33 21.24 54.29 C 17.02 58.54 11.07 54.70 6.10 55.41 L 5.47 55.49 C 4.81 53.72 3.73 51.32 5.57 49.83 Z" />
<path fill="#d46469" opacity="1.00" d=" M 55.16 50.51 C 56.25 50.28 57.34 50.08 58.43 49.82 C 60.29 51.35 59.16 53.77 58.50 55.57 L 57.78 55.39 C 53.32 54.67 48.72 57.78 44.31 55.58 C 42.08 54.86 44.02 52.50 44.73 51.30 C 47.90 54.02 52.14 52.71 55.16 50.51 Z" />
</g>
<g id="#a54e55ff">
<path fill="#a54e55" opacity="1.00" d=" M 19.11 51.41 C 19.56 51.07 20.47 50.39 20.92 50.05 C 23.13 50.34 25.43 50.65 27.26 52.03 C 28.75 54.98 25.20 57.05 23.04 58.23 C 18.14 59.15 13.06 58.71 8.20 57.74 C 7.10 57.46 6.23 56.58 6.10 55.41 C 11.07 54.70 17.02 58.54 21.24 54.29 C 20.54 53.33 19.82 52.37 19.11 51.41 Z" />
<path fill="#a54e55" opacity="1.00" d=" M 36.39 51.94 C 38.52 51.01 40.74 50.30 43.06 50.04 C 43.48 50.36 44.32 50.99 44.73 51.30 C 44.02 52.50 42.08 54.86 44.31 55.58 C 48.72 57.78 53.32 54.67 57.78 55.39 C 58.10 56.69 56.81 57.38 55.83 57.72 C 50.95 58.70 45.85 59.17 40.93 58.21 C 38.49 57.06 35.84 55.00 36.39 51.94 Z" />
</g>
</svg>
