<?xml version="1.0" encoding="UTF-8" ?>
<!DOCTYPE svg PUBLIC "-//W3C//DTD SVG 1.1//EN" "http://www.w3.org/Graphics/SVG/1.1/DTD/svg11.dtd">
<svg width="64pt" height="64pt" viewBox="0 0 64 64" version="1.1" xmlns="http://www.w3.org/2000/svg">
<g id="#efe1c6ff">
<path fill="#efe1c6" opacity="1.00" d=" M 19.23 10.76 C 21.04 10.66 22.85 10.64 24.65 10.57 L 24.13 11.48 C 25.28 11.59 26.43 11.65 27.59 11.63 C 27.52 12.14 27.39 13.16 27.32 13.66 C 27.88 13.60 28.99 13.47 29.55 13.40 L 29.17 14.71 L 30.39 14.58 C 30.42 16.37 30.44 18.17 30.43 19.97 L 32.35 17.16 L 27.45 27.33 C 27.46 16.97 35.13 20.21 40.52 19.31 L 37.60 17.84 C 39.21 18.23 42.42 18.99 44.03 19.38 C 43.01 18.98 40.97 18.20 39.96 17.81 C 42.63 17.52 45.32 17.38 48.01 17.34 L 47.13 15.66 C 48.30 18.49 51.67 17.03 53.92 17.67 L 50.92 18.51 C 52.12 18.48 54.51 18.42 55.71 18.39 L 55.14 19.07 C 56.88 19.67 58.57 20.98 58.86 22.92 L 59.49 22.24 C 59.42 28.98 59.39 35.72 59.72 42.46 L 58.62 38.18 C 58.46 42.52 58.50 46.87 58.97 51.19 L 57.62 45.33 C 57.42 49.77 57.70 54.21 57.57 58.65 C 56.18 58.79 54.77 58.72 53.41 58.35 C 53.47 57.27 53.47 56.19 53.42 55.11 L 53.33 53.98 C 53.31 53.13 53.29 51.42 53.28 50.56 L 52.65 53.03 L 51.99 45.51 L 51.42 50.71 C 50.40 49.60 49.34 48.53 48.26 47.49 L 51.09 44.96 L 48.38 46.48 C 42.49 46.45 36.56 46.82 30.70 45.89 L 39.06 47.81 C 35.92 47.56 32.79 47.48 29.65 47.48 C 29.58 48.22 29.45 49.69 29.38 50.42 L 27.75 50.67 L 25.15 48.79 C 25.96 49.96 27.56 52.30 28.36 53.47 L 26.42 50.96 C 26.47 52.13 26.55 54.46 26.59 55.63 C 24.77 55.55 22.94 55.40 21.15 55.05 C 22.94 54.82 26.53 54.37 28.32 54.15 C 26.28 53.82 22.19 53.16 20.14 52.83 L 26.85 51.96 L 19.63 51.40 L 23.50 49.91 C 22.31 50.04 19.93 50.30 18.74 50.43 C 18.67 49.10 18.52 46.43 18.45 45.10 L 17.03 49.53 C 17.37 47.82 18.07 44.39 18.41 42.68 C 17.98 43.82 17.13 46.11 16.70 47.25 C 17.37 44.33 14.81 40.25 18.28 38.38 L 16.23 39.69 L 14.67 39.44 C 15.09 38.41 15.93 36.36 16.35 35.34 L 14.26 36.60 L 12.49 36.48 C 12.97 35.24 13.92 32.75 14.40 31.50 C 13.72 32.28 12.37 33.85 11.69 34.64 C 11.59 32.94 11.40 29.56 11.30 27.86 L 10.02 31.70 C 10.19 30.61 10.51 28.44 10.68 27.35 C 9.65 27.37 7.60 27.42 6.57 27.44 C 6.42 26.06 6.13 23.30 5.98 21.91 C 5.76 23.44 5.31 26.49 5.08 28.02 C 4.71 26.21 4.19 24.37 4.45 22.51 C 6.02 20.16 9.77 18.61 8.25 15.25 L 11.64 18.23 L 8.84 14.61 C 10.65 14.53 14.27 14.35 16.08 14.27 L 10.58 12.97 C 12.61 13.15 14.64 13.37 16.67 13.62 L 16.50 12.40 C 17.32 12.39 18.95 12.37 19.77 12.36 C 19.64 11.96 19.37 11.16 19.23 10.76 Z" />
</g>
</svg>
