<?xml version="1.0" encoding="UTF-8" ?>
<!DOCTYPE svg PUBLIC "-//W3C//DTD SVG 1.1//EN" "http://www.w3.org/Graphics/SVG/1.1/DTD/svg11.dtd">
<svg width="64pt" height="64pt" viewBox="0 0 64 64" version="1.1" xmlns="http://www.w3.org/2000/svg">
<g id="#0d0d0dff">
<path fill="#0d0d0d" opacity="1.00" d=" M 4.79 3.98 C 10.95 4.26 17.52 7.55 20.16 13.35 C 21.15 13.55 22.14 13.75 23.14 13.95 C 20.61 14.11 18.10 14.46 15.62 14.95 C 15.54 14.52 15.38 13.67 15.29 13.25 C 10.83 10.66 5.62 10.24 0.58 10.09 C 7.08 8.55 13.42 11.19 19.09 14.12 C 17.40 7.89 10.37 5.55 4.79 3.98 Z" />
<path fill="#0d0d0d" opacity="1.00" d=" M 8.53 23.50 C 6.56 22.33 7.71 20.18 8.37 18.60 C 8.54 19.26 8.87 20.58 9.04 21.23 C 12.28 25.35 17.98 23.13 22.26 22.39 C 23.10 24.54 23.53 27.09 25.49 28.56 C 29.37 31.65 33.41 34.54 37.49 37.37 C 37.61 41.17 37.75 44.98 38.02 48.78 L 38.83 48.77 C 45.89 49.58 52.89 50.81 60.02 50.83 L 60.87 51.52 C 55.94 51.86 51.01 51.41 46.10 51.12 C 46.26 51.88 46.57 53.40 46.73 54.17 C 46.21 53.09 45.69 52.02 45.17 50.94 C 43.25 50.61 41.34 50.26 39.42 49.90 C 40.12 53.78 41.46 57.49 42.86 61.16 C 38.84 56.61 37.93 50.46 35.06 45.29 C 34.52 45.56 33.44 46.10 32.90 46.38 C 31.47 43.59 31.06 40.15 28.46 38.12 C 28.42 45.05 28.53 52.16 26.44 58.85 C 26.11 50.80 27.45 42.58 25.14 34.70 C 26.83 35.22 28.50 35.77 30.18 36.30 C 29.23 33.98 26.45 31.75 23.97 33.38 C 23.48 32.77 22.49 31.57 22.00 30.96 C 18.95 38.37 15.61 45.99 10.15 51.97 C 13.66 43.70 19.25 35.98 20.04 26.82 C 20.51 26.82 21.43 26.82 21.90 26.82 C 21.84 26.22 21.72 25.02 21.66 24.41 C 17.36 25.02 12.43 25.87 8.53 23.50 Z" />
</g>
<g id="#424242ff">
<path fill="#424242" opacity="1.00" d=" M 15.62 14.95 C 18.10 14.46 20.61 14.11 23.14 13.95 C 23.44 14.23 24.03 14.80 24.33 15.08 C 22.25 15.24 20.16 15.44 18.13 15.97 C 17.56 16.14 16.40 16.47 15.83 16.64 C 15.84 17.41 15.87 18.93 15.89 19.70 C 13.57 20.04 11.30 20.64 9.04 21.23 C 8.87 20.58 8.54 19.26 8.37 18.60 C 9.09 17.92 9.91 17.46 10.85 17.20 C 11.92 17.00 12.77 16.46 13.41 15.56 C 13.96 15.41 15.06 15.10 15.62 14.95 Z" />
</g>
<g id="#171717af">
<path fill="#171717" opacity="0.69" d=" M 10.85 17.20 C 10.85 15.50 11.70 14.95 13.41 15.56 C 12.77 16.46 11.92 17.00 10.85 17.20 Z" />
</g>
<g id="#707070ff">
<path fill="#707070" opacity="1.00" d=" M 18.13 15.97 C 20.16 15.44 22.25 15.24 24.33 15.08 C 24.65 15.06 25.31 15.02 25.63 15.00 C 24.85 16.13 24.07 17.26 23.29 18.39 C 22.03 18.69 20.77 18.99 19.49 19.23 C 19.06 18.14 18.60 17.05 18.13 15.97 Z" />
</g>
<g id="#b6b6b6ff">
<path fill="#b6b6b6" opacity="1.00" d=" M 15.83 16.64 C 16.40 16.47 17.56 16.14 18.13 15.97 C 18.60 17.05 19.06 18.14 19.49 19.23 C 18.29 19.40 17.09 19.55 15.89 19.70 C 15.87 18.93 15.84 17.41 15.83 16.64 Z" />
</g>
<g id="#282828ff">
<path fill="#282828" opacity="1.00" d=" M 25.63 15.00 C 26.78 17.07 26.87 19.44 25.55 21.47 C 27.18 21.59 28.87 21.76 30.24 22.77 C 28.70 23.19 27.15 23.60 25.61 24.01 C 27.15 26.28 28.76 28.88 31.86 29.00 C 31.49 27.26 31.11 25.51 30.72 23.77 C 32.08 25.26 33.11 27.08 33.20 29.14 C 33.34 30.18 33.53 31.21 33.78 32.23 C 35.62 33.20 37.56 34.02 39.08 35.50 C 40.31 35.56 41.54 35.62 42.77 35.68 C 42.96 34.54 43.16 33.40 43.36 32.26 C 43.87 33.39 44.01 34.95 45.41 35.38 C 49.40 37.10 53.11 39.71 55.44 43.46 L 54.10 42.70 C 51.47 40.59 49.16 37.93 45.94 36.70 C 43.68 35.73 41.21 36.50 38.95 37.00 C 38.58 37.09 37.85 37.28 37.49 37.37 C 33.41 34.54 29.37 31.65 25.49 28.56 C 23.53 27.09 23.10 24.54 22.26 22.39 C 17.98 23.13 12.28 25.35 9.04 21.23 C 11.30 20.64 13.57 20.04 15.89 19.70 C 17.09 19.55 18.29 19.40 19.49 19.23 C 20.77 18.99 22.03 18.69 23.29 18.39 C 24.07 17.26 24.85 16.13 25.63 15.00 Z" />
</g>
<g id="#595957ff">
<path fill="#595957" opacity="1.00" d=" M 25.61 24.01 C 27.15 23.60 28.70 23.19 30.24 22.77 L 30.47 22.71 C 30.53 22.97 30.66 23.50 30.72 23.77 C 31.11 25.51 31.49 27.26 31.86 29.00 C 28.76 28.88 27.15 26.28 25.61 24.01 Z" />
</g>
<g id="#050504a8">
<path fill="#050504" opacity="0.66" d=" M 33.20 29.14 C 33.71 30.92 35.35 31.36 36.99 30.78 C 37.54 32.10 38.04 33.44 38.56 34.77 C 39.70 32.98 40.91 30.54 43.50 31.44 L 43.36 32.26 C 43.16 33.40 42.96 34.54 42.77 35.68 C 41.54 35.62 40.31 35.56 39.08 35.50 C 37.56 34.02 35.62 33.20 33.78 32.23 C 33.53 31.21 33.34 30.18 33.20 29.14 Z" />
</g>
<g id="#333232ff">
<path fill="#333232" opacity="1.00" d=" M 37.49 37.37 C 37.85 37.28 38.58 37.09 38.95 37.00 C 40.21 40.01 42.59 42.27 45.09 44.27 C 48.46 44.54 51.79 45.12 55.09 45.81 C 54.85 45.03 54.35 43.48 54.10 42.70 L 55.44 43.46 C 56.49 44.22 57.06 45.47 57.87 46.46 C 52.86 48.63 47.41 47.09 42.35 45.95 C 41.19 46.91 40.04 47.87 38.83 48.77 L 38.02 48.78 C 37.75 44.98 37.61 41.17 37.49 37.37 Z" />
</g>
<g id="#787877ff">
<path fill="#787877" opacity="1.00" d=" M 38.95 37.00 C 41.21 36.50 43.68 35.73 45.94 36.70 C 49.16 37.93 51.47 40.59 54.10 42.70 C 54.35 43.48 54.85 45.03 55.09 45.81 C 51.79 45.12 48.46 44.54 45.09 44.27 C 42.59 42.27 40.21 40.01 38.95 37.00 Z" />
</g>
<g id="#1f1f1dff">
<path fill="#1f1f1d" opacity="1.00" d=" M 42.35 45.95 C 47.41 47.09 52.86 48.63 57.87 46.46 C 58.62 47.89 59.37 49.34 60.02 50.83 C 52.89 50.81 45.89 49.58 38.83 48.77 C 40.04 47.87 41.19 46.91 42.35 45.95 Z" />
</g>
</svg>
