<?xml version="1.0" encoding="UTF-8" ?>
<!DOCTYPE svg PUBLIC "-//W3C//DTD SVG 1.1//EN" "http://www.w3.org/Graphics/SVG/1.1/DTD/svg11.dtd">
<svg width="64pt" height="64pt" viewBox="0 0 64 64" version="1.1" xmlns="http://www.w3.org/2000/svg">
<g id="#e0d1cffa">
<path fill="#e0d1cf" opacity="0.98" d=" M 6.96 6.03 C 7.14 2.48 12.76 5.76 13.95 5.07 C 17.17 5.93 19.19 9.62 23.21 8.15 L 22.74 8.75 C 19.80 10.31 16.21 11.32 14.35 14.30 C 13.79 16.92 12.23 19.85 13.94 22.36 L 14.15 23.10 C 13.49 23.50 12.25 26.12 11.73 24.38 C 9.74 22.12 13.29 14.60 8.16 16.78 C 6.62 13.43 7.16 9.61 6.96 6.03 Z" />
</g>
<g id="#c1b0aefd">
<path fill="#c1b0ae" opacity="1.00" d=" M 6.01 6.01 L 6.96 6.03 C 7.16 9.61 6.62 13.43 8.16 16.78 C 13.29 14.60 9.74 22.12 11.73 24.38 C 12.25 26.12 13.49 23.50 14.15 23.10 C 15.18 33.79 23.54 42.80 34.16 44.29 C 34.26 47.03 31.42 45.60 29.86 45.25 C 21.85 43.27 16.45 36.54 13.85 29.08 C 13.44 27.48 11.45 27.54 10.30 26.73 C 9.45 24.50 9.33 21.97 8.11 19.91 C 7.88 19.62 7.44 19.04 7.21 18.76 C 4.71 15.25 6.43 10.12 6.01 6.01 Z" />
</g>
<g id="#f1e3e1ff">
<path fill="#f1e3e1" opacity="1.00" d=" M 14.35 14.30 C 16.21 11.32 19.80 10.31 22.74 8.75 C 23.95 9.13 24.80 9.93 25.30 11.16 C 23.16 12.86 20.91 14.44 19.11 16.50 C 17.16 18.24 15.40 20.19 13.94 22.36 C 12.23 19.85 13.79 16.92 14.35 14.30 Z" />
</g>
<g id="#e3d5d3fd">
<path fill="#e3d5d3" opacity="1.00" d=" M 25.30 11.16 C 29.18 10.58 34.49 12.37 36.75 14.99 C 36.74 19.16 40.15 22.72 39.23 27.19 C 40.17 25.59 40.35 23.69 40.93 21.95 C 41.73 21.97 43.32 21.99 44.12 22.01 C 43.40 22.62 42.71 23.27 42.06 23.94 C 43.07 32.36 34.29 39.74 39.21 48.25 C 39.46 48.73 39.98 49.69 40.24 50.17 C 40.45 50.48 40.88 51.11 41.09 51.42 C 42.49 53.13 45.03 56.56 43.36 48.37 C 46.34 43.41 51.43 40.22 55.94 36.81 C 55.82 35.57 55.59 33.09 55.48 31.85 C 55.19 31.37 54.62 30.39 54.33 29.91 C 53.73 29.21 53.09 28.54 52.41 27.92 C 51.64 27.18 50.84 26.49 50.01 25.83 C 50.27 25.59 50.80 25.11 51.06 24.87 C 54.95 25.42 57.82 31.04 58.02 34.98 C 58.01 37.99 57.99 41.00 58.02 44.01 C 58.14 48.49 56.17 52.96 52.79 55.90 C 51.92 56.39 51.04 56.87 50.16 57.32 C 48.41 57.26 44.92 57.12 43.17 57.05 C 40.43 54.90 37.96 52.42 35.83 49.66 C 35.70 48.71 35.54 47.77 35.34 46.84 C 35.11 45.48 34.90 44.12 34.71 42.76 C 35.04 40.89 37.40 36.48 33.97 39.03 C 36.64 31.70 37.47 21.55 30.70 16.18 C 27.17 15.05 22.55 16.49 20.99 20.00 C 14.95 28.10 24.64 40.91 33.97 39.03 C 33.94 39.79 33.88 41.29 33.86 42.05 C 24.57 41.34 15.23 32.87 16.97 23.00 C 16.91 20.60 19.73 18.91 19.11 16.50 C 20.91 14.44 23.16 12.86 25.30 11.16 Z" />
</g>
<g id="#beacabf2">
<path fill="#beacab" opacity="0.95" d=" M 36.75 14.99 C 39.25 15.43 40.47 19.71 40.93 21.95 C 40.35 23.69 40.17 25.59 39.23 27.19 C 40.15 22.72 36.74 19.16 36.75 14.99 Z" />
</g>
<g id="#f5e6e4ff">
<path fill="#f5e6e4" opacity="1.00" d=" M 20.99 20.00 C 22.55 16.49 27.17 15.05 30.70 16.18 C 37.47 21.55 36.64 31.70 33.97 39.03 C 24.64 40.91 14.95 28.10 20.99 20.00 Z" />
</g>
<g id="#d8c5c3ff">
<path fill="#d8c5c3" opacity="1.00" d=" M 13.94 22.36 C 15.40 20.19 17.16 18.24 19.11 16.50 C 19.73 18.91 16.91 20.60 16.97 23.00 C 15.23 32.87 24.57 41.34 33.86 42.05 C 33.88 41.29 33.94 39.79 33.97 39.03 C 37.40 36.48 35.04 40.89 34.71 42.76 C 34.57 43.15 34.30 43.91 34.16 44.29 C 23.54 42.80 15.18 33.79 14.15 23.10 L 13.94 22.36 Z" />
</g>
<g id="#706665b9">
<path fill="#706665" opacity="0.73" d=" M 7.21 18.76 C 7.44 19.04 7.88 19.62 8.11 19.91 C 8.09 21.67 8.05 25.20 8.03 26.97 C 5.72 26.19 7.49 21.18 7.21 18.76 Z" />
</g>
<g id="#a89796fe">
<path fill="#a89796" opacity="1.00" d=" M 8.11 19.91 C 9.33 21.97 9.45 24.50 10.30 26.73 C 11.45 27.54 13.44 27.48 13.85 29.08 C 16.45 36.54 21.85 43.27 29.86 45.25 C 31.42 45.60 34.26 47.03 34.16 44.29 C 34.30 43.91 34.57 43.15 34.71 42.76 C 34.90 44.12 35.11 45.48 35.34 46.84 C 28.95 49.66 21.73 44.02 17.74 39.26 C 14.74 36.52 14.07 31.20 10.11 29.88 C 8.73 29.74 8.54 27.98 8.03 26.97 C 8.05 25.20 8.09 21.67 8.11 19.91 Z" />
</g>
<g id="#beb4b2e5">
<path fill="#beb4b2" opacity="0.90" d=" M 44.12 22.01 C 46.47 22.25 49.95 22.50 51.06 24.87 C 50.80 25.11 50.27 25.59 50.01 25.83 L 49.39 25.58 C 47.14 24.33 44.62 23.81 42.06 23.94 C 42.71 23.27 43.40 22.62 44.12 22.01 Z" />
</g>
<g id="#615a59ff">
<path fill="#615a59" opacity="1.00" d=" M 42.06 23.94 C 44.62 23.81 47.14 24.33 49.39 25.58 C 50.52 31.46 41.42 33.14 41.94 39.12 C 40.37 41.94 39.95 45.15 39.21 48.25 C 34.29 39.74 43.07 32.36 42.06 23.94 Z" />
</g>
<g id="#7b7371ff">
<path fill="#7b7371" opacity="1.00" d=" M 49.39 25.58 L 50.01 25.83 C 50.84 26.49 51.64 27.18 52.41 27.92 C 49.78 32.25 44.97 34.95 41.94 39.12 C 41.42 33.14 50.52 31.46 49.39 25.58 Z" />
</g>
<g id="#928887ff">
<path fill="#928887" opacity="1.00" d=" M 52.41 27.92 C 53.09 28.54 53.73 29.21 54.33 29.91 C 49.16 36.47 39.58 40.14 40.24 50.17 C 39.98 49.69 39.46 48.73 39.21 48.25 C 39.95 45.15 40.37 41.94 41.94 39.12 C 44.97 34.95 49.78 32.25 52.41 27.92 Z" />
</g>
<g id="#948482fe">
<path fill="#948482" opacity="1.00" d=" M 10.11 29.88 C 14.07 31.20 14.74 36.52 17.74 39.26 C 21.73 44.02 28.95 49.66 35.34 46.84 C 35.54 47.77 35.70 48.71 35.83 49.66 C 35.79 50.74 35.83 51.83 35.82 52.92 C 32.38 49.33 27.06 49.57 23.00 46.99 C 17.90 43.77 14.69 38.54 11.32 33.69 C 10.89 32.43 10.50 31.15 10.11 29.88 Z" />
</g>
<g id="#b1a5a3ff">
<path fill="#b1a5a3" opacity="1.00" d=" M 54.33 29.91 C 54.62 30.39 55.19 31.37 55.48 31.85 C 53.04 37.22 45.83 38.81 43.21 44.13 C 42.56 46.58 41.98 49.05 41.09 51.42 C 40.88 51.11 40.45 50.48 40.24 50.17 C 39.58 40.14 49.16 36.47 54.33 29.91 Z" />
</g>
<g id="#cdc0beff">
<path fill="#cdc0be" opacity="1.00" d=" M 55.48 31.85 C 55.59 33.09 55.82 35.57 55.94 36.81 C 51.43 40.22 46.34 43.41 43.36 48.37 C 45.03 56.56 42.49 53.13 41.09 51.42 C 41.98 49.05 42.56 46.58 43.21 44.13 C 45.83 38.81 53.04 37.22 55.48 31.85 Z" />
</g>
<g id="#807170fd">
<path fill="#807170" opacity="1.00" d=" M 11.32 33.69 C 14.69 38.54 17.90 43.77 23.00 46.99 C 27.06 49.57 32.38 49.33 35.82 52.92 C 35.83 51.83 35.79 50.74 35.83 49.66 C 37.96 52.42 40.43 54.90 43.17 57.05 C 42.44 57.14 40.98 57.30 40.25 57.38 C 39.49 57.24 37.97 56.97 37.21 56.84 C 33.19 53.34 27.59 53.36 22.99 51.00 C 18.98 48.81 16.47 44.81 12.97 41.99 C 11.02 39.84 10.66 36.49 11.32 33.69 Z" />
</g>
<g id="#7e77769a">
<path fill="#7e7776" opacity="0.60" d=" M 58.02 34.98 C 61.25 35.13 58.24 41.54 58.96 43.97 L 58.02 44.01 C 57.99 41.00 58.01 37.99 58.02 34.98 Z" />
</g>
<g id="#6e6160f5">
<path fill="#6e6160" opacity="0.96" d=" M 12.97 41.99 C 16.47 44.81 18.98 48.81 22.99 51.00 C 27.59 53.36 33.19 53.34 37.21 56.84 C 34.40 56.95 31.60 57.06 28.79 57.18 C 27.64 56.82 26.54 56.37 25.41 55.97 C 24.88 55.78 23.82 55.40 23.29 55.21 C 18.75 52.09 13.37 47.89 12.97 41.99 Z" />
</g>
<g id="#04040442">
<path fill="#040404" opacity="0.26" d=" M 23.29 55.21 C 23.82 55.40 24.88 55.78 25.41 55.97 C 24.04 56.47 21.32 57.45 19.96 57.94 C 21.27 58.16 23.88 58.62 25.19 58.85 C 22.05 58.70 18.91 58.52 15.84 57.83 C 16.83 57.03 18.11 56.76 19.26 56.28 C 20.61 55.93 21.96 55.62 23.29 55.21 Z" />
</g>
<g id="#0202021f">
<path fill="#020202" opacity="0.12" d=" M 8.99 57.16 C 12.21 55.79 15.84 55.83 19.26 56.28 C 18.11 56.76 16.83 57.03 15.84 57.83 C 18.91 58.52 22.05 58.70 25.19 58.85 C 31.04 58.43 37.57 60.42 43.11 57.91 C 45.72 58.96 48.07 58.76 50.16 57.32 C 51.04 56.87 51.92 56.39 52.79 55.90 C 53.09 56.40 53.71 57.38 54.02 57.87 C 39.68 60.97 24.70 60.65 10.19 58.79 C 9.89 58.38 9.29 57.57 8.99 57.16 Z" />
</g>
<g id="#0403035e">
<path fill="#040303" opacity="0.37" d=" M 25.41 55.97 C 26.54 56.37 27.64 56.82 28.79 57.18 C 32.51 58.46 36.46 57.96 40.25 57.38 C 40.98 57.30 42.44 57.14 43.17 57.05 L 43.11 57.91 C 37.57 60.42 31.04 58.43 25.19 58.85 C 23.88 58.62 21.27 58.16 19.96 57.94 C 21.32 57.45 24.04 56.47 25.41 55.97 Z" />
</g>
<g id="#37302fb9">
<path fill="#37302f" opacity="0.73" d=" M 28.79 57.18 C 31.60 57.06 34.40 56.95 37.21 56.84 C 37.97 56.97 39.49 57.24 40.25 57.38 C 36.46 57.96 32.51 58.46 28.79 57.18 Z" />
</g>
<g id="#8a7b7adf">
<path fill="#8a7b7a" opacity="0.87" d=" M 43.17 57.05 C 44.92 57.12 48.41 57.26 50.16 57.32 C 48.07 58.76 45.72 58.96 43.11 57.91 L 43.17 57.05 Z" />
</g>
</svg>
