<?xml version="1.0" encoding="UTF-8" ?>
<!DOCTYPE svg PUBLIC "-//W3C//DTD SVG 1.1//EN" "http://www.w3.org/Graphics/SVG/1.1/DTD/svg11.dtd">
<svg width="64pt" height="64pt" viewBox="0 0 64 64" version="1.1" xmlns="http://www.w3.org/2000/svg">
<g id="#120d07ff">
<path fill="#120d07" opacity="1.00" d=" M 36.31 12.30 C 40.41 8.72 44.58 3.74 50.53 3.93 C 50.66 5.70 50.78 7.47 50.89 9.24 C 46.49 11.04 41.80 11.97 37.12 12.71 C 36.92 12.61 36.52 12.40 36.31 12.30 Z" />
</g>
<g id="#251d15ff">
<path fill="#251d15" opacity="1.00" d=" M 50.89 9.24 C 53.54 8.20 56.16 6.82 59.07 6.77 C 59.76 7.66 60.25 8.68 60.53 9.82 C 61.14 9.88 62.34 9.99 62.94 10.05 C 63.01 24.94 63.09 39.85 62.91 54.74 C 62.18 56.37 61.36 57.97 60.54 59.56 C 59.48 59.55 58.42 59.53 57.36 59.52 C 55.64 55.85 53.78 52.24 51.33 49.00 C 54.55 47.28 60.05 47.31 60.65 42.88 C 62.78 32.81 63.24 22.27 61.35 12.13 C 60.42 14.34 59.59 16.59 58.62 18.78 C 56.50 20.83 53.87 22.18 51.14 23.23 C 52.47 18.77 55.46 14.71 54.78 9.83 C 51.41 10.53 48.19 11.74 45.14 13.32 C 41.62 12.13 38.12 13.33 35.24 15.43 C 30.97 18.04 27.63 21.85 24.70 25.84 C 22.46 29.08 18.80 30.75 15.46 32.60 C 14.78 32.73 13.42 32.99 12.74 33.12 C 13.37 32.77 14.63 32.08 15.26 31.74 C 14.63 29.10 14.63 26.38 14.87 23.69 C 16.09 25.91 17.44 28.05 18.95 30.09 C 23.10 27.46 24.98 22.75 28.35 19.38 C 30.86 16.66 34.04 14.70 37.12 12.71 C 41.80 11.97 46.49 11.04 50.89 9.24 Z" />
</g>
<g id="#655040ff">
<path fill="#655040" opacity="1.00" d=" M 45.14 13.32 C 48.19 11.74 51.41 10.53 54.78 9.83 C 55.46 14.71 52.47 18.77 51.14 23.23 C 53.87 22.18 56.50 20.83 58.62 18.78 C 59.92 23.43 61.42 28.58 59.37 33.26 C 58.36 36.04 55.26 36.92 52.81 37.99 C 47.25 40.03 41.65 42.31 35.68 42.76 C 34.39 42.65 33.10 42.50 31.81 42.32 C 30.94 41.58 30.08 40.83 29.25 40.05 C 38.24 38.54 46.88 35.01 54.06 29.35 C 53.13 26.08 49.83 24.64 47.62 22.38 C 45.24 20.01 43.25 17.30 41.05 14.78 C 39.11 14.98 37.17 15.17 35.24 15.43 C 38.12 13.33 41.62 12.13 45.14 13.32 Z" />
</g>
<g id="#47382bff">
<path fill="#47382b" opacity="1.00" d=" M 58.62 18.78 C 59.59 16.59 60.42 14.34 61.35 12.13 C 63.24 22.27 62.78 32.81 60.65 42.88 C 60.05 47.31 54.55 47.28 51.33 49.00 C 46.83 51.05 41.82 50.52 37.03 50.52 C 31.10 50.41 25.27 51.76 19.35 51.65 C 20.16 50.57 20.96 49.48 21.84 48.45 L 22.69 47.65 C 27.35 48.16 34.23 48.57 35.68 42.76 C 41.65 42.31 47.25 40.03 52.81 37.99 C 55.26 36.92 58.36 36.04 59.37 33.26 C 61.42 28.58 59.92 23.43 58.62 18.78 Z" />
</g>
<g id="#7e6854ff">
<path fill="#7e6854" opacity="1.00" d=" M 35.24 15.43 C 37.17 15.17 39.11 14.98 41.05 14.78 C 43.25 17.30 45.24 20.01 47.62 22.38 C 49.83 24.64 53.13 26.08 54.06 29.35 C 46.88 35.01 38.24 38.54 29.25 40.05 C 28.59 39.22 28.00 38.33 27.43 37.44 C 33.40 35.90 40.28 34.50 44.19 29.26 C 45.58 25.12 42.88 20.79 40.27 17.71 C 38.29 14.97 35.06 17.99 32.93 19.13 C 29.65 22.18 26.88 25.71 24.31 29.36 C 24.14 29.62 23.81 30.14 23.64 30.39 C 19.21 32.27 14.67 34.44 11.78 38.46 C 15.38 38.65 18.99 38.48 22.59 38.63 C 22.80 39.20 23.23 40.34 23.44 40.91 C 21.34 41.49 19.24 42.07 17.14 42.66 C 16.90 42.46 16.42 42.06 16.18 41.85 C 16.32 42.58 16.60 44.04 16.73 44.77 C 15.21 44.46 13.57 44.44 12.14 43.76 C 9.99 41.91 8.78 39.27 7.32 36.89 C 10.12 35.63 12.85 34.21 15.46 32.60 C 18.80 30.75 22.46 29.08 24.70 25.84 C 27.63 21.85 30.97 18.04 35.24 15.43 Z" />
</g>
<g id="#9e826dff">
<path fill="#9e826d" opacity="1.00" d=" M 32.93 19.13 C 35.06 17.99 38.29 14.97 40.27 17.71 C 42.88 20.79 45.58 25.12 44.19 29.26 C 40.28 34.50 33.40 35.90 27.43 37.44 C 26.79 36.27 26.21 35.08 25.71 33.86 C 27.71 33.38 29.72 32.94 31.72 32.45 C 33.66 31.76 34.76 30.11 35.46 28.26 C 35.85 28.69 36.63 29.54 37.01 29.97 C 37.71 27.48 39.32 24.79 37.99 22.24 C 37.24 20.12 34.66 20.01 32.93 19.13 Z" />
</g>
<g id="#b39782ff">
<path fill="#b39782" opacity="1.00" d=" M 24.31 29.36 C 26.88 25.71 29.65 22.18 32.93 19.13 C 34.66 20.01 37.24 20.12 37.99 22.24 C 39.32 24.79 37.71 27.48 37.01 29.97 C 36.63 29.54 35.85 28.69 35.46 28.26 C 34.34 27.15 33.15 26.10 31.96 25.06 C 30.24 26.28 28.11 28.10 29.40 30.43 C 29.98 30.93 31.14 31.95 31.72 32.45 C 29.72 32.94 27.71 33.38 25.71 33.86 C 25.21 32.37 24.76 30.86 24.31 29.36 Z" />
</g>
<g id="#000000ff">
<path fill="#000000" opacity="1.00" d=" M 29.40 30.43 C 28.11 28.10 30.24 26.28 31.96 25.06 C 33.15 26.10 34.34 27.15 35.46 28.26 C 34.76 30.11 33.66 31.76 31.72 32.45 C 31.14 31.95 29.98 30.93 29.40 30.43 M 30.69 27.73 C 31.57 29.06 32.45 29.06 33.31 27.72 C 32.98 27.44 32.32 26.89 31.99 26.61 C 31.67 26.89 31.01 27.45 30.69 27.73 Z" />
<path fill="#000000" opacity="1.00" d=" M 31.81 42.32 C 33.10 42.50 34.39 42.65 35.68 42.76 C 34.23 48.57 27.35 48.16 22.69 47.65 C 22.34 47.26 21.65 46.48 21.31 46.10 C 22.44 45.38 23.57 44.66 24.71 43.95 C 25.70 44.94 26.72 45.91 27.91 46.65 C 30.22 46.72 32.21 44.65 31.81 42.32 Z" />
</g>
<g id="#f8f9f9ff">
<path fill="#f8f9f9" opacity="1.00" d=" M 30.69 27.73 C 31.01 27.45 31.67 26.89 31.99 26.61 C 32.32 26.89 32.98 27.44 33.31 27.72 C 32.45 29.06 31.57 29.06 30.69 27.73 Z" />
<path fill="#f8f9f9" opacity="1.00" d=" M 24.31 29.36 C 24.76 30.86 25.21 32.37 25.71 33.86 C 26.21 35.08 26.79 36.27 27.43 37.44 C 28.00 38.33 28.59 39.22 29.25 40.05 C 30.08 40.83 30.94 41.58 31.81 42.32 C 32.21 44.65 30.22 46.72 27.91 46.65 C 26.72 45.91 25.70 44.94 24.71 43.95 C 24.26 42.95 23.84 41.94 23.44 40.91 C 23.23 40.34 22.80 39.20 22.59 38.63 C 22.39 35.84 22.70 33.03 23.64 30.39 C 23.81 30.14 24.14 29.62 24.31 29.36 Z" />
<path fill="#f8f9f9" opacity="1.00" d=" M 16.18 41.85 C 16.42 42.06 16.90 42.46 17.14 42.66 C 18.50 43.84 19.94 44.92 21.31 46.10 C 21.65 46.48 22.34 47.26 22.69 47.65 L 21.84 48.45 C 21.26 48.38 20.09 48.23 19.50 48.16 C 18.55 47.06 17.59 45.95 16.73 44.77 C 16.60 44.04 16.32 42.58 16.18 41.85 Z" />
</g>
<g id="#9e8472ff">
<path fill="#9e8472" opacity="1.00" d=" M 11.78 38.46 C 14.67 34.44 19.21 32.27 23.64 30.39 C 22.70 33.03 22.39 35.84 22.59 38.63 C 18.99 38.48 15.38 38.65 11.78 38.46 Z" />
</g>
<g id="#150f0aff">
<path fill="#150f0a" opacity="1.00" d=" M 4.38 33.23 C 6.83 32.63 9.49 33.76 12.04 33.26 C 10.01 33.69 8.01 34.23 6.02 34.76 C 6.25 39.56 7.92 44.42 11.09 48.06 C 13.74 49.08 16.73 48.08 19.50 48.16 C 20.09 48.23 21.26 48.38 21.84 48.45 C 20.96 49.48 20.16 50.57 19.35 51.65 C 25.27 51.76 31.10 50.41 37.03 50.52 C 41.82 50.52 46.83 51.05 51.33 49.00 C 53.78 52.24 55.64 55.85 57.36 59.52 C 58.42 59.53 59.48 59.55 60.54 59.56 C 61.36 57.97 62.18 56.37 62.91 54.74 C 63.01 57.49 63.01 60.24 63.00 62.99 C 60.63 63.00 58.25 63.12 55.89 62.89 C 52.67 60.39 52.02 55.29 48.05 53.65 C 44.38 53.37 40.73 54.64 37.03 54.10 C 31.31 53.50 25.17 53.28 20.04 56.31 C 17.18 55.54 17.28 52.62 17.38 50.23 C 14.07 50.61 10.65 51.74 7.39 50.56 C 7.23 47.37 7.67 43.93 6.01 41.05 C 4.76 38.69 3.07 35.94 4.38 33.23 Z" />
</g>
<g id="#4e3e30ff">
<path fill="#4e3e30" opacity="1.00" d=" M 12.04 33.26 L 12.74 33.12 C 13.42 32.99 14.78 32.73 15.46 32.60 C 12.85 34.21 10.12 35.63 7.32 36.89 C 8.78 39.27 9.99 41.91 12.14 43.76 C 13.57 44.44 15.21 44.46 16.73 44.77 C 17.59 45.95 18.55 47.06 19.50 48.16 C 16.73 48.08 13.74 49.08 11.09 48.06 C 7.92 44.42 6.25 39.56 6.02 34.76 C 8.01 34.23 10.01 33.69 12.04 33.26 Z" />
</g>
<g id="#635040ff">
<path fill="#635040" opacity="1.00" d=" M 17.14 42.66 C 19.24 42.07 21.34 41.49 23.44 40.91 C 23.84 41.94 24.26 42.95 24.71 43.95 C 23.57 44.66 22.44 45.38 21.31 46.10 C 19.94 44.92 18.50 43.84 17.14 42.66 Z" />
</g>
</svg>
