<?xml version="1.0" encoding="UTF-8" ?>
<!DOCTYPE svg PUBLIC "-//W3C//DTD SVG 1.1//EN" "http://www.w3.org/Graphics/SVG/1.1/DTD/svg11.dtd">
<svg width="64pt" height="64pt" viewBox="0 0 64 64" version="1.1" xmlns="http://www.w3.org/2000/svg">
<g id="#8b6540fc">
<path fill="#8b6540" opacity="1.00" d=" M 4.89 9.20 C 5.93 6.65 11.46 5.75 13.23 8.48 C 13.06 9.32 12.76 10.11 12.34 10.85 C 9.22 8.46 5.69 11.16 7.08 14.80 C 7.54 14.88 8.46 15.03 8.92 15.11 C 8.07 16.80 6.32 15.46 5.05 15.17 C 5.06 13.17 5.03 11.18 4.89 9.20 Z" />
</g>
<g id="#302717dd">
<path fill="#302717" opacity="0.87" d=" M 17.15 8.00 C 17.93 6.15 23.03 6.17 23.84 7.96 C 22.17 7.97 18.82 7.99 17.15 8.00 Z" />
</g>
<g id="#5a341dd8">
<path fill="#5a341d" opacity="0.85" d=" M 28.84 8.12 C 28.67 4.91 34.57 6.73 36.31 7.69 C 38.97 9.31 39.10 15.27 37.04 15.99 C 37.04 15.48 37.02 14.44 37.02 13.92 C 38.12 9.16 33.29 6.34 28.84 8.12 Z" />
</g>
<g id="#695334fe">
<path fill="#695334" opacity="1.00" d=" M 13.23 8.48 C 14.54 8.34 15.84 8.13 17.15 8.00 C 18.82 7.99 22.17 7.97 23.84 7.96 C 25.52 8.31 27.21 9.09 28.84 8.12 C 29.14 11.74 33.42 18.41 37.02 13.92 C 37.02 14.44 37.04 15.48 37.04 15.99 L 37.02 17.07 L 36.04 17.08 C 33.49 16.99 28.64 13.90 31.99 21.00 C 33.18 25.54 31.56 30.46 27.12 32.19 C 25.52 26.95 32.32 24.29 31.00 19.13 C 31.87 11.49 22.49 6.86 16.32 10.35 C 12.41 11.35 11.08 15.51 10.99 19.11 C 9.85 23.57 14.69 26.13 15.13 30.24 C 15.03 30.73 14.82 31.72 14.72 32.21 C 11.35 29.35 8.37 25.76 8.82 21.10 C 8.44 18.85 5.58 17.97 4.80 15.84 L 5.05 15.17 C 6.32 15.46 8.07 16.80 8.92 15.11 C 10.09 13.71 11.28 12.33 12.34 10.85 C 12.76 10.11 13.06 9.32 13.23 8.48 Z" />
</g>
<g id="#a37c63ff">
<path fill="#a37c63" opacity="1.00" d=" M 28.84 8.12 C 33.29 6.34 38.12 9.16 37.02 13.92 C 33.42 18.41 29.14 11.74 28.84 8.12 Z" />
</g>
<g id="#5e351ee2">
<path fill="#5e351e" opacity="0.89" d=" M 4.80 15.84 C 3.26 14.86 3.25 10.08 4.89 9.20 C 5.03 11.18 5.06 13.17 5.05 15.17 L 4.80 15.84 Z" />
</g>
<g id="#8f7345ff">
<path fill="#8f7345" opacity="1.00" d=" M 16.32 10.35 C 22.49 6.86 31.87 11.49 31.00 19.13 C 30.05 18.37 29.12 17.60 28.17 16.84 L 27.86 16.17 C 27.25 9.38 14.59 8.81 14.90 16.01 C 14.64 16.22 14.12 16.62 13.86 16.83 C 12.89 17.57 11.94 18.35 10.99 19.11 C 11.08 15.51 12.41 11.35 16.32 10.35 Z" />
</g>
<g id="#b58c87ff">
<path fill="#b58c87" opacity="1.00" d=" M 7.08 14.80 C 5.69 11.16 9.22 8.46 12.34 10.85 C 11.28 12.33 10.09 13.71 8.92 15.11 C 8.46 15.03 7.54 14.88 7.08 14.80 Z" />
</g>
<g id="#ae8f57ff">
<path fill="#ae8f57" opacity="1.00" d=" M 14.90 16.01 C 14.59 8.81 27.25 9.38 27.86 16.17 C 24.29 16.19 23.86 10.57 19.40 13.26 C 18.28 14.83 16.98 16.13 14.90 16.01 Z" />
</g>
<g id="#c5a568ff">
<path fill="#c5a568" opacity="1.00" d=" M 19.40 13.26 C 23.86 10.57 24.29 16.19 27.86 16.17 L 28.17 16.84 C 23.38 17.80 18.65 17.80 13.86 16.83 C 14.12 16.62 14.64 16.22 14.90 16.01 C 16.98 16.13 18.28 14.83 19.40 13.26 Z" />
</g>
<g id="#584729fe">
<path fill="#584729" opacity="1.00" d=" M 31.99 21.00 C 28.64 13.90 33.49 16.99 36.04 17.08 C 35.19 18.53 33.57 19.46 32.98 21.06 C 29.48 28.97 39.62 29.77 40.98 36.00 C 44.87 43.10 43.67 55.14 34.92 57.92 C 29.01 57.47 23.14 56.29 17.23 55.77 C 14.95 52.44 13.65 46.48 17.93 44.01 C 20.32 42.63 16.49 43.53 16.29 42.20 C 19.63 42.19 21.39 34.62 17.16 36.10 C 16.86 37.44 16.27 40.13 15.97 41.47 C 15.31 38.67 15.67 36.24 17.05 34.21 C 18.42 34.58 19.80 34.88 21.20 35.12 C 21.73 37.88 19.60 40.32 19.95 43.12 C 21.66 41.90 23.17 40.42 24.67 38.95 C 25.11 40.70 24.10 42.19 23.46 43.72 C 27.32 46.64 31.43 49.79 32.46 54.80 C 36.98 57.02 39.19 52.38 40.18 49.13 C 42.37 43.22 40.39 36.25 35.98 31.99 C 34.30 30.33 32.05 31.04 30.85 32.85 C 28.93 33.56 27.07 34.78 24.94 34.55 C 25.68 33.78 26.40 32.99 27.12 32.19 C 31.56 30.46 33.18 25.54 31.99 21.00 M 18.21 45.14 C 15.36 47.32 16.43 53.14 20.04 53.93 C 22.14 53.43 30.57 57.50 29.77 52.26 C 26.52 49.21 23.29 44.02 18.21 45.14 Z" />
</g>
<g id="#dcc28cff">
<path fill="#dcc28c" opacity="1.00" d=" M 10.99 19.11 C 11.94 18.35 12.89 17.57 13.86 16.83 C 18.65 17.80 23.38 17.80 28.17 16.84 C 29.12 17.60 30.05 18.37 31.00 19.13 C 32.32 24.29 25.52 26.95 27.12 32.19 C 26.40 32.99 25.68 33.78 24.94 34.55 L 24.18 34.56 C 22.64 33.99 16.44 34.24 19.05 31.77 C 21.71 32.50 23.93 31.42 25.22 29.05 C 22.90 29.94 19.17 27.83 17.07 29.99 C 16.43 30.10 15.78 30.19 15.13 30.24 C 14.69 26.13 9.85 23.57 10.99 19.11 M 15.19 20.14 C 12.88 21.39 13.98 25.78 16.84 24.93 C 17.96 23.36 17.95 19.24 15.19 20.14 M 25.21 20.13 C 22.89 21.31 23.95 25.84 26.79 24.87 C 29.11 23.69 28.05 19.16 25.21 20.13 M 19.01 25.02 C 18.00 27.95 21.27 26.87 22.99 26.98 C 24.00 24.05 20.73 25.13 19.01 25.02 Z" />
</g>
<g id="#332f28ff">
<path fill="#332f28" opacity="1.00" d=" M 15.19 20.14 C 17.95 19.24 17.96 23.36 16.84 24.93 C 13.98 25.78 12.88 21.39 15.19 20.14 Z" />
</g>
<g id="#423c33ff">
<path fill="#423c33" opacity="1.00" d=" M 25.21 20.13 C 28.05 19.16 29.11 23.69 26.79 24.87 C 23.95 25.84 22.89 21.31 25.21 20.13 Z" />
</g>
<g id="#2e2515e1">
<path fill="#2e2515" opacity="0.88" d=" M 7.95 20.99 L 8.82 21.10 C 8.37 25.76 11.35 29.35 14.72 32.21 L 15.22 32.88 C 9.23 33.01 6.80 26.01 7.95 20.99 Z" />
</g>
<g id="#271f11f0">
<path fill="#271f11" opacity="0.94" d=" M 32.98 21.06 L 33.88 21.03 C 31.99 27.05 39.05 28.58 41.00 33.00 C 42.32 35.44 44.24 38.02 44.02 40.97 C 44.02 43.66 44.01 46.34 44.00 49.02 C 43.83 51.37 42.22 54.61 44.97 56.08 C 50.25 59.80 55.36 51.69 54.00 47.00 C 54.24 44.98 53.84 38.38 50.14 39.08 C 49.26 40.68 49.53 42.39 49.90 44.09 C 45.42 42.58 48.42 34.54 52.76 36.19 C 55.56 38.31 57.04 41.67 57.05 45.15 C 57.05 46.82 57.05 50.18 57.05 51.86 C 56.38 59.47 45.98 62.89 40.81 57.27 C 35.39 61.62 27.54 60.52 21.69 57.37 C 20.07 56.42 18.53 57.20 18.61 59.15 C 17.15 58.40 15.77 57.42 14.13 57.08 C 12.80 56.31 9.13 56.74 10.27 54.37 C 15.27 52.12 13.31 45.38 15.24 40.97 L 15.97 41.47 L 16.29 42.20 C 16.49 43.53 20.32 42.63 17.93 44.01 C 13.65 46.48 14.95 52.44 17.23 55.77 C 23.14 56.29 29.01 57.47 34.92 57.92 C 43.67 55.14 44.87 43.10 40.98 36.00 C 39.62 29.77 29.48 28.97 32.98 21.06 Z" />
</g>
<g id="#776a53ff">
<path fill="#776a53" opacity="1.00" d=" M 19.01 25.02 C 20.73 25.13 24.00 24.05 22.99 26.98 C 21.27 26.87 18.00 27.95 19.01 25.02 Z" />
</g>
<g id="#4a1e23ff">
<path fill="#4a1e23" opacity="1.00" d=" M 17.07 29.99 C 19.17 27.83 22.90 29.94 25.22 29.05 C 23.93 31.42 21.71 32.50 19.05 31.77 C 18.40 31.16 17.74 30.57 17.07 29.99 Z" />
</g>
<g id="#cba560fd">
<path fill="#cba560" opacity="1.00" d=" M 15.13 30.24 C 15.78 30.19 16.43 30.10 17.07 29.99 C 17.74 30.57 18.40 31.16 19.05 31.77 C 16.44 34.24 22.64 33.99 24.18 34.56 C 23.19 34.75 22.20 34.94 21.20 35.12 C 19.80 34.88 18.42 34.58 17.05 34.21 C 16.59 33.88 15.68 33.21 15.22 32.88 L 14.72 32.21 C 14.82 31.72 15.03 30.73 15.13 30.24 Z" />
</g>
<g id="#917748ff">
<path fill="#917748" opacity="1.00" d=" M 30.85 32.85 C 32.05 31.04 34.30 30.33 35.98 31.99 C 40.39 36.25 42.37 43.22 40.18 49.13 C 39.19 52.38 36.98 57.02 32.46 54.80 C 31.43 49.79 27.32 46.64 23.46 43.72 C 24.10 42.19 25.11 40.70 24.67 38.95 C 23.86 35.42 29.65 35.70 30.85 32.85 Z" />
</g>
<g id="#82683cff">
<path fill="#82683c" opacity="1.00" d=" M 24.94 34.55 C 27.07 34.78 28.93 33.56 30.85 32.85 C 29.65 35.70 23.86 35.42 24.67 38.95 C 23.17 40.42 21.66 41.90 19.95 43.12 C 19.60 40.32 21.73 37.88 21.20 35.12 C 22.20 34.94 23.19 34.75 24.18 34.56 L 24.94 34.55 Z" />
</g>
<g id="#97703fff">
<path fill="#97703f" opacity="1.00" d=" M 17.16 36.10 C 21.39 34.62 19.63 42.19 16.29 42.20 L 15.97 41.47 C 16.27 40.13 16.86 37.44 17.16 36.10 Z" />
</g>
<g id="#09070378">
<path fill="#090703" opacity="0.47" d=" M 44.02 40.97 C 46.21 41.94 44.54 46.56 44.95 48.97 L 44.00 49.02 C 44.01 46.34 44.02 43.66 44.02 40.97 Z" />
</g>
<g id="#816a3fff">
<path fill="#816a3f" opacity="1.00" d=" M 18.21 45.14 C 23.29 44.02 26.52 49.21 29.77 52.26 C 30.57 57.50 22.14 53.43 20.04 53.93 C 16.43 53.14 15.36 47.32 18.21 45.14 Z" />
</g>
<g id="#06040248">
<path fill="#060402" opacity="0.28" d=" M 57.05 45.15 C 58.85 45.96 58.85 51.04 57.05 51.86 C 57.05 50.18 57.05 46.82 57.05 45.15 Z" />
</g>
<g id="#0d0a04e2">
<path fill="#0d0a04" opacity="0.89" d=" M 14.13 57.08 C 15.77 57.42 17.15 58.40 18.61 59.15 C 19.78 60.83 15.17 59.66 13.99 60.02 C 11.96 60.43 14.22 57.95 14.13 57.08 Z" />
</g>
</svg>
