<?xml version="1.0" encoding="UTF-8" ?>
<!DOCTYPE svg PUBLIC "-//W3C//DTD SVG 1.1//EN" "http://www.w3.org/Graphics/SVG/1.1/DTD/svg11.dtd">
<svg width="64pt" height="64pt" viewBox="0 0 64 64" version="1.1" xmlns="http://www.w3.org/2000/svg">
<g id="#2e070359">
<path fill="#2e0703" opacity="0.35" d=" M 33.16 3.95 C 33.96 2.15 39.04 2.16 39.85 3.95 C 38.18 3.95 34.83 3.95 33.16 3.95 Z" />
</g>
<g id="#881409e8">
<path fill="#881409" opacity="0.91" d=" M 29.98 4.95 C 30.30 3.84 31.36 3.50 33.16 3.95 C 34.83 3.95 38.18 3.95 39.85 3.95 C 46.77 3.74 55.02 11.28 50.67 18.20 L 49.84 17.98 C 49.64 17.51 49.26 16.56 49.06 16.08 C 51.52 12.21 47.45 8.65 44.73 6.29 C 40.03 4.55 34.89 5.19 29.98 4.95 Z" />
</g>
<g id="#d62917fe">
<path fill="#d62917" opacity="1.00" d=" M 26.89 5.86 C 27.64 5.01 28.67 4.71 29.98 4.95 C 34.89 5.19 40.03 4.55 44.73 6.29 C 47.45 8.65 51.52 12.21 49.06 16.08 C 45.20 14.18 41.51 11.65 37.24 10.75 C 34.43 10.12 31.46 9.55 28.72 10.65 C 27.17 11.07 25.65 11.60 24.13 12.12 C 23.83 9.58 25.59 7.79 26.89 5.86 Z" />
</g>
<g id="#7c160edd">
<path fill="#7c160e" opacity="0.87" d=" M 22.19 13.24 C 20.92 9.85 23.68 6.53 26.89 5.86 C 25.59 7.79 23.83 9.58 24.13 12.12 L 23.80 12.88 C 23.39 12.97 22.59 13.15 22.19 13.24 Z" />
</g>
<g id="#c6766fff">
<path fill="#c6766f" opacity="1.00" d=" M 28.72 10.65 C 31.46 9.55 34.43 10.12 37.24 10.75 C 34.40 10.74 31.56 10.70 28.72 10.65 Z" />
</g>
<g id="#c2c2c2ff">
<path fill="#c2c2c2" opacity="1.00" d=" M 24.13 12.12 C 25.65 11.60 27.17 11.07 28.72 10.65 C 31.56 10.70 34.40 10.74 37.24 10.75 C 41.51 11.65 45.20 14.18 49.06 16.08 C 49.26 16.56 49.64 17.51 49.84 17.98 C 53.04 24.68 57.24 32.46 53.88 39.87 C 50.25 52.14 34.62 54.88 24.01 50.80 C 23.62 49.23 23.23 47.66 22.91 46.08 C 30.62 49.87 40.07 49.38 46.85 43.83 C 52.04 36.84 51.86 25.80 45.32 19.69 C 39.69 13.75 28.47 11.88 22.71 18.70 C 19.92 20.74 18.53 23.83 17.81 27.10 C 16.77 26.39 15.72 25.70 14.70 24.97 C 15.10 22.40 16.35 20.07 18.06 18.13 C 20.55 17.16 22.59 15.23 23.80 12.88 L 24.13 12.12 Z" />
</g>
<g id="#969797f3">
<path fill="#969797" opacity="0.95" d=" M 22.19 13.24 C 22.59 13.15 23.39 12.97 23.80 12.88 C 22.59 15.23 20.55 17.16 18.06 18.13 C 18.92 16.15 20.71 14.76 22.19 13.24 Z" />
</g>
<g id="#f2f2f2ff">
<path fill="#f2f2f2" opacity="1.00" d=" M 22.71 18.70 C 28.47 11.88 39.69 13.75 45.32 19.69 C 51.86 25.80 52.04 36.84 46.85 43.83 C 40.07 49.38 30.62 49.87 22.91 46.08 C 22.28 44.70 21.62 43.34 20.94 41.98 C 21.65 39.92 22.34 37.69 20.83 35.80 C 19.47 33.03 18.72 30.03 17.81 27.10 C 18.53 23.83 19.92 20.74 22.71 18.70 M 24.24 19.20 C 20.58 21.26 20.86 27.80 25.00 29.00 C 29.74 27.91 29.25 18.75 24.24 19.20 Z" />
</g>
<g id="#23231ee3">
<path fill="#23231e" opacity="0.89" d=" M 12.18 27.10 C 12.23 23.42 12.63 17.03 18.06 18.13 C 16.35 20.07 15.10 22.40 14.70 24.97 C 14.02 25.87 13.30 26.75 12.18 27.10 Z" />
</g>
<g id="#828282ed">
<path fill="#828282" opacity="0.93" d=" M 49.84 17.98 L 50.67 18.20 C 57.17 25.49 58.95 37.74 53.00 46.01 C 49.80 51.11 43.53 53.28 37.85 54.05 C 36.18 54.05 32.82 54.04 31.15 54.04 C 28.58 53.68 26.20 52.52 23.78 51.63 L 24.01 50.80 C 34.62 54.88 50.25 52.14 53.88 39.87 C 57.24 32.46 53.04 24.68 49.84 17.98 Z" />
</g>
<g id="#373737ff">
<path fill="#373737" opacity="1.00" d=" M 24.24 19.20 C 29.25 18.75 29.74 27.91 25.00 29.00 C 20.86 27.80 20.58 21.26 24.24 19.20 Z" />
</g>
<g id="#a2931ffe">
<path fill="#a2931f" opacity="1.00" d=" M 12.18 27.10 C 13.30 26.75 14.02 25.87 14.70 24.97 C 15.72 25.70 16.77 26.39 17.81 27.10 C 18.72 30.03 19.47 33.03 20.83 35.80 C 20.13 37.98 19.43 40.19 17.94 41.99 C 15.96 42.01 13.98 42.02 12.00 42.03 C 10.88 42.08 9.95 41.70 9.19 40.87 C 7.32 39.17 4.50 37.99 4.81 34.99 C 6.61 31.87 8.82 28.67 12.18 27.10 M 12.24 28.20 C 10.23 30.74 3.95 34.48 7.18 37.88 C 10.59 36.97 16.09 39.92 18.79 36.85 C 17.05 33.62 17.57 26.29 12.24 28.20 Z" />
</g>
<g id="#e5d92cff">
<path fill="#e5d92c" opacity="1.00" d=" M 12.24 28.20 C 17.57 26.29 17.05 33.62 18.79 36.85 C 16.09 39.92 10.59 36.97 7.18 37.88 C 3.95 34.48 10.23 30.74 12.24 28.20 Z" />
</g>
<g id="#4c4108e4">
<path fill="#4c4108" opacity="0.89" d=" M 3.13 38.74 C 3.09 37.42 3.62 35.66 4.81 34.99 C 4.50 37.99 7.32 39.17 9.19 40.87 C 6.98 40.86 5.11 39.55 3.13 38.74 Z" />
</g>
<g id="#81702dff">
<path fill="#81702d" opacity="1.00" d=" M 17.94 41.99 C 19.43 40.19 20.13 37.98 20.83 35.80 C 22.34 37.69 21.65 39.92 20.94 41.98 C 20.42 41.99 19.37 42.00 18.84 42.00 L 17.94 41.99 Z" />
</g>
<g id="#6a4b0aec">
<path fill="#6a4b0a" opacity="0.93" d=" M 12.00 42.03 C 13.98 42.02 15.96 42.01 17.94 41.99 L 18.84 42.00 L 19.35 42.69 C 18.82 42.76 17.76 42.90 17.23 42.97 C 15.47 43.10 13.69 43.26 12.02 43.90 C 12.02 43.43 12.01 42.50 12.00 42.03 Z" />
</g>
<g id="#961a0cf5">
<path fill="#961a0c" opacity="0.96" d=" M 18.84 42.00 C 19.37 42.00 20.42 41.99 20.94 41.98 C 21.62 43.34 22.28 44.70 22.91 46.08 C 23.23 47.66 23.62 49.23 24.01 50.80 L 23.78 51.63 C 23.61 55.97 19.74 60.01 15.19 58.86 C 10.11 55.75 9.70 48.74 12.02 43.90 C 13.69 43.26 15.47 43.10 17.23 42.97 C 11.10 44.18 10.55 52.50 15.23 55.85 C 22.30 57.49 24.20 46.50 19.35 42.69 L 18.84 42.00 Z" />
</g>
<g id="#d72512ff">
<path fill="#d72512" opacity="1.00" d=" M 17.23 42.97 C 17.76 42.90 18.82 42.76 19.35 42.69 C 24.20 46.50 22.30 57.49 15.23 55.85 C 10.55 52.50 11.10 44.18 17.23 42.97 Z" />
</g>
<g id="#1212122a">
<path fill="#121212" opacity="0.16" d=" M 31.15 54.04 C 32.82 54.04 36.18 54.05 37.85 54.05 C 37.03 55.85 31.95 55.86 31.15 54.04 Z" />
</g>
</svg>
