<?xml version="1.0" encoding="UTF-8" ?>
<!DOCTYPE svg PUBLIC "-//W3C//DTD SVG 1.1//EN" "http://www.w3.org/Graphics/SVG/1.1/DTD/svg11.dtd">
<svg width="64pt" height="64pt" viewBox="0 0 64 64" version="1.1" xmlns="http://www.w3.org/2000/svg">
<g id="#deb596fb">
<path fill="#deb596" opacity="1.00" d=" M 11.29 20.08 C 13.00 21.17 14.10 23.31 16.08 23.83 C 29.82 21.68 45.07 19.30 57.76 26.23 C 59.58 27.72 60.05 30.16 61.48 31.95 C 63.06 28.02 63.17 32.64 64.00 34.45 L 64.00 36.01 C 62.60 37.34 60.08 37.69 59.85 39.92 C 57.33 46.38 56.38 53.30 53.79 59.74 C 53.10 61.32 51.35 60.96 49.95 61.03 C 50.89 57.62 53.12 54.50 51.82 50.69 C 48.74 53.83 49.59 61.77 43.92 61.01 C 45.15 55.97 48.98 51.61 48.02 46.12 C 42.15 47.48 36.17 47.85 30.17 47.24 C 29.06 51.76 29.24 56.53 27.85 60.98 C 26.56 61.08 25.17 60.96 24.20 59.99 C 25.22 58.04 28.38 51.61 24.19 53.13 C 22.43 55.69 23.79 62.52 18.93 61.00 C 19.33 55.67 23.87 50.58 20.72 45.28 C 15.41 41.91 8.80 40.95 3.42 37.58 C 2.24 35.99 0.55 34.36 1.01 32.17 C 3.48 30.60 7.09 30.47 8.57 27.64 C 9.28 25.05 10.33 22.58 11.29 20.08 Z" />
</g>
</svg>
