<?xml version="1.0" encoding="UTF-8" ?>
<!DOCTYPE svg PUBLIC "-//W3C//DTD SVG 1.1//EN" "http://www.w3.org/Graphics/SVG/1.1/DTD/svg11.dtd">
<svg width="64pt" height="64pt" viewBox="0 0 64 64" version="1.1" xmlns="http://www.w3.org/2000/svg">
<g id="#f1f1e4ff">
<path fill="#f1f1e4" opacity="1.00" d=" M 11.38 11.55 C 14.85 9.42 19.05 10.42 22.34 12.38 C 20.20 12.02 18.06 11.69 15.89 11.63 C 15.38 12.00 14.35 12.74 13.84 13.11 C 18.59 16.33 20.69 22.56 25.99 24.96 C 33.70 25.52 41.28 22.95 48.93 22.33 C 52.79 22.00 55.51 25.29 57.79 27.88 C 57.43 25.46 57.06 22.69 55.07 21.01 C 54.19 19.88 52.02 19.24 52.62 17.49 L 53.04 18.39 C 58.52 18.79 61.26 25.51 58.75 29.98 C 57.15 32.43 57.79 35.43 57.78 38.18 C 58.43 41.46 58.15 45.11 60.35 47.85 C 59.85 52.16 61.35 56.66 59.69 60.79 C 58.43 60.78 57.18 60.78 55.93 60.79 C 58.43 58.84 58.79 55.84 58.30 52.87 C 57.22 50.73 56.08 48.61 55.02 46.47 L 54.07 46.52 C 53.58 51.11 49.02 53.85 48.32 58.40 C 47.37 60.28 45.75 61.13 43.63 60.95 C 46.31 56.33 48.78 51.40 49.19 45.99 C 49.05 43.94 47.17 41.90 45.01 42.71 C 41.70 44.60 37.62 43.50 34.09 42.87 C 33.19 42.73 31.37 42.44 30.47 42.29 C 30.58 44.19 30.64 46.09 30.83 47.99 C 32.04 51.34 31.19 55.05 32.65 58.37 C 32.36 59.01 31.79 60.28 31.50 60.91 C 30.63 60.85 28.88 60.73 28.01 60.67 C 31.38 57.32 28.48 52.63 27.82 48.83 C 25.16 52.40 26.39 57.08 24.41 60.86 C 23.28 60.75 22.14 60.65 21.01 60.55 C 21.29 60.25 21.87 59.65 22.15 59.35 C 23.75 55.04 23.08 50.40 24.22 46.00 C 24.51 44.44 23.85 42.93 23.51 41.43 L 22.37 41.62 L 22.36 40.97 C 21.56 40.35 20.78 39.73 20.00 39.09 C 17.51 33.83 13.86 29.13 12.10 23.55 C 9.15 23.31 8.35 26.50 6.63 28.22 C 6.63 26.77 6.65 25.31 6.70 23.86 C 5.34 23.69 3.99 23.52 2.64 23.33 C 2.40 19.61 5.81 17.50 8.15 15.23 L 10.75 15.14 L 8.14 14.46 C 7.60 14.02 6.51 13.14 5.97 12.70 C 7.87 13.27 9.74 13.29 11.54 12.40 L 11.38 11.55 Z" />
</g>
</svg>
