<?xml version="1.0" encoding="UTF-8" ?>
<!DOCTYPE svg PUBLIC "-//W3C//DTD SVG 1.1//EN" "http://www.w3.org/Graphics/SVG/1.1/DTD/svg11.dtd">
<svg width="64pt" height="64pt" viewBox="0 0 64 64" version="1.1" xmlns="http://www.w3.org/2000/svg">
<g id="#f0edecff">
<path fill="#f0edec" opacity="1.00" d=" M 11.28 0.58 C 11.12 1.59 10.81 3.62 10.66 4.63 C 11.51 3.49 12.31 2.32 13.15 1.17 L 13.54 3.76 C 14.47 3.31 16.34 2.40 17.27 1.94 L 16.17 4.65 C 17.29 4.54 18.41 4.43 19.53 4.33 C 19.57 5.77 19.60 7.21 19.63 8.65 C 19.15 8.61 18.19 8.52 17.71 8.48 C 18.00 9.07 18.59 10.25 18.88 10.84 C 19.75 11.75 20.60 12.67 21.43 13.60 C 23.25 16.73 25.18 19.81 27.62 22.49 C 31.89 22.79 36.26 22.64 40.08 20.48 C 40.40 20.47 41.05 20.45 41.38 20.45 L 41.42 19.77 C 45.25 17.33 49.48 14.93 51.77 10.84 C 52.47 9.53 53.54 8.50 54.69 7.58 C 55.56 7.62 56.43 7.66 57.30 7.68 C 58.43 8.59 59.52 9.55 60.56 10.56 C 60.59 11.28 60.64 12.72 60.67 13.44 L 61.42 13.43 C 61.42 13.98 61.41 15.08 61.41 15.62 L 60.55 15.51 C 60.30 17.64 60.69 19.94 59.62 21.90 C 59.51 23.10 59.40 24.31 59.30 25.52 L 58.99 25.53 C 58.60 26.69 58.16 27.84 57.68 28.97 C 57.00 31.07 56.54 33.28 55.23 35.10 C 54.33 37.16 52.97 38.95 51.01 40.07 C 50.35 40.73 49.70 41.39 49.05 42.06 C 48.00 43.41 46.94 44.75 45.79 46.02 C 45.30 46.87 44.81 47.72 44.33 48.57 L 44.07 48.78 C 43.27 49.58 42.42 50.32 41.51 50.99 L 41.59 51.74 L 40.61 51.10 C 40.56 52.18 40.45 54.35 40.40 55.43 L 39.65 55.40 C 39.61 56.44 39.53 58.51 39.49 59.54 C 39.97 59.68 40.92 59.94 41.40 60.07 C 39.10 60.36 36.44 59.88 34.56 61.57 L 33.94 61.69 C 32.24 61.38 32.18 59.61 32.82 58.34 L 33.22 59.78 C 34.21 59.67 36.20 59.44 37.20 59.33 C 37.50 58.80 38.09 57.73 38.38 57.20 C 38.54 54.45 39.72 51.23 37.52 48.94 C 36.24 50.70 34.48 51.95 32.52 52.86 L 32.78 53.52 L 31.85 53.59 C 31.52 54.17 30.86 55.31 30.53 55.88 L 30.61 56.66 L 29.79 56.39 C 29.42 57.80 29.00 59.20 28.58 60.60 C 26.80 60.62 25.01 60.67 23.23 60.70 C 23.21 60.49 23.18 60.06 23.16 59.85 C 24.71 59.65 26.28 59.44 27.65 58.63 L 27.41 57.43 L 28.62 57.43 C 28.57 56.99 28.46 56.13 28.41 55.69 L 29.61 55.59 L 29.25 54.32 L 30.14 54.59 C 30.28 54.10 30.57 53.11 30.72 52.62 L 33.58 51.89 C 31.41 51.99 30.22 50.95 30.00 48.77 C 25.52 46.86 20.46 45.05 17.82 40.64 C 17.54 40.65 16.97 40.66 16.69 40.67 L 16.56 39.77 C 16.17 39.57 15.40 39.18 15.01 38.98 C 13.99 37.23 12.90 35.51 11.91 33.74 L 11.79 33.58 C 11.42 32.41 11.02 31.26 10.60 30.11 C 10.35 27.74 10.27 25.36 10.31 22.98 C 10.93 22.86 12.16 22.62 12.78 22.50 C 11.46 22.17 10.08 22.25 8.73 22.19 C 8.51 20.49 8.38 18.79 8.25 17.09 L 9.47 17.95 C 9.47 14.11 9.67 10.26 9.01 6.46 C 8.78 8.81 8.33 13.52 8.11 15.88 L 7.38 9.85 L 5.84 11.20 C 6.78 9.76 6.05 6.43 9.02 7.23 L 6.45 6.65 L 13.19 6.02 L 7.57 5.33 L 8.06 4.15 L 9.26 5.08 C 9.77 3.95 10.78 1.70 11.28 0.58 Z" />
</g>
</svg>
