<?xml version="1.0" encoding="UTF-8" ?>
<!DOCTYPE svg PUBLIC "-//W3C//DTD SVG 1.1//EN" "http://www.w3.org/Graphics/SVG/1.1/DTD/svg11.dtd">
<svg width="64pt" height="64pt" viewBox="0 0 64 64" version="1.1" xmlns="http://www.w3.org/2000/svg">
<g id="#e3bc80ff">
<path fill="#e3bc80" opacity="1.00" d=" M 39.38 15.79 C 38.10 13.12 44.60 10.19 44.93 13.97 C 45.52 17.51 47.16 21.12 50.90 22.20 C 52.93 24.63 55.17 27.38 54.01 30.95 C 52.72 34.06 50.11 36.43 48.15 39.12 C 47.57 38.26 46.98 37.41 46.37 36.56 C 45.68 35.53 45.00 34.45 44.10 33.58 C 40.84 31.17 38.11 36.04 35.63 37.61 C 32.33 38.95 28.71 39.09 25.20 39.51 C 21.56 34.43 12.97 33.00 12.05 26.18 C 13.70 23.88 15.45 25.99 16.98 27.21 C 18.31 28.18 19.84 29.51 21.61 28.79 C 22.42 26.85 23.31 24.94 24.10 22.99 C 25.74 19.67 26.98 16.09 29.17 13.09 C 30.85 12.65 32.67 13.04 32.90 15.03 C 33.30 16.33 33.73 17.62 34.23 18.89 C 36.37 19.62 40.02 18.46 39.38 15.79 Z" />
</g>
<g id="#9a7a4bf6">
<path fill="#9a7a4b" opacity="0.96" d=" M 44.93 13.97 C 47.73 15.80 49.09 19.41 50.90 22.20 C 47.16 21.12 45.52 17.51 44.93 13.97 Z" />
</g>
<g id="#b28e59fe">
<path fill="#b28e59" opacity="1.00" d=" M 32.90 15.03 C 34.82 16.71 37.18 17.69 39.38 15.79 C 40.02 18.46 36.37 19.62 34.23 18.89 C 33.73 17.62 33.30 16.33 32.90 15.03 Z" />
</g>
<g id="#ab8754fb">
<path fill="#ab8754" opacity="1.00" d=" M 2.02 22.88 C 4.91 17.92 11.96 17.70 16.95 19.15 C 17.16 20.50 16.54 21.22 15.09 21.31 C 15.28 23.40 16.91 25.07 16.98 27.21 C 15.45 25.99 13.70 23.88 12.05 26.18 C 12.97 33.00 21.56 34.43 25.20 39.51 C 28.71 39.09 32.33 38.95 35.63 37.61 C 38.11 36.04 40.84 31.17 44.10 33.58 C 40.61 34.72 38.77 38.10 37.10 41.10 C 36.82 41.58 36.27 42.52 35.99 42.99 C 34.51 45.33 35.37 48.48 34.81 51.12 C 34.22 50.03 33.72 48.89 33.09 47.82 C 32.35 46.58 31.19 45.63 30.09 44.72 C 25.54 41.56 21.13 38.03 15.97 35.93 C 12.45 33.60 11.31 29.01 9.75 25.27 C 7.24 24.25 4.28 24.43 2.02 22.88 Z" />
</g>
<g id="#967443f9">
<path fill="#967443" opacity="0.98" d=" M 50.90 22.20 C 53.83 21.43 54.45 25.31 56.12 26.97 C 56.26 28.28 56.40 29.59 56.29 30.91 C 54.61 34.94 54.64 39.42 56.62 43.32 C 58.26 46.45 58.53 51.01 55.73 53.37 C 55.37 51.99 55.11 50.58 54.79 49.19 C 54.19 46.92 53.03 44.82 51.72 42.89 C 51.13 41.98 50.06 41.54 49.25 40.86 C 48.97 40.42 48.42 39.55 48.15 39.12 C 50.11 36.43 52.72 34.06 54.01 30.95 C 55.17 27.38 52.93 24.63 50.90 22.20 Z" />
</g>
<g id="#a18050f6">
<path fill="#a18050" opacity="0.96" d=" M 16.98 27.21 C 20.20 27.46 21.58 24.28 24.10 22.99 C 23.31 24.94 22.42 26.85 21.61 28.79 C 19.84 29.51 18.31 28.18 16.98 27.21 Z" />
</g>
<g id="#463115df">
<path fill="#463115" opacity="0.87" d=" M 56.12 26.97 C 57.97 28.10 58.78 30.31 59.98 32.03 L 59.09 31.84 C 58.14 31.58 57.20 31.27 56.29 30.91 C 56.40 29.59 56.26 28.28 56.12 26.97 Z" />
</g>
<g id="#312310bd">
<path fill="#312310" opacity="0.74" d=" M 59.09 31.84 L 59.98 32.03 C 61.92 32.21 64.76 38.09 61.29 36.84 C 60.89 35.03 60.01 33.42 59.09 31.84 Z" />
</g>
<g id="#906b34ff">
<path fill="#906b34" opacity="1.00" d=" M 37.10 41.10 C 38.77 38.10 40.61 34.72 44.10 33.58 C 45.00 34.45 45.68 35.53 46.37 36.56 C 42.70 34.88 41.22 39.03 38.90 40.99 C 38.45 41.02 37.55 41.07 37.10 41.10 Z" />
</g>
<g id="#6a4b21f6">
<path fill="#6a4b21" opacity="0.96" d=" M 15.97 35.93 C 21.13 38.03 25.54 41.56 30.09 44.72 L 29.07 45.00 C 26.58 46.90 28.20 53.15 28.64 56.33 C 29.02 57.57 29.46 58.79 29.88 60.02 C 28.62 60.05 27.37 60.03 26.11 59.94 C 26.06 55.69 25.62 51.41 24.71 47.26 C 22.60 42.93 18.68 39.85 15.97 35.93 Z" />
</g>
<g id="#55360af6">
<path fill="#55360a" opacity="0.96" d=" M 38.90 40.99 C 41.22 39.03 42.70 34.88 46.37 36.56 C 46.98 37.41 47.57 38.26 48.15 39.12 C 48.42 39.55 48.97 40.42 49.25 40.86 C 48.89 43.71 48.29 46.55 47.31 49.26 C 46.84 46.17 46.28 43.09 45.88 40.00 C 43.49 39.83 41.27 40.87 38.90 40.99 Z" />
</g>
<g id="#5e431eeb">
<path fill="#5e431e" opacity="0.92" d=" M 49.25 40.86 C 50.06 41.54 51.13 41.98 51.72 42.89 C 51.90 49.26 46.98 53.91 45.73 59.86 C 44.50 60.00 43.26 60.05 42.02 60.03 C 44.21 56.66 45.87 53.00 47.31 49.26 C 48.29 46.55 48.89 43.71 49.25 40.86 Z" />
</g>
<g id="#684c27ef">
<path fill="#684c27" opacity="0.94" d=" M 34.81 51.12 C 35.37 48.48 34.51 45.33 35.99 42.99 C 35.26 48.79 36.86 54.35 38.02 59.95 C 36.74 60.03 35.46 60.05 34.18 60.02 C 36.08 55.97 32.29 52.03 33.09 47.82 C 33.72 48.89 34.22 50.03 34.81 51.12 Z" />
</g>
<g id="#16110855">
<path fill="#161108" opacity="0.33" d=" M 28.64 56.33 C 28.20 53.15 26.58 46.90 29.07 45.00 C 29.04 48.77 29.23 52.58 28.64 56.33 Z" />
</g>
<g id="#563e1fe3">
<path fill="#563e1f" opacity="0.89" d=" M 54.07 48.94 L 54.79 49.19 C 55.11 50.58 55.37 51.99 55.73 53.37 C 56.02 55.94 55.89 61.02 52.13 60.06 C 53.67 56.54 53.90 52.74 54.07 48.94 Z" />
</g>
</svg>
