<?xml version="1.0" encoding="UTF-8" ?>
<!DOCTYPE svg PUBLIC "-//W3C//DTD SVG 1.1//EN" "http://www.w3.org/Graphics/SVG/1.1/DTD/svg11.dtd">
<svg width="64pt" height="64pt" viewBox="0 0 64 64" version="1.1" xmlns="http://www.w3.org/2000/svg">
<g id="#04303bbd">
<path fill="#04303b" opacity="0.74" d=" M 33.44 5.79 C 33.63 5.24 34.00 4.14 34.18 3.59 L 35.26 4.46 C 42.54 3.50 50.15 3.48 56.95 6.59 C 52.34 6.07 47.69 5.36 43.05 6.00 C 42.28 7.40 40.45 8.78 41.75 10.43 C 41.51 10.31 41.02 10.06 40.77 9.94 C 40.53 9.87 40.05 9.74 39.81 9.67 C 40.13 8.96 40.77 7.54 41.09 6.83 C 39.81 3.91 35.87 5.40 33.44 5.79 Z" />
</g>
<g id="#043f4ddd">
<path fill="#043f4d" opacity="0.87" d=" M 25.09 8.12 C 27.00 7.20 28.96 5.44 31.23 6.34 C 31.20 6.86 31.15 7.90 31.12 8.42 C 30.68 8.58 29.79 8.89 29.35 9.05 C 26.44 9.62 23.72 10.91 20.80 11.41 C 21.59 9.64 23.55 9.05 25.09 8.12 Z" />
</g>
<g id="#ecf6e8ff">
<path fill="#ecf6e8" opacity="1.00" d=" M 31.23 6.34 C 31.64 6.30 32.47 6.22 32.88 6.17 C 32.81 6.66 32.68 7.62 32.61 8.11 L 31.12 9.00 C 29.41 11.29 28.01 13.79 26.53 16.23 C 25.73 17.59 24.99 18.99 24.28 20.40 C 23.75 22.03 23.39 23.71 23.03 25.39 C 21.56 25.78 20.09 26.17 18.61 26.54 C 17.62 25.89 16.48 25.63 15.31 25.57 C 15.38 24.89 15.51 23.52 15.58 22.84 C 17.47 22.68 19.37 22.52 21.27 22.37 C 21.82 21.38 22.37 20.40 22.91 19.42 C 23.65 18.03 24.37 16.63 25.14 15.27 C 26.43 13.12 27.88 11.07 29.35 9.05 C 29.79 8.89 30.68 8.58 31.12 8.42 C 31.15 7.90 31.20 6.86 31.23 6.34 Z" />
<path fill="#ecf6e8" opacity="1.00" d=" M 38.84 9.54 L 39.81 9.67 C 40.05 9.74 40.53 9.87 40.77 9.94 L 39.80 11.54 C 38.62 13.40 37.40 15.23 36.25 17.11 C 35.62 18.16 35.03 19.24 34.44 20.32 C 33.73 21.66 33.09 23.03 32.46 24.41 C 31.94 25.64 31.49 26.90 31.07 28.16 C 30.58 27.99 29.59 27.63 29.10 27.46 C 29.67 25.94 30.23 24.43 30.85 22.94 C 31.56 21.29 32.36 19.68 33.20 18.09 C 34.83 15.08 36.79 12.28 38.84 9.54 Z" />
<path fill="#ecf6e8" opacity="1.00" d=" M 16.12 29.31 C 14.75 28.41 14.81 27.59 16.30 26.85 C 17.71 27.76 17.65 28.58 16.12 29.31 Z" />
</g>
<g id="#026780ff">
<path fill="#026780" opacity="1.00" d=" M 32.88 6.17 L 33.44 5.79 C 35.87 5.40 39.81 3.91 41.09 6.83 C 40.77 7.54 40.13 8.96 39.81 9.67 L 38.84 9.54 C 36.27 9.33 33.69 9.18 31.12 9.00 L 32.61 8.11 C 32.68 7.62 32.81 6.66 32.88 6.17 Z" />
</g>
<g id="#0092afff">
<path fill="#0092af" opacity="1.00" d=" M 20.80 11.41 C 23.72 10.91 26.44 9.62 29.35 9.05 C 27.88 11.07 26.43 13.12 25.14 15.27 C 23.22 15.37 21.30 15.49 19.38 15.62 C 19.40 14.45 19.43 13.28 19.47 12.11 L 19.49 11.55 C 19.82 11.52 20.47 11.45 20.80 11.41 Z" />
<path fill="#0092af" opacity="1.00" d=" M 47.51 23.24 C 47.74 22.67 48.22 21.54 48.45 20.97 C 49.31 22.82 50.30 24.61 51.33 26.37 C 51.36 26.91 51.43 28.00 51.46 28.54 C 50.14 26.78 48.82 25.01 47.51 23.24 Z" />
</g>
<g id="#00b6d6ff">
<path fill="#00b6d6" opacity="1.00" d=" M 26.53 16.23 C 28.01 13.79 29.41 11.29 31.12 9.00 C 33.69 9.18 36.27 9.33 38.84 9.54 C 36.79 12.28 34.83 15.08 33.20 18.09 C 30.97 17.51 28.74 16.89 26.53 16.23 Z" />
</g>
<g id="#006780ff">
<path fill="#006780" opacity="1.00" d=" M 40.77 9.94 C 41.02 10.06 41.51 10.31 41.75 10.43 C 44.40 11.87 46.27 14.31 48.42 16.36 C 48.09 16.78 47.43 17.63 47.10 18.06 L 46.68 18.62 L 46.30 19.62 C 44.56 16.60 42.03 14.18 39.80 11.54 L 40.77 9.94 Z" />
</g>
<g id="#69868bef">
<path fill="#69868b" opacity="0.94" d=" M 15.06 15.77 C 16.28 14.28 17.86 13.14 19.47 12.11 C 19.43 13.28 19.40 14.45 19.38 15.62 C 18.40 16.57 17.41 17.50 16.37 18.39 C 15.81 18.57 15.26 18.79 14.72 19.04 L 13.70 19.80 C 14.18 18.47 14.60 17.11 15.06 15.77 Z" />
</g>
<g id="#00afd2ff">
<path fill="#00afd2" opacity="1.00" d=" M 36.25 17.11 C 37.40 15.23 38.62 13.40 39.80 11.54 C 42.03 14.18 44.56 16.60 46.30 19.62 L 45.99 20.51 C 42.67 19.61 39.41 18.48 36.25 17.11 Z" />
</g>
<g id="#51c9d8ff">
<path fill="#51c9d8" opacity="1.00" d=" M 19.38 15.62 C 21.30 15.49 23.22 15.37 25.14 15.27 C 24.37 16.63 23.65 18.03 22.91 19.42 C 20.69 19.38 18.49 19.04 16.37 18.39 C 17.41 17.50 18.40 16.57 19.38 15.62 Z" />
</g>
<g id="#48725cff">
<path fill="#48725c" opacity="1.00" d=" M 6.21 29.63 C 8.22 24.53 10.70 19.29 15.06 15.77 C 14.60 17.11 14.18 18.47 13.70 19.80 C 12.37 22.29 11.07 24.80 9.85 27.35 C 9.65 27.51 9.26 27.83 9.06 27.99 C 7.92 28.93 6.82 29.90 5.76 30.93 L 6.21 29.63 Z" />
<path fill="#48725c" opacity="1.00" d=" M 21.25 51.80 C 21.64 51.47 22.41 50.82 22.80 50.50 C 25.74 50.87 28.67 51.61 31.65 51.41 C 32.30 52.69 32.95 53.96 33.60 55.24 C 32.96 55.57 31.68 56.24 31.04 56.57 C 30.21 56.38 28.53 56.00 27.69 55.81 C 25.37 54.79 23.37 53.17 21.25 51.80 Z" />
</g>
<g id="#5bd1d8ff">
<path fill="#5bd1d8" opacity="1.00" d=" M 24.28 20.40 C 24.99 18.99 25.73 17.59 26.53 16.23 C 28.74 16.89 30.97 17.51 33.20 18.09 C 32.36 19.68 31.56 21.29 30.85 22.94 C 28.45 22.70 26.09 22.09 24.28 20.40 Z" />
</g>
<g id="#31bfdeff">
<path fill="#31bfde" opacity="1.00" d=" M 34.44 20.32 C 35.03 19.24 35.62 18.16 36.25 17.11 C 39.41 18.48 42.67 19.61 45.99 20.51 C 45.46 21.67 44.86 22.79 44.31 23.95 C 41.10 22.52 37.76 21.44 34.44 20.32 Z" />
</g>
<g id="#93e0dfff">
<path fill="#93e0df" opacity="1.00" d=" M 14.72 19.04 C 15.26 18.79 15.81 18.57 16.37 18.39 C 18.49 19.04 20.69 19.38 22.91 19.42 C 22.37 20.40 21.82 21.38 21.27 22.37 C 19.37 22.52 17.47 22.68 15.58 22.84 C 15.31 21.57 15.02 20.30 14.72 19.04 Z" />
</g>
<g id="#e0d9c8ff">
<path fill="#e0d9c8" opacity="1.00" d=" M 47.10 18.06 C 47.46 17.79 48.18 17.26 48.53 17.00 C 48.51 17.99 48.47 19.98 48.45 20.97 C 48.22 21.54 47.74 22.67 47.51 23.24 C 47.01 24.40 46.53 25.57 46.08 26.75 C 45.34 26.71 43.88 26.63 43.14 26.58 C 43.53 25.70 43.92 24.82 44.31 23.95 C 44.86 22.79 45.46 21.67 45.99 20.51 L 46.30 19.62 L 46.68 18.62 L 47.10 18.06 Z" />
<path fill="#e0d9c8" opacity="1.00" d=" M 9.85 27.35 C 11.07 24.80 12.37 22.29 13.70 19.80 L 14.72 19.04 C 15.02 20.30 15.31 21.57 15.58 22.84 C 15.51 23.52 15.38 24.89 15.31 25.57 C 14.74 26.07 13.61 27.08 13.04 27.59 C 11.98 27.52 10.91 27.44 9.85 27.35 Z" />
</g>
<g id="#19555ae9">
<path fill="#19555a" opacity="0.91" d=" M 48.53 17.00 C 50.73 19.41 51.70 22.61 52.58 25.67 L 51.33 26.37 C 50.30 24.61 49.31 22.82 48.45 20.97 C 48.47 19.98 48.51 17.99 48.53 17.00 Z" />
</g>
<g id="#bce7d6ff">
<path fill="#bce7d6" opacity="1.00" d=" M 23.03 25.39 C 23.39 23.71 23.75 22.03 24.28 20.40 C 26.09 22.09 28.45 22.70 30.85 22.94 C 30.23 24.43 29.67 25.94 29.10 27.46 C 27.08 26.77 25.05 26.08 23.03 25.39 Z" />
</g>
<g id="#6dcbd2ff">
<path fill="#6dcbd2" opacity="1.00" d=" M 32.46 24.41 C 33.09 23.03 33.73 21.66 34.44 20.32 C 37.76 21.44 41.10 22.52 44.31 23.95 C 43.92 24.82 43.53 25.70 43.14 26.58 C 41.08 26.68 39.02 26.79 36.96 26.84 C 35.15 26.68 33.64 25.75 32.46 24.41 Z" />
</g>
<g id="#414823ff">
<path fill="#414823" opacity="1.00" d=" M 57.37 23.42 C 59.22 22.21 61.09 21.02 63.00 19.91 C 61.59 22.46 60.26 25.07 59.29 27.83 C 58.67 26.35 58.03 24.88 57.37 23.42 Z" />
<path fill="#414823" opacity="1.00" d=" M 57.51 34.13 C 57.69 32.29 58.23 30.51 58.91 28.79 C 57.23 35.26 58.81 42.16 62.92 47.38 C 58.98 44.97 55.00 42.47 50.52 41.22 C 48.83 43.86 45.58 45.63 45.10 48.92 C 44.70 51.86 47.85 53.03 49.85 54.24 C 45.57 53.97 41.23 53.75 37.10 52.47 C 35.32 51.97 33.55 51.04 31.65 51.41 C 28.67 51.61 25.74 50.87 22.80 50.50 C 22.41 50.82 21.64 51.47 21.25 51.80 C 17.98 49.28 14.91 46.51 11.69 43.91 C 12.90 44.18 14.11 44.45 15.32 44.72 C 20.02 48.44 25.94 50.55 31.96 49.87 C 35.33 49.61 38.99 49.78 42.00 48.01 C 44.47 46.20 46.07 43.52 47.94 41.16 C 49.42 40.09 50.95 39.09 52.47 38.09 C 52.79 38.78 53.42 40.14 53.74 40.82 C 58.02 41.58 57.63 36.95 57.51 34.13 Z" />
</g>
<g id="#7db26fff">
<path fill="#7db26f" opacity="1.00" d=" M 46.08 26.75 C 46.53 25.57 47.01 24.40 47.51 23.24 C 48.82 25.01 50.14 26.78 51.46 28.54 C 51.53 31.32 51.86 34.24 50.71 36.85 C 50.40 36.23 49.79 35.00 49.48 34.38 C 48.46 32.49 46.42 31.65 44.64 30.66 C 45.12 29.36 45.59 28.05 46.08 26.75 Z" />
</g>
<g id="#b7dcb3ff">
<path fill="#b7dcb3" opacity="1.00" d=" M 31.07 28.16 C 31.49 26.90 31.94 25.64 32.46 24.41 C 33.64 25.75 35.15 26.68 36.96 26.84 C 36.66 28.08 36.36 29.33 36.06 30.57 C 34.37 30.57 32.69 30.55 31.00 30.52 C 31.02 29.93 31.05 28.75 31.07 28.16 Z" />
</g>
<g id="#6b7943fb">
<path fill="#6b7943" opacity="1.00" d=" M 52.58 25.67 C 54.15 24.86 55.77 24.16 57.37 23.42 C 58.03 24.88 58.67 26.35 59.29 27.83 L 58.91 28.79 C 58.23 30.51 57.69 32.29 57.51 34.13 C 57.54 31.40 57.28 28.68 56.79 26.00 C 55.76 26.50 54.27 26.67 53.92 27.98 C 53.28 31.32 53.31 34.77 52.47 38.09 C 50.95 39.09 49.42 40.09 47.94 41.16 C 48.89 39.74 49.81 38.31 50.71 36.85 C 51.86 34.24 51.53 31.32 51.46 28.54 C 51.43 28.00 51.36 26.91 51.33 26.37 L 52.58 25.67 Z" />
</g>
<g id="#313227ff">
<path fill="#313227" opacity="1.00" d=" M 15.31 25.57 C 16.48 25.63 17.62 25.89 18.61 26.54 C 18.84 26.96 19.31 27.78 19.54 28.20 C 19.40 28.95 19.11 30.45 18.97 31.20 C 17.20 31.91 14.97 32.70 13.61 30.79 C 13.30 29.74 13.11 28.68 13.04 27.59 C 13.61 27.08 14.74 26.07 15.31 25.57 M 16.12 29.31 C 17.65 28.58 17.71 27.76 16.30 26.85 C 14.81 27.59 14.75 28.41 16.12 29.31 Z" />
</g>
<g id="#eef3adff">
<path fill="#eef3ad" opacity="1.00" d=" M 18.61 26.54 C 20.09 26.17 21.56 25.78 23.03 25.39 C 25.05 26.08 27.08 26.77 29.10 27.46 C 29.59 27.63 30.58 27.99 31.07 28.16 C 31.05 28.75 31.02 29.93 31.00 30.52 C 27.29 29.26 23.44 28.55 19.54 28.20 C 19.31 27.78 18.84 26.96 18.61 26.54 Z" />
</g>
<g id="#9d9830ff">
<path fill="#9d9830" opacity="1.00" d=" M 53.92 27.98 C 54.27 26.67 55.76 26.50 56.79 26.00 C 57.28 28.68 57.54 31.40 57.51 34.13 C 57.63 36.95 58.02 41.58 53.74 40.82 C 53.42 40.14 52.79 38.78 52.47 38.09 C 53.31 34.77 53.28 31.32 53.92 27.98 Z" />
</g>
<g id="#c6c938ff">
<path fill="#c6c938" opacity="1.00" d=" M 9.85 27.35 C 10.91 27.44 11.98 27.52 13.04 27.59 C 13.11 28.68 13.30 29.74 13.61 30.79 C 13.12 30.34 12.14 29.45 11.65 29.00 C 10.31 31.23 7.67 35.19 10.88 37.01 C 14.94 39.88 19.30 42.36 23.88 44.31 C 29.24 46.65 35.76 46.43 41.04 44.04 C 43.23 40.87 42.84 36.71 43.78 33.10 C 44.96 34.70 46.15 36.29 47.32 37.90 C 45.16 41.11 43.38 44.89 39.99 47.01 C 37.40 47.92 34.61 48.09 31.91 48.44 C 24.90 48.26 18.96 44.27 13.04 41.00 C 10.79 39.50 8.12 38.37 6.56 36.05 C 7.14 33.29 8.17 30.65 9.06 27.99 C 9.26 27.83 9.65 27.51 9.85 27.35 Z" />
</g>
<g id="#95cea0ff">
<path fill="#95cea0" opacity="1.00" d=" M 36.96 26.84 C 39.02 26.79 41.08 26.68 43.14 26.58 C 42.77 27.87 42.42 29.17 42.11 30.48 C 40.09 30.52 38.07 30.56 36.06 30.57 C 36.36 29.33 36.66 28.08 36.96 26.84 Z" />
</g>
<g id="#f4ea8eff">
<path fill="#f4ea8e" opacity="1.00" d=" M 43.14 26.58 C 43.88 26.63 45.34 26.71 46.08 26.75 C 45.59 28.05 45.12 29.36 44.64 30.66 C 44.48 31.09 44.15 31.95 43.99 32.38 C 43.41 32.43 42.27 32.53 41.69 32.58 C 41.80 32.05 42.01 31.00 42.11 30.48 C 42.42 29.17 42.77 27.87 43.14 26.58 Z" />
</g>
<g id="#a29a2aff">
<path fill="#a29a2a" opacity="1.00" d=" M 5.76 30.93 C 6.82 29.90 7.92 28.93 9.06 27.99 C 8.17 30.65 7.14 33.29 6.56 36.05 C 8.12 38.37 10.79 39.50 13.04 41.00 L 12.99 42.66 C 10.38 41.08 7.20 40.21 5.15 37.85 C 3.42 35.67 5.04 33.12 5.76 30.93 Z" />
</g>
<g id="#f6f672ff">
<path fill="#f6f672" opacity="1.00" d=" M 19.54 28.20 C 23.44 28.55 27.29 29.26 31.00 30.52 C 30.65 31.62 30.29 32.72 29.94 33.83 C 26.22 33.24 22.57 32.29 18.97 31.20 C 19.11 30.45 19.40 28.95 19.54 28.20 Z" />
</g>
<g id="#585317e7">
<path fill="#585317" opacity="0.91" d=" M 1.06 35.11 C 2.96 33.46 4.78 31.72 6.21 29.63 L 5.76 30.93 C 5.04 33.12 3.42 35.67 5.15 37.85 C 7.20 40.21 10.38 41.08 12.99 42.66 C 13.76 43.35 14.53 44.05 15.32 44.72 C 14.11 44.45 12.90 44.18 11.69 43.91 C 8.71 42.27 5.63 40.82 2.56 39.37 C 1.84 38.08 0.88 36.66 1.06 35.11 Z" />
</g>
<g id="#f7ef39ff">
<path fill="#f7ef39" opacity="1.00" d=" M 10.88 37.01 C 7.67 35.19 10.31 31.23 11.65 29.00 C 12.14 29.45 13.12 30.34 13.61 30.79 C 14.97 32.70 17.20 31.91 18.97 31.20 C 22.57 32.29 26.22 33.24 29.94 33.83 C 30.16 34.27 30.59 35.16 30.81 35.60 C 31.61 37.91 32.22 40.28 32.85 42.63 C 29.90 43.40 26.91 44.03 23.88 44.31 C 19.30 42.36 14.94 39.88 10.88 37.01 Z" />
</g>
<g id="#cad85eff">
<path fill="#cad85e" opacity="1.00" d=" M 31.00 30.52 C 32.69 30.55 34.37 30.57 36.06 30.57 C 38.07 30.56 40.09 30.52 42.11 30.48 C 42.01 31.00 41.80 32.05 41.69 32.58 C 41.03 33.86 40.76 35.52 39.56 36.43 C 36.62 36.73 33.71 36.00 30.81 35.60 C 30.59 35.16 30.16 34.27 29.94 33.83 C 30.29 32.72 30.65 31.62 31.00 30.52 Z" />
</g>
<g id="#a4c14eff">
<path fill="#a4c14e" opacity="1.00" d=" M 43.99 32.38 C 44.15 31.95 44.48 31.09 44.64 30.66 C 46.42 31.65 48.46 32.49 49.48 34.38 C 48.76 35.55 48.05 36.73 47.32 37.90 C 46.15 36.29 44.96 34.70 43.78 33.10 L 43.99 32.38 Z" />
</g>
<g id="#eedc31ff">
<path fill="#eedc31" opacity="1.00" d=" M 39.56 36.43 C 40.76 35.52 41.03 33.86 41.69 32.58 C 42.27 32.53 43.41 32.43 43.99 32.38 L 43.78 33.10 C 42.84 36.71 43.23 40.87 41.04 44.04 C 35.76 46.43 29.24 46.65 23.88 44.31 C 26.91 44.03 29.90 43.40 32.85 42.63 C 32.22 40.28 31.61 37.91 30.81 35.60 C 33.71 36.00 36.62 36.73 39.56 36.43 Z" />
</g>
<g id="#969a35ff">
<path fill="#969a35" opacity="1.00" d=" M 49.48 34.38 C 49.79 35.00 50.40 36.23 50.71 36.85 C 49.81 38.31 48.89 39.74 47.94 41.16 C 46.07 43.52 44.47 46.20 42.00 48.01 C 38.99 49.78 35.33 49.61 31.96 49.87 L 31.91 48.44 C 34.61 48.09 37.40 47.92 39.99 47.01 C 43.38 44.89 45.16 41.11 47.32 37.90 C 48.05 36.73 48.76 35.55 49.48 34.38 Z" />
</g>
<g id="#929f57ff">
<path fill="#929f57" opacity="1.00" d=" M 13.04 41.00 C 18.96 44.27 24.90 48.26 31.91 48.44 L 31.96 49.87 C 25.94 50.55 20.02 48.44 15.32 44.72 C 14.53 44.05 13.76 43.35 12.99 42.66 L 13.04 41.00 Z" />
</g>
<g id="#112928c5">
<path fill="#112928" opacity="0.77" d=" M 33.60 55.24 L 33.74 55.16 C 35.52 57.22 37.78 58.73 40.30 59.75 C 35.81 60.51 31.35 58.22 27.69 55.81 C 28.53 56.00 30.21 56.38 31.04 56.57 C 31.68 56.24 32.96 55.57 33.60 55.24 Z" />
</g>
</svg>
