<?xml version="1.0" encoding="UTF-8" ?>
<!DOCTYPE svg PUBLIC "-//W3C//DTD SVG 1.1//EN" "http://www.w3.org/Graphics/SVG/1.1/DTD/svg11.dtd">
<svg width="64pt" height="64pt" viewBox="0 0 64 64" version="1.1" xmlns="http://www.w3.org/2000/svg">
<g id="#0c1112ff">
<path fill="#0c1112" opacity="1.00" d=" M 22.55 12.34 C 26.82 8.08 33.23 6.48 39.10 7.28 C 47.08 8.43 54.28 13.78 57.73 21.06 C 60.86 27.69 61.62 35.53 59.40 42.55 C 56.99 50.09 49.89 55.66 42.12 56.78 C 35.02 57.63 27.59 56.22 21.48 52.45 C 20.39 51.90 19.38 51.00 18.10 50.98 C 13.28 50.88 8.35 50.64 3.75 49.05 C 1.92 48.00 3.87 46.08 4.49 44.87 C 4.43 45.94 4.36 47.02 4.30 48.09 C 9.12 49.13 13.98 50.10 18.95 49.52 C 18.12 45.28 15.91 41.55 13.51 38.02 C 12.98 28.78 15.76 19.05 22.34 12.34 C 23.14 15.54 19.83 17.80 18.69 20.56 C 15.60 25.15 16.54 30.83 16.47 36.03 C 16.16 39.24 18.37 41.80 20.00 44.32 C 20.75 44.35 21.51 44.38 22.27 44.41 C 22.94 45.94 23.56 47.48 24.12 49.06 C 24.16 49.28 24.26 49.74 24.31 49.97 C 24.11 53.76 28.37 54.09 31.16 54.43 C 34.40 54.67 38.97 55.72 40.72 52.08 C 41.35 50.61 42.08 49.20 42.66 47.72 C 44.82 44.35 43.95 40.10 45.60 36.58 C 47.29 34.51 49.33 32.75 50.94 30.61 C 53.14 32.27 55.34 33.91 57.65 35.40 C 57.59 29.10 57.36 21.20 51.67 17.21 C 49.19 15.16 47.19 12.48 44.18 11.15 C 40.52 8.90 36.09 9.39 32.00 9.50 C 28.53 9.45 26.14 13.39 22.55 12.34 Z" />
<path fill="#0c1112" opacity="1.00" d=" M 27.21 29.14 C 33.11 26.93 33.35 40.14 27.23 38.16 C 24.56 36.10 24.45 31.15 27.21 29.14 M 27.62 35.64 C 28.06 35.62 28.94 35.58 29.38 35.56 C 29.75 33.56 30.01 31.44 28.88 29.62 C 26.37 30.81 27.28 33.48 27.62 35.64 Z" />
</g>
<g id="#606662ff">
<path fill="#606662" opacity="1.00" d=" M 22.55 12.34 C 26.14 13.39 28.53 9.45 32.00 9.50 C 36.09 9.39 40.52 8.90 44.18 11.15 C 47.19 12.48 49.19 15.16 51.67 17.21 C 57.36 21.20 57.59 29.10 57.65 35.40 C 55.34 33.91 53.14 32.27 50.94 30.61 C 49.33 32.75 47.29 34.51 45.60 36.58 C 43.95 40.10 44.82 44.35 42.66 47.72 C 44.25 40.85 45.22 32.56 39.88 27.00 C 35.54 21.49 26.17 21.05 22.00 26.97 C 17.96 32.13 20.51 38.88 22.27 44.41 C 21.51 44.38 20.75 44.35 20.00 44.32 C 18.37 41.80 16.16 39.24 16.47 36.03 C 16.54 30.83 15.60 25.15 18.69 20.56 C 19.83 17.80 23.14 15.54 22.34 12.34 L 22.34 12.32 L 22.55 12.34 Z" />
<path fill="#606662" opacity="1.00" d=" M 27.62 35.64 C 27.28 33.48 26.37 30.81 28.88 29.62 C 30.01 31.44 29.75 33.56 29.38 35.56 C 28.94 35.58 28.06 35.62 27.62 35.64 Z" />
<path fill="#606662" opacity="1.00" d=" M 4.49 44.87 C 7.52 42.62 10.40 40.16 13.51 38.02 C 15.91 41.55 18.12 45.28 18.95 49.52 C 13.98 50.10 9.12 49.13 4.30 48.09 C 4.36 47.02 4.43 45.94 4.49 44.87 Z" />
<path fill="#606662" opacity="1.00" d=" M 24.31 49.97 C 26.22 49.50 28.44 48.82 30.08 50.37 C 33.65 50.59 37.22 50.41 40.80 50.40 L 40.72 52.08 C 38.97 55.72 34.40 54.67 31.16 54.43 C 28.37 54.09 24.11 53.76 24.31 49.97 Z" />
</g>
<g id="#f8f9faff">
<path fill="#f8f9fa" opacity="1.00" d=" M 22.00 26.97 C 26.17 21.05 35.54 21.49 39.88 27.00 C 45.22 32.56 44.25 40.85 42.66 47.72 C 42.08 49.20 41.35 50.61 40.72 52.08 L 40.80 50.40 C 37.22 50.41 33.65 50.59 30.08 50.37 C 28.44 48.82 26.22 49.50 24.31 49.97 C 24.26 49.74 24.16 49.28 24.12 49.06 C 23.56 47.48 22.94 45.94 22.27 44.41 C 20.51 38.88 17.96 32.13 22.00 26.97 M 27.21 29.14 C 24.45 31.15 24.56 36.10 27.23 38.16 C 33.35 40.14 33.11 26.93 27.21 29.14 Z" />
</g>
</svg>
