<?xml version="1.0" encoding="UTF-8" ?>
<!DOCTYPE svg PUBLIC "-//W3C//DTD SVG 1.1//EN" "http://www.w3.org/Graphics/SVG/1.1/DTD/svg11.dtd">
<svg width="64pt" height="64pt" viewBox="0 0 64 64" version="1.1" xmlns="http://www.w3.org/2000/svg">
<g id="#d7ad6efe">
<path fill="#d7ad6e" opacity="1.00" d=" M 0.00 13.28 C 4.21 9.78 10.01 10.16 15.09 9.22 C 14.68 9.85 13.88 11.10 13.47 11.73 C 14.68 16.76 15.46 22.37 19.79 25.81 C 21.73 25.32 23.92 25.04 25.29 23.41 C 28.23 20.11 32.63 18.75 35.67 15.56 C 37.89 13.14 41.46 12.72 44.47 13.60 C 46.52 17.20 50.22 19.11 53.28 21.69 C 56.97 25.78 60.90 30.21 61.87 35.84 C 62.23 38.16 63.12 40.99 61.01 42.80 C 60.33 38.20 60.88 33.24 57.79 29.32 C 57.64 32.90 57.41 36.49 57.66 40.07 C 57.78 43.50 61.55 45.80 60.95 49.34 C 60.60 53.10 60.78 56.88 60.70 60.65 C 59.11 60.71 57.53 60.76 55.95 60.81 C 56.76 60.16 57.56 59.52 58.37 58.88 C 59.53 53.18 59.05 46.61 54.07 42.76 C 54.34 44.96 54.74 47.14 55.26 49.29 C 52.72 52.79 50.60 56.58 49.08 60.62 C 47.39 60.73 45.70 60.87 44.02 61.04 C 47.93 57.44 52.36 52.90 51.76 47.13 C 50.63 43.60 48.56 40.41 48.08 36.66 C 43.19 38.91 37.77 38.90 32.52 38.37 C 34.79 45.61 34.32 53.26 34.72 60.74 C 32.67 60.74 30.62 60.74 28.57 60.68 C 29.25 60.20 30.63 59.25 31.31 58.77 C 31.85 56.58 32.78 54.36 32.33 52.07 C 31.52 47.55 31.21 42.83 28.95 38.72 C 27.83 42.45 27.73 46.46 26.05 50.03 C 24.51 53.42 23.81 57.07 23.17 60.71 C 20.95 60.76 18.73 60.81 16.51 60.86 C 18.63 59.18 21.05 57.64 22.29 55.14 C 24.13 51.48 22.85 47.16 24.49 43.43 C 25.67 40.63 25.74 37.60 25.50 34.62 C 21.49 34.10 17.07 33.85 13.94 30.94 C 9.54 27.42 9.18 21.40 7.52 16.42 C 5.03 15.52 2.38 15.08 0.00 13.89 L 0.00 13.28 M 36.70 15.03 C 37.82 16.57 38.81 18.84 41.12 18.54 C 43.11 17.83 43.61 15.77 44.13 13.98 C 41.62 13.98 39.08 14.15 36.70 15.03 M 33.48 24.49 C 32.65 26.76 33.55 29.24 33.78 31.55 C 36.28 31.27 38.78 30.97 41.24 30.45 C 43.10 28.81 45.08 27.30 47.01 25.73 C 42.88 23.77 37.81 22.23 33.48 24.49 M 51.24 27.06 C 50.77 28.83 50.35 30.61 49.99 32.40 C 52.06 31.40 53.82 29.92 55.21 28.09 C 53.89 27.76 52.56 27.42 51.24 27.06 M 49.34 33.71 C 48.52 34.79 48.59 36.88 49.79 37.66 C 51.41 37.28 51.04 33.50 49.34 33.71 M 52.47 45.06 C 52.65 42.31 52.70 39.56 52.61 36.81 C 51.91 39.52 51.70 42.33 52.47 45.06 Z" />
</g>
<g id="#e8c992ff">
<path fill="#e8c992" opacity="1.00" d=" M 36.70 15.03 C 39.08 14.15 41.62 13.98 44.13 13.98 C 43.61 15.77 43.11 17.83 41.12 18.54 C 38.81 18.84 37.82 16.57 36.70 15.03 Z" />
<path fill="#e8c992" opacity="1.00" d=" M 33.48 24.49 C 37.81 22.23 42.88 23.77 47.01 25.73 C 45.08 27.30 43.10 28.81 41.24 30.45 C 38.78 30.97 36.28 31.27 33.78 31.55 C 33.55 29.24 32.65 26.76 33.48 24.49 Z" />
<path fill="#e8c992" opacity="1.00" d=" M 51.24 27.06 C 52.56 27.42 53.89 27.76 55.21 28.09 C 53.82 29.92 52.06 31.40 49.99 32.40 C 50.35 30.61 50.77 28.83 51.24 27.06 Z" />
<path fill="#e8c992" opacity="1.00" d=" M 49.34 33.71 C 51.04 33.50 51.41 37.28 49.79 37.66 C 48.59 36.88 48.52 34.79 49.34 33.71 Z" />
<path fill="#e8c992" opacity="1.00" d=" M 52.47 45.06 C 51.70 42.33 51.91 39.52 52.61 36.81 C 52.70 39.56 52.65 42.31 52.47 45.06 Z" />
</g>
</svg>
