<?xml version="1.0" encoding="UTF-8" ?>
<!DOCTYPE svg PUBLIC "-//W3C//DTD SVG 1.1//EN" "http://www.w3.org/Graphics/SVG/1.1/DTD/svg11.dtd">
<svg width="64pt" height="64pt" viewBox="0 0 64 64" version="1.1" xmlns="http://www.w3.org/2000/svg">
<g id="#998467fd">
<path fill="#998467" opacity="1.00" d=" M 18.11 17.12 C 24.90 14.72 32.26 17.13 37.99 21.05 C 39.71 19.37 40.82 16.20 43.79 17.07 C 44.83 19.41 45.11 21.67 42.16 22.44 C 44.43 25.84 48.49 27.36 52.09 28.95 C 55.88 28.93 58.87 25.18 62.92 25.98 C 62.95 29.49 61.15 33.49 64.00 36.30 L 64.00 37.00 C 59.25 38.89 54.78 35.89 49.98 36.05 C 41.57 32.59 46.02 38.22 46.87 40.97 C 44.50 41.56 41.32 39.20 39.09 41.07 C 32.51 44.78 24.99 50.27 16.99 47.01 C 8.67 44.87 1.75 37.79 1.18 29.00 C 3.57 21.63 11.65 19.63 18.11 17.12 Z" />
</g>
</svg>
