<?xml version="1.0" encoding="UTF-8" ?>
<!DOCTYPE svg PUBLIC "-//W3C//DTD SVG 1.1//EN" "http://www.w3.org/Graphics/SVG/1.1/DTD/svg11.dtd">
<svg width="64pt" height="64pt" viewBox="0 0 64 64" version="1.1" xmlns="http://www.w3.org/2000/svg">
<g id="#d4c9ccff">
<path fill="#d4c9cc" opacity="1.00" d=" M 4.64 12.60 C 6.50 7.65 11.52 3.62 17.01 4.20 C 22.89 3.55 27.83 8.21 29.70 13.44 C 31.49 13.42 33.28 13.41 35.08 13.40 C 35.36 9.39 38.80 6.75 41.98 4.86 C 48.28 2.83 55.86 4.80 58.95 11.03 C 59.30 12.03 59.66 13.03 60.05 14.02 C 60.39 15.99 60.37 18.00 60.07 19.98 C 59.66 20.96 59.26 21.95 58.88 22.94 C 57.23 25.62 54.89 27.88 51.91 29.01 C 53.00 30.47 54.04 31.97 54.96 33.54 L 55.97 33.68 C 55.78 34.12 55.39 35.00 55.20 35.45 L 56.44 35.40 C 56.53 37.84 56.55 40.28 56.52 42.73 C 56.33 42.62 55.96 42.42 55.78 42.31 C 55.54 43.94 55.42 45.83 53.32 45.98 C 53.44 46.21 53.69 46.67 53.82 46.90 C 53.32 47.32 52.33 48.16 51.83 48.58 C 51.50 48.52 50.84 48.38 50.52 48.31 L 50.47 49.60 C 49.61 49.60 47.90 49.60 47.04 49.61 L 47.78 51.74 C 46.58 50.65 44.18 48.48 42.98 47.40 L 47.52 52.88 L 41.07 47.95 L 45.51 52.37 C 44.65 52.41 42.92 52.50 42.06 52.55 L 43.04 53.67 L 41.48 53.41 L 41.26 54.83 C 40.96 54.75 40.35 54.57 40.05 54.48 C 39.22 55.73 38.08 56.72 36.94 57.67 C 36.57 57.60 35.84 57.45 35.48 57.38 L 35.38 58.96 C 34.89 58.77 33.91 58.38 33.41 58.19 L 33.70 59.49 C 32.86 59.49 31.20 59.48 30.37 59.47 C 30.26 57.17 30.04 52.57 29.93 50.27 L 29.49 59.72 C 29.13 59.09 28.41 57.82 28.06 57.19 C 27.84 57.33 27.41 57.60 27.19 57.74 C 24.66 54.83 18.39 53.66 23.28 47.93 L 21.55 54.62 L 21.06 47.03 L 20.27 53.66 L 19.51 51.91 L 19.90 50.11 L 16.77 52.60 L 20.39 48.03 C 19.36 48.94 17.28 50.75 16.24 51.66 L 16.95 49.65 C 16.09 49.62 14.37 49.56 13.51 49.53 L 13.57 48.85 C 11.48 48.12 9.90 46.40 9.08 44.37 L 8.01 44.38 C 8.22 43.93 8.65 43.02 8.86 42.57 L 7.60 42.54 C 7.57 39.94 7.02 37.11 8.56 34.82 C 8.49 34.64 8.35 34.27 8.29 34.09 C 10.36 32.21 11.31 28.42 14.81 28.93 C 10.05 29.59 6.98 25.64 4.78 22.12 C 4.13 19.00 3.92 15.72 4.64 12.60 M 24.68 35.52 C 22.77 36.70 23.49 39.16 23.39 41.01 C 23.59 42.17 23.21 44.60 25.48 43.68 C 25.59 44.12 25.83 44.99 25.94 45.43 C 26.10 44.90 26.42 43.84 26.58 43.31 L 27.81 43.82 L 27.56 43.04 C 28.69 41.16 28.54 38.92 28.71 36.81 C 27.41 36.31 26.18 35.17 24.68 35.52 Z" />
<path fill="#d4c9cc" opacity="1.00" d=" M 24.37 41.62 C 24.44 39.94 24.47 38.26 24.48 36.57 L 26.94 36.42 C 26.84 38.18 26.68 39.94 26.58 41.71 C 26.02 41.69 24.92 41.64 24.37 41.62 Z" />
</g>
</svg>
