<?xml version="1.0" encoding="UTF-8" ?>
<!DOCTYPE svg PUBLIC "-//W3C//DTD SVG 1.1//EN" "http://www.w3.org/Graphics/SVG/1.1/DTD/svg11.dtd">
<svg width="64pt" height="64pt" viewBox="0 0 64 64" version="1.1" xmlns="http://www.w3.org/2000/svg">
<g id="#004a52ff">
<path fill="#004a52" opacity="1.00" d=" M 37.84 7.46 C 41.47 3.54 47.18 3.60 52.05 4.26 C 54.17 4.59 56.18 5.56 57.67 7.11 C 54.47 8.39 50.74 10.61 51.14 14.63 C 57.05 21.22 58.39 31.40 54.05 39.16 C 50.32 46.68 42.14 51.32 33.87 51.57 C 33.66 51.93 33.24 52.65 33.03 53.00 C 33.21 52.63 33.56 51.89 33.73 51.52 C 37.13 50.52 41.11 50.25 43.76 47.67 C 44.55 46.77 45.31 45.84 46.02 44.89 C 51.76 40.45 55.39 33.13 54.34 25.82 C 52.76 19.16 48.75 12.29 41.95 9.99 C 34.97 7.98 26.83 7.52 20.48 11.60 C 15.16 15.14 14.88 22.07 12.17 27.34 C 17.11 27.36 22.00 28.50 26.76 29.72 L 28.17 31.88 C 24.09 31.82 19.88 31.44 16.18 29.57 C 13.00 30.01 9.67 31.35 6.48 30.43 C 6.31 26.49 11.06 24.58 13.10 21.63 C 13.04 17.27 14.89 12.89 18.62 10.47 C 24.19 6.70 31.40 6.17 37.84 7.46 M 43.81 5.62 C 42.71 6.32 40.66 6.48 41.33 8.28 C 44.03 9.29 46.33 11.28 49.16 11.90 C 50.87 10.27 52.00 7.96 51.59 5.55 C 49.00 5.46 46.39 5.26 43.81 5.62 Z" />
</g>
<g id="#1aa6b1ff">
<path fill="#1aa6b1" opacity="1.00" d=" M 43.81 5.62 C 46.39 5.26 49.00 5.46 51.59 5.55 C 52.00 7.96 50.87 10.27 49.16 11.90 C 46.33 11.28 44.03 9.29 41.33 8.28 C 40.66 6.48 42.71 6.32 43.81 5.62 Z" />
</g>
<g id="#0098a4ff">
<path fill="#0098a4" opacity="1.00" d=" M 20.48 11.60 C 26.83 7.52 34.97 7.98 41.95 9.99 C 48.75 12.29 52.76 19.16 54.34 25.82 C 55.39 33.13 51.76 40.45 46.02 44.89 C 46.67 40.42 45.95 35.23 42.23 32.24 C 40.78 31.13 38.96 30.64 37.26 30.05 C 37.38 30.63 37.61 31.79 37.73 32.38 C 38.82 35.15 38.07 38.00 37.29 40.72 C 33.76 41.70 30.89 38.83 29.34 36.00 C 29.23 33.87 29.13 31.78 28.09 29.85 C 28.29 30.63 28.67 32.19 28.86 32.97 L 28.17 31.88 L 26.76 29.72 C 22.00 28.50 17.11 27.36 12.17 27.34 C 14.88 22.07 15.16 15.14 20.48 11.60 M 21.37 13.40 C 19.27 15.19 19.53 18.07 19.30 20.55 L 20.38 20.02 C 19.16 21.57 18.84 24.21 20.87 25.22 C 22.50 26.80 24.84 25.29 25.68 23.63 L 25.47 25.27 C 30.74 26.43 36.50 25.94 41.28 28.79 C 44.20 30.24 45.31 33.51 47.17 35.97 C 49.92 35.41 50.67 32.33 51.42 30.02 C 51.79 26.95 51.98 23.46 50.03 20.83 L 50.02 20.84 C 47.98 15.66 43.32 11.65 37.79 10.76 C 32.32 9.89 25.83 9.52 21.37 13.40 Z" />
</g>
<g id="#20c1cdff">
<path fill="#20c1cd" opacity="1.00" d=" M 21.37 13.40 C 25.83 9.52 32.32 9.89 37.79 10.76 C 43.32 11.65 47.98 15.66 50.02 20.84 C 46.49 22.71 43.76 18.20 40.86 16.78 C 42.61 17.15 44.37 17.45 46.14 17.69 C 43.82 14.66 40.63 12.19 36.73 11.73 C 32.71 11.28 27.67 10.41 24.56 13.68 C 24.44 14.94 24.33 16.21 24.46 17.47 C 27.04 17.76 29.62 17.38 32.12 16.78 C 29.57 18.62 26.56 19.76 23.37 19.27 C 22.28 18.99 21.31 19.53 20.38 20.02 L 19.30 20.55 C 19.53 18.07 19.27 15.19 21.37 13.40 Z" />
</g>
<g id="#42d7e3ff">
<path fill="#42d7e3" opacity="1.00" d=" M 24.56 13.68 C 27.67 10.41 32.71 11.28 36.73 11.73 C 40.63 12.19 43.82 14.66 46.14 17.69 C 44.37 17.45 42.61 17.15 40.86 16.78 C 37.98 15.68 34.93 15.22 32.12 16.78 C 29.62 17.38 27.04 17.76 24.46 17.47 C 24.33 16.21 24.44 14.94 24.56 13.68 Z" />
</g>
<g id="#00b6c2ff">
<path fill="#00b6c2" opacity="1.00" d=" M 32.12 16.78 C 34.93 15.22 37.98 15.68 40.86 16.78 C 43.76 18.20 46.49 22.71 50.02 20.84 L 50.03 20.83 C 51.98 23.46 51.79 26.95 51.42 30.02 C 50.67 32.33 49.92 35.41 47.17 35.97 C 45.31 33.51 44.20 30.24 41.28 28.79 C 36.50 25.94 30.74 26.43 25.47 25.27 L 25.68 23.63 C 25.72 23.23 25.81 22.43 25.85 22.03 C 25.38 20.83 24.50 19.90 23.37 19.27 C 26.56 19.76 29.57 18.62 32.12 16.78 Z" />
</g>
<g id="#0a272aff">
<path fill="#0a272a" opacity="1.00" d=" M 20.38 20.02 C 21.31 19.53 22.28 18.99 23.37 19.27 C 24.50 19.90 25.38 20.83 25.85 22.03 C 25.81 22.43 25.72 23.23 25.68 23.63 C 24.84 25.29 22.50 26.80 20.87 25.22 C 18.84 24.21 19.16 21.57 20.38 20.02 M 22.19 20.40 C 20.43 20.91 21.02 23.96 22.92 23.33 C 24.83 22.85 23.94 20.07 22.19 20.40 Z" />
</g>
<g id="#6f8b90ff">
<path fill="#6f8b90" opacity="1.00" d=" M 22.19 20.40 C 23.94 20.07 24.83 22.85 22.92 23.33 C 21.02 23.96 20.43 20.91 22.19 20.40 Z" />
<path fill="#6f8b90" opacity="1.00" d=" M 37.26 30.05 C 38.96 30.64 40.78 31.13 42.23 32.24 C 43.87 36.36 42.56 41.64 46.02 44.89 C 45.31 45.84 44.55 46.77 43.76 47.67 C 42.65 46.53 41.49 45.44 40.33 44.33 C 42.05 41.16 42.83 36.49 40.05 33.65 C 39.47 33.34 38.31 32.70 37.73 32.38 C 37.61 31.79 37.38 30.63 37.26 30.05 Z" />
</g>
<g id="#7fabb0ff">
<path fill="#7fabb0" opacity="1.00" d=" M 46.02 44.89 C 42.56 41.64 43.87 36.36 42.23 32.24 C 45.95 35.23 46.67 40.42 46.02 44.89 Z" />
</g>
<g id="#3c4145ff">
<path fill="#3c4145" opacity="1.00" d=" M 23.35 41.04 C 26.10 41.45 28.28 43.63 30.13 45.58 C 28.71 46.38 27.45 47.42 26.23 48.49 C 24.39 46.47 23.34 43.77 23.35 41.04 Z" />
<path fill="#3c4145" opacity="1.00" d=" M 27.34 48.89 C 28.51 50.57 28.33 52.68 28.68 54.60 C 29.96 54.53 31.23 54.34 32.50 54.13 C 31.29 56.78 28.83 59.39 25.86 60.01 C 25.53 56.21 28.40 52.68 27.34 48.89 Z" />
</g>
<g id="#566569ff">
<path fill="#566569" opacity="1.00" d=" M 32.19 47.51 C 35.25 48.19 38.15 46.30 40.33 44.33 C 41.49 45.44 42.65 46.53 43.76 47.67 C 41.11 50.25 37.13 50.52 33.73 51.52 C 33.60 50.05 33.28 48.59 32.19 47.51 Z" />
</g>
<g id="#6e7f84ff">
<path fill="#6e7f84" opacity="1.00" d=" M 26.23 48.49 C 27.45 47.42 28.71 46.38 30.13 45.58 C 30.64 46.06 31.68 47.03 32.19 47.51 C 33.28 48.59 33.60 50.05 33.73 51.52 C 33.56 51.89 33.21 52.63 33.03 53.00 C 32.90 53.29 32.63 53.85 32.50 54.13 C 31.23 54.34 29.96 54.53 28.68 54.60 C 28.33 52.68 28.51 50.57 27.34 48.89 L 26.23 48.49 Z" />
</g>
</svg>
