<?xml version="1.0" encoding="UTF-8" ?>
<!DOCTYPE svg PUBLIC "-//W3C//DTD SVG 1.1//EN" "http://www.w3.org/Graphics/SVG/1.1/DTD/svg11.dtd">
<svg width="64pt" height="64pt" viewBox="0 0 64 64" version="1.1" xmlns="http://www.w3.org/2000/svg">
<g id="#565f63e8">
<path fill="#565f63" opacity="0.91" d=" M 16.73 19.63 C 21.39 6.76 39.15 3.55 49.50 11.42 C 53.59 14.42 56.55 18.80 58.20 23.57 C 58.50 27.46 58.26 31.36 57.29 35.14 C 57.78 31.47 57.39 27.71 55.78 24.36 C 54.42 19.58 51.97 14.82 47.62 12.12 C 39.81 6.57 27.97 7.30 21.43 14.51 C 18.63 17.85 16.01 21.65 15.18 26.01 C 15.58 26.69 16.38 28.03 16.78 28.71 C 16.18 28.56 14.97 28.27 14.36 28.13 C 14.37 25.13 15.67 22.37 16.73 19.63 Z" />
</g>
<g id="#849388ff">
<path fill="#849388" opacity="1.00" d=" M 21.43 14.51 C 27.97 7.30 39.81 6.57 47.62 12.12 C 51.97 14.82 54.42 19.58 55.78 24.36 C 56.34 33.67 49.57 41.62 41.64 45.56 C 34.71 48.69 27.05 50.02 19.47 49.42 C 18.19 48.12 16.24 47.10 16.10 45.09 C 16.64 44.70 17.19 44.34 17.76 43.99 C 19.20 44.76 20.60 45.62 22.14 46.20 C 27.72 44.58 32.85 41.66 38.15 39.31 C 44.09 35.72 50.86 31.22 52.45 24.00 C 51.98 17.97 47.13 12.48 41.10 11.49 C 35.51 9.44 29.07 10.82 24.47 14.47 C 21.10 17.44 18.68 21.52 17.68 25.89 C 18.34 27.73 19.37 29.47 19.45 31.46 C 18.56 30.55 17.68 29.61 16.78 28.71 C 16.38 28.03 15.58 26.69 15.18 26.01 C 16.01 21.65 18.63 17.85 21.43 14.51 Z" />
</g>
<g id="#a8b7bbff">
<path fill="#a8b7bb" opacity="1.00" d=" M 24.47 14.47 C 29.07 10.82 35.51 9.44 41.10 11.49 C 43.63 13.71 46.58 15.67 48.30 18.63 C 49.88 23.12 46.59 27.36 43.66 30.41 C 43.19 30.08 42.23 29.43 41.76 29.10 C 41.44 27.91 41.11 26.73 40.77 25.55 C 43.38 23.40 44.49 19.94 43.26 16.71 C 37.09 11.65 26.35 13.34 22.63 20.64 C 20.91 23.79 18.81 28.95 22.92 31.20 C 28.43 35.14 36.17 34.31 41.48 30.38 C 41.17 31.88 41.02 33.67 39.47 34.45 C 33.34 38.47 26.19 40.48 19.36 42.96 C 19.77 42.41 20.58 41.32 20.99 40.78 C 23.02 37.71 19.49 34.63 19.45 31.46 C 19.37 29.47 18.34 27.73 17.68 25.89 C 18.68 21.52 21.10 17.44 24.47 14.47 Z" />
</g>
<g id="#9daba7ff">
<path fill="#9daba7" opacity="1.00" d=" M 41.10 11.49 C 47.13 12.48 51.98 17.97 52.45 24.00 C 50.86 31.22 44.09 35.72 38.15 39.31 C 32.85 41.66 27.72 44.58 22.14 46.20 C 20.60 45.62 19.20 44.76 17.76 43.99 C 18.16 43.73 18.96 43.21 19.36 42.96 C 26.19 40.48 33.34 38.47 39.47 34.45 C 41.02 33.67 41.17 31.88 41.48 30.38 C 41.55 30.06 41.69 29.42 41.76 29.10 C 42.23 29.43 43.19 30.08 43.66 30.41 C 46.59 27.36 49.88 23.12 48.30 18.63 C 46.58 15.67 43.63 13.71 41.10 11.49 Z" />
</g>
<g id="#b2c4d1ff">
<path fill="#b2c4d1" opacity="1.00" d=" M 22.63 20.64 C 26.35 13.34 37.09 11.65 43.26 16.71 C 44.49 19.94 43.38 23.40 40.77 25.55 C 38.75 22.40 36.36 18.18 31.95 18.74 C 25.89 19.39 25.11 26.75 22.92 31.20 C 18.81 28.95 20.91 23.79 22.63 20.64 Z" />
</g>
<g id="#dde5e0ff">
<path fill="#dde5e0" opacity="1.00" d=" M 22.92 31.20 C 25.11 26.75 25.89 19.39 31.95 18.74 C 36.36 18.18 38.75 22.40 40.77 25.55 C 41.11 26.73 41.44 27.91 41.76 29.10 C 41.69 29.42 41.55 30.06 41.48 30.38 C 36.17 34.31 28.43 35.14 22.92 31.20 M 31.05 32.07 C 35.80 32.05 36.07 23.87 31.93 22.40 C 27.44 22.94 27.23 30.38 31.05 32.07 Z" />
</g>
<g id="#1e2c30ff">
<path fill="#1e2c30" opacity="1.00" d=" M 14.01 28.02 C 12.47 24.83 14.24 21.65 16.73 19.63 C 15.67 22.37 14.37 25.13 14.36 28.13 C 14.97 28.27 16.18 28.56 16.78 28.71 C 17.68 29.61 18.56 30.55 19.45 31.46 C 19.49 34.63 23.02 37.71 20.99 40.78 C 20.43 39.93 19.87 39.10 19.30 38.26 C 17.47 35.72 17.24 32.51 16.14 29.65 C 15.41 29.63 13.94 29.58 13.21 29.56 C 13.41 29.17 13.81 28.40 14.01 28.02 Z" />
</g>
<g id="#262827ff">
<path fill="#262827" opacity="1.00" d=" M 31.05 32.07 C 27.23 30.38 27.44 22.94 31.93 22.40 C 36.07 23.87 35.80 32.05 31.05 32.07 M 31.15 24.17 L 30.80 25.19 L 29.98 25.08 C 30.20 26.85 30.52 28.70 31.75 30.07 C 32.57 28.33 33.13 26.39 32.99 24.44 L 32.48 25.27 L 31.98 24.22 L 31.15 24.17 Z" />
</g>
<g id="#bec4c0ff">
<path fill="#bec4c0" opacity="1.00" d=" M 31.15 24.17 L 31.98 24.22 L 32.48 25.27 L 32.01 26.07 C 31.70 25.85 31.10 25.41 30.80 25.19 L 31.15 24.17 Z" />
</g>
<g id="#394439ff">
<path fill="#394439" opacity="1.00" d=" M 58.20 23.57 C 60.99 31.81 60.76 41.91 54.88 48.79 C 50.05 54.47 42.35 57.37 34.97 56.77 C 28.52 56.38 21.67 54.78 16.87 50.19 C 19.08 51.05 21.35 51.82 23.69 52.27 C 30.11 53.20 36.83 54.41 43.10 51.97 C 50.80 49.88 55.63 42.58 57.29 35.14 C 58.26 31.36 58.50 27.46 58.20 23.57 Z" />
</g>
<g id="#444643ff">
<path fill="#444643" opacity="1.00" d=" M 29.98 25.08 L 30.80 25.19 C 31.10 25.41 31.70 25.85 32.01 26.07 L 32.48 25.27 L 32.99 24.44 C 33.13 26.39 32.57 28.33 31.75 30.07 C 30.52 28.70 30.20 26.85 29.98 25.08 Z" />
</g>
<g id="#627263ff">
<path fill="#627263" opacity="1.00" d=" M 55.78 24.36 C 57.39 27.71 57.78 31.47 57.29 35.14 C 55.63 42.58 50.80 49.88 43.10 51.97 C 36.83 54.41 30.11 53.20 23.69 52.27 C 22.18 51.48 20.69 50.62 19.47 49.42 C 27.05 50.02 34.71 48.69 41.64 45.56 C 49.57 41.62 56.34 33.67 55.78 24.36 Z" />
</g>
<g id="#44453fff">
<path fill="#44453f" opacity="1.00" d=" M 6.96 33.57 C 8.37 31.80 10.16 30.22 12.37 29.54 C 11.89 30.09 10.94 31.17 10.46 31.72 C 9.64 32.46 8.82 33.20 8.08 34.03 C 8.78 36.85 11.82 38.20 13.76 40.13 C 11.93 40.64 10.02 40.55 8.16 40.86 C 11.06 42.53 15.15 44.91 18.18 42.22 C 18.59 40.91 18.86 39.56 19.30 38.26 C 19.87 39.10 20.43 39.93 20.99 40.78 C 20.58 41.32 19.77 42.41 19.36 42.96 C 18.96 43.21 18.16 43.73 17.76 43.99 C 17.19 44.34 16.64 44.70 16.10 45.09 C 16.24 47.10 18.19 48.12 19.47 49.42 C 20.69 50.62 22.18 51.48 23.69 52.27 C 21.35 51.82 19.08 51.05 16.87 50.19 C 15.33 48.69 14.49 46.74 13.85 44.73 C 11.04 43.67 8.11 42.92 5.43 41.52 L 5.52 40.81 C 5.98 38.40 6.53 36.00 6.96 33.57 Z" />
</g>
<g id="#999887ff">
<path fill="#999887" opacity="1.00" d=" M 12.37 29.54 L 12.37 29.54 L 13.21 29.56 C 13.94 29.58 15.41 29.63 16.14 29.65 C 17.24 32.51 17.47 35.72 19.30 38.26 C 18.86 39.56 18.59 40.91 18.18 42.22 C 15.15 44.91 11.06 42.53 8.16 40.86 C 10.02 40.55 11.93 40.64 13.76 40.13 C 14.77 39.89 15.78 39.64 16.79 39.38 C 16.77 36.59 16.10 33.76 14.42 31.48 C 13.43 31.54 11.45 31.66 10.46 31.72 C 10.94 31.17 11.89 30.09 12.37 29.54 Z" />
</g>
<g id="#dbdbcdff">
<path fill="#dbdbcd" opacity="1.00" d=" M 8.08 34.03 C 8.82 33.20 9.64 32.46 10.46 31.72 C 11.45 31.66 13.43 31.54 14.42 31.48 C 16.10 33.76 16.77 36.59 16.79 39.38 C 15.78 39.64 14.77 39.89 13.76 40.13 C 11.82 38.20 8.78 36.85 8.08 34.03 Z" />
</g>
<g id="#1e201ddf">
<path fill="#1e201d" opacity="0.87" d=" M 3.00 40.45 C 3.85 37.93 5.23 35.59 6.96 33.57 C 6.53 36.00 5.98 38.40 5.52 40.81 L 5.34 41.67 C 4.76 41.36 3.58 40.75 3.00 40.45 Z" />
</g>
</svg>
