<?xml version="1.0" encoding="UTF-8" ?>
<!DOCTYPE svg PUBLIC "-//W3C//DTD SVG 1.1//EN" "http://www.w3.org/Graphics/SVG/1.1/DTD/svg11.dtd">
<svg width="64pt" height="64pt" viewBox="0 0 64 64" version="1.1" xmlns="http://www.w3.org/2000/svg">
<g id="#a5a29ef9">
<path fill="#a5a29e" opacity="0.98" d=" M 5.09 4.94 C 9.16 6.69 13.78 6.32 17.76 8.21 C 22.55 9.20 16.53 12.41 15.29 14.30 C 14.17 15.49 12.33 14.09 10.95 14.07 C 7.50 12.33 6.11 8.44 5.09 4.94 Z" />
<path fill="#a5a29e" opacity="0.98" d=" M 46.24 8.21 C 50.36 6.77 54.84 6.68 58.91 4.92 C 57.90 8.43 56.51 12.33 53.05 14.06 C 48.92 16.40 46.44 12.12 44.05 9.30 C 44.59 9.03 45.69 8.49 46.24 8.21 Z" />
</g>
<g id="#50392dd6">
<path fill="#50392d" opacity="0.84" d=" M 24.99 7.01 C 29.65 7.00 34.32 6.86 38.97 7.04 L 39.00 7.98 C 38.23 7.99 36.70 7.99 35.94 8.00 C 32.98 7.98 30.03 7.97 27.07 8.00 C 26.56 7.99 25.54 7.98 25.03 7.98 L 24.99 7.01 Z" />
</g>
<g id="#776657fb">
<path fill="#776657" opacity="1.00" d=" M 17.76 8.21 C 19.57 8.15 23.21 8.03 25.03 7.98 C 25.54 7.98 26.56 7.99 27.07 8.00 L 26.87 8.89 C 19.62 9.54 15.31 15.53 14.10 22.10 L 13.98 20.92 C 13.96 20.21 13.90 18.79 13.87 18.08 C 13.56 16.41 11.77 15.51 10.95 14.07 C 12.33 14.09 14.17 15.49 15.29 14.30 C 16.53 12.41 22.55 9.20 17.76 8.21 Z" />
</g>
<g id="#96826bff">
<path fill="#96826b" opacity="1.00" d=" M 27.07 8.00 C 30.03 7.97 32.98 7.98 35.94 8.00 L 36.12 8.90 C 33.03 8.91 29.95 8.95 26.87 8.89 L 27.07 8.00 Z" />
</g>
<g id="#746354fc">
<path fill="#746354" opacity="1.00" d=" M 35.94 8.00 C 36.70 7.99 38.23 7.99 39.00 7.98 C 40.81 8.04 44.43 8.16 46.24 8.21 C 45.69 8.49 44.59 9.03 44.05 9.30 C 46.44 12.12 48.92 16.40 53.05 14.06 C 52.23 15.49 50.49 16.39 50.12 18.04 C 50.03 19.37 49.98 20.71 49.97 22.04 L 49.06 21.90 C 48.50 18.65 47.79 15.07 45.29 12.71 C 42.93 10.20 39.35 9.53 36.12 8.90 L 35.94 8.00 Z" />
</g>
<g id="#ac9b8aff">
<path fill="#ac9b8a" opacity="1.00" d=" M 14.10 22.10 C 15.31 15.53 19.62 9.54 26.87 8.89 C 29.95 8.95 33.03 8.91 36.12 8.90 C 39.35 9.53 42.93 10.20 45.29 12.71 C 47.79 15.07 48.50 18.65 49.06 21.90 C 49.13 25.01 48.52 28.28 49.75 31.23 C 49.88 31.64 50.15 32.44 50.28 32.84 C 50.11 34.54 50.00 36.44 47.82 36.44 C 47.46 36.08 46.73 35.36 46.37 35.00 C 47.00 34.96 48.27 34.90 48.90 34.86 C 48.24 28.10 48.54 20.86 45.20 14.76 C 41.05 9.24 33.02 9.95 26.98 9.99 C 22.43 10.88 17.77 14.04 16.85 18.88 C 15.94 24.15 15.36 29.54 15.03 34.88 C 15.68 34.91 16.99 34.97 17.64 34.99 C 17.27 35.36 16.54 36.08 16.17 36.44 C 14.08 36.43 13.97 34.69 13.90 33.05 C 13.96 29.40 13.99 25.75 14.10 22.10 Z" />
</g>
<g id="#c4b9aeff">
<path fill="#c4b9ae" opacity="1.00" d=" M 16.85 18.88 C 17.77 14.04 22.43 10.88 26.98 9.99 C 33.02 9.95 41.05 9.24 45.20 14.76 C 48.54 20.86 48.24 28.10 48.90 34.86 C 48.27 34.90 47.00 34.96 46.37 35.00 L 45.95 34.45 C 47.22 28.63 46.88 22.14 44.23 16.75 C 40.97 10.71 32.98 10.47 27.01 11.07 C 16.97 13.35 16.25 26.39 18.07 34.46 L 17.64 34.99 C 16.99 34.97 15.68 34.91 15.03 34.88 C 15.36 29.54 15.94 24.15 16.85 18.88 Z" />
</g>
<g id="#dad3cbff">
<path fill="#dad3cb" opacity="1.00" d=" M 27.01 11.07 C 32.98 10.47 40.97 10.71 44.23 16.75 C 46.88 22.14 47.22 28.63 45.95 34.45 C 43.65 33.46 41.21 32.85 38.83 32.11 L 38.86 31.16 C 44.05 34.44 46.56 26.72 43.29 23.30 C 44.66 17.49 37.67 11.71 31.99 12.97 C 26.29 11.08 18.61 17.60 20.76 23.32 C 19.43 25.62 18.19 28.41 20.31 30.69 C 21.03 32.99 23.56 31.55 25.14 31.15 L 25.17 32.10 C 22.78 32.84 20.36 33.46 18.07 34.46 C 16.25 26.39 16.97 13.35 27.01 11.07 Z" />
</g>
<g id="#ece7e1ff">
<path fill="#ece7e1" opacity="1.00" d=" M 20.76 23.32 C 18.61 17.60 26.29 11.08 31.99 12.97 C 37.67 11.71 44.66 17.49 43.29 23.30 C 42.95 22.97 42.26 22.31 41.91 21.98 C 39.73 20.18 38.42 17.35 35.68 16.26 C 32.91 16.25 30.02 15.57 27.26 16.23 C 25.35 17.97 23.83 20.07 22.06 21.95 C 21.74 22.29 21.09 22.98 20.76 23.32 Z" />
</g>
<g id="#fcf8f3ff">
<path fill="#fcf8f3" opacity="1.00" d=" M 27.26 16.23 C 30.02 15.57 32.91 16.25 35.68 16.26 C 38.42 17.35 39.73 20.18 41.91 21.98 C 37.66 23.09 37.58 27.73 38.86 31.16 L 38.83 32.11 C 34.28 32.04 29.72 31.93 25.17 32.10 L 25.14 31.15 C 26.44 27.70 26.31 23.09 22.06 21.95 C 23.83 20.07 25.35 17.97 27.26 16.23 Z" />
</g>
<g id="#37332dee">
<path fill="#37332d" opacity="0.93" d=" M 11.38 19.68 C 10.89 18.48 13.20 18.67 13.87 18.08 C 13.90 18.79 13.96 20.21 13.98 20.92 C 12.99 24.87 13.01 28.94 13.00 32.99 C 12.99 33.49 12.96 34.49 12.95 34.99 L 12.07 35.07 C 10.55 34.82 7.52 34.33 6.01 34.08 C 7.32 34.06 8.63 34.00 9.93 33.90 C 13.70 31.36 12.11 23.92 11.38 19.68 Z" />
</g>
<g id="#423a31f1">
<path fill="#423a31" opacity="0.95" d=" M 50.12 18.04 C 51.58 18.76 53.39 19.29 54.13 20.89 C 53.61 20.97 52.57 21.14 52.06 21.22 C 52.58 24.86 50.90 31.75 54.14 33.91 C 55.42 34.00 56.70 34.05 57.98 34.07 L 57.99 34.97 C 51.12 32.73 52.40 35.38 53.06 39.05 L 52.14 38.93 C 51.52 36.90 50.96 34.85 50.28 32.84 C 50.15 32.44 49.88 31.64 49.75 31.23 C 49.82 28.17 49.98 25.11 49.97 22.04 C 49.98 20.71 50.03 19.37 50.12 18.04 Z" />
</g>
<g id="#60584ffc">
<path fill="#60584f" opacity="1.00" d=" M 8.96 21.74 C 9.52 20.76 10.33 20.07 11.38 19.68 C 12.11 23.92 13.70 31.36 9.93 33.90 C 10.51 30.03 11.35 26.12 10.88 22.20 C 10.40 22.08 9.44 21.85 8.96 21.74 Z" />
</g>
<g id="#594b3dff">
<path fill="#594b3d" opacity="1.00" d=" M 13.00 32.99 C 13.01 28.94 12.99 24.87 13.98 20.92 L 14.10 22.10 C 13.99 25.75 13.96 29.40 13.90 33.05 L 13.00 32.99 Z" />
</g>
<g id="#665e54fe">
<path fill="#665e54" opacity="1.00" d=" M 52.06 21.22 C 52.57 21.14 53.61 20.97 54.13 20.89 L 55.15 20.85 L 54.68 21.56 C 51.45 24.88 53.73 29.92 54.14 33.91 C 50.90 31.75 52.58 24.86 52.06 21.22 Z" />
</g>
<g id="#958773fa">
<path fill="#958773" opacity="0.98" d=" M 0.97 32.01 C 3.55 28.56 5.40 24.23 8.96 21.74 C 9.44 21.85 10.40 22.08 10.88 22.20 C 11.35 26.12 10.51 30.03 9.93 33.90 C 8.63 34.00 7.32 34.06 6.01 34.08 C 4.20 34.02 1.28 34.49 0.97 32.01 Z" />
</g>
<g id="#3d3c3bff">
<path fill="#3d3c3b" opacity="1.00" d=" M 22.06 21.95 C 26.31 23.09 26.44 27.70 25.14 31.15 C 23.56 31.55 21.03 32.99 20.31 30.69 C 18.19 28.41 19.43 25.62 20.76 23.32 C 21.09 22.98 21.74 22.29 22.06 21.95 Z" />
<path fill="#3d3c3b" opacity="1.00" d=" M 38.86 31.16 C 37.58 27.73 37.66 23.09 41.91 21.98 C 42.26 22.31 42.95 22.97 43.29 23.30 C 46.56 26.72 44.05 34.44 38.86 31.16 Z" />
</g>
<g id="#9e8b75ff">
<path fill="#9e8b75" opacity="1.00" d=" M 49.06 21.90 L 49.97 22.04 C 49.98 25.11 49.82 28.17 49.75 31.23 C 48.52 28.28 49.13 25.01 49.06 21.90 Z" />
</g>
<g id="#968873fa">
<path fill="#968873" opacity="0.98" d=" M 54.14 33.91 C 53.73 29.92 51.45 24.88 54.68 21.56 C 58.53 23.94 60.37 28.47 63.03 32.01 C 62.72 34.49 59.79 34.01 57.98 34.07 C 56.70 34.05 55.42 34.00 54.14 33.91 Z" />
</g>
<g id="#caa48dff">
<path fill="#caa48d" opacity="1.00" d=" M 25.17 32.10 C 29.72 31.93 34.28 32.04 38.83 32.11 C 41.21 32.85 43.65 33.46 45.95 34.45 L 46.37 35.00 C 46.73 35.36 47.46 36.08 47.82 36.44 C 51.47 38.62 51.21 45.02 46.67 45.70 C 36.70 46.05 26.49 46.62 16.64 45.39 C 12.42 44.45 12.89 38.33 16.17 36.44 C 16.54 36.08 17.27 35.36 17.64 34.99 L 18.07 34.46 C 20.36 33.46 22.78 32.84 25.17 32.10 M 23.20 41.13 C 20.85 42.18 22.45 45.83 24.80 44.87 C 27.15 43.81 25.55 40.17 23.20 41.13 M 39.20 41.13 C 36.85 42.18 38.45 45.83 40.80 44.87 C 43.15 43.81 41.55 40.17 39.20 41.13 Z" />
</g>
<g id="#b0826cff">
<path fill="#b0826c" opacity="1.00" d=" M 13.00 32.99 L 13.90 33.05 C 13.97 34.69 14.08 36.43 16.17 36.44 C 12.89 38.33 12.42 44.45 16.64 45.39 C 26.49 46.62 36.70 46.05 46.67 45.70 C 51.21 45.02 51.47 38.62 47.82 36.44 C 50.00 36.44 50.11 34.54 50.28 32.84 C 50.96 34.85 51.52 36.90 52.14 38.93 C 53.01 44.60 48.63 49.52 43.12 50.16 C 34.08 51.21 23.40 52.74 15.22 47.76 C 10.79 44.81 12.95 39.39 12.95 34.99 C 12.96 34.49 12.99 33.49 13.00 32.99 Z" />
</g>
<g id="#885944ff">
<path fill="#885944" opacity="1.00" d=" M 12.07 35.07 L 12.95 34.99 C 12.95 39.39 10.79 44.81 15.22 47.76 C 23.40 52.74 34.08 51.21 43.12 50.16 C 48.63 49.52 53.01 44.60 52.14 38.93 L 53.06 39.05 C 53.04 41.65 53.02 44.26 52.99 46.86 C 51.33 48.24 49.64 49.58 47.93 50.88 C 44.90 51.90 41.83 52.82 38.78 53.77 C 34.26 53.91 29.74 54.08 25.22 53.80 C 22.18 52.81 19.11 51.90 16.08 50.88 C 14.36 49.58 12.66 48.24 11.00 46.86 C 10.99 44.24 10.99 41.61 11.01 38.98 C 11.04 37.61 11.68 36.36 12.07 35.07 Z" />
</g>
<g id="#4b2c21d6">
<path fill="#4b2c21" opacity="0.84" d=" M 10.05 39.03 L 11.01 38.98 C 10.99 41.61 10.99 44.24 11.00 46.86 C 8.81 46.41 10.45 41.32 10.05 39.03 Z" />
<path fill="#4b2c21" opacity="0.84" d=" M 53.06 39.05 C 55.19 39.88 53.54 44.65 53.93 47.02 L 52.99 46.86 C 53.02 44.26 53.04 41.65 53.06 39.05 Z" />
</g>
<g id="#533937ff">
<path fill="#533937" opacity="1.00" d=" M 23.20 41.13 C 25.55 40.17 27.15 43.81 24.80 44.87 C 22.45 45.83 20.85 42.18 23.20 41.13 Z" />
<path fill="#533937" opacity="1.00" d=" M 39.20 41.13 C 41.55 40.17 43.15 43.81 40.80 44.87 C 38.45 45.83 36.85 42.18 39.20 41.13 Z" />
</g>
<g id="#452b1fdd">
<path fill="#452b1f" opacity="0.87" d=" M 11.00 46.86 C 12.66 48.24 14.36 49.58 16.08 50.88 L 16.34 51.73 C 13.89 51.45 10.73 49.69 11.00 46.86 Z" />
<path fill="#452b1f" opacity="0.87" d=" M 47.93 50.88 C 49.64 49.58 51.33 48.24 52.99 46.86 C 53.28 49.70 50.09 51.47 47.63 51.71 L 47.93 50.88 Z" />
</g>
<g id="#4f3a2cf9">
<path fill="#4f3a2c" opacity="0.98" d=" M 16.08 50.88 C 19.11 51.90 22.18 52.81 25.22 53.80 C 23.80 53.86 22.38 53.95 20.96 54.08 C 21.61 55.07 22.32 56.01 23.03 56.96 C 19.98 56.51 18.24 53.85 16.34 51.73 L 16.08 50.88 Z" />
<path fill="#4f3a2c" opacity="0.98" d=" M 38.78 53.77 C 41.83 52.82 44.90 51.90 47.93 50.88 L 47.63 51.71 C 45.55 53.48 44.12 57.22 40.96 56.95 C 41.67 56.01 42.39 55.07 43.04 54.08 C 41.62 53.95 40.20 53.85 38.78 53.77 Z" />
</g>
<g id="#706054ff">
<path fill="#706054" opacity="1.00" d=" M 20.96 54.08 C 22.38 53.95 23.80 53.86 25.22 53.80 C 29.74 54.08 34.26 53.91 38.78 53.77 C 40.20 53.85 41.62 53.95 43.04 54.08 C 42.39 55.07 41.67 56.01 40.96 56.95 C 35.18 59.31 28.75 59.63 23.03 56.96 C 22.32 56.01 21.61 55.07 20.96 54.08 M 24.78 55.11 C 28.09 59.04 35.97 59.07 39.13 55.08 C 34.35 54.83 29.56 55.02 24.78 55.11 Z" />
</g>
<g id="#978879ff">
<path fill="#978879" opacity="1.00" d=" M 24.78 55.11 C 29.56 55.02 34.35 54.83 39.13 55.08 C 35.97 59.07 28.09 59.04 24.78 55.11 Z" />
</g>
<g id="#3c3127e1">
<path fill="#3c3127" opacity="0.88" d=" M 23.03 56.96 C 28.75 59.63 35.18 59.31 40.96 56.95 C 38.57 61.33 31.37 59.63 27.34 59.58 C 25.72 59.12 23.39 59.02 23.03 56.96 Z" />
</g>
</svg>
