<?xml version="1.0" encoding="UTF-8" ?>
<!DOCTYPE svg PUBLIC "-//W3C//DTD SVG 1.1//EN" "http://www.w3.org/Graphics/SVG/1.1/DTD/svg11.dtd">
<svg width="64pt" height="64pt" viewBox="0 0 64 64" version="1.1" xmlns="http://www.w3.org/2000/svg">
<g id="#e1c64ffd">
<path fill="#e1c64f" opacity="1.00" d=" M 23.40 6.72 C 29.45 0.39 43.56 3.25 45.02 12.99 C 45.01 14.60 44.99 16.20 44.92 17.81 C 43.97 19.82 43.21 21.94 41.91 23.76 C 38.68 23.49 35.14 23.49 33.04 20.71 C 31.82 19.20 30.13 17.00 28.03 18.58 L 27.11 18.99 C 24.84 16.22 20.74 14.31 21.98 10.05 C 22.63 9.03 23.86 8.07 23.40 6.72 M 28.23 9.19 C 26.46 10.96 23.97 12.62 26.00 16.00 C 28.32 16.37 30.54 15.84 31.81 13.75 C 35.56 7.81 30.72 8.91 28.23 9.19 M 38.26 14.23 C 35.82 15.82 33.25 19.53 36.21 21.88 C 41.01 23.51 44.42 13.67 38.26 14.23 Z" />
</g>
<g id="#a38111fb">
<path fill="#a38111" opacity="1.00" d=" M 18.90 13.00 C 19.20 10.38 20.93 7.76 23.40 6.72 C 23.86 8.07 22.63 9.03 21.98 10.05 C 18.90 12.85 20.32 17.38 19.80 21.08 C 19.21 18.43 19.08 15.70 18.90 13.00 Z" />
</g>
<g id="#2b2a29ff">
<path fill="#2b2a29" opacity="1.00" d=" M 28.23 9.19 C 30.72 8.91 35.56 7.81 31.81 13.75 C 30.54 15.84 28.32 16.37 26.00 16.00 C 23.97 12.62 26.46 10.96 28.23 9.19 Z" />
</g>
<g id="#bd9f3eff">
<path fill="#bd9f3e" opacity="1.00" d=" M 19.80 21.08 C 20.32 17.38 18.90 12.85 21.98 10.05 C 20.74 14.31 24.84 16.22 27.11 18.99 C 26.65 20.58 26.20 22.17 25.85 23.79 C 24.64 28.37 21.67 22.46 19.80 21.08 Z" />
</g>
<g id="#7c5005f8">
<path fill="#7c5005" opacity="0.97" d=" M 17.99 13.03 L 18.90 13.00 C 19.08 15.70 19.21 18.43 19.80 21.08 C 20.34 24.21 22.58 27.67 25.91 28.12 C 25.92 26.67 25.90 25.23 25.85 23.79 C 26.20 22.17 26.65 20.58 27.11 18.99 L 28.03 18.58 C 28.68 20.69 28.51 22.93 28.70 25.11 C 27.88 26.07 26.68 27.06 27.70 28.35 C 27.59 28.75 27.37 29.54 27.26 29.94 C 30.16 30.79 33.19 30.98 36.15 31.56 C 32.36 32.25 28.52 32.13 24.81 31.18 C 22.48 29.23 21.06 26.18 18.32 24.76 C 17.31 24.29 16.24 23.97 15.12 23.82 C 14.58 22.07 17.75 23.44 18.76 22.95 C 18.32 19.66 17.80 16.35 17.99 13.03 Z" />
</g>
<g id="#a1820cea">
<path fill="#a1820c" opacity="0.92" d=" M 45.02 12.99 C 48.99 13.75 42.24 24.71 48.94 23.10 L 48.94 23.87 C 47.34 23.94 45.74 24.21 44.95 25.76 C 44.39 26.48 43.83 27.20 43.27 27.93 C 42.69 27.64 41.54 27.07 40.96 26.79 C 44.04 24.90 45.27 21.31 44.92 17.81 C 44.99 16.20 45.01 14.60 45.02 12.99 Z" />
</g>
<g id="#302f2bff">
<path fill="#302f2b" opacity="1.00" d=" M 38.26 14.23 C 44.42 13.67 41.01 23.51 36.21 21.88 C 33.25 19.53 35.82 15.82 38.26 14.23 Z" />
</g>
<g id="#d18826ff">
<path fill="#d18826" opacity="1.00" d=" M 28.03 18.58 C 30.13 17.00 31.82 19.20 33.04 20.71 C 32.43 21.37 31.84 22.04 31.26 22.72 C 30.41 23.52 29.55 24.32 28.70 25.11 C 28.51 22.93 28.68 20.69 28.03 18.58 Z" />
</g>
<g id="#c9ab3eff">
<path fill="#c9ab3e" opacity="1.00" d=" M 41.91 23.76 C 43.21 21.94 43.97 19.82 44.92 17.81 C 45.27 21.31 44.04 24.90 40.96 26.79 L 40.20 27.21 C 36.73 27.70 33.71 26.63 33.30 22.80 C 33.23 22.28 33.10 21.23 33.04 20.71 C 35.14 23.49 38.68 23.49 41.91 23.76 Z" />
</g>
<g id="#a17e1dfe">
<path fill="#a17e1d" opacity="1.00" d=" M 19.80 21.08 C 21.67 22.46 24.64 28.37 25.85 23.79 C 25.90 25.23 25.92 26.67 25.91 28.12 C 22.58 27.67 20.34 24.21 19.80 21.08 Z" />
</g>
<g id="#9a710dff">
<path fill="#9a710d" opacity="1.00" d=" M 31.26 22.72 C 31.84 22.04 32.43 21.37 33.04 20.71 C 33.10 21.23 33.23 22.28 33.30 22.80 C 33.39 25.79 30.46 27.32 29.87 30.02 C 33.46 29.94 37.15 29.16 40.20 27.21 L 40.96 26.79 C 41.54 27.07 42.69 27.64 43.27 27.93 C 42.65 28.74 41.95 29.48 41.18 30.14 C 39.49 30.56 37.85 31.20 36.15 31.56 C 33.19 30.98 30.16 30.79 27.26 29.94 C 27.37 29.54 27.59 28.75 27.70 28.35 C 29.17 26.80 33.01 25.36 31.26 22.72 Z" />
</g>
<g id="#5e2002ff">
<path fill="#5e2002" opacity="1.00" d=" M 31.26 22.72 C 33.01 25.36 29.17 26.80 27.70 28.35 C 26.68 27.06 27.88 26.07 28.70 25.11 C 29.55 24.32 30.41 23.52 31.26 22.72 Z" />
</g>
<g id="#b49436ff">
<path fill="#b49436" opacity="1.00" d=" M 33.30 22.80 C 33.71 26.63 36.73 27.70 40.20 27.21 C 37.15 29.16 33.46 29.94 29.87 30.02 C 30.46 27.32 33.39 25.79 33.30 22.80 Z" />
</g>
<g id="#cea10ffd">
<path fill="#cea10f" opacity="1.00" d=" M 5.79 26.19 C 8.58 24.59 11.95 24.19 15.12 23.82 C 16.24 23.97 17.31 24.29 18.32 24.76 L 17.72 25.56 C 13.85 27.12 14.06 31.79 12.80 35.14 C 11.26 33.70 9.72 32.24 8.09 30.90 C 6.88 29.56 5.99 28.01 5.79 26.19 Z" />
</g>
<g id="#c3930efc">
<path fill="#c3930e" opacity="1.00" d=" M 44.95 25.76 C 45.74 24.21 47.34 23.94 48.94 23.87 C 52.71 24.07 56.33 25.39 60.01 26.13 C 59.54 28.73 57.55 30.92 55.63 32.67 C 54.85 33.20 54.26 33.90 53.88 34.77 C 53.68 35.13 53.26 35.84 53.06 36.20 C 52.56 36.41 51.56 36.84 51.06 37.05 C 50.87 32.95 50.42 25.70 44.95 25.76 Z" />
</g>
<g id="#bda93dff">
<path fill="#bda93d" opacity="1.00" d=" M 18.32 24.76 C 21.06 26.18 22.48 29.23 24.81 31.18 C 25.63 32.09 26.45 33.01 27.26 33.92 L 26.27 34.16 C 22.17 32.78 19.81 29.07 17.72 25.56 L 18.32 24.76 Z" />
</g>
<g id="#7f5409e8">
<path fill="#7f5409" opacity="0.91" d=" M 7.11 30.89 C 5.11 31.13 2.18 24.70 5.79 26.19 C 5.99 28.01 6.88 29.56 8.09 30.90 L 7.11 30.89 Z" />
</g>
<g id="#e8c942ff">
<path fill="#e8c942" opacity="1.00" d=" M 12.80 35.14 C 14.06 31.79 13.85 27.12 17.72 25.56 C 19.81 29.07 22.17 32.78 26.27 34.16 C 23.76 36.64 21.53 39.53 18.40 41.28 C 16.57 39.20 14.68 37.17 12.80 35.14 Z" />
</g>
<g id="#d2b949fe">
<path fill="#d2b949" opacity="1.00" d=" M 43.27 27.93 C 43.83 27.20 44.39 26.48 44.95 25.76 C 50.42 25.70 50.87 32.95 51.06 37.05 C 50.94 38.30 50.92 39.55 51.01 40.80 C 47.87 38.82 48.12 32.92 44.24 30.99 C 41.40 35.29 38.86 39.78 36.07 44.11 C 35.09 46.30 33.44 42.33 33.05 41.98 C 31.80 39.68 30.66 37.31 29.67 34.89 C 33.78 34.23 38.17 33.27 41.18 30.14 C 41.95 29.48 42.65 28.74 43.27 27.93 Z" />
</g>
<g id="#988a3eff">
<path fill="#988a3e" opacity="1.00" d=" M 36.15 31.56 C 37.85 31.20 39.49 30.56 41.18 30.14 C 38.17 33.27 33.78 34.23 29.67 34.89 C 29.27 34.73 28.48 34.41 28.08 34.25 L 27.26 33.92 C 26.45 33.01 25.63 32.09 24.81 31.18 C 28.52 32.13 32.36 32.25 36.15 31.56 Z" />
</g>
<g id="#a9a9a8fe">
<path fill="#a9a9a8" opacity="1.00" d=" M 7.11 30.89 L 8.09 30.90 C 9.72 32.24 11.26 33.70 12.80 35.14 C 14.68 37.17 16.57 39.20 18.40 41.28 L 17.99 42.12 C 14.41 39.33 11.55 35.70 7.99 32.88 C 6.78 39.26 9.70 45.57 15.79 48.20 C 26.10 55.26 39.88 53.87 50.68 48.67 C 53.86 46.75 54.85 43.09 55.86 39.77 C 55.89 40.58 55.95 42.20 55.99 43.01 C 56.23 45.63 54.70 48.16 53.08 50.06 C 42.97 61.01 24.98 60.49 12.97 52.92 C 9.00 50.75 7.57 45.28 6.97 41.02 C 6.99 37.99 6.99 34.97 7.04 31.94 L 7.11 30.89 Z" />
</g>
<g id="#e0e0e0ff">
<path fill="#e0e0e0" opacity="1.00" d=" M 44.24 30.99 C 48.12 32.92 47.87 38.82 51.01 40.80 C 52.88 40.62 53.09 37.75 53.06 36.20 C 53.26 35.84 53.68 35.13 53.88 34.77 C 57.03 34.38 55.70 37.85 55.86 39.77 C 54.85 43.09 53.86 46.75 50.68 48.67 C 39.88 53.87 26.10 55.26 15.79 48.20 C 9.70 45.57 6.78 39.26 7.99 32.88 C 11.55 35.70 14.41 39.33 17.99 42.12 C 22.58 41.85 24.98 37.11 28.08 34.25 C 28.48 34.41 29.27 34.73 29.67 34.89 C 30.66 37.31 31.80 39.68 33.05 41.98 C 33.44 42.33 35.09 46.30 36.07 44.11 C 38.86 39.78 41.40 35.29 44.24 30.99 Z" />
</g>
<g id="#41414197">
<path fill="#414141" opacity="0.59" d=" M 6.06 32.03 L 7.04 31.94 C 6.99 34.97 6.99 37.99 6.97 41.02 C 3.74 40.87 6.75 34.46 6.06 32.03 Z" />
</g>
<g id="#7f7f7fe8">
<path fill="#7f7f7f" opacity="0.91" d=" M 53.88 34.77 C 54.26 33.90 54.85 33.20 55.63 32.67 C 58.25 35.36 56.69 39.60 56.98 42.99 L 55.99 43.01 C 55.95 42.20 55.89 40.58 55.86 39.77 C 55.70 37.85 57.03 34.38 53.88 34.77 Z" />
</g>
<g id="#b1a98cff">
<path fill="#b1a98c" opacity="1.00" d=" M 26.27 34.16 L 27.26 33.92 L 28.08 34.25 C 24.98 37.11 22.58 41.85 17.99 42.12 L 18.40 41.28 C 21.53 39.53 23.76 36.64 26.27 34.16 Z" />
</g>
<g id="#41341f85">
<path fill="#41341f" opacity="0.52" d=" M 51.06 37.05 C 51.56 36.84 52.56 36.41 53.06 36.20 C 53.09 37.75 52.88 40.62 51.01 40.80 C 50.92 39.55 50.94 38.30 51.06 37.05 Z" />
</g>
<g id="#717171f9">
<path fill="#717171" opacity="0.98" d=" M 12.97 52.92 C 24.98 60.49 42.97 61.01 53.08 50.06 C 52.17 53.11 49.61 55.33 47.06 57.05 C 44.52 58.27 42.03 59.63 39.29 60.36 C 34.45 60.12 29.59 59.99 24.75 60.22 C 22.40 59.77 20.24 58.68 17.97 57.94 C 15.88 56.88 14.20 54.91 12.97 52.92 Z" />
</g>
<g id="#04040337">
<path fill="#040403" opacity="0.22" d=" M 39.29 60.36 C 42.03 59.63 44.52 58.27 47.06 57.05 C 47.00 57.72 46.88 59.07 46.82 59.75 C 40.90 62.93 33.83 63.41 27.27 62.70 C 23.92 62.23 19.46 61.52 17.97 57.94 C 20.24 58.68 22.40 59.77 24.75 60.22 C 29.49 61.01 34.60 61.81 39.29 60.36 Z" />
</g>
<g id="#434343e2">
<path fill="#434343" opacity="0.89" d=" M 24.75 60.22 C 29.59 59.99 34.45 60.12 39.29 60.36 C 34.60 61.81 29.49 61.01 24.75 60.22 Z" />
</g>
</svg>
