<?xml version="1.0" encoding="UTF-8" ?>
<!DOCTYPE svg PUBLIC "-//W3C//DTD SVG 1.1//EN" "http://www.w3.org/Graphics/SVG/1.1/DTD/svg11.dtd">
<svg width="64pt" height="64pt" viewBox="0 0 64 64" version="1.1" xmlns="http://www.w3.org/2000/svg">
<g id="#42320bff">
<path fill="#42320b" opacity="1.00" d=" M 41.17 4.25 C 42.48 3.70 43.95 4.08 44.90 5.11 C 49.07 8.94 51.86 14.34 52.26 20.01 C 56.23 25.08 59.76 30.48 62.91 36.09 C 63.09 45.05 62.96 54.01 62.97 62.97 C 59.99 62.90 56.99 63.15 54.02 62.87 C 55.35 62.06 56.72 61.30 58.10 60.57 C 58.86 60.20 59.60 59.79 60.32 59.35 C 60.78 53.17 60.42 46.94 60.45 40.73 C 59.79 34.43 56.13 28.35 50.49 25.27 C 51.39 21.35 51.34 16.98 48.81 13.62 C 47.91 11.42 46.96 8.87 44.43 8.11 C 43.65 7.38 43.04 6.00 41.76 6.50 C 40.94 9.90 40.25 13.48 41.57 16.86 C 38.98 14.43 34.54 15.03 31.65 16.69 C 24.20 22.01 22.63 32.28 15.15 37.58 C 14.63 37.61 13.59 37.67 13.06 37.70 C 21.21 32.78 21.99 21.66 29.79 16.56 C 29.78 12.89 28.81 8.08 32.00 5.45 C 35.75 7.09 38.05 10.76 39.92 14.22 C 39.84 10.88 39.59 7.31 41.17 4.25 M 31.84 8.25 C 31.15 10.41 30.99 12.72 31.40 14.95 C 32.25 14.73 33.97 14.28 34.82 14.06 C 35.23 11.77 34.04 9.16 31.84 8.25 Z" />
<path fill="#42320b" opacity="1.00" d=" M 40.33 40.70 C 41.92 40.09 43.56 39.60 45.27 39.55 C 44.96 39.79 44.33 40.28 44.02 40.53 C 37.79 44.24 30.53 45.96 24.03 49.20 C 22.01 49.91 20.10 50.99 17.96 51.34 C 17.12 51.19 16.27 51.08 15.42 51.01 C 15.33 51.52 15.15 52.53 15.05 53.04 C 14.90 52.52 14.58 51.50 14.42 50.98 C 11.04 51.03 8.28 47.67 8.38 44.49 C 11.46 46.06 13.77 50.14 17.67 49.38 C 25.53 47.36 32.90 43.87 40.33 40.70 Z" />
</g>
<g id="#a5a095ff">
<path fill="#a5a095" opacity="1.00" d=" M 41.76 6.50 C 43.04 6.00 43.65 7.38 44.43 8.11 C 44.55 8.74 44.79 10.00 44.92 10.64 C 44.35 10.53 43.23 10.32 42.67 10.21 C 41.76 14.27 42.74 18.43 46.27 20.91 C 46.25 21.34 46.22 22.20 46.20 22.63 C 44.16 22.48 43.27 20.18 42.10 18.79 C 41.97 18.31 41.70 17.34 41.57 16.86 C 40.25 13.48 40.94 9.90 41.76 6.50 Z" />
</g>
<g id="#6a6866ff">
<path fill="#6a6866" opacity="1.00" d=" M 31.84 8.25 C 34.04 9.16 35.23 11.77 34.82 14.06 C 33.97 14.28 32.25 14.73 31.40 14.95 C 30.99 12.72 31.15 10.41 31.84 8.25 Z" />
</g>
<g id="#b28e2cff">
<path fill="#b28e2c" opacity="1.00" d=" M 44.43 8.11 C 46.96 8.87 47.91 11.42 48.81 13.62 C 48.89 15.91 49.37 18.18 49.30 20.48 C 48.67 21.60 47.29 22.03 46.20 22.63 C 46.22 22.20 46.25 21.34 46.27 20.91 C 46.70 17.41 45.75 14.00 44.92 10.64 C 44.79 10.00 44.55 8.74 44.43 8.11 Z" />
</g>
<g id="#e6e6e9ff">
<path fill="#e6e6e9" opacity="1.00" d=" M 42.67 10.21 C 43.23 10.32 44.35 10.53 44.92 10.64 C 45.75 14.00 46.70 17.41 46.27 20.91 C 42.74 18.43 41.76 14.27 42.67 10.21 Z" />
</g>
<g id="#876a1bff">
<path fill="#876a1b" opacity="1.00" d=" M 48.81 13.62 C 51.34 16.98 51.39 21.35 50.49 25.27 C 56.13 28.35 59.79 34.43 60.45 40.73 C 60.26 43.10 59.95 45.46 59.55 47.80 C 57.17 45.32 55.57 42.24 53.41 39.59 C 50.72 39.14 47.98 39.40 45.27 39.55 C 43.56 39.60 41.92 40.09 40.33 40.70 C 32.90 43.87 25.53 47.36 17.67 49.38 C 13.77 50.14 11.46 46.06 8.38 44.49 C 9.11 43.97 9.84 43.45 10.58 42.95 C 11.45 46.01 14.36 48.25 17.59 47.42 C 25.20 45.51 32.27 41.86 39.10 38.09 C 42.00 36.58 45.29 36.20 48.35 35.14 C 49.68 32.73 47.75 30.47 46.39 28.62 C 44.13 25.77 43.03 22.25 42.10 18.79 C 43.27 20.18 44.16 22.48 46.20 22.63 C 47.29 22.03 48.67 21.60 49.30 20.48 C 49.37 18.18 48.89 15.91 48.81 13.62 Z" />
</g>
<g id="#a28020ff">
<path fill="#a28020" opacity="1.00" d=" M 31.65 16.69 C 34.54 15.03 38.98 14.43 41.57 16.86 C 41.70 17.34 41.97 18.31 42.10 18.79 C 43.03 22.25 44.13 25.77 46.39 28.62 C 47.75 30.47 49.68 32.73 48.35 35.14 C 45.29 36.20 42.00 36.58 39.10 38.09 C 32.27 41.86 25.20 45.51 17.59 47.42 C 14.36 48.25 11.45 46.01 10.58 42.95 C 11.52 41.41 12.31 39.77 12.62 37.98 C 12.64 37.91 12.68 37.78 12.70 37.72 L 13.06 37.70 C 13.59 37.67 14.63 37.61 15.15 37.58 C 22.63 32.28 24.20 22.01 31.65 16.69 M 34.44 18.53 C 28.44 21.03 26.21 27.70 22.63 32.59 C 20.28 36.28 16.71 38.86 13.16 41.28 C 11.24 42.37 12.83 45.00 14.35 45.61 C 18.88 46.26 22.97 43.77 26.91 41.92 C 31.46 39.45 36.58 37.06 39.23 32.37 C 39.85 28.41 39.64 24.33 39.44 20.34 C 38.44 18.75 36.23 18.17 34.44 18.53 Z" />
</g>
<g id="#c09827ff">
<path fill="#c09827" opacity="1.00" d=" M 34.44 18.53 C 36.23 18.17 38.44 18.75 39.44 20.34 C 39.64 24.33 39.85 28.41 39.23 32.37 C 36.58 37.06 31.46 39.45 26.91 41.92 C 22.97 43.77 18.88 46.26 14.35 45.61 C 12.83 45.00 11.24 42.37 13.16 41.28 C 16.71 38.86 20.28 36.28 22.63 32.59 C 26.21 27.70 28.44 21.03 34.44 18.53 M 28.71 32.02 C 29.03 33.77 30.33 34.98 32.03 35.38 C 33.75 34.94 34.98 33.75 35.39 32.01 C 34.93 30.29 33.75 29.03 32.00 28.62 C 30.32 29.04 29.03 30.30 28.71 32.02 Z" />
</g>
<g id="#020102ff">
<path fill="#020102" opacity="1.00" d=" M 28.71 32.02 C 29.03 30.30 30.32 29.04 32.00 28.62 C 33.75 29.03 34.93 30.29 35.39 32.01 C 34.98 33.75 33.75 34.94 32.03 35.38 C 30.33 34.98 29.03 33.77 28.71 32.02 M 31.10 30.07 C 30.44 31.51 31.10 31.99 33.10 31.52 C 33.32 29.89 32.66 29.41 31.10 30.07 Z" />
<path fill="#020102" opacity="1.00" d=" M 7.03 38.96 C 8.11 36.70 10.74 37.57 12.62 37.98 C 12.31 39.77 11.52 41.41 10.58 42.95 C 9.84 43.45 9.11 43.97 8.38 44.49 L 7.99 44.76 C 7.90 42.78 6.67 40.96 7.03 38.96 Z" />
</g>
<g id="#a5a5a6ff">
<path fill="#a5a5a6" opacity="1.00" d=" M 31.10 30.07 C 32.66 29.41 33.32 29.89 33.10 31.52 C 31.10 31.99 30.44 31.51 31.10 30.07 Z" />
<path fill="#a5a5a6" opacity="1.00" d=" M 26.12 50.11 C 30.82 49.13 35.52 48.01 40.37 48.47 L 42.17 48.48 C 40.72 49.79 39.02 50.86 36.99 50.63 C 31.09 50.35 25.76 54.61 19.81 53.23 C 19.35 52.76 18.42 51.81 17.96 51.34 C 20.10 50.99 22.01 49.91 24.03 49.20 C 24.56 49.43 25.60 49.88 26.12 50.11 Z" />
</g>
<g id="#7c6a35ff">
<path fill="#7c6a35" opacity="1.00" d=" M 45.27 39.55 C 47.98 39.40 50.72 39.14 53.41 39.59 C 55.57 42.24 57.17 45.32 59.55 47.80 C 59.95 45.46 60.26 43.10 60.45 40.73 C 60.42 46.94 60.78 53.17 60.32 59.35 C 59.60 59.79 58.86 60.20 58.10 60.57 C 56.02 60.42 53.97 60.03 51.91 59.69 C 52.72 59.21 53.52 58.71 54.29 58.17 C 54.75 54.79 54.48 51.35 53.71 48.03 C 53.21 45.68 53.03 42.67 50.63 41.40 C 48.86 39.98 46.54 41.05 44.50 40.98 L 44.02 40.53 C 44.33 40.28 44.96 39.79 45.27 39.55 Z" />
</g>
<g id="#dbdcdcff">
<path fill="#dbdcdc" opacity="1.00" d=" M 24.03 49.20 C 30.53 45.96 37.79 44.24 44.02 40.53 L 44.50 40.98 C 44.96 41.43 45.89 42.31 46.35 42.76 C 46.34 43.33 46.32 44.46 46.32 45.03 C 44.24 46.01 42.14 46.98 40.37 48.47 C 35.52 48.01 30.82 49.13 26.12 50.11 C 25.60 49.88 24.56 49.43 24.03 49.20 Z" />
</g>
<g id="#9d9071ff">
<path fill="#9d9071" opacity="1.00" d=" M 44.50 40.98 C 46.54 41.05 48.86 39.98 50.63 41.40 C 53.03 42.67 53.21 45.68 53.71 48.03 C 54.48 51.35 54.75 54.79 54.29 58.17 C 53.52 58.71 52.72 59.21 51.91 59.69 C 48.31 60.45 43.61 61.82 40.63 58.97 C 39.97 56.35 41.43 54.00 42.62 51.79 C 42.60 54.02 42.43 56.25 42.57 58.48 C 44.78 59.89 47.33 59.29 49.50 58.14 C 49.73 54.40 49.62 50.65 49.44 46.91 C 49.54 44.94 47.91 43.60 46.35 42.76 C 45.89 42.31 44.96 41.43 44.50 40.98 Z" />
</g>
<g id="#b1b1aeff">
<path fill="#b1b1ae" opacity="1.00" d=" M 46.35 42.76 C 47.91 43.60 49.54 44.94 49.44 46.91 C 49.62 50.65 49.73 54.40 49.50 58.14 C 47.33 59.29 44.78 59.89 42.57 58.48 C 42.43 56.25 42.60 54.02 42.62 51.79 C 42.99 50.96 43.74 49.29 44.11 48.45 L 42.17 48.48 L 40.37 48.47 C 42.14 46.98 44.24 46.01 46.32 45.03 C 46.32 44.46 46.34 43.33 46.35 42.76 Z" />
</g>
<g id="#575757ff">
<path fill="#575757" opacity="1.00" d=" M 36.99 50.63 C 39.02 50.86 40.72 49.79 42.17 48.48 L 44.11 48.45 C 43.74 49.29 42.99 50.96 42.62 51.79 C 41.43 54.00 39.97 56.35 40.63 58.97 C 43.61 61.82 48.31 60.45 51.91 59.69 C 53.97 60.03 56.02 60.42 58.10 60.57 C 56.72 61.30 55.35 62.06 54.02 62.87 C 48.36 63.05 42.70 62.85 37.04 62.94 C 37.41 59.30 38.26 55.72 38.45 52.06 C 31.89 52.44 26.23 57.79 19.51 56.33 C 17.60 56.00 16.05 54.65 15.05 53.04 C 15.15 52.53 15.33 51.52 15.42 51.01 C 16.27 51.08 17.12 51.19 17.96 51.34 C 18.42 51.81 19.35 52.76 19.81 53.23 C 25.76 54.61 31.09 50.35 36.99 50.63 Z" />
</g>
</svg>
