<?xml version="1.0" encoding="UTF-8" ?>
<!DOCTYPE svg PUBLIC "-//W3C//DTD SVG 1.1//EN" "http://www.w3.org/Graphics/SVG/1.1/DTD/svg11.dtd">
<svg width="64pt" height="64pt" viewBox="0 0 64 64" version="1.1" xmlns="http://www.w3.org/2000/svg">
<g id="#da9eaaff">
<path fill="#da9eaa" opacity="1.00" d=" M 10.95 5.04 C 15.23 3.81 20.16 3.48 24.11 5.90 C 20.52 4.84 16.76 4.78 13.07 5.16 C 15.12 5.66 17.18 6.12 19.23 6.65 C 18.90 10.88 18.33 15.16 16.40 19.00 C 15.22 16.46 14.74 11.88 10.98 12.24 C 9.16 12.04 7.51 13.32 7.19 15.11 C 6.56 17.99 6.40 21.99 9.34 23.68 C 10.83 24.94 12.70 23.86 14.30 23.50 C 13.33 24.99 12.34 26.47 11.35 27.95 C 7.79 25.01 4.11 21.06 4.97 16.01 C 4.98 11.82 8.61 9.20 10.40 5.77 L 10.95 5.04 Z" />
</g>
<g id="#73626add">
<path fill="#73626a" opacity="0.87" d=" M 39.89 6.03 C 43.11 3.37 47.48 3.73 51.33 4.44 C 47.46 4.38 43.60 4.94 39.89 6.03 Z" />
</g>
<g id="#bbadb7ff">
<path fill="#bbadb7" opacity="1.00" d=" M 13.07 5.16 C 16.76 4.78 20.52 4.84 24.11 5.90 C 26.81 7.64 28.42 10.49 29.80 13.30 C 31.47 13.27 33.17 12.95 34.83 13.30 L 34.93 13.74 C 31.77 13.95 28.61 13.67 25.46 13.50 C 24.99 12.53 24.48 11.58 23.93 10.65 C 22.80 8.87 21.14 7.52 19.23 6.65 C 17.18 6.12 15.12 5.66 13.07 5.16 Z" />
</g>
<g id="#b5a5b1ff">
<path fill="#b5a5b1" opacity="1.00" d=" M 39.89 6.03 C 43.60 4.94 47.46 4.38 51.33 4.44 C 52.26 4.79 53.19 5.16 54.11 5.55 C 50.64 5.68 47.14 5.91 43.81 6.97 C 41.34 8.88 39.53 11.46 38.01 14.16 C 36.98 14.02 35.96 13.88 34.93 13.74 L 34.83 13.30 C 35.08 10.20 37.63 7.90 39.89 6.03 Z" />
</g>
<g id="#a96472e4">
<path fill="#a96472" opacity="0.89" d=" M 4.76 22.23 C 2.61 16.43 4.10 8.30 10.40 5.77 C 8.61 9.20 4.98 11.82 4.97 16.01 C 4.11 21.06 7.79 25.01 11.35 27.95 C 12.34 26.47 13.33 24.99 14.30 23.50 C 14.48 23.14 14.84 22.41 15.02 22.05 C 15.47 21.73 16.39 21.11 16.84 20.79 C 15.44 23.39 14.33 26.12 13.06 28.78 C 12.71 28.99 12.01 29.41 11.66 29.62 C 9.01 27.53 6.04 25.51 4.76 22.23 Z" />
</g>
<g id="#d99ba7ff">
<path fill="#d99ba7" opacity="1.00" d=" M 43.81 6.97 C 47.14 5.91 50.64 5.68 54.11 5.55 C 58.03 8.39 60.85 13.00 60.39 17.97 C 59.93 22.68 56.82 27.64 52.04 28.85 L 51.48 28.78 C 50.59 26.50 49.83 24.17 48.83 21.93 C 50.25 23.06 51.76 24.08 53.22 25.15 C 55.18 23.13 57.82 21.09 57.69 17.97 C 57.69 14.88 55.92 10.46 52.07 11.32 C 47.94 12.37 48.25 17.66 48.15 21.01 C 47.45 20.14 46.74 19.28 46.04 18.41 C 44.63 14.75 44.17 10.84 43.81 6.97 Z" />
</g>
<g id="#d08493ff">
<path fill="#d08493" opacity="1.00" d=" M 19.23 6.65 C 21.14 7.52 22.80 8.87 23.93 10.65 C 22.44 12.76 20.90 14.84 19.43 16.97 C 18.82 18.98 18.73 21.09 18.69 23.18 C 18.33 22.18 17.99 21.18 17.65 20.18 C 17.45 20.33 17.04 20.64 16.84 20.79 C 16.39 21.11 15.47 21.73 15.02 22.05 C 15.49 21.04 15.95 20.02 16.40 19.00 C 18.33 15.16 18.90 10.88 19.23 6.65 Z" />
</g>
<g id="#cb7385ff">
<path fill="#cb7385" opacity="1.00" d=" M 38.01 14.16 C 39.53 11.46 41.34 8.88 43.81 6.97 C 44.17 10.84 44.63 14.75 46.04 18.41 C 43.92 17.12 41.78 15.84 39.51 14.83 L 38.01 14.16 Z" />
</g>
<g id="#c66d58ff">
<path fill="#c66d58" opacity="1.00" d=" M 19.43 16.97 C 20.90 14.84 22.44 12.76 23.93 10.65 C 24.48 11.58 24.99 12.53 25.46 13.50 C 28.61 13.67 31.77 13.95 34.93 13.74 C 35.96 13.88 36.98 14.02 38.01 14.16 L 39.51 14.83 C 32.76 14.33 25.84 14.54 19.43 16.97 Z" />
</g>
<g id="#e6bec5ff">
<path fill="#e6bec5" opacity="1.00" d=" M 48.15 21.01 C 48.25 17.66 47.94 12.37 52.07 11.32 C 55.92 10.46 57.69 14.88 57.69 17.97 C 57.82 21.09 55.18 23.13 53.22 25.15 C 51.76 24.08 50.25 23.06 48.83 21.93 C 48.66 21.70 48.32 21.24 48.15 21.01 Z" />
</g>
<g id="#e6bfc7ff">
<path fill="#e6bfc7" opacity="1.00" d=" M 7.19 15.11 C 7.51 13.32 9.16 12.04 10.98 12.24 C 14.74 11.88 15.22 16.46 16.40 19.00 C 15.95 20.02 15.49 21.04 15.02 22.05 C 14.84 22.41 14.48 23.14 14.30 23.50 C 12.70 23.86 10.83 24.94 9.34 23.68 C 6.40 21.99 6.56 17.99 7.19 15.11 Z" />
</g>
<g id="#ec924bff">
<path fill="#ec924b" opacity="1.00" d=" M 19.43 16.97 C 25.84 14.54 32.76 14.33 39.51 14.83 C 41.78 15.84 43.92 17.12 46.04 18.41 C 46.74 19.28 47.45 20.14 48.15 21.01 C 48.32 21.24 48.66 21.70 48.83 21.93 C 49.83 24.17 50.59 26.50 51.48 28.78 C 53.00 32.55 55.73 35.63 58.45 38.58 C 58.51 39.49 58.56 40.39 58.59 41.30 C 57.74 42.11 56.89 42.93 56.04 43.75 C 53.90 43.92 51.73 44.01 49.63 44.49 C 45.51 45.65 41.94 48.79 37.42 48.30 C 38.20 47.14 38.97 45.97 39.83 44.87 C 44.28 45.02 44.86 40.57 44.68 37.15 C 46.06 31.65 46.34 25.26 42.25 20.78 C 38.67 16.12 32.16 16.91 27.00 17.28 C 23.29 17.48 21.12 20.85 18.69 23.18 C 18.73 21.09 18.82 18.98 19.43 16.97 Z" />
</g>
<g id="#fca858ff">
<path fill="#fca858" opacity="1.00" d=" M 18.69 23.18 C 21.12 20.85 23.29 17.48 27.00 17.28 C 32.16 16.91 38.67 16.12 42.25 20.78 C 46.34 25.26 46.06 31.65 44.68 37.15 C 43.61 36.20 42.44 35.36 41.14 34.76 C 37.21 36.76 37.95 41.70 39.83 44.87 C 38.97 45.97 38.20 47.14 37.42 48.30 L 36.89 47.99 C 35.54 46.43 34.18 44.81 33.39 42.88 C 32.13 39.76 34.56 36.07 32.90 33.16 C 28.66 30.10 23.06 29.20 19.49 25.12 C 19.21 24.48 18.94 23.83 18.69 23.18 Z" />
</g>
<g id="#dcd0d4ff">
<path fill="#dcd0d4" opacity="1.00" d=" M 16.84 20.79 C 17.04 20.64 17.45 20.33 17.65 20.18 C 17.99 21.18 18.33 22.18 18.69 23.18 C 18.94 23.83 19.21 24.48 19.49 25.12 C 16.75 28.29 17.23 33.09 20.79 35.41 C 18.66 38.48 18.70 45.02 23.72 44.66 C 24.88 44.67 26.04 44.63 27.20 44.61 C 27.70 46.86 28.16 49.12 28.66 51.37 C 28.30 52.56 27.94 53.75 27.60 54.95 C 26.13 54.46 24.64 54.06 23.16 53.65 C 23.73 52.34 24.30 51.04 24.87 49.73 C 20.67 49.21 16.45 49.66 12.25 49.48 C 8.65 47.61 6.97 42.86 7.74 39.00 C 9.00 35.34 11.50 32.30 13.06 28.78 C 14.33 26.12 15.44 23.39 16.84 20.79 Z" />
</g>
<g id="#ece4e7ff">
<path fill="#ece4e7" opacity="1.00" d=" M 20.79 35.41 C 17.23 33.09 16.75 28.29 19.49 25.12 C 23.06 29.20 28.66 30.10 32.90 33.16 C 34.56 36.07 32.13 39.76 33.39 42.88 C 34.18 44.81 35.54 46.43 36.89 47.99 C 36.43 49.08 35.96 50.17 35.49 51.26 C 33.21 51.30 30.94 51.35 28.66 51.37 C 28.16 49.12 27.70 46.86 27.20 44.61 C 26.04 44.63 24.88 44.67 23.72 44.66 C 26.47 41.95 26.44 37.28 23.26 34.94 C 22.64 35.06 21.40 35.29 20.79 35.41 Z" />
<path fill="#ece4e7" opacity="1.00" d=" M 40.92 36.91 L 42.00 36.65 L 42.46 37.25 C 42.22 37.79 41.74 38.88 41.51 39.42 L 40.65 39.07 L 40.31 37.95 L 40.92 36.91 Z" />
</g>
<g id="#aea0a3ff">
<path fill="#aea0a3" opacity="1.00" d=" M 11.66 29.62 C 12.01 29.41 12.71 28.99 13.06 28.78 C 11.50 32.30 9.00 35.34 7.74 39.00 C 6.97 42.86 8.65 47.61 12.25 49.48 C 16.45 49.66 20.67 49.21 24.87 49.73 C 24.30 51.04 23.73 52.34 23.16 53.65 C 24.64 54.06 26.13 54.46 27.60 54.95 C 28.51 55.65 29.41 56.36 30.30 57.09 C 29.21 57.11 28.11 57.15 27.02 57.20 C 22.11 55.48 16.65 55.60 12.02 53.05 C 9.96 51.94 7.97 50.69 5.98 49.45 L 5.77 49.31 C 5.49 48.74 4.94 47.61 4.66 47.04 C 2.80 40.42 5.24 32.73 11.66 29.62 Z" />
</g>
<g id="#aa4f29f4">
<path fill="#aa4f29" opacity="0.96" d=" M 51.48 28.78 L 52.04 28.85 C 54.40 30.49 56.38 32.60 58.24 34.78 C 58.29 35.73 58.40 37.63 58.45 38.58 C 55.73 35.63 53.00 32.55 51.48 28.78 Z" />
</g>
<g id="#242425ff">
<path fill="#242425" opacity="1.00" d=" M 20.79 35.41 C 21.40 35.29 22.64 35.06 23.26 34.94 C 26.44 37.28 26.47 41.95 23.72 44.66 C 18.70 45.02 18.66 38.48 20.79 35.41 M 22.75 43.23 C 22.78 41.85 24.76 39.52 22.91 38.75 L 23.37 38.02 C 23.05 37.74 22.39 37.16 22.07 36.88 C 20.24 38.80 21.44 41.42 22.75 43.23 Z" />
</g>
<g id="#2c2219ff">
<path fill="#2c2219" opacity="1.00" d=" M 39.83 44.87 C 37.95 41.70 37.21 36.76 41.14 34.76 C 42.44 35.36 43.61 36.20 44.68 37.15 C 44.86 40.57 44.28 45.02 39.83 44.87 M 40.92 36.91 L 40.31 37.95 L 40.65 39.07 C 40.59 39.69 40.46 40.92 40.39 41.54 C 40.92 41.57 41.96 41.63 42.48 41.65 C 42.48 40.20 43.35 38.58 42.46 37.25 L 42.00 36.65 L 40.92 36.91 Z" />
</g>
<g id="#675458f2">
<path fill="#675458" opacity="0.95" d=" M 58.24 34.78 C 62.45 41.73 59.65 51.41 52.46 55.13 C 53.02 55.52 53.57 55.91 54.14 56.29 L 52.05 57.43 C 52.11 56.93 52.24 55.93 52.30 55.43 C 48.64 56.94 44.67 57.07 40.77 56.98 C 46.77 55.28 54.35 54.51 57.49 48.26 C 58.66 46.14 58.63 43.65 58.59 41.30 C 58.56 40.39 58.51 39.49 58.45 38.58 C 58.40 37.63 58.29 35.73 58.24 34.78 Z" />
<path fill="#675458" opacity="0.95" d=" M 42.46 37.25 C 43.35 38.58 42.48 40.20 42.48 41.65 C 41.96 41.63 40.92 41.57 40.39 41.54 C 40.46 40.92 40.59 39.69 40.65 39.07 L 41.51 39.42 C 41.74 38.88 42.22 37.79 42.46 37.25 Z" />
<path fill="#675458" opacity="0.95" d=" M 5.98 49.45 C 7.97 50.69 9.96 51.94 12.02 53.05 C 16.65 55.60 22.11 55.48 27.02 57.20 L 25.14 57.30 C 21.39 57.18 17.43 57.49 13.91 55.94 C 12.55 55.35 11.23 54.68 9.93 53.98 C 8.06 53.05 6.97 51.20 5.98 49.45 Z" />
</g>
<g id="#3a3a3aff">
<path fill="#3a3a3a" opacity="1.00" d=" M 22.75 43.23 C 21.44 41.42 20.24 38.80 22.07 36.88 C 22.28 37.35 22.70 38.28 22.91 38.75 C 24.76 39.52 22.78 41.85 22.75 43.23 Z" />
</g>
<g id="#c9c2c4ff">
<path fill="#c9c2c4" opacity="1.00" d=" M 22.07 36.88 C 22.39 37.16 23.05 37.74 23.37 38.02 L 22.91 38.75 C 22.70 38.28 22.28 37.35 22.07 36.88 Z" />
</g>
<g id="#b9acaeff">
<path fill="#b9acae" opacity="1.00" d=" M 56.04 43.75 C 56.89 42.93 57.74 42.11 58.59 41.30 C 58.63 43.65 58.66 46.14 57.49 48.26 C 50.95 52.94 42.86 54.43 35.39 57.03 C 35.44 56.47 35.53 55.37 35.57 54.82 C 37.27 54.23 38.96 53.63 40.66 53.03 C 40.15 51.97 39.64 50.90 39.14 49.84 C 43.61 48.79 48.17 49.68 52.68 49.54 C 54.82 48.45 55.11 45.72 56.04 43.75 Z" />
</g>
<g id="#d4c7cbff">
<path fill="#d4c7cb" opacity="1.00" d=" M 49.63 44.49 C 51.73 44.01 53.90 43.92 56.04 43.75 C 55.11 45.72 54.82 48.45 52.68 49.54 C 48.17 49.68 43.61 48.79 39.14 49.84 C 39.64 50.90 40.15 51.97 40.66 53.03 C 38.96 53.63 37.27 54.23 35.57 54.82 C 35.58 53.63 35.56 52.44 35.49 51.26 C 35.96 50.17 36.43 49.08 36.89 47.99 L 37.42 48.30 C 41.94 48.79 45.51 45.65 49.63 44.49 Z" />
</g>
<g id="#a37771ff">
<path fill="#a37771" opacity="1.00" d=" M 35.39 57.03 C 42.86 54.43 50.95 52.94 57.49 48.26 C 54.35 54.51 46.77 55.28 40.77 56.98 C 39.56 57.35 38.39 57.86 37.18 58.26 C 33.74 58.76 30.23 58.72 26.78 58.31 L 25.14 57.30 L 27.02 57.20 C 28.11 57.15 29.21 57.11 30.30 57.09 C 29.41 56.36 28.51 55.65 27.60 54.95 C 27.94 53.75 28.30 52.56 28.66 51.37 C 30.94 51.35 33.21 51.30 35.49 51.26 C 35.56 52.44 35.58 53.63 35.57 54.82 C 35.53 55.37 35.44 56.47 35.39 57.03 Z" />
</g>
<g id="#26202183">
<path fill="#262021" opacity="0.51" d=" M 9.93 53.98 C 11.23 54.68 12.55 55.35 13.91 55.94 C 12.20 56.53 10.52 57.19 8.87 57.93 C 9.62 57.22 10.38 56.51 11.13 55.80 C 10.83 55.35 10.23 54.44 9.93 53.98 Z" />
</g>
<g id="#5c4c50d2">
<path fill="#5c4c50" opacity="0.82" d=" M 26.78 58.31 C 30.23 58.72 33.74 58.76 37.18 58.26 C 34.03 60.54 29.97 60.48 26.78 58.31 Z" />
</g>
</svg>
