<?xml version="1.0" encoding="UTF-8" ?>
<!DOCTYPE svg PUBLIC "-//W3C//DTD SVG 1.1//EN" "http://www.w3.org/Graphics/SVG/1.1/DTD/svg11.dtd">
<svg width="64pt" height="64pt" viewBox="0 0 64 64" version="1.1" xmlns="http://www.w3.org/2000/svg">
<g id="#4f8250f8">
<path fill="#4f8250" opacity="0.97" d=" M 38.17 7.00 C 41.21 6.47 41.02 10.05 41.18 12.07 C 43.75 11.66 46.66 8.42 48.96 11.15 C 47.44 14.71 44.20 16.97 41.83 19.92 C 44.85 19.77 47.84 19.33 50.80 18.79 C 52.87 16.93 52.13 11.52 55.82 12.12 C 58.64 14.30 51.49 20.86 61.00 16.99 C 64.04 15.70 63.75 21.24 60.98 20.99 C 56.69 24.40 49.99 24.18 46.86 28.97 C 50.93 29.91 53.66 26.37 57.08 24.97 C 57.25 26.88 55.33 27.28 54.12 28.21 C 53.01 31.79 59.53 30.53 58.98 33.85 C 56.73 35.12 51.59 33.03 50.94 35.92 C 52.57 35.69 58.84 35.09 57.93 38.82 C 56.30 39.45 54.61 39.93 52.91 40.32 C 54.37 41.71 59.83 42.45 56.81 44.88 C 54.50 44.69 52.21 44.43 49.92 44.11 C 51.00 45.74 53.09 46.84 53.08 49.02 C 50.99 49.15 49.00 48.50 46.99 48.02 C 47.24 49.05 47.52 50.07 47.83 51.08 C 45.89 51.10 44.03 50.52 42.19 49.98 C 42.50 50.99 42.77 52.01 43.01 53.04 C 40.27 52.64 36.72 49.61 35.87 53.84 C 33.50 52.26 29.69 51.49 27.90 54.00 C 36.77 56.00 47.38 58.39 55.85 53.84 C 60.05 51.53 59.49 45.84 62.08 42.90 C 61.88 47.77 60.50 53.39 55.83 55.86 C 45.73 60.76 32.70 59.90 23.19 53.84 C 19.18 52.05 13.81 50.32 13.74 45.04 C 11.03 45.39 7.90 46.83 5.84 44.15 C 3.89 41.04 -1.47 40.08 0.98 34.97 C 1.06 32.16 3.28 30.03 5.25 28.27 C 8.46 28.02 11.91 28.39 14.85 26.83 C 19.24 25.56 19.82 19.52 24.30 18.35 C 29.21 19.79 34.59 17.95 37.53 13.82 C 37.27 11.52 37.88 9.26 38.17 7.00 M 15.93 45.01 C 16.12 47.46 18.54 49.88 20.99 50.07 C 22.08 46.49 19.51 43.92 15.93 45.01 Z" />
</g>
</svg>
