<?xml version="1.0" encoding="UTF-8" ?>
<!DOCTYPE svg PUBLIC "-//W3C//DTD SVG 1.1//EN" "http://www.w3.org/Graphics/SVG/1.1/DTD/svg11.dtd">
<svg width="64pt" height="64pt" viewBox="0 0 64 64" version="1.1" xmlns="http://www.w3.org/2000/svg">
<g id="#d69baaf0">
<path fill="#d69baa" opacity="0.94" d=" M 23.01 10.01 C 28.99 10.01 34.98 9.83 40.97 10.04 L 41.01 10.97 C 35.01 11.01 29.00 11.04 22.99 10.97 L 23.01 10.01 Z" />
</g>
<g id="#fac5d4fe">
<path fill="#fac5d4" opacity="1.00" d=" M 18.96 11.89 C 19.95 10.63 21.61 11.06 22.99 10.97 C 29.00 11.04 35.01 11.01 41.01 10.97 C 42.40 11.07 44.06 10.64 45.06 11.89 C 47.72 13.97 50.52 15.87 53.11 18.04 C 53.06 18.49 52.96 19.40 52.92 19.85 C 40.21 12.17 23.76 12.02 11.08 19.85 C 11.04 19.40 10.94 18.49 10.89 18.04 C 13.49 15.87 16.29 13.96 18.96 11.89 Z" />
</g>
<g id="#d893a5fd">
<path fill="#d893a5" opacity="1.00" d=" M 6.09 22.00 C 8.16 16.74 13.30 12.55 18.96 11.89 C 16.29 13.96 13.49 15.87 10.89 18.04 C 7.16 20.26 5.04 29.41 11.76 28.04 C 11.60 30.72 11.67 33.39 11.63 36.07 C 9.79 35.86 8.01 35.31 6.26 34.72 C 4.75 30.63 4.86 26.14 6.09 22.00 Z" />
</g>
<g id="#d692a3fc">
<path fill="#d692a3" opacity="1.00" d=" M 45.06 11.89 C 52.55 13.01 58.98 19.48 59.88 27.06 C 59.87 27.50 59.86 28.38 59.85 28.82 C 59.09 31.51 58.31 34.20 57.34 36.83 C 55.62 36.92 53.90 37.02 52.17 36.94 C 52.88 34.49 52.44 32.03 51.34 29.77 C 51.19 29.36 50.89 28.53 50.75 28.12 C 51.08 27.78 51.76 27.10 52.09 26.77 C 53.44 27.10 54.78 27.47 56.13 27.80 C 56.45 24.49 56.41 19.97 53.11 18.04 C 50.52 15.87 47.72 13.97 45.06 11.89 Z" />
</g>
<g id="#e2a7b6ff">
<path fill="#e2a7b6" opacity="1.00" d=" M 11.08 19.85 C 23.76 12.02 40.21 12.17 52.92 19.85 C 52.96 19.40 53.06 18.49 53.11 18.04 C 56.41 19.97 56.45 24.49 56.13 27.80 C 54.78 27.47 53.44 27.10 52.09 26.77 C 50.03 23.71 47.92 18.98 43.06 21.03 C 40.39 21.48 38.92 23.75 37.88 26.03 C 33.93 26.54 29.97 25.07 26.06 25.79 C 25.01 23.92 23.96 21.79 21.66 21.28 C 16.38 18.68 12.99 23.93 11.76 28.04 C 5.04 29.41 7.16 20.26 10.89 18.04 C 10.94 18.49 11.04 19.40 11.08 19.85 Z" />
</g>
<g id="#cd8596ff">
<path fill="#cd8596" opacity="1.00" d=" M 11.76 28.04 C 12.99 23.93 16.38 18.68 21.66 21.28 C 23.96 21.79 25.01 23.92 26.06 25.79 C 26.83 29.14 25.87 33.22 28.22 35.90 C 31.08 35.97 33.97 36.19 36.83 35.92 C 36.86 32.59 37.07 29.26 37.88 26.03 C 38.92 23.75 40.39 21.48 43.06 21.03 C 47.92 18.98 50.03 23.71 52.09 26.77 C 51.76 27.10 51.08 27.78 50.75 28.12 C 49.39 25.32 47.81 22.17 44.19 22.35 C 38.32 24.34 37.38 32.17 39.71 37.23 C 40.24 38.62 41.20 39.77 42.05 40.97 C 41.73 41.24 41.07 41.79 40.74 42.07 C 34.94 42.83 29.04 42.67 23.24 42.01 C 22.91 41.76 22.26 41.25 21.94 41.00 C 24.81 38.01 25.42 34.02 25.02 29.98 C 25.46 25.47 20.64 20.55 16.18 23.19 C 14.49 25.77 12.61 28.63 12.93 31.86 C 12.55 35.17 14.50 37.96 15.86 40.80 C 13.78 42.79 17.94 42.84 19.16 43.37 C 18.04 44.41 16.93 45.45 15.77 46.45 C 10.70 43.89 5.53 40.68 4.15 34.80 C 4.08 32.20 4.02 29.59 3.97 26.99 C 3.98 25.28 4.25 22.57 6.09 22.00 C 4.86 26.14 4.75 30.63 6.26 34.72 C 8.01 35.31 9.79 35.86 11.63 36.07 C 11.67 33.39 11.60 30.72 11.76 28.04 Z" />
</g>
<g id="#913f51ff">
<path fill="#913f51" opacity="1.00" d=" M 16.18 23.19 C 20.64 20.55 25.46 25.47 25.02 29.98 L 24.04 30.18 C 22.51 28.66 21.61 25.64 19.00 25.97 C 15.57 25.66 15.02 30.04 13.67 32.32 L 12.93 31.86 C 12.61 28.63 14.49 25.77 16.18 23.19 Z" />
</g>
<g id="#924052ff">
<path fill="#924052" opacity="1.00" d=" M 44.19 22.35 C 47.81 22.17 49.39 25.32 50.75 28.12 C 50.89 28.53 51.19 29.36 51.34 29.77 C 51.55 32.39 51.20 34.89 50.28 37.25 C 50.24 36.67 50.17 35.52 50.13 34.94 C 49.94 33.26 50.24 31.39 49.31 29.87 C 48.12 28.35 47.46 25.47 45.00 25.97 C 43.01 25.66 41.85 27.53 40.73 28.82 C 40.12 31.20 39.80 33.66 39.78 36.21 L 39.71 37.23 C 37.38 32.17 38.32 24.34 44.19 22.35 Z" />
</g>
<g id="#da96a7ff">
<path fill="#da96a7" opacity="1.00" d=" M 26.06 25.79 C 29.97 25.07 33.93 26.54 37.88 26.03 C 37.07 29.26 36.86 32.59 36.83 35.92 C 33.97 36.19 31.08 35.97 28.22 35.90 C 25.87 33.22 26.83 29.14 26.06 25.79 Z" />
</g>
<g id="#612636ff">
<path fill="#612636" opacity="1.00" d=" M 13.67 32.32 C 15.02 30.04 15.57 25.66 19.00 25.97 C 21.61 25.64 22.51 28.66 24.04 30.18 C 24.03 31.78 24.02 33.38 23.89 34.97 C 20.74 34.20 14.82 37.00 13.67 32.32 Z" />
</g>
<g id="#592331ff">
<path fill="#592331" opacity="1.00" d=" M 40.73 28.82 C 41.85 27.53 43.01 25.66 45.00 25.97 C 47.46 25.47 48.12 28.35 49.31 29.87 C 49.38 34.08 43.87 31.59 41.13 31.94 C 41.03 31.16 40.83 29.60 40.73 28.82 Z" />
</g>
<g id="#854f5db9">
<path fill="#854f5d" opacity="0.73" d=" M 3.01 37.03 C 3.25 34.52 3.73 29.50 3.97 26.99 C 4.02 29.59 4.08 32.20 4.15 34.80 C 4.12 35.34 4.07 36.41 4.04 36.95 L 3.01 37.03 Z" />
<path fill="#854f5d" opacity="0.73" d=" M 59.88 27.06 L 60.91 26.98 C 60.69 29.49 60.25 34.51 60.02 37.02 C 59.95 34.28 59.90 31.55 59.85 28.82 C 59.86 28.38 59.87 27.50 59.88 27.06 Z" />
</g>
<g id="#6e2b3eff">
<path fill="#6e2b3e" opacity="1.00" d=" M 39.78 36.21 C 39.80 33.66 40.12 31.20 40.73 28.82 C 40.83 29.60 41.03 31.16 41.13 31.94 C 43.87 31.59 49.38 34.08 49.31 29.87 C 50.24 31.39 49.94 33.26 50.13 34.94 C 47.96 38.38 43.10 37.07 39.78 36.21 Z" />
</g>
<g id="#cc788cff">
<path fill="#cc788c" opacity="1.00" d=" M 57.34 36.83 C 58.31 34.20 59.09 31.51 59.85 28.82 C 59.90 31.55 59.95 34.28 60.02 37.02 C 60.37 38.53 60.15 39.42 59.35 39.71 C 57.53 39.27 57.07 41.90 55.73 42.72 C 44.32 50.55 28.25 53.00 15.77 46.45 C 16.93 45.45 18.04 44.41 19.16 43.37 C 20.53 42.94 21.89 42.48 23.24 42.01 C 29.04 42.67 34.94 42.83 40.74 42.07 C 43.57 42.45 46.48 43.15 49.26 42.22 C 52.13 41.52 57.89 40.74 57.34 36.83 Z" />
</g>
<g id="#7f3347ff">
<path fill="#7f3347" opacity="1.00" d=" M 24.04 30.18 L 25.02 29.98 C 25.42 34.02 24.81 38.01 21.94 41.00 C 19.91 40.97 17.88 40.92 15.86 40.80 C 14.50 37.96 12.55 35.17 12.93 31.86 L 13.67 32.32 C 14.82 37.00 20.74 34.20 23.89 34.97 C 24.02 33.38 24.03 31.78 24.04 30.18 Z" />
</g>
<g id="#d18598ff">
<path fill="#d18598" opacity="1.00" d=" M 51.34 29.77 C 52.44 32.03 52.88 34.49 52.17 36.94 C 53.90 37.02 55.62 36.92 57.34 36.83 C 57.89 40.74 52.13 41.52 49.26 42.22 C 48.94 41.90 48.30 41.27 47.98 40.95 C 48.81 39.76 49.73 38.60 50.28 37.25 C 51.20 34.89 51.55 32.39 51.34 29.77 Z" />
</g>
<g id="#bc5c73fa">
<path fill="#bc5c73" opacity="0.98" d=" M 4.15 34.80 C 5.53 40.68 10.70 43.89 15.77 46.45 C 28.25 53.00 44.32 50.55 55.73 42.72 C 57.07 41.90 57.53 39.27 59.35 39.71 C 57.83 45.24 53.38 49.85 47.78 51.26 C 47.61 50.20 47.95 48.37 46.33 49.43 C 36.53 53.33 25.89 48.94 15.96 50.97 C 9.58 49.81 4.57 43.21 4.04 36.95 C 4.07 36.41 4.12 35.34 4.15 34.80 Z" />
</g>
<g id="#82354aff">
<path fill="#82354a" opacity="1.00" d=" M 39.78 36.21 C 43.10 37.07 47.96 38.38 50.13 34.94 C 50.17 35.52 50.24 36.67 50.28 37.25 C 49.73 38.60 48.81 39.76 47.98 40.95 C 46.00 40.97 44.03 40.98 42.05 40.97 C 41.20 39.77 40.24 38.62 39.71 37.23 L 39.78 36.21 Z" />
</g>
<g id="#ed95adff">
<path fill="#ed95ad" opacity="1.00" d=" M 19.16 43.37 C 17.94 42.84 13.78 42.79 15.86 40.80 C 17.88 40.92 19.91 40.97 21.94 41.00 C 22.26 41.25 22.91 41.76 23.24 42.01 C 21.89 42.48 20.53 42.94 19.16 43.37 Z" />
<path fill="#ed95ad" opacity="1.00" d=" M 40.74 42.07 C 41.07 41.79 41.73 41.24 42.05 40.97 C 44.03 40.98 46.00 40.97 47.98 40.95 C 48.30 41.27 48.94 41.90 49.26 42.22 C 46.48 43.15 43.57 42.45 40.74 42.07 Z" />
</g>
<g id="#ae425bf7">
<path fill="#ae425b" opacity="0.97" d=" M 46.33 49.43 C 47.95 48.37 47.61 50.20 47.78 51.26 C 46.50 53.22 42.47 53.18 40.01 53.98 C 34.67 54.00 29.33 54.05 23.99 53.97 C 21.39 53.12 17.40 53.32 15.96 50.97 C 25.89 48.94 36.53 53.33 46.33 49.43 Z" />
</g>
<g id="#220d1278">
<path fill="#220d12" opacity="0.47" d=" M 23.99 53.97 C 29.33 54.05 34.67 54.00 40.01 53.98 L 39.99 54.97 C 34.66 55.07 29.34 55.07 24.01 54.97 L 23.99 53.97 Z" />
</g>
</svg>
