<?xml version="1.0" encoding="UTF-8" ?>
<!DOCTYPE svg PUBLIC "-//W3C//DTD SVG 1.1//EN" "http://www.w3.org/Graphics/SVG/1.1/DTD/svg11.dtd">
<svg width="64pt" height="64pt" viewBox="0 0 64 64" version="1.1" xmlns="http://www.w3.org/2000/svg">
<g id="#c62327ff">
<path fill="#c62327" opacity="1.00" d=" M 18.69 3.61 C 24.69 2.06 25.39 15.04 19.36 14.61 C 15.42 12.84 15.28 6.01 18.69 3.61 Z" />
<path fill="#c62327" opacity="1.00" d=" M 8.40 6.34 C 11.53 5.13 14.09 8.62 14.88 11.26 C 15.77 13.39 15.06 17.10 12.13 16.75 C 8.14 15.69 5.12 9.42 8.40 6.34 Z" />
<path fill="#c62327" opacity="1.00" d=" M 26.63 11.63 C 28.44 9.99 30.88 12.09 31.26 14.02 C 32.11 16.92 30.74 21.41 27.19 21.38 C 23.32 19.92 23.50 13.79 26.63 11.63 Z" />
<path fill="#c62327" opacity="1.00" d=" M 4.47 16.38 C 8.67 15.10 13.38 20.86 10.75 24.63 C 6.39 27.53 0.08 19.63 4.47 16.38 Z" />
<path fill="#c62327" opacity="1.00" d=" M 16.40 19.46 C 18.39 17.98 21.00 19.01 22.92 20.09 C 25.66 21.76 28.45 23.89 29.50 27.06 C 29.32 29.29 27.22 30.94 25.02 30.68 C 21.50 30.31 18.84 32.82 15.73 33.93 C 14.21 34.59 11.76 33.97 11.66 32.03 C 11.31 27.48 12.99 22.56 16.40 19.46 Z" />
<path fill="#c62327" opacity="1.00" d=" M 40.47 31.33 C 44.95 31.13 46.36 37.42 44.87 40.77 C 44.06 43.05 41.11 43.05 39.84 41.19 C 37.69 38.47 37.08 33.27 40.47 31.33 Z" />
<path fill="#c62327" opacity="1.00" d=" M 50.10 31.91 C 57.28 30.94 55.14 43.51 49.19 43.00 C 45.37 40.21 47.42 34.76 50.10 31.91 Z" />
<path fill="#c62327" opacity="1.00" d=" M 33.15 40.96 C 38.55 38.70 42.00 49.76 36.12 50.70 C 32.03 49.98 30.20 43.85 33.15 40.96 Z" />
<path fill="#c62327" opacity="1.00" d=" M 56.28 41.18 C 58.74 39.78 61.17 42.57 60.47 45.00 C 60.23 48.18 56.43 52.42 53.31 49.72 C 51.59 46.71 53.34 42.68 56.28 41.18 Z" />
<path fill="#c62327" opacity="1.00" d=" M 45.26 46.06 C 49.36 46.11 51.81 50.34 53.47 53.59 C 54.36 55.63 55.79 59.21 52.84 60.22 C 49.09 61.11 45.67 57.94 41.90 59.00 C 39.75 59.65 37.29 59.17 36.21 56.99 C 36.58 52.04 40.69 47.64 45.26 46.06 Z" />
</g>
</svg>
