<?xml version="1.0" encoding="UTF-8" ?>
<!DOCTYPE svg PUBLIC "-//W3C//DTD SVG 1.1//EN" "http://www.w3.org/Graphics/SVG/1.1/DTD/svg11.dtd">
<svg width="64pt" height="64pt" viewBox="0 0 64 64" version="1.1" xmlns="http://www.w3.org/2000/svg">
<g id="#005b29ff">
<path fill="#005b29" opacity="1.00" d=" M 16.71 10.67 C 22.18 8.67 27.78 11.65 32.00 14.99 C 36.23 11.64 41.84 8.66 47.32 10.68 C 52.77 13.15 55.12 19.64 53.50 25.24 C 62.65 30.80 62.04 45.75 52.45 50.53 C 51.23 50.15 50.01 49.75 48.80 49.34 C 50.99 45.94 55.82 44.31 56.54 40.07 C 56.59 37.23 56.94 34.17 55.43 31.61 C 54.58 29.63 52.43 28.90 50.72 27.86 C 51.07 24.93 51.85 21.92 51.13 18.98 C 50.43 15.49 47.50 12.46 43.93 11.94 C 39.47 10.90 35.90 14.29 32.01 15.69 C 28.12 14.31 24.56 10.99 20.14 11.97 C 16.47 12.31 13.61 15.50 12.90 18.99 C 12.14 21.91 13.04 24.91 13.30 27.84 C 10.45 29.08 7.83 31.29 7.49 34.58 C 7.49 36.21 6.65 38.54 8.37 39.57 C 10.68 40.97 13.25 41.88 15.59 43.22 C 14.68 43.32 12.84 43.54 11.92 43.64 C 13.59 44.95 15.27 46.25 17.08 47.34 C 16.30 47.25 14.75 47.09 13.97 47.01 C 15.05 49.13 16.14 51.26 16.77 53.57 C 12.63 51.17 7.89 48.96 5.59 44.50 C 2.04 38.03 4.22 29.23 10.50 25.25 C 8.88 19.64 11.24 13.13 16.71 10.67 Z" />
</g>
<g id="#009b49ff">
<path fill="#009b49" opacity="1.00" d=" M 12.90 18.99 C 13.61 15.50 16.47 12.31 20.14 11.97 C 18.61 13.16 17.00 14.31 15.80 15.84 C 14.71 17.83 15.36 20.15 15.75 22.23 C 16.37 24.60 16.75 27.61 19.36 28.66 C 20.73 29.53 22.27 28.55 23.67 28.28 C 28.56 30.85 34.63 29.18 39.46 27.19 C 40.97 28.24 42.79 29.87 44.70 28.65 C 47.28 27.57 47.63 24.54 48.26 22.17 C 48.59 20.27 49.17 18.25 48.44 16.37 C 47.30 14.57 45.54 13.29 43.93 11.94 C 47.50 12.46 50.43 15.49 51.13 18.98 C 51.85 21.92 51.07 24.93 50.72 27.86 C 52.43 28.90 54.58 29.63 55.43 31.61 C 56.94 34.17 56.59 37.23 56.54 40.07 C 55.41 41.41 54.25 42.76 52.84 43.82 C 51.27 41.16 48.53 43.51 46.23 43.49 C 43.12 39.90 38.95 36.69 33.99 36.60 C 27.95 36.10 20.60 37.50 17.64 43.46 C 17.13 43.40 16.11 43.28 15.59 43.22 C 13.25 41.88 10.68 40.97 8.37 39.57 C 6.65 38.54 7.49 36.21 7.49 34.58 C 7.83 31.29 10.45 29.08 13.30 27.84 C 13.04 24.91 12.14 21.91 12.90 18.99 Z" />
</g>
<g id="#00a850ff">
<path fill="#00a850" opacity="1.00" d=" M 20.14 11.97 C 24.56 10.99 28.12 14.31 32.01 15.69 C 35.90 14.29 39.47 10.90 43.93 11.94 C 45.54 13.29 47.30 14.57 48.44 16.37 C 49.17 18.25 48.59 20.27 48.26 22.17 C 47.43 19.53 46.24 16.26 43.00 15.99 C 39.47 16.50 38.19 20.34 38.07 23.44 C 35.96 22.14 34.28 20.10 31.98 19.16 C 29.61 19.90 27.88 21.86 25.92 23.30 C 25.78 20.24 24.48 16.53 21.03 15.98 C 17.75 16.25 16.54 19.54 15.75 22.23 C 15.36 20.15 14.71 17.83 15.80 15.84 C 17.00 14.31 18.61 13.16 20.14 11.97 Z" />
</g>
<g id="#0d2819ff">
<path fill="#0d2819" opacity="1.00" d=" M 15.75 22.23 C 16.54 19.54 17.75 16.25 21.03 15.98 C 24.48 16.53 25.78 20.24 25.92 23.30 C 25.50 25.09 24.63 26.73 23.67 28.28 C 22.27 28.55 20.73 29.53 19.36 28.66 C 16.75 27.61 16.37 24.60 15.75 22.23 M 19.29 21.25 C 18.80 21.54 17.81 22.13 17.31 22.42 C 17.44 24.01 18.09 25.55 19.42 26.50 C 20.96 26.98 23.30 26.66 23.78 24.85 C 24.02 22.93 23.17 21.11 22.55 19.34 C 21.32 16.48 18.52 19.17 19.29 21.25 Z" />
</g>
<g id="#0d2818ff">
<path fill="#0d2818" opacity="1.00" d=" M 38.07 23.44 C 38.19 20.34 39.47 16.50 43.00 15.99 C 46.24 16.26 47.43 19.53 48.26 22.17 C 47.63 24.54 47.28 27.57 44.70 28.65 C 42.79 29.87 40.97 28.24 39.46 27.19 C 38.99 25.94 38.51 24.70 38.07 23.44 M 41.49 19.28 C 40.73 21.42 38.78 24.91 41.56 26.37 C 44.25 27.82 46.69 25.11 46.73 22.52 C 46.22 22.21 45.20 21.58 44.69 21.26 C 45.13 19.73 44.23 18.62 43.04 17.82 C 42.65 18.18 41.88 18.91 41.49 19.28 Z" />
</g>
<g id="#929292ff">
<path fill="#929292" opacity="1.00" d=" M 19.29 21.25 C 18.52 19.17 21.32 16.48 22.55 19.34 C 22.37 19.91 22.02 21.03 21.84 21.59 C 20.99 21.47 20.14 21.36 19.29 21.25 Z" />
<path fill="#929292" opacity="1.00" d=" M 41.49 19.28 C 41.88 18.91 42.65 18.18 43.04 17.82 C 44.23 18.62 45.13 19.73 44.69 21.26 C 43.83 21.36 42.97 21.46 42.10 21.57 C 41.95 21.00 41.64 19.85 41.49 19.28 Z" />
</g>
<g id="#444444ff">
<path fill="#444444" opacity="1.00" d=" M 22.55 19.34 C 23.17 21.11 24.02 22.93 23.78 24.85 C 23.30 26.66 20.96 26.98 19.42 26.50 C 18.09 25.55 17.44 24.01 17.31 22.42 C 17.81 22.13 18.80 21.54 19.29 21.25 C 20.14 21.36 20.99 21.47 21.84 21.59 C 22.02 21.03 22.37 19.91 22.55 19.34 Z" />
<path fill="#444444" opacity="1.00" d=" M 41.56 26.37 C 38.78 24.91 40.73 21.42 41.49 19.28 C 41.64 19.85 41.95 21.00 42.10 21.57 C 42.97 21.46 43.83 21.36 44.69 21.26 C 45.20 21.58 46.22 22.21 46.73 22.52 C 46.69 25.11 44.25 27.82 41.56 26.37 Z" />
</g>
<g id="#00bb5aff">
<path fill="#00bb5a" opacity="1.00" d=" M 25.92 23.30 C 27.88 21.86 29.61 19.90 31.98 19.16 C 34.28 20.10 35.96 22.14 38.07 23.44 C 38.51 24.70 38.99 25.94 39.46 27.19 C 34.63 29.18 28.56 30.85 23.67 28.28 C 24.63 26.73 25.50 25.09 25.92 23.30 Z" />
</g>
<g id="#00c05cff">
<path fill="#00c05c" opacity="1.00" d=" M 17.64 43.46 C 20.60 37.50 27.95 36.10 33.99 36.60 C 38.95 36.69 43.12 39.90 46.23 43.49 C 44.13 43.79 42.04 44.24 39.91 44.18 C 39.92 43.92 39.96 43.40 39.98 43.14 C 39.16 42.08 38.31 41.05 37.54 39.96 C 37.25 38.43 35.56 37.62 34.52 39.05 C 32.84 39.17 31.14 39.18 29.45 39.08 C 28.42 38.10 27.45 38.06 26.55 38.95 C 24.96 40.40 24.11 42.40 23.27 44.33 C 21.41 43.98 19.52 43.72 17.64 43.46 Z" />
</g>
<g id="#008d42ff">
<path fill="#008d42" opacity="1.00" d=" M 26.55 38.95 C 27.45 38.06 28.42 38.10 29.45 39.08 C 29.71 41.79 26.18 41.57 26.55 38.95 Z" />
</g>
<g id="#008c41ff">
<path fill="#008c41" opacity="1.00" d=" M 34.52 39.05 C 35.56 37.62 37.25 38.43 37.54 39.96 C 36.85 41.97 34.16 41.00 34.52 39.05 Z" />
</g>
<g id="#00e771ff">
<path fill="#00e771" opacity="1.00" d=" M 23.27 44.33 C 24.11 42.40 24.96 40.40 26.55 38.95 C 26.18 41.57 29.71 41.79 29.45 39.08 C 31.14 39.18 32.84 39.17 34.52 39.05 C 34.16 41.00 36.85 41.97 37.54 39.96 C 38.31 41.05 39.16 42.08 39.98 43.14 C 39.96 43.40 39.92 43.92 39.91 44.18 L 39.72 44.53 C 34.30 44.60 28.86 44.64 23.43 44.36 L 23.27 44.33 Z" />
</g>
<g id="#549c23ff">
<path fill="#549c23" opacity="1.00" d=" M 56.54 40.07 C 55.82 44.31 50.99 45.94 48.80 49.34 C 50.01 49.75 51.23 50.15 52.45 50.53 C 48.16 52.94 43.94 55.77 38.93 56.49 C 31.49 57.34 23.49 57.35 16.77 53.57 C 16.14 51.26 15.05 49.13 13.97 47.01 C 14.75 47.09 16.30 47.25 17.08 47.34 C 18.49 47.93 19.89 48.54 21.35 48.99 C 22.75 49.46 24.17 49.92 25.60 50.30 C 25.44 50.81 25.12 51.81 24.95 52.32 C 29.64 52.78 34.37 52.78 39.06 52.31 C 38.90 51.81 38.57 50.80 38.41 50.29 C 39.78 49.94 41.13 49.52 42.47 49.09 C 46.25 48.06 49.62 46.00 52.84 43.82 C 54.25 42.76 55.41 41.41 56.54 40.07 Z" />
</g>
<g id="#711912ff">
<path fill="#711912" opacity="1.00" d=" M 11.92 43.64 C 12.84 43.54 14.68 43.32 15.59 43.22 C 16.11 43.28 17.13 43.40 17.64 43.46 C 19.52 43.72 21.41 43.98 23.27 44.33 L 23.43 44.36 C 27.92 47.40 33.96 45.93 39.06 45.63 C 39.23 45.36 39.55 44.80 39.72 44.53 L 39.91 44.18 C 42.04 44.24 44.13 43.79 46.23 43.49 C 48.53 43.51 51.27 41.16 52.84 43.82 C 49.62 46.00 46.25 48.06 42.47 49.09 C 39.98 48.97 37.49 49.00 35.01 49.27 C 30.45 49.83 25.91 48.68 21.35 48.99 C 19.89 48.54 18.49 47.93 17.08 47.34 C 15.27 46.25 13.59 44.95 11.92 43.64 Z" />
</g>
<g id="#4f0404ff">
<path fill="#4f0404" opacity="1.00" d=" M 23.43 44.36 C 28.86 44.64 34.30 44.60 39.72 44.53 C 39.55 44.80 39.23 45.36 39.06 45.63 C 33.96 45.93 27.92 47.40 23.43 44.36 Z" />
</g>
<g id="#472a0fff">
<path fill="#472a0f" opacity="1.00" d=" M 21.35 48.99 C 25.91 48.68 30.45 49.83 35.01 49.27 C 37.49 49.00 39.98 48.97 42.47 49.09 C 41.13 49.52 39.78 49.94 38.41 50.29 C 34.20 51.22 29.82 51.21 25.60 50.30 C 24.17 49.92 22.75 49.46 21.35 48.99 Z" />
</g>
<g id="#95de3aff">
<path fill="#95de3a" opacity="1.00" d=" M 24.95 52.32 C 25.12 51.81 25.44 50.81 25.60 50.30 C 29.82 51.21 34.20 51.22 38.41 50.29 C 38.57 50.80 38.90 51.81 39.06 52.31 C 34.37 52.78 29.64 52.78 24.95 52.32 Z" />
</g>
</svg>
