<?xml version="1.0" encoding="UTF-8" ?>
<!DOCTYPE svg PUBLIC "-//W3C//DTD SVG 1.1//EN" "http://www.w3.org/Graphics/SVG/1.1/DTD/svg11.dtd">
<svg width="64pt" height="64pt" viewBox="0 0 64 64" version="1.1" xmlns="http://www.w3.org/2000/svg">
<g id="#44331de6">
<path fill="#44331d" opacity="0.90" d=" M 25.43 8.27 C 34.09 4.47 44.25 8.94 49.67 16.14 C 53.72 16.16 58.28 17.98 59.66 22.11 C 60.65 26.34 60.06 30.93 57.71 34.63 C 56.53 36.24 56.97 38.19 57.09 40.03 C 57.72 48.71 50.35 57.61 41.34 57.15 L 42.17 55.81 C 42.35 55.68 42.73 55.42 42.92 55.30 C 46.50 53.68 50.36 52.02 52.58 48.57 C 55.89 44.22 55.75 38.48 55.31 33.30 C 55.79 33.42 56.75 33.65 57.24 33.77 C 58.55 30.17 60.37 26.18 58.67 22.39 C 57.44 18.84 53.64 17.22 50.11 17.24 C 46.38 14.90 43.52 11.30 39.41 9.55 C 35.02 7.57 30.09 8.41 25.43 8.27 Z" />
</g>
<g id="#6b5634fe">
<path fill="#6b5634" opacity="1.00" d=" M 24.42 8.29 C 24.68 8.29 25.18 8.28 25.43 8.27 C 30.09 8.41 35.02 7.57 39.41 9.55 C 43.52 11.30 46.38 14.90 50.11 17.24 C 50.73 17.92 51.34 18.61 51.95 19.30 C 53.07 23.46 54.09 27.66 55.21 31.82 C 55.23 32.19 55.28 32.93 55.31 33.30 C 55.75 38.48 55.89 44.22 52.58 48.57 C 50.36 52.02 46.50 53.68 42.92 55.30 L 43.35 53.25 L 43.47 52.69 C 46.41 50.64 50.19 49.17 51.63 45.60 C 54.57 39.12 53.34 31.76 51.74 25.09 C 50.78 20.21 46.77 16.86 43.25 13.70 C 38.14 9.14 29.71 7.82 23.97 11.93 C 23.01 12.52 22.09 13.14 21.17 13.78 C 17.46 16.01 14.04 19.11 12.64 23.33 C 10.52 30.28 9.42 37.99 12.05 44.96 C 13.48 48.83 17.51 50.50 20.61 52.76 L 20.70 53.32 L 21.05 55.38 C 17.38 53.85 13.22 52.47 11.15 48.79 C 8.15 44.79 8.36 39.64 8.38 34.91 C 7.77 34.65 6.54 34.12 5.93 33.85 C 5.52 33.06 5.15 32.26 4.81 31.44 C 4.73 30.58 4.59 28.87 4.51 28.01 C 5.54 29.03 6.56 30.06 7.57 31.10 C 7.83 31.38 8.35 31.92 8.61 32.19 C 10.01 27.86 10.97 23.41 12.23 19.04 C 13.85 18.25 15.09 16.93 15.72 15.23 C 16.72 13.52 18.18 11.60 20.29 11.32 C 21.86 11.21 23.41 10.45 24.04 8.93 L 24.42 8.29 Z" />
</g>
<g id="#362c19d7">
<path fill="#362c19" opacity="0.84" d=" M 20.29 11.32 C 20.01 9.75 22.69 8.39 24.04 8.93 C 23.41 10.45 21.86 11.21 20.29 11.32 Z" />
</g>
<g id="#866e41ff">
<path fill="#866e41" opacity="1.00" d=" M 23.97 11.93 C 29.71 7.82 38.14 9.14 43.25 13.70 C 46.77 16.86 50.78 20.21 51.74 25.09 C 53.34 31.76 54.57 39.12 51.63 45.60 C 50.19 49.17 46.41 50.64 43.47 52.69 C 43.46 50.06 43.11 47.46 42.73 44.86 C 45.69 42.98 49.34 41.26 50.48 37.65 C 51.56 34.36 50.27 30.95 48.32 28.28 C 49.30 21.98 44.71 16.67 39.84 13.37 C 35.09 10.40 29.23 11.49 23.97 11.93 Z" />
</g>
<g id="#ac8e56ff">
<path fill="#ac8e56" opacity="1.00" d=" M 23.97 11.93 C 29.23 11.49 35.09 10.40 39.84 13.37 C 44.71 16.67 49.30 21.98 48.32 28.28 C 45.32 26.28 41.71 25.26 38.11 25.98 C 36.96 22.06 34.70 17.71 30.01 17.64 C 25.61 18.33 25.37 23.64 21.96 25.60 C 18.92 26.26 16.32 27.98 14.22 30.22 C 14.76 27.16 14.52 23.81 16.20 21.06 C 17.73 18.55 19.48 16.19 21.17 13.78 C 22.09 13.14 23.01 12.52 23.97 11.93 Z" />
</g>
<g id="#886f43ff">
<path fill="#886f43" opacity="1.00" d=" M 12.64 23.33 C 14.04 19.11 17.46 16.01 21.17 13.78 C 19.48 16.19 17.73 18.55 16.20 21.06 C 14.52 23.81 14.76 27.16 14.22 30.22 C 13.52 32.83 12.70 35.68 13.83 38.30 C 15.08 41.34 18.16 42.90 20.83 44.49 C 20.75 47.24 20.60 50.00 20.61 52.76 C 17.51 50.50 13.48 48.83 12.05 44.96 C 9.42 37.99 10.52 30.28 12.64 23.33 Z" />
</g>
<g id="#83613eee">
<path fill="#83613e" opacity="0.93" d=" M 10.38 16.87 C 12.19 16.39 13.92 15.68 15.72 15.23 C 15.09 16.93 13.85 18.25 12.23 19.04 C 10.32 20.08 8.13 21.08 7.26 23.23 C 5.94 25.72 6.80 28.60 7.57 31.10 C 6.56 30.06 5.54 29.03 4.51 28.01 C 3.87 23.33 6.48 19.21 10.38 16.87 Z" />
</g>
<g id="#56331dd8">
<path fill="#56331d" opacity="0.85" d=" M 4.81 31.44 C 2.71 26.12 3.71 18.07 10.38 16.87 C 6.48 19.21 3.87 23.33 4.51 28.01 C 4.59 28.87 4.73 30.58 4.81 31.44 Z" />
</g>
<g id="#94704bff">
<path fill="#94704b" opacity="1.00" d=" M 50.11 17.24 C 53.64 17.22 57.44 18.84 58.67 22.39 C 60.37 26.18 58.55 30.17 57.24 33.77 C 56.75 33.65 55.79 33.42 55.31 33.30 C 55.28 32.93 55.23 32.19 55.21 31.82 C 56.60 29.03 57.56 25.70 56.28 22.68 C 55.21 21.16 53.38 20.42 51.95 19.30 C 51.34 18.61 50.73 17.92 50.11 17.24 Z" />
</g>
<g id="#c4a56aff">
<path fill="#c4a56a" opacity="1.00" d=" M 21.96 25.60 C 25.37 23.64 25.61 18.33 30.01 17.64 C 34.70 17.71 36.96 22.06 38.11 25.98 C 36.04 27.41 34.07 28.97 32.07 30.49 C 29.20 27.98 25.85 25.92 21.96 25.60 Z" />
</g>
<g id="#ca9c9bff">
<path fill="#ca9c9b" opacity="1.00" d=" M 7.26 23.23 C 8.13 21.08 10.32 20.08 12.23 19.04 C 10.97 23.41 10.01 27.86 8.61 32.19 C 8.35 31.92 7.83 31.38 7.57 31.10 C 6.80 28.60 5.94 25.72 7.26 23.23 Z" />
</g>
<g id="#cea0a1ff">
<path fill="#cea0a1" opacity="1.00" d=" M 51.95 19.30 C 53.38 20.42 55.21 21.16 56.28 22.68 C 57.56 25.70 56.60 29.03 55.21 31.82 C 54.09 27.66 53.07 23.46 51.95 19.30 Z" />
</g>
<g id="#d5bf97ff">
<path fill="#d5bf97" opacity="1.00" d=" M 14.22 30.22 C 16.32 27.98 18.92 26.26 21.96 25.60 C 25.85 25.92 29.20 27.98 32.07 30.49 C 34.07 28.97 36.04 27.41 38.11 25.98 C 41.71 25.26 45.32 26.28 48.32 28.28 C 50.27 30.95 51.56 34.36 50.48 37.65 C 49.34 41.26 45.69 42.98 42.73 44.86 C 43.11 47.46 43.46 50.06 43.47 52.69 L 43.35 53.25 C 39.55 53.92 35.89 55.48 32.00 55.63 C 28.14 55.46 24.50 53.93 20.70 53.32 L 20.61 52.76 C 20.60 50.00 20.75 47.24 20.83 44.49 C 18.16 42.90 15.08 41.34 13.83 38.30 C 12.70 35.68 13.52 32.83 14.22 30.22 M 23.97 35.46 C 23.32 35.44 22.00 35.40 21.34 35.38 C 20.92 34.62 20.47 33.87 20.00 33.13 C 19.29 35.93 18.85 39.99 22.01 41.52 C 27.28 41.19 26.78 31.58 21.36 31.60 C 22.26 32.86 23.48 33.95 23.97 35.46 M 42.00 41.51 C 45.16 39.99 44.70 35.93 44.00 33.13 C 43.52 33.89 43.06 34.65 42.60 35.42 C 41.93 35.42 40.61 35.42 39.94 35.42 C 40.55 33.96 41.73 32.86 42.64 31.60 C 37.23 31.57 36.71 41.21 42.00 41.51 M 29.52 41.41 C 28.33 42.48 28.34 43.54 29.56 44.57 C 31.83 45.10 31.80 40.86 29.52 41.41 M 33.45 41.47 C 32.46 42.49 32.46 43.51 33.46 44.56 C 35.89 45.17 35.88 40.74 33.45 41.47 M 24.62 48.05 C 24.69 49.30 25.55 50.25 26.20 51.25 C 29.30 54.69 35.12 54.53 37.88 50.75 L 38.17 50.76 C 38.50 49.88 38.82 48.98 39.13 48.09 C 34.32 48.78 29.43 48.82 24.62 48.05 Z" />
</g>
<g id="#0d0001ff">
<path fill="#0d0001" opacity="1.00" d=" M 23.97 35.46 C 23.48 33.95 22.26 32.86 21.36 31.60 C 26.78 31.58 27.28 41.19 22.01 41.52 C 18.85 39.99 19.29 35.93 20.00 33.13 C 20.47 33.87 20.92 34.62 21.34 35.38 C 21.18 36.34 20.86 38.27 20.69 39.23 C 22.33 39.80 23.71 39.43 24.84 38.11 C 24.62 37.45 24.19 36.12 23.97 35.46 Z" />
<path fill="#0d0001" opacity="1.00" d=" M 42.00 41.51 C 36.71 41.21 37.23 31.57 42.64 31.60 C 41.73 32.86 40.55 33.96 39.94 35.42 C 39.84 36.40 39.63 38.36 39.52 39.34 C 40.53 39.34 42.55 39.35 43.56 39.36 C 43.32 38.37 42.84 36.40 42.60 35.42 C 43.06 34.65 43.52 33.89 44.00 33.13 C 44.70 35.93 45.16 39.99 42.00 41.51 Z" />
<path fill="#0d0001" opacity="1.00" d=" M 29.52 41.41 C 31.80 40.86 31.83 45.10 29.56 44.57 C 28.34 43.54 28.33 42.48 29.52 41.41 Z" />
<path fill="#0d0001" opacity="1.00" d=" M 33.45 41.47 C 35.88 40.74 35.89 45.17 33.46 44.56 C 32.46 43.51 32.46 42.49 33.45 41.47 Z" />
<path fill="#0d0001" opacity="1.00" d=" M 24.62 48.05 C 29.43 48.82 34.32 48.78 39.13 48.09 C 38.82 48.98 38.50 49.88 38.17 50.76 L 37.88 50.75 C 33.98 50.44 30.03 50.33 26.20 51.25 C 25.55 50.25 24.69 49.30 24.62 48.05 Z" />
</g>
<g id="#3a2e1be7">
<path fill="#3a2e1b" opacity="0.91" d=" M 5.93 33.85 C 6.54 34.12 7.77 34.65 8.38 34.91 C 8.36 39.64 8.15 44.79 11.15 48.79 C 13.22 52.47 17.38 53.85 21.05 55.38 C 21.24 55.47 21.62 55.67 21.81 55.77 L 22.63 57.15 C 13.24 57.62 5.75 47.97 6.97 39.00 C 7.40 37.16 6.90 35.41 5.93 33.85 Z" />
</g>
<g id="#363636ff">
<path fill="#363636" opacity="1.00" d=" M 21.34 35.38 C 22.00 35.40 23.32 35.44 23.97 35.46 C 24.19 36.12 24.62 37.45 24.84 38.11 C 23.71 39.43 22.33 39.80 20.69 39.23 C 20.86 38.27 21.18 36.34 21.34 35.38 Z" />
<path fill="#363636" opacity="1.00" d=" M 39.94 35.42 C 40.61 35.42 41.93 35.42 42.60 35.42 C 42.84 36.40 43.32 38.37 43.56 39.36 C 42.55 39.35 40.53 39.34 39.52 39.34 C 39.63 38.36 39.84 36.40 39.94 35.42 Z" />
</g>
<g id="#6c052dff">
<path fill="#6c052d" opacity="1.00" d=" M 26.20 51.25 C 30.03 50.33 33.98 50.44 37.88 50.75 C 35.12 54.53 29.30 54.69 26.20 51.25 Z" />
</g>
<g id="#a48d68ff">
<path fill="#a48d68" opacity="1.00" d=" M 20.70 53.32 C 24.50 53.93 28.14 55.46 32.00 55.63 C 35.89 55.48 39.55 53.92 43.35 53.25 L 42.92 55.30 C 42.73 55.42 42.35 55.68 42.17 55.81 C 38.78 56.59 35.47 57.76 32.01 58.22 C 28.53 57.80 25.21 56.58 21.81 55.77 C 21.62 55.67 21.24 55.47 21.05 55.38 L 20.70 53.32 Z" />
</g>
<g id="#796146f2">
<path fill="#796146" opacity="0.95" d=" M 21.81 55.77 C 25.21 56.58 28.53 57.80 32.01 58.22 C 35.47 57.76 38.78 56.59 42.17 55.81 L 41.34 57.15 C 39.64 57.80 37.92 58.35 36.23 59.04 C 33.49 60.06 30.51 60.06 27.77 59.04 C 26.08 58.34 24.34 57.78 22.63 57.15 L 21.81 55.77 Z" />
</g>
<g id="#392a1f9f">
<path fill="#392a1f" opacity="0.62" d=" M 27.77 59.04 C 30.51 60.06 33.49 60.06 36.23 59.04 C 33.69 60.93 30.31 60.93 27.77 59.04 Z" />
</g>
</svg>
