<?xml version="1.0" encoding="UTF-8" ?>
<!DOCTYPE svg PUBLIC "-//W3C//DTD SVG 1.1//EN" "http://www.w3.org/Graphics/SVG/1.1/DTD/svg11.dtd">
<svg width="64pt" height="64pt" viewBox="0 0 64 64" version="1.1" xmlns="http://www.w3.org/2000/svg">
<g id="#be7384ff">
<path fill="#be7384" opacity="1.00" d=" M 26.73 10.84 C 30.39 9.85 34.30 9.97 37.94 11.01 C 41.06 11.94 44.40 11.39 47.50 12.39 C 46.59 12.52 44.77 12.78 43.85 12.91 C 47.26 16.38 50.82 19.93 52.54 24.59 C 53.82 27.60 55.07 31.77 59.10 31.71 C 62.07 30.23 60.17 26.29 60.11 23.72 C 61.98 26.23 64.00 29.45 62.54 32.65 C 61.00 34.94 57.81 35.98 55.26 34.81 C 55.26 35.17 55.27 35.88 55.27 36.24 C 55.26 37.32 55.23 39.47 55.22 40.55 C 53.82 36.25 52.40 31.96 50.88 27.71 C 49.40 23.43 47.58 18.91 43.83 16.12 C 36.35 10.25 24.57 10.97 17.89 17.77 C 10.95 23.36 12.14 33.09 8.78 40.58 C 8.80 39.49 8.84 37.33 8.86 36.25 C 8.87 36.01 8.88 35.53 8.89 35.30 C 6.21 35.51 3.03 35.14 1.47 32.66 C -0.01 29.37 2.06 26.04 4.11 23.55 C 3.51 25.38 3.00 27.24 2.47 29.09 C 2.81 29.74 3.50 31.04 3.84 31.70 C 5.58 31.32 7.93 31.74 8.97 29.96 C 10.41 27.60 11.20 24.92 12.47 22.47 C 14.27 18.80 17.29 15.96 20.07 13.03 C 19.40 12.91 18.05 12.66 17.38 12.53 L 16.46 12.35 C 19.83 11.43 23.40 11.92 26.73 10.84 Z" />
</g>
<g id="#e5adb8ff">
<path fill="#e5adb8" opacity="1.00" d=" M 4.11 23.55 C 6.96 18.77 11.11 14.73 16.16 12.31 L 17.38 12.53 C 18.05 12.66 19.40 12.91 20.07 13.03 C 17.29 15.96 14.27 18.80 12.47 22.47 C 11.20 24.92 10.41 27.60 8.97 29.96 C 7.93 31.74 5.58 31.32 3.84 31.70 C 3.50 31.04 2.81 29.74 2.47 29.09 C 3.00 27.24 3.51 25.38 4.11 23.55 Z" />
</g>
<g id="#f9abbcff">
<path fill="#f9abbc" opacity="1.00" d=" M 17.89 17.77 C 24.57 10.97 36.35 10.25 43.83 16.12 C 47.58 18.91 49.40 23.43 50.88 27.71 C 51.33 32.76 52.66 37.75 52.54 42.85 C 52.09 47.56 47.87 50.72 43.69 52.16 C 43.72 51.10 43.74 50.04 43.76 48.98 C 43.62 46.89 44.16 44.24 42.16 42.84 C 36.65 38.49 28.10 38.46 22.37 42.40 C 19.96 43.74 20.26 46.67 20.25 49.02 C 20.27 50.04 20.29 51.07 20.32 52.09 C 15.94 50.50 11.29 47.10 11.41 41.94 C 11.81 33.57 13.78 25.12 17.89 17.77 M 17.69 22.73 C 15.98 26.44 16.32 30.60 16.38 34.57 C 17.36 35.46 18.34 36.36 19.32 37.26 C 19.33 36.85 19.35 36.01 19.36 35.60 C 20.17 36.90 21.10 38.47 22.87 38.38 C 24.29 38.11 25.04 36.72 25.61 35.54 L 25.48 36.52 C 29.81 36.48 34.15 36.48 38.48 36.50 L 38.40 35.58 C 38.98 36.72 39.70 38.11 41.10 38.37 C 42.97 38.53 43.86 36.76 44.76 35.47 L 44.91 36.99 C 49.56 29.89 46.30 19.86 39.14 15.84 C 31.88 10.92 20.99 14.85 17.69 22.73 Z" />
</g>
<g id="#e5afbbff">
<path fill="#e5afbb" opacity="1.00" d=" M 43.85 12.91 C 44.77 12.78 46.59 12.52 47.50 12.39 L 47.93 12.33 C 53.05 14.81 57.08 18.98 60.11 23.72 C 60.17 26.29 62.07 30.23 59.10 31.71 C 55.07 31.77 53.82 27.60 52.54 24.59 C 50.82 19.93 47.26 16.38 43.85 12.91 Z" />
</g>
<g id="#f9cdd4ff">
<path fill="#f9cdd4" opacity="1.00" d=" M 17.69 22.73 C 20.99 14.85 31.88 10.92 39.14 15.84 C 46.30 19.86 49.56 29.89 44.91 36.99 L 44.76 35.47 C 44.69 33.19 44.04 31.01 43.13 28.94 C 42.43 28.88 41.04 28.77 40.34 28.72 C 42.02 26.15 41.08 22.82 39.54 20.42 C 36.47 15.91 29.54 14.84 25.27 18.25 C 22.65 19.99 21.58 23.05 20.52 25.85 C 21.45 26.71 22.39 27.56 23.29 28.45 C 19.88 29.16 19.07 32.56 19.36 35.60 C 19.35 36.01 19.33 36.85 19.32 37.26 C 18.34 36.36 17.36 35.46 16.38 34.57 C 16.32 30.60 15.98 26.44 17.69 22.73 Z" />
</g>
<g id="#fee5e7ff">
<path fill="#fee5e7" opacity="1.00" d=" M 25.27 18.25 C 29.54 14.84 36.47 15.91 39.54 20.42 C 41.08 22.82 42.02 26.15 40.34 28.72 C 39.62 29.96 38.86 31.18 38.21 32.46 C 34.15 30.62 29.80 31.83 25.87 33.39 C 25.54 31.51 24.65 29.80 23.29 28.45 C 22.39 27.56 21.45 26.71 20.52 25.85 C 21.58 23.05 22.65 19.99 25.27 18.25 Z" />
</g>
<g id="#d48495ff">
<path fill="#d48495" opacity="1.00" d=" M 8.78 40.58 C 12.14 33.09 10.95 23.36 17.89 17.77 C 13.78 25.12 11.81 33.57 11.41 41.94 C 11.29 47.10 15.94 50.50 20.32 52.09 C 20.29 51.07 20.27 50.04 20.25 49.02 C 26.54 55.30 37.49 55.30 43.76 48.98 C 43.74 50.04 43.72 51.10 43.69 52.16 C 47.87 50.72 52.09 47.56 52.54 42.85 C 52.66 37.75 51.33 32.76 50.88 27.71 C 52.40 31.96 53.82 36.25 55.22 40.55 C 55.55 45.23 53.48 49.90 49.68 52.68 C 42.45 58.10 32.73 58.29 24.15 56.98 C 16.27 55.63 7.86 49.44 8.78 40.58 Z" />
</g>
<g id="#282424ff">
<path fill="#282424" opacity="1.00" d=" M 19.36 35.60 C 19.07 32.56 19.88 29.16 23.29 28.45 C 24.65 29.80 25.54 31.51 25.87 33.39 C 25.81 33.93 25.67 35.01 25.61 35.54 C 25.04 36.72 24.29 38.11 22.87 38.38 C 21.10 38.47 20.17 36.90 19.36 35.60 M 21.49 31.20 L 21.47 31.14 C 21.11 32.67 21.21 34.24 21.29 35.79 C 21.87 35.79 23.04 35.77 23.62 35.76 C 23.64 34.63 23.67 33.51 23.69 32.39 C 24.40 31.00 21.92 29.25 21.49 31.20 Z" />
<path fill="#282424" opacity="1.00" d=" M 40.34 28.72 C 41.04 28.77 42.43 28.88 43.13 28.94 C 44.04 31.01 44.69 33.19 44.76 35.47 C 43.86 36.76 42.97 38.53 41.10 38.37 C 39.70 38.11 38.98 36.72 38.40 35.58 C 38.35 34.80 38.25 33.24 38.21 32.46 C 38.86 31.18 39.62 29.96 40.34 28.72 M 41.78 30.04 C 41.49 30.57 40.91 31.61 40.62 32.14 C 40.49 33.35 40.36 34.56 40.22 35.77 C 40.87 35.76 42.17 35.75 42.81 35.75 C 43.10 34.21 43.16 32.61 42.45 31.17 C 42.28 30.89 41.95 30.33 41.78 30.04 Z" />
</g>
<g id="#fef3f5ff">
<path fill="#fef3f5" opacity="1.00" d=" M 21.49 31.20 C 21.92 29.25 24.40 31.00 23.69 32.39 C 22.70 33.25 21.58 32.28 21.49 31.20 Z" />
<path fill="#fef3f5" opacity="1.00" d=" M 41.78 30.04 C 41.95 30.33 42.28 30.89 42.45 31.17 C 42.26 31.67 41.89 32.68 41.71 33.19 C 41.43 32.92 40.89 32.40 40.62 32.14 C 40.91 31.61 41.49 30.57 41.78 30.04 Z" />
<path fill="#fef3f5" opacity="1.00" d=" M 21.16 47.39 C 21.39 42.01 27.78 41.00 32.01 40.78 C 36.23 41.00 42.70 42.02 42.80 47.45 C 41.30 46.63 39.82 45.76 38.30 44.98 C 37.69 44.76 36.48 44.30 35.88 44.08 C 33.27 43.54 30.58 43.53 27.99 44.12 C 27.42 44.35 26.27 44.79 25.70 45.01 C 24.17 45.77 22.67 46.60 21.16 47.39 Z" />
</g>
<g id="#3d3c3cff">
<path fill="#3d3c3c" opacity="1.00" d=" M 21.47 31.14 L 21.49 31.20 C 21.58 32.28 22.70 33.25 23.69 32.39 C 23.67 33.51 23.64 34.63 23.62 35.76 C 23.04 35.77 21.87 35.79 21.29 35.79 C 21.21 34.24 21.11 32.67 21.47 31.14 Z" />
<path fill="#3d3c3c" opacity="1.00" d=" M 42.45 31.17 C 43.16 32.61 43.10 34.21 42.81 35.75 C 42.17 35.75 40.87 35.76 40.22 35.77 C 40.36 34.56 40.49 33.35 40.62 32.14 C 40.89 32.40 41.43 32.92 41.71 33.19 C 41.89 32.68 42.26 31.67 42.45 31.17 Z" />
</g>
<g id="#fecbd4ff">
<path fill="#fecbd4" opacity="1.00" d=" M 25.87 33.39 C 29.80 31.83 34.15 30.62 38.21 32.46 C 38.25 33.24 38.35 34.80 38.40 35.58 L 38.48 36.50 C 34.15 36.48 29.81 36.48 25.48 36.52 L 25.61 35.54 C 25.67 35.01 25.81 33.93 25.87 33.39 Z" />
</g>
<g id="#9f5461ff">
<path fill="#9f5461" opacity="1.00" d=" M 13.23 54.81 C 7.36 50.92 5.05 42.32 8.86 36.25 C 8.84 37.33 8.80 39.49 8.78 40.58 C 7.86 49.44 16.27 55.63 24.15 56.98 C 32.73 58.29 42.45 58.10 49.68 52.68 C 53.48 49.90 55.55 45.23 55.22 40.55 C 55.23 39.47 55.26 37.32 55.27 36.24 C 58.10 41.35 57.39 48.21 53.36 52.49 C 49.37 56.65 43.79 59.21 38.07 59.76 C 29.60 60.36 20.21 60.42 13.23 54.81 Z" />
<path fill="#9f5461" opacity="1.00" d=" M 22.37 42.40 C 28.10 38.46 36.65 38.49 42.16 42.84 C 44.16 44.24 43.62 46.89 43.76 48.98 C 37.49 55.30 26.54 55.30 20.25 49.02 C 20.26 46.67 19.96 43.74 22.37 42.40 M 21.16 47.39 C 26.96 52.69 36.96 52.68 42.80 47.45 C 42.70 42.02 36.23 41.00 32.01 40.78 C 27.78 41.00 21.39 42.01 21.16 47.39 Z" />
</g>
<g id="#494041ff">
<path fill="#494041" opacity="1.00" d=" M 25.70 45.01 C 26.27 44.79 27.42 44.35 27.99 44.12 C 28.50 45.22 28.97 46.34 29.43 47.47 C 28.60 47.57 26.93 47.78 26.10 47.89 C 26.00 47.17 25.80 45.73 25.70 45.01 Z" />
<path fill="#494041" opacity="1.00" d=" M 35.88 44.08 C 36.48 44.30 37.69 44.76 38.30 44.98 C 38.19 45.72 37.98 47.20 37.88 47.94 C 37.11 47.87 35.58 47.73 34.81 47.66 C 35.16 46.46 35.50 45.27 35.88 44.08 Z" />
</g>
<g id="#f1d8dcff">
<path fill="#f1d8dc" opacity="1.00" d=" M 27.99 44.12 C 30.58 43.53 33.27 43.54 35.88 44.08 C 35.50 45.27 35.16 46.46 34.81 47.66 C 33.02 47.53 31.22 47.44 29.43 47.47 C 28.97 46.34 28.50 45.22 27.99 44.12 Z" />
</g>
<g id="#e9bbc3ff">
<path fill="#e9bbc3" opacity="1.00" d=" M 21.16 47.39 C 22.67 46.60 24.17 45.77 25.70 45.01 C 25.80 45.73 26.00 47.17 26.10 47.89 C 26.93 47.78 28.60 47.57 29.43 47.47 C 31.22 47.44 33.02 47.53 34.81 47.66 C 35.58 47.73 37.11 47.87 37.88 47.94 C 37.98 47.20 38.19 45.72 38.30 44.98 C 39.82 45.76 41.30 46.63 42.80 47.45 C 36.96 52.68 26.96 52.69 21.16 47.39 Z" />
</g>
</svg>
