<?xml version="1.0" encoding="UTF-8" ?>
<!DOCTYPE svg PUBLIC "-//W3C//DTD SVG 1.1//EN" "http://www.w3.org/Graphics/SVG/1.1/DTD/svg11.dtd">
<svg width="64pt" height="64pt" viewBox="0 0 64 64" version="1.1" xmlns="http://www.w3.org/2000/svg">
<g id="#624d15e1">
<path fill="#624d15" opacity="0.88" d=" M 11.18 4.04 C 12.71 4.67 15.36 4.28 16.05 5.92 C 14.44 6.23 11.74 5.26 11.59 7.65 C 10.75 13.00 9.71 19.16 13.17 23.83 C 12.50 25.28 11.89 26.75 11.29 28.22 C 10.10 20.25 9.07 11.95 11.18 4.04 Z" />
<path fill="#624d15" opacity="0.88" d=" M 47.95 5.92 C 48.65 4.28 51.29 4.67 52.82 4.04 C 54.96 11.92 53.80 20.18 52.84 28.15 C 51.27 25.81 50.37 22.83 52.48 20.51 C 52.64 16.26 55.82 4.64 47.95 5.92 Z" />
</g>
<g id="#ac8d2ffd">
<path fill="#ac8d2f" opacity="1.00" d=" M 11.59 7.65 C 11.74 5.26 14.44 6.23 16.05 5.92 C 20.33 7.40 24.56 9.87 27.77 13.20 C 29.82 14.69 34.01 14.64 36.23 13.19 C 39.57 10.06 43.84 7.62 47.95 5.92 C 55.82 4.64 52.64 16.26 52.48 20.51 C 50.37 22.83 51.27 25.81 52.84 28.15 C 55.05 31.29 55.26 35.38 56.07 39.00 C 55.96 42.54 56.42 50.85 50.96 50.94 C 56.84 43.15 52.39 33.33 49.99 25.00 C 49.84 20.99 46.38 18.53 43.31 16.72 C 42.80 16.48 41.77 16.00 41.25 15.76 C 36.54 14.57 31.59 15.04 26.77 15.13 C 21.17 14.75 16.05 19.03 13.99 24.04 L 13.17 23.83 C 9.71 19.16 10.75 13.00 11.59 7.65 Z" />
</g>
<g id="#30260b74">
<path fill="#30260b" opacity="0.45" d=" M 27.77 13.20 C 30.58 12.90 33.41 12.91 36.23 13.19 C 34.01 14.64 29.82 14.69 27.77 13.20 Z" />
</g>
<g id="#e5be4aff">
<path fill="#e5be4a" opacity="1.00" d=" M 13.99 24.04 C 16.05 19.03 21.17 14.75 26.77 15.13 C 31.52 16.23 36.42 16.10 41.25 15.76 C 41.77 16.00 42.80 16.48 43.31 16.72 L 43.07 17.71 L 42.00 17.90 C 36.07 16.93 30.04 16.68 24.06 17.05 C 18.69 18.68 16.11 23.87 14.96 28.94 C 14.27 29.65 13.58 30.36 12.89 31.06 C 13.17 28.71 13.62 26.38 13.99 24.04 Z" />
</g>
<g id="#ccab46ff">
<path fill="#ccab46" opacity="1.00" d=" M 26.77 15.13 C 31.59 15.04 36.54 14.57 41.25 15.76 C 36.42 16.10 31.52 16.23 26.77 15.13 Z" />
</g>
<g id="#fcd660ff">
<path fill="#fcd660" opacity="1.00" d=" M 14.96 28.94 C 16.11 23.87 18.69 18.68 24.06 17.05 C 30.04 16.68 36.07 16.93 42.00 17.90 C 44.02 20.95 46.48 23.83 47.69 27.34 C 49.26 31.30 46.11 34.00 44.39 36.99 C 42.72 33.65 39.25 35.23 38.01 37.95 C 32.27 38.88 34.57 45.32 36.10 48.91 C 33.15 48.00 29.25 46.78 27.58 50.11 C 25.95 46.53 31.88 41.08 26.37 38.76 C 25.01 37.44 24.46 34.51 22.08 35.03 C 20.43 35.17 19.98 37.29 18.88 38.29 C 14.66 36.83 14.51 32.95 14.96 28.94 M 25.20 18.15 C 22.95 20.20 20.12 23.00 20.58 26.29 C 20.74 33.13 31.11 37.69 36.02 33.01 C 40.98 30.99 43.46 22.64 38.41 19.53 C 34.87 16.20 29.46 18.67 25.20 18.15 Z" />
</g>
<g id="#d9b036ff">
<path fill="#d9b036" opacity="1.00" d=" M 43.31 16.72 C 46.38 18.53 49.84 20.99 49.99 25.00 C 52.39 33.33 56.84 43.15 50.96 50.94 C 50.53 50.91 49.67 50.87 49.24 50.84 L 48.65 50.15 C 54.40 44.96 51.45 36.54 50.09 29.98 C 49.81 24.94 46.94 20.71 43.07 17.71 L 43.31 16.72 Z" />
</g>
<g id="#fee084ff">
<path fill="#fee084" opacity="1.00" d=" M 25.20 18.15 C 29.46 18.67 34.87 16.20 38.41 19.53 C 43.46 22.64 40.98 30.99 36.02 33.01 C 31.11 37.69 20.74 33.13 20.58 26.29 C 20.12 23.00 22.95 20.20 25.20 18.15 Z" />
</g>
<g id="#f7c93eff">
<path fill="#f7c93e" opacity="1.00" d=" M 42.00 17.90 L 43.07 17.71 C 46.94 20.71 49.81 24.94 50.09 29.98 C 51.45 36.54 54.40 44.96 48.65 50.15 C 48.24 50.13 47.43 50.08 47.02 50.05 C 44.42 50.26 39.60 48.26 39.97 51.99 C 40.12 55.46 35.47 54.80 33.11 55.13 C 33.75 54.13 34.44 53.16 35.11 52.18 C 35.36 51.61 35.85 50.48 36.10 49.92 L 36.10 48.91 C 34.57 45.32 32.27 38.88 38.01 37.95 C 37.92 38.66 37.74 40.10 37.65 40.81 C 35.04 44.62 38.75 49.41 42.76 47.82 C 43.87 46.76 45.94 45.24 44.18 43.74 C 44.80 41.52 45.14 39.22 44.39 36.99 C 46.11 34.00 49.26 31.30 47.69 27.34 C 46.48 23.83 44.02 20.95 42.00 17.90 Z" />
</g>
<g id="#b2902bff">
<path fill="#b2902b" opacity="1.00" d=" M 13.17 23.83 L 13.99 24.04 C 13.62 26.38 13.17 28.71 12.89 31.06 C 11.20 36.98 8.68 44.73 13.23 49.82 C 15.03 51.78 21.89 47.76 22.22 51.71 C 22.35 55.12 26.93 54.86 29.21 56.39 C 24.06 57.47 18.78 55.74 14.60 52.72 C 15.09 50.66 13.49 51.30 12.12 51.61 C 9.57 49.54 8.55 46.11 8.05 43.00 C 8.77 38.01 10.42 33.20 11.29 28.22 C 11.89 26.75 12.50 25.28 13.17 23.83 Z" />
</g>
<g id="#685114eb">
<path fill="#685114" opacity="0.92" d=" M 10.29 28.09 L 11.29 28.22 C 10.42 33.20 8.77 38.01 8.05 43.00 C 8.55 46.11 9.57 49.54 12.12 51.61 C 13.49 51.30 15.09 50.66 14.60 52.72 C 18.78 55.74 24.06 57.47 29.21 56.39 C 32.57 56.27 30.07 53.42 28.93 52.14 C 30.97 52.72 33.06 52.71 35.11 52.18 C 34.44 53.16 33.75 54.13 33.11 55.13 L 32.65 55.81 C 31.67 56.84 30.70 57.88 29.87 59.03 C 34.01 58.94 37.62 56.48 41.93 56.87 C 42.23 58.94 38.83 57.48 37.70 58.68 C 33.47 61.14 28.14 60.09 23.98 58.07 C 20.86 56.86 17.28 57.44 14.29 55.84 C 12.87 54.90 11.50 53.90 10.19 52.82 C 4.70 45.43 7.85 36.08 10.29 28.09 Z" />
</g>
<g id="#f2c33aff">
<path fill="#f2c33a" opacity="1.00" d=" M 12.89 31.06 C 13.58 30.36 14.27 29.65 14.96 28.94 C 14.51 32.95 14.66 36.83 18.88 38.29 C 19.40 41.21 19.94 45.26 23.82 44.96 C 25.28 43.19 25.95 40.97 26.37 38.76 C 31.88 41.08 25.95 46.53 27.58 50.11 C 27.91 50.61 28.59 51.63 28.93 52.14 C 30.07 53.42 32.57 56.27 29.21 56.39 C 26.93 54.86 22.35 55.12 22.22 51.71 C 21.89 47.76 15.03 51.78 13.23 49.82 C 8.68 44.73 11.20 36.98 12.89 31.06 Z" />
</g>
<g id="#423b29ff">
<path fill="#423b29" opacity="1.00" d=" M 18.88 38.29 C 19.98 37.29 20.43 35.17 22.08 35.03 C 24.46 34.51 25.01 37.44 26.37 38.76 C 25.95 40.97 25.28 43.19 23.82 44.96 C 19.94 45.26 19.40 41.21 18.88 38.29 Z" />
<path fill="#423b29" opacity="1.00" d=" M 38.01 37.95 C 39.25 35.23 42.72 33.65 44.39 36.99 C 45.14 39.22 44.80 41.52 44.18 43.74 C 41.34 45.79 38.67 43.60 37.65 40.81 C 37.74 40.10 37.92 38.66 38.01 37.95 Z" />
</g>
<g id="#624c11ef">
<path fill="#624c11" opacity="0.94" d=" M 56.07 39.00 L 57.03 39.00 C 57.26 42.97 57.34 47.64 54.71 50.94 C 54.13 51.68 53.53 52.43 52.93 53.16 C 51.90 54.09 50.84 54.98 49.75 55.84 C 47.62 57.13 45.14 57.20 42.75 56.76 C 45.74 56.05 48.25 54.28 50.67 52.45 C 50.31 52.05 49.60 51.24 49.24 50.84 C 49.67 50.87 50.53 50.91 50.96 50.94 C 56.42 50.85 55.96 42.54 56.07 39.00 Z" />
</g>
<g id="#ebb829ff">
<path fill="#ebb829" opacity="1.00" d=" M 42.76 47.82 C 38.75 49.41 35.04 44.62 37.65 40.81 C 38.67 43.60 41.34 45.79 44.18 43.74 C 45.94 45.24 43.87 46.76 42.76 47.82 Z" />
</g>
<g id="#ccb8a0ff">
<path fill="#ccb8a0" opacity="1.00" d=" M 27.58 50.11 C 29.25 46.78 33.15 48.00 36.10 48.91 L 36.10 49.92 C 33.36 51.18 30.40 50.92 27.58 50.11 Z" />
</g>
<g id="#a38660ff">
<path fill="#a38660" opacity="1.00" d=" M 27.58 50.11 C 30.40 50.92 33.36 51.18 36.10 49.92 C 35.85 50.48 35.36 51.61 35.11 52.18 C 33.06 52.71 30.97 52.72 28.93 52.14 C 28.59 51.63 27.91 50.61 27.58 50.11 Z" />
</g>
<g id="#c7a031ff">
<path fill="#c7a031" opacity="1.00" d=" M 39.97 51.99 C 39.60 48.26 44.42 50.26 47.02 50.05 C 49.52 52.91 43.27 51.92 44.48 54.99 C 40.57 55.62 36.61 55.79 32.65 55.81 L 33.11 55.13 C 35.47 54.80 40.12 55.46 39.97 51.99 Z" />
</g>
<g id="#97771fff">
<path fill="#97771f" opacity="1.00" d=" M 47.02 50.05 C 47.43 50.08 48.24 50.13 48.65 50.15 L 49.24 50.84 C 49.60 51.24 50.31 52.05 50.67 52.45 C 48.25 54.28 45.74 56.05 42.75 56.76 L 41.93 56.87 C 37.62 56.48 34.01 58.94 29.87 59.03 C 30.70 57.88 31.67 56.84 32.65 55.81 C 36.61 55.79 40.57 55.62 44.48 54.99 C 43.27 51.92 49.52 52.91 47.02 50.05 Z" />
</g>
<g id="#120d013e">
<path fill="#120d01" opacity="0.24" d=" M 52.93 53.16 C 53.53 52.43 54.13 51.68 54.71 50.94 C 56.22 54.55 60.28 57.95 57.81 61.98 C 56.35 60.57 54.25 59.65 53.08 58.11 C 54.35 56.43 54.58 54.75 52.93 53.16 Z" />
</g>
<g id="#1b13025e">
<path fill="#1b1302" opacity="0.37" d=" M 7.98 53.01 C 8.53 52.96 9.64 52.86 10.19 52.82 C 11.50 53.90 12.87 54.90 14.29 55.84 C 13.10 57.29 11.32 58.12 9.80 59.19 C 9.20 57.45 8.50 55.73 7.99 53.96 L 7.98 53.01 Z" />
</g>
<g id="#251b037c">
<path fill="#251b03" opacity="0.49" d=" M 49.75 55.84 C 50.84 54.98 51.90 54.09 52.93 53.16 C 54.58 54.75 54.35 56.43 53.08 58.11 C 51.98 57.38 50.19 57.27 49.75 55.84 Z" />
</g>
<g id="#0e0a0131">
<path fill="#0e0a01" opacity="0.19" d=" M 6.36 55.12 C 6.77 54.83 7.58 54.25 7.99 53.96 C 8.50 55.73 9.20 57.45 9.80 59.19 C 9.85 60.49 6.11 61.81 6.84 59.18 C 2.72 61.01 7.38 57.10 6.36 55.12 Z" />
</g>
</svg>
