<?xml version="1.0" encoding="UTF-8" ?>
<!DOCTYPE svg PUBLIC "-//W3C//DTD SVG 1.1//EN" "http://www.w3.org/Graphics/SVG/1.1/DTD/svg11.dtd">
<svg width="64pt" height="64pt" viewBox="0 0 64 64" version="1.1" xmlns="http://www.w3.org/2000/svg">
<g id="#585052ff">
<path fill="#585052" opacity="1.00" d=" M 16.15 0.89 C 19.10 0.86 20.86 3.37 22.50 5.44 C 24.89 8.42 25.12 12.39 25.51 16.02 C 25.47 17.51 26.01 19.22 25.14 20.55 C 24.73 20.88 23.92 21.52 23.51 21.84 L 22.43 22.72 C 23.20 19.65 24.80 16.54 23.90 13.32 C 23.19 10.34 22.34 7.13 20.01 4.97 C 18.51 3.56 15.80 4.18 15.24 6.23 C 14.00 10.37 14.32 14.82 14.67 19.08 C 14.85 21.60 16.65 23.51 18.08 25.43 C 17.53 27.57 16.76 29.66 15.41 31.44 C 15.70 27.80 14.05 24.45 13.49 20.93 C 12.47 14.20 12.23 6.80 16.15 0.89 Z" />
<path fill="#585052" opacity="1.00" d=" M 38.90 20.64 C 37.41 13.69 39.53 5.02 46.00 0.99 C 48.48 0.55 49.10 3.48 49.99 5.17 C 52.38 13.01 50.74 21.41 48.48 29.08 C 48.81 33.90 53.92 36.03 55.70 40.14 C 57.85 44.50 57.40 49.90 54.73 53.94 C 53.67 55.29 52.48 56.54 51.30 57.79 C 52.07 58.61 52.85 59.43 53.60 60.27 C 52.96 59.75 51.66 58.71 51.02 58.19 C 46.04 60.92 39.93 59.36 35.19 62.59 C 34.96 62.01 34.51 60.84 34.28 60.26 C 38.62 60.10 42.95 59.47 47.16 58.37 C 48.99 57.81 51.31 57.34 51.98 55.26 C 53.32 52.01 54.57 48.59 54.70 45.04 C 54.81 41.38 52.29 38.50 50.32 35.68 C 48.06 32.61 46.80 28.98 45.54 25.43 C 50.48 21.84 49.73 15.34 49.52 9.98 C 49.38 8.01 49.16 5.77 47.48 4.47 C 45.55 3.42 43.55 4.97 42.56 6.56 C 39.77 11.17 38.51 17.27 41.83 21.95 C 40.85 21.51 39.87 21.08 38.90 20.64 Z" />
<path fill="#585052" opacity="1.00" d=" M 7.55 42.07 C 8.66 38.16 11.80 35.36 14.73 32.75 C 13.97 36.23 11.18 38.69 9.87 41.91 C 8.60 45.46 9.99 49.18 11.02 52.60 C 11.73 54.40 12.17 56.81 14.27 57.49 C 19.13 59.34 24.35 60.07 29.53 60.22 C 29.44 60.76 29.27 61.83 29.18 62.36 C 24.34 59.75 18.55 60.92 13.72 58.39 C 12.13 57.19 10.67 55.81 9.48 54.22 C 6.93 50.76 6.56 46.15 7.55 42.07 Z" />
<path fill="#585052" opacity="1.00" d=" M 42.32 40.27 C 42.61 40.43 43.19 40.75 43.48 40.90 C 42.80 42.63 42.15 44.38 41.24 46.01 C 40.95 44.67 40.68 43.34 40.42 42.00 C 41.80 42.33 42.43 41.75 42.32 40.27 Z" />
<path fill="#585052" opacity="1.00" d=" M 29.25 55.42 C 31.22 54.62 33.26 54.91 35.20 55.65 C 34.13 56.38 33.03 57.06 31.90 57.69 C 30.97 56.99 30.09 56.23 29.25 55.42 Z" />
</g>
<g id="#8f7e84ff">
<path fill="#8f7e84" opacity="1.00" d=" M 15.24 6.23 C 15.80 4.18 18.51 3.56 20.01 4.97 C 22.34 7.13 23.19 10.34 23.90 13.32 C 24.80 16.54 23.20 19.65 22.43 22.72 C 19.60 25.31 18.66 29.09 17.47 32.58 C 16.14 36.60 12.18 39.54 12.11 44.00 C 12.34 47.54 13.55 50.99 13.11 54.58 C 17.77 58.44 24.15 58.01 29.53 60.22 C 24.35 60.07 19.13 59.34 14.27 57.49 C 12.17 56.81 11.73 54.40 11.02 52.60 C 9.99 49.18 8.60 45.46 9.87 41.91 C 11.18 38.69 13.97 36.23 14.73 32.75 L 14.93 32.16 L 15.41 31.44 C 16.76 29.66 17.53 27.57 18.08 25.43 C 16.65 23.51 14.85 21.60 14.67 19.08 C 14.32 14.82 14.00 10.37 15.24 6.23 M 17.48 8.28 C 16.93 12.59 15.39 18.04 18.88 21.51 C 21.74 17.64 21.54 12.54 19.69 8.29 C 19.13 8.29 18.03 8.28 17.48 8.28 Z" />
</g>
<g id="#897c7fff">
<path fill="#897c7f" opacity="1.00" d=" M 42.56 6.56 C 43.55 4.97 45.55 3.42 47.48 4.47 C 49.16 5.77 49.38 8.01 49.52 9.98 C 49.73 15.34 50.48 21.84 45.54 25.43 C 46.80 28.98 48.06 32.61 50.32 35.68 C 52.29 38.50 54.81 41.38 54.70 45.04 C 54.57 48.59 53.32 52.01 51.98 55.26 C 51.31 57.34 48.99 57.81 47.16 58.37 C 42.95 59.47 38.62 60.10 34.28 60.26 C 39.43 57.15 45.99 57.93 50.96 54.32 C 50.77 53.73 50.39 52.55 50.20 51.96 C 51.46 48.65 53.00 44.91 51.49 41.42 C 49.78 37.90 46.90 35.00 45.85 31.15 C 44.74 27.98 43.96 23.74 40.14 22.81 C 34.69 21.63 29.03 22.43 23.51 21.84 C 23.92 21.52 24.73 20.88 25.14 20.55 C 25.78 20.52 27.05 20.46 27.68 20.43 C 30.87 20.97 34.11 20.79 37.30 20.44 C 37.70 20.49 38.50 20.59 38.90 20.64 C 39.87 21.08 40.85 21.51 41.83 21.95 C 38.51 17.27 39.77 11.17 42.56 6.56 M 44.25 8.26 C 41.98 12.84 42.61 18.04 44.27 22.70 C 44.78 22.61 45.80 22.44 46.31 22.35 C 47.52 17.75 47.80 12.94 46.64 8.30 C 46.05 8.29 44.85 8.27 44.25 8.26 Z" />
</g>
<g id="#c0b8b9ff">
<path fill="#c0b8b9" opacity="1.00" d=" M 17.48 8.28 C 18.03 8.28 19.13 8.29 19.69 8.29 C 21.54 12.54 21.74 17.64 18.88 21.51 C 15.39 18.04 16.93 12.59 17.48 8.28 Z" />
</g>
<g id="#c0b4b6ff">
<path fill="#c0b4b6" opacity="1.00" d=" M 44.25 8.26 C 44.85 8.27 46.05 8.29 46.64 8.30 C 47.80 12.94 47.52 17.75 46.31 22.35 C 45.80 22.44 44.78 22.61 44.27 22.70 C 42.61 18.04 41.98 12.84 44.25 8.26 Z" />
<path fill="#c0b4b6" opacity="1.00" d=" M 46.24 51.25 C 47.57 51.45 48.88 51.71 50.20 51.96 C 50.39 52.55 50.77 53.73 50.96 54.32 C 45.99 57.93 39.43 57.15 34.28 60.26 C 34.08 59.77 33.68 58.79 33.48 58.30 C 37.98 56.31 41.02 51.53 46.24 51.25 Z" />
</g>
<g id="#696263fa">
<path fill="#696263" opacity="0.98" d=" M 26.64 20.28 C 30.12 19.34 33.88 19.14 37.30 20.44 C 34.11 20.79 30.87 20.97 27.68 20.43 L 26.64 20.28 Z" />
</g>
<g id="#9e9093ff">
<path fill="#9e9093" opacity="1.00" d=" M 22.43 22.72 L 23.51 21.84 C 29.03 22.43 34.69 21.63 40.14 22.81 C 43.96 23.74 44.74 27.98 45.85 31.15 C 46.90 35.00 49.78 37.90 51.49 41.42 C 53.00 44.91 51.46 48.65 50.20 51.96 C 48.88 51.71 47.57 51.45 46.24 51.25 C 44.42 50.96 42.60 50.70 40.80 50.36 C 41.43 49.55 42.06 48.73 42.68 47.91 C 44.56 45.82 44.68 42.94 44.61 40.29 C 44.56 35.18 44.95 28.92 40.69 25.26 C 36.00 22.55 30.12 22.92 25.00 23.99 C 21.99 24.38 20.68 27.33 19.96 29.91 C 18.61 34.74 16.86 39.86 18.30 44.89 C 18.69 47.55 21.24 48.87 23.13 50.39 C 21.36 50.66 19.58 50.86 17.82 51.15 C 16.44 51.50 15.17 52.17 13.88 52.74 C 18.30 55.41 23.17 57.26 28.30 57.94 C 28.69 58.03 29.46 58.21 29.85 58.30 C 29.77 58.78 29.61 59.74 29.53 60.22 C 24.15 58.01 17.77 58.44 13.11 54.58 C 13.55 50.99 12.34 47.54 12.11 44.00 C 12.18 39.54 16.14 36.60 17.47 32.58 C 18.66 29.09 19.60 25.31 22.43 22.72 Z" />
</g>
<g id="#aea4a5ff">
<path fill="#aea4a5" opacity="1.00" d=" M 25.00 23.99 C 30.12 22.92 36.00 22.55 40.69 25.26 C 44.95 28.92 44.56 35.18 44.61 40.29 C 43.54 39.38 42.49 38.36 41.14 37.88 C 36.75 39.74 37.23 48.38 42.68 47.91 C 42.06 48.73 41.43 49.55 40.80 50.36 C 36.32 49.04 34.53 44.45 34.32 40.18 C 34.39 37.52 34.84 34.87 34.70 32.21 C 33.95 30.90 32.92 29.79 31.99 28.62 C 31.09 29.79 30.06 30.89 29.35 32.20 C 29.21 35.17 29.69 38.13 29.66 41.10 C 29.30 45.14 27.23 49.12 23.13 50.39 C 21.24 48.87 18.69 47.55 18.30 44.89 C 16.86 39.86 18.61 34.74 19.96 29.91 C 20.68 27.33 21.99 24.38 25.00 23.99 M 21.35 38.50 C 18.10 40.76 18.59 47.25 22.79 48.13 C 26.11 46.72 26.68 42.09 24.71 39.35 C 23.85 38.43 22.52 37.32 21.35 38.50 Z" />
</g>
<g id="#f4eef0ff">
<path fill="#f4eef0" opacity="1.00" d=" M 29.35 32.20 C 30.06 30.89 31.09 29.79 31.99 28.62 C 32.92 29.79 33.95 30.90 34.70 32.21 C 34.84 34.87 34.39 37.52 34.32 40.18 C 33.88 39.70 33.01 38.73 32.57 38.25 C 31.60 39.20 30.63 40.15 29.66 41.10 C 29.69 38.13 29.21 35.17 29.35 32.20 Z" />
</g>
<g id="#2e2b2cff">
<path fill="#2e2b2c" opacity="1.00" d=" M 21.35 38.50 C 22.52 37.32 23.85 38.43 24.71 39.35 C 26.68 42.09 26.11 46.72 22.79 48.13 C 18.59 47.25 18.10 40.76 21.35 38.50 M 21.35 44.66 C 21.75 44.97 22.54 45.58 22.94 45.89 C 23.24 44.75 23.67 43.60 23.35 42.42 L 23.78 41.43 L 23.29 40.28 C 22.87 40.27 22.04 40.27 21.62 40.26 C 21.14 41.68 21.35 43.20 21.35 44.66 Z" />
</g>
<g id="#e9dee1ff">
<path fill="#e9dee1" opacity="1.00" d=" M 29.66 41.10 C 30.63 40.15 31.60 39.20 32.57 38.25 C 33.01 38.73 33.88 39.70 34.32 40.18 C 34.53 44.45 36.32 49.04 40.80 50.36 C 42.60 50.70 44.42 50.96 46.24 51.25 C 41.02 51.53 37.98 56.31 33.48 58.30 C 33.68 58.79 34.08 59.77 34.28 60.26 C 34.51 60.84 34.96 62.01 35.19 62.59 C 33.16 62.75 31.12 62.80 29.09 62.92 L 29.18 62.36 C 29.27 61.83 29.44 60.76 29.53 60.22 C 29.61 59.74 29.77 58.78 29.85 58.30 C 29.46 58.21 28.69 58.03 28.30 57.94 C 25.30 55.00 22.50 51.10 17.82 51.15 C 19.58 50.86 21.36 50.66 23.13 50.39 C 27.23 49.12 29.30 45.14 29.66 41.10 M 27.78 52.36 C 28.02 53.44 28.27 54.52 28.51 55.59 L 29.25 55.42 C 30.09 56.23 30.97 56.99 31.90 57.69 C 33.03 57.06 34.13 56.38 35.20 55.65 C 35.62 54.61 36.08 53.59 36.61 52.61 C 33.68 53.67 30.60 53.76 27.78 52.36 Z" />
<path fill="#e9dee1" opacity="1.00" d=" M 21.62 40.26 C 22.04 40.27 22.87 40.27 23.29 40.28 L 23.78 41.43 L 23.35 42.42 C 22.15 42.31 21.57 41.59 21.62 40.26 Z" />
<path fill="#e9dee1" opacity="1.00" d=" M 40.18 40.99 C 40.59 40.68 41.43 40.06 41.85 39.75 L 42.32 40.27 C 42.43 41.75 41.80 42.33 40.42 42.00 L 40.18 40.99 Z" />
</g>
<g id="#282626ff">
<path fill="#282626" opacity="1.00" d=" M 42.68 47.91 C 37.23 48.38 36.75 39.74 41.14 37.88 C 42.49 38.36 43.54 39.38 44.61 40.29 C 44.68 42.94 44.56 45.82 42.68 47.91 M 40.18 40.99 L 40.42 42.00 C 40.68 43.34 40.95 44.67 41.24 46.01 C 42.15 44.38 42.80 42.63 43.48 40.90 C 43.19 40.75 42.61 40.43 42.32 40.27 L 41.85 39.75 C 41.43 40.06 40.59 40.68 40.18 40.99 Z" />
</g>
<g id="#3c3b3cff">
<path fill="#3c3b3c" opacity="1.00" d=" M 21.35 44.66 C 21.35 43.20 21.14 41.68 21.62 40.26 C 21.57 41.59 22.15 42.31 23.35 42.42 C 23.67 43.60 23.24 44.75 22.94 45.89 C 22.54 45.58 21.75 44.97 21.35 44.66 Z" />
</g>
<g id="#c8bcbeff">
<path fill="#c8bcbe" opacity="1.00" d=" M 13.88 52.74 C 15.17 52.17 16.44 51.50 17.82 51.15 C 22.50 51.10 25.30 55.00 28.30 57.94 C 23.17 57.26 18.30 55.41 13.88 52.74 Z" />
</g>
<g id="#a99c9fff">
<path fill="#a99c9f" opacity="1.00" d=" M 27.78 52.36 C 30.60 53.76 33.68 53.67 36.61 52.61 C 36.08 53.59 35.62 54.61 35.20 55.65 C 33.26 54.91 31.22 54.62 29.25 55.42 L 28.51 55.59 C 28.27 54.52 28.02 53.44 27.78 52.36 Z" />
</g>
<g id="#0d0c0c2b">
<path fill="#0d0c0c" opacity="0.17" d=" M 9.48 54.22 C 10.67 55.81 12.13 57.19 13.72 58.39 C 11.90 60.17 9.84 61.68 7.50 62.71 C 7.89 61.98 8.66 60.53 9.05 59.80 C 8.45 59.93 7.25 60.21 6.65 60.34 C 6.94 59.76 7.53 58.61 7.82 58.03 C 7.43 57.93 6.65 57.73 6.26 57.63 C 7.34 56.50 8.41 55.36 9.48 54.22 Z" />
</g>
<g id="#06060613">
<path fill="#060606" opacity="0.07" d=" M 51.30 57.79 C 52.48 56.54 53.67 55.29 54.73 53.94 C 56.22 55.49 58.24 56.87 58.67 59.12 C 58.91 60.43 59.39 62.15 57.79 62.76 C 55.88 64.03 54.78 61.31 53.60 60.27 C 52.85 59.43 52.07 58.61 51.30 57.79 Z" />
</g>
</svg>
