<?xml version="1.0" encoding="UTF-8" ?>
<!DOCTYPE svg PUBLIC "-//W3C//DTD SVG 1.1//EN" "http://www.w3.org/Graphics/SVG/1.1/DTD/svg11.dtd">
<svg width="64pt" height="64pt" viewBox="0 0 64 64" version="1.1" xmlns="http://www.w3.org/2000/svg">
<g id="#2b2011f2">
<path fill="#2b2011" opacity="0.95" d=" M 35.04 3.93 C 36.27 3.84 37.37 4.16 38.34 4.90 L 38.22 5.09 C 37.18 6.81 36.13 8.53 35.07 10.24 C 34.44 10.44 33.19 10.86 32.57 11.07 C 32.91 8.55 33.64 6.08 35.04 3.93 Z" />
</g>
<g id="#2b2111ee">
<path fill="#2b2111" opacity="0.93" d=" M 44.08 3.93 C 45.46 3.78 46.80 4.18 47.57 5.39 C 46.72 6.67 45.87 7.95 45.03 9.24 C 44.26 9.34 42.71 9.55 41.93 9.65 C 42.10 7.57 42.98 5.67 44.08 3.93 Z" />
</g>
<g id="#46391fee">
<path fill="#46391f" opacity="0.93" d=" M 35.07 10.24 C 36.13 8.53 37.18 6.81 38.22 5.09 C 39.30 6.56 40.02 8.23 40.62 9.93 C 38.76 9.99 36.91 10.05 35.07 10.24 Z" />
</g>
<g id="#5c4b27ff">
<path fill="#5c4b27" opacity="1.00" d=" M 45.03 9.24 C 45.87 7.95 46.72 6.67 47.57 5.39 C 48.69 7.53 49.75 9.75 50.06 12.17 C 50.79 16.20 50.95 20.33 50.28 24.39 C 49.77 23.86 48.75 22.79 48.25 22.26 C 49.88 18.19 48.54 13.96 47.48 9.95 L 47.56 10.63 C 46.56 10.72 45.55 10.82 44.55 10.91 C 44.04 13.84 44.15 16.82 44.22 19.78 C 43.17 18.79 42.13 17.81 41.09 16.82 C 41.40 14.52 41.72 12.22 41.91 9.90 L 41.93 9.65 C 42.71 9.55 44.26 9.34 45.03 9.24 Z" />
</g>
<g id="#190b01ff">
<path fill="#190b01" opacity="1.00" d=" M 35.07 10.24 C 36.91 10.05 38.76 9.99 40.62 9.93 L 41.91 9.90 C 41.72 12.22 41.40 14.52 41.09 16.82 C 39.60 17.20 38.11 17.60 36.62 18.00 C 36.70 17.31 36.87 15.93 36.95 15.24 C 35.49 15.96 34.03 16.67 32.58 17.39 C 32.59 16.69 32.62 15.30 32.63 14.60 C 30.86 15.79 29.15 17.06 27.57 18.49 C 27.19 18.01 26.43 17.06 26.05 16.58 C 27.92 14.40 29.68 11.97 32.57 11.07 C 33.19 10.86 34.44 10.44 35.07 10.24 Z" />
</g>
<g id="#785a44ff">
<path fill="#785a44" opacity="1.00" d=" M 44.55 10.91 C 45.55 10.82 46.56 10.72 47.56 10.63 C 48.22 15.07 48.90 19.66 47.30 24.01 C 45.17 22.57 43.05 21.09 40.98 19.57 C 41.01 18.88 41.06 17.50 41.09 16.82 C 42.13 17.81 43.17 18.79 44.22 19.78 C 44.15 16.82 44.04 13.84 44.55 10.91 Z" />
</g>
<g id="#a48e52ff">
<path fill="#a48e52" opacity="1.00" d=" M 47.48 9.95 C 48.54 13.96 49.88 18.19 48.25 22.26 C 48.75 22.79 49.77 23.86 50.28 24.39 C 51.41 25.96 51.70 27.91 52.17 29.75 C 52.64 29.59 53.59 29.27 54.06 29.11 C 54.45 31.15 54.86 33.19 55.27 35.22 C 56.12 34.54 56.97 33.85 57.83 33.17 C 58.09 34.85 58.36 36.54 58.63 38.23 C 57.43 39.03 56.22 39.83 55.02 40.63 C 53.21 38.79 51.39 36.96 49.66 35.05 C 48.99 35.56 48.29 36.03 47.57 36.48 C 43.32 38.43 39.95 41.73 35.92 44.00 C 30.25 45.74 24.36 42.55 18.72 44.83 C 18.43 45.46 17.87 46.71 17.58 47.33 C 17.53 47.35 17.43 47.39 17.38 47.41 C 17.19 46.07 17.06 44.71 16.58 43.43 C 14.69 40.85 11.95 38.56 11.80 35.12 C 12.45 34.08 13.06 33.03 13.74 32.01 C 18.57 27.74 22.80 22.83 27.57 18.49 C 29.15 17.06 30.86 15.79 32.63 14.60 C 32.62 15.30 32.59 16.69 32.58 17.39 C 34.03 16.67 35.49 15.96 36.95 15.24 C 36.87 15.93 36.70 17.31 36.62 18.00 C 38.11 17.60 39.60 17.20 41.09 16.82 C 41.06 17.50 41.01 18.88 40.98 19.57 C 43.05 21.09 45.17 22.57 47.30 24.01 C 48.90 19.66 48.22 15.07 47.56 10.63 L 47.48 9.95 M 27.23 26.03 C 23.38 28.00 27.19 34.17 30.57 31.54 C 34.24 29.62 30.59 23.71 27.23 26.03 Z" />
</g>
<g id="#211002ff">
<path fill="#211002" opacity="1.00" d=" M 50.06 12.17 C 55.32 15.31 59.25 20.24 62.99 25.01 C 62.94 30.95 63.10 36.90 62.89 42.84 L 61.81 41.88 C 61.63 40.08 61.42 38.28 61.19 36.48 C 60.34 37.06 59.49 37.65 58.63 38.23 C 58.36 36.54 58.09 34.85 57.83 33.17 C 56.97 33.85 56.12 34.54 55.27 35.22 C 54.86 33.19 54.45 31.15 54.06 29.11 C 53.59 29.27 52.64 29.59 52.17 29.75 C 51.70 27.91 51.41 25.96 50.28 24.39 C 50.95 20.33 50.79 16.20 50.06 12.17 Z" />
</g>
<g id="#544525ff">
<path fill="#544525" opacity="1.00" d=" M 13.33 29.02 C 17.54 24.93 21.33 20.17 26.05 16.58 C 26.43 17.06 27.19 18.01 27.57 18.49 C 22.80 22.83 18.57 27.74 13.74 32.01 C 13.64 31.26 13.43 29.76 13.33 29.02 Z" />
</g>
<g id="#1e1e1fff">
<path fill="#1e1e1f" opacity="1.00" d=" M 27.23 26.03 C 30.59 23.71 34.24 29.62 30.57 31.54 C 27.19 34.17 23.38 28.00 27.23 26.03 M 28.10 27.20 C 28.44 30.29 31.29 25.78 28.10 27.20 Z" />
</g>
<g id="#aaa9a7ff">
<path fill="#aaa9a7" opacity="1.00" d=" M 28.10 27.20 C 31.29 25.78 28.44 30.29 28.10 27.20 Z" />
</g>
<g id="#aaa7a1ff">
<path fill="#aaa7a1" opacity="1.00" d=" M 12.21 31.13 C 12.49 30.60 13.05 29.54 13.33 29.02 C 13.43 29.76 13.64 31.26 13.74 32.01 C 13.06 33.03 12.45 34.08 11.80 35.12 C 11.25 35.61 10.15 36.58 9.60 37.07 C 9.64 37.58 9.72 38.62 9.77 39.13 L 8.99 38.56 C 8.69 38.28 8.10 37.74 7.80 37.47 C 9.20 35.31 11.42 33.64 12.21 31.13 Z" />
</g>
<g id="#797571fe">
<path fill="#797571" opacity="1.00" d=" M 7.24 35.78 C 8.49 34.02 9.87 31.21 12.21 31.13 C 11.42 33.64 9.20 35.31 7.80 37.47 C 8.10 37.74 8.69 38.28 8.99 38.56 C 6.43 38.18 6.57 41.52 8.95 41.39 C 8.53 41.46 7.68 41.60 7.25 41.66 L 6.21 41.49 C 6.30 43.74 6.63 46.28 8.91 47.38 C 11.66 47.85 14.48 47.49 17.25 47.46 C 15.71 50.61 11.71 49.37 8.94 49.40 C 5.04 47.99 4.08 43.66 4.55 39.95 L 4.54 39.51 L 4.95 39.12 C 6.02 38.24 6.81 37.09 7.24 35.78 Z" />
</g>
<g id="#877342ff">
<path fill="#877342" opacity="1.00" d=" M 47.57 36.48 C 48.29 36.03 48.99 35.56 49.66 35.05 C 51.39 36.96 53.21 38.79 55.02 40.63 C 56.22 39.83 57.43 39.03 58.63 38.23 C 59.49 37.65 60.34 37.06 61.19 36.48 C 61.42 38.28 61.63 40.08 61.81 41.88 C 60.33 46.82 60.64 52.10 59.01 56.99 C 56.51 59.92 51.91 58.08 48.52 58.48 C 44.86 51.88 44.11 43.31 47.57 36.48 Z" />
</g>
<g id="#1c191574">
<path fill="#1c1915" opacity="0.45" d=" M 4.95 39.12 C 4.07 37.82 5.69 35.32 7.24 35.78 C 6.81 37.09 6.02 38.24 4.95 39.12 Z" />
</g>
<g id="#fdfdfdff">
<path fill="#fdfdfd" opacity="1.00" d=" M 9.60 37.07 C 10.15 36.58 11.25 35.61 11.80 35.12 C 11.95 38.56 14.69 40.85 16.58 43.43 C 16.16 43.91 15.34 44.87 14.92 45.34 C 13.59 45.37 12.25 45.43 10.92 45.53 C 9.70 44.24 8.49 42.94 7.25 41.66 C 7.68 41.60 8.53 41.46 8.95 41.39 C 9.16 40.83 9.56 39.70 9.77 39.13 C 9.72 38.62 9.64 37.58 9.60 37.07 Z" />
</g>
<g id="#544728ff">
<path fill="#544728" opacity="1.00" d=" M 47.57 36.48 C 44.11 43.31 44.86 51.88 48.52 58.48 C 51.91 58.08 56.51 59.92 59.01 56.99 C 60.64 52.10 60.33 46.82 61.81 41.88 L 62.89 42.84 C 63.13 47.85 62.86 52.87 62.98 57.88 C 60.48 62.65 54.59 62.00 50.03 61.71 C 47.73 61.79 46.03 59.94 45.49 57.85 C 43.99 52.51 43.48 46.97 42.78 41.49 C 40.06 44.57 36.23 46.83 32.00 46.58 C 27.18 46.35 22.28 45.93 17.58 47.33 C 17.87 46.71 18.43 45.46 18.72 44.83 C 24.36 42.55 30.25 45.74 35.92 44.00 C 39.95 41.73 43.32 38.43 47.57 36.48 Z" />
</g>
<g id="#131212ff">
<path fill="#131212" opacity="1.00" d=" M 8.95 41.39 C 6.57 41.52 6.43 38.18 8.99 38.56 L 9.77 39.13 C 9.56 39.70 9.16 40.83 8.95 41.39 Z" />
</g>
<g id="#2d2513ff">
<path fill="#2d2513" opacity="1.00" d=" M 4.04 46.07 C 4.00 44.04 3.69 41.87 4.55 39.95 C 4.08 43.66 5.04 47.99 8.94 49.40 C 11.71 49.37 15.71 50.61 17.25 47.46 L 17.38 47.41 C 17.43 47.39 17.53 47.35 17.58 47.33 C 22.28 45.93 27.18 46.35 32.00 46.58 C 36.23 46.83 40.06 44.57 42.78 41.49 C 43.48 46.97 43.99 52.51 45.49 57.85 C 46.03 59.94 47.73 61.79 50.03 61.71 C 54.59 62.00 60.48 62.65 62.98 57.88 C 63.00 59.58 63.00 61.29 63.00 62.99 C 56.83 62.99 50.66 63.05 44.49 62.95 C 43.32 57.10 41.80 51.33 40.92 45.43 C 36.24 49.66 29.53 48.78 23.92 47.32 C 19.62 48.54 15.63 51.26 10.96 50.91 C 8.07 50.89 4.25 49.42 4.04 46.07 Z" />
</g>
<g id="#cfcecdff">
<path fill="#cfcecd" opacity="1.00" d=" M 6.21 41.49 L 7.25 41.66 C 8.49 42.94 9.70 44.24 10.92 45.53 C 12.25 45.43 13.59 45.37 14.92 45.34 C 15.34 44.87 16.16 43.91 16.58 43.43 C 17.06 44.71 17.19 46.07 17.38 47.41 L 17.25 47.46 C 14.48 47.49 11.66 47.85 8.91 47.38 C 6.63 46.28 6.30 43.74 6.21 41.49 Z" />
</g>
</svg>
