<?xml version="1.0" encoding="UTF-8" ?>
<!DOCTYPE svg PUBLIC "-//W3C//DTD SVG 1.1//EN" "http://www.w3.org/Graphics/SVG/1.1/DTD/svg11.dtd">
<svg width="64pt" height="64pt" viewBox="0 0 64 64" version="1.1" xmlns="http://www.w3.org/2000/svg">
<g id="#ecd4b3ff">
<path fill="#ecd4b3" opacity="1.00" d=" M 22.48 10.72 C 23.33 10.31 24.17 9.90 25.02 9.48 C 31.49 14.45 36.43 21.08 41.95 27.02 C 43.42 28.64 45.29 29.80 47.20 30.83 C 48.76 28.47 48.67 25.59 47.81 22.99 C 47.72 21.32 47.67 19.65 47.61 17.97 C 48.40 16.29 49.43 14.74 50.65 13.33 C 51.85 13.44 53.05 13.55 54.24 13.69 C 55.52 19.07 53.13 24.67 55.18 29.96 C 55.37 31.97 55.54 33.98 55.75 35.98 C 56.16 36.98 56.55 38.00 56.94 39.01 C 57.49 41.13 57.40 43.33 57.41 45.50 L 56.76 45.40 C 56.63 47.03 56.44 48.71 55.52 50.12 C 55.57 50.42 55.67 51.01 55.73 51.31 L 54.39 51.55 C 54.44 51.99 54.55 52.86 54.60 53.29 L 53.39 53.39 L 53.53 54.63 L 52.70 54.35 C 52.37 54.69 51.70 55.35 51.37 55.69 L 51.60 56.50 L 50.38 56.41 L 50.29 57.61 C 49.84 57.55 48.95 57.43 48.50 57.37 L 48.34 58.87 C 47.90 58.71 47.00 58.38 46.56 58.22 C 46.57 58.56 46.60 59.26 46.61 59.60 C 45.76 59.60 44.05 59.59 43.20 59.59 L 43.77 60.45 C 42.90 60.45 41.15 60.43 40.27 60.43 L 40.73 59.64 C 39.25 59.60 37.78 59.56 36.31 59.50 L 36.46 58.16 C 36.01 58.35 35.10 58.73 34.65 58.92 L 34.56 57.89 C 33.31 57.52 32.44 56.73 31.97 55.53 C 31.64 55.59 30.99 55.73 30.66 55.79 L 30.62 54.44 L 29.83 54.53 C 29.47 54.19 28.76 53.51 28.40 53.16 L 28.64 52.36 L 27.38 52.63 L 27.64 51.40 L 26.44 51.60 L 26.64 50.44 L 25.85 50.55 C 24.23 48.30 22.46 46.17 20.74 43.99 C 18.73 41.69 16.65 39.45 14.69 37.10 C 13.61 35.77 12.52 34.44 11.46 33.10 C 11.51 32.16 11.57 31.22 11.62 30.29 C 14.49 30.04 16.70 31.98 18.04 34.34 C 18.59 33.94 19.14 33.54 19.69 33.13 C 17.42 31.19 15.50 28.89 13.56 26.63 C 12.20 25.09 11.18 22.96 11.90 20.88 C 15.76 19.42 18.56 23.34 20.47 26.02 C 20.44 25.28 20.38 23.81 20.35 23.07 C 17.73 20.32 13.39 17.15 14.87 12.84 C 16.49 12.15 18.28 12.48 19.53 13.73 C 25.98 19.27 31.07 26.25 37.83 31.48 C 33.20 24.96 26.65 19.98 22.46 13.13 C 22.47 12.32 22.48 11.52 22.48 10.72 M 21.46 26.88 C 25.28 29.00 27.09 34.37 31.70 34.71 C 31.00 34.25 29.60 33.33 28.90 32.87 C 28.74 32.51 28.41 31.80 28.25 31.44 L 27.43 31.59 L 27.57 30.46 L 26.48 30.51 L 26.59 29.40 L 25.81 29.37 C 24.85 28.10 23.87 26.84 22.98 25.51 C 22.47 25.97 21.96 26.43 21.46 26.88 M 21.64 37.91 C 23.26 38.56 23.59 38.08 22.62 36.47 C 21.30 36.08 20.97 36.56 21.64 37.91 Z" />
</g>
</svg>
