<?xml version="1.0" encoding="UTF-8" ?>
<!DOCTYPE svg PUBLIC "-//W3C//DTD SVG 1.1//EN" "http://www.w3.org/Graphics/SVG/1.1/DTD/svg11.dtd">
<svg width="64pt" height="64pt" viewBox="0 0 64 64" version="1.1" xmlns="http://www.w3.org/2000/svg">
<g id="#ecd6b5ff">
<path fill="#ecd6b5" opacity="1.00" d=" M 32.95 15.46 C 34.62 14.36 36.50 13.62 38.48 13.29 C 39.24 14.08 40.00 14.86 40.77 15.65 C 41.76 20.35 37.12 23.84 32.25 21.97 C 39.68 22.82 47.16 22.55 54.63 22.61 L 54.36 23.26 C 56.09 23.32 57.82 23.44 59.55 23.59 C 59.62 25.25 59.66 26.91 59.66 28.57 C 58.84 28.59 57.19 28.63 56.36 28.66 L 56.70 29.38 C 50.98 29.54 45.26 29.67 39.54 29.73 C 39.89 33.46 38.24 36.96 38.45 40.68 L 37.52 40.29 C 37.45 41.18 37.30 42.97 37.22 43.87 L 36.87 43.09 C 37.38 46.72 34.02 47.37 31.27 46.65 L 31.70 47.41 C 28.87 47.40 26.05 47.42 23.22 47.41 L 23.80 46.63 C 22.31 46.60 20.82 46.56 19.33 46.50 L 19.71 45.50 C 16.67 45.54 13.63 45.62 10.59 45.75 L 16.46 46.98 C 13.73 46.78 11.02 46.44 8.28 46.32 C 8.40 46.11 8.63 45.71 8.75 45.51 C 7.93 45.52 6.29 45.54 5.47 45.56 C 5.46 44.71 5.45 43.01 5.45 42.16 L 4.51 42.84 C 4.36 38.35 4.32 33.85 4.62 29.37 C 4.82 29.46 5.23 29.64 5.44 29.73 C 5.49 28.95 5.61 27.41 5.66 26.64 C 8.89 26.21 12.15 26.31 15.39 26.66 L 15.39 25.83 C 15.76 25.46 16.52 24.73 16.89 24.36 L 17.66 24.60 L 17.61 22.70 L 19.10 26.00 L 18.06 22.11 L 21.10 24.61 L 18.68 21.58 L 20.75 21.50 L 20.60 20.00 C 20.92 20.16 21.55 20.48 21.86 20.63 C 23.32 19.81 24.86 19.15 26.40 18.49 L 26.93 18.45 C 27.57 18.12 28.86 17.44 29.51 17.11 L 29.67 16.26 C 30.12 16.34 31.00 16.51 31.45 16.59 L 31.68 15.27 C 32.00 15.31 32.63 15.41 32.95 15.46 Z" />
</g>
</svg>
