<?xml version="1.0" encoding="UTF-8" ?>
<!DOCTYPE svg PUBLIC "-//W3C//DTD SVG 1.1//EN" "http://www.w3.org/Graphics/SVG/1.1/DTD/svg11.dtd">
<svg width="64pt" height="64pt" viewBox="0 0 64 64" version="1.1" xmlns="http://www.w3.org/2000/svg">
<g id="#ecd6b5ff">
<path fill="#ecd6b5" opacity="1.00" d=" M 25.51 13.30 C 27.17 13.66 28.78 14.20 30.42 14.67 L 30.59 15.60 C 31.03 15.53 31.92 15.39 32.37 15.32 L 32.56 16.58 C 33.00 16.50 33.88 16.34 34.32 16.26 L 34.55 17.59 C 34.99 17.53 35.87 17.40 36.32 17.34 L 36.55 18.58 C 36.83 18.59 37.39 18.60 37.66 18.61 C 38.94 19.11 40.24 19.52 41.58 19.84 L 41.59 20.93 C 42.04 20.69 42.95 20.22 43.40 19.98 L 43.30 21.08 C 44.57 21.52 45.44 22.38 45.89 23.66 L 46.27 23.33 C 46.60 23.69 47.26 24.42 47.58 24.78 L 47.38 25.56 L 48.59 25.38 L 48.62 26.67 C 51.62 26.36 54.63 26.25 57.65 26.41 L 57.40 27.79 L 59.03 27.49 C 58.80 27.99 58.34 29.00 58.11 29.51 L 59.38 29.41 C 59.69 34.12 59.69 38.85 59.38 43.56 C 59.10 43.52 58.52 43.44 58.23 43.40 C 58.36 43.91 58.60 44.93 58.73 45.44 C 55.55 45.67 52.36 45.79 49.17 45.80 L 58.08 47.00 C 55.03 47.05 52.00 46.62 48.97 46.30 L 49.90 45.57 C 48.02 45.54 46.13 45.53 44.25 45.54 L 44.70 46.54 C 43.86 46.53 42.17 46.50 41.32 46.48 C 41.37 46.70 41.47 47.13 41.52 47.35 C 38.09 47.42 34.65 47.41 31.21 47.33 L 31.92 46.58 C 31.03 46.57 29.25 46.54 28.36 46.53 L 28.67 45.17 L 27.33 45.73 C 27.36 44.89 27.40 43.20 27.42 42.36 L 26.34 42.19 C 26.44 41.77 26.63 40.94 26.73 40.52 L 25.53 40.62 C 25.82 36.91 24.02 33.45 24.49 29.73 C 18.48 29.69 12.48 29.54 6.47 29.32 L 6.53 28.35 C 6.02 28.47 4.99 28.71 4.48 28.82 C 4.38 27.09 4.36 25.35 4.41 23.62 C 6.16 23.45 7.91 23.32 9.67 23.28 L 9.36 22.61 C 15.02 22.58 20.68 22.68 26.34 22.43 C 24.00 20.85 22.91 18.42 23.22 15.64 C 23.99 14.87 24.76 14.09 25.51 13.30 Z" />
</g>
</svg>
