<?xml version="1.0" encoding="UTF-8" ?>
<!DOCTYPE svg PUBLIC "-//W3C//DTD SVG 1.1//EN" "http://www.w3.org/Graphics/SVG/1.1/DTD/svg11.dtd">
<svg width="64pt" height="64pt" viewBox="0 0 64 64" version="1.1" xmlns="http://www.w3.org/2000/svg">
<g id="#ae253df6">
<path fill="#ae253d" opacity="0.96" d=" M 23.30 14.32 C 25.54 12.47 29.36 12.50 31.07 14.91 C 24.90 13.41 19.82 18.00 19.03 23.80 C 21.08 26.35 24.85 24.69 27.69 24.71 C 33.49 23.13 39.22 25.31 45.03 24.99 C 45.48 18.90 39.14 13.28 32.93 14.91 C 35.03 11.97 39.51 12.80 41.81 15.20 C 44.42 18.20 47.75 21.11 49.11 24.89 C 49.46 26.59 49.87 28.29 50.02 30.03 C 42.34 27.73 34.49 24.77 26.31 26.37 C 22.10 27.24 18.15 29.00 13.98 30.03 C 14.14 28.29 14.54 26.59 14.88 24.89 C 16.22 20.60 20.06 17.36 23.30 14.32 Z" />
</g>
<g id="#ed4a6bff">
<path fill="#ed4a6b" opacity="1.00" d=" M 19.03 23.80 C 19.82 18.00 24.90 13.41 31.07 14.91 C 31.54 14.91 32.46 14.91 32.93 14.91 C 39.14 13.28 45.48 18.90 45.03 24.99 C 39.22 25.31 33.49 23.13 27.69 24.71 C 24.85 24.69 21.08 26.35 19.03 23.80 Z" />
</g>
<g id="#802234fc">
<path fill="#802234" opacity="1.00" d=" M 10.82 29.98 C 11.76 27.99 12.99 26.09 14.88 24.89 C 14.54 26.59 14.14 28.29 13.98 30.03 C 18.15 29.00 22.10 27.24 26.31 26.37 C 34.49 24.77 42.34 27.73 50.02 30.03 C 49.87 28.29 49.46 26.59 49.11 24.89 C 51.01 26.08 52.24 27.99 53.18 29.98 C 53.07 31.66 52.98 33.48 50.81 33.39 C 49.33 33.14 46.38 32.65 44.90 32.40 C 45.14 32.11 45.63 31.52 45.87 31.22 C 42.76 29.82 39.61 28.40 36.24 27.77 C 33.43 27.15 30.46 26.55 27.72 27.64 C 25.31 28.31 22.96 29.20 20.62 30.08 C 18.76 30.53 14.86 32.22 19.16 32.26 C 17.66 32.54 14.68 33.10 13.18 33.39 C 11.01 33.48 10.93 31.65 10.82 29.98 Z" />
</g>
<g id="#7f5f65ff">
<path fill="#7f5f65" opacity="1.00" d=" M 27.72 27.64 C 30.46 26.55 33.43 27.15 36.24 27.77 C 33.40 27.74 30.56 27.70 27.72 27.64 Z" />
</g>
<g id="#b7b8b8ff">
<path fill="#b7b8b8" opacity="1.00" d=" M 20.62 30.08 C 22.96 29.20 25.31 28.31 27.72 27.64 C 30.56 27.70 33.40 27.74 36.24 27.77 C 39.61 28.40 42.76 29.82 45.87 31.22 C 45.63 31.52 45.14 32.11 44.90 32.40 C 43.67 32.20 42.44 32.00 41.22 31.81 C 40.74 31.54 39.77 30.99 39.29 30.72 C 35.39 27.80 28.73 27.81 24.75 30.90 C 23.33 30.95 21.91 30.69 20.62 30.08 Z" />
</g>
<g id="#f3f3f3ff">
<path fill="#f3f3f3" opacity="1.00" d=" M 24.75 30.90 C 28.73 27.81 35.39 27.80 39.29 30.72 C 34.45 30.86 29.60 31.08 24.75 30.90 Z" />
</g>
<g id="#61101fff">
<path fill="#61101f" opacity="1.00" d=" M 6.68 33.56 C 8.04 32.34 9.34 31.05 10.82 29.98 C 10.93 31.65 11.01 33.48 13.18 33.39 C 11.75 34.07 10.32 34.76 8.85 35.35 C 8.04 34.85 7.32 34.26 6.68 33.56 Z" />
<path fill="#61101f" opacity="1.00" d=" M 53.18 29.98 C 54.66 31.05 55.96 32.34 57.32 33.56 C 56.68 34.26 55.96 34.85 55.15 35.35 C 53.68 34.76 52.24 34.07 50.81 33.39 C 52.98 33.48 53.07 31.66 53.18 29.98 Z" />
</g>
<g id="#8a8889ff">
<path fill="#8a8889" opacity="1.00" d=" M 19.16 32.26 C 14.86 32.22 18.76 30.53 20.62 30.08 C 21.91 30.69 23.33 30.95 24.75 30.90 C 29.60 31.08 34.45 30.86 39.29 30.72 C 39.77 30.99 40.74 31.54 41.22 31.81 C 33.86 31.96 26.51 31.97 19.16 32.26 Z" />
</g>
<g id="#070304ff">
<path fill="#070304" opacity="1.00" d=" M 19.16 32.26 C 26.51 31.97 33.86 31.96 41.22 31.81 C 42.44 32.00 43.67 32.20 44.90 32.40 C 46.38 32.65 49.33 33.14 50.81 33.39 C 52.24 34.07 53.68 34.76 55.15 35.35 C 54.40 35.84 53.65 36.31 52.88 36.77 C 51.18 36.96 49.48 37.13 47.77 37.28 C 45.92 37.07 44.07 36.91 42.22 36.73 C 35.46 35.69 28.53 35.69 21.77 36.74 C 19.92 36.92 18.07 37.07 16.23 37.28 C 14.52 37.13 12.82 36.96 11.12 36.77 C 10.35 36.31 9.60 35.84 8.85 35.35 C 10.32 34.76 11.75 34.07 13.18 33.39 C 14.68 33.10 17.66 32.54 19.16 32.26 Z" />
</g>
<g id="#3b0e17ee">
<path fill="#3b0e17" opacity="0.93" d=" M 3.91 36.99 C 3.77 35.62 5.49 32.79 6.68 33.56 C 7.32 34.26 8.04 34.85 8.85 35.35 C 9.60 35.84 10.35 36.31 11.12 36.77 C 9.54 37.00 7.97 37.30 6.52 37.98 C 5.64 37.66 4.78 37.33 3.91 36.99 Z" />
<path fill="#3b0e17" opacity="0.93" d=" M 57.32 33.56 C 58.52 32.79 60.22 35.63 60.10 37.00 C 59.23 37.33 58.35 37.64 57.47 37.94 C 56.01 37.32 54.45 37.00 52.88 36.77 C 53.65 36.31 54.40 35.84 55.15 35.35 C 55.96 34.85 56.68 34.26 57.32 33.56 Z" />
</g>
<g id="#974559ff">
<path fill="#974559" opacity="1.00" d=" M 21.77 36.74 C 28.53 35.69 35.46 35.69 42.22 36.73 C 41.36 36.86 39.63 37.11 38.77 37.24 C 34.58 37.10 30.39 37.04 26.21 37.14 C 24.73 37.01 23.25 36.88 21.77 36.74 Z" />
</g>
<g id="#04010223">
<path fill="#040102" opacity="0.14" d=" M 3.91 36.99 C 4.78 37.33 5.64 37.66 6.52 37.98 C 14.51 42.92 21.81 51.32 32.00 51.00 C 42.32 51.32 49.43 43.07 57.47 37.94 C 58.35 37.64 59.23 37.33 60.10 37.00 C 60.01 37.67 59.84 39.00 59.75 39.66 C 50.29 43.94 43.27 54.45 32.00 54.00 C 20.59 54.48 13.85 43.80 4.21 39.69 C 4.14 39.02 3.99 37.67 3.91 36.99 Z" />
</g>
<g id="#822938f0">
<path fill="#822938" opacity="0.94" d=" M 6.52 37.98 C 7.97 37.30 9.54 37.00 11.12 36.77 C 12.82 36.96 14.52 37.13 16.23 37.28 C 14.77 38.05 11.16 37.28 12.19 39.83 C 19.43 47.36 31.27 52.39 41.29 47.28 C 44.69 44.56 50.91 43.07 51.98 38.28 C 50.58 37.93 49.17 37.64 47.77 37.28 C 49.48 37.13 51.18 36.96 52.88 36.77 C 54.45 37.00 56.01 37.32 57.47 37.94 C 49.43 43.07 42.32 51.32 32.00 51.00 C 21.81 51.32 14.51 42.92 6.52 37.98 Z" />
</g>
<g id="#cd4c65ff">
<path fill="#cd4c65" opacity="1.00" d=" M 16.23 37.28 C 18.07 37.07 19.92 36.92 21.77 36.74 C 23.25 36.88 24.73 37.01 26.21 37.14 C 23.14 37.75 20.07 38.35 17.07 39.23 C 16.59 42.04 20.23 42.78 21.98 44.02 C 28.09 47.72 35.91 47.71 42.02 44.03 C 43.82 42.79 47.41 42.01 46.96 39.17 C 44.29 38.28 41.49 37.91 38.77 37.24 C 39.63 37.11 41.36 36.86 42.22 36.73 C 44.07 36.91 45.92 37.07 47.77 37.28 C 49.17 37.64 50.58 37.93 51.98 38.28 C 50.91 43.07 44.69 44.56 41.29 47.28 C 31.27 52.39 19.43 47.36 12.19 39.83 C 11.16 37.28 14.77 38.05 16.23 37.28 Z" />
</g>
<g id="#f3708fff">
<path fill="#f3708f" opacity="1.00" d=" M 26.21 37.14 C 30.39 37.04 34.58 37.10 38.77 37.24 C 41.49 37.91 44.29 38.28 46.96 39.17 C 47.41 42.01 43.82 42.79 42.02 44.03 C 35.91 47.71 28.09 47.72 21.98 44.02 C 20.23 42.78 16.59 42.04 17.07 39.23 C 20.07 38.35 23.14 37.75 26.21 37.14 Z" />
</g>
</svg>
