<?xml version="1.0" encoding="UTF-8" ?>
<!DOCTYPE svg PUBLIC "-//W3C//DTD SVG 1.1//EN" "http://www.w3.org/Graphics/SVG/1.1/DTD/svg11.dtd">
<svg width="64pt" height="64pt" viewBox="0 0 64 64" version="1.1" xmlns="http://www.w3.org/2000/svg">
<g id="#edd5b4ff">
<path fill="#edd5b4" opacity="1.00" d=" M 6.99 2.96 C 7.80 2.26 8.62 1.55 9.43 0.85 C 9.51 1.39 9.69 2.47 9.77 3.01 C 10.34 4.13 10.71 5.33 10.87 6.59 L 11.26 6.50 C 11.66 7.94 12.28 9.30 12.96 10.63 C 11.00 8.99 8.91 7.51 6.93 5.89 C 6.39 5.66 5.30 5.20 4.75 4.97 C 5.50 4.30 6.25 3.63 6.99 2.96 Z" />
<path fill="#edd5b4" opacity="1.00" d=" M 16.62 2.17 C 18.32 2.71 20.01 3.26 21.73 3.76 C 20.97 4.41 20.21 5.07 19.46 5.73 L 19.71 6.30 L 18.68 6.68 L 18.45 7.67 L 17.18 7.89 C 17.80 10.79 20.71 14.06 23.88 13.56 C 23.57 12.97 22.94 11.81 22.62 11.22 C 22.99 10.76 23.71 9.83 24.07 9.37 C 29.39 9.59 30.85 16.26 35.87 16.91 C 38.15 17.27 39.08 19.55 39.88 21.43 L 40.33 21.27 L 41.33 25.45 C 41.37 22.58 41.21 19.70 41.56 16.85 C 42.38 16.39 43.19 15.93 44.00 15.46 C 46.91 17.42 48.21 20.85 50.86 23.06 C 52.52 24.49 54.29 25.91 55.12 28.01 C 55.90 32.49 58.14 36.69 57.63 41.36 C 59.78 43.10 62.99 44.74 62.78 47.97 C 62.93 50.37 61.26 52.24 59.92 54.02 C 57.60 57.03 54.72 59.53 51.89 62.04 C 50.62 62.30 49.34 62.46 48.05 62.55 C 46.47 60.45 43.60 61.79 41.41 61.57 L 41.66 60.69 C 40.38 60.66 39.54 60.07 39.14 58.93 C 38.62 58.54 37.58 57.76 37.06 57.36 C 35.17 57.33 33.27 57.36 31.37 57.41 L 31.61 56.80 C 28.58 56.82 26.09 55.06 23.82 53.27 C 23.48 53.04 22.79 52.57 22.45 52.33 L 22.30 51.93 C 20.06 50.14 17.99 48.12 16.19 45.88 C 14.35 43.40 12.19 41.19 10.10 38.94 C 9.46 38.27 8.82 37.61 8.18 36.95 C 7.94 36.58 7.44 35.85 7.20 35.48 L 6.49 35.51 L 6.39 34.85 C 5.37 33.60 4.41 32.32 3.46 31.02 C 3.80 30.53 4.50 29.56 4.84 29.07 C 9.98 30.58 13.05 35.52 16.64 39.17 C 16.58 37.95 16.51 36.74 16.44 35.52 C 15.96 35.53 14.99 35.54 14.51 35.55 C 14.49 35.13 14.44 34.29 14.42 33.88 C 13.35 33.59 12.59 32.95 12.13 31.96 C 8.90 28.73 3.48 25.73 4.40 20.42 C 5.84 20.58 7.59 20.07 8.77 21.15 C 10.73 22.41 11.80 25.12 14.54 24.90 C 13.92 24.18 12.66 22.72 12.04 21.99 C 10.39 20.53 8.83 18.97 7.62 17.12 C 7.21 16.42 6.81 15.71 6.41 14.99 C 6.94 14.30 7.47 13.60 7.99 12.91 C 8.38 12.81 9.15 12.61 9.54 12.51 C 12.13 14.08 14.76 15.88 16.09 18.75 C 15.64 16.17 15.02 13.63 14.66 11.03 C 17.98 9.16 16.58 5.27 16.62 2.17 M 23.27 15.18 C 23.71 15.87 24.25 16.49 24.89 17.03 C 28.83 20.53 32.19 24.64 36.28 27.97 C 33.56 24.04 29.71 21.12 26.69 17.44 C 25.72 16.51 24.88 14.84 23.27 15.18 Z" />
<path fill="#edd5b4" opacity="1.00" d=" M 40.85 6.89 C 42.49 6.43 44.09 5.86 45.65 5.19 C 45.51 7.82 45.42 10.46 45.34 13.10 C 44.93 12.35 44.13 10.86 43.72 10.12 C 42.76 9.04 41.82 7.96 40.85 6.89 Z" />
<path fill="#edd5b4" opacity="1.00" d=" M 52.86 4.94 C 53.88 5.77 54.91 6.60 55.93 7.43 L 56.74 7.45 C 56.71 7.90 56.67 8.80 56.64 9.26 C 55.59 9.77 54.55 10.29 53.52 10.84 L 53.51 11.21 C 52.03 12.21 50.61 13.30 49.25 14.45 C 49.95 13.03 50.65 11.60 51.28 10.14 C 51.78 8.40 52.32 6.67 52.86 4.94 Z" />
<path fill="#edd5b4" opacity="1.00" d=" M 1.70 8.05 C 2.64 8.58 3.56 9.13 4.49 9.67 L 4.51 10.28 C 5.55 10.68 6.58 11.10 7.61 11.53 C 5.89 11.61 4.17 11.67 2.44 11.70 L 1.85 13.60 C 1.34 11.77 1.50 9.90 1.70 8.05 Z" />
<path fill="#edd5b4" opacity="1.00" d=" M 55.78 16.73 C 56.46 16.25 57.14 15.77 57.81 15.28 C 57.71 16.38 57.61 17.47 57.52 18.57 L 58.44 18.73 C 58.34 19.29 58.14 20.40 58.04 20.95 C 57.91 20.62 57.65 19.94 57.52 19.60 C 55.54 19.43 53.57 19.20 51.59 18.95 C 52.00 18.80 52.82 18.49 53.22 18.34 C 54.07 17.80 54.92 17.26 55.78 16.73 Z" />
</g>
</svg>
