<?xml version="1.0" encoding="UTF-8" ?>
<!DOCTYPE svg PUBLIC "-//W3C//DTD SVG 1.1//EN" "http://www.w3.org/Graphics/SVG/1.1/DTD/svg11.dtd">
<svg width="64pt" height="64pt" viewBox="0 0 64 64" version="1.1" xmlns="http://www.w3.org/2000/svg">
<g id="#ad8767ff">
<path fill="#ad8767" opacity="1.00" d=" M 28.76 4.48 C 31.66 4.12 35.14 3.28 37.51 5.56 C 41.25 9.12 41.17 15.05 39.98 19.70 C 39.42 20.95 38.88 22.21 38.36 23.47 C 37.98 22.03 37.59 20.60 37.19 19.18 C 39.59 15.14 38.50 10.32 36.20 6.51 C 34.33 6.49 32.45 6.46 30.58 6.43 C 29.42 10.96 29.85 15.68 29.16 20.27 C 27.20 25.37 23.67 29.90 19.49 33.40 C 16.16 36.40 11.06 31.59 8.00 35.05 C 5.70 37.78 6.56 41.71 6.31 45.00 C 6.47 48.97 5.42 54.99 10.54 56.18 C 14.43 56.68 18.35 54.92 22.17 56.21 L 20.75 57.53 C 20.52 57.74 20.05 58.16 19.81 58.37 C 15.50 59.11 11.10 58.82 6.76 58.54 C 5.91 56.83 5.05 55.12 4.33 53.36 C 4.14 47.08 3.22 40.38 5.63 34.41 C 8.28 30.27 14.03 31.80 17.89 33.12 C 21.97 29.31 25.12 24.61 27.57 19.63 C 27.84 14.57 27.35 9.43 28.76 4.48 Z" />
</g>
<g id="#eed2b2ff">
<path fill="#eed2b2" opacity="1.00" d=" M 30.58 6.43 C 32.45 6.46 34.33 6.49 36.20 6.51 C 38.50 10.32 39.59 15.14 37.19 19.18 C 36.78 19.76 35.96 20.92 35.55 21.50 C 35.42 24.48 35.75 27.64 34.41 30.41 C 32.77 33.97 30.28 37.16 29.36 41.03 C 28.30 45.46 28.47 50.05 28.42 54.57 C 26.27 54.51 24.08 54.71 21.96 54.25 C 20.03 53.28 18.57 51.64 17.01 50.19 C 16.45 51.66 15.95 53.16 15.25 54.56 C 13.78 55.36 12.13 55.74 10.54 56.18 C 5.42 54.99 6.47 48.97 6.31 45.00 C 6.56 41.71 5.70 37.78 8.00 35.05 C 11.06 31.59 16.16 36.40 19.49 33.40 C 23.67 29.90 27.20 25.37 29.16 20.27 C 29.85 15.68 29.42 10.96 30.58 6.43 Z" />
</g>
<g id="#ce9a73ff">
<path fill="#ce9a73" opacity="1.00" d=" M 35.55 21.50 C 35.96 20.92 36.78 19.76 37.19 19.18 C 37.59 20.60 37.98 22.03 38.36 23.47 C 38.33 24.91 38.28 26.35 38.21 27.79 C 38.10 28.30 37.89 29.33 37.78 29.84 C 42.79 28.86 47.90 28.73 52.97 29.31 C 53.97 31.53 56.65 34.03 54.42 36.38 C 49.21 38.47 43.41 36.77 37.99 37.82 C 36.62 37.99 35.27 38.28 33.91 38.54 C 34.22 40.54 34.50 42.55 34.80 44.55 C 34.88 44.98 35.04 45.84 35.11 46.27 C 35.59 48.02 36.17 49.75 36.75 51.47 L 36.22 51.41 L 35.17 51.12 C 35.38 53.03 35.59 54.94 35.79 56.85 C 31.25 57.81 26.61 57.58 22.17 56.21 C 18.35 54.92 14.43 56.68 10.54 56.18 C 12.13 55.74 13.78 55.36 15.25 54.56 C 15.95 53.16 16.45 51.66 17.01 50.19 C 18.57 51.64 20.03 53.28 21.96 54.25 C 24.08 54.71 26.27 54.51 28.42 54.57 C 28.47 50.05 28.30 45.46 29.36 41.03 C 30.28 37.16 32.77 33.97 34.41 30.41 C 35.75 27.64 35.42 24.48 35.55 21.50 M 37.29 31.41 C 37.33 32.41 37.40 34.41 37.44 35.41 C 42.99 36.41 49.54 38.01 54.35 34.07 C 49.99 29.27 42.94 31.89 37.29 31.41 Z" />
</g>
<g id="#40281790">
<path fill="#402817" opacity="0.56" d=" M 38.36 23.47 C 38.88 22.21 39.42 20.95 39.98 19.70 C 39.62 22.44 39.25 25.21 38.21 27.79 C 38.28 26.35 38.33 24.91 38.36 23.47 Z" />
</g>
<g id="#a47555ff">
<path fill="#a47555" opacity="1.00" d=" M 52.97 29.31 C 54.40 30.04 56.26 30.43 57.01 32.03 C 57.97 33.79 56.93 35.74 56.36 37.43 C 56.76 37.78 57.57 38.48 57.97 38.83 C 57.90 40.63 57.82 42.44 57.71 44.24 C 57.18 44.40 56.11 44.71 55.57 44.86 C 55.84 45.30 56.37 46.17 56.63 46.61 C 56.31 46.89 55.67 47.44 55.36 47.71 C 48.64 46.85 41.86 46.71 35.11 46.27 C 35.04 45.84 34.88 44.98 34.80 44.55 C 40.97 45.46 47.17 44.62 53.35 44.45 C 54.21 42.79 55.13 41.17 56.09 39.57 C 50.04 39.13 43.99 38.75 37.99 37.82 C 43.41 36.77 49.21 38.47 54.42 36.38 C 56.65 34.03 53.97 31.53 52.97 29.31 Z" />
</g>
<g id="#ead2b2ff">
<path fill="#ead2b2" opacity="1.00" d=" M 37.29 31.41 C 42.94 31.89 49.99 29.27 54.35 34.07 C 49.54 38.01 42.99 36.41 37.44 35.41 C 37.40 34.41 37.33 32.41 37.29 31.41 Z" />
</g>
<g id="#edd3b4ff">
<path fill="#edd3b4" opacity="1.00" d=" M 33.91 38.54 C 35.27 38.28 36.62 37.99 37.99 37.82 C 43.99 38.75 50.04 39.13 56.09 39.57 C 55.13 41.17 54.21 42.79 53.35 44.45 C 47.17 44.62 40.97 45.46 34.80 44.55 C 34.50 42.55 34.22 40.54 33.91 38.54 Z" />
</g>
<g id="#eecdaeff">
<path fill="#eecdae" opacity="1.00" d=" M 35.11 46.27 C 41.86 46.71 48.64 46.85 55.36 47.71 C 50.73 53.16 43.03 51.41 36.75 51.47 C 36.17 49.75 35.59 48.02 35.11 46.27 Z" />
</g>
<g id="#b57245ff">
<path fill="#b57245" opacity="1.00" d=" M 55.36 47.71 C 55.67 47.44 56.31 46.89 56.63 46.61 C 56.66 48.67 56.35 50.71 54.74 52.15 L 54.76 52.25 C 54.93 53.00 55.28 54.50 55.45 55.25 C 53.16 60.34 46.73 58.56 42.30 59.45 C 41.74 58.93 40.61 57.88 40.05 57.36 C 44.75 57.33 49.57 56.96 53.83 54.79 C 48.48 53.98 43.06 53.81 37.66 53.69 C 37.30 53.12 36.58 51.98 36.22 51.41 L 36.75 51.47 C 43.03 51.41 50.73 53.16 55.36 47.71 Z" />
</g>
<g id="#975f39ff">
<path fill="#975f39" opacity="1.00" d=" M 35.17 51.12 L 36.22 51.41 C 36.58 51.98 37.30 53.12 37.66 53.69 C 38.42 54.93 39.19 56.18 40.05 57.36 C 40.61 57.88 41.74 58.93 42.30 59.45 C 35.08 60.33 27.62 60.19 20.75 57.53 L 22.17 56.21 C 26.61 57.58 31.25 57.81 35.79 56.85 C 35.59 54.94 35.38 53.03 35.17 51.12 Z" />
</g>
<g id="#00000037">
<path fill="#000000" opacity="0.22" d=" M 54.76 52.25 L 56.50 52.55 C 55.86 55.13 55.77 57.99 54.31 60.28 C 51.98 62.14 48.80 62.18 45.96 62.40 C 38.97 62.55 31.87 63.37 24.97 61.85 C 19.64 60.57 14.24 63.74 8.94 61.93 C 5.22 61.10 3.83 56.74 4.33 53.36 C 5.05 55.12 5.91 56.83 6.76 58.54 C 11.10 58.82 15.50 59.11 19.81 58.37 C 20.05 58.16 20.52 57.74 20.75 57.53 C 27.62 60.19 35.08 60.33 42.30 59.45 C 46.73 58.56 53.16 60.34 55.45 55.25 C 55.28 54.50 54.93 53.00 54.76 52.25 Z" />
</g>
<g id="#e5c3a5ff">
<path fill="#e5c3a5" opacity="1.00" d=" M 37.66 53.69 C 43.06 53.81 48.48 53.98 53.83 54.79 C 49.57 56.96 44.75 57.33 40.05 57.36 C 39.19 56.18 38.42 54.93 37.66 53.69 Z" />
</g>
</svg>
