<?xml version="1.0" encoding="UTF-8" ?>
<!DOCTYPE svg PUBLIC "-//W3C//DTD SVG 1.1//EN" "http://www.w3.org/Graphics/SVG/1.1/DTD/svg11.dtd">
<svg width="64pt" height="64pt" viewBox="0 0 64 64" version="1.1" xmlns="http://www.w3.org/2000/svg">
<g id="#030303ff">
<path fill="#030303" opacity="1.00" d=" M 3.09 9.47 C 10.50 18.00 21.57 23.29 32.94 22.83 C 43.76 22.90 53.99 17.63 61.22 9.77 C 60.52 14.06 58.11 17.75 55.27 20.94 C 55.54 23.12 55.80 25.31 55.99 27.50 C 55.49 26.03 54.92 24.58 54.36 23.13 C 46.77 23.62 39.50 26.09 32.00 27.18 C 28.95 26.50 25.88 25.89 22.78 25.45 C 18.79 24.87 14.81 24.28 10.87 23.41 C 10.10 25.09 9.32 26.76 8.54 28.43 C 8.43 25.73 9.19 22.91 8.45 20.25 C 5.95 17.05 3.83 13.52 3.09 9.47 Z" />
</g>
<g id="#b76b7eff">
<path fill="#b76b7e" opacity="1.00" d=" M 8.45 20.25 C 9.19 22.91 8.43 25.73 8.54 28.43 C 9.32 26.76 10.10 25.09 10.87 23.41 C 14.81 24.28 18.79 24.87 22.78 25.45 C 21.24 25.82 19.65 26.01 18.08 26.25 C 22.98 26.67 27.96 27.59 32.04 30.53 C 37.28 26.67 43.96 26.67 50.12 25.75 C 52.66 25.28 54.19 28.01 55.10 29.94 C 57.36 35.78 56.59 42.20 56.11 48.28 C 55.00 51.60 52.90 54.71 49.79 56.44 L 50.85 54.60 C 51.33 53.85 51.82 53.11 52.30 52.36 C 55.02 48.13 55.07 42.85 55.23 38.00 C 55.11 34.72 54.15 29.79 50.06 29.59 C 46.15 29.28 42.02 28.87 38.21 30.02 C 33.38 33.31 34.33 39.95 34.89 44.96 C 35.71 49.30 35.45 53.72 34.21 57.94 C 39.24 59.26 44.40 58.34 49.28 56.87 C 43.91 60.34 37.27 60.73 31.05 60.69 C 25.46 60.64 19.61 59.97 14.79 56.90 C 19.67 58.37 24.84 59.30 29.87 57.96 C 27.22 50.18 31.05 42.03 29.06 34.17 C 28.15 31.92 26.38 29.40 23.67 29.44 C 19.84 29.25 15.89 29.04 12.13 29.95 C 9.16 31.78 8.82 35.83 8.77 38.99 C 8.83 43.58 9.43 48.28 11.63 52.37 C 11.74 52.59 11.94 53.02 12.05 53.23 C 12.38 53.89 13.06 55.22 13.40 55.89 C 9.54 53.25 7.47 48.61 7.25 44.04 C 6.56 36.07 8.45 28.20 8.45 20.25 Z" />
</g>
<g id="#7c3748f3">
<path fill="#7c3748" opacity="0.95" d=" M 32.00 27.18 C 39.50 26.09 46.77 23.62 54.36 23.13 C 54.92 24.58 55.49 26.03 55.99 27.50 C 57.02 34.33 57.62 41.49 56.11 48.28 C 56.59 42.20 57.36 35.78 55.10 29.94 C 54.19 28.01 52.66 25.28 50.12 25.75 C 43.96 26.67 37.28 26.67 32.04 30.53 C 27.96 27.59 22.98 26.67 18.08 26.25 C 19.65 26.01 21.24 25.82 22.78 25.45 C 25.88 25.89 28.95 26.50 32.00 27.18 Z" />
</g>
<g id="#e296a9ff">
<path fill="#e296a9" opacity="1.00" d=" M 12.13 29.95 C 15.89 29.04 19.84 29.25 23.67 29.44 C 26.38 29.40 28.15 31.92 29.06 34.17 C 31.05 42.03 27.22 50.18 29.87 57.96 C 24.84 59.30 19.67 58.37 14.79 56.90 C 14.25 56.66 13.78 56.32 13.40 55.89 C 13.06 55.22 12.38 53.89 12.05 53.23 C 16.27 55.96 21.32 58.61 26.42 56.56 C 24.83 54.56 23.22 52.58 21.60 50.61 C 24.96 46.61 26.52 41.28 25.97 36.10 C 25.59 33.32 22.29 32.97 20.06 32.87 C 16.95 32.93 13.33 32.80 10.84 34.97 C 10.07 40.76 11.36 46.58 11.63 52.37 C 9.43 48.28 8.83 43.58 8.77 38.99 C 8.82 35.83 9.16 31.78 12.13 29.95 Z" />
</g>
<g id="#e497abff">
<path fill="#e497ab" opacity="1.00" d=" M 38.21 30.02 C 42.02 28.87 46.15 29.28 50.06 29.59 C 54.15 29.79 55.11 34.72 55.23 38.00 C 55.07 42.85 55.02 48.13 52.30 52.36 C 52.59 46.26 53.56 40.19 53.10 34.08 C 48.38 33.51 43.61 33.52 38.89 34.07 C 38.39 38.21 38.88 42.39 40.47 46.26 C 42.35 46.75 44.22 47.25 46.09 47.76 C 43.78 50.95 40.67 53.43 38.07 56.37 C 42.37 58.46 46.82 56.20 50.85 54.60 L 49.79 56.44 C 49.66 56.55 49.41 56.76 49.28 56.87 C 44.40 58.34 39.24 59.26 34.21 57.94 C 35.45 53.72 35.71 49.30 34.89 44.96 C 34.33 39.95 33.38 33.31 38.21 30.02 Z" />
</g>
<g id="#f3aabdff">
<path fill="#f3aabd" opacity="1.00" d=" M 10.84 34.97 C 13.33 32.80 16.95 32.93 20.06 32.87 C 22.29 32.97 25.59 33.32 25.97 36.10 C 26.52 41.28 24.96 46.61 21.60 50.61 C 23.22 52.58 24.83 54.56 26.42 56.56 C 21.32 58.61 16.27 55.96 12.05 53.23 C 11.94 53.02 11.74 52.59 11.63 52.37 C 11.36 46.58 10.07 40.76 10.84 34.97 Z" />
</g>
<g id="#f4a9bcff">
<path fill="#f4a9bc" opacity="1.00" d=" M 38.89 34.07 C 43.61 33.52 48.38 33.51 53.10 34.08 C 53.56 40.19 52.59 46.26 52.30 52.36 C 51.82 53.11 51.33 53.85 50.85 54.60 C 46.82 56.20 42.37 58.46 38.07 56.37 C 40.67 53.43 43.78 50.95 46.09 47.76 C 44.22 47.25 42.35 46.75 40.47 46.26 C 38.88 42.39 38.39 38.21 38.89 34.07 Z" />
</g>
</svg>
