<?xml version="1.0" encoding="UTF-8" ?>
<!DOCTYPE svg PUBLIC "-//W3C//DTD SVG 1.1//EN" "http://www.w3.org/Graphics/SVG/1.1/DTD/svg11.dtd">
<svg width="64pt" height="64pt" viewBox="0 0 64 64" version="1.1" xmlns="http://www.w3.org/2000/svg">
<g id="#ecd6b5ff">
<path fill="#ecd6b5" opacity="1.00" d=" M 20.06 5.24 C 24.73 3.63 29.79 4.65 34.62 4.58 C 34.54 4.80 34.37 5.25 34.28 5.48 C 35.05 5.52 36.58 5.62 37.35 5.67 C 37.83 8.90 37.67 12.16 37.36 15.40 L 38.21 15.40 C 38.54 15.76 39.21 16.49 39.55 16.86 L 39.41 17.67 L 40.57 17.42 L 40.38 18.85 L 41.77 18.20 L 41.23 19.69 L 42.84 19.23 L 42.32 20.72 L 43.92 20.58 C 43.73 21.07 43.36 22.03 43.17 22.51 L 44.27 22.42 C 44.48 24.06 44.90 25.67 45.72 27.12 C 46.01 27.71 46.57 28.89 46.85 29.48 L 47.74 29.66 C 47.66 30.10 47.50 30.98 47.42 31.42 L 48.71 31.66 C 48.63 32.10 48.48 32.97 48.40 33.40 L 49.36 33.62 C 49.96 35.69 51.00 37.88 50.10 40.03 C 47.88 40.77 43.67 41.76 43.13 38.52 C 42.71 38.41 41.87 38.20 41.45 38.09 C 41.45 43.94 41.42 49.79 41.34 55.65 L 40.66 55.27 C 40.62 56.70 40.52 58.12 40.43 59.55 C 38.75 59.63 37.05 59.63 35.37 59.64 C 35.37 58.82 35.39 57.19 35.40 56.38 C 35.19 56.44 34.78 56.55 34.57 56.61 C 34.54 50.91 34.28 45.21 34.27 39.51 C 32.16 39.49 29.87 39.91 28.04 38.61 C 26.47 38.58 24.91 38.55 23.35 38.54 L 23.48 37.24 C 23.05 37.36 22.18 37.59 21.74 37.71 L 21.64 36.67 C 20.32 36.59 19.00 36.49 17.69 36.37 C 17.56 34.64 17.36 32.90 17.32 31.16 L 16.60 31.82 C 16.62 28.99 16.61 26.17 16.60 23.34 L 17.38 23.73 C 17.42 22.28 17.46 20.82 17.51 19.37 L 18.43 19.73 C 18.47 18.45 18.50 17.17 18.51 15.89 C 16.96 13.57 17.76 10.66 17.67 8.06 L 19.64 8.98 C 17.94 8.03 17.89 5.44 20.06 5.24 Z" />
</g>
</svg>
