<?xml version="1.0" encoding="UTF-8" ?>
<!DOCTYPE svg PUBLIC "-//W3C//DTD SVG 1.1//EN" "http://www.w3.org/Graphics/SVG/1.1/DTD/svg11.dtd">
<svg width="64pt" height="64pt" viewBox="0 0 64 64" version="1.1" xmlns="http://www.w3.org/2000/svg">
<g id="#878580f8">
<path fill="#878580" opacity="0.97" d=" M 6.93 15.89 C 10.16 12.75 15.49 11.95 19.41 14.24 C 16.53 15.19 13.14 13.82 10.52 15.61 C 5.95 18.42 2.86 23.66 2.54 29.00 C 1.64 30.54 0.80 32.10 0.00 33.69 L 0.00 30.32 C 1.05 25.06 2.74 19.53 6.93 15.89 Z" />
<path fill="#878580" opacity="0.97" d=" M 45.52 13.71 C 49.11 12.30 53.50 12.82 56.46 15.38 C 61.89 19.82 64.04 27.17 63.89 33.98 C 63.91 40.49 61.72 47.40 56.59 51.68 C 53.46 54.59 48.54 54.55 44.75 53.15 C 37.23 48.73 34.54 39.12 35.37 30.88 C 35.99 24.15 39.00 16.67 45.52 13.71 M 37.75 29.01 C 34.26 32.99 35.23 39.78 39.93 42.39 C 39.56 40.64 39.11 38.88 38.16 37.35 C 38.44 37.31 39.01 37.21 39.30 37.17 C 39.16 38.85 39.83 40.58 41.76 40.65 C 44.30 41.98 47.06 41.65 49.50 40.27 C 49.52 39.59 49.58 38.25 49.61 37.57 C 50.13 37.49 51.19 37.33 51.71 37.25 C 51.64 37.73 51.49 38.70 51.41 39.18 C 50.01 40.40 48.13 41.56 48.26 43.69 C 45.26 45.17 41.83 44.14 38.85 43.13 C 40.33 45.58 41.87 48.07 44.19 49.81 C 46.44 52.07 49.96 51.60 52.82 51.19 C 59.16 47.96 61.60 40.54 62.11 33.89 C 61.97 26.34 59.22 17.09 51.12 14.61 C 43.51 13.96 38.03 22.33 37.75 29.01 Z" />
<path fill="#878580" opacity="0.97" d=" M 19.80 14.89 C 24.08 16.49 26.11 21.12 27.51 25.15 C 30.12 34.05 28.82 45.06 21.60 51.51 C 18.68 54.42 14.13 54.34 10.38 53.51 C 4.78 51.01 1.79 45.00 0.51 39.29 C 2.72 39.50 3.94 42.73 6.37 43.21 C 5.60 42.11 4.79 41.04 3.97 39.97 C 6.86 40.56 9.98 42.46 12.88 40.93 C 15.00 39.87 15.32 37.34 15.48 35.23 C 16.06 36.73 16.78 38.17 18.02 39.24 C 15.67 44.21 9.67 45.39 4.83 43.66 C 5.93 49.42 12.64 53.32 18.15 50.92 C 22.56 48.50 25.00 43.70 26.21 39.00 C 26.98 32.79 26.98 25.91 23.30 20.54 C 21.91 18.80 20.40 17.10 19.80 14.89 Z" />
<path fill="#878580" opacity="0.97" d=" M 7.52 38.13 C 8.70 37.49 10.37 37.56 11.53 38.22 C 11.52 40.20 7.53 40.10 7.52 38.13 Z" />
<path fill="#878580" opacity="0.97" d=" M 43.28 38.20 C 44.15 37.35 46.59 37.25 46.75 38.76 C 46.21 40.30 42.57 40.12 43.28 38.20 Z" />
</g>
<g id="#ffffffff">
<path fill="#ffffff" opacity="1.00" d=" M 10.52 15.61 C 13.14 13.82 16.53 15.19 19.41 14.24 C 19.51 14.40 19.70 14.73 19.80 14.89 C 20.40 17.10 21.91 18.80 23.30 20.54 C 26.98 25.91 26.98 32.79 26.21 39.00 C 25.00 43.70 22.56 48.50 18.15 50.92 C 12.64 53.32 5.93 49.42 4.83 43.66 C 9.67 45.39 15.67 44.21 18.02 39.24 C 18.87 35.93 19.19 31.99 16.76 29.23 C 13.47 24.65 5.98 24.49 2.54 29.00 C 2.86 23.66 5.95 18.42 10.52 15.61 Z" />
<path fill="#ffffff" opacity="1.00" d=" M 37.75 29.01 C 38.03 22.33 43.51 13.96 51.12 14.61 C 59.22 17.09 61.97 26.34 62.11 33.89 C 61.60 40.54 59.16 47.96 52.82 51.19 C 49.96 51.60 46.44 52.07 44.19 49.81 C 41.87 48.07 40.33 45.58 38.85 43.13 C 41.83 44.14 45.26 45.17 48.26 43.69 C 51.24 41.84 54.07 38.87 53.81 35.09 C 54.12 31.17 51.41 27.38 47.71 26.18 C 44.22 24.85 40.05 26.11 37.75 29.01 Z" />
<path fill="#ffffff" opacity="1.00" d=" M 6.61 30.77 C 8.41 29.18 10.88 29.20 12.71 30.74 C 12.57 31.63 12.44 32.51 12.31 33.40 C 10.71 33.47 9.10 33.51 7.49 33.53 L 7.65 32.22 L 6.50 32.41 C 6.53 32.00 6.58 31.18 6.61 30.77 Z" />
<path fill="#ffffff" opacity="1.00" d=" M 42.27 30.17 C 43.79 29.53 45.51 29.20 47.06 29.98 C 48.05 30.90 47.42 32.32 47.47 33.47 C 45.84 33.49 44.21 33.49 42.57 33.46 C 42.48 32.37 42.38 31.27 42.27 30.17 Z" />
</g>
<g id="#050401fe">
<path fill="#050401" opacity="1.00" d=" M 2.54 29.00 C 5.98 24.49 13.47 24.65 16.76 29.23 C 19.19 31.99 18.87 35.93 18.02 39.24 C 16.78 38.17 16.06 36.73 15.48 35.23 C 15.32 37.34 15.00 39.87 12.88 40.93 C 9.98 42.46 6.86 40.56 3.97 39.97 C 4.79 41.04 5.60 42.11 6.37 43.21 C 3.94 42.73 2.72 39.50 0.51 39.29 L 0.00 40.84 L 0.00 33.69 C 0.80 32.10 1.64 30.54 2.54 29.00 M 6.61 30.77 C 6.58 31.18 6.53 32.00 6.50 32.41 L 7.65 32.22 L 7.49 33.53 C 9.10 33.51 10.71 33.47 12.31 33.40 C 12.44 32.51 12.57 31.63 12.71 30.74 C 10.88 29.20 8.41 29.18 6.61 30.77 M 7.52 38.13 C 7.53 40.10 11.52 40.20 11.53 38.22 C 10.37 37.56 8.70 37.49 7.52 38.13 Z" />
<path fill="#050401" opacity="1.00" d=" M 37.75 29.01 C 40.05 26.11 44.22 24.85 47.71 26.18 C 51.41 27.38 54.12 31.17 53.81 35.09 C 54.07 38.87 51.24 41.84 48.26 43.69 C 48.13 41.56 50.01 40.40 51.41 39.18 C 51.49 38.70 51.64 37.73 51.71 37.25 C 51.19 37.33 50.13 37.49 49.61 37.57 C 49.58 38.25 49.52 39.59 49.50 40.27 C 47.06 41.65 44.30 41.98 41.76 40.65 C 39.83 40.58 39.16 38.85 39.30 37.17 C 39.01 37.21 38.44 37.31 38.16 37.35 C 39.11 38.88 39.56 40.64 39.93 42.39 C 35.23 39.78 34.26 32.99 37.75 29.01 M 42.27 30.17 C 42.38 31.27 42.48 32.37 42.57 33.46 C 44.21 33.49 45.84 33.49 47.47 33.47 C 47.42 32.32 48.05 30.90 47.06 29.98 C 45.51 29.20 43.79 29.53 42.27 30.17 M 43.28 38.20 C 42.57 40.12 46.21 40.30 46.75 38.76 C 46.59 37.25 44.15 37.35 43.28 38.20 Z" />
</g>
</svg>
