<?xml version="1.0" encoding="UTF-8" ?>
<!DOCTYPE svg PUBLIC "-//W3C//DTD SVG 1.1//EN" "http://www.w3.org/Graphics/SVG/1.1/DTD/svg11.dtd">
<svg width="64pt" height="64pt" viewBox="0 0 64 64" version="1.1" xmlns="http://www.w3.org/2000/svg">
<g id="#e8c19fff">
<path fill="#e8c19f" opacity="1.00" d=" M 15.53 13.02 C 19.38 5.84 28.02 2.11 35.92 3.95 C 41.75 5.08 47.55 8.62 49.29 14.61 C 50.69 21.51 49.47 28.81 45.99 34.93 C 44.91 36.92 43.86 38.93 42.77 40.91 C 39.26 46.80 38.86 54.70 33.05 59.03 C 30.39 61.12 26.83 60.64 23.88 59.51 C 22.73 58.45 21.62 57.34 20.58 56.17 C 18.32 51.57 21.63 46.74 20.17 41.95 C 18.79 38.27 17.79 34.44 16.00 30.91 C 15.14 28.98 14.47 26.98 13.95 24.93 C 13.61 22.68 13.63 20.40 13.96 18.15 C 14.49 16.44 15.01 14.73 15.53 13.02 Z" />
</g>
</svg>
