<?xml version="1.0" encoding="UTF-8" ?>
<!DOCTYPE svg PUBLIC "-//W3C//DTD SVG 1.1//EN" "http://www.w3.org/Graphics/SVG/1.1/DTD/svg11.dtd">
<svg width="64pt" height="64pt" viewBox="0 0 64 64" version="1.1" xmlns="http://www.w3.org/2000/svg">
<g id="#ebd2b1ff">
<path fill="#ebd2b1" opacity="1.00" d=" M 32.48 10.56 C 32.27 8.39 32.17 6.14 33.71 4.37 C 34.55 4.42 36.23 4.50 37.07 4.54 C 40.18 7.97 42.25 12.16 44.96 15.88 C 46.55 17.99 47.28 20.55 47.93 23.07 C 48.55 24.77 49.21 26.45 49.87 28.14 C 50.58 29.78 51.32 31.41 52.09 33.03 C 52.34 34.19 52.59 35.35 52.82 36.52 L 53.38 36.54 C 53.39 37.07 53.40 38.14 53.41 38.68 L 52.86 38.26 C 52.50 39.20 51.77 41.10 51.41 42.05 C 51.51 42.38 51.71 43.03 51.81 43.36 L 50.61 43.37 C 50.57 44.19 50.49 45.83 50.44 46.64 L 49.77 46.29 C 49.77 48.00 49.32 49.57 48.42 50.99 C 48.51 51.35 48.69 52.06 48.78 52.42 L 47.28 52.48 C 47.42 52.97 47.69 53.94 47.83 54.43 L 46.39 54.23 L 46.68 55.60 L 45.42 55.26 C 45.37 55.64 45.26 56.40 45.20 56.77 L 44.01 56.25 C 43.03 57.33 41.76 57.81 40.20 57.69 L 40.66 58.50 C 39.14 58.51 37.62 58.53 36.10 58.53 L 36.76 59.36 C 34.18 59.33 31.61 59.50 29.03 59.62 C 26.81 59.10 24.87 56.36 25.98 53.89 C 25.78 55.16 25.38 57.72 25.18 59.00 L 24.60 56.45 L 23.43 56.51 L 23.57 55.30 L 22.16 55.38 C 22.28 54.89 22.51 53.92 22.63 53.44 C 22.14 53.52 21.15 53.69 20.66 53.77 L 20.55 52.35 L 19.43 52.69 L 19.60 51.38 L 18.30 51.59 L 18.66 50.46 L 17.33 50.25 C 17.42 49.81 17.60 48.93 17.69 48.49 L 16.45 48.63 L 16.57 47.42 L 15.35 47.21 C 15.43 46.77 15.59 45.88 15.67 45.43 L 14.36 45.72 L 14.42 44.99 C 13.82 43.85 13.39 42.65 13.12 41.39 L 12.55 41.61 C 12.47 39.89 12.41 38.17 12.35 36.45 L 11.56 36.52 C 11.47 35.18 11.39 33.83 11.32 32.49 C 12.04 32.44 13.46 32.34 14.18 32.29 C 14.98 31.58 15.80 30.88 16.60 30.16 C 16.35 28.38 15.86 25.86 18.01 25.05 C 20.85 23.76 24.08 23.62 27.07 22.76 C 30.71 23.64 34.23 25.01 37.81 26.10 C 37.69 25.29 37.43 23.68 37.30 22.88 C 36.21 22.44 35.49 21.64 35.16 20.50 L 34.89 20.50 C 34.01 19.13 32.86 17.98 31.49 17.10 L 31.56 16.75 C 28.43 16.57 29.58 12.81 29.39 10.71 C 30.16 10.67 31.71 10.60 32.48 10.56 M 18.10 34.44 L 18.65 32.71 C 19.10 33.52 20.00 35.14 20.45 35.95 C 20.99 37.36 21.53 38.77 21.82 40.25 C 22.95 41.53 24.19 42.81 25.90 43.24 C 27.85 43.53 29.50 42.23 31.14 41.42 C 31.45 41.47 32.09 41.56 32.41 41.61 L 32.36 40.69 C 33.40 40.21 34.44 39.72 35.48 39.22 C 35.50 37.79 35.53 36.36 35.55 34.94 C 34.20 34.70 32.98 34.17 31.89 33.34 L 30.78 33.74 C 30.74 33.41 30.65 32.73 30.60 32.39 L 29.48 32.55 L 29.51 31.41 C 25.45 30.90 21.06 32.41 17.26 30.87 C 17.47 31.76 17.89 33.54 18.10 34.44 Z" />
</g>
</svg>
