<?xml version="1.0" encoding="UTF-8" ?>
<!DOCTYPE svg PUBLIC "-//W3C//DTD SVG 1.1//EN" "http://www.w3.org/Graphics/SVG/1.1/DTD/svg11.dtd">
<svg width="64pt" height="64pt" viewBox="0 0 64 64" version="1.1" xmlns="http://www.w3.org/2000/svg">
<g id="#ecd1b0ff">
<path fill="#ecd1b0" opacity="1.00" d=" M 26.09 5.03 C 31.90 3.89 38.06 3.79 43.86 5.15 C 46.92 5.27 50.09 4.91 53.06 5.88 C 56.44 7.12 52.98 11.58 55.76 13.13 C 55.67 13.46 55.49 14.14 55.40 14.47 L 56.51 14.46 C 56.42 16.03 56.22 17.59 56.10 19.16 C 56.48 19.49 57.26 20.14 57.64 20.47 C 57.63 22.17 57.68 23.87 57.66 25.57 C 57.31 25.57 56.61 25.58 56.26 25.58 C 56.73 28.14 56.77 30.75 56.41 33.33 C 55.63 33.40 54.06 33.53 53.27 33.60 L 53.69 34.45 C 48.32 34.77 42.93 34.85 37.58 34.17 L 37.58 36.83 L 38.42 36.29 C 38.46 38.48 38.53 40.67 38.58 42.86 L 39.60 42.18 C 39.58 43.06 39.53 44.81 39.50 45.69 C 39.72 45.63 40.14 45.50 40.36 45.44 C 40.42 48.13 40.45 50.82 40.40 53.52 L 39.74 53.47 C 39.52 54.95 38.95 56.34 38.34 57.70 L 37.32 57.33 L 37.63 58.55 L 36.39 58.40 L 36.47 59.44 C 33.68 59.63 30.89 59.62 28.10 59.56 L 34.11 58.04 L 28.62 58.75 C 27.73 53.81 29.13 48.57 27.53 43.82 C 27.53 43.61 27.53 43.17 27.52 42.96 C 26.35 41.73 25.35 40.36 24.47 38.91 C 24.48 38.57 24.51 37.88 24.53 37.53 L 23.10 37.27 C 23.22 36.93 23.46 36.26 23.58 35.92 C 22.17 35.57 21.32 34.66 21.03 33.19 L 20.66 34.50 C 20.61 32.54 19.08 30.76 17.03 31.10 C 13.76 31.50 10.47 31.82 7.18 31.49 L 7.72 29.06 L 5.69 31.46 L 6.79 28.09 L 4.77 30.07 C 4.97 29.58 5.37 28.61 5.57 28.12 C 4.19 26.01 4.45 23.42 4.31 21.02 C 4.30 17.01 4.02 12.94 4.95 9.01 C 5.49 7.86 6.26 6.84 6.80 5.69 C 8.52 5.45 10.24 5.21 11.93 4.79 C 13.59 4.76 15.26 4.81 16.91 4.95 C 18.33 5.38 19.79 5.74 21.10 6.46 C 22.77 6.00 24.44 5.56 26.09 5.03 Z" />
</g>
</svg>
