<?xml version="1.0" encoding="UTF-8" ?>
<!DOCTYPE svg PUBLIC "-//W3C//DTD SVG 1.1//EN" "http://www.w3.org/Graphics/SVG/1.1/DTD/svg11.dtd">
<svg width="64pt" height="64pt" viewBox="0 0 64 64" version="1.1" xmlns="http://www.w3.org/2000/svg">
<g id="#f430bfff">
<path fill="#f430bf" opacity="1.00" d=" M 23.08 3.40 C 24.23 3.33 25.39 3.28 26.55 3.26 C 25.62 5.09 24.69 6.92 23.86 8.80 C 23.27 11.34 22.05 13.67 21.25 16.15 C 23.10 20.54 25.96 24.48 29.70 27.45 C 31.49 27.37 33.28 27.36 35.06 27.41 C 38.99 24.53 41.50 20.40 43.56 16.07 C 41.70 11.85 40.44 7.36 38.18 3.33 C 39.44 3.34 40.70 3.35 41.95 3.37 C 42.59 7.92 43.97 12.33 45.23 16.73 C 47.14 20.18 49.95 23.10 51.37 26.82 C 51.37 30.22 48.64 32.63 46.26 34.66 C 44.56 34.66 42.87 34.72 41.18 34.81 C 41.29 34.56 41.50 34.05 41.61 33.80 C 39.07 34.04 37.30 32.24 35.54 30.70 C 33.36 30.74 31.19 30.74 29.01 30.78 C 26.26 33.83 22.07 35.88 18.01 34.27 C 15.43 32.66 13.26 29.59 13.52 26.45 C 14.83 22.51 17.84 19.50 19.76 15.89 C 21.19 11.82 21.67 7.47 23.08 3.40 Z" />
<path fill="#f430bf" opacity="1.00" d=" M 5.88 46.85 C 7.71 44.31 9.44 41.70 11.02 39.00 C 19.97 41.76 29.36 44.09 38.80 42.68 C 44.13 42.29 49.09 40.24 54.25 39.07 C 55.82 41.87 57.66 44.51 59.47 47.16 C 57.43 45.86 55.84 43.19 53.21 43.21 C 49.40 44.21 46.69 47.31 43.80 49.78 C 40.93 53.10 38.34 56.65 36.41 60.61 C 33.70 60.56 30.99 60.57 28.29 60.61 C 25.76 54.05 20.51 49.07 15.06 44.86 C 13.74 43.98 12.10 42.60 10.42 43.39 C 8.72 44.26 7.38 45.68 5.88 46.85 Z" />
</g>
</svg>
