<?xml version="1.0" encoding="UTF-8" ?>
<!DOCTYPE svg PUBLIC "-//W3C//DTD SVG 1.1//EN" "http://www.w3.org/Graphics/SVG/1.1/DTD/svg11.dtd">
<svg width="64pt" height="64pt" viewBox="0 0 64 64" version="1.1" xmlns="http://www.w3.org/2000/svg">
<g id="#91a4b6ff">
<path fill="#91a4b6" opacity="1.00" d=" M 38.98 12.53 C 40.73 12.43 42.95 12.29 43.84 14.18 C 49.43 23.14 54.92 32.19 60.70 41.02 C 60.69 41.36 60.66 42.02 60.64 42.36 C 60.20 43.20 59.74 44.04 59.28 44.87 C 59.89 43.48 60.02 42.04 59.68 40.54 C 58.64 40.68 56.55 40.95 55.51 41.08 C 55.50 40.92 55.48 40.58 55.47 40.42 C 56.12 40.31 57.43 40.10 58.08 39.99 C 57.89 39.71 57.52 39.13 57.33 38.85 C 52.02 30.43 46.82 21.94 41.45 13.55 C 40.83 13.30 39.60 12.79 38.98 12.53 Z" />
<path fill="#91a4b6" opacity="1.00" d=" M 10.87 53.00 C 9.65 51.12 10.39 48.29 11.92 46.86 C 14.52 48.66 15.58 52.44 19.07 52.84 C 20.68 53.49 22.94 52.68 24.19 53.96 C 21.50 58.97 13.14 57.99 10.87 53.00 Z" />
<path fill="#91a4b6" opacity="1.00" d=" M 44.96 57.37 C 40.98 57.47 36.44 51.96 39.97 48.69 C 42.33 48.27 43.71 50.37 45.34 51.62 C 47.75 52.55 50.39 51.97 52.90 52.21 C 52.65 55.92 48.30 57.86 44.96 57.37 Z" />
</g>
<g id="#acbbc7ff">
<path fill="#acbbc7" opacity="1.00" d=" M 19.30 16.23 C 20.25 14.72 21.16 12.46 23.30 12.57 C 22.52 13.55 21.81 14.58 21.16 15.65 C 15.81 23.21 11.25 31.29 6.44 39.18 C 5.95 39.32 4.96 39.60 4.46 39.74 C 9.62 32.04 14.43 24.11 19.30 16.23 Z" />
<path fill="#acbbc7" opacity="1.00" d=" M 36.01 47.06 C 37.09 44.09 40.79 44.03 43.33 43.08 C 47.54 43.05 52.12 41.97 56.04 43.92 C 57.27 47.29 56.16 50.81 56.18 54.26 L 55.55 54.77 C 54.10 59.77 46.38 62.25 42.25 59.55 C 40.63 59.65 39.03 58.60 38.26 57.21 C 36.64 54.05 35.60 50.66 36.01 47.06 M 47.66 45.62 C 45.77 46.62 46.15 49.27 47.29 50.71 C 48.99 51.50 51.11 50.37 52.24 49.03 C 52.30 46.90 49.79 44.19 47.66 45.62 M 44.96 57.37 C 48.30 57.86 52.65 55.92 52.90 52.21 C 50.39 51.97 47.75 52.55 45.34 51.62 C 43.71 50.37 42.33 48.27 39.97 48.69 C 36.44 51.96 40.98 57.47 44.96 57.37 Z" />
</g>
<g id="#0b0b0bff">
<path fill="#0b0b0b" opacity="1.00" d=" M 23.30 12.57 L 23.71 12.21 C 25.25 12.38 26.61 13.39 26.71 15.02 C 27.03 18.45 28.05 21.97 26.85 25.35 L 26.62 24.75 C 24.79 22.66 25.61 19.83 24.83 17.40 C 24.39 17.23 23.51 16.89 23.07 16.72 C 22.59 16.45 21.64 15.92 21.16 15.65 C 21.81 14.58 22.52 13.55 23.30 12.57 Z" />
<path fill="#0b0b0b" opacity="1.00" d=" M 36.92 19.10 C 37.20 16.90 37.00 13.99 38.98 12.53 C 39.60 12.79 40.83 13.30 41.45 13.55 C 46.82 21.94 52.02 30.43 57.33 38.85 C 56.04 39.13 54.68 39.40 53.68 38.31 C 49.46 31.71 45.71 24.82 41.48 18.22 C 41.18 17.48 40.69 16.92 40.01 16.53 C 38.04 18.13 38.88 20.82 38.42 23.00 L 36.89 22.92 C 36.90 21.65 36.91 20.38 36.92 19.10 Z" />
</g>
<g id="#2b2b2bf7">
<path fill="#2b2b2b" opacity="0.97" d=" M 6.44 39.18 C 11.25 31.29 15.81 23.21 21.16 15.65 C 21.64 15.92 22.59 16.45 23.07 16.72 C 22.94 17.07 22.67 17.78 22.54 18.13 C 18.49 24.83 14.58 31.64 10.41 38.27 C 9.23 39.07 7.87 40.07 6.44 39.18 Z" />
</g>
<g id="#787879ff">
<path fill="#787879" opacity="1.00" d=" M 23.07 16.72 C 23.51 16.89 24.39 17.23 24.83 17.40 C 25.61 19.83 24.79 22.66 26.62 24.75 C 26.18 25.08 25.29 25.75 24.85 26.08 C 24.36 25.33 23.98 24.53 23.71 23.68 C 23.36 21.83 23.54 19.79 22.54 18.13 C 22.67 17.78 22.94 17.07 23.07 16.72 Z" />
<path fill="#787879" opacity="1.00" d=" M 38.42 23.00 C 38.88 20.82 38.04 18.13 40.01 16.53 C 40.69 16.92 41.18 17.48 41.48 18.22 C 40.96 20.29 40.80 22.42 40.58 24.54 C 40.21 24.90 39.46 25.61 39.09 25.96 C 38.68 25.62 37.86 24.93 37.46 24.59 C 36.36 23.14 35.42 20.38 36.92 19.10 C 36.91 20.38 36.90 21.65 36.89 22.92 L 38.42 23.00 Z" />
<path fill="#787879" opacity="1.00" d=" M 20.99 40.32 C 22.18 40.27 23.11 40.58 23.78 41.28 L 23.66 42.31 C 22.40 42.39 21.15 42.30 19.92 42.05 C 20.19 41.62 20.73 40.75 20.99 40.32 Z" />
</g>
<g id="#0000001b">
<path fill="#000000" opacity="0.11" d=" M 23.71 23.68 C 23.98 24.53 24.36 25.33 24.85 26.08 C 25.29 25.75 26.18 25.08 26.62 24.75 L 26.85 25.35 C 27.64 31.13 21.37 34.76 20.99 40.32 C 19.57 40.05 18.14 39.79 16.70 39.58 C 19.04 34.29 19.76 28.14 23.71 23.68 Z" />
<path fill="#000000" opacity="0.11" d=" M 37.46 24.59 C 37.86 24.93 38.68 25.62 39.09 25.96 C 39.46 25.61 40.21 24.90 40.58 24.54 C 41.86 25.66 42.81 27.09 43.34 28.70 C 44.65 32.42 46.57 35.88 48.07 39.53 C 46.75 39.70 45.45 39.91 44.14 40.10 C 42.16 36.69 40.21 33.26 38.00 29.99 C 36.87 28.44 36.69 26.35 37.46 24.59 Z" />
</g>
<g id="#444343ff">
<path fill="#444343" opacity="1.00" d=" M 6.44 39.18 C 7.87 40.07 9.23 39.07 10.41 38.27 L 10.65 39.24 C 12.67 39.35 14.69 39.40 16.70 39.58 C 18.14 39.79 19.57 40.05 20.99 40.32 C 20.73 40.75 20.19 41.62 19.92 42.05 C 14.80 40.94 9.50 41.12 4.29 41.23 C 3.97 42.37 3.82 43.54 3.83 44.73 C 2.76 43.60 2.71 40.56 4.46 39.74 C 4.96 39.60 5.95 39.32 6.44 39.18 Z" />
<path fill="#444343" opacity="1.00" d=" M 53.68 38.31 C 54.68 39.40 56.04 39.13 57.33 38.85 C 57.52 39.13 57.89 39.71 58.08 39.99 C 57.43 40.10 56.12 40.31 55.47 40.42 C 55.48 40.58 55.50 40.92 55.51 41.08 C 55.64 41.79 55.91 43.21 56.04 43.92 C 52.12 41.97 47.54 43.05 43.33 43.08 C 41.07 41.52 38.41 42.92 36.05 43.42 C 34.87 43.51 34.53 44.79 34.40 45.75 C 34.80 46.08 35.61 46.74 36.01 47.06 C 35.60 50.66 36.64 54.05 38.26 57.21 C 34.90 55.74 34.92 50.99 32.74 48.30 C 30.09 47.73 30.10 51.52 29.06 53.14 C 27.35 58.16 22.25 61.57 16.91 60.72 C 9.42 60.73 6.27 52.55 5.30 46.31 C 6.21 45.99 7.02 45.50 7.72 44.85 C 7.08 48.86 7.75 53.33 10.44 56.50 C 13.41 59.92 18.75 60.24 22.74 58.63 C 25.83 57.34 27.18 54.04 28.00 51.04 C 29.12 48.78 30.85 46.84 31.76 44.48 C 29.40 42.51 25.86 44.41 23.66 42.31 L 23.78 41.28 C 26.78 40.54 29.90 42.61 32.99 42.10 C 36.72 41.47 40.42 40.75 44.14 40.10 C 45.45 39.91 46.75 39.70 48.07 39.53 C 49.85 39.37 51.65 39.34 53.44 39.23 L 53.68 38.31 Z" />
</g>
<g id="#060606ff">
<path fill="#060606" opacity="1.00" d=" M 4.29 41.23 C 9.50 41.12 14.80 40.94 19.92 42.05 C 21.15 42.30 22.40 42.39 23.66 42.31 C 25.86 44.41 29.40 42.51 31.76 44.48 C 30.85 46.84 29.12 48.78 28.00 51.04 C 28.34 48.86 28.58 45.84 26.15 44.77 C 20.67 42.58 14.24 41.95 8.57 43.58 C 8.36 43.90 7.94 44.54 7.72 44.85 C 7.02 45.50 6.21 45.99 5.30 46.31 C 4.93 45.92 4.20 45.12 3.83 44.73 C 3.82 43.54 3.97 42.37 4.29 41.23 Z" />
</g>
<g id="#0e0e0eff">
<path fill="#0e0e0e" opacity="1.00" d=" M 55.51 41.08 C 56.55 40.95 58.64 40.68 59.68 40.54 C 60.02 42.04 59.89 43.48 59.28 44.87 C 59.74 44.04 60.20 43.20 60.64 42.36 C 61.40 43.74 60.55 45.42 59.08 45.70 C 58.18 48.54 58.01 51.86 56.18 54.26 C 56.16 50.81 57.27 47.29 56.04 43.92 C 55.91 43.21 55.64 41.79 55.51 41.08 Z" />
<path fill="#0e0e0e" opacity="1.00" d=" M 36.05 43.42 C 38.41 42.92 41.07 41.52 43.33 43.08 C 40.79 44.03 37.09 44.09 36.01 47.06 C 35.61 46.74 34.80 46.08 34.40 45.75 C 34.53 44.79 34.87 43.51 36.05 43.42 Z" />
</g>
<g id="#adbeccff">
<path fill="#adbecc" opacity="1.00" d=" M 8.57 43.58 C 14.24 41.95 20.67 42.58 26.15 44.77 C 28.58 45.84 28.34 48.86 28.00 51.04 C 27.18 54.04 25.83 57.34 22.74 58.63 C 18.75 60.24 13.41 59.92 10.44 56.50 C 7.75 53.33 7.08 48.86 7.72 44.85 C 7.94 44.54 8.36 43.90 8.57 43.58 M 10.87 53.00 C 13.14 57.99 21.50 58.97 24.19 53.96 C 22.94 52.68 20.68 53.49 19.07 52.84 C 15.58 52.44 14.52 48.66 11.92 46.86 C 10.39 48.29 9.65 51.12 10.87 53.00 M 18.34 47.23 C 15.86 49.77 19.47 53.29 22.07 51.21 C 25.27 49.33 20.73 44.98 18.34 47.23 Z" />
</g>
<g id="#d0e2f1ff">
<path fill="#d0e2f1" opacity="1.00" d=" M 47.66 45.62 C 49.79 44.19 52.30 46.90 52.24 49.03 C 51.11 50.37 48.99 51.50 47.29 50.71 C 46.15 49.27 45.77 46.62 47.66 45.62 Z" />
</g>
<g id="#cddfefff">
<path fill="#cddfef" opacity="1.00" d=" M 18.34 47.23 C 20.73 44.98 25.27 49.33 22.07 51.21 C 19.47 53.29 15.86 49.77 18.34 47.23 Z" />
</g>
</svg>
