<?xml version="1.0" encoding="UTF-8" ?>
<!DOCTYPE svg PUBLIC "-//W3C//DTD SVG 1.1//EN" "http://www.w3.org/Graphics/SVG/1.1/DTD/svg11.dtd">
<svg width="64pt" height="64pt" viewBox="0 0 64 64" version="1.1" xmlns="http://www.w3.org/2000/svg">
<g id="#201d1cff">
<path fill="#201d1c" opacity="1.00" d=" M 16.78 5.74 C 17.61 4.94 18.40 3.66 19.78 3.99 C 22.18 7.25 24.41 10.76 27.56 13.37 C 30.67 14.79 34.16 14.89 37.48 15.52 C 37.74 15.14 38.26 14.38 38.52 14.01 C 39.17 15.18 39.52 16.46 39.66 17.79 C 34.60 18.42 27.37 20.26 23.43 15.56 C 21.80 13.40 20.45 11.01 19.59 8.44 C 19.26 7.16 18.92 4.20 16.78 5.74 Z" />
</g>
<g id="#acacacff">
<path fill="#acacac" opacity="1.00" d=" M 16.78 5.74 C 18.92 4.20 19.26 7.16 19.59 8.44 C 18.19 10.01 16.60 11.51 15.68 13.43 C 14.99 17.45 15.74 21.54 15.81 25.58 C 14.80 24.82 13.85 24.00 12.89 23.17 C 12.27 19.60 11.28 16.07 11.25 12.41 L 11.24 12.36 C 12.52 11.91 13.20 11.07 13.28 9.82 L 13.31 9.28 L 13.85 9.23 C 15.25 9.09 16.06 8.30 16.29 6.85 C 16.42 6.57 16.66 6.02 16.78 5.74 Z" />
</g>
<g id="#6a6561ed">
<path fill="#6a6561" opacity="0.93" d=" M 13.85 9.23 C 14.06 7.80 14.88 7.01 16.29 6.85 C 16.06 8.30 15.25 9.09 13.85 9.23 Z" />
</g>
<g id="#cecdcdff">
<path fill="#cecdcd" opacity="1.00" d=" M 15.68 13.43 C 16.60 11.51 18.19 10.01 19.59 8.44 C 20.45 11.01 21.80 13.40 23.43 15.56 C 22.42 15.56 21.41 15.57 20.40 15.58 C 18.72 17.84 19.58 20.98 19.55 23.62 C 19.74 27.78 24.68 28.58 27.99 28.55 C 31.31 28.35 34.46 29.53 37.26 31.23 C 37.68 31.11 38.10 30.99 38.52 30.88 C 38.55 32.83 40.88 31.92 42.12 32.09 C 40.84 32.38 39.59 32.74 38.33 33.11 C 38.44 33.47 38.66 34.20 38.76 34.56 C 38.87 34.91 39.09 35.62 39.20 35.98 C 40.53 36.11 41.87 36.15 43.21 36.09 C 41.83 36.36 40.45 36.65 39.08 36.96 C 39.23 40.07 41.81 42.14 43.99 44.00 C 46.80 46.06 49.73 48.04 52.97 49.38 C 55.26 49.68 57.58 49.67 59.88 49.78 C 59.74 50.61 59.44 52.28 59.30 53.12 C 52.37 56.60 44.79 52.40 38.87 48.63 C 37.74 46.36 35.80 44.62 34.64 42.39 C 34.33 39.48 35.67 36.00 33.34 33.66 C 30.75 31.85 27.40 32.38 24.44 32.26 C 21.54 30.06 18.64 27.88 15.81 25.58 C 15.74 21.54 14.99 17.45 15.68 13.43 Z" />
</g>
<g id="#5c5754e1">
<path fill="#5c5754" opacity="0.88" d=" M 11.24 12.36 C 11.08 10.83 11.76 9.98 13.28 9.82 C 13.20 11.07 12.52 11.91 11.24 12.36 Z" />
</g>
<g id="#8e9fb2ff">
<path fill="#8e9fb2" opacity="1.00" d=" M 38.52 14.01 C 40.52 12.87 42.80 12.69 45.04 12.90 C 45.40 14.12 45.73 15.36 45.95 16.62 L 46.23 18.21 C 44.10 17.40 41.86 18.00 39.66 17.79 C 39.52 16.46 39.17 15.18 38.52 14.01 Z" />
</g>
<g id="#807f7eff">
<path fill="#807f7e" opacity="1.00" d=" M 9.19 14.05 C 9.71 13.64 10.73 12.82 11.25 12.41 C 11.28 16.07 12.27 19.60 12.89 23.17 C 10.41 20.96 6.65 17.57 9.19 14.05 Z" />
</g>
<g id="#2b2a28ff">
<path fill="#2b2a28" opacity="1.00" d=" M 6.23 17.25 C 7.06 16.08 7.72 14.52 9.19 14.05 C 6.65 17.57 10.41 20.96 12.89 23.17 C 13.85 24.00 14.80 24.82 15.81 25.58 C 18.64 27.88 21.54 30.06 24.44 32.26 C 30.72 36.40 31.96 45.16 38.87 48.63 C 44.79 52.40 52.37 56.60 59.30 53.12 C 59.44 52.28 59.74 50.61 59.88 49.78 C 59.60 48.36 58.82 47.18 57.57 46.24 C 61.98 47.37 61.51 53.36 59.87 56.65 C 58.92 56.37 57.94 56.08 56.96 56.41 C 50.31 57.23 44.03 53.82 38.66 50.28 C 33.50 46.96 30.59 41.43 27.07 36.61 C 21.45 31.05 13.88 27.55 8.90 21.36 C 8.04 19.97 7.15 18.59 6.23 17.25 Z" />
</g>
<g id="#fafafaff">
<path fill="#fafafa" opacity="1.00" d=" M 20.40 15.58 C 21.41 15.57 22.42 15.56 23.43 15.56 C 27.37 20.26 34.60 18.42 39.66 17.79 C 41.86 18.00 44.10 17.40 46.23 18.21 C 46.36 18.72 46.60 19.73 46.72 20.24 C 43.63 21.49 40.28 21.45 37.04 22.02 C 37.12 22.46 37.27 23.36 37.35 23.81 C 40.78 23.84 44.01 22.15 47.40 22.34 C 47.41 23.01 47.43 24.35 47.45 25.02 C 44.37 25.72 41.22 25.96 38.11 26.43 C 38.02 26.86 37.84 27.73 37.75 28.16 C 41.34 28.44 44.72 26.99 48.20 26.50 C 48.24 27.15 48.32 28.46 48.35 29.11 C 45.19 30.26 41.76 30.10 38.52 30.88 C 38.10 30.99 37.68 31.11 37.26 31.23 C 34.46 29.53 31.31 28.35 27.99 28.55 C 24.68 28.58 19.74 27.78 19.55 23.62 C 19.58 20.98 18.72 17.84 20.40 15.58 Z" />
</g>
<g id="#383633ff">
<path fill="#383633" opacity="1.00" d=" M 45.95 16.62 C 48.49 22.33 49.05 28.78 49.55 34.96 C 49.75 37.76 51.71 39.86 53.03 42.15 C 50.59 40.42 49.35 37.45 48.95 34.56 C 47.06 35.13 45.16 35.73 43.21 36.09 C 41.87 36.15 40.53 36.11 39.20 35.98 C 39.09 35.62 38.87 34.91 38.76 34.56 C 41.89 33.72 45.25 34.14 48.32 32.95 C 48.38 32.33 48.50 31.08 48.57 30.45 C 46.46 31.18 44.30 31.69 42.12 32.09 C 40.88 31.92 38.55 32.83 38.52 30.88 C 41.76 30.10 45.19 30.26 48.35 29.11 C 48.32 28.46 48.24 27.15 48.20 26.50 C 44.72 26.99 41.34 28.44 37.75 28.16 C 37.84 27.73 38.02 26.86 38.11 26.43 C 41.22 25.96 44.37 25.72 47.45 25.02 C 47.43 24.35 47.41 23.01 47.40 22.34 C 44.01 22.15 40.78 23.84 37.35 23.81 C 37.27 23.36 37.12 22.46 37.04 22.02 C 40.28 21.45 43.63 21.49 46.72 20.24 C 46.60 19.73 46.36 18.72 46.23 18.21 L 45.95 16.62 Z" />
</g>
<g id="#9a9a99f1">
<path fill="#9a9a99" opacity="0.95" d=" M 3.43 20.96 C 4.44 19.78 5.46 18.60 6.23 17.25 C 7.15 18.59 8.04 19.97 8.90 21.36 C 5.69 22.07 8.64 24.65 9.25 26.33 C 7.59 24.92 6.20 23.21 4.42 21.94 C 4.86 23.65 5.55 25.29 6.18 26.94 C 4.19 25.94 3.41 23.11 3.43 20.96 Z" />
</g>
<g id="#ddddddff">
<path fill="#dddddd" opacity="1.00" d=" M 9.25 26.33 C 8.64 24.65 5.69 22.07 8.90 21.36 C 13.88 27.55 21.45 31.05 27.07 36.61 C 26.72 36.80 26.02 37.18 25.66 37.38 C 28.77 41.62 30.78 46.73 34.87 50.20 C 39.68 54.28 45.65 57.22 51.98 57.81 C 53.76 57.96 55.36 57.03 56.96 56.41 C 57.94 56.08 58.92 56.37 59.87 56.65 C 58.86 57.74 58.07 58.23 57.36 59.37 C 50.51 62.29 43.09 58.90 36.81 56.00 C 30.37 53.39 27.97 46.36 23.57 41.54 C 20.40 37.61 15.85 35.19 12.02 32.08 C 11.59 31.76 10.71 31.11 10.27 30.78 C 8.64 30.63 8.02 28.73 6.62 28.07 C 6.51 27.79 6.29 27.22 6.18 26.94 C 5.55 25.29 4.86 23.65 4.42 21.94 C 6.20 23.21 7.59 24.92 9.25 26.33 Z" />
</g>
<g id="#676564be">
<path fill="#676564" opacity="0.75" d=" M 10.27 30.78 C 10.71 31.11 11.59 31.76 12.02 32.08 L 11.21 32.38 C 10.98 31.98 10.51 31.18 10.27 30.78 Z" />
</g>
<g id="#fdfcfcff">
<path fill="#fdfcfc" opacity="1.00" d=" M 42.12 32.09 C 44.30 31.69 46.46 31.18 48.57 30.45 C 48.50 31.08 48.38 32.33 48.32 32.95 C 45.25 34.14 41.89 33.72 38.76 34.56 C 38.66 34.20 38.44 33.47 38.33 33.11 C 39.59 32.74 40.84 32.38 42.12 32.09 Z" />
<path fill="#fdfcfc" opacity="1.00" d=" M 43.21 36.09 C 45.16 35.73 47.06 35.13 48.95 34.56 C 49.35 37.45 50.59 40.42 53.03 42.15 C 54.55 43.50 56.04 44.90 57.57 46.24 C 58.82 47.18 59.60 48.36 59.88 49.78 C 57.58 49.67 55.26 49.68 52.97 49.38 C 49.73 48.04 46.80 46.06 43.99 44.00 C 41.81 42.14 39.23 40.07 39.08 36.96 C 40.45 36.65 41.83 36.36 43.21 36.09 Z" />
<path fill="#fdfcfc" opacity="1.00" d=" M 25.66 37.38 C 26.02 37.18 26.72 36.80 27.07 36.61 C 30.59 41.43 33.50 46.96 38.66 50.28 C 44.03 53.82 50.31 57.23 56.96 56.41 C 55.36 57.03 53.76 57.96 51.98 57.81 C 45.65 57.22 39.68 54.28 34.87 50.20 C 30.78 46.73 28.77 41.62 25.66 37.38 Z" />
</g>
<g id="#a9a8a8ff">
<path fill="#a9a8a8" opacity="1.00" d=" M 24.44 32.26 C 27.40 32.38 30.75 31.85 33.34 33.66 C 35.67 36.00 34.33 39.48 34.64 42.39 C 35.80 44.62 37.74 46.36 38.87 48.63 C 31.96 45.16 30.72 36.40 24.44 32.26 Z" />
</g>
<g id="#00000072">
<path fill="#000000" opacity="0.45" d=" M 36.81 56.00 C 43.09 58.90 50.51 62.29 57.36 59.37 C 57.00 59.81 56.30 60.67 55.95 61.10 C 47.71 61.61 39.40 61.48 31.14 61.30 C 28.53 60.24 25.41 61.06 23.10 59.26 C 25.92 58.05 29.09 58.83 32.03 58.14 C 33.95 57.54 35.96 57.68 37.94 57.85 C 37.66 57.38 37.09 56.46 36.81 56.00 Z" />
</g>
</svg>
