<?xml version="1.0" encoding="UTF-8" ?>
<!DOCTYPE svg PUBLIC "-//W3C//DTD SVG 1.1//EN" "http://www.w3.org/Graphics/SVG/1.1/DTD/svg11.dtd">
<svg width="64pt" height="64pt" viewBox="0 0 64 64" version="1.1" xmlns="http://www.w3.org/2000/svg">
<g id="#806e60e2">
<path fill="#806e60" opacity="0.89" d=" M 19.69 10.35 C 20.88 5.50 26.23 2.30 31.07 3.24 L 30.92 3.78 C 29.56 4.65 28.37 5.76 27.10 6.76 C 25.66 5.54 23.82 6.69 22.83 7.90 C 21.78 8.70 21.23 10.54 19.69 10.35 Z" />
</g>
<g id="#61534ba0">
<path fill="#61534b" opacity="0.63" d=" M 31.07 3.24 C 33.00 2.70 36.90 1.94 37.86 3.97 C 36.12 3.92 32.65 3.83 30.92 3.78 L 31.07 3.24 Z" />
</g>
<g id="#ab8f7af6">
<path fill="#ab8f7a" opacity="0.96" d=" M 27.10 6.76 C 28.37 5.76 29.56 4.65 30.92 3.78 C 32.65 3.83 36.12 3.92 37.86 3.97 C 39.99 4.07 42.39 5.20 43.33 7.20 C 42.97 7.38 42.24 7.75 41.88 7.93 L 41.02 7.54 C 38.27 5.86 34.85 6.35 31.82 6.57 C 25.13 9.56 25.38 18.90 24.89 25.08 L 24.83 26.16 C 24.19 25.31 23.54 24.46 22.89 23.61 C 23.25 18.68 22.38 13.25 25.24 8.88 C 25.86 8.17 26.48 7.46 27.10 6.76 Z" />
</g>
<g id="#48301be0">
<path fill="#48301b" opacity="0.88" d=" M 22.83 7.90 C 23.82 6.69 25.66 5.54 27.10 6.76 C 26.48 7.46 25.86 8.17 25.24 8.88 C 24.47 8.74 23.69 8.64 22.90 8.59 L 22.83 7.90 Z" />
</g>
<g id="#312218dd">
<path fill="#312218" opacity="0.87" d=" M 31.82 6.57 C 34.85 6.35 38.27 5.86 41.02 7.54 C 40.82 7.90 40.43 8.63 40.23 8.99 C 42.15 13.46 43.47 18.16 44.01 23.01 C 43.30 23.00 41.90 22.97 41.20 22.96 C 40.48 16.69 39.54 7.51 31.82 6.57 Z" />
</g>
<g id="#91755eed">
<path fill="#91755e" opacity="0.93" d=" M 43.33 7.20 C 45.47 8.76 48.10 14.16 47.70 17.80 C 47.33 19.14 46.58 21.82 46.20 23.17 C 46.82 17.64 44.57 12.55 41.88 7.93 C 42.24 7.75 42.97 7.38 43.33 7.20 Z" />
</g>
<g id="#5f432df2">
<path fill="#5f432d" opacity="0.95" d=" M 19.69 10.35 C 21.23 10.54 21.78 8.70 22.83 7.90 L 22.90 8.59 C 20.55 14.11 19.66 19.99 19.96 25.95 C 19.23 25.97 17.76 25.99 17.02 26.01 L 17.14 25.06 L 17.25 24.25 C 17.64 21.51 18.00 18.76 18.01 16.00 C 18.08 14.19 17.85 11.12 19.69 10.35 Z" />
</g>
<g id="#140d0939">
<path fill="#140d09" opacity="0.22" d=" M 22.90 8.59 C 23.69 8.64 24.47 8.74 25.24 8.88 C 22.38 13.25 23.25 18.68 22.89 23.61 C 22.63 24.19 22.10 25.34 21.84 25.92 C 21.37 25.93 20.43 25.94 19.96 25.95 C 19.66 19.99 20.55 14.11 22.90 8.59 Z" />
</g>
<g id="#0e090627">
<path fill="#0e0906" opacity="0.15" d=" M 40.23 8.99 C 40.43 8.63 40.82 7.90 41.02 7.54 L 41.88 7.93 C 44.57 12.55 46.82 17.64 46.20 23.17 C 45.93 23.75 45.38 24.91 45.10 25.49 C 44.83 24.87 44.28 23.63 44.01 23.01 C 43.47 18.16 42.15 13.46 40.23 8.99 Z" />
</g>
<g id="#332113a4">
<path fill="#332113" opacity="0.64" d=" M 17.25 24.25 C 17.51 21.80 15.71 16.90 18.01 16.00 C 18.00 18.76 17.64 21.51 17.25 24.25 Z" />
</g>
<g id="#dabca2fd">
<path fill="#dabca2" opacity="1.00" d=" M 46.20 23.17 C 46.58 21.82 47.33 19.14 47.70 17.80 C 48.33 20.58 49.12 23.33 49.85 26.09 C 49.90 26.58 49.99 27.58 50.03 28.08 C 50.05 29.39 50.05 30.70 50.06 32.01 L 50.04 32.88 C 48.31 32.90 46.57 32.89 44.84 32.85 L 44.87 32.06 C 44.96 30.37 45.02 28.68 45.05 27.00 C 45.07 26.62 45.09 25.87 45.10 25.49 C 45.38 24.91 45.93 23.75 46.20 23.17 Z" />
</g>
<g id="#483222f8">
<path fill="#483222" opacity="0.97" d=" M 41.20 22.96 C 41.90 22.97 43.30 23.00 44.01 23.01 C 44.28 23.63 44.83 24.87 45.10 25.49 C 45.09 25.87 45.07 26.62 45.05 27.00 L 44.32 26.79 C 42.93 26.34 41.49 26.08 40.05 25.85 L 39.87 24.97 C 40.21 24.46 40.87 23.46 41.20 22.96 Z" />
</g>
<g id="#eacbb1fe">
<path fill="#eacbb1" opacity="1.00" d=" M 21.84 25.92 C 22.10 25.34 22.63 24.19 22.89 23.61 C 23.54 24.46 24.19 25.31 24.83 26.16 L 25.28 26.86 C 23.96 29.75 24.12 32.23 25.77 34.30 L 26.30 35.08 C 24.90 35.03 23.49 34.95 22.09 34.85 C 21.97 32.16 21.86 29.47 21.74 26.78 L 21.84 25.92 Z" />
</g>
<g id="#1a11096b">
<path fill="#1a1109" opacity="0.42" d=" M 8.21 25.99 C 7.40 22.88 14.94 25.73 17.14 25.06 L 17.02 26.01 C 15.64 26.05 14.26 26.09 12.87 26.13 C 11.32 26.07 9.77 26.02 8.21 25.99 Z" />
</g>
<g id="#291b106f">
<path fill="#291b10" opacity="0.44" d=" M 24.89 25.08 C 29.89 24.95 34.88 25.01 39.87 24.97 L 40.05 25.85 C 35.99 25.89 31.93 25.94 27.87 26.02 C 27.11 26.06 25.59 26.13 24.83 26.16 L 24.89 25.08 Z" />
</g>
<g id="#432b16f9">
<path fill="#432b16" opacity="0.98" d=" M 8.21 25.99 C 9.77 26.02 11.32 26.07 12.87 26.13 L 13.17 27.10 L 13.37 27.76 C 13.51 28.11 13.80 28.81 13.94 29.15 C 13.15 32.40 9.74 32.23 7.00 32.97 C 7.21 30.61 7.90 28.33 8.21 25.99 Z" />
</g>
<g id="#835934ff">
<path fill="#835934" opacity="1.00" d=" M 12.87 26.13 C 14.26 26.09 15.64 26.05 17.02 26.01 C 17.76 25.99 19.23 25.97 19.96 25.95 C 20.43 25.94 21.37 25.93 21.84 25.92 L 21.74 26.78 C 21.38 29.25 21.03 31.73 20.67 34.20 C 19.87 32.44 19.32 28.26 17.11 31.22 C 17.47 36.83 15.37 43.95 19.28 48.75 C 30.55 52.51 43.57 51.93 54.72 47.73 C 57.74 42.03 55.44 35.42 52.93 30.01 C 51.93 30.62 51.00 31.32 50.06 32.01 C 50.05 30.70 50.05 29.39 50.03 28.08 C 51.59 28.36 53.17 28.41 54.74 28.14 C 54.14 30.69 56.03 32.92 56.76 35.25 C 57.31 38.07 58.11 40.88 57.90 43.78 C 56.88 46.07 56.74 48.98 54.72 50.68 C 43.23 53.31 30.82 54.65 19.29 51.66 C 14.71 48.38 16.77 41.46 15.18 36.78 C 14.15 34.71 17.53 28.68 13.94 29.15 C 13.80 28.81 13.51 28.11 13.37 27.76 C 17.06 30.54 25.21 25.62 14.91 26.80 C 14.48 26.88 13.61 27.03 13.17 27.10 L 12.87 26.13 Z" />
</g>
<g id="#8a613fff">
<path fill="#8a613f" opacity="1.00" d=" M 24.83 26.16 C 25.59 26.13 27.11 26.06 27.87 26.02 L 27.79 26.84 C 27.78 27.18 27.78 27.86 27.78 28.19 C 27.87 28.93 28.06 30.39 28.15 31.13 C 28.08 32.78 27.82 34.38 25.77 34.30 C 27.06 31.50 26.90 29.02 25.28 26.86 L 24.83 26.16 Z" />
</g>
<g id="#907057ff">
<path fill="#907057" opacity="1.00" d=" M 27.87 26.02 C 31.93 25.94 35.99 25.89 40.05 25.85 C 41.49 26.08 42.93 26.34 44.32 26.79 C 38.81 26.92 33.29 27.15 27.79 26.84 L 27.87 26.02 Z" />
</g>
<g id="#89715efb">
<path fill="#89715e" opacity="1.00" d=" M 49.85 26.09 C 51.81 26.47 57.33 24.43 55.68 28.01 L 54.74 28.14 C 53.17 28.41 51.59 28.36 50.03 28.08 C 49.99 27.58 49.90 26.58 49.85 26.09 Z" />
</g>
<g id="#ad9d8fff">
<path fill="#ad9d8f" opacity="1.00" d=" M 13.17 27.10 C 13.61 27.03 14.48 26.88 14.91 26.80 C 25.21 25.62 17.06 30.54 13.37 27.76 L 13.17 27.10 Z" />
</g>
<g id="#c9b2a1ff">
<path fill="#c9b2a1" opacity="1.00" d=" M 20.67 34.20 C 21.03 31.73 21.38 29.25 21.74 26.78 C 21.86 29.47 21.97 32.16 22.09 34.85 C 23.49 34.95 24.90 35.03 26.30 35.08 L 27.15 35.43 C 24.79 36.18 22.59 36.05 20.56 35.04 L 20.67 34.20 Z" />
</g>
<g id="#d7b498ff">
<path fill="#d7b498" opacity="1.00" d=" M 25.28 26.86 C 26.90 29.02 27.06 31.50 25.77 34.30 C 24.12 32.23 23.96 29.75 25.28 26.86 Z" />
</g>
<g id="#bfa796ff">
<path fill="#bfa796" opacity="1.00" d=" M 27.78 28.19 C 27.78 27.86 27.78 27.18 27.79 26.84 C 33.29 27.15 38.81 26.92 44.32 26.79 C 44.01 27.12 43.38 27.77 43.06 28.09 C 37.97 28.07 32.87 27.87 27.78 28.19 Z" />
</g>
<g id="#8e613cff">
<path fill="#8e613c" opacity="1.00" d=" M 44.32 26.79 L 45.05 27.00 C 45.02 28.68 44.96 30.37 44.87 32.06 C 44.34 31.84 43.27 31.39 42.74 31.16 C 42.82 30.40 42.98 28.86 43.06 28.09 C 43.38 27.77 44.01 27.12 44.32 26.79 Z" />
</g>
<g id="#aa7749ff">
<path fill="#aa7749" opacity="1.00" d=" M 27.78 28.19 C 32.87 27.87 37.97 28.07 43.06 28.09 C 42.98 28.86 42.82 30.40 42.74 31.16 C 37.93 29.82 32.96 29.91 28.15 31.13 C 28.06 30.39 27.87 28.93 27.78 28.19 Z" />
</g>
<g id="#5f4025ef">
<path fill="#5f4025" opacity="0.94" d=" M 54.74 28.14 L 55.68 28.01 C 56.40 30.36 57.33 32.76 56.76 35.25 C 56.03 32.92 54.14 30.69 54.74 28.14 Z" />
</g>
<g id="#5d3d21fc">
<path fill="#5d3d21" opacity="1.00" d=" M 13.94 29.15 C 17.53 28.68 14.15 34.71 15.18 36.78 C 15.18 42.64 14.05 50.49 19.27 54.72 C 28.63 55.91 38.04 55.37 47.42 54.62 C 51.12 54.50 55.40 53.90 57.81 50.75 C 57.83 49.00 57.88 45.52 57.90 43.78 C 58.11 40.88 57.31 38.07 56.76 35.25 L 57.75 35.07 C 58.80 39.87 60.59 44.81 59.70 49.76 C 59.07 51.44 59.18 53.51 57.73 54.76 C 52.25 57.39 45.86 56.54 40.01 57.18 C 32.44 58.05 24.80 58.36 17.20 57.85 C 15.29 56.49 14.97 54.26 14.74 52.10 C 12.84 51.48 13.09 53.47 12.74 54.71 C 8.21 54.70 4.82 51.34 4.12 46.96 C 3.86 42.24 5.07 37.26 7.00 32.97 C 9.74 32.23 13.15 32.40 13.94 29.15 Z" />
</g>
<g id="#98663aff">
<path fill="#98663a" opacity="1.00" d=" M 17.11 31.22 C 19.32 28.26 19.87 32.44 20.67 34.20 L 20.56 35.04 C 19.99 35.68 19.47 36.34 18.97 37.04 L 18.95 38.01 L 19.00 38.98 C 19.45 39.64 19.94 40.29 20.45 40.91 L 20.46 41.71 C 19.31 44.37 21.18 46.60 23.73 47.32 C 32.82 50.14 43.22 49.71 52.02 46.03 C 57.32 43.90 54.57 37.13 52.73 33.27 C 52.30 33.21 51.43 33.07 51.00 33.01 L 50.04 32.88 L 50.06 32.01 C 51.00 31.32 51.93 30.62 52.93 30.01 C 55.44 35.42 57.74 42.03 54.72 47.73 C 43.57 51.93 30.55 52.51 19.28 48.75 C 15.37 43.95 17.47 36.83 17.11 31.22 Z" />
</g>
<g id="#b8804cff">
<path fill="#b8804c" opacity="1.00" d=" M 28.15 31.13 C 32.96 29.91 37.93 29.82 42.74 31.16 C 43.27 31.39 44.34 31.84 44.87 32.06 L 44.84 32.85 C 44.18 33.54 43.62 34.31 43.14 35.14 L 42.69 35.99 C 39.38 31.68 32.20 32.83 28.25 35.88 C 27.97 35.77 27.42 35.54 27.15 35.43 L 26.30 35.08 L 25.77 34.30 C 27.82 34.38 28.08 32.78 28.15 31.13 Z" />
</g>
<g id="#c68950ff">
<path fill="#c68950" opacity="1.00" d=" M 28.25 35.88 C 32.20 32.83 39.38 31.68 42.69 35.99 L 43.05 36.91 L 43.26 37.81 C 42.88 39.84 43.62 42.46 41.77 43.89 C 37.22 44.01 32.65 44.25 28.11 43.92 C 28.00 42.59 27.93 41.26 27.91 39.93 L 27.94 38.99 L 28.00 37.96 L 28.10 36.88 L 28.25 35.88 Z" />
</g>
<g id="#b0adadff">
<path fill="#b0adad" opacity="1.00" d=" M 43.14 35.14 C 43.62 34.31 44.18 33.54 44.84 32.85 C 46.57 32.89 48.31 32.90 50.04 32.88 L 51.00 33.01 C 51.24 33.52 51.71 34.54 51.94 35.05 C 49.01 35.04 46.08 34.99 43.14 35.14 Z" />
</g>
<g id="#a57040ff">
<path fill="#a57040" opacity="1.00" d=" M 51.00 33.01 C 51.43 33.07 52.30 33.21 52.73 33.27 C 54.57 37.13 57.32 43.90 52.02 46.03 C 43.22 49.71 32.82 50.14 23.73 47.32 C 24.26 47.06 25.32 46.55 25.85 46.29 C 32.53 46.55 40.11 48.86 46.32 45.42 C 50.61 44.91 51.84 40.76 51.87 36.94 L 51.98 36.00 L 51.94 35.05 C 51.71 34.54 51.24 33.52 51.00 33.01 Z" />
</g>
<g id="#a19c9bff">
<path fill="#a19c9b" opacity="1.00" d=" M 18.97 37.04 C 19.47 36.34 19.99 35.68 20.56 35.04 C 22.59 36.05 24.79 36.18 27.15 35.43 C 27.42 35.54 27.97 35.77 28.25 35.88 L 28.10 36.88 C 25.05 36.94 22.01 36.97 18.97 37.04 Z" />
</g>
<g id="#e5e1e0ff">
<path fill="#e5e1e0" opacity="1.00" d=" M 43.14 35.14 C 46.08 34.99 49.01 35.04 51.94 35.05 L 51.98 36.00 C 48.88 36.00 45.79 36.01 42.69 35.99 L 43.14 35.14 Z" />
<path fill="#e5e1e0" opacity="1.00" d=" M 18.97 37.04 C 22.01 36.97 25.05 36.94 28.10 36.88 L 28.00 37.96 C 24.98 37.98 21.97 38.00 18.95 38.01 L 18.97 37.04 Z" />
</g>
<g id="#716863ff">
<path fill="#716863" opacity="1.00" d=" M 42.69 35.99 C 45.79 36.01 48.88 36.00 51.98 36.00 L 51.87 36.94 C 48.93 36.95 45.99 37.00 43.05 36.91 L 42.69 35.99 Z" />
</g>
<g id="#724c2aff">
<path fill="#724c2a" opacity="1.00" d=" M 15.18 36.78 C 16.77 41.46 14.71 48.38 19.29 51.66 C 30.82 54.65 43.23 53.31 54.72 50.68 C 56.74 48.98 56.88 46.07 57.90 43.78 C 57.88 45.52 57.83 49.00 57.81 50.75 C 55.40 53.90 51.12 54.50 47.42 54.62 C 38.04 55.37 28.63 55.91 19.27 54.72 C 14.05 50.49 15.18 42.64 15.18 36.78 Z" />
</g>
<g id="#775030ff">
<path fill="#775030" opacity="1.00" d=" M 43.05 36.91 C 45.99 37.00 48.93 36.95 51.87 36.94 C 51.84 40.76 50.61 44.91 46.32 45.42 C 44.53 43.24 43.65 40.61 43.26 37.81 L 43.05 36.91 M 44.99 38.01 C 44.65 40.28 45.13 42.50 47.18 43.78 C 51.16 43.39 51.81 33.54 44.99 38.01 Z" />
</g>
<g id="#807b79ff">
<path fill="#807b79" opacity="1.00" d=" M 18.95 38.01 C 21.97 38.00 24.98 37.98 28.00 37.96 L 27.94 38.99 C 24.96 38.99 21.98 39.02 19.00 38.98 L 18.95 38.01 Z" />
</g>
<g id="#b47a46ff">
<path fill="#b47a46" opacity="1.00" d=" M 43.26 37.81 C 43.65 40.61 44.53 43.24 46.32 45.42 C 40.11 48.86 32.53 46.55 25.85 46.29 C 26.70 44.88 27.05 43.31 26.54 41.71 L 26.41 40.79 C 26.79 40.58 27.54 40.15 27.91 39.93 C 27.93 41.26 28.00 42.59 28.11 43.92 C 32.65 44.25 37.22 44.01 41.77 43.89 C 43.62 42.46 42.88 39.84 43.26 37.81 Z" />
</g>
<g id="#dfbb9bff">
<path fill="#dfbb9b" opacity="1.00" d=" M 44.99 38.01 C 51.81 33.54 51.16 43.39 47.18 43.78 C 45.13 42.50 44.65 40.28 44.99 38.01 Z" />
</g>
<g id="#66462cff">
<path fill="#66462c" opacity="1.00" d=" M 19.00 38.98 C 21.98 39.02 24.96 38.99 27.94 38.99 L 27.91 39.93 C 27.54 40.15 26.79 40.58 26.41 40.79 C 24.92 40.82 21.94 40.88 20.45 40.91 C 19.94 40.29 19.45 39.64 19.00 38.98 Z" />
</g>
<g id="#dcb798ff">
<path fill="#dcb798" opacity="1.00" d=" M 20.45 40.91 C 21.94 40.88 24.92 40.82 26.41 40.79 L 26.54 41.71 C 25.76 42.72 25.67 45.27 23.98 44.99 C 21.86 45.41 21.48 42.97 20.46 41.71 L 20.45 40.91 Z" />
</g>
<g id="#774e2cff">
<path fill="#774e2c" opacity="1.00" d=" M 23.73 47.32 C 21.18 46.60 19.31 44.37 20.46 41.71 C 21.48 42.97 21.86 45.41 23.98 44.99 C 25.67 45.27 25.76 42.72 26.54 41.71 C 27.05 43.31 26.70 44.88 25.85 46.29 C 25.32 46.55 24.26 47.06 23.73 47.32 Z" />
</g>
<g id="#130c065b">
<path fill="#130c06" opacity="0.36" d=" M 3.90 53.83 C 2.27 52.81 2.20 47.91 4.12 46.96 C 4.07 48.68 3.96 52.11 3.90 53.83 Z" />
</g>
<g id="#3c2613f4">
<path fill="#3c2613" opacity="0.96" d=" M 4.12 46.96 C 4.82 51.34 8.21 54.70 12.74 54.71 C 13.09 53.47 12.84 51.48 14.74 52.10 C 14.97 54.26 15.29 56.49 17.20 57.85 C 24.80 58.36 32.44 58.05 40.01 57.18 C 45.86 56.54 52.25 57.39 57.73 54.76 C 59.18 53.51 59.07 51.44 59.70 49.76 C 61.72 51.66 61.19 54.66 59.69 56.69 C 58.45 59.64 54.55 57.56 52.00 57.99 C 49.22 58.03 46.40 57.86 43.71 58.61 C 41.15 58.89 38.58 59.02 36.00 58.99 C 33.22 59.04 30.42 58.91 27.70 59.58 C 23.60 59.72 19.39 60.91 15.30 60.58 C 11.36 58.81 6.12 57.32 3.90 53.83 C 3.96 52.11 4.07 48.68 4.12 46.96 Z" />
</g>
<g id="#180f0778">
<path fill="#180f07" opacity="0.47" d=" M 43.71 58.61 C 46.40 57.86 49.22 58.03 52.00 57.99 C 51.09 60.28 46.14 58.58 43.71 58.61 Z" />
</g>
<g id="#19100782">
<path fill="#191007" opacity="0.51" d=" M 27.70 59.58 C 30.42 58.91 33.22 59.04 36.00 58.99 C 35.09 61.27 30.13 59.60 27.70 59.58 Z" />
</g>
</svg>
