<?xml version="1.0" encoding="UTF-8" ?>
<!DOCTYPE svg PUBLIC "-//W3C//DTD SVG 1.1//EN" "http://www.w3.org/Graphics/SVG/1.1/DTD/svg11.dtd">
<svg width="64pt" height="64pt" viewBox="0 0 64 64" version="1.1" xmlns="http://www.w3.org/2000/svg">
<g id="#8e4f6fff">
<path fill="#8e4f6f" opacity="1.00" d=" M 22.29 3.23 C 28.77 3.21 35.24 3.22 41.71 3.23 C 42.79 4.69 43.89 6.15 44.99 7.59 C 44.41 8.32 43.83 9.05 43.26 9.79 C 42.66 10.57 42.07 11.35 41.48 12.13 C 39.07 11.80 36.73 11.13 34.52 10.12 C 35.60 9.07 36.62 7.96 37.64 6.85 C 33.90 6.64 30.16 6.60 26.42 6.73 C 27.41 7.88 28.40 9.03 29.46 10.12 C 27.23 11.07 24.89 11.71 22.52 12.19 C 22.17 11.71 21.47 10.77 21.11 10.30 C 20.43 9.38 19.74 8.47 19.06 7.56 C 20.14 6.12 21.22 4.68 22.29 3.23 M 24.19 3.85 C 24.37 4.42 24.72 5.57 24.90 6.14 C 29.62 6.36 34.35 6.35 39.07 6.15 C 39.29 5.59 39.73 4.48 39.95 3.92 C 34.70 3.74 29.44 3.66 24.19 3.85 Z" />
</g>
<g id="#683245ff">
<path fill="#683245" opacity="1.00" d=" M 24.19 3.85 C 29.44 3.66 34.70 3.74 39.95 3.92 C 39.73 4.48 39.29 5.59 39.07 6.15 C 34.35 6.35 29.62 6.36 24.90 6.14 C 24.72 5.57 24.37 4.42 24.19 3.85 Z" />
</g>
<g id="#9e7496ff">
<path fill="#9e7496" opacity="1.00" d=" M 26.42 6.73 C 30.16 6.60 33.90 6.64 37.64 6.85 C 36.62 7.96 35.60 9.07 34.52 10.12 C 33.69 10.77 32.83 11.39 31.97 12.02 C 31.13 11.39 30.28 10.77 29.46 10.12 C 28.40 9.03 27.41 7.88 26.42 6.73 Z" />
</g>
<g id="#b7749dff">
<path fill="#b7749d" opacity="1.00" d=" M 10.46 11.05 C 13.17 9.52 16.10 8.49 19.06 7.56 C 19.74 8.47 20.43 9.38 21.11 10.30 C 18.23 11.30 14.23 11.60 13.03 14.95 C 13.54 18.64 18.56 18.88 19.39 22.40 C 20.17 24.02 20.46 25.93 21.68 27.31 C 23.88 28.86 26.92 28.44 29.22 27.32 C 30.79 23.14 30.32 18.61 29.42 14.34 C 31.22 13.54 33.23 13.41 35.02 14.33 C 34.02 14.81 33.04 15.33 32.08 15.87 C 31.62 17.23 32.21 18.06 33.85 18.33 C 33.06 18.89 32.27 19.44 31.49 19.99 C 31.88 20.22 32.66 20.66 33.05 20.88 C 31.43 21.92 32.92 24.00 34.51 23.15 C 33.66 23.74 32.79 24.32 31.92 24.88 C 32.23 25.11 32.84 25.56 33.14 25.78 C 32.89 26.12 32.38 26.80 32.12 27.13 C 31.25 29.30 34.08 28.73 35.21 28.37 C 37.56 27.96 40.08 28.22 42.32 27.32 C 44.12 25.25 44.68 22.44 45.70 19.96 C 48.23 18.81 51.41 17.36 50.99 13.99 C 49.50 11.16 45.94 10.86 43.26 9.79 C 43.83 9.05 44.41 8.32 44.99 7.59 C 47.66 8.40 50.30 9.34 52.77 10.65 C 52.03 14.73 51.85 19.53 48.10 22.14 C 45.55 24.57 43.78 27.64 42.30 30.81 C 44.91 34.87 44.62 40.19 42.25 44.28 C 40.14 45.70 36.95 45.54 35.10 43.70 C 34.80 43.45 34.19 42.94 33.88 42.69 C 33.46 42.35 32.61 41.68 32.18 41.34 C 32.15 40.73 32.09 39.51 32.06 38.90 C 33.45 39.68 34.43 39.40 35.00 38.06 C 34.38 36.74 33.38 36.46 32.02 37.21 C 32.01 36.41 32.00 34.83 32.00 34.04 C 33.07 34.55 35.57 34.02 34.85 32.41 C 34.38 32.02 33.45 31.24 32.98 30.86 C 32.00 30.05 31.04 29.22 30.10 28.38 C 30.28 33.50 30.82 38.93 28.72 43.75 C 26.34 44.30 23.08 44.82 21.31 42.69 C 19.05 38.82 19.46 33.75 22.46 30.38 C 21.39 29.19 20.30 28.01 19.29 26.76 C 16.13 21.61 11.31 17.36 10.46 11.05 Z" />
</g>
<g id="#663a50ff">
<path fill="#663a50" opacity="1.00" d=" M 22.52 12.19 C 24.89 11.71 27.23 11.07 29.46 10.12 C 30.28 10.77 31.13 11.39 31.97 12.02 C 32.83 11.39 33.69 10.77 34.52 10.12 C 36.73 11.13 39.07 11.80 41.48 12.13 C 40.52 13.37 39.55 14.61 38.58 15.85 C 37.40 15.33 36.23 14.79 35.02 14.33 C 33.23 13.41 31.22 13.54 29.42 14.34 C 28.13 14.77 26.88 15.31 25.56 15.62 C 24.38 14.63 23.47 13.39 22.52 12.19 Z" />
</g>
<g id="#d297c4ff">
<path fill="#d297c4" opacity="1.00" d=" M 43.26 9.79 C 45.94 10.86 49.50 11.16 50.99 13.99 C 51.41 17.36 48.23 18.81 45.70 19.96 C 44.68 22.44 44.12 25.25 42.32 27.32 C 40.08 28.22 37.56 27.96 35.21 28.37 C 34.75 27.32 34.06 26.46 33.14 25.78 C 32.84 25.56 32.23 25.11 31.92 24.88 C 32.79 24.32 33.66 23.74 34.51 23.15 C 34.81 22.06 34.32 21.30 33.05 20.88 C 32.66 20.66 31.88 20.22 31.49 19.99 C 32.27 19.44 33.06 18.89 33.85 18.33 C 36.29 17.39 33.81 14.72 32.08 15.87 C 33.04 15.33 34.02 14.81 35.02 14.33 C 36.23 14.79 37.40 15.33 38.58 15.85 C 39.55 14.61 40.52 13.37 41.48 12.13 C 42.07 11.35 42.66 10.57 43.26 9.79 Z" />
</g>
<g id="#804666ff">
<path fill="#804666" opacity="1.00" d=" M 8.07 12.54 C 8.87 12.05 9.66 11.55 10.46 11.05 C 11.31 17.36 16.13 21.61 19.29 26.76 C 17.29 34.02 17.76 41.59 17.82 49.03 C 18.00 50.85 17.78 53.31 19.65 54.35 C 22.68 55.99 26.36 56.81 29.75 55.94 C 30.75 51.09 29.72 45.85 32.18 41.34 C 32.61 41.68 33.46 42.35 33.88 42.69 C 34.19 42.94 34.80 43.45 35.10 43.70 C 33.62 44.65 32.19 45.69 30.83 46.80 C 31.92 46.98 34.09 47.33 35.18 47.51 C 34.01 48.69 32.83 49.86 31.74 51.12 C 32.57 51.84 33.41 52.53 34.28 53.19 C 34.42 53.55 34.69 54.27 34.83 54.63 C 34.14 54.80 32.77 55.13 32.09 55.30 C 32.13 55.93 32.22 57.18 32.26 57.80 C 36.53 57.47 41.04 57.78 45.04 56.02 C 47.26 54.77 47.60 52.05 47.18 49.77 C 46.26 43.54 47.00 37.25 46.67 30.99 C 46.54 28.42 46.96 25.86 47.74 23.42 C 47.72 34.83 48.27 46.27 50.42 57.50 C 41.55 60.17 32.07 61.81 22.89 59.76 C 19.87 59.00 16.32 58.94 13.79 57.14 C 15.42 45.83 16.72 34.41 16.00 22.96 C 14.89 22.83 13.78 22.69 12.66 22.55 C 11.11 19.22 9.51 15.92 8.07 12.54 Z" />
</g>
<g id="#d197c3ff">
<path fill="#d197c3" opacity="1.00" d=" M 13.03 14.95 C 14.23 11.60 18.23 11.30 21.11 10.30 C 21.47 10.77 22.17 11.71 22.52 12.19 C 23.47 13.39 24.38 14.63 25.56 15.62 C 26.88 15.31 28.13 14.77 29.42 14.34 C 30.32 18.61 30.79 23.14 29.22 27.32 C 26.92 28.44 23.88 28.86 21.68 27.31 C 20.46 25.93 20.17 24.02 19.39 22.40 C 18.56 18.88 13.54 18.64 13.03 14.95 Z" />
</g>
<g id="#904077ff">
<path fill="#904077" opacity="1.00" d=" M 52.77 10.65 C 53.82 11.50 54.88 12.34 55.94 13.18 C 54.77 16.37 53.58 19.56 52.43 22.76 C 50.92 22.77 49.42 22.80 47.92 22.77 L 48.10 22.14 C 51.85 19.53 52.03 14.73 52.77 10.65 Z" />
</g>
<g id="#985373ff">
<path fill="#985373" opacity="1.00" d=" M 32.08 15.87 C 33.81 14.72 36.29 17.39 33.85 18.33 C 32.21 18.06 31.62 17.23 32.08 15.87 Z" />
</g>
<g id="#934e6cff">
<path fill="#934e6c" opacity="1.00" d=" M 33.05 20.88 C 34.32 21.30 34.81 22.06 34.51 23.15 C 32.92 24.00 31.43 21.92 33.05 20.88 Z" />
</g>
<g id="#a65e86ff">
<path fill="#a65e86" opacity="1.00" d=" M 42.30 30.81 C 43.78 27.64 45.55 24.57 48.10 22.14 L 47.92 22.77 L 47.74 23.42 C 46.96 25.86 46.54 28.42 46.67 30.99 C 47.00 37.25 46.26 43.54 47.18 49.77 C 47.60 52.05 47.26 54.77 45.04 56.02 C 41.04 57.78 36.53 57.47 32.26 57.80 C 32.22 57.18 32.13 55.93 32.09 55.30 C 32.77 55.13 34.14 54.80 34.83 54.63 C 34.69 54.27 34.42 53.55 34.28 53.19 C 33.41 52.53 32.57 51.84 31.74 51.12 C 32.83 49.86 34.01 48.69 35.18 47.51 C 34.09 47.33 31.92 46.98 30.83 46.80 C 32.19 45.69 33.62 44.65 35.10 43.70 C 36.95 45.54 40.14 45.70 42.25 44.28 C 44.62 40.19 44.91 34.87 42.30 30.81 Z" />
</g>
<g id="#975272ff">
<path fill="#975272" opacity="1.00" d=" M 33.14 25.78 C 34.06 26.46 34.75 27.32 35.21 28.37 C 34.08 28.73 31.25 29.30 32.12 27.13 C 32.38 26.80 32.89 26.12 33.14 25.78 Z" />
</g>
<g id="#aa6188ff">
<path fill="#aa6188" opacity="1.00" d=" M 19.29 26.76 C 20.30 28.01 21.39 29.19 22.46 30.38 C 19.46 33.75 19.05 38.82 21.31 42.69 C 23.08 44.82 26.34 44.30 28.72 43.75 C 30.82 38.93 30.28 33.50 30.10 28.38 C 31.04 29.22 32.00 30.05 32.98 30.86 C 32.21 31.78 31.88 32.84 32.00 34.04 C 32.00 34.83 32.01 36.41 32.02 37.21 C 32.03 37.63 32.05 38.47 32.06 38.90 C 32.09 39.51 32.15 40.73 32.18 41.34 C 29.72 45.85 30.75 51.09 29.75 55.94 C 26.36 56.81 22.68 55.99 19.65 54.35 C 17.78 53.31 18.00 50.85 17.82 49.03 C 17.76 41.59 17.29 34.02 19.29 26.76 Z" />
</g>
<g id="#944f6eff">
<path fill="#944f6e" opacity="1.00" d=" M 32.98 30.86 C 33.45 31.24 34.38 32.02 34.85 32.41 C 35.57 34.02 33.07 34.55 32.00 34.04 C 31.88 32.84 32.21 31.78 32.98 30.86 Z" />
</g>
<g id="#904a67ff">
<path fill="#904a67" opacity="1.00" d=" M 32.02 37.21 C 33.38 36.46 34.38 36.74 35.00 38.06 C 34.43 39.40 33.45 39.68 32.06 38.90 C 32.05 38.47 32.03 37.63 32.02 37.21 Z" />
</g>
</svg>
