<?xml version="1.0" encoding="UTF-8" ?>
<!DOCTYPE svg PUBLIC "-//W3C//DTD SVG 1.1//EN" "http://www.w3.org/Graphics/SVG/1.1/DTD/svg11.dtd">
<svg width="64pt" height="64pt" viewBox="0 0 64 64" version="1.1" xmlns="http://www.w3.org/2000/svg">
<g id="#0c0202ff">
<path fill="#0c0202" opacity="1.00" d=" M 4.86 18.94 C 9.00 14.39 12.73 9.50 17.09 5.16 C 21.22 8.98 25.32 12.96 30.12 15.92 C 33.40 16.69 36.80 16.16 40.10 15.89 C 39.86 16.31 39.38 17.14 39.14 17.56 C 38.29 17.89 37.42 18.19 36.56 18.49 C 33.30 18.59 29.93 19.01 26.75 18.06 C 23.34 16.96 21.09 13.91 19.42 10.91 C 18.69 9.49 17.92 8.08 17.17 6.67 C 16.48 10.92 14.37 14.67 11.85 18.09 C 10.67 17.95 9.49 17.81 8.30 17.68 C 9.28 19.01 10.22 20.37 11.26 21.66 C 13.17 23.72 15.37 25.46 17.59 27.16 C 18.75 28.10 19.92 29.02 21.10 29.94 C 25.38 33.06 29.26 36.75 32.18 41.20 C 28.09 40.51 25.57 36.89 22.26 34.76 C 15.44 30.20 9.00 25.05 1.84 21.01 C 2.95 20.49 4.08 19.92 4.86 18.94 Z" />
</g>
<g id="#42231dff">
<path fill="#42231d" opacity="1.00" d=" M 17.17 6.67 C 17.92 8.08 18.69 9.49 19.42 10.91 C 19.69 12.62 19.98 14.33 20.69 15.92 C 19.19 17.89 17.62 19.82 16.01 21.71 C 14.42 21.69 12.84 21.67 11.26 21.66 C 10.22 20.37 9.28 19.01 8.30 17.68 C 9.49 17.81 10.67 17.95 11.85 18.09 C 14.37 14.67 16.48 10.92 17.17 6.67 Z" />
</g>
<g id="#a8763eff">
<path fill="#a8763e" opacity="1.00" d=" M 20.69 15.92 C 19.98 14.33 19.69 12.62 19.42 10.91 C 21.09 13.91 23.34 16.96 26.75 18.06 C 29.93 19.01 33.30 18.59 36.56 18.49 C 33.69 20.47 30.22 20.73 26.86 20.23 C 24.17 19.97 22.45 17.69 20.69 15.92 Z" />
</g>
<g id="#000000ff">
<path fill="#000000" opacity="1.00" d=" M 40.10 15.89 C 41.88 15.19 43.78 14.89 45.65 14.54 C 46.82 20.08 48.42 25.55 48.92 31.21 C 46.74 31.48 44.58 31.85 42.43 32.25 C 40.78 32.15 39.13 32.00 37.49 31.81 C 39.17 31.18 40.87 30.64 42.61 30.23 C 44.45 29.83 46.47 29.89 48.12 28.85 C 47.99 28.43 47.74 27.57 47.61 27.15 C 45.45 27.27 43.38 27.98 41.26 28.34 C 39.77 28.29 38.29 28.21 36.82 28.09 C 37.11 27.68 37.70 26.86 37.99 26.45 C 41.13 26.08 44.26 25.61 47.36 24.99 C 47.32 24.36 47.24 23.11 47.20 22.48 C 44.60 23.04 42.03 23.73 39.42 24.23 C 38.43 23.89 36.46 23.21 35.47 22.87 C 37.14 22.49 38.81 22.12 40.49 21.76 C 42.58 21.32 44.67 20.88 46.75 20.41 C 46.46 19.69 45.88 18.26 45.59 17.55 C 44.98 16.70 44.35 15.87 43.70 15.07 C 42.80 15.27 41.00 15.68 40.10 15.89 Z" />
<path fill="#000000" opacity="1.00" d=" M 46.21 33.48 C 46.60 33.16 47.38 32.53 47.77 32.21 C 47.77 32.99 47.76 34.55 47.75 35.33 C 46.33 35.56 44.91 35.79 43.48 36.00 C 42.92 36.03 41.79 36.08 41.23 36.10 C 40.49 36.13 39.01 36.17 38.27 36.20 C 38.36 35.72 38.54 34.76 38.63 34.28 C 41.15 33.94 43.69 33.82 46.21 33.48 Z" />
<path fill="#000000" opacity="1.00" d=" M 61.73 48.75 C 61.51 52.00 63.92 55.65 61.65 58.54 C 59.98 61.97 55.58 60.46 52.58 60.55 L 53.31 60.48 C 55.05 60.26 56.75 59.80 58.46 59.38 C 57.11 58.78 55.76 58.19 54.40 57.61 C 55.62 57.09 56.85 56.58 58.05 56.02 C 61.11 55.01 61.74 51.56 61.73 48.75 Z" />
</g>
<g id="#75443cff">
<path fill="#75443c" opacity="1.00" d=" M 20.69 15.92 C 22.45 17.69 24.17 19.97 26.86 20.23 C 28.96 20.75 31.33 20.73 33.20 21.91 C 34.66 23.72 35.33 26.00 36.36 28.06 C 36.47 28.07 36.70 28.08 36.82 28.09 C 38.29 28.21 39.77 28.29 41.26 28.34 C 39.99 28.61 38.73 28.88 37.47 29.16 C 39.17 29.55 40.89 29.91 42.61 30.23 C 40.87 30.64 39.17 31.18 37.49 31.81 C 39.13 32.00 40.78 32.15 42.43 32.25 C 41.19 32.61 39.98 33.03 38.79 33.51 C 34.61 35.66 36.96 41.12 39.03 44.00 C 38.42 44.55 37.81 45.11 37.20 45.66 C 37.16 45.57 37.09 45.40 37.05 45.31 C 35.10 39.59 32.12 33.63 26.90 30.28 C 23.68 28.35 20.40 26.55 17.05 24.87 L 17.59 27.16 C 15.37 25.46 13.17 23.72 11.26 21.66 C 12.84 21.67 14.42 21.69 16.01 21.71 C 17.62 19.82 19.19 17.89 20.69 15.92 Z" />
</g>
<g id="#966c60ff">
<path fill="#966c60" opacity="1.00" d=" M 40.10 15.89 C 41.00 15.68 42.80 15.27 43.70 15.07 C 44.35 15.87 44.98 16.70 45.59 17.55 C 43.85 17.89 42.11 18.12 40.38 18.46 C 40.41 19.56 40.45 20.66 40.49 21.76 C 38.81 22.12 37.14 22.49 35.47 22.87 C 36.46 23.21 38.43 23.89 39.42 24.23 C 39.06 24.79 38.35 25.89 37.99 26.45 C 37.70 26.86 37.11 27.68 36.82 28.09 C 36.70 28.08 36.47 28.07 36.36 28.06 C 35.33 26.00 34.66 23.72 33.20 21.91 C 31.33 20.73 28.96 20.75 26.86 20.23 C 30.22 20.73 33.69 20.47 36.56 18.49 C 37.42 18.19 38.29 17.89 39.14 17.56 C 39.38 17.14 39.86 16.31 40.10 15.89 Z" />
</g>
<g id="#bc9b8cff">
<path fill="#bc9b8c" opacity="1.00" d=" M 40.38 18.46 C 42.11 18.12 43.85 17.89 45.59 17.55 C 45.88 18.26 46.46 19.69 46.75 20.41 C 44.67 20.88 42.58 21.32 40.49 21.76 C 40.45 20.66 40.41 19.56 40.38 18.46 Z" />
</g>
<g id="#26110cff">
<path fill="#26110c" opacity="1.00" d=" M 1.79 26.02 C 0.63 24.56 0.72 22.46 1.84 21.01 C 9.00 25.05 15.44 30.20 22.26 34.76 C 25.57 36.89 28.09 40.51 32.18 41.20 C 32.31 41.38 32.57 41.73 32.70 41.90 C 34.20 44.42 35.55 47.28 38.32 48.64 C 44.43 52.10 50.85 55.74 58.05 56.02 C 56.85 56.58 55.62 57.09 54.40 57.61 C 55.76 58.19 57.11 58.78 58.46 59.38 C 56.75 59.80 55.05 60.26 53.31 60.48 C 49.33 60.01 45.59 58.49 42.07 56.63 C 37.14 53.93 32.54 50.52 28.67 46.42 C 26.55 44.32 25.90 41.21 23.87 39.08 C 20.52 38.31 16.80 39.18 13.72 37.28 C 8.98 34.51 4.82 30.61 1.79 26.02 Z" />
</g>
<g id="#d2b0a2ff">
<path fill="#d2b0a2" opacity="1.00" d=" M 39.42 24.23 C 42.03 23.73 44.60 23.04 47.20 22.48 C 47.24 23.11 47.32 24.36 47.36 24.99 C 44.26 25.61 41.13 26.08 37.99 26.45 C 38.35 25.89 39.06 24.79 39.42 24.23 Z" />
<path fill="#d2b0a2" opacity="1.00" d=" M 41.26 28.34 C 43.38 27.98 45.45 27.27 47.61 27.15 C 47.74 27.57 47.99 28.43 48.12 28.85 C 46.47 29.89 44.45 29.83 42.61 30.23 C 40.89 29.91 39.17 29.55 37.47 29.16 C 38.73 28.88 39.99 28.61 41.26 28.34 Z" />
<path fill="#d2b0a2" opacity="1.00" d=" M 42.43 32.25 C 44.58 31.85 46.74 31.48 48.92 31.21 C 48.63 31.46 48.06 31.96 47.77 32.21 C 47.38 32.53 46.60 33.16 46.21 33.48 C 43.69 33.82 41.15 33.94 38.63 34.28 L 38.79 33.51 C 39.98 33.03 41.19 32.61 42.43 32.25 Z" />
</g>
<g id="#a78980ff">
<path fill="#a78980" opacity="1.00" d=" M 17.05 24.87 C 20.40 26.55 23.68 28.35 26.90 30.28 C 24.96 30.22 23.03 30.10 21.10 29.94 C 19.92 29.02 18.75 28.10 17.59 27.16 L 17.05 24.87 Z" />
</g>
<g id="#8f6c65ff">
<path fill="#8f6c65" opacity="1.00" d=" M 21.10 29.94 C 23.03 30.10 24.96 30.22 26.90 30.28 C 32.12 33.63 35.10 39.59 37.05 45.31 C 35.62 44.15 34.14 43.05 32.70 41.90 C 32.57 41.73 32.31 41.38 32.18 41.20 C 29.26 36.75 25.38 33.06 21.10 29.94 Z" />
</g>
<g id="#91675bff">
<path fill="#91675b" opacity="1.00" d=" M 39.03 44.00 C 36.96 41.12 34.61 35.66 38.79 33.51 L 38.63 34.28 C 38.54 34.76 38.36 35.72 38.27 36.20 C 39.01 36.17 40.49 36.13 41.23 36.10 C 42.60 41.44 45.66 46.09 48.91 50.45 C 45.33 48.79 41.95 46.67 39.03 44.00 Z" />
</g>
<g id="#a88376ff">
<path fill="#a88376" opacity="1.00" d=" M 41.23 36.10 C 41.79 36.08 42.92 36.03 43.48 36.00 C 46.23 40.37 48.38 45.26 52.20 48.83 C 53.84 50.29 55.90 48.71 57.57 48.17 C 56.96 47.02 56.35 45.88 55.71 44.76 C 56.96 45.55 58.26 46.31 59.39 47.27 C 59.71 48.05 60.36 49.60 60.68 50.37 C 57.41 53.87 52.61 52.36 48.91 50.45 C 45.66 46.09 42.60 41.44 41.23 36.10 Z" />
</g>
<g id="#ba9c8eff">
<path fill="#ba9c8e" opacity="1.00" d=" M 43.48 36.00 C 44.91 35.79 46.33 35.56 47.75 35.33 C 48.46 39.81 52.46 42.20 55.71 44.76 C 56.35 45.88 56.96 47.02 57.57 48.17 C 55.90 48.71 53.84 50.29 52.20 48.83 C 48.38 45.26 46.23 40.37 43.48 36.00 Z" />
</g>
<g id="#604239ff">
<path fill="#604239" opacity="1.00" d=" M 32.70 41.90 C 34.14 43.05 35.62 44.15 37.05 45.31 C 37.09 45.40 37.16 45.57 37.20 45.66 C 37.81 45.11 38.42 44.55 39.03 44.00 C 41.95 46.67 45.33 48.79 48.91 50.45 C 52.61 52.36 57.41 53.87 60.68 50.37 C 60.36 49.60 59.71 48.05 59.39 47.27 C 59.97 47.64 61.14 48.38 61.73 48.75 C 61.74 51.56 61.11 55.01 58.05 56.02 C 50.85 55.74 44.43 52.10 38.32 48.64 C 35.55 47.28 34.20 44.42 32.70 41.90 Z" />
</g>
<g id="#00000072">
<path fill="#000000" opacity="0.45" d=" M 42.07 56.63 C 45.59 58.49 49.33 60.01 53.31 60.48 L 52.58 60.55 C 43.73 60.87 34.88 60.75 26.03 60.48 C 21.26 60.58 16.65 59.17 11.90 58.98 C 16.63 58.76 21.35 58.39 26.03 57.70 C 31.35 57.05 36.97 58.51 42.07 56.63 Z" />
</g>
</svg>
