<?xml version="1.0" encoding="UTF-8" ?>
<!DOCTYPE svg PUBLIC "-//W3C//DTD SVG 1.1//EN" "http://www.w3.org/Graphics/SVG/1.1/DTD/svg11.dtd">
<svg width="64pt" height="64pt" viewBox="0 0 64 64" version="1.1" xmlns="http://www.w3.org/2000/svg">
<g id="#009689ff">
<path fill="#009689" opacity="1.00" d=" M 22.44 0.00 L 25.51 0.00 C 25.54 2.01 25.56 4.03 25.59 6.04 C 27.76 7.19 29.89 8.40 32.00 9.65 C 34.11 8.40 36.25 7.19 38.41 6.04 C 38.44 4.03 38.46 2.01 38.48 0.00 L 41.55 0.00 C 42.02 6.37 41.00 12.73 38.66 18.66 C 38.64 14.25 39.73 9.95 40.64 5.66 C 37.80 7.19 35.11 9.10 32.00 10.04 C 28.87 9.10 26.18 7.18 23.34 5.64 C 24.24 9.94 25.47 14.23 25.37 18.66 C 22.98 12.74 22.00 6.37 22.44 0.00 Z" />
<path fill="#009689" opacity="1.00" d=" M 26.14 18.53 C 30.01 17.78 34.00 17.81 37.88 18.53 C 37.77 19.29 37.55 20.82 37.45 21.58 C 33.84 22.15 30.15 22.15 26.54 21.58 C 26.44 20.82 26.24 19.30 26.14 18.53 Z" />
<path fill="#009689" opacity="1.00" d=" M 6.45 54.34 C 13.18 43.56 18.76 32.09 25.77 21.50 C 25.28 25.97 22.92 29.83 21.06 33.82 C 19.46 37.14 19.90 40.88 19.62 44.44 C 19.33 48.56 17.61 52.37 16.17 56.19 C 18.04 56.38 19.89 56.66 21.73 57.02 C 24.04 48.80 24.41 40.00 28.37 32.31 C 29.60 35.03 29.99 38.05 29.89 41.01 C 29.77 47.13 29.36 53.23 29.37 59.34 C 31.11 59.35 32.85 59.36 34.59 59.37 C 34.78 50.78 33.41 42.13 34.71 33.60 C 35.01 33.51 35.62 33.32 35.93 33.22 C 39.95 40.48 39.64 49.13 41.93 56.96 C 43.49 56.99 45.06 57.01 46.63 57.05 C 46.21 53.65 45.43 50.32 44.57 47.01 C 43.37 42.69 44.97 37.97 42.96 33.82 C 41.08 29.84 38.71 25.98 38.22 21.50 C 45.24 32.08 50.82 43.56 57.55 54.34 C 49.35 57.42 40.89 60.46 32.03 60.67 C 23.15 60.48 14.67 57.43 6.45 54.34 Z" />
</g>
<g id="#08b3a5ff">
<path fill="#08b3a5" opacity="1.00" d=" M 23.34 5.64 C 26.18 7.18 28.87 9.10 32.00 10.04 C 35.11 9.10 37.80 7.19 40.64 5.66 C 39.73 9.95 38.64 14.25 38.66 18.66 C 38.46 18.63 38.07 18.56 37.88 18.53 C 34.00 17.81 30.01 17.78 26.14 18.53 C 25.95 18.57 25.56 18.63 25.37 18.66 C 25.47 14.23 24.24 9.94 23.34 5.64 Z" />
<path fill="#08b3a5" opacity="1.00" d=" M 26.54 21.58 C 30.15 22.15 33.84 22.15 37.45 21.58 L 38.22 21.50 C 38.71 25.98 41.08 29.84 42.96 33.82 C 44.97 37.97 43.37 42.69 44.57 47.01 C 45.43 50.32 46.21 53.65 46.63 57.05 C 45.06 57.01 43.49 56.99 41.93 56.96 C 39.64 49.13 39.95 40.48 35.93 33.22 C 35.62 33.32 35.01 33.51 34.71 33.60 C 33.41 42.13 34.78 50.78 34.59 59.37 C 32.85 59.36 31.11 59.35 29.37 59.34 C 29.36 53.23 29.77 47.13 29.89 41.01 C 29.99 38.05 29.60 35.03 28.37 32.31 C 24.41 40.00 24.04 48.80 21.73 57.02 C 19.89 56.66 18.04 56.38 16.17 56.19 C 17.61 52.37 19.33 48.56 19.62 44.44 C 19.90 40.88 19.46 37.14 21.06 33.82 C 22.92 29.83 25.28 25.97 25.77 21.50 L 26.54 21.58 Z" />
</g>
</svg>
