<?xml version="1.0" encoding="UTF-8" ?>
<!DOCTYPE svg PUBLIC "-//W3C//DTD SVG 1.1//EN" "http://www.w3.org/Graphics/SVG/1.1/DTD/svg11.dtd">
<svg width="64pt" height="64pt" viewBox="0 0 64 64" version="1.1" xmlns="http://www.w3.org/2000/svg">
<g id="#dc861fff">
<path fill="#dc861f" opacity="1.00" d=" M 10.34 10.31 C 13.69 8.25 16.34 5.02 19.87 3.36 C 27.58 3.15 35.30 3.38 43.01 3.29 C 45.38 3.04 46.80 5.21 48.53 6.40 C 50.18 7.98 52.55 8.96 53.74 10.93 C 54.12 22.16 53.79 33.42 53.79 44.66 C 49.69 44.70 45.59 44.51 41.49 44.65 C 41.42 49.52 41.41 54.39 41.44 59.27 C 38.68 61.26 35.12 60.42 31.96 60.63 C 28.81 60.41 25.23 61.30 22.54 59.20 C 22.57 54.34 22.61 49.49 22.49 44.63 C 18.39 44.58 14.30 44.68 10.21 44.66 C 10.28 33.21 9.74 21.75 10.34 10.31 Z" />
</g>
</svg>
