<?xml version="1.0" encoding="UTF-8" ?>
<!DOCTYPE svg PUBLIC "-//W3C//DTD SVG 1.1//EN" "http://www.w3.org/Graphics/SVG/1.1/DTD/svg11.dtd">
<svg width="64pt" height="64pt" viewBox="0 0 64 64" version="1.1" xmlns="http://www.w3.org/2000/svg">
<g id="#3423159e">
<path fill="#342315" opacity="0.62" d=" M 28.98 4.01 C 29.09 0.74 35.54 3.76 37.97 3.04 L 38.02 3.98 C 35.01 3.98 32.00 3.98 28.98 4.01 Z" />
</g>
<g id="#7c5b3afc">
<path fill="#7c5b3a" opacity="1.00" d=" M 23.20 6.15 C 24.95 5.08 26.93 4.22 28.98 4.01 C 32.00 3.98 35.01 3.98 38.02 3.98 C 45.13 4.67 52.94 9.50 53.92 17.00 C 53.89 17.54 53.85 18.62 53.82 19.17 C 51.31 13.22 46.98 8.31 40.84 6.02 C 37.56 4.95 33.89 4.42 30.62 5.70 C 30.26 5.79 29.54 5.97 29.17 6.06 C 25.51 5.84 21.72 8.31 20.97 12.00 C 16.68 11.36 21.38 19.57 16.92 17.29 L 16.14 17.13 C 16.09 17.59 15.97 18.52 15.92 18.98 C 15.04 19.20 14.15 19.38 13.28 19.62 C 10.05 24.54 10.95 30.79 12.76 36.08 C 12.26 36.71 11.75 37.33 11.23 37.94 C 8.53 33.46 9.27 28.11 8.91 23.11 L 8.02 22.90 C 7.98 28.66 8.52 34.52 6.82 40.11 C 4.11 34.22 4.89 27.40 6.18 21.20 C 8.24 17.11 10.90 13.37 14.14 10.14 C 17.19 8.89 20.39 7.93 23.20 6.15 Z" />
</g>
<g id="#c7a578ff">
<path fill="#c7a578" opacity="1.00" d=" M 30.62 5.70 C 33.89 4.42 37.56 4.95 40.84 6.02 C 40.45 7.19 40.02 8.39 40.09 9.65 C 44.90 10.58 48.83 13.51 51.79 17.34 C 53.42 20.42 51.64 22.92 50.08 25.19 C 49.88 21.16 47.66 17.96 45.58 14.67 C 43.96 14.86 42.87 14.21 42.37 12.61 C 39.98 11.46 38.07 8.72 35.20 9.03 C 34.15 10.71 33.80 12.88 32.18 14.16 L 31.19 14.08 C 29.25 11.47 30.98 9.29 32.80 7.30 C 32.25 6.90 31.16 6.10 30.62 5.70 Z" />
</g>
<g id="#392616dd">
<path fill="#392616" opacity="0.87" d=" M 14.14 10.14 C 15.26 6.98 20.11 6.25 23.20 6.15 C 20.39 7.93 17.19 8.89 14.14 10.14 Z" />
</g>
<g id="#a68258ff">
<path fill="#a68258" opacity="1.00" d=" M 20.97 12.00 C 21.72 8.31 25.51 5.84 29.17 6.06 C 26.63 8.27 24.01 10.50 20.97 12.00 Z" />
</g>
<g id="#be9b74ff">
<path fill="#be9b74" opacity="1.00" d=" M 29.17 6.06 C 29.54 5.97 30.26 5.79 30.62 5.70 C 31.16 6.10 32.25 6.90 32.80 7.30 C 30.98 9.29 29.25 11.47 31.19 14.08 C 28.21 15.64 23.23 15.86 23.01 20.15 C 21.99 20.98 20.72 21.27 20.16 19.78 C 20.30 17.17 21.02 14.62 20.97 12.00 C 24.01 10.50 26.63 8.27 29.17 6.06 Z" />
</g>
<g id="#ab8253ff">
<path fill="#ab8253" opacity="1.00" d=" M 40.84 6.02 C 46.98 8.31 51.31 13.22 53.82 19.17 C 53.81 22.18 55.75 25.40 53.87 28.17 L 53.09 28.18 C 52.67 28.17 51.82 28.16 51.40 28.16 C 51.10 27.58 50.50 26.42 50.20 25.84 L 50.08 25.19 C 51.64 22.92 53.42 20.42 51.79 17.34 C 48.83 13.51 44.90 10.58 40.09 9.65 C 40.02 8.39 40.45 7.19 40.84 6.02 Z" />
</g>
<g id="#e3c99dff">
<path fill="#e3c99d" opacity="1.00" d=" M 35.20 9.03 C 38.07 8.72 39.98 11.46 42.37 12.61 C 42.87 14.21 43.96 14.86 45.58 14.67 C 47.66 17.96 49.88 21.16 50.08 25.19 L 50.20 25.84 C 46.75 28.62 42.43 30.26 37.97 30.16 C 36.77 29.04 35.21 27.75 37.96 27.72 C 34.47 25.41 29.16 23.77 29.40 18.77 C 28.57 16.50 30.75 15.44 32.18 14.16 C 33.80 12.88 34.15 10.71 35.20 9.03 M 34.41 15.71 C 35.75 17.60 33.00 16.84 31.93 17.16 C 33.20 19.97 34.09 25.03 37.92 25.12 C 39.37 29.09 47.90 26.46 47.99 22.92 L 47.04 23.12 C 45.89 19.14 43.20 16.45 40.85 13.24 C 38.65 13.78 34.34 13.11 34.41 15.71 Z" />
</g>
<g id="#342313da">
<path fill="#342313" opacity="0.85" d=" M 8.04 15.02 C 9.85 13.52 11.06 9.45 14.14 10.14 C 10.90 13.37 8.24 17.11 6.18 21.20 L 5.24 21.12 C 4.30 18.69 7.67 17.04 8.04 15.02 Z" />
</g>
<g id="#a9875dff">
<path fill="#a9875d" opacity="1.00" d=" M 16.92 17.29 C 21.38 19.57 16.68 11.36 20.97 12.00 C 21.02 14.62 20.30 17.17 20.16 19.78 C 20.72 21.27 21.99 20.98 23.01 20.15 L 23.78 19.73 C 25.33 22.71 26.42 26.03 29.91 27.27 C 32.04 28.63 34.31 29.94 36.87 30.23 C 39.37 30.74 41.95 30.94 44.36 31.86 L 43.42 32.20 C 40.20 32.19 36.98 32.11 33.77 32.21 C 33.05 32.15 31.63 32.03 30.92 31.96 L 31.05 31.21 C 34.31 31.28 32.15 29.95 30.37 29.52 C 26.21 28.16 23.82 24.08 20.24 21.76 C 20.35 22.31 20.56 23.42 20.66 23.97 C 20.44 24.27 20.01 24.87 19.79 25.17 C 19.00 24.10 18.36 22.93 17.70 21.78 C 17.49 20.28 17.18 18.79 16.92 17.29 Z" />
</g>
<g id="#f9e5c2ff">
<path fill="#f9e5c2" opacity="1.00" d=" M 34.41 15.71 C 34.34 13.11 38.65 13.78 40.85 13.24 C 43.20 16.45 45.89 19.14 47.04 23.12 C 44.22 24.61 41.11 25.08 37.92 25.12 C 34.09 25.03 33.20 19.97 31.93 17.16 C 33.00 16.84 35.75 17.60 34.41 15.71 M 41.22 17.41 C 38.80 17.83 36.40 18.28 34.09 19.11 C 35.97 22.05 42.56 22.22 44.01 18.15 C 43.11 17.75 42.18 17.51 41.22 17.41 Z" />
</g>
<g id="#d1b286ff">
<path fill="#d1b286" opacity="1.00" d=" M 23.01 20.15 C 23.23 15.86 28.21 15.64 31.19 14.08 L 32.18 14.16 C 30.75 15.44 28.57 16.50 29.40 18.77 C 29.16 23.77 34.47 25.41 37.96 27.72 C 35.21 27.75 36.77 29.04 37.97 30.16 L 36.87 30.23 C 34.31 29.94 32.04 28.63 29.91 27.27 C 31.54 23.99 27.46 20.78 25.08 19.04 C 24.75 19.21 24.10 19.55 23.78 19.73 L 23.01 20.15 Z" />
</g>
<g id="#49471dff">
<path fill="#49471d" opacity="1.00" d=" M 16.14 17.13 L 16.92 17.29 C 17.18 18.79 17.49 20.28 17.70 21.78 C 17.53 24.26 16.32 26.95 17.64 29.25 C 18.47 30.99 19.53 32.68 20.92 34.02 C 21.60 34.62 22.29 35.20 22.99 35.76 L 22.84 36.72 C 22.30 39.85 21.95 43.02 21.84 46.20 C 21.61 45.92 21.15 45.35 20.92 45.07 C 20.94 44.32 20.97 42.83 20.99 42.09 C 21.84 38.28 18.32 35.99 16.73 33.01 C 16.30 29.68 16.02 26.34 15.96 22.99 C 15.95 21.65 15.94 20.31 15.92 18.98 C 15.97 18.52 16.09 17.59 16.14 17.13 Z" />
</g>
<g id="#fff5dcff">
<path fill="#fff5dc" opacity="1.00" d=" M 41.22 17.41 C 42.18 17.51 43.11 17.75 44.01 18.15 C 42.56 22.22 35.97 22.05 34.09 19.11 C 36.40 18.28 38.80 17.83 41.22 17.41 Z" />
</g>
<g id="#6d5230fb">
<path fill="#6d5230" opacity="1.00" d=" M 53.92 17.00 C 55.69 17.08 55.47 19.67 55.95 20.94 C 56.44 25.07 58.86 28.98 58.09 33.20 C 57.29 32.46 56.51 31.70 55.75 30.93 C 55.07 30.04 54.43 29.13 53.87 28.17 C 55.75 25.40 53.81 22.18 53.82 19.17 C 53.85 18.62 53.89 17.54 53.92 17.00 Z" />
</g>
<g id="#725131ff">
<path fill="#725131" opacity="1.00" d=" M 13.28 19.62 C 14.15 19.38 15.04 19.20 15.92 18.98 C 15.94 20.31 15.95 21.65 15.96 22.99 C 15.49 22.77 14.54 22.33 14.07 22.12 C 12.97 26.43 13.22 30.98 15.20 35.00 C 15.73 34.35 16.24 33.69 16.73 33.01 C 18.32 35.99 21.84 38.28 20.99 42.09 C 19.14 38.83 14.79 39.03 12.76 36.08 C 10.95 30.79 10.05 24.54 13.28 19.62 Z" />
</g>
<g id="#bf9d71ff">
<path fill="#bf9d71" opacity="1.00" d=" M 23.78 19.73 C 24.10 19.55 24.75 19.21 25.08 19.04 C 27.46 20.78 31.54 23.99 29.91 27.27 C 26.42 26.03 25.33 22.71 23.78 19.73 Z" />
</g>
<g id="#49321df3">
<path fill="#49321d" opacity="0.95" d=" M 5.24 21.12 L 6.18 21.20 C 4.89 27.40 4.11 34.22 6.82 40.11 C 7.89 42.05 8.99 43.97 10.02 45.93 C 10.04 46.44 10.08 47.47 10.10 47.98 C 7.11 45.02 4.35 40.41 3.97 36.01 C 3.99 32.33 4.02 28.66 3.98 24.98 C 3.99 23.57 3.79 21.92 5.24 21.12 Z" />
</g>
<g id="#392915e8">
<path fill="#392915" opacity="0.91" d=" M 55.95 20.94 C 60.31 25.02 60.55 32.54 60.89 38.28 C 60.31 37.45 59.73 36.63 59.15 35.80 C 58.80 34.93 58.45 34.07 58.09 33.20 C 58.86 28.98 56.44 25.07 55.95 20.94 Z" />
</g>
<g id="#604227ff">
<path fill="#604227" opacity="1.00" d=" M 14.07 22.12 C 14.54 22.33 15.49 22.77 15.96 22.99 C 16.02 26.34 16.30 29.68 16.73 33.01 C 16.24 33.69 15.73 34.35 15.20 35.00 C 13.22 30.98 12.97 26.43 14.07 22.12 Z" />
</g>
<g id="#5c8626ff">
<path fill="#5c8626" opacity="1.00" d=" M 17.64 29.25 C 16.32 26.95 17.53 24.26 17.70 21.78 C 18.36 22.93 19.00 24.10 19.79 25.17 C 22.51 28.49 25.80 31.46 29.78 33.16 C 30.21 33.37 31.05 33.81 31.48 34.02 C 25.90 35.14 21.17 30.05 18.18 25.82 C 18.05 26.68 17.77 28.39 17.64 29.25 Z" />
</g>
<g id="#8a6640ff">
<path fill="#8a6640" opacity="1.00" d=" M 20.24 21.76 C 23.82 24.08 26.21 28.16 30.37 29.52 C 32.15 29.95 34.31 31.28 31.05 31.21 C 26.93 29.88 23.24 27.46 20.66 23.97 C 20.56 23.42 20.35 22.31 20.24 21.76 Z" />
</g>
<g id="#98744cff">
<path fill="#98744c" opacity="1.00" d=" M 8.02 22.90 L 8.91 23.11 C 9.27 28.11 8.53 33.46 11.23 37.94 C 11.75 37.33 12.26 36.71 12.76 36.08 C 14.79 39.03 19.14 38.83 20.99 42.09 C 20.97 42.83 20.94 44.32 20.92 45.07 C 19.15 43.84 16.93 40.24 15.54 43.73 C 13.97 42.60 12.64 41.15 11.14 39.93 C 11.71 42.03 11.65 44.15 10.85 46.18 L 10.02 45.93 C 8.99 43.97 7.89 42.05 6.82 40.11 C 8.52 34.52 7.98 28.66 8.02 22.90 Z" />
</g>
<g id="#eed8b0ff">
<path fill="#eed8b0" opacity="1.00" d=" M 37.92 25.12 C 41.11 25.08 44.22 24.61 47.04 23.12 L 47.99 22.92 C 47.90 26.46 39.37 29.09 37.92 25.12 Z" />
</g>
<g id="#cdb38cff">
<path fill="#cdb38c" opacity="1.00" d=" M 19.79 25.17 C 20.01 24.87 20.44 24.27 20.66 23.97 C 23.24 27.46 26.93 29.88 31.05 31.21 L 30.92 31.96 C 30.63 32.26 30.07 32.86 29.78 33.16 C 25.80 31.46 22.51 28.49 19.79 25.17 Z" />
</g>
<g id="#21160ca2">
<path fill="#21160c" opacity="0.64" d=" M 3.01 25.02 L 3.98 24.98 C 4.02 28.66 3.99 32.33 3.97 36.01 L 3.00 35.99 C 3.00 33.25 3.01 27.76 3.01 25.02 Z" />
</g>
<g id="#5d9922ff">
<path fill="#5d9922" opacity="1.00" d=" M 18.18 25.82 C 21.17 30.05 25.90 35.14 31.48 34.02 C 33.08 34.32 34.63 34.80 36.20 35.24 C 34.88 35.60 32.22 36.34 30.90 36.71 C 27.67 35.41 24.58 33.43 20.92 34.02 C 19.53 32.68 18.47 30.99 17.64 29.25 C 17.77 28.39 18.05 26.68 18.18 25.82 Z" />
</g>
<g id="#bb9565ff">
<path fill="#bb9565" opacity="1.00" d=" M 37.97 30.16 C 42.43 30.26 46.75 28.62 50.20 25.84 C 50.50 26.42 51.10 27.58 51.40 28.16 C 49.27 29.77 46.93 31.11 44.36 31.86 C 41.95 30.94 39.37 30.74 36.87 30.23 L 37.97 30.16 Z" />
</g>
<g id="#e8d5abff">
<path fill="#e8d5ab" opacity="1.00" d=" M 51.40 28.16 C 51.82 28.16 52.67 28.17 53.09 28.18 C 51.68 29.73 50.27 31.29 48.96 32.94 C 44.89 34.54 40.53 34.90 36.20 35.24 C 34.63 34.80 33.08 34.32 31.48 34.02 C 31.05 33.81 30.21 33.37 29.78 33.16 C 30.07 32.86 30.63 32.26 30.92 31.96 C 31.63 32.03 33.05 32.15 33.77 32.21 C 36.92 32.61 40.39 33.77 43.42 32.20 L 44.36 31.86 C 46.93 31.11 49.27 29.77 51.40 28.16 Z" />
</g>
<g id="#528828ff">
<path fill="#528828" opacity="1.00" d=" M 53.09 28.18 L 53.87 28.17 C 54.43 29.13 55.07 30.04 55.75 30.93 C 54.39 31.40 53.03 31.91 51.84 32.72 C 49.35 34.97 46.79 37.26 44.89 40.05 L 44.64 40.80 C 44.21 42.14 44.02 43.53 43.70 44.90 C 41.95 45.07 39.52 45.51 39.65 42.97 C 41.36 42.95 43.92 43.60 43.01 40.96 C 43.00 38.51 37.68 40.53 39.65 42.97 C 39.21 43.23 38.32 43.75 37.88 44.01 L 37.20 44.34 C 37.16 42.79 37.67 39.91 35.30 40.03 C 33.27 39.27 31.25 38.50 29.23 37.72 C 27.21 36.89 25.13 36.22 22.99 35.76 C 22.29 35.20 21.60 34.62 20.92 34.02 C 24.58 33.43 27.67 35.41 30.90 36.71 C 31.86 37.05 32.83 37.37 33.81 37.67 C 38.52 39.73 44.50 40.21 47.17 35.14 C 47.80 34.43 48.39 33.69 48.96 32.94 C 50.27 31.29 51.68 29.73 53.09 28.18 Z" />
</g>
<g id="#62ad3aff">
<path fill="#62ad3a" opacity="1.00" d=" M 51.84 32.72 C 53.03 31.91 54.39 31.40 55.75 30.93 C 56.51 31.70 57.29 32.46 58.09 33.20 C 58.45 34.07 58.80 34.93 59.15 35.80 C 58.93 37.32 60.78 40.21 58.18 40.18 C 58.15 39.35 58.07 37.69 58.03 36.86 C 58.11 33.64 54.48 32.62 51.84 32.72 Z" />
</g>
<g id="#c19e6eff">
<path fill="#c19e6e" opacity="1.00" d=" M 33.77 32.21 C 36.98 32.11 40.20 32.19 43.42 32.20 C 40.39 33.77 36.92 32.61 33.77 32.21 Z" />
</g>
<g id="#6dae29ff">
<path fill="#6dae29" opacity="1.00" d=" M 36.20 35.24 C 40.53 34.90 44.89 34.54 48.96 32.94 C 48.39 33.69 47.80 34.43 47.17 35.14 C 42.75 36.15 38.24 36.70 33.81 37.67 C 32.83 37.37 31.86 37.05 30.90 36.71 C 32.22 36.34 34.88 35.60 36.20 35.24 Z" />
</g>
<g id="#80c655ff">
<path fill="#80c655" opacity="1.00" d=" M 44.89 40.05 C 46.79 37.26 49.35 34.97 51.84 32.72 C 54.48 32.62 58.11 33.64 58.03 36.86 L 57.38 37.20 C 56.30 36.08 55.50 34.51 54.00 33.92 C 51.05 35.23 48.84 37.64 46.71 40.00 L 45.73 40.09 L 44.89 40.05 Z" />
</g>
<g id="#99e960ff">
<path fill="#99e960" opacity="1.00" d=" M 46.71 40.00 C 48.84 37.64 51.05 35.23 54.00 33.92 C 55.50 34.51 56.30 36.08 57.38 37.20 C 54.20 39.32 50.61 40.45 46.71 40.00 Z" />
</g>
<g id="#73cc2eff">
<path fill="#73cc2e" opacity="1.00" d=" M 33.81 37.67 C 38.24 36.70 42.75 36.15 47.17 35.14 C 44.50 40.21 38.52 39.73 33.81 37.67 Z" />
</g>
<g id="#6db546ff">
<path fill="#6db546" opacity="1.00" d=" M 22.99 35.76 C 25.13 36.22 27.21 36.89 29.23 37.72 C 27.52 37.83 25.81 37.93 24.12 38.14 C 23.98 39.42 23.89 40.70 23.84 41.98 C 23.81 42.54 23.76 43.66 23.73 44.21 C 23.13 41.78 22.84 39.29 22.84 36.72 L 22.99 35.76 Z" />
</g>
<g id="#38891bff">
<path fill="#38891b" opacity="1.00" d=" M 59.15 35.80 C 59.73 36.63 60.31 37.45 60.89 38.28 L 61.30 39.17 C 61.25 41.16 59.41 40.92 57.95 41.03 L 58.18 40.18 C 60.78 40.21 58.93 37.32 59.15 35.80 Z" />
</g>
<g id="#418f1eff">
<path fill="#418f1e" opacity="1.00" d=" M 21.84 46.20 C 21.95 43.02 22.30 39.85 22.84 36.72 C 22.84 39.29 23.13 41.78 23.73 44.21 C 26.71 46.28 32.23 44.72 36.11 44.71 C 36.38 44.62 36.93 44.43 37.20 44.34 L 37.88 44.01 L 38.12 45.23 C 32.75 46.27 27.27 45.98 21.84 46.20 Z" />
</g>
<g id="#78e632ff">
<path fill="#78e632" opacity="1.00" d=" M 57.38 37.20 L 58.03 36.86 C 58.07 37.69 58.15 39.35 58.18 40.18 L 57.95 41.03 C 55.19 41.18 52.67 42.39 50.11 43.32 C 48.21 42.94 47.01 41.39 45.73 40.09 L 46.71 40.00 C 50.61 40.45 54.20 39.32 57.38 37.20 Z" />
</g>
<g id="#86cd5bff">
<path fill="#86cd5b" opacity="1.00" d=" M 24.12 38.14 C 25.81 37.93 27.52 37.83 29.23 37.72 C 31.25 38.50 33.27 39.27 35.30 40.03 L 35.09 40.86 C 34.63 40.95 33.73 41.13 33.27 41.22 C 30.99 39.90 24.38 36.32 24.82 41.22 L 24.66 42.29 L 23.84 41.98 C 23.89 40.70 23.98 39.42 24.12 38.14 Z" />
</g>
<g id="#9eea68ff">
<path fill="#9eea68" opacity="1.00" d=" M 24.82 41.22 C 24.38 36.32 30.99 39.90 33.27 41.22 C 30.46 41.99 27.55 42.33 24.82 41.22 Z" />
</g>
<g id="#2c4a12fd">
<path fill="#2c4a12" opacity="1.00" d=" M 61.30 39.17 C 62.75 38.64 62.47 44.04 60.30 43.68 C 56.28 42.78 52.31 44.02 48.75 45.78 C 50.47 45.96 52.19 46.07 53.92 46.18 C 54.21 47.16 54.52 48.13 54.84 49.10 C 51.29 48.43 47.70 47.97 44.09 47.93 C 45.31 51.38 46.78 54.74 48.05 58.18 C 47.51 57.90 46.42 57.34 45.88 57.06 C 45.69 56.79 45.32 56.25 45.13 55.98 C 44.61 53.30 43.58 50.77 42.70 48.20 C 42.25 48.27 41.34 48.41 40.89 48.48 C 35.46 49.26 29.44 51.49 27.68 57.22 L 26.86 57.01 L 27.07 56.15 C 27.93 54.11 28.90 52.10 30.04 50.19 C 31.54 49.29 33.05 48.38 34.31 47.16 C 32.15 48.72 24.81 44.46 24.55 49.23 C 23.68 48.88 22.81 48.52 21.95 48.15 C 21.92 47.66 21.86 46.69 21.84 46.20 C 27.27 45.98 32.75 46.27 38.12 45.23 C 41.33 46.02 44.58 46.39 47.20 44.11 C 48.19 43.91 49.15 43.64 50.11 43.32 C 52.67 42.39 55.19 41.18 57.95 41.03 C 59.41 40.92 61.25 41.16 61.30 39.17 Z" />
</g>
<g id="#b28f61ff">
<path fill="#b28f61" opacity="1.00" d=" M 11.14 39.93 C 12.64 41.15 13.97 42.60 15.54 43.73 C 16.93 40.24 19.15 43.84 20.92 45.07 C 21.15 45.35 21.61 45.92 21.84 46.20 C 21.86 46.69 21.92 47.66 21.95 48.15 C 19.51 47.29 17.36 45.85 14.98 44.86 C 15.61 46.47 19.64 49.03 16.04 49.37 C 17.74 51.60 20.36 52.92 21.90 55.28 C 17.30 53.54 14.09 49.71 10.85 46.18 C 11.65 44.15 11.71 42.03 11.14 39.93 Z" />
</g>
<g id="#6dc13aff">
<path fill="#6dc13a" opacity="1.00" d=" M 35.30 40.03 C 37.67 39.91 37.16 42.79 37.20 44.34 C 36.93 44.43 36.38 44.62 36.11 44.71 C 35.90 43.72 35.61 42.75 35.25 41.80 L 35.09 40.86 L 35.30 40.03 Z" />
</g>
<g id="#6fae4dff">
<path fill="#6fae4d" opacity="1.00" d=" M 39.65 42.97 C 37.68 40.53 43.00 38.51 43.01 40.96 C 43.92 43.60 41.36 42.95 39.65 42.97 Z" />
</g>
<g id="#56b627ff">
<path fill="#56b627" opacity="1.00" d=" M 44.89 40.05 L 45.73 40.09 C 47.01 41.39 48.21 42.94 50.11 43.32 C 49.15 43.64 48.19 43.91 47.20 44.11 C 46.35 43.01 45.48 41.91 44.64 40.80 L 44.89 40.05 Z" />
</g>
<g id="#8df047ff">
<path fill="#8df047" opacity="1.00" d=" M 24.82 41.22 C 27.55 42.33 30.46 41.99 33.27 41.22 C 33.73 41.13 34.63 40.95 35.09 40.86 L 35.25 41.80 C 32.66 45.22 28.01 43.73 24.66 42.29 L 24.82 41.22 Z" />
</g>
<g id="#35791cff">
<path fill="#35791c" opacity="1.00" d=" M 43.70 44.90 C 44.02 43.53 44.21 42.14 44.64 40.80 C 45.48 41.91 46.35 43.01 47.20 44.11 C 44.58 46.39 41.33 46.02 38.12 45.23 L 37.88 44.01 C 38.32 43.75 39.21 43.23 39.65 42.97 C 39.52 45.51 41.95 45.07 43.70 44.90 Z" />
</g>
<g id="#75e630ff">
<path fill="#75e630" opacity="1.00" d=" M 23.84 41.98 L 24.66 42.29 C 28.01 43.73 32.66 45.22 35.25 41.80 C 35.61 42.75 35.90 43.72 36.11 44.71 C 32.23 44.72 26.71 46.28 23.73 44.21 C 23.76 43.66 23.81 42.54 23.84 41.98 Z" />
</g>
<g id="#317116fb">
<path fill="#317116" opacity="1.00" d=" M 48.75 45.78 C 52.31 44.02 56.28 42.78 60.30 43.68 C 59.97 44.01 59.31 44.66 58.98 44.98 C 57.31 45.43 55.62 45.86 53.92 46.18 C 52.19 46.07 50.47 45.96 48.75 45.78 Z" />
</g>
<g id="#cdac7dff">
<path fill="#cdac7d" opacity="1.00" d=" M 14.98 44.86 C 17.36 45.85 19.51 47.29 21.95 48.15 C 22.81 48.52 23.68 48.88 24.55 49.23 C 26.26 50.07 28.20 50.01 30.04 50.19 C 28.90 52.10 27.93 54.11 27.07 56.15 C 25.27 57.42 23.47 56.37 21.90 55.28 C 20.36 52.92 17.74 51.60 16.04 49.37 C 19.64 49.03 15.61 46.47 14.98 44.86 Z" />
</g>
<g id="#4a3e20f5">
<path fill="#4a3e20" opacity="0.96" d=" M 53.92 46.18 C 55.62 45.86 57.31 45.43 58.98 44.98 C 57.94 46.69 57.64 49.18 55.87 50.23 C 55.61 49.95 55.09 49.39 54.84 49.10 C 54.52 48.13 54.21 47.16 53.92 46.18 Z" />
</g>
<g id="#5a4128ea">
<path fill="#5a4128" opacity="0.92" d=" M 10.02 45.93 L 10.85 46.18 C 14.09 49.71 17.30 53.54 21.90 55.28 C 23.47 56.37 25.27 57.42 27.07 56.15 L 26.86 57.01 C 26.68 57.33 26.31 57.96 26.13 58.28 C 20.20 56.71 13.15 53.37 10.10 47.98 C 10.08 47.47 10.04 46.44 10.02 45.93 Z" />
</g>
<g id="#497a22ff">
<path fill="#497a22" opacity="1.00" d=" M 24.55 49.23 C 24.81 44.46 32.15 48.72 34.31 47.16 C 33.05 48.38 31.54 49.29 30.04 50.19 C 28.20 50.01 26.26 50.07 24.55 49.23 Z" />
</g>
<g id="#57bd32ff">
<path fill="#57bd32" opacity="1.00" d=" M 27.68 57.22 C 29.44 51.49 35.46 49.26 40.89 48.48 C 40.69 51.36 40.06 54.19 39.56 57.03 C 39.36 57.48 38.95 58.38 38.74 58.83 C 38.51 59.19 38.06 59.92 37.83 60.28 C 36.98 60.40 36.11 60.41 35.27 60.15 C 33.66 57.47 30.34 58.03 27.68 57.22 Z" />
</g>
<g id="#b99d6fff">
<path fill="#b99d6f" opacity="1.00" d=" M 40.89 48.48 C 41.34 48.41 42.25 48.27 42.70 48.20 C 43.58 50.77 44.61 53.30 45.13 55.98 C 43.36 56.40 41.33 58.22 39.56 57.03 C 40.06 54.19 40.69 51.36 40.89 48.48 Z" />
</g>
<g id="#58bf32ff">
<path fill="#58bf32" opacity="1.00" d=" M 44.09 47.93 C 47.70 47.97 51.29 48.43 54.84 49.10 C 55.09 49.39 55.61 49.95 55.87 50.23 C 56.24 50.70 56.98 51.65 57.36 52.12 C 56.68 53.58 55.15 54.13 53.92 55.00 C 53.64 55.21 53.09 55.64 52.82 55.85 C 52.22 56.68 51.63 57.52 51.06 58.36 C 50.05 58.40 49.05 58.34 48.05 58.18 C 46.78 54.74 45.31 51.38 44.09 47.93 Z" />
</g>
<g id="#277d18ee">
<path fill="#277d18" opacity="0.93" d=" M 57.36 52.12 C 58.31 52.50 58.98 53.24 59.38 54.32 C 57.64 55.00 55.75 54.89 53.92 55.00 C 55.15 54.13 56.68 53.58 57.36 52.12 Z" />
</g>
<g id="#0d400ac8">
<path fill="#0d400a" opacity="0.78" d=" M 59.38 54.32 L 60.11 54.10 C 60.42 57.72 55.10 55.41 52.82 55.85 C 53.09 55.64 53.64 55.21 53.92 55.00 C 55.75 54.89 57.64 55.00 59.38 54.32 Z" />
</g>
<g id="#5a4229e3">
<path fill="#5a4229" opacity="0.89" d=" M 39.56 57.03 C 41.33 58.22 43.36 56.40 45.13 55.98 C 45.32 56.25 45.69 56.79 45.88 57.06 C 45.12 58.89 40.91 59.01 38.74 58.83 C 38.95 58.38 39.36 57.48 39.56 57.03 Z" />
</g>
<g id="#1b580fe6">
<path fill="#1b580f" opacity="0.90" d=" M 26.86 57.01 L 27.68 57.22 C 30.34 58.03 33.66 57.47 35.27 60.15 C 32.22 58.50 29.12 59.43 25.97 60.04 C 26.01 59.60 26.09 58.72 26.13 58.28 C 26.31 57.96 26.68 57.33 26.86 57.01 Z" />
</g>
<g id="#1a5f10e9">
<path fill="#1a5f10" opacity="0.91" d=" M 48.05 58.18 C 49.05 58.34 50.05 58.40 51.06 58.36 C 50.74 59.60 50.25 60.78 49.82 61.98 C 47.98 61.57 47.81 59.75 48.05 58.18 Z" />
</g>
<g id="#1a5e10e7">
<path fill="#1a5e10" opacity="0.91" d=" M 35.27 60.15 C 36.11 60.41 36.98 60.40 37.83 60.28 C 39.91 63.93 33.63 63.42 35.27 60.15 Z" />
</g>
</svg>
