<?xml version="1.0" encoding="UTF-8" ?>
<!DOCTYPE svg PUBLIC "-//W3C//DTD SVG 1.1//EN" "http://www.w3.org/Graphics/SVG/1.1/DTD/svg11.dtd">
<svg width="64pt" height="64pt" viewBox="0 0 64 64" version="1.1" xmlns="http://www.w3.org/2000/svg">
<g id="#595a5abc">
<path fill="#595a5a" opacity="0.74" d=" M 27.40 3.45 C 30.46 0.99 34.51 7.82 30.50 8.64 C 30.73 7.20 30.76 5.77 30.59 4.33 C 29.80 4.33 28.21 4.33 27.42 4.33 C 27.40 5.37 27.36 7.43 27.34 8.47 C 28.12 8.57 29.68 8.77 30.46 8.87 C 29.52 10.30 28.90 11.90 28.32 13.51 C 31.05 13.64 33.81 13.33 36.51 13.83 L 36.41 11.77 C 36.66 12.31 37.18 13.41 37.43 13.96 C 34.10 14.25 30.75 14.13 27.41 14.35 C 27.72 13.45 28.34 11.64 28.65 10.73 C 28.25 10.35 27.45 9.57 27.06 9.18 C 25.00 7.90 25.06 4.38 27.40 3.45 Z" />
</g>
<g id="#969898ff">
<path fill="#969898" opacity="1.00" d=" M 33.35 6.87 C 33.03 4.29 36.78 2.38 38.49 4.58 C 39.82 5.59 40.11 8.53 38.11 8.89 C 37.61 7.05 37.41 4.44 34.79 5.70 C 34.91 6.43 35.14 7.88 35.26 8.61 C 35.97 8.68 37.40 8.82 38.11 8.89 C 38.41 10.65 38.50 13.40 40.58 13.92 L 40.83 15.23 C 37.97 14.68 35.07 14.70 32.19 14.93 C 30.57 14.96 28.96 14.96 27.35 15.02 C 28.09 16.32 28.53 17.72 28.31 19.23 C 25.91 19.41 23.51 19.41 21.10 19.49 C 20.11 18.87 19.62 17.82 19.06 16.85 C 18.14 16.68 17.22 16.53 16.30 16.41 L 16.17 15.62 C 18.95 14.76 21.78 14.06 24.68 13.57 C 26.49 12.96 26.59 10.72 27.06 9.18 C 27.45 9.57 28.25 10.35 28.65 10.73 C 28.34 11.64 27.72 13.45 27.41 14.35 C 30.75 14.13 34.10 14.25 37.43 13.96 C 37.18 13.41 36.66 12.31 36.41 11.77 C 36.03 9.64 33.26 9.09 33.35 6.87 Z" />
</g>
<g id="#d8dad9ff">
<path fill="#d8dad9" opacity="1.00" d=" M 27.42 4.33 C 28.21 4.33 29.80 4.33 30.59 4.33 C 30.76 5.77 30.73 7.20 30.50 8.64 C 30.49 8.69 30.47 8.81 30.46 8.87 C 29.68 8.77 28.12 8.57 27.34 8.47 C 27.36 7.43 27.40 5.37 27.42 4.33 Z" />
<path fill="#d8dad9" opacity="1.00" d=" M 32.19 14.93 C 35.07 14.70 37.97 14.68 40.83 15.23 C 43.62 15.45 46.34 16.50 48.52 18.27 C 43.45 20.99 37.61 18.41 32.19 18.96 C 32.20 17.62 32.20 16.27 32.19 14.93 Z" />
</g>
<g id="#c3c4c5ff">
<path fill="#c3c4c5" opacity="1.00" d=" M 34.79 5.70 C 37.41 4.44 37.61 7.05 38.11 8.89 C 37.40 8.82 35.97 8.68 35.26 8.61 C 35.14 7.88 34.91 6.43 34.79 5.70 Z" />
</g>
<g id="#646565de">
<path fill="#646565" opacity="0.87" d=" M 40.58 13.92 C 46.83 14.49 54.24 18.27 55.49 24.87 C 53.11 22.73 51.02 20.27 48.52 18.27 C 46.34 16.50 43.62 15.45 40.83 15.23 L 40.58 13.92 Z" />
</g>
<g id="#b9bebeff">
<path fill="#b9bebe" opacity="1.00" d=" M 27.35 15.02 C 28.96 14.96 30.57 14.96 32.19 14.93 C 32.20 16.27 32.20 17.62 32.19 18.96 C 30.90 19.06 29.60 19.15 28.31 19.23 C 28.53 17.72 28.09 16.32 27.35 15.02 Z" />
</g>
<g id="#cacbccff">
<path fill="#cacbcc" opacity="1.00" d=" M 15.23 16.26 L 16.30 16.41 C 17.22 16.53 18.14 16.68 19.06 16.85 C 19.62 17.82 20.11 18.87 21.10 19.49 C 17.49 19.74 14.01 20.76 10.70 22.19 C 10.67 21.61 10.60 20.46 10.56 19.88 C 11.94 18.45 13.47 17.20 15.23 16.26 Z" />
</g>
<g id="#e790b5ff">
<path fill="#e790b5" opacity="1.00" d=" M 48.52 18.27 C 51.02 20.27 53.11 22.73 55.49 24.87 C 56.14 27.06 58.14 28.89 57.80 31.30 C 57.62 33.86 58.50 36.41 58.07 38.96 C 57.47 40.82 55.27 41.00 53.72 41.68 C 46.87 43.49 39.67 44.46 32.60 43.52 C 25.15 42.87 16.69 44.56 10.32 39.65 C 6.12 36.81 8.49 31.09 7.71 26.92 L 7.63 25.90 C 8.71 24.07 9.10 21.66 10.56 19.88 C 10.60 20.46 10.67 21.61 10.70 22.19 C 14.01 20.76 17.49 19.74 21.10 19.49 C 23.51 19.41 25.91 19.41 28.31 19.23 C 29.60 19.15 30.90 19.06 32.19 18.96 C 37.61 18.41 43.45 20.99 48.52 18.27 M 18.34 34.30 C 17.58 35.12 16.48 36.57 17.31 37.68 C 20.28 39.55 23.68 41.12 27.27 40.55 C 30.31 40.12 33.70 41.26 36.43 39.50 C 39.24 37.57 43.06 39.76 45.86 37.87 C 45.21 32.75 38.99 32.55 35.01 31.76 C 29.44 31.84 23.05 30.47 18.34 34.30 Z" />
</g>
<g id="#e0699fff">
<path fill="#e0699f" opacity="1.00" d=" M 4.62 33.94 C 5.51 31.55 6.15 28.99 7.71 26.92 C 8.49 31.09 6.12 36.81 10.32 39.65 C 16.69 44.56 25.15 42.87 32.60 43.52 C 39.67 44.46 46.87 43.49 53.72 41.68 C 55.27 41.00 57.47 40.82 58.07 38.96 C 58.50 36.41 57.62 33.86 57.80 31.30 L 58.47 31.05 C 60.61 37.95 61.91 45.79 59.16 52.70 C 59.89 50.11 60.72 46.39 58.47 44.40 C 53.21 47.13 47.14 45.91 41.61 47.62 C 35.40 47.79 29.19 46.85 22.96 47.32 C 17.22 46.07 10.95 47.06 5.59 44.38 C 3.82 41.24 5.03 37.38 4.62 33.94 Z" />
</g>
<g id="#eca8c5ff">
<path fill="#eca8c5" opacity="1.00" d=" M 18.34 34.30 C 23.05 30.47 29.44 31.84 35.01 31.76 C 38.99 32.55 45.21 32.75 45.86 37.87 C 43.06 39.76 39.24 37.57 36.43 39.50 C 33.70 41.26 30.31 40.12 27.27 40.55 C 23.68 41.12 20.28 39.55 17.31 37.68 C 16.48 36.57 17.58 35.12 18.34 34.30 Z" />
</g>
<g id="#d7427eff">
<path fill="#d7427e" opacity="1.00" d=" M 7.08 55.15 C 1.30 49.80 3.32 40.77 4.62 33.94 C 5.03 37.38 3.82 41.24 5.59 44.38 C 10.95 47.06 17.22 46.07 22.96 47.32 C 29.19 46.85 35.40 47.79 41.61 47.62 C 47.14 45.91 53.21 47.13 58.47 44.40 C 60.72 46.39 59.89 50.11 59.16 52.70 C 58.01 54.33 56.49 55.88 54.34 55.87 C 40.87 58.21 27.05 57.60 13.48 56.69 C 11.24 56.75 9.16 55.81 7.08 55.15 Z" />
</g>
<g id="#270d179d">
<path fill="#270d17" opacity="0.62" d=" M 13.48 56.69 C 27.05 57.60 40.87 58.21 54.34 55.87 C 49.54 59.75 42.73 57.69 37.09 59.20 C 32.72 59.13 28.31 59.52 23.99 58.70 C 20.54 58.15 16.17 59.34 13.48 56.69 Z" />
</g>
</svg>
