<?xml version="1.0" encoding="UTF-8" ?>
<!DOCTYPE svg PUBLIC "-//W3C//DTD SVG 1.1//EN" "http://www.w3.org/Graphics/SVG/1.1/DTD/svg11.dtd">
<svg width="64pt" height="64pt" viewBox="0 0 64 64" version="1.1" xmlns="http://www.w3.org/2000/svg">
<g id="#3a1913ff">
<path fill="#3a1913" opacity="1.00" d=" M 11.81 4.75 C 18.87 2.87 27.47 4.79 31.12 11.65 C 34.13 16.52 31.22 22.71 34.39 27.44 C 36.76 32.55 42.85 35.62 48.35 34.43 C 51.73 33.37 53.73 30.23 55.46 27.36 C 56.04 24.07 57.26 20.37 54.19 17.84 C 53.57 19.60 54.04 22.19 52.06 23.14 C 50.46 24.17 48.00 22.15 48.51 20.38 C 48.72 18.56 50.82 18.28 52.15 17.51 C 53.89 17.50 55.68 17.69 57.40 17.28 C 58.42 15.94 59.21 14.44 60.06 12.98 C 60.67 20.85 61.51 29.37 58.15 36.74 C 57.25 36.83 55.45 37.01 54.55 37.10 C 54.88 37.59 55.53 38.56 55.85 39.05 C 52.81 36.84 48.92 37.15 45.37 36.92 C 45.97 40.74 46.21 44.62 46.08 48.49 C 45.19 46.99 44.35 45.47 43.42 44.00 C 40.19 40.44 35.63 43.56 31.77 43.96 C 31.47 43.62 30.89 42.93 30.59 42.58 C 27.84 43.30 25.11 44.15 22.31 44.66 C 22.29 43.98 22.27 42.63 22.25 41.96 C 20.72 45.78 20.24 49.82 21.59 53.77 L 21.72 55.18 C 20.99 53.78 20.16 52.43 19.34 51.08 C 19.34 50.37 19.32 48.96 19.31 48.25 C 15.68 41.80 20.93 34.37 27.23 32.24 C 27.91 32.39 29.27 32.67 29.95 32.82 C 29.80 31.23 29.64 29.65 29.34 28.08 L 28.37 27.56 L 28.41 26.62 C 29.70 25.51 31.64 24.93 32.22 23.15 C 31.05 21.66 29.67 20.35 28.49 18.88 C 28.29 17.27 28.08 15.67 27.85 14.06 C 27.82 14.68 27.76 15.92 27.73 16.53 C 25.44 15.84 23.14 15.17 20.83 14.54 C 17.20 16.52 13.41 13.35 9.65 13.49 C 8.85 14.13 8.11 14.85 7.37 15.57 C 6.26 17.45 5.91 19.63 5.49 21.74 C 5.24 21.36 4.75 20.62 4.50 20.25 C 1.76 14.69 5.29 5.95 11.81 4.75 Z" />
<path fill="#3a1913" opacity="1.00" d=" M 11.47 17.70 C 11.24 19.15 11.08 20.62 10.98 22.10 C 11.56 20.72 12.09 19.31 13.02 18.13 C 14.04 19.76 14.42 21.74 12.76 23.06 C 10.62 24.72 6.95 20.93 9.48 19.21 L 11.47 17.70 Z" />
<path fill="#3a1913" opacity="1.00" d=" M 21.85 18.20 C 22.90 19.22 23.51 20.57 24.09 21.89 C 23.41 20.63 23.78 19.12 23.60 17.75 C 27.23 18.01 27.19 23.03 24.00 23.41 C 21.23 23.73 20.76 20.06 21.85 18.20 Z" />
<path fill="#3a1913" opacity="1.00" d=" M 39.13 23.44 C 35.66 24.03 35.20 18.66 38.30 17.74 C 38.24 19.20 38.49 20.70 38.03 22.11 C 38.61 20.68 39.11 19.18 40.13 17.98 C 41.52 19.74 41.74 22.79 39.13 23.44 Z" />
<path fill="#3a1913" opacity="1.00" d=" M 24.55 47.61 C 26.22 46.26 28.93 46.39 29.28 48.94 C 29.21 51.64 26.21 51.94 24.54 50.45 C 24.55 49.50 24.55 48.55 24.55 47.61 Z" />
<path fill="#3a1913" opacity="1.00" d=" M 37.64 46.68 C 40.56 46.00 41.67 51.04 38.51 51.43 C 35.54 51.99 34.58 47.30 37.64 46.68 Z" />
<path fill="#3a1913" opacity="1.00" d=" M 26.55 54.86 C 30.47 54.75 34.40 54.83 38.32 54.91 C 36.28 56.88 33.22 59.25 30.30 57.66 C 28.78 57.14 27.69 55.92 26.55 54.86 Z" />
</g>
<g id="#9e4f33ff">
<path fill="#9e4f33" opacity="1.00" d=" M 34.00 6.88 C 37.50 3.51 42.69 4.93 47.02 4.24 C 52.83 3.65 58.04 7.71 60.06 12.98 C 59.21 14.44 58.42 15.94 57.40 17.28 C 55.68 17.69 53.89 17.50 52.15 17.51 L 52.41 17.37 C 48.48 16.11 44.42 15.28 40.52 13.91 C 38.64 14.97 36.64 15.87 34.96 17.24 C 34.02 20.51 34.62 24.06 34.39 27.44 C 31.22 22.71 34.13 16.52 31.12 11.65 C 30.88 9.61 32.75 8.21 34.00 6.88 Z" />
<path fill="#9e4f33" opacity="1.00" d=" M 5.49 21.74 C 5.91 19.63 6.26 17.45 7.37 15.57 C 7.74 20.12 6.44 25.12 8.84 29.29 C 10.95 34.19 17.34 34.52 21.94 34.31 C 17.63 37.12 12.21 35.02 8.81 31.76 C 7.25 29.39 6.24 26.59 3.94 24.78 C 3.51 23.22 3.96 21.70 4.50 20.25 C 4.75 20.62 5.24 21.36 5.49 21.74 Z" />
<path fill="#9e4f33" opacity="1.00" d=" M 28.49 18.88 C 29.67 20.35 31.05 21.66 32.22 23.15 C 31.64 24.93 29.70 25.51 28.41 26.62 C 28.44 24.04 28.51 21.46 28.49 18.88 Z" />
<path fill="#9e4f33" opacity="1.00" d=" M 16.09 25.53 C 17.03 25.56 17.97 25.55 18.90 25.59 C 20.81 27.36 22.56 29.33 24.82 30.66 C 25.80 29.94 26.77 29.22 27.68 28.42 C 27.32 29.32 26.59 31.13 26.23 32.03 C 25.59 32.40 24.94 32.77 24.28 33.14 C 23.12 32.15 22.05 31.05 21.14 29.82 C 20.96 33.31 14.63 33.62 14.13 30.30 C 13.14 30.53 12.16 30.87 11.14 30.91 C 11.46 28.49 15.03 27.84 16.09 25.53 Z" />
<path fill="#9e4f33" opacity="1.00" d=" M 41.98 25.67 C 43.74 25.64 45.50 25.60 47.27 25.55 C 46.36 28.22 43.42 27.44 41.98 25.67 Z" />
<path fill="#9e4f33" opacity="1.00" d=" M 43.42 44.00 C 44.35 45.47 45.19 46.99 46.08 48.49 C 46.14 51.34 44.37 53.67 43.35 56.19 C 43.81 57.95 44.78 59.52 45.53 61.16 C 42.74 61.56 39.91 62.05 37.09 61.53 C 31.03 60.56 24.98 62.48 18.92 61.44 L 18.87 60.79 C 19.04 60.29 19.38 59.28 19.56 58.77 C 20.34 57.64 21.90 56.74 21.72 55.18 L 21.59 53.77 C 23.73 55.51 25.60 57.66 28.14 58.85 C 33.08 60.88 39.51 59.10 42.19 54.32 C 44.04 51.20 43.50 47.45 43.42 44.00 M 21.42 56.80 C 21.35 58.14 21.32 59.49 21.33 60.84 C 23.95 61.17 26.64 61.13 29.22 60.54 C 26.68 59.16 23.97 58.13 21.42 56.80 M 35.75 60.54 C 38.80 61.30 41.96 61.01 45.05 60.67 C 44.39 59.76 43.07 57.96 42.41 57.05 C 40.28 58.39 38.06 59.56 35.75 60.54 Z" />
<path fill="#9e4f33" opacity="1.00" d=" M 19.34 51.08 C 18.15 50.58 17.47 48.25 19.31 48.25 C 19.32 48.96 19.34 50.37 19.34 51.08 Z" />
<path fill="#9e4f33" opacity="1.00" d=" M 29.98 51.74 C 31.67 51.67 33.37 51.68 35.06 51.73 C 33.62 53.67 31.37 53.90 29.98 51.74 Z" />
</g>
<g id="#f8dbc3ff">
<path fill="#f8dbc3" opacity="1.00" d=" M 9.65 13.49 C 13.41 13.35 17.20 16.52 20.83 14.54 C 23.14 15.17 25.44 15.84 27.73 16.53 C 27.76 15.92 27.82 14.68 27.85 14.06 C 28.08 15.67 28.29 17.27 28.49 18.88 C 28.51 21.46 28.44 24.04 28.41 26.62 L 28.37 27.56 C 28.31 27.53 28.19 27.46 28.13 27.43 C 28.01 27.68 27.79 28.17 27.68 28.42 C 26.77 29.22 25.80 29.94 24.82 30.66 C 22.56 29.33 20.81 27.36 18.90 25.59 C 17.97 25.55 17.03 25.56 16.09 25.53 C 15.03 27.84 11.46 28.49 11.14 30.91 C 12.16 30.87 13.14 30.53 14.13 30.30 C 14.63 33.62 20.96 33.31 21.14 29.82 C 22.05 31.05 23.12 32.15 24.28 33.14 C 23.51 33.54 22.73 33.93 21.94 34.31 C 17.34 34.52 10.95 34.19 8.84 29.29 C 6.44 25.12 7.74 20.12 7.37 15.57 C 8.11 14.85 8.85 14.13 9.65 13.49 M 11.47 17.70 L 9.48 19.21 C 6.95 20.93 10.62 24.72 12.76 23.06 C 14.42 21.74 14.04 19.76 13.02 18.13 C 12.09 19.31 11.56 20.72 10.98 22.10 C 11.08 20.62 11.24 19.15 11.47 17.70 M 21.85 18.20 C 20.76 20.06 21.23 23.73 24.00 23.41 C 27.19 23.03 27.23 18.01 23.60 17.75 C 23.78 19.12 23.41 20.63 24.09 21.89 C 23.51 20.57 22.90 19.22 21.85 18.20 Z" />
<path fill="#f8dbc3" opacity="1.00" d=" M 34.96 17.24 C 36.64 15.87 38.64 14.97 40.52 13.91 C 44.42 15.28 48.48 16.11 52.41 17.37 L 52.15 17.51 C 50.82 18.28 48.72 18.56 48.51 20.38 C 48.00 22.15 50.46 24.17 52.06 23.14 C 54.04 22.19 53.57 19.60 54.19 17.84 C 57.26 20.37 56.04 24.07 55.46 27.36 C 53.73 30.23 51.73 33.37 48.35 34.43 C 42.85 35.62 36.76 32.55 34.39 27.44 C 34.62 24.06 34.02 20.51 34.96 17.24 M 39.13 23.44 C 41.74 22.79 41.52 19.74 40.13 17.98 C 39.11 19.18 38.61 20.68 38.03 22.11 C 38.49 20.70 38.24 19.20 38.30 17.74 C 35.20 18.66 35.66 24.03 39.13 23.44 M 41.98 25.67 C 43.42 27.44 46.36 28.22 47.27 25.55 C 45.50 25.60 43.74 25.64 41.98 25.67 M 39.68 29.22 C 40.93 33.64 49.82 33.73 49.45 28.92 C 46.20 28.56 42.91 28.80 39.68 29.22 Z" />
<path fill="#f8dbc3" opacity="1.00" d=" M 22.25 41.96 C 22.27 42.63 22.29 43.98 22.31 44.66 C 25.11 44.15 27.84 43.30 30.59 42.58 C 30.89 42.93 31.47 43.62 31.77 43.96 C 35.63 43.56 40.19 40.44 43.42 44.00 C 43.50 47.45 44.04 51.20 42.19 54.32 C 39.51 59.10 33.08 60.88 28.14 58.85 C 25.60 57.66 23.73 55.51 21.59 53.77 C 20.24 49.82 20.72 45.78 22.25 41.96 M 24.55 47.61 C 24.55 48.55 24.55 49.50 24.54 50.45 C 26.21 51.94 29.21 51.64 29.28 48.94 C 28.93 46.39 26.22 46.26 24.55 47.61 M 37.64 46.68 C 34.58 47.30 35.54 51.99 38.51 51.43 C 41.67 51.04 40.56 46.00 37.64 46.68 M 29.98 51.74 C 31.37 53.90 33.62 53.67 35.06 51.73 C 33.37 51.68 31.67 51.67 29.98 51.74 M 26.55 54.86 C 27.69 55.92 28.78 57.14 30.30 57.66 C 33.22 59.25 36.28 56.88 38.32 54.91 C 34.40 54.83 30.47 54.75 26.55 54.86 Z" />
<path fill="#f8dbc3" opacity="1.00" d=" M 21.42 56.80 C 23.97 58.13 26.68 59.16 29.22 60.54 C 26.64 61.13 23.95 61.17 21.33 60.84 C 21.32 59.49 21.35 58.14 21.42 56.80 Z" />
<path fill="#f8dbc3" opacity="1.00" d=" M 35.75 60.54 C 38.06 59.56 40.28 58.39 42.41 57.05 C 43.07 57.96 44.39 59.76 45.05 60.67 C 41.96 61.01 38.80 61.30 35.75 60.54 Z" />
</g>
<g id="#db3a29ff">
<path fill="#db3a29" opacity="1.00" d=" M 39.68 29.22 C 42.91 28.80 46.20 28.56 49.45 28.92 C 49.82 33.73 40.93 33.64 39.68 29.22 Z" />
<path fill="#db3a29" opacity="1.00" d=" M 45.37 36.92 C 48.92 37.15 52.81 36.84 55.85 39.05 C 58.02 41.73 59.83 44.85 60.54 48.25 C 60.92 52.55 60.65 56.87 60.73 61.17 C 55.66 61.20 50.60 61.21 45.53 61.16 C 44.78 59.52 43.81 57.95 43.35 56.19 C 44.37 53.67 46.14 51.34 46.08 48.49 C 46.21 44.62 45.97 40.74 45.37 36.92 Z" />
</g>
<g id="#1d50c4ff">
<path fill="#1d50c4" opacity="1.00" d=" M 8.81 31.76 C 12.21 35.02 17.63 37.12 21.94 34.31 C 22.73 33.93 23.51 33.54 24.28 33.14 C 24.94 32.77 25.59 32.40 26.23 32.03 L 27.23 32.24 C 20.93 34.37 15.68 41.80 19.31 48.25 C 17.47 48.25 18.15 50.58 19.34 51.08 C 20.16 52.43 20.99 53.78 21.72 55.18 C 21.90 56.74 20.34 57.64 19.56 58.77 C 19.38 59.28 19.04 60.29 18.87 60.79 L 18.16 61.11 C 13.18 61.30 8.19 61.13 3.21 61.19 C 3.24 53.79 3.09 46.39 3.23 39.00 C 2.73 35.40 6.47 33.65 8.81 31.76 Z" />
</g>
</svg>
