<?xml version="1.0" encoding="UTF-8" ?>
<!DOCTYPE svg PUBLIC "-//W3C//DTD SVG 1.1//EN" "http://www.w3.org/Graphics/SVG/1.1/DTD/svg11.dtd">
<svg width="64pt" height="64pt" viewBox="0 0 64 64" version="1.1" xmlns="http://www.w3.org/2000/svg">
<g id="#020307ff">
<path fill="#020307" opacity="1.00" d=" M 8.71 0.00 L 11.39 0.00 C 11.52 1.00 11.63 2.01 11.73 3.02 C 11.88 4.84 11.95 6.66 12.03 8.49 C 10.80 8.25 9.56 8.04 8.32 7.84 C 8.22 6.35 8.14 4.85 8.06 3.36 C 8.23 2.23 8.45 1.11 8.71 0.00 Z" />
<path fill="#020307" opacity="1.00" d=" M 47.13 0.00 L 49.27 0.00 C 49.82 1.19 50.31 2.41 50.84 3.60 C 51.11 3.91 51.63 4.52 51.90 4.82 L 50.26 4.00 C 50.30 4.99 50.37 6.98 50.41 7.97 C 49.00 7.95 47.59 7.94 46.19 7.96 C 46.28 6.14 46.38 4.32 46.55 2.50 C 46.73 1.66 46.92 0.83 47.13 0.00 Z" />
<path fill="#020307" opacity="1.00" d=" M 36.55 3.49 C 36.41 1.41 38.12 -0.92 40.28 0.62 C 40.43 2.32 40.35 4.03 40.63 5.71 C 40.70 6.23 40.85 7.26 40.93 7.78 C 39.68 7.93 38.43 8.12 37.20 8.33 C 36.96 6.72 36.74 5.11 36.55 3.49 Z" />
<path fill="#020307" opacity="1.00" d=" M 9.88 14.86 C 11.75 15.55 12.25 17.17 11.82 19.00 C 9.41 18.93 8.40 16.76 9.88 14.86 Z" />
<path fill="#020307" opacity="1.00" d=" M 38.75 15.17 C 39.25 15.40 40.24 15.87 40.74 16.11 C 40.81 16.54 40.93 17.40 41.00 17.83 C 40.50 18.11 39.51 18.67 39.01 18.95 C 38.67 18.50 37.98 17.60 37.64 17.15 C 37.92 16.65 38.47 15.66 38.75 15.17 Z" />
<path fill="#020307" opacity="1.00" d=" M 44.18 16.92 C 44.87 16.24 45.57 15.55 46.26 14.87 C 46.83 15.91 47.49 16.88 48.22 17.81 C 47.36 18.21 46.49 18.58 45.61 18.92 C 45.25 18.42 44.54 17.42 44.18 16.92 Z" />
<path fill="#020307" opacity="1.00" d=" M 21.13 41.06 C 21.45 37.45 21.80 33.82 22.90 30.35 C 23.38 34.76 21.01 39.42 23.34 43.56 C 24.56 44.36 25.76 45.19 26.96 46.01 C 23.91 43.21 20.05 44.73 16.93 46.60 C 16.09 46.39 15.24 46.22 14.39 46.07 C 13.05 45.25 11.55 44.76 10.06 44.29 C 9.86 42.70 9.72 41.11 9.59 39.52 C 9.51 38.74 9.35 37.18 9.27 36.40 C 9.50 36.77 9.97 37.52 10.21 37.89 C 10.92 40.08 10.38 43.25 13.17 44.01 C 15.79 45.80 21.18 44.80 21.13 41.06 Z" />
<path fill="#020307" opacity="1.00" d=" M 33.57 50.35 C 34.55 50.70 35.55 51.03 36.55 51.34 C 35.73 52.89 34.90 54.44 34.08 55.99 C 30.96 54.42 27.87 52.78 24.78 51.14 C 26.90 52.04 28.97 53.10 31.16 53.82 C 32.83 53.71 32.76 51.44 33.57 50.35 Z" />
</g>
<g id="#000000ff">
<path fill="#000000" opacity="1.00" d=" M 17.69 2.27 C 18.26 0.55 19.51 -0.12 21.43 0.26 C 21.36 2.85 21.24 5.44 20.97 8.02 C 20.13 8.07 18.44 8.19 17.60 8.24 C 17.63 6.25 17.65 4.26 17.69 2.27 Z" />
<path fill="#000000" opacity="1.00" d=" M 16.13 18.88 C 15.71 17.57 15.56 16.11 16.90 15.28 C 18.39 15.35 18.82 16.87 19.25 18.03 C 18.21 18.31 17.17 18.59 16.13 18.88 Z" />
<path fill="#000000" opacity="1.00" d=" M 10.16 22.72 C 12.55 22.70 14.94 22.59 17.32 22.60 L 17.65 22.87 C 17.25 23.19 16.45 23.83 16.05 24.15 C 14.04 23.93 11.91 23.89 10.16 22.72 Z" />
<path fill="#000000" opacity="1.00" d=" M 60.00 48.80 C 61.32 49.54 62.65 50.25 64.00 50.94 L 64.00 54.38 C 63.67 54.75 63.01 55.50 62.69 55.87 C 60.30 54.72 58.00 53.40 55.66 52.16 C 57.20 52.83 58.75 53.47 60.30 54.13 C 61.02 53.05 61.74 51.96 62.44 50.87 C 61.63 50.17 60.82 49.48 60.00 48.80 Z" />
</g>
<g id="#947727eb">
<path fill="#947727" opacity="0.92" d=" M 11.73 3.02 C 13.72 2.82 15.72 2.66 17.69 2.27 C 17.65 4.26 17.63 6.25 17.60 8.24 C 17.32 6.91 17.09 5.58 16.84 4.24 C 15.48 4.35 14.11 4.45 12.75 4.55 C 12.51 5.86 12.27 7.18 12.03 8.49 C 11.95 6.66 11.88 4.84 11.73 3.02 Z" />
</g>
<g id="#d4bf4dff">
<path fill="#d4bf4d" opacity="1.00" d=" M 40.74 3.38 C 42.68 3.07 44.61 2.77 46.55 2.50 C 46.38 4.32 46.28 6.14 46.19 7.96 C 47.59 7.94 49.00 7.95 50.41 7.97 C 50.37 6.98 50.30 4.99 50.26 4.00 L 51.90 4.82 C 52.63 5.61 53.39 6.38 54.01 7.26 C 54.08 9.71 54.05 12.16 53.99 14.61 C 53.45 14.47 52.38 14.18 51.84 14.04 C 51.04 13.83 50.25 13.64 49.45 13.46 C 46.26 12.86 43.06 12.09 40.24 10.43 C 39.79 10.58 38.89 10.88 38.44 11.03 C 37.54 11.31 36.63 11.57 35.71 11.80 C 35.02 11.76 33.65 11.68 32.97 11.64 C 33.80 8.90 34.83 6.21 36.30 3.75 L 36.55 3.49 C 36.74 5.11 36.96 6.72 37.20 8.33 C 38.43 8.12 39.68 7.93 40.93 7.78 C 40.85 7.26 40.70 6.23 40.63 5.71 C 40.66 5.13 40.71 3.96 40.74 3.38 Z" />
</g>
<g id="#cdb245ff">
<path fill="#cdb245" opacity="1.00" d=" M 4.65 6.59 C 5.74 5.47 6.90 4.42 8.06 3.36 C 8.14 4.85 8.22 6.35 8.32 7.84 C 9.56 8.04 10.80 8.25 12.03 8.49 C 15.74 10.49 19.92 11.19 24.07 11.62 C 23.45 10.00 22.59 8.49 21.48 7.16 C 21.68 6.27 22.15 5.64 22.91 5.27 L 23.11 5.75 C 24.59 8.22 25.64 10.91 25.59 13.83 C 24.32 13.72 23.06 13.60 21.79 13.46 C 18.12 13.09 14.35 12.43 11.29 10.21 C 10.84 10.43 9.94 10.87 9.49 11.09 C 8.76 11.48 8.04 11.89 7.33 12.32 L 6.69 12.71 C 3.26 12.35 4.80 8.83 4.65 6.59 Z" />
</g>
<g id="#e1d05bff">
<path fill="#e1d05b" opacity="1.00" d=" M 12.75 4.55 C 14.11 4.45 15.48 4.35 16.84 4.24 C 17.09 5.58 17.32 6.91 17.60 8.24 C 18.44 8.19 20.13 8.07 20.97 8.02 L 21.48 7.16 C 22.59 8.49 23.45 10.00 24.07 11.62 C 19.92 11.19 15.74 10.49 12.03 8.49 C 12.27 7.18 12.51 5.86 12.75 4.55 Z" />
</g>
<g id="#866921ff">
<path fill="#866921" opacity="1.00" d=" M 31.78 11.18 C 32.08 8.14 34.01 5.62 36.30 3.75 C 34.83 6.21 33.80 8.90 32.97 11.64 C 33.65 11.68 35.02 11.76 35.71 11.80 C 35.20 15.39 35.28 19.05 36.89 22.37 C 37.18 23.17 37.47 23.98 37.76 24.79 C 37.43 24.87 36.78 25.04 36.46 25.12 C 35.78 25.18 34.42 25.29 33.74 25.34 C 31.27 21.07 31.42 15.94 31.78 11.18 Z" />
</g>
<g id="#806921ff">
<path fill="#806921" opacity="1.00" d=" M 22.91 5.27 L 23.42 5.09 C 27.44 8.08 27.03 14.29 26.62 18.91 C 26.13 21.03 26.44 24.45 23.72 25.01 C 23.00 25.23 22.28 25.47 21.57 25.72 L 20.93 25.00 C 18.34 26.16 15.69 28.02 12.74 26.80 C 15.12 26.56 17.45 25.85 19.47 24.54 C 21.66 22.14 22.86 19.08 23.55 15.94 C 23.11 15.32 22.23 14.08 21.79 13.46 C 23.06 13.60 24.32 13.72 25.59 13.83 C 25.64 10.91 24.59 8.22 23.11 5.75 L 22.91 5.27 Z" />
<path fill="#806921" opacity="1.00" d=" M 3.11 20.12 C 2.59 15.61 2.24 10.66 4.65 6.59 C 4.80 8.83 3.26 12.35 6.69 12.71 C 5.90 14.13 5.20 15.60 4.50 17.07 C 6.26 19.42 8.00 21.83 8.98 24.63 C 8.65 24.79 7.98 25.12 7.65 25.29 C 4.23 26.35 3.44 22.58 3.11 20.12 Z" />
</g>
<g id="#846a25ff">
<path fill="#846a25" opacity="1.00" d=" M 54.01 7.26 C 56.22 11.11 55.67 15.74 55.29 19.97 C 54.88 21.80 54.88 24.49 52.60 25.03 C 51.74 25.32 50.89 25.64 50.05 25.99 C 49.88 25.64 49.54 24.95 49.37 24.61 C 49.71 23.72 50.07 22.84 50.43 21.96 C 51.66 19.50 51.76 16.73 51.84 14.04 C 52.38 14.18 53.45 14.47 53.99 14.61 C 54.05 12.16 54.08 9.71 54.01 7.26 Z" />
</g>
<g id="#fce0c6ff">
<path fill="#fce0c6" opacity="1.00" d=" M 9.49 11.09 C 9.94 10.87 10.84 10.43 11.29 10.21 C 14.35 12.43 18.12 13.09 21.79 13.46 C 21.01 15.12 20.19 16.75 19.43 18.41 C 19.38 18.32 19.29 18.13 19.25 18.03 C 18.82 16.87 18.39 15.35 16.90 15.28 C 15.56 16.11 15.71 17.57 16.13 18.88 C 14.69 18.97 13.26 19.01 11.82 19.00 C 12.25 17.17 11.75 15.55 9.88 14.86 C 9.70 13.61 9.60 12.35 9.49 11.09 Z" />
<path fill="#fce0c6" opacity="1.00" d=" M 38.44 11.03 C 38.89 10.88 39.79 10.58 40.24 10.43 C 43.06 12.09 46.26 12.86 49.45 13.46 C 49.18 14.94 49.12 16.54 48.22 17.81 C 47.49 16.88 46.83 15.91 46.26 14.87 C 45.57 15.55 44.87 16.24 44.18 16.92 C 44.54 17.42 45.25 18.42 45.61 18.92 C 44.16 19.11 42.70 19.25 41.23 19.36 L 41.00 17.83 C 40.93 17.40 40.81 16.54 40.74 16.11 C 40.24 15.87 39.25 15.40 38.75 15.17 C 38.63 13.79 38.53 12.41 38.44 11.03 Z" />
</g>
<g id="#f5c6a1ff">
<path fill="#f5c6a1" opacity="1.00" d=" M 7.33 12.32 C 8.04 11.89 8.76 11.48 9.49 11.09 C 9.60 12.35 9.70 13.61 9.88 14.86 C 8.40 16.76 9.41 18.93 11.82 19.00 C 13.26 19.01 14.69 18.97 16.13 18.88 C 17.17 18.59 18.21 18.31 19.25 18.03 C 19.29 18.13 19.38 18.32 19.43 18.41 C 20.19 16.75 21.01 15.12 21.79 13.46 C 22.23 14.08 23.11 15.32 23.55 15.94 C 22.86 19.08 21.66 22.14 19.47 24.54 C 19.01 24.12 18.11 23.29 17.65 22.87 L 17.32 22.60 C 14.94 22.59 12.55 22.70 10.16 22.72 C 9.85 22.55 9.22 22.22 8.91 22.06 C 6.93 19.18 7.09 15.64 7.33 12.32 M 12.31 20.14 C 11.95 21.77 15.97 21.78 15.67 20.16 C 14.55 19.73 13.43 19.72 12.31 20.14 Z" />
</g>
<g id="#f5c49aff">
<path fill="#f5c49a" opacity="1.00" d=" M 35.71 11.80 C 36.63 11.57 37.54 11.31 38.44 11.03 C 38.53 12.41 38.63 13.79 38.75 15.17 C 38.47 15.66 37.92 16.65 37.64 17.15 C 37.98 17.60 38.67 18.50 39.01 18.95 C 39.51 18.67 40.50 18.11 41.00 17.83 L 41.23 19.36 C 42.70 19.25 44.16 19.11 45.61 18.92 C 46.49 18.58 47.36 18.21 48.22 17.81 C 49.12 16.54 49.18 14.94 49.45 13.46 C 50.25 13.64 51.04 13.83 51.84 14.04 C 51.76 16.73 51.66 19.50 50.43 21.96 C 48.09 24.18 45.13 25.55 41.93 25.96 C 42.72 25.43 43.52 24.90 44.33 24.37 C 44.84 23.99 45.88 23.23 46.39 22.84 C 46.18 22.78 45.74 22.65 45.53 22.58 C 42.67 22.09 39.77 22.12 36.89 22.37 C 35.28 19.05 35.20 15.39 35.71 11.80 M 41.43 20.75 C 42.01 20.74 43.17 20.73 43.75 20.72 C 44.23 19.18 40.89 19.22 41.43 20.75 Z" />
</g>
<g id="#bc8d67ff">
<path fill="#bc8d67" opacity="1.00" d=" M 6.69 12.71 L 7.33 12.32 C 7.09 15.64 6.93 19.18 8.91 22.06 C 9.22 22.22 9.85 22.55 10.16 22.72 C 11.91 23.89 14.04 23.93 16.05 24.15 C 16.45 23.83 17.25 23.19 17.65 22.87 C 18.11 23.29 19.01 24.12 19.47 24.54 C 17.45 25.85 15.12 26.56 12.74 26.80 C 11.80 26.60 10.86 26.40 9.92 26.18 L 9.87 26.90 C 9.64 26.33 9.20 25.19 8.98 24.63 C 8.00 21.83 6.26 19.42 4.50 17.07 C 5.20 15.60 5.90 14.13 6.69 12.71 Z" />
</g>
<g id="#a47956ff">
<path fill="#a47956" opacity="1.00" d=" M 12.31 20.14 C 13.43 19.72 14.55 19.73 15.67 20.16 C 15.97 21.78 11.95 21.77 12.31 20.14 Z" />
</g>
<g id="#916847ff">
<path fill="#916847" opacity="1.00" d=" M 41.43 20.75 C 40.89 19.22 44.23 19.18 43.75 20.72 C 43.17 20.73 42.01 20.74 41.43 20.75 Z" />
</g>
<g id="#b68866ff">
<path fill="#b68866" opacity="1.00" d=" M 36.89 22.37 C 39.77 22.12 42.67 22.09 45.53 22.58 C 43.68 22.60 41.85 22.82 40.05 23.24 C 41.35 23.97 42.82 24.48 44.33 24.37 C 43.52 24.90 42.72 25.43 41.93 25.96 C 45.13 25.55 48.09 24.18 50.43 21.96 C 50.07 22.84 49.71 23.72 49.37 24.61 C 46.93 28.75 42.09 27.30 38.34 26.37 C 38.19 25.97 37.90 25.18 37.76 24.79 C 37.47 23.98 37.18 23.17 36.89 22.37 Z" />
</g>
<g id="#2e1410ff">
<path fill="#2e1410" opacity="1.00" d=" M 45.53 22.58 C 45.74 22.65 46.18 22.78 46.39 22.84 C 45.88 23.23 44.84 23.99 44.33 24.37 C 42.82 24.48 41.35 23.97 40.05 23.24 C 41.85 22.82 43.68 22.60 45.53 22.58 Z" />
</g>
<g id="#252525ff">
<path fill="#252525" opacity="1.00" d=" M 7.65 25.29 C 7.98 25.12 8.65 24.79 8.98 24.63 C 9.20 25.19 9.64 26.33 9.87 26.90 C 10.89 30.15 15.14 31.86 18.10 30.13 C 19.94 29.32 20.64 27.33 21.57 25.72 C 22.28 25.47 23.00 25.23 23.72 25.01 C 24.94 26.47 26.06 28.00 27.10 29.60 C 25.70 29.84 24.30 30.09 22.90 30.35 C 21.80 33.82 21.45 37.45 21.13 41.06 C 21.18 44.80 15.79 45.80 13.17 44.01 C 10.38 43.25 10.92 40.08 10.21 37.89 C 9.97 37.52 9.50 36.77 9.27 36.40 C 8.73 34.86 8.49 33.26 8.73 31.64 C 8.34 30.95 7.96 30.27 7.57 29.58 C 6.46 29.30 5.35 29.03 4.24 28.75 C 5.35 27.58 6.47 26.40 7.65 25.29 Z" />
<path fill="#252525" opacity="1.00" d=" M 36.46 25.12 C 36.78 25.04 37.43 24.87 37.76 24.79 C 37.90 25.18 38.19 25.97 38.34 26.37 C 39.44 29.35 42.72 31.67 45.93 30.52 C 48.10 29.95 49.32 27.96 50.05 25.99 C 50.89 25.64 51.74 25.32 52.60 25.03 C 53.79 26.52 54.91 28.08 55.93 29.70 C 54.57 29.87 53.20 30.05 51.84 30.23 C 52.11 30.59 52.66 31.33 52.93 31.70 L 52.05 30.97 C 51.61 34.70 50.58 38.49 51.41 42.25 C 51.65 42.56 52.13 43.20 52.37 43.52 C 53.53 44.48 54.74 45.38 55.98 46.24 C 54.68 45.50 53.37 44.78 52.06 44.05 C 49.93 44.87 47.83 45.75 45.76 46.73 C 44.94 46.47 44.11 46.22 43.29 45.97 C 42.15 45.52 41.02 45.05 39.90 44.57 C 39.41 44.32 38.42 43.82 37.93 43.57 C 37.70 45.44 37.45 47.32 37.24 49.19 C 37.41 47.07 37.55 44.95 37.69 42.83 C 35.52 41.95 33.32 40.94 31.86 39.02 C 33.81 40.41 35.93 41.65 38.37 41.87 L 38.45 40.35 C 38.37 36.73 36.97 33.24 37.42 29.57 C 35.97 29.34 34.51 29.19 33.05 29.03 C 34.16 27.71 35.27 26.38 36.46 25.12 Z" />
</g>
<g id="#f8cda8ff">
<path fill="#f8cda8" opacity="1.00" d=" M 12.74 26.80 C 15.69 28.02 18.34 26.16 20.93 25.00 L 21.57 25.72 C 20.64 27.33 19.94 29.32 18.10 30.13 C 15.14 31.86 10.89 30.15 9.87 26.90 L 9.92 26.18 C 10.86 26.40 11.80 26.60 12.74 26.80 Z" />
</g>
<g id="#ffd8aeff">
<path fill="#ffd8ae" opacity="1.00" d=" M 49.37 24.61 C 49.54 24.95 49.88 25.64 50.05 25.99 C 49.32 27.96 48.10 29.95 45.93 30.52 C 42.72 31.67 39.44 29.35 38.34 26.37 C 42.09 27.30 46.93 28.75 49.37 24.61 Z" />
</g>
<g id="#e7b68dff">
<path fill="#e7b68d" opacity="1.00" d=" M 4.67 29.10 C 6.15 29.75 7.54 30.85 7.32 32.66 C 5.89 32.89 5.17 33.70 5.16 35.10 L 5.19 36.03 C 6.53 37.37 7.95 38.62 9.36 39.89 C 8.16 40.38 6.94 40.79 5.72 41.23 L 5.28 41.06 C 4.97 39.56 4.10 38.93 2.69 39.16 C 2.58 38.85 2.35 38.22 2.24 37.91 C 2.56 35.96 2.74 34.00 2.79 32.03 C 3.26 31.29 4.20 29.83 4.67 29.10 Z" />
</g>
<g id="#cc9e78fc">
<path fill="#cc9e78" opacity="1.00" d=" M 22.90 30.35 C 24.30 30.09 25.70 29.84 27.10 29.60 C 28.04 31.14 28.92 32.72 29.80 34.30 C 29.75 34.63 29.66 35.30 29.61 35.63 C 28.29 38.00 26.76 40.36 24.49 41.93 C 23.70 41.27 23.08 40.49 22.64 39.57 C 23.91 38.00 25.23 36.47 26.59 34.97 C 25.37 33.42 24.16 31.86 22.90 30.35 Z" />
</g>
<g id="#ebba91ff">
<path fill="#ebba91" opacity="1.00" d=" M 32.65 29.51 C 35.21 29.29 36.68 31.13 36.37 33.60 L 35.06 32.99 C 34.71 33.69 34.01 35.09 33.66 35.78 C 35.31 37.26 36.96 38.72 38.45 40.35 L 38.37 41.87 C 35.93 41.65 33.81 40.41 31.86 39.02 C 30.75 37.91 30.33 36.36 30.04 34.86 L 29.61 35.63 C 29.66 35.30 29.75 34.63 29.80 34.30 C 30.03 34.42 30.48 34.67 30.71 34.80 C 31.37 33.04 32.03 31.28 32.65 29.51 Z" />
</g>
<g id="#e3b28aff">
<path fill="#e3b28a" opacity="1.00" d=" M 51.84 30.23 C 53.20 30.05 54.57 29.87 55.93 29.70 C 56.97 31.41 57.93 33.16 58.87 34.93 C 56.96 37.84 55.25 41.57 51.41 42.25 C 51.12 39.12 53.65 37.09 55.42 34.92 C 54.60 33.84 53.78 32.76 52.93 31.70 C 52.66 31.33 52.11 30.59 51.84 30.23 Z" />
</g>
<g id="#614a37a1">
<path fill="#614a37" opacity="0.63" d=" M 2.24 37.91 C -0.48 36.47 1.11 33.57 2.79 32.03 C 2.74 34.00 2.56 35.96 2.24 37.91 Z" />
</g>
<g id="#2c211859">
<path fill="#2c2118" opacity="0.35" d=" M 5.16 35.10 C 5.17 33.70 5.89 32.89 7.32 32.66 C 7.33 34.03 6.61 34.85 5.16 35.10 Z" />
</g>
<g id="#2d21175f">
<path fill="#2d2117" opacity="0.37" d=" M 2.69 39.16 C 4.10 38.93 4.97 39.56 5.28 41.06 C 3.90 41.07 3.04 40.44 2.69 39.16 Z" />
</g>
<g id="#e7ad80ff">
<path fill="#e7ad80" opacity="1.00" d=" M 9.36 39.89 L 9.59 39.52 C 9.72 41.11 9.86 42.70 10.06 44.29 C 11.55 44.76 13.05 45.25 14.39 46.07 L 14.38 46.51 C 13.26 51.26 12.91 56.14 12.20 60.96 C 11.33 60.89 9.58 60.76 8.71 60.70 C 7.99 55.03 9.10 49.36 9.15 43.69 C 9.18 43.44 9.24 42.93 9.26 42.68 C 8.09 42.18 6.90 41.70 5.72 41.23 C 6.94 40.79 8.16 40.38 9.36 39.89 Z" />
<path fill="#e7ad80" opacity="1.00" d=" M 38.42 43.99 L 39.90 44.57 C 41.02 45.05 42.15 45.52 43.29 45.97 L 43.19 46.61 C 42.03 51.31 41.64 56.15 40.97 60.94 C 40.20 60.90 38.64 60.83 37.87 60.80 C 37.38 55.18 38.43 49.60 38.42 43.99 Z" />
</g>
<g id="#000000f0">
<path fill="#000000" opacity="0.94" d=" M 8.28 60.98 C 7.97 55.20 8.18 49.40 9.15 43.69 C 9.10 49.36 7.99 55.03 8.71 60.70 C 10.18 61.56 13.48 61.56 12.27 64.00 L 7.24 64.00 C 7.60 63.00 7.95 61.99 8.28 60.98 Z" />
<path fill="#000000" opacity="0.94" d=" M 36.12 64.00 C 36.38 63.24 36.90 61.73 37.16 60.97 C 38.84 61.34 42.12 61.47 41.27 64.00 L 36.12 64.00 Z" />
</g>
<g id="#7b5d44da">
<path fill="#7b5d44" opacity="0.85" d=" M 37.93 43.57 C 38.42 43.82 39.41 44.32 39.90 44.57 L 38.42 43.99 C 38.43 49.60 37.38 55.18 37.87 60.80 C 38.64 60.83 40.20 60.90 40.97 60.94 C 41.64 56.15 42.03 51.31 43.19 46.61 C 43.45 52.47 41.79 58.17 41.62 64.00 L 41.27 64.00 C 42.12 61.47 38.84 61.34 37.16 60.97 C 36.74 57.05 36.80 53.10 37.24 49.19 C 37.45 47.32 37.70 45.44 37.93 43.57 Z" />
</g>
<g id="#e5ac7fff">
<path fill="#e5ac7f" opacity="1.00" d=" M 16.93 46.60 C 20.05 44.73 23.91 43.21 26.96 46.01 C 27.23 46.18 27.75 46.52 28.02 46.70 C 28.38 48.57 30.12 49.61 31.96 49.33 C 32.36 49.59 33.17 50.10 33.57 50.35 C 32.76 51.44 32.83 53.71 31.16 53.82 C 28.97 53.10 26.90 52.04 24.78 51.14 C 24.29 50.93 23.31 50.51 22.81 50.30 C 22.91 48.28 20.67 47.13 18.93 47.84 C 18.43 47.53 17.43 46.91 16.93 46.60 Z" />
<path fill="#e5ac7f" opacity="1.00" d=" M 45.76 46.73 C 47.83 45.75 49.93 44.87 52.06 44.05 C 53.37 44.78 54.68 45.50 55.98 46.24 C 57.33 47.08 58.68 47.93 60.00 48.80 C 60.82 49.48 61.63 50.17 62.44 50.87 C 61.74 51.96 61.02 53.05 60.30 54.13 C 58.75 53.47 57.20 52.83 55.66 52.16 C 52.23 50.59 49.08 48.50 45.76 46.73 Z" />
</g>
<g id="#6e533cd7">
<path fill="#6e533c" opacity="0.84" d=" M 12.20 60.96 C 12.91 56.14 13.26 51.26 14.38 46.51 C 14.66 52.40 13.19 58.16 12.69 64.00 L 12.27 64.00 C 13.48 61.56 10.18 61.56 8.71 60.70 C 9.58 60.76 11.33 60.89 12.20 60.96 Z" />
</g>
<g id="#70543dc1">
<path fill="#70543d" opacity="0.76" d=" M 28.02 46.70 C 29.69 46.89 31.22 47.77 31.96 49.33 C 30.12 49.61 28.38 48.57 28.02 46.70 Z" />
</g>
<g id="#6e523cbf">
<path fill="#6e523c" opacity="0.75" d=" M 18.93 47.84 C 20.67 47.13 22.91 48.28 22.81 50.30 C 21.28 49.91 19.94 49.06 18.93 47.84 Z" />
</g>
</svg>
