<?xml version="1.0" encoding="UTF-8" ?>
<!DOCTYPE svg PUBLIC "-//W3C//DTD SVG 1.1//EN" "http://www.w3.org/Graphics/SVG/1.1/DTD/svg11.dtd">
<svg width="64pt" height="64pt" viewBox="0 0 64 64" version="1.1" xmlns="http://www.w3.org/2000/svg">
<g id="#160604ff">
<path fill="#160604" opacity="1.00" d=" M 14.29 0.00 L 16.30 0.00 C 16.34 1.99 19.70 2.00 19.73 0.00 L 21.73 0.00 C 24.18 0.63 26.69 1.69 28.13 3.89 C 30.24 6.68 29.98 10.36 30.00 13.67 C 29.13 12.99 28.27 12.30 27.38 11.66 C 26.99 11.55 26.22 11.34 25.83 11.24 C 23.26 10.62 20.68 10.02 18.15 9.25 C 15.65 10.00 13.10 10.57 10.52 10.95 L 9.04 11.18 C 8.33 12.51 7.71 13.90 7.06 15.26 C 6.85 14.63 6.43 13.37 6.22 12.74 C 5.30 7.19 8.40 1.01 14.29 0.00 M 11.56 3.51 C 10.29 4.49 10.45 6.23 10.11 7.63 C 15.36 7.48 20.62 7.38 25.87 7.65 C 25.56 6.24 25.90 4.40 24.45 3.52 C 22.37 1.85 19.49 2.35 17.00 2.23 C 15.17 2.39 12.98 2.07 11.56 3.51 Z" />
</g>
<g id="#140603a6">
<path fill="#140603" opacity="0.65" d=" M 16.30 0.00 L 19.73 0.00 C 19.70 2.00 16.34 1.99 16.30 0.00 Z" />
</g>
<g id="#290e0aff">
<path fill="#290e0a" opacity="1.00" d=" M 36.95 13.19 C 34.86 8.60 37.24 2.62 42.12 1.09 C 46.63 -0.29 51.81 -0.34 56.14 1.67 C 60.96 4.72 59.74 11.02 60.01 15.85 C 59.54 16.23 58.60 17.00 58.13 17.38 C 59.08 13.75 57.88 10.13 55.20 7.58 C 54.97 7.79 54.51 8.20 54.28 8.40 C 50.04 9.72 45.60 9.61 41.22 9.94 L 40.79 9.84 C 40.31 9.72 39.35 9.48 38.87 9.36 C 38.23 12.46 38.02 15.69 38.93 18.76 C 38.25 17.83 37.52 16.92 36.77 16.04 C 36.81 15.32 36.91 13.90 36.95 13.19 M 43.28 3.32 C 42.90 3.76 42.15 4.63 41.78 5.06 C 43.29 6.94 45.97 6.33 48.09 6.48 C 50.14 6.35 52.99 6.46 53.92 4.17 C 51.05 1.70 46.63 2.30 43.28 3.32 Z" />
<path fill="#290e0a" opacity="1.00" d=" M 12.49 13.79 C 13.36 13.50 15.10 12.92 15.97 12.63 C 16.16 13.42 16.52 14.98 16.71 15.77 C 15.02 15.71 13.35 15.43 12.49 13.79 Z" />
<path fill="#290e0a" opacity="1.00" d=" M 42.68 15.18 C 43.02 13.51 44.60 13.05 45.95 12.45 C 46.10 13.27 46.42 14.92 46.57 15.75 C 45.27 15.62 43.96 15.48 42.68 15.18 Z" />
<path fill="#290e0a" opacity="1.00" d=" M 13.59 20.18 C 16.64 19.94 19.71 19.93 22.77 20.19 C 20.05 22.22 16.32 22.12 13.59 20.18 Z" />
<path fill="#290e0a" opacity="1.00" d=" M 43.64 19.71 C 46.34 20.05 49.14 19.74 51.80 20.42 C 50.11 21.93 47.72 21.47 45.65 21.74 C 45.15 21.23 44.14 20.21 43.64 19.71 Z" />
</g>
<g id="#52251cff">
<path fill="#52251c" opacity="1.00" d=" M 11.56 3.51 C 12.98 2.07 15.17 2.39 17.00 2.23 C 19.49 2.35 22.37 1.85 24.45 3.52 C 25.90 4.40 25.56 6.24 25.87 7.65 C 20.62 7.38 15.36 7.48 10.11 7.63 C 10.45 6.23 10.29 4.49 11.56 3.51 Z" />
<path fill="#52251c" opacity="1.00" d=" M 43.28 3.32 C 46.63 2.30 51.05 1.70 53.92 4.17 C 52.99 6.46 50.14 6.35 48.09 6.48 C 45.97 6.33 43.29 6.94 41.78 5.06 C 42.15 4.63 42.90 3.76 43.28 3.32 Z" />
<path fill="#52251c" opacity="1.00" d=" M 12.92 23.00 C 16.48 23.86 20.22 23.91 23.68 22.60 C 23.40 22.83 22.85 23.30 22.57 23.54 C 21.10 24.23 19.67 25.06 18.07 25.41 C 15.66 24.99 13.46 23.83 11.17 23.03 C 11.75 23.03 12.34 23.02 12.92 23.00 Z" />
</g>
<g id="#f0c59eff">
<path fill="#f0c59e" opacity="1.00" d=" M 54.28 8.40 C 54.51 8.20 54.97 7.79 55.20 7.58 C 55.75 9.70 56.56 11.81 56.54 14.03 C 55.86 16.09 54.21 17.60 52.99 19.34 C 51.73 19.29 50.48 19.26 49.22 19.23 C 49.43 18.67 49.84 17.56 50.04 17.00 C 48.76 17.00 47.48 17.00 46.20 17.00 C 46.39 17.56 46.76 18.69 46.95 19.26 C 46.02 19.27 44.17 19.29 43.24 19.30 C 41.85 17.35 40.66 15.26 39.45 13.19 C 39.89 12.08 40.34 10.96 40.79 9.84 L 41.22 9.94 C 42.81 10.75 44.37 11.62 45.95 12.45 C 44.60 13.05 43.02 13.51 42.68 15.18 C 43.96 15.48 45.27 15.62 46.57 15.75 C 47.00 15.66 47.86 15.48 48.30 15.39 C 48.73 14.51 49.19 13.64 49.66 12.78 C 51.60 11.79 52.92 10.03 54.28 8.40 M 50.03 13.19 C 49.63 14.57 50.00 15.55 51.14 16.13 C 53.09 16.35 52.97 14.43 53.24 13.08 C 52.44 13.11 50.83 13.16 50.03 13.19 Z" />
</g>
<g id="#c9956bfe">
<path fill="#c9956b" opacity="1.00" d=" M 55.20 7.58 C 57.88 10.13 59.08 13.75 58.13 17.38 C 57.68 18.15 57.24 18.94 56.69 19.65 C 55.40 20.16 54.05 20.51 52.70 20.83 C 52.77 20.46 52.92 19.71 52.99 19.34 C 54.21 17.60 55.86 16.09 56.54 14.03 C 56.56 11.81 55.75 9.70 55.20 7.58 Z" />
</g>
<g id="#ffe2c2ff">
<path fill="#ffe2c2" opacity="1.00" d=" M 10.52 10.95 C 13.10 10.57 15.65 10.00 18.15 9.25 C 20.68 10.02 23.26 10.62 25.83 11.24 C 23.71 11.78 21.53 11.88 19.35 11.73 C 19.03 13.15 18.75 14.58 18.45 16.00 C 18.02 15.94 17.14 15.82 16.71 15.77 C 16.52 14.98 16.16 13.42 15.97 12.63 C 14.17 12.03 12.36 11.42 10.52 10.95 Z" />
<path fill="#ffe2c2" opacity="1.00" d=" M 41.22 9.94 C 45.60 9.61 50.04 9.72 54.28 8.40 C 52.92 10.03 51.60 11.79 49.66 12.78 C 49.19 13.64 48.73 14.51 48.30 15.39 C 47.86 15.48 47.00 15.66 46.57 15.75 C 46.42 14.92 46.10 13.27 45.95 12.45 C 44.37 11.62 42.81 10.75 41.22 9.94 Z" />
</g>
<g id="#d09c70ff">
<path fill="#d09c70" opacity="1.00" d=" M 38.93 18.76 C 38.02 15.69 38.23 12.46 38.87 9.36 C 39.35 9.48 40.31 9.72 40.79 9.84 C 40.34 10.96 39.89 12.08 39.45 13.19 C 40.66 15.26 41.85 17.35 43.24 19.30 L 43.64 19.71 C 44.14 20.21 45.15 21.23 45.65 21.74 C 44.84 21.88 43.22 22.16 42.40 22.30 L 42.24 22.24 C 42.06 20.71 41.20 19.90 39.66 19.83 C 39.48 19.57 39.12 19.03 38.93 18.76 Z" />
</g>
<g id="#b98962fc">
<path fill="#b98962" opacity="1.00" d=" M 7.06 15.26 C 7.71 13.90 8.33 12.51 9.04 11.18 C 9.60 13.77 10.36 16.31 11.34 18.78 C 13.11 18.80 14.87 18.86 16.63 18.79 C 16.70 18.33 16.85 17.42 16.92 16.97 C 17.96 16.98 19.00 17.00 20.05 17.02 C 19.85 17.48 19.46 18.39 19.26 18.85 C 20.82 19.21 22.39 19.57 23.95 19.94 C 24.84 19.66 25.74 19.39 26.63 19.11 C 25.77 20.37 24.84 21.59 23.68 22.60 C 20.22 23.91 16.48 23.86 12.92 23.00 C 10.92 21.22 9.29 19.08 7.93 16.79 C 7.53 16.48 6.74 15.88 6.35 15.58 C 6.32 14.87 6.25 13.45 6.22 12.74 C 6.43 13.37 6.85 14.63 7.06 15.26 M 13.59 20.18 C 16.32 22.12 20.05 22.22 22.77 20.19 C 19.71 19.93 16.64 19.94 13.59 20.18 Z" />
</g>
<g id="#f0bb93ff">
<path fill="#f0bb93" opacity="1.00" d=" M 9.04 11.18 L 10.52 10.95 C 12.36 11.42 14.17 12.03 15.97 12.63 C 15.10 12.92 13.36 13.50 12.49 13.79 C 13.35 15.43 15.02 15.71 16.71 15.77 C 17.14 15.82 18.02 15.94 18.45 16.00 C 18.75 14.58 19.03 13.15 19.35 11.73 C 21.53 11.88 23.71 11.78 25.83 11.24 C 26.22 11.34 26.99 11.55 27.38 11.66 C 27.53 13.67 27.55 15.68 27.55 17.69 C 27.32 18.05 26.86 18.76 26.63 19.11 C 25.74 19.39 24.84 19.66 23.95 19.94 C 22.39 19.57 20.82 19.21 19.26 18.85 C 19.46 18.39 19.85 17.48 20.05 17.02 C 19.00 17.00 17.96 16.98 16.92 16.97 C 16.85 17.42 16.70 18.33 16.63 18.79 C 14.87 18.86 13.11 18.80 11.34 18.78 C 10.36 16.31 9.60 13.77 9.04 11.18 M 20.40 15.54 C 21.95 17.91 25.38 12.66 21.93 12.89 C 20.66 12.70 17.97 14.53 20.40 15.54 Z" />
</g>
<g id="#845c3dfd">
<path fill="#845c3d" opacity="1.00" d=" M 27.38 11.66 C 28.27 12.30 29.13 12.99 30.00 13.67 C 29.97 14.15 29.91 15.11 29.88 15.58 C 29.09 16.27 28.31 16.97 27.55 17.69 C 27.55 15.68 27.53 13.67 27.38 11.66 Z" />
</g>
<g id="#463d35ff">
<path fill="#463d35" opacity="1.00" d=" M 20.40 15.54 C 17.97 14.53 20.66 12.70 21.93 12.89 C 25.38 12.66 21.95 17.91 20.40 15.54 Z" />
<path fill="#463d35" opacity="1.00" d=" M 50.03 13.19 C 50.83 13.16 52.44 13.11 53.24 13.08 C 52.97 14.43 53.09 16.35 51.14 16.13 C 50.00 15.55 49.63 14.57 50.03 13.19 Z" />
</g>
<g id="#84664bc6">
<path fill="#84664b" opacity="0.78" d=" M 36.77 16.04 C 35.69 15.44 35.19 13.11 36.95 13.19 C 36.91 13.90 36.81 15.32 36.77 16.04 Z" />
</g>
<g id="#0b0101ff">
<path fill="#0b0101" opacity="1.00" d=" M 6.35 15.58 C 6.74 15.88 7.53 16.48 7.93 16.79 C 9.29 19.08 10.92 21.22 12.92 23.00 C 12.34 23.02 11.75 23.03 11.17 23.03 L 10.81 22.98 C 9.51 22.82 8.22 22.66 6.93 22.50 C 6.74 20.19 6.53 17.89 6.35 15.58 Z" />
<path fill="#0b0101" opacity="1.00" d=" M 27.55 17.69 C 28.31 16.97 29.09 16.27 29.88 15.58 C 29.68 17.89 29.48 20.20 29.30 22.51 C 27.59 22.70 25.88 22.88 24.17 23.09 L 23.45 23.18 L 22.57 23.54 C 22.85 23.30 23.40 22.83 23.68 22.60 C 24.84 21.59 25.77 20.37 26.63 19.11 C 26.86 18.76 27.32 18.05 27.55 17.69 Z" />
</g>
<g id="#b78861fe">
<path fill="#b78861" opacity="1.00" d=" M 46.20 17.00 C 47.48 17.00 48.76 17.00 50.04 17.00 C 49.84 17.56 49.43 18.67 49.22 19.23 C 50.48 19.26 51.73 19.29 52.99 19.34 C 52.92 19.71 52.77 20.46 52.70 20.83 C 54.05 20.51 55.40 20.16 56.69 19.65 C 54.13 23.83 48.45 24.16 44.18 23.06 L 42.89 22.51 L 42.40 22.30 C 43.22 22.16 44.84 21.88 45.65 21.74 C 47.72 21.47 50.11 21.93 51.80 20.42 C 49.14 19.74 46.34 20.05 43.64 19.71 L 43.24 19.30 C 44.17 19.29 46.02 19.27 46.95 19.26 C 46.76 18.69 46.39 17.56 46.20 17.00 Z" />
</g>
<g id="#88603be9">
<path fill="#88603b" opacity="0.91" d=" M 39.66 19.83 C 41.20 19.90 42.06 20.71 42.24 22.24 C 40.91 21.94 40.05 21.14 39.66 19.83 Z" />
</g>
<g id="#012c98f8">
<path fill="#012c98" opacity="0.97" d=" M 36.12 28.95 C 37.28 25.84 39.90 23.75 42.89 22.51 L 44.18 23.06 C 48.01 25.26 52.87 21.64 56.23 24.78 C 57.18 25.56 57.99 26.55 58.43 27.71 C 57.53 29.31 56.95 31.06 57.18 32.92 C 57.16 34.89 57.15 36.87 56.89 38.83 C 51.61 42.16 44.94 42.20 39.54 39.13 C 39.32 35.84 39.54 32.54 39.49 29.24 C 39.21 29.23 38.66 29.22 38.38 29.21 C 37.82 29.14 36.69 29.02 36.12 28.95 M 40.58 26.61 C 40.23 30.29 40.71 34.26 42.35 37.60 C 45.91 40.64 50.84 39.45 54.61 37.51 C 55.18 34.04 55.89 30.48 55.24 26.96 C 53.93 24.74 51.09 25.71 48.99 25.44 C 46.20 25.70 42.64 23.95 40.58 26.61 Z" />
</g>
<g id="#751511ff">
<path fill="#751511" opacity="1.00" d=" M 6.25 28.45 C 7.19 26.21 9.02 24.56 10.81 22.98 C 9.36 24.67 7.91 26.36 6.49 28.07 C 7.76 28.60 9.03 29.13 10.30 29.66 C 10.50 30.77 10.72 31.88 10.94 32.98 C 11.21 34.99 13.42 34.72 14.92 35.05 C 17.80 35.44 20.69 34.85 23.50 34.26 L 25.01 33.87 C 24.92 35.19 24.89 36.51 24.91 37.83 C 20.24 38.41 15.54 38.39 10.85 38.05 C 10.68 38.57 10.35 39.62 10.18 40.14 C 10.64 37.78 10.58 35.36 10.08 33.01 C 9.60 30.46 8.44 35.36 7.47 35.96 C 8.32 33.99 9.21 32.04 10.09 30.08 C 8.81 29.54 7.53 28.99 6.25 28.45 Z" />
</g>
<g id="#f86a64ff">
<path fill="#f86a64" opacity="1.00" d=" M 10.81 22.98 L 11.17 23.03 C 13.46 23.83 15.66 24.99 18.07 25.41 C 19.67 25.06 21.10 24.23 22.57 23.54 L 23.45 23.18 C 24.47 24.46 25.49 25.73 26.51 27.01 C 25.28 29.33 24.29 31.76 23.50 34.26 C 20.69 34.85 17.80 35.44 14.92 35.05 C 13.42 34.72 11.21 34.99 10.94 32.98 C 10.72 31.88 10.50 30.77 10.30 29.66 C 9.03 29.13 7.76 28.60 6.49 28.07 C 7.91 26.36 9.36 24.67 10.81 22.98 Z" />
</g>
<g id="#d14b46f4">
<path fill="#d14b46" opacity="0.96" d=" M 23.45 23.18 L 24.17 23.09 C 26.13 24.49 27.94 26.18 29.04 28.35 C 27.82 29.18 26.60 30.00 25.37 30.82 C 25.26 31.84 25.14 32.85 25.01 33.87 L 23.50 34.26 C 24.29 31.76 25.28 29.33 26.51 27.01 C 25.49 25.73 24.47 24.46 23.45 23.18 Z" />
</g>
<g id="#003dd5ff">
<path fill="#003dd5" opacity="1.00" d=" M 40.58 26.61 C 42.64 23.95 46.20 25.70 48.99 25.44 C 51.09 25.71 53.93 24.74 55.24 26.96 C 55.89 30.48 55.18 34.04 54.61 37.51 C 50.84 39.45 45.91 40.64 42.35 37.60 C 40.71 34.26 40.23 30.29 40.58 26.61 Z" />
</g>
<g id="#f0c5a0ff">
<path fill="#f0c5a0" opacity="1.00" d=" M 6.25 28.45 C 7.53 28.99 8.81 29.54 10.09 30.08 C 9.21 32.04 8.32 33.99 7.47 35.96 C 5.81 38.42 4.04 40.80 2.19 43.13 C 1.64 42.81 0.55 42.17 0.00 41.86 L 0.00 41.28 C 1.62 36.79 4.28 32.78 6.25 28.45 Z" />
</g>
<g id="#f0c39eff">
<path fill="#f0c39e" opacity="1.00" d=" M 25.37 30.82 C 26.60 30.00 27.82 29.18 29.04 28.35 C 29.97 31.21 30.78 34.11 31.93 36.90 C 33.30 34.23 34.71 31.60 36.12 28.95 C 36.69 29.02 37.82 29.14 38.38 29.21 C 38.74 30.26 39.04 31.33 39.33 32.40 C 36.66 35.93 35.33 40.90 31.18 43.04 C 29.10 39.03 26.42 35.29 25.37 30.82 Z" />
</g>
<g id="#eabe99ff">
<path fill="#eabe99" opacity="1.00" d=" M 57.18 32.92 C 56.95 31.06 57.53 29.31 58.43 27.71 C 59.91 31.56 60.56 35.88 63.52 38.98 L 64.00 39.11 L 64.00 40.29 L 63.37 41.03 C 62.98 41.45 62.19 42.29 61.79 42.71 C 59.10 40.08 57.21 36.77 57.18 32.92 Z" />
</g>
<g id="#f86761ff">
<path fill="#f86761" opacity="1.00" d=" M 10.85 38.05 C 15.54 38.39 20.24 38.41 24.91 37.83 C 25.28 39.52 25.72 41.19 26.33 42.80 C 26.02 43.99 25.71 45.17 25.40 46.36 C 21.65 45.94 18.01 47.37 14.27 46.91 C 12.02 46.69 9.78 46.36 7.53 46.10 C 8.60 44.20 9.53 42.22 10.18 40.14 C 10.35 39.62 10.68 38.57 10.85 38.05 Z" />
</g>
<g id="#69370bff">
<path fill="#69370b" opacity="1.00" d=" M 39.54 39.13 C 44.94 42.20 51.61 42.16 56.89 38.83 C 56.43 42.13 56.03 45.45 55.85 48.78 C 55.63 51.88 55.65 55.01 55.08 58.07 C 54.01 58.98 52.83 59.74 51.55 60.36 C 51.06 58.18 50.58 56.01 50.20 53.81 C 49.69 50.59 49.30 47.36 48.89 44.14 C 48.30 44.17 47.13 44.24 46.54 44.27 C 45.81 49.36 45.22 54.46 44.58 59.56 C 43.15 59.55 41.72 59.55 40.30 59.55 C 39.28 52.79 40.00 45.93 39.54 39.13 Z" />
</g>
<g id="#c54541f4">
<path fill="#c54541" opacity="0.96" d=" M 26.33 42.80 C 27.10 44.46 27.96 46.07 28.81 47.69 C 26.52 48.13 24.23 48.61 21.92 48.98 C 21.27 49.06 19.99 49.21 19.34 49.29 C 18.33 49.36 17.31 49.41 16.29 49.42 C 14.65 49.16 13.02 48.82 11.39 48.49 C 10.06 48.23 8.69 48.19 7.34 48.13 C 7.12 48.08 6.69 47.99 6.47 47.94 C 6.74 47.48 7.27 46.56 7.53 46.10 C 9.78 46.36 12.02 46.69 14.27 46.91 C 18.01 47.37 21.65 45.94 25.40 46.36 C 25.71 45.17 26.02 43.99 26.33 42.80 Z" />
</g>
<g id="#010000ff">
<path fill="#010000" opacity="1.00" d=" M 7.34 48.13 C 8.69 48.19 10.06 48.23 11.39 48.49 C 10.56 52.16 10.32 55.91 10.24 59.66 C 11.88 59.70 13.52 59.76 15.16 59.82 L 15.20 61.31 C 15.23 61.98 15.29 63.33 15.32 64.00 L 9.53 64.00 C 9.67 63.11 9.96 61.33 10.10 60.44 C 10.34 56.99 10.66 53.47 9.94 50.07 C 9.56 48.92 8.23 48.71 7.34 48.13 Z" />
<path fill="#010000" opacity="1.00" d=" M 55.08 58.07 C 55.65 55.01 55.63 51.88 55.85 48.78 C 55.84 53.85 54.79 59.01 56.14 64.00 L 50.16 64.00 C 50.23 63.37 50.36 62.12 50.43 61.49 C 50.73 58.93 50.51 56.35 50.20 53.81 C 50.58 56.01 51.06 58.18 51.55 60.36 C 52.83 59.74 54.01 58.98 55.08 58.07 Z" />
<path fill="#010000" opacity="1.00" d=" M 40.30 59.55 C 41.72 59.55 43.15 59.55 44.58 59.56 C 44.66 59.83 44.82 60.38 44.90 60.66 C 45.09 61.49 45.47 63.16 45.65 64.00 L 39.44 64.00 C 39.73 62.52 40.02 61.03 40.30 59.55 Z" />
<path fill="#010000" opacity="1.00" d=" M 21.15 60.14 C 22.42 59.94 23.70 59.77 24.97 59.62 C 25.44 61.08 25.91 62.55 26.42 64.00 L 20.04 64.00 C 20.05 63.20 20.08 61.59 20.09 60.79 C 20.35 60.63 20.89 60.30 21.15 60.14 Z" />
</g>
<g id="#edbb93ff">
<path fill="#edbb93" opacity="1.00" d=" M 11.39 48.49 C 13.02 48.82 14.65 49.16 16.29 49.42 C 15.80 52.87 15.22 56.33 15.16 59.82 C 13.52 59.76 11.88 59.70 10.24 59.66 C 10.32 55.91 10.56 52.16 11.39 48.49 Z" />
<path fill="#edbb93" opacity="1.00" d=" M 19.34 49.29 C 19.99 49.21 21.27 49.06 21.92 48.98 C 22.72 48.87 24.32 48.66 25.12 48.55 C 25.17 52.15 25.23 55.74 25.12 59.33 C 23.54 59.38 21.96 59.47 20.38 59.59 C 20.19 56.14 19.70 52.72 19.34 49.29 Z" />
</g>
<g id="#0100002b">
<path fill="#010000" opacity="0.17" d=" M 3.14 64.00 C 5.44 62.78 7.74 61.54 10.10 60.44 C 9.96 61.33 9.67 63.11 9.53 64.00 L 3.14 64.00 Z" />
</g>
<g id="#03000046">
<path fill="#030000" opacity="0.27" d=" M 15.20 61.31 C 16.83 61.18 18.47 61.04 20.09 60.79 C 20.08 61.59 20.05 63.20 20.04 64.00 L 15.32 64.00 C 15.29 63.33 15.23 61.98 15.20 61.31 Z" />
<path fill="#030000" opacity="0.27" d=" M 44.90 60.66 C 46.74 60.98 48.58 61.23 50.43 61.49 C 50.36 62.12 50.23 63.37 50.16 64.00 L 45.65 64.00 C 45.47 63.16 45.09 61.49 44.90 60.66 Z" />
</g>
</svg>
