<?xml version="1.0" encoding="UTF-8" ?>
<!DOCTYPE svg PUBLIC "-//W3C//DTD SVG 1.1//EN" "http://www.w3.org/Graphics/SVG/1.1/DTD/svg11.dtd">
<svg width="64pt" height="64pt" viewBox="0 0 64 64" version="1.1" xmlns="http://www.w3.org/2000/svg">
<g id="#d0bd98fb">
<path fill="#d0bd98" opacity="1.00" d=" M 5.78 24.91 C 6.32 21.87 11.49 24.28 13.74 24.28 C 20.68 28.04 25.63 34.41 31.21 39.81 C 33.96 38.33 36.27 35.54 39.97 37.00 C 42.59 38.08 44.83 39.91 47.23 41.40 C 46.42 42.72 45.48 43.95 44.50 45.15 C 41.74 42.46 38.57 38.10 34.28 39.16 C 33.06 40.77 32.06 42.53 30.75 44.08 C 30.78 43.52 30.84 42.41 30.88 41.85 C 28.88 43.27 28.08 45.68 27.34 47.91 C 27.28 49.42 26.54 50.11 25.13 49.96 C 22.73 46.25 20.85 42.24 18.52 38.50 C 13.85 35.22 9.06 32.00 5.19 27.76 C 5.27 26.79 5.47 25.84 5.78 24.91 Z" />
</g>
<g id="#a28249f8">
<path fill="#a28249" opacity="0.97" d=" M 5.20 32.80 C 5.43 30.38 1.89 24.85 5.78 24.91 C 5.47 25.84 5.27 26.79 5.19 27.76 C 9.06 32.00 13.85 35.22 18.52 38.50 C 20.85 42.24 22.73 46.25 25.13 49.96 C 26.54 50.11 27.28 49.42 27.34 47.91 C 27.78 49.32 28.10 50.78 28.71 52.14 C 28.98 52.39 29.53 52.89 29.81 53.14 C 33.27 56.65 37.88 58.15 42.64 57.13 C 48.09 58.81 54.35 57.23 58.81 53.80 C 58.96 52.56 59.06 51.31 59.09 50.06 L 60.04 49.98 C 62.12 56.80 53.93 58.91 49.01 59.03 C 44.66 59.00 40.32 59.00 35.98 59.01 C 33.05 59.19 30.55 57.30 28.13 55.91 C 25.66 53.14 23.53 50.08 21.50 46.97 C 20.42 45.02 19.10 43.20 17.60 41.56 C 17.22 41.11 16.48 40.20 16.10 39.75 C 14.20 37.73 12.43 35.45 10.00 34.03 L 9.27 33.65 C 8.04 32.97 6.55 33.06 5.20 32.80 Z" />
</g>
<g id="#bda576ff">
<path fill="#bda576" opacity="1.00" d=" M 5.20 32.80 C 6.55 33.06 8.04 32.97 9.27 33.65 L 9.03 34.65 C 7.31 34.93 5.83 35.64 5.00 37.23 C 4.97 35.75 5.04 34.27 5.20 32.80 Z" />
</g>
<g id="#95805dfb">
<path fill="#95805d" opacity="1.00" d=" M 9.27 33.65 L 10.00 34.03 C 10.00 35.70 10.01 39.03 10.01 40.70 C 12.03 40.31 14.06 39.97 16.10 39.75 C 16.48 40.20 17.22 41.11 17.60 41.56 C 18.09 43.62 17.59 45.51 15.85 46.80 C 14.11 47.64 12.48 48.69 10.82 49.67 C 10.37 49.79 9.45 50.03 9.00 50.15 C 9.01 44.98 8.95 39.82 9.03 34.65 L 9.27 33.65 Z" />
</g>
<g id="#8b734cff">
<path fill="#8b734c" opacity="1.00" d=" M 10.00 34.03 C 12.43 35.45 14.20 37.73 16.10 39.75 C 14.06 39.97 12.03 40.31 10.01 40.70 C 10.01 39.03 10.00 35.70 10.00 34.03 Z" />
</g>
<g id="#d2be93fe">
<path fill="#d2be93" opacity="1.00" d=" M 5.00 37.23 C 5.83 35.64 7.31 34.93 9.03 34.65 C 8.95 39.82 9.01 44.98 9.00 50.15 C 6.20 49.40 2.51 47.44 4.45 43.98 C 5.19 41.74 5.38 39.49 5.00 37.23 Z" />
</g>
<g id="#917d59cd">
<path fill="#917d59" opacity="0.80" d=" M 4.45 43.98 C 3.63 42.18 2.76 37.93 5.00 37.23 C 5.38 39.49 5.19 41.74 4.45 43.98 Z" />
</g>
<g id="#e8e0cfff">
<path fill="#e8e0cf" opacity="1.00" d=" M 34.28 39.16 C 38.57 38.10 41.74 42.46 44.50 45.15 C 43.90 46.24 43.29 47.33 42.68 48.41 L 41.97 48.43 C 37.96 48.33 33.80 46.67 30.75 44.08 C 32.06 42.53 33.06 40.77 34.28 39.16 Z" />
</g>
<g id="#8f713ef3">
<path fill="#8f713e" opacity="0.95" d=" M 47.23 41.40 C 48.37 40.84 48.93 42.71 49.78 43.21 C 52.63 45.13 48.59 51.68 55.98 48.08 L 55.99 48.98 C 54.02 49.01 52.05 49.03 50.08 49.06 C 47.60 48.93 45.13 48.71 42.68 48.41 C 43.29 47.33 43.90 46.24 44.50 45.15 C 45.48 43.95 46.42 42.72 47.23 41.40 Z" />
</g>
<g id="#100b0526">
<path fill="#100b05" opacity="0.15" d=" M 17.60 41.56 C 19.10 43.20 20.42 45.02 21.50 46.97 C 19.87 48.71 17.70 47.25 15.85 46.80 C 17.59 45.51 18.09 43.62 17.60 41.56 Z" />
</g>
<g id="#b19b71ff">
<path fill="#b19b71" opacity="1.00" d=" M 27.34 47.91 C 28.08 45.68 28.88 43.27 30.88 41.85 C 30.84 42.41 30.78 43.52 30.75 44.08 C 29.39 46.56 28.80 49.33 28.71 52.14 C 28.10 50.78 27.78 49.32 27.34 47.91 Z" />
</g>
<g id="#d0be9cff">
<path fill="#d0be9c" opacity="1.00" d=" M 28.71 52.14 C 28.80 49.33 29.39 46.56 30.75 44.08 C 33.80 46.67 37.96 48.33 41.97 48.43 C 41.27 50.97 41.39 53.81 39.85 56.03 C 36.32 55.83 33.24 53.82 29.81 53.14 C 29.53 52.89 28.98 52.39 28.71 52.14 Z" />
</g>
<g id="#110b0289">
<path fill="#110b02" opacity="0.54" d=" M 10.82 49.67 C 12.48 48.69 14.11 47.64 15.85 46.80 C 17.70 47.25 19.87 48.71 21.50 46.97 C 23.53 50.08 25.66 53.14 28.13 55.91 C 21.95 55.60 16.62 51.52 10.82 49.67 Z" />
</g>
<g id="#ba9f6aff">
<path fill="#ba9f6a" opacity="1.00" d=" M 41.97 48.43 L 42.68 48.41 C 45.13 48.71 47.60 48.93 50.08 49.06 C 47.34 51.50 45.10 54.43 42.64 57.13 C 37.88 58.15 33.27 56.65 29.81 53.14 C 33.24 53.82 36.32 55.83 39.85 56.03 C 41.39 53.81 41.27 50.97 41.97 48.43 Z" />
</g>
<g id="#d6c198fe">
<path fill="#d6c198" opacity="1.00" d=" M 50.08 49.06 C 52.05 49.03 54.02 49.01 55.99 48.98 C 57.79 48.54 58.83 48.89 59.09 50.06 C 59.06 51.31 58.96 52.56 58.81 53.80 C 54.35 57.23 48.09 58.81 42.64 57.13 C 45.10 54.43 47.34 51.50 50.08 49.06 Z" />
</g>
<g id="#694e23b9">
<path fill="#694e23" opacity="0.73" d=" M 35.98 59.01 C 40.32 59.00 44.66 59.00 49.01 59.03 L 48.99 59.99 C 44.67 60.00 40.35 60.16 36.03 59.96 L 35.98 59.01 Z" />
</g>
</svg>
