<?xml version="1.0" encoding="UTF-8" ?>
<!DOCTYPE svg PUBLIC "-//W3C//DTD SVG 1.1//EN" "http://www.w3.org/Graphics/SVG/1.1/DTD/svg11.dtd">
<svg width="64pt" height="64pt" viewBox="0 0 64 64" version="1.1" xmlns="http://www.w3.org/2000/svg">
<g id="#586f89ff">
<path fill="#586f89" opacity="1.00" d=" M 23.11 9.43 C 26.06 7.73 29.27 5.46 32.87 6.34 C 36.23 7.07 40.02 8.18 41.69 11.50 C 44.12 14.82 42.69 19.02 42.98 22.78 C 43.28 25.83 43.16 29.33 40.69 31.52 C 40.29 33.52 39.73 35.50 38.57 37.21 C 43.13 44.10 52.22 44.09 58.70 48.26 C 61.89 49.85 60.69 54.02 60.97 56.88 C 41.66 56.81 22.36 56.81 3.06 56.89 C 3.14 53.95 2.21 50.01 5.36 48.30 C 10.06 45.63 15.34 44.21 20.35 42.21 C 22.92 41.42 23.47 38.26 25.89 37.19 C 23.86 35.35 24.27 32.33 22.60 30.30 C 20.01 27.06 21.70 22.74 21.03 19.02 C 20.32 15.75 20.57 11.86 23.11 9.43 Z" />
</g>
</svg>
