<?xml version="1.0" encoding="UTF-8" ?>
<!DOCTYPE svg PUBLIC "-//W3C//DTD SVG 1.1//EN" "http://www.w3.org/Graphics/SVG/1.1/DTD/svg11.dtd">
<svg width="64pt" height="64pt" viewBox="0 0 64 64" version="1.1" xmlns="http://www.w3.org/2000/svg">
<g id="#280a05ff">
<path fill="#280a05" opacity="1.00" d=" M 17.57 4.60 C 22.07 2.48 27.37 2.73 32.01 4.27 C 36.63 2.73 41.91 2.48 46.40 4.58 C 52.34 7.23 56.94 12.62 58.71 18.87 C 57.51 21.89 56.25 25.77 52.61 26.53 C 48.98 26.84 45.37 25.92 41.73 26.05 C 43.54 26.76 45.37 27.44 47.25 27.95 L 46.53 27.87 C 41.54 27.07 35.70 27.12 32.00 23.14 C 28.30 27.10 22.47 27.08 17.49 27.88 C 17.28 27.90 16.85 27.94 16.64 27.96 C 14.21 26.68 11.46 26.69 8.84 26.14 C 6.36 24.61 6.18 21.35 5.32 18.85 C 7.04 12.61 11.66 7.25 17.57 4.60 M 11.37 16.33 C 10.38 18.31 10.54 21.35 13.07 22.00 C 20.69 24.81 28.47 19.88 36.18 21.68 C 41.49 22.68 47.32 23.86 52.41 21.37 C 54.41 16.40 50.61 10.98 46.30 8.62 C 40.44 5.13 33.48 7.35 27.10 6.62 C 20.51 5.97 13.31 9.74 11.37 16.33 Z" />
</g>
<g id="#4c2016ff">
<path fill="#4c2016" opacity="1.00" d=" M 11.37 16.33 C 13.31 9.74 20.51 5.97 27.10 6.62 C 33.48 7.35 40.44 5.13 46.30 8.62 C 50.61 10.98 54.41 16.40 52.41 21.37 C 47.32 23.86 41.49 22.68 36.18 21.68 C 28.47 19.88 20.69 24.81 13.07 22.00 C 10.54 21.35 10.38 18.31 11.37 16.33 M 21.05 11.02 C 18.21 12.17 15.55 15.51 17.49 18.53 C 22.33 19.83 27.14 17.78 32.00 17.80 C 36.87 17.65 41.69 19.89 46.53 18.54 C 46.80 17.18 47.90 15.51 46.68 14.29 C 44.45 10.73 39.94 9.77 36.01 9.92 C 31.03 10.20 25.81 9.08 21.05 11.02 Z" />
</g>
<g id="#653124ff">
<path fill="#653124" opacity="1.00" d=" M 21.05 11.02 C 25.81 9.08 31.03 10.20 36.01 9.92 C 39.94 9.77 44.45 10.73 46.68 14.29 C 47.90 15.51 46.80 17.18 46.53 18.54 C 41.69 19.89 36.87 17.65 32.00 17.80 C 27.14 17.78 22.33 19.83 17.49 18.53 C 15.55 15.51 18.21 12.17 21.05 11.02 Z" />
<path fill="#653124" opacity="1.00" d=" M 24.93 57.58 C 29.30 57.41 33.67 57.73 38.04 57.54 L 37.62 59.01 C 33.56 59.84 29.24 59.88 25.26 58.65 L 24.93 57.58 Z" />
</g>
<g id="#0b0000ff">
<path fill="#0b0000" opacity="1.00" d=" M 4.59 33.39 C 3.32 28.60 3.63 23.49 5.32 18.85 C 6.18 21.35 6.36 24.61 8.84 26.14 C 11.46 26.69 14.21 26.68 16.64 27.96 C 15.14 28.20 13.64 28.48 12.16 28.80 C 10.85 29.40 9.60 30.09 8.36 30.80 C 8.69 35.03 7.10 40.07 10.12 43.59 C 10.83 48.96 15.14 53.06 19.76 55.41 C 21.18 56.20 22.99 56.49 23.94 57.94 C 20.83 57.60 18.36 55.56 15.86 53.89 C 13.11 56.89 10.50 60.07 7.26 62.57 C 7.59 60.98 7.95 59.40 8.32 57.82 C 6.53 58.10 4.74 58.36 2.94 58.59 C 3.97 57.06 4.93 55.48 5.82 53.87 C 5.07 53.52 3.57 52.83 2.82 52.49 C 5.50 51.17 8.12 49.73 10.36 47.73 C 9.67 46.12 8.95 44.52 8.21 42.93 C 7.74 42.72 6.81 42.29 6.35 42.07 L 6.39 41.98 C 7.20 40.73 7.68 39.36 7.83 37.87 C 6.55 36.53 5.38 35.08 4.59 33.39 Z" />
<path fill="#0b0000" opacity="1.00" d=" M 58.71 18.87 C 60.34 23.52 60.69 28.61 59.40 33.39 C 58.62 35.09 57.42 36.55 56.15 37.90 C 56.29 39.40 56.77 40.76 57.61 41.99 C 55.12 42.85 54.64 45.64 53.64 47.74 C 56.02 49.73 58.59 51.61 61.70 52.24 C 60.52 52.78 59.34 53.33 58.17 53.88 C 59.08 55.48 60.04 57.05 61.05 58.59 C 59.25 58.35 57.46 58.10 55.68 57.82 C 56.05 59.42 56.42 61.03 56.76 62.64 C 53.55 60.07 50.89 56.92 48.14 53.89 C 45.08 56.00 41.86 58.29 38.05 58.69 C 41.34 56.36 45.46 55.38 48.50 52.61 C 52.16 49.77 53.65 45.27 55.29 41.12 C 56.01 37.73 55.61 34.24 55.65 30.80 C 54.30 30.02 52.94 29.25 51.48 28.70 C 50.08 28.43 48.66 28.19 47.25 27.95 C 45.37 27.44 43.54 26.76 41.73 26.05 C 45.37 25.92 48.98 26.84 52.61 26.53 C 56.25 25.77 57.51 21.89 58.71 18.87 Z" />
<path fill="#0b0000" opacity="1.00" d=" M 19.63 32.10 C 16.81 35.65 24.97 35.74 22.20 32.35 C 22.47 32.60 23.00 33.10 23.26 33.35 C 24.69 35.13 24.40 37.28 23.83 39.30 C 23.85 38.52 23.90 36.97 23.92 36.19 C 23.22 36.53 21.82 37.20 21.13 37.53 C 19.80 36.79 17.77 39.74 17.56 37.38 C 17.59 36.96 17.65 36.10 17.69 35.67 C 17.77 35.41 17.95 34.88 18.04 34.61 C 18.44 33.98 19.23 32.73 19.63 32.10 Z" />
<path fill="#0b0000" opacity="1.00" d=" M 41.02 33.11 C 41.82 35.14 43.96 35.53 44.82 33.24 C 45.12 33.57 45.73 34.23 46.04 34.56 C 46.18 35.37 46.29 36.19 46.38 37.02 C 46.08 37.66 45.77 38.31 45.46 38.95 L 45.81 36.46 C 44.83 37.02 43.85 37.60 42.88 38.19 L 41.85 35.99 C 41.41 36.93 40.97 37.87 40.55 38.82 L 40.13 38.86 C 39.70 37.01 39.41 35.11 40.62 33.45 C 40.72 33.37 40.92 33.19 41.02 33.11 Z" />
</g>
<g id="#fadfc5ff">
<path fill="#fadfc5" opacity="1.00" d=" M 17.49 27.88 C 22.47 27.08 28.30 27.10 32.00 23.14 C 35.70 27.12 41.54 27.07 46.53 27.87 C 43.48 29.08 40.24 29.79 37.30 31.25 C 34.16 32.79 34.82 36.68 34.39 39.56 C 32.81 39.57 31.23 39.58 29.66 39.59 C 29.17 36.71 29.84 32.80 26.77 31.19 C 23.83 29.69 20.32 29.69 17.49 27.88 Z" />
</g>
<g id="#f6ceabff">
<path fill="#f6ceab" opacity="1.00" d=" M 12.16 28.80 C 13.64 28.48 15.14 28.20 16.64 27.96 C 16.85 27.94 17.28 27.90 17.49 27.88 C 20.32 29.69 23.83 29.69 26.77 31.19 C 29.84 32.80 29.17 36.71 29.66 39.59 C 31.23 39.58 32.81 39.57 34.39 39.56 C 34.82 36.68 34.16 32.79 37.30 31.25 C 40.24 29.79 43.48 29.08 46.53 27.87 L 47.25 27.95 C 48.66 28.19 50.08 28.43 51.48 28.70 C 51.35 29.43 51.08 30.89 50.95 31.62 C 49.44 31.60 47.93 31.58 46.42 31.56 C 46.40 32.20 46.38 33.48 46.36 34.11 L 46.04 34.56 C 45.73 34.23 45.12 33.57 44.82 33.24 C 43.96 35.53 41.82 35.14 41.02 33.11 C 40.92 33.19 40.72 33.37 40.62 33.45 C 39.23 34.32 36.67 34.80 36.97 36.98 C 36.71 38.47 38.90 39.16 40.13 38.86 L 40.55 38.82 C 41.99 42.49 46.64 39.32 49.52 40.61 C 47.17 43.62 44.63 46.56 41.45 48.74 C 41.26 48.31 40.87 47.46 40.68 47.04 C 34.34 48.28 27.86 47.68 21.49 47.13 C 21.19 47.64 20.90 48.15 20.61 48.67 C 18.88 45.61 16.46 43.00 14.90 39.85 C 17.79 40.13 20.80 41.22 23.66 40.21 C 24.83 39.41 25.99 38.60 27.16 37.81 C 27.38 35.29 25.30 34.17 23.26 33.35 C 23.00 33.10 22.47 32.60 22.20 32.35 C 24.97 35.74 16.81 35.65 19.63 32.10 C 19.23 32.73 18.44 33.98 18.04 34.61 L 17.65 34.15 C 17.64 33.45 17.60 32.04 17.58 31.34 C 15.87 31.79 14.16 32.24 12.44 32.69 C 12.35 31.40 12.25 30.10 12.16 28.80 M 27.70 41.11 C 28.03 45.56 35.98 45.61 36.23 41.12 C 33.41 41.79 30.52 41.77 27.70 41.11 Z" />
</g>
<g id="#dcae86ff">
<path fill="#dcae86" opacity="1.00" d=" M 8.36 30.80 C 9.60 30.09 10.85 29.40 12.16 28.80 C 12.25 30.10 12.35 31.40 12.44 32.69 C 14.16 32.24 15.87 31.79 17.58 31.34 C 17.60 32.04 17.64 33.45 17.65 34.15 C 16.48 34.45 14.55 35.24 15.35 36.81 C 15.89 37.81 16.63 38.00 17.56 37.38 C 17.77 39.74 19.80 36.79 21.13 37.53 C 21.82 37.20 23.22 36.53 23.92 36.19 C 23.90 36.97 23.85 38.52 23.83 39.30 L 23.66 40.21 C 20.80 41.22 17.79 40.13 14.90 39.85 C 16.46 43.00 18.88 45.61 20.61 48.67 C 20.90 48.15 21.19 47.64 21.49 47.13 C 24.91 54.50 36.55 54.91 41.45 48.74 C 44.63 46.56 47.17 43.62 49.52 40.61 C 46.64 39.32 41.99 42.49 40.55 38.82 C 40.97 37.87 41.41 36.93 41.85 35.99 L 42.88 38.19 C 43.85 37.60 44.83 37.02 45.81 36.46 L 45.46 38.95 C 45.77 38.31 46.08 37.66 46.38 37.02 C 47.26 37.94 48.02 37.88 48.66 36.87 C 49.48 35.27 47.57 34.44 46.36 34.11 C 46.38 33.48 46.40 32.20 46.42 31.56 C 47.93 31.58 49.44 31.60 50.95 31.62 C 51.08 30.89 51.35 29.43 51.48 28.70 C 52.94 29.25 54.30 30.02 55.65 30.80 C 55.61 34.24 56.01 37.73 55.29 41.12 C 53.65 45.27 52.16 49.77 48.50 52.61 C 45.46 55.38 41.34 56.36 38.05 58.69 L 37.82 58.87 L 38.04 57.54 C 33.67 57.73 29.30 57.41 24.93 57.58 C 24.68 57.67 24.19 57.85 23.94 57.94 C 22.99 56.49 21.18 56.20 19.76 55.41 C 15.14 53.06 10.83 48.96 10.12 43.59 C 7.10 40.07 8.69 35.03 8.36 30.80 Z" />
</g>
<g id="#827d4cf6">
<path fill="#827d4c" opacity="0.96" d=" M 4.59 33.39 C 5.38 35.08 6.55 36.53 7.83 37.87 C 7.68 39.36 7.20 40.73 6.39 41.98 C 3.61 40.12 2.83 36.23 4.59 33.39 Z" />
<path fill="#827d4c" opacity="0.96" d=" M 56.15 37.90 C 57.42 36.55 58.62 35.09 59.40 33.39 C 61.20 36.23 60.36 40.10 57.61 41.99 C 56.77 40.76 56.29 39.40 56.15 37.90 Z" />
</g>
<g id="#f0f1f1ff">
<path fill="#f0f1f1" opacity="1.00" d=" M 15.35 36.81 C 14.55 35.24 16.48 34.45 17.65 34.15 L 18.04 34.61 C 17.95 34.88 17.77 35.41 17.69 35.67 C 17.65 36.10 17.59 36.96 17.56 37.38 C 16.63 38.00 15.89 37.81 15.35 36.81 Z" />
<path fill="#f0f1f1" opacity="1.00" d=" M 46.04 34.56 L 46.36 34.11 C 47.57 34.44 49.48 35.27 48.66 36.87 C 48.02 37.88 47.26 37.94 46.38 37.02 C 46.29 36.19 46.18 35.37 46.04 34.56 Z" />
</g>
<g id="#efefefff">
<path fill="#efefef" opacity="1.00" d=" M 23.26 33.35 C 25.30 34.17 27.38 35.29 27.16 37.81 C 25.99 38.60 24.83 39.41 23.66 40.21 L 23.83 39.30 C 24.40 37.28 24.69 35.13 23.26 33.35 Z" />
</g>
<g id="#f1f1f2ff">
<path fill="#f1f1f2" opacity="1.00" d=" M 36.97 36.98 C 36.67 34.80 39.23 34.32 40.62 33.45 C 39.41 35.11 39.70 37.01 40.13 38.86 C 38.90 39.16 36.71 38.47 36.97 36.98 Z" />
</g>
<g id="#957959ff">
<path fill="#957959" opacity="1.00" d=" M 27.70 41.11 C 30.52 41.77 33.41 41.79 36.23 41.12 C 35.98 45.61 28.03 45.56 27.70 41.11 Z" />
</g>
<g id="#330006ff">
<path fill="#330006" opacity="1.00" d=" M 21.49 47.13 C 27.86 47.68 34.34 48.28 40.68 47.04 C 40.87 47.46 41.26 48.31 41.45 48.74 C 36.55 54.91 24.91 54.50 21.49 47.13 Z" />
</g>
</svg>
