<?xml version="1.0" encoding="UTF-8" ?>
<!DOCTYPE svg PUBLIC "-//W3C//DTD SVG 1.1//EN" "http://www.w3.org/Graphics/SVG/1.1/DTD/svg11.dtd">
<svg width="64pt" height="64pt" viewBox="0 0 64 64" version="1.1" xmlns="http://www.w3.org/2000/svg">
<g id="#210a06f7">
<path fill="#210a06" opacity="0.97" d=" M 19.92 4.88 C 30.03 1.85 41.53 1.94 50.99 7.00 C 53.81 8.81 56.56 11.48 57.16 14.92 C 57.03 16.92 56.88 18.99 55.71 20.70 C 53.74 21.67 51.59 22.17 49.54 22.94 C 48.93 22.29 48.33 21.64 47.73 20.99 C 50.62 19.14 56.74 18.76 53.72 13.33 C 50.33 5.22 39.39 4.86 32.01 4.93 C 25.48 3.93 19.15 6.34 13.70 9.71 C 11.02 12.34 8.09 17.97 13.02 20.01 C 21.15 24.02 31.06 21.67 39.88 21.70 C 41.70 21.35 43.71 20.67 45.37 21.91 C 39.63 24.27 33.42 25.28 27.30 26.10 C 27.40 25.55 27.61 24.45 27.71 23.90 C 24.18 24.44 20.73 25.45 17.25 26.25 C 15.49 26.14 13.74 26.02 11.98 25.95 C 13.09 24.44 15.61 20.87 12.11 22.92 C 8.76 21.04 6.57 18.20 7.89 13.90 C 9.29 8.57 15.34 6.69 19.92 4.88 Z" />
</g>
<g id="#310f08ff">
<path fill="#310f08" opacity="1.00" d=" M 13.70 9.71 C 19.15 6.34 25.48 3.93 32.01 4.93 C 39.39 4.86 50.33 5.22 53.72 13.33 C 56.74 18.76 50.62 19.14 47.73 20.99 C 46.95 21.32 46.16 21.63 45.37 21.91 C 43.71 20.67 41.70 21.35 39.88 21.70 C 31.06 21.67 21.15 24.02 13.02 20.01 C 8.09 17.97 11.02 12.34 13.70 9.71 M 28.33 6.40 C 22.89 7.29 16.90 8.85 13.19 13.23 C 11.71 17.51 16.50 20.27 20.06 20.86 C 30.02 21.55 40.23 20.89 49.79 17.84 C 53.41 15.14 50.12 10.35 47.02 8.97 C 41.21 6.43 34.59 5.52 28.33 6.40 Z" />
</g>
<g id="#40180fff">
<path fill="#40180f" opacity="1.00" d=" M 28.33 6.40 C 34.59 5.52 41.21 6.43 47.02 8.97 C 50.12 10.35 53.41 15.14 49.79 17.84 C 40.23 20.89 30.02 21.55 20.06 20.86 C 16.50 20.27 11.71 17.51 13.19 13.23 C 16.90 8.85 22.89 7.29 28.33 6.40 M 25.33 8.37 C 21.58 9.77 16.75 11.12 15.01 15.00 C 16.47 18.17 20.17 20.69 23.99 19.03 C 31.61 18.82 39.57 20.06 46.77 16.80 C 47.64 15.79 49.57 14.87 48.81 13.24 C 43.30 6.36 32.97 8.12 25.33 8.37 Z" />
</g>
<g id="#4e2217ff">
<path fill="#4e2217" opacity="1.00" d=" M 25.33 8.37 C 32.97 8.12 43.30 6.36 48.81 13.24 C 49.57 14.87 47.64 15.79 46.77 16.80 C 39.57 20.06 31.61 18.82 23.99 19.03 C 20.17 20.69 16.47 18.17 15.01 15.00 C 16.75 11.12 21.58 9.77 25.33 8.37 M 28.35 9.47 C 24.62 10.26 19.71 10.87 18.15 14.84 C 22.68 19.64 30.20 17.70 35.97 17.95 C 38.98 16.82 46.33 17.29 44.92 12.17 C 40.26 8.79 33.78 8.83 28.35 9.47 Z" />
</g>
<g id="#5a291eff">
<path fill="#5a291e" opacity="1.00" d=" M 28.35 9.47 C 33.78 8.83 40.26 8.79 44.92 12.17 C 46.33 17.29 38.98 16.82 35.97 17.95 C 30.20 17.70 22.68 19.64 18.15 14.84 C 19.71 10.87 24.62 10.26 28.35 9.47 M 25.30 11.28 C 23.89 12.11 21.36 12.65 22.08 14.81 C 27.27 17.03 33.25 15.78 38.70 15.72 C 40.11 14.89 42.64 14.35 41.92 12.19 C 36.73 9.97 30.75 11.22 25.30 11.28 Z" />
</g>
<g id="#642f23ff">
<path fill="#642f23" opacity="1.00" d=" M 25.30 11.28 C 30.75 11.22 36.73 9.97 41.92 12.19 C 42.64 14.35 40.11 14.89 38.70 15.72 C 33.25 15.78 27.27 17.03 22.08 14.81 C 21.36 12.65 23.89 12.11 25.30 11.28 Z" />
</g>
<g id="#0d0402f6">
<path fill="#0d0402" opacity="0.96" d=" M 5.37 32.79 C 3.29 26.84 2.86 18.37 7.89 13.90 C 6.57 18.20 8.76 21.04 12.11 22.92 C 11.26 24.17 10.39 25.42 9.69 26.76 C 9.47 27.27 9.03 28.30 8.81 28.81 C 8.97 31.35 8.14 33.16 6.33 34.23 C 6.09 33.87 5.61 33.15 5.37 32.79 Z" />
</g>
<g id="#0e0403f8">
<path fill="#0e0403" opacity="0.97" d=" M 57.16 14.92 C 60.96 19.75 60.47 27.09 58.75 32.83 C 58.34 33.15 57.52 33.79 57.11 34.11 C 56.92 32.97 56.66 31.85 56.33 30.74 C 56.05 29.71 55.71 28.71 55.32 27.72 C 55.08 26.42 54.11 25.55 52.95 25.03 C 51.97 24.52 50.98 24.06 49.97 23.64 L 49.54 22.94 C 51.59 22.17 53.74 21.67 55.71 20.70 C 56.88 18.99 57.03 16.92 57.16 14.92 Z" />
</g>
<g id="#f1ceafff">
<path fill="#f1ceaf" opacity="1.00" d=" M 45.37 21.91 C 46.16 21.63 46.95 21.32 47.73 20.99 C 48.33 21.64 48.93 22.29 49.54 22.94 L 49.97 23.64 C 48.83 26.43 51.38 28.87 51.12 31.70 C 48.32 31.54 45.49 30.78 42.74 31.57 C 41.48 31.76 40.23 31.95 38.98 32.14 C 39.58 32.73 41.40 33.16 40.00 34.00 C 36.05 33.93 36.04 38.82 39.82 39.17 C 41.87 41.67 45.31 40.50 48.15 40.41 C 47.58 43.24 45.19 47.05 42.21 47.38 C 41.47 47.35 39.98 47.29 39.23 47.26 C 34.07 47.07 28.89 46.89 23.72 47.16 C 23.25 47.18 22.31 47.22 21.84 47.23 C 21.50 47.61 20.81 48.36 20.47 48.73 C 16.82 46.15 14.06 42.45 12.84 38.13 C 13.81 38.46 14.78 38.81 15.73 39.17 C 17.66 39.99 19.61 41.14 21.79 40.95 C 25.29 41.66 31.40 37.63 28.14 34.08 C 25.10 30.56 19.99 30.15 15.83 31.68 C 14.54 32.15 13.26 32.68 11.93 33.05 C 11.99 29.53 13.21 26.17 17.25 26.25 C 20.73 25.45 24.18 24.44 27.71 23.90 C 27.61 24.45 27.40 25.55 27.30 26.10 C 33.42 25.28 39.63 24.27 45.37 21.91 M 27.96 40.99 C 27.27 45.65 36.77 45.77 36.04 40.99 C 33.37 42.07 30.63 42.07 27.96 40.99 Z" />
</g>
<g id="#9b7354ff">
<path fill="#9b7354" opacity="1.00" d=" M 12.11 22.92 C 15.61 20.87 13.09 24.44 11.98 25.95 C 11.41 26.16 10.26 26.56 9.69 26.76 C 10.39 25.42 11.26 24.17 12.11 22.92 Z" />
</g>
<g id="#dcb18cff">
<path fill="#dcb18c" opacity="1.00" d=" M 49.97 23.64 C 50.98 24.06 51.97 24.52 52.95 25.03 C 53.35 30.62 55.27 36.57 52.91 41.92 C 51.93 44.38 50.39 46.57 49.02 48.82 C 47.43 47.98 46.29 49.15 45.19 50.19 C 40.34 54.86 33.32 55.36 26.96 55.09 C 27.27 54.54 27.90 53.44 28.21 52.89 C 33.15 53.78 40.11 52.57 42.21 47.38 C 45.19 47.05 47.58 43.24 48.15 40.41 C 45.31 40.50 41.87 41.67 39.82 39.17 L 39.57 38.24 C 41.89 37.36 44.41 37.58 46.84 37.34 C 50.09 38.53 49.17 33.20 46.17 34.03 C 45.00 33.24 43.88 32.39 42.74 31.57 C 45.49 30.78 48.32 31.54 51.12 31.70 C 51.38 28.87 48.83 26.43 49.97 23.64 Z" />
</g>
<g id="#b07f58ff">
<path fill="#b07f58" opacity="1.00" d=" M 52.95 25.03 C 54.11 25.55 55.08 26.42 55.32 27.72 C 55.15 32.20 55.11 36.68 55.18 41.16 L 54.88 41.90 C 53.12 44.86 51.08 47.73 49.93 51.00 C 49.63 51.97 49.00 52.61 48.03 52.94 C 39.45 58.40 27.34 60.81 18.83 54.06 C 24.29 54.53 29.23 58.10 34.88 56.83 C 40.23 55.74 45.64 53.20 49.02 48.82 C 50.39 46.57 51.93 44.38 52.91 41.92 C 55.27 36.57 53.35 30.62 52.95 25.03 Z" />
</g>
<g id="#d3a37bff">
<path fill="#d3a37b" opacity="1.00" d=" M 9.69 26.76 C 10.26 26.56 11.41 26.16 11.98 25.95 C 13.74 26.02 15.49 26.14 17.25 26.25 C 13.21 26.17 11.99 29.53 11.93 33.05 C 13.26 32.68 14.54 32.15 15.83 31.68 C 17.77 31.53 18.07 32.40 17.11 33.87 C 15.00 34.47 14.54 36.61 15.98 38.19 L 15.73 39.17 C 14.78 38.81 13.81 38.46 12.84 38.13 C 14.06 42.45 16.82 46.15 20.47 48.73 C 20.81 48.36 21.50 47.61 21.84 47.23 C 22.60 50.33 25.83 51.34 28.21 52.89 C 27.90 53.44 27.27 54.54 26.96 55.09 C 33.32 55.36 40.34 54.86 45.19 50.19 C 46.29 49.15 47.43 47.98 49.02 48.82 C 45.64 53.20 40.23 55.74 34.88 56.83 C 29.23 58.10 24.29 54.53 18.83 54.06 C 10.70 48.51 7.78 38.22 8.81 28.81 C 9.03 28.30 9.47 27.27 9.69 26.76 Z" />
</g>
<g id="#976845ff">
<path fill="#976845" opacity="1.00" d=" M 55.32 27.72 C 55.71 28.71 56.05 29.71 56.33 30.74 C 55.98 34.18 56.66 37.91 55.18 41.16 C 55.11 36.68 55.15 32.20 55.32 27.72 Z" />
</g>
<g id="#764f31f5">
<path fill="#764f31" opacity="0.96" d=" M 6.33 34.23 C 8.14 33.16 8.97 31.35 8.81 28.81 C 7.78 38.22 10.70 48.51 18.83 54.06 C 27.34 60.81 39.45 58.40 48.03 52.94 C 46.03 56.82 40.95 57.94 37.02 59.00 C 33.67 59.01 30.33 59.02 26.98 59.00 C 18.68 57.52 11.75 51.12 8.52 43.45 C 7.26 42.45 5.72 41.64 4.96 40.16 C 8.57 40.53 6.45 36.58 6.33 34.23 Z" />
</g>
<g id="#c5ae94ff">
<path fill="#c5ae94" opacity="1.00" d=" M 15.83 31.68 C 19.99 30.15 25.10 30.56 28.14 34.08 C 27.97 34.58 27.63 35.58 27.46 36.08 C 26.47 35.18 25.42 34.33 24.19 33.78 C 22.06 31.89 19.80 32.04 17.78 34.01 L 17.11 33.87 C 18.07 32.40 17.77 31.53 15.83 31.68 Z" />
</g>
<g id="#51391eef">
<path fill="#51391e" opacity="0.94" d=" M 56.33 30.74 C 56.66 31.85 56.92 32.97 57.11 34.11 C 57.30 36.45 57.54 38.78 57.83 41.11 C 57.88 42.54 56.04 43.39 54.95 44.04 C 54.93 43.50 54.90 42.43 54.88 41.90 L 55.18 41.16 C 56.66 37.91 55.98 34.18 56.33 30.74 Z" />
</g>
<g id="#85786bff">
<path fill="#85786b" opacity="1.00" d=" M 17.78 34.01 C 19.80 32.04 22.06 31.89 24.19 33.78 C 24.67 35.20 25.25 36.78 24.37 38.18 C 22.00 37.43 19.48 37.59 17.05 37.22 C 17.28 36.15 17.52 35.08 17.78 34.01 Z" />
</g>
<g id="#897b6eff">
<path fill="#897b6e" opacity="1.00" d=" M 38.98 32.14 C 40.23 31.95 41.48 31.76 42.74 31.57 C 43.88 32.39 45.00 33.24 46.17 34.03 C 46.42 35.13 46.64 36.23 46.84 37.34 C 44.41 37.58 41.89 37.36 39.57 38.24 C 38.89 36.79 39.12 35.30 40.00 34.00 C 41.40 33.16 39.58 32.73 38.98 32.14 Z" />
</g>
<g id="#847d4df9">
<path fill="#847d4d" opacity="0.98" d=" M 5.37 32.79 C 5.61 33.15 6.09 33.87 6.33 34.23 C 6.45 36.58 8.57 40.53 4.96 40.16 C 1.60 40.56 3.74 34.15 5.37 32.79 Z" />
</g>
<g id="#817a4cf9">
<path fill="#817a4c" opacity="0.98" d=" M 57.11 34.11 C 57.52 33.79 58.34 33.15 58.75 32.83 C 60.96 35.04 61.31 40.27 57.83 41.11 C 57.54 38.78 57.30 36.45 57.11 34.11 Z" />
</g>
<g id="#f0f1f2ff">
<path fill="#f0f1f2" opacity="1.00" d=" M 15.98 38.19 C 14.54 36.61 15.00 34.47 17.11 33.87 L 17.78 34.01 C 17.52 35.08 17.28 36.15 17.05 37.22 C 16.78 37.46 16.25 37.95 15.98 38.19 Z" />
<path fill="#f0f1f2" opacity="1.00" d=" M 46.17 34.03 C 49.17 33.20 50.09 38.53 46.84 37.34 C 46.64 36.23 46.42 35.13 46.17 34.03 Z" />
</g>
<g id="#f1f1f2ff">
<path fill="#f1f1f2" opacity="1.00" d=" M 24.19 33.78 C 25.42 34.33 26.47 35.18 27.46 36.08 C 27.25 37.87 25.63 38.71 24.04 39.05 L 24.37 38.18 C 25.25 36.78 24.67 35.20 24.19 33.78 Z" />
<path fill="#f1f1f2" opacity="1.00" d=" M 39.82 39.17 C 36.04 38.82 36.05 33.93 40.00 34.00 C 39.12 35.30 38.89 36.79 39.57 38.24 L 39.82 39.17 Z" />
</g>
<g id="#ddc5adff">
<path fill="#ddc5ad" opacity="1.00" d=" M 28.14 34.08 C 31.40 37.63 25.29 41.66 21.79 40.95 C 22.53 40.30 23.28 39.66 24.04 39.05 C 25.63 38.71 27.25 37.87 27.46 36.08 C 27.63 35.58 27.97 34.58 28.14 34.08 Z" />
</g>
<g id="#cab299ff">
<path fill="#cab299" opacity="1.00" d=" M 17.05 37.22 C 19.48 37.59 22.00 37.43 24.37 38.18 L 24.04 39.05 C 23.28 39.66 22.53 40.30 21.79 40.95 C 19.61 41.14 17.66 39.99 15.73 39.17 L 15.98 38.19 C 16.25 37.95 16.78 37.46 17.05 37.22 Z" />
</g>
<g id="#9a7d5dff">
<path fill="#9a7d5d" opacity="1.00" d=" M 27.96 40.99 C 30.63 42.07 33.37 42.07 36.04 40.99 C 36.77 45.77 27.27 45.65 27.96 40.99 Z" />
</g>
<g id="#6e482cf3">
<path fill="#6e482c" opacity="0.95" d=" M 49.93 51.00 C 51.08 47.73 53.12 44.86 54.88 41.90 C 54.90 42.43 54.93 43.50 54.95 44.04 C 54.23 47.16 52.55 49.48 49.93 51.00 Z" />
</g>
<g id="#2e0b0bff">
<path fill="#2e0b0b" opacity="1.00" d=" M 21.84 47.23 C 22.31 47.22 23.25 47.18 23.72 47.16 C 28.83 48.29 34.11 48.17 39.23 47.26 C 39.98 47.29 41.47 47.35 42.21 47.38 C 40.11 52.57 33.15 53.78 28.21 52.89 C 25.83 51.34 22.60 50.33 21.84 47.23 Z" />
</g>
<g id="#a8896dff">
<path fill="#a8896d" opacity="1.00" d=" M 23.72 47.16 C 28.89 46.89 34.07 47.07 39.23 47.26 C 34.11 48.17 28.83 48.29 23.72 47.16 Z" />
</g>
<g id="#281a0e85">
<path fill="#281a0e" opacity="0.52" d=" M 26.98 59.00 C 30.33 59.02 33.67 59.01 37.02 59.00 L 36.99 59.99 C 34.49 59.74 29.48 59.24 26.98 59.00 Z" />
</g>
</svg>
