<?xml version="1.0" encoding="UTF-8" ?>
<!DOCTYPE svg PUBLIC "-//W3C//DTD SVG 1.1//EN" "http://www.w3.org/Graphics/SVG/1.1/DTD/svg11.dtd">
<svg width="64pt" height="64pt" viewBox="0 0 64 64" version="1.1" xmlns="http://www.w3.org/2000/svg">
<g id="#031467b8">
<path fill="#031467" opacity="0.72" d=" M 20.74 4.86 C 25.77 3.48 31.19 2.21 36.37 3.62 C 31.15 3.89 25.90 3.95 20.74 4.86 Z" />
</g>
<g id="#1854aff1">
<path fill="#1854af" opacity="0.95" d=" M 20.74 4.86 C 25.90 3.95 31.15 3.89 36.37 3.62 C 42.22 4.18 48.74 5.68 52.66 10.43 C 54.83 12.99 54.12 16.86 51.75 19.02 C 50.80 19.84 49.83 20.64 48.83 21.40 C 40.90 25.60 31.35 25.97 22.74 24.02 C 28.33 24.04 33.98 24.85 39.49 23.55 C 42.47 23.00 45.29 21.84 48.01 20.55 C 50.02 19.17 52.46 17.58 52.74 14.93 C 53.10 12.72 51.43 10.96 50.39 9.20 C 47.52 7.40 43.39 4.30 40.12 6.68 C 34.75 5.64 29.23 5.72 23.85 6.62 C 21.59 5.15 18.89 6.26 16.47 6.54 C 17.85 5.90 19.24 5.21 20.74 4.86 Z" />
</g>
<g id="#0a80eaff">
<path fill="#0a80ea" opacity="1.00" d=" M 16.47 6.54 C 18.89 6.26 21.59 5.15 23.85 6.62 C 21.59 7.34 19.20 8.09 17.63 9.98 C 16.94 10.85 16.39 11.82 15.79 12.76 C 15.00 11.62 14.27 10.45 13.51 9.29 C 14.29 8.43 15.11 7.60 15.94 6.80 L 16.47 6.54 Z" />
</g>
<g id="#051971c7">
<path fill="#051971" opacity="0.78" d=" M 23.85 6.62 C 29.23 5.72 34.75 5.64 40.12 6.68 C 42.41 7.33 44.82 8.10 46.35 10.06 C 37.51 5.30 26.53 5.45 17.63 9.98 C 19.20 8.09 21.59 7.34 23.85 6.62 Z" />
</g>
<g id="#0d7ee3fa">
<path fill="#0d7ee3" opacity="0.98" d=" M 40.12 6.68 C 43.39 4.30 47.52 7.40 50.39 9.20 C 49.66 10.59 48.95 11.98 48.11 13.30 C 47.91 13.56 47.52 14.06 47.32 14.32 C 47.53 13.74 47.94 12.60 48.14 12.02 C 47.56 11.36 46.96 10.70 46.35 10.06 C 44.82 8.10 42.41 7.33 40.12 6.68 Z" />
</g>
<g id="#1e4e8de5">
<path fill="#1e4e8d" opacity="0.90" d=" M 10.40 11.97 C 11.42 9.53 13.65 7.92 15.94 6.80 C 15.11 7.60 14.29 8.43 13.51 9.29 C 11.85 11.16 10.39 13.72 11.48 16.26 C 13.67 20.50 18.61 21.86 22.53 23.97 C 19.50 23.46 16.61 22.36 14.03 20.69 C 13.61 20.32 12.79 19.59 12.38 19.22 C 10.50 17.41 9.18 14.50 10.40 11.97 Z" />
</g>
<g id="#66c1f7ff">
<path fill="#66c1f7" opacity="1.00" d=" M 11.48 16.26 C 10.39 13.72 11.85 11.16 13.51 9.29 C 14.27 10.45 15.00 11.62 15.79 12.76 C 16.14 13.20 16.83 14.09 17.17 14.53 L 17.40 14.82 L 18.15 16.28 C 16.77 15.92 15.39 15.59 14.00 15.28 C 14.35 18.79 17.84 20.14 20.61 21.46 C 26.50 24.27 33.19 23.33 39.49 23.55 C 33.98 24.85 28.33 24.04 22.74 24.02 L 22.53 23.97 C 18.61 21.86 13.67 20.50 11.48 16.26 Z" />
</g>
<g id="#c1932fff">
<path fill="#c1932f" opacity="1.00" d=" M 17.17 14.53 C 25.59 7.44 38.24 9.43 47.10 14.62 C 44.94 15.22 42.80 15.88 40.61 16.40 C 35.26 13.03 27.81 12.49 22.47 16.17 C 20.77 15.77 19.08 15.31 17.40 14.82 L 17.17 14.53 Z" />
</g>
<g id="#69c5fbff">
<path fill="#69c5fb" opacity="1.00" d=" M 48.11 13.30 C 48.95 11.98 49.66 10.59 50.39 9.20 C 51.43 10.96 53.10 12.72 52.74 14.93 C 52.46 17.58 50.02 19.17 48.01 20.55 C 48.65 18.78 49.30 17.02 49.94 15.25 C 48.63 15.57 47.31 15.88 46.00 16.22 L 47.10 14.62 C 47.16 14.55 47.27 14.39 47.32 14.32 C 47.52 14.06 47.91 13.56 48.11 13.30 Z" />
</g>
<g id="#d0b254ff">
<path fill="#d0b254" opacity="1.00" d=" M 22.47 16.17 C 27.81 12.49 35.26 13.03 40.61 16.40 C 34.64 17.33 28.41 17.43 22.47 16.17 Z" />
</g>
<g id="#a4f6ffff">
<path fill="#a4f6ff" opacity="1.00" d=" M 14.00 15.28 C 15.39 15.59 16.77 15.92 18.15 16.28 C 27.12 19.04 37.04 19.04 46.00 16.22 C 47.31 15.88 48.63 15.57 49.94 15.25 C 49.30 17.02 48.65 18.78 48.01 20.55 C 45.29 21.84 42.47 23.00 39.49 23.55 C 33.19 23.33 26.50 24.27 20.61 21.46 C 17.84 20.14 14.35 18.79 14.00 15.28 Z" />
</g>
<g id="#4d8ec7ff">
<path fill="#4d8ec7" opacity="1.00" d=" M 17.40 14.82 C 19.08 15.31 20.77 15.77 22.47 16.17 C 28.41 17.43 34.64 17.33 40.61 16.40 C 42.80 15.88 44.94 15.22 47.10 14.62 L 46.00 16.22 C 37.04 19.04 27.12 19.04 18.15 16.28 L 17.40 14.82 Z" />
</g>
<g id="#a1822fff">
<path fill="#a1822f" opacity="1.00" d=" M 12.38 19.22 C 12.79 19.59 13.61 20.32 14.03 20.69 C 14.17 22.34 14.21 24.01 14.55 25.63 C 15.57 26.62 16.79 27.36 17.95 28.17 C 16.26 29.54 14.77 31.18 14.07 33.28 C 11.04 30.63 10.16 26.72 10.68 22.84 C 11.20 21.61 11.76 20.40 12.38 19.22 Z" />
</g>
<g id="#ae8b34ff">
<path fill="#ae8b34" opacity="1.00" d=" M 48.83 21.40 C 49.83 20.64 50.80 19.84 51.75 19.02 L 52.16 20.34 C 52.23 22.24 52.21 24.14 52.20 26.04 C 50.84 27.37 49.48 28.70 48.13 30.03 C 47.43 29.01 46.68 28.04 45.89 27.09 C 48.44 26.22 48.89 23.80 48.83 21.40 Z" />
</g>
<g id="#b6a24eff">
<path fill="#b6a24e" opacity="1.00" d=" M 14.03 20.69 C 16.61 22.36 19.50 23.46 22.53 23.97 L 22.74 24.02 C 31.35 25.97 40.90 25.60 48.83 21.40 C 48.89 23.80 48.44 26.22 45.89 27.09 L 44.72 27.21 C 41.69 27.52 38.68 27.96 35.67 28.39 L 35.51 28.40 C 34.50 29.22 33.40 30.10 32.01 29.60 C 28.00 29.01 24.22 27.42 20.45 26.00 C 19.62 26.72 18.78 27.44 17.95 28.17 C 16.79 27.36 15.57 26.62 14.55 25.63 C 14.21 24.01 14.17 22.34 14.03 20.69 Z" />
</g>
<g id="#936f21ff">
<path fill="#936f21" opacity="1.00" d=" M 52.16 20.34 C 52.49 21.12 53.15 22.67 53.48 23.45 C 54.05 27.78 53.20 32.14 51.16 35.99 C 50.14 34.00 49.20 31.98 48.13 30.03 C 49.48 28.70 50.84 27.37 52.20 26.04 C 52.21 24.14 52.23 22.24 52.16 20.34 Z" />
</g>
<g id="#725016e7">
<path fill="#725016" opacity="0.91" d=" M 12.42 36.80 C 9.84 32.67 9.32 27.48 10.68 22.84 C 10.16 26.72 11.04 30.63 14.07 33.28 C 13.54 34.46 12.99 35.63 12.42 36.80 Z" />
</g>
<g id="#6b5c49eb">
<path fill="#6b5c49" opacity="0.92" d=" M 53.48 23.45 L 53.45 23.11 C 53.85 25.42 54.26 27.78 53.87 30.13 C 53.35 34.75 50.31 38.51 49.11 42.92 C 51.72 41.99 54.41 42.14 56.96 43.14 C 58.90 42.53 60.90 42.21 62.92 42.16 C 63.16 46.20 63.32 51.31 59.77 54.04 C 61.27 50.68 63.01 47.04 61.63 43.33 C 57.53 45.53 52.65 41.96 48.97 44.96 C 48.48 45.37 47.51 46.19 47.03 46.60 L 47.19 44.66 C 49.71 40.61 49.46 35.75 47.46 31.54 C 46.15 31.78 44.84 32.00 43.53 32.21 C 41.20 31.90 38.93 31.30 36.68 30.64 C 35.83 31.14 34.98 31.64 34.13 32.14 C 29.94 31.21 25.73 30.29 21.78 28.57 C 21.56 28.49 21.12 28.33 20.90 28.26 C 17.78 30.23 14.61 33.01 14.78 37.07 C 14.21 43.25 19.38 47.37 23.05 51.51 L 23.19 51.93 C 23.10 52.36 22.91 53.21 22.81 53.63 C 21.42 53.01 19.99 52.48 18.54 52.01 C 15.08 50.02 11.06 50.53 7.24 50.34 C 7.42 50.03 7.77 49.41 7.95 49.10 C 10.34 49.88 12.87 49.86 15.36 49.70 C 16.79 50.41 18.24 51.11 19.70 51.78 C 20.24 51.20 20.79 50.61 21.33 50.03 C 18.56 48.85 16.82 46.32 14.47 44.58 C 12.12 42.82 9.16 44.05 6.53 44.17 C 4.76 43.79 3.00 43.38 1.23 43.01 L 1.28 42.02 C 3.21 42.25 5.13 42.62 7.01 43.14 C 9.57 42.14 12.28 41.99 14.90 42.92 C 14.14 40.85 13.41 38.77 12.42 36.80 C 12.99 35.63 13.54 34.46 14.07 33.28 C 14.77 31.18 16.26 29.54 17.95 28.17 C 18.78 27.44 19.62 26.72 20.45 26.00 C 24.22 27.42 28.00 29.01 32.01 29.60 C 33.40 30.10 34.50 29.22 35.51 28.40 L 35.67 28.39 C 39.05 29.43 42.51 30.17 46.05 30.44 C 45.60 29.36 45.16 28.29 44.72 27.21 L 45.89 27.09 C 46.68 28.04 47.43 29.01 48.13 30.03 C 49.20 31.98 50.14 34.00 51.16 35.99 C 53.20 32.14 54.05 27.78 53.48 23.45 Z" />
</g>
<g id="#a98936ff">
<path fill="#a98936" opacity="1.00" d=" M 35.67 28.39 C 38.68 27.96 41.69 27.52 44.72 27.21 C 45.16 28.29 45.60 29.36 46.05 30.44 C 42.51 30.17 39.05 29.43 35.67 28.39 Z" />
</g>
<g id="#e2b28bff">
<path fill="#e2b28b" opacity="1.00" d=" M 14.78 37.07 C 14.61 33.01 17.78 30.23 20.90 28.26 C 21.12 28.33 21.56 28.49 21.78 28.57 C 20.21 30.22 19.71 32.32 20.03 34.55 C 22.61 34.95 25.19 35.52 27.46 36.85 C 26.99 36.93 26.06 37.09 25.59 37.17 C 23.63 37.47 21.66 37.73 19.69 37.97 C 19.79 38.89 19.89 39.81 20.03 40.72 C 20.47 41.02 21.34 41.62 21.78 41.92 C 23.26 42.51 25.02 43.20 26.22 41.56 C 27.62 42.73 29.48 40.50 28.13 39.29 L 29.45 38.59 C 29.12 40.37 28.79 42.14 28.46 43.92 C 30.80 43.89 33.14 43.88 35.47 43.71 C 35.58 43.25 35.81 42.33 35.92 41.87 C 36.27 41.93 36.96 42.05 37.30 42.11 C 37.97 42.27 39.32 42.59 39.99 42.75 C 40.57 42.49 41.72 41.98 42.30 41.73 C 44.55 41.54 44.52 38.18 42.26 38.10 C 40.57 37.72 38.87 37.44 37.16 37.22 C 38.94 35.58 41.27 34.95 43.43 33.99 C 43.46 33.55 43.51 32.66 43.53 32.21 C 44.84 32.00 46.15 31.78 47.46 31.54 C 49.46 35.75 49.71 40.61 47.19 44.66 C 44.47 47.17 41.65 49.59 38.47 51.50 L 38.33 50.74 C 38.51 50.07 38.88 48.73 39.06 48.06 C 37.46 48.27 35.86 48.47 34.26 48.67 C 33.69 48.11 33.11 47.55 32.54 46.99 C 33.30 46.59 34.82 45.77 35.58 45.37 C 33.19 45.19 30.79 45.22 28.40 45.37 C 29.25 45.87 30.95 46.87 31.81 47.37 C 29.71 48.05 27.51 48.28 25.32 48.43 C 25.55 48.74 26.00 49.37 26.22 49.69 C 26.75 50.14 27.79 51.06 28.31 51.51 L 28.08 52.03 C 26.42 51.76 24.74 51.54 23.05 51.51 C 19.38 47.37 14.21 43.25 14.78 37.07 Z" />
</g>
<g id="#f8d7bbff">
<path fill="#f8d7bb" opacity="1.00" d=" M 20.03 34.55 C 19.71 32.32 20.21 30.22 21.78 28.57 C 25.73 30.29 29.94 31.21 34.13 32.14 C 34.98 31.64 35.83 31.14 36.68 30.64 C 38.93 31.30 41.20 31.90 43.53 32.21 C 43.51 32.66 43.46 33.55 43.43 33.99 C 41.27 34.95 38.94 35.58 37.16 37.22 C 36.77 37.42 35.99 37.80 35.60 38.00 C 35.65 39.29 35.67 40.59 35.92 41.87 C 35.81 42.33 35.58 43.25 35.47 43.71 C 33.14 43.88 30.80 43.89 28.46 43.92 C 28.79 42.14 29.12 40.37 29.45 38.59 L 28.13 39.29 C 27.35 39.69 26.70 40.26 26.18 40.99 C 26.01 39.71 25.81 38.44 25.59 37.17 C 26.06 37.09 26.99 36.93 27.46 36.85 C 25.19 35.52 22.61 34.95 20.03 34.55 Z" />
</g>
<g id="#626772ff">
<path fill="#626772" opacity="1.00" d=" M 19.69 37.97 C 21.66 37.73 23.63 37.47 25.59 37.17 C 25.81 38.44 26.01 39.71 26.18 40.99 L 26.22 41.56 C 25.02 43.20 23.26 42.51 21.78 41.92 C 22.19 40.67 22.16 39.45 21.69 38.26 C 20.36 37.48 19.78 39.78 20.03 40.72 C 19.89 39.81 19.79 38.89 19.69 37.97 Z" />
<path fill="#626772" opacity="1.00" d=" M 35.60 38.00 C 35.99 37.80 36.77 37.42 37.16 37.22 C 38.87 37.44 40.57 37.72 42.26 38.10 L 41.78 38.84 C 40.45 39.58 40.46 40.31 41.81 41.03 L 42.30 41.73 C 41.72 41.98 40.57 42.49 39.99 42.75 C 39.32 42.59 37.97 42.27 37.30 42.11 C 37.77 40.92 37.60 39.80 36.78 38.74 C 36.12 39.65 35.83 40.69 35.92 41.87 C 35.67 40.59 35.65 39.29 35.60 38.00 Z" />
<path fill="#626772" opacity="1.00" d=" M 48.68 49.64 C 51.17 49.93 53.68 49.79 56.04 48.89 C 56.24 49.26 56.62 50.00 56.81 50.37 C 52.01 50.05 47.45 51.20 42.96 52.74 C 42.55 53.05 41.73 53.66 41.32 53.97 C 41.25 53.43 41.11 52.33 41.03 51.78 L 41.47 51.53 L 42.12 51.37 L 42.73 51.23 C 44.94 51.83 46.88 50.71 48.68 49.64 Z" />
</g>
<g id="#d6d1ceff">
<path fill="#d6d1ce" opacity="1.00" d=" M 20.03 40.72 C 19.78 39.78 20.36 37.48 21.69 38.26 C 22.16 39.45 22.19 40.67 21.78 41.92 C 21.34 41.62 20.47 41.02 20.03 40.72 Z" />
<path fill="#d6d1ce" opacity="1.00" d=" M 42.26 38.10 C 44.52 38.18 44.55 41.54 42.30 41.73 L 41.81 41.03 C 41.80 40.48 41.79 39.39 41.78 38.84 L 42.26 38.10 Z" />
</g>
<g id="#e4e5e6ff">
<path fill="#e4e5e6" opacity="1.00" d=" M 26.18 40.99 C 26.70 40.26 27.35 39.69 28.13 39.29 C 29.48 40.50 27.62 42.73 26.22 41.56 L 26.18 40.99 Z" />
<path fill="#e4e5e6" opacity="1.00" d=" M 35.92 41.87 C 35.83 40.69 36.12 39.65 36.78 38.74 C 37.60 39.80 37.77 40.92 37.30 42.11 C 36.96 42.05 36.27 41.93 35.92 41.87 Z" />
</g>
<g id="#27282fff">
<path fill="#27282f" opacity="1.00" d=" M 41.81 41.03 C 40.46 40.31 40.45 39.58 41.78 38.84 C 41.79 39.39 41.80 40.48 41.81 41.03 Z" />
</g>
<g id="#a5a6a6ff">
<path fill="#a5a6a6" opacity="1.00" d=" M 1.23 43.01 C 3.00 43.38 4.76 43.79 6.53 44.17 C 5.00 44.37 3.46 44.57 1.93 44.78 C 4.64 45.15 7.37 45.41 10.10 45.61 C 7.59 45.60 5.08 45.60 2.57 45.60 C 2.49 46.57 2.32 48.49 2.24 49.46 C 1.96 49.02 1.41 48.15 1.14 47.72 C 1.16 46.15 1.19 44.58 1.23 43.01 Z" />
</g>
<g id="#dededeff">
<path fill="#dedede" opacity="1.00" d=" M 1.93 44.78 C 3.46 44.57 5.00 44.37 6.53 44.17 C 9.16 44.05 12.12 42.82 14.47 44.58 C 16.82 46.32 18.56 48.85 21.33 50.03 C 20.79 50.61 20.24 51.20 19.70 51.78 C 18.24 51.11 16.79 50.41 15.36 49.70 C 12.87 49.86 10.34 49.88 7.95 49.10 C 7.36 48.82 6.18 48.26 5.59 47.98 C 4.38 49.83 4.43 52.07 4.39 54.19 L 4.23 53.83 C 3.56 52.37 2.90 50.91 2.24 49.46 C 2.32 48.49 2.49 46.57 2.57 45.60 C 5.08 45.60 7.59 45.60 10.10 45.61 C 7.37 45.41 4.64 45.15 1.93 44.78 Z" />
</g>
<g id="#dbdbdbff">
<path fill="#dbdbdb" opacity="1.00" d=" M 48.97 44.96 C 52.65 41.96 57.53 45.53 61.63 43.33 C 63.01 47.04 61.27 50.68 59.77 54.04 L 59.53 54.58 C 59.45 52.68 59.73 50.70 59.16 48.85 C 58.42 47.80 57.03 48.85 56.04 48.89 C 53.68 49.79 51.17 49.93 48.68 49.64 C 46.88 50.71 44.94 51.83 42.73 51.23 C 44.23 49.75 45.70 48.24 47.03 46.60 C 47.51 46.19 48.48 45.37 48.97 44.96 Z" />
</g>
<g id="#6d523aff">
<path fill="#6d523a" opacity="1.00" d=" M 28.40 45.37 C 30.79 45.22 33.19 45.19 35.58 45.37 C 34.82 45.77 33.30 46.59 32.54 46.99 C 33.11 47.55 33.69 48.11 34.26 48.67 C 35.86 48.47 37.46 48.27 39.06 48.06 C 38.88 48.73 38.51 50.07 38.33 50.74 L 38.10 50.01 C 34.47 47.75 30.19 50.71 26.22 49.69 C 26.00 49.37 25.55 48.74 25.32 48.43 C 27.51 48.28 29.71 48.05 31.81 47.37 C 30.95 46.87 29.25 45.87 28.40 45.37 Z" />
</g>
<g id="#aa8160fc">
<path fill="#aa8160" opacity="1.00" d=" M 38.47 51.50 C 41.65 49.59 44.47 47.17 47.19 44.66 L 47.03 46.60 C 45.70 48.24 44.23 49.75 42.73 51.23 L 42.12 51.37 L 41.47 51.53 L 41.03 51.78 C 39.44 52.67 37.86 53.59 36.34 54.59 C 36.03 54.40 35.41 54.03 35.10 53.85 C 32.61 53.98 30.03 53.60 27.66 54.51 L 27.57 54.47 C 26.10 53.64 24.62 52.83 23.19 51.93 L 23.05 51.51 C 24.74 51.54 26.42 51.76 28.08 52.03 L 28.31 51.51 C 31.64 51.68 35.22 52.12 38.10 50.01 L 38.33 50.74 L 38.47 51.50 Z" />
</g>
<g id="#585858bd">
<path fill="#585858" opacity="0.74" d=" M 1.14 47.72 C 1.41 48.15 1.96 49.02 2.24 49.46 C 2.90 50.91 3.56 52.37 4.23 53.83 C 1.80 52.91 1.71 49.86 1.14 47.72 Z" />
</g>
<g id="#f7f7f7ff">
<path fill="#f7f7f7" opacity="1.00" d=" M 4.39 54.19 C 4.43 52.07 4.38 49.83 5.59 47.98 C 6.18 48.26 7.36 48.82 7.95 49.10 C 7.77 49.41 7.42 50.03 7.24 50.34 C 11.06 50.53 15.08 50.02 18.54 52.01 C 19.99 52.48 21.42 53.01 22.81 53.63 C 22.91 53.21 23.10 52.36 23.19 51.93 C 24.62 52.83 26.10 53.64 27.57 54.47 C 21.08 59.24 10.69 60.75 4.38 54.95 L 4.39 54.19 Z" />
<path fill="#f7f7f7" opacity="1.00" d=" M 56.04 48.89 C 57.03 48.85 58.42 47.80 59.16 48.85 C 59.73 50.70 59.45 52.68 59.53 54.58 L 59.53 55.04 C 53.14 60.81 42.99 59.06 36.34 54.59 C 37.86 53.59 39.44 52.67 41.03 51.78 C 41.11 52.33 41.25 53.43 41.32 53.97 C 41.73 53.66 42.55 53.05 42.96 52.74 C 47.45 51.20 52.01 50.05 56.81 50.37 C 56.62 50.00 56.24 49.26 56.04 48.89 Z" />
</g>
<g id="#581818ff">
<path fill="#581818" opacity="1.00" d=" M 26.22 49.69 C 30.19 50.71 34.47 47.75 38.10 50.01 C 35.22 52.12 31.64 51.68 28.31 51.51 C 27.79 51.06 26.75 50.14 26.22 49.69 Z" />
</g>
</svg>
