<?xml version="1.0" encoding="UTF-8" ?>
<!DOCTYPE svg PUBLIC "-//W3C//DTD SVG 1.1//EN" "http://www.w3.org/Graphics/SVG/1.1/DTD/svg11.dtd">
<svg width="64pt" height="64pt" viewBox="0 0 64 64" version="1.1" xmlns="http://www.w3.org/2000/svg">
<g id="#f6d1b7ff">
<path fill="#f6d1b7" opacity="1.00" d=" M 24.22 10.50 C 25.76 10.46 27.30 10.42 28.84 10.41 L 28.39 9.66 C 32.20 9.54 36.26 8.56 39.63 10.90 L 39.12 11.43 C 39.97 11.45 41.67 11.50 42.52 11.52 L 42.46 12.79 C 42.92 12.66 43.83 12.42 44.29 12.30 L 44.43 13.01 C 45.42 13.78 46.38 14.59 47.31 15.43 C 47.59 15.36 48.13 15.22 48.40 15.15 L 48.32 16.24 C 48.67 16.55 49.39 17.18 49.75 17.49 C 50.32 17.71 51.46 18.14 52.03 18.36 L 47.15 18.93 C 50.05 18.39 51.98 19.25 52.92 21.50 L 54.77 22.24 C 53.92 22.37 52.21 22.62 51.36 22.75 C 54.68 23.43 57.52 26.74 56.38 30.21 C 58.49 30.74 59.32 32.25 58.86 34.75 L 59.77 31.42 C 59.71 33.77 59.84 36.17 59.28 38.48 C 58.43 40.45 56.26 41.21 54.69 42.46 C 54.43 44.92 54.24 48.03 51.52 49.04 L 51.81 49.98 L 50.17 49.36 C 50.30 49.72 50.55 50.44 50.68 50.81 C 50.21 51.28 49.28 52.24 48.81 52.72 C 48.68 52.67 48.43 52.58 48.30 52.53 C 47.48 53.53 46.51 54.38 45.41 55.06 L 45.74 55.62 L 45.03 55.51 C 43.76 56.03 42.48 56.50 41.18 56.93 L 41.85 57.66 C 40.91 57.63 39.03 57.55 38.09 57.52 L 38.93 58.50 C 34.31 58.68 29.69 58.68 25.07 58.50 L 25.92 57.55 C 25.01 57.56 23.19 57.59 22.28 57.61 L 22.64 56.25 C 22.10 56.41 21.03 56.73 20.49 56.89 L 20.53 55.25 C 20.04 55.41 19.07 55.72 18.58 55.88 L 18.65 54.94 C 17.15 54.04 15.76 52.98 14.30 52.03 L 14.73 50.06 L 13.00 51.87 C 13.15 51.40 13.45 50.47 13.60 50.00 C 10.84 49.56 11.55 46.55 11.12 44.56 L 10.05 48.52 L 10.26 44.93 L 8.98 45.62 C 9.21 45.09 9.67 44.04 9.90 43.51 L 9.12 43.44 C 8.68 42.70 7.78 41.21 7.33 40.47 L 11.69 40.01 C 10.07 39.84 6.84 39.51 5.22 39.34 L 5.85 38.30 L 4.43 38.41 C 4.42 36.39 4.15 34.32 4.65 32.33 C 5.36 31.23 6.78 30.83 7.80 30.08 L 7.32 28.64 C 8.47 28.46 10.76 28.12 11.91 27.95 L 8.25 27.61 L 8.73 25.47 L 8.81 25.69 C 9.17 24.06 9.93 22.60 10.88 21.24 L 12.92 21.84 C 12.41 21.34 11.38 20.32 10.87 19.82 C 12.36 19.60 15.34 19.16 16.82 18.94 L 11.98 18.35 C 12.56 18.14 13.71 17.70 14.28 17.48 C 14.63 17.17 15.32 16.56 15.67 16.25 L 15.58 15.20 C 15.86 15.25 16.43 15.36 16.71 15.42 C 17.64 14.58 18.59 13.78 19.57 13.01 L 19.72 12.29 C 20.18 12.41 21.08 12.67 21.54 12.80 L 21.47 11.54 C 22.33 11.50 24.07 11.43 24.93 11.39 L 24.22 10.50 M 23.27 48.38 C 23.87 48.72 25.06 49.41 25.65 49.76 L 25.44 50.58 L 26.68 50.39 L 26.72 51.72 C 27.19 51.59 28.14 51.32 28.62 51.19 L 28.39 52.49 C 30.78 52.54 33.17 52.54 35.56 52.47 L 35.36 51.94 C 36.31 51.32 37.25 50.68 38.16 50.00 C 38.91 49.46 39.67 48.92 40.44 48.39 C 34.72 48.29 28.99 48.30 23.27 48.38 Z" />
</g>
</svg>
