<?xml version="1.0" encoding="UTF-8" ?>
<!DOCTYPE svg PUBLIC "-//W3C//DTD SVG 1.1//EN" "http://www.w3.org/Graphics/SVG/1.1/DTD/svg11.dtd">
<svg width="64pt" height="64pt" viewBox="0 0 64 64" version="1.1" xmlns="http://www.w3.org/2000/svg">
<g id="#453d3ef7">
<path fill="#453d3e" opacity="0.97" d=" M 19.86 7.77 C 24.86 3.11 32.33 3.39 38.59 4.57 C 47.33 7.28 50.84 16.88 51.17 25.25 C 52.14 24.82 53.11 24.39 54.09 23.96 C 53.15 24.75 52.20 25.52 51.23 26.27 C 50.91 30.40 51.12 34.55 51.56 38.67 C 58.06 34.51 62.08 27.09 61.83 19.36 C 60.88 19.38 58.98 19.43 58.03 19.45 C 57.11 20.60 56.17 21.73 55.22 22.85 C 56.10 20.74 56.06 17.64 58.45 16.55 C 60.08 15.69 61.65 17.03 63.13 17.58 C 63.89 26.43 59.34 35.23 52.03 40.15 C 53.42 46.79 56.99 52.59 60.74 58.13 C 56.60 61.65 51.35 59.31 46.90 57.85 C 41.71 56.11 37.17 60.60 31.99 60.07 C 28.09 60.39 24.69 58.19 20.98 57.50 C 16.08 56.95 11.81 60.82 6.88 59.95 C 5.60 59.50 4.45 58.77 3.26 58.14 C 7.00 52.59 10.58 46.80 11.97 40.15 C 4.66 35.23 0.12 26.44 0.87 17.59 C 2.35 17.04 3.93 15.67 5.55 16.56 C 7.97 17.64 7.91 20.74 8.76 22.86 C 7.82 21.74 6.90 20.59 6.00 19.44 C 5.04 19.42 3.13 19.38 2.17 19.36 C 1.90 27.08 5.93 34.39 12.31 38.65 C 13.15 34.60 13.64 30.50 13.58 26.36 C 12.32 25.59 11.06 24.83 9.86 23.95 C 10.60 24.29 12.06 24.98 12.80 25.32 C 13.40 19.00 14.73 12.06 19.86 7.77 M 23.96 6.37 C 23.72 6.41 23.24 6.48 23.00 6.51 C 22.52 6.90 21.58 7.67 21.11 8.05 C 20.30 8.74 19.48 9.42 18.64 10.08 C 18.63 10.44 18.60 11.16 18.59 11.53 L 17.09 11.62 L 17.83 13.34 C 17.40 13.41 16.53 13.54 16.10 13.61 C 16.29 14.07 16.67 15.01 16.87 15.48 L 15.46 15.40 C 15.46 16.81 15.47 18.22 15.47 19.63 L 14.50 19.34 C 14.81 26.49 13.51 33.53 13.34 40.65 L 12.43 40.29 C 12.48 41.74 12.53 43.18 12.57 44.63 L 11.41 44.40 C 11.46 45.20 11.55 46.82 11.59 47.62 L 10.07 47.53 C 10.30 48.02 10.75 49.01 10.98 49.50 L 9.44 49.40 C 9.49 50.25 9.57 51.96 9.61 52.81 L 8.48 52.21 C 8.47 53.75 8.47 55.28 8.46 56.82 C 10.82 56.44 13.15 55.91 15.48 55.40 L 15.98 50.20 C 16.23 52.02 16.72 55.66 16.97 57.47 L 17.54 53.46 C 19.64 53.48 21.75 53.48 23.85 53.47 L 23.26 54.92 C 23.86 54.73 25.07 54.36 25.67 54.17 C 25.60 54.75 25.45 55.91 25.37 56.49 C 26.86 56.47 28.34 56.46 29.82 56.45 L 29.16 57.51 C 31.05 57.50 32.94 57.50 34.82 57.51 L 34.20 56.36 C 35.10 56.43 36.90 56.59 37.81 56.66 L 36.71 55.11 L 38.41 55.91 L 38.99 50.83 C 39.23 52.50 39.73 55.84 39.97 57.52 L 40.54 53.45 C 42.52 53.47 44.50 53.48 46.48 53.48 L 47.02 57.47 C 47.27 55.64 47.78 51.99 48.03 50.16 L 48.52 55.39 C 50.85 55.90 53.18 56.44 55.55 56.82 C 55.53 55.28 55.52 53.75 55.52 52.21 L 54.68 52.76 C 54.25 50.97 53.78 49.18 53.35 47.39 L 52.39 47.63 C 52.44 46.82 52.55 45.20 52.60 44.38 L 51.42 44.68 C 51.47 43.22 51.52 41.75 51.57 40.29 L 50.56 40.65 C 50.68 33.04 50.80 25.34 48.66 17.96 C 48.62 17.33 48.55 16.07 48.51 15.44 L 47.92 15.49 C 47.05 13.00 45.66 10.74 43.79 8.88 C 43.65 8.66 43.35 8.23 43.21 8.01 C 42.64 7.65 41.51 6.93 40.94 6.57 C 40.71 6.52 40.26 6.41 40.03 6.35 C 34.99 3.89 29.00 3.88 23.96 6.37 Z" />
<path fill="#453d3e" opacity="0.97" d=" M 31.97 23.78 C 30.72 18.39 37.50 13.97 41.97 17.22 C 45.01 19.52 45.63 24.06 43.06 26.97 C 39.59 30.64 32.85 28.83 31.97 23.78 Z" />
<path fill="#453d3e" opacity="0.97" d=" M 20.21 20.02 C 21.89 19.10 24.30 18.86 25.31 20.87 C 27.35 23.35 23.85 26.87 21.17 25.52 C 19.03 24.41 18.73 21.84 20.21 20.02 Z" />
<path fill="#453d3e" opacity="0.97" d=" M 19.42 32.00 C 21.35 31.94 23.28 31.89 25.20 32.01 C 29.73 32.37 34.28 32.36 38.80 32.03 C 40.73 31.91 42.66 31.94 44.59 31.99 C 42.77 33.83 40.56 35.16 38.28 36.34 C 38.34 38.84 38.35 41.35 38.29 43.86 C 37.89 45.06 37.52 46.27 37.15 47.48 C 33.65 47.65 30.15 47.63 26.65 47.49 C 26.09 43.67 26.00 39.77 25.63 35.96 C 23.34 35.02 21.13 33.84 19.42 32.00 M 26.83 39.35 L 26.23 39.47 C 26.74 41.43 27.29 43.37 27.80 45.33 C 30.40 46.31 33.13 46.61 35.76 45.56 C 35.69 45.04 35.54 44.00 35.46 43.48 C 35.96 43.53 36.95 43.64 37.45 43.69 C 37.47 42.60 37.50 40.43 37.51 39.35 L 36.39 39.56 C 36.47 38.77 36.63 37.18 36.71 36.38 C 33.22 36.64 28.46 35.18 26.83 39.35 Z" />
</g>
<g id="#d6d5d5ff">
<path fill="#d6d5d5" opacity="1.00" d=" M 23.96 6.37 C 29.00 3.88 34.99 3.89 40.03 6.35 C 40.26 6.41 40.71 6.52 40.94 6.57 C 41.51 6.93 42.64 7.65 43.21 8.01 C 43.35 8.23 43.65 8.66 43.79 8.88 C 45.66 10.74 47.05 13.00 47.92 15.49 L 48.51 15.44 C 48.55 16.07 48.62 17.33 48.66 17.96 C 50.80 25.34 50.68 33.04 50.56 40.65 L 51.57 40.29 C 51.52 41.75 51.47 43.22 51.42 44.68 L 52.60 44.38 C 52.55 45.20 52.44 46.82 52.39 47.63 L 53.35 47.39 C 53.78 49.18 54.25 50.97 54.68 52.76 L 55.52 52.21 C 55.52 53.75 55.53 55.28 55.55 56.82 C 53.18 56.44 50.85 55.90 48.52 55.39 L 48.03 50.16 C 47.78 51.99 47.27 55.64 47.02 57.47 L 46.48 53.48 C 44.50 53.48 42.52 53.47 40.54 53.45 L 39.97 57.52 C 39.73 55.84 39.23 52.50 38.99 50.83 L 38.41 55.91 L 36.71 55.11 L 37.81 56.66 C 36.90 56.59 35.10 56.43 34.20 56.36 L 34.82 57.51 C 32.94 57.50 31.05 57.50 29.16 57.51 L 29.82 56.45 C 28.34 56.46 26.86 56.47 25.37 56.49 C 25.45 55.91 25.60 54.75 25.67 54.17 C 25.07 54.36 23.86 54.73 23.26 54.92 L 23.85 53.47 C 21.75 53.48 19.64 53.48 17.54 53.46 L 16.97 57.47 C 16.72 55.66 16.23 52.02 15.98 50.20 L 15.48 55.40 C 13.15 55.91 10.82 56.44 8.46 56.82 C 8.47 55.28 8.47 53.75 8.48 52.21 L 9.61 52.81 C 9.57 51.96 9.49 50.25 9.44 49.40 L 10.98 49.50 C 10.75 49.01 10.30 48.02 10.07 47.53 L 11.59 47.62 C 11.55 46.82 11.46 45.20 11.41 44.40 L 12.57 44.63 C 12.53 43.18 12.48 41.74 12.43 40.29 L 13.34 40.65 C 13.51 33.53 14.81 26.49 14.50 19.34 L 15.47 19.63 C 15.47 18.22 15.46 16.81 15.46 15.40 L 16.87 15.48 C 16.67 15.01 16.29 14.07 16.10 13.61 C 16.53 13.54 17.40 13.41 17.83 13.34 L 17.09 11.62 L 18.59 11.53 C 18.60 11.16 18.63 10.44 18.64 10.08 C 19.48 9.42 20.30 8.74 21.11 8.05 C 21.58 7.67 22.52 6.90 23.00 6.51 C 23.24 6.48 23.72 6.41 23.96 6.37 M 27.07 8.68 C 21.69 10.10 19.94 15.91 18.50 20.61 L 20.21 20.02 C 18.73 21.84 19.03 24.41 21.17 25.52 L 19.10 25.07 C 19.28 26.97 19.45 28.87 19.62 30.77 C 21.47 31.22 23.31 31.74 25.20 32.01 C 23.28 31.89 21.35 31.94 19.42 32.00 C 21.13 33.84 23.34 35.02 25.63 35.96 C 26.00 39.77 26.09 43.67 26.65 47.49 C 30.15 47.63 33.65 47.65 37.15 47.48 C 37.52 46.27 37.89 45.06 38.29 43.86 C 38.35 41.35 38.34 38.84 38.28 36.34 C 40.56 35.16 42.77 33.83 44.59 31.99 C 42.66 31.94 40.73 31.91 38.80 32.03 C 40.64 31.82 42.48 31.38 44.14 30.54 C 44.71 28.88 44.87 27.12 45.25 25.42 L 43.06 26.97 C 45.63 24.06 45.01 19.52 41.97 17.22 L 44.73 18.42 C 43.68 15.92 43.16 12.94 40.97 11.10 C 37.35 7.48 31.70 7.93 27.07 8.68 Z" />
<path fill="#d6d5d5" opacity="1.00" d=" M 2.17 19.36 C 3.13 19.38 5.04 19.42 6.00 19.44 C 6.90 20.59 7.82 21.74 8.76 22.86 C 9.09 23.26 9.46 23.62 9.86 23.95 C 11.06 24.83 12.32 25.59 13.58 26.36 C 13.64 30.50 13.15 34.60 12.31 38.65 C 5.93 34.39 1.90 27.08 2.17 19.36 Z" />
<path fill="#d6d5d5" opacity="1.00" d=" M 58.03 19.45 C 58.98 19.43 60.88 19.38 61.83 19.36 C 62.08 27.09 58.06 34.51 51.56 38.67 C 51.12 34.55 50.91 30.40 51.23 26.27 C 52.20 25.52 53.15 24.75 54.09 23.96 C 54.49 23.61 54.87 23.24 55.22 22.85 C 56.17 21.73 57.11 20.60 58.03 19.45 Z" />
<path fill="#d6d5d5" opacity="1.00" d=" M 26.83 39.35 C 28.46 35.18 33.22 36.64 36.71 36.38 C 36.63 37.18 36.47 38.77 36.39 39.56 L 37.51 39.35 C 37.50 40.43 37.47 42.60 37.45 43.69 C 36.95 43.64 35.96 43.53 35.46 43.48 C 35.54 44.00 35.69 45.04 35.76 45.56 C 33.13 46.61 30.40 46.31 27.80 45.33 C 27.29 43.37 26.74 41.43 26.23 39.47 L 26.83 39.35 Z" />
</g>
<g id="#f9f9f9ff">
<path fill="#f9f9f9" opacity="1.00" d=" M 27.07 8.68 C 31.70 7.93 37.35 7.48 40.97 11.10 C 43.16 12.94 43.68 15.92 44.73 18.42 L 41.97 17.22 C 37.50 13.97 30.72 18.39 31.97 23.78 C 32.85 28.83 39.59 30.64 43.06 26.97 L 45.25 25.42 C 44.87 27.12 44.71 28.88 44.14 30.54 C 42.48 31.38 40.64 31.82 38.80 32.03 C 34.28 32.36 29.73 32.37 25.20 32.01 C 23.31 31.74 21.47 31.22 19.62 30.77 C 19.45 28.87 19.28 26.97 19.10 25.07 L 21.17 25.52 C 23.85 26.87 27.35 23.35 25.31 20.87 C 24.30 18.86 21.89 19.10 20.21 20.02 L 18.50 20.61 C 19.94 15.91 21.69 10.10 27.07 8.68 Z" />
</g>
</svg>
