<?xml version="1.0" encoding="UTF-8" ?>
<!DOCTYPE svg PUBLIC "-//W3C//DTD SVG 1.1//EN" "http://www.w3.org/Graphics/SVG/1.1/DTD/svg11.dtd">
<svg width="64pt" height="64pt" viewBox="0 0 64 64" version="1.1" xmlns="http://www.w3.org/2000/svg">
<g id="#653807ff">
<path fill="#653807" opacity="1.00" d=" M 31.21 0.00 L 32.75 0.00 C 33.28 0.48 34.34 1.45 34.86 1.93 C 37.02 1.58 39.04 2.21 40.88 3.31 C 41.89 2.24 42.84 1.12 43.80 0.00 L 44.88 0.00 C 44.64 0.89 44.17 2.67 43.93 3.56 C 44.98 4.02 46.02 4.48 47.06 4.96 C 46.06 4.65 45.04 4.40 44.02 4.20 C 43.60 5.27 43.28 6.37 43.10 7.50 L 42.82 9.14 C 42.52 7.54 42.37 5.91 42.15 4.30 C 40.59 4.98 39.07 5.75 37.49 6.37 C 36.12 5.12 34.85 3.77 33.45 2.56 C 32.50 2.47 31.55 2.41 30.59 2.40 L 29.77 1.65 C 30.13 1.24 30.85 0.41 31.21 0.00 Z" />
<path fill="#653807" opacity="1.00" d=" M 23.13 13.74 C 24.77 12.81 26.63 13.03 28.43 13.17 C 30.65 13.42 32.90 13.45 35.13 13.25 C 35.55 13.19 36.39 13.08 36.81 13.03 C 37.92 12.79 40.15 12.31 41.26 12.07 L 40.53 13.94 C 35.09 16.12 28.47 16.25 23.13 13.74 Z" />
</g>
<g id="#7a651fff">
<path fill="#7a651f" opacity="1.00" d=" M 19.19 0.01 C 21.18 -0.01 21.81 2.26 23.01 3.47 C 23.72 5.19 25.36 5.77 27.10 5.81 L 26.41 6.49 C 25.39 6.57 24.37 6.60 23.36 6.60 C 23.34 8.20 23.20 9.80 23.39 11.40 C 24.30 11.87 25.25 12.25 26.25 12.52 C 26.79 12.68 27.88 13.01 28.43 13.17 C 26.63 13.03 24.77 12.81 23.13 13.74 C 21.75 12.90 21.82 11.12 21.33 9.76 C 21.19 9.21 20.92 8.12 20.78 7.58 C 20.47 6.33 20.12 5.10 19.92 3.83 C 19.74 2.88 19.38 0.97 19.19 0.01 Z" />
</g>
<g id="#622405f9">
<path fill="#622405" opacity="0.98" d=" M 23.01 3.47 C 25.11 1.95 28.25 1.09 30.59 2.40 C 29.43 3.55 28.24 4.66 27.10 5.81 C 25.36 5.77 23.72 5.19 23.01 3.47 Z" />
</g>
<g id="#f0e057ff">
<path fill="#f0e057" opacity="1.00" d=" M 30.59 2.40 C 31.55 2.41 32.50 2.47 33.45 2.56 C 34.85 3.77 36.12 5.12 37.49 6.37 C 38.49 6.89 39.54 7.32 40.56 7.79 C 41.43 10.50 39.35 12.55 36.81 13.03 C 36.39 13.08 35.55 13.19 35.13 13.25 C 35.47 12.63 36.16 11.38 36.50 10.76 C 34.67 9.16 32.43 7.94 29.92 8.48 C 28.34 9.45 27.38 11.10 26.25 12.52 C 25.25 12.25 24.30 11.87 23.39 11.40 C 23.20 9.80 23.34 8.20 23.36 6.60 C 24.37 6.60 25.39 6.57 26.41 6.49 L 27.10 5.81 C 28.24 4.66 29.43 3.55 30.59 2.40 Z" />
</g>
<g id="#916016f5">
<path fill="#916016" opacity="0.96" d=" M 3.30 23.68 C 4.85 15.09 10.27 5.79 19.48 4.05 C 15.52 7.22 10.81 9.82 8.32 14.43 C 6.03 18.44 4.31 23.51 6.32 27.98 C 7.26 30.06 8.03 32.27 7.78 34.59 C 7.16 37.82 6.59 41.06 6.45 44.35 C 5.52 37.44 3.27 30.69 3.30 23.68 Z" />
</g>
<g id="#ad8d2cff">
<path fill="#ad8d2c" opacity="1.00" d=" M 19.48 4.05 L 19.92 3.83 C 20.12 5.10 20.47 6.33 20.78 7.58 C 16.20 9.23 11.77 12.04 9.71 16.63 C 8.67 19.05 7.46 22.55 9.89 24.53 C 14.82 24.26 18.89 21.00 23.62 19.94 C 22.48 21.96 20.47 23.10 18.35 23.85 C 17.45 24.18 16.55 24.51 15.64 24.84 C 14.32 25.34 13.14 26.12 11.95 26.86 C 7.88 28.68 7.86 33.97 9.37 37.55 C 9.12 38.57 8.62 40.62 8.37 41.64 C 7.80 39.33 7.75 36.95 7.78 34.59 C 8.03 32.27 7.26 30.06 6.32 27.98 C 4.31 23.51 6.03 18.44 8.32 14.43 C 10.81 9.82 15.52 7.22 19.48 4.05 Z" />
</g>
<g id="#ad872cff">
<path fill="#ad872c" opacity="1.00" d=" M 44.02 4.20 C 45.04 4.40 46.06 4.65 47.06 4.96 C 52.51 7.18 56.84 11.91 58.84 17.42 C 58.03 22.78 60.20 28.82 56.90 33.62 C 55.50 33.55 54.11 33.30 52.72 33.06 C 51.79 31.26 50.82 29.21 48.86 28.34 C 45.06 26.35 40.98 24.93 36.73 24.28 C 32.43 23.27 27.37 23.32 24.14 19.84 C 29.79 20.48 35.07 23.15 40.80 23.63 C 45.84 24.11 50.14 27.80 55.22 27.54 C 57.25 24.96 56.02 21.76 55.30 18.96 C 53.81 13.34 49.00 8.29 43.10 7.50 C 43.28 6.37 43.60 5.27 44.02 4.20 Z" />
</g>
<g id="#978526ff">
<path fill="#978526" opacity="1.00" d=" M 37.49 6.37 C 39.07 5.75 40.59 4.98 42.15 4.30 C 42.37 5.91 42.52 7.54 42.82 9.14 L 42.89 9.91 C 42.36 11.40 42.15 13.20 40.53 13.94 L 41.26 12.07 C 40.15 12.31 37.92 12.79 36.81 13.03 C 39.35 12.55 41.43 10.50 40.56 7.79 C 39.54 7.32 38.49 6.89 37.49 6.37 Z" />
</g>
<g id="#c9af43ff">
<path fill="#c9af43" opacity="1.00" d=" M 43.10 7.50 C 49.00 8.29 53.81 13.34 55.30 18.96 C 56.02 21.76 57.25 24.96 55.22 27.54 C 50.14 27.80 45.84 24.11 40.80 23.63 C 35.07 23.15 29.79 20.48 24.14 19.84 C 24.01 19.87 23.75 19.92 23.62 19.94 C 18.89 21.00 14.82 24.26 9.89 24.53 C 7.46 22.55 8.67 19.05 9.71 16.63 C 11.77 12.04 16.20 9.23 20.78 7.58 C 20.92 8.12 21.19 9.21 21.33 9.76 C 17.08 11.53 12.74 14.79 13.15 19.96 C 16.90 19.44 20.17 17.17 23.96 16.88 C 28.42 17.47 32.56 19.47 37.04 19.96 C 41.73 20.44 46.20 22.06 50.85 22.70 C 52.56 21.36 51.53 18.85 50.97 17.15 C 49.67 13.48 46.16 11.54 42.89 9.91 L 42.82 9.14 L 43.10 7.50 Z" />
</g>
<g id="#fdf98bff">
<path fill="#fdf98b" opacity="1.00" d=" M 26.25 12.52 C 27.38 11.10 28.34 9.45 29.92 8.48 C 32.43 7.94 34.67 9.16 36.50 10.76 C 36.16 11.38 35.47 12.63 35.13 13.25 C 32.90 13.45 30.65 13.42 28.43 13.17 C 27.88 13.01 26.79 12.68 26.25 12.52 Z" />
</g>
<g id="#dcc956ff">
<path fill="#dcc956" opacity="1.00" d=" M 13.15 19.96 C 12.74 14.79 17.08 11.53 21.33 9.76 C 21.82 11.12 21.75 12.90 23.13 13.74 C 28.47 16.25 35.09 16.12 40.53 13.94 C 42.15 13.20 42.36 11.40 42.89 9.91 C 46.16 11.54 49.67 13.48 50.97 17.15 C 51.53 18.85 52.56 21.36 50.85 22.70 C 46.20 22.06 41.73 20.44 37.04 19.96 C 32.56 19.47 28.42 17.47 23.96 16.88 C 20.17 17.17 16.90 19.44 13.15 19.96 Z" />
</g>
<g id="#846d24ff">
<path fill="#846d24" opacity="1.00" d=" M 58.84 17.42 C 59.86 19.72 60.59 22.15 60.81 24.67 C 61.03 29.79 59.46 34.65 57.92 39.46 C 57.31 44.00 57.06 48.64 55.43 52.99 C 54.49 55.38 53.88 58.66 51.03 59.46 C 47.69 59.92 44.29 59.59 41.24 58.10 C 45.61 54.87 49.43 50.72 51.26 45.51 C 53.13 41.62 52.58 37.23 52.72 33.06 C 54.11 33.30 55.50 33.55 56.90 33.62 C 60.20 28.82 58.03 22.78 58.84 17.42 Z" />
<path fill="#846d24" opacity="1.00" d=" M 9.37 37.55 C 7.86 33.97 7.88 28.68 11.95 26.86 C 11.28 31.80 11.06 36.83 11.57 41.79 C 13.13 48.30 17.09 54.20 22.68 57.94 C 19.23 59.85 14.17 60.72 10.87 58.17 C 8.28 54.03 7.55 49.04 6.45 44.35 C 6.59 41.06 7.16 37.82 7.78 34.59 C 7.75 36.95 7.80 39.33 8.37 41.64 C 8.62 40.62 9.12 38.57 9.37 37.55 Z" />
</g>
<g id="#fadcc2ff">
<path fill="#fadcc2" opacity="1.00" d=" M 23.62 19.94 C 23.75 19.92 24.01 19.87 24.14 19.84 C 27.37 23.32 32.43 23.27 36.73 24.28 C 40.98 24.93 45.06 26.35 48.86 28.34 C 43.99 28.40 38.11 27.86 35.32 32.84 C 35.46 33.37 35.74 34.44 35.88 34.98 C 35.94 35.14 36.06 35.48 36.12 35.65 C 36.46 38.17 38.88 39.16 40.66 40.52 C 39.86 41.53 38.96 42.46 37.92 43.22 C 37.51 42.96 36.70 42.42 36.29 42.15 C 33.42 42.62 30.56 42.57 27.70 42.17 C 27.18 42.50 26.65 42.82 26.12 43.13 C 25.48 42.32 24.61 41.71 24.12 40.80 C 26.11 38.15 30.48 36.10 28.93 32.13 C 27.20 27.42 20.50 28.30 18.35 23.85 C 20.47 23.10 22.48 21.96 23.62 19.94 Z" />
</g>
<g id="#5d4911ff">
<path fill="#5d4911" opacity="1.00" d=" M 5.44 57.87 C 2.50 46.75 2.72 35.06 3.30 23.68 C 3.27 30.69 5.52 37.44 6.45 44.35 C 7.55 49.04 8.28 54.03 10.87 58.17 C 14.17 60.72 19.23 59.85 22.68 57.94 C 28.42 61.03 35.40 60.83 41.24 58.10 C 44.29 59.59 47.69 59.92 51.03 59.46 C 53.88 58.66 54.49 55.38 55.43 52.99 C 57.06 48.64 57.31 44.00 57.92 39.46 C 59.46 34.65 61.03 29.79 60.81 24.67 C 61.17 34.88 61.39 45.27 59.21 55.32 C 58.42 58.38 57.77 61.75 55.34 64.00 L 53.92 64.00 C 39.42 62.56 24.77 62.52 10.28 64.00 L 8.83 64.00 C 6.85 62.55 6.10 60.12 5.44 57.87 Z" />
</g>
<g id="#f5ceacff">
<path fill="#f5ceac" opacity="1.00" d=" M 15.64 24.84 C 16.55 24.51 17.45 24.18 18.35 23.85 C 20.50 28.30 27.20 27.42 28.93 32.13 C 30.48 36.10 26.11 38.15 24.12 40.80 C 24.61 41.71 25.48 42.32 26.12 43.13 C 26.65 42.82 27.18 42.50 27.70 42.17 C 27.54 46.82 36.49 46.82 36.29 42.15 C 36.70 42.42 37.51 42.96 37.92 43.22 C 38.96 42.46 39.86 41.53 40.66 40.52 C 38.88 39.16 36.46 38.17 36.12 35.65 C 37.37 36.83 38.55 37.16 39.69 36.62 C 40.19 37.18 40.73 37.71 41.28 38.22 C 42.41 38.98 43.59 39.67 44.69 40.48 C 43.36 44.97 38.68 48.27 33.96 47.73 C 33.79 47.97 33.47 48.45 33.31 48.68 C 32.94 48.72 32.21 48.78 31.84 48.81 C 26.73 48.20 21.51 45.56 19.53 40.54 C 19.87 40.08 20.54 39.16 20.88 38.70 C 21.45 38.55 22.59 38.24 23.16 38.09 C 25.18 37.68 26.88 36.44 27.84 34.61 C 28.53 32.23 26.27 30.49 24.36 29.65 C 21.60 28.12 18.39 28.71 15.39 28.48 C 15.42 27.26 15.54 26.05 15.64 24.84 Z" />
</g>
<g id="#cb9d76ff">
<path fill="#cb9d76" opacity="1.00" d=" M 11.95 26.86 C 13.14 26.12 14.32 25.34 15.64 24.84 C 15.54 26.05 15.42 27.26 15.39 28.48 C 18.39 28.71 21.60 28.12 24.36 29.65 C 26.27 30.49 28.53 32.23 27.84 34.61 C 26.55 32.84 24.91 31.11 22.62 30.80 C 22.02 30.99 20.82 31.38 20.21 31.57 L 19.79 32.13 L 19.61 30.53 C 19.36 30.60 18.85 30.74 18.60 30.82 C 17.00 31.34 15.37 32.09 14.26 33.41 C 14.02 34.77 15.18 35.73 15.85 36.75 C 15.30 37.13 14.21 37.90 13.67 38.28 C 14.70 44.17 17.64 50.10 23.04 53.10 C 24.03 54.02 25.28 53.43 26.40 53.24 L 26.74 53.19 C 27.88 53.71 29.04 54.19 30.20 54.68 C 29.47 54.78 28.02 54.97 27.30 55.06 C 31.32 58.29 36.72 55.99 40.56 53.62 C 46.25 50.40 49.51 44.17 50.60 37.90 C 49.66 37.21 48.69 36.58 47.68 36.00 C 50.25 34.86 48.44 31.57 46.10 31.68 C 44.41 30.80 42.60 29.98 40.75 30.94 C 38.50 31.30 36.94 33.09 35.88 34.98 C 35.74 34.44 35.46 33.37 35.32 32.84 C 38.11 27.86 43.99 28.40 48.86 28.34 C 50.82 29.21 51.79 31.26 52.72 33.06 C 52.58 37.23 53.13 41.62 51.26 45.51 C 49.43 50.72 45.61 54.87 41.24 58.10 C 35.40 60.83 28.42 61.03 22.68 57.94 C 17.09 54.20 13.13 48.30 11.57 41.79 C 11.06 36.83 11.28 31.80 11.95 26.86 Z" />
</g>
<g id="#576fb2ff">
<path fill="#576fb2" opacity="1.00" d=" M 40.75 30.94 C 42.60 29.98 44.41 30.80 46.10 31.68 C 46.55 32.91 47.01 34.27 46.91 35.66 C 45.75 37.72 43.67 39.00 41.28 38.22 C 40.73 37.71 40.19 37.18 39.69 36.62 C 38.29 34.62 39.42 32.58 40.75 30.94 M 42.10 32.07 L 42.09 32.83 C 42.55 32.81 43.47 32.79 43.93 32.77 L 43.93 32.01 C 43.48 32.02 42.56 32.05 42.10 32.07 Z" />
</g>
<g id="#e2dfdbff">
<path fill="#e2dfdb" opacity="1.00" d=" M 14.26 33.41 C 15.37 32.09 17.00 31.34 18.60 30.82 C 18.20 31.37 17.40 32.49 17.00 33.05 C 16.99 33.82 16.99 35.35 16.98 36.12 L 16.86 37.12 L 15.85 36.75 C 15.18 35.73 14.02 34.77 14.26 33.41 Z" />
</g>
<g id="#53628bff">
<path fill="#53628b" opacity="1.00" d=" M 18.60 30.82 C 18.85 30.74 19.36 30.60 19.61 30.53 L 19.79 32.13 C 19.91 34.74 23.41 31.93 20.21 31.57 C 20.82 31.38 22.02 30.99 22.62 30.80 C 24.03 32.15 24.89 34.25 23.99 36.13 C 23.52 35.22 22.86 34.56 22.00 34.17 C 20.30 33.53 19.55 34.04 19.75 35.72 C 19.42 35.38 18.76 34.69 18.44 34.34 C 17.94 34.92 17.46 35.52 16.98 36.12 C 16.99 35.35 16.99 33.82 17.00 33.05 C 17.40 32.49 18.20 31.37 18.60 30.82 Z" />
</g>
<g id="#dfdfe1ff">
<path fill="#dfdfe1" opacity="1.00" d=" M 22.62 30.80 C 24.91 31.11 26.55 32.84 27.84 34.61 C 26.88 36.44 25.18 37.68 23.16 38.09 C 23.37 37.60 23.78 36.62 23.99 36.13 C 24.89 34.25 24.03 32.15 22.62 30.80 Z" />
</g>
<g id="#f0f1f3ff">
<path fill="#f0f1f3" opacity="1.00" d=" M 35.88 34.98 C 36.94 33.09 38.50 31.30 40.75 30.94 C 39.42 32.58 38.29 34.62 39.69 36.62 C 38.55 37.16 37.37 36.83 36.12 35.65 C 36.06 35.48 35.94 35.14 35.88 34.98 Z" />
</g>
<g id="#d3d5ddff">
<path fill="#d3d5dd" opacity="1.00" d=" M 19.79 32.13 L 20.21 31.57 C 23.41 31.93 19.91 34.74 19.79 32.13 Z" />
</g>
<g id="#dee2eaff">
<path fill="#dee2ea" opacity="1.00" d=" M 42.10 32.07 C 42.56 32.05 43.48 32.02 43.93 32.01 L 43.93 32.77 C 43.47 32.79 42.55 32.81 42.09 32.83 L 42.10 32.07 Z" />
</g>
<g id="#f3f4f7ff">
<path fill="#f3f4f7" opacity="1.00" d=" M 46.91 35.66 C 47.01 34.27 46.55 32.91 46.10 31.68 C 48.44 31.57 50.25 34.86 47.68 36.00 L 46.91 35.66 Z" />
</g>
<g id="#8295d1ff">
<path fill="#8295d1" opacity="1.00" d=" M 16.98 36.12 C 17.46 35.52 17.94 34.92 18.44 34.34 C 18.76 34.69 19.42 35.38 19.75 35.72 C 21.17 36.37 21.92 35.85 22.00 34.17 C 22.86 34.56 23.52 35.22 23.99 36.13 C 23.78 36.62 23.37 37.60 23.16 38.09 C 22.59 38.24 21.45 38.55 20.88 38.70 C 19.45 38.42 18.15 37.77 16.86 37.12 L 16.98 36.12 Z" />
</g>
<g id="#171d30ff">
<path fill="#171d30" opacity="1.00" d=" M 19.75 35.72 C 19.55 34.04 20.30 33.53 22.00 34.17 C 21.92 35.85 21.17 36.37 19.75 35.72 Z" />
</g>
<g id="#edbc95ff">
<path fill="#edbc95" opacity="1.00" d=" M 41.28 38.22 C 43.67 39.00 45.75 37.72 46.91 35.66 L 47.68 36.00 C 48.69 36.58 49.66 37.21 50.60 37.90 C 49.51 44.17 46.25 50.40 40.56 53.62 C 36.72 55.99 31.32 58.29 27.30 55.06 C 28.02 54.97 29.47 54.78 30.20 54.68 C 32.87 55.37 35.60 54.30 37.88 52.96 C 38.97 52.32 39.90 51.46 40.87 50.67 L 41.71 49.96 C 38.93 49.30 35.93 48.41 33.31 48.68 C 33.47 48.45 33.79 47.97 33.96 47.73 C 38.68 48.27 43.36 44.97 44.69 40.48 C 43.59 39.67 42.41 38.98 41.28 38.22 Z" />
</g>
<g id="#f1bf98ff">
<path fill="#f1bf98" opacity="1.00" d=" M 13.67 38.28 C 14.21 37.90 15.30 37.13 15.85 36.75 L 16.86 37.12 C 18.15 37.77 19.45 38.42 20.88 38.70 C 20.54 39.16 19.87 40.08 19.53 40.54 C 21.51 45.56 26.73 48.20 31.84 48.81 C 28.62 47.79 25.44 49.46 22.26 49.93 C 22.51 50.14 23.01 50.57 23.26 50.78 C 24.28 51.63 25.33 52.45 26.40 53.24 C 25.28 53.43 24.03 54.02 23.04 53.10 C 17.64 50.10 14.70 44.17 13.67 38.28 Z" />
</g>
<g id="#a0835fff">
<path fill="#a0835f" opacity="1.00" d=" M 27.70 42.17 C 30.56 42.57 33.42 42.62 36.29 42.15 C 36.49 46.82 27.54 46.82 27.70 42.17 Z" />
</g>
<g id="#921e28ff">
<path fill="#921e28" opacity="1.00" d=" M 22.26 49.93 C 25.44 49.46 28.62 47.79 31.84 48.81 C 32.21 48.78 32.94 48.72 33.31 48.68 C 35.93 48.41 38.93 49.30 41.71 49.96 L 40.87 50.67 C 35.02 51.28 29.12 51.13 23.26 50.78 C 23.01 50.57 22.51 50.14 22.26 49.93 Z" />
</g>
<g id="#d82a40ff">
<path fill="#d82a40" opacity="1.00" d=" M 23.26 50.78 C 29.12 51.13 35.02 51.28 40.87 50.67 C 39.90 51.46 38.97 52.32 37.88 52.96 C 34.20 52.45 30.34 52.01 26.74 53.19 L 26.40 53.24 C 25.33 52.45 24.28 51.63 23.26 50.78 Z" />
</g>
<g id="#bd2f30ff">
<path fill="#bd2f30" opacity="1.00" d=" M 26.74 53.19 C 30.34 52.01 34.20 52.45 37.88 52.96 C 35.60 54.30 32.87 55.37 30.20 54.68 C 29.04 54.19 27.88 53.71 26.74 53.19 Z" />
</g>
</svg>
