<?xml version="1.0" encoding="UTF-8" ?>
<!DOCTYPE svg PUBLIC "-//W3C//DTD SVG 1.1//EN" "http://www.w3.org/Graphics/SVG/1.1/DTD/svg11.dtd">
<svg width="64pt" height="64pt" viewBox="0 0 64 64" version="1.1" xmlns="http://www.w3.org/2000/svg">
<g id="#363636e1">
<path fill="#363636" opacity="0.88" d=" M 22.34 6.79 C 26.60 0.44 37.71 0.67 42.09 6.95 C 38.23 7.50 35.40 4.74 31.98 3.59 C 28.72 4.69 26.05 7.52 22.34 6.79 Z" />
</g>
<g id="#616161ff">
<path fill="#616161" opacity="1.00" d=" M 22.34 6.79 C 26.05 7.52 28.72 4.69 31.98 3.59 C 35.40 4.74 38.23 7.50 42.09 6.95 L 42.25 7.32 C 39.87 7.81 37.23 7.56 35.08 8.86 C 34.05 9.52 33.09 10.27 32.04 10.88 C 30.05 10.09 28.31 7.94 25.99 8.55 C 20.99 9.95 15.28 10.43 11.49 14.39 C 7.50 17.71 5.40 23.10 6.56 28.22 C 7.69 30.86 10.74 30.60 13.10 30.47 C 10.58 34.21 10.91 38.82 11.44 43.07 C 5.43 38.80 3.12 31.08 3.12 24.00 C 3.95 16.63 9.94 10.15 16.99 8.01 C 18.69 7.23 20.68 7.68 22.34 6.79 Z" />
</g>
<g id="#6d6d6dff">
<path fill="#6d6d6d" opacity="1.00" d=" M 35.08 8.86 C 37.23 7.56 39.87 7.81 42.25 7.32 L 42.68 7.28 C 45.58 9.70 49.76 9.74 52.47 12.45 C 58.05 16.99 61.87 24.83 59.04 31.92 C 58.14 35.70 53.52 37.02 53.22 41.08 C 53.30 37.17 52.90 33.11 50.55 29.83 C 52.45 29.66 54.45 29.98 56.26 29.28 C 59.31 24.66 56.77 18.49 53.00 15.08 C 48.51 10.05 41.36 9.49 35.08 8.86 Z" />
</g>
<g id="#4b4b4bff">
<path fill="#4b4b4b" opacity="1.00" d=" M 42.68 7.28 C 49.09 7.35 54.96 11.32 58.36 16.60 C 62.04 22.58 62.92 30.29 60.46 36.89 C 58.66 42.03 55.34 46.52 51.49 50.33 C 51.26 49.89 50.80 49.02 50.57 48.58 C 51.80 46.22 52.57 43.66 53.22 41.08 C 53.52 37.02 58.14 35.70 59.04 31.92 C 61.87 24.83 58.05 16.99 52.47 12.45 C 49.76 9.74 45.58 9.70 42.68 7.28 Z" />
<path fill="#4b4b4b" opacity="1.00" d=" M 2.59 32.85 C 2.27 30.00 1.75 26.52 3.12 24.00 C 3.12 31.08 5.43 38.80 11.44 43.07 C 11.49 43.32 11.58 43.81 11.63 44.05 C 12.13 47.25 13.75 50.09 14.97 53.05 C 9.59 47.24 3.85 40.99 2.59 32.85 Z" />
<path fill="#4b4b4b" opacity="1.00" d=" M 18.67 30.84 C 19.84 30.60 21.05 30.65 22.23 30.82 C 23.79 32.18 24.76 34.26 23.87 36.30 C 23.56 35.22 23.19 34.16 22.75 33.13 C 22.39 34.73 21.36 37.12 19.31 35.93 C 19.04 35.19 18.52 33.72 18.26 32.99 C 17.85 34.17 17.44 35.35 17.04 36.52 C 16.37 34.39 16.98 32.28 18.67 30.84 M 19.47 32.08 L 19.37 33.11 C 19.86 33.10 20.85 33.07 21.34 33.06 L 21.36 32.07 L 20.41 31.52 L 19.47 32.08 Z" />
<path fill="#4b4b4b" opacity="1.00" d=" M 39.31 31.67 C 41.17 30.16 43.74 30.69 45.81 31.41 C 46.81 32.94 47.15 34.61 46.83 36.44 C 46.28 35.44 45.71 34.45 45.13 33.47 C 44.64 35.12 44.20 37.05 42.04 36.03 C 41.88 35.23 41.57 33.63 41.42 32.83 C 40.64 33.99 40.28 35.29 40.35 36.71 L 40.04 37.02 C 38.74 35.39 40.52 32.82 39.31 31.67 M 42.40 32.03 L 42.30 33.07 C 42.78 33.02 43.73 32.94 44.20 32.89 L 44.27 31.98 L 43.34 31.51 L 42.40 32.03 Z" />
</g>
<g id="#8a8a8aff">
<path fill="#8a8a8a" opacity="1.00" d=" M 11.49 14.39 C 15.28 10.43 20.99 9.95 25.99 8.55 C 28.31 7.94 30.05 10.09 32.04 10.88 C 33.09 10.27 34.05 9.52 35.08 8.86 C 41.36 9.49 48.51 10.05 53.00 15.08 C 56.77 18.49 59.31 24.66 56.26 29.28 C 54.45 29.98 52.45 29.66 50.55 29.83 C 49.84 29.37 49.14 28.89 48.43 28.42 C 47.18 27.58 46.00 26.61 44.61 26.00 C 40.52 23.69 34.97 24.06 32.04 19.91 C 29.27 24.05 23.84 23.52 19.93 25.88 C 18.49 26.68 17.11 27.58 15.73 28.47 C 14.81 29.08 13.97 29.80 13.10 30.47 C 10.74 30.60 7.69 30.86 6.56 28.22 C 5.40 23.10 7.50 17.71 11.49 14.39 M 10.59 24.33 C 14.03 26.10 17.65 24.10 20.90 22.84 C 23.66 21.73 27.51 19.77 26.78 16.16 C 26.06 12.89 21.71 13.04 19.07 13.26 C 14.32 14.42 8.80 18.87 10.59 24.33 M 40.30 13.38 C 38.77 13.86 36.75 14.87 37.27 16.83 C 37.93 21.67 43.41 23.24 47.37 24.55 C 49.32 24.54 52.50 25.72 53.66 23.69 C 54.80 16.81 46.41 11.46 40.30 13.38 Z" />
</g>
<g id="#a7a7a7ff">
<path fill="#a7a7a7" opacity="1.00" d=" M 10.59 24.33 C 8.80 18.87 14.32 14.42 19.07 13.26 C 21.71 13.04 26.06 12.89 26.78 16.16 C 27.51 19.77 23.66 21.73 20.90 22.84 C 17.65 24.10 14.03 26.10 10.59 24.33 Z" />
<path fill="#a7a7a7" opacity="1.00" d=" M 40.30 13.38 C 46.41 11.46 54.80 16.81 53.66 23.69 C 52.50 25.72 49.32 24.54 47.37 24.55 C 43.41 23.24 37.93 21.67 37.27 16.83 C 36.75 14.87 38.77 13.86 40.30 13.38 Z" />
</g>
<g id="#fadbc1ff">
<path fill="#fadbc1" opacity="1.00" d=" M 19.93 25.88 C 23.84 23.52 29.27 24.05 32.04 19.91 C 34.97 24.06 40.52 23.69 44.61 26.00 C 41.36 28.20 35.79 28.39 34.90 32.97 C 33.99 36.21 37.29 38.11 39.68 39.35 C 40.45 39.90 41.21 40.47 41.95 41.06 C 40.83 42.15 39.45 43.02 37.94 43.44 C 37.41 43.06 36.89 42.67 36.38 42.26 C 33.49 42.74 30.59 42.63 27.70 42.30 C 27.15 42.69 26.60 43.08 26.04 43.45 C 23.84 43.13 23.30 41.16 23.44 39.24 C 23.09 39.19 22.38 39.09 22.02 39.05 C 22.33 38.90 22.96 38.61 23.27 38.46 C 25.39 37.61 27.17 36.11 27.56 33.75 L 27.68 32.00 C 24.57 28.66 20.03 28.12 15.73 28.47 C 17.11 27.58 18.49 26.68 19.93 25.88 Z" />
</g>
<g id="#dfc3a8ff">
<path fill="#dfc3a8" opacity="1.00" d=" M 44.61 26.00 C 46.00 26.61 47.18 27.58 48.43 28.42 C 45.43 30.42 41.40 28.28 38.47 30.49 C 37.26 31.27 35.71 32.56 36.43 34.17 C 36.80 35.75 37.87 36.98 39.24 37.79 C 39.44 37.60 39.84 37.21 40.04 37.02 L 40.35 36.71 C 40.82 37.33 41.76 38.58 42.23 39.20 C 41.60 39.24 40.32 39.32 39.68 39.35 C 37.29 38.11 33.99 36.21 34.90 32.97 C 35.79 28.39 41.36 28.20 44.61 26.00 Z" />
</g>
<g id="#c69468ff">
<path fill="#c69468" opacity="1.00" d=" M 13.10 30.47 C 13.97 29.80 14.81 29.08 15.73 28.47 C 20.03 28.12 24.57 28.66 27.68 32.00 L 27.56 33.75 C 25.94 32.58 24.42 30.77 22.23 30.82 C 21.05 30.65 19.84 30.60 18.67 30.84 C 16.86 31.00 15.24 32.00 13.98 33.25 C 13.40 34.51 14.74 35.54 15.17 36.63 C 14.57 36.56 13.37 36.41 12.78 36.34 C 12.38 41.58 15.07 46.70 18.27 50.71 C 19.10 50.34 19.88 49.89 20.70 49.51 C 20.70 50.68 20.73 51.85 20.78 53.03 C 26.71 58.86 37.40 59.16 43.17 52.96 C 43.27 51.79 43.34 50.62 43.38 49.45 C 44.23 49.88 45.05 50.35 45.92 50.75 C 49.43 46.19 53.43 39.66 49.92 34.05 C 49.14 32.61 47.63 31.10 45.81 31.41 C 43.74 30.69 41.17 30.16 39.31 31.67 C 38.08 32.17 37.13 33.01 36.43 34.17 C 35.71 32.56 37.26 31.27 38.47 30.49 C 41.40 28.28 45.43 30.42 48.43 28.42 C 49.14 28.89 49.84 29.37 50.55 29.83 C 52.90 33.11 53.30 37.17 53.22 41.08 C 52.57 43.66 51.80 46.22 50.57 48.58 C 48.66 51.90 45.75 54.40 42.86 56.83 C 36.00 62.14 24.64 61.61 19.24 54.51 C 15.45 52.13 13.32 48.05 11.63 44.05 C 11.58 43.81 11.49 43.32 11.44 43.07 C 10.91 38.82 10.58 34.21 13.10 30.47 Z" />
</g>
<g id="#e0dddaff">
<path fill="#e0ddda" opacity="1.00" d=" M 13.98 33.25 C 15.24 32.00 16.86 31.00 18.67 30.84 C 16.98 32.28 16.37 34.39 17.04 36.52 L 16.83 37.00 C 16.41 36.91 15.58 36.72 15.17 36.63 C 14.74 35.54 13.40 34.51 13.98 33.25 Z" />
</g>
<g id="#e1e0dfff">
<path fill="#e1e0df" opacity="1.00" d=" M 22.23 30.82 C 24.42 30.77 25.94 32.58 27.56 33.75 C 27.17 36.11 25.39 37.61 23.27 38.46 C 23.42 37.92 23.72 36.84 23.87 36.30 C 24.76 34.26 23.79 32.18 22.23 30.82 Z" />
</g>
<g id="#e0dbd6ff">
<path fill="#e0dbd6" opacity="1.00" d=" M 19.47 32.08 L 20.41 31.52 L 21.36 32.07 L 21.34 33.06 C 20.85 33.07 19.86 33.10 19.37 33.11 L 19.47 32.08 Z" />
</g>
<g id="#f2f2f3ff">
<path fill="#f2f2f3" opacity="1.00" d=" M 36.43 34.17 C 37.13 33.01 38.08 32.17 39.31 31.67 C 40.52 32.82 38.74 35.39 40.04 37.02 C 39.84 37.21 39.44 37.60 39.24 37.79 C 37.87 36.98 36.80 35.75 36.43 34.17 Z" />
</g>
<g id="#e7e2ddff">
<path fill="#e7e2dd" opacity="1.00" d=" M 42.40 32.03 L 43.34 31.51 L 44.27 31.98 L 44.20 32.89 C 43.73 32.94 42.78 33.02 42.30 33.07 L 42.40 32.03 Z" />
</g>
<g id="#e9e9e8ff">
<path fill="#e9e9e8" opacity="1.00" d=" M 45.81 31.41 C 47.63 31.10 49.14 32.61 49.92 34.05 C 49.07 35.13 48.21 36.20 47.26 37.19 L 46.83 36.44 C 47.15 34.61 46.81 32.94 45.81 31.41 Z" />
</g>
<g id="#e6b790ff">
<path fill="#e6b790" opacity="1.00" d=" M 17.04 36.52 C 17.44 35.35 17.85 34.17 18.26 32.99 C 18.52 33.72 19.04 35.19 19.31 35.93 C 21.36 37.12 22.39 34.73 22.75 33.13 C 23.19 34.16 23.56 35.22 23.87 36.30 C 23.72 36.84 23.42 37.92 23.27 38.46 C 22.96 38.61 22.33 38.90 22.02 39.05 C 20.07 39.18 18.11 39.28 16.16 39.49 C 17.08 42.56 18.47 46.63 22.29 46.67 C 23.12 47.37 23.55 48.92 24.87 48.74 C 29.94 48.58 35.01 48.83 40.07 48.71 C 41.39 48.74 41.34 47.31 41.78 46.45 C 42.69 46.38 43.60 46.44 44.51 46.36 C 46.39 44.31 47.64 41.77 48.73 39.24 C 46.57 39.14 44.40 39.18 42.23 39.20 C 41.76 38.58 40.82 37.33 40.35 36.71 C 40.28 35.29 40.64 33.99 41.42 32.83 C 41.57 33.63 41.88 35.23 42.04 36.03 C 44.20 37.05 44.64 35.12 45.13 33.47 C 45.71 34.45 46.28 35.44 46.83 36.44 L 47.26 37.19 C 48.21 36.20 49.07 35.13 49.92 34.05 C 53.43 39.66 49.43 46.19 45.92 50.75 C 45.05 50.35 44.23 49.88 43.38 49.45 C 43.34 50.62 43.27 51.79 43.17 52.96 C 37.40 59.16 26.71 58.86 20.78 53.03 C 20.73 51.85 20.70 50.68 20.70 49.51 C 19.88 49.89 19.10 50.34 18.27 50.71 C 15.07 46.70 12.38 41.58 12.78 36.34 C 13.37 36.41 14.57 36.56 15.17 36.63 C 15.58 36.72 16.41 36.91 16.83 37.00 L 17.04 36.52 M 22.85 50.23 C 26.45 56.73 37.54 56.74 41.26 50.23 C 35.26 48.75 28.84 48.67 22.85 50.23 Z" />
</g>
<g id="#f5caa5ff">
<path fill="#f5caa5" opacity="1.00" d=" M 16.16 39.49 C 18.11 39.28 20.07 39.18 22.02 39.05 C 22.38 39.09 23.09 39.19 23.44 39.24 C 23.30 41.16 23.84 43.13 26.04 43.45 C 26.60 43.08 27.15 42.69 27.70 42.30 C 27.65 47.07 36.51 47.00 36.38 42.26 C 36.89 42.67 37.41 43.06 37.94 43.44 C 39.45 43.02 40.83 42.15 41.95 41.06 C 41.21 40.47 40.45 39.90 39.68 39.35 C 40.32 39.32 41.60 39.24 42.23 39.20 C 44.40 39.18 46.57 39.14 48.73 39.24 C 47.64 41.77 46.39 44.31 44.51 46.36 C 43.60 46.44 42.69 46.38 41.78 46.45 C 41.34 47.31 41.39 48.74 40.07 48.71 C 35.01 48.83 29.94 48.58 24.87 48.74 C 23.55 48.92 23.12 47.37 22.29 46.67 C 18.47 46.63 17.08 42.56 16.16 39.49 Z" />
</g>
<g id="#9d7f5fff">
<path fill="#9d7f5f" opacity="1.00" d=" M 27.70 42.30 C 30.59 42.63 33.49 42.74 36.38 42.26 C 36.51 47.00 27.65 47.07 27.70 42.30 Z" />
</g>
<g id="#6b472ede">
<path fill="#6b472e" opacity="0.87" d=" M 11.63 44.05 C 13.32 48.05 15.45 52.13 19.24 54.51 C 24.64 61.61 36.00 62.14 42.86 56.83 C 45.75 54.40 48.66 51.90 50.57 48.58 C 50.80 49.02 51.26 49.89 51.49 50.33 C 47.77 55.55 42.65 60.25 36.13 61.40 C 28.22 63.15 19.63 59.55 14.97 53.05 C 13.75 50.09 12.13 47.25 11.63 44.05 Z" />
</g>
<g id="#fd767fff">
<path fill="#fd767f" opacity="1.00" d=" M 22.85 50.23 C 28.84 48.67 35.26 48.75 41.26 50.23 C 37.54 56.74 26.45 56.73 22.85 50.23 Z" />
</g>
</svg>
