<?xml version="1.0" encoding="UTF-8" ?>
<!DOCTYPE svg PUBLIC "-//W3C//DTD SVG 1.1//EN" "http://www.w3.org/Graphics/SVG/1.1/DTD/svg11.dtd">
<svg width="64pt" height="64pt" viewBox="0 0 64 64" version="1.1" xmlns="http://www.w3.org/2000/svg">
<g id="#9b6c51ff">
<path fill="#9b6c51" opacity="1.00" d=" M 16.11 14.63 C 24.81 7.12 39.24 7.17 47.96 14.64 C 49.13 16.00 50.27 17.39 51.36 18.82 C 53.05 20.97 54.47 23.40 54.81 26.16 C 54.90 26.72 55.10 27.82 55.19 28.38 C 53.60 24.71 51.97 20.84 48.81 18.22 C 43.60 13.87 36.86 10.86 29.95 11.55 C 24.70 12.04 19.87 14.61 15.72 17.74 C 12.28 20.32 10.60 24.42 8.84 28.19 C 8.93 27.67 9.11 26.62 9.20 26.10 C 9.56 23.25 11.11 20.79 12.84 18.58 C 13.90 17.23 14.97 15.90 16.11 14.63 Z" />
<path fill="#9b6c51" opacity="1.00" d=" M 58.40 35.51 C 59.12 35.09 60.56 34.25 61.27 33.83 C 61.70 36.03 61.96 38.73 59.85 40.22 C 59.31 38.67 59.03 37.04 58.40 35.51 Z" />
</g>
<g id="#dcad87ff">
<path fill="#dcad87" opacity="1.00" d=" M 15.72 17.74 C 19.87 14.61 24.70 12.04 29.95 11.55 C 36.86 10.86 43.60 13.87 48.81 18.22 C 51.97 20.84 53.60 24.71 55.19 28.38 C 55.50 29.83 55.88 31.26 56.27 32.69 C 57.47 39.89 54.02 47.10 49.45 52.49 C 44.68 56.66 38.60 60.05 32.05 59.62 C 18.09 60.25 5.88 46.46 7.68 32.71 C 8.12 31.22 8.45 29.70 8.84 28.19 C 10.60 24.42 12.28 20.32 15.72 17.74 M 25.39 15.65 C 19.16 17.01 14.74 22.52 12.60 28.25 C 14.11 28.72 15.62 29.34 17.23 29.30 C 15.33 30.65 13.53 32.25 12.98 34.63 L 13.53 34.09 C 14.07 34.83 15.16 36.30 15.71 37.04 C 14.53 36.71 13.34 36.42 12.13 36.18 C 11.96 41.60 15.97 45.66 19.54 49.20 C 19.83 49.14 20.39 49.03 20.68 48.97 C 25.57 56.61 37.69 56.54 42.97 49.34 L 43.31 49.47 C 43.05 48.88 42.79 48.28 42.55 47.68 C 45.64 45.84 47.85 42.92 49.57 39.82 C 48.70 37.74 46.54 38.49 44.80 38.66 C 45.73 38.44 46.66 38.19 47.57 37.91 L 47.50 37.40 C 48.33 36.19 49.17 34.98 50.01 33.76 C 50.00 33.01 49.97 31.51 49.96 30.75 C 50.57 30.13 51.15 29.48 51.71 28.81 C 49.68 22.52 44.59 16.85 37.94 15.49 C 33.79 14.86 29.51 14.82 25.39 15.65 Z" />
</g>
<g id="#676665ff">
<path fill="#676665" opacity="1.00" d=" M 4.24 19.53 C 6.66 15.49 11.68 14.18 16.11 14.63 C 14.97 15.90 13.90 17.23 12.84 18.58 C 11.32 17.72 9.56 16.67 7.82 17.67 C 4.42 19.90 3.21 24.96 5.91 28.21 C 7.00 27.49 8.11 26.80 9.20 26.10 C 9.11 26.62 8.93 27.67 8.84 28.19 C 8.45 29.70 8.12 31.22 7.68 32.71 C 6.42 35.19 4.84 37.48 3.26 39.76 C 1.84 37.26 2.53 34.55 3.29 31.99 C 2.23 27.90 1.66 23.21 4.24 19.53 Z" />
<path fill="#676665" opacity="1.00" d=" M 47.96 14.64 C 52.29 14.21 57.22 15.45 59.64 19.37 C 62.37 23.09 61.76 27.94 60.71 32.15 C 60.85 32.57 61.13 33.41 61.27 33.83 C 60.56 34.25 59.12 35.09 58.40 35.51 C 57.71 34.56 56.97 33.64 56.27 32.69 C 55.88 31.26 55.50 29.83 55.19 28.38 C 55.10 27.82 54.90 26.72 54.81 26.16 C 55.84 26.77 56.86 27.38 57.89 27.99 C 58.34 27.53 59.22 26.59 59.66 26.13 C 60.07 21.96 58.10 17.15 53.34 16.99 C 52.85 17.45 51.86 18.36 51.36 18.82 C 50.27 17.39 49.13 16.00 47.96 14.64 Z" />
</g>
<g id="#f5ceadff">
<path fill="#f5cead" opacity="1.00" d=" M 25.39 15.65 C 29.51 14.82 33.79 14.86 37.94 15.49 C 44.59 16.85 49.68 22.52 51.71 28.81 C 51.15 29.48 50.57 30.13 49.96 30.75 C 45.20 28.16 38.83 28.24 35.37 32.93 C 35.51 33.28 35.78 33.97 35.92 34.32 C 36.92 36.01 38.52 37.09 40.33 37.76 L 40.40 37.81 C 40.84 38.14 41.72 38.78 42.16 39.11 C 42.82 39.00 44.14 38.77 44.80 38.66 C 46.54 38.49 48.70 37.74 49.57 39.82 C 47.85 42.92 45.64 45.84 42.55 47.68 C 42.79 48.28 43.05 48.88 43.31 49.47 L 42.97 49.34 C 40.45 48.16 37.65 49.21 35.00 49.18 C 30.22 49.68 25.45 48.48 20.68 48.97 C 20.39 49.03 19.83 49.14 19.54 49.20 C 15.97 45.66 11.96 41.60 12.13 36.18 C 13.34 36.42 14.53 36.71 15.71 37.04 C 15.90 37.16 16.27 37.39 16.45 37.50 C 18.45 39.12 21.00 39.16 23.39 38.53 C 24.92 37.47 26.40 36.34 27.89 35.21 C 27.75 34.24 27.64 33.27 27.54 32.30 C 25.03 29.04 20.93 29.26 17.23 29.30 C 15.62 29.34 14.11 28.72 12.60 28.25 C 14.74 22.52 19.16 17.01 25.39 15.65 M 20.29 24.95 C 23.08 27.41 27.25 28.54 28.99 32.02 C 30.61 35.74 26.55 38.12 24.34 40.36 C 25.00 41.42 25.65 42.49 26.30 43.56 C 27.18 42.67 27.41 40.69 28.96 40.81 C 31.98 40.75 36.44 39.60 37.54 43.43 C 38.51 42.40 39.50 41.39 40.48 40.36 C 38.20 38.65 33.89 37.52 34.50 33.95 C 34.81 28.94 40.42 27.68 43.68 25.01 C 40.41 22.32 35.96 22.75 32.00 22.58 C 28.03 22.73 23.59 22.31 20.29 24.95 M 28.11 42.11 C 28.17 42.70 28.30 43.87 28.36 44.46 C 30.65 45.77 33.35 45.70 35.65 44.45 C 35.71 43.87 35.82 42.70 35.88 42.11 C 33.60 43.98 30.39 43.97 28.11 42.11 Z" />
</g>
<g id="#9c9c9cff">
<path fill="#9c9c9c" opacity="1.00" d=" M 7.82 17.67 C 9.56 16.67 11.32 17.72 12.84 18.58 C 11.11 20.79 9.56 23.25 9.20 26.10 C 8.11 26.80 7.00 27.49 5.91 28.21 C 3.21 24.96 4.42 19.90 7.82 17.67 Z" />
<path fill="#9c9c9c" opacity="1.00" d=" M 53.34 16.99 C 58.10 17.15 60.07 21.96 59.66 26.13 C 59.22 26.59 58.34 27.53 57.89 27.99 C 56.86 27.38 55.84 26.77 54.81 26.16 C 54.47 23.40 53.05 20.97 51.36 18.82 C 51.86 18.36 52.85 17.45 53.34 16.99 Z" />
</g>
<g id="#fadfc6ff">
<path fill="#fadfc6" opacity="1.00" d=" M 20.29 24.95 C 23.59 22.31 28.03 22.73 32.00 22.58 C 35.96 22.75 40.41 22.32 43.68 25.01 C 40.42 27.68 34.81 28.94 34.50 33.95 C 33.89 37.52 38.20 38.65 40.48 40.36 C 39.50 41.39 38.51 42.40 37.54 43.43 C 36.44 39.60 31.98 40.75 28.96 40.81 C 27.41 40.69 27.18 42.67 26.30 43.56 C 25.65 42.49 25.00 41.42 24.34 40.36 C 26.55 38.12 30.61 35.74 28.99 32.02 C 27.25 28.54 23.08 27.41 20.29 24.95 Z" />
<path fill="#fadfc6" opacity="1.00" d=" M 42.13 31.72 C 44.40 31.02 44.06 34.21 42.08 32.62 L 42.13 31.72 Z" />
</g>
<g id="#9a988dff">
<path fill="#9a988d" opacity="1.00" d=" M 17.23 29.30 C 20.93 29.26 25.03 29.04 27.54 32.30 C 27.64 33.27 27.75 34.24 27.89 35.21 C 26.57 33.40 25.00 31.81 23.27 30.41 C 23.74 32.32 24.31 34.28 23.92 36.27 C 23.64 35.86 23.08 35.03 22.80 34.62 C 22.33 34.97 21.86 35.30 21.38 35.63 C 21.48 33.95 20.77 33.50 19.27 34.26 C 18.37 34.96 17.50 35.71 16.67 36.50 C 16.90 34.55 17.10 32.59 17.28 30.64 C 15.99 31.75 14.79 32.96 13.53 34.09 L 12.98 34.63 C 13.53 32.25 15.33 30.65 17.23 29.30 M 18.60 32.78 L 19.17 32.82 C 21.19 34.61 21.21 30.38 19.18 32.18 C 19.03 32.33 18.74 32.63 18.60 32.78 Z" />
</g>
<g id="#b1997dff">
<path fill="#b1997d" opacity="1.00" d=" M 35.37 32.93 C 38.83 28.24 45.20 28.16 49.96 30.75 C 49.97 31.51 50.00 33.01 50.01 33.76 C 48.94 32.93 47.89 32.08 46.79 31.31 C 46.52 31.45 45.98 31.74 45.71 31.89 L 45.53 31.99 C 45.63 32.05 45.81 32.18 45.90 32.25 C 46.69 33.46 47.16 34.80 47.30 36.26 C 46.17 36.20 45.05 36.10 43.92 36.05 C 45.26 34.45 42.24 32.53 41.82 34.82 C 41.47 35.57 40.76 37.06 40.40 37.81 L 40.33 37.76 C 39.94 36.90 39.16 35.18 38.76 34.32 C 38.97 33.97 39.38 33.29 39.58 32.95 C 39.80 33.13 40.24 33.50 40.46 33.69 C 40.86 33.42 41.67 32.89 42.08 32.62 C 44.06 34.21 44.40 31.02 42.13 31.72 L 41.20 30.95 L 40.22 30.62 C 39.99 30.92 39.52 31.53 39.29 31.83 C 38.15 32.65 37.03 33.47 35.92 34.32 C 35.78 33.97 35.51 33.28 35.37 32.93 Z" />
</g>
<g id="#e5e3e1ff">
<path fill="#e5e3e1" opacity="1.00" d=" M 23.27 30.41 C 25.00 31.81 26.57 33.40 27.89 35.21 C 26.40 36.34 24.92 37.47 23.39 38.53 C 23.53 37.97 23.79 36.83 23.92 36.27 C 24.31 34.28 23.74 32.32 23.27 30.41 Z" />
</g>
<g id="#e7e5e3ff">
<path fill="#e7e5e3" opacity="1.00" d=" M 45.71 31.89 C 45.98 31.74 46.52 31.45 46.79 31.31 C 47.89 32.08 48.94 32.93 50.01 33.76 C 49.17 34.98 48.33 36.19 47.50 37.40 C 47.45 37.12 47.35 36.54 47.30 36.26 C 47.16 34.80 46.69 33.46 45.90 32.25 L 45.71 31.89 Z" />
</g>
<g id="#e4e1deff">
<path fill="#e4e1de" opacity="1.00" d=" M 13.53 34.09 C 14.79 32.96 15.99 31.75 17.28 30.64 C 17.10 32.59 16.90 34.55 16.67 36.50 L 16.45 37.50 C 16.27 37.39 15.90 37.16 15.71 37.04 C 15.16 36.30 14.07 34.83 13.53 34.09 Z" />
</g>
<g id="#4d3c31ff">
<path fill="#4d3c31" opacity="1.00" d=" M 18.60 32.78 C 18.74 32.63 19.03 32.33 19.18 32.18 L 19.17 32.82 L 18.60 32.78 Z" />
</g>
<g id="#e1dcd5ff">
<path fill="#e1dcd5" opacity="1.00" d=" M 19.18 32.18 C 21.21 30.38 21.19 34.61 19.17 32.82 L 19.18 32.18 Z" />
</g>
<g id="#f2f2f3ff">
<path fill="#f2f2f3" opacity="1.00" d=" M 35.92 34.32 C 37.03 33.47 38.15 32.65 39.29 31.83 C 39.36 32.11 39.51 32.67 39.58 32.95 C 39.38 33.29 38.97 33.97 38.76 34.32 C 39.16 35.18 39.94 36.90 40.33 37.76 C 38.52 37.09 36.92 36.01 35.92 34.32 Z" />
</g>
<g id="#71492cff">
<path fill="#71492c" opacity="1.00" d=" M 3.26 39.76 C 4.84 37.48 6.42 35.19 7.68 32.71 C 5.88 46.46 18.09 60.25 32.05 59.62 C 38.60 60.05 44.68 56.66 49.45 52.49 C 54.02 47.10 57.47 39.89 56.27 32.69 C 56.97 33.64 57.71 34.56 58.40 35.51 C 59.03 37.04 59.31 38.67 59.85 40.22 C 59.88 40.36 59.93 40.64 59.96 40.78 C 59.14 41.31 58.32 41.83 57.50 42.35 C 55.23 49.89 49.71 56.46 42.39 59.52 C 33.39 63.50 22.19 61.81 14.83 55.27 C 10.79 51.95 8.16 47.29 6.46 42.40 C 5.39 41.53 4.30 40.67 3.26 39.76 Z" />
<path fill="#71492c" opacity="1.00" d=" M 28.11 42.11 C 30.39 43.97 33.60 43.98 35.88 42.11 C 35.82 42.70 35.71 43.87 35.65 44.45 C 33.35 45.70 30.65 45.77 28.36 44.46 C 28.30 43.87 28.17 42.70 28.11 42.11 Z" />
</g>
<g id="#c5ab91ff">
<path fill="#c5ab91" opacity="1.00" d=" M 16.67 36.50 C 17.50 35.71 18.37 34.96 19.27 34.26 C 19.20 35.95 19.91 36.41 21.38 35.63 C 21.86 35.30 22.33 34.97 22.80 34.62 C 23.08 35.03 23.64 35.86 23.92 36.27 C 23.79 36.83 23.53 37.97 23.39 38.53 C 21.00 39.16 18.45 39.12 16.45 37.50 L 16.67 36.50 Z" />
</g>
<g id="#362720ff">
<path fill="#362720" opacity="1.00" d=" M 19.27 34.26 C 20.77 33.50 21.48 33.95 21.38 35.63 C 19.91 36.41 19.20 35.95 19.27 34.26 Z" />
</g>
<g id="#180d0aff">
<path fill="#180d0a" opacity="1.00" d=" M 41.82 34.82 C 42.24 32.53 45.26 34.45 43.92 36.05 C 43.40 35.74 42.35 35.13 41.82 34.82 Z" />
</g>
<g id="#c9b299ff">
<path fill="#c9b299" opacity="1.00" d=" M 40.40 37.81 C 40.76 37.06 41.47 35.57 41.82 34.82 C 42.35 35.13 43.40 35.74 43.92 36.05 C 45.05 36.10 46.17 36.20 47.30 36.26 C 47.35 36.54 47.45 37.12 47.50 37.40 L 47.57 37.91 C 46.66 38.19 45.73 38.44 44.80 38.66 C 44.14 38.77 42.82 39.00 42.16 39.11 C 41.72 38.78 40.84 38.14 40.40 37.81 Z" />
</g>
<g id="#2d0105ff">
<path fill="#2d0105" opacity="1.00" d=" M 20.68 48.97 C 25.45 48.48 30.22 49.68 35.00 49.18 C 37.65 49.21 40.45 48.16 42.97 49.34 C 37.69 56.54 25.57 56.61 20.68 48.97 Z" />
</g>
</svg>
