<?xml version="1.0" encoding="UTF-8" ?>
<!DOCTYPE svg PUBLIC "-//W3C//DTD SVG 1.1//EN" "http://www.w3.org/Graphics/SVG/1.1/DTD/svg11.dtd">
<svg width="64pt" height="64pt" viewBox="0 0 64 64" version="1.1" xmlns="http://www.w3.org/2000/svg">
<g id="#536c6eff">
<path fill="#536c6e" opacity="1.00" d=" M 22.77 5.84 C 29.46 3.50 37.06 3.81 43.52 6.75 C 51.90 10.55 58.16 18.72 59.53 27.84 C 60.00 31.21 60.07 34.82 58.53 37.94 C 58.16 38.54 57.41 39.73 57.03 40.33 C 57.85 33.81 58.56 26.42 54.42 20.83 C 53.98 20.59 53.12 20.11 52.68 19.87 C 51.11 16.98 49.39 14.00 46.56 12.15 C 38.19 5.81 25.84 5.80 17.46 12.13 C 14.68 13.95 12.97 16.88 11.36 19.70 C 8.06 21.73 6.85 25.55 6.12 29.13 C 5.12 32.69 6.80 36.23 6.64 39.82 C 6.32 39.27 5.66 38.16 5.34 37.60 C 3.76 34.28 4.06 30.44 4.61 26.91 C 6.43 17.36 13.55 8.99 22.77 5.84 Z" />
</g>
<g id="#d6dddeff">
<path fill="#d6ddde" opacity="1.00" d=" M 17.46 12.13 C 25.84 5.80 38.19 5.81 46.56 12.15 C 44.56 13.37 42.44 14.65 39.99 14.47 C 34.32 14.50 28.64 14.60 22.97 14.39 C 20.90 14.39 19.20 13.08 17.46 12.13 Z" />
</g>
<g id="#b9c6c7ff">
<path fill="#b9c6c7" opacity="1.00" d=" M 11.36 19.70 C 12.97 16.88 14.68 13.95 17.46 12.13 C 19.20 13.08 20.90 14.39 22.97 14.39 C 28.64 14.60 34.32 14.50 39.99 14.47 C 42.44 14.65 44.56 13.37 46.56 12.15 C 49.39 14.00 51.11 16.98 52.68 19.87 C 52.54 22.05 52.35 24.24 52.31 26.42 C 50.43 22.96 45.80 22.36 42.57 24.17 C 37.99 22.01 32.88 22.62 27.98 22.59 C 25.69 22.47 23.59 23.48 21.48 24.21 C 18.18 22.30 13.38 22.99 11.58 26.63 C 11.53 24.32 11.35 22.01 11.36 19.70 Z" />
</g>
<g id="#7c9799ff">
<path fill="#7c9799" opacity="1.00" d=" M 6.12 29.13 C 6.85 25.55 8.06 21.73 11.36 19.70 C 11.35 22.01 11.53 24.32 11.58 26.63 C 10.74 29.03 10.39 31.58 10.91 34.10 C 10.27 32.09 9.79 30.04 9.29 28.00 C 7.21 35.02 10.51 42.48 15.35 47.56 C 17.49 50.04 20.31 51.79 22.61 54.10 C 22.64 54.51 22.72 55.34 22.76 55.75 C 16.34 51.70 10.52 46.41 6.64 39.82 C 6.80 36.23 5.12 32.69 6.12 29.13 Z" />
</g>
<g id="#88a1a2ff">
<path fill="#88a1a2" opacity="1.00" d=" M 52.68 19.87 C 53.12 20.11 53.98 20.59 54.42 20.83 C 58.56 26.42 57.85 33.81 57.03 40.33 C 56.46 41.24 55.85 42.13 55.27 43.03 C 53.73 43.27 52.11 44.58 52.61 46.31 C 52.50 46.38 52.27 46.53 52.16 46.61 C 50.60 46.84 49.74 47.73 49.61 49.30 C 47.14 51.45 44.65 53.61 41.87 55.36 C 41.35 55.35 40.32 55.33 39.80 55.33 C 43.55 51.27 48.44 48.18 51.22 43.29 C 52.08 41.69 51.40 39.89 51.19 38.23 C 53.25 34.68 54.21 30.25 52.31 26.42 C 52.35 24.24 52.54 22.05 52.68 19.87 Z" />
</g>
<g id="#080909ff">
<path fill="#080909" opacity="1.00" d=" M 11.58 26.63 C 13.38 22.99 18.18 22.30 21.48 24.21 C 24.74 26.08 27.00 29.22 28.18 32.74 C 28.75 35.07 28.72 37.49 28.05 39.79 C 26.39 36.33 25.46 32.45 23.07 29.38 C 22.93 29.21 22.65 28.85 22.50 28.67 C 20.94 25.71 16.62 23.58 14.23 26.88 C 12.88 28.39 13.37 30.45 14.12 32.11 C 14.54 34.46 13.73 36.76 13.22 39.02 C 12.30 37.45 11.48 35.82 10.91 34.10 C 10.39 31.58 10.74 29.03 11.58 26.63 Z" />
<path fill="#080909" opacity="1.00" d=" M 42.57 24.17 C 45.80 22.36 50.43 22.96 52.31 26.42 C 54.21 30.25 53.25 34.68 51.19 38.23 C 50.52 39.17 49.81 40.08 49.09 40.98 C 49.92 37.42 49.67 33.77 49.84 30.15 C 49.87 29.37 49.94 27.81 49.97 27.02 C 49.70 26.75 49.15 26.19 48.87 25.91 C 46.17 24.10 43.08 25.86 41.47 28.24 C 41.26 28.51 40.84 29.05 40.63 29.32 C 38.80 32.64 37.52 36.21 35.95 39.64 C 34.15 33.74 37.33 27.15 42.57 24.17 Z" />
</g>
<g id="#95aaabff">
<path fill="#95aaab" opacity="1.00" d=" M 21.48 24.21 C 23.59 23.48 25.69 22.47 27.98 22.59 C 32.88 22.62 37.99 22.01 42.57 24.17 C 37.33 27.15 34.15 33.74 35.95 39.64 L 36.10 40.12 C 35.48 38.80 34.96 37.45 34.43 36.09 C 34.14 37.39 33.84 38.68 33.55 39.99 C 32.44 40.05 31.33 40.06 30.22 40.02 C 30.06 37.49 29.93 34.97 29.82 32.44 C 29.41 32.52 28.59 32.67 28.18 32.74 C 27.00 29.22 24.74 26.08 21.48 24.21 Z" />
</g>
<g id="#eeeeeeff">
<path fill="#eeeeee" opacity="1.00" d=" M 14.23 26.88 C 16.62 23.58 20.94 25.71 22.50 28.67 C 21.18 31.42 17.83 31.13 15.30 30.65 C 16.53 29.63 18.58 30.54 19.69 29.32 C 18.43 28.88 17.22 29.00 16.04 29.66 C 15.58 28.97 14.68 27.58 14.23 26.88 Z" />
</g>
<g id="#ccccccff">
<path fill="#cccccc" opacity="1.00" d=" M 41.47 28.24 C 43.08 25.86 46.17 24.10 48.87 25.91 C 48.41 27.13 47.89 28.32 47.31 29.49 C 45.32 29.41 42.47 30.66 41.47 28.24 Z" />
</g>
<g id="#6a6a6aff">
<path fill="#6a6a6a" opacity="1.00" d=" M 48.87 25.91 C 49.15 26.19 49.70 26.75 49.97 27.02 C 49.94 27.81 49.87 29.37 49.84 30.15 C 47.31 32.60 41.17 34.29 40.63 29.32 C 40.84 29.05 41.26 28.51 41.47 28.24 C 42.47 30.66 45.32 29.41 47.31 29.49 C 47.89 28.32 48.41 27.13 48.87 25.91 Z" />
</g>
<g id="#666767ff">
<path fill="#666767" opacity="1.00" d=" M 14.12 32.11 C 13.37 30.45 12.88 28.39 14.23 26.88 C 14.68 27.58 15.58 28.97 16.04 29.66 C 17.22 29.00 18.43 28.88 19.69 29.32 C 18.58 30.54 16.53 29.63 15.30 30.65 C 17.83 31.13 21.18 31.42 22.50 28.67 C 22.65 28.85 22.93 29.21 23.07 29.38 C 21.42 32.88 17.35 32.70 14.12 32.11 Z" />
</g>
<g id="#9fb5b7ff">
<path fill="#9fb5b7" opacity="1.00" d=" M 9.29 28.00 C 9.79 30.04 10.27 32.09 10.91 34.10 C 11.48 35.82 12.30 37.45 13.22 39.02 C 15.25 41.80 18.41 44.11 21.99 44.05 C 24.67 44.12 27.02 42.17 28.05 39.79 C 28.72 37.49 28.75 35.07 28.18 32.74 C 28.59 32.67 29.41 32.52 29.82 32.44 C 29.93 34.97 30.06 37.49 30.22 40.02 C 31.33 40.06 32.44 40.05 33.55 39.99 C 33.84 38.68 34.14 37.39 34.43 36.09 C 34.96 37.45 35.48 38.80 36.10 40.12 C 38.41 45.43 45.68 44.79 49.09 40.98 C 49.81 40.08 50.52 39.17 51.19 38.23 C 51.40 39.89 52.08 41.69 51.22 43.29 C 48.44 48.18 43.55 51.27 39.80 55.33 C 40.32 55.33 41.35 55.35 41.87 55.36 C 39.40 56.91 36.83 58.33 34.10 59.38 C 29.91 60.51 26.23 57.64 22.76 55.75 C 22.72 55.34 22.64 54.51 22.61 54.10 C 20.31 51.79 17.49 50.04 15.35 47.56 C 10.51 42.48 7.21 35.02 9.29 28.00 M 23.87 47.58 C 24.75 51.03 28.25 54.19 31.97 54.17 C 35.71 54.10 38.56 50.98 40.10 47.84 C 37.90 47.36 36.12 49.46 33.93 49.55 C 30.36 50.55 27.16 48.41 23.87 47.58 Z" />
</g>
<g id="#2f2f2fff">
<path fill="#2f2f2f" opacity="1.00" d=" M 23.07 29.38 C 25.46 32.45 26.39 36.33 28.05 39.79 C 27.02 42.17 24.67 44.12 21.99 44.05 C 18.41 44.11 15.25 41.80 13.22 39.02 C 13.73 36.76 14.54 34.46 14.12 32.11 C 17.35 32.70 21.42 32.88 23.07 29.38 M 17.12 38.88 C 17.49 39.54 18.25 40.85 18.63 41.51 C 20.26 41.75 21.94 42.02 23.56 41.59 C 24.90 40.62 25.28 38.28 23.49 37.55 C 21.46 35.78 18.56 36.99 17.12 38.88 Z" />
</g>
<g id="#2b2c2cff">
<path fill="#2b2c2c" opacity="1.00" d=" M 35.95 39.64 C 37.52 36.21 38.80 32.64 40.63 29.32 C 41.17 34.29 47.31 32.60 49.84 30.15 C 49.67 33.77 49.92 37.42 49.09 40.98 C 45.68 44.79 38.41 45.43 36.10 40.12 L 35.95 39.64 M 39.47 37.59 C 39.27 38.76 39.12 40.01 39.67 41.12 C 42.19 43.62 48.23 41.60 46.55 37.54 C 44.47 36.10 41.52 36.10 39.47 37.59 Z" />
</g>
<g id="#585959ff">
<path fill="#585959" opacity="1.00" d=" M 17.12 38.88 C 18.56 36.99 21.46 35.78 23.49 37.55 C 25.28 38.28 24.90 40.62 23.56 41.59 C 21.94 42.02 20.26 41.75 18.63 41.51 C 18.25 40.85 17.49 39.54 17.12 38.88 Z" />
</g>
<g id="#565656ff">
<path fill="#565656" opacity="1.00" d=" M 39.47 37.59 C 41.52 36.10 44.47 36.10 46.55 37.54 C 48.23 41.60 42.19 43.62 39.67 41.12 C 39.12 40.01 39.27 38.76 39.47 37.59 Z" />
</g>
<g id="#0000003a">
<path fill="#000000" opacity="0.23" d=" M 5.34 37.60 C 5.66 38.16 6.32 39.27 6.64 39.82 C 10.52 46.41 16.34 51.70 22.76 55.75 C 26.23 57.64 29.91 60.51 34.10 59.38 C 36.83 58.33 39.40 56.91 41.87 55.36 C 44.65 53.61 47.14 51.45 49.61 49.30 C 50.92 48.84 51.77 47.94 52.16 46.61 C 52.27 46.53 52.50 46.38 52.61 46.31 C 53.99 45.72 54.90 44.44 55.27 43.03 C 55.85 42.13 56.46 41.24 57.03 40.33 C 57.41 39.73 58.16 38.54 58.53 37.94 C 58.87 39.04 58.76 40.22 58.27 41.26 C 54.91 48.15 49.11 53.43 42.96 57.82 C 38.59 60.97 32.73 64.44 27.36 61.60 C 18.74 57.12 10.87 50.54 6.08 41.97 C 5.25 40.67 5.21 39.09 5.34 37.60 Z" />
</g>
<g id="#374a4cc1">
<path fill="#374a4c" opacity="0.76" d=" M 52.61 46.31 C 52.11 44.58 53.73 43.27 55.27 43.03 C 54.90 44.44 53.99 45.72 52.61 46.31 Z" />
</g>
<g id="#3c5152cc">
<path fill="#3c5152" opacity="0.80" d=" M 49.61 49.30 C 49.74 47.73 50.60 46.84 52.16 46.61 C 51.77 47.94 50.92 48.84 49.61 49.30 Z" />
</g>
<g id="#374040ff">
<path fill="#374040" opacity="1.00" d=" M 23.87 47.58 C 27.16 48.41 30.36 50.55 33.93 49.55 C 36.12 49.46 37.90 47.36 40.10 47.84 C 38.56 50.98 35.71 54.10 31.97 54.17 C 28.25 54.19 24.75 51.03 23.87 47.58 Z" />
</g>
</svg>
