<?xml version="1.0" encoding="UTF-8" ?>
<!DOCTYPE svg PUBLIC "-//W3C//DTD SVG 1.1//EN" "http://www.w3.org/Graphics/SVG/1.1/DTD/svg11.dtd">
<svg width="64pt" height="64pt" viewBox="0 0 64 64" version="1.1" xmlns="http://www.w3.org/2000/svg">
<g id="#e1936aff">
<path fill="#e1936a" opacity="1.00" d=" M 29.71 0.00 L 32.15 0.00 C 37.52 0.49 42.65 2.15 47.67 4.01 C 47.88 4.14 48.30 4.42 48.51 4.55 L 48.64 6.31 C 41.55 3.23 33.48 -0.07 25.72 2.38 L 24.64 0.68 C 26.33 0.44 28.02 0.22 29.71 0.00 Z" />
<path fill="#e1936a" opacity="1.00" d=" M 7.77 14.96 C 8.03 13.39 9.10 12.16 10.06 10.97 C 11.83 15.19 8.47 18.88 8.11 22.99 C 10.95 21.28 13.63 19.33 16.33 17.43 C 13.26 21.01 8.87 23.83 7.91 28.79 C 10.69 28.95 12.92 27.42 14.83 25.58 C 16.32 25.37 17.81 25.17 19.29 24.91 C 18.11 25.91 17.13 27.10 16.19 28.32 C 14.98 28.68 13.78 29.03 12.58 29.41 C 11.42 31.21 9.68 32.43 7.68 33.16 C 5.60 27.27 6.28 20.89 7.77 14.96 Z" />
<path fill="#e1936a" opacity="1.00" d=" M 53.57 11.46 C 54.50 12.81 54.50 14.47 54.74 16.03 C 55.09 16.31 55.78 16.86 56.13 17.14 C 56.91 22.38 57.10 27.99 55.30 33.07 C 51.17 31.91 49.29 27.56 45.49 25.96 C 41.39 23.59 37.50 20.79 32.88 19.48 C 34.27 19.35 37.07 19.08 38.46 18.94 C 37.81 18.82 36.50 18.58 35.84 18.46 C 40.90 15.99 46.63 15.85 52.11 15.21 C 52.59 13.96 53.08 12.71 53.57 11.46 M 39.06 18.58 C 40.18 21.22 42.98 22.35 45.25 23.77 C 48.53 25.51 51.18 28.16 54.33 30.09 C 54.41 28.93 54.48 27.77 54.55 26.60 C 53.17 25.07 51.81 23.52 50.54 21.90 C 52.24 22.41 53.89 23.09 55.48 23.91 C 54.84 21.85 54.46 19.73 54.25 17.59 C 49.10 16.60 44.20 18.86 39.06 18.58 Z" />
<path fill="#e1936a" opacity="1.00" d=" M 19.51 25.63 C 24.43 22.95 29.90 18.25 35.79 21.07 C 38.76 22.50 41.36 24.58 44.36 25.92 C 44.55 26.85 44.91 28.71 45.10 29.64 C 43.17 29.52 41.25 29.43 39.32 29.37 C 42.10 29.61 44.99 29.86 47.28 31.66 C 46.92 31.61 46.21 31.50 45.85 31.44 C 46.34 33.26 46.85 35.08 47.35 36.90 C 48.02 35.50 48.68 34.10 49.33 32.70 C 52.14 35.53 49.11 40.08 51.70 42.99 L 49.31 42.23 C 49.65 43.15 50.32 44.99 50.66 45.90 L 48.07 45.35 C 48.52 45.97 49.42 47.21 49.87 47.82 L 47.70 47.28 C 47.38 48.76 46.95 50.20 46.49 51.64 L 45.29 51.20 L 45.69 52.69 L 44.14 52.36 L 44.78 53.79 L 43.19 53.23 L 43.69 54.80 C 43.07 54.68 41.84 54.44 41.22 54.33 L 41.88 56.89 C 41.30 56.44 40.14 55.53 39.56 55.08 L 39.50 58.24 C 38.98 57.68 37.95 56.57 37.44 56.01 L 37.75 58.86 C 34.78 56.43 30.38 57.95 26.78 57.69 L 25.35 58.91 L 25.51 55.99 C 25.00 56.53 23.97 57.60 23.46 58.14 L 23.48 55.07 C 22.87 55.51 21.65 56.38 21.04 56.82 L 21.83 54.42 L 20.27 54.79 L 20.56 53.29 C 19.98 53.40 18.82 53.62 18.24 53.73 C 18.35 53.14 18.57 51.95 18.68 51.36 C 18.12 51.44 16.98 51.60 16.42 51.68 C 16.45 50.84 16.50 49.17 16.53 48.33 L 13.93 48.74 C 14.42 48.23 15.40 47.19 15.89 46.68 L 12.57 46.34 C 13.15 45.87 14.30 44.95 14.88 44.49 L 12.03 44.64 C 12.44 43.81 13.27 42.13 13.68 41.30 L 11.18 41.97 C 13.66 39.61 12.13 35.73 11.02 33.17 L 14.56 35.70 C 15.08 36.15 16.10 37.04 16.62 37.49 C 16.35 35.84 16.33 34.21 16.56 32.58 C 16.92 32.77 17.65 33.15 18.01 33.34 L 18.44 32.79 C 18.03 32.55 17.20 32.05 16.79 31.81 L 17.03 31.02 C 17.48 30.69 18.38 30.03 18.83 29.71 C 20.43 29.66 22.03 29.62 23.63 29.57 C 21.72 29.42 19.76 29.40 17.90 28.84 C 15.61 28.16 18.77 26.32 19.51 25.63 M 35.95 34.05 C 35.35 36.45 38.30 37.23 39.89 38.12 C 41.52 37.82 43.12 37.89 44.69 38.33 C 45.43 37.78 46.15 37.20 46.86 36.60 C 46.04 35.63 45.11 34.84 44.05 34.24 C 43.45 34.34 42.26 34.52 41.66 34.61 L 42.09 35.68 C 41.71 35.34 40.97 34.67 40.59 34.33 C 39.95 35.10 39.37 35.92 38.71 36.67 C 38.75 34.49 39.16 32.36 40.21 30.44 C 38.69 31.49 36.85 32.33 35.95 34.05 M 41.55 32.64 C 42.48 33.40 43.39 33.40 44.27 32.65 C 43.29 31.34 42.39 31.34 41.55 32.64 M 19.22 31.93 C 19.28 35.26 22.26 30.48 19.22 31.93 M 22.42 30.30 C 24.54 32.91 23.84 35.85 22.24 38.42 C 24.13 37.58 25.87 36.45 27.31 34.95 C 26.15 32.96 24.35 31.52 22.42 30.30 M 19.19 33.83 C 18.67 35.47 19.23 36.02 20.86 35.48 C 21.36 33.85 20.81 33.30 19.19 33.83 M 20.02 48.56 C 24.75 56.85 37.97 56.62 42.93 48.66 C 38.59 48.24 34.28 49.34 29.94 49.07 C 26.63 48.90 23.33 48.41 20.02 48.56 Z" />
</g>
<g id="#040201fe">
<path fill="#040201" opacity="1.00" d=" M 32.15 0.00 L 37.32 0.00 C 40.94 0.82 44.61 1.81 47.67 4.01 C 42.65 2.15 37.52 0.49 32.15 0.00 Z" />
<path fill="#040201" opacity="1.00" d=" M 7.71 12.69 C 10.65 6.01 17.36 1.21 24.64 0.68 L 25.72 2.38 C 23.96 2.75 22.16 2.56 20.39 2.44 L 20.43 3.49 C 19.66 3.48 18.11 3.46 17.34 3.46 L 17.60 4.83 C 17.06 4.70 15.98 4.44 15.44 4.31 C 15.46 4.87 15.51 5.98 15.53 6.54 C 15.01 6.47 13.98 6.33 13.47 6.27 L 13.64 7.56 L 12.80 7.56 C 11.90 8.70 10.98 9.83 10.06 10.97 C 9.10 12.16 8.03 13.39 7.77 14.96 C 6.28 20.89 5.60 27.27 7.68 33.16 C 9.68 32.43 11.42 31.21 12.58 29.41 C 13.78 29.03 14.98 28.68 16.19 28.32 C 17.13 27.10 18.11 25.91 19.29 24.91 C 23.77 22.60 28.20 20.20 32.94 18.44 C 33.67 18.45 35.12 18.46 35.84 18.46 C 36.50 18.58 37.81 18.82 38.46 18.94 C 37.07 19.08 34.27 19.35 32.88 19.48 C 37.50 20.79 41.39 23.59 45.49 25.96 C 49.29 27.56 51.17 31.91 55.30 33.07 C 57.10 27.99 56.91 22.38 56.13 17.14 C 55.78 16.86 55.09 16.31 54.74 16.03 C 54.50 14.47 54.50 12.81 53.57 11.46 C 53.22 10.93 52.53 9.86 52.18 9.33 C 51.77 9.39 50.96 9.51 50.55 9.57 C 50.53 8.86 50.48 7.43 50.46 6.72 C 50.01 6.62 49.10 6.41 48.64 6.31 L 48.51 4.55 C 57.37 10.57 59.80 23.36 56.34 33.03 C 57.08 35.51 58.21 38.36 56.71 40.80 C 55.21 42.92 52.99 44.52 52.02 47.02 C 49.75 52.29 45.75 56.86 40.54 59.37 C 36.37 61.54 31.47 61.20 26.95 60.81 C 19.70 59.44 13.90 53.66 11.05 47.04 C 10.07 44.54 7.89 42.88 6.38 40.74 C 4.87 38.35 6.10 35.57 6.76 33.13 C 4.30 26.55 4.89 19.05 7.71 12.69 M 19.51 25.63 C 18.77 26.32 15.61 28.16 17.90 28.84 C 19.76 29.40 21.72 29.42 23.63 29.57 C 22.03 29.62 20.43 29.66 18.83 29.71 C 18.38 30.03 17.48 30.69 17.03 31.02 L 17.26 30.27 C 16.34 30.64 14.50 31.37 13.58 31.74 C 13.48 32.37 13.29 33.63 13.19 34.26 C 13.53 34.62 14.22 35.34 14.56 35.70 L 11.02 33.17 C 12.13 35.73 13.66 39.61 11.18 41.97 L 13.68 41.30 C 13.27 42.13 12.44 43.81 12.03 44.64 L 14.88 44.49 C 14.30 44.95 13.15 45.87 12.57 46.34 L 15.89 46.68 C 15.40 47.19 14.42 48.23 13.93 48.74 L 16.53 48.33 C 16.50 49.17 16.45 50.84 16.42 51.68 C 16.98 51.60 18.12 51.44 18.68 51.36 C 18.57 51.95 18.35 53.14 18.24 53.73 C 18.82 53.62 19.98 53.40 20.56 53.29 L 20.27 54.79 L 21.83 54.42 L 21.04 56.82 C 21.65 56.38 22.87 55.51 23.48 55.07 L 23.46 58.14 C 23.97 57.60 25.00 56.53 25.51 55.99 L 25.35 58.91 L 26.78 57.69 C 30.38 57.95 34.78 56.43 37.75 58.86 L 37.44 56.01 C 37.95 56.57 38.98 57.68 39.50 58.24 L 39.56 55.08 C 40.14 55.53 41.30 56.44 41.88 56.89 L 41.22 54.33 C 41.84 54.44 43.07 54.68 43.69 54.80 L 43.19 53.23 L 44.78 53.79 L 44.14 52.36 L 45.69 52.69 L 45.29 51.20 L 46.49 51.64 C 46.95 50.20 47.38 48.76 47.70 47.28 L 49.87 47.82 C 49.42 47.21 48.52 45.97 48.07 45.35 L 50.66 45.90 C 50.32 44.99 49.65 43.15 49.31 42.23 L 51.70 42.99 C 49.11 40.08 52.14 35.53 49.33 32.70 C 48.82 32.44 47.79 31.92 47.28 31.66 C 44.99 29.86 42.10 29.61 39.32 29.37 C 41.25 29.43 43.17 29.52 45.10 29.64 C 44.91 28.71 44.55 26.85 44.36 25.92 C 41.36 24.58 38.76 22.50 35.79 21.07 C 29.90 18.25 24.43 22.95 19.51 25.63 Z" />
<path fill="#040201" opacity="1.00" d=" M 16.79 31.81 C 17.20 32.05 18.03 32.55 18.44 32.79 L 18.01 33.34 C 17.65 33.15 16.92 32.77 16.56 32.58 L 16.79 31.81 Z" />
<path fill="#040201" opacity="1.00" d=" M 19.19 33.83 C 20.81 33.30 21.36 33.85 20.86 35.48 C 19.23 36.02 18.67 35.47 19.19 33.83 Z" />
<path fill="#040201" opacity="1.00" d=" M 41.66 34.61 C 42.26 34.52 43.45 34.34 44.05 34.24 C 43.81 34.75 43.33 35.76 43.09 36.26 L 42.09 35.68 L 41.66 34.61 Z" />
<path fill="#040201" opacity="1.00" d=" M 20.02 48.56 C 23.33 48.41 26.63 48.90 29.94 49.07 C 34.28 49.34 38.59 48.24 42.93 48.66 C 37.97 56.62 24.75 56.85 20.02 48.56 Z" />
</g>
<g id="#e2e2e2ff">
<path fill="#e2e2e2" opacity="1.00" d=" M 25.72 2.38 C 33.48 -0.07 41.55 3.23 48.64 6.31 C 49.10 6.41 50.01 6.62 50.46 6.72 C 50.48 7.43 50.53 8.86 50.55 9.57 C 50.96 9.51 51.77 9.39 52.18 9.33 C 52.53 9.86 53.22 10.93 53.57 11.46 C 53.08 12.71 52.59 13.96 52.11 15.21 C 46.63 15.85 40.90 15.99 35.84 18.46 C 35.12 18.46 33.67 18.45 32.94 18.44 C 28.20 20.20 23.77 22.60 19.29 24.91 C 17.81 25.17 16.32 25.37 14.83 25.58 C 12.92 27.42 10.69 28.95 7.91 28.79 C 8.87 23.83 13.26 21.01 16.33 17.43 C 13.63 19.33 10.95 21.28 8.11 22.99 C 8.47 18.88 11.83 15.19 10.06 10.97 C 10.98 9.83 11.90 8.70 12.80 7.56 L 13.64 7.56 L 13.47 6.27 C 13.98 6.33 15.01 6.47 15.53 6.54 C 15.51 5.98 15.46 4.87 15.44 4.31 C 15.98 4.44 17.06 4.70 17.60 4.83 L 17.34 3.46 C 18.11 3.46 19.66 3.48 20.43 3.49 L 20.39 2.44 C 22.16 2.56 23.96 2.75 25.72 2.38 Z" />
<path fill="#e2e2e2" opacity="1.00" d=" M 39.06 18.58 C 44.20 18.86 49.10 16.60 54.25 17.59 C 54.46 19.73 54.84 21.85 55.48 23.91 C 53.89 23.09 52.24 22.41 50.54 21.90 C 51.81 23.52 53.17 25.07 54.55 26.60 C 54.48 27.77 54.41 28.93 54.33 30.09 C 51.18 28.16 48.53 25.51 45.25 23.77 C 42.98 22.35 40.18 21.22 39.06 18.58 Z" />
<path fill="#e2e2e2" opacity="1.00" d=" M 13.58 31.74 C 14.50 31.37 16.34 30.64 17.26 30.27 L 17.03 31.02 L 16.79 31.81 L 16.56 32.58 C 16.33 34.21 16.35 35.84 16.62 37.49 C 16.10 37.04 15.08 36.15 14.56 35.70 C 14.22 35.34 13.53 34.62 13.19 34.26 C 13.29 33.63 13.48 32.37 13.58 31.74 Z" />
<path fill="#e2e2e2" opacity="1.00" d=" M 35.95 34.05 C 36.85 32.33 38.69 31.49 40.21 30.44 C 39.16 32.36 38.75 34.49 38.71 36.67 C 39.37 35.92 39.95 35.10 40.59 34.33 C 40.97 34.67 41.71 35.34 42.09 35.68 L 43.09 36.26 C 43.33 35.76 43.81 34.75 44.05 34.24 C 45.11 34.84 46.04 35.63 46.86 36.60 C 46.15 37.20 45.43 37.78 44.69 38.33 C 43.12 37.89 41.52 37.82 39.89 38.12 C 38.30 37.23 35.35 36.45 35.95 34.05 Z" />
<path fill="#e2e2e2" opacity="1.00" d=" M 41.55 32.64 C 42.39 31.34 43.29 31.34 44.27 32.65 C 43.39 33.40 42.48 33.40 41.55 32.64 Z" />
<path fill="#e2e2e2" opacity="1.00" d=" M 19.22 31.93 C 22.26 30.48 19.28 35.26 19.22 31.93 Z" />
<path fill="#e2e2e2" opacity="1.00" d=" M 22.42 30.30 C 24.35 31.52 26.15 32.96 27.31 34.95 C 25.87 36.45 24.13 37.58 22.24 38.42 C 23.84 35.85 24.54 32.91 22.42 30.30 Z" />
<path fill="#e2e2e2" opacity="1.00" d=" M 45.85 31.44 C 46.21 31.50 46.92 31.61 47.28 31.66 C 47.79 31.92 48.82 32.44 49.33 32.70 C 48.68 34.10 48.02 35.50 47.35 36.90 C 46.85 35.08 46.34 33.26 45.85 31.44 Z" />
</g>
</svg>
