<?xml version="1.0" encoding="UTF-8" ?>
<!DOCTYPE svg PUBLIC "-//W3C//DTD SVG 1.1//EN" "http://www.w3.org/Graphics/SVG/1.1/DTD/svg11.dtd">
<svg width="64pt" height="64pt" viewBox="0 0 64 64" version="1.1" xmlns="http://www.w3.org/2000/svg">
<g id="#57540cff">
<path fill="#57540c" opacity="1.00" d=" M 25.22 5.36 C 40.11 0.80 57.07 12.21 59.14 27.53 L 59.68 28.09 C 60.35 27.93 61.70 27.63 62.37 27.48 C 62.50 29.54 64.37 33.52 61.52 34.18 C 60.59 31.65 59.63 29.09 57.54 27.27 C 56.62 24.40 56.35 21.23 54.16 18.94 C 52.39 16.30 50.30 13.73 47.42 12.24 C 47.20 12.10 46.76 11.82 46.55 11.68 C 45.15 10.83 43.81 9.79 42.22 9.33 C 35.86 6.35 28.17 6.33 21.81 9.33 C 20.61 9.69 19.56 10.39 18.47 11.00 C 18.11 11.20 17.39 11.58 17.03 11.78 C 11.22 14.85 7.53 21.07 6.42 27.43 C 4.49 29.12 3.29 31.38 3.31 33.98 C 0.69 33.42 0.80 29.52 1.86 27.59 C 2.86 27.68 3.86 27.77 4.86 27.85 C 6.24 17.15 14.74 7.85 25.22 5.36 Z" />
</g>
<g id="#f2ef76ff">
<path fill="#f2ef76" opacity="1.00" d=" M 21.81 9.33 C 28.17 6.33 35.86 6.35 42.22 9.33 C 41.93 10.87 41.74 12.43 41.64 14.00 C 41.22 17.56 37.93 19.21 34.83 20.02 C 34.69 18.87 34.52 17.72 34.31 16.58 C 32.81 16.28 31.26 16.32 29.75 16.54 C 29.67 16.92 29.51 17.68 29.43 18.06 C 27.43 17.37 25.43 16.68 23.46 15.94 C 22.90 13.74 22.38 11.53 21.81 9.33 Z" />
</g>
<g id="#d9d548ff">
<path fill="#d9d548" opacity="1.00" d=" M 18.47 11.00 C 19.56 10.39 20.61 9.69 21.81 9.33 C 22.38 11.53 22.90 13.74 23.46 15.94 C 23.10 16.53 22.39 17.70 22.04 18.28 L 20.91 18.77 C 20.05 17.85 19.20 16.91 18.36 15.96 C 18.39 14.31 18.43 12.66 18.47 11.00 Z" />
</g>
<g id="#d4d046ff">
<path fill="#d4d046" opacity="1.00" d=" M 42.22 9.33 C 43.81 9.79 45.15 10.83 46.55 11.68 C 46.01 13.68 45.42 15.67 44.75 17.63 C 43.73 16.40 42.68 15.21 41.64 14.00 C 41.74 12.43 41.93 10.87 42.22 9.33 Z" />
</g>
<g id="#9a9418ff">
<path fill="#9a9418" opacity="1.00" d=" M 6.42 27.43 C 7.53 21.07 11.22 14.85 17.03 11.78 C 14.30 16.21 9.87 20.35 9.87 25.84 C 11.48 27.39 13.41 28.54 15.18 29.89 C 13.24 29.77 11.32 29.50 9.38 29.42 C 9.37 31.71 9.57 34.00 9.76 36.28 C 7.77 35.57 5.77 34.85 3.70 34.39 L 3.27 34.28 L 3.31 33.98 C 3.29 31.38 4.49 29.12 6.42 27.43 Z" />
</g>
<g id="#c0ba22ff">
<path fill="#c0ba22" opacity="1.00" d=" M 17.03 11.78 C 17.39 11.58 18.11 11.20 18.47 11.00 C 18.43 12.66 18.39 14.31 18.36 15.96 C 17.33 19.37 14.94 22.41 14.61 25.97 C 16.35 29.07 20.26 29.32 23.15 30.78 C 20.57 31.02 17.96 30.98 15.40 31.39 C 15.25 33.35 15.26 35.31 15.19 37.27 C 13.69 37.03 12.20 36.80 10.69 36.60 L 9.76 36.28 C 9.57 34.00 9.37 31.71 9.38 29.42 C 11.32 29.50 13.24 29.77 15.18 29.89 C 13.41 28.54 11.48 27.39 9.87 25.84 C 9.87 20.35 14.30 16.21 17.03 11.78 Z" />
</g>
<g id="#d2cb25ff">
<path fill="#d2cb25" opacity="1.00" d=" M 46.55 11.68 C 46.76 11.82 47.20 12.10 47.42 12.24 C 46.96 17.32 50.77 21.28 51.54 26.05 C 48.57 28.63 44.70 29.62 41.01 30.67 C 43.89 30.69 46.77 30.58 49.64 30.86 C 49.66 33.00 49.43 35.14 49.20 37.26 C 47.37 37.56 45.54 37.85 43.69 38.03 C 43.62 36.13 43.63 34.23 43.50 32.34 C 40.72 31.97 37.91 31.99 35.11 32.04 C 35.08 30.11 35.05 28.17 35.00 26.23 C 37.28 25.94 39.60 26.07 41.90 26.16 C 39.90 27.01 37.62 26.45 35.52 26.77 C 35.66 27.53 35.92 29.04 36.06 29.80 C 40.04 29.69 45.56 29.46 47.53 25.39 C 46.44 22.86 45.21 20.37 44.75 17.63 C 45.42 15.67 46.01 13.68 46.55 11.68 Z" />
</g>
<g id="#b3ad1eff">
<path fill="#b3ad1e" opacity="1.00" d=" M 47.42 12.24 C 50.30 13.73 52.39 16.30 54.16 18.94 C 55.03 20.98 56.01 22.98 56.69 25.10 C 55.91 26.60 54.43 27.52 53.22 28.64 C 54.55 28.57 55.89 28.47 57.23 28.45 C 59.46 29.51 58.39 32.20 58.52 34.11 C 57.72 34.61 56.90 35.07 56.06 35.50 C 55.00 36.00 53.92 36.45 52.82 36.84 C 51.61 36.96 50.41 37.10 49.20 37.26 C 49.43 35.14 49.66 33.00 49.64 30.86 C 46.77 30.58 43.89 30.69 41.01 30.67 C 44.70 29.62 48.57 28.63 51.54 26.05 C 50.77 21.28 46.96 17.32 47.42 12.24 Z" />
</g>
<g id="#eae42dff">
<path fill="#eae42d" opacity="1.00" d=" M 41.64 14.00 C 42.68 15.21 43.73 16.40 44.75 17.63 C 45.21 20.37 46.44 22.86 47.53 25.39 C 45.56 29.46 40.04 29.69 36.06 29.80 C 35.92 29.04 35.66 27.53 35.52 26.77 C 37.62 26.45 39.90 27.01 41.90 26.16 C 41.85 24.77 42.29 23.22 41.62 21.92 C 39.42 21.48 37.19 21.31 34.97 21.06 L 34.83 20.02 C 37.93 19.21 41.22 17.56 41.64 14.00 Z" />
</g>
<g id="#d8d127ff">
<path fill="#d8d127" opacity="1.00" d=" M 14.61 25.97 C 14.94 22.41 17.33 19.37 18.36 15.96 C 19.20 16.91 20.05 17.85 20.91 18.77 C 19.96 21.29 18.02 23.83 18.34 26.57 C 20.69 29.26 25.10 29.93 28.47 29.18 C 28.43 28.60 28.34 27.44 28.30 26.86 C 26.20 26.59 24.05 26.69 21.98 26.19 C 24.31 26.13 26.66 25.98 28.98 26.23 C 28.90 28.17 28.86 30.11 28.84 32.05 C 26.77 32.06 24.70 32.06 22.65 32.31 C 22.53 34.22 22.57 36.14 22.35 38.04 C 19.94 38.25 17.56 37.66 15.19 37.27 C 15.26 35.31 15.25 33.35 15.40 31.39 C 17.96 30.98 20.57 31.02 23.15 30.78 C 20.26 29.32 16.35 29.07 14.61 25.97 Z" />
</g>
<g id="#f0ea4aff">
<path fill="#f0ea4a" opacity="1.00" d=" M 23.46 15.94 C 25.43 16.68 27.43 17.37 29.43 18.06 C 29.33 18.81 29.13 20.30 29.03 21.05 C 26.85 21.28 24.66 21.52 22.48 21.79 C 22.35 20.62 22.20 19.45 22.04 18.28 C 22.39 17.70 23.10 16.53 23.46 15.94 Z" />
</g>
<g id="#02931cff">
<path fill="#02931c" opacity="1.00" d=" M 29.75 16.54 C 31.26 16.32 32.81 16.28 34.31 16.58 C 34.52 17.72 34.69 18.87 34.83 20.02 L 34.97 21.06 C 37.19 21.31 39.42 21.48 41.62 21.92 C 41.09 23.13 40.14 23.69 38.86 23.27 C 35.26 22.83 31.61 22.24 27.99 22.91 C 26.08 22.97 23.80 24.08 22.21 22.49 L 22.48 21.79 C 24.66 21.52 26.85 21.28 29.03 21.05 C 29.13 20.30 29.33 18.81 29.43 18.06 C 29.51 17.68 29.67 16.92 29.75 16.54 Z" />
</g>
<g id="#efe72dff">
<path fill="#efe72d" opacity="1.00" d=" M 20.91 18.77 L 22.04 18.28 C 22.20 19.45 22.35 20.62 22.48 21.79 L 22.21 22.49 C 21.64 23.65 21.93 24.96 21.98 26.19 C 24.05 26.69 26.20 26.59 28.30 26.86 C 28.34 27.44 28.43 28.60 28.47 29.18 C 25.10 29.93 20.69 29.26 18.34 26.57 C 18.02 23.83 19.96 21.29 20.91 18.77 Z" />
</g>
<g id="#79733eff">
<path fill="#79733e" opacity="1.00" d=" M 54.16 18.94 C 56.35 21.23 56.62 24.40 57.54 27.27 C 59.63 29.09 60.59 31.65 61.52 34.18 C 59.33 33.90 60.59 36.23 60.24 37.45 C 59.80 38.60 59.18 39.65 58.38 40.58 C 57.43 38.99 57.99 37.18 58.08 35.47 C 57.58 35.48 56.56 35.49 56.06 35.50 C 56.90 35.07 57.72 34.61 58.52 34.11 C 58.39 32.20 59.46 29.51 57.23 28.45 C 55.89 28.47 54.55 28.57 53.22 28.64 C 54.43 27.52 55.91 26.60 56.69 25.10 C 56.01 22.98 55.03 20.98 54.16 18.94 Z" />
</g>
<g id="#239d1fff">
<path fill="#239d1f" opacity="1.00" d=" M 21.98 26.19 C 21.93 24.96 21.64 23.65 22.21 22.49 C 23.80 24.08 26.08 22.97 27.99 22.91 C 31.61 22.24 35.26 22.83 38.86 23.27 C 40.14 23.69 41.09 23.13 41.62 21.92 C 42.29 23.22 41.85 24.77 41.90 26.16 C 39.60 26.07 37.28 25.94 35.00 26.23 C 32.99 26.33 30.98 26.32 28.98 26.23 C 26.66 25.98 24.31 26.13 21.98 26.19 Z" />
</g>
<g id="#38951bff">
<path fill="#38951b" opacity="1.00" d=" M 28.98 26.23 C 30.98 26.32 32.99 26.33 35.00 26.23 C 35.05 28.17 35.08 30.11 35.11 32.04 C 33.02 32.18 30.93 32.17 28.84 32.05 C 28.86 30.11 28.90 28.17 28.98 26.23 Z" />
</g>
<g id="#f3ec2dff">
<path fill="#f3ec2d" opacity="1.00" d=" M 22.65 32.31 C 24.70 32.06 26.77 32.06 28.84 32.05 C 30.93 32.17 33.02 32.18 35.11 32.04 C 37.91 31.99 40.72 31.97 43.50 32.34 C 43.63 34.23 43.62 36.13 43.69 38.03 C 42.67 38.16 41.65 38.29 40.63 38.43 L 39.67 38.52 C 39.26 38.54 38.45 38.58 38.04 38.60 C 32.75 39.26 27.57 38.32 22.35 38.04 C 22.57 36.14 22.53 34.22 22.65 32.31 Z" />
</g>
<g id="#58512bff">
<path fill="#58512b" opacity="1.00" d=" M 3.70 34.39 C 5.77 34.85 7.77 35.57 9.76 36.28 L 10.69 36.60 C 10.16 37.20 9.10 38.40 8.57 39.00 C 9.76 46.14 14.30 53.01 20.86 56.35 C 28.17 60.23 37.43 59.95 44.47 55.59 C 50.47 52.09 54.15 45.56 55.59 38.92 C 54.69 38.19 53.77 37.50 52.82 36.84 C 53.92 36.45 55.00 36.00 56.06 35.50 C 56.56 35.49 57.58 35.48 58.08 35.47 C 57.99 37.18 57.43 38.99 58.38 40.58 C 57.77 40.99 57.13 41.37 56.46 41.70 C 53.78 50.56 46.40 58.06 37.15 59.75 C 31.33 60.39 25.07 60.34 19.90 57.21 C 13.78 54.03 9.65 48.10 7.52 41.68 C 4.59 40.65 3.12 37.34 3.70 34.39 Z" />
</g>
<g id="#ba8c59ff">
<path fill="#ba8c59" opacity="1.00" d=" M 10.69 36.60 C 12.20 36.80 13.69 37.03 15.19 37.27 C 17.56 37.66 19.94 38.25 22.35 38.04 C 27.57 38.32 32.75 39.26 38.04 38.60 C 38.02 38.86 37.97 39.40 37.95 39.67 C 34.48 40.37 29.68 41.55 26.84 38.95 C 25.61 39.00 24.37 39.04 23.14 39.16 C 20.60 38.75 17.93 38.30 15.49 39.43 C 15.04 39.01 14.59 38.59 14.15 38.17 C 13.82 38.28 13.17 38.48 12.84 38.59 C 12.46 38.78 11.71 39.16 11.33 39.35 C 11.00 44.83 14.98 49.60 19.04 52.84 C 24.44 57.20 31.84 57.19 38.35 56.15 C 45.54 53.88 52.90 47.42 52.66 39.37 C 52.28 39.17 51.53 38.79 51.16 38.60 C 50.83 38.49 50.18 38.28 49.86 38.17 C 49.42 38.57 48.98 38.98 48.56 39.39 C 45.99 38.60 43.28 38.62 40.63 38.43 C 41.65 38.29 42.67 38.16 43.69 38.03 C 45.54 37.85 47.37 37.56 49.20 37.26 C 50.41 37.10 51.61 36.96 52.82 36.84 C 53.77 37.50 54.69 38.19 55.59 38.92 C 54.15 45.56 50.47 52.09 44.47 55.59 C 37.43 59.95 28.17 60.23 20.86 56.35 C 14.30 53.01 9.76 46.14 8.57 39.00 C 9.10 38.40 10.16 37.20 10.69 36.60 Z" />
</g>
<g id="#554435ff">
<path fill="#554435" opacity="1.00" d=" M 12.84 38.59 C 13.17 38.48 13.82 38.28 14.15 38.17 C 14.59 38.59 15.04 39.01 15.49 39.43 C 17.12 41.70 22.28 42.38 23.14 39.16 C 24.37 39.04 25.61 39.00 26.84 38.95 C 24.93 41.27 22.89 44.08 19.51 43.98 C 16.30 43.88 13.82 41.52 12.84 38.59 Z" />
<path fill="#554435" opacity="1.00" d=" M 38.04 38.60 C 38.45 38.58 39.26 38.54 39.67 38.52 C 41.31 41.81 46.33 42.32 48.56 39.39 C 48.98 38.98 49.42 38.57 49.86 38.17 C 50.18 38.28 50.83 38.49 51.16 38.60 C 50.20 41.53 47.74 43.75 44.61 43.99 C 41.68 44.02 39.37 42.06 37.95 39.67 C 37.97 39.40 38.02 38.86 38.04 38.60 Z" />
</g>
<g id="#e6b68dff">
<path fill="#e6b68d" opacity="1.00" d=" M 11.33 39.35 C 11.71 39.16 12.46 38.78 12.84 38.59 C 13.82 41.52 16.30 43.88 19.51 43.98 C 21.51 46.97 26.04 50.22 29.55 48.07 C 31.23 48.05 32.92 48.02 34.60 47.95 C 35.02 48.25 35.87 48.85 36.29 49.15 C 39.56 48.48 42.74 46.83 44.61 43.99 C 47.74 43.75 50.20 41.53 51.16 38.60 C 51.53 38.79 52.28 39.17 52.66 39.37 C 52.90 47.42 45.54 53.88 38.35 56.15 C 31.84 57.19 24.44 57.20 19.04 52.84 C 14.98 49.60 11.00 44.83 11.33 39.35 M 27.56 51.54 C 26.54 53.62 29.69 53.81 31.01 53.77 C 32.98 53.62 35.66 54.33 36.71 52.09 C 34.11 50.76 30.53 51.84 27.56 51.54 Z" />
</g>
<g id="#d0a785ff">
<path fill="#d0a785" opacity="1.00" d=" M 15.49 39.43 C 17.93 38.30 20.60 38.75 23.14 39.16 C 22.28 42.38 17.12 41.70 15.49 39.43 Z" />
</g>
<g id="#cda483ff">
<path fill="#cda483" opacity="1.00" d=" M 39.67 38.52 L 40.63 38.43 C 43.28 38.62 45.99 38.60 48.56 39.39 C 46.33 42.32 41.31 41.81 39.67 38.52 Z" />
</g>
<g id="#f6cfadff">
<path fill="#f6cfad" opacity="1.00" d=" M 19.51 43.98 C 22.89 44.08 24.93 41.27 26.84 38.95 C 29.68 41.55 34.48 40.37 37.95 39.67 C 39.37 42.06 41.68 44.02 44.61 43.99 C 42.74 46.83 39.56 48.48 36.29 49.15 C 35.87 48.85 35.02 48.25 34.60 47.95 C 35.61 47.02 36.12 45.86 36.13 44.45 C 33.54 45.98 30.49 45.93 27.92 44.42 C 27.97 45.84 28.34 47.18 29.55 48.07 C 26.04 50.22 21.51 46.97 19.51 43.98 Z" />
</g>
<g id="#947452ff">
<path fill="#947452" opacity="1.00" d=" M 27.92 44.42 C 30.49 45.93 33.54 45.98 36.13 44.45 C 36.12 45.86 35.61 47.02 34.60 47.95 C 32.92 48.02 31.23 48.05 29.55 48.07 C 28.34 47.18 27.97 45.84 27.92 44.42 Z" />
</g>
<g id="#000000ff">
<path fill="#000000" opacity="1.00" d=" M 27.56 51.54 C 30.53 51.84 34.11 50.76 36.71 52.09 C 35.66 54.33 32.98 53.62 31.01 53.77 C 29.69 53.81 26.54 53.62 27.56 51.54 Z" />
</g>
</svg>
