<?xml version="1.0" encoding="UTF-8" ?>
<!DOCTYPE svg PUBLIC "-//W3C//DTD SVG 1.1//EN" "http://www.w3.org/Graphics/SVG/1.1/DTD/svg11.dtd">
<svg width="64pt" height="64pt" viewBox="0 0 64 64" version="1.1" xmlns="http://www.w3.org/2000/svg">
<g id="#8d3b309a">
<path fill="#8d3b30" opacity="0.60" d=" M 19.97 3.03 C 22.47 3.27 27.49 3.75 30.00 3.99 C 26.70 4.03 23.41 4.01 20.12 3.99 L 19.97 3.03 Z" />
</g>
<g id="#c84638fa">
<path fill="#c84638" opacity="0.98" d=" M 10.80 14.12 C 10.37 9.02 14.88 3.68 20.12 3.99 C 19.99 4.42 19.75 5.26 19.63 5.68 C 18.78 6.40 17.28 6.80 17.19 8.09 L 17.04 8.74 L 16.81 9.71 C 16.62 11.32 14.95 13.56 17.70 14.31 C 21.40 18.04 26.32 20.02 31.12 21.90 C 30.57 22.16 29.46 22.66 28.91 22.91 C 25.72 21.38 22.22 18.67 18.68 21.01 L 17.93 21.26 C 16.90 21.61 15.76 22.07 15.50 20.59 C 14.90 17.54 10.58 17.52 10.80 14.12 Z" />
</g>
<g id="#ee715df8">
<path fill="#ee715d" opacity="0.97" d=" M 20.12 3.99 C 23.41 4.01 26.70 4.03 30.00 3.99 C 35.61 4.02 41.23 3.84 46.84 4.11 C 47.15 4.56 47.76 5.48 48.07 5.93 C 43.40 5.21 38.69 6.08 34.00 5.92 C 29.21 6.28 24.35 4.36 19.63 5.68 C 19.75 5.26 19.99 4.42 20.12 3.99 Z" />
</g>
<g id="#f4b4a7fe">
<path fill="#f4b4a7" opacity="1.00" d=" M 19.63 5.68 C 24.35 4.36 29.21 6.28 34.00 5.92 C 38.69 6.08 43.40 5.21 48.07 5.93 C 49.25 6.24 49.46 7.19 48.69 8.77 C 47.83 9.88 47.02 11.03 46.22 12.19 C 40.78 11.81 35.18 12.72 29.86 11.22 C 28.18 10.80 26.44 10.32 24.76 11.02 C 24.34 10.69 23.51 10.02 23.09 9.69 L 22.78 9.29 C 21.80 8.03 20.67 6.89 19.63 5.68 Z" />
</g>
<g id="#d09c8cff">
<path fill="#d09c8c" opacity="1.00" d=" M 17.19 8.09 C 17.28 6.80 18.78 6.40 19.63 5.68 C 20.67 6.89 21.80 8.03 22.78 9.29 C 20.97 8.71 19.15 7.81 17.19 8.09 Z" />
</g>
<g id="#77645fff">
<path fill="#77645f" opacity="1.00" d=" M 17.19 8.09 C 19.15 7.81 20.97 8.71 22.78 9.29 L 23.09 9.69 C 21.00 10.37 18.85 9.92 17.04 8.74 L 17.19 8.09 Z" />
</g>
<g id="#483e3dff">
<path fill="#483e3d" opacity="1.00" d=" M 17.04 8.74 C 18.85 9.92 21.00 10.37 23.09 9.69 C 23.51 10.02 24.34 10.69 24.76 11.02 C 26.01 12.44 27.30 13.84 28.69 15.13 C 29.72 17.93 33.08 15.29 34.16 17.06 C 32.66 17.48 30.85 18.64 29.37 17.60 C 25.37 14.67 21.21 12.00 16.81 9.71 L 17.04 8.74 Z" />
</g>
<g id="#261a18fa">
<path fill="#261a18" opacity="0.98" d=" M 46.22 12.19 C 47.02 11.03 47.83 9.88 48.69 8.77 C 49.67 9.82 50.50 11.32 49.71 12.74 C 48.93 14.80 48.10 16.85 47.35 18.93 C 46.08 20.28 44.52 21.31 42.97 22.32 C 42.67 21.73 42.07 20.55 41.77 19.96 C 42.17 17.06 45.36 16.46 45.94 14.08 C 46.01 13.61 46.15 12.66 46.22 12.19 Z" />
</g>
<g id="#16100fff">
<path fill="#16100f" opacity="1.00" d=" M 16.81 9.71 C 21.21 12.00 25.37 14.67 29.37 17.60 C 30.85 18.64 32.66 17.48 34.16 17.06 C 36.02 19.32 33.71 21.05 31.91 22.25 L 31.12 21.90 C 26.32 20.02 21.40 18.04 17.70 14.31 C 14.95 13.56 16.62 11.32 16.81 9.71 Z" />
</g>
<g id="#f0907fff">
<path fill="#f0907f" opacity="1.00" d=" M 24.76 11.02 C 26.44 10.32 28.18 10.80 29.86 11.22 C 35.18 12.72 40.78 11.81 46.22 12.19 C 46.15 12.66 46.01 13.61 45.94 14.08 C 40.38 15.81 34.24 13.17 28.69 15.13 C 27.30 13.84 26.01 12.44 24.76 11.02 Z" />
</g>
<g id="#d25d4cf2">
<path fill="#d25d4c" opacity="0.95" d=" M 47.35 18.93 C 48.10 16.85 48.93 14.80 49.71 12.74 C 49.98 17.73 50.28 22.74 51.13 27.67 C 52.24 27.40 53.32 27.41 54.22 28.23 C 50.57 28.88 47.13 30.22 43.87 31.92 L 43.11 32.06 C 41.75 31.77 35.92 32.78 39.20 30.83 C 40.24 30.72 41.28 30.57 42.30 30.36 C 44.36 30.01 46.59 29.67 48.18 28.20 L 48.40 27.26 C 49.51 24.30 49.16 21.37 47.35 18.93 Z" />
</g>
<g id="#c5372afb">
<path fill="#c5372a" opacity="1.00" d=" M 10.39 26.07 C 10.92 23.55 7.99 14.84 10.80 14.12 C 10.58 17.52 14.90 17.54 15.50 20.59 C 15.76 22.07 16.90 21.61 17.93 21.26 C 17.94 22.46 17.98 23.66 18.05 24.85 C 17.56 27.48 19.53 29.20 21.14 30.92 C 19.11 30.69 17.11 30.28 15.12 29.86 C 13.81 29.19 12.46 28.58 11.16 27.88 C 10.97 27.43 10.58 26.52 10.39 26.07 Z" />
</g>
<g id="#f36550ff">
<path fill="#f36550" opacity="1.00" d=" M 28.69 15.13 C 34.24 13.17 40.38 15.81 45.94 14.08 C 45.36 16.46 42.17 17.06 41.77 19.96 C 40.44 21.53 39.54 24.45 37.00 24.01 C 35.19 23.88 33.56 22.93 31.91 22.25 C 33.71 21.05 36.02 19.32 34.16 17.06 C 33.08 15.29 29.72 17.93 28.69 15.13 Z" />
</g>
<g id="#cfc2a1ff">
<path fill="#cfc2a1" opacity="1.00" d=" M 47.35 18.93 C 49.16 21.37 49.51 24.30 48.40 27.26 C 49.71 23.40 43.53 22.48 43.57 26.24 C 42.55 25.54 41.57 24.79 40.62 23.99 C 41.40 23.42 42.18 22.86 42.97 22.32 C 44.52 21.31 46.08 20.28 47.35 18.93 Z" />
</g>
<g id="#e4d8bdff">
<path fill="#e4d8bd" opacity="1.00" d=" M 18.68 21.01 C 22.22 18.67 25.72 21.38 28.91 22.91 C 28.65 23.19 28.11 23.74 27.85 24.01 C 26.87 24.78 25.90 25.58 24.92 26.36 C 22.29 25.36 19.45 24.00 18.68 21.01 Z" />
</g>
<g id="#e95340ff">
<path fill="#e95340" opacity="1.00" d=" M 37.00 24.01 C 39.54 24.45 40.44 21.53 41.77 19.96 C 42.07 20.55 42.67 21.73 42.97 22.32 C 42.18 22.86 41.40 23.42 40.62 23.99 C 39.93 24.73 39.72 25.69 39.99 26.86 C 40.67 28.09 41.51 29.21 42.30 30.36 C 41.28 30.57 40.24 30.72 39.20 30.83 C 36.28 30.69 33.86 29.92 33.16 27.04 C 33.56 24.17 31.07 23.64 28.91 22.91 C 29.46 22.66 30.57 22.16 31.12 21.90 L 31.91 22.25 C 33.56 22.93 35.19 23.88 37.00 24.01 Z" />
</g>
<g id="#c0af80ff">
<path fill="#c0af80" opacity="1.00" d=" M 17.93 21.26 L 18.68 21.01 C 19.45 24.00 22.29 25.36 24.92 26.36 C 25.00 26.88 25.15 27.93 25.22 28.45 C 22.09 30.06 20.23 26.43 18.05 24.85 C 17.98 23.66 17.94 22.46 17.93 21.26 Z" />
</g>
<g id="#cebd96ff">
<path fill="#cebd96" opacity="1.00" d=" M 28.91 22.91 C 31.07 23.64 33.56 24.17 33.16 27.04 C 32.15 26.74 31.14 26.44 30.14 26.13 C 29.38 25.42 28.62 24.71 27.85 24.01 C 28.11 23.74 28.65 23.19 28.91 22.91 Z" />
</g>
<g id="#11100dff">
<path fill="#11100d" opacity="1.00" d=" M 24.92 26.36 C 25.90 25.58 26.87 24.78 27.85 24.01 C 28.62 24.71 29.38 25.42 30.14 26.13 C 30.16 26.84 30.21 28.26 30.23 28.96 C 28.55 28.86 26.88 28.70 25.22 28.45 C 25.15 27.93 25.00 26.88 24.92 26.36 Z" />
</g>
<g id="#ae9f72ff">
<path fill="#ae9f72" opacity="1.00" d=" M 39.99 26.86 C 39.72 25.69 39.93 24.73 40.62 23.99 C 41.57 24.79 42.55 25.54 43.57 26.24 C 43.72 26.62 44.02 27.37 44.17 27.75 C 42.77 27.48 41.39 27.15 39.99 26.86 Z" />
</g>
<g id="#100f0dff">
<path fill="#100f0d" opacity="1.00" d=" M 43.57 26.24 C 43.53 22.48 49.71 23.40 48.40 27.26 L 48.18 28.20 C 46.84 28.11 45.50 27.96 44.17 27.75 C 44.02 27.37 43.72 26.62 43.57 26.24 Z" />
</g>
<g id="#8e754aff">
<path fill="#8e754a" opacity="1.00" d=" M 18.05 24.85 C 20.23 26.43 22.09 30.06 25.22 28.45 C 26.88 28.70 28.55 28.86 30.23 28.96 C 30.71 29.03 31.66 29.17 32.14 29.23 C 30.58 31.13 28.20 32.00 25.83 32.34 C 24.30 31.76 22.75 31.24 21.14 30.92 C 19.53 29.20 17.56 27.48 18.05 24.85 Z" />
</g>
<g id="#83170eac">
<path fill="#83170e" opacity="0.67" d=" M 10.39 26.07 C 10.58 26.52 10.97 27.43 11.16 27.88 C 11.13 29.53 11.04 31.18 10.90 32.83 C 8.95 31.80 9.80 27.98 10.39 26.07 Z" />
</g>
<g id="#ac9868ff">
<path fill="#ac9868" opacity="1.00" d=" M 30.14 26.13 C 31.14 26.44 32.15 26.74 33.16 27.04 C 32.91 27.58 32.39 28.68 32.14 29.23 C 31.66 29.17 30.71 29.03 30.23 28.96 C 30.21 28.26 30.16 26.84 30.14 26.13 Z" />
</g>
<g id="#dc4130ff">
<path fill="#dc4130" opacity="1.00" d=" M 33.16 27.04 C 33.86 29.92 36.28 30.69 39.20 30.83 C 35.92 32.78 41.75 31.77 43.11 32.06 C 40.29 32.63 37.40 32.87 34.66 33.78 C 31.62 33.92 28.61 33.60 25.83 32.34 C 28.20 32.00 30.58 31.13 32.14 29.23 C 32.39 28.68 32.91 27.58 33.16 27.04 Z" />
</g>
<g id="#906d47ff">
<path fill="#906d47" opacity="1.00" d=" M 39.99 26.86 C 41.39 27.15 42.77 27.48 44.17 27.75 C 45.50 27.96 46.84 28.11 48.18 28.20 C 46.59 29.67 44.36 30.01 42.30 30.36 C 41.51 29.21 40.67 28.09 39.99 26.86 Z" />
</g>
<g id="#b52317fb">
<path fill="#b52317" opacity="1.00" d=" M 11.16 27.88 C 12.46 28.58 13.81 29.19 15.12 29.86 C 16.75 31.80 18.31 33.80 19.99 35.69 C 19.48 35.83 18.45 36.11 17.93 36.25 C 17.08 33.29 12.24 32.29 11.97 35.89 C 11.79 37.00 11.60 38.12 11.41 39.23 C 11.01 37.12 10.87 34.97 10.90 32.83 C 11.04 31.18 11.13 29.53 11.16 27.88 Z" />
</g>
<g id="#d13b2df9">
<path fill="#d13b2d" opacity="0.98" d=" M 54.22 28.23 C 56.01 27.36 57.27 29.38 57.06 30.97 C 52.65 31.12 48.25 31.48 43.87 31.92 C 47.13 30.22 50.57 28.88 54.22 28.23 Z" />
</g>
<g id="#d22919ff">
<path fill="#d22919" opacity="1.00" d=" M 15.12 29.86 C 17.11 30.28 19.11 30.69 21.14 30.92 C 22.75 31.24 24.30 31.76 25.83 32.34 C 28.61 33.60 31.62 33.92 34.66 33.78 C 34.80 34.26 35.09 35.23 35.23 35.71 C 35.27 39.25 35.29 43.04 29.92 42.00 L 29.11 42.15 C 25.86 42.73 23.61 40.64 21.98 38.11 C 21.56 37.09 20.90 36.28 19.99 35.69 C 18.31 33.80 16.75 31.80 15.12 29.86 Z" />
</g>
<g id="#b62e23fb">
<path fill="#b62e23" opacity="1.00" d=" M 43.87 31.92 C 48.25 31.48 52.65 31.12 57.06 30.97 L 58.09 30.97 C 57.77 35.40 53.64 37.74 49.77 38.72 C 47.67 39.33 45.54 39.93 43.33 39.96 C 39.94 39.79 37.47 37.96 35.23 35.71 C 35.09 35.23 34.80 34.26 34.66 33.78 C 37.40 32.87 40.29 32.63 43.11 32.06 L 43.87 31.92 M 53.25 32.35 C 48.76 32.86 44.35 33.75 40.02 35.04 C 40.01 35.53 40.00 36.51 39.99 36.99 C 44.61 37.23 49.25 36.75 53.75 35.72 C 55.70 35.26 55.17 32.01 53.25 32.35 Z" />
</g>
<g id="#a2271eff">
<path fill="#a2271e" opacity="1.00" d=" M 53.25 32.35 C 55.17 32.01 55.70 35.26 53.75 35.72 C 49.25 36.75 44.61 37.23 39.99 36.99 C 40.00 36.51 40.01 35.53 40.02 35.04 C 44.35 33.75 48.76 32.86 53.25 32.35 Z" />
</g>
<g id="#3d3231ff">
<path fill="#3d3231" opacity="1.00" d=" M 11.97 35.89 C 12.24 32.29 17.08 33.29 17.93 36.25 C 18.27 37.85 20.50 39.11 21.98 38.11 C 23.61 40.64 25.86 42.73 29.11 42.15 C 23.18 44.30 16.80 40.51 13.62 35.51 C 13.21 35.60 12.38 35.79 11.97 35.89 Z" />
</g>
<g id="#130b0bfc">
<path fill="#130b0b" opacity="1.00" d=" M 11.97 35.89 C 12.38 35.79 13.21 35.60 13.62 35.51 C 16.80 40.51 23.18 44.30 29.11 42.15 L 29.92 42.00 C 31.02 42.14 32.11 42.31 33.20 42.51 C 29.82 43.92 26.67 45.81 23.94 48.26 C 19.08 50.57 16.03 46.96 12.92 44.05 C 11.64 42.90 11.83 40.82 11.41 39.23 C 11.60 38.12 11.79 37.00 11.97 35.89 Z" />
</g>
<g id="#942d24ff">
<path fill="#942d24" opacity="1.00" d=" M 17.93 36.25 C 18.45 36.11 19.48 35.83 19.99 35.69 C 20.90 36.28 21.56 37.09 21.98 38.11 C 20.50 39.11 18.27 37.85 17.93 36.25 Z" />
</g>
<g id="#911c11ff">
<path fill="#911c11" opacity="1.00" d=" M 35.23 35.71 C 37.47 37.96 39.94 39.79 43.33 39.96 L 43.25 40.82 C 42.15 43.31 42.12 47.92 37.17 44.91 C 35.54 44.41 36.04 41.26 33.20 42.51 C 32.11 42.31 31.02 42.14 29.92 42.00 C 35.29 43.04 35.27 39.25 35.23 35.71 Z" />
</g>
<g id="#211312f6">
<path fill="#211312" opacity="0.96" d=" M 43.33 39.96 C 45.54 39.93 47.67 39.33 49.77 38.72 C 50.15 40.27 50.08 41.98 48.82 43.13 C 47.00 42.26 45.22 41.28 43.25 40.82 L 43.33 39.96 Z" />
</g>
<g id="#c52c19fc">
<path fill="#c52c19" opacity="1.00" d=" M 43.25 40.82 C 45.22 41.28 47.00 42.26 48.82 43.13 C 48.98 45.98 47.85 49.39 45.84 51.37 C 45.77 51.03 45.62 50.35 45.55 50.01 C 46.53 46.82 41.63 44.25 39.00 46.00 C 33.94 45.15 30.11 48.79 26.03 50.98 C 25.32 50.08 24.63 49.17 23.94 48.26 C 26.67 45.81 29.82 43.92 33.20 42.51 C 36.04 41.26 35.54 44.41 37.17 44.91 C 42.12 47.92 42.15 43.31 43.25 40.82 Z" />
</g>
<g id="#9e130bf7">
<path fill="#9e130b" opacity="0.97" d=" M 12.92 44.05 C 16.03 46.96 19.08 50.57 23.94 48.26 C 24.63 49.17 25.32 50.08 26.03 50.98 C 27.24 53.15 29.29 50.14 30.89 49.82 C 29.93 51.25 28.85 52.59 27.94 54.05 C 29.44 56.19 31.71 57.67 33.29 59.77 C 26.98 59.86 20.86 55.84 16.72 51.29 C 14.68 49.39 12.74 47.01 12.92 44.05 Z" />
</g>
<g id="#e5c479ff">
<path fill="#e5c479" opacity="1.00" d=" M 26.03 50.98 C 30.11 48.79 33.94 45.15 39.00 46.00 C 41.63 44.25 46.53 46.82 45.55 50.01 C 41.68 45.71 35.21 46.94 30.89 49.82 C 29.29 50.14 27.24 53.15 26.03 50.98 Z" />
</g>
<g id="#9c2819ff">
<path fill="#9c2819" opacity="1.00" d=" M 30.89 49.82 C 35.21 46.94 41.68 45.71 45.55 50.01 C 40.70 48.90 35.75 48.81 30.89 49.82 Z" />
</g>
<g id="#c3190efa">
<path fill="#c3190e" opacity="0.98" d=" M 30.89 49.82 C 35.75 48.81 40.70 48.90 45.55 50.01 C 45.62 50.35 45.77 51.03 45.84 51.37 C 45.05 56.62 39.02 63.89 33.29 59.77 C 31.71 57.67 29.44 56.19 27.94 54.05 C 28.85 52.59 29.93 51.25 30.89 49.82 Z" />
</g>
</svg>
