<?xml version="1.0" encoding="UTF-8" ?>
<!DOCTYPE svg PUBLIC "-//W3C//DTD SVG 1.1//EN" "http://www.w3.org/Graphics/SVG/1.1/DTD/svg11.dtd">
<svg width="64pt" height="64pt" viewBox="0 0 64 64" version="1.1" xmlns="http://www.w3.org/2000/svg">
<g id="#b0392be9">
<path fill="#b0392b" opacity="0.91" d=" M 18.06 5.89 C 16.29 4.09 16.19 -0.56 19.74 1.17 C 20.81 3.50 22.14 5.78 22.37 8.39 C 20.48 9.19 19.13 7.12 18.06 5.89 Z" />
</g>
<g id="#a33023e5">
<path fill="#a33023" opacity="0.90" d=" M 41.98 8.15 C 43.81 5.60 43.87 0.14 48.01 0.98 C 48.00 4.14 47.21 7.33 45.95 10.21 C 44.56 9.78 43.17 9.36 41.75 9.01 L 41.98 8.15 Z" />
</g>
<g id="#170a0179">
<path fill="#170a01" opacity="0.47" d=" M 26.91 4.97 C 32.07 5.66 37.35 5.42 41.98 8.15 L 41.75 9.01 C 37.36 7.51 32.71 7.11 28.10 6.88 C 27.80 6.40 27.20 5.44 26.91 4.97 Z" />
</g>
<g id="#801d11eb">
<path fill="#801d11" opacity="0.92" d=" M 18.06 5.89 C 19.13 7.12 20.48 9.19 22.37 8.39 L 23.17 8.24 C 23.05 8.69 22.83 9.57 22.71 10.02 C 21.39 10.09 20.08 10.18 18.76 10.29 C 18.54 9.72 18.10 8.58 17.88 8.01 C 17.93 7.48 18.02 6.42 18.06 5.89 Z" />
</g>
<g id="#301705eb">
<path fill="#301705" opacity="0.92" d=" M 23.17 8.24 C 24.71 7.47 26.34 6.76 28.10 6.88 C 32.71 7.11 37.36 7.51 41.75 9.01 C 42.10 11.00 44.36 12.38 46.24 11.41 C 46.45 11.54 46.87 11.79 47.08 11.92 C 48.17 14.04 50.22 15.34 51.98 16.85 C 53.84 18.33 54.96 20.52 56.67 22.17 C 55.21 25.07 57.67 27.48 58.74 30.03 C 58.28 33.09 57.94 36.17 57.27 39.19 C 57.15 39.84 56.90 41.13 56.78 41.78 C 55.37 44.93 53.86 48.06 52.01 50.98 C 50.49 52.83 48.64 54.35 46.87 55.95 C 45.16 56.89 43.45 57.83 41.76 58.80 L 41.05 59.11 C 38.73 59.89 36.34 60.44 33.95 60.96 C 25.93 62.89 19.54 55.55 12.11 53.76 C 13.72 50.35 9.60 48.41 8.19 45.71 C 9.41 42.92 7.98 40.24 6.30 38.02 C 4.86 36.97 5.66 35.44 6.09 34.10 C 7.75 27.46 9.73 20.91 12.93 14.93 C 13.05 13.69 13.63 12.07 15.13 12.05 C 16.46 11.81 17.78 11.49 19.08 11.10 C 20.05 12.32 20.93 13.63 20.27 15.23 L 19.63 15.86 C 18.07 16.92 16.65 18.19 15.72 19.86 C 13.95 23.62 13.41 27.82 12.60 31.86 C 11.96 39.00 13.21 48.18 19.79 52.39 C 22.23 54.03 24.79 55.75 27.75 56.25 C 30.56 56.96 33.50 57.35 36.29 56.41 C 38.96 55.91 41.66 55.09 43.85 53.42 C 51.72 48.11 53.25 37.48 51.35 28.79 C 51.25 28.08 51.05 26.67 50.95 25.97 C 50.43 23.98 50.39 21.73 49.31 19.98 C 49.05 19.68 48.52 19.08 48.25 18.79 C 47.98 18.50 47.43 17.94 47.16 17.65 C 42.47 11.84 33.71 13.39 27.21 13.30 C 24.88 13.52 23.19 12.32 22.71 10.02 C 22.83 9.57 23.05 8.69 23.17 8.24 Z" />
</g>
<g id="#0f07014f">
<path fill="#0f0701" opacity="0.31" d=" M 15.13 12.05 C 12.53 9.87 16.18 8.92 17.88 8.01 C 18.10 8.58 18.54 9.72 18.76 10.29 L 19.08 11.10 C 17.78 11.49 16.46 11.81 15.13 12.05 Z" />
</g>
<g id="#5b1e0ffe">
<path fill="#5b1e0f" opacity="1.00" d=" M 41.75 9.01 C 43.17 9.36 44.56 9.78 45.95 10.21 L 46.24 11.41 C 44.36 12.38 42.10 11.00 41.75 9.01 Z" />
</g>
<g id="#4d220ffe">
<path fill="#4d220f" opacity="1.00" d=" M 18.76 10.29 C 20.08 10.18 21.39 10.09 22.71 10.02 C 23.19 12.32 24.88 13.52 27.21 13.30 C 24.91 13.98 22.59 14.61 20.27 15.23 C 20.93 13.63 20.05 12.32 19.08 11.10 L 18.76 10.29 Z" />
</g>
<g id="#1e0e02a0">
<path fill="#1e0e02" opacity="0.63" d=" M 47.08 11.92 C 49.01 12.53 50.99 12.98 53.01 13.20 C 52.78 14.45 52.35 15.64 51.98 16.85 C 50.22 15.34 48.17 14.04 47.08 11.92 Z" />
</g>
<g id="#ec816dff">
<path fill="#ec816d" opacity="1.00" d=" M 27.21 13.30 C 33.71 13.39 42.47 11.84 47.16 17.65 C 40.17 20.08 32.62 20.76 25.32 19.61 C 23.33 18.51 20.17 18.50 19.63 15.86 L 20.27 15.23 C 22.59 14.61 24.91 13.98 27.21 13.30 Z" />
</g>
<g id="#150a016e">
<path fill="#150a01" opacity="0.43" d=" M 5.08 34.02 C 6.29 27.50 6.18 18.09 12.93 14.93 C 9.73 20.91 7.75 27.46 6.09 34.10 L 5.08 34.02 Z" />
</g>
<g id="#e86953ff">
<path fill="#e86953" opacity="1.00" d=" M 15.72 19.86 C 16.65 18.19 18.07 16.92 19.63 15.86 C 20.17 18.50 23.33 18.51 25.32 19.61 C 32.62 20.76 40.17 20.08 47.16 17.65 C 47.43 17.94 47.98 18.50 48.25 18.79 C 40.30 24.42 29.93 21.17 20.87 22.10 C 19.38 20.87 17.77 19.44 15.86 20.82 L 15.72 19.86 Z" />
</g>
<g id="#dd513aff">
<path fill="#dd513a" opacity="1.00" d=" M 20.87 22.10 C 29.93 21.17 40.30 24.42 48.25 18.79 C 48.52 19.08 49.05 19.68 49.31 19.98 C 47.49 20.92 45.61 21.76 43.87 22.85 C 36.43 22.09 27.85 24.83 20.87 22.10 Z" />
</g>
<g id="#c05641fe">
<path fill="#c05641" opacity="1.00" d=" M 12.60 31.86 C 13.41 27.82 13.95 23.62 15.72 19.86 L 15.86 20.82 C 17.05 25.26 17.08 29.85 17.78 34.37 C 17.67 34.80 17.45 35.66 17.34 36.09 C 16.65 35.27 15.89 34.52 15.07 33.84 C 13.93 33.52 12.69 33.36 12.60 31.86 Z" />
</g>
<g id="#ce422dff">
<path fill="#ce422d" opacity="1.00" d=" M 15.86 20.82 C 17.77 19.44 19.38 20.87 20.87 22.10 C 27.85 24.83 36.43 22.09 43.87 22.85 C 43.60 23.37 43.05 24.40 42.78 24.92 C 40.93 25.12 39.10 25.45 37.27 25.76 C 33.86 25.14 30.44 25.03 27.00 25.43 C 23.51 24.22 18.81 25.69 18.99 30.02 C 19.18 31.06 19.40 32.09 19.68 33.12 C 19.20 33.43 18.25 34.05 17.78 34.37 C 17.08 29.85 17.05 25.26 15.86 20.82 Z" />
</g>
<g id="#b43c29ff">
<path fill="#b43c29" opacity="1.00" d=" M 49.31 19.98 C 50.39 21.73 50.43 23.98 50.95 25.97 C 50.53 25.79 49.70 25.43 49.28 25.25 C 47.17 28.50 47.71 32.39 47.14 36.05 C 45.42 37.51 40.94 39.78 45.07 41.26 C 44.71 41.66 44.00 42.45 43.65 42.84 C 42.74 43.72 42.02 44.74 41.92 46.04 C 41.60 47.55 41.29 49.08 40.25 50.27 C 40.03 49.65 39.61 48.41 39.39 47.79 C 39.03 44.38 36.40 47.42 35.03 48.37 C 33.76 48.37 32.49 48.26 31.22 48.23 C 31.04 49.55 30.86 50.87 30.71 52.19 C 29.43 51.02 28.93 49.38 28.35 47.81 C 28.31 46.14 26.89 45.59 25.78 46.84 C 24.68 46.64 23.58 46.37 22.49 46.13 C 22.01 44.91 21.46 43.72 20.83 42.58 C 19.70 40.39 18.64 38.18 17.34 36.09 C 17.45 35.66 17.67 34.80 17.78 34.37 C 18.25 34.05 19.20 33.43 19.68 33.12 C 22.55 35.86 28.92 35.91 29.07 31.07 C 29.26 28.94 28.15 27.11 27.00 25.43 C 30.44 25.03 33.86 25.14 37.27 25.76 C 36.68 27.49 36.00 29.22 35.93 31.07 C 35.66 33.13 37.68 34.18 39.09 35.19 C 42.73 35.91 47.77 31.77 45.42 28.10 C 44.57 27.02 43.66 25.98 42.78 24.92 C 43.05 24.40 43.60 23.37 43.87 22.85 C 45.61 21.76 47.49 20.92 49.31 19.98 M 31.03 33.09 L 30.03 32.99 C 30.00 34.75 29.95 38.28 29.92 40.05 C 32.86 41.96 35.80 38.93 34.94 35.82 C 34.77 33.48 32.90 31.54 32.83 29.10 C 31.33 29.39 31.77 31.91 31.03 33.09 M 25.91 40.15 C 25.44 43.23 28.30 46.26 32.00 44.01 C 35.09 45.69 38.76 43.21 39.13 40.20 C 37.60 41.35 35.09 39.37 34.58 41.64 C 33.60 44.47 29.61 42.80 29.92 40.05 C 28.63 40.90 27.26 40.84 25.91 40.15 Z" />
</g>
<g id="#0f070151">
<path fill="#0f0701" opacity="0.32" d=" M 56.67 22.17 C 58.98 22.29 60.02 25.38 61.77 26.71 C 60.22 27.24 59.64 28.81 58.74 30.03 C 57.67 27.48 55.21 25.07 56.67 22.17 Z" />
<path fill="#0f0701" opacity="0.32" d=" M 6.30 38.02 C 7.98 40.24 9.41 42.92 8.19 45.71 C 5.87 45.57 4.99 41.84 3.11 40.32 C 4.38 39.87 5.37 38.97 6.30 38.02 Z" />
</g>
<g id="#f2b9adff">
<path fill="#f2b9ad" opacity="1.00" d=" M 18.99 30.02 C 18.81 25.69 23.51 24.22 27.00 25.43 C 28.15 27.11 29.26 28.94 29.07 31.07 C 28.63 30.77 27.76 30.16 27.32 29.85 C 26.17 28.70 24.49 28.92 23.02 29.03 C 21.65 29.26 20.33 29.67 18.99 30.02 Z" />
</g>
<g id="#f3beb2ff">
<path fill="#f3beb2" opacity="1.00" d=" M 37.27 25.76 C 39.10 25.45 40.93 25.12 42.78 24.92 C 43.66 25.98 44.57 27.02 45.42 28.10 C 44.30 28.49 43.17 28.81 42.02 29.06 C 40.57 29.19 38.87 28.77 37.68 29.85 C 37.24 30.16 36.37 30.77 35.93 31.07 C 36.00 29.22 36.68 27.49 37.27 25.76 Z" />
</g>
<g id="#c65944fe">
<path fill="#c65944" opacity="1.00" d=" M 49.28 25.25 C 49.70 25.43 50.53 25.79 50.95 25.97 C 51.05 26.67 51.25 28.08 51.35 28.79 C 51.09 30.17 50.81 31.54 50.54 32.92 C 49.47 34.03 48.36 35.11 47.14 36.05 C 47.71 32.39 47.17 28.50 49.28 25.25 Z" />
</g>
<g id="#d98982ff">
<path fill="#d98982" opacity="1.00" d=" M 45.42 28.10 C 47.77 31.77 42.73 35.91 39.09 35.19 L 38.96 34.33 C 41.45 33.58 43.73 31.73 42.02 29.06 C 43.17 28.81 44.30 28.49 45.42 28.10 Z" />
</g>
<g id="#d37f78ff">
<path fill="#d37f78" opacity="1.00" d=" M 18.99 30.02 C 20.33 29.67 21.65 29.26 23.02 29.03 C 21.75 31.16 22.68 33.31 25.00 34.08 C 26.99 33.79 27.02 31.39 27.32 29.85 C 27.76 30.16 28.63 30.77 29.07 31.07 C 28.92 35.91 22.55 35.86 19.68 33.12 C 19.40 32.09 19.18 31.06 18.99 30.02 Z" />
</g>
<g id="#4b240fff">
<path fill="#4b240f" opacity="1.00" d=" M 23.02 29.03 C 24.49 28.92 26.17 28.70 27.32 29.85 C 27.02 31.39 26.99 33.79 25.00 34.08 C 22.68 33.31 21.75 31.16 23.02 29.03 Z" />
<path fill="#4b240f" opacity="1.00" d=" M 37.68 29.85 C 38.87 28.77 40.57 29.19 42.02 29.06 C 43.73 31.73 41.45 33.58 38.96 34.33 C 38.50 32.85 38.06 31.36 37.68 29.85 Z" />
</g>
<g id="#f09773ff">
<path fill="#f09773" opacity="1.00" d=" M 31.03 33.09 C 31.77 31.91 31.33 29.39 32.83 29.10 C 32.90 31.54 34.77 33.48 34.94 35.82 C 34.00 36.79 33.60 38.71 32.12 38.91 C 30.43 37.46 31.19 35.03 31.03 33.09 Z" />
</g>
<g id="#a24333fe">
<path fill="#a24333" opacity="1.00" d=" M 51.35 28.79 C 53.25 37.48 51.72 48.11 43.85 53.42 C 43.20 52.12 44.38 51.11 44.89 50.01 C 43.49 49.95 40.86 51.92 40.25 50.27 C 41.29 49.08 41.60 47.55 41.92 46.04 C 42.93 46.15 44.70 47.86 45.24 46.30 C 46.51 44.68 47.05 42.75 46.80 40.71 C 47.78 40.19 48.33 40.61 48.43 41.97 C 51.36 39.88 50.94 36.11 50.54 32.92 C 50.81 31.54 51.09 30.17 51.35 28.79 Z" />
</g>
<g id="#cb7168ff">
<path fill="#cb7168" opacity="1.00" d=" M 35.93 31.07 C 36.37 30.77 37.24 30.16 37.68 29.85 C 38.06 31.36 38.50 32.85 38.96 34.33 L 39.09 35.19 C 37.68 34.18 35.66 33.13 35.93 31.07 Z" />
</g>
<g id="#180b0181">
<path fill="#180b01" opacity="0.51" d=" M 58.74 30.03 C 59.79 30.14 60.56 30.72 61.07 31.75 C 56.26 31.56 62.30 38.28 57.99 39.02 L 57.27 39.19 C 57.94 36.17 58.28 33.09 58.74 30.03 Z" />
</g>
<g id="#8e4132fc">
<path fill="#8e4132" opacity="1.00" d=" M 19.79 52.39 C 13.21 48.18 11.96 39.00 12.60 31.86 C 12.69 33.36 13.93 33.52 15.07 33.84 C 12.82 40.54 16.50 46.84 19.79 52.39 Z" />
</g>
<g id="#df614aff">
<path fill="#df614a" opacity="1.00" d=" M 30.03 32.99 L 31.03 33.09 C 31.19 35.03 30.43 37.46 32.12 38.91 C 33.60 38.71 34.00 36.79 34.94 35.82 C 35.80 38.93 32.86 41.96 29.92 40.05 C 29.95 38.28 30.00 34.75 30.03 32.99 Z" />
</g>
<g id="#973121ff">
<path fill="#973121" opacity="1.00" d=" M 50.54 32.92 C 50.94 36.11 51.36 39.88 48.43 41.97 C 48.33 40.61 47.78 40.19 46.80 40.71 C 46.36 40.85 45.50 41.12 45.07 41.26 C 40.94 39.78 45.42 37.51 47.14 36.05 C 48.36 35.11 49.47 34.03 50.54 32.92 Z" />
</g>
<g id="#873225ff">
<path fill="#873225" opacity="1.00" d=" M 15.07 33.84 C 15.89 34.52 16.65 35.27 17.34 36.09 C 18.64 38.18 19.70 40.39 20.83 42.58 C 19.77 44.76 19.14 48.59 22.49 46.13 C 23.58 46.37 24.68 46.64 25.78 46.84 C 24.45 48.08 23.35 49.48 25.06 50.96 C 26.20 49.95 27.27 48.88 28.35 47.81 C 28.93 49.38 29.43 51.02 30.71 52.19 C 30.86 50.87 31.04 49.55 31.22 48.23 C 32.49 48.26 33.76 48.37 35.03 48.37 C 35.06 49.05 35.12 50.40 35.15 51.08 C 37.00 50.69 38.03 48.93 39.39 47.79 C 39.61 48.41 40.03 49.65 40.25 50.27 C 40.86 51.92 43.49 49.95 44.89 50.01 C 44.38 51.11 43.20 52.12 43.85 53.42 C 41.66 55.09 38.96 55.91 36.29 56.41 C 33.44 56.32 30.59 56.27 27.75 56.25 C 24.79 55.75 22.23 54.03 19.79 52.39 C 16.50 46.84 12.82 40.54 15.07 33.84 Z" />
</g>
<g id="#0c060045">
<path fill="#0c0600" opacity="0.27" d=" M 57.27 39.19 L 57.99 39.02 C 59.83 40.99 59.13 44.73 57.03 46.10 C 56.95 44.66 56.87 43.22 56.78 41.78 C 56.90 41.13 57.15 39.84 57.27 39.19 Z" />
</g>
<g id="#890c06ff">
<path fill="#890c06" opacity="1.00" d=" M 25.91 40.15 C 27.26 40.84 28.63 40.90 29.92 40.05 C 29.61 42.80 33.60 44.47 34.58 41.64 C 35.09 39.37 37.60 41.35 39.13 40.20 C 38.76 43.21 35.09 45.69 32.00 44.01 C 28.30 46.26 25.44 43.23 25.91 40.15 Z" />
</g>
<g id="#662018ff">
<path fill="#662018" opacity="1.00" d=" M 45.07 41.26 C 45.50 41.12 46.36 40.85 46.80 40.71 C 47.05 42.75 46.51 44.68 45.24 46.30 C 44.69 45.15 44.16 44.00 43.65 42.84 C 44.00 42.45 44.71 41.66 45.07 41.26 Z" />
</g>
<g id="#180b017f">
<path fill="#180b01" opacity="0.50" d=" M 52.01 50.98 C 53.86 48.06 55.37 44.93 56.78 41.78 C 56.87 43.22 56.95 44.66 57.03 46.10 C 56.37 48.35 54.48 51.75 51.98 51.95 L 52.01 50.98 Z" />
</g>
<g id="#c7bebdff">
<path fill="#c7bebd" opacity="1.00" d=" M 22.49 46.13 C 19.14 48.59 19.77 44.76 20.83 42.58 C 21.46 43.72 22.01 44.91 22.49 46.13 Z" />
</g>
<g id="#bfb0aeff">
<path fill="#bfb0ae" opacity="1.00" d=" M 41.92 46.04 C 42.02 44.74 42.74 43.72 43.65 42.84 C 44.16 44.00 44.69 45.15 45.24 46.30 C 44.70 47.86 42.93 46.15 41.92 46.04 Z" />
</g>
<g id="#b8a29fff">
<path fill="#b8a29f" opacity="1.00" d=" M 25.78 46.84 C 26.89 45.59 28.31 46.14 28.35 47.81 C 27.27 48.88 26.20 49.95 25.06 50.96 C 23.35 49.48 24.45 48.08 25.78 46.84 Z" />
</g>
<g id="#b39f9cff">
<path fill="#b39f9c" opacity="1.00" d=" M 35.03 48.37 C 36.40 47.42 39.03 44.38 39.39 47.79 C 38.03 48.93 37.00 50.69 35.15 51.08 C 35.12 50.40 35.06 49.05 35.03 48.37 Z" />
</g>
<g id="#231002b3">
<path fill="#231002" opacity="0.70" d=" M 46.87 55.95 C 48.64 54.35 50.49 52.83 52.01 50.98 L 51.98 51.95 C 52.24 53.36 51.53 54.76 50.07 55.08 C 49.01 55.39 47.94 55.68 46.87 55.95 Z" />
</g>
<g id="#10070156">
<path fill="#100701" opacity="0.34" d=" M 46.87 55.95 C 47.94 55.68 49.01 55.39 50.07 55.08 C 51.03 60.20 45.25 59.24 41.76 58.80 C 43.45 57.83 45.16 56.89 46.87 55.95 Z" />
</g>
<g id="#4f2918f8">
<path fill="#4f2918" opacity="0.97" d=" M 27.75 56.25 C 30.59 56.27 33.44 56.32 36.29 56.41 C 33.50 57.35 30.56 56.96 27.75 56.25 Z" />
</g>
<g id="#1108016a">
<path fill="#110801" opacity="0.42" d=" M 33.95 60.96 C 36.34 60.44 38.73 59.89 41.05 59.11 C 41.81 61.85 38.73 60.74 37.11 61.06 C 39.62 64.07 34.09 63.54 33.95 60.96 Z" />
</g>
</svg>
