<?xml version="1.0" encoding="UTF-8" ?>
<!DOCTYPE svg PUBLIC "-//W3C//DTD SVG 1.1//EN" "http://www.w3.org/Graphics/SVG/1.1/DTD/svg11.dtd">
<svg width="64pt" height="64pt" viewBox="0 0 64 64" version="1.1" xmlns="http://www.w3.org/2000/svg">
<g id="#3b0d03ff">
<path fill="#3b0d03" opacity="1.00" d=" M 13.46 0.00 L 13.81 0.00 C 13.93 1.35 14.04 2.71 14.12 4.06 C 14.03 4.75 13.84 6.12 13.74 6.81 C 13.14 10.30 12.44 13.85 13.19 17.38 C 13.66 21.39 12.95 25.45 13.70 29.42 C 14.04 28.84 14.71 27.69 15.05 27.12 C 15.53 29.46 16.14 31.77 16.85 34.05 C 18.28 39.46 21.77 44.20 26.74 46.85 C 26.63 47.85 26.53 48.85 26.43 49.85 C 26.39 50.35 26.31 51.33 26.27 51.83 L 26.17 53.53 C 26.04 53.18 25.80 52.47 25.67 52.12 C 25.64 51.36 25.58 49.84 25.55 49.08 C 24.79 49.10 23.27 49.14 22.51 49.16 C 20.44 48.44 18.27 47.82 16.47 46.52 C 14.23 44.04 12.58 41.08 10.25 38.67 C 9.98 31.89 9.66 25.03 10.32 18.27 C 12.21 12.35 14.03 6.31 13.46 0.00 Z" />
<path fill="#3b0d03" opacity="1.00" d=" M 50.12 0.00 L 50.58 0.00 C 50.59 3.09 50.50 6.23 51.14 9.27 C 51.88 13.55 54.21 17.51 54.01 21.96 C 53.99 27.47 54.14 32.99 53.75 38.49 C 51.84 40.71 50.20 43.13 48.45 45.48 C 46.85 47.75 43.83 48.08 41.44 49.11 C 40.97 48.98 40.01 48.73 39.53 48.60 C 38.69 48.39 37.84 48.18 37.00 47.97 C 37.11 47.69 37.33 47.11 37.44 46.82 C 42.18 43.99 45.80 39.49 47.10 34.08 C 47.80 31.83 48.43 29.57 48.97 27.29 C 49.41 27.74 50.30 28.63 50.74 29.07 C 50.73 25.48 50.54 21.89 50.76 18.31 C 52.20 13.32 50.02 8.43 49.98 3.44 C 50.02 2.30 50.06 1.15 50.12 0.00 Z" />
</g>
<g id="#a97748ee">
<path fill="#a97748" opacity="0.93" d=" M 13.81 0.00 L 19.21 0.00 C 19.21 0.41 19.20 1.22 19.20 1.62 C 18.32 1.57 16.57 1.45 15.69 1.39 C 15.15 2.27 14.63 3.16 14.12 4.06 C 14.04 2.71 13.93 1.35 13.81 0.00 Z" />
<path fill="#a97748" opacity="0.93" d=" M 44.24 0.00 L 50.12 0.00 C 50.06 1.15 50.02 2.30 49.98 3.44 C 48.32 2.90 46.65 2.43 45.00 1.89 C 44.81 1.41 44.43 0.47 44.24 0.00 Z" />
</g>
<g id="#68220fff">
<path fill="#68220f" opacity="1.00" d=" M 19.21 0.00 L 19.93 0.00 C 19.83 1.59 19.72 3.18 19.59 4.76 C 23.96 3.44 28.53 4.23 32.97 3.50 C 36.84 2.84 40.71 3.82 44.40 4.88 C 44.31 3.26 44.21 1.63 44.12 -0.00 L 44.24 0.00 C 44.43 0.47 44.81 1.41 45.00 1.89 C 44.90 4.14 44.73 6.40 44.47 8.64 C 44.39 9.22 44.25 10.37 44.18 10.95 C 43.66 9.69 43.14 8.43 42.62 7.16 C 36.56 5.69 30.21 6.05 24.11 7.02 C 21.92 7.19 20.90 9.27 19.74 10.82 C 19.68 10.31 19.56 9.28 19.50 8.77 C 19.43 7.89 19.30 6.14 19.23 5.26 C 19.20 4.05 19.19 2.84 19.20 1.62 C 19.20 1.22 19.21 0.41 19.21 0.00 Z" />
</g>
<g id="#cea37cff">
<path fill="#cea37c" opacity="1.00" d=" M 14.12 4.06 C 14.63 3.16 15.15 2.27 15.69 1.39 C 16.57 1.45 18.32 1.57 19.20 1.62 C 19.19 2.84 19.20 4.05 19.23 5.26 C 17.36 5.61 15.52 6.14 13.74 6.81 C 13.84 6.12 14.03 4.75 14.12 4.06 Z" />
</g>
<g id="#d6b493ff">
<path fill="#d6b493" opacity="1.00" d=" M 45.00 1.89 C 46.65 2.43 48.32 2.90 49.98 3.44 C 50.02 8.43 52.20 13.32 50.76 18.31 C 50.57 15.70 50.58 12.95 49.45 10.54 C 48.06 9.37 46.11 9.26 44.47 8.64 C 44.73 6.40 44.90 4.14 45.00 1.89 Z" />
</g>
<g id="#e2c1a2ff">
<path fill="#e2c1a2" opacity="1.00" d=" M 13.74 6.81 C 15.52 6.14 17.36 5.61 19.23 5.26 C 19.30 6.14 19.43 7.89 19.50 8.77 C 17.95 9.46 16.34 10.04 14.90 10.94 C 13.89 12.94 13.58 15.20 13.19 17.38 C 12.44 13.85 13.14 10.30 13.74 6.81 Z" />
</g>
<g id="#8b3820ff">
<path fill="#8b3820" opacity="1.00" d=" M 24.11 7.02 C 30.21 6.05 36.56 5.69 42.62 7.16 C 43.14 8.43 43.66 9.69 44.18 10.95 C 43.45 11.67 42.73 12.40 42.02 13.12 C 41.87 11.85 41.70 10.58 41.54 9.31 C 35.72 7.45 29.46 8.37 24.22 11.42 C 28.60 15.01 34.08 17.73 39.88 17.38 C 41.88 17.27 43.87 17.11 45.87 17.00 C 45.86 17.64 45.84 18.93 45.84 19.57 C 43.68 20.07 41.53 20.55 39.35 20.91 C 35.14 19.86 30.51 19.76 26.79 17.31 C 26.52 17.12 25.98 16.74 25.71 16.55 C 25.70 16.28 25.68 15.74 25.67 15.47 C 25.64 15.07 25.59 14.26 25.56 13.85 C 23.33 13.48 21.09 12.78 19.74 10.82 C 20.90 9.27 21.92 7.19 24.11 7.02 Z" />
</g>
<g id="#9d482dff">
<path fill="#9d482d" opacity="1.00" d=" M 24.22 11.42 C 29.46 8.37 35.72 7.45 41.54 9.31 C 41.70 10.58 41.87 11.85 42.02 13.12 C 40.73 13.39 39.44 13.64 38.15 13.92 C 38.36 14.32 38.77 15.13 38.98 15.53 C 39.20 15.99 39.65 16.91 39.88 17.38 C 34.08 17.73 28.60 15.01 24.22 11.42 Z" />
</g>
<g id="#f6d9beff">
<path fill="#f6d9be" opacity="1.00" d=" M 14.90 10.94 C 16.34 10.04 17.95 9.46 19.50 8.77 C 19.56 9.28 19.68 10.31 19.74 10.82 C 21.09 12.78 23.33 13.48 25.56 13.85 C 25.59 14.26 25.64 15.07 25.67 15.47 C 22.65 16.00 18.05 13.85 16.36 17.40 C 15.42 20.55 15.48 23.88 15.05 27.12 C 14.71 27.69 14.04 28.84 13.70 29.42 C 12.95 25.45 13.66 21.39 13.19 17.38 C 13.58 15.20 13.89 12.94 14.90 10.94 Z" />
<path fill="#f6d9be" opacity="1.00" d=" M 44.47 8.64 C 46.11 9.26 48.06 9.37 49.45 10.54 C 50.58 12.95 50.57 15.70 50.76 18.31 C 50.54 21.89 50.73 25.48 50.74 29.07 C 50.30 28.63 49.41 27.74 48.97 27.29 C 48.58 23.98 48.66 20.56 47.65 17.36 C 46.08 13.97 41.83 15.95 38.98 15.53 C 38.77 15.13 38.36 14.32 38.15 13.92 C 39.44 13.64 40.73 13.39 42.02 13.12 C 42.73 12.40 43.45 11.67 44.18 10.95 C 44.25 10.37 44.39 9.22 44.47 8.64 Z" />
</g>
<g id="#6d2a16ff">
<path fill="#6d2a16" opacity="1.00" d=" M 16.36 17.40 C 18.05 13.85 22.65 16.00 25.67 15.47 C 25.68 15.74 25.70 16.28 25.71 16.55 C 24.33 18.02 22.63 19.11 20.79 19.90 C 19.83 20.49 18.49 20.84 18.09 22.03 C 16.67 25.85 16.64 30.04 16.85 34.05 C 16.14 31.77 15.53 29.46 15.05 27.12 C 15.48 23.88 15.42 20.55 16.36 17.40 Z" />
</g>
<g id="#722a16ff">
<path fill="#722a16" opacity="1.00" d=" M 38.98 15.53 C 41.83 15.95 46.08 13.97 47.65 17.36 C 48.66 20.56 48.58 23.98 48.97 27.29 C 48.43 29.57 47.80 31.83 47.10 34.08 C 47.29 30.58 47.84 26.55 45.43 23.65 C 44.05 22.84 42.65 22.07 41.19 21.41 C 40.73 21.28 39.81 21.03 39.35 20.91 C 41.53 20.55 43.68 20.07 45.84 19.57 C 45.84 18.93 45.86 17.64 45.87 17.00 C 43.87 17.11 41.88 17.27 39.88 17.38 C 39.65 16.91 39.20 15.99 38.98 15.53 Z" />
</g>
<g id="#ebb993ff">
<path fill="#ebb993" opacity="1.00" d=" M 25.71 16.55 C 25.98 16.74 26.52 17.12 26.79 17.31 C 24.71 19.93 23.28 22.99 22.89 26.34 C 24.97 27.11 27.12 27.74 29.11 28.73 C 27.00 29.81 24.70 30.13 22.36 29.85 C 22.49 30.40 22.62 30.96 22.76 31.51 C 23.09 35.30 26.08 37.74 28.88 39.86 C 30.80 41.65 33.67 41.92 35.48 39.81 C 37.89 37.43 41.50 35.25 41.41 31.44 C 41.45 30.91 41.49 30.39 41.52 29.86 C 39.19 30.16 36.90 29.78 34.83 28.64 C 36.57 27.90 38.42 27.46 40.23 26.95 C 40.56 25.10 40.88 23.26 41.19 21.41 C 42.65 22.07 44.05 22.84 45.43 23.65 C 45.48 28.32 45.71 33.25 43.48 37.53 C 41.07 42.48 35.64 46.58 29.89 45.35 C 23.77 43.97 19.68 38.02 18.77 32.06 C 17.86 27.89 19.16 23.71 20.79 19.90 C 22.63 19.11 24.33 18.02 25.71 16.55 Z" />
</g>
<g id="#fadfc6ff">
<path fill="#fadfc6" opacity="1.00" d=" M 22.89 26.34 C 23.28 22.99 24.71 19.93 26.79 17.31 C 30.51 19.76 35.14 19.86 39.35 20.91 C 39.81 21.03 40.73 21.28 41.19 21.41 C 40.88 23.26 40.56 25.10 40.23 26.95 C 38.42 27.46 36.57 27.90 34.83 28.64 C 35.03 29.17 35.44 30.22 35.64 30.75 C 33.22 30.44 30.77 30.45 28.36 30.76 C 28.55 30.25 28.92 29.24 29.11 28.73 C 27.12 27.74 24.97 27.11 22.89 26.34 Z" />
</g>
<g id="#ac8057ff">
<path fill="#ac8057" opacity="1.00" d=" M 18.09 22.03 C 18.49 20.84 19.83 20.49 20.79 19.90 C 19.16 23.71 17.86 27.89 18.77 32.06 C 19.68 38.02 23.77 43.97 29.89 45.35 C 35.64 46.58 41.07 42.48 43.48 37.53 C 45.71 33.25 45.48 28.32 45.43 23.65 C 47.84 26.55 47.29 30.58 47.10 34.08 C 45.80 39.49 42.18 43.99 37.44 46.82 C 37.33 47.11 37.11 47.69 37.00 47.97 C 36.93 48.51 36.80 49.58 36.74 50.12 C 36.16 49.42 35.58 48.72 35.00 48.02 C 32.00 47.84 28.97 48.11 26.43 49.85 C 26.53 48.85 26.63 47.85 26.74 46.85 C 21.77 44.20 18.28 39.46 16.85 34.05 C 16.64 30.04 16.67 25.85 18.09 22.03 Z" />
</g>
<g id="#020101ff">
<path fill="#020101" opacity="1.00" d=" M 22.36 29.85 C 24.70 30.13 27.00 29.81 29.11 28.73 C 28.92 29.24 28.55 30.25 28.36 30.76 C 26.53 31.25 24.65 31.47 22.76 31.51 C 22.62 30.96 22.49 30.40 22.36 29.85 Z" />
<path fill="#020101" opacity="1.00" d=" M 34.83 28.64 C 36.90 29.78 39.19 30.16 41.52 29.86 C 41.49 30.39 41.45 30.91 41.41 31.44 C 39.46 31.47 37.52 31.29 35.64 30.75 C 35.44 30.22 35.03 29.17 34.83 28.64 Z" />
<path fill="#020101" opacity="1.00" d=" M 28.88 39.86 C 30.86 38.14 33.47 38.15 35.48 39.81 C 33.67 41.92 30.80 41.65 28.88 39.86 Z" />
</g>
<g id="#f6d0aeff">
<path fill="#f6d0ae" opacity="1.00" d=" M 22.76 31.51 C 24.65 31.47 26.53 31.25 28.36 30.76 C 30.77 30.45 33.22 30.44 35.64 30.75 C 37.52 31.29 39.46 31.47 41.41 31.44 C 41.50 35.25 37.89 37.43 35.48 39.81 C 33.47 38.15 30.86 38.14 28.88 39.86 C 26.08 37.74 23.09 35.30 22.76 31.51 M 28.52 32.17 C 28.57 34.50 30.49 36.46 32.89 35.69 C 34.82 35.67 35.02 33.57 35.50 32.17 C 33.19 32.76 30.82 32.79 28.52 32.17 Z" />
</g>
<g id="#a48766ff">
<path fill="#a48766" opacity="1.00" d=" M 28.52 32.17 C 30.82 32.79 33.19 32.76 35.50 32.17 C 35.02 33.57 34.82 35.67 32.89 35.69 C 30.49 36.46 28.57 34.50 28.52 32.17 Z" />
</g>
<g id="#200300ff">
<path fill="#200300" opacity="1.00" d=" M 10.25 38.67 C 12.58 41.08 14.23 44.04 16.47 46.52 C 18.27 47.82 20.44 48.44 22.51 49.16 C 20.51 49.68 18.60 50.51 16.70 51.32 C 15.66 51.12 14.62 50.89 13.59 50.65 C 11.08 47.22 10.81 42.74 10.25 38.67 Z" />
<path fill="#200300" opacity="1.00" d=" M 48.45 45.48 C 50.20 43.13 51.84 40.71 53.75 38.49 C 53.30 42.40 52.89 46.49 50.91 49.97 C 50.30 51.40 48.61 51.15 47.35 51.23 C 45.43 50.39 43.47 49.65 41.44 49.11 C 43.83 48.08 46.85 47.75 48.45 45.48 Z" />
</g>
<g id="#d7ac88ff">
<path fill="#d7ac88" opacity="1.00" d=" M 26.43 49.85 C 28.97 48.11 32.00 47.84 35.00 48.02 C 35.58 48.72 36.16 49.42 36.74 50.12 C 36.79 50.73 36.88 51.96 36.93 52.57 C 36.58 52.87 35.89 53.47 35.54 53.77 C 34.83 52.55 34.11 51.33 33.39 50.11 C 30.89 49.90 29.41 51.67 28.28 53.66 C 27.78 53.20 26.77 52.28 26.27 51.83 C 26.31 51.33 26.39 50.35 26.43 49.85 Z" />
</g>
<g id="#a0344fff">
<path fill="#a0344f" opacity="1.00" d=" M 37.00 47.97 C 37.84 48.18 38.69 48.39 39.53 48.60 C 39.29 49.56 39.04 50.51 38.79 51.46 C 38.65 51.95 38.36 52.92 38.22 53.40 L 36.93 52.57 C 36.88 51.96 36.79 50.73 36.74 50.12 C 36.80 49.58 36.93 48.51 37.00 47.97 Z" />
</g>
<g id="#cb70aaff">
<path fill="#cb70aa" opacity="1.00" d=" M 16.70 51.32 C 18.60 50.51 20.51 49.68 22.51 49.16 C 23.27 49.14 24.79 49.10 25.55 49.08 C 25.58 49.84 25.64 51.36 25.67 52.12 C 22.17 52.40 17.74 52.37 15.86 55.99 C 14.27 57.94 14.60 60.37 15.43 62.56 C 26.66 62.59 37.90 62.93 49.11 62.36 C 49.31 60.64 49.51 58.92 49.86 57.23 C 50.02 56.62 50.33 55.39 50.48 54.77 C 51.49 57.75 51.00 60.93 51.25 64.00 L 12.81 64.00 C 12.77 59.51 12.10 53.92 16.70 51.32 Z" />
</g>
<g id="#b95e96ff">
<path fill="#b95e96" opacity="1.00" d=" M 38.79 51.46 C 39.04 50.51 39.29 49.56 39.53 48.60 C 40.01 48.73 40.97 48.98 41.44 49.11 C 43.47 49.65 45.43 50.39 47.35 51.23 C 48.55 52.25 49.96 53.22 50.48 54.77 C 50.33 55.39 50.02 56.62 49.86 57.23 C 48.15 55.29 46.60 52.96 44.11 51.97 C 42.38 51.46 40.56 51.54 38.79 51.46 Z" />
</g>
<g id="#f5cdacff">
<path fill="#f5cdac" opacity="1.00" d=" M 28.28 53.66 C 29.41 51.67 30.89 49.90 33.39 50.11 C 34.11 51.33 34.83 52.55 35.54 53.77 C 34.35 54.89 33.18 56.04 32.01 57.19 C 30.78 56.00 29.54 54.82 28.28 53.66 Z" />
</g>
<g id="#fe9eddff">
<path fill="#fe9edd" opacity="1.00" d=" M 38.79 51.46 C 40.56 51.54 42.38 51.46 44.11 51.97 C 46.60 52.96 48.15 55.29 49.86 57.23 C 49.51 58.92 49.31 60.64 49.11 62.36 C 37.90 62.93 26.66 62.59 15.43 62.56 C 14.60 60.37 14.27 57.94 15.86 55.99 C 17.74 52.37 22.17 52.40 25.67 52.12 C 25.80 52.47 26.04 53.18 26.17 53.53 C 27.55 55.86 30.00 57.32 32.00 59.08 C 34.18 57.31 36.38 55.53 38.22 53.40 C 38.36 52.92 38.65 51.95 38.79 51.46 Z" />
</g>
<g id="#d04482ff">
<path fill="#d04482" opacity="1.00" d=" M 26.17 53.53 L 26.27 51.83 C 26.77 52.28 27.78 53.20 28.28 53.66 C 29.54 54.82 30.78 56.00 32.01 57.19 C 33.18 56.04 34.35 54.89 35.54 53.77 C 35.89 53.47 36.58 52.87 36.93 52.57 L 38.22 53.40 C 36.38 55.53 34.18 57.31 32.00 59.08 C 30.00 57.32 27.55 55.86 26.17 53.53 Z" />
</g>
</svg>
