<?xml version="1.0" encoding="UTF-8" ?>
<!DOCTYPE svg PUBLIC "-//W3C//DTD SVG 1.1//EN" "http://www.w3.org/Graphics/SVG/1.1/DTD/svg11.dtd">
<svg width="64pt" height="64pt" viewBox="0 0 64 64" version="1.1" xmlns="http://www.w3.org/2000/svg">
<g id="#c34f92f7">
<path fill="#c34f92" opacity="0.97" d=" M 53.02 0.00 L 54.98 0.00 C 53.29 2.76 52.85 5.92 52.74 9.12 C 49.17 7.14 52.00 2.76 53.02 0.00 Z" />
</g>
<g id="#f99dd6fd">
<path fill="#f99dd6" opacity="1.00" d=" M 54.98 0.00 L 59.21 0.00 C 60.59 3.92 61.01 11.13 55.07 10.34 C 54.48 10.04 53.32 9.43 52.74 9.12 C 52.85 5.92 53.29 2.76 54.98 0.00 Z" />
</g>
<g id="#dd71b1f9">
<path fill="#dd71b1" opacity="0.98" d=" M 59.21 0.00 L 62.08 0.00 C 62.12 3.69 62.24 7.45 60.98 10.97 C 58.81 10.63 59.08 12.59 58.96 14.10 C 57.51 19.25 56.29 24.49 54.20 29.42 C 53.56 29.05 52.26 28.29 51.61 27.92 C 52.94 22.10 54.40 16.28 55.07 10.34 C 61.01 11.13 60.59 3.92 59.21 0.00 Z" />
</g>
<g id="#ca4e96fb">
<path fill="#ca4e96" opacity="1.00" d=" M 62.08 0.00 L 64.00 0.00 L 64.00 1.64 C 61.96 3.76 65.08 10.88 60.98 10.97 C 62.24 7.45 62.12 3.69 62.08 0.00 Z" />
</g>
<g id="#9a3669eb">
<path fill="#9a3669" opacity="0.92" d=" M 60.98 10.97 C 65.08 10.88 61.96 3.76 64.00 1.64 L 64.00 11.75 C 62.04 11.96 59.91 12.09 58.96 14.10 C 59.08 12.59 58.81 10.63 60.98 10.97 Z" />
</g>
<g id="#c25d97fa">
<path fill="#c25d97" opacity="0.98" d=" M 14.86 31.71 C 20.19 27.27 25.47 19.85 33.02 19.98 C 33.91 24.19 31.65 27.50 29.88 30.96 C 26.92 33.07 24.06 35.31 21.00 37.28 C 18.20 36.42 16.56 33.90 14.86 31.71 Z" />
</g>
<g id="#c25f98f9">
<path fill="#c25f98" opacity="0.98" d=" M 31.76 31.55 C 35.69 28.49 39.60 25.30 44.00 22.95 C 49.01 24.54 45.93 30.90 42.96 33.06 C 41.99 33.72 41.07 34.48 41.32 35.79 C 38.76 38.01 36.16 40.35 32.86 41.39 C 30.80 40.75 29.25 39.08 28.81 36.97 C 29.21 34.97 29.68 32.99 29.88 30.96 C 30.35 31.11 31.29 31.41 31.76 31.55 Z" />
</g>
<g id="#b74a84f8">
<path fill="#b74a84" opacity="0.97" d=" M 43.89 39.22 C 48.05 36.65 48.78 31.58 51.61 27.92 C 52.26 28.29 53.56 29.05 54.20 29.42 C 54.16 32.54 53.90 36.07 51.22 38.09 C 48.14 39.04 48.08 41.45 49.16 44.09 C 48.85 44.54 48.23 45.44 47.92 45.89 C 47.37 46.50 46.83 47.13 46.30 47.76 C 43.70 50.35 40.78 52.78 36.83 52.29 C 35.34 51.23 34.72 49.38 33.75 47.90 C 34.41 47.21 35.07 46.53 35.74 45.86 C 36.12 47.32 35.59 49.25 36.80 50.36 C 38.59 52.25 41.23 49.73 42.77 48.75 C 44.23 46.97 48.65 44.82 46.13 42.10 C 45.21 40.94 46.18 38.27 43.89 39.22 Z" />
</g>
<g id="#c29e80fe">
<path fill="#c29e80" opacity="1.00" d=" M 21.00 37.28 C 24.06 35.31 26.92 33.07 29.88 30.96 C 29.68 32.99 29.21 34.97 28.81 36.97 C 28.40 36.81 27.57 36.49 27.16 36.33 C 19.87 43.65 11.42 49.71 3.32 56.06 C 2.23 55.27 1.11 54.53 0.00 53.77 L 0.00 47.57 C 0.83 49.46 0.68 53.28 3.71 51.70 C 9.97 47.78 15.75 43.16 21.72 38.82 C 21.54 38.44 21.18 37.67 21.00 37.28 Z" />
</g>
<g id="#e6c3a3fd">
<path fill="#e6c3a3" opacity="1.00" d=" M 0.00 44.22 C 4.89 39.97 9.98 35.97 14.86 31.71 C 16.56 33.90 18.20 36.42 21.00 37.28 C 21.18 37.67 21.54 38.44 21.72 38.82 C 15.75 43.16 9.97 47.78 3.71 51.70 C 0.68 53.28 0.83 49.46 0.00 47.57 L 0.00 44.22 Z" />
</g>
<g id="#ac6766fd">
<path fill="#ac6766" opacity="1.00" d=" M 41.32 35.79 C 41.07 34.48 41.99 33.72 42.96 33.06 C 43.19 34.60 43.66 37.68 43.89 39.22 C 42.94 39.82 41.97 40.39 40.99 40.94 C 41.54 39.26 42.06 37.50 41.32 35.79 Z" />
</g>
<g id="#efcfb2ff">
<path fill="#efcfb2" opacity="1.00" d=" M 27.16 36.33 C 27.57 36.49 28.40 36.81 28.81 36.97 C 29.25 39.08 30.80 40.75 32.86 41.39 C 35.19 41.89 34.93 42.91 33.12 44.04 C 24.62 49.64 16.67 56.42 6.87 59.87 C 0.04 63.55 2.63 59.16 2.94 56.82 L 3.32 56.06 C 11.42 49.71 19.87 43.65 27.16 36.33 Z" />
</g>
<g id="#cea787ff">
<path fill="#cea787" opacity="1.00" d=" M 41.32 35.79 C 42.06 37.50 41.54 39.26 40.99 40.94 C 40.52 41.22 39.56 41.77 39.09 42.05 C 36.67 43.27 34.40 44.75 32.06 46.12 C 32.33 45.60 32.86 44.56 33.12 44.04 C 34.93 42.91 35.19 41.89 32.86 41.39 C 36.16 40.35 38.76 38.01 41.32 35.79 Z" />
</g>
<g id="#842a52e9">
<path fill="#842a52" opacity="0.91" d=" M 49.16 44.09 C 48.08 41.45 48.14 39.04 51.22 38.09 C 50.69 40.13 50.31 42.29 49.16 44.09 Z" />
</g>
<g id="#d57ab2ff">
<path fill="#d57ab2" opacity="1.00" d=" M 43.89 39.22 C 46.18 38.27 45.21 40.94 46.13 42.10 C 43.49 45.36 40.22 47.99 36.80 50.36 C 35.59 49.25 36.12 47.32 35.74 45.86 C 36.87 44.60 37.99 43.33 39.09 42.05 C 39.56 41.77 40.52 41.22 40.99 40.94 C 41.97 40.39 42.94 39.82 43.89 39.22 Z" />
</g>
<g id="#ba977aff">
<path fill="#ba977a" opacity="1.00" d=" M 32.06 46.12 C 34.40 44.75 36.67 43.27 39.09 42.05 C 37.99 43.33 36.87 44.60 35.74 45.86 C 35.07 46.53 34.41 47.21 33.75 47.90 C 28.92 51.80 24.35 56.08 19.23 59.60 C 15.81 59.05 13.18 62.24 10.02 63.06 L 10.06 62.08 C 17.78 57.27 25.32 52.23 32.06 46.12 Z" />
</g>
<g id="#cc5ea1ff">
<path fill="#cc5ea1" opacity="1.00" d=" M 46.13 42.10 C 48.65 44.82 44.23 46.97 42.77 48.75 C 41.23 49.73 38.59 52.25 36.80 50.36 C 40.22 47.99 43.49 45.36 46.13 42.10 Z" />
</g>
<g id="#dfbb9bff">
<path fill="#dfbb9b" opacity="1.00" d=" M 6.87 59.87 C 16.67 56.42 24.62 49.64 33.12 44.04 C 32.86 44.56 32.33 45.60 32.06 46.12 C 25.32 52.23 17.78 57.27 10.06 62.08 C 7.09 62.38 4.13 62.81 1.14 62.99 C 0.97 61.59 0.83 60.18 0.72 58.78 C 1.46 58.12 2.20 57.47 2.94 56.82 C 2.63 59.16 0.04 63.55 6.87 59.87 Z" />
</g>
<g id="#945e41f2">
<path fill="#945e41" opacity="0.95" d=" M 46.30 47.76 C 46.83 47.13 47.37 46.50 47.92 45.89 C 49.42 53.75 42.33 58.86 37.73 64.00 L 31.64 64.00 C 38.20 61.23 44.48 56.96 46.93 49.96 C 46.77 49.41 46.46 48.31 46.30 47.76 Z" />
</g>
<g id="#eccaabff">
<path fill="#eccaab" opacity="1.00" d=" M 19.23 59.60 C 24.35 56.08 28.92 51.80 33.75 47.90 C 34.72 49.38 35.34 51.23 36.83 52.29 C 38.14 52.55 40.77 53.07 42.08 53.33 C 36.00 60.43 25.87 65.42 16.56 62.09 C 17.42 61.23 18.31 60.40 19.23 59.60 Z" />
</g>
<g id="#cc9e79fc">
<path fill="#cc9e79" opacity="1.00" d=" M 46.30 47.76 C 46.46 48.31 46.77 49.41 46.93 49.96 C 44.48 56.96 38.20 61.23 31.64 64.00 L 14.65 64.00 C 15.28 63.35 15.91 62.72 16.56 62.09 C 25.87 65.42 36.00 60.43 42.08 53.33 C 40.77 53.07 38.14 52.55 36.83 52.29 C 40.78 52.78 43.70 50.35 46.30 47.76 Z" />
</g>
<g id="#aa7f5df7">
<path fill="#aa7f5d" opacity="0.97" d=" M 0.00 53.77 C 1.11 54.53 2.23 55.27 3.32 56.06 L 2.94 56.82 C 2.20 57.47 1.46 58.12 0.72 58.78 L 0.00 59.36 L 0.00 53.77 Z" />
</g>
<g id="#cea37cf1">
<path fill="#cea37c" opacity="0.95" d=" M 0.00 59.36 L 0.72 58.78 C 0.83 60.18 0.97 61.59 1.14 62.99 C 4.13 62.81 7.09 62.38 10.06 62.08 L 10.02 63.06 C 9.68 63.30 8.98 63.77 8.64 64.00 L 0.00 64.00 L 0.00 59.36 Z" />
</g>
<g id="#9e7455f9">
<path fill="#9e7455" opacity="0.98" d=" M 10.02 63.06 C 13.18 62.24 15.81 59.05 19.23 59.60 C 18.31 60.40 17.42 61.23 16.56 62.09 C 15.91 62.72 15.28 63.35 14.65 64.00 L 8.64 64.00 C 8.98 63.77 9.68 63.30 10.02 63.06 Z" />
</g>
</svg>
