<?xml version="1.0" encoding="UTF-8" ?>
<!DOCTYPE svg PUBLIC "-//W3C//DTD SVG 1.1//EN" "http://www.w3.org/Graphics/SVG/1.1/DTD/svg11.dtd">
<svg width="64pt" height="64pt" viewBox="0 0 64 64" version="1.1" xmlns="http://www.w3.org/2000/svg">
<g id="#151515fe">
<path fill="#151515" opacity="1.00" d=" M 20.08 7.07 C 27.41 3.24 36.67 3.25 43.98 7.10 C 50.78 10.73 54.44 18.47 54.77 25.96 C 55.08 29.47 54.06 33.08 55.22 36.50 C 56.05 39.49 56.83 43.13 54.71 45.77 C 52.42 49.54 47.55 49.17 43.82 50.22 L 43.26 49.82 C 44.96 47.47 47.84 47.42 50.44 47.40 C 51.47 46.44 52.50 45.48 53.54 44.52 C 52.98 35.60 54.82 26.25 51.43 17.73 C 48.32 11.61 42.17 6.32 35.01 6.40 C 30.15 6.32 24.89 5.95 20.65 8.79 C 16.91 11.33 13.50 14.80 12.03 19.16 C 9.63 27.40 10.84 36.07 10.47 44.53 C 11.53 45.49 12.58 46.47 13.63 47.45 C 15.47 47.49 17.31 47.55 19.14 47.68 L 19.67 49.31 C 16.22 49.37 11.96 49.48 9.71 46.33 C 7.20 43.68 7.81 39.75 8.76 36.57 C 9.95 33.13 8.92 29.49 9.23 25.96 C 9.55 18.45 13.24 10.68 20.08 7.07 Z" />
<path fill="#151515" opacity="1.00" d=" M 17.71 27.50 C 19.21 27.53 20.70 27.53 22.19 27.51 C 25.13 29.46 25.99 32.98 25.31 36.30 C 24.52 36.99 23.75 37.71 23.00 38.45 C 20.97 38.81 18.91 38.72 16.87 38.57 C 13.10 35.60 13.44 29.79 17.71 27.50 Z" />
<path fill="#151515" opacity="1.00" d=" M 38.69 36.29 C 38.01 32.98 38.81 29.33 41.88 27.51 C 43.34 27.53 44.80 27.53 46.27 27.51 C 50.54 29.73 50.84 35.44 47.27 38.49 C 45.17 38.71 43.06 38.85 40.97 38.46 C 40.23 37.71 39.47 36.99 38.69 36.29 Z" />
<path fill="#151515" opacity="1.00" d=" M 28.65 43.62 C 30.11 42.05 32.29 42.06 34.23 42.49 C 34.38 42.71 34.67 43.15 34.81 43.37 C 35.06 43.98 35.54 45.21 35.78 45.83 L 35.32 47.08 C 33.13 46.49 30.86 46.45 28.68 47.09 C 28.67 46.22 28.65 44.48 28.65 43.62 Z" />
<path fill="#151515" opacity="1.00" d=" M 20.04 49.57 C 21.96 48.88 22.22 51.31 22.85 52.45 C 28.53 52.65 34.26 52.92 39.93 52.44 C 40.38 52.20 41.29 51.73 41.74 51.49 C 42.25 51.58 43.28 51.77 43.79 51.86 C 43.89 53.67 43.55 55.47 43.14 57.23 C 36.21 61.05 27.71 60.92 20.76 57.21 C 20.69 54.65 20.42 52.10 20.04 49.57 M 28.82 54.59 C 28.91 56.32 27.71 59.13 30.22 59.74 C 32.52 59.04 31.37 56.18 31.72 54.47 C 30.76 54.51 29.79 54.55 28.82 54.59 M 32.27 54.54 C 32.60 56.25 31.53 58.96 33.71 59.76 C 36.42 59.08 35.09 56.21 34.78 54.40 C 34.15 54.43 32.90 54.50 32.27 54.54 M 22.96 55.84 C 23.72 56.31 25.24 57.25 26.01 57.71 L 25.50 58.25 C 28.13 60.80 28.18 56.17 28.41 54.48 C 26.52 54.57 24.67 55.05 22.96 55.84 M 35.42 54.55 C 36.09 56.11 35.26 59.53 37.92 59.00 C 37.97 57.96 38.08 55.88 38.14 54.84 L 39.46 56.56 L 43.33 55.96 C 40.50 56.28 38.23 54.07 35.42 54.55 Z" />
</g>
<g id="#9c9c9cff">
<path fill="#9c9c9c" opacity="1.00" d=" M 20.65 8.79 C 24.89 5.95 30.15 6.32 35.01 6.40 C 42.17 6.32 48.32 11.61 51.43 17.73 C 54.82 26.25 52.98 35.60 53.54 44.52 C 52.50 45.48 51.47 46.44 50.44 47.40 C 47.84 47.42 44.96 47.47 43.26 49.82 L 43.82 50.22 C 43.81 50.63 43.80 51.45 43.79 51.86 C 43.28 51.77 42.25 51.58 41.74 51.49 C 41.29 51.73 40.38 52.20 39.93 52.44 C 34.26 52.92 28.53 52.65 22.85 52.45 C 22.22 51.31 21.96 48.88 20.04 49.57 L 19.76 49.58 C 19.73 49.51 19.69 49.38 19.67 49.31 L 19.14 47.68 C 17.31 47.55 15.47 47.49 13.63 47.45 C 12.58 46.47 11.53 45.49 10.47 44.53 C 10.84 36.07 9.63 27.40 12.03 19.16 C 13.50 14.80 16.91 11.33 20.65 8.79 M 18.60 14.54 C 15.36 18.06 14.01 22.90 14.45 27.61 C 17.57 24.51 23.18 24.98 25.57 28.74 C 26.91 31.08 28.68 34.81 25.31 36.30 C 25.99 32.98 25.13 29.46 22.19 27.51 C 20.70 27.53 19.21 27.53 17.71 27.50 C 13.44 29.79 13.10 35.60 16.87 38.57 C 16.25 38.55 15.01 38.52 14.39 38.51 C 17.44 40.40 20.80 41.95 24.48 41.33 C 25.76 42.25 26.89 43.76 28.65 43.62 C 28.65 44.48 28.67 46.22 28.68 47.09 C 30.86 46.45 33.13 46.49 35.32 47.08 L 35.78 45.83 C 35.54 45.21 35.06 43.98 34.81 43.37 C 37.01 42.13 39.39 41.07 41.97 41.34 C 44.83 41.72 47.16 39.88 49.40 38.42 C 48.86 38.44 47.80 38.47 47.27 38.49 C 50.84 35.44 50.54 29.73 46.27 27.51 C 44.80 27.53 43.34 27.53 41.88 27.51 C 38.81 29.33 38.01 32.98 38.69 36.29 C 38.18 35.99 37.16 35.39 36.65 35.09 C 36.53 30.83 39.17 25.57 43.98 25.58 C 46.10 25.17 47.83 26.55 49.58 27.50 C 50.06 22.35 48.33 17.01 44.41 13.54 C 37.14 7.54 25.34 7.87 18.60 14.54 Z" />
</g>
<g id="#d2d2d2ff">
<path fill="#d2d2d2" opacity="1.00" d=" M 18.60 14.54 C 25.34 7.87 37.14 7.54 44.41 13.54 C 48.33 17.01 50.06 22.35 49.58 27.50 C 47.83 26.55 46.10 25.17 43.98 25.58 C 39.17 25.57 36.53 30.83 36.65 35.09 C 37.16 35.39 38.18 35.99 38.69 36.29 C 39.47 36.99 40.23 37.71 40.97 38.46 C 43.06 38.85 45.17 38.71 47.27 38.49 C 47.80 38.47 48.86 38.44 49.40 38.42 C 47.16 39.88 44.83 41.72 41.97 41.34 C 39.39 41.07 37.01 42.13 34.81 43.37 C 34.67 43.15 34.38 42.71 34.23 42.49 C 32.29 42.06 30.11 42.05 28.65 43.62 C 26.89 43.76 25.76 42.25 24.48 41.33 C 20.80 41.95 17.44 40.40 14.39 38.51 C 15.01 38.52 16.25 38.55 16.87 38.57 C 18.91 38.72 20.97 38.81 23.00 38.45 C 23.75 37.71 24.52 36.99 25.31 36.30 C 28.68 34.81 26.91 31.08 25.57 28.74 C 23.18 24.98 17.57 24.51 14.45 27.61 C 14.01 22.90 15.36 18.06 18.60 14.54 Z" />
<path fill="#d2d2d2" opacity="1.00" d=" M 28.82 54.59 C 29.79 54.55 30.76 54.51 31.72 54.47 C 31.37 56.18 32.52 59.04 30.22 59.74 C 27.71 59.13 28.91 56.32 28.82 54.59 Z" />
<path fill="#d2d2d2" opacity="1.00" d=" M 32.27 54.54 C 32.90 54.50 34.15 54.43 34.78 54.40 C 35.09 56.21 36.42 59.08 33.71 59.76 C 31.53 58.96 32.60 56.25 32.27 54.54 Z" />
<path fill="#d2d2d2" opacity="1.00" d=" M 22.96 55.84 C 24.67 55.05 26.52 54.57 28.41 54.48 C 28.18 56.17 28.13 60.80 25.50 58.25 L 26.01 57.71 C 25.24 57.25 23.72 56.31 22.96 55.84 Z" />
<path fill="#d2d2d2" opacity="1.00" d=" M 35.42 54.55 C 38.23 54.07 40.50 56.28 43.33 55.96 L 39.46 56.56 L 38.14 54.84 C 38.08 55.88 37.97 57.96 37.92 59.00 C 35.26 59.53 36.09 56.11 35.42 54.55 Z" />
</g>
</svg>
