<?xml version="1.0" encoding="UTF-8" ?>
<!DOCTYPE svg PUBLIC "-//W3C//DTD SVG 1.1//EN" "http://www.w3.org/Graphics/SVG/1.1/DTD/svg11.dtd">
<svg width="64pt" height="64pt" viewBox="0 0 64 64" version="1.1" xmlns="http://www.w3.org/2000/svg">
<g id="#0a0909ff">
<path fill="#0a0909" opacity="1.00" d=" M 15.39 2.71 C 21.92 -0.03 29.16 1.33 36.03 1.00 C 42.07 0.84 49.54 1.07 53.24 6.69 C 58.73 13.60 56.60 22.90 56.90 31.04 C 56.60 35.64 57.65 41.98 53.10 44.84 C 51.96 44.03 50.83 43.15 49.50 42.68 C 47.31 41.72 44.95 40.44 43.01 42.66 C 40.96 42.11 40.13 38.12 37.54 40.46 C 37.56 40.99 37.62 42.03 37.64 42.55 C 36.77 42.18 36.70 40.78 36.19 40.02 C 33.43 39.72 30.64 39.82 27.87 39.97 C 27.22 41.07 26.75 42.25 26.35 43.46 C 24.44 45.10 21.75 44.94 19.41 44.63 C 22.00 44.09 26.41 44.23 26.92 40.35 C 24.01 38.23 23.11 41.91 20.98 42.65 C 18.96 40.34 16.59 41.84 14.33 42.76 C 13.06 43.22 12.00 44.06 10.90 44.83 C 8.04 43.40 7.57 39.84 7.25 36.99 C 7.05 30.33 6.92 23.65 7.06 16.99 C 7.35 11.35 10.20 5.36 15.39 2.71 M 25.52 3.33 C 22.43 3.52 19.01 4.98 17.68 7.96 C 16.67 12.70 18.26 17.33 18.90 21.93 C 20.25 27.29 21.66 33.46 26.99 36.33 C 31.84 36.68 37.79 37.47 41.37 33.40 C 42.97 30.06 44.20 26.56 45.37 23.05 C 45.57 21.34 45.42 19.54 46.44 18.03 C 46.58 15.26 46.33 12.48 47.61 9.94 C 46.96 6.97 44.83 4.72 41.90 3.89 C 36.58 2.81 30.90 1.64 25.52 3.33 Z" />
<path fill="#0a0909" opacity="1.00" d=" M 27.43 51.53 C 30.38 51.61 33.84 50.97 36.59 51.82 C 36.91 53.92 34.35 53.63 33.07 53.80 C 31.27 53.84 29.41 53.88 27.68 53.31 C 27.62 52.86 27.50 51.97 27.43 51.53 Z" />
</g>
<g id="#4a4a4aff">
<path fill="#4a4a4a" opacity="1.00" d=" M 25.52 3.33 C 30.90 1.64 36.58 2.81 41.90 3.89 C 44.83 4.72 46.96 6.97 47.61 9.94 C 46.33 12.48 46.58 15.26 46.44 18.03 C 45.42 19.54 45.57 21.34 45.37 23.05 C 44.20 26.56 42.97 30.06 41.37 33.40 C 37.79 37.47 31.84 36.68 26.99 36.33 C 21.66 33.46 20.25 27.29 18.90 21.93 C 18.26 17.33 16.67 12.70 17.68 7.96 C 19.01 4.98 22.43 3.52 25.52 3.33 Z" />
<path fill="#4a4a4a" opacity="1.00" d=" M 10.90 44.83 C 12.00 44.06 13.06 43.22 14.33 42.76 C 16.46 47.88 20.75 52.52 25.71 54.48 C 27.39 53.96 27.38 56.26 27.79 57.26 C 30.60 57.67 33.48 57.42 36.32 57.37 C 36.35 56.64 36.41 55.16 36.44 54.43 C 37.13 54.47 38.52 54.54 39.22 54.58 C 43.42 51.40 47.95 47.95 49.50 42.68 C 50.83 43.15 51.96 44.03 53.10 44.84 C 50.63 52.34 44.01 58.59 36.11 59.86 C 31.62 60.06 26.86 60.41 22.72 58.28 C 17.18 55.63 12.81 50.66 10.90 44.83 Z" />
<path fill="#4a4a4a" opacity="1.00" d=" M 28.67 46.16 C 30.90 46.65 33.17 46.63 35.40 46.16 C 35.09 46.65 34.46 47.65 34.15 48.15 C 32.73 48.48 31.27 48.44 29.84 48.18 C 29.55 47.67 28.96 46.66 28.67 46.16 Z" />
<path fill="#4a4a4a" opacity="1.00" d=" M 29.15 55.80 C 29.55 55.79 30.36 55.76 30.76 55.75 L 30.75 56.64 C 30.34 56.65 29.52 56.68 29.11 56.69 L 29.15 55.80 Z" />
<path fill="#4a4a4a" opacity="1.00" d=" M 33.24 55.76 C 35.22 53.88 35.43 58.53 33.27 56.66 L 33.24 55.76 Z" />
</g>
<g id="#f4c9a4ff">
<path fill="#f4c9a4" opacity="1.00" d=" M 27.87 39.97 C 30.64 39.82 33.43 39.72 36.19 40.02 C 36.70 40.78 36.77 42.18 37.64 42.55 C 37.62 42.03 37.56 40.99 37.54 40.46 C 40.13 38.12 40.96 42.11 43.01 42.66 C 44.95 40.44 47.31 41.72 49.50 42.68 C 47.95 47.95 43.42 51.40 39.22 54.58 C 38.52 54.54 37.13 54.47 36.44 54.43 C 36.41 55.16 36.35 56.64 36.32 57.37 C 33.48 57.42 30.60 57.67 27.79 57.26 C 27.38 56.26 27.39 53.96 25.71 54.48 C 20.75 52.52 16.46 47.88 14.33 42.76 C 16.59 41.84 18.96 40.34 20.98 42.65 C 23.11 41.91 24.01 38.23 26.92 40.35 C 26.41 44.23 22.00 44.09 19.41 44.63 C 21.75 44.94 24.44 45.10 26.35 43.46 C 26.75 42.25 27.22 41.07 27.87 39.97 M 28.67 46.16 C 28.96 46.66 29.55 47.67 29.84 48.18 C 31.27 48.44 32.73 48.48 34.15 48.15 C 34.46 47.65 35.09 46.65 35.40 46.16 C 33.17 46.63 30.90 46.65 28.67 46.16 M 27.43 51.53 C 27.50 51.97 27.62 52.86 27.68 53.31 C 29.41 53.88 31.27 53.84 33.07 53.80 C 34.35 53.63 36.91 53.92 36.59 51.82 C 33.84 50.97 30.38 51.61 27.43 51.53 M 29.15 55.80 L 29.11 56.69 C 29.52 56.68 30.34 56.65 30.75 56.64 L 30.76 55.75 C 30.36 55.76 29.55 55.79 29.15 55.80 M 33.24 55.76 L 33.27 56.66 C 35.43 58.53 35.22 53.88 33.24 55.76 Z" />
</g>
</svg>
