<?xml version="1.0" encoding="UTF-8" ?>
<!DOCTYPE svg PUBLIC "-//W3C//DTD SVG 1.1//EN" "http://www.w3.org/Graphics/SVG/1.1/DTD/svg11.dtd">
<svg width="64pt" height="64pt" viewBox="0 0 64 64" version="1.1" xmlns="http://www.w3.org/2000/svg">
<g id="#d30f3cfe">
<path fill="#d30f3c" opacity="1.00" d=" M 24.87 13.26 C 28.05 11.78 30.92 9.71 33.92 7.90 C 36.74 8.49 39.76 8.40 42.37 9.76 C 44.10 10.83 45.46 12.38 46.94 13.76 C 47.75 13.84 49.38 13.99 50.19 14.07 C 50.19 14.70 50.20 15.95 50.20 16.58 L 48.48 17.29 C 50.38 16.69 52.37 15.62 54.36 16.82 C 53.15 17.67 51.93 18.50 50.71 19.33 C 52.04 18.73 53.37 18.13 54.69 17.52 C 55.95 19.09 57.66 19.92 59.66 20.00 C 59.08 24.57 53.77 24.90 50.11 25.19 C 46.37 25.77 42.71 24.67 39.00 24.46 C 36.77 25.15 35.01 26.78 32.86 27.66 C 29.29 29.27 24.98 29.26 22.03 32.11 C 16.58 36.35 11.24 42.20 3.84 42.31 C 4.23 41.75 5.01 40.64 5.40 40.09 C 5.25 37.92 5.48 35.76 6.03 33.67 C 6.44 34.33 7.26 35.66 7.68 36.32 L 7.45 33.61 C 8.81 34.57 10.18 35.54 11.54 36.51 C 11.94 36.38 12.34 36.26 12.74 36.13 C 10.96 35.11 9.20 34.04 7.46 32.96 C 8.46 32.61 10.45 31.90 11.45 31.55 C 12.57 32.67 13.78 33.69 14.97 34.73 C 13.79 32.70 12.63 30.67 11.51 28.61 C 11.50 29.23 11.49 30.46 11.48 31.08 C 9.83 31.36 8.20 31.79 6.57 32.17 C 6.52 31.59 6.42 30.43 6.37 29.85 C 7.98 29.50 9.73 29.38 11.10 28.34 C 10.08 28.52 8.03 28.87 7.01 29.05 C 9.35 24.02 12.24 19.14 15.93 14.99 C 18.66 13.56 22.02 14.47 24.87 13.26 M 37.36 10.40 C 37.56 13.74 40.29 8.84 37.36 10.40 M 33.87 12.48 C 35.24 12.88 35.81 12.38 35.58 10.98 C 34.22 10.59 33.65 11.09 33.87 12.48 M 36.33 13.37 C 34.80 16.34 39.67 13.51 36.33 13.37 M 37.98 13.65 C 38.92 16.58 39.29 19.65 39.68 22.69 C 39.80 20.03 39.63 17.35 38.90 14.78 C 40.16 14.03 41.42 13.28 42.69 12.54 C 41.12 12.90 39.55 13.27 37.98 13.65 M 42.43 15.20 C 41.48 16.74 41.51 18.98 42.13 20.65 C 43.15 19.65 43.98 16.01 42.43 15.20 M 13.54 19.77 C 16.12 19.07 18.70 18.31 21.41 18.56 C 20.97 18.16 20.10 17.38 19.66 16.99 C 17.59 17.85 15.52 18.70 13.54 19.77 M 16.28 24.19 C 16.83 24.77 16.83 24.77 16.28 24.19 M 13.07 29.67 C 14.87 30.74 16.67 31.80 18.54 32.74 C 17.08 31.14 15.39 29.78 13.80 28.31 C 13.90 28.03 14.10 27.46 14.20 27.18 C 16.22 27.23 17.43 29.47 19.28 30.15 C 17.71 28.54 16.07 26.97 14.93 25.00 C 13.26 26.01 13.01 27.86 13.07 29.67 M 17.73 24.86 C 17.42 26.27 19.47 27.65 20.73 27.44 C 20.89 26.08 19.13 24.26 17.73 24.86 M 10.19 25.99 C 10.34 29.32 13.13 24.45 10.19 25.99 Z" />
<path fill="#d30f3c" opacity="1.00" d=" M 41.31 28.89 C 46.91 26.90 53.41 25.82 59.08 28.04 C 59.27 28.77 59.65 30.24 59.83 30.98 C 57.62 30.12 55.56 28.92 53.53 27.70 C 55.24 29.37 56.99 30.98 58.64 32.72 C 58.31 33.19 57.65 34.14 57.32 34.61 C 56.83 34.50 55.84 34.28 55.34 34.17 C 55.73 34.46 56.52 35.04 56.92 35.33 C 56.31 36.66 55.71 37.99 55.11 39.32 C 53.60 37.59 52.01 35.92 50.29 34.40 C 51.57 36.53 53.21 38.39 54.96 40.13 C 53.60 41.40 52.24 42.68 50.86 43.92 C 49.06 46.96 45.61 47.85 42.75 49.52 C 42.03 49.60 40.58 49.77 39.86 49.86 C 38.96 46.77 36.96 44.24 35.43 41.47 C 35.59 42.42 35.77 43.37 35.95 44.31 C 36.41 45.41 36.91 46.50 37.41 47.58 C 38.36 48.65 39.31 49.73 40.24 50.83 C 38.70 51.57 37.16 52.31 35.62 53.05 C 35.67 52.08 35.75 50.14 35.79 49.17 C 35.36 50.38 34.95 51.60 34.54 52.82 C 33.84 52.85 32.44 52.91 31.74 52.93 C 30.55 49.56 29.55 46.05 27.47 43.08 C 28.32 46.69 30.15 49.95 31.61 53.34 C 30.88 53.49 29.44 53.79 28.72 53.94 C 27.84 49.41 26.90 44.87 25.49 40.46 C 24.79 45.43 27.51 49.90 28.59 54.59 C 27.27 54.23 25.96 53.87 24.64 53.52 C 24.48 50.73 24.18 47.93 23.40 45.23 C 23.43 48.43 24.08 51.57 24.44 54.74 C 23.96 54.18 23.01 53.05 22.53 52.49 C 21.74 52.56 20.16 52.69 19.38 52.76 L 19.66 51.52 C 16.06 52.05 12.31 50.42 10.07 47.60 L 9.19 47.62 C 8.86 43.36 12.79 40.88 15.93 38.94 C 19.27 36.80 23.40 37.21 27.17 37.06 C 27.28 37.65 27.50 38.84 27.61 39.43 C 27.62 38.57 27.64 36.85 27.65 35.99 C 28.74 36.74 29.80 37.51 30.90 38.23 C 30.45 37.67 29.55 36.54 29.10 35.98 C 31.61 35.07 34.08 34.06 36.48 32.90 C 37.46 33.90 38.42 34.91 39.38 35.92 C 39.66 33.59 38.73 30.95 40.72 29.12 C 41.43 30.17 42.16 31.22 42.90 32.26 C 42.39 31.13 41.85 30.01 41.31 28.89 M 55.35 32.04 C 55.58 35.41 58.25 30.43 55.35 32.04 Z" />
</g>
</svg>
