<?xml version="1.0" encoding="UTF-8" ?>
<!DOCTYPE svg PUBLIC "-//W3C//DTD SVG 1.1//EN" "http://www.w3.org/Graphics/SVG/1.1/DTD/svg11.dtd">
<svg width="64pt" height="64pt" viewBox="0 0 64 64" version="1.1" xmlns="http://www.w3.org/2000/svg">
<g id="#9b9b9bfc">
<path fill="#9b9b9b" opacity="1.00" d=" M 3.06 12.72 L 3.41 13.03 C 8.34 17.61 13.15 22.34 17.80 27.20 L 17.89 28.08 L 18.06 29.88 C 13.10 24.85 8.19 19.76 3.20 14.76 L 3.12 13.57 L 3.06 12.72 Z" />
</g>
<g id="#fafafaff">
<path fill="#fafafa" opacity="1.00" d=" M 3.41 13.03 C 22.46 12.98 41.51 12.97 60.56 13.04 C 55.77 17.43 50.99 21.88 46.70 26.77 C 46.56 23.13 43.88 19.55 40.03 19.47 C 36.49 19.04 33.69 21.62 32.09 24.49 C 30.57 21.92 28.28 19.29 24.98 19.48 C 20.72 19.11 17.50 23.13 17.80 27.20 C 13.15 22.34 8.34 17.61 3.41 13.03 Z" />
</g>
<g id="#a19a99fd">
<path fill="#a19a99" opacity="1.00" d=" M 60.56 13.04 L 60.94 12.70 L 60.89 13.57 L 60.80 14.74 C 55.86 20.14 50.08 24.83 45.82 30.81 C 45.99 30.03 46.34 28.47 46.51 27.69 L 46.70 26.77 C 50.99 21.88 55.77 17.43 60.56 13.04 Z" />
</g>
<g id="#00000043">
<path fill="#000000" opacity="0.26" d=" M 2.47 22.95 C 2.51 19.82 2.09 16.60 3.12 13.57 L 3.20 14.76 C 3.31 26.85 3.26 38.95 3.33 51.04 L 3.56 51.05 C 22.45 51.11 41.34 51.08 60.23 51.05 L 60.80 51.10 C 60.87 46.59 60.90 42.07 60.67 37.57 C 60.79 29.96 60.69 22.35 60.80 14.74 L 60.89 13.57 C 61.99 16.92 61.44 20.49 61.53 23.95 C 61.41 33.42 61.75 42.90 61.36 52.36 C 46.92 53.08 32.43 52.47 17.98 52.67 C 12.86 52.62 7.74 52.91 2.64 52.37 C 2.25 42.57 2.59 32.75 2.47 22.95 Z" />
</g>
<g id="#edededff">
<path fill="#ededed" opacity="1.00" d=" M 3.20 14.76 C 8.19 19.76 13.10 24.85 18.06 29.88 C 18.24 30.31 18.59 31.17 18.76 31.60 C 14.23 33.62 9.14 32.43 4.36 33.22 C 3.40 38.73 3.31 44.33 3.58 49.90 L 3.56 51.05 L 3.33 51.04 C 3.26 38.95 3.31 26.85 3.20 14.76 Z" />
</g>
<g id="#eeeeeeff">
<path fill="#eeeeee" opacity="1.00" d=" M 45.82 30.81 C 50.08 24.83 55.86 20.14 60.80 14.74 C 60.69 22.35 60.79 29.96 60.67 37.57 L 60.56 38.41 C 60.31 36.30 59.98 34.21 59.66 32.11 C 54.94 31.74 50.20 31.69 45.46 31.61 L 45.82 30.81 Z" />
</g>
<g id="#f45539ff">
<path fill="#f45539" opacity="1.00" d=" M 17.80 27.20 C 17.50 23.13 20.72 19.11 24.98 19.48 C 28.28 19.29 30.57 21.92 32.09 24.49 C 33.69 21.62 36.49 19.04 40.03 19.47 C 43.88 19.55 46.56 23.13 46.70 26.77 L 46.51 27.69 C 41.76 30.72 38.38 37.15 32.05 36.63 C 25.85 37.25 22.51 31.04 17.89 28.08 L 17.80 27.20 Z" />
</g>
<g id="#dc3c20ff">
<path fill="#dc3c20" opacity="1.00" d=" M 17.89 28.08 C 22.51 31.04 25.85 37.25 32.05 36.63 C 38.38 37.15 41.76 30.72 46.51 27.69 C 46.34 28.47 45.99 30.03 45.82 30.81 L 45.46 31.61 C 45.12 32.30 44.45 33.69 44.11 34.38 C 43.87 34.79 43.61 35.19 43.33 35.58 C 39.93 40.11 36.01 44.22 32.08 48.29 C 28.25 44.26 24.48 40.15 21.03 35.78 C 20.16 34.45 19.42 33.04 18.76 31.60 C 18.59 31.17 18.24 30.31 18.06 29.88 L 17.89 28.08 Z" />
</g>
<g id="#dbdbdbff">
<path fill="#dbdbdb" opacity="1.00" d=" M 18.76 31.60 C 19.42 33.04 20.16 34.45 21.03 35.78 C 14.72 39.88 9.44 45.23 3.58 49.90 C 3.31 44.33 3.40 38.73 4.36 33.22 C 9.14 32.43 14.23 33.62 18.76 31.60 Z" />
</g>
<g id="#dfdfdfff">
<path fill="#dfdfdf" opacity="1.00" d=" M 44.11 34.38 C 44.45 33.69 45.12 32.30 45.46 31.61 C 50.20 31.69 54.94 31.74 59.66 32.11 C 59.98 34.21 60.31 36.30 60.56 38.41 C 60.15 41.33 59.73 44.25 59.50 47.20 C 54.12 43.24 48.87 39.07 44.11 34.38 Z" />
</g>
<g id="#b5b3b3f8">
<path fill="#b5b3b3" opacity="0.97" d=" M 43.33 35.58 C 43.61 35.19 43.87 34.79 44.11 34.38 C 48.87 39.07 54.12 43.24 59.50 47.20 C 59.73 44.25 60.15 41.33 60.56 38.41 L 60.67 37.57 C 60.90 42.07 60.87 46.59 60.80 51.10 L 60.23 51.05 C 54.56 45.94 49.11 40.58 43.33 35.58 Z" />
</g>
<g id="#d0d0d0ff">
<path fill="#d0d0d0" opacity="1.00" d=" M 3.58 49.90 C 9.44 45.23 14.72 39.88 21.03 35.78 C 24.48 40.15 28.25 44.26 32.08 48.29 C 36.01 44.22 39.93 40.11 43.33 35.58 C 49.11 40.58 54.56 45.94 60.23 51.05 C 41.34 51.08 22.45 51.11 3.56 51.05 L 3.58 49.90 Z" />
</g>
</svg>
