<?xml version="1.0" encoding="UTF-8" ?>
<!DOCTYPE svg PUBLIC "-//W3C//DTD SVG 1.1//EN" "http://www.w3.org/Graphics/SVG/1.1/DTD/svg11.dtd">
<svg width="64pt" height="64pt" viewBox="0 0 64 64" version="1.1" xmlns="http://www.w3.org/2000/svg">
<g id="#924127ff">
<path fill="#924127" opacity="1.00" d=" M 16.64 5.48 C 17.94 1.44 22.97 -1.14 26.90 0.85 C 29.10 1.70 30.52 3.66 32.00 5.39 C 33.81 3.10 35.94 0.64 39.03 0.24 C 43.50 -0.50 47.78 3.51 47.80 7.93 C 48.03 11.25 46.50 14.29 45.09 17.17 L 45.21 15.72 C 45.25 15.09 45.34 13.84 45.38 13.21 C 45.26 10.07 46.97 6.19 44.38 3.68 C 41.93 1.11 37.46 1.43 35.16 4.04 C 33.94 4.90 33.20 7.05 31.44 6.64 C 29.65 5.11 28.31 2.85 25.90 2.21 C 23.07 1.16 19.64 2.67 18.40 5.40 C 18.06 7.08 18.30 8.79 18.39 10.48 C 18.45 12.30 18.47 14.11 18.47 15.93 C 16.53 12.88 15.52 9.00 16.64 5.48 Z" />
<path fill="#924127" opacity="1.00" d=" M 3.73 19.47 C 9.32 18.88 15.16 17.27 20.68 19.06 C 23.91 23.63 28.47 27.05 31.77 31.53 C 31.72 32.09 31.68 32.66 31.66 33.23 C 29.06 34.35 26.74 35.97 24.66 37.87 C 24.26 37.56 23.47 36.94 23.07 36.63 C 17.09 31.79 8.27 34.03 2.50 28.93 C 0.61 25.88 1.09 21.92 3.73 19.47 Z" />
<path fill="#924127" opacity="1.00" d=" M 38.94 52.87 C 36.28 47.99 33.45 41.15 36.62 35.97 C 36.12 43.23 38.84 51.37 45.05 55.59 C 45.45 55.80 46.25 56.22 46.65 56.44 C 46.71 55.90 46.85 54.82 46.91 54.28 L 46.71 53.39 C 45.94 52.62 45.16 51.86 44.38 51.09 C 46.27 50.23 48.11 49.24 49.73 47.92 C 49.21 47.25 48.17 45.92 47.65 45.25 C 49.67 46.27 52.23 47.41 53.96 45.18 C 53.78 45.89 53.65 46.62 53.58 47.36 C 51.00 48.22 49.08 50.25 46.53 51.17 C 47.49 51.85 48.46 52.52 49.43 53.19 C 47.46 53.01 48.24 55.38 47.77 56.52 C 51.94 57.44 58.21 59.46 61.28 55.10 C 63.87 51.90 61.54 47.43 63.43 43.94 C 63.34 48.56 65.38 54.93 60.64 57.91 C 55.19 61.62 48.36 59.04 42.83 56.83 C 42.64 56.69 42.25 56.40 42.06 56.25 C 42.28 54.50 41.52 53.72 39.77 53.89 C 39.56 53.64 39.15 53.13 38.94 52.87 Z" />
</g>
<g id="#f4bfa9ff">
<path fill="#f4bfa9" opacity="1.00" d=" M 18.40 5.40 C 19.64 2.67 23.07 1.16 25.90 2.21 C 28.31 2.85 29.65 5.11 31.44 6.64 C 33.20 7.05 33.94 4.90 35.16 4.04 C 37.46 1.43 41.93 1.11 44.38 3.68 C 46.97 6.19 45.26 10.07 45.38 13.21 C 44.79 11.91 45.11 9.04 42.93 9.46 C 35.02 9.53 27.11 9.40 19.20 9.55 C 19.28 10.41 19.45 12.12 19.53 12.98 C 19.14 12.15 18.76 11.32 18.39 10.48 C 18.30 8.79 18.06 7.08 18.40 5.40 Z" />
<path fill="#f4bfa9" opacity="1.00" d=" M 0.52 32.13 C 1.33 31.41 2.14 30.69 2.95 29.97 C 4.05 34.00 3.28 38.20 3.46 42.31 C 3.50 42.59 3.57 43.16 3.61 43.44 C 3.78 44.35 3.97 45.25 4.18 46.15 C 4.59 50.84 10.67 50.97 14.21 50.30 C 11.61 49.38 8.62 48.20 9.22 44.83 C 11.00 44.81 12.78 44.61 14.57 44.56 C 14.91 44.16 15.59 43.36 15.93 42.96 C 17.18 43.49 18.49 44.29 19.90 43.81 C 21.50 43.52 23.14 41.25 21.67 39.85 C 22.11 38.76 22.59 37.69 23.07 36.63 C 23.47 36.94 24.26 37.56 24.66 37.87 C 27.01 40.53 28.43 44.35 27.16 47.83 C 25.25 53.23 20.76 57.97 15.12 59.37 C 11.69 59.88 8.20 59.54 4.75 59.49 C 3.76 58.64 2.71 57.89 1.59 57.23 C -0.55 49.08 0.76 40.48 0.52 32.13 M 15.19 49.34 C 15.65 50.18 16.40 50.66 17.44 50.79 C 17.17 52.05 16.28 52.78 14.77 52.99 C 15.45 53.56 16.81 54.70 17.49 55.27 C 16.57 55.65 14.74 56.41 13.82 56.78 C 15.46 56.66 17.10 56.52 18.73 56.35 C 18.86 54.89 17.84 54.24 16.56 53.85 C 17.03 52.84 17.85 52.16 19.03 51.81 C 18.51 50.13 16.63 49.86 15.19 49.34 Z" />
<path fill="#f4bfa9" opacity="1.00" d=" M 36.62 35.97 C 38.11 34.45 39.51 32.84 40.76 31.12 C 41.57 31.58 42.38 32.02 43.21 32.44 C 42.69 34.87 42.18 37.30 41.74 39.74 C 40.73 43.26 45.35 45.69 47.78 42.95 C 49.80 45.77 52.96 44.66 55.69 43.72 C 57.27 44.20 59.00 44.33 60.36 43.21 L 60.33 42.55 C 60.10 40.00 59.96 37.45 59.97 34.89 C 61.31 35.08 62.65 35.24 64.00 35.36 L 64.00 35.78 C 63.51 36.65 63.05 37.54 62.60 38.43 C 63.71 40.07 63.44 42.09 63.43 43.94 C 61.54 47.43 63.87 51.90 61.28 55.10 C 58.21 59.46 51.94 57.44 47.77 56.52 C 48.24 55.38 47.46 53.01 49.43 53.19 C 48.46 52.52 47.49 51.85 46.53 51.17 C 49.08 50.25 51.00 48.22 53.58 47.36 C 53.65 46.62 53.78 45.89 53.96 45.18 C 52.23 47.41 49.67 46.27 47.65 45.25 C 48.17 45.92 49.21 47.25 49.73 47.92 C 48.11 49.24 46.27 50.23 44.38 51.09 C 45.16 51.86 45.94 52.62 46.71 53.39 L 46.91 54.28 C 46.45 54.61 45.52 55.26 45.05 55.59 C 38.84 51.37 36.12 43.23 36.62 35.97 Z" />
</g>
<g id="#fe41baff">
<path fill="#fe41ba" opacity="1.00" d=" M 19.20 9.55 C 27.11 9.40 35.02 9.53 42.93 9.46 C 45.11 9.04 44.79 11.91 45.38 13.21 C 45.34 13.84 45.25 15.09 45.21 15.72 C 44.61 16.94 43.96 18.14 43.27 19.31 C 43.16 19.48 42.96 19.83 42.86 20.00 C 39.56 23.70 36.30 27.47 32.60 30.78 L 31.77 31.53 C 28.47 27.05 23.91 23.63 20.68 19.06 C 20.04 18.22 19.39 17.39 18.80 16.52 L 18.47 15.93 C 18.47 14.11 18.45 12.30 18.39 10.48 C 18.76 11.32 19.14 12.15 19.53 12.98 C 19.45 12.12 19.28 10.41 19.20 9.55 Z" />
</g>
<g id="#360e06ff">
<path fill="#360e06" opacity="1.00" d=" M 0.00 16.72 C 6.30 17.16 12.52 15.42 18.80 16.52 C 19.39 17.39 20.04 18.22 20.68 19.06 C 15.16 17.27 9.32 18.88 3.73 19.47 C 1.09 21.92 0.61 25.88 2.50 28.93 L 2.95 29.97 C 2.14 30.69 1.33 31.41 0.52 32.13 C 0.76 40.48 -0.55 49.08 1.59 57.23 C 2.71 57.89 3.76 58.64 4.75 59.49 C 8.20 59.54 11.69 59.88 15.12 59.37 C 20.76 57.97 25.25 53.23 27.16 47.83 C 28.43 44.35 27.01 40.53 24.66 37.87 C 26.74 35.97 29.06 34.35 31.66 33.23 C 32.23 41.81 32.02 50.53 30.04 58.93 C 29.66 60.78 28.70 62.41 27.73 64.00 L 26.41 64.00 C 17.65 62.95 8.80 63.12 0.00 63.34 L 0.00 16.72 Z" />
<path fill="#360e06" opacity="1.00" d=" M 15.19 49.34 C 16.63 49.86 18.51 50.13 19.03 51.81 C 17.85 52.16 17.03 52.84 16.56 53.85 C 17.84 54.24 18.86 54.89 18.73 56.35 C 17.10 56.52 15.46 56.66 13.82 56.78 C 14.74 56.41 16.57 55.65 17.49 55.27 C 16.81 54.70 15.45 53.56 14.77 52.99 C 16.28 52.78 17.17 52.05 17.44 50.79 C 16.40 50.66 15.65 50.18 15.19 49.34 Z" />
</g>
<g id="#090201ff">
<path fill="#090201" opacity="1.00" d=" M 45.21 15.72 L 45.09 17.17 C 51.29 15.56 58.06 15.68 64.00 18.23 L 64.00 23.43 C 62.30 22.07 60.62 20.58 58.57 19.77 C 53.51 19.40 48.24 19.12 43.40 20.96 L 43.27 19.31 C 43.96 18.14 44.61 16.94 45.21 15.72 Z" />
<path fill="#090201" opacity="1.00" d=" M 32.60 30.78 C 36.30 27.47 39.56 23.70 42.86 20.00 C 42.50 23.06 41.11 25.99 41.63 29.13 C 43.79 30.32 45.89 31.80 48.36 32.31 C 50.82 32.58 53.30 32.38 55.77 32.57 C 56.01 32.87 56.49 33.45 56.73 33.75 L 55.19 33.46 C 55.63 34.16 56.52 35.55 56.96 36.25 C 52.28 35.39 47.59 34.36 43.21 32.44 C 42.38 32.02 41.57 31.58 40.76 31.12 C 39.51 32.84 38.11 34.45 36.62 35.97 C 33.45 41.15 36.28 47.99 38.94 52.87 C 36.92 50.08 35.78 46.77 34.17 43.74 C 32.21 39.70 32.55 35.13 32.60 30.78 Z" />
<path fill="#090201" opacity="1.00" d=" M 63.46 31.10 L 64.00 33.66 L 64.00 35.36 C 62.65 35.24 61.31 35.08 59.97 34.89 C 59.19 34.61 57.62 34.06 56.84 33.78 C 59.02 32.83 61.22 31.91 63.46 31.10 Z" />
<path fill="#090201" opacity="1.00" d=" M 3.46 42.31 C 5.79 42.42 7.72 41.11 9.68 40.06 C 9.77 43.25 6.32 45.02 3.61 43.44 C 3.57 43.16 3.50 42.59 3.46 42.31 Z" />
<path fill="#090201" opacity="1.00" d=" M 21.67 39.85 C 23.14 41.25 21.50 43.52 19.90 43.81 C 18.49 44.29 17.18 43.49 15.93 42.96 L 16.42 42.53 C 18.39 42.13 20.51 41.70 21.67 39.85 Z" />
<path fill="#090201" opacity="1.00" d=" M 47.78 42.95 C 45.35 45.69 40.73 43.26 41.74 39.74 C 43.30 41.58 45.56 42.28 47.78 42.95 Z" />
<path fill="#090201" opacity="1.00" d=" M 54.28 39.88 C 56.11 41.17 57.95 42.64 60.33 42.55 L 60.36 43.21 C 59.00 44.33 57.27 44.20 55.69 43.72 C 54.83 42.60 54.50 41.24 54.28 39.88 Z" />
</g>
<g id="#464646ff">
<path fill="#464646" opacity="1.00" d=" M 42.86 20.00 C 42.96 19.83 43.16 19.48 43.27 19.31 L 43.40 20.96 C 48.24 19.12 53.51 19.40 58.57 19.77 C 60.62 20.58 62.30 22.07 64.00 23.43 L 64.00 33.66 L 63.46 31.10 C 61.22 31.91 59.02 32.83 56.84 33.78 L 56.73 33.75 C 56.49 33.45 56.01 32.87 55.77 32.57 C 53.30 32.38 50.82 32.58 48.36 32.31 C 45.89 31.80 43.79 30.32 41.63 29.13 C 41.11 25.99 42.50 23.06 42.86 20.00 Z" />
<path fill="#464646" opacity="1.00" d=" M 62.60 38.43 C 63.05 37.54 63.51 36.65 64.00 35.78 L 64.00 57.99 C 57.49 61.70 48.68 61.94 42.83 56.83 C 48.36 59.04 55.19 61.62 60.64 57.91 C 65.38 54.93 63.34 48.56 63.43 43.94 C 63.44 42.09 63.71 40.07 62.60 38.43 Z" />
<path fill="#464646" opacity="1.00" d=" M 39.77 53.89 C 41.52 53.72 42.28 54.50 42.06 56.25 C 41.02 55.73 40.26 54.94 39.77 53.89 Z" />
<path fill="#464646" opacity="1.00" d=" M 45.05 55.59 C 45.52 55.26 46.45 54.61 46.91 54.28 C 46.85 54.82 46.71 55.90 46.65 56.44 C 46.25 56.22 45.45 55.80 45.05 55.59 Z" />
</g>
<g id="#fbdec3ff">
<path fill="#fbdec3" opacity="1.00" d=" M 2.50 28.93 C 8.27 34.03 17.09 31.79 23.07 36.63 C 22.59 37.69 22.11 38.76 21.67 39.85 C 20.51 41.70 18.39 42.13 16.42 42.53 L 15.93 42.96 C 15.59 43.36 14.91 44.16 14.57 44.56 C 12.78 44.61 11.00 44.81 9.22 44.83 C 8.62 48.20 11.61 49.38 14.21 50.30 C 10.67 50.97 4.59 50.84 4.18 46.15 C 3.97 45.25 3.78 44.35 3.61 43.44 C 6.32 45.02 9.77 43.25 9.68 40.06 C 7.72 41.11 5.79 42.42 3.46 42.31 C 3.28 38.20 4.05 34.00 2.95 29.97 L 2.50 28.93 Z" />
<path fill="#fbdec3" opacity="1.00" d=" M 43.21 32.44 C 47.59 34.36 52.28 35.39 56.96 36.25 C 56.52 35.55 55.63 34.16 55.19 33.46 L 56.73 33.75 L 56.84 33.78 C 57.62 34.06 59.19 34.61 59.97 34.89 C 59.96 37.45 60.10 40.00 60.33 42.55 C 57.95 42.64 56.11 41.17 54.28 39.88 C 54.50 41.24 54.83 42.60 55.69 43.72 C 52.96 44.66 49.80 45.77 47.78 42.95 C 45.56 42.28 43.30 41.58 41.74 39.74 C 42.18 37.30 42.69 34.87 43.21 32.44 Z" />
</g>
</svg>
