<?xml version="1.0" encoding="UTF-8" ?>
<!DOCTYPE svg PUBLIC "-//W3C//DTD SVG 1.1//EN" "http://www.w3.org/Graphics/SVG/1.1/DTD/svg11.dtd">
<svg width="64pt" height="64pt" viewBox="0 0 64 64" version="1.1" xmlns="http://www.w3.org/2000/svg">
<g id="#4e1507ff">
<path fill="#4e1507" opacity="1.00" d=" M 15.05 2.76 C 19.36 2.45 23.70 2.53 28.01 2.07 C 35.04 1.37 42.26 5.31 45.28 11.73 C 48.76 18.22 47.78 25.81 47.75 32.88 C 49.98 32.68 52.64 31.10 54.33 33.38 C 54.93 33.35 56.14 33.29 56.74 33.25 C 56.53 33.53 56.10 34.08 55.88 34.36 C 51.86 34.04 47.08 31.90 43.51 34.68 C 41.98 37.87 41.05 42.21 36.65 42.18 C 39.51 37.63 41.31 32.33 40.76 26.91 C 40.89 25.21 39.91 23.87 38.58 22.93 L 38.44 22.83 C 40.25 22.44 42.86 22.82 43.58 20.61 C 45.51 16.43 43.39 11.62 40.67 8.32 C 36.96 4.05 30.97 3.21 25.62 3.46 C 19.74 3.56 12.75 3.67 8.80 8.77 C 6.35 11.37 6.35 15.05 6.35 18.38 C 7.53 19.22 8.70 20.06 9.87 20.91 C 7.71 27.82 8.78 35.33 12.52 41.49 C 10.79 41.20 8.66 41.05 7.96 39.12 C 4.72 32.76 3.02 25.68 2.24 18.61 C 3.20 11.62 7.85 4.45 15.05 2.76 Z" />
</g>
<g id="#81331cff">
<path fill="#81331c" opacity="1.00" d=" M 25.62 3.46 C 30.97 3.21 36.96 4.05 40.67 8.32 C 43.39 11.62 45.51 16.43 43.58 20.61 C 42.86 22.82 40.25 22.44 38.44 22.83 C 37.26 22.11 36.04 21.45 34.79 20.87 C 29.81 19.00 24.07 19.38 19.52 16.40 C 19.22 16.13 18.92 15.85 18.62 15.58 C 16.53 17.26 14.37 18.92 11.90 20.01 C 11.39 20.23 10.38 20.69 9.87 20.91 C 8.70 20.06 7.53 19.22 6.35 18.38 C 6.35 15.05 6.35 11.37 8.80 8.77 C 12.75 3.67 19.74 3.56 25.62 3.46 M 16.54 10.97 C 21.45 14.24 27.10 16.65 33.04 17.08 C 35.24 17.20 38.49 16.75 38.82 14.03 C 38.26 11.14 36.03 8.63 33.21 7.75 C 27.58 5.60 21.27 7.62 16.54 10.97 Z" />
</g>
<g id="#9e492eff">
<path fill="#9e492e" opacity="1.00" d=" M 16.54 10.97 C 21.27 7.62 27.58 5.60 33.21 7.75 C 36.03 8.63 38.26 11.14 38.82 14.03 C 38.49 16.75 35.24 17.20 33.04 17.08 C 27.10 16.65 21.45 14.24 16.54 10.97 Z" />
</g>
<g id="#e3b48eff">
<path fill="#e3b48e" opacity="1.00" d=" M 18.62 15.58 C 18.92 15.85 19.22 16.13 19.52 16.40 C 18.75 17.96 17.88 19.48 16.76 20.81 C 18.67 22.36 20.88 23.67 22.32 25.71 C 22.43 27.05 22.33 28.41 22.32 29.75 L 21.47 28.60 C 21.42 27.93 21.32 26.59 21.26 25.92 C 20.54 25.62 19.09 25.00 18.36 24.70 C 17.17 24.67 15.97 24.71 14.78 24.81 C 13.97 25.23 12.34 26.07 11.53 26.49 C 13.12 28.03 14.93 29.32 16.95 30.25 C 15.97 30.62 15.00 30.98 14.03 31.35 C 15.48 33.58 16.71 35.95 17.97 38.29 C 19.41 40.95 21.63 43.83 24.97 43.77 C 28.16 43.73 30.08 40.93 31.74 38.61 C 32.23 38.76 32.72 38.92 33.22 39.08 C 34.87 36.22 36.68 33.15 36.05 29.71 C 36.74 27.85 37.85 25.28 35.14 24.46 C 34.60 24.95 33.52 25.94 32.98 26.43 C 32.48 26.04 31.49 25.25 31.00 24.85 C 29.74 25.01 28.49 25.17 27.24 25.37 C 29.60 23.62 32.19 22.22 34.79 20.87 C 36.04 21.45 37.26 22.11 38.44 22.83 L 38.58 22.93 C 38.49 27.10 39.10 31.38 38.05 35.47 C 36.05 40.84 31.36 46.47 25.02 45.73 C 18.62 46.45 13.68 40.91 11.72 35.39 C 9.64 30.43 11.49 25.10 11.90 20.01 C 14.37 18.92 16.53 17.26 18.62 15.58 Z" />
</g>
<g id="#fce1c8ff">
<path fill="#fce1c8" opacity="1.00" d=" M 16.76 20.81 C 17.88 19.48 18.75 17.96 19.52 16.40 C 24.07 19.38 29.81 19.00 34.79 20.87 C 32.19 22.22 29.60 23.62 27.24 25.37 C 25.71 27.10 27.92 29.13 28.47 30.86 C 26.38 30.76 24.28 30.51 22.32 29.75 C 22.33 28.41 22.43 27.05 22.32 25.71 C 20.88 23.67 18.67 22.36 16.76 20.81 Z" />
<path fill="#fce1c8" opacity="1.00" d=" M 15.82 25.42 C 16.60 25.92 16.60 25.92 15.82 25.42 Z" />
</g>
<g id="#360b02ff">
<path fill="#360b02" opacity="1.00" d=" M 2.24 18.61 C 3.02 25.68 4.72 32.76 7.96 39.12 C 8.66 41.05 10.79 41.20 12.52 41.49 C 14.61 43.77 17.14 45.58 19.74 47.22 C 19.59 47.48 19.30 48.00 19.15 48.26 C 17.88 48.53 16.60 48.76 15.31 49.00 C 13.00 48.35 10.52 47.91 8.53 46.49 C 6.27 44.02 4.56 41.11 2.39 38.57 C 1.82 31.94 1.83 25.25 2.24 18.61 Z" />
</g>
<g id="#996f47ff">
<path fill="#996f47" opacity="1.00" d=" M 9.87 20.91 C 10.38 20.69 11.39 20.23 11.90 20.01 C 11.49 25.10 9.64 30.43 11.72 35.39 C 13.68 40.91 18.62 46.45 25.02 45.73 C 31.36 46.47 36.05 40.84 38.05 35.47 C 39.10 31.38 38.49 27.10 38.58 22.93 C 39.91 23.87 40.89 25.21 40.76 26.91 C 41.31 32.33 39.51 37.63 36.65 42.18 C 34.62 43.97 32.40 45.52 30.31 47.23 L 30.30 48.23 C 30.33 49.40 30.33 50.58 30.32 51.75 C 30.22 51.94 30.03 52.32 29.93 52.51 C 29.07 51.18 28.40 49.75 27.99 48.23 C 25.77 48.22 23.55 48.29 21.33 48.42 C 20.91 49.89 20.50 51.36 20.08 52.83 C 19.58 51.62 19.16 50.37 18.72 49.14 L 19.15 48.26 C 19.30 48.00 19.59 47.48 19.74 47.22 C 17.14 45.58 14.61 43.77 12.52 41.49 C 8.78 35.33 7.71 27.82 9.87 20.91 Z" />
<path fill="#996f47" opacity="1.00" d=" M 56.74 33.25 C 58.75 32.89 60.80 32.79 62.49 34.09 C 60.28 34.83 58.00 35.32 55.68 35.52 C 55.50 35.53 55.13 35.56 54.95 35.57 L 55.88 34.36 C 56.10 34.08 56.53 33.53 56.74 33.25 Z" />
</g>
<g id="#1f0200ff">
<path fill="#1f0200" opacity="1.00" d=" M 14.78 24.81 C 15.97 24.71 17.17 24.67 18.36 24.70 C 18.37 25.38 18.38 26.75 18.39 27.44 C 17.22 27.41 16.06 27.39 14.90 27.36 C 14.87 26.72 14.81 25.44 14.78 24.81 M 15.82 25.42 C 16.60 25.92 16.60 25.92 15.82 25.42 Z" />
<path fill="#1f0200" opacity="1.00" d=" M 31.00 24.85 C 31.49 25.25 32.48 26.04 32.98 26.43 C 33.52 25.94 34.60 24.95 35.14 24.46 C 34.91 25.19 34.46 26.66 34.24 27.39 C 33.41 27.39 32.58 27.40 31.76 27.40 C 31.57 26.76 31.19 25.49 31.00 24.85 Z" />
<path fill="#1f0200" opacity="1.00" d=" M 2.39 38.57 C 4.56 41.11 6.27 44.02 8.53 46.49 C 10.52 47.91 13.00 48.35 15.31 49.00 C 13.20 49.62 11.12 50.37 9.03 51.05 C 8.24 51.17 6.67 51.40 5.89 51.52 C 3.92 47.46 2.74 43.07 2.39 38.57 Z" />
<path fill="#1f0200" opacity="1.00" d=" M 42.92 44.44 C 42.90 46.62 42.96 48.80 43.06 50.98 C 42.31 51.07 40.81 51.24 40.06 51.33 C 38.25 50.47 36.36 49.82 34.45 49.27 C 37.68 48.52 40.93 47.25 42.92 44.44 Z" />
</g>
<g id="#e8e7e5ff">
<path fill="#e8e7e5" opacity="1.00" d=" M 11.53 26.49 C 12.34 26.07 13.97 25.23 14.78 24.81 C 14.81 25.44 14.87 26.72 14.90 27.36 C 16.06 27.39 17.22 27.41 18.39 27.44 C 18.38 26.75 18.37 25.38 18.36 24.70 C 19.09 25.00 20.54 25.62 21.26 25.92 C 21.32 26.59 21.42 27.93 21.47 28.60 C 19.96 29.13 18.45 29.68 16.95 30.25 C 14.93 29.32 13.12 28.03 11.53 26.49 Z" />
</g>
<g id="#f5ceabff">
<path fill="#f5ceab" opacity="1.00" d=" M 28.47 30.86 C 27.92 29.13 25.71 27.10 27.24 25.37 C 28.49 25.17 29.74 25.01 31.00 24.85 C 31.19 25.49 31.57 26.76 31.76 27.40 C 32.58 27.40 33.41 27.39 34.24 27.39 C 34.46 26.66 34.91 25.19 35.14 24.46 C 37.85 25.28 36.74 27.85 36.05 29.71 C 36.68 33.15 34.87 36.22 33.22 39.08 C 32.72 38.92 32.23 38.76 31.74 38.61 C 27.15 38.56 22.55 38.84 17.97 38.29 C 16.71 35.95 15.48 33.58 14.03 31.35 C 15.00 30.98 15.97 30.62 16.95 30.25 C 18.45 29.68 19.96 29.13 21.47 28.60 L 22.32 29.75 C 24.28 30.51 26.38 30.76 28.47 30.86 M 20.96 32.27 C 21.83 33.74 22.87 35.76 24.95 35.41 C 27.11 35.73 28.09 33.61 28.42 31.86 C 25.99 32.64 23.47 32.52 20.96 32.27 Z" />
</g>
<g id="#997d5cff">
<path fill="#997d5c" opacity="1.00" d=" M 20.96 32.27 C 23.47 32.52 25.99 32.64 28.42 31.86 C 28.09 33.61 27.11 35.73 24.95 35.41 C 22.87 35.76 21.83 33.74 20.96 32.27 Z" />
</g>
<g id="#f5cba8ff">
<path fill="#f5cba8" opacity="1.00" d=" M 43.51 34.68 C 47.08 31.90 51.86 34.04 55.88 34.36 L 54.95 35.57 C 55.13 35.56 55.50 35.53 55.68 35.52 C 55.24 35.59 54.36 35.75 53.92 35.82 C 52.82 36.32 51.74 36.86 50.69 37.46 C 50.38 37.63 49.77 37.98 49.47 38.15 C 47.72 38.37 45.95 38.43 44.20 38.56 C 44.02 37.59 43.68 35.65 43.51 34.68 Z" />
</g>
<g id="#330a02ff">
<path fill="#330a02" opacity="1.00" d=" M 36.65 42.18 C 41.05 42.21 41.98 37.87 43.51 34.68 C 43.68 35.65 44.02 37.59 44.20 38.56 C 43.98 43.56 43.39 48.56 43.63 53.57 C 42.62 52.91 41.61 52.24 40.57 51.61 L 40.06 51.33 C 40.81 51.24 42.31 51.07 43.06 50.98 C 42.96 48.80 42.90 46.62 42.92 44.44 C 40.93 47.25 37.68 48.52 34.45 49.27 C 34.12 49.18 33.46 49.00 33.13 48.91 C 32.19 48.67 31.25 48.44 30.30 48.23 L 30.31 47.23 C 32.40 45.52 34.62 43.97 36.65 42.18 Z" />
</g>
<g id="#1f0101ff">
<path fill="#1f0101" opacity="1.00" d=" M 49.47 38.15 C 49.77 37.98 50.38 37.63 50.69 37.46 C 50.37 46.31 51.42 55.15 51.60 64.00 L 51.41 64.00 C 51.31 59.98 50.93 55.98 50.61 51.97 C 50.69 47.34 50.19 42.72 49.47 38.15 Z" />
<path fill="#1f0101" opacity="1.00" d=" M 17.97 38.29 C 22.55 38.84 27.15 38.56 31.74 38.61 C 30.08 40.93 28.16 43.73 24.97 43.77 C 21.63 43.83 19.41 40.95 17.97 38.29 Z" />
</g>
<g id="#d77ab2ff">
<path fill="#d77ab2" opacity="1.00" d=" M 44.20 38.56 C 45.95 38.43 47.72 38.37 49.47 38.15 C 50.19 42.72 50.69 47.34 50.61 51.97 L 49.37 53.66 C 48.65 52.32 47.93 50.98 47.21 49.64 C 44.86 54.11 45.13 59.25 46.41 64.00 L 44.52 64.00 C 43.88 60.56 43.64 57.06 43.63 53.57 C 43.39 48.56 43.98 43.56 44.20 38.56 Z" />
</g>
<g id="#9e477af7">
<path fill="#9e477a" opacity="0.97" d=" M 15.31 49.00 C 16.60 48.76 17.88 48.53 19.15 48.26 L 18.72 49.14 C 18.33 50.00 17.94 50.86 17.56 51.73 C 17.22 51.24 16.54 50.26 16.19 49.77 C 13.15 50.53 9.73 51.17 7.77 53.91 C 5.24 56.67 6.19 60.63 6.20 64.00 L 4.90 64.00 C 4.83 59.36 4.50 53.83 9.03 51.05 C 11.12 50.37 13.20 49.62 15.31 49.00 Z" />
</g>
<g id="#bd3f68ff">
<path fill="#bd3f68" opacity="1.00" d=" M 30.30 48.23 C 31.25 48.44 32.19 48.67 33.13 48.91 C 32.14 50.97 31.17 53.04 29.96 54.98 C 28.24 56.42 26.54 57.89 24.86 59.38 C 23.26 57.91 21.64 56.45 20.04 54.98 C 19.17 53.93 18.36 52.83 17.56 51.73 C 17.94 50.86 18.33 50.00 18.72 49.14 C 19.16 50.37 19.58 51.62 20.08 52.83 C 21.56 54.57 23.19 56.17 24.82 57.77 C 26.55 56.04 28.29 54.33 29.93 52.51 C 30.03 52.32 30.22 51.94 30.32 51.75 C 30.33 50.58 30.33 49.40 30.30 48.23 Z" />
</g>
<g id="#f0c8a6ff">
<path fill="#f0c8a6" opacity="1.00" d=" M 21.33 48.42 C 23.55 48.29 25.77 48.22 27.99 48.23 C 28.40 49.75 29.07 51.18 29.93 52.51 C 28.29 54.33 26.55 56.04 24.82 57.77 C 23.19 56.17 21.56 54.57 20.08 52.83 C 20.50 51.36 20.91 49.89 21.33 48.42 Z" />
</g>
<g id="#d17ab1ff">
<path fill="#d17ab1" opacity="1.00" d=" M 29.96 54.98 C 31.17 53.04 32.14 50.97 33.13 48.91 C 33.46 49.00 34.12 49.18 34.45 49.27 C 36.36 49.82 38.25 50.47 40.06 51.33 L 40.57 51.61 C 41.95 55.71 41.65 60.07 39.86 64.00 L 6.20 64.00 C 6.19 60.63 5.24 56.67 7.77 53.91 C 9.73 51.17 13.15 50.53 16.19 49.77 C 16.54 50.26 17.22 51.24 17.56 51.73 C 18.36 52.83 19.17 53.93 20.04 54.98 C 16.75 53.41 11.94 52.03 9.12 55.16 C 7.07 57.12 7.30 60.06 7.08 62.64 C 13.68 63.71 20.38 63.43 27.03 63.21 C 30.51 62.97 34.14 62.88 37.36 61.39 C 37.68 58.86 38.62 54.70 35.49 53.63 C 33.56 53.55 31.75 54.36 29.96 54.98 Z" />
</g>
<g id="#fd9ddeff">
<path fill="#fd9dde" opacity="1.00" d=" M 46.41 64.00 C 45.13 59.25 44.86 54.11 47.21 49.64 C 47.93 50.98 48.65 52.32 49.37 53.66 C 49.40 57.14 49.95 60.81 48.21 64.00 L 46.41 64.00 Z" />
<path fill="#fd9dde" opacity="1.00" d=" M 9.12 55.16 C 11.94 52.03 16.75 53.41 20.04 54.98 C 21.64 56.45 23.26 57.91 24.86 59.38 C 26.54 57.89 28.24 56.42 29.96 54.98 C 31.75 54.36 33.56 53.55 35.49 53.63 C 38.62 54.70 37.68 58.86 37.36 61.39 C 34.14 62.88 30.51 62.97 27.03 63.21 C 20.38 63.43 13.68 63.71 7.08 62.64 C 7.30 60.06 7.07 57.12 9.12 55.16 Z" />
</g>
<g id="#8b4f76ff">
<path fill="#8b4f76" opacity="1.00" d=" M 40.57 51.61 C 41.61 52.24 42.62 52.91 43.63 53.57 C 43.64 57.06 43.88 60.56 44.52 64.00 L 39.86 64.00 C 41.65 60.07 41.95 55.71 40.57 51.61 Z" />
</g>
<g id="#d966b0ff">
<path fill="#d966b0" opacity="1.00" d=" M 49.37 53.66 L 50.61 51.97 C 50.93 55.98 51.31 59.98 51.41 64.00 L 48.21 64.00 C 49.95 60.81 49.40 57.14 49.37 53.66 Z" />
</g>
</svg>
