<?xml version="1.0" encoding="UTF-8" ?>
<!DOCTYPE svg PUBLIC "-//W3C//DTD SVG 1.1//EN" "http://www.w3.org/Graphics/SVG/1.1/DTD/svg11.dtd">
<svg width="64pt" height="64pt" viewBox="0 0 64 64" version="1.1" xmlns="http://www.w3.org/2000/svg">
<g id="#0d0d0d5b">
<path fill="#0d0d0d" opacity="0.36" d=" M 60.30 3.02 C 61.32 3.64 61.13 4.36 59.73 5.20 C 58.54 4.56 58.73 3.83 60.30 3.02 Z" />
</g>
<g id="#363436d1">
<path fill="#363436" opacity="0.82" d=" M 57.36 5.87 L 59.05 5.07 C 54.40 11.32 48.58 16.74 43.61 22.79 C 44.99 24.61 43.36 25.73 42.08 26.86 C 42.07 27.41 42.06 28.51 42.05 29.06 C 40.83 27.98 39.35 27.23 38.18 26.08 C 39.76 27.80 42.69 26.19 42.56 24.03 C 43.19 21.22 39.87 20.82 37.99 21.93 C 38.26 21.47 38.81 20.55 39.09 20.09 C 39.75 20.16 41.08 20.30 41.74 20.37 C 46.77 15.34 52.34 10.90 57.36 5.87 Z" />
</g>
<g id="#9d1702fa">
<path fill="#9d1702" opacity="0.98" d=" M 56.62 13.98 C 57.48 12.76 57.24 10.78 58.77 10.09 C 59.20 11.36 59.68 12.61 60.20 13.84 C 60.44 15.75 60.01 19.58 57.21 17.88 C 56.82 16.61 56.63 15.32 56.62 13.98 Z" />
</g>
<g id="#470900bc">
<path fill="#470900" opacity="0.74" d=" M 57.20 18.99 C 55.80 17.62 55.64 15.64 56.62 13.98 C 56.63 15.32 56.82 16.61 57.21 17.88 C 60.01 19.58 60.44 15.75 60.20 13.84 C 62.08 15.97 60.31 20.34 57.20 18.99 Z" />
</g>
<g id="#8a1c11f5">
<path fill="#8a1c11" opacity="0.96" d=" M 22.86 31.98 C 26.55 28.49 29.91 24.64 33.75 21.32 C 34.32 21.62 35.47 22.21 36.04 22.50 C 35.58 23.58 35.91 24.40 37.04 24.98 C 37.33 25.26 37.90 25.81 38.18 26.08 C 39.35 27.23 40.83 27.98 42.05 29.06 C 41.34 29.74 40.53 30.26 39.61 30.63 C 37.93 28.32 35.77 26.41 33.78 24.38 L 34.15 23.95 C 33.98 23.69 33.62 23.17 33.45 22.91 C 31.43 26.35 28.14 28.81 25.50 31.75 C 24.07 33.02 22.69 34.35 21.63 35.96 C 20.56 34.48 22.10 33.16 22.86 31.98 Z" />
</g>
<g id="#54302ec6">
<path fill="#54302e" opacity="0.78" d=" M 36.04 22.50 C 36.51 22.39 37.44 22.17 37.90 22.06 C 37.74 23.07 37.46 24.04 37.04 24.98 C 35.91 24.40 35.58 23.58 36.04 22.50 Z" />
</g>
<g id="#e1e2e6ff">
<path fill="#e1e2e6" opacity="1.00" d=" M 37.90 22.06 L 37.99 21.93 C 39.87 20.82 43.19 21.22 42.56 24.03 C 42.69 26.19 39.76 27.80 38.18 26.08 C 37.90 25.81 37.33 25.26 37.04 24.98 C 37.46 24.04 37.74 23.07 37.90 22.06 Z" />
<path fill="#e1e2e6" opacity="1.00" d=" M 37.43 29.59 C 35.64 28.36 33.73 26.76 33.78 24.38 C 35.77 26.41 37.93 28.32 39.61 30.63 C 40.53 30.26 41.34 29.74 42.05 29.06 C 43.17 29.96 42.29 31.53 41.11 31.81 C 40.64 31.62 39.70 31.24 39.23 31.04 C 38.78 30.68 37.88 29.96 37.43 29.59 Z" />
<path fill="#e1e2e6" opacity="1.00" d=" M 9.84 46.26 C 8.88 44.99 9.14 43.36 9.87 42.06 C 12.12 47.59 16.43 53.11 22.78 53.89 L 22.78 53.90 C 22.12 54.34 20.79 55.23 20.12 55.67 C 18.79 55.00 17.47 54.29 16.23 53.46 C 13.69 51.46 11.43 49.10 9.84 46.26 Z" />
</g>
<g id="#e8726eff">
<path fill="#e8726e" opacity="1.00" d=" M 33.45 22.91 C 33.62 23.17 33.98 23.69 34.15 23.95 L 33.78 24.38 C 33.73 26.76 35.64 28.36 37.43 29.59 C 34.69 31.50 32.39 33.94 30.05 36.29 C 28.49 34.82 26.97 33.31 25.50 31.75 C 28.14 28.81 31.43 26.35 33.45 22.91 Z" />
</g>
<g id="#961602fb">
<path fill="#961602" opacity="1.00" d=" M 56.68 26.86 C 57.44 25.69 57.27 23.54 58.78 23.12 C 59.26 24.40 59.78 25.66 60.29 26.92 C 61.05 28.81 59.64 33.23 57.19 30.95 C 57.07 30.45 56.83 29.44 56.71 28.93 C 57.80 29.88 58.60 29.86 59.11 28.87 C 59.57 27.00 57.56 27.23 56.70 28.20 L 56.68 26.86 Z" />
</g>
<g id="#37080092">
<path fill="#370800" opacity="0.57" d=" M 57.96 32.13 C 55.65 31.64 55.31 28.44 56.68 26.86 L 56.70 28.20 L 56.71 28.93 C 56.83 29.44 57.07 30.45 57.19 30.95 C 59.64 33.23 61.05 28.81 60.29 26.92 C 61.86 28.83 60.85 32.58 57.96 32.13 Z" />
</g>
<g id="#d42307ff">
<path fill="#d42307" opacity="1.00" d=" M 56.70 28.20 C 57.56 27.23 59.57 27.00 59.11 28.87 C 58.60 29.86 57.80 29.88 56.71 28.93 L 56.70 28.20 Z" />
</g>
<g id="#db2203ff">
<path fill="#db2203" opacity="1.00" d=" M 30.05 36.29 C 32.39 33.94 34.69 31.50 37.43 29.59 C 37.88 29.96 38.78 30.68 39.23 31.04 C 39.13 31.64 38.92 32.82 38.82 33.42 C 34.45 35.24 32.52 40.53 28.06 42.34 C 27.48 41.97 26.30 41.24 25.71 40.87 C 27.15 39.34 28.62 37.84 30.05 36.29 Z" />
</g>
<g id="#721205f2">
<path fill="#721205" opacity="0.95" d=" M 39.23 31.04 C 39.70 31.24 40.64 31.62 41.11 31.81 C 38.18 36.23 33.66 39.48 30.14 43.48 C 29.62 43.19 28.58 42.62 28.06 42.34 C 32.52 40.53 34.45 35.24 38.82 33.42 C 38.92 32.82 39.13 31.64 39.23 31.04 Z" />
</g>
<g id="#393436dd">
<path fill="#393436" opacity="0.87" d=" M 12.85 41.91 C 16.06 38.48 19.45 35.22 22.86 31.98 C 22.10 33.16 20.56 34.48 21.63 35.96 C 22.70 37.81 23.95 39.62 25.71 40.87 C 26.30 41.24 27.48 41.97 28.06 42.34 C 28.58 42.62 29.62 43.19 30.14 43.48 C 29.60 44.03 29.06 44.57 28.50 45.11 C 25.10 42.60 21.82 39.89 19.79 36.08 C 18.40 37.53 17.05 39.03 15.67 40.49 C 15.22 40.87 14.33 41.62 13.88 42.00 L 12.85 41.91 Z" />
</g>
<g id="#e34f48ff">
<path fill="#e34f48" opacity="1.00" d=" M 21.63 35.96 C 22.69 34.35 24.07 33.02 25.50 31.75 C 26.97 33.31 28.49 34.82 30.05 36.29 C 28.62 37.84 27.15 39.34 25.71 40.87 C 23.95 39.62 22.70 37.81 21.63 35.96 Z" />
</g>
<g id="#bebec4ff">
<path fill="#bebec4" opacity="1.00" d=" M 15.67 40.49 C 17.05 39.03 18.40 37.53 19.79 36.08 C 21.82 39.89 25.10 42.60 28.50 45.11 L 27.65 45.23 C 25.56 44.95 24.09 46.47 22.44 47.42 C 20.48 47.62 18.60 46.79 16.76 46.24 C 16.51 44.31 16.22 42.37 15.67 40.49 Z" />
<path fill="#bebec4" opacity="1.00" d=" M 4.91 55.85 C 6.70 54.71 8.35 52.83 10.69 53.40 C 10.64 55.10 10.35 56.78 10.01 58.44 C 8.19 59.62 10.10 61.56 10.88 62.76 C 9.31 62.54 7.33 63.18 6.15 61.80 C 4.14 59.86 1.24 57.98 1.22 54.92 L 0.00 55.64 L 0.00 54.79 C 1.38 54.28 3.15 53.62 4.16 55.18 C 4.35 55.35 4.72 55.68 4.91 55.85 Z" />
</g>
<g id="#28292c99">
<path fill="#28292c" opacity="0.60" d=" M 7.63 46.25 C 4.90 43.26 9.23 39.18 12.18 41.82 C 9.09 40.47 6.49 43.17 7.63 46.25 Z" />
</g>
<g id="#a2a1a7ff">
<path fill="#a2a1a7" opacity="1.00" d=" M 13.88 42.00 C 14.33 41.62 15.22 40.87 15.67 40.49 C 16.22 42.37 16.51 44.31 16.76 46.24 C 18.60 46.79 20.48 47.62 22.44 47.42 C 24.09 46.47 25.56 44.95 27.65 45.23 L 27.32 46.13 C 25.74 46.04 25.00 46.78 25.08 48.35 C 24.88 48.44 24.49 48.63 24.30 48.72 C 22.54 49.22 21.02 50.51 19.20 50.76 C 15.81 49.53 12.03 45.87 13.88 42.00 Z" />
</g>
<g id="#73737aff">
<path fill="#73737a" opacity="1.00" d=" M 7.63 46.25 C 6.49 43.17 9.09 40.47 12.18 41.82 L 12.85 41.91 L 13.88 42.00 C 12.03 45.87 15.81 49.53 19.20 50.76 C 21.02 50.51 22.54 49.22 24.30 48.72 C 23.54 49.65 22.82 50.60 22.13 51.58 C 22.29 52.16 22.62 53.31 22.78 53.89 C 16.43 53.11 12.12 47.59 9.87 42.06 C 9.14 43.36 8.88 44.99 9.84 46.26 C 11.43 49.10 13.69 51.46 16.23 53.46 C 14.84 53.35 13.92 53.89 13.46 55.07 C 12.45 56.33 11.40 57.59 10.01 58.44 C 10.35 56.78 10.64 55.10 10.69 53.40 C 8.35 52.83 6.70 54.71 4.91 55.85 C 4.72 55.68 4.35 55.35 4.16 55.18 C 6.13 53.50 7.95 51.66 9.86 49.92 C 9.19 48.66 8.39 47.47 7.63 46.25 Z" />
</g>
<g id="#343538a6">
<path fill="#343538" opacity="0.65" d=" M 25.08 48.35 C 25.00 46.78 25.74 46.04 27.32 46.13 C 27.00 47.31 26.25 48.04 25.08 48.35 Z" />
</g>
<g id="#535358e2">
<path fill="#535358" opacity="0.89" d=" M 13.46 55.07 C 13.92 53.89 14.84 53.35 16.23 53.46 C 17.47 54.29 18.79 55.00 20.12 55.67 C 20.79 55.23 22.12 54.34 22.78 53.90 L 23.14 55.14 C 21.00 58.87 17.21 56.38 14.65 54.62 C 14.36 54.73 13.76 54.96 13.46 55.07 Z" />
</g>
</svg>
