<?xml version="1.0" encoding="UTF-8" ?>
<!DOCTYPE svg PUBLIC "-//W3C//DTD SVG 1.1//EN" "http://www.w3.org/Graphics/SVG/1.1/DTD/svg11.dtd">
<svg width="64pt" height="64pt" viewBox="0 0 64 64" version="1.1" xmlns="http://www.w3.org/2000/svg">
<g id="#f2c9a6ff">
<path fill="#f2c9a6" opacity="1.00" d=" M 36.75 2.74 C 37.84 0.60 40.46 1.61 42.37 1.40 C 43.31 3.47 43.92 5.67 44.05 7.94 C 43.28 6.27 42.49 4.60 41.58 2.99 C 41.47 2.73 41.24 2.22 41.12 1.96 C 39.84 2.37 38.71 3.01 37.73 3.87 L 37.44 4.36 C 35.85 5.76 37.21 7.75 37.47 9.45 C 38.74 9.56 40.00 9.68 41.27 9.79 C 41.71 8.84 42.60 6.93 43.04 5.97 C 42.85 7.05 42.46 9.20 42.27 10.27 C 42.01 10.37 41.48 10.56 41.22 10.65 L 40.09 11.04 C 41.22 14.36 42.07 17.76 42.90 21.16 C 43.46 21.36 44.57 21.75 45.13 21.94 C 45.68 22.35 46.79 23.18 47.34 23.59 C 45.71 23.81 44.08 24.04 42.45 24.28 C 41.33 28.81 40.52 33.42 39.41 37.96 C 38.84 39.96 38.17 41.94 37.46 43.90 C 37.34 42.49 37.26 41.08 37.21 39.67 C 37.57 35.20 38.55 30.81 39.72 26.49 C 40.29 26.36 41.41 26.11 41.98 25.99 C 40.37 25.50 38.75 25.05 37.17 24.49 C 37.06 23.14 37.56 22.05 38.66 21.23 L 39.29 20.59 C 39.53 17.14 40.55 13.01 37.60 10.39 C 35.63 8.43 34.68 4.96 36.75 2.74 Z" />
<path fill="#f2c9a6" opacity="1.00" d=" M 2.19 25.25 C 5.14 24.49 10.20 26.05 8.62 29.95 C 7.59 30.91 6.51 31.83 5.46 32.77 C 6.46 33.72 7.46 34.68 8.46 35.64 C 8.69 35.33 9.14 34.70 9.37 34.39 C 11.43 35.15 13.61 35.26 15.71 34.62 C 15.93 34.88 16.35 35.40 16.56 35.66 C 17.65 34.95 18.74 34.25 19.83 33.54 C 18.94 32.44 18.04 31.35 17.14 30.25 C 19.01 30.12 20.89 30.09 22.73 29.71 C 24.00 28.90 24.73 27.51 25.66 26.37 C 25.77 26.45 25.97 26.61 26.08 26.69 C 26.24 27.09 26.55 27.89 26.71 28.29 C 26.74 34.03 24.65 40.17 19.97 43.75 C 16.46 46.66 11.67 45.36 7.52 45.51 C 3.91 42.59 1.60 38.52 0.00 34.23 L 0.00 25.95 C 0.55 25.78 1.64 25.43 2.19 25.25 M 3.23 26.38 C 1.86 28.41 6.08 29.61 6.57 27.37 C 6.55 25.83 4.24 25.88 3.23 26.38 M 6.03 38.43 C 6.81 41.45 9.52 43.02 12.00 44.49 C 15.35 43.75 18.13 41.67 19.69 38.59 C 15.14 38.75 10.57 38.94 6.03 38.43 Z" />
<path fill="#f2c9a6" opacity="1.00" d=" M 7.69 49.17 C 10.25 47.37 13.69 48.51 16.61 48.27 C 16.62 50.23 17.00 52.25 16.51 54.19 C 15.48 55.70 13.76 56.46 12.24 57.35 C 9.80 55.20 7.83 52.55 7.69 49.17 Z" />
</g>
<g id="#6c2816ff">
<path fill="#6c2816" opacity="1.00" d=" M 0.00 5.02 C 4.47 3.37 9.30 4.11 13.92 3.37 C 20.21 2.48 26.98 4.94 30.96 9.95 C 33.89 13.30 35.11 17.65 36.72 21.70 L 38.66 21.23 C 37.56 22.05 37.06 23.14 37.17 24.49 C 37.32 29.55 37.13 34.61 37.21 39.67 C 37.26 41.08 37.34 42.49 37.46 43.90 C 38.17 41.94 38.84 39.96 39.41 37.96 C 43.15 40.42 45.97 43.94 47.92 47.94 C 46.14 50.06 44.81 53.32 41.74 53.76 C 38.58 54.24 36.35 51.41 34.69 49.15 C 31.71 44.71 29.27 39.80 28.17 34.54 C 27.97 32.40 27.63 30.25 26.71 28.29 C 26.55 27.89 26.24 27.09 26.08 26.69 C 27.83 25.93 29.63 25.29 31.48 24.81 C 33.05 21.36 31.32 17.72 29.98 14.52 C 28.00 9.84 23.10 6.58 18.02 6.60 C 12.96 6.31 7.86 6.66 2.93 7.84 C 1.50 11.55 2.01 15.44 3.26 19.10 C 2.17 19.47 1.09 19.85 -0.00 20.23 L 0.00 5.02 Z" />
</g>
<g id="#160e0c83">
<path fill="#160e0c" opacity="0.51" d=" M 37.44 4.36 L 37.73 3.87 C 38.06 5.84 37.93 8.35 40.19 9.20 C 41.47 7.38 41.60 5.14 41.58 2.99 C 42.49 4.60 43.28 6.27 44.05 7.94 C 43.99 8.38 43.85 9.26 43.79 9.70 L 42.27 10.27 C 42.46 9.20 42.85 7.05 43.04 5.97 C 42.60 6.93 41.71 8.84 41.27 9.79 C 40.00 9.68 38.74 9.56 37.47 9.45 C 37.21 7.75 35.85 5.76 37.44 4.36 Z" />
<path fill="#160e0c" opacity="0.51" d=" M 55.82 19.60 C 57.91 17.74 60.79 18.96 62.05 21.15 C 59.97 20.64 57.86 20.26 55.82 19.60 Z" />
<path fill="#160e0c" opacity="0.51" d=" M 62.59 21.77 C 63.78 22.81 63.93 25.18 62.40 25.98 C 61.96 24.56 62.03 23.15 62.59 21.77 Z" />
</g>
<g id="#9c472dff">
<path fill="#9c472d" opacity="1.00" d=" M 2.93 7.84 C 7.86 6.66 12.96 6.31 18.02 6.60 C 23.10 6.58 28.00 9.84 29.98 14.52 C 31.32 17.72 33.05 21.36 31.48 24.81 C 29.63 25.29 27.83 25.93 26.08 26.69 C 25.97 26.61 25.77 26.45 25.66 26.37 C 20.74 20.49 12.78 20.24 6.27 17.22 C 5.26 17.85 4.26 18.46 3.26 19.10 C 2.01 15.44 1.50 11.55 2.93 7.84 Z" />
<path fill="#9c472d" opacity="1.00" d=" M -0.00 20.23 C 1.09 19.85 2.17 19.47 3.26 19.10 C 1.63 20.16 1.16 21.91 1.34 23.79 C 3.19 25.18 5.18 23.77 7.10 23.48 C 7.39 23.56 7.96 23.72 8.25 23.79 C 9.28 24.96 10.10 26.28 10.95 27.58 C 10.24 28.43 9.46 29.23 8.62 29.95 C 10.20 26.05 5.14 24.49 2.19 25.25 C 1.64 25.43 0.55 25.78 0.00 25.95 L 0.00 20.23 Z" />
<path fill="#9c472d" opacity="1.00" d=" M 55.18 19.98 L 55.82 19.60 C 57.86 20.26 59.97 20.64 62.05 21.15 L 62.59 21.77 C 62.03 23.15 61.96 24.56 62.40 25.98 C 59.87 28.03 56.01 28.95 53.42 26.49 C 51.92 24.58 49.70 23.73 47.34 23.59 C 46.79 23.18 45.68 22.35 45.13 21.94 C 48.05 22.41 50.98 22.80 53.91 23.16 L 52.31 22.62 C 53.03 21.96 54.46 20.64 55.18 19.98 M 54.12 22.73 C 54.08 24.49 54.86 25.53 56.47 25.83 C 56.16 27.44 56.62 27.72 57.85 26.66 C 60.16 25.77 61.14 23.84 60.26 21.51 C 58.12 21.37 56.03 21.72 54.12 22.73 Z" />
<path fill="#9c472d" opacity="1.00" d=" M 19.53 24.73 C 20.74 24.05 21.52 24.36 21.88 25.65 C 21.61 25.87 21.07 26.32 20.80 26.54 C 20.41 26.24 19.64 25.65 19.25 25.36 L 19.53 24.73 Z" />
<path fill="#9c472d" opacity="1.00" d=" M 26.71 28.29 C 27.63 30.25 27.97 32.40 28.17 34.54 C 26.64 40.25 22.50 44.59 17.70 47.79 C 20.38 48.56 23.07 49.34 25.63 50.47 C 23.94 50.43 22.25 50.41 20.55 50.42 C 18.50 53.70 15.69 56.38 12.55 58.63 C 9.80 56.03 6.87 53.54 4.88 50.26 C 3.43 50.68 1.95 51.02 0.53 51.53 C 0.40 52.33 0.13 53.93 0.00 54.72 L 0.00 50.28 C 2.61 49.29 5.29 48.52 7.96 47.72 C 4.72 45.62 1.67 43.06 0.00 39.49 L 0.00 34.23 C 1.60 38.52 3.91 42.59 7.52 45.51 C 11.67 45.36 16.46 46.66 19.97 43.75 C 24.65 40.17 26.74 34.03 26.71 28.29 M 7.69 49.17 C 7.83 52.55 9.80 55.20 12.24 57.35 C 13.76 56.46 15.48 55.70 16.51 54.19 C 17.00 52.25 16.62 50.23 16.61 48.27 C 13.69 48.51 10.25 47.37 7.69 49.17 Z" />
<path fill="#9c472d" opacity="1.00" d=" M 9.63 32.62 C 11.71 32.62 13.79 32.60 15.87 32.55 C 15.83 33.06 15.75 34.10 15.71 34.62 C 13.61 35.26 11.43 35.15 9.37 34.39 C 9.44 33.95 9.56 33.06 9.63 32.62 Z" />
</g>
<g id="#421308ff">
<path fill="#421308" opacity="1.00" d=" M 40.09 11.04 L 41.22 10.65 C 41.98 14.14 42.76 17.63 43.72 21.08 C 46.03 21.45 48.34 21.82 50.63 22.28 C 52.15 21.51 53.67 20.76 55.18 19.98 C 54.46 20.64 53.03 21.96 52.31 22.62 L 53.91 23.16 C 50.98 22.80 48.05 22.41 45.13 21.94 C 44.57 21.75 43.46 21.36 42.90 21.16 C 42.07 17.76 41.22 14.36 40.09 11.04 Z" />
<path fill="#421308" opacity="1.00" d=" M 37.17 24.49 C 38.75 25.05 40.37 25.50 41.98 25.99 C 41.41 26.11 40.29 26.36 39.72 26.49 C 38.55 30.81 37.57 35.20 37.21 39.67 C 37.13 34.61 37.32 29.55 37.17 24.49 Z" />
<path fill="#421308" opacity="1.00" d=" M 42.45 24.28 C 44.08 24.04 45.71 23.81 47.34 23.59 C 49.70 23.73 51.92 24.58 53.42 26.49 C 52.34 25.75 51.26 25.01 50.18 24.27 C 47.75 24.57 45.33 24.91 42.91 25.29 C 42.38 28.27 41.74 31.22 41.07 34.17 C 44.63 38.95 49.88 41.87 54.88 44.90 C 51.71 50.71 47.78 56.55 41.93 59.94 C 40.72 60.44 38.86 61.80 37.85 60.26 C 35.82 57.72 34.05 54.95 31.47 52.89 C 31.83 56.59 32.06 60.29 32.08 64.00 L 28.50 64.00 C 29.28 63.92 30.82 63.76 31.59 63.68 C 31.35 60.40 32.36 56.60 30.19 53.79 C 29.07 52.23 27.36 51.23 25.63 50.47 C 23.07 49.34 20.38 48.56 17.70 47.79 C 22.50 44.59 26.64 40.25 28.17 34.54 C 29.27 39.80 31.71 44.71 34.69 49.15 C 36.35 51.41 38.58 54.24 41.74 53.76 C 44.81 53.32 46.14 50.06 47.92 47.94 C 45.97 43.94 43.15 40.42 39.41 37.96 C 40.52 33.42 41.33 28.81 42.45 24.28 Z" />
<path fill="#421308" opacity="1.00" d=" M 3.23 26.38 C 4.24 25.88 6.55 25.83 6.57 27.37 C 6.08 29.61 1.86 28.41 3.23 26.38 Z" />
<path fill="#421308" opacity="1.00" d=" M 19.25 25.36 C 19.64 25.65 20.41 26.24 20.80 26.54 C 21.07 26.32 21.61 25.87 21.88 25.65 C 24.77 29.83 16.08 29.58 19.25 25.36 Z" />
<path fill="#421308" opacity="1.00" d=" M 56.47 25.83 C 56.81 26.04 57.51 26.45 57.85 26.66 C 56.62 27.72 56.16 27.44 56.47 25.83 Z" />
<path fill="#421308" opacity="1.00" d=" M 6.03 38.43 C 10.57 38.94 15.14 38.75 19.69 38.59 C 18.13 41.67 15.35 43.75 12.00 44.49 C 9.52 43.02 6.81 41.45 6.03 38.43 Z" />
<path fill="#421308" opacity="1.00" d=" M 0.00 39.49 C 1.67 43.06 4.72 45.62 7.96 47.72 C 5.29 48.52 2.61 49.29 0.00 50.28 L 0.00 39.49 Z" />
</g>
<g id="#f9dec4ff">
<path fill="#f9dec4" opacity="1.00" d=" M 6.27 17.22 C 12.78 20.24 20.74 20.49 25.66 26.37 C 24.73 27.51 24.00 28.90 22.73 29.71 C 20.89 30.09 19.01 30.12 17.14 30.25 C 18.04 31.35 18.94 32.44 19.83 33.54 C 18.74 34.25 17.65 34.95 16.56 35.66 C 16.35 35.40 15.93 34.88 15.71 34.62 C 15.75 34.10 15.83 33.06 15.87 32.55 C 13.79 32.60 11.71 32.62 9.63 32.62 C 9.56 33.06 9.44 33.95 9.37 34.39 C 9.14 34.70 8.69 35.33 8.46 35.64 C 7.46 34.68 6.46 33.72 5.46 32.77 C 6.51 31.83 7.59 30.91 8.62 29.95 C 9.46 29.23 10.24 28.43 10.95 27.58 C 10.10 26.28 9.28 24.96 8.25 23.79 C 7.96 23.72 7.39 23.56 7.10 23.48 C 5.18 23.77 3.19 25.18 1.34 23.79 C 1.16 21.91 1.63 20.16 3.26 19.10 C 4.26 18.46 5.26 17.85 6.27 17.22 M 19.53 24.73 L 19.25 25.36 C 16.08 29.58 24.77 29.83 21.88 25.65 C 21.52 24.36 20.74 24.05 19.53 24.73 Z" />
</g>
<g id="#fd9fdfff">
<path fill="#fd9fdf" opacity="1.00" d=" M 0.53 51.53 C 1.95 51.02 3.43 50.68 4.88 50.26 C 6.87 53.54 9.80 56.03 12.55 58.63 C 15.69 56.38 18.50 53.70 20.55 50.42 C 22.25 50.41 23.94 50.43 25.63 50.47 C 27.36 51.23 29.07 52.23 30.19 53.79 C 32.36 56.60 31.35 60.40 31.59 63.68 C 30.82 63.76 29.28 63.92 28.50 64.00 L 0.00 64.00 L 0.00 54.72 C 0.13 53.93 0.40 52.33 0.53 51.53 Z" />
</g>
</svg>
