<?xml version="1.0" encoding="UTF-8" ?>
<!DOCTYPE svg PUBLIC "-//W3C//DTD SVG 1.1//EN" "http://www.w3.org/Graphics/SVG/1.1/DTD/svg11.dtd">
<svg width="64pt" height="64pt" viewBox="0 0 64 64" version="1.1" xmlns="http://www.w3.org/2000/svg">
<g id="#bf186fff">
<path fill="#bf186f" opacity="1.00" d=" M 6.30 11.39 C 9.42 5.73 17.16 2.33 23.13 5.59 C 26.45 7.13 29.91 9.94 31.21 13.25 C 30.08 12.93 28.95 12.58 27.82 12.22 C 27.12 11.44 26.41 10.63 25.55 10.01 C 20.32 5.67 11.82 6.91 8.43 12.91 C 7.87 13.96 7.41 15.04 7.04 16.16 C 6.55 17.38 6.70 18.73 6.64 20.01 C 6.80 23.27 8.31 26.53 11.30 28.08 C 10.47 27.96 8.81 27.70 7.98 27.57 C 7.46 27.41 6.43 27.08 5.91 26.92 C 6.77 25.50 6.57 24.63 5.30 24.31 L 4.90 24.18 C 4.22 19.94 3.86 15.17 6.30 11.39 Z" />
</g>
<g id="#bf1d72ff">
<path fill="#bf1d72" opacity="1.00" d=" M 32.75 12.27 C 35.21 9.70 37.59 6.81 41.01 5.49 C 47.41 2.16 55.50 6.30 58.28 12.56 C 60.88 17.61 59.63 23.71 57.31 28.63 C 55.97 28.58 54.64 28.57 53.30 28.61 C 51.33 28.69 49.35 28.78 47.37 28.82 C 46.52 28.82 44.80 28.81 43.94 28.81 C 48.40 28.80 54.70 29.23 56.31 23.89 C 57.32 21.03 57.80 17.86 56.57 14.98 C 56.32 14.47 55.83 13.43 55.58 12.92 C 52.25 6.81 43.49 5.51 38.34 10.07 C 37.53 10.68 36.87 11.47 36.22 12.24 C 35.09 12.58 33.96 12.91 32.82 13.20 L 32.75 12.27 Z" />
</g>
<g id="#f4d9e7ff">
<path fill="#f4d9e7" opacity="1.00" d=" M 8.43 12.91 C 11.82 6.91 20.32 5.67 25.55 10.01 L 24.90 10.95 C 22.01 10.59 19.11 9.78 16.18 10.25 C 13.40 10.46 11.37 12.54 9.09 13.88 L 8.43 12.91 Z" />
</g>
<g id="#f3cfe2ff">
<path fill="#f3cfe2" opacity="1.00" d=" M 38.34 10.07 C 43.49 5.51 52.25 6.81 55.58 12.92 C 54.99 14.91 53.49 12.89 52.63 12.42 C 49.01 8.86 43.58 10.46 39.12 10.87 L 38.34 10.07 Z" />
</g>
<g id="#ffb4d9ff">
<path fill="#ffb4d9" opacity="1.00" d=" M 9.09 13.88 C 11.37 12.54 13.40 10.46 16.18 10.25 C 19.11 9.78 22.01 10.59 24.90 10.95 L 25.55 10.01 C 26.41 10.63 27.12 11.44 27.82 12.22 C 28.30 13.16 28.77 14.10 29.25 15.03 C 23.50 15.46 17.73 15.37 11.97 15.33 C 10.23 15.13 8.80 16.67 7.04 16.16 C 7.41 15.04 7.87 13.96 8.43 12.91 L 9.09 13.88 Z" />
</g>
<g id="#ffadd9ff">
<path fill="#ffadd9" opacity="1.00" d=" M 36.22 12.24 C 36.87 11.47 37.53 10.68 38.34 10.07 L 39.12 10.87 C 43.58 10.46 49.01 8.86 52.63 12.42 C 53.49 12.89 54.99 14.91 55.58 12.92 C 55.83 13.43 56.32 14.47 56.57 14.98 C 56.43 15.42 56.15 16.29 56.01 16.73 C 55.12 16.43 54.37 15.53 53.39 15.63 C 47.17 16.61 40.72 16.68 34.57 15.24 C 35.14 14.25 35.70 13.25 36.22 12.24 Z" />
</g>
<g id="#e2328eff">
<path fill="#e2328e" opacity="1.00" d=" M 27.82 12.22 C 28.95 12.58 30.08 12.93 31.21 13.25 C 31.75 13.41 32.28 13.40 32.82 13.20 C 33.96 12.91 35.09 12.58 36.22 12.24 C 35.70 13.25 35.14 14.25 34.57 15.24 C 33.73 15.67 32.87 16.06 32.01 16.44 C 31.07 16.01 30.15 15.55 29.25 15.03 C 28.77 14.10 28.30 13.16 27.82 12.22 Z" />
</g>
<g id="#ff8bcbff">
<path fill="#ff8bcb" opacity="1.00" d=" M 7.04 16.16 C 8.80 16.67 10.23 15.13 11.97 15.33 C 17.73 15.37 23.50 15.46 29.25 15.03 C 30.15 15.55 31.07 16.01 32.01 16.44 C 32.87 16.06 33.73 15.67 34.57 15.24 C 40.72 16.68 47.17 16.61 53.39 15.63 C 54.37 15.53 55.12 16.43 56.01 16.73 C 56.15 16.29 56.43 15.42 56.57 14.98 C 57.80 17.86 57.32 21.03 56.31 23.89 C 54.21 23.45 52.07 23.45 49.95 23.55 C 44.56 23.79 39.15 23.19 33.79 24.00 C 31.98 21.55 30.38 18.92 28.11 16.84 C 27.53 15.87 25.57 15.79 25.19 16.97 C 23.89 18.98 22.89 21.17 21.76 23.27 C 17.08 20.45 10.70 24.15 6.64 20.01 C 6.70 18.73 6.55 17.38 7.04 16.16 Z" />
</g>
<g id="#5f4307ff">
<path fill="#5f4307" opacity="1.00" d=" M 25.19 16.97 C 25.57 15.79 27.53 15.87 28.11 16.84 C 30.38 18.92 31.98 21.55 33.79 24.00 C 34.83 25.65 36.69 26.96 36.34 29.14 C 32.39 27.05 28.68 30.12 25.90 32.66 C 27.44 32.64 28.50 33.10 29.07 34.03 C 27.19 34.39 25.30 34.78 23.55 35.59 C 23.45 35.97 23.26 36.72 23.16 37.09 L 22.04 37.23 C 19.24 37.09 17.62 39.74 15.77 41.42 L 15.28 41.90 C 15.01 41.56 14.47 40.87 14.19 40.52 C 15.06 39.57 15.97 38.65 16.60 37.52 C 12.83 38.09 8.71 39.09 6.30 42.32 C 5.56 40.10 4.43 37.96 4.19 35.60 C 4.55 36.03 5.26 36.90 5.61 37.33 C 5.92 37.74 6.55 38.56 6.87 38.97 C 9.23 37.88 11.53 36.60 14.13 36.17 C 14.71 35.99 15.86 35.64 16.44 35.46 C 17.49 34.12 17.27 32.40 17.35 30.81 C 17.64 32.43 18.20 33.98 18.75 35.53 C 20.55 35.47 21.98 34.24 23.24 33.07 C 22.45 30.96 20.77 29.32 20.03 27.19 C 20.58 25.87 21.21 24.59 21.76 23.27 C 22.89 21.17 23.89 18.98 25.19 16.97 M 25.61 18.42 C 23.80 20.57 22.94 23.30 21.44 25.65 C 21.47 26.71 21.01 28.28 22.34 28.75 C 22.67 29.21 23.33 30.12 23.66 30.58 C 27.18 30.80 29.28 26.90 32.71 26.30 C 32.54 25.38 32.20 23.53 32.04 22.60 L 30.81 22.32 C 30.91 20.58 29.56 19.50 28.40 18.45 C 27.47 18.37 26.54 18.36 25.61 18.42 Z" />
</g>
<g id="#e9e169ff">
<path fill="#e9e169" opacity="1.00" d=" M 25.61 18.42 C 26.54 18.36 27.47 18.37 28.40 18.45 C 29.56 19.50 30.91 20.58 30.81 22.32 C 28.05 24.53 23.97 25.35 22.34 28.75 C 21.01 28.28 21.47 26.71 21.44 25.65 C 22.94 23.30 23.80 20.57 25.61 18.42 Z" />
</g>
<g id="#ff6cbdff">
<path fill="#ff6cbd" opacity="1.00" d=" M 6.64 20.01 C 10.70 24.15 17.08 20.45 21.76 23.27 C 21.21 24.59 20.58 25.87 20.03 27.19 C 19.04 27.77 18.05 28.34 17.06 28.90 C 15.10 28.92 13.22 28.36 11.30 28.08 C 8.31 26.53 6.80 23.27 6.64 20.01 Z" />
</g>
<g id="#efef31ff">
<path fill="#efef31" opacity="1.00" d=" M 22.34 28.75 C 23.97 25.35 28.05 24.53 30.81 22.32 L 32.04 22.60 C 32.20 23.53 32.54 25.38 32.71 26.30 C 29.28 26.90 27.18 30.80 23.66 30.58 C 23.33 30.12 22.67 29.21 22.34 28.75 Z" />
</g>
<g id="#ff64c0ff">
<path fill="#ff64c0" opacity="1.00" d=" M 49.95 23.55 C 52.07 23.45 54.21 23.45 56.31 23.89 C 54.70 29.23 48.40 28.80 43.94 28.81 C 41.41 28.92 38.88 29.12 36.34 29.14 C 36.69 26.96 34.83 25.65 33.79 24.00 C 39.15 23.19 44.56 23.79 49.95 23.55 Z" />
</g>
<g id="#663720b7">
<path fill="#663720" opacity="0.72" d=" M 5.30 24.31 C 6.57 24.63 6.77 25.50 5.91 26.92 C 6.43 27.08 7.46 27.41 7.98 27.57 C 6.55 27.49 5.11 27.49 3.68 27.57 C 2.66 30.01 4.14 32.57 4.13 35.08 C 2.68 33.54 2.82 30.98 2.35 28.97 C 1.74 26.85 4.33 26.61 5.76 26.95 L 4.72 24.98 C 4.86 24.81 5.15 24.48 5.30 24.31 Z" />
</g>
<g id="#d6991bff">
<path fill="#d6991b" opacity="1.00" d=" M 17.06 28.90 C 18.05 28.34 19.04 27.77 20.03 27.19 C 20.77 29.32 22.45 30.96 23.24 33.07 C 21.98 34.24 20.55 35.47 18.75 35.53 C 18.20 33.98 17.64 32.43 17.35 30.81 C 17.28 30.34 17.13 29.38 17.06 28.90 Z" />
</g>
<g id="#b28f31ff">
<path fill="#b28f31" opacity="1.00" d=" M 3.68 27.57 C 5.11 27.49 6.55 27.49 7.98 27.57 C 8.81 27.70 10.47 27.96 11.30 28.08 C 13.22 28.36 15.10 28.92 17.06 28.90 C 17.13 29.38 17.28 30.34 17.35 30.81 C 17.27 32.40 17.49 34.12 16.44 35.46 C 15.86 35.64 14.71 35.99 14.13 36.17 C 15.81 34.91 16.05 32.86 15.23 31.01 C 14.72 30.75 13.69 30.22 13.17 29.96 C 10.67 29.28 8.01 28.97 5.44 29.36 C 4.94 31.35 5.29 33.37 5.70 35.34 C 5.68 35.83 5.63 36.83 5.61 37.33 C 5.26 36.90 4.55 36.03 4.19 35.60 L 4.13 35.08 C 4.14 32.57 2.66 30.01 3.68 27.57 Z" />
</g>
<g id="#e5da63ff">
<path fill="#e5da63" opacity="1.00" d=" M 5.44 29.36 C 8.01 28.97 10.67 29.28 13.17 29.96 C 13.31 30.45 13.59 31.43 13.72 31.92 C 10.73 31.10 8.14 32.58 6.54 35.07 L 5.70 35.34 C 5.29 33.37 4.94 31.35 5.44 29.36 Z" />
</g>
<g id="#ac9c1eff">
<path fill="#ac9c1e" opacity="1.00" d=" M 25.90 32.66 C 28.68 30.12 32.39 27.05 36.34 29.14 C 36.15 29.60 35.76 30.52 35.56 30.98 C 34.37 32.20 32.44 32.84 31.92 34.61 C 31.81 34.86 31.58 35.36 31.47 35.62 C 28.83 35.59 26.19 35.65 23.55 35.59 C 25.30 34.78 27.19 34.39 29.07 34.03 C 28.50 33.10 27.44 32.64 25.90 32.66 Z" />
</g>
<g id="#f1e865ff">
<path fill="#f1e865" opacity="1.00" d=" M 36.34 29.14 C 38.88 29.12 41.41 28.92 43.94 28.81 C 44.80 28.81 46.52 28.82 47.37 28.82 C 43.78 30.81 39.51 30.46 35.56 30.98 C 35.76 30.52 36.15 29.60 36.34 29.14 Z" />
</g>
<g id="#eeee42ff">
<path fill="#eeee42" opacity="1.00" d=" M 47.37 28.82 C 49.35 28.78 51.33 28.69 53.30 28.61 C 52.50 30.48 51.72 32.36 50.91 34.22 C 50.18 34.24 48.74 34.29 48.02 34.31 C 42.65 34.38 37.29 34.63 31.92 34.61 C 32.44 32.84 34.37 32.20 35.56 30.98 C 39.51 30.46 43.78 30.81 47.37 28.82 Z" />
</g>
<g id="#cdce36ff">
<path fill="#cdce36" opacity="1.00" d=" M 53.30 28.61 C 54.64 28.57 55.97 28.58 57.31 28.63 C 56.38 30.51 55.55 32.45 54.34 34.17 C 53.48 34.18 51.76 34.21 50.91 34.22 C 51.72 32.36 52.50 30.48 53.30 28.61 Z" />
</g>
<g id="#dfd52cff">
<path fill="#dfd52c" opacity="1.00" d=" M 13.17 29.96 C 13.69 30.22 14.72 30.75 15.23 31.01 C 16.05 32.86 15.81 34.91 14.13 36.17 C 11.53 36.60 9.23 37.88 6.87 38.97 C 6.55 38.56 5.92 37.74 5.61 37.33 C 5.63 36.83 5.68 35.83 5.70 35.34 L 6.54 35.07 C 9.12 35.62 13.31 35.11 13.72 31.92 C 13.59 31.43 13.31 30.45 13.17 29.96 Z" />
</g>
<g id="#f1f449ff">
<path fill="#f1f449" opacity="1.00" d=" M 6.54 35.07 C 8.14 32.58 10.73 31.10 13.72 31.92 C 13.31 35.11 9.12 35.62 6.54 35.07 Z" />
</g>
<g id="#fe2fb5ff">
<path fill="#fe2fb5" opacity="1.00" d=" M 31.92 34.61 C 37.29 34.63 42.65 34.38 48.02 34.31 C 45.47 36.72 45.38 40.88 42.42 42.85 C 42.27 42.37 41.96 41.41 41.81 40.93 C 41.71 40.61 41.51 39.98 41.41 39.67 C 38.01 38.57 35.03 35.78 31.47 35.62 C 31.58 35.36 31.81 34.86 31.92 34.61 Z" />
</g>
<g id="#f02ca5ff">
<path fill="#f02ca5" opacity="1.00" d=" M 48.02 34.31 C 48.74 34.29 50.18 34.24 50.91 34.22 C 51.76 34.21 53.48 34.18 54.34 34.17 C 48.00 43.65 39.35 51.24 31.93 59.79 C 29.83 56.60 26.59 54.34 24.26 51.31 C 23.90 47.11 22.44 42.72 23.94 38.59 C 24.20 39.13 24.58 39.58 25.06 39.93 C 25.69 43.57 29.87 45.27 31.77 48.32 C 32.63 48.50 33.50 48.57 34.38 48.55 C 34.87 46.73 34.96 44.76 35.90 43.09 C 37.76 43.64 40.23 43.11 40.87 41.05 L 41.81 40.93 C 41.96 41.41 42.27 42.37 42.42 42.85 C 45.38 40.88 45.47 36.72 48.02 34.31 Z" />
</g>
<g id="#e8e431ff">
<path fill="#e8e431" opacity="1.00" d=" M 23.16 37.09 C 23.26 36.72 23.45 35.97 23.55 35.59 C 26.19 35.65 28.83 35.59 31.47 35.62 C 33.23 36.98 35.43 37.91 36.68 39.84 C 35.52 41.52 34.47 43.28 33.07 44.77 C 30.19 43.49 28.23 40.58 25.06 39.93 C 24.58 39.58 24.20 39.13 23.94 38.59 C 23.74 38.22 23.35 37.47 23.16 37.09 Z" />
<path fill="#e8e431" opacity="1.00" d=" M 15.77 41.42 C 17.62 39.74 19.24 37.09 22.04 37.23 C 22.81 41.15 22.45 45.16 22.46 49.12 C 20.78 51.07 17.18 50.95 15.35 49.27 C 15.40 46.65 15.71 44.04 15.77 41.42 Z" />
</g>
<g id="#a17916ff">
<path fill="#a17916" opacity="1.00" d=" M 31.47 35.62 C 35.03 35.78 38.01 38.57 41.41 39.67 C 41.51 39.98 41.71 40.61 41.81 40.93 L 40.87 41.05 C 39.18 41.42 36.83 41.40 35.90 43.09 C 34.96 44.76 34.87 46.73 34.38 48.55 C 33.50 48.57 32.63 48.50 31.77 48.32 C 29.87 45.27 25.69 43.57 25.06 39.93 C 28.23 40.58 30.19 43.49 33.07 44.77 C 34.47 43.28 35.52 41.52 36.68 39.84 C 35.43 37.91 33.23 36.98 31.47 35.62 Z" />
<path fill="#a17916" opacity="1.00" d=" M 22.04 37.23 L 23.16 37.09 C 23.35 37.47 23.74 38.22 23.94 38.59 C 22.44 42.72 23.90 47.11 24.26 51.31 L 24.29 53.45 C 23.42 53.45 21.67 53.44 20.80 53.44 C 19.75 51.17 15.98 52.28 14.39 53.73 L 13.02 53.89 C 13.44 49.83 14.37 45.87 15.28 41.90 L 15.77 41.42 C 15.71 44.04 15.40 46.65 15.35 49.27 C 17.18 50.95 20.78 51.07 22.46 49.12 C 22.45 45.16 22.81 41.15 22.04 37.23 Z" />
</g>
<g id="#98911af7">
<path fill="#98911a" opacity="0.97" d=" M 6.30 42.32 C 8.71 39.09 12.83 38.09 16.60 37.52 C 15.97 38.65 15.06 39.57 14.19 40.52 C 12.33 41.84 10.19 42.66 7.98 43.17 C 7.56 42.96 6.72 42.54 6.30 42.33 L 6.30 42.32 Z" />
</g>
<g id="#3a201192">
<path fill="#3a2011" opacity="0.57" d=" M 7.98 43.17 C 10.19 42.66 12.33 41.84 14.19 40.52 C 14.47 40.87 15.01 41.56 15.28 41.90 C 14.37 45.87 13.44 49.83 13.02 53.89 L 14.39 53.73 L 15.03 53.67 C 14.32 54.53 13.44 54.94 12.38 54.91 C 12.65 53.92 12.92 52.93 13.20 51.94 C 11.21 48.77 13.45 45.37 13.86 42.13 C 11.87 41.62 9.62 44.65 7.98 43.17 Z" />
</g>
<g id="#a1256aff">
<path fill="#a1256a" opacity="1.00" d=" M 35.90 43.09 C 36.83 41.40 39.18 41.42 40.87 41.05 C 40.23 43.11 37.76 43.64 35.90 43.09 Z" />
</g>
</svg>
