<?xml version="1.0" encoding="UTF-8" ?>
<!DOCTYPE svg PUBLIC "-//W3C//DTD SVG 1.1//EN" "http://www.w3.org/Graphics/SVG/1.1/DTD/svg11.dtd">
<svg width="64pt" height="64pt" viewBox="0 0 64 64" version="1.1" xmlns="http://www.w3.org/2000/svg">
<g id="#cf41b8ff">
<path fill="#cf41b8" opacity="1.00" d=" M 12.45 3.63 C 24.26 2.91 36.16 3.52 48.00 3.32 C 54.46 2.80 60.78 8.35 60.70 14.91 C 60.74 26.30 60.67 37.70 60.62 49.09 C 60.75 55.16 55.19 60.76 49.12 60.64 C 37.73 60.68 26.33 60.68 14.94 60.64 C 8.83 60.79 3.25 55.17 3.38 49.07 C 3.33 37.70 3.26 26.32 3.30 14.95 C 3.23 9.64 7.38 4.84 12.45 3.63 M 7.20 11.54 L 6.79 11.62 C 4.68 15.73 6.30 20.29 6.53 24.61 C 6.62 26.13 7.84 27.23 8.60 28.46 C 9.53 28.58 10.47 28.69 11.41 28.81 C 12.39 24.69 14.41 20.31 18.66 18.75 C 23.57 16.46 28.94 19.40 31.99 23.31 C 35.07 19.54 40.28 16.66 45.15 18.76 C 49.49 20.24 51.61 24.62 52.62 28.78 C 53.55 28.68 54.48 28.57 55.41 28.47 C 58.68 24.52 58.10 18.84 58.17 14.02 C 57.99 13.88 57.64 13.58 57.46 13.44 C 56.09 9.46 52.47 6.07 48.08 6.20 C 37.36 6.09 26.63 6.08 15.92 6.20 C 12.22 6.08 9.10 8.57 7.20 11.54 M 19.08 20.02 C 12.13 22.90 10.39 33.77 16.49 38.41 C 21.78 42.47 28.59 44.97 32.01 51.10 C 34.68 47.10 38.46 44.00 42.58 41.58 C 46.04 39.49 49.99 37.13 51.01 32.89 C 52.03 27.99 49.83 22.06 44.94 20.12 C 40.39 18.20 34.91 20.80 32.78 25.08 C 32.22 26.90 31.07 25.08 30.72 24.30 C 28.51 20.41 23.32 18.04 19.08 20.02 Z" />
</g>
<g id="#ffffffff">
<path fill="#ffffff" opacity="1.00" d=" M 7.20 11.54 C 9.10 8.57 12.22 6.08 15.92 6.20 C 26.63 6.08 37.36 6.09 48.08 6.20 C 52.47 6.07 56.09 9.46 57.46 13.44 C 54.72 10.93 52.10 7.65 48.00 7.73 C 37.66 7.51 27.31 7.65 16.97 7.66 C 13.71 7.50 10.91 9.22 8.56 11.29 C 8.22 11.35 7.54 11.48 7.20 11.54 Z" />
<path fill="#ffffff" opacity="1.00" d=" M 19.08 20.02 C 23.32 18.04 28.51 20.41 30.72 24.30 C 31.07 25.08 32.22 26.90 32.78 25.08 C 34.91 20.80 40.39 18.20 44.94 20.12 C 49.83 22.06 52.03 27.99 51.01 32.89 C 49.99 37.13 46.04 39.49 42.58 41.58 C 38.46 44.00 34.68 47.10 32.01 51.10 C 28.59 44.97 21.78 42.47 16.49 38.41 C 10.39 33.77 12.13 22.90 19.08 20.02 Z" />
</g>
<g id="#fc83e6ff">
<path fill="#fc83e6" opacity="1.00" d=" M 8.56 11.29 C 10.91 9.22 13.71 7.50 16.97 7.66 C 27.31 7.65 37.66 7.51 48.00 7.73 C 52.10 7.65 54.72 10.93 57.46 13.44 C 57.64 13.58 57.99 13.88 58.17 14.02 C 58.10 18.84 58.68 24.52 55.41 28.47 C 54.48 28.57 53.55 28.68 52.62 28.78 C 51.61 24.62 49.49 20.24 45.15 18.76 C 40.28 16.66 35.07 19.54 31.99 23.31 C 28.94 19.40 23.57 16.46 18.66 18.75 C 14.41 20.31 12.39 24.69 11.41 28.81 C 10.47 28.69 9.53 28.58 8.60 28.46 C 7.84 27.23 6.62 26.13 6.53 24.61 C 6.30 20.29 4.68 15.73 6.79 11.62 L 7.20 11.54 C 7.54 11.48 8.22 11.35 8.56 11.29 Z" />
</g>
</svg>
