<?xml version="1.0" encoding="UTF-8" ?>
<!DOCTYPE svg PUBLIC "-//W3C//DTD SVG 1.1//EN" "http://www.w3.org/Graphics/SVG/1.1/DTD/svg11.dtd">
<svg width="64pt" height="64pt" viewBox="0 0 64 64" version="1.1" xmlns="http://www.w3.org/2000/svg">
<g id="#fee470ff">
<path fill="#fee470" opacity="1.00" d=" M 40.07 6.08 C 43.04 4.33 46.66 4.11 49.94 5.02 C 53.75 6.35 56.69 9.26 58.44 12.85 C 60.20 17.40 59.60 22.44 57.89 26.90 C 53.18 38.83 43.09 47.41 34.61 56.66 C 33.64 57.55 32.42 59.66 30.95 58.31 C 21.99 48.49 11.13 39.58 6.08 26.95 C 4.20 22.38 3.98 17.23 5.48 12.51 L 6.12 12.47 C 7.07 8.74 10.60 6.40 13.99 5.06 C 21.36 2.70 29.26 8.03 32.02 14.75 C 33.24 10.89 36.62 7.99 40.07 6.08 Z" />
</g>
</svg>
