<?xml version="1.0" encoding="UTF-8" ?>
<!DOCTYPE svg PUBLIC "-//W3C//DTD SVG 1.1//EN" "http://www.w3.org/Graphics/SVG/1.1/DTD/svg11.dtd">
<svg width="64pt" height="64pt" viewBox="0 0 64 64" version="1.1" xmlns="http://www.w3.org/2000/svg">
<g id="#9e1201ff">
<path fill="#9e1201" opacity="1.00" d=" M 44.22 5.33 C 50.23 2.61 57.66 5.61 60.78 11.24 C 63.40 15.49 63.01 20.82 61.69 25.43 C 61.31 24.36 60.95 23.27 60.61 22.18 C 60.56 21.57 60.44 20.37 60.39 19.76 C 60.23 17.77 59.96 15.78 59.26 13.90 C 57.39 9.59 52.68 6.63 47.95 7.18 C 44.48 7.33 41.40 9.32 39.25 11.95 C 38.28 13.33 37.40 14.78 36.50 16.20 C 35.84 17.23 35.20 18.27 34.56 19.32 C 33.98 20.28 33.44 21.26 32.92 22.26 C 32.30 23.50 31.72 24.76 31.13 26.01 C 30.39 24.97 29.65 23.93 28.91 22.89 C 33.56 16.73 36.70 8.60 44.22 5.33 Z" />
</g>
<g id="#981402ff">
<path fill="#981402" opacity="1.00" d=" M 3.59 10.54 C 6.41 6.19 11.80 3.52 16.98 4.51 C 22.18 5.45 26.14 9.47 28.92 13.73 C 27.35 15.85 25.86 18.02 24.41 20.23 C 24.24 19.37 23.91 17.66 23.75 16.80 C 24.53 15.46 25.26 14.10 25.90 12.69 C 25.60 11.95 25.24 11.24 24.84 10.55 C 21.57 7.95 17.14 6.70 13.04 7.82 C 10.03 8.61 7.76 10.93 5.93 13.33 L 5.30 14.19 C 2.55 17.19 2.31 21.39 2.21 25.24 C 0.85 20.43 0.59 14.81 3.59 10.54 Z" />
</g>
<g id="#e5c1c0ff">
<path fill="#e5c1c0" opacity="1.00" d=" M 39.25 11.95 C 41.40 9.32 44.48 7.33 47.95 7.18 C 52.68 6.63 57.39 9.59 59.26 13.90 C 59.43 14.52 59.77 15.78 59.94 16.41 L 58.98 16.35 C 56.89 14.04 54.92 11.28 51.76 10.37 C 47.59 8.81 43.30 11.03 39.25 11.95 Z" />
</g>
<g id="#eccfcfff">
<path fill="#eccfcf" opacity="1.00" d=" M 5.93 13.33 C 7.76 10.93 10.03 8.61 13.04 7.82 C 17.14 6.70 21.57 7.95 24.84 10.55 C 18.93 10.34 11.43 8.73 7.55 14.53 C 6.85 15.35 6.15 16.17 5.46 17.00 C 5.58 16.08 5.81 14.25 5.93 13.33 Z" />
</g>
<g id="#eba4a2ff">
<path fill="#eba4a2" opacity="1.00" d=" M 39.25 11.95 C 43.30 11.03 47.59 8.81 51.76 10.37 C 54.92 11.28 56.89 14.04 58.98 16.35 C 51.49 16.42 43.96 17.25 36.50 16.20 C 37.40 14.78 38.28 13.33 39.25 11.95 Z" />
<path fill="#eba4a2" opacity="1.00" d=" M 7.55 14.53 C 11.43 8.73 18.93 10.34 24.84 10.55 C 25.24 11.24 25.60 11.95 25.90 12.69 C 20.44 16.28 13.66 16.32 7.55 14.53 Z" />
</g>
<g id="#e47b78ff">
<path fill="#e47b78" opacity="1.00" d=" M 7.55 14.53 C 13.66 16.32 20.44 16.28 25.90 12.69 C 25.26 14.10 24.53 15.46 23.75 16.80 C 22.48 18.53 21.13 20.20 19.73 21.83 C 14.78 21.35 9.79 21.30 4.82 21.42 C 4.69 19.00 4.86 16.57 5.30 14.19 L 5.93 13.33 C 5.81 14.25 5.58 16.08 5.46 17.00 C 6.15 16.17 6.85 15.35 7.55 14.53 Z" />
</g>
<g id="#b61a03ff">
<path fill="#b61a03" opacity="1.00" d=" M 2.21 25.24 C 2.31 21.39 2.55 17.19 5.30 14.19 C 4.86 16.57 4.69 19.00 4.82 21.42 C 5.23 22.87 5.69 24.30 6.18 25.73 C 8.14 31.88 11.40 37.49 13.83 43.46 C 8.86 38.23 4.33 32.23 2.21 25.24 Z" />
</g>
<g id="#e88a87ff">
<path fill="#e88a87" opacity="1.00" d=" M 59.26 13.90 C 59.96 15.78 60.23 17.77 60.39 19.76 C 51.77 19.56 43.11 20.92 34.56 19.32 C 35.20 18.27 35.84 17.23 36.50 16.20 C 43.96 17.25 51.49 16.42 58.98 16.35 L 59.94 16.41 C 59.77 15.78 59.43 14.52 59.26 13.90 Z" />
</g>
<g id="#d22003ff">
<path fill="#d22003" opacity="1.00" d=" M 19.73 21.83 C 21.13 20.20 22.48 18.53 23.75 16.80 C 23.91 17.66 24.24 19.37 24.41 20.23 C 23.84 21.09 23.27 21.95 22.69 22.81 C 24.78 25.86 26.81 28.95 28.88 32.00 C 26.88 35.04 24.82 38.04 22.89 41.13 C 23.03 41.96 23.33 43.62 23.47 44.46 C 22.83 46.86 22.04 49.21 21.27 51.58 C 18.77 48.89 16.02 46.41 13.83 43.46 C 11.40 37.49 8.14 31.88 6.18 25.73 C 10.94 26.99 16.40 25.49 19.73 21.83 Z" />
</g>
<g id="#e57874ff">
<path fill="#e57874" opacity="1.00" d=" M 32.92 22.26 C 33.44 21.26 33.98 20.28 34.56 19.32 C 43.11 20.92 51.77 19.56 60.39 19.76 C 60.44 20.37 60.56 21.57 60.61 22.18 C 51.65 22.90 42.66 23.02 33.70 23.78 C 33.51 23.40 33.11 22.64 32.92 22.26 Z" />
</g>
<g id="#dc514aff">
<path fill="#dc514a" opacity="1.00" d=" M 4.82 21.42 C 9.79 21.30 14.78 21.35 19.73 21.83 C 16.40 25.49 10.94 26.99 6.18 25.73 C 5.69 24.30 5.23 22.87 4.82 21.42 Z" />
</g>
<g id="#d82104ff">
<path fill="#d82104" opacity="1.00" d=" M 31.13 26.01 C 31.72 24.76 32.30 23.50 32.92 22.26 C 33.11 22.64 33.51 23.40 33.70 23.78 C 34.30 24.87 34.94 25.94 35.64 26.96 C 37.35 28.71 39.26 30.98 42.00 30.58 C 46.80 30.31 51.44 28.92 56.10 27.88 C 52.22 35.44 48.42 43.30 42.26 49.33 C 40.85 50.64 39.11 52.06 37.05 51.72 C 34.83 51.27 33.08 49.69 31.35 48.34 C 31.16 47.69 30.79 46.38 30.60 45.73 L 30.70 44.78 C 32.56 40.87 35.10 37.06 34.86 32.53 C 34.42 30.03 32.38 28.15 31.13 26.01 Z" />
</g>
<g id="#e1635eff">
<path fill="#e1635e" opacity="1.00" d=" M 33.70 23.78 C 42.66 23.02 51.65 22.90 60.61 22.18 C 59.75 23.49 58.90 24.82 57.96 26.08 C 50.51 25.81 43.05 26.22 35.64 26.96 C 34.94 25.94 34.30 24.87 33.70 23.78 Z" />
</g>
<g id="#bb1b03ff">
<path fill="#bb1b03" opacity="1.00" d=" M 60.61 22.18 C 60.95 23.27 61.31 24.36 61.69 25.43 C 59.14 33.43 53.55 39.90 48.01 46.01 C 43.80 50.70 39.55 55.36 35.01 59.74 C 33.82 55.93 32.52 52.15 31.35 48.34 C 33.08 49.69 34.83 51.27 37.05 51.72 C 39.11 52.06 40.85 50.64 42.26 49.33 C 48.42 43.30 52.22 35.44 56.10 27.88 C 56.73 27.29 57.35 26.69 57.96 26.08 C 58.90 24.82 59.75 23.49 60.61 22.18 Z" />
</g>
<g id="#df4f48ff">
<path fill="#df4f48" opacity="1.00" d=" M 35.64 26.96 C 43.05 26.22 50.51 25.81 57.96 26.08 C 57.35 26.69 56.73 27.29 56.10 27.88 C 51.44 28.92 46.80 30.31 42.00 30.58 C 39.26 30.98 37.35 28.71 35.64 26.96 Z" />
</g>
<g id="#b01902ff">
<path fill="#b01902" opacity="1.00" d=" M 28.93 41.19 C 30.90 38.30 32.77 35.33 34.86 32.53 C 35.10 37.06 32.56 40.87 30.70 44.78 L 30.31 44.85 C 29.76 43.67 29.30 42.44 28.93 41.19 Z" />
<path fill="#b01902" opacity="1.00" d=" M 23.47 44.46 L 23.64 43.87 C 25.41 49.14 27.23 54.39 28.87 59.70 C 26.36 57.02 23.84 54.34 21.21 51.78 L 21.27 51.58 C 22.04 49.21 22.83 46.86 23.47 44.46 Z" />
</g>
</svg>
