<?xml version="1.0" encoding="UTF-8" ?>
<!DOCTYPE svg PUBLIC "-//W3C//DTD SVG 1.1//EN" "http://www.w3.org/Graphics/SVG/1.1/DTD/svg11.dtd">
<svg width="64pt" height="64pt" viewBox="0 0 64 64" version="1.1" xmlns="http://www.w3.org/2000/svg">
<g id="#0044b5ff">
<path fill="#0044b5" opacity="1.00" d=" M 4.35 17.02 C 4.87 10.17 11.11 4.08 18.10 4.33 C 23.91 4.41 28.75 8.69 31.68 13.37 C 30.93 13.43 29.43 13.55 28.68 13.61 C 27.91 12.53 27.14 11.45 26.24 10.47 C 20.85 5.32 11.22 6.66 7.94 13.53 C 7.77 13.94 7.42 14.77 7.24 15.18 C 6.62 17.13 6.62 19.20 6.75 21.22 C 7.03 22.43 7.35 23.63 7.62 24.84 C 8.31 28.47 9.21 32.05 10.47 35.52 C 6.51 30.26 3.87 23.69 4.35 17.02 Z" />
<path fill="#0044b5" opacity="1.00" d=" M 32.54 13.23 C 35.42 7.89 41.52 3.54 47.85 4.43 C 54.36 5.34 59.61 11.46 59.67 18.01 C 59.85 24.35 57.22 30.49 53.48 35.50 C 54.79 32.06 55.69 28.49 56.37 24.88 C 56.63 23.65 56.92 22.43 57.17 21.20 C 57.38 19.26 57.32 17.29 56.91 15.37 C 56.34 14.11 55.72 12.86 54.92 11.71 C 51.33 6.61 43.84 5.85 38.93 9.45 C 37.85 10.30 36.91 11.30 36.12 12.42 C 35.23 12.62 33.43 13.03 32.54 13.23 Z" />
</g>
<g id="#ccd9efff">
<path fill="#ccd9ef" opacity="1.00" d=" M 7.94 13.53 C 11.22 6.66 20.85 5.32 26.24 10.47 C 23.17 10.89 20.10 10.36 17.03 10.35 C 13.65 10.24 11.27 13.32 7.94 13.53 Z" />
</g>
<g id="#cbd7eeff">
<path fill="#cbd7ee" opacity="1.00" d=" M 38.93 9.45 C 43.84 5.85 51.33 6.61 54.92 11.71 C 53.05 12.11 51.33 11.20 49.62 10.62 C 46.22 9.17 42.45 10.32 38.93 9.45 Z" />
</g>
<g id="#adc8f8ff">
<path fill="#adc8f8" opacity="1.00" d=" M 36.12 12.42 C 36.91 11.30 37.85 10.30 38.93 9.45 C 42.45 10.32 46.22 9.17 49.62 10.62 C 51.33 11.20 53.05 12.11 54.92 11.71 C 55.72 12.86 56.34 14.11 56.91 15.37 C 56.11 15.86 55.21 16.14 54.27 15.91 C 47.58 15.11 40.82 15.54 34.10 15.52 C 34.61 14.75 35.62 13.19 36.12 12.42 Z" />
</g>
<g id="#adc6faff">
<path fill="#adc6fa" opacity="1.00" d=" M 7.94 13.53 C 11.27 13.32 13.65 10.24 17.03 10.35 C 20.10 10.36 23.17 10.89 26.24 10.47 C 27.14 11.45 27.91 12.53 28.68 13.61 C 28.98 14.07 29.60 15.00 29.91 15.46 C 22.58 15.67 15.19 14.92 7.93 16.24 C 7.76 15.97 7.42 15.44 7.24 15.18 C 7.42 14.77 7.77 13.94 7.94 13.53 Z" />
</g>
<g id="#115ed4f9">
<path fill="#115ed4" opacity="0.98" d=" M 28.68 13.61 C 29.43 13.55 30.93 13.43 31.68 13.37 C 31.90 13.34 32.32 13.27 32.54 13.23 C 33.43 13.03 35.23 12.62 36.12 12.42 C 35.62 13.19 34.61 14.75 34.10 15.52 C 33.40 15.81 32.69 16.10 31.99 16.38 C 31.29 16.08 30.60 15.77 29.91 15.46 C 29.60 15.00 28.98 14.07 28.68 13.61 Z" />
</g>
<g id="#89b2fdff">
<path fill="#89b2fd" opacity="1.00" d=" M 6.75 21.22 C 6.62 19.20 6.62 17.13 7.24 15.18 C 7.42 15.44 7.76 15.97 7.93 16.24 C 15.19 14.92 22.58 15.67 29.91 15.46 C 30.60 15.77 31.29 16.08 31.99 16.38 C 32.69 16.10 33.40 15.81 34.10 15.52 C 40.82 15.54 47.58 15.11 54.27 15.91 C 55.21 16.14 56.11 15.86 56.91 15.37 C 57.32 17.29 57.38 19.26 57.17 21.20 C 53.83 22.05 50.40 22.52 46.95 22.07 C 33.57 22.45 20.05 23.24 6.75 21.22 Z" />
</g>
<g id="#5a9bfdff">
<path fill="#5a9bfd" opacity="1.00" d=" M 6.75 21.22 C 20.05 23.24 33.57 22.45 46.95 22.07 C 50.40 22.52 53.83 22.05 57.17 21.20 C 56.92 22.43 56.63 23.65 56.37 24.88 C 54.22 26.78 51.70 28.23 48.86 28.79 C 37.84 31.44 26.16 31.44 15.14 28.79 C 12.29 28.24 9.76 26.78 7.62 24.84 C 7.35 23.63 7.03 22.43 6.75 21.22 Z" />
</g>
<g id="#006ce0ff">
<path fill="#006ce0" opacity="1.00" d=" M 7.62 24.84 C 9.76 26.78 12.29 28.24 15.14 28.79 C 15.60 37.20 20.97 44.50 27.29 49.66 C 29.68 51.85 33.56 52.38 36.10 50.13 C 42.66 44.90 48.40 37.48 48.86 28.79 C 51.70 28.23 54.22 26.78 56.37 24.88 C 55.69 28.49 54.79 32.06 53.48 35.50 C 47.31 44.39 39.21 51.72 31.97 59.71 C 24.74 51.72 16.62 44.42 10.47 35.52 C 9.21 32.05 8.31 28.47 7.62 24.84 Z" />
</g>
<g id="#0089fcff">
<path fill="#0089fc" opacity="1.00" d=" M 15.14 28.79 C 26.16 31.44 37.84 31.44 48.86 28.79 C 48.40 37.48 42.66 44.90 36.10 50.13 C 33.56 52.38 29.68 51.85 27.29 49.66 C 20.97 44.50 15.60 37.20 15.14 28.79 Z" />
</g>
</svg>
