<?xml version="1.0" encoding="UTF-8" ?>
<!DOCTYPE svg PUBLIC "-//W3C//DTD SVG 1.1//EN" "http://www.w3.org/Graphics/SVG/1.1/DTD/svg11.dtd">
<svg width="64pt" height="64pt" viewBox="0 0 64 64" version="1.1" xmlns="http://www.w3.org/2000/svg">
<g id="#961e5fdd">
<path fill="#961e5f" opacity="0.87" d=" M 33.20 8.34 C 34.25 2.84 42.16 2.60 45.24 6.78 C 46.89 9.23 48.31 5.50 49.98 4.97 C 53.11 2.56 60.35 4.78 59.88 9.26 L 59.28 8.71 C 57.92 7.36 56.49 6.04 54.71 5.26 C 50.60 3.38 47.63 12.37 44.41 8.04 C 42.93 6.67 41.26 4.88 39.07 5.01 C 37.21 5.70 35.61 6.92 33.92 7.94 L 33.20 8.34 Z" />
</g>
<g id="#f0b4d4ff">
<path fill="#f0b4d4" opacity="1.00" d=" M 33.92 7.94 C 35.61 6.92 37.21 5.70 39.07 5.01 C 41.26 4.88 42.93 6.67 44.41 8.04 C 40.93 8.69 37.32 8.76 33.94 9.88 C 33.93 9.39 33.93 8.43 33.92 7.94 Z" />
</g>
<g id="#f89acdff">
<path fill="#f89acd" opacity="1.00" d=" M 44.41 8.04 C 47.63 12.37 50.60 3.38 54.71 5.26 C 56.49 6.04 57.92 7.36 59.28 8.71 C 59.19 10.15 59.10 11.59 58.99 13.03 C 50.64 13.08 42.27 13.13 33.98 11.93 C 33.97 11.42 33.95 10.39 33.94 9.88 C 37.32 8.76 40.93 8.69 44.41 8.04 Z" />
</g>
<g id="#bc2c7cfb">
<path fill="#bc2c7c" opacity="1.00" d=" M 33.20 8.34 L 33.92 7.94 C 33.93 8.43 33.93 9.39 33.94 9.88 C 33.95 10.39 33.97 11.42 33.98 11.93 C 33.78 13.22 34.05 14.30 34.77 15.18 C 36.90 17.52 40.40 17.41 43.00 19.01 C 46.86 20.52 47.44 26.59 52.14 26.32 C 51.46 27.02 50.78 27.71 50.09 28.40 C 46.08 26.91 44.78 21.91 41.01 20.00 C 38.67 18.93 36.21 18.16 33.85 17.16 C 33.67 16.82 33.30 16.15 33.12 15.81 C 32.89 15.31 32.44 14.31 32.21 13.81 L 31.95 12.95 C 31.96 12.22 31.98 10.77 31.99 10.04 L 32.06 9.14 C 32.35 8.94 32.92 8.54 33.20 8.34 Z" />
</g>
<g id="#7963677b">
<path fill="#796367" opacity="0.48" d=" M 22.00 9.97 C 22.76 7.10 29.25 9.66 32.06 9.14 L 31.99 10.04 C 28.66 10.02 25.33 10.03 22.00 9.97 Z" />
</g>
<g id="#d73894f6">
<path fill="#d73894" opacity="0.96" d=" M 59.28 8.71 L 59.88 9.26 C 62.76 12.55 59.12 17.21 57.70 20.56 C 55.76 22.39 54.08 24.49 52.14 26.32 C 47.44 26.59 46.86 20.52 43.00 19.01 C 40.40 17.41 36.90 17.52 34.77 15.18 C 42.57 16.40 51.87 20.71 58.80 14.81 C 58.85 14.36 58.95 13.48 58.99 13.03 C 59.10 11.59 59.19 10.15 59.28 8.71 Z" />
</g>
<g id="#9e4070a4">
<path fill="#9e4070" opacity="0.64" d=" M 3.21 25.06 C 1.87 15.20 13.72 9.95 22.00 9.97 C 25.33 10.03 28.66 10.02 31.99 10.04 C 31.98 10.77 31.96 12.22 31.95 12.95 C 29.17 13.88 24.09 11.60 22.06 13.99 L 21.75 14.81 C 15.91 15.60 9.55 16.93 5.21 21.19 C 5.30 21.68 5.50 22.67 5.59 23.16 C 5.17 23.89 4.73 24.61 4.28 25.32 L 3.21 25.06 Z" />
</g>
<g id="#f56ab7ff">
<path fill="#f56ab7" opacity="1.00" d=" M 33.98 11.93 C 42.27 13.13 50.64 13.08 58.99 13.03 C 58.95 13.48 58.85 14.36 58.80 14.81 C 51.87 20.71 42.57 16.40 34.77 15.18 C 34.05 14.30 33.78 13.22 33.98 11.93 Z" />
</g>
<g id="#ae5a82b3">
<path fill="#ae5a82" opacity="0.70" d=" M 22.06 13.99 C 24.09 11.60 29.17 13.88 31.95 12.95 L 32.21 13.81 C 28.83 13.89 25.45 13.98 22.06 13.99 Z" />
</g>
<g id="#2c232530">
<path fill="#2c2325" opacity="0.19" d=" M 22.06 13.99 C 25.45 13.98 28.83 13.89 32.21 13.81 C 32.44 14.31 32.89 15.31 33.12 15.81 C 29.37 15.16 25.55 14.97 21.75 14.81 L 22.06 13.99 Z" />
</g>
<g id="#a02467f9">
<path fill="#a02467" opacity="0.98" d=" M 33.85 17.16 C 36.21 18.16 38.67 18.93 41.01 20.00 C 44.78 21.91 46.08 26.91 50.09 28.40 C 48.59 29.54 47.39 32.61 45.21 31.11 C 44.69 27.73 43.53 24.40 41.14 21.88 C 40.81 22.14 40.14 22.65 39.81 22.91 C 36.44 22.51 32.62 20.82 29.73 23.29 C 28.77 23.84 27.88 24.50 26.97 25.12 C 26.48 25.15 25.52 25.19 25.04 25.22 C 26.30 23.17 27.80 20.89 30.38 20.49 C 37.13 22.78 34.49 19.29 33.85 17.16 Z" />
</g>
<g id="#a32368ef">
<path fill="#a32368" opacity="0.94" d=" M 5.59 23.16 C 9.88 17.66 19.98 18.86 23.11 25.15 C 22.59 25.11 21.56 25.03 21.04 24.99 C 20.64 24.77 19.84 24.32 19.44 24.10 C 15.51 20.34 8.99 21.27 6.60 26.14 C 6.33 26.52 5.80 27.29 5.54 27.67 C 5.34 27.98 4.95 28.61 4.75 28.92 C 3.95 30.09 4.06 31.59 3.84 32.93 C 0.59 33.54 4.12 27.18 4.28 25.32 C 4.73 24.61 5.17 23.89 5.59 23.16 Z" />
</g>
<g id="#0a05070d">
<path fill="#0a0507" opacity="0.05" d=" M 52.14 26.32 C 54.08 24.49 55.76 22.39 57.70 20.56 C 58.63 22.97 59.15 25.50 59.16 28.09 C 56.17 33.13 49.80 38.09 43.79 36.30 C 44.29 34.58 44.82 32.86 45.21 31.11 C 47.39 32.61 48.59 29.54 50.09 28.40 C 50.78 27.71 51.46 27.02 52.14 26.32 Z" />
</g>
<g id="#866f7288">
<path fill="#866f72" opacity="0.53" d=" M 57.70 20.56 C 59.36 21.42 60.32 23.04 60.86 24.77 C 60.29 25.87 59.80 27.02 59.16 28.09 C 59.15 25.50 58.63 22.97 57.70 20.56 Z" />
</g>
<g id="#efccdfff">
<path fill="#efccdf" opacity="1.00" d=" M 6.60 26.14 C 8.99 21.27 15.51 20.34 19.44 24.10 C 15.51 25.28 10.87 22.78 7.88 26.57 C 7.56 26.46 6.92 26.25 6.60 26.14 Z" />
</g>
<g id="#eec9ddff">
<path fill="#eec9dd" opacity="1.00" d=" M 29.73 23.29 C 32.62 20.82 36.44 22.51 39.81 22.91 L 40.37 23.86 C 37.30 25.94 33.15 23.94 29.73 23.29 Z" />
</g>
<g id="#b32d75f7">
<path fill="#b32d75" opacity="0.97" d=" M 39.81 22.91 C 40.14 22.65 40.81 22.14 41.14 21.88 C 43.53 24.40 44.69 27.73 45.21 31.11 C 44.82 32.86 44.29 34.58 43.79 36.30 L 43.05 36.00 C 43.02 35.21 42.95 33.63 42.92 32.84 C 42.73 31.35 42.34 28.38 42.15 26.89 C 41.60 25.86 40.99 24.86 40.37 23.86 L 39.81 22.91 Z" />
</g>
<g id="#f5b0d5ff">
<path fill="#f5b0d5" opacity="1.00" d=" M 26.97 25.12 C 27.88 24.50 28.77 23.84 29.73 23.29 C 33.15 23.94 37.30 25.94 40.37 23.86 C 40.99 24.86 41.60 25.86 42.15 26.89 C 42.13 27.43 42.09 28.52 42.07 29.07 C 38.58 24.87 31.81 27.45 26.82 27.39 C 26.86 26.82 26.93 25.69 26.97 25.12 Z" />
</g>
<g id="#f7aed5ff">
<path fill="#f7aed5" opacity="1.00" d=" M 7.88 26.57 C 10.87 22.78 15.51 25.28 19.44 24.10 C 19.84 24.32 20.64 24.77 21.04 24.99 C 21.43 25.94 21.80 26.90 22.16 27.87 C 17.41 27.35 12.60 27.29 7.88 26.57 Z" />
</g>
<g id="#c42d7ef7">
<path fill="#c42d7e" opacity="0.97" d=" M 21.04 24.99 C 21.56 25.03 22.59 25.11 23.11 25.15 C 23.75 25.24 24.40 25.26 25.04 25.22 C 25.52 25.19 26.48 25.15 26.97 25.12 C 26.93 25.69 26.86 26.82 26.82 27.39 C 25.29 27.73 23.73 28.04 22.16 27.87 C 21.80 26.90 21.43 25.94 21.04 24.99 Z" />
</g>
<g id="#a53771ac">
<path fill="#a53771" opacity="0.67" d=" M 59.16 28.09 C 59.80 27.02 60.29 25.87 60.86 24.77 C 62.74 25.77 62.22 28.98 62.89 30.94 C 60.47 41.85 48.22 47.58 37.84 46.87 C 39.91 43.44 43.27 40.25 43.05 36.00 L 43.79 36.30 C 49.80 38.09 56.17 33.13 59.16 28.09 Z" />
</g>
<g id="#fb9bcfff">
<path fill="#fb9bcf" opacity="1.00" d=" M 5.54 27.67 C 5.80 27.29 6.33 26.52 6.60 26.14 C 6.92 26.25 7.56 26.46 7.88 26.57 C 12.60 27.29 17.41 27.35 22.16 27.87 C 23.73 28.04 25.29 27.73 26.82 27.39 C 31.81 27.45 38.58 24.87 42.07 29.07 C 42.05 29.50 42.00 30.37 41.98 30.80 C 33.39 29.39 24.65 30.17 16.00 29.94 C 12.69 30.03 9.16 29.57 5.99 30.84 C 5.88 30.05 5.65 28.46 5.54 27.67 Z" />
</g>
<g id="#fa74beff">
<path fill="#fa74be" opacity="1.00" d=" M 42.15 26.89 C 42.34 28.38 42.73 31.35 42.92 32.84 C 42.13 33.91 41.33 34.98 40.50 36.02 C 37.75 33.87 33.98 36.46 30.99 35.84 C 22.89 36.64 14.84 35.85 6.81 35.08 C 5.28 33.37 4.85 31.14 4.75 28.92 C 4.95 28.61 5.34 27.98 5.54 27.67 C 5.65 28.46 5.88 30.05 5.99 30.84 L 6.16 31.76 C 16.28 33.81 26.74 32.94 37.00 32.94 C 38.56 32.39 41.72 32.74 41.98 30.80 C 42.00 30.37 42.05 29.50 42.07 29.07 C 42.09 28.52 42.13 27.43 42.15 26.89 Z" />
</g>
<g id="#c92e86f5">
<path fill="#c92e86" opacity="0.96" d=" M 3.84 32.93 C 4.06 31.59 3.95 30.09 4.75 28.92 C 4.85 31.14 5.28 33.37 6.81 35.08 C 7.12 35.53 7.73 36.44 8.04 36.89 C 12.21 43.83 15.71 55.07 24.92 55.99 C 32.60 52.39 36.51 44.14 40.05 36.85 L 40.50 36.02 C 41.33 34.98 42.13 33.91 42.92 32.84 C 42.95 33.63 43.02 35.21 43.05 36.00 C 43.27 40.25 39.91 43.44 37.84 46.87 C 33.91 50.61 29.82 54.25 26.72 58.74 C 25.77 59.57 24.86 61.68 23.32 60.75 C 16.85 51.68 5.29 44.79 3.84 32.93 Z" />
</g>
<g id="#fe88c8ff">
<path fill="#fe88c8" opacity="1.00" d=" M 5.99 30.84 C 9.16 29.57 12.69 30.03 16.00 29.94 C 24.65 30.17 33.39 29.39 41.98 30.80 C 41.72 32.74 38.56 32.39 37.00 32.94 C 26.74 32.94 16.28 33.81 6.16 31.76 L 5.99 30.84 Z" />
</g>
<g id="#fe64bcff">
<path fill="#fe64bc" opacity="1.00" d=" M 6.81 35.08 C 14.84 35.85 22.89 36.64 30.99 35.84 C 33.98 36.46 37.75 33.87 40.50 36.02 L 40.05 36.85 C 34.09 38.10 28.15 39.89 22.01 39.96 C 17.30 39.25 12.73 37.76 8.04 36.89 C 7.73 36.44 7.12 35.53 6.81 35.08 Z" />
</g>
<g id="#f742b0ff">
<path fill="#f742b0" opacity="1.00" d=" M 8.04 36.89 C 12.73 37.76 17.30 39.25 22.01 39.96 C 28.15 39.89 34.09 38.10 40.05 36.85 C 36.51 44.14 32.60 52.39 24.92 55.99 C 15.71 55.07 12.21 43.83 8.04 36.89 Z" />
</g>
</svg>
