<?xml version="1.0" encoding="UTF-8" ?>
<!DOCTYPE svg PUBLIC "-//W3C//DTD SVG 1.1//EN" "http://www.w3.org/Graphics/SVG/1.1/DTD/svg11.dtd">
<svg width="64pt" height="64pt" viewBox="0 0 64 64" version="1.1" xmlns="http://www.w3.org/2000/svg">
<g id="#8330c0ff">
<path fill="#8330c0" opacity="1.00" d=" M 4.37 17.04 C 4.89 9.84 11.80 3.56 19.10 4.41 C 24.69 4.92 28.95 9.22 31.97 13.60 C 35.03 9.16 39.38 4.82 45.05 4.39 C 52.26 3.65 58.94 9.84 59.58 16.88 C 60.19 23.63 57.36 30.27 53.39 35.59 C 54.70 32.06 55.80 28.45 56.46 24.74 C 56.81 22.90 57.15 21.07 57.43 19.22 C 57.21 17.46 56.87 15.72 56.30 14.05 C 54.37 10.67 51.18 7.50 47.06 7.37 C 42.80 6.84 38.72 9.11 36.25 12.49 C 34.89 14.01 33.49 15.50 32.00 16.91 C 29.82 14.99 28.04 12.69 26.18 10.47 C 23.53 8.52 20.35 7.03 16.98 7.43 C 13.05 7.57 9.95 10.44 7.91 13.57 C 7.17 15.37 6.77 17.30 6.57 19.23 C 6.85 21.10 7.20 22.95 7.55 24.80 C 8.24 28.52 9.34 32.14 10.59 35.71 C 6.62 30.38 3.84 23.78 4.37 17.04 Z" />
</g>
<g id="#f3eff5ff">
<path fill="#f3eff5" opacity="1.00" d=" M 7.91 13.57 C 9.95 10.44 13.05 7.57 16.98 7.43 C 20.35 7.03 23.53 8.52 26.18 10.47 C 23.08 10.57 20.03 9.94 16.95 9.76 C 13.76 10.56 10.98 12.41 7.91 13.57 Z" />
<path fill="#f3eff5" opacity="1.00" d=" M 36.25 12.49 C 38.72 9.11 42.80 6.84 47.06 7.37 C 51.18 7.50 54.37 10.67 56.30 14.05 C 56.19 14.39 55.97 15.07 55.86 15.42 C 54.07 13.01 51.95 10.58 48.88 9.88 C 44.49 8.37 40.14 10.63 36.25 12.49 Z" />
</g>
<g id="#dcb0fbff">
<path fill="#dcb0fb" opacity="1.00" d=" M 7.91 13.57 C 10.98 12.41 13.76 10.56 16.95 9.76 C 20.03 9.94 23.08 10.57 26.18 10.47 C 28.04 12.69 29.82 14.99 32.00 16.91 C 33.49 15.50 34.89 14.01 36.25 12.49 C 40.14 10.63 44.49 8.37 48.88 9.88 C 51.95 10.58 54.07 13.01 55.86 15.42 C 55.97 15.07 56.19 14.39 56.30 14.05 C 56.87 15.72 57.21 17.46 57.43 19.22 C 40.49 19.66 23.51 19.65 6.57 19.23 C 6.77 17.30 7.17 15.37 7.91 13.57 Z" />
</g>
<g id="#cd86fcff">
<path fill="#cd86fc" opacity="1.00" d=" M 6.57 19.23 C 23.51 19.65 40.49 19.66 57.43 19.22 C 57.15 21.07 56.81 22.90 56.46 24.74 C 54.96 25.77 53.45 26.79 51.94 27.81 C 38.96 31.63 24.99 31.64 12.02 27.78 C 10.53 26.79 9.04 25.79 7.55 24.80 C 7.20 22.95 6.85 21.10 6.57 19.23 Z" />
</g>
<g id="#a742ddff">
<path fill="#a742dd" opacity="1.00" d=" M 7.55 24.80 C 9.04 25.79 10.53 26.79 12.02 27.78 C 14.67 32.54 16.50 37.79 19.95 42.08 C 22.33 45.02 24.91 47.82 27.82 50.24 C 29.58 51.95 32.31 51.95 34.54 51.36 C 42.87 45.76 47.86 36.73 51.94 27.81 C 53.45 26.79 54.96 25.77 56.46 24.74 C 55.80 28.45 54.70 32.06 53.39 35.59 C 47.27 44.46 39.20 51.74 31.97 59.68 C 24.75 51.78 16.76 44.49 10.59 35.71 C 9.34 32.14 8.24 28.52 7.55 24.80 Z" />
</g>
<g id="#c451faff">
<path fill="#c451fa" opacity="1.00" d=" M 12.02 27.78 C 24.99 31.64 38.96 31.63 51.94 27.81 C 47.86 36.73 42.87 45.76 34.54 51.36 C 32.31 51.95 29.58 51.95 27.82 50.24 C 24.91 47.82 22.33 45.02 19.95 42.08 C 16.50 37.79 14.67 32.54 12.02 27.78 Z" />
</g>
</svg>
