<?xml version="1.0" encoding="UTF-8" ?>
<!DOCTYPE svg PUBLIC "-//W3C//DTD SVG 1.1//EN" "http://www.w3.org/Graphics/SVG/1.1/DTD/svg11.dtd">
<svg width="64pt" height="64pt" viewBox="0 0 64 64" version="1.1" xmlns="http://www.w3.org/2000/svg">
<g id="#bf196fff">
<path fill="#bf196f" opacity="1.00" d=" M 51.52 4.43 C 51.50 3.79 51.45 2.50 51.43 1.86 C 51.80 5.87 56.31 6.90 58.03 10.14 C 59.68 12.00 59.06 15.58 61.84 16.27 C 59.80 16.74 60.44 19.07 60.15 20.65 C 59.66 20.56 58.69 20.38 58.21 20.29 C 54.98 20.77 54.29 24.71 53.55 27.32 C 53.48 27.59 53.33 28.13 53.25 28.40 C 52.85 29.71 52.44 31.02 52.01 32.32 C 51.63 31.49 51.25 30.66 50.88 29.83 L 51.09 29.12 C 52.77 24.19 54.62 18.05 60.40 16.68 C 55.35 14.50 52.27 9.25 51.85 3.89 C 51.31 6.42 50.40 8.84 49.28 11.17 L 49.48 9.23 C 49.54 8.62 49.67 7.39 49.74 6.77 C 46.04 6.43 42.00 6.59 39.03 9.11 C 38.65 9.42 37.90 10.03 37.52 10.34 C 36.23 10.47 34.94 10.60 33.65 10.73 C 37.78 5.38 44.82 2.01 51.52 4.43 Z" />
</g>
<g id="#ba1d6fff">
<path fill="#ba1d6f" opacity="1.00" d=" M 4.46 13.05 C 6.70 6.87 13.48 2.40 20.09 3.94 C 24.29 4.68 27.54 7.70 30.30 10.75 C 29.00 10.62 27.69 10.49 26.38 10.35 C 21.57 5.22 12.62 5.56 8.42 11.30 C 7.12 11.94 5.79 12.49 4.46 13.05 Z" />
<path fill="#ba1d6f" opacity="1.00" d=" M 41.28 16.11 C 44.17 15.35 46.61 13.63 48.64 11.47 C 47.82 14.60 44.60 15.96 41.84 16.89 C 47.89 17.01 51.49 23.63 51.09 29.12 L 50.88 29.83 L 50.37 28.69 C 49.76 27.06 49.25 25.40 48.64 23.77 C 47.29 21.58 45.38 19.78 42.95 18.88 C 42.39 17.96 41.83 17.04 41.28 16.11 Z" />
</g>
<g id="#fffa31ff">
<path fill="#fffa31" opacity="1.00" d=" M 49.28 11.17 C 50.40 8.84 51.31 6.42 51.85 3.89 C 52.27 9.25 55.35 14.50 60.40 16.68 C 54.62 18.05 52.77 24.19 51.09 29.12 C 51.49 23.63 47.89 17.01 41.84 16.89 C 44.60 15.96 47.82 14.60 48.64 11.47 L 48.81 11.06 L 49.13 11.62 L 49.28 11.17 Z" />
</g>
<g id="#f3d1e3ff">
<path fill="#f3d1e3" opacity="1.00" d=" M 8.42 11.30 C 12.62 5.56 21.57 5.22 26.38 10.35 C 26.79 10.89 27.59 11.98 28.00 12.52 C 24.40 12.27 21.68 9.10 17.96 9.43 C 13.92 9.21 10.91 12.31 7.77 14.36 L 7.54 13.01 C 7.76 12.58 8.20 11.73 8.42 11.30 Z" />
</g>
<g id="#f4d9e7ff">
<path fill="#f4d9e7" opacity="1.00" d=" M 39.03 9.11 C 42.00 6.59 46.04 6.43 49.74 6.77 C 49.67 7.39 49.54 8.62 49.48 9.23 C 45.30 9.14 41.17 9.84 37.36 11.57 C 37.78 10.96 38.61 9.73 39.03 9.11 Z" />
</g>
<g id="#ff9fd2ff">
<path fill="#ff9fd2" opacity="1.00" d=" M 7.77 14.36 C 10.91 12.31 13.92 9.21 17.96 9.43 C 21.68 9.10 24.40 12.27 28.00 12.52 C 29.42 13.94 30.97 16.93 33.36 15.47 C 35.00 13.98 36.13 12.04 37.52 10.34 C 37.90 10.03 38.65 9.42 39.03 9.11 C 38.61 9.73 37.78 10.96 37.36 11.57 C 41.17 9.84 45.30 9.14 49.48 9.23 L 49.28 11.17 L 49.13 11.62 L 48.81 11.06 L 48.64 11.47 C 46.61 13.63 44.17 15.35 41.28 16.11 C 41.83 17.04 42.39 17.96 42.95 18.88 C 40.31 19.42 37.62 19.67 34.93 19.62 C 25.59 19.48 16.25 19.72 6.91 19.46 C 6.80 17.97 6.68 16.48 6.63 14.98 C 6.86 14.49 7.31 13.50 7.54 13.01 L 7.77 14.36 Z" />
</g>
<g id="#cf257ef3">
<path fill="#cf257e" opacity="0.95" d=" M 26.38 10.35 C 27.69 10.49 29.00 10.62 30.30 10.75 C 30.73 11.36 31.58 12.58 32.01 13.19 C 32.42 12.57 33.24 11.34 33.65 10.73 C 34.94 10.60 36.23 10.47 37.52 10.34 C 36.13 12.04 35.00 13.98 33.36 15.47 C 30.97 16.93 29.42 13.94 28.00 12.52 C 27.59 11.98 26.79 10.89 26.38 10.35 Z" />
</g>
<g id="#e0278bff">
<path fill="#e0278b" opacity="1.00" d=" M 4.46 13.05 C 5.79 12.49 7.12 11.94 8.42 11.30 C 8.20 11.73 7.76 12.58 7.54 13.01 C 7.31 13.50 6.86 14.49 6.63 14.98 C 5.74 18.34 6.19 21.93 7.84 24.97 C 8.09 25.51 8.59 26.59 8.84 27.12 C 9.65 28.91 10.37 30.73 11.08 32.55 C 12.30 32.06 13.49 31.50 14.71 31.01 C 13.73 33.18 12.33 35.15 10.45 36.64 C 5.77 29.88 1.92 21.36 4.46 13.05 Z" />
<path fill="#e0278b" opacity="1.00" d=" M 58.21 20.29 C 58.69 20.38 59.66 20.56 60.15 20.65 C 59.46 26.94 56.44 32.75 52.53 37.64 C 51.97 34.40 55.77 31.27 53.25 28.40 C 53.33 28.13 53.48 27.59 53.55 27.32 C 56.35 25.97 57.41 23.08 58.21 20.29 Z" />
</g>
<g id="#ff7dc6ff">
<path fill="#ff7dc6" opacity="1.00" d=" M 7.84 24.97 C 6.19 21.93 5.74 18.34 6.63 14.98 C 6.68 16.48 6.80 17.97 6.91 19.46 C 16.25 19.72 25.59 19.48 34.93 19.62 C 37.62 19.67 40.31 19.42 42.95 18.88 C 45.38 19.78 47.29 21.58 48.64 23.77 C 39.47 24.46 30.20 24.53 21.03 23.96 C 16.60 22.83 12.09 23.43 7.84 24.97 Z" />
</g>
<g id="#e963abff">
<path fill="#e963ab" opacity="1.00" d=" M 53.55 27.32 C 54.29 24.71 54.98 20.77 58.21 20.29 C 57.41 23.08 56.35 25.97 53.55 27.32 Z" />
</g>
<g id="#ff5abfff">
<path fill="#ff5abf" opacity="1.00" d=" M 7.84 24.97 C 12.09 23.43 16.60 22.83 21.03 23.96 C 30.20 24.53 39.47 24.46 48.64 23.77 C 49.25 25.40 49.76 27.06 50.37 28.69 L 49.48 28.82 C 39.08 31.32 28.22 31.46 17.70 29.66 C 17.21 27.91 16.87 26.12 16.50 24.35 C 16.35 24.47 16.05 24.70 15.90 24.82 C 15.81 25.41 15.63 26.57 15.54 27.15 C 13.36 28.06 11.05 27.69 8.84 27.12 C 8.59 26.59 8.09 25.51 7.84 24.97 Z" />
</g>
<g id="#ffa10cff">
<path fill="#ffa10c" opacity="1.00" d=" M 15.90 24.82 C 16.05 24.70 16.35 24.47 16.50 24.35 C 16.87 26.12 17.21 27.91 17.70 29.66 L 18.31 31.19 C 19.39 31.78 20.49 32.37 21.56 32.99 L 19.82 33.86 C 21.19 35.27 22.55 36.69 23.94 38.09 C 19.19 37.48 18.89 31.71 15.01 29.92 C 15.15 29.23 15.41 27.84 15.54 27.15 C 15.63 26.57 15.81 25.41 15.90 24.82 Z" />
<path fill="#ffa10c" opacity="1.00" d=" M 1.81 39.45 C 4.61 39.44 7.33 38.72 9.72 37.26 C 9.51 38.37 9.41 39.49 9.43 40.61 C 11.49 42.49 13.78 44.30 14.27 47.24 C 11.78 43.67 8.36 40.43 3.88 39.75 C 3.36 39.67 2.32 39.52 1.81 39.45 Z" />
</g>
<g id="#fb2c9eff">
<path fill="#fb2c9e" opacity="1.00" d=" M 8.84 27.12 C 11.05 27.69 13.36 28.06 15.54 27.15 C 15.41 27.84 15.15 29.23 15.01 29.92 C 14.94 30.19 14.79 30.74 14.71 31.01 C 13.49 31.50 12.30 32.06 11.08 32.55 C 10.37 30.73 9.65 28.91 8.84 27.12 Z" />
</g>
<g id="#ff31b6ff">
<path fill="#ff31b6" opacity="1.00" d=" M 17.70 29.66 C 28.22 31.46 39.08 31.32 49.48 28.82 C 50.53 33.95 47.33 38.45 44.38 42.30 C 41.70 45.59 39.20 49.28 35.38 51.36 C 30.57 54.05 24.47 50.04 23.29 45.06 C 22.77 45.01 21.73 44.90 21.21 44.84 C 21.39 44.58 21.76 44.06 21.94 43.81 C 22.85 43.49 24.67 42.86 25.58 42.55 L 25.53 40.64 L 25.52 40.47 C 27.18 40.21 28.83 39.97 30.50 39.75 C 28.27 39.36 26.04 38.92 23.94 38.09 C 22.55 36.69 21.19 35.27 19.82 33.86 L 21.56 32.99 C 20.49 32.37 19.39 31.78 18.31 31.19 L 17.70 29.66 Z" />
</g>
<g id="#e72a99ff">
<path fill="#e72a99" opacity="1.00" d=" M 49.48 28.82 L 50.37 28.69 L 50.88 29.83 C 51.25 30.66 51.63 31.49 52.01 32.32 C 52.44 31.02 52.85 29.71 53.25 28.40 C 55.77 31.27 51.97 34.40 52.53 37.64 C 46.34 45.74 39.07 52.94 31.95 60.23 C 28.15 56.24 24.23 52.38 20.50 48.33 C 18.90 47.16 19.49 45.51 21.21 44.84 C 21.73 44.90 22.77 45.01 23.29 45.06 C 24.47 50.04 30.57 54.05 35.38 51.36 C 39.20 49.28 41.70 45.59 44.38 42.30 C 47.33 38.45 50.53 33.95 49.48 28.82 Z" />
</g>
<g id="#fefc31ff">
<path fill="#fefc31" opacity="1.00" d=" M 15.01 29.92 C 18.89 31.71 19.19 37.48 23.94 38.09 C 26.04 38.92 28.27 39.36 30.50 39.75 C 28.83 39.97 27.18 40.21 25.52 40.47 L 25.53 40.64 C 22.61 42.10 20.34 44.45 18.18 46.85 L 18.08 44.08 C 18.01 45.67 17.90 47.25 17.76 48.83 C 17.06 48.92 15.65 49.10 14.95 49.19 C 14.78 48.70 14.44 47.73 14.27 47.24 C 13.78 44.30 11.49 42.49 9.43 40.61 C 9.41 39.49 9.51 38.37 9.72 37.26 C 9.91 37.10 10.27 36.79 10.45 36.64 C 12.33 35.15 13.73 33.18 14.71 31.01 C 14.79 30.74 14.94 30.19 15.01 29.92 Z" />
</g>
<g id="#42280891">
<path fill="#422808" opacity="0.57" d=" M 3.88 39.75 C 8.36 40.43 11.78 43.67 14.27 47.24 C 14.44 47.73 14.78 48.70 14.95 49.19 C 15.17 50.56 15.62 51.92 16.56 52.98 C 17.04 51.63 17.62 50.27 17.76 48.83 C 17.90 47.25 18.01 45.67 18.08 44.08 L 18.18 46.85 C 20.34 44.45 22.61 42.10 25.53 40.64 L 25.58 42.55 C 24.67 42.86 22.85 43.49 21.94 43.81 C 21.76 44.06 21.39 44.58 21.21 44.84 C 19.49 45.51 18.90 47.16 20.50 48.33 C 17.45 48.64 17.64 53.00 17.03 55.34 C 16.71 55.45 16.07 55.66 15.75 55.77 C 14.93 52.49 14.29 48.88 11.72 46.45 C 9.51 43.70 5.65 42.92 3.88 39.75 Z" />
</g>
<g id="#e58c16f5">
<path fill="#e58c16" opacity="0.96" d=" M 14.95 49.19 C 15.65 49.10 17.06 48.92 17.76 48.83 C 17.62 50.27 17.04 51.63 16.56 52.98 C 15.62 51.92 15.17 50.56 14.95 49.19 Z" />
</g>
</svg>
