<?xml version="1.0" encoding="UTF-8" ?>
<!DOCTYPE svg PUBLIC "-//W3C//DTD SVG 1.1//EN" "http://www.w3.org/Graphics/SVG/1.1/DTD/svg11.dtd">
<svg width="64pt" height="64pt" viewBox="0 0 64 64" version="1.1" xmlns="http://www.w3.org/2000/svg">
<g id="#32331cbe">
<path fill="#32331c" opacity="0.75" d=" M 31.50 0.49 C 33.82 4.05 30.67 9.23 33.61 12.91 C 33.64 12.98 33.71 13.13 33.75 13.21 L 32.32 13.34 C 32.41 15.40 32.50 17.46 32.77 19.50 C 33.00 21.70 33.28 23.91 34.02 26.00 C 34.32 26.42 34.91 27.27 35.21 27.69 L 35.45 28.65 C 34.87 28.72 33.70 28.87 33.11 28.95 C 31.49 19.58 30.16 9.98 31.50 0.49 Z" />
</g>
<g id="#705318c0">
<path fill="#705318" opacity="0.75" d=" M 34.40 5.13 C 34.58 6.53 34.75 7.93 34.92 9.33 C 36.29 8.75 37.60 7.93 39.08 7.64 C 40.34 8.00 41.59 8.43 42.93 8.20 C 45.23 10.30 46.45 13.29 48.21 15.82 L 47.19 16.66 L 46.83 15.86 C 45.86 13.97 44.79 12.13 43.61 10.36 L 43.04 9.49 L 41.74 9.53 C 41.30 9.55 40.41 9.59 39.96 9.62 C 37.69 9.23 35.71 10.58 35.29 12.84 L 34.81 13.89 L 33.75 13.21 C 33.71 13.13 33.64 12.98 33.61 12.91 C 34.55 10.41 34.55 7.75 34.40 5.13 Z" />
</g>
<g id="#e4d8abff">
<path fill="#e4d8ab" opacity="1.00" d=" M 35.29 12.84 C 35.71 10.58 37.69 9.23 39.96 9.62 L 40.19 10.10 C 38.84 11.46 37.00 12.07 35.29 12.84 Z" />
</g>
<g id="#c67433fc">
<path fill="#c67433" opacity="1.00" d=" M 39.96 9.62 C 40.41 9.59 41.30 9.55 41.74 9.53 C 41.44 12.87 41.30 16.27 42.19 19.54 C 42.30 20.05 42.52 21.05 42.63 21.56 C 42.80 22.22 43.14 23.54 43.31 24.19 C 46.06 22.69 47.54 19.79 47.19 16.66 L 48.21 15.82 C 49.90 19.75 47.40 23.59 45.30 26.77 C 44.83 27.06 43.90 27.64 43.44 27.92 C 41.08 27.78 38.70 27.75 36.43 28.51 C 36.13 28.30 35.52 27.89 35.21 27.69 C 34.91 27.27 34.32 26.42 34.02 26.00 C 36.56 26.93 39.24 27.72 41.96 27.10 C 41.76 26.44 41.36 25.12 41.15 24.46 C 40.74 23.49 40.27 22.54 39.79 21.60 C 39.19 20.48 38.59 19.37 37.99 18.25 C 39.01 18.95 40.03 19.65 41.05 20.35 C 41.10 18.49 41.18 16.62 41.22 14.76 C 41.24 13.14 41.14 11.49 40.19 10.10 L 39.96 9.62 Z" />
</g>
<g id="#fae594ff">
<path fill="#fae594" opacity="1.00" d=" M 41.74 9.53 L 43.04 9.49 L 43.61 10.36 C 43.49 13.47 42.85 16.51 42.19 19.54 C 41.30 16.27 41.44 12.87 41.74 9.53 Z" />
</g>
<g id="#f9f891ff">
<path fill="#f9f891" opacity="1.00" d=" M 35.29 12.84 C 37.00 12.07 38.84 11.46 40.19 10.10 C 41.14 11.49 41.24 13.14 41.22 14.76 C 40.32 15.36 39.42 15.97 38.53 16.57 C 37.31 15.65 36.09 14.73 34.81 13.89 L 35.29 12.84 Z" />
</g>
<g id="#fdea54ff">
<path fill="#fdea54" opacity="1.00" d=" M 43.61 10.36 C 44.79 12.13 45.86 13.97 46.83 15.86 C 45.70 17.95 44.29 19.86 42.63 21.56 C 42.52 21.05 42.30 20.05 42.19 19.54 C 42.85 16.51 43.49 13.47 43.61 10.36 Z" />
</g>
<g id="#7e1745ff">
<path fill="#7e1745" opacity="1.00" d=" M 14.78 13.72 C 16.37 12.80 18.30 12.77 19.94 11.94 C 23.41 13.24 26.59 15.20 29.39 17.62 C 29.03 21.01 29.81 24.92 27.97 27.93 C 24.69 29.82 20.59 29.28 17.00 28.71 L 16.55 28.63 C 14.95 25.78 13.17 23.00 11.98 19.93 C 12.90 17.86 12.72 15.12 14.78 13.72 M 19.60 13.45 L 19.55 14.64 C 18.29 14.69 17.03 14.73 15.78 14.77 C 15.19 16.15 13.93 17.84 15.10 19.29 L 15.00 19.69 L 13.31 19.12 L 13.36 21.15 C 14.41 23.03 15.71 24.74 16.97 26.47 C 18.96 29.40 22.50 28.07 25.16 27.03 C 24.42 25.55 23.32 24.30 22.16 23.13 C 22.50 22.95 23.16 22.58 23.49 22.40 C 24.57 23.48 25.72 24.48 27.06 25.22 C 28.26 22.51 29.62 18.18 25.85 16.86 C 24.79 15.28 23.00 14.47 21.29 13.78 L 21.21 13.42 C 20.81 13.42 20.00 13.44 19.60 13.45 Z" />
<path fill="#7e1745" opacity="1.00" d=" M 15.17 36.04 C 16.88 37.17 18.46 38.88 20.68 38.82 L 21.36 38.90 L 22.59 38.98 C 22.42 39.28 22.24 39.58 22.04 39.86 C 21.15 39.50 20.23 39.21 19.28 38.99 C 19.30 39.34 19.35 40.05 19.37 40.41 C 18.80 40.45 17.67 40.54 17.10 40.58 C 17.45 40.42 18.15 40.08 18.50 39.92 C 18.38 38.07 16.24 37.30 15.17 36.04 Z" />
</g>
<g id="#f7f3f1ff">
<path fill="#f7f3f1" opacity="1.00" d=" M 19.60 13.45 C 20.00 13.44 20.81 13.42 21.21 13.42 L 21.29 13.78 C 21.68 15.77 22.52 17.62 23.28 19.48 C 23.43 19.89 23.73 20.69 23.88 21.09 C 23.62 20.77 23.11 20.12 22.86 19.79 C 21.88 18.09 21.03 16.33 20.16 14.59 C 18.75 15.05 17.34 15.51 15.93 15.97 C 15.66 17.08 15.38 18.18 15.10 19.29 C 13.93 17.84 15.19 16.15 15.78 14.77 C 17.03 14.73 18.29 14.69 19.55 14.64 L 19.60 13.45 Z" />
<path fill="#f7f3f1" opacity="1.00" d=" M 35.21 27.69 C 35.52 27.89 36.13 28.30 36.43 28.51 C 37.14 28.98 37.84 29.45 38.55 29.92 C 38.83 30.14 39.38 30.58 39.66 30.80 C 39.29 32.87 39.32 34.97 39.53 37.05 C 38.96 35.79 38.38 34.52 37.76 33.29 C 37.13 32.05 36.17 30.50 34.54 31.31 C 32.07 31.50 31.54 33.91 30.89 35.85 C 31.56 36.53 32.23 37.21 32.91 37.88 C 31.51 37.40 30.04 37.12 28.63 36.66 L 28.31 36.19 L 27.55 35.41 C 27.79 35.44 28.27 35.49 28.51 35.52 L 30.47 35.75 C 30.77 34.27 31.07 32.78 31.38 31.30 C 32.87 31.01 34.37 30.72 35.87 30.44 L 35.45 28.65 L 35.21 27.69 Z" />
<path fill="#f7f3f1" opacity="1.00" d=" M 10.16 40.86 C 9.14 38.57 10.25 36.24 12.73 35.73 C 12.01 37.42 11.45 39.18 10.68 40.85 L 10.16 40.86 Z" />
<path fill="#f7f3f1" opacity="1.00" d=" M 10.28 42.10 C 13.17 42.63 16.11 42.48 19.03 42.42 C 16.17 42.90 13.28 43.21 10.39 43.48 C 10.36 43.13 10.31 42.45 10.28 42.10 Z" />
<path fill="#f7f3f1" opacity="1.00" d=" M 51.64 45.21 C 52.55 45.36 53.45 45.54 54.35 45.75 C 54.39 46.58 54.46 48.25 54.49 49.08 L 54.13 49.51 C 52.70 51.28 51.19 53.00 49.38 54.40 L 48.88 54.57 C 47.59 54.12 46.32 53.62 45.05 53.13 C 45.63 52.23 46.22 51.33 46.80 50.43 L 46.94 49.91 C 47.40 49.86 48.33 49.76 48.79 49.71 L 48.33 48.30 C 49.71 47.58 50.71 46.42 51.64 45.21 Z" />
</g>
<g id="#09301ac7">
<path fill="#09301a" opacity="0.78" d=" M 53.45 12.92 C 55.15 12.97 54.95 14.88 55.07 16.11 C 55.15 19.23 54.65 22.41 53.23 25.22 C 53.81 22.30 54.12 19.32 54.04 16.34 C 51.66 18.72 50.71 22.02 49.65 25.11 C 49.33 24.80 48.70 24.19 48.39 23.89 C 49.65 20.04 52.09 16.73 53.45 12.92 Z" />
</g>
<g id="#ff59c8ff">
<path fill="#ff59c8" opacity="1.00" d=" M 23.28 19.48 C 22.52 17.62 21.68 15.77 21.29 13.78 C 23.00 14.47 24.79 15.28 25.85 16.86 C 25.84 17.53 25.81 18.87 25.80 19.54 C 25.17 19.53 23.91 19.50 23.28 19.48 Z" />
<path fill="#ff59c8" opacity="1.00" d=" M 15.93 15.97 C 17.34 15.51 18.75 15.05 20.16 14.59 C 21.03 16.33 21.88 18.09 22.86 19.79 C 21.17 20.25 19.47 20.69 17.78 21.14 C 16.88 20.61 15.95 20.13 15.00 19.69 L 15.10 19.29 C 15.38 18.18 15.66 17.08 15.93 15.97 Z" />
</g>
<g id="#f3df73ff">
<path fill="#f3df73" opacity="1.00" d=" M 32.32 13.34 L 33.75 13.21 L 34.81 13.89 C 36.09 14.73 37.31 15.65 38.53 16.57 C 39.42 15.97 40.32 15.36 41.22 14.76 C 41.18 16.62 41.10 18.49 41.05 20.35 C 40.03 19.65 39.01 18.95 37.99 18.25 C 38.59 19.37 39.19 20.48 39.79 21.60 C 37.77 20.89 35.65 20.44 33.50 20.82 C 33.32 20.49 32.95 19.83 32.77 19.50 C 32.50 17.46 32.41 15.40 32.32 13.34 M 34.19 15.20 C 33.60 16.71 35.31 18.83 36.88 18.68 C 37.25 17.31 35.65 15.05 34.19 15.20 Z" />
</g>
<g id="#fef1a9ff">
<path fill="#fef1a9" opacity="1.00" d=" M 34.19 15.20 C 35.65 15.05 37.25 17.31 36.88 18.68 C 35.31 18.83 33.60 16.71 34.19 15.20 Z" />
</g>
<g id="#f8c336ff">
<path fill="#f8c336" opacity="1.00" d=" M 46.83 15.86 L 47.19 16.66 C 47.54 19.79 46.06 22.69 43.31 24.19 C 43.14 23.54 42.80 22.22 42.63 21.56 C 44.29 19.86 45.70 17.95 46.83 15.86 Z" />
</g>
<g id="#ea458eff">
<path fill="#ea458e" opacity="1.00" d=" M 25.85 16.86 C 29.62 18.18 28.26 22.51 27.06 25.22 C 25.72 24.48 24.57 23.48 23.49 22.40 C 23.16 22.58 22.50 22.95 22.16 23.13 C 23.32 24.30 24.42 25.55 25.16 27.03 C 22.50 28.07 18.96 29.40 16.97 26.47 C 18.59 25.89 20.09 25.06 21.41 23.95 C 21.15 23.76 20.63 23.38 20.37 23.19 C 19.52 22.49 18.66 21.81 17.78 21.14 C 19.47 20.69 21.17 20.25 22.86 19.79 C 23.11 20.12 23.62 20.77 23.88 21.09 C 23.73 20.69 23.43 19.89 23.28 19.48 C 23.91 19.50 25.17 19.53 25.80 19.54 C 25.81 18.87 25.84 17.53 25.85 16.86 Z" />
</g>
<g id="#259252ff">
<path fill="#259252" opacity="1.00" d=" M 49.65 25.11 C 50.71 22.02 51.66 18.72 54.04 16.34 C 54.12 19.32 53.81 22.30 53.23 25.22 L 53.00 25.85 C 52.32 27.04 51.56 28.19 50.73 29.28 C 49.43 28.38 49.69 26.49 49.65 25.11 Z" />
</g>
<g id="#380f18eb">
<path fill="#380f18" opacity="0.92" d=" M 29.39 17.62 C 30.75 20.51 29.91 23.83 30.20 26.91 C 29.19 27.96 28.17 28.99 27.26 30.12 C 23.98 29.57 19.49 31.41 17.00 28.71 C 20.59 29.28 24.69 29.82 27.97 27.93 C 29.81 24.92 29.03 21.01 29.39 17.62 Z" />
</g>
<g id="#f4a1caff">
<path fill="#f4a1ca" opacity="1.00" d=" M 13.31 19.12 L 15.00 19.69 C 15.95 20.13 16.88 20.61 17.78 21.14 C 18.66 21.81 19.52 22.49 20.37 23.19 C 17.98 22.71 15.58 22.18 13.36 21.15 L 13.31 19.12 Z" />
</g>
<g id="#e89423ff">
<path fill="#e89423" opacity="1.00" d=" M 32.77 19.50 C 32.95 19.83 33.32 20.49 33.50 20.82 C 34.19 22.38 34.93 23.93 35.79 25.41 C 37.57 25.05 39.36 24.73 41.15 24.46 C 41.36 25.12 41.76 26.44 41.96 27.10 C 39.24 27.72 36.56 26.93 34.02 26.00 C 33.28 23.91 33.00 21.70 32.77 19.50 Z" />
</g>
<g id="#feda40ff">
<path fill="#feda40" opacity="1.00" d=" M 33.50 20.82 C 35.65 20.44 37.77 20.89 39.79 21.60 C 40.27 22.54 40.74 23.49 41.15 24.46 C 39.36 24.73 37.57 25.05 35.79 25.41 C 34.93 23.93 34.19 22.38 33.50 20.82 Z" />
</g>
<g id="#f263adff">
<path fill="#f263ad" opacity="1.00" d=" M 13.36 21.15 C 15.58 22.18 17.98 22.71 20.37 23.19 C 20.63 23.38 21.15 23.76 21.41 23.95 C 20.09 25.06 18.59 25.89 16.97 26.47 C 15.71 24.74 14.41 23.03 13.36 21.15 Z" />
</g>
<g id="#144124de">
<path fill="#144124" opacity="0.87" d=" M 46.51 25.14 L 46.80 25.26 C 46.13 27.54 46.23 30.09 47.79 32.01 C 48.43 30.34 46.40 26.82 48.81 26.22 C 49.34 27.69 49.31 29.27 49.30 30.81 C 47.96 35.87 49.57 40.90 49.80 45.97 C 48.70 43.47 47.59 40.97 46.30 38.56 C 46.34 38.35 46.42 37.92 46.46 37.71 C 49.38 34.99 46.07 30.95 45.02 28.06 C 43.35 28.88 42.89 30.50 43.79 32.07 C 42.64 31.47 41.46 30.93 40.26 30.45 C 41.29 29.58 42.35 28.74 43.44 27.92 C 43.90 27.64 44.83 27.06 45.30 26.77 C 45.60 26.36 46.20 25.55 46.51 25.14 Z" />
</g>
<g id="#103b22ac">
<path fill="#103b22" opacity="0.67" d=" M 50.73 29.28 C 51.56 28.19 52.32 27.04 53.00 25.85 C 52.50 27.56 51.96 29.26 51.38 30.95 C 52.08 33.92 53.01 36.96 52.46 40.05 L 52.09 40.62 C 51.93 38.12 51.72 35.59 50.94 33.20 C 50.40 31.89 50.33 30.58 50.73 29.28 Z" />
</g>
<g id="#0f6c35e4">
<path fill="#0f6c35" opacity="0.89" d=" M 30.20 26.91 C 30.50 27.47 31.09 28.59 31.39 29.15 C 30.66 29.93 29.94 30.71 29.25 31.52 C 28.75 31.17 27.76 30.47 27.26 30.12 C 28.17 28.99 29.19 27.96 30.20 26.91 Z" />
</g>
<g id="#57291fc4">
<path fill="#57291f" opacity="0.77" d=" M 36.43 28.51 C 38.70 27.75 41.08 27.78 43.44 27.92 C 42.35 28.74 41.29 29.58 40.26 30.45 C 39.83 30.32 38.98 30.06 38.55 29.92 C 37.84 29.45 37.14 28.98 36.43 28.51 Z" />
</g>
<g id="#aa4981f4">
<path fill="#aa4981" opacity="0.96" d=" M 31.39 29.15 C 31.82 29.10 32.68 29.00 33.11 28.95 C 33.70 28.87 34.87 28.72 35.45 28.65 L 35.87 30.44 C 34.37 30.72 32.87 31.01 31.38 31.30 C 31.07 32.78 30.77 34.27 30.47 35.75 L 28.51 35.52 C 28.62 34.87 28.85 33.58 28.96 32.93 C 29.03 32.57 29.18 31.87 29.25 31.52 C 29.94 30.71 30.66 29.93 31.39 29.15 Z" />
</g>
<g id="#238f4eff">
<path fill="#238f4e" opacity="1.00" d=" M 43.79 32.07 C 42.89 30.50 43.35 28.88 45.02 28.06 C 46.07 30.95 49.38 34.99 46.46 37.71 C 46.31 35.51 45.56 33.46 43.79 32.07 Z" />
</g>
<g id="#7a1934ff">
<path fill="#7a1934" opacity="1.00" d=" M 38.55 29.92 C 38.98 30.06 39.83 30.32 40.26 30.45 C 41.46 30.93 42.64 31.47 43.79 32.07 C 45.56 33.46 46.31 35.51 46.46 37.71 C 46.42 37.92 46.34 38.35 46.30 38.56 C 45.56 40.39 46.08 42.15 47.14 43.71 C 45.97 44.01 44.79 44.29 43.65 44.70 C 43.67 45.18 43.72 46.14 43.74 46.62 C 42.84 46.36 41.94 46.10 41.04 45.84 C 40.21 45.99 38.56 46.29 37.73 46.44 C 37.46 46.49 36.91 46.59 36.64 46.65 C 35.13 46.04 33.66 45.33 32.34 44.37 C 31.81 42.85 31.26 41.33 30.65 39.84 C 31.37 40.60 32.08 41.38 32.77 42.17 C 34.49 45.83 38.40 44.08 41.20 42.97 C 40.28 41.59 39.26 40.27 38.21 38.98 C 38.52 38.86 39.16 38.62 39.47 38.50 C 40.64 39.45 41.82 40.39 43.00 41.33 C 43.61 39.59 44.32 37.87 44.64 36.05 C 44.53 33.29 41.63 32.09 39.66 30.80 C 39.38 30.58 38.83 30.14 38.55 29.92 Z" />
</g>
<g id="#102319c1">
<path fill="#102319" opacity="0.76" d=" M 0.82 31.28 C 7.02 30.27 13.42 30.79 19.62 31.34 L 20.36 32.21 C 17.74 32.18 15.13 32.41 12.52 32.52 C 8.50 31.97 4.46 32.02 0.42 32.32 L 0.82 31.28 Z" />
</g>
<g id="#fe71d0ff">
<path fill="#fe71d0" opacity="1.00" d=" M 34.54 31.31 C 36.17 30.50 37.13 32.05 37.76 33.29 C 37.44 34.07 36.80 35.65 36.49 36.43 C 35.78 36.58 34.37 36.89 33.67 37.04 C 34.74 37.92 35.81 38.81 36.89 39.70 C 35.51 40.52 34.14 41.34 32.77 42.17 C 32.08 41.38 31.37 40.60 30.65 39.84 C 29.99 38.77 29.31 37.72 28.63 36.66 C 30.04 37.12 31.51 37.40 32.91 37.88 C 32.23 37.21 31.56 36.53 30.89 35.85 C 31.54 33.91 32.07 31.50 34.54 31.31 Z" />
</g>
<g id="#259052ff">
<path fill="#259052" opacity="1.00" d=" M 49.30 30.81 C 49.89 31.57 50.44 32.37 50.94 33.20 C 51.72 35.59 51.93 38.12 52.09 40.62 C 51.38 42.42 50.63 44.21 49.80 45.97 C 49.57 40.90 47.96 35.87 49.30 30.81 Z" />
</g>
<g id="#ac5c1cfc">
<path fill="#ac5c1c" opacity="1.00" d=" M 12.52 32.52 C 15.13 32.41 17.74 32.18 20.36 32.21 L 20.46 32.22 C 22.97 32.91 25.79 33.29 27.55 35.41 L 28.31 36.19 C 28.31 36.96 28.30 38.51 28.30 39.28 C 29.55 41.89 27.93 44.27 26.48 46.35 C 23.53 47.15 20.93 48.91 17.88 49.46 C 16.35 48.57 14.82 47.68 13.35 46.71 L 14.45 46.30 C 15.89 46.71 17.30 47.19 18.73 47.62 C 21.27 47.03 23.82 45.91 25.22 43.60 C 24.46 43.38 22.94 42.95 22.19 42.73 L 22.31 41.07 L 23.94 41.37 C 24.49 41.50 25.60 41.74 26.15 41.86 C 26.45 39.43 26.57 36.92 25.36 34.70 C 24.25 34.39 23.15 34.09 22.04 33.78 C 19.69 33.10 17.27 32.75 14.83 32.65 C 14.25 32.61 13.10 32.55 12.52 32.52 Z" />
</g>
<g id="#263426d7">
<path fill="#263426" opacity="0.84" d=" M 20.46 32.22 C 23.31 31.72 26.15 32.53 28.96 32.93 C 28.85 33.58 28.62 34.87 28.51 35.52 C 28.27 35.49 27.79 35.44 27.55 35.41 C 25.79 33.29 22.97 32.91 20.46 32.22 Z" />
</g>
<g id="#e14c94ff">
<path fill="#e14c94" opacity="1.00" d=" M 39.66 30.80 C 41.63 32.09 44.53 33.29 44.64 36.05 C 44.32 37.87 43.61 39.59 43.00 41.33 C 41.82 40.39 40.64 39.45 39.47 38.50 C 39.16 38.62 38.52 38.86 38.21 38.98 C 39.26 40.27 40.28 41.59 41.20 42.97 C 38.40 44.08 34.49 45.83 32.77 42.17 C 34.14 41.34 35.51 40.52 36.89 39.70 C 35.81 38.81 34.74 37.92 33.67 37.04 C 34.37 36.89 35.78 36.58 36.49 36.43 C 36.80 35.65 37.44 34.07 37.76 33.29 C 38.38 34.52 38.96 35.79 39.53 37.05 C 39.32 34.97 39.29 32.87 39.66 30.80 Z" />
</g>
<g id="#f8f590ff">
<path fill="#f8f590" opacity="1.00" d=" M 12.52 32.52 C 13.10 32.55 14.25 32.61 14.83 32.65 C 17.39 34.06 19.18 36.37 20.68 38.82 C 18.46 38.88 16.88 37.17 15.17 36.04 C 16.24 37.30 18.38 38.07 18.50 39.92 C 18.15 40.08 17.45 40.42 17.10 40.58 C 14.97 40.73 12.82 40.82 10.68 40.85 C 11.45 39.18 12.01 37.42 12.73 35.73 C 13.02 35.36 13.59 34.61 13.87 34.24 L 13.19 33.37 L 12.52 32.52 Z" />
</g>
<g id="#fbe85aff">
<path fill="#fbe85a" opacity="1.00" d=" M 14.83 32.65 C 17.27 32.75 19.69 33.10 22.04 33.78 C 22.22 34.33 22.59 35.42 22.78 35.97 C 22.30 36.95 21.83 37.92 21.36 38.90 L 20.68 38.82 C 19.18 36.37 17.39 34.06 14.83 32.65 Z" />
</g>
<g id="#8c6820dc">
<path fill="#8c6820" opacity="0.86" d=" M 9.76 34.63 C 10.89 34.19 12.04 33.77 13.19 33.37 L 13.87 34.24 C 13.59 34.61 13.02 35.36 12.73 35.73 C 10.25 36.24 9.14 38.57 10.16 40.86 L 10.28 42.10 C 10.31 42.45 10.36 43.13 10.39 43.48 C 11.55 44.67 12.99 45.53 14.45 46.30 L 13.35 46.71 C 11.34 45.94 9.66 44.51 8.06 43.12 C 8.83 41.38 7.14 39.77 7.86 38.07 C 8.41 36.88 9.10 35.76 9.76 34.63 Z" />
</g>
<g id="#fdcb34ff">
<path fill="#fdcb34" opacity="1.00" d=" M 22.04 33.78 C 23.15 34.09 24.25 34.39 25.36 34.70 C 26.57 36.92 26.45 39.43 26.15 41.86 C 25.60 41.74 24.49 41.50 23.94 41.37 C 23.30 40.88 22.67 40.38 22.04 39.86 C 22.24 39.58 22.42 39.28 22.59 38.98 L 21.36 38.90 C 21.83 37.92 22.30 36.95 22.78 35.97 C 22.59 35.42 22.22 34.33 22.04 33.78 Z" />
</g>
<g id="#3421258e">
<path fill="#342125" opacity="0.56" d=" M 28.31 36.19 L 28.63 36.66 C 29.31 37.72 29.99 38.77 30.65 39.84 C 31.26 41.33 31.81 42.85 32.34 44.37 C 31.68 43.90 30.37 42.97 29.71 42.50 L 29.35 42.23 C 29.47 41.54 29.72 40.15 29.84 39.46 L 28.30 39.28 C 28.30 38.51 28.31 36.96 28.31 36.19 Z" />
</g>
<g id="#fde251ff">
<path fill="#fde251" opacity="1.00" d=" M 19.28 38.99 C 20.23 39.21 21.15 39.50 22.04 39.86 C 22.67 40.38 23.30 40.88 23.94 41.37 L 22.31 41.07 L 22.19 42.73 C 20.91 44.26 19.74 45.89 18.73 47.62 C 17.30 47.19 15.89 46.71 14.45 46.30 C 12.99 45.53 11.55 44.67 10.39 43.48 C 13.28 43.21 16.17 42.90 19.03 42.42 C 16.11 42.48 13.17 42.63 10.28 42.10 L 10.16 40.86 L 10.68 40.85 C 12.82 40.82 14.97 40.73 17.10 40.58 C 17.67 40.54 18.80 40.45 19.37 40.41 C 19.35 40.05 19.30 39.34 19.28 38.99 Z" />
</g>
<g id="#80776bea">
<path fill="#80776b" opacity="0.92" d=" M 52.09 40.62 L 52.46 40.05 C 52.67 41.41 53.31 42.62 54.04 43.77 C 54.93 45.20 55.58 46.80 55.46 48.52 L 54.49 49.08 C 54.46 48.25 54.39 46.58 54.35 45.75 C 53.45 45.54 52.55 45.36 51.64 45.21 C 50.71 46.42 49.71 47.58 48.33 48.30 C 48.46 47.69 48.71 46.45 48.84 45.84 L 49.56 46.54 C 49.62 46.39 49.74 46.11 49.80 45.97 C 50.63 44.21 51.38 42.42 52.09 40.62 Z" />
</g>
<g id="#f1a52bff">
<path fill="#f1a52b" opacity="1.00" d=" M 18.73 47.62 C 19.74 45.89 20.91 44.26 22.19 42.73 C 22.94 42.95 24.46 43.38 25.22 43.60 C 23.82 45.91 21.27 47.03 18.73 47.62 Z" />
</g>
<g id="#208e4cff">
<path fill="#208e4c" opacity="1.00" d=" M 29.02 42.05 L 29.71 42.50 C 30.37 42.97 31.68 43.90 32.34 44.37 C 33.66 45.33 35.13 46.04 36.64 46.65 C 35.05 47.27 33.34 47.32 31.65 47.20 C 30.10 46.86 28.54 46.55 26.97 46.26 C 27.64 44.86 28.33 43.45 29.02 42.05 Z" />
</g>
<g id="#293529be">
<path fill="#293529" opacity="0.75" d=" M 54.04 43.77 C 55.74 44.86 56.38 46.81 57.14 48.56 C 56.72 48.55 55.88 48.53 55.46 48.52 C 55.58 46.80 54.93 45.20 54.04 43.77 Z" />
</g>
<g id="#207c45fc">
<path fill="#207c45" opacity="1.00" d=" M 44.64 46.78 C 44.37 44.19 47.58 44.63 48.84 45.84 C 48.71 46.45 48.46 47.69 48.33 48.30 C 48.18 48.42 47.88 48.65 47.74 48.77 C 46.52 48.57 45.19 47.94 44.64 46.78 Z" />
</g>
<g id="#164729dd">
<path fill="#164729" opacity="0.87" d=" M 36.64 46.65 C 36.91 46.59 37.46 46.49 37.73 46.44 C 40.38 47.45 43.33 47.90 45.59 49.73 C 45.07 50.28 44.04 51.38 43.52 51.93 C 43.57 52.40 43.69 53.35 43.75 53.83 C 40.33 52.19 36.48 52.55 32.90 51.57 C 31.14 50.99 29.38 51.89 27.67 52.17 C 31.94 47.74 38.13 53.86 43.00 51.00 C 42.86 50.65 42.58 49.96 42.43 49.61 C 37.41 48.00 32.09 48.91 27.00 49.67 C 23.25 50.23 19.67 51.69 16.61 53.93 C 18.80 54.00 20.99 54.03 23.18 53.97 C 19.95 55.46 16.25 55.36 12.83 54.75 C 12.98 54.45 13.28 53.86 13.43 53.57 C 19.08 50.34 25.10 47.77 31.65 47.20 C 33.34 47.32 35.05 47.27 36.64 46.65 Z" />
</g>
<g id="#259453ff">
<path fill="#259453" opacity="1.00" d=" M 27.00 49.67 C 32.09 48.91 37.41 48.00 42.43 49.61 C 42.58 49.96 42.86 50.65 43.00 51.00 C 38.13 53.86 31.94 47.74 27.67 52.17 C 26.34 53.12 24.74 53.56 23.18 53.97 C 20.99 54.03 18.80 54.00 16.61 53.93 C 19.67 51.69 23.25 50.23 27.00 49.67 Z" />
</g>
<g id="#327c56fe">
<path fill="#327c56" opacity="1.00" d=" M 54.49 49.08 L 55.46 48.52 C 55.88 48.53 56.72 48.55 57.14 48.56 C 58.47 50.59 60.15 52.34 61.81 54.10 C 60.43 56.52 58.42 54.97 56.69 53.95 C 55.85 52.46 54.99 50.98 54.13 49.51 L 54.49 49.08 Z" />
</g>
<g id="#ac9c95ff">
<path fill="#ac9c95" opacity="1.00" d=" M 45.59 49.73 C 45.93 49.77 46.60 49.87 46.94 49.91 L 46.80 50.43 C 46.22 51.33 45.63 52.23 45.05 53.13 C 46.32 53.62 47.59 54.12 48.88 54.57 C 47.90 54.91 46.92 55.25 45.95 55.58 C 45.40 55.15 44.30 54.27 43.75 53.83 C 43.69 53.35 43.57 52.40 43.52 51.93 C 44.04 51.38 45.07 50.28 45.59 49.73 Z" />
</g>
<g id="#386a4dfb">
<path fill="#386a4d" opacity="1.00" d=" M 49.38 54.40 C 51.19 53.00 52.70 51.28 54.13 49.51 C 54.99 50.98 55.85 52.46 56.69 53.95 L 57.22 54.89 C 55.80 54.08 54.34 53.34 52.86 52.64 C 53.12 53.67 53.35 54.71 53.56 55.74 C 53.36 56.07 52.94 56.72 52.74 57.05 C 51.63 56.15 50.50 55.29 49.38 54.40 Z" />
</g>
<g id="#2f8257ff">
<path fill="#2f8257" opacity="1.00" d=" M 52.86 52.64 C 54.34 53.34 55.80 54.08 57.22 54.89 C 58.29 56.57 59.40 58.24 60.03 60.15 C 57.62 59.08 55.59 57.39 53.56 55.74 C 53.35 54.71 53.12 53.67 52.86 52.64 Z" />
</g>
<g id="#387a57fe">
<path fill="#387a57" opacity="1.00" d=" M 48.88 54.57 L 49.38 54.40 C 50.50 55.29 51.63 56.15 52.74 57.05 C 54.16 58.12 55.44 59.46 55.60 61.34 C 54.00 60.65 52.41 59.91 50.89 59.07 C 49.21 57.95 47.63 56.70 45.95 55.58 C 46.92 55.25 47.90 54.91 48.88 54.57 Z" />
</g>
<g id="#133724c2">
<path fill="#133724" opacity="0.76" d=" M 56.69 53.95 C 58.42 54.97 60.43 56.52 61.81 54.10 C 62.13 54.37 62.79 54.89 63.12 55.16 C 62.08 55.86 61.04 56.56 60.00 57.26 C 60.55 58.00 61.08 58.74 61.61 59.49 C 60.93 60.19 60.25 60.89 59.58 61.59 C 58.77 61.06 57.96 60.54 57.15 60.02 C 56.47 61.08 55.79 62.14 55.11 63.21 C 53.57 61.97 52.09 60.64 50.89 59.07 C 52.41 59.91 54.00 60.65 55.60 61.34 C 55.44 59.46 54.16 58.12 52.74 57.05 C 52.94 56.72 53.36 56.07 53.56 55.74 C 55.59 57.39 57.62 59.08 60.03 60.15 C 59.40 58.24 58.29 56.57 57.22 54.89 L 56.69 53.95 Z" />
</g>
</svg>
