<?xml version="1.0" encoding="UTF-8" ?>
<!DOCTYPE svg PUBLIC "-//W3C//DTD SVG 1.1//EN" "http://www.w3.org/Graphics/SVG/1.1/DTD/svg11.dtd">
<svg width="64pt" height="64pt" viewBox="0 0 64 64" version="1.1" xmlns="http://www.w3.org/2000/svg">
<g id="#62100793">
<path fill="#621007" opacity="0.58" d=" M 0.51 13.91 C 2.71 7.82 9.65 3.33 16.17 4.63 C 11.03 6.70 6.40 9.95 3.13 14.46 C 2.47 14.32 1.16 14.05 0.51 13.91 Z" />
<path fill="#621007" opacity="0.58" d=" M 47.53 4.96 C 54.09 2.90 61.25 7.83 63.50 13.91 C 60.45 15.82 59.34 12.21 57.47 10.58 C 55.40 8.55 52.80 7.19 50.39 5.63 C 49.67 5.46 48.24 5.13 47.53 4.96 Z" />
</g>
<g id="#460b056a">
<path fill="#460b05" opacity="0.42" d=" M 6.35 14.52 C 8.46 11.50 12.11 9.41 15.86 10.52 C 13.02 12.53 10.20 14.60 7.98 17.32 C 6.25 17.53 4.76 15.86 6.35 14.52 Z" />
<path fill="#460b05" opacity="0.42" d=" M 48.19 10.52 C 51.93 9.41 55.57 11.53 57.66 14.54 C 59.23 15.88 57.74 17.52 56.03 17.32 C 53.84 14.58 50.99 12.57 48.19 10.52 Z" />
</g>
<g id="#22050233">
<path fill="#220502" opacity="0.20" d=" M 9.98 18.79 C 11.63 16.43 14.17 14.83 17.14 15.17 C 15.84 17.75 12.98 21.84 9.98 18.79 Z" />
</g>
<g id="#25060238">
<path fill="#250602" opacity="0.22" d=" M 47.36 14.90 C 50.04 15.25 52.52 16.48 53.90 18.88 C 53.20 19.22 51.79 19.90 51.08 20.24 C 49.65 18.63 47.39 17.30 47.36 14.90 Z" />
</g>
<g id="#c22378ff">
<path fill="#c22378" opacity="1.00" d=" M 11.38 28.31 C 12.12 23.03 17.43 18.58 22.84 19.50 C 26.78 20.16 29.63 23.27 31.98 26.27 C 34.49 23.09 37.64 19.59 42.00 19.42 C 46.82 19.02 51.24 22.84 52.40 27.38 C 53.13 30.93 52.51 34.72 50.79 37.90 C 50.75 36.60 50.73 35.29 50.71 33.99 C 50.72 32.81 50.73 31.63 50.74 30.45 C 50.80 28.39 50.19 26.39 49.07 24.68 C 45.52 20.35 38.40 20.75 35.32 25.38 C 34.09 26.49 33.29 28.82 31.27 28.24 C 30.39 27.38 29.61 26.42 28.79 25.50 C 26.77 22.81 23.41 21.11 20.02 21.78 C 16.68 22.28 14.32 25.13 13.30 28.19 C 13.29 28.77 13.26 29.93 13.25 30.51 C 13.26 31.67 13.28 32.83 13.31 33.99 C 13.31 35.30 13.29 36.61 13.25 37.92 C 11.55 35.04 11.01 31.61 11.38 28.31 Z" />
</g>
<g id="#efc8ddff">
<path fill="#efc8dd" opacity="1.00" d=" M 13.30 28.19 C 14.32 25.13 16.68 22.28 20.02 21.78 C 23.41 21.11 26.77 22.81 28.79 25.50 C 25.74 24.93 22.61 24.06 19.49 24.58 C 17.16 25.25 15.24 26.81 13.30 28.19 Z" />
</g>
<g id="#efcadeff">
<path fill="#efcade" opacity="1.00" d=" M 35.32 25.38 C 38.40 20.75 45.52 20.35 49.07 24.68 C 44.47 24.45 39.82 24.24 35.32 25.38 Z" />
</g>
<g id="#fca3d3ff">
<path fill="#fca3d3" opacity="1.00" d=" M 19.49 24.58 C 22.61 24.06 25.74 24.93 28.79 25.50 C 29.61 26.42 30.39 27.38 31.27 28.24 C 33.29 28.82 34.09 26.49 35.32 25.38 C 39.82 24.24 44.47 24.45 49.07 24.68 C 50.19 26.39 50.80 28.39 50.74 30.45 C 38.24 30.65 25.75 30.55 13.25 30.51 C 13.26 29.93 13.29 28.77 13.30 28.19 C 15.24 26.81 17.16 25.25 19.49 24.58 Z" />
</g>
<g id="#ff75c1ff">
<path fill="#ff75c1" opacity="1.00" d=" M 13.25 30.51 C 25.75 30.55 38.24 30.65 50.74 30.45 C 50.73 31.63 50.72 32.81 50.71 33.99 C 49.08 35.30 47.45 36.64 45.57 37.59 C 42.21 38.05 38.86 38.61 35.51 39.11 C 29.77 39.98 24.12 38.19 18.45 37.59 C 16.57 36.66 14.94 35.31 13.31 33.99 C 13.28 32.83 13.26 31.67 13.25 30.51 Z" />
</g>
<g id="#dd2f92ff">
<path fill="#dd2f92" opacity="1.00" d=" M 13.25 37.92 C 13.29 36.61 13.31 35.30 13.31 33.99 C 14.94 35.31 16.57 36.66 18.45 37.59 C 20.24 44.18 24.01 50.39 29.82 54.14 C 33.53 56.00 36.69 52.41 38.98 49.96 C 42.37 46.58 44.19 42.08 45.57 37.59 C 47.45 36.64 49.08 35.30 50.71 33.99 C 50.73 35.29 50.75 36.60 50.79 37.90 C 46.64 47.00 38.54 53.52 32.00 60.87 C 26.62 55.28 21.07 49.80 16.39 43.59 C 15.21 41.80 13.72 40.06 13.25 37.92 Z" />
</g>
<g id="#fe46b8ff">
<path fill="#fe46b8" opacity="1.00" d=" M 18.45 37.59 C 24.12 38.19 29.77 39.98 35.51 39.11 C 38.86 38.61 42.21 38.05 45.57 37.59 C 44.19 42.08 42.37 46.58 38.98 49.96 C 36.69 52.41 33.53 56.00 29.82 54.14 C 24.01 50.39 20.24 44.18 18.45 37.59 Z" />
</g>
</svg>
