<?xml version="1.0" encoding="UTF-8" ?>
<!DOCTYPE svg PUBLIC "-//W3C//DTD SVG 1.1//EN" "http://www.w3.org/Graphics/SVG/1.1/DTD/svg11.dtd">
<svg width="64pt" height="64pt" viewBox="0 0 64 64" version="1.1" xmlns="http://www.w3.org/2000/svg">
<g id="#3abbfaff">
<path fill="#3abbfa" opacity="1.00" d=" M 0.99 4.00 C 4.96 4.01 8.93 3.98 12.90 4.02 C 12.37 4.47 11.30 5.37 10.76 5.82 L 9.81 5.77 C 6.89 5.87 3.99 6.46 1.05 6.24 C 1.03 5.68 1.01 4.56 0.99 4.00 Z" />
</g>
<g id="#266ff5ff">
<path fill="#266ff5" opacity="1.00" d=" M 1.05 6.24 C 3.99 6.46 6.89 5.87 9.81 5.77 C 9.42 6.35 8.63 7.51 8.23 8.10 C 9.47 9.60 11.01 10.82 12.22 12.34 C 11.27 13.07 10.34 13.83 9.43 14.61 L 8.54 14.70 C 7.44 13.45 6.27 12.28 5.08 11.12 C 3.60 12.54 2.09 13.95 1.39 15.93 C 1.04 12.71 0.97 9.47 1.05 6.24 Z" />
</g>
<g id="#b8186bff">
<path fill="#b8186b" opacity="1.00" d=" M 12.22 12.34 C 14.82 10.12 18.49 9.82 21.74 10.38 C 26.23 11.26 29.47 14.90 32.00 18.46 C 34.78 14.44 38.70 10.35 43.92 10.18 C 50.00 9.38 55.65 14.17 56.92 19.95 C 58.09 25.50 56.13 31.19 53.38 35.98 C 52.61 35.81 51.84 35.65 51.07 35.52 C 51.68 35.17 52.89 34.49 53.50 34.15 C 53.56 32.75 53.61 31.36 53.65 29.96 C 53.95 29.12 54.24 28.27 54.54 27.43 C 55.04 25.95 55.45 24.43 55.32 22.85 C 55.21 22.46 55.00 21.68 54.89 21.29 C 54.15 16.92 50.44 13.08 45.96 12.62 C 41.61 11.97 37.45 14.66 35.15 18.21 C 34.25 19.20 33.62 20.91 32.01 20.67 C 30.40 20.88 29.81 19.09 28.87 18.15 C 28.60 17.82 28.06 17.17 27.79 16.85 C 24.94 13.26 19.60 11.45 15.33 13.47 C 13.09 14.34 11.54 16.32 10.11 18.15 C 9.44 19.65 8.99 21.24 8.67 22.86 C 8.55 24.41 8.97 25.89 9.40 27.36 C 9.47 27.76 9.60 28.56 9.67 28.96 C 10.12 31.81 11.09 34.55 11.61 37.38 C 7.05 30.91 4.54 21.60 9.43 14.61 C 10.34 13.83 11.27 13.07 12.22 12.34 Z" />
<path fill="#b8186b" opacity="1.00" d=" M 30.92 33.94 C 31.39 34.09 32.32 34.39 32.79 34.55 C 33.99 35.46 35.09 36.48 36.08 37.62 C 33.63 40.84 31.45 36.00 30.92 33.94 Z" />
</g>
<g id="#f3cee1ff">
<path fill="#f3cee1" opacity="1.00" d=" M 15.33 13.47 C 19.60 11.45 24.94 13.26 27.79 16.85 C 24.12 16.39 20.43 14.51 16.71 15.71 C 14.71 16.12 13.25 17.63 11.73 18.86 C 11.32 18.69 10.52 18.33 10.11 18.15 C 11.54 16.32 13.09 14.34 15.33 13.47 Z" />
</g>
<g id="#f7c2ddff">
<path fill="#f7c2dd" opacity="1.00" d=" M 35.15 18.21 C 37.45 14.66 41.61 11.97 45.96 12.62 C 50.44 13.08 54.15 16.92 54.89 21.29 C 53.44 20.02 52.04 18.66 50.41 17.60 C 45.37 16.60 40.17 17.35 35.15 18.21 Z" />
</g>
<g id="#fdb0d9ff">
<path fill="#fdb0d9" opacity="1.00" d=" M 16.71 15.71 C 20.43 14.51 24.12 16.39 27.79 16.85 C 28.06 17.17 28.60 17.82 28.87 18.15 C 23.29 19.72 17.43 18.90 11.73 18.86 C 13.25 17.63 14.71 16.12 16.71 15.71 Z" />
</g>
<g id="#ff9fd3ff">
<path fill="#ff9fd3" opacity="1.00" d=" M 35.15 18.21 C 40.17 17.35 45.37 16.60 50.41 17.60 C 52.04 18.66 53.44 20.02 54.89 21.29 C 55.00 21.68 55.21 22.46 55.32 22.85 C 39.77 23.17 24.22 22.64 8.67 22.86 C 8.99 21.24 9.44 19.65 10.11 18.15 C 10.52 18.33 11.32 18.69 11.73 18.86 C 17.43 18.90 23.29 19.72 28.87 18.15 C 29.81 19.09 30.40 20.88 32.01 20.67 C 33.62 20.91 34.25 19.20 35.15 18.21 Z" />
</g>
<g id="#ff7fcaff">
<path fill="#ff7fca" opacity="1.00" d=" M 8.67 22.86 C 24.22 22.64 39.77 23.17 55.32 22.85 C 55.45 24.43 55.04 25.95 54.54 27.43 C 49.57 27.64 44.54 29.00 39.66 27.43 C 34.81 25.77 29.89 27.61 25.02 28.12 C 19.80 28.74 14.61 27.60 9.40 27.36 C 8.97 25.89 8.55 24.41 8.67 22.86 Z" />
</g>
<g id="#ff5bbcff">
<path fill="#ff5bbc" opacity="1.00" d=" M 9.40 27.36 C 14.61 27.60 19.80 28.74 25.02 28.12 C 29.89 27.61 34.81 25.77 39.66 27.43 C 44.54 29.00 49.57 27.64 54.54 27.43 C 54.24 28.27 53.95 29.12 53.65 29.96 C 50.93 31.15 48.23 32.44 45.35 33.21 C 42.99 33.64 40.57 33.42 38.21 33.83 C 37.66 33.24 37.12 32.65 36.58 32.06 L 36.52 30.39 C 35.59 30.42 33.73 30.47 32.80 30.50 C 32.44 31.15 31.71 32.44 31.35 33.09 C 31.71 33.45 32.43 34.18 32.79 34.55 C 32.32 34.39 31.39 34.09 30.92 33.94 C 25.40 34.88 20.10 32.79 14.68 32.09 C 12.95 31.14 11.31 30.05 9.67 28.96 C 9.60 28.56 9.47 27.76 9.40 27.36 Z" />
</g>
<g id="#eb2a99ff">
<path fill="#eb2a99" opacity="1.00" d=" M 9.67 28.96 C 11.31 30.05 12.95 31.14 14.68 32.09 C 17.29 37.18 18.30 43.28 22.76 47.23 C 25.81 50.05 28.78 54.89 33.63 53.57 C 37.48 52.91 37.98 48.69 38.64 45.59 L 38.90 46.66 C 38.99 47.05 39.18 47.82 39.28 48.21 C 39.38 49.75 40.30 51.07 40.40 52.63 L 39.38 52.51 C 37.21 55.42 34.32 57.71 32.00 60.49 C 25.07 52.93 17.33 45.97 11.61 37.38 C 11.09 34.55 10.12 31.81 9.67 28.96 Z" />
</g>
<g id="#f12ea0ff">
<path fill="#f12ea0" opacity="1.00" d=" M 45.35 33.21 C 48.23 32.44 50.93 31.15 53.65 29.96 C 53.61 31.36 53.56 32.75 53.50 34.15 C 52.89 34.49 51.68 35.17 51.07 35.52 C 47.57 34.95 43.91 35.18 40.55 36.34 C 39.76 35.51 38.98 34.67 38.21 33.83 C 40.57 33.42 42.99 33.64 45.35 33.21 Z" />
</g>
<g id="#3b3f82ff">
<path fill="#3b3f82" opacity="1.00" d=" M 32.80 30.50 C 33.73 30.47 35.59 30.42 36.52 30.39 L 36.58 32.06 C 35.90 32.24 34.55 32.61 33.87 32.79 C 34.83 33.83 35.83 34.85 36.87 35.80 C 37.70 37.04 38.49 38.31 39.28 39.57 C 38.82 41.91 38.78 44.29 38.90 46.66 L 38.64 45.59 C 38.15 43.54 37.52 41.52 37.48 39.40 C 37.02 38.80 36.56 38.20 36.08 37.62 C 35.09 36.48 33.99 35.46 32.79 34.55 C 32.43 34.18 31.71 33.45 31.35 33.09 C 31.71 32.44 32.44 31.15 32.80 30.50 Z" />
</g>
<g id="#ff32baff">
<path fill="#ff32ba" opacity="1.00" d=" M 14.68 32.09 C 20.10 32.79 25.40 34.88 30.92 33.94 C 31.45 36.00 33.63 40.84 36.08 37.62 C 36.56 38.20 37.02 38.80 37.48 39.40 C 37.52 41.52 38.15 43.54 38.64 45.59 C 37.98 48.69 37.48 52.91 33.63 53.57 C 28.78 54.89 25.81 50.05 22.76 47.23 C 18.30 43.28 17.29 37.18 14.68 32.09 Z" />
</g>
<g id="#50a6fdff">
<path fill="#50a6fd" opacity="1.00" d=" M 33.87 32.79 C 34.55 32.61 35.90 32.24 36.58 32.06 C 37.12 32.65 37.66 33.24 38.21 33.83 C 38.98 34.67 39.76 35.51 40.55 36.34 C 41.15 36.98 41.77 37.61 42.40 38.24 C 45.90 41.35 51.47 36.77 55.32 39.61 C 57.15 41.80 59.34 44.04 59.86 46.96 C 57.37 45.24 54.35 45.34 51.47 45.46 C 51.59 46.48 51.72 47.50 51.86 48.52 C 46.58 44.62 42.11 39.74 36.87 35.80 C 35.83 34.85 34.83 33.83 33.87 32.79 M 45.33 41.37 C 46.48 42.23 47.63 43.11 48.95 43.68 C 50.56 42.64 53.12 42.32 53.82 40.34 C 51.01 40.41 47.80 39.70 45.33 41.37 Z" />
</g>
<g id="#015cd5ff">
<path fill="#015cd5" opacity="1.00" d=" M 40.55 36.34 C 43.91 35.18 47.57 34.95 51.07 35.52 C 51.84 35.65 52.61 35.81 53.38 35.98 C 56.59 36.77 59.97 38.20 61.74 41.16 C 59.14 40.11 56.68 38.70 54.01 37.82 C 50.17 37.20 46.18 37.26 42.40 38.24 C 41.77 37.61 41.15 36.98 40.55 36.34 Z" />
</g>
<g id="#205eaffe">
<path fill="#205eaf" opacity="1.00" d=" M 36.87 35.80 C 42.11 39.74 46.58 44.62 51.86 48.52 C 52.40 48.92 52.93 49.34 53.44 49.78 C 54.56 50.97 55.90 51.90 57.33 52.69 C 57.10 53.13 56.64 54.03 56.40 54.48 C 55.72 53.98 54.34 52.98 53.66 52.49 C 51.78 50.80 49.93 49.08 47.93 47.55 C 47.36 47.08 46.80 46.60 46.24 46.11 C 44.95 44.93 43.69 43.73 42.31 42.65 C 41.57 42.07 40.84 41.48 40.12 40.88 C 39.91 40.55 39.49 39.90 39.28 39.57 C 38.49 38.31 37.70 37.04 36.87 35.80 Z" />
</g>
<g id="#01a0fcff">
<path fill="#01a0fc" opacity="1.00" d=" M 42.40 38.24 C 46.18 37.26 50.17 37.20 54.01 37.82 C 56.68 38.70 59.14 40.11 61.74 41.16 C 63.62 43.29 62.89 46.26 62.93 48.84 C 61.32 50.48 59.02 51.15 57.33 52.69 C 55.90 51.90 54.56 50.97 53.44 49.78 C 55.88 49.67 57.89 48.24 59.86 46.96 C 59.34 44.04 57.15 41.80 55.32 39.61 C 51.47 36.77 45.90 41.35 42.40 38.24 Z" />
</g>
<g id="#0465d8fe">
<path fill="#0465d8" opacity="1.00" d=" M 39.28 39.57 C 39.49 39.90 39.91 40.55 40.12 40.88 C 40.18 43.36 40.02 45.84 39.68 48.30 L 39.28 48.21 C 39.18 47.82 38.99 47.05 38.90 46.66 C 38.78 44.29 38.82 41.91 39.28 39.57 Z" />
</g>
<g id="#8dc8feff">
<path fill="#8dc8fe" opacity="1.00" d=" M 45.33 41.37 C 47.80 39.70 51.01 40.41 53.82 40.34 C 53.12 42.32 50.56 42.64 48.95 43.68 C 47.63 43.11 46.48 42.23 45.33 41.37 Z" />
</g>
<g id="#0297f5fd">
<path fill="#0297f5" opacity="1.00" d=" M 40.12 40.88 C 40.84 41.48 41.57 42.07 42.31 42.65 C 42.37 45.05 42.47 47.44 42.51 49.84 C 42.27 50.77 41.79 52.63 41.55 53.56 C 40.38 52.02 41.21 49.68 39.68 48.30 C 40.02 45.84 40.18 43.36 40.12 40.88 Z" />
</g>
<g id="#7ccffeff">
<path fill="#7ccffe" opacity="1.00" d=" M 42.31 42.65 C 43.69 43.73 44.95 44.93 46.24 46.11 C 45.21 47.61 44.16 49.10 43.11 50.58 L 42.51 49.84 C 42.47 47.44 42.37 45.05 42.31 42.65 Z" />
</g>
<g id="#85d3ffff">
<path fill="#85d3ff" opacity="1.00" d=" M 51.47 45.46 C 54.35 45.34 57.37 45.24 59.86 46.96 C 57.89 48.24 55.88 49.67 53.44 49.78 C 52.93 49.34 52.40 48.92 51.86 48.52 C 51.72 47.50 51.59 46.48 51.47 45.46 Z" />
</g>
<g id="#4db9feff">
<path fill="#4db9fe" opacity="1.00" d=" M 46.24 46.11 C 46.80 46.60 47.36 47.08 47.93 47.55 C 47.78 50.06 47.76 52.58 47.87 55.10 C 46.28 53.60 44.58 52.20 43.11 50.58 C 44.16 49.10 45.21 47.61 46.24 46.11 Z" />
</g>
<g id="#76dffeff">
<path fill="#76dffe" opacity="1.00" d=" M 47.93 47.55 C 49.93 49.08 51.78 50.80 53.66 52.49 C 52.45 54.00 51.32 55.56 50.07 57.04 C 49.32 56.40 48.59 55.76 47.87 55.10 C 47.76 52.58 47.78 50.06 47.93 47.55 Z" />
</g>
<g id="#00bffdff">
<path fill="#00bffd" opacity="1.00" d=" M 42.51 49.84 L 43.11 50.58 C 44.58 52.20 46.28 53.60 47.87 55.10 C 48.59 55.76 49.32 56.40 50.07 57.04 C 51.32 55.56 52.45 54.00 53.66 52.49 C 54.34 52.98 55.72 53.98 56.40 54.48 C 56.68 56.06 55.62 57.58 54.98 58.98 C 49.98 62.73 43.65 58.52 41.55 53.56 C 41.79 52.63 42.27 50.77 42.51 49.84 Z" />
</g>
</svg>
