<?xml version="1.0" encoding="UTF-8" ?>
<!DOCTYPE svg PUBLIC "-//W3C//DTD SVG 1.1//EN" "http://www.w3.org/Graphics/SVG/1.1/DTD/svg11.dtd">
<svg width="64pt" height="64pt" viewBox="0 0 64 64" version="1.1" xmlns="http://www.w3.org/2000/svg">
<g id="#0051a0d1">
<path fill="#0051a0" opacity="0.82" d=" M 42.46 8.73 C 46.35 7.96 50.47 9.06 53.48 11.62 C 57.91 14.99 58.77 22.01 55.56 26.48 C 54.35 27.56 53.00 28.49 51.52 29.17 C 53.66 26.83 56.72 24.55 56.67 21.04 C 57.28 15.98 53.23 11.48 48.62 10.03 C 44.83 8.64 40.88 10.18 37.05 10.49 C 32.57 11.32 27.89 11.05 23.58 12.67 C 25.16 16.38 29.30 17.85 31.30 21.26 C 28.08 18.96 25.20 16.22 22.12 13.73 C 21.49 13.20 20.91 11.57 22.21 11.45 C 28.91 10.29 35.76 9.96 42.46 8.73 Z" />
</g>
<g id="#18a8ecff">
<path fill="#18a8ec" opacity="1.00" d=" M 37.05 10.49 C 40.88 10.18 44.83 8.64 48.62 10.03 C 53.23 11.48 57.28 15.98 56.67 21.04 C 56.72 24.55 53.66 26.83 51.52 29.17 C 51.31 29.26 50.88 29.43 50.67 29.51 C 47.58 29.53 44.23 29.99 41.49 28.20 C 45.32 28.37 49.87 28.80 52.81 25.81 C 55.20 23.75 55.03 20.30 54.37 17.52 C 52.28 13.16 46.87 10.75 42.22 11.99 C 37.58 12.49 32.93 12.89 28.31 13.58 C 28.23 16.78 32.30 17.77 34.10 19.90 C 34.09 20.48 34.09 21.64 34.08 22.22 C 33.49 22.07 32.31 21.76 31.72 21.60 C 31.61 21.51 31.41 21.34 31.30 21.26 C 29.30 17.85 25.16 16.38 23.58 12.67 C 27.89 11.05 32.57 11.32 37.05 10.49 Z" />
</g>
<g id="#66cafdff">
<path fill="#66cafd" opacity="1.00" d=" M 42.22 11.99 C 46.87 10.75 52.28 13.16 54.37 17.52 C 55.03 20.30 55.20 23.75 52.81 25.81 C 49.87 28.80 45.32 28.37 41.49 28.20 C 38.57 26.84 36.28 24.52 34.08 22.22 C 34.09 21.64 34.09 20.48 34.10 19.90 C 36.02 21.41 37.85 23.06 39.92 24.36 C 43.81 24.99 48.11 21.09 47.17 17.01 C 46.89 14.37 44.10 13.33 42.22 11.99 Z" />
</g>
<g id="#dbf2ffff">
<path fill="#dbf2ff" opacity="1.00" d=" M 28.31 13.58 C 32.93 12.89 37.58 12.49 42.22 11.99 C 44.10 13.33 46.89 14.37 47.17 17.01 C 48.11 21.09 43.81 24.99 39.92 24.36 C 37.85 23.06 36.02 21.41 34.10 19.90 C 32.30 17.77 28.23 16.78 28.31 13.58 Z" />
</g>
<g id="#0003082f">
<path fill="#000308" opacity="0.18" d=" M 22.12 13.73 C 25.20 16.22 28.08 18.96 31.30 21.26 C 31.41 21.34 31.61 21.51 31.72 21.60 C 34.66 24.22 37.18 27.49 40.81 29.20 C 43.89 30.59 47.53 30.86 50.67 29.51 C 50.88 29.43 51.31 29.26 51.52 29.17 C 53.00 28.49 54.35 27.56 55.56 26.48 C 56.46 28.87 54.22 30.36 52.57 31.59 C 47.85 34.41 41.37 33.41 37.41 29.68 C 32.62 25.06 27.42 20.90 22.37 16.57 C 22.31 15.86 22.18 14.44 22.12 13.73 Z" />
</g>
<g id="#0051a1d7">
<path fill="#0051a1" opacity="0.84" d=" M 7.17 18.71 C 9.37 18.73 10.52 20.94 11.94 22.28 C 10.53 21.61 9.05 21.27 7.49 21.28 C 7.22 24.65 6.96 28.05 7.57 31.41 C 7.58 31.47 7.59 31.59 7.60 31.66 C 6.72 36.48 6.24 41.46 7.06 46.33 C 5.48 43.80 6.01 40.69 6.18 37.88 C 6.73 31.50 6.57 25.08 7.17 18.71 Z" />
</g>
<g id="#0e8fdafc">
<path fill="#0e8fda" opacity="1.00" d=" M 7.49 21.28 C 9.05 21.27 10.53 21.61 11.94 22.28 C 15.90 26.23 19.75 30.30 23.99 33.94 C 25.40 35.20 26.16 36.99 27.09 38.60 C 27.33 41.62 27.33 44.66 27.16 47.68 C 25.98 49.92 24.43 52.06 22.13 53.25 C 18.56 54.39 14.91 53.66 11.56 52.21 C 10.00 51.03 8.75 49.51 7.53 47.99 C 7.42 47.58 7.18 46.75 7.06 46.33 C 6.24 41.46 6.72 36.48 7.60 31.66 C 8.98 33.62 7.79 35.91 7.69 38.03 C 6.43 44.15 10.53 51.43 16.98 52.36 C 21.48 52.79 26.08 48.68 25.63 44.05 C 26.34 38.14 21.44 33.68 16.84 30.92 C 15.44 29.66 14.18 28.26 12.89 26.89 C 11.93 25.91 10.89 25.02 9.84 24.14 C 9.11 26.56 9.27 29.39 7.57 31.41 C 6.96 28.05 7.22 24.65 7.49 21.28 Z" />
</g>
<g id="#0962a5d8">
<path fill="#0962a5" opacity="0.85" d=" M 31.72 21.60 C 32.31 21.76 33.49 22.07 34.08 22.22 C 36.28 24.52 38.57 26.84 41.49 28.20 C 44.23 29.99 47.58 29.53 50.67 29.51 C 47.53 30.86 43.89 30.59 40.81 29.20 C 37.18 27.49 34.66 24.22 31.72 21.60 Z" />
</g>
<g id="#6bccfeff">
<path fill="#6bccfe" opacity="1.00" d=" M 7.57 31.41 C 9.27 29.39 9.11 26.56 9.84 24.14 C 10.89 25.02 11.93 25.91 12.89 26.89 C 11.96 26.38 11.00 25.97 10.00 25.63 C 10.03 30.82 9.09 35.98 9.54 41.17 C 10.24 41.91 10.94 42.66 11.63 43.42 C 14.58 43.64 18.49 44.41 20.05 41.11 C 22.43 37.40 19.33 33.56 16.84 30.92 C 21.44 33.68 26.34 38.14 25.63 44.05 C 26.08 48.68 21.48 52.79 16.98 52.36 C 10.53 51.43 6.43 44.15 7.69 38.03 C 7.79 35.91 8.98 33.62 7.60 31.66 C 7.59 31.59 7.58 31.47 7.57 31.41 Z" />
</g>
<g id="#d5f0ffff">
<path fill="#d5f0ff" opacity="1.00" d=" M 10.00 25.63 C 11.00 25.97 11.96 26.38 12.89 26.89 C 14.18 28.26 15.44 29.66 16.84 30.92 C 19.33 33.56 22.43 37.40 20.05 41.11 C 18.49 44.41 14.58 43.64 11.63 43.42 C 10.94 42.66 10.24 41.91 9.54 41.17 C 9.09 35.98 10.03 30.82 10.00 25.63 Z" />
</g>
<g id="#002b679f">
<path fill="#002b67" opacity="0.62" d=" M 35.30 36.30 C 37.12 35.01 40.17 36.94 40.68 38.74 C 39.41 38.75 38.32 38.04 37.19 37.58 C 36.18 41.43 38.16 45.25 38.03 49.14 C 37.04 44.87 35.87 40.65 35.30 36.30 Z" />
</g>
<g id="#0674c2ef">
<path fill="#0674c2" opacity="0.94" d=" M 37.19 37.58 C 38.32 38.04 39.41 38.75 40.68 38.74 C 42.40 38.81 43.62 40.17 45.03 40.97 C 48.12 43.08 52.33 44.17 53.84 47.97 C 55.72 50.56 55.24 54.05 53.64 56.65 C 49.83 62.31 40.92 59.57 38.86 53.71 C 38.42 52.22 38.15 50.68 38.03 49.14 C 38.16 45.25 36.18 41.43 37.19 37.58 M 38.77 39.59 C 38.80 40.27 38.85 41.63 38.87 42.31 C 39.10 46.69 38.92 51.58 41.62 55.32 C 43.77 57.95 47.41 58.19 50.49 57.39 C 54.84 54.39 53.01 46.12 47.83 45.10 C 45.02 42.99 41.81 41.38 38.77 39.59 Z" />
</g>
<g id="#004695d1">
<path fill="#004695" opacity="0.82" d=" M 27.09 38.60 C 28.44 41.07 28.41 44.17 27.64 46.80 L 27.16 47.68 C 27.33 44.66 27.33 41.62 27.09 38.60 Z" />
</g>
<g id="#cfeefeff">
<path fill="#cfeefe" opacity="1.00" d=" M 38.77 39.59 C 41.81 41.38 45.02 42.99 47.83 45.10 C 48.69 46.77 50.14 48.88 48.59 50.63 C 47.25 53.25 44.19 52.62 41.80 52.35 C 39.98 49.25 40.58 45.45 38.87 42.31 C 38.85 41.63 38.80 40.27 38.77 39.59 Z" />
</g>
<g id="#68ccfeff">
<path fill="#68ccfe" opacity="1.00" d=" M 38.87 42.31 C 40.58 45.45 39.98 49.25 41.80 52.35 C 44.19 52.62 47.25 53.25 48.59 50.63 C 50.14 48.88 48.69 46.77 47.83 45.10 C 53.01 46.12 54.84 54.39 50.49 57.39 C 47.41 58.19 43.77 57.95 41.62 55.32 C 38.92 51.58 39.10 46.69 38.87 42.31 Z" />
</g>
<g id="#00000026">
<path fill="#000000" opacity="0.15" d=" M 27.16 47.68 L 27.64 46.80 C 28.50 54.11 19.31 59.97 13.00 56.04 C 10.45 54.22 6.29 51.64 7.53 47.99 C 8.75 49.51 10.00 51.03 11.56 52.21 C 14.40 54.78 18.83 55.12 22.13 53.25 C 24.43 52.06 25.98 49.92 27.16 47.68 Z" />
<path fill="#000000" opacity="0.15" d=" M 38.86 53.71 C 40.92 59.57 49.83 62.31 53.64 56.65 C 54.78 60.18 51.11 62.89 47.94 62.85 C 43.16 63.04 38.11 58.75 38.86 53.71 Z" />
</g>
<g id="#003971aa">
<path fill="#003971" opacity="0.67" d=" M 11.56 52.21 C 14.91 53.66 18.56 54.39 22.13 53.25 C 18.83 55.12 14.40 54.78 11.56 52.21 Z" />
</g>
</svg>
