<?xml version="1.0" encoding="UTF-8" ?>
<!DOCTYPE svg PUBLIC "-//W3C//DTD SVG 1.1//EN" "http://www.w3.org/Graphics/SVG/1.1/DTD/svg11.dtd">
<svg width="64pt" height="64pt" viewBox="0 0 64 64" version="1.1" xmlns="http://www.w3.org/2000/svg">
<g id="#a96238ff">
<path fill="#a96238" opacity="1.00" d=" M 18.63 6.74 C 22.76 1.79 29.56 5.09 34.59 6.53 C 34.19 7.58 33.78 8.62 33.38 9.67 C 33.83 10.94 34.27 12.22 34.70 13.50 C 31.59 15.86 27.89 17.36 24.88 19.85 C 22.16 27.87 24.12 36.59 22.64 44.85 L 23.81 44.30 C 23.15 45.57 22.46 46.83 21.76 48.08 C 19.37 40.44 20.64 32.39 21.74 24.65 C 22.26 22.27 22.55 19.33 24.86 17.94 C 27.71 16.05 30.67 14.34 33.42 12.30 C 32.75 11.63 32.08 10.97 31.41 10.30 C 31.80 9.60 32.60 8.19 32.99 7.49 C 31.87 6.97 30.74 6.47 29.60 5.98 L 29.03 5.89 C 26.08 5.67 22.35 4.39 20.04 6.90 C 16.84 9.70 17.92 14.32 16.91 18.02 C 15.40 23.55 12.46 28.57 10.93 34.10 C 9.29 39.05 9.28 44.30 9.42 49.45 C 9.43 49.90 9.46 50.80 9.48 51.25 C 9.94 52.21 10.41 53.18 10.88 54.14 C 10.16 54.52 9.42 54.84 8.70 55.20 C 19.46 56.51 30.47 57.29 41.21 55.29 C 46.49 54.34 51.98 53.46 56.58 50.51 C 58.95 48.13 58.44 44.55 58.23 41.52 C 59.85 43.89 60.17 46.80 59.65 49.58 C 58.21 51.82 56.26 53.76 53.73 54.72 C 47.15 57.48 40.12 59.39 32.96 59.68 C 26.64 59.98 20.40 58.48 14.07 58.76 C 11.62 58.97 9.23 58.37 7.00 57.39 C 7.75 51.92 7.71 46.40 8.25 40.92 C 9.00 33.20 12.79 26.29 15.48 19.15 C 17.10 15.11 14.89 9.95 18.63 6.74 Z" />
</g>
<g id="#efe1c0ff">
<path fill="#efe1c0" opacity="1.00" d=" M 20.04 6.90 C 22.35 4.39 26.08 5.67 29.03 5.89 C 27.39 6.65 25.77 7.43 24.15 8.22 C 24.37 10.42 24.60 12.62 24.85 14.81 C 20.15 20.06 19.15 27.28 17.95 33.95 C 17.11 38.45 18.12 43.03 17.62 47.55 C 16.54 48.52 15.30 49.28 14.11 50.10 C 13.22 48.82 12.34 47.55 11.45 46.27 C 10.76 47.32 10.07 48.38 9.42 49.45 C 9.28 44.30 9.29 39.05 10.93 34.10 C 12.46 28.57 15.40 23.55 16.91 18.02 C 17.92 14.32 16.84 9.70 20.04 6.90 Z" />
</g>
<g id="#cb7e4cff">
<path fill="#cb7e4c" opacity="1.00" d=" M 24.15 8.22 C 25.77 7.43 27.39 6.65 29.03 5.89 L 29.60 5.98 C 28.55 9.18 27.08 12.26 24.85 14.81 C 24.60 12.62 24.37 10.42 24.15 8.22 Z" />
</g>
<g id="#eec49dff">
<path fill="#eec49d" opacity="1.00" d=" M 29.60 5.98 C 30.74 6.47 31.87 6.97 32.99 7.49 C 32.60 8.19 31.80 9.60 31.41 10.30 C 32.08 10.97 32.75 11.63 33.42 12.30 C 30.67 14.34 27.71 16.05 24.86 17.94 C 22.55 19.33 22.26 22.27 21.74 24.65 C 20.64 32.39 19.37 40.44 21.76 48.08 C 22.46 46.83 23.15 45.57 23.81 44.30 C 25.48 41.20 27.16 37.39 30.66 36.09 C 30.97 36.25 31.59 36.56 31.90 36.71 C 29.95 39.64 28.17 42.67 26.62 45.83 C 31.82 45.72 36.90 44.63 42.02 43.88 C 47.25 42.69 50.89 47.80 55.93 48.16 C 55.59 46.23 55.75 44.08 54.74 42.34 C 52.51 39.47 49.48 37.37 46.64 35.14 C 47.99 35.03 49.33 34.90 50.67 34.73 L 51.01 34.69 C 53.47 36.91 56.05 39.01 58.23 41.52 C 58.44 44.55 58.95 48.13 56.58 50.51 C 52.77 50.88 48.87 50.93 45.14 49.97 C 36.73 47.57 27.21 48.17 19.49 52.44 C 16.80 53.71 13.78 53.79 10.88 54.14 C 10.41 53.18 9.94 52.21 9.48 51.25 C 9.46 50.80 9.43 49.90 9.42 49.45 C 10.07 48.38 10.76 47.32 11.45 46.27 C 12.34 47.55 13.22 48.82 14.11 50.10 C 15.30 49.28 16.54 48.52 17.62 47.55 C 18.12 43.03 17.11 38.45 17.95 33.95 C 19.15 27.28 20.15 20.06 24.85 14.81 C 27.08 12.26 28.55 9.18 29.60 5.98 Z" />
</g>
<g id="#6f543eae">
<path fill="#6f543e" opacity="0.68" d=" M 34.02 33.39 C 38.86 30.66 45.20 31.63 49.99 34.08 C 44.73 33.13 39.33 32.16 34.02 33.39 Z" />
</g>
<g id="#f4d8b6ff">
<path fill="#f4d8b6" opacity="1.00" d=" M 29.98 35.75 C 31.31 34.94 32.58 34.01 34.02 33.39 C 39.33 32.16 44.73 33.13 49.99 34.08 C 50.16 34.24 50.50 34.57 50.67 34.73 C 49.33 34.90 47.99 35.03 46.64 35.14 C 49.48 37.37 52.51 39.47 54.74 42.34 C 55.75 44.08 55.59 46.23 55.93 48.16 C 50.89 47.80 47.25 42.69 42.02 43.88 C 36.90 44.63 31.82 45.72 26.62 45.83 C 28.17 42.67 29.95 39.64 31.90 36.71 C 31.59 36.56 30.97 36.25 30.66 36.09 L 29.98 35.75 Z" />
</g>
<g id="#e7b082ff">
<path fill="#e7b082" opacity="1.00" d=" M 19.49 52.44 C 27.21 48.17 36.73 47.57 45.14 49.97 C 48.87 50.93 52.77 50.88 56.58 50.51 C 51.98 53.46 46.49 54.34 41.21 55.29 C 30.47 57.29 19.46 56.51 8.70 55.20 C 9.42 54.84 10.16 54.52 10.88 54.14 C 13.78 53.79 16.80 53.71 19.49 52.44 Z" />
</g>
<g id="#00000036">
<path fill="#000000" opacity="0.21" d=" M 53.73 54.72 C 56.26 53.76 58.21 51.82 59.65 49.58 C 59.43 51.68 59.45 54.13 57.58 55.53 C 53.81 58.68 48.89 59.88 44.27 61.22 C 33.31 64.32 21.92 61.58 10.77 62.14 C 7.96 62.24 7.29 59.63 7.00 57.39 C 9.23 58.37 11.62 58.97 14.07 58.76 C 20.40 58.48 26.64 59.98 32.96 59.68 C 40.12 59.39 47.15 57.48 53.73 54.72 Z" />
</g>
</svg>
