<?xml version="1.0" encoding="UTF-8" ?>
<!DOCTYPE svg PUBLIC "-//W3C//DTD SVG 1.1//EN" "http://www.w3.org/Graphics/SVG/1.1/DTD/svg11.dtd">
<svg width="64pt" height="64pt" viewBox="0 0 64 64" version="1.1" xmlns="http://www.w3.org/2000/svg">
<g id="#a5a5a5ff">
<path fill="#a5a5a5" opacity="1.00" d=" M 7.22 14.58 C 11.30 7.63 19.46 4.41 27.15 3.64 C 34.99 3.00 43.37 3.55 50.32 7.56 C 56.74 11.21 60.72 18.43 60.90 25.75 C 60.74 32.43 59.76 39.79 54.66 44.64 C 47.32 52.28 35.82 52.50 25.95 52.27 C 21.00 51.78 18.70 57.09 15.13 59.53 C 14.16 59.58 12.23 59.69 11.26 59.75 C 10.81 55.41 13.85 50.89 11.24 46.87 L 11.23 46.84 C 8.94 42.74 5.89 38.95 4.80 34.29 C 3.46 27.66 4.40 20.71 7.22 14.58 M 8.54 17.59 C 6.00 21.97 6.30 27.19 6.61 32.05 C 7.49 39.56 14.18 44.43 15.81 51.66 C 19.72 52.00 22.99 48.99 26.93 49.51 C 34.82 49.69 43.38 49.90 50.14 45.16 C 56.84 40.95 58.45 32.31 58.25 25.01 C 57.71 17.03 52.23 9.90 44.75 7.16 C 39.87 4.69 34.30 5.50 29.04 5.37 C 20.69 5.14 11.98 9.77 8.54 17.59 Z" />
</g>
<g id="#d8d8d8ff">
<path fill="#d8d8d8" opacity="1.00" d=" M 8.54 17.59 C 11.98 9.77 20.69 5.14 29.04 5.37 C 34.30 5.50 39.87 4.69 44.75 7.16 C 52.23 9.90 57.71 17.03 58.25 25.01 C 58.45 32.31 56.84 40.95 50.14 45.16 C 43.38 49.90 34.82 49.69 26.93 49.51 C 22.99 48.99 19.72 52.00 15.81 51.66 C 14.18 44.43 7.49 39.56 6.61 32.05 C 6.30 27.19 6.00 21.97 8.54 17.59 M 24.38 10.57 C 18.49 11.67 13.77 16.33 11.77 21.86 C 10.15 29.94 12.47 39.62 19.65 44.33 C 24.42 44.88 29.29 44.61 34.03 43.89 C 37.95 43.18 42.33 44.34 45.78 41.81 C 55.53 36.45 56.27 21.09 47.67 14.30 C 41.18 9.33 32.12 8.71 24.38 10.57 Z" />
</g>
<g id="#f4f4f4ff">
<path fill="#f4f4f4" opacity="1.00" d=" M 24.38 10.57 C 32.12 8.71 41.18 9.33 47.67 14.30 C 56.27 21.09 55.53 36.45 45.78 41.81 C 42.33 44.34 37.95 43.18 34.03 43.89 C 29.29 44.61 24.42 44.88 19.65 44.33 C 12.47 39.62 10.15 29.94 11.77 21.86 C 13.77 16.33 18.49 11.67 24.38 10.57 M 21.54 26.40 C 21.12 26.81 20.30 27.63 19.89 28.05 C 19.38 30.60 22.73 32.64 24.37 30.28 C 25.74 28.26 23.68 26.08 21.54 26.40 M 31.46 26.35 C 29.04 27.76 29.86 31.95 32.99 31.27 C 36.22 30.29 34.53 25.72 31.46 26.35 M 41.53 26.40 C 41.12 26.81 40.30 27.64 39.89 28.05 C 39.38 30.62 42.75 32.63 44.37 30.28 C 45.74 28.25 43.67 26.09 41.53 26.40 Z" />
</g>
<g id="#787878de">
<path fill="#787878" opacity="0.87" d=" M 7.22 14.58 C 4.40 20.71 3.46 27.66 4.80 34.29 C 5.89 38.95 8.94 42.74 11.23 46.84 C 8.03 45.37 6.45 41.94 5.06 38.92 C 1.85 31.11 2.88 21.74 7.22 14.58 Z" />
</g>
<g id="#5b5b5bff">
<path fill="#5b5b5b" opacity="1.00" d=" M 21.54 26.40 C 23.68 26.08 25.74 28.26 24.37 30.28 C 22.73 32.64 19.38 30.60 19.89 28.05 C 20.30 27.63 21.12 26.81 21.54 26.40 Z" />
<path fill="#5b5b5b" opacity="1.00" d=" M 31.46 26.35 C 34.53 25.72 36.22 30.29 32.99 31.27 C 29.86 31.95 29.04 27.76 31.46 26.35 Z" />
<path fill="#5b5b5b" opacity="1.00" d=" M 41.53 26.40 C 43.67 26.09 45.74 28.25 44.37 30.28 C 42.75 32.63 39.38 30.62 39.89 28.05 C 40.30 27.64 41.12 26.81 41.53 26.40 Z" />
<path fill="#5b5b5b" opacity="1.00" d=" M 60.90 25.75 C 62.18 34.22 59.57 44.13 51.96 48.91 C 44.00 53.93 34.06 53.61 25.07 52.44 C 21.81 55.06 19.20 58.57 15.30 60.32 C 12.78 61.60 9.91 61.65 7.16 61.84 C 10.41 57.63 12.21 52.18 11.24 46.87 C 13.85 50.89 10.81 55.41 11.26 59.75 C 12.23 59.69 14.16 59.58 15.13 59.53 C 18.70 57.09 21.00 51.78 25.95 52.27 C 35.82 52.50 47.32 52.28 54.66 44.64 C 59.76 39.79 60.74 32.43 60.90 25.75 Z" />
</g>
</svg>
