<?xml version="1.0" encoding="UTF-8" ?>
<!DOCTYPE svg PUBLIC "-//W3C//DTD SVG 1.1//EN" "http://www.w3.org/Graphics/SVG/1.1/DTD/svg11.dtd">
<svg width="64pt" height="64pt" viewBox="0 0 64 64" version="1.1" xmlns="http://www.w3.org/2000/svg">
<g id="#09090bff">
<path fill="#09090b" opacity="1.00" d=" M 52.49 3.23 C 54.32 2.99 56.17 2.71 58.02 2.83 L 59.00 2.95 C 59.46 3.02 60.40 3.17 60.87 3.24 C 61.12 6.63 61.36 10.45 58.02 12.42 C 56.74 12.47 55.47 12.52 54.20 12.58 C 52.50 14.15 50.76 15.70 49.03 17.24 C 49.92 18.56 50.84 19.86 51.75 21.16 C 49.95 23.33 47.33 25.03 46.25 27.67 C 46.83 30.79 47.98 33.80 48.14 36.98 C 48.42 45.03 44.28 53.14 37.40 57.39 C 34.31 59.50 30.60 60.30 27.04 61.25 C 25.68 61.25 24.32 61.24 22.97 61.24 C 16.58 59.92 10.36 56.89 6.55 51.41 C 2.01 45.25 0.80 36.76 3.73 29.65 C 6.99 20.60 16.41 14.38 26.00 14.72 C 29.91 14.85 33.59 16.37 37.09 17.99 C 38.97 16.13 40.82 14.24 42.63 12.30 C 42.61 13.15 42.57 14.85 42.55 15.70 C 42.21 15.67 41.53 15.61 41.19 15.58 C 40.51 16.93 39.70 18.22 38.68 19.35 C 38.66 19.48 38.61 19.75 38.58 19.89 C 37.96 20.82 37.34 21.76 36.72 22.70 C 37.80 22.59 38.89 22.48 39.98 22.37 C 42.21 20.44 44.46 18.50 46.80 16.69 C 46.70 16.38 46.50 15.76 46.41 15.45 C 47.90 13.65 49.84 12.23 51.11 10.24 C 51.87 7.98 52.14 5.58 52.49 3.23 M 53.30 4.35 C 53.16 7.50 54.88 11.41 50.37 13.00 C 52.44 8.90 56.88 11.71 59.69 9.39 L 59.35 8.79 C 61.08 7.62 59.94 4.41 58.05 3.75 C 56.46 3.37 54.87 4.14 53.30 4.35 M 16.40 20.83 C 15.95 20.13 15.04 18.75 14.58 18.06 L 14.67 20.64 C 14.10 20.58 12.94 20.47 12.36 20.41 C 12.41 20.96 12.51 22.07 12.55 22.63 C 12.01 22.53 10.92 22.33 10.37 22.24 L 10.76 23.75 L 9.17 23.39 C 9.33 23.93 9.65 25.01 9.80 25.55 L 8.08 25.43 L 8.87 27.46 C 8.51 27.44 7.80 27.41 7.44 27.39 C 7.47 30.22 7.45 33.06 7.39 35.89 L 8.77 35.21 C 8.82 37.10 8.07 38.54 6.52 39.51 C 7.58 39.50 9.71 39.47 10.77 39.45 C 10.62 40.04 10.34 41.21 10.19 41.79 C 10.79 41.66 11.99 41.39 12.59 41.25 L 12.24 44.91 L 13.75 41.03 L 13.57 46.23 C 13.96 44.93 14.75 42.34 15.14 41.05 L 15.88 47.06 L 16.65 44.43 C 19.38 44.53 22.12 44.54 24.85 44.60 L 24.31 42.96 C 24.91 43.24 26.09 43.79 26.69 44.07 L 26.34 42.10 C 26.94 42.33 28.15 42.80 28.75 43.04 L 27.77 41.09 L 30.25 42.87 L 28.84 40.24 L 30.82 40.88 L 30.29 38.99 L 33.06 40.36 C 32.45 39.59 31.24 38.04 30.63 37.27 L 34.06 38.04 L 30.80 34.59 L 35.71 38.08 C 34.40 35.67 32.99 33.32 31.49 31.03 L 37.08 34.66 C 34.87 32.67 34.01 30.22 34.50 27.29 L 32.96 27.51 C 33.65 26.37 35.03 24.09 35.72 22.95 C 34.60 23.44 32.37 24.43 31.25 24.92 C 31.41 24.27 31.72 22.97 31.88 22.31 L 29.80 22.59 L 31.81 19.61 C 30.98 20.25 29.30 21.53 28.46 22.17 L 28.67 20.06 L 26.59 20.82 C 26.52 20.20 26.38 18.96 26.31 18.34 C 25.89 19.03 25.07 20.40 24.66 21.09 L 24.50 17.00 C 22.67 19.64 19.04 18.10 16.36 18.54 L 16.40 20.83 Z" />
</g>
<g id="#c1c7dcff">
<path fill="#c1c7dc" opacity="1.00" d=" M 53.30 4.35 C 54.87 4.14 56.46 3.37 58.05 3.75 C 59.94 4.41 61.08 7.62 59.35 8.79 C 58.71 7.66 58.14 6.49 57.55 5.34 C 56.13 5.01 54.72 4.68 53.30 4.35 Z" />
<path fill="#c1c7dc" opacity="1.00" d=" M 16.40 20.83 L 16.36 18.54 C 19.04 18.10 22.67 19.64 24.50 17.00 L 24.66 21.09 C 25.07 20.40 25.89 19.03 26.31 18.34 C 26.38 18.96 26.52 20.20 26.59 20.82 L 28.67 20.06 L 28.46 22.17 C 29.30 21.53 30.98 20.25 31.81 19.61 L 29.80 22.59 L 31.88 22.31 C 31.72 22.97 31.41 24.27 31.25 24.92 C 32.37 24.43 34.60 23.44 35.72 22.95 C 35.03 24.09 33.65 26.37 32.96 27.51 L 34.50 27.29 C 34.01 30.22 34.87 32.67 37.08 34.66 L 31.49 31.03 C 32.99 33.32 34.40 35.67 35.71 38.08 L 30.80 34.59 L 34.06 38.04 L 30.63 37.27 C 31.24 38.04 32.45 39.59 33.06 40.36 L 30.29 38.99 L 30.82 40.88 L 28.84 40.24 L 30.25 42.87 L 27.77 41.09 L 28.75 43.04 C 28.15 42.80 26.94 42.33 26.34 42.10 L 26.69 44.07 C 26.09 43.79 24.91 43.24 24.31 42.96 L 24.85 44.60 C 22.12 44.54 19.38 44.53 16.65 44.43 L 15.88 47.06 L 15.14 41.05 C 14.75 42.34 13.96 44.93 13.57 46.23 L 13.75 41.03 L 12.24 44.91 L 12.59 41.25 C 11.99 41.39 10.79 41.66 10.19 41.79 C 10.34 41.21 10.62 40.04 10.77 39.45 C 9.71 39.47 7.58 39.50 6.52 39.51 C 8.07 38.54 8.82 37.10 8.77 35.21 L 7.39 35.89 C 7.45 33.06 7.47 30.22 7.44 27.39 C 7.80 27.41 8.51 27.44 8.87 27.46 L 8.08 25.43 L 9.80 25.55 C 9.65 25.01 9.33 23.93 9.17 23.39 L 10.76 23.75 L 10.37 22.24 C 10.92 22.33 12.01 22.53 12.55 22.63 C 12.51 22.07 12.41 20.96 12.36 20.41 C 12.94 20.47 14.10 20.58 14.67 20.64 L 14.58 18.06 C 15.04 18.75 15.95 20.13 16.40 20.83 M 16.44 21.83 C 12.48 23.05 8.75 28.27 11.97 32.01 C 16.26 35.84 24.19 32.91 24.46 26.98 C 25.14 22.65 20.05 19.96 16.44 21.83 Z" />
</g>
<g id="#eaedf8ff">
<path fill="#eaedf8" opacity="1.00" d=" M 53.30 4.35 C 54.72 4.68 56.13 5.01 57.55 5.34 C 58.14 6.49 58.71 7.66 59.35 8.79 L 59.69 9.39 C 56.88 11.71 52.44 8.90 50.37 13.00 C 54.88 11.41 53.16 7.50 53.30 4.35 Z" />
<path fill="#eaedf8" opacity="1.00" d=" M 42.63 12.30 C 43.92 13.31 45.24 14.29 46.41 15.45 C 46.50 15.76 46.70 16.38 46.80 16.69 C 44.46 18.50 42.21 20.44 39.98 22.37 C 38.89 22.48 37.80 22.59 36.72 22.70 C 37.34 21.76 37.96 20.82 38.58 19.89 C 38.61 19.75 38.66 19.48 38.68 19.35 C 39.70 18.22 40.51 16.93 41.19 15.58 C 41.53 15.61 42.21 15.67 42.55 15.70 C 42.57 14.85 42.61 13.15 42.63 12.30 Z" />
<path fill="#eaedf8" opacity="1.00" d=" M 16.44 21.83 C 20.05 19.96 25.14 22.65 24.46 26.98 C 24.19 32.91 16.26 35.84 11.97 32.01 C 8.75 28.27 12.48 23.05 16.44 21.83 Z" />
</g>
</svg>
