<?xml version="1.0" encoding="UTF-8" ?>
<!DOCTYPE svg PUBLIC "-//W3C//DTD SVG 1.1//EN" "http://www.w3.org/Graphics/SVG/1.1/DTD/svg11.dtd">
<svg width="64pt" height="64pt" viewBox="0 0 64 64" version="1.1" xmlns="http://www.w3.org/2000/svg">
<g id="#fefdf9ff">
<path fill="#fefdf9" opacity="1.00" d=" M 26.82 4.28 C 26.67 4.07 26.37 3.66 26.22 3.46 C 27.28 3.46 29.40 3.48 30.46 3.49 L 30.99 1.45 L 31.54 3.38 C 33.89 3.34 36.25 3.46 38.61 3.57 L 38.42 4.81 C 38.92 4.68 39.91 4.41 40.41 4.27 L 40.39 5.75 L 41.82 5.15 L 41.25 6.50 C 41.82 6.51 42.98 6.54 43.55 6.55 C 43.53 6.94 43.47 7.72 43.44 8.11 C 44.80 8.45 45.58 9.32 45.76 10.72 L 46.49 10.39 C 46.52 11.25 46.57 12.99 46.60 13.85 L 47.52 13.02 C 47.72 16.98 47.69 20.93 47.44 24.89 L 46.61 24.06 C 46.53 24.99 46.37 26.86 46.29 27.79 C 45.93 27.66 45.20 27.41 44.84 27.28 C 44.58 28.89 44.46 30.77 42.39 30.85 C 42.47 31.24 42.64 32.02 42.72 32.41 L 41.33 32.45 C 41.39 32.92 41.50 33.86 41.56 34.33 L 40.29 34.48 C 40.37 35.01 40.52 36.07 40.60 36.60 L 39.51 36.24 C 39.53 37.15 39.56 38.99 39.57 39.90 C 39.31 39.76 38.79 39.46 38.53 39.32 C 38.62 43.92 38.40 48.52 38.10 53.11 C 37.67 50.12 37.65 47.09 37.26 44.09 C 37.30 47.32 37.48 50.56 37.46 53.79 C 36.92 53.61 35.84 53.25 35.30 53.07 L 35.80 54.50 C 33.32 54.49 30.84 54.47 28.35 54.47 C 28.40 53.93 28.49 52.86 28.54 52.33 L 26.60 52.72 C 26.53 52.05 26.39 50.71 26.33 50.03 C 27.08 49.88 28.58 49.56 29.34 49.40 C 28.56 49.46 27.00 49.59 26.22 49.66 C 26.33 47.53 26.36 45.41 26.46 43.28 L 25.46 43.73 L 25.14 41.37 C 28.69 41.28 35.79 41.11 39.34 41.02 C 35.76 40.91 28.59 40.68 25.01 40.57 C 25.21 40.01 25.59 38.90 25.79 38.35 L 24.70 38.81 C 24.45 37.42 24.87 35.66 23.42 34.81 L 23.95 33.68 C 23.54 33.59 22.72 33.42 22.31 33.33 L 22.73 31.44 L 21.14 31.53 C 21.27 31.02 21.52 30.00 21.64 29.49 C 21.11 29.51 20.03 29.55 19.50 29.57 C 19.51 28.98 19.53 27.79 19.54 27.20 L 18.15 27.67 C 18.29 27.14 18.58 26.06 18.72 25.53 L 16.33 25.18 C 16.97 24.80 18.26 24.03 18.90 23.65 C 18.32 23.65 17.17 23.63 16.60 23.63 C 16.51 19.59 16.38 15.55 16.14 11.52 C 16.41 13.17 16.96 16.46 17.23 18.11 C 17.29 16.35 17.42 12.82 17.48 11.06 L 18.35 12.60 C 18.42 11.77 18.57 10.09 18.64 9.26 L 20.83 9.69 L 18.64 7.51 L 21.72 8.96 L 19.81 6.39 L 23.30 8.58 L 20.64 5.47 C 21.25 5.79 22.46 6.44 23.07 6.76 C 23.09 4.48 25.04 4.40 26.82 4.28 Z" />
</g>
</svg>
