<?xml version="1.0" encoding="UTF-8" ?>
<!DOCTYPE svg PUBLIC "-//W3C//DTD SVG 1.1//EN" "http://www.w3.org/Graphics/SVG/1.1/DTD/svg11.dtd">
<svg width="64pt" height="64pt" viewBox="0 0 64 64" version="1.1" xmlns="http://www.w3.org/2000/svg">
<g id="#0303050d">
<path fill="#030305" opacity="0.05" d=" M 0.00 0.00 L 64.00 0.00 L 64.00 64.00 L 0.00 64.00 L 0.00 0.00 M 28.32 4.33 C 21.66 6.09 18.83 13.56 19.90 19.94 C 14.33 23.53 7.65 25.07 1.07 25.13 C 0.80 29.34 1.02 33.56 1.09 37.78 C 7.57 39.27 14.35 40.03 19.89 44.09 C 19.91 49.68 19.64 56.61 26.15 58.81 C 31.69 62.23 38.58 58.36 40.61 52.70 C 39.03 47.71 43.85 45.67 47.69 46.62 C 56.06 43.83 59.99 32.77 54.48 25.60 C 52.67 21.37 47.54 21.18 44.14 18.84 C 46.06 9.67 37.23 1.44 28.32 4.33 M 12.33 10.39 C 10.04 13.08 6.56 13.70 3.26 14.33 C 1.32 15.00 1.62 17.97 3.22 18.88 C 8.66 20.46 14.02 15.23 12.99 9.89 L 12.33 10.39 M 3.22 45.12 C 1.27 46.20 1.51 49.84 4.07 49.86 C 7.51 50.24 10.59 51.62 12.99 54.11 C 14.02 48.77 8.66 43.54 3.22 45.12 Z" />
</g>
<g id="#b6c8e4fb">
<path fill="#b6c8e4" opacity="1.00" d=" M 28.32 4.33 C 37.23 1.44 46.06 9.67 44.14 18.84 C 47.54 21.18 52.67 21.37 54.48 25.60 C 59.99 32.77 56.06 43.83 47.69 46.62 C 43.85 45.67 39.03 47.71 40.61 52.70 C 38.58 58.36 31.69 62.23 26.15 58.81 C 19.64 56.61 19.91 49.68 19.89 44.09 C 14.35 40.03 7.57 39.27 1.09 37.78 C 1.02 33.56 0.80 29.34 1.07 25.13 C 7.65 25.07 14.33 23.53 19.90 19.94 C 18.83 13.56 21.66 6.09 28.32 4.33 Z" />
<path fill="#b6c8e4" opacity="1.00" d=" M 12.33 10.39 L 12.99 9.89 C 14.02 15.23 8.66 20.46 3.22 18.88 C 1.62 17.97 1.32 15.00 3.26 14.33 C 6.56 13.70 10.04 13.08 12.33 10.39 Z" />
<path fill="#b6c8e4" opacity="1.00" d=" M 3.22 45.12 C 8.66 43.54 14.02 48.77 12.99 54.11 C 10.59 51.62 7.51 50.24 4.07 49.86 C 1.51 49.84 1.27 46.20 3.22 45.12 Z" />
</g>
</svg>
