<?xml version="1.0" encoding="UTF-8" ?>
<!DOCTYPE svg PUBLIC "-//W3C//DTD SVG 1.1//EN" "http://www.w3.org/Graphics/SVG/1.1/DTD/svg11.dtd">
<svg width="64pt" height="64pt" viewBox="0 0 64 64" version="1.1" xmlns="http://www.w3.org/2000/svg">
<g id="#7281acf6">
<path fill="#7281ac" opacity="0.96" d=" M 20.78 11.96 C 23.86 8.66 26.78 4.72 31.08 3.02 C 36.62 2.73 39.57 8.82 43.21 11.96 C 43.46 13.94 42.36 13.89 40.92 13.22 L 40.22 12.83 C 37.68 10.34 35.49 7.17 31.99 5.97 C 29.08 7.20 26.89 9.58 24.73 11.81 C 24.32 12.16 23.51 12.87 23.10 13.22 C 21.66 13.89 20.53 13.95 20.78 11.96 Z" />
</g>
<g id="#e3f9feff">
<path fill="#e3f9fe" opacity="1.00" d=" M 24.73 11.81 C 26.89 9.58 29.08 7.20 31.99 5.97 C 35.49 7.17 37.68 10.34 40.22 12.83 C 39.11 15.89 39.35 19.03 39.94 22.16 C 34.82 19.92 29.23 19.93 24.12 22.17 C 26.88 19.14 25.00 15.35 24.73 11.81 Z" />
</g>
<g id="#5a71a6fb">
<path fill="#5a71a6" opacity="1.00" d=" M 14.69 17.14 C 15.97 14.61 19.13 14.14 20.78 11.96 C 20.53 13.95 21.66 13.89 23.10 13.22 C 23.01 14.83 22.92 16.45 22.86 18.07 C 21.36 14.24 17.91 20.17 14.69 17.14 Z" />
<path fill="#5a71a6" opacity="1.00" d=" M 43.21 11.96 C 44.90 14.11 48.00 14.61 49.28 17.15 C 46.90 17.37 43.33 19.27 42.58 16.15 C 42.08 16.78 41.60 17.42 41.14 18.08 C 41.02 16.46 40.98 14.84 40.92 13.22 C 42.36 13.89 43.46 13.94 43.21 11.96 Z" />
</g>
<g id="#c8f4feff">
<path fill="#c8f4fe" opacity="1.00" d=" M 23.10 13.22 C 23.51 12.87 24.32 12.16 24.73 11.81 C 25.00 15.35 26.88 19.14 24.12 22.17 C 29.23 19.93 34.82 19.92 39.94 22.16 C 40.33 24.10 38.33 24.95 37.19 26.08 C 33.77 26.06 30.36 26.00 26.95 26.11 C 24.44 24.43 22.29 22.19 22.85 18.91 L 22.86 18.07 C 22.92 16.45 23.01 14.83 23.10 13.22 Z" />
</g>
<g id="#b5f0fdff">
<path fill="#b5f0fd" opacity="1.00" d=" M 40.22 12.83 L 40.92 13.22 C 40.98 14.84 41.02 16.46 41.14 18.08 C 43.47 24.40 52.28 21.79 55.36 27.85 C 54.97 28.93 54.52 29.99 54.03 31.03 C 49.83 30.70 45.45 31.64 41.31 30.70 C 40.07 29.61 39.03 28.29 37.71 27.28 L 37.09 26.80 L 37.19 26.08 C 38.33 24.95 40.33 24.10 39.94 22.16 C 39.35 19.03 39.11 15.89 40.22 12.83 Z" />
</g>
<g id="#425f90fb">
<path fill="#425f90" opacity="1.00" d=" M 14.69 17.14 C 17.91 20.17 21.36 14.24 22.86 18.07 L 22.85 18.91 C 19.27 24.10 11.81 22.09 8.63 27.81 C 5.85 29.75 7.50 33.54 8.31 36.21 C 6.53 36.62 5.25 34.86 3.72 34.26 L 2.98 33.81 C 2.14 25.76 12.28 23.71 14.69 17.14 Z" />
</g>
<g id="#445e8efb">
<path fill="#445e8e" opacity="1.00" d=" M 41.14 18.08 C 41.60 17.42 42.08 16.78 42.58 16.15 C 43.33 19.27 46.90 17.37 49.28 17.15 C 52.06 23.41 61.78 25.93 61.03 33.83 L 60.29 34.27 C 58.83 35.04 57.43 36.00 55.82 36.42 C 57.29 34.01 58.89 31.19 56.26 28.93 C 56.03 28.66 55.59 28.12 55.36 27.85 C 52.28 21.79 43.47 24.40 41.14 18.08 Z" />
</g>
<g id="#b0effdff">
<path fill="#b0effd" opacity="1.00" d=" M 8.63 27.81 C 11.81 22.09 19.27 24.10 22.85 18.91 C 22.29 22.19 24.44 24.43 26.95 26.11 L 26.83 26.89 C 25.48 33.77 17.09 31.92 11.99 32.04 C 9.39 32.63 8.90 29.68 8.63 27.81 Z" />
</g>
<g id="#8ad7e8ff">
<path fill="#8ad7e8" opacity="1.00" d=" M 26.95 26.11 C 30.36 26.00 33.77 26.06 37.19 26.08 L 37.09 26.80 C 33.79 27.95 30.11 28.26 26.83 26.89 L 26.95 26.11 Z" />
</g>
<g id="#68defbff">
<path fill="#68defb" opacity="1.00" d=" M 11.99 32.04 C 17.09 31.92 25.48 33.77 26.83 26.89 C 27.19 27.92 27.53 28.96 27.85 30.01 C 25.77 31.64 21.90 32.71 24.00 35.96 C 25.21 38.76 25.55 42.57 21.34 42.03 C 19.60 38.94 15.82 40.35 12.85 40.06 C 11.31 38.81 9.88 37.42 8.31 36.21 C 7.50 33.54 5.85 29.75 8.63 27.81 C 8.90 29.68 9.39 32.63 11.99 32.04 Z" />
</g>
<g id="#e6f9feff">
<path fill="#e6f9fe" opacity="1.00" d=" M 26.83 26.89 C 30.11 28.26 33.79 27.95 37.09 26.80 C 36.79 28.12 36.33 29.42 36.25 30.78 C 36.13 32.13 36.06 33.49 36.05 34.85 C 33.84 32.45 31.56 33.26 29.74 35.63 C 28.86 36.09 27.98 36.57 27.11 37.06 C 27.56 34.74 28.22 32.39 27.85 30.01 C 27.53 28.96 27.19 27.92 26.83 26.89 Z" />
</g>
<g id="#4cd9fbff">
<path fill="#4cd9fb" opacity="1.00" d=" M 37.09 26.80 L 37.71 27.28 C 37.42 31.60 40.63 33.61 45.11 32.10 C 43.07 33.36 41.00 35.21 41.04 37.81 C 43.78 40.28 48.00 39.15 51.39 39.80 C 48.69 41.09 45.44 41.02 42.89 42.75 C 40.67 43.32 39.50 44.85 39.89 47.18 C 39.06 43.81 35.64 41.72 32.00 42.99 C 28.36 41.73 24.93 43.80 24.12 47.19 C 24.50 44.84 23.32 43.30 21.06 42.79 L 21.34 42.03 C 25.55 42.57 25.21 38.76 24.00 35.96 C 26.49 34.24 27.24 35.51 26.26 39.76 C 30.00 41.02 34.14 41.28 37.84 39.78 C 37.92 39.10 38.07 37.73 38.15 37.05 C 38.36 34.76 37.45 32.67 36.25 30.78 C 36.33 29.42 36.79 28.12 37.09 26.80 Z" />
</g>
<g id="#94ebffff">
<path fill="#94ebff" opacity="1.00" d=" M 37.71 27.28 C 39.03 28.29 40.07 29.61 41.31 30.70 C 45.45 31.64 49.83 30.70 54.03 31.03 C 52.53 33.68 47.78 31.31 45.11 32.10 C 40.63 33.61 37.42 31.60 37.71 27.28 Z" />
</g>
<g id="#71e1fcff">
<path fill="#71e1fc" opacity="1.00" d=" M 55.36 27.85 C 55.59 28.12 56.03 28.66 56.26 28.93 C 56.26 31.82 55.21 34.48 54.05 37.07 C 53.23 38.03 52.52 39.17 51.39 39.80 C 48.00 39.15 43.78 40.28 41.04 37.81 C 41.00 35.21 43.07 33.36 45.11 32.10 C 47.78 31.31 52.53 33.68 54.03 31.03 C 54.52 29.99 54.97 28.93 55.36 27.85 Z" />
</g>
<g id="#27bde9ff">
<path fill="#27bde9" opacity="1.00" d=" M 56.26 28.93 C 58.89 31.19 57.29 34.01 55.82 36.42 C 55.38 36.58 54.49 36.91 54.05 37.07 C 55.21 34.48 56.26 31.82 56.26 28.93 Z" />
</g>
<g id="#2fd3faff">
<path fill="#2fd3fa" opacity="1.00" d=" M 24.00 35.96 C 21.90 32.71 25.77 31.64 27.85 30.01 C 28.22 32.39 27.56 34.74 27.11 37.06 L 26.94 38.00 C 29.54 37.79 34.72 37.38 37.31 37.17 L 38.15 37.05 C 38.07 37.73 37.92 39.10 37.84 39.78 C 34.14 41.28 30.00 41.02 26.26 39.76 C 27.24 35.51 26.49 34.24 24.00 35.96 Z" />
</g>
<g id="#1cbee4ff">
<path fill="#1cbee4" opacity="1.00" d=" M 36.25 30.78 C 37.45 32.67 38.36 34.76 38.15 37.05 L 37.31 37.17 C 37.00 36.59 36.37 35.43 36.05 34.85 C 36.06 33.49 36.13 32.13 36.25 30.78 Z" />
</g>
<g id="#9deafcff">
<path fill="#9deafc" opacity="1.00" d=" M 29.74 35.63 C 31.56 33.26 33.84 32.45 36.05 34.85 C 36.37 35.43 37.00 36.59 37.31 37.17 C 34.84 36.41 32.31 35.90 29.74 35.63 Z" />
</g>
<g id="#01010335">
<path fill="#010103" opacity="0.21" d=" M 2.98 33.81 L 3.72 34.26 C 6.42 38.17 9.65 41.90 13.93 44.14 C 13.92 44.90 13.89 46.42 13.88 47.19 C 9.41 43.96 3.00 40.00 2.98 33.81 Z" />
</g>
<g id="#203a62f7">
<path fill="#203a62" opacity="0.97" d=" M 3.72 34.26 C 5.25 34.86 6.53 36.62 8.31 36.21 C 9.88 37.42 11.31 38.81 12.85 40.06 C 13.14 40.30 13.72 40.79 14.00 41.04 C 13.99 41.81 13.95 43.36 13.93 44.14 C 9.65 41.90 6.42 38.17 3.72 34.26 Z" />
</g>
<g id="#16386cfb">
<path fill="#16386c" opacity="1.00" d=" M 55.82 36.42 C 57.43 36.00 58.83 35.04 60.29 34.27 C 57.64 38.25 54.26 41.75 50.12 44.17 C 48.16 46.16 46.45 48.94 43.17 48.01 C 42.93 46.55 42.71 45.08 42.53 43.62 L 42.89 42.75 C 45.44 41.02 48.69 41.09 51.39 39.80 C 52.52 39.17 53.23 38.03 54.05 37.07 C 54.49 36.91 55.38 36.58 55.82 36.42 Z" />
</g>
<g id="#00010232">
<path fill="#000102" opacity="0.20" d=" M 60.29 34.27 L 61.03 33.83 C 60.98 39.98 54.65 43.94 50.18 47.11 C 50.17 46.38 50.14 44.91 50.12 44.17 C 54.26 41.75 57.64 38.25 60.29 34.27 Z" />
<path fill="#000102" opacity="0.20" d=" M 13.88 47.19 L 14.89 47.24 C 15.89 49.03 17.56 50.53 19.76 50.09 C 22.60 54.47 26.22 58.86 31.08 60.98 C 35.84 61.43 38.67 56.52 41.56 53.60 C 43.50 50.31 47.27 49.26 50.18 47.11 C 50.28 50.51 47.16 52.27 44.55 53.64 C 41.12 57.26 37.80 61.04 33.75 64.00 L 30.25 64.00 C 26.20 61.04 22.88 57.26 19.45 53.64 C 16.90 52.26 13.68 50.58 13.88 47.19 Z" />
</g>
<g id="#0fbae7ff">
<path fill="#0fbae7" opacity="1.00" d=" M 27.11 37.06 C 27.98 36.57 28.86 36.09 29.74 35.63 C 32.31 35.90 34.84 36.41 37.31 37.17 C 34.72 37.38 29.54 37.79 26.94 38.00 L 27.11 37.06 Z" />
</g>
<g id="#24c7f3ff">
<path fill="#24c7f3" opacity="1.00" d=" M 12.85 40.06 C 15.82 40.35 19.60 38.94 21.34 42.03 L 21.06 42.79 C 19.00 41.24 16.54 40.78 14.00 41.04 C 13.72 40.79 13.14 40.30 12.85 40.06 Z" />
</g>
<g id="#0f3671ff">
<path fill="#0f3671" opacity="1.00" d=" M 14.00 41.04 C 16.54 40.78 19.00 41.24 21.06 42.79 L 21.47 43.62 C 21.22 45.99 21.37 49.05 18.10 47.87 C 17.07 47.43 16.01 47.22 14.89 47.24 L 13.88 47.19 C 13.89 46.42 13.92 44.90 13.93 44.14 C 13.95 43.36 13.99 41.81 14.00 41.04 Z" />
</g>
<g id="#20c3efff">
<path fill="#20c3ef" opacity="1.00" d=" M 21.06 42.79 C 23.32 43.30 24.50 44.84 24.12 47.19 C 24.71 51.29 29.06 56.88 33.75 55.82 C 35.87 53.08 40.36 51.19 39.89 47.18 C 39.50 44.85 40.67 43.32 42.89 42.75 L 42.53 43.62 C 41.34 49.73 38.06 55.65 31.99 58.03 C 28.53 56.45 25.68 53.69 23.44 50.65 C 23.32 48.16 22.90 45.66 21.47 43.62 L 21.06 42.79 Z" />
</g>
<g id="#6ae0fdff">
<path fill="#6ae0fd" opacity="1.00" d=" M 24.12 47.19 C 24.93 43.80 28.36 41.73 32.00 42.99 C 35.64 41.72 39.06 43.81 39.89 47.18 C 40.36 51.19 35.87 53.08 33.75 55.82 C 29.06 56.88 24.71 51.29 24.12 47.19 Z" />
</g>
<g id="#0c2e58f8">
<path fill="#0c2e58" opacity="0.97" d=" M 21.47 43.62 C 22.90 45.66 23.32 48.16 23.44 50.65 C 25.68 53.69 28.53 56.45 31.99 58.03 C 38.06 55.65 41.34 49.73 42.53 43.62 C 42.71 45.08 42.93 46.55 43.17 48.01 C 46.45 48.94 48.16 46.16 50.12 44.17 C 50.14 44.91 50.17 46.38 50.18 47.11 C 47.27 49.26 43.50 50.31 41.56 53.60 C 38.67 56.52 35.84 61.43 31.08 60.98 C 26.22 58.86 22.60 54.47 19.76 50.09 C 19.25 49.32 18.70 48.58 18.10 47.87 C 21.37 49.05 21.22 45.99 21.47 43.62 Z" />
</g>
<g id="#051833fb">
<path fill="#051833" opacity="1.00" d=" M 14.89 47.24 C 16.01 47.22 17.07 47.43 18.10 47.87 C 18.70 48.58 19.25 49.32 19.76 50.09 C 17.56 50.53 15.89 49.03 14.89 47.24 Z" />
</g>
</svg>
