<?xml version="1.0" encoding="UTF-8" ?>
<!DOCTYPE svg PUBLIC "-//W3C//DTD SVG 1.1//EN" "http://www.w3.org/Graphics/SVG/1.1/DTD/svg11.dtd">
<svg width="64pt" height="64pt" viewBox="0 0 64 64" version="1.1" xmlns="http://www.w3.org/2000/svg">
<g id="#d92a18ff">
<path fill="#d92a18" opacity="1.00" d=" M 13.66 4.59 L 14.90 4.33 C 22.87 11.91 36.06 13.26 45.27 7.20 C 46.99 6.36 48.28 3.74 50.44 4.61 C 50.64 9.50 46.90 13.58 42.95 15.98 C 33.19 21.92 17.54 18.62 13.67 7.04 C 13.67 6.43 13.66 5.21 13.66 4.59 Z" />
<path fill="#d92a18" opacity="1.00" d=" M 4.51 13.64 C 7.95 13.15 11.08 15.28 13.43 17.57 C 19.65 24.02 20.51 34.60 16.33 42.35 C 13.96 46.51 9.79 50.45 4.73 50.37 C 4.01 49.43 4.75 48.42 5.36 47.70 C 13.47 38.70 12.78 23.64 4.45 15.00 L 4.51 13.64 Z" />
<path fill="#d92a18" opacity="1.00" d=" M 52.78 15.69 C 54.75 14.36 57.05 13.20 59.51 13.65 L 59.56 14.98 C 50.95 23.88 50.63 39.38 59.18 48.43 C 60.83 51.08 56.68 50.52 55.35 49.62 C 42.67 43.74 41.65 23.65 52.78 15.69 Z" />
<path fill="#d92a18" opacity="1.00" d=" M 18.64 49.64 C 26.79 42.91 40.34 43.56 47.37 51.63 C 49.15 53.82 50.71 56.49 50.40 59.42 C 48.43 59.92 47.25 57.92 45.80 57.01 C 37.78 51.39 26.25 51.39 18.23 56.98 C 16.77 57.89 15.60 59.91 13.62 59.41 C 13.28 55.52 15.86 52.07 18.64 49.64 Z" />
</g>
</svg>
