<?xml version="1.0" encoding="UTF-8" ?>
<!DOCTYPE svg PUBLIC "-//W3C//DTD SVG 1.1//EN" "http://www.w3.org/Graphics/SVG/1.1/DTD/svg11.dtd">
<svg width="64pt" height="64pt" viewBox="0 0 64 64" version="1.1" xmlns="http://www.w3.org/2000/svg">
<g id="#8f5829ff">
<path fill="#8f5829" opacity="1.00" d=" M 25.32 5.85 C 30.04 7.19 34.11 10.00 37.71 13.26 C 37.99 16.69 39.58 21.62 35.65 23.61 C 30.32 26.16 24.21 26.04 18.46 26.83 C 18.12 25.50 17.78 24.17 17.45 22.84 C 19.33 21.48 21.30 20.22 23.32 19.07 C 22.70 16.23 23.94 13.69 25.31 11.30 C 26.39 9.63 25.42 7.66 25.32 5.85 Z" />
</g>
<g id="#7d4d20ff">
<path fill="#7d4d20" opacity="1.00" d=" M 37.71 13.26 C 40.29 15.88 41.46 19.37 40.55 23.01 L 40.46 24.15 L 38.91 23.02 L 39.41 24.24 C 35.24 26.86 30.91 29.21 26.49 31.38 C 25.72 30.77 24.96 30.15 24.19 29.53 C 23.32 29.52 21.57 29.49 20.70 29.48 C 19.79 30.31 18.88 31.15 17.98 32.00 C 17.66 32.25 17.00 32.74 16.67 32.99 C 16.13 29.58 15.78 26.01 17.45 22.84 C 17.78 24.17 18.12 25.50 18.46 26.83 C 24.21 26.04 30.32 26.16 35.65 23.61 C 39.58 21.62 37.99 16.69 37.71 13.26 Z" />
<path fill="#7d4d20" opacity="1.00" d=" M 10.83 44.18 C 9.74 40.72 9.91 36.97 12.19 34.02 C 12.35 35.30 12.46 36.59 12.74 37.85 C 13.96 37.82 15.18 37.76 16.40 37.67 C 16.89 39.93 18.00 41.98 19.36 43.84 C 16.68 44.34 13.96 44.68 11.23 44.70 L 10.83 44.18 Z" />
</g>
<g id="#9f734fff">
<path fill="#9f734f" opacity="1.00" d=" M 40.46 24.15 L 40.55 23.01 C 41.76 23.16 42.97 23.32 44.18 23.47 C 40.38 28.74 34.38 31.51 28.64 34.12 C 28.13 33.82 27.09 33.22 26.57 32.91 L 27.40 32.12 L 26.49 31.38 C 30.91 29.21 35.24 26.86 39.41 24.24 L 38.91 23.02 L 40.46 24.15 Z" />
</g>
<g id="#835122ff">
<path fill="#835122" opacity="1.00" d=" M 28.64 34.12 C 34.38 31.51 40.38 28.74 44.18 23.47 C 47.41 25.14 48.95 29.11 46.68 32.24 C 45.48 31.39 44.29 30.52 43.10 29.64 C 42.18 29.59 40.33 29.48 39.41 29.43 C 38.12 31.03 36.89 32.67 35.70 34.35 C 35.44 34.45 34.91 34.64 34.64 34.74 C 34.78 36.51 34.92 38.29 35.05 40.06 C 32.55 40.63 30.06 41.21 27.57 41.81 C 28.29 39.30 28.52 36.71 28.64 34.12 Z" />
</g>
<g id="#f7f7f7ff">
<path fill="#f7f7f7" opacity="1.00" d=" M 17.98 32.00 C 18.88 31.15 19.79 30.31 20.70 29.48 C 21.57 29.49 23.32 29.52 24.19 29.53 C 24.96 30.15 25.72 30.77 26.49 31.38 L 27.40 32.12 L 26.57 32.91 C 27.09 33.22 28.13 33.82 28.64 34.12 C 28.52 36.71 28.29 39.30 27.57 41.81 C 25.39 44.04 22.35 45.01 19.36 43.84 C 18.00 41.98 16.89 39.93 16.40 37.67 C 16.60 36.47 16.82 35.27 17.06 34.07 C 17.29 33.56 17.75 32.52 17.98 32.00 M 21.19 40.84 C 23.18 42.66 25.36 39.83 25.56 37.91 C 26.31 35.32 24.61 33.09 22.92 31.36 C 19.26 32.91 18.10 38.18 21.19 40.84 Z" />
<path fill="#f7f7f7" opacity="1.00" d=" M 23.19 50.61 C 28.07 49.60 33.12 49.06 38.05 50.06 C 38.38 50.20 39.06 50.47 39.39 50.61 L 40.12 50.90 C 35.15 54.79 28.03 54.54 23.19 50.61 Z" />
</g>
<g id="#ffffffff">
<path fill="#ffffff" opacity="1.00" d=" M 35.70 34.35 C 36.89 32.67 38.12 31.03 39.41 29.43 C 40.33 29.48 42.18 29.59 43.10 29.64 C 44.29 30.52 45.48 31.39 46.68 32.24 C 47.47 35.65 48.20 39.73 45.49 42.53 C 43.81 44.72 40.93 44.61 38.50 44.03 C 36.09 41.38 35.56 37.82 35.70 34.35 M 40.90 41.43 C 45.86 41.01 45.34 33.71 41.91 31.37 C 37.72 32.84 36.89 39.30 40.90 41.43 Z" />
</g>
<g id="#161616ff">
<path fill="#161616" opacity="1.00" d=" M 21.19 40.84 C 18.10 38.18 19.26 32.91 22.92 31.36 C 24.61 33.09 26.31 35.32 25.56 37.91 C 25.36 39.83 23.18 42.66 21.19 40.84 Z" />
<path fill="#161616" opacity="1.00" d=" M 40.90 41.43 C 36.89 39.30 37.72 32.84 41.91 31.37 C 45.34 33.71 45.86 41.01 40.90 41.43 Z" />
</g>
<g id="#815124ff">
<path fill="#815124" opacity="1.00" d=" M 46.68 32.24 C 48.96 32.54 51.29 33.44 52.62 35.43 C 54.51 37.98 53.73 41.33 53.24 44.21 C 53.65 44.47 54.45 44.97 54.85 45.23 C 56.67 47.44 58.82 49.93 58.59 53.00 C 58.68 55.73 55.89 57.13 53.63 57.70 C 43.81 59.83 33.82 57.68 23.95 57.32 C 18.67 56.99 13.37 59.17 8.16 57.88 C 4.44 56.79 4.82 52.15 4.34 49.08 C 5.02 48.13 5.72 47.20 6.45 46.30 C 6.34 47.75 6.22 49.20 6.10 50.66 C 10.81 49.49 15.53 48.38 20.24 47.22 C 26.25 45.70 32.56 45.90 38.50 44.03 C 40.93 44.61 43.81 44.72 45.49 42.53 C 48.20 39.73 47.47 35.65 46.68 32.24 M 21.06 47.64 C 21.70 48.64 22.34 49.64 22.98 50.64 L 23.19 50.61 C 28.03 54.54 35.15 54.79 40.12 50.90 L 39.39 50.61 C 39.86 50.78 40.81 51.14 41.28 51.31 C 41.51 50.40 41.98 48.56 42.21 47.64 C 35.16 47.98 28.11 47.82 21.06 47.64 Z" />
</g>
<g id="#8d603cfe">
<path fill="#8d603c" opacity="1.00" d=" M 12.19 34.02 C 13.18 33.55 15.16 32.62 16.15 32.15 C 16.38 32.63 16.83 33.59 17.06 34.07 C 16.82 35.27 16.60 36.47 16.40 37.67 C 15.18 37.76 13.96 37.82 12.74 37.85 C 12.46 36.59 12.35 35.30 12.19 34.02 Z" />
</g>
<g id="#936a46ff">
<path fill="#936a46" opacity="1.00" d=" M 34.64 34.74 C 34.91 34.64 35.44 34.45 35.70 34.35 C 35.56 37.82 36.09 41.38 38.50 44.03 C 32.56 45.90 26.25 45.70 20.24 47.22 C 15.53 48.38 10.81 49.49 6.10 50.66 C 6.22 49.20 6.34 47.75 6.45 46.30 C 8.01 45.67 9.57 45.00 11.23 44.70 C 13.96 44.68 16.68 44.34 19.36 43.84 C 22.35 45.01 25.39 44.04 27.57 41.81 C 30.06 41.21 32.55 40.63 35.05 40.06 C 34.92 38.29 34.78 36.51 34.64 34.74 Z" />
</g>
<g id="#5c3510f6">
<path fill="#5c3510" opacity="0.96" d=" M 54.85 45.23 C 60.15 46.48 61.15 52.68 59.23 57.04 C 56.16 58.95 52.62 60.04 48.99 60.00 C 41.03 60.06 33.04 60.29 25.12 59.38 C 18.43 58.58 11.42 61.65 5.01 58.68 C 3.62 55.66 3.89 52.28 4.34 49.08 C 4.82 52.15 4.44 56.79 8.16 57.88 C 13.37 59.17 18.67 56.99 23.95 57.32 C 33.82 57.68 43.81 59.83 53.63 57.70 C 55.89 57.13 58.68 55.73 58.59 53.00 C 58.82 49.93 56.67 47.44 54.85 45.23 Z" />
</g>
<g id="#c6c6c6ff">
<path fill="#c6c6c6" opacity="1.00" d=" M 21.06 47.64 C 28.11 47.82 35.16 47.98 42.21 47.64 C 41.98 48.56 41.51 50.40 41.28 51.31 C 40.81 51.14 39.86 50.78 39.39 50.61 C 39.06 50.47 38.38 50.20 38.05 50.06 C 33.12 49.06 28.07 49.60 23.19 50.61 L 22.98 50.64 C 22.34 49.64 21.70 48.64 21.06 47.64 Z" />
</g>
<g id="#0000001e">
<path fill="#000000" opacity="0.12" d=" M 48.99 60.00 C 52.62 60.04 56.16 58.95 59.23 57.04 C 58.07 60.06 55.28 62.01 52.03 62.05 C 42.38 62.58 32.69 62.34 23.04 61.82 C 17.71 61.54 12.32 62.97 7.04 61.89 C 5.54 61.62 5.60 59.74 5.01 58.68 C 11.42 61.65 18.43 58.58 25.12 59.38 C 33.04 60.29 41.03 60.06 48.99 60.00 Z" />
</g>
</svg>
