<?xml version="1.0" encoding="UTF-8" ?>
<!DOCTYPE svg PUBLIC "-//W3C//DTD SVG 1.1//EN" "http://www.w3.org/Graphics/SVG/1.1/DTD/svg11.dtd">
<svg width="64pt" height="64pt" viewBox="0 0 64 64" version="1.1" xmlns="http://www.w3.org/2000/svg">
<g id="#c4c4c4ff">
<path fill="#c4c4c4" opacity="1.00" d=" M 21.57 7.34 C 23.94 1.67 32.10 0.66 36.06 5.23 C 42.60 1.72 50.94 6.56 52.62 13.49 C 54.17 14.05 55.60 14.88 56.67 16.16 L 56.67 16.42 C 56.62 16.90 56.51 17.86 56.45 18.35 C 55.06 17.27 53.63 16.21 51.80 16.16 C 50.64 13.47 50.24 10.20 47.66 8.39 C 42.88 4.33 35.44 6.28 31.82 10.94 C 32.77 9.61 33.88 8.40 34.87 7.10 C 33.98 4.30 30.49 4.19 28.07 4.29 C 25.49 4.42 24.30 7.06 22.60 8.61 C 19.73 8.67 16.86 8.51 13.99 8.71 C 16.45 7.94 19.03 7.74 21.57 7.34 Z" />
</g>
<g id="#ffffffff">
<path fill="#ffffff" opacity="1.00" d=" M 22.60 8.61 C 24.30 7.06 25.49 4.42 28.07 4.29 C 30.49 4.19 33.98 4.30 34.87 7.10 C 33.88 8.40 32.77 9.61 31.82 10.94 C 35.44 6.28 42.88 4.33 47.66 8.39 C 50.24 10.20 50.64 13.47 51.80 16.16 C 53.63 16.21 55.06 17.27 56.45 18.35 C 56.54 21.29 56.80 24.34 55.18 26.95 C 57.15 30.57 58.73 35.01 55.77 38.60 C 54.49 41.17 51.77 42.65 49.35 44.01 C 49.38 45.00 49.38 45.98 49.36 46.97 C 47.56 48.00 45.79 49.07 44.22 50.44 C 42.76 50.46 41.31 50.46 39.86 50.45 C 39.15 49.42 38.61 48.31 38.25 47.13 C 35.22 50.34 30.68 51.07 26.51 50.34 C 24.51 48.98 22.11 47.99 20.69 45.95 C 20.26 44.10 20.19 42.19 19.98 40.30 C 19.78 40.72 19.37 41.55 19.17 41.97 C 18.53 42.66 17.86 43.32 17.17 43.95 C 14.35 40.35 11.67 36.65 9.01 32.94 C 7.11 30.53 8.07 27.47 8.29 24.72 C 9.10 23.60 9.82 22.42 10.55 21.25 C 9.20 18.98 9.43 16.31 9.50 13.77 C 10.74 11.87 12.21 10.12 13.99 8.71 C 16.86 8.51 19.73 8.67 22.60 8.61 Z" />
<path fill="#ffffff" opacity="1.00" d=" M 5.32 53.39 C 6.78 52.22 8.64 52.29 10.38 52.59 C 11.40 53.98 12.00 55.48 11.36 57.20 C 9.51 57.51 7.61 57.92 5.76 57.38 C 5.05 56.11 4.22 54.72 5.32 53.39 Z" />
</g>
<g id="#a7a7a7ff">
<path fill="#a7a7a7" opacity="1.00" d=" M 9.57 10.57 C 12.32 6.82 17.35 6.47 21.57 7.34 C 19.03 7.74 16.45 7.94 13.99 8.71 C 12.21 10.12 10.74 11.87 9.50 13.77 C 9.43 16.31 9.20 18.98 10.55 21.25 C 9.82 22.42 9.10 23.60 8.29 24.72 C 5.57 27.11 5.95 31.09 6.66 34.28 C 8.42 36.77 10.86 38.68 12.76 41.05 C 13.58 42.66 13.51 44.74 14.94 46.01 C 16.13 46.69 17.41 47.22 18.67 47.74 C 18.94 45.83 18.99 43.89 19.17 41.97 C 19.37 41.55 19.78 40.72 19.98 40.30 C 20.19 42.19 20.26 44.10 20.69 45.95 C 20.39 46.66 19.78 48.07 19.47 48.78 C 17.68 48.69 15.91 48.14 14.11 48.40 C 11.91 46.63 10.92 43.85 11.13 41.08 C 6.54 39.69 3.74 34.43 4.23 29.77 C 4.61 26.66 6.43 23.99 8.51 21.75 C 6.77 18.18 6.80 13.62 9.57 10.57 Z" />
</g>
<g id="#9b9b9bf8">
<path fill="#9b9b9b" opacity="0.97" d=" M 56.67 16.42 C 59.55 19.17 59.01 24.10 56.75 27.14 C 58.42 29.08 59.64 31.55 59.86 34.12 C 59.39 35.49 59.19 36.91 59.26 38.36 L 59.26 38.37 C 58.39 38.43 56.65 38.54 55.77 38.60 C 58.73 35.01 57.15 30.57 55.18 26.95 C 56.80 24.34 56.54 21.29 56.45 18.35 C 56.51 17.86 56.62 16.90 56.67 16.42 Z" />
</g>
<g id="#e1e1e1ff">
<path fill="#e1e1e1" opacity="1.00" d=" M 6.66 34.28 C 5.95 31.09 5.57 27.11 8.29 24.72 C 8.07 27.47 7.11 30.53 9.01 32.94 C 11.67 36.65 14.35 40.35 17.17 43.95 C 17.86 43.32 18.53 42.66 19.17 41.97 C 18.99 43.89 18.94 45.83 18.67 47.74 C 17.41 47.22 16.13 46.69 14.94 46.01 C 13.51 44.74 13.58 42.66 12.76 41.05 C 10.86 38.68 8.42 36.77 6.66 34.28 Z" />
</g>
<g id="#00000021">
<path fill="#000000" opacity="0.13" d=" M 7.65 42.37 C 4.35 39.46 1.64 33.74 4.23 29.77 C 3.74 34.43 6.54 39.69 11.13 41.08 C 10.92 43.85 11.91 46.63 14.11 48.40 C 15.79 50.49 18.53 49.83 20.83 49.94 C 24.78 54.24 31.50 55.09 36.14 51.33 C 39.90 53.52 45.00 53.39 48.28 50.34 C 50.54 48.73 51.38 46.06 52.95 43.92 C 55.89 43.46 57.76 40.71 59.26 38.37 L 59.26 38.36 C 60.46 37.20 60.67 35.51 60.87 33.94 C 61.26 38.64 59.49 43.75 55.19 46.12 C 51.74 48.04 50.91 52.58 47.23 54.21 C 44.41 56.08 40.97 55.68 37.80 55.29 C 34.47 54.72 31.46 57.03 28.13 56.65 C 25.10 56.43 22.72 54.26 19.86 53.47 C 17.35 52.72 14.44 52.45 12.58 50.36 C 10.52 47.95 10.33 44.33 7.65 42.37 Z" />
</g>
<g id="#737373ff">
<path fill="#737373" opacity="1.00" d=" M 55.77 38.60 C 56.65 38.54 58.39 38.43 59.26 38.37 C 57.76 40.71 55.89 43.46 52.95 43.92 C 51.38 46.06 50.54 48.73 48.28 50.34 C 45.00 53.39 39.90 53.52 36.14 51.33 C 31.50 55.09 24.78 54.24 20.83 49.94 C 18.53 49.83 15.79 50.49 14.11 48.40 C 15.91 48.14 17.68 48.69 19.47 48.78 C 19.78 48.07 20.39 46.66 20.69 45.95 C 22.11 47.99 24.51 48.98 26.51 50.34 C 30.68 51.07 35.22 50.34 38.25 47.13 C 38.61 48.31 39.15 49.42 39.86 50.45 C 41.31 50.46 42.76 50.46 44.22 50.44 C 45.79 49.07 47.56 48.00 49.36 46.97 C 49.38 45.98 49.38 45.00 49.35 44.01 C 51.77 42.65 54.49 41.17 55.77 38.60 Z" />
</g>
<g id="#b0b0b0ef">
<path fill="#b0b0b0" opacity="0.94" d=" M 3.66 53.76 C 4.66 51.52 7.92 50.28 9.98 51.60 L 10.38 52.59 C 8.64 52.29 6.78 52.22 5.32 53.39 C 4.22 54.72 5.05 56.11 5.76 57.38 C 7.61 57.92 9.51 57.51 11.36 57.20 C 10.43 59.83 6.57 60.05 4.93 57.99 C 3.66 56.98 4.02 55.16 3.66 53.76 Z" />
</g>
<g id="#656565e3">
<path fill="#656565" opacity="0.89" d=" M 9.98 51.60 C 13.89 52.74 14.06 58.72 10.39 60.29 C 6.74 63.39 0.64 57.55 3.66 53.76 C 4.02 55.16 3.66 56.98 4.93 57.99 C 6.57 60.05 10.43 59.83 11.36 57.20 C 12.00 55.48 11.40 53.98 10.38 52.59 L 9.98 51.60 Z" />
</g>
</svg>
