<?xml version="1.0" encoding="UTF-8" ?>
<!DOCTYPE svg PUBLIC "-//W3C//DTD SVG 1.1//EN" "http://www.w3.org/Graphics/SVG/1.1/DTD/svg11.dtd">
<svg width="64pt" height="64pt" viewBox="0 0 64 64" version="1.1" xmlns="http://www.w3.org/2000/svg">
<g id="#779ec3fe">
<path fill="#779ec3" opacity="1.00" d=" M 4.07 5.03 C 22.70 4.97 41.34 4.96 59.97 5.04 C 59.96 18.01 60.15 30.99 59.93 43.97 C 53.29 43.99 46.65 44.01 40.01 44.04 C 40.02 45.77 40.03 49.24 40.03 50.97 C 45.63 51.17 51.25 50.73 56.84 51.11 C 59.28 54.23 59.70 58.34 60.84 62.02 C 41.62 61.96 22.39 62.06 3.17 61.98 C 4.31 58.31 4.72 54.20 7.18 51.10 C 12.78 50.86 18.39 51.15 23.99 50.95 C 23.98 49.22 23.97 45.76 23.97 44.03 C 17.32 44.01 10.68 43.99 4.04 43.96 C 4.03 30.99 3.85 18.01 4.07 5.03 Z" />
</g>
</svg>
