<?xml version="1.0" encoding="UTF-8" ?>
<!DOCTYPE svg PUBLIC "-//W3C//DTD SVG 1.1//EN" "http://www.w3.org/Graphics/SVG/1.1/DTD/svg11.dtd">
<svg width="64pt" height="64pt" viewBox="0 0 64 64" version="1.1" xmlns="http://www.w3.org/2000/svg">
<g id="#68718efe">
<path fill="#68718e" opacity="1.00" d=" M 7.12 6.26 C 15.89 2.83 25.42 1.24 34.80 1.01 C 35.55 8.61 36.01 16.39 38.22 23.72 C 42.15 24.85 47.99 23.73 48.95 28.89 C 45.48 30.69 41.61 28.75 37.99 29.01 C 34.81 37.03 44.66 34.66 48.62 36.45 C 51.73 37.07 57.02 37.51 53.99 42.97 C 56.96 47.40 51.62 47.39 51.22 50.12 C 53.28 53.97 50.25 55.16 47.95 55.93 C 44.39 55.41 40.44 52.87 36.96 54.93 C 33.08 56.59 36.37 62.50 31.93 64.00 L 31.31 64.00 C 26.74 60.94 20.97 60.57 16.25 57.79 C 13.62 56.11 16.36 51.72 13.86 50.08 C 8.56 46.52 9.32 38.97 8.45 33.38 C 8.65 24.31 6.02 15.37 7.12 6.26 Z" />
</g>
</svg>
