<?xml version="1.0" encoding="UTF-8" ?>
<!DOCTYPE svg PUBLIC "-//W3C//DTD SVG 1.1//EN" "http://www.w3.org/Graphics/SVG/1.1/DTD/svg11.dtd">
<svg width="64pt" height="64pt" viewBox="0 0 64 64" version="1.1" xmlns="http://www.w3.org/2000/svg">
<g id="#22201a75">
<path fill="#22201a" opacity="0.46" d=" M 2.46 13.38 C 3.81 12.46 5.25 11.49 6.99 11.71 C 23.68 11.72 40.37 11.72 57.05 11.71 C 58.34 11.61 59.52 12.16 60.59 12.81 L 59.66 13.04 C 41.02 12.98 22.37 12.97 3.73 13.04 C 3.52 15.09 3.25 17.13 3.27 19.20 C 3.30 21.32 3.34 23.45 3.34 25.57 C 3.33 28.74 3.33 31.90 3.34 35.07 C 3.38 39.84 3.22 44.61 3.42 49.38 C 3.55 49.77 3.82 50.57 3.96 50.97 C 17.60 51.70 31.29 51.09 44.96 51.28 C 49.99 51.28 55.03 51.48 60.04 50.97 C 60.18 50.57 60.45 49.78 60.58 49.38 C 60.76 43.56 60.66 37.73 60.63 31.91 C 60.58 29.81 60.69 27.71 60.86 25.61 C 60.99 23.46 61.02 21.30 60.92 19.15 C 60.76 17.39 60.53 15.64 60.47 13.88 C 62.30 14.45 61.48 16.59 61.68 17.95 C 61.38 29.44 62.39 40.95 61.34 52.42 C 44.60 53.36 27.78 52.55 11.01 52.85 C 8.35 52.66 5.36 53.32 2.92 52.08 C 2.04 49.84 2.36 47.35 2.26 45.00 C 2.39 34.46 2.07 23.92 2.46 13.38 Z" />
</g>
<g id="#e9deb9ff">
<path fill="#e9deb9" opacity="1.00" d=" M 3.27 19.20 C 3.25 17.13 3.52 15.09 3.73 13.04 C 9.34 14.84 15.25 14.03 21.03 14.13 C 31.36 14.18 41.68 14.09 52.01 14.23 C 54.61 14.28 57.17 13.74 59.66 13.04 L 60.59 12.81 C 60.56 13.08 60.50 13.61 60.47 13.88 C 60.53 15.64 60.76 17.39 60.92 19.15 C 59.10 19.17 57.28 19.19 55.46 19.24 C 47.35 19.07 39.25 19.31 31.15 19.20 C 21.86 19.02 12.56 19.31 3.27 19.20 Z" />
</g>
<g id="#f2edd8ff">
<path fill="#f2edd8" opacity="1.00" d=" M 3.73 13.04 C 22.37 12.97 41.02 12.98 59.66 13.04 C 57.17 13.74 54.61 14.28 52.01 14.23 C 41.68 14.09 31.36 14.18 21.03 14.13 C 15.25 14.03 9.34 14.84 3.73 13.04 Z" />
<path fill="#f2edd8" opacity="1.00" d=" M 21.84 38.56 C 22.65 36.48 25.89 35.94 25.97 38.72 C 24.59 38.89 23.21 38.84 21.84 38.56 Z" />
</g>
<g id="#454545ff">
<path fill="#454545" opacity="1.00" d=" M 3.27 19.20 C 12.56 19.31 21.86 19.02 31.15 19.20 L 31.36 19.73 C 27.36 19.72 23.37 19.97 19.38 20.30 C 19.21 22.06 19.04 23.81 18.86 25.57 C 13.69 25.59 8.51 25.56 3.34 25.57 C 3.34 23.45 3.30 21.32 3.27 19.20 Z" />
<path fill="#454545" opacity="1.00" d=" M 6.54 29.16 C 9.10 28.42 11.79 28.48 14.35 29.22 C 11.76 29.64 9.12 29.67 6.54 29.16 Z" />
<path fill="#454545" opacity="1.00" d=" M 19.51 28.49 C 23.17 30.55 27.49 27.24 31.24 29.45 C 28.57 29.49 25.86 29.45 23.29 30.32 C 21.81 30.97 20.35 29.62 19.51 28.49 Z" />
<path fill="#454545" opacity="1.00" d=" M 50.22 32.92 C 50.47 33.45 50.96 34.51 51.21 35.03 C 51.49 34.60 52.06 33.73 52.35 33.30 C 52.50 36.65 54.24 33.77 54.89 33.00 C 55.18 33.85 55.46 34.70 55.73 35.55 C 53.54 35.82 51.34 36.05 49.14 35.81 C 49.49 34.85 49.86 33.88 50.22 32.92 Z" />
</g>
<g id="#262626ff">
<path fill="#262626" opacity="1.00" d=" M 31.15 19.20 C 39.25 19.31 47.35 19.07 55.46 19.24 C 51.46 20.81 47.65 22.86 44.30 25.56 C 40.38 25.59 36.46 25.55 32.54 25.56 C 32.13 23.62 31.80 21.67 31.36 19.73 L 31.15 19.20 Z" />
<path fill="#262626" opacity="1.00" d=" M 3.96 50.97 C 22.65 50.87 41.35 50.87 60.04 50.97 C 55.03 51.48 49.99 51.28 44.96 51.28 C 31.29 51.09 17.60 51.70 3.96 50.97 Z" />
</g>
<g id="#353535ff">
<path fill="#353535" opacity="1.00" d=" M 19.38 20.30 C 23.37 19.97 27.36 19.72 31.36 19.73 C 31.80 21.67 32.13 23.62 32.54 25.56 C 27.98 25.58 23.42 25.55 18.86 25.57 C 19.04 23.81 19.21 22.06 19.38 20.30 Z" />
</g>
<g id="#040404ff">
<path fill="#040404" opacity="1.00" d=" M 44.30 25.56 C 47.65 22.86 51.46 20.81 55.46 19.24 C 57.28 19.19 59.10 19.17 60.92 19.15 C 61.02 21.30 60.99 23.46 60.86 25.61 C 55.34 25.53 49.82 25.55 44.30 25.56 Z" />
</g>
<g id="#e4d7aaff">
<path fill="#e4d7aa" opacity="1.00" d=" M 3.34 25.57 C 8.51 25.56 13.69 25.59 18.86 25.57 C 23.42 25.55 27.98 25.58 32.54 25.56 C 36.46 25.55 40.38 25.59 44.30 25.56 C 49.82 25.55 55.34 25.53 60.86 25.61 C 60.69 27.71 60.58 29.81 60.63 31.91 C 59.63 32.64 58.63 33.37 57.62 34.10 C 57.60 33.61 57.55 32.62 57.52 32.13 C 52.45 31.89 47.36 32.00 42.29 32.03 L 41.79 32.04 C 39.07 32.04 36.36 31.99 33.64 31.99 C 33.31 31.99 32.63 32.00 32.29 32.00 C 30.24 32.01 28.20 32.00 26.15 32.03 L 25.56 32.04 C 22.31 32.04 19.06 31.95 15.81 31.97 L 15.38 31.98 C 12.38 32.01 9.37 32.02 6.36 32.03 C 6.38 32.78 6.41 34.28 6.42 35.02 C 5.65 35.04 4.11 35.06 3.34 35.07 C 3.33 31.90 3.33 28.74 3.34 25.57 M 6.54 29.16 C 9.12 29.67 11.76 29.64 14.35 29.22 C 11.79 28.48 9.10 28.42 6.54 29.16 M 18.49 28.39 C 17.66 28.09 13.76 28.91 15.91 29.87 C 16.84 30.73 20.66 29.28 18.49 28.39 M 19.51 28.49 C 20.35 29.62 21.81 30.97 23.29 30.32 C 25.86 29.45 28.57 29.49 31.24 29.45 C 27.49 27.24 23.17 30.55 19.51 28.49 Z" />
</g>
<g id="#8d876eff">
<path fill="#8d876e" opacity="1.00" d=" M 18.49 28.39 C 20.66 29.28 16.84 30.73 15.91 29.87 C 13.76 28.91 17.66 28.09 18.49 28.39 Z" />
</g>
<g id="#ffffffff">
<path fill="#ffffff" opacity="1.00" d=" M 6.36 32.03 C 9.37 32.02 12.38 32.01 15.38 31.98 C 15.13 32.76 14.62 34.32 14.36 35.10 C 12.76 35.09 11.87 33.96 11.28 32.56 C 10.93 34.33 10.33 36.04 9.56 37.67 C 9.02 37.89 7.93 38.31 7.39 38.52 L 6.42 38.53 C 6.42 37.36 6.43 36.19 6.42 35.02 C 6.41 34.28 6.38 32.78 6.36 32.03 Z" />
<path fill="#ffffff" opacity="1.00" d=" M 15.81 31.97 C 19.06 31.95 22.31 32.04 25.56 32.04 C 23.95 34.28 22.37 36.55 20.38 38.48 C 17.27 38.72 14.15 39.05 11.04 38.75 C 11.80 38.09 12.57 37.42 13.33 36.76 C 14.00 37.38 14.67 37.99 15.34 38.59 C 16.30 38.46 18.23 38.19 19.19 38.05 C 19.23 37.06 19.70 35.95 19.00 35.08 C 17.98 35.23 16.97 35.40 15.96 35.60 C 15.90 34.39 15.85 33.18 15.81 31.97 Z" />
<path fill="#ffffff" opacity="1.00" d=" M 42.29 32.03 C 47.36 32.00 52.45 31.89 57.52 32.13 C 57.55 32.62 57.60 33.61 57.62 34.10 C 57.65 35.59 57.68 37.08 57.63 38.57 C 51.33 38.54 45.03 38.42 38.73 38.62 L 38.72 38.62 C 34.79 38.58 30.85 38.28 26.92 38.60 C 27.45 37.72 27.90 36.80 28.25 35.82 C 28.48 36.39 28.93 37.53 29.16 38.10 C 30.05 37.41 31.07 36.92 32.24 37.29 L 31.75 37.57 C 34.83 37.67 37.91 37.52 41.00 37.60 C 41.44 35.75 41.87 33.89 42.29 32.03 M 50.22 32.92 C 49.86 33.88 49.49 34.85 49.14 35.81 C 51.34 36.05 53.54 35.82 55.73 35.55 C 55.46 34.70 55.18 33.85 54.89 33.00 C 54.24 33.77 52.50 36.65 52.35 33.30 C 52.06 33.73 51.49 34.60 51.21 35.03 C 50.96 34.51 50.47 33.45 50.22 32.92 Z" />
</g>
<g id="#b0c2e0ff">
<path fill="#b0c2e0" opacity="1.00" d=" M 15.38 31.98 L 15.81 31.97 C 15.85 33.18 15.90 34.39 15.96 35.60 C 16.97 35.40 17.98 35.23 19.00 35.08 C 19.70 35.95 19.23 37.06 19.19 38.05 C 18.23 38.19 16.30 38.46 15.34 38.59 C 14.67 37.99 14.00 37.38 13.33 36.76 C 12.57 37.42 11.80 38.09 11.04 38.75 C 9.82 38.66 8.61 38.58 7.39 38.52 C 7.93 38.31 9.02 37.89 9.56 37.67 C 10.33 36.04 10.93 34.33 11.28 32.56 C 11.87 33.96 12.76 35.09 14.36 35.10 C 14.62 34.32 15.13 32.76 15.38 31.98 Z" />
</g>
<g id="#b6c7e3ff">
<path fill="#b6c7e3" opacity="1.00" d=" M 25.56 32.04 L 26.15 32.03 C 26.09 33.52 26.03 35.01 25.97 36.51 C 26.66 35.80 27.34 35.10 28.02 34.40 C 29.20 34.49 30.38 34.58 31.56 34.67 C 31.74 34.01 32.11 32.67 32.29 32.00 C 32.63 32.00 33.31 31.99 33.64 31.99 C 33.42 32.83 33.19 33.67 32.96 34.51 C 35.22 34.60 37.49 34.68 39.75 34.74 C 40.42 33.83 41.10 32.93 41.79 32.04 L 42.29 32.03 C 41.87 33.89 41.44 35.75 41.00 37.60 C 37.91 37.52 34.83 37.67 31.75 37.57 L 32.24 37.29 C 31.07 36.92 30.05 37.41 29.16 38.10 C 28.93 37.53 28.48 36.39 28.25 35.82 C 27.90 36.80 27.45 37.72 26.92 38.60 L 25.97 38.72 C 25.89 35.94 22.65 36.48 21.84 38.56 L 20.38 38.48 C 22.37 36.55 23.95 34.28 25.56 32.04 Z" />
</g>
<g id="#f6f8fcff">
<path fill="#f6f8fc" opacity="1.00" d=" M 26.15 32.03 C 28.20 32.00 30.24 32.01 32.29 32.00 C 32.11 32.67 31.74 34.01 31.56 34.67 C 30.38 34.58 29.20 34.49 28.02 34.40 C 27.34 35.10 26.66 35.80 25.97 36.51 C 26.03 35.01 26.09 33.52 26.15 32.03 Z" />
</g>
<g id="#fafbfdff">
<path fill="#fafbfd" opacity="1.00" d=" M 33.64 31.99 C 36.36 31.99 39.07 32.04 41.79 32.04 C 41.10 32.93 40.42 33.83 39.75 34.74 C 37.49 34.68 35.22 34.60 32.96 34.51 C 33.19 33.67 33.42 32.83 33.64 31.99 Z" />
</g>
<g id="#decf99ff">
<path fill="#decf99" opacity="1.00" d=" M 57.62 34.10 C 58.63 33.37 59.63 32.64 60.63 31.91 C 60.66 37.73 60.76 43.56 60.58 49.38 C 41.53 49.58 22.47 49.45 3.42 49.38 C 3.22 44.61 3.38 39.84 3.34 35.07 C 4.11 35.06 5.65 35.04 6.42 35.02 C 6.43 36.19 6.42 37.36 6.42 38.53 L 7.39 38.52 C 8.61 38.58 9.82 38.66 11.04 38.75 C 14.15 39.05 17.27 38.72 20.38 38.48 C 20.48 39.71 20.59 40.94 20.70 42.17 C 25.39 40.92 30.25 41.11 35.05 40.93 C 36.69 41.07 37.65 39.56 38.72 38.62 L 38.73 38.62 C 39.59 40.08 39.68 42.97 42.00 42.69 C 45.63 42.37 49.24 41.81 52.89 41.86 C 54.98 41.89 58.14 41.43 57.63 38.57 C 57.68 37.08 57.65 35.59 57.62 34.10 M 30.07 45.48 C 30.41 46.00 31.10 47.05 31.44 47.57 C 38.50 47.48 45.55 47.24 52.61 47.49 C 54.26 47.66 57.36 46.75 56.43 44.61 C 50.96 44.34 45.46 44.82 40.00 44.26 C 36.70 44.30 32.90 43.30 30.07 45.48 Z" />
</g>
<g id="#ccc092ff">
<path fill="#ccc092" opacity="1.00" d=" M 20.38 38.48 L 21.84 38.56 C 23.21 38.84 24.59 38.89 25.97 38.72 L 26.92 38.60 C 30.85 38.28 34.79 38.58 38.72 38.62 C 37.65 39.56 36.69 41.07 35.05 40.93 C 30.25 41.11 25.39 40.92 20.70 42.17 C 20.59 40.94 20.48 39.71 20.38 38.48 Z" />
</g>
<g id="#cabe8fff">
<path fill="#cabe8f" opacity="1.00" d=" M 38.73 38.62 C 45.03 38.42 51.33 38.54 57.63 38.57 C 58.14 41.43 54.98 41.89 52.89 41.86 C 49.24 41.81 45.63 42.37 42.00 42.69 C 39.68 42.97 39.59 40.08 38.73 38.62 Z" />
</g>
<g id="#c9bc8bff">
<path fill="#c9bc8b" opacity="1.00" d=" M 30.07 45.48 C 32.90 43.30 36.70 44.30 40.00 44.26 C 45.46 44.82 50.96 44.34 56.43 44.61 C 57.36 46.75 54.26 47.66 52.61 47.49 C 45.55 47.24 38.50 47.48 31.44 47.57 C 31.10 47.05 30.41 46.00 30.07 45.48 Z" />
</g>
<g id="#c4b684ff">
<path fill="#c4b684" opacity="1.00" d=" M 3.42 49.38 C 22.47 49.45 41.53 49.58 60.58 49.38 C 60.45 49.78 60.18 50.57 60.04 50.97 C 41.35 50.87 22.65 50.87 3.96 50.97 C 3.82 50.57 3.55 49.77 3.42 49.38 Z" />
</g>
</svg>
