<?xml version="1.0" encoding="UTF-8" ?>
<!DOCTYPE svg PUBLIC "-//W3C//DTD SVG 1.1//EN" "http://www.w3.org/Graphics/SVG/1.1/DTD/svg11.dtd">
<svg width="64pt" height="64pt" viewBox="0 0 64 64" version="1.1" xmlns="http://www.w3.org/2000/svg">
<g id="#e5e3e1ff">
<path fill="#e5e3e1" opacity="1.00" d=" M 9.24 15.56 C 15.72 6.25 28.48 1.56 39.34 4.99 C 37.49 5.03 35.65 5.09 33.81 5.14 C 35.83 6.07 38.01 6.86 39.69 8.34 C 39.78 11.82 37.91 14.91 36.97 18.16 C 36.11 20.14 37.25 22.18 37.62 24.14 C 36.11 23.32 34.50 22.67 32.75 22.66 C 32.25 18.13 32.68 13.56 32.27 9.04 C 31.58 6.41 28.76 7.30 26.80 7.46 C 24.20 7.83 21.68 8.71 19.37 9.96 C 16.48 11.47 13.77 13.35 11.43 15.63 C 10.27 16.88 9.25 18.27 8.49 19.80 C 6.93 22.82 5.99 26.11 5.71 29.49 C 5.34 29.05 4.59 28.18 4.22 27.75 C 4.97 23.37 6.71 19.21 9.24 15.56 Z" />
<path fill="#e5e3e1" opacity="1.00" d=" M 38.63 25.44 C 40.84 25.45 42.47 26.99 44.17 28.17 C 48.44 27.70 52.29 25.24 56.63 25.28 C 58.04 26.23 57.86 28.39 58.60 29.83 C 58.88 29.33 59.44 28.35 59.73 27.85 C 60.44 33.19 59.76 38.76 57.50 43.67 C 56.93 39.64 58.46 35.65 57.84 31.60 C 53.52 31.35 49.30 32.66 44.99 32.48 C 43.30 32.66 42.35 30.96 41.29 29.95 C 40.60 28.34 39.76 26.79 38.63 25.44 Z" />
</g>
<g id="#ffffffff">
<path fill="#ffffff" opacity="1.00" d=" M 33.81 5.14 C 35.65 5.09 37.49 5.03 39.34 4.99 C 42.58 5.78 45.65 7.26 48.34 9.23 C 54.36 13.67 58.65 20.42 59.73 27.85 C 59.44 28.35 58.88 29.33 58.60 29.83 C 57.86 28.39 58.04 26.23 56.63 25.28 C 52.29 25.24 48.44 27.70 44.17 28.17 C 42.47 26.99 40.84 25.45 38.63 25.44 L 38.39 25.25 C 38.20 24.97 37.81 24.42 37.62 24.14 C 37.25 22.18 36.11 20.14 36.97 18.16 C 37.91 14.91 39.78 11.82 39.69 8.34 C 38.01 6.86 35.83 6.07 33.81 5.14 Z" />
<path fill="#ffffff" opacity="1.00" d=" M 10.12 40.17 C 13.39 39.17 16.47 37.46 19.91 37.06 C 22.65 38.45 24.77 40.95 26.65 43.34 C 26.82 47.43 23.65 50.88 23.17 54.91 C 23.56 56.21 24.11 57.50 24.06 58.90 C 15.04 56.31 7.66 48.87 5.13 39.84 C 6.83 39.38 8.44 40.81 10.12 40.17 Z" />
</g>
<g id="#daccc0ff">
<path fill="#daccc0" opacity="1.00" d=" M 26.80 7.46 C 28.76 7.30 31.58 6.41 32.27 9.04 C 32.68 13.56 32.25 18.13 32.75 22.66 C 31.58 22.73 30.50 22.48 29.51 21.91 C 29.16 17.02 28.23 12.16 26.80 7.46 Z" />
</g>
<g id="#e7c9adff">
<path fill="#e7c9ad" opacity="1.00" d=" M 19.37 9.96 C 21.68 8.71 24.20 7.83 26.80 7.46 C 28.23 12.16 29.16 17.02 29.51 21.91 C 29.39 21.87 29.16 21.78 29.04 21.73 C 28.92 22.02 28.68 22.59 28.56 22.88 L 27.77 23.33 C 24.28 19.37 21.67 14.69 19.37 9.96 Z" />
</g>
<g id="#0101016d">
<path fill="#010101" opacity="0.43" d=" M 48.34 9.23 C 50.23 8.36 51.39 10.42 52.58 11.45 C 58.81 17.48 61.94 26.47 60.84 35.06 C 60.03 46.52 51.80 56.98 40.90 60.59 C 38.11 62.06 34.80 61.09 31.94 62.41 C 29.46 61.99 27.02 61.23 24.45 61.30 C 13.96 58.42 5.56 49.28 3.52 38.60 C 2.17 31.05 3.08 22.79 7.47 16.34 C 7.91 16.15 8.79 15.76 9.24 15.56 C 6.71 19.21 4.97 23.37 4.22 27.75 C 3.83 30.52 3.89 33.39 4.30 36.16 C 4.52 37.40 4.71 38.65 5.13 39.84 C 7.66 48.87 15.04 56.31 24.06 58.90 C 25.30 59.36 26.62 59.54 27.92 59.76 C 32.75 60.51 37.73 59.91 42.29 58.18 C 42.56 58.07 43.10 57.83 43.36 57.72 C 45.13 56.87 46.88 55.95 48.45 54.77 C 50.40 53.43 52.14 51.78 53.65 49.96 C 54.77 48.50 55.85 46.98 56.70 45.34 C 56.90 44.92 57.30 44.08 57.50 43.67 C 59.76 38.76 60.44 33.19 59.73 27.85 C 58.65 20.42 54.36 13.67 48.34 9.23 Z" />
</g>
<g id="#c9eebfff">
<path fill="#c9eebf" opacity="1.00" d=" M 11.43 15.63 C 13.77 13.35 16.48 11.47 19.37 9.96 C 21.67 14.69 24.28 19.37 27.77 23.33 C 26.48 23.95 25.39 24.88 24.38 25.88 C 23.98 25.64 23.17 25.15 22.77 24.91 C 19.26 21.56 15.75 17.87 11.43 15.63 Z" />
</g>
<g id="#a7c0ecff">
<path fill="#a7c0ec" opacity="1.00" d=" M 11.43 15.63 C 15.75 17.87 19.26 21.56 22.77 24.91 C 21.60 25.64 20.21 26.01 19.03 25.09 C 15.53 23.30 12.06 21.44 8.49 19.80 C 9.25 18.27 10.27 16.88 11.43 15.63 Z" />
</g>
<g id="#c2bdc8ff">
<path fill="#c2bdc8" opacity="1.00" d=" M 5.71 29.49 C 5.99 26.11 6.93 22.82 8.49 19.80 C 12.06 21.44 15.53 23.30 19.03 25.09 C 20.21 26.01 21.60 25.64 22.77 24.91 C 23.17 25.15 23.98 25.64 24.38 25.88 C 22.93 27.70 22.21 29.90 22.40 32.22 C 18.53 29.44 13.53 29.62 9.02 28.86 C 8.10 29.34 7.23 29.92 6.32 30.42 C 6.17 30.19 5.86 29.72 5.71 29.49 Z" />
</g>
<g id="#777672e4">
<path fill="#777672" opacity="0.89" d=" M 29.04 21.73 C 29.16 21.78 29.39 21.87 29.51 21.91 C 30.50 22.48 31.58 22.73 32.75 22.66 C 34.50 22.67 36.11 23.32 37.62 24.14 C 37.81 24.42 38.20 24.97 38.39 25.25 C 35.20 24.19 31.82 25.13 28.55 24.60 C 26.35 26.48 23.41 28.29 23.09 31.46 C 22.65 33.34 23.34 35.20 23.90 36.97 C 23.68 36.64 23.25 35.97 23.03 35.64 C 22.81 34.50 22.61 33.36 22.40 32.22 C 22.21 29.90 22.93 27.70 24.38 25.88 C 25.39 24.88 26.48 23.95 27.77 23.33 L 28.56 22.88 C 28.68 22.59 28.92 22.02 29.04 21.73 Z" />
</g>
<g id="#4c4d4d8a">
<path fill="#4c4d4d" opacity="0.54" d=" M 28.55 24.60 C 31.82 25.13 35.20 24.19 38.39 25.25 L 38.63 25.44 C 39.76 26.79 40.60 28.34 41.29 29.95 C 42.29 34.41 39.89 38.95 35.74 40.79 L 35.01 41.06 C 31.90 42.13 28.30 41.34 25.87 39.13 C 25.16 38.45 24.51 37.73 23.90 36.97 C 23.34 35.20 22.65 33.34 23.09 31.46 C 23.41 28.29 26.35 26.48 28.55 24.60 M 28.66 29.88 L 28.45 31.66 C 27.63 31.21 26.90 30.63 26.17 30.06 C 25.16 32.80 25.86 35.97 28.55 37.40 C 33.06 40.83 40.53 35.55 37.71 30.19 C 36.92 30.24 35.34 30.35 34.55 30.40 L 34.47 29.45 C 32.52 29.57 30.49 28.96 28.66 29.88 Z" />
</g>
<g id="#d1cfd0ff">
<path fill="#d1cfd0" opacity="1.00" d=" M 4.22 27.75 C 4.59 28.18 5.34 29.05 5.71 29.49 C 5.86 29.72 6.17 30.19 6.32 30.42 C 7.23 29.92 8.10 29.34 9.02 28.86 C 13.53 29.62 18.53 29.44 22.40 32.22 C 22.61 33.36 22.81 34.50 23.03 35.64 C 21.70 35.22 20.63 34.31 19.46 33.59 C 14.68 32.37 9.16 36.59 4.84 33.20 C 4.70 33.94 4.43 35.42 4.30 36.16 C 3.89 33.39 3.83 30.52 4.22 27.75 Z" />
</g>
<g id="#2d2e2e47">
<path fill="#2d2e2e" opacity="0.28" d=" M 26.17 30.06 C 26.90 30.63 27.63 31.21 28.45 31.66 C 28.91 32.82 29.30 34.03 30.01 35.07 C 31.48 35.72 33.22 35.54 34.49 34.53 C 34.76 33.17 34.58 31.78 34.55 30.40 C 35.34 30.35 36.92 30.24 37.71 30.19 C 40.53 35.55 33.06 40.83 28.55 37.40 C 25.86 35.97 25.16 32.80 26.17 30.06 Z" />
</g>
<g id="#ccc7c4ff">
<path fill="#ccc7c4" opacity="1.00" d=" M 41.29 29.95 C 42.35 30.96 43.30 32.66 44.99 32.48 C 49.30 32.66 53.52 31.35 57.84 31.60 C 58.46 35.65 56.93 39.64 57.50 43.67 C 57.30 44.08 56.90 44.92 56.70 45.34 C 55.16 43.01 52.40 42.14 49.97 41.05 C 47.33 39.98 44.91 38.41 42.21 37.47 C 41.79 38.19 41.39 38.92 41.01 39.66 C 40.40 39.99 39.19 40.65 38.59 40.99 C 37.88 40.94 36.45 40.84 35.74 40.79 C 39.89 38.95 42.29 34.41 41.29 29.95 Z" />
</g>
<g id="#edecebff">
<path fill="#edeceb" opacity="1.00" d=" M 4.84 33.20 C 9.16 36.59 14.68 32.37 19.46 33.59 C 20.63 34.31 21.70 35.22 23.03 35.64 C 23.25 35.97 23.68 36.64 23.90 36.97 C 24.51 37.73 25.16 38.45 25.87 39.13 C 27.49 41.54 30.69 43.96 29.34 47.19 C 28.66 50.57 27.33 53.85 27.38 57.34 C 28.03 57.63 29.32 58.20 29.97 58.49 C 29.46 58.81 28.43 59.44 27.92 59.76 C 26.62 59.54 25.30 59.36 24.06 58.90 C 24.11 57.50 23.56 56.21 23.17 54.91 C 23.65 50.88 26.82 47.43 26.65 43.34 C 24.77 40.95 22.65 38.45 19.91 37.06 C 16.47 37.46 13.39 39.17 10.12 40.17 C 8.44 40.81 6.83 39.38 5.13 39.84 C 4.71 38.65 4.52 37.40 4.30 36.16 C 4.43 35.42 4.70 33.94 4.84 33.20 Z" />
</g>
<g id="#aabfe8ff">
<path fill="#aabfe8" opacity="1.00" d=" M 42.21 37.47 C 44.91 38.41 47.33 39.98 49.97 41.05 C 52.40 42.14 55.16 43.01 56.70 45.34 C 55.85 46.98 54.77 48.50 53.65 49.96 C 47.90 48.94 45.57 42.65 41.01 39.66 C 41.39 38.92 41.79 38.19 42.21 37.47 Z" />
</g>
<g id="#dfd9d3ff">
<path fill="#dfd9d3" opacity="1.00" d=" M 25.87 39.13 C 28.30 41.34 31.90 42.13 35.01 41.06 C 33.79 41.50 32.57 41.94 31.38 42.45 C 32.60 47.49 32.40 52.71 31.33 57.81 C 33.96 58.31 36.64 58.02 39.28 57.84 C 40.03 57.92 41.54 58.10 42.29 58.18 C 37.73 59.91 32.75 60.51 27.92 59.76 C 28.43 59.44 29.46 58.81 29.97 58.49 C 29.32 58.20 28.03 57.63 27.38 57.34 C 27.33 53.85 28.66 50.57 29.34 47.19 C 30.69 43.96 27.49 41.54 25.87 39.13 Z" />
</g>
<g id="#bae9d0ff">
<path fill="#bae9d0" opacity="1.00" d=" M 38.59 40.99 C 39.19 40.65 40.40 39.99 41.01 39.66 C 45.57 42.65 47.90 48.94 53.65 49.96 C 52.14 51.78 50.40 53.43 48.45 54.77 C 46.92 49.52 42.59 45.53 39.06 41.49 L 38.59 40.99 Z" />
</g>
<g id="#dac9bcff">
<path fill="#dac9bc" opacity="1.00" d=" M 35.01 41.06 L 35.74 40.79 C 36.45 40.84 37.88 40.94 38.59 40.99 L 39.06 41.49 C 38.68 41.80 37.90 42.41 37.52 42.71 C 36.46 43.28 35.90 44.43 36.38 45.59 C 36.99 49.76 40.01 53.48 39.28 57.84 C 36.64 58.02 33.96 58.31 31.33 57.81 C 32.40 52.71 32.60 47.49 31.38 42.45 C 32.57 41.94 33.79 41.50 35.01 41.06 Z" />
</g>
<g id="#dae8b9fe">
<path fill="#dae8b9" opacity="1.00" d=" M 37.52 42.71 C 37.90 42.41 38.68 41.80 39.06 41.49 C 42.59 45.53 46.92 49.52 48.45 54.77 C 46.88 55.95 45.13 56.87 43.36 57.72 C 43.83 56.15 45.01 54.37 44.29 52.73 C 42.11 49.34 39.52 46.22 37.52 42.71 Z" />
</g>
<g id="#eeceabff">
<path fill="#eeceab" opacity="1.00" d=" M 36.38 45.59 C 35.90 44.43 36.46 43.28 37.52 42.71 C 39.52 46.22 42.11 49.34 44.29 52.73 C 45.01 54.37 43.83 56.15 43.36 57.72 C 43.10 57.83 42.56 58.07 42.29 58.18 C 41.54 58.10 40.03 57.92 39.28 57.84 C 40.01 53.48 36.99 49.76 36.38 45.59 Z" />
</g>
</svg>
