<?xml version="1.0" encoding="UTF-8" ?>
<!DOCTYPE svg PUBLIC "-//W3C//DTD SVG 1.1//EN" "http://www.w3.org/Graphics/SVG/1.1/DTD/svg11.dtd">
<svg width="64pt" height="64pt" viewBox="0 0 64 64" version="1.1" xmlns="http://www.w3.org/2000/svg">
<g id="#bdaa6df7">
<path fill="#bdaa6d" opacity="0.97" d=" M 37.83 2.24 C 41.73 2.09 43.30 5.52 47.08 5.20 C 45.06 7.46 43.07 9.75 41.02 11.98 C 40.32 12.68 39.63 13.39 38.94 14.11 L 39.04 13.17 C 39.20 10.48 40.99 8.54 42.97 6.96 C 42.02 0.72 31.12 3.71 32.94 9.73 L 32.85 10.78 C 31.08 12.50 29.32 14.23 27.43 15.82 C 25.61 13.24 24.04 10.19 20.96 8.93 C 19.57 7.74 16.83 7.43 16.97 5.16 C 18.63 4.80 21.23 5.58 21.32 3.13 C 26.89 3.90 32.40 4.30 37.83 2.24 Z" />
</g>
<g id="#e3d18eff">
<path fill="#e3d18e" opacity="1.00" d=" M 32.94 9.73 C 31.12 3.71 42.02 0.72 42.97 6.96 C 40.99 8.54 39.20 10.48 39.04 13.17 C 35.56 15.49 35.79 10.30 32.94 9.73 Z" />
</g>
<g id="#ad8c40fc">
<path fill="#ad8c40" opacity="1.00" d=" M 20.96 8.93 C 24.04 10.19 25.61 13.24 27.43 15.82 C 29.32 14.23 31.08 12.50 32.85 10.78 C 32.82 13.71 34.09 16.34 35.15 18.98 C 31.83 19.11 28.44 19.30 25.23 18.35 C 23.25 15.94 22.52 11.93 20.96 8.93 Z" />
</g>
<g id="#d7b553ff">
<path fill="#d7b553" opacity="1.00" d=" M 32.94 9.73 C 35.79 10.30 35.56 15.49 39.04 13.17 L 38.94 14.11 C 38.66 15.53 38.35 16.95 38.09 18.39 C 37.14 18.71 36.15 18.91 35.15 18.98 C 34.09 16.34 32.82 13.71 32.85 10.78 L 32.94 9.73 Z" />
</g>
<g id="#796636ec">
<path fill="#796636" opacity="0.93" d=" M 38.94 14.11 C 39.63 13.39 40.32 12.68 41.02 11.98 C 41.04 14.09 41.02 17.32 38.78 18.20 L 38.09 18.39 C 38.35 16.95 38.66 15.53 38.94 14.11 Z" />
</g>
<g id="#664e20f4">
<path fill="#664e20" opacity="0.96" d=" M 25.23 18.35 C 28.44 19.30 31.83 19.11 35.15 18.98 C 36.15 18.91 37.14 18.71 38.09 18.39 L 38.78 18.20 C 39.39 19.26 40.24 20.14 41.03 21.06 C 39.70 20.94 38.36 20.81 37.03 20.66 C 34.70 19.99 31.80 18.71 29.87 20.73 C 29.41 20.78 28.50 20.87 28.05 20.92 C 26.39 21.19 24.39 20.64 22.97 21.67 C 22.53 22.03 21.66 22.75 21.22 23.11 C 20.21 23.50 19.20 23.87 18.20 24.25 C 18.65 20.93 23.84 21.12 25.23 18.35 Z" />
</g>
<g id="#4f3308ff">
<path fill="#4f3308" opacity="1.00" d=" M 29.87 20.73 C 31.80 18.71 34.70 19.99 37.03 20.66 C 34.91 21.17 32.72 21.41 30.53 21.23 L 29.87 20.73 Z" />
</g>
<g id="#c18f3dff">
<path fill="#c18f3d" opacity="1.00" d=" M 22.97 21.67 C 24.39 20.64 26.39 21.19 28.05 20.92 C 27.34 22.31 26.65 23.72 26.01 25.15 C 25.03 23.96 24.05 22.77 22.97 21.67 Z" />
</g>
<g id="#eace66ff">
<path fill="#eace66" opacity="1.00" d=" M 28.05 20.92 C 28.50 20.87 29.41 20.78 29.87 20.73 C 29.37 24.31 32.97 25.61 35.22 27.54 C 37.34 26.14 39.72 26.05 42.10 26.82 C 45.89 31.31 49.82 36.63 48.97 42.91 C 47.31 47.82 42.80 54.06 36.82 52.41 C 40.73 51.37 42.77 47.67 42.31 43.78 C 42.77 44.88 43.17 46.01 43.64 47.10 C 43.75 43.59 46.98 40.34 45.23 36.87 C 44.26 33.97 41.14 30.65 37.82 31.61 C 33.37 29.34 28.83 31.22 25.08 34.00 C 24.87 33.45 24.44 32.36 24.23 31.81 C 24.46 30.60 24.76 29.41 25.06 28.22 C 25.39 27.20 25.70 26.17 26.01 25.15 C 26.65 23.72 27.34 22.31 28.05 20.92 Z" />
</g>
<g id="#dfb94cff">
<path fill="#dfb94c" opacity="1.00" d=" M 29.87 20.73 L 30.53 21.23 C 31.93 22.47 33.25 23.80 34.71 24.98 C 34.44 21.20 37.74 21.66 40.87 21.96 C 41.19 22.43 41.82 23.38 42.14 23.85 C 42.13 24.60 42.11 26.08 42.10 26.82 C 39.72 26.05 37.34 26.14 35.22 27.54 C 32.97 25.61 29.37 24.31 29.87 20.73 Z" />
</g>
<g id="#ba9340ff">
<path fill="#ba9340" opacity="1.00" d=" M 30.53 21.23 C 32.72 21.41 34.91 21.17 37.03 20.66 C 38.36 20.81 39.70 20.94 41.03 21.06 L 40.87 21.96 C 37.74 21.66 34.44 21.20 34.71 24.98 C 33.25 23.80 31.93 22.47 30.53 21.23 Z" />
</g>
<g id="#8d7339fc">
<path fill="#8d7339" opacity="1.00" d=" M 41.03 21.06 C 41.58 21.33 42.66 21.86 43.20 22.13 C 43.70 24.16 45.97 24.68 47.76 24.96 C 49.29 24.99 50.06 26.59 50.18 27.91 C 51.19 32.34 51.41 36.95 52.76 41.31 C 52.89 43.14 52.86 44.98 52.77 46.82 C 52.40 49.80 52.81 52.92 51.90 55.84 C 49.12 57.72 45.89 58.69 42.78 59.83 C 37.51 59.97 32.25 59.98 26.99 60.03 C 25.28 60.13 23.56 59.99 22.17 58.91 C 19.29 57.33 16.17 56.23 13.26 54.72 C 13.01 52.24 12.51 47.28 12.26 44.81 C 12.13 43.20 12.03 41.60 11.95 40.00 C 13.40 34.70 13.45 27.94 18.20 24.25 C 19.20 23.87 20.21 23.50 21.22 23.11 C 19.41 27.82 14.55 31.03 14.47 36.39 C 10.95 47.14 21.03 58.88 32.01 58.01 C 37.31 58.51 43.48 57.38 46.82 52.82 C 54.88 44.51 51.17 29.89 42.14 23.85 C 41.82 23.38 41.19 22.43 40.87 21.96 L 41.03 21.06 Z" />
</g>
<g id="#c4a24cff">
<path fill="#c4a24c" opacity="1.00" d=" M 21.22 23.11 C 21.66 22.75 22.53 22.03 22.97 21.67 C 24.05 22.77 25.03 23.96 26.01 25.15 C 25.70 26.17 25.39 27.20 25.06 28.22 C 23.13 29.03 22.22 26.29 20.41 28.33 C 18.71 32.78 15.57 36.89 16.02 41.91 C 18.22 48.15 24.02 54.13 31.00 54.09 C 30.73 53.60 30.19 52.63 29.92 52.14 C 32.31 54.34 34.23 52.56 36.82 52.41 C 42.80 54.06 47.31 47.82 48.97 42.91 C 49.82 36.63 45.89 31.31 42.10 26.82 C 42.11 26.08 42.13 24.60 42.14 23.85 C 51.17 29.89 54.88 44.51 46.82 52.82 C 43.48 57.38 37.31 58.51 32.01 58.01 C 21.03 58.88 10.95 47.14 14.47 36.39 C 14.55 31.03 19.41 27.82 21.22 23.11 Z" />
</g>
<g id="#524426e7">
<path fill="#524426" opacity="0.91" d=" M 43.20 22.13 C 44.84 21.80 47.81 23.05 47.76 24.96 C 45.97 24.68 43.70 24.16 43.20 22.13 Z" />
</g>
<g id="#dbbb60ff">
<path fill="#dbbb60" opacity="1.00" d=" M 20.41 28.33 C 22.22 26.29 23.13 29.03 25.06 28.22 C 24.76 29.41 24.46 30.60 24.23 31.81 C 22.35 34.69 18.26 36.57 20.07 40.93 C 21.01 42.57 21.27 46.34 23.88 45.29 C 23.95 48.92 26.42 51.50 29.92 52.14 C 30.19 52.63 30.73 53.60 31.00 54.09 C 24.02 54.13 18.22 48.15 16.02 41.91 C 15.57 36.89 18.71 32.78 20.41 28.33 Z" />
</g>
<g id="#504e49ff">
<path fill="#504e49" opacity="1.00" d=" M 25.08 34.00 C 28.83 31.22 33.37 29.34 37.82 31.61 C 39.73 32.98 41.20 34.84 42.10 37.01 C 37.59 39.42 37.29 34.21 34.06 33.80 C 30.50 41.71 41.28 38.24 42.31 43.78 C 42.77 47.67 40.73 51.37 36.82 52.41 C 34.23 52.56 32.31 54.34 29.92 52.14 C 26.42 51.50 23.95 48.92 23.88 45.29 C 26.85 43.91 28.43 46.51 30.11 48.46 C 32.69 50.94 33.72 43.87 31.15 43.23 C 28.69 42.35 25.88 41.93 24.12 39.79 C 23.69 37.79 24.57 35.88 25.08 34.00 M 30.22 34.21 C 29.49 35.06 28.27 35.67 28.08 36.85 C 28.99 38.14 30.57 38.03 31.97 38.03 C 31.79 36.48 33.01 32.82 30.22 34.21 M 34.04 43.97 C 33.94 45.66 33.94 47.34 34.04 49.03 C 35.99 49.42 38.62 48.49 37.99 46.05 C 38.02 43.97 35.58 43.84 34.04 43.97 Z" />
</g>
<g id="#f4de85ff">
<path fill="#f4de85" opacity="1.00" d=" M 37.82 31.61 C 41.14 30.65 44.26 33.97 45.23 36.87 C 46.98 40.34 43.75 43.59 43.64 47.10 C 43.17 46.01 42.77 44.88 42.31 43.78 C 41.28 38.24 30.50 41.71 34.06 33.80 C 37.29 34.21 37.59 39.42 42.10 37.01 C 41.20 34.84 39.73 32.98 37.82 31.61 Z" />
</g>
<g id="#f1d87aff">
<path fill="#f1d87a" opacity="1.00" d=" M 24.23 31.81 C 24.44 32.36 24.87 33.45 25.08 34.00 C 24.57 35.88 23.69 37.79 24.12 39.79 C 25.88 41.93 28.69 42.35 31.15 43.23 C 30.90 44.99 30.78 46.79 30.11 48.46 C 28.43 46.51 26.85 43.91 23.88 45.29 C 21.27 46.34 21.01 42.57 20.07 40.93 C 18.26 36.57 22.35 34.69 24.23 31.81 Z" />
</g>
<g id="#eedf8aff">
<path fill="#eedf8a" opacity="1.00" d=" M 30.22 34.21 C 33.01 32.82 31.79 36.48 31.97 38.03 C 30.57 38.03 28.99 38.14 28.08 36.85 C 28.27 35.67 29.49 35.06 30.22 34.21 Z" />
</g>
<g id="#19150a5c">
<path fill="#19150a" opacity="0.36" d=" M 10.98 39.99 L 11.95 40.00 C 12.03 41.60 12.13 43.20 12.26 44.81 C 12.00 46.42 11.50 49.65 11.24 51.26 C 11.18 48.44 11.04 42.81 10.98 39.99 Z" />
</g>
<g id="#1a160b5f">
<path fill="#1a160b" opacity="0.37" d=" M 52.76 41.31 L 53.83 40.96 C 53.79 43.80 53.70 49.47 53.65 52.30 C 53.17 50.51 52.93 48.66 52.77 46.82 C 52.86 44.98 52.89 43.14 52.76 41.31 Z" />
</g>
<g id="#d0b76fff">
<path fill="#d0b76f" opacity="1.00" d=" M 31.15 43.23 C 33.72 43.87 32.69 50.94 30.11 48.46 C 30.78 46.79 30.90 44.99 31.15 43.23 Z" />
</g>
<g id="#e9d07bff">
<path fill="#e9d07b" opacity="1.00" d=" M 34.04 43.97 C 35.58 43.84 38.02 43.97 37.99 46.05 C 38.62 48.49 35.99 49.42 34.04 49.03 C 33.94 47.34 33.94 45.66 34.04 43.97 Z" />
</g>
<g id="#554727ec">
<path fill="#554727" opacity="0.93" d=" M 12.26 44.81 C 12.51 47.28 13.01 52.24 13.26 54.72 C 16.17 56.23 19.29 57.33 22.17 58.91 C 17.79 59.08 9.55 57.17 11.24 51.26 C 11.50 49.65 12.00 46.42 12.26 44.81 Z" />
</g>
<g id="#584928ec">
<path fill="#584928" opacity="0.93" d=" M 51.90 55.84 C 52.81 52.92 52.40 49.80 52.77 46.82 C 52.93 48.66 53.17 50.51 53.65 52.30 C 54.98 57.47 48.15 60.55 43.82 59.91 L 42.78 59.83 C 45.89 58.69 49.12 57.72 51.90 55.84 Z" />
</g>
<g id="#3d3118b3">
<path fill="#3d3118" opacity="0.70" d=" M 26.99 60.03 C 32.25 59.98 37.51 59.97 42.78 59.83 L 43.82 59.91 L 44.07 60.93 C 38.39 61.00 32.71 61.15 27.03 60.97 L 26.99 60.03 Z" />
</g>
</svg>
