<?xml version="1.0" encoding="UTF-8" ?>
<!DOCTYPE svg PUBLIC "-//W3C//DTD SVG 1.1//EN" "http://www.w3.org/Graphics/SVG/1.1/DTD/svg11.dtd">
<svg width="64pt" height="64pt" viewBox="0 0 64 64" version="1.1" xmlns="http://www.w3.org/2000/svg">
<g id="#0c0b0b56">
<path fill="#0c0b0b" opacity="0.34" d=" M 2.56 13.63 C 8.04 13.41 13.53 13.46 19.01 13.52 C 24.70 13.67 30.33 12.15 36.01 12.94 C 44.48 14.07 53.04 13.11 61.55 13.65 C 62.77 17.65 62.34 21.86 62.37 25.97 C 62.36 34.24 62.40 42.51 62.33 50.78 C 61.28 51.40 60.29 52.33 58.98 52.27 C 53.00 52.58 47.00 52.04 41.02 52.42 C 36.73 52.97 32.40 53.80 28.07 53.10 C 19.95 51.61 11.68 52.66 3.48 52.26 C 2.90 51.64 2.31 51.02 1.73 50.41 C 1.50 40.61 1.72 30.81 1.59 21.01 C 1.50 18.51 1.78 16.01 2.56 13.63 M 3.33 14.52 C 3.32 15.58 3.32 16.64 3.31 17.70 C 3.23 28.25 3.25 38.80 3.21 49.36 C 10.84 49.39 18.47 49.45 26.10 49.32 C 26.25 49.58 26.53 50.08 26.67 50.34 C 19.03 50.90 11.31 49.84 3.72 50.99 C 6.85 52.64 10.55 51.80 13.94 51.98 C 22.32 51.59 30.69 52.76 39.06 52.07 C 46.13 51.58 53.24 52.51 60.29 51.65 C 57.82 50.04 54.81 50.51 52.03 50.47 C 47.13 50.62 42.23 50.47 37.32 50.35 C 37.47 50.09 37.75 49.58 37.90 49.32 C 45.54 49.43 53.18 49.42 60.82 49.33 C 60.71 38.80 60.79 28.26 60.69 17.72 C 60.68 16.66 60.68 15.59 60.67 14.52 C 53.05 14.54 45.42 14.42 37.79 14.60 L 37.61 13.90 C 33.87 13.89 30.13 13.93 26.40 13.82 L 25.90 14.61 C 18.38 14.41 10.85 14.55 3.33 14.52 Z" />
</g>
<g id="#c0bca4ff">
<path fill="#c0bca4" opacity="1.00" d=" M 3.33 14.52 C 10.85 14.55 18.38 14.41 25.90 14.61 C 25.37 15.46 24.86 16.31 24.34 17.17 C 17.50 17.53 10.63 16.96 3.81 17.68 L 3.31 17.70 C 3.32 16.64 3.32 15.58 3.33 14.52 Z" />
<path fill="#c0bca4" opacity="1.00" d=" M 37.79 14.60 C 45.42 14.42 53.05 14.54 60.67 14.52 C 60.68 15.59 60.68 16.66 60.69 17.72 L 60.18 17.70 C 52.99 16.93 45.75 17.36 38.53 17.46 C 38.29 16.51 38.04 15.55 37.79 14.60 Z" />
</g>
<g id="#726f65ff">
<path fill="#726f65" opacity="1.00" d=" M 25.90 14.61 L 26.40 13.82 C 26.50 14.64 26.70 16.28 26.80 17.09 L 26.86 17.58 C 26.21 28.36 27.56 39.17 26.69 49.94 C 30.21 49.99 33.74 49.99 37.26 49.94 C 36.45 39.10 37.77 28.23 37.17 17.37 L 37.22 16.99 C 37.32 16.21 37.51 14.67 37.61 13.90 L 37.79 14.60 C 38.04 15.55 38.29 16.51 38.53 17.46 C 45.75 17.36 52.99 16.93 60.18 17.70 C 52.62 17.94 44.91 16.88 37.46 18.61 C 44.68 19.64 51.98 18.96 59.24 19.14 C 59.23 22.25 59.21 25.36 59.18 28.47 C 58.71 28.49 57.79 28.54 57.33 28.57 C 57.52 26.50 57.72 24.36 56.82 22.42 C 56.44 23.40 55.66 25.38 55.27 26.37 C 54.61 24.79 53.94 23.21 53.26 21.63 C 49.64 21.53 46.04 21.08 42.44 20.67 C 41.02 20.30 39.82 21.21 38.61 21.79 C 38.68 25.64 38.67 29.50 39.20 33.33 C 39.46 36.70 39.61 40.11 40.48 43.40 C 42.21 44.16 43.91 44.97 45.68 45.61 C 46.04 46.17 46.76 47.30 47.12 47.86 C 44.24 47.82 41.36 47.86 38.52 48.26 L 37.90 49.32 C 37.75 49.58 37.47 50.09 37.32 50.35 C 33.77 50.32 30.22 50.32 26.67 50.34 C 26.53 50.08 26.25 49.58 26.10 49.32 L 25.46 48.22 C 22.47 47.82 19.43 47.80 16.41 47.83 C 17.76 47.10 19.11 46.38 20.47 45.67 C 22.07 46.13 23.96 47.79 25.28 45.93 C 25.25 44.46 25.02 43.01 24.81 41.55 C 23.88 35.95 25.35 30.36 25.66 24.78 C 23.14 24.67 20.62 24.53 18.12 24.24 C 20.71 22.84 23.67 22.58 26.53 22.17 C 21.62 21.45 16.64 21.61 11.69 21.81 C 11.56 25.06 10.15 27.97 7.45 29.85 C 7.33 33.42 7.29 37.00 7.23 40.57 C 8.23 40.94 9.24 41.31 10.24 41.67 C 10.05 42.24 9.67 43.38 9.48 43.94 L 9.14 43.37 C 8.80 42.80 8.12 41.66 7.78 41.09 C 6.87 42.77 5.94 44.45 5.18 46.20 C 5.62 37.18 4.62 28.17 4.75 19.14 C 11.22 18.95 17.72 19.54 24.16 18.92 C 24.74 18.67 25.90 18.18 26.48 17.94 C 18.94 17.42 11.36 17.79 3.81 17.68 C 10.63 16.96 17.50 17.53 24.34 17.17 C 24.86 16.31 25.37 15.46 25.90 14.61 M 7.19 23.54 C 6.31 24.22 6.29 26.69 7.72 26.57 C 8.61 25.89 8.61 23.42 7.19 23.54 Z" />
</g>
<g id="#f3e5beff">
<path fill="#f3e5be" opacity="1.00" d=" M 26.40 13.82 C 30.13 13.93 33.87 13.89 37.61 13.90 C 37.51 14.67 37.32 16.21 37.22 16.99 C 33.75 17.18 30.27 17.22 26.80 17.09 C 26.70 16.28 26.50 14.64 26.40 13.82 Z" />
</g>
<g id="#eed8a5ff">
<path fill="#eed8a5" opacity="1.00" d=" M 26.80 17.09 C 30.27 17.22 33.75 17.18 37.22 16.99 L 37.17 17.37 C 35.26 21.92 36.44 26.92 35.44 31.62 C 34.72 35.20 28.42 34.53 28.32 30.91 C 27.79 26.46 28.49 21.86 26.86 17.58 L 26.80 17.09 Z" />
</g>
<g id="#d9d4b4ff">
<path fill="#d9d4b4" opacity="1.00" d=" M 3.31 17.70 L 3.81 17.68 C 11.36 17.79 18.94 17.42 26.48 17.94 C 25.90 18.18 24.74 18.67 24.16 18.92 C 17.72 19.54 11.22 18.95 4.75 19.14 C 4.62 28.17 5.62 37.18 5.18 46.20 C 5.02 46.65 4.72 47.55 4.56 48.00 C 4.22 48.34 3.55 49.02 3.21 49.36 C 3.25 38.80 3.23 28.25 3.31 17.70 Z" />
<path fill="#d9d4b4" opacity="1.00" d=" M 37.46 18.61 C 44.91 16.88 52.62 17.94 60.18 17.70 L 60.69 17.72 C 60.79 28.26 60.71 38.80 60.82 49.33 C 60.38 49.01 59.52 48.36 59.09 48.03 C 58.83 41.51 59.14 34.99 59.18 28.47 C 59.21 25.36 59.23 22.25 59.24 19.14 C 51.98 18.96 44.68 19.64 37.46 18.61 Z" />
<path fill="#d9d4b4" opacity="1.00" d=" M 39.20 33.33 C 38.67 29.50 38.68 25.64 38.61 21.79 C 43.07 22.10 47.54 21.86 52.00 21.77 C 53.15 24.29 54.51 26.69 55.94 29.05 C 55.14 29.39 54.33 29.72 53.53 30.06 C 54.12 30.67 54.71 31.29 55.30 31.90 C 53.27 33.09 51.31 34.51 50.94 37.01 C 47.91 37.10 44.88 36.88 41.89 36.40 C 41.79 34.65 41.68 32.91 41.58 31.16 C 40.79 31.88 40.00 32.61 39.20 33.33 M 39.08 23.98 C 42.48 25.93 46.71 24.61 50.46 24.87 C 50.27 24.44 49.89 23.60 49.70 23.18 C 46.25 22.85 42.09 21.82 39.08 23.98 M 41.70 27.49 C 43.81 27.96 45.94 28.25 48.09 28.43 C 45.95 28.66 43.82 28.97 41.71 29.38 C 45.06 30.66 49.05 31.05 52.33 29.42 C 51.30 29.11 50.26 28.82 49.22 28.53 C 50.18 28.12 51.15 27.70 52.11 27.28 C 48.65 26.91 45.14 26.86 41.70 27.49 M 45.20 32.23 C 41.87 34.97 48.76 38.62 49.64 34.83 C 50.75 32.07 47.03 30.23 45.20 32.23 Z" />
</g>
<g id="#e5cb95ff">
<path fill="#e5cb95" opacity="1.00" d=" M 26.86 17.58 C 28.49 21.86 27.79 26.46 28.32 30.91 C 28.42 34.53 34.72 35.20 35.44 31.62 C 36.44 26.92 35.26 21.92 37.17 17.37 C 37.77 28.23 36.45 39.10 37.26 49.94 C 33.74 49.99 30.21 49.99 26.69 49.94 C 27.56 39.17 26.21 28.36 26.86 17.58 Z" />
</g>
<g id="#959189ff">
<path fill="#959189" opacity="1.00" d=" M 38.61 21.79 C 39.82 21.21 41.02 20.30 42.44 20.67 C 46.04 21.08 49.64 21.53 53.26 21.63 C 53.94 23.21 54.61 24.79 55.27 26.37 C 55.66 25.38 56.44 23.40 56.82 22.42 C 57.72 24.36 57.52 26.50 57.33 28.57 C 57.79 28.54 58.71 28.49 59.18 28.47 C 59.14 34.99 58.83 41.51 59.09 48.03 C 55.10 47.89 51.11 47.96 47.12 47.86 C 46.76 47.30 46.04 46.17 45.68 45.61 C 47.92 45.63 50.15 45.53 52.38 45.43 C 53.08 43.13 54.33 41.11 56.50 39.94 C 56.55 36.31 56.74 32.62 55.94 29.05 C 54.51 26.69 53.15 24.29 52.00 21.77 C 47.54 21.86 43.07 22.10 38.61 21.79 M 55.12 43.50 C 53.93 44.40 55.18 46.88 56.57 45.86 C 57.75 44.97 56.51 42.50 55.12 43.50 Z" />
<path fill="#959189" opacity="1.00" d=" M 5.18 46.20 C 5.94 44.45 6.87 42.77 7.78 41.09 C 8.12 41.66 8.80 42.80 9.14 43.37 C 7.91 43.50 7.26 44.16 7.17 45.34 C 7.80 47.08 9.51 44.98 9.48 43.94 C 9.67 43.38 10.05 42.24 10.24 41.67 C 10.59 42.96 10.93 44.26 11.27 45.55 C 16.16 45.97 21.23 45.19 24.81 41.55 C 25.02 43.01 25.25 44.46 25.28 45.93 C 23.96 47.79 22.07 46.13 20.47 45.67 C 19.11 46.38 17.76 47.10 16.41 47.83 C 12.46 47.94 8.51 47.92 4.56 48.00 C 4.72 47.55 5.02 46.65 5.18 46.20 Z" />
</g>
<g id="#e2dec4ff">
<path fill="#e2dec4" opacity="1.00" d=" M 11.69 21.81 C 16.64 21.61 21.62 21.45 26.53 22.17 C 23.67 22.58 20.71 22.84 18.12 24.24 C 20.62 24.53 23.14 24.67 25.66 24.78 C 25.35 30.36 23.88 35.95 24.81 41.55 C 21.23 45.19 16.16 45.97 11.27 45.55 C 10.93 44.26 10.59 42.96 10.24 41.67 C 9.24 41.31 8.23 40.94 7.23 40.57 C 7.29 37.00 7.33 33.42 7.45 29.85 C 10.15 27.97 11.56 25.06 11.69 21.81 M 13.41 23.75 C 14.66 24.16 15.92 24.55 17.18 24.92 C 15.53 26.97 12.39 28.16 12.00 31.00 C 11.96 33.34 14.25 34.36 15.90 35.47 C 15.93 37.18 15.95 38.90 15.97 40.62 C 14.54 39.48 13.16 38.24 11.45 37.52 C 11.52 40.82 14.76 42.08 17.04 43.70 C 18.90 42.05 21.85 40.82 22.18 38.08 C 22.45 35.60 19.77 34.76 18.15 33.59 C 18.09 32.05 18.04 30.52 17.97 28.99 C 19.37 29.60 20.81 30.11 22.33 30.24 C 21.07 27.23 16.31 26.63 17.54 22.66 C 16.16 23.01 14.79 23.38 13.41 23.75 M 9.07 31.02 C 8.58 32.65 9.14 33.18 10.77 32.63 C 11.27 31.00 10.70 30.46 9.07 31.02 Z" />
</g>
<g id="#aba78eff">
<path fill="#aba78e" opacity="1.00" d=" M 7.19 23.54 C 8.61 23.42 8.61 25.89 7.72 26.57 C 6.29 26.69 6.31 24.22 7.19 23.54 Z" />
</g>
<g id="#605e56ff">
<path fill="#605e56" opacity="1.00" d=" M 13.41 23.75 C 14.79 23.38 16.16 23.01 17.54 22.66 C 16.31 26.63 21.07 27.23 22.33 30.24 C 20.81 30.11 19.37 29.60 17.97 28.99 C 18.04 30.52 18.09 32.05 18.15 33.59 C 19.77 34.76 22.45 35.60 22.18 38.08 C 21.85 40.82 18.90 42.05 17.04 43.70 C 14.76 42.08 11.52 40.82 11.45 37.52 C 13.16 38.24 14.54 39.48 15.97 40.62 C 15.95 38.90 15.93 37.18 15.90 35.47 C 14.25 34.36 11.96 33.34 12.00 31.00 C 12.39 28.16 15.53 26.97 17.18 24.92 C 15.92 24.55 14.66 24.16 13.41 23.75 M 15.75 32.66 C 16.36 31.54 16.36 30.41 15.76 29.29 C 13.55 28.34 13.56 33.65 15.75 32.66 M 18.27 36.36 C 17.62 37.43 17.38 39.67 18.83 40.18 C 20.84 39.86 20.32 35.51 18.27 36.36 Z" />
</g>
<g id="#938f7cff">
<path fill="#938f7c" opacity="1.00" d=" M 39.08 23.98 C 42.09 21.82 46.25 22.85 49.70 23.18 C 49.89 23.60 50.27 24.44 50.46 24.87 C 46.71 24.61 42.48 25.93 39.08 23.98 Z" />
</g>
<g id="#bbc0a2ff">
<path fill="#bbc0a2" opacity="1.00" d=" M 41.70 27.49 C 45.14 26.86 48.65 26.91 52.11 27.28 C 51.15 27.70 50.18 28.12 49.22 28.53 C 50.26 28.82 51.30 29.11 52.33 29.42 C 49.05 31.05 45.06 30.66 41.71 29.38 C 43.82 28.97 45.95 28.66 48.09 28.43 C 45.94 28.25 43.81 27.96 41.70 27.49 Z" />
</g>
<g id="#ccc8adff">
<path fill="#ccc8ad" opacity="1.00" d=" M 15.75 32.66 C 13.56 33.65 13.55 28.34 15.76 29.29 C 16.36 30.41 16.36 31.54 15.75 32.66 Z" />
</g>
<g id="#e4e1cbff">
<path fill="#e4e1cb" opacity="1.00" d=" M 53.53 30.06 C 54.33 29.72 55.14 29.39 55.94 29.05 C 56.74 32.62 56.55 36.31 56.50 39.94 C 54.33 41.11 53.08 43.13 52.38 45.43 C 50.15 45.53 47.92 45.63 45.68 45.61 C 43.91 44.97 42.21 44.16 40.48 43.40 C 39.61 40.11 39.46 36.70 39.20 33.33 C 40.00 32.61 40.79 31.88 41.58 31.16 C 41.68 32.91 41.79 34.65 41.89 36.40 C 44.88 36.88 47.91 37.10 50.94 37.01 C 51.31 34.51 53.27 33.09 55.30 31.90 C 54.71 31.29 54.12 30.67 53.53 30.06 M 46.25 41.90 C 48.30 41.99 50.35 42.04 52.40 42.05 C 51.97 39.24 47.11 39.44 46.25 41.90 M 43.36 41.08 C 43.52 42.47 44.20 42.71 45.40 41.82 C 45.23 40.43 44.55 40.19 43.36 41.08 Z" />
</g>
<g id="#c5c1a8ff">
<path fill="#c5c1a8" opacity="1.00" d=" M 9.07 31.02 C 10.70 30.46 11.27 31.00 10.77 32.63 C 9.14 33.18 8.58 32.65 9.07 31.02 Z" />
</g>
<g id="#6ca07aff">
<path fill="#6ca07a" opacity="1.00" d=" M 45.20 32.23 C 47.03 30.23 50.75 32.07 49.64 34.83 C 48.76 38.62 41.87 34.97 45.20 32.23 Z" />
</g>
<g id="#d9d5c0ff">
<path fill="#d9d5c0" opacity="1.00" d=" M 18.27 36.36 C 20.32 35.51 20.84 39.86 18.83 40.18 C 17.38 39.67 17.62 37.43 18.27 36.36 Z" />
</g>
<g id="#bab7a6ff">
<path fill="#bab7a6" opacity="1.00" d=" M 46.25 41.90 C 47.11 39.44 51.97 39.24 52.40 42.05 C 50.35 42.04 48.30 41.99 46.25 41.90 Z" />
</g>
<g id="#b5b2a3ff">
<path fill="#b5b2a3" opacity="1.00" d=" M 43.36 41.08 C 44.55 40.19 45.23 40.43 45.40 41.82 C 44.20 42.71 43.52 42.47 43.36 41.08 Z" />
</g>
<g id="#b8b5a4ff">
<path fill="#b8b5a4" opacity="1.00" d=" M 7.17 45.34 C 7.26 44.16 7.91 43.50 9.14 43.37 L 9.48 43.94 C 9.51 44.98 7.80 47.08 7.17 45.34 Z" />
</g>
<g id="#b5b2a1ff">
<path fill="#b5b2a1" opacity="1.00" d=" M 55.12 43.50 C 56.51 42.50 57.75 44.97 56.57 45.86 C 55.18 46.88 53.93 44.40 55.12 43.50 Z" />
</g>
<g id="#eeebd9ff">
<path fill="#eeebd9" opacity="1.00" d=" M 3.21 49.36 C 3.55 49.02 4.22 48.34 4.56 48.00 C 8.51 47.92 12.46 47.94 16.41 47.83 C 19.43 47.80 22.47 47.82 25.46 48.22 L 26.10 49.32 C 18.47 49.45 10.84 49.39 3.21 49.36 Z" />
</g>
<g id="#edebd8ff">
<path fill="#edebd8" opacity="1.00" d=" M 38.52 48.26 C 41.36 47.86 44.24 47.82 47.12 47.86 C 51.11 47.96 55.10 47.89 59.09 48.03 C 59.52 48.36 60.38 49.01 60.82 49.33 C 53.18 49.42 45.54 49.43 37.90 49.32 L 38.52 48.26 Z" />
</g>
<g id="#0000005a">
<path fill="#000000" opacity="0.35" d=" M 3.72 50.99 C 11.31 49.84 19.03 50.90 26.67 50.34 C 30.22 50.32 33.77 50.32 37.32 50.35 C 42.23 50.47 47.13 50.62 52.03 50.47 C 54.81 50.51 57.82 50.04 60.29 51.65 C 53.24 52.51 46.13 51.58 39.06 52.07 C 30.69 52.76 22.32 51.59 13.94 51.98 C 10.55 51.80 6.85 52.64 3.72 50.99 Z" />
</g>
</svg>
