<?xml version="1.0" encoding="UTF-8" ?>
<!DOCTYPE svg PUBLIC "-//W3C//DTD SVG 1.1//EN" "http://www.w3.org/Graphics/SVG/1.1/DTD/svg11.dtd">
<svg width="64pt" height="64pt" viewBox="0 0 64 64" version="1.1" xmlns="http://www.w3.org/2000/svg">
<g id="#00ae20ff">
<path fill="#00ae20" opacity="1.00" d=" M 13.35 3.43 C 25.23 3.16 37.14 3.38 49.03 3.32 C 55.17 3.27 60.74 8.78 60.72 14.94 C 60.74 26.29 60.70 37.65 60.68 49.01 C 60.85 55.19 55.22 60.84 49.04 60.70 C 37.69 60.70 26.34 60.70 14.98 60.70 C 8.81 60.86 3.15 55.21 3.32 49.03 C 3.30 37.66 3.26 26.29 3.28 14.92 C 3.27 9.32 7.87 4.27 13.35 3.43 M 7.03 13.38 L 6.30 13.17 C 5.68 16.53 6.69 19.98 6.52 23.39 C 10.03 23.52 13.90 24.07 17.26 23.08 C 17.70 24.04 18.92 24.52 18.97 25.67 C 16.91 25.75 14.85 25.67 12.79 25.72 C 12.79 26.49 12.79 28.03 12.79 28.81 C 14.92 28.82 17.06 28.78 19.20 28.81 C 19.20 29.63 19.20 31.25 19.20 32.06 C 17.08 32.12 14.96 32.05 12.84 32.09 C 12.84 32.87 12.83 34.42 12.83 35.20 C 14.96 35.26 17.08 35.18 19.21 35.21 C 19.28 37.34 19.14 39.47 19.22 41.60 C 20.33 41.72 21.41 41.65 22.48 41.40 C 22.36 39.35 22.36 37.29 22.40 35.24 C 24.52 35.15 26.65 35.27 28.77 35.21 C 28.74 34.42 28.66 32.84 28.62 32.05 C 26.56 31.88 24.32 32.47 22.34 31.82 C 22.19 30.71 22.33 29.69 22.74 28.77 C 24.76 28.81 26.77 28.83 28.79 28.78 C 28.80 28.02 28.84 26.48 28.85 25.71 C 26.79 25.69 24.72 25.70 22.66 25.76 C 22.96 25.23 23.56 24.18 23.86 23.65 C 32.41 23.50 40.97 23.58 49.52 23.61 C 51.03 21.31 52.12 18.77 53.28 16.29 C 53.60 16.38 54.25 16.57 54.57 16.66 C 52.99 20.39 51.31 24.11 49.99 27.95 C 48.26 27.59 47.08 25.41 45.12 26.17 C 42.60 28.34 44.80 32.32 42.83 34.77 C 41.68 34.63 41.21 35.33 41.43 36.87 C 39.46 39.01 39.05 41.77 39.13 44.58 C 36.58 42.84 34.98 39.74 32.05 38.62 C 29.64 39.53 27.67 41.27 25.37 42.42 C 23.16 43.38 23.20 46.05 21.75 47.70 C 20.06 48.51 17.83 50.39 16.08 48.74 C 13.56 48.07 12.74 50.98 10.63 51.07 C 10.79 51.21 11.12 51.47 11.28 51.61 L 10.90 51.71 C 11.51 52.49 12.71 54.05 13.32 54.83 C 13.73 54.33 14.56 53.32 14.97 52.82 C 16.65 53.38 18.40 53.69 20.08 54.22 C 24.37 53.25 25.11 48.23 26.88 44.90 C 28.29 44.01 29.82 43.28 31.15 42.25 C 33.76 44.46 36.04 47.05 38.42 49.50 C 39.76 50.52 41.54 49.32 42.17 48.04 C 42.30 45.63 42.62 43.23 42.67 40.81 C 44.32 37.42 47.83 34.70 46.94 30.48 C 48.40 31.46 50.65 32.86 52.09 31.07 C 53.40 28.15 54.75 25.24 55.80 22.23 C 58.58 20.59 57.65 16.15 57.81 13.32 L 57.06 13.42 C 56.19 9.29 52.21 6.24 48.03 6.19 C 37.68 6.07 27.32 6.16 16.96 6.15 C 12.53 5.89 7.82 8.85 7.03 13.38 Z" />
<path fill="#00ae20" opacity="1.00" d=" M 11.70 15.92 C 12.09 14.14 14.62 14.90 15.92 14.83 C 18.09 15.72 19.15 18.13 20.82 19.68 C 23.07 17.14 25.31 13.49 29.33 14.88 L 29.51 16.07 C 28.11 15.97 26.74 16.05 25.39 16.30 C 23.88 18.26 22.48 20.30 20.93 22.23 C 18.19 19.78 16.85 14.17 12.03 16.32 C 11.95 16.22 11.78 16.02 11.70 15.92 Z" />
</g>
<g id="#feffffff">
<path fill="#feffff" opacity="1.00" d=" M 7.03 13.38 C 7.82 8.85 12.53 5.89 16.96 6.15 C 27.32 6.16 37.68 6.07 48.03 6.19 C 52.21 6.24 56.19 9.29 57.06 13.42 C 56.92 13.43 56.63 13.46 56.49 13.48 C 54.99 9.72 50.93 7.67 47.03 7.68 C 37.02 7.63 27.01 7.63 17.00 7.67 C 13.16 7.69 8.87 9.64 7.63 13.54 C 7.48 13.50 7.18 13.42 7.03 13.38 Z" />
<path fill="#feffff" opacity="1.00" d=" M 54.57 16.66 C 54.97 16.10 55.38 15.55 55.80 15.00 C 55.90 17.41 55.89 19.82 55.80 22.23 C 54.75 25.24 53.40 28.15 52.09 31.07 C 50.65 32.86 48.40 31.46 46.94 30.48 C 47.83 34.70 44.32 37.42 42.67 40.81 C 42.62 43.23 42.30 45.63 42.17 48.04 C 41.54 49.32 39.76 50.52 38.42 49.50 C 36.04 47.05 33.76 44.46 31.15 42.25 C 29.82 43.28 28.29 44.01 26.88 44.90 C 25.11 48.23 24.37 53.25 20.08 54.22 C 18.40 53.69 16.65 53.38 14.97 52.82 C 14.56 53.32 13.73 54.33 13.32 54.83 C 12.71 54.05 11.51 52.49 10.90 51.71 L 11.28 51.61 C 12.60 51.38 12.42 49.27 14.05 49.36 C 16.29 48.33 18.26 50.62 20.35 50.46 C 20.81 49.54 21.28 48.62 21.75 47.70 C 23.20 46.05 23.16 43.38 25.37 42.42 C 27.67 41.27 29.64 39.53 32.05 38.62 C 34.98 39.74 36.58 42.84 39.13 44.58 C 39.05 41.77 39.46 39.01 41.43 36.87 C 41.90 36.17 42.36 35.47 42.83 34.77 C 44.80 32.32 42.60 28.34 45.12 26.17 C 47.08 25.41 48.26 27.59 49.99 27.95 C 51.31 24.11 52.99 20.39 54.57 16.66 Z" />
<path fill="#feffff" opacity="1.00" d=" M 12.03 16.32 C 16.85 14.17 18.19 19.78 20.93 22.23 C 22.48 20.30 23.88 18.26 25.39 16.30 C 26.74 16.05 28.11 15.97 29.51 16.07 C 27.69 18.64 25.64 21.05 23.86 23.65 C 23.56 24.18 22.96 25.23 22.66 25.76 C 24.72 25.70 26.79 25.69 28.85 25.71 C 28.84 26.48 28.80 28.02 28.79 28.78 C 26.77 28.83 24.76 28.81 22.74 28.77 C 22.33 29.69 22.19 30.71 22.34 31.82 C 24.32 32.47 26.56 31.88 28.62 32.05 C 28.66 32.84 28.74 34.42 28.77 35.21 C 26.65 35.27 24.52 35.15 22.40 35.24 C 22.36 37.29 22.36 39.35 22.48 41.40 C 21.41 41.65 20.33 41.72 19.22 41.60 C 19.14 39.47 19.28 37.34 19.21 35.21 C 17.08 35.18 14.96 35.26 12.83 35.20 C 12.83 34.42 12.84 32.87 12.84 32.09 C 14.96 32.05 17.08 32.12 19.20 32.06 C 19.20 31.25 19.20 29.63 19.20 28.81 C 17.06 28.78 14.92 28.82 12.79 28.81 C 12.79 28.03 12.79 26.49 12.79 25.72 C 14.85 25.67 16.91 25.75 18.97 25.67 C 18.92 24.52 17.70 24.04 17.26 23.08 C 15.69 20.70 13.90 18.47 12.03 16.32 Z" />
</g>
<g id="#3fd463ff">
<path fill="#3fd463" opacity="1.00" d=" M 7.63 13.54 C 8.87 9.64 13.16 7.69 17.00 7.67 C 27.01 7.63 37.02 7.63 47.03 7.68 C 50.93 7.67 54.99 9.72 56.49 13.48 C 56.63 13.46 56.92 13.43 57.06 13.42 L 57.81 13.32 C 57.65 16.15 58.58 20.59 55.80 22.23 C 55.89 19.82 55.90 17.41 55.80 15.00 C 55.38 15.55 54.97 16.10 54.57 16.66 C 54.25 16.57 53.60 16.38 53.28 16.29 C 52.12 18.77 51.03 21.31 49.52 23.61 C 40.97 23.58 32.41 23.50 23.86 23.65 C 25.64 21.05 27.69 18.64 29.51 16.07 L 29.33 14.88 C 25.31 13.49 23.07 17.14 20.82 19.68 C 19.15 18.13 18.09 15.72 15.92 14.83 C 14.62 14.90 12.09 14.14 11.70 15.92 C 11.78 16.02 11.95 16.22 12.03 16.32 C 13.90 18.47 15.69 20.70 17.26 23.08 C 13.90 24.07 10.03 23.52 6.52 23.39 C 6.69 19.98 5.68 16.53 6.30 13.17 L 7.03 13.38 C 7.18 13.42 7.48 13.50 7.63 13.54 Z" />
</g>
</svg>
