<?xml version="1.0" encoding="UTF-8" ?>
<!DOCTYPE svg PUBLIC "-//W3C//DTD SVG 1.1//EN" "http://www.w3.org/Graphics/SVG/1.1/DTD/svg11.dtd">
<svg width="64pt" height="64pt" viewBox="0 0 64 64" version="1.1" xmlns="http://www.w3.org/2000/svg">
<g id="#3a3a3aff">
<path fill="#3a3a3a" opacity="1.00" d=" M 4.21 4.22 C 22.77 3.76 41.39 4.13 59.97 4.03 C 59.88 11.33 59.92 18.63 59.78 25.94 C 58.47 24.04 55.89 24.82 53.98 24.94 C 54.44 24.84 55.37 24.65 55.84 24.55 C 55.83 24.09 55.81 23.15 55.80 22.68 C 56.72 17.86 57.90 12.85 57.43 7.93 C 57.08 7.58 56.40 6.87 56.05 6.51 C 50.92 6.57 45.16 5.11 40.51 7.74 C 36.11 7.35 31.54 5.73 27.22 7.41 C 26.51 7.51 25.09 7.71 24.38 7.80 C 19.97 5.29 14.71 6.60 9.89 6.34 C 7.38 6.01 5.75 8.72 6.36 10.95 C 6.88 14.61 6.59 18.86 9.32 21.72 L 9.25 21.85 C 9.01 22.62 8.52 24.17 8.27 24.95 C 6.65 31.74 7.21 39.64 11.31 45.47 C 12.44 47.63 14.31 49.25 15.99 50.97 C 17.49 52.29 19.26 53.25 20.96 54.28 C 26.18 57.03 32.50 57.36 38.21 56.30 C 38.65 56.17 39.54 55.89 39.98 55.75 C 47.35 53.61 53.25 47.65 55.89 40.53 C 50.75 40.16 45.61 40.68 40.47 40.40 L 39.54 40.29 C 39.15 40.11 38.37 39.76 37.98 39.58 C 36.86 40.37 35.79 41.30 34.41 41.59 C 30.91 42.13 27.61 41.38 24.96 39.02 L 24.69 38.61 C 28.18 41.17 33.12 41.96 37.05 40.01 C 37.81 36.65 37.10 33.05 37.85 29.64 C 38.01 32.59 37.63 35.57 37.97 38.52 C 38.18 38.81 38.60 39.39 38.81 39.69 C 45.60 40.57 52.51 39.94 59.30 39.43 C 59.41 37.17 58.92 34.84 59.72 32.67 C 60.27 40.94 59.67 49.32 59.92 57.63 C 59.27 58.41 58.60 59.17 57.91 59.91 C 40.01 59.88 22.10 60.08 4.21 59.81 C 4.05 41.29 3.92 22.73 4.21 4.22 Z" />
</g>
<g id="#626160ff">
<path fill="#626160" opacity="1.00" d=" M 6.36 10.95 C 5.75 8.72 7.38 6.01 9.89 6.34 C 14.71 6.60 19.97 5.29 24.38 7.80 L 24.42 8.36 C 17.60 10.21 12.59 15.70 9.32 21.72 C 6.59 18.86 6.88 14.61 6.36 10.95 Z" />
<path fill="#626160" opacity="1.00" d=" M 40.51 7.74 C 45.16 5.11 50.92 6.57 56.05 6.51 C 56.40 6.87 57.08 7.58 57.43 7.93 C 57.90 12.85 56.72 17.86 55.80 22.68 C 55.00 21.29 54.17 19.92 53.35 18.54 C 52.08 16.17 50.09 14.33 48.09 12.59 C 45.93 10.67 43.29 9.45 40.60 8.48 L 40.51 7.74 Z" />
<path fill="#626160" opacity="1.00" d=" M 26.71 24.39 C 29.03 23.49 31.47 22.45 34.01 22.77 C 35.68 23.44 37.23 24.37 38.90 25.05 C 37.78 26.33 37.83 28.04 37.85 29.64 C 37.10 33.05 37.81 36.65 37.05 40.01 C 33.12 41.96 28.18 41.17 24.69 38.61 C 22.67 36.28 22.11 33.36 22.53 30.36 C 23.56 28.13 24.62 25.82 26.71 24.39 Z" />
</g>
<g id="#b9ab8eff">
<path fill="#b9ab8e" opacity="1.00" d=" M 27.22 7.41 C 31.54 5.73 36.11 7.35 40.51 7.74 L 40.60 8.48 C 41.05 13.36 38.32 18.35 39.97 23.08 C 40.19 23.55 40.63 24.51 40.85 24.99 C 40.36 25.00 39.39 25.03 38.90 25.05 C 37.23 24.37 35.68 23.44 34.01 22.77 C 31.47 22.45 29.03 23.49 26.71 24.39 C 28.83 19.53 29.01 14.23 28.42 9.02 C 28.12 8.62 27.52 7.81 27.22 7.41 Z" />
<path fill="#b9ab8e" opacity="1.00" d=" M 24.96 39.02 C 27.61 41.38 30.91 42.13 34.41 41.59 C 34.70 46.21 34.39 50.85 34.55 55.47 C 35.25 55.64 36.64 55.96 37.34 56.13 L 38.21 56.30 C 32.50 57.36 26.18 57.03 20.96 54.28 C 22.09 49.71 24.41 45.38 24.38 40.57 C 24.52 40.18 24.81 39.41 24.96 39.02 Z" />
</g>
<g id="#dedda6ff">
<path fill="#dedda6" opacity="1.00" d=" M 24.38 7.80 C 25.09 7.71 26.51 7.51 27.22 7.41 C 27.52 7.81 28.12 8.62 28.42 9.02 C 29.01 14.23 28.83 19.53 26.71 24.39 C 24.62 25.82 23.56 28.13 22.53 30.36 C 17.16 33.32 11.09 29.73 8.27 24.95 C 8.52 24.17 9.01 22.62 9.25 21.85 C 11.82 24.16 14.01 27.86 17.92 27.67 C 21.42 28.30 22.89 24.32 24.29 21.87 C 25.03 17.42 24.62 12.85 24.42 8.36 L 24.38 7.80 Z" />
<path fill="#dedda6" opacity="1.00" d=" M 39.97 23.08 C 42.52 19.47 44.90 15.69 48.09 12.59 C 50.09 14.33 52.08 16.17 53.35 18.54 C 50.73 21.40 47.55 23.76 43.84 25.00 C 43.09 24.99 41.60 24.99 40.85 24.99 C 40.63 24.51 40.19 23.55 39.97 23.08 Z" />
<path fill="#dedda6" opacity="1.00" d=" M 19.75 39.64 C 21.31 39.01 22.53 40.59 23.84 41.16 C 21.08 44.31 18.09 47.31 15.99 50.97 C 14.31 49.25 12.44 47.63 11.31 45.47 C 14.18 43.62 16.53 40.92 19.75 39.64 Z" />
<path fill="#dedda6" opacity="1.00" d=" M 39.54 40.29 L 40.47 40.40 C 40.84 45.55 39.21 50.62 39.98 55.75 C 39.54 55.89 38.65 56.17 38.21 56.30 L 37.34 56.13 C 38.16 50.83 35.20 44.54 39.54 40.29 Z" />
</g>
<g id="#f2e9d3ff">
<path fill="#f2e9d3" opacity="1.00" d=" M 9.32 21.72 C 12.59 15.70 17.60 10.21 24.42 8.36 C 24.62 12.85 25.03 17.42 24.29 21.87 C 22.89 24.32 21.42 28.30 17.92 27.67 C 14.01 27.86 11.82 24.16 9.25 21.85 L 9.32 21.72 Z" />
<path fill="#f2e9d3" opacity="1.00" d=" M 38.90 25.05 C 39.39 25.03 40.36 25.00 40.85 24.99 C 41.60 24.99 43.09 24.99 43.84 25.00 C 47.22 24.87 50.60 25.08 53.98 24.94 C 55.89 24.82 58.47 24.04 59.78 25.94 C 59.74 27.13 59.72 28.33 59.70 29.52 C 54.01 33.52 46.73 29.79 40.76 32.80 C 39.18 34.31 39.05 36.69 37.97 38.52 C 37.63 35.57 38.01 32.59 37.85 29.64 C 37.83 28.04 37.78 26.33 38.90 25.05 Z" />
<path fill="#f2e9d3" opacity="1.00" d=" M 40.47 40.40 C 45.61 40.68 50.75 40.16 55.89 40.53 C 53.25 47.65 47.35 53.61 39.98 55.75 C 39.21 50.62 40.84 45.55 40.47 40.40 Z" />
</g>
<g id="#bfbeb9ff">
<path fill="#bfbeb9" opacity="1.00" d=" M 39.97 23.08 C 38.32 18.35 41.05 13.36 40.60 8.48 C 43.29 9.45 45.93 10.67 48.09 12.59 C 44.90 15.69 42.52 19.47 39.97 23.08 Z" />
<path fill="#bfbeb9" opacity="1.00" d=" M 40.76 32.80 C 46.73 29.79 54.01 33.52 59.70 29.52 C 59.84 30.57 59.85 31.62 59.72 32.67 C 58.92 34.84 59.41 37.17 59.30 39.43 C 52.51 39.94 45.60 40.57 38.81 39.69 C 38.60 39.39 38.18 38.81 37.97 38.52 C 39.05 36.69 39.18 34.31 40.76 32.80 Z" />
<path fill="#bfbeb9" opacity="1.00" d=" M 23.84 41.16 L 24.38 40.57 C 24.41 45.38 22.09 49.71 20.96 54.28 C 19.26 53.25 17.49 52.29 15.99 50.97 C 18.09 47.31 21.08 44.31 23.84 41.16 Z" />
</g>
<g id="#dac492ff">
<path fill="#dac492" opacity="1.00" d=" M 43.84 25.00 C 47.55 23.76 50.73 21.40 53.35 18.54 C 54.17 19.92 55.00 21.29 55.80 22.68 C 55.81 23.15 55.83 24.09 55.84 24.55 C 55.37 24.65 54.44 24.84 53.98 24.94 C 50.60 25.08 47.22 24.87 43.84 25.00 Z" />
<path fill="#dac492" opacity="1.00" d=" M 11.31 45.47 C 7.21 39.64 6.65 31.74 8.27 24.95 C 11.09 29.73 17.16 33.32 22.53 30.36 C 22.11 33.36 22.67 36.28 24.69 38.61 L 24.96 39.02 C 24.81 39.41 24.52 40.18 24.38 40.57 L 23.84 41.16 C 22.53 40.59 21.31 39.01 19.75 39.64 C 16.53 40.92 14.18 43.62 11.31 45.47 Z" />
<path fill="#dac492" opacity="1.00" d=" M 34.41 41.59 C 35.79 41.30 36.86 40.37 37.98 39.58 C 38.37 39.76 39.15 40.11 39.54 40.29 C 35.20 44.54 38.16 50.83 37.34 56.13 C 36.64 55.96 35.25 55.64 34.55 55.47 C 34.39 50.85 34.70 46.21 34.41 41.59 Z" />
</g>
</svg>
