<?xml version="1.0" encoding="UTF-8" ?>
<!DOCTYPE svg PUBLIC "-//W3C//DTD SVG 1.1//EN" "http://www.w3.org/Graphics/SVG/1.1/DTD/svg11.dtd">
<svg width="64pt" height="64pt" viewBox="0 0 64 64" version="1.1" xmlns="http://www.w3.org/2000/svg">
<g id="#c40e07fe">
<path fill="#c40e07" opacity="1.00" d=" M 29.98 3.06 C 34.76 3.37 40.62 4.72 42.24 9.86 C 45.41 15.05 44.30 22.01 40.76 26.72 C 39.13 27.19 37.49 27.62 35.86 28.08 C 35.34 28.26 34.29 28.61 33.77 28.79 C 32.26 28.87 30.74 28.89 29.23 28.84 C 28.89 28.71 28.21 28.44 27.87 28.31 C 19.45 26.50 17.20 17.02 20.23 9.96 L 20.88 10.40 C 21.08 14.75 24.67 17.90 28.94 17.97 C 33.45 16.96 36.95 11.23 34.00 7.03 C 32.98 5.61 31.13 5.11 29.75 4.10 L 29.98 3.06 Z" />
</g>
<g id="#ea4b40ff">
<path fill="#ea4b40" opacity="1.00" d=" M 20.88 10.40 C 23.34 7.82 25.54 3.38 29.75 4.10 C 31.13 5.11 32.98 5.61 34.00 7.03 C 36.95 11.23 33.45 16.96 28.94 17.97 C 24.67 17.90 21.08 14.75 20.88 10.40 M 26.21 8.14 C 24.51 9.08 24.11 13.24 26.97 11.96 C 30.08 12.07 29.10 6.96 26.21 8.14 Z" />
</g>
<g id="#d5c8cbff">
<path fill="#d5c8cb" opacity="1.00" d=" M 26.21 8.14 C 29.10 6.96 30.08 12.07 26.97 11.96 C 24.11 13.24 24.51 9.08 26.21 8.14 Z" />
<path fill="#d5c8cb" opacity="1.00" d=" M 30.06 30.02 C 30.54 30.01 31.49 30.01 31.97 30.00 C 32.05 40.06 32.07 50.12 31.91 60.18 C 31.47 59.83 30.58 59.14 30.13 58.79 C 29.94 49.20 29.86 39.60 30.06 30.02 Z" />
</g>
<g id="#3b282bac">
<path fill="#3b282b" opacity="0.67" d=" M 27.87 28.31 C 28.21 28.44 28.89 28.71 29.23 28.84 C 28.94 39.14 28.79 49.45 29.15 59.75 C 30.06 61.51 32.94 61.51 33.85 59.75 C 34.21 49.43 34.06 39.10 33.77 28.79 C 34.29 28.61 35.34 28.26 35.86 28.08 C 34.33 38.89 34.67 49.98 35.83 60.82 C 33.16 62.20 29.84 62.20 27.17 60.82 C 28.67 50.05 27.84 39.14 27.87 28.31 Z" />
</g>
<g id="#9d9ba1ff">
<path fill="#9d9ba1" opacity="1.00" d=" M 29.23 28.84 C 30.74 28.89 32.26 28.87 33.77 28.79 C 34.06 39.10 34.21 49.43 33.85 59.75 C 32.94 61.51 30.06 61.51 29.15 59.75 C 28.79 49.45 28.94 39.14 29.23 28.84 M 30.06 30.02 C 29.86 39.60 29.94 49.20 30.13 58.79 C 30.58 59.14 31.47 59.83 31.91 60.18 C 32.07 50.12 32.05 40.06 31.97 30.00 C 31.49 30.01 30.54 30.01 30.06 30.02 Z" />
</g>
</svg>
