<?xml version="1.0" encoding="UTF-8" ?>
<!DOCTYPE svg PUBLIC "-//W3C//DTD SVG 1.1//EN" "http://www.w3.org/Graphics/SVG/1.1/DTD/svg11.dtd">
<svg width="64pt" height="64pt" viewBox="0 0 64 64" version="1.1" xmlns="http://www.w3.org/2000/svg">
<g id="#23221f74">
<path fill="#23221f" opacity="0.45" d=" M 13.01 10.16 C 22.51 1.75 37.80 0.81 48.18 8.08 L 48.64 9.40 C 40.35 3.62 29.05 2.26 19.91 6.85 C 15.67 8.62 12.62 12.11 9.30 15.13 C 9.32 12.86 11.59 11.62 13.01 10.16 Z" />
</g>
<g id="#fff9ebff">
<path fill="#fff9eb" opacity="1.00" d=" M 19.91 6.85 C 29.05 2.26 40.35 3.62 48.64 9.40 C 60.12 17.44 63.45 34.32 56.23 46.25 L 56.40 45.32 C 57.47 40.03 59.42 34.73 58.33 29.25 C 58.01 27.85 57.67 26.45 57.28 25.07 C 55.26 22.69 51.75 23.90 49.03 23.24 C 50.06 20.78 53.77 18.16 51.68 15.38 C 49.21 11.86 44.50 11.37 41.31 8.72 C 39.30 7.01 36.90 5.84 34.19 6.18 C 31.28 6.26 28.35 6.41 25.49 7.04 C 23.07 7.92 20.68 8.92 18.37 10.07 C 16.89 10.91 15.47 11.86 14.10 12.87 C 12.91 13.97 11.77 15.14 10.70 16.36 C 9.57 17.79 8.58 19.34 7.71 20.95 C 7.28 21.74 6.85 22.54 6.41 23.34 L 5.21 24.18 C 6.06 21.24 7.64 18.59 8.87 15.80 L 9.30 15.13 C 12.62 12.11 15.67 8.62 19.91 6.85 Z" />
<path fill="#fff9eb" opacity="1.00" d=" M 9.50 48.63 C 4.57 41.87 2.78 32.87 5.04 24.78 C 4.99 29.77 4.80 34.98 7.03 39.59 C 7.29 39.93 7.80 40.59 8.06 40.93 C 10.03 41.13 12.02 41.24 14.01 41.37 C 13.22 44.18 11.61 46.62 9.50 48.63 Z" />
</g>
<g id="#fff4d6ff">
<path fill="#fff4d6" opacity="1.00" d=" M 34.19 6.18 C 36.90 5.84 39.30 7.01 41.31 8.72 C 44.50 11.37 49.21 11.86 51.68 15.38 C 53.77 18.16 50.06 20.78 49.03 23.24 C 51.75 23.90 55.26 22.69 57.28 25.07 C 53.63 26.24 49.83 27.05 45.98 26.87 C 41.93 27.19 39.78 23.12 37.22 20.70 C 37.82 16.74 38.72 12.84 39.79 8.98 C 37.93 8.04 36.06 7.12 34.19 6.18 Z" />
<path fill="#fff4d6" opacity="1.00" d=" M 7.03 39.59 C 11.55 38.66 16.15 37.47 20.80 37.90 C 23.16 39.31 24.93 41.47 26.85 43.39 C 26.22 47.92 24.97 52.33 24.11 56.82 C 25.80 57.34 27.50 57.82 29.23 58.21 C 31.35 58.66 33.46 59.13 35.56 59.66 C 25.68 61.22 15.40 56.60 9.50 48.63 C 11.61 46.62 13.22 44.18 14.01 41.37 C 12.02 41.24 10.03 41.13 8.06 40.93 C 7.80 40.59 7.29 39.93 7.03 39.59 Z" />
<path fill="#fff4d6" opacity="1.00" d=" M 52.15 49.69 C 53.33 48.71 54.56 47.81 55.77 46.88 C 55.55 47.22 55.10 47.90 54.88 48.24 C 51.28 52.67 46.75 57.23 40.83 58.03 C 40.72 58.23 40.51 58.63 40.40 58.83 C 39.87 59.00 38.81 59.35 38.28 59.52 C 37.63 59.55 36.31 59.62 35.66 59.65 C 38.33 58.12 41.18 56.98 44.04 55.85 C 45.45 55.12 46.81 54.31 48.12 53.43 C 49.51 52.23 50.79 50.92 52.15 49.69 Z" />
</g>
<g id="#ebd4a3ff">
<path fill="#ebd4a3" opacity="1.00" d=" M 25.49 7.04 C 28.35 6.41 31.28 6.26 34.19 6.18 C 35.67 11.76 33.06 17.63 35.49 23.05 C 34.80 22.92 33.43 22.66 32.74 22.53 C 30.42 18.21 30.65 13.25 30.68 8.50 C 28.95 8.02 27.22 7.53 25.49 7.04 Z" />
</g>
<g id="#fae7b6ff">
<path fill="#fae7b6" opacity="1.00" d=" M 34.19 6.18 C 36.06 7.12 37.93 8.04 39.79 8.98 C 38.72 12.84 37.82 16.74 37.22 20.70 C 39.78 23.12 41.93 27.19 45.98 26.87 C 49.83 27.05 53.63 26.24 57.28 25.07 C 57.67 26.45 58.01 27.85 58.33 29.25 C 52.65 30.83 46.35 31.56 41.03 28.47 C 39.73 26.18 37.84 24.25 35.49 23.05 C 33.06 17.63 35.67 11.76 34.19 6.18 Z" />
</g>
<g id="#eccb8cff">
<path fill="#eccb8c" opacity="1.00" d=" M 18.37 10.07 C 20.68 8.92 23.07 7.92 25.49 7.04 C 27.22 7.53 28.95 8.02 30.68 8.50 C 30.65 13.25 30.42 18.21 32.74 22.53 C 30.45 22.48 28.22 23.10 26.19 24.14 C 26.02 23.70 25.67 22.82 25.50 22.38 C 23.74 17.94 20.85 14.11 18.37 10.07 Z" />
</g>
<g id="#dff193ff">
<path fill="#dff193" opacity="1.00" d=" M 14.10 12.87 C 15.47 11.86 16.89 10.91 18.37 10.07 C 20.85 14.11 23.74 17.94 25.50 22.38 L 24.31 23.59 C 20.57 20.36 16.99 16.91 14.10 12.87 Z" />
</g>
<g id="#c7dbb1ff">
<path fill="#c7dbb1" opacity="1.00" d=" M 10.70 16.36 C 11.77 15.14 12.91 13.97 14.10 12.87 C 16.99 16.91 20.57 20.36 24.31 23.59 C 23.68 24.22 23.05 24.84 22.41 25.47 C 18.40 22.58 14.46 19.58 10.70 16.36 Z" />
</g>
<g id="#1d1c1981">
<path fill="#1d1c19" opacity="0.51" d=" M 5.83 19.71 C 6.62 18.26 6.99 16.16 8.87 15.80 C 7.64 18.59 6.06 21.24 5.21 24.18 C 5.17 24.33 5.08 24.63 5.04 24.78 C 2.78 32.87 4.57 41.87 9.50 48.63 C 15.40 56.60 25.68 61.22 35.56 59.66 L 35.66 59.65 C 36.31 59.62 37.63 59.55 38.28 59.52 C 32.05 62.31 25.09 60.15 18.84 58.52 C 4.80 52.05 -0.62 33.32 5.83 19.71 Z" />
</g>
<g id="#c1b9b2ff">
<path fill="#c1b9b2" opacity="1.00" d=" M 7.71 20.95 C 8.58 19.34 9.57 17.79 10.70 16.36 C 14.46 19.58 18.40 22.58 22.41 25.47 C 22.06 25.82 21.34 26.53 20.99 26.89 C 16.53 24.97 12.13 22.95 7.71 20.95 Z" />
</g>
<g id="#d6c39fff">
<path fill="#d6c39f" opacity="1.00" d=" M 7.71 20.95 C 12.13 22.95 16.53 24.97 20.99 26.89 C 21.34 26.53 22.06 25.82 22.41 25.47 C 23.05 24.84 23.68 24.22 24.31 23.59 L 25.50 22.38 C 25.67 22.82 26.02 23.70 26.19 24.14 C 22.57 26.93 21.68 31.52 22.84 35.79 C 18.33 31.11 11.61 32.73 5.92 33.60 C 5.74 30.17 5.86 26.73 6.41 23.34 C 6.85 22.54 7.28 21.74 7.71 20.95 Z" />
</g>
<g id="#71684fd9">
<path fill="#71684f" opacity="0.85" d=" M 26.19 24.14 C 28.22 23.10 30.45 22.48 32.74 22.53 C 33.43 22.66 34.80 22.92 35.49 23.05 C 37.84 24.25 39.73 26.18 41.03 28.47 C 41.58 31.33 42.23 34.69 40.07 37.07 C 40.49 34.78 40.68 32.46 40.82 30.13 C 39.30 29.55 37.83 28.80 36.75 27.55 C 35.72 23.01 29.25 23.56 26.46 26.12 C 22.95 29.12 22.30 34.19 24.77 38.07 C 24.12 37.32 23.48 36.55 22.84 35.79 C 21.68 31.52 22.57 26.93 26.19 24.14 Z" />
</g>
<g id="#f8e5b5ff">
<path fill="#f8e5b5" opacity="1.00" d=" M 5.04 24.78 C 5.08 24.63 5.17 24.33 5.21 24.18 L 6.41 23.34 C 5.86 26.73 5.74 30.17 5.92 33.60 C 11.61 32.73 18.33 31.11 22.84 35.79 C 23.48 36.55 24.12 37.32 24.77 38.07 C 25.90 39.43 27.44 40.32 29.02 41.04 C 32.00 46.34 30.41 52.63 29.23 58.21 C 27.50 57.82 25.80 57.34 24.11 56.82 C 24.97 52.33 26.22 47.92 26.85 43.39 C 24.93 41.47 23.16 39.31 20.80 37.90 C 16.15 37.47 11.55 38.66 7.03 39.59 C 4.80 34.98 4.99 29.77 5.04 24.78 Z" />
</g>
<g id="#7a704fbb">
<path fill="#7a704f" opacity="0.73" d=" M 26.46 26.12 C 29.25 23.56 35.72 23.01 36.75 27.55 C 33.40 25.44 29.52 26.39 26.14 27.83 L 26.46 26.12 Z" />
</g>
<g id="#46402b7e">
<path fill="#46402b" opacity="0.49" d=" M 24.77 38.07 C 22.30 34.19 22.95 29.12 26.46 26.12 L 26.14 27.83 C 29.52 26.39 33.40 25.44 36.75 27.55 C 37.83 28.80 39.30 29.55 40.82 30.13 C 40.68 32.46 40.49 34.78 40.07 37.07 C 39.54 37.85 38.95 38.60 38.38 39.36 C 35.61 41.23 32.27 41.85 29.02 41.04 C 27.44 40.32 25.90 39.43 24.77 38.07 M 28.57 29.84 L 28.83 31.26 C 27.82 31.43 26.81 31.60 25.81 31.77 C 24.96 37.43 32.80 40.42 36.46 36.50 C 38.39 35.07 37.91 32.54 38.08 30.46 C 37.32 30.57 35.80 30.81 35.04 30.92 L 35.26 29.79 C 33.04 29.43 30.78 29.31 28.57 29.84 Z" />
</g>
<g id="#dac69dff">
<path fill="#dac69d" opacity="1.00" d=" M 41.03 28.47 C 46.35 31.56 52.65 30.83 58.33 29.25 C 59.42 34.73 57.47 40.03 56.40 45.32 C 51.99 43.03 47.78 39.78 42.64 39.45 C 41.18 39.84 39.75 40.33 38.31 40.78 C 38.33 40.43 38.36 39.72 38.38 39.36 C 38.95 38.60 39.54 37.85 40.07 37.07 C 42.23 34.69 41.58 31.33 41.03 28.47 Z" />
</g>
<g id="#2e291a47">
<path fill="#2e291a" opacity="0.28" d=" M 25.81 31.77 C 26.81 31.60 27.82 31.43 28.83 31.26 C 29.03 32.31 29.24 33.37 29.47 34.42 C 30.12 34.69 31.41 35.23 32.06 35.50 C 32.64 35.21 33.79 34.62 34.37 34.33 C 34.59 33.19 34.81 32.06 35.04 30.92 C 35.80 30.81 37.32 30.57 38.08 30.46 C 37.91 32.54 38.39 35.07 36.46 36.50 C 32.80 40.42 24.96 37.43 25.81 31.77 Z" />
<path fill="#2e291a" opacity="0.28" d=" M 40.83 58.03 C 46.75 57.23 51.28 52.67 54.88 48.24 C 54.88 49.73 54.43 51.18 53.29 52.18 C 50.76 54.84 47.90 57.28 44.54 58.82 C 43.16 58.86 41.78 58.86 40.40 58.83 C 40.51 58.63 40.72 58.23 40.83 58.03 Z" />
</g>
<g id="#d1e5a2ff">
<path fill="#d1e5a2" opacity="1.00" d=" M 38.31 40.78 C 39.75 40.33 41.18 39.84 42.64 39.45 C 45.12 43.46 48.68 46.57 52.15 49.69 C 50.79 50.92 49.51 52.23 48.12 53.43 C 44.63 50.05 41.92 45.98 38.36 42.68 C 38.35 42.21 38.32 41.26 38.31 40.78 Z" />
</g>
<g id="#e8cb95ff">
<path fill="#e8cb95" opacity="1.00" d=" M 29.02 41.04 C 32.27 41.85 35.61 41.23 38.38 39.36 C 38.36 39.72 38.33 40.43 38.31 40.78 C 38.32 41.26 38.35 42.21 38.36 42.68 C 38.37 47.66 42.09 51.51 44.04 55.85 C 41.18 56.98 38.33 58.12 35.66 59.65 L 35.56 59.66 C 33.46 59.13 31.35 58.66 29.23 58.21 C 30.41 52.63 32.00 46.34 29.02 41.04 Z" />
</g>
<g id="#bfbdbaff">
<path fill="#bfbdba" opacity="1.00" d=" M 42.64 39.45 C 47.78 39.78 51.99 43.03 56.40 45.32 L 56.23 46.25 L 55.77 46.88 C 54.56 47.81 53.33 48.71 52.15 49.69 C 48.68 46.57 45.12 43.46 42.64 39.45 Z" />
</g>
<g id="#efe58dff">
<path fill="#efe58d" opacity="1.00" d=" M 38.36 42.68 C 41.92 45.98 44.63 50.05 48.12 53.43 C 46.81 54.31 45.45 55.12 44.04 55.85 C 42.09 51.51 38.37 47.66 38.36 42.68 Z" />
</g>
<g id="#0303024d">
<path fill="#030302" opacity="0.30" d=" M 18.84 58.52 C 25.09 60.15 32.05 62.31 38.28 59.52 C 38.81 59.35 39.87 59.00 40.40 58.83 C 41.78 58.86 43.16 58.86 44.54 58.82 C 40.28 62.45 34.23 62.15 28.99 62.02 C 25.49 61.60 21.17 61.62 18.84 58.52 Z" />
</g>
</svg>
