<?xml version="1.0" encoding="UTF-8" ?>
<!DOCTYPE svg PUBLIC "-//W3C//DTD SVG 1.1//EN" "http://www.w3.org/Graphics/SVG/1.1/DTD/svg11.dtd">
<svg width="64pt" height="64pt" viewBox="0 0 64 64" version="1.1" xmlns="http://www.w3.org/2000/svg">
<g id="#c35f5eff">
<path fill="#c35f5e" opacity="1.00" d=" M 2.89 2.91 C 6.95 3.05 11.12 2.46 15.09 3.17 C 16.07 5.13 13.91 6.46 12.90 7.81 C 12.89 10.55 16.23 12.60 18.23 10.25 C 20.45 7.95 16.88 5.84 15.55 4.22 C 16.16 2.96 17.67 2.58 18.96 2.82 C 27.34 2.94 35.72 2.85 44.10 2.89 C 43.65 5.48 45.13 4.57 45.63 2.93 C 50.79 2.84 55.95 2.88 61.11 2.91 C 61.18 10.47 61.23 18.02 61.09 25.58 C 41.80 25.42 22.49 25.33 3.21 25.61 L 2.80 25.63 C 2.90 18.06 2.76 10.49 2.89 2.91 M 44.91 6.17 C 45.23 7.91 44.88 10.63 47.13 11.14 C 49.67 12.10 52.16 8.74 50.30 6.76 C 49.02 4.83 46.72 6.07 44.91 6.17 M 10.50 11.91 C 10.11 14.84 10.04 17.80 9.99 20.75 L 9.22 20.14 C 9.12 20.88 8.91 22.37 8.80 23.11 C 12.94 21.08 12.11 15.38 10.50 11.91 M 13.95 22.07 C 15.91 22.23 18.05 22.92 19.90 21.92 C 22.03 19.09 20.76 15.14 20.72 11.89 C 19.28 14.76 20.36 18.21 18.88 21.02 C 17.63 21.16 16.37 21.23 15.10 21.23 C 14.97 18.08 15.17 14.82 13.92 11.84 C 13.16 15.21 13.41 18.69 13.95 22.07 M 23.00 12.64 C 23.00 15.90 23.00 19.17 23.00 22.43 C 25.33 22.29 27.67 22.08 29.96 21.57 C 28.06 21.28 26.15 21.08 24.24 20.89 C 24.26 18.19 24.27 15.48 24.29 12.78 L 23.00 12.64 M 6.28 19.77 C 6.35 20.31 6.47 21.37 6.53 21.91 C 7.61 22.09 8.13 21.62 8.11 20.50 C 7.65 20.32 6.74 19.96 6.28 19.77 Z" />
</g>
<g id="#e2e2e2ff">
<path fill="#e2e2e2" opacity="1.00" d=" M 10.50 11.91 C 12.11 15.38 12.94 21.08 8.80 23.11 C 8.91 22.37 9.12 20.88 9.22 20.14 L 9.99 20.75 C 10.04 17.80 10.11 14.84 10.50 11.91 Z" />
<path fill="#e2e2e2" opacity="1.00" d=" M 13.95 22.07 C 13.41 18.69 13.16 15.21 13.92 11.84 C 15.17 14.82 14.97 18.08 15.10 21.23 C 16.37 21.23 17.63 21.16 18.88 21.02 C 20.36 18.21 19.28 14.76 20.72 11.89 C 20.76 15.14 22.03 19.09 19.90 21.92 C 18.05 22.92 15.91 22.23 13.95 22.07 Z" />
<path fill="#e2e2e2" opacity="1.00" d=" M 23.00 12.64 L 24.29 12.78 C 24.27 15.48 24.26 18.19 24.24 20.89 C 26.15 21.08 28.06 21.28 29.96 21.57 C 27.67 22.08 25.33 22.29 23.00 22.43 C 23.00 19.17 23.00 15.90 23.00 12.64 Z" />
<path fill="#e2e2e2" opacity="1.00" d=" M 6.28 19.77 C 6.74 19.96 7.65 20.32 8.11 20.50 C 8.13 21.62 7.61 22.09 6.53 21.91 C 6.47 21.37 6.35 20.31 6.28 19.77 Z" />
<path fill="#e2e2e2" opacity="1.00" d=" M 3.21 25.61 C 22.49 25.33 41.80 25.42 61.09 25.58 C 60.57 37.30 60.93 49.06 60.82 60.80 C 41.61 60.78 22.39 60.78 3.18 60.80 C 3.26 49.07 3.04 37.34 3.21 25.61 M 22.77 30.44 C 21.10 33.18 18.14 34.29 15.08 34.62 C 15.09 35.32 15.12 36.72 15.14 37.42 C 17.13 37.41 19.13 37.41 21.13 37.41 C 20.93 43.28 21.00 49.16 20.96 55.04 C 22.51 55.04 24.05 55.05 25.59 55.05 C 25.55 46.84 25.36 38.63 25.36 30.42 C 24.50 30.43 23.64 30.43 22.77 30.44 M 32.40 30.41 C 32.40 31.48 32.40 32.55 32.39 33.61 C 36.78 33.57 41.18 33.61 45.57 33.55 C 40.07 39.48 36.16 46.95 35.26 55.05 C 36.83 55.04 38.40 55.04 39.97 55.04 C 40.66 47.27 43.67 39.77 48.78 33.85 C 48.80 32.70 48.82 31.54 48.85 30.39 C 43.37 30.48 37.88 30.46 32.40 30.41 Z" />
</g>
<g id="#272727ff">
<path fill="#272727" opacity="1.00" d=" M 22.77 30.44 C 23.64 30.43 24.50 30.43 25.36 30.42 C 25.36 38.63 25.55 46.84 25.59 55.05 C 24.05 55.05 22.51 55.04 20.96 55.04 C 21.00 49.16 20.93 43.28 21.13 37.41 C 19.13 37.41 17.13 37.41 15.14 37.42 C 15.12 36.72 15.09 35.32 15.08 34.62 C 18.14 34.29 21.10 33.18 22.77 30.44 Z" />
<path fill="#272727" opacity="1.00" d=" M 32.40 30.41 C 37.88 30.46 43.37 30.48 48.85 30.39 C 48.82 31.54 48.80 32.70 48.78 33.85 C 43.67 39.77 40.66 47.27 39.97 55.04 C 38.40 55.04 36.83 55.04 35.26 55.05 C 36.16 46.95 40.07 39.48 45.57 33.55 C 41.18 33.61 36.78 33.57 32.39 33.61 C 32.40 32.55 32.40 31.48 32.40 30.41 Z" />
</g>
</svg>
