<?xml version="1.0" encoding="UTF-8" ?>
<!DOCTYPE svg PUBLIC "-//W3C//DTD SVG 1.1//EN" "http://www.w3.org/Graphics/SVG/1.1/DTD/svg11.dtd">
<svg width="64pt" height="64pt" viewBox="0 0 64 64" version="1.1" xmlns="http://www.w3.org/2000/svg">
<g id="#8e8e8eec">
<path fill="#8e8e8e" opacity="0.93" d=" M 3.72 17.65 C 1.63 12.06 7.22 5.64 13.01 6.49 C 15.18 6.63 16.87 8.21 18.35 9.65 C 26.85 18.21 35.43 26.71 43.93 35.28 C 45.56 36.85 46.66 38.84 47.39 40.97 C 46.55 43.83 44.29 46.90 40.98 46.73 C 38.38 46.82 36.58 44.74 34.88 43.09 C 29.49 37.54 23.87 32.22 18.57 26.59 C 17.49 25.55 18.77 23.97 20.10 24.28 C 27.37 30.71 33.45 38.51 41.15 44.45 C 42.75 43.78 43.85 42.53 44.56 40.97 C 43.17 38.28 40.77 36.37 38.72 34.23 C 30.71 26.32 22.87 18.23 14.77 10.42 C 11.46 7.30 5.95 10.83 6.27 15.02 C 5.75 17.50 7.93 19.00 9.43 20.53 C 20.78 31.85 32.10 43.20 43.44 54.54 C 45.21 56.24 47.36 58.03 49.98 57.89 C 54.15 57.90 57.34 53.91 57.88 50.03 C 58.40 46.47 55.18 44.20 53.05 41.88 C 44.16 32.84 34.82 24.21 26.27 14.86 C 26.86 14.20 28.10 12.64 29.03 13.84 C 37.93 22.56 46.67 31.44 55.52 40.20 C 57.95 42.62 60.52 45.41 60.84 48.99 C 60.93 54.01 57.07 57.94 53.05 60.37 C 49.55 60.97 45.59 60.81 42.99 58.07 C 30.94 46.43 19.26 34.40 7.33 22.63 C 5.89 21.18 4.21 19.74 3.72 17.65 Z" />
</g>
</svg>
