<?xml version="1.0" encoding="UTF-8" ?>
<!DOCTYPE svg PUBLIC "-//W3C//DTD SVG 1.1//EN" "http://www.w3.org/Graphics/SVG/1.1/DTD/svg11.dtd">
<svg width="64pt" height="64pt" viewBox="0 0 64 64" version="1.1" xmlns="http://www.w3.org/2000/svg">
<g id="#e9e9eaff">
<path fill="#e9e9ea" opacity="1.00" d=" M 27.96 3.13 C 29.30 -0.51 34.69 -0.51 36.03 3.12 C 36.25 3.43 36.68 4.05 36.89 4.35 C 43.20 4.56 49.51 3.77 55.81 4.30 C 51.84 4.56 47.87 4.63 43.89 4.71 L 44.09 5.52 C 44.13 6.38 44.21 8.10 44.25 8.96 C 36.08 8.80 27.91 8.80 19.74 9.00 C 19.78 8.14 19.86 6.40 19.91 5.53 L 20.10 4.76 C 16.16 4.66 12.22 4.59 8.28 4.31 C 14.56 3.82 20.83 4.59 27.11 4.36 C 27.32 4.05 27.75 3.43 27.96 3.13 M 29.87 3.16 C 30.62 4.43 33.37 4.43 34.13 3.17 C 33.35 1.76 30.65 1.76 29.87 3.16 M 28.67 4.43 C 29.38 8.07 34.60 8.06 35.33 4.44 C 33.11 4.40 30.89 4.40 28.67 4.43 Z" />
</g>
<g id="#56412cc9">
<path fill="#56412c" opacity="0.79" d=" M 29.87 3.16 C 30.65 1.76 33.35 1.76 34.13 3.17 C 33.37 4.43 30.62 4.43 29.87 3.16 Z" />
</g>
<g id="#976733f5">
<path fill="#976733" opacity="0.96" d=" M 6.62 4.64 C 7.53 3.81 8.64 3.07 9.94 3.15 C 15.94 2.96 21.96 3.24 27.96 3.13 C 27.75 3.43 27.32 4.05 27.11 4.36 C 20.83 4.59 14.56 3.82 8.28 4.31 C 7.14 21.95 8.41 39.66 7.55 57.31 L 7.52 58.67 C 6.33 52.18 7.00 45.56 6.89 39.00 C 6.73 27.55 7.16 16.09 6.62 4.64 Z" />
</g>
<g id="#95642ff9">
<path fill="#95642f" opacity="0.98" d=" M 36.03 3.12 C 42.07 3.24 48.11 2.95 54.15 3.15 C 56.28 2.98 58.01 4.98 57.60 7.07 C 57.50 24.65 57.89 42.24 57.40 59.80 L 57.11 59.81 C 44.72 60.08 32.33 59.74 19.94 59.92 C 16.18 59.96 12.37 60.05 8.66 59.35 C 22.07 58.91 35.49 59.30 48.91 59.12 C 50.83 59.09 52.77 59.11 54.67 58.74 C 56.80 56.45 56.04 52.91 56.31 50.05 C 55.84 34.80 56.79 19.53 55.81 4.30 C 49.51 3.77 43.20 4.56 36.89 4.35 C 36.68 4.05 36.25 3.43 36.03 3.12 Z" />
</g>
<g id="#462103cb">
<path fill="#462103" opacity="0.80" d=" M 6.11 12.01 C 6.09 9.54 6.23 7.08 6.62 4.64 C 7.16 16.09 6.73 27.55 6.89 39.00 C 7.00 45.56 6.33 52.18 7.52 58.67 C 7.80 58.84 8.37 59.18 8.66 59.35 C 12.37 60.05 16.18 59.96 19.94 59.92 C 32.33 59.74 44.72 60.08 57.11 59.81 C 55.17 61.68 52.44 61.25 49.99 61.34 C 36.65 61.31 23.30 61.52 9.96 61.22 C 7.71 61.37 5.89 59.33 6.14 57.13 C 6.11 42.09 6.19 27.05 6.11 12.01 Z" />
</g>
<g id="#c89964ff">
<path fill="#c89964" opacity="1.00" d=" M 7.55 57.31 C 8.41 39.66 7.14 21.95 8.28 4.31 C 12.22 4.59 16.16 4.66 20.10 4.76 L 19.91 5.53 C 19.58 6.51 19.25 7.49 18.91 8.46 C 16.68 8.64 14.46 8.83 12.23 9.03 C 11.77 16.68 11.85 24.35 12.03 32.01 C 12.23 39.74 11.22 47.49 12.13 55.20 C 12.23 56.13 12.35 57.07 12.47 58.01 C 10.83 57.77 9.19 57.54 7.55 57.31 Z" />
<path fill="#c89964" opacity="1.00" d=" M 43.89 4.71 C 47.87 4.63 51.84 4.56 55.81 4.30 C 56.79 19.53 55.84 34.80 56.31 50.05 C 56.04 52.91 56.80 56.45 54.67 58.74 C 52.77 59.11 50.83 59.09 48.91 59.12 C 49.54 58.24 50.16 57.36 50.77 56.48 C 53.01 53.07 52.19 48.85 52.14 45.02 C 51.26 33.06 52.86 21.07 51.82 9.11 C 49.59 8.91 47.36 8.71 45.12 8.52 C 44.77 7.52 44.42 6.52 44.09 5.52 L 43.89 4.71 Z" />
</g>
<g id="#896c4cff">
<path fill="#896c4c" opacity="1.00" d=" M 28.67 4.43 C 30.89 4.40 33.11 4.40 35.33 4.44 C 34.60 8.06 29.38 8.07 28.67 4.43 Z" />
</g>
<g id="#a6a6a5ff">
<path fill="#a6a6a5" opacity="1.00" d=" M 18.91 8.46 C 19.25 7.49 19.58 6.51 19.91 5.53 C 19.86 6.40 19.78 8.14 19.74 9.00 C 19.72 9.75 19.67 11.25 19.65 12.00 C 27.88 12.00 36.11 12.00 44.35 12.00 C 44.32 11.24 44.28 9.72 44.25 8.96 C 44.21 8.10 44.13 6.38 44.09 5.52 C 44.42 6.52 44.77 7.52 45.12 8.52 C 45.22 8.81 45.42 9.38 45.52 9.67 C 45.62 10.51 45.83 12.18 45.93 13.01 C 36.67 13.51 27.38 13.44 18.11 13.06 C 18.21 12.21 18.40 10.52 18.50 9.67 C 18.60 9.37 18.81 8.76 18.91 8.46 Z" />
</g>
<g id="#9d8467ff">
<path fill="#9d8467" opacity="1.00" d=" M 12.23 9.03 C 14.46 8.83 16.68 8.64 18.91 8.46 C 18.81 8.76 18.60 9.37 18.50 9.67 C 16.66 9.75 14.83 9.77 12.99 9.79 C 12.95 13.98 12.96 18.17 12.98 22.35 C 12.96 28.56 12.94 34.77 12.97 40.98 C 12.99 45.38 13.01 49.77 12.99 54.17 C 25.66 54.03 38.34 54.04 51.00 54.17 C 50.99 49.73 50.99 45.28 51.02 40.84 C 51.07 34.90 50.96 28.96 51.01 23.01 C 51.04 18.61 51.03 14.20 51.01 9.79 C 49.18 9.77 47.35 9.75 45.52 9.67 C 45.42 9.38 45.22 8.81 45.12 8.52 C 47.36 8.71 49.59 8.91 51.82 9.11 C 52.86 21.07 51.26 33.06 52.14 45.02 C 52.19 48.85 53.01 53.07 50.77 56.48 C 40.53 56.18 30.26 55.93 20.02 56.45 C 17.32 56.60 14.70 55.90 12.13 55.20 C 11.22 47.49 12.23 39.74 12.03 32.01 C 11.85 24.35 11.77 16.68 12.23 9.03 Z" />
</g>
<g id="#cdcdceff">
<path fill="#cdcdce" opacity="1.00" d=" M 19.74 9.00 C 27.91 8.80 36.08 8.80 44.25 8.96 C 44.28 9.72 44.32 11.24 44.35 12.00 C 36.11 12.00 27.88 12.00 19.65 12.00 C 19.67 11.25 19.72 9.75 19.74 9.00 Z" />
</g>
<g id="#ebebebff">
<path fill="#ebebeb" opacity="1.00" d=" M 12.99 9.79 C 14.83 9.77 16.66 9.75 18.50 9.67 C 18.40 10.52 18.21 12.21 18.11 13.06 C 27.38 13.44 36.67 13.51 45.93 13.01 C 45.83 12.18 45.62 10.51 45.52 9.67 C 47.35 9.75 49.18 9.77 51.01 9.79 C 51.03 14.20 51.04 18.61 51.01 23.01 C 48.98 23.01 46.95 23.01 44.93 23.01 C 39.05 23.05 33.17 22.80 27.31 23.35 C 33.05 24.39 38.89 23.89 44.68 24.10 L 45.38 24.97 C 35.63 24.70 25.86 25.39 16.12 24.90 C 15.80 24.65 15.16 24.14 14.84 23.89 C 14.38 23.51 13.45 22.74 12.98 22.35 C 12.96 18.17 12.95 13.98 12.99 9.79 M 16.46 17.31 C 16.96 18.08 17.82 18.37 19.05 18.19 C 19.65 18.40 22.90 17.84 21.12 16.96 C 19.61 16.65 17.83 16.49 16.46 17.31 M 15.48 21.31 C 20.24 22.60 25.22 21.84 30.08 22.06 L 30.13 21.01 C 25.24 21.08 20.34 20.78 15.48 21.31 M 31.48 21.34 C 32.19 22.67 36.02 23.00 36.59 21.38 C 35.07 20.58 33.03 20.71 31.48 21.34 M 38.45 21.29 C 38.94 22.08 39.80 22.40 41.04 22.23 C 41.63 22.43 44.87 21.89 43.10 21.02 C 41.60 20.71 39.83 20.49 38.45 21.29 M 16.93 23.07 L 16.97 23.96 C 20.30 23.99 23.64 24.00 26.98 24.00 L 27.00 23.00 C 23.64 22.99 20.29 23.01 16.93 23.07 Z" />
</g>
<g id="#afafafff">
<path fill="#afafaf" opacity="1.00" d=" M 16.46 17.31 C 17.83 16.49 19.61 16.65 21.12 16.96 C 22.90 17.84 19.65 18.40 19.05 18.19 C 17.82 18.37 16.96 18.08 16.46 17.31 Z" />
<path fill="#afafaf" opacity="1.00" d=" M 31.48 21.34 C 33.03 20.71 35.07 20.58 36.59 21.38 C 36.02 23.00 32.19 22.67 31.48 21.34 Z" />
</g>
<g id="#b3b3b3ff">
<path fill="#b3b3b3" opacity="1.00" d=" M 15.48 21.31 C 20.34 20.78 25.24 21.08 30.13 21.01 L 30.08 22.06 C 25.22 21.84 20.24 22.60 15.48 21.31 Z" />
<path fill="#b3b3b3" opacity="1.00" d=" M 15.46 29.34 C 24.83 28.89 34.27 28.77 43.64 29.29 C 39.26 30.76 34.56 29.80 30.04 29.99 C 25.19 29.75 20.23 30.57 15.46 29.34 Z" />
</g>
<g id="#b0b0b0ff">
<path fill="#b0b0b0" opacity="1.00" d=" M 38.45 21.29 C 39.83 20.49 41.60 20.71 43.10 21.02 C 44.87 21.89 41.63 22.43 41.04 22.23 C 39.80 22.40 38.94 22.08 38.45 21.29 Z" />
<path fill="#b0b0b0" opacity="1.00" d=" M 16.56 35.25 C 17.24 34.38 19.72 34.36 19.59 35.78 C 18.91 36.66 16.42 36.68 16.56 35.25 Z" />
</g>
<g id="#f3f3f3ff">
<path fill="#f3f3f3" opacity="1.00" d=" M 12.98 22.35 C 13.45 22.74 14.38 23.51 14.84 23.89 C 15.16 24.14 15.80 24.65 16.12 24.90 L 17.17 25.71 C 26.79 26.70 36.50 25.72 46.16 25.93 C 45.96 25.69 45.57 25.21 45.38 24.97 L 44.68 24.10 L 44.93 23.01 C 46.95 23.01 48.98 23.01 51.01 23.01 C 50.96 28.96 51.07 34.90 51.02 40.84 C 48.65 40.97 46.28 41.11 43.90 41.21 C 41.71 40.70 39.17 40.39 37.17 41.65 L 36.71 41.64 C 29.63 40.52 22.45 41.06 15.32 41.30 C 14.73 41.22 13.56 41.06 12.97 40.98 C 12.94 34.77 12.96 28.56 12.98 22.35 M 16.15 27.02 L 16.13 27.97 C 25.97 27.92 35.84 28.23 45.67 27.78 C 42.40 26.07 38.60 26.65 35.06 26.68 C 28.77 27.24 22.46 26.98 16.15 27.02 M 15.46 29.34 C 20.23 30.57 25.19 29.75 30.04 29.99 C 34.56 29.80 39.26 30.76 43.64 29.29 C 34.27 28.77 24.83 28.89 15.46 29.34 M 15.37 31.32 C 20.41 32.42 25.73 32.16 30.83 31.69 L 30.85 31.34 C 25.75 30.43 20.50 30.95 15.37 31.32 M 32.21 31.27 C 32.28 31.41 32.42 31.71 32.49 31.85 C 37.20 31.96 42.06 32.57 46.66 31.30 C 41.87 30.89 37.00 30.69 32.21 31.27 M 16.48 33.33 C 17.35 34.70 20.24 34.41 21.63 33.69 C 20.83 32.18 17.85 32.58 16.48 33.33 M 22.70 32.99 L 22.72 34.00 C 29.64 33.80 36.58 34.39 43.46 33.60 C 36.62 32.27 29.61 33.34 22.70 32.99 M 16.56 35.25 C 16.42 36.68 18.91 36.66 19.59 35.78 C 19.72 34.36 17.24 34.38 16.56 35.25 M 20.49 35.64 C 28.42 36.21 36.46 36.27 44.39 35.56 C 39.62 34.63 34.76 35.08 29.94 34.98 C 26.78 34.94 23.56 34.77 20.49 35.64 M 15.49 37.65 C 25.63 38.45 35.83 37.76 46.00 38.00 L 46.00 37.00 C 37.65 37.05 29.31 37.01 20.96 36.96 C 19.11 36.93 17.28 37.19 15.49 37.65 M 16.00 38.99 L 15.99 40.01 C 25.69 40.07 35.39 40.12 45.10 40.06 L 45.12 38.99 C 35.42 39.11 25.71 39.00 16.00 38.99 Z" />
</g>
<g id="#adadadff">
<path fill="#adadad" opacity="1.00" d=" M 16.93 23.07 C 20.29 23.01 23.64 22.99 27.00 23.00 L 26.98 24.00 C 23.64 24.00 20.30 23.99 16.97 23.96 L 16.93 23.07 Z" />
</g>
<g id="#b1b1b1ff">
<path fill="#b1b1b1" opacity="1.00" d=" M 27.31 23.35 C 33.17 22.80 39.05 23.05 44.93 23.01 L 44.68 24.10 C 38.89 23.89 33.05 24.39 27.31 23.35 Z" />
</g>
<g id="#b6b6b6ff">
<path fill="#b6b6b6" opacity="1.00" d=" M 16.12 24.90 C 25.86 25.39 35.63 24.70 45.38 24.97 C 45.57 25.21 45.96 25.69 46.16 25.93 C 36.50 25.72 26.79 26.70 17.17 25.71 L 16.12 24.90 Z" />
</g>
<g id="#b5b5b5ff">
<path fill="#b5b5b5" opacity="1.00" d=" M 16.15 27.02 C 22.46 26.98 28.77 27.24 35.06 26.68 C 38.60 26.65 42.40 26.07 45.67 27.78 C 35.84 28.23 25.97 27.92 16.13 27.97 L 16.15 27.02 Z" />
<path fill="#b5b5b5" opacity="1.00" d=" M 22.70 32.99 C 29.61 33.34 36.62 32.27 43.46 33.60 C 36.58 34.39 29.64 33.80 22.72 34.00 L 22.70 32.99 Z" />
</g>
<g id="#b7b7b6ff">
<path fill="#b7b7b6" opacity="1.00" d=" M 15.37 31.32 C 20.50 30.95 25.75 30.43 30.85 31.34 L 30.83 31.69 C 25.73 32.16 20.41 32.42 15.37 31.32 Z" />
</g>
<g id="#b4b4b4ff">
<path fill="#b4b4b4" opacity="1.00" d=" M 32.21 31.27 C 37.00 30.69 41.87 30.89 46.66 31.30 C 42.06 32.57 37.20 31.96 32.49 31.85 C 32.42 31.71 32.28 31.41 32.21 31.27 Z" />
</g>
<g id="#bababaff">
<path fill="#bababa" opacity="1.00" d=" M 16.48 33.33 C 17.85 32.58 20.83 32.18 21.63 33.69 C 20.24 34.41 17.35 34.70 16.48 33.33 Z" />
<path fill="#bababa" opacity="1.00" d=" M 20.49 35.64 C 23.56 34.77 26.78 34.94 29.94 34.98 C 34.76 35.08 39.62 34.63 44.39 35.56 C 36.46 36.27 28.42 36.21 20.49 35.64 Z" />
<path fill="#bababa" opacity="1.00" d=" M 15.49 37.65 C 17.28 37.19 19.11 36.93 20.96 36.96 C 29.31 37.01 37.65 37.05 46.00 37.00 L 46.00 38.00 C 35.83 37.76 25.63 38.45 15.49 37.65 Z" />
<path fill="#bababa" opacity="1.00" d=" M 37.17 41.65 C 39.17 40.39 41.71 40.70 43.90 41.21 C 42.18 42.96 39.28 42.17 37.17 41.65 Z" />
</g>
<g id="#b7b7b7ff">
<path fill="#b7b7b7" opacity="1.00" d=" M 16.00 38.99 C 25.71 39.00 35.42 39.11 45.12 38.99 L 45.10 40.06 C 35.39 40.12 25.69 40.07 15.99 40.01 L 16.00 38.99 Z" />
</g>
<g id="#fdfdfdff">
<path fill="#fdfdfd" opacity="1.00" d=" M 12.97 40.98 C 13.56 41.06 14.73 41.22 15.32 41.30 C 22.38 42.55 29.60 42.19 36.71 41.64 L 37.17 41.65 C 39.28 42.17 42.18 42.96 43.90 41.21 C 46.28 41.11 48.65 40.97 51.02 40.84 C 50.99 45.28 50.99 49.73 51.00 54.17 C 38.34 54.04 25.66 54.03 12.99 54.17 C 13.01 49.77 12.99 45.38 12.97 40.98 M 16.50 43.18 C 16.63 44.64 20.31 44.70 20.44 43.23 C 19.38 42.37 17.57 42.32 16.50 43.18 M 17.32 47.29 C 17.78 48.74 20.50 48.41 21.60 47.68 C 21.11 46.26 18.41 46.56 17.32 47.29 M 16.01 49.67 C 19.47 50.12 22.98 50.12 26.43 49.63 C 23.02 48.75 19.39 48.53 16.01 49.67 Z" />
</g>
<g id="#b9b9b9ff">
<path fill="#b9b9b9" opacity="1.00" d=" M 15.32 41.30 C 22.45 41.06 29.63 40.52 36.71 41.64 C 29.60 42.19 22.38 42.55 15.32 41.30 Z" />
<path fill="#b9b9b9" opacity="1.00" d=" M 17.32 47.29 C 18.41 46.56 21.11 46.26 21.60 47.68 C 20.50 48.41 17.78 48.74 17.32 47.29 Z" />
</g>
<g id="#c3c3c4ff">
<path fill="#c3c3c4" opacity="1.00" d=" M 16.50 43.18 C 17.57 42.32 19.38 42.37 20.44 43.23 C 20.31 44.70 16.63 44.64 16.50 43.18 Z" />
</g>
<g id="#bcbcbcff">
<path fill="#bcbcbc" opacity="1.00" d=" M 16.01 49.67 C 19.39 48.53 23.02 48.75 26.43 49.63 C 22.98 50.12 19.47 50.12 16.01 49.67 Z" />
</g>
<g id="#b18859ff">
<path fill="#b18859" opacity="1.00" d=" M 12.13 55.20 C 14.70 55.90 17.32 56.60 20.02 56.45 C 30.26 55.93 40.53 56.18 50.77 56.48 C 50.16 57.36 49.54 58.24 48.91 59.12 C 35.49 59.30 22.07 58.91 8.66 59.35 C 8.37 59.18 7.80 58.84 7.52 58.67 L 7.55 57.31 C 9.19 57.54 10.83 57.77 12.47 58.01 C 12.35 57.07 12.23 56.13 12.13 55.20 Z" />
</g>
</svg>
