<?xml version="1.0" encoding="UTF-8" ?>
<!DOCTYPE svg PUBLIC "-//W3C//DTD SVG 1.1//EN" "http://www.w3.org/Graphics/SVG/1.1/DTD/svg11.dtd">
<svg width="64pt" height="64pt" viewBox="0 0 64 64" version="1.1" xmlns="http://www.w3.org/2000/svg">
<g id="#00000037">
<path fill="#000000" opacity="0.22" d=" M 6.00 2.02 C 23.33 2.00 40.66 1.94 57.98 2.04 L 58.00 2.99 L 57.03 3.01 C 40.35 2.99 23.66 2.99 6.98 3.01 L 6.00 2.99 L 6.00 2.02 Z" />
</g>
<g id="#00000038">
<path fill="#000000" opacity="0.22" d=" M 5.04 3.02 L 6.00 2.99 C 6.02 12.66 5.96 22.33 6.01 32.00 C 5.95 41.69 6.10 51.39 5.91 61.08 L 4.95 60.98 C 5.08 41.66 4.91 22.34 5.04 3.02 Z" />
<path fill="#000000" opacity="0.22" d=" M 58.00 2.99 L 58.98 3.01 C 59.05 22.33 58.96 41.66 59.03 60.98 L 58.08 61.09 C 57.94 51.39 58.04 41.69 57.99 31.99 C 58.04 22.32 57.98 12.65 58.00 2.99 Z" />
</g>
<g id="#82878cdb">
<path fill="#82878c" opacity="0.86" d=" M 6.00 2.99 L 6.98 3.01 L 7.01 4.00 C 7.01 4.51 7.02 5.52 7.02 6.03 L 7.02 6.98 C 6.98 8.67 6.96 10.37 6.98 12.06 C 6.98 12.53 6.99 13.47 6.99 13.95 C 6.99 15.64 6.99 17.33 7.02 19.03 L 7.02 19.98 C 6.99 21.67 6.99 23.35 7.01 25.04 C 7.01 25.52 7.01 26.48 7.01 26.96 C 6.99 28.64 6.99 30.31 6.99 31.99 L 6.01 32.00 C 5.96 22.33 6.02 12.66 6.00 2.99 Z" />
</g>
<g id="#c7c9caea">
<path fill="#c7c9ca" opacity="0.92" d=" M 6.98 3.01 C 23.66 2.99 40.35 2.99 57.03 3.01 L 57.00 4.00 C 55.30 4.01 53.61 4.02 51.91 4.05 L 51.08 4.05 C 49.36 4.02 47.64 4.02 45.91 4.05 L 45.07 4.04 C 43.02 4.00 40.97 4.00 38.92 4.04 L 38.08 4.05 C 36.36 4.02 34.64 4.02 32.92 4.05 L 32.08 4.05 C 30.34 4.02 28.59 4.01 26.84 4.04 C 26.42 4.04 25.58 4.04 25.16 4.04 C 23.41 4.01 21.66 4.01 19.92 4.05 L 19.08 4.05 C 17.36 4.02 15.64 4.02 13.92 4.05 L 13.09 4.05 C 11.07 4.01 9.04 4.00 7.01 4.00 L 6.98 3.01 Z" />
</g>
<g id="#84898ddb">
<path fill="#84898d" opacity="0.86" d=" M 57.03 3.01 L 58.00 2.99 C 57.98 12.65 58.04 22.32 57.99 31.99 L 57.01 32.03 C 57.00 27.73 57.03 23.44 56.98 19.14 C 57.01 15.09 57.01 11.03 56.98 6.98 L 56.98 6.03 C 56.98 5.52 56.99 4.51 57.00 4.00 L 57.03 3.01 Z" />
</g>
<g id="#fcfdfeff">
<path fill="#fcfdfe" opacity="1.00" d=" M 7.01 4.00 C 9.04 4.00 11.07 4.01 13.09 4.05 C 12.64 6.63 10.62 7.29 7.02 6.03 C 7.02 5.52 7.01 4.51 7.01 4.00 Z" />
<path fill="#fcfdfe" opacity="1.00" d=" M 38.92 4.04 C 40.97 4.00 43.02 4.00 45.07 4.04 C 45.83 7.35 38.25 7.75 38.92 4.04 Z" />
</g>
<g id="#e5eef7ff">
<path fill="#e5eef7" opacity="1.00" d=" M 13.09 4.05 L 13.92 4.05 C 14.01 4.52 14.20 5.45 14.29 5.91 L 18.71 5.91 C 18.80 5.44 18.99 4.51 19.08 4.05 L 19.92 4.05 C 20.01 4.51 20.20 5.45 20.29 5.91 L 24.69 5.90 C 24.81 5.43 25.04 4.51 25.16 4.04 C 25.58 4.04 26.42 4.04 26.84 4.04 C 26.96 4.51 27.19 5.43 27.31 5.90 L 31.71 5.91 C 31.80 5.45 31.99 4.51 32.08 4.05 L 32.92 4.05 C 33.01 4.51 33.20 5.44 33.29 5.91 L 37.71 5.91 C 37.80 5.44 37.99 4.51 38.08 4.05 L 38.92 4.04 C 38.25 7.75 45.83 7.35 45.07 4.04 L 45.91 4.05 C 46.01 4.51 46.20 5.44 46.29 5.91 L 50.71 5.91 C 50.80 5.45 50.99 4.52 51.08 4.05 L 51.91 4.05 C 51.55 7.08 55.15 5.66 56.98 6.03 L 56.98 6.98 C 55.35 6.98 53.72 6.97 52.09 7.09 C 52.05 8.36 52.04 9.62 52.07 10.89 L 52.04 11.63 C 51.85 12.02 51.48 12.80 51.30 13.19 C 49.97 11.64 47.32 8.55 45.99 7.00 C 43.11 13.35 47.44 13.22 51.30 13.19 L 50.95 13.96 C 48.34 13.93 44.98 13.36 45.80 17.11 L 45.10 16.97 C 46.69 12.02 37.12 12.33 38.88 17.04 L 38.12 17.00 C 39.05 13.26 35.54 13.96 33.00 13.97 L 32.99 13.02 C 35.86 12.65 41.54 14.66 38.02 7.99 C 38.04 4.20 31.19 6.69 32.95 9.99 L 32.05 9.99 C 34.08 4.52 21.96 5.48 26.99 11.96 C 26.93 14.09 30.54 12.52 32.01 13.02 L 32.01 13.98 C 30.37 13.98 28.73 13.97 27.10 14.09 C 26.97 15.73 26.98 17.38 26.96 19.02 C 26.48 19.02 25.52 19.02 25.04 19.02 C 25.02 17.38 25.03 15.73 24.90 14.09 C 23.27 13.97 21.63 13.98 19.99 13.98 L 19.99 13.02 C 22.86 12.65 28.54 14.66 25.02 7.99 C 25.04 4.20 18.19 6.69 19.95 9.99 L 19.05 9.99 C 21.08 4.52 8.96 5.48 13.99 11.96 C 13.93 14.09 17.54 12.52 19.01 13.01 L 19.00 13.97 C 16.45 13.96 12.94 13.26 13.88 17.02 L 13.14 17.02 C 13.94 12.95 10.21 13.68 6.99 13.95 C 6.99 13.47 6.98 12.53 6.98 12.06 C 10.15 14.27 15.79 12.50 13.03 7.11 C 11.52 7.08 8.52 7.01 7.02 6.98 L 7.02 6.03 C 10.62 7.29 12.64 6.63 13.09 4.05 M 38.98 7.01 C 36.50 11.39 40.51 13.96 43.79 12.87 C 47.62 10.06 44.42 3.24 38.98 7.01 Z" />
</g>
<g id="#ffffffff">
<path fill="#ffffff" opacity="1.00" d=" M 13.92 4.05 C 15.64 4.02 17.36 4.02 19.08 4.05 C 18.99 4.51 18.80 5.44 18.71 5.91 L 14.29 5.91 C 14.20 5.45 14.01 4.52 13.92 4.05 Z" />
<path fill="#ffffff" opacity="1.00" d=" M 19.92 4.05 C 21.66 4.01 23.41 4.01 25.16 4.04 C 25.04 4.51 24.81 5.43 24.69 5.90 L 20.29 5.91 C 20.20 5.45 20.01 4.51 19.92 4.05 Z" />
<path fill="#ffffff" opacity="1.00" d=" M 26.84 4.04 C 28.59 4.01 30.34 4.02 32.08 4.05 C 31.99 4.51 31.80 5.45 31.71 5.91 L 27.31 5.90 C 27.19 5.43 26.96 4.51 26.84 4.04 Z" />
<path fill="#ffffff" opacity="1.00" d=" M 32.92 4.05 C 34.64 4.02 36.36 4.02 38.08 4.05 C 37.99 4.51 37.80 5.44 37.71 5.91 L 33.29 5.91 C 33.20 5.44 33.01 4.51 32.92 4.05 Z" />
<path fill="#ffffff" opacity="1.00" d=" M 45.91 4.05 C 47.64 4.02 49.36 4.02 51.08 4.05 C 50.99 4.52 50.80 5.45 50.71 5.91 L 46.29 5.91 C 46.20 5.44 46.01 4.51 45.91 4.05 Z" />
<path fill="#ffffff" opacity="1.00" d=" M 51.91 4.05 C 53.61 4.02 55.30 4.01 57.00 4.00 C 56.99 4.51 56.98 5.52 56.98 6.03 C 55.15 5.66 51.55 7.08 51.91 4.05 Z" />
</g>
<g id="#f8fafbff">
<path fill="#f8fafb" opacity="1.00" d=" M 7.02 6.98 C 8.52 7.01 11.52 7.08 13.03 7.11 C 15.79 12.50 10.15 14.27 6.98 12.06 C 6.96 10.37 6.98 8.67 7.02 6.98 Z" />
<path fill="#f8fafb" opacity="1.00" d=" M 38.98 7.01 C 44.42 3.24 47.62 10.06 43.79 12.87 C 40.51 13.96 36.50 11.39 38.98 7.01 Z" />
</g>
<g id="#fafbfcff">
<path fill="#fafbfc" opacity="1.00" d=" M 13.99 11.96 C 8.96 5.48 21.08 4.52 19.05 9.99 C 19.04 10.75 19.02 12.26 19.01 13.01 C 17.54 12.52 13.93 14.09 13.99 11.96 Z" />
<path fill="#fafbfc" opacity="1.00" d=" M 19.95 9.99 C 18.19 6.69 25.04 4.20 25.02 7.99 C 28.54 14.66 22.86 12.65 19.99 13.02 C 19.98 12.26 19.96 10.75 19.95 9.99 Z" />
<path fill="#fafbfc" opacity="1.00" d=" M 26.99 11.96 C 21.96 5.48 34.08 4.52 32.05 9.99 C 32.04 10.75 32.02 12.26 32.01 13.02 C 30.54 12.52 26.93 14.09 26.99 11.96 Z" />
<path fill="#fafbfc" opacity="1.00" d=" M 32.95 9.99 C 31.19 6.69 38.04 4.20 38.02 7.99 C 41.54 14.66 35.86 12.65 32.99 13.02 C 32.98 12.26 32.96 10.75 32.95 9.99 Z" />
<path fill="#fafbfc" opacity="1.00" d=" M 45.99 7.00 C 47.32 8.55 49.97 11.64 51.30 13.19 C 47.44 13.22 43.11 13.35 45.99 7.00 Z" />
</g>
<g id="#f8f8f9ff">
<path fill="#f8f8f9" opacity="1.00" d=" M 52.09 7.09 C 53.72 6.97 55.35 6.98 56.98 6.98 C 57.01 11.03 57.01 15.09 56.98 19.14 C 55.45 18.96 53.86 18.89 52.55 17.97 C 52.75 17.47 53.16 16.47 53.36 15.97 C 55.03 14.01 55.16 8.60 52.07 10.89 C 52.04 9.62 52.05 8.36 52.09 7.09 Z" />
</g>
<g id="#dde5edff">
<path fill="#dde5ed" opacity="1.00" d=" M 19.05 9.99 L 19.95 9.99 C 19.96 10.75 19.98 12.26 19.99 13.02 L 19.99 13.98 C 19.97 15.62 19.96 17.27 20.08 18.92 C 21.73 19.04 23.38 19.04 25.04 19.02 C 25.52 19.02 26.48 19.02 26.96 19.02 C 28.62 19.04 30.27 19.04 31.92 18.92 C 32.04 17.27 32.03 15.62 32.01 13.98 L 32.01 13.02 C 32.02 12.26 32.04 10.75 32.05 9.99 L 32.95 9.99 C 32.96 10.75 32.98 12.26 32.99 13.02 L 33.00 13.97 C 33.34 16.74 31.31 22.41 37.75 18.91 C 37.85 18.43 38.03 17.48 38.12 17.00 L 38.88 17.04 C 38.19 20.80 45.98 20.34 45.10 16.97 L 45.80 17.11 C 46.06 18.34 46.82 19.09 48.06 19.37 C 47.11 20.94 46.20 22.55 45.16 24.07 C 45.11 22.71 45.02 21.36 44.88 20.01 C 43.41 20.01 40.47 20.01 39.01 20.01 C 35.54 26.50 41.42 24.63 44.29 25.32 C 43.54 26.90 42.81 28.48 42.08 30.06 C 41.49 30.80 40.88 31.53 40.27 32.26 C 39.72 32.22 38.64 32.13 38.09 32.09 C 38.05 30.42 38.03 28.76 37.89 27.10 C 36.26 26.97 34.62 26.97 32.99 26.96 C 32.98 26.48 32.97 25.52 32.96 25.04 C 35.83 24.64 41.53 26.65 38.01 19.99 C 31.33 16.46 33.36 22.18 32.96 25.04 L 32.04 25.04 C 31.64 22.18 33.66 16.46 26.99 19.99 C 23.46 26.65 29.17 24.64 32.04 25.04 C 32.03 25.52 32.02 26.48 32.01 26.96 C 30.37 26.97 28.73 26.97 27.10 27.10 C 26.97 28.74 26.98 30.38 26.96 32.02 C 26.48 32.02 25.52 32.02 25.04 32.02 C 25.02 30.38 25.03 28.74 24.90 27.10 C 23.27 26.97 21.63 26.97 19.99 26.96 C 19.98 26.48 19.97 25.52 19.96 25.04 C 22.83 24.64 28.53 26.65 25.01 19.99 C 18.34 16.46 20.36 22.18 19.96 25.04 L 19.04 25.04 C 18.64 22.18 20.66 16.46 13.99 19.99 C 10.47 26.65 16.17 24.64 19.04 25.04 C 19.03 25.52 19.02 26.48 19.01 26.96 C 17.37 26.97 15.73 26.97 14.09 27.10 C 13.97 28.73 13.98 30.37 13.98 32.01 L 13.02 32.00 C 13.01 30.36 13.02 28.72 12.90 27.08 C 11.43 27.05 8.48 26.99 7.01 26.96 C 7.01 26.48 7.01 25.52 7.01 25.04 C 8.51 23.80 11.50 21.33 12.99 20.10 C 11.50 20.07 8.51 20.01 7.02 19.98 L 7.02 19.03 C 10.66 20.30 12.70 19.63 13.14 17.02 L 13.88 17.02 C 13.97 17.49 14.16 18.43 14.25 18.91 C 20.68 22.41 18.66 16.74 19.00 13.97 L 19.01 13.01 C 19.02 12.26 19.04 10.75 19.05 9.99 Z" />
</g>
<g id="#f5dad6ff">
<path fill="#f5dad6" opacity="1.00" d=" M 52.07 10.89 C 55.16 8.60 55.03 14.01 53.36 15.97 C 52.97 14.50 52.65 13.01 52.04 11.63 L 52.07 10.89 Z" />
</g>
<g id="#f18370ff">
<path fill="#f18370" opacity="1.00" d=" M 52.04 11.63 C 52.65 13.01 52.97 14.50 53.36 15.97 C 52.53 15.99 50.88 16.03 50.06 16.05 C 50.28 15.52 50.73 14.48 50.95 13.96 L 51.30 13.19 C 51.48 12.80 51.85 12.02 52.04 11.63 Z" />
</g>
<g id="#f6f7f8ff">
<path fill="#f6f7f8" opacity="1.00" d=" M 6.99 13.95 C 10.21 13.68 13.94 12.95 13.14 17.02 C 12.70 19.63 10.66 20.30 7.02 19.03 C 6.99 17.33 6.99 15.64 6.99 13.95 Z" />
<path fill="#f6f7f8" opacity="1.00" d=" M 38.88 17.04 C 37.12 12.33 46.69 12.02 45.10 16.97 C 45.98 20.34 38.19 20.80 38.88 17.04 Z" />
</g>
<g id="#f8f8f8ff">
<path fill="#f8f8f8" opacity="1.00" d=" M 13.88 17.02 C 12.94 13.26 16.45 13.96 19.00 13.97 C 18.66 16.74 20.68 22.41 14.25 18.91 C 14.16 18.43 13.97 17.49 13.88 17.02 Z" />
<path fill="#f8f8f8" opacity="1.00" d=" M 19.99 13.98 C 21.63 13.98 23.27 13.97 24.90 14.09 C 25.03 15.73 25.02 17.38 25.04 19.02 C 23.38 19.04 21.73 19.04 20.08 18.92 C 19.96 17.27 19.97 15.62 19.99 13.98 Z" />
<path fill="#f8f8f8" opacity="1.00" d=" M 27.10 14.09 C 28.73 13.97 30.37 13.98 32.01 13.98 C 32.03 15.62 32.04 17.27 31.92 18.92 C 30.27 19.04 28.62 19.04 26.96 19.02 C 26.98 17.38 26.97 15.73 27.10 14.09 Z" />
<path fill="#f8f8f8" opacity="1.00" d=" M 33.00 13.97 C 35.54 13.96 39.05 13.26 38.12 17.00 C 38.03 17.48 37.85 18.43 37.75 18.91 C 31.31 22.41 33.34 16.74 33.00 13.97 Z" />
</g>
<g id="#f7efeeff">
<path fill="#f7efee" opacity="1.00" d=" M 45.80 17.11 C 44.98 13.36 48.34 13.93 50.95 13.96 C 50.73 14.48 50.28 15.52 50.06 16.05 C 49.41 17.16 48.76 18.28 48.06 19.37 C 46.82 19.09 46.06 18.34 45.80 17.11 Z" />
</g>
<g id="#e16e5bff">
<path fill="#e16e5b" opacity="1.00" d=" M 50.06 16.05 C 50.88 16.03 52.53 15.99 53.36 15.97 C 53.16 16.47 52.75 17.47 52.55 17.97 C 52.36 18.42 51.96 19.32 51.77 19.77 C 51.53 20.28 51.05 21.28 50.82 21.79 C 48.99 24.43 47.33 27.17 45.87 30.03 L 45.12 30.11 C 44.36 30.10 42.84 30.07 42.08 30.06 C 42.81 28.48 43.54 26.90 44.29 25.32 C 44.51 25.01 44.94 24.38 45.16 24.07 C 46.20 22.55 47.11 20.94 48.06 19.37 C 48.76 18.28 49.41 17.16 50.06 16.05 Z" />
</g>
<g id="#edeeefff">
<path fill="#edeeef" opacity="1.00" d=" M 51.77 19.77 C 51.96 19.32 52.36 18.42 52.55 17.97 C 53.86 18.89 55.45 18.96 56.98 19.14 C 57.03 23.44 57.00 27.73 57.01 32.03 C 55.37 32.02 53.72 32.02 52.08 31.90 C 51.96 27.85 51.86 23.81 51.77 19.77 Z" />
</g>
<g id="#f2f2f3ff">
<path fill="#f2f2f3" opacity="1.00" d=" M 7.02 19.98 C 8.51 20.01 11.50 20.07 12.99 20.10 C 11.50 21.33 8.51 23.80 7.01 25.04 C 6.99 23.35 6.99 21.67 7.02 19.98 Z" />
<path fill="#f2f2f3" opacity="1.00" d=" M 39.01 20.01 C 40.47 20.01 43.41 20.01 44.88 20.01 C 45.02 21.36 45.11 22.71 45.16 24.07 C 44.94 24.38 44.51 25.01 44.29 25.32 C 41.42 24.63 35.54 26.50 39.01 20.01 Z" />
</g>
<g id="#f4f4f4ff">
<path fill="#f4f4f4" opacity="1.00" d=" M 13.99 19.99 C 20.66 16.46 18.64 22.18 19.04 25.04 C 16.17 24.64 10.47 26.65 13.99 19.99 Z" />
<path fill="#f4f4f4" opacity="1.00" d=" M 19.96 25.04 C 20.36 22.18 18.34 16.46 25.01 19.99 C 28.53 26.65 22.83 24.64 19.96 25.04 Z" />
<path fill="#f4f4f4" opacity="1.00" d=" M 26.99 19.99 C 33.66 16.46 31.64 22.18 32.04 25.04 C 29.17 24.64 23.46 26.65 26.99 19.99 Z" />
<path fill="#f4f4f4" opacity="1.00" d=" M 32.96 25.04 C 33.36 22.18 31.33 16.46 38.01 19.99 C 41.53 26.65 35.83 24.64 32.96 25.04 Z" />
</g>
<g id="#d9dbe0ff">
<path fill="#d9dbe0" opacity="1.00" d=" M 50.82 21.79 C 51.05 21.28 51.53 20.28 51.77 19.77 C 51.86 23.81 51.96 27.85 52.08 31.90 C 53.72 32.02 55.37 32.02 57.01 32.03 L 56.99 32.97 C 55.12 33.34 51.53 31.93 51.82 34.98 L 51.03 34.97 C 50.96 34.49 50.83 33.54 50.77 33.07 C 44.46 29.64 46.36 35.12 45.89 37.85 C 42.18 37.45 46.64 43.06 44.91 44.02 C 45.82 47.13 37.67 45.78 38.55 42.78 C 40.48 38.42 43.38 34.55 45.12 30.11 L 45.87 30.03 C 45.96 30.49 46.16 31.42 46.25 31.89 C 54.58 35.51 50.09 25.68 50.82 21.79 Z" />
</g>
<g id="#ecebecff">
<path fill="#ecebec" opacity="1.00" d=" M 45.87 30.03 C 47.33 27.17 48.99 24.43 50.82 21.79 C 50.09 25.68 54.58 35.51 46.25 31.89 C 46.16 31.42 45.96 30.49 45.87 30.03 Z" />
</g>
<g id="#d0d5ddff">
<path fill="#d0d5dd" opacity="1.00" d=" M 19.04 25.04 L 19.96 25.04 C 19.97 25.52 19.98 26.48 19.99 26.96 C 19.98 28.61 19.96 30.27 20.08 31.92 C 21.73 32.04 23.39 32.04 25.04 32.02 C 25.52 32.02 26.48 32.02 26.96 32.02 C 28.61 32.04 30.27 32.04 31.92 31.92 C 32.04 30.27 32.02 28.61 32.01 26.96 C 32.02 26.48 32.03 25.52 32.04 25.04 L 32.96 25.04 C 32.97 25.52 32.98 26.48 32.99 26.96 C 32.98 28.60 32.96 30.25 33.09 31.89 C 34.75 32.03 36.42 32.04 38.09 32.09 C 38.64 32.13 39.72 32.22 40.27 32.26 C 39.65 33.58 39.03 34.91 38.33 36.19 C 38.60 32.76 36.82 31.69 32.98 32.98 C 29.49 39.11 34.49 37.73 37.14 38.24 C 35.25 41.41 33.27 44.54 31.65 47.87 C 30.64 47.10 29.73 46.21 28.79 45.35 C 32.91 45.90 32.58 42.43 32.00 39.00 C 25.39 35.46 27.31 41.09 26.96 43.94 C 24.78 42.22 22.73 40.32 20.88 38.25 C 22.15 38.15 23.42 37.99 24.68 37.78 C 25.10 36.59 24.79 34.45 26.71 35.11 C 25.77 40.26 36.85 39.50 32.00 33.04 C 28.04 32.88 24.09 32.89 20.14 33.07 C 19.98 34.38 19.85 35.70 19.75 37.03 C 19.37 37.05 18.60 37.09 18.22 37.11 C 18.81 34.47 21.19 29.37 14.00 32.99 C 12.69 36.83 13.73 38.59 17.14 38.25 C 15.82 40.22 14.50 42.17 13.15 44.11 C 13.10 42.43 13.05 40.75 12.88 39.08 C 11.41 39.05 8.48 39.00 7.02 38.98 L 7.02 38.02 C 8.51 36.79 11.50 34.33 12.99 33.10 C 11.50 33.06 8.50 33.00 7.01 32.96 L 6.99 31.99 C 9.00 32.00 11.01 32.02 13.02 32.00 L 13.98 32.01 C 15.63 32.03 17.27 32.04 18.92 31.92 C 19.04 30.27 19.02 28.61 19.01 26.96 C 19.02 26.48 19.03 25.52 19.04 25.04 Z" />
</g>
<g id="#ecedeeff">
<path fill="#ecedee" opacity="1.00" d=" M 7.01 26.96 C 8.48 26.99 11.43 27.05 12.90 27.08 C 13.02 28.72 13.01 30.36 13.02 32.00 C 11.01 32.02 9.00 32.00 6.99 31.99 C 6.99 30.31 6.99 28.64 7.01 26.96 Z" />
</g>
<g id="#eeeeeeff">
<path fill="#eeeeee" opacity="1.00" d=" M 14.09 27.10 C 15.73 26.97 17.37 26.97 19.01 26.96 C 19.02 28.61 19.04 30.27 18.92 31.92 C 17.27 32.04 15.63 32.03 13.98 32.01 C 13.98 30.37 13.97 28.73 14.09 27.10 Z" />
<path fill="#eeeeee" opacity="1.00" d=" M 19.99 26.96 C 21.63 26.97 23.27 26.97 24.90 27.10 C 25.03 28.74 25.02 30.38 25.04 32.02 C 23.39 32.04 21.73 32.04 20.08 31.92 C 19.96 30.27 19.98 28.61 19.99 26.96 Z" />
<path fill="#eeeeee" opacity="1.00" d=" M 27.10 27.10 C 28.73 26.97 30.37 26.97 32.01 26.96 C 32.02 28.61 32.04 30.27 31.92 31.92 C 30.27 32.04 28.61 32.04 26.96 32.02 C 26.98 30.38 26.97 28.74 27.10 27.10 Z" />
<path fill="#eeeeee" opacity="1.00" d=" M 32.99 26.96 C 34.62 26.97 36.26 26.97 37.89 27.10 C 38.03 28.76 38.05 30.42 38.09 32.09 C 36.42 32.04 34.75 32.03 33.09 31.89 C 32.96 30.25 32.98 28.60 32.99 26.96 Z" />
</g>
<g id="#b3412dff">
<path fill="#b3412d" opacity="1.00" d=" M 42.08 30.06 C 42.84 30.07 44.36 30.10 45.12 30.11 C 43.38 34.55 40.48 38.42 38.55 42.78 C 38.00 43.67 37.45 44.57 36.95 45.50 C 35.84 47.23 34.68 48.94 33.75 50.78 C 33.59 51.09 33.25 51.71 33.08 52.02 L 32.67 52.77 L 32.05 53.31 C 31.57 52.91 30.62 52.12 30.15 51.72 C 28.54 50.07 26.92 48.44 25.26 46.84 C 24.99 46.56 24.45 46.01 24.17 45.73 C 22.78 44.51 21.77 42.56 19.94 42.04 C 17.67 41.41 17.63 44.19 16.76 45.56 C 15.64 47.03 14.62 48.57 13.63 50.13 C 13.44 50.43 13.06 51.03 12.87 51.33 C 12.30 49.93 11.96 48.45 11.56 47.00 C 12.06 46.02 12.59 45.05 13.15 44.11 C 14.50 42.17 15.82 40.22 17.14 38.25 C 17.41 37.97 17.95 37.40 18.22 37.11 C 18.60 37.09 19.37 37.05 19.75 37.03 C 20.03 37.33 20.59 37.95 20.88 38.25 C 22.73 40.32 24.78 42.22 26.96 43.94 C 27.42 44.29 28.33 45.00 28.79 45.35 C 29.73 46.21 30.64 47.10 31.65 47.87 C 33.27 44.54 35.25 41.41 37.14 38.24 C 37.44 37.73 38.03 36.70 38.33 36.19 C 39.03 34.91 39.65 33.58 40.27 32.26 C 40.88 31.53 41.49 30.80 42.08 30.06 Z" />
</g>
<g id="#747a7fdc">
<path fill="#747a7f" opacity="0.86" d=" M 6.01 32.00 L 6.99 31.99 L 7.01 32.96 C 7.00 34.65 6.99 36.34 7.02 38.02 L 7.02 38.98 C 6.97 45.00 7.00 51.01 7.02 57.03 C 7.00 57.79 6.95 59.32 6.92 60.08 L 6.81 61.20 L 5.91 61.08 C 6.10 51.39 5.95 41.69 6.01 32.00 Z" />
</g>
<g id="#777c81dc">
<path fill="#777c81" opacity="0.86" d=" M 57.01 32.03 L 57.99 31.99 C 58.04 41.69 57.94 51.39 58.08 61.09 L 57.19 61.21 L 57.07 60.09 C 57.05 59.33 57.01 57.80 56.99 57.04 C 57.00 55.35 57.00 53.66 56.98 51.98 L 56.99 51.02 C 57.01 49.34 57.01 47.66 56.99 45.98 L 56.99 45.02 C 57.02 43.01 57.02 40.99 56.98 38.98 L 56.98 38.03 C 57.00 36.34 57.00 34.65 56.99 32.97 L 57.01 32.03 Z" />
</g>
<g id="#e7e8e9ff">
<path fill="#e7e8e9" opacity="1.00" d=" M 7.01 32.96 C 8.50 33.00 11.50 33.06 12.99 33.10 C 11.50 34.33 8.51 36.79 7.02 38.02 C 6.99 36.34 7.00 34.65 7.01 32.96 Z" />
</g>
<g id="#e9e7e7ff">
<path fill="#e9e7e7" opacity="1.00" d=" M 14.00 32.99 C 21.19 29.37 18.81 34.47 18.22 37.11 C 17.95 37.40 17.41 37.97 17.14 38.25 C 13.73 38.59 12.69 36.83 14.00 32.99 Z" />
</g>
<g id="#e8e8e8ff">
<path fill="#e8e8e8" opacity="1.00" d=" M 20.14 33.07 C 24.09 32.89 28.04 32.88 32.00 33.04 C 36.85 39.50 25.77 40.26 26.71 35.11 C 24.79 34.45 25.10 36.59 24.68 37.78 C 23.42 37.99 22.15 38.15 20.88 38.25 C 20.59 37.95 20.03 37.33 19.75 37.03 C 19.85 35.70 19.98 34.38 20.14 33.07 Z" />
</g>
<g id="#e8e5e5ff">
<path fill="#e8e5e5" opacity="1.00" d=" M 32.98 32.98 C 36.82 31.69 38.60 32.76 38.33 36.19 C 38.03 36.70 37.44 37.73 37.14 38.24 C 34.49 37.73 29.49 39.11 32.98 32.98 Z" />
</g>
<g id="#e9e9e9ff">
<path fill="#e9e9e9" opacity="1.00" d=" M 45.89 37.85 C 46.36 35.12 44.46 29.64 50.77 33.07 C 50.83 33.54 50.96 34.49 51.03 34.97 C 51.03 35.73 51.02 37.26 51.01 38.02 C 49.31 37.99 47.60 37.94 45.89 37.85 Z" />
<path fill="#e9e9e9" opacity="1.00" d=" M 51.82 34.98 C 51.53 31.93 55.12 33.34 56.99 32.97 C 57.00 34.65 57.00 36.34 56.98 38.03 C 54.43 38.05 50.98 38.71 51.82 34.98 Z" />
</g>
<g id="#c9cfd6ff">
<path fill="#c9cfd6" opacity="1.00" d=" M 51.03 34.97 L 51.82 34.98 C 50.98 38.71 54.43 38.05 56.98 38.03 L 56.98 38.98 C 54.14 39.36 48.49 37.35 51.99 43.96 C 51.94 46.08 55.53 44.53 56.99 45.02 L 56.99 45.98 C 55.33 45.98 53.67 45.98 52.01 46.10 C 48.53 52.65 54.17 50.64 56.99 51.02 L 56.98 51.98 C 55.33 51.98 53.67 51.98 52.01 52.10 C 48.53 58.64 54.17 56.64 56.99 57.04 C 57.01 57.80 57.05 59.33 57.07 60.09 C 40.36 59.97 23.64 59.90 6.92 60.08 C 6.95 59.32 7.00 57.79 7.02 57.03 C 8.50 57.01 11.46 56.95 12.94 56.93 C 13.01 55.31 12.93 53.69 12.87 52.07 L 12.87 51.33 C 13.06 51.03 13.44 50.43 13.63 50.13 C 19.18 55.60 21.98 46.13 16.76 45.56 C 17.63 44.19 17.67 41.41 19.94 42.04 C 21.77 42.56 22.78 44.51 24.17 45.73 C 21.52 46.26 16.50 44.90 19.99 51.01 C 26.09 54.50 24.74 49.50 25.26 46.84 C 26.92 48.44 28.54 50.07 30.15 51.72 C 26.74 51.41 25.69 53.17 26.99 57.02 C 33.12 60.49 31.74 55.89 32.05 53.31 L 32.67 52.77 C 33.27 55.43 31.94 60.48 38.01 57.01 C 41.55 50.33 35.94 52.32 33.08 52.02 C 33.25 51.71 33.59 51.09 33.75 50.78 C 35.17 50.89 36.59 50.95 38.01 50.96 C 37.75 49.60 37.21 46.86 36.95 45.50 C 37.45 44.57 38.00 43.67 38.55 42.78 C 37.67 45.78 45.82 47.13 44.91 44.02 C 46.64 43.06 42.18 37.45 45.89 37.85 C 45.94 39.64 46.03 43.21 46.07 45.00 L 50.93 45.00 C 50.95 43.25 50.99 39.77 51.01 38.02 C 51.02 37.26 51.03 35.73 51.03 34.97 M 39.00 46.00 L 39.00 50.99 C 40.50 50.99 43.50 51.00 45.00 51.00 L 45.00 46.01 C 43.50 46.01 40.50 46.00 39.00 46.00 M 46.00 46.00 L 46.00 51.00 L 51.00 51.00 L 51.00 46.00 L 46.00 46.00 M 14.00 52.00 L 14.00 57.00 L 19.00 57.00 L 19.00 52.00 L 14.00 52.00 M 20.00 52.00 L 20.00 57.00 L 25.00 57.00 L 25.00 52.00 L 20.00 52.00 M 39.00 52.00 L 39.00 56.99 C 40.50 56.99 43.50 57.00 45.00 57.00 L 45.00 52.01 C 43.50 52.01 40.50 52.00 39.00 52.00 M 46.00 52.00 L 46.00 57.00 L 51.00 57.00 L 51.00 52.00 L 46.00 52.00 Z" />
</g>
<g id="#dfe1e3ff">
<path fill="#dfe1e3" opacity="1.00" d=" M 45.89 37.85 C 47.60 37.94 49.31 37.99 51.01 38.02 C 50.99 39.77 50.95 43.25 50.93 45.00 L 46.07 45.00 C 46.03 43.21 45.94 39.64 45.89 37.85 Z" />
</g>
<g id="#dbdddfff">
<path fill="#dbdddf" opacity="1.00" d=" M 7.02 38.98 C 8.48 39.00 11.41 39.05 12.88 39.08 C 13.05 40.75 13.10 42.43 13.15 44.11 C 12.59 45.05 12.06 46.02 11.56 47.00 C 9.74 48.80 9.92 54.48 12.87 52.07 C 12.93 53.69 13.01 55.31 12.94 56.93 C 11.46 56.95 8.50 57.01 7.02 57.03 C 7.00 51.01 6.97 45.00 7.02 38.98 Z" />
</g>
<g id="#e1e3e3ff">
<path fill="#e1e3e3" opacity="1.00" d=" M 26.96 43.94 C 27.31 41.09 25.39 35.46 32.00 39.00 C 32.58 42.43 32.91 45.90 28.79 45.35 C 28.33 45.00 27.42 44.29 26.96 43.94 Z" />
</g>
<g id="#e1e2e3ff">
<path fill="#e1e2e3" opacity="1.00" d=" M 51.99 43.96 C 48.49 37.35 54.14 39.36 56.98 38.98 C 57.02 40.99 57.02 43.01 56.99 45.02 C 55.53 44.53 51.94 46.08 51.99 43.96 Z" />
</g>
<g id="#dfdeddff">
<path fill="#dfdedd" opacity="1.00" d=" M 13.63 50.13 C 14.62 48.57 15.64 47.03 16.76 45.56 C 21.98 46.13 19.18 55.60 13.63 50.13 Z" />
</g>
<g id="#dfdedeff">
<path fill="#dfdede" opacity="1.00" d=" M 19.99 51.01 C 16.50 44.90 21.52 46.26 24.17 45.73 C 24.45 46.01 24.99 46.56 25.26 46.84 C 24.74 49.50 26.09 54.50 19.99 51.01 Z" />
</g>
<g id="#ddd7d6ff">
<path fill="#ddd7d6" opacity="1.00" d=" M 33.75 50.78 C 34.68 48.94 35.84 47.23 36.95 45.50 C 37.21 46.86 37.75 49.60 38.01 50.96 C 36.59 50.95 35.17 50.89 33.75 50.78 Z" />
</g>
<g id="#dddedfff">
<path fill="#dddedf" opacity="1.00" d=" M 39.00 46.00 C 40.50 46.00 43.50 46.01 45.00 46.01 L 45.00 51.00 C 43.50 51.00 40.50 50.99 39.00 50.99 L 39.00 46.00 Z" />
</g>
<g id="#dfdfdfff">
<path fill="#dfdfdf" opacity="1.00" d=" M 46.00 46.00 L 51.00 46.00 L 51.00 51.00 L 46.00 51.00 L 46.00 46.00 Z" />
<path fill="#dfdfdf" opacity="1.00" d=" M 52.01 46.10 C 53.67 45.98 55.33 45.98 56.99 45.98 C 57.01 47.66 57.01 49.34 56.99 51.02 C 54.17 50.64 48.53 52.65 52.01 46.10 Z" />
</g>
<g id="#c2928cff">
<path fill="#c2928c" opacity="1.00" d=" M 12.87 52.07 C 9.92 54.48 9.74 48.80 11.56 47.00 C 11.96 48.45 12.30 49.93 12.87 51.33 L 12.87 52.07 Z" />
</g>
<g id="#dcdcdcff">
<path fill="#dcdcdc" opacity="1.00" d=" M 14.00 52.00 L 19.00 52.00 L 19.00 57.00 L 14.00 57.00 L 14.00 52.00 Z" />
<path fill="#dcdcdc" opacity="1.00" d=" M 20.00 52.00 L 25.00 52.00 L 25.00 57.00 L 20.00 57.00 L 20.00 52.00 Z" />
<path fill="#dcdcdc" opacity="1.00" d=" M 33.08 52.02 C 35.94 52.32 41.55 50.33 38.01 57.01 C 31.94 60.48 33.27 55.43 32.67 52.77 L 33.08 52.02 Z" />
<path fill="#dcdcdc" opacity="1.00" d=" M 46.00 52.00 L 51.00 52.00 L 51.00 57.00 L 46.00 57.00 L 46.00 52.00 Z" />
<path fill="#dcdcdc" opacity="1.00" d=" M 52.01 52.10 C 53.67 51.98 55.33 51.98 56.98 51.98 C 57.00 53.66 57.00 55.35 56.99 57.04 C 54.17 56.64 48.53 58.64 52.01 52.10 Z" />
</g>
<g id="#dcdbdbff">
<path fill="#dcdbdb" opacity="1.00" d=" M 26.99 57.02 C 25.69 53.17 26.74 51.41 30.15 51.72 C 30.62 52.12 31.57 52.91 32.05 53.31 C 31.74 55.89 33.12 60.49 26.99 57.02 Z" />
</g>
<g id="#dadadbff">
<path fill="#dadadb" opacity="1.00" d=" M 39.00 52.00 C 40.50 52.00 43.50 52.01 45.00 52.01 L 45.00 57.00 C 43.50 57.00 40.50 56.99 39.00 56.99 L 39.00 52.00 Z" />
</g>
<g id="#a9aaabf3">
<path fill="#a9aaab" opacity="0.95" d=" M 6.92 60.08 C 23.64 59.90 40.36 59.97 57.07 60.09 L 57.19 61.21 C 40.40 60.95 23.59 60.77 6.81 61.20 L 6.92 60.08 Z" />
</g>
<g id="#0000001a">
<path fill="#000000" opacity="0.10" d=" M 4.95 60.98 L 5.91 61.08 L 6.81 61.20 C 23.50 62.53 40.49 62.52 57.19 61.21 L 58.08 61.09 L 59.03 60.98 C 58.11 63.49 56.10 64.16 53.01 63.00 C 37.40 62.91 21.77 63.19 6.17 62.89 C 5.86 62.41 5.25 61.46 4.95 60.98 Z" />
</g>
<g id="#00000079">
<path fill="#000000" opacity="0.47" d=" M 6.81 61.20 C 23.59 60.77 40.40 60.95 57.19 61.21 C 40.49 62.52 23.50 62.53 6.81 61.20 Z" />
</g>
</svg>
