<?xml version="1.0" encoding="UTF-8" ?>
<!DOCTYPE svg PUBLIC "-//W3C//DTD SVG 1.1//EN" "http://www.w3.org/Graphics/SVG/1.1/DTD/svg11.dtd">
<svg width="64pt" height="64pt" viewBox="0 0 64 64" version="1.1" xmlns="http://www.w3.org/2000/svg">
<g id="#c72726ff">
<path fill="#c72726" opacity="1.00" d=" M 43.33 5.17 C 43.88 4.43 44.45 3.72 45.07 3.04 C 45.55 3.29 46.52 3.79 47.00 4.05 C 45.95 4.34 45.22 4.96 44.80 5.91 C 44.88 7.27 46.69 6.99 47.61 6.87 C 47.74 6.34 47.99 5.30 48.11 4.78 C 52.84 8.65 57.53 12.86 60.53 18.26 C 60.04 20.91 57.07 19.56 55.29 19.29 C 52.76 15.12 49.28 11.42 44.90 9.19 C 44.36 7.86 43.83 6.52 43.33 5.17 Z" />
</g>
<g id="#c14943ff">
<path fill="#c14943" opacity="1.00" d=" M 44.80 5.91 C 45.22 4.96 45.95 4.34 47.00 4.05 C 47.28 4.23 47.84 4.59 48.11 4.78 C 47.99 5.30 47.74 6.34 47.61 6.87 C 46.69 6.99 44.88 7.27 44.80 5.91 Z" />
</g>
<g id="#971b0aff">
<path fill="#971b0a" opacity="1.00" d=" M 44.90 9.19 C 49.28 11.42 52.76 15.12 55.29 19.29 C 53.55 18.74 51.25 18.19 50.09 20.04 C 46.51 24.25 43.10 28.61 39.78 33.02 C 39.99 33.49 40.42 34.42 40.63 34.89 C 38.29 34.02 35.87 33.15 34.16 31.23 C 38.34 25.87 43.99 21.87 48.04 16.41 C 47.85 16.14 47.48 15.60 47.29 15.33 C 46.60 14.41 45.91 13.49 45.22 12.56 C 45.14 11.72 44.98 10.03 44.90 9.19 Z" />
</g>
<g id="#d73116ff">
<path fill="#d73116" opacity="1.00" d=" M 40.73 16.18 C 42.19 14.94 43.71 13.76 45.22 12.56 C 45.91 13.49 46.60 14.41 47.29 15.33 C 42.57 21.00 36.05 25.24 33.01 32.20 C 32.40 31.58 31.79 30.96 31.20 30.31 C 31.87 28.31 32.57 26.32 33.38 24.36 C 36.27 22.07 38.81 19.35 40.73 16.18 Z" />
<path fill="#d73116" opacity="1.00" d=" M 11.44 22.75 C 14.54 22.59 17.63 21.97 20.74 22.23 C 22.68 23.68 23.51 26.17 24.92 28.09 C 22.08 29.83 18.91 31.11 15.52 30.46 C 13.90 28.03 12.53 25.45 11.44 22.75 Z" />
</g>
<g id="#c61716ff">
<path fill="#c61716" opacity="1.00" d=" M 47.29 15.33 C 47.48 15.60 47.85 16.14 48.04 16.41 C 43.99 21.87 38.34 25.87 34.16 31.23 C 35.87 33.15 38.29 34.02 40.63 34.89 C 40.79 35.09 41.10 35.49 41.26 35.69 C 41.84 37.57 42.27 39.50 42.79 41.40 C 33.59 36.82 26.91 28.47 22.11 19.57 C 18.31 19.86 14.53 20.37 10.80 21.21 C 11.21 20.32 11.75 19.05 12.96 19.21 C 15.94 18.99 18.94 18.98 21.93 19.12 C 24.87 19.20 26.80 21.70 29.07 23.20 C 29.07 23.87 29.07 25.21 29.08 25.88 C 29.67 27.41 30.38 28.89 31.20 30.31 C 31.79 30.96 32.40 31.58 33.01 32.20 C 36.05 25.24 42.57 21.00 47.29 15.33 Z" />
</g>
<g id="#a63325f3">
<path fill="#a63325" opacity="0.95" d=" M 30.74 24.07 C 34.16 21.56 37.33 18.73 40.73 16.18 C 38.81 19.35 36.27 22.07 33.38 24.36 C 31.95 24.90 30.51 25.39 29.08 25.88 C 29.07 25.21 29.07 23.87 29.07 23.20 C 29.49 23.42 30.33 23.86 30.74 24.07 Z" />
</g>
<g id="#ca473aff">
<path fill="#ca473a" opacity="1.00" d=" M 10.80 21.21 C 14.53 20.37 18.31 19.86 22.11 19.57 C 26.91 28.47 33.59 36.82 42.79 41.40 L 42.95 41.91 C 41.74 41.43 40.53 40.95 39.34 40.42 C 34.05 36.94 28.93 33.03 24.92 28.09 C 23.51 26.17 22.68 23.68 20.74 22.23 C 17.63 21.97 14.54 22.59 11.44 22.75 L 10.80 21.21 Z" />
</g>
<g id="#e15e4dff">
<path fill="#e15e4d" opacity="1.00" d=" M 29.08 25.88 C 30.51 25.39 31.95 24.90 33.38 24.36 C 32.57 26.32 31.87 28.31 31.20 30.31 C 30.38 28.89 29.67 27.41 29.08 25.88 Z" />
</g>
<g id="#9e1c0cff">
<path fill="#9e1c0c" opacity="1.00" d=" M 15.52 30.46 C 18.91 31.11 22.08 29.83 24.92 28.09 C 28.93 33.03 34.05 36.94 39.34 40.42 C 37.62 42.39 36.06 44.48 34.69 46.70 C 37.14 49.15 39.96 51.68 43.70 51.41 C 43.78 47.47 43.89 43.53 44.28 39.60 C 44.93 43.09 44.76 46.65 44.79 50.18 C 44.40 54.12 39.99 51.97 37.75 51.01 C 32.92 48.32 28.72 44.70 24.68 40.97 C 23.82 40.14 22.98 39.31 22.15 38.46 C 19.79 35.92 17.55 33.26 15.52 30.46 Z" />
</g>
<g id="#b02b1bff">
<path fill="#b02b1b" opacity="1.00" d=" M 41.26 35.69 C 42.29 36.97 43.34 38.25 44.28 39.60 C 43.89 43.53 43.78 47.47 43.70 51.41 C 39.96 51.68 37.14 49.15 34.69 46.70 C 36.06 44.48 37.62 42.39 39.34 40.42 C 40.53 40.95 41.74 41.43 42.95 41.91 L 42.79 41.40 C 42.27 39.50 41.84 37.57 41.26 35.69 Z" />
</g>
<g id="#83868dff">
<path fill="#83868d" opacity="1.00" d=" M 6.83 53.68 C 11.95 48.62 17.02 43.50 22.15 38.46 C 22.98 39.31 23.82 40.14 24.68 40.97 C 21.02 44.73 17.25 48.39 13.63 52.19 L 13.48 52.22 C 11.25 52.63 9.01 53.05 6.83 53.68 Z" />
</g>
<g id="#00000012">
<path fill="#000000" opacity="0.07" d=" M 44.79 50.18 C 51.52 49.82 58.52 50.80 64.00 55.01 L 64.00 64.00 L 12.75 64.00 C 9.71 62.04 6.56 60.18 3.10 59.04 C 4.26 59.02 5.42 58.90 6.58 58.83 C 15.64 59.79 24.74 59.02 33.75 57.94 C 31.95 56.94 30.19 55.57 28.04 55.52 C 22.09 55.18 16.14 55.92 10.19 55.47 C 11.28 54.38 12.36 53.28 13.48 52.22 L 13.63 52.19 C 21.66 51.68 29.75 52.02 37.75 51.01 C 39.99 51.97 44.40 54.12 44.79 50.18 Z" />
</g>
<g id="#9fa0a4f6">
<path fill="#9fa0a4" opacity="0.96" d=" M 6.83 53.68 C 9.01 53.05 11.25 52.63 13.48 52.22 C 12.36 53.28 11.28 54.38 10.19 55.47 C 9.03 56.64 7.81 57.74 6.58 58.83 C 5.42 58.90 4.26 59.02 3.10 59.04 C 2.81 58.96 2.24 58.80 1.95 58.72 C 3.55 57.02 5.14 55.30 6.83 53.68 Z" />
</g>
<g id="#00000030">
<path fill="#000000" opacity="0.19" d=" M 6.58 58.83 C 7.81 57.74 9.03 56.64 10.19 55.47 C 16.14 55.92 22.09 55.18 28.04 55.52 C 30.19 55.57 31.95 56.94 33.75 57.94 C 24.74 59.02 15.64 59.79 6.58 58.83 Z" />
</g>
</svg>
