<?xml version="1.0" encoding="UTF-8" ?>
<!DOCTYPE svg PUBLIC "-//W3C//DTD SVG 1.1//EN" "http://www.w3.org/Graphics/SVG/1.1/DTD/svg11.dtd">
<svg width="64pt" height="64pt" viewBox="0 0 64 64" version="1.1" xmlns="http://www.w3.org/2000/svg">
<g id="#9aa2a8f8">
<path fill="#9aa2a8" opacity="0.97" d=" M 26.07 8.95 C 35.31 7.00 44.53 4.83 53.82 3.09 C 56.10 4.85 53.38 9.53 57.20 9.31 C 54.75 9.72 52.27 9.95 49.85 10.53 C 46.61 11.26 43.37 11.98 40.11 12.63 C 27.92 11.65 16.40 18.47 4.03 17.03 C 3.84 15.47 3.45 12.34 3.25 10.78 C 3.42 10.57 3.76 10.14 3.93 9.93 C 10.59 8.68 17.20 7.13 23.87 5.90 C 26.30 5.11 23.72 9.86 26.07 8.95 Z" />
</g>
<g id="#b1b5b8d9">
<path fill="#b1b5b8" opacity="0.85" d=" M 9.66 7.51 C 14.50 6.96 19.14 5.02 24.03 4.95 L 23.87 5.90 C 17.20 7.13 10.59 8.68 3.93 9.93 C 5.01 7.78 6.92 6.98 9.66 7.51 Z" />
</g>
<g id="#afb7c1fd">
<path fill="#afb7c1" opacity="1.00" d=" M 57.20 9.31 C 58.66 8.80 61.11 8.99 60.92 11.04 C 59.00 22.30 57.31 33.61 55.88 44.94 C 55.61 47.06 54.10 48.55 52.00 48.87 C 49.02 49.47 46.06 50.22 43.11 50.97 C 45.71 46.17 39.21 44.72 37.27 41.88 C 37.62 38.62 37.61 34.98 39.60 32.22 C 39.28 32.10 38.65 31.86 38.33 31.73 C 40.93 29.40 41.67 25.93 43.52 23.10 C 42.84 20.43 41.27 18.46 38.29 18.80 C 38.73 17.28 39.20 15.78 39.63 14.27 C 43.34 13.16 47.20 12.64 50.98 11.81 C 50.70 11.49 50.14 10.85 49.85 10.53 C 52.27 9.95 54.75 9.72 57.20 9.31 Z" />
</g>
<g id="#b9bec2e5">
<path fill="#b9bec2" opacity="0.90" d=" M 3.25 10.78 C 3.45 12.34 3.84 15.47 4.03 17.03 C 4.05 20.10 4.03 23.18 4.08 26.26 C 4.03 29.55 3.97 32.84 4.02 36.13 C 3.99 39.51 4.00 42.88 4.08 46.26 C 4.01 50.52 3.98 54.79 3.96 59.05 L 3.00 58.99 C 3.18 42.92 2.61 26.83 3.25 10.78 Z" />
</g>
<g id="#bdc4ccff">
<path fill="#bdc4cc" opacity="1.00" d=" M 40.11 12.63 C 43.37 11.98 46.61 11.26 49.85 10.53 C 50.14 10.85 50.70 11.49 50.98 11.81 C 47.20 12.64 43.34 13.16 39.63 14.27 C 39.20 15.78 38.73 17.28 38.29 18.80 C 41.27 18.46 42.84 20.43 43.52 23.10 C 41.67 25.93 40.93 29.40 38.33 31.73 C 38.65 31.86 39.28 32.10 39.60 32.22 C 37.61 34.98 37.62 38.62 37.27 41.88 C 39.21 44.72 45.71 46.17 43.11 50.97 C 40.43 51.71 37.78 52.58 35.06 53.16 C 35.20 51.88 35.42 50.60 35.53 49.32 C 30.86 47.75 26.99 44.70 22.60 42.61 C 22.51 40.01 23.28 36.90 21.09 34.92 C 18.26 30.62 10.17 33.59 9.12 27.81 C 9.10 26.21 9.16 24.62 9.29 23.03 C 9.84 21.41 10.45 19.77 12.28 19.29 C 21.47 16.74 30.88 15.05 40.11 12.63 Z" />
</g>
<g id="#88939aff">
<path fill="#88939a" opacity="1.00" d=" M 4.03 17.03 C 16.40 18.47 27.92 11.65 40.11 12.63 C 30.88 15.05 21.47 16.74 12.28 19.29 C 10.45 19.77 9.84 21.41 9.29 23.03 C 7.39 21.53 6.66 26.46 4.08 26.26 C 4.03 23.18 4.05 20.10 4.03 17.03 Z" />
</g>
<g id="#6b7982ff">
<path fill="#6b7982" opacity="1.00" d=" M 4.08 26.26 C 6.66 26.46 7.39 21.53 9.29 23.03 C 9.16 24.62 9.10 26.21 9.12 27.81 C 9.02 31.29 9.32 34.86 8.39 38.25 C 8.12 36.76 7.57 33.79 7.30 32.30 C 7.15 34.56 6.85 36.66 4.02 36.13 C 3.97 32.84 4.03 29.55 4.08 26.26 Z" />
</g>
<g id="#c7cdd4fd">
<path fill="#c7cdd4" opacity="1.00" d=" M 9.12 27.81 C 10.17 33.59 18.26 30.62 21.09 34.92 C 23.28 36.90 22.51 40.01 22.60 42.61 C 26.99 44.70 30.86 47.75 35.53 49.32 C 35.42 50.60 35.20 51.88 35.06 53.16 C 25.38 55.89 15.66 58.44 5.96 61.07 C 4.28 61.41 3.61 60.74 3.96 59.05 C 5.04 59.56 6.37 60.48 6.61 58.65 C 7.39 52.73 8.05 46.77 7.85 40.79 C 7.98 40.16 8.25 38.89 8.39 38.25 C 9.32 34.86 9.02 31.29 9.12 27.81 Z" />
</g>
<g id="#505f6bff">
<path fill="#505f6b" opacity="1.00" d=" M 7.30 32.30 C 7.57 33.79 8.12 36.76 8.39 38.25 C 8.25 38.89 7.98 40.16 7.85 40.79 C 6.78 42.71 6.56 45.64 4.08 46.26 C 4.00 42.88 3.99 39.51 4.02 36.13 C 6.85 36.66 7.15 34.56 7.30 32.30 Z" />
</g>
<g id="#384855ff">
<path fill="#384855" opacity="1.00" d=" M 4.08 46.26 C 6.56 45.64 6.78 42.71 7.85 40.79 C 8.05 46.77 7.39 52.73 6.61 58.65 C 6.37 60.48 5.04 59.56 3.96 59.05 C 3.98 54.79 4.01 50.52 4.08 46.26 Z" />
</g>
<g id="#08090933">
<path fill="#080909" opacity="0.20" d=" M 43.11 50.97 C 46.06 50.22 49.02 49.47 52.00 48.87 C 51.68 50.10 50.61 50.91 49.79 51.81 C 36.20 55.61 22.59 59.35 8.91 62.82 C 7.40 63.56 6.46 62.33 5.96 61.07 C 15.66 58.44 25.38 55.89 35.06 53.16 C 37.78 52.58 40.43 51.71 43.11 50.97 Z" />
</g>
</svg>
