<?xml version="1.0" encoding="UTF-8" ?>
<!DOCTYPE svg PUBLIC "-//W3C//DTD SVG 1.1//EN" "http://www.w3.org/Graphics/SVG/1.1/DTD/svg11.dtd">
<svg width="64pt" height="64pt" viewBox="0 0 64 64" version="1.1" xmlns="http://www.w3.org/2000/svg">
<g id="#efefefff">
<path fill="#efefef" opacity="1.00" d=" M 1.56 6.22 C 18.68 6.44 35.80 6.37 52.92 6.26 C 54.32 8.20 54.43 10.65 54.43 12.96 C 54.44 21.67 54.39 30.39 54.44 39.10 C 51.53 40.04 48.64 41.07 45.66 41.74 C 43.45 42.26 40.40 41.27 39.01 43.49 L 38.99 43.49 C 37.26 41.72 34.71 42.20 32.65 43.03 C 32.28 43.08 31.54 43.18 31.16 43.22 L 30.95 42.62 C 29.64 41.95 28.67 42.19 28.01 43.33 L 27.03 43.03 C 25.65 42.62 24.00 41.46 22.60 42.39 C 22.48 42.47 22.25 42.63 22.13 42.72 C 18.08 42.13 13.98 42.05 9.91 42.22 C 8.91 42.24 8.12 42.70 7.53 43.58 C 6.26 42.31 4.92 41.10 3.59 39.90 L 3.11 39.44 C 3.09 29.95 3.12 20.47 3.05 10.98 C 3.18 9.24 2.30 7.72 1.56 6.22 M 7.19 12.23 C 6.14 13.25 5.31 14.62 5.23 16.12 C 4.79 21.49 6.52 26.68 6.92 31.99 C 7.13 33.80 7.09 35.74 8.20 37.29 C 10.35 37.41 12.59 38.11 14.68 37.24 C 15.49 37.45 16.30 37.65 17.10 37.87 C 17.14 37.40 17.20 36.46 17.23 36.00 C 14.59 35.41 9.85 37.60 9.04 34.08 C 10.77 33.64 13.64 35.26 14.59 33.05 C 12.43 32.98 10.27 32.99 8.11 32.99 C 8.11 32.55 8.10 31.66 8.09 31.21 C 12.36 30.96 16.68 31.28 20.90 30.75 C 20.77 29.62 20.09 29.12 18.86 29.25 C 21.00 29.00 23.13 29.30 25.25 29.54 C 23.66 29.12 22.62 29.51 22.12 30.74 C 26.51 31.37 31.16 30.83 35.65 31.01 L 36.49 32.61 C 29.28 33.18 22.03 32.91 14.80 32.92 L 14.87 34.13 C 20.16 34.32 25.46 33.83 30.74 34.32 C 35.69 34.17 40.64 33.84 45.57 34.48 C 45.76 34.09 46.12 33.30 46.31 32.91 L 46.64 32.92 C 45.12 30.95 45.55 28.87 47.26 27.20 C 48.11 28.04 48.80 29.02 49.65 29.86 C 52.34 25.66 52.32 20.42 52.44 15.62 C 52.25 11.70 47.77 12.87 45.16 12.55 C 36.78 12.47 28.36 13.05 20.00 12.12 C 15.76 11.58 11.41 11.47 7.19 12.23 M 17.36 36.08 C 17.67 36.43 18.27 37.12 18.58 37.47 C 25.13 37.88 31.71 37.12 38.26 37.78 C 38.09 37.39 37.76 36.61 37.60 36.22 C 30.88 35.74 24.10 36.05 17.36 36.08 M 38.57 35.94 C 39.11 38.38 43.68 38.70 44.23 36.15 C 42.35 36.02 40.46 35.96 38.57 35.94 M 7.54 39.03 C 8.03 40.46 9.42 41.16 10.88 40.94 C 16.93 40.91 22.99 40.66 29.03 41.17 C 30.42 41.00 32.53 41.69 33.23 40.01 C 32.98 39.75 32.50 39.22 32.25 38.95 C 24.02 39.09 15.78 39.02 7.54 39.03 M 34.04 39.27 C 33.35 40.97 35.74 41.96 36.81 40.70 C 38.05 39.09 34.96 38.03 34.04 39.27 M 37.29 38.98 C 37.49 41.52 42.42 42.13 42.11 39.11 C 40.51 39.04 38.90 39.00 37.29 38.98 Z" />
</g>
<g id="#fcfcfcff">
<path fill="#fcfcfc" opacity="1.00" d=" M 7.19 12.23 C 11.41 11.47 15.76 11.58 20.00 12.12 C 28.36 13.05 36.78 12.47 45.16 12.55 C 47.77 12.87 52.25 11.70 52.44 15.62 C 52.32 20.42 52.34 25.66 49.65 29.86 C 48.80 29.02 48.11 28.04 47.26 27.20 C 45.55 28.87 45.12 30.95 46.64 32.92 L 46.31 32.91 C 43.04 32.79 39.76 32.72 36.49 32.61 L 35.65 31.01 C 36.43 30.95 37.98 30.84 38.76 30.79 C 34.73 28.20 29.72 30.03 25.25 29.54 C 23.13 29.30 21.00 29.00 18.86 29.25 C 15.30 29.57 11.73 29.58 8.16 29.50 C 8.15 29.93 8.11 30.79 8.09 31.21 C 8.10 31.66 8.11 32.55 8.11 32.99 C 8.17 34.42 8.20 35.85 8.20 37.29 C 7.09 35.74 7.13 33.80 6.92 31.99 C 6.52 26.68 4.79 21.49 5.23 16.12 C 5.31 14.62 6.14 13.25 7.19 12.23 M 8.03 12.95 C 8.02 13.49 7.99 14.58 7.98 15.12 C 12.38 14.93 16.79 14.89 21.18 15.41 C 20.59 14.53 20.07 13.37 18.83 13.35 C 15.24 13.01 11.60 13.85 8.03 12.95 M 7.59 19.89 C 8.03 21.45 9.71 21.49 11.00 21.53 C 20.05 21.20 29.10 21.58 38.14 21.68 C 37.86 21.29 37.30 20.50 37.02 20.10 C 27.22 19.82 17.40 20.09 7.59 19.89 M 7.53 22.92 C 8.19 24.19 9.43 24.91 10.87 24.75 C 14.69 24.87 18.52 24.80 22.34 24.97 C 22.15 24.54 21.77 23.68 21.59 23.24 C 16.94 22.66 12.21 23.16 7.53 22.92 M 22.47 22.86 C 22.74 23.23 23.27 23.97 23.54 24.33 C 27.70 25.23 32.15 24.84 36.42 24.94 C 36.20 24.53 35.74 23.70 35.51 23.29 C 31.23 22.58 26.80 23.32 22.47 22.86 M 7.58 25.96 C 8.05 27.48 9.45 28.06 10.93 27.92 C 17.86 28.05 24.79 28.01 31.71 27.96 C 31.48 27.55 31.01 26.73 30.77 26.32 C 23.05 25.70 15.30 26.67 7.58 25.96 M 31.66 26.06 C 32.85 28.30 35.49 27.94 37.63 28.09 C 37.03 25.24 33.72 26.23 31.66 26.06 M 37.43 26.11 C 37.57 26.55 37.84 27.42 37.98 27.86 C 40.29 27.69 44.77 29.47 45.15 26.10 C 42.58 26.28 40.00 26.38 37.43 26.11 M 38.72 28.80 C 38.49 31.87 41.81 30.82 43.73 31.17 C 43.24 28.86 40.39 29.41 38.72 28.80 Z" />
</g>
<g id="#b5b5b5ff">
<path fill="#b5b5b5" opacity="1.00" d=" M 8.03 12.95 C 11.60 13.85 15.24 13.01 18.83 13.35 C 20.07 13.37 20.59 14.53 21.18 15.41 C 16.79 14.89 12.38 14.93 7.98 15.12 C 7.99 14.58 8.02 13.49 8.03 12.95 Z" />
</g>
<g id="#b2b2b2ff">
<path fill="#b2b2b2" opacity="1.00" d=" M 7.59 19.89 C 17.40 20.09 27.22 19.82 37.02 20.10 C 37.30 20.50 37.86 21.29 38.14 21.68 C 29.10 21.58 20.05 21.20 11.00 21.53 C 9.71 21.49 8.03 21.45 7.59 19.89 Z" />
<path fill="#b2b2b2" opacity="1.00" d=" M 7.58 25.96 C 15.30 26.67 23.05 25.70 30.77 26.32 C 31.01 26.73 31.48 27.55 31.71 27.96 C 24.79 28.01 17.86 28.05 10.93 27.92 C 9.45 28.06 8.05 27.48 7.58 25.96 Z" />
</g>
<g id="#b9b9b9ff">
<path fill="#b9b9b9" opacity="1.00" d=" M 7.53 22.92 C 12.21 23.16 16.94 22.66 21.59 23.24 C 21.77 23.68 22.15 24.54 22.34 24.97 C 18.52 24.80 14.69 24.87 10.87 24.75 C 9.43 24.91 8.19 24.19 7.53 22.92 Z" />
</g>
<g id="#b5b5b4ff">
<path fill="#b5b5b4" opacity="1.00" d=" M 22.47 22.86 C 26.80 23.32 31.23 22.58 35.51 23.29 C 35.74 23.70 36.20 24.53 36.42 24.94 C 32.15 24.84 27.70 25.23 23.54 24.33 C 23.27 23.97 22.74 23.23 22.47 22.86 Z" />
</g>
<g id="#b3b3b3ff">
<path fill="#b3b3b3" opacity="1.00" d=" M 31.66 26.06 C 33.72 26.23 37.03 25.24 37.63 28.09 C 35.49 27.94 32.85 28.30 31.66 26.06 Z" />
</g>
<g id="#b1b1b1ff">
<path fill="#b1b1b1" opacity="1.00" d=" M 37.43 26.11 C 40.00 26.38 42.58 26.28 45.15 26.10 C 44.77 29.47 40.29 27.69 37.98 27.86 C 37.84 27.42 37.57 26.55 37.43 26.11 Z" />
</g>
<g id="#b4b4b4ff">
<path fill="#b4b4b4" opacity="1.00" d=" M 8.16 29.50 C 11.73 29.58 15.30 29.57 18.86 29.25 C 20.09 29.12 20.77 29.62 20.90 30.75 C 16.68 31.28 12.36 30.96 8.09 31.21 C 8.11 30.79 8.15 29.93 8.16 29.50 Z" />
</g>
<g id="#adadadff">
<path fill="#adadad" opacity="1.00" d=" M 25.25 29.54 C 29.72 30.03 34.73 28.20 38.76 30.79 C 37.98 30.84 36.43 30.95 35.65 31.01 C 31.16 30.83 26.51 31.37 22.12 30.74 C 22.62 29.51 23.66 29.12 25.25 29.54 Z" />
</g>
<g id="#acacacff">
<path fill="#acacac" opacity="1.00" d=" M 38.72 28.80 C 40.39 29.41 43.24 28.86 43.73 31.17 C 41.81 30.82 38.49 31.87 38.72 28.80 Z" />
<path fill="#acacac" opacity="1.00" d=" M 17.36 36.08 C 24.10 36.05 30.88 35.74 37.60 36.22 C 37.76 36.61 38.09 37.39 38.26 37.78 C 31.71 37.12 25.13 37.88 18.58 37.47 C 18.27 37.12 17.67 36.43 17.36 36.08 Z" />
</g>
<g id="#979797ff">
<path fill="#979797" opacity="1.00" d=" M 36.49 32.61 C 39.76 32.72 43.04 32.79 46.31 32.91 C 46.12 33.30 45.76 34.09 45.57 34.48 C 40.64 33.84 35.69 34.17 30.74 34.32 C 25.46 33.83 20.16 34.32 14.87 34.13 L 14.80 32.92 C 22.03 32.91 29.28 33.18 36.49 32.61 Z" />
</g>
<g id="#a5a5a5ff">
<path fill="#a5a5a5" opacity="1.00" d=" M 8.11 32.99 C 10.27 32.99 12.43 32.98 14.59 33.05 C 13.64 35.26 10.77 33.64 9.04 34.08 C 9.85 37.60 14.59 35.41 17.23 36.00 C 17.20 36.46 17.14 37.40 17.10 37.87 C 16.30 37.65 15.49 37.45 14.68 37.24 C 12.59 38.11 10.35 37.41 8.20 37.29 C 8.20 35.85 8.17 34.42 8.11 32.99 Z" />
</g>
<g id="#aaaaaaff">
<path fill="#aaaaaa" opacity="1.00" d=" M 38.57 35.94 C 40.46 35.96 42.35 36.02 44.23 36.15 C 43.68 38.70 39.11 38.38 38.57 35.94 Z" />
</g>
<g id="#a2a2a2ff">
<path fill="#a2a2a2" opacity="1.00" d=" M 7.54 39.03 C 15.78 39.02 24.02 39.09 32.25 38.95 C 32.50 39.22 32.98 39.75 33.23 40.01 C 32.53 41.69 30.42 41.00 29.03 41.17 C 22.99 40.66 16.93 40.91 10.88 40.94 C 9.42 41.16 8.03 40.46 7.54 39.03 Z" />
</g>
<g id="#9c9c9cff">
<path fill="#9c9c9c" opacity="1.00" d=" M 34.04 39.27 C 34.96 38.03 38.05 39.09 36.81 40.70 C 35.74 41.96 33.35 40.97 34.04 39.27 Z" />
</g>
<g id="#9e9e9eff">
<path fill="#9e9e9e" opacity="1.00" d=" M 37.29 38.98 C 38.90 39.00 40.51 39.04 42.11 39.11 C 42.42 42.13 37.49 41.52 37.29 38.98 Z" />
</g>
<g id="#c2c2c2ff">
<path fill="#c2c2c2" opacity="1.00" d=" M 45.66 41.74 C 48.64 41.07 51.53 40.04 54.44 39.10 C 54.46 41.06 54.46 43.02 54.48 44.97 C 41.89 44.69 29.30 45.43 16.72 44.81 L 17.19 44.37 C 18.35 44.23 19.51 44.07 20.66 43.86 L 22.13 42.72 C 22.25 42.63 22.48 42.47 22.60 42.39 C 23.23 44.37 25.70 44.05 27.03 43.03 L 28.01 43.33 C 28.80 43.31 30.38 43.25 31.16 43.22 C 31.54 43.18 32.28 43.08 32.65 43.03 L 33.30 43.26 C 35.15 43.83 37.10 43.88 38.99 43.49 L 39.01 43.49 C 41.69 44.18 44.45 44.42 47.21 44.43 C 46.82 43.76 46.04 42.41 45.66 41.74 Z" />
</g>
<g id="#bababaff">
<path fill="#bababa" opacity="1.00" d=" M 3.11 39.44 L 3.59 39.90 C 3.64 42.99 3.89 46.28 6.63 48.23 C 6.90 47.93 7.44 47.31 7.71 47.00 C 9.67 47.01 11.63 47.10 13.58 47.19 C 11.54 48.12 9.48 49.01 7.43 49.92 C 9.26 50.20 11.10 50.47 12.94 50.74 C 11.51 51.08 10.07 51.42 8.64 51.77 C 9.06 52.97 9.49 54.17 9.94 55.36 C 10.33 55.45 11.11 55.62 11.50 55.71 C 13.00 56.00 14.52 56.20 16.04 56.27 C 29.81 56.38 43.58 55.99 57.34 56.35 C 57.04 56.44 56.44 56.61 56.14 56.70 C 55.49 56.80 54.19 57.00 53.54 57.10 C 37.91 56.59 22.26 56.90 6.62 56.94 C 5.72 56.24 4.87 55.48 4.05 54.69 C 2.45 49.77 3.08 44.52 3.11 39.44 Z" />
</g>
<g id="#d1d1d1ff">
<path fill="#d1d1d1" opacity="1.00" d=" M 3.59 39.90 C 4.92 41.10 6.26 42.31 7.53 43.58 C 10.73 44.02 13.96 44.22 17.19 44.37 L 16.72 44.81 C 16.17 45.51 15.64 46.23 15.15 46.97 C 15.19 46.57 15.28 45.77 15.32 45.37 C 13.18 45.42 11.03 45.44 8.89 45.65 C 8.60 45.99 8.01 46.66 7.71 47.00 C 7.44 47.31 6.90 47.93 6.63 48.23 C 3.89 46.28 3.64 42.99 3.59 39.90 Z" />
</g>
<g id="#949494ff">
<path fill="#949494" opacity="1.00" d=" M 7.53 43.58 C 8.12 42.70 8.91 42.24 9.91 42.22 C 13.98 42.05 18.08 42.13 22.13 42.72 L 20.66 43.86 C 19.51 44.07 18.35 44.23 17.19 44.37 C 13.96 44.22 10.73 44.02 7.53 43.58 Z" />
</g>
<g id="#727272ff">
<path fill="#727272" opacity="1.00" d=" M 22.60 42.39 C 24.00 41.46 25.65 42.62 27.03 43.03 C 25.70 44.05 23.23 44.37 22.60 42.39 Z" />
</g>
<g id="#848484ff">
<path fill="#848484" opacity="1.00" d=" M 39.01 43.49 C 40.40 41.27 43.45 42.26 45.66 41.74 C 46.04 42.41 46.82 43.76 47.21 44.43 C 44.45 44.42 41.69 44.18 39.01 43.49 Z" />
</g>
<g id="#6d6d6dff">
<path fill="#6d6d6d" opacity="1.00" d=" M 28.01 43.33 C 28.67 42.19 29.64 41.95 30.95 42.62 L 31.16 43.22 C 30.38 43.25 28.80 43.31 28.01 43.33 Z" />
</g>
<g id="#686868ff">
<path fill="#686868" opacity="1.00" d=" M 32.65 43.03 C 34.71 42.20 37.26 41.72 38.99 43.49 C 37.10 43.88 35.15 43.83 33.30 43.26 L 32.65 43.03 Z" />
</g>
<g id="#7a7a7aff">
<path fill="#7a7a7a" opacity="1.00" d=" M 8.89 45.65 C 11.03 45.44 13.18 45.42 15.32 45.37 C 15.28 45.77 15.19 46.57 15.15 46.97 C 15.00 47.81 14.72 49.49 14.58 50.33 C 13.88 52.29 12.75 54.06 11.50 55.71 C 11.11 55.62 10.33 55.45 9.94 55.36 C 9.49 54.17 9.06 52.97 8.64 51.77 C 10.07 51.42 11.51 51.08 12.94 50.74 C 11.10 50.47 9.26 50.20 7.43 49.92 C 9.48 49.01 11.54 48.12 13.58 47.19 C 11.63 47.10 9.67 47.01 7.71 47.00 C 8.01 46.66 8.60 45.99 8.89 45.65 Z" />
</g>
<g id="#fefefeff">
<path fill="#fefefe" opacity="1.00" d=" M 15.15 46.97 C 15.64 46.23 16.17 45.51 16.72 44.81 C 29.30 45.43 41.89 44.69 54.48 44.97 C 57.18 44.91 59.88 44.86 62.58 44.87 C 62.23 46.57 61.97 48.29 61.66 50.00 C 45.97 50.44 30.27 49.98 14.58 50.33 C 14.72 49.49 15.00 47.81 15.15 46.97 Z" />
</g>
<g id="#dcdcdcff">
<path fill="#dcdcdc" opacity="1.00" d=" M 11.50 55.71 C 12.75 54.06 13.88 52.29 14.58 50.33 C 30.27 49.98 45.97 50.44 61.66 50.00 C 60.90 52.37 59.68 54.56 57.97 56.37 L 57.34 56.35 C 43.58 55.99 29.81 56.38 16.04 56.27 C 14.52 56.20 13.00 56.00 11.50 55.71 Z" />
</g>
<g id="#00000030">
<path fill="#000000" opacity="0.19" d=" M 4.05 54.69 C 4.87 55.48 5.72 56.24 6.62 56.94 C 10.24 58.47 14.25 57.85 18.07 57.91 C 27.41 57.89 36.75 57.85 46.10 57.98 C 48.61 58.04 51.09 57.59 53.54 57.10 C 54.19 57.00 55.49 56.80 56.14 56.70 C 55.56 57.73 55.63 59.86 53.91 59.68 C 38.97 60.05 24.01 59.67 9.06 59.86 C 6.95 59.66 4.16 60.27 2.81 58.17 C 1.63 56.97 3.47 55.67 4.05 54.69 Z" />
</g>
<g id="#00000061">
<path fill="#000000" opacity="0.38" d=" M 6.62 56.94 C 22.26 56.90 37.91 56.59 53.54 57.10 C 51.09 57.59 48.61 58.04 46.10 57.98 C 36.75 57.85 27.41 57.89 18.07 57.91 C 14.25 57.85 10.24 58.47 6.62 56.94 Z" />
</g>
</svg>
