<?xml version="1.0" encoding="UTF-8" ?>
<!DOCTYPE svg PUBLIC "-//W3C//DTD SVG 1.1//EN" "http://www.w3.org/Graphics/SVG/1.1/DTD/svg11.dtd">
<svg width="64pt" height="64pt" viewBox="0 0 64 64" version="1.1" xmlns="http://www.w3.org/2000/svg">
<g id="#00000037">
<path fill="#000000" opacity="0.22" d=" M 6.00 2.02 C 23.32 2.00 40.65 1.94 57.98 2.04 L 58.00 2.99 L 57.03 3.01 C 40.35 2.99 23.67 2.99 6.99 3.01 L 6.01 2.98 L 6.00 2.02 Z" />
</g>
<g id="#00000038">
<path fill="#000000" opacity="0.22" d=" M 5.04 3.02 L 6.01 2.98 C 6.02 12.65 5.96 22.32 6.01 31.98 C 5.95 41.69 6.09 51.39 5.92 61.09 L 4.95 61.00 C 5.08 41.67 4.90 22.35 5.04 3.02 Z" />
<path fill="#000000" opacity="0.22" d=" M 58.00 2.99 L 58.98 3.01 C 59.05 22.34 58.96 41.67 59.03 61.01 L 58.09 61.11 C 57.94 51.40 58.04 41.69 57.99 31.98 C 58.04 22.32 57.98 12.65 58.00 2.99 Z" />
</g>
<g id="#81878cdb">
<path fill="#81878c" opacity="0.86" d=" M 6.01 2.98 L 6.99 3.01 L 7.01 3.99 C 6.97 6.68 6.96 9.38 6.98 12.08 C 6.98 12.55 6.99 13.48 7.00 13.95 C 6.99 15.65 6.99 17.35 7.01 19.04 C 6.99 23.37 7.00 27.70 6.99 32.04 L 6.01 31.98 C 5.96 22.32 6.02 12.65 6.01 2.98 Z" />
</g>
<g id="#c7c9caea">
<path fill="#c7c9ca" opacity="0.92" d=" M 6.99 3.01 C 23.67 2.99 40.35 2.99 57.03 3.01 L 57.00 4.00 C 55.30 4.01 53.60 4.03 51.91 4.07 L 51.09 4.07 C 49.36 4.03 47.63 4.03 45.91 4.06 L 45.07 4.05 C 43.02 4.01 40.97 4.01 38.91 4.06 L 38.09 4.06 C 36.36 4.03 34.63 4.03 32.91 4.06 L 32.09 4.06 C 28.03 4.01 23.96 4.01 19.90 4.06 L 19.09 4.06 C 17.37 4.03 15.66 4.05 13.95 4.11 L 13.19 4.12 C 11.13 4.05 9.07 4.01 7.01 3.99 L 6.99 3.01 Z" />
</g>
<g id="#84898edb">
<path fill="#84898e" opacity="0.86" d=" M 57.03 3.01 L 58.00 2.99 C 57.98 12.65 58.04 22.32 57.99 31.98 L 57.01 32.04 C 57.01 28.03 57.00 24.01 56.98 20.00 L 56.98 19.08 C 57.00 17.38 57.01 15.68 56.99 13.97 L 56.99 13.02 C 57.02 11.01 57.01 8.99 56.98 6.98 L 56.97 6.04 C 56.98 5.53 56.99 4.51 57.00 4.00 L 57.03 3.01 Z" />
</g>
<g id="#f8fafcff">
<path fill="#f8fafc" opacity="1.00" d=" M 7.01 3.99 C 9.07 4.01 11.13 4.05 13.19 4.12 C 12.66 5.57 11.17 6.04 9.97 6.78 C 13.17 6.57 14.14 8.24 12.87 11.78 C 11.58 13.92 8.81 12.83 6.98 12.08 C 6.96 9.38 6.97 6.68 7.01 3.99 Z" />
</g>
<g id="#e7edf3ff">
<path fill="#e7edf3" opacity="1.00" d=" M 13.19 4.12 L 13.95 4.11 C 14.04 4.55 14.24 5.44 14.33 5.88 L 18.67 5.88 C 18.77 5.42 18.98 4.51 19.09 4.06 L 19.90 4.06 C 20.02 4.51 20.24 5.43 20.36 5.88 C 23.50 4.64 31.54 8.83 32.09 4.06 L 32.91 4.06 C 33.02 4.52 33.23 5.43 33.33 5.88 L 37.67 5.88 C 37.77 5.43 37.98 4.51 38.09 4.06 L 38.91 4.06 C 38.38 7.68 45.75 7.32 45.07 4.05 L 45.91 4.06 C 46.01 4.51 46.23 5.42 46.33 5.88 L 50.66 5.88 C 50.77 5.43 50.98 4.52 51.09 4.07 L 51.91 4.07 C 51.63 7.03 55.16 5.65 56.97 6.04 L 56.98 6.98 C 54.14 7.36 48.50 5.36 51.99 11.96 C 51.94 14.07 55.53 12.52 56.99 13.02 L 56.99 13.97 C 55.37 13.98 53.76 13.97 52.15 14.10 C 51.98 15.53 51.84 16.96 51.73 18.39 C 50.51 18.63 49.28 18.85 48.05 19.04 C 48.01 17.05 48.03 15.06 48.07 13.07 C 52.13 13.96 51.40 10.21 50.98 7.01 C 44.29 2.77 44.61 11.33 48.07 13.07 C 46.00 13.00 43.93 12.97 41.86 12.98 L 40.75 12.97 C 43.22 11.72 47.94 12.30 45.01 6.98 C 38.99 3.08 36.75 10.54 40.75 12.97 C 40.93 14.98 41.02 17.00 41.00 19.03 C 40.26 19.02 38.78 19.02 38.04 19.01 C 38.02 17.35 38.02 15.68 37.90 14.02 C 31.71 10.53 33.31 15.71 32.81 18.37 L 32.16 18.20 C 31.69 15.54 33.21 10.47 26.98 13.98 C 25.73 17.64 26.70 19.41 29.89 19.28 C 34.34 21.35 31.14 28.05 31.97 32.00 C 28.72 31.67 25.76 29.23 23.13 32.07 C 22.84 28.99 23.71 25.61 22.26 22.75 L 21.87 21.98 C 13.03 18.40 16.71 27.56 15.92 32.13 C 12.23 31.80 14.93 26.97 13.39 24.61 C 13.26 26.44 12.99 30.09 12.85 31.92 C 11.39 31.95 8.46 32.01 6.99 32.04 C 7.00 27.70 6.99 23.37 7.01 19.04 C 8.51 17.81 11.50 15.34 12.99 14.11 C 11.49 14.07 8.49 13.99 7.00 13.95 C 6.99 13.48 6.98 12.55 6.98 12.08 C 8.81 12.83 11.58 13.92 12.87 11.78 C 14.14 8.24 13.17 6.57 9.97 6.78 C 11.17 6.04 12.66 5.57 13.19 4.12 M 14.01 7.00 C 14.01 8.50 14.00 11.50 14.00 13.00 L 18.99 13.00 C 18.99 11.50 19.00 8.50 19.00 7.00 L 14.01 7.00 M 20.01 7.00 C 20.01 8.50 20.00 11.50 20.00 13.00 L 24.99 13.00 C 24.99 11.50 25.00 8.50 25.00 7.00 L 20.01 7.00 M 27.01 7.00 C 27.01 8.50 27.00 11.50 27.00 13.00 L 31.99 13.00 C 31.99 11.50 32.00 8.50 32.00 7.00 L 27.01 7.00 M 33.01 7.00 C 33.01 8.50 33.00 11.50 33.00 13.00 L 37.99 13.00 C 37.99 11.50 38.00 8.50 38.00 7.00 L 33.01 7.00 M 14.00 14.00 L 14.00 19.00 L 19.00 19.00 L 19.00 14.00 L 14.00 14.00 M 20.00 14.00 L 20.00 19.00 L 25.00 19.00 L 25.00 14.00 L 20.00 14.00 Z" />
</g>
<g id="#ffffffff">
<path fill="#ffffff" opacity="1.00" d=" M 13.95 4.11 C 15.66 4.05 17.37 4.03 19.09 4.06 C 18.98 4.51 18.77 5.42 18.67 5.88 L 14.33 5.88 C 14.24 5.44 14.04 4.55 13.95 4.11 Z" />
<path fill="#ffffff" opacity="1.00" d=" M 32.91 4.06 C 34.63 4.03 36.36 4.03 38.09 4.06 C 37.98 4.51 37.77 5.43 37.67 5.88 L 33.33 5.88 C 33.23 5.43 33.02 4.52 32.91 4.06 Z" />
<path fill="#ffffff" opacity="1.00" d=" M 45.91 4.06 C 47.63 4.03 49.36 4.03 51.09 4.07 C 50.98 4.52 50.77 5.43 50.66 5.88 L 46.33 5.88 C 46.23 5.42 46.01 4.51 45.91 4.06 Z" />
<path fill="#ffffff" opacity="1.00" d=" M 51.91 4.07 C 53.60 4.03 55.30 4.01 57.00 4.00 C 56.99 4.51 56.98 5.53 56.97 6.04 C 55.16 5.65 51.63 7.03 51.91 4.07 Z" />
</g>
<g id="#fcfdfeff">
<path fill="#fcfdfe" opacity="1.00" d=" M 19.90 4.06 C 23.96 4.01 28.03 4.01 32.09 4.06 C 31.54 8.83 23.50 4.64 20.36 5.88 C 20.24 5.43 20.02 4.51 19.90 4.06 Z" />
<path fill="#fcfdfe" opacity="1.00" d=" M 38.91 4.06 C 40.97 4.01 43.02 4.01 45.07 4.05 C 45.75 7.32 38.38 7.68 38.91 4.06 Z" />
</g>
<g id="#fafbfcff">
<path fill="#fafbfc" opacity="1.00" d=" M 14.01 7.00 L 19.00 7.00 C 19.00 8.50 18.99 11.50 18.99 13.00 L 14.00 13.00 C 14.00 11.50 14.01 8.50 14.01 7.00 Z" />
<path fill="#fafbfc" opacity="1.00" d=" M 20.01 7.00 L 25.00 7.00 C 25.00 8.50 24.99 11.50 24.99 13.00 L 20.00 13.00 C 20.00 11.50 20.01 8.50 20.01 7.00 Z" />
<path fill="#fafbfc" opacity="1.00" d=" M 27.01 7.00 L 32.00 7.00 C 32.00 8.50 31.99 11.50 31.99 13.00 L 27.00 13.00 C 27.00 11.50 27.01 8.50 27.01 7.00 Z" />
<path fill="#fafbfc" opacity="1.00" d=" M 33.01 7.00 L 38.00 7.00 C 38.00 8.50 37.99 11.50 37.99 13.00 L 33.00 13.00 C 33.00 11.50 33.01 8.50 33.01 7.00 Z" />
<path fill="#fafbfc" opacity="1.00" d=" M 48.07 13.07 C 44.61 11.33 44.29 2.77 50.98 7.01 C 51.40 10.21 52.13 13.96 48.07 13.07 Z" />
<path fill="#fafbfc" opacity="1.00" d=" M 51.99 11.96 C 48.50 5.36 54.14 7.36 56.98 6.98 C 57.01 8.99 57.02 11.01 56.99 13.02 C 55.53 12.52 51.94 14.07 51.99 11.96 Z" />
</g>
<g id="#f8fafbff">
<path fill="#f8fafb" opacity="1.00" d=" M 40.75 12.97 C 36.75 10.54 38.99 3.08 45.01 6.98 C 47.94 12.30 43.22 11.72 40.75 12.97 Z" />
</g>
<g id="#a5bbe4ff">
<path fill="#a5bbe4" opacity="1.00" d=" M 40.75 12.97 L 41.86 12.98 C 41.97 17.98 41.97 22.99 42.02 28.00 C 41.99 31.33 42.02 34.67 41.98 38.00 L 41.01 38.00 C 40.99 36.07 40.98 34.14 40.94 32.21 C 40.99 28.14 41.02 24.06 41.01 19.99 L 41.00 19.03 C 41.02 17.00 40.93 14.98 40.75 12.97 Z" />
</g>
<g id="#4176d6ff">
<path fill="#4176d6" opacity="1.00" d=" M 41.86 12.98 C 43.93 12.97 46.00 13.00 48.07 13.07 C 48.03 15.06 48.01 17.05 48.05 19.04 L 48.04 19.94 C 48.02 22.63 47.99 25.31 47.97 28.00 C 45.99 28.00 44.01 28.00 42.02 28.00 C 41.97 22.99 41.97 17.98 41.86 12.98 Z" />
</g>
<g id="#f6f7f8ff">
<path fill="#f6f7f8" opacity="1.00" d=" M 7.00 13.95 C 8.49 13.99 11.49 14.07 12.99 14.11 C 11.50 15.34 8.51 17.81 7.01 19.04 C 6.99 17.35 6.99 15.65 7.00 13.95 Z" />
</g>
<g id="#f8f8f8ff">
<path fill="#f8f8f8" opacity="1.00" d=" M 14.00 14.00 L 19.00 14.00 L 19.00 19.00 L 14.00 19.00 L 14.00 14.00 Z" />
<path fill="#f8f8f8" opacity="1.00" d=" M 20.00 14.00 L 25.00 14.00 L 25.00 19.00 L 20.00 19.00 L 20.00 14.00 Z" />
<path fill="#f8f8f8" opacity="1.00" d=" M 26.98 13.98 C 33.21 10.47 31.69 15.54 32.16 18.20 C 31.59 18.47 30.46 19.01 29.89 19.28 C 26.70 19.41 25.73 17.64 26.98 13.98 Z" />
<path fill="#f8f8f8" opacity="1.00" d=" M 32.81 18.37 C 33.31 15.71 31.71 10.53 37.90 14.02 C 38.02 15.68 38.02 17.35 38.04 19.01 C 36.28 19.01 34.50 18.93 32.81 18.37 Z" />
<path fill="#f8f8f8" opacity="1.00" d=" M 52.15 14.10 C 53.76 13.97 55.37 13.98 56.99 13.97 C 57.01 15.68 57.00 17.38 56.98 19.08 C 55.22 18.95 53.45 18.79 51.73 18.39 C 51.84 16.96 51.98 15.53 52.15 14.10 Z" />
</g>
<g id="#d5dadfff">
<path fill="#d5dadf" opacity="1.00" d=" M 32.16 18.20 L 32.81 18.37 C 34.50 18.93 36.28 19.01 38.04 19.01 C 38.78 19.02 40.26 19.02 41.00 19.03 L 41.01 19.99 C 38.34 19.93 35.68 19.96 33.03 20.07 C 34.41 24.01 29.08 35.17 37.78 31.97 C 36.41 30.47 40.07 17.03 39.03 29.94 C 38.81 31.40 39.44 32.16 40.94 32.21 C 40.98 34.14 40.99 36.07 41.01 38.00 C 40.97 45.29 40.96 52.59 41.13 59.89 C 39.38 59.88 37.62 59.88 35.87 59.89 C 36.02 52.65 35.98 45.41 36.19 38.17 C 36.61 38.03 37.46 37.75 37.88 37.61 L 37.96 33.05 C 28.88 30.47 33.45 33.25 35.09 34.91 C 33.02 34.93 30.95 34.92 28.89 34.88 C 30.92 33.54 37.06 31.42 27.17 33.07 C 27.29 34.35 27.52 36.90 27.64 38.17 C 28.08 45.44 28.02 52.73 28.00 60.01 C 26.35 60.02 24.70 60.02 23.05 59.90 C 22.91 52.67 22.95 45.43 23.04 38.20 C 23.49 38.06 24.41 37.78 24.86 37.64 L 24.87 33.35 C 24.44 33.24 23.56 33.00 23.12 32.88 L 23.13 32.07 C 25.76 29.23 28.72 31.67 31.97 32.00 C 31.14 28.05 34.34 21.35 29.89 19.28 C 30.46 19.01 31.59 18.47 32.16 18.20 Z" />
</g>
<g id="#d4dadfff">
<path fill="#d4dadf" opacity="1.00" d=" M 48.05 19.04 C 49.28 18.85 50.51 18.63 51.73 18.39 C 53.45 18.79 55.22 18.95 56.98 19.08 L 56.98 20.00 C 55.33 20.00 53.68 19.98 52.03 20.10 C 51.88 24.03 51.89 27.97 52.05 31.91 C 53.70 32.03 55.36 32.02 57.01 32.04 L 56.99 32.98 C 55.33 32.99 53.67 32.98 52.02 33.10 C 48.54 39.64 54.17 37.64 56.98 38.02 L 56.98 38.98 C 55.33 38.98 53.67 38.98 52.02 39.10 C 48.55 45.62 54.18 43.64 56.99 44.05 C 57.03 49.40 56.93 54.75 57.06 60.10 C 54.04 60.04 51.03 60.01 48.01 59.99 C 47.99 54.65 48.03 49.33 47.98 44.00 C 48.00 42.04 47.99 40.07 48.02 38.11 C 52.58 39.55 52.61 31.39 48.04 32.95 L 48.03 32.05 C 48.76 31.99 50.22 31.88 50.95 31.82 C 49.63 28.43 54.28 18.98 48.04 19.94 L 48.05 19.04 Z" />
</g>
<g id="#edeef0ff">
<path fill="#edeef0" opacity="1.00" d=" M 33.03 20.07 C 35.68 19.96 38.34 19.93 41.01 19.99 C 41.02 24.06 40.99 28.14 40.94 32.21 C 39.44 32.16 38.81 31.40 39.03 29.94 C 40.07 17.03 36.41 30.47 37.78 31.97 C 29.08 35.17 34.41 24.01 33.03 20.07 Z" />
</g>
<g id="#eeeff0ff">
<path fill="#eeeff0" opacity="1.00" d=" M 48.04 19.94 C 54.28 18.98 49.63 28.43 50.95 31.82 C 50.22 31.88 48.76 31.99 48.03 32.05 C 48.01 30.70 47.99 29.35 47.97 28.00 C 47.99 25.31 48.02 22.63 48.04 19.94 Z" />
<path fill="#eeeff0" opacity="1.00" d=" M 52.03 20.10 C 53.68 19.98 55.33 20.00 56.98 20.00 C 57.00 24.01 57.01 28.03 57.01 32.04 C 55.36 32.02 53.70 32.03 52.05 31.91 C 51.89 27.97 51.88 24.03 52.03 20.10 Z" />
</g>
<g id="#549f45ff">
<path fill="#549f45" opacity="1.00" d=" M 15.92 32.13 C 16.71 27.56 13.03 18.40 21.87 21.98 L 22.26 22.75 C 22.09 28.16 22.01 33.57 21.98 38.99 C 19.99 39.00 18.00 39.03 16.01 39.07 L 15.97 38.17 C 15.97 36.42 15.96 34.67 15.92 32.92 L 15.92 32.13 Z" />
</g>
<g id="#a1bd9efd">
<path fill="#a1bd9e" opacity="1.00" d=" M 22.26 22.75 C 23.71 25.61 22.84 28.99 23.13 32.07 L 23.12 32.88 C 23.05 34.65 23.03 36.42 23.04 38.20 C 22.95 45.43 22.91 52.67 23.05 59.90 C 24.70 60.02 26.35 60.02 28.00 60.01 L 28.99 60.03 L 29.01 61.00 C 27.26 61.00 23.75 60.99 22.00 60.99 C 22.00 53.66 22.02 46.32 21.98 38.99 C 22.01 33.57 22.09 28.16 22.26 22.75 Z" />
</g>
<g id="#d4d9ddff">
<path fill="#d4d9dd" opacity="1.00" d=" M 13.39 24.61 C 14.93 26.97 12.23 31.80 15.92 32.13 L 15.92 32.92 C 15.47 33.02 14.57 33.23 14.12 33.33 L 14.13 37.65 C 14.59 37.78 15.51 38.04 15.97 38.17 L 16.01 39.07 C 16.00 46.04 16.02 53.01 15.99 59.98 C 12.97 60.00 9.96 60.01 6.95 60.08 C 7.00 54.73 6.99 49.39 7.00 44.04 C 8.51 43.77 11.53 43.22 13.04 42.94 C 14.10 38.90 9.65 38.12 6.98 39.92 C 6.99 39.45 7.00 38.52 7.00 38.05 C 8.50 36.81 11.49 34.34 12.99 33.10 C 11.50 33.07 8.51 33.01 7.02 32.98 L 6.99 32.04 C 8.46 32.01 11.39 31.95 12.85 31.92 C 12.99 30.09 13.26 26.44 13.39 24.61 Z" />
</g>
<g id="#356acaff">
<path fill="#356aca" opacity="1.00" d=" M 42.02 28.00 C 44.01 28.00 45.99 28.00 47.97 28.00 C 47.99 29.35 48.01 30.70 48.03 32.05 L 48.04 32.95 C 48.01 34.67 48.00 36.39 48.02 38.11 C 47.99 40.07 48.00 42.04 47.98 44.00 C 45.99 44.00 44.01 44.00 42.02 44.00 C 42.00 42.00 42.01 40.00 41.98 38.00 C 42.02 34.67 41.99 31.33 42.02 28.00 Z" />
</g>
<g id="#747a7fdc">
<path fill="#747a7f" opacity="0.86" d=" M 6.01 31.98 L 6.99 32.04 L 7.02 32.98 C 7.00 34.67 6.99 36.36 7.00 38.05 C 7.00 38.52 6.99 39.45 6.98 39.92 C 6.97 41.29 6.98 42.67 7.00 44.04 C 6.99 49.39 7.00 54.73 6.95 60.08 L 6.82 61.20 L 5.92 61.09 C 6.09 51.39 5.95 41.69 6.01 31.98 Z" />
</g>
<g id="#777c81dc">
<path fill="#777c81" opacity="0.86" d=" M 57.01 32.04 L 57.99 31.98 C 58.04 41.69 57.94 51.40 58.09 61.11 L 57.19 61.22 L 57.06 60.10 C 56.93 54.75 57.03 49.40 56.99 44.05 C 57.01 42.36 57.01 40.67 56.98 38.98 L 56.98 38.02 C 57.00 36.34 57.00 34.66 56.99 32.98 L 57.01 32.04 Z" />
</g>
<g id="#e7e8e9ff">
<path fill="#e7e8e9" opacity="1.00" d=" M 7.02 32.98 C 8.51 33.01 11.50 33.07 12.99 33.10 C 11.49 34.34 8.50 36.81 7.00 38.05 C 6.99 36.36 7.00 34.67 7.02 32.98 Z" />
</g>
<g id="#e9e9e9ff">
<path fill="#e9e9e9" opacity="1.00" d=" M 14.12 33.33 C 14.57 33.23 15.47 33.02 15.92 32.92 C 15.96 34.67 15.97 36.42 15.97 38.17 C 15.51 38.04 14.59 37.78 14.13 37.65 L 14.12 33.33 Z" />
<path fill="#e9e9e9" opacity="1.00" d=" M 23.12 32.88 C 23.56 33.00 24.44 33.24 24.87 33.35 L 24.86 37.64 C 24.41 37.78 23.49 38.06 23.04 38.20 C 23.03 36.42 23.05 34.65 23.12 32.88 Z" />
<path fill="#e9e9e9" opacity="1.00" d=" M 35.09 34.91 C 33.45 33.25 28.88 30.47 37.96 33.05 L 37.88 37.61 C 37.46 37.75 36.61 38.03 36.19 38.17 C 36.18 36.90 35.81 35.82 35.09 34.91 Z" />
<path fill="#e9e9e9" opacity="1.00" d=" M 48.04 32.95 C 52.61 31.39 52.58 39.55 48.02 38.11 C 48.00 36.39 48.01 34.67 48.04 32.95 Z" />
<path fill="#e9e9e9" opacity="1.00" d=" M 52.02 33.10 C 53.67 32.98 55.33 32.99 56.99 32.98 C 57.00 34.66 57.00 36.34 56.98 38.02 C 54.17 37.64 48.54 39.64 52.02 33.10 Z" />
</g>
<g id="#eae9e9ff">
<path fill="#eae9e9" opacity="1.00" d=" M 27.17 33.07 C 37.06 31.42 30.92 33.54 28.89 34.88 C 28.03 35.70 27.62 36.80 27.64 38.17 C 27.52 36.90 27.29 34.35 27.17 33.07 Z" />
</g>
<g id="#d8c0c0ff">
<path fill="#d8c0c0" opacity="1.00" d=" M 27.64 38.17 C 27.62 36.80 28.03 35.70 28.89 34.88 C 28.93 38.92 28.98 42.96 29.02 47.00 C 28.99 51.34 29.00 55.68 28.99 60.03 L 28.00 60.01 C 28.02 52.73 28.08 45.44 27.64 38.17 Z" />
<path fill="#d8c0c0" opacity="1.00" d=" M 35.09 34.91 C 35.81 35.82 36.18 36.90 36.19 38.17 C 35.98 45.41 36.02 52.65 35.87 59.89 L 35.13 60.30 C 35.06 55.86 35.03 51.43 34.98 47.00 C 35.02 42.97 35.05 38.94 35.09 34.91 Z" />
</g>
<g id="#cd3e33ff">
<path fill="#cd3e33" opacity="1.00" d=" M 28.89 34.88 C 30.95 34.92 33.02 34.93 35.09 34.91 C 35.05 38.94 35.02 42.97 34.98 47.00 C 32.99 47.00 31.00 47.00 29.02 47.00 C 28.98 42.96 28.93 38.92 28.89 34.88 Z" />
</g>
<g id="#92a9d2ff">
<path fill="#92a9d2" opacity="1.00" d=" M 41.01 38.00 L 41.98 38.00 C 42.01 40.00 42.00 42.00 42.02 44.00 C 41.97 49.43 42.07 54.86 41.88 60.29 L 41.13 59.89 C 40.96 52.59 40.97 45.29 41.01 38.00 Z" />
</g>
<g id="#e1e2e3ff">
<path fill="#e1e2e3" opacity="1.00" d=" M 6.98 39.92 C 9.65 38.12 14.10 38.90 13.04 42.94 C 11.53 43.22 8.51 43.77 7.00 44.04 C 6.98 42.67 6.97 41.29 6.98 39.92 Z" />
</g>
<g id="#418d32fe">
<path fill="#418d32" opacity="1.00" d=" M 16.01 39.07 C 18.00 39.03 19.99 39.00 21.98 38.99 C 22.02 46.32 22.00 53.66 22.00 60.99 C 20.00 61.01 18.01 61.00 16.01 60.98 L 15.99 59.98 C 16.02 53.01 16.00 46.04 16.01 39.07 Z" />
</g>
<g id="#e3e3e4ff">
<path fill="#e3e3e4" opacity="1.00" d=" M 52.02 39.10 C 53.67 38.98 55.33 38.98 56.98 38.98 C 57.01 40.67 57.01 42.36 56.99 44.05 C 54.18 43.64 48.55 45.62 52.02 39.10 Z" />
</g>
<g id="#295dbcfe">
<path fill="#295dbc" opacity="1.00" d=" M 42.02 44.00 C 44.01 44.00 45.99 44.00 47.98 44.00 C 48.03 49.33 47.99 54.65 48.01 59.99 L 47.99 60.98 C 45.95 61.00 43.92 60.96 41.89 60.95 L 41.88 60.29 C 42.07 54.86 41.97 49.43 42.02 44.00 Z" />
</g>
<g id="#c13429fe">
<path fill="#c13429" opacity="1.00" d=" M 29.02 47.00 C 31.00 47.00 32.99 47.00 34.98 47.00 C 35.03 51.43 35.06 55.86 35.13 60.30 L 35.12 60.94 C 33.08 60.98 31.05 61.01 29.01 61.00 L 28.99 60.03 C 29.00 55.68 28.99 51.34 29.02 47.00 Z" />
</g>
<g id="#a9abacf3">
<path fill="#a9abac" opacity="0.95" d=" M 6.95 60.08 C 9.96 60.01 12.97 60.00 15.99 59.98 L 16.01 60.98 C 12.95 61.03 9.88 61.07 6.82 61.20 L 6.95 60.08 Z" />
</g>
<g id="#a0a1a7f3">
<path fill="#a0a1a7" opacity="0.95" d=" M 35.13 60.30 L 35.87 59.89 C 37.62 59.88 39.38 59.88 41.13 59.89 L 41.88 60.29 L 41.89 60.95 C 40.20 60.95 36.81 60.94 35.12 60.94 L 35.13 60.30 Z" />
</g>
<g id="#a9aaabf3">
<path fill="#a9aaab" opacity="0.95" d=" M 48.01 59.99 C 51.03 60.01 54.04 60.04 57.06 60.10 L 57.19 61.22 C 54.12 61.14 51.06 61.05 47.99 60.98 L 48.01 59.99 Z" />
</g>
<g id="#0000001a">
<path fill="#000000" opacity="0.10" d=" M 4.95 61.00 L 5.92 61.09 L 6.82 61.20 C 23.52 62.53 40.48 62.50 57.19 61.22 L 58.09 61.11 L 59.03 61.01 C 58.73 61.48 58.13 62.43 57.82 62.90 C 40.61 63.05 23.37 63.12 6.16 62.89 C 5.86 62.42 5.25 61.47 4.95 61.00 Z" />
</g>
<g id="#00000079">
<path fill="#000000" opacity="0.47" d=" M 6.82 61.20 C 9.88 61.07 12.95 61.03 16.01 60.98 C 18.01 61.00 20.00 61.01 22.00 60.99 C 23.75 60.99 27.26 61.00 29.01 61.00 C 31.05 61.01 33.08 60.98 35.12 60.94 C 36.81 60.94 40.20 60.95 41.89 60.95 C 43.92 60.96 45.95 61.00 47.99 60.98 C 51.06 61.05 54.12 61.14 57.19 61.22 C 40.48 62.50 23.52 62.53 6.82 61.20 Z" />
</g>
</svg>
