<?xml version="1.0" encoding="UTF-8" ?>
<!DOCTYPE svg PUBLIC "-//W3C//DTD SVG 1.1//EN" "http://www.w3.org/Graphics/SVG/1.1/DTD/svg11.dtd">
<svg width="64pt" height="64pt" viewBox="0 0 64 64" version="1.1" xmlns="http://www.w3.org/2000/svg">
<g id="#371c14fa">
<path fill="#371c14" opacity="0.98" d=" M 6.96 6.05 C 8.12 1.33 16.08 1.17 17.93 3.93 C 17.39 4.13 16.31 4.53 15.77 4.73 C 13.78 5.02 11.59 4.84 9.87 6.06 C 10.98 7.61 13.41 7.40 15.10 8.06 C 14.12 8.76 12.79 9.36 13.12 10.83 C 12.94 20.63 12.81 30.45 13.23 40.25 C 13.05 44.20 12.90 48.15 12.78 52.10 C 11.09 40.75 12.46 29.22 11.87 17.79 C 10.92 15.20 14.42 7.54 9.11 9.01 C 9.88 13.73 9.86 18.70 8.27 23.26 C 7.80 18.12 8.80 12.76 7.33 7.73 C 7.24 7.31 7.05 6.47 6.96 6.05 Z" />
</g>
<g id="#a22120f7">
<path fill="#a22120" opacity="0.97" d=" M 15.77 4.73 C 16.31 4.53 17.39 4.13 17.93 3.93 C 29.99 3.99 41.93 6.31 53.97 7.12 L 54.00 8.04 C 53.98 16.36 54.04 24.69 53.99 33.01 L 53.00 33.00 C 52.57 26.27 53.96 19.34 52.40 12.71 C 52.44 11.41 52.02 10.57 51.16 10.20 C 39.45 7.90 27.31 7.75 15.77 4.73 Z" />
</g>
<g id="#d5d1d1ff">
<path fill="#d5d1d1" opacity="1.00" d=" M 9.87 6.06 C 11.59 4.84 13.78 5.02 15.77 4.73 C 27.31 7.75 39.45 7.90 51.16 10.20 C 50.51 12.07 49.06 13.46 47.79 14.93 C 40.81 13.90 34.04 11.71 27.03 10.89 C 23.12 9.68 19.11 8.83 15.10 8.06 C 13.41 7.40 10.98 7.61 9.87 6.06 Z" />
</g>
<g id="#0300009c">
<path fill="#030000" opacity="0.61" d=" M 6.03 5.96 L 6.96 6.05 C 7.05 6.47 7.24 7.31 7.33 7.73 C 6.70 22.12 7.09 36.53 7.02 50.92 L 6.04 51.01 C 5.96 36.00 5.98 20.98 6.03 5.96 Z" />
</g>
<g id="#050101fd">
<path fill="#050101" opacity="1.00" d=" M 7.33 7.73 C 8.80 12.76 7.80 18.12 8.27 23.26 C 7.87 31.83 7.92 40.42 8.02 48.99 L 8.99 49.00 C 9.18 38.51 7.62 27.72 11.87 17.79 C 12.46 29.22 11.09 40.75 12.78 52.10 L 12.93 52.99 C 11.10 52.56 7.49 52.88 7.02 50.92 C 7.09 36.53 6.70 22.12 7.33 7.73 Z" />
</g>
<g id="#c92123ff">
<path fill="#c92123" opacity="1.00" d=" M 15.10 8.06 C 19.11 8.83 23.12 9.68 27.03 10.89 C 31.81 14.07 37.75 13.95 43.08 15.54 C 41.43 17.46 46.18 18.56 45.93 21.20 C 45.89 22.84 45.82 26.13 45.78 27.77 C 43.27 36.99 47.73 48.05 42.26 56.27 C 43.04 50.11 43.65 43.70 41.20 37.80 C 40.67 31.26 45.74 21.34 37.90 18.14 C 30.08 16.38 22.22 14.90 14.36 13.39 C 13.92 12.55 13.51 11.69 13.12 10.83 C 12.79 9.36 14.12 8.76 15.10 8.06 Z" />
</g>
<g id="#5d0101c9">
<path fill="#5d0101" opacity="0.79" d=" M 54.00 8.04 L 54.97 7.99 C 55.18 24.04 54.72 40.10 55.19 56.14 C 54.91 56.35 54.34 56.77 54.05 56.98 C 53.60 57.05 52.70 57.19 52.25 57.26 L 52.15 56.21 L 53.04 55.92 L 53.89 55.63 C 54.13 48.09 54.02 40.55 53.99 33.01 C 54.04 24.69 53.98 16.36 54.00 8.04 Z" />
</g>
<g id="#1c0c08ff">
<path fill="#1c0c08" opacity="1.00" d=" M 9.11 9.01 C 14.42 7.54 10.92 15.20 11.87 17.79 C 7.62 27.72 9.18 38.51 8.99 49.00 L 8.02 48.99 C 7.92 40.42 7.87 31.83 8.27 23.26 C 9.86 18.70 9.88 13.73 9.11 9.01 Z" />
</g>
<g id="#abababff">
<path fill="#ababab" opacity="1.00" d=" M 51.16 10.20 C 52.02 10.57 52.44 11.41 52.40 12.71 C 51.63 26.80 52.13 40.92 52.01 55.02 C 49.88 56.28 45.96 60.60 48.98 52.04 C 48.31 39.96 50.41 27.35 48.01 15.58 L 47.79 14.93 C 49.06 13.46 50.51 12.07 51.16 10.20 Z" />
</g>
<g id="#c73331ff">
<path fill="#c73331" opacity="1.00" d=" M 13.12 10.83 C 13.51 11.69 13.92 12.55 14.36 13.39 C 22.22 14.90 30.08 16.38 37.90 18.14 C 45.74 21.34 40.67 31.26 41.20 37.80 C 40.88 40.98 40.30 44.14 38.83 46.99 C 35.22 46.15 31.94 44.29 28.37 43.27 C 25.31 41.36 22.03 39.31 18.29 39.33 C 16.91 38.29 15.61 37.14 14.19 36.15 C 13.87 37.52 13.59 38.89 13.23 40.25 C 12.81 30.45 12.94 20.63 13.12 10.83 M 17.99 17.01 C 18.75 19.28 18.58 21.98 20.14 23.90 C 22.61 24.20 21.07 20.11 22.92 20.01 C 22.91 21.97 22.86 25.89 25.92 24.79 C 29.06 22.97 30.10 29.22 34.06 26.06 C 33.90 24.16 30.91 25.57 30.19 23.77 C 33.10 17.06 29.53 19.30 27.24 19.61 C 25.80 17.63 23.35 18.61 21.29 18.21 C 19.52 22.95 21.11 15.45 17.99 17.01 M 37.20 21.22 C 35.27 22.45 37.34 24.93 37.30 26.72 C 38.56 26.06 38.73 21.84 37.20 21.22 M 22.01 26.00 C 20.98 29.33 25.24 27.65 27.11 27.95 C 26.44 25.57 23.97 25.89 22.01 26.00 M 27.91 27.12 C 28.69 31.25 35.36 30.49 39.00 31.02 C 38.98 30.56 38.96 29.64 38.95 29.18 C 35.23 28.72 31.58 27.85 27.91 27.12 Z" />
</g>
<g id="#c03d30ff">
<path fill="#c03d30" opacity="1.00" d=" M 27.03 10.89 C 34.04 11.71 40.81 13.90 47.79 14.93 L 48.01 15.58 C 45.66 30.32 47.85 45.37 46.76 60.23 C 45.19 49.49 46.45 38.58 45.78 27.77 C 45.82 26.13 45.89 22.84 45.93 21.20 C 46.27 18.76 46.11 15.90 43.08 15.54 C 37.75 13.95 31.81 14.07 27.03 10.89 Z" />
</g>
<g id="#7c1a18ff">
<path fill="#7c1a18" opacity="1.00" d=" M 52.40 12.71 C 53.96 19.34 52.57 26.27 53.00 33.00 C 52.96 40.64 53.01 48.28 53.04 55.92 L 52.15 56.21 L 52.01 55.02 C 52.13 40.92 51.63 26.80 52.40 12.71 Z" />
</g>
<g id="#cf030cff">
<path fill="#cf030c" opacity="1.00" d=" M 45.93 21.20 C 46.18 18.56 41.43 17.46 43.08 15.54 C 46.11 15.90 46.27 18.76 45.93 21.20 Z" />
</g>
<g id="#891a15ff">
<path fill="#891a15" opacity="1.00" d=" M 46.76 60.23 C 47.85 45.37 45.66 30.32 48.01 15.58 C 48.02 30.44 47.94 45.31 48.05 60.17 C 48.03 60.63 47.98 61.56 47.95 62.03 L 46.98 62.05 C 46.93 61.60 46.82 60.69 46.76 60.23 Z" />
</g>
<g id="#a49c9dff">
<path fill="#a49c9d" opacity="1.00" d=" M 48.01 15.58 C 50.41 27.35 48.31 39.96 48.98 52.04 C 45.96 60.60 49.88 56.28 52.01 55.02 L 52.15 56.21 L 52.25 57.26 C 50.93 58.34 49.50 59.26 48.05 60.17 C 47.94 45.31 48.02 30.44 48.01 15.58 Z" />
</g>
<g id="#a12624ff">
<path fill="#a12624" opacity="1.00" d=" M 17.99 17.01 C 21.11 15.45 19.52 22.95 21.29 18.21 C 23.35 18.61 25.80 17.63 27.24 19.61 C 29.53 19.30 33.10 17.06 30.19 23.77 C 30.91 25.57 33.90 24.16 34.06 26.06 C 30.10 29.22 29.06 22.97 25.92 24.79 C 22.86 25.89 22.91 21.97 22.92 20.01 C 21.07 20.11 22.61 24.20 20.14 23.90 C 18.58 21.98 18.75 19.28 17.99 17.01 Z" />
</g>
<g id="#941f1dff">
<path fill="#941f1d" opacity="1.00" d=" M 37.20 21.22 C 38.73 21.84 38.56 26.06 37.30 26.72 C 37.34 24.93 35.27 22.45 37.20 21.22 Z" />
</g>
<g id="#9a2423ff">
<path fill="#9a2423" opacity="1.00" d=" M 22.01 26.00 C 23.97 25.89 26.44 25.57 27.11 27.95 C 25.24 27.65 20.98 29.33 22.01 26.00 Z" />
</g>
<g id="#9a2321ff">
<path fill="#9a2321" opacity="1.00" d=" M 27.91 27.12 C 31.58 27.85 35.23 28.72 38.95 29.18 C 38.96 29.64 38.98 30.56 39.00 31.02 C 35.36 30.49 28.69 31.25 27.91 27.12 Z" />
</g>
<g id="#a6070af8">
<path fill="#a6070a" opacity="0.97" d=" M 42.26 56.27 C 47.73 48.05 43.27 36.99 45.78 27.77 C 46.45 38.58 45.19 49.49 46.76 60.23 C 46.82 60.69 46.93 61.60 46.98 62.05 C 39.29 60.10 31.23 58.83 23.86 55.91 C 24.18 55.45 24.81 54.53 25.12 54.07 C 30.84 53.98 36.82 58.27 42.26 56.27 Z" />
</g>
<g id="#93100dff">
<path fill="#93100d" opacity="1.00" d=" M 53.00 33.00 L 53.99 33.01 C 54.02 40.55 54.13 48.09 53.89 55.63 L 53.04 55.92 C 53.01 48.28 52.96 40.64 53.00 33.00 Z" />
</g>
<g id="#bc2928ff">
<path fill="#bc2928" opacity="1.00" d=" M 14.19 36.15 C 15.61 37.14 16.91 38.29 18.29 39.33 C 22.03 39.31 25.31 41.36 28.37 43.27 C 31.94 44.29 35.22 46.15 38.83 46.99 C 40.30 44.14 40.88 40.98 41.20 37.80 C 43.65 43.70 43.04 50.11 42.26 56.27 C 36.82 58.27 30.84 53.98 25.12 54.07 C 20.86 54.12 17.10 51.36 12.78 52.10 C 12.90 48.15 13.05 44.20 13.23 40.25 C 13.59 38.89 13.87 37.52 14.19 36.15 Z" />
</g>
<g id="#870101ea">
<path fill="#870101" opacity="0.92" d=" M 12.78 52.10 C 17.10 51.36 20.86 54.12 25.12 54.07 C 24.81 54.53 24.18 55.45 23.86 55.91 C 20.24 55.28 16.14 55.01 12.93 52.99 L 12.78 52.10 Z" />
</g>
<g id="#00000028">
<path fill="#000000" opacity="0.16" d=" M 55.19 56.14 C 57.43 57.14 53.84 60.81 52.10 59.72 C 52.75 58.81 53.41 57.90 54.05 56.98 C 54.34 56.77 54.91 56.35 55.19 56.14 Z" />
</g>
<g id="#08040482">
<path fill="#080404" opacity="0.51" d=" M 52.25 57.26 C 52.70 57.19 53.60 57.05 54.05 56.98 C 53.41 57.90 52.75 58.81 52.10 59.72 C 50.85 60.72 49.40 61.38 47.95 62.03 C 47.98 61.56 48.03 60.63 48.05 60.17 C 49.50 59.26 50.93 58.34 52.25 57.26 Z" />
</g>
</svg>
