<?xml version="1.0" encoding="UTF-8" ?>
<!DOCTYPE svg PUBLIC "-//W3C//DTD SVG 1.1//EN" "http://www.w3.org/Graphics/SVG/1.1/DTD/svg11.dtd">
<svg width="64pt" height="64pt" viewBox="0 0 64 64" version="1.1" xmlns="http://www.w3.org/2000/svg">
<g id="#f7f7f7ff">
<path fill="#f7f7f7" opacity="1.00" d=" M 6.34 3.16 C 11.91 3.17 17.47 3.12 23.03 3.16 C 27.13 2.91 29.15 7.13 31.77 9.54 C 37.17 9.48 42.58 9.53 47.99 9.50 C 47.80 13.75 48.71 17.96 48.42 22.20 C 46.97 22.06 44.07 21.78 42.62 21.64 C 45.13 23.04 48.01 22.47 50.69 22.18 C 50.69 22.80 50.70 24.06 50.70 24.69 C 47.14 24.54 43.58 24.68 40.04 25.00 C 43.80 25.56 47.59 25.48 51.37 25.40 C 51.32 24.08 51.29 22.76 51.28 21.45 C 50.63 21.49 49.32 21.56 48.66 21.60 C 48.87 19.84 48.35 17.89 49.13 16.25 C 50.77 15.38 52.74 16.18 54.50 15.98 C 54.49 26.39 54.52 36.81 54.49 47.23 C 52.22 47.41 49.95 47.42 47.69 47.65 C 50.73 47.84 53.78 47.71 56.80 47.32 C 56.70 48.48 56.62 49.65 56.53 50.81 C 56.00 50.67 54.92 50.39 54.38 50.25 C 54.52 53.78 54.52 57.31 54.50 60.84 C 42.70 60.85 30.91 60.86 19.11 60.84 C 19.12 58.70 19.14 56.57 19.32 54.45 C 17.13 54.49 14.94 54.49 12.75 54.48 C 12.75 52.34 12.75 50.19 12.77 48.04 C 10.63 48.04 8.49 48.04 6.35 48.03 C 6.33 33.08 6.34 18.12 6.34 3.16 Z" />
</g>
</svg>
