<?xml version="1.0" encoding="UTF-8" ?>
<!DOCTYPE svg PUBLIC "-//W3C//DTD SVG 1.1//EN" "http://www.w3.org/Graphics/SVG/1.1/DTD/svg11.dtd">
<svg width="64pt" height="64pt" viewBox="0 0 64 64" version="1.1" xmlns="http://www.w3.org/2000/svg">
<g id="#151e0bff">
<path fill="#151e0b" opacity="1.00" d=" M 6.59 5.58 C 7.70 4.55 8.81 3.51 9.93 2.47 C 12.15 2.89 14.39 3.18 16.64 3.34 C 16.55 3.75 16.38 4.59 16.29 5.00 C 17.93 5.32 19.56 5.64 21.19 5.94 C 18.36 5.54 15.51 5.22 12.69 4.72 C 11.43 5.26 10.16 5.80 8.91 6.35 C 13.61 7.84 18.49 8.67 23.29 9.79 C 19.97 9.37 16.61 8.15 13.25 8.82 C 13.14 9.25 12.92 10.10 12.81 10.53 C 12.75 23.91 12.87 37.30 12.82 50.69 L 12.90 52.10 C 12.20 49.80 12.14 47.38 12.17 44.99 C 12.30 35.65 12.50 26.27 11.56 16.95 C 10.47 23.25 9.32 29.60 9.38 36.02 C 9.28 40.82 10.07 45.78 8.45 50.43 C 7.39 42.33 8.25 34.15 7.81 26.02 C 7.41 19.21 8.18 12.28 6.59 5.58 Z" />
</g>
<g id="#74a828ff">
<path fill="#74a828" opacity="1.00" d=" M 16.64 3.34 C 18.92 3.55 21.21 3.80 23.46 4.24 C 32.42 5.44 41.43 6.49 50.45 7.04 L 50.92 7.07 C 52.03 7.83 54.21 8.20 53.97 9.96 C 53.92 18.68 53.72 27.40 53.57 36.12 C 53.20 30.41 53.20 24.68 53.27 18.96 C 53.26 16.37 53.37 13.64 52.05 11.30 C 51.84 10.99 51.43 10.38 51.22 10.08 C 41.20 8.75 31.20 7.34 21.19 5.94 C 19.56 5.64 17.93 5.32 16.29 5.00 C 16.38 4.59 16.55 3.75 16.64 3.34 Z" />
</g>
<g id="#283e098a">
<path fill="#283e09" opacity="0.54" d=" M 23.46 4.24 C 28.03 3.58 32.52 5.08 37.07 5.21 C 41.51 6.00 46.14 5.62 50.45 7.04 C 41.43 6.49 32.42 5.44 23.46 4.24 Z" />
</g>
<g id="#e0dfe1ff">
<path fill="#e0dfe1" opacity="1.00" d=" M 8.91 6.35 C 10.16 5.80 11.43 5.26 12.69 4.72 C 15.51 5.22 18.36 5.54 21.19 5.94 C 31.20 7.34 41.20 8.75 51.22 10.08 C 50.09 11.78 48.99 13.50 47.97 15.27 C 46.54 14.91 45.11 14.56 43.67 14.23 C 43.38 14.17 42.81 14.04 42.52 13.98 C 36.90 12.76 31.27 11.57 25.66 10.33 C 24.87 10.14 24.08 9.96 23.29 9.79 C 18.49 8.67 13.61 7.84 8.91 6.35 Z" />
</g>
<g id="#000000ff">
<path fill="#000000" opacity="1.00" d=" M 6.37 51.27 C 6.49 36.04 6.16 20.80 6.59 5.58 C 8.18 12.28 7.41 19.21 7.81 26.02 C 8.25 34.15 7.39 42.33 8.45 50.43 C 10.07 45.78 9.28 40.82 9.38 36.02 C 9.32 29.60 10.47 23.25 11.56 16.95 C 12.50 26.27 12.30 35.65 12.17 44.99 C 12.14 47.38 12.20 49.80 12.90 52.10 L 13.16 53.11 C 16.50 53.98 19.85 54.86 23.17 55.80 C 17.47 54.77 11.83 53.21 6.37 51.27 Z" />
</g>
<g id="#59841aff">
<path fill="#59841a" opacity="1.00" d=" M 50.92 7.07 C 51.65 7.16 53.10 7.33 53.82 7.42 C 55.26 7.91 54.52 9.89 54.76 11.00 C 54.68 26.22 54.82 41.44 54.69 56.65 C 53.98 56.73 52.57 56.87 51.86 56.95 C 52.01 41.73 52.02 26.51 52.05 11.30 C 53.37 13.64 53.26 16.37 53.27 18.96 C 53.20 24.68 53.20 30.41 53.57 36.12 C 53.72 27.40 53.92 18.68 53.97 9.96 C 54.21 8.20 52.03 7.83 50.92 7.07 Z" />
<path fill="#59841a" opacity="1.00" d=" M 25.66 10.33 C 31.27 11.57 36.90 12.76 42.52 13.98 C 36.75 13.82 30.93 12.74 25.66 10.33 Z" />
</g>
<g id="#85ba28ff">
<path fill="#85ba28" opacity="1.00" d=" M 13.25 8.82 C 16.61 8.15 19.97 9.37 23.29 9.79 C 24.08 9.96 24.87 10.14 25.66 10.33 C 30.93 12.74 36.75 13.82 42.52 13.98 C 42.81 14.04 43.38 14.17 43.67 14.23 C 44.50 14.71 45.31 15.22 46.10 15.75 C 46.03 27.43 46.21 39.10 46.09 50.78 L 44.72 50.70 C 44.61 44.23 42.50 37.92 43.19 31.41 C 43.23 27.80 43.76 24.04 42.54 20.57 C 41.35 17.37 37.54 16.99 34.67 16.32 C 27.83 15.18 21.14 13.19 14.21 12.63 C 13.86 12.10 13.16 11.05 12.81 10.53 C 12.92 10.10 13.14 9.25 13.25 8.82 Z" />
</g>
<g id="#ababacff">
<path fill="#ababac" opacity="1.00" d=" M 51.22 10.08 C 51.43 10.38 51.84 10.99 52.05 11.30 C 52.02 26.51 52.01 41.73 51.86 56.95 L 51.83 58.09 C 50.67 58.75 49.56 59.49 48.39 60.13 C 47.57 45.20 48.50 30.22 47.97 15.27 C 48.99 13.50 50.09 11.78 51.22 10.08 Z" />
</g>
<g id="#82b13bff">
<path fill="#82b13b" opacity="1.00" d=" M 12.81 10.53 C 13.16 11.05 13.86 12.10 14.21 12.63 C 14.08 17.67 14.11 22.75 15.41 27.66 C 20.37 30.63 26.33 29.75 31.69 31.39 C 31.06 31.77 29.79 32.52 29.15 32.89 C 31.66 33.89 34.37 35.20 37.13 34.46 C 39.19 33.49 40.69 31.31 43.19 31.41 C 42.50 37.92 44.61 44.23 44.72 50.70 C 44.61 52.94 44.51 55.18 44.32 57.41 C 41.22 57.60 38.05 57.67 35.06 56.69 C 27.72 54.42 20.26 52.59 12.82 50.69 C 12.87 37.30 12.75 23.91 12.81 10.53 Z" />
</g>
<g id="#8dbf41ff">
<path fill="#8dbf41" opacity="1.00" d=" M 14.21 12.63 C 21.14 13.19 27.83 15.18 34.67 16.32 C 37.54 16.99 41.35 17.37 42.54 20.57 C 43.76 24.04 43.23 27.80 43.19 31.41 C 40.69 31.31 39.19 33.49 37.13 34.46 C 34.37 35.20 31.66 33.89 29.15 32.89 C 29.79 32.52 31.06 31.77 31.69 31.39 C 26.33 29.75 20.37 30.63 15.41 27.66 C 14.11 22.75 14.08 17.67 14.21 12.63 M 17.95 16.51 C 18.58 19.11 18.52 22.20 20.59 24.16 C 21.66 21.96 22.38 19.62 22.81 17.21 C 22.22 17.99 21.04 19.54 20.45 20.32 C 19.96 18.83 19.84 16.86 17.95 16.51 M 25.79 25.23 C 26.41 24.59 27.02 23.95 27.64 23.31 C 27.86 23.91 28.31 25.11 28.53 25.71 C 30.28 25.87 32.04 26.00 33.80 26.04 C 32.44 25.09 30.98 24.32 29.43 23.73 C 29.37 22.02 29.35 20.31 29.24 18.60 C 28.80 19.09 27.93 20.06 27.50 20.55 C 26.93 19.70 26.37 18.84 25.74 18.03 C 21.37 17.20 21.85 25.05 25.79 25.23 M 35.29 23.28 C 36.07 23.15 37.63 22.91 38.40 22.78 C 37.31 24.10 36.22 25.42 35.07 26.69 C 36.32 27.11 37.57 27.53 38.82 27.98 C 38.25 26.05 39.04 24.13 38.89 22.20 C 37.97 19.95 35.18 21.00 35.29 23.28 M 18.37 25.29 C 17.49 26.64 19.81 28.02 20.80 26.94 C 21.69 25.60 19.35 24.18 18.37 25.29 M 21.52 25.47 C 21.65 26.01 21.91 27.08 22.04 27.62 C 27.78 28.74 33.37 30.57 39.19 31.28 C 39.10 30.82 38.94 29.91 38.85 29.46 C 33.03 28.31 27.25 27.01 21.52 25.47 Z" />
</g>
<g id="#557b23f8">
<path fill="#557b23" opacity="0.97" d=" M 43.67 14.23 C 45.11 14.56 46.54 14.91 47.97 15.27 C 48.50 30.22 47.57 45.20 48.39 60.13 C 48.59 63.74 43.89 61.36 41.88 61.04 L 42.59 61.01 C 43.92 60.96 45.25 60.85 46.58 60.77 L 46.59 60.44 C 46.84 57.97 47.11 55.49 47.05 53.00 C 46.90 40.80 47.27 28.59 46.91 16.39 L 46.10 15.75 C 45.31 15.22 44.50 14.71 43.67 14.23 Z" />
</g>
<g id="#7db83dff">
<path fill="#7db83d" opacity="1.00" d=" M 46.10 15.75 L 46.91 16.39 C 47.27 28.59 46.90 40.80 47.05 53.00 C 47.11 55.49 46.84 57.97 46.59 60.44 C 46.30 57.23 46.04 54.01 46.09 50.78 C 46.21 39.10 46.03 27.43 46.10 15.75 Z" />
</g>
<g id="#66872cff">
<path fill="#66872c" opacity="1.00" d=" M 17.95 16.51 C 19.84 16.86 19.96 18.83 20.45 20.32 C 21.04 19.54 22.22 17.99 22.81 17.21 C 22.38 19.62 21.66 21.96 20.59 24.16 C 18.52 22.20 18.58 19.11 17.95 16.51 Z" />
</g>
<g id="#65862dff">
<path fill="#65862d" opacity="1.00" d=" M 25.79 25.23 C 21.85 25.05 21.37 17.20 25.74 18.03 C 26.37 18.84 26.93 19.70 27.50 20.55 C 27.93 20.06 28.80 19.09 29.24 18.60 C 29.35 20.31 29.37 22.02 29.43 23.73 C 30.98 24.32 32.44 25.09 33.80 26.04 C 32.04 26.00 30.28 25.87 28.53 25.71 C 28.31 25.11 27.86 23.91 27.64 23.31 C 27.02 23.95 26.41 24.59 25.79 25.23 M 24.29 20.02 C 23.23 21.01 24.28 23.97 25.84 22.82 C 26.92 21.83 25.86 18.83 24.29 20.02 Z" />
</g>
<g id="#93c14eff">
<path fill="#93c14e" opacity="1.00" d=" M 24.29 20.02 C 25.86 18.83 26.92 21.83 25.84 22.82 C 24.28 23.97 23.23 21.01 24.29 20.02 Z" />
</g>
<g id="#63842bff">
<path fill="#63842b" opacity="1.00" d=" M 35.29 23.28 C 35.18 21.00 37.97 19.95 38.89 22.20 C 39.04 24.13 38.25 26.05 38.82 27.98 C 37.57 27.53 36.32 27.11 35.07 26.69 C 36.22 25.42 37.31 24.10 38.40 22.78 C 37.63 22.91 36.07 23.15 35.29 23.28 Z" />
</g>
<g id="#698d2dff">
<path fill="#698d2d" opacity="1.00" d=" M 18.37 25.29 C 19.35 24.18 21.69 25.60 20.80 26.94 C 19.81 28.02 17.49 26.64 18.37 25.29 Z" />
</g>
<g id="#69892fff">
<path fill="#69892f" opacity="1.00" d=" M 21.52 25.47 C 27.25 27.01 33.03 28.31 38.85 29.46 C 38.94 29.91 39.10 30.82 39.19 31.28 C 33.37 30.57 27.78 28.74 22.04 27.62 C 21.91 27.08 21.65 26.01 21.52 25.47 Z" />
</g>
<g id="#659812ff">
<path fill="#659812" opacity="1.00" d=" M 12.82 50.69 C 20.26 52.59 27.72 54.42 35.06 56.69 C 38.05 57.67 41.22 57.60 44.32 57.41 C 44.51 55.18 44.61 52.94 44.72 50.70 L 46.09 50.78 C 46.04 54.01 46.30 57.23 46.59 60.44 L 46.58 60.77 C 45.25 60.85 43.92 60.96 42.59 61.01 L 41.63 60.77 C 35.58 58.83 29.46 57.06 23.22 55.82 L 23.17 55.80 C 19.85 54.86 16.50 53.98 13.16 53.11 L 12.90 52.10 L 12.82 50.69 Z" />
</g>
<g id="#263b069b">
<path fill="#263b06" opacity="0.61" d=" M 23.22 55.82 C 29.46 57.06 35.58 58.83 41.63 60.77 C 37.49 60.59 33.63 58.95 29.64 58.04 C 27.47 57.42 25.06 57.25 23.22 55.82 Z" />
</g>
</svg>
