<?xml version="1.0" encoding="UTF-8" ?>
<!DOCTYPE svg PUBLIC "-//W3C//DTD SVG 1.1//EN" "http://www.w3.org/Graphics/SVG/1.1/DTD/svg11.dtd">
<svg width="64pt" height="64pt" viewBox="0 0 64 64" version="1.1" xmlns="http://www.w3.org/2000/svg">
<g id="#978936ff">
<path fill="#978936" opacity="1.00" d=" M 6.73 5.99 C 7.73 4.85 8.76 3.74 9.80 2.64 C 24.67 4.47 39.68 5.35 54.48 7.62 C 55.23 22.56 54.50 37.57 54.84 52.54 C 54.77 53.90 54.78 55.29 54.52 56.64 C 53.86 56.70 52.52 56.83 51.86 56.89 C 52.06 43.26 51.76 29.63 52.00 15.99 C 52.00 14.13 52.07 12.23 51.59 10.41 C 49.07 9.53 46.38 9.42 43.76 9.07 C 39.81 8.55 35.87 7.91 31.91 7.39 C 27.39 6.87 22.90 6.19 18.38 5.65 C 15.91 5.33 13.42 5.14 10.94 5.01 C 9.16 4.85 8.75 5.31 9.71 6.39 C 12.50 7.99 15.73 8.40 18.84 9.01 C 21.80 9.57 24.75 10.21 27.70 10.83 C 33.40 12.13 39.18 13.15 44.84 14.63 C 45.92 14.95 46.99 15.31 48.06 15.66 C 48.03 30.63 47.82 45.61 48.19 60.58 C 47.99 60.92 47.60 61.59 47.41 61.93 L 46.84 61.91 C 46.81 61.54 46.76 60.79 46.73 60.42 C 47.62 52.29 47.16 44.12 47.25 35.97 C 47.14 29.36 47.51 22.74 47.00 16.14 L 45.96 15.78 C 33.33 12.44 20.40 10.40 7.71 7.29 C 7.38 7.11 6.72 6.75 6.39 6.57 L 6.73 5.99 Z" />
</g>
<g id="#5a4422fe">
<path fill="#5a4422" opacity="1.00" d=" M 9.71 6.39 C 8.75 5.31 9.16 4.85 10.94 5.01 C 10.63 5.35 10.01 6.04 9.71 6.39 Z" />
</g>
<g id="#b8b7b0ff">
<path fill="#b8b7b0" opacity="1.00" d=" M 10.94 5.01 C 13.42 5.14 15.91 5.33 18.38 5.65 C 18.03 5.88 17.33 6.35 16.97 6.59 C 17.65 6.78 19.01 7.15 19.68 7.33 C 19.47 7.75 19.05 8.59 18.84 9.01 C 15.73 8.40 12.50 7.99 9.71 6.39 C 10.01 6.04 10.63 5.35 10.94 5.01 Z" />
</g>
<g id="#e3e3e3ff">
<path fill="#e3e3e3" opacity="1.00" d=" M 1.84 10.96 C 2.10 8.31 5.01 7.53 6.73 5.99 L 6.39 6.57 C 6.19 6.96 5.79 7.73 5.59 8.12 C 4.78 9.04 3.92 9.93 3.18 10.91 C 3.65 11.86 4.24 12.74 4.80 13.63 C 5.68 13.66 7.46 13.73 8.34 13.76 L 8.55 14.72 C 7.98 14.72 6.85 14.71 6.28 14.71 C 4.06 15.02 1.63 13.37 1.84 10.96 Z" />
<path fill="#e3e3e3" opacity="1.00" d=" M 27.70 10.83 C 28.96 9.52 30.32 8.30 31.91 7.39 C 35.87 7.91 39.81 8.55 43.76 9.07 C 45.53 9.43 47.29 9.87 49.05 10.29 C 47.64 11.74 46.24 13.18 44.84 14.63 C 39.18 13.15 33.40 12.13 27.70 10.83 Z" />
<path fill="#e3e3e3" opacity="1.00" d=" M 1.90 21.52 C 2.07 19.16 4.47 18.36 6.25 17.45 C 6.24 17.77 6.23 18.39 6.22 18.70 C 5.25 19.61 4.20 20.44 3.27 21.40 C 3.41 22.56 4.25 23.44 4.83 24.40 C 6.43 24.63 8.09 24.60 9.64 25.09 C 9.70 25.29 9.82 25.69 9.88 25.89 C 9.04 25.83 7.38 25.72 6.54 25.66 C 4.25 25.72 1.41 24.16 1.90 21.52 Z" />
</g>
<g id="#cfcfcfff">
<path fill="#cfcfcf" opacity="1.00" d=" M 16.97 6.59 C 17.33 6.35 18.03 5.88 18.38 5.65 C 22.90 6.19 27.39 6.87 31.91 7.39 C 30.32 8.30 28.96 9.52 27.70 10.83 C 24.75 10.21 21.80 9.57 18.84 9.01 C 19.05 8.59 19.47 7.75 19.68 7.33 C 19.01 7.15 17.65 6.78 16.97 6.59 Z" />
<path fill="#cfcfcf" opacity="1.00" d=" M 4.55 28.62 C 6.10 26.48 6.12 29.45 5.63 30.19 C 5.10 30.42 4.05 30.87 3.53 31.09 C 2.15 31.53 2.04 32.16 3.19 32.98 C 4.70 34.30 6.62 34.81 8.53 35.23 L 8.42 36.02 C 6.16 36.80 3.48 35.93 2.15 33.95 C 1.13 31.83 2.51 29.42 4.55 28.62 Z" />
</g>
<g id="#a68503dd">
<path fill="#a68503" opacity="0.87" d=" M 6.39 6.57 C 6.72 6.75 7.38 7.11 7.71 7.29 C 7.79 8.92 7.85 10.56 7.90 12.20 L 7.89 12.90 C 7.39 13.01 6.38 13.22 5.88 13.32 C 5.81 12.02 5.66 9.42 5.59 8.12 C 5.79 7.73 6.19 6.96 6.39 6.57 Z" />
</g>
<g id="#edcc09ff">
<path fill="#edcc09" opacity="1.00" d=" M 7.71 7.29 C 20.40 10.40 33.33 12.44 45.96 15.78 C 46.16 27.84 46.02 39.90 45.99 51.95 C 46.00 54.79 46.37 57.61 46.73 60.42 C 46.76 60.79 46.81 61.54 46.84 61.91 C 43.06 61.29 39.37 60.21 35.73 59.06 C 27.81 54.68 18.50 54.10 10.09 51.00 C 10.41 49.50 10.74 48.01 11.09 46.51 L 11.68 46.03 C 14.10 47.68 16.70 49.12 19.60 49.72 C 26.44 51.26 33.10 53.65 40.11 54.31 C 41.85 46.33 40.96 38.11 41.22 30.02 C 41.14 26.68 41.26 22.04 37.58 20.51 C 31.62 18.07 25.15 17.41 18.93 15.88 C 16.82 15.58 14.10 14.31 12.47 16.34 C 11.71 19.02 11.47 21.81 10.80 24.51 C 10.02 24.32 8.47 23.93 7.69 23.74 C 8.37 20.99 9.56 18.42 10.46 15.75 C 10.49 15.23 10.55 14.17 10.57 13.65 C 9.90 13.46 8.56 13.09 7.89 12.90 L 7.90 12.20 C 7.85 10.56 7.79 8.92 7.71 7.29 Z" />
<path fill="#edcc09" opacity="1.00" d=" M 3.19 32.98 C 2.04 32.16 2.15 31.53 3.53 31.09 C 3.44 31.57 3.27 32.51 3.19 32.98 Z" />
</g>
<g id="#0000001d">
<path fill="#000000" opacity="0.11" d=" M 3.18 10.91 C 3.92 9.93 4.78 9.04 5.59 8.12 C 5.66 9.42 5.81 12.02 5.88 13.32 C 6.38 13.22 7.39 13.01 7.89 12.90 C 8.56 13.09 9.90 13.46 10.57 13.65 C 10.55 14.17 10.49 15.23 10.46 15.75 C 10.20 15.61 9.68 15.32 9.42 15.17 L 10.16 14.78 C 9.71 14.52 8.80 14.02 8.34 13.76 C 7.46 13.73 5.68 13.66 4.80 13.63 C 4.24 12.74 3.65 11.86 3.18 10.91 Z" />
<path fill="#000000" opacity="0.11" d=" M 3.27 21.40 C 4.20 20.44 5.25 19.61 6.22 18.70 C 6.24 19.87 6.29 22.21 6.31 23.38 C 6.65 23.47 7.34 23.65 7.69 23.74 C 8.47 23.93 10.02 24.32 10.80 24.51 C 10.56 25.52 10.33 26.52 10.09 27.53 C 10.04 27.12 9.93 26.30 9.88 25.89 C 9.82 25.69 9.70 25.29 9.64 25.09 C 8.09 24.60 6.43 24.63 4.83 24.40 C 4.25 23.44 3.41 22.56 3.27 21.40 Z" />
<path fill="#000000" opacity="0.11" d=" M 2.85 42.89 C 3.87 42.08 4.92 41.29 6.03 40.60 C 6.03 42.36 5.94 44.13 5.65 45.87 C 4.70 44.89 3.77 43.90 2.85 42.89 Z" />
<path fill="#000000" opacity="0.11" d=" M 4.82 46.87 L 6.19 47.59 C 6.26 48.71 6.30 49.83 6.33 50.95 C 7.46 51.45 8.59 51.96 9.72 52.46 C 14.28 56.15 20.29 56.60 25.71 58.22 C 32.13 59.72 38.42 61.90 44.98 62.70 C 49.08 63.28 53.97 61.19 54.52 56.64 C 54.78 55.29 54.77 53.90 54.84 52.54 C 56.01 53.90 58.14 54.94 58.04 56.99 C 58.02 60.21 54.95 62.03 52.86 64.00 L 37.48 64.00 C 28.71 60.88 19.50 59.29 10.62 56.54 C 8.20 55.57 4.96 54.75 4.07 51.97 C 4.15 50.25 4.52 48.56 4.82 46.87 Z" />
</g>
<g id="#b9b9b9ff">
<path fill="#b9b9b9" opacity="1.00" d=" M 43.76 9.07 C 46.38 9.42 49.07 9.53 51.59 10.41 C 52.07 12.23 52.00 14.13 52.00 15.99 C 51.76 29.63 52.06 43.26 51.86 56.89 L 51.77 57.66 C 50.59 58.66 49.36 59.58 48.19 60.58 C 47.82 45.61 48.03 30.63 48.06 15.66 C 46.99 15.31 45.92 14.95 44.84 14.63 C 46.24 13.18 47.64 11.74 49.05 10.29 C 47.29 9.87 45.53 9.43 43.76 9.07 Z" />
<path fill="#b9b9b9" opacity="1.00" d=" M 5.61 39.17 C 5.96 38.26 6.31 37.35 6.66 36.43 C 6.82 39.19 6.86 41.95 6.91 44.70 C 8.53 44.99 10.26 45.09 11.68 46.03 L 11.09 46.51 C 10.83 46.72 10.31 47.12 10.05 47.32 C 9.45 46.64 8.79 46.01 8.13 45.39 L 6.03 46.43 C 5.55 46.44 4.59 46.47 4.10 46.48 C 0.17 45.10 1.80 39.38 5.61 39.17 M 2.85 42.89 C 3.77 43.90 4.70 44.89 5.65 45.87 C 5.94 44.13 6.03 42.36 6.03 40.60 C 4.92 41.29 3.87 42.08 2.85 42.89 Z" />
</g>
<g id="#e9d458ff">
<path fill="#e9d458" opacity="1.00" d=" M 8.34 13.76 C 8.80 14.02 9.71 14.52 10.16 14.78 L 9.42 15.17 L 8.55 14.72 L 8.34 13.76 Z" />
</g>
<g id="#b69607f5">
<path fill="#b69607" opacity="0.96" d=" M 6.28 14.71 C 6.85 14.71 7.98 14.72 8.55 14.72 L 9.42 15.17 C 9.68 15.32 10.20 15.61 10.46 15.75 C 9.56 18.42 8.37 20.99 7.69 23.74 C 7.34 23.65 6.65 23.47 6.31 23.38 C 6.29 22.21 6.24 19.87 6.22 18.70 C 6.23 18.39 6.24 17.77 6.25 17.45 C 6.26 16.77 6.27 15.39 6.28 14.71 Z" />
</g>
<g id="#eecf1eff">
<path fill="#eecf1e" opacity="1.00" d=" M 12.47 16.34 C 14.10 14.31 16.82 15.58 18.93 15.88 C 25.15 17.41 31.62 18.07 37.58 20.51 C 41.26 22.04 41.14 26.68 41.22 30.02 C 40.96 38.11 41.85 46.33 40.11 54.31 C 33.10 53.65 26.44 51.26 19.60 49.72 C 16.70 49.12 14.10 47.68 11.68 46.03 C 10.26 45.09 8.53 44.99 6.91 44.70 C 6.86 41.95 6.82 39.19 6.66 36.43 C 7.95 36.46 9.24 36.50 10.53 36.55 C 10.49 36.15 10.40 35.34 10.36 34.93 C 9.23 34.74 8.14 34.39 7.11 33.90 C 5.70 31.41 6.89 28.38 6.54 25.66 C 7.38 25.72 9.04 25.83 9.88 25.89 C 9.93 26.30 10.04 27.12 10.09 27.53 C 10.33 26.52 10.56 25.52 10.80 24.51 C 11.47 21.81 11.71 19.02 12.47 16.34 Z" />
</g>
<g id="#e5c932ff">
<path fill="#e5c932" opacity="1.00" d=" M 45.96 15.78 L 47.00 16.14 C 47.51 22.74 47.14 29.36 47.25 35.97 C 47.16 44.12 47.62 52.29 46.73 60.42 C 46.37 57.61 46.00 54.79 45.99 51.95 C 46.02 39.90 46.16 27.84 45.96 15.78 Z" />
</g>
<g id="#eed751ff">
<path fill="#eed751" opacity="1.00" d=" M 8.53 35.23 C 10.52 33.48 10.33 37.70 8.42 36.02 L 8.53 35.23 Z" />
</g>
<g id="#ba9002ff">
<path fill="#ba9002" opacity="1.00" d=" M 4.10 46.48 C 4.59 46.47 5.55 46.44 6.03 46.43 L 8.13 45.39 C 8.79 46.01 9.45 46.64 10.05 47.32 C 10.31 47.12 10.83 46.72 11.09 46.51 C 10.74 48.01 10.41 49.50 10.09 51.00 C 18.50 54.10 27.81 54.68 35.73 59.06 C 26.97 57.22 18.47 54.35 9.72 52.46 C 8.59 51.96 7.46 51.45 6.33 50.95 C 6.30 49.83 6.26 48.71 6.19 47.59 L 4.82 46.87 C 4.64 46.77 4.28 46.58 4.10 46.48 Z" />
</g>
<g id="#0a080359">
<path fill="#0a0803" opacity="0.35" d=" M 9.72 52.46 C 18.47 54.35 26.97 57.22 35.73 59.06 C 39.37 60.21 43.06 61.29 46.84 61.91 L 47.41 61.93 C 47.60 61.59 47.99 60.92 48.19 60.58 C 49.36 59.58 50.59 58.66 51.77 57.66 L 51.86 56.89 C 52.52 56.83 53.86 56.70 54.52 56.64 C 53.97 61.19 49.08 63.28 44.98 62.70 C 38.42 61.90 32.13 59.72 25.71 58.22 C 20.29 56.60 14.28 56.15 9.72 52.46 Z" />
</g>
</svg>
