<?xml version="1.0" encoding="UTF-8" ?>
<!DOCTYPE svg PUBLIC "-//W3C//DTD SVG 1.1//EN" "http://www.w3.org/Graphics/SVG/1.1/DTD/svg11.dtd">
<svg width="64pt" height="64pt" viewBox="0 0 64 64" version="1.1" xmlns="http://www.w3.org/2000/svg">
<g id="#0d172be8">
<path fill="#0d172b" opacity="0.91" d=" M 7.01 6.09 C 8.69 0.68 14.65 2.65 18.99 3.09 L 18.93 3.94 C 17.87 4.13 16.82 4.34 15.78 4.57 C 13.77 4.98 11.56 4.94 9.82 6.18 C 9.09 6.62 8.40 7.11 7.73 7.64 L 7.02 8.14 C 7.02 7.63 7.01 6.60 7.01 6.09 Z" />
</g>
<g id="#266b9bf7">
<path fill="#266b9b" opacity="0.97" d=" M 15.78 4.57 C 16.82 4.34 17.87 4.13 18.93 3.94 C 30.65 4.21 42.27 6.27 53.96 7.13 L 54.00 8.04 C 53.94 16.44 54.21 24.84 53.79 33.23 C 52.30 26.14 53.80 18.75 52.35 11.72 C 52.05 11.33 51.45 10.57 51.15 10.18 L 50.25 10.07 C 39.56 8.68 28.94 6.87 18.22 5.73 C 17.61 5.44 16.39 4.86 15.78 4.57 Z" />
</g>
<g id="#b8bbbcff">
<path fill="#b8bbbc" opacity="1.00" d=" M 9.82 6.18 C 11.56 4.94 13.77 4.98 15.78 4.57 C 16.39 4.86 17.61 5.44 18.22 5.73 C 16.14 5.72 14.06 5.83 16.10 7.97 L 15.24 8.09 C 14.73 8.01 13.73 7.85 13.22 7.77 C 12.09 7.24 10.95 6.73 9.82 6.18 Z" />
</g>
<g id="#0001039d">
<path fill="#000103" opacity="0.62" d=" M 6.02 5.98 L 7.01 6.09 C 7.01 6.60 7.02 7.63 7.02 8.14 C 6.97 22.40 7.00 36.66 7.02 50.92 L 6.04 51.02 C 5.95 36.00 5.98 20.99 6.02 5.98 Z" />
</g>
<g id="#1c2639ff">
<path fill="#1c2639" opacity="1.00" d=" M 7.73 7.64 C 8.40 7.11 9.09 6.62 9.82 6.18 C 10.95 6.73 12.09 7.24 13.22 7.77 C 11.91 8.01 9.24 7.76 9.40 9.73 C 10.59 14.95 9.76 20.21 8.28 25.25 C 8.07 19.38 7.95 13.51 7.73 7.64 Z" />
</g>
<g id="#d6d8d9ff">
<path fill="#d6d8d9" opacity="1.00" d=" M 16.10 7.97 C 14.06 5.83 16.14 5.72 18.22 5.73 C 28.94 6.87 39.56 8.68 50.25 10.07 C 48.68 11.77 47.19 13.77 44.85 14.43 C 40.34 13.43 35.87 12.18 31.25 11.75 C 28.28 10.69 25.19 9.94 22.02 9.88 C 20.13 9.00 18.10 8.50 16.10 7.97 Z" />
</g>
<g id="#020305fd">
<path fill="#020305" opacity="1.00" d=" M 7.02 8.14 L 7.73 7.64 C 7.95 13.51 8.07 19.38 8.28 25.25 C 8.01 33.46 7.71 41.69 8.08 49.90 L 8.99 50.10 C 8.87 39.62 8.40 28.88 11.81 18.79 C 12.72 29.88 10.81 41.31 12.71 52.24 L 12.98 53.04 C 11.15 52.50 7.49 52.91 7.02 50.92 C 7.00 36.66 6.97 22.40 7.02 8.14 Z" />
</g>
<g id="#0c1320ff">
<path fill="#0c1320" opacity="1.00" d=" M 9.40 9.73 C 9.24 7.76 11.91 8.01 13.22 7.77 C 13.73 7.85 14.73 8.01 15.24 8.09 C 14.68 8.33 13.58 8.82 13.03 9.07 C 10.58 10.95 12.66 15.83 11.81 18.79 C 8.40 28.88 8.87 39.62 8.99 50.10 L 8.08 49.90 C 7.71 41.69 8.01 33.46 8.28 25.25 C 9.76 20.21 10.59 14.95 9.40 9.73 Z" />
</g>
<g id="#2981beff">
<path fill="#2981be" opacity="1.00" d=" M 15.24 8.09 L 16.10 7.97 C 18.10 8.50 20.13 9.00 22.02 9.88 C 24.71 11.74 28.07 12.17 31.25 11.75 C 35.87 12.18 40.34 13.43 44.85 14.43 C 45.20 14.55 45.90 14.79 46.25 14.91 C 47.79 29.28 46.82 43.81 46.83 58.24 C 45.56 51.90 46.24 45.43 45.95 39.03 L 45.06 39.04 C 44.27 44.66 44.22 50.46 42.48 55.91 C 41.34 56.03 40.20 56.02 39.05 55.89 C 43.62 48.82 39.82 39.99 42.20 32.30 C 43.17 27.64 44.35 22.02 40.63 18.29 C 31.63 15.39 22.08 14.67 12.98 12.06 C 12.99 11.31 13.02 9.82 13.03 9.07 C 13.58 8.82 14.68 8.33 15.24 8.09 Z" />
</g>
<g id="#063658c7">
<path fill="#063658" opacity="0.78" d=" M 54.00 8.04 L 54.97 7.99 C 54.97 24.33 55.12 40.67 54.94 57.00 L 54.00 56.97 C 53.94 56.53 53.83 55.66 53.77 55.22 C 54.00 47.89 54.11 40.55 53.79 33.23 C 54.21 24.84 53.94 16.44 54.00 8.04 Z" />
</g>
<g id="#172336ff">
<path fill="#172336" opacity="1.00" d=" M 11.81 18.79 C 12.66 15.83 10.58 10.95 13.03 9.07 C 13.02 9.82 12.99 11.31 12.98 12.06 C 12.98 20.97 12.89 29.88 13.22 38.79 C 13.08 43.27 12.94 47.76 12.71 52.24 C 10.81 41.31 12.72 29.88 11.81 18.79 Z" />
</g>
<g id="#3d73a6ff">
<path fill="#3d73a6" opacity="1.00" d=" M 22.02 9.88 C 25.19 9.94 28.28 10.69 31.25 11.75 C 28.07 12.17 24.71 11.74 22.02 9.88 Z" />
</g>
<g id="#c3c5c7ff">
<path fill="#c3c5c7" opacity="1.00" d=" M 50.25 10.07 L 51.15 10.18 C 51.28 12.41 49.78 13.90 48.15 15.16 C 47.68 15.10 46.73 14.97 46.25 14.91 C 45.90 14.79 45.20 14.55 44.85 14.43 C 47.19 13.77 48.68 11.77 50.25 10.07 Z" />
</g>
<g id="#aaaaabff">
<path fill="#aaaaab" opacity="1.00" d=" M 51.15 10.18 C 51.45 10.57 52.05 11.33 52.35 11.72 C 52.10 20.38 51.53 29.09 52.27 37.74 C 52.05 43.47 51.98 49.20 52.00 54.94 C 49.91 56.28 46.01 60.70 48.98 52.04 C 48.60 39.99 49.87 27.81 48.32 15.85 L 48.15 15.16 C 49.78 13.90 51.28 12.41 51.15 10.18 Z" />
</g>
<g id="#3684bcff">
<path fill="#3684bc" opacity="1.00" d=" M 12.98 12.06 C 22.08 14.67 31.63 15.39 40.63 18.29 C 44.35 22.02 43.17 27.64 42.20 32.30 C 39.82 39.99 43.62 48.82 39.05 55.89 C 30.93 53.70 22.40 51.92 14.84 48.28 C 14.22 45.43 15.08 41.66 13.22 38.79 C 12.89 29.88 12.98 20.97 12.98 12.06 M 18.00 17.01 C 18.96 19.21 18.21 22.95 20.78 23.93 C 21.46 22.23 22.07 20.51 22.73 18.80 C 23.70 17.00 20.22 18.27 20.72 19.71 C 19.08 20.51 21.10 15.42 18.00 17.01 M 22.73 18.80 C 23.14 20.82 22.32 23.47 24.20 24.88 C 25.65 25.22 27.26 25.14 27.26 23.27 C 29.75 22.32 25.18 32.76 33.18 25.98 C 31.49 23.40 25.62 24.75 28.94 18.89 C 28.64 19.43 28.02 20.51 27.71 21.05 C 26.72 18.86 25.15 17.06 22.73 18.80 M 38.47 22.44 C 37.57 23.69 36.68 25.05 35.03 25.33 C 36.69 29.55 41.76 27.27 38.97 21.82 L 38.47 22.44 M 22.02 25.96 C 20.98 29.36 25.42 27.61 27.32 28.09 C 26.24 26.41 23.91 25.91 22.02 25.96 M 27.32 28.09 L 27.03 28.80 C 30.79 30.43 34.96 30.79 39.00 31.02 C 38.99 30.54 38.97 29.59 38.96 29.11 C 35.33 30.53 30.38 26.10 27.32 28.09 Z" />
</g>
<g id="#1b5884ff">
<path fill="#1b5884" opacity="1.00" d=" M 52.35 11.72 C 53.80 18.75 52.30 26.14 53.79 33.23 C 54.11 40.55 54.00 47.89 53.77 55.22 C 52.38 49.48 53.90 43.39 52.27 37.74 C 51.53 29.09 52.10 20.38 52.35 11.72 Z" />
</g>
<g id="#1a5584ff">
<path fill="#1a5584" opacity="1.00" d=" M 46.25 14.91 C 46.73 14.97 47.68 15.10 48.15 15.16 L 48.32 15.85 C 47.74 30.62 48.03 45.40 48.06 60.17 C 48.03 60.64 47.98 61.56 47.96 62.02 C 47.50 62.03 46.58 62.07 46.12 62.08 C 46.53 60.84 46.88 59.56 46.83 58.24 C 46.82 43.81 47.79 29.28 46.25 14.91 Z" />
</g>
<g id="#9ea1a3fe">
<path fill="#9ea1a3" opacity="1.00" d=" M 48.32 15.85 C 49.87 27.81 48.60 39.99 48.98 52.04 C 46.01 60.70 49.91 56.28 52.00 54.94 C 52.06 55.49 52.18 56.61 52.24 57.17 C 50.95 58.31 49.51 59.25 48.06 60.17 C 48.03 45.40 47.74 30.62 48.32 15.85 Z" />
</g>
<g id="#2a628dff">
<path fill="#2a628d" opacity="1.00" d=" M 18.00 17.01 C 21.10 15.42 19.08 20.51 20.72 19.71 C 20.22 18.27 23.70 17.00 22.73 18.80 C 22.07 20.51 21.46 22.23 20.78 23.93 C 18.21 22.95 18.96 19.21 18.00 17.01 Z" />
</g>
<g id="#2f6995ff">
<path fill="#2f6995" opacity="1.00" d=" M 22.73 18.80 C 25.15 17.06 26.72 18.86 27.71 21.05 C 28.02 20.51 28.64 19.43 28.94 18.89 C 25.62 24.75 31.49 23.40 33.18 25.98 C 25.18 32.76 29.75 22.32 27.26 23.27 C 27.26 25.14 25.65 25.22 24.20 24.88 C 22.32 23.47 23.14 20.82 22.73 18.80 Z" />
</g>
<g id="#2a648fff">
<path fill="#2a648f" opacity="1.00" d=" M 38.47 22.44 L 38.97 21.82 C 41.76 27.27 36.69 29.55 35.03 25.33 C 36.68 25.05 37.57 23.69 38.47 22.44 Z" />
</g>
<g id="#2a608bff">
<path fill="#2a608b" opacity="1.00" d=" M 22.02 25.96 C 23.91 25.91 26.24 26.41 27.32 28.09 C 25.42 27.61 20.98 29.36 22.02 25.96 Z" />
</g>
<g id="#2c638dff">
<path fill="#2c638d" opacity="1.00" d=" M 27.32 28.09 C 30.38 26.10 35.33 30.53 38.96 29.11 C 38.97 29.59 38.99 30.54 39.00 31.02 C 34.96 30.79 30.79 30.43 27.03 28.80 L 27.32 28.09 Z" />
</g>
<g id="#14496ffd">
<path fill="#14496f" opacity="1.00" d=" M 52.27 37.74 C 53.90 43.39 52.38 49.48 53.77 55.22 C 53.83 55.66 53.94 56.53 54.00 56.97 C 53.56 57.02 52.68 57.12 52.24 57.17 C 52.18 56.61 52.06 55.49 52.00 54.94 C 51.98 49.20 52.05 43.47 52.27 37.74 Z" />
</g>
<g id="#15689ff8">
<path fill="#15689f" opacity="0.97" d=" M 13.22 38.79 C 15.08 41.66 14.22 45.43 14.84 48.28 C 22.40 51.92 30.93 53.70 39.05 55.89 C 40.20 56.02 41.34 56.03 42.48 55.91 C 44.22 50.46 44.27 44.66 45.06 39.04 L 45.95 39.03 C 46.24 45.43 45.56 51.90 46.83 58.24 C 46.88 59.56 46.53 60.84 46.12 62.08 C 34.97 59.50 23.85 56.48 12.98 53.04 L 12.71 52.24 C 12.94 47.76 13.08 43.27 13.22 38.79 Z" />
</g>
<g id="#0205087b">
<path fill="#020508" opacity="0.48" d=" M 52.24 57.17 C 52.68 57.12 53.56 57.02 54.00 56.97 C 53.98 59.96 50.01 60.51 47.96 62.02 C 47.98 61.56 48.03 60.64 48.06 60.17 C 49.51 59.25 50.95 58.31 52.24 57.17 Z" />
</g>
</svg>
