<?xml version="1.0" encoding="UTF-8" ?>
<!DOCTYPE svg PUBLIC "-//W3C//DTD SVG 1.1//EN" "http://www.w3.org/Graphics/SVG/1.1/DTD/svg11.dtd">
<svg width="64pt" height="64pt" viewBox="0 0 64 64" version="1.1" xmlns="http://www.w3.org/2000/svg">
<g id="#929eb4ff">
<path fill="#929eb4" opacity="1.00" d=" M 3.00 1.33 C 22.14 20.45 41.19 39.68 60.42 58.70 C 58.25 58.71 56.08 58.77 53.95 59.18 C 52.40 58.47 50.64 58.78 49.00 58.72 C 33.69 58.77 18.38 58.71 3.06 58.74 C 3.01 39.61 2.99 20.47 3.00 1.33 M 13.30 26.04 C 12.50 27.58 12.79 29.37 12.73 31.03 C 12.84 36.94 12.54 42.85 12.86 48.76 C 20.42 48.42 28.17 49.45 35.62 48.23 C 28.20 40.82 20.84 33.33 13.30 26.04 Z" />
</g>
</svg>
