<?xml version="1.0" encoding="UTF-8" ?>
<!DOCTYPE svg PUBLIC "-//W3C//DTD SVG 1.1//EN" "http://www.w3.org/Graphics/SVG/1.1/DTD/svg11.dtd">
<svg width="64pt" height="64pt" viewBox="0 0 64 64" version="1.1" xmlns="http://www.w3.org/2000/svg">
<g id="#e44836ff">
<path fill="#e44836" opacity="1.00" d=" M 10.82 11.60 C 11.97 8.56 14.16 6.12 15.97 3.47 C 17.30 6.09 18.83 8.64 19.68 11.46 C 19.53 14.93 20.15 18.37 21.60 21.53 C 23.17 21.46 24.73 21.41 26.29 21.38 C 27.51 18.53 28.36 15.48 27.82 12.37 C 28.99 9.60 30.16 6.83 31.63 4.21 C 31.81 4.22 32.18 4.23 32.37 4.24 C 33.66 6.54 34.92 8.92 35.67 11.46 C 35.56 14.93 36.18 18.37 37.62 21.54 C 39.15 21.47 40.69 21.43 42.23 21.41 C 43.53 18.45 44.49 15.28 43.97 12.01 C 45.20 9.11 46.54 6.26 48.01 3.47 C 49.90 6.15 52.08 8.69 53.31 11.77 C 53.40 18.49 56.28 24.69 56.76 31.34 C 55.18 32.69 53.58 34.02 52.01 35.38 C 51.99 33.28 52.03 31.18 51.98 29.08 C 38.66 28.94 25.34 28.95 12.02 29.08 C 11.97 31.00 11.99 32.91 11.98 34.83 C 10.75 33.98 9.50 33.18 8.27 32.33 C 7.59 25.27 10.00 18.53 10.82 11.60 Z" />
</g>
<g id="#af2615ff">
<path fill="#af2615" opacity="1.00" d=" M 3.31 33.95 C 3.62 26.00 6.63 18.29 10.82 11.60 C 10.00 18.53 7.59 25.27 8.27 32.33 C 9.50 33.18 10.75 33.98 11.98 34.83 C 12.03 39.14 12.22 43.44 12.27 47.75 C 25.42 47.77 38.58 47.77 51.73 47.76 C 51.78 43.63 51.94 39.51 52.01 35.38 C 53.58 34.02 55.18 32.69 56.76 31.34 C 56.28 24.69 53.40 18.49 53.31 11.77 C 57.40 18.45 60.40 26.07 60.69 33.96 C 61.01 42.95 55.68 51.47 48.15 56.12 C 39.15 61.81 27.13 62.20 17.73 57.21 C 9.23 52.82 2.96 43.71 3.31 33.95 Z" />
<path fill="#af2615" opacity="1.00" d=" M 21.60 21.53 C 20.15 18.37 19.53 14.93 19.68 11.46 C 21.18 14.21 22.59 17.02 23.99 19.83 C 25.28 17.35 26.51 14.84 27.82 12.37 C 28.36 15.48 27.51 18.53 26.29 21.38 C 24.73 21.41 23.17 21.46 21.60 21.53 Z" />
<path fill="#af2615" opacity="1.00" d=" M 37.62 21.54 C 36.18 18.37 35.56 14.93 35.67 11.46 C 37.19 14.21 38.59 17.02 39.99 19.83 C 41.34 17.24 42.63 14.61 43.97 12.01 C 44.49 15.28 43.53 18.45 42.23 21.41 C 40.69 21.43 39.15 21.47 37.62 21.54 Z" />
</g>
<g id="#cdcdcdff">
<path fill="#cdcdcd" opacity="1.00" d=" M 12.02 29.08 C 25.34 28.95 38.66 28.94 51.98 29.08 C 52.03 31.18 51.99 33.28 52.01 35.38 C 51.94 39.51 51.78 43.63 51.73 47.76 C 38.58 47.77 25.42 47.77 12.27 47.75 C 12.22 43.44 12.03 39.14 11.98 34.83 C 11.99 32.91 11.97 31.00 12.02 29.08 Z" />
</g>
</svg>
