<?xml version="1.0" encoding="UTF-8" ?>
<!DOCTYPE svg PUBLIC "-//W3C//DTD SVG 1.1//EN" "http://www.w3.org/Graphics/SVG/1.1/DTD/svg11.dtd">
<svg width="64pt" height="64pt" viewBox="0 0 64 64" version="1.1" xmlns="http://www.w3.org/2000/svg">
<g id="#c4c0c9ff">
<path fill="#c4c0c9" opacity="1.00" d=" M 22.12 7.82 C 25.70 7.10 31.35 7.56 31.62 12.25 C 31.28 15.37 31.30 18.52 31.15 21.66 C 30.01 21.33 28.89 20.94 27.81 20.48 C 27.61 19.81 27.21 18.47 27.02 17.80 L 28.38 17.92 C 28.28 15.03 24.76 16.14 22.81 15.87 C 24.07 15.25 25.26 14.50 26.42 13.72 C 27.76 13.90 29.08 14.13 30.40 14.41 C 30.01 13.82 29.22 12.64 28.83 12.05 C 27.67 11.03 26.39 9.85 26.50 8.15 C 25.04 8.04 23.58 7.90 22.12 7.82 Z" />
</g>
<g id="#d3d1d9ff">
<path fill="#d3d1d9" opacity="1.00" d=" M 17.07 8.77 C 18.73 8.37 20.42 8.06 22.12 7.82 C 23.58 7.90 25.04 8.04 26.50 8.15 C 26.39 9.85 27.67 11.03 28.83 12.05 C 25.85 12.35 22.87 11.77 19.90 12.22 C 20.36 11.78 21.28 10.92 21.74 10.49 C 20.91 8.87 19.06 8.94 17.46 8.80 L 17.07 8.77 Z" />
</g>
<g id="#f1eff5ff">
<path fill="#f1eff5" opacity="1.00" d=" M 34.04 9.02 C 36.59 6.77 40.34 7.85 43.39 8.09 C 41.65 8.40 39.96 8.91 38.25 9.33 C 38.87 10.04 39.45 10.79 40.00 11.57 C 37.59 11.81 35.16 12.27 33.06 13.52 C 33.44 13.55 34.20 13.61 34.58 13.64 C 36.37 13.85 38.15 14.05 39.95 14.19 C 39.06 14.74 38.17 15.30 37.25 15.79 C 36.12 16.46 33.74 16.31 33.40 17.74 C 33.98 17.80 35.15 17.92 35.73 17.97 C 37.49 17.93 39.25 18.06 41.00 18.23 C 38.73 19.12 36.37 19.72 34.08 20.55 C 33.88 20.85 33.49 21.45 33.29 21.75 C 33.99 21.76 35.40 21.78 36.10 21.79 C 37.34 21.99 38.58 22.17 39.82 22.34 C 39.16 22.99 38.50 23.66 37.85 24.33 C 36.26 24.56 33.67 24.46 33.28 26.49 C 35.46 25.82 37.73 25.24 40.03 25.49 C 39.79 26.17 39.31 27.55 39.07 28.23 C 37.35 28.36 35.68 28.74 34.01 29.13 C 34.14 29.52 34.39 30.28 34.52 30.66 C 35.71 29.69 37.27 29.53 38.75 29.59 C 38.66 30.19 38.48 31.38 38.39 31.97 C 36.89 32.16 35.48 32.83 33.96 32.94 C 33.77 33.41 33.39 34.37 33.20 34.85 C 35.26 34.17 37.47 33.16 39.66 33.94 C 39.46 34.57 39.06 35.84 38.86 36.48 C 37.07 37.00 34.36 35.84 33.32 37.90 C 35.48 37.84 37.62 37.48 39.78 37.38 C 39.58 38.13 39.18 39.62 38.97 40.36 C 37.09 40.73 33.68 40.16 33.18 42.62 C 35.38 41.91 37.63 41.32 39.97 41.49 C 39.17 42.78 38.44 44.13 37.38 45.23 C 36.30 45.65 34.64 45.35 34.30 46.71 C 33.62 47.05 32.26 47.73 31.58 48.06 C 31.90 35.97 31.38 23.88 31.74 11.79 C 32.96 11.29 32.97 9.71 34.04 9.02 Z" />
</g>
<g id="#e0dce4ff">
<path fill="#e0dce4" opacity="1.00" d=" M 43.39 8.09 C 47.93 8.86 52.48 9.86 57.11 9.75 L 57.33 10.65 C 57.41 22.89 57.31 35.12 57.37 47.36 C 54.02 47.29 50.68 47.02 47.33 46.90 C 42.97 46.44 38.62 45.90 34.30 46.71 C 34.64 45.35 36.30 45.65 37.38 45.23 C 38.44 44.13 39.17 42.78 39.97 41.49 C 43.22 41.07 46.45 41.86 49.68 42.05 C 49.43 40.32 47.39 40.69 46.17 40.46 C 43.77 40.25 41.37 40.20 38.97 40.36 C 39.18 39.62 39.58 38.13 39.78 37.38 C 42.90 37.51 46.26 37.03 49.11 38.54 C 48.98 38.07 48.73 37.13 48.60 36.66 C 45.35 36.84 42.11 36.16 38.86 36.48 C 39.06 35.84 39.46 34.57 39.66 33.94 L 40.00 33.27 C 39.76 32.51 39.22 32.08 38.39 31.97 C 38.48 31.38 38.66 30.19 38.75 29.59 C 38.83 29.25 38.99 28.57 39.07 28.23 C 39.31 27.55 39.79 26.17 40.03 25.49 C 41.29 25.31 44.58 26.48 44.18 24.17 C 42.13 23.49 39.95 24.27 37.85 24.33 C 38.50 23.66 39.16 22.99 39.82 22.34 C 38.58 22.17 37.34 21.99 36.10 21.79 C 35.60 21.48 34.59 20.86 34.08 20.55 C 36.37 19.72 38.73 19.12 41.00 18.23 C 39.25 18.06 37.49 17.93 35.73 17.97 C 36.55 17.68 39.24 16.62 37.25 15.79 C 38.17 15.30 39.06 14.74 39.95 14.19 C 38.15 14.05 36.37 13.85 34.58 13.64 C 36.47 11.92 39.10 12.96 41.36 13.02 C 44.83 13.50 48.64 12.74 51.80 14.64 C 51.81 14.27 51.85 13.55 51.87 13.19 C 49.03 12.16 45.86 12.83 43.12 11.52 C 42.71 13.76 40.99 12.73 40.00 11.57 C 39.45 10.79 38.87 10.04 38.25 9.33 C 39.96 8.91 41.65 8.40 43.39 8.09 M 38.80 16.92 C 43.00 16.30 46.92 18.83 51.18 17.56 C 52.52 18.24 54.05 19.40 54.62 17.17 C 51.06 16.66 47.48 16.27 43.91 15.93 C 42.12 16.82 39.68 14.47 38.80 16.92 M 38.10 20.38 C 38.93 21.72 42.32 21.28 43.86 20.88 C 42.89 19.52 39.69 19.82 38.10 20.38 M 44.58 19.87 C 43.82 23.07 47.39 21.80 49.25 22.05 C 49.34 19.40 46.24 20.41 44.58 19.87 M 50.07 20.12 C 49.38 22.79 53.06 22.52 54.78 22.88 C 55.58 20.13 51.70 20.95 50.07 20.12 M 44.82 23.80 C 44.18 27.01 49.03 25.47 50.92 26.40 C 50.72 26.00 50.32 25.18 50.13 24.77 C 48.33 24.59 46.56 24.25 44.82 23.80 M 51.87 25.08 C 50.93 26.80 53.79 27.15 54.82 26.58 C 56.29 25.00 52.81 23.71 51.87 25.08 M 40.07 28.35 C 40.16 28.64 40.36 29.23 40.46 29.52 C 44.04 28.94 47.56 30.07 51.13 29.70 C 47.99 27.81 43.68 28.57 40.07 28.35 M 40.60 31.93 C 40.68 32.46 40.83 33.51 40.91 34.04 C 43.64 32.99 46.40 34.54 49.20 34.40 C 48.92 30.17 43.30 33.01 40.60 31.93 M 49.58 32.64 C 49.93 35.60 53.74 33.98 55.73 34.37 C 54.79 32.06 51.49 33.33 49.58 32.64 M 49.40 36.79 C 49.99 39.52 53.47 37.60 55.18 39.11 C 56.35 35.92 51.14 37.16 49.40 36.79 Z" />
</g>
<g id="#e9e6eeff">
<path fill="#e9e6ee" opacity="1.00" d=" M 6.91 9.75 C 10.47 10.02 13.93 8.93 17.46 8.80 C 19.06 8.94 20.91 8.87 21.74 10.49 C 21.28 10.92 20.36 11.78 19.90 12.22 C 16.28 12.87 12.59 13.14 8.91 13.21 C 9.05 13.56 9.33 14.25 9.47 14.60 C 15.07 14.04 20.76 12.70 26.42 13.72 C 25.26 14.50 24.07 15.25 22.81 15.87 C 22.32 15.98 21.35 16.21 20.87 16.33 C 21.34 18.87 25.12 17.15 27.02 17.80 C 27.21 18.47 27.61 19.81 27.81 20.48 C 26.14 20.24 24.44 20.22 22.76 20.30 C 22.98 22.43 25.49 21.40 26.90 21.71 C 26.83 22.35 26.69 23.62 26.63 24.25 C 20.62 23.66 14.79 26.38 8.81 25.16 C 10.05 27.46 12.99 26.44 15.06 26.39 C 18.10 26.30 21.10 25.36 24.15 25.94 C 24.18 26.47 24.24 27.54 24.28 28.07 C 19.22 28.33 14.18 30.39 9.12 29.15 C 9.13 29.57 9.15 30.39 9.16 30.80 C 12.79 30.52 16.50 30.78 20.06 29.82 C 22.49 29.13 24.95 29.94 27.34 30.42 C 27.53 30.89 27.91 31.84 28.10 32.31 C 21.60 31.64 15.28 34.71 8.84 33.22 C 9.54 34.26 10.79 34.71 12.02 34.56 C 16.50 34.49 20.83 33.12 25.33 33.42 C 25.32 34.02 25.30 35.21 25.29 35.81 C 22.53 36.97 17.78 34.68 16.57 38.19 C 19.70 37.98 22.88 37.25 25.98 37.97 C 26.73 38.67 27.46 39.38 28.19 40.10 C 21.81 39.49 15.72 42.19 9.40 41.31 L 8.97 42.14 C 10.94 42.83 13.02 42.97 15.07 42.49 C 19.06 41.49 23.27 41.28 27.33 42.01 C 26.81 42.31 25.79 42.91 25.28 43.21 C 25.45 44.14 25.59 45.07 25.72 46.01 C 25.36 46.06 24.64 46.16 24.28 46.20 C 18.40 46.48 12.56 47.42 6.66 47.28 C 6.74 35.04 6.60 22.79 6.73 10.55 L 6.91 9.75 M 15.93 15.97 C 15.40 18.74 18.52 17.83 20.20 18.11 C 21.93 15.36 17.32 16.27 15.93 15.97 M 8.90 18.96 C 10.88 18.43 15.39 20.24 15.06 17.00 C 13.02 17.46 8.71 15.65 8.90 18.96 M 13.81 21.03 L 13.85 22.38 C 16.67 22.28 19.49 22.18 22.30 22.03 C 22.27 21.54 22.20 20.56 22.17 20.07 C 19.33 19.93 16.67 21.33 13.81 21.03 M 9.23 21.15 C 8.69 22.98 12.82 23.89 13.27 22.07 C 12.77 20.59 10.40 20.47 9.23 21.15 M 8.99 37.03 C 9.00 37.53 9.00 38.53 9.00 39.03 C 11.29 38.48 16.09 40.49 16.28 36.96 C 13.86 37.22 11.42 37.25 8.99 37.03 Z" />
</g>
<g id="#30a1d3f2">
<path fill="#30a1d3" opacity="0.95" d=" M 1.87 11.74 C 3.13 11.00 4.60 11.14 6.00 11.21 C 5.69 11.69 5.06 12.64 4.74 13.12 C 4.28 16.18 4.35 19.28 4.21 22.37 C 2.36 19.40 3.35 15.73 2.04 12.57 L 1.87 11.74 Z" />
<path fill="#30a1d3" opacity="0.95" d=" M 58.03 11.21 C 59.42 11.14 60.89 10.98 62.12 11.77 L 61.96 12.62 C 60.94 15.63 60.91 18.83 60.87 21.98 C 60.63 21.98 60.15 22.00 59.91 22.01 C 59.47 19.10 60.08 16.10 59.40 13.24 C 59.05 12.73 58.37 11.72 58.03 11.21 Z" />
</g>
<g id="#82797fff">
<path fill="#82797f" opacity="1.00" d=" M 6.00 11.21 L 6.73 10.55 C 6.60 22.79 6.74 35.04 6.66 47.28 C 12.56 47.42 18.40 46.48 24.28 46.20 C 22.26 46.82 20.20 47.29 18.11 47.51 C 21.44 47.74 23.82 50.35 27.07 51.05 L 27.01 51.84 L 26.17 52.09 C 25.75 50.17 23.43 51.07 22.09 50.63 C 16.31 49.99 10.56 51.81 4.75 51.22 C 4.72 38.52 4.37 25.81 4.74 13.12 C 5.06 12.64 5.69 11.69 6.00 11.21 Z" />
</g>
<g id="#5b575fff">
<path fill="#5b575f" opacity="1.00" d=" M 33.06 13.52 C 35.16 12.27 37.59 11.81 40.00 11.57 C 40.99 12.73 42.71 13.76 43.12 11.52 C 45.86 12.83 49.03 12.16 51.87 13.19 C 51.85 13.55 51.81 14.27 51.80 14.64 C 48.64 12.74 44.83 13.50 41.36 13.02 C 39.10 12.96 36.47 11.92 34.58 13.64 C 34.20 13.61 33.44 13.55 33.06 13.52 Z" />
<path fill="#5b575f" opacity="1.00" d=" M 31.62 12.25 L 31.74 11.79 C 31.38 23.88 31.90 35.97 31.58 48.06 C 32.26 47.73 33.62 47.05 34.30 46.71 C 38.62 45.90 42.97 46.44 47.33 46.90 C 45.27 47.33 43.23 47.88 41.13 48.10 C 41.33 48.62 41.74 49.66 41.94 50.17 C 40.28 50.30 38.64 50.61 36.98 50.73 C 33.74 49.73 30.12 49.18 27.07 51.05 C 23.82 50.35 21.44 47.74 18.11 47.51 C 20.20 47.29 22.26 46.82 24.28 46.20 C 24.64 46.16 25.36 46.06 25.72 46.01 C 27.56 46.15 29.40 46.37 31.23 46.69 C 31.32 38.65 31.48 30.61 31.12 22.58 C 29.75 22.15 28.35 21.78 26.90 21.71 C 25.49 21.40 22.98 22.43 22.76 20.30 C 24.44 20.22 26.14 20.24 27.81 20.48 C 28.89 20.94 30.01 21.33 31.15 21.66 C 31.30 18.52 31.28 15.37 31.62 12.25 Z" />
<path fill="#5b575f" opacity="1.00" d=" M 34.01 29.13 C 35.68 28.74 37.35 28.36 39.07 28.23 C 38.99 28.57 38.83 29.25 38.75 29.59 C 37.27 29.53 35.71 29.69 34.52 30.66 C 34.39 30.28 34.14 29.52 34.01 29.13 Z" />
<path fill="#5b575f" opacity="1.00" d=" M 40.07 28.35 C 43.68 28.57 47.99 27.81 51.13 29.70 C 47.56 30.07 44.04 28.94 40.46 29.52 C 40.36 29.23 40.16 28.64 40.07 28.35 Z" />
<path fill="#5b575f" opacity="1.00" d=" M 8.84 33.22 C 15.28 34.71 21.60 31.64 28.10 32.31 C 28.41 32.74 29.03 33.62 29.34 34.06 C 28.01 33.79 26.67 33.57 25.33 33.42 C 20.83 33.12 16.50 34.49 12.02 34.56 C 10.79 34.71 9.54 34.26 8.84 33.22 Z" />
<path fill="#5b575f" opacity="1.00" d=" M 33.32 37.90 C 34.36 35.84 37.07 37.00 38.86 36.48 C 42.11 36.16 45.35 36.84 48.60 36.66 C 48.73 37.13 48.98 38.07 49.11 38.54 C 46.26 37.03 42.90 37.51 39.78 37.38 C 37.62 37.48 35.48 37.84 33.32 37.90 Z" />
</g>
<g id="#7f777eff">
<path fill="#7f777e" opacity="1.00" d=" M 57.33 10.65 L 58.03 11.21 C 58.37 11.72 59.05 12.73 59.40 13.24 C 59.15 25.85 59.23 38.47 59.32 51.09 C 53.49 51.62 47.67 51.20 41.94 50.17 C 41.74 49.66 41.33 48.62 41.13 48.10 C 43.23 47.88 45.27 47.33 47.33 46.90 C 50.68 47.02 54.02 47.29 57.37 47.36 C 57.31 35.12 57.41 22.89 57.33 10.65 Z" />
<path fill="#7f777e" opacity="1.00" d=" M 8.91 13.21 C 12.59 13.14 16.28 12.87 19.90 12.22 C 22.87 11.77 25.85 12.35 28.83 12.05 C 29.22 12.64 30.01 13.82 30.40 14.41 C 29.08 14.13 27.76 13.90 26.42 13.72 C 20.76 12.70 15.07 14.04 9.47 14.60 C 9.33 14.25 9.05 13.56 8.91 13.21 Z" />
<path fill="#7f777e" opacity="1.00" d=" M 20.87 16.33 C 21.35 16.21 22.32 15.98 22.81 15.87 C 24.76 16.14 28.28 15.03 28.38 17.92 L 27.02 17.80 C 25.12 17.15 21.34 18.87 20.87 16.33 Z" />
<path fill="#7f777e" opacity="1.00" d=" M 38.80 16.92 C 39.68 14.47 42.12 16.82 43.91 15.93 C 47.48 16.27 51.06 16.66 54.62 17.17 C 54.05 19.40 52.52 18.24 51.18 17.56 C 46.92 18.83 43.00 16.30 38.80 16.92 Z" />
<path fill="#7f777e" opacity="1.00" d=" M 8.81 25.16 C 14.79 26.38 20.62 23.66 26.63 24.25 C 27.73 24.32 29.15 24.37 29.38 25.77 C 27.64 25.81 25.89 25.87 24.15 25.94 C 21.10 25.36 18.10 26.30 15.06 26.39 C 12.99 26.44 10.05 27.46 8.81 25.16 Z" />
<path fill="#7f777e" opacity="1.00" d=" M 33.28 26.49 C 33.67 24.46 36.26 24.56 37.85 24.33 C 39.95 24.27 42.13 23.49 44.18 24.17 C 44.58 26.48 41.29 25.31 40.03 25.49 C 37.73 25.24 35.46 25.82 33.28 26.49 Z" />
<path fill="#7f777e" opacity="1.00" d=" M 44.82 23.80 C 46.56 24.25 48.33 24.59 50.13 24.77 C 50.32 25.18 50.72 26.00 50.92 26.40 C 49.03 25.47 44.18 27.01 44.82 23.80 Z" />
<path fill="#7f777e" opacity="1.00" d=" M 51.87 25.08 C 52.81 23.71 56.29 25.00 54.82 26.58 C 53.79 27.15 50.93 26.80 51.87 25.08 Z" />
<path fill="#7f777e" opacity="1.00" d=" M 9.12 29.15 C 14.18 30.39 19.22 28.33 24.28 28.07 C 25.80 27.96 28.65 28.21 27.34 30.42 C 24.95 29.94 22.49 29.13 20.06 29.82 C 16.50 30.78 12.79 30.52 9.16 30.80 C 9.15 30.39 9.13 29.57 9.12 29.15 Z" />
<path fill="#7f777e" opacity="1.00" d=" M 33.96 32.94 C 35.48 32.83 36.89 32.16 38.39 31.97 C 39.22 32.08 39.76 32.51 40.00 33.27 L 39.66 33.94 C 37.47 33.16 35.26 34.17 33.20 34.85 C 33.39 34.37 33.77 33.41 33.96 32.94 Z" />
<path fill="#7f777e" opacity="1.00" d=" M 49.58 32.64 C 51.49 33.33 54.79 32.06 55.73 34.37 C 53.74 33.98 49.93 35.60 49.58 32.64 Z" />
<path fill="#7f777e" opacity="1.00" d=" M 16.57 38.19 C 17.78 34.68 22.53 36.97 25.29 35.81 C 26.57 36.06 27.71 36.71 28.23 37.97 C 27.67 37.97 26.55 37.97 25.98 37.97 C 22.88 37.25 19.70 37.98 16.57 38.19 Z" />
<path fill="#7f777e" opacity="1.00" d=" M 49.40 36.79 C 51.14 37.16 56.35 35.92 55.18 39.11 C 53.47 37.60 49.99 39.52 49.40 36.79 Z" />
<path fill="#7f777e" opacity="1.00" d=" M 9.40 41.31 C 15.72 42.19 21.81 39.49 28.19 40.10 C 28.40 40.49 28.83 41.27 29.04 41.66 C 28.61 41.75 27.75 41.92 27.33 42.01 C 23.27 41.28 19.06 41.49 15.07 42.49 C 13.02 42.97 10.94 42.83 8.97 42.14 L 9.40 41.31 Z" />
<path fill="#7f777e" opacity="1.00" d=" M 33.18 42.62 C 33.68 40.16 37.09 40.73 38.97 40.36 C 41.37 40.20 43.77 40.25 46.17 40.46 C 47.39 40.69 49.43 40.32 49.68 42.05 C 46.45 41.86 43.22 41.07 39.97 41.49 C 37.63 41.32 35.38 41.91 33.18 42.62 Z" />
</g>
<g id="#0000003a">
<path fill="#000000" opacity="0.23" d=" M 1.25 16.98 C 1.31 15.22 1.03 13.36 1.87 11.74 L 2.04 12.57 C 1.89 18.37 2.07 24.17 2.02 29.97 C 1.94 33.31 2.02 36.66 2.01 40.00 C 1.92 44.38 2.00 48.75 2.03 53.13 L 2.01 54.43 L 1.99 55.28 C 10.40 55.78 18.77 54.39 27.17 54.74 C 30.00 56.76 33.96 56.79 36.79 54.75 C 45.20 54.37 53.59 55.75 62.00 55.32 L 61.99 54.44 L 61.98 53.14 C 62.00 48.80 62.03 44.47 62.03 40.14 C 61.86 36.73 62.28 33.30 61.82 29.91 C 62.17 24.16 61.99 18.38 61.96 12.62 L 62.12 11.77 C 62.84 13.09 62.80 14.59 62.77 16.04 C 62.59 29.58 62.97 43.14 62.63 56.67 C 55.09 56.43 47.47 57.10 39.99 55.82 C 37.26 55.88 34.79 57.64 31.99 57.36 C 29.15 57.72 26.69 55.84 23.93 55.82 C 16.50 57.04 8.92 56.49 1.42 56.64 C 1.07 43.43 1.30 30.20 1.25 16.98 Z" />
</g>
<g id="#1ea0d5ff">
<path fill="#1ea0d5" opacity="1.00" d=" M 2.04 12.57 C 3.35 15.73 2.36 19.40 4.21 22.37 C 4.32 25.29 4.14 28.21 4.06 31.12 C 3.55 30.83 2.53 30.26 2.02 29.97 C 2.07 24.17 1.89 18.37 2.04 12.57 Z" />
<path fill="#1ea0d5" opacity="1.00" d=" M 60.87 21.98 C 60.91 18.83 60.94 15.63 61.96 12.62 C 61.99 18.38 62.17 24.16 61.82 29.91 C 61.34 30.17 60.39 30.69 59.91 30.94 C 59.64 27.97 59.58 24.98 59.91 22.01 C 60.15 22.00 60.63 21.98 60.87 21.98 Z" />
</g>
<g id="#0169a5ff">
<path fill="#0169a5" opacity="1.00" d=" M 4.21 22.37 C 4.35 19.28 4.28 16.18 4.74 13.12 C 4.37 25.81 4.72 38.52 4.75 51.22 C 10.56 51.81 16.31 49.99 22.09 50.63 C 23.43 51.07 25.75 50.17 26.17 52.09 C 25.62 52.37 24.52 52.91 23.97 53.18 C 16.66 53.33 9.34 53.18 2.03 53.13 C 2.00 48.75 1.92 44.38 2.01 40.00 C 2.56 40.56 3.09 41.14 3.60 41.74 C 3.88 38.21 3.99 34.66 4.06 31.12 C 4.14 28.21 4.32 25.29 4.21 22.37 Z" />
<path fill="#0169a5" opacity="1.00" d=" M 59.99 41.99 C 60.72 41.43 61.40 40.81 62.03 40.14 C 62.03 44.47 62.00 48.80 61.98 53.14 C 53.99 53.11 45.98 53.56 38.01 52.88 C 37.95 52.33 37.82 51.22 37.75 50.67 C 40.39 50.56 43.11 50.08 45.69 50.86 C 50.15 52.28 54.97 51.84 59.55 51.29 C 59.87 48.20 59.64 45.08 59.99 41.99 Z" />
</g>
<g id="#9d9ba1ff">
<path fill="#9d9ba1" opacity="1.00" d=" M 15.93 15.97 C 17.32 16.27 21.93 15.36 20.20 18.11 C 18.52 17.83 15.40 18.74 15.93 15.97 Z" />
</g>
<g id="#97959aff">
<path fill="#97959a" opacity="1.00" d=" M 33.40 17.74 C 33.74 16.31 36.12 16.46 37.25 15.79 C 39.24 16.62 36.55 17.68 35.73 17.97 C 35.15 17.92 33.98 17.80 33.40 17.74 Z" />
</g>
<g id="#a8a6acff">
<path fill="#a8a6ac" opacity="1.00" d=" M 8.90 18.96 C 8.71 15.65 13.02 17.46 15.06 17.00 C 15.39 20.24 10.88 18.43 8.90 18.96 Z" />
<path fill="#a8a6ac" opacity="1.00" d=" M 50.07 20.12 C 51.70 20.95 55.58 20.13 54.78 22.88 C 53.06 22.52 49.38 22.79 50.07 20.12 Z" />
</g>
<g id="#939196ff">
<path fill="#939196" opacity="1.00" d=" M 13.81 21.03 C 16.67 21.33 19.33 19.93 22.17 20.07 C 22.20 20.56 22.27 21.54 22.30 22.03 C 19.49 22.18 16.67 22.28 13.85 22.38 L 13.81 21.03 Z" />
</g>
<g id="#767478ff">
<path fill="#767478" opacity="1.00" d=" M 38.10 20.38 C 39.69 19.82 42.89 19.52 43.86 20.88 C 42.32 21.28 38.93 21.72 38.10 20.38 Z" />
</g>
<g id="#949297ff">
<path fill="#949297" opacity="1.00" d=" M 44.58 19.87 C 46.24 20.41 49.34 19.40 49.25 22.05 C 47.39 21.80 43.82 23.07 44.58 19.87 Z" />
</g>
<g id="#a2a0a5ff">
<path fill="#a2a0a5" opacity="1.00" d=" M 9.23 21.15 C 10.40 20.47 12.77 20.59 13.27 22.07 C 12.82 23.89 8.69 22.98 9.23 21.15 Z" />
</g>
<g id="#99979bff">
<path fill="#99979b" opacity="1.00" d=" M 33.29 21.75 C 33.49 21.45 33.88 20.85 34.08 20.55 C 34.59 20.86 35.60 21.48 36.10 21.79 C 35.40 21.78 33.99 21.76 33.29 21.75 Z" />
</g>
<g id="#c0bdc4ff">
<path fill="#c0bdc4" opacity="1.00" d=" M 26.90 21.71 C 28.35 21.78 29.75 22.15 31.12 22.58 C 31.48 30.61 31.32 38.65 31.23 46.69 C 29.40 46.37 27.56 46.15 25.72 46.01 C 25.59 45.07 25.45 44.14 25.28 43.21 C 25.79 42.91 26.81 42.31 27.33 42.01 C 27.75 41.92 28.61 41.75 29.04 41.66 C 28.83 41.27 28.40 40.49 28.19 40.10 C 27.46 39.38 26.73 38.67 25.98 37.97 C 26.55 37.97 27.67 37.97 28.23 37.97 C 27.71 36.71 26.57 36.06 25.29 35.81 C 25.30 35.21 25.32 34.02 25.33 33.42 C 26.67 33.57 28.01 33.79 29.34 34.06 C 29.03 33.62 28.41 32.74 28.10 32.31 C 27.91 31.84 27.53 30.89 27.34 30.42 C 28.65 28.21 25.80 27.96 24.28 28.07 C 24.24 27.54 24.18 26.47 24.15 25.94 C 25.89 25.87 27.64 25.81 29.38 25.77 C 29.15 24.37 27.73 24.32 26.63 24.25 C 26.69 23.62 26.83 22.35 26.90 21.71 Z" />
</g>
<g id="#0785bdff">
<path fill="#0785bd" opacity="1.00" d=" M 2.02 29.97 C 2.53 30.26 3.55 30.83 4.06 31.12 C 3.99 34.66 3.88 38.21 3.60 41.74 C 3.09 41.14 2.56 40.56 2.01 40.00 C 2.02 36.66 1.94 33.31 2.02 29.97 Z" />
<path fill="#0785bd" opacity="1.00" d=" M 59.91 30.94 C 60.39 30.69 61.34 30.17 61.82 29.91 C 62.28 33.30 61.86 36.73 62.03 40.14 C 61.40 40.81 60.72 41.43 59.99 41.99 C 59.59 38.32 59.64 34.62 59.91 30.94 Z" />
</g>
<g id="#969499ff">
<path fill="#969499" opacity="1.00" d=" M 40.60 31.93 C 43.30 33.01 48.92 30.17 49.20 34.40 C 46.40 34.54 43.64 32.99 40.91 34.04 C 40.83 33.51 40.68 32.46 40.60 31.93 Z" />
</g>
<g id="#a09ea3ff">
<path fill="#a09ea3" opacity="1.00" d=" M 8.99 37.03 C 11.42 37.25 13.86 37.22 16.28 36.96 C 16.09 40.49 11.29 38.48 9.00 39.03 C 9.00 38.53 9.00 37.53 8.99 37.03 Z" />
</g>
<g id="#786c1dff">
<path fill="#786c1d" opacity="1.00" d=" M 27.07 51.05 C 30.12 49.18 33.74 49.73 36.98 50.73 C 36.99 51.25 37.01 52.29 37.02 52.81 C 34.08 50.83 30.45 50.46 27.49 52.61 C 27.37 52.42 27.13 52.03 27.01 51.84 L 27.07 51.05 Z" />
</g>
<g id="#024062fd">
<path fill="#024062" opacity="1.00" d=" M 27.49 52.61 C 30.45 50.46 34.08 50.83 37.02 52.81 C 37.01 52.29 36.99 51.25 36.98 50.73 L 37.75 50.67 C 37.82 51.22 37.95 52.33 38.01 52.88 C 45.98 53.56 53.99 53.11 61.98 53.14 L 61.99 54.44 C 55.64 54.61 49.34 53.54 42.99 53.68 C 40.90 53.78 38.53 53.28 36.79 54.75 C 33.96 56.79 30.00 56.76 27.17 54.74 C 25.09 53.16 22.35 53.79 19.94 53.66 C 13.94 53.58 8.00 54.63 2.01 54.43 L 2.03 53.13 C 9.34 53.18 16.66 53.33 23.97 53.18 C 24.52 52.91 25.62 52.37 26.17 52.09 L 27.01 51.84 C 27.13 52.03 27.37 52.42 27.49 52.61 M 29.07 54.16 C 29.87 55.53 34.10 55.57 34.83 54.16 C 33.06 53.71 30.83 53.65 29.07 54.16 Z" />
</g>
<g id="#02121fd0">
<path fill="#02121f" opacity="0.82" d=" M 2.01 54.43 C 8.00 54.63 13.94 53.58 19.94 53.66 C 22.35 53.79 25.09 53.16 27.17 54.74 C 18.77 54.39 10.40 55.78 1.99 55.28 L 2.01 54.43 Z" />
</g>
<g id="#088ec7ff">
<path fill="#088ec7" opacity="1.00" d=" M 29.07 54.16 C 30.83 53.65 33.06 53.71 34.83 54.16 C 34.10 55.57 29.87 55.53 29.07 54.16 Z" />
</g>
<g id="#021220d1">
<path fill="#021220" opacity="0.82" d=" M 36.79 54.75 C 38.53 53.28 40.90 53.78 42.99 53.68 C 49.34 53.54 55.64 54.61 61.99 54.44 L 62.00 55.32 C 53.59 55.75 45.20 54.37 36.79 54.75 Z" />
</g>
</svg>
