<?xml version="1.0" encoding="UTF-8" ?>
<!DOCTYPE svg PUBLIC "-//W3C//DTD SVG 1.1//EN" "http://www.w3.org/Graphics/SVG/1.1/DTD/svg11.dtd">
<svg width="64pt" height="64pt" viewBox="0 0 64 64" version="1.1" xmlns="http://www.w3.org/2000/svg">
<g id="#51a642ff">
<path fill="#51a642" opacity="1.00" d=" M 2.98 6.49 C 11.31 4.53 19.69 2.74 28.04 0.83 C 29.93 0.43 32.04 -0.21 33.80 0.97 C 42.48 5.66 51.06 10.56 59.68 15.35 C 59.67 15.76 59.63 16.58 59.62 16.99 C 59.11 17.35 58.09 18.06 57.59 18.41 C 54.21 20.94 49.87 21.28 45.96 22.49 C 39.49 24.51 32.76 25.71 26.48 28.33 C 26.46 29.90 26.43 31.47 26.40 33.04 C 36.96 30.86 47.20 27.47 57.64 24.80 C 57.60 22.93 57.55 21.06 57.57 19.19 C 56.98 22.16 58.63 24.24 61.05 25.68 C 59.39 26.14 57.71 26.58 56.05 27.04 C 54.73 27.38 53.40 27.68 52.08 28.00 C 51.68 28.15 50.87 28.44 50.46 28.59 C 42.49 31.46 34.17 33.20 26.05 35.60 C 20.47 30.43 14.61 25.58 9.27 20.15 C 7.32 18.28 5.32 16.45 3.27 14.68 C 2.60 12.14 2.61 9.51 2.77 6.91 C 3.41 7.25 4.67 7.94 5.30 8.28 C 4.72 7.83 3.56 6.94 2.98 6.49 Z" />
<path fill="#51a642" opacity="1.00" d=" M 3.11 22.69 C 5.22 22.56 7.31 22.29 9.42 22.11 C 9.88 29.30 11.08 36.43 11.43 43.63 C 11.11 43.60 10.47 43.54 10.14 43.50 C 9.33 41.91 8.48 40.33 7.58 38.78 C 7.58 38.47 7.58 37.84 7.58 37.53 L 6.34 37.33 C 6.42 36.87 6.57 35.95 6.64 35.49 L 5.16 35.38 C 5.31 34.90 5.60 33.96 5.75 33.49 L 4.74 33.61 C 4.42 32.95 3.80 31.63 3.48 30.97 C 3.39 30.73 3.21 30.24 3.11 30.00 C 2.39 27.60 2.48 25.09 3.11 22.69 Z" />
<path fill="#51a642" opacity="1.00" d=" M 12.50 39.33 C 25.90 39.83 39.32 39.46 52.73 39.54 C 54.57 41.67 56.42 43.79 58.36 45.82 C 56.47 44.95 54.37 45.16 52.99 46.89 L 52.88 46.09 C 52.69 44.53 52.37 42.99 51.98 41.46 L 51.10 41.39 C 39.23 40.76 27.23 42.42 15.45 40.53 C 15.03 40.92 14.18 41.71 13.76 42.10 C 13.61 42.60 13.31 43.60 13.16 44.10 C 12.95 42.51 12.73 40.92 12.50 39.33 Z" />
<path fill="#51a642" opacity="1.00" d=" M 12.10 48.46 C 21.04 47.93 30.00 48.15 38.94 48.17 C 43.35 47.92 47.77 47.58 52.16 48.18 C 48.94 49.45 45.47 49.73 42.08 50.18 C 34.82 51.04 27.65 52.46 20.46 53.77 C 20.38 55.44 20.30 57.11 20.22 58.79 C 31.81 57.07 43.34 54.91 54.92 53.10 C 55.94 53.31 57.97 53.71 58.99 53.91 C 53.74 55.49 48.28 56.10 42.90 57.02 C 40.91 57.39 38.91 57.71 36.93 58.11 C 34.45 58.53 31.95 58.73 29.45 58.80 L 29.55 59.51 C 26.18 59.58 22.80 59.78 19.58 60.86 C 18.53 58.87 17.54 56.86 16.50 54.86 C 16.46 54.67 16.36 54.28 16.32 54.08 C 15.51 52.65 14.74 51.21 13.98 49.75 C 13.51 49.43 12.57 48.78 12.10 48.46 Z" />
</g>
<g id="#f3f3f3ff">
<path fill="#f3f3f3" opacity="1.00" d=" M 45.96 22.49 C 49.87 21.28 54.21 20.94 57.59 18.41 L 57.57 19.19 C 57.55 21.06 57.60 22.93 57.64 24.80 C 47.20 27.47 36.96 30.86 26.40 33.04 C 26.43 31.47 26.46 29.90 26.48 28.33 C 32.76 25.71 39.49 24.51 45.96 22.49 Z" />
<path fill="#f3f3f3" opacity="1.00" d=" M 13.76 42.10 C 14.18 41.71 15.03 40.92 15.45 40.53 C 27.23 42.42 39.23 40.76 51.10 41.39 C 51.22 42.92 51.34 44.46 51.46 46.00 C 38.74 45.94 26.01 46.12 13.28 45.89 C 13.25 45.44 13.19 44.55 13.16 44.10 C 13.31 43.60 13.61 42.60 13.76 42.10 Z" />
<path fill="#f3f3f3" opacity="1.00" d=" M 52.16 48.18 C 53.15 48.07 54.50 46.66 55.30 47.82 C 55.56 49.10 56.07 51.64 56.33 52.91 L 54.92 53.10 C 43.34 54.91 31.81 57.07 20.22 58.79 C 20.30 57.11 20.38 55.44 20.46 53.77 C 27.65 52.46 34.82 51.04 42.08 50.18 C 45.47 49.73 48.94 49.45 52.16 48.18 Z" />
</g>
<g id="#e22e15ff">
<path fill="#e22e15" opacity="1.00" d=" M 9.27 20.15 C 14.61 25.58 20.47 30.43 26.05 35.60 C 34.17 33.20 42.49 31.46 50.46 28.59 C 52.04 32.13 53.28 35.81 54.35 39.54 L 52.73 39.54 C 39.32 39.46 25.90 39.83 12.50 39.33 C 12.73 40.92 12.95 42.51 13.16 44.10 C 13.19 44.55 13.25 45.44 13.28 45.89 C 26.01 46.12 38.74 45.94 51.46 46.00 C 51.34 44.46 51.22 42.92 51.10 41.39 L 51.98 41.46 C 52.37 42.99 52.69 44.53 52.88 46.09 C 52.76 46.53 52.53 47.41 52.42 47.85 C 39.05 47.43 25.66 47.90 12.28 47.72 C 11.90 46.38 11.47 45.04 11.43 43.63 C 11.08 36.43 9.88 29.30 9.42 22.11 C 9.38 21.62 9.31 20.64 9.27 20.15 Z" />
</g>
</svg>
