<?xml version="1.0" encoding="UTF-8" ?>
<!DOCTYPE svg PUBLIC "-//W3C//DTD SVG 1.1//EN" "http://www.w3.org/Graphics/SVG/1.1/DTD/svg11.dtd">
<svg width="64pt" height="64pt" viewBox="0 0 64 64" version="1.1" xmlns="http://www.w3.org/2000/svg">
<g id="#000000ff">
<path fill="#000000" opacity="1.00" d=" M 10.07 2.51 C 12.15 2.93 14.28 3.02 16.39 3.26 C 16.56 3.76 16.90 4.77 17.08 5.28 C 15.37 5.05 13.67 4.83 11.96 4.60 C 10.86 5.18 9.77 5.75 8.67 6.33 C 11.55 7.34 14.51 8.06 17.47 8.80 C 16.45 8.97 14.41 9.33 13.39 9.51 C 13.34 12.13 13.19 14.74 12.92 17.34 C 12.95 18.67 13.03 20.00 13.17 21.32 C 13.41 23.05 13.34 24.80 13.15 26.54 C 13.00 27.85 12.85 29.17 12.71 30.48 C 14.01 30.58 15.30 30.69 16.59 30.81 C 15.58 31.02 13.54 31.44 12.52 31.65 C 13.17 32.13 14.47 33.09 15.12 33.56 C 14.52 33.55 13.34 33.52 12.75 33.51 C 12.46 36.52 14.50 38.65 16.28 40.76 C 15.14 39.83 14.01 38.89 12.88 37.95 C 13.00 39.02 13.22 41.18 13.33 42.26 C 13.60 41.98 14.14 41.42 14.41 41.14 C 14.78 42.58 16.00 43.41 17.11 44.26 C 15.70 43.58 14.27 42.93 12.83 42.29 C 12.88 43.34 13.00 45.44 13.05 46.48 L 13.01 47.84 C 13.00 48.03 12.97 48.40 12.96 48.59 C 14.04 48.67 15.12 48.75 16.20 48.84 C 15.24 49.42 14.27 49.99 13.31 50.57 C 13.32 51.21 13.36 52.49 13.38 53.13 C 11.57 52.65 9.75 52.19 7.93 51.78 C 7.55 51.69 6.79 51.51 6.41 51.42 C 6.09 36.97 6.45 22.50 6.32 8.03 C 5.88 5.41 8.35 3.94 10.07 2.51 M 7.10 7.36 C 6.85 19.89 7.03 32.43 6.91 44.97 C 7.11 46.73 6.53 48.89 7.95 50.26 C 8.78 37.55 7.98 24.77 8.33 12.02 C 8.09 10.47 8.90 8.22 7.10 7.36 Z" />
<path fill="#000000" opacity="1.00" d=" M 29.27 34.71 C 28.20 33.54 31.26 32.25 31.48 33.76 C 30.93 34.00 29.83 34.48 29.27 34.71 Z" />
<path fill="#000000" opacity="1.00" d=" M 13.92 53.27 C 14.80 52.54 15.66 51.79 16.48 50.99 C 16.59 51.77 16.82 53.33 16.93 54.11 C 18.52 54.29 19.91 53.31 21.34 52.79 C 20.83 53.30 19.81 54.32 19.30 54.83 C 17.49 54.37 15.71 53.79 13.92 53.27 Z" />
</g>
<g id="#383734ff">
<path fill="#383734" opacity="1.00" d=" M 16.39 3.26 C 29.03 4.79 41.72 5.84 54.37 7.37 C 53.79 11.09 54.04 14.84 54.65 18.53 L 54.44 19.15 C 53.17 21.22 53.70 23.59 54.57 25.69 L 54.80 26.59 C 54.49 36.35 54.81 46.12 54.51 55.89 C 53.89 56.29 52.66 57.11 52.04 57.51 C 51.84 42.65 51.94 27.79 52.00 12.92 C 52.24 11.58 51.68 10.50 50.56 9.80 C 45.52 9.44 40.57 8.39 35.54 8.01 C 35.85 7.50 36.47 6.49 36.77 5.99 C 34.44 6.37 32.12 6.81 29.78 7.16 C 29.11 7.06 27.77 6.86 27.10 6.76 C 23.77 6.17 20.42 5.78 17.08 5.28 C 16.90 4.77 16.56 3.76 16.39 3.26 Z" />
<path fill="#383734" opacity="1.00" d=" M 15.99 9.38 C 18.57 8.91 21.13 9.39 23.66 9.87 C 26.49 10.42 29.31 11.01 32.10 11.70 C 30.05 12.21 27.96 12.59 25.87 12.92 C 25.49 12.49 24.72 11.63 24.34 11.19 C 23.89 12.26 23.44 13.32 22.99 14.39 C 23.88 13.95 24.78 13.53 25.69 13.13 L 26.60 14.47 C 22.71 15.39 18.70 15.71 14.88 16.93 C 15.37 15.97 15.85 15.01 16.33 14.05 C 17.29 14.49 18.25 14.94 19.20 15.39 C 19.90 14.10 20.53 12.76 20.37 11.26 C 18.88 10.69 17.41 10.09 15.99 9.38 M 21.44 11.11 C 21.61 14.51 24.39 9.63 21.44 11.11 Z" />
<path fill="#383734" opacity="1.00" d=" M 38.50 36.11 C 40.85 33.92 42.93 36.51 42.43 39.07 C 41.76 38.55 40.40 37.51 39.73 36.99 C 39.33 38.19 39.10 39.44 39.65 40.63 L 40.54 38.76 C 42.85 39.21 45.16 39.83 44.97 42.75 C 42.69 42.08 40.44 41.28 38.09 40.85 C 36.33 39.56 34.51 37.97 35.91 35.72 C 36.43 36.49 37.47 38.05 37.99 38.83 C 38.12 38.15 38.37 36.79 38.50 36.11 Z" />
<path fill="#383734" opacity="1.00" d=" M 43.05 53.28 C 44.49 52.91 45.02 53.40 44.65 54.75 C 43.21 55.12 42.68 54.63 43.05 53.28 Z" />
<path fill="#383734" opacity="1.00" d=" M 42.40 57.83 C 44.11 57.01 45.84 56.23 47.45 55.22 L 48.01 55.82 L 48.11 57.48 C 47.80 57.72 47.18 58.22 46.87 58.47 C 46.22 59.32 45.58 60.18 44.90 61.01 C 44.39 61.11 43.38 61.32 42.87 61.42 C 42.26 61.12 41.04 60.52 40.43 60.22 C 40.44 59.68 40.46 58.60 40.47 58.06 C 41.89 58.42 43.32 58.76 44.75 59.10 L 42.40 57.83 Z" />
</g>
<g id="#bfbfbfff">
<path fill="#bfbfbf" opacity="1.00" d=" M 8.67 6.33 C 9.77 5.75 10.86 5.18 11.96 4.60 C 13.67 4.83 15.37 5.05 17.08 5.28 C 20.42 5.78 23.77 6.17 27.10 6.76 C 25.72 6.95 24.34 7.19 22.97 7.43 C 23.95 7.85 24.94 8.27 25.92 8.70 C 25.36 8.99 24.23 9.58 23.66 9.87 C 21.13 9.39 18.57 8.91 15.99 9.38 C 17.41 10.09 18.88 10.69 20.37 11.26 C 20.53 12.76 19.90 14.10 19.20 15.39 C 18.25 14.94 17.29 14.49 16.33 14.05 C 15.85 15.01 15.37 15.97 14.88 16.93 C 18.70 15.71 22.71 15.39 26.60 14.47 C 27.12 15.25 27.63 16.03 28.18 16.79 C 27.50 17.90 26.83 19.01 26.15 20.11 L 25.49 21.15 C 25.19 20.92 24.60 20.45 24.31 20.21 C 24.95 19.21 25.62 18.23 26.30 17.25 C 25.97 16.94 25.30 16.30 24.97 15.98 C 23.51 16.37 22.05 16.75 20.58 17.12 C 20.64 17.59 20.76 18.51 20.82 18.97 C 18.17 18.51 15.53 17.99 12.92 17.34 C 13.19 14.74 13.34 12.13 13.39 9.51 C 14.41 9.33 16.45 8.97 17.47 8.80 C 14.51 8.06 11.55 7.34 8.67 6.33 M 14.20 11.40 C 14.78 11.95 14.78 11.95 14.20 11.40 M 16.11 11.19 C 14.39 14.19 19.43 11.27 16.11 11.19 Z" />
</g>
<g id="#747372ff">
<path fill="#747372" opacity="1.00" d=" M 29.78 7.16 C 32.12 6.81 34.44 6.37 36.77 5.99 C 36.47 6.49 35.85 7.50 35.54 8.01 C 33.61 7.80 31.70 7.48 29.78 7.16 Z" />
</g>
<g id="#e2e2e2ff">
<path fill="#e2e2e2" opacity="1.00" d=" M 22.97 7.43 C 24.34 7.19 25.72 6.95 27.10 6.76 C 27.77 6.86 29.11 7.06 29.78 7.16 C 31.70 7.48 33.61 7.80 35.54 8.01 C 40.57 8.39 45.52 9.44 50.56 9.80 C 49.06 11.34 45.52 12.22 46.20 14.88 C 46.24 17.20 46.51 19.53 46.14 21.85 C 44.61 21.98 43.04 22.02 41.56 22.47 C 40.79 23.36 40.19 24.36 39.77 25.47 C 38.93 24.54 37.36 23.98 37.30 22.55 C 37.95 21.49 38.69 20.49 39.42 19.49 C 39.20 20.33 38.75 22.00 38.52 22.84 C 41.18 21.73 43.94 20.80 46.34 19.16 C 45.93 17.88 45.53 16.59 45.14 15.30 C 43.29 15.69 41.44 16.10 39.59 16.51 C 39.92 17.23 40.59 18.68 40.92 19.41 C 39.59 18.58 38.27 17.74 36.94 16.91 C 37.14 15.91 37.34 14.91 37.53 13.92 C 37.87 14.45 38.53 15.53 38.86 16.06 C 40.49 15.30 42.94 15.82 44.09 14.33 C 40.28 13.07 36.31 12.28 32.32 11.84 L 31.83 11.92 C 31.70 12.44 31.43 13.46 31.30 13.98 C 30.97 13.57 30.31 12.77 29.98 12.37 C 28.64 13.14 27.55 14.20 27.53 15.83 C 28.41 15.88 30.17 15.96 31.05 16.01 C 31.05 16.53 31.05 17.58 31.05 18.10 C 30.09 17.68 29.13 17.24 28.18 16.79 C 27.63 16.03 27.12 15.25 26.60 14.47 L 25.69 13.13 C 24.78 13.53 23.88 13.95 22.99 14.39 C 23.44 13.32 23.89 12.26 24.34 11.19 C 24.72 11.63 25.49 12.49 25.87 12.92 C 27.96 12.59 30.05 12.21 32.10 11.70 C 29.31 11.01 26.49 10.42 23.66 9.87 C 24.23 9.58 25.36 8.99 25.92 8.70 C 24.94 8.27 23.95 7.85 22.97 7.43 Z" />
<path fill="#e2e2e2" opacity="1.00" d=" M 21.44 11.11 C 24.39 9.63 21.61 14.51 21.44 11.11 Z" />
<path fill="#e2e2e2" opacity="1.00" d=" M 45.25 23.10 C 45.65 23.12 46.45 23.15 46.85 23.17 C 46.76 23.94 46.60 25.49 46.52 26.26 C 46.63 27.55 46.67 28.84 46.59 30.13 C 46.39 29.25 46.01 27.48 45.81 26.59 C 44.47 27.50 43.12 28.38 41.71 29.17 C 43.02 27.55 44.51 26.09 46.03 24.66 C 45.83 24.27 45.45 23.49 45.25 23.10 Z" />
<path fill="#e2e2e2" opacity="1.00" d=" M 24.84 44.93 C 25.17 44.20 25.82 42.72 26.15 41.98 C 27.03 43.55 25.93 45.43 27.01 46.99 C 27.55 46.36 28.62 45.12 29.15 44.50 C 29.87 45.58 30.59 46.65 31.33 47.71 C 29.09 46.91 27.35 48.33 25.54 49.39 C 25.70 48.42 25.90 47.46 26.13 46.50 C 24.41 45.55 23.22 46.40 22.31 47.80 C 21.81 46.93 21.31 46.07 20.81 45.21 C 21.33 45.37 22.37 45.69 22.90 45.85 C 23.38 45.62 24.36 45.16 24.84 44.93 Z" />
<path fill="#e2e2e2" opacity="1.00" d=" M 43.31 49.23 C 42.16 47.76 42.59 46.13 43.34 44.61 C 43.20 45.32 42.94 46.74 42.81 47.46 C 44.80 47.80 45.35 45.59 46.42 44.44 C 46.36 45.87 46.34 47.30 46.32 48.74 C 45.83 49.17 44.85 50.04 44.36 50.48 L 44.96 48.70 C 44.55 48.83 43.72 49.10 43.31 49.23 Z" />
<path fill="#e2e2e2" opacity="1.00" d=" M 18.41 50.22 C 19.12 48.90 22.40 49.78 20.79 51.25 C 20.01 52.20 17.21 51.77 18.41 50.22 Z" />
</g>
<g id="#292724ff">
<path fill="#292724" opacity="1.00" d=" M 7.10 7.36 C 8.90 8.22 8.09 10.47 8.33 12.02 C 7.98 24.77 8.78 37.55 7.95 50.26 C 6.53 48.89 7.11 46.73 6.91 44.97 C 7.03 32.43 6.85 19.89 7.10 7.36 Z" />
</g>
<g id="#12100cdf">
<path fill="#12100c" opacity="0.87" d=" M 54.37 7.37 C 55.54 10.97 55.00 14.84 54.65 18.53 C 54.04 14.84 53.79 11.09 54.37 7.37 Z" />
</g>
<g id="#b9b9b9ff">
<path fill="#b9b9b9" opacity="1.00" d=" M 50.56 9.80 C 51.68 10.50 52.24 11.58 52.00 12.92 C 51.94 27.79 51.84 42.65 52.04 57.51 C 51.70 57.82 51.02 58.44 50.69 58.75 C 48.89 59.81 46.94 60.56 44.90 61.01 C 45.58 60.18 46.22 59.32 46.87 58.47 C 47.13 58.71 47.65 59.19 47.91 59.44 C 47.96 58.95 48.06 57.97 48.11 57.48 L 48.01 55.82 C 48.00 43.22 47.99 30.61 48.04 18.00 C 48.15 16.66 47.93 14.83 46.20 14.88 C 45.52 12.22 49.06 11.34 50.56 9.80 Z" />
<path fill="#b9b9b9" opacity="1.00" d=" M 22.60 51.76 C 22.02 50.43 22.32 49.23 23.44 48.29 C 23.70 50.24 23.92 52.20 24.11 54.15 C 23.80 53.93 23.17 53.48 22.85 53.25 C 21.99 53.65 21.33 54.32 20.89 55.24 L 19.30 54.83 C 19.81 54.32 20.83 53.30 21.34 52.79 C 21.65 52.54 22.28 52.02 22.60 51.76 Z" />
<path fill="#b9b9b9" opacity="1.00" d=" M 26.60 53.07 C 27.32 51.15 27.93 49.10 29.46 47.64 C 29.41 48.43 29.31 50.02 29.26 50.81 C 29.73 50.52 30.65 49.95 31.12 49.67 C 30.25 52.00 29.55 54.39 29.13 56.84 C 29.83 56.69 31.21 56.39 31.90 56.25 L 32.08 57.02 C 31.45 57.10 30.20 57.27 29.57 57.35 C 28.33 57.09 27.11 56.79 25.88 56.48 C 26.59 56.58 28.02 56.77 28.73 56.87 C 29.08 55.17 29.44 53.48 29.80 51.80 C 29.00 52.12 27.40 52.75 26.60 53.07 Z" />
<path fill="#b9b9b9" opacity="1.00" d=" M 36.94 48.53 C 37.99 49.89 38.76 51.42 39.44 52.98 C 39.74 51.45 40.07 49.93 40.40 48.41 C 41.20 49.16 42.80 50.65 43.60 51.40 L 43.31 49.23 C 43.72 49.10 44.55 48.83 44.96 48.70 L 44.36 50.48 C 44.96 50.66 46.18 51.03 46.79 51.21 C 46.21 51.75 45.50 52.18 45.11 52.88 C 45.90 53.66 46.68 54.43 47.45 55.22 C 45.84 56.23 44.11 57.01 42.40 57.83 L 44.75 59.10 C 43.32 58.76 41.89 58.42 40.47 58.06 C 40.46 58.60 40.44 59.68 40.43 60.22 C 40.19 60.06 39.69 59.74 39.44 59.58 C 38.47 58.56 37.19 57.58 35.68 57.85 C 37.67 57.19 39.88 56.28 41.82 57.68 C 41.95 57.07 42.21 55.86 42.35 55.26 C 39.25 54.34 36.83 51.93 36.94 48.53 M 41.33 52.16 C 41.86 52.75 41.86 52.75 41.33 52.16 M 43.05 53.28 C 42.68 54.63 43.21 55.12 44.65 54.75 C 45.02 53.40 44.49 52.91 43.05 53.28 Z" />
</g>
<g id="#494949ff">
<path fill="#494949" opacity="1.00" d=" M 14.20 11.40 C 14.78 11.95 14.78 11.95 14.20 11.40 Z" />
</g>
<g id="#636363ff">
<path fill="#636363" opacity="1.00" d=" M 16.11 11.19 C 19.43 11.27 14.39 14.19 16.11 11.19 Z" />
</g>
<g id="#8c8c8cff">
<path fill="#8c8c8c" opacity="1.00" d=" M 31.83 11.92 L 32.32 11.84 C 33.93 14.58 35.67 17.23 37.43 19.86 C 34.75 19.91 32.06 19.89 29.38 19.79 C 30.11 19.51 31.56 18.96 32.28 18.69 C 31.98 18.54 31.36 18.25 31.05 18.10 C 31.05 17.58 31.05 16.53 31.05 16.01 C 31.54 16.03 32.51 16.07 32.99 16.09 C 32.43 15.38 31.86 14.68 31.30 13.98 C 31.43 13.46 31.70 12.44 31.83 11.92 Z" />
</g>
<g id="#777777ff">
<path fill="#777777" opacity="1.00" d=" M 32.32 11.84 C 36.31 12.28 40.28 13.07 44.09 14.33 C 42.94 15.82 40.49 15.30 38.86 16.06 C 38.53 15.53 37.87 14.45 37.53 13.92 C 37.34 14.91 37.14 15.91 36.94 16.91 C 38.27 17.74 39.59 18.58 40.92 19.41 C 40.59 18.68 39.92 17.23 39.59 16.51 C 41.44 16.10 43.29 15.69 45.14 15.30 C 45.53 16.59 45.93 17.88 46.34 19.16 C 43.94 20.80 41.18 21.73 38.52 22.84 C 38.75 22.00 39.20 20.33 39.42 19.49 C 38.69 20.49 37.95 21.49 37.30 22.55 C 37.36 23.98 38.93 24.54 39.77 25.47 C 40.19 24.36 40.79 23.36 41.56 22.47 C 43.04 22.02 44.61 21.98 46.14 21.85 C 46.51 19.53 46.24 17.20 46.20 14.88 C 47.93 14.83 48.15 16.66 48.04 18.00 C 47.99 30.61 48.00 43.22 48.01 55.82 L 47.45 55.22 C 46.68 54.43 45.90 53.66 45.11 52.88 C 45.50 52.18 46.21 51.75 46.79 51.21 C 46.18 51.03 44.96 50.66 44.36 50.48 C 44.85 50.04 45.83 49.17 46.32 48.74 C 46.34 47.30 46.36 45.87 46.42 44.44 C 45.35 45.59 44.80 47.80 42.81 47.46 C 42.94 46.74 43.20 45.32 43.34 44.61 C 42.59 46.13 42.16 47.76 43.31 49.23 L 43.60 51.40 C 42.80 50.65 41.20 49.16 40.40 48.41 C 40.19 47.98 39.78 47.12 39.58 46.69 L 39.47 46.48 L 39.41 46.31 C 39.19 45.74 38.75 44.60 38.54 44.03 C 38.84 43.55 39.46 42.58 39.77 42.10 C 41.86 43.11 44.13 43.96 46.43 43.15 C 45.65 41.19 42.84 38.38 46.00 37.08 C 45.92 36.31 45.75 34.76 45.67 33.99 C 45.29 34.13 44.52 34.41 44.13 34.55 C 44.33 35.48 45.08 36.96 43.61 37.22 C 42.41 35.70 42.41 33.88 42.71 32.08 C 42.33 30.57 40.01 32.32 39.39 30.86 C 39.41 29.57 40.16 28.41 40.47 27.17 C 38.77 27.80 37.32 28.95 35.77 29.87 C 36.38 29.95 37.61 30.10 38.23 30.18 C 38.18 30.87 38.08 32.26 38.03 32.96 C 36.03 31.45 34.72 29.40 34.72 26.85 C 35.50 27.07 37.06 27.51 37.84 27.73 C 36.18 25.77 33.04 24.11 34.53 21.13 C 31.67 22.07 28.65 21.89 26.15 20.11 C 26.83 19.01 27.50 17.90 28.18 16.79 C 29.13 17.24 30.09 17.68 31.05 18.10 C 31.36 18.25 31.98 18.54 32.28 18.69 C 31.56 18.96 30.11 19.51 29.38 19.79 C 32.06 19.89 34.75 19.91 37.43 19.86 C 35.67 17.23 33.93 14.58 32.32 11.84 M 45.25 23.10 C 45.45 23.49 45.83 24.27 46.03 24.66 C 44.51 26.09 43.02 27.55 41.71 29.17 C 43.12 28.38 44.47 27.50 45.81 26.59 C 46.01 27.48 46.39 29.25 46.59 30.13 C 46.67 28.84 46.63 27.55 46.52 26.26 C 46.60 25.49 46.76 23.94 46.85 23.17 C 46.45 23.15 45.65 23.12 45.25 23.10 M 41.16 25.84 C 42.15 26.43 44.18 25.34 43.72 24.11 C 42.70 23.39 40.65 24.57 41.16 25.84 M 44.25 30.26 C 44.73 30.82 44.73 30.82 44.25 30.26 M 45.21 32.26 C 45.76 32.81 45.76 32.81 45.21 32.26 Z" />
</g>
<g id="#5a5959ff">
<path fill="#5a5959" opacity="1.00" d=" M 27.53 15.83 C 27.55 14.20 28.64 13.14 29.98 12.37 C 30.31 12.77 30.97 13.57 31.30 13.98 C 31.86 14.68 32.43 15.38 32.99 16.09 C 32.51 16.07 31.54 16.03 31.05 16.01 C 30.17 15.96 28.41 15.88 27.53 15.83 Z" />
<path fill="#5a5959" opacity="1.00" d=" M 16.21 21.57 C 16.99 21.48 18.55 21.31 19.33 21.22 C 19.09 22.74 18.85 24.25 18.58 25.76 C 18.75 26.27 19.08 27.30 19.24 27.81 C 19.11 28.46 18.84 29.74 18.70 30.38 C 17.04 29.68 17.09 27.82 16.72 26.32 C 15.58 26.25 14.45 26.17 13.31 26.10 C 13.80 24.83 14.31 23.56 14.82 22.30 C 15.28 22.69 16.19 23.45 16.64 23.83 C 16.53 23.26 16.32 22.13 16.21 21.57 Z" />
</g>
<g id="#5c5c5cff">
<path fill="#5c5c5c" opacity="1.00" d=" M 20.58 17.12 C 22.05 16.75 23.51 16.37 24.97 15.98 C 25.30 16.30 25.97 16.94 26.30 17.25 C 25.62 18.23 24.95 19.21 24.31 20.21 C 24.00 19.97 23.37 19.48 23.05 19.24 C 19.85 20.32 16.61 21.56 13.17 21.32 C 13.03 20.00 12.95 18.67 12.92 17.34 C 15.53 17.99 18.17 18.51 20.82 18.97 C 20.76 18.51 20.64 17.59 20.58 17.12 Z" />
<path fill="#5c5c5c" opacity="1.00" d=" M 18.81 32.60 C 19.09 31.50 19.85 30.88 21.09 30.74 C 22.47 31.07 23.85 31.42 25.21 31.80 C 24.58 32.41 23.32 33.62 22.69 34.22 C 24.62 33.04 26.61 31.85 28.97 32.52 C 27.97 34.92 27.00 37.33 26.29 39.84 C 27.63 39.37 28.96 38.88 30.29 38.39 C 29.47 38.47 27.81 38.65 26.98 38.74 C 27.39 37.69 28.21 35.60 28.62 34.55 C 29.01 34.78 29.79 35.23 30.18 35.46 C 31.40 34.85 32.62 34.24 33.84 33.63 C 34.24 33.27 35.03 32.53 35.43 32.16 C 36.77 33.16 38.11 34.15 39.43 35.16 C 37.71 35.85 36.30 35.45 35.21 33.96 C 34.93 34.72 34.65 35.48 34.37 36.24 C 33.79 36.72 32.64 37.68 32.06 38.16 C 33.05 38.67 35.05 39.68 36.05 40.18 C 35.19 40.56 33.48 41.32 32.63 41.69 C 32.06 41.20 30.93 40.22 30.36 39.73 C 31.09 40.76 31.82 41.79 32.56 42.81 C 31.07 43.11 29.59 43.44 28.11 43.79 C 29.46 43.78 30.81 43.75 32.16 43.71 C 32.97 42.98 34.60 41.51 35.41 40.77 C 35.37 41.54 35.28 43.08 35.24 43.85 C 35.79 43.83 36.88 43.79 37.43 43.77 C 34.83 42.62 36.95 41.27 38.09 40.85 C 38.20 41.65 38.42 43.24 38.54 44.03 C 38.75 44.60 39.19 45.74 39.41 46.31 C 39.45 46.41 39.53 46.60 39.58 46.69 C 39.78 47.12 40.19 47.98 40.40 48.41 C 40.07 49.93 39.74 51.45 39.44 52.98 C 38.76 51.42 37.99 49.89 36.94 48.53 C 36.83 51.93 39.25 54.34 42.35 55.26 C 42.21 55.86 41.95 57.07 41.82 57.68 C 39.88 56.28 37.67 57.19 35.68 57.85 C 35.40 58.16 34.84 58.76 34.56 59.07 C 32.93 58.40 31.25 57.85 29.57 57.35 C 30.20 57.27 31.45 57.10 32.08 57.02 L 31.90 56.25 C 31.21 56.39 29.83 56.69 29.13 56.84 C 29.55 54.39 30.25 52.00 31.12 49.67 C 30.65 49.95 29.73 50.52 29.26 50.81 C 29.31 50.02 29.41 48.43 29.46 47.64 C 27.93 49.10 27.32 51.15 26.60 53.07 C 27.40 52.75 29.00 52.12 29.80 51.80 C 29.44 53.48 29.08 55.17 28.73 56.87 C 28.02 56.77 26.59 56.58 25.88 56.48 C 25.41 56.37 24.46 56.15 23.99 56.04 C 24.02 55.57 24.08 54.63 24.11 54.15 C 23.92 52.20 23.70 50.24 23.44 48.29 C 22.32 49.23 22.02 50.43 22.60 51.76 C 22.28 52.02 21.65 52.54 21.34 52.79 C 19.91 53.31 18.52 54.29 16.93 54.11 C 16.82 53.33 16.59 51.77 16.48 50.99 C 16.58 50.44 16.78 49.34 16.89 48.79 C 17.09 48.29 17.51 47.29 17.72 46.79 C 16.15 47.13 14.57 47.46 13.01 47.84 L 13.05 46.48 C 15.06 45.49 17.14 44.64 19.21 43.77 C 19.23 44.39 19.26 45.63 19.27 46.25 C 19.83 45.42 20.39 44.60 20.95 43.78 C 20.84 43.18 20.62 41.98 20.52 41.38 C 22.04 41.76 23.12 42.73 23.64 44.25 C 24.00 43.15 24.36 42.06 24.73 40.97 C 24.05 40.59 22.70 39.84 22.02 39.46 C 20.48 40.68 19.04 42.02 17.64 43.40 C 18.45 40.25 20.38 37.52 21.10 34.34 C 20.53 33.90 19.38 33.03 18.81 32.60 M 21.29 32.30 C 21.81 32.88 21.81 32.88 21.29 32.30 M 23.01 35.18 C 22.91 36.53 23.57 37.13 25.00 36.98 C 25.10 35.63 24.43 35.03 23.01 35.18 M 23.22 38.04 C 22.91 39.46 23.44 40.07 24.80 39.86 C 25.09 38.45 24.57 37.84 23.22 38.04 M 28.29 41.25 C 28.39 44.56 31.37 39.88 28.29 41.25 M 24.84 44.93 C 24.36 45.16 23.38 45.62 22.90 45.85 C 22.37 45.69 21.33 45.37 20.81 45.21 C 21.31 46.07 21.81 46.93 22.31 47.80 C 23.22 46.40 24.41 45.55 26.13 46.50 C 25.90 47.46 25.70 48.42 25.54 49.39 C 27.35 48.33 29.09 46.91 31.33 47.71 C 30.59 46.65 29.87 45.58 29.15 44.50 C 28.62 45.12 27.55 46.36 27.01 46.99 C 25.93 45.43 27.03 43.55 26.15 41.98 C 25.82 42.72 25.17 44.20 24.84 44.93 M 32.09 45.19 C 30.57 48.22 35.42 45.28 32.09 45.19 M 35.30 46.16 C 35.83 46.75 35.83 46.75 35.30 46.16 M 37.24 46.38 C 37.81 46.96 37.81 46.96 37.24 46.38 M 18.96 47.58 C 18.56 48.96 19.09 49.40 20.53 48.92 C 20.90 47.55 20.38 47.11 18.96 47.58 M 32.35 49.13 C 31.46 50.35 33.65 51.51 34.45 50.43 C 35.40 49.19 33.16 48.10 32.35 49.13 M 18.41 50.22 C 17.21 51.77 20.01 52.20 20.79 51.25 C 22.40 49.78 19.12 48.90 18.41 50.22 M 32.28 53.20 C 32.17 54.36 32.67 54.90 33.80 54.83 C 36.75 53.54 33.61 50.23 32.28 53.20 M 36.02 54.08 C 35.54 55.64 36.14 56.21 37.82 55.79 C 38.29 54.22 37.69 53.66 36.02 54.08 Z" />
</g>
<g id="#ffffffff">
<path fill="#ffffff" opacity="1.00" d=" M 13.17 21.32 C 16.61 21.56 19.85 20.32 23.05 19.24 C 23.37 19.48 24.00 19.97 24.31 20.21 C 24.60 20.45 25.19 20.92 25.49 21.15 L 26.15 20.11 C 28.65 21.89 31.67 22.07 34.53 21.13 C 33.04 24.11 36.18 25.77 37.84 27.73 C 37.06 27.51 35.50 27.07 34.72 26.85 C 34.72 29.40 36.03 31.45 38.03 32.96 C 38.08 32.26 38.18 30.87 38.23 30.18 C 37.61 30.10 36.38 29.95 35.77 29.87 C 37.32 28.95 38.77 27.80 40.47 27.17 C 40.16 28.41 39.41 29.57 39.39 30.86 C 40.01 32.32 42.33 30.57 42.71 32.08 C 42.41 33.88 42.41 35.70 43.61 37.22 C 45.08 36.96 44.33 35.48 44.13 34.55 C 44.52 34.41 45.29 34.13 45.67 33.99 C 45.75 34.76 45.92 36.31 46.00 37.08 C 42.84 38.38 45.65 41.19 46.43 43.15 C 44.13 43.96 41.86 43.11 39.77 42.10 C 39.46 42.58 38.84 43.55 38.54 44.03 C 38.42 43.24 38.20 41.65 38.09 40.85 C 40.44 41.28 42.69 42.08 44.97 42.75 C 45.16 39.83 42.85 39.21 40.54 38.76 L 39.65 40.63 C 39.10 39.44 39.33 38.19 39.73 36.99 C 40.40 37.51 41.76 38.55 42.43 39.07 C 42.93 36.51 40.85 33.92 38.50 36.11 C 38.37 36.79 38.12 38.15 37.99 38.83 C 37.47 38.05 36.43 36.49 35.91 35.72 C 34.51 37.97 36.33 39.56 38.09 40.85 C 36.95 41.27 34.83 42.62 37.43 43.77 C 36.88 43.79 35.79 43.83 35.24 43.85 C 35.28 43.08 35.37 41.54 35.41 40.77 C 34.60 41.51 32.97 42.98 32.16 43.71 C 30.81 43.75 29.46 43.78 28.11 43.79 C 29.59 43.44 31.07 43.11 32.56 42.81 C 31.82 41.79 31.09 40.76 30.36 39.73 C 30.93 40.22 32.06 41.20 32.63 41.69 C 33.48 41.32 35.19 40.56 36.05 40.18 C 35.05 39.68 33.05 38.67 32.06 38.16 C 32.64 37.68 33.79 36.72 34.37 36.24 C 34.65 35.48 34.93 34.72 35.21 33.96 C 36.30 35.45 37.71 35.85 39.43 35.16 C 38.11 34.15 36.77 33.16 35.43 32.16 C 35.03 32.53 34.24 33.27 33.84 33.63 C 32.62 34.24 31.40 34.85 30.18 35.46 C 29.79 35.23 29.01 34.78 28.62 34.55 C 28.21 35.60 27.39 37.69 26.98 38.74 C 27.81 38.65 29.47 38.47 30.29 38.39 C 28.96 38.88 27.63 39.37 26.29 39.84 C 27.00 37.33 27.97 34.92 28.97 32.52 C 26.61 31.85 24.62 33.04 22.69 34.22 C 23.32 33.62 24.58 32.41 25.21 31.80 C 23.85 31.42 22.47 31.07 21.09 30.74 C 20.47 29.77 19.83 28.81 19.24 27.81 C 19.08 27.30 18.75 26.27 18.58 25.76 C 18.85 24.25 19.09 22.74 19.33 21.22 C 18.55 21.31 16.99 21.48 16.21 21.57 C 16.32 22.13 16.53 23.26 16.64 23.83 C 16.19 23.45 15.28 22.69 14.82 22.30 C 14.31 23.56 13.80 24.83 13.31 26.10 L 13.15 26.54 C 13.34 24.80 13.41 23.05 13.17 21.32 M 22.14 23.13 C 22.11 24.41 22.08 25.69 22.06 26.97 C 25.34 28.59 28.89 29.48 32.46 30.23 C 32.41 29.45 32.31 27.90 32.26 27.13 C 28.68 26.37 25.28 24.99 22.14 23.13 M 29.27 34.71 C 29.83 34.48 30.93 34.00 31.48 33.76 C 31.26 32.25 28.20 33.54 29.27 34.71 Z" />
</g>
<g id="#100e0ae1">
<path fill="#100e0a" opacity="0.88" d=" M 54.57 25.69 C 53.70 23.59 53.17 21.22 54.44 19.15 C 55.65 20.96 55.49 23.77 54.57 25.69 Z" />
</g>
<g id="#cdcdcdff">
<path fill="#cdcdcd" opacity="1.00" d=" M 22.14 23.13 C 25.28 24.99 28.68 26.37 32.26 27.13 C 32.31 27.90 32.41 29.45 32.46 30.23 C 28.89 29.48 25.34 28.59 22.06 26.97 C 22.08 25.69 22.11 24.41 22.14 23.13 Z" />
<path fill="#cdcdcd" opacity="1.00" d=" M 32.09 45.19 C 35.42 45.28 30.57 48.22 32.09 45.19 Z" />
<path fill="#cdcdcd" opacity="1.00" d=" M 35.30 46.16 C 35.83 46.75 35.83 46.75 35.30 46.16 Z" />
<path fill="#cdcdcd" opacity="1.00" d=" M 13.01 47.84 C 14.57 47.46 16.15 47.13 17.72 46.79 C 17.51 47.29 17.09 48.29 16.89 48.79 C 16.78 49.34 16.58 50.44 16.48 50.99 C 15.66 51.79 14.80 52.54 13.92 53.27 L 13.38 53.13 C 13.36 52.49 13.32 51.21 13.31 50.57 C 14.27 49.99 15.24 49.42 16.20 48.84 C 15.12 48.75 14.04 48.67 12.96 48.59 C 12.97 48.40 13.00 48.03 13.01 47.84 Z" />
</g>
<g id="#bababaff">
<path fill="#bababa" opacity="1.00" d=" M 41.16 25.84 C 40.65 24.57 42.70 23.39 43.72 24.11 C 44.18 25.34 42.15 26.43 41.16 25.84 Z" />
</g>
<g id="#a7a7a7ff">
<path fill="#a7a7a7" opacity="1.00" d=" M 13.15 26.54 L 13.31 26.10 C 14.45 26.17 15.58 26.25 16.72 26.32 C 17.09 27.82 17.04 29.68 18.70 30.38 C 18.84 29.74 19.11 28.46 19.24 27.81 C 19.83 28.81 20.47 29.77 21.09 30.74 C 19.85 30.88 19.09 31.50 18.81 32.60 C 19.38 33.03 20.53 33.90 21.10 34.34 C 20.38 37.52 18.45 40.25 17.64 43.40 C 19.04 42.02 20.48 40.68 22.02 39.46 C 22.70 39.84 24.05 40.59 24.73 40.97 C 24.36 42.06 24.00 43.15 23.64 44.25 C 23.12 42.73 22.04 41.76 20.52 41.38 C 20.62 41.98 20.84 43.18 20.95 43.78 C 20.39 44.60 19.83 45.42 19.27 46.25 C 19.26 45.63 19.23 44.39 19.21 43.77 C 17.14 44.64 15.06 45.49 13.05 46.48 C 13.00 45.44 12.88 43.34 12.83 42.29 C 14.27 42.93 15.70 43.58 17.11 44.26 C 16.00 43.41 14.78 42.58 14.41 41.14 C 14.14 41.42 13.60 41.98 13.33 42.26 C 13.22 41.18 13.00 39.02 12.88 37.95 C 14.01 38.89 15.14 39.83 16.28 40.76 C 14.50 38.65 12.46 36.52 12.75 33.51 C 13.34 33.52 14.52 33.55 15.12 33.56 C 14.47 33.09 13.17 32.13 12.52 31.65 C 13.54 31.44 15.58 31.02 16.59 30.81 C 15.30 30.69 14.01 30.58 12.71 30.48 C 12.85 29.17 13.00 27.85 13.15 26.54 M 16.18 32.12 C 15.95 33.47 16.54 34.05 17.95 33.85 C 18.19 32.50 17.59 31.92 16.18 32.12 M 14.23 35.26 C 14.26 38.62 17.22 33.65 14.23 35.26 M 17.29 35.31 C 17.86 35.83 17.86 35.83 17.29 35.31 M 17.26 38.20 C 17.52 41.51 20.24 36.67 17.26 38.20 Z" />
</g>
<g id="#06060471">
<path fill="#060604" opacity="0.44" d=" M 54.51 55.89 C 54.81 46.12 54.49 36.35 54.80 26.59 C 55.42 37.27 54.44 48.01 55.55 58.67 C 53.01 60.52 50.32 62.71 47.00 62.68 C 41.49 63.14 36.27 61.08 31.00 59.84 C 25.69 58.50 20.45 56.89 15.10 55.69 C 12.51 54.87 9.30 54.45 7.93 51.78 C 9.75 52.19 11.57 52.65 13.38 53.13 L 13.92 53.27 C 15.71 53.79 17.49 54.37 19.30 54.83 L 20.89 55.24 C 21.90 55.59 22.93 55.85 23.99 56.04 C 24.46 56.15 25.41 56.37 25.88 56.48 C 27.11 56.79 28.33 57.09 29.57 57.35 C 31.25 57.85 32.93 58.40 34.56 59.07 C 35.99 59.99 37.87 60.49 39.44 59.58 C 39.69 59.74 40.19 60.06 40.43 60.22 C 41.04 60.52 42.26 61.12 42.87 61.42 C 44.22 61.73 45.60 62.03 46.99 62.07 C 48.39 61.16 49.50 59.90 50.69 58.75 C 51.02 58.44 51.70 57.82 52.04 57.51 C 52.66 57.11 53.89 56.29 54.51 55.89 Z" />
</g>
<g id="#b3b2b2ff">
<path fill="#b3b2b2" opacity="1.00" d=" M 44.25 30.26 C 44.73 30.82 44.73 30.82 44.25 30.26 Z" />
<path fill="#b3b2b2" opacity="1.00" d=" M 39.41 46.31 L 39.47 46.48 L 39.58 46.69 C 39.53 46.60 39.45 46.41 39.41 46.31 Z" />
</g>
<g id="#646363ff">
<path fill="#646363" opacity="1.00" d=" M 16.18 32.12 C 17.59 31.92 18.19 32.50 17.95 33.85 C 16.54 34.05 15.95 33.47 16.18 32.12 Z" />
</g>
<g id="#c7c6c6ff">
<path fill="#c7c6c6" opacity="1.00" d=" M 21.29 32.30 C 21.81 32.88 21.81 32.88 21.29 32.30 Z" />
</g>
<g id="#d6d6d6ff">
<path fill="#d6d6d6" opacity="1.00" d=" M 45.21 32.26 C 45.76 32.81 45.76 32.81 45.21 32.26 Z" />
</g>
<g id="#676767ff">
<path fill="#676767" opacity="1.00" d=" M 14.23 35.26 C 17.22 33.65 14.26 38.62 14.23 35.26 Z" />
</g>
<g id="#4c4c4cff">
<path fill="#4c4c4c" opacity="1.00" d=" M 17.29 35.31 C 17.86 35.83 17.86 35.83 17.29 35.31 Z" />
</g>
<g id="#b7b7b7ff">
<path fill="#b7b7b7" opacity="1.00" d=" M 23.01 35.18 C 24.43 35.03 25.10 35.63 25.00 36.98 C 23.57 37.13 22.91 36.53 23.01 35.18 Z" />
</g>
<g id="#656565ff">
<path fill="#656565" opacity="1.00" d=" M 17.26 38.20 C 20.24 36.67 17.52 41.51 17.26 38.20 Z" />
</g>
<g id="#aaaaa9ff">
<path fill="#aaaaa9" opacity="1.00" d=" M 23.22 38.04 C 24.57 37.84 25.09 38.45 24.80 39.86 C 23.44 40.07 22.91 39.46 23.22 38.04 Z" />
</g>
<g id="#cbcbcbff">
<path fill="#cbcbcb" opacity="1.00" d=" M 28.29 41.25 C 31.37 39.88 28.39 44.56 28.29 41.25 Z" />
</g>
<g id="#dfdfdfff">
<path fill="#dfdfdf" opacity="1.00" d=" M 37.24 46.38 C 37.81 46.96 37.81 46.96 37.24 46.38 Z" />
</g>
<g id="#949494ff">
<path fill="#949494" opacity="1.00" d=" M 18.96 47.58 C 20.38 47.11 20.90 47.55 20.53 48.92 C 19.09 49.40 18.56 48.96 18.96 47.58 Z" />
</g>
<g id="#adadadff">
<path fill="#adadad" opacity="1.00" d=" M 32.35 49.13 C 33.16 48.10 35.40 49.19 34.45 50.43 C 33.65 51.51 31.46 50.35 32.35 49.13 Z" />
</g>
<g id="#b6b6b6ff">
<path fill="#b6b6b6" opacity="1.00" d=" M 32.28 53.20 C 33.61 50.23 36.75 53.54 33.80 54.83 C 32.67 54.90 32.17 54.36 32.28 53.20 Z" />
</g>
<g id="#424140ff">
<path fill="#424140" opacity="1.00" d=" M 41.33 52.16 C 41.86 52.75 41.86 52.75 41.33 52.16 Z" />
</g>
<g id="#363330e9">
<path fill="#363330" opacity="0.91" d=" M 20.89 55.24 C 21.33 54.32 21.99 53.65 22.85 53.25 C 23.17 53.48 23.80 53.93 24.11 54.15 C 24.08 54.63 24.02 55.57 23.99 56.04 C 22.93 55.85 21.90 55.59 20.89 55.24 Z" />
</g>
<g id="#b7b6b6ff">
<path fill="#b7b6b6" opacity="1.00" d=" M 36.02 54.08 C 37.69 53.66 38.29 54.22 37.82 55.79 C 36.14 56.21 35.54 55.64 36.02 54.08 Z" />
</g>
<g id="#0e0d0cff">
<path fill="#0e0d0c" opacity="1.00" d=" M 46.87 58.47 C 47.18 58.22 47.80 57.72 48.11 57.48 C 48.06 57.97 47.96 58.95 47.91 59.44 C 47.65 59.19 47.13 58.71 46.87 58.47 Z" />
</g>
<g id="#110f0ddc">
<path fill="#110f0d" opacity="0.86" d=" M 34.56 59.07 C 34.84 58.76 35.40 58.16 35.68 57.85 C 37.19 57.58 38.47 58.56 39.44 59.58 C 37.87 60.49 35.99 59.99 34.56 59.07 Z" />
</g>
<g id="#191816bf">
<path fill="#191816" opacity="0.75" d=" M 44.90 61.01 C 46.94 60.56 48.89 59.81 50.69 58.75 C 49.50 59.90 48.39 61.16 46.99 62.07 C 45.60 62.03 44.22 61.73 42.87 61.42 C 43.38 61.32 44.39 61.11 44.90 61.01 Z" />
</g>
</svg>
