<?xml version="1.0" encoding="UTF-8" ?>
<!DOCTYPE svg PUBLIC "-//W3C//DTD SVG 1.1//EN" "http://www.w3.org/Graphics/SVG/1.1/DTD/svg11.dtd">
<svg width="64pt" height="64pt" viewBox="0 0 64 64" version="1.1" xmlns="http://www.w3.org/2000/svg">
<g id="#b0854df8">
<path fill="#b0854d" opacity="0.97" d=" M 12.72 14.70 C 17.91 6.98 28.99 4.15 37.23 8.49 C 42.09 10.65 44.86 15.38 47.75 19.56 C 47.85 16.54 46.89 13.69 46.10 10.83 C 45.15 8.39 48.72 8.99 49.93 9.54 C 55.27 11.47 60.65 14.46 63.99 19.17 C 62.08 21.48 58.57 20.48 56.37 22.30 C 53.94 24.44 52.31 27.30 50.61 30.01 C 47.07 35.84 43.19 41.53 38.50 46.49 C 36.79 48.37 33.36 47.96 32.11 50.16 C 32.92 53.67 34.05 57.12 33.92 60.78 C 33.23 60.78 31.84 60.77 31.15 60.77 C 31.15 57.03 31.28 53.30 31.45 49.56 C 29.79 49.61 28.12 49.66 26.45 49.69 C 27.11 53.70 27.81 57.70 27.85 61.77 C 26.62 61.75 25.39 61.73 24.16 61.71 C 24.85 59.18 25.37 56.61 26.22 54.12 C 26.13 52.76 26.05 51.40 25.95 50.04 C 19.90 49.63 16.36 44.48 12.73 40.32 C 9.27 34.99 6.20 28.40 0.00 25.86 L 0.00 25.20 C 1.16 23.98 2.39 22.82 3.61 21.65 C 4.88 24.11 6.51 26.35 8.35 28.41 C 9.23 23.70 9.76 18.66 12.72 14.70 M 22.26 14.29 C 18.11 16.09 14.48 19.62 13.31 24.06 C 11.95 31.18 17.04 38.58 23.84 40.61 C 32.32 43.51 43.34 37.33 43.67 27.93 C 43.75 17.64 31.59 9.97 22.26 14.29 Z" />
</g>
</svg>
