<?xml version="1.0" encoding="UTF-8" ?>
<!DOCTYPE svg PUBLIC "-//W3C//DTD SVG 1.1//EN" "http://www.w3.org/Graphics/SVG/1.1/DTD/svg11.dtd">
<svg width="64pt" height="64pt" viewBox="0 0 64 64" version="1.1" xmlns="http://www.w3.org/2000/svg">
<g id="#fc6816ff">
<path fill="#fc6816" opacity="1.00" d=" M 27.21 5.13 C 28.73 3.47 30.02 1.38 31.92 0.18 C 34.01 3.07 36.67 5.52 38.84 8.35 C 34.68 8.77 30.82 6.96 27.21 5.13 Z" />
</g>
<g id="#fa3b08ff">
<path fill="#fa3b08" opacity="1.00" d=" M 23.90 8.91 C 25.04 7.69 26.01 6.30 27.21 5.13 C 30.82 6.96 34.68 8.77 38.84 8.35 L 39.00 8.36 C 40.19 9.87 41.52 11.26 42.76 12.72 C 40.70 12.60 38.63 12.65 36.56 12.60 C 36.48 12.92 36.32 13.57 36.24 13.90 C 31.79 15.77 27.95 11.63 23.57 11.37 C 23.64 10.55 23.75 9.73 23.90 8.91 Z" />
</g>
<g id="#f91b02ff">
<path fill="#f91b02" opacity="1.00" d=" M 20.55 12.62 C 21.56 11.29 22.87 10.23 23.90 8.91 C 23.75 9.73 23.64 10.55 23.57 11.37 C 27.95 11.63 31.79 15.77 36.24 13.90 C 36.55 15.61 36.31 17.37 36.34 19.10 C 33.40 19.09 30.47 19.13 27.54 19.07 L 26.72 18.27 C 26.94 16.42 26.80 14.54 26.86 12.68 C 24.76 12.57 22.65 12.67 20.55 12.62 Z" />
</g>
<g id="#f1f1f1ff">
<path fill="#f1f1f1" opacity="1.00" d=" M 14.50 19.25 L 14.78 19.29 C 26.20 20.16 37.78 20.16 49.19 19.29 L 49.50 19.25 C 50.68 23.31 51.63 27.45 52.61 31.56 C 51.09 31.70 50.35 30.33 49.44 29.40 C 49.16 29.84 48.62 30.70 48.34 31.13 C 48.12 30.07 47.86 29.02 47.61 27.97 C 47.50 27.16 47.26 25.52 47.15 24.70 C 46.99 23.53 46.79 22.38 46.54 21.23 C 36.87 21.22 27.19 21.33 17.52 21.16 C 17.46 21.51 17.35 22.22 17.29 22.57 C 17.01 23.98 16.72 25.39 16.42 26.81 C 16.15 27.90 15.88 28.99 15.64 30.10 C 14.62 29.00 13.58 27.92 12.56 26.82 C 13.17 24.30 13.71 21.74 14.50 19.25 Z" />
</g>
<g id="#a49d9cd0">
<path fill="#a49d9c" opacity="0.82" d=" M 14.78 19.29 C 19.03 19.02 23.28 19.15 27.54 19.07 C 30.47 19.13 33.40 19.09 36.34 19.10 C 40.62 19.13 44.91 19.04 49.19 19.29 C 37.78 20.16 26.20 20.16 14.78 19.29 Z" />
</g>
<g id="#708cbaff">
<path fill="#708cba" opacity="1.00" d=" M 17.52 21.16 C 27.19 21.33 36.87 21.22 46.54 21.23 C 46.79 22.38 46.99 23.53 47.15 24.70 C 38.80 25.47 30.39 25.47 22.01 25.19 C 20.07 25.09 19.29 22.54 17.29 22.57 C 17.35 22.22 17.46 21.51 17.52 21.16 Z" />
</g>
<g id="#5176aeff">
<path fill="#5176ae" opacity="1.00" d=" M 17.29 22.57 C 19.29 22.54 20.07 25.09 22.01 25.19 C 30.39 25.47 38.80 25.47 47.15 24.70 C 47.26 25.52 47.50 27.16 47.61 27.97 C 46.26 28.99 44.60 29.26 42.95 29.29 C 36.97 29.18 30.99 29.25 25.02 29.23 C 22.65 29.32 20.18 29.12 17.95 30.07 C 17.43 28.99 16.92 27.90 16.42 26.81 C 16.72 25.39 17.01 23.98 17.29 22.57 Z" />
</g>
<g id="#fffefeff">
<path fill="#fffefe" opacity="1.00" d=" M 7.94 47.15 C 8.65 40.24 11.12 33.61 12.56 26.82 C 13.58 27.92 14.62 29.00 15.64 30.10 C 14.90 34.48 13.89 38.82 13.05 43.18 C 14.47 43.22 15.88 43.23 17.30 43.21 C 19.34 43.27 21.38 43.12 23.41 43.31 C 23.57 43.51 23.90 43.92 24.06 44.12 C 24.00 44.90 23.88 46.45 23.82 47.23 C 18.52 47.13 13.23 47.30 7.94 47.15 Z" />
</g>
<g id="#6d9ad2ff">
<path fill="#6d9ad2" opacity="1.00" d=" M 15.64 30.10 C 15.88 28.99 16.15 27.90 16.42 26.81 C 16.92 27.90 17.43 28.99 17.95 30.07 C 17.56 34.44 17.36 38.82 17.30 43.21 C 15.88 43.23 14.47 43.22 13.05 43.18 C 13.89 38.82 14.90 34.48 15.64 30.10 Z" />
</g>
<g id="#6a97cfff">
<path fill="#6a97cf" opacity="1.00" d=" M 47.61 27.97 C 47.86 29.02 48.12 30.07 48.34 31.13 C 48.77 34.05 49.35 36.96 49.93 39.85 C 50.06 40.66 50.31 42.27 50.43 43.08 C 49.04 43.11 47.65 43.11 46.26 43.06 C 46.61 38.84 47.04 34.41 45.51 30.36 C 44.68 29.93 43.83 29.57 42.95 29.29 C 44.60 29.26 46.26 28.99 47.61 27.97 Z" />
</g>
<g id="#a2bfe7ff">
<path fill="#a2bfe7" opacity="1.00" d=" M 17.95 30.07 C 20.18 29.12 22.65 29.32 25.02 29.23 C 30.99 29.25 36.97 29.18 42.95 29.29 C 43.83 29.57 44.68 29.93 45.51 30.36 C 47.04 34.41 46.61 38.84 46.26 43.06 C 44.28 43.08 42.30 42.95 40.33 43.12 C 40.24 43.47 40.06 44.16 39.97 44.50 C 37.93 46.83 36.28 50.90 32.62 50.60 C 28.96 49.88 26.53 46.66 24.06 44.12 C 23.90 43.92 23.57 43.51 23.41 43.31 C 21.38 43.12 19.34 43.27 17.30 43.21 C 17.36 38.82 17.56 34.44 17.95 30.07 M 23.66 30.98 C 22.60 36.08 28.77 38.98 33.03 38.43 C 36.89 38.35 42.19 34.58 39.83 30.28 C 35.06 28.93 29.88 29.28 25.01 29.96 C 24.67 30.21 24.00 30.72 23.66 30.98 Z" />
</g>
<g id="#fdfdfdff">
<path fill="#fdfdfd" opacity="1.00" d=" M 48.34 31.13 C 48.62 30.70 49.16 29.84 49.44 29.40 C 50.35 30.33 51.09 31.70 52.61 31.56 C 53.71 36.73 55.80 41.77 56.06 47.08 C 51.03 47.15 45.97 47.56 40.97 46.92 C 40.14 45.35 40.85 43.27 42.91 43.67 C 45.56 43.51 48.20 43.73 50.85 43.62 C 50.63 42.35 50.27 41.10 49.93 39.85 C 49.35 36.96 48.77 34.05 48.34 31.13 Z" />
</g>
<g id="#c4d7ebff">
<path fill="#c4d7eb" opacity="1.00" d=" M 23.66 30.98 C 24.00 30.72 24.67 30.21 25.01 29.96 C 29.88 29.28 35.06 28.93 39.83 30.28 C 42.19 34.58 36.89 38.35 33.03 38.43 C 28.77 38.98 22.60 36.08 23.66 30.98 Z" />
</g>
<g id="#e7eaedff">
<path fill="#e7eaed" opacity="1.00" d=" M 49.93 39.85 C 50.27 41.10 50.63 42.35 50.85 43.62 C 48.20 43.73 45.56 43.51 42.91 43.67 C 40.85 43.27 40.14 45.35 40.97 46.92 C 45.97 47.56 51.03 47.15 56.06 47.08 C 56.22 51.59 55.37 56.06 55.07 60.56 L 54.03 61.14 C 39.11 61.04 24.17 61.05 9.25 61.13 C 8.68 56.54 7.90 51.83 7.94 47.15 C 13.23 47.30 18.52 47.13 23.82 47.23 C 25.22 54.10 35.85 54.84 39.31 49.28 C 40.41 47.92 39.88 46.09 39.97 44.50 C 40.06 44.16 40.24 43.47 40.33 43.12 C 42.30 42.95 44.28 43.08 46.26 43.06 C 47.65 43.11 49.04 43.11 50.43 43.08 C 50.31 42.27 50.06 40.66 49.93 39.85 Z" />
</g>
<g id="#859ac4ff">
<path fill="#859ac4" opacity="1.00" d=" M 24.06 44.12 C 26.53 46.66 28.96 49.88 32.62 50.60 C 36.28 50.90 37.93 46.83 39.97 44.50 C 39.88 46.09 40.41 47.92 39.31 49.28 C 35.85 54.84 25.22 54.10 23.82 47.23 C 23.88 46.45 24.00 44.90 24.06 44.12 Z" />
</g>
<g id="#00000025">
<path fill="#000000" opacity="0.15" d=" M 8.94 62.06 C 23.95 61.85 38.98 62.06 54.00 61.96 C 54.24 62.16 54.73 62.57 54.98 62.77 C 41.01 63.32 27.00 62.83 13.01 63.03 C 11.70 62.76 9.70 63.51 8.94 62.06 Z" />
</g>
</svg>
