<?xml version="1.0" encoding="UTF-8" ?>
<!DOCTYPE svg PUBLIC "-//W3C//DTD SVG 1.1//EN" "http://www.w3.org/Graphics/SVG/1.1/DTD/svg11.dtd">
<svg width="64pt" height="64pt" viewBox="0 0 64 64" version="1.1" xmlns="http://www.w3.org/2000/svg">
<g id="#b41d04dc">
<path fill="#b41d04" opacity="0.86" d=" M 31.90 6.27 C 37.30 6.20 42.69 6.20 48.08 6.27 C 48.03 7.30 47.99 8.33 47.94 9.36 L 47.90 10.49 C 47.41 9.38 46.86 8.29 46.33 7.20 C 42.09 7.27 37.85 7.25 33.61 7.23 C 33.10 8.30 32.57 9.36 32.11 10.45 L 32.06 9.56 C 32.00 8.46 31.95 7.37 31.90 6.27 Z" />
</g>
<g id="#fa2704ff">
<path fill="#fa2704" opacity="1.00" d=" M 32.11 10.45 C 32.57 9.36 33.10 8.30 33.61 7.23 C 37.85 7.25 42.09 7.27 46.33 7.20 C 46.86 8.29 47.41 9.38 47.90 10.49 C 47.95 11.45 48.06 13.38 48.12 14.34 L 48.26 15.70 C 44.96 16.07 41.62 15.76 38.32 16.11 C 36.12 16.82 34.01 17.79 31.93 18.80 L 31.94 17.75 C 31.94 16.62 31.95 15.50 31.96 14.38 C 32.00 13.40 32.08 11.43 32.11 10.45 Z" />
</g>
<g id="#2b2c2aff">
<path fill="#2b2c2a" opacity="1.00" d=" M 6.51 13.76 C 8.99 11.18 12.44 9.58 16.05 9.60 C 21.38 9.51 26.72 9.66 32.06 9.56 L 32.11 10.45 C 28.39 10.48 24.67 10.48 20.96 10.27 C 22.64 11.49 24.35 12.69 25.83 14.16 C 26.62 15.33 27.35 16.53 27.98 17.79 C 28.11 18.27 28.38 19.22 28.51 19.69 L 26.79 19.38 C 25.63 19.25 24.46 19.17 23.30 19.09 C 23.98 18.31 24.65 17.52 25.33 16.74 C 19.92 12.67 12.91 11.84 6.51 13.76 Z" />
</g>
<g id="#2f6388e8">
<path fill="#2f6388" opacity="0.91" d=" M 47.94 9.36 C 51.34 9.86 54.79 10.90 57.20 13.49 C 56.86 13.73 56.17 14.21 55.83 14.45 C 54.04 11.73 50.77 11.29 47.90 10.49 L 47.94 9.36 Z" />
</g>
<g id="#65b9f7ff">
<path fill="#65b9f7" opacity="1.00" d=" M 20.96 10.27 C 24.67 10.48 28.39 10.48 32.11 10.45 C 32.08 11.43 32.00 13.40 31.96 14.38 C 29.92 14.32 27.87 14.25 25.83 14.16 C 24.35 12.69 22.64 11.49 20.96 10.27 Z" />
</g>
<g id="#5ca7deff">
<path fill="#5ca7de" opacity="1.00" d=" M 47.90 10.49 C 50.77 11.29 54.04 11.73 55.83 14.45 C 53.26 14.51 50.69 14.46 48.12 14.34 C 48.06 13.38 47.95 11.45 47.90 10.49 Z" />
</g>
<g id="#494948ff">
<path fill="#494948" opacity="1.00" d=" M 6.51 13.76 C 12.91 11.84 19.92 12.67 25.33 16.74 C 24.65 17.52 23.98 18.31 23.30 19.09 C 19.95 19.25 16.60 19.04 13.24 19.01 C 13.40 18.06 13.56 17.11 13.72 16.16 C 10.32 15.40 5.62 15.36 4.77 19.64 C 3.03 29.00 3.74 38.58 3.80 48.03 C 4.28 52.08 9.15 49.75 11.76 49.81 C 16.33 50.43 20.94 50.32 25.51 49.67 L 25.54 51.16 C 18.11 51.22 10.67 51.20 3.24 51.18 C 3.18 41.78 3.23 32.38 3.19 22.98 C 3.06 19.60 4.40 16.35 6.51 13.76 Z" />
</g>
<g id="#ffffffff">
<path fill="#ffffff" opacity="1.00" d=" M 25.83 14.16 C 27.87 14.25 29.92 14.32 31.96 14.38 C 31.95 15.50 31.94 16.62 31.94 17.75 C 30.62 17.76 29.30 17.78 27.98 17.79 C 27.35 16.53 26.62 15.33 25.83 14.16 Z" />
</g>
<g id="#c9f4fbff">
<path fill="#c9f4fb" opacity="1.00" d=" M 48.12 14.34 C 50.69 14.46 53.26 14.51 55.83 14.45 L 55.83 14.52 C 55.77 15.20 55.67 16.56 55.61 17.23 C 49.93 17.57 44.27 18.74 38.56 18.04 C 41.73 16.99 45.05 16.71 48.36 16.59 C 48.34 16.37 48.29 15.92 48.26 15.70 L 48.12 14.34 Z" />
</g>
<g id="#5c8d9df3">
<path fill="#5c8d9d" opacity="0.95" d=" M 55.83 14.45 C 56.17 14.21 56.86 13.73 57.20 13.49 C 57.87 14.31 58.50 15.16 59.08 16.04 C 59.16 16.72 59.33 18.09 59.42 18.77 L 58.64 17.90 C 57.65 16.82 56.68 15.72 55.83 14.52 L 55.83 14.45 Z" />
</g>
<g id="#f1e4e1ff">
<path fill="#f1e4e1" opacity="1.00" d=" M 48.26 15.70 C 48.29 15.92 48.34 16.37 48.36 16.59 C 45.05 16.71 41.73 16.99 38.56 18.04 L 38.33 18.09 C 38.32 17.59 38.32 16.60 38.32 16.11 C 41.62 15.76 44.96 16.07 48.26 15.70 Z" />
</g>
<g id="#6fd2f9ff">
<path fill="#6fd2f9" opacity="1.00" d=" M 55.83 14.52 C 56.68 15.72 57.65 16.82 58.64 17.90 C 58.16 19.34 57.68 20.77 57.19 22.21 C 50.53 22.24 44.66 25.61 38.39 27.33 C 38.39 26.93 38.39 26.13 38.39 25.73 C 38.45 23.18 38.38 20.63 38.33 18.09 L 38.56 18.04 C 44.27 18.74 49.93 17.57 55.61 17.23 C 55.67 16.56 55.77 15.20 55.83 14.52 Z" />
</g>
<g id="#5c5b5bff">
<path fill="#5c5b5b" opacity="1.00" d=" M 4.77 19.64 C 5.62 15.36 10.32 15.40 13.72 16.16 C 13.56 17.11 13.40 18.06 13.24 19.01 L 13.07 19.95 C 12.64 22.44 12.17 24.92 11.67 27.39 C 11.10 24.69 10.49 22.00 9.77 19.34 C 8.11 19.44 6.44 19.55 4.77 19.64 Z" />
</g>
<g id="#e42303ff">
<path fill="#e42303" opacity="1.00" d=" M 31.93 18.80 C 34.01 17.79 36.12 16.82 38.32 16.11 C 38.32 16.60 38.32 17.59 38.33 18.09 C 38.38 20.63 38.45 23.18 38.39 25.73 C 38.18 27.79 37.90 29.84 37.62 31.90 C 37.24 30.79 36.85 29.68 36.45 28.57 C 35.38 28.45 34.31 28.33 33.23 28.21 C 32.82 26.76 32.39 25.31 32.03 23.85 C 32.00 23.26 31.95 22.07 31.92 21.48 C 31.92 20.81 31.93 19.47 31.93 18.80 Z" />
</g>
<g id="#19415dd0">
<path fill="#19415d" opacity="0.82" d=" M 59.08 16.04 C 60.55 18.44 61.06 21.27 60.99 24.06 C 60.91 33.33 60.89 42.61 60.85 51.89 L 59.78 50.05 L 59.71 49.70 C 60.15 42.36 59.28 35.01 59.66 27.65 C 59.68 26.01 59.67 24.37 59.66 22.72 C 59.65 21.40 59.58 20.08 59.42 18.77 C 59.33 18.09 59.16 16.72 59.08 16.04 Z" />
</g>
<g id="#7bdefdff">
<path fill="#7bdefd" opacity="1.00" d=" M 27.98 17.79 C 29.30 17.78 30.62 17.76 31.94 17.75 L 31.93 18.80 C 31.93 19.47 31.92 20.81 31.92 21.48 C 30.61 23.22 29.53 25.14 28.92 27.25 C 28.93 24.73 29.10 22.16 28.51 19.69 C 28.38 19.22 28.11 18.27 27.98 17.79 Z" />
</g>
<g id="#54aaedff">
<path fill="#54aaed" opacity="1.00" d=" M 58.64 17.90 L 59.42 18.77 C 59.58 20.08 59.65 21.40 59.66 22.72 C 58.38 24.97 57.28 27.90 54.43 28.49 C 49.13 30.17 43.65 31.21 38.41 33.09 C 38.40 31.17 38.39 29.25 38.39 27.33 C 44.66 25.61 50.53 22.24 57.19 22.21 C 57.68 20.77 58.16 19.34 58.64 17.90 Z" />
</g>
<g id="#7e7e7eff">
<path fill="#7e7e7e" opacity="1.00" d=" M 4.77 19.64 C 6.44 19.55 8.11 19.44 9.77 19.34 C 10.49 22.00 11.10 24.69 11.67 27.39 C 12.17 24.92 12.64 22.44 13.07 19.95 L 13.49 19.96 C 15.94 22.50 18.16 25.25 20.56 27.83 C 21.65 29.04 22.72 30.27 23.80 31.48 C 23.59 31.77 23.15 32.34 22.93 32.62 L 22.69 32.97 C 21.90 31.98 21.12 30.99 20.33 30.01 C 17.97 27.06 15.41 24.27 12.98 21.37 C 13.02 27.64 13.02 33.90 13.02 40.17 C 13.00 42.64 13.05 45.10 13.04 47.57 C 13.02 48.08 13.00 49.11 12.98 49.62 C 14.12 48.81 15.25 48.00 16.38 47.18 C 16.33 47.80 16.24 49.04 16.20 49.66 C 17.98 49.33 19.89 49.35 21.54 48.51 C 23.41 47.22 23.43 44.70 23.77 42.68 C 22.19 43.43 20.62 44.20 19.06 45.00 C 21.86 42.23 25.44 39.26 24.75 34.84 C 27.72 39.13 26.17 44.61 26.64 49.46 C 26.36 49.51 25.79 49.62 25.51 49.67 C 20.94 50.32 16.33 50.43 11.76 49.81 C 9.15 49.75 4.28 52.08 3.80 48.03 C 3.74 38.58 3.03 29.00 4.77 19.64 M 4.84 31.99 C 5.06 37.57 4.37 43.20 5.35 48.72 C 7.11 49.27 9.94 49.46 10.25 47.03 C 10.68 42.02 10.48 36.98 10.51 31.95 C 10.55 29.31 9.67 26.10 6.89 25.15 C 5.37 27.12 4.64 29.51 4.84 31.99 Z" />
</g>
<g id="#cfcfcfff">
<path fill="#cfcfcf" opacity="1.00" d=" M 13.24 19.01 C 16.60 19.04 19.95 19.25 23.30 19.09 C 25.62 23.15 24.15 28.03 24.70 32.46 L 23.80 31.48 C 22.72 30.27 21.65 29.04 20.56 27.83 C 21.95 25.24 20.74 22.41 20.18 19.78 C 17.95 19.84 15.72 19.93 13.49 19.96 L 13.07 19.95 L 13.24 19.01 Z" />
</g>
<g id="#939393ff">
<path fill="#939393" opacity="1.00" d=" M 23.30 19.09 C 24.46 19.17 25.63 19.25 26.79 19.38 C 26.62 24.43 26.88 29.48 26.72 34.53 C 26.04 33.85 25.36 33.16 24.70 32.46 C 24.15 28.03 25.62 23.15 23.30 19.09 Z" />
</g>
<g id="#f3f3f3ff">
<path fill="#f3f3f3" opacity="1.00" d=" M 13.49 19.96 C 15.72 19.93 17.95 19.84 20.18 19.78 C 20.74 22.41 21.95 25.24 20.56 27.83 C 18.16 25.25 15.94 22.50 13.49 19.96 Z" />
</g>
<g id="#5a5f5fff">
<path fill="#5a5f5f" opacity="1.00" d=" M 26.79 19.38 L 28.51 19.69 C 29.10 22.16 28.93 24.73 28.92 27.25 C 28.85 29.90 28.95 32.56 28.84 35.22 L 28.70 35.89 C 28.26 36.02 27.36 36.28 26.92 36.40 C 28.16 40.40 27.95 44.62 27.55 48.74 L 26.64 49.46 C 26.17 44.61 27.72 39.13 24.75 34.84 C 24.29 34.29 23.38 33.18 22.93 32.62 C 23.15 32.34 23.59 31.77 23.80 31.48 L 24.70 32.46 C 25.36 33.16 26.04 33.85 26.72 34.53 C 26.88 29.48 26.62 24.43 26.79 19.38 Z" />
</g>
<g id="#efefefff">
<path fill="#efefef" opacity="1.00" d=" M 12.98 21.37 C 15.41 24.27 17.97 27.06 20.33 30.01 C 20.13 34.69 16.19 37.36 13.02 40.17 C 13.02 33.90 13.02 27.64 12.98 21.37 Z" />
</g>
<g id="#64b7f0ff">
<path fill="#64b7f0" opacity="1.00" d=" M 28.92 27.25 C 29.53 25.14 30.61 23.22 31.92 21.48 C 31.95 22.07 32.00 23.26 32.03 23.85 C 32.07 25.73 32.04 27.61 32.05 29.49 C 30.89 31.35 29.79 33.25 28.84 35.22 C 28.95 32.56 28.85 29.90 28.92 27.25 Z" />
</g>
<g id="#3d92d5ff">
<path fill="#3d92d5" opacity="1.00" d=" M 54.43 28.49 C 57.28 27.90 58.38 24.97 59.66 22.72 C 59.67 24.37 59.68 26.01 59.66 27.65 C 59.26 28.81 58.86 29.97 58.47 31.13 C 52.04 33.91 45.50 36.73 38.44 37.42 C 38.44 35.97 38.43 34.53 38.41 33.09 C 43.65 31.21 49.13 30.17 54.43 28.49 Z" />
</g>
<g id="#cd1c02ff">
<path fill="#cd1c02" opacity="1.00" d=" M 32.03 23.85 C 32.39 25.31 32.82 26.76 33.23 28.21 C 34.31 28.33 35.38 28.45 36.45 28.57 C 36.85 29.68 37.24 30.79 37.62 31.90 C 37.90 29.84 38.18 27.79 38.39 25.73 C 38.39 26.13 38.39 26.93 38.39 27.33 C 38.39 29.25 38.40 31.17 38.41 33.09 C 38.43 34.53 38.44 35.97 38.44 37.42 C 38.65 39.25 37.56 40.65 36.23 41.76 C 34.23 41.68 32.44 40.70 31.78 38.70 C 32.11 35.64 32.10 32.56 32.05 29.49 C 32.04 27.61 32.07 25.73 32.03 23.85 Z" />
</g>
<g id="#a1a1a0ff">
<path fill="#a1a1a0" opacity="1.00" d=" M 4.84 31.99 C 4.64 29.51 5.37 27.12 6.89 25.15 C 9.67 26.10 10.55 29.31 10.51 31.95 C 10.48 36.98 10.68 42.02 10.25 47.03 C 9.94 49.46 7.11 49.27 5.35 48.72 C 4.37 43.20 5.06 37.57 4.84 31.99 Z" />
</g>
<g id="#1672b8ff">
<path fill="#1672b8" opacity="1.00" d=" M 59.66 27.65 C 59.28 35.01 60.15 42.36 59.71 49.70 C 59.49 49.54 59.04 49.22 58.81 49.06 C 59.06 45.98 59.06 42.88 58.84 39.80 C 57.58 41.46 57.09 44.13 54.85 44.77 C 46.33 47.40 37.45 48.39 28.57 48.83 C 28.53 47.39 28.51 45.94 28.55 44.50 C 29.55 42.52 30.71 40.63 31.78 38.70 C 32.44 40.70 34.23 41.68 36.23 41.76 C 43.76 42.11 50.87 38.95 57.40 35.55 C 57.73 34.07 58.07 32.59 58.47 31.13 C 58.86 29.97 59.26 28.81 59.66 27.65 Z" />
</g>
<g id="#d7d7d7ff">
<path fill="#d7d7d7" opacity="1.00" d=" M 20.33 30.01 C 21.12 30.99 21.90 31.98 22.69 32.97 C 21.74 35.56 21.26 38.36 19.78 40.73 C 17.99 43.42 15.33 45.34 13.04 47.57 C 13.05 45.10 13.00 42.64 13.02 40.17 C 16.19 37.36 20.13 34.69 20.33 30.01 Z" />
</g>
<g id="#4096d6ff">
<path fill="#4096d6" opacity="1.00" d=" M 28.84 35.22 C 29.79 33.25 30.89 31.35 32.05 29.49 C 32.10 32.56 32.11 35.64 31.78 38.70 C 30.71 40.63 29.55 42.52 28.55 44.50 C 28.58 41.63 28.55 38.76 28.70 35.89 L 28.84 35.22 Z" />
</g>
<g id="#3085c9ff">
<path fill="#3085c9" opacity="1.00" d=" M 38.44 37.42 C 45.50 36.73 52.04 33.91 58.47 31.13 C 58.07 32.59 57.73 34.07 57.40 35.55 C 50.87 38.95 43.76 42.11 36.23 41.76 C 37.56 40.65 38.65 39.25 38.44 37.42 Z" />
</g>
<g id="#b5b5b5ff">
<path fill="#b5b5b5" opacity="1.00" d=" M 22.69 32.97 L 22.93 32.62 C 23.38 33.18 24.29 34.29 24.75 34.84 C 25.44 39.26 21.86 42.23 19.06 45.00 C 20.62 44.20 22.19 43.43 23.77 42.68 C 23.43 44.70 23.41 47.22 21.54 48.51 C 19.89 49.35 17.98 49.33 16.20 49.66 C 16.24 49.04 16.33 47.80 16.38 47.18 C 15.25 48.00 14.12 48.81 12.98 49.62 C 13.00 49.11 13.02 48.08 13.04 47.57 C 15.33 45.34 17.99 43.42 19.78 40.73 C 21.26 38.36 21.74 35.56 22.69 32.97 Z" />
</g>
<g id="#2e220fff">
<path fill="#2e220f" opacity="1.00" d=" M 26.92 36.40 C 27.36 36.28 28.26 36.02 28.70 35.89 C 28.55 38.76 28.58 41.63 28.55 44.50 C 28.51 45.94 28.53 47.39 28.57 48.83 C 28.60 49.43 28.64 50.64 28.67 51.24 C 32.98 51.04 37.31 50.63 41.63 51.02 C 41.58 55.34 41.60 59.67 41.61 64.00 L 41.39 64.00 C 41.44 61.08 41.19 58.11 39.70 55.53 C 39.54 55.16 39.22 54.43 39.05 54.07 C 37.60 50.99 33.35 50.86 30.79 52.57 C 30.31 52.93 29.34 53.65 28.86 54.01 C 28.53 54.53 27.88 55.58 27.55 56.10 C 27.15 57.20 26.69 58.28 26.18 59.33 L 25.71 59.57 C 25.67 56.76 25.58 53.96 25.54 51.16 L 25.51 49.67 C 25.79 49.62 26.36 49.51 26.64 49.46 L 27.55 48.74 C 27.95 44.62 28.16 40.40 26.92 36.40 Z" />
</g>
<g id="#035a9aff">
<path fill="#035a9a" opacity="1.00" d=" M 58.84 39.80 C 59.06 42.88 59.06 45.98 58.81 49.06 C 59.04 49.22 59.49 49.54 59.71 49.70 L 59.78 50.05 L 59.93 51.18 C 53.83 51.09 47.72 51.36 41.63 51.02 C 37.31 50.63 32.98 51.04 28.67 51.24 C 28.64 50.64 28.60 49.43 28.57 48.83 C 37.45 48.39 46.33 47.40 54.85 44.77 C 57.09 44.13 57.58 41.46 58.84 39.80 Z" />
</g>
<g id="#5a4527ff">
<path fill="#5a4527" opacity="1.00" d=" M 30.79 52.57 C 33.35 50.86 37.60 50.99 39.05 54.07 C 36.29 53.59 33.54 53.08 30.79 52.57 Z" />
</g>
<g id="#8b6f46ff">
<path fill="#8b6f46" opacity="1.00" d=" M 28.86 54.01 C 29.34 53.65 30.31 52.93 30.79 52.57 C 33.54 53.08 36.29 53.59 39.05 54.07 C 39.22 54.43 39.54 55.16 39.70 55.53 C 39.67 58.35 39.63 61.18 39.70 64.00 L 26.74 64.00 C 27.20 62.45 26.99 60.72 26.18 59.33 C 26.69 58.28 27.15 57.20 27.55 56.10 C 28.94 57.47 30.15 54.91 28.86 54.01 M 30.30 62.38 C 32.38 63.08 34.59 63.48 36.68 62.59 C 36.64 61.28 36.61 59.97 36.59 58.65 C 35.73 57.72 34.87 56.79 34.00 55.87 C 32.08 57.57 29.95 59.52 30.30 62.38 Z" />
</g>
<g id="#644d2cff">
<path fill="#644d2c" opacity="1.00" d=" M 27.55 56.10 C 27.88 55.58 28.53 54.53 28.86 54.01 C 30.15 54.91 28.94 57.47 27.55 56.10 Z" />
</g>
<g id="#5d482afb">
<path fill="#5d482a" opacity="1.00" d=" M 39.70 55.53 C 41.19 58.11 41.44 61.08 41.39 64.00 L 39.70 64.00 C 39.63 61.18 39.67 58.35 39.70 55.53 Z" />
</g>
<g id="#ceb47bff">
<path fill="#ceb47b" opacity="1.00" d=" M 30.30 62.38 C 29.95 59.52 32.08 57.57 34.00 55.87 C 34.87 56.79 35.73 57.72 36.59 58.65 C 36.61 59.97 36.64 61.28 36.68 62.59 C 34.59 63.48 32.38 63.08 30.30 62.38 Z" />
</g>
<g id="#594227fc">
<path fill="#594227" opacity="1.00" d=" M 25.71 59.57 L 26.18 59.33 C 26.99 60.72 27.20 62.45 26.74 64.00 L 26.20 64.00 C 25.28 62.69 25.56 61.04 25.71 59.57 Z" />
</g>
</svg>
