<?xml version="1.0" encoding="UTF-8" ?>
<!DOCTYPE svg PUBLIC "-//W3C//DTD SVG 1.1//EN" "http://www.w3.org/Graphics/SVG/1.1/DTD/svg11.dtd">
<svg width="64pt" height="64pt" viewBox="0 0 64 64" version="1.1" xmlns="http://www.w3.org/2000/svg">
<g id="#1f2121f9">
<path fill="#1f2121" opacity="0.98" d=" M 7.82 11.76 C 11.29 9.36 15.63 8.55 19.80 9.11 C 20.72 9.69 21.64 10.27 22.57 10.83 C 22.87 11.02 23.46 11.39 23.76 11.58 C 24.21 11.90 25.12 12.52 25.57 12.84 C 25.92 13.16 26.61 13.79 26.96 14.11 C 27.01 14.65 27.12 15.72 27.18 16.26 C 26.94 16.29 26.46 16.35 26.22 16.38 C 21.34 11.61 14.19 11.79 7.82 11.76 Z" />
</g>
<g id="#275d89fc">
<path fill="#275d89" opacity="1.00" d=" M 19.80 9.11 C 30.27 9.22 40.84 8.26 51.25 9.72 C 41.76 10.74 31.87 8.71 22.57 10.83 C 21.64 10.27 20.72 9.69 19.80 9.11 Z" />
</g>
<g id="#4080b0f9">
<path fill="#4080b0" opacity="0.98" d=" M 22.57 10.83 C 31.87 8.71 41.76 10.74 51.25 9.72 C 54.04 10.02 56.55 11.56 58.18 13.84 C 57.70 13.80 56.73 13.74 56.25 13.71 C 53.15 11.96 49.66 10.68 46.01 11.05 C 38.61 11.13 31.08 10.33 23.76 11.58 C 23.46 11.39 22.87 11.02 22.57 10.83 Z" />
</g>
<g id="#5eabe2ff">
<path fill="#5eabe2" opacity="1.00" d=" M 23.76 11.58 C 31.08 10.33 38.61 11.13 46.01 11.05 C 49.66 10.68 53.15 11.96 56.25 13.71 L 56.37 14.65 C 55.32 14.35 54.26 14.06 53.21 13.78 C 44.34 11.44 34.50 11.00 25.57 12.84 C 25.12 12.52 24.21 11.90 23.76 11.58 Z" />
</g>
<g id="#2f2f2efb">
<path fill="#2f2f2e" opacity="1.00" d=" M 4.65 15.74 C 5.46 14.25 6.39 12.73 7.82 11.76 C 14.19 11.79 21.34 11.61 26.22 16.38 C 26.46 16.35 26.94 16.29 27.18 16.26 L 27.85 15.84 C 27.89 16.38 27.95 17.44 27.99 17.97 C 27.97 18.76 27.93 20.32 27.91 21.11 C 22.57 14.74 12.04 11.71 4.65 15.74 Z" />
</g>
<g id="#6ec2f4ff">
<path fill="#6ec2f4" opacity="1.00" d=" M 25.57 12.84 C 34.50 11.00 44.34 11.44 53.21 13.78 C 50.47 13.85 47.73 13.92 44.99 13.99 C 38.98 13.99 32.97 14.00 26.96 14.11 C 26.61 13.79 25.92 13.16 25.57 12.84 Z" />
</g>
<g id="#434343fc">
<path fill="#434343" opacity="1.00" d=" M 4.65 15.74 C 12.04 11.71 22.57 14.74 27.91 21.11 C 27.93 20.32 27.97 18.76 27.99 17.97 L 29.01 18.02 C 29.07 19.82 29.18 23.42 29.23 25.23 C 29.09 28.62 28.98 32.01 29.00 35.41 C 28.26 30.98 28.32 26.15 25.68 22.30 C 20.33 19.12 14.24 17.57 8.19 16.40 C 6.00 16.99 4.33 18.78 3.91 21.00 C 3.71 21.56 3.31 22.66 3.11 23.21 C 2.89 20.61 3.02 17.91 4.65 15.74 Z" />
</g>
<g id="#c6f3faff">
<path fill="#c6f3fa" opacity="1.00" d=" M 26.96 14.11 C 32.97 14.00 38.98 13.99 44.99 13.99 L 45.01 14.95 C 39.45 15.75 33.04 13.57 27.85 15.84 L 27.18 16.26 C 27.12 15.72 27.01 14.65 26.96 14.11 Z" />
</g>
<g id="#9ce3eeff">
<path fill="#9ce3ee" opacity="1.00" d=" M 44.99 13.99 C 47.73 13.92 50.47 13.85 53.21 13.78 C 54.26 14.06 55.32 14.35 56.37 14.65 C 57.06 15.64 57.73 16.64 58.29 17.71 C 56.26 17.89 54.23 18.03 52.20 18.20 C 51.61 18.12 50.43 17.96 49.84 17.88 C 51.18 17.60 53.88 17.06 55.22 16.78 C 53.74 14.16 50.61 15.05 47.99 15.00 C 47.25 14.99 45.76 14.96 45.01 14.95 L 44.99 13.99 Z" />
</g>
<g id="#63a7b5fa">
<path fill="#63a7b5" opacity="0.98" d=" M 56.25 13.71 C 56.73 13.74 57.70 13.80 58.18 13.84 C 59.15 14.96 59.76 16.35 60.32 17.72 C 60.23 19.17 60.14 20.63 60.05 22.09 L 59.18 21.87 L 59.08 20.95 C 59.07 19.80 58.81 18.72 58.29 17.71 C 57.73 16.64 57.06 15.64 56.37 14.65 L 56.25 13.71 Z" />
</g>
<g id="#f7fdfdff">
<path fill="#f7fdfd" opacity="1.00" d=" M 27.85 15.84 C 33.04 13.57 39.45 15.75 45.01 14.95 C 45.76 14.96 47.25 14.99 47.99 15.00 C 48.24 15.50 48.75 16.49 49.00 16.99 C 44.28 17.36 39.31 16.16 34.74 17.76 C 32.83 17.92 30.92 17.99 29.01 18.02 L 27.99 17.97 C 27.95 17.44 27.89 16.38 27.85 15.84 Z" />
</g>
<g id="#caf6f9ff">
<path fill="#caf6f9" opacity="1.00" d=" M 47.99 15.00 C 50.61 15.05 53.74 14.16 55.22 16.78 C 53.88 17.06 51.18 17.60 49.84 17.88 C 44.80 17.94 39.76 18.12 34.74 17.76 C 39.31 16.16 44.28 17.36 49.00 16.99 C 48.75 16.49 48.24 15.50 47.99 15.00 Z" />
</g>
<g id="#585857ff">
<path fill="#585857" opacity="1.00" d=" M 8.19 16.40 C 14.24 17.57 20.33 19.12 25.68 22.30 C 28.32 26.15 28.26 30.98 29.00 35.41 C 29.02 37.07 29.05 40.40 29.07 42.06 C 29.05 43.77 29.03 47.18 29.02 48.89 C 28.99 49.36 28.94 50.32 28.91 50.79 C 28.17 50.86 26.70 50.98 25.96 51.04 C 26.26 50.56 26.86 49.60 27.16 49.12 C 28.46 42.03 28.32 33.95 26.07 26.96 C 21.98 21.86 14.81 20.92 8.88 19.19 C 6.92 18.38 5.42 20.07 3.91 21.00 C 4.33 18.78 6.00 16.99 8.19 16.40 Z" />
</g>
<g id="#89edfdff">
<path fill="#89edfd" opacity="1.00" d=" M 29.01 18.02 C 30.92 17.99 32.83 17.92 34.74 17.76 C 39.76 18.12 44.80 17.94 49.84 17.88 C 50.43 17.96 51.61 18.12 52.20 18.20 C 45.56 21.79 37.55 20.28 30.30 21.19 L 30.06 22.06 C 29.79 23.12 29.52 24.17 29.23 25.23 C 29.18 23.42 29.07 19.82 29.01 18.02 Z" />
</g>
<g id="#79dcf4ff">
<path fill="#79dcf4" opacity="1.00" d=" M 52.20 18.20 C 54.23 18.03 56.26 17.89 58.29 17.71 C 58.81 18.72 59.07 19.80 59.08 20.95 L 58.27 21.07 C 48.86 21.17 39.48 22.22 30.06 22.06 L 30.30 21.19 C 37.55 20.28 45.56 21.79 52.20 18.20 Z" />
</g>
<g id="#35729df6">
<path fill="#35729d" opacity="0.96" d=" M 60.32 17.72 C 61.93 21.48 60.38 25.85 60.82 29.77 C 60.03 31.31 60.52 34.26 58.09 34.02 C 59.56 30.22 59.86 26.12 60.05 22.09 C 60.14 20.63 60.23 19.17 60.32 17.72 Z" />
</g>
<g id="#6d6d6dff">
<path fill="#6d6d6d" opacity="1.00" d=" M 3.91 21.00 C 5.42 20.07 6.92 18.38 8.88 19.19 C 14.81 20.92 21.98 21.86 26.07 26.96 C 28.32 33.95 28.46 42.03 27.16 49.12 C 26.71 42.53 27.38 35.42 24.80 29.19 C 19.61 24.06 12.20 22.34 5.17 22.06 C 4.48 23.66 3.94 25.35 3.98 27.12 C 4.59 34.26 2.64 42.64 4.79 49.24 C 11.54 50.47 19.18 50.74 26.12 49.08 L 27.16 49.12 C 26.86 49.60 26.26 50.56 25.96 51.04 C 18.33 50.97 10.70 51.10 3.07 50.95 C 2.81 41.71 3.02 32.46 3.11 23.21 C 3.31 22.66 3.71 21.56 3.91 21.00 Z" />
</g>
<g id="#6ec5f9ff">
<path fill="#6ec5f9" opacity="1.00" d=" M 30.06 22.06 C 39.48 22.22 48.86 21.17 58.27 21.07 L 57.85 21.84 C 48.65 23.73 39.52 26.26 30.06 26.12 C 30.05 26.85 30.03 28.30 30.02 29.03 C 30.05 29.79 30.09 31.32 30.11 32.08 C 29.79 33.21 29.42 34.32 29.00 35.41 C 28.98 32.01 29.09 28.62 29.23 25.23 C 29.52 24.17 29.79 23.12 30.06 22.06 Z" />
</g>
<g id="#55a7e6ff">
<path fill="#55a7e6" opacity="1.00" d=" M 58.27 21.07 L 59.08 20.95 L 59.18 21.87 C 59.14 22.36 59.05 23.32 59.00 23.81 C 57.97 25.44 57.57 27.99 55.33 28.34 C 47.06 30.29 38.66 32.16 30.11 32.08 C 30.09 31.32 30.05 29.79 30.02 29.03 C 38.13 29.80 46.17 28.17 53.44 24.66 C 55.12 24.02 57.27 23.87 57.85 21.84 L 58.27 21.07 Z" />
</g>
<g id="#7c7c7cff">
<path fill="#7c7c7c" opacity="1.00" d=" M 5.17 22.06 C 12.20 22.34 19.61 24.06 24.80 29.19 C 27.38 35.42 26.71 42.53 27.16 49.12 L 26.12 49.08 C 27.19 42.03 24.26 35.57 21.72 29.24 C 17.56 25.95 12.18 24.70 7.05 24.02 C 5.57 23.76 5.51 25.83 4.73 26.66 L 3.98 27.12 C 3.94 25.35 4.48 23.66 5.17 22.06 Z" />
</g>
<g id="#62b5f3ff">
<path fill="#62b5f3" opacity="1.00" d=" M 30.06 26.12 C 39.52 26.26 48.65 23.73 57.85 21.84 C 57.27 23.87 55.12 24.02 53.44 24.66 C 46.17 28.17 38.13 29.80 30.02 29.03 C 30.03 28.30 30.05 26.85 30.06 26.12 Z" />
</g>
<g id="#3f8bc8ff">
<path fill="#3f8bc8" opacity="1.00" d=" M 59.18 21.87 L 60.05 22.09 C 59.86 26.12 59.56 30.22 58.09 34.02 L 57.21 34.19 C 53.05 34.03 48.91 33.87 44.76 33.70 C 49.04 32.26 53.45 31.22 57.69 29.65 C 58.98 27.96 58.92 25.82 59.00 23.81 C 59.05 23.32 59.14 22.36 59.18 21.87 Z" />
</g>
<g id="#898989ff">
<path fill="#898989" opacity="1.00" d=" M 4.73 26.66 C 5.51 25.83 5.57 23.76 7.05 24.02 C 12.18 24.70 17.56 25.95 21.72 29.24 C 24.26 35.57 27.19 42.03 26.12 49.08 C 19.18 50.74 11.54 50.47 4.79 49.24 C 11.07 48.33 17.96 50.44 23.93 47.82 C 23.95 42.64 21.55 37.79 20.21 32.87 C 19.26 28.71 14.49 28.07 11.12 26.80 C 9.07 25.86 6.84 26.03 4.73 26.66 Z" />
</g>
<g id="#4999d7ff">
<path fill="#4999d7" opacity="1.00" d=" M 55.33 28.34 C 57.57 27.99 57.97 25.44 59.00 23.81 C 58.92 25.82 58.98 27.96 57.69 29.65 C 53.45 31.22 49.04 32.26 44.76 33.70 C 41.08 33.83 37.43 34.18 33.81 34.76 C 30.38 35.29 30.61 39.47 29.66 42.02 L 29.07 42.06 C 29.05 40.40 29.02 37.07 29.00 35.41 C 29.42 34.32 29.79 33.21 30.11 32.08 C 38.66 32.16 47.06 30.29 55.33 28.34 Z" />
</g>
<g id="#979796ff">
<path fill="#979796" opacity="1.00" d=" M 4.73 26.66 C 6.84 26.03 9.07 25.86 11.12 26.80 C 14.49 28.07 19.26 28.71 20.21 32.87 C 21.55 37.79 23.95 42.64 23.93 47.82 C 17.96 50.44 11.07 48.33 4.79 49.24 C 5.05 41.71 5.09 34.18 4.73 26.66 M 6.06 27.92 C 5.94 34.60 5.93 41.28 6.04 47.97 C 9.79 47.97 17.28 47.96 21.03 47.96 C 21.89 38.61 15.49 29.40 6.06 27.92 Z" />
</g>
<g id="#898988ff">
<path fill="#898988" opacity="1.00" d=" M 3.98 27.12 L 4.73 26.66 C 5.09 34.18 5.05 41.71 4.79 49.24 C 2.64 42.64 4.59 34.26 3.98 27.12 Z" />
</g>
<g id="#a0a09fff">
<path fill="#a0a09f" opacity="1.00" d=" M 6.06 27.92 C 15.49 29.40 21.89 38.61 21.03 47.96 C 17.28 47.96 9.79 47.97 6.04 47.97 C 5.93 41.28 5.94 34.60 6.06 27.92 Z" />
</g>
<g id="#235a87ff">
<path fill="#235a87" opacity="1.00" d=" M 58.09 34.02 C 60.52 34.26 60.03 31.31 60.82 29.77 C 60.88 31.51 60.96 33.25 61.02 35.00 C 59.65 35.01 58.27 35.02 56.90 35.02 L 57.21 34.19 L 58.09 34.02 Z" />
</g>
<g id="#3473a5ff">
<path fill="#3473a5" opacity="1.00" d=" M 33.81 34.76 C 37.43 34.18 41.08 33.83 44.76 33.70 C 48.91 33.87 53.05 34.03 57.21 34.19 L 56.90 35.02 C 49.20 35.06 41.50 35.04 33.81 34.76 Z" />
</g>
<g id="#2f73adff">
<path fill="#2f73ad" opacity="1.00" d=" M 29.66 42.02 C 30.61 39.47 30.38 35.29 33.81 34.76 C 33.52 35.29 32.95 36.36 32.67 36.89 C 30.94 39.00 33.05 41.04 34.80 42.15 C 37.54 43.68 41.17 42.71 44.22 43.19 C 39.89 45.42 35.08 46.06 30.26 46.09 C 30.10 44.73 29.90 43.37 29.66 42.02 Z" />
</g>
<g id="#fa2905ff">
<path fill="#fa2905" opacity="1.00" d=" M 33.81 34.76 C 41.50 35.04 49.20 35.06 56.90 35.02 C 58.27 35.02 59.65 35.01 61.02 35.00 C 61.77 35.00 63.26 35.01 64.00 35.02 L 64.00 39.00 C 53.74 38.93 43.47 39.22 33.22 38.82 C 33.08 38.34 32.80 37.38 32.67 36.89 C 32.95 36.36 33.52 35.29 33.81 34.76 Z" />
</g>
<g id="#e92705ff">
<path fill="#e92705" opacity="1.00" d=" M 34.80 42.15 C 33.05 41.04 30.94 39.00 32.67 36.89 C 32.80 37.38 33.08 38.34 33.22 38.82 C 43.47 39.22 53.74 38.93 64.00 39.00 L 64.00 41.99 C 60.99 41.99 58.00 41.98 54.99 42.01 C 48.26 41.99 41.53 41.91 34.80 42.15 Z" />
</g>
<g id="#2e8ac8ff">
<path fill="#2e8ac8" opacity="1.00" d=" M 29.07 42.06 L 29.66 42.02 C 29.90 43.37 30.10 44.73 30.26 46.09 C 30.22 46.60 30.15 47.63 30.12 48.14 L 29.68 48.87 L 29.02 48.89 C 29.03 47.18 29.05 43.77 29.07 42.06 Z" />
</g>
<g id="#1b5a90ff">
<path fill="#1b5a90" opacity="1.00" d=" M 34.80 42.15 C 41.53 41.91 48.26 41.99 54.99 42.01 C 55.01 43.35 55.03 44.68 55.06 46.02 C 55.04 46.54 55.00 47.57 54.98 48.09 C 52.43 48.62 49.83 48.94 47.26 49.37 C 41.41 49.07 35.54 48.95 29.68 48.87 L 30.12 48.14 C 38.24 47.74 48.16 50.01 54.31 43.17 C 50.94 43.03 47.58 42.92 44.22 43.19 C 41.17 42.71 37.54 43.68 34.80 42.15 Z" />
</g>
<g id="#d62304ff">
<path fill="#d62304" opacity="1.00" d=" M 54.99 42.01 C 58.00 41.98 60.99 41.99 64.00 41.99 L 64.00 45.99 C 61.01 46.00 58.04 46.00 55.06 46.02 C 55.03 44.68 55.01 43.35 54.99 42.01 Z" />
</g>
<g id="#216aa8ff">
<path fill="#216aa8" opacity="1.00" d=" M 44.22 43.19 C 47.58 42.92 50.94 43.03 54.31 43.17 C 48.16 50.01 38.24 47.74 30.12 48.14 C 30.15 47.63 30.22 46.60 30.26 46.09 C 35.08 46.06 39.89 45.42 44.22 43.19 Z" />
</g>
<g id="#be1f04ff">
<path fill="#be1f04" opacity="1.00" d=" M 55.06 46.02 C 58.04 46.00 61.01 46.00 64.00 45.99 L 64.00 51.00 C 60.94 51.04 57.89 51.07 54.83 51.19 C 54.87 50.41 54.95 48.86 54.98 48.09 C 55.00 47.57 55.04 46.54 55.06 46.02 Z" />
</g>
<g id="#0d3458ff">
<path fill="#0d3458" opacity="1.00" d=" M 47.26 49.37 C 49.83 48.94 52.43 48.62 54.98 48.09 C 54.95 48.86 54.87 50.41 54.83 51.19 C 50.23 51.05 45.62 50.92 41.01 51.02 C 39.23 51.06 35.67 51.13 33.89 51.17 L 33.11 51.13 C 32.28 51.03 30.63 50.83 29.80 50.73 C 35.58 49.79 41.52 50.47 47.26 49.37 Z" />
</g>
<g id="#11426bff">
<path fill="#11426b" opacity="1.00" d=" M 29.02 48.89 L 29.68 48.87 C 35.54 48.95 41.41 49.07 47.26 49.37 C 41.52 50.47 35.58 49.79 29.80 50.73 L 28.91 50.79 C 28.94 50.32 28.99 49.36 29.02 48.89 Z" />
</g>
<g id="#2f2514ff">
<path fill="#2f2514" opacity="1.00" d=" M 25.96 51.04 C 26.70 50.98 28.17 50.86 28.91 50.79 L 29.80 50.73 C 30.63 50.83 32.28 51.03 33.11 51.13 C 30.04 52.13 27.73 54.43 26.09 57.14 C 26.04 55.11 25.99 53.08 25.96 51.04 Z" />
<path fill="#2f2514" opacity="1.00" d=" M 33.89 51.17 C 35.67 51.13 39.23 51.06 41.01 51.02 C 40.99 53.06 40.96 55.10 40.92 57.14 C 39.26 54.45 36.99 52.09 33.89 51.17 Z" />
</g>
<g id="#554025ff">
<path fill="#554025" opacity="1.00" d=" M 33.11 51.13 L 33.89 51.17 C 36.99 52.09 39.26 54.45 40.92 57.14 C 40.91 57.90 40.91 59.42 40.90 60.18 C 39.24 57.78 37.54 55.40 35.82 53.04 C 29.95 50.30 29.04 57.28 26.10 60.18 C 26.10 59.42 26.09 57.90 26.09 57.14 C 27.73 54.43 30.04 52.13 33.11 51.13 Z" />
</g>
<g id="#0202022e">
<path fill="#020202" opacity="0.18" d=" M 54.83 51.19 C 57.89 51.07 60.94 51.04 64.00 51.00 L 64.00 52.10 C 60.93 51.98 57.87 51.60 54.83 51.19 Z" />
</g>
<g id="#755433ff">
<path fill="#755433" opacity="1.00" d=" M 26.10 60.18 C 29.04 57.28 29.95 50.30 35.82 53.04 C 37.54 55.40 39.24 57.78 40.90 60.18 C 40.96 61.45 41.01 62.72 41.06 64.00 L 39.24 64.00 C 38.54 60.21 37.26 53.16 32.20 54.11 C 29.52 56.68 28.19 60.37 27.76 64.00 L 25.94 64.00 C 25.99 62.72 26.04 61.45 26.10 60.18 Z" />
</g>
<g id="#937448ff">
<path fill="#937448" opacity="1.00" d=" M 32.20 54.11 C 37.26 53.16 38.54 60.21 39.24 64.00 L 37.16 64.00 C 37.26 60.74 36.50 57.33 33.84 55.19 C 30.51 56.28 29.78 60.82 29.84 64.00 L 27.76 64.00 C 28.19 60.37 29.52 56.68 32.20 54.11 Z" />
</g>
<g id="#b19761ff">
<path fill="#b19761" opacity="1.00" d=" M 29.84 64.00 C 29.78 60.82 30.51 56.28 33.84 55.19 C 36.50 57.33 37.26 60.74 37.16 64.00 L 35.11 64.00 C 35.64 61.35 35.22 59.04 33.86 57.08 C 30.99 57.51 32.23 61.69 31.89 64.00 L 29.84 64.00 Z" />
</g>
<g id="#c8b678ff">
<path fill="#c8b678" opacity="1.00" d=" M 31.89 64.00 C 32.23 61.69 30.99 57.51 33.86 57.08 C 35.22 59.04 35.64 61.35 35.11 64.00 L 31.89 64.00 Z" />
</g>
</svg>
