<?xml version="1.0" encoding="UTF-8" ?>
<!DOCTYPE svg PUBLIC "-//W3C//DTD SVG 1.1//EN" "http://www.w3.org/Graphics/SVG/1.1/DTD/svg11.dtd">
<svg width="64pt" height="64pt" viewBox="0 0 64 64" version="1.1" xmlns="http://www.w3.org/2000/svg">
<g id="#fc4b0bff">
<path fill="#fc4b0b" opacity="1.00" d=" M 26.81 0.00 L 36.34 0.00 L 36.34 0.52 C 33.41 0.47 30.48 0.57 27.56 0.82 C 27.81 2.26 27.37 4.30 29.07 5.00 C 32.89 6.98 37.29 7.19 41.47 7.85 C 40.16 9.31 38.87 10.79 37.59 12.27 C 32.20 10.57 27.18 7.22 21.34 7.41 C 21.12 7.18 20.69 6.73 20.48 6.50 C 22.60 6.49 24.73 6.47 26.85 6.44 C 26.84 4.29 26.82 2.15 26.81 0.00 Z" />
</g>
<g id="#fd6d17ff">
<path fill="#fd6d17" opacity="1.00" d=" M 27.56 0.82 C 30.48 0.57 33.41 0.47 36.34 0.52 C 36.34 2.51 36.34 4.49 36.35 6.47 C 38.47 6.47 40.59 6.47 42.71 6.47 C 42.40 6.82 41.78 7.50 41.47 7.85 C 37.29 7.19 32.89 6.98 29.07 5.00 C 27.37 4.30 27.81 2.26 27.56 0.82 Z" />
</g>
<g id="#f92c05ff">
<path fill="#f92c05" opacity="1.00" d=" M 21.34 7.41 C 27.18 7.22 32.20 10.57 37.59 12.27 C 35.67 14.46 33.69 16.61 31.78 18.82 L 31.23 18.87 C 28.10 14.91 24.69 11.18 21.34 7.41 Z" />
</g>
<g id="#f1f1f1ff">
<path fill="#f1f1f1" opacity="1.00" d=" M 14.45 19.29 C 20.04 19.16 25.68 19.74 31.23 18.87 L 31.78 18.82 C 37.65 19.80 43.63 19.13 49.55 19.29 C 50.61 23.20 51.56 27.14 52.53 31.07 C 51.98 31.51 51.44 31.95 50.90 32.39 C 50.02 31.76 49.14 31.11 48.26 30.46 C 47.97 28.93 47.65 27.41 47.36 25.88 C 47.11 24.32 46.84 22.77 46.57 21.21 C 36.88 21.25 27.19 21.33 17.51 21.16 C 17.37 21.88 17.09 23.32 16.95 24.04 C 16.80 24.77 16.50 26.21 16.35 26.94 C 16.11 28.03 15.87 29.12 15.64 30.21 C 14.61 29.08 13.57 27.95 12.54 26.81 C 13.14 24.29 13.77 21.78 14.45 19.29 Z" />
</g>
<g id="#708cbaff">
<path fill="#708cba" opacity="1.00" d=" M 17.51 21.16 C 27.19 21.33 36.88 21.25 46.57 21.21 C 46.84 22.77 47.11 24.32 47.36 25.88 C 47.09 26.94 46.81 27.99 46.51 29.04 C 46.36 27.53 46.22 26.02 46.08 24.51 C 38.44 25.85 30.66 25.48 22.95 25.36 C 21.02 25.42 19.79 23.75 18.36 22.74 C 17.89 23.17 17.42 23.61 16.95 24.04 C 17.09 23.32 17.37 21.88 17.51 21.16 Z" />
</g>
<g id="#5176aeff">
<path fill="#5176ae" opacity="1.00" d=" M 16.95 24.04 C 17.42 23.61 17.89 23.17 18.36 22.74 C 19.79 23.75 21.02 25.42 22.95 25.36 C 30.66 25.48 38.44 25.85 46.08 24.51 C 46.22 26.02 46.36 27.53 46.51 29.04 C 45.72 29.12 44.15 29.26 43.37 29.34 C 35.05 29.66 26.60 28.58 18.38 29.99 C 17.69 28.98 17.02 27.96 16.35 26.94 C 16.50 26.21 16.80 24.77 16.95 24.04 Z" />
</g>
<g id="#739dd3ff">
<path fill="#739dd3" opacity="1.00" d=" M 47.36 25.88 C 47.65 27.41 47.97 28.93 48.26 30.46 C 49.01 34.75 49.78 39.03 50.57 43.31 C 47.73 43.07 44.87 42.76 42.03 43.11 C 43.25 41.87 44.48 40.64 45.70 39.40 C 45.73 36.46 45.67 33.52 45.55 30.59 C 44.88 30.32 43.54 29.78 42.87 29.51 L 43.37 29.34 C 44.15 29.26 45.72 29.12 46.51 29.04 C 46.81 27.99 47.09 26.94 47.36 25.88 Z" />
<path fill="#739dd3" opacity="1.00" d=" M 15.64 30.21 C 15.87 29.12 16.11 28.03 16.35 26.94 C 17.02 27.96 17.69 28.98 18.38 29.99 C 18.39 31.38 18.37 32.76 18.33 34.15 C 18.32 36.08 18.10 38.06 18.63 39.94 C 19.58 41.15 20.80 42.11 22.02 43.03 C 19.02 42.72 16.00 43.03 13.01 43.30 C 13.90 38.94 14.75 34.57 15.64 30.21 Z" />
</g>
<g id="#fffefeff">
<path fill="#fffefe" opacity="1.00" d=" M 7.87 46.92 C 8.84 40.10 11.09 33.54 12.54 26.81 C 13.57 27.95 14.61 29.08 15.64 30.21 C 14.75 34.57 13.90 38.94 13.01 43.30 C 16.00 43.03 19.02 42.72 22.02 43.03 C 22.50 43.11 23.45 43.28 23.93 43.36 L 23.94 44.34 C 23.92 45.06 23.88 46.50 23.87 47.22 C 18.54 46.84 13.20 46.92 7.87 46.92 Z" />
<path fill="#fffefe" opacity="1.00" d=" M 48.26 30.46 C 49.14 31.11 50.02 31.76 50.90 32.39 C 51.44 31.95 51.98 31.51 52.53 31.07 C 53.67 36.35 55.55 41.49 56.13 46.88 C 51.19 47.04 46.25 47.19 41.32 46.79 C 41.04 46.19 40.49 45.00 40.21 44.41 L 39.97 43.44 C 40.49 43.35 41.51 43.19 42.03 43.11 C 44.87 42.76 47.73 43.07 50.57 43.31 C 49.78 39.03 49.01 34.75 48.26 30.46 Z" />
</g>
<g id="#c3d7ebff">
<path fill="#c3d7eb" opacity="1.00" d=" M 18.38 29.99 C 26.60 28.58 35.05 29.66 43.37 29.34 L 42.87 29.51 C 42.34 29.77 41.27 30.28 40.73 30.53 C 40.00 32.46 39.77 34.75 38.32 36.31 C 34.53 39.04 28.73 39.01 25.25 35.78 C 24.25 34.06 23.85 32.07 23.26 30.19 C 22.01 30.09 20.66 29.70 19.56 30.55 C 18.48 31.46 18.44 32.85 18.33 34.15 C 18.37 32.76 18.39 31.38 18.38 29.99 Z" />
</g>
<g id="#a9c5e8ff">
<path fill="#a9c5e8" opacity="1.00" d=" M 19.56 30.55 C 20.66 29.70 22.01 30.09 23.26 30.19 C 23.85 32.07 24.25 34.06 25.25 35.78 C 28.73 39.01 34.53 39.04 38.32 36.31 C 39.77 34.75 40.00 32.46 40.73 30.53 C 41.27 30.28 42.34 29.77 42.87 29.51 C 43.54 29.78 44.88 30.32 45.55 30.59 C 45.67 33.52 45.73 36.46 45.70 39.40 C 44.48 40.64 43.25 41.87 42.03 43.11 C 41.51 43.19 40.49 43.35 39.97 43.44 C 34.69 44.77 29.23 44.50 23.93 43.36 C 23.45 43.28 22.50 43.11 22.02 43.03 C 20.80 42.11 19.58 41.15 18.63 39.94 C 18.10 38.06 18.32 36.08 18.33 34.15 C 18.44 32.85 18.48 31.46 19.56 30.55 Z" />
</g>
<g id="#91b5e6ff">
<path fill="#91b5e6" opacity="1.00" d=" M 23.93 43.36 C 29.23 44.50 34.69 44.77 39.97 43.44 L 40.21 44.41 C 38.60 46.39 37.13 48.62 34.93 50.01 C 32.31 50.91 29.74 49.14 27.42 48.09 C 26.20 46.90 25.04 45.64 23.94 44.34 L 23.93 43.36 Z" />
</g>
<g id="#6781b3ff">
<path fill="#6781b3" opacity="1.00" d=" M 23.94 44.34 C 25.04 45.64 26.20 46.90 27.42 48.09 C 27.42 49.43 27.42 50.77 27.42 52.11 C 25.80 50.83 24.35 49.28 23.87 47.22 C 23.88 46.50 23.92 45.06 23.94 44.34 Z" />
</g>
<g id="#90a4cdff">
<path fill="#90a4cd" opacity="1.00" d=" M 34.93 50.01 C 37.13 48.62 38.60 46.39 40.21 44.41 C 41.45 51.37 32.86 55.18 27.42 52.11 C 27.42 50.77 27.42 49.43 27.42 48.09 C 29.74 49.14 32.31 50.91 34.93 50.01 Z" />
</g>
<g id="#eaeff3ff">
<path fill="#eaeff3" opacity="1.00" d=" M 40.21 44.41 C 40.49 45.00 41.04 46.19 41.32 46.79 C 46.25 47.19 51.19 47.04 56.13 46.88 C 56.11 49.87 55.77 52.84 55.58 55.81 C 46.38 55.72 37.19 55.85 28.00 55.80 C 21.48 55.73 14.92 56.22 8.45 55.18 C 8.26 52.43 7.94 49.68 7.87 46.92 C 13.20 46.92 18.54 46.84 23.87 47.22 C 24.35 49.28 25.80 50.83 27.42 52.11 C 32.86 55.18 41.45 51.37 40.21 44.41 Z" />
</g>
<g id="#e2e3e4ff">
<path fill="#e2e3e4" opacity="1.00" d=" M 8.45 55.18 C 14.92 56.22 21.48 55.73 28.00 55.80 C 37.19 55.85 46.38 55.72 55.58 55.81 C 55.56 56.13 55.52 56.77 55.51 57.08 C 55.31 58.06 54.93 60.02 54.74 61.00 C 39.62 60.98 24.49 60.98 9.37 61.00 C 9.08 59.33 8.80 57.66 8.51 55.99 C 8.50 55.79 8.47 55.38 8.45 55.18 Z" />
</g>
<g id="#0202027d">
<path fill="#020202" opacity="0.49" d=" M 10.86 62.22 C 7.53 62.23 8.36 58.15 8.51 55.99 C 8.80 57.66 9.08 59.33 9.37 61.00 C 24.49 60.98 39.62 60.98 54.74 61.00 C 54.93 60.02 55.31 58.06 55.51 57.08 C 55.78 59.08 56.15 62.51 53.10 62.27 C 39.03 62.31 24.94 62.39 10.86 62.22 Z" />
</g>
</svg>
