<?xml version="1.0" encoding="UTF-8" ?>
<!DOCTYPE svg PUBLIC "-//W3C//DTD SVG 1.1//EN" "http://www.w3.org/Graphics/SVG/1.1/DTD/svg11.dtd">
<svg width="64pt" height="64pt" viewBox="0 0 64 64" version="1.1" xmlns="http://www.w3.org/2000/svg">
<g id="#70c9fbff">
<path fill="#70c9fb" opacity="1.00" d=" M 7.71 12.66 C 9.24 11.67 10.85 10.81 12.52 10.07 C 12.58 10.63 12.72 11.76 12.78 12.32 C 12.84 12.70 12.95 13.46 13.00 13.85 C 14.99 13.93 16.98 13.93 18.97 13.85 C 19.06 13.44 19.24 12.63 19.33 12.22 L 19.61 10.54 C 23.18 12.55 26.56 15.62 27.17 19.88 C 27.17 22.29 26.98 24.70 26.80 27.10 C 20.06 24.86 13.57 21.94 7.26 18.69 C 7.41 16.68 7.56 14.67 7.71 12.66 Z" />
</g>
<g id="#b9b5b3ff">
<path fill="#b9b5b3" opacity="1.00" d=" M 12.52 10.07 C 14.62 9.96 16.72 9.95 18.83 10.06 L 19.61 10.54 L 19.33 12.22 C 17.15 12.26 14.96 12.29 12.78 12.32 C 12.72 11.76 12.58 10.63 12.52 10.07 Z" />
</g>
<g id="#5eaae6ff">
<path fill="#5eaae6" opacity="1.00" d=" M 18.83 10.06 C 29.24 10.41 39.66 10.02 50.08 10.24 C 53.06 10.13 55.49 12.12 57.48 14.10 C 56.56 14.20 54.72 14.41 53.80 14.51 C 49.75 14.37 45.70 14.34 41.66 14.32 C 36.34 14.24 30.99 14.55 25.71 13.72 C 26.60 15.07 27.50 16.42 28.32 17.82 C 29.28 22.34 29.17 27.00 29.53 31.60 C 29.48 33.67 29.36 35.73 29.18 37.80 C 29.11 38.53 28.98 39.99 28.91 40.73 L 28.90 39.42 C 28.92 39.02 28.96 38.23 28.98 37.83 C 29.20 34.86 28.71 31.91 28.20 28.99 C 27.84 25.96 27.62 22.90 27.17 19.88 C 26.56 15.62 23.18 12.55 19.61 10.54 L 18.83 10.06 Z" />
</g>
<g id="#6b90a1ff">
<path fill="#6b90a1" opacity="1.00" d=" M 12.78 12.32 C 14.96 12.29 17.15 12.26 19.33 12.22 C 19.24 12.63 19.06 13.44 18.97 13.85 C 16.98 13.93 14.99 13.93 13.00 13.85 C 12.95 13.46 12.84 12.70 12.78 12.32 Z" />
</g>
<g id="#57aff0ff">
<path fill="#57aff0" opacity="1.00" d=" M 4.40 17.27 C 5.16 15.52 6.45 14.06 7.71 12.66 C 7.56 14.67 7.41 16.68 7.26 18.69 C 13.57 21.94 20.06 24.86 26.80 27.10 C 26.98 24.70 27.17 22.29 27.17 19.88 C 27.62 22.90 27.84 25.96 28.20 28.99 C 27.62 31.59 26.96 34.17 26.33 36.76 C 21.00 34.32 15.63 31.95 10.16 29.83 C 7.76 28.97 6.12 26.97 4.50 25.11 C 4.45 22.50 4.39 19.88 4.40 17.27 Z" />
</g>
<g id="#ffffffff">
<path fill="#ffffff" opacity="1.00" d=" M 25.71 13.72 C 30.99 14.55 36.34 14.24 41.66 14.32 C 44.09 14.77 46.48 15.45 48.86 16.15 C 42.33 17.88 35.53 17.03 28.89 17.80 L 28.32 17.82 C 27.50 16.42 26.60 15.07 25.71 13.72 Z" />
</g>
<g id="#d0f3f5ff">
<path fill="#d0f3f5" opacity="1.00" d=" M 41.66 14.32 C 45.70 14.34 49.75 14.37 53.80 14.51 C 54.67 14.87 55.53 15.24 56.40 15.63 C 56.55 16.08 56.86 16.98 57.01 17.43 C 55.96 17.46 54.91 17.50 53.86 17.52 C 45.53 17.53 37.21 18.28 28.89 17.80 C 35.53 17.03 42.33 17.88 48.86 16.15 C 46.48 15.45 44.09 14.77 41.66 14.32 Z" />
</g>
<g id="#66bbf6ff">
<path fill="#66bbf6" opacity="1.00" d=" M 53.80 14.51 C 54.72 14.41 56.56 14.20 57.48 14.10 C 57.89 14.53 58.29 14.97 58.67 15.43 C 59.00 17.59 59.35 19.75 59.57 21.93 C 50.77 27.62 40.06 29.82 29.68 29.31 C 29.89 26.75 30.13 24.20 30.35 21.65 C 36.48 22.27 42.69 21.91 48.75 20.83 C 50.85 20.49 52.28 18.78 53.86 17.52 C 54.91 17.50 55.96 17.46 57.01 17.43 C 56.86 16.98 56.55 16.08 56.40 15.63 C 55.53 15.24 54.67 14.87 53.80 14.51 Z" />
</g>
<g id="#255e84e1">
<path fill="#255e84" opacity="0.88" d=" M 58.67 15.43 C 62.45 21.32 60.35 28.66 60.82 35.22 C 60.35 35.21 59.42 35.20 58.95 35.19 C 59.24 32.80 59.50 30.40 59.65 28.00 C 59.71 25.98 59.68 23.95 59.57 21.93 C 59.35 19.75 59.00 17.59 58.67 15.43 Z" />
</g>
<g id="#1f81c8ff">
<path fill="#1f81c8" opacity="1.00" d=" M 3.32 35.32 C 3.66 29.31 2.29 23.05 4.40 17.27 C 4.39 19.88 4.45 22.50 4.50 25.11 C 4.85 29.49 4.43 35.42 9.09 37.71 C 14.58 40.40 20.36 42.46 26.02 44.77 C 26.98 42.44 27.99 40.14 28.98 37.83 C 28.96 38.23 28.92 39.02 28.90 39.42 C 28.30 42.45 27.74 45.49 27.49 48.56 C 21.16 48.69 15.47 45.75 9.87 43.21 C 6.47 41.85 5.14 38.18 3.32 35.32 Z" />
</g>
<g id="#7de0fdff">
<path fill="#7de0fd" opacity="1.00" d=" M 28.32 17.82 L 28.89 17.80 C 37.21 18.28 45.53 17.53 53.86 17.52 C 52.28 18.78 50.85 20.49 48.75 20.83 C 42.69 21.91 36.48 22.27 30.35 21.65 C 30.13 24.20 29.89 26.75 29.68 29.31 C 29.64 29.88 29.57 31.03 29.53 31.60 C 29.17 27.00 29.28 22.34 28.32 17.82 Z" />
</g>
<g id="#4b9fe2ff">
<path fill="#4b9fe2" opacity="1.00" d=" M 29.68 29.31 C 40.06 29.82 50.77 27.62 59.57 21.93 C 59.68 23.95 59.71 25.98 59.65 28.00 C 52.70 34.62 42.47 34.90 33.44 34.50 C 33.64 34.65 34.02 34.93 34.22 35.07 C 33.56 35.59 32.89 36.11 32.22 36.61 C 31.22 37.03 30.19 37.41 29.18 37.80 C 29.36 35.73 29.48 33.67 29.53 31.60 C 29.57 31.03 29.64 29.88 29.68 29.31 Z" />
</g>
<g id="#3895dbff">
<path fill="#3895db" opacity="1.00" d=" M 4.50 25.11 C 6.12 26.97 7.76 28.97 10.16 29.83 C 15.63 31.95 21.00 34.32 26.33 36.76 C 26.96 34.17 27.62 31.59 28.20 28.99 C 28.71 31.91 29.20 34.86 28.98 37.83 C 27.99 40.14 26.98 42.44 26.02 44.77 C 20.36 42.46 14.58 40.40 9.09 37.71 C 4.43 35.42 4.85 29.49 4.50 25.11 Z" />
</g>
<g id="#3388cbff">
<path fill="#3388cb" opacity="1.00" d=" M 33.44 34.50 C 42.47 34.90 52.70 34.62 59.65 28.00 C 59.50 30.40 59.24 32.80 58.95 35.19 C 50.71 35.04 42.46 35.32 34.22 35.07 C 34.02 34.93 33.64 34.65 33.44 34.50 Z" />
</g>
<g id="#fb2604ff">
<path fill="#fb2604" opacity="1.00" d=" M 34.22 35.07 C 42.46 35.32 50.71 35.04 58.95 35.19 C 59.42 35.20 60.35 35.21 60.82 35.22 C 61.62 35.24 63.21 35.27 64.00 35.29 L 64.00 35.81 C 63.27 37.93 62.66 40.09 62.10 42.26 C 60.24 42.65 58.38 43.02 56.52 43.40 C 56.18 44.93 55.84 46.47 55.51 48.00 C 55.17 45.87 54.82 43.74 54.45 41.61 C 47.58 41.69 40.70 41.59 33.83 41.66 C 33.70 41.55 33.44 41.33 33.32 41.22 C 32.32 39.86 31.76 38.29 32.22 36.61 C 32.89 36.11 33.56 35.59 34.22 35.07 Z" />
</g>
<g id="#056bb1ff">
<path fill="#056bb1" opacity="1.00" d=" M 3.32 35.32 C 5.14 38.18 6.47 41.85 9.87 43.21 C 15.47 45.75 21.16 48.69 27.49 48.56 C 27.42 49.38 27.35 50.19 27.29 51.00 L 25.67 51.05 C 18.21 51.21 10.75 50.66 3.28 50.85 C 3.35 45.67 3.29 40.50 3.32 35.32 Z" />
</g>
<g id="#248ed6ff">
<path fill="#248ed6" opacity="1.00" d=" M 29.18 37.80 C 30.19 37.41 31.22 37.03 32.22 36.61 C 31.76 38.29 32.32 39.86 33.32 41.22 C 32.36 41.09 31.41 40.96 30.46 40.83 C 30.15 43.29 29.81 45.75 29.39 48.20 C 29.33 48.57 29.21 49.31 29.15 49.68 C 29.08 46.69 28.91 43.71 28.91 40.73 C 28.98 39.99 29.11 38.53 29.18 37.80 Z" />
</g>
<g id="#cf2003ff">
<path fill="#cf2003" opacity="1.00" d=" M 62.10 42.26 C 62.66 40.09 63.27 37.93 64.00 35.81 L 64.00 51.06 C 60.79 51.17 57.58 51.14 54.37 51.13 C 54.37 50.36 54.37 48.84 54.37 48.08 C 54.37 46.31 54.39 44.54 54.43 42.77 L 54.45 41.61 C 54.82 43.74 55.17 45.87 55.51 48.00 C 55.84 46.47 56.18 44.93 56.52 43.40 C 58.38 43.02 60.24 42.65 62.10 42.26 Z" />
</g>
<g id="#0e73b9ff">
<path fill="#0e73b9" opacity="1.00" d=" M 30.46 40.83 C 31.41 40.96 32.36 41.09 33.32 41.22 C 33.44 41.33 33.70 41.55 33.83 41.66 C 35.07 42.46 36.41 43.27 37.95 43.16 C 43.44 43.18 48.93 42.63 54.43 42.77 C 54.39 44.54 54.37 46.31 54.37 48.08 C 53.56 47.16 52.76 46.25 51.95 45.33 C 44.72 47.90 37.04 49.03 29.39 48.20 C 29.81 45.75 30.15 43.29 30.46 40.83 Z" />
</g>
<g id="#0b4e7bff">
<path fill="#0b4e7b" opacity="1.00" d=" M 28.90 39.42 L 28.91 40.73 C 28.91 43.71 29.08 46.69 29.15 49.68 C 29.11 49.99 29.04 50.62 29.01 50.94 C 28.58 50.96 27.72 50.98 27.29 51.00 C 27.35 50.19 27.42 49.38 27.49 48.56 C 27.74 45.49 28.30 42.45 28.90 39.42 Z" />
</g>
<g id="#0282d4ff">
<path fill="#0282d4" opacity="1.00" d=" M 33.83 41.66 C 40.70 41.59 47.58 41.69 54.45 41.61 L 54.43 42.77 C 48.93 42.63 43.44 43.18 37.95 43.16 C 36.41 43.27 35.07 42.46 33.83 41.66 Z" />
</g>
<g id="#015c9bff">
<path fill="#015c9b" opacity="1.00" d=" M 29.39 48.20 C 37.04 49.03 44.72 47.90 51.95 45.33 C 52.76 46.25 53.56 47.16 54.37 48.08 C 54.37 48.84 54.37 50.36 54.37 51.13 C 50.10 51.10 45.84 51.19 41.58 51.04 C 37.39 50.85 33.20 50.78 29.01 50.94 C 29.04 50.62 29.11 49.99 29.15 49.68 C 29.21 49.31 29.33 48.57 29.39 48.20 Z" />
</g>
<g id="#49381dff">
<path fill="#49381d" opacity="1.00" d=" M 25.67 51.05 L 27.29 51.00 C 27.72 50.98 28.58 50.96 29.01 50.94 C 33.20 50.78 37.39 50.85 41.58 51.04 C 41.58 55.36 41.61 59.68 41.62 64.00 L 37.87 64.00 C 38.86 63.55 39.79 62.99 40.65 62.33 C 40.48 59.24 39.20 56.20 37.08 53.94 C 35.24 52.95 32.82 53.06 30.92 53.87 C 28.31 55.86 27.56 59.30 26.22 62.14 C 27.30 62.77 28.39 63.39 29.49 64.00 L 25.62 64.00 C 25.62 59.68 25.62 55.37 25.67 51.05 Z" />
</g>
<g id="#997d4cff">
<path fill="#997d4c" opacity="1.00" d=" M 30.92 53.87 C 32.82 53.06 35.24 52.95 37.08 53.94 C 39.20 56.20 40.48 59.24 40.65 62.33 C 39.79 62.99 38.86 63.55 37.87 64.00 L 29.49 64.00 C 28.39 63.39 27.30 62.77 26.22 62.14 C 27.56 59.30 28.31 55.86 30.92 53.87 M 31.42 58.62 C 31.37 60.09 31.32 61.56 31.28 63.03 C 33.44 63.04 35.60 62.82 37.72 62.35 C 36.68 60.16 35.51 58.04 34.21 55.99 C 33.28 56.87 32.35 57.74 31.42 58.62 Z" />
</g>
<g id="#d0b57cff">
<path fill="#d0b57c" opacity="1.00" d=" M 31.42 58.62 C 32.35 57.74 33.28 56.87 34.21 55.99 C 35.51 58.04 36.68 60.16 37.72 62.35 C 35.60 62.82 33.44 63.04 31.28 63.03 C 31.32 61.56 31.37 60.09 31.42 58.62 Z" />
</g>
</svg>
