<?xml version="1.0" encoding="UTF-8" ?>
<!DOCTYPE svg PUBLIC "-//W3C//DTD SVG 1.1//EN" "http://www.w3.org/Graphics/SVG/1.1/DTD/svg11.dtd">
<svg width="64pt" height="64pt" viewBox="0 0 64 64" version="1.1" xmlns="http://www.w3.org/2000/svg">
<g id="#acacacfe">
<path fill="#acacac" opacity="1.00" d=" M 3.06 12.63 L 3.51 13.04 C 9.87 18.84 15.80 25.07 21.96 31.07 L 21.96 31.67 C 21.98 32.32 22.00 33.62 22.01 34.27 C 15.63 39.42 10.17 45.63 3.51 50.44 C 7.07 42.89 16.14 40.29 20.72 33.66 C 20.11 30.90 16.80 29.07 14.95 26.86 C 11.10 22.81 6.96 19.02 3.24 14.83 L 3.15 13.76 L 3.06 12.63 Z" />
</g>
<g id="#fcfcfcff">
<path fill="#fcfcfc" opacity="1.00" d=" M 3.51 13.04 C 22.69 12.95 41.88 13.00 61.06 13.03 C 60.11 14.06 59.09 15.02 58.07 15.97 C 51.86 15.47 45.89 17.58 40.00 19.20 C 40.03 18.41 40.10 16.82 40.13 16.02 C 34.11 16.01 28.09 16.02 22.08 16.02 C 21.99 20.44 21.96 24.86 21.98 29.28 C 21.98 29.73 21.97 30.62 21.96 31.07 C 15.80 25.07 9.87 18.84 3.51 13.04 Z" />
</g>
<g id="#24242471">
<path fill="#242424" opacity="0.44" d=" M 61.06 13.03 C 61.46 24.70 61.11 36.39 61.28 48.06 C 61.28 49.62 61.37 52.57 59.02 52.26 C 40.29 52.33 21.54 52.39 2.80 52.21 C 2.96 39.40 2.28 26.55 3.15 13.76 L 3.24 14.83 C 3.35 21.51 3.34 28.20 3.31 34.89 C 3.24 40.22 3.52 45.56 3.23 50.89 C 22.37 51.12 41.52 50.94 60.67 50.99 C 60.53 38.68 60.78 26.38 60.68 14.07 C 56.76 18.04 52.79 21.96 48.89 25.95 C 46.15 28.62 43.46 31.35 40.72 34.03 C 38.66 36.04 36.55 38.06 35.08 40.56 C 33.57 41.33 31.95 41.84 30.26 42.01 C 30.05 41.39 29.63 40.15 29.42 39.54 C 29.35 39.32 29.22 38.89 29.15 38.68 C 29.50 39.45 30.21 40.99 30.57 41.76 C 34.36 40.32 36.98 37.17 39.70 34.33 C 45.81 28.21 52.01 22.16 58.07 15.97 C 59.09 15.02 60.11 14.06 61.06 13.03 Z" />
</g>
<g id="#efefefff">
<path fill="#efefef" opacity="1.00" d=" M 3.24 14.83 C 6.96 19.02 11.10 22.81 14.95 26.86 C 15.94 28.58 16.84 30.36 17.74 32.13 C 13.56 32.02 9.34 31.54 5.18 32.14 C 4.45 32.98 3.87 33.93 3.31 34.89 C 3.34 28.20 3.35 21.51 3.24 14.83 Z" />
<path fill="#efefef" opacity="1.00" d=" M 40.00 19.20 C 45.89 17.58 51.86 15.47 58.07 15.97 C 52.01 22.16 45.81 28.21 39.70 34.33 C 39.49 32.54 39.31 30.75 39.13 28.96 C 35.76 29.00 32.40 28.99 29.03 28.81 C 28.87 26.28 28.81 23.74 28.77 21.20 C 32.47 21.21 36.17 21.22 39.87 21.22 C 39.90 20.72 39.97 19.71 40.00 19.20 Z" />
<path fill="#efefef" opacity="1.00" d=" M 48.89 25.95 C 52.79 21.96 56.76 18.04 60.68 14.07 C 60.78 26.38 60.53 38.68 60.67 50.99 L 60.59 49.81 C 60.49 43.94 60.36 38.06 59.65 32.23 C 55.26 32.26 50.86 32.16 46.47 31.89 C 47.26 29.90 48.04 27.91 48.89 25.95 Z" />
</g>
<g id="#4e75faff">
<path fill="#4e75fa" opacity="1.00" d=" M 22.08 16.02 C 28.09 16.02 34.11 16.01 40.13 16.02 C 40.10 16.82 40.03 18.41 40.00 19.20 C 39.97 19.71 39.90 20.72 39.87 21.22 C 36.17 21.22 32.47 21.21 28.77 21.20 C 28.81 23.74 28.87 26.28 29.03 28.81 C 27.51 27.47 25.89 26.24 24.25 25.04 C 23.48 26.45 22.70 27.85 21.98 29.28 C 21.96 24.86 21.99 20.44 22.08 16.02 Z" />
</g>
<g id="#3d64e9ff">
<path fill="#3d64e9" opacity="1.00" d=" M 21.98 29.28 C 22.70 27.85 23.48 26.45 24.25 25.04 C 25.89 26.24 27.51 27.47 29.03 28.81 C 32.40 28.99 35.76 29.00 39.13 28.96 C 39.31 30.75 39.49 32.54 39.70 34.33 C 36.03 34.00 32.36 33.97 28.68 33.96 C 28.75 35.31 28.83 36.66 28.91 38.01 C 26.85 35.63 24.42 33.63 21.96 31.67 L 21.96 31.07 C 21.97 30.62 21.98 29.73 21.98 29.28 Z" />
</g>
<g id="#ddddddff">
<path fill="#dddddd" opacity="1.00" d=" M 14.95 26.86 C 16.80 29.07 20.11 30.90 20.72 33.66 C 16.14 40.29 7.07 42.89 3.51 50.44 L 3.23 50.89 C 3.52 45.56 3.24 40.22 3.31 34.89 C 3.87 33.93 4.45 32.98 5.18 32.14 C 9.34 31.54 13.56 32.02 17.74 32.13 C 16.84 30.36 15.94 28.58 14.95 26.86 Z" />
</g>
<g id="#dcdcdcff">
<path fill="#dcdcdc" opacity="1.00" d=" M 40.72 34.03 C 43.46 31.35 46.15 28.62 48.89 25.95 C 48.04 27.91 47.26 29.90 46.47 31.89 C 50.86 32.16 55.26 32.26 59.65 32.23 C 60.36 38.06 60.49 43.94 60.59 49.81 C 58.54 47.99 56.31 46.41 54.16 44.74 C 49.74 41.10 45.38 37.38 40.72 34.03 Z" />
</g>
<g id="#2a51d5ff">
<path fill="#2a51d5" opacity="1.00" d=" M 21.96 31.67 C 24.42 33.63 26.85 35.63 28.91 38.01 L 29.15 38.68 C 29.22 38.89 29.35 39.32 29.42 39.54 C 29.28 40.30 28.99 41.82 28.85 42.58 C 32.69 42.56 36.53 42.63 40.37 42.68 C 40.36 43.82 40.35 44.96 40.34 46.10 C 40.33 46.58 40.33 47.53 40.32 48.01 C 34.22 48.00 28.12 48.00 22.01 48.00 C 22.07 43.42 22.12 38.84 22.01 34.27 C 22.00 33.62 21.98 32.32 21.96 31.67 Z" />
</g>
<g id="#dededeff">
<path fill="#dedede" opacity="1.00" d=" M 28.68 33.96 C 32.36 33.97 36.03 34.00 39.70 34.33 C 36.98 37.17 34.36 40.32 30.57 41.76 C 30.21 40.99 29.50 39.45 29.15 38.68 L 28.91 38.01 C 28.83 36.66 28.75 35.31 28.68 33.96 Z" />
</g>
<g id="#cececeff">
<path fill="#cecece" opacity="1.00" d=" M 3.51 50.44 C 10.17 45.63 15.63 39.42 22.01 34.27 C 22.12 38.84 22.07 43.42 22.01 48.00 C 28.12 48.00 34.22 48.00 40.32 48.01 C 40.33 47.53 40.33 46.58 40.34 46.10 C 44.98 46.17 49.64 45.85 54.16 44.74 C 56.31 46.41 58.54 47.99 60.59 49.81 L 60.67 50.99 C 41.52 50.94 22.37 51.12 3.23 50.89 L 3.51 50.44 Z" />
</g>
<g id="#d7d7d7ff">
<path fill="#d7d7d7" opacity="1.00" d=" M 35.08 40.56 C 36.55 38.06 38.66 36.04 40.72 34.03 C 45.38 37.38 49.74 41.10 54.16 44.74 C 49.64 45.85 44.98 46.17 40.34 46.10 C 40.35 44.96 40.36 43.82 40.37 42.68 C 36.53 42.63 32.69 42.56 28.85 42.58 C 28.99 41.82 29.28 40.30 29.42 39.54 C 29.63 40.15 30.05 41.39 30.26 42.01 C 31.95 41.84 33.57 41.33 35.08 40.56 Z" />
</g>
</svg>
