<?xml version="1.0" encoding="UTF-8" ?>
<!DOCTYPE svg PUBLIC "-//W3C//DTD SVG 1.1//EN" "http://www.w3.org/Graphics/SVG/1.1/DTD/svg11.dtd">
<svg width="64pt" height="64pt" viewBox="0 0 64 64" version="1.1" xmlns="http://www.w3.org/2000/svg">
<g id="#8b9fa8fb">
<path fill="#8b9fa8" opacity="1.00" d=" M 10.96 10.64 C 13.71 9.21 17.07 10.24 20.06 9.95 L 19.77 10.76 C 18.69 12.92 18.80 16.78 14.19 13.88 C 12.38 13.88 13.19 10.62 10.96 10.64 Z" />
</g>
<g id="#3871a0ff">
<path fill="#3871a0" opacity="1.00" d=" M 20.06 9.95 C 24.03 9.95 28.01 9.97 31.98 10.01 L 32.03 10.97 C 28.24 10.98 24.46 11.02 20.67 11.11 L 19.77 10.76 L 20.06 9.95 Z" />
</g>
<g id="#da2204ff">
<path fill="#da2204" opacity="1.00" d=" M 31.98 10.01 C 37.33 9.98 42.67 9.93 48.01 9.97 L 47.98 10.99 C 42.66 10.99 37.35 11.03 32.03 10.97 L 31.98 10.01 Z" />
</g>
<g id="#4b91bcfb">
<path fill="#4b91bc" opacity="1.00" d=" M 48.01 9.97 C 53.38 9.78 58.85 13.48 60.27 18.76 C 60.16 21.52 60.07 24.29 59.98 27.06 L 59.03 26.85 C 59.00 25.51 58.98 24.16 58.96 22.82 C 58.94 21.14 59.11 19.39 58.45 17.80 C 58.17 17.32 57.62 16.36 57.34 15.89 C 54.86 13.48 51.21 14.21 48.04 13.93 C 48.02 13.20 48.00 11.72 47.98 10.99 L 48.01 9.97 Z" />
</g>
<g id="#70c9f8ff">
<path fill="#70c9f8" opacity="1.00" d=" M 9.67 11.55 C 9.99 11.32 10.64 10.87 10.96 10.64 C 13.19 10.62 12.38 13.88 14.19 13.88 C 18.80 16.78 18.69 12.92 19.77 10.76 L 20.67 11.11 C 23.81 14.76 27.92 12.44 31.99 11.90 C 31.98 12.41 31.97 13.44 31.97 13.96 C 28.39 13.51 24.66 13.01 27.13 16.81 C 27.10 19.88 27.02 22.95 26.99 26.02 C 20.98 22.66 14.37 20.62 8.16 17.72 C 7.52 15.50 8.85 13.51 9.67 11.55 Z" />
</g>
<g id="#60acdbff">
<path fill="#60acdb" opacity="1.00" d=" M 20.67 11.11 C 24.46 11.02 28.24 10.98 32.03 10.97 L 31.99 11.90 C 27.92 12.44 23.81 14.76 20.67 11.11 Z" />
</g>
<g id="#f92504ff">
<path fill="#f92504" opacity="1.00" d=" M 32.03 10.97 C 37.35 11.03 42.66 10.99 47.98 10.99 C 48.00 11.72 48.02 13.20 48.04 13.93 C 48.05 15.29 48.08 16.65 48.13 18.00 L 47.95 18.96 C 44.96 18.98 41.98 18.89 39.01 19.04 L 38.03 19.11 C 37.97 20.64 37.84 23.69 37.77 25.21 C 37.72 21.60 35.12 20.57 31.99 20.02 C 31.98 19.53 31.98 18.54 31.97 18.05 C 31.98 16.68 31.98 15.32 31.97 13.96 C 31.97 13.44 31.98 12.41 31.99 11.90 L 32.03 10.97 Z" />
</g>
<g id="#60b8f2ff">
<path fill="#60b8f2" opacity="1.00" d=" M 5.84 14.84 C 6.81 13.43 8.28 12.49 9.67 11.55 C 8.85 13.51 7.52 15.50 8.16 17.72 C 14.37 20.62 20.98 22.66 26.99 26.02 C 27.01 27.68 27.01 29.34 27.02 31.00 C 19.76 28.52 12.79 25.28 5.86 22.00 C 5.72 21.44 5.45 20.33 5.31 19.78 C 5.41 18.12 5.69 16.49 5.84 14.84 Z" />
</g>
<g id="#e9f8fbff">
<path fill="#e9f8fb" opacity="1.00" d=" M 27.13 16.81 C 24.66 13.01 28.39 13.51 31.97 13.96 C 31.98 15.32 31.98 16.68 31.97 18.05 C 30.72 18.02 29.48 17.99 28.23 17.95 C 27.96 17.67 27.41 17.10 27.13 16.81 Z" />
</g>
<g id="#afe9f4ff">
<path fill="#afe9f4" opacity="1.00" d=" M 48.04 13.93 C 51.21 14.21 54.86 13.48 57.34 15.89 C 56.33 16.67 55.29 17.41 54.27 18.18 C 52.22 18.09 50.18 18.02 48.13 18.00 C 48.08 16.65 48.05 15.29 48.04 13.93 Z" />
</g>
<g id="#4289bbf9">
<path fill="#4289bb" opacity="0.98" d=" M 3.76 18.75 C 4.16 17.31 4.97 16.03 5.84 14.84 C 5.69 16.49 5.41 18.12 5.31 19.78 C 5.25 21.56 5.12 25.11 5.05 26.88 C 5.03 27.64 5.00 29.17 4.99 29.93 L 4.03 30.03 C 4.02 26.27 4.00 22.51 3.76 18.75 Z" />
</g>
<g id="#6dc9f5ff">
<path fill="#6dc9f5" opacity="1.00" d=" M 57.34 15.89 C 57.62 16.36 58.17 17.32 58.45 17.80 C 58.09 19.23 57.76 20.69 57.02 21.98 C 51.04 22.46 43.22 21.98 39.01 27.09 C 39.00 25.72 39.00 24.36 39.01 23.00 C 43.37 19.35 50.88 22.65 54.27 18.18 C 55.29 17.41 56.33 16.67 57.34 15.89 Z" />
</g>
<g id="#5caad6ff">
<path fill="#5caad6" opacity="1.00" d=" M 27.13 16.81 C 27.41 17.10 27.96 17.67 28.23 17.95 C 28.33 18.43 28.51 19.38 28.60 19.86 C 28.29 23.57 28.09 27.29 27.99 31.01 L 27.02 31.00 C 27.01 29.34 27.01 27.68 26.99 26.02 C 27.02 22.95 27.10 19.88 27.13 16.81 Z" />
</g>
<g id="#81defdff">
<path fill="#81defd" opacity="1.00" d=" M 28.23 17.95 C 29.48 17.99 30.72 18.02 31.97 18.05 C 31.98 18.54 31.98 19.53 31.99 20.02 C 31.97 20.45 31.94 21.32 31.93 21.75 C 28.56 22.40 30.31 26.73 29.36 29.23 C 29.17 26.10 29.09 22.96 28.60 19.86 C 28.51 19.38 28.33 18.43 28.23 17.95 Z" />
</g>
<g id="#72defbff">
<path fill="#72defb" opacity="1.00" d=" M 48.13 18.00 C 50.18 18.02 52.22 18.09 54.27 18.18 C 50.88 22.65 43.37 19.35 39.01 23.00 C 39.01 22.26 39.02 20.78 39.02 20.04 C 41.52 19.21 46.61 21.41 47.95 18.96 L 48.13 18.00 Z" />
</g>
<g id="#52aaeaff">
<path fill="#52aaea" opacity="1.00" d=" M 58.45 17.80 C 59.11 19.39 58.94 21.14 58.96 22.82 C 56.84 30.15 47.74 28.54 41.91 30.83 C 40.01 30.87 39.83 32.85 39.12 34.18 C 39.09 33.37 39.02 31.76 38.99 30.96 L 39.00 29.98 C 44.77 26.85 53.08 27.62 57.02 21.98 C 57.76 20.69 58.09 19.23 58.45 17.80 Z" />
</g>
<g id="#204a68ca">
<path fill="#204a68" opacity="0.79" d=" M 2.99 32.01 C 3.02 27.58 2.76 23.08 3.76 18.75 C 4.00 22.51 4.02 26.27 4.03 30.03 C 4.02 30.52 3.99 31.50 3.98 31.99 L 2.99 32.01 Z" />
</g>
<g id="#998399ff">
<path fill="#998399" opacity="1.00" d=" M 38.03 19.11 L 39.01 19.04 L 39.02 20.04 C 39.02 20.78 39.01 22.26 39.01 23.00 C 39.00 24.36 39.00 25.72 39.01 27.09 C 39.01 27.81 39.00 29.26 39.00 29.98 L 38.99 30.96 L 38.03 31.00 C 37.98 29.07 37.92 27.14 37.77 25.21 C 37.84 23.69 37.97 20.64 38.03 19.11 Z" />
</g>
<g id="#90c2d3ff">
<path fill="#90c2d3" opacity="1.00" d=" M 39.01 19.04 C 41.98 18.89 44.96 18.98 47.95 18.96 C 46.61 21.41 41.52 19.21 39.02 20.04 L 39.01 19.04 Z" />
</g>
<g id="#18405bcc">
<path fill="#18405b" opacity="0.80" d=" M 60.27 18.76 C 61.44 24.07 60.88 29.58 61.00 34.98 L 60.02 35.03 C 60.01 32.37 60.00 29.72 59.98 27.06 C 60.07 24.29 60.16 21.52 60.27 18.76 Z" />
</g>
<g id="#48a2e7ff">
<path fill="#48a2e7" opacity="1.00" d=" M 5.31 19.78 C 5.45 20.33 5.72 21.44 5.86 22.00 C 6.11 23.59 6.44 25.21 7.33 26.59 C 13.99 28.83 20.02 32.85 26.99 34.16 C 27.00 35.46 26.97 36.77 26.91 38.07 C 20.87 35.93 15.07 33.17 9.09 30.88 C 7.20 30.23 6.20 28.37 5.05 26.88 C 5.12 25.11 5.25 21.56 5.31 19.78 Z" />
</g>
<g id="#478098fe">
<path fill="#478098" opacity="1.00" d=" M 27.99 31.01 C 28.09 27.29 28.29 23.57 28.60 19.86 C 29.09 22.96 29.17 26.10 29.36 29.23 C 29.26 29.91 29.07 31.27 28.97 31.95 L 27.99 32.02 L 27.99 31.01 Z" />
</g>
<g id="#e21d02ff">
<path fill="#e21d02" opacity="1.00" d=" M 31.99 20.02 C 35.12 20.57 37.72 21.60 37.77 25.21 C 37.92 27.14 37.98 29.07 38.03 31.00 C 38.03 33.75 38.02 36.50 38.01 39.24 L 37.70 40.17 C 35.86 37.57 39.95 28.27 34.23 30.10 C 34.09 30.86 33.81 32.37 33.68 33.13 C 33.11 31.97 32.61 30.79 32.07 29.62 C 32.02 27.00 31.97 24.38 31.93 21.75 C 31.94 21.32 31.97 20.45 31.99 20.02 Z" />
</g>
<g id="#53aceeff">
<path fill="#53acee" opacity="1.00" d=" M 5.86 22.00 C 12.79 25.28 19.76 28.52 27.02 31.00 C 27.01 31.79 27.00 33.37 26.99 34.16 C 20.02 32.85 13.99 28.83 7.33 26.59 C 6.44 25.21 6.11 23.59 5.86 22.00 Z" />
</g>
<g id="#61baf5ff">
<path fill="#61baf5" opacity="1.00" d=" M 29.36 29.23 C 30.31 26.73 28.56 22.40 31.93 21.75 C 31.97 24.38 32.02 27.00 32.07 29.62 C 29.03 30.25 29.98 33.85 29.24 36.23 C 29.14 34.80 29.05 33.38 28.97 31.95 C 29.07 31.27 29.26 29.91 29.36 29.23 Z" />
</g>
<g id="#5eb6f4ff">
<path fill="#5eb6f4" opacity="1.00" d=" M 39.01 27.09 C 43.22 21.98 51.04 22.46 57.02 21.98 C 53.08 27.62 44.77 26.85 39.00 29.98 C 39.00 29.26 39.01 27.81 39.01 27.09 Z" />
</g>
<g id="#459bddff">
<path fill="#459bdd" opacity="1.00" d=" M 41.91 30.83 C 47.74 28.54 56.84 30.15 58.96 22.82 C 58.98 24.16 59.00 25.51 59.03 26.85 C 55.79 31.91 49.15 32.08 44.06 34.07 C 40.26 33.09 40.17 36.19 39.17 38.21 C 39.14 36.87 39.13 35.52 39.12 34.18 C 39.83 32.85 40.01 30.87 41.91 30.83 Z" />
</g>
<g id="#3a96dcff">
<path fill="#3a96dc" opacity="1.00" d=" M 5.05 26.88 C 6.20 28.37 7.20 30.23 9.09 30.88 C 15.07 33.17 20.87 35.93 26.91 38.07 C 26.97 36.77 27.00 35.46 26.99 34.16 C 27.00 33.37 27.01 31.79 27.02 31.00 L 27.99 31.01 L 27.99 32.02 C 27.92 33.71 27.79 37.07 27.72 38.76 C 27.43 39.86 27.17 40.96 26.95 42.08 C 20.99 39.69 15.08 37.18 9.09 34.88 C 7.19 34.23 6.20 32.36 5.03 30.87 L 4.99 29.93 C 5.00 29.17 5.03 27.64 5.05 26.88 Z" />
</g>
<g id="#368bceff">
<path fill="#368bce" opacity="1.00" d=" M 44.06 34.07 C 49.15 32.08 55.79 31.91 59.03 26.85 C 59.02 28.20 59.00 29.54 58.95 30.89 C 54.87 37.45 46.05 38.27 38.99 39.13 L 39.17 38.21 C 40.17 36.19 40.26 33.09 44.06 34.07 Z" />
</g>
<g id="#186aaaff">
<path fill="#186aaa" opacity="1.00" d=" M 59.03 26.85 L 59.98 27.06 C 60.00 29.72 60.01 32.37 60.02 35.03 C 59.96 35.71 59.83 37.08 59.77 37.76 C 59.47 38.79 59.20 39.82 58.95 40.86 C 56.79 43.00 54.22 44.69 51.26 45.50 C 50.09 45.09 48.92 44.66 47.76 44.20 C 51.36 42.24 58.29 42.36 58.16 36.99 C 58.56 34.98 58.93 32.95 58.95 30.89 C 59.00 29.54 59.02 28.20 59.03 26.85 Z" />
</g>
<g id="#2371aeff">
<path fill="#2371ae" opacity="1.00" d=" M 4.03 30.03 L 4.99 29.93 L 5.03 30.87 C 5.04 31.62 5.06 33.12 5.07 33.87 C 5.04 35.19 5.01 36.51 4.98 37.83 L 4.02 38.07 C 4.00 36.04 3.99 34.02 3.98 31.99 C 3.99 31.50 4.02 30.52 4.03 30.03 Z" />
</g>
<g id="#3c9adfff">
<path fill="#3c9adf" opacity="1.00" d=" M 29.24 36.23 C 29.98 33.85 29.03 30.25 32.07 29.62 C 32.01 32.38 31.92 35.13 31.79 37.88 C 28.93 37.81 30.39 41.32 29.95 43.11 C 29.75 43.64 29.36 44.69 29.16 45.22 C 29.10 43.82 29.03 42.42 28.96 41.02 C 29.02 39.42 29.11 37.82 29.24 36.23 Z" />
</g>
<g id="#c81f08ff">
<path fill="#c81f08" opacity="1.00" d=" M 32.07 29.62 C 32.61 30.79 33.11 31.97 33.68 33.13 C 33.81 32.37 34.09 30.86 34.23 30.10 C 39.95 28.27 35.86 37.57 37.70 40.17 C 35.98 43.58 31.95 41.04 31.79 37.88 C 31.92 35.13 32.01 32.38 32.07 29.62 Z" />
</g>
<g id="#2d8bd2ff">
<path fill="#2d8bd2" opacity="1.00" d=" M 5.03 30.87 C 6.20 32.36 7.19 34.23 9.09 34.88 C 15.08 37.18 20.99 39.69 26.95 42.08 C 26.92 42.82 26.88 44.31 26.86 45.05 C 20.96 43.30 15.45 40.44 9.68 38.31 C 7.53 37.63 6.34 35.58 5.07 33.87 C 5.06 33.12 5.04 31.62 5.03 30.87 Z" />
</g>
<g id="#766885ff">
<path fill="#766885" opacity="1.00" d=" M 38.03 31.00 L 38.99 30.96 C 39.02 31.76 39.09 33.37 39.12 34.18 C 39.13 35.52 39.14 36.87 39.17 38.21 L 38.99 39.13 L 38.01 39.24 C 38.02 36.50 38.03 33.75 38.03 31.00 Z" />
</g>
<g id="#257ec3ff">
<path fill="#257ec3" opacity="1.00" d=" M 38.99 39.13 C 46.05 38.27 54.87 37.45 58.95 30.89 C 58.93 32.95 58.56 34.98 58.16 36.99 C 49.35 40.64 39.58 45.92 29.95 43.11 C 30.39 41.32 28.93 37.81 31.79 37.88 C 31.95 41.04 35.98 43.58 37.70 40.17 L 38.01 39.24 L 38.99 39.13 Z" />
</g>
<g id="#093353d5">
<path fill="#093353" opacity="0.84" d=" M 2.99 32.01 L 3.98 31.99 C 3.99 34.02 4.00 36.04 4.02 38.07 C 4.00 41.34 3.96 44.61 4.03 47.88 C 4.03 48.66 4.02 50.21 4.02 50.98 L 3.03 50.99 C 2.82 44.67 3.04 38.33 2.99 32.01 Z" />
</g>
<g id="#2a678dff">
<path fill="#2a678d" opacity="1.00" d=" M 27.99 32.02 L 28.97 31.95 C 29.05 33.38 29.14 34.80 29.24 36.23 C 29.11 37.82 29.02 39.42 28.96 41.02 L 27.93 40.91 C 27.88 40.37 27.77 39.30 27.72 38.76 C 27.79 37.07 27.92 33.71 27.99 32.02 Z" />
</g>
<g id="#2181c7ff">
<path fill="#2181c7" opacity="1.00" d=" M 5.07 33.87 C 6.34 35.58 7.53 37.63 9.68 38.31 C 15.45 40.44 20.96 43.30 26.86 45.05 C 26.88 44.31 26.92 42.82 26.95 42.08 C 27.17 40.96 27.43 39.86 27.72 38.76 C 27.77 39.30 27.88 40.37 27.93 40.91 C 27.95 42.67 27.98 46.18 28.00 47.94 L 27.25 48.38 C 21.14 47.40 15.69 44.21 9.97 42.03 C 7.62 41.53 6.28 39.63 4.98 37.83 C 5.01 36.51 5.04 35.19 5.07 33.87 Z" />
</g>
<g id="#022747d6">
<path fill="#022747" opacity="0.84" d=" M 60.02 35.03 L 61.00 34.98 C 61.02 40.32 61.08 45.65 60.99 50.99 L 60.00 50.97 C 59.99 50.20 59.98 48.66 59.98 47.88 C 60.00 44.51 59.97 41.13 59.77 37.76 C 59.83 37.08 59.96 35.71 60.02 35.03 Z" />
</g>
<g id="#1775baff">
<path fill="#1775ba" opacity="1.00" d=" M 29.95 43.11 C 39.58 45.92 49.35 40.64 58.16 36.99 C 58.29 42.36 51.36 42.24 47.76 44.20 C 41.90 44.91 36.10 46.17 30.16 46.17 C 30.11 46.88 30.03 48.30 29.99 49.01 L 29.93 49.99 C 27.89 50.01 29.52 46.62 29.16 45.22 C 29.36 44.69 29.75 43.64 29.95 43.11 Z" />
</g>
<g id="#085f9dff">
<path fill="#085f9d" opacity="1.00" d=" M 4.02 38.07 L 4.98 37.83 C 5.02 38.58 5.09 40.08 5.13 40.83 C 5.25 43.55 5.04 46.37 6.17 48.91 C 11.18 49.07 16.20 49.08 21.21 48.81 C 23.13 48.46 26.42 50.85 27.25 48.38 L 28.00 47.94 C 28.01 48.69 28.02 50.21 28.02 50.96 C 27.53 50.95 26.56 50.94 26.07 50.93 L 25.18 50.82 C 18.66 49.70 12.02 50.21 5.46 49.67 C 5.10 49.22 4.39 48.33 4.03 47.88 C 3.96 44.61 4.00 41.34 4.02 38.07 Z" />
</g>
<g id="#1378beff">
<path fill="#1378be" opacity="1.00" d=" M 4.98 37.83 C 6.28 39.63 7.62 41.53 9.97 42.03 C 15.69 44.21 21.14 47.40 27.25 48.38 C 26.42 50.85 23.13 48.46 21.21 48.81 C 15.66 47.19 7.43 47.37 5.13 40.83 C 5.09 40.08 5.02 38.58 4.98 37.83 Z" />
</g>
<g id="#024a8aff">
<path fill="#024a8a" opacity="1.00" d=" M 58.95 40.86 C 59.20 39.82 59.47 38.79 59.77 37.76 C 59.97 41.13 60.00 44.51 59.98 47.88 C 57.05 52.24 50.38 49.24 45.79 49.81 C 49.46 49.44 53.13 49.11 56.81 48.80 C 59.00 46.74 59.10 43.66 58.95 40.86 Z" />
</g>
<g id="#066eb4ff">
<path fill="#066eb4" opacity="1.00" d=" M 5.13 40.83 C 7.43 47.37 15.66 47.19 21.21 48.81 C 16.20 49.08 11.18 49.07 6.17 48.91 C 5.04 46.37 5.25 43.55 5.13 40.83 Z" />
</g>
<g id="#074c81ff">
<path fill="#074c81" opacity="1.00" d=" M 27.93 40.91 L 28.96 41.02 C 29.03 42.42 29.10 43.82 29.16 45.22 C 29.52 46.62 27.89 50.01 29.93 49.99 C 33.97 50.05 38.00 50.06 42.04 50.02 L 41.97 51.00 L 41.00 51.02 C 36.67 50.99 32.35 51.05 28.02 50.96 C 28.02 50.21 28.01 48.69 28.00 47.94 C 27.98 46.18 27.95 42.67 27.93 40.91 Z" />
</g>
<g id="#045ba1ff">
<path fill="#045ba1" opacity="1.00" d=" M 51.26 45.50 C 54.22 44.69 56.79 43.00 58.95 40.86 C 59.10 43.66 59.00 46.74 56.81 48.80 C 53.13 49.11 49.46 49.44 45.79 49.81 C 44.54 49.89 43.29 49.96 42.04 50.02 C 38.00 50.06 33.97 50.05 29.93 49.99 L 29.99 49.01 C 36.99 48.76 45.26 50.14 51.26 45.50 Z" />
</g>
<g id="#056cb2ff">
<path fill="#056cb2" opacity="1.00" d=" M 30.16 46.17 C 36.10 46.17 41.90 44.91 47.76 44.20 C 48.92 44.66 50.09 45.09 51.26 45.50 C 45.26 50.14 36.99 48.76 29.99 49.01 C 30.03 48.30 30.11 46.88 30.16 46.17 Z" />
</g>
<g id="#024573ff">
<path fill="#024573" opacity="1.00" d=" M 4.03 47.88 C 4.39 48.33 5.10 49.22 5.46 49.67 C 12.02 50.21 18.66 49.70 25.18 50.82 C 18.12 50.97 11.07 51.06 4.02 50.98 C 4.02 50.21 4.03 48.66 4.03 47.88 Z" />
</g>
<g id="#003665ff">
<path fill="#003665" opacity="1.00" d=" M 45.79 49.81 C 50.38 49.24 57.05 52.24 59.98 47.88 C 59.98 48.66 59.99 50.20 60.00 50.97 C 53.99 51.01 47.98 51.00 41.97 51.00 L 42.04 50.02 C 43.29 49.96 44.54 49.89 45.79 49.81 Z" />
</g>
<g id="#00070c2a">
<path fill="#00070c" opacity="0.16" d=" M 3.03 50.99 L 4.02 50.98 C 11.07 51.06 18.12 50.97 25.18 50.82 L 25.06 51.92 C 17.74 52.04 10.41 52.10 3.09 51.96 L 3.03 50.99 Z" />
<path fill="#00070c" opacity="0.16" d=" M 41.97 51.00 C 47.98 51.00 53.99 51.01 60.00 50.97 L 60.99 50.99 L 60.93 51.93 C 54.63 52.24 48.31 51.92 42.00 52.00 L 41.97 51.00 Z" />
</g>
<g id="#14100b62">
<path fill="#14100b" opacity="0.38" d=" M 25.18 50.82 L 26.07 50.93 C 26.08 52.74 26.10 56.37 26.12 58.19 C 26.03 60.12 26.00 62.06 25.98 64.00 L 24.99 64.00 C 24.99 59.97 25.02 55.95 25.06 51.92 L 25.18 50.82 Z" />
</g>
<g id="#392f1aff">
<path fill="#392f1a" opacity="1.00" d=" M 26.07 50.93 C 26.56 50.94 27.53 50.95 28.02 50.96 C 32.35 51.05 36.67 50.99 41.00 51.02 C 40.98 52.72 40.97 54.42 40.96 56.11 C 37.92 49.60 27.36 51.11 26.12 58.19 C 26.10 56.37 26.08 52.74 26.07 50.93 Z" />
</g>
<g id="#231a109d">
<path fill="#231a10" opacity="0.62" d=" M 41.00 51.02 L 41.97 51.00 L 42.00 52.00 C 42.00 56.00 42.00 60.00 42.01 64.00 L 41.03 64.00 C 41.02 61.37 41.00 58.74 40.96 56.11 C 40.97 54.42 40.98 52.72 41.00 51.02 Z" />
</g>
<g id="#634b2bff">
<path fill="#634b2b" opacity="1.00" d=" M 26.12 58.19 C 27.36 51.11 37.92 49.60 40.96 56.11 C 41.00 58.74 41.02 61.37 41.03 64.00 L 40.06 64.00 C 40.00 60.23 39.66 54.00 34.92 53.02 C 29.51 52.27 25.32 59.45 27.91 64.00 L 25.98 64.00 C 26.00 62.06 26.03 60.12 26.12 58.19 Z" />
</g>
<g id="#806540fd">
<path fill="#806540" opacity="1.00" d=" M 27.91 64.00 C 25.32 59.45 29.51 52.27 34.92 53.02 C 39.66 54.00 40.00 60.23 40.06 64.00 L 36.73 64.00 L 37.05 63.47 C 41.67 61.62 37.09 55.35 34.01 53.98 C 29.87 54.90 27.92 59.48 29.80 63.42 L 29.85 64.00 L 27.91 64.00 Z" />
</g>
<g id="#9e8152ff">
<path fill="#9e8152" opacity="1.00" d=" M 29.80 63.42 C 27.92 59.48 29.87 54.90 34.01 53.98 C 37.09 55.35 41.67 61.62 37.05 63.47 C 37.21 60.53 37.26 57.08 34.00 55.85 C 31.03 57.16 30.59 60.66 29.80 63.42 Z" />
</g>
<g id="#b99c67ff">
<path fill="#b99c67" opacity="1.00" d=" M 29.80 63.42 C 30.59 60.66 31.03 57.16 34.00 55.85 C 37.26 57.08 37.21 60.53 37.05 63.47 L 36.33 62.99 C 35.21 61.39 35.80 57.62 33.12 58.05 C 31.93 59.37 32.05 61.24 31.71 62.88 C 31.23 63.02 30.28 63.29 29.80 63.42 Z" />
</g>
<g id="#cbb17aff">
<path fill="#cbb17a" opacity="1.00" d=" M 33.12 58.05 C 35.80 57.62 35.21 61.39 36.33 62.99 C 34.79 62.95 33.25 62.91 31.71 62.88 C 32.05 61.24 31.93 59.37 33.12 58.05 Z" />
</g>
<g id="#96855fed">
<path fill="#96855f" opacity="0.93" d=" M 29.80 63.42 C 30.28 63.29 31.23 63.02 31.71 62.88 C 33.25 62.91 34.79 62.95 36.33 62.99 L 37.05 63.47 L 36.73 64.00 L 29.85 64.00 L 29.80 63.42 Z" />
</g>
</svg>
