<?xml version="1.0" encoding="UTF-8" ?>
<!DOCTYPE svg PUBLIC "-//W3C//DTD SVG 1.1//EN" "http://www.w3.org/Graphics/SVG/1.1/DTD/svg11.dtd">
<svg width="64pt" height="64pt" viewBox="0 0 64 64" version="1.1" xmlns="http://www.w3.org/2000/svg">
<g id="#a5a521ff">
<path fill="#a5a521" opacity="1.00" d=" M 41.38 2.39 C 44.61 0.61 48.54 0.74 52.07 1.30 C 56.77 3.01 60.60 7.86 60.03 13.03 C 59.70 14.94 60.29 17.92 58.15 18.87 C 57.98 18.79 57.64 18.64 57.47 18.56 C 57.43 17.78 57.34 16.21 57.30 15.43 C 57.77 11.09 55.84 6.26 51.61 4.52 C 48.35 2.84 44.68 3.70 41.43 4.85 C 41.42 4.24 41.39 3.00 41.38 2.39 Z" />
</g>
<g id="#1f1f1fff">
<path fill="#1f1f1f" opacity="1.00" d=" M 9.52 5.59 C 12.51 2.99 16.80 3.88 20.31 4.70 C 17.66 5.58 14.70 5.82 12.29 7.29 C 10.99 9.58 10.69 12.29 9.96 14.79 C 9.79 14.29 9.45 13.28 9.28 12.78 C 10.13 19.17 8.54 25.88 10.65 32.07 C 11.31 34.66 12.01 37.24 13.08 39.70 C 13.29 40.31 13.72 41.52 13.93 42.13 C 13.57 42.36 12.84 42.80 12.48 43.03 L 11.91 43.81 C 11.76 43.28 11.45 42.21 11.29 41.67 C 10.72 39.98 9.39 39.24 7.64 39.37 C 8.41 38.88 9.18 38.37 9.93 37.85 C 7.41 30.49 6.85 22.60 7.44 14.89 C 7.75 11.77 7.31 8.13 9.52 5.59 Z" />
</g>
<g id="#3f3f3fff">
<path fill="#3f3f3f" opacity="1.00" d=" M 12.29 7.29 C 14.70 5.82 17.66 5.58 20.31 4.70 C 22.28 5.37 24.22 6.15 26.05 7.16 C 22.88 7.36 17.25 4.59 15.97 9.04 C 14.68 15.53 16.98 22.04 16.60 28.58 C 15.09 26.28 13.73 23.89 12.50 21.43 C 12.23 20.84 11.70 19.67 11.44 19.08 C 10.96 17.64 10.46 16.22 9.96 14.79 C 10.69 12.29 10.99 9.58 12.29 7.29 Z" />
<path fill="#3f3f3f" opacity="1.00" d=" M 26.57 7.37 C 32.26 9.59 36.84 13.69 41.76 17.16 C 40.90 17.38 40.04 17.59 39.18 17.81 C 38.38 17.13 37.58 16.44 36.77 15.78 C 33.72 13.13 30.27 11.04 26.76 9.08 L 26.57 7.37 Z" />
<path fill="#3f3f3f" opacity="1.00" d=" M 25.37 29.91 C 26.61 28.90 28.12 28.42 29.69 28.29 C 26.65 30.20 23.92 33.16 24.03 37.00 C 27.88 37.03 30.35 33.91 32.93 31.56 C 32.15 35.20 30.89 38.75 28.42 41.61 C 25.45 39.29 22.83 36.56 20.41 33.69 C 22.08 32.46 23.72 31.17 25.37 29.91 Z" />
</g>
<g id="#636363ff">
<path fill="#636363" opacity="1.00" d=" M 15.97 9.04 C 17.25 4.59 22.88 7.36 26.05 7.16 C 26.18 7.17 26.43 7.20 26.56 7.22 L 26.57 7.37 L 26.76 9.08 C 23.95 8.56 20.18 6.10 17.90 8.85 C 16.84 13.00 17.20 17.42 17.74 21.63 C 18.03 26.02 23.11 26.81 25.37 29.91 C 23.72 31.17 22.08 32.46 20.41 33.69 C 19.06 32.05 17.79 30.35 16.60 28.58 C 16.98 22.04 14.68 15.53 15.97 9.04 Z" />
</g>
<g id="#5f5f2099">
<path fill="#5f5f20" opacity="0.60" d=" M 42.77 8.89 C 44.49 7.31 46.80 6.09 49.16 7.00 C 48.45 7.06 47.03 7.20 46.32 7.27 C 46.31 7.77 46.31 8.77 46.31 9.27 C 47.40 9.66 48.49 10.04 49.59 10.41 C 48.56 10.48 46.50 10.64 45.48 10.72 C 45.21 12.03 44.95 13.34 44.66 14.65 C 44.05 12.72 43.44 10.79 42.77 8.89 Z" />
</g>
<g id="#c2c224f9">
<path fill="#c2c224" opacity="0.98" d=" M 46.32 7.27 C 47.03 7.20 48.45 7.06 49.16 7.00 C 52.28 7.63 53.87 10.69 54.33 13.58 C 53.73 13.61 52.53 13.66 51.93 13.68 C 51.47 13.05 51.02 12.41 50.57 11.77 C 50.32 11.43 49.83 10.75 49.59 10.41 C 48.49 10.04 47.40 9.66 46.31 9.27 C 46.31 8.77 46.31 7.77 46.32 7.27 Z" />
</g>
<g id="#838383ff">
<path fill="#838383" opacity="1.00" d=" M 17.90 8.85 C 20.18 6.10 23.95 8.56 26.76 9.08 C 30.27 11.04 33.72 13.13 36.77 15.78 C 30.52 15.78 27.03 9.09 20.85 8.71 C 17.80 10.79 19.28 15.74 21.81 17.80 C 24.56 16.70 27.36 15.65 30.34 15.39 C 30.45 18.21 30.57 21.02 30.71 23.83 C 32.32 23.61 33.93 23.39 35.54 23.17 C 33.64 24.93 31.66 26.61 29.69 28.29 C 28.12 28.42 26.61 28.90 25.37 29.91 C 23.11 26.81 18.03 26.02 17.74 21.63 C 17.20 17.42 16.84 13.00 17.90 8.85 Z" />
<path fill="#838383" opacity="1.00" d=" M 9.28 12.78 C 9.45 13.28 9.79 14.29 9.96 14.79 C 10.46 16.22 10.96 17.64 11.44 19.08 C 10.66 23.39 12.05 27.84 10.65 32.07 C 8.54 25.88 10.13 19.17 9.28 12.78 Z" />
</g>
<g id="#a7a7a7ff">
<path fill="#a7a7a7" opacity="1.00" d=" M 21.81 17.80 C 19.28 15.74 17.80 10.79 20.85 8.71 C 27.03 9.09 30.52 15.78 36.77 15.78 C 37.58 16.44 38.38 17.13 39.18 17.81 C 38.56 19.05 37.95 20.29 37.29 21.52 C 36.71 22.07 36.13 22.63 35.54 23.17 C 33.93 23.39 32.32 23.61 30.71 23.83 C 30.57 21.02 30.45 18.21 30.34 15.39 C 27.36 15.65 24.56 16.70 21.81 17.80 Z" />
</g>
<g id="#29290f4a">
<path fill="#29290f" opacity="0.29" d=" M 41.76 17.16 C 44.08 14.61 40.43 11.43 42.77 8.89 C 43.44 10.79 44.05 12.72 44.66 14.65 C 43.70 15.50 42.73 16.34 41.76 17.16 Z" />
</g>
<g id="#8a8a8aff">
<path fill="#8a8a8a" opacity="1.00" d=" M 44.66 14.65 C 44.95 13.34 45.21 12.03 45.48 10.72 C 45.92 12.35 46.33 14.12 48.06 14.86 C 48.58 13.38 49.09 11.89 49.59 10.41 C 49.83 10.75 50.32 11.43 50.57 11.77 C 50.18 12.92 49.78 14.06 49.36 15.20 C 48.61 15.18 47.12 15.16 46.37 15.14 L 46.15 15.71 L 45.85 16.47 L 45.48 17.33 L 44.31 18.00 C 42.38 18.50 42.14 21.73 44.54 21.48 L 45.32 21.54 C 47.42 24.23 49.37 27.05 51.46 29.74 L 51.34 30.28 C 51.06 31.15 50.80 32.03 50.56 32.91 C 49.56 31.39 48.45 29.95 47.41 28.47 C 46.91 28.46 45.90 28.44 45.40 28.43 C 41.62 32.84 36.75 36.19 33.24 40.86 C 34.08 42.64 34.93 44.43 35.59 46.28 C 33.73 45.17 31.87 44.05 30.07 42.83 C 32.01 38.26 36.32 35.50 39.31 31.70 C 37.64 30.88 35.85 30.43 34.01 30.17 C 33.74 30.52 33.20 31.21 32.93 31.56 C 30.35 33.91 27.88 37.03 24.03 37.00 C 23.92 33.16 26.65 30.20 29.69 28.29 C 28.53 30.09 27.66 32.04 26.90 34.04 C 33.05 32.00 36.25 25.96 40.95 21.97 C 39.74 24.23 38.43 26.43 37.03 28.58 C 39.59 28.14 42.15 27.72 44.72 27.35 C 45.18 24.68 43.22 23.02 41.27 21.62 C 41.52 20.45 41.77 19.27 42.02 18.10 C 40.42 19.21 38.83 20.33 37.29 21.52 C 37.95 20.29 38.56 19.05 39.18 17.81 C 40.04 17.59 40.90 17.38 41.76 17.16 C 42.73 16.34 43.70 15.50 44.66 14.65 Z" />
</g>
<g id="#c3c3c4ff">
<path fill="#c3c3c4" opacity="1.00" d=" M 45.48 10.72 C 46.50 10.64 48.56 10.48 49.59 10.41 C 49.09 11.89 48.58 13.38 48.06 14.86 C 46.33 14.12 45.92 12.35 45.48 10.72 Z" />
</g>
<g id="#767620c4">
<path fill="#767620" opacity="0.77" d=" M 50.57 11.77 C 51.02 12.41 51.47 13.05 51.93 13.68 C 52.53 13.66 53.73 13.61 54.33 13.58 C 53.83 15.11 53.02 16.50 52.06 17.79 C 51.10 17.10 50.13 16.42 49.16 15.75 L 49.36 15.20 C 49.78 14.06 50.18 12.92 50.57 11.77 Z" />
</g>
<g id="#4e4e4efb">
<path fill="#4e4e4e" opacity="1.00" d=" M 46.37 15.14 C 47.12 15.16 48.61 15.18 49.36 15.20 L 49.16 15.75 C 48.41 15.74 46.90 15.72 46.15 15.71 L 46.37 15.14 Z" />
</g>
<g id="#3a3a0c5d">
<path fill="#3a3a0c" opacity="0.36" d=" M 46.15 15.71 C 46.90 15.72 48.41 15.74 49.16 15.75 C 50.13 16.42 51.10 17.10 52.06 17.79 L 52.37 18.00 C 50.09 19.35 47.10 19.02 45.85 16.47 L 46.15 15.71 Z" />
</g>
<g id="#2a2a0841">
<path fill="#2a2a08" opacity="0.25" d=" M 52.53 22.05 C 54.41 20.05 55.32 17.33 57.30 15.43 C 57.34 16.21 57.43 17.78 57.47 18.56 C 57.64 18.64 57.98 18.79 58.15 18.87 L 59.37 19.42 C 57.85 21.14 56.07 22.61 53.99 23.60 C 53.51 23.08 53.02 22.56 52.53 22.05 Z" />
</g>
<g id="#444443b9">
<path fill="#444443" opacity="0.73" d=" M 44.54 21.48 C 42.14 21.73 42.38 18.50 44.31 18.00 C 44.44 19.11 45.16 20.43 44.54 21.48 Z" />
</g>
<g id="#c8c8c8ff">
<path fill="#c8c8c8" opacity="1.00" d=" M 37.29 21.52 C 38.83 20.33 40.42 19.21 42.02 18.10 C 41.77 19.27 41.52 20.45 41.27 21.62 C 43.22 23.02 45.18 24.68 44.72 27.35 C 42.15 27.72 39.59 28.14 37.03 28.58 C 38.43 26.43 39.74 24.23 40.95 21.97 C 36.25 25.96 33.05 32.00 26.90 34.04 C 27.66 32.04 28.53 30.09 29.69 28.29 C 31.66 26.61 33.64 24.93 35.54 23.17 C 36.13 22.63 36.71 22.07 37.29 21.52 Z" />
</g>
<g id="#bababaff">
<path fill="#bababa" opacity="1.00" d=" M 10.65 32.07 C 12.05 27.84 10.66 23.39 11.44 19.08 C 11.70 19.67 12.23 20.84 12.50 21.43 C 11.87 25.01 12.51 28.62 13.55 32.06 C 18.94 32.67 20.92 38.49 24.98 41.29 C 20.46 40.21 16.23 38.26 12.26 35.88 C 12.54 37.15 12.82 38.42 13.08 39.70 C 12.01 37.24 11.31 34.66 10.65 32.07 Z" />
<path fill="#bababa" opacity="1.00" d=" M 8.40 57.52 C 12.23 57.46 16.07 57.13 19.90 57.51 C 21.03 57.52 21.78 58.11 22.14 59.27 C 21.46 59.27 20.08 59.26 19.39 59.26 C 16.12 59.02 12.81 59.25 9.57 58.63 C 9.28 58.35 8.70 57.79 8.40 57.52 Z" />
</g>
<g id="#d5d5d5ff">
<path fill="#d5d5d5" opacity="1.00" d=" M 13.55 32.06 C 12.51 28.62 11.87 25.01 12.50 21.43 C 13.73 23.89 15.09 26.28 16.60 28.58 C 17.79 30.35 19.06 32.05 20.41 33.69 C 22.83 36.56 25.45 39.29 28.42 41.61 C 28.95 42.04 29.51 42.43 30.07 42.83 C 31.87 44.05 33.73 45.17 35.59 46.28 C 35.26 46.61 34.59 47.25 34.25 47.57 C 33.39 47.15 32.54 46.70 31.71 46.22 C 30.54 45.42 29.39 44.58 28.25 43.73 C 27.16 42.91 26.07 42.09 24.98 41.29 C 20.92 38.49 18.94 32.67 13.55 32.06 Z" />
</g>
<g id="#c3c3c3ff">
<path fill="#c3c3c3" opacity="1.00" d=" M 45.40 28.43 C 45.90 28.44 46.91 28.46 47.41 28.47 C 48.45 29.95 49.56 31.39 50.56 32.91 C 50.80 32.03 51.06 31.15 51.34 30.28 C 52.38 31.31 52.12 33.38 53.71 33.89 C 53.62 34.21 53.44 34.86 53.36 35.19 C 56.51 38.93 57.06 44.54 56.56 49.37 C 56.24 49.86 55.58 50.83 55.26 51.32 C 49.84 51.79 44.20 52.35 39.06 50.15 C 37.45 49.30 35.87 48.40 34.25 47.57 C 34.59 47.25 35.26 46.61 35.59 46.28 C 34.93 44.43 34.08 42.64 33.24 40.86 C 36.75 36.19 41.62 32.84 45.40 28.43 M 46.31 31.36 C 43.77 32.75 42.80 36.06 41.44 38.53 C 39.46 41.57 41.51 45.11 43.34 47.67 C 46.03 50.01 51.16 50.64 53.60 47.67 C 54.12 41.72 50.93 36.04 47.43 31.46 C 47.15 31.43 46.59 31.38 46.31 31.36 Z" />
</g>
<g id="#626262ff">
<path fill="#626262" opacity="1.00" d=" M 32.93 31.56 C 33.20 31.21 33.74 30.52 34.01 30.17 C 35.85 30.43 37.64 30.88 39.31 31.70 C 36.32 35.50 32.01 38.26 30.07 42.83 C 29.51 42.43 28.95 42.04 28.42 41.61 C 30.89 38.75 32.15 35.20 32.93 31.56 Z" />
</g>
<g id="#e3e3e3ff">
<path fill="#e3e3e3" opacity="1.00" d=" M 46.31 31.36 C 46.59 31.38 47.15 31.43 47.43 31.46 C 50.93 36.04 54.12 41.72 53.60 47.67 C 51.16 50.64 46.03 50.01 43.34 47.67 C 41.51 45.11 39.46 41.57 41.44 38.53 C 42.80 36.06 43.77 32.75 46.31 31.36 Z" />
</g>
<g id="#a5a5a5ff">
<path fill="#a5a5a5" opacity="1.00" d=" M 12.26 35.88 C 16.23 38.26 20.46 40.21 24.98 41.29 C 26.07 42.09 27.16 42.91 28.25 43.73 C 22.76 44.43 17.75 42.30 13.08 39.70 C 12.82 38.42 12.54 37.15 12.26 35.88 Z" />
</g>
<g id="#a3a3a3ff">
<path fill="#a3a3a3" opacity="1.00" d=" M 7.64 39.37 C 9.39 39.24 10.72 39.98 11.29 41.67 C 9.96 42.45 7.58 42.37 7.51 44.37 C 6.74 46.74 9.45 47.96 10.73 49.47 C 12.17 49.49 13.61 49.52 15.04 49.57 C 13.93 47.69 12.60 45.90 11.91 43.81 L 12.48 43.03 C 13.22 43.97 13.95 44.91 14.69 45.84 C 16.28 48.09 18.26 50.48 17.46 53.43 C 15.22 53.44 12.98 53.48 10.75 53.55 C 9.06 51.90 6.50 50.52 6.31 47.90 C 5.89 45.30 6.80 42.75 7.39 40.26 C 7.46 40.04 7.58 39.59 7.64 39.37 Z" />
</g>
<g id="#7e7e7eff">
<path fill="#7e7e7e" opacity="1.00" d=" M 13.08 39.70 C 17.75 42.30 22.76 44.43 28.25 43.73 C 29.39 44.58 30.54 45.42 31.71 46.22 C 26.02 47.82 20.73 44.94 15.41 43.42 C 14.92 42.99 14.42 42.56 13.93 42.13 C 13.72 41.52 13.29 40.31 13.08 39.70 Z" />
</g>
<g id="#545455ff">
<path fill="#545455" opacity="1.00" d=" M 7.01 55.84 C 3.12 51.82 2.39 43.48 7.39 40.26 C 6.80 42.75 5.89 45.30 6.31 47.90 C 6.50 50.52 9.06 51.90 10.75 53.55 C 12.98 53.48 15.22 53.44 17.46 53.43 C 18.26 50.48 16.28 48.09 14.69 45.84 C 18.12 48.31 21.11 51.32 23.40 54.89 C 22.73 55.11 21.40 55.57 20.74 55.80 C 16.51 55.56 12.26 55.50 8.02 55.78 L 7.01 55.84 Z" />
</g>
<g id="#f4f4f4ff">
<path fill="#f4f4f4" opacity="1.00" d=" M 7.51 44.37 C 7.58 42.37 9.96 42.45 11.29 41.67 C 11.45 42.21 11.76 43.28 11.91 43.81 C 12.60 45.90 13.93 47.69 15.04 49.57 C 13.61 49.52 12.17 49.49 10.73 49.47 C 9.45 47.96 6.74 46.74 7.51 44.37 Z" />
</g>
<g id="#0a0a0aff">
<path fill="#0a0a0a" opacity="1.00" d=" M 12.48 43.03 C 12.84 42.80 13.57 42.36 13.93 42.13 C 14.42 42.56 14.92 42.99 15.41 43.42 C 18.13 46.92 22.48 48.44 26.69 49.20 C 30.77 49.84 34.90 50.84 39.06 50.15 C 44.20 52.35 49.84 51.79 55.26 51.32 C 52.43 53.74 48.49 53.40 45.02 53.47 C 38.43 53.58 31.78 53.02 25.46 51.06 C 24.76 52.33 24.06 53.59 23.40 54.89 C 21.11 51.32 18.12 48.31 14.69 45.84 C 13.95 44.91 13.22 43.97 12.48 43.03 Z" />
</g>
<g id="#575756ff">
<path fill="#575756" opacity="1.00" d=" M 15.41 43.42 C 20.73 44.94 26.02 47.82 31.71 46.22 C 32.54 46.70 33.39 47.15 34.25 47.57 C 35.87 48.40 37.45 49.30 39.06 50.15 C 34.90 50.84 30.77 49.84 26.69 49.20 C 22.48 48.44 18.13 46.92 15.41 43.42 Z" />
</g>
<g id="#2e2e2eec">
<path fill="#2e2e2e" opacity="0.93" d=" M 8.02 55.78 C 12.26 55.50 16.51 55.56 20.74 55.80 C 22.45 57.05 23.99 58.51 25.50 59.98 C 23.93 59.91 22.28 60.27 20.76 59.79 L 19.39 59.26 C 20.08 59.26 21.46 59.27 22.14 59.27 C 21.78 58.11 21.03 57.52 19.90 57.51 C 16.07 57.13 12.23 57.46 8.40 57.52 L 8.11 57.25 L 8.02 55.78 Z" />
</g>
<g id="#676767fa">
<path fill="#676767" opacity="0.98" d=" M 6.35 57.60 C 6.79 57.51 7.67 57.33 8.11 57.25 L 8.40 57.52 C 8.70 57.79 9.28 58.35 9.57 58.63 C 12.81 59.25 16.12 59.02 19.39 59.26 L 20.76 59.79 C 15.71 60.23 10.63 59.88 5.57 59.98 C 5.70 59.60 5.94 58.84 6.07 58.46 L 6.35 57.60 Z" />
</g>
<g id="#1e1e1fad">
<path fill="#1e1e1f" opacity="0.68" d=" M 5.57 59.98 C 3.23 61.58 4.24 56.72 6.07 58.46 C 5.94 58.84 5.70 59.60 5.57 59.98 Z" />
</g>
</svg>
