<?xml version="1.0" encoding="UTF-8" ?>
<!DOCTYPE svg PUBLIC "-//W3C//DTD SVG 1.1//EN" "http://www.w3.org/Graphics/SVG/1.1/DTD/svg11.dtd">
<svg width="64pt" height="64pt" viewBox="0 0 64 64" version="1.1" xmlns="http://www.w3.org/2000/svg">
<g id="#c7a073f7">
<path fill="#c7a073" opacity="0.97" d=" M 21.13 6.23 C 25.19 5.56 28.87 3.17 32.98 3.01 C 41.99 6.37 51.26 9.04 60.27 12.41 C 57.28 14.74 53.57 15.76 50.09 17.12 L 49.25 16.82 C 48.96 16.72 48.38 16.51 48.09 16.40 C 39.05 13.30 30.02 10.16 21.01 7.00 L 21.13 6.23 Z" />
</g>
<g id="#eee0cbff">
<path fill="#eee0cb" opacity="1.00" d=" M 16.65 8.36 C 18.09 7.91 19.44 6.95 21.01 7.00 C 30.02 10.16 39.05 13.30 48.09 16.40 C 47.66 18.27 45.50 18.54 44.05 19.31 C 36.35 17.39 29.16 13.92 21.65 11.42 C 19.83 10.72 17.56 10.31 16.65 8.36 Z" />
</g>
<g id="#cda67afd">
<path fill="#cda67a" opacity="1.00" d=" M 3.76 12.45 C 8.03 11.50 12.44 8.03 16.65 8.36 C 17.56 10.31 19.83 10.72 21.65 11.42 C 29.16 13.92 36.35 17.39 44.05 19.31 C 44.00 20.01 43.92 21.41 43.88 22.11 L 43.81 23.19 C 43.44 22.15 43.07 21.11 42.69 20.07 C 39.00 21.09 35.59 22.90 32.01 24.23 C 22.50 20.55 12.61 17.60 3.76 12.45 Z" />
</g>
<g id="#ae885cfe">
<path fill="#ae885c" opacity="1.00" d=" M 3.00 12.02 L 3.76 12.45 C 12.61 17.60 22.50 20.55 32.01 24.23 C 32.00 30.22 32.01 36.20 32.01 42.19 L 31.97 43.17 C 23.01 41.60 14.36 38.55 6.10 34.82 C 4.82 29.52 6.27 23.53 3.30 18.72 C 3.23 17.04 3.08 13.69 3.00 12.02 M 21.03 23.94 C 21.06 26.39 21.12 31.27 21.15 33.72 C 23.70 34.96 26.34 36.04 29.03 36.94 C 29.02 34.47 28.99 29.52 28.98 27.05 C 26.43 25.87 23.99 23.80 21.03 23.94 Z" />
</g>
<g id="#976e42fe">
<path fill="#976e42" opacity="1.00" d=" M 60.27 12.41 C 62.92 10.33 60.57 18.44 60.72 20.09 L 60.15 20.04 C 59.94 19.45 59.52 18.26 59.31 17.67 C 58.39 23.20 59.59 29.58 56.68 34.62 C 48.58 37.53 40.31 39.94 32.01 42.19 C 32.01 36.20 32.00 30.22 32.01 24.23 C 35.59 22.90 39.00 21.09 42.69 20.07 C 43.07 21.11 43.44 22.15 43.81 23.19 C 43.85 23.90 43.93 25.33 43.97 26.04 C 44.01 26.81 44.09 28.33 44.13 29.09 C 46.12 28.57 47.97 27.65 49.78 26.68 C 49.97 23.49 50.03 20.31 50.09 17.12 C 53.57 15.76 57.28 14.74 60.27 12.41 Z" />
</g>
<g id="#cbb9a3ff">
<path fill="#cbb9a3" opacity="1.00" d=" M 48.09 16.40 C 48.38 16.51 48.96 16.72 49.25 16.82 C 49.14 18.54 49.06 20.26 49.01 21.99 C 47.30 22.01 45.59 22.05 43.88 22.11 C 43.92 21.41 44.00 20.01 44.05 19.31 C 45.50 18.54 47.66 18.27 48.09 16.40 Z" />
</g>
<g id="#b09676ff">
<path fill="#b09676" opacity="1.00" d=" M 49.25 16.82 L 50.09 17.12 C 50.03 20.31 49.97 23.49 49.78 26.68 C 47.97 27.65 46.12 28.57 44.13 29.09 C 44.09 28.33 44.01 26.81 43.97 26.04 C 45.61 26.03 47.26 26.03 48.90 25.91 C 48.98 24.60 49.02 23.29 49.01 21.99 C 49.06 20.26 49.14 18.54 49.25 16.82 Z" />
</g>
<g id="#865c30fe">
<path fill="#865c30" opacity="1.00" d=" M 59.31 17.67 C 59.52 18.26 59.94 19.45 60.15 20.04 C 60.12 21.74 60.06 25.14 60.03 26.84 C 59.99 32.28 60.16 37.74 59.87 43.17 C 59.35 42.41 58.82 41.66 58.27 40.93 C 57.76 42.37 58.34 44.47 56.90 45.41 C 55.74 43.02 57.96 38.49 55.14 36.92 C 53.25 40.06 54.58 44.12 53.05 47.46 C 52.27 44.57 51.86 41.66 52.64 38.77 C 49.87 39.08 50.50 41.88 50.48 43.86 C 50.63 47.02 48.67 50.40 45.15 49.73 C 45.04 49.03 44.83 47.62 44.72 46.92 C 46.32 45.21 48.50 43.63 48.06 40.97 C 45.71 41.53 42.41 41.65 42.78 44.89 C 39.72 40.60 40.70 47.57 44.12 47.50 C 43.08 53.04 36.15 52.82 32.10 55.07 C 32.05 51.10 32.01 47.14 31.97 43.17 L 32.01 42.19 C 40.31 39.94 48.58 37.53 56.68 34.62 C 59.59 29.58 58.39 23.20 59.31 17.67 Z" />
</g>
<g id="#9b7347fd">
<path fill="#9b7347" opacity="1.00" d=" M 3.30 18.72 C 6.27 23.53 4.82 29.52 6.10 34.82 C 14.36 38.55 23.01 41.60 31.97 43.17 C 32.01 47.14 32.05 51.10 32.10 55.07 C 32.04 55.85 31.92 57.40 31.86 58.17 C 23.59 55.57 15.93 51.43 8.00 47.98 C 4.80 46.71 5.31 42.37 4.20 39.77 C 4.55 32.73 3.29 25.69 3.30 18.72 Z" />
</g>
<g id="#69543e97">
<path fill="#69543e" opacity="0.59" d=" M 60.15 20.04 L 60.72 20.09 C 61.30 21.99 62.02 25.88 60.03 26.84 C 60.06 25.14 60.12 21.74 60.15 20.04 Z" />
</g>
<g id="#bfa98eff">
<path fill="#bfa98e" opacity="1.00" d=" M 43.88 22.11 C 45.59 22.05 47.30 22.01 49.01 21.99 C 49.02 23.29 48.98 24.60 48.90 25.91 C 47.26 26.03 45.61 26.03 43.97 26.04 C 43.93 25.33 43.85 23.90 43.81 23.19 L 43.88 22.11 Z" />
</g>
<g id="#d6ccc1ff">
<path fill="#d6ccc1" opacity="1.00" d=" M 21.03 23.94 C 23.99 23.80 26.43 25.87 28.98 27.05 C 28.99 29.52 29.02 34.47 29.03 36.94 C 26.34 36.04 23.70 34.96 21.15 33.72 C 21.12 31.27 21.06 26.39 21.03 23.94 M 23.20 30.20 C 20.63 31.45 23.75 33.24 24.95 34.13 C 24.74 32.56 26.05 28.81 23.20 30.20 Z" />
</g>
<g id="#8a8177ff">
<path fill="#8a8177" opacity="1.00" d=" M 23.20 30.20 C 26.05 28.81 24.74 32.56 24.95 34.13 C 23.75 33.24 20.63 31.45 23.20 30.20 Z" />
</g>
<g id="#593b1dff">
<path fill="#593b1d" opacity="1.00" d=" M 55.14 36.92 C 57.96 38.49 55.74 43.02 56.90 45.41 C 55.75 46.31 54.37 46.87 53.05 47.46 C 54.58 44.12 53.25 40.06 55.14 36.92 Z" />
</g>
<g id="#56381bff">
<path fill="#56381b" opacity="1.00" d=" M 50.48 43.86 C 50.50 41.88 49.87 39.08 52.64 38.77 C 51.86 41.66 52.27 44.57 53.05 47.46 C 50.43 49.28 51.00 45.52 50.48 43.86 Z" />
</g>
<g id="#805931ed">
<path fill="#805931" opacity="0.93" d=" M 4.20 39.77 C 5.31 42.37 4.80 46.71 8.00 47.98 C 15.93 51.43 23.59 55.57 31.86 58.17 C 31.65 58.75 31.25 59.90 31.04 60.48 C 26.14 58.16 21.39 55.48 16.26 53.68 C 12.53 51.76 8.70 50.03 5.09 47.91 C 2.72 45.95 4.31 42.46 4.20 39.77 Z" />
</g>
<g id="#52361aff">
<path fill="#52361a" opacity="1.00" d=" M 42.78 44.89 C 42.41 41.65 45.71 41.53 48.06 40.97 C 48.50 43.63 46.32 45.21 44.72 46.92 L 44.12 47.50 C 40.70 47.57 39.72 40.60 42.78 44.89 Z" />
</g>
<g id="#6f471ef7">
<path fill="#6f471e" opacity="0.97" d=" M 58.27 40.93 C 58.82 41.66 59.35 42.41 59.87 43.17 C 60.13 44.79 60.33 46.76 58.94 47.94 C 53.96 50.69 48.77 53.04 43.74 55.68 C 39.33 56.48 35.34 60.76 31.04 60.48 C 31.25 59.90 31.65 58.75 31.86 58.17 C 31.92 57.40 32.04 55.85 32.10 55.07 C 36.15 52.82 43.08 53.04 44.12 47.50 L 44.72 46.92 C 44.83 47.62 45.04 49.03 45.15 49.73 C 48.67 50.40 50.63 47.02 50.48 43.86 C 51.00 45.52 50.43 49.28 53.05 47.46 C 54.37 46.87 55.75 46.31 56.90 45.41 C 58.34 44.47 57.76 42.37 58.27 40.93 Z" />
</g>
<g id="#0c08055c">
<path fill="#0c0805" opacity="0.36" d=" M 5.09 47.91 C 8.70 50.03 12.53 51.76 16.26 53.68 C 12.22 54.37 8.83 51.10 5.19 49.71 C 5.17 49.26 5.11 48.36 5.09 47.91 Z" />
</g>
<g id="#08060356">
<path fill="#080603" opacity="0.34" d=" M 43.74 55.68 C 48.77 53.04 53.96 50.69 58.94 47.94 C 58.91 48.39 58.86 49.31 58.84 49.76 C 53.74 51.37 49.20 56.07 43.74 55.68 Z" />
</g>
<g id="#0c08055e">
<path fill="#0c0805" opacity="0.37" d=" M 16.26 53.68 C 21.39 55.48 26.14 58.16 31.04 60.48 C 35.34 60.76 39.33 56.48 43.74 55.68 L 43.83 56.69 C 39.48 58.07 35.71 61.90 31.06 61.96 C 26.05 59.65 21.17 57.03 16.17 54.69 L 16.26 53.68 Z" />
</g>
</svg>
