<?xml version="1.0" encoding="UTF-8" ?>
<!DOCTYPE svg PUBLIC "-//W3C//DTD SVG 1.1//EN" "http://www.w3.org/Graphics/SVG/1.1/DTD/svg11.dtd">
<svg width="64pt" height="64pt" viewBox="0 0 64 64" version="1.1" xmlns="http://www.w3.org/2000/svg">
<g id="#0b030117">
<path fill="#0b0301" opacity="0.09" d=" M 0.00 0.00 L 64.00 0.00 L 64.00 64.00 L 0.00 64.00 L 0.00 0.00 M 3.07 22.03 C 2.86 35.00 3.03 47.97 3.03 60.94 C 22.33 61.09 41.63 60.99 60.93 60.97 C 61.14 48.00 60.97 35.03 60.97 22.06 C 41.67 21.91 22.36 22.01 3.07 22.03 Z" />
</g>
<g id="#ddddddfe">
<path fill="#dddddd" opacity="1.00" d=" M 3.07 22.03 C 22.36 22.01 41.67 21.91 60.97 22.06 C 60.97 35.03 61.14 48.00 60.93 60.97 C 41.63 60.99 22.33 61.09 3.03 60.94 C 3.03 47.97 2.86 35.00 3.07 22.03 Z" />
</g>
</svg>
