<?xml version="1.0" encoding="UTF-8" ?>
<!DOCTYPE svg PUBLIC "-//W3C//DTD SVG 1.1//EN" "http://www.w3.org/Graphics/SVG/1.1/DTD/svg11.dtd">
<svg width="64pt" height="64pt" viewBox="0 0 64 64" version="1.1" xmlns="http://www.w3.org/2000/svg">
<g id="#4e190dc6">
<path fill="#4e190d" opacity="0.78" d=" M 13.81 3.87 C 14.15 3.67 14.82 3.28 15.15 3.09 C 26.83 3.19 38.69 2.19 50.25 3.74 C 38.11 4.07 25.96 4.16 13.81 3.87 Z" />
</g>
<g id="#d65f45fe">
<path fill="#d65f45" opacity="1.00" d=" M 11.75 5.28 C 12.27 4.93 13.30 4.22 13.81 3.87 C 25.96 4.16 38.11 4.07 50.25 3.74 C 50.80 4.08 51.92 4.75 52.47 5.09 C 48.45 6.38 44.12 4.53 40.01 5.03 C 30.59 4.57 21.16 5.42 11.75 5.28 Z" />
</g>
<g id="#ca3a1cff">
<path fill="#ca3a1c" opacity="1.00" d=" M 10.84 5.94 C 11.07 5.77 11.52 5.44 11.75 5.28 C 21.16 5.42 30.59 4.57 40.01 5.03 C 44.12 4.53 48.45 6.38 52.47 5.09 C 53.09 5.56 53.65 6.10 54.15 6.70 L 54.04 7.66 L 53.07 8.05 L 52.18 8.41 C 51.84 15.28 52.01 22.16 51.99 29.03 C 50.98 28.77 49.24 26.20 48.70 28.06 C 47.74 25.65 46.87 23.21 45.98 20.77 C 45.68 19.82 45.37 18.88 45.05 17.95 L 45.11 17.03 C 46.66 16.19 49.10 16.10 49.09 13.83 C 49.74 12.52 50.58 11.31 51.21 10.00 C 50.96 9.70 50.44 9.10 50.18 8.81 C 38.69 7.02 26.12 8.28 14.22 8.13 L 13.93 9.09 L 13.62 10.10 C 13.26 8.39 12.98 6.40 10.92 7.88 C 10.90 7.39 10.86 6.42 10.84 5.94 Z" />
</g>
<g id="#821918fc">
<path fill="#821918" opacity="1.00" d=" M 10.09 46.91 C 10.35 33.37 8.96 18.97 10.84 5.94 C 10.86 6.42 10.90 7.39 10.92 7.88 C 11.62 20.98 9.93 34.29 11.62 47.30 L 11.70 48.24 L 10.67 48.32 C 10.52 47.97 10.23 47.26 10.09 46.91 Z" />
</g>
<g id="#bc1713ff">
<path fill="#bc1713" opacity="1.00" d=" M 10.92 7.88 C 12.98 6.40 13.26 8.39 13.62 10.10 C 13.70 10.47 13.86 11.20 13.93 11.57 C 13.38 14.96 12.99 18.37 12.72 21.79 C 11.37 30.24 12.56 38.82 11.62 47.30 C 9.93 34.29 11.62 20.98 10.92 7.88 Z" />
</g>
<g id="#551919c5">
<path fill="#551919" opacity="0.77" d=" M 54.15 6.70 C 55.70 19.79 55.40 33.91 54.26 47.25 C 53.84 34.05 53.97 20.85 54.04 7.66 L 54.15 6.70 Z" />
</g>
<g id="#fe6c57ff">
<path fill="#fe6c57" opacity="1.00" d=" M 14.22 8.13 C 26.12 8.28 38.69 7.02 50.18 8.81 C 38.10 9.21 26.01 8.81 13.93 9.09 L 14.22 8.13 Z" />
</g>
<g id="#c91d13ff">
<path fill="#c91d13" opacity="1.00" d=" M 52.18 8.41 L 53.07 8.05 C 53.08 21.09 52.69 34.14 53.26 47.17 C 52.98 47.42 52.42 47.91 52.14 48.16 C 52.11 46.35 52.07 42.73 52.04 40.92 C 52.04 36.96 52.02 33.00 51.99 29.03 C 52.01 22.16 51.84 15.28 52.18 8.41 Z" />
</g>
<g id="#a51919ff">
<path fill="#a51919" opacity="1.00" d=" M 53.07 8.05 L 54.04 7.66 C 53.97 20.85 53.84 34.05 54.26 47.25 L 53.26 47.17 C 52.69 34.14 53.08 21.09 53.07 8.05 Z" />
</g>
<g id="#e33629ff">
<path fill="#e33629" opacity="1.00" d=" M 13.93 9.09 C 26.01 8.81 38.10 9.21 50.18 8.81 C 50.44 9.10 50.96 9.70 51.21 10.00 C 38.68 10.02 26.15 9.92 13.62 10.10 L 13.93 9.09 Z" />
</g>
<g id="#942710ff">
<path fill="#942710" opacity="1.00" d=" M 13.62 10.10 C 26.15 9.92 38.68 10.02 51.21 10.00 C 50.58 11.31 49.74 12.52 49.09 13.83 C 38.14 12.81 26.69 12.01 15.85 13.92 C 15.23 13.12 14.59 12.34 13.93 11.57 C 13.86 11.20 13.70 10.47 13.62 10.10 Z" />
</g>
<g id="#cf3618ff">
<path fill="#cf3618" opacity="1.00" d=" M 12.72 21.79 C 12.99 18.37 13.38 14.96 13.93 11.57 C 14.59 12.34 15.23 13.12 15.85 13.92 C 16.15 14.45 16.74 15.52 17.04 16.05 C 19.98 20.09 18.87 25.98 20.24 30.77 C 20.13 32.82 20.02 34.86 19.96 36.91 C 19.91 37.47 19.82 38.59 19.77 39.15 C 19.26 35.18 18.77 31.18 17.66 27.32 C 16.92 25.39 14.61 26.23 13.02 25.91 C 12.93 24.53 12.82 23.16 12.72 21.79 Z" />
</g>
<g id="#1f1412ff">
<path fill="#1f1412" opacity="1.00" d=" M 15.85 13.92 C 26.69 12.01 38.14 12.81 49.09 13.83 C 49.10 16.10 46.66 16.19 45.11 17.03 C 44.83 16.52 44.26 15.50 43.98 15.00 C 36.95 13.10 28.11 13.92 20.33 14.18 L 20.05 15.03 L 19.75 15.96 C 19.07 15.99 17.71 16.03 17.04 16.05 C 16.74 15.52 16.15 14.45 15.85 13.92 Z" />
</g>
<g id="#2c2f30ff">
<path fill="#2c2f30" opacity="1.00" d=" M 20.33 14.18 C 28.11 13.92 36.95 13.10 43.98 15.00 C 36.00 14.99 28.03 14.96 20.05 15.03 L 20.33 14.18 Z" />
</g>
<g id="#747474ff">
<path fill="#747474" opacity="1.00" d=" M 20.05 15.03 C 28.03 14.96 36.00 14.99 43.98 15.00 C 44.26 15.50 44.83 16.52 45.11 17.03 C 36.69 16.03 28.22 15.93 19.75 15.96 L 20.05 15.03 Z" />
</g>
<g id="#912410ff">
<path fill="#912410" opacity="1.00" d=" M 17.04 16.05 C 17.71 16.03 19.07 15.99 19.75 15.96 C 19.79 16.45 19.86 17.43 19.90 17.92 C 21.39 21.79 18.10 30.03 23.96 31.19 C 24.21 31.38 24.72 31.75 24.98 31.94 C 31.09 33.87 37.86 32.70 44.28 33.12 C 43.84 34.08 43.35 35.01 42.79 35.91 C 35.91 36.11 29.02 36.16 22.14 35.93 C 21.07 34.40 20.83 32.51 20.24 30.77 C 18.87 25.98 19.98 20.09 17.04 16.05 Z" />
</g>
<g id="#a2a1a0ff">
<path fill="#a2a1a0" opacity="1.00" d=" M 19.75 15.96 C 28.22 15.93 36.69 16.03 45.11 17.03 L 45.05 17.95 C 38.83 19.68 32.95 16.40 26.78 17.12 C 25.27 17.29 22.26 17.63 20.75 17.80 L 19.90 17.92 C 19.86 17.43 19.79 16.45 19.75 15.96 Z" />
</g>
<g id="#f2f1f1ff">
<path fill="#f2f1f1" opacity="1.00" d=" M 20.75 17.80 C 22.26 17.63 25.27 17.29 26.78 17.12 C 29.57 18.36 32.32 19.69 35.13 20.88 C 33.06 22.64 31.19 25.16 31.55 28.03 L 30.79 28.42 C 28.94 29.31 27.22 30.48 25.75 31.92 L 24.98 31.94 C 24.72 31.75 24.21 31.38 23.96 31.19 C 23.89 26.54 21.91 22.23 20.75 17.80 Z" />
</g>
<g id="#c4c4c4ff">
<path fill="#c4c4c4" opacity="1.00" d=" M 26.78 17.12 C 32.95 16.40 38.83 19.68 45.05 17.95 C 45.37 18.88 45.68 19.82 45.98 20.77 C 45.32 25.11 39.97 23.50 37.96 26.67 C 38.98 27.54 43.24 27.61 40.95 29.29 C 37.71 27.98 34.17 28.95 30.79 28.42 L 31.55 28.03 C 34.36 26.37 37.65 25.30 40.10 23.14 C 38.54 22.19 36.85 21.47 35.13 20.88 C 32.32 19.69 29.57 18.36 26.78 17.12 Z" />
</g>
<g id="#6d2719ff">
<path fill="#6d2719" opacity="1.00" d=" M 19.90 17.92 L 20.75 17.80 C 21.91 22.23 23.89 26.54 23.96 31.19 C 18.10 30.03 21.39 21.79 19.90 17.92 Z" />
</g>
<g id="#e4e4e4ff">
<path fill="#e4e4e4" opacity="1.00" d=" M 35.13 20.88 C 36.85 21.47 38.54 22.19 40.10 23.14 C 37.65 25.30 34.36 26.37 31.55 28.03 C 31.19 25.16 33.06 22.64 35.13 20.88 Z" />
</g>
<g id="#cfccccff">
<path fill="#cfcccc" opacity="1.00" d=" M 37.96 26.67 C 39.97 23.50 45.32 25.11 45.98 20.77 C 46.87 23.21 47.74 25.65 48.70 28.06 C 48.85 29.36 48.93 30.65 48.94 31.96 C 48.26 31.92 46.91 31.84 46.24 31.80 C 44.52 30.86 42.74 30.06 40.95 29.29 C 43.24 27.61 38.98 27.54 37.96 26.67 Z" />
</g>
<g id="#dd1e14ff">
<path fill="#dd1e14" opacity="1.00" d=" M 11.62 47.30 C 12.56 38.82 11.37 30.24 12.72 21.79 C 12.82 23.16 12.93 24.53 13.02 25.91 C 13.01 30.91 13.03 35.92 12.97 40.92 C 12.89 42.74 12.74 46.39 12.67 48.22 L 11.70 48.24 L 11.62 47.30 Z" />
</g>
<g id="#e33517ff">
<path fill="#e33517" opacity="1.00" d=" M 13.02 25.91 C 14.61 26.23 16.92 25.39 17.66 27.32 C 18.77 31.18 19.26 35.18 19.77 39.15 L 19.88 40.00 C 19.82 41.97 20.66 43.67 22.26 44.83 C 29.10 45.12 35.97 45.22 42.80 44.85 C 46.17 41.93 45.25 36.81 46.96 33.05 C 47.45 32.77 48.44 32.23 48.94 31.96 C 48.93 30.65 48.85 29.36 48.70 28.06 C 49.24 26.20 50.98 28.77 51.99 29.03 C 52.02 33.00 52.04 36.96 52.04 40.92 C 50.55 40.26 48.92 39.76 47.27 40.12 C 46.11 42.71 45.61 45.64 43.82 47.90 C 36.25 48.01 28.65 48.29 21.09 47.91 C 19.66 45.47 18.73 42.80 17.63 40.20 C 16.04 39.68 14.43 40.30 12.97 40.92 C 13.03 35.92 13.01 30.91 13.02 25.91 Z" />
</g>
<g id="#dbdcdcff">
<path fill="#dbdcdc" opacity="1.00" d=" M 25.75 31.92 C 27.22 30.48 28.94 29.31 30.79 28.42 C 34.17 28.95 37.71 27.98 40.95 29.29 C 42.74 30.06 44.52 30.86 46.24 31.80 C 39.41 31.97 32.58 32.05 25.75 31.92 Z" />
</g>
<g id="#ad2812ff">
<path fill="#ad2812" opacity="1.00" d=" M 20.24 30.77 C 20.83 32.51 21.07 34.40 22.14 35.93 C 29.02 36.16 35.91 36.11 42.79 35.91 C 43.35 35.01 43.84 34.08 44.28 33.12 L 45.19 33.11 C 44.90 35.12 44.50 37.12 44.15 39.13 C 36.96 40.51 29.53 40.15 22.26 39.80 C 21.44 38.88 20.71 37.88 19.96 36.91 C 20.02 34.86 20.13 32.82 20.24 30.77 Z" />
</g>
<g id="#9a837eff">
<path fill="#9a837e" opacity="1.00" d=" M 24.98 31.94 L 25.75 31.92 C 32.58 32.05 39.41 31.97 46.24 31.80 C 46.91 31.84 48.26 31.92 48.94 31.96 C 48.44 32.23 47.45 32.77 46.96 33.05 C 46.52 33.06 45.63 33.09 45.19 33.11 L 44.28 33.12 C 37.86 32.70 31.09 33.87 24.98 31.94 Z" />
</g>
<g id="#d23015ff">
<path fill="#d23015" opacity="1.00" d=" M 45.19 33.11 C 45.63 33.09 46.52 33.06 46.96 33.05 C 45.25 36.81 46.17 41.93 42.80 44.85 C 35.97 45.22 29.10 45.12 22.26 44.83 C 20.66 43.67 19.82 41.97 19.88 40.00 C 20.28 40.41 21.08 41.22 21.48 41.63 C 28.90 42.16 36.37 42.28 43.80 41.88 C 43.89 41.19 44.07 39.82 44.15 39.13 C 44.50 37.12 44.90 35.12 45.19 33.11 Z" />
</g>
<g id="#c22d14ff">
<path fill="#c22d14" opacity="1.00" d=" M 19.96 36.91 C 20.71 37.88 21.44 38.88 22.26 39.80 C 29.53 40.15 36.96 40.51 44.15 39.13 C 44.07 39.82 43.89 41.19 43.80 41.88 C 36.37 42.28 28.90 42.16 21.48 41.63 C 21.08 41.22 20.28 40.41 19.88 40.00 L 19.77 39.15 C 19.82 38.59 19.91 37.47 19.96 36.91 Z" />
</g>
<g id="#ef3517ff">
<path fill="#ef3517" opacity="1.00" d=" M 12.97 40.92 C 14.43 40.30 16.04 39.68 17.63 40.20 C 18.73 42.80 19.66 45.47 21.09 47.91 C 28.65 48.29 36.25 48.01 43.82 47.90 C 45.61 45.64 46.11 42.71 47.27 40.12 C 48.92 39.76 50.55 40.26 52.04 40.92 C 52.07 42.73 52.11 46.35 52.14 48.16 C 51.67 48.44 50.74 49.01 50.27 49.30 C 38.15 48.88 26.02 48.87 13.89 49.12 C 13.59 48.90 12.97 48.45 12.67 48.22 C 12.74 46.39 12.89 42.74 12.97 40.92 Z" />
</g>
<g id="#370b04fa">
<path fill="#370b04" opacity="0.98" d=" M 53.26 47.17 L 54.26 47.25 C 53.75 49.13 52.23 50.90 50.25 51.27 C 47.29 52.64 39.25 48.59 38.02 52.03 C 37.99 52.80 37.94 54.34 37.91 55.11 C 35.82 50.40 29.18 52.59 26.05 55.02 C 26.03 54.27 25.99 52.78 25.97 52.03 L 25.91 51.04 C 21.85 51.00 17.81 51.07 13.76 51.24 C 12.03 51.27 11.29 49.66 10.67 48.32 L 11.70 48.24 L 12.67 48.22 C 12.97 48.45 13.59 48.90 13.89 49.12 C 25.66 50.60 38.44 50.53 50.27 49.30 C 50.74 49.01 51.67 48.44 52.14 48.16 C 52.42 47.91 52.98 47.42 53.26 47.17 Z" />
</g>
<g id="#c4230aff">
<path fill="#c4230a" opacity="1.00" d=" M 13.89 49.12 C 26.02 48.87 38.15 48.88 50.27 49.30 C 38.44 50.53 25.66 50.60 13.89 49.12 Z" />
</g>
<g id="#18030097">
<path fill="#180300" opacity="0.59" d=" M 13.76 51.24 C 17.81 51.07 21.85 51.00 25.91 51.04 L 25.97 52.03 L 24.98 52.05 C 21.21 52.12 17.47 51.85 13.76 51.24 Z" />
</g>
<g id="#1803009a">
<path fill="#180300" opacity="0.60" d=" M 38.02 52.03 C 39.25 48.59 47.29 52.64 50.25 51.27 C 46.54 51.87 42.79 52.13 39.01 52.05 L 38.02 52.03 Z" />
</g>
<g id="#11060464">
<path fill="#110604" opacity="0.39" d=" M 24.98 52.05 L 25.97 52.03 C 25.99 52.78 26.03 54.27 26.05 55.02 C 26.01 58.01 26.01 61.01 26.01 64.00 L 25.00 64.00 C 25.00 60.01 24.99 56.03 24.98 52.05 Z" />
<path fill="#110604" opacity="0.39" d=" M 38.02 52.03 L 39.01 52.05 C 39.00 56.03 39.00 60.01 39.00 64.00 L 38.01 64.00 C 37.99 61.04 37.96 58.07 37.91 55.11 C 37.94 54.34 37.99 52.80 38.02 52.03 Z" />
</g>
<g id="#4c1d10fd">
<path fill="#4c1d10" opacity="1.00" d=" M 26.05 55.02 C 29.18 52.59 35.82 50.40 37.91 55.11 C 37.96 58.07 37.99 61.04 38.01 64.00 L 36.23 64.00 C 36.61 61.40 37.10 58.79 36.96 56.16 C 33.37 52.59 24.87 55.02 27.01 61.00 C 26.43 63.23 29.02 63.20 30.39 64.00 L 26.01 64.00 C 26.01 61.01 26.01 58.01 26.05 55.02 Z" />
</g>
<g id="#772712fd">
<path fill="#772712" opacity="1.00" d=" M 27.01 61.00 C 24.87 55.02 33.37 52.59 36.96 56.16 C 37.10 58.79 36.61 61.40 36.23 64.00 L 30.39 64.00 C 29.02 63.20 26.43 63.23 27.01 61.00 M 31.22 56.13 C 28.00 58.11 29.82 64.51 33.78 62.87 C 37.08 60.65 35.01 55.40 31.22 56.13 Z" />
</g>
<g id="#a02e10ff">
<path fill="#a02e10" opacity="1.00" d=" M 31.22 56.13 C 35.01 55.40 37.08 60.65 33.78 62.87 C 29.82 64.51 28.00 58.11 31.22 56.13 Z" />
</g>
</svg>
