<?xml version="1.0" encoding="UTF-8" ?>
<!DOCTYPE svg PUBLIC "-//W3C//DTD SVG 1.1//EN" "http://www.w3.org/Graphics/SVG/1.1/DTD/svg11.dtd">
<svg width="64pt" height="64pt" viewBox="0 0 64 64" version="1.1" xmlns="http://www.w3.org/2000/svg">
<g id="#2b3c56cf">
<path fill="#2b3c56" opacity="0.81" d=" M 9.74 4.81 C 11.96 3.61 14.13 2.03 17.00 3.06 C 27.00 2.90 37.00 2.90 47.00 3.06 C 49.83 2.07 52.04 3.61 54.27 4.79 C 39.48 3.90 24.49 3.06 9.74 4.81 Z" />
<path fill="#2b3c56" opacity="0.81" d=" M 5.16 9.08 C 5.68 7.18 7.14 5.70 9.02 5.14 C 9.12 7.31 7.29 9.08 5.16 9.08 Z" />
<path fill="#2b3c56" opacity="0.81" d=" M 54.98 5.13 C 56.87 5.69 58.31 7.19 58.83 9.09 C 56.69 9.07 54.86 7.30 54.98 5.13 Z" />
<path fill="#2b3c56" opacity="0.81" d=" M 3.09 51.85 C 3.16 38.54 2.08 25.02 3.92 11.87 C 4.05 22.92 3.96 33.98 3.98 45.03 C 2.76 51.97 8.07 59.05 14.98 59.98 C 25.00 60.10 35.01 60.01 45.03 60.02 C 51.98 61.23 59.04 55.93 59.98 49.01 C 60.14 36.62 59.84 24.22 60.16 11.83 C 61.84 14.56 60.46 18.10 61.05 21.00 C 60.94 31.28 61.14 41.56 60.92 51.85 C 58.82 56.02 55.71 59.77 50.91 60.91 C 38.61 61.09 26.29 61.08 13.99 60.97 C 8.78 60.34 5.27 56.26 3.09 51.85 Z" />
</g>
<g id="#6082a3ff">
<path fill="#6082a3" opacity="1.00" d=" M 9.74 4.81 C 24.49 3.06 39.48 3.90 54.27 4.79 L 54.98 5.13 C 54.86 7.30 56.69 9.07 58.83 9.09 C 59.26 10.01 59.71 10.92 60.16 11.83 C 59.84 24.22 60.14 36.62 59.98 49.01 C 59.04 55.93 51.98 61.23 45.03 60.02 C 35.01 60.01 25.00 60.10 14.98 59.98 C 8.07 59.05 2.76 51.97 3.98 45.03 C 3.96 33.98 4.05 22.92 3.92 11.87 C 4.32 10.94 4.74 10.01 5.16 9.08 C 7.29 9.08 9.12 7.31 9.02 5.14 L 9.74 4.81 M 6.98 13.02 L 6.19 13.35 C 6.05 18.40 4.41 25.30 9.28 28.70 C 14.96 31.65 21.68 32.87 27.96 31.24 C 27.99 32.67 28.04 35.54 28.07 36.97 L 29.01 37.00 C 30.06 41.50 25.49 51.89 34.96 48.00 C 34.97 45.25 34.99 39.76 34.99 37.02 C 37.99 36.45 34.81 30.26 37.95 28.89 C 38.16 35.26 37.86 41.63 38.03 48.00 L 39.01 47.99 C 40.49 47.99 43.45 47.99 44.94 47.99 C 45.17 41.60 44.96 35.20 45.18 28.81 C 45.70 30.11 46.31 31.40 47.98 31.03 C 47.97 36.69 47.95 42.34 48.04 48.00 C 49.53 47.99 52.50 47.99 53.99 47.99 L 54.97 48.00 C 56.10 40.39 52.47 31.21 57.72 24.74 C 58.26 21.09 58.67 16.04 57.09 12.94 C 56.60 9.04 52.01 7.54 48.94 6.06 C 38.96 5.92 28.97 5.95 18.99 6.04 C 14.13 5.52 8.49 8.08 6.98 13.02 M 18.98 34.99 L 19.05 35.95 C 18.91 39.96 18.91 43.98 19.03 48.00 C 20.52 48.00 23.51 47.99 25.00 47.99 L 25.96 47.98 C 26.17 43.67 26.00 39.35 25.97 35.04 C 24.22 35.02 20.73 35.00 18.98 34.99 M 10.01 42.00 C 8.35 47.65 10.34 49.65 15.99 48.00 C 17.65 42.35 15.66 40.35 10.01 42.00 Z" />
<path fill="#6082a3" opacity="1.00" d=" M 38.27 21.29 C 40.12 20.86 43.61 20.17 44.73 21.71 C 42.88 22.14 39.39 22.83 38.27 21.29 Z" />
<path fill="#6082a3" opacity="1.00" d=" M 28.78 29.17 C 26.67 25.66 37.64 25.83 35.18 29.15 C 33.05 29.07 30.91 29.08 28.78 29.17 Z" />
</g>
<g id="#f8f9fbff">
<path fill="#f8f9fb" opacity="1.00" d=" M 6.98 13.02 C 8.49 8.08 14.13 5.52 18.99 6.04 C 28.97 5.95 38.96 5.92 48.94 6.06 C 52.01 7.54 56.60 9.04 57.09 12.94 C 53.67 10.69 50.87 6.50 46.01 8.04 C 35.36 8.02 24.70 7.77 14.06 8.10 C 10.87 8.45 9.79 12.09 6.98 13.02 Z" />
<path fill="#f8f9fb" opacity="1.00" d=" M 48.05 16.01 C 49.52 16.01 52.47 16.01 53.95 16.01 C 54.14 26.66 53.95 37.33 53.99 47.99 C 52.50 47.99 49.53 47.99 48.04 48.00 C 47.95 42.34 47.97 36.69 47.98 31.03 C 48.04 26.03 47.93 21.02 48.05 16.01 Z" />
<path fill="#f8f9fb" opacity="1.00" d=" M 38.10 23.03 C 39.79 23.03 43.16 23.03 44.85 23.03 C 44.93 24.48 45.10 27.36 45.18 28.81 C 44.96 35.20 45.17 41.60 44.94 47.99 C 43.45 47.99 40.49 47.99 39.01 47.99 C 39.10 39.66 38.92 31.33 38.10 23.03 Z" />
<path fill="#f8f9fb" opacity="1.00" d=" M 28.78 29.17 C 30.91 29.08 33.05 29.07 35.18 29.15 C 35.05 31.77 34.99 34.39 34.99 37.02 C 34.99 39.76 34.97 45.25 34.96 48.00 C 25.49 51.89 30.06 41.50 29.01 37.00 C 28.99 34.38 28.92 31.77 28.78 29.17 Z" />
<path fill="#f8f9fb" opacity="1.00" d=" M 19.05 35.95 C 20.52 35.98 23.47 36.05 24.94 36.08 C 25.03 40.05 25.05 44.02 25.00 47.99 C 23.51 47.99 20.52 48.00 19.03 48.00 C 18.91 43.98 18.91 39.96 19.05 35.95 Z" />
<path fill="#f8f9fb" opacity="1.00" d=" M 10.01 42.00 C 15.66 40.35 17.65 42.35 15.99 48.00 C 10.34 49.65 8.35 47.65 10.01 42.00 Z" />
</g>
<g id="#9ab6d1ff">
<path fill="#9ab6d1" opacity="1.00" d=" M 6.98 13.02 C 9.79 12.09 10.87 8.45 14.06 8.10 C 24.70 7.77 35.36 8.02 46.01 8.04 C 50.87 6.50 53.67 10.69 57.09 12.94 C 58.67 16.04 58.26 21.09 57.72 24.74 C 52.47 31.21 56.10 40.39 54.97 48.00 L 53.99 47.99 C 53.95 37.33 54.14 26.66 53.95 16.01 C 52.47 16.01 49.52 16.01 48.05 16.01 C 47.93 21.02 48.04 26.03 47.98 31.03 C 46.31 31.40 45.70 30.11 45.18 28.81 C 45.10 27.36 44.93 24.48 44.85 23.03 C 43.16 23.03 39.79 23.03 38.10 23.03 C 38.92 31.33 39.10 39.66 39.01 47.99 L 38.03 48.00 C 37.86 41.63 38.16 35.26 37.95 28.89 C 34.81 30.26 37.99 36.45 34.99 37.02 C 34.99 34.39 35.05 31.77 35.18 29.15 C 37.64 25.83 26.67 25.66 28.78 29.17 C 28.92 31.77 28.99 34.38 29.01 37.00 L 28.07 36.97 C 28.04 35.54 27.99 32.67 27.96 31.24 C 21.68 32.87 14.96 31.65 9.28 28.70 C 4.41 25.30 6.05 18.40 6.19 13.35 L 6.98 13.02 M 38.27 21.29 C 39.39 22.83 42.88 22.14 44.73 21.71 C 43.61 20.17 40.12 20.86 38.27 21.29 Z" />
<path fill="#9ab6d1" opacity="1.00" d=" M 18.98 34.99 C 20.73 35.00 24.22 35.02 25.97 35.04 C 26.00 39.35 26.17 43.67 25.96 47.98 L 25.00 47.99 C 25.05 44.02 25.03 40.05 24.94 36.08 C 23.47 36.05 20.52 35.98 19.05 35.95 L 18.98 34.99 Z" />
</g>
<g id="#01020328">
<path fill="#010203" opacity="0.16" d=" M 3.09 51.85 C 5.27 56.26 8.78 60.34 13.99 60.97 C 26.29 61.08 38.61 61.09 50.91 60.91 C 55.71 59.77 58.82 56.02 60.92 51.85 C 61.00 57.97 56.07 62.37 50.62 64.00 L 13.38 64.00 C 7.93 62.37 3.02 57.98 3.09 51.85 Z" />
</g>
</svg>
