<?xml version="1.0" encoding="UTF-8" ?>
<!DOCTYPE svg PUBLIC "-//W3C//DTD SVG 1.1//EN" "http://www.w3.org/Graphics/SVG/1.1/DTD/svg11.dtd">
<svg width="64pt" height="64pt" viewBox="0 0 64 64" version="1.1" xmlns="http://www.w3.org/2000/svg">
<g id="#a0580ce0">
<path fill="#a0580c" opacity="0.88" d=" M 8.54 5.36 C 10.69 3.80 13.29 3.06 15.93 3.15 C 26.63 3.14 37.32 3.14 48.02 3.14 C 50.67 3.06 53.29 3.78 55.45 5.35 C 47.09 3.47 38.47 4.54 29.98 4.27 C 22.83 4.41 15.57 3.67 8.54 5.36 Z" />
</g>
<g id="#d98615ff">
<path fill="#d98615" opacity="1.00" d=" M 8.54 5.36 C 15.57 3.67 22.83 4.41 29.98 4.27 C 38.47 4.54 47.09 3.47 55.45 5.35 C 57.66 6.92 59.45 9.19 60.25 11.80 C 60.19 19.64 59.83 27.47 59.61 35.30 C 59.35 30.89 59.11 26.46 59.23 22.03 C 59.17 19.19 59.59 16.02 57.84 13.56 L 57.63 13.28 C 55.72 9.64 52.53 6.04 48.04 6.22 C 37.35 6.07 26.64 6.07 15.94 6.22 C 11.91 6.09 8.72 9.04 6.87 12.36 L 6.32 13.27 C 4.47 15.80 4.86 19.06 4.79 22.01 C 4.90 26.43 4.65 30.85 4.39 35.26 C 4.16 27.43 3.78 19.60 3.76 11.76 C 4.56 9.17 6.35 6.92 8.54 5.36 Z" />
</g>
<g id="#ffffffff">
<path fill="#ffffff" opacity="1.00" d=" M 6.87 12.36 C 8.72 9.04 11.91 6.09 15.94 6.22 C 26.64 6.07 37.35 6.07 48.04 6.22 C 52.53 6.04 55.72 9.64 57.63 13.28 C 54.84 10.83 52.03 7.72 48.01 7.71 C 39.34 7.41 30.64 7.73 21.96 7.58 C 18.82 7.63 15.55 7.34 12.55 8.47 C 10.04 9.39 8.55 11.72 6.74 13.53 L 6.87 12.36 Z" />
<path fill="#ffffff" opacity="1.00" d=" M 13.61 18.53 C 15.31 15.41 18.23 12.62 21.98 12.51 C 25.11 12.24 27.76 14.17 30.04 16.07 C 31.34 16.02 32.64 16.02 33.94 16.08 C 36.68 13.79 40.24 11.76 43.92 12.95 C 47.91 13.89 50.17 17.66 51.29 21.31 C 51.04 24.12 50.98 27.03 49.50 29.53 C 47.43 31.51 45.02 33.09 42.62 34.64 L 41.68 35.28 C 41.29 39.67 41.98 44.12 41.32 48.48 C 39.83 52.23 35.16 51.04 32.01 51.26 C 28.86 51.03 24.25 52.23 22.71 48.55 C 22.01 44.18 22.69 39.72 22.29 35.32 C 19.46 33.69 16.72 31.85 14.41 29.52 C 12.37 26.14 12.88 22.21 13.61 18.53 M 19.35 16.56 C 16.41 18.33 15.93 21.96 15.76 25.07 C 16.86 28.27 19.66 30.29 22.50 31.86 C 22.47 31.32 22.41 30.24 22.38 29.70 C 23.09 25.02 20.83 19.17 25.27 15.80 C 23.29 15.86 21.04 15.15 19.35 16.56 M 39.01 15.85 C 42.99 19.41 40.98 24.95 41.63 29.57 C 41.59 30.09 41.50 31.13 41.46 31.65 C 44.08 30.23 46.61 28.46 47.93 25.69 L 48.16 25.56 C 48.23 22.44 47.76 18.84 44.99 16.90 C 43.30 15.50 41.04 15.81 39.01 15.85 M 25.42 22.43 C 25.49 23.20 25.62 24.73 25.68 25.50 C 25.52 28.24 25.61 30.99 25.67 33.74 C 27.97 35.22 30.13 36.90 32.00 38.90 C 33.84 36.94 36.08 35.42 38.12 33.67 C 38.81 31.09 38.27 28.22 38.31 25.54 C 38.37 24.76 38.50 23.21 38.56 22.43 C 34.18 22.45 29.80 22.45 25.42 22.43 M 25.63 37.26 C 25.63 39.38 25.49 41.50 25.52 43.63 L 25.66 45.00 C 29.89 44.98 34.11 44.98 38.34 45.00 L 38.47 43.63 C 38.51 41.51 38.37 39.40 38.39 37.28 C 36.15 39.14 34.05 41.17 32.42 43.60 C 32.20 43.59 31.78 43.59 31.56 43.59 C 30.06 41.07 27.89 39.08 25.63 37.26 Z" />
</g>
<g id="#ffc466ff">
<path fill="#ffc466" opacity="1.00" d=" M 12.55 8.47 C 15.55 7.34 18.82 7.63 21.96 7.58 C 30.64 7.73 39.34 7.41 48.01 7.71 C 52.03 7.72 54.84 10.83 57.63 13.28 L 57.84 13.56 C 57.83 14.64 57.83 15.72 57.83 16.80 C 57.43 18.03 56.99 19.25 56.58 20.47 C 54.92 20.15 53.26 19.84 51.60 19.51 C 50.48 14.54 45.56 10.69 40.41 11.40 C 37.28 11.58 35.07 14.41 32.06 14.86 C 29.04 14.47 26.93 11.58 23.83 11.29 C 19.91 10.57 16.02 12.81 13.86 16.01 C 12.28 18.24 10.24 20.09 7.52 20.76 C 7.07 19.44 6.59 18.13 6.15 16.81 C 6.18 15.63 6.24 14.45 6.32 13.27 L 6.87 12.36 L 6.74 13.53 C 8.55 11.72 10.04 9.39 12.55 8.47 Z" />
</g>
<g id="#ff7814ff">
<path fill="#ff7814" opacity="1.00" d=" M 13.86 16.01 C 16.02 12.81 19.91 10.57 23.83 11.29 C 26.93 11.58 29.04 14.47 32.06 14.86 C 35.07 14.41 37.28 11.58 40.41 11.40 C 45.56 10.69 50.48 14.54 51.60 19.51 C 51.52 19.96 51.37 20.86 51.29 21.31 C 50.17 17.66 47.91 13.89 43.92 12.95 C 40.24 11.76 36.68 13.79 33.94 16.08 C 32.64 16.02 31.34 16.02 30.04 16.07 C 27.76 14.17 25.11 12.24 21.98 12.51 C 18.23 12.62 15.31 15.41 13.61 18.53 C 13.67 17.90 13.80 16.64 13.86 16.01 Z" />
<path fill="#ff7814" opacity="1.00" d=" M 41.68 35.28 L 42.62 34.64 C 42.90 38.99 43.20 43.33 43.45 47.68 C 47.78 47.99 52.13 47.99 56.45 47.58 C 57.46 45.57 58.66 43.67 59.58 41.63 C 59.58 44.98 59.89 48.36 59.34 51.69 C 58.31 56.29 53.86 60.13 49.02 59.77 C 37.65 59.78 26.27 59.79 14.90 59.77 C 10.10 60.10 5.68 56.27 4.66 51.69 C 4.10 48.36 4.43 44.96 4.42 41.60 C 5.33 43.68 6.53 45.61 7.53 47.64 C 11.89 47.97 16.27 47.97 20.64 47.68 C 20.78 43.52 20.58 39.21 22.29 35.32 C 22.69 39.72 22.01 44.18 22.71 48.55 C 24.25 52.23 28.86 51.03 32.01 51.26 C 35.16 51.04 39.83 52.23 41.32 48.48 C 41.98 44.12 41.29 39.67 41.68 35.28 Z" />
</g>
<g id="#be490bdf">
<path fill="#be490b" opacity="0.87" d=" M 3.11 18.99 C 3.10 16.57 3.15 14.12 3.76 11.76 C 3.78 19.60 4.16 27.43 4.39 35.26 C 4.37 37.37 4.38 39.49 4.42 41.60 C 4.43 44.96 4.10 48.36 4.66 51.69 C 5.68 56.27 10.10 60.10 14.90 59.77 C 26.27 59.79 37.65 59.78 49.02 59.77 C 53.86 60.13 58.31 56.29 59.34 51.69 C 59.89 48.36 59.58 44.98 59.58 41.63 C 59.62 39.52 59.63 37.41 59.61 35.30 C 59.83 27.47 60.19 19.64 60.25 11.80 C 60.77 13.82 60.87 15.92 60.89 18.00 C 60.88 27.68 60.86 37.35 60.90 47.03 C 60.99 49.54 60.42 52.00 59.80 54.41 C 57.18 58.29 52.88 61.16 48.05 60.92 C 37.02 60.89 25.99 60.98 14.96 60.88 C 10.46 60.85 6.66 57.95 4.20 54.39 C 3.70 52.30 3.10 50.20 3.12 48.03 C 3.10 38.35 3.14 28.67 3.11 18.99 Z" />
</g>
<g id="#ff8c18ff">
<path fill="#ff8c18" opacity="1.00" d=" M 4.79 22.01 C 4.86 19.06 4.47 15.80 6.32 13.27 C 6.24 14.45 6.18 15.63 6.15 16.81 C 6.30 20.66 5.23 25.60 8.79 28.28 C 10.29 29.74 12.51 29.41 14.41 29.52 C 16.72 31.85 19.46 33.69 22.29 35.32 C 20.58 39.21 20.78 43.52 20.64 47.68 C 16.27 47.97 11.89 47.97 7.53 47.64 C 6.53 45.61 5.33 43.68 4.42 41.60 C 4.38 39.49 4.37 37.37 4.39 35.26 C 4.65 30.85 4.90 26.43 4.79 22.01 Z" />
<path fill="#ff8c18" opacity="1.00" d=" M 57.84 13.56 C 59.59 16.02 59.17 19.19 59.23 22.03 C 59.11 26.46 59.35 30.89 59.61 35.30 C 59.63 37.41 59.62 39.52 59.58 41.63 C 58.66 43.67 57.46 45.57 56.45 47.58 C 52.13 47.99 47.78 47.99 43.45 47.68 C 43.20 43.33 42.90 38.99 42.62 34.64 C 45.02 33.09 47.43 31.51 49.50 29.53 C 51.45 29.43 53.69 29.76 55.23 28.26 C 58.81 25.59 57.67 20.64 57.83 16.80 C 57.83 15.72 57.83 14.64 57.84 13.56 Z" />
</g>
<g id="#ffb045ff">
<path fill="#ffb045" opacity="1.00" d=" M 7.52 20.76 C 10.24 20.09 12.28 18.24 13.86 16.01 C 13.80 16.64 13.67 17.90 13.61 18.53 C 12.88 22.21 12.37 26.14 14.41 29.52 C 12.51 29.41 10.29 29.74 8.79 28.28 C 5.23 25.60 6.30 20.66 6.15 16.81 C 6.59 18.13 7.07 19.44 7.52 20.76 Z" />
<path fill="#ffb045" opacity="1.00" d=" M 56.58 20.47 C 56.99 19.25 57.43 18.03 57.83 16.80 C 57.67 20.64 58.81 25.59 55.23 28.26 C 53.69 29.76 51.45 29.43 49.50 29.53 C 50.98 27.03 51.04 24.12 51.29 21.31 C 51.37 20.86 51.52 19.96 51.60 19.51 C 53.26 19.84 54.92 20.15 56.58 20.47 Z" />
</g>
<g id="#ffb44aff">
<path fill="#ffb44a" opacity="1.00" d=" M 19.35 16.56 C 21.04 15.15 23.29 15.86 25.27 15.80 C 20.83 19.17 23.09 25.02 22.38 29.70 C 20.23 28.08 17.99 26.59 15.76 25.07 C 15.93 21.96 16.41 18.33 19.35 16.56 Z" />
<path fill="#ffb44a" opacity="1.00" d=" M 39.01 15.85 C 41.04 15.81 43.30 15.50 44.99 16.90 C 47.76 18.84 48.23 22.44 48.16 25.56 L 47.93 25.69 C 45.76 26.87 43.63 28.12 41.63 29.57 C 40.98 24.95 42.99 19.41 39.01 15.85 Z" />
</g>
<g id="#ffab3cff">
<path fill="#ffab3c" opacity="1.00" d=" M 25.42 22.43 C 29.80 22.45 34.18 22.45 38.56 22.43 C 38.50 23.21 38.37 24.76 38.31 25.54 C 37.95 27.96 37.14 30.28 36.62 32.66 C 33.54 32.69 30.45 32.70 27.36 32.68 C 26.84 30.27 26.05 27.93 25.68 25.50 C 25.62 24.73 25.49 23.20 25.42 22.43 Z" />
</g>
<g id="#ff6f31ff">
<path fill="#ff6f31" opacity="1.00" d=" M 15.76 25.07 C 17.99 26.59 20.23 28.08 22.38 29.70 C 22.41 30.24 22.47 31.32 22.50 31.86 C 19.66 30.29 16.86 28.27 15.76 25.07 Z" />
</g>
<g id="#ff8116ff">
<path fill="#ff8116" opacity="1.00" d=" M 25.68 25.50 C 26.05 27.93 26.84 30.27 27.36 32.68 C 30.45 32.70 33.54 32.69 36.62 32.66 C 37.14 30.28 37.95 27.96 38.31 25.54 C 38.27 28.22 38.81 31.09 38.12 33.67 C 36.08 35.42 33.84 36.94 32.00 38.90 C 30.13 36.90 27.97 35.22 25.67 33.74 C 25.61 30.99 25.52 28.24 25.68 25.50 Z" />
</g>
<g id="#ff6726ff">
<path fill="#ff6726" opacity="1.00" d=" M 41.63 29.57 C 43.63 28.12 45.76 26.87 47.93 25.69 C 46.61 28.46 44.08 30.23 41.46 31.65 C 41.50 31.13 41.59 30.09 41.63 29.57 Z" />
</g>
<g id="#ff8a18ff">
<path fill="#ff8a18" opacity="1.00" d=" M 25.63 37.26 C 27.89 39.08 30.06 41.07 31.56 43.59 C 29.55 43.61 27.54 43.62 25.52 43.63 C 25.49 41.50 25.63 39.38 25.63 37.26 Z" />
<path fill="#ff8a18" opacity="1.00" d=" M 32.42 43.60 C 34.05 41.17 36.15 39.14 38.39 37.28 C 38.37 39.40 38.51 41.51 38.47 43.63 C 36.46 43.62 34.44 43.60 32.42 43.60 Z" />
</g>
<g id="#ff573bff">
<path fill="#ff573b" opacity="1.00" d=" M 25.52 43.63 C 27.54 43.62 29.55 43.61 31.56 43.59 C 31.78 43.59 32.20 43.59 32.42 43.60 C 34.44 43.60 36.46 43.62 38.47 43.63 L 38.34 45.00 C 34.11 44.98 29.89 44.98 25.66 45.00 L 25.52 43.63 Z" />
</g>
<g id="#00000026">
<path fill="#000000" opacity="0.15" d=" M 4.20 54.39 C 6.66 57.95 10.46 60.85 14.96 60.88 C 25.99 60.98 37.02 60.89 48.05 60.92 C 52.88 61.16 57.18 58.29 59.80 54.41 C 59.61 59.57 55.07 62.58 50.61 64.00 L 13.42 64.00 C 8.98 62.55 4.31 59.60 4.20 54.39 Z" />
</g>
</svg>
