<?xml version="1.0" encoding="UTF-8" ?>
<!DOCTYPE svg PUBLIC "-//W3C//DTD SVG 1.1//EN" "http://www.w3.org/Graphics/SVG/1.1/DTD/svg11.dtd">
<svg width="64pt" height="64pt" viewBox="0 0 64 64" version="1.1" xmlns="http://www.w3.org/2000/svg">
<g id="#111111ff">
<path fill="#111111" opacity="1.00" d=" M 15.35 3.48 C 25.26 3.53 35.16 3.51 45.06 3.47 C 46.52 3.42 47.99 3.66 49.30 4.36 C 39.87 3.58 30.38 4.21 20.93 3.98 C 18.74 4.12 15.99 3.47 14.40 5.43 C 12.94 6.89 13.02 9.08 12.99 10.99 C 13.01 25.94 12.97 40.89 13.27 55.84 C 13.10 56.28 12.76 57.16 12.59 57.60 C 12.15 41.42 12.43 25.21 12.44 9.03 C 12.08 6.65 13.98 5.09 15.35 3.48 Z" />
<path fill="#111111" opacity="1.00" d=" M 15.18 8.56 C 16.02 14.98 15.30 21.50 16.45 27.88 C 18.37 23.62 18.30 18.88 18.34 14.30 C 27.46 14.33 36.58 14.26 45.69 14.23 C 46.48 21.91 45.98 29.66 47.09 37.30 C 47.47 33.59 47.98 29.89 48.76 26.24 C 49.02 35.93 48.94 45.63 49.00 55.32 C 47.82 56.29 46.81 57.85 45.10 57.77 C 36.70 57.97 28.30 57.82 19.91 57.85 C 17.21 58.19 14.42 55.93 15.01 53.07 C 15.13 38.24 15.03 23.40 15.18 8.56 M 20.55 21.19 C 21.56 21.23 23.58 21.31 24.59 21.35 C 24.42 19.84 25.32 16.63 22.92 16.81 C 20.41 16.35 20.82 19.65 20.55 21.19 M 33.55 18.55 C 33.69 19.53 33.01 21.87 34.90 21.22 C 36.52 21.61 37.21 21.01 36.96 19.44 C 38.13 17.40 33.88 16.45 33.55 18.55 M 39.82 17.70 C 39.99 18.47 40.32 20.02 40.49 20.79 C 41.00 20.83 42.01 20.90 42.52 20.93 C 42.75 20.10 43.22 18.44 43.46 17.62 C 42.24 17.64 41.03 17.67 39.82 17.70 M 26.88 21.08 C 28.20 21.07 29.52 20.98 30.83 20.81 C 31.14 19.61 30.90 17.12 29.01 17.77 C 26.85 17.01 27.54 19.99 26.88 21.08 M 21.18 23.68 C 21.25 24.91 21.32 26.15 21.40 27.39 C 22.42 27.33 23.45 27.27 24.47 27.21 C 24.38 26.20 24.32 25.18 24.12 24.18 C 23.39 24.06 21.91 23.80 21.18 23.68 M 27.44 23.21 C 27.26 24.21 26.91 26.21 26.73 27.21 C 28.12 27.44 29.52 27.68 30.91 27.91 C 30.90 26.31 30.85 24.72 30.77 23.12 L 29.97 24.56 C 29.49 24.54 28.52 24.52 28.04 24.51 L 27.44 23.21 M 33.79 27.41 C 34.72 27.27 35.67 27.17 36.59 26.96 C 36.78 26.26 37.14 24.85 37.33 24.15 C 36.42 24.07 34.62 23.91 33.71 23.83 C 33.74 25.02 33.76 26.21 33.79 27.41 M 40.33 25.16 C 40.27 25.91 40.14 27.41 40.08 28.16 C 41.59 27.61 43.96 27.31 42.91 25.05 C 43.22 23.43 39.80 23.55 40.33 25.16 M 20.41 29.95 C 21.06 31.35 21.75 32.97 23.58 32.73 C 23.90 32.02 24.55 30.62 24.88 29.91 C 23.76 29.92 21.53 29.94 20.41 29.95 M 27.37 30.33 C 27.36 31.01 27.33 32.37 27.32 33.05 C 28.49 33.03 29.66 33.00 30.84 32.97 C 30.78 32.29 30.67 30.92 30.61 30.24 C 29.53 30.27 28.45 30.30 27.37 30.33 M 33.67 32.51 C 34.68 32.55 35.69 32.60 36.71 32.64 C 36.77 32.01 36.91 30.74 36.97 30.10 C 36.19 30.06 34.63 29.97 33.84 29.93 C 33.79 30.79 33.73 31.65 33.67 32.51 M 39.96 29.93 C 39.97 30.77 39.97 32.44 39.98 33.28 C 40.94 33.40 41.90 33.53 42.87 33.65 C 43.05 32.41 43.24 31.18 43.42 29.94 C 42.55 29.94 40.82 29.93 39.96 29.93 M 21.11 35.25 C 21.11 36.70 21.12 38.16 21.15 39.61 C 21.87 39.63 23.30 39.67 24.02 39.69 C 24.06 38.41 25.26 36.74 23.54 35.92 C 23.15 36.07 22.35 36.37 21.96 36.52 L 21.11 35.25 M 27.44 38.65 C 29.72 40.33 31.09 37.93 30.94 35.85 C 28.81 35.58 26.66 35.99 27.44 38.65 M 33.53 35.91 C 33.48 36.69 33.38 38.25 33.33 39.03 C 35.01 38.96 37.68 39.77 36.87 37.10 C 36.21 35.68 35.30 35.53 34.15 36.62 L 33.53 35.91 M 17.24 41.79 C 17.51 42.29 18.06 43.29 18.34 43.79 C 18.29 44.80 18.20 46.82 18.16 47.83 C 27.38 47.81 36.60 47.78 45.82 47.81 C 45.80 46.92 45.77 45.13 45.75 44.23 C 45.98 43.64 46.43 42.44 46.65 41.85 C 36.85 41.86 27.04 41.68 17.24 41.79 M 28.69 51.31 C 28.79 53.47 29.70 55.58 32.01 56.09 C 34.42 55.62 35.22 53.38 35.40 51.21 C 33.28 52.69 30.85 52.75 28.69 51.31 Z" />
<path fill="#111111" opacity="1.00" d=" M 27.28 9.08 C 30.42 8.95 33.56 8.95 36.69 9.09 C 35.24 12.16 31.18 10.86 28.51 10.69 C 28.20 10.29 27.59 9.48 27.28 9.08 Z" />
</g>
<g id="#adb4b6ff">
<path fill="#adb4b6" opacity="1.00" d=" M 14.40 5.43 C 15.99 3.47 18.74 4.12 20.93 3.98 C 30.38 4.21 39.87 3.58 49.30 4.36 C 49.52 4.38 49.97 4.43 50.19 4.46 C 50.67 6.28 51.31 8.10 51.25 10.01 C 51.35 25.46 51.06 40.91 51.40 56.36 C 50.45 58.08 48.98 59.38 47.34 60.43 C 37.86 60.13 28.36 60.40 18.87 60.30 C 16.83 60.43 15.19 58.99 13.44 58.18 C 13.40 57.59 13.31 56.42 13.27 55.84 C 12.97 40.89 13.01 25.94 12.99 10.99 C 13.02 9.08 12.94 6.89 14.40 5.43 M 17.40 6.02 C 16.64 6.73 15.89 7.44 15.13 8.14 L 15.18 8.56 C 15.03 23.40 15.13 38.24 15.01 53.07 C 14.42 55.93 17.21 58.19 19.91 57.85 C 28.30 57.82 36.70 57.97 45.10 57.77 C 46.81 57.85 47.82 56.29 49.00 55.32 C 48.94 45.63 49.02 35.93 48.76 26.24 C 49.28 20.21 48.87 14.13 49.00 8.07 C 47.74 7.32 46.64 5.97 45.04 6.05 C 35.83 5.95 26.61 6.01 17.40 6.02 Z" />
<path fill="#adb4b6" opacity="1.00" d=" M 33.55 18.55 C 33.88 16.45 38.13 17.40 36.96 19.44 C 35.62 19.88 34.48 19.59 33.55 18.55 Z" />
<path fill="#adb4b6" opacity="1.00" d=" M 39.82 17.70 C 41.03 17.67 42.24 17.64 43.46 17.62 C 43.22 18.44 42.75 20.10 42.52 20.93 C 42.01 20.90 41.00 20.83 40.49 20.79 C 40.32 20.02 39.99 18.47 39.82 17.70 Z" />
<path fill="#adb4b6" opacity="1.00" d=" M 26.88 21.08 C 27.54 19.99 26.85 17.01 29.01 17.77 C 30.90 17.12 31.14 19.61 30.83 20.81 C 29.52 20.98 28.20 21.07 26.88 21.08 Z" />
<path fill="#adb4b6" opacity="1.00" d=" M 21.18 23.68 C 21.91 23.80 23.39 24.06 24.12 24.18 C 24.32 25.18 24.38 26.20 24.47 27.21 C 23.45 27.27 22.42 27.33 21.40 27.39 C 21.32 26.15 21.25 24.91 21.18 23.68 Z" />
<path fill="#adb4b6" opacity="1.00" d=" M 28.04 24.51 C 28.52 24.52 29.49 24.54 29.97 24.56 C 29.29 25.84 28.65 25.82 28.04 24.51 Z" />
<path fill="#adb4b6" opacity="1.00" d=" M 33.79 27.41 C 33.76 26.21 33.74 25.02 33.71 23.83 C 34.62 23.91 36.42 24.07 37.33 24.15 C 37.14 24.85 36.78 26.26 36.59 26.96 C 35.67 27.17 34.72 27.27 33.79 27.41 Z" />
<path fill="#adb4b6" opacity="1.00" d=" M 40.33 25.16 C 39.80 23.55 43.22 23.43 42.91 25.05 C 42.27 25.08 40.97 25.13 40.33 25.16 Z" />
<path fill="#adb4b6" opacity="1.00" d=" M 27.37 30.33 C 28.45 30.30 29.53 30.27 30.61 30.24 C 30.67 30.92 30.78 32.29 30.84 32.97 C 29.66 33.00 28.49 33.03 27.32 33.05 C 27.33 32.37 27.36 31.01 27.37 30.33 Z" />
<path fill="#adb4b6" opacity="1.00" d=" M 33.67 32.51 C 33.73 31.65 33.79 30.79 33.84 29.93 C 34.63 29.97 36.19 30.06 36.97 30.10 C 36.91 30.74 36.77 32.01 36.71 32.64 C 35.69 32.60 34.68 32.55 33.67 32.51 Z" />
<path fill="#adb4b6" opacity="1.00" d=" M 21.96 36.52 C 22.35 36.37 23.15 36.07 23.54 35.92 C 23.55 37.48 23.03 37.68 21.96 36.52 Z" />
<path fill="#adb4b6" opacity="1.00" d=" M 27.44 38.65 C 26.66 35.99 28.81 35.58 30.94 35.85 C 31.09 37.93 29.72 40.33 27.44 38.65 Z" />
<path fill="#adb4b6" opacity="1.00" d=" M 34.15 36.62 C 35.30 35.53 36.21 35.68 36.87 37.10 C 35.81 37.74 34.90 37.58 34.15 36.62 Z" />
<path fill="#adb4b6" opacity="1.00" d=" M 27.28 41.79 C 30.43 42.68 32.35 45.39 34.98 47.09 C 36.16 46.74 37.31 46.27 38.45 45.82 C 39.64 46.27 40.84 46.73 42.08 47.06 C 43.52 46.44 44.63 45.29 45.75 44.23 C 45.77 45.13 45.80 46.92 45.82 47.81 C 36.60 47.78 27.38 47.81 18.16 47.83 C 18.20 46.82 18.29 44.80 18.34 43.79 C 18.64 44.17 19.23 44.92 19.53 45.29 C 20.67 45.94 21.83 46.60 23.09 47.01 C 24.33 46.71 24.99 45.44 25.93 44.68 C 27.30 46.53 29.34 47.23 31.60 47.12 C 30.22 46.54 28.83 45.97 27.44 45.43 C 27.40 44.52 27.32 42.70 27.28 41.79 Z" />
<path fill="#adb4b6" opacity="1.00" d=" M 33.35 42.44 C 34.39 42.45 36.47 42.48 37.52 42.50 C 37.50 43.32 37.48 44.97 37.47 45.80 C 36.48 45.82 34.50 45.87 33.51 45.89 C 33.47 45.03 33.39 43.30 33.35 42.44 Z" />
<path fill="#adb4b6" opacity="1.00" d=" M 39.51 42.48 C 40.53 42.48 42.57 42.48 43.59 42.48 C 43.57 43.33 43.54 45.02 43.52 45.87 C 42.51 45.86 40.50 45.83 39.49 45.82 C 39.50 44.98 39.50 43.32 39.51 42.48 Z" />
</g>
<g id="#4b4b4bff">
<path fill="#4b4b4b" opacity="1.00" d=" M 17.40 6.02 C 26.61 6.01 35.83 5.95 45.04 6.05 C 46.64 5.97 47.74 7.32 49.00 8.07 C 48.87 14.13 49.28 20.21 48.76 26.24 C 47.98 29.89 47.47 33.59 47.09 37.30 C 45.98 29.66 46.48 21.91 45.69 14.23 C 36.58 14.26 27.46 14.33 18.34 14.30 C 18.30 18.88 18.37 23.62 16.45 27.88 C 15.30 21.50 16.02 14.98 15.18 8.56 L 15.13 8.14 C 15.89 7.44 16.64 6.73 17.40 6.02 M 27.28 9.08 C 27.59 9.48 28.20 10.29 28.51 10.69 C 31.18 10.86 35.24 12.16 36.69 9.09 C 33.56 8.95 30.42 8.95 27.28 9.08 Z" />
<path fill="#4b4b4b" opacity="1.00" d=" M 20.55 21.19 C 20.82 19.65 20.41 16.35 22.92 16.81 C 25.32 16.63 24.42 19.84 24.59 21.35 C 23.58 21.31 21.56 21.23 20.55 21.19 Z" />
<path fill="#4b4b4b" opacity="1.00" d=" M 34.90 21.22 C 33.01 21.87 33.69 19.53 33.55 18.55 C 34.48 19.59 35.62 19.88 36.96 19.44 C 37.21 21.01 36.52 21.61 34.90 21.22 Z" />
<path fill="#4b4b4b" opacity="1.00" d=" M 27.44 23.21 L 28.04 24.51 C 28.65 25.82 29.29 25.84 29.97 24.56 L 30.77 23.12 C 30.85 24.72 30.90 26.31 30.91 27.91 C 29.52 27.68 28.12 27.44 26.73 27.21 C 26.91 26.21 27.26 24.21 27.44 23.21 Z" />
<path fill="#4b4b4b" opacity="1.00" d=" M 40.33 25.16 C 40.97 25.13 42.27 25.08 42.91 25.05 C 43.96 27.31 41.59 27.61 40.08 28.16 C 40.14 27.41 40.27 25.91 40.33 25.16 Z" />
<path fill="#4b4b4b" opacity="1.00" d=" M 20.41 29.95 C 21.53 29.94 23.76 29.92 24.88 29.91 C 24.55 30.62 23.90 32.02 23.58 32.73 C 21.75 32.97 21.06 31.35 20.41 29.95 Z" />
<path fill="#4b4b4b" opacity="1.00" d=" M 39.96 29.93 C 40.82 29.93 42.55 29.94 43.42 29.94 C 43.24 31.18 43.05 32.41 42.87 33.65 C 41.90 33.53 40.94 33.40 39.98 33.28 C 39.97 32.44 39.97 30.77 39.96 29.93 Z" />
<path fill="#4b4b4b" opacity="1.00" d=" M 21.11 35.25 L 21.96 36.52 C 23.03 37.68 23.55 37.48 23.54 35.92 C 25.26 36.74 24.06 38.41 24.02 39.69 C 23.30 39.67 21.87 39.63 21.15 39.61 C 21.12 38.16 21.11 36.70 21.11 35.25 Z" />
<path fill="#4b4b4b" opacity="1.00" d=" M 33.53 35.91 L 34.15 36.62 C 34.90 37.58 35.81 37.74 36.87 37.10 C 37.68 39.77 35.01 38.96 33.33 39.03 C 33.38 38.25 33.48 36.69 33.53 35.91 Z" />
<path fill="#4b4b4b" opacity="1.00" d=" M 17.24 41.79 C 27.04 41.68 36.85 41.86 46.65 41.85 C 46.43 42.44 45.98 43.64 45.75 44.23 C 44.63 45.29 43.52 46.44 42.08 47.06 C 40.84 46.73 39.64 46.27 38.45 45.82 C 37.31 46.27 36.16 46.74 34.98 47.09 C 32.35 45.39 30.43 42.68 27.28 41.79 C 27.32 42.70 27.40 44.52 27.44 45.43 C 28.83 45.97 30.22 46.54 31.60 47.12 C 29.34 47.23 27.30 46.53 25.93 44.68 C 24.99 45.44 24.33 46.71 23.09 47.01 C 21.83 46.60 20.67 45.94 19.53 45.29 C 19.23 44.92 18.64 44.17 18.34 43.79 C 18.06 43.29 17.51 42.29 17.24 41.79 M 33.35 42.44 C 33.39 43.30 33.47 45.03 33.51 45.89 C 34.50 45.87 36.48 45.82 37.47 45.80 C 37.48 44.97 37.50 43.32 37.52 42.50 C 36.47 42.48 34.39 42.45 33.35 42.44 M 39.51 42.48 C 39.50 43.32 39.50 44.98 39.49 45.82 C 40.50 45.83 42.51 45.86 43.52 45.87 C 43.54 45.02 43.57 43.33 43.59 42.48 C 42.57 42.48 40.53 42.48 39.51 42.48 Z" />
<path fill="#4b4b4b" opacity="1.00" d=" M 28.69 51.31 C 30.85 52.75 33.28 52.69 35.40 51.21 C 35.22 53.38 34.42 55.62 32.01 56.09 C 29.70 55.58 28.79 53.47 28.69 51.31 Z" />
</g>
</svg>
