<?xml version="1.0" encoding="UTF-8" ?>
<!DOCTYPE svg PUBLIC "-//W3C//DTD SVG 1.1//EN" "http://www.w3.org/Graphics/SVG/1.1/DTD/svg11.dtd">
<svg width="64pt" height="64pt" viewBox="0 0 64 64" version="1.1" xmlns="http://www.w3.org/2000/svg">
<g id="#717271e1">
<path fill="#717271" opacity="0.88" d=" M 16.86 1.95 C 21.81 2.33 25.28 6.75 29.43 9.02 L 28.32 9.27 C 24.34 7.22 19.50 5.71 16.86 1.95 Z" />
</g>
<g id="#6c6c6ce3">
<path fill="#6c6c6c" opacity="0.89" d=" M 34.83 8.23 C 38.94 6.18 42.59 3.03 47.12 1.92 C 44.54 5.65 39.97 7.48 35.94 9.30 C 35.67 9.03 35.11 8.50 34.83 8.23 Z" />
</g>
<g id="#5a4035db">
<path fill="#5a4035" opacity="0.86" d=" M 32.66 9.99 C 33.33 9.33 34.05 8.75 34.83 8.23 C 35.11 8.50 35.67 9.03 35.94 9.30 C 41.45 11.71 48.62 8.52 54.22 10.79 C 47.11 10.32 39.52 12.51 32.66 9.99 Z" />
</g>
<g id="#5b3d31db">
<path fill="#5b3d31" opacity="0.86" d=" M 28.32 9.27 L 29.43 9.02 C 29.23 9.46 28.82 10.35 28.62 10.79 C 22.35 11.14 16.06 11.12 9.78 10.81 C 15.42 8.28 22.38 11.28 28.32 9.27 Z" />
</g>
<g id="#815845fe">
<path fill="#815845" opacity="1.00" d=" M 29.43 9.02 C 30.51 9.34 31.58 9.68 32.66 9.99 C 39.52 12.51 47.11 10.32 54.22 10.79 C 55.00 11.35 55.68 12.02 56.24 12.80 C 56.21 13.34 56.16 14.42 56.14 14.95 L 55.28 14.89 C 54.60 14.05 54.60 11.94 53.17 12.12 C 39.06 11.90 24.94 11.91 10.83 12.12 C 9.37 11.94 9.40 14.09 8.73 14.96 L 7.87 14.91 C 7.84 14.38 7.79 13.33 7.77 12.80 C 8.33 12.03 9.00 11.36 9.78 10.81 C 16.06 11.12 22.35 11.14 28.62 10.79 C 28.82 10.35 29.23 9.46 29.43 9.02 Z" />
</g>
<g id="#c58661ff">
<path fill="#c58661" opacity="1.00" d=" M 8.73 14.96 C 9.40 14.09 9.37 11.94 10.83 12.12 C 11.16 12.35 11.82 12.81 12.15 13.03 L 11.75 13.79 C 10.36 14.87 9.87 16.50 9.68 18.19 C 9.35 17.12 9.03 16.04 8.73 14.96 Z" />
</g>
<g id="#e4a279ff">
<path fill="#e4a279" opacity="1.00" d=" M 10.83 12.12 C 24.94 11.91 39.06 11.90 53.17 12.12 C 52.86 12.34 52.23 12.78 51.92 13.01 C 38.66 13.03 25.41 12.95 12.15 13.03 C 11.82 12.81 11.16 12.35 10.83 12.12 Z" />
</g>
<g id="#ce8d66ff">
<path fill="#ce8d66" opacity="1.00" d=" M 53.17 12.12 C 54.60 11.94 54.60 14.05 55.28 14.89 C 55.00 16.34 54.70 17.79 54.34 19.23 C 54.11 17.21 54.11 14.91 52.10 13.81 L 51.92 13.01 C 52.23 12.78 52.86 12.34 53.17 12.12 Z" />
</g>
<g id="#643c29ef">
<path fill="#643c29" opacity="0.94" d=" M 7.01 36.01 C 7.24 28.31 6.20 20.22 7.77 12.80 C 7.79 13.33 7.84 14.38 7.87 14.91 C 7.94 16.94 7.98 18.97 8.02 21.00 C 8.01 25.39 8.09 29.79 8.16 34.19 C 8.12 34.65 8.04 35.55 8.00 36.01 L 7.01 36.01 Z" />
</g>
<g id="#a36a4bff">
<path fill="#a36a4b" opacity="1.00" d=" M 12.15 13.03 C 25.41 12.95 38.66 13.03 51.92 13.01 L 52.10 13.81 L 51.02 13.88 C 37.93 13.99 24.83 14.24 11.75 13.79 L 12.15 13.03 Z" />
</g>
<g id="#643e2cee">
<path fill="#643e2c" opacity="0.93" d=" M 56.24 12.80 C 58.62 18.69 56.17 25.77 56.99 31.99 L 56.02 32.01 C 56.00 28.29 55.99 24.58 55.95 20.87 C 56.01 18.90 56.06 16.93 56.14 14.95 C 56.16 14.42 56.21 13.34 56.24 12.80 Z" />
</g>
<g id="#705f56ff">
<path fill="#705f56" opacity="1.00" d=" M 9.68 18.19 C 9.87 16.50 10.36 14.87 11.75 13.79 C 24.83 14.24 37.93 13.99 51.02 13.88 L 51.33 14.74 C 38.31 15.44 25.24 14.55 12.23 15.16 C 11.96 15.43 11.41 15.98 11.14 16.26 C 10.79 26.87 11.13 37.49 10.88 48.10 C 9.24 41.98 10.25 35.22 9.87 28.80 C 10.00 26.20 10.02 23.60 9.94 21.01 C 9.88 20.30 9.75 18.89 9.68 18.19 Z" />
</g>
<g id="#6d4734ff">
<path fill="#6d4734" opacity="1.00" d=" M 51.02 13.88 L 52.10 13.81 C 54.11 14.91 54.11 17.21 54.34 19.23 C 54.27 19.95 54.14 21.40 54.08 22.12 C 53.96 26.08 53.94 30.04 54.01 34.00 C 54.01 35.33 54.00 36.67 54.00 38.00 L 53.01 38.00 C 52.26 30.76 54.41 22.71 52.16 15.87 C 51.95 15.59 51.54 15.02 51.33 14.74 L 51.02 13.88 Z" />
</g>
<g id="#a06648ff">
<path fill="#a06648" opacity="1.00" d=" M 7.87 14.91 L 8.73 14.96 C 9.03 16.04 9.35 17.12 9.68 18.19 C 9.75 18.89 9.88 20.30 9.94 21.01 C 9.46 21.00 8.50 21.00 8.02 21.00 C 7.98 18.97 7.94 16.94 7.87 14.91 Z" />
</g>
<g id="#a0a1a3ff">
<path fill="#a0a1a3" opacity="1.00" d=" M 12.23 15.16 C 25.24 14.55 38.31 15.44 51.33 14.74 C 51.54 15.02 51.95 15.59 52.16 15.87 L 52.13 16.75 C 49.74 16.54 47.28 15.98 44.92 16.57 L 44.26 16.69 C 36.16 16.21 27.71 14.84 19.70 16.68 L 19.04 16.63 C 16.70 16.63 13.56 14.81 12.12 17.28 C 11.71 19.69 11.90 22.03 12.67 24.30 C 12.90 29.12 13.25 33.99 12.70 38.81 C 12.09 42.22 11.50 45.83 12.79 49.15 L 11.75 49.25 C 11.53 48.96 11.10 48.39 10.88 48.10 C 11.13 37.49 10.79 26.87 11.14 16.26 C 11.41 15.98 11.96 15.43 12.23 15.16 Z" />
</g>
<g id="#a66d4fff">
<path fill="#a66d4f" opacity="1.00" d=" M 55.28 14.89 L 56.14 14.95 C 56.06 16.93 56.01 18.90 55.95 20.87 C 55.49 21.18 54.55 21.81 54.08 22.12 C 54.14 21.40 54.27 19.95 54.34 19.23 C 54.70 17.79 55.00 16.34 55.28 14.89 Z" />
</g>
<g id="#b4b4b5ff">
<path fill="#b4b4b5" opacity="1.00" d=" M 12.12 17.28 C 13.56 14.81 16.70 16.63 19.04 16.63 C 16.78 18.22 14.59 19.99 13.70 22.73 C 13.44 23.12 12.93 23.91 12.67 24.30 C 11.90 22.03 11.71 19.69 12.12 17.28 Z" />
</g>
<g id="#707170ff">
<path fill="#707170" opacity="1.00" d=" M 19.70 16.68 C 27.71 14.84 36.16 16.21 44.26 16.69 C 36.08 17.00 27.86 17.36 19.70 16.68 Z" />
</g>
<g id="#b1b1b1ff">
<path fill="#b1b1b1" opacity="1.00" d=" M 44.92 16.57 C 47.28 15.98 49.74 16.54 52.13 16.75 C 52.10 18.58 52.02 22.22 51.98 24.04 L 51.04 24.03 C 50.85 23.70 50.49 23.03 50.30 22.70 C 49.39 19.96 47.16 18.20 44.92 16.57 Z" />
</g>
<g id="#8d8d8dff">
<path fill="#8d8d8d" opacity="1.00" d=" M 52.16 15.87 C 54.41 22.71 52.26 30.76 53.01 38.00 C 52.98 41.64 53.01 45.29 52.99 48.93 L 52.15 49.18 L 51.19 49.13 C 51.66 46.10 52.02 43.03 52.03 39.96 C 52.05 34.65 52.01 29.35 51.98 24.04 C 52.02 22.22 52.10 18.58 52.13 16.75 L 52.16 15.87 Z" />
</g>
<g id="#242716ff">
<path fill="#242716" opacity="1.00" d=" M 13.70 22.73 C 14.59 19.99 16.78 18.22 19.04 16.63 L 19.70 16.68 C 20.02 17.03 20.68 17.73 21.01 18.07 L 20.77 19.02 L 19.83 19.33 C 18.36 19.76 16.87 20.36 16.37 21.96 C 16.23 22.20 15.94 22.69 15.80 22.93 C 14.59 25.64 15.16 28.90 14.97 31.81 C 14.97 33.49 15.01 35.16 15.05 36.84 C 14.98 38.68 14.83 40.53 14.27 42.29 L 13.87 41.40 C 13.96 35.17 14.06 28.94 13.70 22.73 Z" />
<path fill="#242716" opacity="1.00" d=" M 44.26 16.69 L 44.92 16.57 C 47.16 18.20 49.39 19.96 50.30 22.70 C 50.01 28.92 50.04 35.15 50.05 41.38 L 49.68 42.27 C 49.20 40.49 49.03 38.66 48.95 36.83 C 48.98 35.16 49.03 33.49 49.03 31.82 C 48.76 28.90 49.81 25.57 48.24 22.92 C 48.09 22.67 47.79 22.18 47.64 21.94 C 47.12 20.38 45.65 19.80 44.21 19.36 L 43.27 19.03 L 42.98 18.08 C 43.30 17.74 43.94 17.04 44.26 16.69 Z" />
</g>
<g id="#030500ff">
<path fill="#030500" opacity="1.00" d=" M 19.70 16.68 C 27.86 17.36 36.08 17.00 44.26 16.69 C 43.94 17.04 43.30 17.74 42.98 18.08 C 35.66 17.98 28.33 17.99 21.01 18.07 C 20.68 17.73 20.02 17.03 19.70 16.68 Z" />
</g>
<g id="#65685bff">
<path fill="#65685b" opacity="1.00" d=" M 21.01 18.07 C 28.33 17.99 35.66 17.98 42.98 18.08 L 43.27 19.03 C 35.76 18.96 28.27 18.97 20.77 19.02 L 21.01 18.07 Z" />
</g>
<g id="#7b7d72ff">
<path fill="#7b7d72" opacity="1.00" d=" M 16.37 21.96 C 16.87 20.36 18.36 19.76 19.83 19.33 C 27.88 19.83 36.24 21.07 44.21 19.36 C 45.65 19.80 47.12 20.38 47.64 21.94 C 37.38 22.31 26.71 22.21 16.37 21.96 Z" />
</g>
<g id="#8c8d85ff">
<path fill="#8c8d85" opacity="1.00" d=" M 19.83 19.33 L 20.77 19.02 C 28.27 18.97 35.76 18.96 43.27 19.03 L 44.21 19.36 C 36.24 21.07 27.88 19.83 19.83 19.33 Z" />
</g>
<g id="#864e31ff">
<path fill="#864e31" opacity="1.00" d=" M 8.02 21.00 C 8.50 21.00 9.46 21.00 9.94 21.01 C 10.02 23.60 10.00 26.20 9.87 28.80 C 9.44 30.15 8.59 32.85 8.16 34.19 C 8.09 29.79 8.01 25.39 8.02 21.00 Z" />
</g>
<g id="#8f5234ff">
<path fill="#8f5234" opacity="1.00" d=" M 54.08 22.12 C 54.55 21.81 55.49 21.18 55.95 20.87 C 55.99 24.58 56.00 28.29 56.02 32.01 C 56.01 32.50 55.99 33.50 55.98 34.00 C 55.49 34.00 54.50 34.00 54.01 34.00 C 53.94 30.04 53.96 26.08 54.08 22.12 Z" />
</g>
<g id="#6e7164ff">
<path fill="#6e7164" opacity="1.00" d=" M 15.80 22.93 C 15.94 22.69 16.23 22.20 16.37 21.96 C 26.71 22.21 37.38 22.31 47.64 21.94 C 47.79 22.18 48.09 22.67 48.24 22.92 C 48.22 23.39 48.17 24.34 48.15 24.82 C 37.48 23.49 26.53 23.47 15.87 24.82 C 15.85 24.35 15.81 23.41 15.80 22.93 Z" />
</g>
<g id="#393b31ff">
<path fill="#393b31" opacity="1.00" d=" M 12.67 24.30 C 12.93 23.91 13.44 23.12 13.70 22.73 C 14.06 28.94 13.96 35.17 13.87 41.40 C 13.58 40.75 12.99 39.46 12.70 38.81 C 13.25 33.99 12.90 29.12 12.67 24.30 Z" />
</g>
<g id="#30351bff">
<path fill="#30351b" opacity="1.00" d=" M 14.97 31.81 C 15.16 28.90 14.59 25.64 15.80 22.93 C 15.81 23.41 15.85 24.35 15.87 24.82 C 15.90 25.32 15.96 26.30 15.99 26.79 C 16.17 28.48 18.47 28.48 19.67 29.25 C 20.67 29.66 21.70 29.99 22.76 30.25 C 28.75 32.21 35.31 32.75 41.24 30.27 C 42.30 29.99 43.33 29.64 44.35 29.22 C 45.53 28.46 47.85 28.48 48.00 26.79 C 48.04 26.30 48.11 25.31 48.15 24.82 C 48.17 24.34 48.22 23.39 48.24 22.92 C 49.81 25.57 48.76 28.90 49.03 31.82 C 45.92 30.97 44.55 35.47 41.36 35.41 C 34.50 35.81 26.91 37.52 20.36 34.61 C 18.50 33.74 17.29 30.96 14.97 31.81 Z" />
</g>
<g id="#383b30ff">
<path fill="#383b30" opacity="1.00" d=" M 50.30 22.70 C 50.49 23.03 50.85 23.70 51.04 24.03 C 51.03 29.35 50.97 34.67 51.06 39.99 C 50.81 40.34 50.30 41.03 50.05 41.38 C 50.04 35.15 50.01 28.92 50.30 22.70 Z" />
</g>
<g id="#636557ff">
<path fill="#636557" opacity="1.00" d=" M 15.87 24.82 C 26.53 23.47 37.48 23.49 48.15 24.82 C 48.11 25.31 48.04 26.30 48.00 26.79 C 37.41 25.51 26.58 25.51 15.99 26.79 C 15.96 26.30 15.90 25.32 15.87 24.82 Z" />
</g>
<g id="#9c9e9eff">
<path fill="#9c9e9e" opacity="1.00" d=" M 51.04 24.03 L 51.98 24.04 C 52.01 29.35 52.05 34.65 52.03 39.96 L 51.06 39.99 C 50.97 34.67 51.03 29.35 51.04 24.03 Z" />
</g>
<g id="#555848ff">
<path fill="#555848" opacity="1.00" d=" M 15.99 26.79 C 26.58 25.51 37.41 25.51 48.00 26.79 C 47.85 28.48 45.53 28.46 44.35 29.22 C 36.51 27.90 27.29 26.28 19.67 29.25 C 18.47 28.48 16.17 28.48 15.99 26.79 Z" />
</g>
<g id="#4a4e3cff">
<path fill="#4a4e3c" opacity="1.00" d=" M 19.67 29.25 C 27.29 26.28 36.51 27.90 44.35 29.22 C 43.33 29.64 42.30 29.99 41.24 30.27 C 35.08 30.02 28.92 29.98 22.76 30.25 C 21.70 29.99 20.67 29.66 19.67 29.25 Z" />
</g>
<g id="#7e3d19ff">
<path fill="#7e3d19" opacity="1.00" d=" M 8.16 34.19 C 8.59 32.85 9.44 30.15 9.87 28.80 C 10.25 35.22 9.24 41.98 10.88 48.10 C 11.10 48.39 11.53 48.96 11.75 49.25 L 11.98 50.05 L 12.17 50.90 C 11.02 50.35 9.93 49.68 8.79 49.10 C 9.11 52.85 13.07 52.36 16.07 52.15 C 13.35 53.17 12.10 55.71 14.10 58.17 C 12.81 58.74 11.42 58.99 10.04 59.28 C 6.25 52.22 8.47 43.73 8.00 36.01 C 8.04 35.55 8.12 34.65 8.16 34.19 Z" />
</g>
<g id="#3f422fff">
<path fill="#3f422f" opacity="1.00" d=" M 22.76 30.25 C 28.92 29.98 35.08 30.02 41.24 30.27 C 35.31 32.75 28.75 32.21 22.76 30.25 Z" />
</g>
<g id="#393e20ff">
<path fill="#393e20" opacity="1.00" d=" M 14.97 31.81 C 17.29 30.96 18.50 33.74 20.36 34.61 C 26.91 37.52 34.50 35.81 41.36 35.41 C 44.55 35.47 45.92 30.97 49.03 31.82 C 49.03 33.49 48.98 35.16 48.95 36.83 C 46.92 36.00 45.41 37.95 43.62 38.56 C 36.43 39.23 29.18 40.75 22.00 39.00 C 19.39 39.10 17.68 35.82 15.05 36.84 C 15.01 35.16 14.97 33.49 14.97 31.81 Z" />
</g>
<g id="#4e250ff8">
<path fill="#4e250f" opacity="0.97" d=" M 56.02 32.01 L 56.99 31.99 C 57.02 38.67 57.08 45.34 56.97 52.01 C 58.11 55.11 56.53 58.32 53.86 59.71 C 52.49 60.18 52.11 61.54 51.55 62.72 C 50.12 63.08 48.62 62.99 47.16 63.01 C 46.86 62.50 46.27 61.50 45.97 60.99 C 37.81 58.87 27.75 60.19 18.90 60.31 C 17.61 60.32 17.60 62.22 16.85 63.00 C 15.37 62.99 13.87 63.03 12.41 62.77 C 11.94 61.41 11.64 59.85 9.86 59.90 L 10.04 59.28 C 11.42 58.99 12.81 58.74 14.10 58.17 C 15.62 57.48 17.29 57.36 18.91 57.07 C 19.00 57.53 19.18 58.44 19.26 58.89 C 27.96 58.89 36.80 59.69 45.42 58.31 C 46.87 58.36 48.31 58.39 49.76 58.43 C 52.11 59.51 55.15 58.28 55.71 55.67 C 56.24 48.46 55.99 41.22 55.98 34.00 C 55.99 33.50 56.01 32.50 56.02 32.01 Z" />
</g>
<g id="#894016ff">
<path fill="#894016" opacity="1.00" d=" M 54.01 34.00 C 54.50 34.00 55.49 34.00 55.98 34.00 C 55.99 41.22 56.24 48.46 55.71 55.67 C 55.15 58.28 52.11 59.51 49.76 58.43 C 50.26 57.16 51.98 55.11 50.17 54.11 C 49.08 53.11 47.40 52.33 45.98 53.14 C 44.72 53.45 43.93 54.47 44.13 55.78 C 44.75 59.29 41.22 57.85 40.03 56.10 C 34.72 56.08 29.10 55.18 24.01 57.20 C 21.74 58.36 17.01 59.22 19.64 53.46 L 18.90 53.09 C 18.39 52.86 17.37 52.39 16.86 52.16 C 29.20 51.81 41.55 52.19 53.90 51.92 C 54.85 49.80 53.20 50.40 51.82 50.76 L 51.97 49.99 L 52.15 49.18 L 52.99 48.93 L 53.87 48.66 C 53.90 45.99 53.97 40.67 54.00 38.00 C 54.00 36.67 54.01 35.33 54.01 34.00 M 24.00 53.02 C 24.25 53.27 24.75 53.76 25.00 54.01 L 25.01 54.98 C 28.75 54.98 36.25 54.98 39.99 54.98 L 40.01 54.01 C 40.25 53.77 40.74 53.28 40.99 53.04 C 35.32 52.85 29.66 52.99 24.00 53.02 Z" />
</g>
<g id="#582a11ef">
<path fill="#582a11" opacity="0.94" d=" M 7.01 36.01 L 8.00 36.01 C 8.47 43.73 6.25 52.22 10.04 59.28 C 6.98 58.73 6.44 54.40 7.03 52.01 C 6.95 46.67 6.94 41.34 7.01 36.01 Z" />
</g>
<g id="#444a29ff">
<path fill="#444a29" opacity="1.00" d=" M 15.05 36.84 C 17.68 35.82 19.39 39.10 22.00 39.00 C 29.18 40.75 36.43 39.23 43.62 38.56 C 45.41 37.95 46.92 36.00 48.95 36.83 C 49.03 38.66 49.20 40.49 49.68 42.27 C 49.07 44.91 46.53 46.22 44.27 47.29 C 36.10 46.96 27.92 46.83 19.75 47.23 C 17.42 46.30 14.99 44.86 14.27 42.29 C 14.83 40.53 14.98 38.68 15.05 36.84 M 15.92 40.12 C 15.33 43.26 18.45 45.15 21.05 45.91 C 28.59 46.23 36.17 46.10 43.71 45.72 C 46.02 44.72 48.67 43.02 48.08 40.10 C 37.86 44.25 26.24 43.11 15.92 40.12 Z" />
</g>
<g id="#64371cff">
<path fill="#64371c" opacity="1.00" d=" M 53.01 38.00 L 54.00 38.00 C 53.97 40.67 53.90 45.99 53.87 48.66 L 52.99 48.93 C 53.01 45.29 52.98 41.64 53.01 38.00 Z" />
</g>
<g id="#b1b2b2ff">
<path fill="#b1b2b2" opacity="1.00" d=" M 12.79 49.15 C 11.50 45.83 12.09 42.22 12.70 38.81 C 12.99 39.46 13.58 40.75 13.87 41.40 L 14.27 42.29 C 14.99 44.86 17.42 46.30 19.75 47.23 C 27.71 47.92 36.41 49.29 44.27 47.29 C 46.53 46.22 49.07 44.91 49.68 42.27 L 50.05 41.38 C 50.30 41.03 50.81 40.34 51.06 39.99 L 52.03 39.96 C 52.02 43.03 51.66 46.10 51.19 49.13 C 38.39 48.95 25.59 48.86 12.79 49.15 Z" />
</g>
<g id="#525a31ff">
<path fill="#525a31" opacity="1.00" d=" M 15.92 40.12 C 26.24 43.11 37.86 44.25 48.08 40.10 C 48.67 43.02 46.02 44.72 43.71 45.72 C 36.17 46.10 28.59 46.23 21.05 45.91 C 18.45 45.15 15.33 43.26 15.92 40.12 Z" />
</g>
<g id="#80817cff">
<path fill="#80817c" opacity="1.00" d=" M 19.75 47.23 C 27.92 46.83 36.10 46.96 44.27 47.29 C 36.41 49.29 27.71 47.92 19.75 47.23 Z" />
</g>
<g id="#cb6628ff">
<path fill="#cb6628" opacity="1.00" d=" M 8.79 49.10 C 9.93 49.68 11.02 50.35 12.17 50.90 C 25.37 50.88 38.64 51.47 51.82 50.76 C 53.20 50.40 54.85 49.80 53.90 51.92 C 41.55 52.19 29.20 51.81 16.86 52.16 L 16.07 52.15 C 13.07 52.36 9.11 52.85 8.79 49.10 Z" />
</g>
<g id="#7c7673ff">
<path fill="#7c7673" opacity="1.00" d=" M 11.75 49.25 L 12.79 49.15 C 25.59 48.86 38.39 48.95 51.19 49.13 L 52.15 49.18 L 51.97 49.99 C 38.64 50.06 25.31 49.92 11.98 50.05 L 11.75 49.25 Z" />
</g>
<g id="#672e0fff">
<path fill="#672e0f" opacity="1.00" d=" M 11.98 50.05 C 25.31 49.92 38.64 50.06 51.97 49.99 L 51.82 50.76 C 38.64 51.47 25.37 50.88 12.17 50.90 L 11.98 50.05 Z" />
</g>
<g id="#5d5b5cff">
<path fill="#5d5b5c" opacity="1.00" d=" M 16.07 52.15 L 16.86 52.16 C 17.37 52.39 18.39 52.86 18.90 53.09 C 18.92 54.42 18.93 55.75 18.91 57.07 C 17.29 57.36 15.62 57.48 14.10 58.17 C 12.10 55.71 13.35 53.17 16.07 52.15 Z" />
</g>
<g id="#703311ff">
<path fill="#703311" opacity="1.00" d=" M 18.90 53.09 L 19.64 53.46 C 17.01 59.22 21.74 58.36 24.01 57.20 L 24.78 57.19 C 29.74 58.01 34.72 58.25 39.74 57.92 L 39.90 56.98 L 40.03 56.10 C 41.22 57.85 44.75 59.29 44.13 55.78 C 44.45 56.42 45.10 57.68 45.42 58.31 C 36.80 59.69 27.96 58.89 19.26 58.89 C 19.18 58.44 19.00 57.53 18.91 57.07 C 18.93 55.75 18.92 54.42 18.90 53.09 Z" />
</g>
<g id="#2e190cff">
<path fill="#2e190c" opacity="1.00" d=" M 24.00 53.02 C 29.66 52.99 35.32 52.85 40.99 53.04 C 40.74 53.28 40.25 53.77 40.01 54.01 C 35.00 54.00 30.00 53.99 25.00 54.01 C 24.75 53.76 24.25 53.27 24.00 53.02 Z" />
</g>
<g id="#484443ff">
<path fill="#484443" opacity="1.00" d=" M 44.13 55.78 C 43.93 54.47 44.72 53.45 45.98 53.14 C 45.54 55.70 49.01 55.60 50.17 54.11 C 51.98 55.11 50.26 57.16 49.76 58.43 C 48.31 58.39 46.87 58.36 45.42 58.31 C 45.10 57.68 44.45 56.42 44.13 55.78 Z" />
</g>
<g id="#888a8eff">
<path fill="#888a8e" opacity="1.00" d=" M 45.98 53.14 C 47.40 52.33 49.08 53.11 50.17 54.11 C 49.01 55.60 45.54 55.70 45.98 53.14 Z" />
</g>
<g id="#b3846aff">
<path fill="#b3846a" opacity="1.00" d=" M 25.00 54.01 C 30.00 53.99 35.00 54.00 40.01 54.01 L 39.99 54.98 C 36.25 54.98 28.75 54.98 25.01 54.98 L 25.00 54.01 Z" />
</g>
<g id="#381908ff">
<path fill="#381908" opacity="1.00" d=" M 24.01 57.20 C 29.10 55.18 34.72 56.08 40.03 56.10 L 39.90 56.98 C 34.86 57.02 29.82 56.94 24.78 57.19 L 24.01 57.20 Z" />
</g>
<g id="#9a7b6bff">
<path fill="#9a7b6b" opacity="1.00" d=" M 24.78 57.19 C 29.82 56.94 34.86 57.02 39.90 56.98 L 39.74 57.92 C 34.72 58.25 29.74 58.01 24.78 57.19 Z" />
</g>
<g id="#05020160">
<path fill="#050201" opacity="0.38" d=" M 9.86 59.90 C 11.64 59.85 11.94 61.41 12.41 62.77 C 13.87 63.03 15.37 62.99 16.85 63.00 L 17.85 63.03 L 18.12 64.00 L 11.23 64.00 C 9.29 63.30 8.78 61.62 9.86 59.90 Z" />
</g>
<g id="#01000083">
<path fill="#010000" opacity="0.51" d=" M 16.85 63.00 C 17.60 62.22 17.61 60.32 18.90 60.31 C 27.88 61.47 36.95 60.88 45.97 60.99 C 46.27 61.50 46.86 62.50 47.16 63.01 C 37.39 63.02 27.62 62.96 17.85 63.03 L 16.85 63.00 Z" />
</g>
<g id="#0e050054">
<path fill="#0e0500" opacity="0.33" d=" M 18.90 60.31 C 27.75 60.19 37.81 58.87 45.97 60.99 C 36.95 60.88 27.88 61.47 18.90 60.31 Z" />
</g>
<g id="#02010145">
<path fill="#020101" opacity="0.27" d=" M 51.55 62.72 C 52.11 61.54 52.49 60.18 53.86 59.71 C 54.71 61.08 55.00 62.56 54.14 64.00 L 18.12 64.00 L 17.85 63.03 C 27.62 62.96 37.39 63.02 47.16 63.01 C 48.62 62.99 50.12 63.08 51.55 62.72 Z" />
</g>
</svg>
