<?xml version="1.0" encoding="UTF-8" ?>
<!DOCTYPE svg PUBLIC "-//W3C//DTD SVG 1.1//EN" "http://www.w3.org/Graphics/SVG/1.1/DTD/svg11.dtd">
<svg width="64pt" height="64pt" viewBox="0 0 64 64" version="1.1" xmlns="http://www.w3.org/2000/svg">
<g id="#17181cee">
<path fill="#17181c" opacity="0.93" d=" M 0.00 16.00 C 21.33 16.00 42.67 16.00 64.00 16.00 L 64.00 46.23 L 63.04 45.79 L 62.96 44.75 C 62.96 44.04 62.97 42.62 62.97 41.91 C 62.91 33.62 63.29 25.33 62.90 17.05 C 42.29 16.97 21.66 16.92 1.05 17.07 C 0.93 25.35 0.93 33.63 1.03 41.91 C 1.03 42.62 1.04 44.04 1.04 44.75 L 0.96 45.79 L 0.00 46.23 L 0.00 16.00 Z" />
</g>
<g id="#3a3c42ff">
<path fill="#3a3c42" opacity="1.00" d=" M 1.05 17.07 C 21.66 16.92 42.29 16.97 62.90 17.05 C 63.29 25.33 62.91 33.62 62.97 41.91 C 62.05 44.37 56.09 45.86 57.60 42.09 C 56.89 41.99 55.46 41.80 54.74 41.71 C 56.59 40.66 59.95 40.84 60.21 38.23 C 61.08 35.13 61.39 31.80 60.36 28.71 C 60.26 28.30 60.06 27.48 59.96 27.07 C 61.20 27.68 62.54 28.35 61.95 26.28 C 62.61 22.34 62.29 16.31 56.01 18.99 C 38.69 19.05 21.37 18.87 4.06 19.05 C 0.42 19.57 2.29 24.35 2.02 27.09 C 2.97 26.37 3.86 25.58 4.75 24.78 C 5.10 24.95 5.80 25.30 6.15 25.47 C 5.16 26.42 3.95 27.29 3.78 28.77 C 3.16 31.80 2.31 35.31 3.68 38.29 C 3.99 40.20 6.17 42.24 7.74 40.20 C 8.80 38.89 9.33 39.19 9.31 41.08 C 6.66 42.11 2.85 46.08 1.03 41.91 C 0.93 33.63 0.93 25.35 1.05 17.07 Z" />
</g>
<g id="#4f515aff">
<path fill="#4f515a" opacity="1.00" d=" M 2.02 27.09 C 2.29 24.35 0.42 19.57 4.06 19.05 C 21.37 18.87 38.69 19.05 56.01 18.99 C 62.29 16.31 62.61 22.34 61.95 26.28 C 57.77 22.27 51.72 22.52 46.22 23.18 C 44.76 24.37 43.81 26.01 43.39 27.84 C 43.04 28.97 42.67 30.10 42.29 31.22 C 42.22 30.67 42.07 29.59 42.00 29.04 L 41.84 28.06 C 35.28 27.89 28.72 27.89 22.16 28.06 L 22.00 29.04 C 21.93 29.59 21.78 30.67 21.71 31.21 C 21.36 30.10 21.01 28.99 20.68 27.87 C 19.49 20.63 10.72 22.94 5.35 23.21 C 5.20 23.60 4.90 24.39 4.75 24.78 C 3.86 25.58 2.97 26.37 2.02 27.09 Z" />
</g>
<g id="#444654ff">
<path fill="#444654" opacity="1.00" d=" M 5.35 23.21 C 10.72 22.94 19.49 20.63 20.68 27.87 C 19.80 32.15 21.08 37.18 17.98 40.73 C 15.09 40.86 12.20 40.95 9.31 41.08 C 9.33 39.19 8.80 38.89 7.74 40.20 C 4.90 36.05 5.56 30.48 7.70 26.19 C 7.31 26.01 6.54 25.65 6.15 25.47 C 5.80 25.30 5.10 24.95 4.75 24.78 C 4.90 24.39 5.20 23.60 5.35 23.21 M 17.16 29.14 C 14.05 31.56 14.63 37.92 18.94 38.04 C 18.22 35.48 21.66 27.67 17.16 29.14 Z" />
</g>
<g id="#464957ff">
<path fill="#464957" opacity="1.00" d=" M 46.22 23.18 C 51.72 22.52 57.77 22.27 61.95 26.28 C 62.54 28.35 61.20 27.68 59.96 27.07 C 58.50 26.77 55.57 26.17 54.10 25.88 C 57.60 30.65 57.83 37.07 53.87 41.63 C 51.24 41.39 48.63 41.09 46.00 40.85 C 47.52 39.15 45.83 38.89 44.27 38.59 C 44.00 35.00 43.71 31.42 43.39 27.84 C 43.81 26.01 44.76 24.37 46.22 23.18 M 45.06 28.96 C 45.78 31.51 42.34 39.33 46.83 37.86 C 49.28 35.56 49.28 28.90 45.06 28.96 Z" />
</g>
<g id="#dadde5ff">
<path fill="#dadde5" opacity="1.00" d=" M 3.78 28.77 C 3.95 27.29 5.16 26.42 6.15 25.47 C 6.54 25.65 7.31 26.01 7.70 26.19 C 5.56 30.48 4.90 36.05 7.74 40.20 C 6.17 42.24 3.99 40.20 3.68 38.29 C 3.75 35.11 3.86 31.94 3.78 28.77 Z" />
</g>
<g id="#e8ecf4ff">
<path fill="#e8ecf4" opacity="1.00" d=" M 54.10 25.88 C 55.57 26.17 58.50 26.77 59.96 27.07 C 60.06 27.48 60.26 28.30 60.36 28.71 C 60.27 31.88 60.14 35.06 60.21 38.23 C 59.95 40.84 56.59 40.66 54.74 41.71 L 53.87 41.63 C 57.83 37.07 57.60 30.65 54.10 25.88 Z" />
</g>
<g id="#383a42ff">
<path fill="#383a42" opacity="1.00" d=" M 17.98 40.73 C 21.08 37.18 19.80 32.15 20.68 27.87 C 21.01 28.99 21.36 30.10 21.71 31.21 C 21.70 32.93 21.68 36.35 21.68 38.06 C 21.35 39.61 19.00 41.88 21.29 42.78 C 28.43 43.02 35.64 43.44 42.76 42.79 C 44.95 41.83 42.65 39.61 42.32 38.06 C 42.32 36.35 42.30 32.93 42.29 31.22 C 42.67 30.10 43.04 28.97 43.39 27.84 C 43.71 31.42 44.00 35.00 44.27 38.59 C 45.83 38.89 47.52 39.15 46.00 40.85 C 44.66 42.94 44.35 46.58 39.97 43.96 C 33.11 44.06 26.22 44.24 19.37 43.78 C 18.91 42.76 18.45 41.74 17.98 40.73 Z" />
</g>
<g id="#78787aff">
<path fill="#78787a" opacity="1.00" d=" M 22.16 28.06 C 28.72 27.89 35.28 27.89 41.84 28.06 L 42.00 29.04 L 40.98 29.04 C 34.99 28.99 29.01 28.95 23.02 29.04 L 22.00 29.04 L 22.16 28.06 Z" />
</g>
<g id="#b1b5c2ff">
<path fill="#b1b5c2" opacity="1.00" d=" M 3.68 38.29 C 2.31 35.31 3.16 31.80 3.78 28.77 C 3.86 31.94 3.75 35.11 3.68 38.29 Z" />
</g>
<g id="#c7cbdaff">
<path fill="#c7cbda" opacity="1.00" d=" M 17.16 29.14 C 21.66 27.67 18.22 35.48 18.94 38.04 C 14.63 37.92 14.05 31.56 17.16 29.14 Z" />
</g>
<g id="#b8b8acff">
<path fill="#b8b8ac" opacity="1.00" d=" M 22.00 29.04 L 23.02 29.04 C 22.98 32.04 22.99 35.04 22.85 38.04 L 21.68 38.06 C 21.68 36.35 21.70 32.93 21.71 31.21 C 21.78 30.67 21.93 29.59 22.00 29.04 Z" />
<path fill="#b8b8ac" opacity="1.00" d=" M 40.98 29.04 L 42.00 29.04 C 42.07 29.59 42.22 30.67 42.29 31.22 C 42.30 32.93 42.32 36.35 42.32 38.06 L 41.15 38.05 C 41.01 35.05 41.01 32.04 40.98 29.04 Z" />
</g>
<g id="#fcfce3ff">
<path fill="#fcfce3" opacity="1.00" d=" M 23.02 29.04 C 29.01 28.95 34.99 28.99 40.98 29.04 C 41.01 32.04 41.01 35.05 41.15 38.05 C 35.05 38.01 28.95 38.01 22.85 38.04 C 22.99 35.04 22.98 32.04 23.02 29.04 Z" />
</g>
<g id="#cacfddff">
<path fill="#cacfdd" opacity="1.00" d=" M 45.06 28.96 C 49.28 28.90 49.28 35.56 46.83 37.86 C 42.34 39.33 45.78 31.51 45.06 28.96 Z" />
</g>
<g id="#b8bcc6ff">
<path fill="#b8bcc6" opacity="1.00" d=" M 60.36 28.71 C 61.39 31.80 61.08 35.13 60.21 38.23 C 60.14 35.06 60.27 31.88 60.36 28.71 Z" />
</g>
<g id="#46474eff">
<path fill="#46474e" opacity="1.00" d=" M 21.29 42.78 C 19.00 41.88 21.35 39.61 21.68 38.06 C 28.46 39.44 35.54 39.44 42.32 38.06 C 42.65 39.61 44.95 41.83 42.76 42.79 C 35.64 43.44 28.43 43.02 21.29 42.78 Z" />
</g>
<g id="#8f908bff">
<path fill="#8f908b" opacity="1.00" d=" M 21.68 38.06 L 22.85 38.04 C 28.95 38.01 35.05 38.01 41.15 38.05 L 42.32 38.06 C 35.54 39.44 28.46 39.44 21.68 38.06 Z" />
</g>
<g id="#2c2e34ff">
<path fill="#2c2e34" opacity="1.00" d=" M 9.31 41.08 C 12.20 40.95 15.09 40.86 17.98 40.73 C 18.45 41.74 18.91 42.76 19.37 43.78 C 26.22 44.24 33.11 44.06 39.97 43.96 C 44.35 46.58 44.66 42.94 46.00 40.85 C 48.63 41.09 51.24 41.39 53.87 41.63 L 54.74 41.71 C 55.46 41.80 56.89 41.99 57.60 42.09 C 56.09 45.86 62.05 44.37 62.97 41.91 C 62.97 42.62 62.96 44.04 62.96 44.75 C 62.77 45.09 62.38 45.77 62.18 46.11 C 42.06 45.96 21.94 45.91 1.82 46.09 C 1.63 45.76 1.24 45.08 1.04 44.75 C 1.04 44.04 1.03 42.62 1.03 41.91 C 2.85 46.08 6.66 42.11 9.31 41.08 Z" />
</g>
<g id="#121417ff">
<path fill="#121417" opacity="1.00" d=" M 1.04 44.75 C 1.24 45.08 1.63 45.76 1.82 46.09 C 1.97 46.53 2.26 47.40 2.41 47.83 C 22.13 48.12 41.87 48.13 61.58 47.83 C 61.73 47.40 62.03 46.54 62.18 46.11 C 62.38 45.77 62.77 45.09 62.96 44.75 L 63.04 45.79 C 62.90 47.24 63.22 49.00 61.74 49.87 C 41.92 50.10 22.08 50.10 2.26 49.87 C 0.78 49.00 1.10 47.24 0.96 45.79 L 1.04 44.75 Z" />
</g>
<g id="#050607f9">
<path fill="#050607" opacity="0.98" d=" M 0.00 46.23 L 0.96 45.79 C 1.10 47.24 0.78 49.00 2.26 49.87 C 22.08 50.10 41.92 50.10 61.74 49.87 C 63.22 49.00 62.90 47.24 63.04 45.79 L 64.00 46.23 L 64.00 50.23 C 47.07 51.95 29.99 50.53 13.00 51.04 C 8.71 50.63 4.11 51.86 0.00 50.15 L 0.00 46.23 Z" />
</g>
<g id="#212227ff">
<path fill="#212227" opacity="1.00" d=" M 1.82 46.09 C 21.94 45.91 42.06 45.96 62.18 46.11 C 62.03 46.54 61.73 47.40 61.58 47.83 C 41.87 48.13 22.13 48.12 2.41 47.83 C 2.26 47.40 1.97 46.53 1.82 46.09 Z" />
</g>
</svg>
