<?xml version="1.0" encoding="UTF-8" ?>
<!DOCTYPE svg PUBLIC "-//W3C//DTD SVG 1.1//EN" "http://www.w3.org/Graphics/SVG/1.1/DTD/svg11.dtd">
<svg width="64pt" height="64pt" viewBox="0 0 64 64" version="1.1" xmlns="http://www.w3.org/2000/svg">
<g id="#a4acbcff">
<path fill="#a4acbc" opacity="1.00" d=" M 50.11 16.94 C 54.78 12.65 52.97 18.27 55.38 19.00 L 55.13 19.88 C 52.75 22.05 49.85 23.39 46.91 24.60 C 45.41 24.42 43.84 24.08 42.51 25.01 C 41.02 24.73 39.57 24.35 38.10 23.98 C 37.80 23.01 37.48 22.05 37.16 21.08 C 41.86 21.13 45.29 17.03 50.11 16.94 Z" />
<path fill="#a4acbc" opacity="1.00" d=" M 17.78 21.20 C 20.19 21.10 22.59 21.01 25.00 20.98 C 25.25 21.24 25.75 21.75 26.01 22.01 C 23.25 21.97 20.51 21.57 17.78 21.20 Z" />
<path fill="#a4acbc" opacity="1.00" d=" M 11.00 26.88 C 13.74 33.38 23.59 29.03 25.94 35.70 C 24.55 36.04 23.11 36.20 21.80 36.80 C 19.73 42.32 21.78 50.30 20.77 56.69 C 20.33 56.86 19.44 57.21 19.00 57.39 C 17.65 57.20 16.30 57.02 14.94 56.86 C 16.76 49.02 13.72 41.19 15.57 33.28 C 14.10 32.78 12.62 32.34 11.18 31.77 C 10.98 30.15 11.01 28.51 11.00 26.88 Z" />
<path fill="#a4acbc" opacity="1.00" d=" M 50.54 29.37 L 51.50 29.42 C 52.64 30.03 53.77 30.68 54.93 31.29 C 54.99 39.45 55.10 47.62 54.94 55.79 C 54.68 56.33 54.14 57.43 53.88 57.97 C 52.54 58.01 51.20 58.02 49.86 57.97 C 48.63 52.42 49.07 46.70 49.02 41.07 C 49.45 41.22 50.33 41.53 50.77 41.69 C 51.94 38.90 54.06 36.28 54.00 33.14 C 52.89 31.85 51.61 30.70 50.54 29.37 Z" />
<path fill="#a4acbc" opacity="1.00" d=" M 21.98 38.06 C 30.60 37.89 39.23 37.92 47.85 38.05 L 47.87 38.96 C 39.60 39.15 31.32 38.70 23.05 39.10 C 22.97 40.65 22.80 43.76 22.72 45.31 C 21.89 42.99 21.64 40.57 21.98 38.06 Z" />
<path fill="#a4acbc" opacity="1.00" d=" M 45.03 49.96 C 47.52 47.57 46.74 42.84 47.88 39.82 C 48.00 45.83 48.00 51.85 48.07 57.86 L 47.21 57.80 C 39.17 57.18 30.65 55.72 22.71 57.76 L 21.82 57.79 C 22.30 53.94 22.96 50.11 22.99 46.21 C 23.95 45.45 24.91 44.67 25.87 43.90 C 25.92 45.66 26.02 49.19 26.07 50.95 C 28.71 51.03 31.35 51.05 33.99 51.02 C 34.46 51.01 35.40 50.99 35.87 50.99 C 36.36 50.98 37.34 50.97 37.83 50.96 C 39.45 50.81 42.67 50.50 44.29 50.34 L 45.03 49.96 M 22.99 55.01 L 23.03 55.95 C 31.02 56.16 39.02 55.96 47.01 55.99 L 46.97 55.05 C 38.98 54.84 30.98 55.03 22.99 55.01 Z" />
<path fill="#a4acbc" opacity="1.00" d=" M 44.01 40.99 C 46.46 42.06 44.11 47.61 45.03 49.96 L 44.29 50.34 C 44.10 47.49 43.93 44.63 43.75 41.78 L 44.01 40.99 Z" />
<path fill="#a4acbc" opacity="1.00" d=" M 11.13 47.21 C 11.67 45.71 12.11 44.16 12.86 42.74 C 12.96 44.43 12.96 46.12 12.89 47.80 C 12.45 49.15 11.58 51.85 11.14 53.20 C 11.11 51.20 11.06 49.20 11.13 47.21 Z" />
<path fill="#a4acbc" opacity="1.00" d=" M 26.85 43.57 L 27.61 44.05 C 28.01 46.02 27.98 49.69 30.97 49.02 C 34.14 49.95 32.66 45.97 33.13 44.16 L 33.77 43.81 C 33.85 44.34 34.01 45.40 34.09 45.92 C 34.05 47.30 34.02 48.67 33.98 50.04 C 32.27 50.00 28.84 49.94 27.12 49.90 C 27.06 48.32 26.92 45.15 26.85 43.57 Z" />
<path fill="#a4acbc" opacity="1.00" d=" M 37.00 46.02 C 38.64 45.51 42.47 42.20 41.98 45.80 C 39.59 46.51 37.58 48.26 37.83 50.96 C 37.34 50.97 36.36 50.98 35.87 50.99 C 36.19 49.32 36.59 47.67 37.00 46.02 Z" />
</g>
<g id="#0c0c0dff">
<path fill="#0c0c0d" opacity="1.00" d=" M 55.38 19.00 C 53.77 16.14 57.18 17.08 58.90 17.06 C 59.27 19.37 59.62 21.68 59.96 23.99 C 58.66 24.05 57.37 23.99 56.08 23.81 C 55.95 22.20 55.80 20.57 55.38 19.00 Z" />
<path fill="#0c0c0d" opacity="1.00" d=" M 6.40 25.87 C 6.90 26.69 7.39 27.52 7.90 28.34 C 6.72 31.89 7.36 33.74 9.81 33.89 L 9.86 34.89 L 8.96 34.98 C 6.09 34.80 0.40 36.62 3.98 29.99 C 3.55 27.93 6.21 27.78 6.40 25.87 Z" />
<path fill="#0c0c0d" opacity="1.00" d=" M 55.95 30.99 C 57.29 30.94 58.63 30.95 59.97 31.04 C 59.89 38.95 60.32 46.88 59.87 54.78 C 58.54 55.13 57.21 55.50 55.88 55.86 C 56.17 47.57 55.95 39.28 55.95 30.99 M 57.28 36.20 C 56.26 37.33 57.11 40.11 58.79 39.72 C 59.67 38.59 59.33 35.08 57.28 36.20 Z" />
<path fill="#0c0c0d" opacity="1.00" d=" M 43.26 43.01 C 43.39 42.71 43.63 42.09 43.75 41.78 C 43.93 44.63 44.10 47.49 44.29 50.34 C 42.67 50.50 39.45 50.81 37.83 50.96 C 37.58 48.26 39.59 46.51 41.98 45.80 C 42.83 45.21 43.26 44.28 43.26 43.01 Z" />
<path fill="#0c0c0d" opacity="1.00" d=" M 34.09 45.92 C 34.81 45.95 36.27 46.00 37.00 46.02 C 36.59 47.67 36.19 49.32 35.87 50.99 C 35.40 50.99 34.46 51.01 33.99 51.02 L 33.98 50.04 C 34.02 48.67 34.05 47.30 34.09 45.92 Z" />
<path fill="#0c0c0d" opacity="1.00" d=" M 13.49 58.37 C 15.29 58.14 17.10 57.99 18.91 57.88 C 19.64 57.85 21.09 57.81 21.82 57.79 L 22.71 57.76 C 30.87 58.21 39.05 57.97 47.21 57.80 L 48.07 57.86 C 48.52 57.89 49.41 57.95 49.86 57.97 C 51.20 58.02 52.54 58.01 53.88 57.97 C 53.61 58.45 53.08 59.40 52.81 59.87 C 43.55 60.34 34.26 59.86 24.99 60.03 C 21.30 59.34 16.62 61.12 13.49 58.37 Z" />
</g>
<g id="#353941fc">
<path fill="#353941" opacity="1.00" d=" M 55.38 19.00 C 55.80 20.57 55.95 22.20 56.08 23.81 C 53.67 24.96 51.36 26.37 51.50 29.42 L 50.54 29.37 C 47.84 27.96 45.18 26.47 42.51 25.01 C 43.84 24.08 45.41 24.42 46.91 24.60 C 50.22 25.17 54.75 23.77 55.13 19.88 L 55.38 19.00 Z" />
<path fill="#353941" opacity="1.00" d=" M 6.40 25.87 C 5.64 23.78 5.41 20.69 7.98 19.83 C 7.96 22.67 7.93 25.50 7.90 28.34 C 7.39 27.52 6.90 26.69 6.40 25.87 Z" />
<path fill="#353941" opacity="1.00" d=" M 16.88 21.10 C 17.91 18.76 22.52 20.46 24.97 20.04 L 25.00 20.98 C 22.59 21.01 20.19 21.10 17.78 21.20 L 16.88 21.10 Z" />
<path fill="#353941" opacity="1.00" d=" M 29.64 22.33 C 30.00 19.80 36.04 19.95 37.16 21.08 C 37.48 22.05 37.80 23.01 38.10 23.98 C 35.29 23.42 32.44 23.00 29.64 22.33 Z" />
<path fill="#353941" opacity="1.00" d=" M 9.81 33.89 C 11.65 32.75 14.77 34.60 14.06 36.96 C 15.87 46.96 12.26 40.90 12.68 37.81 C 10.51 40.48 10.96 43.95 11.13 47.21 C 11.06 49.20 11.11 51.20 11.14 53.20 C 11.03 54.50 10.94 55.80 10.86 57.10 C 8.90 50.38 10.59 42.17 9.86 34.89 L 9.81 33.89 Z" />
<path fill="#353941" opacity="1.00" d=" M 57.28 36.20 C 59.33 35.08 59.67 38.59 58.79 39.72 C 57.11 40.11 56.26 37.33 57.28 36.20 Z" />
<path fill="#353941" opacity="1.00" d=" M 27.13 43.02 C 31.53 40.90 38.20 41.98 43.26 43.01 C 43.26 44.28 42.83 45.21 41.98 45.80 C 42.47 42.20 38.64 45.51 37.00 46.02 C 36.27 46.00 34.81 45.95 34.09 45.92 C 34.01 45.40 33.85 44.34 33.77 43.81 C 31.95 42.81 29.74 42.55 27.13 43.02 Z" />
<path fill="#353941" opacity="1.00" d=" M 25.87 43.90 L 26.85 43.57 C 26.92 45.15 27.06 48.32 27.12 49.90 C 28.84 49.94 32.27 50.00 33.98 50.04 L 33.99 51.02 C 31.35 51.05 28.71 51.03 26.07 50.95 C 26.02 49.19 25.92 45.66 25.87 43.90 Z" />
<path fill="#353941" opacity="1.00" d=" M 12.01 57.91 C 12.25 57.69 12.72 57.25 12.96 57.03 C 13.46 56.99 14.45 56.90 14.94 56.86 C 16.30 57.02 17.65 57.20 19.00 57.39 L 18.91 57.88 C 17.10 57.99 15.29 58.14 13.49 58.37 L 12.50 58.26 L 12.01 57.91 Z" />
</g>
<g id="#d8dce3ff">
<path fill="#d8dce3" opacity="1.00" d=" M 7.98 19.83 L 8.95 20.08 C 8.72 22.77 12.17 28.05 7.90 28.34 C 7.93 25.50 7.96 22.67 7.98 19.83 Z" />
<path fill="#d8dce3" opacity="1.00" d=" M 11.04 22.13 C 12.89 21.36 14.85 20.70 16.88 21.10 L 17.78 21.20 C 20.51 21.57 23.25 21.97 26.01 22.01 C 27.23 21.99 28.44 22.10 29.64 22.33 C 32.44 23.00 35.29 23.42 38.10 23.98 C 39.57 24.35 41.02 24.73 42.51 25.01 C 45.18 26.47 47.84 27.96 50.54 29.37 C 51.61 30.70 52.89 31.85 54.00 33.14 C 54.06 36.28 51.94 38.90 50.77 41.69 C 50.33 41.53 49.45 41.22 49.02 41.07 C 49.01 39.73 48.96 38.39 48.87 37.05 C 39.85 36.89 30.82 37.10 21.80 36.80 C 23.11 36.20 24.55 36.04 25.94 35.70 C 23.59 29.03 13.74 33.38 11.00 26.88 C 10.98 25.29 11.01 23.71 11.04 22.13 Z" />
<path fill="#d8dce3" opacity="1.00" d=" M 23.05 39.10 C 31.32 38.70 39.60 39.15 47.87 38.96 L 47.88 39.82 C 46.74 42.84 47.52 47.57 45.03 49.96 C 44.11 47.61 46.46 42.06 44.01 40.99 C 38.08 40.96 32.12 40.78 26.19 41.10 C 26.11 41.80 25.95 43.20 25.87 43.90 C 24.91 44.67 23.95 45.45 22.99 46.21 L 22.72 45.31 C 22.80 43.76 22.97 40.65 23.05 39.10 Z" />
<path fill="#d8dce3" opacity="1.00" d=" M 27.61 44.05 C 29.45 44.11 31.29 44.12 33.13 44.16 C 32.66 45.97 34.14 49.95 30.97 49.02 C 27.98 49.69 28.01 46.02 27.61 44.05 Z" />
<path fill="#d8dce3" opacity="1.00" d=" M 11.14 53.20 C 11.58 51.85 12.45 49.15 12.89 47.80 C 12.93 50.88 12.96 53.95 12.96 57.03 C 12.72 57.25 12.25 57.69 12.01 57.91 C 11.72 57.71 11.15 57.30 10.86 57.10 C 10.94 55.80 11.03 54.50 11.14 53.20 Z" />
<path fill="#d8dce3" opacity="1.00" d=" M 22.99 55.01 C 30.98 55.03 38.98 54.84 46.97 55.05 L 47.01 55.99 C 39.02 55.96 31.02 56.16 23.03 55.95 L 22.99 55.01 Z" />
</g>
<g id="#5c6474ff">
<path fill="#5c6474" opacity="1.00" d=" M 8.95 20.08 C 10.77 19.57 11.47 20.25 11.04 22.13 C 11.01 23.71 10.98 25.29 11.00 26.88 C 11.01 28.51 10.98 30.15 11.18 31.77 C 12.62 32.34 14.10 32.78 15.57 33.28 C 13.72 41.19 16.76 49.02 14.94 56.86 C 14.45 56.90 13.46 56.99 12.96 57.03 C 12.96 53.95 12.93 50.88 12.89 47.80 C 12.96 46.12 12.96 44.43 12.86 42.74 C 12.11 44.16 11.67 45.71 11.13 47.21 C 10.96 43.95 10.51 40.48 12.68 37.81 C 12.26 40.90 15.87 46.96 14.06 36.96 C 14.77 34.60 11.65 32.75 9.81 33.89 C 7.36 33.74 6.72 31.89 7.90 28.34 C 12.17 28.05 8.72 22.77 8.95 20.08 Z" />
<path fill="#5c6474" opacity="1.00" d=" M 46.91 24.60 C 49.85 23.39 52.75 22.05 55.13 19.88 C 54.75 23.77 50.22 25.17 46.91 24.60 Z" />
<path fill="#5c6474" opacity="1.00" d=" M 54.93 31.29 L 55.95 30.99 C 55.95 39.28 56.17 47.57 55.88 55.86 L 54.94 55.79 C 55.10 47.62 54.99 39.45 54.93 31.29 Z" />
<path fill="#5c6474" opacity="1.00" d=" M 20.77 56.69 C 21.78 50.30 19.73 42.32 21.80 36.80 C 30.82 37.10 39.85 36.89 48.87 37.05 C 48.96 38.39 49.01 39.73 49.02 41.07 C 49.07 46.70 48.63 52.42 49.86 57.97 C 49.41 57.95 48.52 57.89 48.07 57.86 C 48.00 51.85 48.00 45.83 47.88 39.82 L 47.87 38.96 L 47.85 38.05 C 39.23 37.92 30.60 37.89 21.98 38.06 C 21.64 40.57 21.89 42.99 22.72 45.31 L 22.99 46.21 C 22.96 50.11 22.30 53.94 21.82 57.79 C 21.09 57.81 19.64 57.85 18.91 57.88 L 19.00 57.39 C 19.44 57.21 20.33 56.86 20.77 56.69 Z" />
<path fill="#5c6474" opacity="1.00" d=" M 26.19 41.10 C 32.12 40.78 38.08 40.96 44.01 40.99 L 43.75 41.78 C 43.63 42.09 43.39 42.71 43.26 43.01 C 38.20 41.98 31.53 40.90 27.13 43.02 L 26.85 43.57 L 25.87 43.90 C 25.95 43.20 26.11 41.80 26.19 41.10 Z" />
<path fill="#5c6474" opacity="1.00" d=" M 27.13 43.02 C 29.74 42.55 31.95 42.81 33.77 43.81 L 33.13 44.16 C 31.29 44.12 29.45 44.11 27.61 44.05 L 26.85 43.57 L 27.13 43.02 Z" />
<path fill="#5c6474" opacity="1.00" d=" M 22.71 57.76 C 30.65 55.72 39.17 57.18 47.21 57.80 C 39.05 57.97 30.87 58.21 22.71 57.76 Z" />
</g>
<g id="#02030441">
<path fill="#020304" opacity="0.25" d=" M 8.96 34.98 L 9.86 34.89 C 10.59 42.17 8.90 50.38 10.86 57.10 C 11.15 57.30 11.72 57.71 12.01 57.91 L 12.50 58.26 C 13.98 60.32 15.04 63.51 18.99 61.00 C 30.54 60.96 42.10 61.26 53.65 60.78 C 54.01 60.36 54.75 59.52 55.12 59.09 C 55.59 59.06 56.54 59.00 57.01 58.97 C 57.95 62.69 51.37 61.41 50.01 61.96 C 35.73 61.43 21.18 63.36 7.05 60.84 C 5.93 57.28 13.95 60.20 8.99 53.99 C 9.09 47.65 8.94 41.32 8.96 34.98 Z" />
</g>
<g id="#0e0f11c1">
<path fill="#0e0f11" opacity="0.76" d=" M 53.88 57.97 C 54.14 57.43 54.68 56.33 54.94 55.79 L 55.88 55.86 C 55.63 56.94 55.38 58.02 55.12 59.09 C 54.75 59.52 54.01 60.36 53.65 60.78 C 42.10 61.26 30.54 60.96 18.99 61.00 C 15.04 63.51 13.98 60.32 12.50 58.26 L 13.49 58.37 C 16.62 61.12 21.30 59.34 24.99 60.03 C 34.26 59.86 43.55 60.34 52.81 59.87 C 53.08 59.40 53.61 58.45 53.88 57.97 Z" />
</g>
</svg>
