<?xml version="1.0" encoding="UTF-8" ?>
<!DOCTYPE svg PUBLIC "-//W3C//DTD SVG 1.1//EN" "http://www.w3.org/Graphics/SVG/1.1/DTD/svg11.dtd">
<svg width="64pt" height="64pt" viewBox="0 0 64 64" version="1.1" xmlns="http://www.w3.org/2000/svg">
<g id="#1a110ef9">
<path fill="#1a110e" opacity="0.98" d=" M 27.01 3.02 C 29.52 3.26 34.52 3.76 37.02 4.01 C 33.67 3.99 30.33 3.98 26.98 4.01 L 27.01 3.02 Z" />
<path fill="#1a110e" opacity="0.98" d=" M 13.10 20.77 C 16.33 14.30 23.64 9.70 31.00 9.99 C 44.98 8.02 58.07 23.49 53.83 36.83 C 49.66 34.94 44.11 33.99 41.01 31.01 C 39.79 26.05 43.61 18.74 38.72 15.19 C 34.24 15.07 29.70 14.55 25.24 15.21 C 21.77 17.27 23.30 21.62 22.99 25.02 C 19.80 23.35 16.37 22.25 13.10 20.77 Z" />
<path fill="#1a110e" opacity="0.98" d=" M 25.18 20.12 C 29.74 19.72 34.33 20.01 38.90 20.04 C 39.14 23.34 39.00 26.64 39.04 29.94 L 39.00 31.03 C 34.28 29.62 29.83 27.33 25.13 25.77 C 25.03 25.28 24.82 24.30 24.72 23.81 C 24.85 22.58 25.00 21.35 25.18 20.12 Z" />
<path fill="#1a110e" opacity="0.98" d=" M 2.99 36.99 C 3.25 34.49 3.76 29.48 4.01 26.98 C 3.98 30.32 3.99 33.66 3.97 37.01 L 2.99 36.99 Z" />
<path fill="#1a110e" opacity="0.98" d=" M 9.94 27.09 C 14.35 28.57 18.74 30.13 22.99 32.03 C 23.17 36.92 22.56 41.88 23.22 46.76 C 24.90 48.60 26.72 50.88 29.99 49.02 C 32.77 47.86 37.48 50.58 39.79 47.81 C 42.36 45.71 40.53 41.80 41.08 38.91 C 44.24 40.50 49.38 40.84 50.94 43.99 C 44.90 54.63 28.70 57.81 18.99 50.01 C 11.02 45.42 9.39 35.46 9.94 27.09 Z" />
<path fill="#1a110e" opacity="0.98" d=" M 60.00 26.98 L 60.99 27.01 C 60.75 29.51 60.27 34.51 60.03 37.01 C 59.99 33.67 60.00 30.32 60.00 26.98 Z" />
<path fill="#1a110e" opacity="0.98" d=" M 24.97 33.05 C 29.81 34.05 34.29 36.39 38.84 38.25 L 39.10 39.08 C 39.06 39.80 38.99 41.25 38.96 41.97 C 34.31 41.99 29.67 42.01 25.03 41.99 C 24.90 39.01 24.99 36.03 24.97 33.05 Z" />
<path fill="#1a110e" opacity="0.98" d=" M 26.99 60.02 C 30.33 59.99 33.67 60.00 37.01 60.03 L 36.99 61.00 C 34.49 60.76 29.49 60.27 26.99 60.02 Z" />
</g>
<g id="#ca3f18ff">
<path fill="#ca3f18" opacity="1.00" d=" M 11.72 11.72 C 16.51 8.68 21.14 4.81 26.98 4.01 C 30.33 3.98 33.67 3.99 37.02 4.01 C 42.86 4.81 47.49 8.68 52.28 11.72 C 55.50 16.36 58.74 21.39 60.00 26.98 C 60.00 30.32 59.99 33.67 60.03 37.01 C 60.39 41.86 57.27 45.95 54.78 49.79 C 50.15 54.78 44.29 60.19 37.01 60.03 C 33.67 60.00 30.33 59.99 26.99 60.02 C 17.32 59.84 9.71 51.73 5.45 43.63 C 4.49 41.55 3.77 39.33 3.97 37.01 C 3.99 33.66 3.98 30.32 4.01 26.98 C 5.26 21.39 8.50 16.36 11.72 11.72 M 28.34 6.47 C 18.95 7.63 9.69 14.81 7.97 24.12 C 11.25 21.67 11.65 16.44 15.58 14.52 C 24.59 6.60 39.37 6.74 48.42 14.52 C 52.35 16.44 52.75 21.67 56.03 24.12 C 53.75 12.45 40.04 4.06 28.34 6.47 M 13.10 20.77 C 16.37 22.25 19.80 23.35 22.99 25.02 C 22.64 27.61 24.54 24.56 24.72 23.81 C 24.82 24.30 25.03 25.28 25.13 25.77 C 29.83 27.33 34.28 29.62 39.00 31.03 L 39.04 29.94 C 39.53 30.21 40.52 30.74 41.01 31.01 C 44.11 33.99 49.66 34.94 53.83 36.83 C 58.07 23.49 44.98 8.02 31.00 9.99 C 23.64 9.70 16.33 14.30 13.10 20.77 M 9.94 27.09 C 9.39 35.46 11.02 45.42 18.99 50.01 C 28.70 57.81 44.90 54.63 50.94 43.99 C 49.38 40.84 44.24 40.50 41.08 38.91 C 40.58 38.96 39.59 39.04 39.10 39.08 L 38.84 38.25 C 34.29 36.39 29.81 34.05 24.97 33.05 C 24.48 32.79 23.48 32.28 22.99 32.03 C 18.74 30.13 14.35 28.57 9.94 27.09 Z" />
<path fill="#ca3f18" opacity="1.00" d=" M 25.03 41.99 C 29.67 42.01 34.31 41.99 38.96 41.97 L 38.88 42.91 C 34.29 43.25 29.69 43.00 25.10 42.96 L 25.03 41.99 Z" />
</g>
<g id="#ecdad5ff">
<path fill="#ecdad5" opacity="1.00" d=" M 28.34 6.47 C 40.04 4.06 53.75 12.45 56.03 24.12 C 52.75 21.67 52.35 16.44 48.42 14.52 C 39.37 6.74 24.59 6.60 15.58 14.52 C 11.65 16.44 11.25 21.67 7.97 24.12 C 9.69 14.81 18.95 7.63 28.34 6.47 Z" />
<path fill="#ecdad5" opacity="1.00" d=" M 25.24 15.21 C 29.70 14.55 34.24 15.07 38.72 15.19 C 43.61 18.74 39.79 26.05 41.01 31.01 C 40.52 30.74 39.53 30.21 39.04 29.94 C 39.00 26.64 39.14 23.34 38.90 20.04 C 34.33 20.01 29.74 19.72 25.18 20.12 C 25.00 21.35 24.85 22.58 24.72 23.81 C 24.54 24.56 22.64 27.61 22.99 25.02 C 23.30 21.62 21.77 17.27 25.24 15.21 Z" />
<path fill="#ecdad5" opacity="1.00" d=" M 22.99 32.03 C 23.48 32.28 24.48 32.79 24.97 33.05 C 24.99 36.03 24.90 39.01 25.03 41.99 L 25.10 42.96 C 29.69 43.00 34.29 43.25 38.88 42.91 L 38.96 41.97 C 38.99 41.25 39.06 39.80 39.10 39.08 C 39.59 39.04 40.58 38.96 41.08 38.91 C 40.53 41.80 42.36 45.71 39.79 47.81 C 37.48 50.58 32.77 47.86 29.99 49.02 C 26.72 50.88 24.90 48.60 23.22 46.76 C 22.56 41.88 23.17 36.92 22.99 32.03 Z" />
</g>
</svg>
