<?xml version="1.0" encoding="UTF-8" ?>
<!DOCTYPE svg PUBLIC "-//W3C//DTD SVG 1.1//EN" "http://www.w3.org/Graphics/SVG/1.1/DTD/svg11.dtd">
<svg width="64pt" height="64pt" viewBox="0 0 64 64" version="1.1" xmlns="http://www.w3.org/2000/svg">
<g id="#ff8216ff">
<path fill="#ff8216" opacity="1.00" d=" M 12.50 3.66 C 24.31 3.00 36.20 3.56 48.04 3.37 C 54.49 2.84 60.71 8.42 60.65 14.93 C 60.72 26.28 60.68 37.63 60.66 48.98 C 60.86 55.18 55.24 60.80 49.07 60.70 C 37.68 60.73 26.30 60.73 14.91 60.70 C 8.77 60.79 3.17 55.20 3.35 49.04 C 3.31 37.68 3.28 26.32 3.35 14.96 C 3.31 9.66 7.42 4.86 12.50 3.66 M 10.99 8.08 C 8.79 9.41 7.54 11.74 6.54 14.02 C 5.17 16.98 6.55 20.69 6.46 23.91 C 6.44 27.42 9.65 29.66 12.87 29.92 C 12.72 36.31 12.76 42.72 12.85 49.11 C 12.68 51.91 15.27 54.34 18.00 54.33 C 23.01 54.45 28.04 54.45 33.06 54.33 C 35.53 54.36 38.14 52.43 38.31 49.86 C 38.50 47.17 38.38 44.48 38.37 41.79 C 37.31 41.75 36.25 41.72 35.20 41.68 C 35.20 42.77 35.20 43.86 35.20 44.95 C 28.77 44.91 22.34 45.02 15.91 44.88 C 16.03 38.89 16.23 32.90 16.07 26.91 C 17.76 26.61 19.39 26.05 20.98 25.41 C 21.49 25.50 22.50 25.68 23.01 25.78 C 18.37 26.06 19.06 31.69 19.39 34.92 C 19.75 39.70 28.29 39.69 28.61 34.89 C 28.94 31.69 29.63 26.04 25.00 25.80 C 25.54 25.66 26.61 25.37 27.15 25.23 C 28.14 25.81 29.13 26.40 30.12 26.99 C 30.84 26.11 31.56 25.22 32.28 24.33 C 35.39 24.29 38.50 24.31 41.61 24.40 C 42.18 25.07 42.74 25.74 43.31 26.41 C 43.76 30.68 44.46 34.92 44.83 39.20 L 44.84 38.59 C 45.65 38.59 47.27 38.57 48.08 38.56 C 48.04 37.25 47.99 35.93 47.94 34.62 C 49.72 34.63 51.50 34.55 53.28 34.56 C 53.27 33.93 53.23 32.68 53.21 32.05 C 51.49 32.05 49.78 32.04 48.07 32.04 C 48.09 31.15 48.14 29.37 48.16 28.47 C 50.30 28.50 52.44 28.51 54.58 28.53 C 54.55 27.96 54.50 26.81 54.48 26.23 C 55.18 26.33 56.58 26.53 57.28 26.62 C 57.61 22.69 57.85 18.75 58.17 14.82 C 58.00 14.64 57.66 14.28 57.49 14.10 C 56.11 9.99 52.45 6.52 47.94 6.52 C 38.96 6.32 29.98 6.53 20.99 6.43 C 17.63 6.49 13.94 6.10 10.99 8.08 M 31.79 25.67 C 31.81 29.94 31.95 34.21 31.92 38.48 C 33.03 38.53 34.14 38.57 35.25 38.60 C 35.22 37.60 35.15 35.59 35.12 34.59 C 36.87 34.60 38.63 34.55 40.38 34.57 C 40.40 33.95 40.45 32.70 40.47 32.08 C 38.72 31.99 36.97 32.00 35.22 31.91 C 35.24 30.76 35.26 29.61 35.28 28.46 C 37.44 28.49 39.59 28.51 41.75 28.53 C 41.72 27.80 41.66 26.36 41.63 25.64 C 38.35 25.64 35.07 25.65 31.79 25.67 Z" />
<path fill="#ff8216" opacity="1.00" d=" M 22.72 29.00 C 23.42 29.12 24.84 29.36 25.54 29.47 C 25.60 31.79 25.98 34.35 23.99 36.01 C 21.83 34.21 22.45 31.46 22.72 29.00 Z" />
<path fill="#ff8216" opacity="1.00" d=" M 24.28 51.61 C 22.40 50.57 23.16 47.68 25.13 47.32 C 26.93 46.82 27.71 48.92 28.59 50.01 C 27.47 50.92 25.81 53.07 24.28 51.61 Z" />
</g>
<g id="#ffffffff">
<path fill="#ffffff" opacity="1.00" d=" M 10.99 8.08 C 13.94 6.10 17.63 6.49 20.99 6.43 C 29.98 6.53 38.96 6.32 47.94 6.52 C 52.45 6.52 56.11 9.99 57.49 14.10 C 55.01 11.73 52.65 8.46 48.88 8.36 C 40.61 7.95 32.32 8.36 24.04 8.19 C 20.35 8.27 16.57 7.85 12.96 8.77 C 10.37 9.87 8.49 12.08 6.54 14.02 C 7.54 11.74 8.79 9.41 10.99 8.08 Z" />
<path fill="#ffffff" opacity="1.00" d=" M 13.27 16.24 C 14.82 12.37 19.60 13.02 22.96 12.98 C 27.10 13.22 31.41 12.43 35.43 13.61 C 38.85 15.09 38.21 19.29 38.48 22.31 C 37.69 22.33 36.13 22.38 35.34 22.40 C 35.27 21.33 35.20 20.25 35.12 19.18 C 28.71 19.20 22.29 19.18 15.87 19.21 C 15.92 21.78 15.95 24.35 16.07 26.91 C 16.23 32.90 16.03 38.89 15.91 44.88 C 22.34 45.02 28.77 44.91 35.20 44.95 C 35.20 43.86 35.20 42.77 35.20 41.68 C 36.25 41.72 37.31 41.75 38.37 41.79 C 38.38 44.48 38.50 47.17 38.31 49.86 C 38.14 52.43 35.53 54.36 33.06 54.33 C 28.04 54.45 23.01 54.45 18.00 54.33 C 15.27 54.34 12.68 51.91 12.85 49.11 C 12.76 42.72 12.72 36.31 12.87 29.92 C 13.20 25.37 12.43 20.74 13.27 16.24 M 24.28 51.61 C 25.81 53.07 27.47 50.92 28.59 50.01 C 27.71 48.92 26.93 46.82 25.13 47.32 C 23.16 47.68 22.40 50.57 24.28 51.61 Z" />
<path fill="#ffffff" opacity="1.00" d=" M 19.39 34.92 C 19.06 31.69 18.37 26.06 23.01 25.78 C 23.67 25.79 24.34 25.80 25.00 25.80 C 29.63 26.04 28.94 31.69 28.61 34.89 C 28.29 39.69 19.75 39.70 19.39 34.92 M 22.72 29.00 C 22.45 31.46 21.83 34.21 23.99 36.01 C 25.98 34.35 25.60 31.79 25.54 29.47 C 24.84 29.36 23.42 29.12 22.72 29.00 Z" />
<path fill="#ffffff" opacity="1.00" d=" M 31.79 25.67 C 35.07 25.65 38.35 25.64 41.63 25.64 C 41.66 26.36 41.72 27.80 41.75 28.53 C 39.59 28.51 37.44 28.49 35.28 28.46 C 35.26 29.61 35.24 30.76 35.22 31.91 C 36.97 32.00 38.72 31.99 40.47 32.08 C 40.45 32.70 40.40 33.95 40.38 34.57 C 38.63 34.55 36.87 34.60 35.12 34.59 C 35.15 35.59 35.22 37.60 35.25 38.60 C 34.14 38.57 33.03 38.53 31.92 38.48 C 31.95 34.21 31.81 29.94 31.79 25.67 Z" />
<path fill="#ffffff" opacity="1.00" d=" M 45.02 25.92 C 48.17 25.90 51.34 25.88 54.48 26.23 C 54.50 26.81 54.55 27.96 54.58 28.53 C 52.44 28.51 50.30 28.50 48.16 28.47 C 48.14 29.37 48.09 31.15 48.07 32.04 C 49.78 32.04 51.49 32.05 53.21 32.05 C 53.23 32.68 53.27 33.93 53.28 34.56 C 51.50 34.55 49.72 34.63 47.94 34.62 C 47.99 35.93 48.04 37.25 48.08 38.56 C 47.27 38.57 45.65 38.59 44.84 38.59 C 44.97 34.37 45.04 30.14 45.02 25.92 Z" />
</g>
<g id="#ffbb58ff">
<path fill="#ffbb58" opacity="1.00" d=" M 12.96 8.77 C 16.57 7.85 20.35 8.27 24.04 8.19 C 32.32 8.36 40.61 7.95 48.88 8.36 C 52.65 8.46 55.01 11.73 57.49 14.10 C 57.66 14.28 58.00 14.64 58.17 14.82 C 57.85 18.75 57.61 22.69 57.28 26.62 C 56.58 26.53 55.18 26.33 54.48 26.23 C 51.34 25.88 48.17 25.90 45.02 25.92 C 45.04 30.14 44.97 34.37 44.84 38.59 L 44.83 39.20 C 44.46 34.92 43.76 30.68 43.31 26.41 C 42.74 25.74 42.18 25.07 41.61 24.40 C 38.50 24.31 35.39 24.29 32.28 24.33 C 31.56 25.22 30.84 26.11 30.12 26.99 C 29.13 26.40 28.14 25.81 27.15 25.23 C 26.61 25.37 25.54 25.66 25.00 25.80 C 24.34 25.80 23.67 25.79 23.01 25.78 C 22.50 25.68 21.49 25.50 20.98 25.41 C 19.39 26.05 17.76 26.61 16.07 26.91 C 15.95 24.35 15.92 21.78 15.87 19.21 C 22.29 19.18 28.71 19.20 35.12 19.18 C 35.20 20.25 35.27 21.33 35.34 22.40 C 36.13 22.38 37.69 22.33 38.48 22.31 C 38.21 19.29 38.85 15.09 35.43 13.61 C 31.41 12.43 27.10 13.22 22.96 12.98 C 19.60 13.02 14.82 12.37 13.27 16.24 C 12.43 20.74 13.20 25.37 12.87 29.92 C 9.65 29.66 6.44 27.42 6.46 23.91 C 6.55 20.69 5.17 16.98 6.54 14.02 C 8.49 12.08 10.37 9.87 12.96 8.77 Z" />
</g>
</svg>
