<?xml version="1.0" encoding="UTF-8" ?>
<!DOCTYPE svg PUBLIC "-//W3C//DTD SVG 1.1//EN" "http://www.w3.org/Graphics/SVG/1.1/DTD/svg11.dtd">
<svg width="64pt" height="64pt" viewBox="0 0 64 64" version="1.1" xmlns="http://www.w3.org/2000/svg">
<g id="#0707077f">
<path fill="#070707" opacity="0.50" d=" M 20.00 7.08 C 20.09 4.23 23.07 1.56 25.98 1.97 C 36.22 2.47 47.15 0.82 56.98 3.00 C 46.36 3.05 35.73 2.82 25.11 3.06 C 24.78 3.25 24.13 3.64 23.80 3.83 C 23.10 4.43 22.45 5.08 21.85 5.79 C 21.60 6.06 21.11 6.60 20.87 6.87 L 20.00 7.08 Z" />
</g>
<g id="#c3c3c3fd">
<path fill="#c3c3c3" opacity="1.00" d=" M 23.80 3.83 C 24.13 3.64 24.78 3.25 25.11 3.06 C 35.73 2.82 46.36 3.05 56.98 3.00 C 57.66 3.67 58.33 4.34 58.99 5.02 C 59.02 16.35 59.03 27.67 58.98 39.00 L 58.02 39.00 C 57.87 28.35 58.21 17.70 57.93 7.05 C 57.97 5.71 56.49 5.08 55.72 4.19 C 45.08 3.73 34.44 4.18 23.80 3.83 Z" />
</g>
<g id="#ecececff">
<path fill="#ececec" opacity="1.00" d=" M 21.85 5.79 C 22.45 5.08 23.10 4.43 23.80 3.83 C 34.44 4.18 45.08 3.73 55.72 4.19 C 56.49 5.08 57.97 5.71 57.93 7.05 C 58.21 17.70 57.87 28.35 58.02 39.00 C 57.37 44.10 59.18 50.49 57.02 54.99 C 57.00 53.21 56.98 49.66 56.96 47.88 C 56.94 45.19 56.91 42.50 56.86 39.81 C 56.98 36.13 57.01 32.46 56.82 28.78 C 56.87 21.81 57.44 14.79 56.72 7.83 C 56.61 6.68 55.37 5.42 54.22 5.35 C 44.77 4.83 35.28 4.74 25.83 5.28 C 24.67 5.36 23.43 6.63 23.35 7.78 C 23.04 12.75 22.71 17.77 23.28 22.74 C 23.18 24.60 22.97 28.32 22.87 30.18 C 22.62 29.92 22.12 29.39 21.87 29.12 C 22.02 21.34 22.04 13.57 21.85 5.79 Z" />
</g>
<g id="#4b4b4bff">
<path fill="#4b4b4b" opacity="1.00" d=" M 23.35 7.78 C 23.43 6.63 24.67 5.36 25.83 5.28 C 35.20 5.96 44.91 7.00 54.22 5.35 C 55.37 5.42 56.61 6.68 56.72 7.83 C 56.34 10.92 55.99 14.03 55.91 17.15 C 55.45 16.78 54.54 16.04 54.08 15.67 C 54.00 15.03 53.86 13.74 53.78 13.10 C 44.55 12.98 35.31 12.77 26.09 13.09 C 26.05 14.79 25.96 18.18 25.92 19.87 C 25.33 20.66 24.73 21.44 24.11 22.20 C 23.78 17.42 24.66 12.47 23.35 7.78 M 36.00 9.99 C 30.19 11.68 49.81 11.68 44.00 9.99 C 44.00 9.50 43.99 8.53 43.99 8.04 C 41.38 8.55 34.82 5.54 36.00 9.99 Z" />
</g>
<g id="#3b3b3bff">
<path fill="#3b3b3b" opacity="1.00" d=" M 25.83 5.28 C 35.28 4.74 44.77 4.83 54.22 5.35 C 44.91 7.00 35.20 5.96 25.83 5.28 Z" />
</g>
<g id="#0000009e">
<path fill="#000000" opacity="0.62" d=" M 58.99 5.02 C 60.05 5.93 60.00 7.48 60.41 8.71 C 59.56 24.92 60.21 41.15 59.96 57.37 C 58.60 51.33 59.07 45.13 58.98 39.00 C 59.03 27.67 59.02 16.35 58.99 5.02 Z" />
</g>
<g id="#b6b7b7fc">
<path fill="#b6b7b7" opacity="1.00" d=" M 20.87 6.87 C 21.11 6.60 21.60 6.06 21.85 5.79 C 22.04 13.57 22.02 21.34 21.87 29.12 C 21.62 28.87 21.13 28.38 20.88 28.13 C 20.94 21.04 21.15 13.95 20.87 6.87 Z" />
</g>
<g id="#0000009f">
<path fill="#000000" opacity="0.62" d=" M 20.00 7.08 L 20.87 6.87 C 21.15 13.95 20.94 21.04 20.88 28.13 C 20.62 27.88 20.11 27.40 19.85 27.15 C 20.12 20.47 19.84 13.77 20.00 7.08 Z" />
</g>
<g id="#343434ff">
<path fill="#343434" opacity="1.00" d=" M 23.35 7.78 C 24.66 12.47 23.78 17.42 24.11 22.20 C 24.73 21.44 25.33 20.66 25.92 19.87 C 25.93 20.37 25.96 21.38 25.97 21.88 C 25.97 25.87 25.95 29.87 25.90 33.86 C 25.32 34.65 24.74 35.44 24.13 36.21 C 23.69 31.75 24.76 27.06 23.28 22.74 C 22.71 17.77 23.04 12.75 23.35 7.78 Z" />
</g>
<g id="#0b0b0bff">
<path fill="#0b0b0b" opacity="1.00" d=" M 36.00 9.99 C 34.82 5.54 41.38 8.55 43.99 8.04 C 43.99 8.53 44.00 9.50 44.00 9.99 C 41.33 9.99 38.67 9.99 36.00 9.99 Z" />
</g>
<g id="#303030ff">
<path fill="#303030" opacity="1.00" d=" M 55.91 17.15 C 55.99 14.03 56.34 10.92 56.72 7.83 C 57.44 14.79 56.87 21.81 56.82 28.78 C 55.25 30.06 57.87 38.92 54.00 36.01 C 53.97 32.62 54.01 29.25 54.04 25.86 C 54.66 26.65 55.29 27.43 55.93 28.20 C 55.93 25.44 55.92 19.91 55.91 17.15 Z" />
</g>
<g id="#00000015">
<path fill="#000000" opacity="0.08" d=" M 60.41 8.71 C 61.97 16.34 60.54 24.28 61.01 32.00 C 60.58 40.41 62.06 49.17 59.96 57.37 C 60.21 41.15 59.56 24.92 60.41 8.71 Z" />
<path fill="#000000" opacity="0.08" d=" M 25.76 62.23 C 35.59 61.82 45.44 61.91 55.27 62.31 C 45.72 64.24 35.41 62.97 25.76 62.23 Z" />
</g>
<g id="#7e7e7fff">
<path fill="#7e7e7f" opacity="1.00" d=" M 44.00 9.99 C 49.81 11.68 30.19 11.68 36.00 9.99 C 38.67 9.99 41.33 9.99 44.00 9.99 Z" />
</g>
<g id="#242524ff">
<path fill="#242524" opacity="1.00" d=" M 26.09 13.09 C 35.31 12.77 44.55 12.98 53.78 13.10 C 53.86 13.74 54.00 15.03 54.08 15.67 C 50.93 15.35 53.12 19.74 50.99 19.97 C 52.58 16.62 47.43 15.60 47.72 19.13 C 47.09 18.35 47.45 16.26 46.23 16.31 C 45.93 17.26 45.61 18.20 45.28 19.14 C 45.57 15.60 40.40 16.62 42.03 19.98 C 40.15 19.87 41.77 16.10 39.09 17.01 C 37.69 16.93 36.30 16.93 34.91 17.00 C 32.37 16.33 33.21 19.25 32.72 20.76 C 30.48 21.21 28.21 21.45 25.97 21.88 C 25.96 21.38 25.93 20.37 25.92 19.87 C 25.96 18.18 26.05 14.79 26.09 13.09 M 29.01 17.01 C 28.34 19.55 29.45 20.66 31.99 19.99 C 32.66 17.45 31.55 16.34 29.01 17.01 Z" />
</g>
<g id="#17171aff">
<path fill="#17171a" opacity="1.00" d=" M 46.23 16.31 C 47.45 16.26 47.09 18.35 47.72 19.13 C 48.35 20.14 49.43 20.42 50.99 19.97 C 53.12 19.74 50.93 15.35 54.08 15.67 C 54.04 19.07 53.97 22.47 54.04 25.86 C 54.01 29.25 53.97 32.62 54.00 36.01 C 53.99 37.68 53.99 39.35 53.98 41.02 C 48.06 41.00 42.13 41.05 36.21 40.78 C 33.69 40.53 28.64 40.03 26.12 39.78 C 26.07 38.30 25.96 35.34 25.90 33.86 C 25.95 29.87 25.97 25.87 25.97 21.88 C 28.21 21.45 30.48 21.21 32.72 20.76 C 33.21 19.25 32.37 16.33 34.91 17.00 C 33.37 21.20 40.62 21.22 39.09 17.01 C 41.77 16.10 40.15 19.87 42.03 19.98 C 43.58 20.43 44.66 20.14 45.28 19.14 C 45.61 18.20 45.93 17.26 46.23 16.31 M 29.01 23.01 C 28.34 25.55 29.45 26.66 31.99 25.99 C 32.66 23.45 31.55 22.34 29.01 23.01 M 35.02 23.03 C 33.95 26.27 36.45 26.38 38.98 25.97 C 40.05 22.73 37.55 22.62 35.02 23.03 M 42.01 23.01 C 41.34 25.55 42.45 26.66 44.99 25.99 C 45.66 23.45 44.55 22.34 42.01 23.01 M 48.01 23.01 C 47.34 25.55 48.45 26.66 50.99 25.99 C 51.66 23.45 50.55 22.34 48.01 23.01 M 28.95 29.03 C 27.99 30.92 32.09 33.60 32.01 31.03 C 32.86 28.53 30.68 28.87 28.95 29.03 M 36.20 29.12 C 34.55 30.15 34.39 32.99 37.00 32.02 C 40.57 33.33 38.76 27.91 36.20 29.12 M 42.01 29.01 C 41.34 31.55 42.45 32.66 44.99 31.99 C 45.66 29.45 44.55 28.34 42.01 29.01 M 48.01 29.01 C 47.34 31.55 48.45 32.66 50.99 31.99 C 51.66 29.45 50.55 28.34 48.01 29.01 M 29.01 35.01 C 28.34 37.55 29.45 38.66 31.99 37.99 C 32.66 35.45 31.55 34.34 29.01 35.01 Z" />
</g>
<g id="#3e3e3dff">
<path fill="#3e3e3d" opacity="1.00" d=" M 54.08 15.67 C 54.54 16.04 55.45 16.78 55.91 17.15 C 55.92 19.91 55.93 25.44 55.93 28.20 C 55.29 27.43 54.66 26.65 54.04 25.86 C 53.97 22.47 54.04 19.07 54.08 15.67 Z" />
</g>
<g id="#2cc946ff">
<path fill="#2cc946" opacity="1.00" d=" M 29.01 17.01 C 31.55 16.34 32.66 17.45 31.99 19.99 C 29.45 20.66 28.34 19.55 29.01 17.01 Z" />
</g>
<g id="#c3b2b0ff">
<path fill="#c3b2b0" opacity="1.00" d=" M 34.91 17.00 C 36.30 16.93 37.69 16.93 39.09 17.01 C 40.62 21.22 33.37 21.20 34.91 17.00 Z" />
</g>
<g id="#2bc0e9ff">
<path fill="#2bc0e9" opacity="1.00" d=" M 42.03 19.98 C 40.40 16.62 45.57 15.60 45.28 19.14 C 44.66 20.14 43.58 20.43 42.03 19.98 Z" />
</g>
<g id="#939394ff">
<path fill="#939394" opacity="1.00" d=" M 47.72 19.13 C 47.43 15.60 52.58 16.62 50.99 19.97 C 49.43 20.42 48.35 20.14 47.72 19.13 Z" />
</g>
<g id="#2290c9f9">
<path fill="#2290c9" opacity="0.98" d=" M 11.09 19.91 C 14.01 22.33 16.69 25.04 19.85 27.15 C 20.11 27.40 20.62 27.88 20.88 28.13 C 21.13 28.38 21.62 28.87 21.87 29.12 C 22.12 29.39 22.62 29.92 22.87 30.18 L 22.89 31.03 L 22.00 31.05 C 21.57 31.05 20.69 31.05 20.25 31.05 C 17.38 29.13 15.11 22.30 10.92 24.96 C 10.97 23.27 11.00 21.59 11.09 19.91 Z" />
</g>
<g id="#222222ff">
<path fill="#222222" opacity="1.00" d=" M 23.28 22.74 C 24.76 27.06 23.69 31.75 24.13 36.21 C 24.74 35.44 25.32 34.65 25.90 33.86 C 25.96 35.34 26.07 38.30 26.12 39.78 C 28.64 40.03 33.69 40.53 36.21 40.78 C 33.42 42.32 25.05 38.30 25.83 43.96 C 21.93 47.47 24.90 38.97 23.29 36.74 C 23.09 34.84 22.99 32.93 22.89 31.03 L 22.87 30.18 C 22.97 28.32 23.18 24.60 23.28 22.74 Z" />
</g>
<g id="#9f9a8aff">
<path fill="#9f9a8a" opacity="1.00" d=" M 29.01 23.01 C 31.55 22.34 32.66 23.45 31.99 25.99 C 29.45 26.66 28.34 25.55 29.01 23.01 Z" />
</g>
<g id="#3c98c3ff">
<path fill="#3c98c3" opacity="1.00" d=" M 35.02 23.03 C 37.55 22.62 40.05 22.73 38.98 25.97 C 36.45 26.38 33.95 26.27 35.02 23.03 Z" />
</g>
<g id="#bdbdbdff">
<path fill="#bdbdbd" opacity="1.00" d=" M 42.01 23.01 C 44.55 22.34 45.66 23.45 44.99 25.99 C 42.45 26.66 41.34 25.55 42.01 23.01 Z" />
</g>
<g id="#46b6ebff">
<path fill="#46b6eb" opacity="1.00" d=" M 48.01 23.01 C 50.55 22.34 51.66 23.45 50.99 25.99 C 48.45 26.66 47.34 25.55 48.01 23.01 Z" />
</g>
<g id="#0194f3ff">
<path fill="#0194f3" opacity="1.00" d=" M 10.92 24.96 C 15.11 22.30 17.38 29.13 20.25 31.05 C 13.95 32.29 7.48 32.25 1.09 31.93 C 1.01 30.62 0.98 29.32 0.99 28.01 C 3.74 28.03 9.25 28.06 12.01 28.08 C 11.82 27.74 11.44 27.07 11.26 26.74 L 10.88 25.93 L 10.92 24.96 Z" />
</g>
<g id="#0286c7ff">
<path fill="#0286c7" opacity="1.00" d=" M 0.00 26.01 C 3.63 26.00 7.25 25.97 10.88 25.93 L 11.26 26.74 C 7.83 26.87 4.40 27.00 0.97 27.03 L 0.00 27.01 L 0.00 26.01 Z" />
</g>
<g id="#006ce0fd">
<path fill="#006ce0" opacity="1.00" d=" M 0.00 27.01 L 0.97 27.03 L 0.99 28.01 C 0.98 29.32 1.01 30.62 1.09 31.93 C 7.48 32.25 13.95 32.29 20.25 31.05 C 20.69 31.05 21.57 31.05 22.00 31.05 L 21.94 31.87 C 21.68 32.12 21.15 32.62 20.89 32.88 C 20.60 33.08 20.02 33.49 19.73 33.70 C 19.34 33.96 18.56 34.47 18.17 34.73 C 16.69 35.80 15.37 37.06 14.02 38.28 C 13.05 37.88 12.08 37.48 11.11 37.08 C 11.07 36.58 10.97 35.59 10.92 35.10 C 9.36 32.31 3.11 34.52 0.00 33.23 L 0.00 27.01 Z" />
</g>
<g id="#5eb7eaff">
<path fill="#5eb7ea" opacity="1.00" d=" M 0.97 27.03 C 4.40 27.00 7.83 26.87 11.26 26.74 C 11.44 27.07 11.82 27.74 12.01 28.08 C 9.25 28.06 3.74 28.03 0.99 28.01 L 0.97 27.03 Z" />
</g>
<g id="#93433bff">
<path fill="#93433b" opacity="1.00" d=" M 28.95 29.03 C 30.68 28.87 32.86 28.53 32.01 31.03 C 32.09 33.60 27.99 30.92 28.95 29.03 Z" />
</g>
<g id="#c6bc7aff">
<path fill="#c6bc7a" opacity="1.00" d=" M 36.20 29.12 C 38.76 27.91 40.57 33.33 37.00 32.02 C 34.39 32.99 34.55 30.15 36.20 29.12 Z" />
</g>
<g id="#969696ff">
<path fill="#969696" opacity="1.00" d=" M 42.01 29.01 C 44.55 28.34 45.66 29.45 44.99 31.99 C 42.45 32.66 41.34 31.55 42.01 29.01 Z" />
</g>
<g id="#616262ff">
<path fill="#616262" opacity="1.00" d=" M 48.01 29.01 C 50.55 28.34 51.66 29.45 50.99 31.99 C 48.45 32.66 47.34 31.55 48.01 29.01 Z" />
</g>
<g id="#212121ff">
<path fill="#212121" opacity="1.00" d=" M 54.00 36.01 C 57.87 38.92 55.25 30.06 56.82 28.78 C 57.01 32.46 56.98 36.13 56.86 39.81 C 56.54 42.42 56.93 46.48 54.05 44.01 C 54.03 43.26 54.00 41.77 53.98 41.02 C 53.99 39.35 53.99 37.68 54.00 36.01 Z" />
</g>
<g id="#e2e2e3ff">
<path fill="#e2e2e3" opacity="1.00" d=" M 22.00 31.05 L 22.89 31.03 C 22.99 32.93 23.09 34.84 23.29 36.74 C 23.19 40.09 22.98 43.44 23.11 46.79 C 23.06 49.52 23.01 52.25 22.99 54.99 C 20.91 48.00 22.39 39.49 21.94 31.87 L 22.00 31.05 Z" />
</g>
<g id="#969696f3">
<path fill="#969696" opacity="0.95" d=" M 20.89 32.88 C 21.15 32.62 21.68 32.12 21.94 31.87 C 22.39 39.49 20.91 48.00 22.99 54.99 C 23.42 55.28 24.28 55.88 24.72 56.18 L 25.09 56.98 L 25.47 57.80 C 35.15 58.17 44.85 58.18 54.53 57.80 L 54.91 56.99 L 55.29 56.20 C 55.72 55.90 56.58 55.29 57.02 54.99 C 59.18 50.49 57.37 44.10 58.02 39.00 L 58.98 39.00 C 59.07 45.13 58.60 51.33 59.96 57.37 C 59.25 58.79 58.37 60.13 57.17 61.19 L 57.34 60.28 C 57.45 59.73 57.68 58.65 57.79 58.11 C 47.26 59.57 36.59 58.98 25.99 58.96 C 24.37 58.95 23.10 57.77 21.68 57.17 C 20.66 49.11 21.07 40.98 20.89 32.88 Z" />
</g>
<g id="#0059c1ff">
<path fill="#0059c1" opacity="1.00" d=" M 0.00 33.23 C 3.11 34.52 9.36 32.31 10.92 35.10 C 7.28 34.96 3.64 34.99 0.00 34.98 L 0.00 33.23 Z" />
</g>
<g id="#0202029e">
<path fill="#020202" opacity="0.62" d=" M 19.73 33.70 C 20.02 33.49 20.60 33.08 20.89 32.88 C 21.07 40.98 20.66 49.11 21.68 57.17 L 21.73 58.22 C 21.08 57.56 20.45 56.88 19.84 56.18 C 20.01 48.69 20.07 41.19 19.73 33.70 Z" />
</g>
<g id="#0002041a">
<path fill="#000204" opacity="0.10" d=" M 18.17 34.73 C 18.56 34.47 19.34 33.96 19.73 33.70 C 20.07 41.19 20.01 48.69 19.84 56.18 C 17.52 49.58 20.16 41.65 18.17 34.73 Z" />
</g>
<g id="#8e8e8eff">
<path fill="#8e8e8e" opacity="1.00" d=" M 29.01 35.01 C 31.55 34.34 32.66 35.45 31.99 37.99 C 29.45 38.66 28.34 37.55 29.01 35.01 Z" />
</g>
<g id="#023ea0ea">
<path fill="#023ea0" opacity="0.92" d=" M 11.11 37.08 C 12.08 37.48 13.05 37.88 14.02 38.28 C 13.34 39.19 12.71 40.17 11.75 40.82 C 10.16 40.55 11.18 38.18 11.11 37.08 Z" />
</g>
<g id="#151515ff">
<path fill="#151515" opacity="1.00" d=" M 23.29 36.74 C 24.90 38.97 21.93 47.47 25.83 43.96 C 25.91 44.70 26.08 46.18 26.16 46.92 C 35.40 47.00 44.65 47.24 53.88 46.91 C 53.93 46.18 54.01 44.74 54.05 44.01 C 56.93 46.48 56.54 42.42 56.86 39.81 C 56.91 42.50 56.94 45.19 56.96 47.88 C 54.21 53.18 44.62 46.30 43.06 52.96 C 43.05 52.50 43.04 51.57 43.03 51.11 C 44.02 46.80 35.98 46.80 36.97 51.11 C 36.97 51.57 36.96 52.49 36.96 52.95 C 35.16 46.23 23.99 54.17 23.11 46.79 C 22.98 43.44 23.19 40.09 23.29 36.74 Z" />
</g>
<g id="#87857dff">
<path fill="#87857d" opacity="1.00" d=" M 25.83 43.96 C 25.05 38.30 33.42 42.32 36.21 40.78 C 42.13 41.05 48.06 41.00 53.98 41.02 C 54.00 41.77 54.03 43.26 54.05 44.01 C 54.01 44.74 53.93 46.18 53.88 46.91 C 44.65 47.24 35.40 47.00 26.16 46.92 C 26.08 46.18 25.91 44.70 25.83 43.96 M 30.20 42.17 C 29.21 42.56 27.94 45.57 29.97 45.01 C 32.82 46.61 32.97 40.47 30.20 42.17 M 36.19 42.14 C 33.19 44.55 36.42 45.73 38.99 44.98 C 39.57 42.58 38.70 41.22 36.19 42.14 M 42.01 42.01 C 41.34 44.55 42.45 45.66 44.99 44.99 C 45.66 42.45 44.55 41.34 42.01 42.01 Z" />
</g>
<g id="#26ce42ff">
<path fill="#26ce42" opacity="1.00" d=" M 30.20 42.17 C 32.97 40.47 32.82 46.61 29.97 45.01 C 27.94 45.57 29.21 42.56 30.20 42.17 Z" />
</g>
<g id="#4bacddff">
<path fill="#4bacdd" opacity="1.00" d=" M 36.19 42.14 C 38.70 41.22 39.57 42.58 38.99 44.98 C 36.42 45.73 33.19 44.55 36.19 42.14 Z" />
</g>
<g id="#46b7f0ff">
<path fill="#46b7f0" opacity="1.00" d=" M 42.01 42.01 C 44.55 41.34 45.66 42.45 44.99 44.99 C 42.45 45.66 41.34 44.55 42.01 42.01 Z" />
</g>
<g id="#0e0e0eff">
<path fill="#0e0e0e" opacity="1.00" d=" M 23.11 46.79 C 23.99 54.17 35.16 46.23 36.96 52.95 C 38.79 55.26 41.20 55.24 43.06 52.96 C 44.62 46.30 54.21 53.18 56.96 47.88 C 56.98 49.66 57.00 53.21 57.02 54.99 C 56.58 55.29 55.72 55.90 55.29 56.20 C 45.10 56.00 34.90 55.76 24.72 56.18 C 24.28 55.88 23.42 55.28 22.99 54.99 C 23.01 52.25 23.06 49.52 23.11 46.79 Z" />
</g>
<g id="#272727ff">
<path fill="#272727" opacity="1.00" d=" M 36.97 51.11 C 35.98 46.80 44.02 46.80 43.03 51.11 C 41.10 52.15 38.90 52.15 36.97 51.11 Z" />
</g>
<g id="#595959ff">
<path fill="#595959" opacity="1.00" d=" M 36.97 51.11 C 38.90 52.15 41.10 52.15 43.03 51.11 C 43.04 51.57 43.05 52.50 43.06 52.96 C 41.20 55.24 38.79 55.26 36.96 52.95 C 36.96 52.49 36.97 51.57 36.97 51.11 Z" />
</g>
<g id="#2d2d2dff">
<path fill="#2d2d2d" opacity="1.00" d=" M 24.72 56.18 C 34.90 55.76 45.10 56.00 55.29 56.20 L 54.91 56.99 C 44.97 56.99 35.03 57.05 25.09 56.98 L 24.72 56.18 Z" />
</g>
<g id="#050505bb">
<path fill="#050505" opacity="0.73" d=" M 21.68 57.17 C 23.10 57.77 24.37 58.95 25.99 58.96 C 36.59 58.98 47.26 59.57 57.79 58.11 C 57.68 58.65 57.45 59.73 57.34 60.28 L 56.36 60.40 C 45.84 59.89 35.29 59.75 24.77 60.20 C 23.81 59.88 22.87 59.50 21.94 59.07 L 21.73 58.22 L 21.68 57.17 Z" />
</g>
<g id="#d9d9d9ff">
<path fill="#d9d9d9" opacity="1.00" d=" M 25.09 56.98 C 35.03 57.05 44.97 56.99 54.91 56.99 L 54.53 57.80 C 44.85 58.18 35.15 58.17 25.47 57.80 L 25.09 56.98 Z" />
</g>
<g id="#0000003d">
<path fill="#000000" opacity="0.24" d=" M 21.94 59.07 C 22.87 59.50 23.81 59.88 24.77 60.20 C 35.17 61.66 45.89 61.27 56.36 60.40 L 57.34 60.28 L 57.17 61.19 C 56.70 61.47 55.75 62.03 55.27 62.31 C 45.44 61.91 35.59 61.82 25.76 62.23 C 24.18 61.62 21.84 61.21 21.94 59.07 Z" />
</g>
<g id="#00000062">
<path fill="#000000" opacity="0.38" d=" M 24.77 60.20 C 35.29 59.75 45.84 59.89 56.36 60.40 C 45.89 61.27 35.17 61.66 24.77 60.20 Z" />
</g>
</svg>
