<?xml version="1.0" encoding="UTF-8" ?>
<!DOCTYPE svg PUBLIC "-//W3C//DTD SVG 1.1//EN" "http://www.w3.org/Graphics/SVG/1.1/DTD/svg11.dtd">
<svg width="64pt" height="64pt" viewBox="0 0 64 64" version="1.1" xmlns="http://www.w3.org/2000/svg">
<g id="#252525ff">
<path fill="#252525" opacity="1.00" d=" M 22.69 5.28 C 27.90 2.04 34.83 1.50 40.21 4.65 C 45.38 7.40 48.70 13.12 48.72 18.96 C 48.81 27.71 48.68 36.46 48.73 45.22 C 50.70 45.22 52.68 45.22 54.65 45.23 C 51.16 49.09 47.74 53.01 44.31 56.92 C 40.88 53.02 37.54 49.05 34.05 45.21 C 35.98 45.22 37.90 45.21 39.83 45.22 C 39.75 36.23 40.01 27.22 39.70 18.24 C 39.31 12.83 33.18 10.08 28.42 11.90 C 26.48 9.71 24.61 7.47 22.69 5.28 Z" />
<path fill="#252525" opacity="1.00" d=" M 9.28 18.78 C 12.74 14.83 16.22 10.91 19.68 6.97 C 23.10 10.91 26.54 14.84 29.95 18.79 C 28.03 18.79 26.10 18.79 24.17 18.78 C 24.25 27.82 24.01 36.87 24.27 45.91 C 24.71 51.30 30.89 53.90 35.59 52.10 C 37.55 54.24 39.37 56.50 41.27 58.70 C 38.13 60.35 34.69 61.75 31.07 61.40 C 22.93 61.20 15.63 54.13 15.30 45.97 C 15.11 36.91 15.26 27.84 15.18 18.78 C 13.22 18.79 11.25 18.78 9.28 18.78 Z" />
</g>
</svg>
