<?xml version="1.0" encoding="UTF-8" ?>
<!DOCTYPE svg PUBLIC "-//W3C//DTD SVG 1.1//EN" "http://www.w3.org/Graphics/SVG/1.1/DTD/svg11.dtd">
<svg width="64pt" height="64pt" viewBox="0 0 64 64" version="1.1" xmlns="http://www.w3.org/2000/svg">
<g id="#f3c542ff">
<path fill="#f3c542" opacity="1.00" d=" M 29.40 1.44 C 31.11 -0.69 35.11 0.37 35.45 3.08 C 35.65 5.69 35.65 8.32 35.47 10.94 C 35.17 13.48 31.86 14.69 29.86 13.18 C 27.69 11.41 28.66 8.37 28.43 5.97 C 28.61 4.48 28.07 2.54 29.40 1.44 M 29.80 3.94 C 30.11 6.05 30.38 8.17 30.75 10.27 C 31.27 10.40 32.31 10.65 32.83 10.78 C 33.75 8.61 33.83 6.24 34.16 3.94 C 34.48 0.85 29.53 0.87 29.80 3.94 Z" />
<path fill="#f3c542" opacity="1.00" d=" M 11.40 8.56 C 13.97 8.01 15.41 10.57 17.07 11.99 C 18.46 13.49 20.64 15.02 20.24 17.35 C 19.64 20.08 15.86 21.36 14.02 19.02 C 12.01 16.52 7.62 14.54 8.70 10.75 C 9.26 9.72 10.20 8.74 11.40 8.56 M 9.76 12.11 C 10.58 12.10 12.23 12.09 13.05 12.08 C 14.98 13.77 16.64 15.84 19.00 16.97 C 18.26 14.08 15.62 12.23 13.52 10.32 C 12.00 9.14 9.92 10.24 9.76 12.11 Z" />
<path fill="#f3c542" opacity="1.00" d=" M 49.53 9.48 C 51.56 7.20 55.88 9.22 55.47 12.24 C 55.61 14.03 53.84 15.05 52.74 16.16 C 53.16 14.80 53.54 13.43 53.90 12.05 L 54.15 11.02 C 53.07 9.79 51.04 9.39 49.91 10.78 C 48.05 12.60 45.32 14.34 45.26 17.19 C 47.50 17.38 49.76 17.44 51.99 17.07 C 50.77 18.20 49.71 19.64 48.07 20.19 C 45.40 20.89 42.49 17.47 44.21 15.03 C 45.70 12.94 47.70 11.27 49.53 9.48 Z" />
<path fill="#f3c542" opacity="1.00" d=" M 15.14 44.18 C 17.65 42.60 21.00 45.52 20.16 48.24 C 19.50 49.97 17.92 51.07 16.57 52.24 C 16.64 50.10 17.62 48.27 18.99 46.70 C 18.66 46.23 18.01 45.28 17.68 44.81 C 13.94 45.28 11.40 48.74 9.63 51.79 L 10.64 51.93 C 12.46 52.24 14.28 52.57 16.10 52.89 C 14.97 53.95 13.92 55.60 12.16 55.46 C 9.19 55.78 7.19 51.58 9.46 49.56 C 11.29 47.72 12.95 45.61 15.14 44.18 Z" />
<path fill="#f3c542" opacity="1.00" d=" M 46.70 43.76 C 50.24 43.70 52.10 47.47 54.51 49.51 C 56.84 51.55 54.80 55.85 51.76 55.46 C 50.10 55.55 49.11 53.99 47.97 53.05 C 49.77 52.66 51.56 52.27 53.36 51.90 L 54.42 51.71 C 52.49 48.78 50.09 45.25 46.33 44.79 C 45.98 45.30 45.28 46.31 44.93 46.82 C 45.60 47.61 46.27 48.39 46.94 49.16 C 46.63 49.56 46.00 50.35 45.69 50.74 C 42.80 48.99 43.35 44.46 46.70 43.76 Z" />
<path fill="#f3c542" opacity="1.00" d=" M 30.43 50.48 C 31.82 50.04 33.75 50.02 34.65 51.37 C 36.07 52.86 35.39 55.10 35.59 56.94 C 35.48 59.08 36.09 61.87 33.88 63.19 C 31.15 65.04 27.71 62.05 28.44 59.06 C 28.76 56.22 27.33 52.16 30.43 50.48 M 29.85 53.50 C 30.22 55.91 30.09 58.47 31.20 60.70 C 31.74 60.61 32.81 60.41 33.34 60.31 C 33.62 58.05 33.86 55.79 34.16 53.53 C 34.13 52.20 32.91 51.64 32.00 50.92 C 31.10 51.64 29.88 52.18 29.85 53.50 Z" />
</g>
<g id="#fbf3d6ff">
<path fill="#fbf3d6" opacity="1.00" d=" M 29.80 3.94 C 29.53 0.87 34.48 0.85 34.16 3.94 C 32.71 3.94 31.25 3.94 29.80 3.94 Z" />
</g>
<g id="#f4d352ff">
<path fill="#f4d352" opacity="1.00" d=" M 29.80 3.94 C 31.25 3.94 32.71 3.94 34.16 3.94 C 33.83 6.24 33.75 8.61 32.83 10.78 C 32.31 10.65 31.27 10.40 30.75 10.27 C 30.38 8.17 30.11 6.05 29.80 3.94 Z" />
<path fill="#f4d352" opacity="1.00" d=" M 29.85 53.50 C 31.29 53.48 32.73 53.49 34.16 53.53 C 33.86 55.79 33.62 58.05 33.34 60.31 C 32.81 60.41 31.74 60.61 31.20 60.70 C 30.09 58.47 30.22 55.91 29.85 53.50 Z" />
</g>
<g id="#fbf4daff">
<path fill="#fbf4da" opacity="1.00" d=" M 9.76 12.11 C 9.92 10.24 12.00 9.14 13.52 10.32 C 15.62 12.23 18.26 14.08 19.00 16.97 C 16.64 15.84 14.98 13.77 13.05 12.08 C 12.23 12.09 10.58 12.10 9.76 12.11 Z" />
<path fill="#fbf4da" opacity="1.00" d=" M 49.91 10.78 C 51.04 9.39 53.07 9.79 54.15 11.02 L 53.90 12.05 C 53.17 12.04 51.72 12.02 50.99 12.01 C 49.09 13.75 47.21 15.51 45.26 17.19 C 45.32 14.34 48.05 12.60 49.91 10.78 Z" />
</g>
<g id="#f4d04eff">
<path fill="#f4d04e" opacity="1.00" d=" M 45.26 17.19 C 47.21 15.51 49.09 13.75 50.99 12.01 C 51.72 12.02 53.17 12.04 53.90 12.05 C 53.54 13.43 53.16 14.80 52.74 16.16 C 52.56 16.39 52.18 16.84 51.99 17.07 C 49.76 17.44 47.50 17.38 45.26 17.19 Z" />
</g>
<g id="#f0c933ff">
<path fill="#f0c933" opacity="1.00" d=" M 30.66 15.89 C 40.61 14.90 49.89 25.09 47.34 34.93 C 45.56 43.63 35.43 49.85 27.00 46.43 C 18.92 43.91 13.91 33.99 17.37 26.11 C 19.41 20.51 24.82 16.63 30.66 15.89 M 20.96 25.18 C 24.37 23.36 27.89 21.21 31.93 21.51 C 36.15 21.27 39.83 23.53 43.05 25.97 C 43.33 20.68 37.51 17.79 32.95 17.56 C 28.06 17.20 21.53 19.61 20.96 25.18 M 29.13 22.98 C 24.34 24.59 21.22 30.59 23.69 35.26 C 25.95 40.74 33.59 42.56 38.05 38.53 C 35.93 43.27 29.14 41.44 25.31 40.00 C 28.43 44.22 34.84 43.41 38.80 40.77 C 38.61 40.20 38.24 39.08 38.06 38.52 C 40.29 36.03 42.10 32.46 40.74 29.12 C 39.41 24.39 33.83 21.11 29.13 22.98 Z" />
</g>
<g id="#f8e7a5ff">
<path fill="#f8e7a5" opacity="1.00" d=" M 20.96 25.18 C 21.53 19.61 28.06 17.20 32.95 17.56 C 37.51 17.79 43.33 20.68 43.05 25.97 C 39.83 23.53 36.15 21.27 31.93 21.51 C 27.89 21.21 24.37 23.36 20.96 25.18 Z" />
<path fill="#f8e7a5" opacity="1.00" d=" M 38.05 38.53 L 38.06 38.52 C 38.24 39.08 38.61 40.20 38.80 40.77 C 34.84 43.41 28.43 44.22 25.31 40.00 C 29.14 41.44 35.93 43.27 38.05 38.53 Z" />
<path fill="#f8e7a5" opacity="1.00" d=" M 9.63 51.79 C 11.40 48.74 13.94 45.28 17.68 44.81 C 18.01 45.28 18.66 46.23 18.99 46.70 C 15.31 46.71 13.11 49.70 10.64 51.93 L 9.63 51.79 Z" />
<path fill="#f8e7a5" opacity="1.00" d=" M 46.33 44.79 C 50.09 45.25 52.49 48.78 54.42 51.71 L 53.36 51.90 C 50.85 49.73 48.68 46.54 44.93 46.82 C 45.28 46.31 45.98 45.30 46.33 44.79 Z" />
</g>
<g id="#7e5a1a8a">
<path fill="#7e5a1a" opacity="0.54" d=" M 0.00 30.85 C 2.31 26.50 8.03 28.21 11.95 28.63 C 8.62 28.88 5.27 28.79 1.96 29.22 L 1.34 30.27 L 1.20 30.52 C 1.06 30.87 0.77 31.55 0.63 31.89 C 0.81 32.58 1.18 33.96 1.36 34.65 C 4.64 35.35 8.01 35.39 11.35 35.51 C 7.48 35.84 2.76 37.08 0.00 33.51 L 0.00 30.85 Z" />
</g>
<g id="#93691ea1">
<path fill="#93691e" opacity="0.63" d=" M 53.12 35.72 C 49.04 35.23 48.90 28.76 53.05 28.27 C 56.76 28.20 61.68 26.94 64.00 30.78 L 64.00 33.21 C 61.65 36.91 56.80 35.82 53.12 35.72 M 51.99 29.17 L 52.84 29.80 L 51.35 29.66 L 51.52 31.38 L 50.38 30.87 C 50.52 32.52 50.82 34.93 52.94 35.04 C 56.10 35.03 59.77 36.11 62.60 34.33 C 63.00 33.07 63.16 31.77 63.08 30.45 L 62.13 31.29 L 62.78 29.63 L 61.18 29.79 L 61.95 29.16 C 58.63 28.94 55.30 28.94 51.99 29.17 Z" />
</g>
<g id="#f4cd4aff">
<path fill="#f4cd4a" opacity="1.00" d=" M 1.96 29.22 C 5.27 28.79 8.62 28.88 11.95 28.63 C 14.58 30.32 14.34 34.41 11.35 35.51 C 8.01 35.39 4.64 35.35 1.36 34.65 C 1.18 33.96 0.81 32.58 0.63 31.89 C 0.77 31.55 1.06 30.87 1.20 30.52 L 2.15 31.72 C 5.70 31.86 9.26 31.66 12.82 31.87 C 10.56 27.97 4.97 30.01 1.34 30.27 L 1.96 29.22 Z" />
<path fill="#f4cd4a" opacity="1.00" d=" M 50.38 30.87 L 51.52 31.38 C 54.87 31.92 58.96 32.28 62.13 31.29 L 63.08 30.45 C 63.16 31.77 63.00 33.07 62.60 34.33 C 59.77 36.11 56.10 35.03 52.94 35.04 C 50.82 34.93 50.52 32.52 50.38 30.87 Z" />
</g>
<g id="#f1cb74ff">
<path fill="#f1cb74" opacity="1.00" d=" M 51.99 29.17 C 55.30 28.94 58.63 28.94 61.95 29.16 L 61.18 29.79 C 58.41 30.14 55.61 30.10 52.84 29.80 L 51.99 29.17 Z" />
</g>
<g id="#fbf1ccff">
<path fill="#fbf1cc" opacity="1.00" d=" M 1.34 30.27 C 4.97 30.01 10.56 27.97 12.82 31.87 C 9.26 31.66 5.70 31.86 2.15 31.72 L 1.20 30.52 L 1.34 30.27 Z" />
<path fill="#fbf1cc" opacity="1.00" d=" M 51.35 29.66 L 52.84 29.80 C 55.61 30.10 58.41 30.14 61.18 29.79 L 62.78 29.63 L 62.13 31.29 C 58.96 32.28 54.87 31.92 51.52 31.38 L 51.35 29.66 Z" />
</g>
<g id="#f4d250ff">
<path fill="#f4d250" opacity="1.00" d=" M 10.64 51.93 C 13.11 49.70 15.31 46.71 18.99 46.70 C 17.62 48.27 16.64 50.10 16.57 52.24 L 16.45 52.95 L 16.10 52.89 C 14.28 52.57 12.46 52.24 10.64 51.93 Z" />
<path fill="#f4d250" opacity="1.00" d=" M 44.93 46.82 C 48.68 46.54 50.85 49.73 53.36 51.90 C 51.56 52.27 49.77 52.66 47.97 53.05 C 47.23 52.27 46.47 51.49 45.69 50.74 C 46.00 50.35 46.63 49.56 46.94 49.16 C 46.27 48.39 45.60 47.61 44.93 46.82 Z" />
</g>
<g id="#f8e5afff">
<path fill="#f8e5af" opacity="1.00" d=" M 29.85 53.50 C 29.88 52.18 31.10 51.64 32.00 50.92 C 32.91 51.64 34.13 52.20 34.16 53.53 C 32.73 53.49 31.29 53.48 29.85 53.50 Z" />
</g>
</svg>
