<?xml version="1.0" encoding="UTF-8" ?>
<!DOCTYPE svg PUBLIC "-//W3C//DTD SVG 1.1//EN" "http://www.w3.org/Graphics/SVG/1.1/DTD/svg11.dtd">
<svg width="64pt" height="64pt" viewBox="0 0 64 64" version="1.1" xmlns="http://www.w3.org/2000/svg">
<g id="#9e9e9ef6">
<path fill="#9e9e9e" opacity="0.96" d=" M 16.28 10.70 C 16.21 6.23 22.87 4.41 26.33 6.65 C 39.23 14.51 47.57 29.08 49.80 43.76 C 49.51 45.99 49.01 48.15 48.29 50.25 C 48.18 47.43 48.04 44.61 47.89 41.79 C 46.55 33.62 42.87 25.75 37.86 19.16 C 35.48 16.04 33.05 12.60 29.26 11.13 C 26.07 8.40 21.62 8.67 19.20 12.26 C 19.01 15.62 18.89 18.99 18.94 22.35 C 18.33 18.41 17.52 14.49 16.28 10.70 Z" />
</g>
<g id="#323232ff">
<path fill="#323232" opacity="1.00" d=" M 19.20 12.26 C 21.62 8.67 26.07 8.40 29.26 11.13 C 26.26 13.39 20.20 13.38 20.10 18.09 L 20.01 19.03 C 19.85 20.50 19.62 21.96 19.10 23.35 L 18.94 22.35 C 18.89 18.99 19.01 15.62 19.20 12.26 Z" />
</g>
<g id="#cdcdceff">
<path fill="#cdcdce" opacity="1.00" d=" M 16.28 10.70 C 17.52 14.49 18.33 18.41 18.94 22.35 L 19.10 23.35 C 19.28 25.28 19.75 27.17 20.26 29.03 C 20.36 29.32 20.55 29.90 20.65 30.18 C 21.78 33.60 23.32 36.87 25.17 39.96 C 24.90 41.06 24.59 42.15 24.25 43.24 C 20.29 36.38 16.76 29.21 15.68 21.26 C 15.82 18.11 15.95 14.96 16.15 11.82 L 16.28 10.70 Z" />
</g>
<g id="#494949ff">
<path fill="#494949" opacity="1.00" d=" M 29.26 11.13 C 33.05 12.60 35.48 16.04 37.86 19.16 C 42.87 25.75 46.55 33.62 47.89 41.79 C 47.76 45.94 45.64 51.46 40.92 51.94 C 43.77 48.27 46.76 44.11 45.82 39.10 C 45.06 35.10 43.38 31.33 41.12 27.95 C 38.86 22.04 34.24 15.10 27.00 16.00 C 23.87 14.41 22.06 16.58 20.10 18.09 C 20.20 13.38 26.26 13.39 29.26 11.13 Z" />
</g>
<g id="#8f8f90e2">
<path fill="#8f8f90" opacity="0.89" d=" M 14.97 18.99 C 13.80 15.34 14.20 12.95 16.15 11.82 C 15.95 14.96 15.82 18.11 15.68 21.26 C 15.50 20.69 15.15 19.55 14.97 18.99 Z" />
</g>
<g id="#12121260">
<path fill="#121212" opacity="0.38" d=" M 39.83 12.08 C 41.74 13.58 45.38 15.42 45.65 17.83 C 45.49 18.14 45.16 18.75 44.99 19.06 C 42.73 17.30 41.18 14.59 39.83 12.08 Z" />
</g>
<g id="#595959ff">
<path fill="#595959" opacity="1.00" d=" M 20.10 18.09 C 22.06 16.58 23.87 14.41 27.00 16.00 C 34.24 15.10 38.86 22.04 41.12 27.95 C 37.52 25.19 35.60 20.51 31.05 18.97 C 27.73 16.81 23.52 17.98 20.01 19.03 L 20.10 18.09 Z" />
</g>
<g id="#696969ff">
<path fill="#696969" opacity="1.00" d=" M 20.01 19.03 C 23.52 17.98 27.73 16.81 31.05 18.97 C 35.60 20.51 37.52 25.19 41.12 27.95 C 41.36 33.42 45.86 38.55 43.01 44.00 C 42.90 47.11 39.59 52.88 35.90 50.30 C 39.13 48.48 42.27 45.19 41.02 41.00 C 42.90 31.90 36.54 23.85 28.65 20.30 C 26.31 19.85 20.46 18.75 20.94 23.03 C 20.97 24.43 21.26 25.82 21.59 27.18 C 21.99 28.43 21.55 29.05 20.26 29.03 C 19.75 27.17 19.28 25.28 19.10 23.35 C 19.62 21.96 19.85 20.50 20.01 19.03 Z" />
<path fill="#696969" opacity="1.00" d=" M 18.99 47.01 C 20.95 47.02 22.91 46.99 24.88 47.00 L 25.32 47.67 C 24.45 47.79 22.73 48.03 21.87 48.15 C 22.61 48.70 23.37 49.24 24.14 49.76 C 23.82 50.05 23.18 50.64 22.86 50.93 C 21.33 49.89 19.99 48.57 18.99 47.01 Z" />
</g>
<g id="#1a1a1a7c">
<path fill="#1a1a1a" opacity="0.49" d=" M 44.99 19.06 C 45.16 18.75 45.49 18.14 45.65 17.83 C 48.44 22.51 51.46 27.55 52.10 33.06 C 51.92 33.60 51.56 34.69 51.38 35.23 C 49.99 29.59 47.64 24.22 44.99 19.06 Z" />
</g>
<g id="#838383fc">
<path fill="#838383" opacity="1.00" d=" M 11.88 26.97 C 12.38 24.31 12.84 20.59 14.97 18.99 C 15.15 19.55 15.50 20.69 15.68 21.26 C 16.76 29.21 20.29 36.38 24.25 43.24 C 26.77 47.76 30.86 51.05 34.13 54.99 C 30.95 55.36 28.00 54.24 25.25 52.76 C 24.46 52.14 23.66 51.53 22.86 50.93 C 23.18 50.64 23.82 50.05 24.14 49.76 C 25.77 50.57 27.34 51.52 29.08 52.10 C 27.97 50.50 26.64 49.09 25.32 47.67 L 24.88 47.00 C 22.84 43.77 20.57 40.69 18.27 37.66 C 16.98 32.65 16.22 27.34 14.08 22.66 C 13.65 28.23 14.47 33.78 16.04 39.10 C 15.98 39.87 15.86 41.40 15.80 42.17 C 12.77 37.78 12.17 32.18 11.88 26.97 Z" />
</g>
<g id="#797979ff">
<path fill="#797979" opacity="1.00" d=" M 20.94 23.03 C 20.46 18.75 26.31 19.85 28.65 20.30 C 36.54 23.85 42.90 31.90 41.02 41.00 C 42.27 45.19 39.13 48.48 35.90 50.30 C 35.18 49.67 34.48 49.03 33.78 48.37 C 38.31 48.81 39.37 43.42 39.21 40.00 C 41.53 30.19 30.77 18.87 20.94 23.03 Z" />
</g>
<g id="#888888ff">
<path fill="#888888" opacity="1.00" d=" M 20.94 23.03 C 30.77 18.87 41.53 30.19 39.21 40.00 C 39.37 43.42 38.31 48.81 33.78 48.37 L 32.90 48.12 C 32.68 47.63 32.25 46.65 32.04 46.17 C 35.50 46.27 38.99 42.87 37.04 38.98 C 38.56 31.45 32.12 24.89 25.07 24.02 C 23.46 24.50 21.74 25.27 21.59 27.18 C 21.26 25.82 20.97 24.43 20.94 23.03 Z" />
</g>
<g id="#191919ff">
<path fill="#191919" opacity="1.00" d=" M 14.08 22.66 C 16.22 27.34 16.98 32.65 18.27 37.66 C 17.71 38.02 16.60 38.74 16.04 39.10 C 14.47 33.78 13.65 28.23 14.08 22.66 Z" />
</g>
<g id="#969697ff">
<path fill="#969697" opacity="1.00" d=" M 21.59 27.18 C 21.74 25.27 23.46 24.50 25.07 24.02 C 32.12 24.89 38.56 31.45 37.04 38.98 C 38.99 42.87 35.50 46.27 32.04 46.17 C 32.61 42.46 33.09 38.72 33.07 34.96 C 32.80 35.17 32.27 35.59 32.01 35.80 L 31.42 36.25 C 30.61 34.21 29.87 32.03 28.13 30.58 C 25.68 28.47 23.34 31.62 23.69 34.16 C 22.90 32.49 23.39 29.41 20.65 30.18 C 20.55 29.90 20.36 29.32 20.26 29.03 C 21.55 29.05 21.99 28.43 21.59 27.18 Z" />
</g>
<g id="#333333fe">
<path fill="#333333" opacity="1.00" d=" M 10.90 28.11 C 11.14 27.82 11.64 27.26 11.88 26.97 C 12.17 32.18 12.77 37.78 15.80 42.17 C 16.82 43.81 17.87 45.43 18.99 47.01 C 19.99 48.57 21.33 49.89 22.86 50.93 C 23.66 51.53 24.46 52.14 25.25 52.76 C 24.72 53.05 23.66 53.61 23.12 53.90 C 20.48 51.01 17.62 48.31 15.24 45.20 C 13.11 41.76 11.56 37.98 10.67 34.03 C 11.05 32.08 11.24 30.08 10.90 28.11 Z" />
</g>
<g id="#838383f6">
<path fill="#838383" opacity="0.96" d=" M 9.09 28.74 C 9.54 28.58 10.45 28.27 10.90 28.11 C 11.24 30.08 11.05 32.08 10.67 34.03 C 10.27 32.71 9.48 30.06 9.09 28.74 Z" />
</g>
<g id="#575757ff">
<path fill="#575757" opacity="1.00" d=" M 41.12 27.95 C 43.38 31.33 45.06 35.10 45.82 39.10 C 46.76 44.11 43.77 48.27 40.92 51.94 C 39.53 52.17 38.14 52.40 36.77 52.72 C 35.41 51.94 34.23 50.91 33.00 49.96 L 32.81 49.14 L 32.90 48.12 L 33.78 48.37 C 34.48 49.03 35.18 49.67 35.90 50.30 C 39.59 52.88 42.90 47.11 43.01 44.00 C 45.86 38.55 41.36 33.42 41.12 27.95 Z" />
</g>
<g id="#e3e3e5ff">
<path fill="#e3e3e5" opacity="1.00" d=" M 5.92 31.09 C 6.09 29.58 8.10 29.57 9.09 28.74 C 9.48 30.06 10.27 32.71 10.67 34.03 C 11.56 37.98 13.11 41.76 15.24 45.20 C 13.55 45.32 11.86 45.45 10.16 45.54 C 8.58 44.11 7.44 42.28 6.03 40.70 C 3.95 35.95 9.31 34.97 9.15 31.05 C 7.77 31.64 5.37 34.27 5.92 31.09 Z" />
</g>
<g id="#6f6f6fff">
<path fill="#6f6f6f" opacity="1.00" d=" M 20.65 30.18 C 23.39 29.41 22.90 32.49 23.69 34.16 C 23.92 34.66 24.37 35.66 24.60 36.16 C 25.31 37.53 26.23 38.78 27.15 40.02 C 28.08 41.12 28.59 42.46 29.03 43.82 L 27.94 44.11 C 26.91 42.80 26.08 41.35 25.17 39.96 C 23.32 36.87 21.78 33.60 20.65 30.18 Z" />
</g>
<g id="#b6b6b7ff">
<path fill="#b6b6b7" opacity="1.00" d=" M 23.69 34.16 C 23.34 31.62 25.68 28.47 28.13 30.58 C 26.28 31.98 24.65 33.69 24.60 36.16 C 24.37 35.66 23.92 34.66 23.69 34.16 Z" />
</g>
<g id="#8b8b8ded">
<path fill="#8b8b8d" opacity="0.93" d=" M 5.23 41.02 C 4.92 37.87 2.50 33.03 5.92 31.09 C 5.37 34.27 7.77 31.64 9.15 31.05 C 9.31 34.97 3.95 35.95 6.03 40.70 L 5.23 41.02 Z" />
</g>
<g id="#e2e2e3ff">
<path fill="#e2e2e3" opacity="1.00" d=" M 24.60 36.16 C 24.65 33.69 26.28 31.98 28.13 30.58 C 29.87 32.03 30.61 34.21 31.42 36.25 C 29.57 38.94 26.78 37.60 24.60 36.16 Z" />
</g>
<g id="#0b0b0b48">
<path fill="#0b0b0b" opacity="0.28" d=" M 52.10 33.06 C 54.13 33.17 52.55 37.38 52.95 39.11 C 51.72 38.52 50.92 36.54 51.38 35.23 C 51.56 34.69 51.92 33.60 52.10 33.06 Z" />
</g>
<g id="#878787ff">
<path fill="#878787" opacity="1.00" d=" M 32.01 35.80 C 32.27 35.59 32.80 35.17 33.07 34.96 C 33.09 38.72 32.61 42.46 32.04 46.17 C 31.17 45.21 30.27 44.27 29.03 43.82 C 28.59 42.46 28.08 41.12 27.15 40.02 C 30.13 40.74 32.68 39.09 32.01 35.80 Z" />
</g>
<g id="#b3b3b4ff">
<path fill="#b3b3b4" opacity="1.00" d=" M 24.60 36.16 C 26.78 37.60 29.57 38.94 31.42 36.25 L 32.01 35.80 C 32.68 39.09 30.13 40.74 27.15 40.02 C 26.23 38.78 25.31 37.53 24.60 36.16 Z" />
</g>
<g id="#a7a7a7ff">
<path fill="#a7a7a7" opacity="1.00" d=" M 16.04 39.10 C 16.60 38.74 17.71 38.02 18.27 37.66 C 20.57 40.69 22.84 43.77 24.88 47.00 C 22.91 46.99 20.95 47.02 18.99 47.01 C 17.87 45.43 16.82 43.81 15.80 42.17 C 15.86 41.40 15.98 39.87 16.04 39.10 Z" />
</g>
<g id="#a9a9aafa">
<path fill="#a9a9aa" opacity="0.98" d=" M 25.17 39.96 C 26.08 41.35 26.91 42.80 27.94 44.11 C 29.34 45.99 31.08 47.57 32.81 49.14 L 33.00 49.96 C 33.47 53.96 37.90 55.60 41.14 56.89 C 50.35 59.14 45.76 56.65 43.87 55.30 C 45.30 54.40 47.05 53.73 47.54 51.93 C 47.73 51.51 48.10 50.67 48.29 50.25 C 49.01 48.15 49.51 45.99 49.80 43.76 C 49.03 47.54 51.68 52.76 48.83 55.97 C 45.45 61.56 38.09 58.41 34.13 54.99 C 30.86 51.05 26.77 47.76 24.25 43.24 C 24.59 42.15 24.90 41.06 25.17 39.96 Z" />
</g>
<g id="#b5b6b7fd">
<path fill="#b5b6b7" opacity="1.00" d=" M 6.03 40.70 C 7.44 42.28 8.58 44.11 10.16 45.54 C 11.86 45.45 13.55 45.32 15.24 45.20 C 17.62 48.31 20.48 51.01 23.12 53.90 C 20.77 55.54 18.05 56.50 15.36 55.02 C 14.25 54.60 13.51 53.90 13.12 52.93 C 12.82 49.72 10.52 47.67 7.93 46.04 C 6.28 44.82 5.84 42.64 6.03 40.70 Z" />
</g>
<g id="#3d3d3dff">
<path fill="#3d3d3d" opacity="1.00" d=" M 40.92 51.94 C 45.64 51.46 47.76 45.94 47.89 41.79 C 48.04 44.61 48.18 47.43 48.29 50.25 C 48.10 50.67 47.73 51.51 47.54 51.93 C 44.56 51.18 41.71 53.63 38.80 53.84 C 38.29 53.56 37.27 53.00 36.77 52.72 C 38.14 52.40 39.53 52.17 40.92 51.94 Z" />
</g>
<g id="#444444ff">
<path fill="#444444" opacity="1.00" d=" M 27.94 44.11 L 29.03 43.82 C 30.27 44.27 31.17 45.21 32.04 46.17 C 32.25 46.65 32.68 47.63 32.90 48.12 L 32.81 49.14 C 31.08 47.57 29.34 45.99 27.94 44.11 Z" />
</g>
<g id="#5c5c5df2">
<path fill="#5c5c5d" opacity="0.95" d=" M 7.93 46.04 C 10.52 47.67 12.82 49.72 13.12 52.93 C 10.66 51.55 8.93 49.25 7.93 46.04 Z" />
</g>
<g id="#333333ff">
<path fill="#333333" opacity="1.00" d=" M 21.87 48.15 C 22.73 48.03 24.45 47.79 25.32 47.67 C 26.64 49.09 27.97 50.50 29.08 52.10 C 27.34 51.52 25.77 50.57 24.14 49.76 C 23.37 49.24 22.61 48.70 21.87 48.15 Z" />
</g>
<g id="#989898ff">
<path fill="#989898" opacity="1.00" d=" M 33.00 49.96 C 34.23 50.91 35.41 51.94 36.77 52.72 C 37.27 53.00 38.29 53.56 38.80 53.84 C 40.34 54.76 42.13 54.99 43.87 55.30 C 45.76 56.65 50.35 59.14 41.14 56.89 C 37.90 55.60 33.47 53.96 33.00 49.96 Z" />
</g>
<g id="#272727ff">
<path fill="#272727" opacity="1.00" d=" M 38.80 53.84 C 41.71 53.63 44.56 51.18 47.54 51.93 C 47.05 53.73 45.30 54.40 43.87 55.30 C 42.13 54.99 40.34 54.76 38.80 53.84 Z" />
</g>
<g id="#0606063f">
<path fill="#060606" opacity="0.25" d=" M 23.12 53.90 C 23.66 53.61 24.72 53.05 25.25 52.76 C 28.00 54.24 30.95 55.36 34.13 54.99 C 38.09 58.41 45.45 61.56 48.83 55.97 C 49.19 56.93 49.52 57.90 49.84 58.88 C 44.58 60.65 38.50 60.80 33.32 58.63 C 26.97 56.92 20.59 60.18 14.20 58.85 C 11.98 57.63 13.39 55.41 15.36 55.02 C 18.05 56.50 20.77 55.54 23.12 53.90 Z" />
</g>
</svg>
