<?xml version="1.0" encoding="UTF-8" ?>
<!DOCTYPE svg PUBLIC "-//W3C//DTD SVG 1.1//EN" "http://www.w3.org/Graphics/SVG/1.1/DTD/svg11.dtd">
<svg width="64pt" height="64pt" viewBox="0 0 64 64" version="1.1" xmlns="http://www.w3.org/2000/svg">
<g id="#6d92b5ff">
<path fill="#6d92b5" opacity="1.00" d=" M 3.71 11.60 C 5.42 6.97 9.87 3.24 14.95 3.30 C 26.30 3.27 37.66 3.28 49.02 3.30 C 54.07 3.23 58.53 6.91 60.26 11.52 C 59.01 19.53 59.50 27.75 57.71 35.70 C 57.39 37.55 56.20 39.04 54.86 40.28 C 51.80 37.52 48.77 34.68 45.28 32.45 L 45.33 33.86 C 45.33 34.56 45.33 35.97 45.33 36.67 C 41.43 37.14 38.15 35.19 34.80 33.58 L 33.78 33.14 C 33.95 32.92 34.29 32.49 34.46 32.27 C 40.10 32.73 45.79 31.90 51.18 30.24 C 53.70 29.40 56.59 28.14 57.45 25.38 C 58.31 22.56 57.92 19.57 57.92 16.68 C 57.92 15.03 57.68 13.37 56.95 11.88 C 55.09 8.20 51.20 5.82 47.07 5.98 C 37.02 5.94 26.97 5.95 16.92 5.98 C 12.83 5.83 9.00 8.16 7.09 11.76 C 5.35 16.22 6.21 21.46 7.70 25.89 C 9.01 24.35 10.25 22.75 11.49 21.16 C 11.43 23.04 11.40 24.91 11.38 26.79 C 14.56 26.83 17.75 26.57 20.92 26.93 C 22.74 27.48 23.97 29.05 25.37 30.24 C 26.62 28.77 27.87 27.29 29.10 25.81 C 26.92 23.90 24.77 21.82 22.03 20.73 C 18.14 20.17 14.10 20.61 10.33 19.29 C 14.16 18.86 18.07 18.54 21.89 19.20 C 25.28 20.17 27.78 22.83 30.41 25.04 C 32.54 23.70 34.08 21.67 36.06 20.15 C 38.76 18.31 42.22 19.05 45.29 18.85 L 45.18 20.47 C 41.93 20.65 38.03 19.79 35.45 22.31 C 31.88 26.14 29.02 30.57 25.50 34.45 C 23.57 33.72 21.63 35.47 22.47 37.44 C 22.44 37.46 22.38 37.50 22.35 37.52 C 19.24 35.82 14.97 36.63 11.53 37.16 C 10.22 37.85 8.93 38.59 7.63 39.32 C 4.08 30.52 5.25 20.80 3.71 11.60 Z" />
</g>
<g id="#e0e9f1ff">
<path fill="#e0e9f1" opacity="1.00" d=" M 7.09 11.76 C 9.00 8.16 12.83 5.83 16.92 5.98 C 26.97 5.95 37.02 5.94 47.07 5.98 C 51.20 5.82 55.09 8.20 56.95 11.88 C 53.79 11.01 51.62 7.75 48.09 8.13 C 37.04 8.11 25.97 7.97 14.91 8.19 C 11.80 8.11 10.07 11.39 7.09 11.76 Z" />
</g>
<g id="#a1bdd7ff">
<path fill="#a1bdd7" opacity="1.00" d=" M 7.09 11.76 C 10.07 11.39 11.80 8.11 14.91 8.19 C 25.97 7.97 37.04 8.11 48.09 8.13 C 51.62 7.75 53.79 11.01 56.95 11.88 C 57.68 13.37 57.92 15.03 57.92 16.68 C 57.51 18.65 57.01 20.59 56.52 22.54 C 55.53 22.20 54.54 21.86 53.55 21.52 C 51.51 19.81 49.53 18.02 47.35 16.48 L 45.89 16.83 C 45.34 17.26 45.14 17.94 45.29 18.85 C 42.22 19.05 38.76 18.31 36.06 20.15 C 34.08 21.67 32.54 23.70 30.41 25.04 C 27.78 22.83 25.28 20.17 21.89 19.20 C 18.07 18.54 14.16 18.86 10.33 19.29 C 14.10 20.61 18.14 20.17 22.03 20.73 C 18.52 20.48 14.95 20.38 11.49 21.16 C 10.25 22.75 9.01 24.35 7.70 25.89 C 6.21 21.46 5.35 16.22 7.09 11.76 Z" />
</g>
<g id="#5f81a0ff">
<path fill="#5f81a0" opacity="1.00" d=" M 3.20 17.00 C 3.15 15.19 3.35 13.38 3.71 11.60 C 5.25 20.80 4.08 30.52 7.63 39.32 C 8.93 38.59 10.22 37.85 11.53 37.16 C 11.52 37.39 11.50 37.85 11.49 38.08 C 11.48 40.15 11.50 42.23 11.50 44.30 C 14.96 44.22 18.45 44.59 21.88 44.08 C 27.34 42.45 30.35 37.25 33.78 33.14 L 34.80 33.58 L 35.94 34.71 C 34.77 36.18 33.59 37.64 32.41 39.09 C 33.71 40.56 34.85 42.24 36.50 43.35 C 39.17 44.89 42.38 44.17 45.31 44.29 C 45.31 45.72 45.31 47.14 45.32 48.56 C 48.11 46.05 50.93 43.57 53.82 41.16 L 54.86 40.28 C 56.20 39.04 57.39 37.55 57.71 35.70 C 59.50 27.75 59.01 19.53 60.26 11.52 C 60.65 13.31 60.85 15.13 60.80 16.97 C 60.73 27.67 60.77 38.37 60.71 49.07 C 60.79 55.21 55.26 60.77 49.12 60.71 C 37.78 60.77 26.44 60.74 15.10 60.72 C 8.86 60.88 3.18 55.27 3.29 49.02 C 3.23 38.35 3.27 27.67 3.20 17.00 Z" />
</g>
<g id="#ffffffff">
<path fill="#ffffff" opacity="1.00" d=" M 45.29 18.85 C 45.14 17.94 45.34 17.26 45.89 16.83 C 47.94 18.59 49.90 20.45 51.97 22.18 C 52.41 22.56 53.28 23.32 53.71 23.71 C 50.89 26.08 48.12 28.51 45.35 30.93 C 45.33 29.52 45.32 28.12 45.30 26.71 C 43.22 26.73 41.13 26.74 39.05 26.78 C 37.42 28.52 35.88 30.35 34.46 32.27 C 34.29 32.49 33.95 32.92 33.78 33.14 C 30.35 37.25 27.34 42.45 21.88 44.08 C 18.45 44.59 14.96 44.22 11.50 44.30 C 11.50 42.23 11.48 40.15 11.49 38.08 C 15.11 37.94 18.81 38.47 22.35 37.52 C 22.38 37.50 22.44 37.46 22.47 37.44 C 23.67 36.66 24.65 35.58 25.50 34.45 C 29.02 30.57 31.88 26.14 35.45 22.31 C 38.03 19.79 41.93 20.65 45.18 20.47 L 45.29 18.85 Z" />
<path fill="#ffffff" opacity="1.00" d=" M 11.49 21.16 C 14.95 20.38 18.52 20.48 22.03 20.73 C 24.77 21.82 26.92 23.90 29.10 25.81 C 27.87 27.29 26.62 28.77 25.37 30.24 C 23.97 29.05 22.74 27.48 20.92 26.93 C 17.75 26.57 14.56 26.83 11.38 26.79 C 11.40 24.91 11.43 23.04 11.49 21.16 Z" />
<path fill="#ffffff" opacity="1.00" d=" M 45.33 33.86 C 48.09 36.37 50.91 38.82 53.82 41.16 C 50.93 43.57 48.11 46.05 45.32 48.56 C 45.31 47.14 45.31 45.72 45.31 44.29 C 42.38 44.17 39.17 44.89 36.50 43.35 C 34.85 42.24 33.71 40.56 32.41 39.09 C 33.59 37.64 34.77 36.18 35.94 34.71 C 37.01 35.80 38.04 36.93 39.08 38.04 C 41.16 38.06 43.24 38.06 45.33 38.06 L 45.33 36.67 C 45.33 35.97 45.33 34.56 45.33 33.86 Z" />
</g>
<g id="#719fc6ff">
<path fill="#719fc6" opacity="1.00" d=" M 45.89 16.83 L 47.35 16.48 C 49.53 18.02 51.51 19.81 53.55 21.52 C 53.16 21.68 52.37 22.01 51.97 22.18 C 49.90 20.45 47.94 18.59 45.89 16.83 Z" />
</g>
<g id="#85a5c3ff">
<path fill="#85a5c3" opacity="1.00" d=" M 56.52 22.54 C 57.01 20.59 57.51 18.65 57.92 16.68 C 57.92 19.57 58.31 22.56 57.45 25.38 C 56.59 28.14 53.70 29.40 51.18 30.24 C 45.79 31.90 40.10 32.73 34.46 32.27 C 35.88 30.35 37.42 28.52 39.05 26.78 C 41.13 26.74 43.22 26.73 45.30 26.71 C 45.32 28.12 45.33 29.52 45.35 30.93 C 48.12 28.51 50.89 26.08 53.71 23.71 C 53.28 23.32 52.41 22.56 51.97 22.18 C 52.37 22.01 53.16 21.68 53.55 21.52 C 54.54 21.86 55.53 22.20 56.52 22.54 Z" />
</g>
<g id="#456d9eff">
<path fill="#456d9e" opacity="1.00" d=" M 45.28 32.45 C 48.77 34.68 51.80 37.52 54.86 40.28 L 53.82 41.16 C 50.91 38.82 48.09 36.37 45.33 33.86 L 45.28 32.45 Z" />
</g>
<g id="#47679bff">
<path fill="#47679b" opacity="1.00" d=" M 34.80 33.58 C 38.15 35.19 41.43 37.14 45.33 36.67 L 45.33 38.06 C 43.24 38.06 41.16 38.06 39.08 38.04 C 38.04 36.93 37.01 35.80 35.94 34.71 L 34.80 33.58 Z" />
</g>
<g id="#324e8bff">
<path fill="#324e8b" opacity="1.00" d=" M 11.53 37.16 C 14.97 36.63 19.24 35.82 22.35 37.52 C 18.81 38.47 15.11 37.94 11.49 38.08 C 11.50 37.85 11.52 37.39 11.53 37.16 Z" />
</g>
</svg>
