<?xml version="1.0" encoding="UTF-8" ?>
<!DOCTYPE svg PUBLIC "-//W3C//DTD SVG 1.1//EN" "http://www.w3.org/Graphics/SVG/1.1/DTD/svg11.dtd">
<svg width="64pt" height="64pt" viewBox="0 0 64 64" version="1.1" xmlns="http://www.w3.org/2000/svg">
<g id="#f0c734ff">
<path fill="#f0c734" opacity="1.00" d=" M 31.74 17.06 C 27.92 17.24 28.42 10.67 32.04 11.04 C 35.62 10.76 36.03 17.25 32.26 17.06 C 34.43 20.11 38.74 20.04 41.06 22.94 C 45.76 27.50 45.91 35.58 41.25 40.22 C 36.75 45.44 28.09 45.76 23.29 40.78 C 18.15 36.23 18.00 27.66 22.96 22.92 C 25.28 20.03 29.58 20.11 31.74 17.06 M 29.55 25.67 C 24.72 27.48 24.07 34.80 28.69 37.25 C 32.61 40.11 38.39 36.61 38.58 32.02 C 38.91 27.52 33.71 23.73 29.55 25.67 Z" />
<path fill="#f0c734" opacity="1.00" d=" M 17.65 16.63 C 20.53 14.92 24.30 19.29 21.63 21.62 C 18.71 24.82 13.85 18.82 17.65 16.63 Z" />
<path fill="#f0c734" opacity="1.00" d=" M 41.68 20.88 C 40.54 18.02 43.59 15.93 46.18 16.17 C 46.91 17.25 48.03 18.33 47.68 19.77 C 47.09 22.46 43.11 23.62 41.68 20.88 Z" />
<path fill="#f0c734" opacity="1.00" d=" M 12.40 29.51 C 14.33 28.52 17.62 29.49 17.35 32.05 C 17.56 34.21 14.90 35.29 13.10 34.73 C 10.68 34.35 10.37 30.58 12.40 29.51 Z" />
<path fill="#f0c734" opacity="1.00" d=" M 48.30 29.38 C 50.27 28.62 53.18 29.54 52.93 32.07 C 53.14 35.01 48.76 35.79 47.24 33.72 C 45.91 32.45 46.71 30.06 48.30 29.38 Z" />
<path fill="#f0c734" opacity="1.00" d=" M 16.29 44.93 C 16.13 42.58 18.63 41.42 20.63 41.34 C 22.18 42.54 23.48 45.02 21.54 46.52 C 20.11 48.66 16.12 47.60 16.29 44.93 Z" />
<path fill="#f0c734" opacity="1.00" d=" M 43.58 41.57 C 46.78 40.61 49.53 45.73 46.21 47.36 C 42.58 49.32 39.24 42.88 43.58 41.57 Z" />
<path fill="#f0c734" opacity="1.00" d=" M 30.26 47.29 C 34.00 44.14 37.13 51.84 32.80 52.82 C 29.52 54.01 27.74 48.95 30.26 47.29 Z" />
</g>
</svg>
