<?xml version="1.0" encoding="UTF-8" ?>
<!DOCTYPE svg PUBLIC "-//W3C//DTD SVG 1.1//EN" "http://www.w3.org/Graphics/SVG/1.1/DTD/svg11.dtd">
<svg width="64pt" height="64pt" viewBox="0 0 64 64" version="1.1" xmlns="http://www.w3.org/2000/svg">
<g id="#3f586fc7">
<path fill="#3f586f" opacity="0.78" d=" M 11.99 3.04 C 25.33 2.96 38.67 2.96 52.02 3.04 L 51.96 4.01 C 38.65 4.00 25.35 3.97 12.05 4.02 L 11.99 3.04 Z" />
<path fill="#3f586f" opacity="0.78" d=" M 5.41 9.14 C 5.10 7.41 7.41 5.10 9.14 5.41 C 8.78 7.29 7.29 8.78 5.41 9.14 Z" />
<path fill="#3f586f" opacity="0.78" d=" M 54.86 5.41 C 56.59 5.10 58.90 7.41 58.59 9.14 C 56.71 8.78 55.22 7.29 54.86 5.41 Z" />
<path fill="#3f586f" opacity="0.78" d=" M 3.04 11.99 L 4.02 12.05 C 3.96 25.37 4.03 38.69 3.99 52.01 L 3.02 51.99 C 2.98 38.66 2.95 25.32 3.04 11.99 Z" />
<path fill="#3f586f" opacity="0.78" d=" M 59.99 12.04 L 60.96 11.98 C 61.04 25.32 61.02 38.65 60.98 51.99 L 60.01 52.01 C 59.99 38.69 60.02 25.37 59.99 12.04 Z" />
<path fill="#3f586f" opacity="0.78" d=" M 5.42 54.84 C 7.29 55.24 8.76 56.71 9.16 58.58 C 7.41 58.92 5.08 56.59 5.42 54.84 Z" />
<path fill="#3f586f" opacity="0.78" d=" M 54.84 58.58 C 55.24 56.71 56.71 55.24 58.58 54.84 C 58.92 56.59 56.59 58.92 54.84 58.58 Z" />
<path fill="#3f586f" opacity="0.78" d=" M 11.99 60.01 C 25.33 60.00 38.67 60.00 52.01 60.01 L 51.99 60.98 C 38.66 61.03 25.34 61.03 12.01 60.98 L 11.99 60.01 Z" />
</g>
<g id="#6285a6ff">
<path fill="#6285a6" opacity="1.00" d=" M 9.14 5.41 C 10.06 4.84 11.03 4.38 12.05 4.02 C 25.35 3.97 38.65 4.00 51.96 4.01 C 52.97 4.38 53.94 4.84 54.86 5.41 C 55.22 7.29 56.71 8.78 58.59 9.14 C 59.16 10.06 59.62 11.03 59.99 12.04 C 60.02 25.37 59.99 38.69 60.01 52.01 C 60.23 53.33 59.76 54.27 58.58 54.84 C 56.71 55.24 55.24 56.71 54.84 58.58 C 54.27 59.76 53.33 60.23 52.01 60.01 C 38.67 60.00 25.33 60.00 11.99 60.01 C 10.67 60.23 9.73 59.76 9.16 58.58 C 8.76 56.71 7.29 55.24 5.42 54.84 C 4.24 54.27 3.77 53.33 3.99 52.01 C 4.03 38.69 3.96 25.37 4.02 12.05 C 4.38 11.03 4.84 10.06 5.41 9.14 C 7.29 8.78 8.78 7.29 9.14 5.41 M 15.33 6.40 C 11.87 7.24 7.56 9.06 6.89 12.93 C 4.67 17.36 4.88 25.14 9.19 28.82 C 11.63 30.25 10.45 25.49 12.45 28.03 C 12.40 29.84 12.29 33.44 12.23 35.25 L 11.89 36.04 C 15.36 37.07 14.83 30.16 18.30 32.78 C 14.09 36.25 12.87 41.67 15.27 46.66 C 17.60 47.21 19.64 48.71 22.01 49.01 C 27.10 48.48 32.39 43.06 29.40 37.64 C 27.60 33.62 23.60 31.37 18.98 32.80 C 19.05 32.37 19.19 31.50 19.26 31.06 C 27.07 32.75 35.04 30.60 42.81 31.99 C 42.33 28.31 45.88 25.74 49.00 24.97 C 52.24 23.98 51.98 29.39 54.80 28.85 C 59.46 25.06 58.68 17.62 57.09 12.95 C 56.24 8.49 50.98 6.74 47.01 6.04 C 36.46 6.05 25.86 5.61 15.33 6.40 M 49.36 26.08 C 48.92 28.31 46.30 28.00 44.85 29.25 C 42.62 30.08 44.28 33.63 45.54 34.94 C 44.93 43.63 27.28 33.02 32.01 44.95 C 37.40 44.63 44.25 46.86 48.26 42.27 C 53.32 38.77 53.42 30.06 49.36 26.08 Z" />
<path fill="#6285a6" opacity="1.00" d=" M 42.79 18.62 C 44.85 17.54 48.37 20.38 47.28 22.41 C 45.77 21.16 44.31 19.85 42.79 18.62 Z" />
<path fill="#6285a6" opacity="1.00" d=" M 11.91 24.80 C 17.44 15.54 29.47 19.45 38.19 19.78 C 30.09 20.79 19.47 17.24 13.81 24.96 C 13.33 24.92 12.38 24.84 11.91 24.80 Z" />
<path fill="#6285a6" opacity="1.00" d=" M 21.21 36.21 C 25.44 34.41 22.38 41.60 23.00 44.01 C 21.27 47.55 20.06 41.80 20.83 39.23 C 17.67 39.23 20.08 37.35 21.21 36.21 Z" />
</g>
<g id="#f8fafcff">
<path fill="#f8fafc" opacity="1.00" d=" M 15.33 6.40 C 25.86 5.61 36.46 6.05 47.01 6.04 C 50.98 6.74 56.24 8.49 57.09 12.95 C 53.68 10.69 50.87 6.50 46.01 8.04 C 35.99 7.92 25.98 7.96 15.97 7.97 C 12.14 7.58 9.81 11.12 6.89 12.93 C 7.56 9.06 11.87 7.24 15.33 6.40 Z" />
<path fill="#f8fafc" opacity="1.00" d=" M 38.10 15.84 C 39.84 16.44 41.25 17.65 42.79 18.62 C 44.31 19.85 45.77 21.16 47.28 22.41 C 45.44 25.86 41.68 28.21 38.35 30.24 C 38.58 28.85 38.87 27.46 39.00 26.06 C 33.44 25.81 27.86 25.90 22.31 26.26 C 19.66 27.16 18.73 30.23 16.13 31.19 C 14.35 31.99 13.44 33.82 12.23 35.25 C 12.29 33.44 12.40 29.84 12.45 28.03 C 12.91 27.01 13.36 25.99 13.81 24.96 C 19.47 17.24 30.09 20.79 38.19 19.78 C 39.90 19.79 37.84 16.97 38.10 15.84 Z" />
<path fill="#f8fafc" opacity="1.00" d=" M 49.36 26.08 C 53.42 30.06 53.32 38.77 48.26 42.27 C 44.25 46.86 37.40 44.63 32.01 44.95 C 27.28 33.02 44.93 43.63 45.54 34.94 C 46.39 33.04 45.24 31.11 44.85 29.25 C 46.30 28.00 48.92 28.31 49.36 26.08 Z" />
<path fill="#f8fafc" opacity="1.00" d=" M 18.30 32.78 L 18.98 32.80 C 23.60 31.37 27.60 33.62 29.40 37.64 C 32.39 43.06 27.10 48.48 22.01 49.01 C 19.64 48.71 17.60 47.21 15.27 46.66 C 12.87 41.67 14.09 36.25 18.30 32.78 M 21.21 36.21 C 20.08 37.35 17.67 39.23 20.83 39.23 C 20.06 41.80 21.27 47.55 23.00 44.01 C 22.38 41.60 25.44 34.41 21.21 36.21 Z" />
</g>
<g id="#9cb8d2ff">
<path fill="#9cb8d2" opacity="1.00" d=" M 6.89 12.93 C 9.81 11.12 12.14 7.58 15.97 7.97 C 25.98 7.96 35.99 7.92 46.01 8.04 C 50.87 6.50 53.68 10.69 57.09 12.95 C 58.68 17.62 59.46 25.06 54.80 28.85 C 51.98 29.39 52.24 23.98 49.00 24.97 C 45.88 25.74 42.33 28.31 42.81 31.99 C 35.04 30.60 27.07 32.75 19.26 31.06 C 19.19 31.50 19.05 32.37 18.98 32.80 L 18.30 32.78 C 14.83 30.16 15.36 37.07 11.89 36.04 L 12.23 35.25 C 13.44 33.82 14.35 31.99 16.13 31.19 C 18.73 30.23 19.66 27.16 22.31 26.26 C 27.86 25.90 33.44 25.81 39.00 26.06 C 38.87 27.46 38.58 28.85 38.35 30.24 C 41.68 28.21 45.44 25.86 47.28 22.41 C 48.37 20.38 44.85 17.54 42.79 18.62 C 41.25 17.65 39.84 16.44 38.10 15.84 C 37.84 16.97 39.90 19.79 38.19 19.78 C 29.47 19.45 17.44 15.54 11.91 24.80 C 12.38 24.84 13.33 24.92 13.81 24.96 C 13.36 25.99 12.91 27.01 12.45 28.03 C 10.45 25.49 11.63 30.25 9.19 28.82 C 4.88 25.14 4.67 17.36 6.89 12.93 Z" />
<path fill="#9cb8d2" opacity="1.00" d=" M 45.54 34.94 C 44.28 33.63 42.62 30.08 44.85 29.25 C 45.24 31.11 46.39 33.04 45.54 34.94 Z" />
</g>
</svg>
