<?xml version="1.0" encoding="UTF-8" ?>
<!DOCTYPE svg PUBLIC "-//W3C//DTD SVG 1.1//EN" "http://www.w3.org/Graphics/SVG/1.1/DTD/svg11.dtd">
<svg width="64pt" height="64pt" viewBox="0 0 64 64" version="1.1" xmlns="http://www.w3.org/2000/svg">
<g id="#4d4d4df0">
<path fill="#4d4d4d" opacity="0.94" d=" M 17.99 3.89 C 24.05 1.88 30.92 3.22 36.10 6.85 C 43.47 11.93 47.02 22.14 43.84 30.60 C 43.17 32.73 41.25 34.88 42.80 37.07 C 46.87 37.04 49.21 40.65 51.86 43.15 C 54.43 45.90 57.43 48.28 59.68 51.32 C 62.24 54.85 59.51 60.73 55.04 60.71 C 50.92 61.46 48.62 57.46 46.00 55.08 C 42.58 51.11 37.41 48.19 36.40 42.66 C 34.75 41.57 33.13 42.88 31.58 43.42 C 25.23 46.22 17.57 45.06 11.97 41.11 C 4.94 36.31 1.34 26.86 3.72 18.63 C 5.50 11.68 11.08 5.88 17.99 3.89 M 20.66 7.07 C 15.80 7.80 11.75 11.12 9.11 15.14 C 5.15 21.68 6.03 30.95 11.72 36.23 C 17.99 43.15 30.12 43.14 36.34 36.17 C 41.47 31.42 42.79 23.37 39.97 17.06 C 36.81 9.81 28.44 5.32 20.66 7.07 Z" />
<path fill="#4d4d4d" opacity="0.94" d=" M 20.10 10.09 C 23.88 9.93 28.14 9.23 31.42 11.60 C 34.21 13.21 35.85 16.06 37.41 18.76 C 36.61 18.65 35.00 18.42 34.20 18.31 L 34.81 19.59 C 33.65 19.57 31.32 19.52 30.16 19.49 L 30.96 16.88 L 29.38 18.47 C 25.51 18.80 21.62 18.36 17.74 18.65 C 15.71 19.78 13.33 19.51 11.10 19.55 C 11.60 14.87 15.74 11.22 20.10 10.09 Z" />
</g>
</svg>
