<?xml version="1.0" encoding="UTF-8" ?>
<!DOCTYPE svg PUBLIC "-//W3C//DTD SVG 1.1//EN" "http://www.w3.org/Graphics/SVG/1.1/DTD/svg11.dtd">
<svg width="64pt" height="64pt" viewBox="0 0 64 64" version="1.1" xmlns="http://www.w3.org/2000/svg">
<g id="#976d67fa">
<path fill="#976d67" opacity="0.98" d=" M 22.24 0.00 L 26.64 0.00 C 36.97 4.74 43.57 14.45 48.89 24.08 C 51.82 30.72 54.67 37.64 55.04 44.98 C 52.85 50.57 59.39 52.11 60.98 56.08 C 61.90 59.33 58.43 60.98 56.00 62.04 C 54.37 61.07 53.17 59.54 51.68 58.39 C 48.34 58.25 44.74 59.25 41.81 57.16 C 37.48 54.09 32.13 53.33 27.09 52.11 C 24.21 53.50 21.77 56.20 18.08 55.02 C 12.32 52.04 8.74 46.26 6.59 40.36 C 4.83 35.97 2.99 28.78 8.19 26.18 C 10.47 24.25 15.42 24.09 12.76 19.29 C 9.70 15.97 6.31 12.97 3.19 9.71 C 0.52 5.65 4.93 3.28 7.92 3.01 C 11.29 4.70 13.08 8.69 16.68 10.18 C 16.26 5.76 18.52 1.99 22.24 0.00 Z" />
</g>
</svg>
