<?xml version="1.0" encoding="UTF-8" ?>
<!DOCTYPE svg PUBLIC "-//W3C//DTD SVG 1.1//EN" "http://www.w3.org/Graphics/SVG/1.1/DTD/svg11.dtd">
<svg width="64pt" height="64pt" viewBox="0 0 64 64" version="1.1" xmlns="http://www.w3.org/2000/svg">
<g id="#bcbcbcf2">
<path fill="#bcbcbc" opacity="0.95" d=" M 20.06 19.06 C 22.61 6.68 38.29 -0.91 49.30 5.68 C 54.91 8.09 58.41 13.35 59.94 19.05 C 59.98 22.37 60.00 25.70 60.03 29.02 C 60.21 31.14 59.28 33.24 57.83 34.75 C 55.53 36.49 53.50 38.54 51.66 40.74 C 49.93 43.16 46.96 44.40 44.01 44.02 C 41.34 44.00 38.66 44.00 35.99 44.02 C 33.33 44.46 31.01 43.24 28.99 41.65 C 27.65 40.57 25.98 40.32 24.31 40.37 C 23.59 38.60 23.19 36.71 22.29 35.03 C 21.19 33.16 19.61 31.35 19.97 29.02 C 19.99 25.70 19.97 22.38 20.06 19.06 M 31.69 8.68 C 27.37 10.92 23.93 15.20 23.00 19.98 L 22.05 20.03 C 22.46 22.44 20.79 27.06 22.98 28.03 C 22.76 29.73 23.45 31.28 24.41 32.64 C 25.95 34.21 25.66 37.24 28.06 37.91 C 30.85 38.63 32.86 41.51 35.98 41.02 L 36.04 41.96 C 38.44 41.54 43.06 43.21 44.03 41.02 C 45.73 41.23 47.29 40.55 48.64 39.59 C 50.21 38.05 53.24 38.33 53.91 35.94 C 54.66 33.10 57.58 31.04 57.06 27.85 C 58.85 27.03 58.86 21.95 57.04 21.15 C 55.98 9.52 41.69 3.30 31.69 8.68 Z" />
<path fill="#bcbcbc" opacity="0.95" d=" M 31.82 12.42 C 35.21 12.18 37.14 8.44 41.03 9.99 C 43.78 9.50 45.48 12.37 48.23 12.33 C 48.09 12.65 47.82 13.28 47.68 13.59 C 42.39 13.27 37.10 12.88 31.82 12.42 Z" />
<path fill="#bcbcbc" opacity="0.95" d=" M 22.22 41.18 L 23.05 40.91 C 23.01 41.38 22.93 42.32 22.88 42.79 C 21.12 44.41 19.41 46.08 17.77 47.83 C 16.69 48.94 15.63 50.23 13.90 50.03 C 14.79 48.61 16.00 47.42 17.17 46.23 C 18.90 44.59 20.57 42.89 22.22 41.18 Z" />
</g>
<g id="#6b6b6b8c">
<path fill="#6b6b6b" opacity="0.55" d=" M 26.96 19.99 C 26.75 16.91 29.00 13.29 31.82 12.42 C 37.10 12.88 42.39 13.27 47.68 13.59 C 47.82 13.28 48.09 12.65 48.23 12.33 C 51.96 13.21 56.95 23.58 47.99 19.97 C 40.99 18.63 34.00 19.74 26.96 19.99 Z" />
<path fill="#6b6b6b" opacity="0.55" d=" M 18.99 28.99 C 19.26 26.51 19.79 21.54 20.06 19.06 C 19.97 22.38 19.99 25.70 19.97 29.02 L 18.99 28.99 Z" />
<path fill="#6b6b6b" opacity="0.55" d=" M 59.94 19.05 L 60.95 18.98 C 60.72 21.49 60.26 26.51 60.03 29.02 C 60.00 25.70 59.98 22.37 59.94 19.05 Z" />
<path fill="#6b6b6b" opacity="0.55" d=" M 22.05 20.03 L 23.00 19.98 C 22.99 22.66 22.98 25.34 22.98 28.03 C 20.79 27.06 22.46 22.44 22.05 20.03 Z" />
<path fill="#6b6b6b" opacity="0.55" d=" M 57.04 21.15 C 58.86 21.95 58.85 27.03 57.06 27.85 C 57.05 26.18 57.04 22.82 57.04 21.15 Z" />
<path fill="#6b6b6b" opacity="0.55" d=" M 51.66 40.74 C 53.50 38.54 55.53 36.49 57.83 34.75 C 57.64 37.74 54.59 40.30 51.66 40.74 Z" />
<path fill="#6b6b6b" opacity="0.55" d=" M 17.17 46.23 C 16.80 43.67 19.65 40.80 22.22 41.18 C 20.57 42.89 18.90 44.59 17.17 46.23 Z" />
<path fill="#6b6b6b" opacity="0.55" d=" M 35.98 41.02 C 38.66 41.01 41.34 41.01 44.03 41.02 C 43.06 43.21 38.44 41.54 36.04 41.96 L 35.98 41.02 Z" />
<path fill="#6b6b6b" opacity="0.55" d=" M 17.77 47.83 C 19.41 46.08 21.12 44.41 22.88 42.79 C 23.13 45.34 20.36 48.20 17.77 47.83 Z" />
<path fill="#6b6b6b" opacity="0.55" d=" M 35.99 44.02 C 38.66 44.00 41.34 44.00 44.01 44.02 C 43.08 46.21 38.43 44.54 36.03 44.96 L 35.99 44.02 Z" />
</g>
<g id="#292929f8">
<path fill="#292929" opacity="0.97" d=" M 22.29 35.03 C 23.19 36.71 23.59 38.60 24.31 40.37 C 25.98 40.32 27.65 40.57 28.99 41.65 C 26.24 43.94 26.50 48.27 23.28 50.28 C 19.53 53.50 16.62 57.84 12.35 60.40 C 6.65 63.85 -0.32 54.41 5.24 50.23 C 9.63 45.99 13.74 41.44 18.30 37.40 C 19.87 37.01 21.28 36.34 22.29 35.03 M 17.17 46.23 C 16.00 47.42 14.79 48.61 13.90 50.03 C 15.63 50.23 16.69 48.94 17.77 47.83 C 20.36 48.20 23.13 45.34 22.88 42.79 C 22.93 42.32 23.01 41.38 23.05 40.91 L 22.22 41.18 C 19.65 40.80 16.80 43.67 17.17 46.23 Z" />
</g>
</svg>
