<?xml version="1.0" encoding="UTF-8" ?>
<!DOCTYPE svg PUBLIC "-//W3C//DTD SVG 1.1//EN" "http://www.w3.org/Graphics/SVG/1.1/DTD/svg11.dtd">
<svg width="64pt" height="64pt" viewBox="0 0 64 64" version="1.1" xmlns="http://www.w3.org/2000/svg">
<g id="#e53c0fff">
<path fill="#e53c0f" opacity="1.00" d=" M 23.37 4.62 C 31.97 1.92 41.83 3.45 49.04 8.92 C 57.17 14.81 61.73 25.15 60.56 35.12 C 59.41 48.89 46.86 60.62 33.02 60.69 C 22.71 61.30 12.46 55.54 7.28 46.68 C 2.01 38.11 1.97 26.70 6.95 18.00 C 10.46 11.67 16.47 6.78 23.37 4.62 M 13.59 13.57 C 10.06 17.37 6.83 22.25 7.07 27.64 C 8.96 25.24 9.89 22.29 11.27 19.60 C 11.77 19.62 12.76 19.67 13.25 19.69 L 12.75 20.72 C 14.15 21.30 15.55 21.90 16.96 22.47 C 16.34 24.92 17.02 27.43 17.24 29.89 C 14.96 29.01 12.68 28.14 10.41 27.25 C 7.89 37.31 13.74 48.66 23.38 52.53 C 33.30 57.15 47.11 52.84 51.51 42.59 L 50.39 42.96 L 49.71 42.63 C 51.44 40.58 50.61 37.79 50.59 35.38 C 51.49 35.70 53.29 36.35 54.19 36.67 C 54.87 32.08 54.64 27.25 52.62 23.00 C 52.16 21.10 50.92 19.50 49.95 17.83 C 54.07 19.64 54.44 24.60 56.85 27.90 C 56.97 26.17 56.98 24.39 56.25 22.79 C 53.58 15.38 47.34 9.44 39.85 7.05 C 30.78 4.13 20.21 6.65 13.59 13.57 Z" />
<path fill="#e53c0f" opacity="1.00" d=" M 23.93 25.16 C 25.32 25.70 26.74 26.19 28.14 26.72 L 28.27 27.07 C 29.07 28.52 30.36 29.58 31.62 30.63 C 30.25 31.67 28.91 32.74 27.57 33.81 L 27.40 33.76 C 26.25 33.33 25.09 32.92 23.93 32.51 L 23.93 32.35 C 23.91 29.96 23.94 27.56 23.93 25.16 Z" />
<path fill="#e53c0f" opacity="1.00" d=" M 33.31 36.11 C 35.11 33.44 38.87 32.36 41.67 34.15 C 44.01 35.35 44.09 38.22 44.58 40.46 L 44.21 40.32 C 40.57 38.94 36.95 37.50 33.31 36.11 Z" />
</g>
<g id="#f78873ff">
<path fill="#f78873" opacity="1.00" d=" M 13.59 13.57 C 20.21 6.65 30.78 4.13 39.85 7.05 C 47.34 9.44 53.58 15.38 56.25 22.79 C 56.98 24.39 56.97 26.17 56.85 27.90 C 54.44 24.60 54.07 19.64 49.95 17.83 C 46.51 13.99 42.10 10.81 36.92 9.90 C 28.01 7.86 18.05 11.87 13.25 19.69 C 12.76 19.67 11.77 19.62 11.27 19.60 C 9.89 22.29 8.96 25.24 7.07 27.64 C 6.83 22.25 10.06 17.37 13.59 13.57 Z" />
<path fill="#f78873" opacity="1.00" d=" M 16.96 22.47 L 17.34 22.62 C 19.53 23.47 21.73 24.31 23.93 25.16 C 23.94 27.56 23.91 29.96 23.93 32.35 C 21.68 31.58 19.45 30.75 17.24 29.89 C 17.02 27.43 16.34 24.92 16.96 22.47 Z" />
<path fill="#f78873" opacity="1.00" d=" M 28.27 27.07 C 35.80 29.24 42.92 32.57 50.26 35.26 C 50.34 35.29 50.51 35.35 50.59 35.38 C 50.61 37.79 51.44 40.58 49.71 42.63 C 48.03 41.85 46.32 41.13 44.58 40.46 C 44.09 38.22 44.01 35.35 41.67 34.15 C 38.87 32.36 35.11 33.44 33.31 36.11 L 33.10 36.03 C 31.25 35.30 29.41 34.55 27.57 33.81 C 28.91 32.74 30.25 31.67 31.62 30.63 C 30.36 29.58 29.07 28.52 28.27 27.07 Z" />
</g>
<g id="#4d4d4dff">
<path fill="#4d4d4d" opacity="1.00" d=" M 13.25 19.69 C 18.05 11.87 28.01 7.86 36.92 9.90 C 42.10 10.81 46.51 13.99 49.95 17.83 C 50.92 19.50 52.16 21.10 52.62 23.00 C 52.49 24.57 52.41 26.14 52.38 27.71 C 51.27 27.48 50.16 27.25 49.05 27.02 C 49.32 24.62 49.59 21.93 48.12 19.84 C 43.89 13.46 33.16 13.65 28.86 19.85 C 27.40 21.84 27.74 24.45 28.14 26.72 C 26.74 26.19 25.32 25.70 23.93 25.16 C 23.88 22.07 23.88 18.98 23.93 15.89 C 21.96 15.90 19.99 15.81 18.03 16.07 C 16.63 17.92 17.52 20.46 17.34 22.62 L 16.96 22.47 C 15.55 21.90 14.15 21.30 12.75 20.72 L 13.25 19.69 Z" />
<path fill="#4d4d4d" opacity="1.00" d=" M 33.31 22.74 C 34.94 18.24 42.15 17.93 43.66 22.67 C 41.21 26.61 36.18 25.61 33.31 22.74 Z" />
</g>
<g id="#ffffffff">
<path fill="#ffffff" opacity="1.00" d=" M 28.86 19.85 C 33.16 13.65 43.89 13.46 48.12 19.84 C 49.59 21.93 49.32 24.62 49.05 27.02 C 48.00 28.60 46.54 29.82 44.97 30.87 C 47.38 31.43 49.20 33.05 50.26 35.26 C 42.92 32.57 35.80 29.24 28.27 27.07 L 28.14 26.72 C 27.74 24.45 27.40 21.84 28.86 19.85 M 33.31 22.74 C 33.17 25.92 35.83 28.46 39.01 27.96 C 41.99 28.15 43.81 25.41 43.66 22.67 C 42.15 17.93 34.94 18.24 33.31 22.74 Z" />
<path fill="#ffffff" opacity="1.00" d=" M 18.03 16.07 C 19.99 15.81 21.96 15.90 23.93 15.89 C 23.88 18.98 23.88 22.07 23.93 25.16 C 21.73 24.31 19.53 23.47 17.34 22.62 C 17.52 20.46 16.63 17.92 18.03 16.07 Z" />
<path fill="#ffffff" opacity="1.00" d=" M 17.24 29.89 C 19.45 30.75 21.68 31.58 23.93 32.35 L 23.93 32.51 C 23.99 37.80 23.92 43.10 24.10 48.38 C 21.96 48.39 19.82 48.38 17.68 48.36 C 16.67 42.26 17.43 36.04 17.24 29.89 Z" />
<path fill="#ffffff" opacity="1.00" d=" M 27.40 33.76 L 27.57 33.81 C 29.41 34.55 31.25 35.30 33.10 36.03 C 32.54 38.51 32.82 41.51 35.16 43.00 C 38.30 45.07 42.65 43.69 44.21 40.32 L 44.58 40.46 C 46.32 41.13 48.03 41.85 49.71 42.63 L 50.39 42.96 C 45.86 49.78 35.38 50.92 29.16 45.86 C 25.66 42.90 25.52 37.66 27.40 33.76 Z" />
</g>
<g id="#000000ff">
<path fill="#000000" opacity="1.00" d=" M 33.31 22.74 C 36.18 25.61 41.21 26.61 43.66 22.67 C 43.81 25.41 41.99 28.15 39.01 27.96 C 35.83 28.46 33.17 25.92 33.31 22.74 Z" />
<path fill="#000000" opacity="1.00" d=" M 52.62 23.00 C 54.64 27.25 54.87 32.08 54.19 36.67 C 53.29 36.35 51.49 35.70 50.59 35.38 C 50.51 35.35 50.34 35.29 50.26 35.26 C 49.20 33.05 47.38 31.43 44.97 30.87 C 46.54 29.82 48.00 28.60 49.05 27.02 C 50.16 27.25 51.27 27.48 52.38 27.71 C 52.41 26.14 52.49 24.57 52.62 23.00 Z" />
<path fill="#000000" opacity="1.00" d=" M 23.38 52.53 C 13.74 48.66 7.89 37.31 10.41 27.25 C 12.68 28.14 14.96 29.01 17.24 29.89 C 17.43 36.04 16.67 42.26 17.68 48.36 C 19.82 48.38 21.96 48.39 24.10 48.38 C 23.92 43.10 23.99 37.80 23.93 32.51 C 25.09 32.92 26.25 33.33 27.40 33.76 C 25.52 37.66 25.66 42.90 29.16 45.86 C 35.38 50.92 45.86 49.78 50.39 42.96 L 51.51 42.59 C 47.11 52.84 33.30 57.15 23.38 52.53 Z" />
<path fill="#000000" opacity="1.00" d=" M 33.10 36.03 L 33.31 36.11 C 36.95 37.50 40.57 38.94 44.21 40.32 C 42.65 43.69 38.30 45.07 35.16 43.00 C 32.82 41.51 32.54 38.51 33.10 36.03 Z" />
</g>
</svg>
