<?xml version="1.0" encoding="UTF-8" ?>
<!DOCTYPE svg PUBLIC "-//W3C//DTD SVG 1.1//EN" "http://www.w3.org/Graphics/SVG/1.1/DTD/svg11.dtd">
<svg width="64pt" height="64pt" viewBox="0 0 64 64" version="1.1" xmlns="http://www.w3.org/2000/svg">
<g id="#282828ff">
<path fill="#282828" opacity="1.00" d=" M 8.19 16.00 C 13.24 8.00 22.64 3.16 32.04 3.22 C 41.37 3.18 50.68 7.99 55.74 15.88 C 48.85 10.59 41.04 5.49 32.00 5.69 C 22.91 5.48 15.06 10.63 8.19 16.00 Z" />
<path fill="#282828" opacity="1.00" d=" M 14.63 35.84 C 14.62 35.60 14.60 35.13 14.59 34.90 C 15.96 42.81 22.72 49.65 30.95 49.90 C 37.99 50.54 44.60 46.17 47.84 40.08 C 47.73 40.75 47.50 42.10 47.39 42.78 C 43.36 51.05 32.55 54.09 24.41 50.36 C 21.71 49.05 19.54 46.90 17.67 44.60 C 15.98 41.96 14.90 38.97 14.63 35.84 Z" />
</g>
<g id="#424242ff">
<path fill="#424242" opacity="1.00" d=" M 8.19 16.00 C 15.06 10.63 22.91 5.48 32.00 5.69 C 41.04 5.49 48.85 10.59 55.74 15.88 C 58.38 19.61 60.02 24.01 60.53 28.55 C 56.12 20.70 50.31 12.40 40.99 10.22 C 32.53 8.66 22.91 8.55 15.55 13.65 C 10.10 17.26 6.76 23.09 3.47 28.56 C 3.98 24.06 5.58 19.69 8.19 16.00 Z" />
</g>
<g id="#585858ff">
<path fill="#585858" opacity="1.00" d=" M 15.55 13.65 C 22.91 8.55 32.53 8.66 40.99 10.22 C 50.31 12.40 56.12 20.70 60.53 28.55 C 61.25 33.52 60.40 38.63 58.50 43.26 C 58.99 37.42 59.26 30.64 55.09 25.98 C 53.17 23.59 49.78 24.68 47.16 24.40 C 42.86 16.55 32.29 13.19 24.31 17.34 C 20.33 19.09 17.87 22.80 15.65 26.35 C 13.41 26.35 11.15 26.30 8.93 26.62 C 4.81 31.09 5.12 37.65 5.53 43.30 C 3.61 38.67 2.74 33.54 3.47 28.56 C 6.76 23.09 10.10 17.26 15.55 13.65 Z" />
</g>
<g id="#f1f1f1ff">
<path fill="#f1f1f1" opacity="1.00" d=" M 24.31 17.34 C 32.29 13.19 42.86 16.55 47.16 24.40 C 47.44 25.00 48.01 26.19 48.29 26.79 C 37.42 26.10 26.52 26.80 15.65 26.35 C 17.87 22.80 20.33 19.09 24.31 17.34 Z" />
</g>
<g id="#6d6d6dff">
<path fill="#6d6d6d" opacity="1.00" d=" M 47.16 24.40 C 49.78 24.68 53.17 23.59 55.09 25.98 C 59.26 30.64 58.99 37.42 58.50 43.26 C 57.83 44.70 57.00 46.06 56.19 47.43 C 57.11 42.40 56.80 37.29 55.94 32.28 C 54.46 32.34 52.97 32.38 51.49 32.41 C 50.60 35.85 49.69 39.30 48.65 42.70 L 47.39 42.78 C 47.50 42.10 47.73 40.75 47.84 40.08 C 48.20 38.53 48.60 36.99 48.95 35.44 C 49.30 32.54 48.97 29.61 48.29 26.79 C 48.01 26.19 47.44 25.00 47.16 24.40 Z" />
</g>
<g id="#ddddddff">
<path fill="#dddddd" opacity="1.00" d=" M 15.65 26.35 C 26.52 26.80 37.42 26.10 48.29 26.79 C 48.97 29.61 49.30 32.54 48.95 35.44 C 37.49 35.33 26.00 36.07 14.59 34.90 C 14.84 32.04 15.39 29.21 15.65 26.35 Z" />
</g>
<g id="#707070ff">
<path fill="#707070" opacity="1.00" d=" M 8.93 26.62 C 11.15 26.30 13.41 26.35 15.65 26.35 C 15.39 29.21 14.84 32.04 14.59 34.90 C 14.60 35.13 14.62 35.60 14.63 35.84 C 12.49 35.04 10.27 34.45 8.11 33.72 C 7.73 38.03 6.95 42.35 7.41 46.69 C 6.74 45.58 6.12 44.45 5.53 43.30 C 5.12 37.65 4.81 31.09 8.93 26.62 Z" />
</g>
<g id="#7c7c7cff">
<path fill="#7c7c7c" opacity="1.00" d=" M 51.49 32.41 C 52.97 32.38 54.46 32.34 55.94 32.28 C 56.80 37.29 57.11 42.40 56.19 47.43 C 54.30 50.85 51.31 53.51 48.16 55.77 C 50.97 51.86 53.28 47.53 53.83 42.68 C 52.11 42.66 50.38 42.65 48.65 42.70 C 49.69 39.30 50.60 35.85 51.49 32.41 Z" />
</g>
<g id="#7e7e7eff">
<path fill="#7e7e7e" opacity="1.00" d=" M 8.11 33.72 C 10.27 34.45 12.49 35.04 14.63 35.84 C 14.90 38.97 15.98 41.96 17.67 44.60 C 15.09 44.13 12.52 43.65 9.95 43.15 C 11.36 47.59 13.08 51.98 15.84 55.77 C 12.49 53.35 9.27 50.45 7.41 46.69 C 6.95 42.35 7.73 38.03 8.11 33.72 Z" />
</g>
<g id="#c6c6c6ff">
<path fill="#c6c6c6" opacity="1.00" d=" M 14.59 34.90 C 26.00 36.07 37.49 35.33 48.95 35.44 C 48.60 36.99 48.20 38.53 47.84 40.08 C 44.60 46.17 37.99 50.54 30.95 49.90 C 22.72 49.65 15.96 42.81 14.59 34.90 Z" />
</g>
<g id="#919191ff">
<path fill="#919191" opacity="1.00" d=" M 47.39 42.78 L 48.65 42.70 C 50.38 42.65 52.11 42.66 53.83 42.68 C 53.28 47.53 50.97 51.86 48.16 55.77 C 38.77 62.42 25.24 62.41 15.84 55.77 C 13.08 51.98 11.36 47.59 9.95 43.15 C 12.52 43.65 15.09 44.13 17.67 44.60 C 19.54 46.90 21.71 49.05 24.41 50.36 C 32.55 54.09 43.36 51.05 47.39 42.78 Z" />
</g>
</svg>
