<?xml version="1.0" encoding="UTF-8" ?>
<!DOCTYPE svg PUBLIC "-//W3C//DTD SVG 1.1//EN" "http://www.w3.org/Graphics/SVG/1.1/DTD/svg11.dtd">
<svg width="64pt" height="64pt" viewBox="0 0 64 64" version="1.1" xmlns="http://www.w3.org/2000/svg">
<g id="#2d2d2dff">
<path fill="#2d2d2d" opacity="1.00" d=" M 40.00 13.00 C 39.95 10.32 39.98 7.65 40.14 4.98 C 46.04 9.91 52.08 14.66 58.05 19.51 C 52.08 24.32 46.02 29.01 40.18 33.98 C 39.98 31.32 39.93 28.66 40.00 26.00 C 30.00 25.99 20.00 25.99 10.00 26.00 C 10.00 21.67 10.00 17.33 10.00 13.00 C 20.00 13.00 30.00 13.00 40.00 13.00 Z" />
<path fill="#2d2d2d" opacity="1.00" d=" M 5.19 46.00 C 3.40 42.74 4.85 37.48 9.00 37.07 C 12.94 35.95 17.23 39.11 16.51 43.31 C 15.65 43.29 13.92 43.25 13.06 43.22 C 12.97 40.80 10.05 38.96 8.41 41.25 C 7.10 44.93 11.42 45.72 13.82 46.94 C 18.62 48.34 18.41 56.28 13.77 57.70 C 11.31 58.59 8.31 58.59 6.13 57.02 C 4.41 55.65 4.37 53.32 4.09 51.34 C 5.30 51.27 6.51 51.21 7.72 51.15 C 8.09 52.61 8.07 54.77 10.02 55.00 C 12.57 55.63 13.95 52.38 12.47 50.54 C 10.19 48.81 6.78 48.60 5.19 46.00 Z" />
<path fill="#2d2d2d" opacity="1.00" d=" M 22.24 37.28 C 25.20 36.36 29.33 37.18 30.39 40.48 C 31.65 44.84 31.57 49.57 30.62 53.99 C 29.73 59.08 21.82 59.78 19.29 55.70 C 17.64 51.86 17.88 47.54 18.19 43.46 C 18.43 40.95 19.50 37.95 22.24 37.28 M 22.75 40.46 C 21.44 44.48 21.33 48.88 22.21 53.01 C 22.44 55.66 26.87 55.69 27.07 52.97 C 27.84 48.81 28.06 44.23 26.23 40.30 C 25.36 40.34 23.62 40.42 22.75 40.46 Z" />
<path fill="#2d2d2d" opacity="1.00" d=" M 37.17 37.16 C 39.51 36.67 42.43 36.93 44.02 38.93 C 45.88 41.58 45.68 44.98 45.76 48.05 C 45.65 50.99 45.70 54.36 43.68 56.72 C 40.79 59.21 35.02 58.92 33.47 55.03 C 32.24 51.53 32.44 47.73 32.61 44.08 C 32.75 41.22 33.93 37.70 37.17 37.16 M 37.24 40.94 C 35.63 44.56 36.22 48.78 36.59 52.61 C 36.59 55.19 40.41 56.01 41.37 53.60 C 42.34 49.93 42.25 45.99 41.56 42.28 C 41.37 40.18 38.58 39.50 37.24 40.94 Z" />
<path fill="#2d2d2d" opacity="1.00" d=" M 47.24 37.49 C 48.76 37.49 50.28 37.48 51.81 37.47 C 53.56 42.06 55.09 46.74 56.63 51.41 C 56.81 46.78 56.71 42.15 56.72 37.53 C 57.67 37.52 59.55 37.50 60.50 37.49 C 60.45 44.31 60.47 51.14 60.47 57.96 C 58.97 57.96 57.48 57.95 55.98 57.95 C 54.31 53.17 52.57 48.40 51.21 43.52 C 50.87 48.33 50.99 53.16 50.98 57.99 C 49.74 57.97 48.49 57.96 47.25 57.94 C 47.29 51.12 47.28 44.31 47.24 37.49 Z" />
</g>
</svg>
