<?xml version="1.0" encoding="UTF-8" ?>
<!DOCTYPE svg PUBLIC "-//W3C//DTD SVG 1.1//EN" "http://www.w3.org/Graphics/SVG/1.1/DTD/svg11.dtd">
<svg width="64pt" height="64pt" viewBox="0 0 64 64" version="1.1" xmlns="http://www.w3.org/2000/svg">
<g id="#2c2c2cff">
<path fill="#2c2c2c" opacity="1.00" d=" M 6.95 19.50 C 12.97 14.66 18.99 9.81 25.00 4.96 C 25.00 7.64 25.00 10.32 25.00 13.00 C 35.00 13.00 45.00 13.00 55.00 13.00 C 55.00 17.33 55.00 21.67 55.00 26.00 C 45.00 26.00 35.00 26.00 25.00 26.00 C 25.00 28.67 25.00 31.34 25.00 34.01 C 18.98 29.17 12.99 24.31 6.95 19.50 Z" />
<path fill="#2c2c2c" opacity="1.00" d=" M 21.95 38.64 C 23.60 38.61 25.25 38.58 26.89 38.56 C 28.74 45.45 30.34 52.40 32.17 59.30 C 30.77 59.29 29.37 59.28 27.97 59.28 C 27.69 57.79 27.41 56.31 27.14 54.82 C 25.36 54.82 23.59 54.82 21.82 54.82 C 21.54 56.30 21.26 57.78 20.98 59.26 C 19.78 59.27 18.58 59.29 17.38 59.32 C 17.10 57.99 16.77 56.68 16.42 55.37 C 14.84 60.77 8.44 59.04 4.24 59.30 C 4.25 52.40 4.27 45.49 4.20 38.58 C 7.64 38.79 11.43 37.90 14.61 39.53 C 17.46 41.75 16.65 46.02 14.32 48.31 C 16.56 50.01 17.34 52.60 16.58 55.34 C 17.12 55.23 18.20 55.01 18.74 54.90 L 17.91 54.75 C 19.29 49.39 20.66 44.02 21.95 38.64 M 8.31 41.11 C 8.25 43.27 8.25 45.43 8.30 47.59 C 10.04 46.86 13.08 46.62 12.41 43.96 C 12.77 41.74 9.69 41.87 8.31 41.11 M 24.29 42.11 C 23.77 45.25 23.17 48.38 22.53 51.49 C 23.52 51.49 25.50 51.49 26.49 51.49 C 25.79 48.36 25.07 45.23 24.29 42.11 M 8.22 49.64 C 8.21 51.99 8.25 54.33 8.34 56.68 C 10.24 56.04 13.31 55.77 12.82 52.98 C 13.19 50.16 10.18 50.14 8.22 49.64 Z" />
<path fill="#2c2c2c" opacity="1.00" d=" M 32.70 41.66 C 34.03 38.03 38.85 37.34 41.96 38.93 C 44.31 40.17 44.24 43.18 44.97 45.39 C 43.97 45.43 41.98 45.49 40.98 45.53 C 40.57 43.37 39.59 39.73 36.76 41.67 C 35.35 46.32 35.10 51.68 36.95 56.24 C 40.30 57.87 40.66 53.46 41.11 51.26 C 42.43 51.30 43.76 51.34 45.09 51.39 C 44.65 53.41 44.48 55.57 43.42 57.40 C 40.73 61.00 33.70 60.23 32.56 55.58 C 31.46 51.06 31.34 46.14 32.70 41.66 Z" />
<path fill="#2c2c2c" opacity="1.00" d=" M 55.31 38.56 C 56.77 38.57 58.22 38.57 59.68 38.58 C 57.83 41.48 56.05 44.42 54.21 47.33 C 56.20 51.32 58.21 55.30 60.22 59.27 C 58.75 59.28 57.28 59.29 55.81 59.30 C 54.35 56.30 52.99 53.24 51.11 50.47 C 50.25 53.33 50.16 56.33 50.13 59.29 C 48.83 59.29 47.53 59.29 46.24 59.29 C 46.25 52.39 46.27 45.50 46.20 38.60 C 47.54 38.59 48.88 38.59 50.22 38.58 C 50.22 41.34 50.21 44.11 50.24 46.87 C 51.94 44.11 53.61 41.32 55.31 38.56 Z" />
</g>
</svg>
