<?xml version="1.0" encoding="UTF-8" ?>
<!DOCTYPE svg PUBLIC "-//W3C//DTD SVG 1.1//EN" "http://www.w3.org/Graphics/SVG/1.1/DTD/svg11.dtd">
<svg width="64pt" height="64pt" viewBox="0 0 64 64" version="1.1" xmlns="http://www.w3.org/2000/svg">
<g id="#d9d9d9fc">
<path fill="#d9d9d9" opacity="1.00" d=" M 14.11 16.05 C 15.96 7.61 24.19 1.37 32.71 1.37 C 39.87 2.00 48.35 7.38 49.03 14.99 C 48.99 16.69 48.91 20.11 48.87 21.81 C 48.20 23.09 47.44 26.64 45.73 24.27 C 41.87 21.74 43.50 16.45 41.04 12.97 C 37.22 5.69 24.28 6.84 22.13 15.03 C 21.21 17.88 20.51 21.28 17.30 22.40 C 14.49 22.19 11.84 19.34 14.11 16.05 Z" />
</g>
<g id="#a6a7a7f8">
<path fill="#a6a7a7" opacity="0.97" d=" M 22.13 15.03 C 24.28 6.84 37.22 5.69 41.04 12.97 C 43.50 16.45 41.87 21.74 45.73 24.27 C 47.44 26.64 48.20 23.09 48.87 21.81 C 48.90 24.87 48.97 27.93 49.01 30.99 C 47.26 30.99 43.78 31.00 42.04 31.00 C 41.47 26.64 43.05 21.85 41.32 17.68 C 40.23 13.27 36.20 10.93 32.00 10.17 C 28.27 11.05 23.80 12.73 23.20 17.08 C 23.08 20.28 20.27 23.58 16.86 23.08 L 17.30 22.40 C 20.51 21.28 21.21 17.88 22.13 15.03 Z" />
</g>
<g id="#929393fa">
<path fill="#929393" opacity="0.98" d=" M 49.03 14.99 L 49.97 15.02 C 49.99 15.52 50.01 16.50 50.02 17.00 C 49.99 21.67 50.00 26.34 49.99 31.01 L 49.01 30.99 C 48.97 27.93 48.90 24.87 48.87 21.81 C 48.91 20.11 48.99 16.69 49.03 14.99 Z" />
</g>
<g id="#2826245b">
<path fill="#282624" opacity="0.36" d=" M 50.02 17.00 L 50.98 17.00 C 51.38 21.99 50.13 27.23 51.80 32.07 C 51.36 32.05 50.46 32.01 50.02 31.99 L 49.99 31.01 C 50.00 26.34 49.99 21.67 50.02 17.00 Z" />
</g>
<g id="#666664cd">
<path fill="#666664" opacity="0.80" d=" M 41.32 17.68 C 43.05 21.85 41.47 26.64 42.04 31.00 L 42.00 31.99 L 41.02 31.99 L 40.98 31.03 C 41.03 26.59 40.75 22.10 41.32 17.68 Z" />
</g>
<g id="#2c23135d">
<path fill="#2c2313" opacity="0.36" d=" M 12.00 31.02 C 21.66 31.01 31.32 30.88 40.98 31.03 L 41.02 31.99 C 31.36 32.04 21.69 31.99 12.02 32.00 L 12.00 31.02 Z" />
</g>
<g id="#897b65ff">
<path fill="#897b65" opacity="1.00" d=" M 42.04 31.00 C 43.78 31.00 47.26 30.99 49.01 30.99 L 49.99 31.01 L 50.02 31.99 C 47.34 32.00 44.67 32.00 42.00 31.99 L 42.04 31.00 Z" />
</g>
<g id="#b79b5dff">
<path fill="#b79b5d" opacity="1.00" d=" M 12.02 32.00 C 21.69 31.99 31.36 32.04 41.02 31.99 L 42.00 31.99 C 44.67 32.00 47.34 32.00 50.02 31.99 C 50.46 32.01 51.36 32.05 51.80 32.07 L 51.97 32.97 C 50.71 32.99 49.45 33.03 48.19 33.07 C 46.89 33.07 45.59 33.09 44.29 33.13 C 35.76 33.01 27.23 32.86 18.71 33.12 C 18.00 33.11 16.59 33.08 15.88 33.07 C 14.57 33.02 13.26 32.99 11.95 32.98 L 12.02 32.00 Z" />
</g>
<g id="#ae6f1ffe">
<path fill="#ae6f1f" opacity="1.00" d=" M 11.01 33.02 L 11.95 32.98 C 12.02 34.90 12.10 36.83 12.28 38.75 C 12.04 44.54 11.52 50.44 13.10 56.09 C 13.07 56.81 13.02 58.26 12.99 58.98 L 12.01 59.01 L 11.03 59.00 C 10.96 50.34 10.95 41.68 11.01 33.02 Z" />
</g>
<g id="#f4db99ff">
<path fill="#f4db99" opacity="1.00" d=" M 11.95 32.98 C 13.26 32.99 14.57 33.02 15.88 33.07 C 18.68 48.29 44.35 47.35 48.19 33.07 C 49.45 33.03 50.71 32.99 51.97 32.97 C 51.92 33.42 51.81 34.33 51.76 34.78 C 51.23 38.56 50.92 42.36 50.82 46.18 C 50.53 43.81 50.21 41.44 49.85 39.08 C 48.42 38.76 47.80 39.37 47.98 40.91 C 40.17 48.47 27.36 49.58 18.25 43.77 C 17.28 42.60 16.81 41.13 16.13 39.79 C 15.88 39.28 15.37 38.26 15.12 37.75 C 14.06 40.46 14.02 43.42 13.35 46.23 C 13.07 43.72 12.71 41.23 12.28 38.75 C 12.10 36.83 12.02 34.90 11.95 32.98 Z" />
</g>
<g id="#f7e3afff">
<path fill="#f7e3af" opacity="1.00" d=" M 15.88 33.07 C 16.59 33.08 18.00 33.11 18.71 33.12 C 24.23 42.06 38.63 41.74 44.29 33.13 C 45.59 33.09 46.89 33.07 48.19 33.07 C 44.35 47.35 18.68 48.29 15.88 33.07 Z" />
</g>
<g id="#faecc4ff">
<path fill="#faecc4" opacity="1.00" d=" M 18.71 33.12 C 27.23 32.86 35.76 33.01 44.29 33.13 C 38.63 41.74 24.23 42.06 18.71 33.12 Z" />
</g>
<g id="#ac6d1dfd">
<path fill="#ac6d1d" opacity="1.00" d=" M 51.97 32.97 L 52.95 32.99 C 53.05 41.66 53.07 50.33 52.96 59.00 L 51.97 59.00 L 50.98 58.98 C 51.01 58.27 51.09 56.84 51.13 56.13 L 51.22 55.23 C 51.57 52.49 52.01 49.76 51.98 47.00 C 51.97 42.92 51.90 38.85 51.76 34.78 C 51.81 34.33 51.92 33.42 51.97 32.97 Z" />
</g>
<g id="#d8c074ff">
<path fill="#d8c074" opacity="1.00" d=" M 50.82 46.18 C 50.92 42.36 51.23 38.56 51.76 34.78 C 51.90 38.85 51.97 42.92 51.98 47.00 L 50.93 47.08 L 50.82 46.18 Z" />
</g>
<g id="#efc97aff">
<path fill="#efc97a" opacity="1.00" d=" M 15.12 37.75 C 15.37 38.26 15.88 39.28 16.13 39.79 C 15.66 43.37 16.96 47.23 21.00 47.98 C 29.16 51.95 39.09 50.18 46.68 45.66 C 47.63 44.25 47.88 42.57 47.98 40.91 C 47.80 39.37 48.42 38.76 49.85 39.08 C 50.21 41.44 50.53 43.81 50.82 46.18 L 50.93 47.08 C 50.92 48.80 50.86 50.51 50.81 52.23 C 50.65 51.64 50.32 50.47 50.15 49.89 C 49.83 48.16 49.30 46.47 48.49 44.91 C 47.96 46.52 47.47 48.16 46.69 49.68 C 39.79 53.19 31.71 54.58 24.10 52.82 C 21.05 51.77 17.63 50.89 15.97 47.85 C 15.88 47.34 15.70 46.33 15.61 45.83 C 14.50 47.87 13.97 50.14 13.25 52.33 C 13.28 50.81 13.33 47.75 13.35 46.23 C 14.02 43.42 14.06 40.46 15.12 37.75 Z" />
</g>
<g id="#e5ae5aff">
<path fill="#e5ae5a" opacity="1.00" d=" M 12.28 38.75 C 12.71 41.23 13.07 43.72 13.35 46.23 C 13.33 47.75 13.28 50.81 13.25 52.33 C 13.97 50.14 14.50 47.87 15.61 45.83 C 15.70 46.33 15.88 47.34 15.97 47.85 C 16.22 49.84 16.64 51.81 17.29 53.72 C 25.33 58.06 35.34 58.30 43.67 54.62 C 46.24 53.99 47.82 51.81 48.34 49.32 C 48.79 49.46 49.70 49.74 50.15 49.89 C 50.32 50.47 50.65 51.64 50.81 52.23 C 50.91 52.98 51.12 54.48 51.22 55.23 L 51.13 56.13 C 50.21 55.47 49.31 54.78 48.35 54.17 C 47.91 55.45 47.55 56.77 46.85 57.94 C 36.98 58.08 27.11 58.15 17.25 57.85 C 16.59 56.26 16.12 54.61 15.62 52.97 C 14.69 53.93 13.90 55.02 13.10 56.09 C 11.52 50.44 12.04 44.54 12.28 38.75 Z" />
</g>
<g id="#f2d28bff">
<path fill="#f2d28b" opacity="1.00" d=" M 16.13 39.79 C 16.81 41.13 17.28 42.60 18.25 43.77 C 27.36 49.58 40.17 48.47 47.98 40.91 C 47.88 42.57 47.63 44.25 46.68 45.66 C 39.09 50.18 29.16 51.95 21.00 47.98 C 16.96 47.23 15.66 43.37 16.13 39.79 Z" />
</g>
<g id="#ebbb69ff">
<path fill="#ebbb69" opacity="1.00" d=" M 48.49 44.91 C 49.30 46.47 49.83 48.16 50.15 49.89 C 49.70 49.74 48.79 49.46 48.34 49.32 C 47.82 51.81 46.24 53.99 43.67 54.62 C 35.34 58.30 25.33 58.06 17.29 53.72 C 16.64 51.81 16.22 49.84 15.97 47.85 C 17.63 50.89 21.05 51.77 24.10 52.82 C 31.71 54.58 39.79 53.19 46.69 49.68 C 47.47 48.16 47.96 46.52 48.49 44.91 Z" />
</g>
<g id="#cb9d43ff">
<path fill="#cb9d43" opacity="1.00" d=" M 50.93 47.08 L 51.98 47.00 C 52.01 49.76 51.57 52.49 51.22 55.23 C 51.12 54.48 50.91 52.98 50.81 52.23 C 50.86 50.51 50.92 48.80 50.93 47.08 Z" />
</g>
<g id="#d59044ff">
<path fill="#d59044" opacity="1.00" d=" M 13.10 56.09 C 13.90 55.02 14.69 53.93 15.62 52.97 C 16.12 54.61 16.59 56.26 17.25 57.85 C 27.11 58.15 36.98 58.08 46.85 57.94 C 47.55 56.77 47.91 55.45 48.35 54.17 C 49.31 54.78 50.21 55.47 51.13 56.13 C 51.09 56.84 51.01 58.27 50.98 58.98 C 38.31 59.01 25.65 59.01 12.99 58.98 C 13.02 58.26 13.07 56.81 13.10 56.09 Z" />
</g>
<g id="#835128dc">
<path fill="#835128" opacity="0.86" d=" M 12.01 59.01 L 12.99 58.98 C 25.65 59.01 38.31 59.01 50.98 58.98 L 51.97 59.00 L 52.02 59.98 C 38.68 60.03 25.34 60.03 12.00 59.98 L 12.01 59.01 Z" />
</g>
</svg>
