<?xml version="1.0" encoding="UTF-8" ?>
<!DOCTYPE svg PUBLIC "-//W3C//DTD SVG 1.1//EN" "http://www.w3.org/Graphics/SVG/1.1/DTD/svg11.dtd">
<svg width="64pt" height="64pt" viewBox="0 0 64 64" version="1.1" xmlns="http://www.w3.org/2000/svg">
<g id="#e4a037ff">
<path fill="#e4a037" opacity="1.00" d=" M 35.33 13.46 C 39.43 6.89 49.50 5.41 55.12 10.85 C 60.78 15.49 61.11 24.81 56.01 29.98 C 53.49 32.87 49.61 33.73 45.99 34.23 C 44.08 33.63 42.10 33.39 40.12 33.25 C 36.41 37.47 32.36 41.38 28.25 45.20 C 29.72 46.49 31.17 47.79 32.65 49.08 C 32.65 50.25 32.66 51.42 32.65 52.59 C 31.46 52.63 30.28 52.67 29.09 52.69 C 27.77 51.18 26.42 49.69 25.09 48.19 C 24.01 49.58 22.92 50.96 21.80 52.31 L 23.11 52.53 C 24.27 53.67 25.44 54.80 26.60 55.93 C 26.61 56.46 26.63 57.53 26.63 58.06 C 26.10 58.58 25.57 59.10 25.03 59.62 C 24.53 59.57 23.53 59.48 23.04 59.44 C 21.69 57.92 20.32 56.43 18.98 54.91 C 17.05 56.43 15.53 59.05 13.01 59.51 C 10.34 58.30 7.68 55.79 8.14 52.57 C 16.76 44.04 25.47 35.58 33.81 26.79 C 33.43 22.33 32.31 17.31 35.33 13.46 M 40.45 21.07 C 41.55 24.48 44.41 26.91 48.14 26.51 C 49.51 25.15 51.66 24.04 51.73 21.85 C 52.61 18.43 49.42 14.87 45.93 15.36 C 42.74 15.31 41.30 18.51 40.45 21.07 Z" />
</g>
</svg>
