<?xml version="1.0" encoding="UTF-8" ?>
<!DOCTYPE svg PUBLIC "-//W3C//DTD SVG 1.1//EN" "http://www.w3.org/Graphics/SVG/1.1/DTD/svg11.dtd">
<svg width="64pt" height="64pt" viewBox="0 0 64 64" version="1.1" xmlns="http://www.w3.org/2000/svg">
<g id="#e1dfdaff">
<path fill="#e1dfda" opacity="1.00" d=" M 42.95 3.21 C 44.62 3.05 46.32 3.12 47.93 3.62 C 46.87 4.69 46.38 5.95 46.47 7.40 L 45.49 7.50 C 46.56 9.75 43.53 10.48 44.76 12.51 L 43.52 12.32 C 43.50 13.10 43.45 14.66 43.43 15.44 L 42.44 15.46 C 43.23 16.94 41.09 18.77 42.99 19.92 C 43.34 17.64 46.16 18.95 47.53 17.74 C 49.94 17.50 51.99 16.11 54.49 16.29 L 55.07 14.83 C 56.10 15.92 56.57 17.12 56.48 18.42 L 57.60 18.61 C 57.63 19.04 57.69 19.92 57.72 20.36 C 56.26 20.41 54.76 20.94 53.32 20.44 L 53.62 21.44 C 52.86 21.48 51.33 21.55 50.56 21.59 C 49.47 23.02 46.80 22.62 45.18 22.41 L 45.78 23.48 C 40.11 23.27 34.43 23.53 28.77 24.25 C 39.63 17.92 43.57 27.20 49.61 32.19 C 40.50 41.47 31.13 50.52 22.09 59.87 C 14.93 53.43 8.06 46.09 1.13 39.19 C 10.55 30.07 19.72 20.67 28.98 11.39 C 31.68 13.84 33.75 17.83 37.42 18.65 C 36.36 16.62 39.72 16.77 38.53 14.69 L 39.64 14.32 C 39.50 13.87 39.22 12.97 39.08 12.52 L 40.39 12.67 C 40.43 11.87 40.51 10.28 40.54 9.48 L 41.47 9.52 C 41.03 8.05 41.34 6.99 42.41 6.35 C 42.34 5.27 42.53 4.23 42.95 3.21 Z" />
</g>
</svg>
