<?xml version="1.0" encoding="UTF-8" ?>
<!DOCTYPE svg PUBLIC "-//W3C//DTD SVG 1.1//EN" "http://www.w3.org/Graphics/SVG/1.1/DTD/svg11.dtd">
<svg width="64pt" height="64pt" viewBox="0 0 64 64" version="1.1" xmlns="http://www.w3.org/2000/svg">
<g id="#c87821f9">
<path fill="#c87821" opacity="0.98" d=" M 44.97 3.17 C 47.57 1.74 50.54 1.77 53.13 3.22 C 52.83 3.58 52.23 4.29 51.93 4.65 C 51.70 4.91 51.24 5.42 51.00 5.67 C 48.00 4.85 46.05 6.80 47.04 9.86 C 47.79 9.95 49.28 10.14 50.03 10.23 C 48.01 12.71 50.77 15.46 51.77 17.81 C 50.41 18.13 49.04 18.41 47.69 18.75 C 46.13 18.36 43.73 17.20 43.86 19.83 C 42.72 23.20 43.77 17.75 42.00 17.96 C 41.94 18.75 41.82 20.34 41.76 21.13 C 40.39 18.26 38.36 15.52 39.01 12.05 C 40.04 8.31 43.43 6.00 46.87 4.66 C 46.25 4.15 45.61 3.65 44.97 3.17 Z" />
</g>
<g id="#b06912fb">
<path fill="#b06912" opacity="1.00" d=" M 36.69 12.03 C 37.89 8.11 40.90 4.25 44.97 3.17 C 45.61 3.65 46.25 4.15 46.87 4.66 C 43.43 6.00 40.04 8.31 39.01 12.05 C 38.36 15.52 40.39 18.26 41.76 21.13 C 43.16 24.51 49.50 19.98 51.17 22.90 C 47.19 22.71 43.31 23.04 39.53 23.90 C 36.25 21.01 36.07 16.04 36.69 12.03 Z" />
</g>
<g id="#9c5e13e9">
<path fill="#9c5e13" opacity="0.91" d=" M 53.13 3.22 C 62.75 4.54 65.23 19.99 57.94 24.94 L 58.06 24.02 C 58.45 23.18 58.84 22.33 59.21 21.48 C 63.22 14.97 59.20 6.36 51.93 4.65 C 52.23 4.29 52.83 3.58 53.13 3.22 Z" />
</g>
<g id="#140d0520">
<path fill="#140d05" opacity="0.13" d=" M 47.04 9.86 C 46.05 6.80 48.00 4.85 51.00 5.67 C 51.96 7.42 52.14 9.34 50.03 10.23 C 49.28 10.14 47.79 9.95 47.04 9.86 Z" />
</g>
<g id="#d48d48fe">
<path fill="#d48d48" opacity="1.00" d=" M 51.00 5.67 C 51.24 5.42 51.70 4.91 51.93 4.65 C 59.20 6.36 63.22 14.97 59.21 21.48 C 57.50 21.13 55.84 20.47 54.18 21.45 C 52.05 20.45 49.99 19.32 47.69 18.75 C 49.04 18.41 50.41 18.13 51.77 17.81 C 50.77 15.46 48.01 12.71 50.03 10.23 C 52.14 9.34 51.96 7.42 51.00 5.67 Z" />
</g>
<g id="#757575cd">
<path fill="#757575" opacity="0.80" d=" M 19.99 9.01 C 20.08 5.73 26.54 8.76 28.97 8.04 L 29.02 8.98 C 26.01 8.99 23.00 8.98 19.99 9.01 Z" />
</g>
<g id="#d9d9d9fe">
<path fill="#d9d9d9" opacity="1.00" d=" M 12.05 13.97 C 13.29 10.93 17.10 9.72 19.99 9.01 C 23.00 8.98 26.01 8.99 29.02 8.98 C 30.68 9.11 33.76 9.18 34.08 11.12 C 33.51 13.01 34.46 16.11 31.85 16.57 C 27.34 14.84 22.36 14.51 18.01 16.86 C 12.94 17.72 13.54 24.14 10.29 27.14 C 7.90 22.62 9.91 18.08 12.05 13.97 Z" />
</g>
<g id="#919192fb">
<path fill="#919192" opacity="1.00" d=" M 34.08 11.12 L 35.05 10.84 C 35.01 12.86 34.96 14.88 34.87 16.90 C 34.01 18.04 33.11 19.16 32.14 20.21 C 29.57 18.99 27.11 16.68 24.09 17.07 C 20.64 18.09 16.73 20.05 15.73 23.75 C 15.35 26.15 15.08 28.56 14.93 30.99 C 12.29 30.99 9.64 30.99 7.00 30.99 C 7.06 29.25 7.14 27.51 7.22 25.77 C 8.26 28.26 7.51 33.01 12.86 29.92 C 13.59 25.15 14.40 20.37 18.01 16.86 C 22.36 14.51 27.34 14.84 31.85 16.57 C 34.46 16.11 33.51 13.01 34.08 11.12 Z" />
</g>
<g id="#595347f6">
<path fill="#595347" opacity="0.96" d=" M 35.05 10.84 C 35.46 11.14 36.28 11.73 36.69 12.03 C 36.07 16.04 36.25 21.01 39.53 23.90 C 39.84 24.17 40.46 24.69 40.77 24.96 C 41.54 25.58 42.33 26.18 43.13 26.77 C 43.43 28.69 41.81 32.41 44.99 32.18 C 45.13 33.50 45.29 34.82 45.46 36.14 L 45.50 36.85 C 45.08 42.32 45.13 47.84 44.14 53.26 C 43.93 46.55 44.30 39.83 43.88 33.13 C 43.45 33.03 42.57 32.84 42.13 32.74 C 39.45 32.25 36.72 32.08 34.00 31.93 L 33.98 30.98 C 34.01 28.89 34.08 26.81 34.17 24.72 L 35.01 25.03 C 35.03 26.51 35.09 29.49 35.12 30.97 C 36.87 30.97 40.38 30.95 42.13 30.94 C 41.87 29.44 40.88 28.26 39.98 27.08 C 37.67 24.02 34.29 21.17 34.87 16.90 C 34.96 14.88 35.01 12.86 35.05 10.84 Z" />
</g>
<g id="#b1b1b1fd">
<path fill="#b1b1b1" opacity="1.00" d=" M 6.98 23.00 C 7.09 19.60 8.87 15.54 12.05 13.97 C 9.91 18.08 7.90 22.62 10.29 27.14 C 13.54 24.14 12.94 17.72 18.01 16.86 C 14.40 20.37 13.59 25.15 12.86 29.92 C 7.51 33.01 8.26 28.26 7.22 25.77 C 7.16 25.08 7.04 23.69 6.98 23.00 Z" />
</g>
<g id="#747475f9">
<path fill="#747475" opacity="0.98" d=" M 32.14 20.21 C 33.11 19.16 34.01 18.04 34.87 16.90 C 34.29 21.17 37.67 24.02 39.98 27.08 C 38.33 26.38 36.72 25.57 35.01 25.03 L 34.17 24.72 C 33.54 23.20 32.85 21.70 32.14 20.21 Z" />
</g>
<g id="#c3833bff">
<path fill="#c3833b" opacity="1.00" d=" M 42.00 17.96 C 43.77 17.75 42.72 23.20 43.86 19.83 C 43.73 17.20 46.13 18.36 47.69 18.75 C 49.99 19.32 52.05 20.45 54.18 21.45 C 55.84 20.47 57.50 21.13 59.21 21.48 C 58.84 22.33 58.45 23.18 58.06 24.02 C 52.29 24.02 46.45 23.71 40.77 24.96 C 40.46 24.69 39.84 24.17 39.53 23.90 C 43.31 23.04 47.19 22.71 51.17 22.90 C 49.50 19.98 43.16 24.51 41.76 21.13 C 41.82 20.34 41.94 18.75 42.00 17.96 Z" />
</g>
<g id="#606161db">
<path fill="#606161" opacity="0.86" d=" M 6.04 31.01 C 6.47 28.61 4.78 23.88 6.98 23.00 C 7.04 23.69 7.16 25.08 7.22 25.77 C 7.14 27.51 7.06 29.25 7.00 30.99 L 6.04 31.01 Z" />
</g>
<g id="#30303085">
<path fill="#303030" opacity="0.52" d=" M 14.93 30.99 C 15.08 28.56 15.35 26.15 15.73 23.75 C 15.80 25.56 15.93 29.19 15.99 31.00 L 15.99 31.99 L 14.97 31.99 L 14.93 30.99 Z" />
</g>
<g id="#c17414fe">
<path fill="#c17414" opacity="1.00" d=" M 40.77 24.96 C 46.45 23.71 52.29 24.02 58.06 24.02 L 57.94 24.94 C 57.61 25.97 56.80 26.66 55.53 27.01 L 54.96 27.10 C 52.05 27.24 49.14 27.37 46.22 27.32 C 46.04 30.26 46.01 33.24 45.46 36.14 C 45.29 34.82 45.13 33.50 44.99 32.18 C 44.61 30.30 46.02 26.87 43.13 26.77 C 42.33 26.18 41.54 25.58 40.77 24.96 Z" />
</g>
<g id="#999999ff">
<path fill="#999999" opacity="1.00" d=" M 35.01 25.03 C 36.72 25.57 38.33 26.38 39.98 27.08 C 40.88 28.26 41.87 29.44 42.13 30.94 C 40.38 30.95 36.87 30.97 35.12 30.97 C 35.09 29.49 35.03 26.51 35.01 25.03 Z" />
</g>
<g id="#21180ca4">
<path fill="#21180c" opacity="0.64" d=" M 43.13 26.77 C 46.02 26.87 44.61 30.30 44.99 32.18 C 41.81 32.41 43.43 28.69 43.13 26.77 Z" />
</g>
<g id="#a15f0cfd">
<path fill="#a15f0c" opacity="1.00" d=" M 46.22 27.32 C 49.14 27.37 52.05 27.24 54.96 27.10 C 54.99 28.79 55.05 32.16 55.08 33.84 C 54.81 34.36 54.27 35.41 54.00 35.93 C 52.94 33.35 53.14 30.65 53.88 28.02 C 52.61 27.96 51.35 27.96 50.08 28.04 C 50.00 31.96 49.91 35.88 49.81 39.79 C 47.59 46.44 48.30 53.52 47.26 60.36 L 46.12 60.02 C 45.85 52.31 46.42 44.53 45.50 36.85 L 45.46 36.14 C 46.01 33.24 46.04 30.26 46.22 27.32 Z" />
</g>
<g id="#22150451">
<path fill="#221504" opacity="0.32" d=" M 54.96 27.10 L 55.53 27.01 C 56.34 28.86 56.93 32.76 55.08 33.84 C 55.05 32.16 54.99 28.79 54.96 27.10 Z" />
</g>
<g id="#aa650ef3">
<path fill="#aa650e" opacity="0.95" d=" M 50.08 28.04 C 51.35 27.96 52.61 27.96 53.88 28.02 C 53.14 30.65 52.94 33.35 54.00 35.93 C 53.92 37.76 50.52 38.34 51.63 40.28 C 53.33 45.22 56.26 54.77 50.68 58.33 C 49.86 52.18 50.02 45.97 49.81 39.79 C 49.91 35.88 50.00 31.96 50.08 28.04 Z" />
</g>
<g id="#665c48fe">
<path fill="#665c48" opacity="1.00" d=" M 6.04 31.01 L 7.00 30.99 C 9.64 30.99 12.29 30.99 14.93 30.99 L 14.97 31.99 C 11.98 32.01 8.98 32.01 5.99 31.98 L 6.04 31.01 Z" />
</g>
<g id="#2e26195b">
<path fill="#2e2619" opacity="0.36" d=" M 15.99 31.00 C 21.99 31.00 27.98 31.00 33.98 30.98 L 34.00 31.93 C 28.00 31.98 21.99 32.05 15.99 31.99 L 15.99 31.00 Z" />
</g>
<g id="#bea465fe">
<path fill="#bea465" opacity="1.00" d=" M 4.02 32.04 C 4.52 32.02 5.50 32.00 5.99 31.98 C 8.98 32.01 11.98 32.01 14.97 31.99 L 15.99 31.99 C 21.99 32.05 28.00 31.98 34.00 31.93 C 36.72 32.08 39.45 32.25 42.13 32.74 L 41.08 32.83 L 40.06 32.90 C 38.36 32.99 34.94 33.16 33.24 33.24 C 26.76 33.03 20.27 32.94 13.80 33.17 C 12.46 33.12 11.13 33.09 9.79 33.07 C 9.34 33.06 8.42 33.04 7.96 33.03 L 7.04 33.02 C 6.54 33.03 5.55 33.05 5.05 33.06 C 4.96 37.07 4.96 41.08 5.05 45.10 L 4.00 44.97 C 3.99 40.98 3.99 36.99 3.99 33.01 L 4.02 32.04 Z" />
</g>
<g id="#9b621bfa">
<path fill="#9b621b" opacity="0.98" d=" M 3.03 33.01 L 3.99 33.01 C 3.99 36.99 3.99 40.98 4.00 44.97 C 4.86 49.15 2.35 54.39 4.88 58.15 C 5.08 58.45 5.49 59.04 5.70 59.34 L 6.10 60.01 L 5.13 60.01 C 0.34 59.29 4.51 51.78 2.97 49.00 C 2.95 43.67 2.96 38.34 3.03 33.01 Z" />
</g>
<g id="#f8e4acff">
<path fill="#f8e4ac" opacity="1.00" d=" M 5.05 33.06 C 5.55 33.05 6.54 33.03 7.04 33.02 C 7.34 37.85 6.55 42.61 5.26 47.24 C 5.21 46.71 5.10 45.63 5.05 45.10 C 4.96 41.08 4.96 37.07 5.05 33.06 Z" />
</g>
<g id="#f0cf85ff">
<path fill="#f0cf85" opacity="1.00" d=" M 7.04 33.02 L 7.96 33.03 C 8.01 33.48 8.09 34.37 8.14 34.81 C 8.33 37.53 8.37 40.27 8.95 42.93 C 10.01 48.52 17.22 50.03 21.99 49.99 C 28.76 50.80 36.33 49.23 40.96 43.93 C 40.97 44.67 40.97 46.15 40.98 46.89 C 36.85 52.28 29.18 52.54 22.97 52.98 C 17.42 52.64 10.91 51.19 8.09 45.85 C 6.44 40.56 7.23 48.24 7.22 50.79 L 7.15 51.86 C 6.61 51.89 5.55 51.97 5.02 52.01 C 5.03 50.42 5.12 48.83 5.26 47.24 C 6.55 42.61 7.34 37.85 7.04 33.02 Z" />
</g>
<g id="#f7e4b2ff">
<path fill="#f7e4b2" opacity="1.00" d=" M 7.96 33.03 C 8.42 33.04 9.34 33.06 9.79 33.07 C 13.48 36.44 17.52 40.69 23.02 40.01 C 29.94 42.18 34.13 35.66 40.00 33.82 C 40.39 40.62 31.84 44.44 26.00 44.01 C 19.03 45.07 10.09 42.34 8.14 34.81 C 8.09 34.37 8.01 33.48 7.96 33.03 Z" />
</g>
<g id="#faecc4ff">
<path fill="#faecc4" opacity="1.00" d=" M 9.79 33.07 C 11.13 33.09 12.46 33.12 13.80 33.17 C 20.17 34.64 27.04 36.18 33.24 33.24 C 34.94 33.16 38.36 32.99 40.06 32.90 L 40.00 33.82 C 34.13 35.66 29.94 42.18 23.02 40.01 C 17.52 40.69 13.48 36.44 9.79 33.07 Z" />
</g>
<g id="#fef6d6ff">
<path fill="#fef6d6" opacity="1.00" d=" M 13.80 33.17 C 20.27 32.94 26.76 33.03 33.24 33.24 C 27.04 36.18 20.17 34.64 13.80 33.17 Z" />
</g>
<g id="#f4dca1ff">
<path fill="#f4dca1" opacity="1.00" d=" M 40.06 32.90 L 41.08 32.83 C 41.06 35.52 41.03 38.21 40.98 40.90 C 38.36 45.28 33.21 46.46 28.60 47.50 C 21.64 49.23 14.68 46.71 8.95 42.93 C 8.37 40.27 8.33 37.53 8.14 34.81 C 10.09 42.34 19.03 45.07 26.00 44.01 C 31.84 44.44 40.39 40.62 40.00 33.82 L 40.06 32.90 Z" />
</g>
<g id="#d4bb7eff">
<path fill="#d4bb7e" opacity="1.00" d=" M 41.08 32.83 L 42.13 32.74 C 42.16 34.08 42.22 35.41 42.31 36.75 C 41.78 41.53 42.79 46.56 41.30 51.21 C 41.17 49.77 41.07 48.33 40.98 46.89 C 40.97 46.15 40.97 44.67 40.96 43.93 C 40.97 43.17 40.98 41.66 40.98 40.90 C 41.03 38.21 41.06 35.52 41.08 32.83 Z" />
</g>
<g id="#968458ff">
<path fill="#968458" opacity="1.00" d=" M 42.13 32.74 C 42.57 32.84 43.45 33.03 43.88 33.13 C 44.30 39.83 43.93 46.55 44.14 53.26 C 44.06 53.76 43.89 54.77 43.81 55.27 C 43.41 54.14 43.05 53.00 42.74 51.84 C 42.67 46.84 43.84 41.63 42.31 36.75 C 42.22 35.41 42.16 34.08 42.13 32.74 Z" />
</g>
<g id="#bf9853ff">
<path fill="#bf9853" opacity="1.00" d=" M 42.31 36.75 C 43.84 41.63 42.67 46.84 42.74 51.84 C 42.30 54.29 42.10 56.81 41.27 59.17 C 41.14 57.44 41.02 55.71 40.96 53.97 C 40.99 53.48 41.05 52.51 41.08 52.02 L 41.30 51.21 C 42.79 46.56 41.78 41.53 42.31 36.75 Z" />
</g>
<g id="#5b3d10fe">
<path fill="#5b3d10" opacity="1.00" d=" M 45.50 36.85 C 46.42 44.53 45.85 52.31 46.12 60.02 L 45.06 60.03 L 44.04 60.00 C 43.98 58.42 43.91 56.85 43.81 55.27 C 43.89 54.77 44.06 53.76 44.14 53.26 C 45.13 47.84 45.08 42.32 45.50 36.85 Z" />
</g>
<g id="#8d540aff">
<path fill="#8d540a" opacity="1.00" d=" M 47.26 60.36 C 48.30 53.52 47.59 46.44 49.81 39.79 C 50.02 45.97 49.86 52.18 50.68 58.33 C 50.90 59.63 47.10 62.30 47.26 60.36 Z" />
</g>
<g id="#f2d593ff">
<path fill="#f2d593" opacity="1.00" d=" M 28.60 47.50 C 33.21 46.46 38.36 45.28 40.98 40.90 C 40.98 41.66 40.97 43.17 40.96 43.93 C 36.33 49.23 28.76 50.80 21.99 49.99 C 17.22 50.03 10.01 48.52 8.95 42.93 C 14.68 46.71 21.64 49.23 28.60 47.50 Z" />
</g>
<g id="#e7b25dff">
<path fill="#e7b25d" opacity="1.00" d=" M 7.22 50.79 C 7.23 48.24 6.44 40.56 8.09 45.85 C 8.14 47.91 8.38 49.97 8.90 51.98 C 8.86 54.76 11.87 55.38 13.93 56.16 C 19.52 58.69 25.94 58.22 31.89 57.81 C 34.82 56.33 37.90 55.17 40.96 53.97 C 41.02 55.71 41.14 57.44 41.27 59.17 C 30.84 58.81 20.41 59.14 9.98 59.02 C 8.86 56.34 8.09 53.55 7.22 50.79 Z" />
</g>
<g id="#bf8b31ff">
<path fill="#bf8b31" opacity="1.00" d=" M 4.00 44.97 L 5.05 45.10 C 5.10 45.63 5.21 46.71 5.26 47.24 C 5.12 48.83 5.03 50.42 5.02 52.01 C 4.99 53.42 4.97 54.83 4.97 56.25 C 4.95 56.72 4.90 57.67 4.88 58.15 C 2.35 54.39 4.86 49.15 4.00 44.97 Z" />
</g>
<g id="#ecc476ff">
<path fill="#ecc476" opacity="1.00" d=" M 8.09 45.85 C 10.91 51.19 17.42 52.64 22.97 52.98 C 29.18 52.54 36.85 52.28 40.98 46.89 C 41.07 48.33 41.17 49.77 41.30 51.21 L 41.08 52.02 C 31.08 56.65 18.62 57.95 8.90 51.98 C 8.38 49.97 8.14 47.91 8.09 45.85 Z" />
</g>
<g id="#dd9e49ff">
<path fill="#dd9e49" opacity="1.00" d=" M 7.22 50.79 C 8.09 53.55 8.86 56.34 9.98 59.02 C 7.97 58.07 7.13 56.57 5.70 59.34 C 5.49 59.04 5.08 58.45 4.88 58.15 C 4.90 57.67 4.95 56.72 4.97 56.25 C 7.64 56.41 6.88 53.61 7.15 51.86 L 7.22 50.79 Z" />
</g>
<g id="#e7b761ff">
<path fill="#e7b761" opacity="1.00" d=" M 5.02 52.01 C 5.55 51.97 6.61 51.89 7.15 51.86 C 6.88 53.61 7.64 56.41 4.97 56.25 C 4.97 54.83 4.99 53.42 5.02 52.01 Z" />
</g>
<g id="#eabb68ff">
<path fill="#eabb68" opacity="1.00" d=" M 8.90 51.98 C 18.62 57.95 31.08 56.65 41.08 52.02 C 41.05 52.51 40.99 53.48 40.96 53.97 C 37.90 55.17 34.82 56.33 31.89 57.81 C 25.94 58.22 19.52 58.69 13.93 56.16 C 11.87 55.38 8.86 54.76 8.90 51.98 Z" />
</g>
<g id="#a26f31ff">
<path fill="#a26f31" opacity="1.00" d=" M 41.27 59.17 C 42.10 56.81 42.30 54.29 42.74 51.84 C 43.05 53.00 43.41 54.14 43.81 55.27 C 43.91 56.85 43.98 58.42 44.04 60.00 C 43.28 60.01 41.77 60.01 41.01 60.01 L 41.27 59.17 Z" />
</g>
<g id="#c48641ff">
<path fill="#c48641" opacity="1.00" d=" M 5.70 59.34 C 7.13 56.57 7.97 58.07 9.98 59.02 C 20.41 59.14 30.84 58.81 41.27 59.17 L 41.01 60.01 C 29.37 60.00 17.74 60.02 6.10 60.01 L 5.70 59.34 Z" />
</g>
<g id="#664322ba">
<path fill="#664322" opacity="0.73" d=" M 5.13 60.01 L 6.10 60.01 C 17.74 60.02 29.37 60.00 41.01 60.01 C 41.77 60.01 43.28 60.01 44.04 60.00 L 45.06 60.03 L 44.98 60.99 C 31.64 61.02 18.30 61.03 4.96 60.98 L 5.13 60.01 Z" />
</g>
</svg>
