<?xml version="1.0" encoding="UTF-8" ?>
<!DOCTYPE svg PUBLIC "-//W3C//DTD SVG 1.1//EN" "http://www.w3.org/Graphics/SVG/1.1/DTD/svg11.dtd">
<svg width="64pt" height="64pt" viewBox="0 0 64 64" version="1.1" xmlns="http://www.w3.org/2000/svg">
<g id="#6e8daaff">
<path fill="#6e8daa" opacity="1.00" d=" M 3.34 15.05 C 3.21 8.85 8.87 3.28 15.05 3.39 C 26.35 3.35 37.66 3.35 48.97 3.39 C 55.10 3.29 60.73 8.79 60.65 14.96 C 60.59 20.94 60.89 26.96 60.47 32.92 C 57.87 38.43 58.21 44.69 56.40 50.44 C 52.69 50.34 48.91 50.29 45.34 51.45 C 45.33 45.94 45.38 40.43 45.36 34.92 C 44.71 34.92 43.41 34.91 42.75 34.90 C 42.77 37.03 42.75 39.16 42.81 41.28 C 42.58 41.03 42.12 40.53 41.89 40.27 C 41.00 39.26 39.85 38.03 38.34 38.48 C 35.62 39.32 33.46 41.30 30.88 42.45 C 29.28 42.08 27.78 41.36 26.27 40.71 C 23.43 39.05 19.43 39.86 17.75 42.76 C 16.23 44.89 17.06 47.53 17.89 49.74 C 14.41 49.63 10.94 49.56 7.46 49.46 C 5.73 43.69 6.13 37.43 3.52 31.91 C 3.11 26.32 3.41 20.67 3.34 15.05 M 7.05 11.78 L 6.76 11.92 C 6.47 13.17 6.16 14.41 6.04 15.69 C 5.79 19.50 5.45 24.00 7.48 27.31 C 9.64 29.75 12.79 30.80 15.89 31.47 C 26.81 33.63 38.12 33.67 49.01 31.24 C 51.83 30.47 55.11 29.68 56.51 26.80 C 58.44 23.86 57.52 19.82 58.29 16.45 C 57.94 14.92 57.58 13.39 57.20 11.86 L 56.89 11.72 C 55.00 8.07 51.11 5.80 47.00 5.93 C 36.98 5.87 26.96 5.86 16.94 5.93 C 12.82 5.81 8.95 8.13 7.05 11.78 Z" />
</g>
<g id="#e1eaf2ff">
<path fill="#e1eaf2" opacity="1.00" d=" M 7.05 11.78 C 8.95 8.13 12.82 5.81 16.94 5.93 C 26.96 5.86 36.98 5.87 47.00 5.93 C 51.11 5.80 55.00 8.07 56.89 11.72 C 54.47 10.77 52.38 9.11 49.91 8.29 C 45.28 7.58 40.58 8.00 35.92 7.92 C 29.25 8.02 22.57 7.70 15.90 8.04 C 12.57 8.16 10.02 10.57 7.05 11.78 Z" />
</g>
<g id="#a8c3dbff">
<path fill="#a8c3db" opacity="1.00" d=" M 7.05 11.78 C 10.02 10.57 12.57 8.16 15.90 8.04 C 22.57 7.70 29.25 8.02 35.92 7.92 C 40.58 8.00 45.28 7.58 49.91 8.29 C 52.38 9.11 54.47 10.77 56.89 11.72 L 57.20 11.86 C 57.58 13.39 57.94 14.92 58.29 16.45 C 57.81 16.40 56.86 16.29 56.38 16.24 C 56.10 15.51 55.83 14.79 55.55 14.07 C 50.30 15.90 44.69 15.22 39.25 15.33 C 39.44 16.42 39.64 17.50 39.83 18.59 C 39.37 18.77 38.46 19.12 38.00 19.30 C 38.09 17.21 38.15 15.12 38.21 13.02 C 37.60 13.02 36.36 13.01 35.74 13.00 C 35.70 15.01 35.66 17.03 35.63 19.04 C 33.12 19.43 30.61 19.84 28.10 20.26 C 27.94 22.58 27.77 24.90 27.50 27.21 C 27.40 28.03 27.30 28.85 27.18 29.67 C 26.96 25.86 26.85 22.04 27.14 18.24 C 27.18 17.87 27.27 17.12 27.31 16.75 C 23.59 16.51 19.66 16.27 16.34 18.28 C 13.67 19.89 10.54 19.81 7.54 19.64 C 7.03 18.33 6.51 17.02 6.04 15.69 C 6.16 14.41 6.47 13.17 6.76 11.92 L 7.05 11.78 Z" />
</g>
<g id="#ffffffff">
<path fill="#ffffff" opacity="1.00" d=" M 35.63 19.04 C 35.66 17.03 35.70 15.01 35.74 13.00 C 36.36 13.01 37.60 13.02 38.21 13.02 C 38.15 15.12 38.09 17.21 38.00 19.30 C 38.46 19.12 39.37 18.77 39.83 18.59 C 41.77 17.80 44.07 17.83 45.59 19.44 C 47.76 21.23 47.23 24.25 47.44 26.73 C 46.04 27.85 44.92 29.85 42.92 29.87 C 40.49 29.79 38.05 29.58 35.61 29.68 C 35.61 28.52 35.61 27.36 35.62 26.20 C 35.61 23.81 35.61 21.43 35.63 19.04 M 39.30 21.16 C 37.06 23.16 37.95 27.43 41.03 28.04 C 43.55 28.05 45.30 25.45 44.52 23.09 C 44.28 20.71 40.97 19.33 39.30 21.16 Z" />
<path fill="#ffffff" opacity="1.00" d=" M 16.90 19.82 C 19.47 16.63 23.77 19.35 27.14 18.24 C 26.85 22.04 26.96 25.86 27.18 29.67 C 24.50 29.49 21.82 29.91 19.14 29.78 C 17.84 29.06 16.75 28.04 15.61 27.10 C 15.65 24.65 15.06 21.80 16.90 19.82 M 19.28 21.20 C 17.67 22.79 17.60 26.06 19.65 27.34 C 21.81 29.20 25.16 26.65 24.71 24.03 C 25.02 21.27 21.28 18.98 19.28 21.20 Z" />
<path fill="#ffffff" opacity="1.00" d=" M 42.75 34.90 C 43.41 34.91 44.71 34.92 45.36 34.92 C 45.38 40.43 45.33 45.94 45.34 51.45 L 44.18 51.73 C 43.65 51.65 42.61 51.49 42.08 51.40 C 39.19 52.11 35.47 51.98 34.23 48.72 C 31.60 43.97 36.66 37.63 41.89 40.27 C 42.12 40.53 42.58 41.03 42.81 41.28 C 42.75 39.16 42.77 37.03 42.75 34.90 M 38.39 42.35 C 35.78 43.46 35.62 47.75 38.10 49.12 C 40.21 50.54 43.12 48.42 42.88 46.01 C 43.26 43.56 40.77 41.30 38.39 42.35 Z" />
<path fill="#ffffff" opacity="1.00" d=" M 17.75 42.76 C 19.43 39.86 23.43 39.05 26.27 40.71 C 26.37 41.47 26.59 42.98 26.70 43.73 C 25.23 43.19 23.82 41.86 22.14 42.29 C 18.91 42.98 18.56 48.35 21.77 49.37 C 23.44 50.07 24.97 48.70 26.47 48.15 C 26.42 49.24 26.38 50.33 26.34 51.42 C 23.37 52.06 20.23 51.90 17.89 49.74 C 17.06 47.53 16.23 44.89 17.75 42.76 Z" />
</g>
<g id="#9bb6d0ff">
<path fill="#9bb6d0" opacity="1.00" d=" M 39.25 15.33 C 44.69 15.22 50.30 15.90 55.55 14.07 C 55.83 14.79 56.10 15.51 56.38 16.24 C 56.86 16.29 57.81 16.40 58.29 16.45 C 57.52 19.82 58.44 23.86 56.51 26.80 C 53.49 26.74 50.46 26.64 47.44 26.73 C 47.23 24.25 47.76 21.23 45.59 19.44 C 44.07 17.83 41.77 17.80 39.83 18.59 C 39.64 17.50 39.44 16.42 39.25 15.33 Z" />
</g>
<g id="#94b1cbff">
<path fill="#94b1cb" opacity="1.00" d=" M 6.04 15.69 C 6.51 17.02 7.03 18.33 7.54 19.64 C 10.54 19.81 13.67 19.89 16.34 18.28 C 19.66 16.27 23.59 16.51 27.31 16.75 C 27.27 17.12 27.18 17.87 27.14 18.24 C 23.77 19.35 19.47 16.63 16.90 19.82 C 15.06 21.80 15.65 24.65 15.61 27.10 C 12.90 27.13 10.19 27.26 7.48 27.31 C 5.45 24.00 5.79 19.50 6.04 15.69 Z" />
<path fill="#94b1cb" opacity="1.00" d=" M 28.10 20.26 C 30.61 19.84 33.12 19.43 35.63 19.04 C 35.61 21.43 35.61 23.81 35.62 26.20 C 32.91 26.54 30.21 26.88 27.50 27.21 C 27.77 24.90 27.94 22.58 28.10 20.26 Z" />
</g>
<g id="#92afc9ff">
<path fill="#92afc9" opacity="1.00" d=" M 19.28 21.20 C 21.28 18.98 25.02 21.27 24.71 24.03 C 25.16 26.65 21.81 29.20 19.65 27.34 C 17.60 26.06 17.67 22.79 19.28 21.20 Z" />
<path fill="#92afc9" opacity="1.00" d=" M 39.30 21.16 C 40.97 19.33 44.28 20.71 44.52 23.09 C 45.30 25.45 43.55 28.05 41.03 28.04 C 37.95 27.43 37.06 23.16 39.30 21.16 Z" />
</g>
<g id="#87a5c0ff">
<path fill="#87a5c0" opacity="1.00" d=" M 27.50 27.21 C 30.21 26.88 32.91 26.54 35.62 26.20 C 35.61 27.36 35.61 28.52 35.61 29.68 C 38.05 29.58 40.49 29.79 42.92 29.87 C 44.92 29.85 46.04 27.85 47.44 26.73 C 50.46 26.64 53.49 26.74 56.51 26.80 C 55.11 29.68 51.83 30.47 49.01 31.24 C 38.12 33.67 26.81 33.63 15.89 31.47 C 12.79 30.80 9.64 29.75 7.48 27.31 C 10.19 27.26 12.90 27.13 15.61 27.10 C 16.75 28.04 17.84 29.06 19.14 29.78 C 21.82 29.91 24.50 29.49 27.18 29.67 C 27.30 28.85 27.40 28.03 27.50 27.21 Z" />
</g>
<g id="#617e97ff">
<path fill="#617e97" opacity="1.00" d=" M 3.52 31.91 C 6.13 37.43 5.73 43.69 7.46 49.46 C 10.94 49.56 14.41 49.63 17.89 49.74 C 20.23 51.90 23.37 52.06 26.34 51.42 C 26.38 50.33 26.42 49.24 26.47 48.15 C 24.97 48.70 23.44 50.07 21.77 49.37 C 18.56 48.35 18.91 42.98 22.14 42.29 C 23.82 41.86 25.23 43.19 26.70 43.73 C 26.59 42.98 26.37 41.47 26.27 40.71 C 27.78 41.36 29.28 42.08 30.88 42.45 C 33.46 41.30 35.62 39.32 38.34 38.48 C 39.85 38.03 41.00 39.26 41.89 40.27 C 36.66 37.63 31.60 43.97 34.23 48.72 C 35.47 51.98 39.19 52.11 42.08 51.40 C 42.61 51.49 43.65 51.65 44.18 51.73 L 45.34 51.45 C 48.91 50.29 52.69 50.34 56.40 50.44 C 58.21 44.69 57.87 38.43 60.47 32.92 C 60.85 38.24 60.63 43.59 60.64 48.92 C 60.87 55.14 55.19 60.84 48.97 60.66 C 37.66 60.69 26.34 60.69 15.02 60.66 C 8.83 60.84 3.17 55.18 3.36 49.00 C 3.38 43.30 3.14 37.59 3.52 31.91 Z" />
</g>
<g id="#6886a1ff">
<path fill="#6886a1" opacity="1.00" d=" M 38.39 42.35 C 40.77 41.30 43.26 43.56 42.88 46.01 C 43.12 48.42 40.21 50.54 38.10 49.12 C 35.62 47.75 35.78 43.46 38.39 42.35 Z" />
</g>
</svg>
