<?xml version="1.0" encoding="UTF-8" ?>
<!DOCTYPE svg PUBLIC "-//W3C//DTD SVG 1.1//EN" "http://www.w3.org/Graphics/SVG/1.1/DTD/svg11.dtd">
<svg width="64pt" height="64pt" viewBox="0 0 64 64" version="1.1" xmlns="http://www.w3.org/2000/svg">
<g id="#472550ff">
<path fill="#472550" opacity="1.00" d=" M 8.45 14.28 C 13.24 6.76 21.83 1.22 30.98 1.98 C 43.07 0.90 54.30 10.38 56.95 21.92 C 57.11 25.99 57.22 30.19 55.88 34.09 C 56.98 27.04 55.91 19.54 51.51 13.75 C 50.45 14.03 49.39 14.30 48.32 14.57 C 47.13 13.72 45.93 12.89 44.78 11.98 C 44.54 11.61 44.06 10.85 43.82 10.47 C 43.05 9.76 42.19 9.14 41.35 8.51 C 39.55 9.74 37.85 11.11 36.05 12.33 C 33.03 9.67 29.65 7.08 25.54 6.55 C 23.88 6.13 22.56 7.48 21.34 8.39 C 17.80 11.56 14.87 15.37 11.16 18.38 C 11.36 16.80 11.52 15.22 11.71 13.65 C 10.89 13.77 10.06 13.87 9.25 14.05 L 8.45 14.28 Z" />
</g>
<g id="#66396eff">
<path fill="#66396e" opacity="1.00" d=" M 21.34 8.39 C 22.56 7.48 23.88 6.13 25.54 6.55 C 29.65 7.08 33.03 9.67 36.05 12.33 C 37.85 11.11 39.55 9.74 41.35 8.51 C 42.19 9.14 43.05 9.76 43.82 10.47 C 40.20 12.56 36.49 14.48 32.64 16.09 C 32.43 14.04 32.18 12.00 31.96 9.96 L 30.40 9.80 C 29.17 9.69 27.95 9.59 26.72 9.51 C 26.40 10.35 25.74 12.02 25.41 12.86 C 26.04 13.65 27.07 13.95 27.69 14.74 C 26.53 14.88 25.37 15.02 24.20 15.15 C 26.84 16.47 29.47 17.79 32.08 19.16 C 31.52 20.50 31.39 22.18 30.30 23.22 C 27.30 24.61 23.93 24.13 20.82 23.41 C 19.96 21.06 19.09 18.71 18.14 16.40 C 13.61 19.80 11.80 25.27 9.19 30.04 C 8.57 29.52 7.95 28.99 7.33 28.47 C 7.06 29.79 6.81 31.12 6.56 32.45 C 4.31 26.21 7.01 19.85 9.25 14.05 C 10.06 13.87 10.89 13.77 11.71 13.65 C 11.52 15.22 11.36 16.80 11.16 18.38 C 14.87 15.37 17.80 11.56 21.34 8.39 Z" />
</g>
<g id="#fdeefdff">
<path fill="#fdeefd" opacity="1.00" d=" M 25.41 12.86 C 25.74 12.02 26.40 10.35 26.72 9.51 C 27.95 9.59 29.17 9.69 30.40 9.80 C 30.38 11.36 30.39 12.91 30.37 14.47 C 29.70 14.54 28.36 14.67 27.69 14.74 C 27.07 13.95 26.04 13.65 25.41 12.86 Z" />
</g>
<g id="#83548eff">
<path fill="#83548e" opacity="1.00" d=" M 30.40 9.80 L 31.96 9.96 C 32.18 12.00 32.43 14.04 32.64 16.09 C 36.49 14.48 40.20 12.56 43.82 10.47 C 44.06 10.85 44.54 11.61 44.78 11.98 C 46.68 16.35 49.80 20.07 51.42 24.55 C 52.47 27.95 53.33 31.46 53.37 35.02 C 52.75 37.97 51.37 40.68 50.15 43.41 C 45.42 48.35 39.06 52.28 32.01 52.16 C 20.25 52.78 9.15 43.79 6.56 32.45 C 6.81 31.12 7.06 29.79 7.33 28.47 C 7.95 28.99 8.57 29.52 9.19 30.04 C 11.80 25.27 13.61 19.80 18.14 16.40 C 19.09 18.71 19.96 21.06 20.82 23.41 C 23.93 24.13 27.30 24.61 30.30 23.22 C 31.39 22.18 31.52 20.50 32.08 19.16 C 29.47 17.79 26.84 16.47 24.20 15.15 C 25.37 15.02 26.53 14.88 27.69 14.74 C 28.36 14.67 29.70 14.54 30.37 14.47 C 30.39 12.91 30.38 11.36 30.40 9.80 M 41.94 11.79 C 41.97 12.20 42.02 13.01 42.04 13.42 C 39.81 15.93 36.67 17.01 33.47 17.65 C 33.80 18.14 34.45 19.11 34.78 19.59 C 34.27 22.66 35.74 25.59 35.61 28.62 C 34.62 30.21 32.05 29.27 30.42 29.61 C 29.68 28.59 28.89 27.61 28.14 26.60 C 27.69 26.63 26.79 26.70 26.33 26.73 C 25.66 26.64 24.31 26.45 23.63 26.36 L 23.74 28.26 C 22.93 28.79 22.15 29.35 21.32 29.85 C 19.64 28.14 18.03 26.30 15.99 25.00 C 15.66 25.16 15.01 25.49 14.68 25.66 C 13.05 30.52 11.62 36.13 13.90 41.03 C 14.98 43.47 16.28 46.45 19.28 46.88 C 26.11 51.63 36.13 52.20 43.03 47.27 C 46.20 46.08 48.02 43.06 49.41 40.16 C 50.12 38.15 50.83 36.11 51.06 33.98 C 51.57 31.17 50.01 28.61 49.50 25.92 C 48.80 20.48 45.58 15.74 41.94 11.79 Z" />
</g>
<g id="#9b68a8ff">
<path fill="#9b68a8" opacity="1.00" d=" M 41.94 11.79 C 45.58 15.74 48.80 20.48 49.50 25.92 C 50.01 28.61 51.57 31.17 51.06 33.98 C 50.83 36.11 50.12 38.15 49.41 40.16 C 49.92 35.53 49.42 30.69 46.54 26.88 C 45.29 29.17 44.04 31.45 42.77 33.73 C 37.97 33.36 33.17 32.90 28.36 32.53 C 28.29 30.55 28.21 28.57 28.14 26.60 C 28.89 27.61 29.68 28.59 30.42 29.61 C 32.05 29.27 34.62 30.21 35.61 28.62 C 35.74 25.59 34.27 22.66 34.78 19.59 C 36.56 21.95 37.19 24.86 37.86 27.66 C 40.63 25.02 44.13 23.41 47.76 22.32 C 45.65 19.49 43.51 16.64 42.04 13.42 C 42.02 13.01 41.97 12.20 41.94 11.79 Z" />
</g>
<g id="#62426bff">
<path fill="#62426b" opacity="1.00" d=" M 44.78 11.98 C 45.93 12.89 47.13 13.72 48.32 14.57 C 49.39 14.30 50.45 14.03 51.51 13.75 C 55.91 19.54 56.98 27.04 55.88 34.09 C 54.74 37.60 52.88 40.90 50.15 43.41 C 51.37 40.68 52.75 37.97 53.37 35.02 C 53.33 31.46 52.47 27.95 51.42 24.55 C 49.80 20.07 46.68 16.35 44.78 11.98 Z" />
</g>
<g id="#c2adc8ff">
<path fill="#c2adc8" opacity="1.00" d=" M 42.04 13.42 C 43.51 16.64 45.65 19.49 47.76 22.32 C 44.13 23.41 40.63 25.02 37.86 27.66 C 37.19 24.86 36.56 21.95 34.78 19.59 C 34.45 19.11 33.80 18.14 33.47 17.65 C 36.67 17.01 39.81 15.93 42.04 13.42 M 36.39 18.61 C 37.63 20.29 38.44 22.20 38.86 24.25 C 40.61 22.89 42.58 21.86 44.72 21.27 C 43.41 19.82 42.42 18.13 41.75 16.30 C 40.01 17.18 38.22 17.95 36.39 18.61 Z" />
</g>
<g id="#322238df">
<path fill="#322238" opacity="0.87" d=" M 5.11 32.95 C 4.78 26.56 4.27 18.87 9.25 14.05 C 7.01 19.85 4.31 26.21 6.56 32.45 C 9.15 43.79 20.25 52.78 32.01 52.16 C 39.06 52.28 45.42 48.35 50.15 43.41 C 52.88 40.90 54.74 37.60 55.88 34.09 C 57.22 30.19 57.11 25.99 56.95 21.92 C 60.07 33.13 54.09 46.27 43.61 51.28 C 35.50 53.72 26.81 53.72 18.68 51.34 C 11.61 47.83 6.49 40.67 5.11 32.95 Z" />
</g>
<g id="#f9f8faff">
<path fill="#f9f8fa" opacity="1.00" d=" M 36.39 18.61 C 38.22 17.95 40.01 17.18 41.75 16.30 C 42.42 18.13 43.41 19.82 44.72 21.27 C 42.58 21.86 40.61 22.89 38.86 24.25 C 38.44 22.20 37.63 20.29 36.39 18.61 Z" />
</g>
<g id="#a579b1ff">
<path fill="#a579b1" opacity="1.00" d=" M 14.68 25.66 C 15.01 25.49 15.66 25.16 15.99 25.00 C 18.03 26.30 19.64 28.14 21.32 29.85 C 22.15 29.35 22.93 28.79 23.74 28.26 C 23.78 28.71 23.85 29.60 23.89 30.04 C 25.09 30.43 26.31 30.77 27.54 31.05 C 27.12 29.61 26.79 28.15 26.33 26.73 C 26.79 26.70 27.69 26.63 28.14 26.60 C 28.21 28.57 28.29 30.55 28.36 32.53 C 33.17 32.90 37.97 33.36 42.77 33.73 C 44.04 31.45 45.29 29.17 46.54 26.88 C 49.42 30.69 49.92 35.53 49.41 40.16 C 48.02 43.06 46.20 46.08 43.03 47.27 C 46.69 43.36 48.86 38.06 47.29 32.70 C 44.58 31.86 43.83 36.82 40.99 36.60 C 36.32 36.69 31.65 36.43 26.99 36.48 C 22.89 36.62 19.35 34.32 15.93 32.39 C 15.72 35.09 15.17 37.86 15.82 40.53 C 16.61 42.82 17.97 44.86 19.28 46.88 C 16.28 46.45 14.98 43.47 13.90 41.03 C 11.62 36.13 13.05 30.52 14.68 25.66 Z" />
</g>
<g id="#d1bbd7ff">
<path fill="#d1bbd7" opacity="1.00" d=" M 23.63 26.36 C 24.31 26.45 25.66 26.64 26.33 26.73 C 26.79 28.15 27.12 29.61 27.54 31.05 C 26.31 30.77 25.09 30.43 23.89 30.04 C 23.85 29.60 23.78 28.71 23.74 28.26 L 23.63 26.36 Z" />
</g>
<g id="#c8a4cfff">
<path fill="#c8a4cf" opacity="1.00" d=" M 15.93 32.39 C 19.35 34.32 22.89 36.62 26.99 36.48 C 31.65 36.43 36.32 36.69 40.99 36.60 C 43.83 36.82 44.58 31.86 47.29 32.70 C 48.86 38.06 46.69 43.36 43.03 47.27 C 36.13 52.20 26.11 51.63 19.28 46.88 C 17.97 44.86 16.61 42.82 15.82 40.53 C 15.17 37.86 15.72 35.09 15.93 32.39 M 25.52 42.45 C 24.96 43.23 24.39 44.01 23.83 44.79 C 27.67 48.14 34.33 49.50 37.89 45.05 C 37.01 44.19 36.13 43.34 35.24 42.49 C 32.00 42.48 28.75 42.06 25.52 42.45 Z" />
</g>
<g id="#dfcae6ff">
<path fill="#dfcae6" opacity="1.00" d=" M 25.52 42.45 C 28.75 42.06 32.00 42.48 35.24 42.49 C 36.13 43.34 37.01 44.19 37.89 45.05 C 34.33 49.50 27.67 48.14 23.83 44.79 C 24.39 44.01 24.96 43.23 25.52 42.45 Z" />
</g>
<g id="#502301ff">
<path fill="#502301" opacity="1.00" d=" M 18.68 51.34 C 26.81 53.72 35.50 53.72 43.61 51.28 C 44.40 52.10 45.19 52.91 45.98 53.72 C 42.60 53.32 39.33 54.17 36.11 55.07 C 31.60 56.35 26.97 54.97 22.43 54.64 C 20.92 54.49 19.40 54.46 17.88 54.38 C 17.26 55.10 16.63 55.81 16.00 56.52 C 15.49 56.77 14.48 57.26 13.97 57.51 C 15.38 55.33 17.00 53.30 18.68 51.34 Z" />
</g>
<g id="#7f5a18fc">
<path fill="#7f5a18" opacity="1.00" d=" M 36.11 55.07 C 39.33 54.17 42.60 53.32 45.98 53.72 C 47.59 55.58 49.16 57.48 50.62 59.46 C 48.93 59.78 47.26 60.16 45.56 60.44 C 46.55 59.78 47.56 59.02 47.60 57.74 C 46.16 56.66 44.94 55.00 43.09 54.61 C 39.22 55.26 35.90 57.68 32.02 58.26 C 28.47 58.38 25.39 56.33 22.43 54.64 C 26.97 54.97 31.60 56.35 36.11 55.07 Z" />
</g>
<g id="#b0962aff">
<path fill="#b0962a" opacity="1.00" d=" M 17.88 54.38 C 19.40 54.46 20.92 54.49 22.43 54.64 C 25.39 56.33 28.47 58.38 32.02 58.26 C 35.90 57.68 39.22 55.26 43.09 54.61 C 44.94 55.00 46.16 56.66 47.60 57.74 C 43.10 58.66 38.48 58.39 33.96 59.10 C 28.81 59.85 23.68 57.57 18.56 58.57 C 18.17 58.95 17.41 59.72 17.02 60.11 C 16.15 59.85 15.29 59.56 14.44 59.23 C 14.83 58.56 15.61 57.20 16.00 56.52 C 16.63 55.81 17.26 55.10 17.88 54.38 Z" />
</g>
<g id="#5d4c2be5">
<path fill="#5d4c2b" opacity="0.90" d=" M 13.97 57.51 C 14.48 57.26 15.49 56.77 16.00 56.52 C 15.61 57.20 14.83 58.56 14.44 59.23 C 15.29 59.56 16.15 59.85 17.02 60.11 C 26.46 61.41 36.08 61.31 45.56 60.44 C 47.26 60.16 48.93 59.78 50.62 59.46 L 51.20 59.36 C 49.47 62.01 45.77 61.39 43.05 61.92 C 35.15 62.09 27.25 62.01 19.35 61.97 C 17.29 61.49 15.24 61.00 13.24 60.33 C 13.23 59.72 13.22 58.50 13.21 57.89 L 13.97 57.51 Z" />
</g>
<g id="#d5c597ff">
<path fill="#d5c597" opacity="1.00" d=" M 47.60 57.74 C 47.56 59.02 46.55 59.78 45.56 60.44 C 36.08 61.31 26.46 61.41 17.02 60.11 C 17.41 59.72 18.17 58.95 18.56 58.57 C 23.68 57.57 28.81 59.85 33.96 59.10 C 38.48 58.39 43.10 58.66 47.60 57.74 Z" />
</g>
<g id="#281c0ea8">
<path fill="#281c0e" opacity="0.66" d=" M 12.06 60.63 C 12.41 59.70 12.80 58.79 13.21 57.89 C 13.22 58.50 13.23 59.72 13.24 60.33 C 15.24 61.00 17.29 61.49 19.35 61.97 C 16.87 61.79 14.43 61.37 12.06 60.63 Z" />
</g>
</svg>
