<?xml version="1.0" encoding="UTF-8" ?>
<!DOCTYPE svg PUBLIC "-//W3C//DTD SVG 1.1//EN" "http://www.w3.org/Graphics/SVG/1.1/DTD/svg11.dtd">
<svg width="64pt" height="64pt" viewBox="0 0 64 64" version="1.1" xmlns="http://www.w3.org/2000/svg">
<g id="#444445ff">
<path fill="#444445" opacity="1.00" d=" M 2.32 15.87 C 5.55 16.63 8.69 17.76 11.97 18.29 C 15.76 18.68 19.59 18.43 23.40 18.52 C 23.82 18.18 24.65 17.49 25.07 17.14 C 29.79 17.09 34.42 16.06 39.13 15.92 C 39.88 17.37 40.65 18.80 41.45 20.22 L 41.79 20.83 C 40.98 21.48 40.42 22.30 40.11 23.31 C 39.88 22.69 39.40 21.45 39.16 20.83 C 38.37 22.22 38.62 23.26 39.92 23.95 C 41.24 24.47 42.61 24.83 43.98 25.21 C 43.98 25.61 44.00 26.40 44.00 26.80 C 43.17 26.74 41.51 26.62 40.68 26.56 C 40.52 27.29 40.20 28.73 40.04 29.45 L 38.27 28.70 L 39.95 28.68 L 39.80 26.42 C 38.43 26.51 37.05 26.53 35.68 26.60 C 37.19 24.65 37.72 22.30 37.45 19.88 C 38.21 19.69 39.73 19.32 40.49 19.13 C 35.77 15.32 29.43 18.45 24.01 18.52 C 19.61 18.90 15.20 19.01 10.79 19.09 C 7.64 18.84 4.41 18.37 1.33 19.40 C 1.34 20.08 1.35 21.46 1.35 22.15 C 1.40 22.98 1.49 24.65 1.54 25.48 C 1.15 24.88 0.38 23.68 0.00 23.08 L 0.00 21.56 C 0.73 19.64 1.52 17.76 2.32 15.87 Z" />
</g>
<g id="#b0b1b1fe">
<path fill="#b0b1b1" opacity="1.00" d=" M 24.01 18.52 C 29.43 18.45 35.77 15.32 40.49 19.13 C 39.73 19.32 38.21 19.69 37.45 19.88 C 34.69 20.05 31.92 20.03 29.16 20.06 C 27.92 20.11 27.26 20.82 27.19 22.18 C 26.38 22.07 24.77 21.85 23.96 21.74 C 23.95 20.67 23.96 19.59 24.01 18.52 Z" />
</g>
<g id="#c7c7c8ff">
<path fill="#c7c7c8" opacity="1.00" d=" M 1.33 19.40 C 4.41 18.37 7.64 18.84 10.79 19.09 C 14.63 19.69 18.79 18.69 22.40 20.27 C 22.25 20.62 21.93 21.32 21.78 21.68 C 15.08 22.72 8.15 21.82 1.35 22.15 C 1.35 21.46 1.34 20.08 1.33 19.40 Z" />
</g>
<g id="#5d5e5eff">
<path fill="#5d5e5e" opacity="1.00" d=" M 10.79 19.09 C 15.20 19.01 19.61 18.90 24.01 18.52 C 23.96 19.59 23.95 20.67 23.96 21.74 C 24.77 21.85 26.38 22.07 27.19 22.18 C 27.15 23.47 27.09 24.76 27.04 26.05 C 27.83 26.90 28.63 27.75 29.43 28.60 C 31.92 28.70 34.41 28.82 36.91 28.70 C 37.25 28.70 37.93 28.70 38.27 28.70 L 40.04 29.45 C 35.58 29.59 31.11 29.56 26.67 29.99 C 27.56 30.45 29.33 31.37 30.22 31.83 C 28.91 31.98 27.60 32.14 26.30 32.30 C 25.74 32.02 24.63 31.45 24.08 31.17 L 22.60 30.08 C 22.60 29.76 22.59 29.12 22.59 28.80 C 16.13 28.83 9.67 28.86 3.22 28.79 C 2.67 27.68 2.12 26.57 1.54 25.48 C 1.49 24.65 1.40 22.98 1.35 22.15 C 8.15 21.82 15.08 22.72 21.78 21.68 C 21.93 21.32 22.25 20.62 22.40 20.27 C 18.79 18.69 14.63 19.69 10.79 19.09 M 1.61 23.90 C 8.10 26.69 15.50 24.76 22.20 23.64 C 19.06 22.00 15.40 22.86 12.01 22.68 C 8.54 22.89 4.77 22.03 1.61 23.90 M 15.42 25.01 C 17.61 27.72 22.50 28.07 25.17 25.92 C 22.29 23.90 18.66 24.86 15.42 25.01 Z" />
</g>
<g id="#29292aec">
<path fill="#29292a" opacity="0.93" d=" M 41.45 20.22 C 41.72 19.73 42.25 18.77 42.52 18.28 C 43.26 19.61 44.00 20.94 44.74 22.27 C 46.48 21.25 48.17 20.14 50.02 19.31 C 51.32 19.63 52.58 20.06 53.81 20.62 C 52.31 21.11 50.73 21.44 49.32 22.18 C 49.21 23.49 49.14 24.80 49.12 26.11 L 48.77 26.06 C 47.11 25.15 45.50 24.14 43.97 23.01 C 43.25 22.28 42.52 21.56 41.79 20.83 L 41.45 20.22 Z" />
</g>
<g id="#060711ff">
<path fill="#060711" opacity="1.00" d=" M 27.19 22.18 C 27.26 20.82 27.92 20.11 29.16 20.06 C 29.50 21.55 29.29 22.97 28.53 24.32 C 28.03 23.64 27.58 22.93 27.19 22.18 Z" />
<path fill="#060711" opacity="1.00" d=" M 46.60 57.31 C 42.46 54.87 44.66 49.19 45.58 45.49 C 45.90 48.31 45.64 51.43 46.99 54.01 C 50.94 55.52 55.44 55.41 59.53 54.52 C 61.06 52.18 61.25 49.27 61.80 46.60 C 63.11 50.18 63.05 54.07 61.69 57.63 C 56.67 57.54 51.57 58.19 46.60 57.31 Z" />
</g>
<g id="#5b5c5dff">
<path fill="#5b5c5d" opacity="1.00" d=" M 29.16 20.06 C 31.92 20.03 34.69 20.05 37.45 19.88 C 37.72 22.30 37.19 24.65 35.68 26.60 L 33.06 26.78 C 31.99 26.64 30.92 26.49 29.85 26.34 C 29.52 25.83 28.86 24.82 28.53 24.32 C 29.29 22.97 29.50 21.55 29.16 20.06 M 31.82 22.34 C 32.37 22.33 33.48 22.32 34.03 22.31 C 33.59 23.77 34.22 24.44 35.93 24.31 C 37.28 23.37 37.18 22.54 35.65 21.81 C 35.33 19.92 27.67 21.11 31.82 22.34 Z" />
</g>
<g id="#7a7b7cff">
<path fill="#7a7b7c" opacity="1.00" d=" M 31.82 22.34 C 27.67 21.11 35.33 19.92 35.65 21.81 C 35.25 21.94 34.44 22.19 34.03 22.31 C 33.48 22.32 32.37 22.33 31.82 22.34 Z" />
</g>
<g id="#2627275f">
<path fill="#262727" opacity="0.37" d=" M 39.16 20.83 C 39.40 21.45 39.88 22.69 40.11 23.31 L 39.92 23.95 C 38.62 23.26 38.37 22.22 39.16 20.83 Z" />
</g>
<g id="#9fa0a1fd">
<path fill="#9fa0a1" opacity="1.00" d=" M 40.11 23.31 C 40.42 22.30 40.98 21.48 41.79 20.83 C 42.52 21.56 43.25 22.28 43.97 23.01 C 42.72 23.64 41.33 24.11 39.92 23.95 L 40.11 23.31 Z" />
</g>
<g id="#151927ff">
<path fill="#151927" opacity="1.00" d=" M 27.19 22.18 C 27.58 22.93 28.03 23.64 28.53 24.32 C 28.86 24.82 29.52 25.83 29.85 26.34 C 30.92 26.49 31.99 26.64 33.06 26.78 C 34.09 27.84 35.63 28.05 36.91 28.70 C 34.41 28.82 31.92 28.70 29.43 28.60 C 28.63 27.75 27.83 26.90 27.04 26.05 C 27.09 24.76 27.15 23.47 27.19 22.18 Z" />
<path fill="#151927" opacity="1.00" d=" M 50.07 26.26 C 50.41 26.33 51.11 26.45 51.46 26.51 C 51.70 28.25 51.66 30.05 52.20 31.74 C 54.03 33.92 56.62 35.41 58.06 37.92 C 59.63 40.65 60.84 43.59 61.80 46.60 C 61.25 49.27 61.06 52.18 59.53 54.52 C 55.44 55.41 50.94 55.52 46.99 54.01 C 45.64 51.43 45.90 48.31 45.58 45.49 C 45.69 42.93 45.39 39.94 42.77 38.69 C 41.89 38.08 41.00 37.46 40.12 36.86 C 44.41 37.11 46.94 40.71 50.15 43.02 C 52.41 43.58 54.77 43.25 57.07 43.24 C 56.69 40.38 56.22 37.30 53.73 35.46 C 50.70 33.36 50.64 29.54 50.07 26.26 Z" />
</g>
<g id="#343435ff">
<path fill="#343435" opacity="1.00" d=" M 34.03 22.31 C 34.44 22.19 35.25 21.94 35.65 21.81 C 37.18 22.54 37.28 23.37 35.93 24.31 C 34.22 24.44 33.59 23.77 34.03 22.31 Z" />
</g>
<g id="#848586ff">
<path fill="#848586" opacity="1.00" d=" M 1.61 23.90 C 4.77 22.03 8.54 22.89 12.01 22.68 C 15.40 22.86 19.06 22.00 22.20 23.64 C 15.50 24.76 8.10 26.69 1.61 23.90 Z" />
</g>
<g id="#7f8082ff">
<path fill="#7f8082" opacity="1.00" d=" M 43.97 23.01 C 45.50 24.14 47.11 25.15 48.77 26.06 C 47.18 26.67 45.61 27.34 44.04 28.01 C 43.28 29.89 42.81 31.96 41.52 33.56 C 39.81 34.97 37.45 34.63 35.40 34.61 C 34.70 34.58 33.30 34.50 32.60 34.47 C 32.09 35.25 31.07 36.81 30.56 37.59 C 30.55 36.02 30.52 34.45 30.47 32.88 C 29.08 32.67 27.62 32.83 26.30 32.30 C 27.60 32.14 28.91 31.98 30.22 31.83 C 29.33 31.37 27.56 30.45 26.67 29.99 C 31.11 29.56 35.58 29.59 40.04 29.45 C 40.20 28.73 40.52 27.29 40.68 26.56 C 41.51 26.62 43.17 26.74 44.00 26.80 C 44.00 26.40 43.98 25.61 43.98 25.21 C 42.61 24.83 41.24 24.47 39.92 23.95 C 41.33 24.11 42.72 23.64 43.97 23.01 Z" />
</g>
<g id="#323333ff">
<path fill="#323333" opacity="1.00" d=" M 15.42 25.01 C 18.66 24.86 22.29 23.90 25.17 25.92 C 22.50 28.07 17.61 27.72 15.42 25.01 Z" />
</g>
<g id="#3a414fff">
<path fill="#3a414f" opacity="1.00" d=" M 48.77 26.06 L 49.12 26.11 L 50.07 26.26 C 50.64 29.54 50.70 33.36 53.73 35.46 C 50.34 38.46 46.09 36.26 42.28 35.59 C 39.04 34.91 36.56 37.47 34.40 39.44 C 33.94 39.45 33.02 39.46 32.57 39.47 C 33.54 37.87 34.48 36.25 35.40 34.61 C 37.45 34.63 39.81 34.97 41.52 33.56 C 42.81 31.96 43.28 29.89 44.04 28.01 C 45.61 27.34 47.18 26.67 48.77 26.06 Z" />
</g>
<g id="#2b3140ff">
<path fill="#2b3140" opacity="1.00" d=" M 22.60 30.08 L 24.08 31.17 C 24.72 33.40 24.63 36.00 26.19 37.86 C 27.78 39.69 30.39 39.39 32.57 39.47 C 33.02 39.46 33.94 39.45 34.40 39.44 C 36.56 37.47 39.04 34.91 42.28 35.59 C 46.09 36.26 50.34 38.46 53.73 35.46 C 56.22 37.30 56.69 40.38 57.07 43.24 C 54.77 43.25 52.41 43.58 50.15 43.02 C 46.94 40.71 44.41 37.11 40.12 36.86 C 41.00 37.46 41.89 38.08 42.77 38.69 C 37.53 38.87 32.53 43.20 27.26 40.78 C 23.20 38.99 22.10 34.10 22.60 30.08 Z" />
</g>
</svg>
