<?xml version="1.0" encoding="UTF-8" ?>
<!DOCTYPE svg PUBLIC "-//W3C//DTD SVG 1.1//EN" "http://www.w3.org/Graphics/SVG/1.1/DTD/svg11.dtd">
<svg width="64pt" height="64pt" viewBox="0 0 64 64" version="1.1" xmlns="http://www.w3.org/2000/svg">
<g id="#6a88a4ff">
<path fill="#6a88a4" opacity="1.00" d=" M 3.69 12.40 C 4.76 7.32 9.82 3.31 15.03 3.35 C 26.32 3.35 37.62 3.35 48.92 3.35 C 54.17 3.28 59.27 7.33 60.32 12.46 C 59.66 21.13 59.96 29.86 59.66 38.56 C 57.83 42.05 57.59 46.17 55.57 49.54 C 47.42 50.39 39.17 49.54 30.98 49.85 C 23.47 49.51 15.91 50.44 8.45 49.54 C 6.23 46.24 6.35 41.94 4.34 38.49 C 4.03 29.80 4.33 21.07 3.69 12.40 M 7.14 11.66 L 6.83 11.74 C 6.30 13.28 5.81 14.86 5.68 16.49 C 5.49 19.75 6.11 22.98 6.80 26.15 C 7.63 27.48 9.17 27.98 10.48 28.68 C 7.63 32.13 8.62 38.61 13.19 40.09 C 15.02 40.79 17.00 40.28 18.59 39.24 C 19.90 39.64 21.14 40.62 22.54 39.87 C 22.29 35.45 22.70 31.02 22.52 26.60 C 21.62 26.88 19.82 27.43 18.92 27.70 C 16.88 26.08 13.88 25.63 11.77 27.42 L 9.85 27.48 C 12.54 22.66 18.33 25.81 22.59 25.38 C 23.55 27.06 24.38 28.87 25.86 30.18 C 25.73 33.38 26.00 36.59 25.89 39.80 C 27.24 40.50 28.53 40.05 29.60 39.17 C 33.55 42.36 39.97 38.98 39.74 33.97 C 40.56 29.64 36.06 25.00 31.73 26.58 C 31.25 26.59 30.28 26.60 29.80 26.61 C 30.39 23.61 34.69 24.47 36.68 25.50 C 38.75 26.22 40.54 30.24 42.84 27.95 C 45.34 25.25 48.98 23.97 52.61 24.86 C 52.64 25.41 52.71 26.50 52.74 27.05 C 49.93 25.34 46.06 26.56 44.07 28.99 C 41.66 31.56 41.94 36.12 44.56 38.46 C 46.93 40.71 50.75 41.03 53.56 39.41 C 53.55 38.55 53.52 36.83 53.50 35.96 C 51.89 37.22 49.62 39.05 47.65 37.31 C 44.11 35.71 45.33 29.43 49.17 29.28 C 51.01 28.95 52.43 30.07 53.59 31.36 C 53.47 30.34 53.25 28.30 53.13 27.28 C 54.13 27.79 55.34 27.77 56.41 27.51 C 58.17 24.25 58.31 20.29 58.30 16.64 C 58.20 14.92 57.69 13.26 57.17 11.63 L 56.83 11.57 C 55.04 7.92 50.99 5.85 47.02 5.86 C 37.01 5.85 27.00 5.85 16.99 5.86 C 12.98 5.85 8.89 7.95 7.14 11.66 Z" />
</g>
<g id="#e1eaf2ff">
<path fill="#e1eaf2" opacity="1.00" d=" M 7.14 11.66 C 8.89 7.95 12.98 5.85 16.99 5.86 C 27.00 5.85 37.01 5.85 47.02 5.86 C 50.99 5.85 55.04 7.92 56.83 11.57 C 55.06 11.69 53.94 10.20 52.57 9.37 C 50.69 7.90 48.20 8.03 45.96 7.92 C 36.96 7.90 27.97 7.94 18.98 7.90 C 16.44 8.03 13.60 7.74 11.45 9.37 C 10.06 10.23 8.89 11.60 7.14 11.66 Z" />
</g>
<g id="#a9c4dcff">
<path fill="#a9c4dc" opacity="1.00" d=" M 11.45 9.37 C 13.60 7.74 16.44 8.03 18.98 7.90 C 27.97 7.94 36.96 7.90 45.96 7.92 C 48.20 8.03 50.69 7.90 52.57 9.37 C 53.94 10.20 55.06 11.69 56.83 11.57 L 57.17 11.63 C 57.69 13.26 58.20 14.92 58.30 16.64 C 56.53 16.87 56.07 15.33 55.46 14.06 C 53.34 14.61 51.25 15.44 49.02 15.33 C 37.37 15.21 25.71 15.25 14.06 15.33 C 12.13 15.40 10.38 14.55 8.58 14.03 C 7.90 15.26 7.50 16.94 5.68 16.49 C 5.81 14.86 6.30 13.28 6.83 11.74 L 7.14 11.66 C 8.89 11.60 10.06 10.23 11.45 9.37 Z" />
</g>
<g id="#3f5164e2">
<path fill="#3f5164" opacity="0.89" d=" M 3.08 16.97 C 3.12 15.44 2.97 13.82 3.69 12.40 C 4.33 21.07 4.03 29.80 4.34 38.49 C 4.58 43.85 3.22 49.79 6.03 54.68 C 7.87 57.74 11.40 59.84 15.01 59.69 C 26.36 59.73 37.71 59.73 49.05 59.68 C 54.38 59.90 59.14 55.27 59.55 50.05 C 59.80 46.22 59.77 42.38 59.66 38.56 C 59.96 29.86 59.66 21.13 60.32 12.46 C 61.03 13.85 60.88 15.45 60.92 16.96 C 60.89 27.65 60.88 38.34 60.84 49.04 C 60.89 55.32 55.35 60.91 49.06 60.87 C 37.68 60.87 26.30 60.87 14.92 60.87 C 8.65 60.90 3.13 55.34 3.16 49.07 C 3.12 38.37 3.11 27.67 3.08 16.97 Z" />
</g>
<g id="#9bb6d0ff">
<path fill="#9bb6d0" opacity="1.00" d=" M 8.58 14.03 C 10.38 14.55 12.13 15.40 14.06 15.33 C 25.71 15.25 37.37 15.21 49.02 15.33 C 51.25 15.44 53.34 14.61 55.46 14.06 C 56.07 15.33 56.53 16.87 58.30 16.64 C 58.31 20.29 58.17 24.25 56.41 27.51 C 55.34 27.77 54.13 27.79 53.13 27.28 L 52.74 27.05 C 52.71 26.50 52.64 25.41 52.61 24.86 C 48.98 23.97 45.34 25.25 42.84 27.95 C 40.54 30.24 38.75 26.22 36.68 25.50 C 34.69 24.47 30.39 23.61 29.80 26.61 C 30.28 26.60 31.25 26.59 31.73 26.58 C 30.79 27.13 29.84 27.68 28.90 28.24 C 28.85 25.16 28.98 22.07 28.94 18.99 C 29.37 17.36 25.63 17.36 26.05 18.99 C 25.95 22.72 26.30 26.46 25.86 30.18 C 24.38 28.87 23.55 27.06 22.59 25.38 C 18.33 25.81 12.54 22.66 9.85 27.48 L 11.77 27.42 C 11.33 27.83 10.90 28.25 10.48 28.68 C 9.17 27.98 7.63 27.48 6.80 26.15 C 6.11 22.98 5.49 19.75 5.68 16.49 C 7.50 16.94 7.90 15.26 8.58 14.03 Z" />
</g>
<g id="#5289b8ff">
<path fill="#5289b8" opacity="1.00" d=" M 26.05 18.99 C 25.63 17.36 29.37 17.36 28.94 18.99 C 28.22 18.99 26.77 18.99 26.05 18.99 Z" />
</g>
<g id="#ffffffff">
<path fill="#ffffff" opacity="1.00" d=" M 26.05 18.99 C 26.77 18.99 28.22 18.99 28.94 18.99 C 28.98 22.07 28.85 25.16 28.90 28.24 C 29.84 27.68 30.79 27.13 31.73 26.58 C 36.06 25.00 40.56 29.64 39.74 33.97 C 39.97 38.98 33.55 42.36 29.60 39.17 C 28.53 40.05 27.24 40.50 25.89 39.80 C 26.00 36.59 25.73 33.38 25.86 30.18 C 26.30 26.46 25.95 22.72 26.05 18.99 M 29.01 35.96 L 29.47 35.81 C 30.66 38.99 35.54 38.16 36.36 35.03 C 37.40 32.36 35.25 28.41 32.07 29.14 C 28.84 29.42 28.34 33.45 29.01 35.96 Z" />
<path fill="#ffffff" opacity="1.00" d=" M 11.77 27.42 C 13.88 25.63 16.88 26.08 18.92 27.70 C 19.82 27.43 21.62 26.88 22.52 26.60 C 22.70 31.02 22.29 35.45 22.54 39.87 C 21.14 40.62 19.90 39.64 18.59 39.24 C 17.00 40.28 15.02 40.79 13.19 40.09 C 8.62 38.61 7.63 32.13 10.48 28.68 C 10.90 28.25 11.33 27.83 11.77 27.42 M 12.01 35.37 L 12.40 35.39 C 13.12 38.23 17.31 38.62 18.91 36.25 L 18.94 36.26 C 20.99 33.51 18.93 28.41 15.14 29.22 C 12.22 29.47 11.57 33.00 12.01 35.37 Z" />
<path fill="#ffffff" opacity="1.00" d=" M 44.07 28.99 C 46.06 26.56 49.93 25.34 52.74 27.05 L 53.13 27.28 C 53.25 28.30 53.47 30.34 53.59 31.36 C 52.43 30.07 51.01 28.95 49.17 29.28 C 45.33 29.43 44.11 35.71 47.65 37.31 C 49.62 39.05 51.89 37.22 53.50 35.96 C 53.52 36.83 53.55 38.55 53.56 39.41 C 50.75 41.03 46.93 40.71 44.56 38.46 C 41.94 36.12 41.66 31.56 44.07 28.99 Z" />
</g>
<g id="#7294b2ff">
<path fill="#7294b2" opacity="1.00" d=" M 12.01 35.37 C 11.57 33.00 12.22 29.47 15.14 29.22 C 18.93 28.41 20.99 33.51 18.94 36.26 L 18.91 36.25 C 16.79 35.66 14.60 35.40 12.40 35.39 L 12.01 35.37 Z" />
</g>
<g id="#7f9ebbff">
<path fill="#7f9ebb" opacity="1.00" d=" M 29.01 35.96 C 28.34 33.45 28.84 29.42 32.07 29.14 C 35.25 28.41 37.40 32.36 36.36 35.03 C 34.07 35.25 31.66 34.98 29.47 35.81 L 29.01 35.96 Z" />
</g>
<g id="#4b78a0ff">
<path fill="#4b78a0" opacity="1.00" d=" M 12.40 35.39 C 14.60 35.40 16.79 35.66 18.91 36.25 C 17.31 38.62 13.12 38.23 12.40 35.39 Z" />
</g>
<g id="#5580a5ff">
<path fill="#5580a5" opacity="1.00" d=" M 29.47 35.81 C 31.66 34.98 34.07 35.25 36.36 35.03 C 35.54 38.16 30.66 38.99 29.47 35.81 Z" />
</g>
<g id="#627e98ff">
<path fill="#627e98" opacity="1.00" d=" M 4.34 38.49 C 6.35 41.94 6.23 46.24 8.45 49.54 C 15.91 50.44 23.47 49.51 30.98 49.85 C 39.17 49.54 47.42 50.39 55.57 49.54 C 57.59 46.17 57.83 42.05 59.66 38.56 C 59.77 42.38 59.80 46.22 59.55 50.05 C 59.14 55.27 54.38 59.90 49.05 59.68 C 37.71 59.73 26.36 59.73 15.01 59.69 C 11.40 59.84 7.87 57.74 6.03 54.68 C 3.22 49.79 4.58 43.85 4.34 38.49 Z" />
</g>
</svg>
