<?xml version="1.0" encoding="UTF-8" ?>
<!DOCTYPE svg PUBLIC "-//W3C//DTD SVG 1.1//EN" "http://www.w3.org/Graphics/SVG/1.1/DTD/svg11.dtd">
<svg width="64pt" height="64pt" viewBox="0 0 64 64" version="1.1" xmlns="http://www.w3.org/2000/svg">
<g id="#5c5c5de6">
<path fill="#5c5c5d" opacity="0.90" d=" M 10.18 3.18 C 14.88 7.12 19.63 11.47 23.29 16.43 C 17.05 15.09 13.55 8.32 8.90 4.25 C 9.22 3.99 9.86 3.45 10.18 3.18 Z" />
</g>
<g id="#171717f4">
<path fill="#171717" opacity="0.96" d=" M 6.04 6.76 C 6.78 5.84 7.54 3.97 8.90 4.25 C 13.55 8.32 17.05 15.09 23.29 16.43 C 24.84 16.96 27.28 18.82 26.86 20.69 C 26.19 21.48 25.54 22.28 24.91 23.08 C 19.55 16.71 13.04 11.25 6.04 6.76 Z" />
</g>
<g id="#343434ed">
<path fill="#343434" opacity="0.93" d=" M 6.72 10.28 C 5.67 9.66 3.72 6.77 6.04 6.76 C 13.04 11.25 19.55 16.71 24.91 23.08 C 24.35 23.82 23.79 24.53 23.20 25.24 C 16.56 21.97 12.43 14.99 6.72 10.28 Z" />
</g>
<g id="#737373f0">
<path fill="#737373" opacity="0.94" d=" M 24.91 23.08 C 25.54 22.28 26.19 21.48 26.86 20.69 C 27.77 21.11 28.48 21.76 28.97 22.65 C 26.26 23.29 25.22 25.82 24.16 28.09 C 23.82 27.14 23.50 26.19 23.20 25.24 C 23.79 24.53 24.35 23.82 24.91 23.08 Z" />
</g>
<g id="#d3d3d3fd">
<path fill="#d3d3d3" opacity="1.00" d=" M 24.16 28.09 C 25.22 25.82 26.26 23.29 28.97 22.65 C 37.06 30.31 44.80 38.40 52.75 46.23 L 52.71 46.95 C 52.00 50.57 55.89 53.33 55.03 57.07 C 45.13 55.01 37.67 46.57 29.01 41.87 C 25.03 40.25 21.56 37.04 19.99 33.01 C 20.77 30.97 23.11 29.99 24.16 28.09 Z" />
</g>
<g id="#9b9b9bf3">
<path fill="#9b9b9b" opacity="0.95" d=" M 29.01 41.87 C 37.67 46.57 45.13 55.01 55.03 57.07 C 55.89 53.33 52.00 50.57 52.71 46.95 L 53.70 47.13 C 55.39 51.28 58.31 55.34 58.02 60.01 C 56.71 60.15 55.43 60.04 54.20 59.66 C 52.51 58.79 50.82 57.91 49.11 57.08 C 42.11 52.58 34.07 48.52 29.01 41.87 Z" />
</g>
<g id="#0303032c">
<path fill="#030303" opacity="0.17" d=" M 49.11 57.08 C 50.82 57.91 52.51 58.79 54.20 59.66 C 47.64 62.85 40.11 62.09 33.06 61.84 C 30.32 61.25 25.62 61.86 25.93 58.03 C 28.53 57.81 31.11 57.86 33.68 58.16 C 34.59 61.55 39.82 60.17 42.02 61.01 C 44.42 61.35 47.34 60.74 48.36 58.27 C 48.55 57.97 48.92 57.38 49.11 57.08 Z" />
</g>
<g id="#00000048">
<path fill="#000000" opacity="0.28" d=" M 33.68 58.16 C 38.56 58.03 43.50 57.64 48.36 58.27 C 47.34 60.74 44.42 61.35 42.02 61.01 C 39.82 60.17 34.59 61.55 33.68 58.16 Z" />
</g>
</svg>
