<?xml version="1.0" encoding="UTF-8" ?>
<!DOCTYPE svg PUBLIC "-//W3C//DTD SVG 1.1//EN" "http://www.w3.org/Graphics/SVG/1.1/DTD/svg11.dtd">
<svg width="64pt" height="64pt" viewBox="0 0 64 64" version="1.1" xmlns="http://www.w3.org/2000/svg">
<g id="#434343fc">
<path fill="#434343" opacity="1.00" d=" M 2.04 9.99 C 4.13 6.44 6.38 2.27 10.65 1.07 C 11.05 1.60 11.84 2.65 12.23 3.18 C 11.47 3.16 9.95 3.13 9.19 3.11 C 6.28 6.24 3.69 9.70 2.06 13.68 C 5.45 13.74 7.79 16.88 10.92 17.92 C 8.61 16.22 5.89 15.11 3.75 13.18 C 6.94 10.86 7.89 6.99 10.08 3.99 C 11.84 4.57 13.57 8.34 15.37 6.60 L 14.66 7.56 C 15.82 8.38 17.08 9.11 17.98 10.23 C 16.04 13.66 14.28 17.29 10.91 19.58 C 7.67 18.72 4.95 16.49 2.10 14.78 C 0.23 13.78 1.45 11.44 2.04 9.99 Z" />
<path fill="#434343" opacity="1.00" d=" M 12.37 3.47 C 14.26 3.56 15.87 5.54 16.86 7.07 C 16.49 6.95 15.74 6.72 15.37 6.60 C 14.37 5.56 12.60 5.09 12.37 3.47 Z" />
<path fill="#434343" opacity="1.00" d=" M 29.96 32.08 C 32.92 31.87 33.46 26.87 36.94 28.01 C 39.88 30.43 35.16 33.01 33.70 34.85 C 32.39 35.20 31.06 35.29 29.71 35.14 C 29.60 36.71 29.60 38.30 29.66 39.88 C 30.45 39.94 32.04 40.07 32.83 40.13 C 34.55 41.99 36.86 43.51 37.75 45.97 C 36.35 45.62 35.24 44.62 34.39 43.50 C 33.64 43.74 32.12 44.21 31.36 44.45 L 31.09 44.89 C 30.86 44.33 30.39 43.23 30.15 42.68 C 29.47 41.71 27.69 41.41 26.93 42.43 C 26.64 42.71 26.08 43.26 25.80 43.54 L 25.20 44.22 C 24.36 43.93 22.68 43.36 21.84 43.08 C 21.48 43.31 20.76 43.77 20.39 44.00 C 21.05 42.61 21.94 41.36 22.96 40.21 C 24.45 40.05 25.94 39.97 27.44 39.97 C 26.42 38.56 23.50 38.89 24.17 36.37 C 24.91 36.24 26.38 35.98 27.12 35.86 C 27.17 33.78 26.67 31.78 26.25 29.76 C 27.83 29.92 28.90 31.03 29.96 32.08 Z" />
<path fill="#434343" opacity="1.00" d=" M 41.12 28.01 C 41.66 28.09 42.74 28.25 43.28 28.33 C 43.88 28.77 44.51 29.17 45.16 29.55 L 43.61 29.34 C 42.28 31.32 41.84 34.02 39.67 35.31 C 38.14 34.83 37.47 35.37 37.67 36.93 L 35.64 35.50 C 37.71 33.22 40.91 31.42 41.12 28.01 Z" />
<path fill="#434343" opacity="1.00" d=" M 58.16 39.79 C 58.59 40.12 59.46 40.79 59.89 41.12 C 59.46 40.79 58.59 40.12 58.16 39.79 Z" />
<path fill="#434343" opacity="1.00" d=" M 27.04 43.84 C 27.76 43.85 29.22 43.88 29.95 43.89 C 29.95 44.37 29.97 45.32 29.97 45.80 C 29.24 45.80 27.78 45.81 27.04 45.82 C 27.04 45.32 27.04 44.33 27.04 43.84 Z" />
<path fill="#434343" opacity="1.00" d=" M 61.61 44.58 C 61.71 44.65 61.90 44.81 62.00 44.89 C 61.90 44.81 61.71 44.65 61.61 44.58 Z" />
<path fill="#434343" opacity="1.00" d=" M 59.83 44.32 C 59.98 44.87 60.28 45.96 60.42 46.51 C 61.09 46.47 62.43 46.39 63.10 46.36 C 62.65 50.39 57.97 50.76 56.06 47.56 C 57.95 47.74 58.76 45.43 59.83 44.32 Z" />
</g>
<g id="#d4d4d4ff">
<path fill="#d4d4d4" opacity="1.00" d=" M 9.19 3.11 C 9.95 3.13 11.47 3.16 12.23 3.18 C 12.27 3.25 12.33 3.40 12.37 3.47 C 12.60 5.09 14.37 5.56 15.37 6.60 C 13.57 8.34 11.84 4.57 10.08 3.99 C 7.89 6.99 6.94 10.86 3.75 13.18 C 5.89 15.11 8.61 16.22 10.92 17.92 C 7.79 16.88 5.45 13.74 2.06 13.68 C 3.69 9.70 6.28 6.24 9.19 3.11 Z" />
<path fill="#d4d4d4" opacity="1.00" d=" M 15.37 6.60 C 15.74 6.72 16.49 6.95 16.86 7.07 C 17.70 7.87 18.49 8.75 19.47 9.38 C 27.01 14.74 34.08 20.67 41.58 26.07 C 42.01 26.63 42.86 27.76 43.28 28.33 C 42.74 28.25 41.66 28.09 41.12 28.01 C 40.91 31.42 37.71 33.22 35.64 35.50 C 35.16 35.34 34.18 35.01 33.70 34.85 C 35.16 33.01 39.88 30.43 36.94 28.01 C 33.46 26.87 32.92 31.87 29.96 32.08 C 28.90 31.03 27.83 29.92 26.25 29.76 C 21.23 26.25 15.95 23.07 10.91 19.58 C 14.28 17.29 16.04 13.66 17.98 10.23 C 17.08 9.11 15.82 8.38 14.66 7.56 L 15.37 6.60 Z" />
<path fill="#d4d4d4" opacity="1.00" d=" M 39.67 35.31 C 41.84 34.02 42.28 31.32 43.61 29.34 L 45.16 29.55 C 49.10 33.38 53.95 36.24 58.16 39.79 C 58.59 40.12 59.46 40.79 59.89 41.12 C 61.33 42.12 62.72 43.17 64.00 44.37 L 64.00 45.18 C 63.50 45.11 62.50 44.96 62.00 44.89 C 61.90 44.81 61.71 44.65 61.61 44.58 C 61.71 44.65 61.90 44.81 62.00 44.89 C 62.28 45.26 62.83 45.99 63.10 46.36 C 62.43 46.39 61.09 46.47 60.42 46.51 C 60.28 45.96 59.98 44.87 59.83 44.32 C 58.76 45.43 57.95 47.74 56.06 47.56 C 50.46 43.45 44.03 40.46 38.53 36.31 C 38.82 36.06 39.39 35.56 39.67 35.31 Z" />
<path fill="#d4d4d4" opacity="1.00" d=" M 25.80 43.54 C 26.08 43.26 26.64 42.71 26.93 42.43 L 27.04 43.84 C 27.04 44.33 27.04 45.32 27.04 45.82 C 27.78 45.81 29.24 45.80 29.97 45.80 C 29.97 45.32 29.95 44.37 29.95 43.89 L 30.15 42.68 C 30.39 43.23 30.86 44.33 31.09 44.89 C 30.90 51.25 31.03 57.63 30.94 64.00 L 26.05 64.00 C 25.91 57.18 26.23 50.34 25.80 43.54 Z" />
<path fill="#d4d4d4" opacity="1.00" d=" M 20.39 44.00 C 20.76 43.77 21.48 43.31 21.84 43.08 C 22.68 43.36 24.36 43.93 25.20 44.22 C 20.65 50.79 16.29 57.49 11.66 64.00 L 6.47 64.00 C 11.07 57.31 15.95 50.80 20.39 44.00 Z" />
<path fill="#d4d4d4" opacity="1.00" d=" M 31.36 44.45 C 32.12 44.21 33.64 43.74 34.39 43.50 C 35.24 44.62 36.35 45.62 37.75 45.97 C 41.90 52.01 46.16 57.99 50.36 64.00 L 45.15 64.00 C 40.44 57.57 35.86 51.03 31.36 44.45 Z" />
</g>
</svg>
