<?xml version="1.0" encoding="UTF-8" ?>
<!DOCTYPE svg PUBLIC "-//W3C//DTD SVG 1.1//EN" "http://www.w3.org/Graphics/SVG/1.1/DTD/svg11.dtd">
<svg width="64pt" height="64pt" viewBox="0 0 64 64" version="1.1" xmlns="http://www.w3.org/2000/svg">
<g id="#ce1a03ff">
<path fill="#ce1a03" opacity="1.00" d=" M 17.95 13.16 C 18.73 10.18 19.82 7.30 20.95 4.44 C 21.55 7.38 21.90 10.44 20.92 13.34 C 20.18 13.30 18.70 13.20 17.95 13.16 Z" />
<path fill="#ce1a03" opacity="1.00" d=" M 21.16 29.34 C 23.62 21.60 27.78 14.60 31.52 7.45 C 32.03 14.48 35.08 20.89 38.20 27.08 C 35.26 22.48 32.79 17.61 30.20 12.81 C 26.81 18.10 23.78 23.62 21.16 29.34 Z" />
<path fill="#ce1a03" opacity="1.00" d=" M 38.96 22.25 C 37.71 19.43 38.85 16.45 39.83 13.75 C 40.48 16.70 41.45 19.60 41.74 22.62 C 41.05 22.53 39.65 22.34 38.96 22.25 Z" />
<path fill="#ce1a03" opacity="1.00" d=" M 12.15 32.30 C 13.26 28.44 14.92 24.77 16.38 21.03 C 16.96 23.85 17.73 26.63 18.82 29.30 C 17.81 27.98 16.80 26.67 15.78 25.36 C 14.53 27.65 13.23 29.92 12.15 32.30 Z" />
<path fill="#ce1a03" opacity="1.00" d=" M 42.16 27.92 C 43.36 25.61 44.11 23.12 44.71 20.60 C 47.45 25.80 50.85 30.68 52.89 36.23 C 51.03 32.14 48.56 28.38 46.13 24.62 C 44.81 25.72 43.49 26.83 42.16 27.92 Z" />
<path fill="#ce1a03" opacity="1.00" d=" M 6.62 28.20 C 7.06 25.84 8.05 23.66 9.39 21.68 C 9.45 24.00 9.44 26.32 9.39 28.65 C 8.47 28.50 7.54 28.35 6.62 28.20 Z" />
<path fill="#ce1a03" opacity="1.00" d=" M 50.57 28.73 C 51.46 26.27 52.50 23.87 53.61 21.50 C 54.01 23.40 54.80 25.37 54.25 27.32 C 53.68 28.90 51.85 28.46 50.57 28.73 Z" />
</g>
<g id="#e4620fff">
<path fill="#e4620f" opacity="1.00" d=" M 21.16 29.34 C 23.78 23.62 26.81 18.10 30.20 12.81 C 32.79 17.61 35.26 22.48 38.20 27.08 C 38.76 27.98 39.32 28.88 39.88 29.77 C 40.45 29.31 41.59 28.38 42.16 27.92 C 43.49 26.83 44.81 25.72 46.13 24.62 C 48.56 28.38 51.03 32.14 52.89 36.23 C 54.90 41.87 54.78 48.45 51.79 53.73 C 49.82 57.25 46.13 59.80 42.06 60.02 C 37.00 60.22 31.96 60.69 26.90 60.44 C 21.06 61.17 14.16 59.08 11.48 53.41 C 8.41 46.73 9.99 39.01 12.15 32.30 C 13.23 29.92 14.53 27.65 15.78 25.36 C 16.80 26.67 17.81 27.98 18.82 29.30 C 19.18 29.78 19.91 30.75 20.28 31.23 C 20.50 30.76 20.94 29.81 21.16 29.34 M 20.98 32.95 C 19.19 31.65 17.40 30.35 15.62 29.04 C 12.39 35.42 10.26 42.76 11.84 49.92 C 12.96 54.67 17.27 58.33 22.08 58.90 C 28.91 59.80 35.86 59.38 42.68 58.57 C 48.40 58.06 52.18 52.38 52.55 47.01 C 53.36 40.04 50.56 33.08 45.67 28.16 C 43.45 29.60 41.15 30.93 38.76 32.05 C 36.13 27.27 33.29 22.59 29.96 18.26 C 26.29 22.72 23.77 27.93 20.98 32.95 Z" />
</g>
<g id="#f2b420ff">
<path fill="#f2b420" opacity="1.00" d=" M 20.98 32.95 C 23.77 27.93 26.29 22.72 29.96 18.26 C 33.29 22.59 36.13 27.27 38.76 32.05 C 41.15 30.93 43.45 29.60 45.67 28.16 C 50.56 33.08 53.36 40.04 52.55 47.01 C 52.18 52.38 48.40 58.06 42.68 58.57 C 35.86 59.38 28.91 59.80 22.08 58.90 C 17.27 58.33 12.96 54.67 11.84 49.92 C 10.26 42.76 12.39 35.42 15.62 29.04 C 17.40 30.35 19.19 31.65 20.98 32.95 M 23.55 35.51 C 21.06 35.87 18.54 35.58 16.05 35.45 C 14.04 41.96 12.61 50.58 18.58 55.48 L 18.93 53.97 C 26.12 59.70 36.29 57.74 44.64 56.16 C 46.24 54.66 48.30 53.35 48.92 51.11 C 50.65 45.03 49.42 38.39 45.79 33.23 C 42.88 34.00 39.34 36.92 36.64 34.32 C 34.03 31.34 32.31 27.71 29.96 24.52 C 27.56 28.03 26.03 32.06 23.55 35.51 Z" />
</g>
<g id="#fbe434ff">
<path fill="#fbe434" opacity="1.00" d=" M 23.55 35.51 C 26.03 32.06 27.56 28.03 29.96 24.52 C 32.31 27.71 34.03 31.34 36.64 34.32 C 39.34 36.92 42.88 34.00 45.79 33.23 C 49.42 38.39 50.65 45.03 48.92 51.11 C 48.30 53.35 46.24 54.66 44.64 56.16 C 44.97 53.38 45.95 50.28 44.29 47.73 C 42.34 44.48 39.61 40.29 35.26 40.76 C 31.02 41.29 26.48 42.25 23.18 45.16 C 20.61 47.38 19.60 50.76 18.93 53.97 L 18.58 55.48 C 12.61 50.58 14.04 41.96 16.05 35.45 C 18.54 35.58 21.06 35.87 23.55 35.51 Z" />
</g>
<g id="#fced74ff">
<path fill="#fced74" opacity="1.00" d=" M 35.26 40.76 C 39.61 40.29 42.34 44.48 44.29 47.73 C 45.95 50.28 44.97 53.38 44.64 56.16 C 36.29 57.74 26.12 59.70 18.93 53.97 C 19.60 50.76 20.61 47.38 23.18 45.16 C 26.48 42.25 31.02 41.29 35.26 40.76 M 23.68 54.68 C 26.39 55.68 29.08 56.91 31.99 57.15 C 34.82 57.21 37.51 56.21 40.19 55.45 C 40.56 54.78 41.29 53.45 41.66 52.78 C 39.20 49.78 36.22 46.25 31.92 46.49 C 27.61 47.03 24.72 50.69 23.68 54.68 Z" />
</g>
<g id="#fdf6baff">
<path fill="#fdf6ba" opacity="1.00" d=" M 23.68 54.68 C 24.72 50.69 27.61 47.03 31.92 46.49 C 36.22 46.25 39.20 49.78 41.66 52.78 C 41.29 53.45 40.56 54.78 40.19 55.45 C 37.51 56.21 34.82 57.21 31.99 57.15 C 29.08 56.91 26.39 55.68 23.68 54.68 M 27.52 54.87 C 30.68 55.62 33.92 55.81 37.15 55.62 C 36.47 53.59 35.74 50.78 32.97 51.30 C 30.27 50.63 28.73 52.89 27.52 54.87 Z" />
</g>
<g id="#fefceaff">
<path fill="#fefcea" opacity="1.00" d=" M 27.52 54.87 C 28.73 52.89 30.27 50.63 32.97 51.30 C 35.74 50.78 36.47 53.59 37.15 55.62 C 33.92 55.81 30.68 55.62 27.52 54.87 Z" />
</g>
</svg>
