<?xml version="1.0" encoding="UTF-8" ?>
<!DOCTYPE svg PUBLIC "-//W3C//DTD SVG 1.1//EN" "http://www.w3.org/Graphics/SVG/1.1/DTD/svg11.dtd">
<svg width="64pt" height="64pt" viewBox="0 0 64 64" version="1.1" xmlns="http://www.w3.org/2000/svg">
<g id="#6785a0ff">
<path fill="#6785a0" opacity="1.00" d=" M 12.44 3.64 C 24.27 2.94 36.17 3.54 48.03 3.34 C 54.46 2.82 60.73 8.36 60.66 14.88 C 60.74 26.24 60.65 37.61 60.62 48.98 C 60.81 55.14 55.17 60.81 49.01 60.63 C 37.66 60.67 26.30 60.67 14.95 60.63 C 8.82 60.78 3.21 55.15 3.38 49.02 C 3.35 37.66 3.27 26.30 3.33 14.94 C 3.26 9.65 7.39 4.87 12.44 3.64 M 7.01 11.59 L 6.64 11.70 C 4.99 15.82 5.53 20.39 6.41 24.61 C 7.36 29.20 12.74 30.52 16.68 31.31 C 22.84 31.40 28.96 33.42 35.10 32.14 C 40.21 30.88 45.61 32.37 50.61 30.52 C 53.28 29.64 56.64 28.51 57.38 25.41 C 58.39 20.96 59.11 16.10 57.36 11.74 L 57.00 11.62 C 55.40 9.70 53.77 7.53 51.28 6.74 C 45.62 5.13 39.72 6.25 33.95 6.05 C 27.35 5.73 20.71 5.69 14.13 6.41 C 11.00 6.74 8.84 9.29 7.01 11.59 M 13.50 42.04 C 12.44 47.06 16.72 52.30 21.93 51.75 C 25.66 51.87 28.14 48.65 29.11 45.39 C 27.99 45.30 26.87 45.25 25.75 45.21 C 24.94 46.66 23.98 48.01 22.94 49.29 C 20.86 49.02 18.34 48.64 17.51 46.38 C 15.68 42.77 17.94 35.91 22.95 37.74 C 24.63 39.45 26.45 41.02 29.10 40.39 C 27.87 37.83 26.15 34.91 22.95 34.77 C 18.36 33.73 13.73 37.38 13.50 42.04 M 35.87 35.01 C 35.81 40.45 35.92 45.88 35.90 51.32 C 39.23 51.26 42.66 51.74 45.92 50.84 C 52.26 48.43 52.07 37.60 45.65 35.40 C 42.46 34.66 39.12 35.14 35.87 35.01 Z" />
<path fill="#6785a0" opacity="1.00" d=" M 35.73 12.90 C 39.51 11.96 43.44 12.34 47.27 12.70 C 46.83 12.79 45.94 12.96 45.50 13.05 C 42.24 13.17 38.98 13.13 35.73 12.90 Z" />
<path fill="#6785a0" opacity="1.00" d=" M 21.08 17.52 C 21.70 19.50 22.55 21.40 23.49 23.24 C 22.06 23.24 20.62 23.24 19.19 23.25 C 20.20 21.49 20.86 19.55 21.08 17.52 Z" />
<path fill="#6785a0" opacity="1.00" d=" M 39.06 26.46 C 41.52 25.51 44.13 25.10 46.72 24.78 C 45.07 27.57 41.74 27.18 39.06 26.46 Z" />
<path fill="#6785a0" opacity="1.00" d=" M 39.44 37.82 C 41.70 37.94 44.73 37.45 46.06 39.80 C 47.28 42.35 47.52 46.10 44.99 47.96 C 43.24 48.73 41.28 48.54 39.42 48.68 C 39.38 45.06 39.44 41.44 39.44 37.82 Z" />
</g>
<g id="#ffffffff">
<path fill="#ffffff" opacity="1.00" d=" M 7.01 11.59 C 8.84 9.29 11.00 6.74 14.13 6.41 C 20.71 5.69 27.35 5.73 33.95 6.05 C 39.72 6.25 45.62 5.13 51.28 6.74 C 53.77 7.53 55.40 9.70 57.00 11.62 C 56.63 11.50 55.91 11.27 55.55 11.15 C 53.16 9.81 50.92 7.86 48.03 7.81 C 41.36 7.38 34.67 7.79 27.99 7.65 C 21.36 7.77 13.93 6.44 8.45 11.14 C 8.09 11.25 7.37 11.47 7.01 11.59 Z" />
<path fill="#ffffff" opacity="1.00" d=" M 19.65 13.51 C 20.75 13.25 21.87 13.05 22.99 12.92 C 25.18 18.43 27.33 23.98 29.05 29.66 C 27.96 29.58 26.88 29.48 25.80 29.38 C 25.42 28.25 25.06 27.12 24.69 25.99 C 22.54 25.90 20.39 25.86 18.24 25.85 C 17.73 27.08 17.21 28.32 16.68 29.55 C 15.63 29.54 14.58 29.54 13.53 29.54 C 15.73 24.26 17.34 18.74 19.65 13.51 M 21.08 17.52 C 20.86 19.55 20.20 21.49 19.19 23.25 C 20.62 23.24 22.06 23.24 23.49 23.24 C 22.55 21.40 21.70 19.50 21.08 17.52 Z" />
<path fill="#ffffff" opacity="1.00" d=" M 35.73 12.90 C 38.98 13.13 42.24 13.17 45.50 13.05 C 49.07 13.92 49.98 18.34 47.16 20.62 C 49.41 22.40 50.87 26.09 48.15 28.17 C 44.58 30.43 40.06 29.23 36.07 29.51 C 35.95 23.98 35.97 18.44 35.73 12.90 M 39.40 15.93 C 39.38 17.28 39.35 18.64 39.33 20.00 C 41.15 19.96 43.02 20.21 44.79 19.72 C 45.52 18.81 45.47 17.59 45.72 16.52 C 43.67 15.92 41.53 15.81 39.40 15.93 M 39.53 22.14 C 39.37 23.58 39.21 25.02 39.04 26.47 L 39.06 26.46 C 41.74 27.18 45.07 27.57 46.72 24.78 C 45.64 21.60 42.18 22.20 39.53 22.14 Z" />
<path fill="#ffffff" opacity="1.00" d=" M 13.50 42.04 C 13.73 37.38 18.36 33.73 22.95 34.77 C 26.15 34.91 27.87 37.83 29.10 40.39 C 26.45 41.02 24.63 39.45 22.95 37.74 C 17.94 35.91 15.68 42.77 17.51 46.38 C 18.34 48.64 20.86 49.02 22.94 49.29 C 23.98 48.01 24.94 46.66 25.75 45.21 C 26.87 45.25 27.99 45.30 29.11 45.39 C 28.14 48.65 25.66 51.87 21.93 51.75 C 16.72 52.30 12.44 47.06 13.50 42.04 Z" />
<path fill="#ffffff" opacity="1.00" d=" M 35.87 35.01 C 39.12 35.14 42.46 34.66 45.65 35.40 C 52.07 37.60 52.26 48.43 45.92 50.84 C 42.66 51.74 39.23 51.26 35.90 51.32 C 35.92 45.88 35.81 40.45 35.87 35.01 M 39.44 37.82 C 39.44 41.44 39.38 45.06 39.42 48.68 C 41.28 48.54 43.24 48.73 44.99 47.96 C 47.52 46.10 47.28 42.35 46.06 39.80 C 44.73 37.45 41.70 37.94 39.44 37.82 Z" />
</g>
<g id="#9db9d2ff">
<path fill="#9db9d2" opacity="1.00" d=" M 8.45 11.14 C 13.93 6.44 21.36 7.77 27.99 7.65 C 34.67 7.79 41.36 7.38 48.03 7.81 C 50.92 7.86 53.16 9.81 55.55 11.15 C 55.91 11.27 56.63 11.50 57.00 11.62 L 57.36 11.74 C 59.11 16.10 58.39 20.96 57.38 25.41 C 56.64 28.51 53.28 29.64 50.61 30.52 C 45.61 32.37 40.21 30.88 35.10 32.14 C 28.96 33.42 22.84 31.40 16.68 31.31 C 12.74 30.52 7.36 29.20 6.41 24.61 C 5.53 20.39 4.99 15.82 6.64 11.70 L 7.01 11.59 C 7.37 11.47 8.09 11.25 8.45 11.14 M 35.73 12.90 C 35.97 18.44 35.95 23.98 36.07 29.51 C 40.06 29.23 44.58 30.43 48.15 28.17 C 50.87 26.09 49.41 22.40 47.16 20.62 C 49.98 18.34 49.07 13.92 45.50 13.05 C 45.94 12.96 46.83 12.79 47.27 12.70 C 43.44 12.34 39.51 11.96 35.73 12.90 M 19.65 13.51 C 17.34 18.74 15.73 24.26 13.53 29.54 C 14.58 29.54 15.63 29.54 16.68 29.55 C 17.21 28.32 17.73 27.08 18.24 25.85 C 20.39 25.86 22.54 25.90 24.69 25.99 C 25.06 27.12 25.42 28.25 25.80 29.38 C 26.88 29.48 27.96 29.58 29.05 29.66 C 27.33 23.98 25.18 18.43 22.99 12.92 C 21.87 13.05 20.75 13.25 19.65 13.51 Z" />
<path fill="#9db9d2" opacity="1.00" d=" M 39.40 15.93 C 41.53 15.81 43.67 15.92 45.72 16.52 C 45.47 17.59 45.52 18.81 44.79 19.72 C 43.02 20.21 41.15 19.96 39.33 20.00 C 39.35 18.64 39.38 17.28 39.40 15.93 Z" />
<path fill="#9db9d2" opacity="1.00" d=" M 39.53 22.14 C 42.18 22.20 45.64 21.60 46.72 24.78 C 44.13 25.10 41.52 25.51 39.06 26.46 L 39.04 26.47 C 39.21 25.02 39.37 23.58 39.53 22.14 Z" />
</g>
</svg>
