<?xml version="1.0" encoding="UTF-8" ?>
<!DOCTYPE svg PUBLIC "-//W3C//DTD SVG 1.1//EN" "http://www.w3.org/Graphics/SVG/1.1/DTD/svg11.dtd">
<svg width="64pt" height="64pt" viewBox="0 0 64 64" version="1.1" xmlns="http://www.w3.org/2000/svg">
<g id="#b1b2b6ff">
<path fill="#b1b2b6" opacity="1.00" d=" M 15.56 21.82 C 14.08 14.26 18.77 6.71 25.52 3.48 C 25.52 7.72 25.57 11.97 25.56 16.21 C 26.42 17.24 27.27 18.28 28.12 19.32 C 30.71 19.32 33.31 19.29 35.90 19.29 C 36.81 18.20 37.84 17.17 38.52 15.90 C 38.86 11.75 38.49 7.58 38.59 3.42 C 41.72 5.20 44.77 7.40 46.48 10.66 C 50.98 18.03 48.41 28.50 41.17 33.13 C 38.76 43.23 37.81 53.62 38.03 64.00 L 26.19 64.00 C 26.10 53.67 25.49 43.25 22.85 33.22 C 19.41 30.21 16.16 26.54 15.56 21.82 Z" />
</g>
</svg>
