<?xml version="1.0" encoding="UTF-8" ?>
<!DOCTYPE svg PUBLIC "-//W3C//DTD SVG 1.1//EN" "http://www.w3.org/Graphics/SVG/1.1/DTD/svg11.dtd">
<svg width="64pt" height="64pt" viewBox="0 0 64 64" version="1.1" xmlns="http://www.w3.org/2000/svg">
<g id="#6e8facff">
<path fill="#6e8fac" opacity="1.00" d=" M 3.33 15.06 C 3.20 8.87 8.85 3.34 14.97 3.37 C 26.63 3.39 38.30 3.31 49.96 3.41 C 53.50 3.82 57.88 6.03 58.78 9.67 C 59.63 19.69 60.08 30.24 56.75 39.87 C 52.94 41.38 48.76 40.18 44.84 39.71 C 44.82 37.97 44.86 36.24 44.90 34.51 C 44.90 34.09 44.91 33.25 44.92 32.83 C 43.55 32.97 41.83 32.60 40.81 33.79 C 37.74 36.77 35.63 40.65 32.27 43.35 C 30.65 42.88 29.05 42.03 27.31 42.46 C 27.12 42.30 26.73 41.98 26.53 41.82 C 26.97 41.36 27.85 40.43 28.29 39.97 C 28.31 39.33 28.35 38.04 28.37 37.40 C 28.53 35.75 27.72 34.29 27.05 32.85 C 33.92 33.58 40.81 32.34 47.62 31.47 C 51.14 30.76 55.61 30.02 57.23 26.33 C 57.75 23.15 57.81 19.91 57.82 16.70 C 57.79 14.97 57.89 13.07 56.85 11.58 C 54.96 7.99 51.03 5.85 47.01 5.92 C 37.00 5.90 26.99 5.89 16.98 5.92 C 12.96 5.85 9.00 8.01 7.13 11.63 C 6.37 12.80 6.24 14.23 6.09 15.58 C 5.52 19.18 5.91 22.84 6.71 26.37 C 7.47 27.85 8.66 29.08 10.23 29.69 C 15.23 31.96 20.86 31.92 26.20 32.76 C 23.73 33.10 19.75 31.69 18.77 34.88 L 20.96 34.41 C 18.94 35.37 17.77 37.40 17.29 39.51 C 18.25 39.61 19.21 39.65 20.17 39.62 C 20.92 38.49 21.26 36.45 23.05 36.65 C 24.71 36.67 26.26 38.55 25.14 40.06 C 24.41 41.83 21.09 40.19 21.86 42.87 C 23.92 42.84 27.06 44.52 25.57 46.86 C 22.43 46.08 20.03 42.82 16.60 43.62 L 16.96 45.21 C 17.09 45.84 17.34 47.09 17.47 47.72 C 14.24 47.52 10.98 47.75 7.77 47.27 C 5.78 42.73 6.57 37.24 3.38 33.18 C 3.32 27.15 3.33 21.10 3.33 15.06 Z" />
</g>
<g id="#e1eaf2ff">
<path fill="#e1eaf2" opacity="1.00" d=" M 7.13 11.63 C 9.00 8.01 12.96 5.85 16.98 5.92 C 26.99 5.89 37.00 5.90 47.01 5.92 C 51.03 5.85 54.96 7.99 56.85 11.58 C 53.86 11.43 52.21 7.94 49.05 8.09 C 39.36 7.67 29.64 8.05 19.95 7.90 C 17.10 8.04 13.88 7.56 11.44 9.36 C 10.06 10.23 8.87 11.55 7.13 11.63 Z" />
</g>
<g id="#abc5ddff">
<path fill="#abc5dd" opacity="1.00" d=" M 11.44 9.36 C 13.88 7.56 17.10 8.04 19.95 7.90 C 29.64 8.05 39.36 7.67 49.05 8.09 C 52.21 7.94 53.86 11.43 56.85 11.58 C 57.89 13.07 57.79 14.97 57.82 16.70 C 56.58 16.29 56.05 15.10 55.35 14.11 C 53.92 14.38 52.55 15.09 51.07 15.04 C 47.98 13.74 45.61 10.56 42.02 10.69 C 37.41 10.42 34.75 15.95 30.04 15.28 C 26.96 15.64 25.70 12.56 23.86 10.76 C 19.97 11.53 17.02 14.75 13.03 15.25 C 11.47 14.99 10.01 14.36 8.50 13.94 C 7.86 15.07 7.36 16.27 6.83 17.45 C 6.64 16.98 6.28 16.05 6.09 15.58 C 6.24 14.23 6.37 12.80 7.13 11.63 C 8.87 11.55 10.06 10.23 11.44 9.36 Z" />
</g>
<g id="#627f99ff">
<path fill="#627f99" opacity="1.00" d=" M 58.78 9.67 L 58.99 8.88 C 59.96 10.78 60.73 12.81 60.71 14.98 C 60.72 26.32 60.66 37.65 60.65 48.98 C 60.83 55.17 55.16 60.84 48.98 60.67 C 37.67 60.67 26.36 60.67 15.06 60.67 C 8.88 60.86 3.19 55.20 3.35 49.01 C 3.37 43.74 3.25 38.46 3.38 33.18 C 6.57 37.24 5.78 42.73 7.77 47.27 C 10.98 47.75 14.24 47.52 17.47 47.72 C 19.59 52.31 27.67 51.88 28.99 46.90 C 29.70 45.25 28.62 43.45 27.31 42.46 C 29.05 42.03 30.65 42.88 32.27 43.35 C 35.63 40.65 37.74 36.77 40.81 33.79 C 41.83 32.60 43.55 32.97 44.92 32.83 C 44.91 33.25 44.90 34.09 44.90 34.51 C 44.22 34.52 42.87 34.54 42.19 34.55 C 39.61 37.61 37.33 40.93 34.97 44.15 C 34.93 44.79 34.86 46.08 34.82 46.72 C 37.15 46.88 39.48 46.72 41.81 46.82 C 41.81 47.73 41.79 49.54 41.79 50.45 C 42.80 50.61 43.81 50.65 44.84 50.55 C 44.87 49.47 44.88 48.39 44.88 47.31 C 45.50 47.07 46.74 46.59 47.36 46.36 C 47.25 45.78 47.01 44.64 46.89 44.07 L 46.73 43.33 C 46.27 43.28 45.35 43.17 44.89 43.11 C 44.88 42.26 44.85 40.56 44.84 39.71 C 48.76 40.18 52.94 41.38 56.75 39.87 C 60.08 30.24 59.63 19.69 58.78 9.67 Z" />
<path fill="#627f99" opacity="1.00" d=" M 37.44 44.17 C 38.82 42.24 40.47 40.48 41.69 38.42 C 41.76 40.32 41.83 42.23 42.06 44.12 C 40.52 44.24 38.98 44.25 37.44 44.17 Z" />
</g>
<g id="#9cb9d2ff">
<path fill="#9cb9d2" opacity="1.00" d=" M 13.03 15.25 C 17.02 14.75 19.97 11.53 23.86 10.76 C 25.70 12.56 26.96 15.64 30.04 15.28 C 34.75 15.95 37.41 10.42 42.02 10.69 C 45.61 10.56 47.98 13.74 51.07 15.04 C 52.55 15.09 53.92 14.38 55.35 14.11 C 56.05 15.10 56.58 16.29 57.82 16.70 C 57.81 19.91 57.75 23.15 57.23 26.33 C 53.95 26.55 50.62 26.52 47.48 25.45 C 45.26 24.40 42.79 25.03 40.47 25.27 C 42.95 22.70 48.02 21.40 47.47 16.98 C 47.12 12.52 40.84 10.97 37.90 13.95 C 36.63 15.17 36.22 16.98 35.95 18.65 C 36.62 18.70 37.95 18.81 38.61 18.86 C 39.24 17.71 39.71 16.47 40.45 15.38 C 41.49 15.05 42.50 15.10 43.48 15.54 C 43.73 16.10 44.23 17.22 44.48 17.78 C 40.53 19.78 36.64 22.47 32.05 22.59 C 29.43 22.79 26.87 22.05 24.42 21.21 C 24.32 18.57 24.49 15.93 24.41 13.29 C 22.52 11.36 21.72 14.58 20.18 15.28 C 18.88 16.13 16.18 15.86 17.11 18.13 C 18.49 18.22 19.86 18.30 21.24 18.37 C 21.26 19.09 21.29 20.53 21.30 21.24 C 16.71 22.00 11.97 22.64 7.36 21.67 C 7.11 20.27 6.99 18.86 6.83 17.45 C 7.36 16.27 7.86 15.07 8.50 13.94 C 10.01 14.36 11.47 14.99 13.03 15.25 Z" />
</g>
<g id="#ffffffff">
<path fill="#ffffff" opacity="1.00" d=" M 37.90 13.95 C 40.84 10.97 47.12 12.52 47.47 16.98 C 48.02 21.40 42.95 22.70 40.47 25.27 L 40.36 25.75 C 42.63 26.45 45.11 25.97 47.47 26.01 C 47.49 26.69 47.54 28.06 47.56 28.75 C 43.57 28.85 39.58 28.81 35.58 28.76 C 35.67 23.07 42.71 22.37 44.48 17.78 C 44.23 17.22 43.73 16.10 43.48 15.54 C 42.50 15.10 41.49 15.05 40.45 15.38 C 39.71 16.47 39.24 17.71 38.61 18.86 C 37.95 18.81 36.62 18.70 35.95 18.65 C 36.22 16.98 36.63 15.17 37.90 13.95 Z" />
<path fill="#ffffff" opacity="1.00" d=" M 20.18 15.28 C 21.72 14.58 22.52 11.36 24.41 13.29 C 24.49 15.93 24.32 18.57 24.42 21.21 C 24.43 23.75 24.46 26.29 24.41 28.83 C 23.32 28.84 22.23 28.77 21.15 28.60 C 21.36 26.15 21.31 23.70 21.30 21.24 C 21.29 20.53 21.26 19.09 21.24 18.37 C 19.86 18.30 18.49 18.22 17.11 18.13 C 16.18 15.86 18.88 16.13 20.18 15.28 Z" />
<path fill="#ffffff" opacity="1.00" d=" M 20.96 34.41 C 23.73 33.43 27.16 34.64 28.37 37.40 C 28.35 38.04 28.31 39.33 28.29 39.97 C 27.85 40.43 26.97 41.36 26.53 41.82 C 26.73 41.98 27.12 42.30 27.31 42.46 C 28.62 43.45 29.70 45.25 28.99 46.90 C 27.67 51.88 19.59 52.31 17.47 47.72 C 17.34 47.09 17.09 45.84 16.96 45.21 C 17.65 45.16 19.03 45.08 19.73 45.04 C 20.16 46.02 20.66 46.96 21.21 47.88 C 22.63 48.44 24.89 48.64 25.57 46.86 C 27.06 44.52 23.92 42.84 21.86 42.87 C 21.09 40.19 24.41 41.83 25.14 40.06 C 26.26 38.55 24.71 36.67 23.05 36.65 C 21.26 36.45 20.92 38.49 20.17 39.62 C 19.21 39.65 18.25 39.61 17.29 39.51 C 17.77 37.40 18.94 35.37 20.96 34.41 Z" />
<path fill="#ffffff" opacity="1.00" d=" M 34.97 44.15 C 37.33 40.93 39.61 37.61 42.19 34.55 C 42.87 34.54 44.22 34.52 44.90 34.51 C 44.86 36.24 44.82 37.97 44.84 39.71 C 44.85 40.56 44.88 42.26 44.89 43.11 L 44.93 43.85 C 45.42 43.91 46.40 44.02 46.89 44.07 C 47.01 44.64 47.25 45.78 47.36 46.36 C 46.74 46.59 45.50 47.07 44.88 47.31 C 44.88 48.39 44.87 49.47 44.84 50.55 C 43.81 50.65 42.80 50.61 41.79 50.45 C 41.79 49.54 41.81 47.73 41.81 46.82 C 39.48 46.72 37.15 46.88 34.82 46.72 C 34.86 46.08 34.93 44.79 34.97 44.15 M 37.44 44.17 C 38.98 44.25 40.52 44.24 42.06 44.12 C 41.83 42.23 41.76 40.32 41.69 38.42 C 40.47 40.48 38.82 42.24 37.44 44.17 Z" />
</g>
<g id="#92afc9ff">
<path fill="#92afc9" opacity="1.00" d=" M 6.09 15.58 C 6.28 16.05 6.64 16.98 6.83 17.45 C 6.99 18.86 7.11 20.27 7.36 21.67 C 11.97 22.64 16.71 22.00 21.30 21.24 C 21.31 23.70 21.36 26.15 21.15 28.60 C 16.38 27.51 11.25 28.46 6.71 26.37 C 5.91 22.84 5.52 19.18 6.09 15.58 Z" />
</g>
<g id="#88a7c2ff">
<path fill="#88a7c2" opacity="1.00" d=" M 32.05 22.59 C 36.64 22.47 40.53 19.78 44.48 17.78 C 42.71 22.37 35.67 23.07 35.58 28.76 C 39.58 28.81 43.57 28.85 47.56 28.75 C 47.54 28.06 47.49 26.69 47.47 26.01 L 47.48 25.45 C 50.62 26.52 53.95 26.55 57.23 26.33 C 55.61 30.02 51.14 30.76 47.62 31.47 C 40.81 32.34 33.92 33.58 27.05 32.85 L 26.20 32.76 C 20.86 31.92 15.23 31.96 10.23 29.69 C 8.66 29.08 7.47 27.85 6.71 26.37 C 11.25 28.46 16.38 27.51 21.15 28.60 C 22.23 28.77 23.32 28.84 24.41 28.83 C 24.46 26.29 24.43 23.75 24.42 21.21 C 26.87 22.05 29.43 22.79 32.05 22.59 Z" />
</g>
<g id="#5585b1ff">
<path fill="#5585b1" opacity="1.00" d=" M 40.47 25.27 C 42.79 25.03 45.26 24.40 47.48 25.45 L 47.47 26.01 C 45.11 25.97 42.63 26.45 40.36 25.75 L 40.47 25.27 Z" />
</g>
<g id="#3b6d99ff">
<path fill="#3b6d99" opacity="1.00" d=" M 18.77 34.88 C 19.75 31.69 23.73 33.10 26.20 32.76 L 27.05 32.85 C 27.72 34.29 28.53 35.75 28.37 37.40 C 27.16 34.64 23.73 33.43 20.96 34.41 L 18.77 34.88 Z" />
</g>
<g id="#20537fff">
<path fill="#20537f" opacity="1.00" d=" M 44.89 43.11 C 45.35 43.17 46.27 43.28 46.73 43.33 L 46.89 44.07 C 46.40 44.02 45.42 43.91 44.93 43.85 L 44.89 43.11 Z" />
</g>
<g id="#3c668cff">
<path fill="#3c668c" opacity="1.00" d=" M 16.60 43.62 C 20.03 42.82 22.43 46.08 25.57 46.86 C 24.89 48.64 22.63 48.44 21.21 47.88 C 20.66 46.96 20.16 46.02 19.73 45.04 C 19.03 45.08 17.65 45.16 16.96 45.21 L 16.60 43.62 Z" />
</g>
</svg>
