<?xml version="1.0" encoding="UTF-8" ?>
<!DOCTYPE svg PUBLIC "-//W3C//DTD SVG 1.1//EN" "http://www.w3.org/Graphics/SVG/1.1/DTD/svg11.dtd">
<svg width="64pt" height="64pt" viewBox="0 0 64 64" version="1.1" xmlns="http://www.w3.org/2000/svg">
<g id="#6886a2ff">
<path fill="#6886a2" opacity="1.00" d=" M 13.33 3.50 C 25.21 3.15 37.12 3.41 49.00 3.37 C 55.15 3.30 60.76 8.81 60.68 14.99 C 60.71 26.33 60.65 37.67 60.62 49.00 C 60.78 55.16 55.15 60.81 48.99 60.63 C 37.65 60.66 26.31 60.67 14.96 60.63 C 8.85 60.78 3.26 55.20 3.39 49.08 C 3.35 37.69 3.29 26.29 3.33 14.90 C 3.31 9.34 7.88 4.29 13.33 3.50 M 13.33 6.57 C 10.53 7.18 8.72 9.59 6.98 11.65 L 6.59 11.80 C 5.01 16.16 5.40 20.99 6.57 25.39 C 7.78 29.36 12.34 30.33 15.86 31.19 C 23.45 33.12 31.31 32.35 39.05 32.58 L 40.01 31.80 C 45.62 31.61 51.97 31.42 56.38 27.45 C 58.86 22.75 59.03 16.79 57.40 11.76 L 57.01 11.62 C 54.32 7.07 49.05 5.52 44.05 5.89 C 33.82 6.53 23.51 5.07 13.33 6.57 M 15.95 37.95 C 14.58 39.70 15.92 41.70 16.75 43.34 C 14.85 44.91 12.38 46.93 13.33 49.75 C 14.63 54.07 20.36 53.61 23.42 51.53 C 23.79 51.88 24.54 52.58 24.91 52.92 C 25.87 52.93 27.79 52.95 28.76 52.96 C 27.63 51.71 26.51 50.47 25.39 49.22 C 26.01 47.77 26.62 46.32 27.20 44.86 C 25.47 44.81 23.97 45.37 23.07 46.94 C 20.25 44.84 23.04 42.99 24.28 41.02 C 25.33 36.38 18.29 34.14 15.95 37.95 M 35.28 36.30 C 32.50 36.94 31.85 40.29 32.44 42.69 C 32.97 45.35 36.71 46.10 38.65 44.49 C 41.80 41.95 39.72 35.15 35.28 36.30 M 45.24 38.22 C 42.35 43.17 39.79 48.30 36.68 53.12 C 37.41 53.04 38.85 52.88 39.58 52.81 C 42.47 47.03 46.17 41.69 48.78 35.77 C 47.23 36.01 45.88 36.74 45.24 38.22 M 46.33 45.20 C 44.14 47.01 44.08 50.93 46.18 52.83 C 48.65 53.35 52.43 53.43 52.46 49.98 C 53.40 46.48 49.54 42.74 46.33 45.20 Z" />
<path fill="#6886a2" opacity="1.00" d=" M 33.27 25.44 C 35.93 24.08 38.86 23.40 41.84 23.49 L 41.86 24.69 C 38.77 24.86 35.29 25.06 33.65 28.15 C 33.51 27.25 33.38 26.35 33.27 25.44 Z" />
<path fill="#6886a2" opacity="1.00" d=" M 19.22 38.24 C 22.38 37.33 22.04 42.74 19.14 42.16 C 18.41 41.00 17.55 39.05 19.22 38.24 Z" />
<path fill="#6886a2" opacity="1.00" d=" M 34.76 43.31 C 34.90 41.38 35.22 39.47 35.87 37.65 C 37.92 39.25 38.35 43.75 34.76 43.31 Z" />
<path fill="#6886a2" opacity="1.00" d=" M 17.00 49.96 C 14.85 48.56 17.35 46.57 18.14 45.19 C 19.43 46.53 20.72 47.86 21.97 49.23 C 20.43 50.11 18.52 51.91 17.00 49.96 Z" />
<path fill="#6886a2" opacity="1.00" d=" M 47.97 51.30 C 46.17 49.62 47.61 47.20 49.07 45.87 C 49.51 47.65 51.32 51.64 47.97 51.30 Z" />
</g>
<g id="#ffffffff">
<path fill="#ffffff" opacity="1.00" d=" M 13.33 6.57 C 23.51 5.07 33.82 6.53 44.05 5.89 C 49.05 5.52 54.32 7.07 57.01 11.62 C 56.64 11.49 55.91 11.22 55.55 11.08 C 52.61 9.37 49.59 7.44 46.03 7.69 C 36.68 7.65 27.32 7.65 17.96 7.69 C 14.41 7.45 11.39 9.37 8.46 11.08 C 8.09 11.22 7.35 11.51 6.98 11.65 C 8.72 9.59 10.53 7.18 13.33 6.57 Z" />
<path fill="#ffffff" opacity="1.00" d=" M 42.14 10.60 C 45.04 13.21 48.44 15.55 50.22 19.13 C 51.52 22.41 47.99 24.66 45.89 26.50 C 46.78 24.36 48.36 22.37 48.49 19.99 C 47.50 17.93 45.54 16.60 43.92 15.07 C 43.63 19.53 44.14 24.06 43.38 28.48 C 42.51 29.82 41.19 30.77 40.01 31.80 L 39.05 32.58 C 36.64 32.00 33.40 31.35 33.65 28.15 C 35.29 25.06 38.77 24.86 41.86 24.69 L 41.84 23.49 C 41.81 19.19 41.87 14.89 42.14 10.60 Z" />
<path fill="#ffffff" opacity="1.00" d=" M 13.40 12.06 C 19.03 11.97 24.66 12.01 30.29 12.01 C 30.35 13.42 30.41 14.82 30.48 16.22 C 24.74 16.22 19.00 16.32 13.27 16.13 C 13.31 14.77 13.36 13.42 13.40 12.06 Z" />
<path fill="#ffffff" opacity="1.00" d=" M 13.17 21.83 C 13.36 20.76 13.52 19.70 13.67 18.63 C 19.21 18.72 24.75 18.66 30.29 18.70 C 30.31 19.50 30.34 21.11 30.35 21.91 C 28.15 21.94 25.96 21.98 23.76 22.01 C 23.73 25.01 23.72 28.00 23.74 31.00 C 22.51 31.00 21.28 31.00 20.04 31.00 C 20.03 28.02 19.99 25.04 19.92 22.07 C 17.67 21.98 15.42 21.91 13.17 21.83 Z" />
<path fill="#ffffff" opacity="1.00" d=" M 15.95 37.95 C 18.29 34.14 25.33 36.38 24.28 41.02 C 23.04 42.99 20.25 44.84 23.07 46.94 C 23.97 45.37 25.47 44.81 27.20 44.86 C 26.62 46.32 26.01 47.77 25.39 49.22 C 26.51 50.47 27.63 51.71 28.76 52.96 C 27.79 52.95 25.87 52.93 24.91 52.92 C 24.54 52.58 23.79 51.88 23.42 51.53 C 20.36 53.61 14.63 54.07 13.33 49.75 C 12.38 46.93 14.85 44.91 16.75 43.34 C 15.92 41.70 14.58 39.70 15.95 37.95 M 19.22 38.24 C 17.55 39.05 18.41 41.00 19.14 42.16 C 22.04 42.74 22.38 37.33 19.22 38.24 M 17.00 49.96 C 18.52 51.91 20.43 50.11 21.97 49.23 C 20.72 47.86 19.43 46.53 18.14 45.19 C 17.35 46.57 14.85 48.56 17.00 49.96 Z" />
<path fill="#ffffff" opacity="1.00" d=" M 35.28 36.30 C 39.72 35.15 41.80 41.95 38.65 44.49 C 36.71 46.10 32.97 45.35 32.44 42.69 C 31.85 40.29 32.50 36.94 35.28 36.30 M 34.76 43.31 C 38.35 43.75 37.92 39.25 35.87 37.65 C 35.22 39.47 34.90 41.38 34.76 43.31 Z" />
<path fill="#ffffff" opacity="1.00" d=" M 45.24 38.22 C 45.88 36.74 47.23 36.01 48.78 35.77 C 46.17 41.69 42.47 47.03 39.58 52.81 C 38.85 52.88 37.41 53.04 36.68 53.12 C 39.79 48.30 42.35 43.17 45.24 38.22 Z" />
<path fill="#ffffff" opacity="1.00" d=" M 46.33 45.20 C 49.54 42.74 53.40 46.48 52.46 49.98 C 52.43 53.43 48.65 53.35 46.18 52.83 C 44.08 50.93 44.14 47.01 46.33 45.20 M 47.97 51.30 C 51.32 51.64 49.51 47.65 49.07 45.87 C 47.61 47.20 46.17 49.62 47.97 51.30 Z" />
</g>
<g id="#99b5cfff">
<path fill="#99b5cf" opacity="1.00" d=" M 8.46 11.08 C 11.39 9.37 14.41 7.45 17.96 7.69 C 27.32 7.65 36.68 7.65 46.03 7.69 C 49.59 7.44 52.61 9.37 55.55 11.08 C 55.91 11.22 56.64 11.49 57.01 11.62 L 57.40 11.76 C 59.03 16.79 58.86 22.75 56.38 27.45 C 51.97 31.42 45.62 31.61 40.01 31.80 C 41.19 30.77 42.51 29.82 43.38 28.48 C 44.14 24.06 43.63 19.53 43.92 15.07 C 45.54 16.60 47.50 17.93 48.49 19.99 C 48.36 22.37 46.78 24.36 45.89 26.50 C 47.99 24.66 51.52 22.41 50.22 19.13 C 48.44 15.55 45.04 13.21 42.14 10.60 C 41.87 14.89 41.81 19.19 41.84 23.49 C 38.86 23.40 35.93 24.08 33.27 25.44 C 33.38 26.35 33.51 27.25 33.65 28.15 C 33.40 31.35 36.64 32.00 39.05 32.58 C 31.31 32.35 23.45 33.12 15.86 31.19 C 12.34 30.33 7.78 29.36 6.57 25.39 C 5.40 20.99 5.01 16.16 6.59 11.80 L 6.98 11.65 C 7.35 11.51 8.09 11.22 8.46 11.08 M 13.40 12.06 C 13.36 13.42 13.31 14.77 13.27 16.13 C 19.00 16.32 24.74 16.22 30.48 16.22 C 30.41 14.82 30.35 13.42 30.29 12.01 C 24.66 12.01 19.03 11.97 13.40 12.06 M 13.17 21.83 C 15.42 21.91 17.67 21.98 19.92 22.07 C 19.99 25.04 20.03 28.02 20.04 31.00 C 21.28 31.00 22.51 31.00 23.74 31.00 C 23.72 28.00 23.73 25.01 23.76 22.01 C 25.96 21.98 28.15 21.94 30.35 21.91 C 30.34 21.11 30.31 19.50 30.29 18.70 C 24.75 18.66 19.21 18.72 13.67 18.63 C 13.52 19.70 13.36 20.76 13.17 21.83 Z" />
</g>
</svg>
