<?xml version="1.0" encoding="UTF-8" ?>
<!DOCTYPE svg PUBLIC "-//W3C//DTD SVG 1.1//EN" "http://www.w3.org/Graphics/SVG/1.1/DTD/svg11.dtd">
<svg width="64pt" height="64pt" viewBox="0 0 64 64" version="1.1" xmlns="http://www.w3.org/2000/svg">
<g id="#9739b4ff">
<path fill="#9739b4" opacity="1.00" d=" M 13.34 3.50 C 25.22 3.17 37.13 3.42 49.02 3.37 C 55.12 3.31 60.68 8.77 60.65 14.88 C 60.72 26.26 60.65 37.65 60.62 49.03 C 60.80 55.15 55.22 60.75 49.11 60.64 C 37.74 60.69 26.36 60.68 14.99 60.65 C 8.85 60.80 3.21 55.20 3.38 49.06 C 3.35 37.68 3.28 26.30 3.34 14.92 C 3.31 9.36 7.88 4.29 13.34 3.50 M 7.10 12.10 C 5.95 13.03 6.17 14.69 6.14 16.00 C 6.28 19.12 6.22 22.27 6.71 25.35 C 8.65 29.15 13.38 30.53 17.37 30.63 C 17.62 31.04 18.12 31.85 18.38 32.26 C 16.22 35.58 13.96 38.83 11.85 42.18 C 16.30 42.58 20.77 42.37 25.23 42.40 C 27.48 45.72 29.57 49.15 32.07 52.29 C 34.54 49.16 36.65 45.78 38.82 42.44 C 43.29 42.34 47.77 42.57 52.24 42.19 C 50.15 38.83 47.91 35.57 45.70 32.29 C 45.95 31.89 46.44 31.08 46.69 30.68 C 51.15 30.46 57.73 28.48 57.57 23.00 C 57.51 19.92 58.35 16.63 57.55 13.66 C 56.12 9.67 52.58 6.12 48.10 6.21 C 37.38 6.08 26.64 6.08 15.92 6.21 C 12.07 6.14 8.78 8.79 7.10 12.10 Z" />
<path fill="#9739b4" opacity="1.00" d=" M 31.37 11.06 C 31.71 11.06 32.38 11.04 32.71 11.03 C 35.25 13.75 37.09 17.01 39.27 20.00 C 43.87 20.10 48.58 19.45 53.06 20.83 L 52.24 22.04 C 47.82 22.07 43.40 21.95 38.99 22.02 C 36.72 18.64 34.51 15.22 32.11 11.93 C 29.62 15.19 27.42 18.64 25.11 22.03 C 20.69 21.94 16.27 22.07 11.85 22.07 L 11.02 20.87 C 15.49 19.43 20.22 20.10 24.82 20.00 C 27.02 17.03 28.86 13.79 31.37 11.06 Z" />
<path fill="#9739b4" opacity="1.00" d=" M 29.25 21.72 C 29.37 21.54 29.61 21.20 29.73 21.03 C 31.27 20.94 32.81 20.95 34.35 21.03 C 34.48 21.20 34.72 21.54 34.84 21.71 C 33.16 22.45 30.93 22.47 29.25 21.72 Z" />
<path fill="#9739b4" opacity="1.00" d=" M 22.09 32.13 C 23.97 29.63 25.69 27.01 27.63 24.55 C 30.48 25.30 33.51 25.67 36.33 24.55 C 38.33 26.98 40.04 29.62 41.90 32.15 C 40.28 34.60 38.89 37.24 36.86 39.37 C 33.63 39.64 30.37 39.64 27.14 39.37 C 25.11 37.22 23.71 34.58 22.09 32.13 M 29.51 28.33 C 27.48 29.66 26.52 32.67 28.23 34.65 C 30.08 37.64 34.98 37.11 36.23 33.85 C 38.25 30.00 32.95 25.92 29.51 28.33 Z" />
<path fill="#9739b4" opacity="1.00" d=" M 40.25 24.45 C 41.91 24.64 43.03 25.71 43.83 27.07 L 43.12 24.84 L 46.63 24.85 C 45.61 26.46 44.57 28.05 43.52 29.64 C 42.20 28.07 40.99 26.38 40.25 24.45 Z" />
<path fill="#9739b4" opacity="1.00" d=" M 18.80 26.54 C 19.95 26.02 21.31 26.09 22.34 26.86 C 21.96 27.39 21.22 28.46 20.85 28.99 C 19.59 28.77 18.90 27.95 18.80 26.54 Z" />
<path fill="#9739b4" opacity="1.00" d=" M 17.36 39.34 C 18.39 37.78 19.51 36.28 20.73 34.86 C 21.81 36.36 22.91 37.83 24.04 39.30 C 21.81 39.37 19.59 39.40 17.36 39.34 Z" />
<path fill="#9739b4" opacity="1.00" d=" M 43.42 34.61 C 44.51 36.19 45.62 37.76 46.71 39.33 C 44.45 39.39 42.19 39.38 39.93 39.34 C 41.13 37.80 42.29 36.22 43.42 34.61 Z" />
<path fill="#9739b4" opacity="1.00" d=" M 28.76 41.88 C 30.94 41.87 33.12 41.87 35.31 41.88 C 34.31 43.57 33.24 45.23 32.07 46.81 C 30.88 45.22 29.78 43.57 28.76 41.88 Z" />
</g>
<g id="#ffffffff">
<path fill="#ffffff" opacity="1.00" d=" M 7.10 12.10 C 8.78 8.79 12.07 6.14 15.92 6.21 C 26.64 6.08 37.38 6.08 48.10 6.21 C 52.58 6.12 56.12 9.67 57.55 13.66 C 54.86 10.54 51.47 7.43 47.03 7.68 C 37.03 7.58 27.02 7.59 17.02 7.68 C 13.15 7.49 10.09 10.04 7.10 12.10 Z" />
<path fill="#ffffff" opacity="1.00" d=" M 25.11 22.03 C 27.42 18.64 29.62 15.19 32.11 11.93 C 34.51 15.22 36.72 18.64 38.99 22.02 C 43.40 21.95 47.82 22.07 52.24 22.04 C 50.39 24.92 48.49 27.77 46.69 30.68 C 46.44 31.08 45.95 31.89 45.70 32.29 C 47.91 35.57 50.15 38.83 52.24 42.19 C 47.77 42.57 43.29 42.34 38.82 42.44 C 36.65 45.78 34.54 49.16 32.07 52.29 C 29.57 49.15 27.48 45.72 25.23 42.40 C 20.77 42.37 16.30 42.58 11.85 42.18 C 13.96 38.83 16.22 35.58 18.38 32.26 C 18.12 31.85 17.62 31.04 17.37 30.63 C 15.59 27.74 13.70 24.91 11.85 22.07 C 16.27 22.07 20.69 21.94 25.11 22.03 M 29.73 21.03 C 29.61 21.20 29.37 21.54 29.25 21.72 C 30.93 22.47 33.16 22.45 34.84 21.71 C 34.72 21.54 34.48 21.20 34.35 21.03 C 33.79 20.00 33.19 18.99 32.55 18.01 C 30.92 18.08 30.57 19.96 29.73 21.03 M 17.55 24.73 C 17.68 25.24 17.93 26.27 18.06 26.78 L 18.80 26.54 C 18.90 27.95 19.59 28.77 20.85 28.99 C 21.22 28.46 21.96 27.39 22.34 26.86 L 22.82 27.13 C 23.22 26.33 23.61 25.52 24.00 24.72 C 21.85 24.73 19.70 24.73 17.55 24.73 M 22.09 32.13 C 23.71 34.58 25.11 37.22 27.14 39.37 C 30.37 39.64 33.63 39.64 36.86 39.37 C 38.89 37.24 40.28 34.60 41.90 32.15 C 40.04 29.62 38.33 26.98 36.33 24.55 C 33.51 25.67 30.48 25.30 27.63 24.55 C 25.69 27.01 23.97 29.63 22.09 32.13 M 40.25 24.45 C 40.99 26.38 42.20 28.07 43.52 29.64 C 44.57 28.05 45.61 26.46 46.63 24.85 L 43.12 24.84 L 43.83 27.07 C 43.03 25.71 41.91 24.64 40.25 24.45 M 17.36 39.34 C 19.59 39.40 21.81 39.37 24.04 39.30 C 22.91 37.83 21.81 36.36 20.73 34.86 C 19.51 36.28 18.39 37.78 17.36 39.34 M 43.42 34.61 C 42.29 36.22 41.13 37.80 39.93 39.34 C 42.19 39.38 44.45 39.39 46.71 39.33 C 45.62 37.76 44.51 36.19 43.42 34.61 M 28.76 41.88 C 29.78 43.57 30.88 45.22 32.07 46.81 C 33.24 45.23 34.31 43.57 35.31 41.88 C 33.12 41.87 30.94 41.87 28.76 41.88 Z" />
<path fill="#ffffff" opacity="1.00" d=" M 29.51 28.33 C 32.95 25.92 38.25 30.00 36.23 33.85 C 34.98 37.11 30.08 37.64 28.23 34.65 C 26.52 32.67 27.48 29.66 29.51 28.33 Z" />
</g>
<g id="#c77ddaff">
<path fill="#c77dda" opacity="1.00" d=" M 7.10 12.10 C 10.09 10.04 13.15 7.49 17.02 7.68 C 27.02 7.59 37.03 7.58 47.03 7.68 C 51.47 7.43 54.86 10.54 57.55 13.66 C 58.35 16.63 57.51 19.92 57.57 23.00 C 57.73 28.48 51.15 30.46 46.69 30.68 C 48.49 27.77 50.39 24.92 52.24 22.04 L 53.06 20.83 C 48.58 19.45 43.87 20.10 39.27 20.00 C 37.09 17.01 35.25 13.75 32.71 11.03 C 32.38 11.04 31.71 11.06 31.37 11.06 C 28.86 13.79 27.02 17.03 24.82 20.00 C 20.22 20.10 15.49 19.43 11.02 20.87 L 11.85 22.07 C 13.70 24.91 15.59 27.74 17.37 30.63 C 13.38 30.53 8.65 29.15 6.71 25.35 C 6.22 22.27 6.28 19.12 6.14 16.00 C 6.17 14.69 5.95 13.03 7.10 12.10 Z" />
<path fill="#c77dda" opacity="1.00" d=" M 29.73 21.03 C 30.57 19.96 30.92 18.08 32.55 18.01 C 33.19 18.99 33.79 20.00 34.35 21.03 C 32.81 20.95 31.27 20.94 29.73 21.03 Z" />
<path fill="#c77dda" opacity="1.00" d=" M 17.55 24.73 C 19.70 24.73 21.85 24.73 24.00 24.72 C 23.61 25.52 23.22 26.33 22.82 27.13 L 22.34 26.86 C 21.31 26.09 19.95 26.02 18.80 26.54 L 18.06 26.78 C 17.93 26.27 17.68 25.24 17.55 24.73 Z" />
</g>
</svg>
