<?xml version="1.0" encoding="UTF-8" ?>
<!DOCTYPE svg PUBLIC "-//W3C//DTD SVG 1.1//EN" "http://www.w3.org/Graphics/SVG/1.1/DTD/svg11.dtd">
<svg width="64pt" height="64pt" viewBox="0 0 64 64" version="1.1" xmlns="http://www.w3.org/2000/svg">
<g id="#a48f7dfe">
<path fill="#a48f7d" opacity="1.00" d=" M 19.28 8.26 C 21.64 6.69 24.22 5.43 27.04 4.94 C 27.16 7.54 23.88 7.78 22.69 9.70 C 20.87 11.14 23.29 12.71 24.25 13.75 C 25.95 15.16 24.46 17.38 23.55 18.78 C 20.96 20.46 18.49 22.32 15.86 23.95 C 13.08 23.71 10.54 21.88 8.86 19.71 C 11.52 15.24 15.65 11.92 19.28 8.26 Z" />
<path fill="#a48f7d" opacity="1.00" d=" M 6.04 27.34 C 2.93 26.74 3.48 20.94 6.85 22.26 C 10.27 23.05 9.20 27.11 6.04 27.34 Z" />
<path fill="#a48f7d" opacity="1.00" d=" M 29.21 28.78 C 28.07 26.99 23.93 25.14 25.83 22.63 C 31.73 27.88 37.13 33.66 42.68 39.27 C 44.15 41.41 47.16 41.89 48.56 44.42 C 51.88 48.46 55.32 52.57 59.76 55.42 L 60.19 56.21 C 59.23 56.50 58.25 56.69 57.26 56.77 C 47.89 47.47 38.64 38.03 29.21 28.78 Z" />
<path fill="#a48f7d" opacity="1.00" d=" M 10.20 26.17 C 13.12 24.46 12.42 30.19 10.15 29.84 C 8.68 29.03 8.64 26.91 10.20 26.17 Z" />
</g>
<g id="#281c178a">
<path fill="#281c17" opacity="0.54" d=" M 13.71 11.72 C 15.44 10.38 16.65 7.39 19.28 8.26 C 15.65 11.92 11.52 15.24 8.86 19.71 L 8.00 20.07 C 7.46 16.24 11.67 14.29 13.71 11.72 Z" />
<path fill="#281c17" opacity="0.54" d=" M 24.07 19.70 C 30.93 23.93 35.67 30.95 41.80 36.18 C 42.02 36.95 42.46 38.50 42.68 39.27 C 37.13 33.66 31.73 27.88 25.83 22.63 C 25.22 21.67 24.61 20.71 24.07 19.70 Z" />
<path fill="#281c17" opacity="0.54" d=" M 13.03 26.81 C 12.42 23.30 17.64 24.66 19.86 23.47 C 23.81 25.07 26.11 29.05 29.26 31.74 C 33.15 36.16 38.44 39.59 41.06 44.98 C 33.74 39.06 27.64 31.67 20.74 25.25 C 18.23 25.46 15.81 27.21 13.03 26.81 Z" />
<path fill="#281c17" opacity="0.54" d=" M 41.40 45.60 C 47.16 49.80 51.44 55.73 56.99 60.10 C 58.43 59.20 59.64 57.98 60.90 56.85 C 61.35 59.87 57.89 61.90 55.21 60.83 C 50.70 55.98 45.72 51.57 41.31 46.62 L 41.40 45.60 Z" />
</g>
<g id="#6d4331f8">
<path fill="#6d4331" opacity="0.97" d=" M 15.86 23.95 C 18.49 22.32 20.96 20.46 23.55 18.78 L 24.07 19.70 C 24.61 20.71 25.22 21.67 25.83 22.63 C 23.93 25.14 28.07 26.99 29.21 28.78 C 38.64 38.03 47.89 47.47 57.26 56.77 C 58.25 56.69 59.23 56.50 60.19 56.21 L 61.11 56.00 L 60.90 56.85 C 59.64 57.98 58.43 59.20 56.99 60.10 C 51.44 55.73 47.16 49.80 41.40 45.60 L 41.06 44.98 C 38.44 39.59 33.15 36.16 29.26 31.74 C 26.11 29.05 23.81 25.07 19.86 23.47 C 17.64 24.66 12.42 23.30 13.03 26.81 C 12.96 28.55 13.01 30.29 12.92 32.03 C 9.66 32.61 7.97 29.34 6.04 27.34 C 9.20 27.11 10.27 23.05 6.85 22.26 C 8.58 22.28 9.25 21.43 8.86 19.71 C 10.54 21.88 13.08 23.71 15.86 23.95 M 10.20 26.17 C 8.64 26.91 8.68 29.03 10.15 29.84 C 12.42 30.19 13.12 24.46 10.20 26.17 Z" />
<path fill="#6d4331" opacity="0.97" d=" M 48.56 44.42 C 52.58 46.46 57.79 51.05 59.76 55.42 C 55.32 52.57 51.88 48.46 48.56 44.42 Z" />
</g>
</svg>
