<?xml version="1.0" encoding="UTF-8" ?>
<!DOCTYPE svg PUBLIC "-//W3C//DTD SVG 1.1//EN" "http://www.w3.org/Graphics/SVG/1.1/DTD/svg11.dtd">
<svg width="64pt" height="64pt" viewBox="0 0 64 64" version="1.1" xmlns="http://www.w3.org/2000/svg">
<g id="#0c3081dc">
<path fill="#0c3081" opacity="0.86" d=" M 21.92 4.97 C 30.88 1.52 41.51 3.05 49.18 8.82 C 60.38 16.77 64.49 33.49 57.40 45.42 C 57.77 42.88 58.46 40.40 59.36 38.00 C 60.75 30.12 57.97 21.98 53.36 15.61 C 44.54 4.18 26.24 2.17 15.10 11.30 C 9.34 15.45 6.30 22.26 4.66 28.97 C 4.19 32.50 4.38 36.08 4.37 39.63 C -0.34 25.89 8.36 9.68 21.92 4.97 Z" />
</g>
<g id="#175bddff">
<path fill="#175bdd" opacity="1.00" d=" M 15.10 11.30 C 26.24 2.17 44.54 4.18 53.36 15.61 C 57.97 21.98 60.75 30.12 59.36 38.00 C 58.46 40.40 57.77 42.88 57.40 45.42 C 52.34 55.38 41.01 61.64 29.89 60.67 C 18.09 59.98 7.20 51.14 4.37 39.63 C 4.38 36.08 4.19 32.50 4.66 28.97 C 6.30 22.26 9.34 15.45 15.10 11.30 M 17.19 11.38 C 15.16 12.88 13.70 14.98 12.45 17.14 C 12.28 17.59 11.92 18.49 11.75 18.93 C 8.16 27.57 6.90 37.63 10.57 46.48 C 14.02 51.63 18.97 56.04 25.19 57.32 C 32.70 57.98 41.15 58.51 47.31 53.31 C 50.31 50.41 53.95 47.40 54.54 43.00 C 56.91 35.03 55.25 26.52 52.28 18.97 C 51.13 16.00 49.26 13.32 46.77 11.32 C 38.25 4.93 25.66 4.93 17.19 11.38 Z" />
</g>
<g id="#a0bbf3ff">
<path fill="#a0bbf3" opacity="1.00" d=" M 17.19 11.38 C 25.66 4.93 38.25 4.93 46.77 11.32 C 36.91 11.34 27.04 11.05 17.19 11.38 Z" />
</g>
<g id="#86aff7ff">
<path fill="#86aff7" opacity="1.00" d=" M 12.45 17.14 C 13.70 14.98 15.16 12.88 17.19 11.38 C 27.04 11.05 36.91 11.34 46.77 11.32 C 49.26 13.32 51.13 16.00 52.28 18.97 L 52.22 20.14 C 51.17 19.16 50.24 17.92 48.88 17.36 C 36.76 17.85 24.55 18.15 12.45 17.14 Z" />
</g>
<g id="#649ff7ff">
<path fill="#649ff7" opacity="1.00" d=" M 11.75 18.93 C 11.92 18.49 12.28 17.59 12.45 17.14 C 24.55 18.15 36.76 17.85 48.88 17.36 C 50.24 17.92 51.17 19.16 52.22 20.14 C 52.16 21.26 51.99 22.37 51.72 23.46 C 48.79 24.14 45.84 23.34 42.92 23.11 C 35.68 22.11 28.30 22.13 21.05 23.09 C 18.18 23.38 15.29 24.06 12.40 23.52 C 11.86 22.05 11.83 20.47 11.75 18.93 Z" />
</g>
<g id="#348bf7ff">
<path fill="#348bf7" opacity="1.00" d=" M 10.57 46.48 C 6.90 37.63 8.16 27.57 11.75 18.93 C 11.83 20.47 11.86 22.05 12.40 23.52 C 15.29 24.06 18.18 23.38 21.05 23.09 C 28.30 22.13 35.68 22.11 42.92 23.11 C 45.84 23.34 48.79 24.14 51.72 23.46 C 51.99 22.37 52.16 21.26 52.22 20.14 L 52.28 18.97 C 55.25 26.52 56.91 35.03 54.54 43.00 C 53.95 47.40 50.31 50.41 47.31 53.31 C 41.15 58.51 32.70 57.98 25.19 57.32 C 18.97 56.04 14.02 51.63 10.57 46.48 M 28.35 34.26 C 24.39 35.45 20.00 36.08 16.66 38.65 C 13.45 41.28 15.03 45.89 17.43 48.48 C 24.23 57.11 38.88 57.35 46.04 49.05 C 48.14 46.82 50.23 43.51 48.73 40.40 C 47.22 37.59 43.99 36.60 41.13 35.81 C 36.99 34.67 32.65 32.86 28.35 34.26 Z" />
</g>
<g id="#45a0fcff">
<path fill="#45a0fc" opacity="1.00" d=" M 28.35 34.26 C 32.65 32.86 36.99 34.67 41.13 35.81 C 43.99 36.60 47.22 37.59 48.73 40.40 C 50.23 43.51 48.14 46.82 46.04 49.05 C 38.88 57.35 24.23 57.11 17.43 48.48 C 15.03 45.89 13.45 41.28 16.66 38.65 C 20.00 36.08 24.39 35.45 28.35 34.26 Z" />
</g>
</svg>
