<?xml version="1.0" encoding="UTF-8" ?>
<!DOCTYPE svg PUBLIC "-//W3C//DTD SVG 1.1//EN" "http://www.w3.org/Graphics/SVG/1.1/DTD/svg11.dtd">
<svg width="64pt" height="64pt" viewBox="0 0 64 64" version="1.1" xmlns="http://www.w3.org/2000/svg">
<g id="#d5bf3dff">
<path fill="#d5bf3d" opacity="1.00" d=" M 19.30 13.14 C 23.71 10.35 27.56 6.70 31.98 3.95 C 36.43 6.67 40.30 10.33 44.71 13.15 C 40.96 16.07 36.42 19.16 35.51 24.17 C 35.41 27.79 35.51 31.40 35.46 35.02 C 35.05 37.91 38.33 40.11 40.98 39.64 C 43.94 37.28 46.03 34.00 48.16 30.91 C 47.25 29.52 45.04 28.75 45.08 26.92 C 47.47 24.44 49.97 22.07 52.34 19.56 C 54.86 22.20 57.99 24.53 59.95 27.54 C 57.65 30.02 54.97 32.16 52.84 34.79 C 52.38 34.69 51.47 34.48 51.01 34.38 C 49.42 36.72 47.43 38.78 46.12 41.31 C 50.89 41.98 55.52 40.33 60.05 39.11 C 54.95 46.11 47.96 53.58 38.72 53.80 C 36.17 55.52 34.35 58.10 32.00 60.07 C 29.68 58.07 27.79 55.61 25.35 53.77 C 16.10 53.64 9.09 46.13 3.94 39.12 C 8.47 40.34 13.08 41.94 17.84 41.35 C 16.64 38.75 14.55 36.74 12.99 34.37 C 12.54 34.47 11.62 34.67 11.16 34.77 C 8.97 32.23 6.49 29.94 4.05 27.65 C 4.30 27.15 4.81 26.15 5.06 25.65 L 5.98 25.64 C 8.11 28.66 10.62 31.74 14.29 32.87 C 13.52 30.15 15.01 28.15 17.44 27.09 C 15.59 25.06 13.72 22.94 11.33 21.52 C 9.61 22.92 8.63 25.98 5.99 25.64 C 7.38 23.26 9.74 21.54 11.66 19.56 C 14.17 22.18 16.77 24.73 19.36 27.29 C 18.28 28.59 16.99 29.69 15.83 30.91 C 18.01 33.95 20.03 37.26 22.98 39.63 C 25.64 40.13 28.99 37.92 28.54 34.99 C 28.48 31.34 28.60 27.68 28.48 24.03 C 27.44 19.13 23.06 16.00 19.30 13.14 M 22.57 12.98 C 25.20 15.54 28.26 17.87 29.79 21.30 C 31.76 25.07 28.63 30.25 31.93 33.32 C 35.34 30.63 32.46 25.54 33.96 21.88 C 35.55 17.92 38.89 15.00 42.63 13.10 C 39.23 10.26 35.77 7.43 31.97 5.17 C 28.40 7.21 25.64 10.31 22.57 12.98 M 48.15 27.06 C 49.09 28.60 50.11 30.10 50.73 31.81 C 53.77 31.58 55.74 28.62 58.14 26.97 C 56.36 25.15 54.63 23.30 52.81 21.52 C 50.40 22.43 49.51 25.10 48.15 27.06 Z" />
</g>
<g id="#f9f582ff">
<path fill="#f9f582" opacity="1.00" d=" M 22.57 12.98 C 25.64 10.31 28.40 7.21 31.97 5.17 C 35.77 7.43 39.23 10.26 42.63 13.10 C 38.89 15.00 35.55 17.92 33.96 21.88 C 32.46 25.54 35.34 30.63 31.93 33.32 C 28.63 30.25 31.76 25.07 29.79 21.30 C 28.26 17.87 25.20 15.54 22.57 12.98 Z" />
<path fill="#f9f582" opacity="1.00" d=" M 5.99 25.64 C 8.63 25.98 9.61 22.92 11.33 21.52 C 13.72 22.94 15.59 25.06 17.44 27.09 C 15.01 28.15 13.52 30.15 14.29 32.87 C 10.62 31.74 8.11 28.66 5.98 25.64 L 5.99 25.64 Z" />
<path fill="#f9f582" opacity="1.00" d=" M 48.15 27.06 C 49.51 25.10 50.40 22.43 52.81 21.52 C 54.63 23.30 56.36 25.15 58.14 26.97 C 55.74 28.62 53.77 31.58 50.73 31.81 C 50.11 30.10 49.09 28.60 48.15 27.06 Z" />
</g>
</svg>
