<?xml version="1.0" encoding="UTF-8" ?>
<!DOCTYPE svg PUBLIC "-//W3C//DTD SVG 1.1//EN" "http://www.w3.org/Graphics/SVG/1.1/DTD/svg11.dtd">
<svg width="64pt" height="64pt" viewBox="0 0 64 64" version="1.1" xmlns="http://www.w3.org/2000/svg">
<g id="#373737ff">
<path fill="#373737" opacity="1.00" d=" M 4.22 3.32 C 22.16 3.06 40.11 3.29 58.05 3.21 C 59.19 3.04 60.98 3.40 60.76 4.94 C 60.82 22.95 60.78 40.96 60.78 58.97 C 61.00 60.48 59.29 61.03 58.09 60.81 C 40.14 60.70 22.16 60.92 4.21 60.70 C 3.98 60.47 3.52 60.00 3.29 59.77 C 3.08 42.18 3.31 24.57 3.18 6.97 C 3.33 5.73 2.75 3.96 4.22 3.32 M 4.91 3.64 C 3.07 4.40 3.58 6.47 3.48 8.03 C 3.57 24.38 3.60 40.73 3.62 57.08 C 3.31 59.06 5.02 60.78 7.01 60.36 C 23.68 60.37 40.37 60.34 57.05 60.38 C 59.01 60.72 60.73 58.98 60.38 57.02 C 60.36 39.98 60.51 22.95 60.47 5.91 C 60.79 3.92 58.48 3.25 56.95 3.49 C 39.60 3.61 22.24 3.31 4.91 3.64 Z" />
<path fill="#373737" opacity="1.00" d=" M 15.98 18.70 C 22.63 17.76 29.34 18.37 36.02 18.20 C 40.02 18.09 44.04 18.11 48.02 18.68 C 48.03 21.31 48.04 23.94 47.90 26.56 C 47.79 27.01 47.56 27.91 47.45 28.36 C 41.17 28.50 34.93 29.88 28.63 29.32 C 24.60 28.99 20.59 28.48 16.55 28.32 C 16.44 27.86 16.20 26.96 16.08 26.50 C 15.96 23.90 15.98 21.30 15.98 18.70 Z" />
</g>
<g id="#979797ff">
<path fill="#979797" opacity="1.00" d=" M 4.91 3.64 C 22.24 3.31 39.60 3.61 56.95 3.49 C 58.48 3.25 60.79 3.92 60.47 5.91 C 60.51 22.95 60.36 39.98 60.38 57.02 C 60.73 58.98 59.01 60.72 57.05 60.38 C 40.37 60.34 23.68 60.37 7.01 60.36 C 5.02 60.78 3.31 59.06 3.62 57.08 C 3.60 40.73 3.57 24.38 3.48 8.03 C 3.58 6.47 3.07 4.40 4.91 3.64 M 6.28 6.27 C 6.60 23.36 6.50 40.46 6.44 57.55 C 23.47 57.61 40.51 57.58 57.55 57.56 C 57.51 40.46 57.38 23.36 57.72 6.27 C 46.79 6.70 35.89 5.19 24.98 6.18 C 18.75 5.74 12.52 6.53 6.28 6.27 Z" />
</g>
<g id="#f1f1f1ff">
<path fill="#f1f1f1" opacity="1.00" d=" M 6.28 6.27 C 12.52 6.53 18.75 5.74 24.98 6.18 C 35.89 5.19 46.79 6.70 57.72 6.27 C 57.38 23.36 57.51 40.46 57.55 57.56 C 40.51 57.58 23.47 57.61 6.44 57.55 C 6.50 40.46 6.60 23.36 6.28 6.27 M 7.19 15.81 C 5.93 27.74 7.24 39.71 7.43 51.66 C 7.66 51.94 8.12 52.50 8.35 52.78 C 9.21 48.98 13.04 47.39 16.00 45.50 C 15.99 46.12 15.98 47.37 15.98 48.00 C 26.65 48.00 37.33 48.00 48.01 48.00 C 48.01 47.49 48.00 46.46 48.00 45.95 C 50.95 47.85 54.44 49.38 55.85 52.85 C 57.16 49.75 56.61 46.30 56.85 43.03 C 57.21 33.97 57.70 24.89 56.84 15.84 C 53.77 16.33 50.91 17.60 48.02 18.68 C 48.03 18.00 48.06 16.64 48.07 15.96 C 37.36 15.99 26.64 15.99 15.93 15.96 C 15.94 16.65 15.97 18.02 15.98 18.70 C 13.09 17.62 10.23 16.40 7.19 15.81 Z" />
</g>
<g id="#dededeff">
<path fill="#dedede" opacity="1.00" d=" M 7.19 15.81 C 10.23 16.40 13.09 17.62 15.98 18.70 C 15.98 21.30 15.96 23.90 16.08 26.50 C 15.94 32.83 16.03 39.17 16.00 45.50 C 13.04 47.39 9.21 48.98 8.35 52.78 C 8.12 52.50 7.66 51.94 7.43 51.66 C 7.24 39.71 5.93 27.74 7.19 15.81 Z" />
<path fill="#dedede" opacity="1.00" d=" M 48.02 18.68 C 50.91 17.60 53.77 16.33 56.84 15.84 C 57.70 24.89 57.21 33.97 56.85 43.03 C 56.61 46.30 57.16 49.75 55.85 52.85 C 54.44 49.38 50.95 47.85 48.00 45.95 C 47.99 39.49 48.03 33.02 47.90 26.56 C 48.04 23.94 48.03 21.31 48.02 18.68 Z" />
</g>
<g id="#1e1e1eff">
<path fill="#1e1e1e" opacity="1.00" d=" M 15.93 15.96 C 26.64 15.99 37.36 15.99 48.07 15.96 C 48.06 16.64 48.03 18.00 48.02 18.68 C 44.04 18.11 40.02 18.09 36.02 18.20 C 29.34 18.37 22.63 17.76 15.98 18.70 C 15.97 18.02 15.94 16.65 15.93 15.96 Z" />
</g>
<g id="#141414ff">
<path fill="#141414" opacity="1.00" d=" M 16.08 26.50 C 16.20 26.96 16.44 27.86 16.55 28.32 C 17.41 30.77 16.29 34.66 19.13 35.94 C 23.37 36.61 27.69 36.07 31.96 36.16 C 36.28 36.06 40.63 36.58 44.91 35.93 C 47.64 34.55 46.63 30.81 47.45 28.36 C 47.56 27.91 47.79 27.01 47.90 26.56 C 48.03 33.02 47.99 39.49 48.00 45.95 C 48.00 46.46 48.01 47.49 48.01 48.00 C 37.33 48.00 26.65 48.00 15.98 48.00 C 15.98 47.37 15.99 46.12 16.00 45.50 C 16.03 39.17 15.94 32.83 16.08 26.50 Z" />
</g>
<g id="#222222ff">
<path fill="#222222" opacity="1.00" d=" M 16.55 28.32 C 20.59 28.48 24.60 28.99 28.63 29.32 C 34.93 29.88 41.17 28.50 47.45 28.36 C 46.63 30.81 47.64 34.55 44.91 35.93 C 40.63 36.58 36.28 36.06 31.96 36.16 C 27.69 36.07 23.37 36.61 19.13 35.94 C 16.29 34.66 17.41 30.77 16.55 28.32 Z" />
</g>
</svg>
