<?xml version="1.0" encoding="UTF-8" ?>
<!DOCTYPE svg PUBLIC "-//W3C//DTD SVG 1.1//EN" "http://www.w3.org/Graphics/SVG/1.1/DTD/svg11.dtd">
<svg width="64pt" height="64pt" viewBox="0 0 64 64" version="1.1" xmlns="http://www.w3.org/2000/svg">
<g id="#0b0b0bc9">
<path fill="#0b0b0b" opacity="0.79" d=" M 4.22 3.14 C 22.75 2.90 41.29 2.90 59.81 3.13 C 60.07 3.40 60.59 3.95 60.85 4.23 C 61.16 23.14 60.99 42.06 60.95 60.97 C 41.65 60.99 22.34 61.09 3.03 60.94 C 2.92 44.29 3.07 27.64 2.97 10.99 C 4.37 8.99 1.47 4.72 4.22 3.14 M 5.22 4.14 C 3.48 5.16 4.13 7.33 3.96 8.99 C 4.13 25.59 3.79 42.19 4.14 58.78 C 5.16 60.52 7.33 59.87 8.99 60.04 C 25.59 59.87 42.19 60.21 58.78 59.86 C 60.52 58.84 59.87 56.67 60.04 55.01 C 59.87 38.41 60.21 21.81 59.86 5.22 C 58.84 3.48 56.67 4.13 55.01 3.96 C 38.41 4.13 21.81 3.79 5.22 4.14 Z" />
</g>
<g id="#1b1b1bff">
<path fill="#1b1b1b" opacity="1.00" d=" M 5.22 4.14 C 21.81 3.79 38.41 4.13 55.01 3.96 C 56.67 4.13 58.84 3.48 59.86 5.22 C 60.21 21.81 59.87 38.41 60.04 55.01 C 59.87 56.67 60.52 58.84 58.78 59.86 C 42.19 60.21 25.59 59.87 8.99 60.04 C 7.33 59.87 5.16 60.52 4.14 58.78 C 3.79 42.19 4.13 25.59 3.96 8.99 C 4.13 7.33 3.48 5.16 5.22 4.14 M 6.00 6.00 C 6.00 11.95 5.56 18.07 7.18 23.87 C 9.89 25.69 12.98 26.77 15.99 27.97 C 16.01 34.63 15.93 41.29 16.03 47.95 C 26.66 48.10 37.30 48.01 47.93 47.97 C 48.20 41.30 47.91 34.63 48.01 27.97 C 51.02 26.77 54.11 25.69 56.82 23.87 C 58.44 18.07 57.99 11.95 58.00 6.00 C 56.58 5.99 55.16 6.07 53.75 6.23 C 39.64 5.80 25.38 5.80 11.26 6.29 C 9.52 6.06 7.76 5.94 6.00 6.00 Z" />
<path fill="#1b1b1b" opacity="1.00" d=" M 16.02 16.03 C 17.43 13.47 23.65 15.91 26.25 14.69 C 30.08 14.86 33.91 14.88 37.75 14.73 C 40.67 15.78 46.89 13.24 47.98 16.03 C 37.32 15.98 26.67 15.98 16.02 16.03 Z" />
</g>
<g id="#444444ff">
<path fill="#444444" opacity="1.00" d=" M 6.00 6.00 C 7.76 5.94 9.52 6.06 11.26 6.29 C 8.75 6.68 5.87 7.12 7.17 10.36 C 13.33 12.65 19.76 13.74 26.25 14.69 C 23.65 15.91 17.43 13.47 16.02 16.03 C 15.97 20.01 15.97 23.99 15.99 27.97 C 12.98 26.77 9.89 25.69 7.18 23.87 C 5.56 18.07 6.00 11.95 6.00 6.00 Z" />
<path fill="#444444" opacity="1.00" d=" M 53.75 6.23 C 55.16 6.07 56.58 5.99 58.00 6.00 C 57.99 11.95 58.44 18.07 56.82 23.87 C 54.11 25.69 51.02 26.77 48.01 27.97 C 48.03 23.99 48.02 20.01 47.98 16.03 C 46.89 13.24 40.67 15.78 37.75 14.73 C 44.21 13.81 50.74 12.96 56.79 10.37 C 57.84 7.83 56.09 6.55 53.75 6.23 Z" />
</g>
<g id="#616161ff">
<path fill="#616161" opacity="1.00" d=" M 11.26 6.29 C 25.38 5.80 39.64 5.80 53.75 6.23 C 56.09 6.55 57.84 7.83 56.79 10.37 C 50.74 12.96 44.21 13.81 37.75 14.73 C 33.91 14.88 30.08 14.86 26.25 14.69 C 19.76 13.74 13.33 12.65 7.17 10.36 C 5.87 7.12 8.75 6.68 11.26 6.29 Z" />
</g>
<g id="#e5e5e5ff">
<path fill="#e5e5e5" opacity="1.00" d=" M 16.02 16.03 C 26.67 15.98 37.32 15.98 47.98 16.03 C 48.02 20.01 48.03 23.99 48.01 27.97 C 47.91 34.63 48.20 41.30 47.93 47.97 C 37.30 48.01 26.66 48.10 16.03 47.95 C 15.93 41.29 16.01 34.63 15.99 27.97 C 15.97 23.99 15.97 20.01 16.02 16.03 Z" />
</g>
</svg>
