<?xml version="1.0" encoding="UTF-8" ?>
<!DOCTYPE svg PUBLIC "-//W3C//DTD SVG 1.1//EN" "http://www.w3.org/Graphics/SVG/1.1/DTD/svg11.dtd">
<svg width="64pt" height="64pt" viewBox="0 0 64 64" version="1.1" xmlns="http://www.w3.org/2000/svg">
<g id="#2052baf2">
<path fill="#2052ba" opacity="0.95" d=" M 4.53 31.96 C 13.79 22.98 22.63 13.50 32.02 4.70 C 32.37 4.89 33.07 5.29 33.42 5.48 C 41.55 13.64 49.71 21.79 57.84 29.96 C 57.80 30.46 57.72 31.46 57.67 31.96 C 57.02 31.67 56.37 31.37 55.72 31.07 C 52.13 27.66 49.21 23.57 45.38 20.42 C 40.66 16.20 37.05 10.74 31.94 7.00 C 27.59 10.85 23.87 15.35 19.78 19.48 C 15.45 22.66 12.79 27.52 8.68 30.91 C 7.96 31.35 7.24 31.78 6.52 32.19 C 6.44 33.55 6.94 34.80 7.59 35.97 C 6.38 34.78 4.77 33.79 4.53 31.96 Z" />
</g>
<g id="#e1e9f9ff">
<path fill="#e1e9f9" opacity="1.00" d=" M 19.78 19.48 C 23.87 15.35 27.59 10.85 31.94 7.00 C 37.05 10.74 40.66 16.20 45.38 20.42 C 45.44 21.01 45.57 22.18 45.63 22.76 C 44.31 21.31 42.91 19.92 41.51 18.55 C 39.63 16.68 37.64 14.88 35.35 13.51 C 33.14 13.20 30.81 13.05 28.61 13.53 C 26.38 14.90 24.42 16.64 22.57 18.48 C 21.18 19.85 19.79 21.22 18.42 22.59 C 18.76 21.81 19.44 20.25 19.78 19.48 Z" />
</g>
<g id="#9cbaf5ff">
<path fill="#9cbaf5" opacity="1.00" d=" M 28.61 13.53 C 30.81 13.05 33.14 13.20 35.35 13.51 C 37.64 14.88 39.63 16.68 41.51 18.55 C 38.50 20.26 35.60 22.90 31.92 22.70 C 28.31 22.87 25.51 20.16 22.57 18.48 C 24.42 16.64 26.38 14.90 28.61 13.53 Z" />
</g>
<g id="#709cf2ff">
<path fill="#709cf2" opacity="1.00" d=" M 18.42 22.59 C 19.79 21.22 21.18 19.85 22.57 18.48 C 25.51 20.16 28.31 22.87 31.92 22.70 C 35.60 22.90 38.50 20.26 41.51 18.55 C 42.91 19.92 44.31 21.31 45.63 22.76 C 45.57 22.18 45.44 21.01 45.38 20.42 C 49.21 23.57 52.13 27.66 55.72 31.07 C 55.13 31.27 54.53 31.46 53.93 31.62 C 39.55 33.63 24.90 33.81 10.52 31.62 C 9.90 31.40 9.29 31.16 8.68 30.91 C 12.79 27.52 15.45 22.66 19.78 19.48 C 19.44 20.25 18.76 21.81 18.42 22.59 Z" />
</g>
<g id="#165ff5ff">
<path fill="#165ff5" opacity="1.00" d=" M 6.52 32.19 C 7.24 31.78 7.96 31.35 8.68 30.91 C 9.29 31.16 9.90 31.40 10.52 31.62 C 13.58 39.80 20.63 45.43 27.21 50.75 C 29.84 53.27 34.22 53.18 36.86 50.73 C 43.58 45.50 50.67 39.74 53.93 31.62 C 54.53 31.46 55.13 31.27 55.72 31.07 C 56.37 31.37 57.02 31.67 57.67 31.96 C 57.72 31.46 57.80 30.46 57.84 29.96 C 58.57 30.89 59.70 31.67 59.81 32.95 C 53.01 39.50 46.48 46.42 39.65 52.90 C 36.87 54.02 34.12 55.92 31.02 55.75 C 28.55 54.62 26.16 53.31 23.76 52.04 C 18.28 46.78 12.99 41.31 7.59 35.97 C 6.94 34.80 6.44 33.55 6.52 32.19 Z" />
</g>
<g id="#3783feff">
<path fill="#3783fe" opacity="1.00" d=" M 10.52 31.62 C 24.90 33.81 39.55 33.63 53.93 31.62 C 50.67 39.74 43.58 45.50 36.86 50.73 C 34.22 53.18 29.84 53.27 27.21 50.75 C 20.63 45.43 13.58 39.80 10.52 31.62 Z" />
</g>
<g id="#0041eaff">
<path fill="#0041ea" opacity="1.00" d=" M 23.76 52.04 C 26.16 53.31 28.55 54.62 31.02 55.75 C 34.12 55.92 36.87 54.02 39.65 52.90 C 37.25 55.45 34.92 58.14 32.14 60.28 C 29.17 57.72 26.43 54.90 23.76 52.04 Z" />
</g>
</svg>
