<?xml version="1.0" encoding="UTF-8" ?>
<!DOCTYPE svg PUBLIC "-//W3C//DTD SVG 1.1//EN" "http://www.w3.org/Graphics/SVG/1.1/DTD/svg11.dtd">
<svg width="64pt" height="64pt" viewBox="0 0 64 64" version="1.1" xmlns="http://www.w3.org/2000/svg">
<g id="#6785a1ff">
<path fill="#6785a1" opacity="1.00" d=" M 3.32 14.99 C 3.21 8.78 8.92 3.25 15.10 3.36 C 26.05 3.31 37.02 3.36 47.98 3.34 C 50.69 3.24 53.48 3.87 55.62 5.61 C 54.63 5.86 52.64 6.36 51.65 6.60 C 49.46 6.12 47.24 5.75 44.99 5.80 C 35.67 5.88 26.35 5.78 17.03 5.84 C 12.97 5.73 9.22 7.98 7.08 11.37 C 6.45 12.72 5.83 14.12 5.72 15.62 C 5.43 19.85 5.06 24.66 7.74 28.26 C 12.13 31.85 18.10 32.05 23.51 31.62 C 20.90 36.05 18.64 40.68 15.90 45.03 C 26.63 44.99 37.37 44.99 48.10 45.03 C 45.66 41.16 43.59 37.08 41.38 33.08 C 45.27 34.59 46.53 38.94 49.65 41.35 C 51.78 42.37 54.26 41.76 56.53 41.72 C 58.91 33.05 59.53 23.99 59.20 15.03 C 59.03 12.15 58.00 9.42 56.89 6.79 C 59.71 8.89 60.85 12.57 60.71 15.98 C 60.61 21.73 60.84 27.51 60.55 33.24 C 57.95 38.71 58.63 45.03 56.54 50.68 C 47.38 51.36 38.18 50.68 29.01 50.93 C 22.10 50.64 15.13 51.61 8.27 50.62 C 4.47 45.61 6.53 38.56 3.45 33.23 C 3.17 27.17 3.35 21.07 3.32 14.99 Z" />
</g>
<g id="#e0e9f1ff">
<path fill="#e0e9f1" opacity="1.00" d=" M 7.08 11.37 C 9.22 7.98 12.97 5.73 17.03 5.84 C 26.35 5.78 35.67 5.88 44.99 5.80 C 47.24 5.75 49.46 6.12 51.65 6.60 C 53.71 7.86 55.56 9.45 56.88 11.48 C 55.10 11.91 53.97 10.15 52.57 9.42 C 50.44 7.73 47.55 8.07 45.00 7.92 C 36.35 7.94 27.70 7.95 19.05 7.92 C 16.25 8.01 13.09 7.78 10.86 9.82 C 9.66 10.44 8.63 12.10 7.08 11.37 Z" />
</g>
<g id="#7091afff">
<path fill="#7091af" opacity="1.00" d=" M 51.65 6.60 C 52.64 6.36 54.63 5.86 55.62 5.61 L 56.02 5.51 C 56.24 5.83 56.67 6.47 56.89 6.79 C 58.00 9.42 59.03 12.15 59.20 15.03 C 59.53 23.99 58.91 33.05 56.53 41.72 C 54.26 41.76 51.78 42.37 49.65 41.35 C 46.53 38.94 45.27 34.59 41.38 33.08 C 41.15 32.70 40.69 31.95 40.46 31.57 C 45.75 31.63 51.78 31.70 55.91 27.86 C 58.84 24.58 58.22 19.72 57.92 15.67 C 57.82 14.23 57.44 12.82 56.88 11.48 C 55.56 9.45 53.71 7.86 51.65 6.60 Z" />
</g>
<g id="#a9c4dcff">
<path fill="#a9c4dc" opacity="1.00" d=" M 10.86 9.82 C 13.09 7.78 16.25 8.01 19.05 7.92 C 27.70 7.95 36.35 7.94 45.00 7.92 C 47.55 8.07 50.44 7.73 52.57 9.42 C 53.97 10.15 55.10 11.91 56.88 11.48 C 57.44 12.82 57.82 14.23 57.92 15.67 C 57.71 16.16 57.29 17.12 57.08 17.61 C 56.62 16.33 56.12 15.08 55.63 13.81 C 48.12 16.64 39.87 14.49 32.04 14.88 C 24.22 14.39 16.03 16.61 8.50 13.84 C 7.94 15.05 7.38 16.26 6.87 17.48 C 6.58 17.01 6.01 16.09 5.72 15.62 C 5.83 14.12 6.45 12.72 7.08 11.37 C 8.63 12.10 9.66 10.44 10.86 9.82 Z" />
</g>
<g id="#9db9d3ff">
<path fill="#9db9d3" opacity="1.00" d=" M 6.87 17.48 C 7.38 16.26 7.94 15.05 8.50 13.84 C 16.03 16.61 24.22 14.39 32.04 14.88 C 39.87 14.49 48.12 16.64 55.63 13.81 C 56.12 15.08 56.62 16.33 57.08 17.61 C 56.97 19.03 56.88 20.45 56.79 21.87 C 50.93 22.38 44.97 22.59 39.12 21.92 C 36.69 20.64 35.03 18.27 32.58 17.00 C 32.29 17.00 31.71 16.99 31.42 16.99 C 28.96 18.27 27.32 20.66 24.90 21.96 C 19.02 22.57 13.03 22.46 7.13 21.94 C 7.06 20.45 6.97 18.96 6.87 17.48 Z" />
</g>
<g id="#8eabc6ff">
<path fill="#8eabc6" opacity="1.00" d=" M 5.72 15.62 C 6.01 16.09 6.58 17.01 6.87 17.48 C 6.97 18.96 7.06 20.45 7.13 21.94 C 13.03 22.46 19.02 22.57 24.90 21.96 C 27.32 20.66 28.96 18.27 31.42 16.99 C 28.96 21.96 26.20 26.77 23.51 31.62 C 18.10 32.05 12.13 31.85 7.74 28.26 C 5.06 24.66 5.43 19.85 5.72 15.62 Z" />
<path fill="#8eabc6" opacity="1.00" d=" M 57.08 17.61 C 57.29 17.12 57.71 16.16 57.92 15.67 C 58.22 19.72 58.84 24.58 55.91 27.86 C 51.78 31.70 45.75 31.63 40.46 31.57 C 37.74 26.76 35.05 21.93 32.58 17.00 C 35.03 18.27 36.69 20.64 39.12 21.92 C 44.97 22.59 50.93 22.38 56.79 21.87 C 56.88 20.45 56.97 19.03 57.08 17.61 Z" />
</g>
<g id="#ffffffff">
<path fill="#ffffff" opacity="1.00" d=" M 31.42 16.99 C 31.71 16.99 32.29 17.00 32.58 17.00 C 35.05 21.93 37.74 26.76 40.46 31.57 C 40.69 31.95 41.15 32.70 41.38 33.08 C 43.59 37.08 45.66 41.16 48.10 45.03 C 37.37 44.99 26.63 44.99 15.90 45.03 C 18.64 40.68 20.90 36.05 23.51 31.62 C 26.20 26.77 28.96 21.96 31.42 16.99 Z" />
</g>
<g id="#617e97ff">
<path fill="#617e97" opacity="1.00" d=" M 3.45 33.23 C 6.53 38.56 4.47 45.61 8.27 50.62 C 15.13 51.61 22.10 50.64 29.01 50.93 C 38.18 50.68 47.38 51.36 56.54 50.68 C 58.63 45.03 57.95 38.71 60.55 33.24 C 60.80 38.48 60.63 43.73 60.65 48.97 C 60.85 55.17 55.16 60.85 48.98 60.66 C 37.67 60.69 26.36 60.68 15.05 60.66 C 8.85 60.86 3.16 55.17 3.35 48.96 C 3.37 43.72 3.19 38.47 3.45 33.23 Z" />
</g>
</svg>
