<?xml version="1.0" encoding="UTF-8" ?>
<!DOCTYPE svg PUBLIC "-//W3C//DTD SVG 1.1//EN" "http://www.w3.org/Graphics/SVG/1.1/DTD/svg11.dtd">
<svg width="64pt" height="64pt" viewBox="0 0 64 64" version="1.1" xmlns="http://www.w3.org/2000/svg">
<g id="#610c02ce">
<path fill="#610c02" opacity="0.81" d=" M 21.92 6.30 C 28.11 3.25 35.89 3.27 42.09 6.30 C 35.42 5.04 28.58 5.04 21.92 6.30 Z" />
</g>
<g id="#b71907ff">
<path fill="#b71907" opacity="1.00" d=" M 4.86 25.86 C 6.91 17.12 13.39 9.29 21.92 6.30 C 28.58 5.04 35.42 5.04 42.09 6.30 C 57.84 11.64 64.90 32.62 55.84 46.54 L 55.57 45.50 C 56.04 38.41 58.00 31.02 55.55 24.02 C 54.54 20.27 51.10 17.74 50.43 13.87 C 49.74 13.61 49.04 13.37 48.33 13.17 C 48.00 13.05 47.32 12.81 46.98 12.69 C 38.71 5.49 25.31 5.64 16.93 12.61 C 16.74 12.78 16.35 13.13 16.15 13.30 C 13.18 16.06 10.30 19.13 8.85 22.99 C 6.95 27.41 7.26 32.33 7.35 37.02 C 7.21 41.62 10.77 45.27 10.73 49.86 C 9.54 48.45 8.42 46.97 7.43 45.41 C 4.26 39.47 3.42 32.41 4.86 25.86 Z" />
</g>
<g id="#f4b4b2ff">
<path fill="#f4b4b2" opacity="1.00" d=" M 16.93 12.61 C 25.31 5.64 38.71 5.49 46.98 12.69 C 41.55 12.12 36.59 9.05 31.00 9.60 C 26.09 9.49 21.82 12.53 16.93 12.61 Z" />
</g>
<g id="#fd9996ff">
<path fill="#fd9996" opacity="1.00" d=" M 16.93 12.61 C 21.82 12.53 26.09 9.49 31.00 9.60 C 36.59 9.05 41.55 12.12 46.98 12.69 C 47.32 12.81 48.00 13.05 48.33 13.17 C 49.26 15.13 50.43 16.98 51.29 18.98 C 51.33 19.40 51.40 20.24 51.44 20.67 C 51.19 20.44 50.70 19.97 50.45 19.74 C 49.58 18.69 48.75 17.61 47.91 16.54 C 37.31 16.33 26.69 16.28 16.08 16.57 C 15.22 17.58 14.36 18.60 13.47 19.59 C 13.16 19.56 12.53 19.51 12.22 19.49 C 13.31 17.30 14.53 15.15 16.15 13.30 C 16.35 13.13 16.74 12.78 16.93 12.61 Z" />
</g>
<g id="#ff3119ff">
<path fill="#ff3119" opacity="1.00" d=" M 8.85 22.99 C 10.30 19.13 13.18 16.06 16.15 13.30 C 14.53 15.15 13.31 17.30 12.22 19.49 C 11.82 21.31 12.15 23.43 14.10 24.21 C 16.05 24.37 17.98 23.91 19.90 23.63 C 28.53 22.15 37.42 22.34 46.03 23.94 C 47.75 24.12 49.97 24.89 51.21 23.20 C 52.53 22.08 51.72 20.30 51.29 18.98 C 50.43 16.98 49.26 15.13 48.33 13.17 C 49.04 13.37 49.74 13.61 50.43 13.87 C 51.10 17.74 54.54 20.27 55.55 24.02 C 58.00 31.02 56.04 38.41 55.57 45.50 C 55.60 45.85 55.65 46.55 55.68 46.90 C 54.81 48.04 53.96 49.19 53.01 50.26 C 47.72 56.16 39.99 59.99 31.98 59.77 C 23.86 59.95 15.91 56.06 10.73 49.86 C 10.77 45.27 7.21 41.62 7.35 37.02 C 7.26 32.33 6.95 27.41 8.85 22.99 M 27.33 30.43 C 23.54 31.39 19.77 33.15 17.40 36.38 C 15.81 38.56 13.56 41.15 14.78 44.03 C 17.87 54.48 31.53 58.35 40.69 53.64 C 45.53 51.36 49.78 46.53 49.50 40.92 C 46.07 32.64 35.86 27.79 27.33 30.43 Z" />
</g>
<g id="#fe7d78ff">
<path fill="#fe7d78" opacity="1.00" d=" M 13.47 19.59 C 14.36 18.60 15.22 17.58 16.08 16.57 C 26.69 16.28 37.31 16.33 47.91 16.54 C 48.75 17.61 49.58 18.69 50.45 19.74 C 44.96 19.99 39.47 20.46 33.97 20.20 C 27.14 19.84 20.27 20.63 13.47 19.59 Z" />
</g>
<g id="#ff6861ff">
<path fill="#ff6861" opacity="1.00" d=" M 14.10 24.21 C 12.15 23.43 11.82 21.31 12.22 19.49 C 12.53 19.51 13.16 19.56 13.47 19.59 C 20.27 20.63 27.14 19.84 33.97 20.20 C 39.47 20.46 44.96 19.99 50.45 19.74 C 50.70 19.97 51.19 20.44 51.44 20.67 C 51.40 20.24 51.33 19.40 51.29 18.98 C 51.72 20.30 52.53 22.08 51.21 23.20 C 49.97 24.89 47.75 24.12 46.03 23.94 C 37.42 22.34 28.53 22.15 19.90 23.63 C 17.98 23.91 16.05 24.37 14.10 24.21 Z" />
</g>
<g id="#ff5248ff">
<path fill="#ff5248" opacity="1.00" d=" M 27.33 30.43 C 35.86 27.79 46.07 32.64 49.50 40.92 C 49.78 46.53 45.53 51.36 40.69 53.64 C 31.53 58.35 17.87 54.48 14.78 44.03 C 13.56 41.15 15.81 38.56 17.40 36.38 C 19.77 33.15 23.54 31.39 27.33 30.43 M 28.25 37.11 C 26.17 37.92 24.03 39.10 23.01 41.20 C 21.22 44.26 23.73 48.05 26.47 49.58 C 31.77 52.14 40.27 50.75 41.61 44.08 C 41.51 37.91 33.34 34.91 28.25 37.11 Z" />
</g>
<g id="#ff736dff">
<path fill="#ff736d" opacity="1.00" d=" M 28.25 37.11 C 33.34 34.91 41.51 37.91 41.61 44.08 C 40.27 50.75 31.77 52.14 26.47 49.58 C 23.73 48.05 21.22 44.26 23.01 41.20 C 24.03 39.10 26.17 37.92 28.25 37.11 Z" />
</g>
<g id="#0a010029">
<path fill="#0a0100" opacity="0.16" d=" M 7.43 45.41 C 8.42 46.97 9.54 48.45 10.73 49.86 C 15.91 56.06 23.86 59.95 31.98 59.77 C 39.99 59.99 47.72 56.16 53.01 50.26 C 52.82 53.62 49.58 55.35 47.23 57.20 C 42.53 60.60 36.70 62.08 30.94 61.67 C 21.86 62.30 13.65 56.57 8.55 49.47 C 7.57 48.34 7.66 46.79 7.43 45.41 Z" />
</g>
</svg>
