<?xml version="1.0" encoding="UTF-8" ?>
<!DOCTYPE svg PUBLIC "-//W3C//DTD SVG 1.1//EN" "http://www.w3.org/Graphics/SVG/1.1/DTD/svg11.dtd">
<svg width="64pt" height="64pt" viewBox="0 0 64 64" version="1.1" xmlns="http://www.w3.org/2000/svg">
<g id="#3785feff">
<path fill="#3785fe" opacity="1.00" d=" M 15.29 31.46 C 20.95 26.05 26.37 20.40 31.92 14.89 C 37.09 20.18 42.38 25.34 47.55 30.62 C 47.60 30.95 47.71 31.63 47.76 31.96 C 43.61 36.70 38.82 40.87 34.51 45.48 C 33.65 46.45 32.64 47.27 31.53 47.95 C 26.36 42.22 20.66 37.00 15.29 31.46 M 31.00 16.88 C 26.85 21.34 22.37 25.60 18.93 30.67 C 27.43 32.72 36.49 32.54 45.02 30.72 C 41.39 25.77 37.09 21.35 32.80 16.99 C 32.35 16.96 31.45 16.91 31.00 16.88 Z" />
</g>
<g id="#78a2f4ff">
<path fill="#78a2f4" opacity="1.00" d=" M 31.00 16.88 C 31.45 16.91 32.35 16.96 32.80 16.99 C 37.09 21.35 41.39 25.77 45.02 30.72 C 36.49 32.54 27.43 32.72 18.93 30.67 C 22.37 25.60 26.85 21.34 31.00 16.88 Z" />
</g>
</svg>
