<?xml version="1.0" encoding="UTF-8" ?>
<!DOCTYPE svg PUBLIC "-//W3C//DTD SVG 1.1//EN" "http://www.w3.org/Graphics/SVG/1.1/DTD/svg11.dtd">
<svg width="64pt" height="64pt" viewBox="0 0 64 64" version="1.1" xmlns="http://www.w3.org/2000/svg">
<g id="#a71111fb">
<path fill="#a71111" opacity="1.00" d=" M 16.61 20.75 C 19.61 19.66 22.88 20.15 26.00 19.88 C 33.15 19.87 40.35 19.69 47.46 20.34 C 49.26 21.95 47.30 23.89 46.58 25.51 C 42.29 32.76 38.38 40.25 33.77 47.29 C 30.53 48.39 29.67 43.68 28.20 41.64 C 29.61 39.65 27.77 37.80 26.86 36.08 C 24.35 32.26 22.70 27.62 18.75 25.00 C 17.52 23.93 17.14 22.23 16.61 20.75 M 24.61 25.66 C 24.00 30.99 28.79 34.65 31.55 38.61 C 32.45 38.57 33.34 38.58 34.24 38.64 C 35.91 35.95 37.45 33.15 39.70 30.87 C 41.42 29.42 39.09 26.46 41.51 25.68 C 38.45 25.57 35.20 26.02 32.41 24.50 C 29.73 24.28 27.36 26.18 24.61 25.66 Z" />
</g>
<g id="#f67a7bff">
<path fill="#f67a7b" opacity="1.00" d=" M 24.61 25.66 C 27.36 26.18 29.73 24.28 32.41 24.50 C 35.20 26.02 38.45 25.57 41.51 25.68 C 39.09 26.46 41.42 29.42 39.70 30.87 C 37.45 33.15 35.91 35.95 34.24 38.64 C 33.34 38.58 32.45 38.57 31.55 38.61 C 28.79 34.65 24.00 30.99 24.61 25.66 Z" />
<path fill="#f67a7b" opacity="1.00" d=" M 18.75 25.00 C 22.70 27.62 24.35 32.26 26.86 36.08 C 27.77 37.80 29.61 39.65 28.20 41.64 C 25.08 36.08 21.82 30.59 18.75 25.00 Z" />
</g>
</svg>
