<?xml version="1.0" encoding="UTF-8" ?>
<!DOCTYPE svg PUBLIC "-//W3C//DTD SVG 1.1//EN" "http://www.w3.org/Graphics/SVG/1.1/DTD/svg11.dtd">
<svg width="64pt" height="64pt" viewBox="0 0 64 64" version="1.1" xmlns="http://www.w3.org/2000/svg">
<g id="#000000ff">
<path fill="#000000" opacity="1.00" d=" M 40.58 7.74 C 42.72 3.78 50.09 4.18 50.86 9.02 C 51.19 19.05 50.91 29.10 51.00 39.14 C 51.11 40.99 50.12 42.67 48.84 43.92 C 44.45 48.51 39.74 52.78 35.60 57.60 C 33.98 59.65 30.81 59.91 28.88 58.14 C 24.46 52.95 19.37 48.40 14.70 43.45 C 11.93 40.68 13.35 36.49 13.00 33.02 C 13.26 24.62 12.46 16.12 13.43 7.78 L 14.60 6.67 C 14.51 10.84 13.92 15.36 14.96 19.35 C 15.36 18.76 16.17 17.56 16.57 16.96 C 16.60 24.38 16.88 31.80 16.79 39.22 C 20.65 44.60 26.18 48.69 30.61 53.65 C 30.92 53.68 31.55 53.75 31.86 53.79 C 32.25 53.73 33.04 53.61 33.44 53.56 C 37.72 49.13 42.25 44.95 46.49 40.49 C 46.66 40.14 47.00 39.43 47.17 39.07 C 47.18 29.14 47.59 19.10 47.52 9.24 C 48.26 11.11 46.66 14.80 49.61 15.00 C 49.56 12.56 49.77 10.11 49.45 7.68 C 48.37 6.40 46.89 5.19 45.11 5.61 C 43.27 5.57 42.50 7.94 40.58 7.74 Z" />
</g>
<g id="#09b4a9ff">
<path fill="#09b4a9" opacity="1.00" d=" M 14.60 6.67 C 16.97 4.64 20.66 4.88 22.69 7.29 C 25.38 9.99 28.53 12.75 30.68 15.66 C 34.43 16.62 35.43 11.76 38.50 10.30 C 38.03 8.32 40.55 9.26 40.58 7.74 C 42.50 7.94 43.27 5.57 45.11 5.61 C 46.89 5.19 48.37 6.40 49.45 7.68 C 49.77 10.11 49.56 12.56 49.61 15.00 C 46.66 14.80 48.26 11.11 47.52 9.24 C 47.59 19.10 47.18 29.14 47.17 39.07 C 47.00 39.43 46.66 40.14 46.49 40.49 C 42.25 44.95 37.72 49.13 33.44 53.56 C 33.04 53.61 32.25 53.73 31.86 53.79 C 31.38 42.46 32.26 31.13 32.28 19.79 C 31.69 19.63 30.50 19.29 29.90 19.13 C 26.62 15.94 23.47 12.62 20.23 9.39 C 19.01 9.13 17.71 8.99 16.51 9.43 C 16.56 11.94 16.59 14.45 16.57 16.96 C 16.17 17.56 15.36 18.76 14.96 19.35 C 13.92 15.36 14.51 10.84 14.60 6.67 Z" />
</g>
<g id="#f1e83aff">
<path fill="#f1e83a" opacity="1.00" d=" M 16.51 9.43 C 17.71 8.99 19.01 9.13 20.23 9.39 C 23.47 12.62 26.62 15.94 29.90 19.13 C 30.50 19.29 31.69 19.63 32.28 19.79 C 32.26 31.13 31.38 42.46 31.86 53.79 C 31.55 53.75 30.92 53.68 30.61 53.65 C 26.18 48.69 20.65 44.60 16.79 39.22 C 16.88 31.80 16.60 24.38 16.57 16.96 C 16.59 14.45 16.56 11.94 16.51 9.43 Z" />
</g>
</svg>
