<?xml version="1.0" encoding="UTF-8" ?>
<!DOCTYPE svg PUBLIC "-//W3C//DTD SVG 1.1//EN" "http://www.w3.org/Graphics/SVG/1.1/DTD/svg11.dtd">
<svg width="64pt" height="64pt" viewBox="0 0 64 64" version="1.1" xmlns="http://www.w3.org/2000/svg">
<g id="#616161d9">
<path fill="#616161" opacity="0.85" d=" M 6.01 20.60 C 10.47 7.05 27.41 0.03 40.62 4.52 C 52.76 8.08 61.42 20.40 60.83 33.01 C 60.54 41.92 55.94 50.65 48.56 55.70 C 39.41 62.43 25.98 62.75 16.53 56.47 C 5.03 49.48 -0.56 33.28 5.68 21.10 C 5.19 26.86 3.51 32.75 5.36 38.46 C 8.57 51.62 22.41 61.23 35.89 58.96 C 48.58 57.28 58.99 45.77 59.49 33.00 C 60.15 22.71 54.35 12.48 45.33 7.56 C 35.31 1.97 21.70 3.39 13.37 11.42 C 10.35 14.00 8.63 17.67 6.01 20.60 Z" />
</g>
<g id="#d3d3d3ff">
<path fill="#d3d3d3" opacity="1.00" d=" M 13.37 11.42 C 21.70 3.39 35.31 1.97 45.33 7.56 C 54.35 12.48 60.15 22.71 59.49 33.00 C 58.99 45.77 48.58 57.28 35.89 58.96 C 22.41 61.23 8.57 51.62 5.36 38.46 C 3.51 32.75 5.19 26.86 5.68 21.10 L 5.69 20.99 L 6.01 20.60 C 8.63 17.67 10.35 14.00 13.37 11.42 M 24.47 7.66 C 22.16 8.54 19.24 9.08 18.02 11.51 C 13.21 15.78 8.50 21.09 7.97 27.80 C 5.82 34.12 8.79 41.06 12.22 46.42 C 18.77 45.32 25.66 44.98 31.95 47.42 C 38.16 44.56 45.22 45.63 51.78 46.37 C 54.42 42.35 56.42 37.83 56.76 32.98 C 56.61 31.96 57.33 30.39 56.29 29.67 C 55.98 25.68 54.58 21.89 52.80 18.34 C 52.42 17.11 51.99 15.85 51.02 14.95 C 44.56 7.69 33.74 4.61 24.47 7.66 Z" />
</g>
<g id="#878787ff">
<path fill="#878787" opacity="1.00" d=" M 24.47 7.66 C 33.74 4.61 44.56 7.69 51.02 14.95 C 51.99 15.85 52.42 17.11 52.80 18.34 C 45.73 6.94 28.87 3.63 18.02 11.51 C 19.24 9.08 22.16 8.54 24.47 7.66 Z" />
<path fill="#878787" opacity="1.00" d=" M 30.01 30.80 C 30.81 30.84 32.40 30.90 33.20 30.93 L 33.20 32.34 C 33.25 36.91 33.36 41.48 33.20 46.04 C 32.38 46.15 30.74 46.37 29.93 46.47 C 29.88 41.75 29.99 37.02 30.01 32.29 L 30.01 30.80 Z" />
</g>
<g id="#f9f9f9ff">
<path fill="#f9f9f9" opacity="1.00" d=" M 18.02 11.51 C 28.87 3.63 45.73 6.94 52.80 18.34 C 54.58 21.89 55.98 25.68 56.29 29.67 C 55.28 28.87 54.22 28.14 53.17 27.39 C 46.88 30.28 40.17 32.27 33.20 32.34 L 33.20 30.93 C 33.20 27.46 33.15 24.00 33.15 20.53 C 33.25 17.51 33.08 14.49 32.93 11.48 L 32.94 10.94 C 32.22 10.97 30.77 11.04 30.04 11.07 C 30.04 11.71 30.05 12.97 30.05 13.61 C 30.01 16.95 29.90 20.30 30.00 23.65 C 30.02 26.04 30.00 28.42 30.01 30.80 L 30.01 32.29 C 23.08 32.15 16.45 29.99 10.23 27.06 C 9.53 28.03 8.83 29.01 8.12 29.98 C 8.08 29.44 8.00 28.35 7.97 27.80 C 8.50 21.09 13.21 15.78 18.02 11.51 Z" />
</g>
<g id="#9c9c9cff">
<path fill="#9c9c9c" opacity="1.00" d=" M 30.04 11.07 C 30.77 11.04 32.22 10.97 32.94 10.94 L 32.93 11.48 C 32.48 14.38 31.97 17.27 31.53 20.18 C 31.01 17.99 30.47 15.81 30.05 13.61 C 30.05 12.97 30.04 11.71 30.04 11.07 Z" />
</g>
<g id="#828282ff">
<path fill="#828282" opacity="1.00" d=" M 31.53 20.18 C 31.97 17.27 32.48 14.38 32.93 11.48 C 33.08 14.49 33.25 17.51 33.15 20.53 C 32.63 22.64 32.02 24.72 31.41 26.81 C 30.93 25.76 30.45 24.71 30.00 23.65 C 29.90 20.30 30.01 16.95 30.05 13.61 C 30.47 15.81 31.01 17.99 31.53 20.18 Z" />
</g>
<g id="#676767ff">
<path fill="#676767" opacity="1.00" d=" M 31.41 26.81 C 32.02 24.72 32.63 22.64 33.15 20.53 C 33.15 24.00 33.20 27.46 33.20 30.93 C 32.40 30.90 30.81 30.84 30.01 30.80 C 30.00 28.42 30.02 26.04 30.00 23.65 C 30.45 24.71 30.93 25.76 31.41 26.81 Z" />
</g>
<g id="#e4e4e4ff">
<path fill="#e4e4e4" opacity="1.00" d=" M 8.12 29.98 C 8.83 29.01 9.53 28.03 10.23 27.06 C 16.45 29.99 23.08 32.15 30.01 32.29 C 29.99 37.02 29.88 41.75 29.93 46.47 C 30.74 46.37 32.38 46.15 33.20 46.04 C 33.36 41.48 33.25 36.91 33.20 32.34 C 40.17 32.27 46.88 30.28 53.17 27.39 C 54.22 28.14 55.28 28.87 56.29 29.67 C 57.33 30.39 56.61 31.96 56.76 32.98 C 56.42 37.83 54.42 42.35 51.78 46.37 C 45.22 45.63 38.16 44.56 31.95 47.42 C 25.66 44.98 18.77 45.32 12.22 46.42 C 8.79 41.06 5.82 34.12 7.97 27.80 C 8.00 28.35 8.08 29.44 8.12 29.98 Z" />
</g>
</svg>
