<?xml version="1.0" encoding="UTF-8" ?>
<!DOCTYPE svg PUBLIC "-//W3C//DTD SVG 1.1//EN" "http://www.w3.org/Graphics/SVG/1.1/DTD/svg11.dtd">
<svg width="64pt" height="64pt" viewBox="0 0 64 64" version="1.1" xmlns="http://www.w3.org/2000/svg">
<g id="#6d6d6dff">
<path fill="#6d6d6d" opacity="1.00" d=" M 5.92 20.68 C 10.91 6.37 29.22 -0.61 42.88 5.41 C 55.44 10.26 63.11 24.69 60.19 37.84 C 58.43 46.29 52.78 53.98 44.95 57.72 C 39.35 59.76 33.41 60.78 27.45 60.50 C 23.44 59.80 19.66 58.15 16.16 56.10 C 4.84 49.00 -0.31 32.98 5.75 20.89 C 5.61 26.19 3.69 31.47 5.10 36.75 C 7.42 50.00 20.53 60.36 34.01 59.07 C 47.76 58.29 59.39 45.76 59.42 32.04 C 59.59 22.11 54.01 12.31 45.24 7.59 C 34.83 1.80 20.69 3.70 12.44 12.40 C 9.76 14.77 8.69 18.41 5.92 20.68 Z" />
<path fill="#6d6d6d" opacity="1.00" d=" M 31.63 45.99 C 31.43 43.48 31.82 41.02 33.13 38.84 C 33.27 43.35 33.23 47.86 33.40 52.37 C 32.24 52.48 31.08 52.44 29.95 52.15 C 30.05 48.99 29.91 45.83 29.94 42.67 C 29.97 42.00 30.02 40.66 30.05 39.99 C 30.57 41.99 31.14 43.98 31.63 45.99 Z" />
</g>
<g id="#d1d1d1ff">
<path fill="#d1d1d1" opacity="1.00" d=" M 12.44 12.40 C 20.69 3.70 34.83 1.80 45.24 7.59 C 54.01 12.31 59.59 22.11 59.42 32.04 C 59.39 45.76 47.76 58.29 34.01 59.07 C 20.53 60.36 7.42 50.00 5.10 36.75 C 3.69 31.47 5.61 26.19 5.75 20.89 L 5.76 20.86 L 5.92 20.68 C 8.69 18.41 9.76 14.77 12.44 12.40 M 22.95 8.06 C 21.15 8.89 18.68 9.36 18.03 11.54 C 12.90 15.89 8.25 21.60 7.81 28.59 L 7.56 27.74 C 6.40 35.03 8.67 43.34 14.32 48.27 C 18.57 48.61 22.78 47.31 27.05 47.53 C 27.63 48.62 28.22 49.71 28.81 50.80 C 29.09 48.08 29.57 45.38 29.94 42.67 C 29.91 45.83 30.05 48.99 29.95 52.15 C 31.08 52.44 32.24 52.48 33.40 52.37 C 34.94 51.02 35.03 48.91 35.46 47.05 C 40.54 46.13 45.74 46.55 50.78 47.46 C 54.23 43.41 56.26 38.31 56.76 33.03 C 56.70 31.87 57.31 30.39 56.38 29.45 C 55.91 25.60 54.66 21.89 52.82 18.48 C 52.56 15.82 50.39 14.08 48.53 12.44 C 41.61 6.53 31.45 4.71 22.95 8.06 Z" />
</g>
<g id="#9b9b9bff">
<path fill="#9b9b9b" opacity="1.00" d=" M 22.95 8.06 C 31.45 4.71 41.61 6.53 48.53 12.44 C 50.39 14.08 52.56 15.82 52.82 18.48 C 45.77 7.02 28.94 3.75 18.03 11.54 C 18.68 9.36 21.15 8.89 22.95 8.06 Z" />
<path fill="#9b9b9b" opacity="1.00" d=" M 29.95 33.61 C 30.74 33.43 32.31 33.07 33.09 32.88 C 33.14 34.87 33.18 36.85 33.13 38.84 C 31.82 41.02 31.43 43.48 31.63 45.99 C 31.14 43.98 30.57 41.99 30.05 39.99 C 29.98 37.86 29.94 35.74 29.95 33.61 Z" />
</g>
<g id="#f9f9f9ff">
<path fill="#f9f9f9" opacity="1.00" d=" M 18.03 11.54 C 28.94 3.75 45.77 7.02 52.82 18.48 C 54.66 21.89 55.91 25.60 56.38 29.45 C 55.00 28.63 53.51 26.92 51.80 27.92 C 46.49 29.99 41.06 32.50 35.20 31.76 C 38.29 29.77 41.63 28.16 44.52 25.88 C 44.14 25.29 43.38 24.12 43.00 23.53 C 38.51 25.48 34.41 28.18 30.15 30.55 C 30.11 31.03 30.03 32.00 29.99 32.48 C 23.00 32.16 16.46 29.75 10.00 27.30 C 9.41 28.19 8.80 29.07 8.19 29.95 C 8.10 29.61 7.91 28.93 7.81 28.59 C 8.25 21.60 12.90 15.89 18.03 11.54 Z" />
</g>
<g id="#8a8a8aff">
<path fill="#8a8a8a" opacity="1.00" d=" M 30.15 30.55 C 34.41 28.18 38.51 25.48 43.00 23.53 C 43.38 24.12 44.14 25.29 44.52 25.88 C 41.63 28.16 38.29 29.77 35.20 31.76 C 34.51 32.15 33.80 32.52 33.09 32.88 C 32.31 33.07 30.74 33.43 29.95 33.61 L 29.99 32.48 C 30.03 32.00 30.11 31.03 30.15 30.55 Z" />
</g>
<g id="#e2e2e2ff">
<path fill="#e2e2e2" opacity="1.00" d=" M 10.00 27.30 C 16.46 29.75 23.00 32.16 29.99 32.48 L 29.95 33.61 C 29.94 35.74 29.98 37.86 30.05 39.99 C 30.02 40.66 29.97 42.00 29.94 42.67 C 29.57 45.38 29.09 48.08 28.81 50.80 C 28.22 49.71 27.63 48.62 27.05 47.53 C 22.78 47.31 18.57 48.61 14.32 48.27 C 8.67 43.34 6.40 35.03 7.56 27.74 L 7.81 28.59 C 7.91 28.93 8.10 29.61 8.19 29.95 C 8.80 29.07 9.41 28.19 10.00 27.30 Z" />
</g>
<g id="#e3e3e3ff">
<path fill="#e3e3e3" opacity="1.00" d=" M 51.80 27.92 C 53.51 26.92 55.00 28.63 56.38 29.45 C 57.31 30.39 56.70 31.87 56.76 33.03 C 56.26 38.31 54.23 43.41 50.78 47.46 C 45.74 46.55 40.54 46.13 35.46 47.05 C 35.03 48.91 34.94 51.02 33.40 52.37 C 33.23 47.86 33.27 43.35 33.13 38.84 C 33.18 36.85 33.14 34.87 33.09 32.88 C 33.80 32.52 34.51 32.15 35.20 31.76 C 41.06 32.50 46.49 29.99 51.80 27.92 Z" />
</g>
<g id="#03030333">
<path fill="#030303" opacity="0.20" d=" M 16.16 56.10 C 19.66 58.15 23.44 59.80 27.45 60.50 C 30.66 61.08 33.94 61.18 37.20 60.96 C 31.21 62.68 24.84 61.31 18.92 59.98 C 16.84 59.79 16.50 57.78 16.16 56.10 Z" />
</g>
<g id="#212121a7">
<path fill="#212121" opacity="0.65" d=" M 27.45 60.50 C 33.41 60.78 39.35 59.76 44.95 57.72 C 43.00 59.95 39.87 60.20 37.20 60.96 C 33.94 61.18 30.66 61.08 27.45 60.50 Z" />
</g>
</svg>
