<?xml version="1.0" encoding="UTF-8" ?>
<!DOCTYPE svg PUBLIC "-//W3C//DTD SVG 1.1//EN" "http://www.w3.org/Graphics/SVG/1.1/DTD/svg11.dtd">
<svg width="64pt" height="64pt" viewBox="0 0 64 64" version="1.1" xmlns="http://www.w3.org/2000/svg">
<g id="#787878ff">
<path fill="#787878" opacity="1.00" d=" M 6.11 20.50 C 9.61 9.98 21.15 3.23 32.01 3.28 C 44.00 3.11 55.44 11.32 59.18 22.70 C 63.68 35.14 58.20 50.16 46.73 56.76 L 46.16 56.80 C 44.05 58.44 41.45 59.15 38.99 60.07 C 38.37 60.18 37.14 60.42 36.52 60.54 C 33.00 60.69 29.46 60.77 25.96 60.32 L 25.83 60.30 C 22.33 59.17 18.92 57.74 15.79 55.79 C 4.89 48.73 -0.09 33.22 5.57 21.39 C 6.10 24.32 4.79 27.12 4.65 30.03 C 4.16 38.52 7.85 47.13 14.40 52.58 C 17.89 55.79 22.38 57.48 26.83 58.85 C 29.81 60.26 33.10 59.80 36.16 58.95 C 45.16 57.30 53.27 51.22 56.97 42.80 C 60.02 35.82 60.44 27.30 56.78 20.47 C 52.76 12.86 45.62 6.52 36.93 5.14 C 26.94 2.86 16.53 7.68 10.24 15.44 C 8.61 16.93 8.07 19.37 6.11 20.50 Z" />
<path fill="#787878" opacity="1.00" d=" M 29.85 11.28 C 30.43 11.98 30.99 12.68 31.55 13.39 C 31.48 15.34 31.39 17.29 31.44 19.24 C 31.89 16.40 31.75 13.51 32.03 10.65 C 33.82 17.94 32.90 25.68 33.07 33.17 C 30.52 33.87 28.52 31.67 26.38 30.71 C 27.57 30.04 28.77 29.35 29.94 28.63 C 29.78 22.85 30.51 17.05 29.85 11.28 Z" />
</g>
<g id="#f9f9f9ff">
<path fill="#f9f9f9" opacity="1.00" d=" M 10.24 15.44 C 16.53 7.68 26.94 2.86 36.93 5.14 C 45.62 6.52 52.76 12.86 56.78 20.47 C 55.56 20.07 55.16 18.83 54.57 17.85 C 54.01 17.91 52.90 18.04 52.35 18.11 C 54.25 21.08 55.69 24.35 56.32 27.83 C 56.18 28.42 55.90 29.58 55.77 30.16 C 55.51 29.01 54.83 27.88 53.75 27.34 C 52.07 27.54 50.57 28.41 49.02 29.04 C 44.31 31.28 39.07 31.97 33.92 32.37 C 33.41 27.25 33.63 22.11 33.82 16.98 C 33.77 14.78 34.10 12.15 32.03 10.65 C 31.75 13.51 31.89 16.40 31.44 19.24 C 31.39 17.29 31.48 15.34 31.55 13.39 C 30.99 12.68 30.43 11.98 29.85 11.28 C 30.51 17.05 29.78 22.85 29.94 28.63 C 26.21 27.46 23.07 23.16 19.03 24.03 C 18.96 24.52 18.81 25.51 18.74 26.00 C 21.04 27.95 23.85 29.12 26.38 30.71 L 27.00 32.16 C 21.09 31.75 15.63 29.45 10.26 27.13 C 9.69 27.88 9.12 28.63 8.56 29.37 C 8.34 29.11 7.91 28.57 7.69 28.30 C 8.55 22.21 11.78 16.41 16.90 12.90 C 16.95 12.17 17.06 10.71 17.11 9.98 C 14.78 11.71 13.16 14.61 10.24 15.44 M 26.99 6.57 C 23.48 6.82 20.76 9.51 17.26 9.68 C 17.94 10.31 18.63 10.93 19.32 11.55 L 20.07 10.14 C 30.07 4.74 43.83 6.96 50.97 16.03 C 51.08 17.65 52.96 16.98 52.90 15.95 C 49.53 12.94 46.18 9.70 41.86 8.07 C 37.24 5.90 31.95 6.05 26.99 6.57 Z" />
</g>
<g id="#949494ff">
<path fill="#949494" opacity="1.00" d=" M 26.99 6.57 C 31.95 6.05 37.24 5.90 41.86 8.07 C 46.18 9.70 49.53 12.94 52.90 15.95 C 52.96 16.98 51.08 17.65 50.97 16.03 C 43.83 6.96 30.07 4.74 20.07 10.14 L 19.32 11.55 C 18.63 10.93 17.94 10.31 17.26 9.68 C 20.76 9.51 23.48 6.82 26.99 6.57 Z" />
<path fill="#949494" opacity="1.00" d=" M 19.03 24.03 C 23.07 23.16 26.21 27.46 29.94 28.63 C 28.77 29.35 27.57 30.04 26.38 30.71 C 23.85 29.12 21.04 27.95 18.74 26.00 C 18.81 25.51 18.96 24.52 19.03 24.03 Z" />
</g>
<g id="#c8c8c8ff">
<path fill="#c8c8c8" opacity="1.00" d=" M 17.11 9.98 C 17.06 10.71 16.95 12.17 16.90 12.90 C 11.78 16.41 8.55 22.21 7.69 28.30 C 7.43 28.45 6.90 28.76 6.64 28.91 C 7.24 35.18 8.24 41.78 12.41 46.79 C 16.90 52.90 24.40 56.50 32.00 55.95 C 39.60 56.58 47.06 52.84 51.56 46.79 C 55.62 41.52 57.90 34.42 56.32 27.83 C 55.69 24.35 54.25 21.08 52.35 18.11 C 52.90 18.04 54.01 17.91 54.57 17.85 C 55.16 18.83 55.56 20.07 56.78 20.47 C 60.44 27.30 60.02 35.82 56.97 42.80 C 53.27 51.22 45.16 57.30 36.16 58.95 C 33.06 59.15 29.94 59.08 26.83 58.85 C 22.38 57.48 17.89 55.79 14.40 52.58 C 7.85 47.13 4.16 38.52 4.65 30.03 C 4.79 27.12 6.10 24.32 5.57 21.39 L 5.52 20.89 L 6.11 20.50 C 8.07 19.37 8.61 16.93 10.24 15.44 C 13.16 14.61 14.78 11.71 17.11 9.98 Z" />
</g>
<g id="#e2e2e2ff">
<path fill="#e2e2e2" opacity="1.00" d=" M 32.03 10.65 C 34.10 12.15 33.77 14.78 33.82 16.98 C 33.63 22.11 33.41 27.25 33.92 32.37 C 39.07 31.97 44.31 31.28 49.02 29.04 C 50.57 28.41 52.07 27.54 53.75 27.34 C 54.83 27.88 55.51 29.01 55.77 30.16 C 55.90 29.58 56.18 28.42 56.32 27.83 C 57.90 34.42 55.62 41.52 51.56 46.79 C 49.46 46.14 47.29 45.63 45.06 45.73 C 36.38 45.84 27.68 45.83 18.99 45.73 C 16.75 45.64 14.55 46.16 12.41 46.79 C 8.24 41.78 7.24 35.18 6.64 28.91 C 6.90 28.76 7.43 28.45 7.69 28.30 C 7.91 28.57 8.34 29.11 8.56 29.37 C 9.12 28.63 9.69 27.88 10.26 27.13 C 15.63 29.45 21.09 31.75 27.00 32.16 L 26.38 30.71 C 28.52 31.67 30.52 33.87 33.07 33.17 C 32.90 25.68 33.82 17.94 32.03 10.65 Z" />
</g>
<g id="#d4d4d4ff">
<path fill="#d4d4d4" opacity="1.00" d=" M 12.41 46.79 C 14.55 46.16 16.75 45.64 18.99 45.73 C 27.68 45.83 36.38 45.84 45.06 45.73 C 47.29 45.63 49.46 46.14 51.56 46.79 C 47.06 52.84 39.60 56.58 32.00 55.95 C 24.40 56.50 16.90 52.90 12.41 46.79 Z" />
</g>
<g id="#04040434">
<path fill="#040404" opacity="0.20" d=" M 15.79 55.79 C 18.92 57.74 22.33 59.17 25.83 60.30 C 22.12 61.44 16.27 60.55 15.79 55.79 Z" />
</g>
<g id="#0101011d">
<path fill="#010101" opacity="0.11" d=" M 46.16 56.80 L 46.73 56.76 C 47.83 57.70 48.78 58.79 49.76 59.85 C 46.38 60.73 42.85 61.30 39.36 60.84 L 38.99 60.07 C 41.45 59.15 44.05 58.44 46.16 56.80 Z" />
</g>
<g id="#747474ff">
<path fill="#747474" opacity="1.00" d=" M 26.83 58.85 C 29.94 59.08 33.06 59.15 36.16 58.95 C 33.10 59.80 29.81 60.26 26.83 58.85 Z" />
</g>
<g id="#00000021">
<path fill="#000000" opacity="0.13" d=" M 25.96 60.32 C 29.46 60.77 33.00 60.69 36.52 60.54 L 37.09 61.55 C 33.53 61.97 29.88 62.22 26.35 61.45 L 25.96 60.32 Z" />
</g>
</svg>
