<?xml version="1.0" encoding="UTF-8" ?>
<!DOCTYPE svg PUBLIC "-//W3C//DTD SVG 1.1//EN" "http://www.w3.org/Graphics/SVG/1.1/DTD/svg11.dtd">
<svg width="64pt" height="64pt" viewBox="0 0 64 64" version="1.1" xmlns="http://www.w3.org/2000/svg">
<g id="#707070ff">
<path fill="#707070" opacity="1.00" d=" M 7.35 17.47 C 14.02 5.02 30.83 -0.24 43.56 5.70 C 51.90 9.27 58.19 17.06 60.11 25.90 C 60.16 29.69 60.18 33.53 59.27 37.23 C 59.79 30.68 59.38 23.60 55.69 17.96 C 51.56 11.88 45.48 6.94 38.21 5.29 C 27.09 2.34 14.63 7.88 8.78 17.66 C 8.42 17.61 7.71 17.51 7.35 17.47 Z" />
<path fill="#707070" opacity="1.00" d=" M 31.35 42.89 C 31.80 40.95 32.41 39.05 33.06 37.17 C 33.29 42.15 33.30 47.14 33.29 52.13 C 32.20 52.49 30.98 52.97 30.10 51.90 C 29.84 48.50 29.99 45.09 29.91 41.69 C 29.95 40.86 30.01 39.19 30.04 38.36 C 30.45 39.88 30.93 41.37 31.35 42.89 Z" />
</g>
<g id="#f8f8f8ff">
<path fill="#f8f8f8" opacity="1.00" d=" M 8.78 17.66 C 14.63 7.88 27.09 2.34 38.21 5.29 C 45.48 6.94 51.56 11.88 55.69 17.96 C 54.54 17.91 53.40 17.95 52.26 17.97 C 54.15 20.99 55.70 24.27 56.30 27.81 C 56.20 28.61 55.98 30.20 55.88 31.00 C 55.17 29.79 54.46 28.59 53.77 27.37 C 47.19 29.98 40.39 32.45 33.21 32.45 C 33.53 31.82 34.17 30.55 34.49 29.92 C 36.53 26.69 38.44 23.37 40.19 19.97 C 39.26 19.40 38.28 19.05 37.24 18.90 C 35.25 21.42 33.85 24.33 32.23 27.08 C 31.27 28.77 30.25 30.48 29.91 32.43 C 22.78 32.10 15.90 29.93 9.65 26.52 C 9.25 27.75 8.85 28.97 8.44 30.20 C 8.24 29.62 7.86 28.46 7.67 27.88 C 8.27 24.37 9.77 21.10 11.70 18.13 C 10.73 17.98 9.76 17.81 8.78 17.66 M 16.29 11.27 C 14.26 12.67 12.90 15.01 10.46 15.81 C 11.01 16.40 11.58 16.96 12.19 17.49 C 20.59 3.94 43.41 3.94 51.82 17.49 C 52.42 16.97 52.98 16.41 53.51 15.82 C 49.00 12.89 45.24 8.54 39.75 7.21 C 31.90 4.07 22.96 6.54 16.29 11.27 Z" />
</g>
<g id="#9e9e9eff">
<path fill="#9e9e9e" opacity="1.00" d=" M 16.29 11.27 C 22.96 6.54 31.90 4.07 39.75 7.21 C 45.24 8.54 49.00 12.89 53.51 15.82 C 52.98 16.41 52.42 16.97 51.82 17.49 C 43.41 3.94 20.59 3.94 12.19 17.49 C 11.58 16.96 11.01 16.40 10.46 15.81 C 12.90 15.01 14.26 12.67 16.29 11.27 Z" />
<path fill="#9e9e9e" opacity="1.00" d=" M 29.91 33.31 C 30.72 33.30 32.34 33.27 33.15 33.26 C 33.10 34.56 33.10 35.86 33.06 37.17 C 32.41 39.05 31.80 40.95 31.35 42.89 C 30.93 41.37 30.45 39.88 30.04 38.36 C 29.98 36.68 29.95 34.99 29.91 33.31 Z" />
</g>
<g id="#c9c9c9ff">
<path fill="#c9c9c9" opacity="1.00" d=" M 6.14 20.14 C 6.52 19.23 6.95 18.36 7.35 17.47 C 7.71 17.51 8.42 17.61 8.78 17.66 C 9.76 17.81 10.73 17.98 11.70 18.13 C 9.77 21.10 8.27 24.37 7.67 27.88 C 5.90 35.38 9.02 43.38 14.31 48.75 C 19.23 54.86 27.50 56.56 34.97 55.89 C 41.12 55.73 46.85 52.49 50.67 47.76 C 55.37 42.43 57.97 34.85 56.30 27.81 C 55.70 24.27 54.15 20.99 52.26 17.97 C 53.40 17.95 54.54 17.91 55.69 17.96 C 59.38 23.60 59.79 30.68 59.27 37.23 C 56.88 48.05 47.98 56.98 37.01 58.97 C 24.03 61.38 10.18 53.37 5.96 40.84 C 5.97 40.31 5.99 39.26 6.00 38.73 C 5.79 38.46 5.36 37.91 5.15 37.63 C 3.79 35.32 4.23 32.56 4.15 30.00 C 4.11 26.62 4.37 23.11 6.14 20.14 Z" />
</g>
<g id="#989898ff">
<path fill="#989898" opacity="1.00" d=" M 37.24 18.90 C 38.28 19.05 39.26 19.40 40.19 19.97 C 38.44 23.37 36.53 26.69 34.49 29.92 L 34.92 28.61 C 34.25 28.22 32.90 27.46 32.23 27.08 C 33.85 24.33 35.25 21.42 37.24 18.90 Z" />
</g>
<g id="#e2e2e2ff">
<path fill="#e2e2e2" opacity="1.00" d=" M 9.65 26.52 C 15.90 29.93 22.78 32.10 29.91 32.43 L 29.91 33.31 C 29.95 34.99 29.98 36.68 30.04 38.36 C 30.01 39.19 29.95 40.86 29.91 41.69 C 29.40 44.70 28.96 47.72 28.74 50.76 C 28.19 49.72 27.60 48.70 26.98 47.71 C 22.73 47.37 18.35 47.14 14.31 48.75 C 9.02 43.38 5.90 35.38 7.67 27.88 C 7.86 28.46 8.24 29.62 8.44 30.20 C 8.85 28.97 9.25 27.75 9.65 26.52 Z" />
<path fill="#e2e2e2" opacity="1.00" d=" M 33.21 32.45 C 40.39 32.45 47.19 29.98 53.77 27.37 C 54.46 28.59 55.17 29.79 55.88 31.00 C 55.98 30.20 56.20 28.61 56.30 27.81 C 57.97 34.85 55.37 42.43 50.67 47.76 C 45.78 46.06 40.56 46.50 35.51 47.01 C 35.14 48.48 34.78 49.95 34.35 51.40 C 34.08 51.58 33.56 51.95 33.29 52.13 C 33.30 47.14 33.29 42.15 33.06 37.17 C 33.10 35.86 33.10 34.56 33.15 33.26 C 33.16 33.06 33.20 32.65 33.21 32.45 Z" />
</g>
<g id="#505050d4">
<path fill="#505050" opacity="0.83" d=" M 60.11 25.90 C 63.64 39.46 55.21 54.36 42.26 59.22 C 37.56 61.04 32.34 61.39 27.39 60.51 C 30.88 60.10 34.39 59.89 37.91 59.85 C 37.68 59.63 37.23 59.19 37.01 58.97 C 47.98 56.98 56.88 48.05 59.27 37.23 C 60.18 33.53 60.16 29.69 60.11 25.90 Z" />
</g>
<g id="#6a6a6aff">
<path fill="#6a6a6a" opacity="1.00" d=" M 29.91 32.43 C 30.25 30.48 31.27 28.77 32.23 27.08 C 32.90 27.46 34.25 28.22 34.92 28.61 L 34.49 29.92 C 34.17 30.55 33.53 31.82 33.21 32.45 C 33.20 32.65 33.16 33.06 33.15 33.26 C 32.34 33.27 30.72 33.30 29.91 33.31 L 29.91 32.43 Z" />
</g>
<g id="#5b5b5be4">
<path fill="#5b5b5b" opacity="0.89" d=" M 5.15 37.63 C 5.36 37.91 5.79 38.46 6.00 38.73 C 5.99 39.26 5.97 40.31 5.96 40.84 C 10.18 53.37 24.03 61.38 37.01 58.97 C 37.23 59.19 37.68 59.63 37.91 59.85 C 34.39 59.89 30.88 60.10 27.39 60.51 C 17.82 59.43 9.33 52.39 5.54 43.63 C 4.87 41.44 2.79 39.12 4.53 36.84 L 5.15 37.63 Z" />
</g>
<g id="#d3d3d3ff">
<path fill="#d3d3d3" opacity="1.00" d=" M 28.74 50.76 C 28.96 47.72 29.40 44.70 29.91 41.69 C 29.99 45.09 29.84 48.50 30.10 51.90 C 30.98 52.97 32.20 52.49 33.29 52.13 C 33.56 51.95 34.08 51.58 34.35 51.40 C 34.78 49.95 35.14 48.48 35.51 47.01 C 40.56 46.50 45.78 46.06 50.67 47.76 C 46.85 52.49 41.12 55.73 34.97 55.89 C 27.50 56.56 19.23 54.86 14.31 48.75 C 18.35 47.14 22.73 47.37 26.98 47.71 C 27.60 48.70 28.19 49.72 28.74 50.76 Z" />
</g>
</svg>
