<?xml version="1.0" encoding="UTF-8" ?>
<!DOCTYPE svg PUBLIC "-//W3C//DTD SVG 1.1//EN" "http://www.w3.org/Graphics/SVG/1.1/DTD/svg11.dtd">
<svg width="64pt" height="64pt" viewBox="0 0 64 64" version="1.1" xmlns="http://www.w3.org/2000/svg">
<g id="#797979ff">
<path fill="#797979" opacity="1.00" d=" M 5.99 20.66 C 10.45 7.74 26.07 0.64 39.02 4.15 C 49.33 6.64 57.74 15.30 60.04 25.64 C 60.81 32.02 60.24 38.55 57.84 44.54 C 57.35 45.65 56.75 46.70 56.13 47.74 C 56.35 46.40 56.52 45.06 56.76 43.72 C 59.89 36.03 60.43 27.08 56.52 19.56 C 51.50 8.67 38.69 2.41 26.99 4.75 C 21.51 5.74 16.37 8.48 12.45 12.44 C 9.96 14.92 8.65 18.32 5.99 20.66 Z" />
<path fill="#797979" opacity="1.00" d=" M 31.58 23.01 C 31.47 20.27 31.96 17.57 32.93 15.00 C 33.14 20.89 33.22 26.79 33.05 32.68 C 28.60 35.24 24.23 37.96 19.73 40.45 C 19.40 39.40 19.12 38.33 18.89 37.25 C 21.62 35.27 24.68 33.80 27.59 32.11 L 29.50 31.08 C 29.31 31.81 28.93 33.26 28.74 33.98 C 30.06 32.87 31.37 31.73 32.67 30.58 C 31.67 30.52 30.68 30.52 29.68 30.47 C 30.02 26.01 30.05 21.53 30.02 17.06 C 30.52 19.05 31.08 21.02 31.58 23.01 Z" />
</g>
<g id="#cdcdcdff">
<path fill="#cdcdcd" opacity="1.00" d=" M 12.45 12.44 C 16.37 8.48 21.51 5.74 26.99 4.75 C 38.69 2.41 51.50 8.67 56.52 19.56 C 60.43 27.08 59.89 36.03 56.76 43.72 C 51.92 54.01 40.25 60.55 28.95 59.14 C 17.77 57.96 7.97 49.36 5.27 38.46 C 3.55 32.70 4.97 26.75 5.73 20.98 L 5.74 20.91 L 5.99 20.66 C 8.65 18.32 9.96 14.92 12.45 12.44 M 23.77 7.72 C 21.71 8.65 18.63 9.04 17.98 11.61 C 12.79 15.87 8.23 21.65 7.78 28.60 L 7.48 27.77 C 6.26 34.39 8.53 41.10 12.16 46.59 L 12.49 46.54 C 16.72 52.89 24.35 56.42 31.93 55.84 C 39.61 56.54 47.20 52.80 51.55 46.50 L 51.87 46.55 C 54.94 41.57 57.78 35.39 56.46 29.53 C 55.92 25.68 54.75 21.92 52.85 18.51 C 52.61 15.83 50.49 14.04 48.60 12.41 C 41.86 6.74 32.12 4.65 23.77 7.72 Z" />
</g>
<g id="#a7a7a7ff">
<path fill="#a7a7a7" opacity="1.00" d=" M 23.77 7.72 C 32.12 4.65 41.86 6.74 48.60 12.41 C 50.49 14.04 52.61 15.83 52.85 18.51 C 45.69 7.10 28.95 3.82 17.98 11.61 C 18.63 9.04 21.71 8.65 23.77 7.72 Z" />
<path fill="#a7a7a7" opacity="1.00" d=" M 30.00 11.06 C 30.79 11.03 32.39 10.97 33.18 10.93 L 33.22 11.84 C 33.14 12.89 33.04 13.95 32.93 15.00 C 31.96 17.57 31.47 20.27 31.58 23.01 C 31.08 21.02 30.52 19.05 30.02 17.06 C 29.97 15.06 30.00 13.06 30.00 11.06 Z" />
</g>
<g id="#f9f9f9ff">
<path fill="#f9f9f9" opacity="1.00" d=" M 17.98 11.61 C 28.95 3.82 45.69 7.10 52.85 18.51 C 54.75 21.92 55.92 25.68 56.46 29.53 C 55.09 28.78 53.65 27.12 51.97 28.03 C 46.15 30.32 40.18 32.39 33.84 32.47 C 33.25 25.60 34.21 18.68 33.22 11.84 L 33.18 10.93 C 32.39 10.97 30.79 11.03 30.00 11.06 C 30.00 13.06 29.97 15.06 30.02 17.06 C 30.05 21.53 30.02 26.01 29.68 30.47 C 30.68 30.52 31.67 30.52 32.67 30.58 C 31.37 31.73 30.06 32.87 28.74 33.98 C 28.93 33.26 29.31 31.81 29.50 31.08 L 27.59 32.11 C 21.37 31.91 15.65 29.34 9.92 27.18 C 9.36 28.10 8.79 29.01 8.23 29.92 C 8.12 29.59 7.89 28.93 7.78 28.60 C 8.23 21.65 12.79 15.87 17.98 11.61 Z" />
</g>
<g id="#e2e2e2ff">
<path fill="#e2e2e2" opacity="1.00" d=" M 33.22 11.84 C 34.21 18.68 33.25 25.60 33.84 32.47 C 40.18 32.39 46.15 30.32 51.97 28.03 C 53.65 27.12 55.09 28.78 56.46 29.53 C 57.78 35.39 54.94 41.57 51.87 46.55 L 51.55 46.50 C 45.08 45.28 38.48 45.82 31.95 45.76 C 25.46 45.84 18.90 45.22 12.49 46.54 L 12.16 46.59 C 8.53 41.10 6.26 34.39 7.48 27.77 L 7.78 28.60 C 7.89 28.93 8.12 29.59 8.23 29.92 C 8.79 29.01 9.36 28.10 9.92 27.18 C 15.65 29.34 21.37 31.91 27.59 32.11 C 24.68 33.80 21.62 35.27 18.89 37.25 C 19.12 38.33 19.40 39.40 19.73 40.45 C 24.23 37.96 28.60 35.24 33.05 32.68 C 33.22 26.79 33.14 20.89 32.93 15.00 C 33.04 13.95 33.14 12.89 33.22 11.84 Z" />
</g>
<g id="#5a5a5ae2">
<path fill="#5a5a5a" opacity="0.89" d=" M 17.20 56.90 C 5.22 50.08 -0.73 33.43 5.73 20.98 C 4.97 26.75 3.55 32.70 5.27 38.46 C 7.97 49.36 17.77 57.96 28.95 59.14 C 40.25 60.55 51.92 54.01 56.76 43.72 C 56.52 45.06 56.35 46.40 56.13 47.74 C 48.48 60.67 29.83 64.95 17.20 56.90 Z" />
</g>
<g id="#2a2a2a92">
<path fill="#2a2a2a" opacity="0.57" d=" M 60.04 25.64 C 61.97 31.81 61.24 39.01 57.84 44.54 C 60.24 38.55 60.81 32.02 60.04 25.64 Z" />
</g>
<g id="#d4d4d4ff">
<path fill="#d4d4d4" opacity="1.00" d=" M 12.49 46.54 C 18.90 45.22 25.46 45.84 31.95 45.76 C 38.48 45.82 45.08 45.28 51.55 46.50 C 47.20 52.80 39.61 56.54 31.93 55.84 C 24.35 56.42 16.72 52.89 12.49 46.54 Z" />
</g>
</svg>
