<?xml version="1.0" encoding="UTF-8" ?>
<!DOCTYPE svg PUBLIC "-//W3C//DTD SVG 1.1//EN" "http://www.w3.org/Graphics/SVG/1.1/DTD/svg11.dtd">
<svg width="64pt" height="64pt" viewBox="0 0 64 64" version="1.1" xmlns="http://www.w3.org/2000/svg">
<g id="#676767de">
<path fill="#676767" opacity="0.87" d=" M 10.64 12.63 C 17.14 5.50 27.35 1.86 36.87 3.63 C 46.78 5.24 55.52 12.43 58.96 21.87 C 63.36 33.07 59.73 46.77 50.36 54.31 C 47.25 56.69 43.84 58.94 39.96 59.78 C 31.17 61.96 21.81 60.04 14.39 54.93 C 10.68 52.23 7.85 48.43 5.87 44.33 C 3.66 38.36 3.05 31.92 3.87 25.61 C 4.15 23.97 4.84 22.44 5.69 21.02 C 5.27 26.57 3.51 32.17 5.15 37.71 C 7.95 50.97 21.51 60.89 35.03 59.09 C 48.44 57.81 59.57 45.48 59.53 32.02 C 59.38 28.01 59.28 23.24 56.32 20.19 C 53.81 12.73 46.67 7.78 39.41 5.52 C 28.81 2.22 16.92 6.73 10.06 15.18 C 8.61 16.84 7.82 19.00 6.12 20.46 C 6.45 17.39 8.81 14.98 10.64 12.63 Z" />
</g>
<g id="#f9f9f9ff">
<path fill="#f9f9f9" opacity="1.00" d=" M 10.06 15.18 C 16.92 6.73 28.81 2.22 39.41 5.52 C 46.67 7.78 53.81 12.73 56.32 20.19 C 55.64 19.64 55.43 18.72 54.88 18.05 C 54.19 18.00 52.81 17.89 52.12 17.84 C 53.39 19.91 54.62 22.01 55.60 24.23 C 54.79 25.55 53.97 26.96 52.46 27.57 C 46.67 30.42 40.30 32.09 33.85 32.43 C 32.73 25.24 35.15 17.66 32.54 10.72 L 32.02 11.82 C 31.03 14.25 31.47 16.90 31.73 19.42 L 31.88 20.40 C 32.39 22.47 31.26 24.11 29.61 25.21 C 29.78 26.83 29.94 28.45 30.08 30.08 C 26.35 30.14 22.63 29.97 18.91 30.09 C 17.26 29.81 16.81 31.66 16.96 32.91 C 15.58 28.63 10.59 27.91 8.40 24.32 C 10.17 19.83 12.90 15.66 16.91 12.88 C 16.96 12.16 17.05 10.73 17.10 10.01 C 14.83 11.84 12.51 13.61 10.06 15.18 M 17.37 9.77 C 17.98 10.35 18.60 10.93 19.22 11.51 C 19.50 9.61 21.69 9.56 23.03 8.83 C 32.99 4.99 46.19 8.08 51.80 17.53 C 52.41 16.94 53.01 16.34 53.61 15.75 C 51.81 15.87 50.95 14.17 49.74 13.21 C 44.34 7.89 36.54 5.47 29.05 6.36 C 24.84 6.29 21.37 8.99 17.37 9.77 Z" />
</g>
<g id="#929292ff">
<path fill="#929292" opacity="1.00" d=" M 17.37 9.77 C 21.37 8.99 24.84 6.29 29.05 6.36 C 36.54 5.47 44.34 7.89 49.74 13.21 C 50.95 14.17 51.81 15.87 53.61 15.75 C 53.01 16.34 52.41 16.94 51.80 17.53 C 46.19 8.08 32.99 4.99 23.03 8.83 C 21.69 9.56 19.50 9.61 19.22 11.51 C 18.60 10.93 17.98 10.35 17.37 9.77 Z" />
<path fill="#929292" opacity="1.00" d=" M 32.02 11.82 L 32.54 10.72 C 33.58 18.16 33.11 25.71 33.07 33.19 C 27.71 33.47 22.27 33.89 16.96 32.91 C 16.81 31.66 17.26 29.81 18.91 30.09 C 22.63 29.97 26.35 30.14 30.08 30.08 C 29.94 28.45 29.78 26.83 29.61 25.21 C 31.26 24.11 32.39 22.47 31.88 20.40 L 31.73 19.42 C 31.47 16.90 31.03 14.25 32.02 11.82 Z" />
</g>
<g id="#c8c8c8ff">
<path fill="#c8c8c8" opacity="1.00" d=" M 17.10 10.01 C 17.05 10.73 16.96 12.16 16.91 12.88 C 12.90 15.66 10.17 19.83 8.40 24.32 C 5.60 31.88 7.57 40.48 12.39 46.76 C 16.88 52.90 24.43 56.49 32.04 55.94 C 39.60 56.42 47.15 52.91 51.59 46.76 C 56.44 40.46 58.36 31.83 55.60 24.23 C 54.62 22.01 53.39 19.91 52.12 17.84 C 52.81 17.89 54.19 18.00 54.88 18.05 C 55.43 18.72 55.64 19.64 56.32 20.19 C 59.28 23.24 59.38 28.01 59.53 32.02 C 59.57 45.48 48.44 57.81 35.03 59.09 C 21.51 60.89 7.95 50.97 5.15 37.71 C 3.51 32.17 5.27 26.57 5.69 21.02 L 5.70 20.87 L 6.12 20.46 C 7.82 19.00 8.61 16.84 10.06 15.18 C 12.51 13.61 14.83 11.84 17.10 10.01 Z" />
</g>
<g id="#e2e2e2ff">
<path fill="#e2e2e2" opacity="1.00" d=" M 32.54 10.72 C 35.15 17.66 32.73 25.24 33.85 32.43 C 40.30 32.09 46.67 30.42 52.46 27.57 C 53.97 26.96 54.79 25.55 55.60 24.23 C 58.36 31.83 56.44 40.46 51.59 46.76 C 44.87 44.99 37.88 45.94 31.03 45.73 C 24.81 45.91 18.46 44.98 12.39 46.76 C 7.57 40.48 5.60 31.88 8.40 24.32 C 10.59 27.91 15.58 28.63 16.96 32.91 C 22.27 33.89 27.71 33.47 33.07 33.19 C 33.11 25.71 33.58 18.16 32.54 10.72 Z" />
</g>
<g id="#25252592">
<path fill="#252525" opacity="0.57" d=" M 5.87 44.33 C 2.68 38.76 2.04 31.73 3.87 25.61 C 3.05 31.92 3.66 38.36 5.87 44.33 Z" />
</g>
<g id="#d4d4d4ff">
<path fill="#d4d4d4" opacity="1.00" d=" M 12.39 46.76 C 18.46 44.98 24.81 45.91 31.03 45.73 C 37.88 45.94 44.87 44.99 51.59 46.76 C 47.15 52.91 39.60 56.42 32.04 55.94 C 24.43 56.49 16.88 52.90 12.39 46.76 Z" />
</g>
<g id="#1313136f">
<path fill="#131313" opacity="0.44" d=" M 14.39 54.93 C 21.81 60.04 31.17 61.96 39.96 59.78 C 38.66 61.75 35.99 61.03 34.00 61.32 C 27.08 61.69 19.09 60.57 14.39 54.93 Z" />
</g>
</svg>
