<?xml version="1.0" encoding="UTF-8" ?>
<!DOCTYPE svg PUBLIC "-//W3C//DTD SVG 1.1//EN" "http://www.w3.org/Graphics/SVG/1.1/DTD/svg11.dtd">
<svg width="64pt" height="64pt" viewBox="0 0 64 64" version="1.1" xmlns="http://www.w3.org/2000/svg">
<g id="#6d6d6dff">
<path fill="#6d6d6d" opacity="1.00" d=" M 26.52 3.78 C 35.74 1.92 45.70 5.02 52.33 11.66 C 60.56 19.74 63.12 32.94 58.39 43.48 C 54.97 51.59 47.61 57.80 39.13 60.04 C 31.06 61.86 22.11 60.61 15.38 55.58 C 3.91 47.87 -0.16 31.37 6.27 19.17 C 10.15 11.25 17.88 5.44 26.52 3.78 M 23.86 5.68 C 18.67 7.76 13.72 10.72 10.22 15.16 C 6.95 18.59 5.58 23.39 4.78 27.95 C 3.00 39.80 10.06 52.10 20.99 56.86 C 30.50 61.20 42.46 59.35 50.13 52.21 C 58.97 44.61 62.29 30.77 56.82 20.31 C 53.51 13.37 47.30 8.29 40.14 5.68 C 34.81 4.17 29.19 4.16 23.86 5.68 Z" />
<path fill="#6d6d6d" opacity="1.00" d=" M 17.47 9.93 C 21.94 8.65 26.21 6.21 30.99 6.44 C 37.54 6.03 44.30 8.35 49.01 12.97 C 50.32 14.18 51.67 15.47 53.45 15.96 C 52.96 16.44 52.47 16.91 51.98 17.38 C 47.76 10.77 39.83 6.88 32.04 7.16 C 27.51 7.28 22.21 7.73 18.99 11.30 C 18.48 10.84 17.98 10.39 17.47 9.93 Z" />
<path fill="#6d6d6d" opacity="1.00" d=" M 31.61 23.65 C 32.13 21.12 32.62 18.57 33.07 16.02 C 33.11 19.10 33.05 22.20 33.26 25.28 C 34.22 25.92 35.25 26.44 36.28 26.95 C 35.15 28.90 34.08 30.89 32.94 32.85 C 31.95 32.95 30.96 32.99 29.97 33.02 C 29.98 27.77 30.07 22.52 30.02 17.26 C 30.48 19.41 31.05 21.53 31.61 23.65 Z" />
</g>
<g id="#f9f9f9ff">
<path fill="#f9f9f9" opacity="1.00" d=" M 23.86 5.68 C 29.19 4.16 34.81 4.17 40.14 5.68 C 47.30 8.29 53.51 13.37 56.82 20.31 C 56.24 19.55 55.63 18.82 55.02 18.08 C 54.31 18.01 52.88 17.85 52.17 17.77 C 53.98 20.89 55.72 24.14 56.28 27.74 C 56.28 28.32 56.27 29.47 56.26 30.05 C 55.39 29.11 54.53 28.16 53.66 27.21 C 47.17 30.42 40.08 31.94 32.94 32.85 C 34.08 30.89 35.15 28.90 36.28 26.95 C 37.69 24.55 39.07 22.13 40.40 19.69 C 39.36 19.44 38.30 19.21 37.24 19.02 C 35.62 20.90 34.51 23.15 33.26 25.28 C 33.05 22.20 33.11 19.10 33.07 16.02 C 33.12 14.32 33.14 12.63 33.17 10.94 C 32.37 10.97 30.78 11.05 29.99 11.08 C 29.99 13.14 29.97 15.20 30.02 17.26 C 30.07 22.52 29.98 27.77 29.97 33.02 C 23.30 31.75 16.68 30.12 10.49 27.30 C 9.55 28.19 8.60 29.07 7.65 29.94 C 7.67 29.41 7.71 28.33 7.72 27.80 C 8.65 21.81 12.09 16.48 16.86 12.80 C 16.93 12.12 17.07 10.76 17.14 10.09 C 14.81 11.75 12.44 13.37 10.22 15.16 C 13.72 10.72 18.67 7.76 23.86 5.68 M 17.47 9.93 C 17.98 10.39 18.48 10.84 18.99 11.30 C 22.21 7.73 27.51 7.28 32.04 7.16 C 39.83 6.88 47.76 10.77 51.98 17.38 C 52.47 16.91 52.96 16.44 53.45 15.96 C 51.67 15.47 50.32 14.18 49.01 12.97 C 44.30 8.35 37.54 6.03 30.99 6.44 C 26.21 6.21 21.94 8.65 17.47 9.93 Z" />
</g>
<g id="#c8c8c8ff">
<path fill="#c8c8c8" opacity="1.00" d=" M 17.14 10.09 C 17.07 10.76 16.93 12.12 16.86 12.80 C 12.09 16.48 8.65 21.81 7.72 27.80 C 6.04 34.38 8.37 41.28 12.26 46.62 C 16.80 52.83 24.34 56.47 32.05 55.96 C 39.69 56.48 47.15 52.80 51.69 46.69 C 55.59 41.31 57.99 34.37 56.28 27.74 C 55.72 24.14 53.98 20.89 52.17 17.77 C 52.88 17.85 54.31 18.01 55.02 18.08 C 55.63 18.82 56.24 19.55 56.82 20.31 C 62.29 30.77 58.97 44.61 50.13 52.21 C 42.46 59.35 30.50 61.20 20.99 56.86 C 10.06 52.10 3.00 39.80 4.78 27.95 C 5.58 23.39 6.95 18.59 10.22 15.16 C 12.44 13.37 14.81 11.75 17.14 10.09 Z" />
</g>
<g id="#a7a7a7ff">
<path fill="#a7a7a7" opacity="1.00" d=" M 29.99 11.08 C 30.78 11.05 32.37 10.97 33.17 10.94 C 33.14 12.63 33.12 14.32 33.07 16.02 C 32.62 18.57 32.13 21.12 31.61 23.65 C 31.05 21.53 30.48 19.41 30.02 17.26 C 29.97 15.20 29.99 13.14 29.99 11.08 Z" />
</g>
<g id="#9c9c9cff">
<path fill="#9c9c9c" opacity="1.00" d=" M 37.24 19.02 C 38.30 19.21 39.36 19.44 40.40 19.69 C 39.07 22.13 37.69 24.55 36.28 26.95 C 35.25 26.44 34.22 25.92 33.26 25.28 C 34.51 23.15 35.62 20.90 37.24 19.02 Z" />
</g>
<g id="#e2e2e2ff">
<path fill="#e2e2e2" opacity="1.00" d=" M 7.65 29.94 C 8.60 29.07 9.55 28.19 10.49 27.30 C 16.68 30.12 23.30 31.75 29.97 33.02 C 30.96 32.99 31.95 32.95 32.94 32.85 C 40.08 31.94 47.17 30.42 53.66 27.21 C 54.53 28.16 55.39 29.11 56.26 30.05 C 56.27 29.47 56.28 28.32 56.28 27.74 C 57.99 34.37 55.59 41.31 51.69 46.69 C 46.86 45.65 41.90 45.48 36.98 45.69 C 28.74 46.01 20.41 44.93 12.26 46.62 C 8.37 41.28 6.04 34.38 7.72 27.80 C 7.71 28.33 7.67 29.41 7.65 29.94 Z" />
</g>
<g id="#d4d4d4ff">
<path fill="#d4d4d4" opacity="1.00" d=" M 12.26 46.62 C 20.41 44.93 28.74 46.01 36.98 45.69 C 41.90 45.48 46.86 45.65 51.69 46.69 C 47.15 52.80 39.69 56.48 32.05 55.96 C 24.34 56.47 16.80 52.83 12.26 46.62 Z" />
</g>
</svg>
