<?xml version="1.0" encoding="UTF-8" ?>
<!DOCTYPE svg PUBLIC "-//W3C//DTD SVG 1.1//EN" "http://www.w3.org/Graphics/SVG/1.1/DTD/svg11.dtd">
<svg width="64pt" height="64pt" viewBox="0 0 64 64" version="1.1" xmlns="http://www.w3.org/2000/svg">
<g id="#636363dc">
<path fill="#636363" opacity="0.86" d=" M 13.19 10.17 C 21.53 2.89 34.14 1.06 44.13 5.88 C 54.18 10.38 60.93 21.08 60.84 32.06 C 60.87 41.00 56.48 49.82 49.32 55.17 C 45.89 57.32 42.20 59.05 38.36 60.33 C 30.97 61.64 22.90 60.85 16.60 56.49 C 5.15 49.60 -0.53 33.46 5.62 21.35 C 5.29 26.58 3.59 31.82 5.00 37.06 C 7.48 50.26 20.56 60.44 34.01 59.20 C 46.10 58.43 56.79 48.81 59.03 36.93 C 60.05 31.33 59.67 25.20 56.83 20.15 C 53.19 12.89 46.59 7.14 38.60 5.26 C 28.14 2.35 16.61 6.90 10.00 15.30 C 8.65 16.97 7.68 18.96 6.08 20.44 C 6.93 16.26 10.18 12.99 13.19 10.17 Z" />
</g>
<g id="#f9f9f9ff">
<path fill="#f9f9f9" opacity="1.00" d=" M 10.00 15.30 C 16.61 6.90 28.14 2.35 38.60 5.26 C 46.59 7.14 53.19 12.89 56.83 20.15 C 56.59 20.14 56.09 20.12 55.85 20.11 C 54.78 18.86 53.91 17.33 52.24 16.78 C 53.59 20.49 55.64 23.96 56.30 27.90 C 56.17 28.45 55.91 29.55 55.78 30.10 C 55.25 29.11 54.73 28.12 54.21 27.13 C 51.46 27.82 48.84 29.01 46.57 30.72 C 42.23 29.54 37.69 30.27 33.26 30.00 C 33.32 27.19 33.51 24.31 32.49 21.62 C 32.82 18.44 32.99 15.22 32.80 12.02 L 32.84 11.23 C 32.15 11.16 30.78 11.03 30.10 10.96 C 30.01 12.26 29.97 13.56 30.00 14.85 C 30.21 17.86 30.54 20.86 30.55 23.87 L 30.49 23.64 C 29.87 26.69 29.86 29.81 29.90 32.91 C 23.16 31.56 16.37 30.29 10.23 27.03 C 9.54 27.98 8.84 28.94 8.14 29.89 C 8.03 29.39 7.79 28.39 7.68 27.89 C 8.57 21.25 12.97 16.05 17.68 11.65 L 17.81 9.83 C 14.85 11.13 13.37 14.90 10.00 15.30 M 22.05 8.11 C 20.49 8.89 18.42 9.34 17.78 11.21 C 26.38 6.18 37.80 5.61 46.13 11.52 C 48.74 12.99 50.17 16.11 53.11 16.99 C 46.44 7.28 32.83 3.52 22.05 8.11 Z" />
</g>
<g id="#929292ff">
<path fill="#929292" opacity="1.00" d=" M 22.05 8.11 C 32.83 3.52 46.44 7.28 53.11 16.99 C 50.17 16.11 48.74 12.99 46.13 11.52 C 37.80 5.61 26.38 6.18 17.78 11.21 C 18.42 9.34 20.49 8.89 22.05 8.11 Z" />
<path fill="#929292" opacity="1.00" d=" M 31.68 28.11 C 31.63 25.92 31.64 23.68 32.49 21.62 C 33.51 24.31 33.32 27.19 33.26 30.00 C 37.69 30.27 42.23 29.54 46.57 30.72 C 46.35 32.39 45.47 33.26 43.94 33.33 C 39.27 33.56 34.51 33.80 29.90 32.91 C 29.86 29.81 29.87 26.69 30.49 23.64 L 30.55 23.87 C 30.94 25.28 31.31 26.70 31.68 28.11 Z" />
</g>
<g id="#ccccccff">
<path fill="#cccccc" opacity="1.00" d=" M 10.00 15.30 C 13.37 14.90 14.85 11.13 17.81 9.83 L 17.68 11.65 C 12.97 16.05 8.57 21.25 7.68 27.89 C 6.21 34.47 8.47 41.44 12.43 46.73 C 17.15 53.10 25.06 56.78 32.99 55.87 C 40.34 56.31 47.26 52.49 51.57 46.69 C 55.52 41.40 57.79 34.46 56.30 27.90 C 55.64 23.96 53.59 20.49 52.24 16.78 C 53.91 17.33 54.78 18.86 55.85 20.11 C 56.09 20.12 56.59 20.14 56.83 20.15 C 59.67 25.20 60.05 31.33 59.03 36.93 C 56.79 48.81 46.10 58.43 34.01 59.20 C 20.56 60.44 7.48 50.26 5.00 37.06 C 3.59 31.82 5.29 26.58 5.62 21.35 L 5.64 20.98 L 6.08 20.44 C 7.68 18.96 8.65 16.97 10.00 15.30 Z" />
</g>
<g id="#9b9b9bff">
<path fill="#9b9b9b" opacity="1.00" d=" M 30.10 10.96 C 30.78 11.03 32.15 11.16 32.84 11.23 L 32.80 12.02 C 32.75 14.63 33.03 17.41 31.67 19.77 C 30.35 18.48 30.13 16.60 30.00 14.85 C 29.97 13.56 30.01 12.26 30.10 10.96 Z" />
</g>
<g id="#e2e2e2ff">
<path fill="#e2e2e2" opacity="1.00" d=" M 8.14 29.89 C 8.84 28.94 9.54 27.98 10.23 27.03 C 16.37 30.29 23.16 31.56 29.90 32.91 C 34.51 33.80 39.27 33.56 43.94 33.33 C 45.47 33.26 46.35 32.39 46.57 30.72 C 48.84 29.01 51.46 27.82 54.21 27.13 C 54.73 28.12 55.25 29.11 55.78 30.10 C 55.91 29.55 56.17 28.45 56.30 27.90 C 57.79 34.46 55.52 41.40 51.57 46.69 C 49.44 46.09 47.25 45.63 45.01 45.72 C 36.01 45.90 27.00 45.86 17.99 45.78 C 16.09 45.72 14.25 46.23 12.43 46.73 C 8.47 41.44 6.21 34.47 7.68 27.89 C 7.79 28.39 8.03 29.39 8.14 29.89 Z" />
</g>
<g id="#d4d4d4ff">
<path fill="#d4d4d4" opacity="1.00" d=" M 12.43 46.73 C 14.25 46.23 16.09 45.72 17.99 45.78 C 27.00 45.86 36.01 45.90 45.01 45.72 C 47.25 45.63 49.44 46.09 51.57 46.69 C 47.26 52.49 40.34 56.31 32.99 55.87 C 25.06 56.78 17.15 53.10 12.43 46.73 Z" />
</g>
<g id="#0e0e0e4d">
<path fill="#0e0e0e" opacity="0.30" d=" M 38.36 60.33 C 42.20 59.05 45.89 57.32 49.32 55.17 C 48.26 56.30 47.05 57.27 45.82 58.19 C 46.00 58.51 46.37 59.16 46.55 59.48 C 43.87 60.15 41.13 60.68 38.36 60.33 Z" />
</g>
</svg>
