<?xml version="1.0" encoding="UTF-8" ?>
<!DOCTYPE svg PUBLIC "-//W3C//DTD SVG 1.1//EN" "http://www.w3.org/Graphics/SVG/1.1/DTD/svg11.dtd">
<svg width="64pt" height="64pt" viewBox="0 0 64 64" version="1.1" xmlns="http://www.w3.org/2000/svg">
<g id="#717171ff">
<path fill="#717171" opacity="1.00" d=" M 5.99 20.61 C 10.95 6.36 29.22 -0.57 42.82 5.39 C 55.43 10.23 63.10 24.71 60.17 37.88 C 58.42 46.24 52.85 53.81 45.15 57.63 C 40.92 59.18 36.54 60.64 31.97 60.59 C 27.53 60.62 23.25 59.24 19.12 57.76 C 11.52 54.15 5.77 46.82 4.05 38.60 C 3.69 34.31 3.61 30.00 3.89 25.71 C 4.19 24.07 4.85 22.52 5.68 21.08 C 5.79 26.09 3.72 31.00 5.00 36.01 C 7.07 50.52 22.17 61.67 36.67 58.71 C 52.65 56.33 64.08 37.62 57.57 22.52 C 54.39 13.90 46.74 7.15 37.76 5.17 C 27.61 2.71 16.54 7.24 10.23 15.37 C 8.82 17.12 7.86 19.27 5.99 20.61 Z" />
<path fill="#717171" opacity="1.00" d=" M 17.40 9.82 C 21.71 9.07 25.49 6.24 30.00 6.47 C 37.11 5.82 44.58 8.25 49.55 13.46 C 50.66 14.49 51.71 15.76 53.33 15.97 C 52.89 16.41 52.44 16.85 51.99 17.29 C 45.25 6.92 30.30 4.35 19.73 10.11 L 19.19 11.47 C 18.59 10.92 18.00 10.37 17.40 9.82 Z" />
<path fill="#717171" opacity="1.00" d=" M 30.08 38.30 C 30.53 40.13 31.00 41.94 31.48 43.76 C 32.02 42.55 32.55 41.33 33.06 40.11 C 33.13 44.06 33.58 48.04 33.02 51.98 C 32.15 52.89 31.00 52.39 29.98 52.13 C 29.88 47.52 29.99 42.91 30.08 38.30 Z" />
</g>
<g id="#f8f8f8ff">
<path fill="#f8f8f8" opacity="1.00" d=" M 10.23 15.37 C 16.54 7.24 27.61 2.71 37.76 5.17 C 46.74 7.15 54.39 13.90 57.57 22.52 C 56.64 20.99 55.70 19.47 54.79 17.93 C 54.14 17.96 52.85 18.01 52.21 18.03 C 53.40 20.09 54.57 22.17 55.56 24.34 C 51.51 30.22 43.35 29.78 37.53 32.99 C 35.22 31.74 32.96 29.97 30.20 30.02 C 30.15 30.58 30.04 31.72 29.98 32.28 C 23.11 32.27 16.74 29.65 10.36 27.45 C 9.57 28.25 8.77 29.04 7.97 29.83 C 7.93 29.31 7.85 28.28 7.81 27.77 C 8.76 21.84 12.08 16.42 16.93 12.88 C 16.96 12.16 17.03 10.73 17.06 10.01 C 14.93 11.99 12.62 13.73 10.23 15.37 M 17.40 9.82 C 18.00 10.37 18.59 10.92 19.19 11.47 L 19.73 10.11 C 30.30 4.35 45.25 6.92 51.99 17.29 C 52.44 16.85 52.89 16.41 53.33 15.97 C 51.71 15.76 50.66 14.49 49.55 13.46 C 44.58 8.25 37.11 5.82 30.00 6.47 C 25.49 6.24 21.71 9.07 17.40 9.82 Z" />
</g>
<g id="#d1d1d1ff">
<path fill="#d1d1d1" opacity="1.00" d=" M 17.06 10.01 C 17.03 10.73 16.96 12.16 16.93 12.88 C 12.08 16.42 8.76 21.84 7.81 27.77 C 6.62 32.08 7.62 36.53 8.96 40.68 C 10.31 43.39 11.58 46.70 14.35 48.18 C 18.68 48.37 23.04 47.47 27.36 48.26 C 27.93 49.47 28.51 50.68 29.08 51.89 C 29.31 51.95 29.75 52.07 29.98 52.13 C 31.00 52.39 32.15 52.89 33.02 51.98 C 33.58 48.04 33.13 44.06 33.06 40.11 C 33.07 38.30 33.05 36.50 33.05 34.69 C 33.38 34.86 34.06 35.20 34.40 35.37 C 33.18 40.37 33.73 45.54 33.55 50.63 C 34.13 50.47 34.71 50.31 35.28 50.11 C 39.42 47.71 44.21 49.69 48.68 49.23 C 51.02 48.23 52.24 45.69 53.59 43.66 C 56.66 37.76 57.67 30.74 55.56 24.34 C 54.57 22.17 53.40 20.09 52.21 18.03 C 52.85 18.01 54.14 17.96 54.79 17.93 C 55.70 19.47 56.64 20.99 57.57 22.52 C 64.08 37.62 52.65 56.33 36.67 58.71 C 22.17 61.67 7.07 50.52 5.00 36.01 C 3.72 31.00 5.79 26.09 5.68 21.08 L 5.68 20.88 L 5.99 20.61 C 7.86 19.27 8.82 17.12 10.23 15.37 C 12.62 13.73 14.93 11.99 17.06 10.01 Z" />
</g>
<g id="#e6e6e6ff">
<path fill="#e6e6e6" opacity="1.00" d=" M 55.56 24.34 C 57.67 30.74 56.66 37.76 53.59 43.66 C 47.58 41.90 41.26 42.73 35.11 42.97 C 35.16 45.35 35.22 47.73 35.28 50.11 C 34.71 50.31 34.13 50.47 33.55 50.63 C 33.73 45.54 33.18 40.37 34.40 35.37 C 34.87 35.61 35.80 36.08 36.27 36.31 C 38.56 37.56 40.77 38.92 43.04 40.20 C 43.51 39.62 44.45 38.46 44.93 37.89 C 43.34 36.75 41.77 35.61 40.13 34.55 C 39.27 34.02 38.41 33.50 37.53 32.99 C 43.35 29.78 51.51 30.22 55.56 24.34 Z" />
</g>
<g id="#2d2d2da6">
<path fill="#2d2d2d" opacity="0.65" d=" M 4.05 38.60 C 2.21 34.59 2.75 29.85 3.89 25.71 C 3.61 30.00 3.69 34.31 4.05 38.60 Z" />
</g>
<g id="#e7e7e7ff">
<path fill="#e7e7e7" opacity="1.00" d=" M 10.36 27.45 C 16.74 29.65 23.11 32.27 29.98 32.28 C 29.91 33.42 29.86 34.57 29.84 35.71 C 29.75 37.68 29.59 39.65 29.46 41.62 C 28.27 41.45 26.75 41.15 26.99 39.32 C 21.07 39.08 14.32 37.44 8.96 40.68 C 7.62 36.53 6.62 32.08 7.81 27.77 C 7.85 28.28 7.93 29.31 7.97 29.83 C 8.77 29.04 9.57 28.25 10.36 27.45 Z" />
</g>
<g id="#989898ff">
<path fill="#989898" opacity="1.00" d=" M 30.20 30.02 C 32.96 29.97 35.22 31.74 37.53 32.99 C 38.41 33.50 39.27 34.02 40.13 34.55 C 38.84 35.13 37.56 35.72 36.27 36.31 C 35.80 36.08 34.87 35.61 34.40 35.37 C 34.06 35.20 33.38 34.86 33.05 34.69 C 33.05 36.50 33.07 38.30 33.06 40.11 C 32.55 41.33 32.02 42.55 31.48 43.76 C 31.00 41.94 30.53 40.13 30.08 38.30 C 30.02 37.65 29.90 36.36 29.84 35.71 C 29.86 34.57 29.91 33.42 29.98 32.28 C 30.04 31.72 30.15 30.58 30.20 30.02 Z" />
</g>
<g id="#6e6e6eff">
<path fill="#6e6e6e" opacity="1.00" d=" M 36.27 36.31 C 37.56 35.72 38.84 35.13 40.13 34.55 C 41.77 35.61 43.34 36.75 44.93 37.89 C 44.45 38.46 43.51 39.62 43.04 40.20 C 40.77 38.92 38.56 37.56 36.27 36.31 Z" />
</g>
<g id="#dcdcdcff">
<path fill="#dcdcdc" opacity="1.00" d=" M 29.46 41.62 C 29.59 39.65 29.75 37.68 29.84 35.71 C 29.90 36.36 30.02 37.65 30.08 38.30 C 29.99 42.91 29.88 47.52 29.98 52.13 C 29.75 52.07 29.31 51.95 29.08 51.89 C 28.51 50.68 27.93 49.47 27.36 48.26 C 23.04 47.47 18.68 48.37 14.35 48.18 C 11.58 46.70 10.31 43.39 8.96 40.68 C 14.32 37.44 21.07 39.08 26.99 39.32 C 26.75 41.15 28.27 41.45 29.46 41.62 Z" />
</g>
<g id="#d9d9d9ff">
<path fill="#d9d9d9" opacity="1.00" d=" M 35.11 42.97 C 41.26 42.73 47.58 41.90 53.59 43.66 C 52.24 45.69 51.02 48.23 48.68 49.23 C 44.21 49.69 39.42 47.71 35.28 50.11 C 35.22 47.73 35.16 45.35 35.11 42.97 Z" />
</g>
<g id="#15151579">
<path fill="#151515" opacity="0.47" d=" M 19.12 57.76 C 23.25 59.24 27.53 60.62 31.97 60.59 C 36.54 60.64 40.92 59.18 45.15 57.63 C 43.39 60.20 39.89 60.30 37.14 61.05 C 31.32 61.63 25.11 61.63 19.76 58.93 L 19.12 57.76 Z" />
</g>
</svg>
