<?xml version="1.0" encoding="UTF-8" ?>
<!DOCTYPE svg PUBLIC "-//W3C//DTD SVG 1.1//EN" "http://www.w3.org/Graphics/SVG/1.1/DTD/svg11.dtd">
<svg width="64pt" height="64pt" viewBox="0 0 64 64" version="1.1" xmlns="http://www.w3.org/2000/svg">
<g id="#757575ff">
<path fill="#757575" opacity="1.00" d=" M 7.74 16.62 C 13.89 6.61 26.61 1.28 38.07 3.92 C 49.91 6.32 59.49 16.92 60.56 28.97 C 61.81 39.47 56.67 50.50 47.69 56.12 C 44.84 57.92 41.70 59.19 38.53 60.27 C 38.05 60.31 37.08 60.38 36.60 60.42 C 33.31 60.03 29.97 59.83 26.76 58.95 C 34.81 59.94 43.46 58.14 49.60 52.60 C 58.69 45.11 62.40 31.05 56.75 20.49 C 55.54 18.60 54.47 16.63 53.49 14.62 C 51.75 13.36 50.25 11.84 48.63 10.44 C 42.23 5.27 33.30 3.25 25.34 5.48 C 19.30 6.80 14.30 10.82 10.22 15.30 C 7.18 18.45 6.05 22.82 4.83 26.90 C 3.85 29.94 3.00 33.10 3.37 36.33 C 2.64 29.52 3.95 22.39 7.74 16.62 Z" />
<path fill="#757575" opacity="1.00" d=" M 31.65 23.06 C 31.44 20.59 31.62 18.10 33.14 16.03 C 33.20 20.88 33.22 25.74 33.22 30.60 C 32.12 30.85 31.01 31.11 29.91 31.37 C 30.00 26.64 30.00 21.90 30.03 17.17 C 30.60 19.12 31.16 21.08 31.65 23.06 Z" />
</g>
<g id="#f9f9f9ff">
<path fill="#f9f9f9" opacity="1.00" d=" M 25.34 5.48 C 33.30 3.25 42.23 5.27 48.63 10.44 C 50.25 11.84 51.75 13.36 53.49 14.62 C 54.47 16.63 55.54 18.60 56.75 20.49 C 56.12 19.70 55.45 18.93 54.80 18.16 C 54.14 18.07 52.82 17.90 52.17 17.81 C 54.28 20.98 55.76 24.52 56.31 28.31 C 56.08 28.61 55.60 29.22 55.36 29.53 C 54.77 28.78 54.18 28.02 53.59 27.27 C 48.31 29.45 42.76 30.84 37.52 33.12 L 37.12 32.88 C 35.82 32.12 34.52 31.35 33.22 30.60 C 33.22 25.74 33.20 20.88 33.14 16.03 C 33.18 14.34 33.14 12.65 33.10 10.96 C 32.33 10.98 30.80 11.02 30.03 11.05 C 29.99 13.09 29.97 15.13 30.03 17.17 C 30.00 21.90 30.00 26.64 29.91 31.37 L 29.93 32.73 C 23.15 31.59 16.46 30.09 10.24 27.08 C 9.50 28.02 8.76 28.96 8.02 29.90 C 7.94 29.40 7.78 28.39 7.71 27.89 C 8.70 21.94 11.93 16.34 16.92 12.87 C 16.97 12.16 17.06 10.75 17.10 10.04 C 14.99 12.02 12.82 13.99 10.22 15.30 C 14.30 10.82 19.30 6.80 25.34 5.48 M 25.10 7.18 C 22.45 7.78 20.21 9.68 17.42 9.72 C 18.02 10.32 18.62 10.92 19.22 11.52 L 19.69 10.17 C 30.31 4.27 45.45 7.05 52.17 17.46 C 53.04 16.52 52.22 15.52 51.63 14.70 C 49.79 13.87 48.51 12.29 46.95 11.08 C 40.79 6.44 32.49 5.34 25.10 7.18 Z" />
</g>
<g id="#787878ff">
<path fill="#787878" opacity="1.00" d=" M 25.10 7.18 C 32.49 5.34 40.79 6.44 46.95 11.08 C 48.51 12.29 49.79 13.87 51.63 14.70 C 52.22 15.52 53.04 16.52 52.17 17.46 C 45.45 7.05 30.31 4.27 19.69 10.17 L 19.22 11.52 C 18.62 10.92 18.02 10.32 17.42 9.72 C 20.21 9.68 22.45 7.78 25.10 7.18 Z" />
<path fill="#787878" opacity="1.00" d=" M 33.54 34.75 C 34.73 34.13 35.93 33.51 37.12 32.88 L 37.52 33.12 C 40.05 34.59 42.68 35.95 44.89 37.90 C 44.29 38.69 43.68 39.48 43.08 40.27 C 39.88 38.47 36.75 36.54 33.54 34.75 Z" />
</g>
<g id="#c8c8c8ff">
<path fill="#c8c8c8" opacity="1.00" d=" M 17.10 10.04 C 17.06 10.75 16.97 12.16 16.92 12.87 C 11.93 16.34 8.70 21.94 7.71 27.89 C 6.30 32.93 7.84 38.12 9.80 42.78 C 10.57 44.18 11.41 45.54 12.37 46.83 C 16.99 52.84 24.44 56.47 32.06 55.94 C 39.63 56.47 47.06 52.86 51.61 46.85 C 53.54 44.42 54.99 41.63 55.85 38.65 C 56.57 35.44 56.92 32.17 57.34 28.92 C 57.09 28.76 56.57 28.46 56.31 28.31 C 55.76 24.52 54.28 20.98 52.17 17.81 C 52.82 17.90 54.14 18.07 54.80 18.16 C 55.45 18.93 56.12 19.70 56.75 20.49 C 62.40 31.05 58.69 45.11 49.60 52.60 C 43.46 58.14 34.81 59.94 26.76 58.95 C 19.18 57.20 12.01 52.64 8.22 45.71 C 4.79 40.11 3.63 33.33 4.83 26.90 C 6.05 22.82 7.18 18.45 10.22 15.30 C 12.82 13.99 14.99 12.02 17.10 10.04 Z" />
</g>
<g id="#a8a8a8ff">
<path fill="#a8a8a8" opacity="1.00" d=" M 30.03 11.05 C 30.80 11.02 32.33 10.98 33.10 10.96 C 33.14 12.65 33.18 14.34 33.14 16.03 C 31.62 18.10 31.44 20.59 31.65 23.06 C 31.16 21.08 30.60 19.12 30.03 17.17 C 29.97 15.13 29.99 13.09 30.03 11.05 Z" />
</g>
<g id="#535353dd">
<path fill="#535353" opacity="0.87" d=" M 3.37 36.33 C 3.00 33.10 3.85 29.94 4.83 26.90 C 3.63 33.33 4.79 40.11 8.22 45.71 C 12.01 52.64 19.18 57.20 26.76 58.95 C 29.97 59.83 33.31 60.03 36.60 60.42 C 21.24 63.90 5.34 51.65 3.37 36.33 Z" />
</g>
<g id="#e6e6e6ff">
<path fill="#e6e6e6" opacity="1.00" d=" M 8.02 29.90 C 8.76 28.96 9.50 28.02 10.24 27.08 C 16.46 30.09 23.15 31.59 29.93 32.73 C 31.14 33.40 32.34 34.08 33.54 34.75 C 36.75 36.54 39.88 38.47 43.08 40.27 C 43.68 39.48 44.29 38.69 44.89 37.90 C 42.68 35.95 40.05 34.59 37.52 33.12 C 42.76 30.84 48.31 29.45 53.59 27.27 C 54.18 28.02 54.77 28.78 55.36 29.53 C 55.60 29.22 56.08 28.61 56.31 28.31 C 56.57 28.46 57.09 28.76 57.34 28.92 C 56.92 32.17 56.57 35.44 55.85 38.65 C 53.26 38.35 50.64 37.84 48.03 38.21 C 45.92 38.94 44.47 41.29 42.04 41.06 C 33.02 40.80 24.00 40.70 14.99 40.80 C 13.02 40.65 11.36 41.75 9.80 42.78 C 7.84 38.12 6.30 32.93 7.71 27.89 C 7.78 28.39 7.94 29.40 8.02 29.90 Z" />
</g>
<g id="#979797ff">
<path fill="#979797" opacity="1.00" d=" M 29.91 31.37 C 31.01 31.11 32.12 30.85 33.22 30.60 C 34.52 31.35 35.82 32.12 37.12 32.88 C 35.93 33.51 34.73 34.13 33.54 34.75 C 32.34 34.08 31.14 33.40 29.93 32.73 L 29.91 31.37 Z" />
</g>
<g id="#dcdcdcff">
<path fill="#dcdcdc" opacity="1.00" d=" M 42.04 41.06 C 44.47 41.29 45.92 38.94 48.03 38.21 C 50.64 37.84 53.26 38.35 55.85 38.65 C 54.99 41.63 53.54 44.42 51.61 46.85 C 45.18 45.28 38.53 46.36 31.99 46.09 C 25.45 46.37 18.80 45.18 12.37 46.83 C 11.41 45.54 10.57 44.18 9.80 42.78 C 11.36 41.75 13.02 40.65 14.99 40.80 C 24.00 40.70 33.02 40.80 42.04 41.06 Z" />
</g>
<g id="#d4d4d4ff">
<path fill="#d4d4d4" opacity="1.00" d=" M 12.37 46.83 C 18.80 45.18 25.45 46.37 31.99 46.09 C 38.53 46.36 45.18 45.28 51.61 46.85 C 47.06 52.86 39.63 56.47 32.06 55.94 C 24.44 56.47 16.99 52.84 12.37 46.83 Z" />
</g>
<g id="#01010120">
<path fill="#010101" opacity="0.13" d=" M 38.53 60.27 C 41.70 59.19 44.84 57.92 47.69 56.12 C 48.29 57.32 48.90 58.52 49.52 59.71 C 46.01 60.67 42.02 61.71 38.53 60.27 Z" />
</g>
</svg>
