<?xml version="1.0" encoding="UTF-8" ?>
<!DOCTYPE svg PUBLIC "-//W3C//DTD SVG 1.1//EN" "http://www.w3.org/Graphics/SVG/1.1/DTD/svg11.dtd">
<svg width="64pt" height="64pt" viewBox="0 0 64 64" version="1.1" xmlns="http://www.w3.org/2000/svg">
<g id="#727272ff">
<path fill="#727272" opacity="1.00" d=" M 7.30 17.51 C 13.72 5.59 29.46 0.13 41.99 5.07 C 51.05 8.34 58.07 16.47 60.09 25.87 C 59.98 29.64 60.29 33.50 59.30 37.19 C 59.59 31.53 59.71 25.45 56.79 20.39 C 52.96 12.61 45.55 6.61 36.96 5.03 C 26.18 2.71 14.77 8.27 8.90 17.38 C 8.50 17.41 7.70 17.48 7.30 17.51 Z" />
<path fill="#727272" opacity="1.00" d=" M 31.47 43.07 C 32.02 40.92 32.62 38.78 33.13 36.62 C 33.18 41.74 33.45 46.87 33.22 51.99 C 32.71 52.22 31.69 52.67 31.18 52.90 C 28.80 50.62 30.43 46.71 29.95 43.73 C 30.01 41.70 30.01 39.66 29.98 37.63 C 30.42 39.46 30.95 41.27 31.47 43.07 Z" />
</g>
<g id="#f8f8f8ff">
<path fill="#f8f8f8" opacity="1.00" d=" M 8.90 17.38 C 14.77 8.27 26.18 2.71 36.96 5.03 C 45.55 6.61 52.96 12.61 56.79 20.39 C 56.16 19.63 55.51 18.90 54.86 18.16 C 54.18 18.07 52.81 17.89 52.13 17.80 C 53.40 19.86 54.63 21.95 55.55 24.18 C 54.04 28.04 49.48 28.61 46.26 30.49 C 40.98 29.73 35.60 30.08 30.28 30.18 C 30.19 30.65 30.02 31.58 29.93 32.05 C 23.08 32.50 16.83 29.54 10.50 27.46 C 9.70 28.19 8.89 28.92 8.08 29.65 C 7.98 29.20 7.79 28.32 7.69 27.88 C 8.30 23.94 10.18 20.37 12.18 16.98 C 11.09 17.13 9.99 17.26 8.90 17.38 M 10.68 17.06 C 13.57 16.55 14.74 13.42 17.15 12.05 C 27.45 4.03 44.97 6.08 51.77 17.55 C 52.38 16.94 52.99 16.34 53.59 15.73 C 51.71 16.11 51.00 14.15 49.78 13.23 C 45.04 8.77 38.59 5.94 32.01 6.28 C 23.63 5.83 15.66 10.52 10.68 17.06 Z" />
</g>
<g id="#929292ff">
<path fill="#929292" opacity="1.00" d=" M 10.68 17.06 C 15.66 10.52 23.63 5.83 32.01 6.28 C 38.59 5.94 45.04 8.77 49.78 13.23 C 51.00 14.15 51.71 16.11 53.59 15.73 C 52.99 16.34 52.38 16.94 51.77 17.55 C 44.97 6.08 27.45 4.03 17.15 12.05 C 14.74 13.42 13.57 16.55 10.68 17.06 Z" />
<path fill="#929292" opacity="1.00" d=" M 30.28 30.18 C 35.60 30.08 40.98 29.73 46.26 30.49 C 46.15 31.11 45.93 32.34 45.82 32.96 C 41.70 33.94 37.38 33.33 33.19 33.37 C 32.37 33.20 30.72 32.85 29.90 32.68 L 29.93 32.05 C 30.02 31.58 30.19 30.65 30.28 30.18 Z" />
</g>
<g id="#c7c7c7ff">
<path fill="#c7c7c7" opacity="1.00" d=" M 7.32 17.89 C 7.31 17.80 7.31 17.61 7.30 17.51 C 7.70 17.48 8.50 17.41 8.90 17.38 C 9.99 17.26 11.09 17.13 12.18 16.98 C 10.18 20.37 8.30 23.94 7.69 27.88 C 6.49 32.19 7.58 36.63 8.88 40.77 C 9.91 43.37 11.41 45.75 13.23 47.86 C 17.78 53.38 24.88 56.42 32.02 55.96 C 39.10 56.35 46.29 53.48 50.65 47.79 C 56.37 41.55 58.48 32.19 55.55 24.18 C 54.63 21.95 53.40 19.86 52.13 17.80 C 52.81 17.89 54.18 18.07 54.86 18.16 C 55.51 18.90 56.16 19.63 56.79 20.39 C 59.71 25.45 59.59 31.53 59.30 37.19 C 57.03 47.75 48.53 56.55 37.92 58.82 C 30.80 59.97 23.18 58.91 17.13 54.82 C 8.92 49.55 3.84 39.74 4.51 29.98 C 4.51 26.11 6.11 22.54 7.36 18.96 L 7.32 17.89 Z" />
</g>
<g id="#666666ea">
<path fill="#666666" opacity="0.92" d=" M 4.69 22.77 C 5.38 21.07 5.82 19.10 7.32 17.89 L 7.36 18.96 C 6.11 22.54 4.51 26.11 4.51 29.98 C 3.84 39.74 8.92 49.55 17.13 54.82 C 23.18 58.91 30.80 59.97 37.92 58.82 C 37.61 59.08 37.01 59.59 36.71 59.84 C 30.83 60.71 25.04 59.38 19.37 57.97 C 10.91 54.05 4.81 45.58 3.49 36.37 C 3.49 31.82 3.60 27.22 4.69 22.77 Z" />
</g>
<g id="#2b2b2b98">
<path fill="#2b2b2b" opacity="0.60" d=" M 3.49 36.37 C 2.34 31.86 2.96 27.05 4.69 22.77 C 3.60 27.22 3.49 31.82 3.49 36.37 Z" />
</g>
<g id="#e2e2e2ff">
<path fill="#e2e2e2" opacity="1.00" d=" M 55.55 24.18 C 58.48 32.19 56.37 41.55 50.65 47.79 C 45.94 46.12 40.90 46.47 36.00 46.71 C 35.40 48.30 34.81 49.91 34.15 51.48 C 33.91 51.61 33.45 51.86 33.22 51.99 C 33.45 46.87 33.18 41.74 33.13 36.62 C 33.15 35.54 33.17 34.45 33.19 33.37 C 37.38 33.33 41.70 33.94 45.82 32.96 C 45.93 32.34 46.15 31.11 46.26 30.49 C 49.48 28.61 54.04 28.04 55.55 24.18 Z" />
</g>
<g id="#4c4c4ccf">
<path fill="#4c4c4c" opacity="0.81" d=" M 60.09 25.87 C 63.50 38.64 56.15 52.84 44.30 58.33 C 36.59 62.01 26.86 62.30 19.37 57.97 C 25.04 59.38 30.83 60.71 36.71 59.84 C 37.01 59.59 37.61 59.08 37.92 58.82 C 48.53 56.55 57.03 47.75 59.30 37.19 C 60.29 33.50 59.98 29.64 60.09 25.87 Z" />
</g>
<g id="#e7e7e7ff">
<path fill="#e7e7e7" opacity="1.00" d=" M 10.50 27.46 C 16.83 29.54 23.08 32.50 29.93 32.05 L 29.90 32.68 C 29.91 34.03 29.93 35.38 29.95 36.72 C 29.63 38.35 29.24 39.96 28.86 41.57 C 28.14 40.75 27.44 39.93 26.73 39.11 C 20.85 39.17 14.10 37.34 8.88 40.77 C 7.58 36.63 6.49 32.19 7.69 27.88 C 7.79 28.32 7.98 29.20 8.08 29.65 C 8.89 28.92 9.70 28.19 10.50 27.46 Z" />
</g>
<g id="#8e8e8eff">
<path fill="#8e8e8e" opacity="1.00" d=" M 29.90 32.68 C 30.72 32.85 32.37 33.20 33.19 33.37 C 33.17 34.45 33.15 35.54 33.13 36.62 C 32.62 38.78 32.02 40.92 31.47 43.07 C 30.95 41.27 30.42 39.46 29.98 37.63 L 29.95 36.72 C 29.93 35.38 29.91 34.03 29.90 32.68 Z" />
</g>
<g id="#ddddddff">
<path fill="#dddddd" opacity="1.00" d=" M 28.86 41.57 C 29.24 39.96 29.63 38.35 29.95 36.72 L 29.98 37.63 C 30.01 39.66 30.01 41.70 29.95 43.73 C 29.52 46.14 29.05 48.55 28.67 50.97 C 28.26 49.40 27.84 47.83 27.42 46.27 C 22.76 46.22 17.11 44.50 13.23 47.86 C 11.41 45.75 9.91 43.37 8.88 40.77 C 14.10 37.34 20.85 39.17 26.73 39.11 C 27.44 39.93 28.14 40.75 28.86 41.57 Z" />
</g>
<g id="#d4d4d4ff">
<path fill="#d4d4d4" opacity="1.00" d=" M 28.67 50.97 C 29.05 48.55 29.52 46.14 29.95 43.73 C 30.43 46.71 28.80 50.62 31.18 52.90 C 31.69 52.67 32.71 52.22 33.22 51.99 C 33.45 51.86 33.91 51.61 34.15 51.48 C 34.81 49.91 35.40 48.30 36.00 46.71 C 40.90 46.47 45.94 46.12 50.65 47.79 C 46.29 53.48 39.10 56.35 32.02 55.96 C 24.88 56.42 17.78 53.38 13.23 47.86 C 17.11 44.50 22.76 46.22 27.42 46.27 C 27.84 47.83 28.26 49.40 28.67 50.97 Z" />
</g>
</svg>
