<?xml version="1.0" encoding="UTF-8" ?>
<!DOCTYPE svg PUBLIC "-//W3C//DTD SVG 1.1//EN" "http://www.w3.org/Graphics/SVG/1.1/DTD/svg11.dtd">
<svg width="64pt" height="64pt" viewBox="0 0 64 64" version="1.1" xmlns="http://www.w3.org/2000/svg">
<g id="#757575ff">
<path fill="#757575" opacity="1.00" d=" M 11.18 12.16 C 19.09 3.78 32.20 0.86 42.84 5.41 C 51.21 8.75 57.77 16.27 59.85 25.04 C 64.08 39.82 53.92 56.59 39.11 59.95 C 26.05 63.52 11.43 56.59 5.87 44.16 C 2.67 37.01 2.07 28.09 5.68 21.04 C 6.85 22.68 5.35 24.41 5.30 26.14 C 2.64 37.17 8.28 49.25 17.86 55.07 C 23.82 58.83 31.27 59.98 38.12 58.40 C 48.34 56.05 56.85 47.32 58.74 36.97 C 60.55 29.47 58.33 21.41 53.93 15.21 C 48.85 8.44 40.47 4.12 31.97 4.36 C 21.42 4.08 11.14 10.78 7.05 20.50 L 6.17 20.53 C 6.43 17.28 9.22 14.68 11.18 12.16 Z" />
<path fill="#757575" opacity="1.00" d=" M 30.29 11.72 L 31.10 10.77 C 31.19 15.21 31.45 19.64 31.47 24.09 C 31.66 19.63 31.80 15.14 31.22 10.70 L 32.79 11.33 C 32.86 17.95 33.36 24.56 33.13 31.18 C 32.09 31.11 31.04 31.08 30.00 31.13 C 29.90 24.66 30.08 18.18 30.29 11.72 Z" />
</g>
<g id="#d1d1d1ff">
<path fill="#d1d1d1" opacity="1.00" d=" M 7.05 20.50 C 11.14 10.78 21.42 4.08 31.97 4.36 C 40.47 4.12 48.85 8.44 53.93 15.21 C 58.33 21.41 60.55 29.47 58.74 36.97 C 56.85 47.32 48.34 56.05 38.12 58.40 C 31.27 59.98 23.82 58.83 17.86 55.07 C 8.28 49.25 2.64 37.17 5.30 26.14 C 5.35 24.41 6.85 22.68 5.68 21.04 L 5.47 20.53 L 6.17 20.53 L 7.05 20.50 M 18.10 10.37 L 18.29 11.46 C 13.02 15.68 8.24 21.43 7.91 28.47 C 6.61 29.12 7.44 30.98 7.21 32.09 C 7.54 36.06 8.53 40.00 10.31 43.58 L 10.71 43.50 C 11.50 45.90 13.19 47.98 15.30 49.34 C 23.51 48.43 31.77 49.25 40.00 48.87 C 42.91 48.74 45.77 49.38 48.67 49.40 C 52.22 46.86 54.41 42.80 55.76 38.73 C 55.98 35.77 57.81 32.21 56.30 29.50 C 56.08 25.54 54.59 21.82 52.66 18.41 C 52.62 17.94 52.55 17.00 52.51 16.53 C 44.81 6.01 28.99 3.20 18.10 10.37 Z" />
</g>
<g id="#a0a0a0ff">
<path fill="#a0a0a0" opacity="1.00" d=" M 18.10 10.37 C 28.99 3.20 44.81 6.01 52.51 16.53 C 52.55 17.00 52.62 17.94 52.66 18.41 C 45.81 7.07 29.03 3.77 18.29 11.46 L 18.10 10.37 Z" />
<path fill="#a0a0a0" opacity="1.00" d=" M 30.00 31.13 C 31.04 31.08 32.09 31.11 33.13 31.18 C 33.17 34.12 30.68 36.27 29.72 38.93 L 29.38 38.86 C 28.66 37.77 27.49 37.26 26.22 37.58 C 27.06 35.96 27.97 34.38 28.91 32.81 C 29.18 32.39 29.73 31.55 30.00 31.13 Z" />
</g>
<g id="#f9f9f9ff">
<path fill="#f9f9f9" opacity="1.00" d=" M 18.29 11.46 C 29.03 3.77 45.81 7.07 52.66 18.41 C 54.59 21.82 56.08 25.54 56.30 29.50 C 55.04 28.62 53.64 27.00 51.97 27.88 C 46.21 30.11 40.28 32.36 34.00 32.18 C 33.31 27.47 33.63 22.70 33.88 17.97 C 33.89 15.73 34.22 13.25 32.79 11.33 L 31.22 10.70 C 31.80 15.14 31.66 19.63 31.47 24.09 C 31.45 19.64 31.19 15.21 31.10 10.77 L 30.29 11.72 C 30.08 18.18 29.90 24.66 30.00 31.13 C 29.73 31.55 29.18 32.39 28.91 32.81 C 22.38 31.32 15.88 29.68 9.85 26.70 C 9.21 27.30 8.64 27.98 7.91 28.47 C 8.24 21.43 13.02 15.68 18.29 11.46 Z" />
</g>
<g id="#e7e7e7ff">
<path fill="#e7e7e7" opacity="1.00" d=" M 32.79 11.33 C 34.22 13.25 33.89 15.73 33.88 17.97 C 33.63 22.70 33.31 27.47 34.00 32.18 C 40.28 32.36 46.21 30.11 51.97 27.88 C 53.64 27.00 55.04 28.62 56.30 29.50 C 57.81 32.21 55.98 35.77 55.76 38.73 C 49.51 37.84 43.20 38.34 36.92 38.17 C 34.47 37.94 32.14 39.38 29.72 38.93 C 30.68 36.27 33.17 34.12 33.13 31.18 C 33.36 24.56 32.86 17.95 32.79 11.33 Z" />
</g>
<g id="#e6e6e6ff">
<path fill="#e6e6e6" opacity="1.00" d=" M 9.85 26.70 C 15.88 29.68 22.38 31.32 28.91 32.81 C 27.97 34.38 27.06 35.96 26.22 37.58 C 25.34 39.28 24.32 40.91 23.37 42.57 C 21.76 43.69 19.78 42.71 18.01 42.71 C 15.54 42.31 13.08 42.83 10.71 43.50 L 10.31 43.58 C 8.53 40.00 7.54 36.06 7.21 32.09 C 7.44 30.98 6.61 29.12 7.91 28.47 C 8.64 27.98 9.21 27.30 9.85 26.70 Z" />
</g>
<g id="#6f6f6fff">
<path fill="#6f6f6f" opacity="1.00" d=" M 26.22 37.58 C 27.49 37.26 28.66 37.77 29.38 38.86 C 28.07 40.75 27.48 43.24 25.58 44.65 C 24.36 44.65 23.57 43.70 23.37 42.57 C 24.32 40.91 25.34 39.28 26.22 37.58 Z" />
</g>
<g id="#dbdbdbff">
<path fill="#dbdbdb" opacity="1.00" d=" M 29.72 38.93 C 32.14 39.38 34.47 37.94 36.92 38.17 C 43.20 38.34 49.51 37.84 55.76 38.73 C 54.41 42.80 52.22 46.86 48.67 49.40 C 45.77 49.38 42.91 48.74 40.00 48.87 C 31.77 49.25 23.51 48.43 15.30 49.34 C 13.19 47.98 11.50 45.90 10.71 43.50 C 13.08 42.83 15.54 42.31 18.01 42.71 C 19.78 42.71 21.76 43.69 23.37 42.57 C 23.57 43.70 24.36 44.65 25.58 44.65 C 27.48 43.24 28.07 40.75 29.38 38.86 L 29.72 38.93 Z" />
</g>
</svg>
