<?xml version="1.0" encoding="UTF-8" ?>
<!DOCTYPE svg PUBLIC "-//W3C//DTD SVG 1.1//EN" "http://www.w3.org/Graphics/SVG/1.1/DTD/svg11.dtd">
<svg width="64pt" height="64pt" viewBox="0 0 64 64" version="1.1" xmlns="http://www.w3.org/2000/svg">
<g id="#6d6d6dff">
<path fill="#6d6d6d" opacity="1.00" d=" M 16.69 7.69 C 25.02 2.33 36.15 1.80 44.95 6.36 C 54.48 11.02 60.87 21.37 60.74 31.98 C 60.84 40.97 56.39 49.95 49.07 55.20 C 47.01 56.59 44.78 57.72 42.55 58.82 C 42.12 58.26 41.66 57.72 41.17 57.20 C 53.90 53.55 61.76 38.86 58.87 26.12 C 57.04 16.52 49.63 8.31 40.31 5.44 C 31.84 2.90 22.09 4.38 15.11 9.96 C 6.40 16.59 2.42 28.75 5.66 39.23 C 7.35 45.41 11.46 50.67 16.63 54.35 C 16.29 54.59 15.62 55.07 15.29 55.31 L 14.95 55.55 C 12.57 53.11 9.40 51.07 8.19 47.76 C 7.88 47.33 7.26 46.48 6.94 46.06 C 6.06 44.91 5.51 43.54 5.05 42.19 C 3.66 36.80 3.25 31.19 3.89 25.67 C 5.64 18.33 10.22 11.64 16.69 7.69 Z" />
<path fill="#6d6d6d" opacity="1.00" d=" M 31.65 45.91 C 31.42 43.52 31.76 41.16 32.99 39.06 C 33.21 43.47 33.20 47.89 33.23 52.30 C 32.17 52.43 30.96 52.82 30.12 51.89 C 29.80 49.16 29.93 46.41 29.97 43.68 C 29.99 43.04 30.02 41.76 30.04 41.12 C 30.55 42.72 31.11 44.31 31.65 45.91 Z" />
</g>
<g id="#cbcbcbff">
<path fill="#cbcbcb" opacity="1.00" d=" M 15.11 9.96 C 22.09 4.38 31.84 2.90 40.31 5.44 C 49.63 8.31 57.04 16.52 58.87 26.12 C 61.76 38.86 53.90 53.55 41.17 57.20 C 41.66 57.72 42.12 58.26 42.55 58.82 L 42.14 59.03 C 38.07 58.17 34.06 59.91 29.97 59.45 C 26.21 59.31 22.78 57.23 18.97 57.49 L 18.18 57.49 C 18.31 57.28 18.56 56.86 18.69 56.64 C 17.51 56.39 15.97 56.53 15.29 55.31 C 15.62 55.07 16.29 54.59 16.63 54.35 C 11.46 50.67 7.35 45.41 5.66 39.23 C 2.42 28.75 6.40 16.59 15.11 9.96 M 17.08 11.24 C 14.72 13.18 11.72 15.12 11.21 18.38 C 9.31 21.85 7.92 25.63 7.63 29.60 L 7.27 29.96 C 7.20 32.55 7.44 35.14 7.90 37.69 C 8.81 40.89 10.31 43.87 12.10 46.66 L 12.49 46.60 C 14.87 49.84 17.94 52.65 21.73 54.14 C 26.47 56.35 31.85 56.00 36.93 55.62 C 42.44 55.10 47.28 51.80 50.71 47.59 C 55.10 42.85 57.07 36.29 56.88 29.91 L 56.46 29.55 C 56.01 25.60 54.69 21.83 52.77 18.37 C 52.38 15.32 49.63 13.50 47.48 11.66 C 38.83 4.93 25.91 4.75 17.08 11.24 Z" />
</g>
<g id="#9a9a9aff">
<path fill="#9a9a9a" opacity="1.00" d=" M 17.08 11.24 C 25.91 4.75 38.83 4.93 47.48 11.66 C 49.63 13.50 52.38 15.32 52.77 18.37 C 46.11 7.79 31.07 4.13 20.20 10.19 C 16.56 12.10 13.50 14.98 11.21 18.38 C 11.72 15.12 14.72 13.18 17.08 11.24 Z" />
<path fill="#9a9a9a" opacity="1.00" d=" M 30.05 33.41 C 30.83 33.39 32.39 33.34 33.17 33.31 C 33.16 35.23 33.09 37.15 32.99 39.06 C 31.76 41.16 31.42 43.52 31.65 45.91 C 31.11 44.31 30.55 42.72 30.04 41.12 C 29.98 39.00 29.93 36.89 29.95 34.78 C 29.97 34.43 30.03 33.75 30.05 33.41 Z" />
</g>
<g id="#f8f8f8ff">
<path fill="#f8f8f8" opacity="1.00" d=" M 20.20 10.19 C 31.07 4.13 46.11 7.79 52.77 18.37 C 54.69 21.83 56.01 25.60 56.46 29.55 C 55.14 28.55 53.61 26.77 51.84 27.92 C 46.08 30.59 39.85 31.81 33.63 32.91 C 33.51 32.41 33.27 31.41 33.15 30.91 L 32.97 30.07 C 28.32 30.18 23.66 29.90 19.01 30.10 C 17.39 29.85 16.83 31.54 16.93 32.82 C 15.90 29.78 13.64 27.68 10.47 27.06 C 9.50 27.88 8.52 28.69 7.63 29.60 C 7.92 25.63 9.31 21.85 11.21 18.38 C 13.50 14.98 16.56 12.10 20.20 10.19 Z" />
</g>
<g id="#26262695">
<path fill="#262626" opacity="0.58" d=" M 5.05 42.19 C 2.37 37.21 2.35 31.01 3.89 25.67 C 3.25 31.19 3.66 36.80 5.05 42.19 Z" />
</g>
<g id="#e8e8e8ff">
<path fill="#e8e8e8" opacity="1.00" d=" M 7.63 29.60 C 8.52 28.69 9.50 27.88 10.47 27.06 C 13.64 27.68 15.90 29.78 16.93 32.82 C 21.18 34.05 25.69 33.39 30.05 33.41 C 30.03 33.75 29.97 34.43 29.95 34.78 C 29.65 36.29 29.28 37.80 28.93 39.30 C 26.77 38.52 24.57 37.73 22.25 37.66 C 17.47 37.57 12.66 36.80 7.90 37.69 C 7.44 35.14 7.20 32.55 7.27 29.96 L 7.63 29.60 Z" />
</g>
<g id="#e2e2e2ff">
<path fill="#e2e2e2" opacity="1.00" d=" M 51.84 27.92 C 53.61 26.77 55.14 28.55 56.46 29.55 L 56.88 29.91 C 57.07 36.29 55.10 42.85 50.71 47.59 C 45.85 46.24 40.80 46.56 35.82 46.71 C 35.31 48.49 34.76 50.25 34.17 52.01 C 33.66 45.65 33.87 39.27 33.63 32.91 C 39.85 31.81 46.08 30.59 51.84 27.92 Z" />
</g>
<g id="#929292ff">
<path fill="#929292" opacity="1.00" d=" M 16.93 32.82 C 16.83 31.54 17.39 29.85 19.01 30.10 C 23.66 29.90 28.32 30.18 32.97 30.07 L 33.15 30.91 C 33.16 31.51 33.17 32.71 33.17 33.31 C 32.39 33.34 30.83 33.39 30.05 33.41 C 25.69 33.39 21.18 34.05 16.93 32.82 Z" />
</g>
<g id="#d4d4d4ff">
<path fill="#d4d4d4" opacity="1.00" d=" M 33.15 30.91 C 33.27 31.41 33.51 32.41 33.63 32.91 C 33.87 39.27 33.66 45.65 34.17 52.01 C 34.76 50.25 35.31 48.49 35.82 46.71 C 40.80 46.56 45.85 46.24 50.71 47.59 C 47.28 51.80 42.44 55.10 36.93 55.62 C 31.85 56.00 26.47 56.35 21.73 54.14 C 17.94 52.65 14.87 49.84 12.49 46.60 C 17.43 45.63 22.48 45.69 27.47 46.23 C 27.82 47.44 28.17 48.65 28.52 49.86 C 29.03 47.81 29.56 45.76 29.97 43.68 C 29.93 46.41 29.80 49.16 30.12 51.89 C 30.96 52.82 32.17 52.43 33.23 52.30 C 33.20 47.89 33.21 43.47 32.99 39.06 C 33.09 37.15 33.16 35.23 33.17 33.31 C 33.17 32.71 33.16 31.51 33.15 30.91 Z" />
</g>
<g id="#dededeff">
<path fill="#dedede" opacity="1.00" d=" M 28.93 39.30 C 29.28 37.80 29.65 36.29 29.95 34.78 C 29.93 36.89 29.98 39.00 30.04 41.12 C 30.02 41.76 29.99 43.04 29.97 43.68 C 29.56 45.76 29.03 47.81 28.52 49.86 C 28.17 48.65 27.82 47.44 27.47 46.23 C 22.48 45.69 17.43 45.63 12.49 46.60 L 12.10 46.66 C 10.31 43.87 8.81 40.89 7.90 37.69 C 12.66 36.80 17.47 37.57 22.25 37.66 C 24.57 37.73 26.77 38.52 28.93 39.30 Z" />
</g>
<g id="#2a2a2aae">
<path fill="#2a2a2a" opacity="0.68" d=" M 6.94 46.06 C 7.26 46.48 7.88 47.33 8.19 47.76 L 7.28 47.79 L 6.64 46.92 L 6.94 46.06 Z" />
</g>
<g id="#03030325">
<path fill="#030303" opacity="0.15" d=" M 42.55 58.82 C 44.78 57.72 47.01 56.59 49.07 55.20 C 48.72 56.13 48.37 57.05 48.01 57.98 C 48.56 58.59 49.10 59.21 49.65 59.82 C 46.08 60.68 42.40 61.01 38.75 60.49 C 39.95 60.16 41.08 59.68 42.14 59.03 L 42.55 58.82 Z" />
</g>
<g id="#404040d2">
<path fill="#404040" opacity="0.82" d=" M 18.97 57.49 C 22.78 57.23 26.21 59.31 29.97 59.45 C 34.06 59.91 38.07 58.17 42.14 59.03 C 41.08 59.68 39.95 60.16 38.75 60.49 C 32.18 61.56 24.46 61.73 18.97 57.49 Z" />
</g>
</svg>
