<?xml version="1.0" encoding="UTF-8" ?>
<!DOCTYPE svg PUBLIC "-//W3C//DTD SVG 1.1//EN" "http://www.w3.org/Graphics/SVG/1.1/DTD/svg11.dtd">
<svg width="64pt" height="64pt" viewBox="0 0 64 64" version="1.1" xmlns="http://www.w3.org/2000/svg">
<g id="#6e6e6eff">
<path fill="#6e6e6e" opacity="1.00" d=" M 3.89 25.79 C 6.56 12.94 18.90 3.01 32.05 3.26 C 45.15 3.05 57.40 12.94 60.08 25.73 C 60.67 31.28 60.38 36.93 58.88 42.31 C 56.58 48.24 52.36 53.49 46.83 56.70 C 44.21 58.17 41.42 59.32 38.58 60.28 C 33.95 60.28 29.13 60.88 24.59 59.93 C 22.13 58.93 19.69 57.89 17.28 56.78 C 14.10 54.93 11.20 52.49 9.07 49.47 C 8.09 47.52 7.33 45.47 6.63 43.40 C 9.22 46.80 11.58 50.47 14.97 53.15 C 21.78 58.80 31.47 60.63 39.90 58.02 C 46.01 56.21 51.25 52.04 54.84 46.82 C 60.54 38.40 61.13 26.54 55.66 17.87 C 50.96 10.89 43.54 5.61 35.05 4.67 C 25.54 3.44 16.01 8.09 10.04 15.38 C 4.88 21.38 4.14 29.78 4.64 37.37 C 3.67 33.59 3.77 29.66 3.89 25.79 Z" />
<path fill="#6e6e6e" opacity="1.00" d=" M 34.18 39.91 C 35.06 39.07 35.94 38.23 36.82 37.38 C 37.92 39.35 39.07 41.29 40.21 43.23 C 39.32 43.76 38.50 44.53 37.43 44.67 C 36.20 43.19 35.28 41.49 34.18 39.91 Z" />
</g>
<g id="#f8f8f8ff">
<path fill="#f8f8f8" opacity="1.00" d=" M 10.04 15.38 C 16.01 8.09 25.54 3.44 35.05 4.67 C 43.54 5.61 50.96 10.89 55.66 17.87 C 54.38 17.45 53.09 17.06 51.80 16.70 C 53.74 20.28 55.59 23.97 56.42 27.99 C 56.18 28.39 55.71 29.20 55.47 29.60 C 54.83 28.87 54.20 28.14 53.57 27.41 C 47.29 29.88 40.87 32.18 34.05 32.48 C 33.30 30.90 32.16 29.70 30.27 29.98 C 30.21 30.54 30.09 31.66 30.02 32.21 C 23.18 32.07 16.73 29.78 10.41 27.39 C 9.63 28.15 8.85 28.90 8.07 29.64 C 7.98 29.20 7.80 28.31 7.70 27.86 C 8.67 21.94 11.91 16.41 16.83 12.93 C 16.91 12.18 17.08 10.70 17.16 9.95 C 14.93 11.91 12.90 14.31 10.04 15.38 M 17.39 9.74 C 17.99 10.34 18.60 10.94 19.22 11.52 L 19.94 10.19 C 28.93 5.35 41.02 6.40 48.54 13.50 C 50.16 14.84 51.46 16.86 53.70 17.18 C 48.20 10.51 39.93 5.47 31.01 6.28 C 26.12 5.83 21.95 8.66 17.39 9.74 Z" />
</g>
<g id="#939393ff">
<path fill="#939393" opacity="1.00" d=" M 17.39 9.74 C 21.95 8.66 26.12 5.83 31.01 6.28 C 39.93 5.47 48.20 10.51 53.70 17.18 C 51.46 16.86 50.16 14.84 48.54 13.50 C 41.02 6.40 28.93 5.35 19.94 10.19 L 19.22 11.52 C 18.60 10.94 17.99 10.34 17.39 9.74 Z" />
<path fill="#939393" opacity="1.00" d=" M 30.27 29.98 C 32.16 29.70 33.30 30.90 34.05 32.48 C 35.01 34.10 35.89 35.75 36.82 37.38 C 35.94 38.23 35.06 39.07 34.18 39.91 C 33.96 39.61 33.52 39.01 33.30 38.71 C 33.24 39.06 33.12 39.77 33.06 40.12 C 32.59 41.34 32.10 42.55 31.60 43.75 C 31.05 42.01 30.49 40.27 30.01 38.51 C 29.95 37.26 29.90 36.01 29.87 34.77 C 29.91 34.13 29.98 32.85 30.02 32.21 C 30.09 31.66 30.21 30.54 30.27 29.98 Z" />
</g>
<g id="#c8c8c8ff">
<path fill="#c8c8c8" opacity="1.00" d=" M 17.16 9.95 C 17.08 10.70 16.91 12.18 16.83 12.93 C 11.91 16.41 8.67 21.94 7.70 27.86 C 6.94 31.19 7.18 34.64 8.00 37.93 C 8.83 41.10 10.27 44.09 12.24 46.71 C 16.70 52.44 23.64 56.31 31.03 55.95 C 38.98 56.63 47.04 53.18 51.73 46.67 C 55.52 41.33 57.82 34.54 56.42 27.99 C 55.59 23.97 53.74 20.28 51.80 16.70 C 53.09 17.06 54.38 17.45 55.66 17.87 C 61.13 26.54 60.54 38.40 54.84 46.82 C 51.25 52.04 46.01 56.21 39.90 58.02 C 31.47 60.63 21.78 58.80 14.97 53.15 C 11.58 50.47 9.22 46.80 6.63 43.40 C 5.89 41.42 5.17 39.42 4.64 37.37 C 4.14 29.78 4.88 21.38 10.04 15.38 C 12.90 14.31 14.93 11.91 17.16 9.95 Z" />
</g>
<g id="#3f3f3fb9">
<path fill="#3f3f3f" opacity="0.73" d=" M 9.07 49.47 C 3.62 43.12 1.65 33.83 3.89 25.79 C 3.77 29.66 3.67 33.59 4.64 37.37 C 5.17 39.42 5.89 41.42 6.63 43.40 C 7.33 45.47 8.09 47.52 9.07 49.47 Z" />
</g>
<g id="#2c2c2c98">
<path fill="#2c2c2c" opacity="0.60" d=" M 60.08 25.73 C 61.69 31.14 61.36 37.21 58.88 42.31 C 60.38 36.93 60.67 31.28 60.08 25.73 Z" />
</g>
<g id="#e8e8e8ff">
<path fill="#e8e8e8" opacity="1.00" d=" M 10.41 27.39 C 16.73 29.78 23.18 32.07 30.02 32.21 C 29.98 32.85 29.91 34.13 29.87 34.77 C 29.52 36.84 29.01 38.89 28.52 40.94 C 28.17 39.75 27.82 38.56 27.46 37.38 C 20.98 37.86 14.44 36.77 8.00 37.93 C 7.18 34.64 6.94 31.19 7.70 27.86 C 7.80 28.31 7.98 29.20 8.07 29.64 C 8.85 28.90 9.63 28.15 10.41 27.39 Z" />
</g>
<g id="#e4e4e4ff">
<path fill="#e4e4e4" opacity="1.00" d=" M 34.05 32.48 C 40.87 32.18 47.29 29.88 53.57 27.41 C 54.20 28.14 54.83 28.87 55.47 29.60 C 55.71 29.20 56.18 28.39 56.42 27.99 C 57.82 34.54 55.52 41.33 51.73 46.67 C 50.84 46.10 49.99 45.26 48.85 45.29 C 44.37 45.14 39.90 45.71 35.48 46.31 C 35.07 47.93 34.67 49.56 34.18 51.16 C 33.94 51.34 33.45 51.70 33.21 51.88 C 33.50 47.96 33.23 44.03 33.06 40.12 C 33.12 39.77 33.24 39.06 33.30 38.71 C 33.52 39.01 33.96 39.61 34.18 39.91 C 35.28 41.49 36.20 43.19 37.43 44.67 C 38.50 44.53 39.32 43.76 40.21 43.23 C 39.07 41.29 37.92 39.35 36.82 37.38 C 35.89 35.75 35.01 34.10 34.05 32.48 Z" />
</g>
<g id="#dededeff">
<path fill="#dedede" opacity="1.00" d=" M 28.52 40.94 C 29.01 38.89 29.52 36.84 29.87 34.77 C 29.90 36.01 29.95 37.26 30.01 38.51 C 30.03 40.26 30.01 42.01 29.96 43.76 C 29.55 45.84 29.02 47.88 28.51 49.94 C 28.18 48.39 27.85 46.85 27.52 45.30 C 23.47 45.63 19.41 45.78 15.35 45.61 C 14.16 45.40 13.20 46.15 12.24 46.71 C 10.27 44.09 8.83 41.10 8.00 37.93 C 14.44 36.77 20.98 37.86 27.46 37.38 C 27.82 38.56 28.17 39.75 28.52 40.94 Z" />
</g>
<g id="#707070ff">
<path fill="#707070" opacity="1.00" d=" M 30.01 38.51 C 30.49 40.27 31.05 42.01 31.60 43.75 C 32.10 42.55 32.59 41.34 33.06 40.12 C 33.23 44.03 33.50 47.96 33.21 51.88 C 32.87 52.10 32.21 52.54 31.88 52.77 C 31.40 52.59 30.44 52.24 29.97 52.06 C 29.98 49.29 29.94 46.53 29.96 43.76 C 30.01 42.01 30.03 40.26 30.01 38.51 Z" />
</g>
<g id="#d4d4d4ff">
<path fill="#d4d4d4" opacity="1.00" d=" M 28.51 49.94 C 29.02 47.88 29.55 45.84 29.96 43.76 C 29.94 46.53 29.98 49.29 29.97 52.06 C 30.44 52.24 31.40 52.59 31.88 52.77 C 32.21 52.54 32.87 52.10 33.21 51.88 C 33.45 51.70 33.94 51.34 34.18 51.16 C 34.67 49.56 35.07 47.93 35.48 46.31 C 39.90 45.71 44.37 45.14 48.85 45.29 C 49.99 45.26 50.84 46.10 51.73 46.67 C 47.04 53.18 38.98 56.63 31.03 55.95 C 23.64 56.31 16.70 52.44 12.24 46.71 C 13.20 46.15 14.16 45.40 15.35 45.61 C 19.41 45.78 23.47 45.63 27.52 45.30 C 27.85 46.85 28.18 48.39 28.51 49.94 Z" />
</g>
<g id="#0b0b0b5d">
<path fill="#0b0b0b" opacity="0.36" d=" M 17.28 56.78 C 19.69 57.89 22.13 58.93 24.59 59.93 C 21.87 60.77 18.53 59.38 17.28 56.78 Z" />
</g>
<g id="#0101011f">
<path fill="#010101" opacity="0.12" d=" M 38.58 60.28 C 41.42 59.32 44.21 58.17 46.83 56.70 C 47.50 57.73 48.16 58.77 48.82 59.81 C 45.53 60.61 41.85 61.70 38.58 60.28 Z" />
</g>
<g id="#00000020">
<path fill="#000000" opacity="0.13" d=" M 25.81 61.59 C 29.66 60.30 34.13 60.80 38.09 61.56 C 34.04 62.40 29.86 62.38 25.81 61.59 Z" />
</g>
</svg>
