<?xml version="1.0" encoding="UTF-8" ?>
<!DOCTYPE svg PUBLIC "-//W3C//DTD SVG 1.1//EN" "http://www.w3.org/Graphics/SVG/1.1/DTD/svg11.dtd">
<svg width="64pt" height="64pt" viewBox="0 0 64 64" version="1.1" xmlns="http://www.w3.org/2000/svg">
<g id="#f8f8f8ff">
<path fill="#f8f8f8" opacity="1.00" d=" M 23.50 4.56 C 25.19 4.78 26.92 3.71 28.53 4.57 L 28.37 3.51 C 31.04 3.59 33.75 3.64 36.43 3.59 L 36.51 4.54 C 37.82 4.37 39.14 4.37 40.48 4.55 L 40.46 5.48 C 42.10 5.00 43.16 5.39 43.64 6.63 C 44.04 6.58 44.85 6.48 45.25 6.42 L 45.59 7.55 C 45.99 7.57 46.78 7.62 47.18 7.64 L 47.51 8.57 L 48.56 8.51 L 48.49 9.56 L 49.63 9.50 C 51.11 11.86 55.21 13.30 54.53 16.44 C 54.50 16.85 54.42 17.65 54.39 18.05 C 53.77 17.74 52.53 17.11 51.91 16.80 C 52.88 19.35 54.48 21.59 55.41 24.16 C 54.29 27.58 50.36 28.25 47.44 29.48 C 42.86 30.83 38.15 32.46 33.32 32.18 C 33.16 31.66 32.84 30.62 32.68 30.10 C 30.58 29.14 29.88 31.50 28.99 32.85 C 22.89 31.20 16.44 30.35 10.90 27.12 C 9.64 26.58 9.13 25.30 8.56 24.17 C 10.23 19.74 12.96 15.58 16.96 12.93 C 16.99 12.21 17.06 10.76 17.10 10.04 C 14.36 11.09 13.24 14.90 10.17 15.04 C 12.04 13.30 13.53 10.91 16.06 10.07 C 16.27 9.47 16.68 8.26 16.89 7.66 L 16.91 7.53 C 18.95 8.41 18.28 5.41 20.36 6.64 C 20.84 5.39 21.91 5.00 23.54 5.49 L 23.50 4.56 M 22.12 8.13 C 20.51 8.56 19.29 10.17 17.46 9.65 C 17.94 10.42 18.57 11.02 19.36 11.46 L 19.70 10.04 C 22.83 9.11 25.75 7.40 29.10 7.39 C 37.52 6.24 46.30 9.86 51.53 16.56 C 51.96 16.66 52.83 16.87 53.26 16.97 C 49.23 11.82 43.49 7.91 37.06 6.59 C 32.06 6.12 26.76 5.91 22.12 8.13 Z" />
</g>
<g id="#8f8f8fff">
<path fill="#8f8f8f" opacity="1.00" d=" M 22.12 8.13 C 26.76 5.91 32.06 6.12 37.06 6.59 C 43.49 7.91 49.23 11.82 53.26 16.97 C 52.83 16.87 51.96 16.66 51.53 16.56 C 46.30 9.86 37.52 6.24 29.10 7.39 C 25.75 7.40 22.83 9.11 19.70 10.04 L 19.36 11.46 C 18.57 11.02 17.94 10.42 17.46 9.65 C 19.29 10.17 20.51 8.56 22.12 8.13 Z" />
<path fill="#8f8f8f" opacity="1.00" d=" M 28.99 32.85 C 29.88 31.50 30.58 29.14 32.68 30.10 C 32.84 30.62 33.16 31.66 33.32 32.18 C 33.16 34.91 33.40 37.64 33.25 40.36 C 31.45 42.17 31.51 44.65 31.68 47.00 C 31.16 45.42 30.64 43.84 30.00 42.30 C 30.00 41.04 30.00 39.78 29.99 38.53 C 29.64 38.93 28.93 39.72 28.58 40.12 C 27.41 39.91 26.23 39.73 25.05 39.63 C 26.27 37.31 27.71 35.13 28.99 32.85 Z" />
</g>
<g id="#686868ff">
<path fill="#686868" opacity="1.00" d=" M 5.28 42.81 C -0.01 30.36 5.06 14.40 16.89 7.66 C 16.68 8.26 16.27 9.47 16.06 10.07 C 13.53 10.91 12.04 13.30 10.17 15.04 C 5.07 21.47 3.24 30.46 5.43 38.38 C 6.98 45.14 11.52 50.91 17.17 54.78 C 24.22 59.45 33.50 60.50 41.42 57.50 C 54.05 52.99 62.23 38.38 58.68 25.30 C 58.42 22.73 56.51 20.57 56.51 18.01 L 57.34 18.36 C 62.06 27.06 61.91 38.21 56.76 46.69 C 50.33 58.21 35.53 63.70 23.15 59.52 C 15.20 57.02 8.33 50.69 5.28 42.81 Z" />
<path fill="#686868" opacity="1.00" d=" M 25.05 39.63 C 26.23 39.73 27.41 39.91 28.58 40.12 C 27.44 41.80 26.87 45.08 24.17 44.46 C 22.68 42.84 24.25 41.14 25.05 39.63 Z" />
<path fill="#686868" opacity="1.00" d=" M 31.68 47.00 C 31.51 44.65 31.45 42.17 33.25 40.36 C 33.16 44.21 33.54 48.07 33.19 51.90 C 32.22 52.88 30.98 52.81 30.01 51.88 C 29.91 48.69 30.05 45.49 30.00 42.30 C 30.64 43.84 31.16 45.42 31.68 47.00 Z" />
</g>
<g id="#cdcdcdff">
<path fill="#cdcdcd" opacity="1.00" d=" M 17.10 10.04 C 17.06 10.76 16.99 12.21 16.96 12.93 C 12.96 15.58 10.23 19.74 8.56 24.17 C 5.66 31.88 7.77 40.74 12.77 47.09 C 17.28 52.93 24.52 56.49 31.96 55.83 C 39.38 56.51 46.71 53.04 51.20 47.16 C 53.33 44.42 55.10 41.31 55.91 37.91 C 57.17 33.38 56.91 28.59 55.41 24.16 C 54.48 21.59 52.88 19.35 51.91 16.80 C 52.53 17.11 53.77 17.74 54.39 18.05 C 54.42 17.65 54.50 16.85 54.53 16.44 C 55.96 15.96 56.62 16.48 56.51 18.01 C 56.51 20.57 58.42 22.73 58.68 25.30 C 62.23 38.38 54.05 52.99 41.42 57.50 C 33.50 60.50 24.22 59.45 17.17 54.78 C 11.52 50.91 6.98 45.14 5.43 38.38 C 3.24 30.46 5.07 21.47 10.17 15.04 C 13.24 14.90 14.36 11.09 17.10 10.04 Z" />
</g>
<g id="#e5e5e5ff">
<path fill="#e5e5e5" opacity="1.00" d=" M 12.77 47.09 C 7.77 40.74 5.66 31.88 8.56 24.17 C 9.13 25.30 9.64 26.58 10.90 27.12 C 16.44 30.35 22.89 31.20 28.99 32.85 C 27.71 35.13 26.27 37.31 25.05 39.63 C 24.25 41.14 22.68 42.84 24.17 44.46 C 20.25 44.79 16.37 44.08 12.47 43.92 C 12.52 44.98 12.62 46.04 12.77 47.09 Z" />
</g>
<g id="#e9e9e9ff">
<path fill="#e9e9e9" opacity="1.00" d=" M 55.41 24.16 C 56.91 28.59 57.17 33.38 55.91 37.91 C 54.31 36.00 51.76 36.37 49.55 36.35 C 44.81 36.40 40.04 35.49 35.32 36.34 C 34.88 38.94 34.88 41.58 34.83 44.21 C 34.60 46.80 34.92 49.73 33.19 51.90 C 33.54 48.07 33.16 44.21 33.25 40.36 C 33.40 37.64 33.16 34.91 33.32 32.18 C 38.15 32.46 42.86 30.83 47.44 29.48 C 50.36 28.25 54.29 27.58 55.41 24.16 Z" />
</g>
<g id="#e0e0e0ff">
<path fill="#e0e0e0" opacity="1.00" d=" M 35.32 36.34 C 40.04 35.49 44.81 36.40 49.55 36.35 C 51.76 36.37 54.31 36.00 55.91 37.91 C 55.10 41.31 53.33 44.42 51.20 47.16 C 51.35 46.23 51.46 45.29 51.53 44.35 C 45.96 43.65 40.30 45.56 34.83 44.21 C 34.88 41.58 34.88 38.94 35.32 36.34 Z" />
</g>
<g id="#d5d5d5ff">
<path fill="#d5d5d5" opacity="1.00" d=" M 28.58 40.12 C 28.93 39.72 29.64 38.93 29.99 38.53 C 30.00 39.78 30.00 41.04 30.00 42.30 C 30.05 45.49 29.91 48.69 30.01 51.88 C 30.98 52.81 32.22 52.88 33.19 51.90 C 34.92 49.73 34.60 46.80 34.83 44.21 C 40.30 45.56 45.96 43.65 51.53 44.35 C 51.46 45.29 51.35 46.23 51.20 47.16 C 46.71 53.04 39.38 56.51 31.96 55.83 C 24.52 56.49 17.28 52.93 12.77 47.09 C 12.62 46.04 12.52 44.98 12.47 43.92 C 16.37 44.08 20.25 44.79 24.17 44.46 C 26.87 45.08 27.44 41.80 28.58 40.12 Z" />
</g>
</svg>
