<?xml version="1.0" encoding="UTF-8" ?>
<!DOCTYPE svg PUBLIC "-//W3C//DTD SVG 1.1//EN" "http://www.w3.org/Graphics/SVG/1.1/DTD/svg11.dtd">
<svg width="64pt" height="64pt" viewBox="0 0 64 64" version="1.1" xmlns="http://www.w3.org/2000/svg">
<g id="#717171ff">
<path fill="#717171" opacity="1.00" d=" M 8.06 16.10 C 15.95 3.58 34.09 -0.58 46.65 7.29 C 59.37 14.42 64.53 31.90 57.76 44.81 C 53.68 53.20 45.24 59.45 35.95 60.58 C 32.47 60.32 28.98 60.22 25.49 60.12 C 22.00 59.22 18.75 57.63 15.69 55.77 C 2.91 47.52 -0.69 28.53 8.06 16.10 M 23.92 5.76 C 17.47 7.86 12.17 12.39 8.32 17.88 C 5.22 22.92 4.05 29.17 4.79 35.04 C 6.06 45.90 14.45 55.52 25.03 58.26 C 34.44 60.85 45.08 57.84 51.69 50.65 C 60.17 42.23 61.87 28.05 55.73 17.82 C 53.30 15.35 51.51 12.26 48.58 10.30 C 41.73 4.88 32.25 3.07 23.92 5.76 Z" />
<path fill="#717171" opacity="1.00" d=" M 31.57 43.25 C 32.08 41.00 32.63 38.75 33.07 36.48 C 33.17 41.73 33.25 46.99 33.25 52.24 C 32.16 52.49 30.91 52.97 30.07 51.89 C 29.72 47.10 30.20 42.30 29.95 37.51 C 30.44 39.43 31.01 41.34 31.57 43.25 Z" />
</g>
<g id="#f8f8f8ff">
<path fill="#f8f8f8" opacity="1.00" d=" M 23.92 5.76 C 32.25 3.07 41.73 4.88 48.58 10.30 C 51.51 12.26 53.30 15.35 55.73 17.82 C 54.41 17.42 53.08 17.05 51.74 16.71 C 53.66 20.23 55.66 23.83 56.29 27.85 C 56.27 28.35 56.22 29.34 56.19 29.83 C 55.34 28.98 54.49 28.13 53.65 27.27 C 47.31 29.97 40.66 31.79 33.85 32.83 C 33.65 32.38 33.25 31.49 33.06 31.05 C 32.07 29.01 30.87 27.09 29.80 25.10 C 28.22 22.78 27.49 18.93 24.15 18.70 C 23.94 19.19 23.52 20.16 23.31 20.64 C 24.57 23.05 25.93 25.41 27.38 27.70 C 28.44 29.39 29.37 31.15 30.21 32.96 C 22.64 31.25 14.02 30.24 8.38 24.34 C 9.12 22.44 10.26 20.75 11.51 19.16 C 10.90 18.55 10.28 17.95 9.64 17.36 C 9.31 17.49 8.65 17.75 8.32 17.88 C 12.17 12.39 17.47 7.86 23.92 5.76 M 14.16 13.13 C 13.01 14.13 12.06 15.56 10.43 15.80 C 11.01 16.38 11.59 16.95 12.17 17.52 C 19.41 5.98 37.10 4.06 47.41 12.57 C 49.53 14.11 50.89 16.86 53.76 17.13 C 48.28 10.24 39.81 5.67 30.95 5.69 C 24.82 6.51 18.65 8.74 14.16 13.13 Z" />
</g>
<g id="#9f9f9fff">
<path fill="#9f9f9f" opacity="1.00" d=" M 14.16 13.13 C 18.65 8.74 24.82 6.51 30.95 5.69 C 39.81 5.67 48.28 10.24 53.76 17.13 C 50.89 16.86 49.53 14.11 47.41 12.57 C 37.10 4.06 19.41 5.98 12.17 17.52 C 11.59 16.95 11.01 16.38 10.43 15.80 C 12.06 15.56 13.01 14.13 14.16 13.13 Z" />
<path fill="#9f9f9f" opacity="1.00" d=" M 24.15 18.70 C 27.49 18.93 28.22 22.78 29.80 25.10 C 28.99 25.97 28.19 26.83 27.38 27.70 C 25.93 25.41 24.57 23.05 23.31 20.64 C 23.52 20.16 23.94 19.19 24.15 18.70 Z" />
</g>
<g id="#c8c8c8ff">
<path fill="#c8c8c8" opacity="1.00" d=" M 4.79 35.04 C 4.05 29.17 5.22 22.92 8.32 17.88 C 8.65 17.75 9.31 17.49 9.64 17.36 C 10.28 17.95 10.90 18.55 11.51 19.16 C 10.26 20.75 9.12 22.44 8.38 24.34 C 6.65 29.64 6.91 35.35 8.81 40.57 C 11.08 46.86 16.37 51.81 22.44 54.41 C 26.72 56.09 31.44 55.81 35.94 55.65 C 43.49 55.25 50.02 49.98 53.78 43.69 C 56.00 38.78 57.79 33.24 56.29 27.85 C 55.66 23.83 53.66 20.23 51.74 16.71 C 53.08 17.05 54.41 17.42 55.73 17.82 C 61.87 28.05 60.17 42.23 51.69 50.65 C 45.08 57.84 34.44 60.85 25.03 58.26 C 14.45 55.52 6.06 45.90 4.79 35.04 Z" />
</g>
<g id="#e7e7e7ff">
<path fill="#e7e7e7" opacity="1.00" d=" M 8.81 40.57 C 6.91 35.35 6.65 29.64 8.38 24.34 C 14.02 30.24 22.64 31.25 30.21 32.96 C 30.11 34.18 30.01 35.39 29.92 36.61 C 29.59 38.72 29.14 40.81 28.71 42.90 C 28.27 41.80 27.82 40.71 27.38 39.62 C 21.20 39.70 14.83 38.81 8.81 40.57 Z" />
</g>
<g id="#666666ff">
<path fill="#666666" opacity="1.00" d=" M 27.38 27.70 C 28.19 26.83 28.99 25.97 29.80 25.10 C 30.87 27.09 32.07 29.01 33.06 31.05 C 33.08 31.56 33.11 32.59 33.13 33.11 C 32.40 33.07 30.94 33.00 30.21 32.96 C 29.37 31.15 28.44 29.39 27.38 27.70 Z" />
</g>
<g id="#e5e5e5ff">
<path fill="#e5e5e5" opacity="1.00" d=" M 33.85 32.83 C 40.66 31.79 47.31 29.97 53.65 27.27 C 54.49 28.13 55.34 28.98 56.19 29.83 C 56.22 29.34 56.27 28.35 56.29 27.85 C 57.79 33.24 56.00 38.78 53.78 43.69 C 48.50 40.14 41.65 41.99 35.71 42.24 C 35.22 43.52 34.73 44.80 34.23 46.08 C 33.73 41.68 33.80 37.25 33.85 32.83 Z" />
</g>
<g id="#d8d8d8ff">
<path fill="#d8d8d8" opacity="1.00" d=" M 33.06 31.05 C 33.25 31.49 33.65 32.38 33.85 32.83 C 33.80 37.25 33.73 41.68 34.23 46.08 C 34.73 44.80 35.22 43.52 35.71 42.24 C 41.65 41.99 48.50 40.14 53.78 43.69 C 50.02 49.98 43.49 55.25 35.94 55.65 C 31.44 55.81 26.72 56.09 22.44 54.41 C 16.37 51.81 11.08 46.86 8.81 40.57 C 14.83 38.81 21.20 39.70 27.38 39.62 C 27.82 40.71 28.27 41.80 28.71 42.90 C 29.14 40.81 29.59 38.72 29.92 36.61 L 29.95 37.51 C 30.20 42.30 29.72 47.10 30.07 51.89 C 30.91 52.97 32.16 52.49 33.25 52.24 C 33.25 46.99 33.17 41.73 33.07 36.48 C 33.11 35.36 33.13 34.23 33.13 33.11 C 33.11 32.59 33.08 31.56 33.06 31.05 Z" />
</g>
<g id="#8f8f8fff">
<path fill="#8f8f8f" opacity="1.00" d=" M 30.21 32.96 C 30.94 33.00 32.40 33.07 33.13 33.11 C 33.13 34.23 33.11 35.36 33.07 36.48 C 32.63 38.75 32.08 41.00 31.57 43.25 C 31.01 41.34 30.44 39.43 29.95 37.51 L 29.92 36.61 C 30.01 35.39 30.11 34.18 30.21 32.96 Z" />
</g>
<g id="#0303032d">
<path fill="#030303" opacity="0.18" d=" M 15.69 55.77 C 18.75 57.63 22.00 59.22 25.49 60.12 L 25.21 61.19 C 22.61 60.73 19.81 60.74 17.44 59.43 C 16.47 58.45 16.26 56.98 15.69 55.77 Z" />
</g>
<g id="#00000021">
<path fill="#000000" opacity="0.13" d=" M 25.92 61.10 C 29.72 61.16 33.72 60.26 37.36 61.60 C 33.60 62.15 29.50 62.80 25.92 61.10 Z" />
</g>
</svg>
