<?xml version="1.0" encoding="UTF-8" ?>
<!DOCTYPE svg PUBLIC "-//W3C//DTD SVG 1.1//EN" "http://www.w3.org/Graphics/SVG/1.1/DTD/svg11.dtd">
<svg width="64pt" height="64pt" viewBox="0 0 64 64" version="1.1" xmlns="http://www.w3.org/2000/svg">
<g id="#757575ff">
<path fill="#757575" opacity="1.00" d=" M 5.95 20.66 C 10.94 6.39 29.19 -0.57 42.82 5.40 C 54.81 10.04 62.47 23.40 60.46 36.10 C 59.26 44.52 54.19 52.38 46.82 56.68 C 44.52 57.95 42.11 59.00 39.63 59.84 C 35.16 59.83 30.48 60.75 26.21 58.95 C 34.91 59.86 44.30 58.01 50.63 51.59 C 60.70 42.57 62.34 25.72 53.72 15.20 C 49.54 10.36 43.99 6.51 37.64 5.25 C 27.60 2.80 16.67 7.28 10.34 15.25 C 8.91 17.08 7.79 19.19 5.95 20.66 Z" />
<path fill="#757575" opacity="1.00" d=" M 18.25 10.72 C 22.24 6.92 28.64 6.16 34.05 6.45 C 38.52 6.33 42.34 8.94 46.59 9.86 C 46.02 10.39 45.44 10.91 44.87 11.44 C 44.48 9.66 42.48 9.38 41.11 8.71 C 33.62 5.83 25.22 7.11 18.25 10.72 Z" />
<path fill="#757575" opacity="1.00" d=" M 22.73 28.51 C 24.00 27.95 25.26 27.39 26.53 26.83 C 28.73 28.16 30.98 29.39 33.10 30.83 C 32.10 38.26 34.59 45.96 32.26 53.19 C 31.66 52.89 30.46 52.30 29.86 52.00 C 29.87 46.34 30.02 40.68 30.08 35.01 C 31.29 36.55 31.44 38.56 31.81 40.41 C 31.60 38.43 31.58 36.43 32.05 34.48 C 30.60 33.62 29.25 32.62 27.87 31.67 C 26.20 30.55 24.48 29.50 22.73 28.51 Z" />
</g>
<g id="#f9f9f9ff">
<path fill="#f9f9f9" opacity="1.00" d=" M 10.34 15.25 C 16.67 7.28 27.60 2.80 37.64 5.25 C 43.99 6.51 49.54 10.36 53.72 15.20 C 51.51 13.39 49.16 11.77 46.88 10.07 C 46.93 10.77 47.04 12.17 47.09 12.87 C 51.87 16.50 55.27 21.83 56.20 27.79 C 56.15 28.33 56.05 29.40 56.01 29.94 C 55.21 29.04 54.41 28.14 53.62 27.25 C 47.36 30.15 40.67 31.86 33.86 32.83 C 33.67 32.33 33.29 31.33 33.10 30.83 C 30.98 29.39 28.73 28.16 26.53 26.83 C 24.45 25.61 22.39 24.31 20.09 23.53 C 19.63 24.12 18.69 25.28 18.23 25.86 C 19.72 26.76 21.22 27.65 22.73 28.51 C 24.48 29.50 26.20 30.55 27.87 31.67 C 21.67 32.40 16.01 29.31 10.36 27.26 C 9.55 28.14 8.74 29.02 7.91 29.90 C 7.89 29.39 7.84 28.35 7.81 27.84 C 8.58 21.58 12.56 16.56 17.01 12.41 C 17.05 12.04 17.11 11.32 17.15 10.96 L 16.96 10.21 C 14.64 11.74 12.40 13.40 10.34 15.25 M 18.25 10.72 C 25.22 7.11 33.62 5.83 41.11 8.71 C 42.48 9.38 44.48 9.66 44.87 11.44 C 45.44 10.91 46.02 10.39 46.59 9.86 C 42.34 8.94 38.52 6.33 34.05 6.45 C 28.64 6.16 22.24 6.92 18.25 10.72 Z" />
</g>
<g id="#d1d1d1ff">
<path fill="#d1d1d1" opacity="1.00" d=" M 16.96 10.21 L 17.15 10.96 C 17.11 11.32 17.05 12.04 17.01 12.41 C 12.56 16.56 8.58 21.58 7.81 27.84 C 6.18 34.37 8.48 41.33 12.47 46.55 C 13.38 47.53 14.35 49.11 15.92 48.77 C 19.54 48.41 23.19 48.18 26.81 48.67 C 27.81 49.79 28.77 50.97 29.86 52.00 C 30.46 52.30 31.66 52.89 32.26 53.19 C 34.59 45.96 32.10 38.26 33.10 30.83 C 33.29 31.33 33.67 32.33 33.86 32.83 C 33.81 39.24 33.53 45.66 34.17 52.06 C 34.64 50.70 35.11 49.33 35.57 47.97 C 39.92 47.22 44.29 47.75 48.64 48.13 C 50.39 48.42 51.43 46.66 52.37 45.51 C 55.76 40.38 57.76 33.90 56.20 27.79 C 55.27 21.83 51.87 16.50 47.09 12.87 C 47.04 12.17 46.93 10.77 46.88 10.07 C 49.16 11.77 51.51 13.39 53.72 15.20 C 62.34 25.72 60.70 42.57 50.63 51.59 C 44.30 58.01 34.91 59.86 26.21 58.95 C 15.64 56.54 6.97 47.95 4.71 37.32 C 4.71 32.95 5.09 28.60 5.29 24.25 C 5.42 23.16 5.55 22.06 5.66 20.97 L 5.67 20.92 L 5.95 20.66 C 7.79 19.19 8.91 17.08 10.34 15.25 C 12.40 13.40 14.64 11.74 16.96 10.21 Z" />
</g>
<g id="#434343bd">
<path fill="#434343" opacity="0.74" d=" M 5.09 42.91 C 2.43 35.98 1.83 27.58 5.66 20.97 C 5.55 22.06 5.42 23.16 5.29 24.25 C 3.28 28.33 3.77 33.02 4.71 37.32 C 6.97 47.95 15.64 56.54 26.21 58.95 C 30.48 60.75 35.16 59.83 39.63 59.84 L 38.05 60.42 C 24.72 63.92 9.99 55.59 5.09 42.91 Z" />
</g>
<g id="#929292ff">
<path fill="#929292" opacity="1.00" d=" M 18.23 25.86 C 18.69 25.28 19.63 24.12 20.09 23.53 C 22.39 24.31 24.45 25.61 26.53 26.83 C 25.26 27.39 24.00 27.95 22.73 28.51 C 21.22 27.65 19.72 26.76 18.23 25.86 Z" />
</g>
<g id="#878787fe">
<path fill="#878787" opacity="1.00" d=" M 4.71 37.32 C 3.77 33.02 3.28 28.33 5.29 24.25 C 5.09 28.60 4.71 32.95 4.71 37.32 Z" />
</g>
<g id="#e2e2e2ff">
<path fill="#e2e2e2" opacity="1.00" d=" M 7.91 29.90 C 8.74 29.02 9.55 28.14 10.36 27.26 C 16.01 29.31 21.67 32.40 27.87 31.67 C 29.25 32.62 30.60 33.62 32.05 34.48 C 31.58 36.43 31.60 38.43 31.81 40.41 C 31.44 38.56 31.29 36.55 30.08 35.01 C 30.02 40.68 29.87 46.34 29.86 52.00 C 28.77 50.97 27.81 49.79 26.81 48.67 C 23.19 48.18 19.54 48.41 15.92 48.77 C 14.35 49.11 13.38 47.53 12.47 46.55 C 8.48 41.33 6.18 34.37 7.81 27.84 C 7.84 28.35 7.89 29.39 7.91 29.90 Z" />
<path fill="#e2e2e2" opacity="1.00" d=" M 33.86 32.83 C 40.67 31.86 47.36 30.15 53.62 27.25 C 54.41 28.14 55.21 29.04 56.01 29.94 C 56.05 29.40 56.15 28.33 56.20 27.79 C 57.76 33.90 55.76 40.38 52.37 45.51 C 51.43 46.66 50.39 48.42 48.64 48.13 C 44.29 47.75 39.92 47.22 35.57 47.97 C 35.11 49.33 34.64 50.70 34.17 52.06 C 33.53 45.66 33.81 39.24 33.86 32.83 Z" />
</g>
<g id="#0101011f">
<path fill="#010101" opacity="0.12" d=" M 39.63 59.84 C 42.11 59.00 44.52 57.95 46.82 56.68 C 47.52 57.63 48.21 58.57 48.91 59.52 C 45.47 60.87 41.66 61.45 38.05 60.42 L 39.63 59.84 Z" />
</g>
</svg>
