<?xml version="1.0" encoding="UTF-8" ?>
<!DOCTYPE svg PUBLIC "-//W3C//DTD SVG 1.1//EN" "http://www.w3.org/Graphics/SVG/1.1/DTD/svg11.dtd">
<svg width="64pt" height="64pt" viewBox="0 0 64 64" version="1.1" xmlns="http://www.w3.org/2000/svg">
<g id="#6d6d6dff">
<path fill="#6d6d6d" opacity="1.00" d=" M 7.00 18.48 C 13.00 5.03 31.14 -0.50 44.14 5.96 C 56.41 11.39 63.40 26.11 59.90 39.06 C 58.24 45.40 54.53 51.36 49.11 55.14 C 45.79 57.50 42.03 59.17 38.14 60.33 C 33.67 60.75 28.60 61.40 24.43 59.76 L 23.56 58.10 C 32.93 60.63 43.67 58.68 50.65 51.68 C 59.93 43.41 62.29 28.39 55.64 17.85 C 51.69 12.09 46.06 7.36 39.23 5.53 C 31.31 3.10 22.48 5.04 15.87 9.89 C 12.66 11.91 10.69 15.22 8.19 17.98 C 7.89 18.10 7.30 18.35 7.00 18.48 Z" />
<path fill="#6d6d6d" opacity="1.00" d=" M 18.97 37.23 C 20.66 36.00 22.51 35.02 24.28 33.91 C 24.92 34.86 25.50 35.85 26.06 36.84 C 24.11 37.92 22.22 39.14 20.17 40.03 C 19.03 39.41 18.63 38.47 18.97 37.23 Z" />
<path fill="#6d6d6d" opacity="1.00" d=" M 31.45 44.90 C 31.55 42.86 32.05 40.87 33.16 39.14 C 33.30 43.49 33.33 47.84 33.32 52.19 C 32.21 52.51 30.95 52.96 30.08 51.88 C 29.84 48.40 30.01 44.91 29.97 41.43 L 30.01 40.13 C 30.48 41.72 30.98 43.30 31.45 44.90 Z" />
</g>
<g id="#f8f8f8ff">
<path fill="#f8f8f8" opacity="1.00" d=" M 15.87 9.89 C 22.48 5.04 31.31 3.10 39.23 5.53 C 46.06 7.36 51.69 12.09 55.64 17.85 C 54.35 17.45 53.07 17.05 51.78 16.67 C 53.61 20.24 55.66 23.82 56.26 27.85 C 56.18 28.36 56.04 29.39 55.96 29.90 C 55.28 29.00 54.61 28.11 53.93 27.21 C 47.30 29.78 40.50 32.42 33.27 32.36 C 33.14 31.74 32.89 30.49 32.77 29.87 C 30.14 30.15 27.94 31.71 25.72 33.01 C 20.71 30.32 14.88 29.65 10.00 26.65 C 9.30 27.48 8.64 28.42 7.50 28.63 C 8.24 24.34 10.20 20.44 12.23 16.64 C 10.89 17.11 9.54 17.55 8.19 17.98 C 10.69 15.22 12.66 11.91 15.87 9.89 M 10.86 17.09 C 13.08 16.52 14.26 14.41 15.95 13.05 C 24.78 5.33 39.20 5.32 48.04 13.04 C 49.83 14.46 51.06 16.80 53.53 17.10 C 48.24 10.12 39.68 5.81 30.94 5.84 C 23.15 6.72 15.20 10.33 10.86 17.09 Z" />
</g>
<g id="#989898ff">
<path fill="#989898" opacity="1.00" d=" M 10.86 17.09 C 15.20 10.33 23.15 6.72 30.94 5.84 C 39.68 5.81 48.24 10.12 53.53 17.10 C 51.06 16.80 49.83 14.46 48.04 13.04 C 39.20 5.32 24.78 5.33 15.95 13.05 C 14.26 14.41 13.08 16.52 10.86 17.09 Z" />
<path fill="#989898" opacity="1.00" d=" M 25.72 33.01 C 27.94 31.71 30.14 30.15 32.77 29.87 C 32.89 30.49 33.14 31.74 33.27 32.36 C 33.37 34.62 33.30 36.88 33.16 39.14 C 32.05 40.87 31.55 42.86 31.45 44.90 C 30.98 43.30 30.48 41.72 30.01 40.13 C 29.99 38.33 29.99 36.53 29.98 34.74 C 28.67 35.43 27.36 36.12 26.06 36.84 C 25.50 35.85 24.92 34.86 24.28 33.91 L 25.72 33.01 Z" />
</g>
<g id="#cbcbcbff">
<path fill="#cbcbcb" opacity="1.00" d=" M 7.00 18.48 C 7.30 18.35 7.89 18.10 8.19 17.98 C 9.54 17.55 10.89 17.11 12.23 16.64 C 10.20 20.44 8.24 24.34 7.50 28.63 C 6.25 35.42 8.84 42.58 13.33 47.70 C 17.90 53.70 25.54 56.53 32.95 55.89 C 40.24 56.22 47.25 52.55 51.57 46.76 C 52.82 45.07 54.00 43.29 54.73 41.32 C 56.38 37.05 57.47 32.38 56.26 27.85 C 55.66 23.82 53.61 20.24 51.78 16.67 C 53.07 17.05 54.35 17.45 55.64 17.85 C 62.29 28.39 59.93 43.41 50.65 51.68 C 43.67 58.68 32.93 60.63 23.56 58.10 C 12.20 54.45 3.82 43.06 4.39 31.05 C 4.05 26.87 6.12 23.10 6.56 19.04 L 6.62 18.65 L 7.00 18.48 Z" />
</g>
<g id="#525252d1">
<path fill="#525252" opacity="0.82" d=" M 7.23 46.70 C 2.04 38.67 1.45 27.23 6.56 19.04 C 6.12 23.10 4.05 26.87 4.39 31.05 C 3.82 43.06 12.20 54.45 23.56 58.10 L 24.43 59.76 C 18.79 58.86 13.60 55.22 10.15 50.76 C 9.44 49.23 8.45 47.87 7.23 46.70 Z" />
</g>
<g id="#e2e2e2ff">
<path fill="#e2e2e2" opacity="1.00" d=" M 7.50 28.63 C 8.64 28.42 9.30 27.48 10.00 26.65 C 14.88 29.65 20.71 30.32 25.72 33.01 L 24.28 33.91 C 22.51 35.02 20.66 36.00 18.97 37.23 C 18.63 38.47 19.03 39.41 20.17 40.03 C 22.22 39.14 24.11 37.92 26.06 36.84 C 27.36 36.12 28.67 35.43 29.98 34.74 C 29.99 36.53 29.99 38.33 30.01 40.13 L 29.97 41.43 C 29.30 44.56 28.86 47.73 28.74 50.93 C 28.38 49.63 28.01 48.34 27.64 47.05 C 22.88 46.37 17.96 46.19 13.33 47.70 C 8.84 42.58 6.25 35.42 7.50 28.63 Z" />
</g>
<g id="#e7e7e7ff">
<path fill="#e7e7e7" opacity="1.00" d=" M 33.27 32.36 C 40.50 32.42 47.30 29.78 53.93 27.21 C 54.61 28.11 55.28 29.00 55.96 29.90 C 56.04 29.39 56.18 28.36 56.26 27.85 C 57.47 32.38 56.38 37.05 54.73 41.32 C 54.61 40.25 54.45 39.19 54.29 38.13 C 48.00 37.84 41.70 37.78 35.42 38.21 C 34.59 42.70 34.21 47.25 33.80 51.79 L 33.32 52.19 C 33.33 47.84 33.30 43.49 33.16 39.14 C 33.30 36.88 33.37 34.62 33.27 32.36 Z" />
</g>
<g id="#dededeff">
<path fill="#dedede" opacity="1.00" d=" M 35.42 38.21 C 41.70 37.78 48.00 37.84 54.29 38.13 C 54.45 39.19 54.61 40.25 54.73 41.32 C 54.00 43.29 52.82 45.07 51.57 46.76 C 46.36 45.29 40.95 46.16 35.64 46.42 C 35.27 48.03 34.93 49.65 34.45 51.23 L 33.80 51.79 C 34.21 47.25 34.59 42.70 35.42 38.21 Z" />
</g>
<g id="#d4d4d4ff">
<path fill="#d4d4d4" opacity="1.00" d=" M 28.74 50.93 C 28.86 47.73 29.30 44.56 29.97 41.43 C 30.01 44.91 29.84 48.40 30.08 51.88 C 30.95 52.96 32.21 52.51 33.32 52.19 L 33.80 51.79 L 34.45 51.23 C 34.93 49.65 35.27 48.03 35.64 46.42 C 40.95 46.16 46.36 45.29 51.57 46.76 C 47.25 52.55 40.24 56.22 32.95 55.89 C 25.54 56.53 17.90 53.70 13.33 47.70 C 17.96 46.19 22.88 46.37 27.64 47.05 C 28.01 48.34 28.38 49.63 28.74 50.93 Z" />
</g>
<g id="#16161675">
<path fill="#161616" opacity="0.46" d=" M 7.23 46.70 C 8.45 47.87 9.44 49.23 10.15 50.76 C 8.28 51.64 6.19 48.26 7.23 46.70 Z" />
</g>
<g id="#0404042b">
<path fill="#040404" opacity="0.17" d=" M 38.14 60.33 C 42.03 59.17 45.79 57.50 49.11 55.14 C 48.33 56.70 47.83 58.43 46.79 59.84 C 44.08 60.95 40.97 60.92 38.14 60.33 Z" />
</g>
</svg>
