<?xml version="1.0" encoding="UTF-8" ?>
<!DOCTYPE svg PUBLIC "-//W3C//DTD SVG 1.1//EN" "http://www.w3.org/Graphics/SVG/1.1/DTD/svg11.dtd">
<svg width="64pt" height="64pt" viewBox="0 0 64 64" version="1.1" xmlns="http://www.w3.org/2000/svg">
<g id="#0000005d">
<path fill="#000000" opacity="0.36" d=" M 4.39 3.91 C 5.47 3.18 6.66 2.85 7.95 2.93 C 23.99 3.05 40.02 3.05 56.06 2.94 C 57.37 2.88 58.58 3.21 59.70 3.91 C 41.27 4.06 22.82 4.06 4.39 3.91 Z" />
</g>
<g id="#fdfdfdff">
<path fill="#fdfdfd" opacity="1.00" d=" M 3.90 3.89 L 4.39 3.91 C 22.82 4.06 41.27 4.06 59.70 3.91 L 60.11 3.90 L 60.10 4.39 C 59.90 16.88 59.99 29.37 59.98 41.86 C 59.10 41.84 57.33 41.79 56.45 41.77 C 56.69 37.07 56.84 32.36 56.55 27.65 C 57.00 20.78 57.01 13.89 57.00 7.00 C 40.33 7.00 23.67 7.00 7.00 7.00 C 6.98 14.93 7.09 22.86 7.47 30.78 C 7.18 34.46 7.27 38.15 7.34 41.84 C 6.51 41.84 4.85 41.86 4.02 41.87 C 4.01 29.34 4.09 16.81 3.91 4.29 L 3.90 3.89 Z" />
</g>
<g id="#00000086">
<path fill="#000000" opacity="0.53" d=" M 3.09 12.03 C 3.11 9.43 2.91 6.75 3.91 4.29 C 4.09 16.81 4.01 29.34 4.02 41.87 C 3.97 47.91 4.01 53.96 4.00 60.00 C 22.67 60.04 41.33 60.04 60.00 60.00 C 59.99 53.96 60.03 47.91 59.98 41.86 C 59.99 29.37 59.90 16.88 60.10 4.39 C 60.98 6.47 60.91 8.76 60.92 10.98 C 60.85 26.34 60.94 41.70 60.88 57.05 C 60.67 58.82 61.08 61.08 59.45 62.29 C 46.65 61.81 33.83 62.18 21.02 62.06 C 15.48 62.11 9.91 61.82 4.39 62.45 C 3.08 60.54 3.13 58.17 3.10 55.95 C 3.10 41.31 3.12 26.67 3.09 12.03 Z" />
</g>
<g id="#3c6a94ff">
<path fill="#3c6a94" opacity="1.00" d=" M 7.00 7.00 C 23.67 7.00 40.33 7.00 57.00 7.00 C 57.01 13.89 57.00 20.78 56.55 27.65 L 56.15 26.37 C 56.07 25.80 55.92 24.66 55.84 24.09 C 55.68 21.36 55.76 18.63 55.74 15.89 C 55.70 13.47 55.55 11.06 55.42 8.64 C 41.28 7.97 27.11 8.23 12.96 8.38 C 11.56 8.43 10.15 8.46 8.80 8.85 C 8.17 11.16 8.31 13.57 8.25 15.94 C 8.23 18.65 8.25 21.36 8.24 24.08 C 8.21 25.73 8.11 27.38 7.92 29.02 L 7.85 29.59 L 7.47 30.78 C 7.09 22.86 6.98 14.93 7.00 7.00 Z" />
</g>
<g id="#5c93c7ff">
<path fill="#5c93c7" opacity="1.00" d=" M 8.80 8.85 C 10.15 8.46 11.56 8.43 12.96 8.38 C 27.11 8.23 41.28 7.97 55.42 8.64 C 55.55 11.06 55.70 13.47 55.74 15.89 C 50.01 12.71 43.62 10.17 36.95 10.35 C 32.04 10.43 27.11 10.12 22.23 10.66 C 17.28 11.50 12.58 13.44 8.25 15.94 C 8.31 13.57 8.17 11.16 8.80 8.85 Z" />
</g>
<g id="#82b2d3ff">
<path fill="#82b2d3" opacity="1.00" d=" M 8.25 15.94 C 12.58 13.44 17.28 11.50 22.23 10.66 C 27.11 10.12 32.04 10.43 36.95 10.35 C 43.62 10.17 50.01 12.71 55.74 15.89 C 55.76 18.63 55.68 21.36 55.84 24.09 C 48.74 19.53 40.42 16.81 31.98 16.52 C 23.56 16.74 15.27 19.46 8.24 24.08 C 8.25 21.36 8.23 18.65 8.25 15.94 Z" />
</g>
<g id="#a9cbdcff">
<path fill="#a9cbdc" opacity="1.00" d=" M 8.24 24.08 C 15.27 19.46 23.56 16.74 31.98 16.52 C 40.42 16.81 48.74 19.53 55.84 24.09 C 55.92 24.66 56.07 25.80 56.15 26.37 C 56.35 32.20 56.68 38.08 55.77 43.88 C 55.51 43.66 55.01 43.23 54.76 43.01 C 55.32 38.08 56.10 31.69 52.01 28.02 C 39.28 19.88 20.57 19.75 9.25 30.51 C 8.92 30.14 8.25 29.39 7.92 29.02 C 8.11 27.38 8.21 25.73 8.24 24.08 Z" />
</g>
<g id="#cce0e6ff">
<path fill="#cce0e6" opacity="1.00" d=" M 9.25 30.51 C 20.57 19.75 39.28 19.88 52.01 28.02 C 56.10 31.69 55.32 38.08 54.76 43.01 C 55.01 43.23 55.51 43.66 55.77 43.88 C 55.68 44.39 55.50 45.41 55.41 45.92 C 52.34 43.81 49.22 41.73 46.40 39.29 C 42.55 35.39 37.72 32.71 33.40 29.38 C 30.82 29.46 28.07 29.68 26.08 31.54 C 22.90 34.09 19.77 36.71 16.79 39.50 C 16.10 40.20 15.42 40.91 14.76 41.63 C 14.22 42.23 13.69 42.83 13.16 43.43 C 11.32 44.57 9.46 45.67 7.63 46.81 C 7.71 41.07 7.50 35.32 7.85 29.59 L 7.92 29.02 C 8.25 29.39 8.92 30.14 9.25 30.51 Z" />
</g>
<g id="#0b1d2fff">
<path fill="#0b1d2f" opacity="1.00" d=" M 56.15 26.37 L 56.55 27.65 C 56.84 32.36 56.69 37.07 56.45 41.77 C 56.86 46.84 57.19 51.91 57.00 57.00 C 40.33 57.00 23.66 57.00 6.99 57.00 C 6.79 51.94 7.30 46.89 7.34 41.84 C 7.27 38.15 7.18 34.46 7.47 30.78 L 7.85 29.59 C 7.50 35.32 7.71 41.07 7.63 46.81 C 9.46 45.67 11.32 44.57 13.16 43.43 C 12.01 44.97 10.75 46.42 9.29 47.66 L 8.33 48.51 C 7.95 50.97 8.02 53.45 8.07 55.93 C 15.52 56.02 22.97 55.87 30.40 55.41 C 30.82 54.38 31.25 53.35 31.67 52.33 C 32.11 53.36 32.54 54.39 32.97 55.42 C 33.75 54.15 34.53 52.88 35.31 51.61 C 36.03 52.07 36.76 52.53 37.48 52.99 C 37.54 51.64 37.60 50.29 37.66 48.94 C 40.82 48.36 43.89 47.42 46.98 46.55 C 48.07 44.11 46.36 41.76 46.40 39.29 C 49.22 41.73 52.34 43.81 55.41 45.92 C 55.50 45.41 55.68 44.39 55.77 43.88 C 56.68 38.08 56.35 32.20 56.15 26.37 Z" />
</g>
<g id="#2f3849ff">
<path fill="#2f3849" opacity="1.00" d=" M 26.08 31.54 C 28.07 29.68 30.82 29.46 33.40 29.38 C 37.72 32.71 42.55 35.39 46.40 39.29 C 46.36 41.76 48.07 44.11 46.98 46.55 C 43.89 47.42 40.82 48.36 37.66 48.94 C 37.60 50.29 37.54 51.64 37.48 52.99 C 36.76 52.53 36.03 52.07 35.31 51.61 C 34.53 52.88 33.75 54.15 32.97 55.42 C 32.54 54.39 32.11 53.36 31.67 52.33 C 31.25 53.35 30.82 54.38 30.40 55.41 C 22.97 55.87 15.52 56.02 8.07 55.93 C 8.02 53.45 7.95 50.97 8.33 48.51 L 9.29 47.66 C 9.32 50.30 9.14 52.94 9.01 55.58 C 12.01 54.20 13.77 51.28 15.96 48.96 C 15.45 50.40 14.93 51.83 14.42 53.27 C 17.30 53.66 20.15 53.08 22.25 50.95 C 22.48 52.48 22.86 54.00 23.64 55.35 C 25.13 52.88 25.98 50.11 26.91 47.40 C 27.23 46.89 27.89 45.87 28.21 45.36 C 28.21 47.20 28.18 49.05 28.15 50.89 C 29.76 49.47 31.31 47.98 32.65 46.30 C 31.46 47.06 33.14 49.37 34.00 48.34 C 35.05 47.17 35.78 45.73 36.61 44.40 C 37.28 44.48 37.94 44.55 38.61 44.62 C 38.96 44.08 39.64 43.01 39.99 42.48 C 40.71 43.21 41.42 43.95 42.13 44.70 C 42.70 42.89 43.61 41.21 44.76 39.70 C 43.72 38.83 42.70 37.96 41.66 37.10 C 39.32 35.20 37.04 33.23 34.73 31.30 C 32.11 29.15 28.82 30.39 26.08 31.54 Z" />
</g>
<g id="#eee6deff">
<path fill="#eee6de" opacity="1.00" d=" M 26.08 31.54 C 28.82 30.39 32.11 29.15 34.73 31.30 C 34.66 34.13 32.89 36.01 30.67 37.47 C 30.56 37.92 30.33 38.83 30.22 39.29 L 29.99 40.21 C 26.08 40.53 22.12 41.82 18.26 40.45 C 20.83 37.48 25.14 35.60 26.08 31.54 Z" />
</g>
<g id="#9da1a4ff">
<path fill="#9da1a4" opacity="1.00" d=" M 16.79 39.50 C 19.77 36.71 22.90 34.09 26.08 31.54 C 25.14 35.60 20.83 37.48 18.26 40.45 C 22.12 41.82 26.08 40.53 29.99 40.21 C 29.54 41.39 28.88 42.48 28.22 43.55 C 26.85 43.18 25.48 42.83 24.10 42.48 C 23.76 42.78 23.08 43.39 22.74 43.69 L 22.48 43.91 C 20.85 42.94 19.03 42.42 17.13 42.36 C 17.05 41.65 16.87 40.21 16.79 39.50 Z" />
</g>
<g id="#b3b8bcff">
<path fill="#b3b8bc" opacity="1.00" d=" M 34.73 31.30 C 37.04 33.23 39.32 35.20 41.66 37.10 C 39.91 38.33 37.96 39.24 35.83 39.56 C 35.87 40.62 35.91 41.69 35.94 42.75 C 34.40 41.03 32.69 39.32 30.22 39.29 C 30.33 38.83 30.56 37.92 30.67 37.47 C 32.89 36.01 34.66 34.13 34.73 31.30 Z" />
</g>
<g id="#7d8a98ff">
<path fill="#7d8a98" opacity="1.00" d=" M 41.66 37.10 C 42.70 37.96 43.72 38.83 44.76 39.70 C 43.61 41.21 42.70 42.89 42.13 44.70 C 41.42 43.95 40.71 43.21 39.99 42.48 C 38.63 42.34 37.28 42.55 35.94 42.75 C 35.91 41.69 35.87 40.62 35.83 39.56 C 37.96 39.24 39.91 38.33 41.66 37.10 Z" />
</g>
<g id="#636f80ff">
<path fill="#636f80" opacity="1.00" d=" M 30.22 39.29 C 32.69 39.32 34.40 41.03 35.94 42.75 C 37.28 42.55 38.63 42.34 39.99 42.48 C 39.64 43.01 38.96 44.08 38.61 44.62 C 37.94 44.55 37.28 44.48 36.61 44.40 C 34.93 43.84 33.34 43.05 31.75 42.27 C 30.54 43.26 29.32 44.26 28.21 45.36 C 27.89 45.87 27.23 46.89 26.91 47.40 C 25.51 46.17 24.12 44.93 22.74 43.69 C 23.08 43.39 23.76 42.78 24.10 42.48 C 25.48 42.83 26.85 43.18 28.22 43.55 C 28.88 42.48 29.54 41.39 29.99 40.21 L 30.22 39.29 Z" />
</g>
<g id="#707585ff">
<path fill="#707585" opacity="1.00" d=" M 14.76 41.63 C 15.42 40.91 16.10 40.20 16.79 39.50 C 16.87 40.21 17.05 41.65 17.13 42.36 C 19.03 42.42 20.85 42.94 22.48 43.91 C 21.43 44.77 20.47 45.81 19.25 46.43 C 17.59 46.93 16.09 45.75 14.63 45.16 C 14.68 43.99 14.72 42.81 14.76 41.63 Z" />
</g>
<g id="#ebebebff">
<path fill="#ebebeb" opacity="1.00" d=" M 4.02 41.87 C 4.85 41.86 6.51 41.84 7.34 41.84 C 7.30 46.89 6.79 51.94 6.99 57.00 C 23.66 57.00 40.33 57.00 57.00 57.00 C 57.19 51.91 56.86 46.84 56.45 41.77 C 57.33 41.79 59.10 41.84 59.98 41.86 C 60.03 47.91 59.99 53.96 60.00 60.00 C 41.33 60.04 22.67 60.04 4.00 60.00 C 4.01 53.96 3.97 47.91 4.02 41.87 Z" />
</g>
<g id="#4c5461ff">
<path fill="#4c5461" opacity="1.00" d=" M 13.16 43.43 C 13.69 42.83 14.22 42.23 14.76 41.63 C 14.72 42.81 14.68 43.99 14.63 45.16 C 16.09 45.75 17.59 46.93 19.25 46.43 C 20.47 45.81 21.43 44.77 22.48 43.91 L 22.74 43.69 C 24.12 44.93 25.51 46.17 26.91 47.40 C 25.98 50.11 25.13 52.88 23.64 55.35 C 22.86 54.00 22.48 52.48 22.25 50.95 C 20.15 53.08 17.30 53.66 14.42 53.27 C 14.93 51.83 15.45 50.40 15.96 48.96 C 13.77 51.28 12.01 54.20 9.01 55.58 C 9.14 52.94 9.32 50.30 9.29 47.66 C 10.75 46.42 12.01 44.97 13.16 43.43 Z" />
</g>
<g id="#404a5bff">
<path fill="#404a5b" opacity="1.00" d=" M 28.21 45.36 C 29.32 44.26 30.54 43.26 31.75 42.27 C 33.34 43.05 34.93 43.84 36.61 44.40 C 35.78 45.73 35.05 47.17 34.00 48.34 C 33.14 49.37 31.46 47.06 32.65 46.30 C 31.31 47.98 29.76 49.47 28.15 50.89 C 28.18 49.05 28.21 47.20 28.21 45.36 Z" />
</g>
<g id="#00000055">
<path fill="#000000" opacity="0.33" d=" M 4.39 62.45 C 9.91 61.82 15.48 62.11 21.02 62.06 C 33.83 62.18 46.65 61.81 59.45 62.29 C 58.46 63.17 57.30 63.57 55.98 63.50 C 40.30 63.51 24.62 63.46 8.94 63.53 C 7.34 63.62 5.77 63.27 4.39 62.45 Z" />
</g>
</svg>
