<?xml version="1.0" encoding="UTF-8" ?>
<!DOCTYPE svg PUBLIC "-//W3C//DTD SVG 1.1//EN" "http://www.w3.org/Graphics/SVG/1.1/DTD/svg11.dtd">
<svg width="64pt" height="64pt" viewBox="0 0 64 64" version="1.1" xmlns="http://www.w3.org/2000/svg">
<g id="#0000005d">
<path fill="#000000" opacity="0.36" d=" M 4.24 3.89 C 7.98 2.26 12.11 3.05 16.05 2.98 C 29.03 3.00 42.02 3.09 55.01 2.88 C 56.67 2.82 58.25 3.35 59.80 3.89 C 41.28 4.07 22.76 4.07 4.24 3.89 Z" />
</g>
<g id="#fefefeff">
<path fill="#fefefe" opacity="1.00" d=" M 3.88 3.88 L 4.24 3.89 C 22.76 4.07 41.28 4.07 59.80 3.89 L 60.12 3.88 L 60.11 4.28 C 59.89 15.48 59.99 26.68 59.99 37.88 C 59.26 37.87 57.80 37.85 57.07 37.84 C 57.02 36.39 56.91 34.94 56.77 33.50 C 56.63 24.66 57.16 15.83 57.00 7.00 C 40.33 7.00 23.67 7.00 7.00 7.00 C 6.93 15.29 7.15 23.58 7.33 31.87 C 7.19 33.87 7.02 35.88 6.97 37.89 C 6.23 37.89 4.75 37.89 4.01 37.89 C 4.01 26.68 4.11 15.46 3.89 4.24 L 3.88 3.88 Z" />
</g>
<g id="#00000086">
<path fill="#000000" opacity="0.53" d=" M 3.06 11.06 C 3.01 8.76 3.32 6.47 3.89 4.24 C 4.11 15.46 4.01 26.68 4.01 37.89 C 3.98 45.26 4.01 52.63 4.00 60.00 C 22.67 60.04 41.33 60.04 60.00 60.00 C 59.99 52.63 60.02 45.25 59.99 37.88 C 59.99 26.68 59.89 15.48 60.11 4.28 C 60.56 6.14 60.93 8.03 60.92 9.95 C 60.88 25.31 60.88 40.67 60.92 56.02 C 60.97 58.23 60.43 60.39 59.92 62.52 C 48.64 61.53 37.30 62.29 25.99 62.07 C 18.70 62.16 11.37 61.69 4.10 62.54 C 2.59 57.85 3.19 52.89 3.10 48.05 C 3.09 35.72 3.15 23.39 3.06 11.06 Z" />
</g>
<g id="#406d95ff">
<path fill="#406d95" opacity="1.00" d=" M 7.00 7.00 C 23.67 7.00 40.33 7.00 57.00 7.00 C 57.16 15.83 56.63 24.66 56.77 33.50 L 55.95 31.80 C 55.89 30.21 55.86 28.61 55.81 27.02 C 55.77 24.09 55.77 21.17 55.77 18.24 C 55.71 15.13 55.76 11.97 55.11 8.91 C 39.69 7.85 24.15 8.38 8.69 8.68 C 8.25 14.15 8.07 19.64 8.07 25.13 C 8.02 27.96 8.08 30.79 8.13 33.62 L 7.33 31.87 C 7.15 23.58 6.93 15.29 7.00 7.00 Z" />
</g>
<g id="#659bcaff">
<path fill="#659bca" opacity="1.00" d=" M 8.69 8.68 C 24.15 8.38 39.69 7.85 55.11 8.91 C 55.76 11.97 55.71 15.13 55.77 18.24 C 50.37 15.27 44.76 12.38 38.58 11.51 C 36.58 11.07 34.76 12.18 33.00 12.93 C 32.69 11.38 32.35 9.84 32.00 8.29 C 31.27 11.23 30.55 14.17 30.21 17.18 C 29.42 15.78 28.64 14.39 27.85 12.99 C 22.18 14.18 16.52 15.73 11.34 18.36 C 8.60 19.41 8.52 22.68 8.07 25.13 C 8.07 19.64 8.25 14.15 8.69 8.68 Z" />
<path fill="#659bca" opacity="1.00" d=" M 28.00 51.84 C 28.80 51.57 29.59 51.30 30.39 51.03 C 30.61 52.97 30.81 54.91 30.93 56.86 C 26.78 56.53 22.60 56.30 18.45 56.84 L 18.74 56.63 C 19.15 56.35 19.98 55.79 20.39 55.51 C 23.63 55.72 26.88 55.87 30.12 56.00 C 30.07 54.63 30.00 53.25 29.93 51.87 C 29.45 51.86 28.48 51.85 28.00 51.84 Z" />
<path fill="#659bca" opacity="1.00" d=" M 33.14 51.01 C 33.94 51.20 34.73 51.41 35.52 51.63 C 33.40 51.38 34.13 54.59 33.35 55.85 C 36.77 55.85 40.20 55.75 43.61 55.52 C 44.01 55.79 44.80 56.33 45.20 56.60 L 45.50 56.83 C 41.48 56.30 37.41 56.52 33.39 56.83 C 33.28 54.89 33.18 52.95 33.14 51.01 Z" />
</g>
<g id="#ffffffff">
<path fill="#ffffff" opacity="1.00" d=" M 30.21 17.18 C 30.55 14.17 31.27 11.23 32.00 8.29 C 32.35 9.84 32.69 11.38 33.00 12.93 C 33.41 15.04 33.73 17.18 34.00 19.31 C 32.66 19.31 31.32 19.30 29.97 19.29 C 30.03 18.77 30.15 17.71 30.21 17.18 Z" />
<path fill="#ffffff" opacity="1.00" d=" M 26.76 32.87 C 30.25 32.87 33.75 32.87 37.24 32.87 C 36.91 34.39 36.59 35.91 36.27 37.43 C 33.42 37.46 30.58 37.46 27.74 37.43 C 27.42 35.91 27.09 34.39 26.76 32.87 Z" />
</g>
<g id="#84b3d4ff">
<path fill="#84b3d4" opacity="1.00" d=" M 33.00 12.93 C 34.76 12.18 36.58 11.07 38.58 11.51 C 44.76 12.38 50.37 15.27 55.77 18.24 C 55.77 21.17 55.77 24.09 55.81 27.02 C 52.39 19.75 43.41 19.01 36.53 17.20 C 35.73 18.26 34.93 19.33 34.13 20.39 L 34.00 19.31 C 33.73 17.18 33.41 15.04 33.00 12.93 Z" />
</g>
<g id="#90bbd8ff">
<path fill="#90bbd8" opacity="1.00" d=" M 11.34 18.36 C 16.52 15.73 22.18 14.18 27.85 12.99 C 28.64 14.39 29.42 15.78 30.21 17.18 C 30.15 17.71 30.03 18.77 29.97 19.29 C 29.84 20.65 29.72 22.00 29.57 23.35 C 28.86 22.00 28.15 20.66 27.43 19.32 C 22.02 20.53 16.54 21.96 11.74 24.84 C 8.46 26.65 8.66 30.93 8.17 34.16 L 8.13 33.62 C 8.08 30.79 8.02 27.96 8.07 25.13 C 8.52 22.68 8.60 19.41 11.34 18.36 Z" />
</g>
<g id="#b2cfdfff">
<path fill="#b2cfdf" opacity="1.00" d=" M 36.53 17.20 C 43.41 19.01 52.39 19.75 55.81 27.02 C 55.86 28.61 55.89 30.21 55.95 31.80 C 55.57 34.57 55.17 37.34 55.02 40.14 C 54.27 37.77 53.82 34.94 51.63 33.44 C 47.15 30.14 41.85 28.16 36.42 27.10 C 37.77 30.13 39.93 33.53 37.53 36.69 C 37.80 35.15 38.08 33.61 38.36 32.08 C 37.62 31.99 36.14 31.81 35.41 31.72 C 35.32 31.00 35.15 29.56 35.07 28.84 C 34.97 28.04 34.79 26.45 34.69 25.65 C 34.49 23.90 34.32 22.15 34.13 20.39 C 34.93 19.33 35.73 18.26 36.53 17.20 Z" />
</g>
<g id="#c0d9e3ff">
<path fill="#c0d9e3" opacity="1.00" d=" M 11.74 24.84 C 16.54 21.96 22.02 20.53 27.43 19.32 C 28.15 20.66 28.86 22.00 29.57 23.35 C 29.51 23.93 29.38 25.09 29.31 25.66 C 29.22 26.46 29.03 28.04 28.93 28.83 C 28.84 29.55 28.67 30.99 28.58 31.71 C 27.85 31.79 26.38 31.96 25.65 32.04 C 26.00 33.78 26.35 35.52 26.66 37.27 C 25.46 35.29 24.14 33.37 22.84 31.46 C 18.47 33.98 13.38 36.25 10.85 40.86 C 9.35 45.43 9.59 50.33 9.28 55.08 C 11.94 54.85 14.60 54.63 17.22 54.14 C 16.83 54.46 16.05 55.08 15.66 55.39 C 15.26 55.66 14.46 56.18 14.06 56.44 C 12.13 56.15 10.20 55.87 8.26 55.58 C 8.00 48.44 8.53 41.30 8.17 34.16 C 8.66 30.93 8.46 26.65 11.74 24.84 Z" />
</g>
<g id="#ff3f13ff">
<path fill="#ff3f13" opacity="1.00" d=" M 29.97 19.29 C 31.32 19.30 32.66 19.31 34.00 19.31 L 34.13 20.39 C 34.32 22.15 34.49 23.90 34.69 25.65 C 32.90 25.64 31.11 25.64 29.31 25.66 C 29.38 25.09 29.51 23.93 29.57 23.35 C 29.72 22.00 29.84 20.65 29.97 19.29 Z" />
</g>
<g id="#e6f5fdff">
<path fill="#e6f5fd" opacity="1.00" d=" M 29.31 25.66 C 31.11 25.64 32.90 25.64 34.69 25.65 C 34.79 26.45 34.97 28.04 35.07 28.84 C 33.02 28.83 30.98 28.83 28.93 28.83 C 29.03 28.04 29.22 26.46 29.31 25.66 Z" />
</g>
<g id="#dceaedff">
<path fill="#dceaed" opacity="1.00" d=" M 36.42 27.10 C 41.85 28.16 47.15 30.14 51.63 33.44 C 53.82 34.94 54.27 37.77 55.02 40.14 C 54.88 45.21 57.00 51.09 54.17 55.63 C 51.66 55.79 49.20 55.13 46.88 54.24 C 42.65 50.59 39.31 45.83 37.53 40.52 C 37.06 39.28 37.29 37.95 37.53 36.69 C 39.93 33.53 37.77 30.13 36.42 27.10 Z" />
</g>
<g id="#ff4721ff">
<path fill="#ff4721" opacity="1.00" d=" M 28.93 28.83 C 30.98 28.83 33.02 28.83 35.07 28.84 C 35.15 29.56 35.32 31.00 35.41 31.72 C 36.14 31.81 37.62 31.99 38.36 32.08 C 38.08 33.61 37.80 35.15 37.53 36.69 C 37.29 37.95 37.06 39.28 37.53 40.52 C 39.31 45.83 42.65 50.59 46.88 54.24 C 47.23 54.54 47.95 55.13 48.30 55.42 C 47.53 55.72 45.98 56.30 45.20 56.60 C 44.80 56.33 44.01 55.79 43.61 55.52 C 41.07 53.92 38.41 52.48 35.52 51.63 C 34.73 51.41 33.94 51.20 33.14 51.01 C 33.18 52.95 33.28 54.89 33.39 56.83 C 32.77 56.84 31.54 56.85 30.93 56.86 C 30.81 54.91 30.61 52.97 30.39 51.03 C 29.59 51.30 28.80 51.57 28.00 51.84 C 25.30 52.69 22.77 53.99 20.39 55.51 C 19.98 55.79 19.15 56.35 18.74 56.63 C 17.97 56.32 16.43 55.70 15.66 55.39 C 16.05 55.08 16.83 54.46 17.22 54.14 C 20.81 51.07 23.65 47.15 25.58 42.85 C 26.32 41.10 27.12 39.20 26.66 37.27 C 26.35 35.52 26.00 33.78 25.65 32.04 C 26.38 31.96 27.85 31.79 28.58 31.71 C 28.67 30.99 28.84 29.55 28.93 28.83 M 26.76 32.87 C 27.09 34.39 27.42 35.91 27.74 37.43 C 30.58 37.46 33.42 37.46 36.27 37.43 C 36.59 35.91 36.91 34.39 37.24 32.87 C 33.75 32.87 30.25 32.87 26.76 32.87 M 28.28 39.90 C 28.50 42.05 27.55 43.90 26.30 45.57 C 26.31 46.25 26.33 46.94 26.34 47.62 C 25.50 48.80 24.67 49.98 23.83 51.16 C 25.97 50.39 28.13 49.64 30.29 48.92 C 30.19 46.22 30.36 43.51 30.72 40.82 C 30.47 40.42 29.95 39.62 29.70 39.21 C 29.34 39.38 28.64 39.73 28.28 39.90 M 33.23 40.75 C 33.65 43.45 33.81 46.19 33.71 48.92 C 35.86 49.65 38.01 50.40 40.15 51.17 C 39.32 49.98 38.49 48.79 37.66 47.60 C 37.66 46.93 37.67 46.27 37.67 45.60 C 36.56 43.45 35.15 41.24 35.12 38.75 C 34.49 39.42 33.86 40.09 33.23 40.75 Z" />
</g>
<g id="#ddebeeff">
<path fill="#ddebee" opacity="1.00" d=" M 10.85 40.86 C 13.38 36.25 18.47 33.98 22.84 31.46 C 24.14 33.37 25.46 35.29 26.66 37.27 C 27.12 39.20 26.32 41.10 25.58 42.85 C 23.65 47.15 20.81 51.07 17.22 54.14 C 14.60 54.63 11.94 54.85 9.28 55.08 C 9.59 50.33 9.35 45.43 10.85 40.86 Z" />
</g>
<g id="#99a9adff">
<path fill="#99a9ad" opacity="1.00" d=" M 7.33 31.87 L 8.13 33.62 L 8.17 34.16 C 8.53 41.30 8.00 48.44 8.26 55.58 C 10.20 55.87 12.13 56.15 14.06 56.44 L 14.40 56.90 C 11.93 56.85 9.46 56.93 6.99 57.01 C 7.16 50.63 6.97 44.26 6.97 37.89 C 7.02 35.88 7.19 33.87 7.33 31.87 Z" />
</g>
<g id="#acbabeff">
<path fill="#acbabe" opacity="1.00" d=" M 55.95 31.80 L 56.77 33.50 C 56.91 34.94 57.02 36.39 57.07 37.84 C 57.09 44.23 57.04 50.62 57.01 57.01 C 54.67 56.99 52.33 56.99 49.99 57.03 C 49.57 56.63 48.73 55.82 48.30 55.42 C 47.95 55.13 47.23 54.54 46.88 54.24 C 49.20 55.13 51.66 55.79 54.17 55.63 C 57.00 51.09 54.88 45.21 55.02 40.14 C 55.17 37.34 55.57 34.57 55.95 31.80 Z" />
</g>
<g id="#eaeaeaff">
<path fill="#eaeaea" opacity="1.00" d=" M 4.01 37.89 C 4.75 37.89 6.23 37.89 6.97 37.89 C 6.97 44.26 7.16 50.63 6.99 57.01 C 9.46 56.93 11.93 56.85 14.40 56.90 C 15.75 57.04 17.11 57.05 18.45 56.84 C 22.60 56.30 26.78 56.53 30.93 56.86 C 31.54 56.85 32.77 56.84 33.39 56.83 C 37.41 56.52 41.48 56.30 45.50 56.83 C 46.98 57.05 48.49 57.10 49.99 57.03 C 52.33 56.99 54.67 56.99 57.01 57.01 C 57.04 50.62 57.09 44.23 57.07 37.84 C 57.80 37.85 59.26 37.87 59.99 37.88 C 60.02 45.25 59.99 52.63 60.00 60.00 C 41.33 60.04 22.67 60.04 4.00 60.00 C 4.01 52.63 3.98 45.26 4.01 37.89 Z" />
</g>
<g id="#da9086ff">
<path fill="#da9086" opacity="1.00" d=" M 28.28 39.90 C 28.64 39.73 29.34 39.38 29.70 39.21 C 29.95 39.62 30.47 40.42 30.72 40.82 C 30.36 43.51 30.19 46.22 30.29 48.92 C 28.13 49.64 25.97 50.39 23.83 51.16 C 24.67 49.98 25.50 48.80 26.34 47.62 C 26.33 46.94 26.31 46.25 26.30 45.57 C 27.55 43.90 28.50 42.05 28.28 39.90 Z" />
<path fill="#da9086" opacity="1.00" d=" M 33.23 40.75 C 33.86 40.09 34.49 39.42 35.12 38.75 C 35.15 41.24 36.56 43.45 37.67 45.60 C 37.67 46.27 37.66 46.93 37.66 47.60 C 38.49 48.79 39.32 49.98 40.15 51.17 C 38.01 50.40 35.86 49.65 33.71 48.92 C 33.81 46.19 33.65 43.45 33.23 40.75 Z" />
</g>
<g id="#e1eff1ff">
<path fill="#e1eff1" opacity="1.00" d=" M 20.39 55.51 C 22.77 53.99 25.30 52.69 28.00 51.84 C 28.48 51.85 29.45 51.86 29.93 51.87 C 30.00 53.25 30.07 54.63 30.12 56.00 C 26.88 55.87 23.63 55.72 20.39 55.51 Z" />
</g>
<g id="#e3eff1ff">
<path fill="#e3eff1" opacity="1.00" d=" M 33.35 55.85 C 34.13 54.59 33.40 51.38 35.52 51.63 C 38.41 52.48 41.07 53.92 43.61 55.52 C 40.20 55.75 36.77 55.85 33.35 55.85 Z" />
</g>
<g id="#c42f1bff">
<path fill="#c42f1b" opacity="1.00" d=" M 14.06 56.44 C 14.46 56.18 15.26 55.66 15.66 55.39 C 16.43 55.70 17.97 56.32 18.74 56.63 L 18.45 56.84 C 17.11 57.05 15.75 57.04 14.40 56.90 L 14.06 56.44 Z" />
<path fill="#c42f1b" opacity="1.00" d=" M 45.20 56.60 C 45.98 56.30 47.53 55.72 48.30 55.42 C 48.73 55.82 49.57 56.63 49.99 57.03 C 48.49 57.10 46.98 57.05 45.50 56.83 L 45.20 56.60 Z" />
</g>
<g id="#00000055">
<path fill="#000000" opacity="0.33" d=" M 4.10 62.54 C 11.37 61.69 18.70 62.16 25.99 62.07 C 37.30 62.29 48.64 61.53 59.92 62.52 C 56.12 64.07 51.98 63.42 47.99 63.50 C 35.34 63.51 22.68 63.44 10.02 63.55 C 7.99 63.65 6.02 63.12 4.10 62.54 Z" />
</g>
</svg>
