<?xml version="1.0" encoding="UTF-8" ?>
<!DOCTYPE svg PUBLIC "-//W3C//DTD SVG 1.1//EN" "http://www.w3.org/Graphics/SVG/1.1/DTD/svg11.dtd">
<svg width="64pt" height="64pt" viewBox="0 0 64 64" version="1.1" xmlns="http://www.w3.org/2000/svg">
<g id="#00000033">
<path fill="#000000" opacity="0.20" d=" M 0.00 0.00 L 64.00 0.00 L 64.00 64.00 L 0.00 64.00 L 0.00 0.00 M 4.04 4.03 C 3.96 22.67 3.98 41.32 4.03 59.96 C 22.67 60.04 41.32 60.02 59.96 59.97 C 60.04 41.33 60.02 22.68 59.97 4.04 C 41.33 3.96 22.68 3.98 4.04 4.03 Z" />
</g>
<g id="#c8e8f6ff">
<path fill="#c8e8f6" opacity="1.00" d=" M 4.04 4.03 C 22.68 3.98 41.33 3.96 59.97 4.04 C 60.02 22.68 60.04 41.33 59.96 59.97 C 41.32 60.02 22.67 60.04 4.03 59.96 C 3.98 41.32 3.96 22.67 4.04 4.03 M 6.96 24.02 C 7.00 24.46 7.09 25.36 7.14 25.81 C 6.93 28.59 6.86 31.38 6.92 34.17 C 6.96 34.59 7.04 35.42 7.08 35.84 C 6.90 42.87 6.95 49.91 7.04 56.94 C 11.70 57.17 16.37 57.02 21.04 56.94 C 27.97 57.15 34.91 57.03 41.84 56.91 C 46.88 57.16 51.92 56.99 56.96 56.96 C 57.06 51.63 57.08 46.31 57.00 40.98 C 56.99 40.50 56.96 39.53 56.95 39.04 C 57.12 35.62 57.03 32.18 56.88 28.77 C 56.90 28.06 56.95 26.64 56.98 25.93 C 56.70 19.74 58.09 13.05 55.82 7.14 C 49.21 6.69 42.55 7.05 35.93 7.05 C 35.21 7.05 33.76 7.03 33.04 7.03 C 27.30 6.91 21.56 6.93 15.83 7.12 C 15.37 7.07 14.45 6.98 13.99 6.94 C 2.28 3.46 8.50 18.31 6.96 24.02 Z" />
<path fill="#c8e8f6" opacity="1.00" d=" M 8.96 13.99 C 5.44 6.24 12.35 9.30 15.72 10.12 C 16.78 12.97 18.69 15.38 20.39 17.87 C 19.83 19.96 18.64 21.78 17.53 23.60 C 15.19 25.84 11.67 23.15 9.09 23.88 C 9.05 21.41 8.99 16.46 8.96 13.99 Z" />
<path fill="#c8e8f6" opacity="1.00" d=" M 19.18 9.19 C 23.77 8.64 28.41 9.12 33.01 9.00 C 32.56 11.48 34.84 16.04 31.25 16.27 C 29.23 16.21 27.21 16.35 25.19 16.43 C 22.96 15.12 21.40 12.88 19.03 11.77 L 18.57 11.10 C 18.73 10.62 19.03 9.67 19.18 9.19 Z" />
<path fill="#c8e8f6" opacity="1.00" d=" M 36.98 9.05 C 42.37 8.92 47.76 8.92 53.16 9.05 C 52.17 10.30 51.10 11.47 50.05 12.66 L 49.12 13.01 C 46.84 12.73 44.82 14.64 45.03 16.93 C 44.55 17.27 43.58 17.94 43.09 18.28 C 38.79 17.01 34.41 14.94 36.98 9.05 Z" />
<path fill="#c8e8f6" opacity="1.00" d=" M 46.98 20.15 C 51.14 18.93 51.26 13.85 54.85 11.86 C 55.14 16.20 55.36 20.55 55.66 24.89 C 53.76 26.14 51.64 26.96 49.30 27.35 C 47.50 25.46 46.77 22.71 46.98 20.15 Z" />
<path fill="#c8e8f6" opacity="1.00" d=" M 24.08 24.08 C 26.13 23.40 28.21 22.60 30.40 22.49 C 28.63 24.78 25.68 25.37 23.04 26.09 C 23.30 25.59 23.82 24.58 24.08 24.08 Z" />
<path fill="#c8e8f6" opacity="1.00" d=" M 14.35 32.33 C 10.11 35.95 5.48 30.78 8.93 26.66 C 10.58 27.29 12.30 27.77 14.06 28.00 C 14.51 29.29 15.75 31.24 14.35 32.33 Z" />
<path fill="#c8e8f6" opacity="1.00" d=" M 32.21 27.06 C 33.61 26.77 35.11 27.02 35.39 28.65 C 37.03 28.66 39.16 29.62 37.04 31.03 C 34.18 31.97 35.75 36.15 33.09 37.08 C 32.01 34.37 32.41 30.94 29.36 29.59 C 30.28 28.71 31.27 27.91 32.21 27.06 Z" />
<path fill="#c8e8f6" opacity="1.00" d=" M 49.96 34.88 C 49.18 31.80 51.25 30.45 53.91 29.79 C 55.60 29.65 56.30 30.39 56.00 32.04 C 60.28 38.64 51.53 38.52 49.96 34.88 Z" />
<path fill="#c8e8f6" opacity="1.00" d=" M 8.05 37.17 C 9.44 36.96 10.83 36.79 12.23 36.67 C 12.65 36.77 13.49 36.98 13.91 37.09 C 14.11 38.61 14.50 41.66 14.69 43.19 C 14.94 44.53 15.33 45.85 15.79 47.14 C 15.81 49.46 18.39 48.77 19.93 49.27 C 19.92 50.65 19.90 53.40 19.89 54.78 C 16.45 56.17 10.99 57.52 8.17 54.76 C 7.55 48.93 8.07 43.02 8.05 37.17 Z" />
<path fill="#c8e8f6" opacity="1.00" d=" M 50.24 41.19 C 51.88 40.94 53.53 40.85 55.17 40.74 L 56.06 40.87 C 54.99 45.57 58.00 51.94 54.75 55.89 C 51.06 54.80 41.95 59.26 42.65 52.74 L 42.85 51.85 C 44.30 52.35 47.36 52.71 46.96 50.29 L 47.00 49.48 C 48.97 47.14 51.27 44.80 50.24 41.19 Z" />
</g>
<g id="#6aacbcff">
<path fill="#6aacbc" opacity="1.00" d=" M 6.96 24.02 C 8.50 18.31 2.28 3.46 13.99 6.94 C 14.60 7.98 15.24 9.01 15.72 10.12 C 12.35 9.30 5.44 6.24 8.96 13.99 C 8.99 16.46 9.05 21.41 9.09 23.88 C 11.67 23.15 15.19 25.84 17.53 23.60 C 18.64 21.78 19.83 19.96 20.39 17.87 C 20.73 18.23 21.41 18.95 21.75 19.32 C 20.17 22.07 18.45 25.07 15.91 27.00 C 12.83 26.36 9.89 25.15 6.96 24.02 Z" />
<path fill="#6aacbc" opacity="1.00" d=" M 15.83 7.12 C 21.56 6.93 27.30 6.91 33.04 7.03 C 33.03 7.52 33.01 8.51 33.01 9.00 C 28.41 9.12 23.77 8.64 19.18 9.19 C 19.03 9.67 18.73 10.62 18.57 11.10 C 17.60 9.81 16.72 8.46 15.83 7.12 Z" />
<path fill="#6aacbc" opacity="1.00" d=" M 35.93 7.05 C 42.55 7.05 49.21 6.69 55.82 7.14 C 58.09 13.05 56.70 19.74 56.98 25.93 C 54.85 27.42 51.24 30.93 49.30 27.35 C 51.64 26.96 53.76 26.14 55.66 24.89 C 55.36 20.55 55.14 16.20 54.85 11.86 C 51.26 13.85 51.14 18.93 46.98 20.15 C 47.57 17.50 51.72 15.85 50.05 12.66 C 51.10 11.47 52.17 10.30 53.16 9.05 C 47.76 8.92 42.37 8.92 36.98 9.05 C 34.41 14.94 38.79 17.01 43.09 18.28 C 40.92 20.07 38.35 17.47 36.22 16.71 C 35.65 13.53 35.18 10.23 35.93 7.05 Z" />
<path fill="#6aacbc" opacity="1.00" d=" M 19.03 11.77 C 21.40 12.88 22.96 15.12 25.19 16.43 C 27.21 16.35 29.23 16.21 31.25 16.27 C 28.65 17.03 26.00 18.30 23.22 17.87 C 21.47 16.11 20.30 13.89 19.03 11.77 Z" />
<path fill="#6aacbc" opacity="1.00" d=" M 45.03 16.93 C 44.82 14.64 46.84 12.73 49.12 13.01 C 48.21 14.72 46.83 16.16 45.03 16.93 Z" />
<path fill="#6aacbc" opacity="1.00" d=" M 30.40 22.49 C 33.20 22.43 36.00 22.15 38.79 22.11 C 39.62 23.27 40.09 25.05 41.86 24.47 C 44.23 26.43 46.76 28.87 47.02 32.10 C 42.62 28.64 38.26 23.36 32.04 24.05 C 27.01 26.07 22.35 28.91 17.92 32.03 C 17.91 29.81 20.15 28.81 20.97 26.98 C 21.75 25.64 21.98 23.47 24.08 24.08 C 23.82 24.58 23.30 25.59 23.04 26.09 C 25.68 25.37 28.63 24.78 30.40 22.49 Z" />
<path fill="#6aacbc" opacity="1.00" d=" M 7.14 25.81 C 7.58 26.02 8.48 26.44 8.93 26.66 C 5.48 30.78 10.11 35.95 14.35 32.33 C 15.75 31.24 14.51 29.29 14.06 28.00 C 18.04 27.49 15.51 32.72 14.84 34.94 C 12.18 35.10 9.53 34.62 6.92 34.17 C 6.86 31.38 6.93 28.59 7.14 25.81 Z" />
<path fill="#6aacbc" opacity="1.00" d=" M 24.90 30.83 C 26.11 28.43 29.75 27.82 32.21 27.06 C 31.27 27.91 30.28 28.71 29.36 29.59 C 32.41 30.94 32.01 34.37 33.09 37.08 C 35.75 36.15 34.18 31.97 37.04 31.03 C 36.71 32.86 34.62 36.30 37.92 36.28 C 38.07 37.61 37.54 38.84 37.17 40.08 C 39.34 40.61 38.93 38.45 39.19 37.03 C 41.44 36.37 42.49 37.81 42.84 39.83 C 40.27 40.79 39.28 43.20 38.59 45.67 C 37.46 49.02 32.75 46.58 30.05 46.91 C 25.28 46.52 26.14 40.53 24.96 37.15 C 25.75 37.07 27.34 36.92 28.14 36.84 C 25.21 36.02 24.19 30.10 31.05 33.88 C 31.58 30.90 26.96 29.79 24.90 30.83 Z" />
<path fill="#6aacbc" opacity="1.00" d=" M 53.91 29.79 C 54.88 29.40 55.87 29.06 56.88 28.77 C 57.03 32.18 57.12 35.62 56.95 39.04 C 55.24 39.01 51.81 38.96 50.09 38.93 C 49.99 37.58 49.95 36.23 49.96 34.88 C 51.53 38.52 60.28 38.64 56.00 32.04 C 56.30 30.39 55.60 29.65 53.91 29.79 Z" />
<path fill="#6aacbc" opacity="1.00" d=" M 38.12 33.26 C 39.29 33.18 41.69 34.18 40.78 35.71 C 39.47 36.61 35.66 34.53 38.12 33.26 Z" />
<path fill="#6aacbc" opacity="1.00" d=" M 7.08 35.84 C 8.81 36.02 10.55 36.18 12.23 36.67 C 10.83 36.79 9.44 36.96 8.05 37.17 C 8.07 43.02 7.55 48.93 8.17 54.76 C 10.99 57.52 16.45 56.17 19.89 54.78 C 19.90 53.40 19.92 50.65 19.93 49.27 C 18.39 48.77 15.81 49.46 15.79 47.14 C 17.46 47.60 19.16 47.90 20.85 48.28 C 21.16 51.16 21.00 54.05 21.04 56.94 C 16.37 57.02 11.70 57.17 7.04 56.94 C 6.95 49.91 6.90 42.87 7.08 35.84 Z" />
<path fill="#6aacbc" opacity="1.00" d=" M 13.91 37.09 C 14.93 37.26 15.95 37.37 16.97 37.50 C 16.34 39.45 15.39 41.27 14.69 43.19 C 14.50 41.66 14.11 38.61 13.91 37.09 Z" />
<path fill="#6aacbc" opacity="1.00" d=" M 49.19 39.99 C 50.68 40.18 53.68 40.55 55.17 40.74 C 53.53 40.85 51.88 40.94 50.24 41.19 C 51.27 44.80 48.97 47.14 47.00 49.48 C 46.31 48.39 45.64 47.30 45.03 46.17 C 48.70 46.36 50.97 45.03 49.19 39.99 Z" />
<path fill="#6aacbc" opacity="1.00" d=" M 56.06 40.87 L 57.00 40.98 C 57.08 46.31 57.06 51.63 56.96 56.96 C 51.92 56.99 46.88 57.16 41.84 56.91 C 42.07 55.51 42.31 54.11 42.65 52.74 C 41.95 59.26 51.06 54.80 54.75 55.89 C 58.00 51.94 54.99 45.57 56.06 40.87 Z" />
<path fill="#6aacbc" opacity="1.00" d=" M 42.85 51.85 C 42.73 49.38 45.46 50.36 46.96 50.29 C 47.36 52.71 44.30 52.35 42.85 51.85 Z" />
</g>
<g id="#225b64ff">
<path fill="#225b64" opacity="1.00" d=" M 13.99 6.94 C 14.45 6.98 15.37 7.07 15.83 7.12 C 16.72 8.46 17.60 9.81 18.57 11.10 L 19.03 11.77 C 20.30 13.89 21.47 16.11 23.22 17.87 C 26.00 18.30 28.65 17.03 31.25 16.27 C 34.84 16.04 32.56 11.48 33.01 9.00 C 33.01 8.51 33.03 7.52 33.04 7.03 C 33.76 7.03 35.21 7.05 35.93 7.05 C 35.18 10.23 35.65 13.53 36.22 16.71 C 38.35 17.47 40.92 20.07 43.09 18.28 C 43.58 17.94 44.55 17.27 45.03 16.93 C 46.83 16.16 48.21 14.72 49.12 13.01 L 50.05 12.66 C 51.72 15.85 47.57 17.50 46.98 20.15 C 46.77 22.71 47.50 25.46 49.30 27.35 C 51.24 30.93 54.85 27.42 56.98 25.93 C 56.95 26.64 56.90 28.06 56.88 28.77 C 55.87 29.06 54.88 29.40 53.91 29.79 C 51.25 30.45 49.18 31.80 49.96 34.88 C 49.95 36.23 49.99 37.58 50.09 38.93 C 51.81 38.96 55.24 39.01 56.95 39.04 C 56.96 39.53 56.99 40.50 57.00 40.98 L 56.06 40.87 L 55.17 40.74 C 53.68 40.55 50.68 40.18 49.19 39.99 C 50.97 45.03 48.70 46.36 45.03 46.17 C 45.64 47.30 46.31 48.39 47.00 49.48 L 46.96 50.29 C 45.46 50.36 42.73 49.38 42.85 51.85 L 42.65 52.74 C 42.31 54.11 42.07 55.51 41.84 56.91 C 34.91 57.03 27.97 57.15 21.04 56.94 C 21.00 54.05 21.16 51.16 20.85 48.28 C 19.16 47.90 17.46 47.60 15.79 47.14 C 15.33 45.85 14.94 44.53 14.69 43.19 C 15.39 41.27 16.34 39.45 16.97 37.50 C 15.95 37.37 14.93 37.26 13.91 37.09 C 13.49 36.98 12.65 36.77 12.23 36.67 C 10.55 36.18 8.81 36.02 7.08 35.84 C 7.04 35.42 6.96 34.59 6.92 34.17 C 9.53 34.62 12.18 35.10 14.84 34.94 C 15.51 32.72 18.04 27.49 14.06 28.00 C 12.30 27.77 10.58 27.29 8.93 26.66 C 8.48 26.44 7.58 26.02 7.14 25.81 C 7.09 25.36 7.00 24.46 6.96 24.02 C 9.89 25.15 12.83 26.36 15.91 27.00 C 18.45 25.07 20.17 22.07 21.75 19.32 C 21.41 18.95 20.73 18.23 20.39 17.87 C 18.69 15.38 16.78 12.97 15.72 10.12 C 15.24 9.01 14.60 7.98 13.99 6.94 M 24.08 24.08 C 21.98 23.47 21.75 25.64 20.97 26.98 C 20.15 28.81 17.91 29.81 17.92 32.03 C 22.35 28.91 27.01 26.07 32.04 24.05 C 38.26 23.36 42.62 28.64 47.02 32.10 C 46.76 28.87 44.23 26.43 41.86 24.47 C 40.09 25.05 39.62 23.27 38.79 22.11 C 36.00 22.15 33.20 22.43 30.40 22.49 C 28.21 22.60 26.13 23.40 24.08 24.08 M 24.90 30.83 C 26.96 29.79 31.58 30.90 31.05 33.88 C 24.19 30.10 25.21 36.02 28.14 36.84 C 27.34 36.92 25.75 37.07 24.96 37.15 C 26.14 40.53 25.28 46.52 30.05 46.91 C 32.75 46.58 37.46 49.02 38.59 45.67 C 39.28 43.20 40.27 40.79 42.84 39.83 C 42.49 37.81 41.44 36.37 39.19 37.03 C 38.93 38.45 39.34 40.61 37.17 40.08 C 37.54 38.84 38.07 37.61 37.92 36.28 C 34.62 36.30 36.71 32.86 37.04 31.03 C 39.16 29.62 37.03 28.66 35.39 28.65 C 35.11 27.02 33.61 26.77 32.21 27.06 C 29.75 27.82 26.11 28.43 24.90 30.83 M 38.12 33.26 C 35.66 34.53 39.47 36.61 40.78 35.71 C 41.69 34.18 39.29 33.18 38.12 33.26 Z" />
</g>
</svg>
