<?xml version="1.0" encoding="UTF-8" ?>
<!DOCTYPE svg PUBLIC "-//W3C//DTD SVG 1.1//EN" "http://www.w3.org/Graphics/SVG/1.1/DTD/svg11.dtd">
<svg width="64pt" height="64pt" viewBox="0 0 64 64" version="1.1" xmlns="http://www.w3.org/2000/svg">
<g id="#aeaeaeff">
<path fill="#aeaeae" opacity="1.00" d=" M 26.67 5.58 C 31.81 2.72 37.89 3.58 43.52 3.48 L 43.41 4.22 C 45.65 4.19 46.91 5.47 46.69 7.77 L 47.47 7.27 C 47.56 11.78 47.42 16.28 47.41 20.79 L 46.52 20.14 C 46.76 25.58 46.43 31.02 46.26 36.46 L 45.44 36.40 C 45.51 37.08 45.66 38.43 45.73 39.11 C 45.98 40.04 46.48 41.89 46.73 42.82 L 47.42 42.23 C 47.43 47.38 47.54 52.53 47.53 57.68 L 46.21 57.26 L 46.54 58.88 C 46.00 58.71 44.91 58.38 44.37 58.21 L 44.66 59.42 C 38.06 61.28 31.15 60.41 24.40 60.43 C 24.42 60.12 24.46 59.49 24.48 59.18 C 24.01 59.35 23.06 59.70 22.58 59.88 L 22.52 58.38 C 22.05 58.48 21.12 58.69 20.66 58.79 L 20.56 57.86 C 20.22 57.51 19.54 56.81 19.21 56.47 L 18.39 56.43 C 18.33 54.30 18.38 52.15 18.95 50.09 C 19.41 48.98 19.98 47.93 20.65 46.95 L 19.92 45.75 C 22.06 45.98 24.20 45.71 25.88 44.26 L 25.02 43.53 C 27.10 43.52 28.97 42.51 30.75 41.55 C 28.50 40.83 26.35 41.96 24.38 42.93 C 24.50 43.09 24.74 43.42 24.87 43.59 C 22.30 43.50 19.72 43.50 17.15 43.48 C 17.30 40.09 19.04 36.94 18.49 33.49 C 18.87 32.73 19.64 31.21 20.02 30.45 C 19.12 30.48 17.31 30.53 16.41 30.55 C 16.50 30.27 16.69 29.72 16.78 29.44 C 15.95 29.43 14.28 29.40 13.44 29.39 C 13.46 29.06 13.51 28.40 13.53 28.07 C 18.06 24.02 22.53 19.75 25.80 14.58 C 26.00 14.55 26.41 14.48 26.62 14.44 C 26.48 12.99 26.19 10.10 26.05 8.65 C 25.74 10.66 25.13 14.67 24.83 16.67 L 24.40 10.35 L 22.60 10.63 C 23.79 9.45 24.79 8.12 25.72 6.74 C 25.96 6.45 26.43 5.87 26.67 5.58 Z" />
</g>
</svg>
