<?xml version="1.0" encoding="UTF-8" ?>
<!DOCTYPE svg PUBLIC "-//W3C//DTD SVG 1.1//EN" "http://www.w3.org/Graphics/SVG/1.1/DTD/svg11.dtd">
<svg width="64pt" height="64pt" viewBox="0 0 64 64" version="1.1" xmlns="http://www.w3.org/2000/svg">
<g id="#f89f1dff">
<path fill="#f89f1d" opacity="1.00" d=" M 4.22 29.53 C 5.27 15.64 18.01 3.81 32.02 4.22 C 46.00 3.83 58.72 15.63 59.78 29.51 C 60.12 35.69 58.76 42.03 55.30 47.22 C 50.28 54.93 41.28 59.94 32.05 59.80 C 21.59 60.02 11.43 53.56 6.96 44.13 C 4.72 39.63 4.00 34.52 4.22 29.53 M 16.20 13.34 L 15.99 13.33 C 15.08 14.41 14.16 15.49 13.25 16.57 C 12.55 17.88 11.86 19.19 11.16 20.50 L 10.39 20.19 L 10.49 20.83 C 7.00 24.56 7.10 29.74 7.32 34.52 L 8.18 34.49 C 7.47 45.32 15.97 55.34 26.47 57.31 C 32.60 58.24 39.24 57.92 44.60 54.48 C 51.82 50.73 56.04 42.53 55.82 34.52 L 56.68 34.56 C 56.90 29.75 57.00 24.53 53.51 20.75 L 53.64 19.95 L 52.78 20.32 C 52.10 19.07 51.43 17.82 50.75 16.57 C 49.84 15.49 48.93 14.41 48.02 13.33 L 47.80 13.34 C 39.30 5.30 24.71 5.31 16.20 13.34 Z" />
</g>
<g id="#ffedc3ff">
<path fill="#ffedc3" opacity="1.00" d=" M 16.20 13.34 C 24.71 5.31 39.30 5.30 47.80 13.34 C 37.28 13.87 26.72 13.83 16.20 13.34 Z" />
</g>
<g id="#ffe7a8ff">
<path fill="#ffe7a8" opacity="1.00" d=" M 15.99 13.33 L 16.20 13.34 C 26.72 13.83 37.28 13.87 47.80 13.34 L 48.02 13.33 C 48.93 14.41 49.84 15.49 50.75 16.57 C 47.87 17.40 44.98 18.22 42.10 19.04 C 41.42 17.97 40.67 16.96 39.94 15.94 C 39.17 16.76 38.37 17.57 37.64 18.43 C 33.90 17.76 30.09 17.76 26.36 18.41 C 25.62 17.56 24.83 16.75 24.06 15.94 C 23.32 16.96 22.58 17.98 21.90 19.04 C 19.01 18.22 16.13 17.40 13.25 16.57 C 14.16 15.49 15.08 14.41 15.99 13.33 Z" />
</g>
<g id="#ffde8aff">
<path fill="#ffde8a" opacity="1.00" d=" M 11.16 20.50 C 11.86 19.19 12.55 17.88 13.25 16.57 C 16.13 17.40 19.01 18.22 21.90 19.04 C 21.65 20.30 21.46 21.57 21.32 22.84 C 17.85 22.52 14.36 21.96 11.16 20.50 Z" />
<path fill="#ffde8a" opacity="1.00" d=" M 50.75 16.57 C 51.43 17.82 52.10 19.07 52.78 20.32 C 49.61 21.83 46.13 22.41 42.68 22.86 C 42.54 21.58 42.34 20.30 42.10 19.04 C 44.98 18.22 47.87 17.40 50.75 16.57 Z" />
<path fill="#ffde8a" opacity="1.00" d=" M 26.36 18.41 C 30.09 17.76 33.90 17.76 37.64 18.43 C 37.28 19.79 36.95 21.16 36.71 22.55 C 33.57 22.41 30.43 22.41 27.29 22.58 C 27.05 21.17 26.71 19.79 26.36 18.41 Z" />
</g>
<g id="#613a03ff">
<path fill="#613a03" opacity="1.00" d=" M 21.90 19.04 C 22.58 17.98 23.32 16.96 24.06 15.94 C 24.83 16.75 25.62 17.56 26.36 18.41 C 26.71 19.79 27.05 21.17 27.29 22.58 C 27.28 23.37 27.27 24.95 27.26 25.74 C 27.16 26.46 26.95 27.88 26.85 28.59 C 26.90 25.34 26.34 22.11 25.42 19.00 C 24.69 19.12 23.25 19.36 22.52 19.48 C 22.41 23.19 22.36 26.90 22.27 30.62 C 21.96 29.34 21.69 28.05 21.46 26.75 C 21.37 25.45 21.32 24.15 21.32 22.84 C 21.46 21.57 21.65 20.30 21.90 19.04 Z" />
<path fill="#613a03" opacity="1.00" d=" M 37.64 18.43 C 38.37 17.57 39.17 16.76 39.94 15.94 C 40.67 16.96 41.42 17.97 42.10 19.04 C 42.34 20.30 42.54 21.58 42.68 22.86 C 42.68 24.15 42.63 25.44 42.54 26.72 C 42.31 28.03 42.05 29.33 41.75 30.63 C 41.65 26.99 41.59 23.35 41.47 19.71 C 40.81 19.35 39.50 18.62 38.85 18.26 C 37.73 21.60 37.11 25.09 37.15 28.61 C 37.05 27.90 36.84 26.47 36.74 25.76 C 36.73 24.96 36.72 23.36 36.71 22.55 C 36.95 21.16 37.28 19.79 37.64 18.43 Z" />
<path fill="#613a03" opacity="1.00" d=" M 13.30 35.58 C 18.87 36.44 24.35 38.08 30.04 38.03 C 36.96 38.44 43.72 36.85 50.47 35.58 C 50.41 40.63 47.82 45.12 44.40 48.67 C 44.55 47.69 44.85 45.73 45.00 44.75 C 41.35 45.46 37.69 46.25 33.97 46.42 C 28.10 46.82 22.35 44.89 16.47 45.50 C 14.63 42.49 13.43 39.13 13.30 35.58 M 15.79 38.43 C 15.69 41.24 18.02 43.00 20.66 42.98 C 27.73 44.95 35.24 44.89 42.37 43.26 C 45.03 42.81 48.24 41.66 47.92 38.37 C 37.35 40.61 26.39 40.36 15.79 38.43 Z" />
</g>
<g id="#a96b13ff">
<path fill="#a96b13" opacity="1.00" d=" M 22.52 19.48 C 23.25 19.36 24.69 19.12 25.42 19.00 C 26.34 22.11 26.90 25.34 26.85 28.59 C 26.63 29.94 25.81 31.09 24.83 32.01 C 23.74 32.16 23.06 31.17 22.27 30.62 C 22.36 26.90 22.41 23.19 22.52 19.48 Z" />
<path fill="#a96b13" opacity="1.00" d=" M 38.85 18.26 C 39.50 18.62 40.81 19.35 41.47 19.71 C 41.59 23.35 41.65 26.99 41.75 30.63 C 40.94 31.19 40.22 32.06 39.15 32.05 C 38.23 31.09 37.38 29.96 37.15 28.61 C 37.11 25.09 37.73 21.60 38.85 18.26 Z" />
</g>
<g id="#ffd663ff">
<path fill="#ffd663" opacity="1.00" d=" M 10.39 20.19 L 11.16 20.50 C 14.36 21.96 17.85 22.52 21.32 22.84 C 21.32 24.15 21.37 25.45 21.46 26.75 C 18.16 27.18 14.84 27.48 11.51 27.60 C 11.18 25.34 10.85 23.08 10.49 20.83 L 10.39 20.19 Z" />
<path fill="#ffd663" opacity="1.00" d=" M 52.78 20.32 L 53.64 19.95 L 53.51 20.75 C 53.15 23.03 52.82 25.30 52.50 27.58 C 49.16 27.48 45.84 27.17 42.54 26.72 C 42.63 25.44 42.68 24.15 42.68 22.86 C 46.13 22.41 49.61 21.83 52.78 20.32 Z" />
<path fill="#ffd663" opacity="1.00" d=" M 27.29 22.58 C 30.43 22.41 33.57 22.41 36.71 22.55 C 36.72 23.36 36.73 24.96 36.74 25.76 C 33.58 25.73 30.42 25.73 27.26 25.74 C 27.27 24.95 27.28 23.37 27.29 22.58 Z" />
</g>
<g id="#ffca3cff">
<path fill="#ffca3c" opacity="1.00" d=" M 7.32 34.52 C 7.10 29.74 7.00 24.56 10.49 20.83 C 10.85 23.08 11.18 25.34 11.51 27.60 C 14.84 27.48 18.16 27.18 21.46 26.75 C 21.69 28.05 21.96 29.34 22.27 30.62 C 23.06 31.17 23.74 32.16 24.83 32.01 C 25.81 31.09 26.63 29.94 26.85 28.59 C 26.95 27.88 27.16 26.46 27.26 25.74 C 30.42 25.73 33.58 25.73 36.74 25.76 C 36.84 26.47 37.05 27.90 37.15 28.61 C 37.38 29.96 38.23 31.09 39.15 32.05 C 40.22 32.06 40.94 31.19 41.75 30.63 C 42.05 29.33 42.31 28.03 42.54 26.72 C 45.84 27.17 49.16 27.48 52.50 27.58 C 52.82 25.30 53.15 23.03 53.51 20.75 C 57.00 24.53 56.90 29.75 56.68 34.56 L 55.82 34.52 C 51.22 34.27 46.63 33.82 42.02 33.95 C 30.75 34.37 19.45 33.78 8.18 34.49 L 7.32 34.52 Z" />
</g>
<g id="#0000003e">
<path fill="#000000" opacity="0.24" d=" M 32.03 62.62 C 15.41 63.30 0.04 45.96 4.22 29.53 C 4.00 34.52 4.72 39.63 6.96 44.13 C 11.43 53.56 21.59 60.02 32.05 59.80 C 41.28 59.94 50.28 54.93 55.30 47.22 C 58.76 42.03 60.12 35.69 59.78 29.51 C 63.98 45.91 48.63 63.27 32.03 62.62 Z" />
</g>
<g id="#ffd02bff">
<path fill="#ffd02b" opacity="1.00" d=" M 8.18 34.49 C 19.45 33.78 30.75 34.37 42.02 33.95 C 46.63 33.82 51.22 34.27 55.82 34.52 C 56.04 42.53 51.82 50.73 44.60 54.48 C 39.24 57.92 32.60 58.24 26.47 57.31 C 15.97 55.34 7.47 45.32 8.18 34.49 M 13.30 35.58 C 13.43 39.13 14.63 42.49 16.47 45.50 C 22.25 54.66 36.77 56.14 44.40 48.67 C 47.82 45.12 50.41 40.63 50.47 35.58 C 43.72 36.85 36.96 38.44 30.04 38.03 C 24.35 38.08 18.87 36.44 13.30 35.58 Z" />
</g>
<g id="#cdceceff">
<path fill="#cdcece" opacity="1.00" d=" M 15.79 38.43 C 26.39 40.36 37.35 40.61 47.92 38.37 C 48.24 41.66 45.03 42.81 42.37 43.26 C 40.73 42.29 39.29 40.50 37.20 40.66 C 31.63 40.87 25.48 39.37 20.66 42.98 C 18.02 43.00 15.69 41.24 15.79 38.43 Z" />
</g>
<g id="#f7f7f8ff">
<path fill="#f7f7f8" opacity="1.00" d=" M 20.66 42.98 C 25.48 39.37 31.63 40.87 37.20 40.66 C 39.29 40.50 40.73 42.29 42.37 43.26 C 35.24 44.89 27.73 44.95 20.66 42.98 Z" />
</g>
<g id="#c48418ff">
<path fill="#c48418" opacity="1.00" d=" M 16.47 45.50 C 22.35 44.89 28.10 46.82 33.97 46.42 C 37.69 46.25 41.35 45.46 45.00 44.75 C 44.85 45.73 44.55 47.69 44.40 48.67 C 36.77 56.14 22.25 54.66 16.47 45.50 Z" />
</g>
</svg>
