<?xml version="1.0" encoding="UTF-8" ?>
<!DOCTYPE svg PUBLIC "-//W3C//DTD SVG 1.1//EN" "http://www.w3.org/Graphics/SVG/1.1/DTD/svg11.dtd">
<svg width="64pt" height="64pt" viewBox="0 0 64 64" version="1.1" xmlns="http://www.w3.org/2000/svg">
<g id="#f79a1bff">
<path fill="#f79a1b" opacity="1.00" d=" M 21.03 6.45 C 30.73 2.11 42.88 4.12 50.64 11.38 C 57.41 17.35 60.85 26.73 59.60 35.67 C 58.32 45.36 51.63 54.16 42.50 57.75 C 32.40 62.05 19.85 59.50 12.26 51.57 C 5.53 45.00 2.92 34.97 4.78 25.84 C 6.82 17.34 12.91 9.81 21.03 6.45 M 17.50 12.36 L 17.19 12.31 C 16.07 13.16 15.10 14.21 14.25 15.33 C 13.17 15.39 12.33 15.87 11.75 16.78 C 9.24 20.04 7.41 23.83 6.79 27.91 C 5.69 31.73 7.40 35.49 7.65 39.28 C 8.66 45.78 13.44 50.76 18.61 54.40 C 23.99 57.88 30.66 58.34 36.87 57.60 C 44.98 56.02 52.17 50.28 55.36 42.64 C 56.30 38.47 57.99 34.37 57.59 30.02 C 57.21 24.21 54.13 18.96 50.60 14.48 C 50.17 14.44 49.30 14.37 48.86 14.33 C 48.26 13.56 47.57 12.88 46.81 12.28 L 46.43 12.37 C 38.56 5.55 25.42 5.64 17.50 12.36 Z" />
</g>
<g id="#ffeec9ff">
<path fill="#ffeec9" opacity="1.00" d=" M 17.50 12.36 C 25.42 5.64 38.56 5.55 46.43 12.37 C 41.40 13.69 36.14 12.87 31.00 13.11 C 26.50 12.89 21.87 13.76 17.50 12.36 Z" />
</g>
<g id="#ffe6a9ff">
<path fill="#ffe6a9" opacity="1.00" d=" M 17.19 12.31 L 17.50 12.36 C 21.87 13.76 26.50 12.89 31.00 13.11 C 36.14 12.87 41.40 13.69 46.43 12.37 L 46.81 12.28 C 47.57 12.88 48.26 13.56 48.86 14.33 C 49.46 15.09 50.02 15.88 50.55 16.70 C 44.06 17.37 37.54 16.93 31.03 17.06 C 25.18 16.78 19.31 17.35 13.47 16.69 C 13.67 16.35 14.06 15.67 14.25 15.33 C 15.10 14.21 16.07 13.16 17.19 12.31 Z" />
</g>
<g id="#ffcf29ff">
<path fill="#ffcf29" opacity="1.00" d=" M 48.86 14.33 C 49.30 14.37 50.17 14.44 50.60 14.48 C 54.13 18.96 57.21 24.21 57.59 30.02 C 57.99 34.37 56.30 38.47 55.36 42.64 C 52.17 50.28 44.98 56.02 36.87 57.60 C 30.66 58.34 23.99 57.88 18.61 54.40 C 13.44 50.76 8.66 45.78 7.65 39.28 C 7.40 35.49 5.69 31.73 6.79 27.91 C 7.41 23.83 9.24 20.04 11.75 16.78 C 12.33 15.87 13.17 15.39 14.25 15.33 C 14.06 15.67 13.67 16.35 13.47 16.69 C 12.69 17.75 12.15 18.96 11.51 20.11 C 10.57 21.80 10.74 23.78 11.15 25.60 C 10.04 26.99 8.87 28.39 8.53 30.20 L 9.39 30.39 C 9.06 30.87 8.70 31.36 8.32 31.85 C 8.63 33.91 11.13 34.20 12.64 35.12 C 14.02 35.81 15.53 34.88 16.96 34.80 C 20.16 33.91 21.11 39.76 24.40 37.54 C 25.70 36.88 25.88 35.45 26.15 34.16 C 29.97 34.30 33.78 33.97 37.57 33.63 L 38.07 34.17 L 38.18 35.38 C 38.86 35.26 40.23 35.00 40.91 34.87 C 43.42 34.08 44.67 36.38 46.23 37.79 C 47.78 38.60 49.15 37.28 50.29 36.40 C 51.98 34.79 54.23 34.07 56.26 33.01 C 56.06 32.02 55.25 31.36 54.71 30.57 C 56.29 28.88 53.75 27.16 52.98 25.71 C 53.37 23.82 53.32 21.83 52.45 20.08 C 51.87 18.92 51.28 17.77 50.55 16.70 C 50.02 15.88 49.46 15.09 48.86 14.33 M 22.97 42.95 C 20.55 44.54 17.18 45.12 15.90 48.03 C 18.79 52.73 24.52 54.05 29.40 55.65 C 35.08 57.16 40.13 53.32 44.97 50.99 C 46.26 50.54 47.19 49.44 47.08 48.02 C 45.36 46.17 44.24 43.93 42.91 41.82 C 41.55 41.23 40.77 41.71 40.55 43.24 C 38.22 39.24 32.97 39.68 29.00 39.94 C 26.63 40.02 24.93 41.86 22.97 42.95 Z" />
</g>
<g id="#ffe092ff">
<path fill="#ffe092" opacity="1.00" d=" M 11.51 20.11 C 12.15 18.96 12.69 17.75 13.47 16.69 C 19.31 17.35 25.18 16.78 31.03 17.06 C 37.54 16.93 44.06 17.37 50.55 16.70 C 51.28 17.77 51.87 18.92 52.45 20.08 C 38.83 20.32 25.14 20.25 11.51 20.11 Z" />
</g>
<g id="#ffd873ff">
<path fill="#ffd873" opacity="1.00" d=" M 11.15 25.60 C 10.74 23.78 10.57 21.80 11.51 20.11 C 25.14 20.25 38.83 20.32 52.45 20.08 C 53.32 21.83 53.37 23.82 52.98 25.71 C 50.42 23.15 46.06 21.56 42.80 23.73 C 41.99 24.17 40.58 25.52 42.10 26.12 C 45.46 24.38 49.82 24.87 52.44 27.73 C 43.30 27.28 34.29 24.28 25.12 25.96 C 20.68 27.12 16.06 27.13 11.54 27.77 C 13.42 25.73 16.31 24.77 19.05 25.12 C 20.25 25.51 21.40 26.29 22.72 25.93 C 21.02 21.02 13.99 22.43 11.15 25.60 Z" />
</g>
<g id="#7e5613ff">
<path fill="#7e5613" opacity="1.00" d=" M 11.15 25.60 C 13.99 22.43 21.02 21.02 22.72 25.93 C 21.40 26.29 20.25 25.51 19.05 25.12 C 16.31 24.77 13.42 25.73 11.54 27.77 C 10.82 28.64 10.11 29.52 9.39 30.39 L 8.53 30.20 C 8.87 28.39 10.04 26.99 11.15 25.60 Z" />
<path fill="#7e5613" opacity="1.00" d=" M 42.80 23.73 C 46.06 21.56 50.42 23.15 52.98 25.71 C 53.75 27.16 56.29 28.88 54.71 30.57 C 53.97 29.60 53.22 28.66 52.44 27.73 C 49.82 24.87 45.46 24.38 42.10 26.12 C 40.58 25.52 41.99 24.17 42.80 23.73 Z" />
</g>
<g id="#0000004b">
<path fill="#000000" opacity="0.29" d=" M 16.39 57.63 C 6.09 51.22 1.10 37.30 4.78 25.84 C 2.92 34.97 5.53 45.00 12.26 51.57 C 19.85 59.50 32.40 62.05 42.50 57.75 C 51.63 54.16 58.32 45.36 59.60 35.67 C 60.56 40.12 58.55 45.16 55.99 48.92 C 50.75 58.27 39.41 63.23 28.96 62.34 C 24.66 61.15 20.03 60.39 16.39 57.63 Z" />
</g>
<g id="#ffcb3cff">
<path fill="#ffcb3c" opacity="1.00" d=" M 11.54 27.77 C 16.06 27.13 20.68 27.12 25.12 25.96 C 34.29 24.28 43.30 27.28 52.44 27.73 C 53.22 28.66 53.97 29.60 54.71 30.57 C 55.25 31.36 56.06 32.02 56.26 33.01 C 54.23 34.07 51.98 34.79 50.29 36.40 C 50.62 34.76 50.23 33.06 48.65 32.23 C 45.08 30.78 41.23 32.43 38.07 34.17 L 37.57 33.63 C 33.78 33.97 29.97 34.30 26.15 34.16 C 25.45 33.40 24.71 32.68 23.95 31.98 C 19.92 30.97 15.70 32.46 12.64 35.12 C 11.13 34.20 8.63 33.91 8.32 31.85 C 8.70 31.36 9.06 30.87 9.39 30.39 C 10.11 29.52 10.82 28.64 11.54 27.77 Z" />
</g>
<g id="#85590fff">
<path fill="#85590f" opacity="1.00" d=" M 12.64 35.12 C 15.70 32.46 19.92 30.97 23.95 31.98 C 24.71 32.68 25.45 33.40 26.15 34.16 C 25.88 35.45 25.70 36.88 24.40 37.54 C 24.17 36.74 23.71 35.12 23.49 34.32 C 21.30 33.88 19.09 34.30 16.96 34.80 C 15.53 34.88 14.02 35.81 12.64 35.12 Z" />
</g>
<g id="#7c500dff">
<path fill="#7c500d" opacity="1.00" d=" M 38.07 34.17 C 41.23 32.43 45.08 30.78 48.65 32.23 C 50.23 33.06 50.62 34.76 50.29 36.40 C 48.15 33.13 44.08 34.00 40.91 34.87 C 40.23 35.00 38.86 35.26 38.18 35.38 L 38.07 34.17 Z" />
</g>
<g id="#a66913ff">
<path fill="#a66913" opacity="1.00" d=" M 16.96 34.80 C 19.09 34.30 21.30 33.88 23.49 34.32 C 23.71 35.12 24.17 36.74 24.40 37.54 C 21.11 39.76 20.16 33.91 16.96 34.80 Z" />
<path fill="#a66913" opacity="1.00" d=" M 40.91 34.87 C 44.08 34.00 48.15 33.13 50.29 36.40 C 49.15 37.28 47.78 38.60 46.23 37.79 C 44.67 36.38 43.42 34.08 40.91 34.87 Z" />
</g>
<g id="#ffdf2cff">
<path fill="#ffdf2c" opacity="1.00" d=" M 22.97 42.95 C 24.93 41.86 26.63 40.02 29.00 39.94 C 32.97 39.68 38.22 39.24 40.55 43.24 C 36.90 49.23 28.72 47.56 22.81 48.72 L 22.67 50.05 C 28.37 51.09 34.35 50.38 39.90 48.80 C 42.95 48.11 42.73 44.24 42.91 41.82 C 44.24 43.93 45.36 46.17 47.08 48.02 C 47.19 49.44 46.26 50.54 44.97 50.99 C 40.13 53.32 35.08 57.16 29.40 55.65 C 24.52 54.05 18.79 52.73 15.90 48.03 C 17.18 45.12 20.55 44.54 22.97 42.95 Z" />
</g>
<g id="#8c560eff">
<path fill="#8c560e" opacity="1.00" d=" M 40.55 43.24 C 40.77 41.71 41.55 41.23 42.91 41.82 C 42.73 44.24 42.95 48.11 39.90 48.80 C 34.35 50.38 28.37 51.09 22.67 50.05 L 22.81 48.72 C 28.72 47.56 36.90 49.23 40.55 43.24 Z" />
</g>
</svg>
