<?xml version="1.0" encoding="UTF-8" ?>
<!DOCTYPE svg PUBLIC "-//W3C//DTD SVG 1.1//EN" "http://www.w3.org/Graphics/SVG/1.1/DTD/svg11.dtd">
<svg width="64pt" height="64pt" viewBox="0 0 64 64" version="1.1" xmlns="http://www.w3.org/2000/svg">
<g id="#f8a21eff">
<path fill="#f8a21e" opacity="1.00" d=" M 24.96 5.09 C 35.48 2.22 47.41 6.27 54.00 14.96 C 56.26 17.86 57.86 21.23 58.96 24.73 C 61.19 33.94 58.88 44.27 52.19 51.12 C 43.56 60.60 28.17 62.62 17.40 55.68 C 7.01 49.51 2.03 36.31 5.04 24.71 C 7.72 15.31 15.42 7.46 24.96 5.09 M 12.35 18.20 C 12.10 18.75 11.59 19.83 11.34 20.38 L 10.38 19.82 L 10.47 20.76 C 7.91 24.73 6.80 29.42 7.56 34.12 C 8.84 40.60 10.42 47.71 16.05 51.90 C 22.54 57.93 32.33 59.14 40.55 56.44 C 49.22 53.21 56.09 44.36 55.53 34.90 L 56.44 34.80 C 57.12 29.91 56.34 24.90 53.53 20.77 L 53.60 20.05 L 52.69 20.52 C 52.42 19.93 51.89 18.73 51.63 18.14 C 48.62 13.34 43.89 9.12 38.18 8.25 C 34.12 7.20 29.85 7.15 25.81 8.29 C 20.08 9.09 15.32 13.39 12.35 18.20 Z" />
</g>
<g id="#ffe8a9ff">
<path fill="#ffe8a9" opacity="1.00" d=" M 12.35 18.20 C 15.32 13.39 20.08 9.09 25.81 8.29 C 29.79 10.19 34.18 9.90 38.18 8.25 C 43.89 9.12 48.62 13.34 51.63 18.14 C 45.15 17.18 38.57 17.57 32.04 17.51 C 25.48 17.55 18.86 17.15 12.35 18.20 Z" />
</g>
<g id="#fff5dcff">
<path fill="#fff5dc" opacity="1.00" d=" M 25.81 8.29 C 29.85 7.15 34.12 7.20 38.18 8.25 C 34.18 9.90 29.79 10.19 25.81 8.29 Z" />
</g>
<g id="#ffdf82ff">
<path fill="#ffdf82" opacity="1.00" d=" M 11.34 20.38 C 11.59 19.83 12.10 18.75 12.35 18.20 C 18.86 17.15 25.48 17.55 32.04 17.51 C 38.57 17.57 45.15 17.18 51.63 18.14 C 51.89 18.73 52.42 19.93 52.69 20.52 C 51.00 21.66 48.96 21.84 46.98 21.63 C 46.57 21.41 45.73 20.96 45.32 20.74 C 43.05 21.38 40.86 22.29 38.81 23.46 C 38.67 22.92 38.39 21.84 38.26 21.30 C 34.10 21.22 29.94 21.23 25.78 21.34 C 25.63 21.87 25.33 22.93 25.18 23.46 C 22.53 22.04 19.40 19.95 16.43 21.85 C 14.66 21.64 12.82 21.46 11.34 20.38 Z" />
<path fill="#ffdf82" opacity="1.00" d=" M 24.51 30.90 C 25.69 30.18 26.84 29.39 27.95 28.58 C 26.53 31.39 23.55 32.54 20.60 32.97 C 21.93 32.33 23.23 31.63 24.51 30.90 Z" />
</g>
<g id="#ffd560ff">
<path fill="#ffd560" opacity="1.00" d=" M 10.38 19.82 L 11.34 20.38 C 12.82 21.46 14.66 21.64 16.43 21.85 L 17.20 22.00 C 17.88 24.12 19.95 25.55 22.18 25.45 C 22.53 25.80 23.22 26.51 23.57 26.86 C 19.55 26.59 15.58 27.80 11.57 27.44 C 10.88 25.28 10.72 23.00 10.47 20.76 L 10.38 19.82 Z" />
<path fill="#ffd560" opacity="1.00" d=" M 52.69 20.52 L 53.60 20.05 L 53.53 20.77 C 53.22 23.00 53.31 25.37 52.28 27.43 C 48.33 27.84 44.41 26.50 40.43 26.87 C 40.77 26.52 41.46 25.81 41.80 25.45 C 44.08 25.71 46.13 24.15 46.80 22.02 L 46.98 21.63 C 48.96 21.84 51.00 21.66 52.69 20.52 Z" />
</g>
<g id="#ffcb3aff">
<path fill="#ffcb3a" opacity="1.00" d=" M 7.56 34.12 C 6.80 29.42 7.91 24.73 10.47 20.76 C 10.72 23.00 10.88 25.28 11.57 27.44 C 15.58 27.80 19.55 26.59 23.57 26.86 C 23.25 27.28 22.61 28.10 22.29 28.51 C 20.64 30.20 18.94 31.84 17.36 33.59 C 18.17 33.44 19.79 33.13 20.60 32.97 C 23.55 32.54 26.53 31.39 27.95 28.58 L 28.22 28.21 C 28.41 27.65 28.80 26.53 28.99 25.96 C 30.98 25.96 32.96 25.97 34.95 26.00 C 35.21 26.55 35.73 27.66 35.99 28.21 C 37.09 29.19 38.26 30.09 39.49 30.90 C 41.74 32.15 44.15 33.07 46.62 33.76 C 45.14 31.87 43.41 30.22 41.73 28.52 C 41.40 28.11 40.75 27.28 40.43 26.87 C 44.41 26.50 48.33 27.84 52.28 27.43 C 53.31 25.37 53.22 23.00 53.53 20.77 C 56.34 24.90 57.12 29.91 56.44 34.80 L 55.53 34.90 C 53.85 35.09 52.17 35.26 50.50 35.52 C 44.70 36.51 38.96 38.18 33.02 38.03 C 26.36 38.30 19.80 36.96 13.37 35.40 C 11.44 34.96 9.50 34.54 7.56 34.12 Z" />
</g>
<g id="#5b3304ff">
<path fill="#5b3304" opacity="1.00" d=" M 16.43 21.85 C 19.40 19.95 22.53 22.04 25.18 23.46 C 26.47 24.26 27.73 25.12 28.99 25.96 C 28.80 26.53 28.41 27.65 28.22 28.21 C 26.80 26.81 25.36 25.41 23.93 24.01 C 23.49 24.37 22.62 25.09 22.18 25.45 C 20.84 23.94 19.23 22.43 17.20 22.00 L 16.43 21.85 Z" />
<path fill="#5b3304" opacity="1.00" d=" M 38.81 23.46 C 40.86 22.29 43.05 21.38 45.32 20.74 C 45.73 20.96 46.57 21.41 46.98 21.63 L 46.80 22.02 C 44.91 22.79 43.04 23.78 41.80 25.45 C 41.36 25.08 40.48 24.34 40.03 23.97 C 38.68 25.37 37.32 26.78 35.99 28.21 C 35.73 27.66 35.21 26.55 34.95 26.00 C 36.23 25.14 37.50 24.28 38.81 23.46 Z" />
<path fill="#5b3304" opacity="1.00" d=" M 15.99 45.15 C 14.58 42.06 13.42 38.83 13.37 35.40 C 19.80 36.96 26.36 38.30 33.02 38.03 C 38.96 38.18 44.70 36.51 50.50 35.52 C 50.13 38.60 49.54 41.71 47.93 44.43 C 42.63 45.13 37.40 46.62 32.01 46.50 C 27.14 46.42 22.33 45.57 17.49 45.03 C 18.90 46.86 20.35 48.66 21.80 50.46 C 19.73 48.84 17.81 47.04 15.99 45.15 M 15.99 38.44 C 15.73 43.13 21.46 43.01 24.77 43.94 C 29.44 44.55 34.16 44.56 38.83 43.98 C 42.22 42.98 47.85 43.15 47.99 38.46 C 37.46 40.61 26.51 40.67 15.99 38.44 Z" />
</g>
<g id="#ffd666ff">
<path fill="#ffd666" opacity="1.00" d=" M 25.78 21.34 C 29.94 21.23 34.10 21.22 38.26 21.30 C 38.39 21.84 38.67 22.92 38.81 23.46 C 37.50 24.28 36.23 25.14 34.95 26.00 C 32.96 25.97 30.98 25.96 28.99 25.96 C 27.73 25.12 26.47 24.26 25.18 23.46 C 25.33 22.93 25.63 21.87 25.78 21.34 Z" />
</g>
<g id="#ffffffff">
<path fill="#ffffff" opacity="1.00" d=" M 17.20 22.00 C 19.23 22.43 20.84 23.94 22.18 25.45 C 19.95 25.55 17.88 24.12 17.20 22.00 Z" />
<path fill="#ffffff" opacity="1.00" d=" M 41.80 25.45 C 43.04 23.78 44.91 22.79 46.80 22.02 C 46.13 24.15 44.08 25.71 41.80 25.45 Z" />
<path fill="#ffffff" opacity="1.00" d=" M 24.77 43.94 C 27.89 39.26 35.81 39.10 38.83 43.98 C 34.16 44.56 29.44 44.55 24.77 43.94 Z" />
</g>
<g id="#9d6311ff">
<path fill="#9d6311" opacity="1.00" d=" M 22.18 25.45 C 22.62 25.09 23.49 24.37 23.93 24.01 C 25.36 25.41 26.80 26.81 28.22 28.21 L 27.95 28.58 C 26.84 29.39 25.69 30.18 24.51 30.90 C 23.77 30.10 23.03 29.31 22.29 28.51 C 22.61 28.10 23.25 27.28 23.57 26.86 C 23.22 26.51 22.53 25.80 22.18 25.45 Z" />
<path fill="#9d6311" opacity="1.00" d=" M 40.03 23.97 C 40.48 24.34 41.36 25.08 41.80 25.45 C 41.46 25.81 40.77 26.52 40.43 26.87 C 40.75 27.28 41.40 28.11 41.73 28.52 C 40.98 29.31 40.23 30.11 39.49 30.90 C 38.26 30.09 37.09 29.19 35.99 28.21 C 37.32 26.78 38.68 25.37 40.03 23.97 Z" />
</g>
<g id="#00000045">
<path fill="#000000" opacity="0.27" d=" M 24.01 61.55 C 9.10 57.21 -0.56 39.43 5.04 24.71 C 2.03 36.31 7.01 49.51 17.40 55.68 C 28.17 62.62 43.56 60.60 52.19 51.12 C 58.88 44.27 61.19 33.94 58.96 24.73 C 63.49 36.82 57.91 51.38 47.08 58.17 C 40.47 62.86 31.70 63.51 24.01 61.55 Z" />
</g>
<g id="#6d4009ff">
<path fill="#6d4009" opacity="1.00" d=" M 22.29 28.51 C 23.03 29.31 23.77 30.10 24.51 30.90 C 23.23 31.63 21.93 32.33 20.60 32.97 C 19.79 33.13 18.17 33.44 17.36 33.59 C 18.94 31.84 20.64 30.20 22.29 28.51 Z" />
<path fill="#6d4009" opacity="1.00" d=" M 39.49 30.90 C 40.23 30.11 40.98 29.31 41.73 28.52 C 43.41 30.22 45.14 31.87 46.62 33.76 C 44.15 33.07 41.74 32.15 39.49 30.90 Z" />
</g>
<g id="#ffd02cff">
<path fill="#ffd02c" opacity="1.00" d=" M 7.56 34.12 C 9.50 34.54 11.44 34.96 13.37 35.40 C 13.42 38.83 14.58 42.06 15.99 45.15 C 16.94 50.78 22.81 53.07 27.61 54.57 C 33.82 56.06 41.74 54.43 45.21 48.60 C 46.19 47.26 47.09 45.86 47.93 44.43 C 49.54 41.71 50.13 38.60 50.50 35.52 C 52.17 35.26 53.85 35.09 55.53 34.90 C 56.09 44.36 49.22 53.21 40.55 56.44 C 32.33 59.14 22.54 57.93 16.05 51.90 C 10.42 47.71 8.84 40.60 7.56 34.12 Z" />
</g>
<g id="#ddddd9ff">
<path fill="#ddddd9" opacity="1.00" d=" M 15.99 38.44 C 26.51 40.67 37.46 40.61 47.99 38.46 C 47.85 43.15 42.22 42.98 38.83 43.98 C 35.81 39.10 27.89 39.26 24.77 43.94 C 21.46 43.01 15.73 43.13 15.99 38.44 Z" />
</g>
<g id="#c58418ff">
<path fill="#c58418" opacity="1.00" d=" M 32.01 46.50 C 37.40 46.62 42.63 45.13 47.93 44.43 C 47.09 45.86 46.19 47.26 45.21 48.60 C 38.74 53.76 28.82 55.47 21.80 50.46 C 20.35 48.66 18.90 46.86 17.49 45.03 C 22.33 45.57 27.14 46.42 32.01 46.50 Z" />
</g>
<g id="#f1e646ff">
<path fill="#f1e646" opacity="1.00" d=" M 15.99 45.15 C 17.81 47.04 19.73 48.84 21.80 50.46 C 28.82 55.47 38.74 53.76 45.21 48.60 C 41.74 54.43 33.82 56.06 27.61 54.57 C 22.81 53.07 16.94 50.78 15.99 45.15 Z" />
</g>
</svg>
