<?xml version="1.0" encoding="UTF-8" ?>
<!DOCTYPE svg PUBLIC "-//W3C//DTD SVG 1.1//EN" "http://www.w3.org/Graphics/SVG/1.1/DTD/svg11.dtd">
<svg width="64pt" height="64pt" viewBox="0 0 64 64" version="1.1" xmlns="http://www.w3.org/2000/svg">
<g id="#f9a722ff">
<path fill="#f9a722" opacity="1.00" d=" M 23.38 5.56 C 30.57 3.18 38.74 3.93 45.37 7.61 C 54.11 12.34 60.02 22.04 59.80 32.04 C 60.05 42.52 53.51 52.66 44.09 57.12 C 35.08 61.53 23.65 60.56 15.60 54.54 C 8.54 49.40 3.99 40.82 4.20 32.04 C 3.90 20.26 12.19 9.06 23.38 5.56 M 14.27 15.40 L 14.05 15.39 C 13.47 16.38 12.89 17.37 12.32 18.37 L 11.88 18.26 C 7.12 22.14 6.57 28.94 7.09 34.64 C 8.04 39.33 8.97 44.26 11.94 48.16 C 16.69 54.22 24.27 58.20 32.06 57.81 C 39.33 58.14 46.51 54.66 51.14 49.14 C 53.88 44.82 55.73 39.76 55.55 34.59 L 56.35 34.67 C 57.13 29.87 56.83 24.33 52.96 20.87 C 52.71 20.06 52.43 19.27 52.13 18.48 L 51.77 18.54 C 51.15 17.48 50.53 16.41 49.92 15.35 L 49.70 15.36 C 41.12 4.62 22.83 4.63 14.27 15.40 Z" />
</g>
<g id="#ffecbdff">
<path fill="#ffecbd" opacity="1.00" d=" M 14.27 15.40 C 22.83 4.63 41.12 4.62 49.70 15.36 C 37.90 15.73 26.07 15.67 14.27 15.40 Z" />
</g>
<g id="#ffe39aff">
<path fill="#ffe39a" opacity="1.00" d=" M 14.05 15.39 L 14.27 15.40 C 26.07 15.67 37.90 15.73 49.70 15.36 L 49.92 15.35 C 50.53 16.41 51.15 17.48 51.77 18.54 C 44.91 19.93 37.89 19.14 30.94 19.30 C 24.74 19.11 18.39 20.09 12.32 18.37 C 12.89 17.37 13.47 16.38 14.05 15.39 Z" />
</g>
<g id="#ffca3bff">
<path fill="#ffca3b" opacity="1.00" d=" M 7.09 34.64 C 6.57 28.94 7.12 22.14 11.88 18.26 C 11.52 20.10 11.11 21.93 10.80 23.78 C 10.96 25.10 11.14 26.42 11.34 27.73 C 14.61 27.65 17.88 27.38 21.12 26.93 C 21.35 27.66 21.82 29.13 22.05 29.86 C 23.87 30.23 25.84 30.28 27.12 28.70 C 27.22 27.85 27.41 26.14 27.51 25.29 C 30.50 25.49 33.50 25.49 36.49 25.29 C 36.59 26.13 36.77 27.82 36.86 28.67 C 38.13 30.28 40.12 30.24 41.95 29.87 C 42.18 29.12 42.65 27.61 42.89 26.86 C 46.03 27.27 49.21 28.00 52.39 27.48 C 52.78 26.24 53.10 24.98 53.33 23.70 C 53.24 23.00 53.05 21.58 52.96 20.87 C 56.83 24.33 57.13 29.87 56.35 34.67 L 55.55 34.59 C 43.73 33.46 31.83 34.40 19.98 34.01 C 15.66 33.68 11.40 34.73 7.09 34.64 Z" />
</g>
<g id="#ffdb7aff">
<path fill="#ffdb7a" opacity="1.00" d=" M 11.88 18.26 L 12.32 18.37 C 18.39 20.09 24.74 19.11 30.94 19.30 C 37.89 19.14 44.91 19.93 51.77 18.54 L 52.13 18.48 C 52.43 19.27 52.71 20.06 52.96 20.87 C 53.05 21.58 53.24 23.00 53.33 23.70 C 49.61 23.21 45.85 23.33 42.11 23.54 C 39.86 22.45 37.77 23.13 36.49 25.29 C 33.50 25.49 30.50 25.49 27.51 25.29 C 26.25 23.14 24.11 22.42 21.88 23.56 C 18.19 23.27 14.47 23.12 10.80 23.78 C 11.11 21.93 11.52 20.10 11.88 18.26 Z" />
</g>
<g id="#ffd35dff">
<path fill="#ffd35d" opacity="1.00" d=" M 10.80 23.78 C 14.47 23.12 18.19 23.27 21.88 23.56 C 21.63 24.68 21.37 25.80 21.12 26.93 C 17.88 27.38 14.61 27.65 11.34 27.73 C 11.14 26.42 10.96 25.10 10.80 23.78 Z" />
<path fill="#ffd35d" opacity="1.00" d=" M 42.11 23.54 C 45.85 23.33 49.61 23.21 53.33 23.70 C 53.10 24.98 52.78 26.24 52.39 27.48 C 49.21 28.00 46.03 27.27 42.89 26.86 C 42.62 25.76 42.36 24.65 42.11 23.54 Z" />
</g>
<g id="#673a01ff">
<path fill="#673a01" opacity="1.00" d=" M 21.88 23.56 C 24.11 22.42 26.25 23.14 27.51 25.29 C 27.41 26.14 27.22 27.85 27.12 28.70 C 26.16 27.01 25.13 25.37 23.98 23.80 C 23.19 25.77 22.57 27.80 22.05 29.86 C 21.82 29.13 21.35 27.66 21.12 26.93 C 21.37 25.80 21.63 24.68 21.88 23.56 Z" />
<path fill="#673a01" opacity="1.00" d=" M 36.49 25.29 C 37.77 23.13 39.86 22.45 42.11 23.54 C 42.36 24.65 42.62 25.76 42.89 26.86 C 42.65 27.61 42.18 29.12 41.95 29.87 C 41.43 27.81 40.77 25.79 40.08 23.78 C 38.89 25.33 37.84 26.98 36.86 28.67 C 36.77 27.82 36.59 26.13 36.49 25.29 Z" />
<path fill="#673a01" opacity="1.00" d=" M 13.31 35.57 C 19.51 36.62 25.65 38.34 32.01 38.03 C 38.26 38.33 44.30 36.63 50.39 35.55 C 50.44 39.15 49.04 42.45 47.33 45.54 C 42.17 44.91 37.12 46.53 31.98 46.49 C 26.80 46.57 21.72 44.79 16.53 45.60 L 16.22 45.15 C 14.49 42.24 13.44 38.96 13.31 35.57 M 15.44 38.58 C 15.81 41.09 17.69 42.39 20.01 43.00 L 20.26 42.93 C 27.67 44.87 35.56 45.02 42.97 42.99 C 45.54 42.88 48.29 41.33 47.98 38.39 C 45.50 38.82 42.98 39.05 40.55 39.74 C 34.92 40.24 29.26 40.25 23.62 39.81 C 20.98 38.99 18.18 38.81 15.44 38.58 Z" />
</g>
<g id="#ac6c13ff">
<path fill="#ac6c13" opacity="1.00" d=" M 22.05 29.86 C 22.57 27.80 23.19 25.77 23.98 23.80 C 25.13 25.37 26.16 27.01 27.12 28.70 C 25.84 30.28 23.87 30.23 22.05 29.86 Z" />
<path fill="#ac6c13" opacity="1.00" d=" M 36.86 28.67 C 37.84 26.98 38.89 25.33 40.08 23.78 C 40.77 25.79 41.43 27.81 41.95 29.87 C 40.12 30.24 38.13 30.28 36.86 28.67 Z" />
</g>
<g id="#ffd02cff">
<path fill="#ffd02c" opacity="1.00" d=" M 7.09 34.64 C 11.40 34.73 15.66 33.68 19.98 34.01 C 31.83 34.40 43.73 33.46 55.55 34.59 C 55.73 39.76 53.88 44.82 51.14 49.14 C 46.51 54.66 39.33 58.14 32.06 57.81 C 24.27 58.20 16.69 54.22 11.94 48.16 C 8.97 44.26 8.04 39.33 7.09 34.64 M 13.31 35.57 C 13.44 38.96 14.49 42.24 16.22 45.15 C 16.24 45.79 16.27 47.07 16.28 47.71 C 18.93 51.69 23.59 53.80 28.08 54.96 C 32.95 56.23 38.00 54.57 42.30 52.31 C 44.46 50.98 47.40 49.41 46.87 46.39 L 47.33 45.54 C 49.04 42.45 50.44 39.15 50.39 35.55 C 44.30 36.63 38.26 38.33 32.01 38.03 C 25.65 38.34 19.51 36.62 13.31 35.57 Z" />
</g>
<g id="#ced4d9ff">
<path fill="#ced4d9" opacity="1.00" d=" M 15.44 38.58 C 18.18 38.81 20.98 38.99 23.62 39.81 C 24.32 40.30 25.02 40.79 25.72 41.28 C 23.90 41.84 22.08 42.37 20.26 42.93 L 20.01 43.00 C 17.69 42.39 15.81 41.09 15.44 38.58 Z" />
<path fill="#ced4d9" opacity="1.00" d=" M 40.55 39.74 C 42.98 39.05 45.50 38.82 47.98 38.39 C 48.29 41.33 45.54 42.88 42.97 42.99 C 41.38 42.45 39.81 41.89 38.24 41.30 C 39.01 40.77 39.77 40.25 40.55 39.74 Z" />
</g>
<g id="#fbfdfeff">
<path fill="#fbfdfe" opacity="1.00" d=" M 23.62 39.81 C 29.26 40.25 34.92 40.24 40.55 39.74 C 39.77 40.25 39.01 40.77 38.24 41.30 C 39.81 41.89 41.38 42.45 42.97 42.99 C 35.56 45.02 27.67 44.87 20.26 42.93 C 22.08 42.37 23.90 41.84 25.72 41.28 C 25.02 40.79 24.32 40.30 23.62 39.81 Z" />
</g>
<g id="#c88418ff">
<path fill="#c88418" opacity="1.00" d=" M 16.53 45.60 C 21.72 44.79 26.80 46.57 31.98 46.49 C 37.12 46.53 42.17 44.91 47.33 45.54 L 46.87 46.39 C 39.63 55.94 23.08 55.86 16.53 45.60 Z" />
</g>
<g id="#f6e730ff">
<path fill="#f6e730" opacity="1.00" d=" M 16.22 45.15 L 16.53 45.60 C 23.08 55.86 39.63 55.94 46.87 46.39 C 47.40 49.41 44.46 50.98 42.30 52.31 C 38.00 54.57 32.95 56.23 28.08 54.96 C 23.59 53.80 18.93 51.69 16.28 47.71 C 16.27 47.07 16.24 45.79 16.22 45.15 Z" />
</g>
</svg>
