<?xml version="1.0" encoding="UTF-8" ?>
<!DOCTYPE svg PUBLIC "-//W3C//DTD SVG 1.1//EN" "http://www.w3.org/Graphics/SVG/1.1/DTD/svg11.dtd">
<svg width="64pt" height="64pt" viewBox="0 0 64 64" version="1.1" xmlns="http://www.w3.org/2000/svg">
<g id="#f7991cff">
<path fill="#f7991c" opacity="1.00" d=" M 4.60 26.80 C 6.91 14.06 18.97 3.88 31.99 4.20 C 45.02 3.87 57.11 14.06 59.40 26.82 C 61.11 36.46 57.65 46.89 50.05 53.17 C 40.15 62.00 23.86 62.01 13.96 53.18 C 6.35 46.90 2.89 36.45 4.60 26.80 M 17.40 12.40 L 17.06 12.31 C 16.11 13.23 15.10 14.11 14.35 15.22 C 11.83 15.76 10.87 18.51 9.52 20.41 C 5.79 26.64 6.43 34.20 8.25 40.92 C 10.67 49.45 18.48 55.91 27.07 57.54 C 32.06 57.91 37.36 58.22 41.97 55.92 C 50.11 52.74 56.00 44.68 56.72 35.99 C 58.40 29.36 56.32 22.22 52.15 16.92 C 51.57 16.03 50.76 15.48 49.70 15.28 C 48.92 14.15 47.89 13.23 46.92 12.28 L 46.57 12.37 C 38.50 5.60 25.45 5.61 17.40 12.40 Z" />
</g>
<g id="#ffeec9ff">
<path fill="#ffeec9" opacity="1.00" d=" M 17.40 12.40 C 25.45 5.61 38.50 5.60 46.57 12.37 C 41.54 14.06 36.21 13.21 31.02 13.34 C 26.48 13.18 21.77 14.01 17.40 12.40 Z" />
</g>
<g id="#ffe4a2ff">
<path fill="#ffe4a2" opacity="1.00" d=" M 17.06 12.31 L 17.40 12.40 C 21.77 14.01 26.48 13.18 31.02 13.34 C 36.21 13.21 41.54 14.06 46.57 12.37 L 46.92 12.28 C 47.89 13.23 48.92 14.15 49.70 15.28 C 50.33 16.25 50.94 17.22 51.54 18.21 C 48.57 18.63 45.53 18.57 42.58 19.13 C 42.39 19.46 42.02 20.13 41.83 20.46 C 39.39 18.79 36.69 20.73 35.24 22.76 C 33.26 21.05 30.78 21.06 28.81 22.78 C 27.47 20.87 25.44 19.50 23.01 19.73 C 19.53 18.96 15.99 18.46 12.44 18.26 C 13.06 17.24 13.70 16.22 14.35 15.22 C 15.10 14.11 16.11 13.23 17.06 12.31 Z" />
</g>
<g id="#ffd12aff">
<path fill="#ffd12a" opacity="1.00" d=" M 9.52 20.41 C 10.87 18.51 11.83 15.76 14.35 15.22 C 13.70 16.22 13.06 17.24 12.44 18.26 C 11.38 19.93 11.15 21.89 11.28 23.82 C 10.38 25.81 9.74 28.19 11.41 30.05 C 14.34 33.12 18.55 34.44 22.11 36.62 C 22.55 36.16 23.42 35.25 23.86 34.79 C 29.32 34.77 34.78 34.83 40.24 34.73 C 40.64 35.21 41.43 36.16 41.83 36.64 C 45.59 34.21 50.27 32.92 53.16 29.33 C 54.05 27.49 53.50 25.60 52.74 23.84 C 52.85 21.88 52.67 19.88 51.54 18.21 C 50.94 17.22 50.33 16.25 49.70 15.28 C 50.76 15.48 51.57 16.03 52.15 16.92 C 56.32 22.22 58.40 29.36 56.72 35.99 C 56.00 44.68 50.11 52.74 41.97 55.92 C 37.36 58.22 32.06 57.91 27.07 57.54 C 18.48 55.91 10.67 49.45 8.25 40.92 C 6.43 34.20 5.79 26.64 9.52 20.41 M 17.91 43.08 C 18.30 44.48 19.15 45.66 19.93 46.85 C 24.61 54.83 37.21 55.57 42.83 48.21 C 43.62 46.39 46.21 44.81 45.34 42.64 C 36.66 44.53 27.64 44.73 18.97 42.70 L 17.91 43.08 Z" />
</g>
<g id="#ffdc83ff">
<path fill="#ffdc83" opacity="1.00" d=" M 11.28 23.82 C 11.15 21.89 11.38 19.93 12.44 18.26 C 15.99 18.46 19.53 18.96 23.01 19.73 C 21.51 21.12 20.32 22.78 19.23 24.50 C 19.21 24.51 19.16 24.55 19.13 24.56 C 17.07 22.55 13.53 21.32 11.28 23.82 Z" />
<path fill="#ffdc83" opacity="1.00" d=" M 51.54 18.21 C 52.67 19.88 52.85 21.88 52.74 23.84 C 50.51 21.28 47.21 22.70 44.92 24.25 L 43.97 24.06 C 43.64 22.66 42.77 21.51 41.83 20.46 C 42.02 20.13 42.39 19.46 42.58 19.13 C 45.53 18.57 48.57 18.63 51.54 18.21 Z" />
</g>
<g id="#bd2608ff">
<path fill="#bd2608" opacity="1.00" d=" M 23.01 19.73 C 25.44 19.50 27.47 20.87 28.81 22.78 C 28.84 23.53 28.90 25.03 28.93 25.78 C 28.04 27.98 26.77 30.01 25.44 31.97 C 25.50 29.91 25.59 27.85 25.56 25.78 C 24.16 23.61 21.36 24.71 19.23 24.50 C 20.32 22.78 21.51 21.12 23.01 19.73 Z" />
</g>
<g id="#9f1a05ff">
<path fill="#9f1a05" opacity="1.00" d=" M 35.24 22.76 C 36.69 20.73 39.39 18.79 41.83 20.46 C 42.77 21.51 43.64 22.66 43.97 24.06 L 44.09 25.06 L 43.22 24.44 C 42.17 23.66 41.06 22.98 39.97 22.26 C 37.48 23.33 36.85 25.95 36.17 28.31 C 35.92 27.67 35.42 26.38 35.17 25.73 C 35.19 24.99 35.23 23.51 35.24 22.76 Z" />
<path fill="#9f1a05" opacity="1.00" d=" M 11.28 23.82 C 13.53 21.32 17.07 22.55 19.13 24.56 C 17.33 25.81 14.98 25.32 12.91 25.69 C 12.52 27.17 12.48 28.84 11.41 30.05 C 9.74 28.19 10.38 25.81 11.28 23.82 Z" />
<path fill="#9f1a05" opacity="1.00" d=" M 44.92 24.25 C 47.21 22.70 50.51 21.28 52.74 23.84 C 53.50 25.60 54.05 27.49 53.16 29.33 C 52.30 28.04 51.72 26.51 50.54 25.47 C 48.68 25.00 46.79 24.70 44.92 24.25 Z" />
</g>
<g id="#fcd467ff">
<path fill="#fcd467" opacity="1.00" d=" M 28.81 22.78 C 30.78 21.06 33.26 21.05 35.24 22.76 C 35.23 23.51 35.19 24.99 35.17 25.73 C 33.09 25.73 31.01 25.74 28.93 25.78 C 28.90 25.03 28.84 23.53 28.81 22.78 Z" />
</g>
<g id="#d24312ff">
<path fill="#d24312" opacity="1.00" d=" M 36.17 28.31 C 36.85 25.95 37.48 23.33 39.97 22.26 C 41.06 22.98 42.17 23.66 43.22 24.44 C 41.92 24.78 40.63 25.12 39.33 25.45 C 38.81 28.65 39.80 32.53 43.25 33.59 C 46.09 33.20 49.25 31.19 49.56 28.12 C 48.90 25.75 45.68 26.47 44.09 25.06 L 43.97 24.06 L 44.92 24.25 C 46.79 24.70 48.68 25.00 50.54 25.47 C 51.72 26.51 52.30 28.04 53.16 29.33 C 50.27 32.92 45.59 34.21 41.83 36.64 C 41.43 36.16 40.64 35.21 40.24 34.73 C 38.92 32.57 37.42 30.51 36.17 28.31 Z" />
</g>
<g id="#fb5825ff">
<path fill="#fb5825" opacity="1.00" d=" M 19.13 24.56 C 19.16 24.55 19.21 24.51 19.23 24.50 C 21.36 24.71 24.16 23.61 25.56 25.78 C 25.59 27.85 25.50 29.91 25.44 31.97 C 24.92 32.92 24.41 33.87 23.86 34.79 C 23.42 35.25 22.55 36.16 22.11 36.62 C 18.55 34.44 14.34 33.12 11.41 30.05 C 12.48 28.84 12.52 27.17 12.91 25.69 C 14.98 25.32 17.33 25.81 19.13 24.56 Z" />
</g>
<g id="#ff592aff">
<path fill="#ff592a" opacity="1.00" d=" M 39.33 25.45 C 40.63 25.12 41.92 24.78 43.22 24.44 L 44.09 25.06 C 45.68 26.47 48.90 25.75 49.56 28.12 C 49.25 31.19 46.09 33.20 43.25 33.59 C 39.80 32.53 38.81 28.65 39.33 25.45 Z" />
</g>
<g id="#ffcb3cff">
<path fill="#ffcb3c" opacity="1.00" d=" M 28.93 25.78 C 31.01 25.74 33.09 25.73 35.17 25.73 C 35.42 26.38 35.92 27.67 36.17 28.31 C 37.42 30.51 38.92 32.57 40.24 34.73 C 34.78 34.83 29.32 34.77 23.86 34.79 C 24.41 33.87 24.92 32.92 25.44 31.97 C 26.77 30.01 28.04 27.98 28.93 25.78 Z" />
</g>
<g id="#0000003b">
<path fill="#000000" opacity="0.23" d=" M 26.17 62.39 C 10.84 59.35 -0.29 41.84 4.60 26.80 C 2.89 36.45 6.35 46.90 13.96 53.18 C 23.86 62.01 40.15 62.00 50.05 53.17 C 57.65 46.89 61.11 36.46 59.40 26.82 C 64.23 41.80 53.15 59.30 37.86 62.38 C 33.98 62.72 30.06 62.72 26.17 62.39 Z" />
</g>
<g id="#834107ff">
<path fill="#834107" opacity="1.00" d=" M 17.91 43.08 L 18.97 42.70 C 27.64 44.73 36.66 44.53 45.34 42.64 C 46.21 44.81 43.62 46.39 42.83 48.21 C 42.50 47.75 41.84 46.83 41.52 46.37 C 34.33 46.72 27.07 45.82 19.93 46.85 C 19.15 45.66 18.30 44.48 17.91 43.08 Z" />
</g>
<g id="#c17316ff">
<path fill="#c17316" opacity="1.00" d=" M 19.93 46.85 C 27.07 45.82 34.33 46.72 41.52 46.37 C 41.84 46.83 42.50 47.75 42.83 48.21 C 37.21 55.57 24.61 54.83 19.93 46.85 Z" />
</g>
</svg>
