<?xml version="1.0" encoding="UTF-8" ?>
<!DOCTYPE svg PUBLIC "-//W3C//DTD SVG 1.1//EN" "http://www.w3.org/Graphics/SVG/1.1/DTD/svg11.dtd">
<svg width="64pt" height="64pt" viewBox="0 0 64 64" version="1.1" xmlns="http://www.w3.org/2000/svg">
<g id="#92ecfbff">
<path fill="#92ecfb" opacity="1.00" d=" M 16.07 2.34 C 19.37 0.87 23.09 1.46 26.59 1.42 L 26.42 0.53 C 30.14 0.55 33.86 0.57 37.59 0.55 L 37.36 1.41 C 42.16 0.85 46.81 2.00 51.50 2.67 L 51.42 3.53 C 52.21 3.51 53.78 3.47 54.56 3.45 L 54.39 4.35 C 55.04 4.47 56.35 4.70 57.01 4.82 C 58.04 6.01 59.07 7.22 59.88 8.58 C 60.19 8.70 60.80 8.92 61.11 9.03 C 60.79 9.13 60.17 9.32 59.85 9.41 C 59.13 11.05 57.93 12.46 56.29 13.25 C 50.07 16.35 43.04 17.04 36.25 18.00 C 28.55 18.35 20.72 17.90 13.30 15.69 C 12.05 15.40 10.77 15.27 9.51 15.53 C 8.15 12.83 4.82 11.82 3.41 9.03 C 4.48 7.54 5.79 6.25 6.96 4.84 C 7.61 4.70 8.93 4.43 9.59 4.29 L 9.45 3.47 C 10.22 3.48 11.77 3.50 12.54 3.51 L 12.51 2.55 C 13.70 2.49 14.88 2.42 16.07 2.34 M 20.37 2.59 L 20.55 3.54 C 19.16 3.54 17.77 3.53 16.38 3.52 L 16.46 4.58 C 15.71 4.57 14.20 4.55 13.45 4.54 L 13.49 5.85 C 13.00 5.75 12.01 5.56 11.51 5.47 C 10.83 8.04 12.42 9.43 14.79 10.10 L 15.15 9.86 C 16.67 10.20 18.20 10.53 19.73 10.83 L 20.44 10.44 C 28.14 10.73 35.85 10.75 43.55 10.43 L 44.29 10.84 C 45.84 10.52 47.39 10.17 48.94 9.79 C 50.80 9.73 52.98 9.10 52.63 6.72 C 51.20 5.40 49.32 4.77 47.51 4.18 L 47.60 3.54 C 46.22 3.54 44.84 3.54 43.46 3.53 L 43.58 2.60 C 40.86 2.61 38.15 2.49 35.43 2.44 L 35.56 1.53 C 33.05 1.71 30.41 1.33 28.02 2.33 C 25.48 2.53 22.92 2.62 20.37 2.59 Z" />
</g>
<g id="#fed230ff">
<path fill="#fed230" opacity="1.00" d=" M 15.15 9.86 C 24.87 2.33 39.12 2.56 48.94 9.79 C 47.39 10.17 45.84 10.52 44.29 10.84 L 43.55 10.43 C 36.71 6.12 27.29 6.15 20.44 10.44 L 19.73 10.83 C 18.20 10.53 16.67 10.20 15.15 9.86 Z" />
<path fill="#fed230" opacity="1.00" d=" M 9.51 15.53 C 10.77 15.27 12.05 15.40 13.30 15.69 C 11.98 19.34 9.50 23.56 11.72 27.37 C 16.14 28.79 20.62 26.47 22.66 22.46 C 24.61 23.08 26.55 23.76 28.46 24.52 C 32.70 25.28 36.72 23.78 40.76 22.78 C 43.48 24.96 46.01 28.34 49.97 27.68 C 52.04 28.11 53.35 25.96 53.20 24.13 C 53.05 21.20 51.79 18.50 50.79 15.79 C 51.87 15.48 52.96 15.17 54.05 14.87 C 57.46 19.90 59.96 25.76 59.75 31.94 C 60.11 43.51 52.12 54.56 41.23 58.25 C 28.57 63.02 13.15 56.83 7.24 44.68 C 2.41 35.53 3.55 23.89 9.51 15.53 M 23.55 28.77 C 23.79 29.89 25.12 30.98 26.10 31.55 L 26.48 31.29 C 26.49 30.76 26.52 29.72 26.53 29.20 C 25.61 28.63 24.61 28.48 23.55 28.77 M 37.38 29.55 C 36.56 30.68 37.88 32.44 39.10 31.31 C 42.21 30.22 39.16 28.43 37.38 29.55 Z" />
</g>
<g id="#ffd971ff">
<path fill="#ffd971" opacity="1.00" d=" M 20.44 10.44 C 27.29 6.15 36.71 6.12 43.55 10.43 C 35.85 10.75 28.14 10.73 20.44 10.44 Z" />
<path fill="#ffd971" opacity="1.00" d=" M 13.30 15.69 C 20.72 17.90 28.55 18.35 36.25 18.00 C 41.17 18.05 46.02 16.91 50.79 15.79 C 51.79 18.50 53.05 21.20 53.20 24.13 C 53.35 25.96 52.04 28.11 49.97 27.68 C 46.01 28.34 43.48 24.96 40.76 22.78 C 36.72 23.78 32.70 25.28 28.46 24.52 C 26.55 23.76 24.61 23.08 22.66 22.46 C 20.62 26.47 16.14 28.79 11.72 27.37 C 9.50 23.56 11.98 19.34 13.30 15.69 Z" />
</g>
</svg>
