<?xml version="1.0" encoding="UTF-8" ?>
<!DOCTYPE svg PUBLIC "-//W3C//DTD SVG 1.1//EN" "http://www.w3.org/Graphics/SVG/1.1/DTD/svg11.dtd">
<svg width="64pt" height="64pt" viewBox="0 0 64 64" version="1.1" xmlns="http://www.w3.org/2000/svg">
<g id="#f79b1cff">
<path fill="#f79b1c" opacity="1.00" d=" M 10.84 13.95 C 16.01 7.83 23.93 4.11 31.96 4.21 C 40.23 4.07 48.39 8.02 53.58 14.44 C 58.84 20.69 60.76 29.26 59.45 37.25 C 58.01 43.33 54.93 49.10 50.09 53.13 C 41.98 60.27 29.56 61.87 19.89 57.05 C 11.99 53.34 6.39 45.69 4.54 37.23 C 3.20 29.03 5.29 20.23 10.84 13.95 M 22.02 9.37 C 18.98 10.80 16.33 12.89 14.15 15.44 L 13.98 15.44 C 13.38 16.46 12.80 17.50 12.23 18.55 L 11.82 18.51 C 11.61 19.26 11.40 20.01 11.19 20.76 C 8.59 20.01 7.13 22.49 8.68 24.51 C 6.78 26.52 6.18 29.31 6.51 32.01 C 7.14 38.12 8.66 44.47 12.71 49.27 C 18.93 56.70 29.70 59.83 38.97 57.08 C 47.44 54.82 54.48 47.70 56.20 39.03 C 57.19 34.26 58.99 28.46 55.30 24.38 C 55.67 23.51 56.02 22.65 56.37 21.78 C 55.27 21.13 54.08 20.79 52.82 20.77 C 52.60 20.01 52.38 19.25 52.16 18.49 L 51.80 18.52 C 51.16 17.48 50.52 16.44 49.89 15.38 C 47.63 12.91 45.01 10.78 41.95 9.37 C 35.64 6.69 28.34 6.70 22.02 9.37 Z" />
</g>
<g id="#ffefceff">
<path fill="#ffefce" opacity="1.00" d=" M 22.02 9.37 C 28.34 6.70 35.64 6.69 41.95 9.37 C 35.46 11.25 28.52 11.17 22.02 9.37 Z" />
</g>
<g id="#ffeab6ff">
<path fill="#ffeab6" opacity="1.00" d=" M 14.15 15.44 C 16.33 12.89 18.98 10.80 22.02 9.37 C 28.52 11.17 35.46 11.25 41.95 9.37 C 45.01 10.78 47.63 12.91 49.89 15.38 C 37.99 15.87 26.06 15.73 14.15 15.44 Z" />
</g>
<g id="#ffe39aff">
<path fill="#ffe39a" opacity="1.00" d=" M 13.98 15.44 L 14.15 15.44 C 26.06 15.73 37.99 15.87 49.89 15.38 C 50.52 16.44 51.16 17.48 51.80 18.52 C 43.22 19.46 34.59 18.44 25.99 18.97 C 21.40 19.24 16.80 19.05 12.23 18.55 C 12.80 17.50 13.38 16.46 13.98 15.44 Z" />
</g>
<g id="#ffdc82ff">
<path fill="#ffdc82" opacity="1.00" d=" M 11.82 18.51 L 12.23 18.55 C 16.80 19.05 21.40 19.24 25.99 18.97 C 34.59 18.44 43.22 19.46 51.80 18.52 L 52.16 18.49 C 52.38 19.25 52.60 20.01 52.82 20.77 C 46.98 20.60 41.15 21.30 35.49 22.73 C 31.99 23.71 28.43 22.74 25.00 21.98 C 20.48 20.91 15.81 20.74 11.19 20.76 C 11.40 20.01 11.61 19.26 11.82 18.51 Z" />
</g>
<g id="#171717ff">
<path fill="#171717" opacity="1.00" d=" M 8.68 24.51 C 7.13 22.49 8.59 20.01 11.19 20.76 C 15.81 20.74 20.48 20.91 25.00 21.98 C 28.43 22.74 31.99 23.71 35.49 22.73 C 41.15 21.30 46.98 20.60 52.82 20.77 C 54.08 20.79 55.27 21.13 56.37 21.78 C 56.02 22.65 55.67 23.51 55.30 24.38 C 53.80 27.51 53.09 31.12 50.82 33.83 C 47.20 37.05 41.48 36.91 37.45 34.54 C 34.81 32.31 33.73 28.83 32.00 25.93 C 30.28 28.83 29.18 32.28 26.57 34.53 C 22.38 37.02 16.16 37.10 12.71 33.30 C 10.92 30.60 10.09 27.41 8.68 24.51 M 13.96 22.94 C 13.70 23.46 13.17 24.51 12.91 25.04 C 13.34 25.40 14.20 26.13 14.63 26.50 C 18.96 26.26 23.24 25.46 27.59 25.38 C 23.49 22.89 18.58 22.96 13.96 22.94 M 36.41 25.40 C 41.30 25.73 46.21 25.77 51.10 25.60 C 50.75 24.71 50.43 23.81 50.15 22.90 C 45.49 23.00 40.52 22.85 36.41 25.40 M 14.49 27.56 C 14.55 28.40 14.66 30.08 14.72 30.92 C 17.95 34.71 25.11 34.23 26.24 28.80 C 22.68 26.69 18.40 27.66 14.49 27.56 M 38.75 31.00 C 41.48 35.33 49.19 33.56 50.19 28.61 C 46.97 27.07 43.28 27.33 39.83 27.58 C 38.03 27.62 37.86 29.88 38.75 31.00 Z" />
</g>
<g id="#6b6b6bff">
<path fill="#6b6b6b" opacity="1.00" d=" M 13.96 22.94 C 18.58 22.96 23.49 22.89 27.59 25.38 C 23.24 25.46 18.96 26.26 14.63 26.50 C 14.20 26.13 13.34 25.40 12.91 25.04 C 13.17 24.51 13.70 23.46 13.96 22.94 Z" />
<path fill="#6b6b6b" opacity="1.00" d=" M 36.41 25.40 C 40.52 22.85 45.49 23.00 50.15 22.90 C 50.43 23.81 50.75 24.71 51.10 25.60 C 46.21 25.77 41.30 25.73 36.41 25.40 Z" />
</g>
<g id="#ffc829ff">
<path fill="#ffc829" opacity="1.00" d=" M 6.51 32.01 C 6.18 29.31 6.78 26.52 8.68 24.51 C 10.09 27.41 10.92 30.60 12.71 33.30 C 16.16 37.10 22.38 37.02 26.57 34.53 C 29.18 32.28 30.28 28.83 32.00 25.93 C 33.73 28.83 34.81 32.31 37.45 34.54 C 41.48 36.91 47.20 37.05 50.82 33.83 C 53.09 31.12 53.80 27.51 55.30 24.38 C 58.99 28.46 57.19 34.26 56.20 39.03 C 54.48 47.70 47.44 54.82 38.97 57.08 C 29.70 59.83 18.93 56.70 12.71 49.27 C 8.66 44.47 7.14 38.12 6.51 32.01 M 19.41 39.95 L 18.51 39.49 L 18.79 40.92 C 16.88 42.01 13.99 42.56 13.33 44.94 C 14.22 50.30 19.58 52.91 24.03 54.91 C 32.47 58.76 42.78 55.39 48.95 48.97 C 51.44 45.45 47.50 42.77 45.48 40.34 L 44.09 39.79 C 44.54 39.47 45.43 38.83 45.88 38.51 C 42.17 38.36 38.68 37.19 35.25 35.91 C 29.80 34.85 23.78 36.75 19.41 39.95 Z" />
</g>
<g id="#343434ff">
<path fill="#343434" opacity="1.00" d=" M 14.49 27.56 C 18.40 27.66 22.68 26.69 26.24 28.80 C 25.11 34.23 17.95 34.71 14.72 30.92 C 14.66 30.08 14.55 28.40 14.49 27.56 Z" />
<path fill="#343434" opacity="1.00" d=" M 38.75 31.00 C 37.86 29.88 38.03 27.62 39.83 27.58 C 43.28 27.33 46.97 27.07 50.19 28.61 C 49.19 33.56 41.48 35.33 38.75 31.00 Z" />
</g>
<g id="#ffd829ff">
<path fill="#ffd829" opacity="1.00" d=" M 19.41 39.95 C 23.78 36.75 29.80 34.85 35.25 35.91 C 38.68 37.19 42.17 38.36 45.88 38.51 C 45.43 38.83 44.54 39.47 44.09 39.79 C 40.30 42.55 35.79 44.58 30.99 44.10 C 26.69 44.31 23.04 41.85 19.41 39.95 Z" />
</g>
<g id="#00000045">
<path fill="#000000" opacity="0.27" d=" M 4.54 37.23 C 6.39 45.69 11.99 53.34 19.89 57.05 C 29.56 61.87 41.98 60.27 50.09 53.13 C 54.93 49.10 58.01 43.33 59.45 37.25 C 60.38 42.27 57.63 46.96 54.83 50.88 C 49.58 58.04 40.97 62.75 32.01 62.57 C 23.02 62.74 14.36 58.01 9.11 50.81 C 6.34 46.89 3.63 42.22 4.54 37.23 Z" />
</g>
<g id="#8f590fff">
<path fill="#8f590f" opacity="1.00" d=" M 18.51 39.49 L 19.41 39.95 C 23.04 41.85 26.69 44.31 30.99 44.10 C 35.79 44.58 40.30 42.55 44.09 39.79 L 45.48 40.34 C 43.48 43.27 40.66 45.46 37.59 47.19 C 33.99 48.05 30.24 48.07 26.61 47.35 C 23.65 45.70 20.59 43.90 18.79 40.92 L 18.51 39.49 Z" />
</g>
<g id="#ffe02cff">
<path fill="#ffe02c" opacity="1.00" d=" M 45.48 40.34 C 47.50 42.77 51.44 45.45 48.95 48.97 C 42.78 55.39 32.47 58.76 24.03 54.91 C 19.58 52.91 14.22 50.30 13.33 44.94 C 13.99 42.56 16.88 42.01 18.79 40.92 C 20.59 43.90 23.65 45.70 26.61 47.35 C 29.83 49.97 34.46 49.96 37.59 47.19 C 40.66 45.46 43.48 43.27 45.48 40.34 Z" />
</g>
<g id="#fdf847ff">
<path fill="#fdf847" opacity="1.00" d=" M 26.61 47.35 C 30.24 48.07 33.99 48.05 37.59 47.19 C 34.46 49.96 29.83 49.97 26.61 47.35 Z" />
</g>
</svg>
