<?xml version="1.0" encoding="UTF-8" ?>
<!DOCTYPE svg PUBLIC "-//W3C//DTD SVG 1.1//EN" "http://www.w3.org/Graphics/SVG/1.1/DTD/svg11.dtd">
<svg width="64pt" height="64pt" viewBox="0 0 64 64" version="1.1" xmlns="http://www.w3.org/2000/svg">
<g id="#3a0849ff">
<path fill="#3a0849" opacity="1.00" d=" M 1.20 1.99 C 1.85 0.27 3.92 1.69 4.94 2.36 C 2.81 3.30 3.34 5.56 3.36 7.42 C 5.60 9.64 7.68 12.02 9.75 14.41 C 12.10 12.39 14.52 10.47 16.80 8.39 C 16.64 8.11 16.32 7.57 16.17 7.30 C 19.63 7.67 22.56 5.52 25.85 4.88 C 31.41 3.74 37.38 4.06 42.62 6.36 C 44.19 7.12 45.90 7.36 47.63 7.28 C 47.59 7.63 47.50 8.35 47.45 8.71 C 49.75 10.59 52.01 12.50 54.26 14.43 C 56.92 11.08 60.67 8.36 61.67 3.97 C 60.97 3.61 59.56 2.91 58.85 2.55 C 59.99 1.73 61.26 1.03 62.72 1.21 C 63.16 7.67 62.23 15.15 57.23 19.79 C 58.50 23.02 59.54 26.35 59.91 29.80 C 59.89 32.65 59.69 35.51 59.09 38.30 C 58.54 32.31 58.16 26.06 55.17 20.69 C 53.77 17.81 51.86 15.01 48.69 13.93 C 39.76 5.19 24.13 5.22 15.23 14.00 C 11.47 15.11 9.75 18.84 8.16 22.07 C 5.71 27.13 5.43 32.83 4.92 38.33 C 4.31 35.50 4.10 32.61 4.10 29.72 C 4.47 26.29 5.52 22.99 6.77 19.80 C 1.95 15.36 0.95 8.21 1.20 1.99 Z" />
</g>
<g id="#721090ff">
<path fill="#721090" opacity="1.00" d=" M 3.36 7.42 C 3.34 5.56 2.81 3.30 4.94 2.36 C 8.07 5.16 12.13 6.46 16.17 7.30 C 16.32 7.57 16.64 8.11 16.80 8.39 C 14.52 10.47 12.10 12.39 9.75 14.41 C 7.68 12.02 5.60 9.64 3.36 7.42 Z" />
<path fill="#721090" opacity="1.00" d=" M 47.63 7.28 C 51.68 6.61 55.67 5.22 58.85 2.55 C 59.56 2.91 60.97 3.61 61.67 3.97 C 60.67 8.36 56.92 11.08 54.26 14.43 C 52.01 12.50 49.75 10.59 47.45 8.71 C 47.50 8.35 47.59 7.63 47.63 7.28 Z" />
</g>
<g id="#a976b9ff">
<path fill="#a976b9" opacity="1.00" d=" M 15.23 14.00 C 24.13 5.22 39.76 5.19 48.69 13.93 C 49.75 15.77 50.78 17.62 51.85 19.45 C 49.67 19.00 48.32 17.12 46.73 15.74 C 40.64 14.05 34.25 15.50 28.02 15.00 C 23.42 14.53 18.90 15.76 14.32 15.64 L 15.23 14.00 Z" />
</g>
<g id="#501961f6">
<path fill="#501961" opacity="0.96" d=" M 8.16 22.07 C 9.75 18.84 11.47 15.11 15.23 14.00 L 14.32 15.64 C 13.66 16.81 12.97 17.96 12.28 19.12 C 4.70 27.81 5.48 42.47 13.60 50.57 C 17.82 54.91 24.12 59.88 30.47 57.63 C 30.47 58.30 30.43 58.96 30.38 59.63 C 29.23 59.54 26.91 59.38 25.75 59.30 C 15.55 57.04 7.03 48.59 4.92 38.33 C 5.43 32.83 5.71 27.13 8.16 22.07 Z" />
<path fill="#501961" opacity="0.96" d=" M 48.69 13.93 C 51.86 15.01 53.77 17.81 55.17 20.69 C 58.16 26.06 58.54 32.31 59.09 38.30 C 56.98 48.57 48.46 57.03 38.25 59.30 C 37.09 59.38 34.77 59.54 33.61 59.62 C 33.56 58.96 33.54 58.29 33.54 57.63 C 35.44 58.50 37.61 58.67 39.54 57.84 C 45.07 55.88 49.99 52.08 53.20 47.16 C 58.34 38.95 58.52 26.91 51.86 19.47 L 51.85 19.45 C 50.78 17.62 49.75 15.77 48.69 13.93 Z" />
</g>
<g id="#ab60c1ff">
<path fill="#ab60c1" opacity="1.00" d=" M 12.28 19.12 C 12.97 17.96 13.66 16.81 14.32 15.64 C 18.90 15.76 23.42 14.53 28.02 15.00 C 34.25 15.50 40.64 14.05 46.73 15.74 C 45.57 18.40 44.23 20.97 43.04 23.61 C 32.94 22.98 22.81 23.52 12.70 23.82 C 12.55 22.25 12.39 20.69 12.28 19.12 Z" />
</g>
<g id="#a44fb8ff">
<path fill="#a44fb8" opacity="1.00" d=" M 46.73 15.74 C 48.32 17.12 49.67 19.00 51.85 19.45 L 51.86 19.47 C 51.73 21.06 51.52 22.64 51.34 24.23 C 48.56 24.29 45.79 24.03 43.04 23.61 C 44.23 20.97 45.57 18.40 46.73 15.74 Z" />
</g>
<g id="#771892ff">
<path fill="#771892" opacity="1.00" d=" M 13.60 50.57 C 5.48 42.47 4.70 27.81 12.28 19.12 C 12.39 20.69 12.55 22.25 12.70 23.82 C 8.43 30.31 6.85 39.52 11.83 46.09 C 12.41 47.02 13.01 47.93 13.60 48.84 L 13.60 50.57 Z" />
<path fill="#771892" opacity="1.00" d=" M 51.86 19.47 C 58.52 26.91 58.34 38.95 53.20 47.16 C 53.25 46.51 53.36 45.21 53.42 44.56 C 56.40 37.97 55.57 30.08 51.34 24.23 C 51.52 22.64 51.73 21.06 51.86 19.47 Z" />
</g>
<g id="#962db2ff">
<path fill="#962db2" opacity="1.00" d=" M 12.70 23.82 C 22.81 23.52 32.94 22.98 43.04 23.61 C 45.79 24.03 48.56 24.29 51.34 24.23 C 55.57 30.08 56.40 37.97 53.42 44.56 L 52.32 45.53 C 52.64 39.58 54.41 32.15 49.11 27.81 C 48.82 27.95 48.26 28.25 47.98 28.40 C 47.69 28.15 47.13 27.65 46.84 27.40 C 44.73 25.22 41.46 25.69 38.73 25.09 C 34.29 24.26 29.74 24.19 25.29 25.04 C 22.56 25.65 19.29 25.24 17.18 27.41 C 16.88 27.65 16.29 28.12 15.99 28.36 C 15.75 28.24 15.28 27.99 15.05 27.87 C 13.42 30.36 11.35 32.85 11.21 35.97 C 10.98 39.35 11.32 42.75 11.83 46.09 C 6.85 39.52 8.43 30.31 12.70 23.82 Z" />
</g>
<g id="#b65fc8ff">
<path fill="#b65fc8" opacity="1.00" d=" M 25.29 25.04 C 29.74 24.19 34.29 24.26 38.73 25.09 C 41.46 25.69 44.73 25.22 46.84 27.40 C 43.56 26.84 40.43 28.24 37.85 30.16 C 33.99 29.41 30.03 29.38 26.17 30.19 C 23.60 28.26 20.47 26.83 17.18 27.41 C 19.29 25.24 22.56 25.65 25.29 25.04 Z" />
</g>
<g id="#b14dc8ff">
<path fill="#b14dc8" opacity="1.00" d=" M 15.05 27.87 C 15.28 27.99 15.75 28.24 15.99 28.36 C 17.60 29.29 19.35 29.91 21.10 30.51 C 18.21 34.16 14.45 38.00 14.55 42.98 C 15.38 48.42 19.95 53.08 25.30 54.27 C 29.63 55.84 34.40 55.87 38.71 54.25 C 44.36 52.98 49.23 47.85 49.45 41.96 C 48.91 37.43 45.58 33.95 42.87 30.52 C 44.60 29.87 46.37 29.32 47.98 28.40 C 48.26 28.25 48.82 27.95 49.11 27.81 C 54.41 32.15 52.64 39.58 52.32 45.53 C 47.99 52.53 40.29 57.30 32.01 57.53 C 24.94 57.38 18.57 53.63 13.60 48.84 C 13.01 47.93 12.41 47.02 11.83 46.09 C 11.32 42.75 10.98 39.35 11.21 35.97 C 11.35 32.85 13.42 30.36 15.05 27.87 Z" />
</g>
<g id="#000000ff">
<path fill="#000000" opacity="1.00" d=" M 17.18 27.41 C 20.47 26.83 23.60 28.26 26.17 30.19 C 27.05 31.26 27.93 32.33 28.80 33.42 C 25.86 34.98 28.50 39.77 24.91 41.01 C 21.81 41.26 21.38 37.49 21.14 35.24 C 22.00 33.91 23.04 32.72 24.11 31.57 C 23.36 31.31 21.85 30.78 21.10 30.51 C 19.35 29.91 17.60 29.29 15.99 28.36 C 16.29 28.12 16.88 27.65 17.18 27.41 Z" />
<path fill="#000000" opacity="1.00" d=" M 37.85 30.16 C 40.43 28.24 43.56 26.84 46.84 27.40 C 47.13 27.65 47.69 28.15 47.98 28.40 C 46.37 29.32 44.60 29.87 42.87 30.52 C 41.87 30.91 40.88 31.32 39.89 31.73 C 40.94 32.81 41.98 33.91 42.87 35.12 C 42.63 37.39 42.25 41.25 39.11 41.01 C 36.49 39.90 36.72 36.79 36.61 34.43 C 36.24 34.21 35.51 33.77 35.14 33.54 C 36.03 32.41 36.93 31.28 37.85 30.16 Z" />
<path fill="#000000" opacity="1.00" d=" M 18.84 43.72 C 18.83 43.40 18.80 42.74 18.79 42.41 C 22.23 44.52 25.79 46.85 29.96 47.05 C 35.05 47.69 40.09 45.86 44.10 42.78 L 45.28 42.91 C 45.06 43.32 44.61 44.14 44.38 44.55 C 40.09 50.09 32.06 52.58 25.60 49.43 C 22.84 48.25 20.61 46.12 18.84 43.72 Z" />
</g>
<g id="#00000040">
<path fill="#000000" opacity="0.25" d=" M 5.45 44.86 C 3.58 40.12 2.64 34.69 4.10 29.72 C 4.10 32.61 4.31 35.50 4.92 38.33 C 7.03 48.59 15.55 57.04 25.75 59.30 C 29.87 60.02 34.13 60.01 38.25 59.30 C 48.46 57.03 56.98 48.57 59.09 38.30 C 59.69 35.51 59.89 32.65 59.91 29.80 C 61.62 35.86 59.97 42.59 57.05 48.05 C 52.71 54.39 46.80 60.32 39.04 62.08 C 31.04 63.48 22.08 62.83 15.50 57.59 C 11.59 53.87 7.33 50.08 5.45 44.86 Z" />
</g>
<g id="#c780d5ff">
<path fill="#c780d5" opacity="1.00" d=" M 26.17 30.19 C 30.03 29.38 33.99 29.41 37.85 30.16 C 36.93 31.28 36.03 32.41 35.14 33.54 C 33.10 34.84 30.77 34.80 28.80 33.42 C 27.93 32.33 27.05 31.26 26.17 30.19 Z" />
</g>
<g id="#c574d5ff">
<path fill="#c574d5" opacity="1.00" d=" M 14.55 42.98 C 14.45 38.00 18.21 34.16 21.10 30.51 C 21.85 30.78 23.36 31.31 24.11 31.57 C 23.04 32.72 22.00 33.91 21.14 35.24 C 21.05 34.98 20.88 34.46 20.80 34.20 C 20.06 36.91 19.11 39.60 18.79 42.41 C 18.80 42.74 18.83 43.40 18.84 43.72 C 18.91 44.45 19.04 45.91 19.11 46.64 C 19.79 50.07 22.96 52.00 25.30 54.27 C 19.95 53.08 15.38 48.42 14.55 42.98 Z" />
</g>
<g id="#c574d4ff">
<path fill="#c574d4" opacity="1.00" d=" M 39.89 31.73 C 40.88 31.32 41.87 30.91 42.87 30.52 C 45.58 33.95 48.91 37.43 49.45 41.96 C 49.23 47.85 44.36 52.98 38.71 54.25 C 42.42 51.39 45.78 47.82 46.67 43.06 C 46.32 43.02 45.63 42.94 45.28 42.91 L 44.10 42.78 C 44.50 42.22 44.90 41.66 45.30 41.10 C 44.43 38.88 43.83 36.57 43.25 34.27 C 43.16 34.48 42.96 34.91 42.87 35.12 C 41.98 33.91 40.94 32.81 39.89 31.73 Z" />
</g>
<g id="#d9abe4ff">
<path fill="#d9abe4" opacity="1.00" d=" M 28.80 33.42 C 30.77 34.80 33.10 34.84 35.14 33.54 C 35.51 33.77 36.24 34.21 36.61 34.43 C 36.72 36.79 36.49 39.90 39.11 41.01 C 42.25 41.25 42.63 37.39 42.87 35.12 C 42.96 34.91 43.16 34.48 43.25 34.27 C 43.83 36.57 44.43 38.88 45.30 41.10 C 44.90 41.66 44.50 42.22 44.10 42.78 C 40.09 45.86 35.05 47.69 29.96 47.05 C 25.79 46.85 22.23 44.52 18.79 42.41 C 19.11 39.60 20.06 36.91 20.80 34.20 C 20.88 34.46 21.05 34.98 21.14 35.24 C 21.38 37.49 21.81 41.26 24.91 41.01 C 28.50 39.77 25.86 34.98 28.80 33.42 Z" />
</g>
<g id="#d08ddeff">
<path fill="#d08dde" opacity="1.00" d=" M 45.28 42.91 C 45.63 42.94 46.32 43.02 46.67 43.06 C 45.78 47.82 42.42 51.39 38.71 54.25 C 34.40 55.87 29.63 55.84 25.30 54.27 C 22.96 52.00 19.79 50.07 19.11 46.64 C 22.58 49.39 26.38 52.41 31.06 52.28 C 36.33 52.64 43.05 50.17 44.38 44.55 C 44.61 44.14 45.06 43.32 45.28 42.91 Z" />
</g>
<g id="#dabfdeff">
<path fill="#dabfde" opacity="1.00" d=" M 18.84 43.72 C 20.61 46.12 22.84 48.25 25.60 49.43 C 32.06 52.58 40.09 50.09 44.38 44.55 C 43.05 50.17 36.33 52.64 31.06 52.28 C 26.38 52.41 22.58 49.39 19.11 46.64 C 19.04 45.91 18.91 44.45 18.84 43.72 Z" />
</g>
<g id="#7e3c91f7">
<path fill="#7e3c91" opacity="0.97" d=" M 52.32 45.53 L 53.42 44.56 C 53.36 45.21 53.25 46.51 53.20 47.16 C 49.99 52.08 45.07 55.88 39.54 57.84 C 37.61 58.67 35.44 58.50 33.54 57.63 C 33.54 58.29 33.56 58.96 33.61 59.62 C 34.77 59.54 37.09 59.38 38.25 59.30 C 34.13 60.01 29.87 60.02 25.75 59.30 C 26.91 59.38 29.23 59.54 30.38 59.63 C 30.43 58.96 30.47 58.30 30.47 57.63 C 24.12 59.88 17.82 54.91 13.60 50.57 L 13.60 48.84 C 18.57 53.63 24.94 57.38 32.01 57.53 C 40.29 57.30 47.99 52.53 52.32 45.53 Z" />
</g>
</svg>
