<?xml version="1.0" encoding="UTF-8" ?>
<!DOCTYPE svg PUBLIC "-//W3C//DTD SVG 1.1//EN" "http://www.w3.org/Graphics/SVG/1.1/DTD/svg11.dtd">
<svg width="64pt" height="64pt" viewBox="0 0 64 64" version="1.1" xmlns="http://www.w3.org/2000/svg">
<g id="#f79e1cff">
<path fill="#f79e1c" opacity="1.00" d=" M 13.88 10.91 C 21.66 4.03 33.46 2.25 42.96 6.43 C 51.96 10.18 58.45 18.98 59.72 28.61 C 60.07 33.54 59.46 38.52 57.59 43.12 C 57.20 42.73 56.43 41.93 56.04 41.54 C 56.76 36.91 58.10 32.21 57.15 27.51 C 55.93 21.81 53.13 16.00 47.84 13.05 C 47.60 12.88 47.12 12.55 46.88 12.38 C 38.40 5.73 25.61 5.66 17.15 12.39 C 14.62 14.45 12.91 17.27 11.20 20.01 C 11.09 20.19 10.86 20.56 10.75 20.75 C 7.72 24.60 6.59 29.58 7.76 34.36 C 8.48 38.25 9.08 42.28 11.05 45.77 C 15.16 53.16 23.47 58.15 32.00 57.67 C 38.06 58.07 43.69 55.39 48.46 51.90 C 48.86 52.26 49.65 52.99 50.04 53.35 C 41.54 60.33 28.99 61.96 19.22 56.73 C 9.02 51.63 3.03 39.95 4.27 28.68 C 5.22 21.86 8.60 15.37 13.88 10.91 Z" />
</g>
<g id="#ffeec3ff">
<path fill="#ffeec3" opacity="1.00" d=" M 17.15 12.39 C 25.61 5.66 38.40 5.73 46.88 12.38 C 42.08 14.03 36.98 13.32 32.02 13.39 C 27.06 13.36 21.97 13.94 17.15 12.39 Z" />
</g>
<g id="#ffe49bff">
<path fill="#ffe49b" opacity="1.00" d=" M 11.20 20.01 C 12.91 17.27 14.62 14.45 17.15 12.39 C 21.97 13.94 27.06 13.36 32.02 13.39 C 36.98 13.32 42.08 14.03 46.88 12.38 C 47.12 12.55 47.60 12.88 47.84 13.05 C 49.61 15.26 51.10 17.69 52.33 20.24 C 49.61 19.84 46.86 19.71 44.12 20.03 C 38.73 20.69 33.38 18.83 27.99 19.75 C 22.42 20.70 16.80 19.56 11.20 20.01 Z" />
</g>
<g id="#ffca3bff">
<path fill="#ffca3b" opacity="1.00" d=" M 47.84 13.05 C 53.13 16.00 55.93 21.81 57.15 27.51 C 58.10 32.21 56.76 36.91 56.04 41.54 C 55.78 41.29 55.27 40.80 55.01 40.56 C 55.10 38.28 55.36 36.02 55.59 33.75 C 52.26 34.08 48.90 34.07 45.57 33.75 C 39.48 33.15 33.39 34.57 27.30 33.80 C 20.78 33.04 14.28 34.37 7.76 34.36 C 6.59 29.58 7.72 24.60 10.75 20.75 C 10.76 21.48 10.79 22.95 10.81 23.68 C 10.97 24.96 11.15 26.24 11.37 27.51 C 13.53 27.65 15.70 27.81 17.87 27.94 C 17.89 28.85 17.94 30.66 17.96 31.56 C 18.30 31.37 18.99 30.99 19.34 30.80 C 21.36 29.75 23.58 29.72 25.60 30.78 C 25.97 30.98 26.72 31.38 27.09 31.57 C 26.98 29.64 26.88 27.71 26.69 25.79 C 30.23 25.53 33.77 25.52 37.31 25.79 C 37.10 27.71 37.01 29.64 36.91 31.57 C 37.28 31.37 38.02 30.97 38.39 30.77 C 40.42 29.73 42.65 29.76 44.67 30.80 C 45.01 30.99 45.70 31.37 46.04 31.57 C 46.07 30.67 46.11 28.88 46.13 27.99 C 48.24 27.85 50.39 27.81 52.46 27.33 C 52.91 26.14 53.25 24.93 53.46 23.68 C 53.11 22.53 52.75 21.37 52.33 20.24 C 51.10 17.69 49.61 15.26 47.84 13.05 Z" />
</g>
<g id="#ffd86dff">
<path fill="#ffd86d" opacity="1.00" d=" M 10.75 20.75 C 10.86 20.56 11.09 20.19 11.20 20.01 C 16.80 19.56 22.42 20.70 27.99 19.75 C 33.38 18.83 38.73 20.69 44.12 20.03 C 46.86 19.71 49.61 19.84 52.33 20.24 C 52.75 21.37 53.11 22.53 53.46 23.68 C 50.56 23.39 47.64 23.43 44.76 23.85 C 44.15 23.21 43.52 22.59 42.89 21.98 C 42.19 21.96 40.79 21.92 40.09 21.90 C 39.13 23.17 38.17 24.44 37.31 25.79 C 33.77 25.52 30.23 25.53 26.69 25.79 C 25.68 23.51 23.83 21.71 21.20 21.71 C 20.55 22.41 19.91 23.13 19.27 23.85 C 16.47 23.43 13.63 23.42 10.81 23.68 C 10.79 22.95 10.76 21.48 10.75 20.75 Z" />
</g>
<g id="#734a0fff">
<path fill="#734a0f" opacity="1.00" d=" M 21.20 21.71 C 23.83 21.71 25.68 23.51 26.69 25.79 C 26.88 27.71 26.98 29.64 27.09 31.57 C 26.72 31.38 25.97 30.98 25.60 30.78 C 25.41 30.37 25.04 29.54 24.86 29.12 C 24.57 27.73 24.79 26.17 24.12 24.89 C 23.15 24.49 22.16 24.13 21.16 23.82 C 20.39 25.59 19.85 27.46 19.72 29.39 C 19.62 29.74 19.43 30.44 19.34 30.80 C 18.99 30.99 18.30 31.37 17.96 31.56 C 17.94 30.66 17.89 28.85 17.87 27.94 C 18.23 26.54 18.71 25.18 19.27 23.85 C 19.91 23.13 20.55 22.41 21.20 21.71 Z" />
<path fill="#734a0f" opacity="1.00" d=" M 40.09 21.90 C 40.79 21.92 42.19 21.96 42.89 21.98 C 43.52 22.59 44.15 23.21 44.76 23.85 C 45.31 25.19 45.78 26.57 46.13 27.99 C 46.11 28.88 46.07 30.67 46.04 31.57 C 45.70 31.37 45.01 30.99 44.67 30.80 C 44.57 30.45 44.37 29.75 44.26 29.39 C 44.12 27.60 44.17 25.57 42.66 24.29 C 41.49 24.20 40.40 24.72 39.28 25.00 C 39.33 26.35 39.34 27.71 39.33 29.06 C 39.09 29.49 38.63 30.34 38.39 30.77 C 38.02 30.97 37.28 31.37 36.91 31.57 C 37.01 29.64 37.10 27.71 37.31 25.79 C 38.17 24.44 39.13 23.17 40.09 21.90 Z" />
</g>
<g id="#ffd359ff">
<path fill="#ffd359" opacity="1.00" d=" M 10.81 23.68 C 13.63 23.42 16.47 23.43 19.27 23.85 C 18.71 25.18 18.23 26.54 17.87 27.94 C 15.70 27.81 13.53 27.65 11.37 27.51 C 11.15 26.24 10.97 24.96 10.81 23.68 Z" />
<path fill="#ffd359" opacity="1.00" d=" M 44.76 23.85 C 47.64 23.43 50.56 23.39 53.46 23.68 C 53.25 24.93 52.91 26.14 52.46 27.33 C 50.39 27.81 48.24 27.85 46.13 27.99 C 45.78 26.57 45.31 25.19 44.76 23.85 Z" />
</g>
<g id="#aa6b13ff">
<path fill="#aa6b13" opacity="1.00" d=" M 21.16 23.82 C 22.16 24.13 23.15 24.49 24.12 24.89 C 24.79 26.17 24.57 27.73 24.86 29.12 C 23.24 27.74 21.25 28.00 19.72 29.39 C 19.85 27.46 20.39 25.59 21.16 23.82 Z" />
<path fill="#aa6b13" opacity="1.00" d=" M 39.28 25.00 C 40.40 24.72 41.49 24.20 42.66 24.29 C 44.17 25.57 44.12 27.60 44.26 29.39 C 42.80 28.09 40.88 27.65 39.33 29.06 C 39.34 27.71 39.33 26.35 39.28 25.00 Z" />
</g>
<g id="#eedd57ff">
<path fill="#eedd57" opacity="1.00" d=" M 19.72 29.39 C 21.25 28.00 23.24 27.74 24.86 29.12 C 25.04 29.54 25.41 30.37 25.60 30.78 C 23.58 29.72 21.36 29.75 19.34 30.80 C 19.43 30.44 19.62 29.74 19.72 29.39 Z" />
<path fill="#eedd57" opacity="1.00" d=" M 39.33 29.06 C 40.88 27.65 42.80 28.09 44.26 29.39 C 44.37 29.75 44.57 30.45 44.67 30.80 C 42.65 29.76 40.42 29.73 38.39 30.77 C 38.63 30.34 39.09 29.49 39.33 29.06 Z" />
</g>
<g id="#0000003b">
<path fill="#000000" opacity="0.23" d=" M 11.88 54.14 C 5.09 47.87 1.63 37.63 4.27 28.68 C 3.03 39.95 9.02 51.63 19.22 56.73 C 28.99 61.96 41.54 60.33 50.04 53.35 C 55.20 53.40 60.20 48.29 57.59 43.12 C 59.46 38.52 60.07 33.54 59.72 28.61 C 61.61 33.58 60.14 38.96 59.22 43.98 C 58.60 46.98 59.01 50.44 57.02 52.99 C 54.90 55.94 50.81 55.85 48.03 57.92 C 37.25 65.47 20.65 64.31 11.88 54.14 Z" />
</g>
<g id="#ffd82cff">
<path fill="#ffd82c" opacity="1.00" d=" M 7.76 34.36 C 14.28 34.37 20.78 33.04 27.30 33.80 C 33.39 34.57 39.48 33.15 45.57 33.75 C 48.90 34.07 52.26 34.08 55.59 33.75 C 55.36 36.02 55.10 38.28 55.01 40.56 C 53.69 39.39 52.38 38.20 51.14 36.95 C 50.90 35.76 50.53 34.61 49.03 34.90 C 47.31 38.40 46.15 42.37 43.10 45.01 C 37.08 50.94 26.29 50.75 20.49 44.61 C 17.65 42.03 16.62 38.24 14.99 34.92 C 12.15 34.25 12.81 37.64 13.68 39.18 C 16.00 44.51 20.88 48.01 26.06 50.27 C 29.47 52.92 34.58 52.90 37.97 50.22 C 39.76 49.26 41.59 48.40 43.43 47.55 C 44.81 48.72 46.20 49.88 47.55 51.08 L 48.46 51.90 C 43.69 55.39 38.06 58.07 32.00 57.67 C 23.47 58.15 15.16 53.16 11.05 45.77 C 9.08 42.28 8.48 38.25 7.76 34.36 Z" />
</g>
<g id="#6e3e14ff">
<path fill="#6e3e14" opacity="1.00" d=" M 13.68 39.18 C 12.81 37.64 12.15 34.25 14.99 34.92 C 16.62 38.24 17.65 42.03 20.49 44.61 C 26.29 50.75 37.08 50.94 43.10 45.01 C 46.15 42.37 47.31 38.40 49.03 34.90 C 50.53 34.61 50.90 35.76 51.14 36.95 C 48.36 39.10 47.11 42.48 45.21 45.32 C 44.62 46.07 44.03 46.81 43.43 47.55 C 41.59 48.40 39.76 49.26 37.97 50.22 C 34.06 51.21 29.98 51.18 26.06 50.27 C 20.88 48.01 16.00 44.51 13.68 39.18 Z" />
</g>
<g id="#da658df7">
<path fill="#da658d" opacity="0.97" d=" M 45.21 45.32 C 47.11 42.48 48.36 39.10 51.14 36.95 C 52.38 38.20 53.69 39.39 55.01 40.56 C 55.27 40.80 55.78 41.29 56.04 41.54 C 56.43 41.93 57.20 42.73 57.59 43.12 C 60.20 48.29 55.20 53.40 50.04 53.35 C 49.65 52.99 48.86 52.26 48.46 51.90 L 47.55 51.08 C 49.11 51.27 50.67 51.46 52.24 51.66 C 54.37 49.59 57.38 47.30 56.66 43.90 C 55.65 41.21 52.79 40.26 50.18 39.97 C 49.49 41.30 48.79 42.64 48.08 43.96 C 47.36 44.30 45.93 44.98 45.21 45.32 Z" />
</g>
<g id="#ffb0d2ff">
<path fill="#ffb0d2" opacity="1.00" d=" M 50.18 39.97 C 52.79 40.26 55.65 41.21 56.66 43.90 C 57.38 47.30 54.37 49.59 52.24 51.66 C 50.67 51.46 49.11 51.27 47.55 51.08 C 46.20 49.88 44.81 48.72 43.43 47.55 C 44.03 46.81 44.62 46.07 45.21 45.32 C 45.93 44.98 47.36 44.30 48.08 43.96 C 48.79 42.64 49.49 41.30 50.18 39.97 Z" />
</g>
<g id="#e6e047ff">
<path fill="#e6e047" opacity="1.00" d=" M 26.06 50.27 C 29.98 51.18 34.06 51.21 37.97 50.22 C 34.58 52.90 29.47 52.92 26.06 50.27 Z" />
</g>
</svg>
