<?xml version="1.0" encoding="UTF-8" ?>
<!DOCTYPE svg PUBLIC "-//W3C//DTD SVG 1.1//EN" "http://www.w3.org/Graphics/SVG/1.1/DTD/svg11.dtd">
<svg width="64pt" height="64pt" viewBox="0 0 64 64" version="1.1" xmlns="http://www.w3.org/2000/svg">
<g id="#f8a41fff">
<path fill="#f8a41f" opacity="1.00" d=" M 23.36 5.56 C 35.18 1.47 49.24 6.64 55.66 17.35 C 61.89 27.07 61.05 40.66 53.67 49.52 C 45.62 59.92 29.89 62.96 18.52 56.41 C 7.53 50.55 1.70 36.86 5.08 24.87 C 7.42 15.91 14.53 8.38 23.36 5.56 M 16.98 12.57 L 16.75 12.54 C 15.23 14.24 13.60 15.90 12.45 17.90 C 7.09 21.31 6.24 28.66 6.98 34.45 C 7.70 41.42 10.49 48.46 16.32 52.69 C 25.36 60.11 39.27 59.27 48.24 52.24 C 53.77 48.00 56.20 41.13 56.95 34.43 C 58.02 28.14 56.42 20.38 50.78 16.68 C 49.75 15.18 48.47 13.89 47.26 12.55 L 47.03 12.59 C 38.59 5.57 25.42 5.58 16.98 12.57 Z" />
</g>
<g id="#ffeec9ff">
<path fill="#ffeec9" opacity="1.00" d=" M 16.98 12.57 C 25.42 5.58 38.59 5.57 47.03 12.59 C 37.11 14.01 26.90 13.98 16.98 12.57 Z" />
</g>
<g id="#ffe4a2ff">
<path fill="#ffe4a2" opacity="1.00" d=" M 16.75 12.54 L 16.98 12.57 C 26.90 13.98 37.11 14.01 47.03 12.59 L 47.26 12.55 C 48.47 13.89 49.75 15.18 50.78 16.68 C 51.35 17.82 51.88 18.99 52.38 20.17 C 47.61 19.60 42.81 19.38 38.02 19.48 C 29.21 19.68 20.35 19.02 11.59 20.20 C 11.80 19.63 12.23 18.47 12.45 17.90 C 13.60 15.90 15.23 14.24 16.75 12.54 Z" />
</g>
<g id="#ffca3cff">
<path fill="#ffca3c" opacity="1.00" d=" M 50.78 16.68 C 56.42 20.38 58.02 28.14 56.95 34.43 C 48.63 34.87 40.32 33.94 31.99 34.13 C 23.64 33.91 15.32 34.85 6.98 34.45 C 6.24 28.66 7.09 21.31 12.45 17.90 C 12.23 18.47 11.80 19.63 11.59 20.20 C 11.22 21.60 10.94 23.02 10.73 24.45 C 10.89 25.27 11.20 26.89 11.36 27.70 C 14.27 27.57 17.19 27.43 20.11 27.30 C 19.98 29.07 19.89 30.84 19.82 32.61 C 20.49 31.90 21.12 31.14 21.70 30.36 C 23.29 28.73 25.27 28.85 27.08 30.00 C 27.72 30.96 28.39 31.91 29.07 32.85 C 28.94 30.42 28.74 27.99 28.40 25.57 C 30.81 25.58 33.22 25.57 35.63 25.54 C 35.26 27.95 35.07 30.38 34.90 32.81 C 35.67 31.85 36.46 30.90 37.24 29.95 C 38.94 28.71 40.82 28.87 42.30 30.40 C 42.92 31.13 43.54 31.86 44.17 32.59 C 44.10 30.83 44.04 29.07 43.89 27.31 C 46.80 27.44 49.70 27.57 52.61 27.71 C 52.78 26.90 53.11 25.27 53.27 24.45 C 53.05 23.01 52.76 21.57 52.38 20.17 C 51.88 18.99 51.35 17.82 50.78 16.68 Z" />
</g>
<g id="#ffd873ff">
<path fill="#ffd873" opacity="1.00" d=" M 10.73 24.45 C 10.94 23.02 11.22 21.60 11.59 20.20 C 20.35 19.02 29.21 19.68 38.02 19.48 C 42.81 19.38 47.61 19.60 52.38 20.17 C 52.76 21.57 53.05 23.01 53.27 24.45 C 49.80 24.19 46.31 24.15 42.83 24.31 C 41.90 23.70 40.94 23.15 39.93 22.69 C 38.03 22.67 36.81 24.29 35.63 25.54 C 33.22 25.57 30.81 25.58 28.40 25.57 C 27.21 24.32 26.00 22.68 24.10 22.69 C 23.08 23.13 22.12 23.67 21.19 24.27 C 17.70 24.17 14.21 24.22 10.73 24.45 Z" />
</g>
<g id="#7f520fff">
<path fill="#7f520f" opacity="1.00" d=" M 21.19 24.27 C 22.12 23.67 23.08 23.13 24.10 22.69 C 26.00 22.68 27.21 24.32 28.40 25.57 C 28.74 27.99 28.94 30.42 29.07 32.85 C 28.39 31.91 27.72 30.96 27.08 30.00 C 26.41 27.73 25.58 25.49 24.11 23.60 C 22.86 25.67 21.89 27.92 21.70 30.36 C 21.12 31.14 20.49 31.90 19.82 32.61 C 19.89 30.84 19.98 29.07 20.11 27.30 C 20.38 26.54 20.92 25.03 21.19 24.27 Z" />
<path fill="#7f520f" opacity="1.00" d=" M 35.63 25.54 C 36.81 24.29 38.03 22.67 39.93 22.69 C 40.94 23.15 41.90 23.70 42.83 24.31 C 43.09 25.06 43.62 26.56 43.89 27.31 C 44.04 29.07 44.10 30.83 44.17 32.59 C 43.54 31.86 42.92 31.13 42.30 30.40 C 42.05 28.27 41.39 26.23 40.51 24.28 C 39.83 24.63 38.46 25.33 37.78 25.68 C 37.60 27.10 37.45 28.53 37.24 29.95 C 36.46 30.90 35.67 31.85 34.90 32.81 C 35.07 30.38 35.26 27.95 35.63 25.54 Z" />
</g>
<g id="#ffd35dff">
<path fill="#ffd35d" opacity="1.00" d=" M 10.73 24.45 C 14.21 24.22 17.70 24.17 21.19 24.27 C 20.92 25.03 20.38 26.54 20.11 27.30 C 17.19 27.43 14.27 27.57 11.36 27.70 C 11.20 26.89 10.89 25.27 10.73 24.45 Z" />
<path fill="#ffd35d" opacity="1.00" d=" M 42.83 24.31 C 46.31 24.15 49.80 24.19 53.27 24.45 C 53.11 25.27 52.78 26.90 52.61 27.71 C 49.70 27.57 46.80 27.44 43.89 27.31 C 43.62 26.56 43.09 25.06 42.83 24.31 Z" />
</g>
<g id="#a66712ff">
<path fill="#a66712" opacity="1.00" d=" M 21.70 30.36 C 21.89 27.92 22.86 25.67 24.11 23.60 C 25.58 25.49 26.41 27.73 27.08 30.00 C 25.27 28.85 23.29 28.73 21.70 30.36 Z" />
<path fill="#a66712" opacity="1.00" d=" M 37.78 25.68 C 38.46 25.33 39.83 24.63 40.51 24.28 C 41.39 26.23 42.05 28.27 42.30 30.40 C 40.82 28.87 38.94 28.71 37.24 29.95 C 37.45 28.53 37.60 27.10 37.78 25.68 Z" />
</g>
<g id="#ffce29ff">
<path fill="#ffce29" opacity="1.00" d=" M 6.98 34.45 C 15.32 34.85 23.64 33.91 31.99 34.13 C 40.32 33.94 48.63 34.87 56.95 34.43 C 56.20 41.13 53.77 48.00 48.24 52.24 C 39.27 59.27 25.36 60.11 16.32 52.69 C 10.49 48.46 7.70 41.42 6.98 34.45 M 24.75 37.81 C 21.70 40.05 18.84 42.54 15.89 44.91 C 14.00 46.32 15.22 49.04 16.74 50.22 C 20.94 53.58 26.04 56.23 31.56 56.06 C 31.45 54.85 31.34 53.65 31.22 52.45 L 31.31 52.41 C 34.36 52.96 40.37 52.36 40.23 48.58 C 40.36 46.57 40.44 44.55 40.41 42.53 C 40.23 39.69 36.44 39.38 34.36 38.45 L 36.05 37.86 C 32.38 37.04 28.37 36.52 24.75 37.81 Z" />
</g>
<g id="#ffe02cff">
<path fill="#ffe02c" opacity="1.00" d=" M 24.75 37.81 C 28.37 36.52 32.38 37.04 36.05 37.86 L 34.36 38.45 C 33.46 38.52 31.66 38.66 30.76 38.73 C 32.96 39.61 35.19 40.46 37.29 41.56 C 35.99 43.26 34.23 44.51 32.55 45.80 C 34.33 47.08 36.03 48.46 37.77 49.80 C 35.61 50.67 33.46 51.53 31.31 52.41 L 31.22 52.45 C 31.34 53.65 31.45 54.85 31.56 56.06 C 26.04 56.23 20.94 53.58 16.74 50.22 C 15.22 49.04 14.00 46.32 15.89 44.91 C 18.84 42.54 21.70 40.05 24.75 37.81 Z" />
</g>
<g id="#81550cff">
<path fill="#81550c" opacity="1.00" d=" M 30.76 38.73 C 31.66 38.66 33.46 38.52 34.36 38.45 C 36.44 39.38 40.23 39.69 40.41 42.53 C 38.82 43.65 37.19 44.70 35.56 45.75 C 37.12 46.68 38.70 47.60 40.23 48.58 C 40.37 52.36 34.36 52.96 31.31 52.41 C 33.46 51.53 35.61 50.67 37.77 49.80 C 36.03 48.46 34.33 47.08 32.55 45.80 C 34.23 44.51 35.99 43.26 37.29 41.56 C 35.19 40.46 32.96 39.61 30.76 38.73 Z" />
</g>
<g id="#f0a21dff">
<path fill="#f0a21d" opacity="1.00" d=" M 35.56 45.75 C 37.19 44.70 38.82 43.65 40.41 42.53 C 40.44 44.55 40.36 46.57 40.23 48.58 C 38.70 47.60 37.12 46.68 35.56 45.75 Z" />
</g>
</svg>
