<?xml version="1.0" encoding="UTF-8" ?>
<!DOCTYPE svg PUBLIC "-//W3C//DTD SVG 1.1//EN" "http://www.w3.org/Graphics/SVG/1.1/DTD/svg11.dtd">
<svg width="64pt" height="64pt" viewBox="0 0 64 64" version="1.1" xmlns="http://www.w3.org/2000/svg">
<g id="#f9a71fff">
<path fill="#f9a71f" opacity="1.00" d=" M 25.11 5.05 C 37.89 1.53 52.37 8.62 57.49 20.82 C 61.79 30.35 60.08 42.30 53.14 50.14 C 47.53 56.79 38.69 60.52 30.01 59.76 C 16.22 59.18 4.25 46.75 4.20 32.94 C 3.46 20.23 12.79 8.00 25.11 5.05 M 17.23 12.42 L 17.00 12.40 C 15.43 14.14 13.63 15.79 12.68 17.97 C 11.54 18.67 10.05 19.10 9.41 20.39 C 7.09 24.74 6.32 29.84 7.03 34.71 C 8.22 39.53 9.12 44.69 12.31 48.68 C 16.93 54.13 23.80 57.78 31.01 57.88 C 40.02 58.39 49.20 53.53 53.54 45.57 C 55.43 42.23 55.95 38.38 56.84 34.70 C 57.79 29.86 56.89 24.75 54.59 20.42 C 53.95 19.10 52.45 18.63 51.30 17.90 C 50.32 15.74 48.53 14.10 46.97 12.36 L 46.73 12.38 C 38.42 5.63 25.53 5.64 17.23 12.42 Z" />
</g>
<g id="#ffeec9ff">
<path fill="#ffeec9" opacity="1.00" d=" M 17.23 12.42 C 25.53 5.64 38.42 5.63 46.73 12.38 C 36.92 13.06 27.04 13.05 17.23 12.42 Z" />
<path fill="#ffeec9" opacity="1.00" d=" M 12.37 22.13 C 16.03 19.99 20.05 18.64 24.23 17.98 L 23.73 20.11 C 19.86 20.24 16.20 21.67 12.37 22.13 Z" />
<path fill="#ffeec9" opacity="1.00" d=" M 39.78 17.98 C 43.96 18.63 47.97 20.00 51.63 22.14 C 47.89 21.58 44.23 20.62 40.53 19.85 L 39.78 17.98 Z" />
</g>
<g id="#ffe8b0ff">
<path fill="#ffe8b0" opacity="1.00" d=" M 17.00 12.40 L 17.23 12.42 C 27.04 13.05 36.92 13.06 46.73 12.38 L 46.97 12.36 C 48.53 14.10 50.32 15.74 51.30 17.90 C 51.51 18.55 51.94 19.84 52.16 20.49 C 48.84 17.02 43.99 15.45 39.31 16.81 C 34.40 17.15 29.45 17.18 24.54 16.78 C 19.88 15.44 15.11 17.10 11.81 20.50 C 12.02 19.87 12.46 18.61 12.68 17.97 C 13.63 15.79 15.43 14.14 17.00 12.40 Z" />
</g>
<g id="#673502ff">
<path fill="#673502" opacity="1.00" d=" M 11.81 20.50 C 15.11 17.10 19.88 15.44 24.54 16.78 C 24.46 17.08 24.31 17.68 24.23 17.98 C 20.05 18.64 16.03 19.99 12.37 22.13 L 11.20 22.35 C 11.35 21.89 11.66 20.97 11.81 20.50 Z" />
<path fill="#673502" opacity="1.00" d=" M 39.31 16.81 C 43.99 15.45 48.84 17.02 52.16 20.49 C 52.31 20.95 52.62 21.87 52.77 22.33 L 51.63 22.14 C 47.97 20.00 43.96 18.63 39.78 17.98 C 39.66 17.69 39.43 17.10 39.31 16.81 Z" />
<path fill="#673502" opacity="1.00" d=" M 19.74 49.35 C 21.81 44.90 25.93 41.05 31.01 40.73 C 34.43 40.50 38.16 41.74 40.33 44.46 L 41.07 45.67 C 38.12 44.45 35.31 42.51 32.03 42.41 C 29.23 42.22 26.77 43.75 24.35 44.91 C 24.27 45.50 24.10 46.66 24.02 47.25 C 22.61 47.98 21.18 48.68 19.74 49.35 Z" />
<path fill="#673502" opacity="1.00" d=" M 40.77 47.59 C 40.91 47.13 41.19 46.23 41.32 45.78 C 42.56 46.13 43.29 46.97 43.53 48.29 C 43.32 49.95 40.91 48.70 40.77 47.59 Z" />
</g>
<g id="#ffe092ff">
<path fill="#ffe092" opacity="1.00" d=" M 24.54 16.78 C 29.45 17.18 34.40 17.15 39.31 16.81 C 39.43 17.10 39.66 17.69 39.78 17.98 L 40.53 19.85 C 34.95 20.65 29.32 20.64 23.73 20.11 L 24.23 17.98 C 24.31 17.68 24.46 17.08 24.54 16.78 Z" />
</g>
<g id="#ffc93bff">
<path fill="#ffc93b" opacity="1.00" d=" M 9.41 20.39 C 10.05 19.10 11.54 18.67 12.68 17.97 C 12.46 18.61 12.02 19.87 11.81 20.50 C 11.66 20.97 11.35 21.89 11.20 22.35 C 11.06 24.07 11.21 25.79 11.20 27.51 C 14.29 27.51 17.37 27.51 20.44 27.18 C 19.91 27.68 18.84 28.68 18.31 29.18 C 18.10 30.35 17.97 31.52 17.82 32.69 C 18.57 33.48 19.31 34.27 20.05 35.07 C 15.71 35.24 11.37 34.84 7.03 34.71 C 6.32 29.84 7.09 24.74 9.41 20.39 Z" />
<path fill="#ffc93b" opacity="1.00" d=" M 51.30 17.90 C 52.45 18.63 53.95 19.10 54.59 20.42 C 56.89 24.75 57.79 29.86 56.84 34.70 C 52.54 34.85 48.24 35.25 43.93 35.06 C 44.67 34.27 45.43 33.48 46.19 32.71 C 46.03 31.63 45.92 30.55 45.76 29.47 C 45.22 28.89 44.14 27.75 43.61 27.18 C 46.48 27.53 49.42 27.77 52.29 27.20 C 53.49 25.80 53.10 23.97 52.77 22.33 C 52.62 21.87 52.31 20.95 52.16 20.49 C 51.94 19.84 51.51 18.55 51.30 17.90 Z" />
</g>
<g id="#ffd66bff">
<path fill="#ffd66b" opacity="1.00" d=" M 12.37 22.13 C 16.20 21.67 19.86 20.24 23.73 20.11 C 29.32 20.64 34.95 20.65 40.53 19.85 C 44.23 20.62 47.89 21.58 51.63 22.14 L 52.77 22.33 C 53.10 23.97 53.49 25.80 52.29 27.20 C 49.42 27.77 46.48 27.53 43.61 27.18 C 43.32 27.09 42.75 26.92 42.46 26.83 C 35.69 24.93 28.31 24.87 21.54 26.84 C 21.27 26.93 20.72 27.10 20.44 27.18 C 17.37 27.51 14.29 27.51 11.20 27.51 C 11.21 25.79 11.06 24.07 11.20 22.35 L 12.37 22.13 Z" />
</g>
<g id="#ffcb3dff">
<path fill="#ffcb3d" opacity="1.00" d=" M 21.54 26.84 C 28.31 24.87 35.69 24.93 42.46 26.83 C 40.30 28.49 39.73 30.93 39.83 33.55 L 39.76 34.08 C 34.63 34.06 29.50 34.08 24.37 34.05 L 24.27 33.37 C 24.26 30.82 23.62 28.47 21.54 26.84 Z" />
</g>
<g id="#75490aff">
<path fill="#75490a" opacity="1.00" d=" M 20.44 27.18 C 20.72 27.10 21.27 26.93 21.54 26.84 C 23.62 28.47 24.26 30.82 24.27 33.37 C 23.11 30.92 21.06 29.33 18.31 29.18 C 18.84 28.68 19.91 27.68 20.44 27.18 Z" />
<path fill="#75490a" opacity="1.00" d=" M 42.46 26.83 C 42.75 26.92 43.32 27.09 43.61 27.18 C 44.14 27.75 45.22 28.89 45.76 29.47 C 44.51 29.62 43.25 29.75 41.98 29.84 C 41.26 31.08 40.54 32.30 39.83 33.55 C 39.73 30.93 40.30 28.49 42.46 26.83 Z" />
</g>
<g id="#ab6c15ff">
<path fill="#ab6c15" opacity="1.00" d=" M 17.82 32.69 C 17.97 31.52 18.10 30.35 18.31 29.18 C 21.06 29.33 23.11 30.92 24.27 33.37 L 24.37 34.05 C 22.94 34.42 21.50 34.78 20.05 35.07 C 19.31 34.27 18.57 33.48 17.82 32.69 Z" />
<path fill="#ab6c15" opacity="1.00" d=" M 41.98 29.84 C 43.25 29.75 44.51 29.62 45.76 29.47 C 45.92 30.55 46.03 31.63 46.19 32.71 C 45.43 33.48 44.67 34.27 43.93 35.06 C 42.53 34.78 41.14 34.43 39.76 34.08 L 39.83 33.55 C 40.54 32.30 41.26 31.08 41.98 29.84 Z" />
</g>
<g id="#ffd32aff">
<path fill="#ffd32a" opacity="1.00" d=" M 7.03 34.71 C 11.37 34.84 15.71 35.24 20.05 35.07 C 21.50 34.78 22.94 34.42 24.37 34.05 C 29.50 34.08 34.63 34.06 39.76 34.08 C 41.14 34.43 42.53 34.78 43.93 35.06 C 48.24 35.25 52.54 34.85 56.84 34.70 C 55.95 38.38 55.43 42.23 53.54 45.57 C 49.20 53.53 40.02 58.39 31.01 57.88 C 23.80 57.78 16.93 54.13 12.31 48.68 C 9.12 44.69 8.22 39.53 7.03 34.71 M 19.74 49.35 C 21.18 48.68 22.61 47.98 24.02 47.25 C 25.19 48.85 27.19 47.79 28.78 47.80 C 32.41 47.13 36.07 47.89 39.68 48.37 L 38.75 47.00 C 39.26 47.14 40.27 47.44 40.77 47.59 C 40.91 48.70 43.32 49.95 43.53 48.29 C 43.29 46.97 42.56 46.13 41.32 45.78 L 41.54 45.19 C 41.24 45.01 40.64 44.64 40.33 44.46 C 38.16 41.74 34.43 40.50 31.01 40.73 C 25.93 41.05 21.81 44.90 19.74 49.35 M 26.95 51.51 C 30.30 51.56 33.66 51.54 37.01 51.43 C 34.17 48.82 29.74 48.83 26.95 51.51 Z" />
</g>
<g id="#af5e0eff">
<path fill="#af5e0e" opacity="1.00" d=" M 24.35 44.91 C 26.77 43.75 29.23 42.22 32.03 42.41 C 35.31 42.51 38.12 44.45 41.07 45.67 L 40.33 44.46 C 40.64 44.64 41.24 45.01 41.54 45.19 L 41.32 45.78 C 41.19 46.23 40.91 47.13 40.77 47.59 C 40.27 47.44 39.26 47.14 38.75 47.00 C 33.99 45.24 28.76 45.65 24.02 47.25 C 24.10 46.66 24.27 45.50 24.35 44.91 Z" />
</g>
<g id="#f9f330ff">
<path fill="#f9f330" opacity="1.00" d=" M 24.02 47.25 C 28.76 45.65 33.99 45.24 38.75 47.00 L 39.68 48.37 C 36.07 47.89 32.41 47.13 28.78 47.80 C 27.19 47.79 25.19 48.85 24.02 47.25 Z" />
</g>
<g id="#ff9f1fff">
<path fill="#ff9f1f" opacity="1.00" d=" M 26.95 51.51 C 29.74 48.83 34.17 48.82 37.01 51.43 C 33.66 51.54 30.30 51.56 26.95 51.51 Z" />
</g>
</svg>
