<?xml version="1.0" encoding="UTF-8" ?>
<!DOCTYPE svg PUBLIC "-//W3C//DTD SVG 1.1//EN" "http://www.w3.org/Graphics/SVG/1.1/DTD/svg11.dtd">
<svg width="64pt" height="64pt" viewBox="0 0 64 64" version="1.1" xmlns="http://www.w3.org/2000/svg">
<g id="#f79a1cff">
<path fill="#f79a1c" opacity="1.00" d=" M 17.35 8.35 C 25.25 3.35 35.74 2.81 44.12 6.96 C 52.78 11.07 58.89 19.91 59.78 29.44 C 60.50 38.77 56.51 48.37 48.99 54.04 C 39.21 61.87 24.09 61.70 14.50 53.64 C 7.31 47.95 3.55 38.61 4.21 29.53 C 5.01 20.94 9.99 12.86 17.35 8.35 M 17.12 12.49 L 16.81 12.44 C 15.04 14.31 13.43 16.34 12.05 18.51 C 11.45 18.54 11.17 18.93 11.22 19.69 C 7.16 23.23 5.92 29.53 7.23 34.62 L 8.29 34.63 C 7.10 45.68 16.57 55.28 26.90 57.32 C 32.57 58.17 38.64 57.78 43.68 54.83 C 51.02 51.15 56.55 43.16 55.62 34.75 L 56.75 34.72 C 58.09 29.57 56.88 23.10 52.62 19.62 C 52.61 19.30 52.59 18.66 52.58 18.34 L 51.93 18.46 C 50.43 16.45 49.18 13.85 46.97 12.60 C 38.65 5.57 25.51 5.59 17.12 12.49 Z" />
</g>
<g id="#ffeec9ff">
<path fill="#ffeec9" opacity="1.00" d=" M 17.12 12.49 C 25.51 5.59 38.65 5.57 46.97 12.60 C 37.10 13.94 26.95 14.17 17.12 12.49 Z" />
</g>
<g id="#ffe4a2ff">
<path fill="#ffe4a2" opacity="1.00" d=" M 16.81 12.44 L 17.12 12.49 C 26.95 14.17 37.10 13.94 46.97 12.60 C 49.18 13.85 50.43 16.45 51.93 18.46 C 43.74 20.33 35.32 19.19 27.01 19.52 C 22.00 19.77 17.00 19.34 12.05 18.51 C 13.43 16.34 15.04 14.31 16.81 12.44 Z" />
</g>
<g id="#ffd873ff">
<path fill="#ffd873" opacity="1.00" d=" M 11.22 19.69 C 11.17 18.93 11.45 18.54 12.05 18.51 C 17.00 19.34 22.00 19.77 27.01 19.52 C 35.32 19.19 43.74 20.33 51.93 18.46 L 52.58 18.34 C 52.59 18.66 52.61 19.30 52.62 19.62 C 52.68 22.27 52.66 24.92 52.52 27.56 C 45.71 26.62 38.93 25.19 32.01 25.42 C 25.10 25.19 18.31 26.60 11.51 27.55 C 11.35 24.93 11.23 22.31 11.22 19.69 Z" />
</g>
<g id="#ffcb3cff">
<path fill="#ffcb3c" opacity="1.00" d=" M 7.23 34.62 C 5.92 29.53 7.16 23.23 11.22 19.69 C 11.23 22.31 11.35 24.93 11.51 27.55 C 18.31 26.60 25.10 25.19 32.01 25.42 C 38.93 25.19 45.71 26.62 52.52 27.56 C 52.66 24.92 52.68 22.27 52.62 19.62 C 56.88 23.10 58.09 29.57 56.75 34.72 L 55.62 34.75 C 52.57 34.80 49.51 35.02 46.46 34.70 C 43.36 33.80 40.12 33.53 36.97 34.38 C 33.72 34.58 30.46 34.48 27.21 34.51 C 24.00 33.48 20.68 33.79 17.51 34.72 C 14.44 34.91 11.36 34.63 8.29 34.63 L 7.23 34.62 Z" />
</g>
<g id="#0000003d">
<path fill="#000000" opacity="0.24" d=" M 32.05 62.64 C 15.39 63.34 0.01 46.01 4.21 29.53 C 3.55 38.61 7.31 47.95 14.50 53.64 C 24.09 61.70 39.21 61.87 48.99 54.04 C 56.51 48.37 60.50 38.77 59.78 29.44 C 64.02 45.89 48.68 63.26 32.05 62.64 Z" />
</g>
<g id="#ffd82aff">
<path fill="#ffd82a" opacity="1.00" d=" M 8.29 34.63 C 11.36 34.63 14.44 34.91 17.51 34.72 C 15.30 35.88 13.65 37.74 13.41 40.30 C 18.07 38.60 23.43 38.00 27.21 34.51 C 30.46 34.48 33.72 34.58 36.97 34.38 C 40.35 38.28 46.06 38.44 50.59 40.31 C 50.36 37.72 48.69 35.85 46.46 34.70 C 49.51 35.02 52.57 34.80 55.62 34.75 C 56.55 43.16 51.02 51.15 43.68 54.83 C 38.64 57.78 32.57 58.17 26.90 57.32 C 16.57 55.28 7.10 45.68 8.29 34.63 M 23.63 51.27 C 24.99 50.77 26.41 50.24 27.51 49.25 C 30.48 48.82 33.49 48.84 36.46 49.34 C 37.49 50.26 38.77 50.83 40.05 51.32 C 39.00 47.68 35.90 44.48 32.01 44.13 C 27.99 44.27 24.84 47.63 23.63 51.27 Z" />
</g>
<g id="#8d590eff">
<path fill="#8d590e" opacity="1.00" d=" M 17.51 34.72 C 20.68 33.79 24.00 33.48 27.21 34.51 C 23.43 38.00 18.07 38.60 13.41 40.30 C 13.65 37.74 15.30 35.88 17.51 34.72 Z" />
<path fill="#8d590e" opacity="1.00" d=" M 36.97 34.38 C 40.12 33.53 43.36 33.80 46.46 34.70 C 48.69 35.85 50.36 37.72 50.59 40.31 C 46.06 38.44 40.35 38.28 36.97 34.38 Z" />
</g>
<g id="#875d0fff">
<path fill="#875d0f" opacity="1.00" d=" M 23.63 51.27 C 24.84 47.63 27.99 44.27 32.01 44.13 C 35.90 44.48 39.00 47.68 40.05 51.32 C 38.77 50.83 37.49 50.26 36.46 49.34 C 34.83 48.22 33.52 45.74 31.23 46.27 C 29.87 47.11 28.72 48.22 27.51 49.25 C 26.41 50.24 24.99 50.77 23.63 51.27 Z" />
</g>
<g id="#9b6411ff">
<path fill="#9b6411" opacity="1.00" d=" M 27.51 49.25 C 28.72 48.22 29.87 47.11 31.23 46.27 C 33.52 45.74 34.83 48.22 36.46 49.34 C 33.49 48.84 30.48 48.82 27.51 49.25 Z" />
</g>
</svg>
