<?xml version="1.0" encoding="UTF-8" ?>
<!DOCTYPE svg PUBLIC "-//W3C//DTD SVG 1.1//EN" "http://www.w3.org/Graphics/SVG/1.1/DTD/svg11.dtd">
<svg width="64pt" height="64pt" viewBox="0 0 64 64" version="1.1" xmlns="http://www.w3.org/2000/svg">
<g id="#00245782">
<path fill="#002457" opacity="0.51" d=" M 15.20 1.01 C 16.71 0.48 17.37 1.51 17.76 2.77 C 17.23 2.52 16.17 2.01 15.64 1.76 C 12.69 6.02 11.12 11.04 8.12 15.27 C 10.37 10.46 12.77 5.73 15.20 1.01 Z" />
</g>
<g id="#1286d1fd">
<path fill="#1286d1" opacity="1.00" d=" M 8.12 15.27 C 11.12 11.04 12.69 6.02 15.64 1.76 C 16.17 2.01 17.23 2.52 17.76 2.77 C 18.58 4.36 19.38 5.97 20.23 7.54 C 20.59 8.28 20.96 9.02 21.34 9.74 C 21.94 10.84 22.54 11.94 23.14 13.04 C 23.90 14.40 24.65 15.78 25.34 17.18 C 25.60 19.11 25.50 21.06 25.06 22.95 C 22.93 26.81 18.44 29.31 14.03 28.34 C 10.98 27.56 8.41 25.28 7.27 22.34 L 7.27 22.03 C 7.02 21.95 6.51 21.78 6.25 21.69 C 6.60 19.50 6.81 17.15 8.12 15.27 M 12.84 10.96 C 12.59 11.42 12.10 12.32 11.85 12.77 C 10.67 14.75 9.38 16.70 8.68 18.91 C 8.05 22.92 11.94 26.84 15.94 26.60 C 18.68 26.99 20.63 24.86 22.57 23.32 C 23.25 19.26 22.26 15.37 20.13 11.90 L 20.20 11.09 L 19.63 11.14 C 18.71 9.08 17.87 6.98 16.67 5.06 C 14.14 5.52 13.91 9.00 12.84 10.96 Z" />
</g>
<g id="#f89b1cff">
<path fill="#f89b1c" opacity="1.00" d=" M 19.92 6.81 C 27.10 3.62 35.61 3.19 42.86 6.40 C 51.59 9.99 58.00 18.34 59.57 27.61 C 60.13 33.20 59.57 39.00 57.03 44.07 C 52.46 53.86 41.74 60.37 30.92 59.77 C 19.34 59.54 8.56 51.13 5.40 40.01 C 4.11 36.01 4.10 31.75 4.43 27.60 C 4.74 25.59 5.50 23.68 6.11 21.75 C 6.34 22.12 6.80 22.86 7.04 23.22 C 7.15 24.45 7.26 25.68 7.30 26.91 C 7.07 28.95 6.69 30.98 6.95 33.04 C 7.58 39.73 9.66 46.66 14.85 51.25 C 25.15 61.28 44.63 59.66 52.29 47.20 C 54.45 43.50 55.30 39.25 56.08 35.09 C 57.45 30.08 56.49 24.73 53.31 20.61 C 52.42 19.20 51.55 17.79 50.61 16.42 C 49.43 14.90 48.12 13.47 46.63 12.25 C 39.56 6.70 29.38 5.83 21.34 9.74 C 20.96 9.02 20.59 8.28 20.23 7.54 L 19.92 6.81 Z" />
</g>
<g id="#d1eeffff">
<path fill="#d1eeff" opacity="1.00" d=" M 12.84 10.96 C 13.91 9.00 14.14 5.52 16.67 5.06 C 17.87 6.98 18.71 9.08 19.63 11.14 C 17.34 11.26 15.09 11.72 12.89 12.34 C 12.88 12.00 12.85 11.31 12.84 10.96 Z" />
</g>
<g id="#ffeec9ff">
<path fill="#ffeec9" opacity="1.00" d=" M 21.34 9.74 C 29.38 5.83 39.56 6.70 46.63 12.25 C 38.94 14.09 30.96 12.93 23.14 13.04 C 22.54 11.94 21.94 10.84 21.34 9.74 Z" />
</g>
<g id="#b7e5feff">
<path fill="#b7e5fe" opacity="1.00" d=" M 11.85 12.77 C 12.10 12.32 12.59 11.42 12.84 10.96 C 12.85 11.31 12.88 12.00 12.89 12.34 C 15.09 11.72 17.34 11.26 19.63 11.14 L 20.20 11.09 L 20.13 11.90 C 20.14 16.22 17.46 19.81 16.13 23.78 C 14.82 23.56 13.62 23.10 12.54 22.38 C 12.23 19.18 12.50 15.94 11.85 12.77 Z" />
</g>
<g id="#83d3fdff">
<path fill="#83d3fd" opacity="1.00" d=" M 20.13 11.90 C 22.26 15.37 23.25 19.26 22.57 23.32 C 20.63 24.86 18.68 26.99 15.94 26.60 C 11.94 26.84 8.05 22.92 8.68 18.91 C 9.38 16.70 10.67 14.75 11.85 12.77 C 12.50 15.94 12.23 19.18 12.54 22.38 C 13.62 23.10 14.82 23.56 16.13 23.78 C 17.46 19.81 20.14 16.22 20.13 11.90 Z" />
</g>
<g id="#ffe6a9ff">
<path fill="#ffe6a9" opacity="1.00" d=" M 46.63 12.25 C 48.12 13.47 49.43 14.90 50.61 16.42 C 46.60 18.06 42.24 17.47 38.03 17.52 C 33.80 17.56 29.56 17.56 25.34 17.18 C 24.65 15.78 23.90 14.40 23.14 13.04 C 30.96 12.93 38.94 14.09 46.63 12.25 Z" />
</g>
<g id="#ffdc82ff">
<path fill="#ffdc82" opacity="1.00" d=" M 50.61 16.42 C 51.55 17.79 52.42 19.20 53.31 20.61 C 53.23 21.38 53.08 22.94 53.01 23.71 C 43.70 22.97 34.31 24.29 25.06 22.95 C 25.50 21.06 25.60 19.11 25.34 17.18 C 29.56 17.56 33.80 17.56 38.03 17.52 C 42.24 17.47 46.60 18.06 50.61 16.42 Z" />
</g>
<g id="#ffcb3cff">
<path fill="#ffcb3c" opacity="1.00" d=" M 53.31 20.61 C 56.49 24.73 57.45 30.08 56.08 35.09 C 54.84 34.83 53.60 34.57 52.37 34.30 C 51.80 34.81 51.22 35.32 50.64 35.81 C 47.34 30.43 39.00 30.65 34.96 35.05 C 32.98 34.79 30.96 34.78 28.97 34.98 C 24.94 30.66 16.61 30.43 13.40 35.83 C 11.42 34.55 9.17 33.78 6.95 33.04 C 6.69 30.98 7.07 28.95 7.30 26.91 C 10.04 29.19 13.07 32.12 16.98 31.42 C 20.47 31.31 22.96 28.71 24.80 26.03 C 29.21 25.76 33.63 25.64 38.04 26.04 C 42.89 26.40 47.62 28.00 52.53 27.68 C 52.70 26.36 52.86 25.04 53.01 23.71 C 53.08 22.94 53.23 21.38 53.31 20.61 Z" />
</g>
<g id="#d9ad34ff">
<path fill="#d9ad34" opacity="1.00" d=" M 7.04 23.22 L 7.27 22.34 C 8.41 25.28 10.98 27.56 14.03 28.34 C 18.44 29.31 22.93 26.81 25.06 22.95 C 25.00 23.72 24.87 25.26 24.80 26.03 C 22.96 28.71 20.47 31.31 16.98 31.42 C 13.07 32.12 10.04 29.19 7.30 26.91 C 7.26 25.68 7.15 24.45 7.04 23.22 Z" />
</g>
<g id="#ffd35dff">
<path fill="#ffd35d" opacity="1.00" d=" M 25.06 22.95 C 34.31 24.29 43.70 22.97 53.01 23.71 C 52.86 25.04 52.70 26.36 52.53 27.68 C 47.62 28.00 42.89 26.40 38.04 26.04 C 33.63 25.64 29.21 25.76 24.80 26.03 C 24.87 25.26 25.00 23.72 25.06 22.95 Z" />
</g>
<g id="#0e080141">
<path fill="#0e0801" opacity="0.25" d=" M 3.53 34.99 C 3.66 32.53 3.17 29.85 4.43 27.60 C 4.10 31.75 4.11 36.01 5.40 40.01 C 8.56 51.13 19.34 59.54 30.92 59.77 C 41.74 60.37 52.46 53.86 57.03 44.07 C 59.57 39.00 60.13 33.20 59.57 27.61 C 63.97 41.61 53.91 57.61 39.98 61.24 C 32.30 64.03 23.74 62.08 16.82 58.19 C 9.37 52.94 3.22 44.45 3.53 34.99 Z" />
</g>
<g id="#90580eff">
<path fill="#90580e" opacity="1.00" d=" M 13.40 35.83 C 16.61 30.43 24.94 30.66 28.97 34.98 C 28.83 35.44 28.53 36.36 28.39 36.82 C 23.97 35.30 19.26 35.33 14.79 36.63 C 14.44 36.43 13.74 36.03 13.40 35.83 Z" />
<path fill="#90580e" opacity="1.00" d=" M 34.96 35.05 C 39.00 30.65 47.34 30.43 50.64 35.81 L 49.63 36.61 C 45.03 35.55 40.24 35.11 35.72 36.81 C 35.53 36.37 35.15 35.49 34.96 35.05 Z" />
</g>
<g id="#ffd729ff">
<path fill="#ffd729" opacity="1.00" d=" M 6.95 33.04 C 9.17 33.78 11.42 34.55 13.40 35.83 C 13.74 36.03 14.44 36.43 14.79 36.63 C 19.26 35.33 23.97 35.30 28.39 36.82 C 28.53 36.36 28.83 35.44 28.97 34.98 C 30.96 34.78 32.98 34.79 34.96 35.05 C 35.15 35.49 35.53 36.37 35.72 36.81 C 40.24 35.11 45.03 35.55 49.63 36.61 L 50.64 35.81 C 51.22 35.32 51.80 34.81 52.37 34.30 C 53.60 34.57 54.84 34.83 56.08 35.09 C 55.30 39.25 54.45 43.50 52.29 47.20 C 44.63 59.66 25.15 61.28 14.85 51.25 C 9.66 46.66 7.58 39.73 6.95 33.04 M 23.83 51.16 C 25.11 50.59 26.72 50.41 27.64 49.25 C 30.51 48.76 33.43 48.75 36.29 49.32 C 37.19 50.47 38.69 50.93 40.11 50.91 C 38.70 47.53 35.83 44.48 32.02 44.11 C 28.19 44.40 24.67 47.40 23.83 51.16 Z" />
</g>
<g id="#875e0fff">
<path fill="#875e0f" opacity="1.00" d=" M 23.83 51.16 C 24.67 47.40 28.19 44.40 32.02 44.11 C 35.83 44.48 38.70 47.53 40.11 50.91 C 38.69 50.93 37.19 50.47 36.29 49.32 C 35.15 47.96 34.11 45.92 31.99 46.20 C 29.87 45.88 28.81 47.90 27.64 49.25 C 26.72 50.41 25.11 50.59 23.83 51.16 Z" />
</g>
<g id="#9b6512ff">
<path fill="#9b6512" opacity="1.00" d=" M 27.64 49.25 C 28.81 47.90 29.87 45.88 31.99 46.20 C 34.11 45.92 35.15 47.96 36.29 49.32 C 33.43 48.75 30.51 48.76 27.64 49.25 Z" />
</g>
</svg>
