<?xml version="1.0" encoding="UTF-8" ?>
<!DOCTYPE svg PUBLIC "-//W3C//DTD SVG 1.1//EN" "http://www.w3.org/Graphics/SVG/1.1/DTD/svg11.dtd">
<svg width="64pt" height="64pt" viewBox="0 0 64 64" version="1.1" xmlns="http://www.w3.org/2000/svg">
<g id="#f69119ff">
<path fill="#f69119" opacity="1.00" d=" M 13.38 11.36 C 20.53 4.68 31.39 2.44 40.63 5.55 C 53.72 9.53 62.16 23.99 59.41 37.37 C 57.62 45.54 52.29 52.96 44.75 56.74 C 34.80 62.04 21.66 60.40 13.41 52.69 C 8.87 48.75 5.99 43.22 4.60 37.44 C 2.84 27.98 6.07 17.71 13.38 11.36 M 20.33 10.32 C 17.32 10.05 15.44 12.64 13.44 14.43 C 10.00 17.60 7.95 21.99 6.64 26.41 C 6.02 33.22 6.25 40.70 10.46 46.43 C 15.08 53.71 23.53 58.14 32.08 58.39 C 40.28 58.07 48.39 53.91 53.08 47.11 C 57.66 41.32 58.01 33.46 57.34 26.41 C 56.07 21.98 53.99 17.62 50.59 14.42 C 48.62 12.59 46.66 10.13 43.67 10.32 C 36.64 6.28 27.36 6.27 20.33 10.32 Z" />
</g>
<g id="#ffeec9ff">
<path fill="#ffeec9" opacity="1.00" d=" M 20.33 10.32 C 27.36 6.27 36.64 6.28 43.67 10.32 C 44.65 10.97 45.62 11.64 46.56 12.35 C 42.25 14.15 37.49 13.18 32.96 13.38 C 27.79 13.14 22.43 14.17 17.45 12.34 C 18.39 11.64 19.35 10.96 20.33 10.32 Z" />
</g>
<g id="#ffca29ff">
<path fill="#ffca29" opacity="1.00" d=" M 13.44 14.43 C 15.44 12.64 17.32 10.05 20.33 10.32 C 19.35 10.96 18.39 11.64 17.45 12.34 C 15.39 13.84 13.84 15.92 12.56 18.10 C 12.03 18.97 11.57 19.89 11.09 20.79 C 8.19 24.27 7.01 29.15 8.57 33.48 C 13.16 34.51 17.90 34.07 22.57 34.21 C 23.38 34.90 22.65 35.89 22.50 36.68 C 20.72 38.64 18.82 40.48 16.94 42.33 C 16.70 42.26 16.21 42.11 15.97 42.03 C 15.12 43.62 13.61 45.56 14.66 47.40 C 16.49 50.82 19.54 53.72 23.32 54.81 C 29.91 57.07 37.32 56.50 43.55 53.49 C 46.33 51.68 48.73 49.11 49.92 45.98 C 49.20 44.85 48.12 44.02 47.15 43.12 C 45.58 40.24 42.68 38.47 40.90 35.74 C 40.96 35.34 41.08 34.54 41.14 34.13 L 41.32 34.09 C 46.02 34.18 50.86 34.64 55.45 33.43 C 57.14 29.20 55.72 24.37 53.00 20.91 C 52.48 19.97 51.99 19.01 51.43 18.08 C 50.15 15.92 48.62 13.84 46.56 12.35 C 45.62 11.64 44.65 10.97 43.67 10.32 C 46.66 10.13 48.62 12.59 50.59 14.42 C 53.99 17.62 56.07 21.98 57.34 26.41 C 58.01 33.46 57.66 41.32 53.08 47.11 C 48.39 53.91 40.28 58.07 32.08 58.39 C 23.53 58.14 15.08 53.71 10.46 46.43 C 6.25 40.70 6.02 33.22 6.64 26.41 C 7.95 21.99 10.00 17.60 13.44 14.43 Z" />
</g>
<g id="#ffe4a2ff">
<path fill="#ffe4a2" opacity="1.00" d=" M 12.56 18.10 C 13.84 15.92 15.39 13.84 17.45 12.34 C 22.43 14.17 27.79 13.14 32.96 13.38 C 37.49 13.18 42.25 14.15 46.56 12.35 C 48.62 13.84 50.15 15.92 51.43 18.08 C 48.73 18.51 46.07 19.18 43.50 20.13 C 42.65 19.47 41.73 18.96 40.72 18.60 C 40.54 21.83 43.89 23.55 46.26 25.02 C 43.30 24.98 41.58 22.27 38.99 21.46 C 34.34 21.27 29.66 21.27 25.01 21.46 C 22.45 22.36 20.65 24.90 17.73 25.03 C 20.10 23.56 23.47 21.83 23.28 18.59 C 22.33 18.95 21.45 19.43 20.63 20.03 C 17.99 19.21 15.29 18.56 12.56 18.10 Z" />
</g>
<g id="#ffdc82ff">
<path fill="#ffdc82" opacity="1.00" d=" M 11.09 20.79 C 11.57 19.89 12.03 18.97 12.56 18.10 C 15.29 18.56 17.99 19.21 20.63 20.03 C 17.87 22.28 14.42 23.43 10.95 24.07 C 10.99 23.25 11.06 21.61 11.09 20.79 Z" />
<path fill="#ffdc82" opacity="1.00" d=" M 51.43 18.08 C 51.99 19.01 52.48 19.97 53.00 20.91 C 53.01 21.70 53.05 23.28 53.07 24.07 C 49.65 23.45 46.25 22.32 43.50 20.13 C 46.07 19.18 48.73 18.51 51.43 18.08 Z" />
</g>
<g id="#805717ff">
<path fill="#805717" opacity="1.00" d=" M 20.63 20.03 C 21.45 19.43 22.33 18.95 23.28 18.59 C 23.47 21.83 20.10 23.56 17.73 25.03 C 15.55 25.71 13.17 26.45 10.95 25.47 C 10.95 25.12 10.95 24.42 10.95 24.07 C 14.42 23.43 17.87 22.28 20.63 20.03 Z" />
<path fill="#805717" opacity="1.00" d=" M 40.72 18.60 C 41.73 18.96 42.65 19.47 43.50 20.13 C 46.25 22.32 49.65 23.45 53.07 24.07 C 53.06 24.42 53.05 25.11 53.05 25.46 C 50.83 26.46 48.44 25.71 46.26 25.02 C 43.89 23.55 40.54 21.83 40.72 18.60 Z" />
</g>
<g id="#ffcb3cff">
<path fill="#ffcb3c" opacity="1.00" d=" M 8.57 33.48 C 7.01 29.15 8.19 24.27 11.09 20.79 C 11.06 21.61 10.99 23.25 10.95 24.07 C 10.95 24.42 10.95 25.12 10.95 25.47 L 11.00 26.93 C 14.53 28.53 18.29 26.46 21.90 26.20 C 30.22 25.26 38.77 25.28 46.98 27.11 C 48.96 27.51 51.12 27.90 53.01 26.91 L 53.05 25.46 C 53.05 25.11 53.06 24.42 53.07 24.07 C 53.05 23.28 53.01 21.70 53.00 20.91 C 55.72 24.37 57.14 29.20 55.45 33.43 C 50.86 34.64 46.02 34.18 41.32 34.09 C 43.56 31.62 47.20 30.69 48.92 27.78 C 43.98 29.14 38.97 31.28 35.02 34.63 C 33.01 34.62 31.00 34.61 29.00 34.64 C 24.98 31.31 19.94 28.93 14.88 27.82 C 16.70 30.25 19.59 31.46 21.94 33.29 L 22.57 34.21 C 17.90 34.07 13.16 34.51 8.57 33.48 Z" />
</g>
<g id="#ffd664ff">
<path fill="#ffd664" opacity="1.00" d=" M 17.73 25.03 C 20.65 24.90 22.45 22.36 25.01 21.46 C 29.66 21.27 34.34 21.27 38.99 21.46 C 41.58 22.27 43.30 24.98 46.26 25.02 C 48.44 25.71 50.83 26.46 53.05 25.46 L 53.01 26.91 C 51.12 27.90 48.96 27.51 46.98 27.11 C 38.77 25.28 30.22 25.26 21.90 26.20 C 18.29 26.46 14.53 28.53 11.00 26.93 L 10.95 25.47 C 13.17 26.45 15.55 25.71 17.73 25.03 Z" />
</g>
<g id="#865c11ff">
<path fill="#865c11" opacity="1.00" d=" M 14.88 27.82 C 19.94 28.93 24.98 31.31 29.00 34.64 C 28.75 35.06 28.25 35.91 27.99 36.34 C 26.30 34.74 24.30 33.53 21.94 33.29 C 19.59 31.46 16.70 30.25 14.88 27.82 Z" />
</g>
<g id="#855a10ff">
<path fill="#855a10" opacity="1.00" d=" M 35.02 34.63 C 38.97 31.28 43.98 29.14 48.92 27.78 C 47.20 30.69 43.56 31.62 41.32 34.09 L 41.14 34.13 C 39.21 34.28 37.49 35.15 35.93 36.25 C 35.70 35.84 35.24 35.04 35.02 34.63 Z" />
</g>
<g id="#a36712ff">
<path fill="#a36712" opacity="1.00" d=" M 21.94 33.29 C 24.30 33.53 26.30 34.74 27.99 36.34 C 26.91 37.36 25.72 38.26 24.46 39.06 C 23.81 38.27 23.16 37.48 22.50 36.68 C 22.65 35.89 23.38 34.90 22.57 34.21 L 21.94 33.29 Z" />
</g>
<g id="#ffdb2bff">
<path fill="#ffdb2b" opacity="1.00" d=" M 29.00 34.64 C 31.00 34.61 33.01 34.62 35.02 34.63 C 35.24 35.04 35.70 35.84 35.93 36.25 C 37.03 37.33 38.27 38.24 39.57 39.07 C 42.00 40.58 44.34 42.36 47.15 43.12 C 48.12 44.02 49.20 44.85 49.92 45.98 C 48.73 49.11 46.33 51.68 43.55 53.49 C 37.32 56.50 29.91 57.07 23.32 54.81 C 19.54 53.72 16.49 50.82 14.66 47.40 C 13.61 45.56 15.12 43.62 15.97 42.03 C 16.21 42.11 16.70 42.26 16.94 42.33 C 17.24 42.45 17.84 42.67 18.14 42.78 C 20.36 41.76 22.39 40.36 24.46 39.06 C 25.72 38.26 26.91 37.36 27.99 36.34 C 28.25 35.91 28.75 35.06 29.00 34.64 M 21.76 46.81 C 20.77 46.21 20.01 45.30 18.96 44.82 C 17.98 45.23 17.25 45.98 16.80 47.06 C 17.09 47.58 17.66 48.61 17.95 49.13 C 19.06 50.54 20.08 52.26 21.81 52.96 C 23.45 51.46 24.64 49.53 26.27 48.02 C 28.87 48.28 29.58 52.03 32.02 52.98 C 33.95 51.58 34.92 49.02 37.02 47.93 C 39.10 49.13 40.20 51.53 42.05 53.07 C 43.58 52.15 44.58 50.62 45.67 49.25 C 47.63 47.98 46.77 45.82 45.07 44.83 C 43.78 44.93 43.11 46.23 42.05 46.82 C 40.34 45.49 39.27 43.56 37.80 42.00 C 35.92 41.22 35.25 43.57 34.18 44.55 L 34.18 44.55 C 33.31 45.27 32.71 46.33 31.61 46.75 C 29.87 45.32 28.82 43.19 27.03 41.85 C 24.58 42.28 23.78 45.47 21.76 46.81 Z" />
</g>
<g id="#9e6812ff">
<path fill="#9e6812" opacity="1.00" d=" M 35.93 36.25 C 37.49 35.15 39.21 34.28 41.14 34.13 C 41.08 34.54 40.96 35.34 40.90 35.74 C 40.47 36.86 40.03 37.97 39.57 39.07 C 38.27 38.24 37.03 37.33 35.93 36.25 Z" />
</g>
<g id="#875b0eff">
<path fill="#875b0e" opacity="1.00" d=" M 39.57 39.07 C 40.03 37.97 40.47 36.86 40.90 35.74 C 42.68 38.47 45.58 40.24 47.15 43.12 C 44.34 42.36 42.00 40.58 39.57 39.07 Z" />
</g>
<g id="#865c0fff">
<path fill="#865c0f" opacity="1.00" d=" M 22.50 36.68 C 23.16 37.48 23.81 38.27 24.46 39.06 C 22.39 40.36 20.36 41.76 18.14 42.78 C 17.84 42.67 17.24 42.45 16.94 42.33 C 18.82 40.48 20.72 38.64 22.50 36.68 Z" />
</g>
<g id="#0100003e">
<path fill="#010000" opacity="0.24" d=" M 4.60 37.44 C 5.99 43.22 8.87 48.75 13.41 52.69 C 21.66 60.40 34.80 62.04 44.75 56.74 C 52.29 52.96 57.62 45.54 59.41 37.37 C 60.28 39.77 59.42 42.32 58.53 44.57 C 55.19 52.99 47.67 59.69 38.85 61.87 C 26.16 65.30 11.99 58.41 6.38 46.62 C 5.13 43.78 3.54 40.59 4.60 37.44 Z" />
</g>
<g id="#80520cff">
<path fill="#80520c" opacity="1.00" d=" M 21.76 46.81 C 23.78 45.47 24.58 42.28 27.03 41.85 C 28.82 43.19 29.87 45.32 31.61 46.75 C 31.24 46.84 30.50 47.01 30.13 47.09 C 28.95 46.29 27.87 45.34 26.68 44.56 C 25.27 45.47 24.12 46.74 22.65 47.56 C 20.95 47.75 19.13 47.62 17.95 49.13 C 17.66 48.61 17.09 47.58 16.80 47.06 C 17.25 45.98 17.98 45.23 18.96 44.82 C 20.01 45.30 20.77 46.21 21.76 46.81 Z" />
</g>
<g id="#82550dff">
<path fill="#82550d" opacity="1.00" d=" M 34.18 44.55 C 35.25 43.57 35.92 41.22 37.80 42.00 C 39.27 43.56 40.34 45.49 42.05 46.82 C 43.11 46.23 43.78 44.93 45.07 44.83 C 46.77 45.82 47.63 47.98 45.67 49.25 C 43.38 48.39 40.81 47.90 39.04 46.06 C 37.85 44.55 35.90 44.67 34.18 44.55 Z" />
</g>
<g id="#a66913ff">
<path fill="#a66913" opacity="1.00" d=" M 22.65 47.56 C 24.12 46.74 25.27 45.47 26.68 44.56 C 27.87 45.34 28.95 46.29 30.13 47.09 C 30.50 47.01 31.24 46.84 31.61 46.75 C 32.71 46.33 33.31 45.27 34.18 44.55 L 34.18 44.55 C 35.90 44.67 37.85 44.55 39.04 46.06 C 40.81 47.90 43.38 48.39 45.67 49.25 C 44.58 50.62 43.58 52.15 42.05 53.07 C 40.20 51.53 39.10 49.13 37.02 47.93 C 34.92 49.02 33.95 51.58 32.02 52.98 C 29.58 52.03 28.87 48.28 26.27 48.02 C 24.64 49.53 23.45 51.46 21.81 52.96 C 20.08 52.26 19.06 50.54 17.95 49.13 C 19.13 47.62 20.95 47.75 22.65 47.56 Z" />
</g>
</svg>
