<?xml version="1.0" encoding="UTF-8" ?>
<!DOCTYPE svg PUBLIC "-//W3C//DTD SVG 1.1//EN" "http://www.w3.org/Graphics/SVG/1.1/DTD/svg11.dtd">
<svg width="64pt" height="64pt" viewBox="0 0 64 64" version="1.1" xmlns="http://www.w3.org/2000/svg">
<g id="#f7991aff">
<path fill="#f7991a" opacity="1.00" d=" M 21.89 6.08 C 30.99 2.45 41.96 4.13 49.51 10.38 C 59.23 17.99 62.67 32.38 57.37 43.53 C 54.29 50.08 48.75 55.47 41.93 58.00 C 31.72 62.03 19.27 59.24 11.82 51.16 C 4.43 43.60 2.31 31.79 5.97 21.95 C 8.85 14.81 14.66 8.83 21.89 6.08 M 20.33 10.22 C 13.41 12.88 8.86 19.56 7.00 26.51 C 5.56 32.80 7.29 39.27 9.79 45.05 C 15.64 55.91 29.94 61.11 41.35 56.28 C 50.69 52.82 56.65 43.39 57.05 33.61 C 58.24 28.05 56.16 21.33 51.60 17.74 C 51.52 17.48 51.36 16.95 51.28 16.69 L 50.71 16.76 C 49.84 15.60 48.96 14.45 48.08 13.29 L 47.91 13.30 C 40.53 6.61 29.01 5.42 20.33 10.22 Z" />
</g>
<g id="#ffedc3ff">
<path fill="#ffedc3" opacity="1.00" d=" M 20.33 10.22 C 29.01 5.42 40.53 6.61 47.91 13.30 C 37.40 13.88 26.86 13.79 16.35 13.37 C 17.63 12.26 18.94 11.19 20.33 10.22 Z" />
</g>
<g id="#ffc93bff">
<path fill="#ffc93b" opacity="1.00" d=" M 7.00 26.51 C 8.86 19.56 13.41 12.88 20.33 10.22 C 18.94 11.19 17.63 12.26 16.35 13.37 C 15.27 14.42 14.30 15.56 13.33 16.71 C 12.24 18.81 11.43 21.05 10.81 23.33 C 10.89 24.82 10.99 26.30 11.11 27.78 C 14.19 27.57 17.27 27.33 20.34 27.07 C 20.55 27.87 20.95 29.46 21.15 30.26 L 21.25 30.62 C 21.54 33.31 25.53 33.28 25.74 30.56 L 25.86 30.15 C 26.23 28.72 26.60 27.29 26.96 25.86 C 30.30 25.81 33.64 25.82 36.98 25.89 C 37.38 27.41 37.77 28.92 38.24 30.41 C 38.47 33.20 42.45 33.19 42.78 30.46 C 43.15 29.34 43.48 28.22 43.76 27.08 C 46.80 27.34 49.84 27.59 52.87 27.84 C 52.96 26.34 53.02 24.85 53.05 23.35 C 52.65 21.46 52.15 19.59 51.60 17.74 C 56.16 21.33 58.24 28.05 57.05 33.61 C 51.59 35.82 45.66 34.05 39.99 34.17 C 29.53 34.24 19.00 33.69 8.61 35.30 C 8.76 38.57 8.95 41.87 9.79 45.05 C 7.29 39.27 5.56 32.80 7.00 26.51 Z" />
</g>
<g id="#ffe6a9ff">
<path fill="#ffe6a9" opacity="1.00" d=" M 13.33 16.71 C 14.30 15.56 15.27 14.42 16.35 13.37 C 26.86 13.79 37.40 13.88 47.91 13.30 L 48.08 13.29 C 48.96 14.45 49.84 15.60 50.71 16.76 C 44.87 17.59 38.96 17.56 33.08 17.45 C 26.49 17.51 19.87 17.70 13.33 16.71 Z" />
</g>
<g id="#ffde8aff">
<path fill="#ffde8a" opacity="1.00" d=" M 10.81 23.33 C 11.43 21.05 12.24 18.81 13.33 16.71 C 19.87 17.70 26.49 17.51 33.08 17.45 C 38.96 17.56 44.87 17.59 50.71 16.76 L 51.28 16.69 C 51.36 16.95 51.52 17.48 51.60 17.74 C 52.15 19.59 52.65 21.46 53.05 23.35 C 49.80 22.69 46.46 22.66 43.17 23.18 C 41.68 21.95 39.83 21.60 38.22 22.88 C 34.09 22.53 29.94 22.54 25.81 22.92 C 24.19 21.56 22.33 21.97 20.79 23.19 C 17.48 22.67 14.10 22.68 10.81 23.33 Z" />
</g>
<g id="#0000003e">
<path fill="#000000" opacity="0.24" d=" M 12.33 54.58 C 3.58 46.54 0.84 32.67 5.97 21.95 C 2.31 31.79 4.43 43.60 11.82 51.16 C 19.27 59.24 31.72 62.03 41.93 58.00 C 48.75 55.47 54.29 50.08 57.37 43.53 L 58.83 44.06 C 55.53 51.70 49.37 58.33 41.42 61.14 C 31.53 64.56 19.63 62.31 12.33 54.58 Z" />
</g>
<g id="#855d19ff">
<path fill="#855d19" opacity="1.00" d=" M 20.79 23.19 C 22.33 21.97 24.19 21.56 25.81 22.92 C 26.10 23.65 26.67 25.12 26.96 25.86 C 26.60 27.29 26.23 28.72 25.86 30.15 C 25.30 28.28 24.67 26.43 24.05 24.58 C 23.79 24.50 23.25 24.34 22.98 24.25 C 22.35 26.25 21.71 28.24 21.15 30.26 C 20.95 29.46 20.55 27.87 20.34 27.07 C 20.46 26.10 20.68 24.16 20.79 23.19 Z" />
</g>
<g id="#865b18ff">
<path fill="#865b18" opacity="1.00" d=" M 38.22 22.88 C 39.83 21.60 41.68 21.95 43.17 23.18 C 43.32 24.16 43.62 26.11 43.76 27.08 C 43.48 28.22 43.15 29.34 42.78 30.46 C 41.27 30.52 39.75 30.51 38.24 30.41 C 37.77 28.92 37.38 27.41 36.98 25.89 C 37.29 25.14 37.91 23.64 38.22 22.88 M 39.28 24.43 C 39.32 26.53 39.22 28.86 40.88 30.44 C 41.39 28.49 41.59 26.48 41.79 24.48 C 41.16 24.46 39.91 24.44 39.28 24.43 Z" />
</g>
<g id="#ffd35dff">
<path fill="#ffd35d" opacity="1.00" d=" M 10.81 23.33 C 14.10 22.68 17.48 22.67 20.79 23.19 C 20.68 24.16 20.46 26.10 20.34 27.07 C 17.27 27.33 14.19 27.57 11.11 27.78 C 10.99 26.30 10.89 24.82 10.81 23.33 Z" />
<path fill="#ffd35d" opacity="1.00" d=" M 43.17 23.18 C 46.46 22.66 49.80 22.69 53.05 23.35 C 53.02 24.85 52.96 26.34 52.87 27.84 C 49.84 27.59 46.80 27.34 43.76 27.08 C 43.62 26.11 43.32 24.16 43.17 23.18 Z" />
</g>
<g id="#ffd565ff">
<path fill="#ffd565" opacity="1.00" d=" M 25.81 22.92 C 29.94 22.54 34.09 22.53 38.22 22.88 C 37.91 23.64 37.29 25.14 36.98 25.89 C 33.64 25.82 30.30 25.81 26.96 25.86 C 26.67 25.12 26.10 23.65 25.81 22.92 Z" />
</g>
<g id="#ad6d14ff">
<path fill="#ad6d14" opacity="1.00" d=" M 22.98 24.25 C 23.25 24.34 23.79 24.50 24.05 24.58 C 24.67 26.43 25.30 28.28 25.86 30.15 L 25.74 30.56 C 24.25 30.56 22.75 30.58 21.25 30.62 L 21.15 30.26 C 21.71 28.24 22.35 26.25 22.98 24.25 Z" />
<path fill="#ad6d14" opacity="1.00" d=" M 39.28 24.43 C 39.91 24.44 41.16 24.46 41.79 24.48 C 41.59 26.48 41.39 28.49 40.88 30.44 C 39.22 28.86 39.32 26.53 39.28 24.43 Z" />
</g>
<g id="#f3df58ff">
<path fill="#f3df58" opacity="1.00" d=" M 21.25 30.62 C 22.75 30.58 24.25 30.56 25.74 30.56 C 25.53 33.28 21.54 33.31 21.25 30.62 Z" />
<path fill="#f3df58" opacity="1.00" d=" M 38.24 30.41 C 39.75 30.51 41.27 30.52 42.78 30.46 C 42.45 33.19 38.47 33.20 38.24 30.41 Z" />
</g>
<g id="#ffcd29ff">
<path fill="#ffcd29" opacity="1.00" d=" M 39.99 34.17 C 45.66 34.05 51.59 35.82 57.05 33.61 C 56.65 43.39 50.69 52.82 41.35 56.28 C 29.94 61.11 15.64 55.91 9.79 45.05 C 8.95 41.87 8.76 38.57 8.61 35.30 C 19.00 33.69 29.53 34.24 39.99 34.17 M 18.35 41.68 L 18.16 43.10 L 19.30 43.06 C 17.10 43.93 14.01 45.86 15.49 48.62 C 18.08 51.80 21.96 53.68 25.70 55.18 C 34.23 58.20 43.58 53.86 49.25 47.40 C 47.42 45.97 45.59 44.53 43.89 42.94 L 46.42 42.69 L 45.19 42.05 C 46.53 40.72 46.17 38.89 44.13 39.02 C 36.05 38.94 27.96 38.95 19.87 39.02 C 18.26 38.83 17.40 40.39 18.35 41.68 Z" />
</g>
<g id="#64400dff">
<path fill="#64400d" opacity="1.00" d=" M 18.35 41.68 C 17.40 40.39 18.26 38.83 19.87 39.02 C 27.96 38.95 36.05 38.94 44.13 39.02 C 46.17 38.89 46.53 40.72 45.19 42.05 C 45.07 42.00 44.84 41.91 44.72 41.87 C 39.81 39.51 34.26 40.16 29.00 40.08 C 25.65 39.99 22.35 40.69 19.18 41.72 C 18.97 41.71 18.56 41.69 18.35 41.68 Z" />
</g>
<g id="#824f0fff">
<path fill="#824f0f" opacity="1.00" d=" M 19.18 41.72 C 22.35 40.69 25.65 39.99 29.00 40.08 C 34.26 40.16 39.81 39.51 44.72 41.87 C 36.21 41.90 27.68 42.21 19.18 41.72 Z" />
</g>
<g id="#fbf349ff">
<path fill="#fbf349" opacity="1.00" d=" M 18.35 41.68 C 18.56 41.69 18.97 41.71 19.18 41.72 C 27.68 42.21 36.21 41.90 44.72 41.87 C 44.84 41.91 45.07 42.00 45.19 42.05 L 46.42 42.69 L 43.89 42.94 C 35.70 43.28 27.49 42.90 19.30 43.06 L 18.16 43.10 L 18.35 41.68 Z" />
</g>
<g id="#ffe12cff">
<path fill="#ffe12c" opacity="1.00" d=" M 19.30 43.06 C 27.49 42.90 35.70 43.28 43.89 42.94 C 45.59 44.53 47.42 45.97 49.25 47.40 C 43.58 53.86 34.23 58.20 25.70 55.18 C 21.96 53.68 18.08 51.80 15.49 48.62 C 14.01 45.86 17.10 43.93 19.30 43.06 Z" />
</g>
</svg>
