<?xml version="1.0" encoding="UTF-8" ?>
<!DOCTYPE svg PUBLIC "-//W3C//DTD SVG 1.1//EN" "http://www.w3.org/Graphics/SVG/1.1/DTD/svg11.dtd">
<svg width="64pt" height="64pt" viewBox="0 0 64 64" version="1.1" xmlns="http://www.w3.org/2000/svg">
<g id="#f7981bff">
<path fill="#f7981b" opacity="1.00" d=" M 4.17 29.70 C 5.19 16.48 16.62 4.93 29.94 4.27 C 40.58 3.31 51.35 9.23 56.39 18.61 C 60.03 25.04 60.75 32.91 58.73 39.98 C 58.21 40.26 57.18 40.81 56.66 41.09 C 57.77 34.37 58.61 26.98 55.13 20.77 C 52.27 15.51 47.90 10.15 41.66 9.09 C 33.61 6.07 24.12 6.90 17.24 12.28 C 15.39 13.94 13.79 15.85 12.17 17.73 C 10.28 19.74 8.52 21.96 7.78 24.67 C 5.18 30.68 6.86 37.39 8.81 43.32 C 13.13 53.13 24.37 59.59 35.04 57.83 C 40.25 57.10 45.04 54.71 49.41 51.87 C 49.30 52.42 49.09 53.51 48.99 54.05 C 43.64 58.16 36.76 60.24 30.02 59.74 C 19.51 59.12 9.77 51.90 6.08 42.05 C 4.48 38.14 4.14 33.88 4.17 29.70 Z" />
<path fill="#f7981b" opacity="1.00" d=" M 35.69 45.56 C 37.25 44.62 38.82 43.68 40.34 42.67 C 40.40 44.66 40.40 46.66 40.37 48.65 C 38.83 47.58 37.26 46.57 35.69 45.56 Z" />
</g>
<g id="#ffefc9ff">
<path fill="#ffefc9" opacity="1.00" d=" M 17.24 12.28 C 24.12 6.90 33.61 6.07 41.66 9.09 C 43.36 10.16 45.02 11.31 46.63 12.50 C 42.49 13.45 38.23 13.41 34.01 13.29 C 28.42 13.10 22.68 14.00 17.24 12.28 Z" />
</g>
<g id="#ffca3bff">
<path fill="#ffca3b" opacity="1.00" d=" M 41.66 9.09 C 47.90 10.15 52.27 15.51 55.13 20.77 C 58.61 26.98 57.77 34.37 56.66 41.09 C 56.21 41.34 55.31 41.83 54.86 42.07 C 55.39 39.85 55.86 37.61 56.30 35.37 C 53.32 35.20 50.33 35.06 47.35 34.88 C 45.80 34.33 44.27 33.70 42.71 33.14 C 44.07 33.13 45.43 33.04 46.78 32.88 C 47.53 30.21 44.02 29.65 42.12 29.25 C 39.13 28.49 34.80 29.96 35.50 33.77 C 32.67 34.24 29.81 34.08 26.97 33.79 C 27.55 31.03 27.22 28.26 26.02 25.72 C 34.36 24.79 42.58 27.01 50.71 28.50 C 54.15 26.36 53.12 21.52 51.75 18.39 C 50.31 16.21 48.65 14.17 46.63 12.50 C 45.02 11.31 43.36 10.16 41.66 9.09 Z" />
</g>
<g id="#ffe4a2ff">
<path fill="#ffe4a2" opacity="1.00" d=" M 12.17 17.73 C 13.79 15.85 15.39 13.94 17.24 12.28 C 22.68 14.00 28.42 13.10 34.01 13.29 C 38.23 13.41 42.49 13.45 46.63 12.50 C 48.65 14.17 50.31 16.21 51.75 18.39 C 50.42 19.47 48.67 19.79 46.99 19.74 C 37.69 19.82 28.28 18.95 19.12 20.97 C 20.98 19.56 22.89 18.23 24.69 16.73 C 19.81 15.88 15.76 19.39 13.64 23.44 C 12.98 22.26 12.33 21.08 11.71 19.88 C 11.83 19.34 12.06 18.26 12.17 17.73 Z" />
</g>
<g id="#7f5517ff">
<path fill="#7f5517" opacity="1.00" d=" M 13.64 23.44 C 15.76 19.39 19.81 15.88 24.69 16.73 C 22.89 18.23 20.98 19.56 19.12 20.97 C 17.14 22.70 15.43 24.70 13.59 26.56 C 13.60 25.78 13.63 24.22 13.64 23.44 Z" />
</g>
<g id="#ffc93bff">
<path fill="#ffc93b" opacity="1.00" d=" M 7.78 24.67 C 8.52 21.96 10.28 19.74 12.17 17.73 C 12.06 18.26 11.83 19.34 11.71 19.88 C 11.30 22.30 10.62 24.95 11.77 27.28 C 15.08 27.73 18.41 26.62 21.71 26.33 C 21.05 29.18 21.04 32.12 22.64 34.68 L 22.78 35.03 L 22.54 35.04 C 17.77 34.94 13.00 34.86 8.23 34.83 C 8.08 31.44 7.86 28.06 7.78 24.67 Z" />
</g>
<g id="#ffd873ff">
<path fill="#ffd873" opacity="1.00" d=" M 51.75 18.39 C 53.12 21.52 54.15 26.36 50.71 28.50 C 42.58 27.01 34.36 24.79 26.02 25.72 C 24.58 25.90 23.14 26.12 21.71 26.33 C 18.41 26.62 15.08 27.73 11.77 27.28 C 10.62 24.95 11.30 22.30 11.71 19.88 C 12.33 21.08 12.98 22.26 13.64 23.44 C 13.63 24.22 13.60 25.78 13.59 26.56 C 15.43 24.70 17.14 22.70 19.12 20.97 C 28.28 18.95 37.69 19.82 46.99 19.74 C 48.67 19.79 50.42 19.47 51.75 18.39 M 37.19 25.21 C 42.12 24.84 46.84 26.08 51.52 27.44 C 48.98 22.70 40.75 20.58 37.19 25.21 Z" />
</g>
<g id="#794d0dff">
<path fill="#794d0d" opacity="1.00" d=" M 37.19 25.21 C 40.75 20.58 48.98 22.70 51.52 27.44 C 46.84 26.08 42.12 24.84 37.19 25.21 Z" />
</g>
<g id="#ffca28ff">
<path fill="#ffca28" opacity="1.00" d=" M 8.81 43.32 C 6.86 37.39 5.18 30.68 7.78 24.67 C 7.86 28.06 8.08 31.44 8.23 34.83 C 13.00 34.86 17.77 34.94 22.54 35.04 C 22.41 40.21 16.27 41.17 13.45 44.35 C 13.34 49.24 18.08 52.15 21.95 54.07 C 25.19 56.04 29.04 55.98 32.69 55.99 C 32.22 55.14 31.76 54.29 31.30 53.45 C 31.32 53.21 31.38 52.74 31.41 52.50 C 34.60 52.99 37.77 52.20 40.32 50.22 C 40.33 49.83 40.36 49.04 40.37 48.65 C 40.40 46.66 40.40 44.66 40.34 42.67 C 40.32 42.29 40.29 41.52 40.27 41.13 C 39.39 40.50 38.50 39.89 37.58 39.32 C 36.79 38.02 36.01 36.71 35.20 35.42 C 39.25 35.24 43.30 34.92 47.35 34.88 C 50.33 35.06 53.32 35.20 56.30 35.37 C 55.86 37.61 55.39 39.85 54.86 42.07 C 54.63 42.01 54.18 41.90 53.95 41.84 C 52.67 40.53 51.85 38.47 49.89 38.02 C 47.58 37.97 45.57 39.87 45.03 42.04 C 45.05 45.63 47.63 48.40 49.42 51.27 L 49.41 51.87 C 45.04 54.71 40.25 57.10 35.04 57.83 C 24.37 59.59 13.13 53.13 8.81 43.32 Z" />
</g>
<g id="#8c5e12ff">
<path fill="#8c5e12" opacity="1.00" d=" M 21.71 26.33 C 23.14 26.12 24.58 25.90 26.02 25.72 C 27.22 28.26 27.55 31.03 26.97 33.79 C 26.30 32.13 25.65 30.46 25.00 28.79 C 24.62 28.64 23.87 28.35 23.49 28.20 C 23.20 30.36 22.90 32.52 22.64 34.68 C 21.04 32.12 21.05 29.18 21.71 26.33 Z" />
</g>
<g id="#aa6d14ff">
<path fill="#aa6d14" opacity="1.00" d=" M 23.49 28.20 C 23.87 28.35 24.62 28.64 25.00 28.79 C 25.65 30.46 26.30 32.13 26.97 33.79 C 26.28 34.14 25.59 34.49 24.89 34.83 C 24.36 34.88 23.30 34.98 22.78 35.03 L 22.64 34.68 C 22.90 32.52 23.20 30.36 23.49 28.20 Z" />
</g>
<g id="#8f5c0fff">
<path fill="#8f5c0f" opacity="1.00" d=" M 35.50 33.77 C 34.80 29.96 39.13 28.49 42.12 29.25 C 44.02 29.65 47.53 30.21 46.78 32.88 C 45.43 33.04 44.07 33.13 42.71 33.14 C 40.29 33.12 37.89 33.41 35.50 33.77 Z" />
<path fill="#8f5c0f" opacity="1.00" d=" M 30.91 38.54 C 33.14 38.67 35.38 38.87 37.58 39.32 C 38.50 39.89 39.39 40.50 40.27 41.13 C 40.29 41.52 40.32 42.29 40.34 42.67 C 38.82 43.68 37.25 44.62 35.69 45.56 C 37.26 46.57 38.83 47.58 40.37 48.65 C 40.36 49.04 40.33 49.83 40.32 50.22 C 37.77 52.20 34.60 52.99 31.41 52.50 C 33.46 51.56 35.54 50.68 37.60 49.78 C 35.98 48.37 34.26 47.08 32.53 45.80 C 34.20 44.46 35.85 43.10 37.41 41.63 C 35.24 40.61 33.06 39.61 30.91 38.54 Z" />
</g>
<g id="#03010055">
<path fill="#030100" opacity="0.33" d=" M 12.99 55.08 C 6.15 48.87 1.84 38.92 4.17 29.70 C 4.14 33.88 4.48 38.14 6.08 42.05 C 9.77 51.90 19.51 59.12 30.02 59.74 C 36.76 60.24 43.64 58.16 48.99 54.05 C 49.09 53.51 49.30 52.42 49.41 51.87 L 49.42 51.27 L 49.42 51.18 C 50.01 52.10 50.63 53.00 51.27 53.88 C 54.66 52.10 58.08 50.34 61.20 48.10 L 61.92 47.56 C 60.80 53.26 54.09 54.45 49.63 56.64 C 44.22 59.72 38.28 62.21 31.98 62.38 C 25.17 61.78 18.07 59.93 12.99 55.08 Z" />
</g>
<g id="#ffdd2bff">
<path fill="#ffdd2b" opacity="1.00" d=" M 26.97 33.79 C 29.81 34.08 32.67 34.24 35.50 33.77 C 37.89 33.41 40.29 33.12 42.71 33.14 C 44.27 33.70 45.80 34.33 47.35 34.88 C 43.30 34.92 39.25 35.24 35.20 35.42 C 36.01 36.71 36.79 38.02 37.58 39.32 C 35.38 38.87 33.14 38.67 30.91 38.54 C 33.06 39.61 35.24 40.61 37.41 41.63 C 35.85 43.10 34.20 44.46 32.53 45.80 C 34.26 47.08 35.98 48.37 37.60 49.78 C 35.54 50.68 33.46 51.56 31.41 52.50 C 31.38 52.74 31.32 53.21 31.30 53.45 C 31.76 54.29 32.22 55.14 32.69 55.99 C 29.04 55.98 25.19 56.04 21.95 54.07 C 18.08 52.15 13.34 49.24 13.45 44.35 C 16.27 41.17 22.41 40.21 22.54 35.04 L 22.78 35.03 C 23.30 34.98 24.36 34.88 24.89 34.83 C 25.59 34.49 26.28 34.14 26.97 33.79 Z" />
</g>
<g id="#901302ff">
<path fill="#901302" opacity="1.00" d=" M 45.03 42.04 C 45.57 39.87 47.58 37.97 49.89 38.02 C 51.85 38.47 52.67 40.53 53.95 41.84 C 51.67 41.92 48.27 40.87 47.61 43.97 C 48.00 46.42 49.05 48.72 49.42 51.18 L 49.42 51.27 C 47.63 48.40 45.05 45.63 45.03 42.04 Z" />
</g>
<g id="#6a1002e3">
<path fill="#6a1002" opacity="0.89" d=" M 56.66 41.09 C 57.18 40.81 58.21 40.26 58.73 39.98 C 61.57 41.20 64.30 44.61 61.92 47.56 L 61.20 48.10 C 61.25 46.65 61.31 45.19 61.37 43.74 C 59.21 43.15 57.04 42.60 54.86 42.07 C 55.31 41.83 56.21 41.34 56.66 41.09 Z" />
</g>
<g id="#c32006ff">
<path fill="#c32006" opacity="1.00" d=" M 47.61 43.97 C 48.27 40.87 51.67 41.92 53.95 41.84 C 54.18 41.90 54.63 42.01 54.86 42.07 C 57.04 42.60 59.21 43.15 61.37 43.74 C 61.31 45.19 61.25 46.65 61.20 48.10 C 58.08 50.34 54.66 52.10 51.27 53.88 C 50.63 53.00 50.01 52.10 49.42 51.18 C 49.05 48.72 48.00 46.42 47.61 43.97 M 53.09 49.76 C 55.54 50.24 56.53 47.55 57.66 45.97 C 55.58 44.54 53.13 43.91 50.69 43.41 C 49.10 45.74 50.07 49.41 53.09 49.76 Z" />
</g>
<g id="#ec341bff">
<path fill="#ec341b" opacity="1.00" d=" M 53.09 49.76 C 50.07 49.41 49.10 45.74 50.69 43.41 C 53.13 43.91 55.58 44.54 57.66 45.97 C 56.53 47.55 55.54 50.24 53.09 49.76 Z" />
</g>
</svg>
