<?xml version="1.0" encoding="UTF-8" ?>
<!DOCTYPE svg PUBLIC "-//W3C//DTD SVG 1.1//EN" "http://www.w3.org/Graphics/SVG/1.1/DTD/svg11.dtd">
<svg width="64pt" height="64pt" viewBox="0 0 64 64" version="1.1" xmlns="http://www.w3.org/2000/svg">
<g id="#f9a720ff">
<path fill="#f9a720" opacity="1.00" d=" M 23.34 5.57 C 30.28 3.30 38.13 3.86 44.62 7.23 C 51.91 10.87 57.37 17.91 59.17 25.85 C 60.64 32.74 59.63 40.22 55.94 46.27 C 51.05 54.55 41.64 60.08 31.97 59.81 C 22.27 60.05 12.85 54.48 7.99 46.16 C 4.35 40.13 3.37 32.70 4.83 25.85 C 6.92 16.49 14.18 8.48 23.34 5.57 M 14.89 14.66 L 14.64 14.60 C 13.85 15.70 13.02 16.79 12.39 17.99 C 7.84 21.36 5.96 28.12 7.10 33.46 C 6.92 43.93 14.10 53.79 24.09 56.84 C 33.34 59.45 44.31 57.07 50.78 49.71 C 54.78 45.26 56.61 39.39 56.94 33.51 C 57.07 32.88 57.35 31.64 57.49 31.02 C 56.85 26.36 55.88 20.75 51.60 17.99 C 50.98 16.78 50.13 15.72 49.37 14.60 L 49.09 14.66 C 40.49 4.85 23.50 4.88 14.89 14.66 Z" />
</g>
<g id="#ffecc3ff">
<path fill="#ffecc3" opacity="1.00" d=" M 14.89 14.66 C 23.50 4.88 40.49 4.85 49.09 14.66 C 43.53 16.24 37.71 15.44 32.02 15.58 C 26.31 15.43 20.47 16.24 14.89 14.66 Z" />
</g>
<g id="#ffde8aff">
<path fill="#ffde8a" opacity="1.00" d=" M 14.64 14.60 L 14.89 14.66 C 20.47 16.24 26.31 15.43 32.02 15.58 C 37.71 15.44 43.53 16.24 49.09 14.66 L 49.37 14.60 C 50.13 15.72 50.98 16.78 51.60 17.99 C 52.24 19.85 52.80 21.74 53.33 23.64 C 49.62 22.17 45.64 22.33 41.87 23.49 C 40.44 22.65 38.82 22.72 37.47 23.68 C 33.92 22.06 30.09 22.12 26.53 23.67 C 25.17 22.73 23.54 22.63 22.12 23.51 C 18.39 22.31 14.46 22.18 10.76 23.59 C 11.25 21.71 11.77 19.83 12.39 17.99 C 13.02 16.79 13.85 15.70 14.64 14.60 Z" />
</g>
<g id="#ffca3bff">
<path fill="#ffca3b" opacity="1.00" d=" M 7.10 33.46 C 5.96 28.12 7.84 21.36 12.39 17.99 C 11.77 19.83 11.25 21.71 10.76 23.59 C 11.07 24.98 10.19 27.49 12.38 27.47 C 15.10 27.82 17.85 27.38 20.56 27.22 C 21.62 28.39 22.35 30.22 24.15 30.38 C 25.22 30.24 26.09 29.56 27.00 29.05 C 27.10 28.15 27.32 26.36 27.42 25.46 C 30.47 25.71 33.54 25.72 36.58 25.49 C 36.67 26.35 36.85 28.06 36.94 28.92 C 37.90 29.45 38.72 30.34 39.87 30.37 C 41.64 30.20 42.38 28.40 43.44 27.24 C 46.52 27.48 49.60 27.59 52.69 27.60 C 52.88 26.27 53.10 24.95 53.33 23.64 C 52.80 21.74 52.24 19.85 51.60 17.99 C 55.88 20.75 56.85 26.36 57.49 31.02 C 57.35 31.64 57.07 32.88 56.94 33.51 C 48.66 34.85 40.28 34.05 31.94 34.21 C 23.66 34.05 15.32 34.87 7.10 33.46 Z" />
</g>
<g id="#ffd35dff">
<path fill="#ffd35d" opacity="1.00" d=" M 10.76 23.59 C 14.46 22.18 18.39 22.31 22.12 23.51 L 21.29 25.48 C 21.11 25.92 20.74 26.78 20.56 27.22 C 17.85 27.38 15.10 27.82 12.38 27.47 C 10.19 27.49 11.07 24.98 10.76 23.59 Z" />
<path fill="#ffd35d" opacity="1.00" d=" M 41.87 23.49 C 45.64 22.33 49.62 22.17 53.33 23.64 C 53.10 24.95 52.88 26.27 52.69 27.60 C 49.60 27.59 46.52 27.48 43.44 27.24 C 43.26 26.80 42.89 25.93 42.71 25.49 L 41.87 23.49 Z" />
</g>
<g id="#73470cff">
<path fill="#73470c" opacity="1.00" d=" M 22.12 23.51 C 23.54 22.63 25.17 22.73 26.53 23.67 L 27.42 25.46 C 27.32 26.36 27.10 28.15 27.00 29.05 C 26.39 27.85 25.78 26.66 25.18 25.46 C 23.88 25.47 22.58 25.48 21.29 25.48 L 22.12 23.51 Z" />
<path fill="#73470c" opacity="1.00" d=" M 37.47 23.68 C 38.82 22.72 40.44 22.65 41.87 23.49 L 42.71 25.49 C 41.44 25.48 40.17 25.45 38.90 25.44 C 38.26 26.61 37.59 27.76 36.94 28.92 C 36.85 28.06 36.67 26.35 36.58 25.49 L 37.47 23.68 Z" />
</g>
<g id="#ffd666ff">
<path fill="#ffd666" opacity="1.00" d=" M 26.53 23.67 C 30.09 22.12 33.92 22.06 37.47 23.68 L 36.58 25.49 C 33.54 25.72 30.47 25.71 27.42 25.46 L 26.53 23.67 Z" />
</g>
<g id="#aa6b14ff">
<path fill="#aa6b14" opacity="1.00" d=" M 20.56 27.22 C 20.74 26.78 21.11 25.92 21.29 25.48 C 22.58 25.48 23.88 25.47 25.18 25.46 C 25.78 26.66 26.39 27.85 27.00 29.05 C 26.09 29.56 25.22 30.24 24.15 30.38 C 22.35 30.22 21.62 28.39 20.56 27.22 Z" />
<path fill="#aa6b14" opacity="1.00" d=" M 36.94 28.92 C 37.59 27.76 38.26 26.61 38.90 25.44 C 40.17 25.45 41.44 25.48 42.71 25.49 C 42.89 25.93 43.26 26.80 43.44 27.24 C 42.38 28.40 41.64 30.20 39.87 30.37 C 38.72 30.34 37.90 29.45 36.94 28.92 Z" />
</g>
<g id="#ffcd29ff">
<path fill="#ffcd29" opacity="1.00" d=" M 7.10 33.46 C 15.32 34.87 23.66 34.05 31.94 34.21 C 40.28 34.05 48.66 34.85 56.94 33.51 C 56.61 39.39 54.78 45.26 50.78 49.71 C 44.31 57.07 33.34 59.45 24.09 56.84 C 14.10 53.79 6.92 43.93 7.10 33.46 M 22.04 39.92 C 19.58 42.21 16.60 43.80 13.94 45.83 C 16.66 53.00 25.15 56.53 32.42 56.07 C 31.95 54.84 31.59 53.57 31.11 52.34 C 33.83 53.22 36.69 52.52 39.07 51.06 C 40.94 50.66 40.64 48.39 39.07 47.82 C 40.28 46.34 40.71 44.57 40.36 42.69 C 40.45 39.66 36.46 39.27 34.24 38.58 C 34.77 38.25 35.82 37.61 36.34 37.29 C 31.58 36.87 25.60 35.91 22.04 39.92 Z" />
</g>
<g id="#ffdf2cff">
<path fill="#ffdf2c" opacity="1.00" d=" M 22.04 39.92 C 25.60 35.91 31.58 36.87 36.34 37.29 C 35.82 37.61 34.77 38.25 34.24 38.58 C 32.95 38.64 31.66 38.70 30.37 38.75 C 32.62 39.57 34.90 40.34 37.04 41.42 C 36.88 43.66 33.85 44.13 32.44 45.49 C 34.10 46.85 35.79 48.20 37.59 49.38 C 35.67 50.84 33.37 51.59 31.11 52.34 C 31.59 53.57 31.95 54.84 32.42 56.07 C 25.15 56.53 16.66 53.00 13.94 45.83 C 16.60 43.80 19.58 42.21 22.04 39.92 Z" />
</g>
<g id="#895e0eff">
<path fill="#895e0e" opacity="1.00" d=" M 30.37 38.75 C 31.66 38.70 32.95 38.64 34.24 38.58 C 36.46 39.27 40.45 39.66 40.36 42.69 C 38.77 43.69 37.14 44.65 35.53 45.61 C 36.70 46.37 37.92 47.03 39.07 47.82 C 40.64 48.39 40.94 50.66 39.07 51.06 C 36.69 52.52 33.83 53.22 31.11 52.34 C 33.37 51.59 35.67 50.84 37.59 49.38 C 35.79 48.20 34.10 46.85 32.44 45.49 C 33.85 44.13 36.88 43.66 37.04 41.42 C 34.90 40.34 32.62 39.57 30.37 38.75 Z" />
</g>
<g id="#ee9e1cff">
<path fill="#ee9e1c" opacity="1.00" d=" M 35.53 45.61 C 37.14 44.65 38.77 43.69 40.36 42.69 C 40.71 44.57 40.28 46.34 39.07 47.82 C 37.92 47.03 36.70 46.37 35.53 45.61 Z" />
</g>
</svg>
