<?xml version="1.0" encoding="UTF-8" ?>
<!DOCTYPE svg PUBLIC "-//W3C//DTD SVG 1.1//EN" "http://www.w3.org/Graphics/SVG/1.1/DTD/svg11.dtd">
<svg width="64pt" height="64pt" viewBox="0 0 64 64" version="1.1" xmlns="http://www.w3.org/2000/svg">
<g id="#f79e1dff">
<path fill="#f79e1d" opacity="1.00" d=" M 20.54 6.66 C 29.46 2.51 40.53 3.68 48.42 9.54 C 53.57 13.24 57.08 18.79 59.05 24.75 C 61.80 36.05 57.34 48.74 47.50 55.15 C 47.51 54.72 47.54 53.87 47.55 53.45 C 55.85 47.08 59.26 35.77 57.13 25.72 C 55.15 19.10 50.82 12.20 43.84 10.17 C 36.05 6.36 26.43 6.28 19.02 11.06 C 16.17 12.80 14.06 15.45 12.25 18.21 C 11.68 19.05 11.12 19.89 10.57 20.75 C 7.59 24.82 6.87 30.00 7.77 34.89 C 8.37 38.45 9.02 42.09 10.64 45.36 C 13.07 49.91 17.39 53.04 21.77 55.56 C 22.54 54.55 23.31 53.54 24.07 52.53 C 24.40 54.67 24.64 56.84 25.15 58.95 C 15.66 56.66 7.76 48.96 5.21 39.54 C 3.62 34.04 4.07 28.15 5.63 22.70 C 8.40 15.76 13.62 9.67 20.54 6.66 Z" />
</g>
<g id="#fff0cfff">
<path fill="#fff0cf" opacity="1.00" d=" M 19.02 11.06 C 26.43 6.28 36.05 6.36 43.84 10.17 L 45.08 11.12 C 40.57 12.87 35.71 12.16 31.00 12.27 C 26.98 12.28 22.80 12.79 19.02 11.06 Z" />
</g>
<g id="#ffc629ff">
<path fill="#ffc629" opacity="1.00" d=" M 43.84 10.17 C 50.82 12.20 55.15 19.10 57.13 25.72 C 59.26 35.77 55.85 47.08 47.55 53.45 C 47.54 53.87 47.51 54.72 47.50 55.15 C 44.87 56.82 41.97 57.99 38.99 58.87 C 39.59 56.61 39.74 54.26 39.76 51.93 L 40.97 51.11 C 43.21 49.71 45.32 48.09 46.99 46.03 C 47.83 44.56 48.89 42.99 48.45 41.21 C 48.30 39.92 48.15 38.62 48.03 37.33 C 50.18 35.88 52.40 34.09 53.17 31.50 C 53.79 29.19 53.17 26.82 52.77 24.54 C 52.95 18.94 49.46 14.22 45.08 11.12 L 43.84 10.17 Z" />
</g>
<g id="#ffe6a9ff">
<path fill="#ffe6a9" opacity="1.00" d=" M 12.25 18.21 C 14.06 15.45 16.17 12.80 19.02 11.06 C 22.80 12.79 26.98 12.28 31.00 12.27 C 35.71 12.16 40.57 12.87 45.08 11.12 C 49.46 14.22 52.95 18.94 52.77 24.54 C 50.05 20.75 45.39 18.69 40.81 20.20 C 31.63 17.07 21.61 20.73 12.25 18.21 Z" />
</g>
<g id="#ffd873ff">
<path fill="#ffd873" opacity="1.00" d=" M 10.57 20.75 C 11.12 19.89 11.68 19.05 12.25 18.21 C 21.61 20.73 31.63 17.07 40.81 20.20 C 38.75 21.75 37.04 23.69 35.44 25.70 C 30.73 25.58 25.96 25.30 21.29 26.18 C 18.32 26.68 15.39 27.66 12.35 27.60 C 10.66 25.86 11.14 22.98 10.57 20.75 Z" />
</g>
<g id="#141414ff">
<path fill="#141414" opacity="1.00" d=" M 40.81 20.20 C 45.39 18.69 50.05 20.75 52.77 24.54 C 53.17 26.82 53.79 29.19 53.17 31.50 C 52.40 34.09 50.18 35.88 48.03 37.33 C 45.62 38.13 43.01 38.44 40.74 37.09 C 44.46 38.21 48.72 37.32 51.10 34.10 C 53.39 31.98 52.42 28.66 52.57 25.91 C 51.15 24.39 49.69 22.92 48.22 21.45 C 45.68 21.43 43.14 21.42 40.59 21.44 C 39.30 22.67 37.97 23.88 36.87 25.29 C 35.22 29.17 36.42 33.60 39.61 36.32 C 38.50 35.45 37.42 34.55 36.38 33.60 C 35.42 31.08 35.51 28.35 35.44 25.70 C 37.04 23.69 38.75 21.75 40.81 20.20 Z" />
<path fill="#141414" opacity="1.00" d=" M 41.95 31.39 C 41.09 29.27 41.25 26.17 44.07 25.74 C 46.50 25.53 47.17 27.90 47.66 29.73 C 46.01 29.10 44.32 28.55 42.62 28.07 C 42.45 28.90 42.12 30.56 41.95 31.39 Z" />
</g>
<g id="#ffcb3cff">
<path fill="#ffcb3c" opacity="1.00" d=" M 7.77 34.89 C 6.87 30.00 7.59 24.82 10.57 20.75 C 11.14 22.98 10.66 25.86 12.35 27.60 C 15.39 27.66 18.32 26.68 21.29 26.18 C 25.96 25.30 30.73 25.58 35.44 25.70 C 35.51 28.35 35.42 31.08 36.38 33.60 C 29.40 34.54 22.28 34.62 15.33 33.38 C 19.95 31.94 24.74 32.84 29.43 33.33 C 26.62 27.12 15.47 26.87 13.38 33.73 C 11.51 34.09 9.64 34.49 7.77 34.89 Z" />
</g>
<g id="#f1f1f1ff">
<path fill="#f1f1f1" opacity="1.00" d=" M 40.59 21.44 C 43.14 21.42 45.68 21.43 48.22 21.45 C 49.69 22.92 51.15 24.39 52.57 25.91 C 52.42 28.66 53.39 31.98 51.10 34.10 C 48.72 37.32 44.46 38.21 40.74 37.09 C 40.46 36.90 39.89 36.51 39.61 36.32 C 36.42 33.60 35.22 29.17 36.87 25.29 C 37.97 23.88 39.30 22.67 40.59 21.44 M 41.95 31.39 C 44.12 32.51 46.54 32.06 47.66 29.73 C 47.17 27.90 46.50 25.53 44.07 25.74 C 41.25 26.17 41.09 29.27 41.95 31.39 Z" />
</g>
<g id="#00000033">
<path fill="#000000" opacity="0.20" d=" M 17.95 59.02 C 5.59 52.24 -0.10 35.57 5.63 22.70 C 4.07 28.15 3.62 34.04 5.21 39.54 C 7.76 48.96 15.66 56.66 25.15 58.95 C 25.50 59.23 26.20 59.79 26.55 60.07 C 29.57 62.68 34.40 62.69 37.43 60.09 C 37.82 59.79 38.60 59.18 38.99 58.87 C 41.97 57.99 44.87 56.82 47.50 55.15 C 57.34 48.74 61.80 36.05 59.05 24.75 C 62.61 35.00 59.63 47.20 51.73 54.67 C 47.46 59.55 40.91 60.89 35.50 64.00 L 28.50 64.00 C 25.13 62.03 21.42 60.76 17.95 59.02 Z" />
</g>
<g id="#8b580eff">
<path fill="#8b580e" opacity="1.00" d=" M 13.38 33.73 C 15.47 26.87 26.62 27.12 29.43 33.33 C 24.74 32.84 19.95 31.94 15.33 33.38 C 14.84 33.47 13.87 33.64 13.38 33.73 Z" />
</g>
<g id="#6f6f71ff">
<path fill="#6f6f71" opacity="1.00" d=" M 42.62 28.07 C 44.32 28.55 46.01 29.10 47.66 29.73 C 46.54 32.06 44.12 32.51 41.95 31.39 C 42.12 30.56 42.45 28.90 42.62 28.07 Z" />
</g>
<g id="#ffd32aff">
<path fill="#ffd32a" opacity="1.00" d=" M 7.77 34.89 C 9.64 34.49 11.51 34.09 13.38 33.73 C 13.87 33.64 14.84 33.47 15.33 33.38 C 22.28 34.62 29.40 34.54 36.38 33.60 C 37.42 34.55 38.50 35.45 39.61 36.32 C 39.89 36.51 40.46 36.90 40.74 37.09 C 43.01 38.44 45.62 38.13 48.03 37.33 C 48.15 38.62 48.30 39.92 48.45 41.21 C 39.10 42.91 29.47 43.29 20.05 41.88 C 18.17 41.65 16.27 41.55 14.37 41.58 C 14.87 42.63 15.40 43.66 15.97 44.67 C 17.53 47.54 20.23 49.45 22.86 51.26 C 23.16 51.57 23.77 52.21 24.07 52.53 C 23.31 53.54 22.54 54.55 21.77 55.56 C 17.39 53.04 13.07 49.91 10.64 45.36 C 9.02 42.09 8.37 38.45 7.77 34.89 Z" />
</g>
<g id="#642301ff">
<path fill="#642301" opacity="1.00" d=" M 14.37 41.58 C 16.27 41.55 18.17 41.65 20.05 41.88 C 29.47 43.29 39.10 42.91 48.45 41.21 C 48.89 42.99 47.83 44.56 46.99 46.03 C 46.37 45.04 45.77 44.04 45.18 43.03 C 43.87 43.40 42.57 43.82 41.29 44.29 C 40.74 46.52 41.03 48.84 40.97 51.11 L 39.76 51.93 C 39.74 49.33 39.83 46.73 39.88 44.14 C 34.63 44.26 29.37 44.19 24.11 44.23 C 24.17 46.80 24.32 49.38 24.36 51.96 L 22.86 51.26 C 22.92 49.01 23.11 46.77 23.29 44.53 C 20.90 43.25 18.34 43.52 15.97 44.67 C 15.40 43.66 14.87 42.63 14.37 41.58 Z" />
</g>
<g id="#b66610ff">
<path fill="#b66610" opacity="1.00" d=" M 15.97 44.67 C 18.34 43.52 20.90 43.25 23.29 44.53 C 23.11 46.77 22.92 49.01 22.86 51.26 C 20.23 49.45 17.53 47.54 15.97 44.67 Z" />
<path fill="#b66610" opacity="1.00" d=" M 41.29 44.29 C 42.57 43.82 43.87 43.40 45.18 43.03 C 45.77 44.04 46.37 45.04 46.99 46.03 C 45.32 48.09 43.21 49.71 40.97 51.11 C 41.03 48.84 40.74 46.52 41.29 44.29 Z" />
</g>
<g id="#ff7aabff">
<path fill="#ff7aab" opacity="1.00" d=" M 24.11 44.23 C 29.37 44.19 34.63 44.26 39.88 44.14 C 39.83 46.73 39.74 49.33 39.76 51.93 C 39.74 54.26 39.59 56.61 38.99 58.87 C 38.60 59.18 37.82 59.79 37.43 60.09 C 33.81 59.83 30.17 59.82 26.55 60.07 C 26.20 59.79 25.50 59.23 25.15 58.95 C 24.64 56.84 24.40 54.67 24.07 52.53 C 23.77 52.21 23.16 51.57 22.86 51.26 L 24.36 51.96 C 24.32 49.38 24.17 46.80 24.11 44.23 M 25.30 45.26 C 25.16 45.88 24.88 47.13 24.73 47.75 C 29.55 48.38 34.46 48.54 39.28 47.84 C 39.13 47.19 38.85 45.90 38.70 45.25 C 34.29 44.84 29.71 44.83 25.30 45.26 M 25.28 51.36 C 25.23 53.41 24.58 56.06 26.62 57.41 C 29.20 59.18 32.62 58.53 35.55 58.30 C 38.60 57.97 40.12 53.42 37.78 51.49 C 33.62 51.11 29.44 51.43 25.28 51.36 Z" />
</g>
<g id="#fc506aff">
<path fill="#fc506a" opacity="1.00" d=" M 25.30 45.26 C 29.71 44.83 34.29 44.84 38.70 45.25 C 38.85 45.90 39.13 47.19 39.28 47.84 C 34.46 48.54 29.55 48.38 24.73 47.75 C 24.88 47.13 25.16 45.88 25.30 45.26 Z" />
<path fill="#fc506a" opacity="1.00" d=" M 26.55 60.07 C 30.17 59.82 33.81 59.83 37.43 60.09 C 34.40 62.69 29.57 62.68 26.55 60.07 Z" />
</g>
<g id="#ffadcfff">
<path fill="#ffadcf" opacity="1.00" d=" M 25.28 51.36 C 29.44 51.43 33.62 51.11 37.78 51.49 C 40.12 53.42 38.60 57.97 35.55 58.30 C 32.62 58.53 29.20 59.18 26.62 57.41 C 24.58 56.06 25.23 53.41 25.28 51.36 Z" />
</g>
</svg>
