<?xml version="1.0" encoding="UTF-8" ?>
<!DOCTYPE svg PUBLIC "-//W3C//DTD SVG 1.1//EN" "http://www.w3.org/Graphics/SVG/1.1/DTD/svg11.dtd">
<svg width="64pt" height="64pt" viewBox="0 0 64 64" version="1.1" xmlns="http://www.w3.org/2000/svg">
<g id="#f79a1cff">
<path fill="#f79a1c" opacity="1.00" d=" M 13.91 10.87 C 23.12 2.69 37.86 1.98 47.87 9.13 C 51.77 11.90 55.00 15.62 57.12 19.91 C 59.34 25.24 60.44 31.18 59.29 36.91 C 57.63 46.79 50.13 55.42 40.56 58.39 C 33.88 60.74 26.51 59.87 20.06 57.19 C 22.47 57.19 24.72 56.28 26.46 54.64 C 27.45 58.27 31.40 57.84 34.37 57.61 C 41.01 57.09 47.25 53.57 51.40 48.40 C 54.50 44.52 55.48 39.51 56.53 34.78 C 57.82 29.58 56.49 24.13 53.24 19.92 C 53.03 19.60 52.61 18.98 52.39 18.66 C 51.30 17.20 50.15 15.77 48.91 14.41 C 40.23 4.93 23.84 5.01 15.08 14.35 C 14.52 14.85 13.97 15.36 13.44 15.88 C 7.28 20.82 5.40 29.57 7.16 37.02 C 7.89 41.91 10.16 46.38 13.19 50.24 C 13.63 49.46 14.07 48.68 14.51 47.90 C 14.38 50.32 14.76 52.77 15.97 54.90 C 9.87 50.17 5.55 43.30 4.34 35.64 C 3.16 26.45 6.80 16.84 13.91 10.87 Z" />
</g>
<g id="#ffedc3ff">
<path fill="#ffedc3" opacity="1.00" d=" M 15.08 14.35 C 23.84 5.01 40.23 4.93 48.91 14.41 C 44.99 15.21 40.98 15.61 36.98 15.46 C 29.67 15.18 22.26 16.11 15.08 14.35 Z" />
</g>
<g id="#ffe092ff">
<path fill="#ffe092" opacity="1.00" d=" M 13.44 15.88 C 13.97 15.36 14.52 14.85 15.08 14.35 C 22.26 16.11 29.67 15.18 36.98 15.46 C 40.98 15.61 44.99 15.21 48.91 14.41 C 50.15 15.77 51.30 17.20 52.39 18.66 C 52.12 19.34 51.58 20.69 51.31 21.36 C 50.21 21.88 49.12 22.41 48.02 22.93 C 45.63 20.64 42.47 19.59 39.19 19.64 C 40.99 21.18 42.89 22.60 44.75 24.07 C 36.68 20.58 27.39 20.64 19.29 24.02 C 21.14 22.57 23.03 21.17 24.81 19.64 C 21.51 19.57 18.34 20.67 15.95 22.97 C 14.42 22.04 12.90 21.10 11.38 20.16 C 12.04 18.72 12.72 17.29 13.44 15.88 Z" />
</g>
<g id="#ffcb29ff">
<path fill="#ffcb29" opacity="1.00" d=" M 7.16 37.02 C 5.40 29.57 7.28 20.82 13.44 15.88 C 12.72 17.29 12.04 18.72 11.38 20.16 C 11.18 20.61 10.79 21.49 10.59 21.94 C 9.39 25.53 6.44 30.22 9.12 33.68 C 12.96 34.28 16.90 34.08 20.72 34.87 C 20.28 35.80 19.83 36.71 19.40 37.64 C 17.84 41.09 16.32 44.57 14.51 47.90 C 14.07 48.68 13.63 49.46 13.19 50.24 C 10.16 46.38 7.89 41.91 7.16 37.02 Z" />
</g>
<g id="#ffd66bff">
<path fill="#ffd66b" opacity="1.00" d=" M 52.39 18.66 C 52.61 18.98 53.03 19.60 53.24 19.92 C 53.07 22.52 52.72 25.10 52.34 27.67 C 51.81 27.52 50.76 27.22 50.23 27.08 C 49.59 25.65 48.84 24.26 48.02 22.93 C 49.12 22.41 50.21 21.88 51.31 21.36 C 51.58 20.69 52.12 19.34 52.39 18.66 Z" />
<path fill="#ffd66b" opacity="1.00" d=" M 10.59 21.94 C 10.79 21.49 11.18 20.61 11.38 20.16 C 12.90 21.10 14.42 22.04 15.95 22.97 C 15.15 24.27 14.42 25.62 13.79 27.01 C 13.29 27.18 12.30 27.51 11.81 27.68 C 11.40 25.76 11.00 23.85 10.59 21.94 Z" />
</g>
<g id="#7d5213ff">
<path fill="#7d5213" opacity="1.00" d=" M 15.95 22.97 C 18.34 20.67 21.51 19.57 24.81 19.64 C 23.03 21.17 21.14 22.57 19.29 24.02 C 18.00 25.02 16.89 26.21 15.74 27.36 C 15.00 28.12 14.26 28.86 13.52 29.61 C 13.59 28.96 13.72 27.66 13.79 27.01 C 14.42 25.62 15.15 24.27 15.95 22.97 Z" />
<path fill="#7d5213" opacity="1.00" d=" M 39.19 19.64 C 42.47 19.59 45.63 20.64 48.02 22.93 C 48.84 24.26 49.59 25.65 50.23 27.08 C 50.29 27.71 50.42 28.97 50.48 29.61 C 49.73 28.87 48.99 28.12 48.25 27.37 C 47.12 26.23 46.02 25.05 44.75 24.07 C 42.89 22.60 40.99 21.18 39.19 19.64 Z" />
</g>
<g id="#ffc93bff">
<path fill="#ffc93b" opacity="1.00" d=" M 53.24 19.92 C 56.49 24.13 57.82 29.58 56.53 34.78 C 51.84 34.32 47.12 34.09 42.42 34.49 C 42.53 32.46 42.85 30.42 42.62 28.38 L 42.51 26.46 C 44.42 26.78 46.33 27.08 48.25 27.37 C 48.99 28.12 49.73 28.87 50.48 29.61 C 50.42 28.97 50.29 27.71 50.23 27.08 C 50.76 27.22 51.81 27.52 52.34 27.67 C 52.72 25.10 53.07 22.52 53.24 19.92 Z" />
</g>
<g id="#2112035a">
<path fill="#211203" opacity="0.35" d=" M 57.12 19.91 C 64.65 33.18 58.65 52.31 44.71 58.71 C 38.54 62.37 31.04 62.11 24.22 60.85 C 21.44 60.20 18.36 59.77 16.31 57.58 C 10.05 51.93 3.73 44.66 4.34 35.64 C 5.55 43.30 9.87 50.17 15.97 54.90 C 17.17 55.92 18.61 56.61 20.06 57.19 C 26.51 59.87 33.88 60.74 40.56 58.39 C 50.13 55.42 57.63 46.79 59.29 36.91 C 60.44 31.18 59.34 25.24 57.12 19.91 Z" />
</g>
<g id="#ffc93cff">
<path fill="#ffc93c" opacity="1.00" d=" M 9.12 33.68 C 6.44 30.22 9.39 25.53 10.59 21.94 C 11.00 23.85 11.40 25.76 11.81 27.68 C 12.30 27.51 13.29 27.18 13.79 27.01 C 13.72 27.66 13.59 28.96 13.52 29.61 C 14.26 28.86 15.00 28.12 15.74 27.36 C 17.99 26.90 20.22 26.40 22.49 26.04 C 22.33 26.54 22.00 27.54 21.84 28.05 C 20.52 30.51 21.61 33.01 22.77 35.28 L 21.43 35.03 L 20.72 34.87 C 16.90 34.08 12.96 34.28 9.12 33.68 Z" />
</g>
<g id="#ffd664ff">
<path fill="#ffd664" opacity="1.00" d=" M 19.29 24.02 C 27.39 20.64 36.68 20.58 44.75 24.07 C 46.02 25.05 47.12 26.23 48.25 27.37 C 46.33 27.08 44.42 26.78 42.51 26.46 C 40.96 26.20 39.42 25.95 37.86 25.79 C 33.93 25.57 29.98 25.61 26.05 25.74 C 25.16 25.81 23.38 25.96 22.49 26.04 C 20.22 26.40 17.99 26.90 15.74 27.36 C 16.89 26.21 18.00 25.02 19.29 24.02 Z" />
</g>
<g id="#7e4e0bff">
<path fill="#7e4e0b" opacity="1.00" d=" M 22.49 26.04 C 23.38 25.96 25.16 25.81 26.05 25.74 C 26.76 27.88 27.28 30.10 27.11 32.38 C 26.31 30.92 25.46 29.50 24.60 28.07 C 23.52 28.70 22.44 29.32 21.36 29.94 C 21.48 29.47 21.72 28.52 21.84 28.05 C 22.00 27.54 22.33 26.54 22.49 26.04 Z" />
</g>
<g id="#ffcb3dff">
<path fill="#ffcb3d" opacity="1.00" d=" M 26.05 25.74 C 29.98 25.61 33.93 25.57 37.86 25.79 C 37.21 27.94 36.74 30.16 36.89 32.42 C 36.89 32.89 36.91 33.82 36.92 34.29 C 33.64 34.11 30.36 34.05 27.08 34.05 C 27.09 33.63 27.11 32.80 27.11 32.38 C 27.28 30.10 26.76 27.88 26.05 25.74 Z" />
</g>
<g id="#82530dff">
<path fill="#82530d" opacity="1.00" d=" M 37.86 25.79 C 39.42 25.95 40.96 26.20 42.51 26.46 L 42.62 28.38 C 42.37 28.64 41.87 29.17 41.62 29.43 C 40.81 29.20 40.05 28.84 39.34 28.35 C 38.51 29.70 37.67 31.04 36.89 32.42 C 36.74 30.16 37.21 27.94 37.86 25.79 Z" />
</g>
<g id="#a86b13ff">
<path fill="#a86b13" opacity="1.00" d=" M 22.77 35.28 C 21.61 33.01 20.52 30.51 21.84 28.05 C 21.72 28.52 21.48 29.47 21.36 29.94 C 22.44 29.32 23.52 28.70 24.60 28.07 C 25.46 29.50 26.31 30.92 27.11 32.38 C 27.11 32.80 27.09 33.63 27.08 34.05 C 25.67 34.54 24.23 34.94 22.77 35.28 Z" />
<path fill="#a86b13" opacity="1.00" d=" M 36.89 32.42 C 37.67 31.04 38.51 29.70 39.34 28.35 C 40.05 28.84 40.81 29.20 41.62 29.43 C 41.87 29.17 42.37 28.64 42.62 28.38 C 42.85 30.42 42.53 32.46 42.42 34.49 C 40.59 34.60 38.74 34.56 36.92 34.29 C 36.91 33.82 36.89 32.89 36.89 32.42 Z" />
</g>
<g id="#ffd72aff">
<path fill="#ffd72a" opacity="1.00" d=" M 22.77 35.28 C 24.23 34.94 25.67 34.54 27.08 34.05 C 30.36 34.05 33.64 34.11 36.92 34.29 C 38.74 34.56 40.59 34.60 42.42 34.49 C 47.12 34.09 51.84 34.32 56.53 34.78 C 55.48 39.51 54.50 44.52 51.40 48.40 C 47.25 53.57 41.01 57.09 34.37 57.61 C 31.40 57.84 27.45 58.27 26.46 54.64 L 27.01 53.08 C 27.49 51.66 27.89 50.22 28.35 48.79 C 31.01 48.92 33.68 49.05 36.31 49.50 C 37.68 50.03 39.02 50.62 40.39 51.16 C 38.81 48.66 37.26 45.74 34.28 44.69 C 31.65 43.34 28.95 45.12 26.50 45.99 C 25.26 43.13 23.95 40.30 22.67 37.45 C 22.28 36.63 21.87 35.82 21.43 35.03 L 22.77 35.28 Z" />
</g>
<g id="#486883ff">
<path fill="#486883" opacity="1.00" d=" M 19.40 37.64 C 19.83 36.71 20.28 35.80 20.72 34.87 L 21.43 35.03 C 21.87 35.82 22.28 36.63 22.67 37.45 C 21.58 37.51 20.49 37.58 19.40 37.64 Z" />
</g>
<g id="#2584c1fd">
<path fill="#2584c1" opacity="1.00" d=" M 19.40 37.64 C 20.49 37.58 21.58 37.51 22.67 37.45 C 23.95 40.30 25.26 43.13 26.50 45.99 C 27.42 48.25 27.68 50.72 27.01 53.08 L 26.46 54.64 C 24.72 56.28 22.47 57.19 20.06 57.19 C 18.61 56.61 17.17 55.92 15.97 54.90 C 14.76 52.77 14.38 50.32 14.51 47.90 C 16.32 44.57 17.84 41.09 19.40 37.64 M 18.41 44.12 C 18.16 44.60 17.65 45.56 17.40 46.04 C 16.98 48.15 16.57 50.25 16.16 52.36 C 17.98 54.40 20.91 57.07 23.57 54.64 C 26.66 52.66 25.48 48.73 24.37 45.96 C 24.38 45.52 24.40 44.66 24.41 44.22 L 23.75 44.19 C 23.03 42.49 22.36 40.77 21.49 39.14 C 19.37 39.51 19.46 42.60 18.41 44.12 Z" />
</g>
<g id="#c7e9fcff">
<path fill="#c7e9fc" opacity="1.00" d=" M 18.41 44.12 C 19.46 42.60 19.37 39.51 21.49 39.14 C 22.36 40.77 23.03 42.49 23.75 44.19 C 21.97 44.11 20.19 44.03 18.41 44.12 Z" />
</g>
<g id="#bae6feff">
<path fill="#bae6fe" opacity="1.00" d=" M 18.41 44.12 C 20.19 44.03 21.97 44.11 23.75 44.19 L 24.41 44.22 C 24.40 44.66 24.38 45.52 24.37 45.96 C 24.10 48.75 22.58 51.13 20.93 53.30 C 19.53 51.00 18.26 48.60 17.40 46.04 C 17.65 45.56 18.16 44.60 18.41 44.12 Z" />
</g>
<g id="#84621bff">
<path fill="#84621b" opacity="1.00" d=" M 26.50 45.99 C 28.95 45.12 31.65 43.34 34.28 44.69 C 37.26 45.74 38.81 48.66 40.39 51.16 C 39.02 50.62 37.68 50.03 36.31 49.50 C 35.33 45.87 29.36 44.63 28.35 48.79 C 27.89 50.22 27.49 51.66 27.01 53.08 C 27.68 50.72 27.42 48.25 26.50 45.99 Z" />
</g>
<g id="#a0dcfcff">
<path fill="#a0dcfc" opacity="1.00" d=" M 16.16 52.36 C 16.57 50.25 16.98 48.15 17.40 46.04 C 18.26 48.60 19.53 51.00 20.93 53.30 C 22.58 51.13 24.10 48.75 24.37 45.96 C 25.48 48.73 26.66 52.66 23.57 54.64 C 20.91 57.07 17.98 54.40 16.16 52.36 Z" />
</g>
<g id="#9b6412ff">
<path fill="#9b6412" opacity="1.00" d=" M 28.35 48.79 C 29.36 44.63 35.33 45.87 36.31 49.50 C 33.68 49.05 31.01 48.92 28.35 48.79 Z" />
</g>
</svg>
