<?xml version="1.0" encoding="UTF-8" ?>
<!DOCTYPE svg PUBLIC "-//W3C//DTD SVG 1.1//EN" "http://www.w3.org/Graphics/SVG/1.1/DTD/svg11.dtd">
<svg width="64pt" height="64pt" viewBox="0 0 64 64" version="1.1" xmlns="http://www.w3.org/2000/svg">
<g id="#f7991bff">
<path fill="#f7991b" opacity="1.00" d=" M 6.68 20.46 C 10.59 11.73 19.30 5.33 28.84 4.37 C 38.12 3.20 47.79 7.18 53.61 14.49 C 59.24 21.21 61.03 30.59 59.07 39.05 C 56.82 46.49 51.82 53.19 44.80 56.71 C 35.88 61.45 24.38 60.72 16.14 54.87 C 10.66 51.17 6.93 45.39 4.95 39.15 C 3.61 32.95 3.91 26.24 6.68 20.46 M 14.32 15.10 C 13.66 16.05 12.98 16.99 12.39 17.99 C 9.48 19.49 8.23 22.78 7.42 25.76 C 5.07 34.86 8.27 45.17 14.94 51.74 L 15.39 51.65 C 20.50 55.31 26.55 58.22 33.00 57.63 C 39.10 57.83 44.31 54.33 49.39 51.47 C 51.90 48.51 54.43 45.41 55.54 41.62 C 56.95 36.49 58.47 30.96 56.56 25.75 C 55.77 22.79 54.55 19.47 51.63 18.01 C 51.06 17.04 50.37 16.15 49.74 15.22 C 45.23 10.28 38.73 7.14 31.98 7.34 C 25.27 7.14 18.87 10.28 14.32 15.10 Z" />
</g>
<g id="#ffeec9ff">
<path fill="#ffeec9" opacity="1.00" d=" M 14.32 15.10 C 18.87 10.28 25.27 7.14 31.98 7.34 C 38.73 7.14 45.23 10.28 49.74 15.22 C 49.10 16.21 48.46 17.20 47.81 18.19 C 42.09 18.71 37.65 14.01 31.98 14.37 C 26.35 14.03 21.90 18.65 16.22 18.24 C 15.58 17.19 14.95 16.15 14.32 15.10 M 27.91 9.03 C 24.02 12.01 19.53 14.02 14.78 15.21 C 15.29 15.57 16.31 16.27 16.83 16.63 C 21.33 17.15 27.92 14.14 27.91 9.03 M 35.78 9.05 C 36.56 14.52 44.71 19.06 49.22 15.22 C 44.35 14.08 39.95 11.75 35.78 9.05 Z" />
</g>
<g id="#7b5622ff">
<path fill="#7b5622" opacity="1.00" d=" M 27.91 9.03 C 27.92 14.14 21.33 17.15 16.83 16.63 C 16.31 16.27 15.29 15.57 14.78 15.21 C 19.53 14.02 24.02 12.01 27.91 9.03 Z" />
<path fill="#7b5622" opacity="1.00" d=" M 35.78 9.05 C 39.95 11.75 44.35 14.08 49.22 15.22 C 44.71 19.06 36.56 14.52 35.78 9.05 Z" />
</g>
<g id="#ffe092ff">
<path fill="#ffe092" opacity="1.00" d=" M 16.22 18.24 C 21.90 18.65 26.35 14.03 31.98 14.37 C 37.65 14.01 42.09 18.71 47.81 18.19 C 48.46 17.20 49.10 16.21 49.74 15.22 C 50.37 16.15 51.06 17.04 51.63 18.01 C 51.86 18.57 52.32 19.68 52.55 20.24 C 49.49 21.69 46.32 22.86 43.12 23.95 C 44.95 22.39 46.81 20.85 48.60 19.23 C 46.45 19.83 44.31 20.43 42.18 21.09 C 35.39 20.42 28.58 20.39 21.78 21.07 C 19.67 20.42 17.54 19.84 15.42 19.22 C 17.39 21.01 19.48 22.68 21.43 24.50 C 18.01 23.37 14.61 22.14 11.38 20.52 C 11.63 19.89 12.14 18.62 12.39 17.99 C 12.98 16.99 13.66 16.05 14.32 15.10 C 14.95 16.15 15.58 17.19 16.22 18.24 Z" />
</g>
<g id="#ffcb3bff">
<path fill="#ffcb3b" opacity="1.00" d=" M 7.42 25.76 C 8.23 22.78 9.48 19.49 12.39 17.99 C 12.14 18.62 11.63 19.89 11.38 20.52 C 11.00 22.85 9.55 26.20 12.28 27.59 C 15.96 27.80 19.60 27.07 23.23 26.55 C 20.57 28.59 17.90 30.63 15.31 32.76 C 15.73 32.75 16.57 32.72 16.99 32.70 C 21.27 32.95 25.92 31.06 28.12 27.24 C 28.37 26.82 28.87 25.97 29.12 25.54 C 31.04 25.54 32.96 25.54 34.88 25.54 C 35.13 25.97 35.63 26.82 35.88 27.24 C 38.10 30.97 42.68 33.06 46.95 32.74 C 47.36 32.72 48.19 32.68 48.60 32.65 C 46.18 30.79 43.76 28.91 41.54 26.80 C 45.32 27.31 49.13 27.50 52.94 27.67 C 53.10 25.19 53.20 22.67 52.55 20.24 C 52.32 19.68 51.86 18.57 51.63 18.01 C 54.55 19.47 55.77 22.79 56.56 25.75 C 56.31 28.74 55.86 31.71 55.42 34.68 C 49.12 34.75 42.82 34.23 36.51 34.48 C 34.11 34.33 31.71 34.18 29.30 34.25 C 22.37 34.09 15.46 34.92 8.54 34.62 C 8.09 31.68 7.65 28.73 7.42 25.76 Z" />
</g>
<g id="#ffd35dff">
<path fill="#ffd35d" opacity="1.00" d=" M 12.28 27.59 C 9.55 26.20 11.00 22.85 11.38 20.52 C 14.61 22.14 18.01 23.37 21.43 24.50 C 22.10 25.12 22.62 25.88 23.23 26.55 C 19.60 27.07 15.96 27.80 12.28 27.59 Z" />
</g>
<g id="#9a6212ff">
<path fill="#9a6212" opacity="1.00" d=" M 15.42 19.22 C 17.54 19.84 19.67 20.42 21.78 21.07 C 24.35 22.36 26.75 23.93 29.12 25.54 C 28.87 25.97 28.37 26.82 28.12 27.24 C 24.54 29.31 20.91 31.33 16.99 32.70 C 16.57 32.72 15.73 32.75 15.31 32.76 C 17.90 30.63 20.57 28.59 23.23 26.55 C 22.62 25.88 22.10 25.12 21.43 24.50 C 19.48 22.68 17.39 21.01 15.42 19.22 Z" />
<path fill="#9a6212" opacity="1.00" d=" M 42.18 21.09 C 44.31 20.43 46.45 19.83 48.60 19.23 C 46.81 20.85 44.95 22.39 43.12 23.95 C 42.31 24.63 41.52 25.33 40.78 26.08 C 40.97 26.26 41.35 26.62 41.54 26.80 C 43.76 28.91 46.18 30.79 48.60 32.65 C 48.19 32.68 47.36 32.72 46.95 32.74 C 43.11 31.22 39.43 29.34 35.88 27.24 C 35.63 26.82 35.13 25.97 34.88 25.54 C 37.24 23.94 39.63 22.37 42.18 21.09 Z" />
</g>
<g id="#ffd563ff">
<path fill="#ffd563" opacity="1.00" d=" M 52.55 20.24 C 53.20 22.67 53.10 25.19 52.94 27.67 C 49.13 27.50 45.32 27.31 41.54 26.80 C 41.35 26.62 40.97 26.26 40.78 26.08 C 41.52 25.33 42.31 24.63 43.12 23.95 C 46.32 22.86 49.49 21.69 52.55 20.24 Z" />
</g>
<g id="#ffd873ff">
<path fill="#ffd873" opacity="1.00" d=" M 21.78 21.07 C 28.58 20.39 35.39 20.42 42.18 21.09 C 39.63 22.37 37.24 23.94 34.88 25.54 C 32.96 25.54 31.04 25.54 29.12 25.54 C 26.75 23.93 24.35 22.36 21.78 21.07 Z" />
</g>
<g id="#ffcd29ff">
<path fill="#ffcd29" opacity="1.00" d=" M 14.94 51.74 C 8.27 45.17 5.07 34.86 7.42 25.76 C 7.65 28.73 8.09 31.68 8.54 34.62 C 15.46 34.92 22.37 34.09 29.30 34.25 C 21.86 35.74 15.57 42.04 15.32 49.85 C 15.67 50.04 16.39 50.43 16.74 50.62 L 17.94 51.22 C 17.30 51.32 16.03 51.54 15.39 51.65 L 14.94 51.74 Z" />
</g>
<g id="#ffcb29ff">
<path fill="#ffcb29" opacity="1.00" d=" M 56.56 25.75 C 58.47 30.96 56.95 36.49 55.54 41.62 C 54.43 45.41 51.90 48.51 49.39 51.47 L 49.23 50.64 C 49.02 43.08 43.63 36.66 36.51 34.48 C 42.82 34.23 49.12 34.75 55.42 34.68 C 55.86 31.71 56.31 28.74 56.56 25.75 Z" />
</g>
<g id="#efdc5aff">
<path fill="#efdc5a" opacity="1.00" d=" M 16.99 32.70 C 20.91 31.33 24.54 29.31 28.12 27.24 C 25.92 31.06 21.27 32.95 16.99 32.70 Z" />
<path fill="#efdc5a" opacity="1.00" d=" M 35.88 27.24 C 39.43 29.34 43.11 31.22 46.95 32.74 C 42.68 33.06 38.10 30.97 35.88 27.24 Z" />
</g>
<g id="#85480dff">
<path fill="#85480d" opacity="1.00" d=" M 29.30 34.25 C 31.71 34.18 34.11 34.33 36.51 34.48 C 43.63 36.66 49.02 43.08 49.23 50.64 C 48.49 50.49 47.02 50.19 46.29 50.04 C 46.65 49.47 47.38 48.32 47.74 47.75 C 46.78 46.21 45.95 44.56 44.67 43.26 C 41.87 42.32 38.90 42.11 36.00 41.73 C 30.54 40.94 25.17 42.60 19.74 42.72 C 17.94 45.01 17.13 47.79 16.74 50.62 C 16.39 50.43 15.67 50.04 15.32 49.85 C 15.57 42.04 21.86 35.74 29.30 34.25 M 21.13 40.59 C 21.35 40.52 21.79 40.38 22.01 40.30 C 25.20 41.83 28.66 40.25 31.99 40.31 C 35.72 40.03 39.63 42.07 43.12 39.94 C 40.46 38.60 37.79 37.14 34.82 36.59 C 29.87 35.64 25.10 37.83 21.13 40.59 Z" />
</g>
<g id="#eeeeeeff">
<path fill="#eeeeee" opacity="1.00" d=" M 21.13 40.59 C 25.10 37.83 29.87 35.64 34.82 36.59 C 37.79 37.14 40.46 38.60 43.12 39.94 C 36.21 38.28 28.76 37.63 22.01 40.30 C 21.79 40.38 21.35 40.52 21.13 40.59 Z" />
</g>
<g id="#463210ff">
<path fill="#463210" opacity="1.00" d=" M 22.01 40.30 C 28.76 37.63 36.21 38.28 43.12 39.94 C 39.63 42.07 35.72 40.03 31.99 40.31 C 28.66 40.25 25.20 41.83 22.01 40.30 Z" />
</g>
<g id="#0000003d">
<path fill="#000000" opacity="0.24" d=" M 4.95 39.15 C 6.93 45.39 10.66 51.17 16.14 54.87 C 24.38 60.72 35.88 61.45 44.80 56.71 C 51.82 53.19 56.82 46.49 59.07 39.05 C 60.14 41.41 58.91 43.85 57.97 46.01 C 54.32 53.30 47.83 59.35 39.91 61.65 C 31.49 63.92 21.95 62.52 15.02 57.03 C 10.27 53.11 6.09 48.03 4.57 41.95 C 4.67 41.25 4.86 39.85 4.95 39.15 Z" />
</g>
<g id="#c37e17ff">
<path fill="#c37e17" opacity="1.00" d=" M 19.74 42.72 C 25.17 42.60 30.54 40.94 36.00 41.73 C 38.90 42.11 41.87 42.32 44.67 43.26 C 45.95 44.56 46.78 46.21 47.74 47.75 C 47.38 48.32 46.65 49.47 46.29 50.04 C 36.57 47.94 26.32 47.65 16.74 50.62 C 17.13 47.79 17.94 45.01 19.74 42.72 Z" />
</g>
<g id="#f7ea45ff">
<path fill="#f7ea45" opacity="1.00" d=" M 16.74 50.62 C 26.32 47.65 36.57 47.94 46.29 50.04 C 47.02 50.19 48.49 50.49 49.23 50.64 L 49.39 51.47 C 38.99 49.79 28.35 49.16 17.94 51.22 L 16.74 50.62 Z" />
</g>
<g id="#ffdf2dff">
<path fill="#ffdf2d" opacity="1.00" d=" M 17.94 51.22 C 28.35 49.16 38.99 49.79 49.39 51.47 C 44.31 54.33 39.10 57.83 33.00 57.63 C 26.55 58.22 20.50 55.31 15.39 51.65 C 16.03 51.54 17.30 51.32 17.94 51.22 Z" />
</g>
</svg>
