<?xml version="1.0" encoding="UTF-8" ?>
<!DOCTYPE svg PUBLIC "-//W3C//DTD SVG 1.1//EN" "http://www.w3.org/Graphics/SVG/1.1/DTD/svg11.dtd">
<svg width="64pt" height="64pt" viewBox="0 0 64 64" version="1.1" xmlns="http://www.w3.org/2000/svg">
<g id="#f7971bff">
<path fill="#f7971b" opacity="1.00" d=" M 21.51 6.25 C 31.33 2.09 43.52 4.34 51.14 11.84 C 55.82 16.21 58.90 22.28 59.64 28.64 C 60.69 37.49 57.33 46.77 50.61 52.67 C 44.35 58.48 35.31 60.92 26.94 59.40 C 12.87 57.08 2.35 42.76 4.36 28.62 C 5.46 18.80 12.31 9.88 21.51 6.25 M 17.45 12.39 L 17.03 12.35 C 15.66 13.52 14.47 14.90 13.59 16.48 L 12.92 16.35 C 12.78 16.81 12.48 17.72 12.34 18.18 C 9.97 18.30 9.57 20.97 8.62 22.66 C 7.66 25.64 6.08 28.79 6.69 31.96 C 6.89 37.90 8.46 44.04 12.27 48.73 C 16.90 54.82 24.53 57.92 32.03 58.27 C 39.75 57.96 47.45 54.43 52.14 48.19 C 55.69 43.53 56.83 37.59 57.49 31.90 C 57.44 27.25 55.74 22.63 53.28 18.71 C 52.88 18.58 52.08 18.31 51.68 18.18 C 51.57 17.82 51.35 17.10 51.24 16.74 C 51.06 16.68 50.72 16.57 50.54 16.51 C 49.52 14.98 48.36 13.53 46.96 12.34 L 46.53 12.37 C 38.50 5.57 25.48 5.59 17.45 12.39 Z" />
</g>
<g id="#ffeec9ff">
<path fill="#ffeec9" opacity="1.00" d=" M 17.45 12.39 C 25.48 5.59 38.50 5.57 46.53 12.37 C 39.77 13.76 32.86 13.10 26.01 13.29 C 23.13 13.34 20.28 12.83 17.45 12.39 Z" />
</g>
<g id="#ffe6a9ff">
<path fill="#ffe6a9" opacity="1.00" d=" M 17.03 12.35 L 17.45 12.39 C 20.28 12.83 23.13 13.34 26.01 13.29 C 32.86 13.10 39.77 13.76 46.53 12.37 L 46.96 12.34 C 48.36 13.53 49.52 14.98 50.54 16.51 C 44.14 18.09 37.52 17.14 31.01 17.35 C 25.20 17.18 19.27 18.06 13.59 16.48 C 14.47 14.90 15.66 13.52 17.03 12.35 Z" />
</g>
<g id="#ffde8aff">
<path fill="#ffde8a" opacity="1.00" d=" M 12.92 16.35 L 13.59 16.48 C 19.27 18.06 25.20 17.18 31.01 17.35 C 37.52 17.14 44.14 18.09 50.54 16.51 C 50.72 16.57 51.06 16.68 51.24 16.74 C 51.35 17.10 51.57 17.82 51.68 18.18 C 52.25 20.08 52.67 22.03 52.93 24.00 C 48.32 23.74 44.72 20.52 40.73 18.86 C 40.89 21.97 44.04 23.59 46.36 25.09 C 43.39 24.90 41.38 22.60 38.81 21.49 C 34.88 21.07 30.91 21.23 26.96 21.31 C 23.41 21.21 21.26 24.89 17.70 25.06 C 20.00 23.56 23.16 21.95 23.26 18.85 C 19.27 20.52 15.67 23.72 11.05 24.00 C 11.31 22.03 11.77 20.09 12.34 18.18 C 12.48 17.72 12.78 16.81 12.92 16.35 Z" />
</g>
<g id="#ffcb3bff">
<path fill="#ffcb3b" opacity="1.00" d=" M 8.62 22.66 C 9.57 20.97 9.97 18.30 12.34 18.18 C 11.77 20.09 11.31 22.03 11.05 24.00 C 11.01 24.37 10.93 25.09 10.89 25.46 L 10.87 26.77 C 13.32 28.41 16.38 27.07 19.02 26.74 C 28.21 24.92 37.80 25.10 46.94 27.11 C 48.98 27.45 51.26 28.03 53.16 26.84 L 53.11 25.46 C 53.07 25.09 52.98 24.37 52.93 24.00 C 52.67 22.03 52.25 20.08 51.68 18.18 C 52.08 18.31 52.88 18.58 53.28 18.71 C 55.74 22.63 57.44 27.25 57.49 31.90 C 56.13 32.98 55.04 34.87 53.08 34.75 C 49.11 34.97 45.13 34.78 41.16 35.00 L 41.03 34.19 C 43.61 31.88 46.99 30.54 49.15 27.78 C 44.06 29.01 38.86 31.26 34.93 34.80 C 32.96 34.67 30.98 34.64 29.01 34.72 C 25.05 31.24 19.90 29.00 14.83 27.77 C 17.00 30.53 20.39 31.88 22.97 34.21 L 22.84 35.04 C 18.88 34.81 14.91 35.01 10.95 34.77 C 9.04 34.87 8.00 33.02 6.69 31.96 C 6.08 28.79 7.66 25.64 8.62 22.66 Z" />
</g>
<g id="#815716ff">
<path fill="#815716" opacity="1.00" d=" M 11.05 24.00 C 15.67 23.72 19.27 20.52 23.26 18.85 C 23.16 21.95 20.00 23.56 17.70 25.06 C 15.50 25.69 13.11 26.47 10.89 25.46 C 10.93 25.09 11.01 24.37 11.05 24.00 Z" />
</g>
<g id="#7e5514ff">
<path fill="#7e5514" opacity="1.00" d=" M 40.73 18.86 C 44.72 20.52 48.32 23.74 52.93 24.00 C 52.98 24.37 53.07 25.09 53.11 25.46 C 50.90 26.41 48.55 25.69 46.36 25.09 C 44.04 23.59 40.89 21.97 40.73 18.86 Z" />
</g>
<g id="#ffd66bff">
<path fill="#ffd66b" opacity="1.00" d=" M 17.70 25.06 C 21.26 24.89 23.41 21.21 26.96 21.31 C 30.91 21.23 34.88 21.07 38.81 21.49 C 41.38 22.60 43.39 24.90 46.36 25.09 C 48.55 25.69 50.90 26.41 53.11 25.46 L 53.16 26.84 C 51.26 28.03 48.98 27.45 46.94 27.11 C 37.80 25.10 28.21 24.92 19.02 26.74 C 16.38 27.07 13.32 28.41 10.87 26.77 L 10.89 25.46 C 13.11 26.47 15.50 25.69 17.70 25.06 Z" />
</g>
<g id="#865c11ff">
<path fill="#865c11" opacity="1.00" d=" M 14.83 27.77 C 19.90 29.00 25.05 31.24 29.01 34.72 C 28.79 35.09 28.33 35.83 28.11 36.21 C 26.47 35.37 24.77 34.63 22.97 34.21 C 20.39 31.88 17.00 30.53 14.83 27.77 Z" />
<path fill="#865c11" opacity="1.00" d=" M 34.93 34.80 C 38.86 31.26 44.06 29.01 49.15 27.78 C 46.99 30.54 43.61 31.88 41.03 34.19 C 39.25 34.63 37.55 35.35 35.91 36.18 C 35.67 35.84 35.18 35.14 34.93 34.80 Z" />
</g>
<g id="#0000003c">
<path fill="#000000" opacity="0.24" d=" M 3.48 33.95 C 3.65 32.18 3.14 30.12 4.36 28.62 C 2.35 42.76 12.87 57.08 26.94 59.40 C 35.31 60.92 44.35 58.48 50.61 52.67 C 57.33 46.77 60.69 37.49 59.64 28.64 C 63.74 41.94 54.06 56.46 41.57 61.19 C 32.99 63.86 22.89 63.08 15.61 57.47 C 8.37 52.04 2.89 43.24 3.48 33.95 Z" />
</g>
<g id="#ffcb29ff">
<path fill="#ffcb29" opacity="1.00" d=" M 6.69 31.96 C 8.00 33.02 9.04 34.87 10.95 34.77 C 14.91 35.01 18.88 34.81 22.84 35.04 C 22.77 35.44 22.63 36.24 22.55 36.64 C 20.73 38.62 18.80 40.51 16.86 42.38 C 16.62 42.33 16.14 42.23 15.90 42.18 C 14.70 44.06 13.53 46.69 15.29 48.63 C 19.32 53.52 25.66 56.41 32.00 56.23 C 36.93 56.38 41.52 54.13 45.59 51.56 C 47.61 50.28 49.17 48.30 49.89 46.01 C 49.07 44.98 48.12 44.07 47.19 43.15 C 45.76 40.58 43.34 38.82 41.44 36.63 C 41.37 36.23 41.23 35.41 41.16 35.00 C 45.13 34.78 49.11 34.97 53.08 34.75 C 55.04 34.87 56.13 32.98 57.49 31.90 C 56.83 37.59 55.69 43.53 52.14 48.19 C 47.45 54.43 39.75 57.96 32.03 58.27 C 24.53 57.92 16.90 54.82 12.27 48.73 C 8.46 44.04 6.89 37.90 6.69 31.96 Z" />
</g>
<g id="#a36812ff">
<path fill="#a36812" opacity="1.00" d=" M 22.97 34.21 C 24.77 34.63 26.47 35.37 28.11 36.21 C 27.05 37.33 25.77 38.21 24.48 39.05 C 23.83 38.25 23.19 37.44 22.55 36.64 C 22.63 36.24 22.77 35.44 22.84 35.04 L 22.97 34.21 Z" />
<path fill="#a36812" opacity="1.00" d=" M 35.91 36.18 C 37.55 35.35 39.25 34.63 41.03 34.19 L 41.16 35.00 C 41.23 35.41 41.37 36.23 41.44 36.63 C 40.83 37.46 40.22 38.28 39.60 39.10 C 38.29 38.25 36.95 37.37 35.91 36.18 Z" />
</g>
<g id="#ffdd2bff">
<path fill="#ffdd2b" opacity="1.00" d=" M 29.01 34.72 C 30.98 34.64 32.96 34.67 34.93 34.80 C 35.18 35.14 35.67 35.84 35.91 36.18 C 36.95 37.37 38.29 38.25 39.60 39.10 C 42.04 40.61 44.38 42.39 47.19 43.15 C 48.12 44.07 49.07 44.98 49.89 46.01 C 49.17 48.30 47.61 50.28 45.59 51.56 C 41.52 54.13 36.93 56.38 32.00 56.23 C 25.66 56.41 19.32 53.52 15.29 48.63 C 13.53 46.69 14.70 44.06 15.90 42.18 C 16.14 42.23 16.62 42.33 16.86 42.38 C 17.18 42.48 17.82 42.66 18.14 42.76 C 20.40 41.82 22.39 40.32 24.48 39.05 C 25.77 38.21 27.05 37.33 28.11 36.21 C 28.33 35.83 28.79 35.09 29.01 34.72 M 23.84 51.08 C 25.18 50.78 26.66 50.34 27.66 49.36 C 30.30 48.81 33.00 48.61 35.66 49.23 C 36.99 49.84 38.27 51.29 39.84 50.85 C 39.37 48.30 37.21 46.23 35.00 45.02 C 30.50 42.38 24.84 46.52 23.84 51.08 Z" />
</g>
<g id="#865c0fff">
<path fill="#865c0f" opacity="1.00" d=" M 22.55 36.64 C 23.19 37.44 23.83 38.25 24.48 39.05 C 22.39 40.32 20.40 41.82 18.14 42.76 C 17.82 42.66 17.18 42.48 16.86 42.38 C 18.80 40.51 20.73 38.62 22.55 36.64 Z" />
<path fill="#865c0f" opacity="1.00" d=" M 39.60 39.10 C 40.22 38.28 40.83 37.46 41.44 36.63 C 43.34 38.82 45.76 40.58 47.19 43.15 C 44.38 42.39 42.04 40.61 39.60 39.10 Z" />
</g>
<g id="#885e10ff">
<path fill="#885e10" opacity="1.00" d=" M 23.84 51.08 C 24.84 46.52 30.50 42.38 35.00 45.02 C 37.21 46.23 39.37 48.30 39.84 50.85 C 38.27 51.29 36.99 49.84 35.66 49.23 C 35.66 46.50 32.53 45.91 30.40 46.39 C 29.17 47.01 28.58 48.40 27.66 49.36 C 26.66 50.34 25.18 50.78 23.84 51.08 Z" />
</g>
<g id="#9c6512ff">
<path fill="#9c6512" opacity="1.00" d=" M 30.40 46.39 C 32.53 45.91 35.66 46.50 35.66 49.23 C 33.00 48.61 30.30 48.81 27.66 49.36 C 28.58 48.40 29.17 47.01 30.40 46.39 Z" />
</g>
</svg>
