<?xml version="1.0" encoding="UTF-8" ?>
<!DOCTYPE svg PUBLIC "-//W3C//DTD SVG 1.1//EN" "http://www.w3.org/Graphics/SVG/1.1/DTD/svg11.dtd">
<svg width="64pt" height="64pt" viewBox="0 0 64 64" version="1.1" xmlns="http://www.w3.org/2000/svg">
<g id="#f89e1dff">
<path fill="#f89e1d" opacity="1.00" d=" M 4.20 29.67 C 5.20 15.72 17.96 3.80 32.02 4.20 C 46.06 3.82 58.79 15.73 59.80 29.66 C 60.24 38.20 57.19 47.36 50.22 52.67 C 50.20 52.16 50.16 51.15 50.14 50.64 C 53.20 45.81 55.74 40.58 56.30 34.80 C 57.09 29.97 56.65 24.82 53.52 20.87 C 52.56 19.40 51.61 17.93 50.58 16.52 C 49.39 15.02 48.12 13.57 46.69 12.29 C 38.32 5.69 25.63 5.70 17.28 12.31 C 15.87 13.57 14.61 14.99 13.44 16.48 C 12.40 17.92 11.45 19.41 10.50 20.91 C 7.34 25.06 6.84 30.39 7.80 35.39 C 8.35 41.04 10.76 46.22 14.14 50.71 C 14.12 51.35 14.07 52.62 14.04 53.25 C 7.21 47.53 3.63 38.51 4.20 29.67 Z" />
<path fill="#f89e1d" opacity="1.00" d=" M 22.69 56.79 C 28.83 57.87 35.11 57.86 41.27 56.88 L 41.34 58.34 C 35.25 60.21 28.73 60.21 22.65 58.33 L 22.69 56.79 Z" />
</g>
<g id="#ffeec9ff">
<path fill="#ffeec9" opacity="1.00" d=" M 17.28 12.31 C 25.63 5.70 38.32 5.69 46.69 12.29 C 43.48 12.87 40.24 13.25 36.98 13.19 C 30.41 13.01 23.78 13.61 17.28 12.31 Z" />
</g>
<g id="#ffe6a9ff">
<path fill="#ffe6a9" opacity="1.00" d=" M 13.44 16.48 C 14.61 14.99 15.87 13.57 17.28 12.31 C 23.78 13.61 30.41 13.01 36.98 13.19 C 40.24 13.25 43.48 12.87 46.69 12.29 C 48.12 13.57 49.39 15.02 50.58 16.52 C 45.11 17.57 39.54 17.34 34.01 17.25 C 27.15 17.11 20.21 17.93 13.44 16.48 Z" />
</g>
<g id="#ffdf8aff">
<path fill="#ffdf8a" opacity="1.00" d=" M 10.50 20.91 C 11.45 19.41 12.40 17.92 13.44 16.48 C 20.21 17.93 27.15 17.11 34.01 17.25 C 39.54 17.34 45.11 17.57 50.58 16.52 C 51.61 17.93 52.56 19.40 53.52 20.87 C 52.87 21.77 52.22 22.66 51.58 23.56 C 49.16 21.05 45.94 19.48 42.39 19.75 C 44.12 21.15 45.96 22.41 47.74 23.76 C 37.37 21.87 26.59 21.97 16.22 23.78 C 18.01 22.43 19.86 21.16 21.60 19.75 C 18.05 19.47 14.84 21.05 12.42 23.56 C 11.78 22.68 11.14 21.80 10.50 20.91 Z" />
</g>
<g id="#694004ff">
<path fill="#694004" opacity="1.00" d=" M 12.42 23.56 C 14.84 21.05 18.05 19.47 21.60 19.75 C 19.86 21.16 18.01 22.43 16.22 23.78 C 14.73 25.12 13.42 26.63 12.06 28.10 C 11.59 28.42 10.65 29.07 10.17 29.39 C 10.86 27.43 11.53 25.45 12.42 23.56 Z" />
<path fill="#694004" opacity="1.00" d=" M 42.39 19.75 C 45.94 19.48 49.16 21.05 51.58 23.56 C 52.53 25.47 53.14 27.52 53.70 29.57 C 53.22 29.10 52.24 28.17 51.75 27.70 C 50.43 26.38 49.15 25.00 47.74 23.76 C 45.96 22.41 44.12 21.15 42.39 19.75 Z" />
<path fill="#694004" opacity="1.00" d=" M 29.43 38.54 C 34.04 36.20 39.25 41.32 37.92 46.06 C 38.68 51.25 32.17 55.49 28.04 51.82 C 24.65 48.38 24.46 40.74 29.43 38.54 M 26.80 44.35 C 27.05 44.20 27.55 43.90 27.80 43.75 C 30.27 44.27 32.80 44.31 35.31 44.25 C 35.90 43.88 36.48 43.51 37.07 43.14 C 35.59 41.35 33.81 38.83 31.13 39.46 C 28.66 39.82 27.38 42.16 26.80 44.35 M 27.08 46.35 C 27.13 48.67 27.44 51.40 30.02 52.22 C 33.71 54.32 37.22 49.93 36.90 46.41 C 33.62 46.40 30.35 46.39 27.08 46.35 Z" />
</g>
<g id="#ffc83bff">
<path fill="#ffc83b" opacity="1.00" d=" M 7.80 35.39 C 6.84 30.39 7.34 25.06 10.50 20.91 C 11.14 21.80 11.78 22.68 12.42 23.56 C 11.53 25.45 10.86 27.43 10.17 29.39 C 10.65 29.07 11.59 28.42 12.06 28.10 L 13.73 27.82 C 13.77 28.63 13.84 30.24 13.87 31.05 C 13.80 31.11 13.67 31.25 13.60 31.31 C 12.11 33.24 10.00 34.44 7.80 35.39 Z" />
<path fill="#ffc83b" opacity="1.00" d=" M 53.52 20.87 C 56.65 24.82 57.09 29.97 56.30 34.80 C 54.11 34.42 51.92 34.04 49.72 33.67 C 49.78 32.51 49.86 31.36 49.96 30.20 C 50.00 29.70 50.10 28.70 50.14 28.20 L 51.75 27.70 C 52.24 28.17 53.22 29.10 53.70 29.57 C 53.14 27.52 52.53 25.47 51.58 23.56 C 52.22 22.66 52.87 21.77 53.52 20.87 Z" />
</g>
<g id="#ffd664ff">
<path fill="#ffd664" opacity="1.00" d=" M 16.22 23.78 C 26.59 21.97 37.37 21.87 47.74 23.76 C 49.15 25.00 50.43 26.38 51.75 27.70 L 50.14 28.20 C 46.65 25.64 42.33 25.45 38.19 25.94 C 34.05 25.86 29.92 25.86 25.78 25.96 C 21.62 25.27 17.54 26.09 13.73 27.82 L 12.06 28.10 C 13.42 26.63 14.73 25.12 16.22 23.78 Z" />
</g>
<g id="#89560cff">
<path fill="#89560c" opacity="1.00" d=" M 13.73 27.82 C 17.54 26.09 21.62 25.27 25.78 25.96 C 27.11 27.33 28.33 28.80 29.56 30.26 C 25.21 29.73 20.80 29.03 16.44 29.84 C 16.24 30.18 15.84 30.87 15.64 31.22 C 13.51 36.74 15.10 42.92 14.58 48.72 C 14.54 50.78 14.82 52.87 15.84 54.69 C 15.23 54.23 14.62 53.75 14.04 53.25 C 14.07 52.62 14.12 51.35 14.14 50.71 C 14.55 44.16 14.75 37.57 13.87 31.05 C 13.84 30.24 13.77 28.63 13.73 27.82 Z" />
<path fill="#89560c" opacity="1.00" d=" M 38.19 25.94 C 42.33 25.45 46.65 25.64 50.14 28.20 C 50.10 28.70 50.00 29.70 49.96 30.20 C 49.50 30.13 48.59 29.99 48.14 29.92 L 47.16 29.78 C 42.92 28.78 38.63 29.46 34.45 30.39 C 35.65 28.86 36.86 27.35 38.19 25.94 Z" />
</g>
<g id="#ffcb3cff">
<path fill="#ffcb3c" opacity="1.00" d=" M 25.78 25.96 C 29.92 25.86 34.05 25.86 38.19 25.94 C 36.86 27.35 35.65 28.86 34.45 30.39 C 38.63 29.46 42.92 28.78 47.16 29.78 C 45.72 29.89 44.28 30.04 42.84 30.24 L 42.22 30.25 C 41.92 30.22 41.33 30.16 41.04 30.13 C 41.07 31.20 41.12 33.32 41.15 34.38 C 35.07 35.15 28.90 35.24 22.82 34.36 C 22.82 32.78 22.79 31.20 22.73 29.62 C 22.42 29.61 21.79 29.61 21.48 29.60 C 19.80 29.64 18.12 29.72 16.44 29.84 C 20.80 29.03 25.21 29.73 29.56 30.26 C 28.33 28.80 27.11 27.33 25.78 25.96 Z" />
</g>
<g id="#02010052">
<path fill="#020100" opacity="0.32" d=" M 11.95 54.05 C 5.77 47.84 1.92 38.40 4.20 29.67 C 3.63 38.51 7.21 47.53 14.04 53.25 C 14.62 53.75 15.23 54.23 15.84 54.69 C 17.91 56.08 20.20 57.07 22.45 58.13 C 22.51 57.52 22.65 56.30 22.72 55.69 L 22.69 56.79 L 22.65 58.33 C 28.73 60.21 35.25 60.21 41.34 58.34 L 41.27 56.88 L 41.23 55.93 C 41.31 56.45 41.47 57.49 41.56 58.01 C 43.93 57.07 46.24 56.00 48.52 54.85 C 49.51 54.54 49.91 53.56 50.22 52.67 C 57.19 47.36 60.24 38.20 59.80 29.66 C 62.13 38.83 57.92 48.85 51.01 54.98 C 46.00 59.94 38.85 61.83 32.01 62.45 C 24.68 61.93 17.13 59.50 11.95 54.05 Z" />
</g>
<g id="#96bae9ff">
<path fill="#96bae9" opacity="1.00" d=" M 15.64 31.22 C 15.84 30.87 16.24 30.18 16.44 29.84 C 18.12 29.72 19.80 29.64 21.48 29.60 C 21.75 38.05 21.36 46.49 20.32 54.88 C 19.08 54.17 17.83 53.45 16.59 52.74 C 16.52 51.67 16.45 50.59 16.37 49.51 C 16.18 43.41 16.41 37.29 15.64 31.22 Z" />
</g>
<g id="#678198fd">
<path fill="#678198" opacity="1.00" d=" M 21.48 29.60 C 21.79 29.61 22.42 29.61 22.73 29.62 C 22.79 31.20 22.82 32.78 22.82 34.36 C 22.71 41.47 22.95 48.58 22.72 55.69 C 22.65 56.30 22.51 57.52 22.45 58.13 C 20.20 57.07 17.91 56.08 15.84 54.69 C 14.82 52.87 14.54 50.78 14.58 48.72 L 16.37 49.51 C 16.45 50.59 16.52 51.67 16.59 52.74 C 17.83 53.45 19.08 54.17 20.32 54.88 C 21.36 46.49 21.75 38.05 21.48 29.60 Z" />
</g>
<g id="#67797ffc">
<path fill="#67797f" opacity="1.00" d=" M 41.04 30.13 C 41.33 30.16 41.92 30.22 42.22 30.25 C 41.65 35.83 42.35 41.42 42.35 47.00 C 42.48 49.62 42.18 52.38 43.26 54.85 C 46.34 55.26 47.71 52.50 48.47 50.02 L 49.03 48.49 C 48.92 50.62 48.76 52.74 48.52 54.85 C 46.24 56.00 43.93 57.07 41.56 58.01 C 41.47 57.49 41.31 56.45 41.23 55.93 C 40.97 48.75 41.30 41.56 41.15 34.38 C 41.12 33.32 41.07 31.20 41.04 30.13 Z" />
</g>
<g id="#83a6d3ff">
<path fill="#83a6d3" opacity="1.00" d=" M 42.22 30.25 L 42.84 30.24 C 43.63 36.67 42.47 43.60 45.61 49.55 C 46.68 46.04 47.48 42.43 47.73 38.76 C 47.74 42.52 48.11 46.27 48.47 50.02 C 47.71 52.50 46.34 55.26 43.26 54.85 C 42.18 52.38 42.48 49.62 42.35 47.00 C 42.35 41.42 41.65 35.83 42.22 30.25 Z" />
</g>
<g id="#9bc1f2ff">
<path fill="#9bc1f2" opacity="1.00" d=" M 42.84 30.24 C 44.28 30.04 45.72 29.89 47.16 29.78 L 48.14 29.92 L 48.36 30.19 C 48.03 33.04 47.81 35.90 47.73 38.76 C 47.48 42.43 46.68 46.04 45.61 49.55 C 42.47 43.60 43.63 36.67 42.84 30.24 Z" />
</g>
<g id="#998b53f3">
<path fill="#998b53" opacity="0.95" d=" M 48.14 29.92 C 48.59 29.99 49.50 30.13 49.96 30.20 C 49.86 31.36 49.78 32.51 49.72 33.67 C 49.56 39.33 49.59 45.00 50.14 50.64 C 50.16 51.15 50.20 52.16 50.22 52.67 C 49.91 53.56 49.51 54.54 48.52 54.85 C 48.76 52.74 48.92 50.62 49.03 48.49 C 48.99 42.42 50.13 36.11 48.36 30.19 L 48.14 29.92 Z" />
</g>
<g id="#ffcb29ff">
<path fill="#ffcb29" opacity="1.00" d=" M 13.60 31.31 C 13.67 31.25 13.80 31.11 13.87 31.05 C 14.75 37.57 14.55 44.16 14.14 50.71 C 10.76 46.22 8.35 41.04 7.80 35.39 C 10.00 34.44 12.11 33.24 13.60 31.31 Z" />
</g>
<g id="#6088c1ff">
<path fill="#6088c1" opacity="1.00" d=" M 14.58 48.72 C 15.10 42.92 13.51 36.74 15.64 31.22 C 16.41 37.29 16.18 43.41 16.37 49.51 L 14.58 48.72 Z" />
<path fill="#6088c1" opacity="1.00" d=" M 48.36 30.19 C 50.13 36.11 48.99 42.42 49.03 48.49 L 48.47 50.02 C 48.11 46.27 47.74 42.52 47.73 38.76 C 47.81 35.90 48.03 33.04 48.36 30.19 Z" />
</g>
<g id="#ffd82bff">
<path fill="#ffd82b" opacity="1.00" d=" M 22.82 34.36 C 28.90 35.24 35.07 35.15 41.15 34.38 C 41.30 41.56 40.97 48.75 41.23 55.93 L 41.27 56.88 C 35.11 57.86 28.83 57.87 22.69 56.79 L 22.72 55.69 C 22.95 48.58 22.71 41.47 22.82 34.36 M 29.43 38.54 C 24.46 40.74 24.65 48.38 28.04 51.82 C 32.17 55.49 38.68 51.25 37.92 46.06 C 39.25 41.32 34.04 36.20 29.43 38.54 Z" />
</g>
<g id="#ffc72aff">
<path fill="#ffc72a" opacity="1.00" d=" M 49.72 33.67 C 51.92 34.04 54.11 34.42 56.30 34.80 C 55.74 40.58 53.20 45.81 50.14 50.64 C 49.59 45.00 49.56 39.33 49.72 33.67 Z" />
</g>
<g id="#b6b4b1ff">
<path fill="#b6b4b1" opacity="1.00" d=" M 26.80 44.35 C 27.38 42.16 28.66 39.82 31.13 39.46 C 33.81 38.83 35.59 41.35 37.07 43.14 C 36.48 43.51 35.90 43.88 35.31 44.25 C 34.42 42.70 34.07 40.18 31.85 40.03 C 30.03 40.57 29.15 42.55 27.80 43.75 C 27.55 43.90 27.05 44.20 26.80 44.35 Z" />
</g>
<g id="#f3f4f5ff">
<path fill="#f3f4f5" opacity="1.00" d=" M 27.80 43.75 C 29.15 42.55 30.03 40.57 31.85 40.03 C 34.07 40.18 34.42 42.70 35.31 44.25 C 32.80 44.31 30.27 44.27 27.80 43.75 Z" />
</g>
<g id="#c78618ff">
<path fill="#c78618" opacity="1.00" d=" M 27.08 46.35 C 30.35 46.39 33.62 46.40 36.90 46.41 C 37.22 49.93 33.71 54.32 30.02 52.22 C 27.44 51.40 27.13 48.67 27.08 46.35 Z" />
</g>
</svg>
