<?xml version="1.0" encoding="UTF-8" ?>
<!DOCTYPE svg PUBLIC "-//W3C//DTD SVG 1.1//EN" "http://www.w3.org/Graphics/SVG/1.1/DTD/svg11.dtd">
<svg width="64pt" height="64pt" viewBox="0 0 64 64" version="1.1" xmlns="http://www.w3.org/2000/svg">
<g id="#1e61fbff">
<path fill="#1e61fb" opacity="1.00" d=" M 8.23 17.54 C 13.14 9.40 22.44 4.02 31.99 4.21 C 41.06 4.03 49.92 8.87 55.00 16.33 C 53.26 15.91 51.52 15.49 49.76 15.13 C 40.44 4.17 21.37 4.98 12.94 16.62 C 11.42 17.16 9.85 17.52 8.23 17.54 Z" />
</g>
<g id="#c6d6fbff">
<path fill="#c6d6fb" opacity="1.00" d=" M 12.94 16.62 C 21.37 4.98 40.44 4.17 49.76 15.13 C 50.58 16.47 51.36 17.83 52.25 19.12 L 50.86 19.43 C 47.91 16.74 42.43 14.63 39.17 17.76 C 34.37 16.89 29.49 17.34 24.66 17.50 C 21.20 14.80 16.00 16.77 13.09 19.49 L 12.02 19.07 C 12.25 18.46 12.71 17.24 12.94 16.62 Z" />
</g>
<g id="#5972c0f3">
<path fill="#5972c0" opacity="0.95" d=" M 49.76 15.13 C 51.52 15.49 53.26 15.91 55.00 16.33 L 55.08 16.35 C 56.49 18.52 57.59 20.86 58.49 23.27 L 57.41 23.31 C 55.93 21.65 54.58 19.60 52.25 19.12 C 51.36 17.83 50.58 16.47 49.76 15.13 Z" />
</g>
<g id="#080068ff">
<path fill="#080068" opacity="1.00" d=" M 13.09 19.49 C 16.00 16.77 21.20 14.80 24.66 17.50 L 23.71 18.27 C 22.12 18.42 20.51 18.57 18.97 19.02 C 16.26 19.45 14.23 21.65 11.60 22.09 C 12.05 21.19 12.54 20.33 13.09 19.49 Z" />
<path fill="#080068" opacity="1.00" d=" M 39.17 17.76 C 42.43 14.63 47.91 16.74 50.86 19.43 C 51.43 20.29 51.94 21.17 52.41 22.09 C 50.90 22.19 49.87 20.93 48.57 20.40 C 45.68 18.76 42.33 18.52 39.17 17.76 Z" />
</g>
<g id="#596aa9e8">
<path fill="#596aa9" opacity="0.91" d=" M 8.22 17.54 L 8.23 17.54 C 9.85 17.52 11.42 17.16 12.94 16.62 C 12.71 17.24 12.25 18.46 12.02 19.07 C 8.91 18.87 7.78 21.97 6.54 24.21 C 6.15 24.39 5.36 24.76 4.97 24.94 C 5.82 22.39 6.68 19.77 8.22 17.54 Z" />
</g>
<g id="#b6c0d6ff">
<path fill="#b6c0d6" opacity="1.00" d=" M 24.66 17.50 C 29.49 17.34 34.37 16.89 39.17 17.76 C 42.33 18.52 45.68 18.76 48.57 20.40 C 49.87 20.93 50.90 22.19 52.41 22.09 C 52.68 22.56 53.23 23.50 53.50 23.98 C 39.22 23.55 24.91 23.75 10.62 23.84 C 10.86 23.40 11.35 22.53 11.60 22.09 C 14.23 21.65 16.26 19.45 18.97 19.02 C 20.42 20.48 23.04 20.53 23.71 18.27 L 24.66 17.50 Z" />
</g>
<g id="#929cc0ff">
<path fill="#929cc0" opacity="1.00" d=" M 6.54 24.21 C 7.78 21.97 8.91 18.87 12.02 19.07 L 13.09 19.49 C 12.54 20.33 12.05 21.19 11.60 22.09 C 11.35 22.53 10.86 23.40 10.62 23.84 L 10.17 24.34 C 9.26 24.31 7.45 24.24 6.54 24.21 Z" />
<path fill="#929cc0" opacity="1.00" d=" M 50.86 19.43 L 52.25 19.12 C 54.58 19.60 55.93 21.65 57.41 23.31 L 57.48 24.58 C 56.73 24.60 55.21 24.65 54.45 24.67 L 53.50 23.98 C 53.23 23.50 52.68 22.56 52.41 22.09 C 51.94 21.17 51.43 20.29 50.86 19.43 Z" />
</g>
<g id="#dce3efff">
<path fill="#dce3ef" opacity="1.00" d=" M 18.97 19.02 C 20.51 18.57 22.12 18.42 23.71 18.27 C 23.04 20.53 20.42 20.48 18.97 19.02 Z" />
</g>
<g id="#6e6063ca">
<path fill="#6e6063" opacity="0.79" d=" M 57.41 23.31 L 58.49 23.27 C 59.33 25.19 59.77 27.40 59.81 29.48 L 59.72 30.47 C 59.44 29.98 58.90 28.99 58.63 28.50 C 58.00 27.27 57.45 25.99 57.48 24.58 L 57.41 23.31 Z" />
</g>
<g id="#7e6355cd">
<path fill="#7e6355" opacity="0.80" d=" M 4.97 24.94 C 5.36 24.76 6.15 24.39 6.54 24.21 C 5.80 25.50 5.38 26.93 5.31 28.42 C 4.88 30.44 4.54 32.48 4.25 34.52 L 4.00 35.46 C 4.37 31.97 3.63 28.33 4.97 24.94 Z" />
</g>
<g id="#afa69aff">
<path fill="#afa69a" opacity="1.00" d=" M 6.54 24.21 C 7.45 24.24 9.26 24.31 10.17 24.34 C 10.00 24.84 9.66 25.82 9.49 26.32 C 8.86 27.36 8.22 28.40 7.58 29.44 L 6.63 29.16 L 5.31 28.42 C 5.38 26.93 5.80 25.50 6.54 24.21 Z" />
</g>
<g id="#c1bfb8ff">
<path fill="#c1bfb8" opacity="1.00" d=" M 10.17 24.34 L 10.62 23.84 C 24.91 23.75 39.22 23.55 53.50 23.98 L 54.45 24.67 C 53.96 25.45 53.43 26.20 52.87 26.93 C 49.93 27.35 46.95 27.31 43.99 27.49 C 43.51 27.43 42.55 27.32 42.07 27.26 C 38.82 26.16 35.36 26.48 31.99 26.46 C 28.61 26.48 25.15 26.17 21.89 27.26 C 21.40 27.32 20.41 27.45 19.92 27.51 C 16.42 27.35 12.86 27.40 9.49 26.32 C 9.66 25.82 10.00 24.84 10.17 24.34 Z" />
</g>
<g id="#cbbd96ff">
<path fill="#cbbd96" opacity="1.00" d=" M 54.45 24.67 C 55.21 24.65 56.73 24.60 57.48 24.58 C 57.45 25.99 58.00 27.27 58.63 28.50 L 57.26 29.31 C 53.68 30.58 49.84 30.49 46.11 30.23 C 45.47 29.27 44.86 28.27 43.99 27.49 C 46.95 27.31 49.93 27.35 52.87 26.93 C 53.43 26.20 53.96 25.45 54.45 24.67 Z" />
<path fill="#cbbd96" opacity="1.00" d=" M 7.58 29.44 C 8.22 28.40 8.86 27.36 9.49 26.32 C 12.86 27.40 16.42 27.35 19.92 27.51 C 19.17 28.33 18.53 29.25 17.90 30.17 C 14.46 30.41 10.89 30.67 7.58 29.44 Z" />
</g>
<g id="#d2be8fff">
<path fill="#d2be8f" opacity="1.00" d=" M 21.89 27.26 C 25.15 26.17 28.61 26.48 31.99 26.46 C 35.36 26.48 38.82 26.16 42.07 27.26 C 39.89 28.43 39.37 30.89 39.98 33.15 C 34.76 32.10 29.28 32.13 24.04 33.11 C 24.61 30.86 24.11 28.38 21.89 27.26 Z" />
</g>
<g id="#80571dff">
<path fill="#80571d" opacity="1.00" d=" M 19.92 27.51 C 20.41 27.45 21.40 27.32 21.89 27.26 C 24.11 28.38 24.61 30.86 24.04 33.11 C 23.15 31.89 22.56 30.35 21.29 29.46 C 20.17 30.36 19.16 31.38 18.12 32.37 C 18.07 31.82 17.96 30.72 17.90 30.17 C 18.53 29.25 19.17 28.33 19.92 27.51 Z" />
<path fill="#80571d" opacity="1.00" d=" M 42.07 27.26 C 42.55 27.32 43.51 27.43 43.99 27.49 C 44.86 28.27 45.47 29.27 46.11 30.23 C 46.06 30.74 45.95 31.76 45.90 32.27 C 44.75 31.28 43.62 30.25 42.36 29.40 C 41.50 30.61 40.76 31.90 39.98 33.15 C 39.37 30.89 39.89 28.43 42.07 27.26 Z" />
</g>
<g id="#cfa160ff">
<path fill="#cfa160" opacity="1.00" d=" M 4.25 34.52 C 4.54 32.48 4.88 30.44 5.31 28.42 L 6.63 29.16 C 7.00 31.18 7.23 33.22 7.30 35.27 L 6.80 36.18 C 6.16 35.77 4.89 34.93 4.25 34.52 Z" />
<path fill="#cfa160" opacity="1.00" d=" M 57.26 29.31 L 58.63 28.50 C 58.90 28.99 59.44 29.98 59.72 30.47 C 59.70 31.95 59.74 33.43 59.68 34.91 C 59.01 35.23 57.68 35.87 57.01 36.19 L 56.65 35.21 C 56.73 33.23 56.93 31.26 57.26 29.31 Z" />
</g>
<g id="#e4c478ff">
<path fill="#e4c478" opacity="1.00" d=" M 6.63 29.16 L 7.58 29.44 C 10.89 30.67 14.46 30.41 17.90 30.17 C 17.96 30.72 18.07 31.82 18.12 32.37 C 18.96 35.36 22.51 35.85 24.04 33.11 C 29.28 32.13 34.76 32.10 39.98 33.15 C 41.55 35.91 45.16 35.31 45.90 32.27 C 45.95 31.76 46.06 30.74 46.11 30.23 C 49.84 30.49 53.68 30.58 57.26 29.31 C 56.93 31.26 56.73 33.23 56.65 35.21 C 51.77 35.25 46.88 35.46 42.00 35.69 C 36.22 34.63 30.24 33.95 24.44 35.37 C 21.31 36.21 18.14 35.44 15.03 34.95 C 12.45 34.89 9.89 35.43 7.30 35.27 C 7.23 33.22 7.00 31.18 6.63 29.16 Z" />
</g>
<g id="#aa6b14ff">
<path fill="#aa6b14" opacity="1.00" d=" M 21.29 29.46 C 22.56 30.35 23.15 31.89 24.04 33.11 C 22.51 35.85 18.96 35.36 18.12 32.37 C 19.16 31.38 20.17 30.36 21.29 29.46 Z" />
<path fill="#aa6b14" opacity="1.00" d=" M 42.36 29.40 C 43.62 30.25 44.75 31.28 45.90 32.27 C 45.16 35.31 41.55 35.91 39.98 33.15 C 40.76 31.90 41.50 30.61 42.36 29.40 Z" />
</g>
<g id="#0000003f">
<path fill="#000000" opacity="0.25" d=" M 59.72 30.47 L 59.81 29.48 C 63.10 43.73 52.15 59.16 38.07 62.17 C 29.92 63.56 20.85 62.25 14.55 56.53 C 8.47 51.44 3.09 43.65 4.00 35.46 L 4.25 34.52 C 5.04 43.35 10.23 51.63 17.93 56.05 C 25.37 60.48 34.91 61.12 42.85 57.66 C 52.05 53.88 58.76 44.82 59.68 34.91 C 59.74 33.43 59.70 31.95 59.72 30.47 Z" />
</g>
<g id="#e4921df2">
<path fill="#e4921d" opacity="0.95" d=" M 4.25 34.52 C 4.89 34.93 6.16 35.77 6.80 36.18 C 7.44 37.89 8.03 39.62 8.63 41.34 C 10.72 49.37 17.90 55.42 25.81 57.33 C 37.70 60.68 52.09 53.50 55.39 41.29 C 55.99 39.61 56.53 37.91 57.01 36.19 C 57.68 35.87 59.01 35.23 59.68 34.91 C 58.76 44.82 52.05 53.88 42.85 57.66 C 34.91 61.12 25.37 60.48 17.93 56.05 C 10.23 51.63 5.04 43.35 4.25 34.52 Z" />
</g>
<g id="#f8ce42ff">
<path fill="#f8ce42" opacity="1.00" d=" M 7.30 35.27 C 9.89 35.43 12.45 34.89 15.03 34.95 C 18.14 35.44 21.31 36.21 24.44 35.37 C 30.24 33.95 36.22 34.63 42.00 35.69 C 46.88 35.46 51.77 35.25 56.65 35.21 L 57.01 36.19 C 56.53 37.91 55.99 39.61 55.39 41.29 C 51.13 40.40 46.79 40.06 42.45 40.20 C 35.25 39.46 27.97 39.29 20.81 40.37 C 16.71 39.99 12.58 40.04 8.63 41.34 C 8.03 39.62 7.44 37.89 6.80 36.18 L 7.30 35.27 Z" />
</g>
<g id="#ffd82bff">
<path fill="#ffd82b" opacity="1.00" d=" M 8.63 41.34 C 12.58 40.04 16.71 39.99 20.81 40.37 C 27.97 39.29 35.25 39.46 42.45 40.20 C 46.79 40.06 51.13 40.40 55.39 41.29 C 52.09 53.50 37.70 60.68 25.81 57.33 C 17.90 55.42 10.72 49.37 8.63 41.34 M 26.50 42.64 C 24.24 44.06 21.86 46.67 23.00 49.56 C 23.63 50.59 24.71 51.41 26.00 50.93 C 29.25 50.31 32.60 49.82 35.88 50.58 C 37.30 50.78 39.19 51.66 40.23 50.17 C 41.54 49.22 40.85 47.42 41.00 46.08 L 40.63 46.45 C 38.40 41.30 31.09 39.44 26.50 42.64 Z" />
</g>
<g id="#834307ff">
<path fill="#834307" opacity="1.00" d=" M 26.50 42.64 C 31.09 39.44 38.40 41.30 40.63 46.45 L 39.90 47.17 C 36.47 45.90 32.89 43.42 29.11 45.02 C 26.50 45.59 24.58 47.52 23.00 49.56 C 21.86 46.67 24.24 44.06 26.50 42.64 Z" />
</g>
<g id="#ac7311ff">
<path fill="#ac7311" opacity="1.00" d=" M 23.00 49.56 C 24.58 47.52 26.50 45.59 29.11 45.02 C 32.89 43.42 36.47 45.90 39.90 47.17 L 40.63 46.45 L 41.00 46.08 C 40.85 47.42 41.54 49.22 40.23 50.17 C 39.19 51.66 37.30 50.78 35.88 50.58 C 32.60 49.82 29.25 50.31 26.00 50.93 C 24.71 51.41 23.63 50.59 23.00 49.56 Z" />
</g>
</svg>
