<?xml version="1.0" encoding="UTF-8" ?>
<!DOCTYPE svg PUBLIC "-//W3C//DTD SVG 1.1//EN" "http://www.w3.org/Graphics/SVG/1.1/DTD/svg11.dtd">
<svg width="64pt" height="64pt" viewBox="0 0 64 64" version="1.1" xmlns="http://www.w3.org/2000/svg">
<g id="#7c3f0a87">
<path fill="#7c3f0a" opacity="0.53" d=" M 23.62 4.72 C 29.19 3.80 34.81 3.80 40.38 4.72 C 40.42 4.97 40.50 5.47 40.54 5.72 C 40.53 5.85 40.53 6.09 40.52 6.22 C 35.22 3.80 28.78 3.80 23.48 6.22 C 23.47 6.09 23.47 5.85 23.46 5.72 C 23.50 5.47 23.58 4.97 23.62 4.72 Z" />
</g>
<g id="#f8a51fff">
<path fill="#f8a51f" opacity="1.00" d=" M 23.48 6.22 C 28.78 3.80 35.22 3.80 40.52 6.22 C 40.53 6.09 40.53 5.85 40.54 5.72 L 40.55 5.38 C 42.96 6.48 45.51 7.41 47.61 9.06 C 49.74 11.15 51.90 13.20 54.12 15.20 C 56.61 18.22 58.17 21.93 59.18 25.69 C 60.04 32.06 59.33 38.60 56.88 44.55 C 55.57 47.24 53.76 49.69 51.63 51.78 C 49.39 53.55 47.08 55.24 44.74 56.87 L 44.72 56.88 C 42.56 57.72 40.38 58.57 38.12 59.13 C 31.91 60.27 25.57 59.19 19.69 57.06 L 19.34 56.87 C 17.32 55.54 15.34 54.15 13.38 52.72 C 10.76 50.40 8.57 47.55 7.04 44.39 C 4.65 38.47 3.97 31.99 4.82 25.67 C 5.82 21.95 7.37 18.27 9.83 15.27 C 12.06 13.24 14.25 11.17 16.39 9.06 C 18.50 7.41 21.04 6.47 23.45 5.38 L 23.46 5.72 C 23.47 5.85 23.47 6.09 23.48 6.22 M 19.85 10.62 C 16.46 12.16 14.16 15.35 12.17 18.39 L 11.68 18.35 C 8.69 20.66 7.67 24.45 6.89 27.97 C 6.60 29.77 6.05 31.87 7.22 33.50 C 7.49 36.79 7.82 40.15 9.16 43.22 C 11.89 50.27 18.54 55.31 25.74 57.18 C 33.01 58.47 41.11 57.79 47.03 52.97 C 53.00 48.71 56.47 41.68 56.74 34.40 C 58.31 28.87 56.51 22.16 52.26 18.24 L 51.81 18.34 C 49.82 15.33 47.54 12.17 44.17 10.63 C 36.84 6.27 27.19 6.26 19.85 10.62 Z" />
</g>
<g id="#fff1d5ff">
<path fill="#fff1d5" opacity="1.00" d=" M 19.85 10.62 C 27.19 6.26 36.84 6.27 44.17 10.63 C 36.18 12.17 27.85 12.18 19.85 10.62 Z" />
</g>
<g id="#c66f13d3">
<path fill="#c66f13" opacity="0.83" d=" M 9.83 15.27 C 11.52 12.73 13.72 10.55 16.39 9.06 C 14.25 11.17 12.06 13.24 9.83 15.27 Z" />
<path fill="#c66f13" opacity="0.83" d=" M 47.61 9.06 C 50.25 10.54 52.44 12.69 54.12 15.20 C 51.90 13.20 49.74 11.15 47.61 9.06 Z" />
</g>
<g id="#ffe6a9ff">
<path fill="#ffe6a9" opacity="1.00" d=" M 12.17 18.39 C 14.16 15.35 16.46 12.16 19.85 10.62 C 27.85 12.18 36.18 12.17 44.17 10.63 C 47.54 12.17 49.82 15.33 51.81 18.34 C 43.35 20.37 34.55 19.47 26.00 18.68 C 21.39 18.40 16.76 18.91 12.17 18.39 Z" />
</g>
<g id="#ffca3bff">
<path fill="#ffca3b" opacity="1.00" d=" M 6.89 27.97 C 7.67 24.45 8.69 20.66 11.68 18.35 C 11.12 21.38 11.03 24.48 11.53 27.53 C 14.59 27.25 17.64 26.89 20.69 26.48 L 21.11 27.98 C 21.37 28.53 21.87 29.62 22.13 30.16 C 22.63 31.76 25.36 31.75 25.87 30.16 C 26.11 29.65 26.59 28.61 26.83 28.10 C 26.95 27.45 27.20 26.15 27.33 25.50 C 30.44 25.54 33.55 25.54 36.66 25.50 C 36.79 26.15 37.05 27.46 37.18 28.11 C 37.41 28.62 37.89 29.65 38.13 30.16 C 38.63 31.75 41.36 31.76 41.87 30.16 C 42.14 29.58 42.69 28.43 42.96 27.85 L 43.31 26.48 C 46.35 26.90 49.40 27.25 52.46 27.53 C 53.12 24.45 52.90 21.30 52.26 18.24 C 56.51 22.16 58.31 28.87 56.74 34.40 C 47.23 36.10 37.60 34.19 28.02 34.70 C 21.11 34.24 13.68 36.93 7.22 33.50 C 6.05 31.87 6.60 29.77 6.89 27.97 Z" />
</g>
<g id="#ffd873ff">
<path fill="#ffd873" opacity="1.00" d=" M 11.68 18.35 L 12.17 18.39 C 16.76 18.91 21.39 18.40 26.00 18.68 C 34.55 19.47 43.35 20.37 51.81 18.34 L 52.26 18.24 C 52.90 21.30 53.12 24.45 52.46 27.53 C 49.40 27.25 46.35 26.90 43.31 26.48 C 43.15 24.32 41.59 22.86 39.98 21.62 C 38.70 22.75 37.40 23.92 36.66 25.50 C 33.55 25.54 30.44 25.54 27.33 25.50 C 26.60 23.92 25.30 22.75 24.02 21.62 C 22.41 22.86 20.86 24.33 20.69 26.48 C 17.64 26.89 14.59 27.25 11.53 27.53 C 11.03 24.48 11.12 21.38 11.68 18.35 Z" />
</g>
<g id="#7c5417ff">
<path fill="#7c5417" opacity="1.00" d=" M 20.69 26.48 C 20.86 24.33 22.41 22.86 24.02 21.62 C 25.30 22.75 26.60 23.92 27.33 25.50 C 27.20 26.15 26.95 27.45 26.83 28.10 C 25.91 27.02 24.99 25.95 24.07 24.88 C 23.09 25.92 22.09 26.94 21.11 27.98 L 20.69 26.48 Z" />
<path fill="#7c5417" opacity="1.00" d=" M 36.66 25.50 C 37.40 23.92 38.70 22.75 39.98 21.62 C 41.59 22.86 43.15 24.32 43.31 26.48 L 42.96 27.85 C 41.86 26.90 40.73 25.97 39.62 25.02 C 38.81 26.05 37.99 27.08 37.18 28.11 C 37.05 27.46 36.79 26.15 36.66 25.50 Z" />
</g>
<g id="#ab6c14ff">
<path fill="#ab6c14" opacity="1.00" d=" M 21.11 27.98 C 22.09 26.94 23.09 25.92 24.07 24.88 C 24.99 25.95 25.91 27.02 26.83 28.10 C 26.59 28.61 26.11 29.65 25.87 30.16 C 24.62 29.74 23.37 29.74 22.13 30.16 C 21.87 29.62 21.37 28.53 21.11 27.98 Z" />
<path fill="#ab6c14" opacity="1.00" d=" M 39.62 25.02 C 40.73 25.97 41.86 26.90 42.96 27.85 C 42.69 28.43 42.14 29.58 41.87 30.16 C 40.62 29.74 39.38 29.74 38.13 30.16 C 37.89 29.65 37.41 28.62 37.18 28.11 C 37.99 27.08 38.81 26.05 39.62 25.02 Z" />
</g>
<g id="#7b430a96">
<path fill="#7b430a" opacity="0.59" d=" M 7.04 44.39 C 3.65 38.86 3.09 31.85 4.82 25.67 C 3.97 31.99 4.65 38.47 7.04 44.39 Z" />
<path fill="#7b430a" opacity="0.59" d=" M 59.18 25.69 C 60.92 31.92 60.35 39.01 56.88 44.55 C 59.33 38.60 60.04 32.06 59.18 25.69 Z" />
</g>
<g id="#fffb75ff">
<path fill="#fffb75" opacity="1.00" d=" M 22.13 30.16 C 23.37 29.74 24.62 29.74 25.87 30.16 C 25.36 31.75 22.63 31.76 22.13 30.16 Z" />
<path fill="#fffb75" opacity="1.00" d=" M 38.13 30.16 C 39.38 29.74 40.62 29.74 41.87 30.16 C 41.36 31.76 38.63 31.75 38.13 30.16 Z" />
</g>
<g id="#ffd62aff">
<path fill="#ffd62a" opacity="1.00" d=" M 7.22 33.50 C 13.68 36.93 21.11 34.24 28.02 34.70 C 37.60 34.19 47.23 36.10 56.74 34.40 C 56.47 41.68 53.00 48.71 47.03 52.97 C 41.11 57.79 33.01 58.47 25.74 57.18 C 18.54 55.31 11.89 50.27 9.16 43.22 C 7.82 40.15 7.49 36.79 7.22 33.50 M 30.39 37.42 C 26.69 38.33 25.19 42.33 25.87 45.81 C 27.57 47.92 29.96 50.10 32.91 49.39 C 35.56 49.08 37.01 46.75 38.26 44.69 C 38.47 40.52 34.75 36.20 30.39 37.42 Z" />
</g>
<g id="#6d3b06ff">
<path fill="#6d3b06" opacity="1.00" d=" M 30.39 37.42 C 34.75 36.20 38.47 40.52 38.26 44.69 C 36.20 42.71 34.50 38.89 31.06 39.69 C 28.05 40.17 27.34 43.66 25.87 45.81 C 25.19 42.33 26.69 38.33 30.39 37.42 Z" />
</g>
<g id="#9d560aff">
<path fill="#9d560a" opacity="1.00" d=" M 25.87 45.81 C 27.34 43.66 28.05 40.17 31.06 39.69 C 34.50 38.89 36.20 42.71 38.26 44.69 C 37.01 46.75 35.56 49.08 32.91 49.39 C 29.96 50.10 27.57 47.92 25.87 45.81 M 28.18 43.34 C 28.20 44.49 28.22 45.64 28.24 46.80 C 31.15 49.41 36.47 47.96 35.75 43.52 C 33.23 43.43 30.71 43.37 28.18 43.34 Z" />
</g>
<g id="#ae7311ff">
<path fill="#ae7311" opacity="1.00" d=" M 28.18 43.34 C 30.71 43.37 33.23 43.43 35.75 43.52 C 36.47 47.96 31.15 49.41 28.24 46.80 C 28.22 45.64 28.20 44.49 28.18 43.34 Z" />
</g>
<g id="#4e2b0776">
<path fill="#4e2b07" opacity="0.46" d=" M 44.74 56.87 C 47.08 55.24 49.39 53.55 51.63 51.78 C 50.15 54.37 47.54 56.02 44.74 56.87 Z" />
</g>
<g id="#49280671">
<path fill="#492806" opacity="0.44" d=" M 13.38 52.72 C 15.34 54.15 17.32 55.54 19.34 56.87 C 16.89 56.28 14.64 54.97 13.38 52.72 Z" />
</g>
<g id="#7d460ba0">
<path fill="#7d460b" opacity="0.63" d=" M 19.69 57.06 C 25.57 59.19 31.91 60.27 38.12 59.13 C 34.00 60.26 29.67 60.11 25.47 59.51 C 23.41 59.04 21.50 58.11 19.69 57.06 Z" />
</g>
<g id="#1e100249">
<path fill="#1e1002" opacity="0.29" d=" M 38.12 59.13 C 40.38 58.57 42.56 57.72 44.72 56.88 C 42.46 59.78 38.41 60.17 35.01 60.58 C 31.84 60.58 28.34 61.22 25.47 59.51 C 29.67 60.11 34.00 60.26 38.12 59.13 Z" />
</g>
</svg>
