<?xml version="1.0" encoding="UTF-8" ?>
<!DOCTYPE svg PUBLIC "-//W3C//DTD SVG 1.1//EN" "http://www.w3.org/Graphics/SVG/1.1/DTD/svg11.dtd">
<svg width="64pt" height="64pt" viewBox="0 0 64 64" version="1.1" xmlns="http://www.w3.org/2000/svg">
<g id="#e8911bf1">
<path fill="#e8911b" opacity="0.95" d=" M 4.97 26.99 C 6.47 9.56 28.82 -1.54 44.00 7.01 C 51.67 10.63 58.49 18.31 59.03 26.99 C 59.00 30.33 58.98 33.67 59.03 37.01 C 59.29 39.94 58.09 43.15 55.95 45.09 C 58.26 35.90 60.25 25.24 53.72 17.26 C 52.69 15.90 51.91 13.52 49.90 15.02 L 49.30 15.11 C 48.39 14.05 47.49 12.97 46.42 12.06 C 43.74 10.01 40.53 8.52 37.25 7.73 C 33.75 6.82 30.25 6.83 26.76 7.77 C 23.46 8.54 20.21 9.98 17.54 12.07 C 16.50 12.97 15.63 14.04 14.76 15.10 L 14.23 14.82 C 13.90 14.62 13.23 14.23 12.90 14.03 C 4.41 22.05 4.67 34.73 8.07 45.08 C 5.90 43.19 4.73 39.93 4.97 37.01 C 5.00 33.67 5.02 30.33 4.97 26.99 Z" />
</g>
<g id="#fecf75ff">
<path fill="#fecf75" opacity="1.00" d=" M 26.76 7.77 C 30.25 6.83 33.75 6.82 37.25 7.73 C 33.75 7.82 30.25 7.97 26.76 7.77 Z" />
</g>
<g id="#ffedc5ff">
<path fill="#ffedc5" opacity="1.00" d=" M 17.54 12.07 C 20.21 9.98 23.46 8.54 26.76 7.77 C 30.25 7.97 33.75 7.82 37.25 7.73 C 40.53 8.52 43.74 10.01 46.42 12.06 C 37.00 12.83 26.77 14.54 17.54 12.07 Z" />
</g>
<g id="#ffe7afff">
<path fill="#ffe7af" opacity="1.00" d=" M 14.76 15.10 C 15.63 14.04 16.50 12.97 17.54 12.07 C 26.77 14.54 37.00 12.83 46.42 12.06 C 47.49 12.97 48.39 14.05 49.30 15.11 C 40.96 16.66 32.43 15.81 24.00 16.06 C 21.12 15.34 17.44 16.96 14.76 15.10 Z" />
</g>
<g id="#f9be31fd">
<path fill="#f9be31" opacity="1.00" d=" M 8.07 45.08 C 4.67 34.73 4.41 22.05 12.90 14.03 C 13.23 14.23 13.90 14.62 14.23 14.82 C 13.73 15.95 13.18 17.05 12.58 18.13 C 11.65 19.67 10.95 21.34 10.45 23.08 C 9.28 25.93 11.82 31.10 16.02 27.73 C 17.53 27.82 19.65 26.72 20.41 28.63 C 20.58 28.46 20.92 28.12 21.09 27.95 C 21.91 30.42 26.48 31.13 26.80 28.13 C 26.84 27.34 26.93 25.75 26.97 24.96 C 30.18 26.04 34.02 26.85 37.02 24.89 C 37.06 25.70 37.15 27.32 37.20 28.13 C 37.52 31.12 42.09 30.42 42.91 27.96 C 43.75 29.54 44.01 27.23 45.09 27.39 C 47.67 27.48 50.23 27.96 52.82 27.90 C 53.43 26.39 54.40 24.72 53.57 23.09 C 53.06 21.34 52.34 19.67 51.40 18.11 C 50.86 17.10 50.36 16.07 49.90 15.02 C 51.91 13.52 52.69 15.90 53.72 17.26 C 60.25 25.24 58.26 35.90 55.95 45.09 C 53.51 52.67 45.46 57.56 38.02 59.02 C 34.01 59.01 29.99 59.01 25.98 59.02 C 18.55 57.56 10.47 52.68 8.07 45.08 M 16.25 35.20 C 12.97 37.10 13.82 40.96 14.25 44.28 L 13.97 45.02 C 13.70 43.53 13.15 40.53 12.87 39.04 C 9.54 38.01 10.54 43.41 11.66 45.34 C 17.35 57.13 34.70 61.16 44.97 52.96 C 49.94 50.54 52.89 45.46 53.05 40.01 C 48.41 38.96 52.56 48.27 47.30 48.19 L 46.88 46.99 C 50.48 44.32 52.03 38.01 47.77 35.20 C 37.30 34.72 26.75 34.95 16.25 35.20 Z" />
</g>
<g id="#ffe29aff">
<path fill="#ffe29a" opacity="1.00" d=" M 14.23 14.82 L 14.76 15.10 C 17.44 16.96 21.12 15.34 24.00 16.06 C 32.43 15.81 40.96 16.66 49.30 15.11 L 49.90 15.02 C 50.36 16.07 50.86 17.10 51.40 18.11 C 43.02 19.64 34.46 18.81 26.00 19.05 C 21.59 18.54 16.76 20.07 12.58 18.13 C 13.18 17.05 13.73 15.95 14.23 14.82 Z" />
</g>
<g id="#feda7cff">
<path fill="#feda7c" opacity="1.00" d=" M 10.45 23.08 C 10.95 21.34 11.65 19.67 12.58 18.13 C 16.76 20.07 21.59 18.54 26.00 19.05 C 34.46 18.81 43.02 19.64 51.40 18.11 C 52.34 19.67 53.06 21.34 53.57 23.09 C 49.79 23.73 45.79 22.22 42.18 23.88 C 40.51 23.12 38.71 23.13 37.02 23.79 C 33.68 23.27 30.19 22.41 26.98 23.85 C 25.32 23.07 23.51 23.16 21.82 23.82 C 18.06 23.11 14.25 23.17 10.45 23.08 Z" />
</g>
<g id="#fed35cff">
<path fill="#fed35c" opacity="1.00" d=" M 16.02 27.73 C 11.82 31.10 9.28 25.93 10.45 23.08 C 14.25 23.17 18.06 23.11 21.82 23.82 L 21.58 24.86 C 21.35 25.88 21.19 26.91 21.09 27.95 C 20.92 28.12 20.58 28.46 20.41 28.63 C 19.65 26.72 17.53 27.82 16.02 27.73 Z" />
<path fill="#fed35c" opacity="1.00" d=" M 42.18 23.88 C 45.79 22.22 49.79 23.73 53.57 23.09 C 54.40 24.72 53.43 26.39 52.82 27.90 C 50.23 27.96 47.67 27.48 45.09 27.39 C 44.01 27.23 43.75 29.54 42.91 27.96 C 42.81 26.93 42.64 25.91 42.41 24.91 L 42.18 23.88 Z" />
</g>
<g id="#6c4007ff">
<path fill="#6c4007" opacity="1.00" d=" M 21.82 23.82 C 23.51 23.16 25.32 23.07 26.98 23.85 L 26.97 24.96 C 26.93 25.75 26.84 27.34 26.80 28.13 C 26.22 26.81 25.69 25.48 24.96 24.24 C 23.85 24.65 22.75 25.87 21.58 24.86 L 21.82 23.82 Z" />
<path fill="#6c4007" opacity="1.00" d=" M 37.02 23.79 C 38.71 23.13 40.51 23.12 42.18 23.88 L 42.41 24.91 C 41.23 25.77 40.15 24.64 39.04 24.25 C 38.31 25.49 37.77 26.82 37.20 28.13 C 37.15 27.32 37.06 25.70 37.02 24.89 L 37.02 23.79 Z" />
</g>
<g id="#ffd663ff">
<path fill="#ffd663" opacity="1.00" d=" M 26.98 23.85 C 30.19 22.41 33.68 23.27 37.02 23.79 L 37.02 24.89 C 34.02 26.85 30.18 26.04 26.97 24.96 L 26.98 23.85 Z" />
</g>
<g id="#965f11ff">
<path fill="#965f11" opacity="1.00" d=" M 21.58 24.86 C 22.75 25.87 23.85 24.65 24.96 24.24 C 25.69 25.48 26.22 26.81 26.80 28.13 C 26.48 31.13 21.91 30.42 21.09 27.95 C 21.19 26.91 21.35 25.88 21.58 24.86 Z" />
<path fill="#965f11" opacity="1.00" d=" M 39.04 24.25 C 40.15 24.64 41.23 25.77 42.41 24.91 C 42.64 25.91 42.81 26.93 42.91 27.96 C 42.09 30.42 37.52 31.12 37.20 28.13 C 37.77 26.82 38.31 25.49 39.04 24.25 Z" />
</g>
<g id="#a65a0ebd">
<path fill="#a65a0e" opacity="0.74" d=" M 4.00 36.99 C 4.24 34.49 4.73 29.49 4.97 26.99 C 5.02 30.33 5.00 33.67 4.97 37.01 L 4.00 36.99 Z" />
<path fill="#a65a0e" opacity="0.74" d=" M 59.03 26.99 L 60.00 27.01 C 59.76 29.51 59.27 34.51 59.03 37.01 C 58.98 33.67 59.00 30.33 59.03 26.99 Z" />
</g>
<g id="#5f3415ff">
<path fill="#5f3415" opacity="1.00" d=" M 16.25 35.20 C 26.75 34.95 37.30 34.72 47.77 35.20 C 52.03 38.01 50.48 44.32 46.88 46.99 L 46.10 46.84 C 45.79 46.63 45.17 46.21 44.85 46.00 L 45.19 45.23 C 46.75 44.52 48.68 43.64 49.03 41.76 C 49.03 41.32 49.04 40.44 49.04 40.00 C 49.56 37.79 47.25 37.04 45.67 36.30 C 36.82 35.83 27.92 35.77 19.07 36.10 C 17.25 36.65 14.54 37.60 15.03 40.00 C 15.00 40.47 14.95 41.40 14.93 41.86 L 14.87 42.81 C 14.72 43.18 14.41 43.91 14.25 44.28 C 13.82 40.96 12.97 37.10 16.25 35.20 Z" />
</g>
<g id="#c1bdb9ff">
<path fill="#c1bdb9" opacity="1.00" d=" M 15.03 40.00 C 14.54 37.60 17.25 36.65 19.07 36.10 C 27.92 35.77 36.82 35.83 45.67 36.30 C 47.25 37.04 49.56 37.79 49.04 40.00 C 47.40 40.00 45.75 40.00 44.11 39.98 C 45.58 35.43 37.34 35.35 39.00 39.94 L 38.17 39.93 C 38.17 36.11 31.57 35.56 32.95 39.97 L 32.05 39.97 C 33.40 35.19 26.41 36.16 25.93 39.96 L 25.06 39.97 C 26.59 35.38 18.44 35.42 19.89 39.98 C 18.27 40.00 16.65 40.01 15.03 40.00 Z" />
</g>
<g id="#f8f9faff">
<path fill="#f8f9fa" opacity="1.00" d=" M 19.89 39.98 C 18.44 35.42 26.59 35.38 25.06 39.97 C 23.34 39.99 21.61 40.01 19.89 39.98 Z" />
</g>
<g id="#f7f8f9ff">
<path fill="#f7f8f9" opacity="1.00" d=" M 25.93 39.96 C 26.41 36.16 33.40 35.19 32.05 39.97 C 30.01 40.02 27.97 39.98 25.93 39.96 Z" />
</g>
<g id="#fafbfbff">
<path fill="#fafbfb" opacity="1.00" d=" M 32.95 39.97 C 31.57 35.56 38.17 36.11 38.17 39.93 C 36.43 39.95 34.69 40.00 32.95 39.97 Z" />
</g>
<g id="#f6f7f8ff">
<path fill="#f6f7f8" opacity="1.00" d=" M 39.00 39.94 C 37.34 35.35 45.58 35.43 44.11 39.98 C 42.41 40.00 40.71 39.98 39.00 39.94 Z" />
</g>
<g id="#fed92dff">
<path fill="#fed92d" opacity="1.00" d=" M 11.66 45.34 C 10.54 43.41 9.54 38.01 12.87 39.04 C 13.15 40.53 13.70 43.53 13.97 45.02 C 14.97 45.62 15.97 46.19 16.95 46.82 L 17.11 47.85 L 17.28 48.84 C 27.27 48.90 37.39 49.77 47.30 48.19 C 52.56 48.27 48.41 38.96 53.05 40.01 C 52.89 45.46 49.94 50.54 44.97 52.96 C 34.70 61.16 17.35 57.13 11.66 45.34 Z" />
</g>
<g id="#bf9b7fff">
<path fill="#bf9b7f" opacity="1.00" d=" M 15.03 40.00 C 16.65 40.01 18.27 40.00 19.89 39.98 C 21.61 40.01 23.34 39.99 25.06 39.97 L 25.93 39.96 C 27.97 39.98 30.01 40.02 32.05 39.97 L 32.95 39.97 C 34.69 40.00 36.43 39.95 38.17 39.93 L 39.00 39.94 C 40.71 39.98 42.41 40.00 44.11 39.98 C 45.75 40.00 47.40 40.00 49.04 40.00 C 49.04 40.44 49.03 41.32 49.03 41.76 C 47.35 41.62 45.68 41.84 44.01 41.96 C 37.24 41.79 30.36 42.63 23.65 41.47 C 22.34 41.08 21.04 41.54 19.78 41.88 C 18.17 41.48 16.52 41.18 14.93 41.86 C 14.95 41.40 15.00 40.47 15.03 40.00 Z" />
</g>
<g id="#cccac8ff">
<path fill="#cccac8" opacity="1.00" d=" M 14.93 41.86 C 16.52 41.18 18.17 41.48 19.78 41.88 C 20.17 42.94 20.57 44.00 21.00 45.05 C 18.65 45.34 16.53 44.43 14.87 42.81 L 14.93 41.86 Z" />
</g>
<g id="#ebebebff">
<path fill="#ebebeb" opacity="1.00" d=" M 19.78 41.88 C 21.04 41.54 22.34 41.08 23.65 41.47 C 30.36 42.63 37.24 41.79 44.01 41.96 C 44.03 42.75 44.08 44.32 44.10 45.11 C 36.40 44.90 28.70 45.09 21.00 45.05 C 20.57 44.00 20.17 42.94 19.78 41.88 Z" />
</g>
<g id="#cdcccaff">
<path fill="#cdccca" opacity="1.00" d=" M 44.01 41.96 C 45.68 41.84 47.35 41.62 49.03 41.76 C 48.68 43.64 46.75 44.52 45.19 45.23 L 44.10 45.11 C 44.08 44.32 44.03 42.75 44.01 41.96 Z" />
</g>
<g id="#80614bff">
<path fill="#80614b" opacity="1.00" d=" M 14.87 42.81 C 16.53 44.43 18.65 45.34 21.00 45.05 C 28.70 45.09 36.40 44.90 44.10 45.11 L 45.19 45.23 L 44.85 46.00 C 35.83 46.16 26.73 45.40 17.77 46.70 L 16.95 46.82 C 15.97 46.19 14.97 45.62 13.97 45.02 L 14.25 44.28 C 14.41 43.91 14.72 43.18 14.87 42.81 Z" />
</g>
<g id="#491c02ff">
<path fill="#491c02" opacity="1.00" d=" M 17.77 46.70 C 26.73 45.40 35.83 46.16 44.85 46.00 C 45.17 46.21 45.79 46.63 46.10 46.84 C 36.66 47.04 27.21 47.15 17.77 46.70 Z" />
</g>
<g id="#dfd6b4ff">
<path fill="#dfd6b4" opacity="1.00" d=" M 16.95 46.82 L 17.77 46.70 C 27.21 47.15 36.66 47.04 46.10 46.84 L 46.88 46.99 L 47.30 48.19 C 37.24 47.81 27.17 48.23 17.11 47.85 L 16.95 46.82 Z" />
</g>
<g id="#dcc226ff">
<path fill="#dcc226" opacity="1.00" d=" M 17.11 47.85 C 27.17 48.23 37.24 47.81 47.30 48.19 C 37.39 49.77 27.27 48.90 17.28 48.84 L 17.11 47.85 Z" />
</g>
<g id="#9b560db7">
<path fill="#9b560d" opacity="0.72" d=" M 25.98 59.02 C 29.99 59.01 34.01 59.01 38.02 59.02 L 37.99 60.00 C 33.99 60.00 30.00 60.00 26.00 60.00 L 25.98 59.02 Z" />
</g>
<g id="#01000030">
<path fill="#010000" opacity="0.19" d=" M 26.00 60.00 C 30.00 60.00 33.99 60.00 37.99 60.00 L 38.00 60.98 C 34.91 59.82 27.38 63.09 26.00 60.00 Z" />
</g>
</svg>
