<?xml version="1.0" encoding="UTF-8" ?>
<!DOCTYPE svg PUBLIC "-//W3C//DTD SVG 1.1//EN" "http://www.w3.org/Graphics/SVG/1.1/DTD/svg11.dtd">
<svg width="64pt" height="64pt" viewBox="0 0 64 64" version="1.1" xmlns="http://www.w3.org/2000/svg">
<g id="#f8a21fff">
<path fill="#f8a21f" opacity="1.00" d=" M 26.46 4.72 C 41.50 1.26 57.66 12.62 59.55 27.91 C 61.49 39.69 54.88 52.15 44.04 57.14 C 34.15 62.02 21.40 60.21 13.32 52.68 C 4.60 45.07 1.72 31.76 6.35 21.18 C 9.83 12.83 17.60 6.51 26.46 4.72 M 16.08 13.34 L 15.77 13.29 C 15.28 13.88 14.80 14.49 14.34 15.11 C 7.78 19.42 5.66 28.51 7.33 35.84 C 8.38 42.69 11.47 49.69 17.56 53.48 C 25.53 59.30 36.85 59.66 45.13 54.25 C 52.11 50.48 55.60 42.69 56.56 35.13 C 58.53 28.00 55.78 19.41 49.76 14.99 C 49.26 14.40 48.68 13.86 47.99 13.50 C 39.46 5.25 24.74 5.31 16.08 13.34 Z" />
</g>
<g id="#ffedc4ff">
<path fill="#ffedc4" opacity="1.00" d=" M 16.08 13.34 C 24.74 5.31 39.46 5.25 47.99 13.50 C 43.99 13.88 39.98 14.22 35.96 13.93 C 29.34 13.48 22.65 14.69 16.08 13.34 Z" />
</g>
<g id="#ffe4a3ff">
<path fill="#ffe4a3" opacity="1.00" d=" M 15.77 13.29 L 16.08 13.34 C 22.65 14.69 29.34 13.48 35.96 13.93 C 39.98 14.22 43.99 13.88 47.99 13.50 C 48.68 13.86 49.26 14.40 49.76 14.99 C 50.66 16.77 51.45 18.60 52.13 20.47 C 48.67 16.98 43.31 14.91 38.73 17.55 C 43.49 18.61 48.32 19.76 52.38 22.60 L 52.54 23.76 C 51.13 23.21 49.72 22.65 48.32 22.10 C 37.99 18.26 26.03 18.25 15.71 22.08 C 14.31 22.63 12.91 23.19 11.51 23.74 L 11.64 22.60 C 15.69 19.75 20.52 18.62 25.27 17.54 C 20.68 14.90 15.33 17.02 11.83 20.46 C 12.55 18.62 13.38 16.83 14.34 15.11 C 14.80 14.49 15.28 13.88 15.77 13.29 Z" />
</g>
<g id="#ffc93bff">
<path fill="#ffc93b" opacity="1.00" d=" M 7.33 35.84 C 5.66 28.51 7.78 19.42 14.34 15.11 C 13.38 16.83 12.55 18.62 11.83 20.46 C 10.91 22.71 10.80 25.17 10.77 27.57 C 13.41 27.62 16.05 27.70 18.70 27.56 C 18.34 29.88 18.13 32.24 18.48 34.57 C 14.72 34.45 11.01 35.13 7.33 35.84 Z" />
<path fill="#ffc93b" opacity="1.00" d=" M 49.76 14.99 C 55.78 19.41 58.53 28.00 56.56 35.13 C 52.84 34.66 49.09 34.63 45.35 34.68 C 45.62 32.97 45.87 31.26 45.98 29.53 L 44.71 27.81 C 47.70 27.76 50.68 27.50 53.66 27.24 C 53.22 24.97 52.83 22.68 52.13 20.47 C 51.45 18.60 50.66 16.77 49.76 14.99 Z" />
</g>
<g id="#663400ff">
<path fill="#663400" opacity="1.00" d=" M 11.83 20.46 C 15.33 17.02 20.68 14.90 25.27 17.54 C 20.52 18.62 15.69 19.75 11.64 22.60 C 11.69 22.06 11.78 21.00 11.83 20.46 Z" />
<path fill="#663400" opacity="1.00" d=" M 38.73 17.55 C 43.31 14.91 48.67 16.98 52.13 20.47 C 52.20 21.01 52.32 22.07 52.38 22.60 C 48.32 19.76 43.49 18.61 38.73 17.55 Z" />
<path fill="#663400" opacity="1.00" d=" M 29.16 42.11 C 31.64 39.81 36.03 41.80 36.32 45.03 C 36.20 46.36 36.01 47.67 35.77 48.98 C 35.29 47.53 34.81 46.07 34.33 44.62 C 33.10 44.12 31.88 43.61 30.65 43.10 C 29.71 45.01 28.77 46.92 27.80 48.81 C 27.41 46.53 26.84 43.62 29.16 42.11 Z" />
</g>
<g id="#ffd563ff">
<path fill="#ffd563" opacity="1.00" d=" M 10.77 27.57 C 10.80 25.17 10.91 22.71 11.83 20.46 C 11.78 21.00 11.69 22.06 11.64 22.60 L 11.51 23.74 C 12.91 23.19 14.31 22.63 15.71 22.08 C 26.48 23.69 37.54 23.67 48.32 22.10 C 49.72 22.65 51.13 23.21 52.54 23.76 L 52.38 22.60 C 52.32 22.07 52.20 21.01 52.13 20.47 C 52.83 22.68 53.22 24.97 53.66 27.24 C 50.68 27.50 47.70 27.76 44.71 27.81 C 43.78 27.51 42.84 27.22 41.90 26.94 C 35.48 25.01 28.60 25.14 22.15 26.83 C 21.00 27.11 19.85 27.35 18.70 27.56 C 16.05 27.70 13.41 27.62 10.77 27.57 Z" />
</g>
<g id="#ffda7aff">
<path fill="#ffda7a" opacity="1.00" d=" M 15.71 22.08 C 26.03 18.25 37.99 18.26 48.32 22.10 C 37.54 23.67 26.48 23.69 15.71 22.08 Z" />
</g>
<g id="#ffcb3dff">
<path fill="#ffcb3d" opacity="1.00" d=" M 22.15 26.83 C 28.60 25.14 35.48 25.01 41.90 26.94 C 40.50 28.85 39.95 31.15 39.72 33.48 L 39.58 34.19 C 34.54 34.02 29.50 33.97 24.47 34.16 C 24.22 31.57 23.78 28.95 22.15 26.83 Z" />
</g>
<g id="#9f6410ff">
<path fill="#9f6410" opacity="1.00" d=" M 18.70 27.56 C 19.85 27.35 21.00 27.11 22.15 26.83 C 23.78 28.95 24.22 31.57 24.47 34.16 C 22.49 34.44 20.49 34.64 18.48 34.57 C 18.13 32.24 18.34 29.88 18.70 27.56 Z" />
</g>
<g id="#754909ff">
<path fill="#754909" opacity="1.00" d=" M 41.90 26.94 C 42.84 27.22 43.78 27.51 44.71 27.81 L 45.98 29.53 C 44.71 29.63 43.43 29.73 42.16 29.83 C 41.34 31.04 40.51 32.25 39.72 33.48 C 39.95 31.15 40.50 28.85 41.90 26.94 Z" />
</g>
<g id="#a96c12ff">
<path fill="#a96c12" opacity="1.00" d=" M 42.16 29.83 C 43.43 29.73 44.71 29.63 45.98 29.53 C 45.87 31.26 45.62 32.97 45.35 34.68 C 43.41 34.68 41.49 34.42 39.58 34.19 L 39.72 33.48 C 40.51 32.25 41.34 31.04 42.16 29.83 Z" />
</g>
<g id="#ffce29ff">
<path fill="#ffce29" opacity="1.00" d=" M 7.33 35.84 C 11.01 35.13 14.72 34.45 18.48 34.57 C 20.49 34.64 22.49 34.44 24.47 34.16 C 29.50 33.97 34.54 34.02 39.58 34.19 C 41.49 34.42 43.41 34.68 45.35 34.68 C 49.09 34.63 52.84 34.66 56.56 35.13 C 55.60 42.69 52.11 50.48 45.13 54.25 C 36.85 59.66 25.53 59.30 17.56 53.48 C 11.47 49.69 8.38 42.69 7.33 35.84 M 24.93 38.86 C 21.81 41.59 18.26 43.75 14.89 46.15 C 14.76 48.30 16.13 50.03 17.86 51.13 C 22.06 53.95 26.86 56.36 32.02 56.49 C 37.66 56.33 42.81 53.44 47.20 50.11 C 48.75 49.21 48.74 47.36 48.97 45.81 C 43.66 43.84 40.12 38.68 34.44 37.56 C 31.29 36.80 27.50 36.45 24.93 38.86 Z" />
</g>
<g id="#ffdf2cff">
<path fill="#ffdf2c" opacity="1.00" d=" M 24.93 38.86 C 27.50 36.45 31.29 36.80 34.44 37.56 C 40.12 38.68 43.66 43.84 48.97 45.81 C 48.74 47.36 48.75 49.21 47.20 50.11 C 42.81 53.44 37.66 56.33 32.02 56.49 C 26.86 56.36 22.06 53.95 17.86 51.13 C 16.13 50.03 14.76 48.30 14.89 46.15 C 18.26 43.75 21.81 41.59 24.93 38.86 M 29.16 42.11 C 26.84 43.62 27.41 46.53 27.80 48.81 C 30.33 50.35 33.18 50.45 35.77 48.98 C 36.01 47.67 36.20 46.36 36.32 45.03 C 36.03 41.80 31.64 39.81 29.16 42.11 Z" />
</g>
<g id="#ac6d11ff">
<path fill="#ac6d11" opacity="1.00" d=" M 27.80 48.81 C 28.77 46.92 29.71 45.01 30.65 43.10 C 31.88 43.61 33.10 44.12 34.33 44.62 C 34.81 46.07 35.29 47.53 35.77 48.98 C 33.18 50.45 30.33 50.35 27.80 48.81 Z" />
</g>
</svg>
