<?xml version="1.0" encoding="UTF-8" ?>
<!DOCTYPE svg PUBLIC "-//W3C//DTD SVG 1.1//EN" "http://www.w3.org/Graphics/SVG/1.1/DTD/svg11.dtd">
<svg width="64pt" height="64pt" viewBox="0 0 64 64" version="1.1" xmlns="http://www.w3.org/2000/svg">
<g id="#a3510cb1">
<path fill="#a3510c" opacity="0.69" d=" M 27.00 4.00 C 29.50 4.24 34.51 4.73 37.01 4.97 C 33.67 5.00 30.34 5.02 27.00 4.98 L 27.00 4.00 Z" />
</g>
<g id="#e88c19f2">
<path fill="#e88c19" opacity="0.95" d=" M 4.97 26.99 C 5.93 16.02 16.02 5.91 27.00 4.98 C 30.34 5.02 33.67 5.00 37.01 4.97 C 47.99 5.93 58.07 16.01 59.03 26.99 C 59.00 30.33 58.98 33.67 59.03 37.01 C 59.19 39.02 58.80 41.00 57.79 42.75 C 54.50 49.61 49.20 55.27 41.99 57.95 C 28.44 63.68 11.82 56.04 6.22 42.74 C 5.20 41.00 4.81 39.02 4.97 37.01 C 5.00 33.67 5.02 30.33 4.97 26.99 M 27.01 7.00 L 26.98 7.98 C 22.91 8.13 19.13 10.74 16.11 13.27 C 15.63 13.24 14.67 13.17 14.19 13.14 C 8.46 19.16 4.37 27.91 6.54 36.35 C 7.76 49.41 20.88 60.10 34.01 57.98 C 40.66 58.40 46.54 54.42 51.30 50.29 C 58.28 42.05 60.13 29.62 54.92 20.07 C 52.89 17.68 51.74 12.90 47.93 12.92 L 47.23 13.14 C 45.23 9.87 40.62 8.50 37.02 7.98 C 34.52 7.74 29.51 7.25 27.01 7.00 Z" />
</g>
<g id="#fecd6fff">
<path fill="#fecd6f" opacity="1.00" d=" M 27.01 7.00 C 29.51 7.25 34.52 7.74 37.02 7.98 C 33.67 7.99 30.33 8.00 26.98 7.98 L 27.01 7.00 Z" />
</g>
<g id="#fbebbeff">
<path fill="#fbebbe" opacity="1.00" d=" M 16.11 13.27 C 19.13 10.74 22.91 8.13 26.98 7.98 C 30.33 8.00 33.67 7.99 37.02 7.98 C 40.62 8.50 45.23 9.87 47.23 13.14 C 45.74 14.16 44.28 15.21 42.82 16.27 C 39.99 14.73 38.44 11.83 36.02 9.82 C 35.01 13.94 38.75 16.25 41.12 18.94 L 40.08 19.15 C 36.04 14.52 27.96 14.52 23.92 19.15 L 22.88 18.94 C 25.25 16.25 28.99 13.94 27.98 9.82 C 25.57 11.81 24.05 14.71 21.23 16.21 C 19.59 14.87 17.65 14.19 15.56 13.95 L 16.11 13.27 Z" />
</g>
<g id="#70491bff">
<path fill="#70491b" opacity="1.00" d=" M 21.23 16.21 C 24.05 14.71 25.57 11.81 27.98 9.82 C 28.99 13.94 25.25 16.25 22.88 18.94 C 21.19 19.23 19.53 19.64 17.84 19.91 C 18.26 18.14 20.00 17.36 21.23 16.21 Z" />
<path fill="#70491b" opacity="1.00" d=" M 36.02 9.82 C 38.44 11.83 39.99 14.73 42.82 16.27 C 44.04 17.39 45.76 18.15 46.16 19.91 C 44.47 19.64 42.81 19.23 41.12 18.94 C 38.75 16.25 35.01 13.94 36.02 9.82 Z" />
</g>
<g id="#fec530ff">
<path fill="#fec530" opacity="1.00" d=" M 14.19 13.14 C 14.67 13.17 15.63 13.24 16.11 13.27 L 15.56 13.95 C 14.01 15.84 12.56 17.85 11.52 20.07 C 10.74 21.55 10.98 23.31 10.91 24.93 C 10.62 28.71 15.94 28.09 18.42 29.46 C 24.63 33.27 27.01 23.86 33.05 25.98 C 37.59 25.51 39.61 32.51 44.89 29.79 C 47.52 28.18 53.22 28.84 53.09 24.93 C 53.01 23.31 53.27 21.55 52.47 20.07 C 51.23 17.53 49.52 15.25 47.93 12.92 C 51.74 12.90 52.89 17.68 54.92 20.07 C 60.13 29.62 58.28 42.05 51.30 50.29 C 46.54 54.42 40.66 58.40 34.01 57.98 C 20.88 60.10 7.76 49.41 6.54 36.35 C 4.37 27.91 8.46 19.16 14.19 13.14 M 19.71 39.35 C 18.34 39.52 17.89 41.17 17.19 42.16 C 17.07 39.44 14.19 43.46 13.20 44.24 C 12.91 50.25 19.45 52.68 23.99 54.98 C 32.15 58.86 41.49 55.50 48.18 50.21 L 48.03 49.16 C 48.33 45.13 47.17 39.68 43.09 38.19 C 41.72 34.45 37.10 34.49 33.94 33.14 C 28.89 33.09 22.35 34.61 19.71 39.35 Z" />
</g>
<g id="#fbe2a0ff">
<path fill="#fbe2a0" opacity="1.00" d=" M 47.23 13.14 L 47.93 12.92 C 49.52 15.25 51.23 17.53 52.47 20.07 C 48.41 20.37 44.31 20.50 40.25 20.15 L 40.08 19.15 L 41.12 18.94 C 42.81 19.23 44.47 19.64 46.16 19.91 C 45.76 18.15 44.04 17.39 42.82 16.27 C 44.28 15.21 45.74 14.16 47.23 13.14 Z" />
</g>
<g id="#fbe29fff">
<path fill="#fbe29f" opacity="1.00" d=" M 11.52 20.07 C 12.56 17.85 14.01 15.84 15.56 13.95 C 17.65 14.19 19.59 14.87 21.23 16.21 C 20.00 17.36 18.26 18.14 17.84 19.91 C 19.53 19.64 21.19 19.23 22.88 18.94 L 23.92 19.15 L 23.75 20.15 C 19.68 20.50 15.58 20.38 11.52 20.07 Z" />
</g>
<g id="#fde18dff">
<path fill="#fde18d" opacity="1.00" d=" M 23.92 19.15 C 27.96 14.52 36.04 14.52 40.08 19.15 L 40.25 20.15 C 39.53 20.84 38.79 21.51 38.04 22.17 C 37.12 21.31 36.26 20.36 35.10 19.80 C 35.14 20.65 35.23 22.34 35.27 23.19 C 33.91 23.77 33.34 21.78 32.00 22.00 C 30.66 21.78 30.09 23.77 28.73 23.19 C 28.77 22.34 28.86 20.65 28.90 19.80 C 27.74 20.36 26.88 21.31 25.96 22.17 C 25.21 21.51 24.47 20.84 23.75 20.15 L 23.92 19.15 Z" />
</g>
<g id="#fdd972ff">
<path fill="#fdd972" opacity="1.00" d=" M 10.91 24.93 C 10.98 23.31 10.74 21.55 11.52 20.07 C 15.58 20.38 19.68 20.50 23.75 20.15 C 24.47 20.84 25.21 21.51 25.96 22.17 C 23.33 24.66 19.65 25.35 16.11 24.51 C 14.36 24.02 12.54 24.06 10.91 24.93 Z" />
<path fill="#fdd972" opacity="1.00" d=" M 40.25 20.15 C 44.31 20.50 48.41 20.37 52.47 20.07 C 53.27 21.55 53.01 23.31 53.09 24.93 C 51.46 24.06 49.64 24.02 47.89 24.51 C 44.35 25.35 40.67 24.66 38.04 22.17 C 38.79 21.51 39.53 20.84 40.25 20.15 Z" />
</g>
<g id="#7e5112ff">
<path fill="#7e5112" opacity="1.00" d=" M 25.96 22.17 C 26.88 21.31 27.74 20.36 28.90 19.80 C 28.86 20.65 28.77 22.34 28.73 23.19 C 26.16 28.45 19.01 30.93 14.80 26.03 C 15.13 25.65 15.79 24.89 16.11 24.51 C 19.65 25.35 23.33 24.66 25.96 22.17 Z" />
<path fill="#7e5112" opacity="1.00" d=" M 35.10 19.80 C 36.26 20.36 37.12 21.31 38.04 22.17 C 40.67 24.66 44.35 25.35 47.89 24.51 C 50.99 26.59 46.29 27.76 44.69 28.69 C 40.68 29.53 37.28 26.37 35.27 23.19 C 35.23 22.34 35.14 20.65 35.10 19.80 Z" />
</g>
<g id="#f5d65fff">
<path fill="#f5d65f" opacity="1.00" d=" M 28.73 23.19 C 30.09 23.77 30.66 21.78 32.00 22.00 C 33.34 21.78 33.91 23.77 35.27 23.19 C 37.28 26.37 40.68 29.53 44.69 28.69 C 46.29 27.76 50.99 26.59 47.89 24.51 C 49.64 24.02 51.46 24.06 53.09 24.93 C 53.22 28.84 47.52 28.18 44.89 29.79 C 39.61 32.51 37.59 25.51 33.05 25.98 C 27.01 23.86 24.63 33.27 18.42 29.46 C 15.94 28.09 10.62 28.71 10.91 24.93 C 12.54 24.06 14.36 24.02 16.11 24.51 C 15.79 24.89 15.13 25.65 14.80 26.03 C 19.01 30.93 26.16 28.45 28.73 23.19 Z" />
</g>
<g id="#a8570dbd">
<path fill="#a8570d" opacity="0.74" d=" M 4.00 36.99 C 4.24 34.49 4.73 29.49 4.97 26.99 C 5.02 30.33 5.00 33.67 4.97 37.01 L 4.00 36.99 Z" />
<path fill="#a8570d" opacity="0.74" d=" M 59.03 26.99 L 60.00 27.01 C 59.76 29.51 59.27 34.51 59.03 37.01 C 58.98 33.67 59.00 30.33 59.03 26.99 Z" />
</g>
<g id="#562d0dff">
<path fill="#562d0d" opacity="1.00" d=" M 19.71 39.35 C 22.35 34.61 28.89 33.09 33.94 33.14 C 37.10 34.49 41.72 34.45 43.09 38.19 L 42.26 38.27 C 36.27 34.23 27.06 33.48 21.83 38.96 C 21.13 39.12 20.42 39.25 19.71 39.35 Z" />
</g>
<g id="#cbc9c4ff">
<path fill="#cbc9c4" opacity="1.00" d=" M 21.83 38.96 C 27.06 33.48 36.27 34.23 42.26 38.27 C 41.25 38.42 40.22 38.50 39.20 38.55 C 38.45 38.37 36.96 38.02 36.22 37.84 C 33.41 37.08 30.43 36.57 27.68 37.71 C 27.20 37.84 26.24 38.10 25.76 38.22 C 24.44 38.44 23.14 38.72 21.83 38.96 Z" />
</g>
<g id="#898072ff">
<path fill="#898072" opacity="1.00" d=" M 27.68 37.71 C 30.43 36.57 33.41 37.08 36.22 37.84 C 33.37 37.79 30.53 37.75 27.68 37.71 Z" />
</g>
<g id="#794a10ff">
<path fill="#794a10" opacity="1.00" d=" M 21.83 38.96 C 23.14 38.72 24.44 38.44 25.76 38.22 C 30.18 38.92 34.75 39.34 39.20 38.55 C 40.22 38.50 41.25 38.42 42.26 38.27 L 43.09 38.19 C 47.17 39.68 48.33 45.13 48.03 49.16 L 47.11 48.94 C 46.94 47.55 46.88 46.13 46.41 44.80 C 45.67 41.44 42.21 40.63 39.23 40.71 C 34.45 40.22 29.43 39.22 24.73 40.68 C 20.62 39.99 17.51 43.03 18.10 47.18 C 17.59 47.42 16.57 47.89 16.06 48.13 C 16.14 46.09 16.74 44.13 17.19 42.16 C 17.89 41.17 18.34 39.52 19.71 39.35 C 20.42 39.25 21.13 39.12 21.83 38.96 Z" />
</g>
<g id="#301a02ff">
<path fill="#301a02" opacity="1.00" d=" M 25.76 38.22 C 26.24 38.10 27.20 37.84 27.68 37.71 C 30.53 37.75 33.37 37.79 36.22 37.84 C 36.96 38.02 38.45 38.37 39.20 38.55 C 34.75 39.34 30.18 38.92 25.76 38.22 Z" />
</g>
<g id="#af6112ff">
<path fill="#af6112" opacity="1.00" d=" M 24.73 40.68 C 29.43 39.22 34.45 40.22 39.23 40.71 C 34.40 40.84 29.55 41.08 24.73 40.68 Z" />
</g>
<g id="#fede2dff">
<path fill="#fede2d" opacity="1.00" d=" M 13.20 44.24 C 14.19 43.46 17.07 39.44 17.19 42.16 C 16.74 44.13 16.14 46.09 16.06 48.13 C 15.64 50.11 18.74 48.30 19.90 48.46 C 23.61 48.67 27.32 48.57 31.01 48.19 C 36.87 47.34 42.45 49.50 48.18 50.21 C 41.49 55.50 32.15 58.86 23.99 54.98 C 19.45 52.68 12.91 50.25 13.20 44.24 Z" />
</g>
<g id="#c17916ff">
<path fill="#c17916" opacity="1.00" d=" M 18.10 47.18 C 17.51 43.03 20.62 39.99 24.73 40.68 C 29.55 41.08 34.40 40.84 39.23 40.71 C 42.21 40.63 45.67 41.44 46.41 44.80 C 46.27 45.32 46.00 46.36 45.86 46.88 C 36.64 45.57 27.18 44.16 18.10 47.18 Z" />
</g>
<g id="#130a0152">
<path fill="#130a01" opacity="0.32" d=" M 6.22 42.74 C 11.82 56.04 28.44 63.68 41.99 57.95 C 49.20 55.27 54.50 49.61 57.79 42.75 C 58.04 44.22 58.03 45.80 56.96 46.96 C 51.78 56.59 41.11 63.15 29.99 62.02 C 20.17 61.66 11.79 55.25 6.99 47.01 C 5.99 45.80 5.96 44.22 6.22 42.74 Z" />
</g>
<g id="#a6751aff">
<path fill="#a6751a" opacity="1.00" d=" M 18.10 47.18 C 27.18 44.16 36.64 45.57 45.86 46.88 C 46.00 46.36 46.27 45.32 46.41 44.80 C 46.88 46.13 46.94 47.55 47.11 48.94 C 38.24 46.81 28.76 45.90 19.90 48.46 C 18.74 48.30 15.64 50.11 16.06 48.13 C 16.57 47.89 17.59 47.42 18.10 47.18 Z" />
</g>
<g id="#f8f146ff">
<path fill="#f8f146" opacity="1.00" d=" M 19.90 48.46 C 28.76 45.90 38.24 46.81 47.11 48.94 L 48.03 49.16 L 48.18 50.21 C 42.45 49.50 36.87 47.34 31.01 48.19 C 27.32 48.57 23.61 48.67 19.90 48.46 Z" />
</g>
</svg>
