<?xml version="1.0" encoding="UTF-8" ?>
<!DOCTYPE svg PUBLIC "-//W3C//DTD SVG 1.1//EN" "http://www.w3.org/Graphics/SVG/1.1/DTD/svg11.dtd">
<svg width="64pt" height="64pt" viewBox="0 0 64 64" version="1.1" xmlns="http://www.w3.org/2000/svg">
<g id="#efc133ff">
<path fill="#efc133" opacity="1.00" d=" M 10.66 2.26 C 13.50 3.32 16.40 4.34 18.99 5.95 C 20.11 7.00 21.17 8.11 22.24 9.21 C 19.91 8.91 17.60 8.60 15.27 8.32 C 13.65 11.03 11.83 13.66 9.27 15.57 C 9.24 11.10 9.12 6.52 10.66 2.26 Z" />
</g>
<g id="#f2c335ff">
<path fill="#f2c335" opacity="1.00" d=" M 40.83 8.07 C 44.25 5.37 48.40 3.92 52.35 2.23 C 52.49 2.64 52.78 3.44 52.92 3.85 C 53.41 7.68 53.51 11.57 53.21 15.43 C 51.31 12.91 50.26 9.92 50.53 6.75 C 47.29 7.19 44.15 8.75 40.83 8.07 Z" />
</g>
<g id="#ab8627ff">
<path fill="#ab8627" opacity="1.00" d=" M 52.92 3.85 C 54.95 9.81 53.54 16.22 53.62 22.37 L 52.58 21.67 C 49.43 15.45 42.80 12.47 36.38 10.79 C 37.40 10.03 38.40 9.28 39.40 8.50 C 41.14 10.63 44.30 10.00 46.44 11.49 C 49.01 13.21 50.97 15.64 53.01 17.93 C 53.06 17.30 53.16 16.05 53.21 15.43 C 53.51 11.57 53.41 7.68 52.92 3.85 Z" />
<path fill="#ab8627" opacity="1.00" d=" M 15.83 29.02 C 16.02 28.82 16.41 28.42 16.61 28.22 C 16.75 29.89 16.84 31.58 17.34 33.19 C 20.28 34.10 23.57 34.78 25.54 37.40 C 23.72 39.09 21.24 38.33 19.05 38.20 C 16.73 37.96 14.39 38.08 12.07 38.25 C 11.71 38.00 11.01 37.50 10.66 37.26 C 13.19 37.00 15.73 36.79 18.26 36.46 C 15.43 36.13 12.61 35.83 9.78 35.53 C 12.26 35.17 14.75 34.84 17.23 34.50 C 14.62 34.06 12.00 33.66 9.41 33.08 C 11.68 33.04 13.95 33.01 16.22 32.96 C 16.13 31.98 15.93 30.01 15.83 29.02 Z" />
</g>
<g id="#bb972aff">
<path fill="#bb972a" opacity="1.00" d=" M 18.99 5.95 C 21.84 7.21 24.42 8.97 26.88 10.86 C 22.29 12.49 17.38 14.08 14.10 17.91 C 12.71 19.30 11.32 20.68 10.01 22.14 C 9.68 19.96 9.40 17.77 9.27 15.57 C 11.83 13.66 13.65 11.03 15.27 8.32 C 17.60 8.60 19.91 8.91 22.24 9.21 C 21.17 8.11 20.11 7.00 18.99 5.95 Z" />
</g>
<g id="#d5ab30ff">
<path fill="#d5ab30" opacity="1.00" d=" M 40.83 8.07 C 44.15 8.75 47.29 7.19 50.53 6.75 C 50.26 9.92 51.31 12.91 53.21 15.43 C 53.16 16.05 53.06 17.30 53.01 17.93 C 50.97 15.64 49.01 13.21 46.44 11.49 C 44.30 10.00 41.14 10.63 39.40 8.50 C 39.76 8.39 40.47 8.17 40.83 8.07 Z" />
</g>
<g id="#f6c73bff">
<path fill="#f6c73b" opacity="1.00" d=" M 14.10 17.91 C 17.38 14.08 22.29 12.49 26.88 10.86 C 30.01 10.42 33.24 10.38 36.38 10.79 C 42.80 12.47 49.43 15.45 52.58 21.67 C 53.40 25.44 54.45 29.15 55.65 32.82 C 55.37 32.87 54.80 32.97 54.52 33.02 C 52.36 33.04 50.21 33.02 48.06 32.97 C 47.77 31.33 47.48 29.69 47.16 28.06 C 47.11 27.80 47.00 27.30 46.94 27.04 C 46.77 26.63 46.43 25.81 46.26 25.40 C 47.55 22.08 45.85 18.84 43.37 16.63 C 35.93 8.50 20.34 10.82 16.23 21.27 C 14.73 23.39 15.52 25.83 16.60 27.93 L 16.61 28.22 C 16.41 28.42 16.02 28.82 15.83 29.02 C 15.93 30.01 16.13 31.98 16.22 32.96 C 13.95 33.01 11.68 33.04 9.41 33.08 C 9.04 27.63 12.02 22.75 14.10 17.91 Z" />
</g>
<g id="#fbd35bff">
<path fill="#fbd35b" opacity="1.00" d=" M 16.23 21.27 C 20.34 10.82 35.93 8.50 43.37 16.63 C 45.85 18.84 47.55 22.08 46.26 25.40 C 45.09 24.42 43.85 22.82 42.12 23.19 C 39.56 23.94 38.65 26.72 37.93 28.99 C 37.98 30.54 38.09 32.08 38.26 33.62 C 38.09 33.82 37.75 34.22 37.57 34.42 C 37.25 34.22 36.59 33.82 36.27 33.62 L 35.45 33.22 L 34.43 32.77 C 35.26 28.92 37.34 25.60 39.10 22.14 C 40.65 19.46 39.38 15.69 36.40 14.69 C 32.54 13.33 28.11 13.76 24.44 15.49 C 21.90 16.90 22.36 20.28 21.81 22.71 C 19.28 23.52 17.66 25.58 16.60 27.93 C 15.52 25.83 14.73 23.39 16.23 21.27 Z" />
</g>
<g id="#fdde7eff">
<path fill="#fdde7e" opacity="1.00" d=" M 24.44 15.49 C 28.11 13.76 32.54 13.33 36.40 14.69 C 39.38 15.69 40.65 19.46 39.10 22.14 C 37.34 25.60 35.26 28.92 34.43 32.77 C 32.68 32.40 30.91 32.11 29.14 31.82 C 27.99 29.68 26.77 27.54 25.06 25.78 C 24.06 24.67 22.92 23.71 21.81 22.71 C 22.36 20.28 21.90 16.90 24.44 15.49 Z" />
</g>
<g id="#d3a625ff">
<path fill="#d3a625" opacity="1.00" d=" M 10.01 22.14 C 11.32 20.68 12.71 19.30 14.10 17.91 C 12.02 22.75 9.04 27.63 9.41 33.08 C 12.00 33.66 14.62 34.06 17.23 34.50 C 14.75 34.84 12.26 35.17 9.78 35.53 C 12.61 35.83 15.43 36.13 18.26 36.46 C 15.73 36.79 13.19 37.00 10.66 37.26 C 11.01 37.50 11.71 38.00 12.07 38.25 C 11.43 38.39 10.16 38.69 9.52 38.83 C 8.36 38.15 7.16 37.52 6.00 36.83 C 6.59 36.75 7.76 36.58 8.35 36.49 C 7.65 35.95 6.97 35.39 6.31 34.81 C 6.48 33.52 6.65 32.22 6.87 30.93 C 7.47 27.87 8.42 24.83 10.01 22.14 Z" />
<path fill="#d3a625" opacity="1.00" d=" M 52.58 21.67 L 53.62 22.37 C 55.79 24.45 56.21 27.84 56.91 30.69 C 57.14 32.10 57.33 33.51 57.55 34.92 C 56.80 35.60 55.99 36.21 55.09 36.68 L 58.11 36.91 C 56.92 37.49 55.69 37.99 54.46 38.45 C 55.60 38.93 56.73 39.44 57.83 40.02 C 57.62 40.78 57.19 42.31 56.98 43.07 C 55.74 46.49 53.19 49.31 50.05 51.11 C 44.92 54.20 39.71 57.34 33.97 59.18 C 31.86 59.84 29.64 59.22 27.66 58.43 C 22.59 56.43 17.90 53.61 13.29 50.72 C 10.42 48.97 8.09 46.30 6.91 43.14 C 6.69 42.30 6.24 40.63 6.02 39.79 C 7.01 39.49 8.02 39.21 9.03 38.97 C 10.52 41.99 12.33 47.65 16.71 46.26 C 18.19 47.62 19.72 48.92 21.34 50.11 C 24.78 52.39 28.79 54.22 33.02 54.00 C 36.24 53.88 39.21 52.42 41.99 50.89 C 44.36 49.38 46.49 47.51 48.48 45.52 C 52.56 46.43 55.16 40.93 52.46 37.98 C 52.62 37.77 52.95 37.34 53.11 37.13 C 50.65 36.99 48.20 36.81 45.76 36.50 C 48.63 36.18 51.50 35.85 54.38 35.59 C 51.75 35.19 49.12 34.82 46.48 34.44 C 49.18 34.10 51.86 33.59 54.52 33.02 C 54.80 32.97 55.37 32.87 55.65 32.82 C 54.45 29.15 53.40 25.44 52.58 21.67 Z" />
</g>
<g id="#191919ff">
<path fill="#191919" opacity="1.00" d=" M 16.60 27.93 C 17.66 25.58 19.28 23.52 21.81 22.71 C 22.92 23.71 24.06 24.67 25.06 25.78 C 25.25 26.39 25.65 27.61 25.85 28.21 C 22.81 27.64 19.60 26.71 16.60 27.93 Z" />
<path fill="#191919" opacity="1.00" d=" M 37.93 28.99 C 38.65 26.72 39.56 23.94 42.12 23.19 C 43.85 22.82 45.09 24.42 46.26 25.40 C 46.43 25.81 46.77 26.63 46.94 27.04 C 43.83 27.09 40.70 27.47 37.93 28.99 Z" />
</g>
<g id="#fcce47ff">
<path fill="#fcce47" opacity="1.00" d=" M 25.06 25.78 C 26.77 27.54 27.99 29.68 29.14 31.82 C 30.91 32.11 32.68 32.40 34.43 32.77 L 35.45 33.22 C 32.83 33.74 30.15 34.01 27.53 33.31 C 27.84 34.49 28.15 35.68 28.57 36.84 C 28.76 37.28 29.13 38.16 29.32 38.60 C 30.79 40.26 33.13 40.24 35.12 40.77 C 33.54 41.33 31.92 42.51 30.18 41.85 C 28.04 41.14 26.99 38.95 25.54 37.40 C 23.57 34.78 20.28 34.10 17.34 33.19 C 18.73 31.97 19.61 29.21 21.88 29.68 C 23.36 30.79 24.57 32.20 25.94 33.43 C 25.94 31.69 25.97 29.95 25.85 28.21 C 25.65 27.61 25.25 26.39 25.06 25.78 Z" />
</g>
<g id="#39362dff">
<path fill="#39362d" opacity="1.00" d=" M 16.60 27.93 C 19.60 26.71 22.81 27.64 25.85 28.21 C 25.97 29.95 25.94 31.69 25.94 33.43 C 24.57 32.20 23.36 30.79 21.88 29.68 C 19.61 29.21 18.73 31.97 17.34 33.19 C 16.84 31.58 16.75 29.89 16.61 28.22 L 16.60 27.93 Z" />
</g>
<g id="#38352dff">
<path fill="#38352d" opacity="1.00" d=" M 37.93 28.99 C 40.70 27.47 43.83 27.09 46.94 27.04 C 47.00 27.30 47.11 27.80 47.16 28.06 C 47.55 29.79 47.64 31.59 46.53 33.08 C 45.20 31.79 44.32 29.20 42.04 29.63 C 40.60 30.79 39.42 32.21 38.26 33.62 C 38.09 32.08 37.98 30.54 37.93 28.99 Z" />
</g>
<g id="#af8a28ff">
<path fill="#af8a28" opacity="1.00" d=" M 47.16 28.06 C 47.48 29.69 47.77 31.33 48.06 32.97 C 50.21 33.02 52.36 33.04 54.52 33.02 C 51.86 33.59 49.18 34.10 46.48 34.44 C 49.12 34.82 51.75 35.19 54.38 35.59 C 51.50 35.85 48.63 36.18 45.76 36.50 C 48.20 36.81 50.65 36.99 53.11 37.13 C 52.95 37.34 52.62 37.77 52.46 37.98 C 48.08 38.08 43.69 38.05 39.34 38.63 C 39.39 37.62 39.45 36.60 39.52 35.59 C 41.82 34.65 44.17 33.85 46.53 33.08 C 47.64 31.59 47.55 29.79 47.16 28.06 Z" />
</g>
<g id="#fbc834ff">
<path fill="#fbc834" opacity="1.00" d=" M 38.26 33.62 C 39.42 32.21 40.60 30.79 42.04 29.63 C 44.32 29.20 45.20 31.79 46.53 33.08 C 44.17 33.85 41.82 34.65 39.52 35.59 C 39.45 36.60 39.39 37.62 39.34 38.63 C 43.69 38.05 48.08 38.08 52.46 37.98 C 55.16 40.93 52.56 46.43 48.48 45.52 C 49.57 44.03 50.28 42.33 50.63 40.52 C 43.56 42.22 36.31 43.44 29.01 42.94 C 23.80 42.88 18.78 41.34 13.65 40.68 C 14.38 42.69 15.30 44.64 16.71 46.26 C 12.33 47.65 10.52 41.99 9.03 38.97 L 9.52 38.83 C 10.16 38.69 11.43 38.39 12.07 38.25 C 14.39 38.08 16.73 37.96 19.05 38.20 C 21.24 38.33 23.72 39.09 25.54 37.40 C 26.99 38.95 28.04 41.14 30.18 41.85 C 31.92 42.51 33.54 41.33 35.12 40.77 C 33.13 40.24 30.79 40.26 29.32 38.60 C 30.94 38.58 32.55 38.57 34.17 38.57 C 34.85 37.42 35.52 36.27 36.11 35.07 C 36.15 34.71 36.23 33.98 36.27 33.62 C 36.59 33.82 37.25 34.22 37.57 34.42 C 37.75 34.22 38.09 33.82 38.26 33.62 Z" />
</g>
<g id="#4b390a85">
<path fill="#4b390a" opacity="0.52" d=" M 4.37 35.60 C 6.06 34.63 6.27 32.60 6.87 30.93 C 6.65 32.22 6.48 33.52 6.31 34.81 C 6.97 35.39 7.65 35.95 8.35 36.49 C 7.76 36.58 6.59 36.75 6.00 36.83 C 7.16 37.52 8.36 38.15 9.52 38.83 L 9.03 38.97 C 8.02 39.21 7.01 39.49 6.02 39.79 C 6.24 40.63 6.69 42.30 6.91 43.14 C 6.50 41.97 6.11 40.79 5.73 39.61 C 4.13 40.61 2.53 41.62 0.90 42.57 C 2.40 40.53 5.18 39.90 6.31 37.51 C 5.15 37.81 2.82 38.42 1.66 38.73 C 2.69 37.87 5.35 37.40 4.37 35.60 Z" />
</g>
<g id="#49370982">
<path fill="#493709" opacity="0.51" d=" M 56.91 30.69 C 57.60 32.35 58.31 34.01 59.15 35.61 L 58.19 35.70 C 59.42 36.81 60.76 37.77 62.11 38.73 C 61.02 38.45 58.82 37.89 57.72 37.61 C 58.49 39.68 61.18 40.06 61.87 42.10 C 60.70 41.28 59.59 40.40 58.48 39.50 C 57.97 40.69 57.49 41.89 56.98 43.07 C 57.19 42.31 57.62 40.78 57.83 40.02 C 56.73 39.44 55.60 38.93 54.46 38.45 C 55.69 37.99 56.92 37.49 58.11 36.91 L 55.09 36.68 C 55.99 36.21 56.80 35.60 57.55 34.92 C 57.33 33.51 57.14 32.10 56.91 30.69 Z" />
</g>
<g id="#a68a68ff">
<path fill="#a68a68" opacity="1.00" d=" M 27.53 33.31 C 30.15 34.01 32.83 33.74 35.45 33.22 L 36.27 33.62 C 36.23 33.98 36.15 34.71 36.11 35.07 C 34.79 35.67 33.44 36.19 32.10 36.71 C 30.82 36.28 29.54 35.85 28.26 35.43 L 28.57 36.84 C 28.15 35.68 27.84 34.49 27.53 33.31 Z" />
</g>
<g id="#604c22ff">
<path fill="#604c22" opacity="1.00" d=" M 32.10 36.71 C 33.44 36.19 34.79 35.67 36.11 35.07 C 35.52 36.27 34.85 37.42 34.17 38.57 C 32.55 38.57 30.94 38.58 29.32 38.60 C 29.13 38.16 28.76 37.28 28.57 36.84 L 28.26 35.43 C 29.54 35.85 30.82 36.28 32.10 36.71 Z" />
</g>
<g id="#202020ff">
<path fill="#202020" opacity="1.00" d=" M 13.65 40.68 C 18.78 41.34 23.80 42.88 29.01 42.94 C 36.31 43.44 43.56 42.22 50.63 40.52 C 50.28 42.33 49.57 44.03 48.48 45.52 C 46.49 47.51 44.36 49.38 41.99 50.89 C 40.84 47.91 37.49 48.67 34.98 48.57 C 30.42 48.84 25.49 47.60 21.34 50.11 C 19.72 48.92 18.19 47.62 16.71 46.26 C 15.30 44.64 14.38 42.69 13.65 40.68 M 19.87 43.44 C 19.92 45.13 20.05 47.00 21.46 48.14 C 21.66 47.56 22.05 46.41 22.24 45.83 C 29.04 46.32 35.89 46.49 42.72 46.00 C 42.93 46.53 43.34 47.60 43.55 48.14 C 44.40 46.69 44.98 45.11 45.18 43.43 C 36.79 44.67 28.26 44.72 19.87 43.44 Z" />
</g>
<g id="#bebebeff">
<path fill="#bebebe" opacity="1.00" d=" M 19.87 43.44 C 28.26 44.72 36.79 44.67 45.18 43.43 C 44.98 45.11 44.40 46.69 43.55 48.14 C 43.34 47.60 42.93 46.53 42.72 46.00 C 35.89 46.49 29.04 46.32 22.24 45.83 C 22.05 46.41 21.66 47.56 21.46 48.14 C 20.05 47.00 19.92 45.13 19.87 43.44 Z" />
</g>
<g id="#3f3f3eff">
<path fill="#3f3f3e" opacity="1.00" d=" M 21.34 50.11 C 25.49 47.60 30.42 48.84 34.98 48.57 C 37.49 48.67 40.84 47.91 41.99 50.89 C 39.21 52.42 36.24 53.88 33.02 54.00 C 28.79 54.22 24.78 52.39 21.34 50.11 Z" />
</g>
</svg>
