<?xml version="1.0" encoding="UTF-8" ?>
<!DOCTYPE svg PUBLIC "-//W3C//DTD SVG 1.1//EN" "http://www.w3.org/Graphics/SVG/1.1/DTD/svg11.dtd">
<svg width="64pt" height="64pt" viewBox="0 0 64 64" version="1.1" xmlns="http://www.w3.org/2000/svg">
<g id="#ff931bff">
<path fill="#ff931b" opacity="1.00" d=" M 6.88 20.04 C 11.30 10.54 21.52 3.99 32.04 4.22 C 42.50 4.02 52.65 10.52 57.08 19.96 C 60.30 26.77 60.74 34.91 57.95 41.94 C 55.14 49.51 48.79 55.63 41.18 58.27 C 31.37 61.82 19.61 59.20 12.37 51.65 C 4.05 43.70 1.87 30.36 6.88 20.04 M 20.28 10.31 C 17.27 9.89 15.20 12.44 13.28 14.31 C 6.89 20.73 3.71 31.39 8.42 39.63 C 9.13 41.47 11.16 40.06 12.52 40.35 C 14.07 40.89 15.53 41.75 17.19 41.94 C 19.27 42.61 21.45 42.34 23.59 42.35 C 23.77 45.15 22.86 47.90 21.18 50.13 C 20.00 51.38 19.82 53.55 21.12 54.78 C 23.91 57.74 28.26 57.70 32.01 58.08 C 35.94 57.80 40.44 57.34 43.27 54.25 C 45.57 50.09 38.39 46.76 41.12 42.40 C 43.05 42.33 44.99 42.39 46.90 42.05 C 49.45 41.20 51.94 39.67 54.69 40.65 C 56.40 39.12 56.88 36.73 57.51 34.62 C 59.14 25.78 54.52 16.78 47.57 11.48 C 46.52 10.51 45.13 10.19 43.74 10.32 C 36.62 6.28 27.39 6.28 20.28 10.31 Z" />
</g>
<g id="#ffedc3ff">
<path fill="#ffedc3" opacity="1.00" d=" M 20.28 10.31 C 27.39 6.28 36.62 6.28 43.74 10.32 C 45.89 11.97 48.55 13.41 49.58 16.07 C 46.90 13.95 43.36 12.94 39.99 13.71 C 38.94 14.04 37.51 14.39 37.41 15.71 C 41.73 15.92 46.36 16.21 50.31 18.45 L 50.81 17.34 C 50.99 17.55 51.36 17.97 51.54 18.18 C 51.17 18.48 50.42 19.06 50.04 19.36 C 43.41 18.21 36.82 16.09 30.04 16.31 C 24.68 17.29 19.26 18.06 13.96 19.39 C 13.58 19.08 12.84 18.44 12.47 18.13 C 12.66 17.91 13.04 17.49 13.23 17.28 L 13.61 18.48 C 17.59 16.22 22.25 15.92 26.62 15.70 C 24.09 11.73 17.55 13.51 14.39 16.10 C 15.43 13.43 18.10 11.96 20.28 10.31 Z" />
</g>
<g id="#ffbc30ff">
<path fill="#ffbc30" opacity="1.00" d=" M 13.28 14.31 C 15.20 12.44 17.27 9.89 20.28 10.31 C 18.10 11.96 15.43 13.43 14.39 16.10 C 14.10 16.40 13.52 16.99 13.23 17.28 C 13.04 17.49 12.66 17.91 12.47 18.13 C 11.12 20.68 10.21 23.75 11.77 26.43 C 9.95 29.65 9.52 33.69 11.57 36.92 L 13.07 37.68 C 14.15 38.39 15.19 39.18 16.14 40.07 C 16.40 40.54 16.93 41.47 17.19 41.94 C 15.53 41.75 14.07 40.89 12.52 40.35 C 11.16 40.06 9.13 41.47 8.42 39.63 C 3.71 31.39 6.89 20.73 13.28 14.31 Z" />
<path fill="#ffbc30" opacity="1.00" d=" M 43.74 10.32 C 45.13 10.19 46.52 10.51 47.57 11.48 C 54.52 16.78 59.14 25.78 57.51 34.62 C 56.88 36.73 56.40 39.12 54.69 40.65 C 51.94 39.67 49.45 41.20 46.90 42.05 C 47.16 41.55 47.66 40.53 47.91 40.03 C 48.86 39.17 49.86 38.38 50.93 37.68 L 52.43 36.90 C 54.49 33.69 54.01 29.68 52.27 26.45 C 53.05 23.73 53.18 20.64 51.54 18.18 C 51.36 17.97 50.99 17.55 50.81 17.34 C 50.50 17.02 49.89 16.39 49.58 16.07 C 48.55 13.41 45.89 11.97 43.74 10.32 Z" />
</g>
<g id="#704107ff">
<path fill="#704107" opacity="1.00" d=" M 14.39 16.10 C 17.55 13.51 24.09 11.73 26.62 15.70 C 22.25 15.92 17.59 16.22 13.61 18.48 L 13.23 17.28 C 13.52 16.99 14.10 16.40 14.39 16.10 Z" />
<path fill="#704107" opacity="1.00" d=" M 37.41 15.71 C 37.51 14.39 38.94 14.04 39.99 13.71 C 43.36 12.94 46.90 13.95 49.58 16.07 C 49.89 16.39 50.50 17.02 50.81 17.34 L 50.31 18.45 C 46.36 16.21 41.73 15.92 37.41 15.71 Z" />
<path fill="#704107" opacity="1.00" d=" M 27.42 47.43 C 30.95 47.78 34.73 46.74 38.09 47.97 C 38.07 48.48 38.04 49.50 38.02 50.02 C 34.46 50.87 30.65 50.16 26.99 50.40 C 24.95 50.27 25.55 47.12 27.42 47.43 Z" />
</g>
<g id="#ffdc82ff">
<path fill="#ffdc82" opacity="1.00" d=" M 13.96 19.39 C 19.26 18.06 24.68 17.29 30.04 16.31 C 36.82 16.09 43.41 18.21 50.04 19.36 C 50.42 19.06 51.17 18.48 51.54 18.18 C 53.18 20.64 53.05 23.73 52.27 26.45 C 49.27 22.35 43.16 21.21 38.95 24.11 C 34.35 24.66 29.65 24.67 25.05 24.11 C 20.87 21.24 14.74 22.32 11.77 26.43 C 10.21 23.75 11.12 20.68 12.47 18.13 C 12.84 18.44 13.58 19.08 13.96 19.39 Z" />
</g>
<g id="#0000003c">
<path fill="#000000" opacity="0.24" d=" M 3.59 33.06 C 3.88 28.70 3.59 23.35 6.88 20.04 C 1.87 30.36 4.05 43.70 12.37 51.65 C 19.61 59.20 31.37 61.82 41.18 58.27 C 48.79 55.63 55.14 49.51 57.95 41.94 C 60.74 34.91 60.30 26.77 57.08 19.96 C 58.93 21.37 59.32 23.81 59.80 25.94 C 61.21 34.20 60.57 43.44 55.32 50.31 C 52.02 55.33 47.01 58.98 41.59 61.41 C 33.67 63.59 24.33 63.59 17.39 58.64 C 8.75 53.31 2.92 43.33 3.59 33.06 Z" />
</g>
<g id="#868170ff">
<path fill="#868170" opacity="1.00" d=" M 11.77 26.43 C 14.74 22.32 20.87 21.24 25.05 24.11 C 28.06 26.44 29.64 30.28 28.93 34.05 C 28.00 36.76 26.21 39.23 23.61 40.54 L 21.68 40.47 C 24.32 38.67 27.48 36.61 27.55 33.01 C 27.95 29.96 25.85 27.29 23.44 25.67 C 20.86 25.28 18.14 25.15 15.58 25.77 C 13.77 26.98 12.31 28.73 11.84 30.90 C 10.94 33.25 12.71 35.41 13.07 37.68 L 11.57 36.92 C 9.52 33.69 9.95 29.65 11.77 26.43 Z" />
<path fill="#868170" opacity="1.00" d=" M 38.95 24.11 C 43.16 21.21 49.27 22.35 52.27 26.45 C 54.01 29.68 54.49 33.69 52.43 36.90 L 50.93 37.68 C 52.34 34.42 53.22 30.37 50.44 27.53 C 48.33 24.57 44.35 25.39 41.23 25.54 C 37.43 26.88 35.04 32.01 37.24 35.67 C 38.00 38.04 40.59 38.82 42.20 40.45 C 38.53 40.96 36.23 37.04 35.08 34.08 C 34.34 30.30 35.93 26.44 38.95 24.11 Z" />
</g>
<g id="#ffcb3cff">
<path fill="#ffcb3c" opacity="1.00" d=" M 25.05 24.11 C 29.65 24.67 34.35 24.66 38.95 24.11 C 35.93 26.44 34.34 30.30 35.08 34.08 C 33.09 35.00 30.92 34.96 28.93 34.05 C 29.64 30.28 28.06 26.44 25.05 24.11 Z" />
</g>
<g id="#f1f1f1ff">
<path fill="#f1f1f1" opacity="1.00" d=" M 15.58 25.77 C 18.14 25.15 20.86 25.28 23.44 25.67 C 25.85 27.29 27.95 29.96 27.55 33.01 C 27.48 36.61 24.32 38.67 21.68 40.47 C 19.83 40.54 17.93 40.69 16.14 40.07 C 15.19 39.18 14.15 38.39 13.07 37.68 C 12.71 35.41 10.94 33.25 11.84 30.90 C 12.31 28.73 13.77 26.98 15.58 25.77 M 16.67 32.99 C 17.76 36.79 23.44 34.97 22.94 31.36 L 22.67 31.40 C 21.96 27.10 15.29 28.88 16.67 32.99 Z" />
<path fill="#f1f1f1" opacity="1.00" d=" M 37.24 35.67 C 35.04 32.01 37.43 26.88 41.23 25.54 C 44.35 25.39 48.33 24.57 50.44 27.53 C 53.22 30.37 52.34 34.42 50.93 37.68 C 49.86 38.38 48.86 39.17 47.91 40.03 C 46.09 40.75 44.10 40.51 42.20 40.45 C 40.59 38.82 38.00 38.04 37.24 35.67 M 41.20 31.28 C 40.28 34.91 46.31 36.84 47.32 32.98 C 48.65 28.79 42.29 27.27 41.20 31.28 Z" />
</g>
<g id="#343434ff">
<path fill="#343434" opacity="1.00" d=" M 16.67 32.99 C 15.29 28.88 21.96 27.10 22.67 31.40 C 20.61 31.69 18.52 31.95 16.67 32.99 Z" />
</g>
<g id="#3c3c3dff">
<path fill="#3c3c3d" opacity="1.00" d=" M 41.20 31.28 C 42.29 27.27 48.65 28.79 47.32 32.98 C 45.40 31.98 43.09 32.31 41.20 31.28 Z" />
</g>
<g id="#646566ff">
<path fill="#646566" opacity="1.00" d=" M 22.67 31.40 L 22.94 31.36 C 23.44 34.97 17.76 36.79 16.67 32.99 C 18.52 31.95 20.61 31.69 22.67 31.40 Z" />
<path fill="#646566" opacity="1.00" d=" M 41.20 31.28 C 43.09 32.31 45.40 31.98 47.32 32.98 C 46.31 36.84 40.28 34.91 41.20 31.28 Z" />
</g>
<g id="#ffd329ff">
<path fill="#ffd329" opacity="1.00" d=" M 28.93 34.05 C 30.92 34.96 33.09 35.00 35.08 34.08 C 36.23 37.04 38.53 40.96 42.20 40.45 C 44.10 40.51 46.09 40.75 47.91 40.03 C 47.66 40.53 47.16 41.55 46.90 42.05 C 44.99 42.39 43.05 42.33 41.12 42.40 C 38.39 46.76 45.57 50.09 43.27 54.25 C 40.44 57.34 35.94 57.80 32.01 58.08 C 28.26 57.70 23.91 57.74 21.12 54.78 C 19.82 53.55 20.00 51.38 21.18 50.13 C 22.86 47.90 23.77 45.15 23.59 42.35 C 21.45 42.34 19.27 42.61 17.19 41.94 C 16.93 41.47 16.40 40.54 16.14 40.07 C 17.93 40.69 19.83 40.54 21.68 40.47 L 23.61 40.54 C 26.21 39.23 28.00 36.76 28.93 34.05 M 27.42 47.43 C 25.55 47.12 24.95 50.27 26.99 50.40 C 30.65 50.16 34.46 50.87 38.02 50.02 C 38.04 49.50 38.07 48.48 38.09 47.97 C 34.73 46.74 30.95 47.78 27.42 47.43 Z" />
</g>
</svg>
