<?xml version="1.0" encoding="UTF-8" ?>
<!DOCTYPE svg PUBLIC "-//W3C//DTD SVG 1.1//EN" "http://www.w3.org/Graphics/SVG/1.1/DTD/svg11.dtd">
<svg width="64pt" height="64pt" viewBox="0 0 64 64" version="1.1" xmlns="http://www.w3.org/2000/svg">
<g id="#f89d1dff">
<path fill="#f89d1d" opacity="1.00" d=" M 14.47 10.42 C 22.42 3.81 34.21 2.26 43.56 6.72 C 52.23 10.57 58.49 19.15 59.68 28.55 C 60.21 34.81 59.08 41.31 55.65 46.64 C 50.56 54.99 40.81 60.32 31.00 59.78 C 21.22 59.65 12.04 53.63 7.40 45.11 C 1.12 33.80 4.25 18.37 14.47 10.42 M 19.63 10.73 C 17.46 12.28 14.83 13.79 14.06 16.52 C 13.78 16.99 13.24 17.92 12.96 18.38 L 11.92 16.89 C 11.82 17.79 11.60 19.59 11.50 20.48 L 10.40 20.37 C 10.45 20.66 10.57 21.22 10.63 21.50 C 6.28 24.77 7.38 30.66 7.38 35.39 L 8.50 35.36 C 7.84 39.58 9.47 43.65 11.61 47.20 C 18.32 57.42 33.23 60.82 43.81 54.80 C 50.69 51.15 56.23 43.80 55.67 35.75 C 56.86 34.45 57.87 32.86 57.43 31.02 C 56.94 25.71 54.84 20.58 51.63 16.34 C 50.96 15.34 49.94 14.67 48.77 14.40 C 41.62 6.42 28.60 5.13 19.63 10.73 Z" />
</g>
<g id="#ffecc3ff">
<path fill="#ffecc3" opacity="1.00" d=" M 19.63 10.73 C 28.60 5.13 41.62 6.42 48.77 14.40 L 49.64 16.08 C 46.25 13.63 40.10 11.71 37.23 15.82 C 42.17 15.41 46.98 16.74 51.46 18.71 C 50.36 18.93 49.22 19.20 48.10 18.90 C 41.50 17.72 34.84 15.63 28.06 16.64 C 23.25 17.34 18.45 18.23 13.74 19.51 C 13.55 19.23 13.16 18.67 12.96 18.38 C 17.39 16.78 21.97 15.36 26.75 15.83 C 23.81 11.65 17.29 13.55 14.06 16.52 C 14.83 13.79 17.46 12.28 19.63 10.73 Z" />
</g>
<g id="#5c3603ff">
<path fill="#5c3603" opacity="1.00" d=" M 14.06 16.52 C 17.29 13.55 23.81 11.65 26.75 15.83 C 21.97 15.36 17.39 16.78 12.96 18.38 C 13.24 17.92 13.78 16.99 14.06 16.52 Z" />
<path fill="#5c3603" opacity="1.00" d=" M 37.23 15.82 C 40.10 11.71 46.25 13.63 49.64 16.08 C 50.25 16.96 50.85 17.84 51.46 18.71 C 46.98 16.74 42.17 15.41 37.23 15.82 Z" />
<path fill="#5c3603" opacity="1.00" d=" M 25.87 42.86 C 26.61 38.98 31.71 36.52 35.02 38.99 C 39.45 41.61 38.15 47.66 36.54 51.62 C 36.55 49.89 36.58 48.15 36.63 46.42 C 33.49 46.44 30.36 46.43 27.22 46.40 C 27.32 48.18 27.38 49.97 27.43 51.76 C 25.94 49.06 25.34 45.91 25.87 42.86 M 28.31 44.52 L 28.60 44.15 C 30.75 44.24 32.91 44.25 35.06 44.18 C 35.39 44.13 36.05 44.03 36.39 43.98 C 36.85 41.03 32.70 38.42 30.10 39.90 C 28.46 40.61 25.88 43.17 28.31 44.52 Z" />
</g>
<g id="#ffca3cff">
<path fill="#ffca3c" opacity="1.00" d=" M 48.77 14.40 C 49.94 14.67 50.96 15.34 51.63 16.34 C 54.84 20.58 56.94 25.71 57.43 31.02 C 57.87 32.86 56.86 34.45 55.67 35.75 C 53.47 35.11 51.28 34.42 49.03 33.96 C 47.42 32.06 45.67 30.27 43.84 28.57 C 44.25 28.18 44.66 27.79 45.07 27.41 C 47.73 26.77 50.37 26.02 52.97 25.17 C 52.88 23.57 52.81 21.97 52.61 20.37 C 52.32 19.96 51.75 19.13 51.46 18.71 C 50.85 17.84 50.25 16.96 49.64 16.08 L 48.77 14.40 Z" />
<path fill="#ffca3c" opacity="1.00" d=" M 7.38 35.39 C 7.38 30.66 6.28 24.77 10.63 21.50 C 10.82 22.38 11.21 24.16 11.40 25.05 C 13.84 26.06 16.36 26.84 18.93 27.40 C 19.24 27.69 19.86 28.29 20.17 28.58 C 18.53 30.14 16.85 31.66 15.31 33.32 C 15.61 33.76 16.21 34.65 16.51 35.10 C 13.84 35.25 11.17 35.28 8.50 35.36 L 7.38 35.39 Z" />
</g>
<g id="#ffde8aff">
<path fill="#ffde8a" opacity="1.00" d=" M 13.74 19.51 C 18.45 18.23 23.25 17.34 28.06 16.64 C 34.84 15.63 41.50 17.72 48.10 18.90 C 49.22 19.20 50.36 18.93 51.46 18.71 C 51.75 19.13 52.32 19.96 52.61 20.37 C 48.10 20.94 43.57 21.32 39.03 21.21 C 29.85 21.02 20.64 21.60 11.50 20.48 C 11.60 19.59 11.82 17.79 11.92 16.89 L 12.96 18.38 C 13.16 18.67 13.55 19.23 13.74 19.51 Z" />
</g>
<g id="#ffd873ff">
<path fill="#ffd873" opacity="1.00" d=" M 10.40 20.37 L 11.50 20.48 C 20.64 21.60 29.85 21.02 39.03 21.21 C 43.57 21.32 48.10 20.94 52.61 20.37 C 52.81 21.97 52.88 23.57 52.97 25.17 C 50.37 26.02 47.73 26.77 45.07 27.41 C 46.33 26.20 47.59 24.98 48.85 23.78 C 48.10 23.12 47.36 22.46 46.63 21.79 C 45.05 23.36 43.48 24.92 41.90 26.49 C 40.29 24.91 38.68 23.32 37.08 21.71 C 36.61 22.14 35.67 23.01 35.20 23.44 C 35.44 23.81 35.91 24.56 36.14 24.93 C 33.37 25.49 30.55 25.50 27.77 25.01 C 28.04 24.61 28.58 23.82 28.86 23.43 C 28.15 22.89 27.45 22.34 26.76 21.79 C 25.21 23.37 23.66 24.94 22.11 26.50 C 20.53 24.93 18.95 23.35 17.37 21.78 C 16.65 22.45 15.92 23.11 15.18 23.76 C 16.44 24.96 17.68 26.19 18.93 27.40 C 16.36 26.84 13.84 26.06 11.40 25.05 C 11.21 24.16 10.82 22.38 10.63 21.50 C 10.57 21.22 10.45 20.66 10.40 20.37 Z" />
</g>
<g id="#9d640fff">
<path fill="#9d640f" opacity="1.00" d=" M 15.18 23.76 C 15.92 23.11 16.65 22.45 17.37 21.78 C 18.95 23.35 20.53 24.93 22.11 26.50 C 23.66 24.94 25.21 23.37 26.76 21.79 C 27.45 22.34 28.15 22.89 28.86 23.43 C 28.58 23.82 28.04 24.61 27.77 25.01 C 26.56 26.22 25.27 27.36 24.01 28.52 C 25.76 30.19 27.48 31.90 29.14 33.67 C 28.55 34.08 27.38 34.90 26.79 35.31 C 26.40 34.91 25.63 34.10 25.24 33.70 C 24.18 32.61 23.13 31.53 22.08 30.44 C 21.00 31.62 19.93 32.80 18.85 33.98 C 18.15 34.57 17.38 34.94 16.51 35.10 C 16.21 34.65 15.61 33.76 15.31 33.32 C 16.85 31.66 18.53 30.14 20.17 28.58 C 19.86 28.29 19.24 27.69 18.93 27.40 C 17.68 26.19 16.44 24.96 15.18 23.76 Z" />
<path fill="#9d640f" opacity="1.00" d=" M 35.20 23.44 C 35.67 23.01 36.61 22.14 37.08 21.71 C 38.68 23.32 40.29 24.91 41.90 26.49 C 43.48 24.92 45.05 23.36 46.63 21.79 C 47.36 22.46 48.10 23.12 48.85 23.78 C 47.59 24.98 46.33 26.20 45.07 27.41 C 44.66 27.79 44.25 28.18 43.84 28.57 C 45.67 30.27 47.42 32.06 49.03 33.96 C 48.41 34.25 47.16 34.82 46.54 35.11 C 46.20 34.80 45.53 34.17 45.19 33.85 C 44.07 32.74 42.98 31.60 41.89 30.46 C 40.86 31.53 39.83 32.60 38.80 33.66 C 38.40 34.07 37.61 34.90 37.21 35.31 C 36.62 34.90 35.44 34.08 34.86 33.68 C 36.52 31.91 38.24 30.19 39.99 28.52 C 38.70 27.33 37.39 26.17 36.14 24.93 C 35.91 24.56 35.44 23.81 35.20 23.44 Z" />
</g>
<g id="#ffcb3cff">
<path fill="#ffcb3c" opacity="1.00" d=" M 24.01 28.52 C 25.27 27.36 26.56 26.22 27.77 25.01 C 30.55 25.50 33.37 25.49 36.14 24.93 C 37.39 26.17 38.70 27.33 39.99 28.52 C 38.24 30.19 36.52 31.91 34.86 33.68 C 32.95 33.69 31.05 33.68 29.14 33.67 C 27.48 31.90 25.76 30.19 24.01 28.52 Z" />
</g>
<g id="#0100003e">
<path fill="#010000" opacity="0.24" d=" M 59.68 28.55 C 64.45 45.21 49.02 63.34 32.01 62.59 C 21.16 63.17 11.43 55.89 6.28 46.77 C 6.56 46.36 7.12 45.53 7.40 45.11 C 12.04 53.63 21.22 59.65 31.00 59.78 C 40.81 60.32 50.56 54.99 55.65 46.64 C 59.08 41.31 60.21 34.81 59.68 28.55 Z" />
</g>
<g id="#f1d645ff">
<path fill="#f1d645" opacity="1.00" d=" M 18.85 33.98 C 19.93 32.80 21.00 31.62 22.08 30.44 C 23.13 31.53 24.18 32.61 25.24 33.70 C 23.10 33.69 20.96 33.69 18.85 33.98 Z" />
<path fill="#f1d645" opacity="1.00" d=" M 38.80 33.66 C 39.83 32.60 40.86 31.53 41.89 30.46 C 42.98 31.60 44.07 32.74 45.19 33.85 C 43.06 33.75 40.93 33.69 38.80 33.66 Z" />
</g>
<g id="#ffd52aff">
<path fill="#ffd52a" opacity="1.00" d=" M 18.85 33.98 C 20.96 33.69 23.10 33.69 25.24 33.70 C 25.63 34.10 26.40 34.91 26.79 35.31 C 27.38 34.90 28.55 34.08 29.14 33.67 C 31.05 33.68 32.95 33.69 34.86 33.68 C 35.44 34.08 36.62 34.90 37.21 35.31 C 37.61 34.90 38.40 34.07 38.80 33.66 C 40.93 33.69 43.06 33.75 45.19 33.85 C 45.53 34.17 46.20 34.80 46.54 35.11 C 47.16 34.82 48.41 34.25 49.03 33.96 C 51.28 34.42 53.47 35.11 55.67 35.75 C 56.23 43.80 50.69 51.15 43.81 54.80 C 33.23 60.82 18.32 57.42 11.61 47.20 C 9.47 43.65 7.84 39.58 8.50 35.36 C 11.17 35.28 13.84 35.25 16.51 35.10 C 17.38 34.94 18.15 34.57 18.85 33.98 M 25.87 42.86 C 25.34 45.91 25.94 49.06 27.43 51.76 C 30.07 53.97 33.95 53.84 36.54 51.62 C 38.15 47.66 39.45 41.61 35.02 38.99 C 31.71 36.52 26.61 38.98 25.87 42.86 Z" />
</g>
<g id="#d0d0d0ff">
<path fill="#d0d0d0" opacity="1.00" d=" M 28.31 44.52 C 25.88 43.17 28.46 40.61 30.10 39.90 C 32.70 38.42 36.85 41.03 36.39 43.98 C 36.05 44.03 35.39 44.13 35.06 44.18 C 34.01 42.71 32.99 41.21 31.98 39.71 C 30.86 41.19 29.72 42.66 28.60 44.15 L 28.31 44.52 Z" />
</g>
<g id="#fafafbff">
<path fill="#fafafb" opacity="1.00" d=" M 28.60 44.15 C 29.72 42.66 30.86 41.19 31.98 39.71 C 32.99 41.21 34.01 42.71 35.06 44.18 C 32.91 44.25 30.75 44.24 28.60 44.15 Z" />
</g>
<g id="#b17a13ff">
<path fill="#b17a13" opacity="1.00" d=" M 27.43 51.76 C 27.38 49.97 27.32 48.18 27.22 46.40 C 30.36 46.43 33.49 46.44 36.63 46.42 C 36.58 48.15 36.55 49.89 36.54 51.62 C 33.95 53.84 30.07 53.97 27.43 51.76 Z" />
</g>
</svg>
