<?xml version="1.0" encoding="UTF-8" ?>
<!DOCTYPE svg PUBLIC "-//W3C//DTD SVG 1.1//EN" "http://www.w3.org/Graphics/SVG/1.1/DTD/svg11.dtd">
<svg width="64pt" height="64pt" viewBox="0 0 64 64" version="1.1" xmlns="http://www.w3.org/2000/svg">
<g id="#1e61faff">
<path fill="#1e61fa" opacity="1.00" d=" M 8.03 17.85 C 12.94 9.52 22.35 4.01 32.06 4.20 C 42.48 4.02 52.49 10.46 57.03 19.79 C 55.44 17.67 53.15 16.30 50.50 15.96 C 48.63 13.66 46.33 11.73 43.74 10.28 C 36.54 6.41 27.44 6.41 20.25 10.29 C 17.35 11.81 15.02 14.16 12.96 16.66 C 12.78 16.85 12.42 17.24 12.24 17.43 C 10.84 17.62 9.44 17.73 8.03 17.85 Z" />
</g>
<g id="#d2dffeff">
<path fill="#d2dffe" opacity="1.00" d=" M 20.25 10.29 C 27.44 6.41 36.54 6.41 43.74 10.28 C 36.11 12.22 27.89 12.16 20.25 10.29 Z" />
</g>
<g id="#bdcdf4ff">
<path fill="#bdcdf4" opacity="1.00" d=" M 12.96 16.66 C 15.02 14.16 17.35 11.81 20.25 10.29 C 27.89 12.16 36.11 12.22 43.74 10.28 C 46.33 11.73 48.63 13.66 50.50 15.96 C 50.81 16.51 51.42 17.62 51.72 18.17 C 48.97 18.87 46.22 19.57 43.47 20.27 C 43.04 20.01 42.17 19.50 41.73 19.25 L 40.38 19.22 C 34.79 19.52 29.20 19.51 23.61 19.22 L 22.29 19.24 C 21.84 19.51 20.93 20.04 20.48 20.31 C 18.24 19.76 15.99 19.22 13.75 18.67 C 13.55 18.17 13.16 17.16 12.96 16.66 Z" />
</g>
<g id="#b8c0cfff">
<path fill="#b8c0cf" opacity="1.00" d=" M 12.24 17.43 C 12.42 17.24 12.78 16.85 12.96 16.66 C 13.16 17.16 13.55 18.17 13.75 18.67 C 15.99 19.22 18.24 19.76 20.48 20.31 C 17.37 22.45 13.76 23.59 10.20 24.75 C 15.25 27.70 21.14 23.75 23.61 19.22 C 29.20 19.51 34.79 19.52 40.38 19.22 C 42.87 23.74 48.74 27.70 53.79 24.75 C 50.22 23.59 46.59 22.43 43.47 20.27 C 46.22 19.57 48.97 18.87 51.72 18.17 C 52.95 20.53 54.54 22.73 56.72 24.29 C 57.23 24.52 58.24 24.97 58.75 25.20 L 59.39 25.52 C 59.30 26.34 59.12 27.96 59.02 28.77 C 57.73 27.75 56.49 26.68 55.17 25.69 C 52.53 26.35 49.92 27.75 47.14 26.81 C 39.89 25.08 32.40 25.46 25.01 25.58 C 19.63 25.66 13.91 28.85 8.95 25.42 C 8.37 25.82 7.79 26.22 7.21 26.62 C 7.87 24.37 7.67 22.02 7.12 19.77 L 7.26 20.47 C 7.46 19.60 7.66 18.73 7.86 17.86 L 8.03 17.85 C 9.44 17.73 10.84 17.62 12.24 17.43 Z" />
</g>
<g id="#677ab7f2">
<path fill="#677ab7" opacity="0.95" d=" M 50.50 15.96 C 53.15 16.30 55.44 17.67 57.03 19.79 C 57.93 21.60 58.53 23.54 59.25 25.43 L 58.75 25.20 C 58.24 24.97 57.23 24.52 56.72 24.29 C 54.54 22.73 52.95 20.53 51.72 18.17 C 51.42 17.62 50.81 16.51 50.50 15.96 Z" />
</g>
<g id="#191273ff">
<path fill="#191273" opacity="1.00" d=" M 22.29 19.24 L 23.61 19.22 C 21.14 23.75 15.25 27.70 10.20 24.75 C 13.76 23.59 17.37 22.45 20.48 20.31 C 20.93 20.04 21.84 19.51 22.29 19.24 Z" />
<path fill="#191273" opacity="1.00" d=" M 40.38 19.22 L 41.73 19.25 C 42.17 19.50 43.04 20.01 43.47 20.27 C 46.59 22.43 50.22 23.59 53.79 24.75 C 48.74 27.70 42.87 23.74 40.38 19.22 Z" />
</g>
<g id="#95837cf4">
<path fill="#95837c" opacity="0.96" d=" M 4.31 34.05 C 3.85 29.15 4.72 24.10 7.12 19.77 C 7.67 22.02 7.87 24.37 7.21 26.62 C 6.80 27.91 6.34 29.19 5.83 30.45 C 5.65 30.87 5.30 31.70 5.12 32.12 C 4.92 32.60 4.51 33.56 4.31 34.05 Z" />
</g>
<g id="#cbbd96ff">
<path fill="#cbbd96" opacity="1.00" d=" M 8.95 25.42 C 13.91 28.85 19.63 25.66 25.01 25.58 C 32.40 25.46 39.89 25.08 47.14 26.81 C 49.92 27.75 52.53 26.35 55.17 25.69 C 56.49 26.68 57.73 27.75 59.02 28.77 C 59.43 30.49 59.70 32.24 59.78 34.01 C 59.41 33.50 58.67 32.49 58.30 31.98 C 53.07 30.82 47.67 31.68 42.38 31.55 L 42.21 31.08 C 40.47 30.56 38.70 30.87 36.99 31.39 C 33.64 31.47 30.28 31.48 26.92 31.59 C 26.43 31.35 25.43 30.86 24.93 30.61 C 24.26 30.62 22.91 30.63 22.24 30.63 C 16.77 30.65 11.30 30.55 5.83 30.45 C 6.34 29.19 6.80 27.91 7.21 26.62 C 7.79 26.22 8.37 25.82 8.95 25.42 Z" />
</g>
<g id="#0000003d">
<path fill="#000000" opacity="0.24" d=" M 59.39 25.52 C 63.69 38.76 56.69 54.04 44.27 60.01 C 38.61 62.90 32.00 63.08 25.84 62.12 C 20.26 61.24 16.09 56.69 10.39 56.27 C 8.01 56.06 6.51 53.94 5.98 51.80 L 7.11 52.32 C 9.28 53.52 11.70 54.17 14.19 53.70 C 20.44 58.27 28.29 60.92 36.07 59.61 C 48.68 57.98 59.12 46.71 59.78 34.01 C 59.70 32.24 59.43 30.49 59.02 28.77 C 59.12 27.96 59.30 26.34 59.39 25.52 Z" />
</g>
<g id="#05142352">
<path fill="#051423" opacity="0.32" d=" M 5.56 50.10 C 5.25 42.98 2.50 36.09 3.54 28.91 C 3.49 33.20 3.13 37.76 5.80 41.43 C 5.92 41.79 6.15 42.52 6.27 42.88 L 6.21 43.03 C 5.39 45.30 5.13 47.71 5.56 50.10 Z" />
</g>
<g id="#e9c56eff">
<path fill="#e9c56e" opacity="1.00" d=" M 5.12 32.12 C 5.30 31.70 5.65 30.87 5.83 30.45 C 11.30 30.55 16.77 30.65 22.24 30.63 C 21.34 32.68 20.93 34.89 21.73 37.05 C 19.46 35.32 16.67 35.72 14.05 36.15 L 14.01 36.07 C 13.29 34.54 12.51 33.03 11.77 31.50 C 11.05 32.70 10.33 33.91 9.67 35.15 C 8.15 34.14 6.64 33.13 5.12 32.12 Z" />
</g>
<g id="#835612ff">
<path fill="#835612" opacity="1.00" d=" M 22.24 30.63 C 22.91 30.63 24.26 30.62 24.93 30.61 C 25.43 30.86 26.43 31.35 26.92 31.59 C 27.12 33.21 27.30 34.82 27.48 36.44 C 26.20 35.18 24.91 33.92 23.62 32.68 C 23.26 34.28 22.91 35.88 22.56 37.49 L 21.73 37.05 C 20.93 34.89 21.34 32.68 22.24 30.63 Z" />
<path fill="#835612" opacity="1.00" d=" M 36.99 31.39 C 38.70 30.87 40.47 30.56 42.21 31.08 L 42.38 31.55 C 42.76 33.39 42.72 35.28 42.35 37.12 L 41.44 37.43 C 41.09 35.85 40.73 34.26 40.37 32.67 C 39.10 33.93 37.81 35.17 36.53 36.43 C 36.69 34.75 36.84 33.07 36.99 31.39 Z" />
</g>
<g id="#edc663ff">
<path fill="#edc663" opacity="1.00" d=" M 42.38 31.55 C 47.67 31.68 53.07 30.82 58.30 31.98 C 57.91 34.11 57.56 36.25 57.06 38.36 L 56.12 38.55 C 51.77 37.01 46.90 35.12 42.35 37.12 C 42.72 35.28 42.76 33.39 42.38 31.55 Z" />
</g>
<g id="#2678b4f9">
<path fill="#2678b4" opacity="0.98" d=" M 9.67 35.15 C 10.33 33.91 11.05 32.70 11.77 31.50 C 12.51 33.03 13.29 34.54 14.01 36.07 L 14.05 36.15 C 14.76 37.66 15.47 39.18 16.16 40.70 C 18.02 43.73 18.41 47.28 17.66 50.72 C 16.55 51.76 15.40 52.77 14.19 53.70 C 11.70 54.17 9.28 53.52 7.11 52.32 L 8.46 52.50 C 10.97 52.67 14.13 53.11 15.66 50.57 C 17.65 48.39 16.19 45.35 15.26 43.05 C 14.14 40.47 12.98 37.90 11.81 35.34 C 10.91 36.94 10.03 38.55 9.12 40.15 C 8.49 40.64 7.25 41.63 6.63 42.12 C 7.67 39.81 8.56 37.43 9.67 35.15 Z" />
</g>
<g id="#eccb70ff">
<path fill="#eccb70" opacity="1.00" d=" M 26.92 31.59 C 30.28 31.48 33.64 31.47 36.99 31.39 C 36.84 33.07 36.69 34.75 36.53 36.43 C 33.76 34.86 30.25 34.89 27.48 36.44 C 27.30 34.82 27.12 33.21 26.92 31.59 Z" />
</g>
<g id="#ebab51ff">
<path fill="#ebab51" opacity="1.00" d=" M 5.12 32.12 C 6.64 33.13 8.15 34.14 9.67 35.15 C 8.56 37.43 7.67 39.81 6.63 42.12 L 6.27 42.88 C 6.15 42.52 5.92 41.79 5.80 41.43 C 5.00 39.05 4.27 36.58 4.31 34.05 C 4.51 33.56 4.92 32.60 5.12 32.12 Z" />
</g>
<g id="#aa6b14ff">
<path fill="#aa6b14" opacity="1.00" d=" M 23.62 32.68 C 24.91 33.92 26.20 35.18 27.48 36.44 C 25.96 37.26 24.32 38.50 22.56 37.49 C 22.91 35.88 23.26 34.28 23.62 32.68 Z" />
<path fill="#aa6b14" opacity="1.00" d=" M 36.53 36.43 C 37.81 35.17 39.10 33.93 40.37 32.67 C 40.73 34.26 41.09 35.85 41.44 37.43 C 39.70 38.51 38.04 37.27 36.53 36.43 Z" />
</g>
<g id="#d98b1dec">
<path fill="#d98b1d" opacity="0.93" d=" M 57.06 38.36 C 57.56 36.25 57.91 34.11 58.30 31.98 C 58.67 32.49 59.41 33.50 59.78 34.01 C 59.12 46.71 48.68 57.98 36.07 59.61 C 28.29 60.92 20.44 58.27 14.19 53.70 C 15.40 52.77 16.55 51.76 17.66 50.72 C 17.57 51.60 17.38 53.37 17.28 54.26 C 22.76 56.98 28.80 59.33 35.04 58.35 C 42.91 57.11 50.81 52.61 54.34 45.21 C 55.44 43.01 56.33 40.71 57.06 38.36 Z" />
</g>
<g id="#f7ce44ff">
<path fill="#f7ce44" opacity="1.00" d=" M 27.48 36.44 C 30.25 34.89 33.76 34.86 36.53 36.43 C 38.04 37.27 39.70 38.51 41.44 37.43 L 42.35 37.12 C 46.90 35.12 51.77 37.01 56.12 38.55 C 52.96 39.81 49.58 40.47 46.20 39.79 C 36.27 38.35 25.84 37.38 16.16 40.70 C 15.47 39.18 14.76 37.66 14.05 36.15 C 16.67 35.72 19.46 35.32 21.73 37.05 L 22.56 37.49 C 24.32 38.50 25.96 37.26 27.48 36.44 Z" />
</g>
<g id="#c0e8feff">
<path fill="#c0e8fe" opacity="1.00" d=" M 9.12 40.15 C 10.03 38.55 10.91 36.94 11.81 35.34 C 12.98 37.90 14.14 40.47 15.26 43.05 C 14.92 45.46 14.60 47.86 14.30 50.27 C 13.19 50.70 12.08 51.12 10.98 51.55 C 10.41 51.18 9.29 50.44 8.72 50.07 C 8.45 47.87 8.16 45.68 7.85 43.49 C 8.26 42.37 8.68 41.26 9.12 40.15 Z" />
</g>
<g id="#ffda2bff">
<path fill="#ffda2b" opacity="1.00" d=" M 16.16 40.70 C 25.84 37.38 36.27 38.35 46.20 39.79 C 49.58 40.47 52.96 39.81 56.12 38.55 L 57.06 38.36 C 56.33 40.71 55.44 43.01 54.34 45.21 C 50.81 52.61 42.91 57.11 35.04 58.35 C 28.80 59.33 22.76 56.98 17.28 54.26 C 17.38 53.37 17.57 51.60 17.66 50.72 C 18.41 47.28 18.02 43.73 16.16 40.70 M 23.09 47.03 C 23.11 47.83 23.14 49.42 23.15 50.22 L 22.78 50.70 C 28.57 51.37 34.43 50.27 40.26 51.13 L 40.16 50.76 C 40.59 49.26 41.37 47.38 39.66 46.37 C 34.72 43.21 27.81 43.59 23.09 47.03 Z" />
</g>
<g id="#1789d2fd">
<path fill="#1789d2" opacity="1.00" d=" M 6.63 42.12 C 7.25 41.63 8.49 40.64 9.12 40.15 C 8.68 41.26 8.26 42.37 7.85 43.49 C 6.21 46.46 6.88 49.67 8.46 52.50 L 7.11 52.32 C 6.73 51.77 5.95 50.66 5.56 50.10 C 5.13 47.71 5.39 45.30 6.21 43.03 L 6.27 42.88 L 6.63 42.12 Z" />
</g>
<g id="#67c0eeff">
<path fill="#67c0ee" opacity="1.00" d=" M 8.46 52.50 C 6.88 49.67 6.21 46.46 7.85 43.49 C 8.16 45.68 8.45 47.87 8.72 50.07 C 9.29 50.44 10.41 51.18 10.98 51.55 C 12.08 51.12 13.19 50.70 14.30 50.27 C 14.60 47.86 14.92 45.46 15.26 43.05 C 16.19 45.35 17.65 48.39 15.66 50.57 C 14.13 53.11 10.97 52.67 8.46 52.50 Z" />
</g>
<g id="#572401ff">
<path fill="#572401" opacity="1.00" d=" M 23.09 47.03 C 27.81 43.59 34.72 43.21 39.66 46.37 C 41.37 47.38 40.59 49.26 40.16 50.76 C 39.95 49.98 39.53 48.41 39.32 47.63 C 35.40 46.16 31.11 46.06 27.02 46.74 C 25.19 47.10 24.29 48.94 23.15 50.22 C 23.14 49.42 23.11 47.83 23.09 47.03 Z" />
</g>
<g id="#a56910ff">
<path fill="#a56910" opacity="1.00" d=" M 23.15 50.22 C 24.29 48.94 25.19 47.10 27.02 46.74 C 31.11 46.06 35.40 46.16 39.32 47.63 C 39.53 48.41 39.95 49.98 40.16 50.76 L 40.26 51.13 C 34.43 50.27 28.57 51.37 22.78 50.70 L 23.15 50.22 Z" />
</g>
</svg>
