<?xml version="1.0" encoding="UTF-8" ?>
<!DOCTYPE svg PUBLIC "-//W3C//DTD SVG 1.1//EN" "http://www.w3.org/Graphics/SVG/1.1/DTD/svg11.dtd">
<svg width="64pt" height="64pt" viewBox="0 0 64 64" version="1.1" xmlns="http://www.w3.org/2000/svg">
<g id="#d7ae30ff">
<path fill="#d7ae30" opacity="1.00" d=" M 10.46 22.11 C 8.68 15.92 8.53 8.51 10.76 2.32 C 16.27 4.23 21.85 6.79 26.20 10.70 C 23.18 12.69 19.41 13.33 16.64 15.74 C 14.30 17.59 12.85 20.32 10.46 22.11 Z" />
</g>
<g id="#e8bb32ff">
<path fill="#e8bb32" opacity="1.00" d=" M 38.98 9.12 C 42.92 6.11 47.58 4.13 52.18 2.33 C 52.36 2.68 52.72 3.39 52.90 3.75 C 53.40 8.13 53.23 12.54 53.00 16.93 C 51.06 13.97 49.04 11.03 46.57 8.47 C 44.05 8.89 41.55 10.11 38.98 9.12 Z" />
</g>
<g id="#b9942bff">
<path fill="#b9942b" opacity="1.00" d=" M 52.90 3.75 C 54.84 9.24 54.04 15.34 53.40 21.04 C 53.62 21.50 54.06 22.40 54.28 22.86 C 50.51 19.20 47.75 13.94 42.12 12.84 C 40.24 12.19 38.33 11.58 36.49 10.83 C 37.20 10.24 37.91 9.65 38.63 9.08 L 38.98 9.12 C 41.55 10.11 44.05 8.89 46.57 8.47 C 49.04 11.03 51.06 13.97 53.00 16.93 C 53.23 12.54 53.40 8.13 52.90 3.75 Z" />
</g>
<g id="#fbcb43ff">
<path fill="#fbcb43" opacity="1.00" d=" M 16.64 15.74 C 19.41 13.33 23.18 12.69 26.20 10.70 C 29.62 10.88 33.07 10.37 36.49 10.83 C 38.33 11.58 40.24 12.19 42.12 12.84 C 43.62 14.62 46.76 15.85 46.42 18.57 C 44.95 18.04 41.97 16.62 41.32 18.94 C 44.88 20.91 48.15 23.43 50.52 26.77 C 52.09 28.59 53.20 30.71 54.04 32.95 C 48.93 32.87 43.23 32.82 39.06 36.24 C 37.26 38.10 34.62 39.90 34.26 42.60 C 35.83 44.01 37.73 45.04 39.14 46.63 C 39.16 47.16 39.19 48.21 39.21 48.74 C 36.68 44.93 31.53 42.77 27.47 45.62 C 26.14 42.08 24.28 38.76 22.96 35.21 C 22.37 34.14 21.77 33.08 21.18 32.02 C 22.88 32.62 24.16 31.51 25.11 30.30 C 25.89 31.19 26.71 32.05 27.55 32.88 C 27.84 34.19 28.15 35.50 28.58 36.77 C 30.09 39.30 33.88 39.37 35.40 36.80 C 35.75 35.88 36.07 34.95 36.35 34.00 C 35.98 33.14 35.35 32.53 34.47 32.16 C 35.09 30.28 35.60 28.37 36.19 26.48 C 36.89 26.97 37.57 27.48 38.24 28.00 C 38.72 30.07 40.06 32.90 42.69 31.96 C 45.73 29.73 45.67 24.45 42.47 22.36 C 41.29 20.37 41.03 18.00 40.03 15.96 C 37.69 14.24 34.89 13.19 32.05 12.69 C 28.33 12.89 24.75 14.26 21.52 16.07 C 21.88 16.67 22.24 17.28 22.61 17.87 C 17.24 17.13 12.48 22.30 11.70 27.31 C 13.52 28.84 14.09 25.98 15.18 25.14 C 17.25 22.38 20.26 20.60 23.21 18.92 C 22.61 20.14 21.92 21.31 21.25 22.48 C 19.71 23.84 18.78 25.95 19.14 28.01 C 19.13 30.24 22.17 31.68 19.74 33.68 C 16.13 32.84 12.36 33.63 8.67 33.25 C 8.22 29.96 10.63 26.79 9.49 23.44 L 9.43 22.89 L 10.46 22.11 C 12.85 20.32 14.30 17.59 16.64 15.74 Z" />
</g>
<g id="#fddd7cff">
<path fill="#fddd7c" opacity="1.00" d=" M 21.52 16.07 C 24.75 14.26 28.33 12.89 32.05 12.69 C 34.89 13.19 37.69 14.24 40.03 15.96 C 41.03 18.00 41.29 20.37 42.47 22.36 C 39.47 21.58 37.96 25.54 38.24 28.00 C 37.57 27.48 36.89 26.97 36.19 26.48 C 35.60 28.37 35.09 30.28 34.47 32.16 C 32.16 32.40 29.84 32.49 27.55 32.88 C 26.71 32.05 25.89 31.19 25.11 30.30 C 26.24 27.47 25.87 23.66 22.88 22.15 C 22.47 22.23 21.66 22.40 21.25 22.48 C 21.92 21.31 22.61 20.14 23.21 18.92 L 22.61 17.87 C 22.24 17.28 21.88 16.67 21.52 16.07 Z" />
</g>
<g id="#e6b72dff">
<path fill="#e6b72d" opacity="1.00" d=" M 42.12 12.84 C 47.75 13.94 50.51 19.20 54.28 22.86 C 54.50 23.32 54.95 24.26 55.18 24.73 C 55.31 27.47 55.80 30.17 56.22 32.88 C 55.68 32.90 54.59 32.94 54.04 32.95 C 53.20 30.71 52.09 28.59 50.52 26.77 C 50.95 27.02 51.79 27.51 52.21 27.76 C 52.81 23.68 49.33 20.76 46.42 18.57 C 46.76 15.85 43.62 14.62 42.12 12.84 Z" />
</g>
<g id="#7d6823ff">
<path fill="#7d6823" opacity="1.00" d=" M 11.70 27.31 C 12.48 22.30 17.24 17.13 22.61 17.87 L 23.21 18.92 C 20.26 20.60 17.25 22.38 15.18 25.14 C 14.09 25.98 13.52 28.84 11.70 27.31 Z" />
</g>
<g id="#7b6623ff">
<path fill="#7b6623" opacity="1.00" d=" M 41.32 18.94 C 41.97 16.62 44.95 18.04 46.42 18.57 C 49.33 20.76 52.81 23.68 52.21 27.76 C 51.79 27.51 50.95 27.02 50.52 26.77 C 48.15 23.43 44.88 20.91 41.32 18.94 Z" />
</g>
<g id="#323231ff">
<path fill="#323231" opacity="1.00" d=" M 21.25 22.48 C 21.66 22.40 22.47 22.23 22.88 22.15 C 25.87 23.66 26.24 27.47 25.11 30.30 C 24.16 31.51 22.88 32.62 21.18 32.02 C 21.77 33.08 22.37 34.14 22.96 35.21 C 22.51 34.67 21.61 33.59 21.16 33.06 C 19.58 33.54 19.39 35.74 17.64 35.95 C 15.08 35.91 12.52 35.78 9.99 35.44 C 12.15 35.38 14.29 35.85 16.44 35.53 C 16.84 34.82 16.70 34.32 16.02 34.03 C 13.65 33.26 11.10 33.71 8.67 33.25 C 12.36 33.63 16.13 32.84 19.74 33.68 C 22.17 31.68 19.13 30.24 19.14 28.01 C 18.78 25.95 19.71 23.84 21.25 22.48 M 21.77 24.29 C 21.11 25.93 21.56 26.56 23.10 26.18 C 23.61 24.58 23.16 23.95 21.77 24.29 Z" />
<path fill="#323231" opacity="1.00" d=" M 38.24 28.00 C 37.96 25.54 39.47 21.58 42.47 22.36 C 45.67 24.45 45.73 29.73 42.69 31.96 C 40.06 32.90 38.72 30.07 38.24 28.00 M 40.97 24.35 C 40.95 24.81 40.92 25.72 40.90 26.17 C 43.16 27.86 42.88 22.66 40.97 24.35 Z" />
</g>
<g id="#c49b27f9">
<path fill="#c49b27" opacity="0.98" d=" M 6.53 33.13 C 6.84 29.83 7.70 26.27 9.49 23.44 C 10.63 26.79 8.22 29.96 8.67 33.25 C 11.10 33.71 13.65 33.26 16.02 34.03 C 16.70 34.32 16.84 34.82 16.44 35.53 C 14.29 35.85 12.15 35.38 9.99 35.44 C 12.52 35.78 15.08 35.91 17.64 35.95 L 17.84 35.98 C 17.71 36.67 17.45 38.05 17.32 38.75 C 15.32 37.18 12.54 38.37 10.29 38.78 C 9.07 38.47 7.84 38.17 6.61 37.89 C 7.17 37.33 7.80 36.86 8.51 36.49 C 7.35 35.70 6.95 34.39 6.53 33.13 Z" />
</g>
<g id="#abe3feff">
<path fill="#abe3fe" opacity="1.00" d=" M 21.77 24.29 C 23.16 23.95 23.61 24.58 23.10 26.18 C 21.56 26.56 21.11 25.93 21.77 24.29 Z" />
<path fill="#abe3fe" opacity="1.00" d=" M 40.97 24.35 C 42.88 22.66 43.16 27.86 40.90 26.17 C 40.92 25.72 40.95 24.81 40.97 24.35 Z" />
<path fill="#abe3fe" opacity="1.00" d=" M 18.24 44.42 C 19.13 43.02 19.93 41.56 20.85 40.18 C 21.44 40.90 22.08 41.57 22.78 42.17 L 23.56 41.46 L 23.78 41.20 C 24.73 43.93 26.08 46.62 25.45 49.61 C 24.07 51.91 21.58 53.28 18.89 52.53 C 18.05 51.91 17.29 51.21 16.60 50.44 C 16.11 47.55 16.34 44.44 17.83 41.86 C 17.94 42.50 18.14 43.78 18.24 44.42 Z" />
</g>
<g id="#b9942eff">
<path fill="#b9942e" opacity="1.00" d=" M 55.18 24.73 C 56.38 27.63 57.19 30.68 57.62 33.79 C 57.75 35.50 57.82 37.21 57.85 38.92 L 57.83 39.58 L 57.57 39.78 C 56.90 39.63 55.57 39.34 54.90 39.20 C 49.99 37.18 44.71 38.29 39.62 38.54 C 39.48 37.97 39.20 36.81 39.06 36.24 C 43.23 32.82 48.93 32.87 54.04 32.95 C 54.59 32.94 55.68 32.90 56.22 32.88 C 55.80 30.17 55.31 27.47 55.18 24.73 M 45.93 34.40 C 48.91 35.22 52.10 35.20 55.13 34.67 C 52.27 33.40 48.94 34.05 45.93 34.40 M 45.96 36.50 C 49.67 37.07 53.43 37.06 57.08 38.01 C 54.26 35.25 49.59 35.85 45.96 36.50 Z" />
</g>
<g id="#b6a18cff">
<path fill="#b6a18c" opacity="1.00" d=" M 27.55 32.88 C 29.84 32.49 32.16 32.40 34.47 32.16 C 35.35 32.53 35.98 33.14 36.35 34.00 C 36.07 34.95 35.75 35.88 35.40 36.80 L 35.90 34.95 C 34.58 35.47 33.28 36.02 32.00 36.63 C 30.71 36.04 29.43 35.46 28.14 34.88 L 28.58 36.77 C 28.15 35.50 27.84 34.19 27.55 32.88 Z" />
</g>
<g id="#957a25ee">
<path fill="#957a25" opacity="0.93" d=" M 15.00 51.75 C 8.11 48.88 3.71 40.07 6.53 33.13 C 6.95 34.39 7.35 35.70 8.51 36.49 C 7.80 36.86 7.17 37.33 6.61 37.89 C 7.84 38.17 9.07 38.47 10.29 38.78 C 9.56 38.98 8.09 39.37 7.35 39.57 C 7.57 43.46 10.60 46.64 13.41 49.09 C 13.73 47.34 13.83 45.50 14.79 43.96 C 13.49 46.55 14.70 49.14 15.00 51.75 Z" />
</g>
<g id="#2479b8fd">
<path fill="#2479b8" opacity="1.00" d=" M 17.64 35.95 C 19.39 35.74 19.58 33.54 21.16 33.06 C 21.61 33.59 22.51 34.67 22.96 35.21 C 24.28 38.76 26.14 42.08 27.47 45.62 C 27.37 47.10 27.30 48.58 27.19 50.07 L 26.67 50.94 C 24.95 53.32 22.03 55.40 18.96 54.22 C 17.60 53.62 16.46 52.64 15.19 51.89 L 15.00 51.76 L 15.00 51.75 C 14.70 49.14 13.49 46.55 14.79 43.96 C 15.69 42.25 16.51 40.50 17.32 38.75 C 17.45 38.05 17.71 36.67 17.84 35.98 L 17.64 35.95 M 20.33 36.00 C 19.45 37.93 18.64 39.90 17.83 41.86 C 16.34 44.44 16.11 47.55 16.60 50.44 C 17.29 51.21 18.05 51.91 18.89 52.53 C 21.58 53.28 24.07 51.91 25.45 49.61 C 26.08 46.62 24.73 43.93 23.78 41.20 L 23.56 41.46 C 22.52 39.82 22.74 36.16 20.33 36.00 Z" />
</g>
<g id="#dfb22fff">
<path fill="#dfb22f" opacity="1.00" d=" M 45.93 34.40 C 48.94 34.05 52.27 33.40 55.13 34.67 C 52.10 35.20 48.91 35.22 45.93 34.40 Z" />
</g>
<g id="#100c0139">
<path fill="#100c01" opacity="0.22" d=" M 57.62 33.79 C 58.10 34.12 59.05 34.77 59.52 35.10 C 59.50 35.48 59.45 36.24 59.42 36.61 C 60.34 37.44 61.94 37.68 62.25 39.04 C 61.62 39.03 60.35 39.03 59.72 39.03 C 60.62 40.14 62.24 40.80 62.41 42.37 C 60.74 41.86 59.12 41.07 57.89 39.81 L 57.85 38.92 C 57.82 37.21 57.75 35.50 57.62 33.79 Z" />
</g>
<g id="#cdeefdff">
<path fill="#cdeefd" opacity="1.00" d=" M 20.33 36.00 C 22.74 36.16 22.52 39.82 23.56 41.46 L 22.78 42.17 C 22.08 41.57 21.44 40.90 20.85 40.18 C 19.93 41.56 19.13 43.02 18.24 44.42 C 18.14 43.78 17.94 42.50 17.83 41.86 C 18.64 39.90 19.45 37.93 20.33 36.00 Z" />
</g>
<g id="#60491fff">
<path fill="#60491f" opacity="1.00" d=" M 28.14 34.88 C 29.43 35.46 30.71 36.04 32.00 36.63 C 33.28 36.02 34.58 35.47 35.90 34.95 L 35.40 36.80 C 33.88 39.37 30.09 39.30 28.58 36.77 L 28.14 34.88 Z" />
</g>
<g id="#fac632ff">
<path fill="#fac632" opacity="1.00" d=" M 34.26 42.60 C 34.62 39.90 37.26 38.10 39.06 36.24 C 39.20 36.81 39.48 37.97 39.62 38.54 C 44.71 38.29 49.99 37.18 54.90 39.20 C 54.67 40.91 54.54 42.65 54.20 44.35 C 52.75 46.27 49.27 46.41 49.09 49.20 C 46.08 50.17 43.74 52.39 40.93 53.76 C 36.85 55.21 32.37 56.16 28.06 55.22 C 26.44 54.53 26.83 52.35 26.67 50.94 L 27.19 50.07 C 31.42 47.95 36.30 49.48 40.23 51.54 C 39.90 50.60 39.56 49.67 39.21 48.74 C 39.19 48.21 39.16 47.16 39.14 46.63 C 37.73 45.04 35.83 44.01 34.26 42.60 Z" />
</g>
<g id="#d9ad2cff">
<path fill="#d9ad2c" opacity="1.00" d=" M 45.96 36.50 C 49.59 35.85 54.26 35.25 57.08 38.01 C 53.43 37.06 49.67 37.07 45.96 36.50 Z" />
</g>
<g id="#f3c02aff">
<path fill="#f3c02a" opacity="1.00" d=" M 10.29 38.78 C 12.54 38.37 15.32 37.18 17.32 38.75 C 16.51 40.50 15.69 42.25 14.79 43.96 C 13.83 45.50 13.73 47.34 13.41 49.09 C 10.60 46.64 7.57 43.46 7.35 39.57 C 8.09 39.37 9.56 38.98 10.29 38.78 Z" />
</g>
<g id="#c29820ff">
<path fill="#c29820" opacity="1.00" d=" M 54.90 39.20 C 55.57 39.34 56.90 39.63 57.57 39.78 C 57.57 46.60 51.17 50.88 45.70 53.74 C 40.73 56.18 35.67 60.02 29.88 59.29 C 27.64 58.33 25.26 57.67 23.18 56.38 C 21.83 55.55 20.39 54.90 18.96 54.22 C 22.03 55.40 24.95 53.32 26.67 50.94 C 26.83 52.35 26.44 54.53 28.06 55.22 C 32.37 56.16 36.85 55.21 40.93 53.76 C 43.74 52.39 46.08 50.17 49.09 49.20 C 49.27 46.41 52.75 46.27 54.20 44.35 C 54.54 42.65 54.67 40.91 54.90 39.20 Z" />
</g>
<g id="#252629ff">
<path fill="#252629" opacity="1.00" d=" M 27.47 45.62 C 31.53 42.77 36.68 44.93 39.21 48.74 C 39.56 49.67 39.90 50.60 40.23 51.54 C 36.30 49.48 31.42 47.95 27.19 50.07 C 27.30 48.58 27.37 47.10 27.47 45.62 Z" />
</g>
<g id="#08070336">
<path fill="#080703" opacity="0.21" d=" M 15.19 51.89 C 16.46 52.64 17.60 53.62 18.96 54.22 C 20.39 54.90 21.83 55.55 23.18 56.38 C 20.06 57.96 14.74 56.13 15.19 51.89 Z" />
</g>
</svg>
