<?xml version="1.0" encoding="UTF-8" ?>
<!DOCTYPE svg PUBLIC "-//W3C//DTD SVG 1.1//EN" "http://www.w3.org/Graphics/SVG/1.1/DTD/svg11.dtd">
<svg width="64pt" height="64pt" viewBox="0 0 64 64" version="1.1" xmlns="http://www.w3.org/2000/svg">
<g id="#f59319ff">
<path fill="#f59319" opacity="1.00" d=" M 10.85 13.93 C 16.70 6.97 26.10 3.25 35.12 4.35 C 46.38 5.44 56.16 14.13 59.03 25.00 C 58.88 25.76 58.59 27.26 58.45 28.01 C 55.38 20.86 51.92 12.19 43.56 10.02 C 36.35 6.47 27.67 6.47 20.45 10.01 C 13.24 11.95 8.94 18.98 6.80 25.68 C 5.99 27.20 7.58 28.41 8.60 29.29 C 10.71 30.92 12.92 32.52 15.45 33.42 C 18.30 32.89 21.04 31.67 23.99 31.78 C 30.67 31.90 37.35 31.64 44.02 31.94 C 44.31 32.36 44.90 33.19 45.20 33.60 C 38.14 33.51 31.09 33.61 24.03 33.52 C 21.92 33.58 19.55 33.23 17.76 34.63 L 17.94 35.87 C 17.49 35.87 16.58 35.86 16.13 35.86 C 12.55 33.82 8.99 31.70 5.78 29.11 C 5.57 28.80 5.15 28.19 4.94 27.88 C 4.67 22.74 7.73 17.86 10.85 13.93 Z" />
</g>
<g id="#ffeec9ff">
<path fill="#ffeec9" opacity="1.00" d=" M 20.45 10.01 C 27.67 6.47 36.35 6.47 43.56 10.02 C 44.59 10.81 45.61 11.62 46.60 12.46 C 42.81 13.33 38.90 13.48 35.02 13.30 C 29.16 13.04 23.19 14.00 17.44 12.42 C 18.42 11.60 19.43 10.79 20.45 10.01 Z" />
</g>
<g id="#ffc639ff">
<path fill="#ffc639" opacity="1.00" d=" M 6.80 25.68 C 8.94 18.98 13.24 11.95 20.45 10.01 C 19.43 10.79 18.42 11.60 17.44 12.42 C 15.44 14.12 13.74 16.13 12.32 18.32 C 10.78 21.26 11.13 24.59 11.82 27.71 C 12.28 27.54 13.21 27.19 13.67 27.02 C 13.76 27.65 13.96 28.90 14.05 29.53 C 20.35 29.75 25.58 25.03 31.90 25.38 C 38.31 24.99 43.62 29.62 49.96 29.57 C 50.05 28.93 50.24 27.64 50.33 27.00 C 50.78 27.18 51.69 27.53 52.14 27.71 C 52.92 24.57 53.22 21.23 51.67 18.27 C 50.25 16.11 48.56 14.15 46.60 12.46 C 45.61 11.62 44.59 10.81 43.56 10.02 C 51.92 12.19 55.38 20.86 58.45 28.01 C 54.53 30.76 50.81 34.75 45.73 34.92 C 45.60 34.59 45.33 33.93 45.20 33.60 C 44.90 33.19 44.31 32.36 44.02 31.94 C 37.35 31.64 30.67 31.90 23.99 31.78 C 21.04 31.67 18.30 32.89 15.45 33.42 C 12.92 32.52 10.71 30.92 8.60 29.29 C 7.58 28.41 5.99 27.20 6.80 25.68 Z" />
</g>
<g id="#ffe4a2ff">
<path fill="#ffe4a2" opacity="1.00" d=" M 12.32 18.32 C 13.74 16.13 15.44 14.12 17.44 12.42 C 23.19 14.00 29.16 13.04 35.02 13.30 C 38.90 13.48 42.81 13.33 46.60 12.46 C 48.56 14.15 50.25 16.11 51.67 18.27 C 45.57 19.87 39.26 18.92 33.06 18.89 C 26.14 18.74 19.18 19.51 12.32 18.32 Z" />
</g>
<g id="#ffda7aff">
<path fill="#ffda7a" opacity="1.00" d=" M 11.82 27.71 C 11.13 24.59 10.78 21.26 12.32 18.32 C 19.18 19.51 26.14 18.74 33.06 18.89 C 39.26 18.92 45.57 19.87 51.67 18.27 C 53.22 21.23 52.92 24.57 52.14 27.71 C 51.69 27.53 50.78 27.18 50.33 27.00 C 47.02 23.80 40.66 20.59 37.02 24.92 C 41.31 26.54 45.70 27.87 49.96 29.57 C 43.62 29.62 38.31 24.99 31.90 25.38 C 25.58 25.03 20.35 29.75 14.05 29.53 C 18.34 27.88 22.74 26.54 27.01 24.84 C 23.26 20.68 16.99 23.77 13.67 27.02 C 13.21 27.19 12.28 27.54 11.82 27.71 Z" />
</g>
<g id="#87540dff">
<path fill="#87540d" opacity="1.00" d=" M 13.67 27.02 C 16.99 23.77 23.26 20.68 27.01 24.84 C 22.74 26.54 18.34 27.88 14.05 29.53 C 13.96 28.90 13.76 27.65 13.67 27.02 Z" />
<path fill="#87540d" opacity="1.00" d=" M 37.02 24.92 C 40.66 20.59 47.02 23.80 50.33 27.00 C 50.24 27.64 50.05 28.93 49.96 29.57 C 45.70 27.87 41.31 26.54 37.02 24.92 Z" />
<path fill="#87540d" opacity="1.00" d=" M 59.03 25.00 C 59.25 26.14 59.49 27.28 59.72 28.42 C 55.31 31.23 50.86 33.98 46.62 37.06 C 46.66 37.91 46.74 39.63 46.78 40.49 C 51.20 37.63 55.56 34.67 59.79 31.53 C 59.83 33.83 59.88 36.19 59.31 38.44 C 58.80 39.87 58.31 41.30 57.69 42.69 C 54.17 43.13 50.65 43.54 47.13 44.02 C 47.01 44.78 46.76 46.30 46.64 47.06 C 49.79 46.69 52.94 46.22 56.10 45.88 C 55.64 46.70 55.15 47.50 54.62 48.28 C 51.47 47.25 47.55 47.27 45.85 50.64 C 46.27 45.42 46.50 40.12 45.73 34.92 C 50.81 34.75 54.53 30.76 58.45 28.01 C 58.59 27.26 58.88 25.76 59.03 25.00 M 46.74 43.37 C 49.96 42.82 53.37 42.94 56.43 41.72 C 59.38 40.48 58.70 36.73 58.96 34.17 C 54.69 36.81 49.26 38.78 46.74 43.37 Z" />
<path fill="#87540d" opacity="1.00" d=" M 4.12 31.54 C 8.21 34.56 12.42 37.41 16.64 40.24 C 16.89 40.42 17.41 40.77 17.67 40.94 C 17.76 44.16 17.82 47.38 18.15 50.58 C 16.38 47.15 12.38 47.55 9.13 47.89 C 8.63 47.14 8.16 46.36 7.72 45.58 C 10.93 46.22 14.17 46.73 17.42 47.09 C 17.26 46.31 16.95 44.74 16.79 43.96 C 13.35 43.51 9.90 43.18 6.44 43.01 C 5.78 41.49 5.20 39.94 4.67 38.37 C 4.13 36.14 4.19 33.82 4.12 31.54 M 6.23 40.81 C 9.18 43.22 13.31 42.41 16.76 43.55 C 16.67 43.06 16.51 42.09 16.43 41.60 C 13.12 38.63 9.06 36.62 5.45 34.03 C 5.19 36.28 4.71 38.88 6.23 40.81 Z" />
<path fill="#87540d" opacity="1.00" d=" M 16.13 35.86 C 16.58 35.86 17.49 35.87 17.94 35.87 L 17.89 36.78 L 17.24 37.06 C 16.96 36.76 16.40 36.16 16.13 35.86 Z" />
</g>
<g id="#fafafaff">
<path fill="#fafafa" opacity="1.00" d=" M 46.62 37.06 C 50.86 33.98 55.31 31.23 59.72 28.42 C 59.73 29.45 59.75 30.49 59.79 31.53 C 55.56 34.67 51.20 37.63 46.78 40.49 C 46.74 39.63 46.66 37.91 46.62 37.06 Z" />
<path fill="#fafafa" opacity="1.00" d=" M 17.76 34.63 C 26.88 33.78 36.04 34.23 45.18 34.20 C 45.12 36.92 45.10 39.65 45.05 42.38 C 40.92 40.63 36.40 41.29 32.05 41.27 C 27.75 41.31 23.32 40.76 19.19 42.26 C 18.81 40.13 18.39 37.99 17.94 35.87 L 17.76 34.63 Z" />
</g>
<g id="#e9e9e9ff">
<path fill="#e9e9e9" opacity="1.00" d=" M 4.12 31.54 C 3.93 30.15 4.24 29.23 5.05 28.80 L 5.78 29.11 C 8.99 31.70 12.55 33.82 16.13 35.86 C 16.40 36.16 16.96 36.76 17.24 37.06 C 17.09 37.86 16.79 39.45 16.64 40.24 C 12.42 37.41 8.21 34.56 4.12 31.54 Z" />
<path fill="#e9e9e9" opacity="1.00" d=" M 17.76 34.63 C 19.55 33.23 21.92 33.58 24.03 33.52 C 31.09 33.61 38.14 33.51 45.20 33.60 C 45.33 33.93 45.60 34.59 45.73 34.92 C 46.50 40.12 46.27 45.42 45.85 50.64 L 45.62 51.85 C 36.55 51.97 27.47 52.00 18.39 51.84 L 18.15 50.58 C 17.82 47.38 17.76 44.16 17.67 40.94 C 17.75 39.55 17.83 38.16 17.89 36.78 L 17.94 35.87 C 18.39 37.99 18.81 40.13 19.19 42.26 C 23.32 40.76 27.75 41.31 32.05 41.27 C 36.40 41.29 40.92 40.63 45.05 42.38 C 45.10 39.65 45.12 36.92 45.18 34.20 C 36.04 34.23 26.88 33.78 17.76 34.63 Z" />
</g>
<g id="#fba620ff">
<path fill="#fba620" opacity="1.00" d=" M 6.23 40.81 C 4.71 38.88 5.19 36.28 5.45 34.03 C 9.06 36.62 13.12 38.63 16.43 41.60 C 16.51 42.09 16.67 43.06 16.76 43.55 C 13.31 42.41 9.18 43.22 6.23 40.81 Z" />
</g>
<g id="#faa620ff">
<path fill="#faa620" opacity="1.00" d=" M 46.74 43.37 C 49.26 38.78 54.69 36.81 58.96 34.17 C 58.70 36.73 59.38 40.48 56.43 41.72 C 53.37 42.94 49.96 42.82 46.74 43.37 Z" />
</g>
<g id="#0000004d">
<path fill="#000000" opacity="0.30" d=" M 4.67 38.37 C 5.20 39.94 5.78 41.49 6.44 43.01 C 6.85 43.88 7.27 44.73 7.72 45.58 C 8.16 46.36 8.63 47.14 9.13 47.89 C 15.99 57.83 29.52 62.40 40.94 58.32 C 46.43 56.51 51.11 52.81 54.62 48.28 C 55.15 47.50 55.64 46.70 56.10 45.88 C 56.61 44.81 57.13 43.74 57.69 42.69 C 58.31 41.30 58.80 39.87 59.31 38.44 C 59.37 39.98 59.67 41.59 59.04 43.06 C 55.89 51.47 49.10 58.78 40.29 61.24 C 29.39 64.81 16.37 60.77 9.64 51.42 C 6.89 47.67 3.91 43.26 4.67 38.37 Z" />
</g>
<g id="#ffffffff">
<path fill="#ffffff" opacity="1.00" d=" M 6.44 43.01 C 9.90 43.18 13.35 43.51 16.79 43.96 C 16.95 44.74 17.26 46.31 17.42 47.09 C 14.17 46.73 10.93 46.22 7.72 45.58 C 7.27 44.73 6.85 43.88 6.44 43.01 Z" />
<path fill="#ffffff" opacity="1.00" d=" M 47.13 44.02 C 50.65 43.54 54.17 43.13 57.69 42.69 C 57.13 43.74 56.61 44.81 56.10 45.88 C 52.94 46.22 49.79 46.69 46.64 47.06 C 46.76 46.30 47.01 44.78 47.13 44.02 Z" />
</g>
<g id="#f48116ff">
<path fill="#f48116" opacity="1.00" d=" M 9.13 47.89 C 12.38 47.55 16.38 47.15 18.15 50.58 L 18.39 51.84 C 18.47 52.25 18.61 53.09 18.68 53.50 C 27.51 53.52 36.41 53.98 45.20 53.30 C 45.31 52.94 45.52 52.21 45.62 51.85 L 45.85 50.64 C 47.55 47.27 51.47 47.25 54.62 48.28 C 51.11 52.81 46.43 56.51 40.94 58.32 C 29.52 62.40 15.99 57.83 9.13 47.89 Z" />
</g>
<g id="#c15a16ff">
<path fill="#c15a16" opacity="1.00" d=" M 18.39 51.84 C 27.47 52.00 36.55 51.97 45.62 51.85 C 45.52 52.21 45.31 52.94 45.20 53.30 C 36.41 53.98 27.51 53.52 18.68 53.50 C 18.61 53.09 18.47 52.25 18.39 51.84 Z" />
</g>
</svg>
