<?xml version="1.0" encoding="UTF-8" ?>
<!DOCTYPE svg PUBLIC "-//W3C//DTD SVG 1.1//EN" "http://www.w3.org/Graphics/SVG/1.1/DTD/svg11.dtd">
<svg width="64pt" height="64pt" viewBox="0 0 64 64" version="1.1" xmlns="http://www.w3.org/2000/svg">
<g id="#c29b26ef">
<path fill="#c29b26" opacity="0.94" d=" M 33.02 11.18 C 38.04 9.88 39.06 1.53 44.83 2.04 C 46.08 6.92 46.13 12.01 46.00 17.02 C 44.10 15.81 40.47 14.90 41.11 12.02 C 41.00 10.47 43.24 7.02 40.17 8.10 C 43.18 16.56 36.92 12.74 33.17 12.00 L 33.02 11.18 Z" />
</g>
<g id="#e7ba33fd">
<path fill="#e7ba33" opacity="1.00" d=" M 25.91 4.94 C 25.91 2.71 31.22 1.78 29.85 4.66 C 25.28 7.32 27.34 14.46 28.23 18.97 C 29.91 18.44 31.49 17.65 33.15 17.08 C 31.67 18.70 30.35 20.81 28.03 21.23 C 25.88 16.09 26.05 10.40 25.91 4.94 Z" />
</g>
<g id="#c69d25fc">
<path fill="#c69d25" opacity="1.00" d=" M 23.20 9.86 C 23.00 7.96 24.18 5.78 25.91 4.94 C 26.05 10.40 25.88 16.09 28.03 21.23 C 26.72 21.69 25.36 22.04 23.96 22.08 C 23.00 18.05 23.68 13.91 23.20 9.86 Z" />
</g>
<g id="#d6ab2cfc">
<path fill="#d6ab2c" opacity="1.00" d=" M 28.23 18.97 C 27.34 14.46 25.28 7.32 29.85 4.66 C 32.42 5.65 32.31 8.94 33.02 11.18 L 33.17 12.00 C 33.41 13.35 33.76 14.68 34.07 16.01 C 33.84 16.28 33.38 16.82 33.15 17.08 C 31.49 17.65 29.91 18.44 28.23 18.97 Z" />
</g>
<g id="#e5b833fd">
<path fill="#e5b833" opacity="1.00" d=" M 40.17 8.10 C 43.24 7.02 41.00 10.47 41.11 12.02 C 40.47 14.90 44.10 15.81 46.00 17.02 C 48.69 18.66 51.05 21.16 52.00 24.21 C 51.85 25.68 51.51 28.08 53.65 28.11 C 55.60 29.88 55.18 32.92 56.21 35.22 C 54.83 35.81 53.44 36.36 52.06 36.94 C 49.04 34.27 49.68 39.25 48.89 40.88 C 47.61 40.72 45.07 40.41 43.80 40.25 C 45.22 40.17 46.64 40.04 48.06 39.87 C 48.28 36.82 44.39 36.27 42.10 35.91 L 41.95 35.01 L 41.95 34.09 C 43.91 35.24 46.36 35.32 47.44 32.97 C 48.86 31.24 48.57 27.56 47.25 25.78 C 45.97 24.43 44.52 23.27 43.03 22.17 C 44.65 21.18 42.19 18.76 41.30 17.68 C 39.36 16.46 35.66 12.62 34.07 16.01 C 33.76 14.68 33.41 13.35 33.17 12.00 C 36.92 12.74 43.18 16.56 40.17 8.10 Z" />
</g>
<g id="#b58d1ffa">
<path fill="#b58d1f" opacity="0.98" d=" M 19.42 14.77 C 20.68 13.57 21.61 11.04 23.20 9.86 C 23.68 13.91 23.00 18.05 23.96 22.08 C 21.92 22.34 21.06 20.33 19.98 19.00 C 19.84 17.59 19.68 16.17 19.42 14.77 Z" />
</g>
<g id="#fcd96fff">
<path fill="#fcd96f" opacity="1.00" d=" M 34.07 16.01 C 35.66 12.62 39.36 16.46 41.30 17.68 C 42.19 18.76 44.65 21.18 43.03 22.17 C 40.11 22.24 36.27 20.70 34.78 23.89 C 35.89 25.08 37.51 25.58 38.88 26.39 C 36.83 29.23 34.17 31.61 32.96 35.00 C 31.94 35.43 30.92 35.83 29.89 36.21 C 28.33 36.63 26.65 37.12 27.69 39.03 L 26.70 39.24 C 24.05 34.76 19.76 32.32 15.54 29.68 C 14.71 25.59 14.56 21.02 18.12 18.20 C 18.58 18.40 19.52 18.80 19.98 19.00 C 21.06 20.33 21.92 22.34 23.96 22.08 C 25.36 22.04 26.72 21.69 28.03 21.23 C 30.35 20.81 31.67 18.70 33.15 17.08 C 33.38 16.82 33.84 16.28 34.07 16.01 Z" />
</g>
<g id="#efc034fe">
<path fill="#efc034" opacity="1.00" d=" M 8.93 30.03 C 9.11 23.66 13.36 17.10 19.42 14.77 C 19.68 16.17 19.84 17.59 19.98 19.00 C 19.52 18.80 18.58 18.40 18.12 18.20 C 14.56 21.02 14.71 25.59 15.54 29.68 C 19.76 32.32 24.05 34.76 26.70 39.24 C 26.76 40.49 27.15 41.68 27.50 42.87 C 30.38 42.02 33.19 40.94 36.14 40.29 C 38.69 40.21 41.24 40.19 43.80 40.25 C 45.07 40.41 47.61 40.72 48.89 40.88 C 49.68 39.25 49.04 34.27 52.06 36.94 L 52.05 38.01 C 52.02 39.44 51.99 40.96 52.92 42.16 C 53.07 43.84 53.00 45.53 50.82 45.36 C 50.17 45.23 48.87 44.95 48.22 44.81 C 45.14 44.32 41.70 43.24 38.71 44.72 C 36.75 45.44 34.81 46.41 33.53 48.12 C 33.00 48.96 32.81 49.92 32.96 51.00 C 35.56 51.49 37.70 49.96 39.85 48.79 C 41.71 48.79 45.42 48.78 47.27 48.78 C 46.79 52.48 42.23 53.12 39.36 54.40 C 24.22 59.21 7.85 45.61 8.93 30.03 Z" />
</g>
<g id="#806a24ff">
<path fill="#806a24" opacity="1.00" d=" M 34.78 23.89 C 36.27 20.70 40.11 22.24 43.03 22.17 C 44.52 23.27 45.97 24.43 47.25 25.78 C 45.81 25.83 44.37 25.87 42.94 25.89 C 40.27 25.02 37.55 24.32 34.78 23.89 Z" />
</g>
<g id="#f9cd4dff">
<path fill="#f9cd4d" opacity="1.00" d=" M 34.78 23.89 C 37.55 24.32 40.27 25.02 42.94 25.89 C 42.79 26.39 42.51 27.39 42.37 27.89 C 42.00 29.93 41.95 32.01 41.95 34.09 L 41.95 35.01 C 38.95 34.99 35.95 34.97 32.96 35.00 C 34.17 31.61 36.83 29.23 38.88 26.39 C 37.51 25.58 35.89 25.08 34.78 23.89 Z" />
</g>
<g id="#7e641bf4">
<path fill="#7e641b" opacity="0.96" d=" M 52.00 24.21 C 53.94 23.69 54.87 26.85 53.65 28.11 C 51.51 28.08 51.85 25.68 52.00 24.21 Z" />
</g>
<g id="#413d33ff">
<path fill="#413d33" opacity="1.00" d=" M 42.94 25.89 C 44.37 25.87 45.81 25.83 47.25 25.78 C 48.57 27.56 48.86 31.24 47.44 32.97 C 44.08 33.53 42.50 30.95 42.37 27.89 C 42.51 27.39 42.79 26.39 42.94 25.89 Z" />
</g>
<g id="#1e1c15ff">
<path fill="#1e1c15" opacity="1.00" d=" M 42.37 27.89 C 42.50 30.95 44.08 33.53 47.44 32.97 C 46.36 35.32 43.91 35.24 41.95 34.09 C 41.95 32.01 42.00 29.93 42.37 27.89 Z" />
</g>
<g id="#ae881ced">
<path fill="#ae881c" opacity="0.93" d=" M 8.00 30.00 L 8.93 30.03 C 7.85 45.61 24.22 59.21 39.36 54.40 C 42.23 53.12 46.79 52.48 47.27 48.78 C 48.29 49.08 49.31 49.40 50.32 49.74 C 47.82 53.39 43.66 56.89 39.02 57.03 C 36.00 57.01 32.99 57.01 29.98 57.01 C 16.76 56.09 5.95 43.37 8.00 30.00 Z" />
</g>
<g id="#cfa837ff">
<path fill="#cfa837" opacity="1.00" d=" M 29.89 36.21 C 30.92 35.83 31.94 35.43 32.96 35.00 C 35.95 34.97 38.95 34.99 41.95 35.01 L 42.10 35.91 C 39.86 36.42 37.62 36.91 35.37 37.38 C 31.56 38.75 42.06 36.59 42.19 38.92 C 43.56 40.60 31.71 37.34 36.14 40.29 C 33.19 40.94 30.38 42.02 27.50 42.87 C 27.15 41.68 26.76 40.49 26.70 39.24 L 27.69 39.03 C 29.49 38.69 31.27 38.24 33.04 37.80 C 32.27 36.85 30.93 36.74 29.89 36.21 Z" />
</g>
<g id="#b6a490f1">
<path fill="#b6a490" opacity="0.95" d=" M 56.21 35.22 C 58.06 35.79 61.29 36.94 58.95 39.09 C 56.62 38.89 54.32 38.53 52.05 38.01 L 52.06 36.94 C 53.44 36.36 54.83 35.81 56.21 35.22 Z" />
</g>
<g id="#e8c55dff">
<path fill="#e8c55d" opacity="1.00" d=" M 27.69 39.03 C 26.65 37.12 28.33 36.63 29.89 36.21 C 30.93 36.74 32.27 36.85 33.04 37.80 C 31.27 38.24 29.49 38.69 27.69 39.03 Z" />
</g>
<g id="#a68120ff">
<path fill="#a68120" opacity="1.00" d=" M 35.37 37.38 C 37.62 36.91 39.86 36.42 42.10 35.91 C 44.39 36.27 48.28 36.82 48.06 39.87 C 46.64 40.04 45.22 40.17 43.80 40.25 C 41.24 40.19 38.69 40.21 36.14 40.29 C 31.71 37.34 43.56 40.60 42.19 38.92 C 42.06 36.59 31.56 38.75 35.37 37.38 Z" />
</g>
<g id="#7b5e33fa">
<path fill="#7b5e33" opacity="0.98" d=" M 52.05 38.01 C 54.32 38.53 56.62 38.89 58.95 39.09 C 57.60 40.37 56.53 43.33 55.23 43.67 C 54.47 43.15 53.70 42.65 52.92 42.16 C 51.99 40.96 52.02 39.44 52.05 38.01 Z" />
</g>
<g id="#a47f1afd">
<path fill="#a47f1a" opacity="1.00" d=" M 52.92 42.16 C 53.70 42.65 54.47 43.15 55.23 43.67 C 54.89 44.28 54.20 45.49 53.85 46.10 C 52.84 45.87 51.83 45.63 50.82 45.36 C 53.00 45.53 53.07 43.84 52.92 42.16 Z" />
</g>
<g id="#997920ff">
<path fill="#997920" opacity="1.00" d=" M 38.71 44.72 C 41.70 43.24 45.14 44.32 48.22 44.81 C 45.05 44.80 41.88 44.88 38.71 44.72 Z" />
</g>
<g id="#201e18fc">
<path fill="#201e18" opacity="1.00" d=" M 33.53 48.12 C 34.81 46.41 36.75 45.44 38.71 44.72 C 41.88 44.88 45.05 44.80 48.22 44.81 C 48.87 44.95 50.17 45.23 50.82 45.36 C 51.83 45.63 52.84 45.87 53.85 46.10 C 53.76 47.26 53.15 47.88 52.03 47.95 C 45.85 46.40 39.55 46.96 33.53 48.12 Z" />
</g>
<g id="#3b372dfc">
<path fill="#3b372d" opacity="1.00" d=" M 33.53 48.12 C 39.55 46.96 45.85 46.40 52.03 47.95 C 51.75 49.16 51.18 49.76 50.32 49.74 C 49.31 49.40 48.29 49.08 47.27 48.78 C 45.14 47.17 41.71 46.71 39.85 48.79 C 37.70 49.96 35.56 51.49 32.96 51.00 C 32.81 49.92 33.00 48.96 33.53 48.12 Z" />
</g>
<g id="#6c5c2dff">
<path fill="#6c5c2d" opacity="1.00" d=" M 39.85 48.79 C 41.71 46.71 45.14 47.17 47.27 48.78 C 45.42 48.78 41.71 48.79 39.85 48.79 Z" />
</g>
<g id="#281e053e">
<path fill="#281e05" opacity="0.24" d=" M 29.98 57.01 C 32.99 57.01 36.00 57.01 39.02 57.03 C 38.86 60.25 32.47 57.25 30.03 57.96 L 29.98 57.01 Z" />
</g>
</svg>
