<?xml version="1.0" encoding="UTF-8" ?>
<!DOCTYPE svg PUBLIC "-//W3C//DTD SVG 1.1//EN" "http://www.w3.org/Graphics/SVG/1.1/DTD/svg11.dtd">
<svg width="64pt" height="64pt" viewBox="0 0 64 64" version="1.1" xmlns="http://www.w3.org/2000/svg">
<g id="#f1c333ff">
<path fill="#f1c333" opacity="1.00" d=" M 10.62 2.27 C 13.51 3.30 16.41 4.38 19.06 5.96 C 19.86 6.97 20.62 8.02 21.38 9.07 C 18.79 8.55 16.22 7.94 13.67 7.26 C 14.10 10.44 12.47 13.06 10.25 15.16 C 9.98 12.37 9.71 9.59 9.58 6.79 C 9.68 5.24 10.22 3.76 10.62 2.27 Z" />
</g>
<g id="#eebe2eff">
<path fill="#eebe2e" opacity="1.00" d=" M 43.85 6.06 C 46.57 4.48 49.54 3.39 52.46 2.23 C 54.83 8.44 53.56 15.22 53.64 21.68 C 53.45 21.26 53.08 20.42 52.89 20.00 C 53.60 15.39 49.78 11.73 50.19 7.13 C 47.33 7.84 44.46 8.47 41.55 8.98 C 42.30 7.99 43.05 7.01 43.85 6.06 Z" />
</g>
<g id="#ba962aff">
<path fill="#ba962a" opacity="1.00" d=" M 19.06 5.96 C 21.93 7.25 24.51 9.07 27.05 10.91 C 24.26 11.82 21.49 12.81 18.79 13.95 C 15.22 15.92 12.61 19.15 10.02 22.21 C 9.17 17.12 8.80 11.91 9.58 6.79 C 9.71 9.59 9.98 12.37 10.25 15.16 C 12.47 13.06 14.10 10.44 13.67 7.26 C 16.22 7.94 18.79 8.55 21.38 9.07 C 20.62 8.02 19.86 6.97 19.06 5.96 Z" />
</g>
<g id="#c19b2cff">
<path fill="#c19b2c" opacity="1.00" d=" M 36.53 10.78 C 38.82 8.98 41.23 7.33 43.85 6.06 C 43.05 7.01 42.30 7.99 41.55 8.98 C 44.46 8.47 47.33 7.84 50.19 7.13 C 49.78 11.73 53.60 15.39 52.89 20.00 C 51.92 19.27 50.98 18.49 50.03 17.73 C 46.16 14.34 41.33 12.42 36.53 10.78 Z" />
</g>
<g id="#efc84dff">
<path fill="#efc84d" opacity="1.00" d=" M 18.79 13.95 C 21.49 12.81 24.26 11.82 27.05 10.91 C 30.16 10.37 33.39 10.40 36.53 10.78 C 41.33 12.42 46.16 14.34 50.03 17.73 C 47.16 17.06 44.27 17.70 41.63 18.90 C 39.80 13.51 33.19 12.80 28.34 13.45 C 25.22 13.72 22.77 15.78 20.69 17.94 L 20.04 17.73 C 19.08 17.43 18.12 17.12 17.16 16.81 C 17.70 15.85 18.25 14.90 18.79 13.95 Z" />
</g>
<g id="#fddf83ff">
<path fill="#fddf83" opacity="1.00" d=" M 28.34 13.45 C 33.19 12.80 39.80 13.51 41.63 18.90 C 38.93 20.67 36.04 23.43 37.84 26.89 C 36.83 28.53 35.88 30.24 34.60 31.69 C 31.20 32.95 27.65 31.82 25.60 28.84 C 26.12 27.08 26.70 25.35 27.39 23.66 C 25.75 21.14 23.48 19.10 20.69 17.94 C 22.77 15.78 25.22 13.72 28.34 13.45 Z" />
</g>
<g id="#d3a829fc">
<path fill="#d3a829" opacity="1.00" d=" M 10.02 22.21 C 12.61 19.15 15.22 15.92 18.79 13.95 C 18.25 14.90 17.70 15.85 17.16 16.81 C 18.12 17.12 19.08 17.43 20.04 17.73 C 18.44 17.68 16.84 17.72 15.25 17.89 C 15.01 18.23 14.51 18.92 14.27 19.26 C 11.06 23.26 10.32 28.39 9.04 33.19 C 8.35 33.26 6.95 33.40 6.25 33.46 C 7.17 29.63 7.87 25.59 10.02 22.21 Z" />
</g>
<g id="#826c27ff">
<path fill="#826c27" opacity="1.00" d=" M 15.25 17.89 C 16.84 17.72 18.44 17.68 20.04 17.73 L 20.69 17.94 C 23.48 19.10 25.75 21.14 27.39 23.66 C 26.70 25.35 26.12 27.08 25.60 28.84 C 25.51 29.12 25.33 29.69 25.24 29.98 C 25.70 26.72 25.31 22.74 21.56 21.82 C 19.19 20.80 16.72 20.04 14.27 19.26 C 14.51 18.92 15.01 18.23 15.25 17.89 Z" />
</g>
<g id="#7f6a26ff">
<path fill="#7f6a26" opacity="1.00" d=" M 41.63 18.90 C 44.27 17.70 47.16 17.06 50.03 17.73 C 49.82 18.24 49.39 19.26 49.17 19.77 C 46.93 20.36 44.69 21.00 42.52 21.83 C 38.57 22.40 38.25 26.73 38.72 29.94 C 38.39 28.93 38.10 27.91 37.84 26.89 C 36.04 23.43 38.93 20.67 41.63 18.90 Z" />
</g>
<g id="#d7a925ff">
<path fill="#d7a925" opacity="1.00" d=" M 50.03 17.73 C 50.98 18.49 51.92 19.27 52.89 20.00 C 53.08 20.42 53.45 21.26 53.64 21.68 C 55.79 25.44 57.00 29.67 57.60 33.94 C 57.64 34.46 57.73 35.49 57.78 36.01 C 56.99 34.58 55.76 33.50 54.31 32.77 C 53.45 28.16 52.62 23.25 49.17 19.77 C 49.39 19.26 49.82 18.24 50.03 17.73 Z" />
</g>
<g id="#fbcc42ff">
<path fill="#fbcc42" opacity="1.00" d=" M 9.04 33.19 C 10.32 28.39 11.06 23.26 14.27 19.26 C 16.72 20.04 19.19 20.80 21.56 21.82 C 19.35 24.20 18.11 27.93 20.17 30.81 C 21.38 33.01 24.44 32.00 25.24 29.98 C 25.33 29.69 25.51 29.12 25.60 28.84 C 27.65 31.82 31.20 32.95 34.60 31.69 C 35.88 30.24 36.83 28.53 37.84 26.89 C 38.10 27.91 38.39 28.93 38.72 29.94 C 39.53 31.97 42.63 33.04 43.85 30.79 C 45.88 27.92 44.64 24.25 42.52 21.83 C 44.69 21.00 46.93 20.36 49.17 19.77 C 52.62 23.25 53.45 28.16 54.31 32.77 C 48.59 32.94 41.24 32.59 37.87 38.23 C 36.79 39.54 35.63 40.80 34.47 42.05 C 36.02 43.34 37.51 44.70 38.95 46.12 C 34.04 48.09 28.69 48.44 23.45 48.26 C 24.69 46.53 25.99 44.79 26.78 42.80 C 27.16 40.80 26.11 38.88 25.46 37.04 C 21.06 32.97 14.68 32.73 9.04 33.19 M 27.78 33.12 C 27.79 34.10 27.80 35.08 27.81 36.06 L 28.17 36.10 C 29.49 39.28 33.65 39.36 35.80 36.98 L 35.32 36.65 C 37.06 36.54 36.08 34.19 36.18 33.03 C 33.48 33.97 30.43 34.51 27.78 33.12 Z" />
</g>
<g id="#2e291aff">
<path fill="#2e291a" opacity="1.00" d=" M 21.56 21.82 C 25.31 22.74 25.70 26.72 25.24 29.98 C 24.44 32.00 21.38 33.01 20.17 30.81 C 18.11 27.93 19.35 24.20 21.56 21.82 M 21.34 26.17 C 21.39 27.48 21.58 28.78 22.04 30.01 C 22.47 29.68 23.32 29.02 23.75 28.68 C 23.77 27.39 23.78 26.10 23.80 24.80 L 23.51 25.20 C 23.47 22.88 20.02 24.53 21.34 26.17 Z" />
</g>
<g id="#2f2a1aff">
<path fill="#2f2a1a" opacity="1.00" d=" M 38.72 29.94 C 38.25 26.73 38.57 22.40 42.52 21.83 C 44.64 24.25 45.88 27.92 43.85 30.79 C 42.63 33.04 39.53 31.97 38.72 29.94 M 40.45 25.22 L 40.08 24.74 C 40.30 26.44 39.92 28.46 41.24 29.81 C 43.05 29.50 42.63 27.52 42.63 26.18 C 44.02 24.54 40.55 22.90 40.45 25.22 Z" />
</g>
<g id="#989898ff">
<path fill="#989898" opacity="1.00" d=" M 21.34 26.17 C 20.02 24.53 23.47 22.88 23.51 25.20 C 22.97 25.45 21.89 25.93 21.34 26.17 Z" />
<path fill="#989898" opacity="1.00" d=" M 40.45 25.22 C 40.55 22.90 44.02 24.54 42.63 26.18 C 42.09 25.94 41.00 25.46 40.45 25.22 Z" />
</g>
<g id="#3e3d3cff">
<path fill="#3e3d3c" opacity="1.00" d=" M 23.51 25.20 L 23.80 24.80 C 23.78 26.10 23.77 27.39 23.75 28.68 C 23.32 29.02 22.47 29.68 22.04 30.01 C 21.58 28.78 21.39 27.48 21.34 26.17 C 21.89 25.93 22.97 25.45 23.51 25.20 Z" />
<path fill="#3e3d3c" opacity="1.00" d=" M 40.08 24.74 L 40.45 25.22 C 41.00 25.46 42.09 25.94 42.63 26.18 C 42.63 27.52 43.05 29.50 41.24 29.81 C 39.92 28.46 40.30 26.44 40.08 24.74 Z" />
</g>
<g id="#ac8627ff">
<path fill="#ac8627" opacity="1.00" d=" M 6.25 33.46 C 6.95 33.40 8.35 33.26 9.04 33.19 C 14.68 32.73 21.06 32.97 25.46 37.04 C 25.03 37.44 24.16 38.24 23.73 38.63 C 19.46 38.10 15.10 37.63 10.85 38.61 C 10.90 38.06 11.01 36.98 11.07 36.44 C 13.42 36.71 15.80 36.80 18.16 36.59 C 15.39 36.27 12.61 36.01 9.84 35.63 C 12.03 35.04 14.25 34.58 16.49 34.20 C 13.86 33.97 11.22 34.13 8.65 34.70 C 8.66 35.23 8.70 36.28 8.72 36.80 C 8.31 36.94 7.49 37.22 7.08 37.36 C 8.38 37.73 9.61 38.29 10.77 38.98 C 9.86 39.26 8.05 39.81 7.15 40.08 L 5.93 40.47 L 5.95 39.73 L 6.00 38.82 L 6.03 38.01 C 6.06 37.29 6.12 35.85 6.15 35.13 C 6.18 34.71 6.23 33.88 6.25 33.46 Z" />
</g>
<g id="#a58962ff">
<path fill="#a58962" opacity="1.00" d=" M 27.78 33.12 C 30.43 34.51 33.48 33.97 36.18 33.03 C 36.08 34.19 37.06 36.54 35.32 36.65 C 35.10 36.51 34.66 36.23 34.44 36.09 C 33.85 36.22 32.67 36.49 32.08 36.62 C 30.77 36.45 29.47 36.25 28.17 36.10 L 27.81 36.06 C 27.80 35.08 27.79 34.10 27.78 33.12 Z" />
</g>
<g id="#b08b27ff">
<path fill="#b08b27" opacity="1.00" d=" M 37.87 38.23 C 41.24 32.59 48.59 32.94 54.31 32.77 C 55.76 33.50 56.99 34.58 57.78 36.01 C 57.79 36.74 57.81 38.19 57.83 38.92 C 57.70 39.17 57.46 39.68 57.34 39.94 C 56.74 39.73 55.54 39.33 54.94 39.12 C 49.43 37.05 43.56 38.69 37.87 38.23 M 46.68 34.40 C 49.43 34.90 52.67 35.81 55.20 34.24 C 52.37 33.84 49.50 33.91 46.68 34.40 M 45.86 36.45 C 49.66 36.96 53.49 37.38 57.28 37.98 C 54.08 35.27 49.68 35.86 45.86 36.45 Z" />
</g>
<g id="#120b003f">
<path fill="#120b00" opacity="0.25" d=" M 3.96 34.99 C 4.52 34.77 5.64 34.32 6.20 34.10 L 6.15 35.13 C 6.12 35.85 6.06 37.29 6.03 38.01 C 5.56 38.27 4.62 38.79 4.15 39.05 C 3.47 39.09 2.11 39.17 1.43 39.21 C 2.33 38.06 3.51 37.21 4.74 36.45 C 4.54 36.09 4.15 35.36 3.96 34.99 Z" />
</g>
<g id="#f8c52fff">
<path fill="#f8c52f" opacity="1.00" d=" M 8.65 34.70 C 11.22 34.13 13.86 33.97 16.49 34.20 C 14.25 34.58 12.03 35.04 9.84 35.63 C 12.61 36.01 15.39 36.27 18.16 36.59 C 15.80 36.80 13.42 36.71 11.07 36.44 C 11.01 36.98 10.90 38.06 10.85 38.61 C 15.10 37.63 19.46 38.10 23.73 38.63 C 24.16 38.24 25.03 37.44 25.46 37.04 C 26.11 38.88 27.16 40.80 26.78 42.80 C 25.99 44.79 24.69 46.53 23.45 48.26 C 23.02 48.51 22.16 49.00 21.73 49.24 C 27.29 51.18 33.40 50.32 39.13 49.71 C 43.18 49.46 43.18 44.42 43.01 41.42 C 41.63 42.96 40.36 44.59 38.95 46.12 C 37.51 44.70 36.02 43.34 34.47 42.05 C 35.63 40.80 36.79 39.54 37.87 38.23 C 43.56 38.69 49.43 37.05 54.94 39.12 C 54.60 41.92 54.60 45.16 52.00 46.93 C 49.28 50.18 44.25 50.11 41.85 53.64 C 38.04 54.74 34.08 55.89 30.08 55.30 C 27.56 55.06 25.05 54.46 22.51 54.58 C 21.19 53.45 19.65 52.60 18.24 51.57 C 18.60 51.32 19.32 50.83 19.68 50.58 C 13.48 50.74 9.54 45.07 7.15 40.08 C 8.05 39.81 9.86 39.26 10.77 38.98 C 9.61 38.29 8.38 37.73 7.08 37.36 C 7.49 37.22 8.31 36.94 8.72 36.80 C 8.70 36.28 8.66 35.23 8.65 34.70 Z" />
</g>
<g id="#e2b430ff">
<path fill="#e2b430" opacity="1.00" d=" M 46.68 34.40 C 49.50 33.91 52.37 33.84 55.20 34.24 C 52.67 35.81 49.43 34.90 46.68 34.40 Z" />
</g>
<g id="#0f0a0035">
<path fill="#0f0a00" opacity="0.21" d=" M 57.60 33.94 C 58.13 34.20 59.20 34.73 59.74 35.00 C 59.66 35.39 59.51 36.18 59.43 36.57 C 60.47 37.34 61.50 38.13 62.52 38.95 C 61.84 38.96 60.48 38.99 59.80 39.00 C 61.09 40.17 62.29 41.44 63.27 42.88 C 61.42 42.03 59.28 41.40 57.97 39.76 L 57.83 38.92 C 57.81 38.19 57.79 36.74 57.78 36.01 C 57.73 35.49 57.64 34.46 57.60 33.94 Z" />
</g>
<g id="#523d1dff">
<path fill="#523d1d" opacity="1.00" d=" M 28.17 36.10 C 29.47 36.25 30.77 36.45 32.08 36.62 C 32.67 36.49 33.85 36.22 34.44 36.09 C 34.66 36.23 35.10 36.51 35.32 36.65 L 35.80 36.98 C 33.65 39.36 29.49 39.28 28.17 36.10 Z" />
</g>
<g id="#d8ac2bff">
<path fill="#d8ac2b" opacity="1.00" d=" M 45.86 36.45 C 49.68 35.86 54.08 35.27 57.28 37.98 C 53.49 37.38 49.66 36.96 45.86 36.45 Z" />
</g>
<g id="#120c003e">
<path fill="#120c00" opacity="0.24" d=" M 4.15 39.05 C 4.61 38.99 5.53 38.87 6.00 38.82 L 5.95 39.73 C 4.44 41.06 2.62 41.96 0.83 42.86 C 1.56 41.30 2.66 39.93 4.15 39.05 Z" />
</g>
<g id="#ca9f24ff">
<path fill="#ca9f24" opacity="1.00" d=" M 54.94 39.12 C 55.54 39.33 56.74 39.73 57.34 39.94 C 57.74 43.83 54.90 47.51 51.95 49.84 C 46.62 53.37 41.02 56.61 35.03 58.88 C 30.36 60.71 25.85 57.54 21.73 55.71 L 22.51 54.58 C 25.05 54.46 27.56 55.06 30.08 55.30 C 34.08 55.89 38.04 54.74 41.85 53.64 C 44.25 50.11 49.28 50.18 52.00 46.93 C 54.60 45.16 54.60 41.92 54.94 39.12 Z" />
</g>
<g id="#ac861beb">
<path fill="#ac861b" opacity="0.92" d=" M 5.93 40.47 L 7.15 40.08 C 9.54 45.07 13.48 50.74 19.68 50.58 C 19.32 50.83 18.60 51.32 18.24 51.57 C 19.65 52.60 21.19 53.45 22.51 54.58 L 21.61 55.72 C 15.20 52.19 7.39 48.49 5.93 40.47 Z" />
</g>
<g id="#303030ff">
<path fill="#303030" opacity="1.00" d=" M 38.95 46.12 C 40.36 44.59 41.63 42.96 43.01 41.42 C 43.18 44.42 43.18 49.46 39.13 49.71 C 33.40 50.32 27.29 51.18 21.73 49.24 C 22.16 49.00 23.02 48.51 23.45 48.26 C 28.69 48.44 34.04 48.09 38.95 46.12 Z" />
</g>
</svg>
