<?xml version="1.0" encoding="UTF-8" ?>
<!DOCTYPE svg PUBLIC "-//W3C//DTD SVG 1.1//EN" "http://www.w3.org/Graphics/SVG/1.1/DTD/svg11.dtd">
<svg width="64pt" height="64pt" viewBox="0 0 64 64" version="1.1" xmlns="http://www.w3.org/2000/svg">
<g id="#f79b1cff">
<path fill="#f79b1c" opacity="1.00" d=" M 6.91 19.91 C 11.28 10.81 20.87 4.39 31.02 4.22 C 40.54 3.72 50.02 8.72 55.22 16.67 C 58.94 22.17 60.39 28.97 59.67 35.54 C 58.44 44.20 53.12 52.23 45.39 56.40 C 37.04 61.08 26.25 60.95 18.02 56.07 C 5.67 49.22 0.62 32.53 6.91 19.91 M 19.70 10.68 C 17.61 12.24 14.81 13.60 14.12 16.31 C 13.80 16.65 13.16 17.33 12.84 17.66 L 11.94 17.47 C 11.70 18.56 11.42 19.66 11.26 20.77 C 7.35 23.11 7.14 28.24 7.37 32.31 C 7.44 39.24 9.33 46.62 14.78 51.29 C 25.35 61.50 44.91 59.60 52.81 47.00 C 57.20 39.53 59.20 29.81 55.21 21.73 C 53.74 19.20 52.51 15.80 49.37 15.00 C 42.33 6.60 28.94 4.99 19.70 10.68 Z" />
</g>
<g id="#ffeec9ff">
<path fill="#ffeec9" opacity="1.00" d=" M 19.70 10.68 C 28.94 4.99 42.33 6.60 49.37 15.00 L 50.00 16.10 C 46.60 13.72 42.39 12.83 38.36 13.97 C 34.15 12.64 29.82 12.62 25.61 13.95 C 21.63 12.93 17.25 13.50 14.12 16.31 C 14.81 13.60 17.61 12.24 19.70 10.68 Z" />
</g>
<g id="#ffe6a9ff">
<path fill="#ffe6a9" opacity="1.00" d=" M 25.61 13.95 C 29.82 12.62 34.15 12.64 38.36 13.97 C 38.12 14.48 37.64 15.49 37.40 16.00 C 41.03 15.82 44.73 15.95 48.06 17.56 C 43.58 19.20 38.65 17.89 33.98 18.25 C 28.00 17.86 21.81 19.20 15.98 17.55 C 19.30 15.93 23.01 15.83 26.62 16.00 C 26.37 15.49 25.86 14.46 25.61 13.95 Z" />
</g>
<g id="#673f12ff">
<path fill="#673f12" opacity="1.00" d=" M 14.12 16.31 C 17.25 13.50 21.63 12.93 25.61 13.95 C 25.86 14.46 26.37 15.49 26.62 16.00 C 23.01 15.83 19.30 15.93 15.98 17.55 C 14.96 17.88 13.88 18.00 12.84 17.66 C 13.16 17.33 13.80 16.65 14.12 16.31 Z" />
<path fill="#673f12" opacity="1.00" d=" M 38.36 13.97 C 42.39 12.83 46.60 13.72 50.00 16.10 C 50.30 16.59 50.92 17.58 51.22 18.07 C 50.17 17.91 49.12 17.73 48.06 17.56 C 44.73 15.95 41.03 15.82 37.40 16.00 C 37.64 15.49 38.12 14.48 38.36 13.97 Z" />
</g>
<g id="#ffd229ff">
<path fill="#ffd229" opacity="1.00" d=" M 49.37 15.00 C 52.51 15.80 53.74 19.20 55.21 21.73 C 59.20 29.81 57.20 39.53 52.81 47.00 C 44.91 59.60 25.35 61.50 14.78 51.29 C 9.33 46.62 7.44 39.24 7.37 32.31 C 9.65 34.03 12.30 34.60 15.04 33.64 C 15.39 33.95 16.08 34.58 16.42 34.89 C 16.69 35.13 17.23 35.62 17.50 35.86 C 19.08 35.04 20.59 34.09 22.09 33.14 C 23.59 34.11 25.09 35.10 26.64 36.00 C 26.88 35.78 27.37 35.32 27.62 35.09 C 28.00 34.72 28.77 33.97 29.16 33.60 C 31.05 33.67 32.94 33.67 34.84 33.60 C 35.23 33.98 36.00 34.72 36.39 35.09 C 36.63 35.31 37.12 35.76 37.36 35.98 C 38.93 35.11 40.44 34.13 41.96 33.17 C 43.47 34.13 44.97 35.10 46.54 35.96 C 46.84 35.66 47.45 35.08 47.75 34.78 C 48.05 34.49 48.65 33.91 48.94 33.62 C 51.23 33.92 54.40 35.27 55.58 32.41 C 57.05 28.80 54.49 25.05 53.25 21.70 C 52.65 20.45 51.98 19.23 51.22 18.07 C 50.92 17.58 50.30 16.59 50.00 16.10 L 49.37 15.00 M 24.02 48.95 C 25.41 54.25 32.49 56.61 36.78 53.16 C 37.48 52.94 37.92 52.29 38.35 51.73 C 42.73 46.52 38.31 38.39 31.95 37.97 C 26.80 38.25 22.31 43.81 24.02 48.95 Z" />
</g>
<g id="#ffdc82ff">
<path fill="#ffdc82" opacity="1.00" d=" M 11.94 17.47 L 12.84 17.66 C 13.88 18.00 14.96 17.88 15.98 17.55 C 21.81 19.20 28.00 17.86 33.98 18.25 C 38.65 17.89 43.58 19.20 48.06 17.56 C 49.12 17.73 50.17 17.91 51.22 18.07 C 51.98 19.23 52.65 20.45 53.25 21.70 C 52.98 23.21 52.66 24.72 52.39 26.24 C 49.68 26.37 46.98 26.86 44.47 27.95 C 45.98 26.56 47.42 25.11 48.89 23.67 C 48.10 23.03 47.30 22.42 46.51 21.79 C 45.00 23.37 43.45 24.92 41.90 26.45 C 40.35 24.79 38.68 23.25 37.01 21.71 C 36.31 22.37 35.62 23.05 34.93 23.73 C 36.60 25.35 38.26 26.99 39.93 28.62 L 39.35 29.16 C 37.39 27.15 35.13 24.84 32.03 25.28 C 28.91 24.83 26.62 27.09 24.70 29.18 C 24.54 29.03 24.23 28.74 24.07 28.59 C 25.75 26.98 27.41 25.35 29.06 23.72 C 28.39 23.04 27.71 22.37 27.01 21.71 C 25.34 23.26 23.63 24.76 22.11 26.46 C 20.54 24.90 18.97 23.34 17.41 21.76 C 16.65 22.40 15.89 23.04 15.13 23.67 C 16.60 25.12 18.04 26.58 19.55 27.99 C 16.89 26.86 14.12 26.03 11.36 25.19 C 11.30 23.71 11.27 22.24 11.26 20.77 C 11.42 19.66 11.70 18.56 11.94 17.47 Z" />
</g>
<g id="#0100003f">
<path fill="#010000" opacity="0.25" d=" M 3.54 32.97 C 3.73 28.50 3.98 23.54 6.91 19.91 C 0.62 32.53 5.67 49.22 18.02 56.07 C 26.25 60.95 37.04 61.08 45.39 56.40 C 53.12 52.23 58.44 44.20 59.67 35.54 C 60.98 37.43 59.96 39.66 59.50 41.62 C 56.57 52.22 47.21 60.89 36.24 62.40 C 31.48 62.76 26.50 62.84 22.03 60.89 C 10.82 56.77 2.82 44.96 3.54 32.97 Z" />
</g>
<g id="#ffca3cff">
<path fill="#ffca3c" opacity="1.00" d=" M 7.37 32.31 C 7.14 28.24 7.35 23.11 11.26 20.77 C 11.27 22.24 11.30 23.71 11.36 25.19 C 14.12 26.03 16.89 26.86 19.55 27.99 L 20.23 28.54 C 18.42 30.16 16.69 31.86 15.04 33.64 C 12.30 34.60 9.65 34.03 7.37 32.31 Z" />
<path fill="#ffca3c" opacity="1.00" d=" M 53.25 21.70 C 54.49 25.05 57.05 28.80 55.58 32.41 C 54.40 35.27 51.23 33.92 48.94 33.62 C 47.29 31.85 45.56 30.15 43.76 28.53 L 44.47 27.95 C 46.98 26.86 49.68 26.37 52.39 26.24 C 52.66 24.72 52.98 23.21 53.25 21.70 Z" />
</g>
<g id="#9e6110ff">
<path fill="#9e6110" opacity="1.00" d=" M 15.13 23.67 C 15.89 23.04 16.65 22.40 17.41 21.76 C 18.97 23.34 20.54 24.90 22.11 26.46 C 23.63 24.76 25.34 23.26 27.01 21.71 C 27.71 22.37 28.39 23.04 29.06 23.72 C 27.41 25.35 25.75 26.98 24.07 28.59 C 24.23 28.74 24.54 29.03 24.70 29.18 C 26.22 30.62 27.71 32.09 29.16 33.60 C 28.77 33.97 28.00 34.72 27.62 35.09 C 25.11 34.71 23.90 31.98 22.09 30.45 C 20.64 31.99 19.20 33.56 17.69 35.05 C 17.37 35.01 16.74 34.93 16.42 34.89 C 16.08 34.58 15.39 33.95 15.04 33.64 C 16.69 31.86 18.42 30.16 20.23 28.54 L 19.55 27.99 C 18.04 26.58 16.60 25.12 15.13 23.67 Z" />
<path fill="#9e6110" opacity="1.00" d=" M 34.93 23.73 C 35.62 23.05 36.31 22.37 37.01 21.71 C 38.68 23.25 40.35 24.79 41.90 26.45 C 43.45 24.92 45.00 23.37 46.51 21.79 C 47.30 22.42 48.10 23.03 48.89 23.67 C 47.42 25.11 45.98 26.56 44.47 27.95 L 43.76 28.53 C 45.56 30.15 47.29 31.85 48.94 33.62 C 48.65 33.91 48.05 34.49 47.75 34.78 C 47.40 34.86 46.70 35.02 46.35 35.10 C 44.83 33.59 43.38 32.01 41.91 30.46 C 40.10 31.99 38.88 34.69 36.39 35.09 C 36.00 34.72 35.23 33.98 34.84 33.60 C 36.29 32.07 37.81 30.60 39.35 29.16 L 39.93 28.62 C 38.26 26.99 36.60 25.35 34.93 23.73 Z" />
</g>
<g id="#ffcb3cff">
<path fill="#ffcb3c" opacity="1.00" d=" M 24.70 29.18 C 26.62 27.09 28.91 24.83 32.03 25.28 C 35.13 24.84 37.39 27.15 39.35 29.16 C 37.81 30.60 36.29 32.07 34.84 33.60 C 32.94 33.67 31.05 33.67 29.16 33.60 C 27.71 32.09 26.22 30.62 24.70 29.18 Z" />
</g>
<g id="#f7e14bff">
<path fill="#f7e14b" opacity="1.00" d=" M 17.69 35.05 C 19.20 33.56 20.64 31.99 22.09 30.45 C 23.90 31.98 25.11 34.71 27.62 35.09 C 27.37 35.32 26.88 35.78 26.64 36.00 C 25.09 35.10 23.59 34.11 22.09 33.14 C 20.59 34.09 19.08 35.04 17.50 35.86 C 17.23 35.62 16.69 35.13 16.42 34.89 C 16.74 34.93 17.37 35.01 17.69 35.05 Z" />
</g>
<g id="#f7e14aff">
<path fill="#f7e14a" opacity="1.00" d=" M 36.39 35.09 C 38.88 34.69 40.10 31.99 41.91 30.46 C 43.38 32.01 44.83 33.59 46.35 35.10 C 46.70 35.02 47.40 34.86 47.75 34.78 C 47.45 35.08 46.84 35.66 46.54 35.96 C 44.97 35.10 43.47 34.13 41.96 33.17 C 40.44 34.13 38.93 35.11 37.36 35.98 C 37.12 35.76 36.63 35.31 36.39 35.09 Z" />
</g>
<g id="#71410cff">
<path fill="#71410c" opacity="1.00" d=" M 24.02 48.95 C 22.31 43.81 26.80 38.25 31.95 37.97 C 38.31 38.39 42.73 46.52 38.35 51.73 C 38.55 48.08 38.84 43.09 34.79 41.35 C 30.02 38.51 24.59 43.73 25.24 48.70 C 26.22 50.42 27.13 52.42 29.03 53.30 C 31.00 54.05 33.13 53.60 35.15 53.39 L 36.78 53.16 C 32.49 56.61 25.41 54.25 24.02 48.95 Z" />
</g>
<g id="#a0530dff">
<path fill="#a0530d" opacity="1.00" d=" M 25.24 48.70 C 24.59 43.73 30.02 38.51 34.79 41.35 C 38.84 43.09 38.55 48.08 38.35 51.73 C 37.92 52.29 37.48 52.94 36.78 53.16 L 35.15 53.39 C 35.97 51.81 36.82 50.24 37.66 48.66 C 33.71 46.74 29.30 47.79 25.24 48.70 Z" />
</g>
<g id="#b07413ff">
<path fill="#b07413" opacity="1.00" d=" M 25.24 48.70 C 29.30 47.79 33.71 46.74 37.66 48.66 C 36.82 50.24 35.97 51.81 35.15 53.39 C 33.13 53.60 31.00 54.05 29.03 53.30 C 27.13 52.42 26.22 50.42 25.24 48.70 Z" />
</g>
</svg>
