<?xml version="1.0" encoding="UTF-8" ?>
<!DOCTYPE svg PUBLIC "-//W3C//DTD SVG 1.1//EN" "http://www.w3.org/Graphics/SVG/1.1/DTD/svg11.dtd">
<svg width="64pt" height="64pt" viewBox="0 0 64 64" version="1.1" xmlns="http://www.w3.org/2000/svg">
<g id="#00318aff">
<path fill="#00318a" opacity="1.00" d=" M 41.56 3.16 C 44.37 2.96 47.19 3.09 50.00 3.28 C 49.59 5.33 48.24 6.94 46.92 8.48 L 46.04 9.49 C 45.80 9.01 45.32 8.06 45.08 7.59 C 45.44 6.72 45.83 5.86 46.26 5.02 C 44.61 5.10 42.95 5.18 41.29 5.25 C 41.36 4.73 41.49 3.68 41.56 3.16 Z" />
<path fill="#00318a" opacity="1.00" d=" M 53.03 16.05 C 53.48 15.53 53.94 15.00 54.39 14.48 C 55.33 15.07 56.37 15.42 57.46 15.57 C 56.85 16.24 56.25 16.94 55.63 17.61 C 54.74 18.21 54.24 19.03 54.14 20.05 C 54.78 20.05 56.05 20.04 56.68 20.03 C 58.44 19.86 60.20 20.02 61.96 20.15 C 62.22 22.50 59.61 21.90 58.10 22.06 C 57.58 22.06 56.54 22.07 56.01 22.07 C 55.43 22.06 54.27 22.03 53.69 22.02 L 52.97 22.00 C 52.09 21.98 50.32 21.95 49.43 21.94 C 49.92 20.57 50.47 19.20 51.40 18.05 C 51.94 17.38 52.49 16.72 53.03 16.05 Z" />
</g>
<g id="#f8a41fff">
<path fill="#f8a41f" opacity="1.00" d=" M 4.20 31.98 C 3.78 17.91 15.87 5.00 29.88 4.28 C 35.07 3.76 40.18 5.07 44.88 7.21 C 44.17 8.04 43.48 8.88 42.79 9.73 C 42.27 9.51 41.22 9.08 40.69 8.87 C 31.96 5.43 21.50 7.67 14.92 14.35 C 13.33 16.27 12.10 18.44 10.80 20.56 C 7.02 24.70 5.68 30.81 8.04 35.99 C 8.68 41.62 10.53 47.30 14.90 51.14 C 21.82 57.84 32.92 60.13 41.67 55.84 C 45.55 53.84 49.88 52.12 52.55 48.50 C 58.14 41.05 59.00 30.73 56.01 22.07 C 56.54 22.07 57.58 22.06 58.10 22.06 C 60.70 29.42 60.46 37.92 56.72 44.85 C 51.84 54.54 40.89 60.76 30.05 59.76 C 15.90 59.22 3.71 46.14 4.20 31.98 Z" />
<path fill="#f8a41f" opacity="1.00" d=" M 54.14 20.05 C 54.24 19.03 54.74 18.21 55.63 17.61 C 55.89 18.22 56.42 19.43 56.68 20.03 C 56.05 20.04 54.78 20.05 54.14 20.05 Z" />
</g>
<g id="#ffecbdff">
<path fill="#ffecbd" opacity="1.00" d=" M 14.92 14.35 C 21.50 7.67 31.96 5.43 40.69 8.87 C 40.40 9.33 39.81 10.26 39.52 10.73 L 39.10 9.59 C 37.17 9.84 34.30 8.66 33.26 10.95 C 34.26 10.97 36.24 11.00 37.23 11.02 C 36.13 12.48 35.05 13.97 33.96 15.44 C 27.64 15.14 20.94 16.80 14.92 14.35 Z" />
</g>
<g id="#093078ff">
<path fill="#093078" opacity="1.00" d=" M 44.88 7.21 L 45.08 7.59 C 45.32 8.06 45.80 9.01 46.04 9.49 C 45.75 9.79 45.17 10.39 44.88 10.70 C 44.70 11.03 44.34 11.71 44.16 12.04 C 44.59 12.04 45.45 12.03 45.88 12.03 C 47.79 12.09 50.61 11.42 49.58 14.39 C 46.58 14.27 43.57 14.23 40.56 14.16 C 41.08 12.58 41.75 11.05 42.79 9.73 C 43.48 8.88 44.17 8.04 44.88 7.21 Z" />
</g>
<g id="#0145b5ff">
<path fill="#0145b5" opacity="1.00" d=" M 50.48 7.92 C 54.20 7.92 57.93 7.79 61.64 8.08 C 61.58 8.70 61.47 9.92 61.41 10.53 C 60.04 12.16 58.70 13.83 57.46 15.57 C 56.37 15.42 55.33 15.07 54.39 14.48 C 55.34 13.19 56.40 11.99 57.39 10.73 C 55.06 10.61 52.74 10.62 50.42 10.64 C 50.43 9.96 50.47 8.60 50.48 7.92 Z" />
</g>
<g id="#ffe6a9ff">
<path fill="#ffe6a9" opacity="1.00" d=" M 40.69 8.87 C 41.22 9.08 42.27 9.51 42.79 9.73 C 41.75 11.05 41.08 12.58 40.56 14.16 C 43.57 14.23 46.58 14.27 49.58 14.39 C 49.83 14.92 50.31 15.99 50.55 16.53 C 47.44 17.87 44.03 17.58 40.78 17.07 C 39.21 16.41 37.58 15.97 35.89 15.80 C 37.19 14.17 38.43 12.50 39.52 10.73 C 39.81 10.26 40.40 9.33 40.69 8.87 Z" />
</g>
<g id="#f9a822ff">
<path fill="#f9a822" opacity="1.00" d=" M 46.04 9.49 L 46.92 8.48 C 49.45 10.18 51.65 12.28 53.77 14.45 C 53.58 14.85 53.21 15.65 53.03 16.05 C 52.49 16.72 51.94 17.38 51.40 18.05 C 51.19 17.67 50.76 16.91 50.55 16.53 C 50.31 15.99 49.83 14.92 49.58 14.39 C 50.61 11.42 47.79 12.09 45.88 12.03 C 45.63 11.70 45.13 11.03 44.88 10.70 C 45.17 10.39 45.75 9.79 46.04 9.49 Z" />
</g>
<g id="#314360ff">
<path fill="#314360" opacity="1.00" d=" M 33.26 10.95 C 34.30 8.66 37.17 9.84 39.10 9.59 L 39.52 10.73 C 38.43 12.50 37.19 14.17 35.89 15.80 C 37.58 15.97 39.21 16.41 40.78 17.07 C 38.10 17.67 35.33 17.75 32.61 17.36 C 32.95 16.88 33.62 15.92 33.96 15.44 C 35.05 13.97 36.13 12.48 37.23 11.02 C 36.24 11.00 34.26 10.97 33.26 10.95 Z" />
</g>
<g id="#d1ba8aff">
<path fill="#d1ba8a" opacity="1.00" d=" M 44.16 12.04 C 44.34 11.71 44.70 11.03 44.88 10.70 C 45.13 11.03 45.63 11.70 45.88 12.03 C 45.45 12.03 44.59 12.04 44.16 12.04 Z" />
</g>
<g id="#ffdc82ff">
<path fill="#ffdc82" opacity="1.00" d=" M 10.80 20.56 C 12.10 18.44 13.33 16.27 14.92 14.35 C 20.94 16.80 27.64 15.14 33.96 15.44 C 33.62 15.92 32.95 16.88 32.61 17.36 C 35.33 17.75 38.10 17.67 40.78 17.07 C 44.03 17.58 47.44 17.87 50.55 16.53 C 50.76 16.91 51.19 17.67 51.40 18.05 C 50.47 19.20 49.92 20.57 49.43 21.94 C 50.32 21.95 52.09 21.98 52.97 22.00 C 52.94 22.67 52.86 24.01 52.82 24.68 C 50.94 24.01 48.98 23.47 46.97 23.52 C 37.31 23.54 27.65 23.66 18.00 23.47 C 15.60 23.36 13.25 23.93 10.98 24.65 C 10.87 23.29 10.81 21.92 10.80 20.56 Z" />
</g>
<g id="#ffcc3cff">
<path fill="#ffcc3c" opacity="1.00" d=" M 8.04 35.99 C 5.68 30.81 7.02 24.70 10.80 20.56 C 10.81 21.92 10.87 23.29 10.98 24.65 C 11.11 25.43 11.38 26.99 11.51 27.77 C 15.75 28.04 19.77 26.49 23.95 26.13 C 28.97 25.66 34.04 25.64 39.07 26.03 C 43.62 26.32 47.99 28.01 52.58 27.76 C 52.64 26.99 52.76 25.45 52.82 24.68 C 52.86 24.01 52.94 22.67 52.97 22.00 L 53.69 22.02 C 55.43 25.70 57.58 30.25 55.09 34.11 C 52.94 35.92 49.95 34.10 47.52 33.90 C 48.93 32.53 49.95 30.84 50.35 28.90 C 47.68 30.00 44.96 31.37 41.98 31.09 C 39.36 31.26 37.18 28.88 34.56 29.63 C 35.89 31.57 37.42 33.42 39.41 34.72 C 34.51 33.93 29.49 33.90 24.59 34.72 C 26.61 33.40 28.15 31.52 29.46 29.52 C 26.83 29.09 24.65 31.14 22.05 31.09 C 19.06 31.37 16.33 30.00 13.65 28.90 C 14.03 30.86 15.08 32.54 16.53 33.89 C 13.68 34.52 10.85 35.23 8.04 35.99 Z" />
</g>
<g id="#ffce29ff">
<path fill="#ffce29" opacity="1.00" d=" M 53.69 22.02 C 54.27 22.03 55.43 22.06 56.01 22.07 C 59.00 30.73 58.14 41.05 52.55 48.50 C 49.88 52.12 45.55 53.84 41.67 55.84 C 32.92 60.13 21.82 57.84 14.90 51.14 C 10.53 47.30 8.68 41.62 8.04 35.99 C 10.85 35.23 13.68 34.52 16.53 33.89 C 19.02 35.19 21.88 35.27 24.59 34.72 C 29.49 33.90 34.51 33.93 39.41 34.72 C 42.14 35.28 44.99 35.16 47.52 33.90 C 49.95 34.10 52.94 35.92 55.09 34.11 C 57.58 30.25 55.43 25.70 53.69 22.02 M 24.76 40.73 C 21.25 42.89 17.70 45.05 14.72 47.92 C 17.95 51.77 22.60 54.21 27.35 55.63 C 35.09 57.79 43.31 53.89 48.27 47.99 C 45.14 45.71 42.42 42.98 39.60 40.38 C 34.87 39.03 29.09 37.65 24.76 40.73 Z" />
</g>
<g id="#ffd35eff">
<path fill="#ffd35e" opacity="1.00" d=" M 10.98 24.65 C 13.25 23.93 15.60 23.36 18.00 23.47 C 27.65 23.66 37.31 23.54 46.97 23.52 C 48.98 23.47 50.94 24.01 52.82 24.68 C 52.76 25.45 52.64 26.99 52.58 27.76 C 47.99 28.01 43.62 26.32 39.07 26.03 C 34.04 25.64 28.97 25.66 23.95 26.13 C 19.77 26.49 15.75 28.04 11.51 27.77 C 11.38 26.99 11.11 25.43 10.98 24.65 Z" />
</g>
<g id="#91590cff">
<path fill="#91590c" opacity="1.00" d=" M 13.65 28.90 C 16.33 30.00 19.06 31.37 22.05 31.09 C 24.65 31.14 26.83 29.09 29.46 29.52 C 28.15 31.52 26.61 33.40 24.59 34.72 C 21.88 35.27 19.02 35.19 16.53 33.89 C 15.08 32.54 14.03 30.86 13.65 28.90 Z" />
<path fill="#91590c" opacity="1.00" d=" M 34.56 29.63 C 37.18 28.88 39.36 31.26 41.98 31.09 C 44.96 31.37 47.68 30.00 50.35 28.90 C 49.95 30.84 48.93 32.53 47.52 33.90 C 44.99 35.16 42.14 35.28 39.41 34.72 C 37.42 33.42 35.89 31.57 34.56 29.63 Z" />
</g>
<g id="#ffe02cff">
<path fill="#ffe02c" opacity="1.00" d=" M 24.76 40.73 C 29.09 37.65 34.87 39.03 39.60 40.38 C 42.42 42.98 45.14 45.71 48.27 47.99 C 43.31 53.89 35.09 57.79 27.35 55.63 C 22.60 54.21 17.95 51.77 14.72 47.92 C 17.70 45.05 21.25 42.89 24.76 40.73 M 30.36 41.41 C 27.34 42.45 26.65 46.09 28.01 48.71 C 30.11 50.41 33.01 50.72 35.29 49.16 L 35.20 48.77 C 38.60 45.56 34.45 39.55 30.36 41.41 Z" />
</g>
<g id="#6a3c06ff">
<path fill="#6a3c06" opacity="1.00" d=" M 30.36 41.41 C 34.45 39.55 38.60 45.56 35.20 48.77 C 34.58 46.93 34.61 43.58 31.95 43.52 C 29.22 43.43 29.09 46.94 28.01 48.71 C 26.65 46.09 27.34 42.45 30.36 41.41 Z" />
</g>
<g id="#ab7111ff">
<path fill="#ab7111" opacity="1.00" d=" M 28.01 48.71 C 29.09 46.94 29.22 43.43 31.95 43.52 C 34.61 43.58 34.58 46.93 35.20 48.77 L 35.29 49.16 C 33.01 50.72 30.11 50.41 28.01 48.71 Z" />
</g>
</svg>
