<?xml version="1.0" encoding="UTF-8" ?>
<!DOCTYPE svg PUBLIC "-//W3C//DTD SVG 1.1//EN" "http://www.w3.org/Graphics/SVG/1.1/DTD/svg11.dtd">
<svg width="64pt" height="64pt" viewBox="0 0 64 64" version="1.1" xmlns="http://www.w3.org/2000/svg">
<g id="#f1c334ff">
<path fill="#f1c334" opacity="1.00" d=" M 10.65 2.30 C 13.56 3.29 16.44 4.42 19.10 5.98 C 19.90 6.98 20.65 8.02 21.40 9.06 C 18.78 8.52 16.18 7.90 13.60 7.20 C 14.37 10.79 11.92 13.47 9.24 15.45 C 9.27 11.04 9.11 6.51 10.65 2.30 Z" />
</g>
<g id="#eabc32ff">
<path fill="#eabc32" opacity="1.00" d=" M 38.93 9.05 C 43.11 6.16 47.73 3.99 52.48 2.21 C 52.60 2.61 52.83 3.42 52.95 3.82 C 53.44 7.63 53.51 11.50 53.08 15.32 C 50.57 13.35 48.52 10.91 46.64 8.35 C 44.13 9.02 41.53 9.77 38.93 9.05 Z" />
</g>
<g id="#ba962aff">
<path fill="#ba962a" opacity="1.00" d=" M 52.95 3.82 C 54.93 9.73 53.42 16.02 53.72 22.09 C 51.56 19.31 49.17 16.58 46.05 14.86 C 42.98 13.15 39.67 11.95 36.37 10.79 C 37.21 10.20 38.06 9.62 38.93 9.05 C 41.53 9.77 44.13 9.02 46.64 8.35 C 48.52 10.91 50.57 13.35 53.08 15.32 C 53.51 11.50 53.44 7.63 52.95 3.82 Z" />
<path fill="#ba962a" opacity="1.00" d=" M 19.10 5.98 C 21.89 7.29 24.46 9.00 26.91 10.86 C 23.79 12.01 20.67 13.21 17.74 14.78 C 14.70 16.64 12.36 19.37 10.12 22.08 C 9.65 19.90 9.36 17.68 9.24 15.45 C 11.92 13.47 14.37 10.79 13.60 7.20 C 16.18 7.90 18.78 8.52 21.40 9.06 C 20.65 8.02 19.90 6.98 19.10 5.98 Z" />
</g>
<g id="#fbc93bff">
<path fill="#fbc93b" opacity="1.00" d=" M 17.74 14.78 C 20.67 13.21 23.79 12.01 26.91 10.86 C 30.03 10.44 33.24 10.38 36.37 10.79 C 39.67 11.95 42.98 13.15 46.05 14.86 C 50.48 19.85 54.24 26.13 53.95 33.04 C 51.65 32.61 49.27 32.67 46.99 33.15 C 46.38 33.29 45.14 33.55 44.53 33.69 C 41.91 34.30 38.77 35.36 39.20 38.65 C 43.64 38.11 48.11 37.95 52.59 38.12 C 52.78 39.44 53.12 40.74 53.46 42.03 C 52.29 42.44 51.13 42.84 49.96 43.25 C 50.13 42.58 50.47 41.24 50.63 40.57 C 41.77 42.74 32.57 43.71 23.49 42.41 C 23.17 42.37 22.54 42.30 22.22 42.27 C 19.44 41.59 16.62 41.02 13.77 40.65 C 14.26 42.25 14.85 43.83 15.86 45.19 C 15.25 45.29 14.05 45.50 13.45 45.60 C 12.45 44.04 11.46 42.47 10.47 40.90 C 11.25 39.91 12.04 38.92 12.82 37.93 C 16.75 38.06 20.68 38.28 24.58 38.72 C 24.61 38.08 24.65 36.80 24.68 36.16 C 22.81 35.11 20.89 34.11 18.80 33.59 C 15.81 32.58 12.21 33.56 9.52 32.02 C 9.55 25.25 13.72 19.80 17.74 14.78 M 17.70 17.72 C 14.76 20.51 14.64 24.93 15.38 28.65 C 16.20 30.10 18.27 32.06 19.42 29.75 C 20.25 31.03 21.35 32.46 23.10 32.01 C 25.10 31.06 25.76 28.72 25.94 26.70 C 26.56 28.67 27.77 30.36 28.90 32.07 C 30.93 32.06 32.96 32.05 34.99 31.96 L 35.34 33.56 C 32.80 34.23 30.17 34.25 27.76 33.08 C 27.80 34.32 27.96 35.56 28.47 36.71 C 30.14 39.52 34.42 39.25 35.71 36.22 L 36.02 36.21 C 36.13 35.32 36.17 34.42 36.16 33.52 C 38.11 33.94 38.95 32.52 39.26 30.77 C 41.06 33.33 44.22 31.50 44.81 28.99 C 49.49 26.86 47.62 20.98 45.29 17.74 C 38.59 9.58 24.43 9.57 17.70 17.72 Z" />
</g>
<g id="#fcd154ff">
<path fill="#fcd154" opacity="1.00" d=" M 17.70 17.72 C 24.43 9.57 38.59 9.58 45.29 17.74 C 47.62 20.98 49.49 26.86 44.81 28.99 C 45.25 26.04 44.21 22.80 41.17 21.75 C 40.60 19.81 40.60 17.44 38.82 16.12 C 34.28 12.36 27.09 13.07 22.67 16.68 C 20.93 17.98 21.45 20.33 21.24 22.19 C 19.33 24.28 18.84 27.04 19.42 29.75 C 18.27 32.06 16.20 30.10 15.38 28.65 C 14.64 24.93 14.76 20.51 17.70 17.72 Z" />
</g>
<g id="#fddd7dff">
<path fill="#fddd7d" opacity="1.00" d=" M 22.67 16.68 C 27.09 13.07 34.28 12.36 38.82 16.12 C 40.60 17.44 40.60 19.81 41.17 21.75 C 40.23 22.78 39.27 23.80 38.35 24.86 C 36.41 26.76 34.94 29.16 34.99 31.96 C 32.96 32.05 30.93 32.06 28.90 32.07 C 27.77 30.36 26.56 28.67 25.94 26.70 C 25.36 24.49 24.02 21.66 21.24 22.19 C 21.45 20.33 20.93 17.98 22.67 16.68 Z" />
</g>
<g id="#d3a624ff">
<path fill="#d3a624" opacity="1.00" d=" M 10.12 22.08 C 12.36 19.37 14.70 16.64 17.74 14.78 C 13.72 19.80 9.55 25.25 9.52 32.02 C 12.21 33.56 15.81 32.58 18.80 33.59 C 16.09 34.67 13.21 35.11 10.37 35.67 C 12.98 35.93 15.58 36.17 18.19 36.43 C 15.54 36.70 12.88 36.96 10.32 37.72 C 10.95 37.77 12.20 37.88 12.82 37.93 C 12.04 38.92 11.25 39.91 10.47 40.90 C 11.46 42.47 12.45 44.04 13.45 45.60 C 14.05 45.50 15.25 45.29 15.86 45.19 C 17.93 47.48 20.28 49.52 22.94 51.11 C 28.63 54.96 36.19 54.79 41.85 50.99 C 45.07 49.02 47.87 46.40 49.96 43.25 C 51.13 42.84 52.29 42.44 53.46 42.03 C 53.12 40.74 52.78 39.44 52.59 38.12 C 52.70 37.86 52.94 37.35 53.05 37.09 C 50.63 37.00 48.21 36.85 45.79 36.61 C 48.66 36.18 51.53 35.82 54.41 35.48 C 51.07 35.16 47.68 34.93 44.53 33.69 C 45.14 33.55 46.38 33.29 46.99 33.15 C 49.07 34.51 51.74 34.44 53.95 33.43 L 53.95 33.04 C 54.24 26.13 50.48 19.85 46.05 14.86 C 49.17 16.58 51.56 19.31 53.72 22.09 C 56.04 25.54 56.91 29.78 57.57 33.83 C 57.73 35.90 57.77 37.98 57.69 40.06 C 57.12 46.74 51.21 50.90 45.73 53.68 C 41.06 56.03 36.40 59.42 30.99 59.41 C 24.81 57.91 19.35 54.40 13.95 51.15 C 10.23 48.99 7.14 45.40 6.33 41.10 C 5.63 34.61 6.81 27.75 10.12 22.08 Z" />
</g>
<g id="#232323ff">
<path fill="#232323" opacity="1.00" d=" M 21.24 22.19 C 24.02 21.66 25.36 24.49 25.94 26.70 C 25.76 28.72 25.10 31.06 23.10 32.01 C 21.35 32.46 20.25 31.03 19.42 29.75 C 18.84 27.04 19.33 24.28 21.24 22.19 M 21.61 24.36 L 21.18 25.52 L 21.68 26.50 C 21.14 27.68 21.47 28.93 22.08 30.00 C 22.48 29.68 23.28 29.03 23.68 28.70 C 23.65 27.24 24.20 25.56 23.28 24.26 C 22.86 24.29 22.02 24.34 21.61 24.36 Z" />
<path fill="#232323" opacity="1.00" d=" M 38.35 24.86 C 39.27 23.80 40.23 22.78 41.17 21.75 C 44.21 22.80 45.25 26.04 44.81 28.99 C 44.22 31.50 41.06 33.33 39.26 30.77 C 38.22 28.98 38.20 26.88 38.35 24.86 M 41.20 29.79 C 41.59 29.53 42.37 29.01 42.76 28.75 C 42.65 28.15 42.43 26.95 42.32 26.35 L 42.83 25.62 L 42.45 24.38 L 41.37 23.85 L 40.63 24.39 C 40.11 26.15 39.90 28.31 41.20 29.79 Z" />
<path fill="#232323" opacity="1.00" d=" M 13.77 40.65 C 16.62 41.02 19.44 41.59 22.22 42.27 C 22.31 42.48 22.48 42.89 22.57 43.10 C 18.58 42.92 20.53 46.21 21.03 48.39 C 21.33 47.66 21.94 46.21 22.25 45.48 C 29.02 46.55 35.86 46.28 42.66 45.88 C 42.95 46.44 43.55 47.54 43.85 48.10 C 44.25 46.56 44.69 45.04 45.12 43.51 C 37.68 44.75 30.13 44.70 22.64 44.12 C 22.92 43.55 23.20 42.98 23.49 42.41 C 32.57 43.71 41.77 42.74 50.63 40.57 C 50.47 41.24 50.13 42.58 49.96 43.25 C 47.87 46.40 45.07 49.02 41.85 50.99 C 41.40 50.43 40.50 49.31 40.05 48.76 C 35.04 48.87 30.02 48.41 25.03 48.78 C 24.50 49.37 23.46 50.53 22.94 51.11 C 20.28 49.52 17.93 47.48 15.86 45.19 C 14.85 43.83 14.26 42.25 13.77 40.65 Z" />
</g>
<g id="#e5e5e5ff">
<path fill="#e5e5e5" opacity="1.00" d=" M 21.61 24.36 C 22.02 24.34 22.86 24.29 23.28 24.26 C 23.38 25.60 22.85 26.35 21.68 26.50 L 21.18 25.52 L 21.61 24.36 Z" />
<path fill="#e5e5e5" opacity="1.00" d=" M 40.63 24.39 L 41.37 23.85 L 42.45 24.38 L 42.83 25.62 L 42.32 26.35 C 41.14 26.21 40.58 25.56 40.63 24.39 Z" />
<path fill="#e5e5e5" opacity="1.00" d=" M 22.22 42.27 C 22.54 42.30 23.17 42.37 23.49 42.41 C 23.20 42.98 22.92 43.55 22.64 44.12 C 30.13 44.70 37.68 44.75 45.12 43.51 C 44.69 45.04 44.25 46.56 43.85 48.10 C 43.55 47.54 42.95 46.44 42.66 45.88 C 35.86 46.28 29.02 46.55 22.25 45.48 C 21.94 46.21 21.33 47.66 21.03 48.39 C 20.53 46.21 18.58 42.92 22.57 43.10 C 22.48 42.89 22.31 42.48 22.22 42.27 Z" />
</g>
<g id="#414141ff">
<path fill="#414141" opacity="1.00" d=" M 23.28 24.26 C 24.20 25.56 23.65 27.24 23.68 28.70 C 23.28 29.03 22.48 29.68 22.08 30.00 C 21.47 28.93 21.14 27.68 21.68 26.50 C 22.85 26.35 23.38 25.60 23.28 24.26 Z" />
<path fill="#414141" opacity="1.00" d=" M 41.20 29.79 C 39.90 28.31 40.11 26.15 40.63 24.39 C 40.58 25.56 41.14 26.21 42.32 26.35 C 42.43 26.95 42.65 28.15 42.76 28.75 C 42.37 29.01 41.59 29.53 41.20 29.79 Z" />
<path fill="#414141" opacity="1.00" d=" M 22.94 51.11 C 23.46 50.53 24.50 49.37 25.03 48.78 C 30.02 48.41 35.04 48.87 40.05 48.76 C 40.50 49.31 41.40 50.43 41.85 50.99 C 36.19 54.79 28.63 54.96 22.94 51.11 Z" />
</g>
<g id="#fcd45dff">
<path fill="#fcd45d" opacity="1.00" d=" M 34.99 31.96 C 34.94 29.16 36.41 26.76 38.35 24.86 C 38.20 26.88 38.22 28.98 39.26 30.77 C 38.95 32.52 38.11 33.94 36.16 33.52 L 35.34 33.56 L 34.99 31.96 Z" />
</g>
<g id="#a68961ff">
<path fill="#a68961" opacity="1.00" d=" M 27.76 33.08 C 30.17 34.25 32.80 34.23 35.34 33.56 L 36.16 33.52 C 36.17 34.42 36.13 35.32 36.02 36.21 L 35.71 36.22 C 34.43 36.25 33.16 36.41 31.91 36.61 C 30.77 36.29 29.63 35.95 28.50 35.61 L 28.47 36.71 C 27.96 35.56 27.80 34.32 27.76 33.08 Z" />
</g>
<g id="#ae8821ff">
<path fill="#ae8821" opacity="1.00" d=" M 46.99 33.15 C 49.27 32.67 51.65 32.61 53.95 33.04 L 53.95 33.43 C 51.74 34.44 49.07 34.51 46.99 33.15 Z" />
</g>
<g id="#ae8824ff">
<path fill="#ae8824" opacity="1.00" d=" M 18.80 33.59 C 20.89 34.11 22.81 35.11 24.68 36.16 C 24.65 36.80 24.61 38.08 24.58 38.72 C 20.68 38.28 16.75 38.06 12.82 37.93 C 12.20 37.88 10.95 37.77 10.32 37.72 C 12.88 36.96 15.54 36.70 18.19 36.43 C 15.58 36.17 12.98 35.93 10.37 35.67 C 13.21 35.11 16.09 34.67 18.80 33.59 Z" />
</g>
<g id="#af8824ff">
<path fill="#af8824" opacity="1.00" d=" M 39.20 38.65 C 38.77 35.36 41.91 34.30 44.53 33.69 C 47.68 34.93 51.07 35.16 54.41 35.48 C 51.53 35.82 48.66 36.18 45.79 36.61 C 48.21 36.85 50.63 37.00 53.05 37.09 C 52.94 37.35 52.70 37.86 52.59 38.12 C 48.11 37.95 43.64 38.11 39.20 38.65 Z" />
</g>
<g id="#0f0a0035">
<path fill="#0f0a00" opacity="0.21" d=" M 57.57 33.83 C 58.12 34.13 59.21 34.74 59.76 35.05 C 59.66 35.43 59.48 36.21 59.38 36.60 C 60.48 37.28 61.53 38.04 62.49 38.91 C 61.82 38.98 60.49 39.11 59.82 39.18 C 61.13 40.23 62.45 41.34 63.17 42.90 C 61.26 42.12 59.46 41.12 57.69 40.06 C 57.77 37.98 57.73 35.90 57.57 33.83 Z" />
</g>
<g id="#523f21ff">
<path fill="#523f21" opacity="1.00" d=" M 28.50 35.61 C 29.63 35.95 30.77 36.29 31.91 36.61 C 33.16 36.41 34.43 36.25 35.71 36.22 C 34.42 39.25 30.14 39.52 28.47 36.71 L 28.50 35.61 Z" />
</g>
</svg>
