<?xml version="1.0" encoding="UTF-8" ?>
<!DOCTYPE svg PUBLIC "-//W3C//DTD SVG 1.1//EN" "http://www.w3.org/Graphics/SVG/1.1/DTD/svg11.dtd">
<svg width="64pt" height="64pt" viewBox="0 0 64 64" version="1.1" xmlns="http://www.w3.org/2000/svg">
<g id="#ae8d26ff">
<path fill="#ae8d26" opacity="1.00" d=" M 10.39 2.49 C 10.67 2.48 11.23 2.45 11.52 2.44 C 9.19 6.94 9.55 12.09 10.00 16.97 C 12.14 14.51 14.03 11.64 16.93 10.01 C 19.28 9.35 21.75 9.31 24.15 8.99 L 24.34 8.97 C 25.23 9.61 26.12 10.26 27.01 10.91 C 20.06 12.33 14.31 16.68 10.16 22.31 C 8.73 15.80 8.77 8.95 10.39 2.49 Z" />
</g>
<g id="#e7ba31ff">
<path fill="#e7ba31" opacity="1.00" d=" M 10.00 16.97 C 9.55 12.09 9.19 6.94 11.52 2.44 C 15.90 4.27 20.24 6.26 24.15 8.99 C 21.75 9.31 19.28 9.35 16.93 10.01 C 14.03 11.64 12.14 14.51 10.00 16.97 Z" />
</g>
<g id="#f2c335ff">
<path fill="#f2c335" opacity="1.00" d=" M 40.76 8.08 C 44.41 5.49 48.52 3.46 52.89 2.40 L 53.01 3.79 C 53.33 7.68 53.45 11.59 53.17 15.48 C 51.11 13.04 50.26 9.99 50.27 6.83 C 47.18 7.71 43.99 8.37 40.76 8.08 Z" />
</g>
<g id="#ae8323ff">
<path fill="#ae8323" opacity="1.00" d=" M 53.01 3.79 C 54.76 9.81 53.65 16.10 53.65 22.24 C 49.57 16.36 43.41 12.25 36.38 10.78 C 37.52 9.96 38.65 9.14 39.77 8.31 C 39.84 8.68 39.96 9.40 40.02 9.76 C 45.59 9.99 49.72 13.86 53.03 17.95 C 53.07 17.33 53.14 16.10 53.17 15.48 C 53.45 11.59 53.33 7.68 53.01 3.79 Z" />
<path fill="#ae8323" opacity="1.00" d=" M 55.59 26.59 C 57.51 30.38 58.02 34.74 57.87 38.93 C 57.81 44.04 54.51 48.66 50.17 51.13 C 45.03 54.18 39.88 57.38 34.16 59.22 C 31.63 60.05 29.05 59.07 26.75 58.02 C 34.54 59.02 42.43 55.63 47.71 49.97 C 47.91 49.83 48.31 49.54 48.50 49.40 C 51.15 47.47 54.06 45.51 55.40 42.39 C 55.96 40.94 56.13 38.32 53.33 38.83 C 54.52 38.26 55.70 37.69 56.89 37.12 C 53.40 35.59 49.59 35.95 45.91 36.33 C 48.64 36.62 51.43 36.80 53.99 37.87 C 50.54 37.98 47.09 38.04 43.64 38.31 C 42.79 38.37 41.94 38.43 41.09 38.47 C 40.68 38.49 39.86 38.51 39.45 38.52 C 39.41 37.55 39.38 36.57 39.37 35.59 C 44.12 33.22 49.42 32.68 54.65 32.72 C 55.06 32.71 55.87 32.68 56.27 32.67 C 55.99 30.65 55.78 28.62 55.59 26.59 M 46.75 34.61 C 49.64 35.01 52.58 35.12 55.49 34.77 C 52.86 32.96 49.61 34.15 46.75 34.61 Z" />
</g>
<g id="#d2a931ff">
<path fill="#d2a931" opacity="1.00" d=" M 40.76 8.08 C 43.99 8.37 47.18 7.71 50.27 6.83 C 50.26 9.99 51.11 13.04 53.17 15.48 C 53.14 16.10 53.07 17.33 53.03 17.95 C 49.72 13.86 45.59 9.99 40.02 9.76 C 39.96 9.40 39.84 8.68 39.77 8.31 C 40.02 8.26 40.51 8.14 40.76 8.08 Z" />
</g>
<g id="#efc64bff">
<path fill="#efc64b" opacity="1.00" d=" M 27.01 10.91 C 30.09 10.36 33.29 10.39 36.38 10.78 C 43.41 12.25 49.57 16.36 53.65 22.24 C 54.67 23.49 55.47 24.97 55.59 26.59 C 55.78 28.62 55.99 30.65 56.27 32.67 C 55.87 32.68 55.06 32.71 54.65 32.72 C 54.33 29.06 53.95 24.96 50.56 22.76 C 51.07 22.92 52.09 23.24 52.60 23.40 C 51.63 19.42 47.40 18.62 44.03 17.70 C 40.72 13.48 34.90 13.43 30.01 13.57 C 26.12 13.73 22.66 15.60 19.47 17.66 C 16.74 19.11 13.06 19.87 12.33 23.39 C 12.88 23.21 13.96 22.85 14.51 22.67 C 10.84 24.75 10.30 28.89 10.45 32.72 C 9.98 32.70 9.03 32.66 8.56 32.65 C 8.43 30.66 8.29 28.68 8.19 26.69 C 8.43 25.09 9.15 23.57 10.16 22.31 C 14.31 16.68 20.06 12.33 27.01 10.91 Z" />
</g>
<g id="#fddf84ff">
<path fill="#fddf84" opacity="1.00" d=" M 19.47 17.66 C 22.66 15.60 26.12 13.73 30.01 13.57 C 34.90 13.43 40.72 13.48 44.03 17.70 C 42.34 17.99 40.64 18.29 39.06 18.98 L 37.96 19.45 C 37.98 20.04 38.02 21.22 38.04 21.80 C 38.57 21.86 39.63 21.96 40.16 22.02 C 39.65 23.26 39.14 24.51 38.62 25.74 C 37.11 26.48 36.17 27.88 35.33 29.28 C 39.29 29.69 43.25 30.05 47.18 30.74 C 43.41 30.45 39.65 30.19 35.87 30.31 C 35.77 31.98 35.71 33.66 35.59 35.33 C 33.78 36.13 31.82 36.83 29.96 35.70 C 29.62 35.98 28.96 36.54 28.62 36.81 C 27.83 34.67 27.33 32.44 26.76 30.24 C 23.48 30.45 20.21 30.87 16.91 30.85 C 17.10 30.00 17.30 29.16 17.51 28.32 C 18.00 29.60 19.29 30.29 20.63 30.27 C 23.57 30.02 26.50 29.65 29.43 29.25 C 28.57 26.87 26.51 25.69 24.03 25.75 C 23.24 24.57 22.45 23.38 21.66 22.20 C 23.10 22.13 24.55 22.04 25.99 21.95 L 26.69 21.09 C 25.97 17.72 22.12 17.94 19.47 17.66 Z" />
</g>
<g id="#7d6926ff">
<path fill="#7d6926" opacity="1.00" d=" M 12.33 23.39 C 13.06 19.87 16.74 19.11 19.47 17.66 C 22.12 17.94 25.97 17.72 26.69 21.09 C 22.59 21.14 18.36 21.05 14.51 22.67 C 13.96 22.85 12.88 23.21 12.33 23.39 Z" />
</g>
<g id="#766428ff">
<path fill="#766428" opacity="1.00" d=" M 39.06 18.98 C 40.64 18.29 42.34 17.99 44.03 17.70 C 47.40 18.62 51.63 19.42 52.60 23.40 C 52.09 23.24 51.07 22.92 50.56 22.76 C 46.65 21.25 42.46 20.74 38.29 20.73 C 38.48 20.29 38.87 19.42 39.06 18.98 Z" />
</g>
<g id="#fbc83cff">
<path fill="#fbc83c" opacity="1.00" d=" M 37.96 19.45 L 39.06 18.98 C 38.87 19.42 38.48 20.29 38.29 20.73 C 42.46 20.74 46.65 21.25 50.56 22.76 C 53.95 24.96 54.33 29.06 54.65 32.72 C 49.42 32.68 44.12 33.22 39.37 35.59 C 39.38 36.57 39.41 37.55 39.45 38.52 C 39.86 38.51 40.68 38.49 41.09 38.47 C 40.58 39.51 40.06 40.54 39.55 41.58 C 37.98 41.85 36.42 42.12 34.85 42.33 C 33.92 42.30 32.06 42.25 31.13 42.22 C 32.68 42.91 34.23 43.61 35.77 44.32 C 34.45 45.64 33.07 46.91 31.62 48.08 C 33.11 49.29 34.55 50.56 35.93 51.90 C 33.48 52.74 31.02 53.56 28.53 54.30 C 25.55 54.36 23.02 52.49 20.54 51.09 C 20.21 46.80 23.36 42.16 20.51 38.33 C 21.24 38.44 22.69 38.66 23.41 38.76 C 23.77 38.06 24.47 36.65 24.83 35.95 C 20.41 33.55 15.44 32.67 10.45 32.72 C 10.30 28.89 10.84 24.75 14.51 22.67 C 18.36 21.05 22.59 21.14 26.69 21.09 L 25.99 21.95 C 24.55 22.04 23.10 22.13 21.66 22.20 C 19.96 22.46 18.33 22.98 16.71 23.54 C 17.03 24.99 17.33 26.44 17.61 27.89 L 17.51 28.32 C 17.30 29.16 17.10 30.00 16.91 30.85 C 20.21 30.87 23.48 30.45 26.76 30.24 C 27.33 32.44 27.83 34.67 28.62 36.81 L 28.37 37.10 C 30.84 39.07 34.99 39.17 35.59 35.33 C 35.71 33.66 35.77 31.98 35.87 30.31 C 39.65 30.19 43.41 30.45 47.18 30.74 L 47.69 29.00 C 47.27 28.55 46.42 27.65 45.99 27.20 C 46.51 26.76 47.56 25.90 48.08 25.46 C 46.45 22.52 43.26 21.99 40.16 22.02 C 39.63 21.96 38.57 21.86 38.04 21.80 C 38.02 21.22 37.98 20.04 37.96 19.45 Z" />
</g>
<g id="#fcd768ff">
<path fill="#fcd768" opacity="1.00" d=" M 16.71 23.54 C 18.33 22.98 19.96 22.46 21.66 22.20 C 22.45 23.38 23.24 24.57 24.03 25.75 C 21.80 26.18 19.64 26.87 17.61 27.89 C 17.33 26.44 17.03 24.99 16.71 23.54 Z" />
</g>
<g id="#fcd358ff">
<path fill="#fcd358" opacity="1.00" d=" M 40.16 22.02 C 43.26 21.99 46.45 22.52 48.08 25.46 C 47.56 25.90 46.51 26.76 45.99 27.20 C 43.64 26.26 41.12 25.94 38.62 25.74 C 39.14 24.51 39.65 23.26 40.16 22.02 Z" />
</g>
<g id="#171716ff">
<path fill="#171716" opacity="1.00" d=" M 17.61 27.89 C 19.64 26.87 21.80 26.18 24.03 25.75 C 26.51 25.69 28.57 26.87 29.43 29.25 C 26.50 29.65 23.57 30.02 20.63 30.27 C 19.29 30.29 18.00 29.60 17.51 28.32 L 17.61 27.89 Z" />
<path fill="#171716" opacity="1.00" d=" M 35.33 29.28 C 36.17 27.88 37.11 26.48 38.62 25.74 C 41.12 25.94 43.64 26.26 45.99 27.20 C 46.42 27.65 47.27 28.55 47.69 29.00 L 47.18 30.74 C 43.25 30.05 39.29 29.69 35.33 29.28 Z" />
<path fill="#171716" opacity="1.00" d=" M 28.62 36.81 C 28.96 36.54 29.62 35.98 29.96 35.70 C 31.82 36.83 33.78 36.13 35.59 35.33 C 34.99 39.17 30.84 39.07 28.37 37.10 L 28.62 36.81 Z" />
<path fill="#171716" opacity="1.00" d=" M 31.13 42.22 C 32.06 42.25 33.92 42.30 34.85 42.33 C 36.01 42.87 37.14 43.47 38.22 44.16 C 37.82 46.30 35.53 46.95 33.99 48.09 C 35.12 48.82 36.26 49.54 37.35 50.33 C 37.62 50.76 38.17 51.61 38.45 52.04 C 35.32 53.41 32.00 54.52 28.53 54.30 C 31.02 53.56 33.48 52.74 35.93 51.90 C 34.55 50.56 33.11 49.29 31.62 48.08 C 33.07 46.91 34.45 45.64 35.77 44.32 C 34.23 43.61 32.68 42.91 31.13 42.22 Z" />
</g>
<g id="#c08d21ff">
<path fill="#c08d21" opacity="1.00" d=" M 7.01 29.83 C 7.29 28.74 7.69 27.70 8.19 26.69 C 8.29 28.68 8.43 30.66 8.56 32.65 C 9.03 32.66 9.98 32.70 10.45 32.72 C 15.44 32.67 20.41 33.55 24.83 35.95 C 24.47 36.65 23.77 38.06 23.41 38.76 C 22.69 38.66 21.24 38.44 20.51 38.33 C 19.12 38.18 17.72 38.08 16.33 38.03 C 14.09 38.16 11.87 38.43 9.63 38.51 C 8.94 38.25 8.26 37.99 7.58 37.71 C 7.86 37.25 8.14 36.78 8.43 36.32 C 7.95 36.18 7.01 35.88 6.54 35.73 C 6.64 33.76 6.75 31.79 7.01 29.83 Z" />
</g>
<g id="#56390a90">
<path fill="#56390a" opacity="0.56" d=" M 4.16 35.54 C 6.24 34.37 6.35 31.87 7.01 29.83 C 6.75 31.79 6.64 33.76 6.54 35.73 C 7.01 35.88 7.95 36.18 8.43 36.32 C 8.14 36.78 7.86 37.25 7.58 37.71 C 8.26 37.99 8.94 38.25 9.63 38.51 C 9.23 38.52 8.42 38.55 8.02 38.56 C 7.02 39.84 6.89 41.51 6.52 43.03 C 6.42 41.78 5.68 40.64 5.78 39.36 C 5.04 39.84 3.54 40.79 2.80 41.26 C 3.63 40.43 5.31 38.78 6.14 37.95 C 5.01 38.06 2.74 38.29 1.60 38.41 C 2.99 37.98 4.39 37.58 5.80 37.21 L 5.90 35.36 C 5.46 35.41 4.59 35.50 4.16 35.54 Z" />
</g>
<g id="#e3a425ff">
<path fill="#e3a425" opacity="1.00" d=" M 46.75 34.61 C 49.61 34.15 52.86 32.96 55.49 34.77 C 52.58 35.12 49.64 35.01 46.75 34.61 Z" />
</g>
<g id="#fb9823ff">
<path fill="#fb9823" opacity="1.00" d=" M 45.91 36.33 C 49.59 35.95 53.40 35.59 56.89 37.12 C 55.70 37.69 54.52 38.26 53.33 38.83 C 56.13 38.32 55.96 40.94 55.40 42.39 C 54.06 45.51 51.15 47.47 48.50 49.40 C 46.04 46.13 43.85 42.52 43.64 38.31 C 47.09 38.04 50.54 37.98 53.99 37.87 C 51.43 36.80 48.64 36.62 45.91 36.33 Z" />
</g>
<g id="#f6921fff">
<path fill="#f6921f" opacity="1.00" d=" M 9.63 38.51 C 11.87 38.43 14.09 38.16 16.33 38.03 C 18.27 41.25 16.53 44.61 15.14 47.63 C 13.08 47.06 10.96 46.78 8.83 46.55 L 8.53 46.52 C 7.89 45.34 7.17 44.20 6.52 43.03 C 6.89 41.51 7.02 39.84 8.02 38.56 C 8.42 38.55 9.23 38.52 9.63 38.51 Z" />
</g>
<g id="#fcb02bff">
<path fill="#fcb02b" opacity="1.00" d=" M 16.33 38.03 C 17.72 38.08 19.12 38.18 20.51 38.33 C 23.36 42.16 20.21 46.80 20.54 51.09 C 18.73 49.95 16.97 48.73 15.14 47.63 C 16.53 44.61 18.27 41.25 16.33 38.03 Z" />
</g>
<g id="#fbb52bff">
<path fill="#fbb52b" opacity="1.00" d=" M 41.09 38.47 C 41.94 38.43 42.79 38.37 43.64 38.31 C 43.85 42.52 46.04 46.13 48.50 49.40 C 48.31 49.54 47.91 49.83 47.71 49.97 C 44.86 51.00 42.08 52.17 39.25 53.25 C 39.05 52.95 38.65 52.34 38.45 52.04 C 38.17 51.61 37.62 50.76 37.35 50.33 C 36.26 49.54 35.12 48.82 33.99 48.09 C 35.53 46.95 37.82 46.30 38.22 44.16 C 37.14 43.47 36.01 42.87 34.85 42.33 C 36.42 42.12 37.98 41.85 39.55 41.58 C 40.06 40.54 40.58 39.51 41.09 38.47 Z" />
</g>
<g id="#cf9c22ff">
<path fill="#cf9c22" opacity="1.00" d=" M 8.83 46.55 C 10.96 46.78 13.08 47.06 15.14 47.63 C 16.97 48.73 18.73 49.95 20.54 51.09 C 23.02 52.49 25.55 54.36 28.53 54.30 C 32.00 54.52 35.32 53.41 38.45 52.04 C 38.65 52.34 39.05 52.95 39.25 53.25 C 42.08 52.17 44.86 51.00 47.71 49.97 C 42.43 55.63 34.54 59.02 26.75 58.02 C 23.54 56.84 20.59 55.07 17.62 53.40 C 14.43 51.49 10.93 49.76 8.83 46.55 Z" />
</g>
</svg>
