<?xml version="1.0" encoding="UTF-8" ?>
<!DOCTYPE svg PUBLIC "-//W3C//DTD SVG 1.1//EN" "http://www.w3.org/Graphics/SVG/1.1/DTD/svg11.dtd">
<svg width="64pt" height="64pt" viewBox="0 0 64 64" version="1.1" xmlns="http://www.w3.org/2000/svg">
<g id="#826739ff">
<path fill="#826739" opacity="1.00" d=" M 25.59 7.59 C 32.88 4.82 41.43 7.37 46.83 12.77 C 48.74 17.03 50.85 21.24 52.21 25.73 C 50.98 26.58 49.76 27.43 48.53 28.29 C 47.91 25.84 48.17 23.25 47.33 20.85 C 44.91 14.23 38.09 9.24 30.94 9.66 C 25.48 9.74 20.43 12.94 17.38 17.35 C 15.26 20.48 14.78 24.32 13.59 27.83 C 11.44 26.66 9.68 27.35 8.78 29.52 L 7.80 31.14 C 8.25 26.65 10.75 22.82 12.25 18.67 C 12.42 18.24 12.75 17.39 12.92 16.97 C 11.58 16.94 10.24 16.93 8.90 16.94 C 10.59 16.48 12.33 16.21 14.06 15.91 C 17.25 12.36 20.92 9.00 25.59 7.59 Z" />
</g>
<g id="#9a7b42ff">
<path fill="#9a7b42" opacity="1.00" d=" M 17.38 17.35 C 20.43 12.94 25.48 9.74 30.94 9.66 C 38.09 9.24 44.91 14.23 47.33 20.85 C 48.17 23.25 47.91 25.84 48.53 28.29 L 49.05 29.30 C 45.98 27.39 42.68 25.80 39.06 25.32 C 41.31 28.11 44.09 30.38 46.66 32.87 C 43.42 31.41 40.68 29.17 37.73 27.24 C 35.47 26.73 35.15 28.55 35.22 30.41 L 34.51 29.95 C 32.29 27.28 35.18 25.27 37.69 24.75 L 38.67 24.45 C 39.86 24.10 41.05 23.76 42.24 23.43 C 41.83 15.64 32.05 10.18 25.36 14.39 C 22.04 16.71 18.52 20.27 19.20 24.69 L 19.97 25.72 C 17.51 26.88 15.12 28.15 12.72 29.42 L 13.59 27.83 C 14.78 24.32 15.26 20.48 17.38 17.35 Z" />
</g>
<g id="#b08d4bff">
<path fill="#b08d4b" opacity="1.00" d=" M 25.36 14.39 C 32.05 10.18 41.83 15.64 42.24 23.43 C 41.05 23.76 39.86 24.10 38.67 24.45 C 37.21 21.30 35.19 17.51 31.08 17.93 C 26.90 17.07 24.47 20.77 23.23 24.14 C 21.89 24.28 20.55 24.49 19.20 24.69 C 18.52 20.27 22.04 16.71 25.36 14.39 Z" />
</g>
<g id="#70592fff">
<path fill="#70592f" opacity="1.00" d=" M 46.83 12.77 C 47.87 13.80 48.89 14.86 49.91 15.91 C 51.06 16.10 52.21 16.30 53.36 16.52 C 52.69 16.53 51.35 16.56 50.68 16.58 C 51.28 17.99 51.92 19.38 52.49 20.81 C 53.73 24.11 54.47 27.57 55.38 30.97 C 56.02 32.55 56.79 34.07 57.53 35.60 C 57.59 40.54 57.12 45.45 55.49 50.14 L 55.14 51.60 C 54.59 49.18 53.86 46.79 52.73 44.58 C 52.31 44.16 51.89 43.75 51.47 43.35 C 53.85 37.81 53.14 31.52 52.21 25.73 C 50.85 21.24 48.74 17.03 46.83 12.77 Z" />
</g>
<g id="#a68757ff">
<path fill="#a68757" opacity="1.00" d=" M 5.20 33.37 C 2.34 28.00 2.39 19.53 8.90 16.94 C 10.24 16.93 11.58 16.94 12.92 16.97 C 12.75 17.39 12.42 18.24 12.25 18.67 C 10.07 19.85 7.27 20.90 6.62 23.61 C 5.61 26.18 6.57 28.85 7.80 31.14 C 7.73 31.66 7.58 32.69 7.51 33.21 C 6.93 33.25 5.77 33.33 5.20 33.37 Z" />
</g>
<g id="#a17c4eff">
<path fill="#a17c4e" opacity="1.00" d=" M 50.68 16.58 C 51.35 16.56 52.69 16.53 53.36 16.52 C 57.37 17.08 60.54 20.83 60.60 24.85 C 61.05 28.72 59.29 32.29 57.53 35.60 C 56.79 34.07 56.02 32.55 55.38 30.97 C 58.06 30.07 57.83 26.90 57.53 24.62 C 57.21 22.42 55.41 20.90 54.03 19.31 C 53.65 19.68 52.88 20.43 52.49 20.81 C 51.92 19.38 51.28 17.99 50.68 16.58 Z" />
</g>
<g id="#bb9b60ff">
<path fill="#bb9b60" opacity="1.00" d=" M 23.23 24.14 C 24.47 20.77 26.90 17.07 31.08 17.93 C 35.19 17.51 37.21 21.30 38.67 24.45 L 37.69 24.75 C 36.36 25.15 35.03 25.52 33.70 25.90 C 33.37 27.24 33.05 28.59 32.76 29.94 C 32.18 29.99 31.04 30.08 30.47 30.13 C 30.16 29.53 29.54 28.33 29.23 27.73 C 29.04 27.13 28.67 25.92 28.49 25.32 C 26.75 24.89 25.00 24.46 23.23 24.14 Z" />
</g>
<g id="#c0998fff">
<path fill="#c0998f" opacity="1.00" d=" M 6.62 23.61 C 7.27 20.90 10.07 19.85 12.25 18.67 C 10.75 22.82 8.25 26.65 7.80 31.14 C 6.57 28.85 5.61 26.18 6.62 23.61 Z" />
</g>
<g id="#cca2a2ff">
<path fill="#cca2a2" opacity="1.00" d=" M 52.49 20.81 C 52.88 20.43 53.65 19.68 54.03 19.31 C 55.41 20.90 57.21 22.42 57.53 24.62 C 57.83 26.90 58.06 30.07 55.38 30.97 C 54.47 27.57 53.73 24.11 52.49 20.81 Z" />
</g>
<g id="#a78163ff">
<path fill="#a78163" opacity="1.00" d=" M 19.20 24.69 C 20.55 24.49 21.89 24.28 23.23 24.14 C 25.00 24.46 26.75 24.89 28.49 25.32 C 28.67 25.92 29.04 27.13 29.23 27.73 C 29.31 28.77 29.38 29.81 29.42 30.85 L 28.38 31.23 C 28.12 31.33 27.61 31.52 27.35 31.61 C 24.03 32.62 21.30 34.82 18.34 36.51 C 20.88 33.76 24.05 31.67 26.56 28.89 C 25.69 25.61 22.40 28.45 20.55 29.21 C 20.31 29.52 19.83 30.15 19.59 30.46 C 18.18 31.34 16.77 32.21 15.35 33.07 C 17.46 30.70 19.73 28.50 22.10 26.40 C 21.57 26.23 20.50 25.89 19.97 25.72 L 19.20 24.69 Z" />
</g>
<g id="#3d3527ff">
<path fill="#3d3527" opacity="1.00" d=" M 33.70 25.90 C 35.03 25.52 36.36 25.15 37.69 24.75 C 35.18 25.27 32.29 27.28 34.51 29.95 L 35.22 30.41 C 38.10 32.10 40.95 33.89 43.35 36.24 C 40.64 34.57 38.25 31.99 35.01 31.43 C 34.59 31.44 33.73 31.46 33.30 31.47 C 35.60 36.83 39.26 42.21 45.09 44.06 C 47.22 45.03 49.48 44.26 51.47 43.35 C 51.89 43.75 52.31 44.16 52.73 44.58 C 50.48 44.99 48.24 45.43 46.00 45.84 C 46.12 46.64 46.38 48.22 46.50 49.02 C 45.34 48.35 44.18 47.69 43.03 47.00 C 38.27 44.56 34.67 40.54 32.74 35.55 C 32.70 33.68 32.73 31.81 32.76 29.94 C 33.05 28.59 33.37 27.24 33.70 25.90 Z" />
<path fill="#3d3527" opacity="1.00" d=" M 1.46 64.00 C 2.68 60.86 3.76 57.67 4.90 54.50 C 4.24 57.65 3.73 60.83 3.20 64.00 L 1.46 64.00 Z" />
</g>
<g id="#e3c197ff">
<path fill="#e3c197" opacity="1.00" d=" M 12.72 29.42 C 15.12 28.15 17.51 26.88 19.97 25.72 C 20.50 25.89 21.57 26.23 22.10 26.40 C 19.73 28.50 17.46 30.70 15.35 33.07 C 16.77 32.21 18.18 31.34 19.59 30.46 C 19.83 30.15 20.31 29.52 20.55 29.21 C 22.40 28.45 25.69 25.61 26.56 28.89 C 24.05 31.67 20.88 33.76 18.34 36.51 C 21.30 34.82 24.03 32.62 27.35 31.61 C 25.42 34.21 23.57 37.09 20.49 38.47 C 18.10 39.57 14.99 41.65 12.70 39.26 C 9.16 36.94 10.59 32.21 12.72 29.42 Z" />
</g>
<g id="#e4c197ff">
<path fill="#e4c197" opacity="1.00" d=" M 39.06 25.32 C 42.68 25.80 45.98 27.39 49.05 29.30 C 50.15 31.42 51.43 33.59 51.46 36.05 C 50.92 38.62 48.16 39.44 46.20 40.66 C 42.11 38.78 38.21 36.46 35.03 33.24 C 35.03 32.79 35.02 31.88 35.01 31.43 C 38.25 31.99 40.64 34.57 43.35 36.24 C 40.95 33.89 38.10 32.10 35.22 30.41 C 35.15 28.55 35.47 26.73 37.73 27.24 C 40.68 29.17 43.42 31.41 46.66 32.87 C 44.09 30.38 41.31 28.11 39.06 25.32 Z" />
</g>
<g id="#ba9d78ff">
<path fill="#ba9d78" opacity="1.00" d=" M 48.53 28.29 C 49.76 27.43 50.98 26.58 52.21 25.73 C 53.14 31.52 53.85 37.81 51.47 43.35 C 49.48 44.26 47.22 45.03 45.09 44.06 C 39.26 42.21 35.60 36.83 33.30 31.47 C 33.73 31.46 34.59 31.44 35.01 31.43 C 35.02 31.88 35.03 32.79 35.03 33.24 C 38.21 36.46 42.11 38.78 46.20 40.66 C 48.16 39.44 50.92 38.62 51.46 36.05 C 51.43 33.59 50.15 31.42 49.05 29.30 L 48.53 28.29 Z" />
</g>
<g id="#b99976ff">
<path fill="#b99976" opacity="1.00" d=" M 8.78 29.52 C 9.68 27.35 11.44 26.66 13.59 27.83 L 12.72 29.42 C 10.59 32.21 9.16 36.94 12.70 39.26 C 14.99 41.65 18.10 39.57 20.49 38.47 C 23.57 37.09 25.42 34.21 27.35 31.61 C 27.61 31.52 28.12 31.33 28.38 31.23 C 27.52 33.15 26.71 35.09 25.90 37.03 L 25.26 36.61 L 25.70 37.58 C 23.10 40.41 20.22 43.12 16.49 44.37 C 14.12 43.81 10.68 44.07 9.66 41.33 C 8.72 37.48 8.99 33.45 8.78 29.52 Z" />
</g>
<g id="#c6ae80ff">
<path fill="#c6ae80" opacity="1.00" d=" M 29.23 27.73 C 29.54 28.33 30.16 29.53 30.47 30.13 C 31.04 30.08 32.18 29.99 32.76 29.94 C 32.73 31.81 32.70 33.68 32.74 35.55 C 32.88 37.65 33.18 39.75 33.05 41.85 C 31.90 43.67 34.07 46.22 35.54 43.98 C 37.93 45.89 40.71 47.23 43.45 48.55 C 43.58 50.19 43.61 51.84 43.52 53.48 C 39.70 54.31 35.92 55.60 31.99 55.69 C 28.13 55.49 24.39 54.42 20.58 53.89 C 20.43 51.74 19.61 49.00 21.49 47.37 C 23.76 44.93 26.74 43.07 28.29 40.04 C 29.77 37.22 29.47 33.92 29.42 30.85 C 29.38 29.81 29.31 28.77 29.23 27.73 M 29.20 41.94 C 27.87 42.89 29.19 45.66 30.72 44.50 C 32.05 43.54 30.75 40.75 29.20 41.94 M 24.03 48.53 L 24.96 50.29 C 26.61 52.02 28.50 53.74 30.97 54.08 C 33.46 54.68 35.66 52.98 37.61 51.69 C 38.27 50.60 38.92 49.50 39.57 48.40 C 34.40 48.99 29.21 48.83 24.03 48.53 Z" />
</g>
<g id="#6a532dff">
<path fill="#6a532d" opacity="1.00" d=" M 7.80 31.14 L 8.78 29.52 C 8.99 33.45 8.72 37.48 9.66 41.33 C 10.68 44.07 14.12 43.81 16.49 44.37 C 16.56 45.33 16.70 47.24 16.78 48.19 C 20.61 45.92 23.67 42.63 26.38 39.14 C 26.21 38.75 25.87 37.97 25.70 37.58 L 25.26 36.61 L 25.90 37.03 C 26.71 35.09 27.52 33.15 28.38 31.23 L 29.42 30.85 C 29.47 33.92 29.77 37.22 28.29 40.04 C 26.74 43.07 23.76 44.93 21.49 47.37 C 19.61 49.00 20.43 51.74 20.58 53.89 C 21.06 55.14 21.56 56.37 22.08 57.60 C 19.65 57.29 17.27 56.71 14.91 56.11 C 14.47 58.76 14.03 61.40 13.37 64.00 L 12.51 64.00 C 13.47 57.99 15.19 52.14 16.10 46.12 C 15.46 45.99 14.19 45.75 13.55 45.63 L 12.33 45.41 C 11.20 45.15 10.08 44.87 8.96 44.59 C 8.38 45.72 7.80 46.86 7.25 48.01 C 6.85 44.11 6.40 40.19 6.74 36.27 C 6.22 35.30 5.69 34.35 5.20 33.37 C 5.77 33.33 6.93 33.25 7.51 33.21 C 7.58 32.69 7.73 31.66 7.80 31.14 Z" />
<path fill="#6a532d" opacity="1.00" d=" M 43.03 47.00 C 44.18 47.69 45.34 48.35 46.50 49.02 C 46.95 51.20 47.58 53.34 48.22 55.47 L 48.20 55.50 L 47.33 56.56 C 45.64 57.00 43.92 57.30 42.19 57.56 C 42.52 56.54 43.19 54.50 43.52 53.48 C 43.61 51.84 43.58 50.19 43.45 48.55 L 43.03 47.00 Z" />
</g>
<g id="#806e52ff">
<path fill="#806e52" opacity="1.00" d=" M 32.74 35.55 C 34.67 40.54 38.27 44.56 43.03 47.00 L 43.45 48.55 C 40.71 47.23 37.93 45.89 35.54 43.98 C 35.25 42.51 34.43 41.80 33.05 41.85 C 33.18 39.75 32.88 37.65 32.74 35.55 Z" />
</g>
<g id="#322a1bff">
<path fill="#322a1b" opacity="1.00" d=" M 25.70 37.58 C 25.87 37.97 26.21 38.75 26.38 39.14 C 23.67 42.63 20.61 45.92 16.78 48.19 C 16.70 47.24 16.56 45.33 16.49 44.37 C 20.22 43.12 23.10 40.41 25.70 37.58 Z" />
</g>
<g id="#201a14ff">
<path fill="#201a14" opacity="1.00" d=" M 29.20 41.94 C 30.75 40.75 32.05 43.54 30.72 44.50 C 29.19 45.66 27.87 42.89 29.20 41.94 Z" />
<path fill="#201a14" opacity="1.00" d=" M 33.05 41.85 C 34.43 41.80 35.25 42.51 35.54 43.98 C 34.07 46.22 31.90 43.67 33.05 41.85 Z" />
</g>
<g id="#977e47ff">
<path fill="#977e47" opacity="1.00" d=" M 7.25 48.01 C 7.80 46.86 8.38 45.72 8.96 44.59 C 10.08 44.87 11.20 45.15 12.33 45.41 C 11.51 45.61 9.87 46.01 9.05 46.22 C 7.99 50.24 6.97 54.56 8.90 58.51 C 12.78 55.66 15.84 50.37 13.55 45.63 C 14.19 45.75 15.46 45.99 16.10 46.12 C 15.19 52.14 13.47 57.99 12.51 64.00 L 3.20 64.00 C 3.73 60.83 4.24 57.65 4.90 54.50 C 5.62 52.32 6.42 50.16 7.25 48.01 Z" />
</g>
<g id="#ae9a58ff">
<path fill="#ae9a58" opacity="1.00" d=" M 46.00 45.84 C 48.24 45.43 50.48 44.99 52.73 44.58 C 53.86 46.79 54.59 49.18 55.14 51.60 C 54.78 54.65 54.64 57.72 54.55 60.79 C 53.65 60.62 52.75 60.44 51.85 60.27 C 50.65 58.67 49.43 57.08 48.20 55.50 L 48.22 55.47 C 47.58 53.34 46.95 51.20 46.50 49.02 C 46.38 48.22 46.12 46.64 46.00 45.84 Z" />
</g>
<g id="#b19d5aff">
<path fill="#b19d5a" opacity="1.00" d=" M 9.05 46.22 C 9.87 46.01 11.51 45.61 12.33 45.41 L 13.55 45.63 C 15.84 50.37 12.78 55.66 8.90 58.51 C 6.97 54.56 7.99 50.24 9.05 46.22 Z" />
</g>
<g id="#16030aff">
<path fill="#16030a" opacity="1.00" d=" M 24.03 48.53 C 29.21 48.83 34.40 48.99 39.57 48.40 C 38.92 49.50 38.27 50.60 37.61 51.69 C 33.38 51.46 29.05 51.58 24.96 50.29 L 24.03 48.53 Z" />
</g>
<g id="#610a2bff">
<path fill="#610a2b" opacity="1.00" d=" M 24.96 50.29 C 29.05 51.58 33.38 51.46 37.61 51.69 C 35.66 52.98 33.46 54.68 30.97 54.08 C 28.50 53.74 26.61 52.02 24.96 50.29 Z" />
</g>
<g id="#8d7341ff">
<path fill="#8d7341" opacity="1.00" d=" M 55.14 51.60 L 55.49 50.14 C 57.27 54.71 58.67 59.42 60.42 64.00 L 48.63 64.00 C 48.15 61.53 47.65 59.06 47.33 56.56 L 48.20 55.50 C 49.43 57.08 50.65 58.67 51.85 60.27 C 52.75 60.44 53.65 60.62 54.55 60.79 C 54.64 57.72 54.78 54.65 55.14 51.60 Z" />
</g>
<g id="#a6906bff">
<path fill="#a6906b" opacity="1.00" d=" M 20.58 53.89 C 24.39 54.42 28.13 55.49 31.99 55.69 C 35.92 55.60 39.70 54.31 43.52 53.48 C 43.19 54.50 42.52 56.54 42.19 57.56 C 41.81 57.60 41.04 57.70 40.65 57.75 C 34.92 58.12 29.17 58.16 23.44 57.78 C 23.10 57.73 22.42 57.64 22.08 57.60 C 21.56 56.37 21.06 55.14 20.58 53.89 Z" />
</g>
<g id="#8d7a5bff">
<path fill="#8d7a5b" opacity="1.00" d=" M 23.44 57.78 C 29.17 58.16 34.92 58.12 40.65 57.75 C 37.75 58.70 35.08 60.45 32.00 60.78 C 28.95 60.46 26.31 58.73 23.44 57.78 Z" />
</g>
</svg>
