<?xml version="1.0" encoding="UTF-8" ?>
<!DOCTYPE svg PUBLIC "-//W3C//DTD SVG 1.1//EN" "http://www.w3.org/Graphics/SVG/1.1/DTD/svg11.dtd">
<svg width="64pt" height="64pt" viewBox="0 0 64 64" version="1.1" xmlns="http://www.w3.org/2000/svg">
<g id="#803018ff">
<path fill="#803018" opacity="1.00" d=" M 20.97 3.87 C 24.49 3.08 28.19 2.76 31.74 3.54 C 35.49 3.20 39.37 2.84 43.05 3.87 C 40.12 3.76 36.87 2.80 34.13 4.08 C 34.54 5.93 36.61 5.22 37.97 5.54 C 40.65 5.59 42.64 7.66 44.75 9.02 C 44.30 9.36 43.39 10.03 42.94 10.37 C 38.16 6.66 31.54 7.76 26.10 9.20 C 24.50 9.43 23.64 10.83 22.90 12.11 C 23.96 14.34 26.76 14.43 28.77 15.33 C 34.01 17.13 39.98 19.98 45.31 16.84 C 46.08 18.42 46.99 19.92 48.01 21.35 C 48.85 24.16 48.39 27.12 48.22 30.00 C 47.83 33.06 47.44 36.48 45.16 38.79 C 45.40 35.11 47.09 31.67 46.54 27.91 C 47.05 25.15 44.93 23.03 42.59 22.00 C 37.21 19.45 30.28 20.64 25.78 16.40 C 25.15 17.32 24.39 18.11 23.49 18.74 C 21.99 19.47 20.33 19.97 19.03 21.05 C 15.84 28.68 17.21 38.64 23.93 44.06 C 27.13 47.35 32.01 46.72 36.14 46.39 C 39.58 45.30 41.69 42.23 44.21 39.87 C 43.78 43.62 40.04 45.08 37.54 47.28 L 37.40 48.34 C 37.32 48.92 37.18 50.09 37.10 50.68 C 36.91 49.88 36.52 48.29 36.33 47.49 C 33.44 47.61 30.56 47.59 27.67 47.49 C 27.49 48.29 27.11 49.89 26.93 50.69 C 26.85 50.11 26.69 48.93 26.61 48.35 L 26.47 47.32 C 23.95 45.19 20.89 43.53 19.27 40.52 C 15.90 35.54 15.61 29.42 15.41 23.63 C 17.08 19.22 19.87 15.39 21.90 11.17 C 21.09 10.42 20.26 9.69 19.41 8.98 C 21.44 7.53 23.46 5.57 26.11 5.54 C 27.80 5.40 29.41 4.92 30.92 4.10 C 27.61 3.75 24.27 3.20 20.97 3.87 Z" />
</g>
<g id="#fad7b6ff">
<path fill="#fad7b6" opacity="1.00" d=" M 15.85 6.32 C 17.21 4.89 19.12 4.36 20.97 3.87 C 24.27 3.20 27.61 3.75 30.92 4.10 C 29.41 4.92 27.80 5.40 26.11 5.54 C 23.46 5.57 21.44 7.53 19.41 8.98 C 18.14 8.21 16.91 7.36 15.85 6.32 Z" />
<path fill="#fad7b6" opacity="1.00" d=" M 34.13 4.08 C 36.87 2.80 40.12 3.76 43.05 3.87 C 44.91 4.36 46.84 4.92 48.21 6.36 C 47.36 7.04 46.51 7.70 45.65 8.35 C 45.43 8.52 44.98 8.85 44.75 9.02 C 42.64 7.66 40.65 5.59 37.97 5.54 C 36.61 5.22 34.54 5.93 34.13 4.08 Z" />
</g>
<g id="#b34988fe">
<path fill="#b34988" opacity="1.00" d=" M 13.07 8.99 C 13.67 7.80 14.85 7.13 15.85 6.32 C 16.91 7.36 18.14 8.21 19.41 8.98 C 20.26 9.69 21.09 10.42 21.90 11.17 C 19.87 15.39 17.08 19.22 15.41 23.63 C 14.87 24.77 14.28 25.89 13.66 26.99 C 14.45 21.51 17.77 16.90 19.80 11.86 C 18.81 10.34 17.11 10.09 15.46 10.37 C 12.95 12.75 11.71 16.11 9.86 18.97 C 7.98 22.52 5.38 25.92 5.00 30.04 C 5.36 35.95 6.42 41.87 8.37 47.48 C 9.13 50.96 11.13 53.94 12.58 57.14 L 12.43 58.87 L 10.93 58.26 C 10.49 55.30 8.14 53.12 7.51 50.23 C 6.73 47.34 5.92 44.45 5.34 41.52 C 5.20 36.65 2.59 31.80 3.94 26.96 C 6.77 20.87 9.69 14.80 13.07 8.99 Z" />
<path fill="#b34988" opacity="1.00" d=" M 48.21 6.36 C 49.23 7.17 50.38 7.87 50.98 9.08 C 54.31 14.83 57.22 20.83 60.01 26.86 C 61.43 31.73 58.76 36.63 58.66 41.54 C 58.00 44.76 57.13 47.93 56.24 51.09 C 55.41 53.59 53.46 55.59 53.07 58.26 L 51.55 58.88 C 51.28 55.02 54.71 52.09 55.44 48.37 C 57.49 42.44 58.54 36.20 59.12 29.97 C 58.34 25.73 55.69 22.19 53.89 18.36 C 53.04 13.94 50.53 9.17 45.65 8.35 C 46.51 7.70 47.36 7.04 48.21 6.36 Z" />
<path fill="#b34988" opacity="1.00" d=" M 37.40 48.34 C 41.19 48.39 45.72 47.43 47.80 43.92 L 48.06 45.22 C 45.76 47.55 42.60 48.51 39.57 49.48 C 38.99 53.77 34.97 56.29 32.00 58.97 C 29.01 56.28 24.99 53.75 24.42 49.44 C 21.77 48.53 18.71 48.08 16.95 45.65 C 19.94 47.22 23.15 48.58 26.61 48.35 C 26.69 48.93 26.85 50.11 26.93 50.69 C 26.97 51.93 27.55 53.02 28.45 53.85 C 29.60 54.99 30.78 56.10 31.98 57.19 C 33.19 56.11 34.39 55.00 35.54 53.86 C 36.42 53.00 37.08 51.94 37.10 50.68 C 37.18 50.09 37.32 48.92 37.40 48.34 Z" />
<path fill="#b34988" opacity="1.00" d=" M 12.92 59.99 C 14.18 61.13 15.20 62.64 16.81 63.32 C 26.92 63.36 37.05 63.36 47.17 63.32 C 48.78 62.65 49.82 61.15 51.06 60.00 C 51.18 61.33 51.27 62.66 51.35 64.00 L 12.71 64.00 C 12.75 62.66 12.82 61.32 12.92 59.99 Z" />
</g>
<g id="#9d492eff">
<path fill="#9d492e" opacity="1.00" d=" M 26.10 9.20 C 31.54 7.76 38.16 6.66 42.94 10.37 C 42.85 10.72 42.67 11.43 42.58 11.79 C 43.51 13.46 44.44 15.13 45.31 16.84 C 39.98 19.98 34.01 17.13 28.77 15.33 C 26.76 14.43 23.96 14.34 22.90 12.11 C 23.64 10.83 24.50 9.43 26.10 9.20 Z" />
</g>
<g id="#be609aff">
<path fill="#be609a" opacity="1.00" d=" M 44.75 9.02 C 44.98 8.85 45.43 8.52 45.65 8.35 C 50.53 9.17 53.04 13.94 53.89 18.36 C 51.79 15.78 50.38 12.69 48.00 10.34 C 47.34 10.64 46.03 11.25 45.38 11.55 C 45.24 15.03 48.02 17.83 48.01 21.35 C 46.99 19.92 46.08 18.42 45.31 16.84 C 44.44 15.13 43.51 13.46 42.58 11.79 C 42.67 11.43 42.85 10.72 42.94 10.37 C 43.39 10.03 44.30 9.36 44.75 9.02 Z" />
</g>
<g id="#e387c3ff">
<path fill="#e387c3" opacity="1.00" d=" M 15.46 10.37 C 17.11 10.09 18.81 10.34 19.80 11.86 C 17.77 16.90 14.45 21.51 13.66 26.99 C 13.16 28.63 12.35 30.25 12.52 32.00 C 13.81 36.49 15.35 40.91 16.65 45.39 C 13.76 43.96 13.14 40.61 11.95 37.92 C 10.33 34.15 9.40 30.13 9.41 26.02 C 4.53 32.37 9.49 40.41 8.37 47.48 C 6.42 41.87 5.36 35.95 5.00 30.04 C 5.38 25.92 7.98 22.52 9.86 18.97 C 11.71 16.11 12.95 12.75 15.46 10.37 Z" />
<path fill="#e387c3" opacity="1.00" d=" M 45.38 11.55 C 46.03 11.25 47.34 10.64 48.00 10.34 C 50.38 12.69 51.79 15.78 53.89 18.36 C 55.69 22.19 58.34 25.73 59.12 29.97 C 58.54 36.20 57.49 42.44 55.44 48.37 C 54.37 40.99 59.48 32.70 54.59 26.02 C 54.74 31.72 52.55 37.04 50.29 42.15 C 49.78 43.32 49.08 44.42 48.06 45.22 L 47.80 43.92 C 48.98 39.92 50.33 35.97 51.49 31.96 C 51.42 28.16 49.12 24.90 48.01 21.35 C 48.02 17.83 45.24 15.03 45.38 11.55 Z" />
</g>
<g id="#fbe1c8ff">
<path fill="#fbe1c8" opacity="1.00" d=" M 23.49 18.74 C 24.39 18.11 25.15 17.32 25.78 16.40 C 30.28 20.64 37.21 19.45 42.59 22.00 C 39.79 23.55 34.19 23.69 34.38 27.90 C 34.28 29.96 36.80 30.41 38.20 31.21 C 38.25 31.61 38.35 32.41 38.40 32.81 C 37.85 33.44 37.30 34.06 36.75 34.68 C 36.31 33.85 35.88 33.02 35.44 32.18 C 33.15 32.66 30.82 32.64 28.52 32.19 C 28.07 33.06 27.62 33.94 27.16 34.81 C 25.15 32.36 28.04 30.56 29.48 28.81 C 30.62 25.02 25.90 23.88 23.46 22.38 C 23.44 21.16 23.46 19.95 23.49 18.74 Z" />
</g>
<g id="#dcac83ff">
<path fill="#dcac83" opacity="1.00" d=" M 19.03 21.05 C 20.33 19.97 21.99 19.47 23.49 18.74 C 23.46 19.95 23.44 21.16 23.46 22.38 C 25.90 23.88 30.62 25.02 29.48 28.81 C 28.61 28.54 26.86 27.98 25.98 27.70 C 25.96 27.20 25.91 26.19 25.88 25.69 L 25.82 25.05 C 24.64 24.26 22.59 24.41 22.27 26.06 C 22.17 26.29 21.97 26.75 21.87 26.99 L 21.15 28.45 C 22.69 30.33 20.46 32.42 21.70 34.28 C 22.44 35.99 23.38 37.60 24.28 39.23 C 24.72 39.00 25.16 38.74 25.61 38.52 C 26.05 40.67 27.87 42.29 29.72 43.30 C 33.28 45.05 37.44 42.01 38.40 38.57 C 38.82 38.82 39.24 39.08 39.65 39.34 C 41.11 36.79 42.65 34.19 43.09 31.22 C 41.45 31.21 39.83 31.23 38.20 31.21 C 36.80 30.41 34.28 29.96 34.38 27.90 C 34.19 23.69 39.79 23.55 42.59 22.00 C 44.93 23.03 47.05 25.15 46.54 27.91 C 47.09 31.67 45.40 35.11 45.16 38.79 C 44.92 39.06 44.44 39.60 44.21 39.87 C 41.69 42.23 39.58 45.30 36.14 46.39 C 32.01 46.72 27.13 47.35 23.93 44.06 C 17.21 38.64 15.84 28.68 19.03 21.05 M 42.09 25.22 L 42.00 25.66 C 40.58 27.02 38.88 27.05 37.86 25.14 C 35.36 25.05 35.32 27.23 35.34 29.15 C 38.04 31.04 42.17 31.04 44.03 27.99 C 44.69 26.51 43.05 25.83 42.09 25.22 Z" />
</g>
<g id="#400f04ff">
<path fill="#400f04" opacity="1.00" d=" M 48.01 21.35 C 49.12 24.90 51.42 28.16 51.49 31.96 C 50.33 35.97 48.98 39.92 47.80 43.92 C 45.72 47.43 41.19 48.39 37.40 48.34 L 37.54 47.28 C 40.04 45.08 43.78 43.62 44.21 39.87 C 44.44 39.60 44.92 39.06 45.16 38.79 C 47.44 36.48 47.83 33.06 48.22 30.00 C 48.39 27.12 48.85 24.16 48.01 21.35 Z" />
<path fill="#400f04" opacity="1.00" d=" M 15.41 23.63 C 15.61 29.42 15.90 35.54 19.27 40.52 C 20.89 43.53 23.95 45.19 26.47 47.32 L 26.61 48.35 C 23.15 48.58 19.94 47.22 16.95 45.65 C 16.87 45.59 16.72 45.46 16.65 45.39 C 15.35 40.91 13.81 36.49 12.52 32.00 C 12.35 30.25 13.16 28.63 13.66 26.99 C 14.28 25.89 14.87 24.77 15.41 23.63 Z" />
<path fill="#400f04" opacity="1.00" d=" M 22.27 26.06 C 23.36 27.22 25.09 27.17 25.88 25.69 C 25.91 26.19 25.96 27.20 25.98 27.70 C 24.61 29.42 22.77 28.81 21.87 26.99 C 21.97 26.75 22.17 26.29 22.27 26.06 Z" />
</g>
<g id="#837b75ff">
<path fill="#837b75" opacity="1.00" d=" M 22.27 26.06 C 22.59 24.41 24.64 24.26 25.82 25.05 L 25.88 25.69 C 25.09 27.17 23.36 27.22 22.27 26.06 Z" />
</g>
<g id="#e9e9e8ff">
<path fill="#e9e9e8" opacity="1.00" d=" M 42.09 25.22 C 43.05 25.83 44.69 26.51 44.03 27.99 C 42.17 31.04 38.04 31.04 35.34 29.15 C 35.32 27.23 35.36 25.05 37.86 25.14 C 38.18 26.41 37.75 29.02 39.85 28.75 C 41.65 28.98 41.82 26.93 42.00 25.66 L 42.09 25.22 Z" />
</g>
<g id="#ffa5e3ff">
<path fill="#ffa5e3" opacity="1.00" d=" M 8.37 47.48 C 9.49 40.41 4.53 32.37 9.41 26.02 C 9.40 30.13 10.33 34.15 11.95 37.92 C 13.14 40.61 13.76 43.96 16.65 45.39 C 16.72 45.46 16.87 45.59 16.95 45.65 C 18.71 48.08 21.77 48.53 24.42 49.44 C 24.99 53.75 29.01 56.28 32.00 58.97 C 34.97 56.29 38.99 53.77 39.57 49.48 C 42.60 48.51 45.76 47.55 48.06 45.22 C 49.08 44.42 49.78 43.32 50.29 42.15 C 52.55 37.04 54.74 31.72 54.59 26.02 C 59.48 32.70 54.37 40.99 55.44 48.37 C 54.71 52.09 51.28 55.02 51.55 58.88 C 51.66 60.58 51.59 62.29 51.65 64.00 L 51.35 64.00 C 51.27 62.66 51.18 61.33 51.06 60.00 C 49.82 61.15 48.78 62.65 47.17 63.32 C 37.05 63.36 26.92 63.36 16.81 63.32 C 15.20 62.64 14.18 61.13 12.92 59.99 C 12.82 61.32 12.75 62.66 12.71 64.00 L 12.38 64.00 C 12.42 62.29 12.33 60.58 12.43 58.87 L 12.58 57.14 C 11.13 53.94 9.13 50.96 8.37 47.48 Z" />
</g>
<g id="#240201ff">
<path fill="#240201" opacity="1.00" d=" M 37.86 25.14 C 38.88 27.05 40.58 27.02 42.00 25.66 C 41.82 26.93 41.65 28.98 39.85 28.75 C 37.75 29.02 38.18 26.41 37.86 25.14 Z" />
<path fill="#240201" opacity="1.00" d=" M 25.61 38.52 C 29.88 39.00 34.14 38.92 38.40 38.57 C 37.44 42.01 33.28 45.05 29.72 43.30 C 27.87 42.29 26.05 40.67 25.61 38.52 Z" />
</g>
<g id="#3d192673">
<path fill="#3d1926" opacity="0.45" d=" M 5.34 41.52 C 3.48 37.10 1.72 31.52 3.94 26.96 C 2.59 31.80 5.20 36.65 5.34 41.52 Z" />
</g>
<g id="#421a2979">
<path fill="#421a29" opacity="0.47" d=" M 60.01 26.86 C 62.32 31.45 60.43 37.05 58.66 41.54 C 58.76 36.63 61.43 31.73 60.01 26.86 Z" />
</g>
<g id="#f5caaaff">
<path fill="#f5caaa" opacity="1.00" d=" M 21.87 26.99 C 22.77 28.81 24.61 29.42 25.98 27.70 C 26.86 27.98 28.61 28.54 29.48 28.81 C 28.04 30.56 25.15 32.36 27.16 34.81 C 27.62 33.94 28.07 33.06 28.52 32.19 C 28.17 36.90 35.84 36.93 35.44 32.18 C 35.88 33.02 36.31 33.85 36.75 34.68 C 37.30 34.06 37.85 33.44 38.40 32.81 C 38.35 32.41 38.25 31.61 38.20 31.21 C 39.83 31.23 41.45 31.21 43.09 31.22 C 42.65 34.19 41.11 36.79 39.65 39.34 C 39.24 39.08 38.82 38.82 38.40 38.57 C 34.14 38.92 29.88 39.00 25.61 38.52 C 25.16 38.74 24.72 39.00 24.28 39.23 C 23.38 37.60 22.44 35.99 21.70 34.28 C 20.46 32.42 22.69 30.33 21.15 28.45 L 21.87 26.99 Z" />
</g>
<g id="#a58765ff">
<path fill="#a58765" opacity="1.00" d=" M 28.52 32.19 C 30.82 32.64 33.15 32.66 35.44 32.18 C 35.84 36.93 28.17 36.90 28.52 32.19 Z" />
</g>
<g id="#d7ab87ff">
<path fill="#d7ab87" opacity="1.00" d=" M 27.67 47.49 C 30.56 47.59 33.44 47.61 36.33 47.49 C 36.52 48.29 36.91 49.88 37.10 50.68 C 37.08 51.94 36.42 53.00 35.54 53.86 C 34.82 52.11 33.76 50.54 31.99 49.74 C 30.27 50.59 29.18 52.11 28.45 53.85 C 27.55 53.02 26.97 51.93 26.93 50.69 C 27.11 49.89 27.49 48.29 27.67 47.49 Z" />
</g>
<g id="#f5cdaaff">
<path fill="#f5cdaa" opacity="1.00" d=" M 28.45 53.85 C 29.18 52.11 30.27 50.59 31.99 49.74 C 33.76 50.54 34.82 52.11 35.54 53.86 C 34.39 55.00 33.19 56.11 31.98 57.19 C 30.78 56.10 29.60 54.99 28.45 53.85 Z" />
</g>
</svg>
