<?xml version="1.0" encoding="UTF-8" ?>
<!DOCTYPE svg PUBLIC "-//W3C//DTD SVG 1.1//EN" "http://www.w3.org/Graphics/SVG/1.1/DTD/svg11.dtd">
<svg width="64pt" height="64pt" viewBox="0 0 64 64" version="1.1" xmlns="http://www.w3.org/2000/svg">
<g id="#7e301bff">
<path fill="#7e301b" opacity="1.00" d=" M 25.01 3.91 C 30.87 4.33 36.93 2.03 42.57 4.47 C 49.10 6.68 53.13 13.17 54.13 19.74 C 51.56 21.54 49.03 23.39 46.51 25.27 C 45.47 24.36 44.42 23.48 43.35 22.62 C 37.80 19.30 30.51 20.60 25.37 16.36 C 25.08 16.98 24.80 17.61 24.53 18.23 C 22.51 19.27 20.55 20.44 18.69 21.75 C 18.00 26.74 17.44 31.77 18.63 36.74 C 14.61 32.76 16.65 26.90 16.64 21.97 C 15.17 19.60 12.70 18.11 10.63 16.32 C 12.76 10.10 17.82 3.68 25.01 3.91 M 23.39 12.02 C 26.94 15.07 31.65 16.17 36.04 17.47 C 39.52 18.06 44.30 18.92 46.22 15.07 C 44.54 11.86 41.96 8.58 38.05 8.29 C 33.02 7.84 27.14 8.20 23.39 12.02 Z" />
<path fill="#7e301b" opacity="1.00" d=" M 19.80 39.79 C 22.02 41.27 23.95 43.11 26.02 44.78 C 28.48 46.88 32.00 46.85 34.98 46.13 C 38.78 45.27 40.97 41.72 44.15 39.76 C 43.86 40.87 43.53 41.97 43.16 43.05 C 41.20 44.60 39.13 45.98 37.09 47.41 C 37.19 47.53 37.39 47.77 37.50 47.88 C 38.30 48.90 39.07 49.94 39.83 50.99 C 37.32 53.68 34.71 56.28 32.00 58.78 C 29.29 56.28 26.68 53.68 24.16 50.98 C 24.93 49.96 25.72 48.95 26.51 47.95 C 26.64 47.79 26.90 47.49 27.03 47.33 C 25.67 46.52 24.31 45.70 22.95 44.89 C 21.52 43.46 20.27 41.79 19.80 39.79 M 27.40 48.46 C 27.41 50.02 27.26 51.60 27.53 53.15 C 28.82 54.90 30.46 56.36 31.98 57.91 C 33.51 56.40 35.16 54.97 36.41 53.20 C 36.82 51.66 36.55 50.03 36.60 48.46 C 33.57 47.54 30.43 47.54 27.40 48.46 Z" />
</g>
<g id="#95452bff">
<path fill="#95452b" opacity="1.00" d=" M 23.39 12.02 C 27.14 8.20 33.02 7.84 38.05 8.29 C 41.96 8.58 44.54 11.86 46.22 15.07 C 44.30 18.92 39.52 18.06 36.04 17.47 C 31.65 16.17 26.94 15.07 23.39 12.02 Z" />
<path fill="#95452b" opacity="1.00" d=" M 36.60 24.89 C 38.89 24.41 41.25 24.53 43.58 24.43 C 43.60 24.83 43.64 25.62 43.65 26.02 L 41.81 24.67 C 42.07 26.23 42.24 29.23 39.87 29.02 C 37.54 29.25 38.00 26.14 37.92 24.69 C 34.54 25.51 34.71 28.96 37.16 30.75 C 38.81 30.56 40.46 30.38 42.11 30.21 C 40.65 30.61 39.18 30.93 37.71 31.26 C 36.61 30.29 35.51 29.33 34.41 28.37 C 34.97 27.14 35.09 25.36 36.60 24.89 Z" />
<path fill="#95452b" opacity="1.00" d=" M 28.49 32.51 C 30.83 32.45 33.18 32.52 35.51 32.69 C 35.03 33.55 34.55 34.41 34.07 35.27 C 32.69 35.28 31.30 35.29 29.91 35.29 C 29.44 34.36 28.96 33.44 28.49 32.51 Z" />
</g>
<g id="#f8dec8ff">
<path fill="#f8dec8" opacity="1.00" d=" M 25.37 16.36 C 30.51 20.60 37.80 19.30 43.35 22.62 C 43.41 23.07 43.52 23.98 43.58 24.43 C 41.25 24.53 38.89 24.41 36.60 24.89 C 35.09 25.36 34.97 27.14 34.41 28.37 C 35.51 29.33 36.61 30.29 37.71 31.26 C 37.59 31.86 37.47 32.46 37.36 33.06 C 36.74 32.92 36.13 32.80 35.51 32.69 C 33.18 32.52 30.83 32.45 28.49 32.51 C 27.74 32.53 27.00 32.55 26.26 32.57 C 28.25 30.75 30.43 28.69 29.85 25.71 C 27.74 24.39 25.67 23.02 23.59 21.66 C 23.89 20.51 24.21 19.37 24.53 18.23 C 24.80 17.61 25.08 16.98 25.37 16.36 Z" />
<path fill="#f8dec8" opacity="1.00" d=" M 37.16 30.75 C 34.71 28.96 34.54 25.51 37.92 24.69 C 38.00 26.14 37.54 29.25 39.87 29.02 C 42.24 29.23 42.07 26.23 41.81 24.67 L 43.65 26.02 C 43.82 27.59 42.83 28.91 42.11 30.21 C 40.46 30.38 38.81 30.56 37.16 30.75 Z" />
</g>
<g id="#59180cff">
<path fill="#59180c" opacity="1.00" d=" M 10.28 39.19 C 9.60 31.61 8.66 23.80 10.63 16.32 C 12.70 18.11 15.17 19.60 16.64 21.97 C 16.65 26.90 14.61 32.76 18.63 36.74 C 18.80 36.97 19.16 37.42 19.33 37.65 C 19.45 38.18 19.68 39.25 19.80 39.79 C 20.27 41.79 21.52 43.46 22.95 44.89 C 18.84 42.76 14.59 40.88 10.28 39.19 Z" />
<path fill="#59180c" opacity="1.00" d=" M 46.51 25.27 C 49.03 23.39 51.56 21.54 54.13 19.74 C 54.88 26.44 54.33 33.21 53.63 39.89 C 52.58 38.99 51.54 38.09 50.50 37.17 C 48.10 39.19 45.67 41.18 43.16 43.05 C 43.53 41.97 43.86 40.87 44.15 39.76 C 44.85 37.50 45.53 35.23 46.38 33.01 C 46.45 30.43 46.48 27.85 46.51 25.27 Z" />
</g>
<g id="#f0c5a2ff">
<path fill="#f0c5a2" opacity="1.00" d=" M 18.69 21.75 C 20.55 20.44 22.51 19.27 24.53 18.23 C 24.21 19.37 23.89 20.51 23.59 21.66 C 25.67 23.02 27.74 24.39 29.85 25.71 C 30.43 28.69 28.25 30.75 26.26 32.57 C 27.00 32.55 27.74 32.53 28.49 32.51 C 28.96 33.44 29.44 34.36 29.91 35.29 C 31.30 35.29 32.69 35.28 34.07 35.27 C 34.55 34.41 35.03 33.55 35.51 32.69 C 36.13 32.80 36.74 32.92 37.36 33.06 C 37.47 32.46 37.59 31.86 37.71 31.26 C 39.18 30.93 40.65 30.61 42.11 30.21 C 42.83 28.91 43.82 27.59 43.65 26.02 C 43.64 25.62 43.60 24.83 43.58 24.43 C 43.52 23.98 43.41 23.07 43.35 22.62 C 44.42 23.48 45.47 24.36 46.51 25.27 C 46.48 27.85 46.45 30.43 46.38 33.01 C 45.53 35.23 44.85 37.50 44.15 39.76 C 40.97 41.72 38.78 45.27 34.98 46.13 C 32.00 46.85 28.48 46.88 26.02 44.78 C 23.95 43.11 22.02 41.27 19.80 39.79 C 19.68 39.25 19.45 38.18 19.33 37.65 C 19.16 37.42 18.80 36.97 18.63 36.74 C 17.44 31.77 18.00 26.74 18.69 21.75 M 23.45 28.68 C 26.00 29.76 27.01 25.46 24.81 24.23 C 24.62 25.00 24.25 26.54 24.07 27.32 C 23.77 26.43 23.17 24.66 22.86 23.77 C 22.90 25.40 21.11 27.91 23.45 28.68 M 31.96 43.27 C 33.66 43.28 33.80 40.26 32.11 40.08 C 30.36 40.11 30.36 42.97 31.96 43.27 Z" />
<path fill="#f0c5a2" opacity="1.00" d=" M 27.40 48.46 C 30.43 47.54 33.57 47.54 36.60 48.46 C 36.55 50.03 36.82 51.66 36.41 53.20 C 35.16 54.97 33.51 56.40 31.98 57.91 C 30.46 56.36 28.82 54.90 27.53 53.15 C 27.26 51.60 27.41 50.02 27.40 48.46 Z" />
</g>
<g id="#350e06ff">
<path fill="#350e06" opacity="1.00" d=" M 23.45 28.68 C 21.11 27.91 22.90 25.40 22.86 23.77 C 23.17 24.66 23.77 26.43 24.07 27.32 C 24.25 26.54 24.62 25.00 24.81 24.23 C 27.01 25.46 26.00 29.76 23.45 28.68 Z" />
<path fill="#350e06" opacity="1.00" d=" M 43.16 43.05 C 45.67 41.18 48.10 39.19 50.50 37.17 C 51.54 38.09 52.58 38.99 53.63 39.89 C 53.11 43.88 52.31 47.96 50.03 51.36 C 49.57 51.39 48.65 51.46 48.19 51.49 C 45.27 50.57 42.31 49.78 39.31 49.17 C 38.85 48.85 37.95 48.20 37.50 47.88 C 37.39 47.77 37.19 47.53 37.09 47.41 C 39.13 45.98 41.20 44.60 43.16 43.05 Z" />
<path fill="#350e06" opacity="1.00" d=" M 10.28 39.19 C 14.59 40.88 18.84 42.76 22.95 44.89 C 24.31 45.70 25.67 46.52 27.03 47.33 C 26.90 47.49 26.64 47.79 26.51 47.95 C 23.31 50.02 19.35 50.19 15.83 51.48 C 15.37 51.45 14.45 51.40 13.99 51.37 C 11.44 47.82 10.84 43.40 10.28 39.19 Z" />
<path fill="#350e06" opacity="1.00" d=" M 31.96 43.27 C 30.36 42.97 30.36 40.11 32.11 40.08 C 33.80 40.26 33.66 43.28 31.96 43.27 Z" />
</g>
<g id="#f9a2e0ff">
<path fill="#f9a2e0" opacity="1.00" d=" M 15.83 51.48 C 19.35 50.19 23.31 50.02 26.51 47.95 C 25.72 48.95 24.93 49.96 24.16 50.98 C 26.68 53.68 29.29 56.28 32.00 58.78 C 34.71 56.28 37.32 53.68 39.83 50.99 C 39.07 49.94 38.30 48.90 37.50 47.88 C 37.95 48.20 38.85 48.85 39.31 49.17 C 42.31 49.78 45.27 50.57 48.19 51.49 C 50.12 52.44 52.44 53.53 52.91 55.87 C 53.54 58.53 53.20 61.29 53.27 64.00 L 11.26 64.00 C 10.41 59.43 10.28 52.97 15.83 51.48 Z" />
</g>
</svg>
