<?xml version="1.0" encoding="UTF-8" ?>
<!DOCTYPE svg PUBLIC "-//W3C//DTD SVG 1.1//EN" "http://www.w3.org/Graphics/SVG/1.1/DTD/svg11.dtd">
<svg width="64pt" height="64pt" viewBox="0 0 64 64" version="1.1" xmlns="http://www.w3.org/2000/svg">
<g id="#521608ff">
<path fill="#521608" opacity="1.00" d=" M 19.30 5.26 C 23.16 2.80 27.77 4.51 31.98 3.59 C 36.36 2.82 41.06 3.33 44.97 5.54 C 37.56 5.37 30.10 4.78 22.71 5.83 C 18.57 7.46 14.00 11.12 14.38 16.05 C 14.11 18.39 15.46 20.35 16.65 22.21 C 16.18 25.61 16.07 29.05 16.42 32.48 C 16.34 32.55 16.19 32.70 16.11 32.78 C 13.82 30.80 10.88 29.77 8.69 27.68 L 8.43 27.35 L 9.47 28.03 C 8.93 19.60 11.30 9.57 19.30 5.26 Z" />
</g>
<g id="#82341dff">
<path fill="#82341d" opacity="1.00" d=" M 22.71 5.83 C 30.10 4.78 37.56 5.37 44.97 5.54 C 46.50 6.55 47.93 7.71 49.24 8.99 C 49.79 13.46 51.20 17.99 50.25 22.50 C 49.42 23.13 48.50 23.64 47.61 24.19 C 47.84 26.99 47.95 29.81 47.94 32.62 C 47.17 32.42 46.40 32.22 45.63 32.02 C 45.16 29.06 46.83 25.01 44.06 22.90 C 38.45 19.34 31.04 20.77 25.78 16.61 C 25.02 17.32 24.24 18.01 23.45 18.68 C 21.76 19.73 19.42 20.22 18.63 22.26 C 17.18 25.16 17.70 28.47 17.36 31.58 L 16.42 32.48 C 16.07 29.05 16.18 25.61 16.65 22.21 C 15.46 20.35 14.11 18.39 14.38 16.05 C 14.00 11.12 18.57 7.46 22.71 5.83 M 26.33 11.97 C 29.15 14.91 33.11 16.30 36.97 17.26 C 39.63 17.87 42.98 17.86 44.46 15.13 C 45.05 12.17 42.17 10.15 39.80 9.15 C 35.29 7.58 29.76 8.53 26.33 11.97 Z" />
</g>
<g id="#9e4a2fff">
<path fill="#9e4a2f" opacity="1.00" d=" M 26.33 11.97 C 29.76 8.53 35.29 7.58 39.80 9.15 C 42.17 10.15 45.05 12.17 44.46 15.13 C 42.98 17.86 39.63 17.87 36.97 17.26 C 33.11 16.30 29.15 14.91 26.33 11.97 Z" />
</g>
<g id="#4d1507ff">
<path fill="#4d1507" opacity="1.00" d=" M 49.24 8.99 C 53.87 14.15 54.79 21.39 54.55 28.05 L 55.79 27.20 C 53.62 29.58 50.47 30.69 47.95 32.63 L 47.94 32.62 C 47.95 29.81 47.84 26.99 47.61 24.19 C 48.50 23.64 49.42 23.13 50.25 22.50 C 51.20 17.99 49.79 13.46 49.24 8.99 Z" />
<path fill="#4d1507" opacity="1.00" d=" M 22.28 27.67 C 23.30 26.65 24.80 26.38 26.13 25.97 C 26.76 28.33 23.27 30.28 22.28 27.67 Z" />
</g>
<g id="#faddc1ff">
<path fill="#faddc1" opacity="1.00" d=" M 23.45 18.68 C 24.24 18.01 25.02 17.32 25.78 16.61 C 31.04 20.77 38.45 19.34 44.06 22.90 C 42.17 22.89 40.26 23.21 38.82 24.54 L 38.19 25.02 C 36.43 26.17 34.46 27.64 35.73 29.92 C 36.68 30.82 37.65 31.71 38.61 32.60 C 38.00 33.30 37.40 34.00 36.79 34.70 C 36.37 33.94 35.96 33.18 35.54 32.41 C 33.16 32.53 30.77 32.53 28.38 32.41 C 27.96 33.23 27.54 34.05 27.12 34.87 C 26.72 33.61 26.31 32.35 25.92 31.09 C 27.75 30.30 30.60 28.93 29.40 26.43 C 28.01 24.40 25.43 23.62 23.40 22.36 C 23.43 21.13 23.44 19.91 23.45 18.68 Z" />
</g>
<g id="#ddad87ff">
<path fill="#ddad87" opacity="1.00" d=" M 18.63 22.26 C 19.42 20.22 21.76 19.73 23.45 18.68 C 23.44 19.91 23.43 21.13 23.40 22.36 C 25.43 23.62 28.01 24.40 29.40 26.43 C 30.60 28.93 27.75 30.30 25.92 31.09 C 24.37 31.17 22.83 31.20 21.28 31.24 C 21.11 31.88 20.77 33.17 20.59 33.81 C 19.50 33.08 18.43 32.33 17.36 31.58 C 17.70 28.47 17.18 25.16 18.63 22.26 M 21.83 26.19 L 21.56 25.10 C 21.11 25.62 20.22 26.68 19.78 27.21 C 20.84 31.26 28.08 31.76 28.96 27.35 C 28.38 26.77 27.21 25.61 26.62 25.03 L 26.13 25.97 C 25.53 23.97 22.42 24.36 21.83 26.19 Z" />
</g>
<g id="#c89d79f5">
<path fill="#c89d79" opacity="0.96" d=" M 3.25 22.37 C 5.77 22.93 6.78 25.65 8.43 27.35 L 8.69 27.68 C 8.41 28.47 7.85 30.04 7.57 30.83 C 6.16 27.97 3.05 25.84 3.25 22.37 Z" />
</g>
<g id="#f4c8a5ff">
<path fill="#f4c8a5" opacity="1.00" d=" M 44.06 22.90 C 46.83 25.01 45.16 29.06 45.63 32.02 C 42.06 34.75 38.29 37.21 34.42 39.50 C 33.83 39.20 32.65 38.60 32.06 38.30 C 31.51 38.67 30.42 39.40 29.88 39.76 C 26.78 37.77 23.67 35.82 20.59 33.81 C 20.77 33.17 21.11 31.88 21.28 31.24 C 22.83 31.20 24.37 31.17 25.92 31.09 C 26.31 32.35 26.72 33.61 27.12 34.87 C 27.54 34.05 27.96 33.23 28.38 32.41 C 28.98 33.74 29.48 35.51 31.21 35.70 C 33.46 36.39 35.14 34.42 35.54 32.41 C 35.96 33.18 36.37 33.94 36.79 34.70 C 37.40 34.00 38.00 33.30 38.61 32.60 C 37.65 31.71 36.68 30.82 35.73 29.92 C 38.36 29.98 41.63 30.90 43.54 28.50 C 45.05 27.44 43.18 26.00 42.07 25.72 C 41.06 25.12 39.98 24.73 38.82 24.54 C 40.26 23.21 42.17 22.89 44.06 22.90 Z" />
</g>
<g id="#fadbbeff">
<path fill="#fadbbe" opacity="1.00" d=" M 55.79 27.20 C 57.36 25.48 58.75 23.60 60.36 21.92 C 60.70 25.57 57.27 27.77 56.03 30.89 C 54.67 32.84 52.63 34.11 50.78 35.52 C 49.84 34.56 48.91 33.57 47.95 32.63 C 50.47 30.69 53.62 29.58 55.79 27.20 Z" />
<path fill="#fadbbe" opacity="1.00" d=" M 8.69 27.68 C 10.88 29.77 13.82 30.80 16.11 32.78 C 15.16 33.67 14.21 34.57 13.26 35.47 C 11.33 34.08 9.43 32.65 7.59 31.14 L 7.57 30.83 C 7.85 30.04 8.41 28.47 8.69 27.68 Z" />
</g>
<g id="#381b217e">
<path fill="#381b21" opacity="0.49" d=" M 60.36 21.92 C 60.53 22.49 60.86 23.63 61.03 24.20 C 59.56 29.50 54.37 33.29 54.09 39.06 C 53.70 43.84 52.60 48.55 50.26 52.77 C 51.74 56.34 51.79 60.20 51.67 64.00 L 48.84 64.00 C 49.32 63.93 50.28 63.78 50.76 63.71 C 50.67 59.84 52.03 54.75 48.22 52.18 C 48.02 52.03 47.62 51.72 47.42 51.57 C 51.52 51.41 52.16 47.08 52.92 43.90 C 54.00 39.56 53.13 34.65 56.03 30.89 C 57.27 27.77 60.70 25.57 60.36 21.92 Z" />
</g>
<g id="#776760ff">
<path fill="#776760" opacity="1.00" d=" M 21.83 26.19 C 22.42 24.36 25.53 23.97 26.13 25.97 C 24.80 26.38 23.30 26.65 22.28 27.67 C 22.17 27.30 21.95 26.56 21.83 26.19 Z" />
<path fill="#776760" opacity="1.00" d=" M 38.19 25.02 L 38.82 24.54 C 39.98 24.73 41.06 25.12 42.07 25.72 C 41.91 26.29 41.58 27.44 41.42 28.01 C 40.74 26.84 39.34 26.31 38.13 25.86 L 38.19 25.02 Z" />
</g>
<g id="#e6e4e1ff">
<path fill="#e6e4e1" opacity="1.00" d=" M 35.73 29.92 C 34.46 27.64 36.43 26.17 38.19 25.02 L 38.13 25.86 C 38.18 26.33 38.28 27.28 38.32 27.76 C 38.29 29.45 41.16 29.65 41.42 28.01 C 41.58 27.44 41.91 26.29 42.07 25.72 C 43.18 26.00 45.05 27.44 43.54 28.50 C 41.63 30.90 38.36 29.98 35.73 29.92 Z" />
</g>
<g id="#eae9e9ff">
<path fill="#eae9e9" opacity="1.00" d=" M 19.78 27.21 C 20.22 26.68 21.11 25.62 21.56 25.10 L 21.83 26.19 C 21.95 26.56 22.17 27.30 22.28 27.67 C 23.27 30.28 26.76 28.33 26.13 25.97 L 26.62 25.03 C 27.21 25.61 28.38 26.77 28.96 27.35 C 28.08 31.76 20.84 31.26 19.78 27.21 Z" />
</g>
<g id="#3f150aff">
<path fill="#3f150a" opacity="1.00" d=" M 38.13 25.86 C 39.34 26.31 40.74 26.84 41.42 28.01 C 40.65 27.95 39.10 27.82 38.32 27.76 C 38.28 27.28 38.18 26.33 38.13 25.86 Z" />
</g>
<g id="#a56a44ff">
<path fill="#a56a44" opacity="1.00" d=" M 38.32 27.76 C 39.10 27.82 40.65 27.95 41.42 28.01 C 41.16 29.65 38.29 29.45 38.32 27.76 Z" />
</g>
<g id="#2b0601ff">
<path fill="#2b0601" opacity="1.00" d=" M 7.59 31.14 C 9.43 32.65 11.33 34.08 13.26 35.47 C 13.24 36.53 13.18 37.59 13.10 38.64 C 13.46 38.94 14.16 39.55 14.52 39.86 C 16.73 41.73 18.87 43.69 21.05 45.60 C 21.53 45.97 22.49 46.73 22.97 47.10 C 20.83 48.27 18.85 49.73 17.01 51.32 L 15.88 51.44 C 15.33 51.49 14.23 51.59 13.68 51.64 C 10.48 46.40 10.36 40.16 9.46 34.27 C 8.86 33.54 8.26 32.79 7.69 32.03 L 7.59 31.14 Z" />
<path fill="#2b0601" opacity="1.00" d=" M 50.78 35.52 C 52.63 34.11 54.67 32.84 56.03 30.89 C 53.13 34.65 54.00 39.56 52.92 43.90 C 52.16 47.08 51.52 51.41 47.42 51.57 C 46.76 51.09 45.44 50.11 44.78 49.63 C 43.52 48.70 42.34 47.68 41.14 46.69 C 44.09 44.69 46.71 42.29 49.41 39.99 C 51.03 39.00 50.84 37.18 50.78 35.52 Z" />
<path fill="#2b0601" opacity="1.00" d=" M 29.88 39.76 C 30.42 39.40 31.51 38.67 32.06 38.30 C 32.65 38.60 33.83 39.20 34.42 39.50 C 33.57 40.01 32.71 40.52 31.86 41.03 C 31.20 40.61 30.54 40.18 29.88 39.76 Z" />
</g>
<g id="#ac4a88fc">
<path fill="#ac4a88" opacity="1.00" d=" M 16.11 32.78 C 16.19 32.70 16.34 32.55 16.42 32.48 L 17.36 31.58 C 18.43 32.33 19.50 33.08 20.59 33.81 C 23.67 35.82 26.78 37.77 29.88 39.76 C 30.54 40.18 31.20 40.61 31.86 41.03 C 32.71 40.52 33.57 40.01 34.42 39.50 C 38.29 37.21 42.06 34.75 45.63 32.02 C 46.40 32.22 47.17 32.42 47.94 32.62 L 47.95 32.63 C 48.91 33.57 49.84 34.56 50.78 35.52 C 50.84 37.18 51.03 39.00 49.41 39.99 C 49.56 37.78 49.19 34.03 46.15 34.36 C 42.81 35.03 40.22 37.56 37.21 39.04 C 32.35 41.53 27.91 44.76 22.97 47.10 C 22.49 46.73 21.53 45.97 21.05 45.60 C 23.90 45.57 26.39 44.21 28.65 42.61 C 28.67 42.06 28.72 40.95 28.75 40.40 C 25.15 38.36 21.89 35.40 17.84 34.38 C 14.82 33.96 14.91 37.85 14.52 39.86 C 14.16 39.55 13.46 38.94 13.10 38.64 C 13.18 37.59 13.24 36.53 13.26 35.47 C 14.21 34.57 15.16 33.67 16.11 32.78 Z" />
<path fill="#ac4a88" opacity="1.00" d=" M 12.74 64.00 C 12.77 59.70 11.91 54.38 15.88 51.44 L 17.01 51.32 C 14.90 54.64 12.95 59.78 16.79 62.67 C 20.06 62.99 22.86 61.05 25.36 59.21 C 26.51 58.31 27.63 57.36 28.77 56.43 L 29.97 56.15 C 30.00 56.52 30.06 57.26 30.09 57.63 L 30.17 58.52 C 28.85 59.59 27.53 60.66 26.26 61.79 C 25.65 62.51 25.09 63.27 24.49 64.00 L 23.39 64.00 C 24.28 61.50 20.73 62.15 20.39 64.00 L 12.74 64.00 Z" />
</g>
<g id="#a68666ff">
<path fill="#a68666" opacity="1.00" d=" M 28.38 32.41 C 30.77 32.53 33.16 32.53 35.54 32.41 C 35.14 34.42 33.46 36.39 31.21 35.70 C 29.48 35.51 28.98 33.74 28.38 32.41 Z" />
</g>
<g id="#e289c4ff">
<path fill="#e289c4" opacity="1.00" d=" M 14.52 39.86 C 14.91 37.85 14.82 33.96 17.84 34.38 C 21.89 35.40 25.15 38.36 28.75 40.40 C 28.72 40.95 28.67 42.06 28.65 42.61 C 26.39 44.21 23.90 45.57 21.05 45.60 C 18.87 43.69 16.73 41.73 14.52 39.86 Z" />
</g>
<g id="#e187c2ff">
<path fill="#e187c2" opacity="1.00" d=" M 37.21 39.04 C 40.22 37.56 42.81 35.03 46.15 34.36 C 49.19 34.03 49.56 37.78 49.41 39.99 C 46.71 42.29 44.09 44.69 41.14 46.69 C 37.77 49.10 34.65 51.84 31.65 54.69 C 31.34 55.03 30.73 55.70 30.42 56.04 L 29.97 56.15 L 28.77 56.43 C 32.43 50.39 39.19 46.90 42.22 40.42 C 34.11 42.91 26.46 46.82 19.49 51.63 C 16.70 53.33 17.36 56.88 17.26 59.64 C 19.97 59.54 22.66 59.41 25.36 59.21 C 22.86 61.05 20.06 62.99 16.79 62.67 C 12.95 59.78 14.90 54.64 17.01 51.32 C 18.85 49.73 20.83 48.27 22.97 47.10 C 27.91 44.76 32.35 41.53 37.21 39.04 Z" />
</g>
<g id="#f99edbff">
<path fill="#f99edb" opacity="1.00" d=" M 19.49 51.63 C 26.46 46.82 34.11 42.91 42.22 40.42 C 39.19 46.90 32.43 50.39 28.77 56.43 C 27.63 57.36 26.51 58.31 25.36 59.21 C 22.66 59.41 19.97 59.54 17.26 59.64 C 17.36 56.88 16.70 53.33 19.49 51.63 Z" />
</g>
<g id="#95527cfe">
<path fill="#95527c" opacity="1.00" d=" M 31.65 54.69 C 34.65 51.84 37.77 49.10 41.14 46.69 C 42.34 47.68 43.52 48.70 44.78 49.63 C 44.06 49.60 42.64 49.56 41.93 49.54 C 39.71 51.10 37.54 52.73 35.42 54.43 C 35.39 54.98 35.34 56.09 35.32 56.65 C 37.43 58.37 39.69 59.90 41.86 61.56 C 42.79 62.36 43.70 63.17 44.60 64.00 L 40.17 64.00 C 39.39 63.20 38.66 62.37 37.86 61.58 C 35.80 59.52 33.11 58.35 30.17 58.52 L 30.09 57.63 C 31.22 59.20 34.99 58.17 33.35 56.12 C 32.93 55.76 32.08 55.05 31.65 54.69 Z" />
</g>
<g id="#f49bd7ff">
<path fill="#f49bd7" opacity="1.00" d=" M 35.42 54.43 C 37.54 52.73 39.71 51.10 41.93 49.54 C 42.64 49.56 44.06 49.60 44.78 49.63 C 45.44 50.11 46.76 51.09 47.42 51.57 C 47.62 51.72 48.02 52.03 48.22 52.18 C 48.50 55.29 48.64 58.41 48.56 61.54 C 46.32 61.56 44.09 61.56 41.86 61.56 C 39.69 59.90 37.43 58.37 35.32 56.65 C 35.34 56.09 35.39 54.98 35.42 54.43 Z" />
</g>
<g id="#ac4a88f8">
<path fill="#ac4a88" opacity="0.97" d=" M 48.22 52.18 C 52.03 54.75 50.67 59.84 50.76 63.71 C 50.28 63.78 49.32 63.93 48.84 64.00 L 44.60 64.00 C 43.70 63.17 42.79 62.36 41.86 61.56 C 44.09 61.56 46.32 61.56 48.56 61.54 C 48.64 58.41 48.50 55.29 48.22 52.18 Z" />
</g>
<g id="#e2b495ff">
<path fill="#e2b495" opacity="1.00" d=" M 30.42 56.04 C 30.73 55.70 31.34 55.03 31.65 54.69 C 32.08 55.05 32.93 55.76 33.35 56.12 C 32.40 57.07 31.42 57.04 30.42 56.04 Z" />
</g>
<g id="#bd3668ff">
<path fill="#bd3668" opacity="1.00" d=" M 29.97 56.15 L 30.42 56.04 C 31.42 57.04 32.40 57.07 33.35 56.12 C 34.99 58.17 31.22 59.20 30.09 57.63 C 30.06 57.26 30.00 56.52 29.97 56.15 Z" />
</g>
<g id="#f792d6ff">
<path fill="#f792d6" opacity="1.00" d=" M 26.26 61.79 C 27.53 60.66 28.85 59.59 30.17 58.52 C 33.11 58.35 35.80 59.52 37.86 61.58 C 34.33 63.45 29.91 63.26 26.26 61.79 Z" />
</g>
<g id="#cc5ea5f9">
<path fill="#cc5ea5" opacity="0.98" d=" M 24.49 64.00 C 25.09 63.27 25.65 62.51 26.26 61.79 C 29.91 63.26 34.33 63.45 37.86 61.58 C 38.66 62.37 39.39 63.20 40.17 64.00 L 24.49 64.00 Z" />
</g>
<g id="#753454fa">
<path fill="#753454" opacity="0.98" d=" M 20.39 64.00 C 20.73 62.15 24.28 61.50 23.39 64.00 L 20.39 64.00 Z" />
</g>
</svg>
