<?xml version="1.0" encoding="UTF-8" ?>
<!DOCTYPE svg PUBLIC "-//W3C//DTD SVG 1.1//EN" "http://www.w3.org/Graphics/SVG/1.1/DTD/svg11.dtd">
<svg width="64pt" height="64pt" viewBox="0 0 64 64" version="1.1" xmlns="http://www.w3.org/2000/svg">
<g id="#1e85b0ff">
<path fill="#1e85b0" opacity="1.00" d=" M 22.46 4.43 C 24.56 3.84 26.67 3.27 28.77 2.64 C 28.56 5.89 28.41 9.15 28.17 12.40 C 26.11 9.86 24.33 7.11 22.46 4.43 Z" />
<path fill="#1e85b0" opacity="1.00" d=" M 35.23 2.67 C 37.23 3.24 39.24 3.75 41.26 4.27 C 39.78 7.22 37.85 9.92 35.81 12.49 C 35.61 9.22 35.44 5.94 35.23 2.67 Z" />
<path fill="#1e85b0" opacity="1.00" d=" M 13.96 13.92 C 15.21 11.89 16.53 9.92 17.87 7.96 C 19.38 10.68 20.93 13.37 22.52 16.04 C 19.68 15.30 16.83 14.56 13.96 13.92 Z" />
<path fill="#1e85b0" opacity="1.00" d=" M 41.46 16.09 C 43.08 13.41 44.63 10.70 46.13 7.95 C 47.47 9.92 48.79 11.89 50.03 13.92 C 47.16 14.58 44.31 15.34 41.46 16.09 Z" />
<path fill="#1e85b0" opacity="1.00" d=" M 22.38 37.11 C 23.34 36.19 24.38 36.10 25.52 36.84 L 25.74 37.43 C 25.35 37.84 24.56 38.65 24.17 39.05 C 23.71 38.72 22.78 38.06 22.32 37.73 L 22.38 37.11 Z" />
<path fill="#1e85b0" opacity="1.00" d=" M 9.58 44.09 C 11.60 42.46 14.07 41.42 16.61 40.91 C 17.74 42.52 18.83 44.15 19.93 45.78 C 17.65 46.92 15.11 47.31 12.61 47.71 C 15.64 49.42 19.67 50.49 21.01 54.07 C 20.67 54.62 19.99 55.72 19.66 56.27 C 19.09 57.25 18.65 58.28 18.15 59.30 C 17.31 59.16 15.63 58.87 14.79 58.73 C 11.22 58.06 7.83 56.71 4.65 54.99 C 5.28 50.96 7.15 47.32 9.58 44.09 Z" />
<path fill="#1e85b0" opacity="1.00" d=" M 45.43 43.63 C 45.98 42.93 47.08 41.52 47.63 40.82 C 49.98 41.67 52.47 42.43 54.40 44.08 C 56.85 47.31 58.75 50.96 59.32 55.02 C 56.82 56.23 54.34 57.58 51.59 58.09 C 49.48 58.43 47.36 58.74 45.26 59.16 C 44.61 57.41 43.88 55.70 43.16 53.97 C 44.31 50.43 48.33 49.48 51.23 47.82 C 48.66 47.21 46.16 46.39 43.81 45.19 C 43.60 44.74 43.19 43.85 42.99 43.41 C 43.80 43.48 44.62 43.56 45.43 43.63 Z" />
</g>
<g id="#080808ff">
<path fill="#080808" opacity="1.00" d=" M 26.01 16.91 C 32.41 15.12 40.21 15.97 44.93 21.07 C 49.45 26.38 50.72 34.51 47.63 40.82 C 47.08 41.52 45.98 42.93 45.43 43.63 C 45.34 39.47 46.85 34.52 43.35 31.29 C 43.86 32.69 44.40 34.09 44.94 35.48 C 41.40 35.03 37.86 34.34 34.59 32.82 C 37.99 31.09 41.90 29.66 43.71 26.01 C 41.79 23.28 39.70 19.87 35.97 19.66 C 31.66 19.40 26.40 18.64 23.12 22.15 C 21.48 23.43 21.76 25.65 21.46 27.47 C 24.85 30.03 28.82 31.65 33.11 31.68 C 33.43 31.94 34.08 32.45 34.40 32.71 C 34.58 33.31 34.94 34.52 35.12 35.12 C 30.65 34.27 26.23 33.05 22.12 31.06 C 20.91 32.51 19.57 33.88 18.58 35.50 C 18.18 37.88 18.48 40.31 18.48 42.71 L 19.80 42.29 C 19.69 42.83 19.46 43.92 19.35 44.46 L 21.75 44.71 L 19.93 45.78 C 18.83 44.15 17.74 42.52 16.61 40.91 C 13.88 36.17 14.48 30.23 16.25 25.26 C 17.66 20.92 21.71 17.97 26.01 16.91 Z" />
<path fill="#080808" opacity="1.00" d=" M 22.32 37.73 C 22.78 38.06 23.71 38.72 24.17 39.05 C 24.56 38.65 25.35 37.84 25.74 37.43 C 25.56 38.60 26.23 41.06 24.20 40.62 C 22.40 41.18 22.29 38.87 22.32 37.73 Z" />
<path fill="#080808" opacity="1.00" d=" M 37.44 35.86 C 38.08 38.60 40.10 38.78 42.26 38.29 C 41.57 39.12 41.25 41.09 39.77 40.63 C 37.21 41.04 38.70 36.83 37.44 35.86 Z" />
<path fill="#080808" opacity="1.00" d=" M 18.15 59.30 C 18.65 58.28 19.09 57.25 19.66 56.27 C 19.42 57.05 18.95 58.61 18.72 59.39 C 22.83 59.72 27.00 59.96 31.09 59.24 C 31.30 59.21 31.72 59.14 31.93 59.11 C 36.01 59.66 40.16 60.03 44.25 59.36 C 44.50 59.31 45.01 59.21 45.26 59.16 C 47.36 58.74 49.48 58.43 51.59 58.09 C 42.74 62.30 32.52 61.65 22.98 61.19 C 20.21 60.48 17.15 60.60 14.79 58.73 C 15.63 58.87 17.31 59.16 18.15 59.30 Z" />
</g>
<g id="#393838ff">
<path fill="#393838" opacity="1.00" d=" M 23.12 22.15 C 26.40 18.64 31.66 19.40 35.97 19.66 C 39.70 19.87 41.79 23.28 43.71 26.01 C 41.90 29.66 37.99 31.09 34.59 32.82 L 34.40 32.71 C 34.08 32.45 33.43 31.94 33.11 31.68 C 28.82 31.65 24.85 30.03 21.46 27.47 C 21.76 25.65 21.48 23.43 23.12 22.15 Z" />
</g>
<g id="#f7dcc1ff">
<path fill="#f7dcc1" opacity="1.00" d=" M 18.58 35.50 C 19.57 33.88 20.91 32.51 22.12 31.06 C 26.23 33.05 30.65 34.27 35.12 35.12 C 34.94 34.52 34.58 33.31 34.40 32.71 L 34.59 32.82 C 37.86 34.34 41.40 35.03 44.94 35.48 C 44.40 34.09 43.86 32.69 43.35 31.29 C 46.85 34.52 45.34 39.47 45.43 43.63 C 44.62 43.56 43.80 43.48 42.99 43.41 C 43.19 43.85 43.60 44.74 43.81 45.19 C 41.56 46.52 39.41 48.01 37.21 49.42 C 33.70 50.43 30.02 50.50 26.57 49.22 C 24.85 48.15 23.14 47.05 21.38 46.06 C 21.47 45.72 21.66 45.04 21.75 44.71 L 19.35 44.46 C 19.46 43.92 19.69 42.83 19.80 42.29 L 18.48 42.71 C 18.48 40.31 18.18 37.88 18.58 35.50 M 22.38 37.11 L 22.32 37.73 C 22.29 38.87 22.40 41.18 24.20 40.62 C 26.23 41.06 25.56 38.60 25.74 37.43 L 25.52 36.84 C 24.38 36.10 23.34 36.19 22.38 37.11 M 37.44 35.86 C 38.70 36.83 37.21 41.04 39.77 40.63 C 41.25 41.09 41.57 39.12 42.26 38.29 C 40.10 38.78 38.08 38.60 37.44 35.86 Z" />
<path fill="#f7dcc1" opacity="1.00" d=" M 19.66 56.27 C 19.99 55.72 20.67 54.62 21.01 54.07 C 24.34 55.75 28.10 56.20 31.57 57.52 L 31.09 59.24 C 27.00 59.96 22.83 59.72 18.72 59.39 C 18.95 58.61 19.42 57.05 19.66 56.27 Z" />
<path fill="#f7dcc1" opacity="1.00" d=" M 31.93 59.11 C 34.48 55.30 39.65 56.30 43.16 53.97 C 43.88 55.70 44.61 57.41 45.26 59.16 C 45.01 59.21 44.50 59.31 44.25 59.36 C 40.16 60.03 36.01 59.66 31.93 59.11 Z" />
</g>
<g id="#003c68fe">
<path fill="#003c68" opacity="1.00" d=" M 3.64 49.88 C 4.70 47.21 7.06 45.32 9.58 44.09 C 7.15 47.32 5.28 50.96 4.65 54.99 C 4.27 53.31 3.42 51.65 3.64 49.88 Z" />
<path fill="#003c68" opacity="1.00" d=" M 19.93 45.78 L 21.75 44.71 C 21.66 45.04 21.47 45.72 21.38 46.06 C 23.14 47.05 24.85 48.15 26.57 49.22 C 30.02 50.50 33.70 50.43 37.21 49.42 C 39.41 48.01 41.56 46.52 43.81 45.19 C 46.16 46.39 48.66 47.21 51.23 47.82 C 48.33 49.48 44.31 50.43 43.16 53.97 C 39.65 56.30 34.48 55.30 31.93 59.11 C 31.72 59.14 31.30 59.21 31.09 59.24 L 31.57 57.52 C 28.10 56.20 24.34 55.75 21.01 54.07 C 19.67 50.49 15.64 49.42 12.61 47.71 C 15.11 47.31 17.65 46.92 19.93 45.78 Z" />
<path fill="#003c68" opacity="1.00" d=" M 54.40 44.08 C 56.93 45.32 59.31 47.20 60.37 49.90 C 60.59 51.68 59.72 53.34 59.32 55.02 C 58.75 50.96 56.85 47.31 54.40 44.08 Z" />
</g>
</svg>
