<?xml version="1.0" encoding="UTF-8" ?>
<!DOCTYPE svg PUBLIC "-//W3C//DTD SVG 1.1//EN" "http://www.w3.org/Graphics/SVG/1.1/DTD/svg11.dtd">
<svg width="64pt" height="64pt" viewBox="0 0 64 64" version="1.1" xmlns="http://www.w3.org/2000/svg">
<g id="#e33c28ff">
<path fill="#e33c28" opacity="1.00" d=" M 20.71 10.41 C 24.51 1.08 39.46 1.09 43.30 10.39 C 39.38 12.04 35.09 11.34 30.98 11.43 C 27.54 11.41 23.95 11.87 20.71 10.41 Z" />
</g>
<g id="#cf3e2cf3">
<path fill="#cf3e2c" opacity="0.95" d=" M 20.52 10.35 L 20.71 10.41 C 23.95 11.87 27.54 11.41 30.98 11.43 C 35.09 11.34 39.38 12.04 43.30 10.39 L 43.46 10.35 C 43.81 11.32 44.17 12.30 44.53 13.28 L 44.27 13.30 C 39.93 12.37 35.44 13.05 31.03 12.84 C 27.27 13.00 23.45 12.45 19.76 13.29 L 19.48 13.29 C 19.82 12.31 20.17 11.33 20.52 10.35 Z" />
</g>
<g id="#ffffffff">
<path fill="#ffffff" opacity="1.00" d=" M 19.76 13.29 C 23.45 12.45 27.27 13.00 31.03 12.84 C 35.44 13.05 39.93 12.37 44.27 13.30 C 44.79 14.95 44.47 16.70 44.46 18.38 L 43.13 18.88 C 35.69 19.46 28.11 19.13 20.64 19.03 L 20.28 18.74 C 19.34 17.10 19.13 15.07 19.76 13.29 Z" />
</g>
<g id="#024d81ea">
<path fill="#024d81" opacity="0.92" d=" M 20.28 18.74 L 20.64 19.03 C 22.46 23.83 27.07 26.59 31.97 27.38 C 36.83 26.62 41.79 23.96 43.13 18.88 L 44.46 18.38 C 43.89 23.52 39.42 27.28 34.70 28.71 C 32.91 28.87 31.10 28.87 29.31 28.71 C 24.75 27.27 19.82 23.56 19.83 18.43 L 20.28 18.74 Z" />
</g>
<g id="#008eecff">
<path fill="#008eec" opacity="1.00" d=" M 20.64 19.03 C 28.11 19.13 35.69 19.46 43.13 18.88 C 41.79 23.96 36.83 26.62 31.97 27.38 C 27.07 26.59 22.46 23.83 20.64 19.03 Z" />
</g>
<g id="#635e5bff">
<path fill="#635e5b" opacity="1.00" d=" M 29.31 28.71 C 31.10 28.87 32.91 28.87 34.70 28.71 C 34.80 29.54 35.00 31.20 35.10 32.04 C 33.99 31.38 33.06 30.47 32.01 29.73 C 30.92 30.44 30.03 31.41 28.89 32.04 C 29.00 31.21 29.21 29.55 29.31 28.71 Z" />
</g>
<g id="#b5b5b5ff">
<path fill="#b5b5b5" opacity="1.00" d=" M 28.89 32.04 C 30.03 31.41 30.92 30.44 32.01 29.73 C 33.06 30.47 33.99 31.38 35.10 32.04 C 35.80 32.08 37.20 32.16 37.90 32.20 C 38.09 36.16 37.87 40.13 37.98 44.10 L 36.99 44.10 C 37.02 42.37 37.11 40.64 37.14 38.90 C 33.73 38.74 30.30 38.73 26.89 38.89 C 26.90 40.62 26.97 42.35 27.00 44.08 L 26.04 44.05 C 26.09 40.10 25.94 36.14 26.09 32.20 C 26.79 32.16 28.19 32.08 28.89 32.04 M 26.80 33.01 C 26.81 34.74 26.83 36.46 27.01 38.18 C 30.35 38.17 33.68 38.17 37.01 38.16 C 37.17 36.44 37.17 34.72 37.16 33.00 C 33.71 33.04 30.25 33.01 26.80 33.01 Z" />
</g>
<g id="#fafafaff">
<path fill="#fafafa" opacity="1.00" d=" M 26.80 33.01 C 30.25 33.01 33.71 33.04 37.16 33.00 C 37.17 34.72 37.17 36.44 37.01 38.16 C 33.68 38.17 30.35 38.17 27.01 38.18 C 26.83 36.46 26.81 34.74 26.80 33.01 M 29.34 34.29 C 28.63 36.00 29.14 36.56 30.87 35.96 C 31.43 34.28 30.92 33.72 29.34 34.29 M 32.07 34.25 C 31.55 36.39 36.82 34.70 33.98 33.92 C 33.50 34.00 32.55 34.17 32.07 34.25 M 32.00 36.17 C 31.53 38.25 36.81 36.80 33.95 35.92 C 33.46 35.98 32.48 36.11 32.00 36.17 Z" />
<path fill="#fafafa" opacity="1.00" d=" M 26.89 38.89 C 30.30 38.73 33.73 38.74 37.14 38.90 C 37.11 40.64 37.02 42.37 36.99 44.10 C 33.66 44.11 30.33 44.15 27.00 44.08 C 26.97 42.35 26.90 40.62 26.89 38.89 M 29.00 40.00 C 29.00 40.75 29.00 42.25 29.00 43.00 C 29.50 43.00 30.50 43.00 30.99 43.00 C 31.00 42.41 31.01 41.24 31.02 40.65 C 32.31 40.88 33.61 41.00 34.92 40.99 C 34.47 38.99 30.74 40.49 29.00 40.00 M 32.03 42.04 C 31.44 44.13 36.77 42.72 33.99 41.75 C 33.50 41.82 32.52 41.96 32.03 42.04 Z" />
</g>
<g id="#8d8d8dff">
<path fill="#8d8d8d" opacity="1.00" d=" M 29.34 34.29 C 30.92 33.72 31.43 34.28 30.87 35.96 C 29.14 36.56 28.63 36.00 29.34 34.29 Z" />
</g>
<g id="#bebebeff">
<path fill="#bebebe" opacity="1.00" d=" M 32.07 34.25 C 32.55 34.17 33.50 34.00 33.98 33.92 C 36.82 34.70 31.55 36.39 32.07 34.25 Z" />
</g>
<g id="#bababaff">
<path fill="#bababa" opacity="1.00" d=" M 32.00 36.17 C 32.48 36.11 33.46 35.98 33.95 35.92 C 36.81 36.80 31.53 38.25 32.00 36.17 Z" />
</g>
<g id="#a6a6a6ff">
<path fill="#a6a6a6" opacity="1.00" d=" M 29.00 40.00 C 30.74 40.49 34.47 38.99 34.92 40.99 C 33.61 41.00 32.31 40.88 31.02 40.65 C 31.01 41.24 31.00 42.41 30.99 43.00 C 30.50 43.00 29.50 43.00 29.00 43.00 C 29.00 42.25 29.00 40.75 29.00 40.00 Z" />
</g>
<g id="#b3b3b3ff">
<path fill="#b3b3b3" opacity="1.00" d=" M 32.03 42.04 C 32.52 41.96 33.50 41.82 33.99 41.75 C 36.77 42.72 31.44 44.13 32.03 42.04 Z" />
</g>
<g id="#858585f9">
<path fill="#858585" opacity="0.98" d=" M 26.04 44.05 L 27.00 44.08 C 30.33 44.15 33.66 44.11 36.99 44.10 L 37.98 44.10 C 37.62 45.09 36.67 45.40 35.12 45.03 C 35.14 47.07 35.14 49.11 35.06 51.15 C 36.18 51.19 37.29 51.25 38.40 51.34 C 38.79 52.44 39.13 53.55 39.44 54.68 C 39.46 55.54 39.49 57.26 39.50 58.12 C 39.14 58.42 38.43 59.03 38.07 59.33 C 34.03 59.48 29.97 59.51 25.93 59.30 C 25.57 59.03 24.85 58.47 24.49 58.20 C 24.51 57.32 24.54 55.57 24.55 54.70 C 24.86 53.56 25.21 52.44 25.60 51.33 C 26.71 51.25 27.82 51.19 28.94 51.15 C 28.86 49.12 28.84 47.10 28.90 45.07 C 28.17 45.03 26.72 44.94 25.99 44.90 L 26.04 44.05 M 30.80 45.00 C 30.72 47.09 30.76 49.19 30.76 51.29 C 31.38 51.29 32.62 51.30 33.24 51.30 C 33.25 49.21 33.27 47.11 33.21 45.02 C 32.61 45.02 31.40 45.00 30.80 45.00 M 27.57 52.47 C 25.96 53.18 26.29 55.11 26.50 56.50 C 30.17 56.72 33.85 56.65 37.52 56.52 C 37.68 55.07 38.04 53.25 36.41 52.47 C 33.49 52.19 30.50 52.21 27.57 52.47 Z" />
</g>
<g id="#e2e2e2ff">
<path fill="#e2e2e2" opacity="1.00" d=" M 30.80 45.00 C 31.40 45.00 32.61 45.02 33.21 45.02 C 33.27 47.11 33.25 49.21 33.24 51.30 C 32.62 51.30 31.38 51.29 30.76 51.29 C 30.76 49.19 30.72 47.09 30.80 45.00 Z" />
</g>
<g id="#c6c6c6ff">
<path fill="#c6c6c6" opacity="1.00" d=" M 27.57 52.47 C 30.50 52.21 33.49 52.19 36.41 52.47 C 38.04 53.25 37.68 55.07 37.52 56.52 C 33.85 56.65 30.17 56.72 26.50 56.50 C 26.29 55.11 25.96 53.18 27.57 52.47 Z" />
</g>
<g id="#434343ed">
<path fill="#434343" opacity="0.93" d=" M 22.66 60.90 C 22.65 58.80 23.85 56.71 24.55 54.70 C 24.54 55.57 24.51 57.32 24.49 58.20 C 24.85 58.47 25.57 59.03 25.93 59.30 C 29.97 59.51 34.03 59.48 38.07 59.33 C 38.43 59.03 39.14 58.42 39.50 58.12 C 39.49 57.26 39.46 55.54 39.44 54.68 C 40.16 56.69 41.31 58.77 41.36 60.90 C 35.13 60.81 28.89 60.81 22.66 60.90 Z" />
</g>
</svg>
