<?xml version="1.0" encoding="UTF-8" ?>
<!DOCTYPE svg PUBLIC "-//W3C//DTD SVG 1.1//EN" "http://www.w3.org/Graphics/SVG/1.1/DTD/svg11.dtd">
<svg width="64pt" height="64pt" viewBox="0 0 64 64" version="1.1" xmlns="http://www.w3.org/2000/svg">
<g id="#636464ec">
<path fill="#636464" opacity="0.93" d=" M 45.96 0.00 L 51.15 0.00 C 50.43 0.99 49.32 1.42 48.14 1.55 C 43.27 2.44 38.63 4.35 34.38 6.87 C 34.12 7.15 33.59 7.71 33.33 7.99 C 29.83 8.24 25.40 6.53 23.08 10.07 C 15.89 10.22 8.51 8.96 1.45 10.64 C 1.35 12.41 1.37 14.18 1.19 15.95 L 0.56 16.18 L 0.00 16.40 L 0.00 11.49 C 0.87 10.73 1.64 9.48 2.96 9.61 C 9.50 9.55 16.04 9.51 22.58 9.63 C 22.83 9.11 23.32 8.06 23.56 7.54 C 26.17 7.43 29.04 8.17 31.34 6.55 L 31.49 6.48 L 31.61 6.38 C 35.76 3.04 40.97 1.57 45.96 0.00 Z" />
</g>
<g id="#292929cf">
<path fill="#292929" opacity="0.81" d=" M 31.34 6.55 C 31.41 6.51 31.54 6.43 31.61 6.38 L 31.49 6.48 L 31.34 6.55 Z" />
</g>
<g id="#3c322f76">
<path fill="#3c322f" opacity="0.46" d=" M 33.33 7.99 C 33.59 7.71 34.12 7.15 34.38 6.87 C 36.06 7.11 37.76 7.13 39.44 7.36 C 39.78 7.83 40.48 8.78 40.83 9.25 C 44.96 9.39 49.14 8.99 53.22 9.78 C 48.75 9.83 44.27 9.81 39.80 10.02 C 39.64 9.49 39.33 8.42 39.17 7.88 C 37.22 7.95 35.28 7.98 33.33 7.99 Z" />
</g>
<g id="#aba09aff">
<path fill="#aba09a" opacity="1.00" d=" M 23.08 10.07 C 25.40 6.53 29.83 8.24 33.33 7.99 C 35.28 7.98 37.22 7.95 39.17 7.88 C 39.33 8.42 39.64 9.49 39.80 10.02 C 44.27 9.81 48.75 9.83 53.22 9.78 C 57.17 10.64 61.55 12.28 63.26 16.28 C 62.29 15.60 61.32 14.92 60.38 14.21 C 57.05 11.11 52.35 10.59 48.01 10.65 C 32.49 10.75 16.97 10.67 1.45 10.64 C 8.51 8.96 15.89 10.22 23.08 10.07 Z" />
</g>
<g id="#edede3ff">
<path fill="#edede3" opacity="1.00" d=" M 1.45 10.64 C 16.97 10.67 32.49 10.75 48.01 10.65 C 52.35 10.59 57.05 11.11 60.38 14.21 C 58.54 14.81 56.70 15.40 54.85 15.96 L 54.21 16.12 C 54.24 19.09 54.23 22.07 54.20 25.05 C 53.47 25.05 52.01 25.05 51.29 25.05 C 51.29 22.00 51.28 18.95 51.26 15.91 C 49.09 15.90 46.91 15.90 44.74 15.91 C 44.72 18.95 44.71 21.99 44.72 25.02 C 43.99 25.03 42.54 25.03 41.81 25.03 C 41.78 22.00 41.76 18.97 41.74 15.94 C 39.52 15.89 37.29 15.89 35.07 15.90 C 35.03 18.92 34.98 21.95 34.93 24.97 C 34.52 24.89 33.70 24.73 33.29 24.65 C 32.95 21.70 33.07 18.67 32.05 15.85 C 29.93 15.97 27.81 15.94 25.69 16.11 C 25.73 19.02 25.72 21.94 25.65 24.85 C 24.82 24.85 23.18 24.85 22.36 24.85 C 22.28 21.93 22.26 19.01 22.31 16.09 C 20.17 15.99 18.04 15.95 15.90 15.95 C 14.45 19.34 15.90 23.57 13.05 26.39 C 13.07 22.91 13.04 19.42 12.95 15.93 C 9.03 15.87 5.11 15.82 1.19 15.95 C 1.37 14.18 1.35 12.41 1.45 10.64 Z" />
</g>
<g id="#dfdfd4ff">
<path fill="#dfdfd4" opacity="1.00" d=" M 60.38 14.21 C 61.32 14.92 62.29 15.60 63.26 16.28 L 63.32 16.35 C 63.51 21.08 63.51 25.82 63.39 30.55 C 63.18 30.75 62.78 31.15 62.58 31.35 C 62.29 31.91 61.70 33.05 61.40 33.61 C 41.14 33.53 20.88 33.71 0.62 33.52 C 0.59 32.76 0.54 31.24 0.52 30.47 L 1.76 30.50 C 5.50 30.59 9.25 30.62 12.99 30.46 C 13.01 29.10 13.03 27.75 13.05 26.39 C 15.90 23.57 14.45 19.34 15.90 15.95 C 16.03 18.89 16.00 21.84 16.16 24.79 C 18.22 24.88 20.29 24.85 22.36 24.85 C 23.18 24.85 24.82 24.85 25.65 24.85 C 27.71 24.86 29.78 24.87 31.84 24.78 C 32.00 21.80 31.96 18.82 32.05 15.85 C 33.07 18.67 32.95 21.70 33.29 24.65 C 33.70 24.73 34.52 24.89 34.93 24.97 C 37.22 25.10 39.52 25.06 41.81 25.03 C 42.54 25.03 43.99 25.03 44.72 25.02 C 46.91 25.05 49.09 25.05 51.29 25.05 C 52.01 25.05 53.47 25.05 54.20 25.05 C 56.45 25.06 58.71 25.06 60.97 25.03 C 60.98 22.03 60.96 19.02 60.94 16.02 C 58.91 15.98 56.88 15.92 54.85 15.96 C 56.70 15.40 58.54 14.81 60.38 14.21 Z" />
</g>
<g id="#272726ff">
<path fill="#272726" opacity="1.00" d=" M 0.00 16.40 L 0.56 16.18 C 0.93 20.93 -0.57 26.13 1.76 30.50 L 0.52 30.47 C 0.54 31.24 0.59 32.76 0.62 33.52 C 0.63 34.41 0.65 36.17 0.66 37.06 L 0.63 38.16 C 0.57 39.69 0.52 41.22 0.47 42.76 C 1.37 42.65 3.19 42.43 4.09 42.32 C 3.17 42.90 2.20 43.39 1.18 43.79 C 1.33 44.66 1.47 45.53 1.61 46.40 C 2.99 46.52 4.36 46.67 5.75 46.67 C 6.79 45.59 7.50 44.25 8.34 43.03 C 9.09 42.52 9.85 42.05 10.63 41.60 C 14.57 40.73 18.02 43.13 19.61 46.61 C 27.86 46.62 36.10 46.57 44.34 46.65 C 45.46 44.97 46.66 43.32 48.13 41.92 L 48.77 41.64 C 52.95 40.54 56.33 43.27 58.22 46.71 C 59.58 46.61 60.94 46.49 62.30 46.37 C 63.00 44.34 63.39 42.24 63.32 40.09 C 63.00 39.71 62.34 38.95 62.02 38.57 C 63.68 36.51 63.65 33.79 63.96 31.30 L 62.58 31.35 C 62.78 31.15 63.18 30.75 63.39 30.55 C 63.51 25.82 63.51 21.08 63.32 16.35 L 64.00 17.11 L 64.00 46.08 C 62.74 48.34 59.99 47.89 57.81 48.13 C 57.22 49.69 56.84 51.45 55.57 52.62 C 53.98 54.46 51.30 53.81 49.18 54.29 C 47.95 53.26 46.77 52.19 45.64 51.05 C 45.39 50.30 44.90 48.81 44.65 48.06 C 36.27 47.81 27.88 47.97 19.50 47.96 C 18.96 49.41 18.42 50.88 17.59 52.20 C 16.84 52.78 16.09 53.36 15.34 53.93 C 13.58 53.87 11.81 54.00 10.05 53.78 C 7.72 52.76 6.82 50.24 6.15 47.98 C 4.75 47.95 3.36 47.93 1.96 47.91 C 1.47 47.51 0.49 46.72 0.00 46.33 L 0.00 16.40 M 47.42 45.28 C 46.44 46.78 47.25 48.57 47.41 50.18 C 47.88 48.11 47.96 44.55 50.94 44.74 C 53.65 44.34 54.18 47.55 55.72 49.09 C 57.12 44.38 50.20 42.08 47.42 45.28 M 50.21 47.21 C 48.99 48.73 51.67 50.22 52.64 48.78 C 53.81 47.30 51.17 45.80 50.21 47.21 Z" />
<path fill="#272726" opacity="1.00" d=" M 15.90 15.95 C 18.04 15.95 20.17 15.99 22.31 16.09 C 22.26 19.01 22.28 21.93 22.36 24.85 C 20.29 24.85 18.22 24.88 16.16 24.79 C 16.00 21.84 16.03 18.89 15.90 15.95 M 16.29 16.25 C 16.27 18.61 16.18 20.98 16.37 23.33 C 17.17 25.51 19.93 24.27 21.60 24.58 C 21.77 21.80 21.81 19.02 21.73 16.25 C 19.91 16.24 18.10 16.24 16.29 16.25 Z" />
<path fill="#272726" opacity="1.00" d=" M 25.69 16.11 C 27.81 15.94 29.93 15.97 32.05 15.85 C 31.96 18.82 32.00 21.80 31.84 24.78 C 29.78 24.87 27.71 24.86 25.65 24.85 C 25.72 21.94 25.73 19.02 25.69 16.11 M 26.27 16.24 C 26.19 19.03 26.23 21.82 26.40 24.60 C 28.06 24.27 30.77 25.47 31.61 23.36 C 31.81 20.99 31.72 18.60 31.72 16.22 C 29.90 16.23 28.09 16.23 26.27 16.24 Z" />
</g>
<g id="#4aabcfff">
<path fill="#4aabcf" opacity="1.00" d=" M 0.56 16.18 L 1.19 15.95 C 5.11 15.82 9.03 15.87 12.95 15.93 C 13.04 19.42 13.07 22.91 13.05 26.39 C 13.03 27.75 13.01 29.10 12.99 30.46 C 9.25 30.62 5.50 30.59 1.76 30.50 C -0.57 26.13 0.93 20.93 0.56 16.18 Z" />
</g>
<g id="#5296aeff">
<path fill="#5296ae" opacity="1.00" d=" M 35.07 15.90 C 37.29 15.89 39.52 15.89 41.74 15.94 C 41.76 18.97 41.78 22.00 41.81 25.03 C 39.52 25.06 37.22 25.10 34.93 24.97 C 34.98 21.95 35.03 18.92 35.07 15.90 M 36.45 17.48 C 36.49 19.45 36.09 22.14 38.03 23.35 C 40.91 23.28 40.32 19.07 39.91 17.10 C 38.76 17.24 37.60 17.36 36.45 17.48 Z" />
<path fill="#5296ae" opacity="1.00" d=" M 54.21 16.12 L 54.85 15.96 C 56.88 15.92 58.91 15.98 60.94 16.02 C 60.96 19.02 60.98 22.03 60.97 25.03 C 58.71 25.06 56.45 25.06 54.20 25.05 C 54.23 22.07 54.24 19.09 54.21 16.12 M 56.04 17.08 C 55.82 19.17 54.94 23.16 57.96 23.37 C 59.86 22.10 59.54 19.51 59.59 17.52 C 58.42 17.30 57.24 17.15 56.04 17.08 Z" />
</g>
<g id="#3c89a6ff">
<path fill="#3c89a6" opacity="1.00" d=" M 44.74 15.91 C 46.91 15.90 49.09 15.90 51.26 15.91 C 51.28 18.95 51.29 22.00 51.29 25.05 C 49.09 25.05 46.91 25.05 44.72 25.02 C 44.71 21.99 44.72 18.95 44.74 15.91 M 46.15 17.18 C 46.04 19.29 46.11 21.41 46.53 23.49 C 47.50 23.54 48.46 23.57 49.43 23.57 C 49.87 21.47 49.96 19.32 49.83 17.18 C 48.60 17.18 47.37 17.18 46.15 17.18 Z" />
</g>
<g id="#4eb1d7ff">
<path fill="#4eb1d7" opacity="1.00" d=" M 16.29 16.25 C 18.10 16.24 19.91 16.24 21.73 16.25 C 21.81 19.02 21.77 21.80 21.60 24.58 C 19.93 24.27 17.17 25.51 16.37 23.33 C 16.18 20.98 16.27 18.61 16.29 16.25 Z" />
<path fill="#4eb1d7" opacity="1.00" d=" M 26.27 16.24 C 28.09 16.23 29.90 16.23 31.72 16.22 C 31.72 18.60 31.81 20.99 31.61 23.36 C 30.77 25.47 28.06 24.27 26.40 24.60 C 26.23 21.82 26.19 19.03 26.27 16.24 Z" />
</g>
<g id="#4fb4daff">
<path fill="#4fb4da" opacity="1.00" d=" M 36.45 17.48 C 37.60 17.36 38.76 17.24 39.91 17.10 C 40.32 19.07 40.91 23.28 38.03 23.35 C 36.09 22.14 36.49 19.45 36.45 17.48 Z" />
<path fill="#4fb4da" opacity="1.00" d=" M 46.15 17.18 C 47.37 17.18 48.60 17.18 49.83 17.18 C 49.96 19.32 49.87 21.47 49.43 23.57 C 48.46 23.57 47.50 23.54 46.53 23.49 C 46.11 21.41 46.04 19.29 46.15 17.18 Z" />
<path fill="#4fb4da" opacity="1.00" d=" M 56.04 17.08 C 57.24 17.15 58.42 17.30 59.59 17.52 C 59.54 19.51 59.86 22.10 57.96 23.37 C 54.94 23.16 55.82 19.17 56.04 17.08 Z" />
</g>
<g id="#972d3fff">
<path fill="#972d3f" opacity="1.00" d=" M 61.40 33.61 C 61.70 33.05 62.29 31.91 62.58 31.35 L 63.96 31.30 C 63.65 33.79 63.68 36.51 62.02 38.57 C 61.85 38.16 61.51 37.34 61.34 36.93 C 61.36 36.10 61.39 34.44 61.40 33.61 Z" />
</g>
<g id="#0e1bccff">
<path fill="#0e1bcc" opacity="1.00" d=" M 0.62 33.52 C 20.88 33.71 41.14 33.53 61.40 33.61 C 61.39 34.44 61.36 36.10 61.34 36.93 C 46.24 36.48 31.11 36.85 16.00 36.73 C 10.89 36.81 5.76 36.46 0.66 37.06 C 0.65 36.17 0.63 34.41 0.62 33.52 Z" />
</g>
<g id="#4d70c8ff">
<path fill="#4d70c8" opacity="1.00" d=" M 0.66 37.06 C 5.76 36.46 10.89 36.81 16.00 36.73 C 31.11 36.85 46.24 36.48 61.34 36.93 C 61.51 37.34 61.85 38.16 62.02 38.57 C 62.34 38.95 63.00 39.71 63.32 40.09 C 63.39 42.24 63.00 44.34 62.30 46.37 C 60.94 46.49 59.58 46.61 58.22 46.71 C 56.33 43.27 52.95 40.54 48.77 41.64 C 51.38 40.12 54.44 40.65 57.30 40.70 C 53.03 36.55 44.83 37.89 42.99 43.83 C 44.74 43.30 46.45 42.66 48.13 41.92 C 46.66 43.32 45.46 44.97 44.34 46.65 C 36.10 46.57 27.86 46.62 19.61 46.61 C 18.02 43.13 14.57 40.73 10.63 41.60 C 13.53 39.50 17.01 41.11 20.10 41.77 C 18.42 40.40 16.72 38.88 14.53 38.43 C 10.62 37.60 5.89 39.61 4.81 43.71 C 6.00 43.50 7.17 43.28 8.34 43.03 C 7.50 44.25 6.79 45.59 5.75 46.67 C 4.36 46.67 2.99 46.52 1.61 46.40 C 1.47 45.53 1.33 44.66 1.18 43.79 C 2.20 43.39 3.17 42.90 4.09 42.32 C 4.09 41.42 4.07 39.62 4.07 38.72 C 2.92 38.58 1.77 38.39 0.63 38.16 L 0.66 37.06 Z" />
</g>
<g id="#d1b332ff">
<path fill="#d1b332" opacity="1.00" d=" M 0.63 38.16 C 1.77 38.39 2.92 38.58 4.07 38.72 C 4.07 39.62 4.09 41.42 4.09 42.32 C 3.19 42.43 1.37 42.65 0.47 42.76 C 0.52 41.22 0.57 39.69 0.63 38.16 Z" />
</g>
<g id="#73a6e9ff">
<path fill="#73a6e9" opacity="1.00" d=" M 4.81 43.71 C 5.89 39.61 10.62 37.60 14.53 38.43 C 16.72 38.88 18.42 40.40 20.10 41.77 C 17.01 41.11 13.53 39.50 10.63 41.60 C 9.85 42.05 9.09 42.52 8.34 43.03 C 7.17 43.28 6.00 43.50 4.81 43.71 Z" />
<path fill="#73a6e9" opacity="1.00" d=" M 42.99 43.83 C 44.83 37.89 53.03 36.55 57.30 40.70 C 54.44 40.65 51.38 40.12 48.77 41.64 L 48.13 41.92 C 46.45 42.66 44.74 43.30 42.99 43.83 Z" />
</g>
<g id="#383838ff">
<path fill="#383838" opacity="1.00" d=" M 47.42 45.28 C 50.20 42.08 57.12 44.38 55.72 49.09 C 54.18 47.55 53.65 44.34 50.94 44.74 C 47.96 44.55 47.88 48.11 47.41 50.18 C 47.25 48.57 46.44 46.78 47.42 45.28 Z" />
</g>
<g id="#404040ff">
<path fill="#404040" opacity="1.00" d=" M 50.21 47.21 C 51.17 45.80 53.81 47.30 52.64 48.78 C 51.67 50.22 48.99 48.73 50.21 47.21 Z" />
</g>
<g id="#00000046">
<path fill="#000000" opacity="0.27" d=" M 45.64 51.05 C 46.77 52.19 47.95 53.26 49.18 54.29 C 45.87 55.27 42.45 55.83 38.99 55.73 C 31.08 55.67 22.97 56.48 15.34 53.93 C 16.09 53.36 16.84 52.78 17.59 52.20 C 23.70 53.45 29.88 51.20 36.03 51.92 C 39.24 52.03 42.89 53.39 45.64 51.05 Z" />
</g>
</svg>
