<?xml version="1.0" encoding="UTF-8" ?>
<!DOCTYPE svg PUBLIC "-//W3C//DTD SVG 1.1//EN" "http://www.w3.org/Graphics/SVG/1.1/DTD/svg11.dtd">
<svg width="64pt" height="64pt" viewBox="0 0 64 64" version="1.1" xmlns="http://www.w3.org/2000/svg">
<g id="#4c6d9afd">
<path fill="#4c6d9a" opacity="1.00" d=" M 18.71 6.66 C 28.34 4.84 38.37 6.57 48.12 6.02 L 48.00 6.97 C 38.24 6.92 28.46 7.32 18.71 6.66 Z" />
<path fill="#4c6d9a" opacity="1.00" d=" M 10.79 10.81 C 11.61 9.64 12.73 8.63 14.06 8.11 C 13.73 9.27 13.33 10.42 13.15 11.62 C 15.14 12.32 17.25 12.86 18.96 14.16 C 18.95 21.14 15.39 27.34 13.48 33.88 C 10.73 33.44 7.94 34.01 5.17 33.93 C 5.46 31.88 5.78 29.84 5.84 27.77 C 6.33 26.28 6.82 24.78 7.22 23.26 C 9.21 20.05 11.04 16.69 12.68 13.29 C 12.06 12.45 11.43 11.63 10.79 10.81 Z" />
<path fill="#4c6d9a" opacity="1.00" d=" M 42.85 12.94 C 44.38 11.10 46.09 9.42 47.89 7.85 C 48.02 10.55 45.35 12.62 42.85 12.94 Z" />
<path fill="#4c6d9a" opacity="1.00" d=" M 31.79 18.76 C 42.12 16.78 53.36 18.62 64.00 18.00 L 64.00 19.00 C 53.26 18.99 42.53 19.12 31.79 18.76 Z" />
<path fill="#4c6d9a" opacity="1.00" d=" M 30.74 43.21 C 28.61 35.92 30.07 27.16 30.78 19.79 C 30.97 24.25 30.93 28.71 31.06 33.17 C 33.75 30.31 30.98 23.94 32.06 20.06 C 42.70 19.86 53.35 20.06 64.00 20.00 L 64.00 39.00 C 53.77 39.15 43.46 38.40 33.30 39.80 C 32.49 38.85 31.79 37.82 31.02 36.85 C 30.95 38.44 30.81 41.62 30.74 43.21 Z" />
<path fill="#4c6d9a" opacity="1.00" d=" M 2.52 43.18 C 2.84 42.69 3.49 41.72 3.81 41.24 C 5.93 45.49 12.03 45.31 16.00 45.02 C 24.11 44.22 32.17 46.99 40.21 45.25 C 43.27 45.10 43.98 49.34 46.03 50.97 C 34.46 50.94 22.88 51.31 11.31 50.73 C 8.30 49.17 5.97 46.62 3.14 44.78 C 2.99 44.38 2.68 43.58 2.52 43.18 Z" />
<path fill="#4c6d9a" opacity="1.00" d=" M 9.21 52.70 C 27.31 50.79 45.78 52.65 64.00 52.00 L 64.00 60.00 C 45.73 59.80 27.44 60.34 9.18 59.85 C 7.66 58.15 9.14 55.66 8.87 53.62 L 9.21 52.70 Z" />
</g>
<g id="#191d44f5">
<path fill="#191d44" opacity="0.96" d=" M 48.12 6.02 C 53.41 5.96 58.70 6.01 64.00 6.00 L 64.00 14.00 C 56.64 13.99 49.28 14.06 41.93 13.99 C 42.16 13.73 42.62 13.20 42.85 12.94 C 45.35 12.62 48.02 10.55 47.89 7.85 L 48.00 6.97 L 48.12 6.02 Z" />
<path fill="#191d44" opacity="0.96" d=" M 7.22 23.26 C 8.07 19.03 9.31 14.84 10.79 10.81 C 11.43 11.63 12.06 12.45 12.68 13.29 C 11.04 16.69 9.21 20.05 7.22 23.26 Z" />
<path fill="#191d44" opacity="0.96" d=" M 30.78 19.79 C 31.04 19.53 31.54 19.02 31.79 18.76 C 42.53 19.12 53.26 18.99 64.00 19.00 L 64.00 20.00 C 53.35 20.06 42.70 19.86 32.06 20.06 C 30.98 23.94 33.75 30.31 31.06 33.17 C 30.93 28.71 30.97 24.25 30.78 19.79 Z" />
<path fill="#191d44" opacity="0.96" d=" M 2.52 43.18 C 2.08 38.03 4.17 32.67 5.84 27.77 C 5.78 29.84 5.46 31.88 5.17 33.93 C 7.94 34.01 10.73 33.44 13.48 33.88 C 12.91 35.83 12.35 37.80 11.67 39.72 C 9.28 41.06 6.46 40.84 3.81 41.24 C 3.49 41.72 2.84 42.69 2.52 43.18 Z" />
<path fill="#191d44" opacity="0.96" d=" M 31.02 36.85 C 31.79 37.82 32.49 38.85 33.30 39.80 C 43.46 38.40 53.77 39.15 64.00 39.00 L 64.00 52.00 C 45.78 52.65 27.31 50.79 9.21 52.70 C 7.76 49.66 4.81 47.67 3.14 44.78 C 5.97 46.62 8.30 49.17 11.31 50.73 C 22.88 51.31 34.46 50.94 46.03 50.97 C 43.98 49.34 43.27 45.10 40.21 45.25 C 37.08 44.53 32.64 46.50 30.74 43.21 C 30.81 41.62 30.95 38.44 31.02 36.85 Z" />
<path fill="#191d44" opacity="0.96" d=" M 8.27 60.83 C 5.48 59.17 8.20 55.82 8.87 53.62 C 9.14 55.66 7.66 58.15 9.18 59.85 C 27.44 60.34 45.73 59.80 64.00 60.00 L 64.00 61.00 C 45.42 60.87 26.84 61.26 8.27 60.83 Z" />
</g>
<g id="#d5d5d6ff">
<path fill="#d5d5d6" opacity="1.00" d=" M 14.06 8.11 C 15.58 7.54 17.14 7.06 18.71 6.66 C 28.46 7.32 38.24 6.92 48.00 6.97 L 47.89 7.85 C 46.09 9.42 44.38 11.10 42.85 12.94 C 42.62 13.20 42.16 13.73 41.93 13.99 C 49.28 14.06 56.64 13.99 64.00 14.00 L 64.00 18.00 C 53.36 18.62 42.12 16.78 31.79 18.76 C 31.54 19.02 31.04 19.53 30.78 19.79 C 30.07 27.16 28.61 35.92 30.74 43.21 C 32.64 46.50 37.08 44.53 40.21 45.25 C 32.17 46.99 24.11 44.22 16.00 45.02 C 12.03 45.31 5.93 45.49 3.81 41.24 C 6.46 40.84 9.28 41.06 11.67 39.72 C 12.35 37.80 12.91 35.83 13.48 33.88 C 15.39 27.34 18.95 21.14 18.96 14.16 C 17.25 12.86 15.14 12.32 13.15 11.62 C 13.33 10.42 13.73 9.27 14.06 8.11 Z" />
</g>
</svg>
