<?xml version="1.0" encoding="UTF-8" ?>
<!DOCTYPE svg PUBLIC "-//W3C//DTD SVG 1.1//EN" "http://www.w3.org/Graphics/SVG/1.1/DTD/svg11.dtd">
<svg width="64pt" height="64pt" viewBox="0 0 64 64" version="1.1" xmlns="http://www.w3.org/2000/svg">
<g id="#efefefff">
<path fill="#efefef" opacity="1.00" d=" M 30.72 12.52 C 33.00 10.52 35.02 8.14 37.70 6.64 C 46.47 6.56 55.23 6.63 64.00 6.61 L 64.00 38.43 C 58.45 38.45 52.88 38.29 47.33 38.51 C 44.38 39.84 42.06 42.27 39.66 44.41 C 31.69 44.77 23.68 44.14 15.71 44.74 C 15.91 44.32 16.31 43.49 16.50 43.07 C 17.32 39.63 17.23 35.99 16.77 32.49 C 16.10 30.97 15.38 29.46 14.75 27.92 C 18.54 26.78 21.28 23.27 24.99 22.11 C 25.57 22.02 26.71 21.82 27.29 21.73 C 32.33 21.49 37.51 21.90 42.60 21.56 C 45.66 19.82 47.82 16.34 48.27 12.89 C 42.43 12.60 36.55 13.11 30.72 12.52 M 18.76 33.30 C 18.76 35.05 17.72 37.05 18.79 38.65 C 21.44 38.03 21.31 33.89 18.76 33.30 Z" />
</g>
<g id="#256083ff">
<path fill="#256083" opacity="1.00" d=" M 24.75 19.73 C 26.67 17.26 28.80 14.98 30.72 12.52 C 36.55 13.11 42.43 12.60 48.27 12.89 C 47.82 16.34 45.66 19.82 42.60 21.56 C 37.51 21.90 32.33 21.49 27.29 21.73 C 27.46 21.48 27.80 20.98 27.97 20.73 C 32.86 22.36 36.15 17.76 38.00 13.99 C 35.83 13.87 33.31 13.00 31.40 14.44 C 29.00 16.77 27.55 19.91 24.99 22.11 C 21.28 23.27 18.54 26.78 14.75 27.92 L 13.92 28.19 C 17.42 25.23 22.08 23.61 24.75 19.73 Z" />
<path fill="#256083" opacity="1.00" d=" M 9.74 45.78 C 11.44 43.86 14.16 43.64 16.50 43.07 C 16.31 43.49 15.91 44.32 15.71 44.74 C 15.22 45.48 14.73 46.23 14.26 46.98 C 11.84 48.24 9.20 48.91 6.46 48.71 C 5.70 47.93 5.04 47.08 4.49 46.15 L 5.42 45.39 C 6.73 45.56 8.62 47.39 9.74 45.78 Z" />
</g>
<g id="#487894ff">
<path fill="#487894" opacity="1.00" d=" M 31.40 14.44 C 33.31 13.00 35.83 13.87 38.00 13.99 C 36.15 17.76 32.86 22.36 27.97 20.73 C 27.80 20.98 27.46 21.48 27.29 21.73 C 26.71 21.82 25.57 22.02 24.99 22.11 C 27.55 19.91 29.00 16.77 31.40 14.44 Z" />
<path fill="#487894" opacity="1.00" d=" M 18.76 33.30 C 21.31 33.89 21.44 38.03 18.79 38.65 C 17.72 37.05 18.76 35.05 18.76 33.30 Z" />
<path fill="#487894" opacity="1.00" d=" M 15.71 44.74 C 23.68 44.14 31.69 44.77 39.66 44.41 L 39.68 45.45 C 36.90 47.11 34.37 49.24 31.28 50.33 C 24.90 51.13 18.35 49.72 12.03 51.14 C 12.76 49.75 13.52 48.37 14.26 46.98 C 14.73 46.23 15.22 45.48 15.71 44.74 Z" />
</g>
<g id="#7b90e3ff">
<path fill="#7b90e3" opacity="1.00" d=" M 13.92 28.19 L 14.75 27.92 C 15.38 29.46 16.10 30.97 16.77 32.49 C 16.03 32.70 15.08 32.53 14.55 33.22 C 11.79 36.02 8.45 39.36 8.48 43.47 C 7.28 44.02 7.16 45.92 5.42 45.39 L 4.49 46.15 C 4.49 45.94 4.48 45.52 4.48 45.31 C 4.77 43.10 4.17 40.83 4.11 38.60 C 5.54 33.78 10.21 31.11 13.92 28.19 Z" />
<path fill="#7b90e3" opacity="1.00" d=" M 9.75 51.83 C 17.79 51.78 25.82 52.33 33.87 52.27 C 34.62 53.11 36.40 53.02 36.56 54.27 C 34.33 55.46 31.86 56.07 29.50 56.97 L 29.16 58.82 C 39.09 59.43 49.06 58.92 59.01 59.10 C 60.66 58.90 62.83 59.58 64.00 58.02 L 64.00 59.35 C 45.59 59.44 27.17 59.35 8.76 59.55 C 8.58 58.83 8.23 57.37 8.05 56.64 C 8.53 55.01 8.94 53.34 9.75 51.83 Z" />
</g>
<g id="#506cddff">
<path fill="#506cdd" opacity="1.00" d=" M 14.55 33.22 C 15.08 32.53 16.03 32.70 16.77 32.49 C 17.23 35.99 17.32 39.63 16.50 43.07 C 14.16 43.64 11.44 43.86 9.74 45.78 C 8.62 47.39 6.73 45.56 5.42 45.39 C 7.16 45.92 7.28 44.02 8.48 43.47 C 8.45 39.36 11.79 36.02 14.55 33.22 Z" />
<path fill="#506cdd" opacity="1.00" d=" M 33.87 52.27 C 43.91 52.07 53.96 52.29 64.00 52.35 L 64.00 58.02 C 62.83 59.58 60.66 58.90 59.01 59.10 C 49.06 58.92 39.09 59.43 29.16 58.82 L 29.50 56.97 C 31.86 56.07 34.33 55.46 36.56 54.27 C 36.40 53.02 34.62 53.11 33.87 52.27 Z" />
</g>
<g id="#312cc0ff">
<path fill="#312cc0" opacity="1.00" d=" M 47.33 38.51 C 52.88 38.29 58.45 38.45 64.00 38.43 L 64.00 45.72 C 55.90 45.41 47.78 45.91 39.68 45.45 L 39.66 44.41 C 42.06 42.27 44.38 39.84 47.33 38.51 Z" />
</g>
<g id="#21226af2">
<path fill="#21226a" opacity="0.95" d=" M 4.48 45.31 C 2.91 43.78 2.61 40.26 4.11 38.60 C 4.17 40.83 4.77 43.10 4.48 45.31 Z" />
<path fill="#21226a" opacity="0.95" d=" M 31.28 50.33 C 34.37 49.24 36.90 47.11 39.68 45.45 C 47.78 45.91 55.90 45.41 64.00 45.72 L 64.00 52.35 C 53.96 52.29 43.91 52.07 33.87 52.27 C 25.82 52.33 17.79 51.78 9.75 51.83 C 8.75 50.69 7.55 49.75 6.46 48.71 C 9.20 48.91 11.84 48.24 14.26 46.98 C 13.52 48.37 12.76 49.75 12.03 51.14 C 18.35 49.72 24.90 51.13 31.28 50.33 Z" />
<path fill="#21226a" opacity="0.95" d=" M 7.32 60.48 C 6.56 59.23 7.23 57.66 8.05 56.64 C 8.23 57.37 8.58 58.83 8.76 59.55 C 27.17 59.35 45.59 59.44 64.00 59.35 L 64.00 60.83 C 46.66 60.85 29.33 60.82 11.99 60.86 C 10.42 60.85 8.83 60.97 7.32 60.48 Z" />
</g>
</svg>
