<?xml version="1.0" encoding="UTF-8" ?>
<!DOCTYPE svg PUBLIC "-//W3C//DTD SVG 1.1//EN" "http://www.w3.org/Graphics/SVG/1.1/DTD/svg11.dtd">
<svg width="64pt" height="64pt" viewBox="0 0 64 64" version="1.1" xmlns="http://www.w3.org/2000/svg">
<g id="#323a1ca7">
<path fill="#323a1c" opacity="0.65" d=" M 15.33 6.07 C 15.70 5.57 16.45 4.57 16.82 4.07 C 18.40 5.20 20.10 4.89 21.70 3.99 C 22.11 4.47 22.92 5.45 23.33 5.94 C 22.53 5.97 20.93 6.03 20.13 6.06 C 21.69 6.89 24.81 8.53 26.38 9.36 C 21.76 7.79 16.96 7.68 12.50 9.70 C 12.72 9.17 13.16 8.13 13.38 7.60 C 15.16 7.64 17.19 7.51 18.31 5.90 C 17.56 5.94 16.08 6.03 15.33 6.07 Z" />
</g>
<g id="#1d5b17ff">
<path fill="#1d5b17" opacity="1.00" d=" M 7.17 9.13 C 8.44 9.65 10.53 9.84 10.57 11.62 C 13.43 12.73 16.32 13.77 19.20 14.84 C 22.29 13.04 27.18 13.35 28.91 9.89 L 31.32 8.91 L 29.87 11.26 C 30.32 10.74 31.24 9.69 31.70 9.17 C 31.73 9.74 31.78 10.88 31.81 11.45 C 28.40 12.32 25.08 13.48 21.85 14.88 C 24.34 14.63 26.65 15.39 28.99 15.99 C 37.32 16.07 45.66 16.01 53.99 15.99 C 55.60 16.19 57.81 15.47 58.75 17.31 C 58.36 17.36 57.57 17.45 57.18 17.50 C 48.12 16.90 39.05 17.24 29.98 17.20 C 22.22 17.45 14.43 16.88 6.69 17.67 C 6.30 17.68 5.52 17.71 5.12 17.72 C 5.71 15.30 8.31 16.39 9.97 15.84 C 11.97 15.34 13.97 14.86 16.03 14.69 C 13.16 13.27 10.06 12.46 7.00 11.57 C 5.93 11.03 6.72 9.81 7.17 9.13 Z" />
</g>
<g id="#003903ff">
<path fill="#003903" opacity="1.00" d=" M 3.24 17.82 C 3.71 17.79 4.65 17.74 5.12 17.72 C 5.52 17.71 6.30 17.68 6.69 17.67 C 18.42 18.49 30.21 17.84 41.97 18.04 C 47.04 17.91 52.17 18.52 57.18 17.50 C 57.57 17.45 58.36 17.36 58.75 17.31 C 59.33 17.78 60.48 18.73 61.06 19.20 C 43.02 19.18 24.99 19.19 6.95 19.19 C 5.56 19.30 4.18 18.88 3.24 17.82 Z" />
</g>
<g id="#2d6325ff">
<path fill="#2d6325" opacity="1.00" d=" M 6.69 17.67 C 14.43 16.88 22.22 17.45 29.98 17.20 C 39.05 17.24 48.12 16.90 57.18 17.50 C 52.17 18.52 47.04 17.91 41.97 18.04 C 30.21 17.84 18.42 18.49 6.69 17.67 Z" />
</g>
<g id="#dfb17cff">
<path fill="#dfb17c" opacity="1.00" d=" M 0.73 20.25 C 1.78 19.87 2.87 19.68 3.99 19.67 C 23.34 19.67 42.70 19.96 62.04 19.53 C 62.33 19.75 62.90 20.19 63.18 20.41 C 63.31 22.21 63.36 24.01 63.38 25.82 C 42.47 25.48 21.54 25.49 0.64 25.81 C 0.67 23.96 0.70 22.10 0.73 20.25 Z" />
</g>
<g id="#351f0eff">
<path fill="#351f0e" opacity="1.00" d=" M 0.00 20.99 L 0.73 20.25 C 0.70 22.10 0.67 23.96 0.64 25.81 C 0.60 32.08 0.53 38.35 0.68 44.62 C 0.71 45.43 0.78 47.06 0.81 47.87 C 0.82 48.69 0.85 50.34 0.87 51.16 C 0.86 52.94 1.27 54.67 1.67 56.39 C 21.89 56.53 42.10 56.53 62.31 56.39 C 62.75 54.70 63.11 52.98 63.28 51.24 C 63.28 50.40 63.27 48.72 63.27 47.87 C 63.28 47.06 63.31 45.43 63.32 44.62 C 63.46 38.35 63.39 32.08 63.38 25.82 C 63.36 24.01 63.31 22.21 63.18 20.41 L 64.00 21.20 L 64.00 55.63 C 62.38 58.09 59.28 57.40 56.81 57.95 C 53.05 58.89 49.18 58.88 45.45 57.79 C 36.50 57.51 27.51 57.50 18.56 57.79 C 14.83 58.87 10.96 58.90 7.20 57.96 C 4.74 57.47 1.84 57.95 0.00 55.85 L 0.00 20.99 Z" />
</g>
<g id="#f3eeeeff">
<path fill="#f3eeee" opacity="1.00" d=" M 0.64 25.81 C 21.54 25.49 42.47 25.48 63.38 25.82 C 63.39 32.08 63.46 38.35 63.32 44.62 C 42.45 44.84 21.56 44.85 0.68 44.62 C 0.53 38.35 0.60 32.08 0.64 25.81 M 3.00 28.77 C 3.18 33.15 3.01 37.54 3.01 41.92 C 6.34 41.97 9.66 41.97 12.99 41.92 C 13.01 37.54 12.85 33.15 12.99 28.77 C 9.66 28.74 6.33 28.74 3.00 28.77 M 15.96 28.88 C 15.99 33.09 15.93 37.29 16.05 41.50 C 18.14 41.45 20.23 41.46 22.32 41.51 C 22.17 37.29 22.20 33.07 22.23 28.84 C 20.14 28.84 18.05 28.91 15.96 28.88 M 25.53 28.77 C 25.63 33.17 25.49 37.57 25.58 41.97 C 27.74 41.93 29.90 41.88 32.07 41.90 C 32.04 37.52 32.03 33.14 32.06 28.76 C 29.88 28.77 27.70 28.77 25.53 28.77 M 35.22 41.68 C 37.29 41.69 39.37 41.69 41.45 41.63 C 41.36 37.49 42.10 33.24 41.30 29.18 C 39.54 28.11 37.17 29.03 35.20 28.74 C 35.18 33.05 35.29 37.37 35.22 41.68 M 44.76 28.77 C 44.82 33.15 44.79 37.53 44.78 41.92 C 46.93 41.87 49.07 41.87 51.22 41.92 C 51.21 37.53 51.18 33.15 51.24 28.77 C 49.08 28.77 46.92 28.77 44.76 28.77 M 54.54 41.62 C 56.63 41.69 58.72 41.69 60.81 41.68 C 60.68 37.37 60.84 33.06 60.80 28.74 C 58.83 29.07 56.39 28.04 54.66 29.24 C 53.94 33.29 54.62 37.50 54.54 41.62 Z" />
</g>
<g id="#5393acff">
<path fill="#5393ac" opacity="1.00" d=" M 3.00 28.77 C 6.33 28.74 9.66 28.74 12.99 28.77 C 12.85 33.15 13.01 37.54 12.99 41.92 C 9.66 41.97 6.34 41.97 3.01 41.92 C 3.01 37.54 3.18 33.15 3.00 28.77 M 4.17 30.07 C 4.27 33.29 4.47 36.51 4.97 39.70 C 7.00 39.69 9.03 39.70 11.06 39.72 C 11.52 36.52 11.72 33.30 11.84 30.08 C 9.29 29.71 6.72 29.71 4.17 30.07 Z" />
</g>
<g id="#010101fe">
<path fill="#010101" opacity="1.00" d=" M 15.96 28.88 C 18.05 28.91 20.14 28.84 22.23 28.84 C 22.20 33.07 22.17 37.29 22.32 41.51 C 20.23 41.46 18.14 41.45 16.05 41.50 C 15.93 37.29 15.99 33.09 15.96 28.88 M 16.21 29.23 C 16.25 33.06 16.30 36.88 16.31 40.71 C 18.10 40.73 19.88 40.75 21.67 40.76 C 21.72 36.92 21.81 33.07 21.79 29.22 C 19.93 29.22 18.07 29.22 16.21 29.23 Z" />
<path fill="#010101" opacity="1.00" d=" M 35.22 41.68 C 35.29 37.37 35.18 33.05 35.20 28.74 L 35.31 30.06 C 35.40 31.18 35.47 32.29 35.54 33.41 C 35.43 36.06 35.43 38.71 35.49 41.36 C 37.14 41.43 38.79 41.51 40.44 41.61 C 42.06 37.66 41.45 33.32 41.30 29.18 C 42.10 33.24 41.36 37.49 41.45 41.63 C 39.37 41.69 37.29 41.69 35.22 41.68 Z" />
<path fill="#010101" opacity="1.00" d=" M 54.54 41.62 C 54.62 37.50 53.94 33.29 54.66 29.24 C 54.50 33.35 53.94 37.69 55.56 41.59 C 57.23 41.50 58.89 41.43 60.56 41.38 C 60.58 38.74 60.57 36.10 60.48 33.46 C 60.54 32.32 60.61 31.19 60.70 30.06 L 60.80 28.74 C 60.84 33.06 60.68 37.37 60.81 41.68 C 58.72 41.69 56.63 41.69 54.54 41.62 Z" />
<path fill="#010101" opacity="1.00" d=" M 7.20 57.96 C 10.96 58.90 14.83 58.87 18.56 57.79 C 17.19 58.85 15.82 59.90 14.44 60.94 C 26.14 60.78 37.85 60.65 49.55 61.01 C 48.17 59.96 46.81 58.87 45.45 57.79 C 49.18 58.88 53.05 58.89 56.81 57.95 C 55.43 58.93 54.11 59.98 52.77 61.00 C 56.51 60.80 60.25 60.78 64.00 60.81 L 64.00 64.00 L 0.00 64.00 L 0.00 60.82 C 3.75 60.78 7.50 60.80 11.25 61.00 C 9.90 59.98 8.57 58.94 7.20 57.96 M 0.75 62.83 C 21.57 63.07 42.42 63.14 63.24 62.82 C 62.94 62.54 62.34 61.99 62.04 61.71 C 42.69 61.41 23.30 61.73 3.94 61.55 C 2.61 61.36 1.55 61.78 0.75 62.83 Z" />
</g>
<g id="#438ca8ff">
<path fill="#438ca8" opacity="1.00" d=" M 25.53 28.77 C 27.70 28.77 29.88 28.77 32.06 28.76 C 32.03 33.14 32.04 37.52 32.07 41.90 C 29.90 41.88 27.74 41.93 25.58 41.97 C 25.49 37.57 25.63 33.17 25.53 28.77 M 26.83 29.71 C 26.66 33.11 26.99 36.50 27.30 39.88 C 28.38 39.83 29.47 39.80 30.56 39.77 C 30.72 36.48 30.93 33.20 31.16 29.92 C 29.72 29.85 28.27 29.77 26.83 29.71 Z" />
</g>
<g id="#4198baff">
<path fill="#4198ba" opacity="1.00" d=" M 35.20 28.74 C 37.17 29.03 39.54 28.11 41.30 29.18 C 41.45 33.32 42.06 37.66 40.44 41.61 C 38.79 41.51 37.14 41.43 35.49 41.36 C 35.43 38.71 35.43 36.06 35.54 33.41 C 36.17 35.51 36.91 37.57 37.47 39.68 C 38.01 39.72 39.09 39.79 39.63 39.83 C 40.01 36.56 40.25 33.27 40.35 29.98 C 38.67 30.01 36.99 30.03 35.31 30.06 L 35.20 28.74 Z" />
<path fill="#4198ba" opacity="1.00" d=" M 54.66 29.24 C 56.39 28.04 58.83 29.07 60.80 28.74 L 60.70 30.06 C 59.01 30.03 57.31 30.01 55.62 29.99 C 55.75 33.26 56.00 36.54 56.38 39.80 C 56.89 39.78 57.93 39.75 58.45 39.73 C 59.05 37.61 59.83 35.56 60.48 33.46 C 60.57 36.10 60.58 38.74 60.56 41.38 C 58.89 41.43 57.23 41.50 55.56 41.59 C 53.94 37.69 54.50 33.35 54.66 29.24 Z" />
</g>
<g id="#3e8aa7ff">
<path fill="#3e8aa7" opacity="1.00" d=" M 44.76 28.77 C 46.92 28.77 49.08 28.77 51.24 28.77 C 51.18 33.15 51.21 37.53 51.22 41.92 C 49.07 41.87 46.93 41.87 44.78 41.92 C 44.79 37.53 44.82 33.15 44.76 28.77 M 45.80 29.83 C 45.93 33.16 46.14 36.48 46.35 39.81 C 47.45 39.80 48.55 39.80 49.64 39.81 C 49.87 36.47 50.08 33.13 50.17 29.78 C 48.71 29.79 47.26 29.81 45.80 29.83 Z" />
</g>
<g id="#65c0e4ff">
<path fill="#65c0e4" opacity="1.00" d=" M 4.17 30.07 C 6.72 29.71 9.29 29.71 11.84 30.08 C 11.72 33.30 11.52 36.52 11.06 39.72 C 9.03 39.70 7.00 39.69 4.97 39.70 C 4.47 36.51 4.27 33.29 4.17 30.07 Z" />
<path fill="#65c0e4" opacity="1.00" d=" M 16.21 29.23 C 18.07 29.22 19.93 29.22 21.79 29.22 C 21.81 33.07 21.72 36.92 21.67 40.76 C 19.88 40.75 18.10 40.73 16.31 40.71 C 16.30 36.88 16.25 33.06 16.21 29.23 Z" />
<path fill="#65c0e4" opacity="1.00" d=" M 26.83 29.71 C 28.27 29.77 29.72 29.85 31.16 29.92 C 30.93 33.20 30.72 36.48 30.56 39.77 C 29.47 39.80 28.38 39.83 27.30 39.88 C 26.99 36.50 26.66 33.11 26.83 29.71 Z" />
</g>
<g id="#69c6eaff">
<path fill="#69c6ea" opacity="1.00" d=" M 35.31 30.06 C 36.99 30.03 38.67 30.01 40.35 29.98 C 40.25 33.27 40.01 36.56 39.63 39.83 C 39.09 39.79 38.01 39.72 37.47 39.68 C 36.91 37.57 36.17 35.51 35.54 33.41 C 35.47 32.29 35.40 31.18 35.31 30.06 Z" />
<path fill="#69c6ea" opacity="1.00" d=" M 55.62 29.99 C 57.31 30.01 59.01 30.03 60.70 30.06 C 60.61 31.19 60.54 32.32 60.48 33.46 C 59.83 35.56 59.05 37.61 58.45 39.73 C 57.93 39.75 56.89 39.78 56.38 39.80 C 56.00 36.54 55.75 33.26 55.62 29.99 Z" />
</g>
<g id="#67c3e7ff">
<path fill="#67c3e7" opacity="1.00" d=" M 45.80 29.83 C 47.26 29.81 48.71 29.79 50.17 29.78 C 50.08 33.13 49.87 36.47 49.64 39.81 C 48.55 39.80 47.45 39.80 46.35 39.81 C 46.14 36.48 45.93 33.16 45.80 29.83 Z" />
</g>
<g id="#e2b783ff">
<path fill="#e2b783" opacity="1.00" d=" M 0.68 44.62 C 21.56 44.85 42.45 44.84 63.32 44.62 C 63.31 45.43 63.28 47.06 63.27 47.87 C 42.45 48.08 21.63 48.10 0.81 47.87 C 0.78 47.06 0.71 45.43 0.68 44.62 Z" />
</g>
<g id="#214e20ff">
<path fill="#214e20" opacity="1.00" d=" M 0.81 47.87 C 21.63 48.10 42.45 48.08 63.27 47.87 C 63.27 48.72 63.28 50.40 63.28 51.24 C 42.48 51.02 21.67 51.18 0.87 51.16 C 0.85 50.34 0.82 48.69 0.81 47.87 Z" />
</g>
<g id="#d5af7dff">
<path fill="#d5af7d" opacity="1.00" d=" M 0.87 51.16 C 21.67 51.18 42.48 51.02 63.28 51.24 C 63.11 52.98 62.75 54.70 62.31 56.39 C 42.10 56.53 21.89 56.53 1.67 56.39 C 1.27 54.67 0.86 52.94 0.87 51.16 Z" />
</g>
<g id="#2c2626ff">
<path fill="#2c2626" opacity="1.00" d=" M 0.75 62.83 C 1.55 61.78 2.61 61.36 3.94 61.55 C 23.30 61.73 42.69 61.41 62.04 61.71 C 62.34 61.99 62.94 62.54 63.24 62.82 C 42.42 63.14 21.57 63.07 0.75 62.83 Z" />
</g>
</svg>
