<?xml version="1.0" encoding="UTF-8" ?>
<!DOCTYPE svg PUBLIC "-//W3C//DTD SVG 1.1//EN" "http://www.w3.org/Graphics/SVG/1.1/DTD/svg11.dtd">
<svg width="64pt" height="64pt" viewBox="0 0 64 64" version="1.1" xmlns="http://www.w3.org/2000/svg">
<g id="#3f3b3bf0">
<path fill="#3f3b3b" opacity="0.94" d=" M 52.93 13.97 C 55.51 13.35 55.86 16.37 57.11 17.90 C 59.18 20.13 60.23 23.13 61.08 26.02 C 58.42 26.50 58.53 23.20 57.27 21.66 C 56.73 20.61 56.07 19.63 55.37 18.68 C 55.10 18.30 54.58 17.53 54.31 17.15 C 53.51 16.24 53.05 15.18 52.93 13.97 Z" />
</g>
<g id="#3a3e3efb">
<path fill="#3a3e3e" opacity="1.00" d=" M 3.00 16.02 C 17.42 15.81 31.76 15.48 46.17 16.11 C 46.04 16.55 45.77 17.41 45.63 17.84 C 38.37 18.42 30.95 17.28 23.76 18.62 C 23.37 18.64 22.60 18.66 22.21 18.67 C 21.24 18.33 20.26 18.01 19.28 17.73 C 13.93 16.58 8.42 17.13 3.00 16.98 L 3.00 16.02 Z" />
</g>
<g id="#0b040328">
<path fill="#0b0403" opacity="0.16" d=" M 46.17 16.11 C 47.42 18.65 51.58 18.80 54.31 17.15 C 54.58 17.53 55.10 18.30 55.37 18.68 C 52.24 18.81 49.13 18.95 46.01 19.01 C 42.63 19.00 39.26 18.98 35.89 18.99 C 31.84 18.94 27.80 18.81 23.76 18.62 C 30.95 17.28 38.37 18.42 45.63 17.84 C 45.77 17.41 46.04 16.55 46.17 16.11 Z" />
</g>
<g id="#2e2d2dff">
<path fill="#2e2d2d" opacity="1.00" d=" M 3.00 16.98 C 8.42 17.13 13.93 16.58 19.28 17.73 C 13.85 18.03 8.43 18.11 3.00 17.98 L 3.00 16.98 Z" />
</g>
<g id="#8b251eff">
<path fill="#8b251e" opacity="1.00" d=" M 18.91 20.13 C 19.28 18.93 20.38 18.44 22.21 18.67 C 22.60 18.66 23.37 18.64 23.76 18.62 C 27.80 18.81 31.84 18.94 35.89 18.99 C 34.00 21.10 37.30 21.93 35.99 23.37 C 31.74 21.98 26.84 18.29 22.50 21.00 C 21.29 20.76 20.10 20.45 18.91 20.13 Z" />
</g>
<g id="#a42a21ff">
<path fill="#a42a21" opacity="1.00" d=" M 35.89 18.99 C 39.26 18.98 42.63 19.00 46.01 19.01 L 45.98 19.96 C 43.24 20.02 37.71 18.65 37.94 22.91 C 40.44 24.39 43.15 25.55 46.00 26.22 C 45.25 27.15 44.52 28.09 43.81 29.05 C 41.48 26.79 38.95 24.74 35.99 23.37 C 37.30 21.93 34.00 21.10 35.89 18.99 Z" />
</g>
<g id="#7d231df7">
<path fill="#7d231d" opacity="0.97" d=" M 46.01 19.01 C 49.13 18.95 52.24 18.81 55.37 18.68 C 56.07 19.63 56.73 20.61 57.27 21.66 C 55.83 22.19 54.41 22.89 52.84 22.86 C 53.63 21.95 54.42 21.04 55.15 20.07 C 52.08 20.01 49.04 19.99 45.98 19.96 L 46.01 19.01 Z" />
</g>
<g id="#a7e0e9ff">
<path fill="#a7e0e9" opacity="1.00" d=" M 14.93 20.89 C 15.84 19.54 17.56 19.96 18.91 20.13 C 20.10 20.45 21.29 20.76 22.50 21.00 C 22.90 21.21 23.70 21.62 24.10 21.82 C 24.04 22.56 23.92 24.05 23.87 24.79 C 23.46 25.81 23.04 26.82 22.61 27.83 C 18.13 28.41 13.51 26.48 9.16 28.04 C 9.43 27.03 9.72 26.03 10.03 25.04 C 11.72 23.71 13.39 22.37 14.93 20.89 Z" />
</g>
<g id="#ed4032ff">
<path fill="#ed4032" opacity="1.00" d=" M 22.50 21.00 C 26.84 18.29 31.74 21.98 35.99 23.37 C 38.95 24.74 41.48 26.79 43.81 29.05 L 43.76 29.85 C 41.66 33.35 40.52 37.59 37.28 40.28 C 36.55 40.98 35.74 41.01 34.85 40.36 C 33.81 36.32 36.96 30.30 34.06 26.95 C 31.85 25.39 29.45 24.13 26.96 23.09 L 26.21 22.76 C 25.88 22.61 25.23 22.32 24.91 22.18 L 24.10 21.82 C 23.70 21.62 22.90 21.21 22.50 21.00 Z" />
</g>
<g id="#c33126ff">
<path fill="#c33126" opacity="1.00" d=" M 37.94 22.91 C 37.71 18.65 43.24 20.02 45.98 19.96 C 49.04 19.99 52.08 20.01 55.15 20.07 C 54.42 21.04 53.63 21.95 52.84 22.86 C 51.90 23.21 50.95 23.55 50.01 23.89 C 48.46 24.26 47.24 25.28 46.00 26.22 C 43.15 25.55 40.44 24.39 37.94 22.91 Z" />
</g>
<g id="#557b86f1">
<path fill="#557b86" opacity="0.95" d=" M 4.84 31.16 C 5.26 26.27 9.91 21.34 14.93 20.89 C 13.39 22.37 11.72 23.71 10.03 25.04 C 8.59 25.96 7.56 27.35 6.74 28.84 C 6.25 31.22 5.92 33.64 5.77 36.10 L 5.22 36.22 C 5.10 34.53 4.98 32.84 4.84 31.16 Z" />
</g>
<g id="#658189ff">
<path fill="#658189" opacity="1.00" d=" M 24.10 21.82 L 24.91 22.18 C 24.98 26.77 25.05 31.37 25.01 35.96 L 24.09 36.13 C 24.08 35.63 24.07 34.64 24.06 34.14 C 24.05 33.38 24.04 31.85 24.03 31.09 C 24.02 28.99 23.93 26.89 23.87 24.79 C 23.92 24.05 24.04 22.56 24.10 21.82 Z" />
</g>
<g id="#da1804ff">
<path fill="#da1804" opacity="1.00" d=" M 24.91 22.18 C 25.23 22.32 25.88 22.61 26.21 22.76 C 26.01 29.17 25.98 35.59 26.00 42.01 L 25.00 42.01 C 25.01 39.99 25.02 37.98 25.01 35.96 C 25.05 31.37 24.98 26.77 24.91 22.18 Z" />
</g>
<g id="#96312cff">
<path fill="#96312c" opacity="1.00" d=" M 26.21 22.76 L 26.96 23.09 C 27.02 24.98 27.07 26.88 27.18 28.77 C 27.14 30.45 27.10 32.12 27.14 33.80 C 27.09 36.53 27.04 39.26 27.00 42.00 L 26.00 42.01 C 25.98 35.59 26.01 29.17 26.21 22.76 Z" />
</g>
<g id="#8bd6ebff">
<path fill="#8bd6eb" opacity="1.00" d=" M 26.96 23.09 C 29.45 24.13 31.85 25.39 34.06 26.95 C 34.01 27.66 33.92 29.08 33.88 29.78 C 32.78 31.89 32.75 35.64 28.35 32.86 C 27.94 31.50 27.59 30.13 27.18 28.77 C 27.07 26.88 27.02 24.98 26.96 23.09 Z" />
</g>
<g id="#651812f3">
<path fill="#651812" opacity="0.95" d=" M 46.00 26.22 C 47.24 25.28 48.46 24.26 50.01 23.89 C 48.01 26.17 46.37 29.31 43.81 30.88 L 43.76 29.85 L 43.81 29.05 C 44.52 28.09 45.25 27.15 46.00 26.22 Z" />
</g>
<g id="#77ceecff">
<path fill="#77ceec" opacity="1.00" d=" M 6.74 28.84 C 7.56 27.35 8.59 25.96 10.03 25.04 C 9.72 26.03 9.43 27.03 9.16 28.04 C 8.98 29.35 8.93 30.66 8.99 31.97 C 13.95 31.69 19.27 33.03 24.03 31.09 C 24.04 31.85 24.05 33.38 24.06 34.14 C 18.67 35.16 13.02 35.59 7.63 34.35 C 7.15 32.55 6.93 30.69 6.74 28.84 Z" />
</g>
<g id="#92e0f7ff">
<path fill="#92e0f7" opacity="1.00" d=" M 22.61 27.83 C 23.04 26.82 23.46 25.81 23.87 24.79 C 23.93 26.89 24.02 28.99 24.03 31.09 C 19.27 33.03 13.95 31.69 8.99 31.97 C 8.93 30.66 8.98 29.35 9.16 28.04 C 13.51 26.48 18.13 28.41 22.61 27.83 Z" />
</g>
<g id="#6b4045ff">
<path fill="#6b4045" opacity="1.00" d=" M 34.06 26.95 C 36.96 30.30 33.81 36.32 34.85 40.36 L 34.15 40.07 C 34.10 38.76 34.06 37.46 34.02 36.15 C 34.00 34.03 33.92 31.91 33.88 29.78 C 33.92 29.08 34.01 27.66 34.06 26.95 Z" />
</g>
<g id="#5aacc9ff">
<path fill="#5aacc9" opacity="1.00" d=" M 5.77 36.10 C 5.92 33.64 6.25 31.22 6.74 28.84 C 6.93 30.69 7.15 32.55 7.63 34.35 C 7.74 35.04 7.97 36.41 8.08 37.10 C 7.80 37.42 7.23 38.07 6.94 38.39 C 6.65 37.82 6.06 36.67 5.77 36.10 Z" />
</g>
<g id="#45baeaff">
<path fill="#45baea" opacity="1.00" d=" M 27.18 28.77 C 27.59 30.13 27.94 31.50 28.35 32.86 C 32.75 35.64 32.78 31.89 33.88 29.78 C 33.92 31.91 34.00 34.03 34.02 36.15 C 30.94 36.90 27.50 37.79 27.14 33.80 C 27.10 32.12 27.14 30.45 27.18 28.77 Z" />
</g>
<g id="#a3251bff">
<path fill="#a3251b" opacity="1.00" d=" M 37.28 40.28 C 40.52 37.59 41.66 33.35 43.76 29.85 L 43.81 30.88 C 42.80 34.74 41.31 39.36 38.10 42.06 C 35.47 44.28 32.50 46.15 28.92 45.89 C 24.71 45.94 20.51 45.94 16.30 45.86 C 12.98 46.19 9.70 45.06 7.83 42.15 C 13.55 42.05 19.28 42.04 25.00 42.01 L 26.00 42.01 L 27.00 42.00 C 29.64 41.98 32.80 42.82 34.15 40.07 L 34.85 40.36 C 35.74 41.01 36.55 40.98 37.28 40.28 Z" />
</g>
<g id="#264856df">
<path fill="#264856" opacity="0.87" d=" M 4.80 37.79 C 3.30 36.85 3.34 32.15 4.84 31.16 C 4.98 32.84 5.10 34.53 5.22 36.22 C 5.12 36.61 4.91 37.40 4.80 37.79 Z" />
</g>
<g id="#5ac5f2ff">
<path fill="#5ac5f2" opacity="1.00" d=" M 7.63 34.35 C 13.02 35.59 18.67 35.16 24.06 34.14 C 24.07 34.64 24.08 35.63 24.09 36.13 L 24.06 37.13 C 18.85 37.93 13.15 39.08 8.08 37.10 C 7.97 36.41 7.74 35.04 7.63 34.35 Z" />
</g>
<g id="#0890ccff">
<path fill="#0890cc" opacity="1.00" d=" M 27.14 33.80 C 27.50 37.79 30.94 36.90 34.02 36.15 C 34.06 37.46 34.10 38.76 34.15 40.07 C 32.80 42.82 29.64 41.98 27.00 42.00 C 27.04 39.26 27.09 36.53 27.14 33.80 Z" />
</g>
<g id="#2a7293ff">
<path fill="#2a7293" opacity="1.00" d=" M 5.22 36.22 L 5.77 36.10 C 6.06 36.67 6.65 37.82 6.94 38.39 C 6.89 39.03 6.80 40.32 6.75 40.96 L 6.20 40.95 C 5.25 40.11 4.79 39.06 4.80 37.79 C 4.91 37.40 5.12 36.61 5.22 36.22 Z" />
</g>
<g id="#2d6683ff">
<path fill="#2d6683" opacity="1.00" d=" M 24.09 36.13 L 25.01 35.96 C 25.02 37.98 25.01 39.99 25.00 42.01 C 19.28 42.04 13.55 42.05 7.83 42.15 C 7.56 41.85 7.02 41.26 6.75 40.96 C 7.49 40.89 8.98 40.75 9.73 40.69 C 14.45 40.80 19.18 41.24 23.90 40.93 L 23.97 39.96 C 23.99 39.25 24.04 37.84 24.06 37.13 L 24.09 36.13 Z" />
</g>
<g id="#3db8eaff">
<path fill="#3db8ea" opacity="1.00" d=" M 8.08 37.10 C 13.15 39.08 18.85 37.93 24.06 37.13 C 24.04 37.84 23.99 39.25 23.97 39.96 C 19.25 40.29 14.33 39.26 9.73 40.69 C 8.98 40.75 7.49 40.89 6.75 40.96 C 6.80 40.32 6.89 39.03 6.94 38.39 C 7.23 38.07 7.80 37.42 8.08 37.10 Z" />
</g>
<g id="#27c6feff">
<path fill="#27c6fe" opacity="1.00" d=" M 9.73 40.69 C 14.33 39.26 19.25 40.29 23.97 39.96 L 23.90 40.93 C 19.18 41.24 14.45 40.80 9.73 40.69 Z" />
</g>
<g id="#3d0f0bed">
<path fill="#3d0f0b" opacity="0.93" d=" M 6.20 40.95 L 6.75 40.96 C 7.02 41.26 7.56 41.85 7.83 42.15 C 9.70 45.06 12.98 46.19 16.30 45.86 L 15.77 46.69 C 15.31 47.00 14.39 47.62 13.93 47.93 C 10.65 47.54 5.94 44.48 6.20 40.95 Z" />
</g>
<g id="#3f0e0ae8">
<path fill="#3f0e0a" opacity="0.91" d=" M 28.92 45.89 C 32.50 46.15 35.47 44.28 38.10 42.06 C 37.72 45.09 34.57 46.92 31.97 48.02 C 31.00 47.61 30.03 47.22 29.06 46.83 L 28.92 45.89 Z" />
</g>
<g id="#711811ff">
<path fill="#711811" opacity="1.00" d=" M 16.30 45.86 C 20.51 45.94 24.71 45.94 28.92 45.89 L 29.06 46.83 L 29.18 47.86 C 24.84 47.20 19.60 49.59 15.77 46.69 L 16.30 45.86 Z" />
</g>
<g id="#424242f9">
<path fill="#424242" opacity="0.98" d=" M 13.93 47.93 C 14.39 47.62 15.31 47.00 15.77 46.69 C 15.80 47.27 15.87 48.43 15.90 49.02 C 15.96 50.66 15.98 52.31 16.13 53.95 C 20.75 54.01 25.38 54.23 30.00 53.92 C 30.07 52.64 30.01 51.37 29.84 50.10 C 29.68 49.54 29.35 48.42 29.18 47.86 L 29.06 46.83 C 30.03 47.22 31.00 47.61 31.97 48.02 C 32.01 49.49 32.08 52.44 32.12 53.92 C 35.87 54.87 45.14 51.18 44.10 58.08 L 43.20 58.20 C 42.39 58.16 40.77 58.08 39.96 58.05 L 40.11 57.06 C 42.42 57.28 42.18 56.36 40.71 55.16 C 29.47 55.37 18.23 55.39 6.99 55.15 C 6.00 54.70 4.76 56.46 5.60 57.19 L 6.05 57.99 C 5.54 57.99 4.52 58.00 4.01 58.00 C 2.03 58.43 2.88 54.67 4.23 54.18 C 7.09 53.98 9.97 54.12 12.82 53.87 C 13.30 51.91 13.75 49.95 13.93 47.93 Z" />
</g>
<g id="#3c0c08f4">
<path fill="#3c0c08" opacity="0.96" d=" M 15.77 46.69 C 19.60 49.59 24.84 47.20 29.18 47.86 C 29.35 48.42 29.68 49.54 29.84 50.10 C 25.27 49.50 20.21 51.12 15.90 49.02 C 15.87 48.43 15.80 47.27 15.77 46.69 Z" />
</g>
<g id="#0401010f">
<path fill="#040101" opacity="0.06" d=" M 15.90 49.02 C 20.21 51.12 25.27 49.50 29.84 50.10 C 30.01 51.37 30.07 52.64 30.00 53.92 C 25.38 54.23 20.75 54.01 16.13 53.95 C 15.98 52.31 15.96 50.66 15.90 49.02 Z" />
</g>
<g id="#707070ff">
<path fill="#707070" opacity="1.00" d=" M 5.60 57.19 C 4.76 56.46 6.00 54.70 6.99 55.15 C 18.23 55.39 29.47 55.37 40.71 55.16 C 42.18 56.36 42.42 57.28 40.11 57.06 C 28.61 57.05 17.10 56.78 5.60 57.19 Z" />
</g>
<g id="#5d5d5dff">
<path fill="#5d5d5d" opacity="1.00" d=" M 5.60 57.19 C 17.10 56.78 28.61 57.05 40.11 57.06 L 39.96 58.05 C 28.66 57.94 17.35 58.05 6.05 57.99 L 5.60 57.19 Z" />
</g>
<g id="#2a2a2ade">
<path fill="#2a2a2a" opacity="0.87" d=" M 4.01 58.00 C 4.52 58.00 5.54 57.99 6.05 57.99 C 17.35 58.05 28.66 57.94 39.96 58.05 C 40.77 58.08 42.39 58.16 43.20 58.20 C 41.72 58.49 38.75 59.07 37.27 59.35 C 29.11 58.93 20.94 58.84 12.78 59.22 C 10.18 59.12 7.58 59.05 4.99 59.00 C 4.74 58.75 4.26 58.25 4.01 58.00 Z" />
</g>
<g id="#0101011c">
<path fill="#010101" opacity="0.11" d=" M 43.20 58.20 L 44.10 58.08 C 45.29 57.73 48.67 57.91 46.03 59.11 C 32.76 62.52 18.59 61.18 5.07 59.94 L 4.99 59.00 C 7.58 59.05 10.18 59.12 12.78 59.22 C 20.85 59.93 29.25 61.04 37.27 59.35 C 38.75 59.07 41.72 58.49 43.20 58.20 Z" />
</g>
<g id="#0101003c">
<path fill="#010100" opacity="0.24" d=" M 12.78 59.22 C 20.94 58.84 29.11 58.93 37.27 59.35 C 29.25 61.04 20.85 59.93 12.78 59.22 Z" />
</g>
</svg>
