<?xml version="1.0" encoding="UTF-8" ?>
<!DOCTYPE svg PUBLIC "-//W3C//DTD SVG 1.1//EN" "http://www.w3.org/Graphics/SVG/1.1/DTD/svg11.dtd">
<svg width="64pt" height="64pt" viewBox="0 0 64 64" version="1.1" xmlns="http://www.w3.org/2000/svg">
<g id="#8c8a8aff">
<path fill="#8c8a8a" opacity="1.00" d=" M 23.00 4.13 C 27.53 2.97 32.28 3.54 36.91 3.49 C 42.59 3.33 47.10 7.48 50.20 11.81 C 52.87 16.19 54.28 21.26 53.34 26.39 C 52.73 28.02 52.06 29.63 51.44 31.26 C 51.65 25.43 52.29 19.11 49.28 13.83 C 47.15 9.96 43.89 5.79 39.10 5.54 C 34.41 5.21 29.69 5.18 25.00 5.51 C 19.37 5.91 15.72 11.11 13.67 15.86 C 11.61 21.68 12.36 28.03 12.80 34.06 C 8.92 26.97 10.73 18.70 13.86 11.72 C 16.16 8.47 19.16 5.44 23.00 4.13 Z" />
</g>
<g id="#b9b6b6ff">
<path fill="#b9b6b6" opacity="1.00" d=" M 13.67 15.86 C 15.72 11.11 19.37 5.91 25.00 5.51 C 29.69 5.18 34.41 5.21 39.10 5.54 C 43.89 5.79 47.15 9.96 49.28 13.83 C 52.29 19.11 51.65 25.43 51.44 31.26 C 50.86 32.82 50.23 34.36 49.51 35.86 L 48.94 36.90 C 47.00 31.49 47.42 25.71 48.27 20.13 C 47.41 19.73 46.54 19.34 45.68 18.96 C 47.14 18.94 48.60 18.90 50.06 18.85 C 49.29 17.64 48.52 16.44 47.73 15.24 C 46.81 13.90 45.90 12.56 44.91 11.28 C 41.56 7.84 36.52 7.61 32.02 7.54 C 27.51 7.52 22.48 7.86 19.11 11.26 C 18.49 12.05 17.89 12.85 17.32 13.67 C 16.13 15.36 15.02 17.09 13.90 18.83 C 14.57 18.84 15.90 18.88 16.57 18.89 C 16.36 25.34 16.28 31.83 15.01 38.19 C 14.20 36.85 13.43 35.49 12.80 34.06 C 12.36 28.03 11.61 21.68 13.67 15.86 Z" />
</g>
<g id="#cdc9c9ff">
<path fill="#cdc9c9" opacity="1.00" d=" M 19.11 11.26 C 22.48 7.86 27.51 7.52 32.02 7.54 C 36.52 7.61 41.56 7.84 44.91 11.28 C 40.63 11.34 36.36 11.33 32.09 11.41 C 27.76 11.47 23.44 11.37 19.11 11.26 Z" />
</g>
<g id="#00c5ffff">
<path fill="#00c5ff" opacity="1.00" d=" M 19.11 11.26 C 23.44 11.37 27.76 11.47 32.09 11.41 L 32.09 11.47 C 31.45 11.78 30.17 12.40 29.53 12.71 C 29.19 13.31 28.49 14.50 28.15 15.10 C 24.53 14.64 20.92 14.19 17.32 13.67 C 17.89 12.85 18.49 12.05 19.11 11.26 Z" />
</g>
<g id="#00bcfeff">
<path fill="#00bcfe" opacity="1.00" d=" M 32.09 11.41 C 36.36 11.33 40.63 11.34 44.91 11.28 C 45.90 12.56 46.81 13.90 47.73 15.24 C 42.47 15.69 37.19 15.72 31.91 15.72 C 31.95 14.30 32.01 12.89 32.09 11.47 L 32.09 11.41 Z" />
</g>
<g id="#747171ff">
<path fill="#747171" opacity="1.00" d=" M 9.18 23.97 C 9.16 19.46 11.34 15.32 13.86 11.72 C 10.73 18.70 8.92 26.97 12.80 34.06 C 13.43 35.49 14.20 36.85 15.01 38.19 C 15.29 38.60 15.84 39.44 16.12 39.86 C 15.76 42.93 14.14 46.71 16.67 49.28 C 18.88 51.76 21.68 54.15 25.11 54.51 C 29.06 54.89 33.04 54.83 36.99 54.67 C 41.55 54.71 45.64 51.77 48.11 48.12 C 49.85 45.56 47.84 42.72 46.82 40.34 C 47.57 39.23 48.27 38.07 48.94 36.90 L 49.51 35.86 C 50.30 36.18 51.10 36.50 51.90 36.81 C 53.06 41.13 52.01 45.52 50.19 49.48 C 49.72 49.97 48.78 50.95 48.30 51.44 C 50.19 53.65 52.07 55.87 53.96 58.09 C 53.01 58.36 52.07 58.65 51.14 58.94 L 52.09 57.80 C 48.62 57.57 45.13 57.45 41.67 57.78 C 43.61 56.24 45.80 55.05 47.93 53.78 C 47.69 53.47 47.23 52.85 46.99 52.55 L 46.26 53.00 C 43.52 54.79 41.24 57.48 38.02 58.40 C 34.04 58.97 29.94 59.03 25.97 58.35 C 22.94 57.32 20.41 55.24 17.85 53.37 C 17.03 52.37 16.24 51.33 15.31 50.41 C 15.05 50.17 14.52 49.68 14.26 49.44 C 11.90 47.61 9.18 45.35 9.24 42.07 C 9.07 36.04 9.19 30.00 9.18 23.97 Z" />
</g>
<g id="#4db4feff">
<path fill="#4db4fe" opacity="1.00" d=" M 29.53 12.71 C 30.17 12.40 31.45 11.78 32.09 11.47 C 32.01 12.89 31.95 14.30 31.91 15.72 C 31.89 16.56 31.84 18.25 31.82 19.09 C 31.42 19.05 30.63 18.98 30.23 18.94 C 29.50 17.68 28.83 16.39 28.15 15.10 C 28.49 14.50 29.19 13.31 29.53 12.71 Z" />
</g>
<g id="#4d4d4cde">
<path fill="#4d4d4c" opacity="0.87" d=" M 50.20 11.81 C 53.33 15.88 55.16 20.88 55.08 26.05 C 55.06 32.17 55.58 38.38 54.51 44.45 C 54.18 38.42 54.09 32.39 53.34 26.39 C 54.28 21.26 52.87 16.19 50.20 11.81 Z" />
</g>
<g id="#0098feff">
<path fill="#0098fe" opacity="1.00" d=" M 13.90 18.83 C 15.02 17.09 16.13 15.36 17.32 13.67 C 20.92 14.19 24.53 14.64 28.15 15.10 C 28.83 16.39 29.50 17.68 30.23 18.94 C 28.27 18.87 26.30 18.89 24.33 18.95 C 21.74 18.97 19.15 18.94 16.57 18.89 C 15.90 18.88 14.57 18.84 13.90 18.83 Z" />
</g>
<g id="#008cffff">
<path fill="#008cff" opacity="1.00" d=" M 47.73 15.24 C 48.52 16.44 49.29 17.64 50.06 18.85 C 48.60 18.90 47.14 18.94 45.68 18.96 C 41.06 18.83 36.43 18.88 31.82 19.09 C 31.84 18.25 31.89 16.56 31.91 15.72 C 37.19 15.72 42.47 15.69 47.73 15.24 Z" />
</g>
<g id="#dbd6d6ff">
<path fill="#dbd6d6" opacity="1.00" d=" M 16.57 18.89 C 19.15 18.94 21.74 18.97 24.33 18.95 C 23.05 19.34 21.79 19.77 20.53 20.19 C 20.67 25.30 21.34 30.59 19.50 35.51 C 18.61 35.54 16.84 35.61 15.95 35.64 C 17.36 36.84 18.72 38.15 20.38 39.01 C 24.15 41.04 28.88 43.41 28.35 48.50 C 23.43 47.10 19.17 43.94 16.12 39.86 C 15.84 39.44 15.29 38.60 15.01 38.19 C 16.28 31.83 16.36 25.34 16.57 18.89 Z" />
</g>
<g id="#f4efefff">
<path fill="#f4efef" opacity="1.00" d=" M 24.33 18.95 C 26.30 18.89 28.27 18.87 30.23 18.94 C 30.63 18.98 31.42 19.05 31.82 19.09 C 35.74 19.50 39.67 19.75 43.60 20.00 C 43.40 23.99 42.87 27.96 42.78 31.96 C 42.48 33.57 44.06 34.47 44.97 35.50 C 43.63 35.47 42.29 35.44 40.95 35.43 C 40.93 36.57 40.90 37.70 40.88 38.84 C 41.59 38.90 43.01 39.01 43.72 39.06 C 40.82 40.74 37.65 41.86 34.46 42.84 C 34.75 44.72 35.04 46.60 35.33 48.48 C 33.01 48.66 30.68 48.67 28.35 48.50 C 28.88 43.41 24.15 41.04 20.38 39.01 C 21.00 38.97 22.24 38.89 22.86 38.85 C 22.86 37.71 22.86 36.57 22.87 35.43 C 21.74 35.45 20.62 35.47 19.50 35.51 C 21.34 30.59 20.67 25.30 20.53 20.19 C 21.79 19.77 23.05 19.34 24.33 18.95 M 25.63 34.39 C 25.62 36.28 25.68 38.17 25.81 40.05 C 27.95 39.02 28.30 34.96 25.63 34.39 M 33.13 39.59 C 33.09 37.89 33.06 36.19 33.02 34.49 C 30.47 34.74 30.53 40.04 33.13 39.59 M 36.81 34.40 C 36.71 36.04 36.62 37.68 36.55 39.33 C 37.04 39.34 38.03 39.38 38.53 39.40 C 38.25 37.63 39.15 35.06 36.81 34.40 Z" />
</g>
<g id="#dcd8d8ff">
<path fill="#dcd8d8" opacity="1.00" d=" M 31.82 19.09 C 36.43 18.88 41.06 18.83 45.68 18.96 C 46.54 19.34 47.41 19.73 48.27 20.13 C 47.42 25.71 47.00 31.49 48.94 36.90 C 48.27 38.07 47.57 39.23 46.82 40.34 C 43.86 44.09 39.86 46.94 35.33 48.48 C 35.04 46.60 34.75 44.72 34.46 42.84 C 37.65 41.86 40.82 40.74 43.72 39.06 C 44.00 38.91 44.55 38.60 44.83 38.45 C 45.82 37.54 46.75 36.57 47.70 35.62 C 47.02 35.59 45.65 35.53 44.97 35.50 C 44.06 34.47 42.48 33.57 42.78 31.96 C 42.87 27.96 43.40 23.99 43.60 20.00 C 39.67 19.75 35.74 19.50 31.82 19.09 Z" />
</g>
<g id="#626262ff">
<path fill="#626262" opacity="1.00" d=" M 51.44 31.26 C 52.06 29.63 52.73 28.02 53.34 26.39 C 54.09 32.39 54.18 38.42 54.51 44.45 C 53.24 46.27 51.74 47.90 50.19 49.48 C 52.01 45.52 53.06 41.13 51.90 36.81 C 51.10 36.50 50.30 36.18 49.51 35.86 C 50.23 34.36 50.86 32.82 51.44 31.26 Z" />
<path fill="#626262" opacity="1.00" d=" M 25.63 34.39 C 28.30 34.96 27.95 39.02 25.81 40.05 C 25.68 38.17 25.62 36.28 25.63 34.39 Z" />
<path fill="#626262" opacity="1.00" d=" M 36.81 34.40 C 39.15 35.06 38.25 37.63 38.53 39.40 C 38.03 39.38 37.04 39.34 36.55 39.33 C 36.62 37.68 36.71 36.04 36.81 34.40 Z" />
</g>
<g id="#e01515ff">
<path fill="#e01515" opacity="1.00" d=" M 15.95 35.64 C 16.84 35.61 18.61 35.54 19.50 35.51 C 20.62 35.47 21.74 35.45 22.87 35.43 C 22.86 36.57 22.86 37.71 22.86 38.85 C 22.24 38.89 21.00 38.97 20.38 39.01 C 18.72 38.15 17.36 36.84 15.95 35.64 Z" />
<path fill="#e01515" opacity="1.00" d=" M 40.95 35.43 C 42.29 35.44 43.63 35.47 44.97 35.50 C 45.65 35.53 47.02 35.59 47.70 35.62 C 46.75 36.57 45.82 37.54 44.83 38.45 C 44.55 38.60 44.00 38.91 43.72 39.06 C 43.01 39.01 41.59 38.90 40.88 38.84 C 40.90 37.70 40.93 36.57 40.95 35.43 Z" />
</g>
<g id="#4f4e4eff">
<path fill="#4f4e4e" opacity="1.00" d=" M 33.13 39.59 C 30.53 40.04 30.47 34.74 33.02 34.49 C 33.06 36.19 33.09 37.89 33.13 39.59 Z" />
</g>
<g id="#898787ff">
<path fill="#898787" opacity="1.00" d=" M 16.12 39.86 C 19.17 43.94 23.43 47.10 28.35 48.50 C 30.68 48.67 33.01 48.66 35.33 48.48 C 39.86 46.94 43.86 44.09 46.82 40.34 C 47.84 42.72 49.85 45.56 48.11 48.12 C 45.64 51.77 41.55 54.71 36.99 54.67 C 33.04 54.83 29.06 54.89 25.11 54.51 C 21.68 54.15 18.88 51.76 16.67 49.28 C 14.14 46.71 15.76 42.93 16.12 39.86 Z" />
</g>
<g id="#6b4735d2">
<path fill="#6b4735" opacity="0.82" d=" M 14.26 49.44 C 14.52 49.68 15.05 50.17 15.31 50.41 C 14.91 51.52 14.64 52.65 14.50 53.82 C 15.63 53.96 16.76 53.99 17.90 53.92 C 18.29 54.30 19.07 55.07 19.47 55.45 C 17.27 55.17 15.08 54.87 12.89 54.55 C 12.40 55.13 11.42 56.31 10.93 56.89 C 9.01 59.22 7.24 61.67 5.32 64.00 L 4.47 64.00 C 7.91 59.28 11.73 54.74 14.26 49.44 Z" />
</g>
<g id="#19110fb7">
<path fill="#19110f" opacity="0.72" d=" M 15.31 50.41 C 16.24 51.33 17.03 52.37 17.85 53.37 L 17.90 53.92 C 16.76 53.99 15.63 53.96 14.50 53.82 C 14.64 52.65 14.91 51.52 15.31 50.41 Z" />
</g>
<g id="#555453cb">
<path fill="#555453" opacity="0.80" d=" M 17.85 53.37 C 20.41 55.24 22.94 57.32 25.97 58.35 C 29.94 59.03 34.04 58.97 38.02 58.40 C 41.24 57.48 43.52 54.79 46.26 53.00 C 46.50 53.27 46.97 53.81 47.21 54.09 L 47.93 53.78 C 45.80 55.05 43.61 56.24 41.67 57.78 C 41.16 58.17 40.15 58.97 39.64 59.37 C 43.46 59.76 47.39 59.97 51.14 58.94 L 51.28 60.03 C 47.10 59.97 42.91 59.69 38.74 60.06 C 29.65 60.40 20.56 59.58 11.47 60.01 L 11.42 59.29 C 15.66 59.77 19.93 59.72 24.19 59.46 C 23.67 59.05 22.63 58.23 22.10 57.83 C 21.94 57.70 21.61 57.44 21.45 57.31 C 20.78 56.70 20.12 56.08 19.47 55.45 C 19.07 55.07 18.29 54.30 17.90 53.92 L 17.85 53.37 Z" />
</g>
<g id="#130c0b86">
<path fill="#130c0b" opacity="0.53" d=" M 46.26 53.00 L 46.99 52.55 C 47.23 52.85 47.69 53.47 47.93 53.78 L 47.21 54.09 C 46.97 53.81 46.50 53.27 46.26 53.00 Z" />
</g>
<g id="#8b3507ff">
<path fill="#8b3507" opacity="1.00" d=" M 10.93 56.89 C 11.42 56.31 12.40 55.13 12.89 54.55 C 15.08 54.87 17.27 55.17 19.47 55.45 C 20.12 56.08 20.78 56.70 21.45 57.31 C 17.95 57.01 14.43 57.00 10.93 56.89 Z" />
</g>
<g id="#b4671dff">
<path fill="#b4671d" opacity="1.00" d=" M 5.32 64.00 C 7.24 61.67 9.01 59.22 10.93 56.89 C 14.43 57.00 17.95 57.01 21.45 57.31 C 21.61 57.44 21.94 57.70 22.10 57.83 C 18.50 57.82 14.89 57.87 11.29 57.67 L 11.42 59.29 L 11.47 60.01 C 11.48 60.24 11.51 60.71 11.52 60.94 C 20.06 61.24 28.60 60.62 37.14 60.54 C 41.88 61.04 46.65 61.05 51.42 60.98 C 51.38 60.75 51.32 60.27 51.28 60.03 L 51.14 58.94 C 52.07 58.65 53.01 58.36 53.96 58.09 C 55.65 60.07 57.29 62.10 59.09 64.00 L 5.32 64.00 Z" />
</g>
<g id="#0701016e">
<path fill="#070101" opacity="0.43" d=" M 11.29 57.67 C 14.89 57.87 18.50 57.82 22.10 57.83 C 22.63 58.23 23.67 59.05 24.19 59.46 C 19.93 59.72 15.66 59.77 11.42 59.29 L 11.29 57.67 Z" />
</g>
<g id="#06000074">
<path fill="#060000" opacity="0.45" d=" M 39.64 59.37 C 40.15 58.97 41.16 58.17 41.67 57.78 C 45.13 57.45 48.62 57.57 52.09 57.80 L 51.14 58.94 C 47.39 59.97 43.46 59.76 39.64 59.37 Z" />
</g>
<g id="#a3764bff">
<path fill="#a3764b" opacity="1.00" d=" M 11.52 60.94 C 11.51 60.71 11.48 60.24 11.47 60.01 C 20.56 59.58 29.65 60.40 38.74 60.06 L 37.14 60.54 C 28.60 60.62 20.06 61.24 11.52 60.94 Z" />
</g>
<g id="#b7875aff">
<path fill="#b7875a" opacity="1.00" d=" M 38.74 60.06 C 42.91 59.69 47.10 59.97 51.28 60.03 C 51.32 60.27 51.38 60.75 51.42 60.98 C 46.65 61.05 41.88 61.04 37.14 60.54 L 38.74 60.06 Z" />
</g>
</svg>
