<?xml version="1.0" encoding="UTF-8" ?>
<!DOCTYPE svg PUBLIC "-//W3C//DTD SVG 1.1//EN" "http://www.w3.org/Graphics/SVG/1.1/DTD/svg11.dtd">
<svg width="64pt" height="64pt" viewBox="0 0 64 64" version="1.1" xmlns="http://www.w3.org/2000/svg">
<g id="#595959b9">
<path fill="#595959" opacity="0.73" d=" M 10.02 6.06 C 17.34 5.81 24.67 5.96 32.00 6.07 L 32.03 7.03 C 24.68 6.99 17.33 6.99 9.98 7.02 L 10.02 6.06 Z" />
</g>
<g id="#a6a6a6ff">
<path fill="#a6a6a6" opacity="1.00" d=" M 9.98 7.02 C 17.33 6.99 24.68 6.99 32.03 7.03 C 31.87 7.50 31.57 8.45 31.41 8.92 C 24.36 7.45 17.13 8.12 10.00 7.98 L 9.98 7.02 Z" />
</g>
<g id="#afafaff2">
<path fill="#afafaf" opacity="0.95" d=" M 10.00 7.98 C 17.13 8.12 24.36 7.45 31.41 8.92 C 29.48 9.71 27.60 10.56 27.79 13.00 C 27.36 12.99 26.50 12.97 26.06 12.96 C 26.03 12.23 25.98 10.75 25.95 10.01 L 25.88 9.03 C 23.18 9.03 17.80 9.03 15.10 9.04 L 15.04 10.01 C 15.01 10.75 14.96 12.23 14.94 12.97 C 14.50 12.98 13.62 13.00 13.18 13.01 C 14.20 9.49 9.53 10.87 10.00 7.98 Z" />
</g>
<g id="#6b6b6ba1">
<path fill="#6b6b6b" opacity="0.63" d=" M 15.10 9.04 C 17.80 9.03 23.18 9.03 25.88 9.03 L 25.95 10.01 C 22.31 10.00 18.68 9.99 15.04 10.01 L 15.10 9.04 Z" />
</g>
<g id="#05050513">
<path fill="#050505" opacity="0.07" d=" M 15.04 10.01 C 18.68 9.99 22.31 10.00 25.95 10.01 C 25.98 10.75 26.03 12.23 26.06 12.96 C 22.35 12.99 18.65 13.01 14.94 12.97 C 14.96 12.23 15.01 10.75 15.04 10.01 Z" />
</g>
<g id="#4d4b42fb">
<path fill="#4d4b42" opacity="1.00" d=" M 3.73 18.76 C 4.33 14.05 9.40 13.83 13.18 13.01 C 13.62 13.00 14.50 12.98 14.94 12.97 C 18.65 13.01 22.35 12.99 26.06 12.96 C 26.50 12.97 27.36 12.99 27.79 13.00 C 32.64 13.36 38.02 15.15 38.37 20.71 C 37.23 30.14 39.21 39.95 37.26 49.22 C 37.21 48.68 37.12 47.62 37.07 47.09 C 36.97 44.31 36.87 41.53 36.78 38.75 C 37.87 35.51 37.68 33.31 36.20 32.14 L 35.28 32.00 C 36.67 27.45 38.58 21.83 35.28 17.73 C 34.31 16.21 32.40 17.12 32.91 18.93 C 29.94 18.97 26.98 19.04 24.02 19.05 C 24.26 17.92 26.32 14.65 24.04 15.00 C 20.73 13.96 22.28 17.38 22.98 19.05 C 21.33 19.06 19.67 19.04 18.01 19.03 C 18.73 17.36 20.26 13.96 16.96 15.00 C 14.68 14.65 16.74 17.90 16.98 19.03 C 14.20 19.09 11.38 18.84 8.69 19.68 L 7.77 19.82 C 7.87 18.49 7.93 17.16 7.93 15.83 C 4.28 17.64 5.18 21.90 4.26 25.27 C 4.08 23.10 3.89 20.93 3.73 18.76 Z" />
</g>
<g id="#c1635fff">
<path fill="#c1635f" opacity="1.00" d=" M 16.98 19.03 C 16.74 17.90 14.68 14.65 16.96 15.00 C 20.26 13.96 18.73 17.36 18.01 19.03 L 16.98 19.03 Z" />
<path fill="#c1635f" opacity="1.00" d=" M 22.98 19.05 C 22.28 17.38 20.73 13.96 24.04 15.00 C 26.32 14.65 24.26 17.92 24.02 19.05 L 22.98 19.05 Z" />
</g>
<g id="#0f0f0f61">
<path fill="#0f0f0f" opacity="0.38" d=" M 44.77 15.79 C 49.33 13.83 56.54 14.88 61.25 15.79 C 55.76 15.91 50.25 16.20 44.77 15.79 Z" />
</g>
<g id="#535353ff">
<path fill="#535353" opacity="1.00" d=" M 4.26 25.27 C 5.18 21.90 4.28 17.64 7.93 15.83 C 7.93 17.16 7.87 18.49 7.77 19.82 C 8.49 21.70 5.33 27.34 8.00 27.98 L 8.96 28.00 C 16.98 27.99 25.00 28.16 33.01 27.97 C 36.30 28.12 33.82 21.92 33.26 19.84 L 32.91 18.93 C 32.40 17.12 34.31 16.21 35.28 17.73 C 38.58 21.83 36.67 27.45 35.28 32.00 C 34.53 33.02 33.79 34.05 32.99 35.03 C 32.84 34.50 32.55 33.43 32.40 32.90 C 32.97 31.95 33.52 31.00 34.04 30.02 C 25.32 29.94 16.61 29.93 7.89 30.07 C 8.48 30.77 9.09 31.46 9.73 32.12 C 9.20 33.76 9.51 35.46 9.81 37.11 C 8.50 36.11 7.39 34.69 5.77 34.18 L 4.89 33.90 C 5.45 37.73 7.94 42.46 12.18 43.03 L 13.02 43.32 C 11.43 44.71 9.75 45.99 7.73 46.69 C 5.50 46.60 5.14 48.38 4.88 50.18 C 4.59 49.69 4.02 48.73 3.73 48.25 C 3.71 40.58 4.77 32.93 4.26 25.27 Z" />
<path fill="#535353" opacity="1.00" d=" M 59.99 19.03 C 60.22 18.71 60.69 18.08 60.92 17.76 C 60.95 19.89 61.02 22.01 61.02 24.13 C 55.76 25.27 50.35 25.00 45.01 24.99 C 44.98 23.68 44.96 22.36 44.95 21.04 L 45.72 20.96 C 45.66 22.61 46.37 23.23 47.84 22.83 C 48.85 22.72 49.85 22.60 50.85 22.44 C 51.94 22.44 53.03 22.40 54.12 22.31 C 54.61 22.44 55.57 22.68 56.05 22.81 C 57.33 22.95 58.62 23.01 59.91 22.99 C 59.97 21.67 60.00 20.35 59.99 19.03 Z" />
</g>
<g id="#1c1c1c9d">
<path fill="#1c1c1c" opacity="0.62" d=" M 44.04 25.80 C 44.22 23.30 44.58 18.29 44.77 15.79 C 44.86 17.54 44.91 19.29 44.95 21.04 C 44.96 22.36 44.98 23.68 45.01 24.99 L 45.01 25.96 L 44.04 25.80 Z" />
</g>
<g id="#7b7b7bff">
<path fill="#7b7b7b" opacity="1.00" d=" M 44.77 15.79 C 50.25 16.20 55.76 15.91 61.25 15.79 C 61.17 16.29 61.01 17.27 60.92 17.76 C 60.69 18.08 60.22 18.71 59.99 19.03 C 58.61 19.04 57.24 19.06 55.86 19.07 C 55.43 19.08 54.57 19.09 54.14 19.10 C 53.37 19.02 51.83 18.87 51.07 18.80 C 50.33 18.64 49.60 18.61 48.86 18.69 C 47.34 18.83 45.71 19.06 45.72 20.96 L 44.95 21.04 C 44.91 19.29 44.86 17.54 44.77 15.79 Z" />
</g>
<g id="#0606052a">
<path fill="#060605" opacity="0.16" d=" M 61.25 15.79 C 61.44 18.31 61.82 23.35 62.01 25.87 L 61.04 25.92 C 61.03 25.48 61.02 24.58 61.02 24.13 C 61.02 22.01 60.95 19.89 60.92 17.76 C 61.01 17.27 61.17 16.29 61.25 15.79 Z" />
</g>
<g id="#8d8d8dff">
<path fill="#8d8d8d" opacity="1.00" d=" M 48.86 18.69 C 49.60 18.61 50.33 18.64 51.07 18.80 C 51.01 19.71 50.90 21.53 50.85 22.44 C 49.85 22.60 48.85 22.72 47.84 22.83 C 48.89 21.58 50.06 20.30 48.86 18.69 Z" />
</g>
<g id="#2a2a29d8">
<path fill="#2a2a29" opacity="0.85" d=" M 3.73 48.25 C 1.62 38.80 3.15 28.37 3.73 18.76 C 3.89 20.93 4.08 23.10 4.26 25.27 C 4.77 32.93 3.71 40.58 3.73 48.25 Z" />
</g>
<g id="#1f1d1cff">
<path fill="#1f1d1c" opacity="1.00" d=" M 8.69 19.68 C 11.38 18.84 14.20 19.09 16.98 19.03 L 18.01 19.03 C 19.67 19.04 21.33 19.06 22.98 19.05 L 24.02 19.05 C 26.98 19.04 29.94 18.97 32.91 18.93 L 33.26 19.84 C 25.08 19.92 16.86 20.37 8.69 19.68 Z" />
</g>
<g id="#b3b3b3ff">
<path fill="#b3b3b3" opacity="1.00" d=" M 45.72 20.96 C 45.71 19.06 47.34 18.83 48.86 18.69 C 50.06 20.30 48.89 21.58 47.84 22.83 C 46.37 23.23 45.66 22.61 45.72 20.96 Z" />
</g>
<g id="#b6b6b6ff">
<path fill="#b6b6b6" opacity="1.00" d=" M 51.07 18.80 C 51.83 18.87 53.37 19.02 54.14 19.10 C 54.13 19.90 54.13 21.51 54.12 22.31 C 53.03 22.40 51.94 22.44 50.85 22.44 C 50.90 21.53 51.01 19.71 51.07 18.80 Z" />
</g>
<g id="#8f8f8fff">
<path fill="#8f8f8f" opacity="1.00" d=" M 54.14 19.10 C 54.57 19.09 55.43 19.08 55.86 19.07 C 56.09 20.31 56.15 21.55 56.05 22.81 C 55.57 22.68 54.61 22.44 54.12 22.31 C 54.13 21.51 54.13 19.90 54.14 19.10 Z" />
</g>
<g id="#b0b1b1ff">
<path fill="#b0b1b1" opacity="1.00" d=" M 55.86 19.07 C 57.24 19.06 58.61 19.04 59.99 19.03 C 60.00 20.35 59.97 21.67 59.91 22.99 C 58.62 23.01 57.33 22.95 56.05 22.81 C 56.15 21.55 56.09 20.31 55.86 19.07 Z" />
</g>
<g id="#403832ff">
<path fill="#403832" opacity="1.00" d=" M 8.00 27.98 C 5.33 27.34 8.49 21.70 7.77 19.82 C 7.94 22.53 8.02 25.26 8.00 27.98 Z" />
</g>
<g id="#385e75ff">
<path fill="#385e75" opacity="1.00" d=" M 7.77 19.82 L 8.69 19.68 L 8.90 20.89 L 9.00 21.98 C 9.00 23.66 8.99 25.34 8.98 27.02 L 8.96 28.00 L 8.00 27.98 C 8.02 25.26 7.94 22.53 7.77 19.82 Z" />
</g>
<g id="#acc3caff">
<path fill="#acc3ca" opacity="1.00" d=" M 8.69 19.68 C 16.86 20.37 25.08 19.92 33.26 19.84 L 33.17 21.00 L 32.21 21.16 C 24.44 21.01 16.67 21.05 8.90 20.89 L 8.69 19.68 Z" />
</g>
<g id="#232c32ff">
<path fill="#232c32" opacity="1.00" d=" M 33.26 19.84 C 33.82 21.92 36.30 28.12 33.01 27.97 L 32.98 27.00 C 32.99 26.25 32.99 24.75 32.99 24.00 C 33.03 23.25 33.12 21.75 33.17 21.00 L 33.26 19.84 Z" />
</g>
<g id="#b2f0ffff">
<path fill="#b2f0ff" opacity="1.00" d=" M 8.90 20.89 C 16.67 21.05 24.44 21.01 32.21 21.16 C 28.50 21.82 24.76 22.11 20.99 22.02 C 20.20 22.02 18.62 22.01 17.82 22.00 C 14.88 21.98 11.94 22.00 9.00 21.98 L 8.90 20.89 Z" />
</g>
<g id="#69c1e5ff">
<path fill="#69c1e5" opacity="1.00" d=" M 32.21 21.16 L 33.17 21.00 C 33.12 21.75 33.03 23.25 32.99 24.00 C 29.00 24.00 25.01 24.00 21.02 24.01 C 21.01 23.51 21.00 22.52 20.99 22.02 C 24.76 22.11 28.50 21.82 32.21 21.16 Z" />
</g>
<g id="#1111116a">
<path fill="#111111" opacity="0.42" d=" M 38.37 20.71 C 39.75 29.67 38.67 38.87 39.01 47.92 C 39.00 49.24 39.02 50.56 39.07 51.88 C 38.36 51.26 37.67 50.63 37.00 49.96 L 37.26 49.22 C 39.21 39.95 37.23 30.14 38.37 20.71 Z" />
</g>
<g id="#69b9e4ff">
<path fill="#69b9e4" opacity="1.00" d=" M 9.00 21.98 C 11.94 22.00 14.88 21.98 17.82 22.00 C 17.09 23.82 18.49 25.33 19.15 26.92 C 18.68 26.90 17.75 26.87 17.28 26.85 C 15.68 24.39 9.65 23.24 9.87 26.95 L 8.98 27.02 C 8.99 25.34 9.00 23.66 9.00 21.98 Z" />
</g>
<g id="#88c3e6ff">
<path fill="#88c3e6" opacity="1.00" d=" M 17.82 22.00 C 18.62 22.01 20.20 22.02 20.99 22.02 C 21.00 22.52 21.01 23.51 21.02 24.01 C 21.02 24.75 21.01 26.23 21.00 26.97 C 20.54 26.96 19.61 26.93 19.15 26.92 C 18.49 25.33 17.09 23.82 17.82 22.00 Z" />
</g>
<g id="#59a2d9ff">
<path fill="#59a2d9" opacity="1.00" d=" M 21.02 24.01 C 25.01 24.00 29.00 24.00 32.99 24.00 C 32.99 24.75 32.99 26.25 32.98 27.00 C 28.99 27.02 24.99 27.01 21.00 26.97 C 21.01 26.23 21.02 24.75 21.02 24.01 Z" />
</g>
<g id="#383838fd">
<path fill="#383838" opacity="1.00" d=" M 45.01 24.99 C 50.35 25.00 55.76 25.27 61.02 24.13 C 61.02 24.58 61.03 25.48 61.04 25.92 C 59.06 26.02 57.07 25.96 55.10 26.19 C 54.77 26.32 54.11 26.60 53.78 26.74 C 53.37 26.78 52.54 26.86 52.12 26.90 L 51.25 26.79 C 49.69 26.58 46.57 26.17 45.01 25.96 L 45.01 24.99 Z" />
</g>
<g id="#569dd7ff">
<path fill="#569dd7" opacity="1.00" d=" M 9.87 26.95 C 9.65 23.24 15.68 24.39 17.28 26.85 C 15.43 26.88 11.72 26.93 9.87 26.95 Z" />
</g>
<g id="#20202061">
<path fill="#202020" opacity="0.38" d=" M 53.78 26.74 C 54.11 26.60 54.77 26.32 55.10 26.19 C 55.04 30.04 55.08 33.89 55.20 37.74 L 54.09 37.91 C 54.03 37.48 53.90 36.62 53.84 36.19 C 53.83 33.04 53.94 29.89 53.78 26.74 Z" />
</g>
<g id="#4582c0ff">
<path fill="#4582c0" opacity="1.00" d=" M 8.98 27.02 L 9.87 26.95 C 11.72 26.93 15.43 26.88 17.28 26.85 C 17.75 26.87 18.68 26.90 19.15 26.92 C 19.61 26.93 20.54 26.96 21.00 26.97 C 24.99 27.01 28.99 27.02 32.98 27.00 L 33.01 27.97 C 25.00 28.16 16.98 27.99 8.96 28.00 L 8.98 27.02 Z" />
</g>
<g id="#585858d4">
<path fill="#585858" opacity="0.83" d=" M 51.25 26.79 L 52.12 26.90 L 52.32 27.74 C 52.19 31.14 52.03 34.53 51.94 37.93 L 50.79 37.80 C 51.08 34.14 51.09 30.46 51.25 26.79 Z" />
</g>
<g id="#807f7fff">
<path fill="#807f7f" opacity="1.00" d=" M 52.12 26.90 C 52.54 26.86 53.37 26.78 53.78 26.74 C 53.94 29.89 53.83 33.04 53.84 36.19 C 53.35 33.37 53.10 30.50 52.32 27.74 L 52.12 26.90 Z" />
</g>
<g id="#959595ff">
<path fill="#959595" opacity="1.00" d=" M 52.32 27.74 C 53.10 30.50 53.35 33.37 53.84 36.19 C 53.90 36.62 54.03 37.48 54.09 37.91 L 53.08 38.07 L 51.94 37.93 C 52.03 34.53 52.19 31.14 52.32 27.74 Z" />
</g>
<g id="#414142ff">
<path fill="#414142" opacity="1.00" d=" M 7.89 30.07 C 16.61 29.93 25.32 29.94 34.04 30.02 C 33.52 31.00 32.97 31.95 32.40 32.90 C 24.94 31.32 17.28 32.12 9.73 32.12 C 9.09 31.46 8.48 30.77 7.89 30.07 Z" />
</g>
<g id="#71ad58ff">
<path fill="#71ad58" opacity="1.00" d=" M 9.73 32.12 C 17.28 32.12 24.94 31.32 32.40 32.90 C 32.55 33.43 32.84 34.50 32.99 35.03 C 31.81 36.62 30.58 38.66 28.25 37.95 C 28.12 37.24 27.88 35.81 27.75 35.09 C 24.03 35.07 16.57 35.02 12.85 34.99 C 13.16 35.29 13.80 35.88 14.12 36.18 C 14.53 38.74 11.01 38.48 9.81 37.11 C 9.51 35.46 9.20 33.76 9.73 32.12 Z" />
</g>
<g id="#383838ff">
<path fill="#383838" opacity="1.00" d=" M 35.28 32.00 L 36.20 32.14 C 33.57 37.23 29.89 45.09 23.15 44.66 C 24.04 41.74 24.50 35.49 19.99 37.90 C 19.09 33.40 26.58 35.72 28.25 37.95 C 30.58 38.66 31.81 36.62 32.99 35.03 C 33.79 34.05 34.53 33.02 35.28 32.00 Z" />
</g>
<g id="#626262ff">
<path fill="#626262" opacity="1.00" d=" M 36.20 32.14 C 37.68 33.31 37.87 35.51 36.78 38.75 C 36.36 40.19 36.03 41.65 35.67 43.10 C 34.90 42.17 34.24 41.17 33.55 40.19 C 32.04 41.27 30.85 42.72 29.64 44.10 C 25.45 46.34 18.79 49.35 15.15 44.98 C 16.03 44.86 16.92 44.72 17.80 44.56 C 19.58 44.68 21.37 44.70 23.15 44.66 C 29.89 45.09 33.57 37.23 36.20 32.14 Z" />
</g>
<g id="#6a6a6aff">
<path fill="#6a6a6a" opacity="1.00" d=" M 4.89 33.90 L 5.77 34.18 C 7.71 37.27 9.79 40.27 12.18 43.03 C 7.94 42.46 5.45 37.73 4.89 33.90 Z" />
</g>
<g id="#373637ff">
<path fill="#373637" opacity="1.00" d=" M 5.77 34.18 C 7.39 34.69 8.50 36.11 9.81 37.11 C 11.01 38.48 14.53 38.74 14.12 36.18 C 15.31 36.08 16.50 36.03 17.70 36.01 C 17.52 38.87 16.45 41.85 17.80 44.56 C 16.92 44.72 16.03 44.86 15.15 44.98 C 14.56 44.24 13.85 43.69 13.02 43.32 L 12.18 43.03 C 9.79 40.27 7.71 37.27 5.77 34.18 Z" />
</g>
<g id="#4d514bff">
<path fill="#4d514b" opacity="1.00" d=" M 12.85 34.99 C 16.57 35.02 24.03 35.07 27.75 35.09 C 27.88 35.81 28.12 37.24 28.25 37.95 C 26.58 35.72 19.09 33.40 19.99 37.90 C 24.50 35.49 24.04 41.74 23.15 44.66 C 21.84 42.88 22.00 38.80 19.16 39.07 C 18.43 40.82 18.02 42.68 17.80 44.56 C 16.45 41.85 17.52 38.87 17.70 36.01 C 16.50 36.03 15.31 36.08 14.12 36.18 C 13.80 35.88 13.16 35.29 12.85 34.99 Z" />
</g>
<g id="#3d3c3ceb">
<path fill="#3d3c3c" opacity="0.92" d=" M 49.89 48.97 C 49.93 45.22 50.23 41.50 50.79 37.80 L 51.94 37.93 L 53.08 38.07 C 50.25 39.34 51.22 42.54 51.13 45.19 C 51.02 46.49 50.91 47.78 50.81 49.08 L 49.89 48.97 Z" />
</g>
<g id="#595959f9">
<path fill="#595959" opacity="0.98" d=" M 53.08 38.07 L 54.09 37.91 L 55.20 37.74 C 56.19 41.73 53.01 47.74 55.96 51.02 C 56.25 51.21 56.84 51.59 57.13 51.79 C 55.73 52.24 54.36 52.78 52.98 53.30 C 50.79 51.71 48.51 48.54 45.64 50.91 C 44.50 50.71 43.58 50.01 42.78 49.22 C 44.25 49.02 45.74 48.85 47.22 48.71 C 47.89 48.78 49.22 48.90 49.89 48.97 L 50.81 49.08 C 50.56 51.24 52.37 51.13 53.95 51.02 C 53.99 47.99 54.15 44.96 53.94 41.94 C 51.87 41.63 51.81 43.82 51.13 45.19 C 51.22 42.54 50.25 39.34 53.08 38.07 Z" />
</g>
<g id="#1b1b1b86">
<path fill="#1b1b1b" opacity="0.53" d=" M 55.20 37.74 C 56.97 41.92 55.48 46.65 55.96 51.02 C 53.01 47.74 56.19 41.73 55.20 37.74 Z" />
</g>
<g id="#727171ff">
<path fill="#727171" opacity="1.00" d=" M 19.16 39.07 C 22.00 38.80 21.84 42.88 23.15 44.66 C 21.37 44.70 19.58 44.68 17.80 44.56 C 18.02 42.68 18.43 40.82 19.16 39.07 Z" />
</g>
<g id="#545454ff">
<path fill="#545454" opacity="1.00" d=" M 35.67 43.10 C 36.03 41.65 36.36 40.19 36.78 38.75 C 36.87 41.53 36.97 44.31 37.07 47.09 C 36.34 47.02 34.88 46.87 34.15 46.80 C 32.53 46.10 30.92 45.34 29.64 44.10 C 30.85 42.72 32.04 41.27 33.55 40.19 C 34.24 41.17 34.90 42.17 35.67 43.10 Z" />
</g>
<g id="#6f6f6fff">
<path fill="#6f6f6f" opacity="1.00" d=" M 51.13 45.19 C 51.81 43.82 51.87 41.63 53.94 41.94 C 54.15 44.96 53.99 47.99 53.95 51.02 C 52.37 51.13 50.56 51.24 50.81 49.08 C 50.91 47.78 51.02 46.49 51.13 45.19 Z" />
</g>
<g id="#434343ff">
<path fill="#434343" opacity="1.00" d=" M 13.02 43.32 C 13.85 43.69 14.56 44.24 15.15 44.98 C 18.79 49.35 25.45 46.34 29.64 44.10 C 30.92 45.34 32.53 46.10 34.15 46.80 C 33.57 47.02 32.40 47.45 31.82 47.67 C 24.37 49.49 16.62 49.27 9.14 47.76 C 8.79 47.49 8.08 46.96 7.73 46.69 C 9.75 45.99 11.43 44.71 13.02 43.32 Z" />
</g>
<g id="#646464fd">
<path fill="#646464" opacity="1.00" d=" M 4.88 50.18 C 5.14 48.38 5.50 46.60 7.73 46.69 C 8.08 46.96 8.79 47.49 9.14 47.76 C 8.58 47.86 7.44 48.04 6.88 48.14 C 8.79 49.64 10.87 50.92 12.96 52.14 L 12.93 53.10 C 10.99 53.70 9.00 53.73 7.10 52.97 C 6.79 52.65 6.19 51.99 5.89 51.66 C 5.64 51.29 5.13 50.55 4.88 50.18 Z" />
</g>
<g id="#605f5efd">
<path fill="#605f5e" opacity="1.00" d=" M 31.82 47.67 C 32.40 47.45 33.57 47.02 34.15 46.80 C 34.88 46.87 36.34 47.02 37.07 47.09 C 37.12 47.62 37.21 48.68 37.26 49.22 L 37.00 49.96 C 35.58 51.64 36.57 53.26 37.87 54.61 C 36.17 58.07 40.63 61.10 42.17 64.00 L 40.32 64.00 C 40.06 63.69 39.54 63.06 39.28 62.74 C 38.71 61.81 38.12 60.90 37.49 60.01 L 37.01 59.15 C 36.79 58.61 36.35 57.53 36.13 56.99 C 35.72 55.74 35.30 54.49 34.78 53.28 C 32.62 53.58 30.45 53.74 28.29 53.34 L 28.21 52.42 C 30.29 51.17 32.50 50.00 34.14 48.16 C 33.56 48.04 32.40 47.79 31.82 47.67 Z" />
</g>
<g id="#949493ff">
<path fill="#949493" opacity="1.00" d=" M 6.88 48.14 C 7.44 48.04 8.58 47.86 9.14 47.76 C 16.62 49.27 24.37 49.49 31.82 47.67 C 32.40 47.79 33.56 48.04 34.14 48.16 C 32.50 50.00 30.29 51.17 28.21 52.42 C 23.15 52.92 17.93 53.56 12.96 52.14 C 10.87 50.92 8.79 49.64 6.88 48.14 Z" />
</g>
<g id="#484848f8">
<path fill="#484848" opacity="0.97" d=" M 39.01 47.92 C 41.75 48.09 44.48 48.39 47.22 48.71 C 45.74 48.85 44.25 49.02 42.78 49.22 C 43.58 50.01 44.50 50.71 45.64 50.91 C 48.02 51.98 50.35 53.18 52.73 54.26 C 53.10 54.44 53.84 54.81 54.20 55.00 C 55.04 57.52 53.63 59.98 53.01 62.43 C 48.26 59.05 43.64 55.50 39.07 51.88 C 39.02 50.56 39.00 49.24 39.01 47.92 Z" />
</g>
<g id="#06050512">
<path fill="#060505" opacity="0.07" d=" M 37.00 49.96 C 37.67 50.63 38.36 51.26 39.07 51.88 C 43.64 55.50 48.26 59.05 53.01 62.43 C 53.31 62.82 53.93 63.61 54.23 64.00 L 46.22 64.00 C 43.52 60.80 41.16 57.25 37.87 54.61 C 36.57 53.26 35.58 51.64 37.00 49.96 Z" />
</g>
<g id="#7e7e7ef5">
<path fill="#7e7e7e" opacity="0.96" d=" M 45.64 50.91 C 48.51 48.54 50.79 51.71 52.98 53.30 L 52.73 54.26 C 50.35 53.18 48.02 51.98 45.64 50.91 Z" />
</g>
<g id="#41403fee">
<path fill="#41403f" opacity="0.93" d=" M 3.92 54.51 C 4.51 53.52 5.18 52.58 5.89 51.66 C 6.19 51.99 6.79 52.65 7.10 52.97 C 7.09 53.48 7.07 54.48 7.07 54.99 L 7.01 55.96 L 6.89 56.86 C 6.15 57.60 5.42 58.35 4.70 59.11 L 3.93 59.00 L 4.02 58.03 C 4.63 56.83 5.08 55.56 3.92 54.51 Z" />
</g>
<g id="#75787aff">
<path fill="#75787a" opacity="1.00" d=" M 12.96 52.14 C 17.93 53.56 23.15 52.92 28.21 52.42 L 28.29 53.34 C 23.25 53.73 17.82 55.04 12.93 53.10 L 12.96 52.14 Z" />
</g>
<g id="#bebebefa">
<path fill="#bebebe" opacity="0.98" d=" M 52.98 53.30 C 54.36 52.78 55.73 52.24 57.13 51.79 C 59.15 52.26 61.13 52.87 63.15 53.31 C 59.68 53.76 56.21 54.05 52.73 54.26 L 52.98 53.30 Z" />
</g>
<g id="#3b2a1df8">
<path fill="#3b2a1d" opacity="0.97" d=" M 7.10 52.97 C 9.00 53.73 10.99 53.70 12.93 53.10 C 17.82 55.04 23.25 53.73 28.29 53.34 C 30.45 53.74 32.62 53.58 34.78 53.28 C 35.30 54.49 35.72 55.74 36.13 56.99 L 35.35 56.67 C 35.04 56.47 34.41 56.08 34.09 55.88 C 25.34 54.03 16.03 55.38 7.07 54.99 C 7.07 54.48 7.09 53.48 7.10 52.97 Z" />
</g>
<g id="#777777f5">
<path fill="#777777" opacity="0.96" d=" M 63.15 53.31 L 64.00 53.23 L 64.00 54.94 C 62.65 54.95 61.30 54.98 59.94 55.02 C 59.49 55.03 58.59 55.05 58.14 55.06 C 56.83 55.05 55.51 55.03 54.20 55.00 C 53.84 54.81 53.10 54.44 52.73 54.26 C 56.21 54.05 59.68 53.76 63.15 53.31 Z" />
</g>
<g id="#898989fa">
<path fill="#898989" opacity="0.98" d=" M 0.00 58.34 C 1.33 57.09 2.64 55.82 3.92 54.51 C 5.08 55.56 4.63 56.83 4.02 58.03 C 2.75 59.52 1.42 60.98 0.00 62.35 L 0.00 58.34 Z" />
</g>
<g id="#160500cd">
<path fill="#160500" opacity="0.80" d=" M 7.07 54.99 C 16.03 55.38 25.34 54.03 34.09 55.88 C 25.07 56.00 16.04 56.04 7.01 55.96 L 7.07 54.99 Z" />
</g>
<g id="#9f9f9ff7">
<path fill="#9f9f9f" opacity="0.97" d=" M 42.17 64.00 C 40.63 61.10 36.17 58.07 37.87 54.61 C 41.16 57.25 43.52 60.80 46.22 64.00 L 42.17 64.00 Z" />
</g>
<g id="#2c2b2bfe">
<path fill="#2c2b2b" opacity="1.00" d=" M 54.20 55.00 C 55.51 55.03 56.83 55.05 58.14 55.06 C 57.66 55.37 56.71 55.98 56.24 56.29 C 57.41 59.54 59.78 65.01 64.00 62.11 L 64.00 64.00 L 54.23 64.00 C 53.93 63.61 53.31 62.82 53.01 62.43 C 53.63 59.98 55.04 57.52 54.20 55.00 Z" />
</g>
<g id="#3e3e3efc">
<path fill="#3e3e3e" opacity="1.00" d=" M 58.14 55.06 C 58.59 55.05 59.49 55.03 59.94 55.02 C 58.28 57.01 60.01 61.26 62.66 60.90 C 63.10 59.46 63.49 58.01 64.00 56.59 L 64.00 62.11 C 59.78 65.01 57.41 59.54 56.24 56.29 C 56.71 55.98 57.66 55.37 58.14 55.06 Z" />
</g>
<g id="#4f4f50fd">
<path fill="#4f4f50" opacity="1.00" d=" M 59.94 55.02 C 61.30 54.98 62.65 54.95 64.00 54.94 L 64.00 56.59 C 63.49 58.01 63.10 59.46 62.66 60.90 C 60.01 61.26 58.28 57.01 59.94 55.02 Z" />
</g>
<g id="#170b0058">
<path fill="#170b00" opacity="0.35" d=" M 7.01 55.96 C 16.04 56.04 25.07 56.00 34.09 55.88 C 34.41 56.08 35.04 56.47 35.35 56.67 C 25.87 57.17 16.38 57.06 6.89 56.86 L 7.01 55.96 Z" />
</g>
<g id="#502804ff">
<path fill="#502804" opacity="1.00" d=" M 4.70 59.11 C 5.42 58.35 6.15 57.60 6.89 56.86 C 16.38 57.06 25.87 57.17 35.35 56.67 L 36.13 56.99 C 36.35 57.53 36.79 58.61 37.01 59.15 C 35.75 59.00 34.48 58.86 33.22 58.73 C 24.45 57.74 15.42 57.39 6.68 58.70 C 6.18 58.80 5.19 59.01 4.70 59.11 Z" />
</g>
<g id="#5a5752fa">
<path fill="#5a5752" opacity="0.98" d=" M 0.00 62.35 C 1.42 60.98 2.75 59.52 4.02 58.03 L 3.93 59.00 C 3.89 59.45 3.80 60.34 3.76 60.79 C 3.16 61.55 2.61 62.34 2.09 63.16 L 1.55 64.00 L 0.00 64.00 L 0.00 62.35 Z" />
</g>
<g id="#2c1301ff">
<path fill="#2c1301" opacity="1.00" d=" M 6.68 58.70 C 15.42 57.39 24.45 57.74 33.22 58.73 C 24.38 58.90 15.50 59.42 6.68 58.70 Z" />
</g>
<g id="#3c20069a">
<path fill="#3c2006" opacity="0.60" d=" M 3.93 59.00 L 4.70 59.11 C 15.53 60.93 26.57 59.64 37.49 60.01 C 35.73 60.96 33.72 61.10 31.78 61.35 C 22.45 60.77 13.09 61.16 3.76 60.79 C 3.80 60.34 3.89 59.45 3.93 59.00 Z" />
</g>
<g id="#0905033c">
<path fill="#090503" opacity="0.24" d=" M 4.70 59.11 C 5.19 59.01 6.18 58.80 6.68 58.70 C 15.50 59.42 24.38 58.90 33.22 58.73 C 34.48 58.86 35.75 59.00 37.01 59.15 L 37.49 60.01 C 26.57 59.64 15.53 60.93 4.70 59.11 Z" />
</g>
<g id="#934f0ffc">
<path fill="#934f0f" opacity="1.00" d=" M 37.49 60.01 C 38.12 60.90 38.71 61.81 39.28 62.74 L 38.33 62.69 C 36.14 62.27 33.95 61.82 31.78 61.35 C 33.72 61.10 35.73 60.96 37.49 60.01 Z" />
</g>
<g id="#783f0aff">
<path fill="#783f0a" opacity="1.00" d=" M 2.09 63.16 C 2.61 62.34 3.16 61.55 3.76 60.79 C 13.09 61.16 22.45 60.77 31.78 61.35 C 33.95 61.82 36.14 62.27 38.33 62.69 C 26.26 63.39 14.16 62.62 2.09 63.16 Z" />
</g>
<g id="#210f019b">
<path fill="#210f01" opacity="0.61" d=" M 2.09 63.16 C 14.16 62.62 26.26 63.39 38.33 62.69 L 39.28 62.74 C 39.54 63.06 40.06 63.69 40.32 64.00 L 1.55 64.00 L 2.09 63.16 Z" />
</g>
</svg>
