<?xml version="1.0" encoding="UTF-8" ?>
<!DOCTYPE svg PUBLIC "-//W3C//DTD SVG 1.1//EN" "http://www.w3.org/Graphics/SVG/1.1/DTD/svg11.dtd">
<svg width="64pt" height="64pt" viewBox="0 0 64 64" version="1.1" xmlns="http://www.w3.org/2000/svg">
<g id="#1a1a1aa0">
<path fill="#1a1a1a" opacity="0.63" d=" M 27.00 3.00 C 29.51 3.24 34.51 3.73 37.01 3.97 C 33.67 4.00 30.33 4.02 26.99 3.97 L 27.00 3.00 Z" />
</g>
<g id="#343434f6">
<path fill="#343434" opacity="0.96" d=" M 15.29 8.32 C 19.11 6.75 22.63 3.54 26.99 3.97 C 30.33 4.02 33.67 4.00 37.01 3.97 C 47.91 5.23 58.64 14.83 60.02 25.98 C 60.01 30.33 60.01 34.68 60.01 39.03 C 59.75 42.12 58.34 45.98 56.15 47.99 C 56.09 47.54 55.97 46.63 55.91 46.18 C 52.37 47.67 48.76 49.67 44.75 48.19 C 44.80 47.65 44.88 46.58 44.93 46.04 L 45.03 45.08 C 45.32 44.85 45.92 44.40 46.22 44.17 L 47.04 44.17 C 51.51 45.20 56.31 41.29 58.72 37.64 C 61.83 21.15 45.31 5.35 28.99 7.93 C 14.95 8.98 2.50 23.35 5.28 37.64 C 7.69 41.29 12.53 45.26 17.01 44.15 L 17.82 44.14 C 18.14 44.38 18.77 44.85 19.09 45.08 L 18.95 46.05 L 18.75 46.97 C 16.83 52.44 8.55 42.84 7.83 47.98 C 5.64 45.97 4.26 42.11 3.98 39.02 C 3.99 34.67 3.99 30.33 3.99 25.98 C 4.41 18.66 10.07 12.90 15.29 8.32 Z" />
</g>
<g id="#474747ff">
<path fill="#474747" opacity="1.00" d=" M 5.28 37.64 C 2.50 23.35 14.95 8.98 28.99 7.93 C 45.31 5.35 61.83 21.15 58.72 37.64 C 56.31 41.29 51.51 45.20 47.04 44.17 C 47.24 43.60 47.64 42.44 47.84 41.86 C 48.04 40.25 48.02 38.63 48.02 37.02 C 48.05 32.26 47.99 27.50 48.22 22.75 C 49.65 26.75 50.57 31.17 49.43 35.36 C 48.81 36.95 49.61 38.49 50.18 39.96 C 52.47 39.88 54.36 38.32 55.88 36.73 C 56.69 29.74 54.10 22.06 48.21 17.90 C 48.16 18.40 48.06 19.39 48.01 19.88 L 47.25 19.99 C 45.97 18.47 44.61 16.94 42.68 16.29 C 35.82 15.83 28.92 15.81 22.06 16.07 C 19.78 16.54 18.15 18.30 16.74 20.02 L 15.98 19.83 C 15.93 19.35 15.83 18.38 15.78 17.90 C 9.90 22.08 7.32 29.74 8.11 36.75 C 10.11 39.10 13.20 39.82 15.88 41.08 L 16.18 41.92 C 16.39 42.48 16.80 43.59 17.01 44.15 C 12.53 45.26 7.69 41.29 5.28 37.64 Z" />
</g>
<g id="#e5e6e7ff">
<path fill="#e5e6e7" opacity="1.00" d=" M 16.74 20.02 C 18.15 18.30 19.78 16.54 22.06 16.07 C 28.92 15.81 35.82 15.83 42.68 16.29 C 44.61 16.94 45.97 18.47 47.25 19.99 C 46.95 20.28 46.37 20.87 46.08 21.17 C 45.85 20.89 45.38 20.34 45.15 20.06 C 44.38 19.05 43.63 17.89 42.24 17.73 C 35.53 16.57 28.46 16.53 21.75 17.76 C 20.37 17.91 19.61 19.05 18.84 20.05 C 18.60 20.33 18.12 20.90 17.88 21.18 C 17.59 20.89 17.02 20.31 16.74 20.02 Z" />
</g>
<g id="#b0b1b2ff">
<path fill="#b0b1b2" opacity="1.00" d=" M 21.75 17.76 C 28.46 16.53 35.53 16.57 42.24 17.73 C 35.42 17.94 28.57 18.21 21.75 17.76 Z" />
</g>
<g id="#505050ff">
<path fill="#505050" opacity="1.00" d=" M 8.11 36.75 C 7.32 29.74 9.90 22.08 15.78 17.90 C 15.83 18.38 15.93 19.35 15.98 19.83 C 16.02 25.56 16.00 31.29 16.01 37.01 C 15.97 38.37 15.92 39.73 15.88 41.08 C 13.20 39.82 10.11 39.10 8.11 36.75 Z" />
</g>
<g id="#64635cff">
<path fill="#64635c" opacity="1.00" d=" M 18.84 20.05 C 19.61 19.05 20.37 17.91 21.75 17.76 C 28.57 18.21 35.42 17.94 42.24 17.73 C 43.63 17.89 44.38 19.05 45.15 20.06 C 41.05 20.77 36.90 21.08 32.78 21.65 C 32.38 21.66 31.59 21.68 31.19 21.69 C 27.11 20.99 22.80 21.42 18.84 20.05 Z" />
</g>
<g id="#515151ff">
<path fill="#515151" opacity="1.00" d=" M 48.21 17.90 C 54.10 22.06 56.69 29.74 55.88 36.73 C 54.36 38.32 52.47 39.88 50.18 39.96 C 49.61 38.49 48.81 36.95 49.43 35.36 C 50.57 31.17 49.65 26.75 48.22 22.75 C 48.17 22.03 48.06 20.60 48.01 19.88 C 48.06 19.39 48.16 18.40 48.21 17.90 Z" />
</g>
<g id="#cdccccff">
<path fill="#cdcccc" opacity="1.00" d=" M 15.98 19.83 L 16.74 20.02 C 17.02 20.31 17.59 20.89 17.88 21.18 L 17.79 21.88 C 17.22 26.22 16.12 30.92 17.70 35.18 L 17.93 36.04 L 18.08 36.99 C 17.56 36.99 16.53 37.01 16.01 37.01 C 16.00 31.29 16.02 25.56 15.98 19.83 Z" />
<path fill="#cdcccc" opacity="1.00" d=" M 47.25 19.99 L 48.01 19.88 C 48.06 20.60 48.17 22.03 48.22 22.75 C 47.99 27.50 48.05 32.26 48.02 37.02 C 47.51 37.01 46.49 37.00 45.98 36.99 L 46.10 36.04 L 46.23 35.15 C 46.77 30.81 47.95 26.08 46.29 21.84 L 46.08 21.17 C 46.37 20.87 46.95 20.28 47.25 19.99 Z" />
</g>
<g id="#4d4949ff">
<path fill="#4d4949" opacity="1.00" d=" M 18.84 20.05 C 22.80 21.42 27.11 20.99 31.19 21.69 C 27.15 21.51 23.32 21.89 19.73 22.83 C 18.64 23.87 19.20 25.63 18.90 26.96 L 18.00 27.02 C 17.95 25.31 17.86 23.60 17.79 21.88 L 17.88 21.18 C 18.12 20.90 18.60 20.33 18.84 20.05 Z" />
<path fill="#4d4949" opacity="1.00" d=" M 32.78 21.65 C 36.90 21.08 41.05 20.77 45.15 20.06 C 45.38 20.34 45.85 20.89 46.08 21.17 L 46.29 21.84 C 46.17 23.57 46.06 25.29 46.00 27.02 L 45.09 26.96 C 44.79 25.62 45.38 23.84 44.26 22.82 C 40.64 21.89 36.82 21.50 32.78 21.65 Z" />
</g>
<g id="#848587ff">
<path fill="#848587" opacity="1.00" d=" M 17.70 35.18 C 16.12 30.92 17.22 26.22 17.79 21.88 C 17.86 23.60 17.95 25.31 18.00 27.02 C 17.94 29.74 17.84 32.46 17.70 35.18 Z" />
<path fill="#848587" opacity="1.00" d=" M 46.29 21.84 C 47.95 26.08 46.77 30.81 46.23 35.15 C 46.14 32.44 46.06 29.73 46.00 27.02 C 46.06 25.29 46.17 23.57 46.29 21.84 Z" />
</g>
<g id="#6aafb6ff">
<path fill="#6aafb6" opacity="1.00" d=" M 19.73 22.83 C 23.32 21.89 27.15 21.51 31.19 21.69 C 31.59 21.68 32.38 21.66 32.78 21.65 C 36.82 21.50 40.64 21.89 44.26 22.82 C 36.09 23.01 27.90 23.15 19.73 22.83 Z" />
</g>
<g id="#54d4e2ff">
<path fill="#54d4e2" opacity="1.00" d=" M 18.90 26.96 C 19.20 25.63 18.64 23.87 19.73 22.83 C 19.82 24.12 19.94 25.40 20.10 26.68 C 27.99 26.00 36.05 25.36 43.92 26.62 C 44.06 25.36 44.18 24.09 44.26 22.82 C 45.38 23.84 44.79 25.62 45.09 26.96 L 45.07 27.97 L 44.10 28.02 C 36.03 28.00 27.97 27.99 19.90 28.02 L 18.93 27.97 L 18.90 26.96 Z" />
</g>
<g id="#6beaf7ff">
<path fill="#6beaf7" opacity="1.00" d=" M 19.73 22.83 C 27.90 23.15 36.09 23.01 44.26 22.82 C 44.18 24.09 44.06 25.36 43.92 26.62 C 36.05 25.36 27.99 26.00 20.10 26.68 C 19.94 25.40 19.82 24.12 19.73 22.83 Z" />
</g>
<g id="#4c4c4ca3">
<path fill="#4c4c4c" opacity="0.64" d=" M 3.04 26.03 L 3.99 25.98 C 3.99 30.33 3.99 34.67 3.98 39.02 L 3.01 38.99 C 3.00 34.67 2.83 30.34 3.04 26.03 Z" />
<path fill="#4c4c4c" opacity="0.64" d=" M 60.02 25.98 L 60.99 26.01 C 61.00 30.33 61.17 34.65 60.96 38.97 L 60.01 39.03 C 60.01 34.68 60.01 30.33 60.02 25.98 Z" />
</g>
<g id="#020202ff">
<path fill="#020202" opacity="1.00" d=" M 18.00 27.02 L 18.90 26.96 L 18.93 27.97 C 18.94 29.64 18.95 31.31 19.04 32.98 L 19.11 33.95 C 27.71 34.08 36.31 34.11 44.91 33.95 L 44.97 32.99 C 45.05 31.32 45.05 29.64 45.07 27.97 L 45.09 26.96 L 46.00 27.02 C 46.06 29.73 46.14 32.44 46.23 35.15 C 36.72 34.95 27.20 34.87 17.70 35.18 C 17.84 32.46 17.94 29.74 18.00 27.02 Z" />
</g>
<g id="#09b4c7ff">
<path fill="#09b4c7" opacity="1.00" d=" M 18.93 27.97 L 19.90 28.02 C 19.95 28.68 20.05 30.01 20.10 30.67 C 28.00 30.00 36.04 29.36 43.91 30.62 C 43.96 29.97 44.05 28.67 44.10 28.02 L 45.07 27.97 C 45.05 29.64 45.05 31.32 44.97 32.99 C 36.33 32.99 27.68 33.03 19.04 32.98 C 18.95 31.31 18.94 29.64 18.93 27.97 Z" />
</g>
<g id="#18c4d7ff">
<path fill="#18c4d7" opacity="1.00" d=" M 19.90 28.02 C 27.97 27.99 36.03 28.00 44.10 28.02 C 44.05 28.67 43.96 29.97 43.91 30.62 C 36.04 29.36 28.00 30.00 20.10 30.67 C 20.05 30.01 19.95 28.68 19.90 28.02 Z" />
</g>
<g id="#006671ff">
<path fill="#006671" opacity="1.00" d=" M 19.04 32.98 C 27.68 33.03 36.33 32.99 44.97 32.99 L 44.91 33.95 C 36.31 34.11 27.71 34.08 19.11 33.95 L 19.04 32.98 Z" />
</g>
<g id="#aeb6b5ff">
<path fill="#aeb6b5" opacity="1.00" d=" M 17.70 35.18 C 27.20 34.87 36.72 34.95 46.23 35.15 L 46.10 36.04 C 43.40 36.01 40.70 36.00 38.00 36.01 C 34.00 35.98 30.00 35.98 26.00 36.01 C 23.31 36.01 20.62 36.02 17.93 36.04 L 17.70 35.18 Z" />
</g>
<g id="#f8cfc7ff">
<path fill="#f8cfc7" opacity="1.00" d=" M 17.93 36.04 C 20.62 36.02 23.31 36.01 26.00 36.01 L 26.00 37.00 C 23.36 37.01 20.72 37.01 18.08 36.99 L 17.93 36.04 Z" />
</g>
<g id="#e5b5b7ff">
<path fill="#e5b5b7" opacity="1.00" d=" M 26.00 36.01 C 30.00 35.98 34.00 35.98 38.00 36.01 L 38.00 37.00 C 34.00 37.02 30.00 37.02 26.00 37.00 L 26.00 36.01 Z" />
</g>
<g id="#f9d1c8ff">
<path fill="#f9d1c8" opacity="1.00" d=" M 38.00 36.01 C 40.70 36.00 43.40 36.01 46.10 36.04 L 45.98 36.99 C 43.32 37.01 40.66 37.01 38.00 37.00 L 38.00 36.01 Z" />
</g>
<g id="#f18882ff">
<path fill="#f18882" opacity="1.00" d=" M 16.01 37.01 C 16.53 37.01 17.56 36.99 18.08 36.99 C 20.72 37.01 23.36 37.01 26.00 37.00 C 30.00 37.02 34.00 37.02 38.00 37.00 C 40.66 37.01 43.32 37.01 45.98 36.99 C 46.49 37.00 47.51 37.01 48.02 37.02 C 48.02 38.63 48.04 40.25 47.84 41.86 C 47.19 41.98 45.88 42.22 45.22 42.35 L 44.08 42.14 C 44.24 40.71 44.48 39.30 44.68 37.88 C 42.25 37.55 39.94 37.84 37.74 38.76 C 33.90 38.91 30.05 38.91 26.21 38.77 C 23.90 38.39 21.59 38.10 19.26 37.92 C 19.52 39.29 19.81 40.65 20.04 42.02 C 19.48 42.07 18.37 42.17 17.81 42.21 C 17.40 42.14 16.59 42.00 16.18 41.92 L 15.88 41.08 C 15.92 39.73 15.97 38.37 16.01 37.01 Z" />
</g>
<g id="#fde6b0ff">
<path fill="#fde6b0" opacity="1.00" d=" M 19.26 37.92 C 21.59 38.10 23.90 38.39 26.21 38.77 C 26.19 39.33 26.16 40.44 26.14 41.00 L 26.10 42.13 C 24.08 42.04 22.06 42.01 20.04 42.02 C 19.81 40.65 19.52 39.29 19.26 37.92 Z" />
<path fill="#fde6b0" opacity="1.00" d=" M 37.74 38.76 C 39.94 37.84 42.25 37.55 44.68 37.88 C 44.48 39.30 44.24 40.71 44.08 42.14 C 42.03 42.04 39.98 42.04 37.93 42.11 L 37.86 41.00 C 37.83 40.44 37.77 39.32 37.74 38.76 Z" />
</g>
<g id="#fc3338ff">
<path fill="#fc3338" opacity="1.00" d=" M 26.21 38.77 C 30.05 38.91 33.90 38.91 37.74 38.76 C 37.77 39.32 37.83 40.44 37.86 41.00 C 33.96 41.00 30.05 41.00 26.14 41.00 C 26.16 40.44 26.19 39.33 26.21 38.77 Z" />
</g>
<g id="#e37275ff">
<path fill="#e37275" opacity="1.00" d=" M 26.14 41.00 C 30.05 41.00 33.96 41.00 37.86 41.00 L 37.93 42.11 L 36.81 42.19 C 33.62 42.10 30.42 41.96 27.23 42.21 L 26.10 42.13 L 26.14 41.00 Z" />
</g>
<g id="#bac0bdff">
<path fill="#bac0bd" opacity="1.00" d=" M 16.18 41.92 C 16.59 42.00 17.40 42.14 17.81 42.21 C 20.90 42.83 24.25 43.63 27.23 42.21 C 30.42 41.96 33.62 42.10 36.81 42.19 C 39.60 42.69 42.49 43.41 45.22 42.35 C 45.88 42.22 47.19 41.98 47.84 41.86 C 47.64 42.44 47.24 43.60 47.04 44.17 L 46.22 44.17 C 36.75 43.93 27.28 43.91 17.82 44.14 L 17.01 44.15 C 16.80 43.59 16.39 42.48 16.18 41.92 Z" />
</g>
<g id="#e0e6ddff">
<path fill="#e0e6dd" opacity="1.00" d=" M 17.81 42.21 C 18.37 42.17 19.48 42.07 20.04 42.02 C 22.06 42.01 24.08 42.04 26.10 42.13 L 27.23 42.21 C 24.25 43.63 20.90 42.83 17.81 42.21 Z" />
</g>
<g id="#e3e7deff">
<path fill="#e3e7de" opacity="1.00" d=" M 36.81 42.19 L 37.93 42.11 C 39.98 42.04 42.03 42.04 44.08 42.14 L 45.22 42.35 C 42.49 43.41 39.60 42.69 36.81 42.19 Z" />
</g>
<g id="#8c8d8cff">
<path fill="#8c8d8c" opacity="1.00" d=" M 17.82 44.14 C 27.28 43.91 36.75 43.93 46.22 44.17 C 45.92 44.40 45.32 44.85 45.03 45.08 C 36.38 45.02 27.73 44.89 19.09 45.08 C 18.77 44.85 18.14 44.38 17.82 44.14 Z" />
</g>
<g id="#565859ff">
<path fill="#565859" opacity="1.00" d=" M 19.09 45.08 C 27.73 44.89 36.38 45.02 45.03 45.08 L 44.93 46.04 C 36.27 46.01 27.61 45.93 18.95 46.05 L 19.09 45.08 Z" />
</g>
<g id="#1e1e1efd">
<path fill="#1e1e1e" opacity="1.00" d=" M 7.83 47.98 C 8.55 42.84 16.83 52.44 18.75 46.97 C 21.01 47.63 22.36 49.06 22.24 51.50 C 20.54 53.20 19.16 55.17 17.74 57.10 C 14.76 54.82 11.89 52.38 9.12 49.84 C 8.80 49.38 8.16 48.45 7.83 47.98 Z" />
</g>
<g id="#808488ff">
<path fill="#808488" opacity="1.00" d=" M 18.95 46.05 C 27.61 45.93 36.27 46.01 44.93 46.04 C 44.88 46.58 44.80 47.65 44.75 48.19 C 42.02 47.25 41.76 49.36 41.74 51.56 C 41.29 53.08 40.95 54.63 40.65 56.19 C 40.06 55.11 39.46 54.04 38.87 52.96 C 39.19 51.32 39.64 49.70 39.96 48.05 C 35.34 47.98 30.73 47.87 26.12 48.02 C 25.62 48.05 24.62 48.10 24.11 48.13 C 24.11 49.63 24.11 52.62 24.10 54.11 C 23.90 54.38 23.49 54.92 23.29 55.19 C 22.98 53.95 22.63 52.72 22.24 51.50 C 22.36 49.06 21.01 47.63 18.75 46.97 L 18.95 46.05 Z" />
</g>
<g id="#1d1d1dfd">
<path fill="#1d1d1d" opacity="1.00" d=" M 44.75 48.19 C 48.76 49.67 52.37 47.67 55.91 46.18 C 55.97 46.63 56.09 47.54 56.15 47.99 C 55.84 48.46 55.21 49.39 54.90 49.86 C 52.07 52.47 49.16 55.00 46.06 57.28 C 44.61 55.38 43.22 53.44 41.74 51.56 C 41.76 49.36 42.02 47.25 44.75 48.19 Z" />
</g>
<g id="#3f3f3fff">
<path fill="#3f3f3f" opacity="1.00" d=" M 24.11 48.13 C 24.62 48.10 25.62 48.05 26.12 48.02 C 25.82 49.68 25.43 51.33 25.04 52.97 C 24.81 53.26 24.34 53.83 24.10 54.11 C 24.11 52.62 24.11 49.63 24.11 48.13 Z" />
</g>
<g id="#222223ff">
<path fill="#222223" opacity="1.00" d=" M 26.12 48.02 C 30.73 47.87 35.34 47.98 39.96 48.05 C 39.64 49.70 39.19 51.32 38.87 52.96 C 34.26 52.98 29.65 52.98 25.04 52.97 C 25.43 51.33 25.82 49.68 26.12 48.02 Z" />
</g>
<g id="#5a5a5a6e">
<path fill="#5a5a5a" opacity="0.43" d=" M 9.12 49.84 C 11.89 52.38 14.76 54.82 17.74 57.10 C 18.95 58.04 20.34 58.76 21.86 59.00 C 28.47 61.03 35.47 61.42 42.05 59.04 C 43.51 58.79 44.87 58.16 46.06 57.28 C 49.16 55.00 52.07 52.47 54.90 49.86 C 52.24 56.73 44.12 60.98 37.02 62.02 C 33.67 62.01 30.33 62.00 26.98 62.02 C 20.01 61.37 13.87 56.71 9.21 51.75 C 9.19 51.27 9.14 50.32 9.12 49.84 Z" />
</g>
<g id="#a5aaadf7">
<path fill="#a5aaad" opacity="0.97" d=" M 17.74 57.10 C 19.16 55.17 20.54 53.20 22.24 51.50 C 22.63 52.72 22.98 53.95 23.29 55.19 C 22.80 56.46 22.30 57.72 21.86 59.00 C 20.34 58.76 18.95 58.04 17.74 57.10 Z" />
</g>
<g id="#a8adaff6">
<path fill="#a8adaf" opacity="0.96" d=" M 40.65 56.19 C 40.95 54.63 41.29 53.08 41.74 51.56 C 43.22 53.44 44.61 55.38 46.06 57.28 C 44.87 58.16 43.51 58.79 42.05 59.04 C 41.57 58.10 41.11 57.15 40.65 56.19 Z" />
</g>
<g id="#0f0f0ffd">
<path fill="#0f0f0f" opacity="1.00" d=" M 25.04 52.97 C 29.65 52.98 34.26 52.98 38.87 52.96 C 39.46 54.04 40.06 55.11 40.65 56.19 C 41.11 57.15 41.57 58.10 42.05 59.04 C 35.47 61.42 28.47 61.03 21.86 59.00 C 22.30 57.72 22.80 56.46 23.29 55.19 C 23.49 54.92 23.90 54.38 24.10 54.11 C 24.34 53.83 24.81 53.26 25.04 52.97 Z" />
</g>
<g id="#2d2d2d2d">
<path fill="#2d2d2d" opacity="0.18" d=" M 26.98 62.02 C 30.33 62.00 33.67 62.01 37.02 62.02 L 36.99 63.00 C 34.49 62.75 29.48 62.26 26.98 62.02 Z" />
</g>
</svg>
