<?xml version="1.0" encoding="UTF-8" ?>
<!DOCTYPE svg PUBLIC "-//W3C//DTD SVG 1.1//EN" "http://www.w3.org/Graphics/SVG/1.1/DTD/svg11.dtd">
<svg width="64pt" height="64pt" viewBox="0 0 64 64" version="1.1" xmlns="http://www.w3.org/2000/svg">
<g id="#764f40fc">
<path fill="#764f40" opacity="1.00" d=" M 9.04 12.03 C 10.13 5.33 18.13 8.49 22.81 8.10 C 26.27 14.53 20.15 20.55 19.93 26.93 C 25.60 27.20 31.29 27.04 36.96 26.96 C 37.33 21.64 36.53 16.36 36.06 11.07 C 45.37 10.81 54.69 11.08 64.00 10.99 L 64.00 13.57 C 59.77 22.53 62.80 33.17 62.16 42.72 C 62.62 42.87 63.54 43.17 64.00 43.32 L 64.00 44.92 C 62.70 44.96 61.40 45.03 60.10 45.14 C 59.99 48.33 61.70 51.86 59.73 54.73 C 57.32 57.52 52.33 58.14 49.72 55.28 C 47.29 52.23 44.53 56.27 41.94 56.97 C 36.34 59.38 34.81 50.71 29.04 54.00 C 25.34 51.99 24.38 55.00 22.67 56.72 C 15.31 55.37 8.23 58.58 0.87 57.97 C 0.08 53.64 7.77 49.59 4.19 46.00 C 7.34 43.92 4.99 40.90 3.46 38.60 C 1.80 35.83 4.91 33.30 5.99 31.01 C 7.23 27.65 11.09 27.73 13.90 26.70 C 12.91 21.62 10.49 16.96 9.04 12.03 Z" />
</g>
</svg>
