<?xml version="1.0" encoding="UTF-8" ?>
<!DOCTYPE svg PUBLIC "-//W3C//DTD SVG 1.1//EN" "http://www.w3.org/Graphics/SVG/1.1/DTD/svg11.dtd">
<svg width="64pt" height="64pt" viewBox="0 0 64 64" version="1.1" xmlns="http://www.w3.org/2000/svg">
<g id="#bcbcbbff">
<path fill="#bcbcbb" opacity="1.00" d=" M 21.79 6.23 C 22.46 5.50 23.17 4.79 23.88 4.08 C 25.31 4.12 26.74 4.14 28.17 4.15 C 28.05 5.50 27.91 6.85 27.76 8.19 L 27.38 8.18 C 27.04 7.68 26.36 6.69 26.02 6.19 C 24.96 6.20 22.85 6.22 21.79 6.23 Z" />
<path fill="#bcbcbb" opacity="1.00" d=" M 15.58 12.78 C 18.35 9.04 23.70 10.76 27.63 9.55 C 29.57 10.16 31.62 10.28 33.64 10.22 C 40.77 10.03 47.90 10.12 55.03 10.14 C 56.90 10.16 59.50 10.34 60.14 12.51 C 61.47 17.51 62.40 22.62 63.22 27.73 C 62.52 27.90 61.82 28.05 61.12 28.19 C 61.11 30.52 61.13 32.86 61.18 35.19 C 42.59 35.10 24.00 35.17 5.40 35.14 C 5.21 33.62 4.99 32.10 4.72 30.59 C 4.12 33.07 3.65 35.57 2.95 38.02 C 2.71 36.57 2.49 35.12 2.29 33.66 C 2.82 31.03 3.47 28.33 5.09 26.12 C 8.27 21.55 11.64 17.09 15.41 12.98 C 14.51 15.30 13.38 17.51 12.07 19.62 L 13.88 19.44 C 11.31 23.03 8.49 26.44 5.92 30.04 C 12.17 30.03 18.42 30.11 24.66 29.98 C 24.81 29.04 24.96 28.10 25.11 27.16 C 25.82 25.70 26.49 24.22 27.06 22.70 C 29.13 22.67 31.20 22.67 33.27 22.65 C 33.34 24.42 33.40 26.19 33.56 27.96 C 33.87 28.27 34.50 28.89 34.82 29.20 C 35.13 29.49 35.76 30.08 36.07 30.37 C 41.39 30.69 46.73 30.53 52.05 30.54 C 53.65 30.66 55.05 29.88 56.41 29.17 C 56.51 27.70 56.62 26.23 56.74 24.76 C 58.06 24.66 59.39 24.56 60.72 24.46 C 60.39 20.39 60.24 16.15 58.61 12.35 C 57.54 10.85 55.59 11.04 53.98 10.99 C 44.30 11.02 34.63 10.99 24.95 11.00 C 21.73 10.93 18.64 11.90 15.58 12.78 Z" />
<path fill="#bcbcbb" opacity="1.00" d=" M 1.44 41.87 C 21.91 41.34 42.42 41.72 62.91 41.68 C 62.84 45.30 62.81 48.91 62.74 52.53 C 61.21 53.06 59.63 53.43 58.02 53.58 C 57.15 51.73 55.98 50.07 54.70 48.50 C 56.06 48.53 57.42 48.49 58.78 48.44 C 56.81 46.84 54.80 44.82 52.07 44.85 C 48.60 44.48 44.07 46.14 43.44 49.99 C 43.79 50.31 44.49 50.95 44.84 51.27 L 45.81 52.70 C 42.90 53.25 39.95 53.58 36.99 53.46 C 30.81 53.28 24.60 53.86 18.47 52.86 C 19.31 50.53 16.10 49.30 14.94 47.73 C 15.83 47.49 17.61 47.00 18.51 46.75 C 14.24 43.33 7.23 44.48 4.79 49.54 C 5.59 49.59 7.20 49.69 8.00 49.74 C 7.34 51.03 6.67 52.31 6.01 53.60 C 4.38 53.42 2.77 53.05 1.22 52.50 C 1.28 48.96 1.46 45.42 1.44 41.87 Z" />
</g>
<g id="#64bee1ff">
<path fill="#64bee1" opacity="1.00" d=" M 28.17 4.15 C 29.50 4.14 30.83 4.10 32.16 4.05 C 34.13 5.56 33.72 8.04 33.64 10.22 C 31.62 10.28 29.57 10.16 27.63 9.55 C 27.66 9.21 27.73 8.53 27.76 8.19 C 27.91 6.85 28.05 5.50 28.17 4.15 Z" />
<path fill="#64bee1" opacity="1.00" d=" M 17.34 14.90 C 19.89 14.80 22.44 14.76 25.00 14.77 C 24.99 18.90 24.99 23.03 25.11 27.16 C 24.96 28.10 24.81 29.04 24.66 29.98 C 18.42 30.11 12.17 30.03 5.92 30.04 C 8.49 26.44 11.31 23.03 13.88 19.44 C 15.05 17.94 16.20 16.43 17.34 14.90 Z" />
</g>
<g id="#c5220bff">
<path fill="#c5220b" opacity="1.00" d=" M 21.79 6.23 C 22.85 6.22 24.96 6.20 26.02 6.19 C 26.36 6.69 27.04 7.68 27.38 8.18 C 25.56 9.53 23.42 10.12 21.15 9.98 C 21.31 9.05 21.63 7.17 21.79 6.23 Z" />
<path fill="#c5220b" opacity="1.00" d=" M 63.22 27.73 L 64.00 26.72 L 64.00 51.81 C 62.71 54.88 59.14 54.20 56.49 54.47 C 56.55 55.27 56.65 56.86 56.70 57.66 C 55.54 58.59 54.44 59.62 53.09 60.28 C 50.92 61.08 48.79 59.89 46.78 59.19 C 45.91 57.64 45.22 55.99 45.48 54.15 C 36.52 53.58 27.47 53.58 18.51 54.15 C 19.36 57.58 16.28 60.50 13.01 60.54 C 10.71 60.79 9.03 58.97 7.33 57.74 C 7.37 56.92 7.47 55.28 7.51 54.46 C 4.87 54.27 1.69 54.74 0.00 52.16 L 0.00 44.49 L 0.94 48.26 C 1.15 43.38 1.11 38.43 2.29 33.66 C 2.49 35.12 2.71 36.57 2.95 38.02 C 3.65 35.57 4.12 33.07 4.72 30.59 C 4.99 32.10 5.21 33.62 5.40 35.14 C 24.00 35.17 42.59 35.10 61.18 35.19 C 61.13 32.86 61.11 30.52 61.12 28.19 C 61.82 28.05 62.52 27.90 63.22 27.73 M 1.44 41.87 C 1.46 45.42 1.28 48.96 1.22 52.50 C 2.77 53.05 4.38 53.42 6.01 53.60 C 6.67 52.31 7.34 51.03 8.00 49.74 C 9.96 48.03 12.43 47.67 14.94 47.73 C 16.10 49.30 19.31 50.53 18.47 52.86 C 24.60 53.86 30.81 53.28 36.99 53.46 C 39.95 53.58 42.90 53.25 45.81 52.70 L 44.84 51.27 C 47.31 48.38 51.05 46.81 54.70 48.50 C 55.98 50.07 57.15 51.73 58.02 53.58 C 59.63 53.43 61.21 53.06 62.74 52.53 C 62.81 48.91 62.84 45.30 62.91 41.68 C 42.42 41.72 21.91 41.34 1.44 41.87 Z" />
</g>
<g id="#e3e3e3ff">
<path fill="#e3e3e3" opacity="1.00" d=" M 15.58 12.78 C 18.64 11.90 21.73 10.93 24.95 11.00 C 34.63 10.99 44.30 11.02 53.98 10.99 C 55.59 11.04 57.54 10.85 58.61 12.35 C 60.24 16.15 60.39 20.39 60.72 24.46 C 59.39 24.56 58.06 24.66 56.74 24.76 C 56.62 26.23 56.51 27.70 56.41 29.17 C 55.05 29.88 53.65 30.66 52.05 30.54 C 46.73 30.53 41.39 30.69 36.07 30.37 C 35.76 30.08 35.13 29.49 34.82 29.20 C 41.32 28.51 47.88 28.97 54.40 28.93 C 54.43 26.76 54.45 24.60 54.48 22.43 C 48.03 22.30 41.58 22.41 35.14 22.35 C 35.17 24.64 35.08 26.93 34.82 29.20 C 34.50 28.89 33.87 28.27 33.56 27.96 C 33.40 26.19 33.34 24.42 33.27 22.65 C 31.20 22.67 29.13 22.67 27.06 22.70 C 26.49 24.22 25.82 25.70 25.11 27.16 C 24.99 23.03 24.99 18.90 25.00 14.77 C 22.44 14.76 19.89 14.80 17.34 14.90 C 16.20 16.43 15.05 17.94 13.88 19.44 L 12.07 19.62 C 13.38 17.51 14.51 15.30 15.41 12.98 L 15.58 12.78 Z" />
<path fill="#e3e3e3" opacity="1.00" d=" M 4.79 49.54 C 7.23 44.48 14.24 43.33 18.51 46.75 C 17.61 47.00 15.83 47.49 14.94 47.73 C 12.43 47.67 9.96 48.03 8.00 49.74 C 7.20 49.69 5.59 49.59 4.79 49.54 Z" />
<path fill="#e3e3e3" opacity="1.00" d=" M 43.44 49.99 C 44.07 46.14 48.60 44.48 52.07 44.85 C 54.80 44.82 56.81 46.84 58.78 48.44 C 57.42 48.49 56.06 48.53 54.70 48.50 C 51.05 46.81 47.31 48.38 44.84 51.27 C 44.49 50.95 43.79 50.31 43.44 49.99 Z" />
</g>
<g id="#df2303ff">
<path fill="#df2303" opacity="1.00" d=" M 35.14 22.35 C 41.58 22.41 48.03 22.30 54.48 22.43 C 54.45 24.60 54.43 26.76 54.40 28.93 C 47.88 28.97 41.32 28.51 34.82 29.20 C 35.08 26.93 35.17 24.64 35.14 22.35 Z" />
</g>
<g id="#0101014c">
<path fill="#010101" opacity="0.30" d=" M 20.76 57.83 C 28.31 55.75 36.45 56.23 44.06 57.78 C 44.05 60.26 40.72 59.70 39.05 60.27 C 33.33 60.39 27.29 61.25 21.76 59.44 C 21.51 59.04 21.01 58.23 20.76 57.83 Z" />
</g>
</svg>
