<?xml version="1.0" encoding="UTF-8" ?>
<!DOCTYPE svg PUBLIC "-//W3C//DTD SVG 1.1//EN" "http://www.w3.org/Graphics/SVG/1.1/DTD/svg11.dtd">
<svg width="64pt" height="64pt" viewBox="0 0 64 64" version="1.1" xmlns="http://www.w3.org/2000/svg">
<g id="#21201ad1">
<path fill="#21201a" opacity="0.82" d=" M 22.98 2.03 C 29.31 2.02 35.64 1.84 41.96 2.05 L 42.04 2.98 C 36.03 3.02 30.01 2.97 24.00 3.00 L 23.05 2.99 L 22.98 2.03 Z" />
</g>
<g id="#78651bec">
<path fill="#78651b" opacity="0.93" d=" M 18.98 10.07 C 21.94 8.62 19.65 3.50 23.05 2.99 L 24.00 3.00 L 23.96 3.94 C 21.37 4.97 22.12 7.86 22.08 10.07 C 21.31 10.07 19.76 10.07 18.98 10.07 Z" />
</g>
<g id="#585856ff">
<path fill="#585856" opacity="1.00" d=" M 24.00 3.00 C 30.01 2.97 36.03 3.02 42.04 2.98 C 42.26 3.19 42.69 3.60 42.90 3.81 C 40.75 3.64 41.07 5.64 40.95 7.15 C 36.51 8.20 39.16 0.58 33.24 3.91 C 34.74 7.61 31.98 4.83 30.26 3.90 C 30.16 4.69 29.96 6.27 29.86 7.06 C 28.44 6.16 29.38 3.10 26.87 4.53 C 26.16 4.67 24.73 4.97 24.02 5.12 L 23.96 3.94 L 24.00 3.00 Z" />
</g>
<g id="#b8a12dfe">
<path fill="#b8a12d" opacity="1.00" d=" M 22.08 10.07 C 22.12 7.86 21.37 4.97 23.96 3.94 L 24.02 5.12 C 24.04 5.56 24.06 6.45 24.07 6.89 L 24.12 7.92 L 24.17 8.92 C 29.72 9.04 35.27 9.21 40.82 8.94 L 40.89 8.06 L 40.95 7.15 C 41.07 5.64 40.75 3.64 42.90 3.81 L 43.96 3.88 C 43.92 5.45 43.84 8.60 43.80 10.17 C 36.56 9.94 29.32 9.96 22.08 10.07 Z" />
</g>
<g id="#989a9bff">
<path fill="#989a9b" opacity="1.00" d=" M 26.87 4.53 C 29.38 3.10 28.44 6.16 29.86 7.06 C 29.96 6.27 30.16 4.69 30.26 3.90 C 31.98 4.83 34.74 7.61 33.24 3.91 C 39.16 0.58 36.51 8.20 40.95 7.15 L 40.89 8.06 C 35.29 7.87 29.71 7.38 24.12 7.92 L 24.07 6.89 C 25.57 7.64 29.09 6.20 26.87 4.53 Z" />
</g>
<g id="#3e3d3dff">
<path fill="#3e3d3d" opacity="1.00" d=" M 24.02 5.12 C 24.73 4.97 26.16 4.67 26.87 4.53 C 29.09 6.20 25.57 7.64 24.07 6.89 C 24.06 6.45 24.04 5.56 24.02 5.12 Z" />
</g>
<g id="#5f5f53ff">
<path fill="#5f5f53" opacity="1.00" d=" M 24.12 7.92 C 29.71 7.38 35.29 7.87 40.89 8.06 L 40.82 8.94 C 35.27 9.21 29.72 9.04 24.17 8.92 L 24.12 7.92 Z" />
</g>
<g id="#696231f3">
<path fill="#696231" opacity="0.95" d=" M 13.25 11.26 C 14.08 9.22 16.53 10.26 18.20 10.17 C 15.97 11.05 13.20 12.07 12.79 14.80 C 13.42 14.67 14.68 14.43 15.31 14.31 L 14.97 15.06 C 14.27 16.00 13.52 16.91 12.85 17.87 C 12.28 18.76 11.89 19.72 11.66 20.76 C 11.27 22.14 10.49 24.89 10.09 26.26 C 9.92 25.65 9.57 24.42 9.39 23.80 C 8.25 19.44 11.91 15.20 13.25 11.26 Z" />
</g>
<g id="#beb664ff">
<path fill="#beb664" opacity="1.00" d=" M 18.20 10.17 L 18.98 10.07 C 19.76 10.07 21.31 10.07 22.08 10.07 C 20.68 10.81 18.81 11.24 19.08 13.25 C 17.84 13.67 16.57 13.99 15.31 14.31 C 14.68 14.43 13.42 14.67 12.79 14.80 C 13.20 12.07 15.97 11.05 18.20 10.17 Z" />
</g>
<g id="#f5f29dff">
<path fill="#f5f29d" opacity="1.00" d=" M 22.08 10.07 C 29.32 9.96 36.56 9.94 43.80 10.17 C 44.34 10.35 45.41 10.71 45.95 10.89 L 46.34 11.61 C 44.76 11.86 41.62 12.37 40.05 12.62 L 39.28 12.62 C 34.48 12.39 29.40 11.04 24.73 12.74 C 22.85 12.93 20.96 13.06 19.08 13.25 C 18.81 11.24 20.68 10.81 22.08 10.07 Z" />
</g>
<g id="#8d843ffc">
<path fill="#8d843f" opacity="1.00" d=" M 43.80 10.17 C 47.30 9.00 52.10 11.18 51.85 15.16 L 51.80 16.21 C 51.20 15.47 50.61 14.73 50.03 13.99 C 49.04 12.54 47.79 11.12 45.95 10.89 C 45.41 10.71 44.34 10.35 43.80 10.17 Z" />
</g>
<g id="#bfb972ff">
<path fill="#bfb972" opacity="1.00" d=" M 45.95 10.89 C 47.79 11.12 49.04 12.54 50.03 13.99 C 49.49 14.01 48.40 14.06 47.86 14.08 C 46.52 13.94 45.17 13.79 43.85 13.50 C 44.81 13.34 47.66 13.24 46.34 11.61 L 45.95 10.89 Z" />
</g>
<g id="#d0ca8aff">
<path fill="#d0ca8a" opacity="1.00" d=" M 24.73 12.74 C 29.40 11.04 34.48 12.39 39.28 12.62 C 34.44 12.87 29.58 13.08 24.73 12.74 Z" />
</g>
<g id="#eee270ff">
<path fill="#eee270" opacity="1.00" d=" M 40.05 12.62 C 41.62 12.37 44.76 11.86 46.34 11.61 C 47.66 13.24 44.81 13.34 43.85 13.50 C 42.58 13.24 41.31 12.95 40.05 12.62 Z" />
</g>
<g id="#869ea9ff">
<path fill="#869ea9" opacity="1.00" d=" M 19.08 13.25 C 20.96 13.06 22.85 12.93 24.73 12.74 C 29.58 13.08 34.44 12.87 39.28 12.62 L 40.05 12.62 C 41.31 12.95 42.58 13.24 43.85 13.50 C 45.17 13.79 46.52 13.94 47.86 14.08 L 48.26 14.90 C 37.17 14.32 25.99 13.07 14.97 15.06 L 15.31 14.31 C 16.57 13.99 17.84 13.67 19.08 13.25 Z" />
</g>
<g id="#c2edf7ff">
<path fill="#c2edf7" opacity="1.00" d=" M 14.97 15.06 C 25.99 13.07 37.17 14.32 48.26 14.90 C 49.80 16.17 51.35 17.60 51.31 19.78 C 51.25 20.33 51.14 21.44 51.09 21.99 C 50.37 21.94 48.93 21.83 48.21 21.78 C 36.88 19.55 25.13 19.16 13.77 21.34 L 12.88 21.09 C 12.87 20.29 12.86 18.68 12.85 17.87 C 13.52 16.91 14.27 16.00 14.97 15.06 Z" />
</g>
<g id="#5a7284ff">
<path fill="#5a7284" opacity="1.00" d=" M 47.86 14.08 C 48.40 14.06 49.49 14.01 50.03 13.99 C 50.61 14.73 51.20 15.47 51.80 16.21 C 52.33 18.40 52.94 20.57 53.39 22.78 C 53.55 24.52 53.11 25.52 52.09 25.77 C 51.89 24.27 51.50 21.28 51.31 19.78 C 51.35 17.60 49.80 16.17 48.26 14.90 L 47.86 14.08 Z" />
</g>
<g id="#796a15f9">
<path fill="#796a15" opacity="0.98" d=" M 51.85 15.16 C 54.63 16.39 54.36 21.62 55.85 24.45 C 55.91 24.82 56.03 25.55 56.09 25.92 C 56.01 27.32 55.93 28.72 55.86 30.11 C 55.68 29.78 55.33 29.13 55.16 28.80 C 54.93 28.31 54.47 27.33 54.24 26.84 C 53.97 25.48 53.72 24.12 53.39 22.78 C 52.94 20.57 52.33 18.40 51.80 16.21 L 51.85 15.16 Z" />
</g>
<g id="#6191a8ff">
<path fill="#6191a8" opacity="1.00" d=" M 11.66 20.76 C 11.89 19.72 12.28 18.76 12.85 17.87 C 12.86 18.68 12.87 20.29 12.88 21.09 C 12.90 21.59 12.95 22.58 12.97 23.07 C 13.27 24.18 13.65 25.26 14.11 26.31 C 11.05 26.38 12.21 22.74 11.66 20.76 Z" />
</g>
<g id="#98e1f8ff">
<path fill="#98e1f8" opacity="1.00" d=" M 13.77 21.34 C 25.13 19.16 36.88 19.55 48.21 21.78 C 36.78 21.46 25.06 23.20 13.77 21.34 Z" />
</g>
<g id="#7bb2c8ff">
<path fill="#7bb2c8" opacity="1.00" d=" M 51.31 19.78 C 51.50 21.28 51.89 24.27 52.09 25.77 C 49.08 25.45 46.09 24.98 43.06 24.96 C 41.70 24.94 40.34 24.94 38.97 24.97 L 39.01 23.97 C 40.81 23.93 44.42 23.83 46.22 23.78 C 48.08 23.63 51.75 25.21 51.09 21.99 C 51.14 21.44 51.25 20.33 51.31 19.78 Z" />
</g>
<g id="#375566ff">
<path fill="#375566" opacity="1.00" d=" M 10.09 26.26 C 10.49 24.89 11.27 22.14 11.66 20.76 C 12.21 22.74 11.05 26.38 14.11 26.31 C 12.86 26.74 11.55 26.93 10.24 27.13 L 10.09 26.26 Z" />
</g>
<g id="#85d7f3ff">
<path fill="#85d7f3" opacity="1.00" d=" M 12.88 21.09 L 13.77 21.34 C 25.06 23.20 36.78 21.46 48.21 21.78 C 48.93 21.83 50.37 21.94 51.09 21.99 C 51.75 25.21 48.08 23.63 46.22 23.78 C 35.92 22.66 25.37 22.31 15.11 23.87 C 14.58 23.67 13.50 23.27 12.97 23.07 C 12.95 22.58 12.90 21.59 12.88 21.09 Z" />
</g>
<g id="#72c2dfff">
<path fill="#72c2df" opacity="1.00" d=" M 12.97 23.07 C 13.50 23.27 14.58 23.67 15.11 23.87 C 25.37 22.31 35.92 22.66 46.22 23.78 C 44.42 23.83 40.81 23.93 39.01 23.97 C 33.59 24.06 28.11 23.69 22.76 24.86 L 21.90 24.98 C 18.95 23.82 16.64 24.18 14.95 26.05 L 14.11 26.31 C 13.65 25.26 13.27 24.18 12.97 23.07 Z" />
</g>
<g id="#435662ff">
<path fill="#435662" opacity="1.00" d=" M 53.39 22.78 C 53.72 24.12 53.97 25.48 54.24 26.84 C 50.42 26.97 46.66 26.46 42.92 25.85 L 43.06 24.96 C 46.09 24.98 49.08 25.45 52.09 25.77 C 53.11 25.52 53.55 24.52 53.39 22.78 Z" />
</g>
<g id="#494739f5">
<path fill="#494739" opacity="0.96" d=" M 3.88 25.80 C 4.80 23.50 7.38 23.99 9.39 23.80 C 9.15 24.89 8.84 25.96 8.44 26.99 C 7.06 26.16 5.44 26.02 3.88 25.80 Z" />
</g>
<g id="#b6981dff">
<path fill="#b6981d" opacity="1.00" d=" M 9.39 23.80 C 9.57 24.42 9.92 25.65 10.09 26.26 L 10.24 27.13 C 10.72 27.41 11.67 27.98 12.15 28.27 C 7.93 28.68 7.38 32.65 7.41 36.13 C 7.34 37.47 6.76 39.00 7.76 40.14 C 8.04 40.59 8.61 41.47 8.89 41.91 C 7.45 42.39 9.17 43.94 9.23 44.84 C 12.49 45.02 15.76 45.05 19.02 44.86 L 19.73 44.86 C 21.30 45.37 24.39 44.10 24.94 46.02 C 19.85 46.41 14.38 44.90 9.50 46.89 C 6.88 46.88 8.91 48.21 9.89 49.12 C 10.74 50.95 11.01 53.61 13.69 52.83 L 14.75 52.91 L 15.06 53.97 C 14.27 54.01 12.68 54.09 11.89 54.12 C 8.91 54.55 9.16 50.61 6.34 50.20 C 6.69 45.05 6.04 39.91 5.73 34.77 C 5.81 34.06 5.98 32.64 6.06 31.94 L 6.39 31.17 C 7.11 29.80 7.85 28.43 8.44 26.99 C 8.84 25.96 9.15 24.89 9.39 23.80 Z" />
</g>
<g id="#5f91a7ff">
<path fill="#5f91a7" opacity="1.00" d=" M 22.76 24.86 C 28.11 23.69 33.59 24.06 39.01 23.97 L 38.97 24.97 C 38.28 25.04 36.91 25.18 36.22 25.25 C 31.73 25.13 27.25 24.93 22.76 24.86 Z" />
</g>
<g id="#424244f0">
<path fill="#424244" opacity="0.94" d=" M 55.85 24.45 C 57.05 23.17 60.23 24.03 59.79 25.96 C 58.55 26.03 57.32 26.02 56.09 25.92 C 56.03 25.55 55.91 24.82 55.85 24.45 Z" />
</g>
<g id="#718492ff">
<path fill="#718492" opacity="1.00" d=" M 14.95 26.05 C 16.64 24.18 18.95 23.82 21.90 24.98 L 21.92 25.78 C 20.18 25.85 16.69 25.99 14.95 26.05 Z" />
</g>
<g id="#334a55ff">
<path fill="#334a55" opacity="1.00" d=" M 21.90 24.98 L 22.76 24.86 C 27.25 24.93 31.73 25.13 36.22 25.25 C 32.49 25.75 28.75 26.01 24.99 26.04 C 24.22 25.97 22.69 25.85 21.92 25.78 L 21.90 24.98 Z" />
</g>
<g id="#686758ff">
<path fill="#686758" opacity="1.00" d=" M 36.22 25.25 C 36.91 25.18 38.28 25.04 38.97 24.97 C 40.34 24.94 41.70 24.94 43.06 24.96 L 42.92 25.85 C 41.87 26.13 40.83 26.43 39.80 26.75 C 34.87 26.96 29.95 27.03 25.02 26.99 L 24.99 26.04 C 28.75 26.01 32.49 25.75 36.22 25.25 Z" />
</g>
<g id="#25241eee">
<path fill="#25241e" opacity="0.93" d=" M 3.88 25.80 C 5.44 26.02 7.06 26.16 8.44 26.99 C 7.85 28.43 7.11 29.80 6.39 31.17 C 4.83 29.74 3.56 28.04 3.88 25.80 Z" />
</g>
<g id="#4c4719ff">
<path fill="#4c4719" opacity="1.00" d=" M 14.11 26.31 L 14.95 26.05 C 16.69 25.99 20.18 25.85 21.92 25.78 C 22.69 25.85 24.22 25.97 24.99 26.04 L 25.02 26.99 C 20.69 27.04 16.40 27.50 12.15 28.27 C 11.67 27.98 10.72 27.41 10.24 27.13 C 11.55 26.93 12.86 26.74 14.11 26.31 Z" />
</g>
<g id="#585017ff">
<path fill="#585017" opacity="1.00" d=" M 39.80 26.75 C 40.83 26.43 41.87 26.13 42.92 25.85 C 46.66 26.46 50.42 26.97 54.24 26.84 C 54.47 27.33 54.93 28.31 55.16 28.80 C 50.04 28.10 44.91 27.54 39.80 26.75 Z" />
</g>
<g id="#342f1dfc">
<path fill="#342f1d" opacity="1.00" d=" M 56.09 25.92 C 57.32 26.02 58.55 26.03 59.79 25.96 C 60.96 28.43 58.37 29.02 57.76 30.95 C 57.28 30.74 56.33 30.32 55.86 30.11 C 55.93 28.72 56.01 27.32 56.09 25.92 Z" />
</g>
<g id="#e4cd2bff">
<path fill="#e4cd2b" opacity="1.00" d=" M 12.15 28.27 C 16.40 27.50 20.69 27.04 25.02 26.99 C 25.01 27.74 24.99 29.23 24.98 29.97 C 19.98 30.52 13.65 28.27 9.82 32.60 C 8.12 33.63 10.30 34.34 11.14 34.80 C 9.88 35.20 8.64 35.65 7.41 36.13 C 7.38 32.65 7.93 28.68 12.15 28.27 Z" />
</g>
<g id="#f4f3bfff">
<path fill="#f4f3bf" opacity="1.00" d=" M 25.02 26.99 C 29.95 27.03 34.87 26.96 39.80 26.75 C 39.86 27.56 39.99 29.16 40.05 29.97 L 40.04 30.99 C 39.65 32.58 39.21 34.15 38.85 35.75 C 38.37 35.69 37.41 35.57 36.92 35.51 C 37.16 35.12 37.62 34.33 37.85 33.93 L 38.23 33.05 C 36.20 34.57 24.37 29.86 27.82 35.27 C 26.89 35.53 25.95 35.75 25.00 35.92 C 25.00 35.45 24.99 34.49 24.98 34.01 C 24.98 33.25 24.98 31.74 24.98 30.98 L 24.98 29.97 C 24.99 29.23 25.01 27.74 25.02 26.99 Z" />
</g>
<g id="#e3cc2bff">
<path fill="#e3cc2b" opacity="1.00" d=" M 39.80 26.75 C 44.91 27.54 50.04 28.10 55.16 28.80 C 55.33 29.13 55.68 29.78 55.86 30.11 C 56.09 31.80 57.11 33.58 56.23 35.23 C 55.69 35.19 54.61 35.12 54.07 35.08 C 54.32 34.51 54.81 33.36 55.06 32.79 C 51.25 29.39 44.78 30.67 40.05 29.97 C 39.99 29.16 39.86 27.56 39.80 26.75 Z" />
</g>
<g id="#ecde70ff">
<path fill="#ecde70" opacity="1.00" d=" M 9.82 32.60 C 13.65 28.27 19.98 30.52 24.98 29.97 L 24.98 30.98 C 22.20 30.99 16.66 31.01 13.88 31.02 C 14.67 32.15 15.53 33.23 16.36 34.33 C 16.05 34.39 15.44 34.52 15.13 34.58 C 13.74 33.11 11.71 32.90 9.82 32.60 Z" />
</g>
<g id="#eddf6eff">
<path fill="#eddf6e" opacity="1.00" d=" M 40.05 29.97 C 44.78 30.67 51.25 29.39 55.06 32.79 C 52.94 32.00 47.33 35.13 52.10 35.16 C 51.76 35.44 51.08 36.01 50.74 36.30 C 49.79 35.87 49.14 35.16 48.79 34.17 C 49.30 33.17 49.76 32.14 50.16 31.09 C 46.78 31.00 43.42 30.97 40.04 30.99 L 40.05 29.97 Z" />
</g>
<g id="#b7971eff">
<path fill="#b7971e" opacity="1.00" d=" M 55.86 30.11 C 56.33 30.32 57.28 30.74 57.76 30.95 C 58.46 35.20 59.12 39.49 58.91 43.80 C 58.26 48.25 56.70 56.32 50.03 54.03 L 48.98 54.00 L 49.18 52.90 L 50.24 52.85 C 53.94 54.13 54.63 50.93 55.06 48.01 C 54.84 47.70 54.41 47.07 54.20 46.76 C 49.89 45.29 44.74 46.16 40.06 46.02 C 40.64 44.10 43.72 45.37 45.30 44.87 L 46.00 44.87 C 49.38 44.56 54.99 46.78 56.06 42.14 C 56.36 41.64 56.96 40.65 57.25 40.16 C 58.90 38.49 57.16 36.70 56.23 35.23 C 57.11 33.58 56.09 31.80 55.86 30.11 Z" />
</g>
<g id="#f8f09cff">
<path fill="#f8f09c" opacity="1.00" d=" M 13.88 31.02 C 16.66 31.01 22.20 30.99 24.98 30.98 C 24.98 31.74 24.98 33.25 24.98 34.01 C 22.11 34.18 19.24 34.52 16.36 34.33 C 15.53 33.23 14.67 32.15 13.88 31.02 Z" />
</g>
<g id="#f6ef9bff">
<path fill="#f6ef9b" opacity="1.00" d=" M 40.04 30.99 C 43.42 30.97 46.78 31.00 50.16 31.09 C 49.76 32.14 49.30 33.17 48.79 34.17 C 45.96 36.14 40.49 31.88 39.79 35.86 L 38.85 35.75 C 39.21 34.15 39.65 32.58 40.04 30.99 Z" />
</g>
<g id="#5e5209fa">
<path fill="#5e5209" opacity="0.98" d=" M 57.76 30.95 C 59.76 31.34 59.97 34.26 60.02 35.98 C 60.00 42.01 60.00 48.04 60.02 54.08 L 59.19 54.25 C 59.08 50.76 58.96 47.29 58.91 43.80 C 59.12 39.49 58.46 35.20 57.76 30.95 Z" />
</g>
<g id="#524805f7">
<path fill="#524805" opacity="0.97" d=" M 3.97 39.00 C 4.01 36.65 3.64 33.15 6.06 31.94 C 5.98 32.64 5.81 34.06 5.73 34.77 C 4.72 41.19 5.05 47.70 4.94 54.18 L 3.98 54.05 C 3.98 49.03 4.06 44.02 3.97 39.00 Z" />
</g>
<g id="#f8f3aaff">
<path fill="#f8f3aa" opacity="1.00" d=" M 11.14 34.80 C 10.30 34.34 8.12 33.63 9.82 32.60 C 11.71 32.90 13.74 33.11 15.13 34.58 C 14.61 34.69 13.57 34.90 13.05 35.00 C 12.57 34.95 11.62 34.85 11.14 34.80 Z" />
</g>
<g id="#c7c6a3ff">
<path fill="#c7c6a3" opacity="1.00" d=" M 27.82 35.27 C 24.37 29.86 36.20 34.57 38.23 33.05 L 37.85 33.93 C 34.71 34.72 30.35 32.61 27.82 35.27 Z" />
</g>
<g id="#faf7beff">
<path fill="#faf7be" opacity="1.00" d=" M 52.10 35.16 C 47.33 35.13 52.94 32.00 55.06 32.79 C 54.81 33.36 54.32 34.51 54.07 35.08 C 53.58 35.10 52.59 35.14 52.10 35.16 Z" />
</g>
<g id="#e0c82bff">
<path fill="#e0c82b" opacity="1.00" d=" M 16.36 34.33 C 19.24 34.52 22.11 34.18 24.98 34.01 C 24.99 34.49 25.00 35.45 25.00 35.92 C 23.90 36.12 22.81 36.41 21.75 36.78 C 21.23 37.07 20.19 37.64 19.67 37.93 C 18.70 40.10 18.48 42.41 19.02 44.86 C 15.76 45.05 12.49 45.02 9.23 44.84 C 9.17 43.94 7.45 42.39 8.89 41.91 C 11.27 42.24 13.74 42.08 14.42 39.37 C 15.12 37.91 13.46 36.41 13.05 35.00 C 13.57 34.90 14.61 34.69 15.13 34.58 C 15.44 34.52 16.05 34.39 16.36 34.33 Z" />
<path fill="#e0c82b" opacity="1.00" d=" M 39.79 35.86 C 40.49 31.88 45.96 36.14 48.79 34.17 C 49.14 35.16 49.79 35.87 50.74 36.30 C 50.44 37.54 49.39 39.18 50.67 40.22 C 51.79 42.21 54.09 42.01 56.06 42.14 C 54.99 46.78 49.38 44.56 46.00 44.87 C 47.01 42.04 46.73 39.78 45.16 38.07 C 44.67 37.77 43.68 37.16 43.18 36.85 C 42.12 36.32 40.99 35.98 39.79 35.86 Z" />
</g>
<g id="#696964ff">
<path fill="#696964" opacity="1.00" d=" M 27.82 35.27 C 30.35 32.61 34.71 34.72 37.85 33.93 C 37.62 34.33 37.16 35.12 36.92 35.51 C 33.88 35.92 30.86 35.53 27.82 35.27 Z" />
</g>
<g id="#957514ff">
<path fill="#957514" opacity="1.00" d=" M 4.94 54.18 C 5.05 47.70 4.72 41.19 5.73 34.77 C 6.04 39.91 6.69 45.05 6.34 50.20 C 9.16 50.61 8.91 54.55 11.89 54.12 L 12.02 55.02 C 9.65 54.85 7.28 54.57 4.94 54.18 Z" />
</g>
<g id="#74746eff">
<path fill="#74746e" opacity="1.00" d=" M 7.41 36.13 C 8.64 35.65 9.88 35.20 11.14 34.80 C 11.62 34.85 12.57 34.95 13.05 35.00 C 13.46 36.41 15.12 37.91 14.42 39.37 L 13.60 39.06 C 12.69 37.81 12.26 35.35 10.21 36.09 C 9.57 36.97 9.00 37.90 8.49 38.87 C 8.31 39.19 7.94 39.83 7.76 40.14 C 6.76 39.00 7.34 37.47 7.41 36.13 Z" />
</g>
<g id="#cecda5ff">
<path fill="#cecda5" opacity="1.00" d=" M 27.82 35.27 C 30.86 35.53 33.88 35.92 36.92 35.51 C 37.41 35.57 38.37 35.69 38.85 35.75 L 39.79 35.86 C 40.99 35.98 42.12 36.32 43.18 36.85 C 36.04 36.92 28.89 37.22 21.75 36.78 C 22.81 36.41 23.90 36.12 25.00 35.92 C 25.95 35.75 26.89 35.53 27.82 35.27 Z" />
</g>
<g id="#78786bff">
<path fill="#78786b" opacity="1.00" d=" M 52.10 35.16 C 52.59 35.14 53.58 35.10 54.07 35.08 C 54.61 35.12 55.69 35.19 56.23 35.23 C 57.16 36.70 58.90 38.49 57.25 40.16 C 57.07 39.83 56.69 39.18 56.50 38.85 C 55.73 35.36 52.28 35.39 51.48 38.85 C 51.28 39.19 50.87 39.88 50.67 40.22 C 49.39 39.18 50.44 37.54 50.74 36.30 C 51.08 36.01 51.76 35.44 52.10 35.16 Z" />
</g>
<g id="#d5d399ff">
<path fill="#d5d399" opacity="1.00" d=" M 10.21 36.09 C 12.26 35.35 12.69 37.81 13.60 39.06 C 12.02 41.26 9.81 41.41 8.49 38.87 C 9.00 37.90 9.57 36.97 10.21 36.09 Z" />
</g>
<g id="#d6d499ff">
<path fill="#d6d499" opacity="1.00" d=" M 51.48 38.85 C 52.28 35.39 55.73 35.36 56.50 38.85 C 55.37 41.41 52.62 41.39 51.48 38.85 Z" />
</g>
<g id="#1f13027f">
<path fill="#1f1302" opacity="0.50" d=" M 60.02 35.98 L 60.99 36.01 C 60.99 42.00 61.16 47.99 60.96 53.97 L 60.02 54.08 C 60.00 48.04 60.00 42.01 60.02 35.98 Z" />
</g>
<g id="#4d4d4fff">
<path fill="#4d4d4f" opacity="1.00" d=" M 19.67 37.93 C 20.19 37.64 21.23 37.07 21.75 36.78 C 28.89 37.22 36.04 36.92 43.18 36.85 C 43.68 37.16 44.67 37.77 45.16 38.07 C 44.93 40.12 44.82 42.18 44.82 44.24 L 44.09 43.85 C 43.94 43.40 43.64 42.48 43.49 42.02 C 43.29 41.30 42.89 39.85 42.69 39.12 C 35.88 38.89 29.05 38.84 22.23 39.10 C 22.06 39.84 21.72 41.30 21.55 42.04 C 21.39 42.50 21.08 43.41 20.93 43.87 L 20.21 44.24 C 20.21 42.13 20.08 40.01 19.67 37.93 Z" />
</g>
<g id="#cdc473ff">
<path fill="#cdc473" opacity="1.00" d=" M 19.02 44.86 C 18.48 42.41 18.70 40.10 19.67 37.93 C 20.08 40.01 20.21 42.13 20.21 44.24 L 19.73 44.86 L 19.02 44.86 Z" />
</g>
<g id="#dcce68ff">
<path fill="#dcce68" opacity="1.00" d=" M 45.16 38.07 C 46.73 39.78 47.01 42.04 46.00 44.87 L 45.30 44.87 L 44.82 44.24 C 44.82 42.18 44.93 40.12 45.16 38.07 Z" />
</g>
<g id="#1a10025f">
<path fill="#1a1002" opacity="0.37" d=" M 3.01 39.00 L 3.97 39.00 C 4.06 44.02 3.98 49.03 3.98 54.05 L 3.01 53.99 C 3.01 50.24 3.01 42.75 3.01 39.00 Z" />
</g>
<g id="#828799ff">
<path fill="#828799" opacity="1.00" d=" M 7.76 40.14 C 7.94 39.83 8.31 39.19 8.49 38.87 C 9.81 41.41 12.02 41.26 13.60 39.06 L 14.42 39.37 C 13.74 42.08 11.27 42.24 8.89 41.91 C 8.61 41.47 8.04 40.59 7.76 40.14 Z" />
</g>
<g id="#676767ff">
<path fill="#676767" opacity="1.00" d=" M 22.23 39.10 C 29.05 38.84 35.88 38.89 42.69 39.12 C 42.89 39.85 43.29 41.30 43.49 42.02 C 36.18 42.00 28.86 41.98 21.55 42.04 C 21.72 41.30 22.06 39.84 22.23 39.10 Z" />
</g>
<g id="#838898ff">
<path fill="#838898" opacity="1.00" d=" M 50.67 40.22 C 50.87 39.88 51.28 39.19 51.48 38.85 C 52.62 41.39 55.37 41.41 56.50 38.85 C 56.69 39.18 57.07 39.83 57.25 40.16 C 56.96 40.65 56.36 41.64 56.06 42.14 C 54.09 42.01 51.79 42.21 50.67 40.22 Z" />
</g>
<g id="#2d2b2bff">
<path fill="#2d2b2b" opacity="1.00" d=" M 20.93 43.87 C 21.08 43.41 21.39 42.50 21.55 42.04 C 28.66 43.03 36.57 44.17 43.49 42.02 C 43.64 42.48 43.94 43.40 44.09 43.85 C 36.37 44.03 28.65 44.05 20.93 43.87 Z" />
</g>
<g id="#54524fff">
<path fill="#54524f" opacity="1.00" d=" M 21.55 42.04 C 28.86 41.98 36.18 42.00 43.49 42.02 C 36.57 44.17 28.66 43.03 21.55 42.04 Z" />
</g>
<g id="#b6b698ff">
<path fill="#b6b698" opacity="1.00" d=" M 20.21 44.24 L 20.93 43.87 C 28.65 44.05 36.37 44.03 44.09 43.85 L 44.82 44.24 L 45.30 44.87 C 43.72 45.37 40.64 44.10 40.06 46.02 L 39.78 46.94 C 34.92 46.98 30.07 47.06 25.22 46.95 L 24.94 46.02 C 24.39 44.10 21.30 45.37 19.73 44.86 L 20.21 44.24 Z" />
</g>
<g id="#8c6f13ff">
<path fill="#8c6f13" opacity="1.00" d=" M 50.03 54.03 C 56.70 56.32 58.26 48.25 58.91 43.80 C 58.96 47.29 59.08 50.76 59.19 54.25 C 56.16 54.87 53.07 55.05 50.00 55.03 L 50.03 54.03 Z" />
</g>
<g id="#b9ab47ff">
<path fill="#b9ab47" opacity="1.00" d=" M 9.50 46.89 C 14.38 44.90 19.85 46.41 24.94 46.02 L 25.22 46.95 C 23.15 46.98 21.08 47.00 19.00 47.03 C 15.83 46.99 12.67 47.00 9.50 46.89 Z" />
</g>
<g id="#b7ab4eff">
<path fill="#b7ab4e" opacity="1.00" d=" M 40.06 46.02 C 44.74 46.16 49.89 45.29 54.20 46.76 C 53.45 46.88 51.97 47.10 51.22 47.22 C 47.40 47.13 43.59 47.00 39.78 46.94 L 40.06 46.02 Z" />
</g>
<g id="#ddcb4fff">
<path fill="#ddcb4f" opacity="1.00" d=" M 9.89 49.12 C 8.91 48.21 6.88 46.88 9.50 46.89 C 12.63 47.55 15.79 48.13 19.00 48.03 C 21.01 48.04 23.03 48.04 25.04 48.06 L 24.72 49.15 C 19.78 49.04 14.83 48.94 9.89 49.12 Z" />
</g>
<g id="#efe993ff">
<path fill="#efe993" opacity="1.00" d=" M 9.50 46.89 C 12.67 47.00 15.83 46.99 19.00 47.03 L 19.00 48.03 C 15.79 48.13 12.63 47.55 9.50 46.89 Z" />
</g>
<g id="#fefed2ff">
<path fill="#fefed2" opacity="1.00" d=" M 19.00 47.03 C 21.08 47.00 23.15 46.98 25.22 46.95 C 30.07 47.06 34.92 46.98 39.78 46.94 C 43.59 47.00 47.40 47.13 51.22 47.22 C 47.49 47.77 43.74 48.08 39.97 48.14 C 34.99 48.05 30.02 47.93 25.04 48.06 C 23.03 48.04 21.01 48.04 19.00 48.03 L 19.00 47.03 Z" />
</g>
<g id="#e0d25cff">
<path fill="#e0d25c" opacity="1.00" d=" M 51.22 47.22 C 51.97 47.10 53.45 46.88 54.20 46.76 C 54.41 47.07 54.84 47.70 55.06 48.01 C 50.15 48.66 45.21 48.96 40.26 49.21 L 39.97 48.14 C 43.74 48.08 47.49 47.77 51.22 47.22 Z" />
</g>
<g id="#e1e4c1ff">
<path fill="#e1e4c1" opacity="1.00" d=" M 25.04 48.06 C 30.02 47.93 34.99 48.05 39.97 48.14 L 40.26 49.21 C 35.08 49.09 29.90 48.91 24.72 49.15 L 25.04 48.06 Z" />
</g>
<g id="#d2bb23ff">
<path fill="#d2bb23" opacity="1.00" d=" M 40.26 49.21 C 45.21 48.96 50.15 48.66 55.06 48.01 C 54.63 50.93 53.94 54.13 50.24 52.85 C 38.17 51.61 25.70 51.29 13.69 52.83 C 11.01 53.61 10.74 50.95 9.89 49.12 C 14.83 48.94 19.78 49.04 24.72 49.15 C 29.84 50.27 35.14 50.20 40.26 49.21 Z" />
</g>
<g id="#d2c557ff">
<path fill="#d2c557" opacity="1.00" d=" M 24.72 49.15 C 29.90 48.91 35.08 49.09 40.26 49.21 C 35.14 50.20 29.84 50.27 24.72 49.15 Z" />
</g>
<g id="#bca820ff">
<path fill="#bca820" opacity="1.00" d=" M 13.69 52.83 C 25.70 51.29 38.17 51.61 50.24 52.85 L 49.18 52.90 C 37.71 53.02 26.23 53.12 14.75 52.91 L 13.69 52.83 Z" />
</g>
<g id="#998a1bff">
<path fill="#998a1b" opacity="1.00" d=" M 14.75 52.91 C 26.23 53.12 37.71 53.02 49.18 52.90 L 48.98 54.00 C 37.68 53.98 26.37 54.04 15.06 53.97 L 14.75 52.91 Z" />
</g>
<g id="#282001e3">
<path fill="#282001" opacity="0.89" d=" M 3.98 54.05 L 4.94 54.18 C 7.28 54.57 9.65 54.85 12.02 55.02 C 24.68 55.07 37.34 54.95 50.00 55.03 C 53.07 55.05 56.16 54.87 59.19 54.25 L 60.02 54.08 C 59.59 55.48 61.08 59.07 59.08 58.96 C 60.18 53.51 53.10 56.67 49.85 56.02 C 39.57 56.01 29.29 55.91 19.02 56.02 C 14.21 53.04 14.27 56.88 13.29 59.15 C 14.05 53.58 7.13 57.22 3.98 55.09 L 3.98 54.05 Z" />
</g>
<g id="#64590cff">
<path fill="#64590c" opacity="1.00" d=" M 11.89 54.12 C 12.68 54.09 14.27 54.01 15.06 53.97 C 26.37 54.04 37.68 53.98 48.98 54.00 L 50.03 54.03 L 50.00 55.03 C 37.34 54.95 24.68 55.07 12.02 55.02 L 11.89 54.12 Z" />
</g>
<g id="#242324fc">
<path fill="#242324" opacity="1.00" d=" M 3.98 55.09 C 7.13 57.22 14.05 53.58 13.29 59.15 L 13.11 59.99 C 10.41 59.99 7.71 60.00 5.01 60.00 C 2.90 60.09 4.41 56.53 3.98 55.09 Z" />
</g>
<g id="#0100000e">
<path fill="#010000" opacity="0.05" d=" M 13.29 59.15 C 14.27 56.88 14.21 53.04 19.02 56.02 C 29.29 55.91 39.57 56.01 49.85 56.02 C 50.05 57.41 50.21 58.83 50.70 60.16 L 50.94 60.94 C 43.86 63.02 36.26 61.57 29.00 62.02 C 23.70 61.57 18.02 63.11 12.98 60.86 L 13.11 59.99 L 13.29 59.15 M 15.83 59.10 C 18.31 62.06 22.88 60.86 26.21 60.84 C 30.06 61.19 33.90 61.16 37.74 60.76 C 41.18 60.92 45.70 61.99 48.15 59.12 C 37.51 57.12 26.52 57.73 15.83 59.10 Z" />
</g>
<g id="#252425fc">
<path fill="#252425" opacity="1.00" d=" M 49.85 56.02 C 53.10 56.67 60.18 53.51 59.08 58.96 L 59.09 59.97 C 56.29 60.01 53.50 60.08 50.70 60.16 C 50.21 58.83 50.05 57.41 49.85 56.02 Z" />
</g>
<g id="#01010032">
<path fill="#010100" opacity="0.20" d=" M 15.83 59.10 C 26.52 57.73 37.51 57.12 48.15 59.12 C 45.70 61.99 41.18 60.92 37.74 60.76 C 39.29 60.27 40.85 59.83 42.36 59.25 C 35.84 58.98 29.30 58.73 22.78 59.15 C 23.90 59.77 25.06 60.29 26.21 60.84 C 22.88 60.86 18.31 62.06 15.83 59.10 Z" />
</g>
<g id="#00000047">
<path fill="#000000" opacity="0.28" d=" M 22.78 59.15 C 29.30 58.73 35.84 58.98 42.36 59.25 C 40.85 59.83 39.29 60.27 37.74 60.76 C 33.90 61.16 30.06 61.19 26.21 60.84 C 25.06 60.29 23.90 59.77 22.78 59.15 Z" />
</g>
<g id="#140c0799">
<path fill="#140c07" opacity="0.60" d=" M 5.01 60.00 C 7.71 60.00 10.41 59.99 13.11 59.99 L 12.98 60.86 C 10.61 60.57 5.83 62.22 5.01 60.00 Z" />
</g>
<g id="#170e0799">
<path fill="#170e07" opacity="0.60" d=" M 50.70 60.16 C 53.50 60.08 56.29 60.01 59.09 59.97 C 58.04 62.25 53.41 60.53 50.94 60.94 L 50.70 60.16 Z" />
</g>
</svg>
