<?xml version="1.0" encoding="UTF-8" ?>
<!DOCTYPE svg PUBLIC "-//W3C//DTD SVG 1.1//EN" "http://www.w3.org/Graphics/SVG/1.1/DTD/svg11.dtd">
<svg width="64pt" height="64pt" viewBox="0 0 64 64" version="1.1" xmlns="http://www.w3.org/2000/svg">
<g id="#a2aaa5fe">
<path fill="#a2aaa5" opacity="1.00" d=" M 35.05 5.14 C 37.29 0.62 44.30 4.45 47.17 6.93 C 43.01 6.58 39.17 2.57 35.05 5.14 Z" />
<path fill="#a2aaa5" opacity="1.00" d=" M 8.84 6.77 C 11.65 5.13 15.29 8.75 17.09 11.04 C 14.18 9.95 11.57 8.23 8.84 6.77 Z" />
<path fill="#a2aaa5" opacity="1.00" d=" M 15.27 14.33 C 16.52 13.99 17.80 13.88 19.11 14.00 C 18.27 15.71 14.19 19.63 13.58 16.36 C 12.40 14.90 14.24 14.76 15.27 14.33 Z" />
<path fill="#a2aaa5" opacity="1.00" d=" M 59.85 14.43 C 61.22 15.10 62.57 15.82 64.00 16.38 L 64.00 19.03 C 59.65 18.99 55.31 19.02 50.97 18.90 C 51.73 17.72 52.03 15.39 53.99 16.11 C 56.35 16.27 61.21 18.72 59.85 14.43 Z" />
<path fill="#a2aaa5" opacity="1.00" d=" M 39.90 15.96 C 42.29 16.53 44.57 18.14 47.10 17.31 C 48.54 16.71 49.37 17.96 50.19 18.89 C 47.49 18.95 44.80 18.98 42.11 18.97 C 41.03 18.22 39.94 17.41 39.90 15.96 Z" />
<path fill="#a2aaa5" opacity="1.00" d=" M 0.00 21.21 C 3.30 22.07 6.74 21.50 10.07 21.14 C 8.51 23.34 5.41 24.91 5.95 28.04 C 8.16 28.26 10.05 27.04 11.85 25.95 C 11.88 27.30 11.95 28.65 12.05 30.01 C 14.86 29.55 11.35 23.22 15.05 23.05 C 31.36 22.84 47.68 23.10 64.00 23.00 L 64.00 24.00 C 48.02 24.10 32.03 23.83 16.05 24.06 C 14.04 24.01 13.83 26.33 13.95 27.85 C 15.71 27.92 19.23 28.06 20.99 28.13 C 25.53 38.04 13.38 30.29 13.14 37.18 C 12.64 35.95 13.99 32.99 12.09 32.96 C 13.45 36.32 12.26 40.18 8.64 39.70 C 0.75 42.98 5.00 38.94 5.95 36.81 C 3.44 37.43 1.90 39.70 0.00 41.27 L 0.00 21.21 M 14.01 30.03 C 13.01 33.29 17.16 31.69 18.99 31.97 C 19.99 28.71 15.84 30.31 14.01 30.03 Z" />
<path fill="#a2aaa5" opacity="1.00" d=" M 49.05 26.01 C 50.79 26.02 54.28 26.03 56.02 26.03 C 56.14 28.74 55.09 31.29 54.76 33.95 C 47.01 37.36 49.06 30.30 49.05 26.01 Z" />
<path fill="#a2aaa5" opacity="1.00" d=" M 25.01 28.00 L 30.00 28.00 C 30.00 29.50 29.99 32.50 29.99 34.00 L 25.00 34.00 C 25.00 32.50 25.01 29.50 25.01 28.00 Z" />
<path fill="#a2aaa5" opacity="1.00" d=" M 33.01 28.00 L 38.00 28.00 C 38.00 29.50 37.99 32.50 37.99 34.00 L 33.00 34.00 C 33.00 32.50 33.01 29.50 33.01 28.00 Z" />
<path fill="#a2aaa5" opacity="1.00" d=" M 41.02 28.01 C 49.33 22.06 48.53 38.91 41.00 34.00 C 41.01 32.50 41.02 29.51 41.02 28.01 Z" />
<path fill="#a2aaa5" opacity="1.00" d=" M 58.01 28.00 L 63.00 28.00 C 63.00 29.50 62.99 32.50 62.99 34.00 L 58.00 34.00 C 58.00 32.50 58.01 29.50 58.01 28.00 Z" />
<path fill="#a2aaa5" opacity="1.00" d=" M 13.15 38.04 C 30.10 37.93 47.05 38.04 64.00 38.00 L 64.00 39.00 C 47.06 38.94 30.11 39.11 13.17 38.95 L 13.15 38.04 Z" />
<path fill="#a2aaa5" opacity="1.00" d=" M 13.03 43.05 C 30.02 42.89 47.01 43.06 64.00 43.00 L 64.00 47.00 C 47.01 46.94 30.02 47.11 13.03 46.95 C 12.95 45.65 12.95 44.35 13.03 43.05 Z" />
<path fill="#a2aaa5" opacity="1.00" d=" M 19.02 48.97 C 20.41 48.90 22.98 48.88 22.85 50.84 C 21.08 53.11 17.67 52.16 19.02 48.97 Z" />
<path fill="#a2aaa5" opacity="1.00" d=" M 28.01 49.01 C 30.55 48.34 31.66 49.45 30.99 51.99 C 28.45 52.66 27.34 51.55 28.01 49.01 Z" />
</g>
<g id="#dcdee1ff">
<path fill="#dcdee1" opacity="1.00" d=" M 35.05 5.14 C 39.17 2.57 43.01 6.58 47.17 6.93 C 50.93 10.11 55.55 12.08 59.85 14.43 C 61.21 18.72 56.35 16.27 53.99 16.11 C 52.03 15.39 51.73 17.72 50.97 18.90 L 50.19 18.89 C 49.37 17.96 48.54 16.71 47.10 17.31 C 44.57 18.14 42.29 16.53 39.90 15.96 C 39.94 17.41 41.03 18.22 42.11 18.97 C 34.11 19.19 26.08 18.62 18.09 19.11 C 15.56 20.81 11.66 22.34 11.85 25.95 C 10.05 27.04 8.16 28.26 5.95 28.04 C 5.41 24.91 8.51 23.34 10.07 21.14 C 6.74 21.50 3.30 22.07 0.00 21.21 L 0.00 13.43 C 2.81 11.03 5.85 8.93 8.84 6.77 C 11.57 8.23 14.18 9.95 17.09 11.04 C 18.05 12.04 19.04 13.02 20.17 13.83 C 25.37 11.38 29.95 7.78 35.05 5.14 M 15.27 14.33 C 14.24 14.76 12.40 14.90 13.58 16.36 C 14.19 19.63 18.27 15.71 19.11 14.00 C 17.80 13.88 16.52 13.99 15.27 14.33 Z" />
<path fill="#dcdee1" opacity="1.00" d=" M 13.95 27.85 C 13.83 26.33 14.04 24.01 16.05 24.06 C 32.03 23.83 48.02 24.10 64.00 24.00 L 64.00 38.00 C 47.05 38.04 30.10 37.93 13.15 38.04 L 13.14 37.18 C 13.38 30.29 25.53 38.04 20.99 28.13 C 19.23 28.06 15.71 27.92 13.95 27.85 M 49.05 26.01 C 49.06 30.30 47.01 37.36 54.76 33.95 C 55.09 31.29 56.14 28.74 56.02 26.03 C 54.28 26.03 50.79 26.02 49.05 26.01 M 25.01 28.00 C 25.01 29.50 25.00 32.50 25.00 34.00 L 29.99 34.00 C 29.99 32.50 30.00 29.50 30.00 28.00 L 25.01 28.00 M 33.01 28.00 C 33.01 29.50 33.00 32.50 33.00 34.00 L 37.99 34.00 C 37.99 32.50 38.00 29.50 38.00 28.00 L 33.01 28.00 M 41.02 28.01 C 41.02 29.51 41.01 32.50 41.00 34.00 C 48.53 38.91 49.33 22.06 41.02 28.01 M 58.01 28.00 C 58.01 29.50 58.00 32.50 58.00 34.00 L 62.99 34.00 C 62.99 32.50 63.00 29.50 63.00 28.00 L 58.01 28.00 Z" />
<path fill="#dcdee1" opacity="1.00" d=" M 14.01 30.03 C 15.84 30.31 19.99 28.71 18.99 31.97 C 17.16 31.69 13.01 33.29 14.01 30.03 Z" />
</g>
<g id="#384f3efe">
<path fill="#384f3e" opacity="1.00" d=" M 11.85 25.95 C 11.66 22.34 15.56 20.81 18.09 19.11 C 26.08 18.62 34.11 19.19 42.11 18.97 C 44.80 18.98 47.49 18.95 50.19 18.89 L 50.97 18.90 C 55.31 19.02 59.65 18.99 64.00 19.03 L 64.00 23.00 C 47.68 23.10 31.36 22.84 15.05 23.05 C 11.35 23.22 14.86 29.55 12.05 30.01 C 11.95 28.65 11.88 27.30 11.85 25.95 Z" />
<path fill="#384f3e" opacity="1.00" d=" M 12.09 32.96 C 13.99 32.99 12.64 35.95 13.14 37.18 L 13.15 38.04 L 13.17 38.95 C 30.11 39.11 47.06 38.94 64.00 39.00 L 64.00 43.00 C 47.01 43.06 30.02 42.89 13.03 43.05 C 12.95 44.35 12.95 45.65 13.03 46.95 C 30.02 47.11 47.01 46.94 64.00 47.00 L 64.00 64.00 L 0.00 64.00 L 0.00 41.27 C 1.90 39.70 3.44 37.43 5.95 36.81 C 5.00 38.94 0.75 42.98 8.64 39.70 C 12.26 40.18 13.45 36.32 12.09 32.96 M 19.02 48.97 C 17.67 52.16 21.08 53.11 22.85 50.84 C 22.98 48.88 20.41 48.90 19.02 48.97 M 28.01 49.01 C 27.34 51.55 28.45 52.66 30.99 51.99 C 31.66 49.45 30.55 48.34 28.01 49.01 Z" />
</g>
</svg>
