<?xml version="1.0" encoding="UTF-8" ?>
<!DOCTYPE svg PUBLIC "-//W3C//DTD SVG 1.1//EN" "http://www.w3.org/Graphics/SVG/1.1/DTD/svg11.dtd">
<svg width="64pt" height="64pt" viewBox="0 0 64 64" version="1.1" xmlns="http://www.w3.org/2000/svg">
<g id="#d1e2e9ff">
<path fill="#d1e2e9" opacity="1.00" d=" M 19.68 8.26 C 20.22 7.79 21.32 6.87 21.87 6.41 C 35.89 6.43 49.91 6.37 63.94 6.44 C 63.34 8.45 62.80 10.48 62.44 12.55 C 62.83 13.24 63.60 14.60 63.99 15.29 C 49.79 15.34 35.59 15.18 21.40 15.37 L 21.26 15.29 C 20.87 14.93 20.08 14.21 19.69 13.84 C 19.66 11.98 19.73 10.12 19.68 8.26 M 22.37 8.35 C 22.12 10.16 22.19 11.98 22.16 13.80 C 23.82 13.77 25.48 13.73 27.14 13.65 C 27.12 11.93 27.08 10.22 27.04 8.50 C 25.49 8.35 23.92 8.23 22.37 8.35 M 28.96 8.50 C 28.92 10.22 28.88 11.93 28.86 13.65 C 30.52 13.73 32.18 13.78 33.84 13.80 C 33.80 11.99 33.89 10.16 33.64 8.36 C 32.08 8.23 30.51 8.35 28.96 8.50 M 35.90 8.42 C 35.87 10.19 35.85 11.95 35.84 13.72 C 37.44 13.76 39.04 13.80 40.64 13.81 C 40.63 11.99 40.71 10.16 40.48 8.35 C 38.95 8.31 37.42 8.27 35.90 8.42 M 41.67 13.69 C 43.87 14.16 46.14 14.19 48.34 13.68 C 48.18 11.66 47.76 9.66 47.75 7.63 C 45.93 7.80 44.10 7.82 42.27 7.68 C 42.08 9.68 42.00 11.70 41.67 13.69 M 49.51 8.46 C 49.28 10.22 49.36 12.00 49.34 13.78 C 50.95 13.80 52.56 13.76 54.17 13.74 C 54.14 12.16 54.11 10.58 54.07 9.01 L 53.85 8.19 C 52.40 8.26 50.95 8.26 49.51 8.46 M 56.14 8.17 L 55.93 9.01 C 55.88 10.58 55.85 12.16 55.83 13.74 C 57.44 13.77 59.05 13.79 60.66 13.78 C 60.62 12.01 60.73 10.23 60.49 8.47 C 59.06 8.19 57.58 8.34 56.14 8.17 Z" />
<path fill="#d1e2e9" opacity="1.00" d=" M 1.93 16.62 C 7.47 16.47 13.06 16.24 18.51 17.40 C 18.68 24.35 18.53 31.30 18.56 38.25 C 13.20 38.41 7.83 38.41 2.46 38.27 C 2.92 36.63 2.46 35.05 1.33 33.84 L 0.86 33.11 C 0.59 28.29 0.80 23.45 0.72 18.62 C 1.02 18.12 1.63 17.12 1.93 16.62 Z" />
<path fill="#d1e2e9" opacity="1.00" d=" M 22.91 16.26 C 24.54 16.77 26.20 17.18 27.84 17.66 C 27.76 18.68 27.68 19.70 27.60 20.72 C 24.84 20.63 22.09 20.53 19.33 20.38 C 20.48 18.97 21.67 17.59 22.91 16.26 Z" />
<path fill="#d1e2e9" opacity="1.00" d=" M 20.39 22.42 C 22.81 22.42 25.23 22.42 27.64 22.42 C 27.64 23.81 27.65 25.21 27.65 26.61 C 25.22 26.60 22.79 26.59 20.37 26.60 C 20.38 25.21 20.38 23.81 20.39 22.42 Z" />
<path fill="#d1e2e9" opacity="1.00" d=" M 20.40 28.43 C 22.82 28.44 25.23 28.44 27.65 28.43 C 27.64 29.82 27.64 31.20 27.64 32.59 C 25.22 32.58 22.81 32.58 20.39 32.58 C 20.40 31.20 20.40 29.82 20.40 28.43 Z" />
<path fill="#d1e2e9" opacity="1.00" d=" M 29.52 32.04 C 40.63 31.95 51.73 32.02 62.84 32.00 C 62.85 34.11 62.86 36.21 62.87 38.32 C 51.70 37.99 40.43 39.16 29.33 37.64 C 29.43 35.78 29.48 33.91 29.52 32.04 Z" />
<path fill="#d1e2e9" opacity="1.00" d=" M 20.43 34.45 C 22.81 34.46 25.19 34.46 27.57 34.45 C 27.58 35.83 27.59 37.20 27.60 38.57 C 25.20 38.56 22.80 38.56 20.40 38.57 C 20.41 37.20 20.42 35.82 20.43 34.45 Z" />
<path fill="#d1e2e9" opacity="1.00" d=" M 20.57 40.46 C 22.91 40.48 25.25 40.49 27.60 40.48 C 27.59 41.83 27.59 43.18 27.59 44.54 C 25.23 44.52 22.88 44.51 20.53 44.51 C 20.54 43.50 20.56 41.48 20.57 40.46 Z" />
<path fill="#d1e2e9" opacity="1.00" d=" M 1.23 41.55 L 2.23 41.56 C 8.25 41.64 14.29 41.46 20.31 41.94 C 19.30 42.92 18.78 44.84 17.05 44.72 C 11.78 45.26 6.45 44.99 1.17 44.62 L 0.01 44.53 C 0.35 43.93 1.04 42.73 1.38 42.13 L 1.23 41.55 Z" />
</g>
<g id="#03020254">
<path fill="#030202" opacity="0.33" d=" M 19.69 13.84 C 17.68 12.60 17.61 9.48 19.68 8.26 C 19.73 10.12 19.66 11.98 19.69 13.84 Z" />
<path fill="#030202" opacity="0.33" d=" M 22.37 8.35 C 23.92 8.23 25.49 8.35 27.04 8.50 C 25.59 8.75 24.15 9.01 22.71 9.28 C 22.71 10.53 22.72 11.78 22.72 13.04 C 24.19 13.24 25.67 13.44 27.14 13.65 C 25.48 13.73 23.82 13.77 22.16 13.80 C 22.19 11.98 22.12 10.16 22.37 8.35 Z" />
<path fill="#030202" opacity="0.33" d=" M 28.96 8.50 C 30.51 8.35 32.08 8.23 33.64 8.36 C 33.89 10.16 33.80 11.99 33.84 13.80 C 32.18 13.78 30.52 13.73 28.86 13.65 C 30.34 13.44 31.81 13.23 33.29 13.03 C 33.28 11.78 33.28 10.53 33.27 9.28 C 31.84 9.01 30.40 8.75 28.96 8.50 Z" />
<path fill="#030202" opacity="0.33" d=" M 35.90 8.42 C 37.42 8.27 38.95 8.31 40.48 8.35 C 40.71 10.16 40.63 11.99 40.64 13.81 C 39.04 13.80 37.44 13.76 35.84 13.72 C 37.23 13.52 38.61 13.33 39.99 13.12 C 39.98 11.85 39.98 10.59 39.98 9.32 C 38.62 9.00 37.26 8.71 35.90 8.42 Z" />
<path fill="#030202" opacity="0.33" d=" M 49.51 8.46 C 50.95 8.26 52.40 8.26 53.85 8.19 L 54.07 9.01 C 52.72 9.02 51.36 9.03 50.01 9.04 C 50.01 10.39 50.02 11.74 50.02 13.09 C 51.40 13.32 52.78 13.54 54.17 13.74 C 52.56 13.76 50.95 13.80 49.34 13.78 C 49.36 12.00 49.28 10.22 49.51 8.46 Z" />
<path fill="#030202" opacity="0.33" d=" M 56.14 8.17 C 57.58 8.34 59.06 8.19 60.49 8.47 C 60.73 10.23 60.62 12.01 60.66 13.78 C 59.05 13.79 57.44 13.77 55.83 13.74 C 57.22 13.53 58.60 13.32 59.99 13.10 C 59.98 11.75 59.98 10.39 59.99 9.03 C 58.63 9.02 57.28 9.01 55.93 9.01 L 56.14 8.17 Z" />
<path fill="#030202" opacity="0.33" d=" M 0.00 32.05 L 1.33 33.84 C 2.46 35.05 2.92 36.63 2.46 38.27 C 2.39 39.37 2.31 40.47 2.23 41.56 L 1.23 41.55 L 1.38 42.13 C 1.04 42.73 0.35 43.93 0.01 44.53 L 1.17 44.62 C 1.18 47.36 1.19 50.11 1.24 52.85 C 2.98 52.81 4.72 52.76 6.46 52.69 C 8.11 51.10 9.37 48.41 11.97 48.33 C 14.61 47.82 16.64 49.77 18.63 51.14 C 18.61 51.76 18.58 52.99 18.57 53.61 C 27.52 53.56 36.47 53.55 45.42 53.61 C 45.41 52.99 45.40 51.75 45.39 51.13 C 47.35 49.77 49.36 47.84 51.98 48.33 C 54.60 48.37 55.87 51.07 57.53 52.66 C 59.28 52.77 61.03 52.85 62.78 52.92 C 62.82 51.07 62.86 49.22 62.90 47.38 C 61.16 47.42 59.43 47.47 57.70 47.53 C 56.95 46.76 56.20 45.99 55.45 45.22 C 52.51 45.12 49.57 45.13 46.63 45.24 C 45.91 46.00 45.18 46.76 44.46 47.52 C 39.38 47.44 34.31 47.43 29.23 47.52 C 29.34 44.23 29.13 40.93 29.33 37.64 C 29.96 40.64 29.64 43.71 29.58 46.74 C 34.51 46.76 39.44 46.75 44.37 46.76 C 45.17 46.06 45.97 45.36 46.76 44.66 C 49.65 44.63 52.53 44.62 55.41 44.64 C 56.16 45.35 56.91 46.05 57.67 46.75 C 59.60 46.72 61.53 46.69 63.46 46.66 C 63.44 42.71 63.48 38.76 64.00 34.84 L 64.00 54.96 C 62.24 55.01 60.49 55.08 58.74 55.14 C 57.20 57.12 55.95 59.52 53.69 60.76 C 51.73 61.37 49.66 60.59 47.68 60.42 C 42.16 59.25 36.59 60.73 31.03 60.52 C 26.41 60.47 21.77 59.41 17.17 60.31 C 14.93 60.53 12.63 61.33 10.38 60.80 C 8.27 59.57 6.92 57.45 5.39 55.62 C 3.59 54.88 1.76 54.19 0.00 53.34 L 0.00 32.05 M 0.82 36.37 C 0.35 37.77 0.34 39.17 0.78 40.57 C 2.15 40.64 2.71 35.65 0.82 36.37 M 11.24 55.59 C 12.57 55.55 13.90 55.53 15.24 55.51 C 15.59 54.41 15.71 53.29 15.61 52.14 C 14.44 51.80 13.28 51.44 12.13 51.07 C 11.86 52.58 11.55 54.09 11.24 55.59 M 49.45 53.46 C 49.44 53.97 49.44 55.00 49.43 55.52 C 50.50 55.56 51.57 55.61 52.64 55.65 C 52.64 55.07 52.64 53.89 52.64 53.31 C 51.58 53.35 50.51 53.40 49.45 53.46 M 18.67 55.07 C 18.91 55.63 19.38 56.75 19.62 57.31 C 23.78 57.23 27.89 56.41 32.05 56.54 C 36.18 56.42 40.25 57.24 44.36 57.28 C 44.61 56.73 45.10 55.63 45.35 55.08 C 36.46 55.02 27.56 55.01 18.67 55.07 Z" />
</g>
<g id="#ed4128ff">
<path fill="#ed4128" opacity="1.00" d=" M 41.67 13.69 C 42.00 11.70 42.08 9.68 42.27 7.68 C 44.10 7.82 45.93 7.80 47.75 7.63 C 47.76 9.66 48.18 11.66 48.34 13.68 C 46.14 14.19 43.87 14.16 41.67 13.69 M 43.17 9.16 C 42.28 10.98 42.88 13.40 45.00 14.00 C 47.11 13.40 47.71 11.04 46.83 9.21 C 45.63 8.24 44.41 8.22 43.17 9.16 Z" />
<path fill="#ed4128" opacity="1.00" d=" M 0.01 18.85 C 1.66 16.95 3.11 14.85 5.01 13.19 C 8.16 12.80 11.41 12.80 14.55 13.36 C 15.33 14.39 16.04 15.48 16.66 16.61 C 18.72 17.85 20.86 17.16 22.91 16.26 C 21.67 17.59 20.48 18.97 19.33 20.38 C 22.09 20.53 24.84 20.63 27.60 20.72 C 27.68 19.70 27.76 18.68 27.84 17.66 C 26.20 17.18 24.54 16.77 22.91 16.26 C 22.53 16.04 21.77 15.60 21.40 15.37 C 35.59 15.18 49.79 15.34 63.99 15.29 C 63.33 15.38 62.00 15.58 61.33 15.67 C 62.23 16.60 63.12 17.54 64.00 18.48 L 64.00 34.84 C 63.48 38.76 63.44 42.71 63.46 46.66 C 61.53 46.69 59.60 46.72 57.67 46.75 C 56.91 46.05 56.16 45.35 55.41 44.64 C 52.53 44.62 49.65 44.63 46.76 44.66 C 45.97 45.36 45.17 46.06 44.37 46.76 C 39.44 46.75 34.51 46.76 29.58 46.74 C 29.64 43.71 29.96 40.64 29.33 37.64 C 40.43 39.16 51.70 37.99 62.87 38.32 C 62.86 36.21 62.85 34.11 62.84 32.00 C 51.73 32.02 40.63 31.95 29.52 32.04 C 29.48 33.91 29.43 35.78 29.33 37.64 C 29.13 40.93 29.34 44.23 29.23 47.52 C 34.31 47.43 39.38 47.44 44.46 47.52 C 45.18 46.76 45.91 46.00 46.63 45.24 C 49.57 45.13 52.51 45.12 55.45 45.22 C 56.20 45.99 56.95 46.76 57.70 47.53 C 59.43 47.47 61.16 47.42 62.90 47.38 C 62.86 49.22 62.82 51.07 62.78 52.92 C 61.03 52.85 59.28 52.77 57.53 52.66 C 55.87 51.07 54.60 48.37 51.98 48.33 C 49.36 47.84 47.35 49.77 45.39 51.13 C 45.40 51.75 45.41 52.99 45.42 53.61 C 36.47 53.55 27.52 53.56 18.57 53.61 C 18.58 52.99 18.61 51.76 18.63 51.14 C 16.64 49.77 14.61 47.82 11.97 48.33 C 9.37 48.41 8.11 51.10 6.46 52.69 C 4.72 52.76 2.98 52.81 1.24 52.85 C 1.19 50.11 1.18 47.36 1.17 44.62 C 6.45 44.99 11.78 45.26 17.05 44.72 C 18.78 44.84 19.30 42.92 20.31 41.94 C 14.29 41.46 8.25 41.64 2.23 41.56 C 2.31 40.47 2.39 39.37 2.46 38.27 C 7.83 38.41 13.20 38.41 18.56 38.25 C 18.53 31.30 18.68 24.35 18.51 17.40 C 13.06 16.24 7.47 16.47 1.93 16.62 C 1.63 17.12 1.02 18.12 0.72 18.62 C 0.80 23.45 0.59 28.29 0.86 33.11 L 1.33 33.84 L 0.00 32.05 L 0.00 17.17 L 0.01 18.85 M 20.39 22.42 C 20.38 23.81 20.38 25.21 20.37 26.60 C 22.79 26.59 25.22 26.60 27.65 26.61 C 27.65 25.21 27.64 23.81 27.64 22.42 C 25.23 22.42 22.81 22.42 20.39 22.42 M 20.40 28.43 C 20.40 29.82 20.40 31.20 20.39 32.58 C 22.81 32.58 25.22 32.58 27.64 32.59 C 27.64 31.20 27.64 29.82 27.65 28.43 C 25.23 28.44 22.82 28.44 20.40 28.43 M 20.43 34.45 C 20.42 35.82 20.41 37.20 20.40 38.57 C 22.80 38.56 25.20 38.56 27.60 38.57 C 27.59 37.20 27.58 35.83 27.57 34.45 C 25.19 34.46 22.81 34.46 20.43 34.45 M 20.57 40.46 C 20.56 41.48 20.54 43.50 20.53 44.51 C 22.88 44.51 25.23 44.52 27.59 44.54 C 27.59 43.18 27.59 41.83 27.60 40.48 C 25.25 40.49 22.91 40.48 20.57 40.46 Z" />
<path fill="#ed4128" opacity="1.00" d=" M 0.82 36.37 C 2.71 35.65 2.15 40.64 0.78 40.57 C 0.34 39.17 0.35 37.77 0.82 36.37 Z" />
<path fill="#ed4128" opacity="1.00" d=" M 11.24 55.59 C 11.55 54.09 11.86 52.58 12.13 51.07 C 13.28 51.44 14.44 51.80 15.61 52.14 C 15.71 53.29 15.59 54.41 15.24 55.51 C 13.90 55.53 12.57 55.55 11.24 55.59 Z" />
<path fill="#ed4128" opacity="1.00" d=" M 49.45 53.46 C 50.51 53.40 51.58 53.35 52.64 53.31 C 52.64 53.89 52.64 55.07 52.64 55.65 C 51.57 55.61 50.50 55.56 49.43 55.52 C 49.44 55.00 49.44 53.97 49.45 53.46 Z" />
</g>
</svg>
