<?xml version="1.0" encoding="UTF-8" ?>
<!DOCTYPE svg PUBLIC "-//W3C//DTD SVG 1.1//EN" "http://www.w3.org/Graphics/SVG/1.1/DTD/svg11.dtd">
<svg width="64pt" height="64pt" viewBox="0 0 64 64" version="1.1" xmlns="http://www.w3.org/2000/svg">
<g id="#a24d44cf">
<path fill="#a24d44" opacity="0.81" d=" M 16.16 0.00 L 33.90 0.00 L 34.12 0.98 C 33.33 0.99 31.76 1.01 30.97 1.02 C 26.19 0.99 21.41 1.07 16.63 1.08 L 15.50 0.84 L 16.16 0.00 Z" />
</g>
<g id="#347890ce">
<path fill="#347890" opacity="0.81" d=" M 33.90 0.00 L 49.87 0.00 L 50.47 0.81 C 45.02 0.94 39.57 1.05 34.12 0.98 L 33.90 0.00 Z" />
</g>
<g id="#f12505ff">
<path fill="#f12505" opacity="1.00" d=" M 13.72 2.99 C 14.29 2.25 14.88 1.54 15.50 0.84 C 15.71 1.33 16.12 2.30 16.33 2.79 C 21.22 3.05 26.13 3.07 31.02 2.94 L 31.00 3.95 C 25.94 4.42 20.52 2.94 15.65 4.82 L 14.74 5.13 C 14.49 4.60 13.98 3.53 13.72 2.99 Z" />
</g>
<g id="#fd5641ff">
<path fill="#fd5641" opacity="1.00" d=" M 15.50 0.84 L 16.63 1.08 C 21.34 2.23 26.18 1.99 30.98 2.02 L 31.02 2.94 C 26.13 3.07 21.22 3.05 16.33 2.79 C 16.12 2.30 15.71 1.33 15.50 0.84 Z" />
</g>
<g id="#f79a97ff">
<path fill="#f79a97" opacity="1.00" d=" M 16.63 1.08 C 21.41 1.07 26.19 0.99 30.97 1.02 L 30.98 2.02 C 26.18 1.99 21.34 2.23 16.63 1.08 Z" />
</g>
<g id="#f7f2f1ff">
<path fill="#f7f2f1" opacity="1.00" d=" M 30.97 1.02 C 31.76 1.01 33.33 0.99 34.12 0.98 C 33.95 2.46 33.76 3.94 33.55 5.42 C 32.69 4.61 31.85 3.78 31.02 2.94 L 30.98 2.02 L 30.97 1.02 Z" />
</g>
<g id="#8ed3edff">
<path fill="#8ed3ed" opacity="1.00" d=" M 34.12 0.98 C 39.57 1.05 45.02 0.94 50.47 0.81 L 50.09 1.88 C 45.13 2.06 40.17 1.74 35.23 2.12 L 35.06 3.01 L 34.90 3.99 L 34.69 5.06 L 33.55 5.42 C 33.76 3.94 33.95 2.46 34.12 0.98 Z" />
</g>
<g id="#0070eeff">
<path fill="#0070ee" opacity="1.00" d=" M 50.47 0.81 C 50.69 1.11 51.14 1.71 51.36 2.02 C 51.07 2.56 50.48 3.64 50.19 4.18 C 45.09 4.08 39.99 3.98 34.90 3.99 L 35.06 3.01 C 39.57 1.98 46.69 4.89 50.09 1.88 L 50.47 0.81 Z" />
</g>
<g id="#39adfbff">
<path fill="#39adfb" opacity="1.00" d=" M 35.23 2.12 C 40.17 1.74 45.13 2.06 50.09 1.88 C 46.69 4.89 39.57 1.98 35.06 3.01 L 35.23 2.12 Z" />
</g>
<g id="#0f2ab3fd">
<path fill="#0f2ab3" opacity="1.00" d=" M 51.36 2.02 C 51.87 2.96 52.10 3.99 52.06 5.11 C 46.15 6.36 40.08 6.00 34.09 6.04 L 33.55 5.42 L 34.69 5.06 C 39.61 4.23 45.81 6.44 50.19 4.18 C 50.48 3.64 51.07 2.56 51.36 2.02 Z" />
</g>
<g id="#79261af1">
<path fill="#79261a" opacity="0.95" d=" M 11.99 6.99 C 12.58 5.66 13.04 4.28 13.72 2.99 C 13.98 3.53 14.49 4.60 14.74 5.13 C 19.26 7.33 26.01 5.28 31.23 5.79 C 31.42 6.11 31.82 6.76 32.01 7.08 C 25.34 7.06 18.67 6.97 11.99 6.99 Z" />
</g>
<g id="#c2c2c1fd">
<path fill="#c2c2c1" opacity="1.00" d=" M 31.02 2.94 C 31.85 3.78 32.69 4.61 33.55 5.42 L 34.09 6.04 C 39.56 7.95 46.23 6.78 52.21 6.85 C 52.91 7.85 53.60 8.86 54.26 9.88 C 53.99 10.48 53.45 11.68 53.18 12.28 C 52.92 11.71 52.41 10.57 52.15 10.00 C 52.02 9.53 51.75 8.60 51.62 8.13 C 47.02 8.12 42.23 7.29 37.74 8.69 C 34.24 8.90 30.72 9.12 27.21 8.76 C 22.63 8.29 17.86 7.37 13.28 8.27 C 12.08 8.71 11.95 9.39 12.91 10.32 C 12.34 10.96 11.78 11.60 11.23 12.25 C 10.03 13.00 9.49 12.52 9.62 10.81 C 10.25 9.44 11.16 8.24 11.99 6.99 C 18.67 6.97 25.34 7.06 32.01 7.08 C 31.82 6.76 31.42 6.11 31.23 5.79 L 31.01 4.94 L 31.00 3.95 L 31.02 2.94 Z" />
</g>
<g id="#ee3d2dff">
<path fill="#ee3d2d" opacity="1.00" d=" M 15.65 4.82 C 20.52 2.94 25.94 4.42 31.00 3.95 L 31.01 4.94 C 25.89 4.97 20.77 5.06 15.65 4.82 Z" />
</g>
<g id="#2d68e4ff">
<path fill="#2d68e4" opacity="1.00" d=" M 34.90 3.99 C 39.99 3.98 45.09 4.08 50.19 4.18 C 45.81 6.44 39.61 4.23 34.69 5.06 L 34.90 3.99 Z" />
</g>
<g id="#c61c05ff">
<path fill="#c61c05" opacity="1.00" d=" M 14.74 5.13 L 15.65 4.82 C 20.77 5.06 25.89 4.97 31.01 4.94 L 31.23 5.79 C 26.01 5.28 19.26 7.33 14.74 5.13 Z" />
</g>
<g id="#1c1c74fe">
<path fill="#1c1c74" opacity="1.00" d=" M 34.09 6.04 C 40.08 6.00 46.15 6.36 52.06 5.11 C 52.10 5.55 52.17 6.41 52.21 6.85 C 46.23 6.78 39.56 7.95 34.09 6.04 Z" />
</g>
<g id="#e8e8e8ff">
<path fill="#e8e8e8" opacity="1.00" d=" M 13.28 8.27 C 17.86 7.37 22.63 8.29 27.21 8.76 C 22.37 8.53 17.60 9.20 12.91 10.32 C 11.95 9.39 12.08 8.71 13.28 8.27 Z" />
</g>
<g id="#e7e6e6ff">
<path fill="#e7e6e6" opacity="1.00" d=" M 37.74 8.69 C 42.23 7.29 47.02 8.12 51.62 8.13 C 51.75 8.60 52.02 9.53 52.15 10.00 C 47.34 9.64 42.56 9.00 37.74 8.69 Z" />
</g>
<g id="#97b9bcff">
<path fill="#97b9bc" opacity="1.00" d=" M 12.91 10.32 C 17.60 9.20 22.37 8.53 27.21 8.76 C 30.72 9.12 34.24 8.90 37.74 8.69 C 42.56 9.00 47.34 9.64 52.15 10.00 C 52.41 10.57 52.92 11.71 53.18 12.28 L 53.07 13.11 C 50.99 11.70 48.96 9.87 46.00 10.85 C 34.77 9.65 23.09 8.94 12.09 12.02 L 11.23 12.25 C 11.78 11.60 12.34 10.96 12.91 10.32 Z" />
</g>
<g id="#b6ecf8ff">
<path fill="#b6ecf8" opacity="1.00" d=" M 12.09 12.02 C 23.09 8.94 34.77 9.65 46.00 10.85 C 48.96 9.87 50.99 11.70 53.07 13.11 C 53.53 15.12 53.96 17.14 54.29 19.18 C 40.03 16.30 25.24 16.04 10.87 18.11 C 10.82 17.53 10.73 16.37 10.69 15.79 C 11.14 14.52 11.64 13.28 12.09 12.02 Z" />
</g>
<g id="#848d90f3">
<path fill="#848d90" opacity="0.95" d=" M 54.26 9.88 C 56.55 13.02 57.03 17.02 58.02 20.67 C 57.39 21.82 56.84 23.01 56.20 24.16 C 55.68 22.73 56.97 19.37 55.13 19.20 L 54.29 19.18 C 53.96 17.14 53.53 15.12 53.07 13.11 L 53.18 12.28 C 53.45 11.68 53.99 10.48 54.26 9.88 Z" />
</g>
<g id="#828889f5">
<path fill="#828889" opacity="0.96" d=" M 6.90 20.82 C 7.84 17.51 8.17 13.96 9.62 10.81 C 9.49 12.52 10.03 13.00 11.23 12.25 L 12.09 12.02 C 11.64 13.28 11.14 14.52 10.69 15.79 C 10.31 16.77 9.99 17.77 9.72 18.79 C 9.08 21.18 8.54 23.61 7.97 26.02 L 7.10 26.11 C 7.07 25.30 6.99 23.69 6.95 22.88 C 6.94 22.36 6.92 21.34 6.90 20.82 Z" />
</g>
<g id="#63a7c2ff">
<path fill="#63a7c2" opacity="1.00" d=" M 9.72 18.79 C 9.99 17.77 10.31 16.77 10.69 15.79 C 10.73 16.37 10.82 17.53 10.87 18.11 L 10.97 19.14 C 11.07 20.50 11.46 21.80 11.92 23.08 C 9.11 23.81 10.14 20.45 9.72 18.79 Z" />
</g>
<g id="#85d9f6ff">
<path fill="#85d9f6" opacity="1.00" d=" M 10.87 18.11 C 25.24 16.04 40.03 16.30 54.29 19.18 C 44.26 20.67 34.09 19.78 24.00 20.04 C 19.70 19.61 15.07 20.88 10.97 19.14 L 10.87 18.11 Z" />
</g>
<g id="#5f6b70ff">
<path fill="#5f6b70" opacity="1.00" d=" M 7.97 26.02 C 8.54 23.61 9.08 21.18 9.72 18.79 C 10.14 20.45 9.11 23.81 11.92 23.08 C 15.93 23.21 19.83 22.36 23.74 21.63 C 24.50 21.76 26.02 22.03 26.78 22.17 C 30.15 22.81 33.58 23.09 37.01 23.03 C 38.71 23.07 42.10 23.16 43.79 23.21 C 46.55 23.73 49.60 23.53 52.09 25.01 C 50.26 25.03 46.60 25.07 44.77 25.09 C 44.37 25.02 43.57 24.87 43.17 24.80 C 36.11 23.48 28.83 23.75 21.74 24.61 C 17.09 24.59 12.59 25.81 7.97 26.02 Z" />
</g>
<g id="#6cc1e2ff">
<path fill="#6cc1e2" opacity="1.00" d=" M 10.97 19.14 C 15.07 20.88 19.70 19.61 24.00 20.04 C 34.09 19.78 44.26 20.67 54.29 19.18 L 55.13 19.20 C 54.82 20.69 55.72 23.59 53.22 22.83 C 49.23 22.28 45.22 22.05 41.22 21.73 C 35.47 21.09 29.45 20.27 23.74 21.63 C 19.83 22.36 15.93 23.21 11.92 23.08 C 11.46 21.80 11.07 20.50 10.97 19.14 Z" />
</g>
<g id="#3b687bff">
<path fill="#3b687b" opacity="1.00" d=" M 55.13 19.20 C 56.97 19.37 55.68 22.73 56.20 24.16 C 55.61 25.73 53.38 24.70 52.09 25.01 C 49.60 23.53 46.55 23.73 43.79 23.21 C 46.93 23.11 50.08 22.98 53.22 22.83 C 55.72 23.59 54.82 20.69 55.13 19.20 Z" />
</g>
<g id="#5f5f5fd8">
<path fill="#5f5f5f" opacity="0.85" d=" M 0.88 23.91 C 0.71 20.85 4.82 21.34 6.90 20.82 C 6.92 21.34 6.94 22.36 6.95 22.88 C 4.90 22.99 2.81 23.14 0.88 23.91 Z" />
</g>
<g id="#5fa7c3ff">
<path fill="#5fa7c3" opacity="1.00" d=" M 23.74 21.63 C 29.45 20.27 35.47 21.09 41.22 21.73 C 39.81 21.83 38.40 21.92 36.99 22.00 C 33.58 22.03 30.18 22.06 26.78 22.17 C 26.02 22.03 24.50 21.76 23.74 21.63 Z" />
</g>
<g id="#676767f1">
<path fill="#676767" opacity="0.95" d=" M 56.20 24.16 C 56.84 23.01 57.39 21.82 58.02 20.67 C 60.10 20.90 63.39 20.98 63.15 23.92 C 60.56 22.65 56.91 22.17 57.63 26.23 C 56.25 25.93 53.48 25.32 52.09 25.01 C 53.38 24.70 55.61 25.73 56.20 24.16 Z" />
</g>
<g id="#316980ff">
<path fill="#316980" opacity="1.00" d=" M 26.78 22.17 C 30.18 22.06 33.58 22.03 36.99 22.00 L 37.01 23.03 C 33.58 23.09 30.15 22.81 26.78 22.17 Z" />
</g>
<g id="#76858bff">
<path fill="#76858b" opacity="1.00" d=" M 36.99 22.00 C 38.40 21.92 39.81 21.83 41.22 21.73 C 45.22 22.05 49.23 22.28 53.22 22.83 C 50.08 22.98 46.93 23.11 43.79 23.21 C 42.10 23.16 38.71 23.07 37.01 23.03 L 36.99 22.00 Z" />
</g>
<g id="#383838f4">
<path fill="#383838" opacity="0.96" d=" M 0.88 23.91 C 2.81 23.14 4.90 22.99 6.95 22.88 C 6.99 23.69 7.07 25.30 7.10 26.11 C 6.39 26.73 5.68 27.35 4.97 27.98 L 4.21 27.79 C 2.09 27.34 0.32 26.41 0.88 23.91 Z" />
</g>
<g id="#363636fb">
<path fill="#363636" opacity="1.00" d=" M 57.63 26.23 C 56.91 22.17 60.56 22.65 63.15 23.92 C 63.49 25.80 62.16 27.10 60.85 28.19 C 59.73 27.62 58.66 26.95 57.63 26.23 Z" />
</g>
<g id="#b1b0b0ff">
<path fill="#b1b0b0" opacity="1.00" d=" M 21.74 24.61 C 28.83 23.75 36.11 23.48 43.17 24.80 C 42.43 24.88 40.94 25.04 40.20 25.12 C 34.38 25.07 28.55 25.05 22.73 24.88 L 21.74 24.61 Z" />
</g>
<g id="#cccbcbff">
<path fill="#cccbcb" opacity="1.00" d=" M 7.97 26.02 C 12.59 25.81 17.09 24.59 21.74 24.61 L 22.73 24.88 C 23.53 25.53 24.30 26.18 25.07 26.86 C 20.70 27.49 16.29 27.84 11.89 28.18 C 13.06 29.60 14.25 31.10 15.83 32.09 C 18.42 33.61 23.96 31.30 23.12 35.93 C 21.92 36.43 18.77 35.01 18.99 37.04 C 19.12 38.69 18.47 40.77 19.61 42.13 C 27.55 43.85 36.89 43.29 45.21 42.17 L 46.03 41.95 C 46.50 41.82 47.43 41.56 47.89 41.43 C 50.70 41.68 53.52 41.95 56.33 42.11 C 53.19 45.49 47.77 43.39 43.75 44.73 C 36.91 44.97 30.05 45.26 23.21 44.81 C 18.46 43.64 13.52 43.49 8.77 42.33 C 11.56 41.95 14.89 42.86 17.29 41.29 C 21.78 31.49 8.66 35.87 3.22 34.96 C 3.78 32.63 4.40 30.31 4.97 27.98 C 5.68 27.35 6.39 26.73 7.10 26.11 L 7.97 26.02 Z" />
</g>
<g id="#f0f0f0ff">
<path fill="#f0f0f0" opacity="1.00" d=" M 22.73 24.88 C 28.55 25.05 34.38 25.07 40.20 25.12 C 39.08 25.66 37.94 26.17 36.85 26.76 C 42.09 27.65 47.58 27.71 52.48 29.99 C 51.22 31.11 50.17 33.01 48.21 32.74 C 41.70 31.28 35.12 33.60 28.60 32.63 C 24.37 31.99 20.09 32.08 15.83 32.09 C 14.25 31.10 13.06 29.60 11.89 28.18 C 16.29 27.84 20.70 27.49 25.07 26.86 C 24.30 26.18 23.53 25.53 22.73 24.88 Z" />
</g>
<g id="#deddddff">
<path fill="#dedddd" opacity="1.00" d=" M 40.20 25.12 C 40.94 25.04 42.43 24.88 43.17 24.80 C 43.57 24.87 44.37 25.02 44.77 25.09 C 46.89 27.98 51.09 27.39 54.09 28.25 C 53.58 28.85 53.04 29.43 52.48 29.99 C 47.58 27.71 42.09 27.65 36.85 26.76 C 37.94 26.17 39.08 25.66 40.20 25.12 Z" />
</g>
<g id="#c7c6c6ff">
<path fill="#c7c6c6" opacity="1.00" d=" M 44.77 25.09 C 46.60 25.07 50.26 25.03 52.09 25.01 C 53.48 25.32 56.25 25.93 57.63 26.23 C 58.66 26.95 59.73 27.62 60.85 28.19 C 61.38 29.01 61.84 29.87 62.24 30.76 C 62.19 32.17 62.13 33.58 62.07 35.00 C 60.76 34.99 59.44 35.00 58.13 35.01 C 53.02 33.00 48.86 37.24 43.99 36.07 C 41.52 33.10 46.17 32.86 48.21 32.74 C 50.17 33.01 51.22 31.11 52.48 29.99 C 53.04 29.43 53.58 28.85 54.09 28.25 C 51.09 27.39 46.89 27.98 44.77 25.09 Z" />
</g>
<g id="#989390fd">
<path fill="#989390" opacity="1.00" d=" M 4.21 27.79 L 4.97 27.98 C 4.40 30.31 3.78 32.63 3.22 34.96 C 8.66 35.87 21.78 31.49 17.29 41.29 C 17.26 38.80 17.20 36.15 13.96 36.90 C 12.19 36.98 8.67 37.14 6.91 37.22 C 5.62 37.14 4.32 37.07 3.03 37.02 C 2.53 35.95 2.06 34.88 1.61 33.80 C 2.02 31.62 3.14 29.69 4.21 27.79 Z" />
</g>
<g id="#575757f5">
<path fill="#575757" opacity="0.96" d=" M 62.24 30.76 C 62.93 32.03 62.93 33.49 63.11 34.89 C 63.04 36.97 62.96 39.04 62.91 41.12 C 62.43 40.92 61.47 40.51 60.99 40.31 C 61.72 39.32 62.05 38.20 62.00 36.97 C 62.02 36.48 62.05 35.49 62.07 35.00 C 62.13 33.58 62.19 32.17 62.24 30.76 Z" />
</g>
<g id="#dfdfdfff">
<path fill="#dfdfdf" opacity="1.00" d=" M 15.83 32.09 C 20.09 32.08 24.37 31.99 28.60 32.63 C 35.12 33.60 41.70 31.28 48.21 32.74 C 46.17 32.86 41.52 33.10 43.99 36.07 C 37.03 35.93 30.08 36.08 23.12 35.93 C 23.96 31.30 18.42 33.61 15.83 32.09 Z" />
</g>
<g id="#3f3f3fce">
<path fill="#3f3f3f" opacity="0.81" d=" M 0.99 47.25 C 1.05 42.76 0.85 38.23 1.61 33.80 C 2.06 34.88 2.53 35.95 3.03 37.02 C 2.99 37.76 2.89 39.24 2.84 39.98 L 2.63 40.92 C 2.16 42.58 2.07 44.32 1.97 46.04 C 1.73 46.34 1.24 46.94 0.99 47.25 Z" />
</g>
<g id="#9a9796ff">
<path fill="#9a9796" opacity="1.00" d=" M 43.99 36.07 C 48.86 37.24 53.02 33.00 58.13 35.01 C 57.81 35.50 57.19 36.47 56.87 36.96 C 54.90 36.96 52.93 36.93 50.96 37.03 C 48.16 36.55 47.69 39.17 48.77 41.15 L 47.89 41.43 C 47.43 41.56 46.50 41.82 46.03 41.95 C 46.02 41.19 46.00 39.66 45.98 38.90 C 45.96 38.44 45.93 37.51 45.91 37.05 C 36.93 36.89 27.96 37.00 18.99 37.04 C 18.77 35.01 21.92 36.43 23.12 35.93 C 30.08 36.08 37.03 35.93 43.99 36.07 Z" />
</g>
<g id="#7e7d7dff">
<path fill="#7e7d7d" opacity="1.00" d=" M 58.13 35.01 C 59.44 35.00 60.76 34.99 62.07 35.00 C 62.05 35.49 62.02 36.48 62.00 36.97 L 61.17 37.21 C 59.74 37.12 58.30 37.04 56.87 36.96 C 57.19 36.47 57.81 35.50 58.13 35.01 Z" />
</g>
<g id="#12121263">
<path fill="#121212" opacity="0.39" d=" M 63.11 34.89 L 64.00 35.16 L 64.00 47.23 L 63.32 47.07 C 63.10 45.10 62.99 43.11 62.91 41.12 C 62.96 39.04 63.04 36.97 63.11 34.89 Z" />
</g>
<g id="#cfd07dff">
<path fill="#cfd07d" opacity="1.00" d=" M 3.03 37.02 C 4.32 37.07 5.62 37.14 6.91 37.22 C 9.36 38.73 11.71 38.92 13.96 37.78 C 13.99 38.51 14.06 39.98 14.09 40.71 C 12.10 40.26 10.07 39.97 8.02 40.00 C 6.29 39.95 4.57 39.97 2.84 39.98 C 2.89 39.24 2.99 37.76 3.03 37.02 Z" />
</g>
<g id="#eef0b0ff">
<path fill="#eef0b0" opacity="1.00" d=" M 6.91 37.22 C 8.67 37.14 12.19 36.98 13.96 36.90 L 13.96 37.78 C 11.71 38.92 9.36 38.73 6.91 37.22 Z" />
</g>
<g id="#dd7541ff">
<path fill="#dd7541" opacity="1.00" d=" M 13.96 36.90 C 17.20 36.15 17.26 38.80 17.29 41.29 C 16.49 41.15 14.89 40.86 14.09 40.71 C 14.06 39.98 13.99 38.51 13.96 37.78 L 13.96 36.90 Z" />
</g>
<g id="#454545ff">
<path fill="#454545" opacity="1.00" d=" M 18.99 37.04 C 27.96 37.00 36.93 36.89 45.91 37.05 C 45.93 37.51 45.96 38.44 45.98 38.90 C 45.62 39.35 44.90 40.24 44.54 40.69 C 36.44 41.04 28.23 41.61 20.17 40.46 C 20.03 40.87 19.75 41.71 19.61 42.13 C 18.47 40.77 19.12 38.69 18.99 37.04 Z" />
</g>
<g id="#e37441ff">
<path fill="#e37441" opacity="1.00" d=" M 48.77 41.15 C 47.69 39.17 48.16 36.55 50.96 37.03 C 51.02 37.86 51.14 39.52 51.20 40.35 C 50.59 40.55 49.37 40.95 48.77 41.15 Z" />
</g>
<g id="#e4dd92ff">
<path fill="#e4dd92" opacity="1.00" d=" M 50.96 37.03 C 52.93 36.93 54.90 36.96 56.87 36.96 C 58.30 37.04 59.74 37.12 61.17 37.21 C 58.07 38.24 55.13 39.71 51.94 40.47 L 51.20 40.35 C 51.14 39.52 51.02 37.86 50.96 37.03 Z" />
</g>
<g id="#b6b871ff">
<path fill="#b6b871" opacity="1.00" d=" M 61.17 37.21 L 62.00 36.97 C 62.05 38.20 61.72 39.32 60.99 40.31 C 59.19 40.00 57.40 40.20 55.81 41.13 C 54.51 40.94 53.22 40.73 51.94 40.47 C 55.13 39.71 58.07 38.24 61.17 37.21 Z" />
</g>
<g id="#2f2f2fff">
<path fill="#2f2f2f" opacity="1.00" d=" M 44.54 40.69 C 44.90 40.24 45.62 39.35 45.98 38.90 C 46.00 39.66 46.02 41.19 46.03 41.95 L 45.21 42.17 C 36.68 42.05 28.14 41.83 19.61 42.13 C 19.75 41.71 20.03 40.87 20.17 40.46 C 28.23 41.61 36.44 41.04 44.54 40.69 Z" />
</g>
<g id="#737263ff">
<path fill="#737263" opacity="1.00" d=" M 2.84 39.98 C 4.57 39.97 6.29 39.95 8.02 40.00 C 7.98 40.53 7.91 41.60 7.88 42.13 L 6.94 42.03 C 5.67 41.88 4.39 41.82 3.11 41.84 L 2.63 40.92 L 2.84 39.98 Z" />
</g>
<g id="#a3a38fff">
<path fill="#a3a38f" opacity="1.00" d=" M 8.02 40.00 C 10.07 39.97 12.10 40.26 14.09 40.71 C 14.89 40.86 16.49 41.15 17.29 41.29 C 14.89 42.86 11.56 41.95 8.77 42.33 L 7.88 42.13 C 7.91 41.60 7.98 40.53 8.02 40.00 Z" />
</g>
<g id="#a4a09fff">
<path fill="#a4a09f" opacity="1.00" d=" M 51.20 40.35 L 51.94 40.47 C 53.22 40.73 54.51 40.94 55.81 41.13 L 56.33 42.11 C 53.52 41.95 50.70 41.68 47.89 41.43 L 48.77 41.15 C 49.37 40.95 50.59 40.55 51.20 40.35 Z" />
</g>
<g id="#7a7a72ff">
<path fill="#7a7a72" opacity="1.00" d=" M 55.81 41.13 C 57.40 40.20 59.19 40.00 60.99 40.31 C 61.47 40.51 62.43 40.92 62.91 41.12 C 62.99 43.11 63.10 45.10 63.32 47.07 C 61.54 46.43 59.69 46.01 57.85 45.58 C 59.18 44.19 62.07 44.39 62.08 42.03 C 60.77 41.99 59.46 42.00 58.15 42.06 C 57.69 42.07 56.79 42.10 56.33 42.11 L 55.81 41.13 Z" />
</g>
<g id="#868584ff">
<path fill="#868584" opacity="1.00" d=" M 1.97 46.04 C 2.07 44.32 2.16 42.58 2.63 40.92 L 3.11 41.84 C 4.18 43.45 6.42 43.83 7.97 44.93 L 8.17 45.94 C 6.11 46.28 4.03 46.54 1.97 46.04 Z" />
</g>
<g id="#9a9a9aff">
<path fill="#9a9a9a" opacity="1.00" d=" M 3.11 41.84 C 4.39 41.82 5.67 41.88 6.94 42.03 C 7.49 42.92 7.83 43.89 7.97 44.93 C 6.42 43.83 4.18 43.45 3.11 41.84 Z" />
</g>
<g id="#b9b9b9ff">
<path fill="#b9b9b9" opacity="1.00" d=" M 6.94 42.03 L 7.88 42.13 L 8.77 42.33 C 13.52 43.49 18.46 43.64 23.21 44.81 C 18.13 44.88 13.05 45.07 7.97 44.93 C 7.83 43.89 7.49 42.92 6.94 42.03 Z" />
</g>
<g id="#484848ff">
<path fill="#484848" opacity="1.00" d=" M 19.61 42.13 C 28.14 41.83 36.68 42.05 45.21 42.17 C 36.89 43.29 27.55 43.85 19.61 42.13 Z" />
</g>
<g id="#b4b3b3ff">
<path fill="#b4b3b3" opacity="1.00" d=" M 56.33 42.11 C 56.79 42.10 57.69 42.07 58.15 42.06 C 56.09 47.69 48.49 44.24 43.75 44.73 C 47.77 43.39 53.19 45.49 56.33 42.11 Z" />
</g>
<g id="#979696ff">
<path fill="#979696" opacity="1.00" d=" M 58.15 42.06 C 59.46 42.00 60.77 41.99 62.08 42.03 C 62.07 44.39 59.18 44.19 57.85 45.58 C 59.69 46.01 61.54 46.43 63.32 47.07 L 62.91 47.83 C 61.27 47.90 59.64 47.92 58.00 47.88 C 57.30 45.66 54.93 45.67 53.04 46.10 C 41.43 46.05 29.81 45.75 18.21 46.16 C 14.86 46.11 11.51 46.01 8.17 45.94 L 7.97 44.93 C 13.05 45.07 18.13 44.88 23.21 44.81 C 30.05 45.26 36.91 44.97 43.75 44.73 C 48.49 44.24 56.09 47.69 58.15 42.06 Z" />
</g>
<g id="#a3a2a2ff">
<path fill="#a3a2a2" opacity="1.00" d=" M 1.97 46.04 C 4.03 46.54 6.11 46.28 8.17 45.94 C 7.81 46.45 7.10 47.47 6.74 47.98 C 4.83 48.02 2.92 48.04 1.01 48.09 L 0.99 47.25 C 1.24 46.94 1.73 46.34 1.97 46.04 Z" />
</g>
<g id="#dad9d9ff">
<path fill="#dad9d9" opacity="1.00" d=" M 8.17 45.94 C 11.51 46.01 14.86 46.11 18.21 46.16 C 15.37 46.63 12.49 46.93 9.72 47.72 C 9.22 47.78 8.21 47.90 7.71 47.96 L 6.74 47.98 C 7.10 47.47 7.81 46.45 8.17 45.94 Z" />
</g>
<g id="#f3f3f3ff">
<path fill="#f3f3f3" opacity="1.00" d=" M 18.21 46.16 C 29.81 45.75 41.43 46.05 53.04 46.10 C 53.73 46.75 54.44 47.39 55.16 48.02 C 40.02 47.74 24.85 48.45 9.72 47.72 C 12.49 46.93 15.37 46.63 18.21 46.16 Z" />
</g>
<g id="#cfcfceff">
<path fill="#cfcfce" opacity="1.00" d=" M 53.04 46.10 C 54.93 45.67 57.30 45.66 58.00 47.88 C 57.53 47.95 56.58 48.10 56.11 48.18 L 55.16 48.02 C 54.44 47.39 53.73 46.75 53.04 46.10 Z" />
</g>
<g id="#00000028">
<path fill="#000000" opacity="0.16" d=" M 0.00 46.85 L 0.99 47.25 L 1.01 48.09 C 0.99 49.42 0.98 50.74 0.97 52.07 C 0.97 52.52 0.95 53.42 0.95 53.87 L 0.92 54.83 L 0.00 55.22 L 0.00 46.85 Z" />
</g>
<g id="#01010142">
<path fill="#010101" opacity="0.26" d=" M 63.32 47.07 L 64.00 47.23 L 64.00 53.79 L 63.37 53.98 C 63.25 53.54 63.00 52.65 62.88 52.21 C 62.88 50.75 62.89 49.29 62.91 47.83 L 63.32 47.07 Z" />
</g>
<g id="#787777fe">
<path fill="#787777" opacity="1.00" d=" M 1.01 48.09 C 2.92 48.04 4.83 48.02 6.74 47.98 C 5.74 49.96 6.38 51.72 8.29 52.80 C 23.86 53.24 39.44 52.96 55.01 52.99 C 57.88 53.26 59.47 50.24 58.00 47.88 C 59.64 47.92 61.27 47.90 62.91 47.83 C 62.89 49.29 62.88 50.75 62.88 52.21 C 53.26 55.32 42.91 53.55 33.00 54.01 C 22.36 53.39 11.27 55.64 0.97 52.07 C 0.98 50.74 0.99 49.42 1.01 48.09 Z" />
</g>
<g id="#90908fff">
<path fill="#90908f" opacity="1.00" d=" M 6.74 47.98 L 7.71 47.96 C 7.82 49.03 8.12 50.03 8.60 50.95 L 9.16 51.73 C 24.79 51.79 40.76 52.93 56.23 51.32 C 56.25 50.93 56.29 50.17 56.30 49.78 C 56.26 49.38 56.16 48.58 56.11 48.18 C 56.58 48.10 57.53 47.95 58.00 47.88 C 59.47 50.24 57.88 53.26 55.01 52.99 C 39.44 52.96 23.86 53.24 8.29 52.80 C 6.38 51.72 5.74 49.96 6.74 47.98 Z" />
</g>
<g id="#adacacff">
<path fill="#adacac" opacity="1.00" d=" M 7.71 47.96 C 8.21 47.90 9.22 47.78 9.72 47.72 C 24.85 48.45 40.02 47.74 55.16 48.02 L 56.11 48.18 C 56.16 48.58 56.26 49.38 56.30 49.78 C 40.46 50.87 24.21 48.61 8.60 50.95 C 8.12 50.03 7.82 49.03 7.71 47.96 Z" />
</g>
<g id="#b8b6b6ff">
<path fill="#b8b6b6" opacity="1.00" d=" M 8.60 50.95 C 24.21 48.61 40.46 50.87 56.30 49.78 C 56.29 50.17 56.25 50.93 56.23 51.32 C 40.36 50.67 24.47 51.17 8.60 50.95 Z" />
</g>
<g id="#a6a5a5ff">
<path fill="#a6a5a5" opacity="1.00" d=" M 8.60 50.95 C 24.47 51.17 40.36 50.67 56.23 51.32 C 40.76 52.93 24.79 51.79 9.16 51.73 L 8.60 50.95 Z" />
</g>
<g id="#585757ff">
<path fill="#585757" opacity="1.00" d=" M 0.97 52.07 C 11.27 55.64 22.36 53.39 33.00 54.01 C 42.91 53.55 53.26 55.32 62.88 52.21 C 63.00 52.65 63.25 53.54 63.37 53.98 C 43.04 56.25 22.45 54.43 2.01 55.01 C 1.75 54.72 1.21 54.16 0.95 53.87 C 0.95 53.42 0.97 52.52 0.97 52.07 Z" />
</g>
<g id="#151415ed">
<path fill="#151415" opacity="0.93" d=" M 0.95 53.87 C 1.21 54.16 1.75 54.72 2.01 55.01 C 4.71 56.84 8.80 55.61 12.01 56.05 L 12.23 57.00 L 12.04 57.86 C 8.78 57.30 5.46 56.75 2.14 57.06 C 2.02 57.84 1.77 59.40 1.65 60.18 C 0.64 58.62 1.13 56.59 0.92 54.83 L 0.95 53.87 Z" />
</g>
<g id="#353535ff">
<path fill="#353535" opacity="1.00" d=" M 2.01 55.01 C 22.45 54.43 43.04 56.25 63.37 53.98 L 63.21 55.04 C 59.56 56.02 55.74 55.98 51.99 56.05 C 38.66 55.99 25.34 55.93 12.01 56.05 C 8.80 55.61 4.71 56.84 2.01 55.01 Z" />
</g>
<g id="#141414ee">
<path fill="#141414" opacity="0.93" d=" M 51.99 56.05 C 55.74 55.98 59.56 56.02 63.21 55.04 C 63.01 56.77 62.95 58.53 62.40 60.20 C 62.97 54.36 55.56 57.75 51.96 57.05 L 51.99 56.05 Z" />
</g>
<g id="#0e0e0e5f">
<path fill="#0e0e0e" opacity="0.37" d=" M 12.01 56.05 C 25.34 55.93 38.66 55.99 51.99 56.05 L 51.96 57.05 C 51.93 57.57 51.88 58.60 51.86 59.12 C 51.20 58.02 50.53 56.73 49.00 57.02 C 36.74 56.86 24.49 57.08 12.23 57.00 L 12.01 56.05 Z" />
</g>
<g id="#2f2f2ffe">
<path fill="#2f2f2f" opacity="1.00" d=" M 2.14 57.06 C 5.46 56.75 8.78 57.30 12.04 57.86 C 11.83 58.95 11.51 60.02 11.10 61.05 C 8.32 61.10 5.55 61.16 2.78 61.23 C 2.50 60.97 1.93 60.44 1.65 60.18 C 1.77 59.40 2.02 57.84 2.14 57.06 Z" />
<path fill="#2f2f2f" opacity="1.00" d=" M 51.96 57.05 C 55.56 57.75 62.97 54.36 62.40 60.20 L 62.13 61.05 C 59.09 61.04 56.05 61.05 53.01 61.00 C 52.72 60.53 52.15 59.59 51.86 59.12 C 51.88 58.60 51.93 57.57 51.96 57.05 Z" />
</g>
<g id="#0000001d">
<path fill="#000000" opacity="0.11" d=" M 23.74 59.68 C 30.06 58.02 36.80 59.07 43.18 59.77 C 36.71 59.92 30.21 60.20 23.74 59.68 Z" />
</g>
<g id="#00000020">
<path fill="#000000" opacity="0.13" d=" M 13.85 61.15 C 16.52 60.34 19.32 60.26 22.08 59.99 C 21.77 60.64 18.76 62.01 20.81 62.14 C 28.99 62.98 37.96 64.47 45.97 61.89 C 45.33 61.20 44.67 60.53 43.99 59.88 C 46.71 60.19 49.47 60.35 52.12 61.14 C 50.68 63.85 47.27 63.35 44.62 64.00 L 21.46 64.00 C 18.87 63.09 15.49 63.72 13.85 61.15 Z" />
</g>
<g id="#00010140">
<path fill="#000101" opacity="0.25" d=" M 22.08 59.99 C 22.50 59.91 23.32 59.76 23.74 59.68 C 30.21 60.20 36.71 59.92 43.18 59.77 L 43.99 59.88 C 44.67 60.53 45.33 61.20 45.97 61.89 C 37.96 64.47 28.99 62.98 20.81 62.14 C 18.76 62.01 21.77 60.64 22.08 59.99 Z" />
</g>
<g id="#0d0d0d98">
<path fill="#0d0d0d" opacity="0.60" d=" M 2.78 61.23 C 5.55 61.16 8.32 61.10 11.10 61.05 C 9.65 63.06 4.74 61.93 2.78 61.23 Z" />
</g>
<g id="#0b0b0c91">
<path fill="#0b0b0c" opacity="0.57" d=" M 53.01 61.00 C 56.05 61.05 59.09 61.04 62.13 61.05 C 60.70 62.94 54.41 62.24 53.01 61.00 Z" />
</g>
</svg>
