<?xml version="1.0" encoding="UTF-8" ?>
<!DOCTYPE svg PUBLIC "-//W3C//DTD SVG 1.1//EN" "http://www.w3.org/Graphics/SVG/1.1/DTD/svg11.dtd">
<svg width="64pt" height="64pt" viewBox="0 0 64 64" version="1.1" xmlns="http://www.w3.org/2000/svg">
<g id="#c45049ef">
<path fill="#c45049" opacity="0.94" d=" M 34.25 14.01 C 35.91 14.00 37.56 13.99 39.22 13.99 C 39.23 14.55 39.26 15.66 39.27 16.22 C 37.26 16.21 35.24 16.21 33.23 16.21 C 33.49 15.66 34.00 14.56 34.25 14.01 Z" />
</g>
<g id="#2e6abaf6">
<path fill="#2e6aba" opacity="0.96" d=" M 39.22 13.99 C 41.08 13.99 42.94 13.99 44.80 13.98 C 45.04 14.44 45.50 15.35 45.73 15.80 C 43.64 15.91 41.54 16.05 39.45 16.21 L 39.27 16.22 C 39.26 15.66 39.23 14.55 39.22 13.99 Z" />
</g>
<g id="#bf1a00ff">
<path fill="#bf1a00" opacity="1.00" d=" M 33.23 16.21 C 35.24 16.21 37.26 16.21 39.27 16.22 C 39.14 16.98 38.89 18.50 38.77 19.26 C 36.83 19.22 34.90 19.25 32.97 19.23 C 33.03 18.48 33.16 16.97 33.23 16.21 Z" />
</g>
<g id="#133479ee">
<path fill="#133479" opacity="0.93" d=" M 39.27 16.22 L 39.45 16.21 C 39.57 16.97 39.82 18.49 39.94 19.25 C 41.89 19.20 43.85 19.16 45.80 19.10 L 45.11 20.17 C 43.02 20.25 40.94 20.00 38.88 19.70 L 38.77 19.26 C 38.89 18.50 39.14 16.98 39.27 16.22 Z" />
</g>
<g id="#004dbaff">
<path fill="#004dba" opacity="1.00" d=" M 39.45 16.21 C 41.54 16.05 43.64 15.91 45.73 15.80 C 45.75 16.63 45.78 18.28 45.80 19.10 C 43.85 19.16 41.89 19.20 39.94 19.25 C 39.82 18.49 39.57 16.97 39.45 16.21 Z" />
</g>
<g id="#bab9b9ff">
<path fill="#bab9b9" opacity="1.00" d=" M 24.22 20.75 C 28.95 19.46 34.01 20.17 38.88 19.70 C 40.94 20.00 43.02 20.25 45.11 20.17 C 48.31 20.06 51.51 20.07 54.72 20.16 C 56.16 24.01 57.02 28.03 57.66 32.09 C 58.82 32.52 59.97 32.96 61.12 33.43 C 48.74 32.89 36.34 33.13 23.94 33.12 C 24.07 34.59 24.19 36.07 24.32 37.54 C 23.00 37.82 21.66 38.02 20.33 38.22 C 19.59 37.46 18.85 36.71 18.10 35.96 C 18.41 35.31 19.01 34.02 19.32 33.37 C 19.64 33.93 20.29 35.06 20.61 35.62 C 21.16 35.72 22.25 35.92 22.80 36.02 C 22.85 34.62 22.90 33.21 22.95 31.80 C 28.48 31.71 34.02 31.91 39.55 31.65 C 39.65 30.56 39.74 29.47 39.82 28.38 C 39.92 26.88 40.00 25.39 40.07 23.89 C 35.76 23.95 31.41 23.49 27.14 24.10 C 25.94 25.02 25.31 26.46 24.53 27.70 C 23.49 29.28 23.32 31.81 21.51 32.66 C 19.88 32.40 18.28 31.99 16.74 31.42 L 16.83 31.09 C 18.20 29.15 18.70 26.54 20.60 25.02 C 19.99 27.01 19.64 29.07 19.45 31.14 C 22.22 28.49 24.14 25.14 26.28 22.00 C 31.46 21.97 36.65 21.95 41.83 22.01 C 41.47 24.75 41.25 27.52 41.36 30.28 C 43.72 28.20 43.39 24.76 43.94 21.94 C 46.54 22.23 49.93 21.01 51.79 23.46 C 51.17 24.15 50.55 24.84 49.92 25.52 C 49.25 23.26 46.64 24.11 44.95 23.65 C 45.00 26.33 45.10 29.01 45.23 31.70 C 47.06 31.67 48.89 31.66 50.72 31.64 C 50.54 29.72 50.35 27.80 50.16 25.89 C 50.81 25.93 52.09 26.03 52.73 26.07 C 52.63 26.81 52.43 28.29 52.34 29.03 C 52.32 29.69 52.30 31.01 52.29 31.67 C 53.67 31.74 55.05 31.81 56.43 31.88 C 56.34 31.34 56.17 30.25 56.09 29.71 C 55.66 26.75 54.88 23.85 53.90 21.02 C 44.01 20.84 34.10 21.31 24.22 20.75 Z" />
</g>
<g id="#e5e5e5ff">
<path fill="#e5e5e5" opacity="1.00" d=" M 20.60 25.02 C 21.88 23.66 23.05 22.21 24.22 20.75 C 34.10 21.31 44.01 20.84 53.90 21.02 C 54.88 23.85 55.66 26.75 56.09 29.71 C 54.84 29.48 53.59 29.26 52.34 29.03 C 52.43 28.29 52.63 26.81 52.73 26.07 C 52.09 26.03 50.81 25.93 50.16 25.89 C 50.35 27.80 50.54 29.72 50.72 31.64 C 48.89 31.66 47.06 31.67 45.23 31.70 C 45.10 29.01 45.00 26.33 44.95 23.65 C 46.64 24.11 49.25 23.26 49.92 25.52 C 50.55 24.84 51.17 24.15 51.79 23.46 C 49.93 21.01 46.54 22.23 43.94 21.94 C 43.39 24.76 43.72 28.20 41.36 30.28 C 41.25 27.52 41.47 24.75 41.83 22.01 C 36.65 21.95 31.46 21.97 26.28 22.00 C 24.14 25.14 22.22 28.49 19.45 31.14 C 19.64 29.07 19.99 27.01 20.60 25.02 Z" />
</g>
<g id="#f0f0f0ff">
<path fill="#f0f0f0" opacity="1.00" d=" M 27.14 24.10 C 31.41 23.49 35.76 23.95 40.07 23.89 C 40.00 25.39 39.92 26.88 39.82 28.38 C 34.76 28.40 29.36 29.72 24.53 27.70 C 25.31 26.46 25.94 25.02 27.14 24.10 Z" />
</g>
<g id="#dbdbdcff">
<path fill="#dbdbdc" opacity="1.00" d=" M 21.51 32.66 C 23.32 31.81 23.49 29.28 24.53 27.70 C 29.36 29.72 34.76 28.40 39.82 28.38 C 39.74 29.47 39.65 30.56 39.55 31.65 C 34.02 31.91 28.48 31.71 22.95 31.80 C 22.90 33.21 22.85 34.62 22.80 36.02 C 22.25 35.92 21.16 35.72 20.61 35.62 C 20.29 35.06 19.64 33.93 19.32 33.37 L 18.94 32.65 C 19.58 32.65 20.87 32.65 21.51 32.66 Z" />
</g>
<g id="#c2c2c2ff">
<path fill="#c2c2c2" opacity="1.00" d=" M 52.34 29.03 C 53.59 29.26 54.84 29.48 56.09 29.71 C 56.17 30.25 56.34 31.34 56.43 31.88 C 55.05 31.81 53.67 31.74 52.29 31.67 C 52.30 31.01 52.32 29.69 52.34 29.03 Z" />
</g>
<g id="#000000ff">
<path fill="#000000" opacity="1.00" d=" M 3.49 35.55 C 7.61 33.04 12.84 33.80 16.83 31.09 L 16.74 31.42 C 18.28 31.99 19.88 32.40 21.51 32.66 C 20.87 32.65 19.58 32.65 18.94 32.65 C 13.98 33.02 9.13 34.30 4.35 35.62 C 4.37 36.16 4.40 37.25 4.42 37.79 C 4.44 38.44 4.47 39.75 4.49 40.40 C 3.85 40.48 2.58 40.65 1.95 40.73 C 2.16 43.20 2.34 45.67 2.49 48.15 C 4.44 47.00 6.42 45.79 8.69 45.43 C 6.99 46.65 5.48 48.12 4.22 49.79 C 3.84 51.02 3.54 52.27 3.22 53.52 C 4.17 53.47 5.13 53.41 6.08 53.35 C 7.07 51.85 8.05 50.34 9.13 48.90 C 9.62 48.58 10.61 47.95 11.10 47.63 C 14.75 47.73 17.89 49.65 19.66 52.86 C 19.59 53.28 19.45 54.14 19.38 54.56 C 21.44 53.92 23.66 52.88 22.36 50.32 C 28.48 50.82 34.63 50.36 40.76 50.76 C 41.15 51.67 41.54 52.58 41.93 53.50 C 42.60 53.49 43.93 53.48 44.59 53.48 C 45.10 52.42 45.60 51.36 46.13 50.32 C 48.39 47.31 53.12 46.91 55.72 49.71 C 56.93 51.61 57.94 54.04 60.69 53.67 C 60.29 51.76 59.89 49.80 58.84 48.12 C 58.28 47.67 57.17 46.77 56.61 46.32 C 58.54 46.62 60.49 46.75 62.44 46.86 C 62.50 42.50 63.24 38.01 61.75 33.80 L 61.89 32.94 C 63.92 37.15 63.32 42.00 64.00 46.52 L 64.00 52.38 C 62.73 54.60 60.08 54.30 57.91 54.51 C 57.08 56.61 56.42 59.15 54.11 60.10 C 51.90 61.46 49.31 60.69 47.18 59.61 C 46.58 58.83 46.01 58.02 45.49 57.19 C 45.27 56.50 44.85 55.13 44.64 54.44 C 36.14 54.34 27.60 53.99 19.14 54.94 C 19.00 55.49 18.72 56.60 18.58 57.15 C 18.03 57.99 17.43 58.81 16.80 59.61 C 14.67 60.72 12.07 61.44 9.86 60.09 C 7.59 59.13 6.90 56.62 6.08 54.54 C 3.91 54.43 1.60 54.37 0.00 52.68 L 0.00 49.88 C 0.92 45.06 1.53 40.08 3.49 35.55 M 10.11 49.81 C 5.95 51.75 7.43 58.80 11.92 59.20 C 15.89 60.32 18.96 55.53 17.60 52.06 C 16.68 49.05 12.60 48.69 10.11 49.81 M 48.19 49.90 C 43.77 52.46 46.93 60.55 51.98 59.25 C 55.40 58.90 57.10 55.07 56.11 52.02 C 54.72 49.12 50.86 48.81 48.19 49.90 Z" />
</g>
<g id="#f1f1f1ff">
<path fill="#f1f1f1" opacity="1.00" d=" M 4.35 35.62 C 9.13 34.30 13.98 33.02 18.94 32.65 L 19.32 33.37 C 19.01 34.02 18.41 35.31 18.10 35.96 C 17.88 36.36 17.45 37.15 17.23 37.55 C 12.97 37.88 8.69 37.74 4.42 37.79 C 4.40 37.25 4.37 36.16 4.35 35.62 Z" />
<path fill="#f1f1f1" opacity="1.00" d=" M 8.69 45.43 C 11.60 44.63 14.61 44.89 17.46 45.75 C 18.02 46.20 19.14 47.11 19.71 47.56 C 16.85 47.33 13.94 47.05 11.10 47.63 C 10.61 47.95 9.62 48.58 9.13 48.90 C 7.52 49.34 5.87 49.60 4.22 49.79 C 5.48 48.12 6.99 46.65 8.69 45.43 Z" />
</g>
<g id="#fafafaff">
<path fill="#fafafa" opacity="1.00" d=" M 23.94 33.12 C 36.34 33.13 48.74 32.89 61.12 33.43 C 61.31 33.30 61.70 33.06 61.89 32.94 L 61.75 33.80 C 61.40 35.56 61.22 37.36 61.16 39.15 C 60.42 38.34 59.67 37.55 58.91 36.76 C 53.03 36.63 47.11 37.07 41.26 36.22 C 39.35 35.97 37.41 36.05 35.50 36.26 C 31.76 36.61 27.97 36.57 24.32 37.54 C 24.19 36.07 24.07 34.59 23.94 33.12 Z" />
</g>
<g id="#404040ff">
<path fill="#404040" opacity="1.00" d=" M 61.16 39.15 C 61.22 37.36 61.40 35.56 61.75 33.80 C 63.24 38.01 62.50 42.50 62.44 46.86 C 60.49 46.75 58.54 46.62 56.61 46.32 C 53.11 44.26 48.71 44.34 45.31 46.57 C 41.30 45.17 37.08 46.40 32.96 46.40 C 27.78 46.66 22.63 45.89 17.46 45.75 C 14.61 44.89 11.60 44.63 8.69 45.43 C 6.42 45.79 4.44 47.00 2.49 48.15 C 2.34 45.67 2.16 43.20 1.95 40.73 C 5.84 42.02 9.96 41.53 13.97 41.59 C 29.77 41.61 45.58 41.54 61.38 41.62 C 61.32 41.01 61.21 39.77 61.16 39.15 Z" />
</g>
<g id="#dfdfdfff">
<path fill="#dfdfdf" opacity="1.00" d=" M 18.10 35.96 C 18.85 36.71 19.59 37.46 20.33 38.22 C 21.66 38.02 23.00 37.82 24.32 37.54 C 27.97 36.57 31.76 36.61 35.50 36.26 C 35.68 36.69 36.04 37.57 36.22 38.00 C 36.78 39.93 40.23 39.99 40.71 37.99 C 40.84 37.54 41.12 36.66 41.26 36.22 C 47.11 37.07 53.03 36.63 58.91 36.76 C 59.67 37.55 60.42 38.34 61.16 39.15 C 61.21 39.77 61.32 41.01 61.38 41.62 C 45.58 41.54 29.77 41.61 13.97 41.59 C 9.96 41.53 5.84 42.02 1.95 40.73 C 2.58 40.65 3.85 40.48 4.49 40.40 C 4.47 39.75 4.44 38.44 4.42 37.79 C 8.69 37.74 12.97 37.88 17.23 37.55 C 17.45 37.15 17.88 36.36 18.10 35.96 Z" />
</g>
<g id="#b4b4b4ff">
<path fill="#b4b4b4" opacity="1.00" d=" M 35.50 36.26 C 37.41 36.05 39.35 35.97 41.26 36.22 C 41.12 36.66 40.84 37.54 40.71 37.99 C 39.21 37.93 37.71 37.94 36.22 38.00 C 36.04 37.57 35.68 36.69 35.50 36.26 Z" />
</g>
<g id="#f6f6f6ff">
<path fill="#f6f6f6" opacity="1.00" d=" M 36.22 38.00 C 37.71 37.94 39.21 37.93 40.71 37.99 C 40.23 39.99 36.78 39.93 36.22 38.00 Z" />
</g>
<g id="#1f1f1fff">
<path fill="#1f1f1f" opacity="1.00" d=" M 17.46 45.75 C 22.63 45.89 27.78 46.66 32.96 46.40 C 37.08 46.40 41.30 45.17 45.31 46.57 C 44.17 47.82 43.16 49.17 42.24 50.58 C 42.10 51.55 42.02 52.52 41.93 53.50 C 41.54 52.58 41.15 51.67 40.76 50.76 C 34.63 50.36 28.48 50.82 22.36 50.32 C 23.66 52.88 21.44 53.92 19.38 54.56 C 19.45 54.14 19.59 53.28 19.66 52.86 C 20.35 52.06 21.04 51.28 21.74 50.50 C 21.06 49.51 20.43 48.51 19.71 47.56 C 19.14 47.11 18.02 46.20 17.46 45.75 Z" />
</g>
<g id="#cdcdcdff">
<path fill="#cdcdcd" opacity="1.00" d=" M 45.31 46.57 C 48.71 44.34 53.11 44.26 56.61 46.32 C 57.17 46.77 58.28 47.67 58.84 48.12 C 57.80 48.65 56.76 49.18 55.72 49.71 C 53.12 46.91 48.39 47.31 46.13 50.32 C 44.83 50.42 43.53 50.51 42.24 50.58 C 43.16 49.17 44.17 47.82 45.31 46.57 Z" />
</g>
<g id="#959595ff">
<path fill="#959595" opacity="1.00" d=" M 11.10 47.63 C 13.94 47.05 16.85 47.33 19.71 47.56 C 20.43 48.51 21.06 49.51 21.74 50.50 C 21.04 51.28 20.35 52.06 19.66 52.86 C 17.89 49.65 14.75 47.73 11.10 47.63 Z" />
</g>
<g id="#808081ff">
<path fill="#808081" opacity="1.00" d=" M 58.84 48.12 C 59.89 49.80 60.29 51.76 60.69 53.67 C 57.94 54.04 56.93 51.61 55.72 49.71 C 56.76 49.18 57.80 48.65 58.84 48.12 Z" />
</g>
<g id="#707070ff">
<path fill="#707070" opacity="1.00" d=" M 3.22 53.52 C 3.54 52.27 3.84 51.02 4.22 49.79 C 5.87 49.60 7.52 49.34 9.13 48.90 C 8.05 50.34 7.07 51.85 6.08 53.35 C 5.13 53.41 4.17 53.47 3.22 53.52 Z" />
</g>
<g id="#101010ff">
<path fill="#101010" opacity="1.00" d=" M 10.11 49.81 C 12.60 48.69 16.68 49.05 17.60 52.06 C 18.96 55.53 15.89 60.32 11.92 59.20 C 7.43 58.80 5.95 51.75 10.11 49.81 M 10.11 51.84 L 11.95 52.10 C 11.77 53.04 11.42 54.90 11.25 55.83 C 12.62 55.67 13.99 55.51 15.36 55.34 C 14.98 54.06 14.61 52.78 14.25 51.50 C 12.87 51.61 11.49 51.72 10.11 51.84 Z" />
</g>
<g id="#6e6e6fff">
<path fill="#6e6e6f" opacity="1.00" d=" M 41.93 53.50 C 42.02 52.52 42.10 51.55 42.24 50.58 C 43.53 50.51 44.83 50.42 46.13 50.32 C 45.60 51.36 45.10 52.42 44.59 53.48 C 43.93 53.48 42.60 53.49 41.93 53.50 Z" />
</g>
<g id="#0f0f0fff">
<path fill="#0f0f0f" opacity="1.00" d=" M 48.19 49.90 C 50.86 48.81 54.72 49.12 56.11 52.02 C 57.10 55.07 55.40 58.90 51.98 59.25 C 46.93 60.55 43.77 52.46 48.19 49.90 M 49.76 51.52 C 49.46 52.75 49.15 53.98 48.83 55.21 C 50.18 55.44 51.52 55.68 52.87 55.91 C 52.70 54.98 52.36 53.11 52.19 52.17 L 54.15 51.75 C 52.69 51.62 51.23 51.55 49.76 51.52 Z" />
</g>
<g id="#474747ff">
<path fill="#474747" opacity="1.00" d=" M 10.11 51.84 C 11.49 51.72 12.87 51.61 14.25 51.50 C 14.61 52.78 14.98 54.06 15.36 55.34 C 13.99 55.51 12.62 55.67 11.25 55.83 C 11.42 54.90 11.77 53.04 11.95 52.10 L 10.11 51.84 Z" />
<path fill="#474747" opacity="1.00" d=" M 49.76 51.52 C 51.23 51.55 52.69 51.62 54.15 51.75 L 52.19 52.17 C 52.36 53.11 52.70 54.98 52.87 55.91 C 51.52 55.68 50.18 55.44 48.83 55.21 C 49.15 53.98 49.46 52.75 49.76 51.52 Z" />
</g>
<g id="#0000000e">
<path fill="#000000" opacity="0.05" d=" M 19.14 54.94 C 27.60 53.99 36.14 54.34 44.64 54.44 C 44.85 55.13 45.27 56.50 45.49 57.19 C 39.65 57.28 33.84 56.23 28.01 56.77 C 24.87 57.02 21.73 57.18 18.58 57.15 C 18.72 56.60 19.00 55.49 19.14 54.94 Z" />
</g>
<g id="#00000042">
<path fill="#000000" opacity="0.26" d=" M 16.80 59.61 C 17.43 58.81 18.03 57.99 18.58 57.15 C 21.73 57.18 24.87 57.02 28.01 56.77 C 33.84 56.23 39.65 57.28 45.49 57.19 C 46.01 58.02 46.58 58.83 47.18 59.61 C 37.15 61.07 26.83 61.06 16.80 59.61 Z" />
</g>
</svg>
