<?xml version="1.0" encoding="UTF-8" ?>
<!DOCTYPE svg PUBLIC "-//W3C//DTD SVG 1.1//EN" "http://www.w3.org/Graphics/SVG/1.1/DTD/svg11.dtd">
<svg width="64pt" height="64pt" viewBox="0 0 64 64" version="1.1" xmlns="http://www.w3.org/2000/svg">
<g id="#062963eb">
<path fill="#062963" opacity="0.92" d=" M 13.28 6.23 C 23.79 3.84 34.75 5.01 45.40 5.52 C 50.15 4.72 52.95 9.05 54.26 12.82 L 54.15 13.95 C 52.92 12.74 51.81 11.24 50.01 10.90 C 50.68 10.09 50.77 9.39 50.28 8.79 C 47.62 5.80 42.94 6.22 39.27 6.20 C 34.77 6.13 30.27 6.04 25.77 6.21 C 22.30 7.75 14.55 4.11 13.18 9.09 C 13.07 9.52 12.85 10.39 12.74 10.82 C 11.76 11.84 10.81 12.89 9.82 13.90 C 10.54 11.19 10.71 7.94 13.28 6.23 Z" />
</g>
<g id="#237cc6ff">
<path fill="#237cc6" opacity="1.00" d=" M 13.18 9.09 C 14.55 4.11 22.30 7.75 25.77 6.21 C 30.19 6.63 34.99 8.01 39.27 6.20 C 42.94 6.22 47.62 5.80 50.28 8.79 C 37.92 8.24 25.51 7.30 13.18 9.09 Z" />
</g>
<g id="#4c8bb7ff">
<path fill="#4c8bb7" opacity="1.00" d=" M 25.77 6.21 C 30.27 6.04 34.77 6.13 39.27 6.20 C 34.99 8.01 30.19 6.63 25.77 6.21 Z" />
</g>
<g id="#1043cdff">
<path fill="#1043cd" opacity="1.00" d=" M 13.18 9.09 C 25.51 7.30 37.92 8.24 50.28 8.79 C 50.77 9.39 50.68 10.09 50.01 10.90 C 49.21 10.94 47.61 11.02 46.82 11.06 C 45.39 10.31 43.83 9.91 42.24 9.71 C 35.83 9.00 29.10 8.11 22.73 9.64 C 20.50 9.98 18.29 10.42 16.12 11.03 C 15.27 10.98 13.59 10.88 12.74 10.82 C 12.85 10.39 13.07 9.52 13.18 9.09 Z" />
</g>
<g id="#596c9cff">
<path fill="#596c9c" opacity="1.00" d=" M 22.73 9.64 C 29.10 8.11 35.83 9.00 42.24 9.71 C 35.75 9.92 29.21 10.25 22.73 9.64 Z" />
</g>
<g id="#cadde5ff">
<path fill="#cadde5" opacity="1.00" d=" M 16.12 11.03 C 18.29 10.42 20.50 9.98 22.73 9.64 C 29.21 10.25 35.75 9.92 42.24 9.71 C 43.83 9.91 45.39 10.31 46.82 11.06 C 48.46 13.72 51.85 15.39 52.01 18.84 C 44.96 21.15 37.26 19.47 29.99 19.99 C 26.25 20.75 21.18 18.59 18.32 21.96 C 15.04 22.14 11.85 20.53 12.01 17.07 C 12.73 14.69 14.58 12.91 16.12 11.03 Z" />
</g>
<g id="#93aeb9ff">
<path fill="#93aeb9" opacity="1.00" d=" M 9.82 13.90 C 10.81 12.89 11.76 11.84 12.74 10.82 C 13.59 10.88 15.27 10.98 16.12 11.03 C 14.58 12.91 12.73 14.69 12.01 17.07 C 11.85 20.53 15.04 22.14 18.32 21.96 L 17.96 22.82 C 17.67 23.07 17.08 23.56 16.79 23.81 C 14.21 24.19 11.61 24.50 9.07 25.10 C 9.38 21.37 9.94 17.65 9.82 13.90 Z" />
</g>
<g id="#acc4d0ff">
<path fill="#acc4d0" opacity="1.00" d=" M 46.82 11.06 C 47.61 11.02 49.21 10.94 50.01 10.90 C 51.01 13.21 52.44 15.31 54.30 17.02 C 53.97 18.64 53.50 20.23 52.75 21.71 C 50.41 21.92 48.09 22.22 45.79 22.62 C 36.52 23.52 27.24 22.32 17.96 22.82 L 18.32 21.96 C 21.18 18.59 26.25 20.75 29.99 19.99 C 37.26 19.47 44.96 21.15 52.01 18.84 C 51.85 15.39 48.46 13.72 46.82 11.06 Z" />
</g>
<g id="#829ca3ff">
<path fill="#829ca3" opacity="1.00" d=" M 50.01 10.90 C 51.81 11.24 52.92 12.74 54.15 13.95 C 54.18 14.72 54.26 16.25 54.30 17.02 C 52.44 15.31 51.01 13.21 50.01 10.90 Z" />
</g>
<g id="#0d1f3cf2">
<path fill="#0d1f3c" opacity="0.95" d=" M 54.26 12.82 C 55.39 15.49 56.04 18.32 56.84 21.10 C 56.91 21.81 57.04 23.25 57.11 23.96 C 56.86 24.53 56.37 25.65 56.13 26.21 C 55.31 26.13 53.68 25.98 52.87 25.90 C 53.22 25.63 53.92 25.09 54.28 24.83 C 56.49 23.16 54.83 19.32 54.30 17.02 C 54.26 16.25 54.18 14.72 54.15 13.95 L 54.26 12.82 Z" />
</g>
<g id="#0e1b3af1">
<path fill="#0e1b3a" opacity="0.95" d=" M 7.22 21.16 C 8.03 18.72 8.76 16.25 9.82 13.90 C 9.94 17.65 9.38 21.37 9.07 25.10 L 8.96 26.20 C 7.73 25.96 7.01 25.22 6.81 23.97 C 6.91 23.27 7.12 21.86 7.22 21.16 Z" />
</g>
<g id="#859ba5ff">
<path fill="#859ba5" opacity="1.00" d=" M 54.30 17.02 C 54.83 19.32 56.49 23.16 54.28 24.83 C 52.77 24.55 49.76 23.99 48.25 23.72 C 47.63 23.44 46.40 22.90 45.79 22.62 C 48.09 22.22 50.41 21.92 52.75 21.71 C 53.50 20.23 53.97 18.64 54.30 17.02 Z" />
</g>
<g id="#436c87ea">
<path fill="#436c87" opacity="0.92" d=" M 0.69 23.06 C 1.92 20.44 4.85 21.06 7.22 21.16 C 7.12 21.86 6.91 23.27 6.81 23.97 C 5.37 23.03 3.69 23.08 2.06 23.35 C 1.71 23.28 1.03 23.13 0.69 23.06 Z" />
</g>
<g id="#446f8bf0">
<path fill="#446f8b" opacity="0.94" d=" M 56.84 21.10 C 58.98 21.19 63.46 20.75 62.98 23.99 C 62.46 23.86 61.41 23.60 60.89 23.47 C 59.59 22.90 58.28 23.31 57.11 23.96 C 57.04 23.25 56.91 21.81 56.84 21.10 Z" />
</g>
<g id="#4a697aff">
<path fill="#4a697a" opacity="1.00" d=" M 17.96 22.82 C 27.24 22.32 36.52 23.52 45.79 22.62 C 46.40 22.90 47.63 23.44 48.25 23.72 C 44.76 23.90 41.18 23.67 37.78 24.66 C 37.36 24.75 36.52 24.94 36.09 25.03 C 34.02 25.06 31.95 25.07 29.87 25.06 C 28.69 24.97 27.51 24.88 26.33 24.77 C 23.16 24.35 19.98 23.97 16.79 23.81 C 17.08 23.56 17.67 23.07 17.96 22.82 Z" />
</g>
<g id="#092951df">
<path fill="#092951" opacity="0.87" d=" M 0.00 22.95 L 0.69 23.06 C 1.03 23.13 1.71 23.28 2.06 23.35 C 2.67 24.80 2.93 26.37 3.20 27.91 C 1.66 28.01 0.78 26.92 0.00 25.77 L 0.00 22.95 Z" />
</g>
<g id="#054284f9">
<path fill="#054284" opacity="0.98" d=" M 2.06 23.35 C 3.69 23.08 5.37 23.03 6.81 23.97 C 7.01 25.22 7.73 25.96 8.96 26.20 C 5.50 27.72 5.73 31.70 4.75 34.82 L 3.84 35.19 L 2.84 34.91 C 1.84 32.54 6.57 28.26 3.20 27.91 C 2.93 26.37 2.67 24.80 2.06 23.35 Z" />
</g>
<g id="#033f82fa">
<path fill="#033f82" opacity="0.98" d=" M 57.11 23.96 C 58.28 23.31 59.59 22.90 60.89 23.47 C 60.66 24.96 60.86 26.47 60.93 27.96 C 57.29 27.61 62.00 31.58 61.35 33.69 L 60.25 33.98 C 58.97 31.34 57.88 28.58 56.13 26.21 C 56.37 25.65 56.86 24.53 57.11 23.96 Z" />
</g>
<g id="#093f6cff">
<path fill="#093f6c" opacity="1.00" d=" M 9.07 25.10 C 11.61 24.50 14.21 24.19 16.79 23.81 C 19.98 23.97 23.16 24.35 26.33 24.77 C 25.55 24.81 23.98 24.90 23.20 24.94 C 22.69 24.96 21.67 24.99 21.16 25.01 C 17.07 25.05 13.02 25.72 8.96 26.20 L 9.07 25.10 Z" />
</g>
<g id="#155282ff">
<path fill="#155282" opacity="1.00" d=" M 37.78 24.66 C 41.18 23.67 44.76 23.90 48.25 23.72 C 49.76 23.99 52.77 24.55 54.28 24.83 C 53.92 25.09 53.22 25.63 52.87 25.90 C 49.51 25.66 46.17 25.19 42.80 25.10 C 42.12 25.06 40.77 24.98 40.09 24.94 C 39.51 24.87 38.36 24.73 37.78 24.66 Z" />
</g>
<g id="#082d5bf5">
<path fill="#082d5b" opacity="0.96" d=" M 60.93 27.96 C 60.86 26.47 60.66 24.96 60.89 23.47 C 61.41 23.60 62.46 23.86 62.98 23.99 C 62.95 25.76 63.81 28.78 60.93 27.96 Z" />
</g>
<g id="#0589e9ff">
<path fill="#0589e9" opacity="1.00" d=" M 8.96 26.20 C 13.02 25.72 17.07 25.05 21.16 25.01 C 20.39 25.98 19.62 26.95 18.85 27.92 C 16.53 28.37 14.22 28.85 11.87 29.11 C 10.27 29.33 8.11 29.72 7.78 31.62 C 7.55 32.19 7.09 33.35 6.86 33.92 C 6.33 34.15 5.28 34.59 4.75 34.82 C 5.73 31.70 5.50 27.72 8.96 26.20 Z" />
</g>
<g id="#2ea2f4ff">
<path fill="#2ea2f4" opacity="1.00" d=" M 21.16 25.01 C 21.67 24.99 22.69 24.96 23.20 24.94 C 23.73 26.25 23.14 27.31 22.17 28.20 C 21.34 28.13 19.68 27.99 18.85 27.92 C 19.62 26.95 20.39 25.98 21.16 25.01 Z" />
</g>
<g id="#50b2f7ff">
<path fill="#50b2f7" opacity="1.00" d=" M 23.20 24.94 C 23.98 24.90 25.55 24.81 26.33 24.77 C 26.37 25.89 26.36 27.00 26.27 28.12 C 24.90 28.12 23.54 28.15 22.17 28.20 C 23.14 27.31 23.73 26.25 23.20 24.94 Z" />
</g>
<g id="#71c4f8ff">
<path fill="#71c4f8" opacity="1.00" d=" M 26.33 24.77 C 27.51 24.88 28.69 24.97 29.87 25.06 C 30.61 25.65 31.33 26.25 32.04 26.88 C 30.17 27.51 28.23 27.91 26.27 28.12 C 26.36 27.00 26.37 25.89 26.33 24.77 Z" />
</g>
<g id="#8ccaf7ff">
<path fill="#8ccaf7" opacity="1.00" d=" M 29.87 25.06 C 31.95 25.07 34.02 25.06 36.09 25.03 C 35.37 25.63 34.66 26.25 33.97 26.89 C 35.90 27.55 37.90 27.90 39.92 28.09 C 41.32 29.00 42.76 29.87 44.10 30.86 C 39.33 32.41 34.21 31.94 29.26 31.94 C 27.91 31.66 25.21 31.11 23.86 30.83 C 23.91 29.36 25.18 28.78 26.27 28.12 C 28.23 27.91 30.17 27.51 32.04 26.88 C 31.33 26.25 30.61 25.65 29.87 25.06 Z" />
</g>
<g id="#6ac1f9ff">
<path fill="#6ac1f9" opacity="1.00" d=" M 36.09 25.03 C 36.52 24.94 37.36 24.75 37.78 24.66 C 38.36 24.73 39.51 24.87 40.09 24.94 C 37.96 25.78 38.22 26.91 39.92 28.09 C 37.90 27.90 35.90 27.55 33.97 26.89 C 34.66 26.25 35.37 25.63 36.09 25.03 Z" />
</g>
<g id="#4aaef3ff">
<path fill="#4aaef3" opacity="1.00" d=" M 40.09 24.94 C 40.77 24.98 42.12 25.06 42.80 25.10 C 45.85 30.06 52.80 27.91 56.98 31.15 C 56.74 32.17 56.42 33.18 56.03 34.16 C 55.58 34.17 54.67 34.21 54.22 34.22 C 52.22 33.86 50.25 33.30 48.22 33.14 C 47.63 33.07 46.44 32.93 45.85 32.86 C 48.23 33.18 53.24 31.70 50.08 29.89 C 46.72 29.12 43.33 28.52 39.92 28.09 C 38.22 26.91 37.96 25.78 40.09 24.94 Z" />
</g>
<g id="#0889e6ff">
<path fill="#0889e6" opacity="1.00" d=" M 42.80 25.10 C 46.17 25.19 49.51 25.66 52.87 25.90 C 53.68 25.98 55.31 26.13 56.13 26.21 C 57.88 28.58 58.97 31.34 60.25 33.98 C 59.95 34.17 59.36 34.57 59.06 34.76 C 58.05 34.58 57.04 34.38 56.03 34.16 C 56.42 33.18 56.74 32.17 56.98 31.15 C 52.80 27.91 45.85 30.06 42.80 25.10 Z" />
</g>
<g id="#0100020c">
<path fill="#010002" opacity="0.05" d=" M 0.00 25.77 C 0.78 26.92 1.66 28.01 3.20 27.91 C 6.57 28.26 1.84 32.54 2.84 34.91 L 2.74 35.80 C 2.29 39.45 1.96 43.11 1.73 46.77 C 1.60 51.46 -0.28 56.75 1.74 61.22 C 2.97 64.01 7.49 61.50 9.96 61.97 C 11.86 62.03 11.84 59.48 12.25 58.16 C 13.88 58.17 17.13 58.17 18.76 58.18 C 20.31 58.39 23.41 58.81 24.97 59.02 L 25.02 59.98 C 24.56 60.01 23.64 60.09 23.18 60.12 C 20.02 60.29 16.87 60.51 13.79 61.27 C 16.38 62.98 19.56 63.10 22.46 64.00 L 0.00 64.00 L 0.00 25.77 Z" />
</g>
<g id="#57aef5ff">
<path fill="#57aef5" opacity="1.00" d=" M 11.87 29.11 C 14.22 28.85 16.53 28.37 18.85 27.92 C 19.68 27.99 21.34 28.13 22.17 28.20 C 20.12 29.06 18.02 29.78 15.91 30.43 C 19.78 33.14 24.91 31.32 29.26 31.94 L 28.95 32.95 C 27.56 33.03 26.18 33.12 24.79 33.19 C 21.83 33.11 18.88 33.07 15.92 33.01 L 15.11 32.93 C 14.04 31.65 12.96 30.38 11.87 29.11 Z" />
</g>
<g id="#74bbf6ff">
<path fill="#74bbf6" opacity="1.00" d=" M 22.17 28.20 C 23.54 28.15 24.90 28.12 26.27 28.12 C 25.18 28.78 23.91 29.36 23.86 30.83 C 25.21 31.11 27.91 31.66 29.26 31.94 C 24.91 31.32 19.78 33.14 15.91 30.43 C 18.02 29.78 20.12 29.06 22.17 28.20 Z" />
</g>
<g id="#6db8f5ff">
<path fill="#6db8f5" opacity="1.00" d=" M 39.92 28.09 C 43.33 28.52 46.72 29.12 50.08 29.89 C 53.24 31.70 48.23 33.18 45.85 32.86 C 40.22 32.99 34.58 32.98 28.95 32.95 L 29.26 31.94 C 34.21 31.94 39.33 32.41 44.10 30.86 C 42.76 29.87 41.32 29.00 39.92 28.09 Z" />
</g>
<g id="#4892e6ff">
<path fill="#4892e6" opacity="1.00" d=" M 7.78 31.62 C 8.11 29.72 10.27 29.33 11.87 29.11 C 12.96 30.38 14.04 31.65 15.11 32.93 C 14.67 32.97 13.78 33.04 13.33 33.07 C 11.53 32.44 9.66 31.98 7.78 31.62 Z" />
</g>
<g id="#33d1f9ff">
<path fill="#33d1f9" opacity="1.00" d=" M 6.86 33.92 C 7.09 33.35 7.55 32.19 7.78 31.62 C 9.66 31.98 11.53 32.44 13.33 33.07 C 12.72 33.34 11.50 33.89 10.89 34.16 C 9.55 34.07 8.21 33.99 6.86 33.92 Z" />
</g>
<g id="#0581e5ff">
<path fill="#0581e5" opacity="1.00" d=" M 13.33 33.07 C 13.78 33.04 14.67 32.97 15.11 32.93 L 15.92 33.01 C 16.97 34.33 18.03 35.63 19.03 36.99 L 19.05 37.98 C 18.13 43.45 25.34 42.90 28.94 44.09 L 29.05 45.00 C 24.69 45.95 18.32 43.28 14.78 45.86 C 26.28 46.36 37.78 47.83 49.23 45.81 C 51.80 45.85 54.31 45.22 56.86 44.88 C 58.68 47.77 54.88 50.26 57.12 52.82 C 53.11 56.63 46.97 54.52 41.92 55.03 L 42.14 54.15 C 43.28 54.02 44.33 53.66 45.29 53.07 C 46.45 52.66 48.24 50.02 46.23 49.78 C 37.55 48.35 28.23 47.07 19.73 49.78 C 18.23 50.34 18.78 53.49 20.65 53.27 C 21.21 53.47 22.33 53.88 22.89 54.08 L 23.07 55.01 C 17.74 54.32 11.23 56.97 6.80 52.91 L 7.10 52.32 C 7.32 51.76 7.75 50.64 7.97 50.09 C 7.98 48.33 8.01 44.80 8.02 43.04 C 11.36 43.00 14.72 43.12 18.06 42.92 L 17.86 42.03 C 17.26 40.75 17.45 38.74 16.06 38.05 C 15.13 37.59 14.18 37.17 13.22 36.78 C 12.44 35.91 11.66 35.04 10.89 34.16 C 11.50 33.89 12.72 33.34 13.33 33.07 Z" />
</g>
<g id="#0995f4ff">
<path fill="#0995f4" opacity="1.00" d=" M 15.92 33.01 C 18.88 33.07 21.83 33.11 24.79 33.19 C 27.75 34.03 30.63 35.14 33.23 36.82 C 28.50 36.90 23.76 37.02 19.03 36.99 C 18.03 35.63 16.97 34.33 15.92 33.01 Z" />
</g>
<g id="#36a4f3ff">
<path fill="#36a4f3" opacity="1.00" d=" M 24.79 33.19 C 26.18 33.12 27.56 33.03 28.95 32.95 C 34.58 32.98 40.22 32.99 45.85 32.86 C 46.44 32.93 47.63 33.07 48.22 33.14 C 45.79 33.69 43.12 34.09 44.77 37.09 C 40.92 37.02 37.07 36.93 33.23 36.82 C 30.63 35.14 27.75 34.03 24.79 33.19 Z" />
</g>
<g id="#118be7ff">
<path fill="#118be7" opacity="1.00" d=" M 48.22 33.14 C 50.25 33.30 52.22 33.86 54.22 34.22 C 52.53 35.12 50.74 35.81 49.10 36.79 C 48.79 37.08 48.17 37.68 47.86 37.97 C 46.80 39.04 46.21 40.48 45.78 41.90 C 47.65 41.86 51.37 41.80 53.24 41.77 C 54.82 41.91 56.41 42.01 58.00 42.09 C 57.59 43.01 57.21 43.94 56.86 44.88 C 54.31 45.22 51.80 45.85 49.23 45.81 C 46.79 45.46 44.35 45.15 41.91 44.91 C 43.45 43.80 44.99 42.55 41.90 42.86 C 43.77 41.80 45.75 40.50 44.94 38.01 L 44.77 37.09 C 43.12 34.09 45.79 33.69 48.22 33.14 Z" />
</g>
<g id="#929191ff">
<path fill="#929191" opacity="1.00" d=" M 4.75 34.82 C 5.28 34.59 6.33 34.15 6.86 33.92 C 8.21 33.99 9.55 34.07 10.89 34.16 C 11.66 35.04 12.44 35.91 13.22 36.78 C 12.83 38.21 12.39 39.63 12.07 41.08 L 11.84 41.97 C 9.88 42.01 7.92 42.02 5.96 42.03 L 4.99 42.00 C 4.38 39.77 4.00 37.49 3.84 35.19 L 4.75 34.82 M 7.03 35.97 C 6.96 37.32 6.96 38.68 7.03 40.03 C 8.53 40.14 11.03 40.05 10.95 38.00 C 11.03 35.95 8.53 35.86 7.03 35.97 Z" />
</g>
<g id="#7f8389ff">
<path fill="#7f8389" opacity="1.00" d=" M 54.22 34.22 C 54.67 34.21 55.58 34.17 56.03 34.16 C 57.04 34.38 58.05 34.58 59.06 34.76 C 59.13 36.14 59.28 38.91 59.35 40.29 C 58.69 39.11 58.01 37.94 57.27 36.81 C 55.57 34.55 52.94 36.74 52.73 39.07 C 52.39 39.00 51.70 38.87 51.36 38.81 C 50.88 37.82 50.13 37.15 49.10 36.79 C 50.74 35.81 52.53 35.12 54.22 34.22 Z" />
</g>
<g id="#425a71ff">
<path fill="#425a71" opacity="1.00" d=" M 59.06 34.76 C 59.36 34.57 59.95 34.17 60.25 33.98 L 61.35 33.69 C 61.23 35.48 60.97 39.05 60.84 40.84 C 60.47 40.93 59.75 41.11 59.38 41.20 L 59.35 40.29 C 59.28 38.91 59.13 36.14 59.06 34.76 Z" />
</g>
<g id="#02204ff8">
<path fill="#02204f" opacity="0.97" d=" M 61.35 33.69 C 62.47 37.94 61.84 42.42 62.35 46.74 C 62.21 49.47 62.09 52.20 61.98 54.92 L 61.05 55.03 C 61.00 50.60 60.90 46.17 60.77 41.74 L 60.84 40.84 C 60.97 39.05 61.23 35.48 61.35 33.69 Z" />
</g>
<g id="#455b74ff">
<path fill="#455b74" opacity="1.00" d=" M 2.84 34.91 L 3.84 35.19 C 4.00 37.49 4.38 39.77 4.99 42.00 L 4.07 41.99 C 3.83 41.70 3.33 41.10 3.09 40.81 C 2.97 39.14 2.85 37.47 2.74 35.80 L 2.84 34.91 Z" />
</g>
<g id="#041e48f0">
<path fill="#041e48" opacity="0.94" d=" M 1.73 46.77 C 1.96 43.11 2.29 39.45 2.74 35.80 C 2.85 37.47 2.97 39.14 3.09 40.81 C 3.43 45.89 2.02 51.28 3.85 56.19 C 3.40 56.13 2.50 56.00 2.04 55.93 C 1.97 52.87 1.91 49.83 1.73 46.77 Z" />
</g>
<g id="#e5e783ff">
<path fill="#e5e783" opacity="1.00" d=" M 7.03 35.97 C 8.53 35.86 11.03 35.95 10.95 38.00 C 11.03 40.05 8.53 40.14 7.03 40.03 C 6.96 38.68 6.96 37.32 7.03 35.97 Z" />
</g>
<g id="#e7e985ff">
<path fill="#e7e985" opacity="1.00" d=" M 52.73 39.07 C 52.94 36.74 55.57 34.55 57.27 36.81 C 57.98 40.57 55.32 40.22 52.73 39.07 Z" />
</g>
<g id="#c0d7b1ff">
<path fill="#c0d7b1" opacity="1.00" d=" M 13.22 36.78 C 14.18 37.17 15.13 37.59 16.06 38.05 C 16.83 41.12 14.48 41.23 12.07 41.08 C 12.39 39.63 12.83 38.21 13.22 36.78 Z" />
</g>
<g id="#0d76c1ff">
<path fill="#0d76c1" opacity="1.00" d=" M 19.03 36.99 C 23.76 37.02 28.50 36.90 33.23 36.82 C 37.07 36.93 40.92 37.02 44.77 37.09 L 44.94 38.01 C 36.31 37.97 27.68 38.03 19.05 37.98 L 19.03 36.99 Z" />
</g>
<g id="#dbe8d3ff">
<path fill="#dbe8d3" opacity="1.00" d=" M 49.10 36.79 C 50.13 37.15 50.88 37.82 51.36 38.81 C 50.99 39.36 50.27 40.47 49.91 41.03 C 47.79 41.39 47.96 39.48 47.86 37.97 C 48.17 37.68 48.79 37.08 49.10 36.79 Z" />
</g>
<g id="#9ca095ff">
<path fill="#9ca095" opacity="1.00" d=" M 57.27 36.81 C 58.01 37.94 58.69 39.11 59.35 40.29 L 59.38 41.20 C 59.04 41.42 58.34 41.87 58.00 42.09 C 56.41 42.01 54.82 41.91 53.24 41.77 C 52.14 41.49 51.03 41.24 49.91 41.03 C 50.27 40.47 50.99 39.36 51.36 38.81 C 51.70 38.87 52.39 39.00 52.73 39.07 C 55.32 40.22 57.98 40.57 57.27 36.81 Z" />
</g>
<g id="#5b7295ff">
<path fill="#5b7295" opacity="1.00" d=" M 16.06 38.05 C 17.45 38.74 17.26 40.75 17.86 42.03 C 15.85 42.00 13.85 41.99 11.84 41.97 L 12.07 41.08 C 14.48 41.23 16.83 41.12 16.06 38.05 Z" />
</g>
<g id="#75797dff">
<path fill="#75797d" opacity="1.00" d=" M 19.05 37.98 C 27.68 38.03 36.31 37.97 44.94 38.01 C 45.75 40.50 43.77 41.80 41.90 42.86 C 37.60 43.42 33.28 44.02 28.94 44.09 C 25.34 42.90 18.13 43.45 19.05 37.98 M 19.78 39.12 C 23.21 42.72 29.34 42.61 33.95 42.96 C 37.11 41.46 42.32 42.77 44.13 39.09 C 36.02 38.81 27.89 39.00 19.78 39.12 Z" />
</g>
<g id="#5e7caaff">
<path fill="#5e7caa" opacity="1.00" d=" M 45.78 41.90 C 46.21 40.48 46.80 39.04 47.86 37.97 C 47.96 39.48 47.79 41.39 49.91 41.03 C 51.03 41.24 52.14 41.49 53.24 41.77 C 51.37 41.80 47.65 41.86 45.78 41.90 Z" />
</g>
<g id="#383432ff">
<path fill="#383432" opacity="1.00" d=" M 19.78 39.12 C 27.89 39.00 36.02 38.81 44.13 39.09 C 42.32 42.77 37.11 41.46 33.95 42.96 C 29.34 42.61 23.21 42.72 19.78 39.12 M 29.27 40.29 C 30.39 41.83 33.88 41.14 35.73 40.71 C 34.61 39.17 31.12 39.86 29.27 40.29 Z" />
</g>
<g id="#9b9b9bff">
<path fill="#9b9b9b" opacity="1.00" d=" M 29.27 40.29 C 31.12 39.86 34.61 39.17 35.73 40.71 C 33.88 41.14 30.39 41.83 29.27 40.29 Z" />
</g>
<g id="#064083ff">
<path fill="#064083" opacity="1.00" d=" M 3.09 40.81 C 3.33 41.10 3.83 41.70 4.07 41.99 C 5.55 45.72 1.17 52.85 5.82 54.94 C 9.81 56.95 14.66 55.53 18.99 56.03 L 19.02 57.01 C 15.59 57.01 12.16 57.02 8.73 57.27 C 7.09 56.97 5.46 56.62 3.85 56.19 C 2.02 51.28 3.43 45.89 3.09 40.81 Z" />
</g>
<g id="#194d96ff">
<path fill="#194d96" opacity="1.00" d=" M 59.38 41.20 C 59.75 41.11 60.47 40.93 60.84 40.84 L 60.77 41.74 C 60.01 46.21 59.94 50.77 60.20 55.29 C 59.92 55.50 59.34 55.91 59.06 56.12 C 58.58 56.11 57.64 56.09 57.16 56.08 C 57.50 54.98 58.03 53.80 57.12 52.82 C 54.88 50.26 58.68 47.77 56.86 44.88 C 57.21 43.94 57.59 43.01 58.00 42.09 C 58.34 41.87 59.04 41.42 59.38 41.20 Z" />
</g>
<g id="#1f57a7ff">
<path fill="#1f57a7" opacity="1.00" d=" M 4.07 41.99 L 4.99 42.00 L 5.96 42.03 L 6.07 43.01 C 6.27 44.95 6.46 46.92 6.13 48.87 C 4.60 50.04 4.72 52.58 7.10 52.32 L 6.80 52.91 C 6.56 53.42 6.06 54.44 5.82 54.94 C 1.17 52.85 5.55 45.72 4.07 41.99 Z" />
</g>
<g id="#479ae1ff">
<path fill="#479ae1" opacity="1.00" d=" M 5.96 42.03 C 7.92 42.02 9.88 42.01 11.84 41.97 C 13.85 41.99 15.85 42.00 17.86 42.03 L 18.06 42.92 C 14.72 43.12 11.36 43.00 8.02 43.04 C 7.53 43.03 6.56 43.01 6.07 43.01 L 5.96 42.03 Z" />
</g>
<g id="#094186ff">
<path fill="#094186" opacity="1.00" d=" M 60.20 55.29 C 59.94 50.77 60.01 46.21 60.77 41.74 C 60.90 46.17 61.00 50.60 61.05 55.03 L 60.20 55.29 Z" />
</g>
<g id="#1163c3ff">
<path fill="#1163c3" opacity="1.00" d=" M 6.07 43.01 C 6.56 43.01 7.53 43.03 8.02 43.04 C 8.01 44.80 7.98 48.33 7.97 50.09 C 7.51 49.78 6.59 49.17 6.13 48.87 C 6.46 46.92 6.27 44.95 6.07 43.01 Z" />
</g>
<g id="#319ce8ff">
<path fill="#319ce8" opacity="1.00" d=" M 28.94 44.09 C 33.28 44.02 37.60 43.42 41.90 42.86 C 44.99 42.55 43.45 43.80 41.91 44.91 C 37.62 44.96 33.33 45.04 29.05 45.00 L 28.94 44.09 Z" />
</g>
<g id="#6bc3f4ff">
<path fill="#6bc3f4" opacity="1.00" d=" M 14.78 45.86 C 18.32 43.28 24.69 45.95 29.05 45.00 C 33.33 45.04 37.62 44.96 41.91 44.91 C 44.35 45.15 46.79 45.46 49.23 45.81 C 37.78 47.83 26.28 46.36 14.78 45.86 Z" />
</g>
<g id="#16081086">
<path fill="#160810" opacity="0.53" d=" M 1.74 61.22 C -0.28 56.75 1.60 51.46 1.73 46.77 C 1.91 49.83 1.97 52.87 2.04 55.93 C 2.01 56.71 1.95 58.25 1.92 59.02 C 1.87 59.57 1.78 60.67 1.74 61.22 Z" />
</g>
<g id="#1608108b">
<path fill="#160810" opacity="0.55" d=" M 62.35 46.74 C 63.55 51.43 63.40 56.62 62.25 61.20 C 62.21 60.66 62.12 59.57 62.08 59.03 C 62.04 57.66 62.00 56.29 61.98 54.92 C 62.09 52.20 62.21 49.47 62.35 46.74 Z" />
</g>
<g id="#13a2f9ff">
<path fill="#13a2f9" opacity="1.00" d=" M 19.73 49.78 C 28.23 47.07 37.55 48.35 46.23 49.78 C 45.49 49.91 44.00 50.18 43.26 50.31 C 36.09 50.01 28.91 49.88 21.73 50.14 C 21.23 50.05 20.23 49.87 19.73 49.78 Z" />
</g>
<g id="#0b1e4aff">
<path fill="#0b1e4a" opacity="1.00" d=" M 6.13 48.87 C 6.59 49.17 7.51 49.78 7.97 50.09 C 7.75 50.64 7.32 51.76 7.10 52.32 C 4.72 52.58 4.60 50.04 6.13 48.87 Z" />
</g>
<g id="#0b0b1bff">
<path fill="#0b0b1b" opacity="1.00" d=" M 20.65 53.27 C 18.78 53.49 18.23 50.34 19.73 49.78 C 20.23 49.87 21.23 50.05 21.73 50.14 C 28.80 51.46 36.16 51.41 43.26 50.31 C 44.00 50.18 45.49 49.91 46.23 49.78 C 48.24 50.02 46.45 52.66 45.29 53.07 C 37.36 52.17 28.26 50.15 20.65 53.27 Z" />
</g>
<g id="#033e68ff">
<path fill="#033e68" opacity="1.00" d=" M 21.73 50.14 C 28.91 49.88 36.09 50.01 43.26 50.31 C 36.16 51.41 28.80 51.46 21.73 50.14 Z" />
</g>
<g id="#293758ff">
<path fill="#293758" opacity="1.00" d=" M 20.65 53.27 C 28.26 50.15 37.36 52.17 45.29 53.07 C 44.33 53.66 43.28 54.02 42.14 54.15 C 35.72 54.01 29.30 53.97 22.89 54.08 C 22.33 53.88 21.21 53.47 20.65 53.27 Z" />
</g>
<g id="#0166beff">
<path fill="#0166be" opacity="1.00" d=" M 5.82 54.94 C 6.06 54.44 6.56 53.42 6.80 52.91 C 11.23 56.97 17.74 54.32 23.07 55.01 C 29.36 55.01 35.64 55.04 41.92 55.03 C 46.97 54.52 53.11 56.63 57.12 52.82 C 58.03 53.80 57.50 54.98 57.16 56.08 C 53.44 56.05 49.72 55.97 46.00 56.01 C 37.00 55.98 27.99 55.98 18.99 56.03 C 14.66 55.53 9.81 56.95 5.82 54.94 Z" />
</g>
<g id="#3694e3ff">
<path fill="#3694e3" opacity="1.00" d=" M 22.89 54.08 C 29.30 53.97 35.72 54.01 42.14 54.15 L 41.92 55.03 C 35.64 55.04 29.36 55.01 23.07 55.01 L 22.89 54.08 Z" />
</g>
<g id="#2c2a30ff">
<path fill="#2c2a30" opacity="1.00" d=" M 60.20 55.29 L 61.05 55.03 L 61.98 54.92 C 62.00 56.29 62.04 57.66 62.08 59.03 C 58.99 61.30 55.10 61.52 52.07 59.00 L 51.84 58.13 C 52.99 57.91 54.14 57.66 55.28 57.38 C 56.55 57.03 57.98 56.96 59.06 56.12 C 59.34 55.91 59.92 55.50 60.20 55.29 Z" />
</g>
<g id="#2e2c31ff">
<path fill="#2e2c31" opacity="1.00" d=" M 2.04 55.93 C 2.50 56.00 3.40 56.13 3.85 56.19 C 5.46 56.62 7.09 56.97 8.73 57.27 C 9.38 57.49 10.67 57.94 11.32 58.16 C 9.76 62.33 4.75 61.02 1.92 59.02 C 1.95 58.25 2.01 56.71 2.04 55.93 Z" />
</g>
<g id="#005398ff">
<path fill="#005398" opacity="1.00" d=" M 18.99 56.03 C 27.99 55.98 37.00 55.98 46.00 56.01 L 46.00 57.00 C 45.49 57.02 44.47 57.06 43.96 57.08 C 35.99 56.99 28.02 56.96 20.05 57.03 L 19.02 57.01 L 18.99 56.03 Z" />
</g>
<g id="#003b7dff">
<path fill="#003b7d" opacity="1.00" d=" M 46.00 56.01 C 49.72 55.97 53.44 56.05 57.16 56.08 C 57.64 56.09 58.58 56.11 59.06 56.12 C 57.98 56.96 56.55 57.03 55.28 57.38 C 52.18 57.24 49.10 57.05 46.00 57.00 L 46.00 56.01 Z" />
</g>
<g id="#041b41f9">
<path fill="#041b41" opacity="0.98" d=" M 8.73 57.27 C 12.16 57.02 15.59 57.01 19.02 57.01 L 20.05 57.03 L 19.81 58.11 L 18.76 58.18 C 17.13 58.17 13.88 58.17 12.25 58.16 L 11.32 58.16 C 10.67 57.94 9.38 57.49 8.73 57.27 Z" />
</g>
<g id="#002f5fff">
<path fill="#002f5f" opacity="1.00" d=" M 20.05 57.03 C 28.02 56.96 35.99 56.99 43.96 57.08 L 44.26 58.17 C 36.11 58.02 27.96 57.86 19.81 58.11 L 20.05 57.03 Z" />
</g>
<g id="#061f45fc">
<path fill="#061f45" opacity="1.00" d=" M 43.96 57.08 C 44.47 57.06 45.49 57.02 46.00 57.00 C 49.10 57.05 52.18 57.24 55.28 57.38 C 54.14 57.66 52.99 57.91 51.84 58.13 C 49.31 58.10 46.79 58.11 44.26 58.17 L 43.96 57.08 Z" />
</g>
<g id="#121212f0">
<path fill="#121212" opacity="0.94" d=" M 11.32 58.16 L 12.25 58.16 C 11.84 59.48 11.86 62.03 9.96 61.97 C 7.49 61.50 2.97 64.01 1.74 61.22 C 1.78 60.67 1.87 59.57 1.92 59.02 C 4.75 61.02 9.76 62.33 11.32 58.16 Z" />
</g>
<g id="#0007188f">
<path fill="#000718" opacity="0.56" d=" M 18.76 58.18 L 19.81 58.11 C 27.96 57.86 36.11 58.02 44.26 58.17 C 37.89 59.25 31.41 59.01 24.97 59.02 C 23.41 58.81 20.31 58.39 18.76 58.18 Z" />
</g>
<g id="#00000121">
<path fill="#000001" opacity="0.13" d=" M 44.26 58.17 C 46.79 58.11 49.31 58.10 51.84 58.13 L 52.07 59.00 C 52.32 60.02 52.61 61.03 52.92 62.03 C 50.16 62.72 47.38 63.35 44.62 64.00 L 22.46 64.00 C 19.56 63.10 16.38 62.98 13.79 61.27 C 16.87 60.51 20.02 60.29 23.18 60.12 C 22.09 60.69 20.75 60.91 19.90 61.86 C 28.42 63.54 37.36 63.59 45.88 61.91 L 45.89 61.09 C 39.04 59.57 31.97 60.05 25.02 59.98 L 24.97 59.02 C 31.41 59.01 37.89 59.25 44.26 58.17 Z" />
</g>
<g id="#121111f0">
<path fill="#121111" opacity="0.94" d=" M 52.07 59.00 C 55.10 61.52 58.99 61.30 62.08 59.03 C 62.12 59.57 62.21 60.66 62.25 61.20 C 60.05 63.18 55.75 61.34 52.92 62.03 C 52.61 61.03 52.32 60.02 52.07 59.00 Z" />
</g>
<g id="#00000041">
<path fill="#000000" opacity="0.25" d=" M 23.18 60.12 C 23.64 60.09 24.56 60.01 25.02 59.98 C 31.97 60.05 39.04 59.57 45.89 61.09 L 45.88 61.91 C 37.36 63.59 28.42 63.54 19.90 61.86 C 20.75 60.91 22.09 60.69 23.18 60.12 Z" />
</g>
</svg>
