<?xml version="1.0" encoding="UTF-8" ?>
<!DOCTYPE svg PUBLIC "-//W3C//DTD SVG 1.1//EN" "http://www.w3.org/Graphics/SVG/1.1/DTD/svg11.dtd">
<svg width="64pt" height="64pt" viewBox="0 0 64 64" version="1.1" xmlns="http://www.w3.org/2000/svg">
<g id="#9e905dfd">
<path fill="#9e905d" opacity="1.00" d=" M 35.26 9.11 C 41.75 8.90 48.25 8.88 54.74 9.07 C 54.27 14.18 55.13 19.31 55.49 24.40 C 56.98 25.49 58.36 26.77 58.06 28.80 C 56.68 28.74 54.49 27.75 54.09 29.78 C 58.00 32.68 62.12 35.63 64.00 40.32 L 64.00 47.62 C 62.40 52.36 59.14 56.57 54.33 58.34 C 47.20 62.13 38.21 57.45 35.79 50.22 C 29.41 51.56 22.84 50.75 16.38 51.16 C 15.68 53.82 15.53 57.49 12.36 58.41 C 8.18 61.12 4.56 57.77 2.24 54.74 C 0.19 47.03 0.85 38.82 3.27 31.28 C 6.60 28.48 11.66 28.94 15.60 27.51 C 18.53 26.38 22.56 28.32 24.78 25.74 C 25.92 23.85 23.22 20.79 25.18 19.07 C 31.28 18.58 23.04 31.35 32.79 26.96 C 33.36 20.97 34.63 15.09 35.26 9.11 Z" />
</g>
</svg>
