<?xml version="1.0" encoding="UTF-8" ?>
<!DOCTYPE svg PUBLIC "-//W3C//DTD SVG 1.1//EN" "http://www.w3.org/Graphics/SVG/1.1/DTD/svg11.dtd">
<svg width="64pt" height="64pt" viewBox="0 0 64 64" version="1.1" xmlns="http://www.w3.org/2000/svg">
<g id="#828080ff">
<path fill="#828080" opacity="1.00" d=" M 27.22 0.00 L 36.18 0.00 L 36.69 1.06 C 34.26 4.43 29.67 2.50 26.21 2.58 C 26.47 1.93 26.97 0.64 27.22 0.00 Z" />
<path fill="#828080" opacity="1.00" d=" M 22.20 6.92 C 23.13 7.61 24.05 8.30 24.97 8.97 C 25.43 8.80 26.34 8.46 26.80 8.29 C 30.27 8.54 33.77 8.03 37.21 8.51 C 37.01 9.26 36.61 10.75 36.41 11.50 C 32.47 13.75 28.32 11.49 24.27 11.00 C 23.48 10.22 22.69 9.43 21.90 8.65 C 22.37 8.58 23.30 8.43 23.77 8.36 C 23.25 7.88 22.73 7.40 22.20 6.92 Z" />
<path fill="#828080" opacity="1.00" d=" M 27.96 16.23 C 30.29 16.01 32.63 15.85 34.96 15.74 C 35.36 16.09 36.15 16.81 36.54 17.17 C 34.58 20.08 30.16 18.05 27.19 18.15 C 27.38 17.67 27.77 16.71 27.96 16.23 Z" />
</g>
<g id="#7f7f7fff">
<path fill="#7f7f7f" opacity="1.00" d=" M 36.69 1.06 C 36.98 2.25 37.70 2.75 38.85 2.57 C 47.23 2.45 55.62 2.53 64.00 2.57 L 64.00 3.31 C 63.65 3.91 62.95 5.10 62.60 5.70 C 54.03 5.86 45.46 5.84 36.89 5.51 C 33.80 5.53 30.71 5.47 27.62 5.56 C 27.37 5.88 26.86 6.54 26.60 6.87 C 26.27 6.52 25.61 5.81 25.28 5.46 C 17.95 7.15 10.34 6.01 2.88 6.26 C 0.89 6.50 0.40 4.15 0.00 2.71 L 0.00 2.57 C 8.74 2.53 17.48 2.43 26.21 2.58 C 29.67 2.50 34.26 4.43 36.69 1.06 Z" />
</g>
<g id="#320a00ee">
<path fill="#320a00" opacity="0.93" d=" M 0.00 2.71 C 0.40 4.15 0.89 6.50 2.88 6.26 C 10.34 6.01 17.95 7.15 25.28 5.46 C 25.61 5.81 26.27 6.52 26.60 6.87 L 26.80 8.29 C 26.34 8.46 25.43 8.80 24.97 8.97 C 24.05 8.30 23.13 7.61 22.20 6.92 C 22.73 7.40 23.25 7.88 23.77 8.36 C 23.30 8.43 22.37 8.58 21.90 8.65 L 21.08 8.78 C 21.98 6.16 17.09 6.06 17.91 8.78 L 17.00 8.86 C 18.02 6.15 13.13 5.99 13.88 8.78 L 12.97 8.86 C 13.97 6.15 9.02 6.04 9.83 8.81 L 9.01 8.87 C 10.04 6.18 5.04 6.03 5.88 8.81 L 5.03 8.87 C 6.03 6.20 1.12 6.07 1.83 8.81 C 1.38 9.02 0.46 9.44 0.00 9.65 L 0.00 2.71 Z" />
<path fill="#320a00" opacity="0.93" d=" M 62.63 22.16 C 62.97 22.05 63.66 21.85 64.00 21.74 L 64.00 64.00 L 30.86 64.00 C 29.03 62.49 25.93 62.06 23.98 63.48 C 23.39 63.15 22.20 62.50 21.60 62.17 C 35.28 63.22 49.02 62.54 62.73 62.74 C 62.81 59.47 62.65 56.17 63.25 52.94 C 63.44 51.56 63.60 50.17 63.71 48.79 C 63.71 48.01 63.71 46.44 63.72 45.66 C 63.28 45.55 62.41 45.32 61.97 45.21 C 60.77 44.87 59.57 44.53 58.37 44.20 C 58.32 40.09 58.33 35.98 58.40 31.87 C 58.57 35.90 58.17 39.94 58.78 43.95 C 60.24 44.05 61.70 44.16 63.16 44.28 C 63.03 40.18 64.66 35.30 62.36 31.70 L 62.84 31.68 L 63.89 31.64 C 63.82 29.19 63.78 26.73 63.69 24.28 C 63.29 23.59 62.94 22.88 62.63 22.16 Z" />
</g>
<g id="#2b2c2cfe">
<path fill="#2b2c2c" opacity="1.00" d=" M 62.60 5.70 C 62.95 5.10 63.65 3.91 64.00 3.31 L 64.00 6.85 C 56.63 7.32 49.23 6.55 41.88 7.34 L 41.88 7.34 C 40.31 6.91 38.58 6.67 37.02 7.25 L 36.89 5.51 C 45.46 5.84 54.03 5.86 62.60 5.70 Z" />
</g>
<g id="#a8a4a3ff">
<path fill="#a8a4a3" opacity="1.00" d=" M 27.62 5.56 C 30.71 5.47 33.80 5.53 36.89 5.51 L 37.02 7.25 C 37.07 7.57 37.16 8.19 37.21 8.51 C 33.77 8.03 30.27 8.54 26.80 8.29 L 26.60 6.87 C 26.86 6.54 27.37 5.88 27.62 5.56 Z" />
</g>
<g id="#0f0f0f92">
<path fill="#0f0f0f" opacity="0.57" d=" M 1.83 8.81 C 1.12 6.07 6.03 6.20 5.03 8.87 C 4.23 8.86 2.63 8.83 1.83 8.81 Z" />
<path fill="#0f0f0f" opacity="0.57" d=" M 5.88 8.81 C 5.04 6.03 10.04 6.18 9.01 8.87 C 8.23 8.85 6.66 8.82 5.88 8.81 Z" />
</g>
<g id="#0f0f0f93">
<path fill="#0f0f0f" opacity="0.58" d=" M 9.83 8.81 C 9.02 6.04 13.97 6.15 12.97 8.86 C 12.18 8.84 10.62 8.82 9.83 8.81 Z" />
<path fill="#0f0f0f" opacity="0.58" d=" M 13.88 8.78 C 13.13 5.99 18.02 6.15 17.00 8.86 C 16.22 8.84 14.66 8.80 13.88 8.78 Z" />
<path fill="#0f0f0f" opacity="0.58" d=" M 17.91 8.78 C 17.09 6.06 21.98 6.16 21.08 8.78 C 20.29 8.78 18.70 8.78 17.91 8.78 Z" />
</g>
<g id="#101010be">
<path fill="#101010" opacity="0.75" d=" M 37.02 7.25 C 38.58 6.67 40.31 6.91 41.88 7.34 C 41.15 9.11 38.74 8.82 37.21 8.51 C 37.16 8.19 37.07 7.57 37.02 7.25 Z" />
</g>
<g id="#5d5c5cff">
<path fill="#5d5c5c" opacity="1.00" d=" M 41.88 7.34 L 41.88 7.34 C 42.75 8.26 43.79 8.79 45.02 8.92 C 42.82 8.91 40.63 9.34 38.78 10.56 C 46.42 11.82 54.22 11.30 61.92 11.14 C 62.26 10.62 62.95 9.58 63.30 9.06 L 64.00 9.07 L 64.00 11.58 C 55.13 12.28 46.20 11.67 37.30 11.87 L 36.81 12.68 C 36.19 13.70 35.57 14.72 34.96 15.74 C 32.63 15.85 30.29 16.01 27.96 16.23 C 27.77 16.71 27.38 17.67 27.19 18.15 L 27.07 18.52 C 27.27 16.23 27.39 13.83 26.18 11.76 C 17.74 11.71 9.19 12.40 0.82 11.37 C 8.64 11.22 16.47 11.62 24.27 11.00 C 28.32 11.49 32.47 13.75 36.41 11.50 C 36.61 10.75 37.01 9.26 37.21 8.51 C 38.74 8.82 41.15 9.11 41.88 7.34 Z" />
</g>
<g id="#0d0d0da4">
<path fill="#0d0d0d" opacity="0.64" d=" M 41.88 7.34 C 49.23 6.55 56.63 7.32 64.00 6.85 L 64.00 9.07 L 63.30 9.06 C 57.21 8.75 51.11 8.91 45.02 8.92 C 43.79 8.79 42.75 8.26 41.88 7.34 Z" />
</g>
<g id="#8c8b8bff">
<path fill="#8c8b8b" opacity="1.00" d=" M 0.00 9.65 C 0.46 9.44 1.38 9.02 1.83 8.81 C 2.63 8.83 4.23 8.86 5.03 8.87 L 5.88 8.81 C 6.66 8.82 8.23 8.85 9.01 8.87 L 9.83 8.81 C 10.62 8.82 12.18 8.84 12.97 8.86 L 13.88 8.78 C 14.66 8.80 16.22 8.84 17.00 8.86 L 17.91 8.78 C 18.70 8.78 20.29 8.78 21.08 8.78 L 21.90 8.65 C 22.69 9.43 23.48 10.22 24.27 11.00 C 16.47 11.62 8.64 11.22 0.82 11.37 L 0.00 11.17 L 0.00 9.65 Z" />
</g>
<g id="#8c8c8bff">
<path fill="#8c8c8b" opacity="1.00" d=" M 38.78 10.56 C 40.63 9.34 42.82 8.91 45.02 8.92 C 51.11 8.91 57.21 8.75 63.30 9.06 C 62.95 9.58 62.26 10.62 61.92 11.14 C 54.22 11.30 46.42 11.82 38.78 10.56 Z" />
</g>
<g id="#090909ba">
<path fill="#090909" opacity="0.73" d=" M 0.00 11.17 L 0.82 11.37 C 9.19 12.40 17.74 11.71 26.18 11.76 C 27.39 13.83 27.27 16.23 27.07 18.52 C 26.98 18.88 26.81 19.61 26.72 19.97 C 25.94 19.83 24.39 19.54 23.62 19.40 C 24.25 19.34 25.52 19.21 26.16 19.15 C 26.15 17.10 26.15 15.06 26.15 13.01 C 17.43 12.99 8.72 13.01 0.00 13.00 L 0.00 11.17 Z" />
</g>
<g id="#070707ae">
<path fill="#070707" opacity="0.68" d=" M 37.30 11.87 C 46.20 11.67 55.13 12.28 64.00 11.58 L 64.00 15.43 L 63.81 13.00 C 55.01 13.00 46.22 13.01 37.43 12.99 C 37.19 15.27 37.31 17.54 37.61 19.80 C 37.42 19.94 37.05 20.24 36.86 20.39 C 36.84 17.82 36.77 15.25 36.81 12.68 L 37.30 11.87 Z" />
</g>
<g id="#4b4b4cff">
<path fill="#4b4b4c" opacity="1.00" d=" M 34.96 15.74 C 35.57 14.72 36.19 13.70 36.81 12.68 C 36.77 15.25 36.84 17.82 36.86 20.39 C 37.05 20.24 37.42 19.94 37.61 19.80 C 38.17 19.63 39.29 19.31 39.84 19.14 C 40.12 19.69 40.66 20.79 40.93 21.34 C 48.62 21.35 56.31 21.37 64.00 21.32 L 64.00 21.74 C 63.66 21.85 62.97 22.05 62.63 22.16 C 54.90 22.31 47.17 22.10 39.44 22.25 C 36.12 22.19 32.79 22.15 29.51 21.62 C 27.59 21.14 25.66 20.50 23.65 20.78 L 23.62 19.40 C 24.39 19.54 25.94 19.83 26.72 19.97 C 26.81 19.61 26.98 18.88 27.07 18.52 L 27.19 18.15 C 30.16 18.05 34.58 20.08 36.54 17.17 C 36.15 16.81 35.36 16.09 34.96 15.74 Z" />
</g>
<g id="#110602c7">
<path fill="#110602" opacity="0.78" d=" M 7.19 21.22 C 12.67 20.80 18.18 21.37 23.65 20.78 C 25.66 20.50 27.59 21.14 29.51 21.62 C 22.49 22.10 15.48 22.51 8.42 22.33 C 8.27 31.13 8.43 39.93 8.37 48.73 C 8.36 50.10 8.34 51.47 8.33 52.84 C 8.32 55.01 8.37 57.18 8.45 59.36 C 9.81 59.56 11.05 60.06 12.15 60.85 C 10.35 61.36 8.63 60.59 6.99 59.98 C 7.13 47.06 6.75 34.13 7.19 21.22 Z" />
</g>
<g id="#f3b829ff">
<path fill="#f3b829" opacity="1.00" d=" M 8.42 22.33 C 15.48 22.51 22.49 22.10 29.51 21.62 C 29.01 30.47 29.45 39.34 29.32 48.20 L 28.92 48.81 C 22.07 48.70 15.22 48.81 8.37 48.73 C 8.43 39.93 8.27 31.13 8.42 22.33 M 8.91 22.60 C 9.98 30.98 8.73 39.43 9.27 47.82 C 9.68 47.87 10.51 47.95 10.92 48.00 C 12.11 40.16 10.21 32.12 11.36 24.23 C 15.22 23.62 19.55 25.15 23.09 23.30 C 18.32 23.49 13.63 22.83 8.91 22.60 M 14.10 28.12 C 14.10 33.56 14.08 38.99 13.88 44.42 C 17.44 44.45 21.00 44.44 24.56 44.44 C 24.54 39.00 24.64 33.56 24.45 28.13 C 21.00 28.26 17.55 28.15 14.10 28.12 Z" />
</g>
<g id="#f1edeaff">
<path fill="#f1edea" opacity="1.00" d=" M 29.51 21.62 C 32.79 22.15 36.12 22.19 39.44 22.25 C 41.35 24.46 44.53 23.41 47.07 23.67 C 51.90 23.86 56.88 22.96 61.60 24.34 C 62.05 26.78 62.47 29.23 62.84 31.68 L 62.36 31.70 C 61.37 31.74 59.39 31.83 58.40 31.87 C 58.33 35.98 58.32 40.09 58.37 44.20 C 59.57 44.53 60.77 44.87 61.97 45.21 C 62.00 45.80 62.05 46.97 62.08 47.56 C 60.44 47.92 58.75 48.04 57.08 48.04 C 56.17 41.76 57.20 35.38 56.17 29.12 C 51.57 29.01 46.95 28.93 42.35 29.18 C 42.10 35.43 42.16 41.70 41.80 47.95 C 37.64 48.12 33.48 47.98 29.32 48.20 C 29.45 39.34 29.01 30.47 29.51 21.62 M 31.40 31.99 C 31.46 36.17 31.41 40.36 31.37 44.54 C 34.18 44.53 37.00 44.53 39.82 44.57 C 39.97 40.33 39.81 36.10 39.83 31.86 C 37.02 31.82 34.21 31.72 31.40 31.99 Z" />
</g>
<g id="#c7c1bbff">
<path fill="#c7c1bb" opacity="1.00" d=" M 39.44 22.25 C 47.17 22.10 54.90 22.31 62.63 22.16 C 62.94 22.88 63.29 23.59 63.69 24.28 C 63.78 26.73 63.82 29.19 63.89 31.64 L 62.84 31.68 C 62.47 29.23 62.05 26.78 61.60 24.34 C 56.88 22.96 51.90 23.86 47.07 23.67 C 44.53 23.41 41.35 24.46 39.44 22.25 Z" />
</g>
<g id="#dbaa33ff">
<path fill="#dbaa33" opacity="1.00" d=" M 8.91 22.60 C 13.63 22.83 18.32 23.49 23.09 23.30 C 19.55 25.15 15.22 23.62 11.36 24.23 C 10.21 32.12 12.11 40.16 10.92 48.00 C 10.51 47.95 9.68 47.87 9.27 47.82 C 8.73 39.43 9.98 30.98 8.91 22.60 Z" />
</g>
<g id="#1d5373ff">
<path fill="#1d5373" opacity="1.00" d=" M 14.10 28.12 C 17.55 28.15 21.00 28.26 24.45 28.13 C 24.64 33.56 24.54 39.00 24.56 44.44 C 21.00 44.44 17.44 44.45 13.88 44.42 C 14.08 38.99 14.10 33.56 14.10 28.12 Z" />
</g>
<g id="#cacfd1ff">
<path fill="#cacfd1" opacity="1.00" d=" M 42.35 29.18 C 46.95 28.93 51.57 29.01 56.17 29.12 C 57.20 35.38 56.17 41.76 57.08 48.04 C 58.75 48.04 60.44 47.92 62.08 47.56 C 62.05 46.97 62.00 45.80 61.97 45.21 C 62.41 45.32 63.28 45.55 63.72 45.66 C 63.71 46.44 63.71 48.01 63.71 48.79 C 52.11 48.95 40.52 48.91 28.92 48.81 L 29.32 48.20 C 33.48 47.98 37.64 48.12 41.80 47.95 C 42.16 41.70 42.10 35.43 42.35 29.18 M 43.30 30.19 C 43.31 36.12 43.39 42.05 43.48 47.99 C 47.28 48.23 51.09 48.21 54.89 48.01 C 55.40 42.03 55.53 35.97 55.15 29.98 C 51.20 29.89 47.21 29.51 43.30 30.19 Z" />
</g>
<g id="#f3f1efff">
<path fill="#f3f1ef" opacity="1.00" d=" M 43.30 30.19 C 47.21 29.51 51.20 29.89 55.15 29.98 C 55.53 35.97 55.40 42.03 54.89 48.01 C 51.09 48.21 47.28 48.23 43.48 47.99 C 43.39 42.05 43.31 36.12 43.30 30.19 M 45.13 31.80 C 45.12 36.02 45.19 40.25 45.05 44.47 C 47.85 44.53 50.66 44.52 53.46 44.65 C 53.81 40.35 53.79 35.99 53.44 31.69 C 50.67 31.80 47.90 31.79 45.13 31.80 Z" />
</g>
<g id="#1a4d6aff">
<path fill="#1a4d6a" opacity="1.00" d=" M 31.40 31.99 C 34.21 31.72 37.02 31.82 39.83 31.86 C 39.81 36.10 39.97 40.33 39.82 44.57 C 37.00 44.53 34.18 44.53 31.37 44.54 C 31.41 40.36 31.46 36.17 31.40 31.99 Z" />
</g>
<g id="#194965ff">
<path fill="#194965" opacity="1.00" d=" M 45.13 31.80 C 47.90 31.79 50.67 31.80 53.44 31.69 C 53.79 35.99 53.81 40.35 53.46 44.65 C 50.66 44.52 47.85 44.53 45.05 44.47 C 45.19 40.25 45.12 36.02 45.13 31.80 Z" />
</g>
<g id="#1b4d6aff">
<path fill="#1b4d6a" opacity="1.00" d=" M 58.40 31.87 C 59.39 31.83 61.37 31.74 62.36 31.70 C 64.66 35.30 63.03 40.18 63.16 44.28 C 61.70 44.16 60.24 44.05 58.78 43.95 C 58.17 39.94 58.57 35.90 58.40 31.87 Z" />
</g>
<g id="#006cd4ff">
<path fill="#006cd4" opacity="1.00" d=" M 8.37 48.73 C 15.22 48.81 22.07 48.70 28.92 48.81 C 40.52 48.91 52.11 48.95 63.71 48.79 C 63.60 50.17 63.44 51.56 63.25 52.94 C 60.61 52.86 57.98 52.80 55.34 52.84 C 51.09 52.86 46.85 52.83 42.60 52.89 C 31.18 52.79 19.76 52.88 8.33 52.84 C 8.34 51.47 8.36 50.10 8.37 48.73 Z" />
</g>
<g id="#d5a025ff">
<path fill="#d5a025" opacity="1.00" d=" M 8.33 52.84 C 19.76 52.88 31.18 52.79 42.60 52.89 C 42.99 53.33 43.76 54.21 44.14 54.65 C 47.59 55.07 51.11 55.04 54.56 54.67 C 54.75 54.21 55.15 53.30 55.34 52.84 C 57.98 52.80 60.61 52.86 63.25 52.94 C 62.65 56.17 62.81 59.47 62.73 62.74 C 49.02 62.54 35.28 63.22 21.60 62.17 C 20.88 62.10 19.43 61.95 18.71 61.88 C 18.32 61.86 17.56 61.83 17.17 61.81 C 15.98 60.82 14.40 60.37 12.88 60.77 C 12.69 60.79 12.33 60.83 12.15 60.85 C 11.05 60.06 9.81 59.56 8.45 59.36 C 8.37 57.18 8.32 55.01 8.33 52.84 M 42.77 56.85 C 47.04 57.01 51.35 57.16 55.61 56.72 L 56.03 56.08 C 53.01 55.88 49.97 55.86 46.95 55.91 C 45.58 56.13 43.73 55.54 42.77 56.85 Z" />
</g>
<g id="#e7bb30ff">
<path fill="#e7bb30" opacity="1.00" d=" M 42.60 52.89 C 46.85 52.83 51.09 52.86 55.34 52.84 C 55.15 53.30 54.75 54.21 54.56 54.67 C 51.11 55.04 47.59 55.07 44.14 54.65 C 43.76 54.21 42.99 53.33 42.60 52.89 Z" />
</g>
<g id="#d5a948ff">
<path fill="#d5a948" opacity="1.00" d=" M 42.77 56.85 C 43.73 55.54 45.58 56.13 46.95 55.91 C 49.97 55.86 53.01 55.88 56.03 56.08 L 55.61 56.72 C 51.35 57.16 47.04 57.01 42.77 56.85 Z" />
</g>
<g id="#230e01d6">
<path fill="#230e01" opacity="0.84" d=" M 12.88 60.77 C 14.40 60.37 15.98 60.82 17.17 61.81 C 15.74 62.23 13.57 62.47 12.88 60.77 Z" />
</g>
<g id="#0f040287">
<path fill="#0f0402" opacity="0.53" d=" M 18.71 61.88 C 19.43 61.95 20.88 62.10 21.60 62.17 C 22.20 62.50 23.39 63.15 23.98 63.48 L 24.08 64.00 L 22.06 64.00 C 20.66 63.66 19.54 62.95 18.71 61.88 Z" />
</g>
<g id="#080101b4">
<path fill="#080101" opacity="0.71" d=" M 23.98 63.48 C 25.93 62.06 29.03 62.49 30.86 64.00 L 24.08 64.00 L 23.98 63.48 Z" />
</g>
</svg>
