<?xml version="1.0" encoding="UTF-8" ?>
<!DOCTYPE svg PUBLIC "-//W3C//DTD SVG 1.1//EN" "http://www.w3.org/Graphics/SVG/1.1/DTD/svg11.dtd">
<svg width="64pt" height="64pt" viewBox="0 0 64 64" version="1.1" xmlns="http://www.w3.org/2000/svg">
<g id="#035d3dff">
<path fill="#035d3d" opacity="1.00" d=" M 26.04 13.03 C 38.10 13.00 50.17 12.97 62.24 13.03 L 62.32 13.64 C 53.20 13.53 44.08 13.68 34.97 13.54 C 32.19 13.57 29.19 13.33 26.79 15.02 C 29.15 15.58 31.56 15.91 33.99 15.91 C 43.48 15.91 52.98 15.58 62.47 16.16 L 62.51 17.37 C 52.32 17.52 42.14 17.42 31.96 17.39 C 29.99 17.49 27.64 17.22 26.28 19.01 C 27.43 21.53 30.70 21.22 33.00 21.37 C 42.87 21.29 52.74 21.38 62.61 21.28 C 62.63 22.34 62.64 23.40 62.58 24.45 C 56.83 22.84 50.82 23.73 44.94 23.55 C 39.02 23.68 33.03 23.01 27.18 24.19 C 27.26 24.78 27.42 25.96 27.50 26.55 C 39.09 26.91 50.70 26.20 62.28 26.94 C 62.17 27.81 62.10 28.69 62.13 29.56 C 52.08 29.72 42.02 29.58 31.97 29.62 C 29.68 29.40 27.81 30.78 26.03 31.99 L 26.00 31.99 C 26.05 25.67 25.97 19.35 26.04 13.03 Z" />
</g>
<g id="#044a30ff">
<path fill="#044a30" opacity="1.00" d=" M 62.24 13.03 C 62.68 13.04 63.56 13.06 64.00 13.06 L 64.00 41.77 C 63.73 42.09 63.20 42.74 62.94 43.07 C 61.12 42.04 59.13 41.27 57.00 41.45 C 48.66 41.52 40.32 41.52 31.98 41.45 C 29.89 41.30 27.95 42.10 26.16 43.08 C 29.26 45.44 33.32 44.57 36.92 44.70 C 45.18 44.46 53.47 45.04 61.71 44.38 C 62.31 45.30 62.90 46.23 63.47 47.18 C 63.87 48.64 63.43 49.76 62.14 50.51 C 59.33 50.22 56.93 48.26 54.10 48.18 C 51.99 48.62 50.02 49.52 47.94 50.05 C 43.77 51.21 39.83 46.67 35.76 48.86 C 32.69 50.47 29.27 50.99 25.99 49.62 C 26.04 43.74 26.00 37.86 26.00 31.99 L 26.03 31.99 C 33.15 34.29 40.67 33.11 48.01 33.37 C 52.48 33.24 57.13 33.98 61.46 32.56 C 63.04 32.34 62.10 30.52 62.13 29.56 C 62.10 28.69 62.17 27.81 62.28 26.94 C 62.35 26.32 62.51 25.07 62.58 24.45 C 62.64 23.40 62.63 22.34 62.61 21.28 C 62.58 19.98 62.54 18.67 62.51 17.37 L 62.47 16.16 C 62.43 15.32 62.38 14.48 62.32 13.64 L 62.24 13.03 M 26.06 37.12 C 27.15 38.11 28.50 38.81 30.02 38.67 C 38.00 38.88 46.02 38.23 53.98 39.08 C 57.05 39.48 60.10 38.81 63.03 37.95 C 62.42 37.11 62.24 35.38 60.85 35.54 C 52.23 35.31 43.59 35.59 34.96 35.45 C 31.93 35.53 28.48 34.80 26.06 37.12 Z" />
</g>
<g id="#137753ff">
<path fill="#137753" opacity="1.00" d=" M 26.79 15.02 C 29.19 13.33 32.19 13.57 34.97 13.54 C 44.08 13.68 53.20 13.53 62.32 13.64 C 62.38 14.48 62.43 15.32 62.47 16.16 C 52.98 15.58 43.48 15.91 33.99 15.91 C 31.56 15.91 29.15 15.58 26.79 15.02 Z" />
</g>
<g id="#268562ff">
<path fill="#268562" opacity="1.00" d=" M 26.28 19.01 C 27.64 17.22 29.99 17.49 31.96 17.39 C 42.14 17.42 52.32 17.52 62.51 17.37 C 62.54 18.67 62.58 19.98 62.61 21.28 C 52.74 21.38 42.87 21.29 33.00 21.37 C 30.70 21.22 27.43 21.53 26.28 19.01 Z" />
</g>
<g id="#268462ff">
<path fill="#268462" opacity="1.00" d=" M 27.18 24.19 C 33.03 23.01 39.02 23.68 44.94 23.55 C 50.82 23.73 56.83 22.84 62.58 24.45 C 62.51 25.07 62.35 26.32 62.28 26.94 C 50.70 26.20 39.09 26.91 27.50 26.55 C 27.42 25.96 27.26 24.78 27.18 24.19 Z" />
</g>
<g id="#90806df6">
<path fill="#90806d" opacity="0.96" d=" M 5.48 32.10 C 9.91 27.68 16.40 29.18 22.00 29.04 C 21.90 36.57 22.24 44.11 21.81 51.63 C 21.77 52.10 21.69 53.03 21.65 53.50 C 19.91 53.55 18.17 53.62 16.43 53.69 C 16.21 53.19 15.78 52.17 15.57 51.66 C 17.22 51.60 18.87 51.54 20.52 51.48 C 20.19 44.17 21.77 36.80 20.66 29.55 C 16.18 29.67 11.17 28.78 7.52 32.07 C 7.01 32.08 5.99 32.09 5.48 32.10 Z" />
</g>
<g id="#f0e6ccff">
<path fill="#f0e6cc" opacity="1.00" d=" M 7.52 32.07 C 11.17 28.78 16.18 29.67 20.66 29.55 C 20.00 31.78 19.39 34.02 18.98 36.32 C 18.94 34.88 18.89 33.45 18.83 32.02 C 16.89 32.01 14.95 32.01 13.00 32.02 C 13.00 35.03 12.91 38.05 12.99 41.07 C 11.68 41.29 10.37 41.50 9.05 41.69 C 9.07 41.08 9.10 39.85 9.11 39.23 C 9.09 37.08 9.05 34.92 8.95 32.77 C 8.60 32.59 7.88 32.24 7.52 32.07 Z" />
</g>
<g id="#e0d7bfff">
<path fill="#e0d7bf" opacity="1.00" d=" M 20.66 29.55 C 21.77 36.80 20.19 44.17 20.52 51.48 C 18.87 51.54 17.22 51.60 15.57 51.66 C 13.92 48.54 10.32 47.35 7.00 48.25 C 9.89 46.59 13.30 47.57 16.43 47.67 C 12.57 43.71 6.01 43.87 2.29 47.92 C 2.99 48.35 4.41 49.21 5.12 49.64 C 4.39 50.60 3.70 51.58 3.00 52.56 C 2.21 52.56 1.42 52.55 0.63 52.55 C 0.59 50.91 0.56 49.27 0.53 47.63 C 1.04 47.39 2.05 46.92 2.56 46.69 C 2.45 45.10 2.36 43.40 0.99 42.31 C 3.68 42.10 6.38 42.04 9.05 41.69 C 10.37 41.50 11.68 41.29 12.99 41.07 L 13.03 41.97 C 15.02 42.03 17.01 42.01 19.00 42.01 C 18.99 40.11 18.98 38.21 18.98 36.32 C 19.39 34.02 20.00 31.78 20.66 29.55 Z" />
</g>
<g id="#237b5cff">
<path fill="#237b5c" opacity="1.00" d=" M 26.03 31.99 C 27.81 30.78 29.68 29.40 31.97 29.62 C 42.02 29.58 52.08 29.72 62.13 29.56 C 62.10 30.52 63.04 32.34 61.46 32.56 C 57.13 33.98 52.48 33.24 48.01 33.37 C 40.67 33.11 33.15 34.29 26.03 31.99 Z" />
</g>
<g id="#3984a6ff">
<path fill="#3984a6" opacity="1.00" d=" M 13.00 32.02 C 14.95 32.01 16.89 32.01 18.83 32.02 C 18.89 33.45 18.94 34.88 18.98 36.32 C 18.98 38.21 18.99 40.11 19.00 42.01 C 17.01 42.01 15.02 42.03 13.03 41.97 L 12.99 41.07 C 12.91 38.05 13.00 35.03 13.00 32.02 M 13.97 32.96 C 14.11 34.27 14.24 35.57 14.37 36.88 C 15.40 36.71 16.43 36.55 17.47 36.41 C 17.62 35.34 17.78 34.27 17.95 33.20 C 16.62 33.13 15.30 33.05 13.97 32.96 Z" />
</g>
<g id="#3d8db3ff">
<path fill="#3d8db3" opacity="1.00" d=" M 4.97 32.68 C 6.29 32.72 7.62 32.75 8.95 32.77 C 9.05 34.92 9.09 37.08 9.11 39.23 C 7.41 41.58 4.65 41.58 2.16 40.56 C 2.92 38.19 3.57 35.79 4.36 33.44 C 4.51 33.25 4.81 32.87 4.97 32.68 Z" />
</g>
<g id="#44a0caff">
<path fill="#44a0ca" opacity="1.00" d=" M 13.97 32.96 C 15.30 33.05 16.62 33.13 17.95 33.20 C 17.78 34.27 17.62 35.34 17.47 36.41 C 16.43 36.55 15.40 36.71 14.37 36.88 C 14.24 35.57 14.11 34.27 13.97 32.96 Z" />
</g>
<g id="#296380f4">
<path fill="#296380" opacity="0.96" d=" M 1.92 36.52 C 2.63 35.41 3.53 34.45 4.36 33.44 C 3.57 35.79 2.92 38.19 2.16 40.56 C 4.65 41.58 7.41 41.58 9.11 39.23 C 9.10 39.85 9.07 41.08 9.05 41.69 C 6.38 42.04 3.68 42.10 0.99 42.31 C 1.29 40.38 1.57 38.44 1.92 36.52 Z" />
</g>
<g id="#217155ff">
<path fill="#217155" opacity="1.00" d=" M 26.06 37.12 C 28.48 34.80 31.93 35.53 34.96 35.45 C 43.59 35.59 52.23 35.31 60.85 35.54 C 62.24 35.38 62.42 37.11 63.03 37.95 C 60.10 38.81 57.05 39.48 53.98 39.08 C 46.02 38.23 38.00 38.88 30.02 38.67 C 28.50 38.81 27.15 38.11 26.06 37.12 Z" />
</g>
<g id="#163445e3">
<path fill="#163445" opacity="0.89" d=" M 0.00 40.43 C 0.57 39.09 1.21 37.79 1.92 36.52 C 1.57 38.44 1.29 40.38 0.99 42.31 C 0.74 42.02 0.25 41.44 0.00 41.15 L 0.00 40.43 Z" />
</g>
<g id="#1e694fff">
<path fill="#1e694f" opacity="1.00" d=" M 26.16 43.08 C 27.95 42.10 29.89 41.30 31.98 41.45 C 40.32 41.52 48.66 41.52 57.00 41.45 C 59.13 41.27 61.12 42.04 62.94 43.07 L 61.71 44.38 C 53.47 45.04 45.18 44.46 36.92 44.70 C 33.32 44.57 29.26 45.44 26.16 43.08 Z" />
</g>
<g id="#a48536ff">
<path fill="#a48536" opacity="1.00" d=" M 0.00 41.15 C 0.25 41.44 0.74 42.02 0.99 42.31 C 2.36 43.40 2.45 45.10 2.56 46.69 C 1.92 46.68 0.64 46.67 0.00 46.66 L 0.00 41.15 Z" />
</g>
<g id="#6c250dff">
<path fill="#6c250d" opacity="1.00" d=" M 62.94 43.07 C 63.20 42.74 63.73 42.09 64.00 41.77 L 64.00 48.11 L 63.47 47.18 C 62.90 46.23 62.31 45.30 61.71 44.38 L 62.94 43.07 Z" />
</g>
<g id="#f0ece2ff">
<path fill="#f0ece2" opacity="1.00" d=" M 2.29 47.92 C 6.01 43.87 12.57 43.71 16.43 47.67 C 13.30 47.57 9.89 46.59 7.00 48.25 C 6.53 48.60 5.59 49.30 5.12 49.64 C 4.41 49.21 2.99 48.35 2.29 47.92 Z" />
</g>
<g id="#1b1b1bff">
<path fill="#1b1b1b" opacity="1.00" d=" M 0.00 46.66 C 0.64 46.67 1.92 46.68 2.56 46.69 C 2.05 46.92 1.04 47.39 0.53 47.63 C 0.56 49.27 0.59 50.91 0.63 52.55 C 1.42 52.55 2.21 52.56 3.00 52.56 C 3.70 51.58 4.39 50.60 5.12 49.64 C 5.59 49.30 6.53 48.60 7.00 48.25 C 10.32 47.35 13.92 48.54 15.57 51.66 C 15.78 52.17 16.21 53.19 16.43 53.69 L 16.18 54.45 C 15.66 57.95 12.82 61.36 8.97 60.74 C 5.54 60.62 3.72 57.40 2.87 54.48 C 2.15 54.45 0.72 54.37 0.00 54.33 L 0.00 46.66 M 6.64 50.68 C 4.35 51.70 5.16 54.49 5.31 56.44 C 6.34 54.36 6.98 51.00 9.93 51.03 C 12.50 51.62 12.71 54.58 13.67 56.55 C 13.78 54.89 14.57 53.02 13.50 51.51 C 11.80 49.64 8.73 49.12 6.64 50.68 M 8.14 53.12 C 8.16 53.78 8.19 55.10 8.20 55.76 C 8.91 55.79 10.33 55.85 11.04 55.87 C 11.07 55.14 11.12 53.67 11.15 52.94 C 10.40 52.98 8.89 53.08 8.14 53.12 Z" />
</g>
<g id="#0d1310df">
<path fill="#0d1310" opacity="0.87" d=" M 63.47 47.18 L 64.00 48.11 L 64.00 51.00 C 62.62 51.00 61.25 51.00 59.88 51.00 C 60.30 52.04 60.71 53.09 61.09 54.16 C 61.82 54.20 63.27 54.28 64.00 54.32 L 64.00 54.37 C 63.33 54.39 62.00 54.43 61.33 54.45 C 60.29 57.38 58.52 60.72 54.98 60.86 C 51.24 61.40 48.59 58.16 47.74 54.88 C 47.10 54.88 45.83 54.88 45.19 54.87 C 44.10 57.62 42.38 60.82 38.98 60.86 C 34.99 61.45 32.41 57.80 31.53 54.39 C 26.42 54.42 21.30 54.43 16.18 54.45 L 16.43 53.69 C 18.17 53.62 19.91 53.55 21.65 53.50 L 22.31 53.48 C 25.33 53.93 28.37 54.44 31.44 54.14 C 31.77 53.50 32.44 52.23 32.78 51.59 C 32.86 51.45 33.02 51.15 33.11 51.01 C 30.73 50.97 28.36 50.91 25.98 51.01 C 25.99 50.66 25.99 49.96 25.99 49.62 C 29.27 50.99 32.69 50.47 35.76 48.86 C 39.83 46.67 43.77 51.21 47.94 50.05 C 50.02 49.52 51.99 48.62 54.10 48.18 C 56.93 48.26 59.33 50.22 62.14 50.51 C 63.43 49.76 63.87 48.64 63.47 47.18 M 34.61 49.47 C 32.41 52.83 33.31 58.68 38.01 59.02 C 43.21 59.43 45.11 52.34 41.58 49.15 C 39.26 49.22 36.94 49.35 34.61 49.47 M 50.54 49.31 C 49.76 51.66 48.69 54.43 50.24 56.71 C 51.81 59.49 56.29 59.77 58.19 57.21 C 59.38 55.59 59.36 53.44 59.88 51.56 C 59.04 50.79 58.20 50.01 57.38 49.22 C 55.10 49.31 52.82 49.29 50.54 49.31 M 43.87 50.71 C 44.26 51.79 44.64 52.88 45.02 53.97 C 46.34 53.97 47.67 53.98 49.00 54.00 L 47.79 53.56 C 48.12 52.84 48.78 51.41 49.11 50.70 C 47.36 50.70 45.62 50.71 43.87 50.71 Z" />
</g>
<g id="#393939ff">
<path fill="#393939" opacity="1.00" d=" M 6.64 50.68 C 8.73 49.12 11.80 49.64 13.50 51.51 C 14.57 53.02 13.78 54.89 13.67 56.55 C 12.71 54.58 12.50 51.62 9.93 51.03 C 6.98 51.00 6.34 54.36 5.31 56.44 C 5.16 54.49 4.35 51.70 6.64 50.68 Z" />
</g>
<g id="#313131ff">
<path fill="#313131" opacity="1.00" d=" M 34.61 49.47 C 36.94 49.35 39.26 49.22 41.58 49.15 C 45.11 52.34 43.21 59.43 38.01 59.02 C 33.31 58.68 32.41 52.83 34.61 49.47 M 37.47 51.40 C 36.32 51.94 35.49 53.00 35.01 54.16 C 34.92 56.68 38.19 59.91 40.35 57.34 C 43.01 55.21 40.76 50.54 37.47 51.40 Z" />
<path fill="#313131" opacity="1.00" d=" M 50.54 49.31 C 52.82 49.29 55.10 49.31 57.38 49.22 C 58.20 50.01 59.04 50.79 59.88 51.56 C 59.36 53.44 59.38 55.59 58.19 57.21 C 56.29 59.77 51.81 59.49 50.24 56.71 C 48.69 54.43 49.76 51.66 50.54 49.31 M 53.55 51.45 C 52.31 51.84 51.48 52.97 51.13 54.18 C 50.68 56.70 54.27 59.74 56.31 57.39 C 58.95 55.36 56.83 50.46 53.55 51.45 Z" />
</g>
<g id="#525150c1">
<path fill="#525150" opacity="0.76" d=" M 21.81 51.63 C 23.20 51.41 24.59 51.20 25.98 51.01 C 28.36 50.91 30.73 50.97 33.11 51.01 C 33.02 51.15 32.86 51.45 32.78 51.59 C 29.97 51.55 27.16 51.44 24.35 51.42 C 23.84 51.93 22.82 52.97 22.31 53.48 L 21.65 53.50 C 21.69 53.03 21.77 52.10 21.81 51.63 Z" />
</g>
<g id="#181717ff">
<path fill="#181717" opacity="1.00" d=" M 37.47 51.40 C 40.76 50.54 43.01 55.21 40.35 57.34 C 38.19 59.91 34.92 56.68 35.01 54.16 C 35.49 53.00 36.32 51.94 37.47 51.40 M 37.00 53.06 C 37.02 53.74 37.06 55.09 37.09 55.77 C 37.79 55.78 39.20 55.82 39.90 55.83 C 39.94 55.14 40.02 53.76 40.05 53.06 C 39.29 53.06 37.76 53.06 37.00 53.06 Z" />
<path fill="#181717" opacity="1.00" d=" M 53.55 51.45 C 56.83 50.46 58.95 55.36 56.31 57.39 C 54.27 59.74 50.68 56.70 51.13 54.18 C 51.48 52.97 52.31 51.84 53.55 51.45 M 52.97 53.06 C 53.00 53.75 53.07 55.13 53.11 55.83 C 53.80 55.83 55.19 55.83 55.89 55.83 C 55.92 55.13 56.00 53.72 56.03 53.02 C 55.27 53.03 53.73 53.05 52.97 53.06 Z" />
</g>
<g id="#656565ee">
<path fill="#656565" opacity="0.93" d=" M 43.87 50.71 C 45.62 50.71 47.36 50.70 49.11 50.70 C 48.78 51.41 48.12 52.84 47.79 53.56 L 49.00 54.00 C 47.67 53.98 46.34 53.97 45.02 53.97 C 44.64 52.88 44.26 51.79 43.87 50.71 Z" />
</g>
<g id="#5a5b5af1">
<path fill="#5a5b5a" opacity="0.95" d=" M 59.88 51.00 C 61.25 51.00 62.62 51.00 64.00 51.00 L 64.00 54.32 C 63.27 54.28 61.82 54.20 61.09 54.16 C 60.71 53.09 60.30 52.04 59.88 51.00 Z" />
</g>
<g id="#666666ff">
<path fill="#666666" opacity="1.00" d=" M 22.31 53.48 C 22.82 52.97 23.84 51.93 24.35 51.42 C 27.16 51.44 29.97 51.55 32.78 51.59 C 32.44 52.23 31.77 53.50 31.44 54.14 C 28.37 54.44 25.33 53.93 22.31 53.48 Z" />
</g>
<g id="#3a3a3aff">
<path fill="#3a3a3a" opacity="1.00" d=" M 8.14 53.12 C 8.89 53.08 10.40 52.98 11.15 52.94 C 11.12 53.67 11.07 55.14 11.04 55.87 C 10.33 55.85 8.91 55.79 8.20 55.76 C 8.19 55.10 8.16 53.78 8.14 53.12 Z" />
<path fill="#3a3a3a" opacity="1.00" d=" M 37.00 53.06 C 37.76 53.06 39.29 53.06 40.05 53.06 C 40.02 53.76 39.94 55.14 39.90 55.83 C 39.20 55.82 37.79 55.78 37.09 55.77 C 37.06 55.09 37.02 53.74 37.00 53.06 Z" />
<path fill="#3a3a3a" opacity="1.00" d=" M 52.97 53.06 C 53.73 53.05 55.27 53.03 56.03 53.02 C 56.00 53.72 55.92 55.13 55.89 55.83 C 55.19 55.83 53.80 55.83 53.11 55.83 C 53.07 55.13 53.00 53.75 52.97 53.06 Z" />
</g>
</svg>
