<?xml version="1.0" encoding="UTF-8" ?>
<!DOCTYPE svg PUBLIC "-//W3C//DTD SVG 1.1//EN" "http://www.w3.org/Graphics/SVG/1.1/DTD/svg11.dtd">
<svg width="64pt" height="64pt" viewBox="0 0 64 64" version="1.1" xmlns="http://www.w3.org/2000/svg">
<g id="#a3a3a3ff">
<path fill="#a3a3a3" opacity="1.00" d=" M 28.06 13.24 C 38.00 13.11 47.94 13.18 57.88 13.20 C 57.97 13.45 58.16 13.95 58.25 14.20 C 58.04 15.94 57.80 17.67 57.55 19.41 C 56.55 19.36 55.55 19.29 54.56 19.21 C 54.36 18.92 53.98 18.35 53.79 18.06 L 55.14 18.18 L 55.27 17.00 C 52.34 17.08 49.06 16.25 46.51 18.14 C 43.07 15.97 38.77 17.33 34.94 16.93 C 31.81 16.53 29.13 18.35 26.18 18.96 C 26.43 17.50 26.68 16.04 26.98 14.60 C 27.25 14.26 27.79 13.58 28.06 13.24 M 29.03 14.15 L 28.69 15.27 C 38.12 15.59 47.57 15.48 57.00 15.35 L 57.00 14.11 C 47.68 13.95 38.34 13.91 29.03 14.15 Z" />
</g>
<g id="#c1c1c1ff">
<path fill="#c1c1c1" opacity="1.00" d=" M 29.03 14.15 C 38.34 13.91 47.68 13.95 57.00 14.11 L 57.00 15.35 C 47.57 15.48 38.12 15.59 28.69 15.27 L 29.03 14.15 Z" />
</g>
<g id="#6c6c6cff">
<path fill="#6c6c6c" opacity="1.00" d=" M 22.88 20.89 C 24.14 18.72 25.34 16.51 26.98 14.60 C 26.68 16.04 26.43 17.50 26.18 18.96 C 29.13 18.35 31.81 16.53 34.94 16.93 C 38.77 17.33 43.07 15.97 46.51 18.14 C 49.06 16.25 52.34 17.08 55.27 17.00 L 55.14 18.18 L 53.79 18.06 C 52.11 17.93 50.41 17.93 48.73 18.01 L 48.07 18.16 C 48.05 21.71 48.22 25.26 48.12 28.82 C 46.73 28.69 45.33 28.68 43.94 28.78 C 43.93 26.77 44.03 24.75 44.26 22.75 C 44.43 21.17 44.57 19.59 44.68 18.00 C 40.20 18.00 35.72 17.88 31.24 18.07 C 30.17 19.75 29.15 21.47 28.29 23.26 L 28.11 23.64 C 26.54 23.92 24.94 24.11 23.34 24.07 C 23.22 23.28 22.99 21.68 22.88 20.89 Z" />
</g>
<g id="#727272ff">
<path fill="#727272" opacity="1.00" d=" M 58.25 14.20 C 58.47 14.83 58.91 16.09 59.13 16.72 C 59.04 19.78 59.22 22.88 58.61 25.90 C 57.58 25.27 56.55 24.64 55.53 24.01 C 55.21 22.41 54.89 20.81 54.56 19.21 C 55.55 19.29 56.55 19.36 57.55 19.41 C 57.80 17.67 58.04 15.94 58.25 14.20 Z" />
</g>
<g id="#454646f1">
<path fill="#454646" opacity="0.95" d=" M 59.13 16.72 C 59.70 18.72 60.00 20.78 60.23 22.85 C 60.25 24.90 60.24 26.96 60.27 29.02 C 58.76 29.00 57.26 28.97 55.76 28.93 C 55.74 27.29 55.73 25.64 55.53 24.01 C 56.55 24.64 57.58 25.27 58.61 25.90 C 59.22 22.88 59.04 19.78 59.13 16.72 Z" />
</g>
<g id="#fdfdfdff">
<path fill="#fdfdfd" opacity="1.00" d=" M 31.24 18.07 C 35.72 17.88 40.20 18.00 44.68 18.00 C 44.57 19.59 44.43 21.17 44.26 22.75 C 38.95 21.89 33.53 22.04 28.29 23.26 C 29.15 21.47 30.17 19.75 31.24 18.07 Z" />
</g>
<g id="#e4e3e3ff">
<path fill="#e4e3e3" opacity="1.00" d=" M 48.07 18.16 L 48.73 18.01 C 48.76 20.16 48.86 22.30 49.02 24.45 C 50.52 24.42 52.12 23.83 53.57 24.38 C 54.73 25.55 54.62 27.44 55.18 28.92 C 52.82 28.92 50.47 29.00 48.12 28.82 C 48.22 25.26 48.05 21.71 48.07 18.16 Z" />
</g>
<g id="#f8f8f8ff">
<path fill="#f8f8f8" opacity="1.00" d=" M 48.73 18.01 C 50.41 17.93 52.11 17.93 53.79 18.06 C 53.98 18.35 54.36 18.92 54.56 19.21 C 54.89 20.81 55.21 22.41 55.53 24.01 C 55.73 25.64 55.74 27.29 55.76 28.93 L 55.18 28.92 C 54.62 27.44 54.73 25.55 53.57 24.38 C 52.12 23.83 50.52 24.42 49.02 24.45 C 48.86 22.30 48.76 20.16 48.73 18.01 Z" />
</g>
<g id="#535354ff">
<path fill="#535354" opacity="1.00" d=" M 19.44 27.10 C 20.47 24.96 21.69 22.94 22.88 20.89 C 22.99 21.68 23.22 23.28 23.34 24.07 C 24.94 24.11 26.54 23.92 28.11 23.64 C 27.40 25.37 26.80 27.15 26.19 28.92 L 25.68 28.92 C 25.44 28.93 24.96 28.94 24.72 28.94 C 23.19 28.90 21.66 28.82 20.13 28.70 C 19.96 28.30 19.61 27.50 19.44 27.10 Z" />
</g>
<g id="#e7e7e7ff">
<path fill="#e7e7e7" opacity="1.00" d=" M 28.29 23.26 C 33.53 22.04 38.95 21.89 44.26 22.75 C 44.03 24.75 43.93 26.77 43.94 28.78 C 38.03 29.08 32.10 28.82 26.19 28.92 C 26.80 27.15 27.40 25.37 28.11 23.64 L 28.29 23.26 Z" />
</g>
<g id="#032b54f6">
<path fill="#032b54" opacity="0.96" d=" M 60.23 22.85 C 60.58 25.28 60.93 27.72 61.17 30.17 C 59.82 30.18 58.46 30.18 57.11 30.19 C 46.92 29.98 36.71 30.05 26.51 30.15 C 26.82 30.67 27.43 31.71 27.74 32.22 L 28.17 32.95 C 28.00 33.16 27.65 33.58 27.48 33.79 C 26.24 32.44 23.99 32.72 22.60 33.69 C 22.44 33.58 22.14 33.35 21.98 33.23 L 21.98 32.15 L 22.00 30.98 C 23.30 31.28 24.60 31.56 25.89 31.85 C 25.84 31.12 25.73 29.65 25.68 28.92 L 26.19 28.92 C 32.10 28.82 38.03 29.08 43.94 28.78 C 45.33 28.68 46.73 28.69 48.12 28.82 C 50.47 29.00 52.82 28.92 55.18 28.92 L 55.76 28.93 C 57.26 28.97 58.76 29.00 60.27 29.02 C 60.24 26.96 60.25 24.90 60.23 22.85 Z" />
</g>
<g id="#063052e7">
<path fill="#063052" opacity="0.91" d=" M 18.64 28.80 C 18.84 28.38 19.24 27.52 19.44 27.10 C 19.61 27.50 19.96 28.30 20.13 28.70 C 21.66 28.82 23.19 28.90 24.72 28.94 L 23.98 30.42 C 20.79 29.64 17.48 29.86 14.36 30.80 C 12.56 31.20 10.76 31.56 8.97 31.94 C 6.71 32.26 4.46 33.10 3.51 35.35 L 2.66 36.17 C 3.01 34.83 2.66 32.94 4.29 32.36 C 8.83 30.37 13.82 29.80 18.64 28.80 Z" />
</g>
<g id="#2b86d6ff">
<path fill="#2b86d6" opacity="1.00" d=" M 24.72 28.94 C 24.96 28.94 25.44 28.93 25.68 28.92 C 25.73 29.65 25.84 31.12 25.89 31.85 C 24.60 31.56 23.30 31.28 22.00 30.98 L 21.98 32.15 C 19.38 32.13 16.62 32.35 14.36 30.80 C 17.48 29.86 20.79 29.64 23.98 30.42 L 24.72 28.94 Z" />
</g>
<g id="#42a4f3ff">
<path fill="#42a4f3" opacity="1.00" d=" M 26.51 30.15 C 36.71 30.05 46.92 29.98 57.11 30.19 C 57.50 30.68 58.27 31.67 58.66 32.17 C 48.35 32.23 38.05 32.05 27.74 32.22 C 27.43 31.71 26.82 30.67 26.51 30.15 Z" />
</g>
<g id="#005ea2ff">
<path fill="#005ea2" opacity="1.00" d=" M 57.11 30.19 C 58.46 30.18 59.82 30.18 61.17 30.17 C 61.47 30.33 62.06 30.65 62.35 30.81 C 62.49 31.97 62.51 33.14 62.42 34.30 C 60.99 36.55 60.42 39.16 59.66 41.67 C 55.46 41.95 51.26 42.40 47.06 42.73 C 45.40 43.13 44.56 41.46 43.55 40.51 C 43.12 41.18 42.70 41.85 42.27 42.51 C 34.99 42.88 27.58 43.24 20.34 42.34 C 17.85 41.39 15.51 42.93 13.19 43.64 C 10.75 40.06 6.17 43.07 2.82 42.75 L 2.98 42.46 C 5.28 40.88 5.97 37.15 3.51 35.35 C 4.46 33.10 6.71 32.26 8.97 31.94 C 8.72 32.48 8.23 33.56 7.99 34.10 C 12.68 34.68 17.32 33.62 21.98 33.23 C 22.14 33.35 22.44 33.58 22.60 33.69 C 23.87 35.05 26.39 35.77 27.48 33.79 C 27.65 33.58 28.00 33.16 28.17 32.95 C 35.44 32.74 42.72 32.78 49.97 33.46 C 52.83 33.26 56.29 34.17 58.66 32.17 C 58.27 31.67 57.50 30.68 57.11 30.19 M 36.14 38.30 C 36.57 39.75 40.37 39.73 40.78 38.28 C 39.35 37.76 37.56 37.75 36.14 38.30 Z" />
</g>
<g id="#108ae2ff">
<path fill="#108ae2" opacity="1.00" d=" M 8.97 31.94 C 10.76 31.56 12.56 31.20 14.36 30.80 C 16.62 32.35 19.38 32.13 21.98 32.15 L 21.98 33.23 C 17.32 33.62 12.68 34.68 7.99 34.10 C 8.23 33.56 8.72 32.48 8.97 31.94 Z" />
</g>
<g id="#06142295">
<path fill="#061422" opacity="0.58" d=" M 62.35 30.81 L 62.90 31.39 C 62.86 32.85 63.23 34.16 64.00 35.33 L 64.00 41.61 L 62.18 41.23 C 62.06 38.91 62.25 36.60 62.42 34.30 C 62.51 33.14 62.49 31.97 62.35 30.81 Z" />
</g>
<g id="#1692ecff">
<path fill="#1692ec" opacity="1.00" d=" M 27.74 32.22 C 38.05 32.05 48.35 32.23 58.66 32.17 C 56.29 34.17 52.83 33.26 49.97 33.46 C 42.72 32.78 35.44 32.74 28.17 32.95 L 27.74 32.22 Z" />
</g>
<g id="#030f1fff">
<path fill="#030f1f" opacity="1.00" d=" M 22.60 33.69 C 23.99 32.72 26.24 32.44 27.48 33.79 C 26.39 35.77 23.87 35.05 22.60 33.69 Z" />
</g>
<g id="#126bacff">
<path fill="#126bac" opacity="1.00" d=" M 59.66 41.67 C 60.42 39.16 60.99 36.55 62.42 34.30 C 62.25 36.60 62.06 38.91 62.18 41.23 C 63.45 45.05 64.43 49.82 62.16 53.44 C 61.34 53.48 59.69 53.54 58.86 53.58 C 60.12 52.24 62.13 51.06 62.25 49.05 C 60.67 46.67 57.50 46.12 54.94 45.31 C 51.97 44.25 48.87 44.85 46.02 45.95 C 45.39 45.48 44.76 45.02 44.12 44.57 C 42.21 45.50 40.20 46.36 38.02 46.22 C 30.91 46.10 23.73 46.69 16.68 45.49 C 12.71 43.93 8.18 44.89 5.39 48.15 C 4.42 48.73 3.45 49.30 2.48 49.88 C 3.77 50.91 5.07 51.92 6.37 52.93 L 5.95 53.70 C 4.35 53.55 2.41 53.77 1.62 52.02 C 1.27 49.17 1.49 46.27 2.10 43.47 C 2.28 43.29 2.64 42.93 2.82 42.75 C 6.17 43.07 10.75 40.06 13.19 43.64 C 15.51 42.93 17.85 41.39 20.34 42.34 C 27.58 43.24 34.99 42.88 42.27 42.51 C 42.70 41.85 43.12 41.18 43.55 40.51 C 44.56 41.46 45.40 43.13 47.06 42.73 C 51.26 42.40 55.46 41.95 59.66 41.67 Z" />
</g>
<g id="#bc9218ff">
<path fill="#bc9218" opacity="1.00" d=" M 2.66 36.17 L 3.51 35.35 C 5.97 37.15 5.28 40.88 2.98 42.46 C 2.68 42.39 2.08 42.26 1.77 42.19 C 1.89 40.16 2.22 38.15 2.66 36.17 Z" />
</g>
<g id="#147dcdff">
<path fill="#147dcd" opacity="1.00" d=" M 36.14 38.30 C 37.56 37.75 39.35 37.76 40.78 38.28 C 40.37 39.73 36.57 39.75 36.14 38.30 Z" />
</g>
<g id="#0f0f0fff">
<path fill="#0f0f0f" opacity="1.00" d=" M 62.18 41.23 L 64.00 41.61 L 64.00 52.08 C 63.00 54.73 60.09 54.42 57.82 54.39 C 57.26 56.65 56.41 59.15 54.07 60.12 C 50.04 62.37 44.55 59.08 44.73 54.41 C 36.25 54.36 27.76 54.37 19.28 54.41 C 19.05 56.96 17.89 59.50 15.27 60.30 C 11.17 62.29 6.51 58.73 6.23 54.44 C 4.44 54.34 2.23 54.59 1.17 52.79 C 0.78 50.03 1.05 47.24 1.18 44.47 C 1.41 44.22 1.87 43.72 2.10 43.47 C 1.49 46.27 1.27 49.17 1.62 52.02 C 2.41 53.77 4.35 53.55 5.95 53.70 L 6.37 52.93 C 7.87 46.83 17.13 46.24 18.93 52.44 C 19.06 52.77 19.33 53.43 19.47 53.76 C 27.81 53.74 36.16 53.76 44.51 53.77 C 44.65 53.45 44.92 52.80 45.06 52.48 C 46.07 49.69 48.92 47.50 51.97 47.98 C 55.07 48.22 56.90 51.03 57.96 53.64 L 58.86 53.58 C 59.69 53.54 61.34 53.48 62.16 53.44 C 64.43 49.82 63.45 45.05 62.18 41.23 M 8.98 50.98 C 7.42 52.15 8.16 54.28 8.02 55.93 C 9.28 57.46 10.79 59.38 13.03 59.03 C 15.96 59.10 18.19 55.85 17.53 53.07 C 17.20 49.21 11.29 48.37 8.98 50.98 M 49.65 51.59 C 49.17 52.74 48.88 53.95 48.78 55.19 C 50.11 55.47 51.45 55.70 52.79 55.87 C 52.72 55.05 52.59 53.41 52.52 52.58 L 53.88 51.93 C 52.63 51.14 51.04 51.75 49.65 51.59 Z" />
</g>
<g id="#2275b6ff">
<path fill="#2275b6" opacity="1.00" d=" M 38.02 46.22 C 40.20 46.36 42.21 45.50 44.12 44.57 C 44.76 45.02 45.39 45.48 46.02 45.95 C 45.68 46.54 44.98 47.72 44.63 48.31 C 48.03 47.18 51.62 46.68 54.94 45.31 C 57.50 46.12 60.67 46.67 62.25 49.05 C 62.13 51.06 60.12 52.24 58.86 53.58 L 57.96 53.64 C 56.90 51.03 55.07 48.22 51.97 47.98 C 48.92 47.50 46.07 49.69 45.06 52.48 C 36.35 52.58 27.64 52.50 18.93 52.44 C 17.13 46.24 7.87 46.83 6.37 52.93 C 5.07 51.92 3.77 50.91 2.48 49.88 C 3.45 49.30 4.42 48.73 5.39 48.15 C 9.19 47.42 12.97 46.59 16.68 45.49 C 23.73 46.69 30.91 46.10 38.02 46.22 Z" />
</g>
<g id="#33a0f4ff">
<path fill="#33a0f4" opacity="1.00" d=" M 5.39 48.15 C 8.18 44.89 12.71 43.93 16.68 45.49 C 12.97 46.59 9.19 47.42 5.39 48.15 Z" />
</g>
<g id="#34a2f8ff">
<path fill="#34a2f8" opacity="1.00" d=" M 46.02 45.95 C 48.87 44.85 51.97 44.25 54.94 45.31 C 51.62 46.68 48.03 47.18 44.63 48.31 C 44.98 47.72 45.68 46.54 46.02 45.95 Z" />
</g>
<g id="#292929ff">
<path fill="#292929" opacity="1.00" d=" M 8.98 50.98 C 11.29 48.37 17.20 49.21 17.53 53.07 C 18.19 55.85 15.96 59.10 13.03 59.03 C 10.79 59.38 9.28 57.46 8.02 55.93 C 8.16 54.28 7.42 52.15 8.98 50.98 M 11.47 53.35 C 11.46 53.90 11.45 55.01 11.44 55.56 C 12.66 55.45 13.88 55.34 15.10 55.21 C 15.12 54.84 15.18 54.11 15.21 53.75 C 13.97 53.53 12.73 53.35 11.47 53.35 Z" />
</g>
<g id="#474747ff">
<path fill="#474747" opacity="1.00" d=" M 49.65 51.59 C 51.04 51.75 52.63 51.14 53.88 51.93 L 52.52 52.58 C 52.59 53.41 52.72 55.05 52.79 55.87 C 51.45 55.70 50.11 55.47 48.78 55.19 C 48.88 53.95 49.17 52.74 49.65 51.59 Z" />
</g>
<g id="#1e5684ff">
<path fill="#1e5684" opacity="1.00" d=" M 18.93 52.44 C 27.64 52.50 36.35 52.58 45.06 52.48 C 44.92 52.80 44.65 53.45 44.51 53.77 C 36.16 53.76 27.81 53.74 19.47 53.76 C 19.33 53.43 19.06 52.77 18.93 52.44 Z" />
</g>
<g id="#4c4c4dff">
<path fill="#4c4c4d" opacity="1.00" d=" M 11.47 53.35 C 12.73 53.35 13.97 53.53 15.21 53.75 C 15.18 54.11 15.12 54.84 15.10 55.21 C 13.88 55.34 12.66 55.45 11.44 55.56 C 11.45 55.01 11.46 53.90 11.47 53.35 Z" />
</g>
<g id="#0000004d">
<path fill="#000000" opacity="0.30" d=" M 20.20 57.90 C 27.82 56.03 36.14 55.85 43.72 57.91 L 44.01 59.19 C 36.23 61.18 27.83 61.07 20.04 59.21 L 20.20 57.90 Z" />
</g>
</svg>
