<?xml version="1.0" encoding="UTF-8" ?>
<!DOCTYPE svg PUBLIC "-//W3C//DTD SVG 1.1//EN" "http://www.w3.org/Graphics/SVG/1.1/DTD/svg11.dtd">
<svg width="64pt" height="64pt" viewBox="0 0 64 64" version="1.1" xmlns="http://www.w3.org/2000/svg">
<g id="#383838ff">
<path fill="#383838" opacity="1.00" d=" M 13.81 9.86 C 20.64 3.57 31.02 1.73 39.85 4.26 C 49.40 6.79 57.06 14.73 59.76 24.16 C 61.81 31.39 61.08 39.58 57.14 46.05 C 52.10 55.81 40.86 61.72 29.98 60.81 C 18.11 60.23 7.34 51.37 4.25 39.94 C 1.61 31.07 3.67 20.74 9.86 13.83 C 7.91 17.81 4.98 21.50 4.39 26.02 C 4.22 30.32 4.11 34.65 4.51 38.95 C 6.82 47.17 12.70 54.45 20.59 57.86 C 26.20 60.82 32.74 59.54 38.80 59.56 C 48.95 56.93 57.42 48.39 59.58 38.09 C 59.82 33.74 59.85 29.36 59.51 25.01 C 57.03 16.35 50.50 8.70 41.95 5.60 C 37.61 3.58 32.67 4.47 28.03 4.34 C 22.73 4.19 18.31 7.55 13.81 9.86 Z" />
<path fill="#383838" opacity="1.00" d=" M 12.84 20.78 C 15.57 15.65 20.67 11.96 26.21 10.38 C 28.38 11.34 30.72 10.46 32.99 10.60 C 34.66 10.68 36.37 10.93 37.98 10.31 C 45.52 12.19 51.62 18.38 53.81 25.78 C 53.35 26.22 52.42 27.10 51.96 27.54 C 49.21 26.81 46.44 26.15 43.70 25.38 C 43.49 23.31 43.44 20.70 41.11 19.83 C 38.54 17.99 35.78 20.51 33.01 19.93 C 31.20 19.85 29.33 18.43 27.62 19.62 C 25.66 21.09 24.15 23.06 22.22 24.58 C 19.09 23.32 15.88 22.23 12.84 20.78 M 33.17 13.18 C 31.42 13.77 30.21 16.05 31.47 17.67 C 32.63 19.75 36.32 19.24 36.82 16.87 C 37.63 14.86 35.16 12.50 33.17 13.18 Z" />
</g>
<g id="#da3d10ff">
<path fill="#da3d10" opacity="1.00" d=" M 13.81 9.86 C 18.31 7.55 22.73 4.19 28.03 4.34 C 32.67 4.47 37.61 3.58 41.95 5.60 C 50.50 8.70 57.03 16.35 59.51 25.01 C 59.85 29.36 59.82 33.74 59.58 38.09 C 57.42 48.39 48.95 56.93 38.80 59.56 C 32.74 59.54 26.20 60.82 20.59 57.86 C 12.70 54.45 6.82 47.17 4.51 38.95 C 4.11 34.65 4.22 30.32 4.39 26.02 C 4.98 21.50 7.91 17.81 9.86 13.83 C 10.99 12.33 12.33 11.00 13.81 9.86 M 24.99 7.38 C 15.73 9.88 7.65 18.51 7.29 28.33 C 8.44 21.20 13.32 15.11 19.46 11.56 C 21.54 10.80 23.67 8.98 26.41 9.50 L 26.65 8.53 C 30.22 8.46 33.78 8.46 37.35 8.53 L 37.59 9.50 C 39.84 8.56 41.15 10.83 43.21 10.56 L 43.60 11.42 C 47.03 12.37 49.60 15.37 52.01 17.97 C 54.63 20.62 55.43 24.29 56.76 27.61 C 55.37 13.02 38.68 2.73 24.99 7.38 M 12.84 20.78 C 15.88 22.23 19.09 23.32 22.22 24.58 C 23.20 25.05 24.20 25.44 25.22 25.78 L 25.58 25.17 L 25.03 26.38 C 25.67 26.43 26.96 26.53 27.61 26.58 L 27.69 27.04 C 28.31 27.26 29.54 27.70 30.15 27.92 C 29.82 30.13 30.09 32.38 29.99 34.61 C 27.32 33.99 24.96 32.29 22.24 31.98 L 22.20 31.99 C 18.45 30.19 14.28 28.13 10.14 27.57 C 9.27 33.61 10.29 40.10 14.03 45.04 C 18.65 51.59 27.00 55.31 34.96 54.23 C 41.83 53.42 48.22 49.20 51.58 43.14 C 47.02 41.04 42.02 39.70 37.73 37.25 L 38.46 37.31 C 37.63 35.23 38.10 33.00 38.03 30.84 C 38.57 30.94 39.64 31.14 40.18 31.24 C 40.68 32.37 40.80 33.59 40.55 34.92 C 41.93 35.09 41.29 32.98 42.55 32.69 L 42.59 33.05 C 46.58 33.14 50.08 35.92 54.05 36.65 C 55.02 33.07 54.43 29.36 53.81 25.78 C 51.62 18.38 45.52 12.19 37.98 10.31 C 34.11 9.65 30.05 9.49 26.21 10.38 C 20.67 11.96 15.57 15.65 12.84 20.78 Z" />
</g>
<g id="#ffffffff">
<path fill="#ffffff" opacity="1.00" d=" M 24.99 7.38 C 38.68 2.73 55.37 13.02 56.76 27.61 C 55.43 24.29 54.63 20.62 52.01 17.97 C 49.60 15.37 47.03 12.37 43.60 11.42 L 43.21 10.56 C 41.15 10.83 39.84 8.56 37.59 9.50 L 37.35 8.53 C 33.78 8.46 30.22 8.46 26.65 8.53 L 26.41 9.50 C 23.67 8.98 21.54 10.80 19.46 11.56 C 13.32 15.11 8.44 21.20 7.29 28.33 C 7.65 18.51 15.73 9.88 24.99 7.38 Z" />
<path fill="#ffffff" opacity="1.00" d=" M 33.17 13.18 C 35.16 12.50 37.63 14.86 36.82 16.87 C 36.32 19.24 32.63 19.75 31.47 17.67 C 30.21 16.05 31.42 13.77 33.17 13.18 Z" />
<path fill="#ffffff" opacity="1.00" d=" M 25.58 25.17 C 26.69 23.15 28.18 20.39 30.95 21.00 C 34.22 21.37 37.95 20.06 40.82 22.08 C 43.50 24.99 40.95 29.47 42.55 32.69 C 41.29 32.98 41.93 35.09 40.55 34.92 C 40.80 33.59 40.68 32.37 40.18 31.24 C 39.09 29.49 40.01 27.26 39.53 25.33 C 39.06 25.23 38.12 25.02 37.65 24.92 C 37.98 26.72 38.15 28.55 38.02 30.39 C 35.48 29.27 32.90 28.25 30.25 27.40 C 30.18 26.64 30.03 25.11 29.96 24.35 C 29.16 25.06 28.37 25.81 27.61 26.58 C 26.96 26.53 25.67 26.43 25.03 26.38 L 25.58 25.17 Z" />
<path fill="#ffffff" opacity="1.00" d=" M 19.50 33.46 C 19.94 32.22 20.83 31.73 22.20 31.99 L 22.24 31.98 C 23.14 33.21 22.96 34.20 21.71 34.93 C 20.94 34.49 20.19 34.02 19.50 33.46 Z" />
<path fill="#ffffff" opacity="1.00" d=" M 30.01 34.96 C 31.04 35.33 32.06 35.73 33.07 36.15 C 32.87 40.45 33.13 44.76 32.93 49.07 C 32.39 50.34 30.51 50.35 30.06 48.99 C 29.92 44.32 30.03 39.64 30.01 34.96 Z" />
<path fill="#ffffff" opacity="1.00" d=" M 23.00 37.11 C 23.48 36.83 24.44 36.26 24.92 35.98 C 25.28 36.54 26.00 37.67 26.35 38.23 C 25.72 38.66 25.07 39.04 24.40 39.40 C 23.90 38.65 23.43 37.89 23.00 37.11 Z" />
<path fill="#ffffff" opacity="1.00" d=" M 36.04 37.12 L 36.43 37.23 C 37.62 37.98 38.32 39.22 38.22 40.67 C 37.78 43.42 38.30 46.24 37.95 49.01 C 37.46 50.34 35.44 50.40 35.07 48.94 C 35.04 44.91 35.03 40.87 35.09 36.84 L 36.04 37.12 Z" />
<path fill="#ffffff" opacity="1.00" d=" M 21.59 41.27 C 22.17 41.24 23.33 41.17 23.91 41.14 C 23.93 41.85 23.98 43.28 24.00 43.99 C 23.38 43.94 22.16 43.83 21.55 43.78 C 21.56 43.15 21.58 41.90 21.59 41.27 Z" />
</g>
<g id="#000000ff">
<path fill="#000000" opacity="1.00" d=" M 26.21 10.38 C 30.05 9.49 34.11 9.65 37.98 10.31 C 36.37 10.93 34.66 10.68 32.99 10.60 C 30.72 10.46 28.38 11.34 26.21 10.38 Z" />
<path fill="#000000" opacity="1.00" d=" M 27.62 19.62 C 29.33 18.43 31.20 19.85 33.01 19.93 C 35.78 20.51 38.54 17.99 41.11 19.83 C 43.44 20.70 43.49 23.31 43.70 25.38 C 46.44 26.15 49.21 26.81 51.96 27.54 C 52.42 27.10 53.35 26.22 53.81 25.78 C 54.43 29.36 55.02 33.07 54.05 36.65 C 50.08 35.92 46.58 33.14 42.59 33.05 L 42.55 32.69 C 40.95 29.47 43.50 24.99 40.82 22.08 C 37.95 20.06 34.22 21.37 30.95 21.00 C 28.18 20.39 26.69 23.15 25.58 25.17 L 25.22 25.78 C 24.20 25.44 23.20 25.05 22.22 24.58 C 24.15 23.06 25.66 21.09 27.62 19.62 Z" />
<path fill="#000000" opacity="1.00" d=" M 27.61 26.58 C 28.37 25.81 29.16 25.06 29.96 24.35 C 30.03 25.11 30.18 26.64 30.25 27.40 L 30.15 27.92 C 29.54 27.70 28.31 27.26 27.69 27.04 L 27.61 26.58 Z" />
<path fill="#000000" opacity="1.00" d=" M 37.65 24.92 C 38.12 25.02 39.06 25.23 39.53 25.33 C 40.01 27.26 39.09 29.49 40.18 31.24 C 39.64 31.14 38.57 30.94 38.03 30.84 L 38.02 30.39 C 38.15 28.55 37.98 26.72 37.65 24.92 Z" />
<path fill="#000000" opacity="1.00" d=" M 10.14 27.57 C 14.28 28.13 18.45 30.19 22.20 31.99 C 20.83 31.73 19.94 32.22 19.50 33.46 C 20.19 34.02 20.94 34.49 21.71 34.93 C 22.96 34.20 23.14 33.21 22.24 31.98 C 24.96 32.29 27.32 33.99 29.99 34.61 L 30.01 34.96 C 30.03 39.64 29.92 44.32 30.06 48.99 C 30.51 50.35 32.39 50.34 32.93 49.07 C 33.13 44.76 32.87 40.45 33.07 36.15 C 33.82 36.39 35.30 36.88 36.04 37.12 L 35.09 36.84 C 35.03 40.87 35.04 44.91 35.07 48.94 C 35.44 50.40 37.46 50.34 37.95 49.01 C 38.30 46.24 37.78 43.42 38.22 40.67 C 38.32 39.22 37.62 37.98 36.43 37.23 C 36.75 37.24 37.40 37.25 37.73 37.25 C 42.02 39.70 47.02 41.04 51.58 43.14 C 48.22 49.20 41.83 53.42 34.96 54.23 C 27.00 55.31 18.65 51.59 14.03 45.04 C 10.29 40.10 9.27 33.61 10.14 27.57 M 23.00 37.11 C 23.43 37.89 23.90 38.65 24.40 39.40 C 25.07 39.04 25.72 38.66 26.35 38.23 C 26.00 37.67 25.28 36.54 24.92 35.98 C 24.44 36.26 23.48 36.83 23.00 37.11 M 21.59 41.27 C 21.58 41.90 21.56 43.15 21.55 43.78 C 22.16 43.83 23.38 43.94 24.00 43.99 C 23.98 43.28 23.93 41.85 23.91 41.14 C 23.33 41.17 22.17 41.24 21.59 41.27 Z" />
</g>
<g id="#ef8b6eff">
<path fill="#ef8b6e" opacity="1.00" d=" M 30.25 27.40 C 32.90 28.25 35.48 29.27 38.02 30.39 L 38.03 30.84 C 38.10 33.00 37.63 35.23 38.46 37.31 L 37.73 37.25 C 37.40 37.25 36.75 37.24 36.43 37.23 L 36.04 37.12 C 35.30 36.88 33.82 36.39 33.07 36.15 C 32.06 35.73 31.04 35.33 30.01 34.96 L 29.99 34.61 C 30.09 32.38 29.82 30.13 30.15 27.92 L 30.25 27.40 Z" />
</g>
</svg>
