<?xml version="1.0" encoding="UTF-8" ?>
<!DOCTYPE svg PUBLIC "-//W3C//DTD SVG 1.1//EN" "http://www.w3.org/Graphics/SVG/1.1/DTD/svg11.dtd">
<svg width="64pt" height="64pt" viewBox="0 0 64 64" version="1.1" xmlns="http://www.w3.org/2000/svg">
<g id="#2b5873ff">
<path fill="#2b5873" opacity="1.00" d=" M 0.00 3.59 C 0.83 3.61 2.49 3.64 3.32 3.66 C 2.39 4.64 1.29 4.81 0.00 4.19 L 0.00 3.59 Z" />
<path fill="#2b5873" opacity="1.00" d=" M 3.89 5.21 C 4.25 3.84 6.91 4.22 8.07 4.56 C 7.68 5.90 5.05 5.63 3.89 5.21 Z" />
<path fill="#2b5873" opacity="1.00" d=" M 27.06 5.57 C 27.19 4.98 27.46 3.81 27.59 3.22 C 30.87 3.84 34.15 4.47 37.43 5.05 C 37.39 5.71 37.30 7.02 37.26 7.68 C 41.08 9.27 44.67 11.55 48.79 12.32 C 53.86 13.33 59.04 13.85 64.00 15.37 L 64.00 16.46 C 62.54 16.49 61.07 16.51 59.61 16.54 L 59.67 15.66 C 57.67 15.45 55.69 15.10 53.72 14.68 C 52.29 14.61 50.86 14.55 49.43 14.50 C 49.49 14.20 49.62 13.62 49.69 13.32 C 45.83 13.31 41.99 13.69 38.24 14.62 C 36.97 13.21 35.42 12.12 33.89 11.02 C 33.78 14.32 33.77 17.62 33.80 20.93 C 36.99 20.86 40.16 20.52 43.33 20.13 C 43.36 20.89 43.42 22.42 43.46 23.19 C 49.73 23.31 56.01 23.01 62.27 23.54 C 62.45 35.79 62.10 48.04 62.47 60.28 C 61.93 60.51 61.40 60.74 60.86 60.95 C 60.51 61.05 59.83 61.25 59.49 61.35 C 60.01 61.05 61.06 60.46 61.58 60.16 C 61.76 57.75 61.79 55.33 61.66 52.92 C 61.60 52.38 61.50 51.32 61.44 50.78 C 57.79 50.51 54.13 50.57 50.48 50.55 C 50.66 43.07 50.54 35.59 50.55 28.11 C 54.22 28.12 57.90 28.06 61.57 27.89 C 61.50 27.02 61.37 25.29 61.30 24.42 C 56.53 24.18 51.74 24.43 46.97 24.23 C 38.92 23.25 30.79 23.55 22.71 23.69 C 15.96 24.66 9.14 24.15 2.36 24.38 L 2.55 23.30 C 8.54 23.12 14.54 23.31 20.53 23.19 C 20.57 22.17 20.61 21.14 20.65 20.12 C 23.66 20.48 26.68 20.81 29.70 21.03 C 29.73 17.40 29.73 13.77 29.61 10.15 C 27.59 10.73 25.56 11.25 23.51 11.71 C 22.20 10.35 19.56 9.47 19.83 7.22 C 21.14 5.23 24.77 5.98 27.06 5.57 Z" />
<path fill="#2b5873" opacity="1.00" d=" M 6.14 6.06 C 9.23 5.22 12.43 5.31 15.60 5.45 L 15.35 6.29 C 16.60 6.15 17.71 6.27 18.69 6.65 C 17.47 8.11 15.48 7.32 13.93 6.98 C 11.36 6.53 8.75 6.28 6.14 6.06 Z" />
<path fill="#2b5873" opacity="1.00" d=" M 1.74 51.35 C 1.78 43.44 1.45 35.52 1.86 27.61 C 5.80 28.07 9.76 28.16 13.72 28.13 C 13.47 35.60 13.56 43.08 13.76 50.56 C 9.74 50.49 5.67 50.36 1.74 51.35 Z" />
<path fill="#2b5873" opacity="1.00" d=" M 17.78 27.93 C 21.88 27.92 25.99 27.90 30.09 28.05 C 29.89 35.54 29.79 43.03 30.02 50.52 C 25.98 50.56 21.93 50.55 17.88 50.55 C 17.93 43.01 18.13 35.47 17.78 27.93 Z" />
<path fill="#2b5873" opacity="1.00" d=" M 33.23 28.08 C 37.61 27.89 41.99 27.91 46.36 27.94 C 46.33 35.48 46.23 43.02 46.30 50.56 C 42.00 50.53 37.71 50.52 33.41 50.63 C 33.37 43.11 33.40 35.59 33.23 28.08 Z" />
<path fill="#2b5873" opacity="1.00" d=" M 39.98 63.39 C 46.26 63.44 52.41 61.94 58.67 61.54 C 54.94 62.27 51.21 63.03 47.53 64.00 L 17.49 64.00 L 15.67 62.98 C 23.76 63.56 31.87 63.36 39.98 63.39 Z" />
</g>
<g id="#e5e1deff">
<path fill="#e5e1de" opacity="1.00" d=" M 2.36 24.38 C 9.14 24.15 15.96 24.66 22.71 23.69 C 30.79 23.55 38.92 23.25 46.97 24.23 C 51.74 24.43 56.53 24.18 61.30 24.42 C 61.37 25.29 61.50 27.02 61.57 27.89 C 57.90 28.06 54.22 28.12 50.55 28.11 C 50.54 35.59 50.66 43.07 50.48 50.55 C 54.13 50.57 57.79 50.51 61.44 50.78 C 61.50 51.32 61.60 52.38 61.66 52.92 C 48.79 53.54 35.89 53.13 23.01 53.25 C 15.91 53.10 8.79 53.57 1.72 52.74 C 1.73 52.39 1.73 51.70 1.74 51.35 C 5.67 50.36 9.74 50.49 13.76 50.56 C 13.56 43.08 13.47 35.60 13.72 28.13 C 9.76 28.16 5.80 28.07 1.86 27.61 C 2.02 26.53 2.18 25.45 2.36 24.38 M 17.78 27.93 C 18.13 35.47 17.93 43.01 17.88 50.55 C 21.93 50.55 25.98 50.56 30.02 50.52 C 29.79 43.03 29.89 35.54 30.09 28.05 C 25.99 27.90 21.88 27.92 17.78 27.93 M 33.23 28.08 C 33.40 35.59 33.37 43.11 33.41 50.63 C 37.71 50.52 42.00 50.53 46.30 50.56 C 46.23 43.02 46.33 35.48 46.36 27.94 C 41.99 27.91 37.61 27.89 33.23 28.08 Z" />
</g>
<g id="#e82e22ff">
<path fill="#e82e22" opacity="1.00" d=" M 2.38 61.10 C 2.00 58.32 1.69 55.54 1.72 52.74 C 8.79 53.57 15.91 53.10 23.01 53.25 C 35.89 53.13 48.79 53.54 61.66 52.92 C 61.79 55.33 61.76 57.75 61.58 60.16 C 61.06 60.46 60.01 61.05 59.49 61.35 C 59.29 61.40 58.87 61.49 58.67 61.54 C 52.41 61.94 46.26 63.44 39.98 63.39 C 31.87 63.36 23.76 63.56 15.67 62.98 C 11.22 62.52 6.81 61.77 2.38 61.10 Z" />
</g>
</svg>
