<?xml version="1.0" encoding="UTF-8" ?>
<!DOCTYPE svg PUBLIC "-//W3C//DTD SVG 1.1//EN" "http://www.w3.org/Graphics/SVG/1.1/DTD/svg11.dtd">
<svg width="64pt" height="64pt" viewBox="0 0 64 64" version="1.1" xmlns="http://www.w3.org/2000/svg">
<g id="#ef695bff">
<path fill="#ef695b" opacity="1.00" d=" M 20.43 0.00 L 21.37 0.00 C 23.74 9.54 21.45 19.50 22.22 29.16 C 21.83 40.77 22.56 52.41 21.84 64.00 L 20.01 64.00 C 19.99 46.00 20.01 27.99 20.00 9.99 C 19.98 6.66 19.80 3.30 20.43 0.00 Z" />
<path fill="#ef695b" opacity="1.00" d=" M 22.56 4.43 C 25.68 6.02 28.94 7.34 32.01 9.03 C 33.12 9.95 34.18 10.92 35.25 11.89 C 32.30 14.83 28.93 17.27 25.84 20.05 C 25.00 20.96 23.64 20.43 22.57 20.54 C 22.69 15.17 22.67 9.80 22.56 4.43 Z" />
</g>
<g id="#eb4436ff">
<path fill="#eb4436" opacity="1.00" d=" M 32.01 9.03 C 38.10 11.89 44.28 14.58 50.17 17.84 C 41.45 22.05 32.53 25.89 24.06 30.55 C 21.01 28.16 22.54 23.85 22.57 20.54 C 23.64 20.43 25.00 20.96 25.84 20.05 C 28.93 17.27 32.30 14.83 35.25 11.89 C 34.18 10.92 33.12 9.95 32.01 9.03 Z" />
</g>
</svg>
