<?xml version="1.0" encoding="UTF-8" ?>
<!DOCTYPE svg PUBLIC "-//W3C//DTD SVG 1.1//EN" "http://www.w3.org/Graphics/SVG/1.1/DTD/svg11.dtd">
<svg width="64pt" height="64pt" viewBox="0 0 64 64" version="1.1" xmlns="http://www.w3.org/2000/svg">
<g id="#09090930">
<path fill="#090909" opacity="0.19" d=" M 8.62 20.31 C 7.53 17.54 7.64 14.58 9.84 12.40 C 12.54 18.27 16.74 24.19 15.43 31.00 C 15.30 34.06 12.56 35.88 10.58 37.80 C 8.84 32.09 10.71 25.96 8.62 20.31 Z" />
<path fill="#090909" opacity="0.19" d=" M 59.10 41.65 C 60.15 46.19 59.88 50.86 59.45 55.46 C 45.31 55.70 31.16 55.44 17.01 55.59 C 13.15 55.57 9.21 56.18 5.40 55.38 C 1.63 53.75 2.38 49.27 2.36 45.96 C 2.49 46.40 2.73 47.27 2.86 47.71 C 3.29 49.32 3.86 50.89 4.61 52.38 C 7.10 54.61 10.55 53.78 13.54 53.62 C 21.70 53.47 29.87 53.49 38.03 53.49 C 45.17 53.45 52.33 54.18 59.46 53.51 C 53.33 52.99 47.04 53.88 41.03 52.21 C 46.92 53.11 52.88 52.75 58.81 52.81 C 58.86 49.08 58.96 45.36 59.10 41.65 Z" />
</g>
<g id="#0a0a0a32">
<path fill="#0a0a0a" opacity="0.20" d=" M 17.76 33.88 C 19.75 28.00 16.93 20.62 22.21 16.05 C 23.40 20.62 24.06 25.33 24.13 30.05 C 23.65 33.60 21.00 36.50 17.91 38.12 C 16.44 37.03 17.58 35.30 17.76 33.88 Z" />
</g>
<g id="#999081fc">
<path fill="#999081" opacity="1.00" d=" M 4.69 40.48 C 6.46 40.63 8.23 40.74 10.01 40.74 C 9.25 41.44 8.56 42.20 7.93 43.02 C 7.99 43.30 8.11 43.86 8.17 44.14 C 10.55 44.90 13.05 45.11 15.50 45.48 C 14.55 46.37 13.57 47.25 12.60 48.13 C 12.67 47.59 12.81 46.52 12.88 45.99 C 12.17 45.99 10.76 46.00 10.05 46.00 C 8.76 46.02 7.56 46.39 6.45 47.10 L 5.79 46.94 C 6.13 45.74 6.50 44.54 6.76 43.32 C 6.07 43.12 4.69 42.72 4.00 42.52 C 4.17 42.01 4.52 40.99 4.69 40.48 Z" />
</g>
<g id="#d0ccc2ff">
<path fill="#d0ccc2" opacity="1.00" d=" M 10.01 40.74 L 11.20 41.44 C 12.30 42.44 13.87 42.37 15.07 41.59 L 16.78 40.96 C 16.47 42.38 16.16 43.81 15.71 45.19 L 15.50 45.48 C 13.05 45.11 10.55 44.90 8.17 44.14 C 8.11 43.86 7.99 43.30 7.93 43.02 C 8.56 42.20 9.25 41.44 10.01 40.74 Z" />
</g>
<g id="#746f64e3">
<path fill="#746f64" opacity="0.89" d=" M 11.20 41.44 C 12.55 40.31 13.84 40.36 15.07 41.59 C 13.87 42.37 12.30 42.44 11.20 41.44 Z" />
</g>
<g id="#6b6458ff">
<path fill="#6b6458" opacity="1.00" d=" M 16.78 40.96 L 17.26 41.23 C 19.79 42.02 21.39 43.85 20.65 46.68 L 19.19 45.81 C 18.38 44.95 17.63 44.03 16.88 43.12 C 16.81 45.90 16.69 48.69 16.86 51.47 C 14.57 50.67 12.25 49.99 9.93 49.29 C 10.52 49.99 11.11 50.69 11.70 51.39 C 11.64 51.84 11.52 52.74 11.46 53.19 C 10.46 52.39 9.49 51.56 8.52 50.73 C 8.15 50.79 7.42 50.91 7.05 50.97 C 7.23 47.66 3.74 50.33 4.61 52.38 C 3.86 50.89 3.29 49.32 2.86 47.71 C 3.26 47.01 4.05 45.61 4.45 44.91 C 4.67 45.81 5.10 47.60 5.32 48.50 C 5.44 48.11 5.67 47.33 5.79 46.94 L 6.45 47.10 C 7.28 49.93 10.85 48.74 10.05 46.00 C 10.76 46.00 12.17 45.99 12.88 45.99 C 12.81 46.52 12.67 47.59 12.60 48.13 C 13.57 47.25 14.55 46.37 15.50 45.48 L 15.71 45.19 C 16.16 43.81 16.47 42.38 16.78 40.96 Z" />
</g>
<g id="#d1d1d1ff">
<path fill="#d1d1d1" opacity="1.00" d=" M 17.26 41.23 C 24.85 41.41 32.45 41.19 40.04 41.32 L 41.28 42.23 C 35.32 42.51 29.36 42.36 23.40 42.64 C 23.71 43.95 24.01 45.26 24.31 46.57 C 29.88 46.65 35.45 46.64 41.02 46.59 C 41.03 48.46 41.04 50.33 41.03 52.21 C 34.15 52.97 27.21 52.62 20.30 52.47 C 20.42 51.68 20.55 50.90 20.68 50.12 C 21.05 49.20 21.40 48.26 21.67 47.31 C 21.41 47.15 20.90 46.84 20.65 46.68 C 21.39 43.85 19.79 42.02 17.26 41.23 Z" />
</g>
<g id="#bb9666ff">
<path fill="#bb9666" opacity="1.00" d=" M 40.04 41.32 C 46.40 41.18 52.75 41.23 59.11 41.28 L 59.10 41.65 C 58.96 45.36 58.86 49.08 58.81 52.81 C 52.88 52.75 46.92 53.11 41.03 52.21 C 41.04 50.33 41.03 48.46 41.02 46.59 C 46.66 47.28 52.35 47.46 58.02 47.08 C 58.01 45.53 58.00 43.97 57.98 42.41 C 52.41 42.40 46.83 42.77 41.28 42.23 L 40.04 41.32 Z" />
</g>
<g id="#fefefeff">
<path fill="#fefefe" opacity="1.00" d=" M 23.40 42.64 C 29.36 42.36 35.32 42.51 41.28 42.23 C 41.18 43.68 41.10 45.14 41.02 46.59 C 35.45 46.64 29.88 46.65 24.31 46.57 C 24.01 45.26 23.71 43.95 23.40 42.64 Z" />
</g>
<g id="#debb8bff">
<path fill="#debb8b" opacity="1.00" d=" M 41.28 42.23 C 46.83 42.77 52.41 42.40 57.98 42.41 C 58.00 43.97 58.01 45.53 58.02 47.08 C 52.35 47.46 46.66 47.28 41.02 46.59 C 41.10 45.14 41.18 43.68 41.28 42.23 Z" />
</g>
<g id="#3d3a2fe8">
<path fill="#3d3a2f" opacity="0.91" d=" M 4.00 42.52 C 4.69 42.72 6.07 43.12 6.76 43.32 C 6.50 44.54 6.13 45.74 5.79 46.94 C 5.67 47.33 5.44 48.11 5.32 48.50 C 5.10 47.60 4.67 45.81 4.45 44.91 C 4.34 44.31 4.11 43.11 4.00 42.52 Z" />
</g>
<g id="#0b0a03ff">
<path fill="#0b0a03" opacity="1.00" d=" M 16.88 43.12 C 17.63 44.03 18.38 44.95 19.19 45.81 L 20.65 46.68 C 20.90 46.84 21.41 47.15 21.67 47.31 C 21.40 48.26 21.05 49.20 20.68 50.12 C 20.55 50.90 20.42 51.68 20.30 52.47 C 27.21 52.62 34.15 52.97 41.03 52.21 C 47.04 53.88 53.33 52.99 59.46 53.51 C 52.33 54.18 45.17 53.45 38.03 53.49 C 29.87 53.49 21.70 53.47 13.54 53.62 L 12.35 53.39 C 14.01 53.29 15.67 53.19 17.33 53.07 C 17.21 52.67 16.98 51.87 16.86 51.47 C 16.69 48.69 16.81 45.90 16.88 43.12 Z" />
</g>
<g id="#312918ff">
<path fill="#312918" opacity="1.00" d=" M 6.45 47.10 C 7.56 46.39 8.76 46.02 10.05 46.00 C 10.85 48.74 7.28 49.93 6.45 47.10 Z" />
</g>
<g id="#a0927eff">
<path fill="#a0927e" opacity="1.00" d=" M 4.61 52.38 C 3.74 50.33 7.23 47.66 7.05 50.97 C 6.44 51.32 5.22 52.03 4.61 52.38 Z" />
</g>
<g id="#807a6eff">
<path fill="#807a6e" opacity="1.00" d=" M 9.93 49.29 C 12.25 49.99 14.57 50.67 16.86 51.47 C 16.98 51.87 17.21 52.67 17.33 53.07 C 15.67 53.19 14.01 53.29 12.35 53.39 C 12.13 53.34 11.68 53.24 11.46 53.19 C 11.52 52.74 11.64 51.84 11.70 51.39 C 11.11 50.69 10.52 49.99 9.93 49.29 Z" />
</g>
<g id="#4f493af5">
<path fill="#4f493a" opacity="0.96" d=" M 7.05 50.97 C 7.42 50.91 8.15 50.79 8.52 50.73 C 9.49 51.56 10.46 52.39 11.46 53.19 C 11.68 53.24 12.13 53.34 12.35 53.39 L 13.54 53.62 C 10.55 53.78 7.10 54.61 4.61 52.38 C 5.22 52.03 6.44 51.32 7.05 50.97 Z" />
</g>
</svg>
