<?xml version="1.0" encoding="UTF-8" ?>
<!DOCTYPE svg PUBLIC "-//W3C//DTD SVG 1.1//EN" "http://www.w3.org/Graphics/SVG/1.1/DTD/svg11.dtd">
<svg width="64pt" height="64pt" viewBox="0 0 64 64" version="1.1" xmlns="http://www.w3.org/2000/svg">
<g id="#2a3951bb">
<path fill="#2a3951" opacity="0.73" d=" M 11.76 3.77 C 25.13 2.46 38.86 2.51 52.24 3.75 C 38.75 4.04 25.24 4.27 11.76 3.77 Z" />
</g>
<g id="#486284f4">
<path fill="#486284" opacity="0.96" d=" M 4.68 9.69 C 5.97 6.76 8.68 4.60 11.76 3.77 C 25.24 4.27 38.75 4.04 52.24 3.75 C 56.07 4.79 59.18 7.92 60.23 11.74 L 59.22 11.96 C 57.65 9.25 55.79 6.37 52.68 5.29 C 40.17 4.66 27.64 5.10 15.13 4.97 C 11.16 4.30 8.07 7.05 5.70 9.83 L 4.68 9.69 Z" />
</g>
<g id="#668aabff">
<path fill="#668aab" opacity="1.00" d=" M 5.70 9.83 C 8.07 7.05 11.16 4.30 15.13 4.97 L 14.75 5.79 C 11.34 7.12 8.11 9.34 6.72 12.87 C 6.25 13.76 6.05 14.73 6.14 15.75 C 6.06 18.79 5.99 21.83 6.03 24.86 C 5.86 29.23 5.67 33.73 7.25 37.89 C 9.86 37.07 15.85 40.00 16.57 35.56 C 18.72 34.88 20.56 33.65 22.18 32.10 C 26.14 32.25 30.06 32.87 34.01 33.07 C 34.01 36.31 34.04 39.55 33.80 42.78 C 33.79 46.91 29.86 48.03 27.84 50.98 C 28.33 46.27 29.70 41.70 30.05 36.99 C 29.58 37.02 28.64 37.07 28.17 37.10 C 27.06 41.30 28.32 46.33 25.79 49.94 C 18.51 52.92 20.54 45.28 19.60 41.33 C 18.97 39.65 19.74 36.31 16.99 36.99 C 17.38 41.70 18.40 46.32 19.20 50.98 C 16.55 50.26 19.03 43.94 12.97 48.07 C 11.52 48.02 8.63 47.91 7.19 47.86 C 5.31 35.32 3.79 22.45 5.70 9.83 M 22.22 34.18 C 18.91 35.52 25.34 40.40 25.43 36.34 C 26.78 34.43 23.64 33.47 22.22 34.18 Z" />
</g>
<g id="#6d92b4ff">
<path fill="#6d92b4" opacity="1.00" d=" M 15.13 4.97 C 27.64 5.10 40.17 4.66 52.68 5.29 C 55.79 6.37 57.65 9.25 59.22 11.96 C 59.05 16.24 59.02 20.52 58.84 24.80 C 58.12 29.15 57.86 33.59 56.80 37.88 C 51.87 38.05 46.94 38.02 42.00 38.00 C 42.00 35.93 42.09 33.85 42.17 31.77 C 42.90 33.11 42.49 35.42 44.07 36.06 C 47.16 36.86 45.65 32.91 46.11 31.13 C 50.21 30.58 56.16 29.80 57.22 24.99 C 57.88 21.08 58.96 16.51 57.33 12.73 C 57.11 12.34 56.65 11.56 56.42 11.17 C 54.03 7.95 50.50 4.81 46.01 6.04 C 35.59 5.86 25.16 6.16 14.75 5.79 L 15.13 4.97 Z" />
</g>
<g id="#e0e9f1ff">
<path fill="#e0e9f1" opacity="1.00" d=" M 6.72 12.87 C 8.11 9.34 11.34 7.12 14.75 5.79 C 25.16 6.16 35.59 5.86 46.01 6.04 C 50.50 4.81 54.03 7.95 56.42 11.17 C 54.13 11.71 52.73 8.94 50.68 8.27 C 39.12 7.69 27.54 8.07 15.97 7.97 C 12.12 7.61 9.77 11.19 6.72 12.87 Z" />
</g>
<g id="#a4bfd9ff">
<path fill="#a4bfd9" opacity="1.00" d=" M 6.72 12.87 C 9.77 11.19 12.12 7.61 15.97 7.97 C 27.54 8.07 39.12 7.69 50.68 8.27 C 52.73 8.94 54.13 11.71 56.42 11.17 C 56.65 11.56 57.11 12.34 57.33 12.73 C 57.20 14.38 57.10 16.03 56.89 17.68 C 52.65 17.32 48.39 17.29 44.16 16.84 C 41.38 15.42 40.90 10.16 36.07 13.05 C 34.29 13.26 33.68 15.49 32.46 16.60 C 23.99 17.51 15.40 16.31 6.99 17.83 C 6.78 17.31 6.35 16.27 6.14 15.75 C 6.05 14.73 6.25 13.76 6.72 12.87 Z" />
</g>
<g id="#5d7e9eff">
<path fill="#5d7e9e" opacity="1.00" d=" M 3.78 11.77 C 4.01 11.25 4.45 10.21 4.68 9.69 L 5.70 9.83 C 3.79 22.45 5.31 35.32 7.19 47.86 C 8.63 47.91 11.52 48.02 12.97 48.07 C 19.03 43.94 16.55 50.26 19.20 50.98 C 22.07 51.12 24.96 51.17 27.84 50.98 C 29.86 48.03 33.79 46.91 33.80 42.78 C 34.98 45.47 31.55 53.43 36.94 51.99 C 36.97 48.25 37.02 40.76 37.05 37.01 C 37.52 37.01 38.47 37.01 38.95 37.01 C 38.99 40.80 39.06 48.38 39.10 52.17 C 40.16 51.97 41.17 51.63 42.13 51.13 C 46.76 49.31 51.96 50.45 56.83 49.84 C 58.59 41.64 58.95 33.16 58.84 24.80 C 59.02 20.52 59.05 16.24 59.22 11.96 L 60.23 11.74 C 59.82 20.42 60.28 29.12 59.80 37.79 C 58.80 44.44 60.95 55.80 52.34 58.35 C 40.68 59.72 28.75 58.81 16.99 58.94 C 13.75 59.66 10.94 58.13 8.25 56.71 C 2.85 51.25 6.30 43.37 4.32 36.75 C 3.81 28.43 4.19 20.09 3.78 11.77 Z" />
</g>
<g id="#29384fc2">
<path fill="#29384f" opacity="0.76" d=" M 3.74 52.22 C 2.63 38.82 2.36 25.12 3.78 11.77 C 4.19 20.09 3.81 28.43 4.32 36.75 C 4.09 41.90 4.06 47.06 3.74 52.22 Z" />
<path fill="#29384f" opacity="0.76" d=" M 60.23 11.74 C 61.63 25.11 61.35 38.80 60.28 52.22 C 60.12 47.40 59.98 42.60 59.80 37.79 C 60.28 29.12 59.82 20.42 60.23 11.74 Z" />
</g>
<g id="#97b4d0ff">
<path fill="#97b4d0" opacity="1.00" d=" M 32.46 16.60 C 33.68 15.49 34.29 13.26 36.07 13.05 C 40.90 10.16 41.38 15.42 44.16 16.84 C 48.39 17.29 52.65 17.32 56.89 17.68 C 57.10 16.03 57.20 14.38 57.33 12.73 C 58.96 16.51 57.88 21.08 57.22 24.99 C 54.54 24.48 51.81 24.30 49.13 23.78 C 47.24 23.40 46.26 21.01 44.20 21.12 C 40.07 20.94 35.94 20.97 31.82 21.19 C 23.94 24.12 15.23 22.51 7.00 23.57 C 6.99 22.13 6.99 19.27 6.99 17.83 C 15.40 16.31 23.99 17.51 32.46 16.60 M 37.25 14.20 C 36.19 15.24 34.57 16.20 35.01 17.95 C 35.21 21.28 42.00 20.69 40.98 17.05 C 40.62 15.65 38.91 13.53 37.25 14.20 Z" />
</g>
<g id="#f5f8fbff">
<path fill="#f5f8fb" opacity="1.00" d=" M 37.25 14.20 C 38.91 13.53 40.62 15.65 40.98 17.05 C 42.00 20.69 35.21 21.28 35.01 17.95 C 34.57 16.20 36.19 15.24 37.25 14.20 Z" />
</g>
<g id="#8cabc8ff">
<path fill="#8cabc8" opacity="1.00" d=" M 6.14 15.75 C 6.35 16.27 6.78 17.31 6.99 17.83 C 6.99 19.27 6.99 22.13 7.00 23.57 C 15.23 22.51 23.94 24.12 31.82 21.19 C 32.17 21.42 32.88 21.89 33.23 22.12 C 32.75 22.40 31.80 22.97 31.32 23.25 C 24.80 27.13 16.93 26.98 9.83 29.17 C 8.24 28.07 7.18 26.38 6.03 24.86 C 5.99 21.83 6.06 18.79 6.14 15.75 Z" />
</g>
<g id="#447eb2ff">
<path fill="#447eb2" opacity="1.00" d=" M 31.82 21.19 C 35.94 20.97 40.07 20.94 44.20 21.12 C 43.86 21.35 43.18 21.83 42.83 22.06 C 39.63 22.04 36.43 22.00 33.23 22.12 C 32.88 21.89 32.17 21.42 31.82 21.19 Z" />
</g>
<g id="#87a7c6ff">
<path fill="#87a7c6" opacity="1.00" d=" M 44.20 21.12 C 46.26 21.01 47.24 23.40 49.13 23.78 C 51.81 24.30 54.54 24.48 57.22 24.99 C 56.16 29.80 50.21 30.58 46.11 31.13 C 46.66 27.32 46.63 23.59 42.83 22.06 C 43.18 21.83 43.86 21.35 44.20 21.12 Z" />
</g>
<g id="#fcfdfdff">
<path fill="#fcfdfd" opacity="1.00" d=" M 33.23 22.12 C 36.43 22.00 39.63 22.04 42.83 22.06 C 46.63 23.59 46.66 27.32 46.11 31.13 C 45.65 32.91 47.16 36.86 44.07 36.06 C 44.01 32.72 44.14 29.37 43.92 26.04 C 43.45 26.03 42.52 26.01 42.06 26.00 C 42.08 27.44 42.14 30.33 42.17 31.77 C 42.09 33.85 42.00 35.93 42.00 38.00 C 41.98 42.38 42.03 46.76 42.13 51.13 C 41.17 51.63 40.16 51.97 39.10 52.17 C 39.06 48.38 38.99 40.80 38.95 37.01 C 38.47 37.01 37.52 37.01 37.05 37.01 C 37.02 40.76 36.97 48.25 36.94 51.99 C 31.55 53.43 34.98 45.47 33.80 42.78 C 34.04 39.55 34.01 36.31 34.01 33.07 C 33.99 31.28 33.96 27.69 33.94 25.89 C 30.96 29.65 26.69 30.64 22.01 30.00 C 22.03 29.55 22.05 28.65 22.06 28.19 C 26.57 29.77 29.57 26.66 31.32 23.25 C 31.80 22.97 32.75 22.40 33.23 22.12 Z" />
</g>
<g id="#7ea0bfff">
<path fill="#7ea0bf" opacity="1.00" d=" M 9.83 29.17 C 16.93 26.98 24.80 27.13 31.32 23.25 C 29.57 26.66 26.57 29.77 22.06 28.19 C 22.05 28.65 22.03 29.55 22.01 30.00 C 26.69 30.64 30.96 29.65 33.94 25.89 C 33.96 27.69 33.99 31.28 34.01 33.07 C 30.06 32.87 26.14 32.25 22.18 32.10 C 17.97 31.89 13.55 31.30 9.83 29.17 Z" />
</g>
<g id="#6c91b3ff">
<path fill="#6c91b3" opacity="1.00" d=" M 6.03 24.86 C 7.18 26.38 8.24 28.07 9.83 29.17 C 13.55 31.30 17.97 31.89 22.18 32.10 C 20.56 33.65 18.72 34.88 16.57 35.56 C 15.85 40.00 9.86 37.07 7.25 37.89 C 5.67 33.73 5.86 29.23 6.03 24.86 Z" />
</g>
<g id="#6588a8ff">
<path fill="#6588a8" opacity="1.00" d=" M 56.80 37.88 C 57.86 33.59 58.12 29.15 58.84 24.80 C 58.95 33.16 58.59 41.64 56.83 49.84 C 51.96 50.45 46.76 49.31 42.13 51.13 C 42.03 46.76 41.98 42.38 42.00 38.00 C 46.94 38.02 51.87 38.05 56.80 37.88 Z" />
</g>
<g id="#98b3ccff">
<path fill="#98b3cc" opacity="1.00" d=" M 42.06 26.00 C 42.52 26.01 43.45 26.03 43.92 26.04 C 44.14 29.37 44.01 32.72 44.07 36.06 C 42.49 35.42 42.90 33.11 42.17 31.77 C 42.14 30.33 42.08 27.44 42.06 26.00 Z" />
</g>
<g id="#e9eff4ff">
<path fill="#e9eff4" opacity="1.00" d=" M 22.22 34.18 C 23.64 33.47 26.78 34.43 25.43 36.34 C 25.34 40.40 18.91 35.52 22.22 34.18 Z" />
</g>
<g id="#455f7bf9">
<path fill="#455f7b" opacity="0.98" d=" M 4.32 36.75 C 6.30 43.37 2.85 51.25 8.25 56.71 C 10.94 58.13 13.75 59.66 16.99 58.94 C 28.75 58.81 40.68 59.72 52.34 58.35 C 60.95 55.80 58.80 44.44 59.80 37.79 C 59.98 42.60 60.12 47.40 60.28 52.22 C 60.23 52.64 60.12 53.48 60.06 53.91 C 58.03 56.61 55.70 59.43 52.24 60.25 C 38.75 59.96 25.24 59.73 11.76 60.23 C 8.30 59.44 5.97 56.61 3.95 53.91 C 3.90 53.49 3.79 52.64 3.74 52.22 C 4.06 47.06 4.09 41.90 4.32 36.75 Z" />
</g>
<g id="#edf1f5ff">
<path fill="#edf1f5" opacity="1.00" d=" M 16.99 36.99 C 19.74 36.31 18.97 39.65 19.60 41.33 C 20.54 45.28 18.51 52.92 25.79 49.94 C 28.32 46.33 27.06 41.30 28.17 37.10 C 28.64 37.07 29.58 37.02 30.05 36.99 C 29.70 41.70 28.33 46.27 27.84 50.98 C 24.96 51.17 22.07 51.12 19.20 50.98 C 18.40 46.32 17.38 41.70 16.99 36.99 Z" />
</g>
<g id="#01010127">
<path fill="#010101" opacity="0.15" d=" M 3.95 53.91 C 5.97 56.61 8.30 59.44 11.76 60.23 C 25.13 61.54 38.86 61.49 52.24 60.25 C 55.70 59.43 58.03 56.61 60.06 53.91 C 60.22 59.36 55.13 62.44 50.62 64.00 L 13.38 64.00 C 8.88 62.44 3.76 59.37 3.95 53.91 Z" />
</g>
<g id="#273548c5">
<path fill="#273548" opacity="0.77" d=" M 11.76 60.23 C 25.24 59.73 38.75 59.96 52.24 60.25 C 38.86 61.49 25.13 61.54 11.76 60.23 Z" />
</g>
</svg>
