<?xml version="1.0" encoding="UTF-8" ?>
<!DOCTYPE svg PUBLIC "-//W3C//DTD SVG 1.1//EN" "http://www.w3.org/Graphics/SVG/1.1/DTD/svg11.dtd">
<svg width="64pt" height="64pt" viewBox="0 0 64 64" version="1.1" xmlns="http://www.w3.org/2000/svg">
<g id="#313131c5">
<path fill="#313131" opacity="0.77" d=" M 0.00 4.83 C 7.00 5.57 13.84 7.34 20.85 8.08 C 20.83 8.84 20.80 10.38 20.78 11.15 C 13.90 9.83 6.95 8.73 0.00 7.83 L 0.00 4.83 Z" />
</g>
<g id="#6d6c6cf5">
<path fill="#6d6c6c" opacity="0.96" d=" M 21.62 7.82 C 26.68 5.31 32.31 4.85 37.73 6.18 L 37.90 7.02 C 35.17 6.96 32.44 7.00 29.72 7.14 C 32.36 8.36 35.43 8.23 38.22 8.95 C 38.71 9.06 39.68 9.27 40.16 9.38 C 34.17 10.82 28.23 8.42 22.23 9.81 C 22.07 9.31 21.77 8.32 21.62 7.82 Z" />
</g>
<g id="#4d4c4cfd">
<path fill="#4d4c4c" opacity="1.00" d=" M 29.72 7.14 C 32.44 7.00 35.17 6.96 37.90 7.02 C 37.98 7.50 38.14 8.47 38.22 8.95 C 35.43 8.23 32.36 8.36 29.72 7.14 Z" />
</g>
<g id="#434343f3">
<path fill="#434343" opacity="0.95" d=" M 20.85 8.08 L 21.62 7.82 C 21.77 8.32 22.07 9.31 22.23 9.81 C 28.23 8.42 34.17 10.82 40.16 9.38 C 41.71 9.81 43.76 9.95 44.19 11.84 C 46.55 14.47 50.97 13.65 54.26 14.70 C 52.76 14.89 51.27 15.07 49.78 15.24 C 48.59 15.07 47.39 14.91 46.20 14.74 C 43.06 14.29 39.95 13.66 36.81 13.19 C 36.37 13.14 35.48 13.06 35.03 13.02 C 33.93 13.26 33.56 14.27 33.93 16.06 C 33.15 15.17 32.36 14.27 31.30 13.70 C 31.02 16.54 31.11 19.48 30.37 22.27 C 30.04 18.86 29.96 15.43 29.86 12.00 C 26.75 12.58 23.34 13.76 20.78 11.15 C 20.80 10.38 20.83 8.84 20.85 8.08 Z" />
</g>
<g id="#232323cc">
<path fill="#232323" opacity="0.80" d=" M 44.19 11.84 C 49.56 12.43 54.85 13.57 60.22 14.21 C 58.73 14.33 55.75 14.58 54.26 14.70 C 50.97 13.65 46.55 14.47 44.19 11.84 Z" />
</g>
<g id="#3c3c3c7f">
<path fill="#3c3c3c" opacity="0.50" d=" M 33.93 16.06 C 33.56 14.27 33.93 13.26 35.03 13.02 C 35.02 17.02 35.02 21.02 35.03 25.02 C 31.75 24.93 34.86 18.48 33.93 16.06 Z" />
</g>
<g id="#171717cd">
<path fill="#171717" opacity="0.80" d=" M 36.81 13.19 C 39.95 13.66 43.06 14.29 46.20 14.74 C 42.83 14.92 38.78 17.11 36.81 13.19 Z" />
</g>
<g id="#5e5c5bf8">
<path fill="#5e5c5b" opacity="0.97" d=" M 31.30 13.70 C 32.36 14.27 33.15 15.17 33.93 16.06 C 34.86 18.48 31.75 24.93 35.03 25.02 C 38.03 25.87 42.76 22.15 44.40 25.66 C 42.24 25.86 40.07 25.98 37.90 26.03 C 34.24 26.00 30.59 26.00 26.93 26.06 C 24.83 25.98 22.73 25.87 20.64 25.70 C 22.07 21.06 30.81 28.52 30.37 22.27 C 31.11 19.48 31.02 16.54 31.30 13.70 Z" />
</g>
<g id="#343434bd">
<path fill="#343434" opacity="0.74" d=" M 60.22 14.21 C 61.49 14.29 62.76 14.50 64.00 14.80 L 64.00 17.78 C 59.34 16.53 54.48 16.31 49.78 15.24 C 51.27 15.07 52.76 14.89 54.26 14.70 C 55.75 14.58 58.73 14.33 60.22 14.21 Z" />
</g>
<g id="#b38920fa">
<path fill="#b38920" opacity="0.98" d=" M 18.81 26.81 C 19.27 26.53 20.19 25.98 20.64 25.70 C 22.73 25.87 24.83 25.98 26.93 26.06 L 27.21 27.02 C 24.41 26.95 21.61 26.88 18.81 26.81 Z" />
</g>
<g id="#b89f61ff">
<path fill="#b89f61" opacity="1.00" d=" M 26.93 26.06 C 30.59 26.00 34.24 26.00 37.90 26.03 L 38.24 26.82 C 36.49 26.90 34.74 26.95 32.98 27.00 C 31.06 27.00 29.13 27.01 27.21 27.02 L 26.93 26.06 Z" />
</g>
<g id="#c3971ffa">
<path fill="#c3971f" opacity="0.98" d=" M 37.90 26.03 C 40.07 25.98 42.24 25.86 44.40 25.66 C 45.71 26.44 47.46 27.11 46.99 29.00 L 46.02 29.01 C 44.30 28.97 40.85 28.88 39.13 28.84 C 38.91 28.33 38.46 27.32 38.24 26.82 L 37.90 26.03 Z" />
</g>
<g id="#e1be2ffc">
<path fill="#e1be2f" opacity="1.00" d=" M 17.99 29.00 C 18.20 28.45 18.61 27.36 18.81 26.81 C 21.61 26.88 24.41 26.95 27.21 27.02 C 26.88 27.48 26.21 28.40 25.88 28.87 C 24.15 28.90 20.70 28.98 18.97 29.01 L 17.99 29.00 Z" />
</g>
<g id="#eadc92ff">
<path fill="#eadc92" opacity="1.00" d=" M 27.21 27.02 C 29.13 27.01 31.06 27.00 32.98 27.00 C 32.62 27.97 32.27 28.95 31.95 29.94 L 31.16 29.72 C 29.46 29.15 27.66 29.00 25.88 28.87 C 26.21 28.40 26.88 27.48 27.21 27.02 Z" />
</g>
<g id="#d0bd67ff">
<path fill="#d0bd67" opacity="1.00" d=" M 32.98 27.00 C 34.74 26.95 36.49 26.90 38.24 26.82 C 38.46 27.32 38.91 28.33 39.13 28.84 C 37.66 29.06 36.20 29.33 34.77 29.72 L 33.90 29.88 L 32.95 29.94 L 31.95 29.94 C 32.27 28.95 32.62 27.97 32.98 27.00 Z" />
</g>
<g id="#171614e5">
<path fill="#171614" opacity="0.90" d=" M 17.99 29.00 L 18.97 29.01 L 19.01 30.01 L 19.02 30.99 C 19.00 32.32 19.01 33.66 19.02 34.99 C 19.02 36.75 19.01 40.26 19.01 42.01 C 18.99 44.01 18.99 46.01 19.02 48.02 L 19.02 48.99 L 18.99 49.98 L 17.99 50.01 C 18.00 43.01 17.90 36.00 17.99 29.00 Z" />
</g>
<g id="#9a8b46ff">
<path fill="#9a8b46" opacity="1.00" d=" M 18.97 29.01 C 20.70 28.98 24.15 28.90 25.88 28.87 C 27.66 29.00 29.46 29.15 31.16 29.72 C 27.11 29.86 23.06 29.95 19.01 30.01 L 18.97 29.01 Z" />
</g>
<g id="#988539ff">
<path fill="#988539" opacity="1.00" d=" M 34.77 29.72 C 36.20 29.33 37.66 29.06 39.13 28.84 C 40.85 28.88 44.30 28.97 46.02 29.01 L 45.98 30.01 C 42.24 30.01 38.50 30.02 34.77 29.72 Z" />
</g>
<g id="#0f0e0cd6">
<path fill="#0f0e0c" opacity="0.84" d=" M 46.02 29.01 L 46.99 29.00 C 47.15 36.00 46.94 43.01 47.00 50.02 L 46.02 49.96 L 45.99 48.98 L 45.98 48.01 C 46.01 46.05 46.03 44.10 46.02 42.14 C 46.03 40.77 46.01 39.40 45.99 38.03 C 45.98 36.27 45.98 32.75 45.97 30.99 L 45.98 30.01 L 46.02 29.01 Z" />
</g>
<g id="#232f3dff">
<path fill="#232f3d" opacity="1.00" d=" M 19.01 30.01 C 23.06 29.95 27.11 29.86 31.16 29.72 C 31.09 31.58 30.94 35.30 30.86 37.16 C 30.65 36.87 30.21 36.29 30.00 36.00 C 29.99 34.35 30.01 32.70 29.89 31.05 C 27.17 31.04 21.74 31.01 19.02 30.99 L 19.01 30.01 Z" />
</g>
<g id="#bbb78fff">
<path fill="#bbb78f" opacity="1.00" d=" M 31.16 29.72 L 31.95 29.94 C 31.05 36.02 33.76 43.79 31.20 49.22 C 31.06 47.08 30.93 44.94 30.85 42.80 C 30.89 41.17 30.88 39.54 30.85 37.91 L 30.86 37.16 C 30.94 35.30 31.09 31.58 31.16 29.72 Z" />
</g>
<g id="#ddd498ff">
<path fill="#ddd498" opacity="1.00" d=" M 31.95 29.94 L 32.95 29.94 C 33.95 36.03 31.26 43.76 33.80 49.22 C 34.82 49.80 35.93 50.15 37.14 50.25 C 36.08 50.69 35.00 51.10 33.96 51.58 C 35.84 51.92 38.24 52.66 37.96 55.06 C 35.74 54.54 36.11 55.53 37.23 56.86 C 35.41 56.88 31.77 56.92 29.95 56.95 C 29.26 54.67 28.74 52.35 28.07 50.07 C 29.20 50.02 30.24 49.74 31.20 49.22 C 33.76 43.79 31.05 36.02 31.95 29.94 Z" />
</g>
<g id="#9e9a75ff">
<path fill="#9e9a75" opacity="1.00" d=" M 32.95 29.94 L 33.90 29.88 C 33.93 31.66 33.99 35.20 34.01 36.97 C 34.04 38.24 34.11 39.50 34.20 40.77 C 34.09 43.58 33.96 46.40 33.80 49.22 C 31.26 43.76 33.95 36.03 32.95 29.94 Z" />
</g>
<g id="#1c2734ff">
<path fill="#1c2734" opacity="1.00" d=" M 33.90 29.88 L 34.77 29.72 C 38.50 30.02 42.24 30.01 45.98 30.01 L 45.97 30.99 C 43.26 31.01 37.83 31.05 35.12 31.07 C 35.08 32.54 35.02 35.48 34.98 36.94 L 34.01 36.97 C 33.99 35.20 33.93 31.66 33.90 29.88 Z" />
</g>
<g id="#38454cff">
<path fill="#38454c" opacity="1.00" d=" M 19.02 30.99 C 21.74 31.01 27.17 31.04 29.89 31.05 C 30.01 32.70 29.99 34.35 30.00 36.00 C 26.30 36.10 22.55 36.21 19.02 34.99 C 19.01 33.66 19.00 32.32 19.02 30.99 Z" />
</g>
<g id="#323d44ff">
<path fill="#323d44" opacity="1.00" d=" M 35.12 31.07 C 37.83 31.05 43.26 31.01 45.97 30.99 C 45.98 32.75 45.98 36.27 45.99 38.03 C 42.33 37.52 38.67 37.09 34.98 36.94 C 35.02 35.48 35.08 32.54 35.12 31.07 Z" />
</g>
<g id="#4c565cff">
<path fill="#4c565c" opacity="1.00" d=" M 19.02 34.99 C 22.55 36.21 26.30 36.10 30.00 36.00 C 30.21 36.29 30.65 36.87 30.86 37.16 L 30.85 37.91 C 30.22 39.26 29.65 40.65 28.81 41.88 C 25.54 42.01 22.28 42.04 19.01 42.01 C 19.01 40.26 19.02 36.75 19.02 34.99 Z" />
</g>
<g id="#434d53ff">
<path fill="#434d53" opacity="1.00" d=" M 34.01 36.97 L 34.98 36.94 C 38.67 37.09 42.33 37.52 45.99 38.03 C 46.01 39.40 46.03 40.77 46.02 42.14 C 42.39 42.79 38.70 43.07 35.01 43.04 C 34.81 42.47 34.40 41.33 34.20 40.77 C 34.11 39.50 34.04 38.24 34.01 36.97 Z" />
</g>
<g id="#353f46ff">
<path fill="#353f46" opacity="1.00" d=" M 28.81 41.88 C 29.65 40.65 30.22 39.26 30.85 37.91 C 30.88 39.54 30.89 41.17 30.85 42.80 C 32.66 51.45 23.35 46.85 19.02 48.02 C 18.99 46.01 18.99 44.01 19.01 42.01 C 22.28 42.04 25.54 42.01 28.81 41.88 Z" />
</g>
<g id="#1f2936ff">
<path fill="#1f2936" opacity="1.00" d=" M 34.20 40.77 C 34.40 41.33 34.81 42.47 35.01 43.04 C 35.01 44.67 34.99 46.31 35.11 47.95 C 37.82 47.96 43.26 47.99 45.98 48.01 L 45.99 48.98 C 41.92 49.03 37.86 49.11 33.80 49.22 C 33.96 46.40 34.09 43.58 34.20 40.77 Z" />
</g>
<g id="#343f46ff">
<path fill="#343f46" opacity="1.00" d=" M 35.01 43.04 C 38.70 43.07 42.39 42.79 46.02 42.14 C 46.03 44.10 46.01 46.05 45.98 48.01 C 43.26 47.99 37.82 47.96 35.11 47.95 C 34.99 46.31 35.01 44.67 35.01 43.04 Z" />
</g>
<g id="#1a2430ff">
<path fill="#1a2430" opacity="1.00" d=" M 19.02 48.02 C 23.35 46.85 32.66 51.45 30.85 42.80 C 30.93 44.94 31.06 47.08 31.20 49.22 C 27.14 49.11 23.08 49.03 19.02 48.99 L 19.02 48.02 Z" />
</g>
<g id="#6d683aff">
<path fill="#6d683a" opacity="1.00" d=" M 19.02 48.99 C 23.08 49.03 27.14 49.11 31.20 49.22 C 30.24 49.74 29.20 50.02 28.07 50.07 C 27.59 50.06 26.64 50.05 26.16 50.04 L 25.15 50.02 C 23.10 49.98 21.05 49.98 18.99 49.98 L 19.02 48.99 Z" />
</g>
<g id="#6d6a3fff">
<path fill="#6d6a3f" opacity="1.00" d=" M 33.80 49.22 C 37.86 49.11 41.92 49.03 45.99 48.98 L 46.02 49.96 C 44.01 49.97 42.01 49.97 40.00 50.07 C 39.29 50.12 37.85 50.21 37.14 50.25 C 35.93 50.15 34.82 49.80 33.80 49.22 Z" />
</g>
<g id="#85620ee4">
<path fill="#85620e" opacity="0.89" d=" M 17.99 50.01 L 18.99 49.98 C 18.97 53.06 18.97 56.15 18.84 59.24 L 18.77 60.20 C 17.06 57.16 18.46 53.29 17.99 50.01 Z" />
</g>
<g id="#dec02cff">
<path fill="#dec02c" opacity="1.00" d=" M 18.99 49.98 C 21.05 49.98 23.10 49.98 25.15 50.02 C 24.95 52.63 25.60 55.55 23.54 57.49 C 24.38 58.32 25.28 59.10 26.15 59.89 C 23.71 59.75 21.27 59.53 18.84 59.24 C 18.97 56.15 18.97 53.06 18.99 49.98 Z" />
</g>
<g id="#ddc655ff">
<path fill="#ddc655" opacity="1.00" d=" M 25.15 50.02 L 26.16 50.04 C 26.50 52.28 26.77 54.54 26.97 56.81 C 25.79 57.83 26.08 58.25 27.82 58.08 C 28.15 58.56 28.80 59.51 29.13 59.99 C 28.39 59.96 26.90 59.92 26.15 59.89 C 25.28 59.10 24.38 58.32 23.54 57.49 C 25.60 55.55 24.95 52.63 25.15 50.02 Z" />
</g>
<g id="#e2d27cff">
<path fill="#e2d27c" opacity="1.00" d=" M 26.16 50.04 C 26.64 50.05 27.59 50.06 28.07 50.07 C 28.74 52.35 29.26 54.67 29.95 56.95 C 29.21 56.91 27.71 56.84 26.97 56.81 C 26.77 54.54 26.50 52.28 26.16 50.04 Z" />
</g>
<g id="#dac761ff">
<path fill="#dac761" opacity="1.00" d=" M 37.14 50.25 C 37.85 50.21 39.29 50.12 40.00 50.07 C 39.99 51.72 39.99 53.37 39.97 55.02 C 39.47 55.03 38.46 55.05 37.96 55.06 C 38.24 52.66 35.84 51.92 33.96 51.58 C 35.00 51.10 36.08 50.69 37.14 50.25 Z" />
</g>
<g id="#e5c82cff">
<path fill="#e5c82c" opacity="1.00" d=" M 40.00 50.07 C 42.01 49.97 44.01 49.97 46.02 49.96 C 46.00 51.64 45.99 53.32 45.98 54.99 C 43.97 55.00 41.97 55.02 39.97 55.02 C 39.99 53.37 39.99 51.72 40.00 50.07 Z" />
</g>
<g id="#75570dd5">
<path fill="#75570d" opacity="0.84" d=" M 46.02 49.96 L 47.00 50.02 C 46.48 53.22 48.30 57.76 46.18 60.21 C 46.09 58.47 46.02 56.73 45.98 54.99 C 45.99 53.32 46.00 51.64 46.02 49.96 Z" />
</g>
<g id="#d4c15cff">
<path fill="#d4c15c" opacity="1.00" d=" M 37.23 56.86 C 36.11 55.53 35.74 54.54 37.96 55.06 C 38.90 55.47 39.83 55.88 40.77 56.30 C 40.26 57.57 39.61 58.79 38.97 60.01 C 38.22 60.01 36.71 60.01 35.96 60.01 C 36.25 59.55 36.83 58.63 37.12 58.18 C 37.14 57.85 37.20 57.19 37.23 56.86 Z" />
</g>
<g id="#ceb330ff">
<path fill="#ceb330" opacity="1.00" d=" M 37.96 55.06 C 38.46 55.05 39.47 55.03 39.97 55.02 C 41.97 55.02 43.97 55.00 45.98 54.99 C 46.02 56.73 46.09 58.47 46.18 60.21 C 44.37 60.16 40.77 60.06 38.97 60.01 C 39.61 58.79 40.26 57.57 40.77 56.30 C 39.83 55.88 38.90 55.47 37.96 55.06 Z" />
</g>
<g id="#c3ba80ff">
<path fill="#c3ba80" opacity="1.00" d=" M 27.82 58.08 C 26.08 58.25 25.79 57.83 26.97 56.81 C 27.71 56.84 29.21 56.91 29.95 56.95 C 31.77 56.92 35.41 56.88 37.23 56.86 C 37.20 57.19 37.14 57.85 37.12 58.18 C 34.02 58.12 30.92 58.08 27.82 58.08 Z" />
</g>
<g id="#dcd087ff">
<path fill="#dcd087" opacity="1.00" d=" M 27.82 58.08 C 30.92 58.08 34.02 58.12 37.12 58.18 C 36.83 58.63 36.25 59.55 35.96 60.01 C 34.25 60.00 30.84 59.99 29.13 59.99 C 28.80 59.51 28.15 58.56 27.82 58.08 Z" />
</g>
<g id="#907929f4">
<path fill="#907929" opacity="0.96" d=" M 18.84 59.24 C 21.27 59.53 23.71 59.75 26.15 59.89 C 26.90 59.92 28.39 59.96 29.13 59.99 C 30.84 59.99 34.25 60.00 35.96 60.01 C 36.71 60.01 38.22 60.01 38.97 60.01 C 40.77 60.06 44.37 60.16 46.18 60.21 C 45.03 60.99 43.59 61.06 42.28 61.41 C 35.79 61.02 29.26 60.86 22.77 61.27 C 21.50 60.84 19.50 61.57 18.77 60.20 L 18.84 59.24 Z" />
</g>
<g id="#291b037e">
<path fill="#291b03" opacity="0.49" d=" M 22.77 61.27 C 29.26 60.86 35.79 61.02 42.28 61.41 C 35.90 62.85 29.19 61.89 22.77 61.27 Z" />
</g>
</svg>
