<?xml version="1.0" encoding="UTF-8" ?>
<!DOCTYPE svg PUBLIC "-//W3C//DTD SVG 1.1//EN" "http://www.w3.org/Graphics/SVG/1.1/DTD/svg11.dtd">
<svg width="64pt" height="64pt" viewBox="0 0 64 64" version="1.1" xmlns="http://www.w3.org/2000/svg">
<g id="#012b7ecb">
<path fill="#012b7e" opacity="0.80" d=" M 12.73 3.71 C 16.90 2.00 21.64 3.46 26.00 2.95 C 34.39 3.26 42.91 2.25 51.21 3.82 C 38.38 4.02 25.55 4.23 12.73 3.71 Z" />
<path fill="#012b7e" opacity="0.80" d=" M 54.98 5.08 C 57.26 4.73 59.30 6.74 58.88 9.03 C 57.20 8.15 55.83 6.79 54.98 5.08 Z" />
<path fill="#012b7e" opacity="0.80" d=" M 2.99 51.91 C 3.25 38.87 2.18 25.71 3.78 12.76 C 4.20 25.90 4.03 39.06 3.84 52.21 L 2.99 51.91 Z" />
<path fill="#012b7e" opacity="0.80" d=" M 60.26 12.75 C 62.31 25.56 60.34 38.94 61.03 51.92 L 60.14 52.19 C 59.89 39.05 59.88 25.90 60.26 12.75 Z" />
<path fill="#012b7e" opacity="0.80" d=" M 5.14 55.09 C 5.53 55.08 6.32 55.05 6.71 55.03 C 7.46 55.78 8.22 56.53 8.97 57.28 C 8.95 57.69 8.91 58.49 8.89 58.90 C 7.19 58.19 5.79 56.82 5.14 55.09 Z" />
<path fill="#012b7e" opacity="0.80" d=" M 11.77 60.20 C 25.25 59.76 38.74 59.99 52.22 60.20 C 38.86 61.53 25.11 61.56 11.77 60.20 Z" />
</g>
<g id="#0151c1ff">
<path fill="#0151c1" opacity="1.00" d=" M 3.78 12.76 C 4.92 8.43 8.66 5.27 12.73 3.71 C 25.55 4.23 38.38 4.02 51.21 3.82 C 52.49 4.18 53.72 4.67 54.98 5.08 C 55.83 6.79 57.20 8.15 58.88 9.03 C 59.32 10.28 59.82 11.50 60.26 12.75 C 59.88 25.90 59.89 39.05 60.14 52.19 C 58.95 56.22 56.68 59.83 52.22 60.20 C 38.74 59.99 25.25 59.76 11.77 60.20 C 10.78 59.84 9.82 59.40 8.89 58.90 C 8.91 58.49 8.95 57.69 8.97 57.28 C 21.11 61.14 34.45 58.08 47.01 58.96 C 51.58 60.20 55.06 56.81 57.72 53.75 C 60.27 40.39 58.65 26.58 58.90 13.07 C 58.33 11.77 57.67 8.42 55.75 9.76 C 54.22 8.79 52.71 7.79 51.22 6.76 C 49.62 5.01 47.55 4.44 45.00 5.06 C 34.64 4.88 24.28 4.96 13.92 5.06 C 14.22 5.39 14.84 6.04 15.15 6.37 C 13.80 6.79 12.45 7.15 11.08 7.47 C 6.69 6.90 4.15 13.46 5.04 16.99 C 5.81 29.60 2.97 42.74 6.71 55.03 C 6.32 55.05 5.53 55.08 5.14 55.09 C 4.68 54.14 4.25 53.18 3.84 52.21 C 4.03 39.06 4.20 25.90 3.78 12.76 Z" />
</g>
<g id="#035fe3ff">
<path fill="#035fe3" opacity="1.00" d=" M 13.92 5.06 C 24.28 4.96 34.64 4.88 45.00 5.06 C 47.55 4.44 49.62 5.01 51.22 6.76 C 39.25 5.67 27.13 5.57 15.15 6.37 C 14.84 6.04 14.22 5.39 13.92 5.06 Z" />
<path fill="#035fe3" opacity="1.00" d=" M 5.04 16.99 C 4.15 13.46 6.69 6.90 11.08 7.47 C 9.41 8.95 7.92 10.65 7.08 12.74 C 6.52 13.68 6.23 14.69 6.20 15.78 C 4.75 20.71 5.82 31.51 14.01 27.18 C 18.51 24.82 21.07 28.67 23.85 31.00 C 23.42 31.06 22.56 31.17 22.12 31.22 C 21.14 30.43 20.18 29.59 19.15 28.86 C 17.38 28.57 10.90 26.62 10.01 29.02 C 9.91 31.01 9.91 33.00 10.02 35.00 L 10.09 35.97 C 15.34 36.13 20.58 36.08 25.82 35.82 L 25.86 34.90 C 25.88 33.83 25.64 32.81 25.15 31.83 C 33.67 39.52 41.38 48.31 49.74 56.27 C 50.52 57.24 52.26 57.30 53.11 56.39 C 54.54 55.10 56.85 53.54 55.76 51.29 C 46.57 41.78 36.85 32.77 27.87 23.06 C 32.63 24.31 34.72 30.12 39.23 31.39 C 40.58 32.88 41.85 34.60 43.82 35.31 C 45.00 36.10 46.46 36.02 47.82 36.00 C 48.01 34.40 48.10 32.79 48.27 31.18 C 49.87 28.80 51.50 26.10 54.84 27.03 C 55.15 27.22 55.76 27.58 56.07 27.77 L 56.85 28.03 C 57.42 23.98 58.20 19.87 57.79 15.77 C 57.72 14.83 57.49 13.92 57.09 13.06 C 56.69 11.94 56.25 10.84 55.75 9.76 C 57.67 8.42 58.33 11.77 58.90 13.07 C 58.65 26.58 60.27 40.39 57.72 53.75 C 55.06 56.81 51.58 60.20 47.01 58.96 C 34.45 58.08 21.11 61.14 8.97 57.28 C 8.22 56.53 7.46 55.78 6.71 55.03 C 2.97 42.74 5.81 29.60 5.04 16.99 M 51.03 29.02 C 51.04 32.12 49.26 37.49 53.97 35.98 C 53.96 32.88 55.74 27.51 51.03 29.02 Z" />
<path fill="#035fe3" opacity="1.00" d=" M 38.04 26.92 C 40.22 28.54 49.10 24.10 48.43 29.19 L 47.44 28.83 C 45.04 26.62 38.35 30.18 38.04 26.92 Z" />
</g>
<g id="#f4f8feff">
<path fill="#f4f8fe" opacity="1.00" d=" M 15.15 6.37 C 27.13 5.57 39.25 5.67 51.22 6.76 C 52.71 7.79 54.22 8.79 55.75 9.76 C 56.25 10.84 56.69 11.94 57.09 13.06 C 53.81 10.60 50.84 6.59 46.01 8.04 C 35.60 7.91 25.18 7.94 14.77 8.12 L 13.83 8.15 C 17.23 14.10 23.10 18.21 27.87 23.06 C 36.85 32.77 46.57 41.78 55.76 51.29 C 56.85 53.54 54.54 55.10 53.11 56.39 C 42.29 48.66 34.30 37.55 24.25 28.86 C 18.85 23.34 13.62 16.96 7.08 12.74 C 7.92 10.65 9.41 8.95 11.08 7.47 C 12.45 7.15 13.80 6.79 15.15 6.37 Z" />
<path fill="#f4f8fe" opacity="1.00" d=" M 40.82 12.16 C 45.65 15.71 52.15 17.19 55.85 22.13 C 55.94 24.01 55.99 25.89 56.07 27.77 C 55.76 27.58 55.15 27.22 54.84 27.03 C 52.26 23.80 48.80 21.64 45.10 19.89 C 43.06 17.66 40.37 15.56 40.82 12.16 Z" />
<path fill="#f4f8fe" opacity="1.00" d=" M 10.01 29.02 C 13.06 28.97 16.10 28.89 19.15 28.86 C 20.18 29.59 21.14 30.43 22.12 31.22 C 23.10 32.50 24.14 33.71 25.22 34.90 C 20.15 34.97 15.09 35.01 10.02 35.00 C 9.91 33.00 9.91 31.01 10.01 29.02 Z" />
<path fill="#f4f8fe" opacity="1.00" d=" M 39.85 29.00 C 41.75 28.96 45.55 28.87 47.44 28.83 L 48.43 29.19 C 48.39 29.69 48.31 30.68 48.27 31.18 C 48.10 32.79 48.01 34.40 47.82 36.00 C 46.46 36.02 45.00 36.10 43.82 35.31 C 42.55 33.17 41.13 31.13 39.85 29.00 Z" />
<path fill="#f4f8fe" opacity="1.00" d=" M 51.03 29.02 C 55.74 27.51 53.96 32.88 53.97 35.98 C 49.26 37.49 51.04 32.12 51.03 29.02 Z" />
</g>
<g id="#338fecff">
<path fill="#338fec" opacity="1.00" d=" M 13.83 8.15 L 14.77 8.12 C 18.59 11.90 22.10 16.02 26.18 19.54 C 32.46 19.32 38.93 18.27 45.10 19.89 C 48.80 21.64 52.26 23.80 54.84 27.03 C 51.50 26.10 49.87 28.80 48.27 31.18 C 48.31 30.68 48.39 29.69 48.43 29.19 C 49.10 24.10 40.22 28.54 38.04 26.92 C 38.35 30.18 45.04 26.62 47.44 28.83 C 45.55 28.87 41.75 28.96 39.85 29.00 C 37.30 28.38 38.38 30.01 39.23 31.39 C 34.72 30.12 32.63 24.31 27.87 23.06 C 23.10 18.21 17.23 14.10 13.83 8.15 Z" />
<path fill="#338fec" opacity="1.00" d=" M 6.20 15.78 C 6.57 17.03 6.88 18.30 7.26 19.55 C 14.82 17.44 18.07 26.31 24.25 28.86 C 34.30 37.55 42.29 48.66 53.11 56.39 C 52.26 57.30 50.52 57.24 49.74 56.27 C 41.38 48.31 33.67 39.52 25.15 31.83 C 24.83 31.62 24.18 31.21 23.85 31.00 C 21.07 28.67 18.51 24.82 14.01 27.18 C 5.82 31.51 4.75 20.71 6.20 15.78 Z" />
<path fill="#338fec" opacity="1.00" d=" M 55.85 22.13 C 56.45 19.99 57.09 17.87 57.79 15.77 C 58.20 19.87 57.42 23.98 56.85 28.03 L 56.07 27.77 C 55.99 25.89 55.94 24.01 55.85 22.13 Z" />
<path fill="#338fec" opacity="1.00" d=" M 10.01 29.02 C 10.90 26.62 17.38 28.57 19.15 28.86 C 16.10 28.89 13.06 28.97 10.01 29.02 Z" />
<path fill="#338fec" opacity="1.00" d=" M 10.02 35.00 C 15.09 35.01 20.15 34.97 25.22 34.90 L 25.86 34.90 L 25.82 35.82 C 20.58 36.08 15.34 36.13 10.09 35.97 L 10.02 35.00 Z" />
</g>
<g id="#5eaaf0ff">
<path fill="#5eaaf0" opacity="1.00" d=" M 14.77 8.12 C 25.18 7.94 35.60 7.91 46.01 8.04 C 50.84 6.59 53.81 10.60 57.09 13.06 C 57.49 13.92 57.72 14.83 57.79 15.77 C 57.09 17.87 56.45 19.99 55.85 22.13 C 52.15 17.19 45.65 15.71 40.82 12.16 C 40.37 15.56 43.06 17.66 45.10 19.89 C 38.93 18.27 32.46 19.32 26.18 19.54 C 22.10 16.02 18.59 11.90 14.77 8.12 Z" />
<path fill="#5eaaf0" opacity="1.00" d=" M 7.08 12.74 C 13.62 16.96 18.85 23.34 24.25 28.86 C 18.07 26.31 14.82 17.44 7.26 19.55 C 6.88 18.30 6.57 17.03 6.20 15.78 C 6.23 14.69 6.52 13.68 7.08 12.74 Z" />
<path fill="#5eaaf0" opacity="1.00" d=" M 39.23 31.39 C 38.38 30.01 37.30 28.38 39.85 29.00 C 41.13 31.13 42.55 33.17 43.82 35.31 C 41.85 34.60 40.58 32.88 39.23 31.39 Z" />
<path fill="#5eaaf0" opacity="1.00" d=" M 22.12 31.22 C 22.56 31.17 23.42 31.06 23.85 31.00 C 24.18 31.21 24.83 31.62 25.15 31.83 C 25.64 32.81 25.88 33.83 25.86 34.90 L 25.22 34.90 C 24.14 33.71 23.10 32.50 22.12 31.22 Z" />
</g>
<g id="#0002062a">
<path fill="#000206" opacity="0.16" d=" M 2.99 51.91 L 3.84 52.21 C 4.25 53.18 4.68 54.14 5.14 55.09 C 5.79 56.82 7.19 58.19 8.89 58.90 C 9.82 59.40 10.78 59.84 11.77 60.20 C 25.11 61.56 38.86 61.53 52.22 60.20 C 56.68 59.83 58.95 56.22 60.14 52.19 L 61.03 51.92 C 60.94 57.98 56.06 62.37 50.62 64.00 L 13.38 64.00 C 7.94 62.37 3.04 57.98 2.99 51.91 Z" />
</g>
</svg>
