<?xml version="1.0" encoding="UTF-8" ?>
<!DOCTYPE svg PUBLIC "-//W3C//DTD SVG 1.1//EN" "http://www.w3.org/Graphics/SVG/1.1/DTD/svg11.dtd">
<svg width="64pt" height="64pt" viewBox="0 0 64 64" version="1.1" xmlns="http://www.w3.org/2000/svg">
<g id="#00316cc3">
<path fill="#00316c" opacity="0.76" d=" M 11.75 3.77 C 25.13 2.46 38.87 2.51 52.24 3.74 C 38.75 4.04 25.24 4.28 11.75 3.77 Z" />
</g>
<g id="#0052a3f6">
<path fill="#0052a3" opacity="0.96" d=" M 4.67 9.70 C 5.96 6.76 8.68 4.61 11.75 3.77 C 25.24 4.28 38.75 4.04 52.24 3.74 C 55.37 4.60 58.07 6.83 59.31 9.85 C 55.99 7.91 53.25 4.16 48.93 4.97 C 38.61 4.97 28.30 4.97 17.98 4.99 C 13.18 3.85 8.96 6.69 5.67 9.74 L 4.67 9.70 Z" />
</g>
<g id="#0a78cfff">
<path fill="#0a78cf" opacity="1.00" d=" M 5.67 9.74 C 8.96 6.69 13.18 3.85 17.98 4.99 C 28.30 4.97 38.61 4.97 48.93 4.97 L 49.28 5.85 L 48.34 6.19 C 37.48 5.94 26.62 5.89 15.76 6.18 C 11.48 5.73 8.45 9.67 6.48 12.97 C 6.33 13.21 6.02 13.69 5.86 13.94 L 5.09 14.10 C 5.23 12.64 5.50 11.20 5.67 9.74 Z" />
</g>
<g id="#0467c7fe">
<path fill="#0467c7" opacity="1.00" d=" M 48.93 4.97 C 53.25 4.16 55.99 7.91 59.31 9.85 C 59.54 10.33 60.00 11.29 60.23 11.77 C 60.00 19.53 60.01 27.29 59.90 35.04 L 58.81 34.71 C 58.75 27.82 59.84 20.59 58.19 13.91 C 58.04 13.67 57.73 13.20 57.57 12.96 C 55.71 9.74 52.96 6.85 49.28 5.85 L 48.93 4.97 Z" />
</g>
<g id="#c1ddf8ff">
<path fill="#c1ddf8" opacity="1.00" d=" M 6.48 12.97 C 8.45 9.67 11.48 5.73 15.76 6.18 C 26.48 7.06 37.76 8.09 48.34 6.19 L 49.28 5.85 C 52.96 6.85 55.71 9.74 57.57 12.96 C 57.18 13.04 56.40 13.20 56.01 13.28 C 54.78 11.13 53.11 9.08 50.67 8.29 C 38.79 7.69 26.88 8.03 14.99 8.01 C 11.79 8.11 9.40 10.68 7.98 13.32 C 7.61 13.23 6.86 13.06 6.48 12.97 Z" />
</g>
<g id="#dcebf9ff">
<path fill="#dcebf9" opacity="1.00" d=" M 15.76 6.18 C 26.62 5.89 37.48 5.94 48.34 6.19 C 37.76 8.09 26.48 7.06 15.76 6.18 Z" />
</g>
<g id="#60adf0ff">
<path fill="#60adf0" opacity="1.00" d=" M 7.98 13.32 C 9.40 10.68 11.79 8.11 14.99 8.01 C 26.88 8.03 38.79 7.69 50.67 8.29 C 53.11 9.08 54.78 11.13 56.01 13.28 C 49.76 14.27 43.40 14.01 37.10 13.99 L 36.22 13.86 C 33.90 10.47 28.61 11.39 26.85 14.82 L 26.18 14.74 C 20.19 13.43 13.94 14.72 7.98 13.32 Z" />
</g>
<g id="#005ac2fd">
<path fill="#005ac2" opacity="1.00" d=" M 3.78 11.76 C 4.00 11.25 4.44 10.22 4.67 9.70 L 5.67 9.74 C 5.50 11.20 5.23 12.64 5.09 14.10 C 4.96 20.98 4.68 27.89 5.26 34.76 C 5.19 36.57 5.06 40.20 5.00 42.01 L 4.02 42.00 C 3.88 31.92 4.26 21.83 3.78 11.76 Z" />
</g>
<g id="#002d7dc9">
<path fill="#002d7d" opacity="0.79" d=" M 3.75 52.22 C 2.61 38.82 2.38 25.12 3.78 11.76 C 4.26 21.83 3.88 31.92 4.02 42.00 C 3.98 45.40 3.97 48.82 3.75 52.22 Z" />
<path fill="#002d7d" opacity="0.79" d=" M 60.23 11.77 C 61.63 25.11 61.36 38.82 60.28 52.22 C 60.09 46.49 59.99 40.77 59.90 35.04 C 60.01 27.29 60.00 19.53 60.23 11.77 Z" />
</g>
<g id="#2f5dddff">
<path fill="#2f5ddd" opacity="1.00" d=" M 26.85 14.82 C 28.61 11.39 33.90 10.47 36.22 13.86 L 35.18 13.73 C 32.23 12.35 29.22 13.14 27.58 16.00 C 27.40 15.70 27.03 15.11 26.85 14.82 Z" />
</g>
<g id="#4da4efff">
<path fill="#4da4ef" opacity="1.00" d=" M 5.86 13.94 C 6.02 13.69 6.33 13.21 6.48 12.97 C 6.86 13.06 7.61 13.23 7.98 13.32 C 13.94 14.72 20.19 13.43 26.18 14.74 C 26.09 16.47 26.04 18.21 25.86 19.94 C 19.66 20.20 13.39 19.60 7.23 20.53 C 6.87 19.28 6.57 18.02 6.21 16.76 C 6.13 16.06 5.95 14.64 5.86 13.94 Z" />
<path fill="#4da4ef" opacity="1.00" d=" M 37.10 13.99 C 43.40 14.01 49.76 14.27 56.01 13.28 C 56.40 13.20 57.18 13.04 57.57 12.96 C 57.73 13.20 58.04 13.67 58.19 13.91 C 58.09 14.62 57.90 16.05 57.80 16.76 C 57.43 18.03 57.12 19.32 56.76 20.60 C 50.59 20.00 44.38 20.25 38.20 19.85 C 37.92 18.39 37.37 15.45 37.10 13.99 Z" />
</g>
<g id="#f6f9feff">
<path fill="#f6f9fe" opacity="1.00" d=" M 27.58 16.00 C 29.22 13.14 32.23 12.35 35.18 13.73 C 36.81 16.43 37.41 19.60 34.80 21.94 C 30.26 24.60 26.18 20.01 27.58 16.00 Z" />
</g>
<g id="#0170e4ff">
<path fill="#0170e4" opacity="1.00" d=" M 5.09 14.10 L 5.86 13.94 C 5.95 14.64 6.13 16.06 6.21 16.76 C 6.26 19.55 5.74 22.44 6.81 25.08 C 8.01 30.01 14.04 30.32 18.07 31.54 C 14.33 31.19 15.67 34.45 15.78 36.81 C 12.76 38.33 9.27 37.80 6.00 38.05 C 5.79 36.94 5.54 35.85 5.26 34.76 C 4.68 27.89 4.96 20.98 5.09 14.10 Z" />
</g>
<g id="#3b98eeff">
<path fill="#3b98ee" opacity="1.00" d=" M 35.18 13.73 L 36.22 13.86 L 37.10 13.99 C 37.37 15.45 37.92 18.39 38.20 19.85 C 44.38 20.25 50.59 20.00 56.76 20.60 C 57.12 19.32 57.43 18.03 57.80 16.76 C 57.74 19.55 58.27 22.45 57.19 25.10 C 50.82 25.79 43.74 23.33 37.71 26.14 C 34.27 23.71 29.67 23.41 26.31 26.11 C 19.96 24.35 13.31 25.08 6.81 25.08 C 5.74 22.44 6.26 19.55 6.21 16.76 C 6.57 18.02 6.87 19.28 7.23 20.53 C 13.39 19.60 19.66 20.20 25.86 19.94 C 26.04 18.21 26.09 16.47 26.18 14.74 L 26.85 14.82 C 27.03 15.11 27.40 15.70 27.58 16.00 C 26.18 20.01 30.26 24.60 34.80 21.94 C 37.41 19.60 36.81 16.43 35.18 13.73 Z" />
</g>
<g id="#016fe5ff">
<path fill="#016fe5" opacity="1.00" d=" M 58.19 13.91 C 59.84 20.59 58.75 27.82 58.81 34.71 C 58.52 35.83 58.26 36.96 58.05 38.10 C 54.45 39.07 50.45 39.71 47.06 37.80 C 46.82 35.71 48.16 33.96 48.83 32.08 C 48.08 31.92 46.59 31.61 45.84 31.46 C 49.93 30.40 55.95 30.02 57.19 25.10 C 58.27 22.45 57.74 19.55 57.80 16.76 C 57.90 16.05 58.09 14.62 58.19 13.91 Z" />
</g>
<g id="#3055d3ff">
<path fill="#3055d3" opacity="1.00" d=" M 26.31 26.11 C 29.67 23.41 34.27 23.71 37.71 26.14 C 39.14 27.50 42.95 27.80 42.42 30.23 C 38.08 28.28 33.73 24.29 28.68 26.65 C 25.90 28.32 21.53 29.04 20.91 32.80 C 20.58 32.38 19.93 31.55 19.61 31.13 C 21.33 28.83 23.85 27.46 26.31 26.11 Z" />
</g>
<g id="#288decff">
<path fill="#288dec" opacity="1.00" d=" M 6.81 25.08 C 13.31 25.08 19.96 24.35 26.31 26.11 C 23.85 27.46 21.33 28.83 19.61 31.13 C 19.22 31.23 18.45 31.44 18.07 31.54 C 14.04 30.32 8.01 30.01 6.81 25.08 Z" />
</g>
<g id="#2a8cebff">
<path fill="#2a8ceb" opacity="1.00" d=" M 37.71 26.14 C 43.74 23.33 50.82 25.79 57.19 25.10 C 55.95 30.02 49.93 30.40 45.84 31.46 C 44.71 31.49 43.79 32.10 42.95 32.80 C 42.78 31.94 42.60 31.08 42.42 30.23 C 42.95 27.80 39.14 27.50 37.71 26.14 Z" />
</g>
<g id="#fafbfeff">
<path fill="#fafbfe" opacity="1.00" d=" M 28.68 26.65 C 33.73 24.29 38.08 28.28 42.42 30.23 C 42.60 31.08 42.78 31.94 42.95 32.80 C 42.72 33.05 42.27 33.56 42.04 33.81 C 40.03 32.95 38.17 31.81 36.28 30.73 C 35.95 30.54 35.28 30.15 34.95 29.96 C 34.92 37.42 35.00 44.88 35.20 52.34 L 35.09 53.30 C 33.06 53.99 30.92 53.99 28.89 53.29 L 28.78 52.34 C 28.97 44.90 29.10 37.45 29.02 29.99 C 28.70 30.18 28.05 30.55 27.73 30.73 C 25.78 31.83 23.87 33.01 21.81 33.89 C 21.58 33.62 21.13 33.07 20.91 32.80 C 21.53 29.04 25.90 28.32 28.68 26.65 Z" />
</g>
<g id="#416be7ff">
<path fill="#416be7" opacity="1.00" d=" M 27.73 30.73 C 28.05 30.55 28.70 30.18 29.02 29.99 C 29.10 37.45 28.97 44.90 28.78 52.34 C 27.63 45.20 28.08 37.94 27.73 30.73 Z" />
<path fill="#416be7" opacity="1.00" d=" M 34.95 29.96 C 35.28 30.15 35.95 30.54 36.28 30.73 C 35.92 37.93 36.37 45.19 35.20 52.34 C 35.00 44.88 34.92 37.42 34.95 29.96 Z" />
</g>
<g id="#0165e6ff">
<path fill="#0165e6" opacity="1.00" d=" M 18.07 31.54 C 18.45 31.44 19.22 31.23 19.61 31.13 C 19.93 31.55 20.58 32.38 20.91 32.80 C 21.13 33.07 21.58 33.62 21.81 33.89 C 21.13 36.06 25.63 36.52 26.87 38.25 C 26.96 41.14 27.18 44.06 26.94 46.95 C 20.33 47.12 13.73 47.10 7.12 46.90 C 6.65 43.96 6.16 41.02 6.00 38.05 C 9.27 37.80 12.76 38.33 15.78 36.81 C 15.67 34.45 14.33 31.19 18.07 31.54 Z" />
</g>
<g id="#025be3ff">
<path fill="#025be3" opacity="1.00" d=" M 21.81 33.89 C 23.87 33.01 25.78 31.83 27.73 30.73 C 28.08 37.94 27.63 45.20 28.78 52.34 L 28.89 53.29 C 22.09 54.24 15.19 54.20 8.34 53.81 C 7.14 51.52 6.17 49.13 5.09 46.79 C 5.04 45.20 5.01 43.60 5.00 42.01 C 5.06 40.20 5.19 36.57 5.26 34.76 C 5.54 35.85 5.79 36.94 6.00 38.05 C 6.16 41.02 6.65 43.96 7.12 46.90 C 13.73 47.10 20.33 47.12 26.94 46.95 C 27.18 44.06 26.96 41.14 26.87 38.25 C 25.63 36.52 21.13 36.06 21.81 33.89 Z" />
<path fill="#025be3" opacity="1.00" d=" M 36.28 30.73 C 38.17 31.81 40.03 32.95 42.04 33.81 C 43.50 35.41 39.96 35.96 39.16 37.11 C 35.39 38.73 37.37 43.69 37.04 46.95 C 43.65 47.12 50.26 47.10 56.87 46.90 C 57.33 43.97 57.81 41.05 58.05 38.10 C 58.26 36.96 58.52 35.83 58.81 34.71 C 58.90 38.73 58.93 42.76 58.91 46.79 C 57.83 49.13 56.86 51.52 55.66 53.81 C 48.80 54.20 41.90 54.24 35.09 53.30 L 35.20 52.34 C 36.37 45.19 35.92 37.93 36.28 30.73 Z" />
</g>
<g id="#0164e6ff">
<path fill="#0164e6" opacity="1.00" d=" M 42.95 32.80 C 43.79 32.10 44.71 31.49 45.84 31.46 C 46.59 31.61 48.08 31.92 48.83 32.08 C 48.16 33.96 46.82 35.71 47.06 37.80 C 50.45 39.71 54.45 39.07 58.05 38.10 C 57.81 41.05 57.33 43.97 56.87 46.90 C 50.26 47.10 43.65 47.12 37.04 46.95 C 37.37 43.69 35.39 38.73 39.16 37.11 C 39.96 35.96 43.50 35.41 42.04 33.81 C 42.27 33.56 42.72 33.05 42.95 32.80 Z" />
</g>
<g id="#033fc3fa">
<path fill="#033fc3" opacity="0.98" d=" M 58.81 34.71 L 59.90 35.04 C 59.99 40.77 60.09 46.49 60.28 52.22 C 60.22 52.64 60.11 53.48 60.06 53.90 C 58.03 56.61 55.69 59.42 52.24 60.26 C 38.75 59.96 25.24 59.72 11.75 60.23 C 8.30 59.43 5.97 56.62 3.96 53.91 C 3.90 53.49 3.80 52.64 3.75 52.22 C 3.97 48.82 3.98 45.40 4.02 42.00 L 5.00 42.01 C 5.01 43.60 5.04 45.20 5.09 46.79 C 4.58 51.43 6.60 57.11 11.33 58.70 C 24.85 59.30 38.41 59.02 51.94 58.92 C 57.12 57.73 59.49 51.66 58.91 46.79 C 58.93 42.76 58.90 38.73 58.81 34.71 Z" />
</g>
<g id="#0653e1ff">
<path fill="#0653e1" opacity="1.00" d=" M 5.09 46.79 C 6.17 49.13 7.14 51.52 8.34 53.81 C 15.19 54.20 22.09 54.24 28.89 53.29 C 30.92 53.99 33.06 53.99 35.09 53.30 C 41.90 54.24 48.80 54.20 55.66 53.81 C 56.86 51.52 57.83 49.13 58.91 46.79 C 59.49 51.66 57.12 57.73 51.94 58.92 C 38.41 59.02 24.85 59.30 11.33 58.70 C 6.60 57.11 4.58 51.43 5.09 46.79 Z" />
</g>
<g id="#00010327">
<path fill="#000103" opacity="0.15" d=" M 3.96 53.91 C 5.97 56.62 8.30 59.43 11.75 60.23 C 25.13 61.54 38.87 61.49 52.24 60.26 C 55.69 59.42 58.03 56.61 60.06 53.90 C 60.23 59.36 55.13 62.44 50.61 64.00 L 13.39 64.00 C 8.88 62.44 3.75 59.37 3.96 53.91 Z" />
</g>
<g id="#02238ecc">
<path fill="#02238e" opacity="0.80" d=" M 11.75 60.23 C 25.24 59.72 38.75 59.96 52.24 60.26 C 38.87 61.49 25.13 61.54 11.75 60.23 Z" />
</g>
</svg>
