<?xml version="1.0" encoding="UTF-8" ?>
<!DOCTYPE svg PUBLIC "-//W3C//DTD SVG 1.1//EN" "http://www.w3.org/Graphics/SVG/1.1/DTD/svg11.dtd">
<svg width="64pt" height="64pt" viewBox="0 0 64 64" version="1.1" xmlns="http://www.w3.org/2000/svg">
<g id="#ce380cff">
<path fill="#ce380c" opacity="1.00" d=" M 12.18 11.21 C 19.12 4.41 29.65 1.71 39.03 4.13 C 46.86 6.06 53.76 11.50 57.40 18.70 C 61.62 26.16 61.68 35.51 58.52 43.38 C 55.46 49.40 50.85 54.79 44.69 57.77 C 34.25 63.06 20.58 61.09 12.27 52.76 C 9.34 50.19 7.43 46.78 5.52 43.44 C 0.85 32.63 3.56 19.24 12.18 11.21 M 7.11 27.48 C 6.17 29.42 8.85 29.73 10.00 28.91 C 9.55 34.04 10.36 39.40 13.22 43.77 C 17.62 51.05 26.48 55.34 34.92 54.20 C 41.73 53.38 48.31 49.24 51.45 43.08 C 49.45 42.22 47.44 41.38 45.34 40.80 C 47.04 39.13 49.15 37.43 49.31 34.86 C 50.75 35.69 52.34 36.18 53.94 36.62 C 55.04 33.05 54.41 29.27 53.76 25.69 C 53.06 23.90 52.31 22.15 51.57 20.38 L 53.16 20.36 C 55.01 22.68 55.53 25.62 56.73 28.24 C 56.81 17.49 47.17 8.48 37.02 6.51 C 23.61 3.38 8.19 13.50 7.11 27.48 Z" />
</g>
<g id="#e9b0a0ff">
<path fill="#e9b0a0" opacity="1.00" d=" M 7.11 27.48 C 8.19 13.50 23.61 3.38 37.02 6.51 C 47.17 8.48 56.81 17.49 56.73 28.24 C 55.53 25.62 55.01 22.68 53.16 20.36 L 51.57 20.38 C 51.54 20.32 51.49 20.20 51.47 20.13 C 51.98 18.93 51.83 17.90 51.01 17.02 C 44.53 10.12 34.20 6.77 25.03 9.65 C 16.40 12.00 9.83 19.09 7.11 27.48 Z" />
</g>
<g id="#ee5b30ff">
<path fill="#ee5b30" opacity="1.00" d=" M 25.03 9.65 C 34.20 6.77 44.53 10.12 51.01 17.02 C 51.83 17.90 51.98 18.93 51.47 20.13 C 47.63 14.66 41.74 10.36 34.93 9.77 C 26.21 8.52 17.03 13.13 12.76 20.82 C 13.75 21.26 14.74 21.69 15.73 22.11 C 17.19 22.70 18.66 23.23 20.13 23.79 C 21.60 24.34 23.05 24.94 24.50 25.54 C 20.70 26.10 16.79 26.42 13.31 28.18 C 12.29 27.77 11.24 27.53 10.15 27.47 L 10.00 28.91 C 8.85 29.73 6.17 29.42 7.11 27.48 C 9.83 19.09 16.40 12.00 25.03 9.65 Z" />
</g>
<g id="#262626ff">
<path fill="#262626" opacity="1.00" d=" M 12.76 20.82 C 17.03 13.13 26.21 8.52 34.93 9.77 C 41.74 10.36 47.63 14.66 51.47 20.13 C 51.49 20.20 51.54 20.32 51.57 20.38 C 52.31 22.15 53.06 23.90 53.76 25.69 C 53.44 26.23 52.81 27.33 52.49 27.88 C 47.89 26.91 43.37 25.40 38.60 25.38 C 39.33 24.57 40.07 23.78 40.83 23.00 C 39.06 22.97 37.30 23.00 35.54 23.07 L 34.81 23.87 C 32.07 24.05 29.31 24.06 26.60 23.66 L 25.82 22.14 C 27.29 22.04 29.71 23.01 30.46 21.05 C 28.46 21.18 26.26 20.56 24.39 21.37 C 22.88 23.28 25.64 24.55 26.20 26.18 L 25.44 25.89 L 24.50 25.54 C 23.05 24.94 21.60 24.34 20.13 23.79 C 21.09 22.47 22.00 21.12 22.89 19.76 C 28.70 19.00 34.27 21.31 40.09 20.77 C 43.37 22.57 46.99 23.05 50.71 22.70 C 49.23 20.21 47.91 17.49 45.50 15.77 C 38.15 9.21 26.11 9.25 18.83 15.87 C 17.05 17.53 14.64 19.39 15.73 22.11 C 14.74 21.69 13.75 21.26 12.76 20.82 Z" />
</g>
<g id="#474747ff">
<path fill="#474747" opacity="1.00" d=" M 18.83 15.87 C 26.11 9.25 38.15 9.21 45.50 15.77 C 36.62 16.20 27.71 15.91 18.83 15.87 Z" />
</g>
<g id="#393939ff">
<path fill="#393939" opacity="1.00" d=" M 15.73 22.11 C 14.64 19.39 17.05 17.53 18.83 15.87 C 27.71 15.91 36.62 16.20 45.50 15.77 C 47.91 17.49 49.23 20.21 50.71 22.70 C 46.99 23.05 43.37 22.57 40.09 20.77 C 34.27 21.31 28.70 19.00 22.89 19.76 C 22.00 21.12 21.09 22.47 20.13 23.79 C 18.66 23.23 17.19 22.70 15.73 22.11 Z" />
</g>
<g id="#d1c3bfff">
<path fill="#d1c3bf" opacity="1.00" d=" M 24.39 21.37 C 26.26 20.56 28.46 21.18 30.46 21.05 C 29.71 23.01 27.29 22.04 25.82 22.14 L 26.60 23.66 C 26.76 24.24 27.09 25.41 27.25 25.99 C 30.23 25.96 33.22 26.10 36.20 25.89 L 36.92 24.61 L 34.81 23.87 L 35.54 23.07 C 37.30 23.00 39.06 22.97 40.83 23.00 C 40.07 23.78 39.33 24.57 38.60 25.38 C 37.13 26.47 38.87 27.96 39.34 29.05 C 43.61 27.25 49.67 29.66 49.31 34.86 C 49.15 37.43 47.04 39.13 45.34 40.80 C 42.22 42.22 38.43 40.68 37.05 37.55 C 37.35 37.58 37.96 37.63 38.26 37.65 C 40.11 38.43 41.80 40.22 43.96 39.89 C 46.29 39.93 47.39 37.64 48.73 36.15 C 48.57 35.74 48.25 34.93 48.09 34.52 C 47.01 31.47 43.11 28.68 40.21 31.30 L 38.87 31.08 C 37.18 27.99 33.50 27.41 30.31 27.61 C 28.92 27.18 27.55 26.70 26.20 26.18 C 25.64 24.55 22.88 23.28 24.39 21.37 Z" />
</g>
<g id="#020202ff">
<path fill="#020202" opacity="1.00" d=" M 26.60 23.66 C 29.31 24.06 32.07 24.05 34.81 23.87 L 36.92 24.61 L 36.20 25.89 C 33.22 26.10 30.23 25.96 27.25 25.99 C 27.09 25.41 26.76 24.24 26.60 23.66 Z" />
</g>
<g id="#e62809ff">
<path fill="#e62809" opacity="1.00" d=" M 13.31 28.18 C 16.79 26.42 20.70 26.10 24.50 25.54 L 25.44 25.89 C 25.27 26.63 24.92 28.10 24.75 28.83 C 22.37 28.80 19.66 28.04 17.63 29.71 L 17.08 29.56 C 15.80 29.15 14.56 28.65 13.31 28.18 Z" />
<path fill="#e62809" opacity="1.00" d=" M 26.92 27.86 C 27.60 27.79 28.95 27.67 29.62 27.61 C 31.79 28.08 33.82 29.00 35.73 30.12 C 34.33 30.46 32.93 30.80 31.54 31.15 C 31.60 31.71 31.72 32.82 31.78 33.37 C 30.01 31.67 28.34 29.86 26.92 27.86 Z" />
</g>
<g id="#eb7a5bff">
<path fill="#eb7a5b" opacity="1.00" d=" M 25.44 25.89 L 26.20 26.18 C 27.55 26.70 28.92 27.18 30.31 27.61 L 29.62 27.61 C 28.95 27.67 27.60 27.79 26.92 27.86 C 28.34 29.86 30.01 31.67 31.78 33.37 C 31.72 32.82 31.60 31.71 31.54 31.15 C 32.93 30.80 34.33 30.46 35.73 30.12 L 36.09 30.18 C 36.43 32.06 33.82 34.68 35.95 35.78 C 36.63 34.18 37.27 32.56 37.74 30.89 L 38.87 31.08 L 40.21 31.30 C 41.28 31.49 42.10 32.23 42.98 32.81 C 43.13 33.41 43.43 34.61 43.58 35.21 C 41.98 36.39 39.60 35.98 38.26 37.65 C 37.96 37.63 37.35 37.58 37.05 37.55 C 36.63 37.34 35.78 36.91 35.36 36.70 C 33.95 36.10 32.50 35.59 31.05 35.08 L 30.44 34.86 C 29.20 32.96 27.72 31.22 25.88 29.88 C 26.19 31.03 26.55 32.18 26.96 33.31 C 25.95 32.33 24.57 32.10 23.27 31.75 C 23.09 29.60 20.76 29.74 19.20 30.13 L 17.63 29.71 C 19.66 28.04 22.37 28.80 24.75 28.83 C 24.92 28.10 25.27 26.63 25.44 25.89 M 33.17 32.25 C 33.87 32.85 33.87 32.85 33.17 32.25 M 38.46 33.15 C 37.07 34.78 39.84 35.70 40.90 34.69 C 42.15 33.28 39.32 31.47 38.46 33.15 Z" />
</g>
<g id="#000000ff">
<path fill="#000000" opacity="1.00" d=" M 39.34 29.05 C 38.87 27.96 37.13 26.47 38.60 25.38 C 43.37 25.40 47.89 26.91 52.49 27.88 C 52.81 27.33 53.44 26.23 53.76 25.69 C 54.41 29.27 55.04 33.05 53.94 36.62 C 52.34 36.18 50.75 35.69 49.31 34.86 C 49.67 29.66 43.61 27.25 39.34 29.05 Z" />
<path fill="#000000" opacity="1.00" d=" M 30.31 27.61 C 33.50 27.41 37.18 27.99 38.87 31.08 L 37.74 30.89 L 36.84 29.64 C 36.65 29.77 36.28 30.04 36.09 30.18 L 35.73 30.12 C 33.82 29.00 31.79 28.08 29.62 27.61 L 30.31 27.61 Z" />
<path fill="#000000" opacity="1.00" d=" M 10.15 27.47 C 11.24 27.53 12.29 27.77 13.31 28.18 C 14.56 28.65 15.80 29.15 17.08 29.56 C 15.15 31.29 13.92 33.95 14.65 36.53 C 15.38 40.11 19.49 42.12 22.89 41.09 C 26.14 40.27 27.71 36.92 27.57 33.77 C 28.52 34.16 29.47 34.52 30.44 34.86 L 31.05 35.08 C 31.46 36.33 31.99 37.56 32.97 38.49 C 32.92 39.12 32.82 40.38 32.77 41.01 C 33.48 41.01 34.92 41.00 35.64 41.00 C 35.19 40.47 34.31 39.41 33.86 38.88 C 34.24 38.34 34.98 37.24 35.36 36.70 C 35.78 36.91 36.63 37.34 37.05 37.55 C 38.43 40.68 42.22 42.22 45.34 40.80 C 47.44 41.38 49.45 42.22 51.45 43.08 C 48.31 49.24 41.73 53.38 34.92 54.20 C 26.48 55.34 17.62 51.05 13.22 43.77 C 10.36 39.40 9.55 34.04 10.00 28.91 L 10.15 27.47 Z" />
<path fill="#000000" opacity="1.00" d=" M 40.21 31.30 C 43.11 28.68 47.01 31.47 48.09 34.52 C 46.42 33.85 44.69 33.36 42.98 32.81 C 42.10 32.23 41.28 31.49 40.21 31.30 Z" />
<path fill="#000000" opacity="1.00" d=" M 16.34 34.18 C 16.70 32.65 18.00 31.65 18.96 30.50 C 20.13 31.10 21.35 31.54 22.64 31.82 C 21.95 33.06 19.25 34.15 20.32 35.82 C 22.35 35.59 23.40 33.20 25.80 33.44 C 26.00 35.81 24.86 38.48 22.50 39.31 C 19.42 40.74 15.75 37.36 16.34 34.18 Z" />
</g>
<g id="#bebbbaff">
<path fill="#bebbba" opacity="1.00" d=" M 14.65 36.53 C 13.92 33.95 15.15 31.29 17.08 29.56 L 17.63 29.71 L 19.20 30.13 L 18.96 30.50 C 18.00 31.65 16.70 32.65 16.34 34.18 C 15.75 37.36 19.42 40.74 22.50 39.31 C 24.86 38.48 26.00 35.81 25.80 33.44 C 23.40 33.20 22.35 35.59 20.32 35.82 C 19.25 34.15 21.95 33.06 22.64 31.82 L 23.27 31.75 C 24.57 32.10 25.95 32.33 26.96 33.31 L 27.57 33.77 C 27.71 36.92 26.14 40.27 22.89 41.09 C 19.49 42.12 15.38 40.11 14.65 36.53 Z" />
</g>
<g id="#d84e27ff">
<path fill="#d84e27" opacity="1.00" d=" M 19.20 30.13 C 20.76 29.74 23.09 29.60 23.27 31.75 L 22.64 31.82 C 21.35 31.54 20.13 31.10 18.96 30.50 L 19.20 30.13 Z" />
</g>
<g id="#d4441cff">
<path fill="#d4441c" opacity="1.00" d=" M 25.88 29.88 C 27.72 31.22 29.20 32.96 30.44 34.86 C 29.47 34.52 28.52 34.16 27.57 33.77 L 26.96 33.31 C 26.55 32.18 26.19 31.03 25.88 29.88 Z" />
</g>
<g id="#df3b0cff">
<path fill="#df3b0c" opacity="1.00" d=" M 36.09 30.18 C 36.28 30.04 36.65 29.77 36.84 29.64 L 37.74 30.89 C 37.27 32.56 36.63 34.18 35.95 35.78 C 33.82 34.68 36.43 32.06 36.09 30.18 Z" />
<path fill="#df3b0c" opacity="1.00" d=" M 42.98 32.81 C 44.69 33.36 46.42 33.85 48.09 34.52 C 48.25 34.93 48.57 35.74 48.73 36.15 C 47.39 37.64 46.29 39.93 43.96 39.89 C 41.80 40.22 40.11 38.43 38.26 37.65 C 39.60 35.98 41.98 36.39 43.58 35.21 C 43.43 34.61 43.13 33.41 42.98 32.81 Z" />
</g>
<g id="#e03516ff">
<path fill="#e03516" opacity="1.00" d=" M 33.17 32.25 C 33.87 32.85 33.87 32.85 33.17 32.25 Z" />
</g>
<g id="#dd3f19ff">
<path fill="#dd3f19" opacity="1.00" d=" M 38.46 33.15 C 39.32 31.47 42.15 33.28 40.90 34.69 C 39.84 35.70 37.07 34.78 38.46 33.15 Z" />
</g>
<g id="#bfbbb9ff">
<path fill="#bfbbb9" opacity="1.00" d=" M 31.05 35.08 C 32.50 35.59 33.95 36.10 35.36 36.70 C 34.98 37.24 34.24 38.34 33.86 38.88 C 34.31 39.41 35.19 40.47 35.64 41.00 C 34.92 41.00 33.48 41.01 32.77 41.01 C 32.82 40.38 32.92 39.12 32.97 38.49 C 31.99 37.56 31.46 36.33 31.05 35.08 Z" />
</g>
<g id="#00000026">
<path fill="#000000" opacity="0.15" d=" M 5.52 43.44 C 7.43 46.78 9.34 50.19 12.27 52.76 C 20.58 61.09 34.25 63.06 44.69 57.77 C 50.85 54.79 55.46 49.40 58.52 43.38 C 58.87 46.67 56.59 49.31 55.03 51.97 C 50.27 59.11 41.89 62.77 33.64 64.00 L 30.41 64.00 C 22.35 62.84 14.23 59.39 9.37 52.58 C 7.58 49.81 5.17 46.96 5.52 43.44 Z" />
</g>
</svg>
