<?xml version="1.0" encoding="UTF-8" ?>
<!DOCTYPE svg PUBLIC "-//W3C//DTD SVG 1.1//EN" "http://www.w3.org/Graphics/SVG/1.1/DTD/svg11.dtd">
<svg width="64pt" height="64pt" viewBox="0 0 64 64" version="1.1" xmlns="http://www.w3.org/2000/svg">
<g id="#000000ff">
<path fill="#000000" opacity="1.00" d=" M 30.36 4.39 C 29.94 2.52 34.13 2.52 33.61 4.40 C 32.52 4.54 31.44 4.53 30.36 4.39 Z" />
<path fill="#000000" opacity="1.00" d=" M 30.52 6.16 C 30.58 6.38 30.69 6.84 30.75 7.06 C 30.73 7.33 30.68 7.87 30.66 8.14 C 23.39 14.81 16.68 22.04 9.64 28.94 C 8.71 29.95 7.81 30.99 6.92 32.03 C 11.54 37.07 16.30 42.01 21.50 46.47 C 22.06 43.78 22.84 41.14 23.84 38.57 C 23.79 38.13 23.68 37.25 23.63 36.81 C 23.57 34.40 22.02 32.55 20.87 30.57 C 22.00 27.67 24.10 25.31 26.37 23.24 C 25.52 22.09 24.67 20.94 23.83 19.79 C 25.43 18.82 27.07 17.91 28.74 17.04 C 30.05 19.42 29.74 22.09 28.61 24.47 C 28.85 24.87 29.34 25.66 29.58 26.06 C 30.81 28.20 32.18 30.25 33.64 32.24 C 34.55 31.28 35.46 30.32 36.37 29.35 C 35.93 28.78 35.05 27.64 34.61 27.07 C 35.18 25.40 35.86 23.26 38.08 23.64 C 39.97 23.06 39.44 26.18 40.15 27.20 C 39.50 28.17 38.82 29.13 38.13 30.08 C 40.35 32.57 42.95 34.68 45.07 37.26 C 43.25 36.66 41.46 35.97 39.68 35.27 C 40.22 36.25 40.76 37.23 41.31 38.21 C 40.93 40.15 40.62 42.09 40.34 44.05 C 41.31 44.74 42.29 45.44 43.26 46.13 C 47.84 41.41 52.72 36.98 57.04 32.02 C 55.02 29.67 52.87 27.43 50.66 25.25 C 44.83 19.61 39.36 13.59 33.34 8.15 C 33.32 7.88 33.27 7.34 33.25 7.06 C 33.31 6.84 33.43 6.38 33.49 6.15 C 41.47 14.13 49.30 22.28 57.55 29.97 C 57.74 31.57 58.03 33.39 56.60 34.55 C 50.04 41.34 43.25 47.91 36.65 54.68 C 35.26 55.99 33.93 57.64 31.94 58.00 C 30.00 57.55 28.69 55.94 27.31 54.64 C 20.75 47.87 13.95 41.33 7.40 34.55 C 5.97 33.41 6.26 31.57 6.44 29.99 C 14.69 22.27 22.54 14.15 30.52 6.16 M 29.07 31.05 C 30.44 33.85 31.43 36.82 31.01 40.00 C 32.57 38.09 33.65 35.87 32.92 33.36 C 31.64 32.59 30.35 31.82 29.07 31.05 M 27.27 37.47 C 25.96 39.64 24.64 41.82 23.31 43.99 C 24.13 44.68 24.95 45.36 25.78 46.05 C 27.31 46.03 28.84 46.01 30.37 45.98 C 29.62 43.06 29.28 39.86 27.27 37.47 M 31.17 40.67 C 31.41 41.66 31.87 43.65 32.10 44.64 C 32.97 45.12 33.83 45.59 34.69 46.08 C 34.82 43.95 35.04 41.84 35.26 39.72 C 33.87 39.89 32.49 40.18 31.17 40.67 M 36.36 44.28 C 37.29 44.98 38.23 45.68 39.16 46.38 C 38.84 44.19 38.48 42.00 38.11 39.82 C 37.51 41.30 36.93 42.79 36.36 44.28 M 21.64 46.96 C 25.03 50.37 28.31 53.91 32.00 57.01 C 35.70 53.90 39.00 50.35 42.39 46.92 C 35.47 46.88 28.55 46.85 21.64 46.96 Z" />
</g>
<g id="#ffdd03ff">
<path fill="#ffdd03" opacity="1.00" d=" M 29.08 4.28 C 29.40 4.31 30.04 4.36 30.36 4.39 C 31.44 4.53 32.52 4.54 33.61 4.40 C 33.92 4.37 34.56 4.32 34.88 4.29 C 42.76 12.71 51.25 20.54 59.21 28.88 C 61.43 30.72 60.84 34.08 58.80 35.82 C 52.58 42.24 46.12 48.45 39.84 54.82 C 37.94 56.69 36.17 58.75 33.95 60.27 C 31.63 61.31 29.23 60.12 27.68 58.36 C 20.19 50.85 12.61 43.42 5.17 35.86 C 3.10 34.13 2.58 30.68 4.78 28.84 C 12.73 20.51 21.23 12.70 29.08 4.28 M 30.75 7.06 C 30.69 6.84 30.58 6.38 30.52 6.16 C 22.54 14.15 14.69 22.27 6.44 29.99 C 6.26 31.57 5.97 33.41 7.40 34.55 C 13.95 41.33 20.75 47.87 27.31 54.64 C 28.69 55.94 30.00 57.55 31.94 58.00 C 33.93 57.64 35.26 55.99 36.65 54.68 C 43.25 47.91 50.04 41.34 56.60 34.55 C 58.03 33.39 57.74 31.57 57.55 29.97 C 49.30 22.28 41.47 14.13 33.49 6.15 C 33.43 6.38 33.31 6.84 33.25 7.06 C 32.42 5.89 31.58 5.89 30.75 7.06 Z" />
<path fill="#ffdd03" opacity="1.00" d=" M 29.58 26.06 C 30.72 25.72 31.87 25.38 33.01 25.04 C 33.54 25.72 34.07 26.39 34.61 27.07 C 35.05 27.64 35.93 28.78 36.37 29.35 C 35.46 30.32 34.55 31.28 33.64 32.24 C 32.18 30.25 30.81 28.20 29.58 26.06 Z" />
<path fill="#ffdd03" opacity="1.00" d=" M 41.42 25.36 C 44.50 25.34 47.58 25.31 50.66 25.25 C 52.87 27.43 55.02 29.67 57.04 32.02 C 52.72 36.98 47.84 41.41 43.26 46.13 C 42.29 45.44 41.31 44.74 40.34 44.05 C 40.62 42.09 40.93 40.15 41.31 38.21 C 40.76 37.23 40.22 36.25 39.68 35.27 C 41.46 35.97 43.25 36.66 45.07 37.26 C 42.95 34.68 40.35 32.57 38.13 30.08 C 38.82 29.13 39.50 28.17 40.15 27.20 C 40.47 26.74 41.10 25.82 41.42 25.36 Z" />
<path fill="#ffdd03" opacity="1.00" d=" M 6.92 32.03 C 7.81 30.99 8.71 29.95 9.64 28.94 C 12.98 28.54 16.33 28.37 19.69 28.39 C 19.98 28.94 20.57 30.02 20.87 30.57 C 22.02 32.55 23.57 34.40 23.63 36.81 C 23.68 37.25 23.79 38.13 23.84 38.57 C 22.84 41.14 22.06 43.78 21.50 46.47 C 16.30 42.01 11.54 37.07 6.92 32.03 Z" />
<path fill="#ffdd03" opacity="1.00" d=" M 29.07 31.05 C 30.35 31.82 31.64 32.59 32.92 33.36 C 33.65 35.87 32.57 38.09 31.01 40.00 C 31.43 36.82 30.44 33.85 29.07 31.05 Z" />
<path fill="#ffdd03" opacity="1.00" d=" M 27.27 37.47 C 29.28 39.86 29.62 43.06 30.37 45.98 C 28.84 46.01 27.31 46.03 25.78 46.05 C 24.95 45.36 24.13 44.68 23.31 43.99 C 24.64 41.82 25.96 39.64 27.27 37.47 Z" />
<path fill="#ffdd03" opacity="1.00" d=" M 31.17 40.67 C 32.49 40.18 33.87 39.89 35.26 39.72 C 35.04 41.84 34.82 43.95 34.69 46.08 C 33.83 45.59 32.97 45.12 32.10 44.64 C 31.87 43.65 31.41 41.66 31.17 40.67 Z" />
<path fill="#ffdd03" opacity="1.00" d=" M 36.36 44.28 C 36.93 42.79 37.51 41.30 38.11 39.82 C 38.48 42.00 38.84 44.19 39.16 46.38 C 38.23 45.68 37.29 44.98 36.36 44.28 Z" />
<path fill="#ffdd03" opacity="1.00" d=" M 21.64 46.96 C 28.55 46.85 35.47 46.88 42.39 46.92 C 39.00 50.35 35.70 53.90 32.00 57.01 C 28.31 53.91 25.03 50.37 21.64 46.96 Z" />
</g>
<g id="#ffe93bff">
<path fill="#ffe93b" opacity="1.00" d=" M 30.75 7.06 C 31.58 5.89 32.42 5.89 33.25 7.06 C 33.27 7.34 33.32 7.88 33.34 8.15 C 39.36 13.59 44.83 19.61 50.66 25.25 C 47.58 25.31 44.50 25.34 41.42 25.36 C 41.10 25.82 40.47 26.74 40.15 27.20 C 39.44 26.18 39.97 23.06 38.08 23.64 C 35.86 23.26 35.18 25.40 34.61 27.07 C 34.07 26.39 33.54 25.72 33.01 25.04 C 31.87 25.38 30.72 25.72 29.58 26.06 C 29.34 25.66 28.85 24.87 28.61 24.47 C 29.74 22.09 30.05 19.42 28.74 17.04 C 27.07 17.91 25.43 18.82 23.83 19.79 C 24.67 20.94 25.52 22.09 26.37 23.24 C 24.10 25.31 22.00 27.67 20.87 30.57 C 20.57 30.02 19.98 28.94 19.69 28.39 C 16.33 28.37 12.98 28.54 9.64 28.94 C 16.68 22.04 23.39 14.81 30.66 8.14 C 30.68 7.87 30.73 7.33 30.75 7.06 Z" />
</g>
</svg>
