<?xml version="1.0" encoding="UTF-8" ?>
<!DOCTYPE svg PUBLIC "-//W3C//DTD SVG 1.1//EN" "http://www.w3.org/Graphics/SVG/1.1/DTD/svg11.dtd">
<svg width="64pt" height="64pt" viewBox="0 0 64 64" version="1.1" xmlns="http://www.w3.org/2000/svg">
<g id="#d93d10ff">
<path fill="#d93d10" opacity="1.00" d=" M 18.59 6.61 C 28.92 0.96 42.71 2.65 51.28 10.76 C 61.56 19.74 64.01 36.60 55.85 47.75 C 52.17 52.01 48.07 56.15 42.71 58.22 C 39.07 60.07 34.92 59.73 30.97 59.76 C 18.57 60.61 7.52 50.50 4.56 38.91 C 3.97 33.58 4.20 28.18 4.70 22.84 C 7.23 16.03 12.07 9.98 18.59 6.61 M 15.48 12.46 C 11.06 16.51 7.14 22.13 7.45 28.37 C 8.71 18.97 16.94 10.63 26.29 9.37 L 26.75 8.67 C 30.23 8.36 33.77 8.36 37.25 8.67 L 37.71 9.37 C 38.26 9.41 39.35 9.50 39.90 9.55 C 47.89 12.26 55.14 19.03 56.38 27.66 C 56.84 22.17 53.18 17.23 49.57 13.44 C 40.68 4.40 24.89 3.98 15.48 12.46 M 12.76 20.76 C 17.27 22.74 21.90 24.46 26.50 26.23 C 24.85 28.39 22.26 29.36 19.95 30.61 C 16.60 29.76 13.54 27.92 10.09 27.48 C 9.64 32.12 9.78 36.97 11.81 41.26 C 15.18 48.74 22.92 54.04 31.14 54.37 C 39.35 54.86 47.62 50.33 51.59 43.11 C 46.95 41.12 42.08 39.61 37.65 37.23 L 38.69 37.37 C 37.89 34.94 36.89 32.56 36.39 30.04 C 37.19 30.34 38.80 30.95 39.60 31.25 C 40.22 31.51 41.44 32.04 42.06 32.30 C 46.10 33.66 49.98 35.45 54.05 36.71 C 55.07 32.27 54.50 27.59 52.81 23.39 C 49.93 15.67 42.07 10.09 33.84 9.66 C 25.43 8.84 16.95 13.50 12.76 20.76 Z" />
<path fill="#d93d10" opacity="1.00" d=" M 23.52 32.13 C 25.46 31.03 27.26 29.71 28.99 28.31 C 29.41 30.48 29.83 32.66 30.22 34.84 L 29.60 34.58 C 27.57 33.77 25.54 32.96 23.52 32.13 Z" />
</g>
<g id="#ffffffff">
<path fill="#ffffff" opacity="1.00" d=" M 15.48 12.46 C 24.89 3.98 40.68 4.40 49.57 13.44 C 53.18 17.23 56.84 22.17 56.38 27.66 C 55.14 19.03 47.89 12.26 39.90 9.55 C 39.35 9.50 38.26 9.41 37.71 9.37 L 37.25 8.67 C 33.77 8.36 30.23 8.36 26.75 8.67 L 26.29 9.37 C 16.94 10.63 8.71 18.97 7.45 28.37 C 7.14 22.13 11.06 16.51 15.48 12.46 Z" />
<path fill="#ffffff" opacity="1.00" d=" M 27.22 15.16 C 29.41 13.27 33.14 16.21 31.69 18.76 C 30.73 21.00 27.13 21.05 26.26 18.72 C 25.52 17.46 26.22 16.02 27.22 15.16 Z" />
<path fill="#ffffff" opacity="1.00" d=" M 26.64 26.08 C 27.50 24.48 28.60 23.04 29.96 21.85 C 34.23 20.75 37.53 24.37 41.12 26.00 C 41.55 28.08 41.88 30.18 42.06 32.30 C 41.44 32.04 40.22 31.51 39.60 31.25 C 39.25 30.06 38.91 28.86 38.54 27.67 C 37.37 27.13 36.19 26.57 35.02 26.02 C 35.21 26.95 35.59 28.80 35.77 29.73 C 33.65 28.70 31.51 27.71 29.26 27.00 C 28.61 26.77 27.30 26.31 26.64 26.08 Z" />
<path fill="#ffffff" opacity="1.00" d=" M 29.60 34.58 L 30.22 34.84 C 31.29 35.32 32.35 35.81 33.41 36.32 C 31.77 38.01 30.19 39.80 28.89 41.77 C 28.14 44.29 28.66 47.17 27.41 49.51 C 26.74 50.89 24.17 49.50 24.80 48.06 C 24.99 45.23 25.14 42.37 25.73 39.59 C 26.82 37.78 28.29 36.23 29.60 34.58 Z" />
<path fill="#ffffff" opacity="1.00" d=" M 33.51 39.06 C 33.96 38.24 34.48 37.47 35.08 36.75 L 35.90 36.95 C 39.69 39.75 40.29 45.05 42.34 49.09 C 41.77 49.32 40.63 49.79 40.06 50.02 C 37.00 47.02 36.62 42.07 33.51 39.06 Z" />
</g>
<g id="#373737ff">
<path fill="#373737" opacity="1.00" d=" M 12.76 20.76 C 16.95 13.50 25.43 8.84 33.84 9.66 C 42.07 10.09 49.93 15.67 52.81 23.39 C 52.67 24.84 52.53 26.30 52.38 27.75 C 49.46 26.90 46.38 26.50 43.62 25.17 C 40.00 22.95 36.44 19.67 31.90 19.90 C 31.42 20.39 30.45 21.36 29.96 21.85 C 28.60 23.04 27.50 24.48 26.64 26.08 C 27.30 26.31 28.61 26.77 29.26 27.00 C 28.57 26.80 27.19 26.42 26.50 26.23 C 21.90 24.46 17.27 22.74 12.76 20.76 M 27.22 15.16 C 26.22 16.02 25.52 17.46 26.26 18.72 C 27.13 21.05 30.73 21.00 31.69 18.76 C 33.14 16.21 29.41 13.27 27.22 15.16 Z" />
<path fill="#373737" opacity="1.00" d=" M 17.22 56.85 C 5.80 50.28 0.09 35.27 4.70 22.84 C 4.20 28.18 3.97 33.58 4.56 38.91 C 7.52 50.50 18.57 60.61 30.97 59.76 C 34.92 59.73 39.07 60.07 42.71 58.22 C 48.07 56.15 52.17 52.01 55.85 47.75 C 48.63 60.82 29.69 64.67 17.22 56.85 Z" />
</g>
<g id="#000000ff">
<path fill="#000000" opacity="1.00" d=" M 31.90 19.90 C 36.44 19.67 40.00 22.95 43.62 25.17 C 46.38 26.50 49.46 26.90 52.38 27.75 C 52.53 26.30 52.67 24.84 52.81 23.39 C 54.50 27.59 55.07 32.27 54.05 36.71 C 49.98 35.45 46.10 33.66 42.06 32.30 C 41.88 30.18 41.55 28.08 41.12 26.00 C 37.53 24.37 34.23 20.75 29.96 21.85 C 30.45 21.36 31.42 20.39 31.90 19.90 Z" />
<path fill="#000000" opacity="1.00" d=" M 35.02 26.02 C 36.19 26.57 37.37 27.13 38.54 27.67 C 38.91 28.86 39.25 30.06 39.60 31.25 C 38.80 30.95 37.19 30.34 36.39 30.04 C 36.18 29.94 35.98 29.83 35.77 29.73 C 35.59 28.80 35.21 26.95 35.02 26.02 Z" />
<path fill="#000000" opacity="1.00" d=" M 10.09 27.48 C 13.54 27.92 16.60 29.76 19.95 30.61 C 18.95 31.04 18.71 31.79 19.21 32.85 C 20.71 33.36 22.20 32.84 23.52 32.13 C 25.54 32.96 27.57 33.77 29.60 34.58 C 28.29 36.23 26.82 37.78 25.73 39.59 C 25.14 42.37 24.99 45.23 24.80 48.06 C 24.17 49.50 26.74 50.89 27.41 49.51 C 28.66 47.17 28.14 44.29 28.89 41.77 C 30.19 39.80 31.77 38.01 33.41 36.32 C 33.82 36.43 34.66 36.64 35.08 36.75 C 34.48 37.47 33.96 38.24 33.51 39.06 C 36.62 42.07 37.00 47.02 40.06 50.02 C 40.63 49.79 41.77 49.32 42.34 49.09 C 40.29 45.05 39.69 39.75 35.90 36.95 C 36.34 37.02 37.21 37.16 37.65 37.23 C 42.08 39.61 46.95 41.12 51.59 43.11 C 47.62 50.33 39.35 54.86 31.14 54.37 C 22.92 54.04 15.18 48.74 11.81 41.26 C 9.78 36.97 9.64 32.12 10.09 27.48 Z" />
</g>
<g id="#ee8161ff">
<path fill="#ee8161" opacity="1.00" d=" M 19.95 30.61 C 22.26 29.36 24.85 28.39 26.50 26.23 C 27.19 26.42 28.57 26.80 29.26 27.00 C 31.51 27.71 33.65 28.70 35.77 29.73 C 35.98 29.83 36.18 29.94 36.39 30.04 C 36.89 32.56 37.89 34.94 38.69 37.37 L 37.65 37.23 C 37.21 37.16 36.34 37.02 35.90 36.95 L 35.08 36.75 C 34.66 36.64 33.82 36.43 33.41 36.32 C 32.35 35.81 31.29 35.32 30.22 34.84 C 29.83 32.66 29.41 30.48 28.99 28.31 C 27.26 29.71 25.46 31.03 23.52 32.13 C 22.20 32.84 20.71 33.36 19.21 32.85 C 18.71 31.79 18.95 31.04 19.95 30.61 Z" />
</g>
</svg>
