<?xml version="1.0" encoding="UTF-8" ?>
<!DOCTYPE svg PUBLIC "-//W3C//DTD SVG 1.1//EN" "http://www.w3.org/Graphics/SVG/1.1/DTD/svg11.dtd">
<svg width="64pt" height="64pt" viewBox="0 0 64 64" version="1.1" xmlns="http://www.w3.org/2000/svg">
<g id="#00346bcc">
<path fill="#00346b" opacity="0.80" d=" M 11.76 3.77 C 25.13 2.46 38.86 2.51 52.24 3.75 C 38.75 4.04 25.24 4.27 11.76 3.77 Z" />
</g>
<g id="#0050a2f7">
<path fill="#0050a2" opacity="0.97" d=" M 4.66 9.79 C 5.95 6.82 8.64 4.59 11.76 3.77 C 25.24 4.27 38.75 4.04 52.24 3.75 C 55.38 4.59 58.06 6.83 59.31 9.85 C 55.99 7.89 53.23 4.18 48.91 4.95 C 38.60 4.98 28.29 4.97 17.98 4.99 C 13.60 3.67 10.02 6.46 6.79 8.79 C 6.25 9.04 5.19 9.54 4.66 9.79 Z" />
</g>
<g id="#127cd0ff">
<path fill="#127cd0" opacity="1.00" d=" M 6.79 8.79 C 10.02 6.46 13.60 3.67 17.98 4.99 C 28.29 4.97 38.60 4.98 48.91 4.95 L 49.20 5.82 C 37.24 6.27 25.26 5.62 13.31 6.27 C 10.91 7.37 9.11 9.36 7.11 11.02 C 7.03 10.46 6.87 9.35 6.79 8.79 Z" />
</g>
<g id="#0466c7fe">
<path fill="#0466c7" opacity="1.00" d=" M 48.91 4.95 C 53.23 4.18 55.99 7.89 59.31 9.85 C 59.54 10.33 59.99 11.29 60.22 11.77 C 59.96 20.18 60.03 28.59 59.97 37.00 L 59.00 37.00 C 58.12 29.49 60.67 21.02 58.16 13.92 C 57.95 13.63 57.54 13.04 57.33 12.75 C 55.53 9.56 52.82 6.77 49.20 5.82 L 48.91 4.95 Z" />
</g>
<g id="#c8e1f9ff">
<path fill="#c8e1f9" opacity="1.00" d=" M 13.31 6.27 C 25.26 5.62 37.24 6.27 49.20 5.82 C 52.82 6.77 55.53 9.56 57.33 12.75 L 57.14 13.95 C 55.18 11.86 53.47 9.32 50.68 8.28 C 38.79 7.70 26.88 8.02 14.98 8.01 C 11.31 8.15 9.04 11.47 6.99 14.09 C 6.92 13.51 6.80 12.35 6.74 11.77 L 7.11 11.02 C 9.11 9.36 10.91 7.37 13.31 6.27 Z" />
</g>
<g id="#5baaf0ff">
<path fill="#5baaf0" opacity="1.00" d=" M 6.99 14.09 C 9.04 11.47 11.31 8.15 14.98 8.01 C 26.88 8.02 38.79 7.70 50.68 8.28 C 53.47 9.32 55.18 11.86 57.14 13.95 C 56.67 15.14 57.99 20.42 55.95 18.00 C 52.11 16.36 47.44 17.17 43.23 17.03 C 43.16 16.49 43.03 15.42 42.97 14.89 C 42.76 14.35 42.34 13.27 42.13 12.74 C 39.91 11.50 37.55 11.31 35.05 12.18 C 33.03 10.35 30.70 11.29 28.90 12.88 C 26.40 13.33 21.49 11.27 21.97 14.89 C 21.94 15.43 21.87 16.50 21.84 17.04 C 17.09 17.98 10.62 14.69 6.97 18.92 C 6.95 17.31 6.98 15.70 6.99 14.09 Z" />
</g>
<g id="#005cc3fe">
<path fill="#005cc3" opacity="1.00" d=" M 4.66 9.79 C 5.19 9.54 6.25 9.04 6.79 8.79 C 6.87 9.35 7.03 10.46 7.11 11.02 L 6.74 11.77 C 6.52 12.07 6.07 12.65 5.85 12.95 C 4.12 19.89 5.16 27.55 5.30 34.76 C 5.23 36.57 5.08 40.20 5.01 42.01 L 4.03 41.99 C 3.89 31.92 4.24 21.83 3.79 11.77 C 4.01 11.27 4.44 10.28 4.66 9.79 Z" />
</g>
<g id="#1445d5ff">
<path fill="#1445d5" opacity="1.00" d=" M 28.90 12.88 C 30.70 11.29 33.03 10.35 35.05 12.18 L 34.90 12.99 C 33.30 12.99 31.69 12.99 30.09 13.00 L 28.90 12.88 Z" />
</g>
<g id="#002f78ce">
<path fill="#002f78" opacity="0.81" d=" M 3.75 52.22 C 2.63 38.82 2.36 25.11 3.79 11.77 C 4.24 21.83 3.89 31.92 4.03 41.99 C 3.98 45.40 3.96 48.81 3.75 52.22 Z" />
<path fill="#002f78" opacity="0.81" d=" M 60.22 11.77 C 61.64 25.11 61.35 38.82 60.28 52.22 C 60.12 47.14 60.02 42.07 59.97 37.00 C 60.03 28.59 59.96 20.18 60.22 11.77 Z" />
</g>
<g id="#3e9aeeff">
<path fill="#3e9aee" opacity="1.00" d=" M 5.85 12.95 C 6.07 12.65 6.52 12.07 6.74 11.77 C 6.80 12.35 6.92 13.51 6.99 14.09 C 6.98 15.70 6.95 17.31 6.97 18.92 C 10.62 14.69 17.09 17.98 21.84 17.04 C 24.74 17.93 28.83 16.76 30.69 19.44 C 29.97 20.22 29.30 21.04 28.69 21.91 C 30.57 21.92 34.31 21.95 36.19 21.96 C 35.74 20.96 35.09 20.11 34.23 19.42 C 36.29 16.73 40.44 18.56 43.23 17.03 C 47.44 17.17 52.11 16.36 55.95 18.00 C 57.99 20.42 56.67 15.14 57.14 13.95 L 57.33 12.75 C 57.54 13.04 57.95 13.63 58.16 13.92 C 57.93 17.64 58.55 21.59 57.18 25.16 C 54.16 25.20 50.99 25.55 48.88 23.13 C 47.94 22.19 46.61 21.61 45.43 22.51 C 42.55 24.22 39.02 23.82 35.86 23.20 C 34.20 23.22 30.86 23.25 29.19 23.27 C 27.88 23.60 26.56 23.91 25.24 24.20 C 19.09 24.15 12.99 25.10 6.83 25.13 C 5.68 21.19 6.20 16.97 5.85 12.95 Z" />
</g>
<g id="#2e92ecff">
<path fill="#2e92ec" opacity="1.00" d=" M 35.05 12.18 C 37.55 11.31 39.91 11.50 42.13 12.74 C 40.32 12.80 36.71 12.93 34.90 12.99 L 35.05 12.18 Z" />
</g>
<g id="#026ce5ff">
<path fill="#026ce5" opacity="1.00" d=" M 5.30 34.76 C 5.16 27.55 4.12 19.89 5.85 12.95 C 6.20 16.97 5.68 21.19 6.83 25.13 C 7.63 29.08 12.29 30.24 15.71 30.84 C 17.08 29.18 17.97 26.91 20.09 26.03 L 20.02 26.99 C 19.55 29.76 15.68 35.19 19.78 36.38 C 20.13 36.75 20.83 37.49 21.18 37.86 C 19.42 37.89 17.67 37.90 15.91 38.02 C 13.77 38.53 14.25 40.41 14.61 42.06 C 11.82 42.02 9.00 42.19 6.21 41.87 C 6.06 39.48 5.76 37.11 5.30 34.76 Z" />
</g>
<g id="#141ecaff">
<path fill="#141eca" opacity="1.00" d=" M 21.97 14.89 C 21.49 11.27 26.40 13.33 28.90 12.88 L 30.09 13.00 C 28.40 15.82 24.76 14.36 21.97 14.89 Z" />
</g>
<g id="#edf0fbff">
<path fill="#edf0fb" opacity="1.00" d=" M 30.09 13.00 C 31.69 12.99 33.30 12.99 34.90 12.99 C 36.60 15.78 40.20 14.36 42.97 14.89 C 43.03 15.42 43.16 16.49 43.23 17.03 C 40.44 18.56 36.29 16.73 34.23 19.42 C 35.09 20.11 35.74 20.96 36.19 21.96 C 34.31 21.95 30.57 21.92 28.69 21.91 C 29.30 21.04 29.97 20.22 30.69 19.44 C 28.83 16.76 24.74 17.93 21.84 17.04 C 21.87 16.50 21.94 15.43 21.97 14.89 C 24.76 14.36 28.40 15.82 30.09 13.00 Z" />
</g>
<g id="#131dcbff">
<path fill="#131dcb" opacity="1.00" d=" M 34.90 12.99 C 36.71 12.93 40.32 12.80 42.13 12.74 C 42.34 13.27 42.76 14.35 42.97 14.89 C 40.20 14.36 36.60 15.78 34.90 12.99 Z" />
</g>
<g id="#0269e3ff">
<path fill="#0269e3" opacity="1.00" d=" M 58.16 13.92 C 60.67 21.02 58.12 29.49 59.00 37.00 C 58.98 37.45 58.93 38.36 58.91 38.82 C 58.24 40.20 57.66 41.63 56.81 42.91 C 51.27 43.01 45.70 43.33 40.18 42.87 C 39.85 42.41 39.21 41.48 38.88 41.02 C 40.77 38.55 42.84 36.21 44.90 33.88 C 51.02 35.74 46.73 26.89 47.98 24.02 C 42.51 22.42 45.72 29.75 44.92 32.96 C 42.25 32.94 39.58 32.96 36.92 33.03 C 42.05 33.25 44.66 31.54 42.96 26.21 C 40.27 26.28 37.20 26.57 35.80 23.99 L 35.86 23.20 C 39.02 23.82 42.55 24.22 45.43 22.51 C 46.61 21.61 47.94 22.19 48.88 23.13 C 48.93 24.85 49.04 28.30 49.09 30.02 C 52.42 30.46 56.40 28.67 57.18 25.16 C 58.55 21.59 57.93 17.64 58.16 13.92 Z" />
</g>
<g id="#1826c1ff">
<path fill="#1826c1" opacity="1.00" d=" M 25.24 24.20 C 26.56 23.91 27.88 23.60 29.19 23.27 L 29.24 24.04 C 27.12 26.93 23.08 25.91 20.02 26.99 L 20.09 26.03 C 21.71 25.18 23.51 24.78 25.24 24.20 Z" />
</g>
<g id="#0101baff">
<path fill="#0101ba" opacity="1.00" d=" M 29.19 23.27 C 30.86 23.25 34.20 23.22 35.86 23.20 L 35.80 23.99 C 34.16 24.00 30.88 24.02 29.24 24.04 L 29.19 23.27 Z" />
</g>
<g id="#288decff">
<path fill="#288dec" opacity="1.00" d=" M 48.88 23.13 C 50.99 25.55 54.16 25.20 57.18 25.16 C 56.40 28.67 52.42 30.46 49.09 30.02 C 49.04 28.30 48.93 24.85 48.88 23.13 Z" />
</g>
<g id="#248bebff">
<path fill="#248beb" opacity="1.00" d=" M 6.83 25.13 C 12.99 25.10 19.09 24.15 25.24 24.20 C 23.51 24.78 21.71 25.18 20.09 26.03 C 17.97 26.91 17.08 29.18 15.71 30.84 C 12.29 30.24 7.63 29.08 6.83 25.13 Z" />
</g>
<g id="#fbfcfeff">
<path fill="#fbfcfe" opacity="1.00" d=" M 29.24 24.04 C 30.88 24.02 34.16 24.00 35.80 23.99 C 37.20 26.57 40.27 26.28 42.96 26.21 C 44.66 31.54 42.05 33.25 36.92 33.03 C 33.01 35.84 29.04 33.37 25.17 31.99 C 24.40 34.77 22.97 36.70 19.78 36.38 C 15.68 35.19 19.55 29.76 20.02 26.99 C 23.08 25.91 27.12 26.93 29.24 24.04 Z" />
</g>
<g id="#ffffffff">
<path fill="#ffffff" opacity="1.00" d=" M 44.92 32.96 C 45.72 29.75 42.51 22.42 47.98 24.02 C 46.73 26.89 51.02 35.74 44.90 33.88 L 44.92 32.96 Z" />
</g>
<g id="#025fe5ff">
<path fill="#025fe5" opacity="1.00" d=" M 25.17 31.99 C 29.04 33.37 33.01 35.84 36.92 33.03 C 39.58 32.96 42.25 32.94 44.92 32.96 L 44.90 33.88 C 42.84 36.21 40.77 38.55 38.88 41.02 C 39.21 41.48 39.85 42.41 40.18 42.87 C 45.70 43.33 51.27 43.01 56.81 42.91 C 57.66 41.63 58.24 40.20 58.91 38.82 C 58.91 40.49 58.94 42.16 58.88 43.83 C 58.28 46.21 58.71 49.11 56.78 50.89 C 46.20 51.23 35.62 50.82 25.04 51.09 C 25.13 49.37 25.31 45.91 25.41 44.19 C 25.72 42.82 25.98 41.43 26.02 40.02 L 26.01 39.04 C 26.03 36.99 22.61 38.40 21.18 37.86 C 20.83 37.49 20.13 36.75 19.78 36.38 C 22.97 36.70 24.40 34.77 25.17 31.99 Z" />
</g>
<g id="#025fe4ff">
<path fill="#025fe4" opacity="1.00" d=" M 5.30 34.76 C 5.76 37.11 6.06 39.48 6.21 41.87 C 9.00 42.19 11.82 42.02 14.61 42.06 C 14.25 40.41 13.77 38.53 15.91 38.02 L 15.96 38.99 L 16.00 40.00 C 16.02 41.45 16.25 42.89 16.71 44.26 C 16.77 45.99 16.90 49.44 16.96 51.17 C 13.70 51.04 10.43 51.19 7.19 50.86 C 5.45 48.95 5.89 46.15 5.24 43.78 C 5.19 43.34 5.07 42.45 5.01 42.01 C 5.08 40.20 5.23 36.57 5.30 34.76 Z" />
</g>
<g id="#033fc2fa">
<path fill="#033fc2" opacity="0.98" d=" M 59.00 37.00 L 59.97 37.00 C 60.02 42.07 60.12 47.14 60.28 52.22 C 60.22 52.64 60.11 53.48 60.06 53.91 C 58.03 56.61 55.69 59.42 52.24 60.26 C 38.75 59.96 25.24 59.73 11.76 60.23 C 8.30 59.43 5.97 56.61 3.96 53.91 C 3.90 53.49 3.80 52.64 3.75 52.22 C 3.96 48.81 3.98 45.40 4.03 41.99 L 5.01 42.01 C 5.07 42.45 5.19 43.34 5.24 43.78 C 4.62 48.98 5.45 56.69 11.32 58.70 C 24.85 59.29 38.41 59.03 51.94 58.92 C 58.47 57.42 59.19 49.23 58.88 43.83 C 58.94 42.16 58.91 40.49 58.91 38.82 C 58.93 38.36 58.98 37.45 59.00 37.00 Z" />
</g>
<g id="#002edeff">
<path fill="#002ede" opacity="1.00" d=" M 15.91 38.02 C 17.67 37.90 19.42 37.89 21.18 37.86 C 22.61 38.40 26.03 36.99 26.01 39.04 C 22.66 39.01 19.31 39.00 15.96 38.99 L 15.91 38.02 Z" />
</g>
<g id="#000096ff">
<path fill="#000096" opacity="1.00" d=" M 15.96 38.99 C 19.31 39.00 22.66 39.01 26.01 39.04 L 26.02 40.02 C 22.68 40.01 19.34 40.00 16.00 40.00 L 15.96 38.99 Z" />
</g>
<g id="#e2e5faff">
<path fill="#e2e5fa" opacity="1.00" d=" M 16.00 40.00 C 19.34 40.00 22.68 40.01 26.02 40.02 C 25.98 41.43 25.72 42.82 25.41 44.19 C 26.03 39.08 20.33 41.21 17.01 41.05 C 17.22 42.09 17.47 43.12 17.77 44.14 L 16.71 44.26 C 16.25 42.89 16.02 41.45 16.00 40.00 Z" />
</g>
<g id="#134ecaff">
<path fill="#134eca" opacity="1.00" d=" M 17.01 41.05 C 20.33 41.21 26.03 39.08 25.41 44.19 C 23.50 44.18 19.68 44.15 17.77 44.14 C 17.47 43.12 17.22 42.09 17.01 41.05 Z" />
</g>
<g id="#0455e2ff">
<path fill="#0455e2" opacity="1.00" d=" M 5.24 43.78 C 5.89 46.15 5.45 48.95 7.19 50.86 C 10.43 51.19 13.70 51.04 16.96 51.17 C 19.66 51.49 22.49 52.35 25.04 51.09 C 35.62 50.82 46.20 51.23 56.78 50.89 C 58.71 49.11 58.28 46.21 58.88 43.83 C 59.19 49.23 58.47 57.42 51.94 58.92 C 38.41 59.03 24.85 59.29 11.32 58.70 C 5.45 56.69 4.62 48.98 5.24 43.78 Z" />
</g>
<g id="#f8f9feff">
<path fill="#f8f9fe" opacity="1.00" d=" M 16.71 44.26 L 17.77 44.14 C 19.68 44.15 23.50 44.18 25.41 44.19 C 25.31 45.91 25.13 49.37 25.04 51.09 C 22.49 52.35 19.66 51.49 16.96 51.17 C 16.90 49.44 16.77 45.99 16.71 44.26 Z" />
</g>
<g id="#00010328">
<path fill="#000103" opacity="0.16" d=" M 3.96 53.91 C 5.97 56.61 8.30 59.43 11.76 60.23 C 25.13 61.54 38.86 61.49 52.24 60.26 C 55.69 59.42 58.03 56.61 60.06 53.91 C 60.21 59.78 54.54 62.87 49.57 64.00 L 14.43 64.00 C 9.47 62.87 3.78 59.78 3.96 53.91 Z" />
</g>
<g id="#022486ce">
<path fill="#022486" opacity="0.81" d=" M 11.76 60.23 C 25.24 59.73 38.75 59.96 52.24 60.26 C 38.86 61.49 25.13 61.54 11.76 60.23 Z" />
</g>
</svg>
