<?xml version="1.0" encoding="UTF-8" ?>
<!DOCTYPE svg PUBLIC "-//W3C//DTD SVG 1.1//EN" "http://www.w3.org/Graphics/SVG/1.1/DTD/svg11.dtd">
<svg width="64pt" height="64pt" viewBox="0 0 64 64" version="1.1" xmlns="http://www.w3.org/2000/svg">
<g id="#973b08cc">
<path fill="#973b08" opacity="0.80" d=" M 6.12 7.25 C 8.75 4.11 12.96 2.91 16.94 3.03 C 27.64 3.13 38.34 2.94 49.03 3.11 C 55.33 3.16 60.83 8.63 60.93 14.92 C 61.15 25.26 60.89 35.62 61.04 45.96 C 61.18 49.04 60.53 52.05 59.59 54.96 C 59.17 55.37 58.32 56.18 57.89 56.59 C 59.43 53.63 59.90 50.30 59.78 47.01 C 59.65 35.95 60.01 24.88 59.76 13.83 C 59.90 10.44 57.39 7.75 54.82 5.92 C 52.27 4.02 48.91 4.44 45.93 4.32 C 35.59 4.43 25.24 4.28 14.90 4.38 C 9.29 4.08 3.75 9.20 4.18 14.92 C 4.09 25.97 4.29 37.02 4.24 48.06 C 4.12 51.04 4.80 53.97 6.14 56.63 C 5.71 56.22 4.86 55.40 4.43 54.99 C 3.61 52.38 2.88 49.71 2.96 46.95 C 3.02 36.95 3.00 26.96 2.97 16.96 C 2.92 13.50 3.73 9.86 6.12 7.25 Z" />
</g>
<g id="#ff8015ff">
<path fill="#ff8015" opacity="1.00" d=" M 4.18 14.92 C 3.75 9.20 9.29 4.08 14.90 4.38 C 25.24 4.28 35.59 4.43 45.93 4.32 C 48.91 4.44 52.27 4.02 54.82 5.92 C 57.39 7.75 59.90 10.44 59.76 13.83 C 60.01 24.88 59.65 35.95 59.78 47.01 C 59.90 50.30 59.43 53.63 57.89 56.59 C 55.53 58.96 52.42 60.77 48.98 60.67 C 37.66 60.72 26.33 60.72 15.01 60.67 C 11.59 60.77 8.50 58.97 6.14 56.63 C 4.80 53.97 4.12 51.04 4.24 48.06 C 4.29 37.02 4.09 25.97 4.18 14.92 M 10.74 7.82 C 8.51 9.19 7.46 11.67 6.38 13.92 C 5.31 17.05 6.55 20.63 6.49 23.92 C 6.37 26.59 9.02 27.90 10.88 29.22 C 14.21 33.19 21.13 32.70 23.49 27.96 C 27.08 25.99 30.49 22.70 34.93 23.44 C 39.68 23.71 43.01 27.62 44.86 31.66 C 49.08 29.92 55.00 29.96 57.30 25.35 C 57.50 21.61 58.63 17.50 57.61 13.90 C 56.22 9.79 52.67 6.10 48.05 6.22 C 38.71 6.00 29.37 6.22 20.02 6.12 C 16.89 6.19 13.43 5.89 10.74 7.82 M 21.87 32.83 C 19.95 35.07 16.83 36.80 16.50 39.99 C 16.87 42.35 19.55 44.18 21.84 43.10 C 23.69 41.79 25.21 40.09 26.79 38.48 C 28.70 40.63 30.78 43.38 33.96 43.35 C 38.64 43.49 43.32 43.33 47.99 43.42 C 50.01 43.37 52.55 43.69 53.79 41.68 C 55.31 39.80 54.05 36.90 51.94 36.11 C 49.01 35.71 46.05 35.87 43.11 35.86 C 43.54 30.90 40.30 25.60 35.10 25.06 C 29.31 24.07 25.58 29.37 21.87 32.83 Z" />
<path fill="#ff8015" opacity="1.00" d=" M 11.46 18.60 C 13.41 16.99 15.97 15.40 18.58 16.33 C 21.79 17.37 25.36 20.35 24.25 24.12 C 23.29 21.17 21.20 18.27 17.96 17.67 C 15.09 16.96 12.76 19.18 10.74 20.86 C 10.92 20.29 11.28 19.16 11.46 18.60 Z" />
</g>
<g id="#ffffffff">
<path fill="#ffffff" opacity="1.00" d=" M 10.74 7.82 C 13.43 5.89 16.89 6.19 20.02 6.12 C 29.37 6.22 38.71 6.00 48.05 6.22 C 52.67 6.10 56.22 9.79 57.61 13.90 C 55.14 10.99 52.19 7.81 48.06 7.77 C 41.37 7.40 34.66 7.76 27.97 7.64 C 23.34 7.74 18.67 7.26 14.08 8.05 C 10.76 8.74 8.52 11.51 6.38 13.92 C 7.46 11.67 8.51 9.19 10.74 7.82 Z" />
<path fill="#ffffff" opacity="1.00" d=" M 10.74 20.86 C 12.76 19.18 15.09 16.96 17.96 17.67 C 21.20 18.27 23.29 21.17 24.25 24.12 C 24.08 25.41 23.79 26.69 23.49 27.96 C 21.13 32.70 14.21 33.19 10.88 29.22 C 9.50 26.57 9.83 23.59 10.74 20.86 Z" />
<path fill="#ffffff" opacity="1.00" d=" M 21.87 32.83 C 25.58 29.37 29.31 24.07 35.10 25.06 C 40.30 25.60 43.54 30.90 43.11 35.86 C 46.05 35.87 49.01 35.71 51.94 36.11 C 54.05 36.90 55.31 39.80 53.79 41.68 C 52.55 43.69 50.01 43.37 47.99 43.42 C 43.32 43.33 38.64 43.49 33.96 43.35 C 30.78 43.38 28.70 40.63 26.79 38.48 C 25.21 40.09 23.69 41.79 21.84 43.10 C 19.55 44.18 16.87 42.35 16.50 39.99 C 16.83 36.80 19.95 35.07 21.87 32.83 Z" />
</g>
<g id="#ffbc59ff">
<path fill="#ffbc59" opacity="1.00" d=" M 6.38 13.92 C 8.52 11.51 10.76 8.74 14.08 8.05 C 18.67 7.26 23.34 7.74 27.97 7.64 C 34.66 7.76 41.37 7.40 48.06 7.77 C 52.19 7.81 55.14 10.99 57.61 13.90 C 58.63 17.50 57.50 21.61 57.30 25.35 C 55.00 29.96 49.08 29.92 44.86 31.66 C 43.01 27.62 39.68 23.71 34.93 23.44 C 30.49 22.70 27.08 25.99 23.49 27.96 C 23.79 26.69 24.08 25.41 24.25 24.12 C 25.36 20.35 21.79 17.37 18.58 16.33 C 15.97 15.40 13.41 16.99 11.46 18.60 C 11.28 19.16 10.92 20.29 10.74 20.86 C 9.83 23.59 9.50 26.57 10.88 29.22 C 9.02 27.90 6.37 26.59 6.49 23.92 C 6.55 20.63 5.31 17.05 6.38 13.92 Z" />
</g>
<g id="#00000023">
<path fill="#000000" opacity="0.14" d=" M 4.43 54.99 C 4.86 55.40 5.71 56.22 6.14 56.63 C 8.50 58.97 11.59 60.77 15.01 60.67 C 26.33 60.72 37.66 60.72 48.98 60.67 C 52.42 60.77 55.53 58.96 57.89 56.59 C 58.32 56.18 59.17 55.37 59.59 54.96 C 58.93 56.55 58.79 58.37 57.79 59.81 C 55.89 61.89 53.20 62.98 50.64 64.00 L 13.40 64.00 C 11.22 63.16 9.04 62.23 7.20 60.77 C 5.32 59.45 5.23 56.95 4.43 54.99 Z" />
</g>
</svg>
