<?xml version="1.0" encoding="UTF-8" ?>
<!DOCTYPE svg PUBLIC "-//W3C//DTD SVG 1.1//EN" "http://www.w3.org/Graphics/SVG/1.1/DTD/svg11.dtd">
<svg width="64pt" height="64pt" viewBox="0 0 64 64" version="1.1" xmlns="http://www.w3.org/2000/svg">
<g id="#31445ed8">
<path fill="#31445e" opacity="0.85" d=" M 12.32 3.33 C 25.42 2.77 38.58 2.77 51.68 3.33 C 54.39 4.63 58.18 6.09 58.75 9.32 C 55.84 7.51 53.16 5.28 49.91 4.08 C 37.95 3.93 25.97 3.85 14.01 4.10 C 10.80 5.33 8.13 7.53 5.25 9.32 C 5.82 6.09 9.60 4.63 12.32 3.33 Z" />
<path fill="#31445e" opacity="0.85" d=" M 3.06 12.01 L 4.02 12.04 C 4.15 24.56 3.52 37.12 4.41 49.63 C 5.14 55.01 9.69 59.19 14.98 59.98 C 26.62 60.04 38.27 60.13 49.91 59.91 C 55.57 58.60 59.46 53.64 59.95 48.01 C 60.14 36.02 59.95 24.03 59.99 12.04 L 60.96 11.99 C 61.03 23.66 61.05 35.33 60.97 47.01 C 62.03 55.07 54.00 62.55 46.02 61.02 C 35.34 60.95 24.66 61.09 13.99 60.99 C 7.09 60.04 1.71 52.97 2.98 46.02 C 3.09 34.68 2.83 23.34 3.06 12.01 Z" />
</g>
<g id="#6184a5ff">
<path fill="#6184a5" opacity="1.00" d=" M 14.01 4.10 C 25.97 3.85 37.95 3.93 49.91 4.08 C 53.16 5.28 55.84 7.51 58.75 9.32 C 59.24 10.19 59.65 11.10 59.99 12.04 C 59.95 24.03 60.14 36.02 59.95 48.01 C 59.46 53.64 55.57 58.60 49.91 59.91 C 38.27 60.13 26.62 60.04 14.98 59.98 C 9.69 59.19 5.14 55.01 4.41 49.63 C 3.52 37.12 4.15 24.56 4.02 12.04 C 4.35 11.10 4.76 10.19 5.25 9.32 C 8.13 7.53 10.80 5.33 14.01 4.10 M 15.33 6.40 C 11.87 7.24 7.55 9.06 6.89 12.94 C 4.23 16.01 6.59 21.76 6.60 25.36 C 8.00 29.34 12.48 29.90 15.98 30.90 C 16.29 33.72 14.66 40.30 19.00 38.18 C 19.53 43.68 17.93 49.68 20.19 54.92 C 21.59 55.21 23.01 54.87 24.13 53.99 C 24.58 53.99 25.48 53.97 25.93 53.97 C 25.95 51.48 25.99 46.50 26.01 44.01 C 20.57 36.00 30.46 41.53 28.98 36.97 C 29.15 34.24 29.24 31.52 29.24 28.78 C 29.95 30.18 29.72 32.66 32.00 32.01 C 38.34 35.56 36.63 30.66 37.07 28.03 C 38.96 27.85 37.64 31.07 38.26 32.25 C 36.52 36.83 33.09 40.53 30.97 44.94 C 32.72 44.97 36.22 45.02 37.97 45.04 C 38.82 47.68 35.38 54.93 39.87 53.98 C 40.99 54.87 42.40 55.22 43.81 54.91 C 46.88 50.67 41.56 41.37 51.04 44.89 C 50.90 38.61 43.18 34.91 44.62 28.01 C 46.79 25.52 45.73 29.69 46.09 31.01 C 50.54 30.96 56.07 29.38 57.71 24.74 C 58.30 21.10 58.65 16.04 57.09 12.95 C 56.25 8.49 50.98 6.75 47.01 6.03 C 36.46 6.05 25.86 5.61 15.33 6.40 Z" />
<path fill="#6184a5" opacity="1.00" d=" M 15.49 27.02 C 13.79 23.19 21.82 24.05 22.99 23.97 C 23.21 21.89 33.87 26.40 28.06 25.97 C 24.04 26.83 19.12 24.58 15.49 27.02 Z" />
<path fill="#6184a5" opacity="1.00" d=" M 39.93 25.99 C 36.15 26.27 39.44 24.56 41.07 24.02 C 42.92 23.80 47.24 26.51 42.91 26.13 C 42.16 26.10 40.67 26.03 39.93 25.99 Z" />
</g>
<g id="#f8fafbff">
<path fill="#f8fafb" opacity="1.00" d=" M 15.33 6.40 C 25.86 5.61 36.46 6.05 47.01 6.03 C 50.98 6.75 56.25 8.49 57.09 12.95 C 53.68 10.69 50.87 6.50 46.01 8.04 C 35.99 7.92 25.98 7.96 15.97 7.97 C 12.13 7.57 9.81 11.13 6.89 12.94 C 7.55 9.06 11.87 7.24 15.33 6.40 Z" />
<path fill="#f8fafb" opacity="1.00" d=" M 21.28 13.28 C 26.14 11.55 29.44 19.52 24.74 21.83 C 18.37 25.23 14.91 14.34 21.28 13.28 Z" />
<path fill="#f8fafb" opacity="1.00" d=" M 40.28 13.28 C 45.45 11.63 48.59 19.20 43.74 21.82 C 37.13 25.22 34.45 14.78 40.28 13.28 Z" />
<path fill="#f8fafb" opacity="1.00" d=" M 15.49 27.02 C 19.12 24.58 24.04 26.83 28.06 25.97 C 28.48 26.90 28.88 27.84 29.24 28.78 C 29.24 31.52 29.15 34.24 28.98 36.97 C 27.75 37.47 26.50 37.91 25.27 38.41 C 24.86 43.59 25.20 48.87 24.13 53.99 C 23.01 54.87 21.59 55.21 20.19 54.92 C 17.93 49.68 19.53 43.68 19.00 38.18 C 14.66 40.30 16.29 33.72 15.98 30.90 C 15.88 29.59 15.72 28.30 15.49 27.02 Z" />
<path fill="#f8fafb" opacity="1.00" d=" M 39.93 25.99 C 40.67 26.03 42.16 26.10 42.91 26.13 C 43.47 26.76 44.04 27.39 44.62 28.01 C 43.18 34.91 50.90 38.61 51.04 44.89 C 41.56 41.37 46.88 50.67 43.81 54.91 C 42.40 55.22 40.99 54.87 39.87 53.98 C 38.85 51.25 40.23 46.38 37.97 45.04 C 36.22 45.02 32.72 44.97 30.97 44.94 C 33.09 40.53 36.52 36.83 38.26 32.25 C 38.82 30.16 39.38 28.08 39.93 25.99 Z" />
</g>
<g id="#9bb7d1ff">
<path fill="#9bb7d1" opacity="1.00" d=" M 6.89 12.94 C 9.81 11.13 12.13 7.57 15.97 7.97 C 25.98 7.96 35.99 7.92 46.01 8.04 C 50.87 6.50 53.68 10.69 57.09 12.95 C 58.65 16.04 58.30 21.10 57.71 24.74 C 56.07 29.38 50.54 30.96 46.09 31.01 C 45.73 29.69 46.79 25.52 44.62 28.01 C 44.04 27.39 43.47 26.76 42.91 26.13 C 47.24 26.51 42.92 23.80 41.07 24.02 C 39.44 24.56 36.15 26.27 39.93 25.99 C 39.38 28.08 38.82 30.16 38.26 32.25 C 37.64 31.07 38.96 27.85 37.07 28.03 C 36.63 30.66 38.34 35.56 32.00 32.01 C 29.72 32.66 29.95 30.18 29.24 28.78 C 28.88 27.84 28.48 26.90 28.06 25.97 C 33.87 26.40 23.21 21.89 22.99 23.97 C 21.82 24.05 13.79 23.19 15.49 27.02 C 15.72 28.30 15.88 29.59 15.98 30.90 C 12.48 29.90 8.00 29.34 6.60 25.36 C 6.59 21.76 4.23 16.01 6.89 12.94 M 21.28 13.28 C 14.91 14.34 18.37 25.23 24.74 21.83 C 29.44 19.52 26.14 11.55 21.28 13.28 M 40.28 13.28 C 34.45 14.78 37.13 25.22 43.74 21.82 C 48.59 19.20 45.45 11.63 40.28 13.28 Z" />
<path fill="#9bb7d1" opacity="1.00" d=" M 25.27 38.41 C 26.50 37.91 27.75 37.47 28.98 36.97 C 30.46 41.53 20.57 36.00 26.01 44.01 C 25.99 46.50 25.95 51.48 25.93 53.97 C 25.48 53.97 24.58 53.99 24.13 53.99 C 25.20 48.87 24.86 43.59 25.27 38.41 Z" />
<path fill="#9bb7d1" opacity="1.00" d=" M 37.97 45.04 C 40.23 46.38 38.85 51.25 39.87 53.98 C 35.38 54.93 38.82 47.68 37.97 45.04 Z" />
</g>
</svg>
