<?xml version="1.0" encoding="UTF-8" ?>
<!DOCTYPE svg PUBLIC "-//W3C//DTD SVG 1.1//EN" "http://www.w3.org/Graphics/SVG/1.1/DTD/svg11.dtd">
<svg width="64pt" height="64pt" viewBox="0 0 64 64" version="1.1" xmlns="http://www.w3.org/2000/svg">
<g id="#b52d0aff">
<path fill="#b52d0a" opacity="1.00" d=" M 6.22 19.31 C 10.26 10.83 18.75 4.69 28.06 3.49 C 39.52 1.74 51.68 7.77 57.10 18.04 C 61.62 25.62 61.75 35.15 58.67 43.29 C 55.45 49.54 50.64 55.20 44.10 58.09 C 34.34 62.74 21.99 61.21 13.75 54.19 C 10.08 51.33 7.62 47.31 5.35 43.33 C 2.46 35.64 2.31 26.68 6.22 19.31 M 9.78 19.11 C 7.44 19.62 7.01 22.15 6.34 24.06 C 3.46 33.58 6.43 44.42 13.50 51.34 C 18.33 55.53 24.52 58.41 30.98 58.49 C 40.58 58.94 50.53 53.86 55.10 45.28 C 59.25 38.32 59.86 29.42 56.92 21.90 C 56.56 20.52 55.59 19.52 54.23 19.12 C 49.73 11.37 41.09 5.90 32.00 6.25 C 22.92 5.90 14.27 11.36 9.78 19.11 Z" />
</g>
<g id="#f2e0dbff">
<path fill="#f2e0db" opacity="1.00" d=" M 9.78 19.11 C 14.27 11.36 22.92 5.90 32.00 6.25 C 41.09 5.90 49.73 11.37 54.23 19.12 C 55.67 21.82 56.64 24.76 57.00 27.81 C 55.05 20.56 50.01 14.15 43.17 10.95 C 36.08 7.40 27.30 7.52 20.29 11.22 C 13.71 14.49 8.92 20.74 7.00 27.79 C 7.37 24.74 8.33 21.81 9.78 19.11 Z" />
</g>
<g id="#ee5b30ff">
<path fill="#ee5b30" opacity="1.00" d=" M 20.29 11.22 C 27.30 7.52 36.08 7.40 43.17 10.95 C 50.01 14.15 55.05 20.56 57.00 27.81 C 57.07 28.18 57.20 28.90 57.27 29.27 C 56.30 28.97 55.33 28.67 54.36 28.37 C 53.88 26.46 53.31 24.57 52.66 22.71 C 49.96 16.80 44.60 11.91 38.16 10.50 C 28.91 7.69 18.43 11.96 13.30 20.04 C 13.14 20.24 12.82 20.63 12.66 20.82 C 15.93 22.15 19.23 23.42 22.48 24.80 C 19.30 25.85 16.18 27.04 13.01 28.11 C 12.08 27.78 11.15 27.46 10.21 27.14 C 10.15 27.74 10.03 28.93 9.97 29.53 C 9.17 29.41 7.56 29.18 6.75 29.06 C 6.81 28.74 6.94 28.11 7.00 27.79 C 8.92 20.74 13.71 14.49 20.29 11.22 Z" />
</g>
<g id="#000000ff">
<path fill="#000000" opacity="1.00" d=" M 13.30 20.04 C 18.43 11.96 28.91 7.69 38.16 10.50 C 33.28 10.89 28.08 10.15 23.56 12.45 C 20.34 13.75 17.92 16.30 15.39 18.57 C 14.87 18.94 13.82 19.67 13.30 20.04 Z" />
<path fill="#000000" opacity="1.00" d=" M 23.81 14.86 C 29.99 13.84 36.25 13.96 42.44 14.87 C 42.58 16.37 42.33 17.86 41.91 19.29 C 42.03 15.54 38.19 16.59 35.74 16.57 C 34.25 14.74 31.68 14.66 30.22 16.57 C 28.00 16.62 25.38 15.82 23.80 17.90 C 23.63 17.68 23.30 17.24 23.14 17.02 C 23.30 16.48 23.64 15.40 23.81 14.86 Z" />
<path fill="#000000" opacity="1.00" d=" M 22.53 24.78 C 24.81 24.10 27.13 23.55 29.43 22.92 C 31.81 22.92 34.19 22.92 36.57 22.96 C 39.48 24.40 42.63 23.02 45.61 23.35 C 47.40 25.62 49.55 27.56 52.49 28.12 C 52.56 26.32 52.62 24.52 52.66 22.71 C 53.31 24.57 53.88 26.46 54.36 28.37 C 54.65 31.16 54.46 33.97 54.21 36.76 C 49.10 35.07 44.10 33.08 39.15 30.97 C 39.86 30.99 41.29 31.03 42.00 31.04 C 42.00 29.40 42.00 27.75 42.00 26.10 C 39.62 26.05 37.03 26.23 35.49 24.03 C 32.23 23.31 29.51 24.88 26.67 26.16 C 26.21 26.00 25.29 25.70 24.83 25.55 C 24.25 25.36 23.10 24.97 22.53 24.78 M 43.00 25.00 C 43.00 27.33 43.00 29.67 43.00 32.00 C 43.59 32.00 44.77 32.00 45.36 32.00 C 45.36 29.67 45.36 27.34 45.36 25.00 C 44.77 25.00 43.59 25.00 43.00 25.00 Z" />
<path fill="#000000" opacity="1.00" d=" M 10.21 27.14 C 11.15 27.46 12.08 27.78 13.01 28.11 C 15.72 29.11 18.41 30.17 21.11 31.19 L 21.00 32.12 C 20.99 32.48 20.99 33.19 20.99 33.55 C 22.49 34.37 24.61 34.43 25.96 33.29 C 34.63 36.34 43.17 39.77 51.71 43.17 C 48.42 48.44 43.20 52.60 37.04 53.87 C 28.73 55.82 19.56 52.38 14.43 45.59 C 10.88 41.09 9.42 35.20 9.97 29.53 C 10.03 28.93 10.15 27.74 10.21 27.14 M 19.24 37.01 C 19.66 40.33 20.06 43.66 20.46 47.00 C 22.49 47.00 24.51 47.00 26.54 47.00 C 26.94 43.66 27.34 40.33 27.76 37.00 C 24.92 37.00 22.08 37.00 19.24 37.01 Z" />
<path fill="#000000" opacity="1.00" d=" M 20.37 38.02 C 22.46 38.00 24.55 38.00 26.64 38.03 C 26.82 41.30 22.88 39.69 20.85 39.94 C 20.73 39.46 20.49 38.50 20.37 38.02 Z" />
</g>
<g id="#474747ff">
<path fill="#474747" opacity="1.00" d=" M 23.56 12.45 C 28.08 10.15 33.28 10.89 38.16 10.50 C 41.53 13.70 45.84 15.79 48.71 19.55 C 46.44 19.41 44.18 19.32 41.91 19.29 C 42.33 17.86 42.58 16.37 42.44 14.87 C 36.25 13.96 29.99 13.84 23.81 14.86 C 23.64 15.40 23.30 16.48 23.14 17.02 C 23.30 17.24 23.63 17.68 23.80 17.90 L 24.39 18.57 C 21.40 18.35 18.39 18.41 15.39 18.57 C 17.92 16.30 20.34 13.75 23.56 12.45 Z" />
</g>
<g id="#2d2d2dff">
<path fill="#2d2d2d" opacity="1.00" d=" M 38.16 10.50 C 44.60 11.91 49.96 16.80 52.66 22.71 C 52.62 24.52 52.56 26.32 52.49 28.12 C 49.55 27.56 47.40 25.62 45.61 23.35 C 42.63 23.02 39.48 24.40 36.57 22.96 C 35.80 21.90 34.84 21.04 33.70 20.39 C 36.14 18.74 39.16 19.44 41.91 19.29 C 44.18 19.32 46.44 19.41 48.71 19.55 C 45.84 15.79 41.53 13.70 38.16 10.50 Z" />
</g>
<g id="#ffffffff">
<path fill="#ffffff" opacity="1.00" d=" M 30.22 16.57 C 31.68 14.66 34.25 14.74 35.74 16.57 C 38.19 16.59 42.03 15.54 41.91 19.29 C 39.16 19.44 36.14 18.74 33.70 20.39 C 34.84 21.04 35.80 21.90 36.57 22.96 C 34.19 22.92 31.81 22.92 29.43 22.92 C 30.07 21.78 31.01 20.99 32.25 20.56 C 31.57 20.11 30.89 19.65 30.21 19.18 C 28.75 19.34 27.30 19.45 25.84 19.53 C 25.48 19.29 24.75 18.81 24.39 18.57 L 23.80 17.90 C 25.38 15.82 28.00 16.62 30.22 16.57 Z" />
<path fill="#ffffff" opacity="1.00" d=" M 26.67 26.16 C 29.51 24.88 32.23 23.31 35.49 24.03 C 37.03 26.23 39.62 26.05 42.00 26.10 C 42.00 27.75 42.00 29.40 42.00 31.04 C 41.29 31.03 39.86 30.99 39.15 30.97 C 38.97 30.90 38.59 30.76 38.40 30.69 C 34.57 28.98 30.75 27.20 26.67 26.16 Z" />
<path fill="#ffffff" opacity="1.00" d=" M 43.00 25.00 C 43.59 25.00 44.77 25.00 45.36 25.00 C 45.36 27.34 45.36 29.67 45.36 32.00 C 44.77 32.00 43.59 32.00 43.00 32.00 C 43.00 29.67 43.00 27.33 43.00 25.00 Z" />
<path fill="#ffffff" opacity="1.00" d=" M 19.24 37.01 C 22.08 37.00 24.92 37.00 27.76 37.00 C 27.34 40.33 26.94 43.66 26.54 47.00 C 24.51 47.00 22.49 47.00 20.46 47.00 C 20.06 43.66 19.66 40.33 19.24 37.01 M 20.37 38.02 C 20.49 38.50 20.73 39.46 20.85 39.94 C 22.88 39.69 26.82 41.30 26.64 38.03 C 24.55 38.00 22.46 38.00 20.37 38.02 Z" />
</g>
<g id="#da3b0cff">
<path fill="#da3b0c" opacity="1.00" d=" M 6.34 24.06 C 7.01 22.15 7.44 19.62 9.78 19.11 C 8.33 21.81 7.37 24.74 7.00 27.79 C 6.94 28.11 6.81 28.74 6.75 29.06 C 7.56 29.18 9.17 29.41 9.97 29.53 C 9.42 35.20 10.88 41.09 14.43 45.59 C 19.56 52.38 28.73 55.82 37.04 53.87 C 43.20 52.60 48.42 48.44 51.71 43.17 C 43.17 39.77 34.63 36.34 25.96 33.29 C 26.75 29.64 30.02 32.07 32.17 32.71 C 34.47 33.73 36.51 31.63 38.40 30.69 C 38.59 30.76 38.97 30.90 39.15 30.97 C 44.10 33.08 49.10 35.07 54.21 36.76 C 54.46 33.97 54.65 31.16 54.36 28.37 C 55.33 28.67 56.30 28.97 57.27 29.27 C 57.20 28.90 57.07 28.18 57.00 27.81 C 56.64 24.76 55.67 21.82 54.23 19.12 C 55.59 19.52 56.56 20.52 56.92 21.90 C 59.86 29.42 59.25 38.32 55.10 45.28 C 50.53 53.86 40.58 58.94 30.98 58.49 C 24.52 58.41 18.33 55.53 13.50 51.34 C 6.43 44.42 3.46 33.58 6.34 24.06 Z" />
</g>
<g id="#2f2f2fff">
<path fill="#2f2f2f" opacity="1.00" d=" M 13.30 20.04 C 13.82 19.67 14.87 18.94 15.39 18.57 C 18.39 18.41 21.40 18.35 24.39 18.57 C 24.75 18.81 25.48 19.29 25.84 19.53 C 27.30 19.45 28.75 19.34 30.21 19.18 C 30.89 19.65 31.57 20.11 32.25 20.56 C 31.01 20.99 30.07 21.78 29.43 22.92 C 27.13 23.55 24.81 24.10 22.53 24.78 L 22.48 24.80 C 19.23 23.42 15.93 22.15 12.66 20.82 C 12.82 20.63 13.14 20.24 13.30 20.04 Z" />
</g>
<g id="#e9390dff">
<path fill="#e9390d" opacity="1.00" d=" M 22.48 24.80 L 22.53 24.78 C 23.10 24.97 24.25 25.36 24.83 25.55 C 23.25 27.18 21.67 28.93 21.11 31.19 C 18.41 30.17 15.72 29.11 13.01 28.11 C 16.18 27.04 19.30 25.85 22.48 24.80 Z" />
</g>
<g id="#f18667ff">
<path fill="#f18667" opacity="1.00" d=" M 24.83 25.55 C 25.29 25.70 26.21 26.00 26.67 26.16 C 30.75 27.20 34.57 28.98 38.40 30.69 C 36.51 31.63 34.47 33.73 32.17 32.71 C 30.02 32.07 26.75 29.64 25.96 33.29 C 24.39 32.65 22.73 32.00 21.00 32.12 L 21.11 31.19 C 21.67 28.93 23.25 27.18 24.83 25.55 Z" />
</g>
<g id="#fafafaff">
<path fill="#fafafa" opacity="1.00" d=" M 21.00 32.12 C 22.73 32.00 24.39 32.65 25.96 33.29 C 24.61 34.43 22.49 34.37 20.99 33.55 C 20.99 33.19 20.99 32.48 21.00 32.12 Z" />
</g>
<g id="#00000026">
<path fill="#000000" opacity="0.15" d=" M 28.56 64.00 C 18.10 61.81 6.89 54.73 5.35 43.33 C 7.62 47.31 10.08 51.33 13.75 54.19 C 21.99 61.21 34.34 62.74 44.10 58.09 C 50.64 55.20 55.45 49.54 58.67 43.29 C 57.16 54.72 45.88 61.83 35.39 64.00 L 28.56 64.00 Z" />
</g>
</svg>
