<?xml version="1.0" encoding="UTF-8" ?>
<!DOCTYPE svg PUBLIC "-//W3C//DTD SVG 1.1//EN" "http://www.w3.org/Graphics/SVG/1.1/DTD/svg11.dtd">
<svg width="64pt" height="64pt" viewBox="0 0 64 64" version="1.1" xmlns="http://www.w3.org/2000/svg">
<g id="#dbdbdbff">
<path fill="#dbdbdb" opacity="1.00" d=" M 54.17 6.20 C 56.68 3.34 60.43 2.91 64.00 3.19 L 64.00 3.76 C 62.78 3.90 61.56 4.08 60.34 4.29 C 58.83 5.97 56.33 7.08 56.02 9.57 L 56.02 9.57 L 54.64 9.54 C 54.55 10.14 54.38 11.34 54.29 11.95 C 52.66 11.59 51.04 11.14 49.48 10.53 C 49.58 10.14 49.78 9.38 49.88 8.99 C 50.13 8.80 50.64 8.40 50.89 8.21 C 52.37 8.46 53.55 7.44 54.17 6.20 Z" />
<path fill="#dbdbdb" opacity="1.00" d=" M 37.42 31.38 C 37.78 31.09 38.50 30.52 38.85 30.23 C 40.89 32.58 42.86 34.98 44.93 37.30 C 44.05 36.73 43.17 36.17 42.28 35.62 C 41.26 36.90 40.20 38.16 39.04 39.32 C 40.03 37.90 40.97 36.47 41.91 35.03 C 41.18 34.42 39.72 33.22 38.99 32.61 C 37.90 33.46 36.81 34.31 35.72 35.16 C 36.51 34.35 37.30 33.54 38.10 32.74 L 37.42 31.38 Z" />
</g>
<g id="#8a8d8dff">
<path fill="#8a8d8d" opacity="1.00" d=" M 60.34 4.29 C 61.56 4.08 62.78 3.90 64.00 3.76 L 64.00 7.09 C 61.86 6.86 58.89 6.16 57.84 8.70 C 57.39 8.91 56.48 9.35 56.02 9.57 C 56.33 7.08 58.83 5.97 60.34 4.29 Z" />
</g>
<g id="#25262668">
<path fill="#252626" opacity="0.41" d=" M 50.89 8.21 C 51.11 6.66 52.69 5.68 54.17 6.20 C 53.55 7.44 52.37 8.46 50.89 8.21 Z" />
</g>
<g id="#373939d4">
<path fill="#373939" opacity="0.83" d=" M 57.84 8.70 C 58.89 6.16 61.86 6.86 64.00 7.09 L 64.00 7.59 C 62.01 8.27 59.92 8.49 57.84 8.70 Z" />
</g>
<g id="#2223239b">
<path fill="#222323" opacity="0.61" d=" M 34.33 11.50 C 39.55 10.84 45.24 12.18 49.88 8.99 C 49.78 9.38 49.58 10.14 49.48 10.53 C 47.64 11.27 45.77 11.90 43.87 12.45 C 40.66 12.59 37.45 12.24 34.33 11.50 Z" />
</g>
<g id="#12121281">
<path fill="#121212" opacity="0.51" d=" M 24.29 10.47 C 27.33 9.58 31.01 9.64 33.70 11.50 C 31.70 11.52 29.71 11.34 27.75 11.01 C 26.60 10.82 25.44 10.64 24.29 10.47 Z" />
</g>
<g id="#2f3132dc">
<path fill="#2f3132" opacity="0.86" d=" M 54.64 9.54 L 56.02 9.57 C 56.19 11.31 55.14 12.65 54.10 13.91 C 53.54 14.20 52.43 14.79 51.88 15.09 C 52.02 14.69 52.31 13.89 52.45 13.49 C 52.91 13.11 53.83 12.33 54.29 11.95 C 54.38 11.34 54.55 10.14 54.64 9.54 Z" />
</g>
<g id="#5f6060ff">
<path fill="#5f6060" opacity="1.00" d=" M 24.29 10.47 C 25.44 10.64 26.60 10.82 27.75 11.01 C 28.58 12.00 29.40 12.99 30.24 13.97 C 31.86 16.03 34.02 17.54 36.09 19.11 C 37.58 20.50 38.97 22.00 40.42 23.44 C 44.34 26.78 47.84 30.54 51.13 34.49 L 50.07 34.39 C 51.10 35.34 52.14 36.27 53.20 37.19 C 53.06 38.41 52.32 39.31 51.38 40.04 C 50.07 35.59 45.88 33.24 42.91 30.03 C 37.54 22.84 31.11 16.23 23.43 11.49 L 24.29 10.47 Z" />
<path fill="#5f6060" opacity="1.00" d=" M 44.56 20.85 C 45.77 20.28 46.97 19.71 48.17 19.13 C 49.36 22.11 48.39 25.16 46.91 27.83 C 44.54 26.23 43.97 23.48 44.56 20.85 Z" />
</g>
<g id="#c1c1c1ff">
<path fill="#c1c1c1" opacity="1.00" d=" M 27.75 11.01 C 29.71 11.34 31.70 11.52 33.70 11.50 C 33.86 11.50 34.17 11.50 34.33 11.50 C 37.45 12.24 40.66 12.59 43.87 12.45 C 44.98 12.63 46.09 12.84 47.20 13.08 C 45.64 17.03 41.09 18.98 40.42 23.44 C 38.97 22.00 37.58 20.50 36.09 19.11 C 38.02 16.99 40.99 16.57 43.11 14.75 C 38.97 13.59 34.34 11.65 30.24 13.97 C 29.40 12.99 28.58 12.00 27.75 11.01 Z" />
</g>
<g id="#a3a4a4ff">
<path fill="#a3a4a4" opacity="1.00" d=" M 43.87 12.45 C 45.77 11.90 47.64 11.27 49.48 10.53 C 49.95 11.91 50.40 13.31 50.84 14.70 C 48.18 16.10 45.19 17.60 44.56 20.85 C 43.97 23.48 44.54 26.23 46.91 27.83 C 48.29 28.30 49.69 28.71 51.08 29.13 C 51.38 30.97 51.77 32.79 52.12 34.61 L 51.13 34.49 C 47.84 30.54 44.34 26.78 40.42 23.44 C 41.09 18.98 45.64 17.03 47.20 13.08 C 46.09 12.84 44.98 12.63 43.87 12.45 Z" />
<path fill="#a3a4a4" opacity="1.00" d=" M 17.01 37.88 C 17.87 36.56 18.84 35.26 20.28 34.53 C 21.96 36.56 18.75 38.04 17.01 37.88 Z" />
</g>
<g id="#7f7f7fff">
<path fill="#7f7f7f" opacity="1.00" d=" M 49.48 10.53 C 51.04 11.14 52.66 11.59 54.29 11.95 C 53.83 12.33 52.91 13.11 52.45 13.49 C 52.31 13.89 52.02 14.69 51.88 15.09 C 50.23 19.59 50.59 24.46 51.08 29.13 C 49.69 28.71 48.29 28.30 46.91 27.83 C 48.39 25.16 49.36 22.11 48.17 19.13 C 46.97 19.71 45.77 20.28 44.56 20.85 C 45.19 17.60 48.18 16.10 50.84 14.70 C 50.40 13.31 49.95 11.91 49.48 10.53 Z" />
<path fill="#7f7f7f" opacity="1.00" d=" M 23.96 14.46 C 29.40 17.70 33.18 23.04 38.17 26.90 C 42.99 30.20 46.01 35.30 49.60 39.79 C 48.41 39.28 47.23 38.76 46.05 38.24 C 41.23 44.61 36.33 50.96 30.95 56.87 C 35.10 51.26 39.36 45.73 43.87 40.40 C 44.54 39.66 45.22 38.92 45.91 38.19 L 44.93 37.30 C 42.86 34.98 40.89 32.58 38.85 30.23 C 38.50 30.52 37.78 31.09 37.42 31.38 L 36.77 31.85 L 37.35 30.77 C 37.50 30.47 37.79 29.87 37.93 29.57 C 34.30 26.09 30.96 22.08 26.62 19.47 C 26.17 18.91 25.72 18.33 25.29 17.76 C 24.81 16.68 24.36 15.57 23.96 14.46 Z" />
</g>
<g id="#e0e0e0ff">
<path fill="#e0e0e0" opacity="1.00" d=" M 22.16 13.10 C 22.48 12.70 23.11 11.89 23.43 11.49 C 31.11 16.23 37.54 22.84 42.91 30.03 C 45.88 33.24 50.07 35.59 51.38 40.04 C 50.94 39.98 50.05 39.85 49.60 39.79 C 46.01 35.30 42.99 30.20 38.17 26.90 C 33.18 23.04 29.40 17.70 23.96 14.46 C 23.51 14.12 22.61 13.44 22.16 13.10 Z" />
<path fill="#e0e0e0" opacity="1.00" d=" M 30.24 13.97 C 34.34 11.65 38.97 13.59 43.11 14.75 C 40.99 16.57 38.02 16.99 36.09 19.11 C 34.02 17.54 31.86 16.03 30.24 13.97 Z" />
<path fill="#e0e0e0" opacity="1.00" d=" M 26.62 19.47 C 30.96 22.08 34.30 26.09 37.93 29.57 C 37.79 29.87 37.50 30.47 37.35 30.77 L 35.84 30.57 C 35.66 30.27 35.29 29.66 35.11 29.35 L 35.33 28.51 C 34.92 28.46 34.09 28.37 33.67 28.32 C 33.22 27.72 32.31 26.52 31.86 25.92 C 30.58 27.00 29.31 28.07 28.02 29.12 C 29.38 27.77 30.77 26.41 31.67 24.70 L 29.76 24.49 C 25.94 26.99 22.63 30.22 19.08 33.09 C 22.18 29.52 26.15 26.89 29.73 23.85 C 28.74 22.36 27.71 20.89 26.62 19.47 Z" />
</g>
<g id="#0e0f0f9b">
<path fill="#0e0f0f" opacity="0.61" d=" M 51.88 15.09 C 52.43 14.79 53.54 14.20 54.10 13.91 C 50.06 21.21 53.11 29.45 53.20 37.19 C 52.14 36.27 51.10 35.34 50.07 34.39 L 51.13 34.49 L 52.12 34.61 C 51.77 32.79 51.38 30.97 51.08 29.13 C 50.59 24.46 50.23 19.59 51.88 15.09 Z" />
</g>
<g id="#17555b61">
<path fill="#17555b" opacity="0.38" d=" M 12.50 27.74 C 16.83 24.50 20.94 20.98 25.29 17.76 C 25.72 18.33 26.17 18.91 26.62 19.47 C 27.71 20.89 28.74 22.36 29.73 23.85 C 26.15 26.89 22.18 29.52 19.08 33.09 C 19.38 33.45 19.98 34.17 20.28 34.53 C 18.84 35.26 17.87 36.56 17.01 37.88 C 15.40 38.86 13.80 39.87 12.21 40.88 C 10.77 41.35 9.31 41.76 7.85 42.17 C 8.86 40.81 9.89 39.47 10.92 38.12 C 10.36 37.54 9.80 36.96 9.24 36.37 C 11.83 33.91 13.82 30.95 15.31 27.71 C 14.61 27.72 13.20 27.73 12.50 27.74 Z" />
</g>
<g id="#215e6369">
<path fill="#215e63" opacity="0.41" d=" M 19.08 33.09 C 22.63 30.22 25.94 26.99 29.76 24.49 L 31.67 24.70 C 30.77 26.41 29.38 27.77 28.02 29.12 C 29.31 28.07 30.58 27.00 31.86 25.92 C 32.31 26.52 33.22 27.72 33.67 28.32 C 31.15 30.07 28.80 32.05 26.32 33.85 C 24.18 34.60 22.05 35.77 21.37 38.12 L 21.53 38.09 C 21.16 38.37 20.42 38.95 20.05 39.24 C 19.92 39.37 19.64 39.63 19.50 39.76 C 19.21 40.09 18.64 40.76 18.35 41.10 C 17.38 40.93 16.41 40.76 15.43 40.59 C 14.54 41.26 13.64 41.94 12.70 42.56 C 12.22 42.64 11.25 42.82 10.77 42.90 C 11.13 42.40 11.85 41.39 12.21 40.88 C 13.80 39.87 15.40 38.86 17.01 37.88 C 18.75 38.04 21.96 36.56 20.28 34.53 C 19.98 34.17 19.38 33.45 19.08 33.09 M 23.05 33.08 C 22.34 33.72 22.34 33.72 23.05 33.08 C 24.55 33.08 27.03 31.90 26.77 30.15 C 25.18 29.76 23.25 31.58 23.05 33.08 Z" />
</g>
<g id="#062e3135">
<path fill="#062e31" opacity="0.21" d=" M 7.46 33.19 C 8.15 30.64 10.47 29.17 12.50 27.74 C 13.20 27.73 14.61 27.72 15.31 27.71 C 13.82 30.95 11.83 33.91 9.24 36.37 C 9.80 36.96 10.36 37.54 10.92 38.12 C 9.89 39.47 8.86 40.81 7.85 42.17 C 9.31 41.76 10.77 41.35 12.21 40.88 C 11.85 41.39 11.13 42.40 10.77 42.90 C 10.60 43.16 10.26 43.66 10.09 43.92 C 11.01 44.39 11.99 44.71 13.02 44.87 L 12.74 46.15 C 12.55 47.37 12.42 48.60 12.30 49.83 C 17.29 46.36 21.69 42.11 25.98 37.82 L 24.69 37.33 C 29.04 36.10 31.50 31.84 35.11 29.35 C 35.29 29.66 35.66 30.27 35.84 30.57 C 28.25 36.83 21.37 43.95 14.64 51.13 C 14.30 51.19 13.61 51.32 13.26 51.39 C 11.45 51.69 9.60 51.61 7.80 51.24 C 8.12 50.67 8.76 49.52 9.08 48.94 C 8.48 48.78 7.28 48.46 6.68 48.30 C 5.67 44.67 5.19 40.85 6.57 37.23 C 6.17 36.98 5.36 36.47 4.96 36.22 C 6.08 35.46 7.12 34.55 7.46 33.19 Z" />
</g>
<g id="#3581868d">
<path fill="#358186" opacity="0.55" d=" M 26.32 33.85 C 28.80 32.05 31.15 30.07 33.67 28.32 C 34.09 28.37 34.92 28.46 35.33 28.51 L 35.11 29.35 C 31.50 31.84 29.04 36.10 24.69 37.33 C 24.46 37.32 23.99 37.28 23.75 37.26 C 24.60 36.12 25.45 34.97 26.32 33.85 Z" />
</g>
<g id="#4c7d8185">
<path fill="#4c7d81" opacity="0.52" d=" M 23.05 33.08 C 23.25 31.58 25.18 29.76 26.77 30.15 C 27.03 31.90 24.55 33.08 23.05 33.08 Z" />
</g>
<g id="#3e878c91">
<path fill="#3e878c" opacity="0.57" d=" M 14.64 51.13 C 21.37 43.95 28.25 36.83 35.84 30.57 L 37.35 30.77 L 36.77 31.85 C 30.33 37.37 24.68 43.74 18.13 49.12 C 17.09 49.99 15.89 50.62 14.64 51.13 Z" />
</g>
<g id="#1d474b4f">
<path fill="#1d474b" opacity="0.31" d=" M 18.13 49.12 C 24.68 43.74 30.33 37.37 36.77 31.85 L 37.42 31.38 L 38.10 32.74 C 37.30 33.54 36.51 34.35 35.72 35.16 C 35.51 35.35 35.09 35.75 34.88 35.94 C 34.65 36.17 34.18 36.63 33.94 36.87 C 33.68 37.13 33.15 37.65 32.89 37.90 C 32.64 38.17 32.15 38.69 31.90 38.95 C 31.72 39.14 31.36 39.53 31.18 39.72 C 29.24 40.45 27.62 41.80 26.79 43.73 C 26.50 44.00 25.94 44.53 25.65 44.79 C 23.93 45.55 21.94 46.72 21.96 48.87 C 23.29 48.66 24.36 47.78 25.32 46.91 C 25.44 47.26 25.67 47.97 25.79 48.32 C 24.19 50.31 21.78 52.04 21.66 54.81 C 20.83 55.70 20.03 56.63 19.21 57.53 C 19.20 55.87 19.19 54.21 19.19 52.55 C 17.97 53.61 16.74 54.66 15.55 55.76 L 14.75 56.56 C 15.23 54.81 16.02 53.18 17.06 51.70 C 15.32 52.89 13.44 53.86 11.52 54.72 C 11.96 53.89 12.83 52.22 13.26 51.39 C 13.61 51.32 14.30 51.19 14.64 51.13 C 15.89 50.62 17.09 49.99 18.13 49.12 M 20.13 50.28 C 20.70 50.83 20.70 50.83 20.13 50.28 Z" />
</g>
<g id="#6087898c">
<path fill="#608789" opacity="0.55" d=" M 23.05 33.08 C 22.34 33.72 22.34 33.72 23.05 33.08 Z" />
<path fill="#608789" opacity="0.55" d=" M 31.20 43.78 C 31.34 43.63 31.63 43.34 31.77 43.19 C 31.63 43.34 31.34 43.63 31.20 43.78 Z" />
</g>
<g id="#1c4a4e53">
<path fill="#1c4a4e" opacity="0.33" d=" M 21.37 38.12 C 22.05 35.77 24.18 34.60 26.32 33.85 C 25.45 34.97 24.60 36.12 23.75 37.26 C 23.60 37.39 23.29 37.63 23.14 37.76 C 22.73 37.84 21.93 38.00 21.53 38.09 L 21.37 38.12 Z" />
</g>
<g id="#1b646a70">
<path fill="#1b646a" opacity="0.44" d=" M 35.72 35.16 C 36.81 34.31 37.90 33.46 38.99 32.61 C 39.72 33.22 41.18 34.42 41.91 35.03 C 40.97 36.47 40.03 37.90 39.04 39.32 C 38.88 39.48 38.56 39.81 38.40 39.97 C 37.17 40.65 35.93 41.29 34.72 42.00 L 35.12 40.77 C 36.27 39.14 37.42 37.51 38.39 35.77 C 36.24 37.33 34.40 39.27 32.18 40.74 C 32.08 41.35 31.87 42.58 31.77 43.19 C 31.63 43.34 31.34 43.63 31.20 43.78 C 30.58 43.87 29.33 44.06 28.71 44.15 C 27.90 45.65 26.96 47.08 25.79 48.32 C 25.67 47.97 25.44 47.26 25.32 46.91 C 25.40 46.38 25.57 45.32 25.65 44.79 C 25.94 44.53 26.50 44.00 26.79 43.73 C 29.14 43.69 30.98 42.10 31.18 39.72 C 31.36 39.53 31.72 39.14 31.90 38.95 C 32.15 38.69 32.64 38.17 32.89 37.90 C 33.15 37.65 33.68 37.13 33.94 36.87 C 34.18 36.63 34.65 36.17 34.88 35.94 C 35.09 35.75 35.51 35.35 35.72 35.16 Z" />
</g>
<g id="#629ea1a6">
<path fill="#629ea1" opacity="0.65" d=" M 34.88 35.94 C 35.09 35.75 35.51 35.35 35.72 35.16 C 35.51 35.35 35.09 35.75 34.88 35.94 Z" />
<path fill="#629ea1" opacity="0.65" d=" M 32.89 37.90 C 33.15 37.65 33.68 37.13 33.94 36.87 C 33.68 37.13 33.15 37.65 32.89 37.90 Z" />
</g>
<g id="#01121417">
<path fill="#011214" opacity="0.09" d=" M 0.83 40.43 C 1.89 38.75 3.30 37.32 4.96 36.22 C 5.36 36.47 6.17 36.98 6.57 37.23 C 5.19 40.85 5.67 44.67 6.68 48.30 C 7.28 48.46 8.48 48.78 9.08 48.94 C 8.76 49.52 8.12 50.67 7.80 51.24 C 9.60 51.61 11.45 51.69 13.26 51.39 C 12.83 52.22 11.96 53.89 11.52 54.72 C 13.44 53.86 15.32 52.89 17.06 51.70 C 16.02 53.18 15.23 54.81 14.75 56.56 C 14.20 57.36 13.62 58.15 13.05 58.94 C 11.66 58.20 10.26 57.47 8.85 56.75 C 9.12 55.86 9.38 54.98 9.64 54.09 C 8.84 54.32 8.05 54.56 7.26 54.79 C 5.30 52.10 2.16 49.64 2.44 45.97 C 2.22 45.59 1.78 44.82 1.55 44.44 C 2.30 43.03 3.05 41.63 3.81 40.23 C 2.81 40.30 1.82 40.37 0.83 40.43 Z" />
</g>
<g id="#5e95989c">
<path fill="#5e9598" opacity="0.61" d=" M 33.94 36.87 C 34.18 36.63 34.65 36.17 34.88 35.94 C 34.65 36.17 34.18 36.63 33.94 36.87 Z" />
<path fill="#5e9598" opacity="0.61" d=" M 31.90 38.95 C 32.15 38.69 32.64 38.17 32.89 37.90 C 32.64 38.17 32.15 38.69 31.90 38.95 Z" />
<path fill="#5e9598" opacity="0.61" d=" M 31.18 39.72 C 31.36 39.53 31.72 39.14 31.90 38.95 C 31.72 39.14 31.36 39.53 31.18 39.72 Z" />
</g>
<g id="#477a7e83">
<path fill="#477a7e" opacity="0.51" d=" M 32.18 40.74 C 34.40 39.27 36.24 37.33 38.39 35.77 C 37.42 37.51 36.27 39.14 35.12 40.77 C 34.01 41.59 32.89 42.39 31.77 43.19 C 31.87 42.58 32.08 41.35 32.18 40.74 Z" />
</g>
<g id="#16373a3f">
<path fill="#16373a" opacity="0.25" d=" M 42.28 35.62 C 43.17 36.17 44.05 36.73 44.93 37.30 L 45.91 38.19 C 45.22 38.92 44.54 39.66 43.87 40.40 C 43.55 39.73 42.90 38.39 42.58 37.72 C 41.15 39.31 39.83 41.12 37.80 41.97 C 37.95 41.47 38.25 40.47 38.40 39.97 C 38.56 39.81 38.88 39.48 39.04 39.32 C 40.20 38.16 41.26 36.90 42.28 35.62 Z" />
</g>
<g id="#5b8d9093">
<path fill="#5b8d90" opacity="0.58" d=" M 23.14 37.76 C 23.29 37.63 23.60 37.39 23.75 37.26 C 23.60 37.39 23.29 37.63 23.14 37.76 Z" />
</g>
<g id="#17595f65">
<path fill="#17595f" opacity="0.40" d=" M 23.75 37.26 C 23.99 37.28 24.46 37.32 24.69 37.33 L 25.98 37.82 C 21.69 42.11 17.29 46.36 12.30 49.83 C 12.42 48.60 12.55 47.37 12.74 46.15 C 13.69 45.53 14.65 44.92 15.61 44.32 C 18.89 43.20 21.38 40.68 23.14 37.76 C 23.29 37.63 23.60 37.39 23.75 37.26 Z" />
</g>
<g id="#4774777b">
<path fill="#477477" opacity="0.48" d=" M 21.53 38.09 C 21.93 38.00 22.73 37.84 23.14 37.76 C 21.38 40.68 18.89 43.20 15.61 44.32 C 16.54 43.25 17.44 42.17 18.35 41.10 C 18.64 40.76 19.21 40.09 19.50 39.76 C 19.64 39.63 19.92 39.37 20.05 39.24 C 20.42 38.95 21.16 38.37 21.53 38.09 Z" />
</g>
<g id="#0f5a6168">
<path fill="#0f5a61" opacity="0.41" d=" M 37.80 41.97 C 39.83 41.12 41.15 39.31 42.58 37.72 C 42.90 38.39 43.55 39.73 43.87 40.40 C 41.20 39.98 40.11 43.10 38.57 44.69 C 38.38 44.01 37.99 42.65 37.80 41.97 Z" />
</g>
<g id="#56999ea2">
<path fill="#56999e" opacity="0.64" d=" M 38.40 39.97 C 38.56 39.81 38.88 39.48 39.04 39.32 C 38.88 39.48 38.56 39.81 38.40 39.97 Z" />
</g>
<g id="#123e4347">
<path fill="#123e43" opacity="0.28" d=" M 15.43 40.59 C 16.41 40.76 17.38 40.93 18.35 41.10 C 17.44 42.17 16.54 43.25 15.61 44.32 C 14.65 44.92 13.69 45.53 12.74 46.15 L 13.02 44.87 C 13.43 43.99 13.32 43.22 12.70 42.56 C 13.64 41.94 14.54 41.26 15.43 40.59 Z" />
</g>
<g id="#457a7e82">
<path fill="#457a7e" opacity="0.51" d=" M 26.79 43.73 C 27.62 41.80 29.24 40.45 31.18 39.72 C 30.98 42.10 29.14 43.69 26.79 43.73 Z" />
</g>
<g id="#38767a7f">
<path fill="#38767a" opacity="0.50" d=" M 34.72 42.00 C 35.93 41.29 37.17 40.65 38.40 39.97 C 38.25 40.47 37.95 41.47 37.80 41.97 C 35.73 43.68 33.85 45.59 32.30 47.78 C 30.23 50.74 27.49 53.12 25.14 55.84 C 26.38 50.18 31.63 46.65 34.72 42.00 Z" />
</g>
<g id="#133a3d41">
<path fill="#133a3d" opacity="0.25" d=" M 31.77 43.19 C 32.89 42.39 34.01 41.59 35.12 40.77 L 34.72 42.00 C 31.63 46.65 26.38 50.18 25.14 55.84 C 23.76 58.20 21.54 59.86 19.08 60.96 C 20.30 57.92 22.87 55.66 23.96 52.55 C 26.25 49.52 29.15 46.99 31.20 43.78 C 31.34 43.63 31.63 43.34 31.77 43.19 Z" />
</g>
<g id="#1143474c">
<path fill="#114347" opacity="0.30" d=" M 32.30 47.78 C 33.85 45.59 35.73 43.68 37.80 41.97 C 37.99 42.65 38.38 44.01 38.57 44.69 C 36.84 47.21 34.90 49.63 32.34 51.36 C 32.33 50.46 32.31 48.67 32.30 47.78 Z" />
</g>
<g id="#1c4f5357">
<path fill="#1c4f53" opacity="0.34" d=" M 10.09 43.92 C 10.26 43.66 10.60 43.16 10.77 42.90 C 11.25 42.82 12.22 42.64 12.70 42.56 C 13.32 43.22 13.43 43.99 13.02 44.87 C 11.99 44.71 11.01 44.39 10.09 43.92 Z" />
</g>
<g id="#3e696c70">
<path fill="#3e696c" opacity="0.44" d=" M 28.71 44.15 C 29.33 44.06 30.58 43.87 31.20 43.78 C 29.15 46.99 26.25 49.52 23.96 52.55 C 23.39 53.11 22.24 54.24 21.66 54.81 C 21.78 52.04 24.19 50.31 25.79 48.32 C 26.96 47.08 27.90 45.65 28.71 44.15 Z" />
</g>
<g id="#486d6f72">
<path fill="#486d6f" opacity="0.45" d=" M 21.96 48.87 C 21.94 46.72 23.93 45.55 25.65 44.79 C 25.57 45.32 25.40 46.38 25.32 46.91 C 24.36 47.78 23.29 48.66 21.96 48.87 Z" />
</g>
<g id="#52727476">
<path fill="#527274" opacity="0.46" d=" M 20.13 50.28 C 20.70 50.83 20.70 50.83 20.13 50.28 Z" />
</g>
<g id="#0b242629">
<path fill="#0b2426" opacity="0.16" d=" M 15.55 55.76 C 16.74 54.66 17.97 53.61 19.19 52.55 C 19.19 54.21 19.20 55.87 19.21 57.53 C 18.22 58.72 16.94 59.60 15.43 59.96 C 15.46 58.56 15.50 57.16 15.55 55.76 Z" />
</g>
</svg>
