<?xml version="1.0" encoding="UTF-8" ?>
<!DOCTYPE svg PUBLIC "-//W3C//DTD SVG 1.1//EN" "http://www.w3.org/Graphics/SVG/1.1/DTD/svg11.dtd">
<svg width="64pt" height="64pt" viewBox="0 0 64 64" version="1.1" xmlns="http://www.w3.org/2000/svg">
<g id="#e9e9e9ff">
<path fill="#e9e9e9" opacity="1.00" d=" M 41.57 3.76 C 47.07 4.31 53.14 2.38 58.16 5.24 C 55.11 5.93 51.98 5.83 48.89 5.78 C 46.38 5.90 43.89 6.16 41.40 6.38 C 41.44 5.73 41.52 4.41 41.57 3.76 Z" />
<path fill="#e9e9e9" opacity="1.00" d=" M 41.46 6.63 C 46.53 6.18 51.63 6.34 56.72 6.33 C 56.58 15.64 56.90 24.96 56.48 34.27 C 53.76 34.52 51.03 34.62 48.29 34.53 C 48.36 35.30 48.50 36.84 48.57 37.62 C 48.01 37.55 46.89 37.43 46.34 37.37 C 46.42 37.84 46.60 38.79 46.69 39.27 L 45.30 39.42 L 45.60 40.78 L 44.38 40.27 C 44.55 41.05 44.88 42.61 45.05 43.39 L 43.79 41.04 C 42.90 45.93 43.11 50.90 43.79 55.79 L 41.56 55.87 C 44.07 55.49 45.76 57.23 46.11 59.37 C 36.18 59.85 26.23 59.41 16.29 59.63 C 16.33 58.70 16.41 56.84 16.45 55.91 C 16.70 56.57 17.20 57.90 17.46 58.57 C 17.40 56.94 17.28 53.70 17.22 52.07 L 18.15 55.42 C 18.25 54.12 18.47 51.53 18.58 50.23 L 19.25 50.87 C 19.43 49.42 19.62 47.96 19.83 46.51 C 19.08 46.56 17.58 46.66 16.83 46.71 L 20.25 45.78 C 18.95 45.67 16.34 45.46 15.04 45.35 L 18.78 44.14 C 17.70 44.29 15.55 44.59 14.47 44.74 L 14.47 44.12 C 13.60 43.22 12.71 42.34 11.81 41.49 L 10.96 41.61 L 11.75 40.27 L 10.28 40.42 C 10.37 39.93 10.54 38.94 10.63 38.45 L 9.67 38.58 C 9.00 36.21 8.55 33.80 8.34 31.35 C 7.93 31.45 7.12 31.66 6.71 31.76 C 6.70 31.25 6.69 30.22 6.68 29.70 C 7.26 29.48 8.43 29.04 9.01 28.82 C 18.39 28.37 27.80 28.59 37.19 28.68 L 38.58 29.49 C 38.09 28.16 37.64 26.82 37.17 25.48 L 38.75 26.79 C 38.84 25.15 39.02 21.89 39.11 20.25 C 39.36 23.23 39.57 26.21 39.73 29.19 C 40.27 29.26 41.34 29.38 41.87 29.44 C 41.19 21.86 41.57 14.24 41.46 6.63 Z" />
</g>
</svg>
