<?xml version="1.0" encoding="UTF-8" ?>
<!DOCTYPE svg PUBLIC "-//W3C//DTD SVG 1.1//EN" "http://www.w3.org/Graphics/SVG/1.1/DTD/svg11.dtd">
<svg width="64pt" height="64pt" viewBox="0 0 64 64" version="1.1" xmlns="http://www.w3.org/2000/svg">
<g id="#3e5063e9">
<path fill="#3e5063" opacity="0.91" d=" M 14.76 18.80 C 18.54 19.34 22.38 19.86 25.81 21.63 C 23.26 21.72 20.71 21.59 18.16 21.37 C 18.68 23.84 19.10 26.34 19.43 28.85 C 25.67 28.80 31.91 28.81 38.15 28.85 C 38.89 27.51 39.64 26.16 40.38 24.82 C 38.37 24.50 36.37 24.16 34.35 23.86 L 34.58 22.50 C 39.69 23.28 44.83 21.90 49.92 22.79 C 48.99 23.92 48.09 25.09 47.02 26.09 C 45.32 26.51 43.56 26.24 41.84 26.21 C 40.38 29.31 42.38 32.07 43.86 34.69 C 47.26 33.20 51.12 32.00 54.77 33.35 C 57.73 34.49 60.79 35.39 64.00 35.37 L 64.00 35.78 C 63.39 36.59 62.77 37.39 62.14 38.20 C 63.01 43.46 65.14 49.30 62.22 54.30 C 59.00 60.28 50.71 62.50 44.87 59.10 C 40.42 56.76 38.48 51.58 38.49 46.77 C 41.73 46.84 44.97 46.78 48.21 46.55 C 48.20 47.49 48.20 48.43 48.20 49.37 C 45.95 49.14 43.68 49.03 41.42 48.93 C 42.21 50.71 42.97 52.50 43.86 54.23 C 45.56 52.83 47.10 51.24 48.72 49.74 C 48.76 48.52 48.78 47.30 48.80 46.08 C 42.94 45.97 37.09 46.48 31.23 46.49 C 33.04 49.14 35.57 51.05 38.52 52.25 L 38.16 53.51 C 34.08 53.62 32.18 48.93 29.06 46.89 C 29.49 45.61 29.95 44.33 30.41 43.05 C 26.46 39.43 23.03 35.16 18.46 32.29 C 21.63 36.16 26.14 39.41 26.48 44.84 C 25.43 48.99 25.09 53.73 21.90 56.93 C 17.49 61.71 9.32 61.92 4.51 57.62 C 1.92 55.57 0.80 52.35 0.00 49.27 L 0.00 45.75 C 1.10 41.47 4.06 38.07 7.83 35.90 C 7.64 35.43 7.27 34.50 7.09 34.03 C 10.36 33.14 13.74 32.81 17.12 32.86 C 17.29 28.06 17.05 23.15 14.76 18.80 M 20.89 30.95 C 24.48 34.36 28.01 37.85 31.64 41.22 C 33.41 37.76 35.24 34.33 37.13 30.93 C 31.71 30.97 26.30 30.95 20.89 30.95 M 39.91 30.68 C 37.33 35.40 34.78 40.14 32.23 44.88 C 34.49 44.85 36.75 44.81 39.01 44.76 C 38.95 41.21 40.33 37.97 42.84 35.49 C 41.85 33.90 40.88 32.29 39.91 30.68 M 44.91 35.99 C 46.89 39.03 47.98 42.54 49.99 45.57 C 50.08 43.31 50.12 41.05 50.13 38.79 L 48.64 39.54 C 48.83 37.76 47.79 36.67 46.25 35.92 C 51.99 33.94 57.68 36.44 61.90 40.30 C 58.45 34.63 50.65 32.86 44.91 35.99 M 7.01 40.51 C 8.59 42.27 10.19 43.99 11.92 45.60 C 11.98 43.31 11.98 41.02 11.94 38.73 C 10.29 39.29 8.65 39.89 7.01 40.51 M 52.05 38.78 C 52.01 41.04 52.00 43.29 52.03 45.55 C 53.63 43.93 55.18 42.26 56.71 40.58 C 55.16 39.96 53.61 39.36 52.05 38.78 M 15.57 43.22 C 16.89 43.38 18.54 41.47 17.71 40.25 C 16.29 39.89 14.89 42.01 15.57 43.22 M 15.12 46.94 C 17.45 46.98 19.78 46.99 22.11 46.96 C 21.32 45.24 20.51 43.53 19.68 41.83 C 18.12 43.50 16.60 45.20 15.12 46.94 M 42.25 44.78 C 43.84 44.84 45.44 44.91 47.04 44.98 C 46.13 43.90 45.22 42.82 44.31 41.75 C 43.61 42.75 42.93 43.76 42.25 44.78 M 3.36 47.69 C 5.72 47.83 8.03 47.25 10.32 46.74 C 8.81 44.98 7.25 43.26 5.67 41.57 C 4.63 43.50 3.80 45.55 3.36 47.69 M 53.55 46.95 C 55.84 46.99 58.14 46.99 60.43 46.96 C 59.66 45.19 58.87 43.44 58.06 41.69 C 56.49 43.39 54.96 45.13 53.55 46.95 M 3.16 49.03 C 3.87 50.88 4.63 52.71 5.45 54.52 C 7.27 52.82 8.96 50.99 10.51 49.05 C 8.06 48.99 5.61 49.00 3.16 49.03 M 15.12 49.07 C 16.62 50.88 18.20 52.63 19.82 54.34 C 20.62 52.59 21.38 50.83 22.09 49.04 C 19.77 49.01 17.44 49.02 15.12 49.07 M 53.45 49.07 C 54.94 50.94 56.55 52.70 58.21 54.41 C 58.99 52.63 59.72 50.83 60.45 49.03 C 58.11 49.01 55.78 49.01 53.45 49.07 M 6.85 55.72 C 8.55 56.32 10.25 56.91 11.96 57.49 C 11.99 55.14 11.99 52.80 11.96 50.46 C 10.19 52.14 8.51 53.92 6.85 55.72 M 13.75 50.49 C 13.68 52.79 13.70 55.09 13.72 57.39 C 15.34 56.88 16.91 56.24 18.49 55.65 C 17.01 53.84 15.41 52.13 13.75 50.49 M 45.31 55.57 C 46.89 56.20 48.47 56.86 50.03 57.55 C 50.11 55.22 50.15 52.89 50.16 50.56 C 48.51 52.20 46.90 53.87 45.31 55.57 M 52.03 50.46 C 52.00 52.79 52.01 55.13 52.05 57.46 C 53.67 56.86 55.28 56.23 56.87 55.57 C 55.30 53.83 53.69 52.12 52.03 50.46 Z" />
</g>
</svg>
