<?xml version="1.0" encoding="UTF-8" ?>
<!DOCTYPE svg PUBLIC "-//W3C//DTD SVG 1.1//EN" "http://www.w3.org/Graphics/SVG/1.1/DTD/svg11.dtd">
<svg width="64pt" height="64pt" viewBox="0 0 64 64" version="1.1" xmlns="http://www.w3.org/2000/svg">
<g id="#9c9c9bf9">
<path fill="#9c9c9b" opacity="0.98" d=" M 44.07 4.06 C 47.83 1.65 52.48 4.40 53.70 8.32 C 54.38 18.13 53.74 27.95 54.10 37.77 C 56.47 38.03 58.81 38.45 61.12 39.01 C 55.59 42.64 57.89 50.18 53.96 54.94 C 52.94 56.56 50.78 57.28 50.05 59.08 C 50.46 60.73 51.39 62.25 51.39 64.00 L 50.32 64.00 C 47.25 62.45 48.08 58.37 45.82 56.10 C 38.62 55.98 31.38 55.67 24.19 56.15 C 21.43 58.11 22.76 62.37 19.69 64.00 L 18.62 64.00 C 18.63 61.99 19.88 60.25 19.93 58.25 C 16.43 55.09 11.78 52.75 9.72 48.29 C 7.36 43.25 6.99 37.25 3.06 33.06 C 3.35 32.85 3.94 32.44 4.23 32.23 C 10.14 33.98 15.74 37.27 22.06 37.89 C 32.03 38.15 42.01 38.07 51.99 37.94 C 52.86 34.70 51.19 33.45 48.07 33.80 C 47.25 31.25 50.43 32.28 51.89 31.77 C 52.31 25.86 51.99 19.91 51.96 13.99 C 52.29 11.43 51.95 8.01 49.70 6.29 C 45.77 2.94 40.63 8.58 41.35 12.67 C 42.54 14.15 43.92 15.46 45.10 16.94 C 41.99 17.10 38.86 16.95 35.76 16.88 C 36.63 14.80 38.45 13.23 38.96 10.98 C 39.92 8.21 40.64 4.60 44.07 4.06 Z" />
</g>
</svg>
