<?xml version="1.0" encoding="UTF-8" ?>
<!DOCTYPE svg PUBLIC "-//W3C//DTD SVG 1.1//EN" "http://www.w3.org/Graphics/SVG/1.1/DTD/svg11.dtd">
<svg width="64pt" height="64pt" viewBox="0 0 64 64" version="1.1" xmlns="http://www.w3.org/2000/svg">
<g id="#787773f0">
<path fill="#787773" opacity="0.94" d=" M 41.36 5.37 C 43.72 4.02 46.64 1.94 49.37 3.59 C 52.00 4.61 53.39 7.23 54.31 9.72 C 54.02 16.54 54.04 23.37 53.87 30.20 C 53.36 27.71 52.96 25.21 52.33 22.76 C 51.68 18.13 52.90 13.19 51.33 8.72 C 51.05 7.47 50.21 6.43 49.04 5.92 C 45.29 3.49 41.40 8.38 41.16 11.97 C 42.11 13.23 44.01 15.76 44.96 17.02 L 44.25 17.31 C 41.43 17.26 38.62 17.24 35.80 17.23 L 35.03 17.10 C 38.26 13.80 39.18 9.26 41.36 5.37 Z" />
</g>
<g id="#0a0a0931">
<path fill="#0a0a09" opacity="0.19" d=" M 51.33 8.72 C 52.90 13.19 51.68 18.13 52.33 22.76 C 51.39 25.27 53.42 30.71 50.97 31.92 C 50.99 24.18 50.96 16.45 51.33 8.72 Z" />
</g>
<g id="#1616156b">
<path fill="#161615" opacity="0.42" d=" M 54.31 9.72 C 56.18 18.92 54.45 28.68 54.92 38.05 L 53.85 38.12 C 53.90 35.48 53.90 32.84 53.87 30.20 C 54.04 23.37 54.02 16.54 54.31 9.72 Z" />
</g>
<g id="#1212104e">
<path fill="#121210" opacity="0.31" d=" M 35.80 17.23 C 38.62 17.24 41.43 17.26 44.25 17.31 C 41.60 18.68 38.57 17.66 35.80 17.23 Z" />
</g>
<g id="#595856f4">
<path fill="#595856" opacity="0.96" d=" M 52.33 22.76 C 52.96 25.21 53.36 27.71 53.87 30.20 C 53.90 32.84 53.90 35.48 53.85 38.12 C 53.43 38.09 52.58 38.04 52.16 38.02 C 52.98 35.07 51.07 33.02 48.11 34.17 C 45.12 31.90 49.03 31.88 50.97 31.92 C 53.42 30.71 51.39 25.27 52.33 22.76 Z" />
</g>
<g id="#492414f8">
<path fill="#492414" opacity="0.97" d=" M 9.54 34.12 C 11.07 27.97 19.54 26.98 23.16 31.83 L 22.19 31.67 C 21.20 31.44 20.20 31.26 19.19 31.14 C 17.13 32.51 18.55 35.16 18.56 37.14 C 15.47 36.40 12.42 35.45 9.54 34.12 Z" />
</g>
<g id="#dcbda3ff">
<path fill="#dcbda3" opacity="1.00" d=" M 19.19 31.14 C 20.20 31.26 21.20 31.44 22.19 31.67 C 23.01 33.84 23.83 36.02 24.40 38.27 C 22.90 38.75 21.36 39.08 19.81 39.38 C 19.38 39.32 18.52 39.19 18.09 39.13 C 18.21 38.63 18.44 37.64 18.56 37.14 C 18.55 35.16 17.13 32.51 19.19 31.14 Z" />
</g>
<g id="#a7a6a5f5">
<path fill="#a7a6a5" opacity="0.96" d=" M 3.03 33.86 C 3.96 30.30 7.38 33.52 9.54 34.12 C 12.42 35.45 15.47 36.40 18.56 37.14 C 18.44 37.64 18.21 38.63 18.09 39.13 C 14.24 38.59 10.69 36.83 6.88 36.10 C 5.42 35.69 4.18 34.81 3.03 33.86 Z" />
</g>
<g id="#7d5d41f2">
<path fill="#7d5d41" opacity="0.95" d=" M 22.19 31.67 L 23.16 31.83 C 24.85 33.47 25.01 35.89 25.18 38.09 L 24.40 38.27 C 23.83 36.02 23.01 33.84 22.19 31.67 Z" />
</g>
<g id="#05050527">
<path fill="#050505" opacity="0.15" d=" M 48.11 34.17 C 51.07 33.02 52.98 35.07 52.16 38.02 L 51.48 37.98 C 51.12 36.08 49.76 34.97 48.11 34.17 Z" />
</g>
<g id="#6d6d6cf6">
<path fill="#6d6d6c" opacity="0.96" d=" M 6.88 36.10 C 10.69 36.83 14.24 38.59 18.09 39.13 C 18.52 39.19 19.38 39.32 19.81 39.38 C 32.87 40.54 46.02 39.96 59.12 39.94 C 57.80 39.48 55.17 38.57 53.85 38.12 L 54.92 38.05 C 56.94 38.11 61.55 37.23 60.81 40.59 C 57.95 40.75 56.89 43.51 57.01 46.03 L 56.10 45.83 C 56.06 44.58 55.98 43.33 55.86 42.08 C 54.10 42.10 50.57 42.13 48.80 42.14 C 35.67 41.91 22.24 43.20 9.65 38.45 C 6.75 36.85 8.41 40.57 8.87 42.00 C 9.43 43.70 10.19 45.32 11.01 46.91 L 10.71 47.97 L 9.77 48.28 C 7.84 44.53 7.16 40.26 6.88 36.10 Z" />
</g>
<g id="#c2c2c2ff">
<path fill="#c2c2c2" opacity="1.00" d=" M 8.87 42.00 C 8.41 40.57 6.75 36.85 9.65 38.45 C 22.24 43.20 35.67 41.91 48.80 42.14 C 50.80 42.89 56.22 41.65 54.59 44.65 C 51.10 48.06 48.10 53.00 42.38 52.47 C 35.69 52.87 28.93 52.37 22.26 51.71 C 17.81 48.46 13.71 44.71 8.87 42.00 M 15.89 42.11 C 16.93 45.09 18.60 47.38 20.91 49.00 C 22.67 51.87 27.41 50.86 29.99 51.05 C 35.89 50.81 42.05 51.66 47.75 49.75 C 49.36 48.40 49.44 46.08 49.95 44.18 C 44.22 41.89 37.73 43.36 31.75 43.27 C 26.47 42.78 21.13 43.00 15.89 42.11 Z" />
</g>
<g id="#a9a9a9fe">
<path fill="#a9a9a9" opacity="1.00" d=" M 24.40 38.27 L 25.18 38.09 L 25.91 38.17 C 34.51 39.07 43.75 40.07 52.16 38.02 C 52.58 38.04 53.43 38.09 53.85 38.12 C 55.17 38.57 57.80 39.48 59.12 39.94 C 46.02 39.96 32.87 40.54 19.81 39.38 C 21.36 39.08 22.90 38.75 24.40 38.27 Z" />
</g>
<g id="#5454549b">
<path fill="#545454" opacity="0.61" d=" M 25.91 38.17 C 34.43 37.88 42.96 38.01 51.48 37.98 L 52.16 38.02 C 43.75 40.07 34.51 39.07 25.91 38.17 Z" />
</g>
<g id="#acacacff">
<path fill="#acacac" opacity="1.00" d=" M 8.87 42.00 C 13.71 44.71 17.81 48.46 22.26 51.71 C 28.93 52.37 35.69 52.87 42.38 52.47 C 48.10 53.00 51.10 48.06 54.59 44.65 C 56.22 41.65 50.80 42.89 48.80 42.14 C 50.57 42.13 54.10 42.10 55.86 42.08 C 55.98 43.33 56.06 44.58 56.10 45.83 C 54.10 49.18 51.35 52.03 47.91 53.93 C 39.63 54.12 31.35 54.13 23.07 53.92 C 18.72 52.25 15.66 48.03 11.01 46.91 C 10.19 45.32 9.43 43.70 8.87 42.00 Z" />
</g>
<g id="#dfdfdfff">
<path fill="#dfdfdf" opacity="1.00" d=" M 15.89 42.11 C 21.13 43.00 26.47 42.78 31.75 43.27 C 36.13 43.91 40.57 43.79 44.98 44.14 C 48.17 49.34 44.03 48.90 41.61 49.52 C 34.74 50.27 27.69 50.55 20.91 49.00 C 18.60 47.38 16.93 45.09 15.89 42.11 Z" />
</g>
<g id="#d3d3d3ff">
<path fill="#d3d3d3" opacity="1.00" d=" M 31.75 43.27 C 37.73 43.36 44.22 41.89 49.95 44.18 C 49.44 46.08 49.36 48.40 47.75 49.75 C 42.05 51.66 35.89 50.81 29.99 51.05 C 27.41 50.86 22.67 51.87 20.91 49.00 C 27.69 50.55 34.74 50.27 41.61 49.52 C 44.03 48.90 48.17 49.34 44.98 44.14 C 40.57 43.79 36.13 43.91 31.75 43.27 Z" />
</g>
<g id="#878786ff">
<path fill="#878786" opacity="1.00" d=" M 47.91 53.93 C 51.35 52.03 54.10 49.18 56.10 45.83 C 55.29 49.00 54.10 52.05 53.07 55.15 C 51.47 55.77 49.92 56.64 48.18 56.79 C 45.70 53.24 40.42 56.06 37.01 54.94 C 32.29 56.09 25.48 52.70 21.82 56.86 C 16.92 56.13 14.01 51.27 10.71 47.97 L 11.01 46.91 C 15.66 48.03 18.72 52.25 23.07 53.92 C 31.35 54.13 39.63 54.12 47.91 53.93 Z" />
</g>
<g id="#414141ec">
<path fill="#414141" opacity="0.93" d=" M 56.10 45.83 L 57.01 46.03 C 57.23 49.29 55.64 52.22 53.94 54.87 L 53.07 55.15 C 54.10 52.05 55.29 49.00 56.10 45.83 Z" />
</g>
<g id="#2d2d2dec">
<path fill="#2d2d2d" opacity="0.93" d=" M 9.77 48.28 L 10.71 47.97 C 14.01 51.27 16.92 56.13 21.82 56.86 L 22.91 56.98 C 22.82 59.43 21.98 61.76 21.03 64.00 L 17.68 64.00 C 18.25 62.04 19.31 60.26 19.87 58.29 C 15.97 55.58 12.06 52.53 9.77 48.28 Z" />
</g>
<g id="#444443fb">
<path fill="#444443" opacity="1.00" d=" M 21.82 56.86 C 25.48 52.70 32.29 56.09 37.01 54.94 C 40.42 56.06 45.70 53.24 48.18 56.79 L 47.09 56.95 L 46.19 56.83 C 38.85 55.99 31.04 55.01 23.78 56.73 L 22.91 56.98 L 21.82 56.86 Z" />
</g>
<g id="#2a2a2ae7">
<path fill="#2a2a2a" opacity="0.91" d=" M 48.18 56.79 C 49.92 56.64 51.47 55.77 53.07 55.15 L 53.94 54.87 C 53.08 56.39 51.46 57.21 50.18 58.33 C 50.67 60.29 51.76 62.05 52.32 64.00 L 48.97 64.00 C 48.01 61.75 47.16 59.41 47.09 56.95 L 48.18 56.79 Z" />
</g>
<g id="#09090966">
<path fill="#090909" opacity="0.40" d=" M 23.78 56.73 C 31.04 55.01 38.85 55.99 46.19 56.83 C 38.72 57.01 31.24 57.04 23.78 56.73 Z" />
</g>
</svg>
