<?xml version="1.0" encoding="UTF-8" ?>
<!DOCTYPE svg PUBLIC "-//W3C//DTD SVG 1.1//EN" "http://www.w3.org/Graphics/SVG/1.1/DTD/svg11.dtd">
<svg width="64pt" height="64pt" viewBox="0 0 64 64" version="1.1" xmlns="http://www.w3.org/2000/svg">
<g id="#00346bcc">
<path fill="#00346b" opacity="0.80" d=" M 11.76 3.78 C 25.13 2.46 38.86 2.51 52.24 3.75 C 38.75 4.04 25.24 4.26 11.76 3.78 Z" />
</g>
<g id="#0050a1f7">
<path fill="#0050a1" opacity="0.97" d=" M 4.70 9.85 C 5.93 6.84 8.62 4.57 11.76 3.78 C 25.24 4.26 38.75 4.04 52.24 3.75 C 55.38 4.58 58.06 6.84 59.31 9.85 C 55.99 7.88 53.22 4.18 48.90 4.95 C 37.64 5.00 26.38 4.97 15.13 4.97 C 10.79 4.17 8.01 7.86 4.70 9.85 Z" />
</g>
<g id="#0566c7fe">
<path fill="#0566c7" opacity="1.00" d=" M 4.70 9.85 C 8.01 7.86 10.79 4.17 15.13 4.97 L 14.75 5.81 C 11.20 7.00 8.49 9.53 6.66 12.78 C 6.46 13.05 6.06 13.61 5.86 13.89 C 4.15 20.96 5.27 28.67 5.00 35.99 L 4.03 35.99 C 3.96 27.92 4.09 19.84 3.81 11.78 C 4.03 11.29 4.47 10.33 4.70 9.85 Z" />
<path fill="#0566c7" opacity="1.00" d=" M 48.90 4.95 C 53.22 4.18 55.99 7.88 59.31 9.85 C 59.54 10.33 60.00 11.29 60.23 11.77 C 59.96 19.84 60.03 27.92 59.97 35.99 L 59.00 36.00 C 58.27 28.78 60.48 20.65 58.11 13.88 C 57.90 13.61 57.49 13.08 57.28 12.81 C 55.43 9.67 52.87 6.74 49.21 5.81 L 48.90 4.95 Z" />
</g>
<g id="#147ed0ff">
<path fill="#147ed0" opacity="1.00" d=" M 15.13 4.97 C 26.38 4.97 37.64 5.00 48.90 4.95 L 49.21 5.81 C 37.73 6.03 26.23 6.19 14.75 5.81 L 15.13 4.97 Z" />
</g>
<g id="#c9e2f9ff">
<path fill="#c9e2f9" opacity="1.00" d=" M 6.66 12.78 C 8.49 9.53 11.20 7.00 14.75 5.81 C 26.23 6.19 37.73 6.03 49.21 5.81 C 52.87 6.74 55.43 9.67 57.28 12.81 C 54.97 11.45 53.08 9.50 50.68 8.28 C 39.12 7.69 27.54 8.06 15.97 7.97 C 12.12 7.61 9.80 11.24 6.66 12.78 Z" />
</g>
<g id="#5facf0ff">
<path fill="#5facf0" opacity="1.00" d=" M 6.66 12.78 C 9.80 11.24 12.12 7.61 15.97 7.97 C 27.54 8.06 39.12 7.69 50.68 8.28 C 53.08 9.50 54.97 11.45 57.28 12.81 C 57.49 13.08 57.90 13.61 58.11 13.88 C 58.06 14.34 57.95 15.26 57.89 15.72 C 57.59 16.34 56.99 17.58 56.69 18.20 C 56.37 16.94 56.11 15.66 55.78 14.40 C 49.81 14.87 43.82 15.02 37.84 15.02 C 33.93 14.99 30.02 15.00 26.12 15.05 C 20.15 15.06 14.19 14.90 8.24 14.49 C 7.89 15.72 7.62 16.97 7.29 18.20 C 7.01 17.58 6.44 16.34 6.16 15.72 C 6.09 15.26 5.94 14.34 5.86 13.89 C 6.06 13.61 6.46 13.05 6.66 12.78 Z" />
</g>
<g id="#002f78ce">
<path fill="#002f78" opacity="0.81" d=" M 3.74 52.22 C 2.65 38.82 2.33 25.11 3.81 11.78 C 4.09 19.84 3.96 27.92 4.03 35.99 C 3.96 41.40 4.13 46.82 3.74 52.22 Z" />
<path fill="#002f78" opacity="0.81" d=" M 60.23 11.77 C 61.64 25.12 61.35 38.82 60.28 52.22 C 60.10 46.81 60.01 41.40 59.97 35.99 C 60.03 27.92 59.96 19.84 60.23 11.77 Z" />
</g>
<g id="#0268e4ff">
<path fill="#0268e4" opacity="1.00" d=" M 5.00 35.99 C 5.27 28.67 4.15 20.96 5.86 13.89 C 5.94 14.34 6.09 15.26 6.16 15.72 C 3.96 21.85 7.23 31.15 14.90 30.05 C 14.99 27.07 14.99 24.11 15.09 21.13 C 18.09 18.42 22.77 21.07 25.01 17.02 L 25.92 16.79 C 25.15 18.37 25.15 20.68 23.16 21.26 C 22.83 21.43 22.19 21.79 21.86 21.97 C 21.45 21.88 20.64 21.70 20.23 21.61 C 16.98 19.87 14.36 25.57 15.98 27.99 C 16.89 32.61 13.05 41.76 19.90 43.19 C 19.98 39.09 20.03 34.98 20.03 30.88 C 20.51 31.19 21.47 31.82 21.95 32.13 C 21.98 34.83 22.03 40.23 22.06 42.93 L 23.02 42.98 C 29.32 43.01 35.64 43.25 41.93 42.91 C 41.96 40.21 42.01 34.82 42.04 32.13 C 42.52 31.81 43.48 31.19 43.96 30.87 C 43.95 34.95 43.99 39.03 44.08 43.11 C 45.73 43.11 46.81 41.86 47.82 40.74 C 48.12 34.82 47.98 28.90 48.05 22.99 C 48.09 22.45 48.16 21.39 48.20 20.86 L 48.88 21.27 C 48.95 24.19 48.89 27.11 49.09 30.02 C 51.76 30.34 54.55 29.37 56.25 27.26 C 59.00 24.11 57.66 19.55 57.89 15.72 C 57.95 15.26 58.06 14.34 58.11 13.88 C 60.48 20.65 58.27 28.78 59.00 36.00 C 58.93 36.44 58.80 37.32 58.74 37.76 C 57.81 40.75 57.25 43.83 56.73 46.92 C 49.37 51.52 54.59 39.09 46.95 43.99 C 44.47 43.73 42.07 43.97 39.74 44.72 C 34.57 44.91 29.38 45.23 24.22 44.76 C 20.77 45.32 12.63 40.91 12.58 46.86 C 4.77 50.34 7.32 41.75 5.25 37.76 C 5.18 37.32 5.06 36.43 5.00 35.99 Z" />
</g>
<g id="#46a0efff">
<path fill="#46a0ef" opacity="1.00" d=" M 8.24 14.49 C 14.19 14.90 20.15 15.06 26.12 15.05 C 25.84 15.54 25.29 16.53 25.01 17.02 C 22.77 21.07 18.09 18.42 15.09 21.13 C 12.81 23.00 9.72 23.02 6.97 23.79 C 7.05 22.39 7.21 19.60 7.29 18.20 C 7.62 16.97 7.89 15.72 8.24 14.49 Z" />
</g>
<g id="#459fefff">
<path fill="#459fef" opacity="1.00" d=" M 37.84 15.02 C 43.82 15.02 49.81 14.87 55.78 14.40 C 56.11 15.66 56.37 16.94 56.69 18.20 C 56.78 19.61 56.95 22.43 57.03 23.84 C 54.18 23.35 51.14 23.25 48.88 21.27 L 48.20 20.86 C 43.80 20.97 40.27 19.73 38.20 15.82 L 37.84 15.02 Z" />
</g>
<g id="#0810baff">
<path fill="#0810ba" opacity="1.00" d=" M 26.12 15.05 C 30.02 15.00 33.93 14.99 37.84 15.02 L 38.20 15.82 L 37.08 15.88 C 33.37 16.02 29.51 15.58 25.92 16.79 L 25.01 17.02 C 25.29 16.53 25.84 15.54 26.12 15.05 Z" />
</g>
<g id="#2c90ecff">
<path fill="#2c90ec" opacity="1.00" d=" M 6.16 15.72 C 6.44 16.34 7.01 17.58 7.29 18.20 C 7.21 19.60 7.05 22.39 6.97 23.79 C 9.72 23.02 12.81 23.00 15.09 21.13 C 14.99 24.11 14.99 27.07 14.90 30.05 C 7.23 31.15 3.96 21.85 6.16 15.72 Z" />
<path fill="#2c90ec" opacity="1.00" d=" M 56.69 18.20 C 56.99 17.58 57.59 16.34 57.89 15.72 C 57.66 19.55 59.00 24.11 56.25 27.26 C 54.55 29.37 51.76 30.34 49.09 30.02 C 48.89 27.11 48.95 24.19 48.88 21.27 C 51.14 23.25 54.18 23.35 57.03 23.84 C 56.95 22.43 56.78 19.61 56.69 18.20 Z" />
</g>
<g id="#feffffff">
<path fill="#feffff" opacity="1.00" d=" M 25.92 16.79 C 29.51 15.58 33.37 16.02 37.08 15.88 C 38.41 18.25 39.29 21.06 42.14 21.98 C 42.07 25.36 42.00 28.74 42.04 32.13 C 42.01 34.82 41.96 40.21 41.93 42.91 C 35.64 43.25 29.32 43.01 23.02 42.98 C 22.99 35.74 22.94 28.50 23.16 21.26 C 25.15 20.68 25.15 18.37 25.92 16.79 M 26.85 19.98 C 29.37 20.23 34.42 20.72 36.94 20.97 L 37.15 19.97 C 35.45 16.83 28.40 16.36 26.85 19.98 Z" />
</g>
<g id="#174ad7ff">
<path fill="#174ad7" opacity="1.00" d=" M 37.08 15.88 L 38.20 15.82 C 40.27 19.73 43.80 20.97 48.20 20.86 C 48.16 21.39 48.09 22.45 48.05 22.99 C 46.76 22.23 45.42 20.71 43.80 21.61 C 43.39 21.70 42.55 21.88 42.14 21.98 C 39.29 21.06 38.41 18.25 37.08 15.88 Z" />
</g>
<g id="#47a1efff">
<path fill="#47a1ef" opacity="1.00" d=" M 26.85 19.98 C 28.40 16.36 35.45 16.83 37.15 19.97 C 33.72 19.97 30.28 19.99 26.85 19.98 Z" />
</g>
<g id="#0101abff">
<path fill="#0101ab" opacity="1.00" d=" M 26.85 19.98 C 30.28 19.99 33.72 19.97 37.15 19.97 L 36.94 20.97 C 34.42 20.72 29.37 20.23 26.85 19.98 Z" />
</g>
<g id="#fdfeffff">
<path fill="#fdfeff" opacity="1.00" d=" M 15.98 27.99 C 14.36 25.57 16.98 19.87 20.23 21.61 C 20.13 24.69 20.00 27.79 20.03 30.88 C 20.03 34.98 19.98 39.09 19.90 43.19 C 13.05 41.76 16.89 32.61 15.98 27.99 Z" />
</g>
<g id="#f0f1fdff">
<path fill="#f0f1fd" opacity="1.00" d=" M 21.86 21.97 C 22.19 21.79 22.83 21.43 23.16 21.26 C 22.94 28.50 22.99 35.74 23.02 42.98 L 22.06 42.93 C 22.03 40.23 21.98 34.83 21.95 32.13 C 21.97 28.74 22.01 25.35 21.86 21.97 Z" />
</g>
<g id="#f9fafeff">
<path fill="#f9fafe" opacity="1.00" d=" M 43.80 21.61 C 45.42 20.71 46.76 22.23 48.05 22.99 C 47.98 28.90 48.12 34.82 47.82 40.74 C 46.81 41.86 45.73 43.11 44.08 43.11 C 43.99 39.03 43.95 34.95 43.96 30.87 C 43.97 27.78 43.97 24.69 43.80 21.61 Z" />
</g>
<g id="#1a85ebff">
<path fill="#1a85eb" opacity="1.00" d=" M 20.23 21.61 C 20.64 21.70 21.45 21.88 21.86 21.97 C 22.01 25.35 21.97 28.74 21.95 32.13 C 21.47 31.82 20.51 31.19 20.03 30.88 C 20.00 27.79 20.13 24.69 20.23 21.61 Z" />
</g>
<g id="#1985ebff">
<path fill="#1985eb" opacity="1.00" d=" M 42.14 21.98 C 42.55 21.88 43.39 21.70 43.80 21.61 C 43.97 24.69 43.97 27.78 43.96 30.87 C 43.48 31.19 42.52 31.81 42.04 32.13 C 42.00 28.74 42.07 25.36 42.14 21.98 Z" />
</g>
<g id="#0340c1fa">
<path fill="#0340c1" opacity="0.98" d=" M 4.03 35.99 L 5.00 35.99 C 5.06 36.43 5.18 37.32 5.25 37.76 C 5.16 39.76 5.11 41.76 5.23 43.76 C 4.08 49.26 5.28 56.67 11.32 58.71 C 24.85 59.29 38.41 59.03 51.94 58.92 C 58.68 57.34 59.55 49.60 58.91 43.81 C 58.96 41.79 58.86 39.77 58.74 37.76 C 58.80 37.32 58.93 36.44 59.00 36.00 L 59.97 35.99 C 60.01 41.40 60.10 46.81 60.28 52.22 C 60.22 52.64 60.11 53.49 60.06 53.91 C 58.02 56.61 55.70 59.43 52.24 60.25 C 38.75 59.96 25.24 59.74 11.76 60.23 C 8.30 59.44 5.97 56.61 3.96 53.91 C 3.90 53.49 3.80 52.64 3.74 52.22 C 4.13 46.82 3.96 41.40 4.03 35.99 Z" />
</g>
<g id="#055ae4ff">
<path fill="#055ae4" opacity="1.00" d=" M 5.25 37.76 C 7.32 41.75 4.77 50.34 12.58 46.86 C 12.63 40.91 20.77 45.32 24.22 44.76 C 20.80 44.85 17.38 44.85 13.97 45.10 L 14.00 46.03 C 14.08 48.95 17.82 50.31 19.95 48.32 C 21.51 50.15 23.20 49.43 24.94 48.28 C 27.00 50.87 29.51 47.65 32.00 49.51 C 34.49 47.65 37.00 50.87 39.06 48.28 C 40.80 49.43 42.49 50.15 44.05 48.32 C 46.18 50.32 49.89 48.95 50.00 46.04 C 49.31 43.22 42.58 45.79 39.74 44.72 C 42.07 43.97 44.47 43.73 46.95 43.99 C 54.59 39.09 49.37 51.52 56.73 46.92 C 57.25 43.83 57.81 40.75 58.74 37.76 C 58.86 39.77 58.96 41.79 58.91 43.81 C 58.21 47.49 58.40 53.53 53.67 54.70 C 39.49 55.23 25.25 55.13 11.07 54.88 C 5.60 54.15 6.22 47.86 5.23 43.76 C 5.11 41.76 5.16 39.76 5.25 37.76 Z" />
</g>
<g id="#0552e0ff">
<path fill="#0552e0" opacity="1.00" d=" M 5.23 43.76 C 6.22 47.86 5.60 54.15 11.07 54.88 C 25.25 55.13 39.49 55.23 53.67 54.70 C 58.40 53.53 58.21 47.49 58.91 43.81 C 59.55 49.60 58.68 57.34 51.94 58.92 C 38.41 59.03 24.85 59.29 11.32 58.71 C 5.28 56.67 4.08 49.26 5.23 43.76 Z" />
</g>
<g id="#000079ff">
<path fill="#000079" opacity="1.00" d=" M 13.97 45.10 C 17.38 44.85 20.80 44.85 24.22 44.76 C 29.38 45.23 34.57 44.91 39.74 44.72 C 42.58 45.79 49.31 43.22 50.00 46.04 C 38.00 46.00 26.00 45.95 14.00 46.03 L 13.97 45.10 Z" />
</g>
<g id="#f3f7feff">
<path fill="#f3f7fe" opacity="1.00" d=" M 14.00 46.03 C 26.00 45.95 38.00 46.00 50.00 46.04 C 49.89 48.95 46.18 50.32 44.05 48.32 C 42.49 50.15 40.80 49.43 39.06 48.28 C 37.00 50.87 34.49 47.65 32.00 49.51 C 29.51 47.65 27.00 50.87 24.94 48.28 C 23.20 49.43 21.51 50.15 19.95 48.32 C 17.82 50.31 14.08 48.95 14.00 46.03 Z" />
</g>
<g id="#00010328">
<path fill="#000103" opacity="0.16" d=" M 3.96 53.91 C 5.97 56.61 8.30 59.44 11.76 60.23 C 25.13 61.54 38.86 61.49 52.24 60.25 C 55.70 59.43 58.02 56.61 60.06 53.91 C 60.21 59.77 54.54 62.87 49.57 64.00 L 14.43 64.00 C 9.46 62.87 3.78 59.78 3.96 53.91 Z" />
</g>
<g id="#022486cf">
<path fill="#022486" opacity="0.81" d=" M 11.76 60.23 C 25.24 59.74 38.75 59.96 52.24 60.25 C 38.86 61.49 25.13 61.54 11.76 60.23 Z" />
</g>
</svg>
