<?xml version="1.0" encoding="UTF-8" ?>
<!DOCTYPE svg PUBLIC "-//W3C//DTD SVG 1.1//EN" "http://www.w3.org/Graphics/SVG/1.1/DTD/svg11.dtd">
<svg width="64pt" height="64pt" viewBox="0 0 64 64" version="1.1" xmlns="http://www.w3.org/2000/svg">
<g id="#00346ccc">
<path fill="#00346c" opacity="0.80" d=" M 11.76 3.77 C 25.13 2.46 38.86 2.51 52.24 3.75 C 38.75 4.04 25.24 4.26 11.76 3.77 Z" />
</g>
<g id="#0050a1f7">
<path fill="#0050a1" opacity="0.97" d=" M 4.70 9.85 C 5.93 6.84 8.62 4.58 11.76 3.77 C 25.24 4.26 38.75 4.04 52.24 3.75 C 55.38 4.58 58.06 6.83 59.31 9.85 C 55.99 7.89 53.23 4.17 48.91 4.95 C 37.64 5.01 26.38 4.97 15.12 4.97 C 10.78 4.16 8.01 7.87 4.70 9.85 Z" />
</g>
<g id="#0566c7fe">
<path fill="#0566c7" opacity="1.00" d=" M 4.70 9.85 C 8.01 7.87 10.78 4.16 15.12 4.97 L 14.76 5.82 C 11.20 6.98 8.49 9.53 6.67 12.78 C 6.46 13.06 6.06 13.61 5.85 13.89 C 4.14 20.95 5.31 28.66 4.99 35.97 L 4.03 36.01 C 3.97 27.93 4.10 19.85 3.80 11.77 C 4.03 11.29 4.47 10.33 4.70 9.85 Z" />
<path fill="#0566c7" opacity="1.00" d=" M 48.91 4.95 C 53.23 4.17 55.99 7.89 59.31 9.85 C 59.54 10.33 59.99 11.29 60.22 11.77 C 59.97 19.84 60.02 27.91 59.97 35.99 L 59.00 36.01 C 58.29 28.79 60.44 20.67 58.14 13.87 C 57.92 13.61 57.48 13.08 57.26 12.82 C 55.44 9.65 52.86 6.72 49.20 5.82 L 48.91 4.95 Z" />
</g>
<g id="#147ed0ff">
<path fill="#147ed0" opacity="1.00" d=" M 15.12 4.97 C 26.38 4.97 37.64 5.01 48.91 4.95 L 49.20 5.82 C 37.72 6.03 26.23 6.19 14.76 5.82 L 15.12 4.97 Z" />
</g>
<g id="#cae2f9ff">
<path fill="#cae2f9" opacity="1.00" d=" M 6.67 12.78 C 8.49 9.53 11.20 6.98 14.76 5.82 C 26.23 6.19 37.72 6.03 49.20 5.82 C 52.86 6.72 55.44 9.65 57.26 12.82 C 54.96 11.45 53.07 9.49 50.68 8.27 C 39.12 7.69 27.54 8.07 15.97 7.97 C 12.11 7.60 9.81 11.25 6.67 12.78 Z" />
</g>
<g id="#5facf0ff">
<path fill="#5facf0" opacity="1.00" d=" M 6.67 12.78 C 9.81 11.25 12.11 7.60 15.97 7.97 C 27.54 8.07 39.12 7.69 50.68 8.27 C 53.07 9.49 54.96 11.45 57.26 12.82 C 57.48 13.08 57.92 13.61 58.14 13.87 C 58.08 14.33 57.95 15.25 57.89 15.71 C 57.59 16.34 56.98 17.58 56.67 18.20 C 56.36 16.93 56.10 15.66 55.78 14.39 C 51.55 14.65 47.32 14.94 43.08 15.04 C 38.95 15.03 34.83 15.06 30.70 15.13 C 23.21 15.02 15.71 15.05 8.24 14.48 C 7.89 15.71 7.62 16.96 7.29 18.19 C 7.00 17.57 6.44 16.34 6.16 15.72 C 6.08 15.26 5.93 14.34 5.85 13.89 C 6.06 13.61 6.46 13.06 6.67 12.78 Z" />
</g>
<g id="#002f78ce">
<path fill="#002f78" opacity="0.81" d=" M 3.74 52.22 C 2.65 38.82 2.33 25.11 3.80 11.77 C 4.10 19.85 3.97 27.93 4.03 36.01 C 3.96 41.41 4.14 46.82 3.74 52.22 Z" />
<path fill="#002f78" opacity="0.81" d=" M 60.22 11.77 C 61.64 25.11 61.35 38.82 60.28 52.22 C 60.10 46.81 60.00 41.40 59.97 35.99 C 60.02 27.91 59.97 19.84 60.22 11.77 Z" />
</g>
<g id="#016ee5ff">
<path fill="#016ee5" opacity="1.00" d=" M 4.99 35.97 C 5.31 28.66 4.14 20.95 5.85 13.89 C 5.93 14.34 6.08 15.26 6.16 15.72 C 5.20 20.64 5.46 27.95 11.32 29.67 C 13.61 31.19 15.82 29.90 18.01 28.99 C 17.79 29.48 17.36 30.46 17.14 30.95 C 17.23 31.87 17.36 32.79 17.52 33.70 C 17.22 35.57 18.17 37.22 18.75 38.92 C 14.45 39.78 9.62 41.15 5.84 38.22 L 5.06 37.80 C 5.04 37.34 5.01 36.43 4.99 35.97 Z" />
</g>
<g id="#469fefff">
<path fill="#469fef" opacity="1.00" d=" M 8.24 14.48 C 15.71 15.05 23.21 15.02 30.70 15.13 L 31.14 15.93 C 32.46 18.28 34.21 21.31 37.98 19.03 C 41.92 20.38 43.60 19.38 43.03 16.02 L 43.08 15.04 C 47.32 14.94 51.55 14.65 55.78 14.39 C 56.10 15.66 56.36 16.93 56.67 18.20 C 56.79 19.64 57.01 22.51 57.12 23.95 C 53.30 20.49 47.15 23.34 43.11 19.99 C 40.32 19.97 34.73 19.93 31.94 19.91 C 32.17 20.23 32.64 20.88 32.88 21.20 C 32.87 21.93 32.85 23.38 32.84 24.10 C 29.67 22.81 20.61 27.06 23.96 18.99 C 24.35 15.17 18.42 16.38 16.17 16.01 C 14.29 18.19 15.34 21.31 14.82 23.95 C 12.23 24.09 9.65 24.09 7.06 23.94 C 7.12 22.50 7.23 19.63 7.29 18.19 C 7.62 16.96 7.89 15.71 8.24 14.48 Z" />
</g>
<g id="#006ce5ff">
<path fill="#006ce5" opacity="1.00" d=" M 58.14 13.87 C 60.44 20.67 58.29 28.79 59.00 36.01 C 58.94 36.45 58.83 37.34 58.78 37.78 C 58.14 39.82 57.60 41.90 56.75 43.87 C 53.89 43.92 51.02 44.24 48.17 43.87 C 46.26 39.56 47.37 34.64 47.03 30.07 C 50.16 31.58 54.07 29.47 56.26 27.13 C 59.08 24.06 57.63 19.50 57.89 15.71 C 57.95 15.25 58.08 14.33 58.14 13.87 Z" />
</g>
<g id="#0000b0ff">
<path fill="#0000b0" opacity="1.00" d=" M 30.70 15.13 C 34.83 15.06 38.95 15.03 43.08 15.04 L 43.03 16.02 C 39.06 16.01 35.10 15.98 31.14 15.93 L 30.70 15.13 Z" />
</g>
<g id="#2c8aeaff">
<path fill="#2c8aea" opacity="1.00" d=" M 6.16 15.72 C 6.44 16.34 7.00 17.57 7.29 18.19 C 7.23 19.63 7.12 22.50 7.06 23.94 C 9.65 24.09 12.23 24.09 14.82 23.95 C 15.34 21.31 14.29 18.19 16.17 16.01 C 18.42 16.38 24.35 15.17 23.96 18.99 C 20.61 27.06 29.67 22.81 32.84 24.10 C 34.63 27.71 38.83 27.40 42.17 26.14 C 46.80 26.51 51.97 24.75 56.26 27.13 C 54.07 29.47 50.16 31.58 47.03 30.07 C 46.82 27.33 44.82 26.64 41.03 27.99 C 38.37 28.07 33.05 28.23 30.39 28.31 C 28.46 29.82 26.95 32.21 24.21 32.06 C 22.88 31.07 21.51 30.13 20.20 29.11 C 22.94 25.70 20.66 21.78 18.03 19.18 C 21.04 19.69 26.94 16.13 17.01 17.99 C 13.63 17.51 16.33 23.57 16.27 25.67 C 17.57 26.84 18.97 27.87 20.20 29.11 C 19.66 29.08 18.56 29.02 18.01 28.99 C 15.82 29.90 13.61 31.19 11.32 29.67 C 5.46 27.95 5.20 20.64 6.16 15.72 Z" />
</g>
<g id="#ffffffff">
<path fill="#ffffff" opacity="1.00" d=" M 31.14 15.93 C 35.10 15.98 39.06 16.01 43.03 16.02 C 43.60 19.38 41.92 20.38 37.98 19.03 C 34.21 21.31 32.46 18.28 31.14 15.93 Z" />
</g>
<g id="#3293edff">
<path fill="#3293ed" opacity="1.00" d=" M 56.67 18.20 C 56.98 17.58 57.59 16.34 57.89 15.71 C 57.63 19.50 59.08 24.06 56.26 27.13 C 51.97 24.75 46.80 26.51 42.17 26.14 C 42.72 24.47 42.97 22.72 43.04 20.97 L 43.11 19.99 C 47.15 23.34 53.30 20.49 57.12 23.95 C 57.01 22.51 56.79 19.64 56.67 18.20 Z" />
</g>
<g id="#f7f9feff">
<path fill="#f7f9fe" opacity="1.00" d=" M 16.27 25.67 C 16.33 23.57 13.63 17.51 17.01 17.99 C 26.94 16.13 21.04 19.69 18.03 19.18 C 20.66 21.78 22.94 25.70 20.20 29.11 C 18.97 27.87 17.57 26.84 16.27 25.67 Z" />
</g>
<g id="#0004bfff">
<path fill="#0004bf" opacity="1.00" d=" M 31.94 19.91 C 34.73 19.93 40.32 19.97 43.11 19.99 L 43.04 20.97 C 39.64 21.00 36.26 20.98 32.88 21.20 C 32.64 20.88 32.17 20.23 31.94 19.91 Z" />
</g>
<g id="#f6fafeff">
<path fill="#f6fafe" opacity="1.00" d=" M 32.88 21.20 C 36.26 20.98 39.64 21.00 43.04 20.97 C 42.97 22.72 42.72 24.47 42.17 26.14 C 38.83 27.40 34.63 27.71 32.84 24.10 C 32.85 23.38 32.87 21.93 32.88 21.20 Z" />
</g>
<g id="#171bbbff">
<path fill="#171bbb" opacity="1.00" d=" M 30.39 28.31 C 33.05 28.23 38.37 28.07 41.03 27.99 L 40.93 29.04 C 37.96 29.03 34.99 28.81 32.04 29.12 C 29.18 30.61 26.28 36.39 22.70 32.98 C 23.08 32.75 23.83 32.29 24.21 32.06 C 26.95 32.21 28.46 29.82 30.39 28.31 Z" />
</g>
<g id="#0258e3ff">
<path fill="#0258e3" opacity="1.00" d=" M 41.03 27.99 C 44.82 26.64 46.82 27.33 47.03 30.07 C 47.37 34.64 46.26 39.56 48.17 43.87 C 51.02 44.24 53.89 43.92 56.75 43.87 C 57.60 41.90 58.14 39.82 58.78 37.78 C 58.85 41.44 59.07 45.11 58.91 48.78 C 57.15 51.65 56.45 55.78 52.67 56.70 C 39.15 57.30 25.59 57.03 12.06 56.92 C 7.87 56.30 6.86 51.91 5.11 48.78 C 5.01 45.12 5.00 41.46 5.06 37.80 L 5.84 38.22 C 6.09 41.52 4.88 45.82 8.28 47.80 C 15.40 48.08 22.55 48.30 29.66 47.84 C 30.05 46.47 29.95 44.49 31.97 45.01 L 31.99 46.00 C 31.98 47.32 32.02 48.64 32.10 49.96 C 36.72 50.00 41.35 50.24 45.96 49.91 C 45.48 43.04 47.36 35.42 44.91 28.93 C 43.61 29.86 42.44 30.95 41.26 32.02 C 41.16 31.52 40.96 30.54 40.86 30.04 L 40.93 29.04 L 41.03 27.99 Z" />
</g>
<g id="#273fceff">
<path fill="#273fce" opacity="1.00" d=" M 18.01 28.99 C 18.56 29.02 19.66 29.08 20.20 29.11 C 21.51 30.13 22.88 31.07 24.21 32.06 C 23.83 32.29 23.08 32.75 22.70 32.98 C 21.19 31.50 19.24 30.82 17.14 30.95 C 17.36 30.46 17.79 29.48 18.01 28.99 Z" />
</g>
<g id="#eff4fcff">
<path fill="#eff4fc" opacity="1.00" d=" M 32.04 29.12 C 34.99 28.81 37.96 29.03 40.93 29.04 L 40.86 30.04 C 39.73 30.72 38.73 31.58 37.97 32.67 C 36.09 35.06 34.16 37.44 32.64 40.09 C 32.43 38.53 32.02 35.42 31.81 33.87 C 29.82 35.86 28.57 38.70 26.03 40.07 C 22.95 38.30 20.38 35.80 17.52 33.70 C 17.36 32.79 17.23 31.87 17.14 30.95 C 19.24 30.82 21.19 31.50 22.70 32.98 C 26.28 36.39 29.18 30.61 32.04 29.12 Z" />
</g>
<g id="#fcfcfeff">
<path fill="#fcfcfe" opacity="1.00" d=" M 41.26 32.02 C 42.44 30.95 43.61 29.86 44.91 28.93 C 47.36 35.42 45.48 43.04 45.96 49.91 C 41.35 50.24 36.72 50.00 32.10 49.96 C 32.02 48.64 31.98 47.32 31.99 46.00 C 35.40 45.98 38.82 46.03 42.23 45.80 L 43.06 45.76 C 43.11 40.82 34.50 46.19 31.87 43.43 C 34.98 40.58 37.51 37.18 40.26 34.00 C 40.51 33.50 41.01 32.51 41.26 32.02 Z" />
</g>
<g id="#3074e3ff">
<path fill="#3074e3" opacity="1.00" d=" M 37.97 32.67 C 38.73 31.58 39.73 30.72 40.86 30.04 C 40.96 30.54 41.16 31.52 41.26 32.02 C 41.01 32.51 40.51 33.50 40.26 34.00 C 39.69 33.67 38.54 33.00 37.97 32.67 Z" />
</g>
<g id="#1742d8ff">
<path fill="#1742d8" opacity="1.00" d=" M 32.64 40.09 C 34.16 37.44 36.09 35.06 37.97 32.67 C 38.54 33.00 39.69 33.67 40.26 34.00 C 37.51 37.18 34.98 40.58 31.87 43.43 C 30.18 42.96 32.50 41.15 32.64 40.09 Z" />
</g>
<g id="#0263e5ff">
<path fill="#0263e5" opacity="1.00" d=" M 18.75 38.92 C 18.17 37.22 17.22 35.57 17.52 33.70 C 20.38 35.80 22.95 38.30 26.03 40.07 C 28.57 38.70 29.82 35.86 31.81 33.87 C 32.02 35.42 32.43 38.53 32.64 40.09 C 32.50 41.15 30.18 42.96 31.87 43.43 C 34.50 46.19 43.11 40.82 43.06 45.76 L 42.23 45.80 C 38.84 45.31 35.41 44.77 31.97 45.01 C 29.95 44.49 30.05 46.47 29.66 47.84 C 22.55 48.30 15.40 48.08 8.28 47.80 C 4.88 45.82 6.09 41.52 5.84 38.22 C 9.62 41.15 14.45 39.78 18.75 38.92 Z" />
</g>
<g id="#0340c1fa">
<path fill="#0340c1" opacity="0.98" d=" M 4.03 36.01 L 4.99 35.97 C 5.01 36.43 5.04 37.34 5.06 37.80 C 5.00 41.46 5.01 45.12 5.11 48.78 C 4.03 54.67 10.13 60.33 15.99 58.96 C 27.97 59.02 39.96 59.15 51.94 58.92 C 56.23 57.71 59.73 53.38 58.91 48.78 C 59.07 45.11 58.85 41.44 58.78 37.78 C 58.83 37.34 58.94 36.45 59.00 36.01 L 59.97 35.99 C 60.00 41.40 60.10 46.81 60.28 52.22 C 60.22 52.64 60.11 53.48 60.06 53.91 C 58.03 56.61 55.69 59.43 52.24 60.25 C 38.75 59.96 25.24 59.73 11.76 60.23 C 8.30 59.44 5.97 56.61 3.95 53.91 C 3.90 53.49 3.80 52.64 3.74 52.22 C 4.14 46.82 3.96 41.41 4.03 36.01 Z" />
</g>
<g id="#000096ff">
<path fill="#000096" opacity="1.00" d=" M 31.97 45.01 C 35.41 44.77 38.84 45.31 42.23 45.80 C 38.82 46.03 35.40 45.98 31.99 46.00 L 31.97 45.01 Z" />
</g>
<g id="#054fdfff">
<path fill="#054fdf" opacity="1.00" d=" M 5.11 48.78 C 6.86 51.91 7.87 56.30 12.06 56.92 C 25.59 57.03 39.15 57.30 52.67 56.70 C 56.45 55.78 57.15 51.65 58.91 48.78 C 59.73 53.38 56.23 57.71 51.94 58.92 C 39.96 59.15 27.97 59.02 15.99 58.96 C 10.13 60.33 4.03 54.67 5.11 48.78 Z" />
</g>
<g id="#00010328">
<path fill="#000103" opacity="0.16" d=" M 3.95 53.91 C 5.97 56.61 8.30 59.44 11.76 60.23 C 25.13 61.54 38.86 61.49 52.24 60.25 C 55.69 59.43 58.03 56.61 60.06 53.91 C 60.23 59.36 55.13 62.44 50.62 64.00 L 13.38 64.00 C 8.88 62.44 3.76 59.37 3.95 53.91 Z" />
</g>
<g id="#022486cf">
<path fill="#022486" opacity="0.81" d=" M 11.76 60.23 C 25.24 59.73 38.75 59.96 52.24 60.25 C 38.86 61.49 25.13 61.54 11.76 60.23 Z" />
</g>
</svg>
