<?xml version="1.0" encoding="UTF-8" ?>
<!DOCTYPE svg PUBLIC "-//W3C//DTD SVG 1.1//EN" "http://www.w3.org/Graphics/SVG/1.1/DTD/svg11.dtd">
<svg width="64pt" height="64pt" viewBox="0 0 64 64" version="1.1" xmlns="http://www.w3.org/2000/svg">
<g id="#021f8de1">
<path fill="#021f8d" opacity="0.88" d=" M 5.12 9.17 C 6.63 5.65 10.42 3.75 13.98 3.04 C 26.29 2.91 38.60 2.91 50.91 3.09 C 54.08 4.28 57.51 5.84 58.89 9.17 C 55.84 7.57 53.13 5.36 49.91 4.08 C 37.95 3.92 25.97 3.85 14.01 4.11 C 10.83 5.40 8.14 7.58 5.12 9.17 Z" />
<path fill="#021f8d" opacity="0.88" d=" M 3.06 16.99 C 2.03 14.18 3.53 12.00 4.75 9.83 C 2.99 23.87 4.57 38.09 3.86 52.19 L 2.99 51.93 C 2.95 40.28 2.94 28.64 3.06 16.99 Z" />
<path fill="#021f8d" opacity="0.88" d=" M 59.26 9.83 C 60.21 11.40 61.21 13.06 61.03 14.97 C 61.02 27.30 61.02 39.62 61.04 51.94 L 60.13 52.17 C 59.71 38.06 60.56 23.91 59.26 9.83 Z" />
<path fill="#021f8d" opacity="0.88" d=" M 21.97 14.03 C 21.24 10.73 27.74 10.62 28.27 13.68 C 26.18 12.91 24.01 13.31 21.97 14.03 Z" />
<path fill="#021f8d" opacity="0.88" d=" M 29.87 15.60 C 30.36 15.42 31.32 15.07 31.80 14.89 C 35.29 14.93 38.78 14.81 42.27 14.73 L 43.13 14.95 C 43.21 17.12 43.04 20.63 39.93 19.96 C 40.65 19.01 41.39 18.07 42.03 17.06 C 38.40 15.03 33.77 16.65 29.87 15.60 Z" />
<path fill="#021f8d" opacity="0.88" d=" M 17.16 23.10 C 18.90 23.06 22.39 22.97 24.14 22.92 C 24.80 22.91 26.14 22.87 26.81 22.85 C 27.54 22.81 29.00 22.74 29.73 22.70 C 35.20 23.25 40.69 22.86 46.18 22.76 L 46.93 23.02 C 47.26 24.05 47.59 25.09 47.90 26.14 C 46.96 25.60 46.10 24.94 45.11 24.49 C 36.42 24.00 27.58 23.30 18.92 24.41 C 17.93 24.91 17.04 25.58 16.08 26.14 C 16.42 25.12 16.78 24.11 17.16 23.10 Z" />
<path fill="#021f8d" opacity="0.88" d=" M 36.13 30.85 C 39.43 30.44 42.57 30.51 42.88 34.15 C 41.87 33.69 41.03 32.66 39.84 32.76 L 39.11 32.71 C 38.79 32.59 38.16 32.34 37.84 32.22 C 37.41 31.87 36.55 31.19 36.13 30.85 Z" />
<path fill="#021f8d" opacity="0.88" d=" M 17.72 48.20 C 27.09 47.84 36.47 48.10 45.84 47.89 C 45.71 48.23 45.45 48.89 45.33 49.23 C 36.75 49.51 27.01 47.71 19.08 49.99 L 18.61 50.68 L 18.04 51.11 C 17.96 50.38 17.80 48.93 17.72 48.20 Z" />
<path fill="#021f8d" opacity="0.88" d=" M 5.10 54.99 C 7.29 54.87 9.17 56.74 8.98 58.94 C 7.18 58.26 5.71 56.84 5.10 54.99 Z" />
<path fill="#021f8d" opacity="0.88" d=" M 55.02 58.94 C 54.83 56.74 56.71 54.86 58.90 54.99 C 58.30 56.84 56.82 58.25 55.02 58.94 Z" />
<path fill="#021f8d" opacity="0.88" d=" M 11.77 60.20 C 25.25 59.77 38.75 59.97 52.23 60.23 C 38.89 61.52 25.10 61.56 11.77 60.20 Z" />
</g>
<g id="#035ddeff">
<path fill="#035dde" opacity="1.00" d=" M 14.01 4.11 C 25.97 3.85 37.95 3.92 49.91 4.08 C 53.13 5.36 55.84 7.57 58.89 9.17 L 59.26 9.83 C 60.56 23.91 59.71 38.06 60.13 52.17 C 59.75 53.12 59.34 54.06 58.90 54.99 C 56.71 54.86 54.83 56.74 55.02 58.94 C 54.12 59.43 53.19 59.86 52.23 60.23 C 38.75 59.97 25.25 59.77 11.77 60.20 C 10.81 59.84 9.88 59.42 8.98 58.94 C 9.17 56.74 7.29 54.87 5.10 54.99 C 4.66 54.06 4.25 53.13 3.86 52.19 C 4.57 38.09 2.99 23.87 4.75 9.83 L 5.12 9.17 C 8.14 7.58 10.83 5.40 14.01 4.11 M 13.85 6.06 C 14.17 6.53 14.79 7.47 15.11 7.94 C 13.61 7.91 12.32 8.78 10.98 9.31 C 8.76 8.08 6.90 11.34 7.48 13.18 C 6.22 13.65 5.83 14.49 6.32 15.72 C 6.00 19.53 5.03 24.13 7.76 27.25 C 9.49 29.49 12.46 29.92 14.94 30.90 C 15.39 28.20 13.46 23.42 17.16 23.10 C 16.78 24.11 16.42 25.12 16.08 26.14 L 16.33 26.77 C 15.43 34.79 16.21 42.91 16.04 50.96 C 16.54 51.00 17.54 51.07 18.04 51.11 L 18.61 50.68 C 27.37 51.61 36.24 50.72 45.04 51.00 L 46.14 51.12 C 46.58 51.08 47.48 50.98 47.93 50.94 C 48.18 42.89 48.13 34.82 47.67 26.78 L 47.90 26.14 C 47.59 25.09 47.26 24.05 46.93 23.02 C 51.40 23.34 46.26 31.37 51.02 30.01 C 57.78 29.57 59.55 21.10 57.68 15.72 C 58.08 14.65 57.77 13.85 56.76 13.32 C 56.32 10.64 54.41 7.93 51.80 7.14 C 49.36 6.11 46.79 5.12 44.01 5.99 C 33.96 6.00 23.91 5.93 13.85 6.06 Z" />
<path fill="#035dde" opacity="1.00" d=" M 29.73 22.70 C 35.14 21.79 40.80 21.48 46.18 22.76 C 40.69 22.86 35.20 23.25 29.73 22.70 Z" />
<path fill="#035dde" opacity="1.00" d=" M 17.98 28.69 C 20.06 33.87 25.57 27.40 29.42 28.81 C 28.45 30.07 27.64 31.56 26.08 32.17 C 24.04 35.85 25.09 41.42 25.06 45.94 L 26.01 46.00 C 30.01 46.10 34.00 46.10 37.99 45.99 L 38.95 45.93 C 39.06 41.53 39.00 37.12 39.11 32.71 L 39.84 32.76 C 39.98 37.16 39.81 41.57 40.07 45.97 C 40.80 45.98 42.25 45.99 42.98 45.99 C 43.17 42.03 43.14 38.09 42.88 34.15 C 42.57 30.51 39.43 30.44 36.13 30.85 C 35.73 30.34 34.95 29.33 34.56 28.83 C 38.41 27.37 43.93 33.87 46.03 28.70 C 45.79 35.09 46.39 41.51 45.84 47.89 C 36.47 48.10 27.09 47.84 17.72 48.20 C 18.17 41.71 18.02 35.19 17.98 28.69 M 23.40 32.43 C 18.76 35.34 21.76 41.58 21.02 45.99 C 21.75 45.99 23.21 45.98 23.94 45.98 C 24.16 41.29 23.97 36.58 23.97 31.89 L 23.40 32.43 Z" />
</g>
<g id="#c5daf8ff">
<path fill="#c5daf8" opacity="1.00" d=" M 13.85 6.06 C 23.91 5.93 33.96 6.00 44.01 5.99 C 46.79 5.12 49.36 6.11 51.80 7.14 C 51.90 7.53 52.12 8.31 52.23 8.70 C 39.91 7.27 27.47 8.32 15.11 7.94 C 14.79 7.47 14.17 6.53 13.85 6.06 Z" />
<path fill="#c5daf8" opacity="1.00" d=" M 51.80 7.14 C 54.41 7.93 56.32 10.64 56.76 13.32 C 55.03 12.01 53.71 10.26 52.23 8.70 C 52.12 8.31 51.90 7.53 51.80 7.14 Z" />
<path fill="#c5daf8" opacity="1.00" d=" M 7.48 13.18 C 6.90 11.34 8.76 8.08 10.98 9.31 C 9.90 10.66 9.14 12.43 7.48 13.18 Z" />
<path fill="#c5daf8" opacity="1.00" d=" M 33.88 19.69 C 30.63 16.56 41.63 16.22 38.10 19.79 C 36.70 19.56 35.29 19.48 33.88 19.69 Z" />
<path fill="#c5daf8" opacity="1.00" d=" M 16.08 26.14 C 17.04 25.58 17.93 24.91 18.92 24.41 C 27.62 25.26 36.40 25.28 45.11 24.49 C 46.10 24.94 46.96 25.60 47.90 26.14 L 47.67 26.78 C 47.51 27.13 47.17 27.84 47.00 28.19 L 46.34 27.69 C 45.90 27.35 45.03 26.67 44.59 26.34 C 36.44 25.72 28.26 25.90 20.10 26.08 C 19.18 26.42 18.37 26.96 17.67 27.68 L 17.01 28.19 C 16.84 27.84 16.50 27.13 16.33 26.77 L 16.08 26.14 Z" />
<path fill="#c5daf8" opacity="1.00" d=" M 25.06 45.94 C 25.09 41.42 24.04 35.85 26.08 32.17 C 25.92 36.77 26.03 41.39 26.01 46.00 L 25.06 45.94 Z" />
<path fill="#c5daf8" opacity="1.00" d=" M 37.84 32.22 C 38.16 32.34 38.79 32.59 39.11 32.71 C 39.00 37.12 39.06 41.53 38.95 45.93 L 37.99 45.99 C 38.01 41.40 37.97 36.81 37.84 32.22 Z" />
</g>
<g id="#64a8eeff">
<path fill="#64a8ee" opacity="1.00" d=" M 10.98 9.31 C 12.32 8.78 13.61 7.91 15.11 7.94 C 27.47 8.32 39.91 7.27 52.23 8.70 C 53.71 10.26 55.03 12.01 56.76 13.32 C 57.77 13.85 58.08 14.65 57.68 15.72 C 57.38 17.06 57.14 18.42 56.89 19.77 C 52.96 16.40 45.95 20.19 43.13 14.95 L 42.27 14.73 C 38.75 13.72 35.27 13.77 31.80 14.89 C 31.32 15.07 30.36 15.42 29.87 15.60 C 29.09 15.33 28.56 14.69 28.27 13.68 C 27.74 10.62 21.24 10.73 21.97 14.03 C 21.69 14.63 21.13 15.82 20.85 16.42 C 20.73 14.88 20.78 13.34 20.71 11.80 C 19.54 13.61 19.08 15.71 18.60 17.78 C 14.91 18.81 9.87 16.33 7.11 19.81 C 6.86 18.44 6.63 17.07 6.32 15.72 C 5.83 14.49 6.22 13.65 7.48 13.18 C 9.14 12.43 9.90 10.66 10.98 9.31 Z" />
<path fill="#64a8ee" opacity="1.00" d=" M 17.01 28.19 L 17.67 27.68 L 17.98 28.69 C 18.02 35.19 18.17 41.71 17.72 48.20 C 15.90 41.72 17.48 34.81 17.01 28.19 Z" />
<path fill="#64a8ee" opacity="1.00" d=" M 46.34 27.69 L 47.00 28.19 C 46.86 35.83 47.58 43.56 46.14 51.12 L 45.04 51.00 L 45.03 50.03 L 45.33 49.23 C 45.45 48.89 45.71 48.23 45.84 47.89 C 46.39 41.51 45.79 35.09 46.03 28.70 L 46.34 27.69 Z" />
<path fill="#64a8ee" opacity="1.00" d=" M 19.08 49.99 C 27.01 47.71 36.75 49.51 45.33 49.23 L 45.03 50.03 C 36.38 50.00 27.73 49.99 19.08 49.99 Z" />
</g>
<g id="#3193ecff">
<path fill="#3193ec" opacity="1.00" d=" M 18.60 17.78 C 19.08 15.71 19.54 13.61 20.71 11.80 C 20.78 13.34 20.73 14.88 20.85 16.42 C 20.56 19.26 21.35 21.78 24.14 22.92 C 22.39 22.97 18.90 23.06 17.16 23.10 C 13.46 23.42 15.39 28.20 14.94 30.90 C 12.46 29.92 9.49 29.49 7.76 27.25 C 5.03 24.13 6.00 19.53 6.32 15.72 C 6.63 17.07 6.86 18.44 7.11 19.81 C 9.87 16.33 14.91 18.81 18.60 17.78 Z" />
<path fill="#3193ec" opacity="1.00" d=" M 31.80 14.89 C 35.27 13.77 38.75 13.72 42.27 14.73 C 38.78 14.81 35.29 14.93 31.80 14.89 Z" />
<path fill="#3193ec" opacity="1.00" d=" M 43.13 14.95 C 45.95 20.19 52.96 16.40 56.89 19.77 C 57.14 18.42 57.38 17.06 57.68 15.72 C 59.55 21.10 57.78 29.57 51.02 30.01 C 46.26 31.37 51.40 23.34 46.93 23.02 L 46.18 22.76 C 40.80 21.48 35.14 21.79 29.73 22.70 C 29.00 22.74 27.54 22.81 26.81 22.85 C 28.90 21.24 31.14 19.75 33.88 19.69 C 35.29 19.48 36.70 19.56 38.10 19.79 C 38.56 19.83 39.47 19.92 39.93 19.96 C 43.04 20.63 43.21 17.12 43.13 14.95 Z" />
<path fill="#3193ec" opacity="1.00" d=" M 17.67 27.68 C 18.37 26.96 19.18 26.42 20.10 26.08 C 28.26 25.90 36.44 25.72 44.59 26.34 C 45.03 26.67 45.90 27.35 46.34 27.69 L 46.03 28.70 C 43.93 33.87 38.41 27.37 34.56 28.83 C 32.85 28.91 31.13 28.91 29.42 28.81 C 25.57 27.40 20.06 33.87 17.98 28.69 L 17.67 27.68 Z" />
</g>
<g id="#fefeffff">
<path fill="#fefeff" opacity="1.00" d=" M 21.97 14.03 C 24.01 13.31 26.18 12.91 28.27 13.68 C 28.56 14.69 29.09 15.33 29.87 15.60 C 33.77 16.65 38.40 15.03 42.03 17.06 C 41.39 18.07 40.65 19.01 39.93 19.96 C 39.47 19.92 38.56 19.83 38.10 19.79 C 41.63 16.22 30.63 16.56 33.88 19.69 C 31.14 19.75 28.90 21.24 26.81 22.85 C 26.14 22.87 24.80 22.91 24.14 22.92 C 21.35 21.78 20.56 19.26 20.85 16.42 C 21.13 15.82 21.69 14.63 21.97 14.03 Z" />
<path fill="#fefeff" opacity="1.00" d=" M 18.92 24.41 C 27.58 23.30 36.42 24.00 45.11 24.49 C 36.40 25.28 27.62 25.26 18.92 24.41 Z" />
<path fill="#fefeff" opacity="1.00" d=" M 16.33 26.77 C 16.50 27.13 16.84 27.84 17.01 28.19 C 17.48 34.81 15.90 41.72 17.72 48.20 C 17.80 48.93 17.96 50.38 18.04 51.11 C 17.54 51.07 16.54 51.00 16.04 50.96 C 16.21 42.91 15.43 34.79 16.33 26.77 Z" />
<path fill="#fefeff" opacity="1.00" d=" M 47.00 28.19 C 47.17 27.84 47.51 27.13 47.67 26.78 C 48.13 34.82 48.18 42.89 47.93 50.94 C 47.48 50.98 46.58 51.08 46.14 51.12 C 47.58 43.56 46.86 35.83 47.00 28.19 Z" />
<path fill="#fefeff" opacity="1.00" d=" M 29.42 28.81 C 31.13 28.91 32.85 28.91 34.56 28.83 C 34.95 29.33 35.73 30.34 36.13 30.85 C 36.55 31.19 37.41 31.87 37.84 32.22 C 37.97 36.81 38.01 41.40 37.99 45.99 C 34.00 46.10 30.01 46.10 26.01 46.00 C 26.03 41.39 25.92 36.77 26.08 32.17 C 27.64 31.56 28.45 30.07 29.42 28.81 Z" />
<path fill="#fefeff" opacity="1.00" d=" M 23.40 32.43 L 23.97 31.89 C 23.97 36.58 24.16 41.29 23.94 45.98 C 23.21 45.98 21.75 45.99 21.02 45.99 C 21.76 41.58 18.76 35.34 23.40 32.43 Z" />
<path fill="#fefeff" opacity="1.00" d=" M 39.84 32.76 C 41.03 32.66 41.87 33.69 42.88 34.15 C 43.14 38.09 43.17 42.03 42.98 45.99 C 42.25 45.99 40.80 45.98 40.07 45.97 C 39.81 41.57 39.98 37.16 39.84 32.76 Z" />
<path fill="#fefeff" opacity="1.00" d=" M 19.08 49.99 C 27.73 49.99 36.38 50.00 45.03 50.03 L 45.04 51.00 C 36.24 50.72 27.37 51.61 18.61 50.68 L 19.08 49.99 Z" />
</g>
<g id="#0002062b">
<path fill="#000206" opacity="0.17" d=" M 2.99 51.93 L 3.86 52.19 C 4.25 53.13 4.66 54.06 5.10 54.99 C 5.71 56.84 7.18 58.26 8.98 58.94 C 9.88 59.42 10.81 59.84 11.77 60.20 C 25.10 61.56 38.89 61.52 52.23 60.23 C 53.19 59.86 54.12 59.43 55.02 58.94 C 56.82 58.25 58.30 56.84 58.90 54.99 C 59.34 54.06 59.75 53.12 60.13 52.17 L 61.04 51.94 C 60.94 58.44 55.52 62.89 49.57 64.00 L 14.43 64.00 C 8.49 62.89 3.03 58.43 2.99 51.93 Z" />
</g>
</svg>
