<?xml version="1.0" encoding="UTF-8" ?>
<!DOCTYPE svg PUBLIC "-//W3C//DTD SVG 1.1//EN" "http://www.w3.org/Graphics/SVG/1.1/DTD/svg11.dtd">
<svg width="64pt" height="64pt" viewBox="0 0 64 64" version="1.1" xmlns="http://www.w3.org/2000/svg">
<g id="#373737ff">
<path fill="#373737" opacity="1.00" d=" M 3.28 16.22 C 10.76 16.18 18.24 16.18 25.72 16.22 C 25.73 17.96 25.75 19.71 25.77 21.45 C 23.02 21.52 20.26 21.54 17.51 21.52 C 17.53 29.25 17.43 36.97 17.48 44.70 C 15.50 44.70 13.51 44.71 11.52 44.71 C 11.56 36.98 11.47 29.25 11.49 21.53 C 8.74 21.53 5.99 21.51 3.24 21.48 C 3.26 19.73 3.27 17.97 3.28 16.22 Z" />
<path fill="#373737" opacity="1.00" d=" M 30.61 16.19 C 33.35 16.18 36.10 16.19 38.85 16.23 C 40.95 22.93 43.16 29.59 45.03 36.35 C 46.97 29.62 48.94 22.91 50.96 16.20 C 53.64 16.20 56.31 16.19 58.99 16.19 C 59.05 25.71 58.95 35.23 58.91 44.75 C 57.18 44.73 55.45 44.71 53.73 44.70 C 53.59 38.00 53.94 31.29 53.50 24.60 C 51.50 31.34 49.24 38.00 47.13 44.71 C 45.64 44.71 44.16 44.70 42.67 44.70 C 40.57 38.07 38.28 31.51 36.33 24.84 C 35.94 31.45 36.23 38.07 36.14 44.69 C 34.30 44.70 32.45 44.70 30.61 44.68 C 30.69 35.19 30.55 25.69 30.61 16.19 Z" />
</g>
</svg>
