<?xml version="1.0" encoding="UTF-8" ?>
<!DOCTYPE svg PUBLIC "-//W3C//DTD SVG 1.1//EN" "http://www.w3.org/Graphics/SVG/1.1/DTD/svg11.dtd">
<svg width="64pt" height="64pt" viewBox="0 0 64 64" version="1.1" xmlns="http://www.w3.org/2000/svg">
<g id="#6c8ba8ff">
<path fill="#6c8ba8" opacity="1.00" d=" M 3.71 12.10 C 5.03 7.16 9.92 3.31 15.07 3.36 C 26.38 3.36 37.68 3.35 48.99 3.36 C 54.12 3.34 58.97 7.18 60.28 12.09 C 59.62 20.56 59.92 29.08 59.65 37.57 C 58.52 40.51 57.62 43.55 56.35 46.43 C 46.28 47.25 36.11 46.49 25.99 46.75 C 19.90 46.57 13.75 47.29 7.70 46.47 C 6.41 43.57 5.51 40.51 4.35 37.56 C 4.08 29.08 4.38 20.56 3.71 12.10 M 7.07 11.90 C 7.00 11.93 6.87 11.99 6.81 12.02 C 6.25 13.37 5.96 14.82 5.70 16.25 C 6.26 20.39 5.48 25.30 8.69 28.52 C 9.18 28.53 10.16 28.55 10.65 28.56 C 15.28 26.11 18.65 21.28 23.87 20.00 C 18.96 23.96 14.37 28.35 9.27 32.05 C 14.70 36.48 20.21 40.83 25.41 45.52 C 25.32 42.10 25.23 38.66 25.70 35.25 C 29.90 35.24 34.10 35.24 38.30 35.25 C 38.77 38.65 38.69 42.09 38.58 45.51 C 43.81 40.85 49.30 36.48 54.73 32.05 C 49.63 28.35 45.05 23.96 40.14 20.01 C 43.63 20.52 45.93 23.45 48.75 25.28 C 50.85 26.51 52.64 29.35 55.40 28.45 C 58.49 25.20 57.79 20.33 58.30 16.22 C 58.03 14.80 57.75 13.37 57.20 12.03 C 57.13 12.00 57.00 11.94 56.93 11.91 C 55.29 8.04 51.07 5.85 46.99 5.88 C 36.97 5.87 26.95 5.87 16.93 5.88 C 12.87 5.88 8.71 8.07 7.07 11.90 Z" />
</g>
<g id="#e1eaf2ff">
<path fill="#e1eaf2" opacity="1.00" d=" M 7.07 11.90 C 8.71 8.07 12.87 5.88 16.93 5.88 C 26.95 5.87 36.97 5.87 46.99 5.88 C 51.07 5.85 55.29 8.04 56.93 11.91 C 53.83 10.90 51.62 7.74 48.08 8.03 C 37.39 7.84 26.67 7.85 15.97 8.03 C 12.42 7.75 10.17 10.86 7.07 11.90 Z" />
</g>
<g id="#a8c3dbff">
<path fill="#a8c3db" opacity="1.00" d=" M 7.07 11.90 C 10.17 10.86 12.42 7.75 15.97 8.03 C 26.67 7.85 37.39 7.84 48.08 8.03 C 51.62 7.74 53.83 10.90 56.93 11.91 C 57.00 11.94 57.13 12.00 57.20 12.03 C 57.75 13.37 58.03 14.80 58.30 16.22 C 40.77 16.29 23.23 16.21 5.70 16.25 C 5.96 14.82 6.25 13.37 6.81 12.02 C 6.87 11.99 7.00 11.93 7.07 11.90 Z" />
</g>
<g id="#3f5265e1">
<path fill="#3f5265" opacity="0.88" d=" M 3.08 16.96 C 3.08 15.33 3.00 13.62 3.71 12.10 C 4.38 20.56 4.08 29.08 4.35 37.56 C 4.66 43.23 3.17 49.49 5.99 54.69 C 7.89 57.73 11.32 59.90 14.97 59.66 C 26.34 59.70 37.70 59.70 49.06 59.66 C 54.39 59.98 59.21 55.26 59.53 50.05 C 59.76 45.89 59.76 41.73 59.65 37.57 C 59.92 29.08 59.62 20.56 60.28 12.09 C 61.00 13.62 60.92 15.34 60.92 16.99 C 60.88 27.69 60.88 38.40 60.84 49.10 C 60.86 55.38 55.29 60.94 49.00 60.87 C 37.65 60.87 26.30 60.87 14.95 60.87 C 8.66 60.91 3.10 55.32 3.16 49.03 C 3.12 38.34 3.12 27.65 3.08 16.96 Z" />
</g>
<g id="#9bb7d2ff">
<path fill="#9bb7d2" opacity="1.00" d=" M 5.70 16.25 C 23.23 16.21 40.77 16.29 58.30 16.22 C 57.79 20.33 58.49 25.20 55.40 28.45 C 52.64 29.35 50.85 26.51 48.75 25.28 C 45.93 23.45 43.63 20.52 40.14 20.01 C 39.65 19.72 39.15 19.45 38.65 19.19 C 38.64 19.92 38.62 21.39 38.61 22.13 C 34.21 22.31 29.80 22.31 25.39 22.14 C 25.38 21.40 25.36 19.93 25.35 19.19 C 24.85 19.45 24.36 19.72 23.87 20.00 C 18.65 21.28 15.28 26.11 10.65 28.56 C 10.16 28.55 9.18 28.53 8.69 28.52 C 5.48 25.30 6.26 20.39 5.70 16.25 Z" />
</g>
<g id="#ffffffff">
<path fill="#ffffff" opacity="1.00" d=" M 23.87 20.00 C 24.36 19.72 24.85 19.45 25.35 19.19 C 25.36 19.93 25.38 21.40 25.39 22.14 C 25.33 24.36 25.30 26.60 25.70 28.79 C 29.90 28.88 34.10 28.88 38.30 28.79 C 38.70 26.59 38.67 24.35 38.61 22.13 C 38.62 21.39 38.64 19.92 38.65 19.19 C 39.15 19.45 39.65 19.72 40.14 20.01 C 45.05 23.96 49.63 28.35 54.73 32.05 C 49.30 36.48 43.81 40.85 38.58 45.51 C 38.69 42.09 38.77 38.65 38.30 35.25 C 34.10 35.24 29.90 35.24 25.70 35.25 C 25.23 38.66 25.32 42.10 25.41 45.52 C 20.21 40.83 14.70 36.48 9.27 32.05 C 14.37 28.35 18.96 23.96 23.87 20.00 Z" />
</g>
<g id="#90acc8ff">
<path fill="#90acc8" opacity="1.00" d=" M 25.39 22.14 C 29.80 22.31 34.21 22.31 38.61 22.13 C 38.67 24.35 38.70 26.59 38.30 28.79 C 34.10 28.88 29.90 28.88 25.70 28.79 C 25.30 26.60 25.33 24.36 25.39 22.14 Z" />
</g>
<g id="#638099ff">
<path fill="#638099" opacity="1.00" d=" M 4.35 37.56 C 5.51 40.51 6.41 43.57 7.70 46.47 C 13.75 47.29 19.90 46.57 25.99 46.75 C 36.11 46.49 46.28 47.25 56.35 46.43 C 57.62 43.55 58.52 40.51 59.65 37.57 C 59.76 41.73 59.76 45.89 59.53 50.05 C 59.21 55.26 54.39 59.98 49.06 59.66 C 37.70 59.70 26.34 59.70 14.97 59.66 C 11.32 59.90 7.89 57.73 5.99 54.69 C 3.17 49.49 4.66 43.23 4.35 37.56 Z" />
</g>
</svg>
