<?xml version="1.0" encoding="UTF-8" ?>
<!DOCTYPE svg PUBLIC "-//W3C//DTD SVG 1.1//EN" "http://www.w3.org/Graphics/SVG/1.1/DTD/svg11.dtd">
<svg width="64pt" height="64pt" viewBox="0 0 64 64" version="1.1" xmlns="http://www.w3.org/2000/svg">
<g id="#6e8facff">
<path fill="#6e8fac" opacity="1.00" d=" M 3.34 15.05 C 3.20 8.86 8.85 3.34 14.99 3.39 C 26.33 3.35 37.68 3.35 49.02 3.39 C 52.87 3.27 56.17 5.58 58.63 8.32 C 58.65 8.49 58.67 8.82 58.69 8.99 C 59.92 19.95 59.52 31.19 56.76 41.91 C 52.40 43.00 47.90 42.37 43.53 41.66 C 44.16 40.85 44.78 40.03 45.39 39.21 C 42.01 39.19 38.64 39.21 35.27 39.25 C 35.59 37.19 35.88 35.13 36.15 33.06 C 43.04 31.64 51.47 32.60 56.68 27.00 C 58.02 23.45 58.20 19.61 58.24 15.85 C 57.92 14.46 57.52 13.08 56.97 11.76 C 55.06 8.12 51.15 5.84 47.05 5.94 C 37.01 5.88 26.97 5.88 16.94 5.94 C 12.84 5.84 8.96 8.13 7.02 11.74 C 6.43 13.04 6.05 14.44 6.11 15.87 C 6.15 19.60 5.91 23.49 7.32 27.03 C 12.56 32.60 20.96 31.60 27.84 33.12 C 28.20 34.82 28.56 36.53 28.83 38.25 L 28.85 39.19 C 25.42 39.22 21.99 39.21 18.56 39.22 C 21.35 42.72 24.33 46.08 27.14 49.57 C 21.11 49.23 15.08 49.73 9.06 49.43 C 7.83 49.58 7.30 48.21 7.00 47.27 C 5.51 42.24 6.39 36.60 3.47 32.01 C 3.19 26.38 3.39 20.70 3.34 15.05 Z" />
</g>
<g id="#e1eaf2ff">
<path fill="#e1eaf2" opacity="1.00" d=" M 7.02 11.74 C 8.96 8.13 12.84 5.84 16.94 5.94 C 26.97 5.88 37.01 5.88 47.05 5.94 C 51.15 5.84 55.06 8.12 56.97 11.76 C 53.80 10.88 51.52 7.80 48.01 8.02 C 40.01 7.74 32.00 8.02 24.00 7.91 C 20.45 7.96 16.82 7.66 13.32 8.43 C 11.10 9.29 9.42 11.25 7.02 11.74 Z" />
</g>
<g id="#a8c3dbff">
<path fill="#a8c3db" opacity="1.00" d=" M 13.32 8.43 C 16.82 7.66 20.45 7.96 24.00 7.91 C 32.00 8.02 40.01 7.74 48.01 8.02 C 51.52 7.80 53.80 10.88 56.97 11.76 C 57.52 13.08 57.92 14.46 58.24 15.85 C 57.67 16.66 57.10 17.47 56.54 18.27 C 51.52 17.82 46.45 17.98 41.45 17.44 C 37.88 15.45 35.97 11.03 31.99 9.81 C 28.09 11.09 26.14 15.51 22.53 17.44 C 17.51 18.02 12.41 17.81 7.37 18.23 C 6.94 17.45 6.52 16.66 6.11 15.87 C 6.05 14.44 6.43 13.04 7.02 11.74 C 9.42 11.25 11.10 9.29 13.32 8.43 Z" />
</g>
<g id="#99b5ceff">
<path fill="#99b5ce" opacity="1.00" d=" M 22.53 17.44 C 26.14 15.51 28.09 11.09 31.99 9.81 C 35.97 11.03 37.88 15.45 41.45 17.44 C 46.45 17.98 51.52 17.82 56.54 18.27 C 57.10 17.47 57.67 16.66 58.24 15.85 C 58.20 19.61 58.02 23.45 56.68 27.00 C 54.14 26.38 51.57 25.98 48.99 25.57 C 45.22 25.39 44.02 20.40 40.23 20.22 C 37.37 17.09 34.90 13.63 32.00 10.53 C 29.09 13.65 26.59 17.12 23.72 20.28 C 20.50 20.36 19.20 23.97 16.58 25.30 C 13.51 25.94 10.35 26.19 7.32 27.03 C 5.91 23.49 6.15 19.60 6.11 15.87 C 6.52 16.66 6.94 17.45 7.37 18.23 C 12.41 17.81 17.51 18.02 22.53 17.44 Z" />
</g>
<g id="#627f99ff">
<path fill="#627f99" opacity="1.00" d=" M 56.76 41.91 C 59.52 31.19 59.92 19.95 58.69 8.99 C 60.44 10.85 60.73 13.51 60.73 15.95 C 60.69 26.95 60.69 37.95 60.64 48.96 C 60.85 55.15 55.17 60.84 48.98 60.65 C 37.67 60.68 26.35 60.68 15.03 60.65 C 8.85 60.85 3.17 55.17 3.36 48.99 C 3.39 43.33 3.17 37.66 3.47 32.01 C 6.39 36.60 5.51 42.24 7.00 47.27 C 7.30 48.21 7.83 49.58 9.06 49.43 C 15.08 49.73 21.11 49.23 27.14 49.57 C 28.75 51.53 30.37 53.47 32.00 55.42 C 35.83 50.82 39.69 46.25 43.53 41.66 C 47.90 42.37 52.40 43.00 56.76 41.91 Z" />
</g>
<g id="#ffffffff">
<path fill="#ffffff" opacity="1.00" d=" M 23.72 20.28 C 26.59 17.12 29.09 13.65 32.00 10.53 C 34.90 13.63 37.37 17.09 40.23 20.22 C 41.85 22.29 43.53 24.31 45.34 26.21 C 41.97 26.14 38.60 26.22 35.24 26.46 C 35.17 30.72 34.91 34.99 35.27 39.25 C 38.64 39.21 42.01 39.19 45.39 39.21 C 44.78 40.03 44.16 40.85 43.53 41.66 C 39.69 46.25 35.83 50.82 32.00 55.42 C 30.37 53.47 28.75 51.53 27.14 49.57 C 24.33 46.08 21.35 42.72 18.56 39.22 C 21.99 39.21 25.42 39.22 28.85 39.19 L 28.83 38.25 C 28.91 34.32 28.88 30.39 28.76 26.46 C 25.40 26.22 22.03 26.14 18.66 26.21 C 20.45 24.32 22.12 22.33 23.72 20.28 Z" />
</g>
<g id="#89a7c2ff">
<path fill="#89a7c2" opacity="1.00" d=" M 16.58 25.30 C 19.20 23.97 20.50 20.36 23.72 20.28 C 22.12 22.33 20.45 24.32 18.66 26.21 C 22.03 26.14 25.40 26.22 28.76 26.46 C 28.88 30.39 28.91 34.32 28.83 38.25 C 28.56 36.53 28.20 34.82 27.84 33.12 C 20.96 31.60 12.56 32.60 7.32 27.03 C 10.35 26.19 13.51 25.94 16.58 25.30 Z" />
<path fill="#89a7c2" opacity="1.00" d=" M 40.23 20.22 C 44.02 20.40 45.22 25.39 48.99 25.57 C 51.57 25.98 54.14 26.38 56.68 27.00 C 51.47 32.60 43.04 31.64 36.15 33.06 C 35.88 35.13 35.59 37.19 35.27 39.25 C 34.91 34.99 35.17 30.72 35.24 26.46 C 38.60 26.22 41.97 26.14 45.34 26.21 C 43.53 24.31 41.85 22.29 40.23 20.22 Z" />
</g>
</svg>
