<?xml version="1.0" encoding="UTF-8" ?>
<!DOCTYPE svg PUBLIC "-//W3C//DTD SVG 1.1//EN" "http://www.w3.org/Graphics/SVG/1.1/DTD/svg11.dtd">
<svg width="64pt" height="64pt" viewBox="0 0 64 64" version="1.1" xmlns="http://www.w3.org/2000/svg">
<g id="#6385a5ff">
<path fill="#6385a5" opacity="1.00" d=" M 12.43 3.62 C 24.27 2.99 36.17 3.52 48.03 3.34 C 54.49 2.81 60.73 8.40 60.68 14.93 C 60.69 26.30 60.64 37.66 60.63 49.03 C 60.79 55.14 55.15 60.80 49.02 60.65 C 37.66 60.65 26.30 60.65 14.94 60.65 C 8.85 60.76 3.23 55.18 3.38 49.07 C 3.35 37.70 3.31 26.32 3.32 14.95 C 3.28 9.65 7.40 4.91 12.43 3.62 M 7.11 11.81 L 6.85 11.89 C 4.71 15.29 6.32 19.29 6.36 22.96 C 5.95 28.05 11.73 30.53 15.99 30.65 C 15.73 34.30 16.28 37.94 16.10 41.60 C 18.80 38.84 21.59 36.17 24.25 33.38 C 29.62 38.64 34.90 43.99 40.24 49.28 C 43.33 46.44 46.16 43.34 49.25 40.50 C 43.90 35.19 38.56 29.87 33.39 24.39 L 34.07 23.57 C 37.04 26.04 39.72 28.85 42.53 31.50 C 46.52 31.98 50.41 30.65 53.96 28.97 C 55.89 28.09 57.63 26.21 57.56 23.98 C 57.46 19.94 59.36 15.63 57.19 11.85 L 56.87 11.73 C 55.08 8.57 51.81 6.09 48.06 6.18 C 37.35 6.10 26.62 6.09 15.91 6.18 C 12.15 6.10 8.85 8.61 7.11 11.81 Z" />
<path fill="#6385a5" opacity="1.00" d=" M 16.21 15.30 C 22.47 15.04 28.75 15.30 35.01 15.18 C 37.20 15.30 39.59 14.76 41.55 16.02 C 33.08 16.22 24.61 16.07 16.13 16.10 L 16.21 15.30 Z" />
</g>
<g id="#ffffffff">
<path fill="#ffffff" opacity="1.00" d=" M 7.11 11.81 C 8.85 8.61 12.15 6.10 15.91 6.18 C 26.62 6.09 37.35 6.10 48.06 6.18 C 51.81 6.09 55.08 8.57 56.87 11.73 C 54.83 11.65 53.79 9.67 52.08 8.86 C 50.20 7.97 48.10 7.60 46.03 7.65 C 36.69 7.66 27.36 7.65 18.02 7.65 C 15.49 7.63 12.78 8.05 10.74 9.65 C 9.59 10.49 8.63 11.69 7.11 11.81 Z" />
<path fill="#ffffff" opacity="1.00" d=" M 16.13 16.10 C 24.61 16.07 33.08 16.22 41.55 16.02 C 39.17 18.64 36.41 20.91 34.07 23.57 L 33.39 24.39 C 38.56 29.87 43.90 35.19 49.25 40.50 C 46.16 43.34 43.33 46.44 40.24 49.28 C 34.90 43.99 29.62 38.64 24.25 33.38 C 21.59 36.17 18.80 38.84 16.10 41.60 C 16.28 37.94 15.73 34.30 15.99 30.65 C 16.30 25.81 15.93 20.95 16.13 16.10 Z" />
</g>
<g id="#9bb7d2ff">
<path fill="#9bb7d2" opacity="1.00" d=" M 10.74 9.65 C 12.78 8.05 15.49 7.63 18.02 7.65 C 27.36 7.65 36.69 7.66 46.03 7.65 C 48.10 7.60 50.20 7.97 52.08 8.86 C 53.79 9.67 54.83 11.65 56.87 11.73 L 57.19 11.85 C 59.36 15.63 57.46 19.94 57.56 23.98 C 57.63 26.21 55.89 28.09 53.96 28.97 C 50.41 30.65 46.52 31.98 42.53 31.50 C 39.72 28.85 37.04 26.04 34.07 23.57 C 36.41 20.91 39.17 18.64 41.55 16.02 C 39.59 14.76 37.20 15.30 35.01 15.18 C 28.75 15.30 22.47 15.04 16.21 15.30 L 16.13 16.10 C 15.93 20.95 16.30 25.81 15.99 30.65 C 11.73 30.53 5.95 28.05 6.36 22.96 C 6.32 19.29 4.71 15.29 6.85 11.89 L 7.11 11.81 C 8.63 11.69 9.59 10.49 10.74 9.65 Z" />
</g>
</svg>
