<?xml version="1.0" encoding="UTF-8" ?>
<!DOCTYPE svg PUBLIC "-//W3C//DTD SVG 1.1//EN" "http://www.w3.org/Graphics/SVG/1.1/DTD/svg11.dtd">
<svg width="64pt" height="64pt" viewBox="0 0 64 64" version="1.1" xmlns="http://www.w3.org/2000/svg">
<g id="#6385a5ff">
<path fill="#6385a5" opacity="1.00" d=" M 13.35 3.49 C 24.89 3.14 36.46 3.45 48.02 3.34 C 52.94 3.01 57.78 6.04 59.75 10.53 C 60.83 12.88 60.66 15.53 60.71 18.05 C 60.63 28.37 60.69 38.70 60.61 49.02 C 60.79 55.14 55.16 60.81 49.04 60.63 C 37.68 60.67 26.31 60.67 14.95 60.63 C 8.83 60.80 3.20 55.14 3.38 49.02 C 3.36 37.64 3.27 26.27 3.35 14.89 C 3.28 9.31 7.92 4.30 13.35 3.49 M 7.10 11.58 L 6.78 11.66 C 4.95 16.23 6.09 21.32 6.91 25.98 C 9.96 30.62 16.32 31.40 21.44 31.60 C 24.16 28.81 26.97 26.11 29.95 23.62 L 30.71 24.42 C 25.38 29.77 20.15 35.22 14.75 40.50 C 17.77 43.37 20.72 46.31 23.62 49.30 C 29.12 44.11 34.31 38.63 39.75 33.38 C 42.44 36.16 45.19 38.87 47.93 41.60 C 47.92 38.01 47.93 34.43 47.91 30.84 C 51.58 30.11 56.69 29.05 57.44 24.67 C 57.78 20.43 59.09 15.93 57.25 11.87 L 56.90 11.70 C 54.97 8.63 51.82 6.03 48.01 6.20 C 37.33 6.08 26.63 6.08 15.95 6.20 C 12.17 6.03 9.12 8.65 7.10 11.58 Z" />
<path fill="#6385a5" opacity="1.00" d=" M 22.29 15.86 C 30.70 14.46 39.31 15.39 47.79 15.29 L 47.85 16.10 C 39.33 15.99 30.80 16.39 22.29 15.86 Z" />
</g>
<g id="#ffffffff">
<path fill="#ffffff" opacity="1.00" d=" M 7.10 11.58 C 9.12 8.65 12.17 6.03 15.95 6.20 C 26.63 6.08 37.33 6.08 48.01 6.20 C 51.82 6.03 54.97 8.63 56.90 11.70 C 53.62 10.31 50.84 7.49 47.05 7.70 C 37.03 7.61 27.01 7.60 16.99 7.70 C 13.71 7.51 11.06 9.50 8.46 11.19 C 8.12 11.29 7.44 11.48 7.10 11.58 Z" />
<path fill="#ffffff" opacity="1.00" d=" M 22.29 15.86 C 30.80 16.39 39.33 15.99 47.85 16.10 C 48.01 21.01 47.86 25.93 47.91 30.84 C 47.93 34.43 47.92 38.01 47.93 41.60 C 45.19 38.87 42.44 36.16 39.75 33.38 C 34.31 38.63 29.12 44.11 23.62 49.30 C 20.72 46.31 17.77 43.37 14.75 40.50 C 20.15 35.22 25.38 29.77 30.71 24.42 L 29.95 23.62 C 27.48 20.96 24.85 18.44 22.29 15.86 Z" />
</g>
<g id="#9bb7d2ff">
<path fill="#9bb7d2" opacity="1.00" d=" M 8.46 11.19 C 11.06 9.50 13.71 7.51 16.99 7.70 C 27.01 7.60 37.03 7.61 47.05 7.70 C 50.84 7.49 53.62 10.31 56.90 11.70 L 57.25 11.87 C 59.09 15.93 57.78 20.43 57.44 24.67 C 56.69 29.05 51.58 30.11 47.91 30.84 C 47.86 25.93 48.01 21.01 47.85 16.10 L 47.79 15.29 C 39.31 15.39 30.70 14.46 22.29 15.86 C 24.85 18.44 27.48 20.96 29.95 23.62 C 26.97 26.11 24.16 28.81 21.44 31.60 C 16.32 31.40 9.96 30.62 6.91 25.98 C 6.09 21.32 4.95 16.23 6.78 11.66 L 7.10 11.58 C 7.44 11.48 8.12 11.29 8.46 11.19 Z" />
</g>
</svg>
