<?xml version="1.0" encoding="UTF-8" ?>
<!DOCTYPE svg PUBLIC "-//W3C//DTD SVG 1.1//EN" "http://www.w3.org/Graphics/SVG/1.1/DTD/svg11.dtd">
<svg width="64pt" height="64pt" viewBox="0 0 64 64" version="1.1" xmlns="http://www.w3.org/2000/svg">
<g id="#6386a6ff">
<path fill="#6386a6" opacity="1.00" d=" M 12.51 3.63 C 24.31 2.97 36.19 3.53 48.01 3.34 C 54.50 2.82 60.80 8.44 60.67 15.02 C 60.71 26.36 60.64 37.70 60.62 49.04 C 60.76 55.15 55.16 60.79 49.04 60.63 C 37.68 60.66 26.31 60.66 14.94 60.63 C 8.83 60.78 3.23 55.14 3.38 49.04 C 3.37 37.66 3.28 26.28 3.34 14.90 C 3.28 9.60 7.46 4.84 12.51 3.63 M 6.65 13.49 L 6.11 13.83 C 5.37 17.17 6.51 20.55 6.46 23.92 C 6.39 26.16 8.13 28.01 10.02 28.97 C 13.82 30.86 18.08 31.93 22.34 31.41 C 25.10 34.29 27.98 37.06 30.83 39.85 C 28.16 42.66 25.39 45.38 22.61 48.09 C 31.05 47.76 39.49 48.03 47.93 47.93 C 47.87 42.19 47.96 36.45 48.00 30.72 C 52.02 30.49 57.36 28.38 57.55 23.71 C 57.61 20.39 58.61 17.08 57.93 13.78 L 57.30 13.44 C 56.22 9.34 52.40 6.10 48.09 6.20 C 37.37 6.08 26.64 6.09 15.92 6.20 C 11.57 6.08 7.78 9.39 6.65 13.49 Z" />
<path fill="#6386a6" opacity="1.00" d=" M 25.37 16.33 C 30.57 18.37 33.32 24.23 38.26 26.66 C 42.36 27.77 44.66 23.45 47.81 21.72 L 47.80 22.66 C 45.23 25.52 42.46 28.18 39.74 30.90 C 34.89 26.11 30.13 21.23 25.37 16.33 Z" />
</g>
<g id="#ffffffff">
<path fill="#ffffff" opacity="1.00" d=" M 6.65 13.49 C 7.78 9.39 11.57 6.08 15.92 6.20 C 26.64 6.09 37.37 6.08 48.09 6.20 C 52.40 6.10 56.22 9.34 57.30 13.44 C 55.44 12.39 54.59 10.17 52.69 9.16 C 50.39 7.81 47.64 7.63 45.03 7.63 C 36.69 7.65 28.35 7.67 20.01 7.62 C 17.06 7.62 13.92 7.62 11.30 9.16 C 9.42 10.22 8.50 12.39 6.65 13.49 Z" />
<path fill="#ffffff" opacity="1.00" d=" M 14.91 23.90 C 17.83 21.02 20.70 18.10 23.58 15.19 C 24.18 15.57 24.77 15.96 25.37 16.33 C 30.13 21.23 34.89 26.11 39.74 30.90 C 42.46 28.18 45.23 25.52 47.80 22.66 C 47.85 25.35 47.95 28.03 48.00 30.72 C 47.96 36.45 47.87 42.19 47.93 47.93 C 39.49 48.03 31.05 47.76 22.61 48.09 C 25.39 45.38 28.16 42.66 30.83 39.85 C 27.98 37.06 25.10 34.29 22.34 31.41 C 19.97 28.81 17.42 26.37 14.91 23.90 Z" />
</g>
<g id="#9cb8d4ff">
<path fill="#9cb8d4" opacity="1.00" d=" M 11.30 9.16 C 13.92 7.62 17.06 7.62 20.01 7.62 C 28.35 7.67 36.69 7.65 45.03 7.63 C 47.64 7.63 50.39 7.81 52.69 9.16 C 54.59 10.17 55.44 12.39 57.30 13.44 L 57.93 13.78 C 58.61 17.08 57.61 20.39 57.55 23.71 C 57.36 28.38 52.02 30.49 48.00 30.72 C 47.95 28.03 47.85 25.35 47.80 22.66 L 47.81 21.72 C 44.66 23.45 42.36 27.77 38.26 26.66 C 33.32 24.23 30.57 18.37 25.37 16.33 C 24.77 15.96 24.18 15.57 23.58 15.19 C 20.70 18.10 17.83 21.02 14.91 23.90 C 17.42 26.37 19.97 28.81 22.34 31.41 C 18.08 31.93 13.82 30.86 10.02 28.97 C 8.13 28.01 6.39 26.16 6.46 23.92 C 6.51 20.55 5.37 17.17 6.11 13.83 L 6.65 13.49 C 8.50 12.39 9.42 10.22 11.30 9.16 Z" />
</g>
</svg>
