<?xml version="1.0" encoding="UTF-8" ?>
<!DOCTYPE svg PUBLIC "-//W3C//DTD SVG 1.1//EN" "http://www.w3.org/Graphics/SVG/1.1/DTD/svg11.dtd">
<svg width="64pt" height="64pt" viewBox="0 0 64 64" version="1.1" xmlns="http://www.w3.org/2000/svg">
<g id="#7292b1ff">
<path fill="#7292b1" opacity="1.00" d=" M 7.05 6.68 C 9.16 4.60 12.07 3.40 15.02 3.38 C 26.35 3.38 37.67 3.37 49.00 3.39 C 51.69 3.45 54.53 4.38 56.45 6.31 C 58.80 9.69 60.41 13.48 59.86 17.68 C 59.40 21.02 59.05 24.37 58.94 27.74 C 58.35 30.79 57.80 33.88 56.64 36.77 C 53.97 38.15 50.74 37.50 48.91 35.10 C 49.41 33.42 49.71 31.69 49.84 29.94 C 52.73 29.37 56.27 28.47 57.26 25.28 C 57.93 21.24 58.68 16.97 57.58 12.94 C 57.40 12.62 57.04 12.00 56.86 11.69 C 55.01 8.07 51.07 5.84 47.04 5.96 C 37.00 5.93 26.96 5.93 16.92 5.96 C 12.91 5.85 9.04 8.07 7.16 11.62 C 6.98 11.92 6.62 12.52 6.44 12.82 C 5.38 17.34 5.38 22.44 7.22 26.75 C 11.04 31.87 18.32 30.61 23.60 32.94 C 23.34 33.42 22.83 34.39 22.58 34.87 C 19.80 36.51 17.57 39.20 14.53 40.25 C 12.33 40.06 10.14 40.35 7.94 40.32 C 6.02 38.07 5.84 34.96 5.43 32.17 C 4.75 23.67 3.33 14.71 7.05 6.68 Z" />
</g>
<g id="#e1eaf2ff">
<path fill="#e1eaf2" opacity="1.00" d=" M 7.16 11.62 C 9.04 8.07 12.91 5.85 16.92 5.96 C 26.96 5.93 37.00 5.93 47.04 5.96 C 51.07 5.84 55.01 8.07 56.86 11.69 C 53.65 11.11 51.63 7.55 48.05 8.03 C 37.01 7.90 25.94 7.73 14.91 8.13 C 11.75 7.93 10.15 11.48 7.16 11.62 Z" />
</g>
<g id="#627f99ff">
<path fill="#627f99" opacity="1.00" d=" M 3.63 12.58 C 3.95 10.30 5.33 8.19 7.05 6.68 C 3.33 14.71 4.75 23.67 5.43 32.17 C 5.84 34.96 6.02 38.07 7.94 40.32 C 10.14 40.35 12.33 40.06 14.53 40.25 L 14.53 41.36 C 18.54 44.17 22.47 47.11 26.39 50.04 C 26.41 48.01 26.33 45.99 26.42 43.97 C 26.76 43.91 27.44 43.79 27.78 43.73 C 27.98 45.70 28.11 47.69 28.48 49.65 C 33.27 50.34 38.13 49.84 42.96 49.93 C 47.52 49.92 52.13 50.38 56.66 49.63 C 58.65 42.57 59.06 35.06 58.94 27.74 C 59.05 24.37 59.40 21.02 59.86 17.68 C 60.20 28.14 59.75 38.60 59.61 49.07 C 59.72 54.68 54.74 60.00 49.02 59.68 C 37.66 59.71 26.31 59.71 14.95 59.68 C 9.62 59.93 4.81 55.31 4.45 50.06 C 3.88 37.57 4.39 25.05 3.63 12.58 Z" />
</g>
<g id="#3e5063df">
<path fill="#3e5063" opacity="0.87" d=" M 56.45 6.31 C 59.45 7.95 60.64 11.76 60.93 15.00 C 60.91 26.36 60.88 37.72 60.85 49.08 C 60.86 55.35 55.35 60.91 49.07 60.88 C 37.70 60.88 26.33 60.88 14.96 60.88 C 8.67 60.93 3.13 55.36 3.15 49.08 C 3.12 38.38 3.09 27.68 3.08 16.99 C 3.12 15.50 2.97 13.96 3.63 12.58 C 4.39 25.05 3.88 37.57 4.45 50.06 C 4.81 55.31 9.62 59.93 14.95 59.68 C 26.31 59.71 37.66 59.71 49.02 59.68 C 54.74 60.00 59.72 54.68 59.61 49.07 C 59.75 38.60 60.20 28.14 59.86 17.68 C 60.41 13.48 58.80 9.69 56.45 6.31 Z" />
</g>
<g id="#a8c3dbff">
<path fill="#a8c3db" opacity="1.00" d=" M 7.16 11.62 C 10.15 11.48 11.75 7.93 14.91 8.13 C 25.94 7.73 37.01 7.90 48.05 8.03 C 51.63 7.55 53.65 11.11 56.86 11.69 C 57.04 12.00 57.40 12.62 57.58 12.94 C 57.38 14.09 57.12 15.23 56.79 16.35 C 53.52 16.55 50.24 16.39 46.97 16.38 C 43.23 16.42 39.75 14.68 36.00 14.66 C 31.07 14.60 26.09 14.40 21.18 15.02 L 21.16 16.16 C 21.15 18.01 21.16 19.86 21.15 21.71 C 16.87 19.64 12.00 21.03 7.45 20.55 C 6.65 18.06 6.39 15.43 6.44 12.82 C 6.62 12.52 6.98 11.92 7.16 11.62 Z" />
</g>
<g id="#8eabc6ff">
<path fill="#8eabc6" opacity="1.00" d=" M 7.22 26.75 C 5.38 22.44 5.38 17.34 6.44 12.82 C 6.39 15.43 6.65 18.06 7.45 20.55 C 12.00 21.03 16.87 19.64 21.15 21.71 C 27.11 23.13 33.49 20.64 39.40 22.71 C 42.83 24.48 44.98 28.75 43.70 32.51 C 37.84 32.28 31.97 32.74 26.11 32.23 C 24.92 33.08 23.78 34.02 22.58 34.87 C 22.83 34.39 23.34 33.42 23.60 32.94 C 18.32 30.61 11.04 31.87 7.22 26.75 Z" />
</g>
<g id="#99b5ceff">
<path fill="#99b5ce" opacity="1.00" d=" M 57.58 12.94 C 58.68 16.97 57.93 21.24 57.26 25.28 C 56.27 28.47 52.73 29.37 49.84 29.94 C 49.58 23.00 44.01 16.81 37.03 16.21 C 31.74 16.02 26.45 16.17 21.16 16.16 L 21.18 15.02 C 26.09 14.40 31.07 14.60 36.00 14.66 C 39.75 14.68 43.23 16.42 46.97 16.38 C 50.24 16.39 53.52 16.55 56.79 16.35 C 57.12 15.23 57.38 14.09 57.58 12.94 Z" />
</g>
<g id="#ffffffff">
<path fill="#ffffff" opacity="1.00" d=" M 21.16 16.16 C 26.45 16.17 31.74 16.02 37.03 16.21 C 44.01 16.81 49.58 23.00 49.84 29.94 C 49.71 31.69 49.41 33.42 48.91 35.10 C 47.44 38.32 44.91 41.11 41.66 42.57 C 37.30 44.56 32.39 43.46 27.78 43.73 C 27.44 43.79 26.76 43.91 26.42 43.97 C 26.33 45.99 26.41 48.01 26.39 50.04 C 22.47 47.11 18.54 44.17 14.53 41.36 L 14.53 40.25 C 17.57 39.20 19.80 36.51 22.58 34.87 C 23.78 34.02 24.92 33.08 26.11 32.23 C 26.78 34.05 26.10 36.12 26.20 38.03 C 30.49 37.80 35.17 38.89 39.22 37.36 L 40.04 36.93 C 41.90 36.13 42.91 34.27 43.70 32.51 C 44.98 28.75 42.83 24.48 39.40 22.71 C 33.49 20.64 27.11 23.13 21.15 21.71 C 21.16 19.86 21.15 18.01 21.16 16.16 Z" />
</g>
<g id="#6886a1ff">
<path fill="#6886a1" opacity="1.00" d=" M 56.64 36.77 C 57.80 33.88 58.35 30.79 58.94 27.74 C 59.06 35.06 58.65 42.57 56.66 49.63 C 52.13 50.38 47.52 49.92 42.96 49.93 C 38.13 49.84 33.27 50.34 28.48 49.65 C 28.11 47.69 27.98 45.70 27.78 43.73 C 32.39 43.46 37.30 44.56 41.66 42.57 C 44.91 41.11 47.44 38.32 48.91 35.10 C 50.74 37.50 53.97 38.15 56.64 36.77 Z" />
</g>
<g id="#7191b0ff">
<path fill="#7191b0" opacity="1.00" d=" M 26.11 32.23 C 31.97 32.74 37.84 32.28 43.70 32.51 C 42.91 34.27 41.90 36.13 40.04 36.93 C 39.76 36.64 39.21 36.07 38.93 35.79 L 38.23 36.14 C 38.48 36.45 38.97 37.06 39.22 37.36 C 35.17 38.89 30.49 37.80 26.20 38.03 C 26.10 36.12 26.78 34.05 26.11 32.23 Z" />
</g>
<g id="#306390ff">
<path fill="#306390" opacity="1.00" d=" M 38.23 36.14 L 38.93 35.79 C 39.21 36.07 39.76 36.64 40.04 36.93 L 39.22 37.36 C 38.97 37.06 38.48 36.45 38.23 36.14 Z" />
</g>
</svg>
