<?xml version="1.0" encoding="UTF-8" ?>
<!DOCTYPE svg PUBLIC "-//W3C//DTD SVG 1.1//EN" "http://www.w3.org/Graphics/SVG/1.1/DTD/svg11.dtd">
<svg width="64pt" height="64pt" viewBox="0 0 64 64" version="1.1" xmlns="http://www.w3.org/2000/svg">
<g id="#7191b1ff">
<path fill="#7191b1" opacity="1.00" d=" M 6.97 6.67 C 9.19 4.75 11.98 3.34 14.98 3.39 C 26.00 3.35 37.03 3.40 48.05 3.37 C 51.29 3.22 54.60 4.36 56.92 6.65 C 60.70 14.63 59.22 23.58 58.50 32.03 C 57.98 34.89 58.06 38.85 54.92 40.22 C 52.85 40.25 51.03 38.97 49.22 38.10 C 46.19 36.36 43.44 34.21 40.56 32.23 C 44.55 32.11 48.69 31.94 52.26 29.92 C 59.33 27.59 58.56 18.81 57.68 12.91 C 57.49 12.62 57.11 12.03 56.92 11.74 C 55.01 8.11 51.11 5.82 47.01 5.96 C 37.00 5.92 26.98 5.92 16.96 5.96 C 12.88 5.83 8.99 8.11 7.09 11.72 C 6.92 12.00 6.57 12.55 6.40 12.83 C 5.47 16.90 5.85 21.17 6.73 25.21 C 7.58 28.57 11.25 29.44 14.17 30.09 C 14.27 33.82 15.94 37.27 18.42 40.00 C 14.78 39.98 10.02 41.70 7.15 38.78 C 4.77 32.88 5.10 26.28 4.64 20.02 C 4.22 15.42 5.38 10.94 6.97 6.67 Z" />
<path fill="#7191b1" opacity="1.00" d=" M 20.70 31.98 C 26.29 33.21 32.05 33.44 37.68 32.36 C 37.68 33.67 37.67 34.97 37.66 36.28 C 33.37 36.23 28.81 37.04 24.76 35.19 C 23.64 34.83 22.53 33.97 21.30 34.46 C 21.09 34.10 20.68 33.37 20.48 33.00 L 20.70 31.98 Z" />
</g>
<g id="#e1eaf2ff">
<path fill="#e1eaf2" opacity="1.00" d=" M 7.09 11.72 C 8.99 8.11 12.88 5.83 16.96 5.96 C 26.98 5.92 37.00 5.92 47.01 5.96 C 51.11 5.82 55.01 8.11 56.92 11.74 C 53.75 10.97 51.61 7.72 48.09 8.02 C 37.40 7.84 26.69 7.85 16.00 8.02 C 12.46 7.71 10.27 10.91 7.09 11.72 Z" />
</g>
<g id="#63809bff">
<path fill="#63809b" opacity="1.00" d=" M 3.30 15.00 C 3.24 11.83 4.71 8.83 6.97 6.67 C 5.38 10.94 4.22 15.42 4.64 20.02 C 5.10 26.28 4.77 32.88 7.15 38.78 C 10.02 41.70 14.78 39.98 18.42 40.00 C 23.55 45.23 31.19 43.34 37.70 43.92 C 37.66 45.95 37.63 47.99 37.61 50.03 C 41.75 46.95 45.89 43.87 50.11 40.89 C 49.81 39.96 49.52 39.03 49.22 38.10 C 51.03 38.97 52.85 40.25 54.92 40.22 C 58.06 38.85 57.98 34.89 58.50 32.03 C 59.22 23.58 60.70 14.63 56.92 6.65 C 59.32 8.73 60.73 11.83 60.70 15.00 C 60.71 26.31 60.67 37.63 60.64 48.94 C 60.85 55.12 55.19 60.83 49.01 60.65 C 37.67 60.68 26.32 60.68 14.98 60.65 C 8.82 60.82 3.17 55.14 3.36 48.98 C 3.33 37.65 3.29 26.32 3.30 15.00 Z" />
</g>
<g id="#a9c4dcff">
<path fill="#a9c4dc" opacity="1.00" d=" M 7.09 11.72 C 10.27 10.91 12.46 7.71 16.00 8.02 C 26.69 7.85 37.40 7.84 48.09 8.02 C 51.61 7.72 53.75 10.97 56.92 11.74 C 57.11 12.03 57.49 12.62 57.68 12.91 C 57.32 14.42 57.34 16.17 56.07 17.28 C 55.89 16.16 55.71 15.04 55.55 13.92 C 51.89 16.68 47.13 15.45 42.93 15.19 C 36.87 14.76 30.77 14.81 24.71 15.10 C 18.95 16.67 13.06 17.89 7.04 17.43 C 6.83 15.89 6.62 14.36 6.40 12.83 C 6.57 12.55 6.92 12.00 7.09 11.72 Z" />
</g>
<g id="#96b3cdff">
<path fill="#96b3cd" opacity="1.00" d=" M 6.73 25.21 C 5.85 21.17 5.47 16.90 6.40 12.83 C 6.62 14.36 6.83 15.89 7.04 17.43 C 13.06 17.89 18.95 16.67 24.71 15.10 L 25.56 16.20 C 19.22 17.86 14.35 23.45 14.17 30.09 C 11.25 29.44 7.58 28.57 6.73 25.21 Z" />
</g>
<g id="#92afc9ff">
<path fill="#92afc9" opacity="1.00" d=" M 42.93 15.19 C 47.13 15.45 51.89 16.68 55.55 13.92 C 55.71 15.04 55.89 16.16 56.07 17.28 C 57.34 16.17 57.32 14.42 57.68 12.91 C 58.56 18.81 59.33 27.59 52.26 29.92 C 41.94 29.45 31.57 29.33 21.26 29.88 C 21.12 30.41 20.84 31.46 20.70 31.98 L 20.48 33.00 C 18.49 28.41 21.98 22.56 26.93 22.08 C 32.22 21.58 37.54 22.02 42.84 21.87 C 42.83 19.94 42.86 18.02 42.91 16.10 L 42.93 15.19 Z" />
</g>
<g id="#6194bfff">
<path fill="#6194bf" opacity="1.00" d=" M 24.71 15.10 C 30.77 14.81 36.87 14.76 42.93 15.19 L 42.91 16.10 C 37.12 16.08 31.34 15.95 25.56 16.20 L 24.71 15.10 Z" />
</g>
<g id="#ffffffff">
<path fill="#ffffff" opacity="1.00" d=" M 25.56 16.20 C 31.34 15.95 37.12 16.08 42.91 16.10 C 42.86 18.02 42.83 19.94 42.84 21.87 C 37.54 22.02 32.22 21.58 26.93 22.08 C 21.98 22.56 18.49 28.41 20.48 33.00 C 20.68 33.37 21.09 34.10 21.30 34.46 C 25.07 39.81 32.15 37.62 37.64 38.05 C 37.64 37.61 37.66 36.72 37.66 36.28 C 37.67 34.97 37.68 33.67 37.68 32.36 C 37.84 32.35 38.15 32.33 38.31 32.32 C 42.22 35.20 46.01 38.27 50.11 40.89 C 45.89 43.87 41.75 46.95 37.61 50.03 C 37.63 47.99 37.66 45.95 37.70 43.92 C 31.19 43.34 23.55 45.23 18.42 40.00 C 15.94 37.27 14.27 33.82 14.17 30.09 C 14.35 23.45 19.22 17.86 25.56 16.20 Z" />
</g>
<g id="#83a1bcff">
<path fill="#83a1bc" opacity="1.00" d=" M 21.26 29.88 C 31.57 29.33 41.94 29.45 52.26 29.92 C 48.69 31.94 44.55 32.11 40.56 32.23 C 40.00 32.25 38.87 32.30 38.31 32.32 C 38.15 32.33 37.84 32.35 37.68 32.36 C 32.05 33.44 26.29 33.21 20.70 31.98 C 20.84 31.46 21.12 30.41 21.26 29.88 Z" />
</g>
<g id="#42719bff">
<path fill="#42719b" opacity="1.00" d=" M 38.31 32.32 C 38.87 32.30 40.00 32.25 40.56 32.23 C 43.44 34.21 46.19 36.36 49.22 38.10 C 49.52 39.03 49.81 39.96 50.11 40.89 C 46.01 38.27 42.22 35.20 38.31 32.32 Z" />
</g>
<g id="#427199ff">
<path fill="#427199" opacity="1.00" d=" M 21.30 34.46 C 22.53 33.97 23.64 34.83 24.76 35.19 C 28.81 37.04 33.37 36.23 37.66 36.28 C 37.66 36.72 37.64 37.61 37.64 38.05 C 32.15 37.62 25.07 39.81 21.30 34.46 Z" />
</g>
</svg>
