<?xml version="1.0" encoding="UTF-8" ?>
<!DOCTYPE svg PUBLIC "-//W3C//DTD SVG 1.1//EN" "http://www.w3.org/Graphics/SVG/1.1/DTD/svg11.dtd">
<svg width="64pt" height="64pt" viewBox="0 0 64 64" version="1.1" xmlns="http://www.w3.org/2000/svg">
<g id="#2f2f2df3">
<path fill="#2f2f2d" opacity="0.95" d=" M 19.00 3.04 C 27.67 2.96 36.33 2.93 45.00 3.03 C 44.91 5.87 44.74 11.53 44.65 14.36 C 37.09 8.89 26.91 8.88 19.35 14.36 C 19.26 11.53 19.09 5.87 19.00 3.04 Z" />
<path fill="#2f2f2d" opacity="0.95" d=" M 31.11 21.00 C 35.32 19.43 30.51 27.64 33.74 26.55 C 34.83 26.32 35.93 26.14 37.04 25.99 C 35.70 29.03 35.60 32.80 33.28 35.29 C 31.86 37.18 30.28 34.56 28.94 33.91 C 29.02 33.25 29.16 31.95 29.24 31.30 C 32.42 28.87 30.23 24.16 31.11 21.00 Z" />
<path fill="#2f2f2d" opacity="0.95" d=" M 55.89 30.96 C 58.35 28.81 57.18 36.65 54.12 33.78 C 54.71 32.84 55.34 31.93 55.89 30.96 Z" />
<path fill="#2f2f2d" opacity="0.95" d=" M 18.94 50.19 C 26.55 55.67 37.42 55.53 45.06 50.19 C 45.04 52.88 44.99 58.27 44.96 60.96 C 36.32 61.04 27.67 61.07 19.03 60.96 C 19.01 58.27 18.96 52.88 18.94 50.19 Z" />
</g>
<g id="#e6e7e7ff">
<path fill="#e6e7e7" opacity="1.00" d=" M 19.35 14.36 C 26.91 8.88 37.09 8.89 44.65 14.36 C 45.78 16.53 47.54 18.29 49.72 19.39 C 53.79 21.91 51.11 30.29 55.89 30.96 C 55.34 31.93 54.71 32.84 54.12 33.78 C 52.80 36.04 50.70 37.42 48.14 37.87 C 48.05 37.12 47.85 35.62 47.76 34.87 C 45.48 38.83 44.26 45.37 38.52 45.24 C 38.94 48.43 34.12 47.46 32.00 47.62 C 29.88 47.46 25.06 48.43 25.48 45.24 C 19.78 45.37 18.51 38.89 16.30 34.93 C 16.65 37.77 14.51 37.99 12.29 37.74 C 11.49 36.12 10.87 34.43 10.21 32.75 C 9.64 28.21 11.14 22.76 14.28 19.39 C 16.46 18.29 18.22 16.53 19.35 14.36 M 25.91 16.89 C 18.49 18.81 15.76 26.26 14.92 33.05 C 17.59 32.17 16.05 26.28 19.99 27.01 C 22.23 27.58 22.24 25.91 21.90 24.23 C 16.51 23.89 25.91 19.16 26.79 21.86 C 26.31 18.91 28.42 18.63 30.83 18.96 C 29.57 22.93 29.61 27.17 29.24 31.30 C 29.16 31.95 29.02 33.25 28.94 33.91 C 28.39 38.48 35.51 37.75 35.86 33.93 C 35.87 30.83 38.87 28.38 37.84 25.21 C 36.33 21.55 30.56 29.49 33.39 20.36 C 31.94 18.18 37.31 18.40 36.95 20.01 C 36.39 24.37 42.88 20.05 44.05 23.73 C 43.57 23.86 42.60 24.10 42.11 24.22 C 40.94 27.71 43.45 26.74 45.74 26.12 C 47.63 28.38 47.24 32.59 49.07 34.05 C 49.94 22.07 37.39 12.08 25.91 16.89 M 44.01 31.01 C 43.34 33.55 44.45 34.66 46.99 33.99 C 47.66 31.45 46.55 30.34 44.01 31.01 Z" />
</g>
<g id="#999a9afb">
<path fill="#999a9a" opacity="1.00" d=" M 14.28 19.39 C 14.61 17.22 17.16 14.55 19.35 14.36 C 18.22 16.53 16.46 18.29 14.28 19.39 Z" />
<path fill="#999a9a" opacity="1.00" d=" M 44.65 14.36 C 46.84 14.55 49.39 17.22 49.72 19.39 C 47.54 18.29 45.78 16.53 44.65 14.36 Z" />
<path fill="#999a9a" opacity="1.00" d=" M 25.91 16.89 C 37.39 12.08 49.94 22.07 49.07 34.05 C 47.24 32.59 47.63 28.38 45.74 26.12 C 43.45 26.74 40.94 27.71 42.11 24.22 C 42.60 24.10 43.57 23.86 44.05 23.73 C 42.88 20.05 36.39 24.37 36.95 20.01 C 37.31 18.40 31.94 18.18 33.39 20.36 C 30.56 29.49 36.33 21.55 37.84 25.21 C 38.87 28.38 35.87 30.83 35.86 33.93 C 35.51 37.75 28.39 38.48 28.94 33.91 C 30.28 34.56 31.86 37.18 33.28 35.29 C 35.60 32.80 35.70 29.03 37.04 25.99 C 35.93 26.14 34.83 26.32 33.74 26.55 C 30.51 27.64 35.32 19.43 31.11 21.00 C 30.23 24.16 32.42 28.87 29.24 31.30 C 29.61 27.17 29.57 22.93 30.83 18.96 C 28.42 18.63 26.31 18.91 26.79 21.86 C 25.91 19.16 16.51 23.89 21.90 24.23 C 22.24 25.91 22.23 27.58 19.99 27.01 C 16.05 26.28 17.59 32.17 14.92 33.05 C 15.76 26.26 18.49 18.81 25.91 16.89 Z" />
<path fill="#999a9a" opacity="1.00" d=" M 44.01 31.01 C 46.55 30.34 47.66 31.45 46.99 33.99 C 44.45 34.66 43.34 33.55 44.01 31.01 Z" />
<path fill="#999a9a" opacity="1.00" d=" M 10.21 32.75 C 10.87 34.43 11.49 36.12 12.29 37.74 C 14.51 37.99 16.65 37.77 16.30 34.93 C 18.51 38.89 19.78 45.37 25.48 45.24 C 25.06 48.43 29.88 47.46 32.00 47.62 C 34.12 47.46 38.94 48.43 38.52 45.24 C 44.26 45.37 45.48 38.83 47.76 34.87 C 47.85 35.62 48.05 37.12 48.14 37.87 C 50.70 37.42 52.80 36.04 54.12 33.78 C 54.90 40.06 50.38 44.74 47.79 49.74 C 47.11 49.85 45.74 50.08 45.06 50.19 C 37.42 55.53 26.55 55.67 18.94 50.19 C 18.25 50.08 16.89 49.85 16.21 49.74 C 13.52 44.42 8.47 39.61 10.21 32.75 Z" />
</g>
</svg>
