<?xml version="1.0" encoding="UTF-8" ?>
<!DOCTYPE svg PUBLIC "-//W3C//DTD SVG 1.1//EN" "http://www.w3.org/Graphics/SVG/1.1/DTD/svg11.dtd">
<svg width="64pt" height="64pt" viewBox="0 0 64 64" version="1.1" xmlns="http://www.w3.org/2000/svg">
<g id="#6385a5ff">
<path fill="#6385a5" opacity="1.00" d=" M 12.41 3.66 C 24.26 2.94 36.19 3.54 48.07 3.34 C 54.50 2.85 60.76 8.41 60.66 14.92 C 60.73 26.28 60.64 37.65 60.62 49.01 C 60.79 55.14 55.17 60.80 49.03 60.63 C 37.66 60.67 26.29 60.67 14.92 60.63 C 8.83 60.78 3.26 55.18 3.38 49.09 C 3.36 37.70 3.28 26.31 3.34 14.92 C 3.26 9.65 7.40 4.91 12.41 3.66 M 6.41 13.51 C 6.24 13.67 5.92 13.98 5.75 14.14 C 6.02 17.90 6.18 21.68 6.66 25.42 C 8.34 28.85 12.35 30.56 16.02 30.70 C 15.96 36.44 16.21 42.18 16.02 47.92 C 21.45 43.63 26.61 39.01 32.08 34.76 C 32.09 39.15 32.10 43.53 32.02 47.92 C 38.42 42.70 44.79 37.44 51.09 32.10 C 45.37 27.51 39.88 22.65 34.24 17.97 C 35.57 18.45 37.03 18.73 38.11 19.72 C 42.25 23.10 46.53 26.30 50.67 29.69 C 53.58 29.90 56.17 27.93 57.36 25.37 C 57.81 21.56 57.93 17.72 58.25 13.90 C 58.06 13.74 57.69 13.41 57.51 13.24 C 55.92 9.39 52.42 6.01 48.01 6.20 C 37.33 6.09 26.64 6.08 15.96 6.20 C 11.46 6.03 7.90 9.53 6.41 13.51 Z" />
<path fill="#6385a5" opacity="1.00" d=" M 17.27 17.15 C 19.92 17.59 21.87 19.56 23.90 21.15 C 26.55 23.37 29.39 25.36 32.07 27.55 C 32.08 28.05 32.10 29.05 32.11 29.55 C 27.04 25.57 22.23 21.27 17.27 17.15 Z" />
</g>
<g id="#ffffffff">
<path fill="#ffffff" opacity="1.00" d=" M 6.41 13.51 C 7.90 9.53 11.46 6.03 15.96 6.20 C 26.64 6.08 37.33 6.09 48.01 6.20 C 52.42 6.01 55.92 9.39 57.51 13.24 C 54.56 10.53 51.34 7.43 46.99 7.69 C 36.66 7.67 26.32 7.50 15.99 7.77 C 11.93 7.80 9.11 10.92 6.41 13.51 Z" />
<path fill="#ffffff" opacity="1.00" d=" M 16.04 16.84 C 16.35 16.91 16.96 17.07 17.27 17.15 C 22.23 21.27 27.04 25.57 32.11 29.55 C 32.10 29.05 32.08 28.05 32.07 27.55 C 32.09 23.93 32.11 20.31 32.01 16.70 C 32.75 17.13 33.49 17.55 34.24 17.97 C 39.88 22.65 45.37 27.51 51.09 32.10 C 44.79 37.44 38.42 42.70 32.02 47.92 C 32.10 43.53 32.09 39.15 32.08 34.76 C 26.61 39.01 21.45 43.63 16.02 47.92 C 16.21 42.18 15.96 36.44 16.02 30.70 C 16.18 26.08 16.10 21.46 16.04 16.84 Z" />
</g>
<g id="#9db9d4ff">
<path fill="#9db9d4" opacity="1.00" d=" M 6.41 13.51 C 9.11 10.92 11.93 7.80 15.99 7.77 C 26.32 7.50 36.66 7.67 46.99 7.69 C 51.34 7.43 54.56 10.53 57.51 13.24 C 57.69 13.41 58.06 13.74 58.25 13.90 C 57.93 17.72 57.81 21.56 57.36 25.37 C 56.17 27.93 53.58 29.90 50.67 29.69 C 46.53 26.30 42.25 23.10 38.11 19.72 C 37.03 18.73 35.57 18.45 34.24 17.97 C 33.49 17.55 32.75 17.13 32.01 16.70 C 32.11 20.31 32.09 23.93 32.07 27.55 C 29.39 25.36 26.55 23.37 23.90 21.15 C 21.87 19.56 19.92 17.59 17.27 17.15 C 16.96 17.07 16.35 16.91 16.04 16.84 C 16.10 21.46 16.18 26.08 16.02 30.70 C 12.35 30.56 8.34 28.85 6.66 25.42 C 6.18 21.68 6.02 17.90 5.75 14.14 C 5.92 13.98 6.24 13.67 6.41 13.51 Z" />
</g>
</svg>
