<?xml version="1.0" encoding="UTF-8" ?>
<!DOCTYPE svg PUBLIC "-//W3C//DTD SVG 1.1//EN" "http://www.w3.org/Graphics/SVG/1.1/DTD/svg11.dtd">
<svg width="64pt" height="64pt" viewBox="0 0 64 64" version="1.1" xmlns="http://www.w3.org/2000/svg">
<g id="#2e3e50ce">
<path fill="#2e3e50" opacity="0.81" d=" M 11.99 3.04 C 25.33 2.96 38.67 2.96 52.02 3.04 L 51.96 4.01 C 38.65 4.00 25.35 3.97 12.05 4.02 L 11.99 3.04 Z" />
<path fill="#2e3e50" opacity="0.81" d=" M 5.41 9.14 C 5.09 7.41 7.41 5.09 9.14 5.42 C 8.77 7.29 7.29 8.77 5.41 9.14 Z" />
<path fill="#2e3e50" opacity="0.81" d=" M 54.86 5.42 C 56.59 5.09 58.91 7.41 58.58 9.14 C 56.71 8.77 55.23 7.29 54.86 5.42 Z" />
<path fill="#2e3e50" opacity="0.81" d=" M 3.06 12.01 L 4.02 12.04 C 3.98 23.04 3.97 34.03 3.98 45.03 C 2.76 51.97 8.07 59.05 14.98 59.98 C 25.00 60.10 35.01 60.01 45.03 60.02 C 51.98 61.23 59.04 55.94 59.98 49.01 C 60.12 36.69 59.95 24.37 59.99 12.04 L 60.96 11.98 C 61.03 23.66 61.06 35.33 60.96 47.01 C 62.03 55.08 54.00 62.54 46.02 61.02 C 35.34 60.95 24.66 61.09 13.99 60.99 C 7.09 60.04 1.71 52.97 2.98 46.02 C 3.09 34.68 2.83 23.34 3.06 12.01 Z" />
</g>
<g id="#6684a0ff">
<path fill="#6684a0" opacity="1.00" d=" M 9.14 5.42 C 10.06 4.84 11.03 4.38 12.05 4.02 C 25.35 3.97 38.65 4.00 51.96 4.01 C 52.97 4.38 53.94 4.84 54.86 5.42 C 55.23 7.29 56.71 8.77 58.58 9.14 C 59.15 10.06 59.62 11.03 59.99 12.04 C 59.95 24.37 60.12 36.69 59.98 49.01 C 59.04 55.94 51.98 61.23 45.03 60.02 C 35.01 60.01 25.00 60.10 14.98 59.98 C 8.07 59.05 2.76 51.97 3.98 45.03 C 3.97 34.03 3.98 23.04 4.02 12.04 C 4.38 11.03 4.84 10.06 5.41 9.14 C 7.29 8.77 8.77 7.29 9.14 5.42 M 8.14 10.12 C 3.63 10.87 7.52 17.59 6.01 20.01 C 4.42 26.07 9.77 29.96 14.89 30.82 C 18.43 27.71 20.14 22.19 25.15 21.09 C 23.65 22.70 22.16 24.38 21.49 26.54 C 19.82 28.15 16.84 29.25 16.94 31.94 C 20.99 32.03 25.05 32.06 29.10 32.06 C 25.09 37.79 21.18 43.32 15.86 47.91 C 26.26 48.08 36.67 48.05 47.07 47.94 C 47.21 44.42 42.54 43.64 41.10 40.91 C 39.51 37.65 36.95 35.04 34.94 32.06 C 39.35 31.89 43.76 32.04 48.17 31.90 C 46.75 30.14 45.07 28.62 43.59 26.92 C 46.03 25.11 47.24 29.91 49.16 30.77 C 52.90 29.95 57.09 28.15 57.93 23.96 C 57.87 20.21 58.89 15.21 57.30 12.23 C 55.03 8.23 50.44 6.24 46.02 5.99 C 37.34 5.97 28.66 5.93 19.99 6.04 C 15.78 5.94 11.17 7.00 8.14 10.12 Z" />
<path fill="#6684a0" opacity="1.00" d=" M 38.84 21.03 C 40.82 20.88 46.29 25.38 42.09 25.08 C 41.03 23.71 39.94 22.36 38.84 21.03 Z" />
</g>
<g id="#fafcfdff">
<path fill="#fafcfd" opacity="1.00" d=" M 8.14 10.12 C 11.17 7.00 15.78 5.94 19.99 6.04 C 28.66 5.93 37.34 5.97 46.02 5.99 C 50.44 6.24 55.03 8.23 57.30 12.23 C 53.28 11.19 50.85 6.35 46.01 8.05 C 35.67 7.93 25.32 7.91 14.99 8.01 C 11.42 7.93 9.81 11.55 7.20 13.26 C 7.49 12.21 7.81 11.16 8.14 10.12 Z" />
<path fill="#fafcfd" opacity="1.00" d=" M 25.15 21.09 C 27.73 18.83 29.14 14.60 32.77 14.09 C 34.89 16.32 36.67 18.85 38.84 21.03 C 39.94 22.36 41.03 23.71 42.09 25.08 C 42.56 25.72 43.06 26.33 43.59 26.92 C 45.07 28.62 46.75 30.14 48.17 31.90 C 43.76 32.04 39.35 31.89 34.94 32.06 C 36.95 35.04 39.51 37.65 41.10 40.91 C 42.54 43.64 47.21 44.42 47.07 47.94 C 36.67 48.05 26.26 48.08 15.86 47.91 C 21.18 43.32 25.09 37.79 29.10 32.06 C 25.05 32.06 20.99 32.03 16.94 31.94 C 16.84 29.25 19.82 28.15 21.49 26.54 C 22.16 24.38 23.65 22.70 25.15 21.09 Z" />
</g>
<g id="#9ebad3ff">
<path fill="#9ebad3" opacity="1.00" d=" M 7.20 13.26 C 9.81 11.55 11.42 7.93 14.99 8.01 C 25.32 7.91 35.67 7.93 46.01 8.05 C 50.85 6.35 53.28 11.19 57.30 12.23 C 58.89 15.21 57.87 20.21 57.93 23.96 C 57.09 28.15 52.90 29.95 49.16 30.77 C 47.24 29.91 46.03 25.11 43.59 26.92 C 43.06 26.33 42.56 25.72 42.09 25.08 C 46.29 25.38 40.82 20.88 38.84 21.03 C 36.67 18.85 34.89 16.32 32.77 14.09 C 29.14 14.60 27.73 18.83 25.15 21.09 C 20.14 22.19 18.43 27.71 14.89 30.82 C 9.77 29.96 4.42 26.07 6.01 20.01 C 7.52 17.59 3.63 10.87 8.14 10.12 C 7.81 11.16 7.49 12.21 7.20 13.26 Z" />
</g>
</svg>
