<?xml version="1.0" encoding="UTF-8" ?>
<!DOCTYPE svg PUBLIC "-//W3C//DTD SVG 1.1//EN" "http://www.w3.org/Graphics/SVG/1.1/DTD/svg11.dtd">
<svg width="64pt" height="64pt" viewBox="0 0 64 64" version="1.1" xmlns="http://www.w3.org/2000/svg">
<g id="#c0bebefe">
<path fill="#c0bebe" opacity="1.00" d=" M 4.86 10.91 C 7.21 2.85 18.69 1.73 24.10 6.94 C 21.01 8.56 17.91 10.14 14.87 11.83 C 13.11 12.65 11.60 14.09 10.83 15.88 C 10.12 17.21 9.42 18.55 8.80 19.93 C 8.26 21.00 7.80 22.11 7.30 23.21 C 3.44 21.11 3.21 14.71 4.86 10.91 Z" />
<path fill="#c0bebe" opacity="1.00" d=" M 40.61 6.48 C 44.41 3.27 50.45 2.88 54.67 5.33 C 57.32 8.44 61.70 10.91 60.00 16.00 C 62.02 19.57 59.11 22.00 56.58 23.27 C 56.21 21.85 55.91 20.41 55.47 19.01 L 55.20 18.14 C 54.62 15.05 51.56 13.40 49.11 11.88 C 46.34 10.02 42.78 9.11 40.61 6.48 Z" />
<path fill="#c0bebe" opacity="1.00" d=" M 31.02 15.01 C 33.95 14.00 32.87 17.27 32.98 18.99 C 30.05 20.00 31.13 16.73 31.02 15.01 Z" />
<path fill="#c0bebe" opacity="1.00" d=" M 22.23 18.23 C 23.63 17.17 25.83 19.37 24.77 20.77 C 23.37 21.83 21.17 19.63 22.23 18.23 Z" />
<path fill="#c0bebe" opacity="1.00" d=" M 40.26 18.09 C 42.99 17.09 42.12 21.44 39.94 21.06 C 38.17 20.80 39.09 18.51 40.26 18.09 Z" />
<path fill="#c0bebe" opacity="1.00" d=" M 30.05 21.03 C 31.35 20.95 32.65 20.95 33.95 21.03 C 33.95 22.76 33.96 26.21 33.97 27.93 C 33.04 31.60 38.75 36.47 33.64 38.51 C 30.24 39.05 27.82 41.54 25.06 43.35 C 23.02 42.45 22.95 40.65 23.82 38.84 C 25.07 38.44 26.34 38.09 27.57 37.63 C 28.38 34.39 30.17 31.35 30.03 27.93 C 30.04 26.20 30.05 22.75 30.05 21.03 Z" />
<path fill="#c0bebe" opacity="1.00" d=" M 16.23 24.23 C 17.63 23.17 19.83 25.37 18.77 26.77 C 17.37 27.83 15.17 25.63 16.23 24.23 Z" />
<path fill="#c0bebe" opacity="1.00" d=" M 46.26 24.09 C 48.99 23.09 48.12 27.44 45.94 27.06 C 44.17 26.80 45.09 24.51 46.26 24.09 Z" />
<path fill="#c0bebe" opacity="1.00" d=" M 15.48 54.80 L 16.29 55.29 C 17.53 56.33 19.26 57.16 19.07 59.07 C 17.36 59.17 15.82 58.49 14.58 57.35 C 14.80 56.71 15.25 55.43 15.48 54.80 Z" />
<path fill="#c0bebe" opacity="1.00" d=" M 44.84 56.98 C 46.25 56.32 47.62 55.61 48.98 54.88 L 49.96 54.89 L 49.95 60.11 L 48.89 60.18 C 46.71 60.31 45.60 58.80 44.84 56.98 Z" />
</g>
<g id="#53110df1">
<path fill="#53110d" opacity="0.95" d=" M 39.76 9.26 C 39.63 7.16 39.91 6.23 40.61 6.48 C 42.78 9.11 46.34 10.02 49.11 11.88 C 49.47 12.90 49.80 13.92 50.09 14.96 C 46.88 12.66 43.43 10.73 39.76 9.26 Z" />
<path fill="#53110d" opacity="0.95" d=" M 14.87 11.83 C 17.91 10.14 21.01 8.56 24.10 6.94 C 24.07 7.46 24.01 8.49 23.98 9.01 C 20.47 10.73 17.13 12.75 13.91 14.96 C 14.20 13.91 14.52 12.87 14.87 11.83 Z" />
<path fill="#53110d" opacity="0.95" d=" M 10.83 15.88 C 11.42 15.69 12.61 15.31 13.20 15.11 C 12.87 17.48 10.61 18.73 8.80 19.93 C 9.42 18.55 10.12 17.21 10.83 15.88 Z" />
<path fill="#53110d" opacity="0.95" d=" M 50.86 14.97 C 52.37 15.94 53.77 17.06 55.20 18.14 L 55.47 19.01 C 53.35 20.74 51.34 16.78 50.86 14.97 Z" />
<path fill="#53110d" opacity="0.95" d=" M 25.93 35.73 C 27.61 33.33 28.07 29.95 30.03 27.93 C 30.17 31.35 28.38 34.39 27.57 37.63 C 26.34 38.09 25.07 38.44 23.82 38.84 C 20.25 38.49 22.10 46.03 25.06 43.35 C 27.82 41.54 30.24 39.05 33.64 38.51 C 38.75 36.47 33.04 31.60 33.97 27.93 C 35.74 29.99 37.00 33.08 37.20 35.96 C 41.80 35.50 46.36 34.57 51.01 35.01 C 51.34 43.07 44.80 50.44 37.10 52.16 C 26.19 55.84 12.42 46.86 13.01 35.01 C 17.29 35.21 21.77 34.33 25.93 35.73 Z" />
<path fill="#53110d" opacity="0.95" d=" M 11.28 49.63 C 13.27 51.18 16.11 52.44 16.29 55.29 L 15.48 54.80 C 13.95 53.28 11.43 51.92 11.28 49.63 Z" />
<path fill="#53110d" opacity="0.95" d=" M 49.08 53.81 C 48.83 51.70 50.76 50.30 52.59 49.85 C 52.84 51.58 50.68 53.64 49.08 53.81 Z" />
<path fill="#53110d" opacity="0.95" d=" M 19.87 58.76 C 19.68 55.56 23.19 57.83 24.89 58.14 C 31.42 60.69 38.28 57.82 44.84 56.98 C 45.60 58.80 46.71 60.31 48.89 60.18 C 49.31 61.90 44.58 61.32 44.57 59.35 C 44.15 56.83 38.97 58.62 40.71 60.88 C 35.03 62.19 28.90 62.84 23.31 60.83 C 24.71 58.48 21.50 58.23 19.87 58.76 Z" />
</g>
<g id="#a23023fe">
<path fill="#a23023" opacity="1.00" d=" M 23.98 9.01 C 29.27 8.42 34.60 7.39 39.76 9.26 C 43.43 10.73 46.88 12.66 50.09 14.96 C 49.80 13.92 49.47 12.90 49.11 11.88 C 51.56 13.40 54.62 15.05 55.20 18.14 C 53.77 17.06 52.37 15.94 50.86 14.97 C 51.34 16.78 53.35 20.74 55.47 19.01 C 55.91 20.41 56.21 21.85 56.58 23.27 C 57.44 32.19 60.49 42.91 52.59 49.85 C 50.76 50.30 48.83 51.70 49.08 53.81 L 48.98 54.88 C 47.62 55.61 46.25 56.32 44.84 56.98 C 38.28 57.82 31.42 60.69 24.89 58.14 C 23.19 57.83 19.68 55.56 19.87 58.76 C 19.82 61.42 17.09 61.20 15.18 60.90 C 15.04 60.06 13.02 56.26 14.58 57.35 C 15.82 58.49 17.36 59.17 19.07 59.07 C 19.26 57.16 17.53 56.33 16.29 55.29 C 16.11 52.44 13.27 51.18 11.28 49.63 C 6.18 45.10 5.57 37.35 6.00 30.99 C 6.22 28.34 8.39 25.90 7.30 23.21 C 7.80 22.11 8.26 21.00 8.80 19.93 C 10.61 18.73 12.87 17.48 13.20 15.11 C 12.61 15.31 11.42 15.69 10.83 15.88 C 11.60 14.09 13.11 12.65 14.87 11.83 C 14.52 12.87 14.20 13.91 13.91 14.96 C 17.13 12.75 20.47 10.73 23.98 9.01 M 31.02 15.01 C 31.13 16.73 30.05 20.00 32.98 18.99 C 32.87 17.27 33.95 14.00 31.02 15.01 M 22.23 18.23 C 21.17 19.63 23.37 21.83 24.77 20.77 C 25.83 19.37 23.63 17.17 22.23 18.23 M 40.26 18.09 C 39.09 18.51 38.17 20.80 39.94 21.06 C 42.12 21.44 42.99 17.09 40.26 18.09 M 30.05 21.03 C 30.05 22.75 30.04 26.20 30.03 27.93 C 28.07 29.95 27.61 33.33 25.93 35.73 C 21.77 34.33 17.29 35.21 13.01 35.01 C 12.42 46.86 26.19 55.84 37.10 52.16 C 44.80 50.44 51.34 43.07 51.01 35.01 C 46.36 34.57 41.80 35.50 37.20 35.96 C 37.00 33.08 35.74 29.99 33.97 27.93 C 33.96 26.21 33.95 22.76 33.95 21.03 C 32.65 20.95 31.35 20.95 30.05 21.03 M 16.23 24.23 C 15.17 25.63 17.37 27.83 18.77 26.77 C 19.83 25.37 17.63 23.17 16.23 24.23 M 46.26 24.09 C 45.09 24.51 44.17 26.80 45.94 27.06 C 48.12 27.44 48.99 23.09 46.26 24.09 Z" />
<path fill="#a23023" opacity="1.00" d=" M 25.06 43.35 C 22.10 46.03 20.25 38.49 23.82 38.84 C 22.95 40.65 23.02 42.45 25.06 43.35 Z" />
</g>
</svg>
