<?xml version="1.0" encoding="UTF-8" ?>
<!DOCTYPE svg PUBLIC "-//W3C//DTD SVG 1.1//EN" "http://www.w3.org/Graphics/SVG/1.1/DTD/svg11.dtd">
<svg width="64pt" height="64pt" viewBox="0 0 64 64" version="1.1" xmlns="http://www.w3.org/2000/svg">
<g id="#a7542fff">
<path fill="#a7542f" opacity="1.00" d=" M 12.04 5.14 C 18.87 3.26 26.05 4.25 33.04 4.00 C 38.69 4.20 44.59 3.34 50.01 5.30 C 46.66 6.39 43.20 7.12 39.73 7.75 C 41.07 8.04 42.42 8.33 43.77 8.62 C 43.17 10.01 42.50 11.37 41.91 12.77 L 41.76 13.13 C 41.21 13.16 40.10 13.22 39.55 13.25 C 39.59 11.68 39.63 10.11 39.67 8.55 C 37.49 8.18 35.31 7.80 33.11 7.59 C 31.86 7.84 30.61 8.11 29.37 8.39 C 29.37 10.05 29.37 11.71 29.37 13.37 C 27.94 13.35 26.52 13.32 25.09 13.29 C 24.95 11.58 24.81 9.87 24.67 8.16 C 23.69 8.38 22.71 8.59 21.72 8.80 C 21.74 10.28 21.75 11.75 21.76 13.23 C 21.27 13.22 20.29 13.20 19.80 13.19 C 19.63 11.81 19.47 10.43 19.31 9.05 C 19.67 8.61 20.39 7.72 20.76 7.28 C 17.77 6.92 14.84 6.22 12.04 5.14 Z" />
</g>
<g id="#492712ff">
<path fill="#492712" opacity="1.00" d=" M 12.18 12.08 C 12.14 9.77 12.12 7.45 12.04 5.14 C 14.84 6.22 17.77 6.92 20.76 7.28 C 20.39 7.72 19.67 8.61 19.31 9.05 C 19.47 10.43 19.63 11.81 19.80 13.19 C 18.92 13.09 17.18 12.88 16.31 12.77 C 14.92 12.59 13.55 12.32 12.18 12.08 Z" />
<path fill="#492712" opacity="1.00" d=" M 39.73 7.75 C 43.20 7.12 46.66 6.39 50.01 5.30 C 49.90 7.53 49.89 9.77 49.91 12.00 C 48.48 12.28 47.05 12.68 45.58 12.74 C 44.67 12.75 42.83 12.76 41.91 12.77 C 42.50 11.37 43.17 10.01 43.77 8.62 C 42.42 8.33 41.07 8.04 39.73 7.75 Z" />
</g>
<g id="#c06f43ff">
<path fill="#c06f43" opacity="1.00" d=" M 21.72 8.80 C 22.71 8.59 23.69 8.38 24.67 8.16 C 24.81 9.87 24.95 11.58 25.09 13.29 C 24.26 13.28 22.60 13.24 21.76 13.23 C 21.75 11.75 21.74 10.28 21.72 8.80 Z" />
</g>
<g id="#fea467ff">
<path fill="#fea467" opacity="1.00" d=" M 29.37 8.39 C 30.61 8.11 31.86 7.84 33.11 7.59 C 33.41 9.52 33.71 11.44 34.00 13.37 C 32.46 13.38 30.91 13.39 29.37 13.37 C 29.37 11.71 29.37 10.05 29.37 8.39 Z" />
</g>
<g id="#dd8655ff">
<path fill="#dd8655" opacity="1.00" d=" M 33.11 7.59 C 35.31 7.80 37.49 8.18 39.67 8.55 C 39.63 10.11 39.59 11.68 39.55 13.25 C 37.70 13.30 35.85 13.34 34.00 13.37 C 33.71 11.44 33.41 9.52 33.11 7.59 Z" />
</g>
<g id="#70655dff">
<path fill="#70655d" opacity="1.00" d=" M 16.31 12.77 C 17.18 12.88 18.92 13.09 19.80 13.19 C 20.50 15.55 21.14 17.93 21.62 20.34 C 21.72 20.81 21.93 21.75 22.03 22.22 C 20.53 21.32 18.96 20.53 17.40 19.74 C 16.99 17.42 16.61 15.10 16.31 12.77 Z" />
</g>
<g id="#aaa29aff">
<path fill="#aaa29a" opacity="1.00" d=" M 19.80 13.19 C 20.29 13.20 21.27 13.22 21.76 13.23 C 22.60 13.24 24.26 13.28 25.09 13.29 C 26.52 13.32 27.94 13.35 29.37 13.37 C 30.91 13.39 32.46 13.38 34.00 13.37 C 35.85 13.34 37.70 13.30 39.55 13.25 C 40.10 13.22 41.21 13.16 41.76 13.13 C 41.25 15.51 40.96 17.93 40.47 20.31 C 34.57 23.27 27.54 23.22 21.62 20.34 C 21.14 17.93 20.50 15.55 19.80 13.19 Z" />
</g>
<g id="#71655dff">
<path fill="#71655d" opacity="1.00" d=" M 41.76 13.13 L 41.91 12.77 C 42.83 12.76 44.67 12.75 45.58 12.74 C 45.29 15.12 44.95 17.50 44.50 19.86 C 43.00 20.57 41.50 21.28 40.06 22.12 C 40.17 21.67 40.37 20.76 40.47 20.31 C 40.96 17.93 41.25 15.51 41.76 13.13 Z" />
</g>
<g id="#61534aff">
<path fill="#61534a" opacity="1.00" d=" M 17.40 19.74 C 18.96 20.53 20.53 21.32 22.03 22.22 C 24.32 26.12 29.23 27.77 30.80 32.13 C 30.10 33.53 28.60 33.51 27.27 33.65 L 26.37 32.52 C 24.75 30.19 21.99 28.98 20.44 26.58 C 19.04 24.50 18.20 22.10 17.40 19.74 Z" />
<path fill="#61534a" opacity="1.00" d=" M 40.06 22.12 C 41.50 21.28 43.00 20.57 44.50 19.86 C 43.63 22.60 42.61 25.39 40.72 27.61 C 39.11 29.45 36.91 30.61 35.16 32.29 C 34.67 32.78 33.67 33.75 33.18 34.24 C 32.68 32.99 30.75 31.58 31.90 30.23 C 34.46 27.37 38.03 25.49 40.06 22.12 Z" />
</g>
<g id="#95887fff">
<path fill="#95887f" opacity="1.00" d=" M 21.62 20.34 C 27.54 23.22 34.57 23.27 40.47 20.31 C 40.37 20.76 40.17 21.67 40.06 22.12 C 38.03 25.49 34.46 27.37 31.90 30.23 C 30.75 31.58 32.68 32.99 33.18 34.24 C 32.30 35.10 31.42 35.94 30.54 36.80 C 29.43 35.77 28.30 34.75 27.27 33.65 C 28.60 33.51 30.10 33.53 30.80 32.13 C 29.23 27.77 24.32 26.12 22.03 22.22 C 21.93 21.75 21.72 20.81 21.62 20.34 Z" />
</g>
<g id="#a8a19dff">
<path fill="#a8a19d" opacity="1.00" d=" M 17.79 43.06 C 19.09 38.52 22.45 34.98 26.37 32.52 L 27.27 33.65 C 28.30 34.75 29.43 35.77 30.54 36.80 C 31.42 35.94 32.30 35.10 33.18 34.24 C 33.67 33.75 34.67 32.78 35.16 32.29 C 41.47 35.71 44.94 42.47 45.70 49.42 C 45.56 49.85 45.28 50.70 45.15 51.13 C 44.93 51.42 44.51 51.98 44.30 52.26 L 43.17 52.71 C 41.18 48.36 40.97 43.12 37.65 39.45 C 36.27 37.80 34.31 36.80 32.51 35.69 C 31.43 40.83 31.61 46.10 31.07 51.30 C 29.02 46.33 30.14 40.80 28.43 35.76 C 25.96 37.85 23.26 39.98 22.02 43.08 C 20.79 46.14 20.60 49.75 17.89 52.01 L 17.33 51.71 C 15.23 49.15 17.07 45.83 17.79 43.06 Z" />
</g>
<g id="#f5f6f6ff">
<path fill="#f5f6f6" opacity="1.00" d=" M 22.02 43.08 C 23.26 39.98 25.96 37.85 28.43 35.76 C 30.14 40.80 29.02 46.33 31.07 51.30 C 31.61 46.10 31.43 40.83 32.51 35.69 C 34.31 36.80 36.27 37.80 37.65 39.45 C 40.97 43.12 41.18 48.36 43.17 52.71 C 35.41 54.12 27.45 53.77 19.64 53.08 C 19.20 52.82 18.33 52.28 17.89 52.01 C 20.60 49.75 20.79 46.14 22.02 43.08 Z" />
</g>
<g id="#e65510ff">
<path fill="#e65510" opacity="1.00" d=" M 11.71 51.07 C 12.95 50.53 14.19 49.98 15.43 49.43 C 15.82 50.44 16.45 51.20 17.33 51.71 L 17.89 52.01 C 18.33 52.28 19.20 52.82 19.64 53.08 C 27.45 53.77 35.41 54.12 43.17 52.71 L 44.30 52.26 C 44.51 51.98 44.93 51.42 45.15 51.13 C 45.49 50.70 46.18 49.83 46.53 49.40 C 47.76 50.00 48.98 50.62 50.18 51.29 C 48.58 52.05 46.98 52.84 45.31 53.45 C 43.83 53.88 42.34 54.29 40.84 54.63 C 37.16 55.33 33.34 54.66 29.74 55.86 C 27.12 56.81 24.65 55.00 22.15 54.45 C 20.24 54.05 18.30 53.76 16.39 53.32 C 14.94 52.70 13.52 51.98 12.11 51.27 L 11.71 51.07 Z" />
</g>
<g id="#381004ff">
<path fill="#381004" opacity="1.00" d=" M 12.11 51.27 C 13.52 51.98 14.94 52.70 16.39 53.32 C 16.53 55.40 16.68 57.48 16.83 59.56 C 15.29 59.07 13.74 58.57 12.20 58.07 C 12.13 55.81 12.11 53.54 12.11 51.27 Z" />
</g>
<g id="#180201ff">
<path fill="#180201" opacity="1.00" d=" M 45.31 53.45 C 46.98 52.84 48.58 52.05 50.18 51.29 C 50.00 53.52 49.90 55.75 49.77 57.99 C 48.37 58.55 46.97 59.11 45.57 59.68 L 45.55 59.28 C 45.47 57.33 45.39 55.39 45.31 53.45 Z" />
</g>
<g id="#561b08ff">
<path fill="#561b08" opacity="1.00" d=" M 16.39 53.32 C 18.30 53.76 20.24 54.05 22.15 54.45 C 22.69 56.41 23.21 58.38 23.72 60.34 C 21.40 60.36 19.10 60.07 16.83 59.56 C 16.68 57.48 16.53 55.40 16.39 53.32 Z" />
</g>
<g id="#8d3c19ff">
<path fill="#8d3c19" opacity="1.00" d=" M 22.15 54.45 C 24.65 55.00 27.12 56.81 29.74 55.86 C 33.34 54.66 37.16 55.33 40.84 54.63 C 40.60 56.57 40.36 58.50 40.13 60.44 C 39.55 60.41 38.38 60.34 37.80 60.31 C 36.84 58.96 37.04 56.19 35.02 55.96 C 33.44 56.79 33.83 58.97 33.15 60.39 C 30.01 60.36 26.87 60.30 23.72 60.34 C 23.21 58.38 22.69 56.41 22.15 54.45 Z" />
</g>
<g id="#5b1f0aff">
<path fill="#5b1f0a" opacity="1.00" d=" M 40.84 54.63 C 42.34 54.29 43.83 53.88 45.31 53.45 C 45.39 55.39 45.47 57.33 45.55 59.28 C 43.77 59.78 41.97 60.19 40.13 60.44 C 40.36 58.50 40.60 56.57 40.84 54.63 Z" />
</g>
<g id="#72210bff">
<path fill="#72210b" opacity="1.00" d=" M 33.15 60.39 C 33.83 58.97 33.44 56.79 35.02 55.96 C 37.04 56.19 36.84 58.96 37.80 60.31 C 36.63 60.33 34.31 60.37 33.15 60.39 Z" />
</g>
</svg>
