<?xml version="1.0" encoding="UTF-8" ?>
<!DOCTYPE svg PUBLIC "-//W3C//DTD SVG 1.1//EN" "http://www.w3.org/Graphics/SVG/1.1/DTD/svg11.dtd">
<svg width="64pt" height="64pt" viewBox="0 0 64 64" version="1.1" xmlns="http://www.w3.org/2000/svg">
<g id="#00516ddb">
<path fill="#00516d" opacity="0.86" d=" M 10.36 13.10 C 20.70 -0.15 43.25 -0.18 53.61 13.06 C 50.16 11.37 47.62 8.30 44.03 6.85 C 35.94 3.01 25.88 3.34 18.09 7.81 C 15.37 9.36 13.20 11.73 10.36 13.10 Z" />
</g>
<g id="#0383b2fc">
<path fill="#0383b2" opacity="1.00" d=" M 18.09 7.81 C 25.88 3.34 35.94 3.01 44.03 6.85 C 47.62 8.30 50.16 11.37 53.61 13.06 C 53.71 13.18 53.91 13.40 54.01 13.52 C 55.45 17.03 57.28 20.37 59.48 23.46 C 59.55 23.69 59.68 24.15 59.75 24.38 C 59.81 28.78 59.91 33.19 60.29 37.57 C 60.25 37.76 60.17 38.12 60.14 38.30 C 58.39 39.89 58.12 42.39 57.69 44.58 C 57.67 44.73 57.62 45.02 57.60 45.17 C 54.71 50.60 50.15 55.08 44.66 57.87 C 42.39 57.70 40.03 58.46 38.41 60.09 C 25.92 63.08 12.22 56.61 6.42 45.21 C 6.40 45.05 6.35 44.74 6.32 44.58 C 5.88 42.41 5.62 39.91 3.87 38.35 C 3.84 38.18 3.76 37.83 3.72 37.65 C 4.10 33.22 4.17 28.77 4.26 24.32 C 4.33 24.10 4.46 23.67 4.52 23.45 C 6.71 20.37 8.55 17.06 9.96 13.56 C 10.06 13.44 10.26 13.21 10.36 13.10 C 13.20 11.73 15.37 9.36 18.09 7.81 M 21.46 8.58 C 14.96 11.51 9.85 17.36 7.70 24.14 L 6.60 24.25 C 3.47 33.63 6.19 44.74 13.49 51.48 C 20.77 58.80 32.42 60.88 41.95 57.18 C 46.81 55.05 51.13 51.63 54.14 47.24 C 58.72 40.62 59.84 31.82 57.45 24.20 L 56.30 24.14 C 54.37 18.06 50.05 12.72 44.49 9.58 C 37.57 5.59 28.71 5.23 21.46 8.58 Z" />
</g>
<g id="#ffffffff">
<path fill="#ffffff" opacity="1.00" d=" M 21.46 8.58 C 28.71 5.23 37.57 5.59 44.49 9.58 C 50.05 12.72 54.37 18.06 56.30 24.14 C 56.47 25.60 56.57 27.08 56.66 28.55 C 56.29 27.00 55.96 25.43 55.61 23.88 C 54.64 20.79 52.49 18.26 50.41 15.85 C 40.37 4.75 20.34 5.80 11.69 18.07 C 10.38 19.86 9.03 21.70 8.40 23.86 C 8.04 25.42 7.72 26.99 7.33 28.55 C 7.42 27.07 7.55 25.60 7.70 24.14 C 9.85 17.36 14.96 11.51 21.46 8.58 Z" />
<path fill="#ffffff" opacity="1.00" d=" M 15.95 17.26 C 19.01 17.27 22.06 17.21 25.11 17.24 C 25.71 19.08 26.44 20.88 27.07 22.71 C 28.62 27.69 30.21 32.67 32.04 37.55 C 34.06 32.69 35.36 27.55 36.94 22.53 C 37.51 20.78 38.11 19.04 38.69 17.29 C 41.77 17.17 44.86 17.27 47.94 17.26 C 47.80 19.24 47.80 21.22 47.80 23.20 C 47.85 31.01 47.71 38.83 47.84 46.65 C 45.90 46.68 43.96 46.68 42.02 46.67 C 41.85 39.80 42.44 32.85 41.43 26.03 C 39.34 32.98 36.78 39.77 34.43 46.64 C 32.76 46.67 31.09 46.67 29.43 46.67 C 26.87 39.79 24.79 32.74 21.88 26.00 C 21.85 32.89 21.82 39.77 21.91 46.66 C 19.95 46.68 17.99 46.68 16.03 46.64 C 16.13 38.45 16.04 30.25 16.10 22.05 C 16.08 20.45 16.06 18.86 15.95 17.26 Z" />
</g>
<g id="#3fcdeeff">
<path fill="#3fcdee" opacity="1.00" d=" M 11.69 18.07 C 20.34 5.80 40.37 4.75 50.41 15.85 C 49.92 15.87 48.93 15.91 48.44 15.93 C 44.95 16.17 41.43 15.63 37.97 16.25 C 34.29 17.77 30.19 18.24 26.36 16.96 C 26.03 16.72 25.36 16.24 25.02 16.01 C 21.94 15.94 18.85 15.89 15.76 16.04 C 14.37 16.64 13.02 17.34 11.69 18.07 Z" />
</g>
<g id="#014d6cd8">
<path fill="#014d6c" opacity="0.85" d=" M 4.52 23.45 C 5.52 19.80 7.38 16.33 9.96 13.56 C 8.55 17.06 6.71 20.37 4.52 23.45 Z" />
</g>
<g id="#014d6bd8">
<path fill="#014d6b" opacity="0.85" d=" M 54.01 13.52 C 56.61 16.30 58.49 19.79 59.48 23.46 C 57.28 20.37 55.45 17.03 54.01 13.52 Z" />
</g>
<g id="#22c5ebff">
<path fill="#22c5eb" opacity="1.00" d=" M 11.69 18.07 C 13.02 17.34 14.37 16.64 15.76 16.04 L 15.95 17.26 C 16.06 18.86 16.08 20.45 16.10 22.05 C 14.37 24.89 11.25 24.87 8.40 23.86 C 9.03 21.70 10.38 19.86 11.69 18.07 Z" />
<path fill="#22c5eb" opacity="1.00" d=" M 26.36 16.96 C 30.19 18.24 34.29 17.77 37.97 16.25 C 37.62 17.46 37.29 18.69 36.97 19.91 C 35.97 21.58 34.79 23.13 33.62 24.68 C 32.51 24.64 31.40 24.62 30.29 24.62 C 29.17 23.08 28.03 21.54 27.06 19.90 C 26.89 19.16 26.54 17.69 26.36 16.96 Z" />
</g>
<g id="#2582a9ff">
<path fill="#2582a9" opacity="1.00" d=" M 15.76 16.04 C 18.85 15.89 21.94 15.94 25.02 16.01 C 25.36 16.24 26.03 16.72 26.36 16.96 C 26.54 17.69 26.89 19.16 27.06 19.90 C 27.06 20.60 27.07 22.01 27.07 22.71 C 26.44 20.88 25.71 19.08 25.11 17.24 C 22.06 17.21 19.01 17.27 15.95 17.26 L 15.76 16.04 Z" />
</g>
<g id="#237ea6ff">
<path fill="#237ea6" opacity="1.00" d=" M 37.97 16.25 C 41.43 15.63 44.95 16.17 48.44 15.93 L 47.94 17.26 C 44.86 17.27 41.77 17.17 38.69 17.29 C 38.11 19.04 37.51 20.78 36.94 22.53 C 36.95 21.87 36.96 20.57 36.97 19.91 C 37.29 18.69 37.62 17.46 37.97 16.25 Z" />
</g>
<g id="#21c4ebff">
<path fill="#21c4eb" opacity="1.00" d=" M 48.44 15.93 C 48.93 15.91 49.92 15.87 50.41 15.85 C 52.49 18.26 54.64 20.79 55.61 23.88 C 52.96 24.80 50.25 24.51 47.80 23.20 C 47.80 21.22 47.80 19.24 47.94 17.26 L 48.44 15.93 Z" />
</g>
<g id="#00acddff">
<path fill="#00acdd" opacity="1.00" d=" M 27.06 19.90 C 28.03 21.54 29.17 23.08 30.29 24.62 C 31.40 24.62 32.51 24.64 33.62 24.68 C 34.79 23.13 35.97 21.58 36.97 19.91 C 36.96 20.57 36.95 21.87 36.94 22.53 C 35.36 27.55 34.06 32.69 32.04 37.55 C 30.21 32.67 28.62 27.69 27.07 22.71 C 27.07 22.01 27.06 20.60 27.06 19.90 Z" />
</g>
<g id="#00a9e2ff">
<path fill="#00a9e2" opacity="1.00" d=" M 8.40 23.86 C 11.25 24.87 14.37 24.89 16.10 22.05 C 16.04 30.25 16.13 38.45 16.03 46.64 C 17.99 46.68 19.95 46.68 21.91 46.66 C 21.82 39.77 21.85 32.89 21.88 26.00 C 24.79 32.74 26.87 39.79 29.43 46.67 C 31.09 46.67 32.76 46.67 34.43 46.64 C 36.78 39.77 39.34 32.98 41.43 26.03 C 42.44 32.85 41.85 39.80 42.02 46.67 C 43.96 46.68 45.90 46.68 47.84 46.65 C 47.71 38.83 47.85 31.01 47.80 23.20 C 50.25 24.51 52.96 24.80 55.61 23.88 C 55.96 25.43 56.29 27.00 56.66 28.55 C 56.57 27.08 56.47 25.60 56.30 24.14 L 57.45 24.20 C 59.84 31.82 58.72 40.62 54.14 47.24 C 51.13 51.63 46.81 55.05 41.95 57.18 C 32.42 60.88 20.77 58.80 13.49 51.48 C 6.19 44.74 3.47 33.63 6.60 24.25 L 7.70 24.14 C 7.55 25.60 7.42 27.07 7.33 28.55 C 7.72 26.99 8.04 25.42 8.40 23.86 Z" />
</g>
<g id="#004463c8">
<path fill="#004463" opacity="0.78" d=" M 3.72 37.65 C 2.48 33.30 2.73 28.57 4.26 24.32 C 4.17 28.77 4.10 33.22 3.72 37.65 Z" />
<path fill="#004463" opacity="0.78" d=" M 59.75 24.38 C 61.28 28.59 61.50 33.26 60.29 37.57 C 59.91 33.19 59.81 28.78 59.75 24.38 Z" />
</g>
<g id="#003a58b7">
<path fill="#003a58" opacity="0.72" d=" M 3.87 38.35 C 5.62 39.91 5.88 42.41 6.32 44.58 C 4.33 43.29 3.94 40.55 3.87 38.35 Z" />
<path fill="#003a58" opacity="0.72" d=" M 57.69 44.58 C 58.12 42.39 58.39 39.89 60.14 38.30 C 60.08 40.52 59.67 43.24 57.69 44.58 Z" />
</g>
<g id="#00000026">
<path fill="#000000" opacity="0.15" d=" M 13.81 57.22 C 10.27 54.10 6.36 50.29 6.42 45.21 C 12.22 56.61 25.92 63.08 38.41 60.09 C 40.69 60.19 42.97 59.40 44.66 57.87 C 50.15 55.08 54.71 50.60 57.60 45.17 C 57.39 46.91 57.32 48.77 56.29 50.28 C 51.52 58.26 42.65 62.96 33.57 64.00 L 30.47 64.00 C 24.48 63.15 18.46 61.23 13.81 57.22 Z" />
</g>
<g id="#003b5fb8">
<path fill="#003b5f" opacity="0.72" d=" M 38.41 60.09 C 40.03 58.46 42.39 57.70 44.66 57.87 C 42.97 59.40 40.69 60.19 38.41 60.09 Z" />
</g>
</svg>
