<?xml version="1.0" encoding="UTF-8" ?>
<!DOCTYPE svg PUBLIC "-//W3C//DTD SVG 1.1//EN" "http://www.w3.org/Graphics/SVG/1.1/DTD/svg11.dtd">
<svg width="64pt" height="64pt" viewBox="0 0 64 64" version="1.1" xmlns="http://www.w3.org/2000/svg">
<g id="#0d0d0df0">
<path fill="#0d0d0d" opacity="0.94" d=" M 15.11 16.25 C 26.04 16.09 36.97 16.08 47.89 16.25 C 48.08 27.13 47.95 38.02 47.96 48.90 C 36.99 49.05 26.01 49.04 15.05 48.90 C 15.05 38.02 14.91 27.13 15.11 16.25 M 16.58 17.79 C 16.62 19.28 16.66 20.76 16.69 22.25 C 16.64 24.01 16.59 25.76 16.50 27.52 C 16.02 31.78 16.54 36.05 16.62 40.32 C 16.63 42.58 16.73 44.85 16.89 47.11 C 26.64 47.77 36.44 47.71 46.19 47.14 C 46.31 44.86 46.37 42.59 46.38 40.31 C 46.48 36.11 46.96 31.91 46.51 27.71 C 46.48 26.54 46.41 24.21 46.38 23.04 C 46.35 21.73 46.31 20.42 46.27 19.11 L 47.04 18.99 C 45.87 18.08 44.55 17.68 43.08 17.81 C 34.32 17.89 25.57 17.73 16.81 17.91 L 16.58 17.79 Z" />
</g>
<g id="#838383ff">
<path fill="#838383" opacity="1.00" d=" M 16.58 17.79 L 16.81 17.91 C 18.74 18.93 20.74 19.94 22.95 20.15 C 30.72 21.06 38.59 20.52 46.27 19.11 C 46.31 20.42 46.35 21.73 46.38 23.04 C 41.47 23.69 36.81 25.44 31.95 26.27 C 26.68 25.84 21.67 23.90 16.69 22.25 C 16.66 20.76 16.62 19.28 16.58 17.79 Z" />
</g>
<g id="#bababaff">
<path fill="#bababa" opacity="1.00" d=" M 16.81 17.91 C 25.57 17.73 34.32 17.89 43.08 17.81 C 44.55 17.68 45.87 18.08 47.04 18.99 L 46.27 19.11 C 38.59 20.52 30.72 21.06 22.95 20.15 C 20.74 19.94 18.74 18.93 16.81 17.91 Z" />
</g>
<g id="#5c5c5cff">
<path fill="#5c5c5c" opacity="1.00" d=" M 16.69 22.25 C 21.67 23.90 26.68 25.84 31.95 26.27 C 36.81 25.44 41.47 23.69 46.38 23.04 C 46.41 24.21 46.48 26.54 46.51 27.71 C 37.43 32.63 25.43 32.90 16.50 27.52 C 16.59 25.76 16.64 24.01 16.69 22.25 Z" />
</g>
<g id="#242424ff">
<path fill="#242424" opacity="1.00" d=" M 16.62 40.32 C 16.54 36.05 16.02 31.78 16.50 27.52 C 25.43 32.90 37.43 32.63 46.51 27.71 C 46.96 31.91 46.48 36.11 46.38 40.31 C 41.59 41.16 36.80 42.19 31.93 42.28 C 26.76 42.31 21.69 41.22 16.62 40.32 Z" />
</g>
<g id="#181818ff">
<path fill="#181818" opacity="1.00" d=" M 16.62 40.32 C 21.69 41.22 26.76 42.31 31.93 42.28 C 36.80 42.19 41.59 41.16 46.38 40.31 C 46.37 42.59 46.31 44.86 46.19 47.14 C 36.44 47.71 26.64 47.77 16.89 47.11 C 16.73 44.85 16.63 42.58 16.62 40.32 Z" />
</g>
</svg>
