<?xml version="1.0" encoding="UTF-8" ?>
<!DOCTYPE svg PUBLIC "-//W3C//DTD SVG 1.1//EN" "http://www.w3.org/Graphics/SVG/1.1/DTD/svg11.dtd">
<svg width="64pt" height="64pt" viewBox="0 0 64 64" version="1.1" xmlns="http://www.w3.org/2000/svg">
<g id="#6a90b1ff">
<path fill="#6a90b1" opacity="1.00" d=" M 6.68 6.99 C 8.90 4.81 11.88 3.31 15.04 3.39 C 26.35 3.36 37.66 3.36 48.97 3.39 C 51.83 3.34 54.60 4.54 56.71 6.43 C 57.71 9.28 59.91 11.80 59.71 14.98 C 59.79 19.18 59.67 23.38 59.57 27.58 C 57.99 30.86 58.12 34.58 57.04 38.00 C 56.71 39.89 54.59 40.05 53.05 40.18 C 47.25 40.40 41.28 40.72 35.68 38.86 C 39.71 36.56 43.79 34.32 47.89 32.13 C 47.14 31.75 45.62 30.99 44.87 30.61 C 45.48 27.96 48.23 30.80 49.94 30.49 C 52.94 29.93 56.36 28.36 57.34 25.22 C 58.16 22.12 58.08 18.87 57.96 15.69 C 57.93 14.28 57.60 12.87 56.86 11.66 C 55.00 8.09 51.11 5.85 47.09 5.97 C 37.06 5.94 27.02 5.94 16.99 5.96 C 12.96 5.82 9.06 8.05 7.15 11.61 C 6.17 13.12 6.08 14.96 6.10 16.71 C 6.26 20.41 5.24 24.92 8.21 27.80 C 11.06 30.18 14.85 30.83 18.36 31.67 C 18.27 34.41 18.16 37.16 17.67 39.87 C 14.40 40.52 10.86 40.65 7.72 39.36 C 5.56 35.80 6.29 31.29 4.43 27.57 C 4.33 23.35 4.21 19.14 4.29 14.92 C 4.09 12.02 6.19 9.74 6.68 6.99 Z" />
</g>
<g id="#e1e9f2ff">
<path fill="#e1e9f2" opacity="1.00" d=" M 7.15 11.61 C 9.06 8.05 12.96 5.82 16.99 5.96 C 27.02 5.94 37.06 5.94 47.09 5.97 C 51.11 5.85 55.00 8.09 56.86 11.66 C 53.84 11.62 52.27 7.85 49.04 8.19 C 37.68 7.93 26.30 8.04 14.94 8.19 C 11.72 7.82 10.16 11.71 7.15 11.61 Z" />
</g>
<g id="#3e5571e6">
<path fill="#3e5571" opacity="0.90" d=" M 56.71 6.43 C 59.71 8.54 60.92 12.42 60.89 15.96 C 60.87 26.65 60.83 37.35 60.83 48.04 C 60.89 49.67 60.58 51.27 60.26 52.85 C 58.34 57.32 54.02 60.78 49.04 60.80 C 37.66 60.82 26.28 60.83 14.90 60.79 C 9.94 60.75 5.63 57.28 3.74 52.82 C 3.41 51.25 3.11 49.67 3.17 48.06 C 3.17 37.35 3.13 26.64 3.11 15.93 C 3.09 12.67 4.08 9.13 6.68 6.99 C 6.19 9.74 4.09 12.02 4.29 14.92 C 4.21 19.14 4.33 23.35 4.43 27.57 C 4.27 34.72 4.44 41.89 4.68 49.04 C 4.95 54.82 10.20 59.68 15.98 59.47 C 26.65 59.49 37.31 59.49 47.98 59.48 C 53.79 59.69 59.07 54.82 59.32 49.01 C 59.56 41.87 59.73 34.72 59.57 27.58 C 59.67 23.38 59.79 19.18 59.71 14.98 C 59.91 11.80 57.71 9.28 56.71 6.43 Z" />
</g>
<g id="#a1bdd7ff">
<path fill="#a1bdd7" opacity="1.00" d=" M 7.15 11.61 C 10.16 11.71 11.72 7.82 14.94 8.19 C 26.30 8.04 37.68 7.93 49.04 8.19 C 52.27 7.85 53.84 11.62 56.86 11.66 C 57.60 12.87 57.93 14.28 57.96 15.69 C 57.56 17.26 57.03 18.79 56.49 20.32 C 48.20 20.48 39.82 19.55 31.58 20.58 C 31.03 20.94 29.93 21.66 29.38 22.02 C 25.89 20.36 22.73 18.07 19.18 16.53 C 18.57 17.85 17.89 19.14 17.20 20.43 C 13.99 20.99 10.70 21.50 7.44 21.26 C 6.97 19.76 6.44 18.26 6.10 16.71 C 6.08 14.96 6.17 13.12 7.15 11.61 Z" />
</g>
<g id="#8fadcaff">
<path fill="#8fadca" opacity="1.00" d=" M 56.49 20.32 C 57.03 18.79 57.56 17.26 57.96 15.69 C 58.08 18.87 58.16 22.12 57.34 25.22 C 56.36 28.36 52.94 29.93 49.94 30.49 C 48.23 30.80 45.48 27.96 44.87 30.61 C 39.66 27.83 34.55 24.88 29.38 22.02 C 29.93 21.66 31.03 20.94 31.58 20.58 C 39.82 19.55 48.20 20.48 56.49 20.32 Z" />
</g>
<g id="#8caac8ff">
<path fill="#8caac8" opacity="1.00" d=" M 6.10 16.71 C 6.44 18.26 6.97 19.76 7.44 21.26 C 10.70 21.50 13.99 20.99 17.20 20.43 C 17.89 19.14 18.57 17.85 19.18 16.53 C 19.21 21.64 19.31 26.76 19.24 31.88 L 18.36 31.67 C 14.85 30.83 11.06 30.18 8.21 27.80 C 5.24 24.92 6.26 20.41 6.10 16.71 Z" />
</g>
<g id="#ffffffff">
<path fill="#ffffff" opacity="1.00" d=" M 19.18 16.53 C 22.73 18.07 25.89 20.36 29.38 22.02 C 34.55 24.88 39.66 27.83 44.87 30.61 C 45.62 30.99 47.14 31.75 47.89 32.13 C 43.79 34.32 39.71 36.56 35.68 38.86 C 30.20 41.91 24.72 44.97 19.23 47.99 C 19.24 42.62 19.23 37.25 19.24 31.88 C 19.31 26.76 19.21 21.64 19.18 16.53 Z" />
</g>
<g id="#6284a2ff">
<path fill="#6284a2" opacity="1.00" d=" M 4.43 27.57 C 6.29 31.29 5.56 35.80 7.72 39.36 C 10.86 40.65 14.40 40.52 17.67 39.87 C 18.16 37.16 18.27 34.41 18.36 31.67 L 19.24 31.88 C 19.23 37.25 19.24 42.62 19.23 47.99 C 24.72 44.97 30.20 41.91 35.68 38.86 C 41.28 40.72 47.25 40.40 53.05 40.18 C 54.59 40.05 56.71 39.89 57.04 38.00 C 58.12 34.58 57.99 30.86 59.57 27.58 C 59.73 34.72 59.56 41.87 59.32 49.01 C 59.07 54.82 53.79 59.69 47.98 59.48 C 37.31 59.49 26.65 59.49 15.98 59.47 C 10.20 59.68 4.95 54.82 4.68 49.04 C 4.44 41.89 4.27 34.72 4.43 27.57 Z" />
</g>
<g id="#00000026">
<path fill="#000000" opacity="0.15" d=" M 3.74 52.82 C 5.63 57.28 9.94 60.75 14.90 60.79 C 26.28 60.83 37.66 60.82 49.04 60.80 C 54.02 60.78 58.34 57.32 60.26 52.85 C 60.47 58.57 55.65 62.46 50.65 64.00 L 13.41 64.00 C 8.34 62.52 3.54 58.56 3.74 52.82 Z" />
</g>
</svg>
