<?xml version="1.0" encoding="UTF-8" ?>
<!DOCTYPE svg PUBLIC "-//W3C//DTD SVG 1.1//EN" "http://www.w3.org/Graphics/SVG/1.1/DTD/svg11.dtd">
<svg width="64pt" height="64pt" viewBox="0 0 64 64" version="1.1" xmlns="http://www.w3.org/2000/svg">
<g id="#6a90b1ff">
<path fill="#6a90b1" opacity="1.00" d=" M 7.46 6.32 C 9.51 4.44 12.27 3.33 15.06 3.38 C 26.37 3.36 37.69 3.36 49.01 3.38 C 51.77 3.34 54.50 4.45 56.53 6.31 C 57.41 8.94 59.65 11.11 59.65 14.00 C 59.85 18.53 59.63 23.05 59.58 27.58 C 58.04 31.40 58.03 35.65 56.41 39.43 C 53.22 40.66 49.62 40.63 46.35 39.71 C 45.90 37.16 45.84 34.57 45.66 32.00 C 49.12 30.85 52.91 30.19 55.82 27.86 C 58.65 25.30 57.71 21.13 57.95 17.76 C 58.01 16.13 58.00 14.47 57.50 12.91 C 57.33 12.59 56.99 11.95 56.82 11.63 C 54.98 8.04 51.05 5.85 47.05 5.96 C 37.02 5.94 26.99 5.94 16.96 5.96 C 12.93 5.84 8.96 8.06 7.15 11.70 C 6.18 13.16 6.15 14.97 6.18 16.67 C 6.21 19.51 6.26 22.36 6.65 25.18 C 7.58 28.66 11.46 30.43 14.77 30.69 C 18.01 29.53 20.92 27.63 23.90 25.94 C 28.98 23.33 33.99 20.58 39.06 17.95 C 40.17 17.19 41.53 17.25 42.81 17.28 C 33.91 22.22 25.08 27.28 16.15 32.16 C 20.24 34.33 24.30 36.57 28.32 38.87 C 21.61 40.61 14.39 41.01 7.63 39.41 C 5.78 35.72 6.06 31.36 4.43 27.56 C 4.37 23.02 4.15 18.48 4.35 13.95 C 4.39 11.09 6.59 8.93 7.46 6.32 Z" />
</g>
<g id="#e1e9f2ff">
<path fill="#e1e9f2" opacity="1.00" d=" M 7.15 11.70 C 8.96 8.06 12.93 5.84 16.96 5.96 C 26.99 5.94 37.02 5.94 47.05 5.96 C 51.05 5.85 54.98 8.04 56.82 11.63 C 53.83 11.49 52.21 7.85 48.99 8.09 C 37.65 7.81 26.28 7.80 14.94 8.10 C 11.77 7.97 10.11 11.37 7.15 11.70 Z" />
</g>
<g id="#3e5570e7">
<path fill="#3e5570" opacity="0.91" d=" M 3.14 14.89 C 3.37 11.66 4.62 8.13 7.46 6.32 C 6.59 8.93 4.39 11.09 4.35 13.95 C 4.15 18.48 4.37 23.02 4.43 27.56 C 4.28 34.73 4.48 41.90 4.67 49.07 C 4.89 54.86 10.16 59.60 15.90 59.47 C 26.61 59.48 37.33 59.48 48.04 59.47 C 52.54 59.46 57.25 56.67 58.62 52.22 C 59.62 49.59 59.40 46.73 59.47 43.97 C 59.50 38.50 59.76 33.04 59.58 27.58 C 59.63 23.05 59.85 18.53 59.65 14.00 C 59.65 11.11 57.41 8.94 56.53 6.31 C 59.37 8.12 60.63 11.67 60.86 14.90 C 60.91 25.94 60.81 36.97 60.83 48.01 C 60.88 49.63 60.61 51.23 60.26 52.81 C 58.39 57.29 54.07 60.74 49.11 60.80 C 37.71 60.82 26.31 60.82 14.91 60.80 C 9.92 60.75 5.56 57.26 3.72 52.74 C 3.39 51.22 3.12 49.67 3.17 48.10 C 3.19 37.03 3.09 25.96 3.14 14.89 Z" />
</g>
<g id="#a6c1dbff">
<path fill="#a6c1db" opacity="1.00" d=" M 7.15 11.70 C 10.11 11.37 11.77 7.97 14.94 8.10 C 26.28 7.80 37.65 7.81 48.99 8.09 C 52.21 7.85 53.83 11.49 56.82 11.63 C 56.99 11.95 57.33 12.59 57.50 12.91 C 57.21 14.26 56.90 15.62 56.56 16.96 C 56.29 15.97 55.99 14.99 55.68 14.01 C 52.23 14.90 48.68 15.28 45.12 15.06 C 36.08 15.51 27.04 14.87 18.00 15.24 C 14.82 15.49 11.71 14.82 8.66 14.04 C 7.98 15.06 7.51 16.34 6.18 16.67 C 6.15 14.97 6.18 13.16 7.15 11.70 Z" />
</g>
<g id="#99b6d1ff">
<path fill="#99b6d1" opacity="1.00" d=" M 6.18 16.67 C 7.51 16.34 7.98 15.06 8.66 14.04 C 11.71 14.82 14.82 15.49 18.00 15.24 C 27.04 14.87 36.08 15.51 45.12 15.06 C 48.68 15.28 52.23 14.90 55.68 14.01 C 55.99 14.99 56.29 15.97 56.56 16.96 C 56.90 15.62 57.21 14.26 57.50 12.91 C 58.00 14.47 58.01 16.13 57.95 17.76 C 57.56 19.60 57.15 21.45 56.48 23.22 C 52.48 23.45 46.97 24.32 44.78 20.03 C 44.79 19.16 44.81 17.42 44.82 16.56 C 44.15 16.79 43.48 17.03 42.81 17.28 C 41.53 17.25 40.17 17.19 39.06 17.95 C 33.99 20.58 28.98 23.33 23.90 25.94 C 18.38 23.83 12.38 24.54 6.65 25.18 C 6.26 22.36 6.21 19.51 6.18 16.67 Z" />
</g>
<g id="#ffffffff">
<path fill="#ffffff" opacity="1.00" d=" M 42.81 17.28 C 43.48 17.03 44.15 16.79 44.82 16.56 C 44.81 17.42 44.79 19.16 44.78 20.03 C 44.78 23.57 44.70 27.12 44.78 30.66 C 44.76 36.44 44.76 42.21 44.77 47.99 C 39.27 44.99 33.81 41.90 28.32 38.87 C 24.30 36.57 20.24 34.33 16.15 32.16 C 25.08 27.28 33.91 22.22 42.81 17.28 Z" />
</g>
<g id="#89a8c7ff">
<path fill="#89a8c7" opacity="1.00" d=" M 56.48 23.22 C 57.15 21.45 57.56 19.60 57.95 17.76 C 57.71 21.13 58.65 25.30 55.82 27.86 C 52.91 30.19 49.12 30.85 45.66 32.00 C 45.44 31.67 45.00 31.00 44.78 30.66 C 44.70 27.12 44.78 23.57 44.78 20.03 C 46.97 24.32 52.48 23.45 56.48 23.22 Z" />
</g>
<g id="#88a7c5ff">
<path fill="#88a7c5" opacity="1.00" d=" M 6.65 25.18 C 12.38 24.54 18.38 23.83 23.90 25.94 C 20.92 27.63 18.01 29.53 14.77 30.69 C 11.46 30.43 7.58 28.66 6.65 25.18 Z" />
</g>
<g id="#6284a3ff">
<path fill="#6284a3" opacity="1.00" d=" M 4.43 27.56 C 6.06 31.36 5.78 35.72 7.63 39.41 C 14.39 41.01 21.61 40.61 28.32 38.87 C 33.81 41.90 39.27 44.99 44.77 47.99 C 44.76 42.21 44.76 36.44 44.78 30.66 C 45.00 31.00 45.44 31.67 45.66 32.00 C 45.84 34.57 45.90 37.16 46.35 39.71 C 49.62 40.63 53.22 40.66 56.41 39.43 C 58.03 35.65 58.04 31.40 59.58 27.58 C 59.76 33.04 59.50 38.50 59.47 43.97 C 59.40 46.73 59.62 49.59 58.62 52.22 C 57.25 56.67 52.54 59.46 48.04 59.47 C 37.33 59.48 26.61 59.48 15.90 59.47 C 10.16 59.60 4.89 54.86 4.67 49.07 C 4.48 41.90 4.28 34.73 4.43 27.56 Z" />
</g>
<g id="#00000026">
<path fill="#000000" opacity="0.15" d=" M 3.72 52.74 C 5.56 57.26 9.92 60.75 14.91 60.80 C 26.31 60.82 37.71 60.82 49.11 60.80 C 54.07 60.74 58.39 57.29 60.26 52.81 C 60.51 58.55 55.66 62.44 50.66 64.00 L 13.41 64.00 C 8.30 62.54 3.46 58.53 3.72 52.74 Z" />
</g>
</svg>
