<?xml version="1.0" encoding="UTF-8" ?>
<!DOCTYPE svg PUBLIC "-//W3C//DTD SVG 1.1//EN" "http://www.w3.org/Graphics/SVG/1.1/DTD/svg11.dtd">
<svg width="64pt" height="64pt" viewBox="0 0 64 64" version="1.1" xmlns="http://www.w3.org/2000/svg">
<g id="#898989ff">
<path fill="#898989" opacity="1.00" d=" M 10.00 10.00 C 24.67 10.00 39.33 10.00 54.00 10.00 C 54.03 24.65 53.93 39.31 53.97 53.97 C 39.32 53.94 24.68 53.94 10.03 53.97 C 10.07 39.31 9.97 24.65 10.00 10.00 M 12.41 12.35 C 12.89 25.40 12.68 38.47 12.44 51.52 C 25.47 51.52 38.50 51.51 51.53 51.53 C 51.36 38.48 51.06 25.41 51.62 12.37 C 38.55 12.36 25.47 12.42 12.41 12.35 Z" />
</g>
<g id="#e8e8e8ff">
<path fill="#e8e8e8" opacity="1.00" d=" M 12.41 12.35 C 25.47 12.42 38.55 12.36 51.62 12.37 C 51.06 25.41 51.36 38.48 51.53 51.53 C 38.50 51.51 25.47 51.52 12.44 51.52 C 12.68 38.47 12.89 25.40 12.41 12.35 Z" />
</g>
</svg>
