<?xml version="1.0" encoding="UTF-8" ?>
<!DOCTYPE svg PUBLIC "-//W3C//DTD SVG 1.1//EN" "http://www.w3.org/Graphics/SVG/1.1/DTD/svg11.dtd">
<svg width="64pt" height="64pt" viewBox="0 0 64 64" version="1.1" xmlns="http://www.w3.org/2000/svg">
<g id="#f7a219ff">
<path fill="#f7a219" opacity="1.00" d=" M 27.97 13.32 C 29.02 8.98 30.54 4.76 32.00 0.54 C 33.46 4.76 34.98 8.97 36.03 13.32 C 33.41 12.45 30.58 12.44 27.97 13.32 Z" />
<path fill="#f7a219" opacity="1.00" d=" M 0.55 32.00 C 4.77 30.55 8.97 29.02 13.31 27.98 C 12.44 30.59 12.45 33.41 13.32 36.02 C 8.97 34.98 4.76 33.47 0.55 32.00 Z" />
</g>
<g id="#fab11cff">
<path fill="#fab11c" opacity="1.00" d=" M 8.06 8.03 C 12.80 10.48 17.72 12.62 22.27 15.43 C 19.15 16.67 16.66 19.15 15.43 22.27 C 12.62 17.72 10.46 12.80 8.06 8.03 Z" />
<path fill="#fab11c" opacity="1.00" d=" M 15.41 41.74 C 16.58 44.90 19.10 47.43 22.26 48.61 C 17.70 51.40 12.79 53.53 8.06 56.00 C 10.43 51.20 12.65 46.32 15.41 41.74 Z" />
</g>
<g id="#febc1cff">
<path fill="#febc1c" opacity="1.00" d=" M 45.70 13.12 C 49.15 11.49 52.52 9.72 55.95 8.05 C 54.29 11.49 52.52 14.87 50.87 18.32 C 49.15 16.59 47.42 14.85 45.70 13.12 Z" />
</g>
<g id="#e26f0cff">
<path fill="#e26f0c" opacity="1.00" d=" M 27.97 13.32 C 30.58 12.44 33.41 12.45 36.03 13.32 C 37.89 14.02 39.75 14.73 41.61 15.45 C 44.68 16.84 46.91 19.42 48.70 22.19 C 49.03 24.22 49.94 26.08 50.72 27.97 C 51.72 30.57 51.71 33.43 50.72 36.04 C 49.84 38.05 48.88 40.07 48.76 42.30 C 46.94 44.87 44.60 46.99 42.36 49.18 C 42.03 49.01 41.37 48.66 41.04 48.49 C 39.39 49.26 37.76 50.09 36.05 50.74 C 33.43 51.69 30.57 51.75 27.96 50.69 C 26.08 49.95 24.18 49.25 22.26 48.61 C 19.10 47.43 16.58 44.90 15.41 41.74 C 14.73 39.82 14.01 37.93 13.32 36.02 C 12.45 33.41 12.44 30.59 13.31 27.98 C 14.04 26.08 14.76 24.19 15.43 22.27 C 16.66 19.15 19.15 16.67 22.27 15.43 C 24.18 14.77 26.08 14.05 27.97 13.32 M 22.09 18.58 C 20.72 19.20 19.96 20.87 18.90 21.91 L 18.51 21.75 C 17.94 22.71 17.37 23.67 16.90 24.68 C 14.78 28.82 14.77 33.76 16.22 38.11 C 18.89 47.39 31.04 52.13 39.40 47.46 C 49.37 43.38 51.88 28.67 44.70 20.98 L 44.67 20.88 C 43.79 20.09 42.91 19.30 42.04 18.49 L 41.88 18.52 C 36.10 14.28 27.84 14.23 22.09 18.58 Z" />
</g>
<g id="#f19818fa">
<path fill="#f19818" opacity="0.98" d=" M 41.61 15.45 C 42.95 14.63 44.32 13.87 45.70 13.12 C 47.42 14.85 49.15 16.59 50.87 18.32 C 50.18 19.63 49.46 20.92 48.70 22.19 C 46.91 19.42 44.68 16.84 41.61 15.45 Z" />
</g>
<g id="#ffeec7ff">
<path fill="#ffeec7" opacity="1.00" d=" M 22.09 18.58 C 27.84 14.23 36.10 14.28 41.88 18.52 C 35.37 20.06 28.63 19.85 22.09 18.58 Z" />
</g>
<g id="#ffe4a2ff">
<path fill="#ffe4a2" opacity="1.00" d=" M 18.90 21.91 C 19.96 20.87 20.72 19.20 22.09 18.58 C 28.63 19.85 35.37 20.06 41.88 18.52 L 42.04 18.49 C 42.91 19.30 43.79 20.09 44.67 20.88 C 44.22 21.51 43.33 22.76 42.89 23.38 C 36.89 23.49 30.89 23.65 24.90 23.51 C 22.79 23.51 20.81 22.72 18.90 21.91 Z" />
</g>
<g id="#ffcb3bff">
<path fill="#ffcb3b" opacity="1.00" d=" M 16.90 24.68 C 17.37 23.67 17.94 22.71 18.51 21.75 C 18.43 24.05 18.30 26.35 18.15 28.65 C 27.16 27.21 36.31 27.09 45.32 28.61 C 45.64 27.45 45.96 26.29 46.29 25.13 C 47.16 27.76 47.48 30.52 47.79 33.26 C 44.45 33.73 41.10 34.16 37.74 34.32 C 33.86 34.46 29.97 34.46 26.09 34.32 C 22.80 34.14 19.55 33.61 16.32 33.02 C 16.46 30.24 16.56 27.45 16.90 24.68 Z" />
</g>
<g id="#ffd873ff">
<path fill="#ffd873" opacity="1.00" d=" M 18.51 21.75 L 18.90 21.91 C 20.81 22.72 22.79 23.51 24.90 23.51 C 30.89 23.65 36.89 23.49 42.89 23.38 C 43.33 22.76 44.22 21.51 44.67 20.88 L 44.70 20.98 C 45.24 22.36 45.78 23.74 46.29 25.13 C 45.96 26.29 45.64 27.45 45.32 28.61 C 36.31 27.09 27.16 27.21 18.15 28.65 C 18.30 26.35 18.43 24.05 18.51 21.75 Z" />
</g>
<g id="#ffc928ff">
<path fill="#ffc928" opacity="1.00" d=" M 44.70 20.98 C 51.88 28.67 49.37 43.38 39.40 47.46 C 31.04 52.13 18.89 47.39 16.22 38.11 C 14.77 33.76 14.78 28.82 16.90 24.68 C 16.56 27.45 16.46 30.24 16.32 33.02 C 19.55 33.61 22.80 34.14 26.09 34.32 C 23.85 36.68 20.22 38.81 20.36 42.47 C 24.37 47.43 31.85 49.30 37.71 46.71 C 40.04 45.68 42.04 44.06 44.10 42.57 C 42.28 39.60 40.18 36.80 37.74 34.32 C 41.10 34.16 44.45 33.73 47.79 33.26 C 47.48 30.52 47.16 27.76 46.29 25.13 C 45.78 23.74 45.24 22.36 44.70 20.98 Z" />
</g>
<g id="#f9a419ff">
<path fill="#f9a419" opacity="1.00" d=" M 50.72 27.97 C 55.04 29.05 59.24 30.54 63.45 32.00 C 59.25 33.46 55.04 34.95 50.72 36.04 C 51.71 33.43 51.72 30.57 50.72 27.97 Z" />
</g>
<g id="#ffde2bff">
<path fill="#ffde2b" opacity="1.00" d=" M 26.09 34.32 C 29.97 34.46 33.86 34.46 37.74 34.32 C 40.18 36.80 42.28 39.60 44.10 42.57 C 42.04 44.06 40.04 45.68 37.71 46.71 C 31.85 49.30 24.37 47.43 20.36 42.47 C 20.22 38.81 23.85 36.68 26.09 34.32 Z" />
</g>
<g id="#f79e19ff">
<path fill="#f79e19" opacity="1.00" d=" M 42.36 49.18 C 44.60 46.99 46.94 44.87 48.76 42.30 C 49.60 43.49 50.35 44.73 51.07 46.00 C 49.40 47.68 47.73 49.36 46.05 51.04 C 44.82 50.42 43.59 49.80 42.36 49.18 Z" />
</g>
<g id="#feb81cff">
<path fill="#feb81c" opacity="1.00" d=" M 46.05 51.04 C 47.73 49.36 49.40 47.68 51.07 46.00 C 52.60 49.37 54.35 52.63 55.95 55.96 C 52.64 54.35 49.36 52.66 46.05 51.04 Z" />
</g>
<g id="#f9a418ff">
<path fill="#f9a418" opacity="1.00" d=" M 27.96 50.69 C 30.57 51.75 33.43 51.69 36.05 50.74 C 34.93 55.04 33.47 59.24 32.00 63.43 C 30.52 59.23 29.04 55.01 27.96 50.69 Z" />
</g>
</svg>
