<?xml version="1.0" encoding="UTF-8" ?>
<!DOCTYPE svg PUBLIC "-//W3C//DTD SVG 1.1//EN" "http://www.w3.org/Graphics/SVG/1.1/DTD/svg11.dtd">
<svg width="64pt" height="64pt" viewBox="0 0 64 64" version="1.1" xmlns="http://www.w3.org/2000/svg">
<g id="#f4f5faff">
<path fill="#f4f5fa" opacity="1.00" d=" M 30.56 14.48 C 38.00 11.18 47.75 14.97 49.96 23.05 C 50.60 24.96 50.47 26.98 50.46 28.96 C 53.68 29.20 56.57 30.71 58.74 33.07 C 58.65 33.43 58.48 34.15 58.39 34.51 L 59.59 34.41 C 59.32 37.20 60.66 40.73 58.40 42.91 L 58.90 44.38 L 57.78 43.00 C 57.79 44.78 56.96 45.64 55.30 45.59 L 55.60 46.45 C 53.46 46.58 49.19 46.83 47.06 46.96 L 54.50 47.94 C 53.17 47.94 50.52 47.95 49.19 47.95 L 49.96 48.49 C 48.65 48.53 47.34 48.56 46.03 48.57 L 46.70 49.34 C 44.16 49.48 41.63 49.63 39.09 49.60 L 39.76 50.33 C 34.30 50.55 28.83 50.52 23.36 50.27 L 23.83 49.57 C 21.59 49.59 19.35 49.44 17.11 49.31 L 17.88 49.15 C 16.08 49.07 14.27 48.93 12.47 48.73 L 23.54 48.02 C 20.48 47.88 14.35 47.62 11.28 47.49 L 11.74 46.28 C 11.26 46.39 10.30 46.62 9.82 46.73 L 9.45 45.83 C 7.97 45.11 6.50 44.11 6.19 42.35 L 4.98 42.44 C 5.19 41.88 5.61 40.77 5.82 40.21 L 4.41 40.80 C 4.33 38.00 4.29 35.19 4.46 32.40 L 5.68 32.47 C 5.56 32.12 5.32 31.43 5.20 31.08 C 6.39 29.84 7.52 28.53 8.92 27.51 C 10.95 26.72 12.98 25.93 15.07 25.28 C 14.86 24.99 14.43 24.41 14.21 24.11 C 15.59 22.48 16.88 20.67 18.74 19.54 C 21.16 17.93 24.19 18.50 26.90 17.87 C 27.06 17.57 27.38 16.96 27.54 16.65 C 28.37 15.86 29.35 15.38 30.48 15.20 L 30.56 14.48 Z" />
</g>
</svg>
