<?xml version="1.0" encoding="UTF-8" ?>
<!DOCTYPE svg PUBLIC "-//W3C//DTD SVG 1.1//EN" "http://www.w3.org/Graphics/SVG/1.1/DTD/svg11.dtd">
<svg width="64pt" height="64pt" viewBox="0 0 64 64" version="1.1" xmlns="http://www.w3.org/2000/svg">
<g id="#4b4b4bff">
<path fill="#4b4b4b" opacity="1.00" d=" M 3.25 16.91 C 3.35 9.16 10.16 2.22 17.94 2.12 C 27.33 2.08 36.72 2.10 46.11 2.11 C 53.61 2.11 60.22 8.55 60.73 15.97 C 60.91 25.63 60.77 35.30 60.83 44.96 C 60.89 46.70 60.59 48.42 60.19 50.11 C 60.38 45.73 60.47 41.33 60.29 36.95 C 60.04 32.01 60.20 26.93 58.62 22.19 C 54.60 22.28 51.82 25.65 48.93 28.00 C 50.99 25.23 54.35 22.73 54.07 18.92 C 54.13 18.72 54.24 18.33 54.30 18.13 C 51.70 15.81 49.08 13.50 46.42 11.25 C 42.04 16.41 37.68 21.58 33.34 26.77 C 34.13 24.61 34.96 22.46 35.50 20.22 C 29.68 19.48 23.81 20.19 17.97 19.95 C 13.82 19.88 9.59 19.48 5.49 20.38 C 3.08 29.40 3.69 38.92 3.42 48.17 C 2.92 37.77 3.33 27.33 3.25 16.91 Z" />
</g>
<g id="#edededff">
<path fill="#ededed" opacity="1.00" d=" M 33.34 26.77 C 37.68 21.58 42.04 16.41 46.42 11.25 C 49.08 13.50 51.70 15.81 54.30 18.13 C 54.24 18.33 54.13 18.72 54.07 18.92 C 51.59 21.38 49.39 24.11 47.17 26.80 C 47.43 25.35 47.75 23.90 47.97 22.44 C 46.09 21.98 44.12 21.50 42.18 21.81 C 36.55 23.32 34.80 30.61 29.14 31.75 C 30.53 30.08 31.97 28.45 33.34 26.77 Z" />
<path fill="#ededed" opacity="1.00" d=" M 10.05 31.97 C 12.45 29.81 14.72 27.50 17.04 25.25 C 19.34 27.78 21.58 30.37 23.93 32.86 C 20.93 32.76 19.44 29.78 17.12 28.33 C 14.81 29.65 12.68 31.34 10.05 31.97 Z" />
</g>
<g id="#545454ff">
<path fill="#545454" opacity="1.00" d=" M 5.49 20.38 C 9.59 19.48 13.82 19.88 17.97 19.95 C 23.81 20.19 29.68 19.48 35.50 20.22 C 34.96 22.46 34.13 24.61 33.34 26.77 C 31.97 28.45 30.53 30.08 29.14 31.75 C 28.13 32.86 27.17 34.02 26.17 35.15 C 25.38 34.44 24.68 33.63 23.93 32.86 C 21.58 30.37 19.34 27.78 17.04 25.25 C 14.72 27.50 12.45 29.81 10.05 31.97 C 9.84 32.19 9.42 32.64 9.22 32.86 C 9.45 33.14 9.93 33.69 10.17 33.96 C 10.17 34.49 10.19 35.54 10.20 36.07 C 13.12 40.40 17.51 43.53 20.35 47.96 C 17.58 45.82 15.12 43.26 12.09 41.48 C 9.59 41.62 6.01 40.13 4.41 42.74 C 3.23 50.32 9.36 57.73 16.96 58.24 C 26.30 58.57 35.66 58.29 45.01 58.38 C 49.70 58.60 53.79 56.07 57.23 53.15 L 58.73 53.24 C 56.26 57.78 51.18 60.69 46.05 60.75 C 36.68 60.77 27.32 60.77 17.95 60.75 C 10.90 60.76 4.50 55.10 3.42 48.17 C 3.69 38.92 3.08 29.40 5.49 20.38 Z" />
</g>
<g id="#3c3c3cff">
<path fill="#3c3c3c" opacity="1.00" d=" M 54.07 18.92 C 54.35 22.73 50.99 25.23 48.93 28.00 C 45.01 32.13 41.24 36.40 37.69 40.86 C 35.64 43.14 33.51 45.37 31.66 47.82 C 30.15 49.60 28.72 51.49 26.87 52.93 C 23.80 52.99 22.34 49.78 20.35 47.96 C 17.51 43.53 13.12 40.40 10.20 36.07 C 10.19 35.54 10.17 34.49 10.17 33.96 C 11.35 35.11 12.48 36.33 13.56 37.57 C 17.75 42.19 21.97 46.79 26.16 51.40 C 29.48 47.47 32.85 43.58 36.18 39.66 C 39.77 35.31 43.51 31.09 47.17 26.80 C 49.39 24.11 51.59 21.38 54.07 18.92 Z" />
</g>
<g id="#d9d9d9ff">
<path fill="#d9d9d9" opacity="1.00" d=" M 42.18 21.81 C 44.12 21.50 46.09 21.98 47.97 22.44 C 47.75 23.90 47.43 25.35 47.17 26.80 C 43.51 31.09 39.77 35.31 36.18 39.66 C 36.87 37.71 37.69 35.82 38.27 33.84 C 36.14 33.58 33.93 33.28 31.81 33.76 C 29.86 34.69 28.16 36.09 26.14 36.89 C 24.08 36.00 22.30 34.54 20.21 33.73 C 18.09 33.22 15.83 33.59 13.78 34.25 C 13.67 35.36 13.60 36.46 13.56 37.57 C 12.48 36.33 11.35 35.11 10.17 33.96 C 9.93 33.69 9.45 33.14 9.22 32.86 C 9.42 32.64 9.84 32.19 10.05 31.97 C 12.68 31.34 14.81 29.65 17.12 28.33 C 19.44 29.78 20.93 32.76 23.93 32.86 C 24.68 33.63 25.38 34.44 26.17 35.15 C 27.17 34.02 28.13 32.86 29.14 31.75 C 34.80 30.61 36.55 23.32 42.18 21.81 Z" />
</g>
<g id="#595959ff">
<path fill="#595959" opacity="1.00" d=" M 48.93 28.00 C 51.82 25.65 54.60 22.28 58.62 22.19 C 60.20 26.93 60.04 32.01 60.29 36.95 C 57.27 32.75 51.25 33.84 46.75 33.80 C 43.32 35.49 40.84 38.70 37.69 40.86 C 41.24 36.40 45.01 32.13 48.93 28.00 Z" />
</g>
<g id="#c5c5c5ff">
<path fill="#c5c5c5" opacity="1.00" d=" M 20.21 33.73 C 22.30 34.54 24.08 36.00 26.14 36.89 C 28.16 36.09 29.86 34.69 31.81 33.76 C 33.93 33.28 36.14 33.58 38.27 33.84 C 37.69 35.82 36.87 37.71 36.18 39.66 C 32.85 43.58 29.48 47.47 26.16 51.40 C 21.97 46.79 17.75 42.19 13.56 37.57 C 13.60 36.46 13.67 35.36 13.78 34.25 C 15.83 33.59 18.09 33.22 20.21 33.73 Z" />
</g>
<g id="#656565ff">
<path fill="#656565" opacity="1.00" d=" M 37.69 40.86 C 40.84 38.70 43.32 35.49 46.75 33.80 C 51.25 33.84 57.27 32.75 60.29 36.95 C 60.47 41.33 60.38 45.73 60.19 50.11 C 59.39 51.02 59.55 52.35 58.73 53.24 L 57.23 53.15 C 57.92 50.30 58.69 47.44 58.75 44.49 C 52.50 44.20 46.24 44.35 39.99 44.32 C 36.77 44.07 34.19 46.17 31.66 47.82 C 33.51 45.37 35.64 43.14 37.69 40.86 Z" />
</g>
<g id="#747474ff">
<path fill="#747474" opacity="1.00" d=" M 4.41 42.74 C 6.01 40.13 9.59 41.62 12.09 41.48 C 15.12 43.26 17.58 45.82 20.35 47.96 C 22.34 49.78 23.80 52.99 26.87 52.93 C 28.72 51.49 30.15 49.60 31.66 47.82 C 34.19 46.17 36.77 44.07 39.99 44.32 C 46.24 44.35 52.50 44.20 58.75 44.49 C 58.69 47.44 57.92 50.30 57.23 53.15 C 53.79 56.07 49.70 58.60 45.01 58.38 C 35.66 58.29 26.30 58.57 16.96 58.24 C 9.36 57.73 3.23 50.32 4.41 42.74 Z" />
</g>
</svg>
