<?xml version="1.0" encoding="UTF-8" ?>
<!DOCTYPE svg PUBLIC "-//W3C//DTD SVG 1.1//EN" "http://www.w3.org/Graphics/SVG/1.1/DTD/svg11.dtd">
<svg width="64pt" height="64pt" viewBox="0 0 64 64" version="1.1" xmlns="http://www.w3.org/2000/svg">
<g id="#c3c3c3ff">
<path fill="#c3c3c3" opacity="1.00" d=" M 12.86 15.83 C 20.31 14.03 28.34 13.61 35.80 15.50 C 33.46 15.81 31.13 16.26 28.82 16.76 C 28.71 17.94 28.60 19.12 28.49 20.30 C 21.98 20.10 15.24 20.58 9.29 23.46 C 7.23 24.56 5.02 25.94 4.32 28.31 C 3.45 27.47 2.60 26.59 1.73 25.74 C 2.64 29.93 5.78 33.03 7.60 36.80 C 10.16 41.72 14.99 46.46 20.95 45.96 C 24.26 45.87 28.02 46.40 30.82 44.21 C 34.70 41.68 37.04 37.37 37.91 32.89 C 41.21 31.99 44.32 30.50 47.16 28.60 C 46.80 27.70 46.44 26.81 46.08 25.92 C 45.26 23.78 44.38 21.67 43.36 19.63 C 41.62 19.57 39.89 19.50 38.15 19.43 C 38.22 18.80 38.35 17.55 38.42 16.93 L 38.53 16.03 C 43.15 17.14 48.12 19.40 50.18 23.99 C 53.26 21.95 57.85 21.53 60.51 24.48 C 63.35 26.81 63.09 30.82 62.74 34.11 C 61.91 38.13 59.14 41.50 55.96 43.99 C 53.42 45.99 50.13 46.41 47.17 47.46 C 45.32 48.39 43.86 49.93 41.97 50.78 C 39.73 53.05 36.99 55.08 33.81 55.73 C 32.61 57.10 30.57 56.46 28.98 56.70 C 24.32 56.58 19.28 57.44 15.12 54.80 C 4.11 49.25 0.70 35.57 1.51 24.17 C 2.83 19.12 8.39 17.18 12.86 15.83 M 51.31 28.33 C 50.09 29.97 50.72 32.13 50.64 34.01 C 50.39 34.18 49.90 34.51 49.66 34.67 C 48.96 37.73 48.11 40.75 47.04 43.70 C 53.31 42.85 59.12 38.45 60.41 32.07 C 60.61 30.27 60.95 27.92 59.28 26.68 C 56.81 24.85 52.75 25.51 51.31 28.33 Z" />
</g>
<g id="#e7e6e6ff">
<path fill="#e7e6e6" opacity="1.00" d=" M 28.82 16.76 C 31.13 16.26 33.46 15.81 35.80 15.50 C 36.49 15.55 37.87 15.65 38.55 15.70 L 38.42 16.93 C 38.35 17.55 38.22 18.80 38.15 19.43 C 39.89 19.50 41.62 19.57 43.36 19.63 C 44.38 21.67 45.26 23.78 46.08 25.92 C 41.13 21.97 34.71 20.46 28.49 20.30 C 28.60 19.12 28.71 17.94 28.82 16.76 Z" />
<path fill="#e7e6e6" opacity="1.00" d=" M 1.73 25.74 C 2.60 26.59 3.45 27.47 4.32 28.31 C 13.76 35.47 26.83 35.13 37.91 32.89 C 37.04 37.37 34.70 41.68 30.82 44.21 C 28.02 46.40 24.26 45.87 20.95 45.96 C 14.99 46.46 10.16 41.72 7.60 36.80 C 5.78 33.03 2.64 29.93 1.73 25.74 Z" />
</g>
<g id="#341d01ff">
<path fill="#341d01" opacity="1.00" d=" M 9.29 23.46 C 15.24 20.58 21.98 20.10 28.49 20.30 C 34.71 20.46 41.13 21.97 46.08 25.92 C 46.44 26.81 46.80 27.70 47.16 28.60 C 44.32 30.50 41.21 31.99 37.91 32.89 C 26.83 35.13 13.76 35.47 4.32 28.31 C 5.02 25.94 7.23 24.56 9.29 23.46 Z" />
</g>
</svg>
