<?xml version="1.0" encoding="UTF-8" ?>
<!DOCTYPE svg PUBLIC "-//W3C//DTD SVG 1.1//EN" "http://www.w3.org/Graphics/SVG/1.1/DTD/svg11.dtd">
<svg width="64pt" height="64pt" viewBox="0 0 64 64" version="1.1" xmlns="http://www.w3.org/2000/svg">
<g id="#ebd1b0ff">
<path fill="#ebd1b0" opacity="1.00" d=" M 39.76 6.61 C 40.98 6.83 42.28 7.01 43.07 8.08 C 44.03 16.02 43.07 24.08 43.79 32.05 C 44.22 33.40 44.56 34.76 44.83 36.16 C 46.83 38.65 46.73 42.06 46.02 45.01 C 45.57 46.02 45.13 47.03 44.69 48.05 C 44.75 48.70 44.87 50.02 44.93 50.68 L 44.00 48.36 C 43.46 50.03 43.90 52.82 41.36 52.77 L 42.26 54.85 L 40.39 52.11 L 40.78 54.29 L 39.10 54.50 L 39.54 55.36 C 34.41 57.88 28.46 56.17 22.99 56.96 C 25.03 56.69 29.10 56.14 31.14 55.87 C 27.70 56.57 24.67 56.09 22.05 54.42 L 21.27 54.80 L 21.59 53.87 C 20.29 53.57 19.49 52.78 19.18 51.51 L 18.38 51.65 L 18.46 50.80 C 16.65 48.83 16.29 46.12 16.23 43.56 L 15.65 43.44 C 15.51 37.86 15.67 32.28 15.53 26.70 C 19.81 23.11 26.97 27.99 22.09 34.80 C 22.27 32.32 22.62 27.36 22.80 24.88 C 26.31 21.81 33.49 25.00 30.07 30.95 C 31.05 28.70 28.41 22.94 32.63 22.69 C 34.10 22.37 35.44 23.18 36.76 23.66 C 37.69 18.42 36.71 13.06 37.70 7.83 C 38.21 7.53 39.24 6.92 39.76 6.61 Z" />
</g>
</svg>
