<?xml version="1.0" encoding="UTF-8" ?>
<!DOCTYPE svg PUBLIC "-//W3C//DTD SVG 1.1//EN" "http://www.w3.org/Graphics/SVG/1.1/DTD/svg11.dtd">
<svg width="64pt" height="64pt" viewBox="0 0 64 64" version="1.1" xmlns="http://www.w3.org/2000/svg">
<g id="#ff9a1eff">
<path fill="#ff9a1e" opacity="1.00" d=" M 19.76 7.05 C 27.51 3.14 37.15 3.26 44.82 7.33 C 52.01 10.97 57.25 17.93 59.20 25.70 C 60.57 33.24 59.30 41.40 54.84 47.73 C 48.92 56.52 37.67 61.27 27.25 59.33 C 17.61 57.72 9.12 50.64 5.92 41.40 C 4.08 36.39 3.93 30.94 4.79 25.72 C 6.79 17.73 12.28 10.61 19.76 7.05 M 17.31 12.27 L 16.95 12.21 C 11.61 15.26 8.44 20.95 6.96 26.76 C 6.07 30.11 7.30 33.48 8.06 36.73 C 9.64 34.98 11.21 33.22 12.79 31.46 C 14.05 31.61 15.31 31.74 16.56 31.89 C 17.06 32.41 18.05 33.44 18.54 33.95 L 16.53 34.70 C 17.71 34.78 20.07 34.93 21.25 35.01 C 19.99 37.14 18.68 39.24 17.35 41.33 C 14.54 41.40 11.72 41.49 8.91 41.63 C 10.63 50.02 18.31 55.80 26.31 57.65 C 37.87 60.47 52.34 53.93 55.02 41.66 C 52.07 41.44 48.92 41.93 46.10 40.93 C 44.71 39.16 43.87 37.05 42.88 35.05 C 44.03 34.96 46.32 34.77 47.47 34.68 L 45.48 33.96 C 45.96 33.43 46.93 32.38 47.41 31.86 C 48.63 31.75 49.85 31.68 51.07 31.58 C 52.68 32.99 54.30 34.41 55.93 35.80 C 56.74 33.13 57.92 30.35 57.19 27.52 C 55.85 21.44 52.62 15.40 47.07 12.22 L 46.70 12.28 C 38.29 5.72 25.73 5.71 17.31 12.27 Z" />
</g>
<g id="#ffeec9ff">
<path fill="#ffeec9" opacity="1.00" d=" M 17.31 12.27 C 25.73 5.71 38.29 5.72 46.70 12.28 C 37.00 13.99 27.01 13.92 17.31 12.27 Z" />
</g>
<g id="#ffc238ff">
<path fill="#ffc238" opacity="1.00" d=" M 6.96 26.76 C 8.44 20.95 11.61 15.26 16.95 12.21 C 15.79 13.70 14.64 15.20 13.52 16.72 C 12.81 17.74 12.15 18.81 11.52 19.89 C 11.04 22.25 9.59 25.48 11.98 27.26 C 17.03 27.51 21.98 26.22 27.00 25.92 C 35.86 25.09 44.62 27.21 53.48 27.10 C 53.20 24.69 52.96 22.27 52.50 19.88 C 51.86 18.80 51.20 17.74 50.48 16.71 C 49.36 15.20 48.21 13.71 47.07 12.22 C 52.62 15.40 55.85 21.44 57.19 27.52 C 57.92 30.35 56.74 33.13 55.93 35.80 C 54.30 34.41 52.68 32.99 51.07 31.58 C 49.85 31.68 48.63 31.75 47.41 31.86 C 43.80 29.64 37.37 26.64 34.99 31.95 C 38.37 33.14 42.01 33.16 45.48 33.96 L 47.47 34.68 C 46.32 34.77 44.03 34.96 42.88 35.05 C 40.85 35.05 38.82 34.87 36.80 34.74 C 33.27 34.47 29.72 34.46 26.19 34.73 C 24.54 34.84 22.90 34.98 21.25 35.01 C 20.07 34.93 17.71 34.78 16.53 34.70 L 18.54 33.95 C 21.62 33.24 24.79 33.07 27.89 32.50 C 30.19 31.00 27.25 29.66 25.86 29.09 C 22.47 28.39 19.42 30.39 16.56 31.89 C 15.31 31.74 14.05 31.61 12.79 31.46 C 11.21 33.22 9.64 34.98 8.06 36.73 C 7.30 33.48 6.07 30.11 6.96 26.76 Z" />
</g>
<g id="#ffe6a9ff">
<path fill="#ffe6a9" opacity="1.00" d=" M 16.95 12.21 L 17.31 12.27 C 27.01 13.92 37.00 13.99 46.70 12.28 L 47.07 12.22 C 48.21 13.71 49.36 15.20 50.48 16.71 C 38.22 17.96 25.78 17.94 13.52 16.72 C 14.64 15.20 15.79 13.70 16.95 12.21 Z" />
</g>
<g id="#ffe08aff">
<path fill="#ffe08a" opacity="1.00" d=" M 11.52 19.89 C 12.15 18.81 12.81 17.74 13.52 16.72 C 25.78 17.94 38.22 17.96 50.48 16.71 C 51.20 17.74 51.86 18.80 52.50 19.88 C 52.04 20.92 51.61 21.97 51.20 23.03 C 47.21 19.62 41.14 18.21 36.78 21.78 C 41.49 22.17 46.31 22.39 50.67 24.43 C 44.36 24.77 38.26 22.82 32.00 22.52 C 25.74 22.83 19.63 24.77 13.31 24.43 C 17.68 22.40 22.51 22.16 27.22 21.78 C 22.86 18.20 16.80 19.62 12.81 23.02 C 12.40 21.97 11.97 20.92 11.52 19.89 Z" />
</g>
<g id="#ffd564ff">
<path fill="#ffd564" opacity="1.00" d=" M 11.98 27.26 C 9.59 25.48 11.04 22.25 11.52 19.89 C 11.97 20.92 12.40 21.97 12.81 23.02 C 12.94 23.37 13.19 24.08 13.31 24.43 C 19.63 24.77 25.74 22.83 32.00 22.52 C 38.26 22.82 44.36 24.77 50.67 24.43 C 50.81 24.08 51.07 23.38 51.20 23.03 C 51.61 21.97 52.04 20.92 52.50 19.88 C 52.96 22.27 53.20 24.69 53.48 27.10 C 44.62 27.21 35.86 25.09 27.00 25.92 C 21.98 26.22 17.03 27.51 11.98 27.26 Z" />
</g>
<g id="#754a0cff">
<path fill="#754a0c" opacity="1.00" d=" M 12.81 23.02 C 16.80 19.62 22.86 18.20 27.22 21.78 C 22.51 22.16 17.68 22.40 13.31 24.43 C 13.19 24.08 12.94 23.37 12.81 23.02 Z" />
<path fill="#754a0c" opacity="1.00" d=" M 36.78 21.78 C 41.14 18.21 47.21 19.62 51.20 23.03 C 51.07 23.38 50.81 24.08 50.67 24.43 C 46.31 22.39 41.49 22.17 36.78 21.78 Z" />
</g>
<g id="#2715035a">
<path fill="#271503" opacity="0.35" d=" M 21.91 59.90 C 8.87 54.85 0.52 39.27 4.79 25.72 C 3.93 30.94 4.08 36.39 5.92 41.40 C 9.12 50.64 17.61 57.72 27.25 59.33 C 37.67 61.27 48.92 56.52 54.84 47.73 C 59.30 41.40 60.57 33.24 59.20 25.70 C 64.12 41.15 52.52 59.02 36.63 61.42 C 31.70 61.81 26.52 61.97 21.91 59.90 Z" />
</g>
<g id="#8e580eff">
<path fill="#8e580e" opacity="1.00" d=" M 16.56 31.89 C 19.42 30.39 22.47 28.39 25.86 29.09 C 27.25 29.66 30.19 31.00 27.89 32.50 C 24.79 33.07 21.62 33.24 18.54 33.95 C 18.05 33.44 17.06 32.41 16.56 31.89 Z" />
<path fill="#8e580e" opacity="1.00" d=" M 34.99 31.95 C 37.37 26.64 43.80 29.64 47.41 31.86 C 46.93 32.38 45.96 33.43 45.48 33.96 C 42.01 33.16 38.37 33.14 34.99 31.95 Z" />
</g>
<g id="#ffc025ff">
<path fill="#ffc025" opacity="1.00" d=" M 21.25 35.01 C 22.90 34.98 24.54 34.84 26.19 34.73 C 24.97 37.24 24.03 39.99 22.10 42.07 C 19.62 44.32 16.48 45.65 13.58 47.28 C 18.85 55.21 29.65 58.62 38.59 55.57 C 43.15 54.27 46.93 51.28 50.23 47.98 C 44.62 44.85 39.75 40.51 36.80 34.74 C 38.82 34.87 40.85 35.05 42.88 35.05 C 43.87 37.05 44.71 39.16 46.10 40.93 C 48.92 41.93 52.07 41.44 55.02 41.66 C 52.34 53.93 37.87 60.47 26.31 57.65 C 18.31 55.80 10.63 50.02 8.91 41.63 C 11.72 41.49 14.54 41.40 17.35 41.33 C 18.68 39.24 19.99 37.14 21.25 35.01 Z" />
</g>
<g id="#ffdd2cff">
<path fill="#ffdd2c" opacity="1.00" d=" M 26.19 34.73 C 29.72 34.46 33.27 34.47 36.80 34.74 C 39.75 40.51 44.62 44.85 50.23 47.98 C 46.93 51.28 43.15 54.27 38.59 55.57 C 29.65 58.62 18.85 55.21 13.58 47.28 C 16.48 45.65 19.62 44.32 22.10 42.07 C 24.03 39.99 24.97 37.24 26.19 34.73 M 23.52 43.47 C 24.35 44.91 25.21 46.33 26.12 47.72 C 29.32 51.07 34.50 50.96 37.69 47.66 C 38.58 46.29 39.43 44.88 40.30 43.49 C 37.55 44.34 34.88 45.64 31.97 45.76 C 29.00 45.74 26.28 44.37 23.52 43.47 Z" />
</g>
<g id="#7c500bff">
<path fill="#7c500b" opacity="1.00" d=" M 23.52 43.47 C 26.28 44.37 29.00 45.74 31.97 45.76 C 34.88 45.64 37.55 44.34 40.30 43.49 C 39.43 44.88 38.58 46.29 37.69 47.66 C 33.84 47.42 29.97 47.45 26.12 47.72 C 25.21 46.33 24.35 44.91 23.52 43.47 Z" />
</g>
<g id="#9f6914ff">
<path fill="#9f6914" opacity="1.00" d=" M 26.12 47.72 C 29.97 47.45 33.84 47.42 37.69 47.66 C 34.50 50.96 29.32 51.07 26.12 47.72 Z" />
</g>
</svg>
