<?xml version="1.0" encoding="UTF-8" ?>
<!DOCTYPE svg PUBLIC "-//W3C//DTD SVG 1.1//EN" "http://www.w3.org/Graphics/SVG/1.1/DTD/svg11.dtd">
<svg width="64pt" height="64pt" viewBox="0 0 64 64" version="1.1" xmlns="http://www.w3.org/2000/svg">
<g id="#9938b5ff">
<path fill="#9938b5" opacity="1.00" d=" M 13.39 3.46 C 24.93 3.22 36.48 3.42 48.02 3.36 C 54.49 2.80 60.80 8.46 60.68 15.01 C 60.69 26.35 60.64 37.70 60.63 49.04 C 60.73 55.15 55.24 60.81 49.09 60.66 C 37.73 60.66 26.38 60.66 15.02 60.66 C 8.82 60.88 3.22 55.12 3.37 48.98 C 3.36 37.63 3.31 26.29 3.32 14.95 C 3.26 9.33 7.94 4.32 13.39 3.46 M 6.83 13.42 L 6.27 13.44 C 5.48 16.58 6.52 19.84 6.35 23.04 C 6.26 29.03 13.68 31.09 18.54 30.60 C 19.44 28.65 20.95 27.13 22.40 25.59 C 22.76 25.81 23.46 26.25 23.81 26.47 C 23.22 27.97 21.64 28.71 20.86 30.08 C 18.10 34.11 17.57 39.69 19.98 44.02 C 22.89 49.61 30.01 52.66 36.04 50.59 C 42.86 48.64 47.33 40.78 44.97 33.96 C 44.42 30.80 41.67 28.90 40.20 26.33 C 40.57 26.13 41.32 25.72 41.70 25.52 C 43.01 27.21 44.61 28.68 45.57 30.63 C 50.06 30.95 56.17 29.51 57.52 24.58 C 57.66 20.82 58.22 17.00 57.73 13.26 L 57.00 13.22 C 56.21 9.14 52.14 6.21 48.07 6.19 C 37.40 6.10 26.71 6.11 16.03 6.19 C 11.77 6.13 7.80 9.28 6.83 13.42 Z" />
<path fill="#9938b5" opacity="1.00" d=" M 9.87 14.10 C 11.57 12.00 14.65 13.14 16.99 13.02 C 21.05 14.36 22.85 18.63 26.41 20.68 C 30.12 22.36 34.66 22.37 38.18 20.24 C 40.84 18.59 42.29 15.56 45.03 13.99 C 47.31 12.30 50.32 12.99 52.95 13.01 C 53.22 13.31 53.76 13.90 54.02 14.19 L 53.95 15.37 C 52.13 13.98 49.70 13.67 47.57 14.48 C 42.90 15.61 41.42 21.25 36.95 22.71 C 33.13 23.70 28.75 23.80 25.21 21.86 C 22.04 19.67 20.39 15.49 16.42 14.50 C 14.28 13.63 11.86 14.04 9.97 15.32 L 9.87 14.10 Z" />
<path fill="#9938b5" opacity="1.00" d=" M 25.61 44.33 C 22.45 41.34 22.09 35.81 24.94 32.54 C 29.68 32.51 34.42 32.62 39.15 32.45 C 41.23 35.06 41.78 39.01 40.13 41.98 C 37.64 47.39 29.73 48.63 25.61 44.33 Z" />
</g>
<g id="#ffffffff">
<path fill="#ffffff" opacity="1.00" d=" M 6.83 13.42 C 7.80 9.28 11.77 6.13 16.03 6.19 C 26.71 6.11 37.40 6.10 48.07 6.19 C 52.14 6.21 56.21 9.14 57.00 13.22 L 56.66 13.77 C 55.06 9.95 51.09 7.66 47.00 7.67 C 36.99 7.64 26.98 7.63 16.97 7.67 C 13.03 7.70 9.24 9.78 7.48 13.37 C 7.32 13.38 6.99 13.41 6.83 13.42 Z" />
<path fill="#ffffff" opacity="1.00" d=" M 9.97 15.32 C 11.86 14.04 14.28 13.63 16.42 14.50 C 20.39 15.49 22.04 19.67 25.21 21.86 C 28.75 23.80 33.13 23.70 36.95 22.71 C 41.42 21.25 42.90 15.61 47.57 14.48 C 49.70 13.67 52.13 13.98 53.95 15.37 C 53.92 15.75 53.86 16.51 53.82 16.88 C 52.21 18.18 49.77 17.79 48.14 19.12 C 45.79 21.04 43.85 23.39 41.70 25.52 C 41.32 25.72 40.57 26.13 40.20 26.33 C 41.67 28.90 44.42 30.80 44.97 33.96 C 47.33 40.78 42.86 48.64 36.04 50.59 C 30.01 52.66 22.89 49.61 19.98 44.02 C 17.57 39.69 18.10 34.11 20.86 30.08 C 21.64 28.71 23.22 27.97 23.81 26.47 C 23.46 26.25 22.76 25.81 22.40 25.59 C 20.16 23.51 18.23 21.08 15.84 19.16 C 14.19 17.84 11.83 18.12 10.12 16.96 C 10.08 16.55 10.01 15.73 9.97 15.32 M 24.94 32.54 C 22.09 35.81 22.45 41.34 25.61 44.33 C 29.73 48.63 37.64 47.39 40.13 41.98 C 41.78 39.01 41.23 35.06 39.15 32.45 C 36.17 27.55 27.73 27.54 24.94 32.54 Z" />
</g>
<g id="#c377d8ff">
<path fill="#c377d8" opacity="1.00" d=" M 7.48 13.37 C 9.24 9.78 13.03 7.70 16.97 7.67 C 26.98 7.63 36.99 7.64 47.00 7.67 C 51.09 7.66 55.06 9.95 56.66 13.77 L 57.00 13.22 L 57.73 13.26 C 58.22 17.00 57.66 20.82 57.52 24.58 C 56.17 29.51 50.06 30.95 45.57 30.63 C 44.61 28.68 43.01 27.21 41.70 25.52 C 43.85 23.39 45.79 21.04 48.14 19.12 C 49.77 17.79 52.21 18.18 53.82 16.88 C 53.86 16.51 53.92 15.75 53.95 15.37 L 54.02 14.19 C 53.76 13.90 53.22 13.31 52.95 13.01 C 50.32 12.99 47.31 12.30 45.03 13.99 C 42.29 15.56 40.84 18.59 38.18 20.24 C 34.66 22.37 30.12 22.36 26.41 20.68 C 22.85 18.63 21.05 14.36 16.99 13.02 C 14.65 13.14 11.57 12.00 9.87 14.10 L 9.97 15.32 C 10.01 15.73 10.08 16.55 10.12 16.96 C 11.83 18.12 14.19 17.84 15.84 19.16 C 18.23 21.08 20.16 23.51 22.40 25.59 C 20.95 27.13 19.44 28.65 18.54 30.60 C 13.68 31.09 6.26 29.03 6.35 23.04 C 6.52 19.84 5.48 16.58 6.27 13.44 L 6.83 13.42 C 6.99 13.41 7.32 13.38 7.48 13.37 Z" />
<path fill="#c377d8" opacity="1.00" d=" M 24.94 32.54 C 27.73 27.54 36.17 27.55 39.15 32.45 C 34.42 32.62 29.68 32.51 24.94 32.54 Z" />
</g>
</svg>
