<?xml version="1.0" encoding="UTF-8" ?>
<!DOCTYPE svg PUBLIC "-//W3C//DTD SVG 1.1//EN" "http://www.w3.org/Graphics/SVG/1.1/DTD/svg11.dtd">
<svg width="64pt" height="64pt" viewBox="0 0 64 64" version="1.1" xmlns="http://www.w3.org/2000/svg">
<g id="#9838b5ff">
<path fill="#9838b5" opacity="1.00" d=" M 12.49 3.66 C 24.29 2.96 36.18 3.55 48.01 3.35 C 54.49 2.81 60.74 8.41 60.65 14.96 C 60.73 26.30 60.63 37.65 60.63 48.99 C 60.82 55.17 55.14 60.81 48.97 60.65 C 37.62 60.67 26.27 60.69 14.93 60.64 C 8.78 60.76 3.16 55.11 3.37 48.95 C 3.37 37.60 3.26 26.25 3.35 14.90 C 3.32 9.63 7.43 4.83 12.49 3.66 M 7.19 11.62 L 6.74 11.79 C 5.27 15.96 6.22 20.43 6.55 24.71 C 6.99 27.85 10.26 29.24 12.93 30.09 C 24.29 33.74 36.44 32.56 48.06 31.01 C 51.69 30.13 56.60 28.98 57.46 24.70 C 57.77 20.41 58.78 15.92 57.22 11.76 L 56.85 11.65 C 54.83 8.72 51.82 6.05 48.02 6.22 C 37.32 6.08 26.61 6.08 15.91 6.22 C 12.16 6.07 9.17 8.70 7.19 11.62 M 34.30 47.05 C 30.59 46.69 26.77 46.34 23.35 44.74 C 19.13 43.15 16.15 39.70 12.81 36.85 C 14.65 44.64 22.51 49.45 29.97 50.78 C 36.11 51.90 44.02 51.50 47.62 45.56 C 50.51 41.51 49.24 34.46 43.81 33.46 C 36.76 32.27 30.89 40.71 34.30 47.05 Z" />
<path fill="#9838b5" opacity="1.00" d=" M 16.65 14.58 C 20.63 11.13 26.17 11.98 31.01 12.02 C 39.37 12.84 47.70 18.20 50.48 26.38 L 48.95 25.68 C 45.48 18.84 38.47 14.37 30.95 13.38 C 25.14 12.43 17.88 13.32 14.57 18.85 C 12.70 16.97 15.65 15.78 16.65 14.58 Z" />
<path fill="#9838b5" opacity="1.00" d=" M 20.87 25.80 C 22.77 24.78 24.14 23.05 25.70 21.61 C 25.14 23.27 24.83 25.22 23.39 26.39 C 21.15 28.52 16.92 27.58 16.29 24.35 C 17.80 24.88 19.29 25.49 20.87 25.80 Z" />
<path fill="#9838b5" opacity="1.00" d=" M 40.17 37.27 C 42.13 36.58 44.72 37.19 45.41 39.36 C 47.35 43.34 42.13 48.68 38.27 45.90 C 35.42 43.45 36.93 38.58 40.17 37.27 Z" />
</g>
<g id="#ffffffff">
<path fill="#ffffff" opacity="1.00" d=" M 7.19 11.62 C 9.17 8.70 12.16 6.07 15.91 6.22 C 26.61 6.08 37.32 6.08 48.02 6.22 C 51.82 6.05 54.83 8.72 56.85 11.65 C 56.54 11.55 55.91 11.35 55.60 11.25 C 53.25 9.78 50.99 7.82 48.06 7.80 C 39.04 7.39 29.99 7.83 20.95 7.61 C 17.73 7.73 14.10 7.34 11.35 9.38 C 10.03 10.24 8.70 11.12 7.19 11.62 Z" />
<path fill="#ffffff" opacity="1.00" d=" M 14.57 18.85 C 17.88 13.32 25.14 12.43 30.95 13.38 C 38.47 14.37 45.48 18.84 48.95 25.68 L 49.20 27.46 C 45.81 24.92 43.09 21.43 39.05 19.86 C 35.53 18.17 31.60 17.71 27.74 17.50 C 28.35 19.99 29.27 22.72 28.08 25.20 C 26.29 30.19 18.90 33.41 14.84 29.13 C 12.03 26.37 13.05 22.01 14.57 18.85 M 15.85 24.18 L 16.29 24.35 C 16.92 27.58 21.15 28.52 23.39 26.39 C 24.83 25.22 25.14 23.27 25.70 21.61 C 24.69 19.58 22.78 16.71 20.11 17.99 C 17.39 18.85 16.67 21.81 15.85 24.18 Z" />
<path fill="#ffffff" opacity="1.00" d=" M 34.30 47.05 C 30.89 40.71 36.76 32.27 43.81 33.46 C 49.24 34.46 50.51 41.51 47.62 45.56 C 44.02 51.50 36.11 51.90 29.97 50.78 C 22.51 49.45 14.65 44.64 12.81 36.85 C 16.15 39.70 19.13 43.15 23.35 44.74 C 26.77 46.34 30.59 46.69 34.30 47.05 M 40.17 37.27 C 36.93 38.58 35.42 43.45 38.27 45.90 C 42.13 48.68 47.35 43.34 45.41 39.36 C 44.72 37.19 42.13 36.58 40.17 37.27 Z" />
</g>
<g id="#c173d6ff">
<path fill="#c173d6" opacity="1.00" d=" M 11.35 9.38 C 14.10 7.34 17.73 7.73 20.95 7.61 C 29.99 7.83 39.04 7.39 48.06 7.80 C 50.99 7.82 53.25 9.78 55.60 11.25 C 55.91 11.35 56.54 11.55 56.85 11.65 L 57.22 11.76 C 58.78 15.92 57.77 20.41 57.46 24.70 C 56.60 28.98 51.69 30.13 48.06 31.01 C 36.44 32.56 24.29 33.74 12.93 30.09 C 10.26 29.24 6.99 27.85 6.55 24.71 C 6.22 20.43 5.27 15.96 6.74 11.79 L 7.19 11.62 C 8.70 11.12 10.03 10.24 11.35 9.38 M 16.65 14.58 C 15.65 15.78 12.70 16.97 14.57 18.85 C 13.05 22.01 12.03 26.37 14.84 29.13 C 18.90 33.41 26.29 30.19 28.08 25.20 C 29.27 22.72 28.35 19.99 27.74 17.50 C 31.60 17.71 35.53 18.17 39.05 19.86 C 43.09 21.43 45.81 24.92 49.20 27.46 L 48.95 25.68 L 50.48 26.38 C 47.70 18.20 39.37 12.84 31.01 12.02 C 26.17 11.98 20.63 11.13 16.65 14.58 Z" />
<path fill="#c173d6" opacity="1.00" d=" M 15.85 24.18 C 16.67 21.81 17.39 18.85 20.11 17.99 C 22.78 16.71 24.69 19.58 25.70 21.61 C 24.14 23.05 22.77 24.78 20.87 25.80 C 19.29 25.49 17.80 24.88 16.29 24.35 L 15.85 24.18 Z" />
</g>
</svg>
