<?xml version="1.0" encoding="UTF-8" ?>
<!DOCTYPE svg PUBLIC "-//W3C//DTD SVG 1.1//EN" "http://www.w3.org/Graphics/SVG/1.1/DTD/svg11.dtd">
<svg width="64pt" height="64pt" viewBox="0 0 64 64" version="1.1" xmlns="http://www.w3.org/2000/svg">
<g id="#9839b5ff">
<path fill="#9839b5" opacity="1.00" d=" M 13.34 3.48 C 25.24 3.21 37.16 3.41 49.06 3.38 C 55.17 3.32 60.72 8.83 60.68 14.96 C 60.69 26.31 60.65 37.66 60.63 49.00 C 60.81 55.14 55.20 60.75 49.09 60.66 C 37.69 60.66 26.30 60.66 14.90 60.66 C 8.79 60.74 3.19 55.14 3.37 49.01 C 3.35 37.66 3.31 26.32 3.32 14.97 C 3.28 9.37 7.88 4.32 13.34 3.48 M 7.19 11.79 L 6.96 11.84 C 4.95 15.23 6.71 19.25 6.39 22.93 C 6.09 26.26 9.07 29.37 12.30 29.60 C 14.83 24.83 20.52 22.68 25.70 23.61 C 24.51 18.14 28.13 13.01 33.09 11.01 C 36.04 11.24 39.24 10.31 41.94 11.88 C 45.55 13.27 48.68 17.37 47.01 21.32 C 47.29 14.77 39.81 11.19 34.17 12.42 C 28.52 13.76 24.69 20.13 26.79 25.70 C 20.83 23.28 13.23 27.58 12.66 34.08 C 11.45 40.06 17.05 45.84 22.98 45.62 C 27.79 45.54 32.41 41.80 33.01 36.94 C 33.63 33.83 31.99 30.98 31.11 28.11 C 33.89 27.97 33.83 31.18 34.85 33.03 C 36.51 29.75 38.52 26.66 40.20 23.38 C 40.59 23.40 41.37 23.43 41.76 23.44 C 39.23 29.26 35.36 34.57 34.22 40.93 C 33.77 44.41 34.42 48.50 37.28 50.84 C 41.42 54.03 48.73 50.26 48.19 45.03 C 46.83 44.99 45.48 44.98 44.13 45.02 C 43.80 45.51 43.14 46.48 42.81 46.97 C 41.57 47.37 40.33 47.36 39.11 46.94 C 37.18 41.70 40.79 36.40 42.84 31.70 C 47.07 31.16 51.50 30.32 55.18 28.09 C 58.02 26.40 57.60 22.84 57.71 20.01 C 57.67 17.30 58.71 14.30 57.03 11.87 L 56.82 11.82 C 55.07 8.66 51.82 6.14 48.08 6.19 C 37.35 6.10 26.63 6.10 15.90 6.19 C 12.18 6.16 8.94 8.64 7.19 11.79 Z" />
<path fill="#9839b5" opacity="1.00" d=" M 18.01 31.57 C 21.49 31.17 24.85 32.32 28.30 32.55 C 29.70 34.94 29.16 38.18 27.00 39.92 C 23.72 43.32 16.90 40.86 16.79 36.05 C 16.45 34.44 17.29 32.94 18.01 31.57 Z" />
</g>
<g id="#ffffffff">
<path fill="#ffffff" opacity="1.00" d=" M 7.19 11.79 C 8.94 8.64 12.18 6.16 15.90 6.19 C 26.63 6.10 37.35 6.10 48.08 6.19 C 51.82 6.14 55.07 8.66 56.82 11.82 C 54.98 11.81 54.14 9.96 52.67 9.17 C 50.68 8.00 48.32 7.58 46.03 7.64 C 36.69 7.66 27.35 7.65 18.01 7.65 C 15.71 7.61 13.30 8.00 11.29 9.19 C 9.84 9.97 9.03 11.83 7.19 11.79 Z" />
<path fill="#ffffff" opacity="1.00" d=" M 26.79 25.70 C 24.69 20.13 28.52 13.76 34.17 12.42 C 39.81 11.19 47.29 14.77 47.01 21.32 C 46.47 25.07 44.38 28.30 42.84 31.70 C 40.79 36.40 37.18 41.70 39.11 46.94 C 40.33 47.36 41.57 47.37 42.81 46.97 C 43.14 46.48 43.80 45.51 44.13 45.02 C 45.48 44.98 46.83 44.99 48.19 45.03 C 48.73 50.26 41.42 54.03 37.28 50.84 C 34.42 48.50 33.77 44.41 34.22 40.93 C 35.36 34.57 39.23 29.26 41.76 23.44 C 43.52 19.77 39.93 15.66 36.02 16.61 C 30.91 17.59 29.75 23.82 31.11 28.11 C 31.99 30.98 33.63 33.83 33.01 36.94 C 32.41 41.80 27.79 45.54 22.98 45.62 C 17.05 45.84 11.45 40.06 12.66 34.08 C 13.23 27.58 20.83 23.28 26.79 25.70 M 18.01 31.57 C 17.29 32.94 16.45 34.44 16.79 36.05 C 16.90 40.86 23.72 43.32 27.00 39.92 C 29.16 38.18 29.70 34.94 28.30 32.55 C 26.56 28.50 20.47 27.92 18.01 31.57 Z" />
</g>
<g id="#c477d8ff">
<path fill="#c477d8" opacity="1.00" d=" M 11.29 9.19 C 13.30 8.00 15.71 7.61 18.01 7.65 C 27.35 7.65 36.69 7.66 46.03 7.64 C 48.32 7.58 50.68 8.00 52.67 9.17 C 54.14 9.96 54.98 11.81 56.82 11.82 L 57.03 11.87 C 58.71 14.30 57.67 17.30 57.71 20.01 C 57.60 22.84 58.02 26.40 55.18 28.09 C 51.50 30.32 47.07 31.16 42.84 31.70 C 44.38 28.30 46.47 25.07 47.01 21.32 C 48.68 17.37 45.55 13.27 41.94 11.88 C 39.24 10.31 36.04 11.24 33.09 11.01 C 28.13 13.01 24.51 18.14 25.70 23.61 C 20.52 22.68 14.83 24.83 12.30 29.60 C 9.07 29.37 6.09 26.26 6.39 22.93 C 6.71 19.25 4.95 15.23 6.96 11.84 L 7.19 11.79 C 9.03 11.83 9.84 9.97 11.29 9.19 Z" />
<path fill="#c477d8" opacity="1.00" d=" M 31.11 28.11 C 29.75 23.82 30.91 17.59 36.02 16.61 C 39.93 15.66 43.52 19.77 41.76 23.44 C 41.37 23.43 40.59 23.40 40.20 23.38 C 38.52 26.66 36.51 29.75 34.85 33.03 C 33.83 31.18 33.89 27.97 31.11 28.11 Z" />
<path fill="#c477d8" opacity="1.00" d=" M 18.01 31.57 C 20.47 27.92 26.56 28.50 28.30 32.55 C 24.85 32.32 21.49 31.17 18.01 31.57 Z" />
</g>
</svg>
