<?xml version="1.0" encoding="UTF-8" ?>
<!DOCTYPE svg PUBLIC "-//W3C//DTD SVG 1.1//EN" "http://www.w3.org/Graphics/SVG/1.1/DTD/svg11.dtd">
<svg width="64pt" height="64pt" viewBox="0 0 64 64" version="1.1" xmlns="http://www.w3.org/2000/svg">
<g id="#9737b4ff">
<path fill="#9737b4" opacity="1.00" d=" M 12.40 3.65 C 24.25 2.97 36.18 3.54 48.07 3.35 C 54.52 2.82 60.74 8.45 60.67 14.95 C 60.70 26.29 60.65 37.63 60.63 48.97 C 60.83 55.12 55.20 60.80 49.05 60.65 C 37.70 60.68 26.35 60.67 14.99 60.66 C 8.86 60.83 3.21 55.19 3.37 49.06 C 3.35 37.69 3.30 26.32 3.33 14.96 C 3.28 9.69 7.37 4.92 12.40 3.65 M 6.52 13.81 C 5.19 14.76 6.17 16.72 6.05 18.06 C 6.67 21.44 5.30 26.04 8.81 28.19 C 11.02 29.48 13.61 31.18 16.27 30.24 C 16.83 32.56 18.33 34.50 19.87 36.26 C 16.63 37.37 13.07 36.28 9.71 36.87 C 9.67 38.32 9.64 39.77 9.61 41.23 C 15.18 41.25 20.76 41.22 26.33 41.23 C 26.17 39.63 26.52 37.93 25.97 36.39 C 23.75 34.23 21.55 31.81 20.81 28.71 C 22.75 29.17 23.78 30.84 24.90 32.32 C 29.62 32.56 34.41 32.73 39.11 32.25 C 40.31 30.86 41.24 29.14 43.19 28.72 C 42.44 31.82 40.25 34.24 38.03 36.39 C 37.48 37.93 37.84 39.63 37.67 41.23 C 43.24 41.23 48.81 41.24 54.39 41.23 C 54.36 39.79 54.33 38.34 54.29 36.90 C 50.94 36.24 47.38 37.37 44.13 36.27 C 45.66 34.50 47.17 32.56 47.74 30.23 C 51.96 31.12 58.00 27.95 57.65 23.07 C 57.65 19.97 58.30 16.89 58.02 13.80 L 57.27 13.57 C 56.27 9.42 52.38 6.15 48.07 6.20 C 37.34 6.10 26.60 6.09 15.87 6.20 C 11.41 6.15 7.69 9.67 6.52 13.81 M 9.13 45.87 L 10.14 46.29 C 9.66 47.87 9.50 49.51 9.65 51.19 C 24.55 51.22 39.45 51.22 54.35 51.19 C 54.59 49.44 54.36 47.80 53.66 46.26 L 55.01 45.97 C 39.75 45.48 24.41 45.67 9.13 45.87 Z" />
<path fill="#9737b4" opacity="1.00" d=" M 15.26 22.15 C 17.07 16.94 22.05 13.63 27.11 12.06 C 30.37 11.90 33.64 11.90 36.90 12.06 C 42.01 13.63 46.89 16.99 48.80 22.17 C 48.63 22.80 48.31 24.07 48.15 24.70 C 46.80 17.41 39.00 12.98 32.01 13.00 C 25.00 12.97 17.20 17.41 15.83 24.71 C 15.69 24.07 15.41 22.79 15.26 22.15 Z" />
</g>
<g id="#ffffffff">
<path fill="#ffffff" opacity="1.00" d=" M 6.52 13.81 C 7.69 9.67 11.41 6.15 15.87 6.20 C 26.60 6.09 37.34 6.10 48.07 6.20 C 52.38 6.15 56.27 9.42 57.27 13.57 C 56.29 13.39 55.95 12.34 55.35 11.70 C 53.38 8.63 49.45 7.61 46.01 7.65 C 36.65 7.66 27.29 7.66 17.92 7.65 C 15.63 7.61 13.30 8.09 11.29 9.21 C 9.25 10.25 8.34 12.52 6.52 13.81 Z" />
<path fill="#ffffff" opacity="1.00" d=" M 15.83 24.71 C 17.20 17.41 25.00 12.97 32.01 13.00 C 39.00 12.98 46.80 17.41 48.15 24.70 C 48.02 26.54 47.92 28.39 47.74 30.23 C 47.17 32.56 45.66 34.50 44.13 36.27 C 47.38 37.37 50.94 36.24 54.29 36.90 C 54.33 38.34 54.36 39.79 54.39 41.23 C 48.81 41.24 43.24 41.23 37.67 41.23 C 37.84 39.63 37.48 37.93 38.03 36.39 C 40.25 34.24 42.44 31.82 43.19 28.72 C 44.65 24.94 42.19 20.88 38.82 19.14 C 33.86 16.47 27.10 16.90 22.92 20.83 C 20.74 22.75 19.81 25.95 20.81 28.71 C 21.55 31.81 23.75 34.23 25.97 36.39 C 26.52 37.93 26.17 39.63 26.33 41.23 C 20.76 41.22 15.18 41.25 9.61 41.23 C 9.64 39.77 9.67 38.32 9.71 36.87 C 13.07 36.28 16.63 37.37 19.87 36.26 C 18.33 34.50 16.83 32.56 16.27 30.24 C 16.08 28.40 16.00 26.55 15.83 24.71 Z" />
<path fill="#ffffff" opacity="1.00" d=" M 10.14 46.29 C 24.65 46.33 39.15 46.38 53.66 46.26 C 54.36 47.80 54.59 49.44 54.35 51.19 C 39.45 51.22 24.55 51.22 9.65 51.19 C 9.50 49.51 9.66 47.87 10.14 46.29 Z" />
</g>
<g id="#c173d6ff">
<path fill="#c173d6" opacity="1.00" d=" M 11.29 9.21 C 13.30 8.09 15.63 7.61 17.92 7.65 C 27.29 7.66 36.65 7.66 46.01 7.65 C 49.45 7.61 53.38 8.63 55.35 11.70 C 55.95 12.34 56.29 13.39 57.27 13.57 L 58.02 13.80 C 58.30 16.89 57.65 19.97 57.65 23.07 C 58.00 27.95 51.96 31.12 47.74 30.23 C 47.92 28.39 48.02 26.54 48.15 24.70 C 48.31 24.07 48.63 22.80 48.80 22.17 C 46.89 16.99 42.01 13.63 36.90 12.06 C 33.64 11.90 30.37 11.90 27.11 12.06 C 22.05 13.63 17.07 16.94 15.26 22.15 C 15.41 22.79 15.69 24.07 15.83 24.71 C 16.00 26.55 16.08 28.40 16.27 30.24 C 13.61 31.18 11.02 29.48 8.81 28.19 C 5.30 26.04 6.67 21.44 6.05 18.06 C 6.17 16.72 5.19 14.76 6.52 13.81 C 8.34 12.52 9.25 10.25 11.29 9.21 Z" />
<path fill="#c173d6" opacity="1.00" d=" M 22.92 20.83 C 27.10 16.90 33.86 16.47 38.82 19.14 C 42.19 20.88 44.65 24.94 43.19 28.72 C 41.24 29.14 40.31 30.86 39.11 32.25 C 34.41 32.73 29.62 32.56 24.90 32.32 C 23.78 30.84 22.75 29.17 20.81 28.71 C 19.81 25.95 20.74 22.75 22.92 20.83 Z" />
</g>
</svg>
