<?xml version="1.0" encoding="UTF-8" ?>
<!DOCTYPE svg PUBLIC "-//W3C//DTD SVG 1.1//EN" "http://www.w3.org/Graphics/SVG/1.1/DTD/svg11.dtd">
<svg width="64pt" height="64pt" viewBox="0 0 64 64" version="1.1" xmlns="http://www.w3.org/2000/svg">
<g id="#9939b5ff">
<path fill="#9939b5" opacity="1.00" d=" M 12.44 3.66 C 24.26 2.97 36.15 3.55 47.99 3.35 C 54.45 2.80 60.71 8.37 60.65 14.90 C 60.72 26.26 60.64 37.62 60.62 48.98 C 60.82 55.11 55.24 60.76 49.10 60.64 C 37.70 60.68 26.30 60.68 14.90 60.64 C 8.79 60.76 3.21 55.14 3.38 49.02 C 3.35 37.69 3.29 26.35 3.34 15.02 C 3.28 9.72 7.36 4.87 12.44 3.66 M 6.59 13.62 L 6.10 14.09 C 6.21 17.83 6.11 21.60 6.68 25.31 C 8.21 29.03 12.60 30.08 16.18 30.67 C 16.12 35.36 16.18 40.05 16.13 44.73 C 17.47 44.81 18.80 44.89 20.14 44.99 C 20.95 40.49 19.99 35.84 20.53 31.28 C 22.71 31.73 24.91 32.17 27.15 32.30 C 27.10 36.47 27.14 40.64 27.10 44.80 C 28.37 44.80 29.65 44.79 30.92 44.78 C 30.90 40.68 30.91 36.58 30.81 32.47 C 33.46 32.56 36.15 32.47 38.59 31.33 C 38.64 36.22 38.01 41.21 39.01 46.04 C 40.04 49.96 44.35 51.49 48.03 51.41 C 48.06 52.14 48.13 53.59 48.16 54.31 C 50.13 52.69 52.14 51.13 54.22 49.67 C 52.21 48.07 50.11 46.59 48.00 45.13 C 48.02 45.91 48.07 47.45 48.09 48.23 C 45.71 48.40 42.83 47.80 42.43 44.98 C 42.39 40.53 42.40 36.08 42.71 31.64 C 47.82 30.72 54.65 30.59 57.32 25.33 C 57.62 21.56 58.35 17.54 57.57 13.86 C 56.23 9.74 52.61 6.07 48.03 6.21 C 37.33 6.09 26.61 6.08 15.91 6.21 C 11.48 6.12 7.86 9.57 6.59 13.62 Z" />
<path fill="#9939b5" opacity="1.00" d=" M 12.48 15.04 C 14.33 15.01 16.19 14.99 18.04 14.96 C 18.99 15.99 19.93 17.02 20.88 18.06 C 22.00 17.04 23.13 16.02 24.26 15.00 C 25.77 14.99 27.27 14.99 28.78 14.98 C 29.82 16.23 30.85 17.49 31.89 18.74 C 33.33 17.46 34.76 16.18 36.17 14.87 C 38.03 15.00 40.13 14.76 41.42 16.43 L 41.58 18.17 C 40.46 17.28 39.24 16.55 37.94 15.99 C 34.51 17.08 32.56 20.37 30.94 23.35 C 31.10 20.40 30.35 16.86 26.97 16.15 C 23.03 15.97 21.46 20.07 20.42 23.14 C 19.91 21.24 20.05 19.01 18.76 17.41 C 17.42 15.75 15.07 16.31 13.22 15.86 L 12.48 15.04 Z" />
</g>
<g id="#ffffffff">
<path fill="#ffffff" opacity="1.00" d=" M 6.59 13.62 C 7.86 9.57 11.48 6.12 15.91 6.21 C 26.61 6.08 37.33 6.09 48.03 6.21 C 52.61 6.07 56.23 9.74 57.57 13.86 C 54.94 10.63 51.54 7.46 47.06 7.69 C 36.71 7.66 26.34 7.52 16.00 7.76 C 11.89 7.73 9.21 10.95 6.59 13.62 Z" />
<path fill="#ffffff" opacity="1.00" d=" M 13.22 15.86 C 15.07 16.31 17.42 15.75 18.76 17.41 C 20.05 19.01 19.91 21.24 20.42 23.14 C 21.46 20.07 23.03 15.97 26.97 16.15 C 30.35 16.86 31.10 20.40 30.94 23.35 C 32.56 20.37 34.51 17.08 37.94 15.99 C 39.24 16.55 40.46 17.28 41.58 18.17 C 42.47 27.08 41.71 36.06 42.43 44.98 C 42.83 47.80 45.71 48.40 48.09 48.23 C 48.07 47.45 48.02 45.91 48.00 45.13 C 50.11 46.59 52.21 48.07 54.22 49.67 C 52.14 51.13 50.13 52.69 48.16 54.31 C 48.13 53.59 48.06 52.14 48.03 51.41 C 44.35 51.49 40.04 49.96 39.01 46.04 C 38.01 41.21 38.64 36.22 38.59 31.33 C 38.64 28.23 38.89 25.09 38.18 22.05 C 37.43 20.72 35.64 20.02 34.86 21.73 C 32.40 24.73 30.62 28.51 30.81 32.47 C 30.91 36.58 30.90 40.68 30.92 44.78 C 29.65 44.79 28.37 44.80 27.10 44.80 C 27.14 40.64 27.10 36.47 27.15 32.30 C 26.82 28.23 28.49 23.12 24.94 20.06 C 22.15 23.38 19.79 27.51 19.98 31.98 C 20.09 36.32 19.94 40.66 20.14 44.99 C 18.80 44.89 17.47 44.81 16.13 44.73 C 16.18 40.05 16.12 35.36 16.18 30.67 C 16.24 25.61 17.06 19.87 13.22 15.86 Z" />
</g>
<g id="#c478d8ff">
<path fill="#c478d8" opacity="1.00" d=" M 6.59 13.62 C 9.21 10.95 11.89 7.73 16.00 7.76 C 26.34 7.52 36.71 7.66 47.06 7.69 C 51.54 7.46 54.94 10.63 57.57 13.86 C 58.35 17.54 57.62 21.56 57.32 25.33 C 54.65 30.59 47.82 30.72 42.71 31.64 C 42.40 36.08 42.39 40.53 42.43 44.98 C 41.71 36.06 42.47 27.08 41.58 18.17 L 41.42 16.43 C 40.13 14.76 38.03 15.00 36.17 14.87 C 34.76 16.18 33.33 17.46 31.89 18.74 C 30.85 17.49 29.82 16.23 28.78 14.98 C 27.27 14.99 25.77 14.99 24.26 15.00 C 23.13 16.02 22.00 17.04 20.88 18.06 C 19.93 17.02 18.99 15.99 18.04 14.96 C 16.19 14.99 14.33 15.01 12.48 15.04 L 13.22 15.86 C 17.06 19.87 16.24 25.61 16.18 30.67 C 12.60 30.08 8.21 29.03 6.68 25.31 C 6.11 21.60 6.21 17.83 6.10 14.09 L 6.59 13.62 Z" />
<path fill="#c478d8" opacity="1.00" d=" M 19.98 31.98 C 19.79 27.51 22.15 23.38 24.94 20.06 C 28.49 23.12 26.82 28.23 27.15 32.30 C 24.91 32.17 22.71 31.73 20.53 31.28 C 19.99 35.84 20.95 40.49 20.14 44.99 C 19.94 40.66 20.09 36.32 19.98 31.98 Z" />
<path fill="#c478d8" opacity="1.00" d=" M 34.86 21.73 C 35.64 20.02 37.43 20.72 38.18 22.05 C 38.89 25.09 38.64 28.23 38.59 31.33 C 36.15 32.47 33.46 32.56 30.81 32.47 C 30.62 28.51 32.40 24.73 34.86 21.73 Z" />
</g>
</svg>
