<?xml version="1.0" encoding="UTF-8" ?>
<!DOCTYPE svg PUBLIC "-//W3C//DTD SVG 1.1//EN" "http://www.w3.org/Graphics/SVG/1.1/DTD/svg11.dtd">
<svg width="64pt" height="64pt" viewBox="0 0 64 64" version="1.1" xmlns="http://www.w3.org/2000/svg">
<g id="#9839b5ff">
<path fill="#9839b5" opacity="1.00" d=" M 12.51 3.64 C 24.32 2.98 36.19 3.54 48.02 3.35 C 54.49 2.83 60.75 8.43 60.66 14.97 C 60.71 26.34 60.65 37.72 60.62 49.09 C 60.76 55.21 55.15 60.80 49.03 60.64 C 37.69 60.68 26.35 60.68 15.02 60.64 C 8.87 60.82 3.23 55.20 3.38 49.06 C 3.35 37.71 3.29 26.36 3.34 15.01 C 3.26 9.69 7.42 4.84 12.51 3.64 M 6.92 13.47 L 6.00 13.64 C 6.22 17.52 6.10 21.43 6.64 25.28 C 7.83 28.43 11.32 29.49 14.12 30.73 C 16.05 29.28 17.56 26.59 20.07 26.38 C 22.14 28.12 23.96 30.14 25.94 31.98 C 31.45 28.59 35.71 23.51 41.23 20.16 L 41.47 21.41 C 36.38 26.04 31.12 30.50 25.84 34.92 C 23.65 32.71 21.61 30.37 19.56 28.04 C 18.38 29.14 17.19 30.24 16.00 31.33 C 18.01 33.59 20.01 35.86 22.06 38.10 C 18.71 41.28 15.14 44.21 11.65 47.22 C 12.57 48.32 13.48 49.43 14.39 50.53 C 18.00 47.61 21.40 44.44 25.01 41.52 C 26.90 43.72 28.74 45.98 30.87 47.95 C 32.01 46.94 33.17 45.93 34.33 44.94 C 32.45 42.71 30.48 40.55 28.72 38.22 C 30.79 36.38 32.89 34.59 34.98 32.79 C 38.79 32.27 42.60 31.71 46.36 30.90 C 46.37 33.24 46.37 35.58 46.39 37.93 C 47.84 37.92 49.29 37.91 50.75 37.90 C 50.65 30.98 50.69 24.06 50.58 17.14 C 51.50 21.36 51.18 25.73 52.23 29.92 C 54.34 28.68 57.01 27.38 57.45 24.70 C 57.83 21.02 57.90 17.32 57.94 13.62 L 57.21 13.39 C 56.12 9.36 52.37 6.16 48.12 6.22 C 37.40 6.08 26.67 6.09 15.95 6.21 C 11.73 6.15 7.71 9.29 6.92 13.47 Z" />
<path fill="#9839b5" opacity="1.00" d=" M 29.30 11.94 C 36.32 13.33 43.50 13.78 50.53 15.14 L 50.56 16.58 C 43.46 15.68 36.39 14.45 29.26 13.73 C 29.27 13.28 29.29 12.39 29.30 11.94 Z" />
</g>
<g id="#ffffffff">
<path fill="#ffffff" opacity="1.00" d=" M 6.92 13.47 C 7.71 9.29 11.73 6.15 15.95 6.21 C 26.67 6.09 37.40 6.08 48.12 6.22 C 52.37 6.16 56.12 9.36 57.21 13.39 C 57.04 13.33 56.69 13.21 56.51 13.16 C 54.16 9.09 49.60 7.20 45.00 7.63 C 36.67 7.65 28.33 7.68 20.00 7.62 C 17.29 7.65 14.44 7.61 11.94 8.83 C 9.76 9.76 8.77 12.11 6.92 13.47 Z" />
<path fill="#ffffff" opacity="1.00" d=" M 29.23 17.87 C 29.24 16.49 29.24 15.11 29.26 13.73 C 36.39 14.45 43.46 15.68 50.56 16.58 L 50.58 17.14 C 50.69 24.06 50.65 30.98 50.75 37.90 C 49.29 37.91 47.84 37.92 46.39 37.93 C 46.37 35.58 46.37 33.24 46.36 30.90 C 46.35 28.37 46.26 25.84 46.14 23.32 C 42.29 26.32 38.64 29.56 34.98 32.79 C 32.89 34.59 30.79 36.38 28.72 38.22 C 30.48 40.55 32.45 42.71 34.33 44.94 C 33.17 45.93 32.01 46.94 30.87 47.95 C 28.74 45.98 26.90 43.72 25.01 41.52 C 21.40 44.44 18.00 47.61 14.39 50.53 C 13.48 49.43 12.57 48.32 11.65 47.22 C 15.14 44.21 18.71 41.28 22.06 38.10 C 20.01 35.86 18.01 33.59 16.00 31.33 C 17.19 30.24 18.38 29.14 19.56 28.04 C 21.61 30.37 23.65 32.71 25.84 34.92 C 31.12 30.50 36.38 26.04 41.47 21.41 C 41.73 21.09 42.24 20.45 42.49 20.13 C 38.09 19.28 33.64 18.67 29.23 17.87 Z" />
</g>
<g id="#c377d7ff">
<path fill="#c377d7" opacity="1.00" d=" M 11.94 8.83 C 14.44 7.61 17.29 7.65 20.00 7.62 C 28.33 7.68 36.67 7.65 45.00 7.63 C 49.60 7.20 54.16 9.09 56.51 13.16 C 56.69 13.21 57.04 13.33 57.21 13.39 L 57.94 13.62 C 57.90 17.32 57.83 21.02 57.45 24.70 C 57.01 27.38 54.34 28.68 52.23 29.92 C 51.18 25.73 51.50 21.36 50.58 17.14 L 50.56 16.58 L 50.53 15.14 C 43.50 13.78 36.32 13.33 29.30 11.94 C 29.29 12.39 29.27 13.28 29.26 13.73 C 29.24 15.11 29.24 16.49 29.23 17.87 C 33.64 18.67 38.09 19.28 42.49 20.13 C 42.24 20.45 41.73 21.09 41.47 21.41 L 41.23 20.16 C 35.71 23.51 31.45 28.59 25.94 31.98 C 23.96 30.14 22.14 28.12 20.07 26.38 C 17.56 26.59 16.05 29.28 14.12 30.73 C 11.32 29.49 7.83 28.43 6.64 25.28 C 6.10 21.43 6.22 17.52 6.00 13.64 L 6.92 13.47 C 8.77 12.11 9.76 9.76 11.94 8.83 Z" />
<path fill="#c377d7" opacity="1.00" d=" M 34.98 32.79 C 38.64 29.56 42.29 26.32 46.14 23.32 C 46.26 25.84 46.35 28.37 46.36 30.90 C 42.60 31.71 38.79 32.27 34.98 32.79 Z" />
</g>
</svg>
