<?xml version="1.0" encoding="UTF-8" ?>
<!DOCTYPE svg PUBLIC "-//W3C//DTD SVG 1.1//EN" "http://www.w3.org/Graphics/SVG/1.1/DTD/svg11.dtd">
<svg width="64pt" height="64pt" viewBox="0 0 64 64" version="1.1" xmlns="http://www.w3.org/2000/svg">
<g id="#9839b4ff">
<path fill="#9839b4" opacity="1.00" d=" M 13.34 3.47 C 25.26 3.22 37.18 3.41 49.10 3.37 C 55.19 3.35 60.68 8.83 60.68 14.93 C 60.69 26.30 60.65 37.67 60.63 49.04 C 60.78 55.15 55.18 60.78 49.04 60.66 C 37.68 60.67 26.32 60.67 14.95 60.66 C 8.84 60.77 3.25 55.19 3.37 49.11 C 3.35 37.74 3.31 26.37 3.32 15.00 C 3.29 9.38 7.88 4.34 13.34 3.47 M 7.35 11.39 L 7.11 11.36 C 4.94 14.92 6.54 19.10 6.38 22.99 C 6.12 24.71 7.30 25.85 8.97 26.10 C 8.76 26.54 8.35 27.42 8.14 27.85 L 8.96 27.75 C 12.10 30.93 16.88 31.06 21.04 31.62 C 26.48 33.13 32.23 32.36 37.82 32.51 C 43.70 30.83 50.67 31.92 55.67 27.69 C 58.61 25.34 57.36 21.25 57.87 18.02 C 58.28 15.76 58.03 13.45 56.94 11.40 L 56.65 11.41 C 54.75 8.52 51.66 6.22 48.08 6.18 C 37.40 6.11 26.73 6.12 16.05 6.18 C 12.44 6.18 9.28 8.47 7.35 11.39 M 22.13 35.03 C 17.50 39.14 12.12 42.47 7.84 46.93 C 9.57 46.80 11.30 46.81 13.04 46.79 C 16.07 44.56 18.78 41.81 22.02 39.94 C 22.57 42.15 21.86 44.48 22.23 46.73 C 23.43 46.82 24.63 46.83 25.83 46.77 C 28.92 44.53 31.68 41.82 34.87 39.75 C 35.27 42.05 34.45 44.57 35.22 46.75 C 36.40 46.83 37.57 46.83 38.75 46.76 C 41.84 44.64 44.46 41.59 47.80 39.98 C 47.81 42.21 47.90 44.43 47.75 46.66 C 48.73 46.67 50.70 46.70 51.68 46.72 C 51.20 42.84 51.83 38.91 51.42 35.03 C 45.82 33.75 43.09 40.80 38.32 41.89 C 38.81 39.73 38.66 37.50 38.68 35.31 C 37.51 34.93 36.28 34.84 35.00 35.05 C 31.93 37.26 29.21 40.04 25.99 41.95 C 25.42 39.82 26.14 37.40 25.83 35.15 C 24.60 34.98 23.37 34.94 22.13 35.03 Z" />
<path fill="#9839b4" opacity="1.00" d=" M 18.09 17.19 C 20.19 15.46 22.84 13.31 25.74 14.52 C 27.26 15.99 25.85 18.42 26.53 20.25 C 30.50 18.70 33.01 13.51 37.76 14.28 C 40.57 15.01 38.90 18.33 39.59 20.31 C 42.19 18.70 44.41 16.56 46.92 14.84 C 48.38 14.05 50.84 13.54 51.82 15.27 L 51.67 16.19 C 45.93 14.32 43.19 21.33 38.43 22.81 C 38.77 20.60 38.79 18.35 38.79 16.11 C 37.49 15.97 36.19 15.93 34.89 15.99 C 31.94 18.05 29.29 20.48 26.45 22.68 C 24.99 20.97 26.31 18.17 25.91 16.04 C 24.61 15.99 23.31 15.97 22.00 15.98 C 17.62 19.28 13.52 23.14 8.97 26.10 C 8.86 25.75 8.65 25.05 8.54 24.69 C 11.55 21.99 15.02 19.83 18.09 17.19 Z" />
</g>
<g id="#ffffffff">
<path fill="#ffffff" opacity="1.00" d=" M 7.35 11.39 C 9.28 8.47 12.44 6.18 16.05 6.18 C 26.73 6.12 37.40 6.11 48.08 6.18 C 51.66 6.22 54.75 8.52 56.65 11.41 C 56.34 11.44 55.72 11.51 55.41 11.54 C 53.35 9.08 50.27 7.70 47.07 7.65 C 37.06 7.65 27.04 7.66 17.03 7.64 C 13.80 7.69 10.64 9.03 8.59 11.58 C 8.28 11.53 7.66 11.44 7.35 11.39 Z" />
<path fill="#ffffff" opacity="1.00" d=" M 8.97 26.10 C 13.52 23.14 17.62 19.28 22.00 15.98 C 23.31 15.97 24.61 15.99 25.91 16.04 C 26.31 18.17 24.99 20.97 26.45 22.68 C 29.29 20.48 31.94 18.05 34.89 15.99 C 36.19 15.93 37.49 15.97 38.79 16.11 C 38.79 18.35 38.77 20.60 38.43 22.81 C 43.19 21.33 45.93 14.32 51.67 16.19 C 51.11 19.90 51.39 23.68 51.37 27.43 C 50.35 27.54 49.33 27.59 48.30 27.58 C 47.71 25.30 48.08 22.90 47.82 20.57 C 43.47 22.45 40.76 28.20 35.53 27.54 C 34.37 25.56 35.45 22.84 34.99 20.59 C 30.53 22.49 27.72 28.40 22.33 27.53 C 22.11 25.23 22.29 22.91 22.13 20.60 C 17.55 22.75 14.62 28.48 8.96 27.75 L 8.14 27.85 C 8.35 27.42 8.76 26.54 8.97 26.10 Z" />
<path fill="#ffffff" opacity="1.00" d=" M 22.13 35.03 C 23.37 34.94 24.60 34.98 25.83 35.15 C 26.14 37.40 25.42 39.82 25.99 41.95 C 29.21 40.04 31.93 37.26 35.00 35.05 C 36.28 34.84 37.51 34.93 38.68 35.31 C 38.66 37.50 38.81 39.73 38.32 41.89 C 43.09 40.80 45.82 33.75 51.42 35.03 C 51.83 38.91 51.20 42.84 51.68 46.72 C 50.70 46.70 48.73 46.67 47.75 46.66 C 47.90 44.43 47.81 42.21 47.80 39.98 C 44.46 41.59 41.84 44.64 38.75 46.76 C 37.57 46.83 36.40 46.83 35.22 46.75 C 34.45 44.57 35.27 42.05 34.87 39.75 C 31.68 41.82 28.92 44.53 25.83 46.77 C 24.63 46.83 23.43 46.82 22.23 46.73 C 21.86 44.48 22.57 42.15 22.02 39.94 C 18.78 41.81 16.07 44.56 13.04 46.79 C 11.30 46.81 9.57 46.80 7.84 46.93 C 12.12 42.47 17.50 39.14 22.13 35.03 Z" />
</g>
<g id="#c377d8ff">
<path fill="#c377d8" opacity="1.00" d=" M 8.59 11.58 C 10.64 9.03 13.80 7.69 17.03 7.64 C 27.04 7.66 37.06 7.65 47.07 7.65 C 50.27 7.70 53.35 9.08 55.41 11.54 C 55.72 11.51 56.34 11.44 56.65 11.41 L 56.94 11.40 C 58.03 13.45 58.28 15.76 57.87 18.02 C 57.36 21.25 58.61 25.34 55.67 27.69 C 50.67 31.92 43.70 30.83 37.82 32.51 C 32.23 32.36 26.48 33.13 21.04 31.62 C 16.88 31.06 12.10 30.93 8.96 27.75 C 14.62 28.48 17.55 22.75 22.13 20.60 C 22.29 22.91 22.11 25.23 22.33 27.53 C 27.72 28.40 30.53 22.49 34.99 20.59 C 35.45 22.84 34.37 25.56 35.53 27.54 C 40.76 28.20 43.47 22.45 47.82 20.57 C 48.08 22.90 47.71 25.30 48.30 27.58 C 49.33 27.59 50.35 27.54 51.37 27.43 C 51.39 23.68 51.11 19.90 51.67 16.19 L 51.82 15.27 C 50.84 13.54 48.38 14.05 46.92 14.84 C 44.41 16.56 42.19 18.70 39.59 20.31 C 38.90 18.33 40.57 15.01 37.76 14.28 C 33.01 13.51 30.50 18.70 26.53 20.25 C 25.85 18.42 27.26 15.99 25.74 14.52 C 22.84 13.31 20.19 15.46 18.09 17.19 C 15.02 19.83 11.55 21.99 8.54 24.69 C 8.65 25.05 8.86 25.75 8.97 26.10 C 7.30 25.85 6.12 24.71 6.38 22.99 C 6.54 19.10 4.94 14.92 7.11 11.36 L 7.35 11.39 C 7.66 11.44 8.28 11.53 8.59 11.58 Z" />
</g>
</svg>
