<?xml version="1.0" encoding="UTF-8" ?>
<!DOCTYPE svg PUBLIC "-//W3C//DTD SVG 1.1//EN" "http://www.w3.org/Graphics/SVG/1.1/DTD/svg11.dtd">
<svg width="64pt" height="64pt" viewBox="0 0 64 64" version="1.1" xmlns="http://www.w3.org/2000/svg">
<g id="#000000ff">
<path fill="#000000" opacity="1.00" d=" M 10.67 28.46 C 14.06 17.52 23.18 9.82 32.00 3.15 C 40.81 9.81 49.93 17.50 53.32 28.43 C 55.09 34.28 55.14 41.84 50.14 46.14 C 45.19 50.19 37.81 48.17 33.70 43.87 C 34.37 51.45 41.40 59.02 49.46 56.77 C 49.55 58.22 49.52 59.68 49.36 61.13 C 38.17 61.25 26.98 61.12 15.79 61.19 C 15.49 61.00 14.91 60.62 14.61 60.42 C 14.67 59.60 14.77 57.97 14.83 57.15 C 18.06 57.33 21.51 57.18 24.27 55.25 C 28.20 52.67 29.96 47.93 30.55 43.45 C 26.64 48.14 18.97 50.24 13.92 46.18 C 8.85 41.92 8.91 34.31 10.67 28.46 M 21.09 15.28 L 20.84 15.29 C 19.84 16.35 18.97 17.52 18.14 18.71 C 16.29 20.66 14.95 23.19 14.04 25.73 C 12.46 27.22 12.47 29.52 12.11 31.51 C 11.09 34.94 11.45 38.80 13.09 41.99 C 15.06 45.59 19.86 47.26 23.62 45.57 C 26.94 44.64 29.25 40.52 33.04 41.88 C 37.12 42.94 40.39 47.18 44.98 46.07 C 51.17 45.20 53.70 37.62 51.89 32.29 C 51.72 30.31 51.45 28.32 50.90 26.40 L 50.06 26.43 C 49.40 23.59 47.86 20.88 45.90 18.77 C 45.06 17.57 44.20 16.38 43.19 15.32 L 42.91 15.30 C 39.74 11.57 35.77 8.61 32.00 5.52 C 28.23 8.61 24.29 11.57 21.09 15.28 M 31.34 49.01 C 29.79 53.20 26.56 56.24 22.96 58.71 C 29.07 58.69 35.19 58.71 41.30 58.70 C 38.38 56.27 35.12 53.99 33.67 50.32 C 33.30 49.37 32.12 46.99 31.34 49.01 Z" />
</g>
<g id="#808080ff">
<path fill="#808080" opacity="1.00" d=" M 21.09 15.28 C 24.29 11.57 28.23 8.61 32.00 5.52 C 35.77 8.61 39.74 11.57 42.91 15.30 C 35.64 15.61 28.36 15.64 21.09 15.28 Z" />
</g>
<g id="#6d6d6dff">
<path fill="#6d6d6d" opacity="1.00" d=" M 20.84 15.29 L 21.09 15.28 C 28.36 15.64 35.64 15.61 42.91 15.30 L 43.19 15.32 C 44.20 16.38 45.06 17.57 45.90 18.77 C 41.69 21.31 36.67 20.37 32.01 20.51 C 27.35 20.34 22.30 21.37 18.14 18.71 C 18.97 17.52 19.84 16.35 20.84 15.29 Z" />
</g>
<g id="#5c5c5cff">
<path fill="#5c5c5c" opacity="1.00" d=" M 14.04 25.73 C 14.95 23.19 16.29 20.66 18.14 18.71 C 22.30 21.37 27.35 20.34 32.01 20.51 C 36.67 20.37 41.69 21.31 45.90 18.77 C 47.86 20.88 49.40 23.59 50.06 26.43 C 38.80 27.22 27.45 25.69 16.23 27.29 C 14.99 27.67 14.37 26.81 14.04 25.73 Z" />
</g>
<g id="#454545ff">
<path fill="#454545" opacity="1.00" d=" M 12.11 31.51 C 12.47 29.52 12.46 27.22 14.04 25.73 C 14.37 26.81 14.99 27.67 16.23 27.29 C 27.45 25.69 38.80 27.22 50.06 26.43 L 50.90 26.40 C 51.45 28.32 51.72 30.31 51.89 32.29 C 38.72 34.17 25.14 34.41 12.11 31.51 Z" />
</g>
<g id="#1a1a1aff">
<path fill="#1a1a1a" opacity="1.00" d=" M 12.11 31.51 C 25.14 34.41 38.72 34.17 51.89 32.29 C 53.70 37.62 51.17 45.20 44.98 46.07 C 40.39 47.18 37.12 42.94 33.04 41.88 C 29.25 40.52 26.94 44.64 23.62 45.57 C 19.86 47.26 15.06 45.59 13.09 41.99 C 11.45 38.80 11.09 34.94 12.11 31.51 Z" />
<path fill="#1a1a1a" opacity="1.00" d=" M 31.34 49.01 C 32.12 46.99 33.30 49.37 33.67 50.32 C 35.12 53.99 38.38 56.27 41.30 58.70 C 35.19 58.71 29.07 58.69 22.96 58.71 C 26.56 56.24 29.79 53.20 31.34 49.01 Z" />
</g>
</svg>
