<?xml version="1.0" encoding="UTF-8" ?>
<!DOCTYPE svg PUBLIC "-//W3C//DTD SVG 1.1//EN" "http://www.w3.org/Graphics/SVG/1.1/DTD/svg11.dtd">
<svg width="64pt" height="64pt" viewBox="0 0 64 64" version="1.1" xmlns="http://www.w3.org/2000/svg">
<g id="#319e40ff">
<path fill="#319e40" opacity="1.00" d=" M 17.32 4.39 C 18.53 2.51 20.87 1.93 22.98 2.01 C 29.67 2.02 36.37 1.91 43.06 2.06 C 47.75 2.87 48.58 8.51 51.08 11.79 C 52.27 11.10 53.48 10.45 54.68 9.79 C 52.14 14.09 49.71 18.45 47.10 22.71 C 42.32 22.58 37.54 22.71 32.75 22.67 C 33.77 21.87 34.85 21.16 35.94 20.44 C 34.59 18.15 33.27 15.83 31.97 13.52 C 30.38 16.42 28.69 19.26 27.07 22.14 C 21.59 20.09 16.93 16.39 11.68 13.87 C 13.69 10.79 15.27 7.45 17.32 4.39 Z" />
<path fill="#319e40" opacity="1.00" d=" M 1.69 22.82 C 6.58 22.67 11.47 22.87 16.35 22.69 C 19.09 26.91 21.46 31.36 23.98 35.71 C 22.87 34.98 21.75 34.25 20.62 33.52 C 19.17 35.79 17.78 38.11 16.37 40.40 C 19.84 40.62 23.32 40.49 26.80 40.52 C 26.79 46.29 26.76 52.06 26.82 57.83 C 22.90 57.79 18.96 58.03 15.05 57.72 C 12.23 57.38 11.14 54.33 9.79 52.26 C 6.83 46.76 3.31 41.55 0.47 35.99 C 0.09 31.74 3.76 28.51 5.48 24.89 C 4.21 24.21 2.95 23.52 1.69 22.82 Z" />
<path fill="#319e40" opacity="1.00" d=" M 42.34 31.68 C 47.42 28.78 52.40 25.69 57.59 22.97 C 59.43 27.06 62.75 30.55 63.69 34.98 C 62.59 39.25 59.37 42.64 57.46 46.59 C 55.07 50.15 53.72 54.65 50.28 57.35 C 46.84 58.35 43.14 57.65 39.61 57.87 C 39.59 59.27 39.57 60.66 39.55 62.05 C 36.98 57.91 34.80 53.54 32.11 49.46 C 34.48 45.08 36.95 40.75 39.56 36.51 C 39.58 37.51 39.61 39.49 39.63 40.48 C 42.30 40.56 44.97 40.57 47.64 40.40 C 45.79 37.54 44.17 34.54 42.34 31.68 Z" />
</g>
</svg>
