<?xml version="1.0" encoding="UTF-8" ?>
<!DOCTYPE svg PUBLIC "-//W3C//DTD SVG 1.1//EN" "http://www.w3.org/Graphics/SVG/1.1/DTD/svg11.dtd">
<svg width="64pt" height="64pt" viewBox="0 0 64 64" version="1.1" xmlns="http://www.w3.org/2000/svg">
<g id="#005bafff">
<path fill="#005baf" opacity="1.00" d=" M 3.28 14.83 C 3.27 8.68 8.83 3.27 14.95 3.31 C 26.31 3.24 37.68 3.24 49.04 3.31 C 55.21 3.27 60.79 8.74 60.73 14.94 C 60.88 25.30 60.68 35.66 60.79 46.02 C 60.90 48.84 60.40 51.62 59.66 54.32 C 59.39 48.74 59.37 43.15 59.07 37.56 C 59.38 29.35 59.93 21.07 58.99 12.88 C 58.71 12.76 58.13 12.50 57.85 12.37 L 56.70 11.87 C 55.13 8.58 51.84 6.14 48.11 6.21 C 37.71 6.04 27.31 6.11 16.91 6.15 C 12.67 5.89 8.31 8.43 7.17 12.65 L 6.02 12.46 C 5.75 12.41 5.21 12.32 4.94 12.27 C 4.21 20.67 4.68 29.10 4.81 37.51 C 4.65 43.11 4.65 48.70 4.32 54.29 C 3.59 51.58 3.10 48.79 3.20 45.97 C 3.33 35.59 3.11 25.21 3.28 14.83 Z" />
</g>
<g id="#ffffffff">
<path fill="#ffffff" opacity="1.00" d=" M 7.17 12.65 C 8.31 8.43 12.67 5.89 16.91 6.15 C 27.31 6.11 37.71 6.04 48.11 6.21 C 51.84 6.14 55.13 8.58 56.70 11.87 C 56.78 12.74 56.95 14.48 57.03 15.34 C 56.87 14.86 56.54 13.89 56.37 13.41 C 54.79 9.23 50.24 7.43 46.04 7.62 C 36.02 7.69 25.98 7.43 15.96 7.75 C 12.28 7.76 9.33 10.18 7.49 13.17 C 7.28 13.45 6.86 14.00 6.65 14.28 L 7.17 12.65 Z" />
<path fill="#ffffff" opacity="1.00" d=" M 21.28 15.74 C 22.41 14.65 23.44 13.29 25.00 12.80 C 27.09 12.49 28.48 14.26 29.72 15.63 C 29.75 18.20 27.96 21.28 24.99 20.64 C 22.43 20.46 22.01 17.64 21.28 15.74 Z" />
<path fill="#ffffff" opacity="1.00" d=" M 24.73 22.50 C 28.18 22.82 28.83 26.15 28.96 29.00 C 31.91 29.00 34.86 29.01 37.81 29.01 C 37.90 29.73 38.08 31.16 38.17 31.87 C 35.02 32.03 31.87 32.16 28.71 32.18 C 28.74 33.48 28.75 34.79 28.76 36.09 C 32.46 36.13 36.19 35.82 39.88 36.32 C 42.53 39.42 44.12 43.26 46.28 46.71 C 47.45 46.22 48.61 45.73 49.80 45.29 C 50.18 45.77 50.94 46.74 51.31 47.22 C 49.08 48.79 46.75 50.22 44.38 51.58 C 42.60 48.49 40.88 45.36 39.07 42.28 C 38.91 42.04 38.58 41.54 38.42 41.29 C 34.25 41.04 30.08 41.41 25.91 41.15 C 24.70 41.11 23.01 40.67 22.74 39.28 C 22.17 36.15 22.47 32.93 22.40 29.76 C 22.43 27.12 22.16 24.13 24.73 22.50 Z" />
<path fill="#ffffff" opacity="1.00" d=" M 13.83 36.32 C 15.26 34.17 17.17 32.40 18.99 30.60 C 19.06 31.95 19.15 33.31 19.24 34.67 C 16.57 36.74 15.33 40.15 15.87 43.46 C 16.94 48.39 21.83 52.28 26.96 51.36 C 30.69 51.09 33.13 48.03 35.07 45.19 C 35.82 45.10 37.31 44.93 38.05 44.84 C 36.60 48.26 34.49 51.67 30.89 53.12 C 24.57 56.30 16.11 52.82 13.76 46.18 C 12.39 43.03 13.00 39.53 13.83 36.32 Z" />
</g>
<g id="#5facf0ff">
<path fill="#5facf0" opacity="1.00" d=" M 7.49 13.17 C 9.33 10.18 12.28 7.76 15.96 7.75 C 25.98 7.43 36.02 7.69 46.04 7.62 C 50.24 7.43 54.79 9.23 56.37 13.41 C 51.94 16.79 46.13 15.20 41.00 15.55 C 37.32 15.28 32.96 16.54 29.88 13.91 C 28.44 12.83 26.96 11.33 24.97 11.78 C 22.90 11.84 21.81 13.90 20.43 15.13 C 16.03 15.46 11.05 16.54 7.49 13.17 Z" />
</g>
<g id="#006fe7ff">
<path fill="#006fe7" opacity="1.00" d=" M 4.94 12.27 C 5.21 12.32 5.75 12.41 6.02 12.46 C 6.19 16.94 5.61 21.64 7.11 25.95 C 9.73 30.62 15.93 29.83 20.36 28.86 C 20.99 26.47 21.75 24.10 22.93 21.92 L 24.73 22.50 C 22.16 24.13 22.43 27.12 22.40 29.76 C 21.73 31.61 20.85 33.46 19.24 34.67 C 19.15 33.31 19.06 31.95 18.99 30.60 C 17.17 32.40 15.26 34.17 13.83 36.32 C 12.27 38.56 11.31 41.13 10.52 43.73 C 9.48 43.74 8.45 43.75 7.41 43.76 C 6.53 41.68 5.60 39.63 4.81 37.51 C 4.68 29.10 4.21 20.67 4.94 12.27 Z" />
</g>
<g id="#0456e3ff">
<path fill="#0456e3" opacity="1.00" d=" M 20.43 15.13 C 21.81 13.90 22.90 11.84 24.97 11.78 C 26.96 11.33 28.44 12.83 29.88 13.91 C 29.84 14.34 29.76 15.20 29.72 15.63 C 28.48 14.26 27.09 12.49 25.00 12.80 C 23.44 13.29 22.41 14.65 21.28 15.74 C 21.07 15.58 20.64 15.28 20.43 15.13 Z" />
<path fill="#0456e3" opacity="1.00" d=" M 10.52 43.73 C 11.31 41.13 12.27 38.56 13.83 36.32 C 13.00 39.53 12.39 43.03 13.76 46.18 C 16.11 52.82 24.57 56.30 30.89 53.12 C 34.49 51.67 36.60 48.26 38.05 44.84 L 38.51 43.96 C 37.20 44.01 35.90 44.05 34.59 44.08 C 34.76 43.88 35.11 43.47 35.28 43.26 C 36.54 42.93 37.80 42.60 39.07 42.28 C 40.88 45.36 42.60 48.49 44.38 51.58 C 46.75 50.22 49.08 48.79 51.31 47.22 C 50.94 46.74 50.18 45.77 49.80 45.29 C 52.05 45.82 54.28 46.47 56.50 47.10 C 57.35 43.92 58.28 40.76 59.07 37.56 C 59.37 43.15 59.39 48.74 59.66 54.32 L 59.62 54.56 C 56.91 57.74 53.47 60.91 48.96 60.66 C 37.64 60.73 26.32 60.73 15.00 60.66 C 10.50 60.90 7.07 57.71 4.36 54.54 L 4.32 54.29 C 4.65 48.70 4.65 43.11 4.81 37.51 C 5.60 39.63 6.53 41.68 7.41 43.76 C 8.45 43.75 9.48 43.74 10.52 43.73 Z" />
</g>
<g id="#0069e7ff">
<path fill="#0069e7" opacity="1.00" d=" M 57.85 12.37 C 58.13 12.50 58.71 12.76 58.99 12.88 C 59.93 21.07 59.38 29.35 59.07 37.56 C 58.28 40.76 57.35 43.92 56.50 47.10 C 54.28 46.47 52.05 45.82 49.80 45.29 C 48.61 45.73 47.45 46.22 46.28 46.71 C 44.12 43.26 42.53 39.42 39.88 36.32 C 36.19 35.82 32.46 36.13 28.76 36.09 C 28.75 34.79 28.74 33.48 28.71 32.18 C 31.87 32.16 35.02 32.03 38.17 31.87 C 44.13 31.85 50.58 31.74 55.54 27.96 C 58.98 23.55 57.77 17.55 57.85 12.37 Z" />
</g>
<g id="#3e9aeeff">
<path fill="#3e9aee" opacity="1.00" d=" M 6.02 12.46 L 7.17 12.65 L 6.65 14.28 C 6.86 14.00 7.28 13.45 7.49 13.17 C 11.05 16.54 16.03 15.46 20.43 15.13 C 20.64 15.28 21.07 15.58 21.28 15.74 C 22.01 17.64 22.43 20.46 24.99 20.64 C 27.96 21.28 29.75 18.20 29.72 15.63 C 29.76 15.20 29.84 14.34 29.88 13.91 C 32.96 16.54 37.32 15.28 41.00 15.55 C 46.13 15.20 51.94 16.79 56.37 13.41 C 56.54 13.89 56.87 14.86 57.03 15.34 C 56.95 14.48 56.78 12.74 56.70 11.87 L 57.85 12.37 C 57.77 17.55 58.98 23.55 55.54 27.96 C 49.64 27.30 43.67 27.11 37.76 27.70 L 37.81 29.01 C 34.86 29.01 31.91 29.00 28.96 29.00 C 28.83 26.15 28.18 22.82 24.73 22.50 L 22.93 21.92 C 21.75 24.10 20.99 26.47 20.36 28.86 C 15.93 29.83 9.73 30.62 7.11 25.95 C 5.61 21.64 6.19 16.94 6.02 12.46 Z" />
</g>
<g id="#2089ebff">
<path fill="#2089eb" opacity="1.00" d=" M 37.76 27.70 C 43.67 27.11 49.64 27.30 55.54 27.96 C 50.58 31.74 44.13 31.85 38.17 31.87 C 38.08 31.16 37.90 29.73 37.81 29.01 L 37.76 27.70 Z" />
</g>
<g id="#0060e5ff">
<path fill="#0060e5" opacity="1.00" d=" M 19.24 34.67 C 20.85 33.46 21.73 31.61 22.40 29.76 C 22.47 32.93 22.17 36.15 22.74 39.28 C 23.01 40.67 24.70 41.11 25.91 41.15 C 30.08 41.41 34.25 41.04 38.42 41.29 C 38.58 41.54 38.91 42.04 39.07 42.28 C 37.80 42.60 36.54 42.93 35.28 43.26 C 35.11 43.47 34.76 43.88 34.59 44.08 C 32.52 46.98 29.98 50.26 26.02 50.19 C 21.41 50.64 18.30 46.77 15.87 43.46 C 15.33 40.15 16.57 36.74 19.24 34.67 Z" />
</g>
<g id="#3642c3ff">
<path fill="#3642c3" opacity="1.00" d=" M 15.87 43.46 C 18.30 46.77 21.41 50.64 26.02 50.19 C 29.98 50.26 32.52 46.98 34.59 44.08 C 35.90 44.05 37.20 44.01 38.51 43.96 L 38.05 44.84 C 37.31 44.93 35.82 45.10 35.07 45.19 C 33.13 48.03 30.69 51.09 26.96 51.36 C 21.83 52.28 16.94 48.39 15.87 43.46 Z" />
</g>
<g id="#00000026">
<path fill="#000000" opacity="0.15" d=" M 13.39 64.00 C 9.07 62.58 4.27 59.69 4.36 54.54 C 7.07 57.71 10.50 60.90 15.00 60.66 C 26.32 60.73 37.64 60.73 48.96 60.66 C 53.47 60.91 56.91 57.74 59.62 54.56 C 59.69 59.67 54.94 62.54 50.67 64.00 L 13.39 64.00 Z" />
</g>
</svg>
