<?xml version="1.0" encoding="UTF-8" ?>
<!DOCTYPE svg PUBLIC "-//W3C//DTD SVG 1.1//EN" "http://www.w3.org/Graphics/SVG/1.1/DTD/svg11.dtd">
<svg width="64pt" height="64pt" viewBox="0 0 64 64" version="1.1" xmlns="http://www.w3.org/2000/svg">
<g id="#fcea78ff">
<path fill="#fcea78" opacity="1.00" d=" M 28.13 6.03 C 28.95 4.54 30.16 2.99 32.07 3.14 C 34.22 3.06 35.35 5.06 36.24 6.69 C 38.57 11.03 40.80 15.42 43.18 19.73 C 43.04 20.36 42.75 21.64 42.60 22.27 C 40.14 22.70 37.44 22.62 35.28 21.21 C 33.82 18.68 30.19 18.66 28.75 21.23 C 26.45 23.42 22.40 22.45 20.67 20.00 C 23.23 15.38 25.60 10.66 28.13 6.03 Z" />
</g>
<g id="#000000ff">
<path fill="#000000" opacity="1.00" d=" M 28.75 21.23 C 30.19 18.66 33.82 18.68 35.28 21.21 C 34.88 24.17 34.59 27.14 34.13 30.08 C 33.61 32.97 33.38 35.90 32.86 38.78 C 32.43 38.80 31.57 38.84 31.14 38.87 C 30.64 35.55 30.29 32.22 29.71 28.92 C 29.37 26.36 29.08 23.79 28.75 21.23 Z" />
<path fill="#000000" opacity="1.00" d=" M 29.17 42.85 C 30.61 40.91 33.44 40.94 34.85 42.88 C 35.99 45.03 34.52 48.02 31.96 47.98 C 29.42 47.95 28.01 44.97 29.17 42.85 Z" />
</g>
<g id="#f7de59ff">
<path fill="#f7de59" opacity="1.00" d=" M 16.42 28.02 C 17.85 25.35 19.23 22.66 20.67 20.00 C 22.40 22.45 26.45 23.42 28.75 21.23 C 29.08 23.79 29.37 26.36 29.71 28.92 C 29.49 29.28 29.04 29.99 28.82 30.35 C 25.30 30.68 21.75 30.40 18.23 30.05 C 17.78 29.54 16.87 28.53 16.42 28.02 Z" />
<path fill="#f7de59" opacity="1.00" d=" M 43.18 19.73 C 44.67 22.45 46.07 25.22 47.55 27.95 C 47.10 28.46 46.21 29.49 45.76 30.01 C 41.93 30.74 37.99 30.50 34.13 30.08 C 34.59 27.14 34.88 24.17 35.28 21.21 C 37.44 22.62 40.14 22.70 42.60 22.27 C 42.75 21.64 43.04 20.36 43.18 19.73 Z" />
</g>
<g id="#f3d341ff">
<path fill="#f3d341" opacity="1.00" d=" M 10.61 38.89 C 12.57 35.28 14.47 31.64 16.42 28.02 C 16.87 28.53 17.78 29.54 18.23 30.05 C 21.75 30.40 25.30 30.68 28.82 30.35 C 29.04 29.99 29.49 29.28 29.71 28.92 C 30.29 32.22 30.64 35.55 31.14 38.87 C 31.57 38.84 32.43 38.80 32.86 38.78 C 33.38 35.90 33.61 32.97 34.13 30.08 C 37.99 30.50 41.93 30.74 45.76 30.01 C 46.21 29.49 47.10 28.46 47.55 27.95 C 49.48 31.58 51.40 35.21 53.34 38.83 C 53.09 39.54 52.58 40.95 52.32 41.66 C 46.50 42.27 40.51 40.90 34.85 42.88 C 33.44 40.94 30.61 40.91 29.17 42.85 C 23.92 41.11 18.40 42.02 12.99 41.76 C 11.23 42.08 10.82 40.21 10.61 38.89 Z" />
</g>
<g id="#f0cb2eff">
<path fill="#f0cb2e" opacity="1.00" d=" M 6.30 47.52 C 7.35 44.48 9.26 41.81 10.61 38.89 C 10.82 40.21 11.23 42.08 12.99 41.76 C 18.40 42.02 23.92 41.11 29.17 42.85 C 28.01 44.97 29.42 47.95 31.96 47.98 C 34.52 48.02 35.99 45.03 34.85 42.88 C 40.51 40.90 46.50 42.27 52.32 41.66 C 52.58 40.95 53.09 39.54 53.34 38.83 C 53.88 39.79 54.40 40.76 54.83 41.77 C 55.49 44.09 56.14 46.42 56.70 48.77 C 52.49 49.15 48.26 49.13 44.04 49.00 C 38.36 48.79 32.70 50.12 27.03 49.23 C 21.35 48.43 15.63 49.41 9.93 48.98 C 8.57 48.97 7.44 48.16 6.30 47.52 Z" />
</g>
<g id="#edc325ff">
<path fill="#edc325" opacity="1.00" d=" M 54.83 41.77 C 55.90 43.55 56.83 45.40 57.78 47.25 C 58.54 48.89 59.44 50.46 60.29 52.06 C 61.75 54.50 59.73 57.91 56.90 57.66 C 40.27 57.67 23.64 57.68 7.01 57.66 C 4.22 57.85 2.28 54.48 3.70 52.08 C 4.55 50.54 5.44 49.01 6.02 47.35 L 6.02 47.34 L 6.30 47.52 C 7.44 48.16 8.57 48.97 9.93 48.98 C 15.63 49.41 21.35 48.43 27.03 49.23 C 32.70 50.12 38.36 48.79 44.04 49.00 C 48.26 49.13 52.49 49.15 56.70 48.77 C 56.14 46.42 55.49 44.09 54.83 41.77 Z" />
</g>
<g id="#03020048">
<path fill="#030200" opacity="0.28" d=" M 2.88 59.11 C 1.44 55.16 2.05 49.57 6.02 47.35 C 5.44 49.01 4.55 50.54 3.70 52.08 C 2.26 54.24 3.38 57.06 5.11 58.68 C 7.46 60.01 10.31 60.21 12.96 60.32 C 25.96 60.29 38.97 60.32 51.98 60.31 C 54.91 60.05 58.93 59.98 60.28 56.80 C 61.21 55.34 61.16 53.53 60.29 52.06 C 59.44 50.46 58.54 48.89 57.78 47.25 C 59.67 46.90 59.83 49.23 60.69 50.31 C 62.38 53.62 62.68 58.97 58.95 61.00 C 56.45 62.00 53.72 62.41 51.03 62.36 C 38.02 62.28 25.01 62.38 12.00 62.32 C 8.81 61.92 5.00 61.97 2.88 59.11 Z" />
</g>
<g id="#0d0a029f">
<path fill="#0d0a02" opacity="0.62" d=" M 5.11 58.68 C 3.38 57.06 2.26 54.24 3.70 52.08 C 2.28 54.48 4.22 57.85 7.01 57.66 C 23.64 57.68 40.27 57.67 56.90 57.66 C 59.73 57.91 61.75 54.50 60.29 52.06 C 61.16 53.53 61.21 55.34 60.28 56.80 C 58.93 59.98 54.91 60.05 51.98 60.31 C 38.97 60.32 25.96 60.29 12.96 60.32 C 10.31 60.21 7.46 60.01 5.11 58.68 Z" />
</g>
</svg>
