<?xml version="1.0" encoding="UTF-8" ?>
<!DOCTYPE svg PUBLIC "-//W3C//DTD SVG 1.1//EN" "http://www.w3.org/Graphics/SVG/1.1/DTD/svg11.dtd">
<svg width="64pt" height="64pt" viewBox="0 0 64 64" version="1.1" xmlns="http://www.w3.org/2000/svg">
<g id="#fd9c19fe">
<path fill="#fd9c19" opacity="1.00" d=" M 9.94 35.16 C 21.49 23.71 32.85 12.07 44.50 0.73 C 40.29 9.02 36.20 17.36 31.99 25.66 C 39.36 25.78 46.74 25.65 54.11 25.74 C 40.37 38.10 26.97 50.84 13.29 63.26 C 19.48 53.89 25.75 44.58 31.96 35.22 C 24.62 35.10 17.28 35.19 9.94 35.16 M 36.97 11.17 C 30.42 17.94 24.14 24.99 18.09 32.20 C 24.35 32.19 30.60 32.37 36.86 32.29 C 35.16 34.99 32.66 37.43 32.29 40.74 C 30.68 42.42 29.05 44.10 27.67 45.99 C 33.71 40.48 39.30 34.46 45.75 29.42 C 39.97 28.47 34.12 28.68 28.30 28.57 C 31.29 22.83 34.25 17.05 36.97 11.17 Z" />
</g>
<g id="#ffea9bff">
<path fill="#ffea9b" opacity="1.00" d=" M 36.97 11.17 C 34.25 17.05 31.29 22.83 28.30 28.57 C 34.12 28.68 39.97 28.47 45.75 29.42 C 39.30 34.46 33.71 40.48 27.67 45.99 C 29.05 44.10 30.68 42.42 32.29 40.74 C 32.66 37.43 35.16 34.99 36.86 32.29 C 30.60 32.37 24.35 32.19 18.09 32.20 C 24.14 24.99 30.42 17.94 36.97 11.17 Z" />
</g>
</svg>
