<?xml version="1.0" encoding="UTF-8" ?>
<!DOCTYPE svg PUBLIC "-//W3C//DTD SVG 1.1//EN" "http://www.w3.org/Graphics/SVG/1.1/DTD/svg11.dtd">
<svg width="64pt" height="64pt" viewBox="0 0 64 64" version="1.1" xmlns="http://www.w3.org/2000/svg">
<g id="#eaeaeaff">
<path fill="#eaeaea" opacity="1.00" d=" M 23.32 4.49 C 24.78 4.43 26.24 4.38 27.71 4.33 L 27.34 3.62 C 30.44 3.52 33.55 3.52 36.65 3.62 L 36.30 4.20 C 38.79 4.25 41.15 4.99 43.50 5.75 L 43.56 6.65 C 43.88 6.59 44.51 6.46 44.82 6.39 C 46.10 7.24 47.39 8.05 48.70 8.84 L 48.55 8.98 C 49.42 9.57 50.26 10.18 51.09 10.82 C 51.73 11.56 52.40 12.27 53.12 12.93 C 53.81 13.73 54.45 14.58 55.03 15.47 L 55.16 15.30 C 55.94 16.60 56.76 17.88 57.57 19.17 C 57.57 19.33 57.58 19.66 57.59 19.83 C 58.17 21.09 58.62 22.40 58.93 23.75 L 59.43 23.31 C 59.51 24.26 59.60 25.22 59.69 26.18 C 60.85 30.17 60.78 34.40 60.92 38.51 L 59.79 29.04 C 59.72 32.89 59.70 36.76 59.48 40.61 L 58.24 40.48 C 58.46 41.04 58.90 42.18 59.11 42.75 L 57.93 42.22 C 57.65 43.44 57.30 44.64 56.89 45.81 C 56.32 46.77 55.75 47.74 55.19 48.72 L 55.01 48.42 C 53.97 50.17 52.55 51.65 51.10 53.06 C 50.33 53.64 49.59 54.25 48.88 54.89 C 47.95 55.91 46.66 56.38 45.39 56.76 L 45.28 57.72 C 44.83 57.60 43.94 57.37 43.50 57.25 L 43.50 58.46 C 40.59 58.58 34.78 58.84 31.87 58.96 L 42.07 59.74 C 40.50 59.89 38.95 60.04 37.39 60.19 C 34.20 60.47 30.99 60.50 27.80 60.31 C 25.85 60.10 23.89 59.90 21.94 59.67 L 33.66 59.02 C 30.57 58.87 24.37 58.56 21.27 58.41 C 20.93 58.18 20.24 57.71 19.90 57.48 C 19.59 57.53 18.97 57.64 18.66 57.70 L 18.68 56.78 C 17.35 56.40 16.06 55.85 15.06 54.87 C 12.87 53.07 10.85 51.09 9.07 48.89 C 8.87 48.51 8.48 47.75 8.28 47.37 L 7.44 47.16 C 7.48 46.72 7.55 45.85 7.59 45.41 L 6.25 45.31 C 6.31 45.02 6.44 44.43 6.51 44.14 C 5.83 42.91 5.36 41.60 5.09 40.22 L 4.51 40.70 C 4.45 39.21 4.41 37.72 4.37 36.24 L 3.64 36.66 C 3.67 33.20 3.05 29.57 4.30 26.24 C 4.40 25.27 4.49 24.29 4.57 23.31 L 5.06 23.70 C 5.39 22.36 5.84 21.07 6.42 19.82 C 6.42 19.66 6.42 19.34 6.42 19.19 C 7.24 17.89 8.06 16.59 8.84 15.27 L 8.99 15.48 C 9.55 14.60 10.18 13.75 10.85 12.95 C 11.56 12.27 12.25 11.57 12.91 10.85 C 13.73 10.18 14.57 9.56 15.45 8.98 L 15.31 8.37 L 16.12 8.58 C 17.11 7.84 18.10 7.10 19.09 6.37 C 19.27 6.38 19.63 6.40 19.81 6.42 C 21.05 5.82 22.35 5.37 23.70 5.04 L 23.32 4.49 Z" />
</g>
</svg>
