<?xml version="1.0" encoding="UTF-8" ?>
<!DOCTYPE svg PUBLIC "-//W3C//DTD SVG 1.1//EN" "http://www.w3.org/Graphics/SVG/1.1/DTD/svg11.dtd">
<svg width="64pt" height="64pt" viewBox="0 0 64 64" version="1.1" xmlns="http://www.w3.org/2000/svg">
<g id="#2a2a2aff">
<path fill="#2a2a2a" opacity="1.00" d=" M 28.34 3.48 C 37.49 2.19 47.13 5.78 53.30 12.65 C 58.21 18.19 61.15 25.59 60.76 33.04 C 60.48 45.15 51.67 56.49 39.96 59.68 C 31.27 62.24 21.40 60.35 14.30 54.70 C 5.80 48.13 1.48 36.59 3.82 26.06 C 6.24 14.40 16.42 4.76 28.34 3.48 M 17.31 11.31 L 17.16 11.28 C 14.08 13.76 11.63 17.39 11.50 21.45 C 11.76 22.05 12.29 23.26 12.55 23.86 C 10.74 26.55 8.82 29.38 8.49 32.69 C 8.05 39.11 10.59 45.43 14.73 50.25 C 19.50 54.38 25.60 57.52 32.06 57.25 C 38.25 57.57 44.03 54.53 48.71 50.72 C 53.58 45.80 56.17 38.75 55.41 31.84 C 54.82 28.88 53.08 26.33 51.47 23.85 C 51.78 23.38 52.40 22.46 52.72 22.00 L 52.45 21.44 C 52.43 17.38 49.88 13.74 46.82 11.27 L 46.67 11.29 C 38.31 4.82 25.67 4.82 17.31 11.31 Z" />
</g>
<g id="#acacacff">
<path fill="#acacac" opacity="1.00" d=" M 17.31 11.31 C 25.67 4.82 38.31 4.82 46.67 11.29 C 44.09 12.42 41.60 10.38 38.98 10.40 C 34.35 10.21 29.70 10.23 25.06 10.42 C 22.43 10.44 19.92 12.35 17.31 11.31 Z" />
</g>
<g id="#919191ff">
<path fill="#919191" opacity="1.00" d=" M 17.31 11.31 C 19.92 12.35 22.43 10.44 25.06 10.42 C 29.70 10.23 34.35 10.21 38.98 10.40 C 41.60 10.38 44.09 12.42 46.67 11.29 L 46.82 11.27 C 49.88 13.74 52.43 17.38 52.45 21.44 C 52.16 21.02 51.59 20.18 51.30 19.77 C 50.50 18.05 49.21 16.13 47.01 16.56 C 37.00 16.67 26.99 16.62 16.99 16.61 C 14.89 16.43 13.17 17.85 12.71 19.84 C 12.41 20.25 11.80 21.05 11.50 21.45 C 11.63 17.39 14.08 13.76 17.16 11.28 L 17.31 11.31 Z" />
</g>
<g id="#787878ff">
<path fill="#787878" opacity="1.00" d=" M 12.71 19.84 C 13.17 17.85 14.89 16.43 16.99 16.61 C 26.99 16.62 37.00 16.67 47.01 16.56 C 49.21 16.13 50.50 18.05 51.30 19.77 C 38.44 20.34 25.57 20.04 12.71 19.84 Z" />
</g>
<g id="#686868ff">
<path fill="#686868" opacity="1.00" d=" M 12.71 19.84 C 25.57 20.04 38.44 20.34 51.30 19.77 C 51.59 20.18 52.16 21.02 52.45 21.44 L 52.72 22.00 C 52.40 22.46 51.78 23.38 51.47 23.85 C 44.94 23.85 38.53 22.17 31.99 22.40 C 25.46 22.18 19.06 23.82 12.55 23.86 C 12.29 23.26 11.76 22.05 11.50 21.45 C 11.80 21.05 12.41 20.25 12.71 19.84 Z" />
</g>
<g id="#3d3d3dff">
<path fill="#3d3d3d" opacity="1.00" d=" M 12.55 23.86 C 19.06 23.82 25.46 22.18 31.99 22.40 C 38.53 22.17 44.94 23.85 51.47 23.85 C 53.08 26.33 54.82 28.88 55.41 31.84 C 56.17 38.75 53.58 45.80 48.71 50.72 C 44.03 54.53 38.25 57.57 32.06 57.25 C 25.60 57.52 19.50 54.38 14.73 50.25 C 10.59 45.43 8.05 39.11 8.49 32.69 C 8.82 29.38 10.74 26.55 12.55 23.86 Z" />
</g>
</svg>
