<?xml version="1.0" encoding="UTF-8" ?>
<!DOCTYPE svg PUBLIC "-//W3C//DTD SVG 1.1//EN" "http://www.w3.org/Graphics/SVG/1.1/DTD/svg11.dtd">
<svg width="64pt" height="64pt" viewBox="0 0 64 64" version="1.1" xmlns="http://www.w3.org/2000/svg">
<g id="#070707aa">
<path fill="#070707" opacity="0.67" d=" M 28.01 3.97 C 28.88 1.78 33.64 3.44 36.03 3.15 L 35.75 4.23 C 33.17 4.10 30.59 4.01 28.01 3.97 Z" />
<path fill="#070707" opacity="0.67" d=" M 60.02 27.99 L 61.00 28.01 C 60.76 30.50 60.27 35.50 60.03 38.00 C 60.01 36.25 59.99 32.77 59.98 31.03 C 59.99 30.27 60.01 28.75 60.02 27.99 Z" />
<path fill="#070707" opacity="0.67" d=" M 32.74 60.74 C 36.40 59.66 40.30 59.75 43.91 58.45 C 45.33 58.74 46.76 59.00 48.19 59.30 C 43.56 62.14 37.83 60.51 32.74 60.74 Z" />
</g>
<g id="#393939fc">
<path fill="#393939" opacity="1.00" d=" M 24.73 5.16 C 25.20 3.96 26.29 3.57 28.01 3.97 C 30.59 4.01 33.17 4.10 35.75 4.23 C 37.24 5.32 43.12 3.75 42.72 6.00 L 41.75 6.14 C 39.82 6.27 38.03 7.27 36.92 8.85 C 36.02 10.11 34.85 11.09 33.29 11.43 C 31.02 8.63 27.83 6.88 24.73 5.16 Z" />
<path fill="#393939" opacity="1.00" d=" M 14.21 9.03 L 15.22 9.26 L 15.13 10.16 C 14.01 11.41 12.83 12.61 11.79 13.92 C 6.59 18.54 8.60 26.31 4.16 31.22 C 3.48 24.84 6.24 18.91 9.94 13.95 C 11.29 12.25 12.76 10.65 14.21 9.03 Z" />
<path fill="#393939" opacity="1.00" d=" M 48.85 9.15 L 49.83 9.04 C 50.86 10.22 51.95 11.38 52.86 12.67 C 52.28 14.17 51.80 15.70 51.27 17.22 C 50.97 14.99 51.53 12.12 49.14 10.89 C 49.07 10.45 48.92 9.58 48.85 9.15 Z" />
<path fill="#393939" opacity="1.00" d=" M 22.12 28.26 C 25.11 27.06 27.36 24.69 29.94 22.83 C 29.41 25.85 26.53 27.65 24.98 30.13 C 27.15 29.36 28.97 27.88 31.09 27.02 C 33.30 26.68 34.99 28.47 36.96 29.15 C 35.99 27.05 34.75 25.08 34.03 22.87 C 35.37 23.90 36.76 24.87 38.14 25.84 C 38.49 27.57 38.89 29.29 39.02 31.06 C 36.24 31.36 34.22 29.27 31.96 28.04 C 29.11 29.43 25.38 33.13 23.01 29.01 C 22.90 30.41 22.81 31.81 22.73 33.22 C 22.58 31.98 22.27 29.50 22.12 28.26 Z" />
<path fill="#393939" opacity="1.00" d=" M 58.27 30.89 C 58.70 30.93 59.55 31.00 59.98 31.03 C 59.99 32.77 60.01 36.25 60.03 38.00 C 59.57 39.08 61.06 42.48 59.09 41.90 C 58.91 37.41 56.89 43.23 55.81 44.55 C 53.51 44.83 51.18 44.91 48.86 44.92 C 54.15 41.97 56.80 36.55 58.27 30.89 Z" />
<path fill="#393939" opacity="1.00" d=" M 24.58 39.95 C 29.24 38.51 34.44 40.37 39.30 39.26 C 39.16 39.66 38.88 40.46 38.74 40.85 C 34.14 41.35 29.48 40.84 24.86 40.83 L 24.58 39.95 Z" />
<path fill="#393939" opacity="1.00" d=" M 12.87 47.13 C 13.61 47.13 15.07 47.13 15.81 47.13 C 17.92 48.05 20.00 51.47 22.40 50.04 C 23.03 51.72 23.34 53.50 23.82 55.22 C 19.49 53.61 15.90 50.56 12.87 47.13 Z" />
<path fill="#393939" opacity="1.00" d=" M 38.70 53.25 C 37.14 50.90 39.01 48.28 40.92 46.82 C 40.38 49.03 39.47 51.12 38.70 53.25 Z" />
<path fill="#393939" opacity="1.00" d=" M 39.01 54.10 C 40.39 53.72 41.76 53.31 43.17 53.03 C 41.61 54.99 39.36 56.33 37.00 57.10 C 37.67 56.10 38.35 55.10 39.01 54.10 Z" />
<path fill="#393939" opacity="1.00" d=" M 25.03 56.98 C 28.77 57.02 32.50 57.17 36.24 57.35 C 32.89 58.12 27.78 58.91 25.03 56.98 Z" />
</g>
<g id="#6e6e6eff">
<path fill="#6e6e6e" opacity="1.00" d=" M 15.22 9.26 C 17.81 7.16 21.38 5.00 24.73 5.16 C 27.83 6.88 31.02 8.63 33.29 11.43 C 30.53 12.40 27.97 9.39 25.94 7.76 C 22.79 4.16 18.64 9.60 15.13 10.16 L 15.22 9.26 Z" />
<path fill="#6e6e6e" opacity="1.00" d=" M 41.75 6.14 L 42.72 6.00 C 44.88 6.76 46.98 7.81 48.85 9.15 C 48.92 9.58 49.07 10.45 49.14 10.89 C 46.62 9.40 44.13 7.85 41.75 6.14 Z" />
<path fill="#6e6e6e" opacity="1.00" d=" M 4.16 31.22 C 8.60 26.31 6.59 18.54 11.79 13.92 C 11.97 15.35 12.17 16.77 12.54 18.16 C 12.91 20.85 15.26 24.16 12.35 26.21 C 10.21 27.37 8.11 28.66 6.29 30.30 C 3.26 35.34 7.46 40.72 8.16 45.84 C 8.14 46.37 8.10 47.43 8.08 47.97 C 3.52 44.32 3.62 36.91 4.16 31.22 Z" />
<path fill="#6e6e6e" opacity="1.00" d=" M 29.94 22.83 C 31.20 20.63 32.82 20.63 34.03 22.87 C 34.75 25.08 35.99 27.05 36.96 29.15 C 34.99 28.47 33.30 26.68 31.09 27.02 C 28.97 27.88 27.15 29.36 24.98 30.13 C 26.53 27.65 29.41 25.85 29.94 22.83 Z" />
<path fill="#6e6e6e" opacity="1.00" d=" M 53.96 28.08 C 55.46 28.91 56.86 29.92 58.27 30.89 C 56.80 36.55 54.15 41.97 48.86 44.92 C 46.16 45.03 43.16 45.14 40.92 46.82 C 39.01 48.28 37.14 50.90 38.70 53.25 L 39.01 54.10 C 38.35 55.10 37.67 56.10 37.00 57.10 L 36.24 57.35 C 32.50 57.17 28.77 57.02 25.03 56.98 C 24.73 56.54 24.12 55.66 23.82 55.22 C 28.08 55.03 34.43 58.45 37.12 54.16 C 33.97 53.62 29.94 54.66 27.70 52.00 C 30.26 50.03 33.39 48.93 35.97 46.96 C 40.42 46.77 38.53 43.97 38.28 41.91 C 40.94 41.92 43.85 43.88 46.03 41.03 C 50.44 38.63 57.17 33.79 53.96 28.08 Z" />
<path fill="#6e6e6e" opacity="1.00" d=" M 11.91 46.01 C 14.99 46.05 18.07 46.10 21.16 46.19 L 21.11 46.98 C 19.34 47.02 17.57 47.07 15.81 47.13 C 15.07 47.13 13.61 47.13 12.87 47.13 L 12.16 46.83 L 11.91 46.01 Z" />
</g>
<g id="#aeaeaeff">
<path fill="#aeaeae" opacity="1.00" d=" M 15.13 10.16 C 18.64 9.60 22.79 4.16 25.94 7.76 C 20.96 10.26 14.80 12.66 12.54 18.16 C 12.17 16.77 11.97 15.35 11.79 13.92 C 12.83 12.61 14.01 11.41 15.13 10.16 Z" />
<path fill="#aeaeae" opacity="1.00" d=" M 36.92 8.85 C 38.03 7.27 39.82 6.27 41.75 6.14 C 44.13 7.85 46.62 9.40 49.14 10.89 C 51.53 12.12 50.97 14.99 51.27 17.22 C 50.71 20.33 50.11 23.45 50.13 26.62 C 51.42 27.08 52.74 27.45 53.96 28.08 C 57.17 33.79 50.44 38.63 46.03 41.03 C 43.85 43.88 40.94 41.92 38.28 41.91 C 38.53 43.97 40.42 46.77 35.97 46.96 C 33.39 48.93 30.26 50.03 27.70 52.00 C 29.94 54.66 33.97 53.62 37.12 54.16 C 34.43 58.45 28.08 55.03 23.82 55.22 C 23.34 53.50 23.03 51.72 22.40 50.04 C 22.00 49.01 21.56 47.99 21.11 46.98 L 21.16 46.19 C 20.66 43.45 22.55 41.87 24.86 40.83 C 29.48 40.84 34.14 41.35 38.74 40.85 C 38.88 40.46 39.16 39.66 39.30 39.26 C 40.25 36.20 41.05 33.08 42.28 30.11 C 43.43 26.32 46.97 24.09 48.77 20.69 C 50.73 14.71 44.72 11.84 40.93 9.05 C 39.81 7.89 38.27 8.74 36.92 8.85 Z" />
<path fill="#aeaeae" opacity="1.00" d=" M 6.29 30.30 C 8.11 28.66 10.21 27.37 12.35 26.21 C 11.46 28.00 10.00 29.36 8.46 30.60 C 5.40 36.12 10.01 41.09 11.91 46.01 L 12.16 46.83 C 10.84 46.45 9.51 46.13 8.16 45.84 C 7.46 40.72 3.26 35.34 6.29 30.30 Z" />
</g>
<g id="#efefefff">
<path fill="#efefef" opacity="1.00" d=" M 12.54 18.16 C 14.80 12.66 20.96 10.26 25.94 7.76 C 27.97 9.39 30.53 12.40 33.29 11.43 C 34.85 11.09 36.02 10.11 36.92 8.85 C 38.27 8.74 39.81 7.89 40.93 9.05 C 44.72 11.84 50.73 14.71 48.77 20.69 C 46.97 24.09 43.43 26.32 42.28 30.11 C 42.17 27.76 39.77 27.00 38.14 25.84 C 36.76 24.87 35.37 23.90 34.03 22.87 C 32.82 20.63 31.20 20.63 29.94 22.83 C 27.36 24.69 25.11 27.06 22.12 28.26 C 22.27 29.50 22.58 31.98 22.73 33.22 C 23.20 35.50 23.89 37.73 24.58 39.95 L 24.86 40.83 C 22.55 41.87 20.66 43.45 21.16 46.19 C 18.07 46.10 14.99 46.05 11.91 46.01 C 10.01 41.09 5.40 36.12 8.46 30.60 C 10.00 29.36 11.46 28.00 12.35 26.21 C 15.26 24.16 12.91 20.85 12.54 18.16 Z" />
</g>
<g id="#03030343">
<path fill="#030303" opacity="0.26" d=" M 9.94 13.95 C 7.34 13.32 11.89 8.36 14.21 9.03 C 12.76 10.65 11.29 12.25 9.94 13.95 Z" />
<path fill="#030303" opacity="0.26" d=" M 49.83 9.04 C 53.48 9.02 55.60 13.16 55.56 16.47 C 54.55 15.29 53.76 13.94 52.86 12.67 C 51.95 11.38 50.86 10.22 49.83 9.04 Z" />
<path fill="#030303" opacity="0.26" d=" M 9.16 49.79 C 10.91 51.41 12.59 53.10 14.23 54.83 C 11.66 55.21 8.81 52.35 9.16 49.79 Z" />
<path fill="#030303" opacity="0.26" d=" M 49.78 54.82 C 51.42 53.10 53.10 51.41 54.85 49.78 C 55.19 52.34 52.34 55.22 49.78 54.82 Z" />
<path fill="#030303" opacity="0.26" d=" M 43.91 58.45 C 45.28 57.76 46.58 56.94 47.90 56.15 C 47.89 60.26 53.71 56.81 56.13 58.85 C 59.55 59.78 50.11 64.00 51.08 61.29 C 43.45 62.41 35.71 62.02 28.03 61.97 L 28.00 61.05 C 29.58 60.98 31.17 60.89 32.74 60.74 C 37.83 60.51 43.56 62.14 48.19 59.30 C 46.76 59.00 45.33 58.74 43.91 58.45 Z" />
<path fill="#030303" opacity="0.26" d=" M 17.99 57.32 C 20.69 58.60 23.45 59.73 26.25 60.76 C 23.61 61.39 14.98 62.37 17.99 57.32 Z" />
</g>
<g id="#050505fe">
<path fill="#050505" opacity="1.00" d=" M 51.27 17.22 C 51.80 15.70 52.28 14.17 52.86 12.67 C 53.76 13.94 54.55 15.29 55.56 16.47 C 58.22 19.68 59.53 23.92 60.02 27.99 C 60.01 28.75 59.99 30.27 59.98 31.03 C 59.55 31.00 58.70 30.93 58.27 30.89 C 56.86 29.92 55.46 28.91 53.96 28.08 C 52.74 27.45 51.42 27.08 50.13 26.62 C 50.11 23.45 50.71 20.33 51.27 17.22 Z" />
<path fill="#050505" opacity="1.00" d=" M 38.14 25.84 C 39.77 27.00 42.17 27.76 42.28 30.11 C 41.05 33.08 40.25 36.20 39.30 39.26 C 34.44 40.37 29.24 38.51 24.58 39.95 C 23.89 37.73 23.20 35.50 22.73 33.22 C 22.81 31.81 22.90 30.41 23.01 29.01 C 25.38 33.13 29.11 29.43 31.96 28.04 C 34.22 29.27 36.24 31.36 39.02 31.06 C 38.89 29.29 38.49 27.57 38.14 25.84 Z" />
<path fill="#050505" opacity="1.00" d=" M 55.81 44.55 C 56.89 43.23 58.91 37.41 59.09 41.90 C 58.57 44.82 56.89 47.64 54.85 49.78 C 53.10 51.41 51.42 53.10 49.78 54.82 C 49.31 55.15 48.37 55.82 47.90 56.15 C 46.58 56.94 45.28 57.76 43.91 58.45 C 40.30 59.75 36.40 59.66 32.74 60.74 C 31.17 60.89 29.58 60.98 28.00 61.05 C 27.56 60.98 26.69 60.83 26.25 60.76 C 23.45 59.73 20.69 58.60 17.99 57.32 C 16.50 56.88 15.29 55.93 14.23 54.83 C 12.59 53.10 10.91 51.41 9.16 49.79 C 8.89 49.34 8.35 48.42 8.08 47.97 C 8.10 47.43 8.14 46.37 8.16 45.84 C 9.51 46.13 10.84 46.45 12.16 46.83 L 12.87 47.13 C 15.90 50.56 19.49 53.61 23.82 55.22 C 24.12 55.66 24.73 56.54 25.03 56.98 C 27.78 58.91 32.89 58.12 36.24 57.35 L 37.00 57.10 C 39.36 56.33 41.61 54.99 43.17 53.03 C 41.76 53.31 40.39 53.72 39.01 54.10 L 38.70 53.25 C 39.47 51.12 40.38 49.03 40.92 46.82 C 43.16 45.14 46.16 45.03 48.86 44.92 C 51.18 44.91 53.51 44.83 55.81 44.55 Z" />
<path fill="#050505" opacity="1.00" d=" M 15.81 47.13 C 17.57 47.07 19.34 47.02 21.11 46.98 C 21.56 47.99 22.00 49.01 22.40 50.04 C 20.00 51.47 17.92 48.05 15.81 47.13 Z" />
</g>
</svg>
