<?xml version="1.0" encoding="UTF-8" ?>
<!DOCTYPE svg PUBLIC "-//W3C//DTD SVG 1.1//EN" "http://www.w3.org/Graphics/SVG/1.1/DTD/svg11.dtd">
<svg width="64pt" height="64pt" viewBox="0 0 64 64" version="1.1" xmlns="http://www.w3.org/2000/svg">
<g id="#dcdcdcff">
<path fill="#dcdcdc" opacity="1.00" d=" M 19.97 6.45 C 26.16 2.67 33.91 3.00 40.72 4.71 L 40.41 5.85 C 40.96 5.61 42.07 5.12 42.62 4.88 L 42.17 6.22 C 43.46 6.43 44.72 6.74 45.95 7.16 C 48.66 8.62 51.14 10.56 52.99 13.04 C 53.84 13.74 54.48 14.60 54.92 15.61 L 55.65 15.28 L 55.36 16.52 C 55.68 16.61 56.32 16.80 56.64 16.90 L 56.25 18.42 C 56.66 18.53 57.47 18.75 57.87 18.86 L 57.29 19.95 C 58.95 21.13 58.49 23.19 58.61 24.92 L 59.54 24.08 C 59.62 29.33 59.47 34.59 59.62 39.85 L 58.32 34.52 C 58.37 36.71 58.45 41.10 58.49 43.29 L 56.53 37.52 C 56.99 40.15 57.41 42.78 57.77 45.41 L 56.20 42.21 C 56.32 43.30 56.57 45.47 56.70 46.56 C 55.32 46.58 53.95 46.60 52.58 46.64 C 50.18 44.25 50.65 40.74 50.35 37.66 C 50.33 38.72 50.30 40.83 50.28 41.89 C 49.62 41.80 48.30 41.63 47.64 41.54 C 47.31 40.73 46.65 39.10 46.32 38.29 C 46.98 37.31 47.63 36.33 48.19 35.30 C 46.89 35.85 45.26 36.46 44.19 35.14 C 44.18 33.47 44.16 30.15 44.16 28.49 C 43.59 31.88 43.45 35.32 43.34 38.74 C 42.69 38.82 41.38 38.98 40.73 39.06 C 42.60 39.27 44.49 39.41 46.38 39.47 C 46.70 41.17 47.11 42.84 47.47 44.52 L 39.82 45.00 L 47.78 45.49 L 47.62 44.24 C 49.19 44.24 50.19 45.05 50.62 46.65 L 51.59 46.14 C 51.57 46.84 51.55 48.25 51.53 48.95 L 50.34 48.01 C 50.44 49.61 50.53 51.21 50.62 52.81 C 50.02 52.67 48.82 52.38 48.21 52.23 C 48.36 52.89 48.65 54.19 48.80 54.85 L 46.53 54.37 L 44.03 52.60 L 48.03 57.66 L 41.19 51.73 L 46.65 57.79 L 44.40 56.25 L 43.76 57.66 L 42.85 53.87 L 41.97 62.36 C 41.73 59.36 41.25 53.36 41.01 50.37 L 40.20 61.43 L 39.04 56.30 L 38.42 58.71 C 37.19 58.54 34.73 58.20 33.50 58.03 L 38.09 59.62 C 33.71 59.43 29.34 59.48 24.96 59.53 L 26.14 58.56 C 25.11 58.48 23.05 58.32 22.02 58.24 C 23.85 57.75 25.71 57.42 27.55 57.00 C 26.28 56.84 23.72 56.51 22.45 56.34 L 24.15 55.38 C 23.05 55.43 20.86 55.52 19.77 55.56 C 20.56 55.93 22.15 56.68 22.94 57.05 C 21.47 58.05 19.75 57.59 18.16 57.22 C 18.33 56.79 18.66 55.93 18.83 55.50 C 17.98 55.52 16.29 55.57 15.44 55.59 L 15.84 54.70 C 14.15 54.43 12.78 53.44 12.24 51.78 C 10.63 51.17 9.52 49.91 9.24 48.20 L 8.70 48.79 C 8.26 47.67 7.81 46.56 7.35 45.45 L 6.24 45.22 C 6.33 44.93 6.49 44.36 6.58 44.07 C 5.68 42.97 5.22 41.70 5.19 40.25 L 4.50 40.68 C 4.44 39.24 4.40 37.80 4.38 36.36 C 4.19 36.42 3.80 36.53 3.61 36.59 C 3.50 33.53 3.50 30.47 3.61 27.42 L 4.27 27.65 C 4.31 24.94 4.66 22.11 6.54 19.99 C 6.45 19.67 6.29 19.02 6.20 18.70 L 7.61 18.60 L 7.33 17.20 L 8.84 17.65 C 8.66 17.14 8.31 16.12 8.13 15.61 L 9.07 15.62 C 9.49 14.58 10.14 13.70 11.02 13.00 C 13.04 10.06 16.20 8.34 19.08 6.38 C 19.30 6.40 19.74 6.43 19.97 6.45 Z" />
</g>
</svg>
