<?xml version="1.0" encoding="UTF-8" ?>
<!DOCTYPE svg PUBLIC "-//W3C//DTD SVG 1.1//EN" "http://www.w3.org/Graphics/SVG/1.1/DTD/svg11.dtd">
<svg width="64pt" height="64pt" viewBox="0 0 64 64" version="1.1" xmlns="http://www.w3.org/2000/svg">
<g id="#0201010c">
<path fill="#020101" opacity="0.05" d=" M 0.00 0.00 L 64.00 0.00 L 64.00 64.00 L 0.00 64.00 L 0.00 0.00 M 30.29 4.33 C 27.32 5.15 24.87 7.34 25.31 10.60 C 29.11 12.80 24.18 11.71 22.28 11.46 C 18.44 16.02 19.06 23.40 22.88 27.83 C 21.52 28.79 20.11 29.67 18.74 30.59 C 14.03 29.75 9.73 27.43 5.16 26.08 C 4.29 26.77 3.93 27.66 4.09 28.76 C 8.04 30.27 12.18 31.23 15.96 33.17 C 15.03 37.55 11.28 41.52 13.60 46.33 C 15.27 54.72 23.69 60.28 32.00 60.00 C 42.44 60.62 52.59 50.92 50.62 40.33 C 50.06 37.83 48.48 35.68 48.04 33.17 C 51.81 31.23 55.96 30.28 59.90 28.76 C 60.12 27.67 59.77 26.83 58.86 26.23 C 54.42 27.40 50.17 29.15 45.90 30.81 C 44.19 30.06 42.70 28.84 41.12 27.84 C 44.94 23.40 45.56 16.02 41.72 11.46 C 40.12 11.70 38.52 11.96 36.90 12.03 C 38.07 11.14 39.81 9.96 38.71 8.28 C 37.82 4.76 33.38 3.61 30.29 4.33 Z" />
</g>
<g id="#aaabb4fe">
<path fill="#aaabb4" opacity="1.00" d=" M 30.29 4.33 C 33.38 3.61 37.82 4.76 38.71 8.28 C 39.81 9.96 38.07 11.14 36.90 12.03 C 38.52 11.96 40.12 11.70 41.72 11.46 C 45.56 16.02 44.94 23.40 41.12 27.84 C 42.70 28.84 44.19 30.06 45.90 30.81 C 50.17 29.15 54.42 27.40 58.86 26.23 C 59.77 26.83 60.12 27.67 59.90 28.76 C 55.96 30.28 51.81 31.23 48.04 33.17 C 48.48 35.68 50.06 37.83 50.62 40.33 C 52.59 50.92 42.44 60.62 32.00 60.00 C 23.69 60.28 15.27 54.72 13.60 46.33 C 11.28 41.52 15.03 37.55 15.96 33.17 C 12.18 31.23 8.04 30.27 4.09 28.76 C 3.93 27.66 4.29 26.77 5.16 26.08 C 9.73 27.43 14.03 29.75 18.74 30.59 C 20.11 29.67 21.52 28.79 22.88 27.83 C 19.06 23.40 18.44 16.02 22.28 11.46 C 24.18 11.71 29.11 12.80 25.31 10.60 C 24.87 7.34 27.32 5.15 30.29 4.33 Z" />
</g>
</svg>
