<?xml version="1.0" encoding="UTF-8" ?>
<!DOCTYPE svg PUBLIC "-//W3C//DTD SVG 1.1//EN" "http://www.w3.org/Graphics/SVG/1.1/DTD/svg11.dtd">
<svg width="64pt" height="64pt" viewBox="0 0 64 64" version="1.1" xmlns="http://www.w3.org/2000/svg">
<g id="#e6a71eec">
<path fill="#e6a71e" opacity="0.93" d=" M 26.20 4.06 C 26.60 4.06 27.40 4.06 27.80 4.06 C 27.95 7.21 29.42 10.04 29.98 13.10 C 28.00 13.02 26.00 13.02 24.02 13.09 C 24.58 10.04 26.05 7.21 26.20 4.06 Z" />
</g>
<g id="#e3a91fe8">
<path fill="#e3a91f" opacity="0.91" d=" M 8.83 9.10 C 12.36 10.67 15.96 12.15 19.17 14.31 C 17.52 15.95 15.89 17.61 14.26 19.27 C 11.38 17.02 10.44 12.49 8.83 9.10 Z" />
<path fill="#e3a91f" opacity="0.91" d=" M 34.82 14.30 C 38.01 12.12 41.65 10.72 45.11 9.04 C 43.68 12.51 42.58 16.95 39.77 19.27 C 38.12 17.62 36.47 15.96 34.82 14.30 Z" />
</g>
<g id="#d4720cf1">
<path fill="#d4720c" opacity="0.95" d=" M 19.17 14.31 C 20.79 13.93 22.42 13.56 24.02 13.09 C 26.00 13.02 28.00 13.02 29.98 13.10 C 31.58 13.56 33.20 13.92 34.82 14.30 C 36.47 15.96 38.12 17.62 39.77 19.27 C 40.15 20.55 40.51 21.83 40.88 23.11 C 39.96 22.72 39.06 22.30 38.17 21.85 C 37.72 20.85 37.24 19.83 36.45 19.04 C 35.82 18.32 35.14 17.67 34.41 17.07 C 30.50 13.72 23.46 13.72 19.57 17.09 C 18.85 17.68 18.16 18.31 17.51 18.98 C 17.28 19.21 16.82 19.68 16.60 19.91 C 16.38 20.16 15.95 20.66 15.73 20.91 C 15.49 21.37 15.00 22.30 14.76 22.76 C 13.66 25.77 13.75 29.15 14.63 32.19 C 14.51 32.49 14.27 33.07 14.15 33.37 C 12.92 32.75 12.49 31.21 12.15 29.98 C 11.97 28.24 11.81 26.50 11.40 24.79 C 12.53 23.57 14.10 21.53 14.26 19.27 C 15.89 17.61 17.52 15.95 19.17 14.31 Z" />
</g>
<g id="#fde7b1ff">
<path fill="#fde7b1" opacity="1.00" d=" M 19.57 17.09 C 23.46 13.72 30.50 13.72 34.41 17.07 C 29.60 17.69 24.21 19.22 19.57 17.09 Z" />
</g>
<g id="#fee49dff">
<path fill="#fee49d" opacity="1.00" d=" M 17.51 18.98 C 18.16 18.31 18.85 17.68 19.57 17.09 C 24.21 19.22 29.60 17.69 34.41 17.07 C 35.14 17.67 35.82 18.32 36.45 19.04 C 30.37 19.60 23.31 21.70 17.51 18.98 Z" />
</g>
<g id="#fddb7fff">
<path fill="#fddb7f" opacity="1.00" d=" M 16.60 19.91 C 16.82 19.68 17.28 19.21 17.51 18.98 C 23.31 21.70 30.37 19.60 36.45 19.04 C 37.24 19.83 37.72 20.85 38.17 21.85 C 36.51 22.11 34.86 22.45 33.20 22.70 C 27.88 22.03 22.52 22.14 17.19 21.79 C 17.04 21.32 16.74 20.38 16.60 19.91 Z" />
</g>
<g id="#fed565ff">
<path fill="#fed565" opacity="1.00" d=" M 15.73 20.91 C 15.95 20.66 16.38 20.16 16.60 19.91 C 16.74 20.38 17.04 21.32 17.19 21.79 C 22.52 22.14 27.88 22.03 33.20 22.70 C 31.86 23.16 30.55 23.69 29.24 24.21 C 25.45 22.41 15.26 27.59 15.73 20.91 Z" />
</g>
<g id="#fbc841ff">
<path fill="#fbc841" opacity="1.00" d=" M 14.76 22.76 C 15.00 22.30 15.49 21.37 15.73 20.91 C 15.26 27.59 25.45 22.41 29.24 24.21 C 27.39 26.54 24.78 27.59 21.77 27.74 C 19.93 27.99 18.37 28.95 16.89 30.00 C 16.42 30.32 15.47 30.96 14.99 31.27 C 14.94 28.43 14.86 25.60 14.76 22.76 Z" />
</g>
<g id="#b4b5b8fc">
<path fill="#b4b5b8" opacity="1.00" d=" M 33.20 22.70 C 34.86 22.45 36.51 22.11 38.17 21.85 C 39.06 22.30 39.96 22.72 40.88 23.11 C 43.82 24.41 46.74 25.76 49.64 27.15 C 49.10 28.81 49.69 30.43 50.07 32.06 C 50.16 34.56 49.24 36.88 48.05 39.03 C 47.51 39.24 46.42 39.67 45.88 39.88 C 46.54 37.60 48.17 35.54 47.99 33.07 C 46.04 27.96 40.90 23.50 35.00 24.97 C 32.11 24.52 31.22 27.82 31.24 30.06 C 30.02 29.20 28.83 28.01 27.21 28.15 C 25.40 27.99 23.58 27.86 21.77 27.74 C 24.78 27.59 27.39 26.54 29.24 24.21 C 30.55 23.69 31.86 23.16 33.20 22.70 Z" />
</g>
<g id="#f5ac19ff">
<path fill="#f5ac19" opacity="1.00" d=" M 14.63 32.19 C 13.75 29.15 13.66 25.77 14.76 22.76 C 14.86 25.60 14.94 28.43 14.99 31.27 L 14.63 32.19 Z" />
</g>
<g id="#eaad20f0">
<path fill="#eaad20" opacity="0.94" d=" M 4.07 27.80 C 5.14 25.15 9.13 25.95 11.40 24.79 C 11.81 26.50 11.97 28.24 12.15 29.98 C 9.30 30.09 6.71 28.68 4.07 27.80 Z" />
</g>
<g id="#e6e9f4ff">
<path fill="#e6e9f4" opacity="1.00" d=" M 31.24 30.06 C 31.22 27.82 32.11 24.52 35.00 24.97 C 40.90 23.50 46.04 27.96 47.99 33.07 C 48.17 35.54 46.54 37.60 45.88 39.88 C 46.42 39.67 47.51 39.24 48.05 39.03 C 49.32 39.02 50.60 39.03 51.88 39.07 C 53.95 41.69 57.53 44.14 56.96 47.91 C 55.54 53.90 47.52 54.32 42.64 55.60 C 32.00 55.87 19.71 58.01 10.22 51.79 C 3.47 47.65 7.45 38.90 13.08 36.04 C 14.70 36.00 16.32 35.98 17.94 35.97 C 21.68 37.89 17.36 39.13 15.81 40.89 C 22.03 40.52 29.11 38.21 34.24 42.86 C 32.97 44.15 30.80 44.93 30.93 47.08 C 34.38 45.12 38.88 44.43 42.05 43.13 C 36.91 43.71 33.31 39.76 28.85 38.19 C 25.91 37.01 22.23 37.49 20.11 34.79 C 19.07 30.59 24.40 29.55 27.21 28.15 C 28.83 28.01 30.02 29.20 31.24 30.06 C 28.79 31.10 26.26 31.96 23.88 33.16 C 25.64 35.84 29.21 35.94 31.91 37.14 C 35.51 38.18 37.73 42.84 41.81 41.93 C 43.64 39.77 44.24 36.91 44.61 34.18 C 43.46 30.94 40.46 28.68 37.10 28.18 C 35.74 29.69 35.02 31.62 33.94 33.31 C 32.81 32.44 31.92 31.31 31.24 30.06 Z" />
</g>
<g id="#bdc3d4ff">
<path fill="#bdc3d4" opacity="1.00" d=" M 16.89 30.00 C 18.37 28.95 19.93 27.99 21.77 27.74 C 23.58 27.86 25.40 27.99 27.21 28.15 C 24.40 29.55 19.07 30.59 20.11 34.79 C 22.23 37.49 25.91 37.01 28.85 38.19 C 33.31 39.76 36.91 43.71 42.05 43.13 C 38.88 44.43 34.38 45.12 30.93 47.08 C 30.80 44.93 32.97 44.15 34.24 42.86 C 29.11 38.21 22.03 40.52 15.81 40.89 C 17.36 39.13 21.68 37.89 17.94 35.97 C 17.45 34.01 17.06 32.02 16.89 30.00 Z" />
</g>
<g id="#f8f9fdff">
<path fill="#f8f9fd" opacity="1.00" d=" M 37.10 28.18 C 40.46 28.68 43.46 30.94 44.61 34.18 C 44.24 36.91 43.64 39.77 41.81 41.93 C 37.73 42.84 35.51 38.18 31.91 37.14 C 29.21 35.94 25.64 35.84 23.88 33.16 C 26.26 31.96 28.79 31.10 31.24 30.06 C 31.92 31.31 32.81 32.44 33.94 33.31 C 35.02 31.62 35.74 29.69 37.10 28.18 Z" />
</g>
<g id="#909299f9">
<path fill="#909299" opacity="0.98" d=" M 14.99 31.27 C 15.47 30.96 16.42 30.32 16.89 30.00 C 17.06 32.02 17.45 34.01 17.94 35.97 C 16.32 35.98 14.70 36.00 13.08 36.04 L 12.03 36.03 C 12.64 35.04 13.90 34.61 14.15 33.37 C 14.27 33.07 14.51 32.49 14.63 32.19 L 14.99 31.27 Z" />
</g>
<g id="#71757fe0">
<path fill="#71757f" opacity="0.88" d=" M 50.07 32.06 L 50.96 31.99 C 48.08 36.95 51.92 36.88 52.90 39.07 L 51.88 39.07 C 50.60 39.03 49.32 39.02 48.05 39.03 C 49.24 36.88 50.16 34.56 50.07 32.06 Z" />
</g>
<g id="#a8aebdfc">
<path fill="#a8aebd" opacity="1.00" d=" M 3.87 49.08 C 1.64 44.08 6.13 35.73 12.03 36.03 L 13.08 36.04 C 7.45 38.90 3.47 47.65 10.22 51.79 C 19.71 58.01 32.00 55.87 42.64 55.60 C 47.52 54.32 55.54 53.90 56.96 47.91 C 57.53 44.14 53.95 41.69 51.88 39.07 L 52.90 39.07 C 56.03 39.23 59.72 41.79 60.11 45.00 C 60.96 51.35 54.89 56.42 49.02 56.99 C 40.10 59.33 30.72 59.60 21.61 58.44 C 14.70 57.71 7.96 54.89 3.87 49.08 Z" />
</g>
<g id="#747883e9">
<path fill="#747883" opacity="0.91" d=" M 60.11 45.00 C 63.37 44.44 61.15 50.37 59.98 51.97 C 56.03 58.70 47.13 59.67 40.00 60.03 C 34.66 59.97 29.32 60.00 23.98 60.00 C 16.65 59.80 5.20 57.80 3.87 49.08 C 7.96 54.89 14.70 57.71 21.61 58.44 C 30.72 59.60 40.10 59.33 49.02 56.99 C 54.89 56.42 60.96 51.35 60.11 45.00 Z" />
</g>
<g id="#4b4e56a7">
<path fill="#4b4e56" opacity="0.65" d=" M 23.98 60.00 C 29.32 60.00 34.66 59.97 40.00 60.03 L 40.00 60.99 C 34.67 61.07 29.34 61.07 24.02 60.98 L 23.98 60.00 Z" />
</g>
</svg>
