<?xml version="1.0" encoding="UTF-8" ?>
<!DOCTYPE svg PUBLIC "-//W3C//DTD SVG 1.1//EN" "http://www.w3.org/Graphics/SVG/1.1/DTD/svg11.dtd">
<svg width="64pt" height="64pt" viewBox="0 0 64 64" version="1.1" xmlns="http://www.w3.org/2000/svg">
<g id="#9839b5ff">
<path fill="#9839b5" opacity="1.00" d=" M 12.44 3.65 C 24.26 2.98 36.16 3.54 48.01 3.36 C 54.47 2.79 60.72 8.41 60.66 14.93 C 60.72 26.30 60.64 37.67 60.63 49.04 C 60.77 55.18 55.17 60.79 49.03 60.64 C 37.67 60.68 26.31 60.68 14.95 60.64 C 8.79 60.78 3.21 55.14 3.37 48.99 C 3.36 37.65 3.28 26.31 3.34 14.97 C 3.28 9.69 7.39 4.87 12.44 3.65 M 7.22 11.78 L 6.86 11.97 C 5.45 15.77 6.47 19.91 6.49 23.85 C 6.43 26.02 8.03 28.22 10.38 27.78 C 12.56 25.75 14.87 23.83 17.48 22.39 C 18.63 21.53 19.82 21.49 21.05 22.26 C 16.85 24.45 13.24 27.48 9.68 30.56 C 9.66 32.13 9.64 33.70 9.62 35.27 C 13.59 33.39 17.04 30.67 20.55 28.08 C 20.95 33.46 20.25 39.03 21.78 44.27 C 24.27 51.50 34.81 52.89 40.04 47.99 C 43.75 44.49 43.19 39.01 43.40 34.38 C 47.42 33.98 51.42 32.47 53.91 29.14 C 55.10 27.93 56.47 26.84 57.33 25.34 C 57.77 22.25 57.71 19.10 57.87 15.99 C 57.89 14.63 58.01 12.91 56.81 11.97 C 55.15 8.68 51.84 6.12 48.04 6.21 C 37.36 6.09 26.67 6.08 15.98 6.21 C 12.22 6.10 9.00 8.64 7.22 11.78 Z" />
<path fill="#9839b5" opacity="1.00" d=" M 20.57 12.61 C 22.26 12.37 23.95 12.23 25.65 12.20 C 25.64 12.65 25.61 13.56 25.59 14.01 C 23.94 14.01 22.28 14.00 20.62 14.00 L 20.57 12.61 Z" />
<path fill="#9839b5" opacity="1.00" d=" M 38.39 12.28 C 40.10 12.29 41.82 12.31 43.54 12.33 C 43.52 12.76 43.48 13.60 43.46 14.03 C 41.79 14.02 40.11 14.01 38.44 14.01 C 38.43 13.58 38.40 12.71 38.39 12.28 Z" />
<path fill="#9839b5" opacity="1.00" d=" M 43.31 28.22 C 47.55 26.74 50.66 23.46 54.34 21.05 L 54.07 22.79 C 51.00 25.79 47.79 29.11 43.31 29.71 L 43.31 28.22 Z" />
<path fill="#9839b5" opacity="1.00" d=" M 25.69 26.89 C 30.37 28.11 33.75 31.98 38.42 33.25 C 38.22 36.66 39.30 40.90 36.59 43.56 C 33.56 46.93 27.12 45.33 25.98 40.92 C 25.19 36.29 25.62 31.56 25.69 26.89 Z" />
</g>
<g id="#ffffffff">
<path fill="#ffffff" opacity="1.00" d=" M 7.22 11.78 C 9.00 8.64 12.22 6.10 15.98 6.21 C 26.67 6.08 37.36 6.09 48.04 6.21 C 51.84 6.12 55.15 8.68 56.81 11.97 C 54.04 10.29 51.46 7.82 48.03 7.76 C 40.35 7.42 32.66 7.75 24.97 7.63 C 21.07 7.70 17.08 7.25 13.26 8.26 C 11.12 9.19 9.36 10.83 7.22 11.78 Z" />
<path fill="#ffffff" opacity="1.00" d=" M 20.62 14.00 C 22.28 14.00 23.94 14.01 25.59 14.01 C 25.51 16.51 25.42 19.01 25.30 21.52 C 29.82 22.08 33.29 25.02 37.27 26.89 C 37.53 27.37 37.78 27.85 38.03 28.33 C 39.31 23.66 38.38 18.78 38.44 14.01 C 40.11 14.01 41.79 14.02 43.46 14.03 C 43.23 18.75 43.18 23.49 43.31 28.22 L 43.31 29.71 C 47.79 29.11 51.00 25.79 54.07 22.79 C 53.94 24.90 53.92 27.02 53.91 29.14 C 51.42 32.47 47.42 33.98 43.40 34.38 C 43.19 39.01 43.75 44.49 40.04 47.99 C 34.81 52.89 24.27 51.50 21.78 44.27 C 20.25 39.03 20.95 33.46 20.55 28.08 C 17.04 30.67 13.59 33.39 9.62 35.27 C 9.64 33.70 9.66 32.13 9.68 30.56 C 13.24 27.48 16.85 24.45 21.05 22.26 C 20.91 19.51 20.76 16.75 20.62 14.00 M 25.69 26.89 C 25.62 31.56 25.19 36.29 25.98 40.92 C 27.12 45.33 33.56 46.93 36.59 43.56 C 39.30 40.90 38.22 36.66 38.42 33.25 C 33.75 31.98 30.37 28.11 25.69 26.89 Z" />
</g>
<g id="#c77cdaff">
<path fill="#c77cda" opacity="1.00" d=" M 13.26 8.26 C 17.08 7.25 21.07 7.70 24.97 7.63 C 32.66 7.75 40.35 7.42 48.03 7.76 C 51.46 7.82 54.04 10.29 56.81 11.97 C 58.01 12.91 57.89 14.63 57.87 15.99 C 57.71 19.10 57.77 22.25 57.33 25.34 C 56.47 26.84 55.10 27.93 53.91 29.14 C 53.92 27.02 53.94 24.90 54.07 22.79 L 54.34 21.05 C 50.66 23.46 47.55 26.74 43.31 28.22 C 43.18 23.49 43.23 18.75 43.46 14.03 C 43.48 13.60 43.52 12.76 43.54 12.33 C 41.82 12.31 40.10 12.29 38.39 12.28 C 38.40 12.71 38.43 13.58 38.44 14.01 C 38.38 18.78 39.31 23.66 38.03 28.33 C 37.66 26.26 37.61 24.15 37.88 22.06 C 37.46 23.52 36.65 25.98 34.66 24.78 C 31.73 23.21 28.79 21.24 25.30 21.52 C 25.42 19.01 25.51 16.51 25.59 14.01 C 25.61 13.56 25.64 12.65 25.65 12.20 C 23.95 12.23 22.26 12.37 20.57 12.61 L 20.62 14.00 C 20.76 16.75 20.91 19.51 21.05 22.26 C 19.82 21.49 18.63 21.53 17.48 22.39 C 14.87 23.83 12.56 25.75 10.38 27.78 C 8.03 28.22 6.43 26.02 6.49 23.85 C 6.47 19.91 5.45 15.77 6.86 11.97 L 7.22 11.78 C 9.36 10.83 11.12 9.19 13.26 8.26 Z" />
</g>
</svg>
