<?xml version="1.0" encoding="UTF-8" ?>
<!DOCTYPE svg PUBLIC "-//W3C//DTD SVG 1.1//EN" "http://www.w3.org/Graphics/SVG/1.1/DTD/svg11.dtd">
<svg width="64pt" height="64pt" viewBox="0 0 64 64" version="1.1" xmlns="http://www.w3.org/2000/svg">
<g id="#00000028">
<path fill="#000000" opacity="0.16" d=" M 2.20 4.29 C 3.09 3.52 3.70 1.97 5.07 2.08 C 23.28 1.98 41.51 1.79 59.72 2.19 C 60.49 3.08 61.96 3.71 61.93 5.05 C 62.09 22.03 62.04 39.02 61.95 56.01 C 62.83 59.04 61.25 61.53 59.98 64.00 L 4.03 64.00 C 3.27 62.39 2.05 60.86 2.02 59.02 C 2.06 40.78 1.75 22.52 2.20 4.29 M 5.00 3.02 L 5.01 4.00 C 4.75 4.25 4.25 4.75 3.99 5.01 L 3.02 5.00 C 2.97 23.32 3.00 41.64 3.00 59.96 L 3.95 60.11 C 3.97 60.57 4.01 61.50 4.03 61.96 L 5.00 62.00 L 5.02 62.95 C 23.01 63.09 41.01 62.98 59.00 62.98 L 58.99 62.00 C 59.26 61.52 59.79 60.56 60.06 60.08 L 61.00 59.98 C 61.00 41.65 61.03 23.33 60.98 5.00 L 60.01 5.01 C 59.75 4.76 59.25 4.25 59.00 4.00 L 58.98 3.05 C 40.99 2.91 22.99 3.02 5.00 3.02 Z" />
</g>
<g id="#0000005d">
<path fill="#000000" opacity="0.36" d=" M 5.00 3.02 C 22.99 3.02 40.99 2.91 58.98 3.05 L 59.00 4.00 C 41.00 4.00 23.00 4.01 5.01 4.00 L 5.00 3.02 Z" />
</g>
<g id="#fefefeff">
<path fill="#fefefe" opacity="1.00" d=" M 3.99 5.01 C 4.25 4.75 4.75 4.25 5.01 4.00 C 23.00 4.01 41.00 4.00 59.00 4.00 C 59.25 4.25 59.75 4.76 60.01 5.01 C 59.99 9.34 60.02 13.67 59.99 18.00 C 59.24 18.00 57.74 17.98 56.99 17.98 C 56.98 15.25 56.95 9.79 56.94 7.06 C 40.31 6.94 23.68 6.94 7.05 7.06 C 7.05 9.79 7.03 15.24 7.02 17.97 C 6.27 17.98 4.77 18.00 4.01 18.00 C 3.99 13.67 4.00 9.34 3.99 5.01 Z" />
</g>
<g id="#00000076">
<path fill="#000000" opacity="0.46" d=" M 3.02 5.00 L 3.99 5.01 C 4.00 9.34 3.99 13.67 4.01 18.00 C 3.99 26.00 3.96 34.00 4.02 42.00 C 3.99 48.03 4.00 54.07 3.95 60.11 L 3.00 59.96 C 3.00 41.64 2.97 23.32 3.02 5.00 Z" />
<path fill="#000000" opacity="0.46" d=" M 60.01 5.01 L 60.98 5.00 C 61.03 23.33 61.00 41.65 61.00 59.98 L 60.06 60.08 C 60.00 54.05 60.03 48.03 59.99 42.00 C 60.01 34.00 60.04 26.00 59.99 18.00 C 60.02 13.67 59.99 9.34 60.01 5.01 Z" />
</g>
<g id="#033b9eff">
<path fill="#033b9e" opacity="1.00" d=" M 7.05 7.06 C 23.68 6.94 40.31 6.94 56.94 7.06 C 56.95 9.79 56.98 15.25 56.99 17.98 C 56.54 18.02 55.63 18.10 55.17 18.14 C 55.45 17.18 55.64 16.21 55.73 15.23 C 55.80 13.43 55.93 9.83 56.00 8.04 C 40.02 8.01 24.03 7.86 8.05 8.08 C 8.08 9.86 8.13 13.43 8.16 15.21 C 8.14 16.57 8.16 17.93 8.22 19.29 L 7.11 18.98 L 7.02 17.97 C 7.03 15.24 7.05 9.79 7.05 7.06 Z" />
</g>
<g id="#0d5cc1ff">
<path fill="#0d5cc1" opacity="1.00" d=" M 8.05 8.08 C 24.03 7.86 40.02 8.01 56.00 8.04 C 55.93 9.83 55.80 13.43 55.73 15.23 C 55.60 14.63 55.32 13.45 55.18 12.85 C 54.96 10.02 53.25 6.32 49.01 8.99 C 36.36 9.07 23.69 8.83 11.04 9.05 C 9.09 8.97 9.17 11.55 8.85 12.89 C 8.67 13.47 8.33 14.63 8.16 15.21 C 8.13 13.43 8.08 9.86 8.05 8.08 Z" />
</g>
<g id="#1869d4ff">
<path fill="#1869d4" opacity="1.00" d=" M 8.85 12.89 C 9.17 11.55 9.09 8.97 11.04 9.05 C 23.69 8.83 36.36 9.07 49.01 8.99 C 53.25 6.32 54.96 10.02 55.18 12.85 C 39.87 10.77 24.05 10.12 8.85 12.89 Z" />
</g>
<g id="#2776d2ff">
<path fill="#2776d2" opacity="1.00" d=" M 8.85 12.89 C 24.05 10.12 39.87 10.77 55.18 12.85 C 55.32 13.45 55.60 14.63 55.73 15.23 C 55.64 16.21 55.45 17.18 55.17 18.14 C 47.81 9.51 35.27 13.92 25.76 15.73 C 25.36 15.82 24.56 15.99 24.17 16.08 C 20.51 16.02 16.89 15.07 13.24 15.20 C 11.48 16.46 10.12 18.21 8.22 19.29 C 8.16 17.93 8.14 16.57 8.16 15.21 C 8.33 14.63 8.67 13.47 8.85 12.89 Z" />
</g>
<g id="#035826ff">
<path fill="#035826" opacity="1.00" d=" M 25.76 15.73 C 35.27 13.92 47.81 9.51 55.17 18.14 C 55.65 20.73 55.92 23.36 56.01 25.99 L 55.03 26.21 C 52.86 24.62 51.26 21.61 48.17 22.11 C 45.84 22.40 45.68 21.52 47.24 20.10 C 50.29 19.25 52.68 21.60 55.13 22.96 C 55.37 20.87 54.20 19.43 52.45 18.49 C 48.36 14.20 42.21 14.44 36.75 15.64 C 33.09 15.95 29.41 16.08 25.76 15.73 Z" />
</g>
<g id="#025f21ff">
<path fill="#025f21" opacity="1.00" d=" M 13.24 15.20 C 16.89 15.07 20.51 16.02 24.17 16.08 L 23.62 16.67 L 23.05 17.13 C 22.71 17.53 22.03 18.34 21.69 18.74 C 18.13 19.87 15.08 21.99 12.06 24.13 C 10.49 25.59 9.58 27.63 8.17 29.25 C 8.09 25.93 8.36 22.61 8.22 19.29 C 10.12 18.21 11.48 16.46 13.24 15.20 Z" />
</g>
<g id="#006e23ff">
<path fill="#006e23" opacity="1.00" d=" M 36.75 15.64 C 42.21 14.44 48.36 14.20 52.45 18.49 C 54.20 19.43 55.37 20.87 55.13 22.96 C 52.68 21.60 50.29 19.25 47.24 20.10 C 45.68 21.52 45.84 22.40 48.17 22.11 C 46.12 22.69 44.09 23.31 42.07 23.97 C 41.18 21.52 43.96 15.60 39.95 15.93 C 39.15 15.86 37.55 15.71 36.75 15.64 Z" />
</g>
<g id="#91ada5ff">
<path fill="#91ada5" opacity="1.00" d=" M 24.17 16.08 C 24.56 15.99 25.36 15.82 25.76 15.73 C 29.41 16.08 33.09 15.95 36.75 15.64 C 37.55 15.71 39.15 15.86 39.95 15.93 L 40.32 16.74 C 34.75 16.85 29.16 17.35 23.62 16.67 L 24.17 16.08 Z" />
</g>
<g id="#2b8550ff">
<path fill="#2b8550" opacity="1.00" d=" M 39.95 15.93 C 43.96 15.60 41.18 21.52 42.07 23.97 C 42.09 24.48 42.13 25.49 42.15 26.00 L 41.08 25.99 C 41.05 24.21 40.98 20.66 40.95 18.89 L 40.86 17.95 C 40.72 17.65 40.45 17.04 40.32 16.74 L 39.95 15.93 Z" />
</g>
<g id="#2a8d52ff">
<path fill="#2a8d52" opacity="1.00" d=" M 21.69 18.74 C 22.03 18.34 22.71 17.53 23.05 17.13 L 23.06 17.87 L 23.06 18.87 C 23.03 20.63 22.99 24.16 22.97 25.93 L 21.98 25.94 C 21.91 24.14 21.76 20.54 21.69 18.74 Z" />
</g>
<g id="#c7cad6ff">
<path fill="#c7cad6" opacity="1.00" d=" M 23.05 17.13 L 23.62 16.67 C 29.16 17.35 34.75 16.85 40.32 16.74 C 40.45 17.04 40.72 17.65 40.86 17.95 C 36.94 17.66 35.50 23.15 30.95 21.03 C 27.76 21.62 26.28 17.61 23.06 17.87 L 23.05 17.13 Z" />
</g>
<g id="#f5f5f5ff">
<path fill="#f5f5f5" opacity="1.00" d=" M 4.01 18.00 C 4.77 18.00 6.27 17.98 7.02 17.97 L 7.11 18.98 C 7.00 26.65 6.97 34.33 6.98 42.01 C 6.24 42.01 4.76 42.00 4.02 42.00 C 3.96 34.00 3.99 26.00 4.01 18.00 Z" />
<path fill="#f5f5f5" opacity="1.00" d=" M 56.99 17.98 C 57.74 17.98 59.24 18.00 59.99 18.00 C 60.04 26.00 60.01 34.00 59.99 42.00 C 59.23 42.00 57.72 41.99 56.97 41.98 C 57.06 33.98 56.97 25.98 56.99 17.98 Z" />
</g>
<g id="#a9afb9ff">
<path fill="#a9afb9" opacity="1.00" d=" M 23.06 17.87 C 26.28 17.61 27.76 21.62 30.95 21.03 C 35.50 23.15 36.94 17.66 40.86 17.95 L 40.95 18.89 C 39.22 20.36 37.19 21.36 35.10 22.20 C 32.38 22.58 34.92 28.06 32.00 28.00 C 29.08 28.06 31.62 22.58 28.90 22.20 C 26.81 21.36 24.76 20.37 23.06 18.87 L 23.06 17.87 Z" />
</g>
<g id="#053f12ff">
<path fill="#053f12" opacity="1.00" d=" M 55.17 18.14 C 55.63 18.10 56.54 18.02 56.99 17.98 C 56.97 25.98 57.06 33.98 56.97 41.98 C 56.93 42.44 56.84 43.34 56.80 43.79 C 56.19 47.81 56.21 51.89 55.85 55.94 C 48.19 55.82 40.40 56.71 32.80 55.48 C 34.29 55.13 35.79 54.75 37.26 54.31 C 40.87 53.87 44.45 53.19 47.92 52.10 C 48.94 51.82 49.92 51.44 50.85 50.94 C 51.96 50.38 53.00 49.72 54.03 49.04 C 56.52 47.47 55.00 43.13 54.25 40.76 L 53.98 40.00 C 57.89 36.80 55.44 30.55 56.01 25.99 C 55.92 23.36 55.65 20.73 55.17 18.14 Z" />
<path fill="#053f12" opacity="1.00" d=" M 7.11 18.98 L 8.22 19.29 C 8.36 22.61 8.09 25.93 8.17 29.25 C 8.83 32.74 7.08 37.30 9.89 39.99 L 9.78 40.78 C 10.00 43.22 7.61 47.14 9.97 49.05 C 11.02 49.76 12.09 50.45 13.21 51.04 C 17.39 53.12 22.15 53.64 26.73 54.28 C 28.19 54.72 29.68 55.08 31.17 55.40 C 23.53 56.10 15.82 56.30 8.15 55.90 C 8.03 52.17 7.76 48.45 7.33 44.75 C 7.24 44.06 7.06 42.70 6.98 42.01 C 6.97 34.33 7.00 26.65 7.11 18.98 Z" />
</g>
<g id="#028a2eff">
<path fill="#028a2e" opacity="1.00" d=" M 12.06 24.13 C 15.08 21.99 18.13 19.87 21.69 18.74 C 21.76 20.54 21.91 24.14 21.98 25.94 C 21.42 26.12 20.31 26.49 19.75 26.67 C 18.68 27.02 17.62 27.39 16.58 27.79 L 15.85 27.97 C 14.57 28.21 13.29 28.50 12.01 28.75 C 11.95 27.21 11.99 25.67 12.06 24.13 Z" />
</g>
<g id="#539c7cff">
<path fill="#539c7c" opacity="1.00" d=" M 23.06 18.87 C 24.76 20.37 26.81 21.36 28.90 22.20 C 28.96 23.44 28.97 24.69 28.93 25.94 C 27.44 25.93 24.46 25.93 22.97 25.93 C 22.99 24.16 23.03 20.63 23.06 18.87 Z" />
</g>
<g id="#54967bff">
<path fill="#54967b" opacity="1.00" d=" M 35.10 22.20 C 37.19 21.36 39.22 20.36 40.95 18.89 C 40.98 20.66 41.05 24.21 41.08 25.99 C 39.58 25.98 36.57 25.95 35.07 25.93 C 35.03 24.69 35.04 23.44 35.10 22.20 Z" />
</g>
<g id="#92a4b3ff">
<path fill="#92a4b3" opacity="1.00" d=" M 28.90 22.20 C 31.62 22.58 29.08 28.06 32.00 28.00 C 34.92 28.06 32.38 22.58 35.10 22.20 C 35.04 23.44 35.03 24.69 35.07 25.93 C 36.57 25.95 39.58 25.98 41.08 25.99 L 42.15 26.00 C 41.96 29.65 37.20 27.61 34.74 28.72 C 32.23 28.82 29.73 28.87 27.22 28.86 C 24.71 28.44 22.20 28.02 19.70 27.59 L 19.75 26.67 C 20.31 26.49 21.42 26.12 21.98 25.94 L 22.97 25.93 C 24.46 25.93 27.44 25.93 28.93 25.94 C 28.97 24.69 28.96 23.44 28.90 22.20 Z" />
</g>
<g id="#01862cff">
<path fill="#01862c" opacity="1.00" d=" M 48.17 22.11 C 51.26 21.61 52.86 24.62 55.03 26.21 C 55.02 27.43 54.98 28.66 54.90 29.88 C 53.34 29.87 50.46 27.99 50.92 30.87 C 50.00 30.23 49.10 29.56 48.21 28.87 C 47.92 28.45 47.34 27.63 47.04 27.22 C 45.42 26.79 43.78 26.40 42.15 26.00 C 42.13 25.49 42.09 24.48 42.07 23.97 C 44.09 23.31 46.12 22.69 48.17 22.11 Z" />
</g>
<g id="#037628ff">
<path fill="#037628" opacity="1.00" d=" M 8.17 29.25 C 9.58 27.63 10.49 25.59 12.06 24.13 C 11.99 25.67 11.95 27.21 12.01 28.75 C 13.29 28.50 14.57 28.21 15.85 27.97 C 15.87 28.44 15.89 29.36 15.91 29.82 C 12.85 29.34 11.91 32.39 11.94 34.87 C 13.29 34.98 14.65 35.05 16.01 35.08 C 16.01 35.55 16.03 36.48 16.04 36.94 C 14.67 37.54 13.27 38.07 11.96 38.79 C 11.44 39.09 10.41 39.69 9.89 39.99 C 7.08 37.30 8.83 32.74 8.17 29.25 Z" />
</g>
<g id="#7599b8ff">
<path fill="#7599b8" opacity="1.00" d=" M 42.15 26.00 C 43.78 26.40 45.42 26.79 47.04 27.22 L 46.99 28.16 C 42.96 29.03 38.83 28.95 34.74 28.72 C 37.20 27.61 41.96 29.65 42.15 26.00 Z" />
</g>
<g id="#047127ff">
<path fill="#047127" opacity="1.00" d=" M 55.03 26.21 L 56.01 25.99 C 55.44 30.55 57.89 36.80 53.98 40.00 C 52.68 39.29 51.40 38.56 50.09 37.88 C 49.58 37.63 48.55 37.14 48.04 36.90 L 48.06 36.06 C 49.75 35.88 52.95 36.43 52.98 33.95 C 53.40 32.36 52.01 31.62 50.92 30.87 C 50.46 27.99 53.34 29.87 54.90 29.88 C 54.98 28.66 55.02 27.43 55.03 26.21 Z" />
</g>
<g id="#acb5c4ff">
<path fill="#acb5c4" opacity="1.00" d=" M 16.58 27.79 C 17.62 27.39 18.68 27.02 19.75 26.67 L 19.70 27.59 C 17.00 31.47 25.10 28.22 27.22 28.86 C 29.73 28.87 32.23 28.82 34.74 28.72 C 38.83 28.95 42.96 29.03 46.99 28.16 C 47.39 31.96 42.63 33.10 39.78 34.11 C 39.30 34.06 38.34 33.94 37.86 33.89 C 39.72 32.73 41.68 31.68 43.32 30.20 C 35.83 29.93 28.34 29.87 20.85 30.09 C 22.58 31.43 24.39 32.65 26.23 33.85 L 25.23 34.06 C 21.31 34.24 17.81 31.42 16.58 27.79 Z" />
</g>
<g id="#50a07aff">
<path fill="#50a07a" opacity="1.00" d=" M 47.04 27.22 C 47.34 27.63 47.92 28.45 48.21 28.87 C 48.17 30.66 48.10 34.26 48.06 36.06 L 48.04 36.90 C 46.03 36.45 44.01 36.05 41.98 35.76 C 41.25 35.21 40.52 34.66 39.78 34.11 C 42.63 33.10 47.39 31.96 46.99 28.16 L 47.04 27.22 Z" />
</g>
<g id="#549f7dff">
<path fill="#549f7d" opacity="1.00" d=" M 15.85 27.97 L 16.58 27.79 C 17.81 31.42 21.31 34.24 25.23 34.06 C 24.88 34.51 24.19 35.40 23.84 35.84 C 21.23 36.18 18.63 36.49 16.04 36.94 C 16.03 36.48 16.01 35.55 16.01 35.08 C 16.00 33.33 15.98 31.58 15.91 29.82 C 15.89 29.36 15.87 28.44 15.85 27.97 Z" />
</g>
<g id="#6b90beff">
<path fill="#6b90be" opacity="1.00" d=" M 27.22 28.86 C 25.10 28.22 17.00 31.47 19.70 27.59 C 22.20 28.02 24.71 28.44 27.22 28.86 Z" />
</g>
<g id="#009832ff">
<path fill="#009832" opacity="1.00" d=" M 48.21 28.87 C 49.10 29.56 50.00 30.23 50.92 30.87 C 52.01 31.62 53.40 32.36 52.98 33.95 C 52.95 36.43 49.75 35.88 48.06 36.06 C 48.10 34.26 48.17 30.66 48.21 28.87 Z" />
</g>
<g id="#009d33ff">
<path fill="#009d33" opacity="1.00" d=" M 11.94 34.87 C 11.91 32.39 12.85 29.34 15.91 29.82 C 15.98 31.58 16.00 33.33 16.01 35.08 C 14.65 35.05 13.29 34.98 11.94 34.87 Z" />
</g>
<g id="#c6cad5ff">
<path fill="#c6cad5" opacity="1.00" d=" M 20.85 30.09 C 28.34 29.87 35.83 29.93 43.32 30.20 C 41.68 31.68 39.72 32.73 37.86 33.89 C 34.29 34.72 30.66 35.09 27.09 34.01 L 26.23 33.85 C 24.39 32.65 22.58 31.43 20.85 30.09 Z" />
</g>
<g id="#949fa7ff">
<path fill="#949fa7" opacity="1.00" d=" M 25.23 34.06 L 26.23 33.85 L 27.09 34.01 C 27.97 36.09 27.54 39.20 30.32 39.71 C 34.08 42.18 35.09 38.80 36.92 37.06 C 37.23 37.31 37.84 37.82 38.14 38.08 C 36.79 40.15 36.18 43.58 32.00 40.98 C 27.71 43.69 27.24 40.29 26.05 38.18 C 26.23 37.85 26.58 37.19 26.75 36.86 C 26.81 35.92 25.84 35.58 23.84 35.84 C 24.19 35.40 24.88 34.51 25.23 34.06 Z" />
</g>
<g id="#a9afb8ff">
<path fill="#a9afb8" opacity="1.00" d=" M 27.09 34.01 C 30.66 35.09 34.29 34.72 37.86 33.89 C 35.66 36.83 40.32 36.16 41.98 35.76 C 44.01 36.05 46.03 36.45 48.04 36.90 C 48.55 37.14 49.58 37.63 50.09 37.88 C 49.54 38.05 48.45 38.40 47.90 38.58 C 44.27 37.91 40.66 36.75 36.92 37.06 C 35.09 38.80 34.08 42.18 30.32 39.71 C 27.54 39.20 27.97 36.09 27.09 34.01 Z" />
</g>
<g id="#7aa797ff">
<path fill="#7aa797" opacity="1.00" d=" M 37.86 33.89 C 38.34 33.94 39.30 34.06 39.78 34.11 C 40.52 34.66 41.25 35.21 41.98 35.76 C 40.32 36.16 35.66 36.83 37.86 33.89 Z" />
</g>
<g id="#b3bbc1ff">
<path fill="#b3bbc1" opacity="1.00" d=" M 16.04 36.94 C 18.63 36.49 21.23 36.18 23.84 35.84 C 25.84 35.58 26.81 35.92 26.75 36.86 C 22.72 37.50 18.21 37.34 14.72 39.83 L 13.93 39.81 C 13.44 39.55 12.45 39.04 11.96 38.79 C 13.27 38.07 14.67 37.54 16.04 36.94 Z" />
</g>
<g id="#6e7788ff">
<path fill="#6e7788" opacity="1.00" d=" M 14.72 39.83 C 18.21 37.34 22.72 37.50 26.75 36.86 C 26.58 37.19 26.23 37.85 26.05 38.18 C 24.29 38.49 22.55 38.88 20.80 39.21 C 19.08 39.50 17.38 39.90 15.65 40.18 L 14.72 39.83 Z" />
</g>
<g id="#6b7280ff">
<path fill="#6b7280" opacity="1.00" d=" M 36.92 37.06 C 40.66 36.75 44.27 37.91 47.90 38.58 C 49.44 38.67 50.17 39.47 50.09 40.96 C 49.61 40.79 48.65 40.45 48.17 40.27 C 46.57 39.70 44.93 39.20 43.23 39.09 C 41.52 38.84 39.83 38.46 38.14 38.08 C 37.84 37.82 37.23 37.31 36.92 37.06 Z" />
</g>
<g id="#89a9ceff">
<path fill="#89a9ce" opacity="1.00" d=" M 20.80 39.21 C 22.55 38.88 24.29 38.49 26.05 38.18 C 27.24 40.29 27.71 43.69 32.00 40.98 C 36.18 43.58 36.79 40.15 38.14 38.08 C 39.83 38.46 41.52 38.84 43.23 39.09 C 41.80 40.85 39.91 42.10 37.82 42.96 C 33.94 43.04 30.05 43.02 26.17 42.91 C 24.11 42.10 22.26 40.88 20.80 39.21 Z" />
</g>
<g id="#f4f5f5ff">
<path fill="#f4f5f5" opacity="1.00" d=" M 47.90 38.58 C 48.45 38.40 49.54 38.05 50.09 37.88 C 51.40 38.56 52.68 39.29 53.98 40.00 L 54.25 40.76 C 54.19 41.26 54.05 42.25 53.98 42.75 C 53.73 43.04 53.21 43.62 52.95 43.91 C 52.45 44.13 51.45 44.59 50.95 44.82 C 50.02 45.21 49.09 45.62 48.18 46.04 C 36.76 48.93 24.09 49.48 13.08 44.87 C 12.55 44.65 11.47 44.19 10.94 43.96 C 10.71 43.66 10.25 43.05 10.02 42.75 C 9.96 42.25 9.84 41.27 9.78 40.78 L 9.89 39.99 C 10.41 39.69 11.44 39.09 11.96 38.79 C 12.45 39.04 13.44 39.55 13.93 39.81 C 14.19 44.20 19.64 43.62 22.77 44.27 C 28.86 44.91 35.24 45.87 41.27 44.38 C 44.13 43.58 48.77 44.04 50.09 40.96 C 50.17 39.47 49.44 38.67 47.90 38.58 Z" />
</g>
<g id="#6a93c1ff">
<path fill="#6a93c1" opacity="1.00" d=" M 15.65 40.18 C 17.38 39.90 19.08 39.50 20.80 39.21 C 22.26 40.88 24.11 42.10 26.17 42.91 C 22.59 42.88 18.35 42.99 15.65 40.18 Z" />
</g>
<g id="#6b94c1ff">
<path fill="#6b94c1" opacity="1.00" d=" M 43.23 39.09 C 44.93 39.20 46.57 39.70 48.17 40.27 C 45.47 42.85 41.34 42.88 37.82 42.96 C 39.91 42.10 41.80 40.85 43.23 39.09 Z" />
</g>
<g id="#3175afff">
<path fill="#3175af" opacity="1.00" d=" M 13.93 39.81 L 14.72 39.83 L 15.65 40.18 C 18.35 42.99 22.59 42.88 26.17 42.91 C 30.05 43.02 33.94 43.04 37.82 42.96 C 41.34 42.88 45.47 42.85 48.17 40.27 C 48.65 40.45 49.61 40.79 50.09 40.96 C 48.77 44.04 44.13 43.58 41.27 44.38 C 35.11 43.97 28.94 43.96 22.77 44.27 C 19.64 43.62 14.19 44.20 13.93 39.81 Z" />
</g>
<g id="#16592cff">
<path fill="#16592c" opacity="1.00" d=" M 9.97 49.05 C 7.61 47.14 10.00 43.22 9.78 40.78 C 9.84 41.27 9.96 42.25 10.02 42.75 C 10.03 44.85 9.98 46.95 9.97 49.05 Z" />
</g>
<g id="#14532aff">
<path fill="#14532a" opacity="1.00" d=" M 54.25 40.76 C 55.00 43.13 56.52 47.47 54.03 49.04 C 54.02 46.94 53.97 44.85 53.98 42.75 C 54.05 42.25 54.19 41.26 54.25 40.76 Z" />
</g>
<g id="#ecececff">
<path fill="#ececec" opacity="1.00" d=" M 4.02 42.00 C 4.76 42.00 6.24 42.01 6.98 42.01 C 7.06 42.70 7.24 44.06 7.33 44.75 C 7.10 48.81 7.00 52.88 7.02 56.96 C 23.67 57.04 40.32 57.07 56.97 56.94 C 57.05 52.55 56.98 48.17 56.80 43.79 C 56.84 43.34 56.93 42.44 56.97 41.98 C 57.72 41.99 59.23 42.00 59.99 42.00 C 60.03 48.03 60.00 54.05 60.06 60.08 L 59.23 60.31 C 41.10 59.80 22.95 59.87 4.81 60.21 L 3.95 60.11 C 4.00 54.07 3.99 48.03 4.02 42.00 Z" />
</g>
<g id="#9fa0a0ff">
<path fill="#9fa0a0" opacity="1.00" d=" M 10.02 42.75 C 10.25 43.05 10.71 43.66 10.94 43.96 C 11.43 46.42 13.80 48.42 13.21 51.04 C 12.09 50.45 11.02 49.76 9.97 49.05 C 9.98 46.95 10.03 44.85 10.02 42.75 Z" />
</g>
<g id="#8e8f91ff">
<path fill="#8e8f91" opacity="1.00" d=" M 52.95 43.91 C 53.21 43.62 53.73 43.04 53.98 42.75 C 53.97 44.85 54.02 46.94 54.03 49.04 C 53.00 49.72 51.96 50.38 50.85 50.94 C 51.38 48.55 52.26 46.25 52.95 43.91 Z" />
</g>
<g id="#b3b4b4ff">
<path fill="#b3b4b4" opacity="1.00" d=" M 10.94 43.96 C 11.47 44.19 12.55 44.65 13.08 44.87 C 14.71 46.93 16.27 49.06 18.27 50.79 C 26.51 51.18 34.77 51.08 43.02 50.99 C 45.76 51.20 47.24 48.19 48.18 46.04 C 49.09 45.62 50.02 45.21 50.95 44.82 C 50.40 47.42 48.93 49.67 47.92 52.10 C 44.45 53.19 40.87 53.87 37.26 54.31 C 33.75 54.17 30.24 53.97 26.73 54.28 C 22.15 53.64 17.39 53.12 13.21 51.04 C 13.80 48.42 11.43 46.42 10.94 43.96 Z" />
</g>
<g id="#88b5d9ff">
<path fill="#88b5d9" opacity="1.00" d=" M 22.77 44.27 C 28.94 43.96 35.11 43.97 41.27 44.38 C 35.24 45.87 28.86 44.91 22.77 44.27 Z" />
</g>
<g id="#a1a2a2ff">
<path fill="#a1a2a2" opacity="1.00" d=" M 50.95 44.82 C 51.45 44.59 52.45 44.13 52.95 43.91 C 52.26 46.25 51.38 48.55 50.85 50.94 C 49.92 51.44 48.94 51.82 47.92 52.10 C 48.93 49.67 50.40 47.42 50.95 44.82 Z" />
</g>
<g id="#001b02ff">
<path fill="#001b02" opacity="1.00" d=" M 55.85 55.94 C 56.21 51.89 56.19 47.81 56.80 43.79 C 56.98 48.17 57.05 52.55 56.97 56.94 C 40.32 57.07 23.67 57.04 7.02 56.96 C 7.00 52.88 7.10 48.81 7.33 44.75 C 7.76 48.45 8.03 52.17 8.15 55.90 C 15.82 56.30 23.53 56.10 31.17 55.40 C 31.58 55.42 32.39 55.46 32.80 55.48 C 40.40 56.71 48.19 55.82 55.85 55.94 Z" />
</g>
<g id="#cbcbcbff">
<path fill="#cbcbcb" opacity="1.00" d=" M 13.08 44.87 C 24.09 49.48 36.76 48.93 48.18 46.04 C 47.24 48.19 45.76 51.20 43.02 50.99 C 34.77 51.08 26.51 51.18 18.27 50.79 C 16.27 49.06 14.71 46.93 13.08 44.87 Z" />
</g>
<g id="#1d4327ff">
<path fill="#1d4327" opacity="1.00" d=" M 26.73 54.28 C 30.24 53.97 33.75 54.17 37.26 54.31 C 35.79 54.75 34.29 55.13 32.80 55.48 C 32.39 55.46 31.58 55.42 31.17 55.40 C 29.68 55.08 28.19 54.72 26.73 54.28 Z" />
</g>
<g id="#00000081">
<path fill="#000000" opacity="0.51" d=" M 3.95 60.11 L 4.81 60.21 C 18.13 61.90 31.61 60.59 45.00 61.03 C 49.71 60.70 54.65 61.83 59.23 60.31 L 60.06 60.08 C 59.79 60.56 59.26 61.52 58.99 62.00 C 40.99 62.00 23.00 62.01 5.00 62.00 L 4.03 61.96 C 4.01 61.50 3.97 60.57 3.95 60.11 Z" />
</g>
<g id="#000000ad">
<path fill="#000000" opacity="0.68" d=" M 4.81 60.21 C 22.95 59.87 41.10 59.80 59.23 60.31 C 54.65 61.83 49.71 60.70 45.00 61.03 C 31.61 60.59 18.13 61.90 4.81 60.21 Z" />
</g>
<g id="#00000055">
<path fill="#000000" opacity="0.33" d=" M 5.00 62.00 C 23.00 62.01 40.99 62.00 58.99 62.00 L 59.00 62.98 C 41.01 62.98 23.01 63.09 5.02 62.95 L 5.00 62.00 Z" />
</g>
</svg>
