<?xml version="1.0" encoding="UTF-8" ?>
<!DOCTYPE svg PUBLIC "-//W3C//DTD SVG 1.1//EN" "http://www.w3.org/Graphics/SVG/1.1/DTD/svg11.dtd">
<svg width="64pt" height="64pt" viewBox="0 0 64 64" version="1.1" xmlns="http://www.w3.org/2000/svg">
<g id="#0b0a03f2">
<path fill="#0b0a03" opacity="0.95" d=" M 30.02 0.00 L 31.83 0.00 C 32.11 0.41 32.66 1.22 32.94 1.62 C 32.64 3.16 32.05 6.24 31.75 7.78 C 31.31 10.50 31.00 13.25 30.99 16.00 C 30.92 18.94 30.96 21.88 30.82 24.81 C 30.28 28.17 29.92 31.57 29.96 34.97 C 29.91 36.25 29.84 37.53 29.75 38.81 C 29.35 41.86 28.92 44.93 28.98 48.01 C 28.96 49.68 29.00 51.34 29.04 53.00 L 29.05 54.01 C 29.01 54.77 28.93 56.29 28.89 57.05 C 26.87 57.32 26.89 55.18 26.25 53.85 L 25.98 53.04 L 27.00 52.90 L 27.92 52.77 C 28.01 47.57 28.15 42.38 28.34 37.20 C 28.89 32.20 28.86 27.17 29.32 22.17 C 29.83 18.74 30.06 15.27 29.90 11.81 C 29.96 7.87 30.00 3.94 30.02 0.00 Z" />
</g>
<g id="#c7bd53fd">
<path fill="#c7bd53" opacity="1.00" d=" M 31.75 7.78 C 32.05 6.24 32.64 3.16 32.94 1.62 C 34.42 3.65 35.87 5.70 37.19 7.84 C 37.14 8.36 37.05 9.42 37.01 9.95 C 35.31 9.96 33.62 9.97 31.93 9.97 C 31.88 9.42 31.80 8.32 31.75 7.78 Z" />
</g>
<g id="#793c3ffe">
<path fill="#793c3f" opacity="1.00" d=" M 30.99 16.00 C 31.00 13.25 31.31 10.50 31.75 7.78 C 31.80 8.32 31.88 9.42 31.93 9.97 C 31.98 11.97 32.00 13.98 32.01 15.98 L 30.99 16.00 Z" />
</g>
<g id="#764f3ce6">
<path fill="#764f3c" opacity="0.90" d=" M 37.19 7.84 C 39.46 11.22 41.02 15.02 42.19 18.91 C 41.39 17.99 40.64 17.03 39.91 16.06 C 38.96 14.01 37.98 11.98 37.01 9.95 C 37.05 9.42 37.14 8.36 37.19 7.84 Z" />
</g>
<g id="#ed7087ff">
<path fill="#ed7087" opacity="1.00" d=" M 31.93 9.97 C 33.62 9.97 35.31 9.96 37.01 9.95 C 37.98 11.98 38.96 14.01 39.91 16.06 C 37.28 16.03 34.64 16.00 32.01 15.98 C 32.00 13.98 31.98 11.97 31.93 9.97 Z" />
</g>
<g id="#0706038b">
<path fill="#070603" opacity="0.55" d=" M 27.97 17.79 C 28.65 15.81 29.30 13.81 29.90 11.81 C 30.06 15.27 29.83 18.74 29.32 22.17 C 29.00 20.99 28.63 19.82 28.23 18.67 L 27.97 17.79 Z" />
</g>
<g id="#f2ec4eff">
<path fill="#f2ec4e" opacity="1.00" d=" M 30.99 16.00 L 32.01 15.98 C 34.64 16.00 37.28 16.03 39.91 16.06 C 40.64 17.03 41.39 17.99 42.19 18.91 C 42.97 20.55 43.68 22.22 44.44 23.87 C 41.58 28.22 35.24 25.14 30.88 25.91 L 30.82 24.81 C 30.96 21.88 30.92 18.94 30.99 16.00 Z" />
</g>
<g id="#7c363bea">
<path fill="#7c363b" opacity="0.92" d=" M 22.77 25.70 C 24.45 23.03 26.14 20.36 27.97 17.79 L 28.23 18.67 C 28.10 21.87 28.23 25.13 27.38 28.25 C 27.95 24.62 25.42 24.68 22.77 25.70 Z" />
</g>
<g id="#0e0a035a">
<path fill="#0e0a03" opacity="0.35" d=" M 28.23 18.67 C 28.63 19.82 29.00 20.99 29.32 22.17 C 28.86 27.17 28.89 32.20 28.34 37.20 C 28.10 35.33 27.80 33.46 27.20 31.68 C 27.23 30.53 27.29 29.39 27.38 28.25 C 28.23 25.13 28.10 21.87 28.23 18.67 Z" />
</g>
<g id="#f58c2efe">
<path fill="#f58c2e" opacity="1.00" d=" M 44.44 23.87 C 45.95 26.72 47.14 29.73 48.26 32.77 C 48.22 33.30 48.13 34.36 48.09 34.89 C 42.33 34.98 36.59 35.06 30.84 35.22 C 30.89 32.12 30.98 29.02 30.88 25.91 C 35.24 25.14 41.58 28.22 44.44 23.87 Z" />
</g>
<g id="#d5cf32fd">
<path fill="#d5cf32" opacity="1.00" d=" M 22.77 25.70 C 25.42 24.68 27.95 24.62 27.38 28.25 C 27.29 29.39 27.23 30.53 27.20 31.68 L 27.00 32.65 C 26.74 33.25 26.22 34.45 25.97 35.05 C 23.16 34.90 20.14 35.55 17.59 34.10 C 19.35 31.32 20.95 28.44 22.77 25.70 Z" />
</g>
<g id="#854610fe">
<path fill="#854610" opacity="1.00" d=" M 29.96 34.97 C 29.92 31.57 30.28 28.17 30.82 24.81 L 30.88 25.91 C 30.98 29.02 30.89 32.12 30.84 35.22 L 29.96 34.97 Z" />
</g>
<g id="#08040137">
<path fill="#080401" opacity="0.22" d=" M 27.20 31.68 C 27.80 33.46 28.10 35.33 28.34 37.20 C 28.15 42.38 28.01 47.57 27.92 52.77 L 27.00 52.90 C 26.78 50.52 26.50 48.15 26.17 45.78 L 26.06 44.86 C 26.10 40.78 26.70 36.72 27.00 32.65 L 27.20 31.68 Z" />
</g>
<g id="#85480ded">
<path fill="#85480d" opacity="0.93" d=" M 25.97 35.05 C 26.22 34.45 26.74 33.25 27.00 32.65 C 26.70 36.72 26.10 40.78 26.06 44.86 L 25.07 45.03 C 25.34 41.69 25.75 38.38 25.97 35.05 Z" />
</g>
<g id="#c12649fd">
<path fill="#c12649" opacity="1.00" d=" M 48.26 32.77 C 49.52 34.97 50.71 37.25 51.27 39.75 C 51.39 41.83 51.79 43.88 51.95 45.95 C 49.03 46.00 46.12 46.03 43.20 45.85 C 40.65 44.48 34.19 46.89 34.83 42.17 C 37.96 42.06 41.10 41.94 44.23 41.79 C 45.70 41.82 48.64 41.88 50.12 41.90 C 49.85 39.47 48.90 37.18 48.09 34.89 C 48.13 34.36 48.22 33.30 48.26 32.77 Z" />
</g>
<g id="#eb6b12fe">
<path fill="#eb6b12" opacity="1.00" d=" M 11.86 42.86 C 13.78 39.95 15.63 36.99 17.59 34.10 C 20.14 35.55 23.16 34.90 25.97 35.05 C 25.75 38.38 25.34 41.69 25.07 45.03 C 20.71 45.00 16.35 44.99 11.98 44.94 C 11.95 44.42 11.89 43.38 11.86 42.86 Z" />
</g>
<g id="#e73354ff">
<path fill="#e73354" opacity="1.00" d=" M 29.96 34.97 L 30.84 35.22 C 34.20 35.64 36.62 37.81 38.59 40.41 C 40.00 40.76 42.82 41.45 44.23 41.79 C 41.10 41.94 37.96 42.06 34.83 42.17 C 33.14 41.96 31.46 41.64 29.86 41.04 C 29.83 40.48 29.78 39.36 29.75 38.81 C 29.84 37.53 29.91 36.25 29.96 34.97 Z" />
</g>
<g id="#ef4b67ff">
<path fill="#ef4b67" opacity="1.00" d=" M 30.84 35.22 C 36.59 35.06 42.33 34.98 48.09 34.89 C 48.90 37.18 49.85 39.47 50.12 41.90 C 48.64 41.88 45.70 41.82 44.23 41.79 C 42.82 41.45 40.00 40.76 38.59 40.41 C 36.62 37.81 34.20 35.64 30.84 35.22 Z" />
</g>
<g id="#30060cf0">
<path fill="#30060c" opacity="0.94" d=" M 28.98 48.01 C 28.92 44.93 29.35 41.86 29.75 38.81 C 29.78 39.36 29.83 40.48 29.86 41.04 C 29.92 42.67 29.95 44.31 30.07 45.95 C 30.53 46.24 31.45 46.81 31.91 47.10 L 32.05 48.01 C 31.28 48.01 29.75 48.01 28.98 48.01 Z" />
</g>
<g id="#6f1126f4">
<path fill="#6f1126" opacity="0.96" d=" M 51.27 39.75 C 52.59 42.30 53.91 44.97 54.07 47.89 C 53.36 47.88 51.93 47.85 51.22 47.83 C 44.84 46.70 38.35 46.93 31.91 47.10 C 31.45 46.81 30.53 46.24 30.07 45.95 C 34.45 45.97 38.83 45.90 43.20 45.85 C 46.12 46.03 49.03 46.00 51.95 45.95 C 51.79 43.88 51.39 41.83 51.27 39.75 Z" />
</g>
<g id="#be1e32ff">
<path fill="#be1e32" opacity="1.00" d=" M 29.86 41.04 C 31.46 41.64 33.14 41.96 34.83 42.17 C 34.19 46.89 40.65 44.48 43.20 45.85 C 38.83 45.90 34.45 45.97 30.07 45.95 C 29.95 44.31 29.92 42.67 29.86 41.04 Z" />
</g>
<g id="#9a1a2df6">
<path fill="#9a1a2d" opacity="0.96" d=" M 8.60 47.80 C 9.60 46.10 10.73 44.48 11.86 42.86 C 11.89 43.38 11.95 44.42 11.98 44.94 C 11.33 46.29 10.64 47.62 10.03 48.99 C 14.76 49.07 19.49 48.95 24.21 49.22 C 19.34 50.19 14.34 50.40 9.22 49.84 C 9.06 49.33 8.76 48.31 8.60 47.80 Z" />
</g>
<g id="#d0203aff">
<path fill="#d0203a" opacity="1.00" d=" M 11.98 44.94 C 16.35 44.99 20.71 45.00 25.07 45.03 C 24.69 46.34 25.64 48.44 24.21 49.22 C 19.49 48.95 14.76 49.07 10.03 48.99 C 10.64 47.62 11.33 46.29 11.98 44.94 Z" />
</g>
<g id="#640e1df5">
<path fill="#640e1d" opacity="0.96" d=" M 25.07 45.03 L 26.06 44.86 L 26.17 45.78 C 26.13 47.52 26.09 49.26 25.96 50.99 C 19.62 50.53 13.00 52.06 6.80 50.33 C 7.41 49.49 8.01 48.65 8.60 47.80 C 8.76 48.31 9.06 49.33 9.22 49.84 C 14.34 50.40 19.34 50.19 24.21 49.22 C 25.64 48.44 24.69 46.34 25.07 45.03 Z" />
</g>
<g id="#1805085f">
<path fill="#180508" opacity="0.37" d=" M 31.91 47.10 C 38.35 46.93 44.84 46.70 51.22 47.83 C 44.83 48.03 38.44 48.04 32.05 48.01 L 31.91 47.10 Z" />
</g>
<g id="#0d010434">
<path fill="#0d0104" opacity="0.20" d=" M 5.76 51.86 C 6.02 51.48 6.54 50.71 6.80 50.33 C 13.00 52.06 19.62 50.53 25.96 50.99 L 25.87 51.95 C 19.17 52.11 12.46 52.08 5.76 51.86 Z" />
</g>
<g id="#1f140383">
<path fill="#1f1403" opacity="0.51" d=" M 14.78 53.80 C 18.49 53.24 22.22 52.98 25.98 53.04 L 26.25 53.85 C 22.42 53.95 18.60 54.02 14.78 53.80 Z" />
</g>
<g id="#352404c3">
<path fill="#352404" opacity="0.76" d=" M 29.04 53.00 C 35.78 53.00 42.54 52.72 49.23 53.72 C 42.50 53.97 35.78 54.02 29.05 54.01 L 29.04 53.00 Z" />
</g>
<g id="#2c2002ce">
<path fill="#2c2002" opacity="0.81" d=" M 3.90 54.07 C 6.67 54.02 9.44 54.05 12.21 54.14 C 9.72 54.64 7.20 55.01 4.76 55.72 C 4.54 55.31 4.11 54.49 3.90 54.07 Z" />
</g>
<g id="#6a4b09f9">
<path fill="#6a4b09" opacity="0.98" d=" M 12.21 54.14 C 12.85 54.06 14.14 53.89 14.78 53.80 C 18.60 54.02 22.42 53.95 26.25 53.85 C 26.89 55.18 26.87 57.32 28.89 57.05 C 28.93 56.29 29.01 54.77 29.05 54.01 C 35.78 54.02 42.50 53.97 49.23 53.72 C 52.14 54.08 55.15 54.10 57.93 55.13 C 58.40 58.17 59.04 61.66 55.26 61.38 C 54.38 61.22 52.63 60.89 51.75 60.73 C 52.37 60.49 53.60 59.99 54.21 59.75 C 55.77 60.17 56.36 59.60 55.98 58.03 C 48.58 57.87 41.18 57.96 33.79 58.26 C 26.13 58.10 18.58 56.82 10.98 56.03 C 9.42 55.79 7.87 56.18 6.53 56.96 C 6.09 56.65 5.20 56.03 4.76 55.72 C 7.20 55.01 9.72 54.64 12.21 54.14 Z" />
</g>
<g id="#a58218ff">
<path fill="#a58218" opacity="1.00" d=" M 6.53 56.96 C 7.87 56.18 9.42 55.79 10.98 56.03 C 18.58 56.82 26.13 58.10 33.79 58.26 C 40.57 59.14 47.43 58.85 54.21 59.75 C 53.60 59.99 52.37 60.49 51.75 60.73 C 37.88 62.67 23.61 63.02 9.85 60.09 C 8.63 59.18 7.60 58.04 6.53 56.96 Z" />
</g>
<g id="#957414fc">
<path fill="#957414" opacity="1.00" d=" M 33.79 58.26 C 41.18 57.96 48.58 57.87 55.98 58.03 C 56.36 59.60 55.77 60.17 54.21 59.75 C 47.43 58.85 40.57 59.14 33.79 58.26 Z" />
</g>
<g id="#463407e1">
<path fill="#463407" opacity="0.88" d=" M 9.85 60.09 C 23.61 63.02 37.88 62.67 51.75 60.73 C 52.63 60.89 54.38 61.22 55.26 61.38 C 50.41 62.46 45.49 63.19 40.60 64.00 L 23.49 64.00 C 19.18 61.99 13.63 63.27 9.85 60.09 Z" />
</g>
</svg>
