<?xml version="1.0" encoding="UTF-8" ?>
<!DOCTYPE svg PUBLIC "-//W3C//DTD SVG 1.1//EN" "http://www.w3.org/Graphics/SVG/1.1/DTD/svg11.dtd">
<svg width="64pt" height="64pt" viewBox="0 0 64 64" version="1.1" xmlns="http://www.w3.org/2000/svg">
<g id="#fbfafaff">
<path fill="#fbfafa" opacity="1.00" d=" M 10.57 3.74 C 22.54 3.18 34.58 3.70 46.57 3.48 L 46.10 4.13 C 44.94 5.43 47.10 7.14 46.49 8.72 C 34.81 8.85 23.13 8.85 11.45 8.74 C 11.41 8.04 11.34 6.63 11.31 5.93 C 10.50 7.25 10.51 8.66 11.32 10.16 L 11.27 10.84 C 10.32 15.09 11.05 19.63 10.91 24.00 C 11.12 26.29 10.12 28.68 11.03 30.90 C 9.34 30.34 10.83 28.25 10.28 27.01 C 10.37 19.25 10.08 11.48 10.57 3.74 Z" />
</g>
<g id="#a59d9bf9">
<path fill="#a59d9b" opacity="0.98" d=" M 46.10 4.13 C 48.63 3.37 47.43 6.73 47.75 7.97 C 47.77 10.89 50.46 12.90 51.74 15.36 C 51.33 15.71 50.52 16.40 50.12 16.75 C 49.54 15.55 48.96 14.34 48.38 13.14 C 48.04 12.93 47.36 12.50 47.02 12.29 C 47.12 11.61 47.30 10.25 47.40 9.57 C 35.38 10.10 23.28 8.96 11.32 10.16 C 10.51 8.66 10.50 7.25 11.31 5.93 C 11.34 6.63 11.41 8.04 11.45 8.74 C 23.13 8.85 34.81 8.85 46.49 8.72 C 47.10 7.14 44.94 5.43 46.10 4.13 Z" />
</g>
<g id="#6e0900ff">
<path fill="#6e0900" opacity="1.00" d=" M 11.32 10.16 C 23.28 8.96 35.38 10.10 47.40 9.57 C 47.30 10.25 47.12 11.61 47.02 12.29 C 46.14 18.29 47.56 24.50 46.22 30.45 L 45.54 30.50 C 45.38 28.87 45.21 27.23 45.03 25.60 C 45.05 23.31 44.78 21.03 44.44 18.76 C 44.24 16.32 44.31 13.83 43.52 11.47 C 39.62 11.48 35.72 11.43 31.83 11.37 C 34.36 11.81 36.91 12.15 39.44 12.61 C 38.80 12.72 37.52 12.96 36.88 13.08 L 36.09 13.07 C 35.51 13.05 34.35 13.01 33.77 12.99 L 32.99 12.99 C 32.49 12.98 31.50 12.98 31.00 12.98 C 30.58 13.06 29.74 13.22 29.31 13.30 C 28.95 12.96 28.22 12.29 27.85 11.95 C 23.15 11.40 18.36 12.18 13.64 11.54 C 12.85 11.30 12.06 11.07 11.27 10.84 L 11.32 10.16 Z" />
</g>
<g id="#cd8f82ff">
<path fill="#cd8f82" opacity="1.00" d=" M 11.27 10.84 C 12.06 11.07 12.85 11.30 13.64 11.54 C 12.86 17.88 12.73 24.31 11.56 30.60 C 15.35 30.66 19.14 30.63 22.93 30.64 C 26.83 30.63 30.73 30.64 34.63 30.61 C 38.27 30.60 41.91 30.78 45.54 30.50 L 46.22 30.45 C 44.31 31.46 42.09 31.08 40.02 31.16 C 30.36 31.04 20.65 31.37 11.03 30.90 C 10.12 28.68 11.12 26.29 10.91 24.00 C 11.05 19.63 10.32 15.09 11.27 10.84 Z" />
</g>
<g id="#dc3506ff">
<path fill="#dc3506" opacity="1.00" d=" M 31.83 11.37 C 35.72 11.43 39.62 11.48 43.52 11.47 C 44.31 13.83 44.24 16.32 44.44 18.76 C 44.31 20.17 44.13 21.57 43.89 22.96 C 42.54 21.44 41.33 19.81 40.10 18.20 L 41.26 17.72 C 40.93 17.48 40.28 16.99 39.95 16.75 L 40.08 16.31 L 40.70 16.12 C 41.95 15.52 42.20 14.46 41.46 12.96 L 40.85 12.84 C 40.50 12.78 39.79 12.66 39.44 12.61 C 36.91 12.15 34.36 11.81 31.83 11.37 Z" />
<path fill="#dc3506" opacity="1.00" d=" M 39.24 25.69 C 41.17 25.61 43.10 25.57 45.03 25.60 C 45.21 27.23 45.38 28.87 45.54 30.50 C 41.91 30.78 38.27 30.60 34.63 30.61 C 36.12 28.93 37.64 27.27 39.24 25.69 Z" />
</g>
<g id="#a22302ff">
<path fill="#a22302" opacity="1.00" d=" M 13.64 11.54 C 18.36 12.18 23.15 11.40 27.85 11.95 C 28.22 12.29 28.95 12.96 29.31 13.30 C 29.26 13.75 29.16 14.64 29.11 15.09 L 29.25 15.87 L 30.09 15.92 L 30.97 15.96 C 31.48 15.95 32.50 15.93 33.01 15.92 L 33.69 15.95 C 35.49 16.07 37.28 15.96 39.08 15.89 L 40.08 16.31 L 39.95 16.75 C 36.30 17.11 32.65 17.12 28.99 17.01 L 29.01 17.97 C 32.70 18.28 36.41 18.07 40.10 18.20 C 41.33 19.81 42.54 21.44 43.89 22.96 C 44.13 21.57 44.31 20.17 44.44 18.76 C 44.78 21.03 45.05 23.31 45.03 25.60 C 43.10 25.57 41.17 25.61 39.24 25.69 C 33.25 26.27 26.75 24.78 21.10 27.02 C 21.62 28.27 22.29 29.45 22.93 30.64 C 19.14 30.63 15.35 30.66 11.56 30.60 C 12.73 24.31 12.86 17.88 13.64 11.54 Z" />
</g>
<g id="#898888ff">
<path fill="#898888" opacity="1.00" d=" M 29.31 13.30 C 29.74 13.22 30.58 13.06 31.00 12.98 C 30.99 13.72 30.97 15.22 30.97 15.96 L 30.09 15.92 C 29.85 15.71 29.35 15.29 29.11 15.09 C 29.16 14.64 29.26 13.75 29.31 13.30 Z" />
</g>
<g id="#3e3e3dff">
<path fill="#3e3e3d" opacity="1.00" d=" M 31.00 12.98 C 31.50 12.98 32.49 12.98 32.99 12.99 C 33.00 13.72 33.01 15.18 33.01 15.92 C 32.50 15.93 31.48 15.95 30.97 15.96 C 30.97 15.22 30.99 13.72 31.00 12.98 Z" />
</g>
<g id="#929090ff">
<path fill="#929090" opacity="1.00" d=" M 32.99 12.99 L 33.77 12.99 C 35.03 13.78 34.91 15.19 33.69 15.95 L 33.01 15.92 C 33.01 15.18 33.00 13.72 32.99 12.99 Z" />
</g>
<g id="#212020ff">
<path fill="#212020" opacity="1.00" d=" M 33.77 12.99 C 34.35 13.01 35.51 13.05 36.09 13.07 C 36.12 13.62 36.17 14.72 36.19 15.27 L 36.90 15.29 C 36.89 14.74 36.89 13.64 36.88 13.08 C 37.52 12.96 38.80 12.72 39.44 12.61 C 39.35 13.43 39.17 15.07 39.08 15.89 C 37.28 15.96 35.49 16.07 33.69 15.95 C 34.91 15.19 35.03 13.78 33.77 12.99 Z" />
</g>
<g id="#919495ff">
<path fill="#919495" opacity="1.00" d=" M 36.09 13.07 L 36.88 13.08 C 36.89 13.64 36.89 14.74 36.90 15.29 L 36.19 15.27 C 36.17 14.72 36.12 13.62 36.09 13.07 Z" />
</g>
<g id="#777979ff">
<path fill="#777979" opacity="1.00" d=" M 39.44 12.61 C 39.79 12.66 40.50 12.78 40.85 12.84 C 40.81 13.66 40.74 15.30 40.70 16.12 L 40.08 16.31 L 39.08 15.89 C 39.17 15.07 39.35 13.43 39.44 12.61 Z" />
</g>
<g id="#000000ff">
<path fill="#000000" opacity="1.00" d=" M 40.85 12.84 L 41.46 12.96 C 42.20 14.46 41.95 15.52 40.70 16.12 C 40.74 15.30 40.81 13.66 40.85 12.84 Z" />
<path fill="#000000" opacity="1.00" d=" M 13.36 52.76 C 14.46 55.15 14.49 57.79 14.63 60.37 C 23.82 60.57 33.02 60.44 42.22 60.44 C 43.10 58.97 43.58 57.33 43.88 55.65 C 44.11 58.09 42.91 60.70 45.01 62.64 C 34.26 62.99 23.47 62.69 12.70 62.79 C 14.94 59.86 13.04 56.11 13.36 52.76 Z" />
</g>
<g id="#626160f7">
<path fill="#626160" opacity="0.97" d=" M 47.02 12.29 C 47.36 12.50 48.04 12.93 48.38 13.14 C 47.53 16.58 48.12 20.15 47.89 23.64 C 47.68 25.46 48.60 27.18 48.21 29.00 L 47.72 30.02 C 46.90 30.69 46.05 31.34 45.21 31.99 C 33.67 31.96 22.13 32.10 10.59 31.91 C 10.70 31.66 10.92 31.16 11.03 30.90 C 20.65 31.37 30.36 31.04 40.02 31.16 C 42.09 31.08 44.31 31.46 46.22 30.45 C 47.56 24.50 46.14 18.29 47.02 12.29 Z" />
</g>
<g id="#07050417">
<path fill="#070504" opacity="0.09" d=" M 47.89 23.64 C 48.12 20.15 47.53 16.58 48.38 13.14 C 48.96 14.34 49.54 15.55 50.12 16.75 C 50.36 17.27 50.85 18.32 51.09 18.84 C 50.87 19.18 50.42 19.86 50.19 20.20 L 49.61 20.87 C 49.04 21.80 48.47 22.72 47.89 23.64 Z" />
</g>
<g id="#3a3a3aff">
<path fill="#3a3a3a" opacity="1.00" d=" M 29.11 15.09 C 29.35 15.29 29.85 15.71 30.09 15.92 L 29.25 15.87 L 29.11 15.09 Z" />
</g>
<g id="#7f1e02ff">
<path fill="#7f1e02" opacity="1.00" d=" M 50.12 16.75 C 50.52 16.40 51.33 15.71 51.74 15.36 C 54.45 18.52 56.75 22.61 54.82 26.81 C 54.50 27.78 54.15 28.74 53.75 29.68 C 53.28 29.76 52.34 29.93 51.86 30.02 C 51.68 29.77 51.32 29.26 51.14 29.00 L 50.56 28.19 C 51.07 27.85 52.08 27.16 52.58 26.81 C 53.58 25.87 52.91 24.53 52.81 23.40 L 52.13 23.27 C 52.54 23.14 53.36 22.90 53.77 22.77 C 54.17 21.31 53.49 19.94 52.91 18.64 C 51.99 19.13 51.08 19.65 50.19 20.20 C 50.42 19.86 50.87 19.18 51.09 18.84 C 50.85 18.32 50.36 17.27 50.12 16.75 Z" />
<path fill="#7f1e02" opacity="1.00" d=" M 40.93 51.11 C 42.68 49.48 42.97 46.87 43.78 44.72 C 43.75 47.78 43.32 50.87 43.82 53.92 C 43.84 54.35 43.87 55.22 43.88 55.65 C 43.58 57.33 43.10 58.97 42.22 60.44 C 33.02 60.44 23.82 60.57 14.63 60.37 C 14.49 57.79 14.46 55.15 13.36 52.76 L 13.36 52.16 C 13.71 50.06 14.05 47.96 14.14 45.83 C 14.60 47.33 15.09 48.84 15.82 50.24 C 17.78 51.54 20.26 50.36 22.40 50.21 C 24.61 55.00 30.90 55.11 35.25 53.61 C 35.27 51.65 35.21 49.69 35.28 47.73 C 36.73 49.37 38.34 51.91 40.93 51.11 Z" />
</g>
<g id="#c76a52ff">
<path fill="#c76a52" opacity="1.00" d=" M 28.99 17.01 C 32.65 17.12 36.30 17.11 39.95 16.75 C 40.28 16.99 40.93 17.48 41.26 17.72 L 40.10 18.20 C 36.41 18.07 32.70 18.28 29.01 17.97 L 28.99 17.01 Z" />
</g>
<g id="#af4427ff">
<path fill="#af4427" opacity="1.00" d=" M 50.19 20.20 C 51.08 19.65 51.99 19.13 52.91 18.64 C 53.49 19.94 54.17 21.31 53.77 22.77 C 53.36 22.90 52.54 23.14 52.13 23.27 C 51.43 23.13 50.05 22.85 49.36 22.71 C 49.42 22.25 49.55 21.33 49.61 20.87 L 50.19 20.20 Z" />
</g>
<g id="#370d0398">
<path fill="#370d03" opacity="0.60" d=" M 47.89 23.64 C 48.47 22.72 49.04 21.80 49.61 20.87 C 49.55 21.33 49.42 22.25 49.36 22.71 C 50.05 22.85 51.43 23.13 52.13 23.27 L 52.81 23.40 C 52.91 24.53 53.58 25.87 52.58 26.81 C 51.86 25.78 51.46 24.02 50.06 23.78 C 49.72 24.76 49.45 25.77 49.25 26.79 C 49.58 27.14 50.24 27.84 50.56 28.19 L 51.14 29.00 C 50.41 29.00 48.94 29.00 48.21 29.00 C 48.60 27.18 47.68 25.46 47.89 23.64 Z" />
</g>
<g id="#c82f05ff">
<path fill="#c82f05" opacity="1.00" d=" M 21.10 27.02 C 26.75 24.78 33.25 26.27 39.24 25.69 C 37.64 27.27 36.12 28.93 34.63 30.61 C 30.73 30.64 26.83 30.63 22.93 30.64 C 22.29 29.45 21.62 28.27 21.10 27.02 Z" />
</g>
<g id="#272727ff">
<path fill="#272727" opacity="1.00" d=" M 53.75 29.68 C 54.15 28.74 54.50 27.78 54.82 26.81 C 54.78 30.05 52.29 32.33 51.06 35.14 C 51.53 36.09 52.21 36.91 53.09 37.59 C 52.75 38.23 52.08 39.51 51.75 40.16 C 51.28 39.55 50.33 38.33 49.85 37.72 C 48.43 40.85 47.58 44.33 48.15 47.76 C 47.51 48.87 46.87 49.99 46.24 51.11 C 44.93 46.05 45.87 40.80 47.95 36.10 C 47.69 34.82 46.40 34.16 45.61 33.23 C 45.51 32.92 45.31 32.30 45.21 31.99 C 46.05 31.34 46.90 30.69 47.72 30.02 C 47.62 30.48 47.40 31.40 47.29 31.87 C 47.85 32.23 48.97 32.96 49.53 33.33 C 50.28 32.21 51.02 31.08 51.86 30.02 C 52.34 29.93 53.28 29.76 53.75 29.68 Z" />
</g>
<g id="#660b00ff">
<path fill="#660b00" opacity="1.00" d=" M 10.59 31.91 C 22.13 32.10 33.67 31.96 45.21 31.99 C 45.31 32.30 45.51 32.92 45.61 33.23 C 45.30 40.06 44.43 46.84 44.33 53.68 L 43.82 53.92 C 43.32 50.87 43.75 47.78 43.78 44.72 C 44.03 42.33 45.18 38.53 41.98 37.66 C 38.81 37.36 35.49 37.24 32.51 38.54 C 30.82 38.28 29.12 38.30 27.43 38.54 C 23.49 37.03 19.18 37.43 15.06 37.70 C 12.54 39.45 13.98 43.25 14.14 45.83 C 14.05 47.96 13.71 50.06 13.36 52.16 C 12.78 45.60 12.21 39.03 12.10 32.45 L 10.59 31.91 Z" />
</g>
<g id="#a92a04ff">
<path fill="#a92a04" opacity="1.00" d=" M 14.14 45.83 C 13.98 43.25 12.54 39.45 15.06 37.70 C 19.18 37.43 23.49 37.03 27.43 38.54 C 22.29 39.66 20.54 45.75 22.40 50.21 C 20.26 50.36 17.78 51.54 15.82 50.24 C 15.09 48.84 14.60 47.33 14.14 45.83 Z" />
</g>
<g id="#ffffffff">
<path fill="#ffffff" opacity="1.00" d=" M 27.43 38.54 C 29.12 38.30 30.82 38.28 32.51 38.54 C 33.96 38.96 35.98 39.57 35.31 41.63 C 32.83 40.75 29.79 39.50 27.38 41.28 C 22.93 44.70 25.59 54.07 31.94 52.31 C 31.95 50.63 31.86 48.95 31.90 47.27 C 32.61 47.25 34.03 47.20 34.75 47.17 C 34.88 47.31 35.15 47.59 35.28 47.73 C 35.21 49.69 35.27 51.65 35.25 53.61 C 30.90 55.11 24.61 55.00 22.40 50.21 C 20.54 45.75 22.29 39.66 27.43 38.54 Z" />
</g>
<g id="#a92a05ff">
<path fill="#a92a05" opacity="1.00" d=" M 32.51 38.54 C 35.49 37.24 38.81 37.36 41.98 37.66 C 45.18 38.53 44.03 42.33 43.78 44.72 C 42.97 46.87 42.68 49.48 40.93 51.11 C 38.34 51.91 36.73 49.37 35.28 47.73 C 35.15 47.59 34.88 47.31 34.75 47.17 C 34.03 47.20 32.61 47.25 31.90 47.27 C 31.86 48.95 31.95 50.63 31.94 52.31 C 25.59 54.07 22.93 44.70 27.38 41.28 C 29.79 39.50 32.83 40.75 35.31 41.63 C 35.98 39.57 33.96 38.96 32.51 38.54 Z" />
</g>
<g id="#2c2b2beb">
<path fill="#2c2b2b" opacity="0.92" d=" M 51.75 40.16 C 52.08 39.51 52.75 38.23 53.09 37.59 C 54.79 39.53 56.39 41.60 57.53 43.94 C 57.60 45.20 57.67 46.60 56.46 47.38 C 55.18 44.79 53.48 42.46 51.75 40.16 Z" />
</g>
<g id="#222222ff">
<path fill="#222222" opacity="1.00" d=" M 57.53 43.94 C 59.53 47.90 60.77 52.74 59.14 57.05 C 57.84 60.08 53.73 60.54 51.19 58.91 C 48.55 57.15 46.74 54.23 46.24 51.11 C 46.87 49.99 47.51 48.87 48.15 47.76 C 48.37 50.82 49.20 54.23 51.81 56.15 C 53.21 57.15 55.66 57.31 56.60 55.61 C 58.38 53.20 57.49 49.93 56.46 47.38 C 57.67 46.60 57.60 45.20 57.53 43.94 Z" />
</g>
</svg>
