<?xml version="1.0" encoding="UTF-8" ?>
<!DOCTYPE svg PUBLIC "-//W3C//DTD SVG 1.1//EN" "http://www.w3.org/Graphics/SVG/1.1/DTD/svg11.dtd">
<svg width="64pt" height="64pt" viewBox="0 0 64 64" version="1.1" xmlns="http://www.w3.org/2000/svg">
<g id="#dcaeacfe">
<path fill="#dcaeac" opacity="1.00" d=" M 3.01 1.83 C 6.53 0.62 10.62 0.80 13.79 2.88 C 13.73 3.13 13.62 3.62 13.56 3.87 C 14.78 4.79 15.79 5.96 16.73 7.16 L 16.51 7.85 C 17.76 9.98 19.21 15.57 14.24 14.01 L 17.49 14.56 L 16.03 16.26 C 17.60 16.37 19.16 16.48 20.72 16.60 L 20.42 17.05 C 22.38 17.88 23.80 19.49 25.06 21.14 C 27.04 21.93 29.03 22.70 31.00 23.53 C 33.67 22.07 36.49 20.90 38.97 19.11 C 39.69 18.26 40.55 17.57 41.55 17.07 L 41.36 16.58 C 43.12 16.48 44.90 16.41 46.67 16.32 C 46.36 12.94 46.30 9.54 47.36 6.27 L 48.53 6.70 C 48.50 6.30 48.44 5.48 48.42 5.07 C 48.79 4.74 49.52 4.08 49.89 3.76 C 50.11 3.53 50.54 3.09 50.75 2.86 C 51.10 2.52 51.80 1.84 52.14 1.49 C 52.34 1.48 52.72 1.46 52.91 1.45 C 54.77 0.21 57.26 0.16 59.09 1.48 C 59.39 1.45 59.97 1.39 60.26 1.36 L 60.43 2.59 L 61.67 2.44 L 61.48 3.74 L 62.94 3.61 C 62.76 4.07 62.40 4.99 62.22 5.45 L 63.40 5.40 C 63.39 6.17 63.38 7.70 63.37 8.47 L 62.88 8.41 C 62.57 9.58 62.22 10.73 61.82 11.86 C 61.33 12.69 60.81 13.51 60.26 14.30 C 59.96 14.50 59.36 14.90 59.06 15.10 C 58.76 15.49 58.17 16.27 57.88 16.66 C 57.56 16.57 56.93 16.37 56.61 16.28 L 56.42 17.49 C 53.04 17.07 49.68 17.72 46.30 17.60 L 48.27 19.35 C 47.57 18.89 46.18 17.95 45.48 17.49 L 45.56 19.23 C 45.07 19.39 44.07 19.72 43.58 19.89 C 43.56 20.31 43.52 21.17 43.50 21.59 C 43.12 21.59 42.37 21.58 42.00 21.58 C 40.90 24.62 38.47 26.86 36.21 29.05 C 41.90 38.88 48.39 48.29 53.25 58.58 C 53.12 59.13 52.85 60.22 52.71 60.77 C 51.66 60.51 50.95 59.53 50.29 58.73 C 44.97 51.70 39.30 44.94 33.93 37.96 C 33.09 36.10 31.08 36.22 29.39 36.45 C 29.47 36.84 29.63 37.61 29.72 37.99 C 28.54 39.31 27.41 40.66 26.33 42.05 C 23.74 45.47 20.98 48.74 18.33 52.10 C 17.36 53.40 16.30 54.64 15.34 55.95 C 14.17 57.26 13.08 58.65 12.08 60.09 C 11.47 61.37 10.33 61.59 9.05 61.32 L 10.24 60.74 C 10.17 57.29 11.61 54.13 13.38 51.26 C 17.63 43.73 22.09 36.33 26.72 29.04 C 25.57 27.56 24.05 26.16 24.19 24.10 L 22.99 25.99 L 23.70 23.59 L 21.41 23.31 L 24.75 21.42 L 21.14 22.72 L 21.76 20.06 L 20.13 22.07 C 20.26 21.44 20.51 20.19 20.63 19.56 C 20.09 19.57 19.00 19.60 18.45 19.61 L 18.13 16.51 C 17.86 17.31 17.32 18.92 17.05 19.72 L 16.47 17.56 C 13.28 17.33 9.64 18.43 6.84 16.43 C 6.55 16.55 5.98 16.78 5.69 16.90 L 5.80 15.50 L 4.52 15.58 L 4.53 14.38 L 3.16 14.32 C 3.24 14.00 3.40 13.37 3.48 13.05 C 1.18 12.55 1.56 10.05 1.19 8.32 L 0.66 8.52 C 0.63 7.71 0.56 6.09 0.53 5.28 L 1.71 5.56 C 1.56 5.07 1.25 4.09 1.09 3.60 L 2.27 3.65 C 2.45 3.19 2.82 2.28 3.01 1.83 M 5.35 3.52 L 5.54 4.71 L 4.22 4.34 L 4.85 5.59 L 3.61 5.23 C 3.61 7.07 3.61 8.91 3.61 10.75 L 4.97 10.55 C 4.85 10.89 4.62 11.56 4.50 11.90 C 5.56 12.50 6.40 13.31 7.01 14.35 C 9.12 14.70 11.26 14.70 13.39 14.51 C 14.58 12.22 14.61 9.67 14.43 7.16 L 13.35 7.89 L 13.65 6.49 L 12.30 6.24 C 12.35 5.78 12.46 4.87 12.51 4.41 C 12.02 4.52 11.02 4.76 10.53 4.88 L 10.66 3.59 C 8.89 3.56 7.12 3.53 5.35 3.52 M 53.34 3.54 L 53.67 4.23 C 52.72 4.74 51.78 5.25 50.83 5.76 C 48.91 8.05 49.31 11.01 49.58 13.77 L 50.80 13.20 L 50.40 14.63 C 52.78 14.94 55.39 15.19 57.28 13.40 C 57.46 13.43 57.83 13.50 58.01 13.54 C 58.39 12.89 59.15 11.60 59.53 10.96 C 59.49 10.63 59.42 9.98 59.38 9.65 L 60.64 9.56 C 60.27 7.82 59.83 6.09 59.41 4.36 L 58.30 4.81 L 58.71 3.57 C 56.92 3.56 55.13 3.53 53.34 3.54 Z" />
</g>
</svg>
