<?xml version="1.0" encoding="UTF-8" ?>
<!DOCTYPE svg PUBLIC "-//W3C//DTD SVG 1.1//EN" "http://www.w3.org/Graphics/SVG/1.1/DTD/svg11.dtd">
<svg width="64pt" height="64pt" viewBox="0 0 64 64" version="1.1" xmlns="http://www.w3.org/2000/svg">
<g id="#007014e3">
<path fill="#007014" opacity="0.89" d=" M 5.19 8.75 C 7.29 5.04 11.70 3.03 15.87 3.14 C 26.61 3.15 37.35 3.15 48.08 3.14 C 52.29 3.01 56.74 5.05 58.85 8.80 C 55.50 6.83 52.16 4.10 48.04 4.37 C 37.35 4.35 26.66 4.35 15.97 4.37 C 11.87 4.10 8.54 6.80 5.19 8.75 Z" />
</g>
<g id="#07ab21ff">
<path fill="#07ab21" opacity="1.00" d=" M 5.19 8.75 C 8.54 6.80 11.87 4.10 15.97 4.37 C 26.66 4.35 37.35 4.35 48.04 4.37 C 52.16 4.10 55.50 6.83 58.85 8.80 C 61.05 11.91 60.79 15.88 60.70 19.49 C 60.00 17.47 59.30 15.38 58.02 13.63 L 57.05 12.73 C 55.52 9.16 52.16 6.23 48.13 6.24 C 37.38 6.11 26.63 6.11 15.89 6.24 C 11.65 6.24 8.06 9.44 6.80 13.36 L 5.86 13.58 C 4.79 15.46 3.96 17.46 3.30 19.52 C 3.20 15.88 2.94 11.86 5.19 8.75 Z" />
</g>
<g id="#ffffffff">
<path fill="#ffffff" opacity="1.00" d=" M 6.80 13.36 C 8.06 9.44 11.65 6.24 15.89 6.24 C 26.63 6.11 37.38 6.11 48.13 6.24 C 52.16 6.23 55.52 9.16 57.05 12.73 L 57.09 14.34 C 56.92 14.01 56.56 13.34 56.39 13.01 C 54.65 9.53 50.80 7.53 46.98 7.62 C 36.97 7.58 26.97 7.57 16.97 7.62 C 13.00 7.54 8.95 9.72 7.47 13.52 C 7.30 13.48 6.97 13.40 6.80 13.36 Z" />
<path fill="#ffffff" opacity="1.00" d=" M 43.29 13.71 C 45.71 14.42 48.30 13.09 50.60 14.26 C 48.68 17.38 46.73 20.50 44.89 23.67 C 43.27 26.43 41.57 29.14 39.96 31.90 C 37.94 35.29 35.90 38.66 33.88 42.04 C 31.79 45.51 29.74 49.00 27.62 52.44 C 25.07 48.66 22.56 44.86 20.02 41.07 C 17.41 37.04 14.55 33.17 12.14 29.01 C 14.68 29.17 17.22 29.19 19.77 29.13 C 20.48 30.15 21.19 31.16 21.89 32.19 C 23.71 35.13 25.69 37.96 27.60 40.85 C 32.94 31.87 37.78 22.56 43.29 13.71 Z" />
</g>
<g id="#4eda63ff">
<path fill="#4eda63" opacity="1.00" d=" M 7.47 13.52 C 8.95 9.72 13.00 7.54 16.97 7.62 C 26.97 7.57 36.97 7.58 46.98 7.62 C 50.80 7.53 54.65 9.53 56.39 13.01 C 55.29 13.79 54.20 14.58 53.11 15.36 C 52.49 15.09 51.23 14.54 50.60 14.26 C 48.30 13.09 45.71 14.42 43.29 13.71 C 45.82 11.60 49.47 15.10 51.89 12.05 C 48.76 12.01 45.28 10.98 42.37 12.52 C 40.02 13.68 37.83 15.57 35.07 15.48 C 27.72 15.49 20.36 15.49 13.00 15.49 C 10.93 15.66 9.24 14.36 7.47 13.52 Z" />
</g>
<g id="#39d244ff">
<path fill="#39d244" opacity="1.00" d=" M 35.07 15.48 C 37.83 15.57 40.02 13.68 42.37 12.52 C 39.64 16.80 36.77 20.98 34.10 25.30 C 27.40 25.55 20.69 25.36 13.99 25.40 C 11.80 25.35 9.70 26.03 7.66 26.74 C 7.22 26.07 6.80 25.39 6.40 24.69 C 6.35 20.98 6.03 17.29 5.86 13.58 L 6.80 13.36 C 6.97 13.40 7.30 13.48 7.47 13.52 C 9.24 14.36 10.93 15.66 13.00 15.49 C 20.36 15.49 27.72 15.49 35.07 15.48 Z" />
</g>
<g id="#00b900ff">
<path fill="#00b900" opacity="1.00" d=" M 42.37 12.52 C 45.28 10.98 48.76 12.01 51.89 12.05 C 49.47 15.10 45.82 11.60 43.29 13.71 C 37.78 22.56 32.94 31.87 27.60 40.85 C 25.69 37.96 23.71 35.13 21.89 32.19 C 21.18 30.99 20.42 29.83 19.66 28.67 C 17.15 28.65 14.62 28.59 12.14 29.01 C 14.55 33.17 17.41 37.04 20.02 41.07 C 16.39 41.15 12.72 41.52 9.12 40.87 C 7.96 40.72 7.28 40.05 7.10 38.87 C 5.54 34.31 5.68 29.40 6.40 24.69 C 6.80 25.39 7.22 26.07 7.66 26.74 C 8.32 27.47 8.99 28.19 9.66 28.91 C 12.69 26.93 16.39 26.58 19.89 27.23 C 22.60 28.18 23.51 31.66 26.13 32.61 C 30.77 33.92 31.97 28.12 34.10 25.30 C 36.77 20.98 39.64 16.80 42.37 12.52 Z" />
<path fill="#00b900" opacity="1.00" d=" M 57.37 24.87 C 57.44 24.59 57.59 24.03 57.67 23.75 C 58.69 29.68 58.08 35.77 56.42 41.53 C 48.99 42.86 41.38 41.81 33.88 42.04 C 35.90 38.66 37.94 35.29 39.96 31.90 C 43.99 31.73 48.11 31.50 51.90 29.98 C 54.35 29.14 56.77 27.58 57.37 24.87 Z" />
</g>
<g id="#00ab00ff">
<path fill="#00ab00" opacity="1.00" d=" M 3.30 19.52 C 3.96 17.46 4.79 15.46 5.86 13.58 C 6.03 17.29 6.35 20.98 6.40 24.69 C 5.68 29.40 5.54 34.31 7.10 38.87 C 7.28 40.05 7.96 40.72 9.12 40.87 C 12.72 41.52 16.39 41.15 20.02 41.07 C 22.56 44.86 25.07 48.66 27.62 52.44 C 29.74 49.00 31.79 45.51 33.88 42.04 C 41.38 41.81 48.99 42.86 56.42 41.53 C 58.08 35.77 58.69 29.68 57.67 23.75 C 57.60 20.37 58.04 17.01 58.02 13.63 C 59.30 15.38 60.00 17.47 60.70 19.49 C 60.77 29.31 60.70 39.14 60.69 48.96 C 60.89 55.22 55.16 60.94 48.91 60.71 C 37.60 60.73 26.29 60.74 14.98 60.70 C 8.80 60.88 3.14 55.22 3.31 49.03 C 3.30 39.19 3.22 29.35 3.30 19.52 Z" />
</g>
<g id="#3cd348ff">
<path fill="#3cd348" opacity="1.00" d=" M 53.11 15.36 C 54.20 14.58 55.29 13.79 56.39 13.01 C 56.56 13.34 56.92 14.01 57.09 14.34 L 57.05 12.73 L 58.02 13.63 C 58.04 17.01 57.60 20.37 57.67 23.75 C 57.59 24.03 57.44 24.59 57.37 24.87 C 53.38 23.35 49.08 23.39 44.89 23.67 C 46.73 20.50 48.68 17.38 50.60 14.26 C 51.23 14.54 52.49 15.09 53.11 15.36 Z" />
</g>
<g id="#26ca26ff">
<path fill="#26ca26" opacity="1.00" d=" M 44.89 23.67 C 49.08 23.39 53.38 23.35 57.37 24.87 C 56.77 27.58 54.35 29.14 51.90 29.98 C 48.11 31.50 43.99 31.73 39.96 31.90 C 41.57 29.14 43.27 26.43 44.89 23.67 Z" />
</g>
<g id="#23c923ff">
<path fill="#23c923" opacity="1.00" d=" M 13.99 25.40 C 20.69 25.36 27.40 25.55 34.10 25.30 C 31.97 28.12 30.77 33.92 26.13 32.61 C 23.51 31.66 22.60 28.18 19.89 27.23 C 16.39 26.58 12.69 26.93 9.66 28.91 C 8.99 28.19 8.32 27.47 7.66 26.74 C 9.70 26.03 11.80 25.35 13.99 25.40 Z" />
</g>
</svg>
