<?xml version="1.0" encoding="UTF-8" ?>
<!DOCTYPE svg PUBLIC "-//W3C//DTD SVG 1.1//EN" "http://www.w3.org/Graphics/SVG/1.1/DTD/svg11.dtd">
<svg width="64pt" height="64pt" viewBox="0 0 64 64" version="1.1" xmlns="http://www.w3.org/2000/svg">
<g id="#f7f8f9ff">
<path fill="#f7f8f9" opacity="1.00" d=" M 54.38 1.51 C 55.23 1.48 56.94 1.41 57.80 1.37 L 57.31 0.51 C 59.08 0.53 60.86 0.56 62.63 0.61 C 62.54 1.15 62.37 2.22 62.28 2.76 L 63.48 2.14 C 63.47 3.07 63.45 4.94 63.44 5.87 L 62.51 5.07 C 62.49 6.60 62.47 8.13 62.45 9.65 L 61.19 9.19 C 61.30 9.76 61.51 10.91 61.62 11.48 C 61.04 11.47 59.87 11.44 59.29 11.43 C 59.38 11.97 59.57 13.05 59.66 13.58 C 59.08 13.53 57.92 13.42 57.35 13.37 C 57.41 13.91 57.54 15.01 57.60 15.55 C 57.01 15.52 55.82 15.44 55.23 15.41 C 55.36 15.91 55.61 16.91 55.73 17.41 L 54.24 17.29 L 54.37 18.87 C 54.00 18.70 53.27 18.37 52.91 18.21 C 52.64 19.62 51.82 20.52 50.47 20.92 C 50.40 23.17 50.39 25.41 50.34 27.66 C 51.38 27.25 52.38 25.76 53.60 26.40 C 54.68 28.81 51.93 30.27 50.40 31.54 C 50.41 34.33 50.43 37.11 50.38 39.90 C 51.47 39.63 52.56 39.38 53.65 39.12 C 53.59 39.77 53.46 41.08 53.39 41.74 L 52.13 41.17 L 52.47 42.94 C 51.98 42.72 50.99 42.27 50.50 42.05 C 50.42 45.04 50.37 48.04 50.45 51.03 L 49.53 49.96 C 49.38 54.43 50.14 59.07 48.78 63.41 C 48.47 60.92 48.46 58.40 48.46 55.89 L 47.48 56.97 C 47.49 54.65 47.46 52.32 47.48 50.00 L 46.51 50.88 C 46.51 48.94 46.48 47.00 46.51 45.05 L 45.71 45.66 C 45.60 43.13 45.45 40.60 45.43 38.07 L 44.60 38.61 C 44.54 37.46 44.43 35.16 44.38 34.01 L 42.89 34.73 C 43.38 33.51 44.37 31.07 44.87 29.85 L 42.71 32.61 L 42.04 24.20 L 41.47 30.95 C 40.95 31.17 39.90 31.61 39.38 31.83 L 40.15 33.25 L 37.86 31.09 L 39.30 34.22 L 35.92 31.15 L 38.63 35.36 L 34.47 31.88 L 37.78 36.28 L 33.46 33.10 L 36.45 36.58 L 34.31 36.18 L 34.63 37.82 C 34.07 37.68 32.93 37.40 32.37 37.26 C 32.45 37.86 32.61 39.05 32.69 39.64 C 32.08 39.58 30.84 39.47 30.23 39.41 C 30.38 39.96 30.70 41.06 30.85 41.61 L 29.26 41.12 L 29.69 42.70 L 28.08 42.28 L 28.60 43.93 C 28.07 43.73 27.02 43.33 26.49 43.13 C 26.49 43.75 26.48 44.99 26.48 45.61 C 25.94 45.54 24.85 45.40 24.31 45.33 C 24.37 45.83 24.50 46.82 24.56 47.32 C 23.70 47.39 21.98 47.54 21.12 47.61 C 21.32 48.06 21.71 48.95 21.90 49.40 L 20.37 49.23 L 20.23 50.66 C 19.79 50.53 18.91 50.28 18.46 50.16 C 18.46 51.41 18.44 52.66 18.42 53.92 C 18.90 53.74 19.84 53.39 20.31 53.21 C 20.54 56.03 20.58 58.86 20.63 61.68 C 19.55 61.56 18.47 61.44 17.38 61.33 C 17.46 60.82 17.62 59.79 17.71 59.27 L 15.94 59.54 C 16.16 59.13 16.59 58.30 16.80 57.89 C 16.27 57.69 15.22 57.28 14.69 57.07 C 14.47 52.73 14.59 48.35 13.88 44.04 L 13.52 52.75 C 12.60 52.59 10.75 52.28 9.83 52.12 C 10.93 51.65 12.02 51.15 13.11 50.65 C 11.87 50.60 9.40 50.50 8.16 50.46 C 8.31 49.99 8.61 49.05 8.76 48.58 C 7.86 48.56 6.06 48.50 5.16 48.47 C 5.32 47.98 5.63 46.99 5.79 46.49 C 4.98 46.51 3.35 46.56 2.54 46.58 C 2.50 45.77 2.43 44.17 2.39 43.37 C 4.84 43.41 7.29 43.46 9.74 43.53 C 9.59 43.76 9.30 44.23 9.15 44.46 C 10.96 44.45 12.77 44.45 14.58 44.46 C 14.48 44.02 14.28 43.13 14.18 42.68 L 15.26 42.77 C 15.42 42.32 15.74 41.42 15.90 40.97 C 16.70 40.21 17.55 39.50 18.43 38.83 C 18.39 38.55 18.31 38.00 18.27 37.73 L 19.60 37.60 L 19.42 36.34 L 20.13 36.65 C 20.51 36.26 21.27 35.49 21.65 35.10 L 21.25 34.27 L 22.66 34.67 L 22.26 33.26 L 23.08 33.64 C 23.47 33.24 24.25 32.45 24.64 32.05 L 24.25 31.87 C 24.63 31.48 25.38 30.70 25.76 30.30 L 26.71 30.72 L 26.30 29.78 C 26.67 29.41 27.42 28.66 27.79 28.28 L 28.68 28.69 L 28.22 27.17 L 29.02 27.47 C 29.66 26.62 30.31 25.77 30.96 24.93 C 32.38 23.64 33.52 21.91 35.58 21.53 C 34.48 21.53 32.28 21.54 31.18 21.54 L 31.93 20.44 C 31.09 20.46 29.39 20.51 28.54 20.53 L 28.01 15.08 L 27.40 20.36 L 26.44 20.05 L 26.81 18.53 C 24.55 18.53 22.30 18.50 20.04 18.51 L 21.00 17.51 C 18.66 17.53 16.32 17.51 13.97 17.54 L 15.06 16.50 C 12.59 16.53 10.11 16.51 7.64 16.54 L 9.29 15.42 C 6.93 15.51 4.57 15.59 2.21 15.66 L 6.23 14.53 C 4.95 14.44 2.40 14.26 1.12 14.18 C 7.66 13.10 14.32 13.93 20.92 13.58 L 20.19 12.41 C 21.69 12.43 23.19 12.45 24.69 12.45 L 23.28 13.64 C 26.39 13.61 29.51 13.69 32.62 13.51 C 33.37 12.51 34.28 11.67 35.34 10.99 C 35.51 10.45 35.86 9.37 36.03 8.82 C 36.17 9.57 36.45 11.05 36.59 11.80 C 37.11 11.78 38.15 11.76 38.68 11.75 C 37.12 12.13 34.01 12.90 32.46 13.28 C 35.70 13.56 38.95 13.64 42.20 13.64 C 43.43 12.39 44.68 11.15 45.91 9.89 C 46.35 9.46 47.24 8.62 47.69 8.20 L 47.48 7.45 L 48.20 7.65 C 48.57 7.28 49.30 6.55 49.66 6.18 L 49.44 5.45 L 50.71 5.66 L 50.48 4.95 C 50.85 4.58 51.58 3.85 51.95 3.48 L 52.67 3.64 L 52.71 2.30 C 53.17 2.41 54.10 2.63 54.56 2.74 L 54.38 1.51 Z" />
</g>
</svg>
