<?xml version="1.0" encoding="UTF-8" ?>
<!DOCTYPE svg PUBLIC "-//W3C//DTD SVG 1.1//EN" "http://www.w3.org/Graphics/SVG/1.1/DTD/svg11.dtd">
<svg width="64pt" height="64pt" viewBox="0 0 64 64" version="1.1" xmlns="http://www.w3.org/2000/svg">
<g id="#ebd2b0ff">
<path fill="#ebd2b0" opacity="1.00" d=" M 24.88 6.30 C 25.94 3.32 29.81 4.13 31.79 5.66 C 31.79 5.93 31.80 6.46 31.81 6.72 C 32.71 9.24 33.40 11.83 33.86 14.46 C 34.25 16.00 34.56 17.55 34.89 19.11 C 35.38 21.20 35.70 23.34 35.96 25.47 C 36.29 25.56 36.96 25.74 37.29 25.83 C 37.57 24.58 37.87 23.34 38.18 22.10 C 39.09 16.89 40.18 11.70 41.61 6.61 C 43.62 4.91 46.39 5.14 48.35 6.79 C 48.86 12.63 46.67 18.19 45.93 23.91 C 45.57 25.61 45.20 27.32 44.67 28.98 C 44.56 31.06 43.34 33.86 45.67 35.24 L 45.10 36.72 L 46.84 34.89 L 46.35 36.56 L 47.52 36.56 C 49.10 39.83 48.75 43.47 48.18 46.93 C 47.60 47.98 47.02 49.03 46.44 50.08 C 46.53 50.40 46.72 51.04 46.81 51.37 L 45.37 51.49 C 45.44 51.96 45.57 52.89 45.63 53.36 L 44.24 53.52 L 44.33 55.28 C 44.03 55.03 43.43 54.52 43.13 54.26 C 42.59 55.59 41.65 56.50 40.30 56.98 L 40.26 58.38 C 39.75 57.81 38.74 56.68 38.24 56.12 L 38.85 58.37 C 33.94 58.83 29.00 58.80 24.10 58.28 L 28.31 56.79 C 26.89 56.97 24.05 57.33 22.63 57.51 L 21.82 53.87 C 21.74 54.75 21.58 56.51 21.50 57.40 C 21.02 56.71 20.05 55.34 19.57 54.66 C 19.51 54.54 19.39 54.30 19.34 54.18 C 18.43 53.21 17.54 52.24 16.73 51.19 C 15.87 49.02 15.27 46.76 15.24 44.41 L 14.71 44.40 C 14.52 38.16 14.70 31.91 14.60 25.66 C 16.73 24.55 20.07 23.22 21.70 25.85 L 22.11 33.47 C 22.23 31.08 22.46 26.29 22.57 23.89 C 23.98 22.79 25.75 22.47 27.47 22.18 C 27.42 21.47 27.33 20.04 27.28 19.33 L 26.73 19.65 C 26.62 18.40 26.46 17.16 26.23 15.93 C 25.77 14.14 25.38 12.34 25.12 10.51 L 24.63 10.51 C 24.62 9.49 24.60 7.47 24.59 6.46 L 24.88 6.30 Z" />
</g>
</svg>
