<?xml version="1.0" encoding="UTF-8" ?>
<!DOCTYPE svg PUBLIC "-//W3C//DTD SVG 1.1//EN" "http://www.w3.org/Graphics/SVG/1.1/DTD/svg11.dtd">
<svg width="64pt" height="64pt" viewBox="0 0 64 64" version="1.1" xmlns="http://www.w3.org/2000/svg">
<g id="#691c14ee">
<path fill="#691c14" opacity="0.93" d=" M 12.86 4.82 C 15.48 2.78 18.98 3.33 20.44 6.41 C 20.60 6.58 20.93 6.93 21.10 7.11 C 20.79 7.42 20.18 8.05 19.88 8.37 C 18.06 6.28 15.98 3.83 12.86 4.82 Z" />
</g>
<g id="#b03d32ff">
<path fill="#b03d32" opacity="1.00" d=" M 11.29 5.01 L 12.86 4.82 C 15.98 3.83 18.06 6.28 19.88 8.37 L 19.08 9.15 C 18.27 9.92 17.45 10.68 16.63 11.44 C 16.01 9.76 15.32 8.10 14.74 6.40 C 14.12 6.28 12.89 6.05 12.28 5.94 L 11.29 5.01 Z" />
</g>
<g id="#ee5648ff">
<path fill="#ee5648" opacity="1.00" d=" M 3.98 14.60 C 5.16 10.82 8.64 7.37 12.28 5.94 C 12.89 6.05 14.12 6.28 14.74 6.40 C 15.32 8.10 16.01 9.76 16.63 11.44 C 14.64 13.33 12.71 15.29 10.81 17.26 C 10.49 17.59 9.85 18.25 9.53 18.57 C 7.57 17.43 5.21 16.64 3.98 14.60 M 8.18 12.94 C 10.48 12.78 12.57 11.05 12.39 8.57 C 10.05 8.73 8.61 10.84 8.18 12.94 Z" />
</g>
<g id="#424041e1">
<path fill="#424041" opacity="0.88" d=" M 20.44 6.41 C 21.03 6.39 22.22 6.37 22.82 6.35 C 25.20 8.07 26.84 10.57 29.15 12.36 L 29.25 13.34 C 28.85 13.26 28.05 13.10 27.66 13.03 C 26.53 14.24 25.35 15.40 24.33 16.71 C 24.34 15.30 24.38 13.89 24.45 12.48 C 24.69 12.08 25.18 11.27 25.42 10.87 L 25.97 10.58 C 24.33 9.45 22.66 8.35 21.10 7.11 C 20.93 6.93 20.60 6.58 20.44 6.41 Z" />
</g>
<g id="#797b7cff">
<path fill="#797b7c" opacity="1.00" d=" M 21.10 7.11 C 22.66 8.35 24.33 9.45 25.97 10.58 L 25.42 10.87 C 23.89 11.65 22.33 12.39 20.80 13.18 L 20.06 11.88 C 20.60 11.62 21.66 11.10 22.19 10.84 C 20.87 10.72 19.83 10.16 19.08 9.15 L 19.88 8.37 C 20.18 8.05 20.79 7.42 21.10 7.11 Z" />
</g>
<g id="#ff7f73ff">
<path fill="#ff7f73" opacity="1.00" d=" M 8.18 12.94 C 8.61 10.84 10.05 8.73 12.39 8.57 C 12.57 11.05 10.48 12.78 8.18 12.94 Z" />
</g>
<g id="#e3e4e5ff">
<path fill="#e3e4e5" opacity="1.00" d=" M 16.63 11.44 C 17.45 10.68 18.27 9.92 19.08 9.15 C 19.83 10.16 20.87 10.72 22.19 10.84 C 21.66 11.10 20.60 11.62 20.06 11.88 L 20.80 13.18 C 22.33 12.39 23.89 11.65 25.42 10.87 C 25.18 11.27 24.69 12.08 24.45 12.48 C 24.38 13.89 24.34 15.30 24.33 16.71 C 25.35 15.40 26.53 14.24 27.66 13.03 C 27.63 14.68 26.46 15.90 25.53 17.12 C 27.07 17.20 27.90 18.28 28.43 19.60 C 25.92 22.47 23.22 25.16 20.44 27.77 C 19.88 27.58 18.75 27.20 18.19 27.01 C 17.42 27.67 16.65 28.31 15.86 28.94 C 16.61 27.68 17.35 26.42 18.08 25.16 C 17.45 25.28 16.17 25.54 15.53 25.67 C 15.67 24.28 15.39 22.91 15.02 21.58 C 14.57 21.60 13.66 21.65 13.21 21.68 C 12.11 20.65 11.21 19.43 10.18 18.34 L 10.81 17.26 C 12.71 15.29 14.64 13.33 16.63 11.44 M 16.78 18.82 C 18.20 18.87 18.88 18.19 18.81 16.78 C 17.41 16.74 16.74 17.42 16.78 18.82 M 23.03 20.79 C 22.23 22.65 20.97 24.19 19.25 25.40 L 19.16 22.41 C 18.82 23.44 18.08 24.48 18.25 25.60 C 19.35 25.63 20.33 24.86 21.37 24.52 C 21.96 23.21 22.96 22.17 23.87 21.08 C 23.66 21.01 23.24 20.87 23.03 20.79 Z" />
</g>
<g id="#646566ff">
<path fill="#646566" opacity="1.00" d=" M 27.66 13.03 C 28.05 13.10 28.85 13.26 29.25 13.34 C 29.51 13.39 30.04 13.49 30.31 13.54 C 30.98 14.51 31.69 15.45 32.42 16.39 C 30.96 17.32 29.64 18.44 28.53 19.77 L 28.43 19.60 C 27.90 18.28 27.07 17.20 25.53 17.12 C 26.46 15.90 27.63 14.68 27.66 13.03 M 28.24 16.15 C 28.93 16.71 28.93 16.71 28.24 16.15 Z" />
<path fill="#646566" opacity="1.00" d=" M 9.53 18.57 C 9.85 18.25 10.49 17.59 10.81 17.26 L 10.18 18.34 C 11.21 19.43 12.11 20.65 13.21 21.68 C 13.66 21.65 14.57 21.60 15.02 21.58 C 15.39 22.91 15.67 24.28 15.53 25.67 C 16.17 25.54 17.45 25.28 18.08 25.16 C 17.35 26.42 16.61 27.68 15.86 28.94 C 16.65 28.31 17.42 27.67 18.19 27.01 C 18.75 27.20 19.88 27.58 20.44 27.77 L 20.07 28.13 C 18.92 29.28 17.77 30.43 16.63 31.59 C 14.89 30.36 13.25 28.97 11.91 27.30 C 10.23 25.31 7.34 24.06 7.02 21.20 L 7.46 20.73 C 8.15 20.01 8.83 19.29 9.53 18.57 Z" />
<path fill="#646566" opacity="1.00" d=" M 16.78 18.82 C 16.74 17.42 17.41 16.74 18.81 16.78 C 18.88 18.19 18.20 18.87 16.78 18.82 Z" />
<path fill="#646566" opacity="1.00" d=" M 23.03 20.79 C 23.24 20.87 23.66 21.01 23.87 21.08 C 22.96 22.17 21.96 23.21 21.37 24.52 C 20.33 24.86 19.35 25.63 18.25 25.60 C 18.08 24.48 18.82 23.44 19.16 22.41 L 19.25 25.40 C 20.97 24.19 22.23 22.65 23.03 20.79 Z" />
<path fill="#646566" opacity="1.00" d=" M 57.25 54.97 C 58.23 55.66 59.17 56.42 60.11 57.17 L 60.45 57.70 C 59.12 59.64 57.32 57.16 56.22 56.25 C 56.48 55.93 57.00 55.29 57.25 54.97 Z" />
</g>
<g id="#5f1c15ce">
<path fill="#5f1c15" opacity="0.81" d=" M 3.47 14.22 L 3.98 14.60 C 5.21 16.64 7.57 17.43 9.53 18.57 C 8.83 19.29 8.15 20.01 7.46 20.73 C 5.57 18.94 3.23 17.12 3.47 14.22 Z" />
</g>
<g id="#d2d3d4ff">
<path fill="#d2d3d4" opacity="1.00" d=" M 28.24 16.15 C 28.93 16.71 28.93 16.71 28.24 16.15 Z" />
</g>
<g id="#c28b25ff">
<path fill="#c28b25" opacity="1.00" d=" M 28.53 19.77 C 29.64 18.44 30.96 17.32 32.42 16.39 C 39.10 23.05 45.82 29.67 52.41 36.43 C 51.88 38.28 50.56 39.65 49.02 40.73 C 42.26 33.68 34.93 27.14 28.53 19.77 Z" />
</g>
<g id="#fff559ff">
<path fill="#fff559" opacity="1.00" d=" M 28.43 19.60 L 28.53 19.77 C 34.93 27.14 42.26 33.68 49.02 40.73 C 46.06 43.25 43.53 46.22 40.76 48.94 L 40.63 48.81 C 33.95 41.75 26.95 34.99 20.07 28.13 L 20.44 27.77 C 23.22 25.16 25.92 22.47 28.43 19.60 Z" />
</g>
<g id="#bf8a25ff">
<path fill="#bf8a25" opacity="1.00" d=" M 16.63 31.59 C 17.77 30.43 18.92 29.28 20.07 28.13 C 26.95 34.99 33.95 41.75 40.63 48.81 C 39.36 49.79 38.09 50.77 36.82 51.76 C 30.12 45.00 23.41 38.26 16.63 31.59 Z" />
</g>
<g id="#c3a76bff">
<path fill="#c3a76b" opacity="1.00" d=" M 52.41 36.43 L 52.56 36.07 C 52.59 39.99 55.23 43.33 55.63 47.19 L 55.66 48.95 C 56.20 50.92 58.16 52.81 57.25 54.97 C 57.00 55.29 56.48 55.93 56.22 56.25 C 55.81 56.49 54.97 56.99 54.55 57.24 C 50.26 53.98 45.20 51.96 40.76 48.94 C 43.53 46.22 46.06 43.25 49.02 40.73 C 50.56 39.65 51.88 38.28 52.41 36.43 Z" />
</g>
<g id="#483e26cf">
<path fill="#483e26" opacity="0.81" d=" M 55.63 47.19 C 57.91 50.03 58.03 54.10 60.11 57.17 C 59.17 56.42 58.23 55.66 57.25 54.97 C 58.16 52.81 56.20 50.92 55.66 48.95 L 55.63 47.19 Z" />
</g>
<g id="#8f7b4cff">
<path fill="#8f7b4c" opacity="1.00" d=" M 40.63 48.81 L 40.76 48.94 C 45.20 51.96 50.26 53.98 54.55 57.24 L 53.02 57.27 C 47.64 55.36 42.23 53.55 36.82 51.76 C 38.09 50.77 39.36 49.79 40.63 48.81 Z" />
</g>
<g id="#171512de">
<path fill="#171512" opacity="0.87" d=" M 53.02 57.27 L 54.55 57.24 C 54.97 56.99 55.81 56.49 56.22 56.25 C 57.32 57.16 59.12 59.64 60.45 57.70 C 62.01 58.65 61.33 61.21 59.40 60.69 C 58.00 59.91 56.65 59.04 55.22 58.31 C 54.67 58.05 53.57 57.53 53.02 57.27 Z" />
</g>
<g id="#0000002e">
<path fill="#000000" opacity="0.18" d=" M 55.22 58.31 C 56.65 59.04 58.00 59.91 59.40 60.69 C 50.23 61.32 41.10 60.33 31.93 60.44 C 30.56 60.19 28.12 60.82 27.86 58.82 C 36.95 57.84 46.17 59.52 55.22 58.31 Z" />
</g>
</svg>
