<?xml version="1.0" encoding="UTF-8" ?>
<!DOCTYPE svg PUBLIC "-//W3C//DTD SVG 1.1//EN" "http://www.w3.org/Graphics/SVG/1.1/DTD/svg11.dtd">
<svg width="64pt" height="64pt" viewBox="0 0 64 64" version="1.1" xmlns="http://www.w3.org/2000/svg">
<g id="#fdf930ff">
<path fill="#fdf930" opacity="1.00" d=" M 9.74 11.30 C 10.72 8.23 10.69 4.96 11.05 1.78 C 11.35 3.90 11.63 6.03 11.90 8.16 C 12.34 10.67 13.20 13.28 15.85 14.20 C 17.48 14.38 19.11 14.61 20.74 14.78 C 18.41 15.14 15.73 15.20 13.98 17.04 C 11.18 19.85 12.47 24.54 11.28 27.71 C 10.07 24.38 11.13 20.26 8.69 17.35 C 7.01 15.18 4.08 15.07 1.61 14.59 C 4.53 14.55 8.52 14.54 9.74 11.30 Z" />
<path fill="#fdf930" opacity="1.00" d=" M 36.75 22.88 C 38.69 16.34 39.44 9.54 40.00 2.77 C 40.52 9.52 41.35 16.27 43.20 22.80 C 44.29 26.15 47.95 27.21 50.95 28.16 C 54.16 28.62 57.41 28.64 60.64 28.94 C 58.71 29.27 56.77 29.55 54.83 29.88 C 53.85 30.23 52.86 30.57 51.86 30.88 C 48.54 32.25 44.94 34.04 43.36 37.48 C 41.55 43.55 40.74 49.86 40.00 56.13 C 39.42 49.79 38.34 43.47 36.59 37.34 C 33.28 31.21 25.59 29.59 19.22 28.94 C 23.72 28.46 28.50 29.02 32.70 27.01 C 34.53 26.26 36.18 24.83 36.75 22.88 Z" />
<path fill="#fdf930" opacity="1.00" d=" M 20.11 40.16 C 20.38 37.99 20.65 35.82 20.96 33.65 C 21.34 36.99 21.23 40.45 22.40 43.63 C 23.71 46.35 27.51 46.50 30.02 46.78 C 26.44 46.36 22.50 48.74 21.89 52.36 C 21.38 54.89 21.23 57.48 20.97 60.04 C 19.91 55.95 20.74 50.43 16.65 47.86 C 14.74 47.14 12.71 46.83 10.70 46.50 C 12.54 46.54 14.37 46.40 16.20 46.25 C 18.81 45.27 19.64 42.66 20.11 40.16 Z" />
</g>
</svg>
