<?xml version="1.0" encoding="UTF-8" ?>
<!DOCTYPE svg PUBLIC "-//W3C//DTD SVG 1.1//EN" "http://www.w3.org/Graphics/SVG/1.1/DTD/svg11.dtd">
<svg width="64pt" height="64pt" viewBox="0 0 64 64" version="1.1" xmlns="http://www.w3.org/2000/svg">
<g id="#006e12e2">
<path fill="#006e12" opacity="0.89" d=" M 3.11 14.99 C 3.16 8.71 8.68 3.23 14.95 3.15 C 26.33 3.13 37.72 3.12 49.10 3.15 C 55.34 3.26 60.83 8.71 60.89 14.96 C 60.86 26.32 60.93 37.68 60.87 49.04 C 60.87 50.64 60.41 52.19 59.95 53.71 C 57.86 57.78 53.70 60.80 49.04 60.84 C 37.66 60.88 26.28 60.88 14.90 60.84 C 10.29 60.77 6.17 57.79 4.09 53.77 C 3.59 52.24 3.13 50.68 3.13 49.06 C 3.07 37.70 3.14 26.35 3.11 14.99 M 7.06 7.99 C 3.08 12.64 3.62 19.27 4.02 24.96 C 4.94 29.13 3.82 33.52 4.87 37.61 C 4.19 42.66 3.94 48.10 5.70 52.98 C 7.67 57.25 12.52 59.60 17.09 59.51 C 27.39 59.46 37.69 59.52 47.99 59.48 C 53.70 59.32 58.96 54.83 59.39 49.00 C 59.46 44.55 59.97 39.98 59.15 35.59 C 60.04 33.25 59.33 30.60 59.62 28.14 C 60.25 23.10 60.72 17.87 59.53 12.88 C 58.26 7.41 52.40 4.04 47.04 4.46 C 36.71 4.51 26.38 4.47 16.06 4.47 C 12.73 4.30 9.62 6.04 7.06 7.99 Z" />
</g>
<g id="#00b31fff">
<path fill="#00b31f" opacity="1.00" d=" M 7.06 7.99 C 9.62 6.04 12.73 4.30 16.06 4.47 C 26.38 4.47 36.71 4.51 47.04 4.46 C 52.40 4.04 58.26 7.41 59.53 12.88 C 60.72 17.87 60.25 23.10 59.62 28.14 C 59.33 30.60 60.04 33.25 59.15 35.59 C 57.14 38.80 58.54 43.08 56.21 46.20 C 54.13 46.95 51.78 47.35 50.76 49.62 C 48.60 48.22 49.90 44.45 46.55 44.51 C 44.41 41.34 41.30 38.88 39.69 35.37 C 44.25 33.87 49.20 33.30 53.92 32.17 C 53.63 32.02 53.05 31.70 52.76 31.55 L 52.39 30.70 C 54.66 28.74 57.93 26.71 57.67 23.26 C 57.27 20.03 58.93 16.40 57.36 13.44 C 55.94 9.55 52.45 6.15 48.07 6.20 C 37.36 6.10 26.65 6.10 15.94 6.20 C 11.60 6.16 8.09 9.48 6.68 13.37 C 5.08 16.36 6.69 19.99 6.31 23.25 C 6.01 26.81 9.51 28.66 11.77 30.68 L 11.22 31.56 C 10.95 31.71 10.40 32.03 10.12 32.19 C 15.10 33.20 20.06 34.23 25.03 35.28 C 21.50 39.72 17.47 43.85 14.36 48.58 C 14.20 48.77 13.88 49.15 13.71 49.34 L 13.07 49.11 C 11.78 47.33 9.63 46.92 7.70 46.18 C 6.18 43.54 6.38 40.28 4.87 37.61 C 3.82 33.52 4.94 29.13 4.02 24.96 C 3.62 19.27 3.08 12.64 7.06 7.99 Z" />
</g>
<g id="#ffffffff">
<path fill="#ffffff" opacity="1.00" d=" M 6.68 13.37 C 8.09 9.48 11.60 6.16 15.94 6.20 C 26.65 6.10 37.36 6.10 48.07 6.20 C 52.45 6.15 55.94 9.55 57.36 13.44 C 57.12 13.46 56.65 13.49 56.42 13.51 C 55.68 11.91 54.57 10.56 53.31 9.35 C 51.10 8.13 48.59 7.51 46.07 7.63 C 36.39 7.63 26.71 7.59 17.03 7.65 C 14.81 7.60 12.64 8.32 10.70 9.34 C 9.33 10.63 8.21 12.14 7.27 13.76 L 6.68 13.37 Z" />
<path fill="#ffffff" opacity="1.00" d=" M 11.03 10.62 C 16.77 15.63 22.69 20.49 28.73 25.10 C 29.09 23.62 29.27 22.10 29.71 20.64 C 30.51 17.58 31.09 14.47 31.65 11.36 C 31.82 11.36 32.18 11.36 32.35 11.37 C 32.93 14.59 33.53 17.81 34.37 20.98 C 34.76 22.35 34.95 23.76 35.30 25.14 C 41.27 20.42 47.25 15.66 52.97 10.62 C 52.82 11.08 52.51 11.99 52.35 12.45 C 49.32 15.78 46.48 19.28 43.67 22.78 C 42.50 24.32 41.20 25.77 39.97 27.26 L 40.05 27.42 C 39.69 27.80 38.96 28.55 38.59 28.93 C 43.28 29.01 47.98 31.01 52.76 31.55 C 53.05 31.70 53.63 32.02 53.92 32.17 C 49.20 33.30 44.25 33.87 39.69 35.37 C 39.48 35.48 39.05 35.71 38.84 35.82 C 43.81 40.87 48.01 46.82 52.65 52.24 L 53.33 53.41 C 47.28 48.75 41.42 43.80 35.54 38.91 C 33.93 43.75 33.39 48.91 32.14 53.87 C 30.23 49.21 30.30 43.69 28.45 38.92 C 22.75 43.83 16.76 48.38 11.10 53.32 L 11.38 52.07 C 12.35 51.30 12.74 50.12 13.71 49.34 C 13.88 49.15 14.20 48.77 14.36 48.58 C 17.86 44.10 21.73 39.90 25.03 35.28 C 20.06 34.23 15.10 33.20 10.12 32.19 C 10.40 32.03 10.95 31.71 11.22 31.56 C 15.28 30.60 19.54 30.24 23.44 28.72 C 23.93 28.78 24.91 28.89 25.39 28.94 C 25.03 28.56 24.31 27.80 23.95 27.42 L 24.03 27.26 C 22.79 25.75 21.47 24.29 20.29 22.73 C 17.49 19.26 14.69 15.79 11.69 12.50 C 11.52 12.03 11.20 11.09 11.03 10.62 Z" />
</g>
<g id="#4cd76eff">
<path fill="#4cd76e" opacity="1.00" d=" M 10.70 9.34 C 12.64 8.32 14.81 7.60 17.03 7.65 C 26.71 7.59 36.39 7.63 46.07 7.63 C 48.59 7.51 51.10 8.13 53.31 9.35 C 50.15 11.35 47.37 13.85 44.35 16.04 C 41.53 14.58 38.33 14.95 35.28 14.70 C 33.60 12.91 34.43 7.95 30.99 8.84 C 30.00 10.67 30.00 13.04 28.67 14.64 C 25.66 15.07 22.45 14.48 19.70 16.10 C 16.68 13.88 13.87 11.37 10.70 9.34 Z" />
</g>
<g id="#37d35aff">
<path fill="#37d35a" opacity="1.00" d=" M 30.99 8.84 C 34.43 7.95 33.60 12.91 35.28 14.70 C 38.33 14.95 41.53 14.58 44.35 16.04 C 41.97 18.14 39.54 20.20 36.86 21.89 C 36.29 21.37 35.72 20.86 35.16 20.35 C 34.96 20.51 34.57 20.82 34.37 20.98 C 33.53 17.81 32.93 14.59 32.35 11.37 C 32.18 11.36 31.82 11.36 31.65 11.36 C 31.09 14.47 30.51 17.58 29.71 20.64 C 28.56 20.18 27.89 21.40 27.02 21.91 C 24.48 20.11 22.04 18.17 19.70 16.10 C 22.45 14.48 25.66 15.07 28.67 14.64 C 30.00 13.04 30.00 10.67 30.99 8.84 Z" />
</g>
<g id="#2fd055ff">
<path fill="#2fd055" opacity="1.00" d=" M 7.27 13.76 C 8.21 12.14 9.33 10.63 10.70 9.34 L 11.03 10.62 C 11.20 11.09 11.52 12.03 11.69 12.50 C 14.69 15.79 17.49 19.26 20.29 22.73 C 15.78 24.11 10.94 23.66 6.31 23.25 C 6.69 19.99 5.08 16.36 6.68 13.37 L 7.27 13.76 Z" />
<path fill="#2fd055" opacity="1.00" d=" M 53.31 9.35 C 54.57 10.56 55.68 11.91 56.42 13.51 C 56.65 13.49 57.12 13.46 57.36 13.44 C 58.93 16.40 57.27 20.03 57.67 23.26 C 53.03 23.52 48.19 24.20 43.67 22.78 C 46.48 19.28 49.32 15.78 52.35 12.45 C 52.51 11.99 52.82 11.08 52.97 10.62 L 53.31 9.35 Z" />
</g>
<g id="#00a51cff">
<path fill="#00a51c" opacity="1.00" d=" M 10.70 9.34 C 13.87 11.37 16.68 13.88 19.70 16.10 C 22.04 18.17 24.48 20.11 27.02 21.91 C 27.89 21.40 28.56 20.18 29.71 20.64 C 29.27 22.10 29.09 23.62 28.73 25.10 C 22.69 20.49 16.77 15.63 11.03 10.62 L 10.70 9.34 Z" />
<path fill="#00a51c" opacity="1.00" d=" M 44.35 16.04 C 47.37 13.85 50.15 11.35 53.31 9.35 L 52.97 10.62 C 47.25 15.66 41.27 20.42 35.30 25.14 C 34.95 23.76 34.76 22.35 34.37 20.98 C 34.57 20.82 34.96 20.51 35.16 20.35 C 35.72 20.86 36.29 21.37 36.86 21.89 C 39.54 20.20 41.97 18.14 44.35 16.04 Z" />
<path fill="#00a51c" opacity="1.00" d=" M 56.21 46.20 C 58.54 43.08 57.14 38.80 59.15 35.59 C 59.97 39.98 59.46 44.55 59.39 49.00 C 58.96 54.83 53.70 59.32 47.99 59.48 C 37.69 59.52 27.39 59.46 17.09 59.51 C 12.52 59.60 7.67 57.25 5.70 52.98 C 3.94 48.10 4.19 42.66 4.87 37.61 C 6.38 40.28 6.18 43.54 7.70 46.18 C 9.63 46.92 11.78 47.33 13.07 49.11 C 11.92 49.79 11.36 50.78 11.38 52.07 L 11.10 53.32 C 16.76 48.38 22.75 43.83 28.45 38.92 C 30.30 43.69 30.23 49.21 32.14 53.87 C 33.39 48.91 33.93 43.75 35.54 38.91 C 41.42 43.80 47.28 48.75 53.33 53.41 L 52.65 52.24 C 52.11 51.31 51.48 50.43 50.76 49.62 C 51.78 47.35 54.13 46.95 56.21 46.20 Z" />
</g>
<g id="#00c841ff">
<path fill="#00c841" opacity="1.00" d=" M 6.31 23.25 C 10.94 23.66 15.78 24.11 20.29 22.73 C 21.47 24.29 22.79 25.75 24.03 27.26 L 23.95 27.42 C 22.47 29.62 19.45 29.50 17.11 29.83 C 15.47 30.69 13.60 30.81 11.77 30.68 C 9.51 28.66 6.01 26.81 6.31 23.25 Z" />
<path fill="#00c841" opacity="1.00" d=" M 39.97 27.26 C 41.20 25.77 42.50 24.32 43.67 22.78 C 48.19 24.20 53.03 23.52 57.67 23.26 C 57.93 26.71 54.66 28.74 52.39 30.70 C 49.44 31.17 46.87 29.50 43.97 29.50 C 42.49 29.27 40.88 28.75 40.05 27.42 L 39.97 27.26 Z" />
</g>
<g id="#00000026">
<path fill="#000000" opacity="0.15" d=" M 23.95 27.42 C 24.31 27.80 25.03 28.56 25.39 28.94 C 24.91 28.89 23.93 28.78 23.44 28.72 C 19.54 30.24 15.28 30.60 11.22 31.56 L 11.77 30.68 C 13.60 30.81 15.47 30.69 17.11 29.83 C 19.45 29.50 22.47 29.62 23.95 27.42 Z" />
<path fill="#000000" opacity="0.15" d=" M 38.59 28.93 C 38.96 28.55 39.69 27.80 40.05 27.42 C 40.88 28.75 42.49 29.27 43.97 29.50 C 46.87 29.50 49.44 31.17 52.39 30.70 L 52.76 31.55 C 47.98 31.01 43.28 29.01 38.59 28.93 Z" />
<path fill="#000000" opacity="0.15" d=" M 25.03 35.28 C 21.73 39.90 17.86 44.10 14.36 48.58 C 17.47 43.85 21.50 39.72 25.03 35.28 Z" />
<path fill="#000000" opacity="0.15" d=" M 38.84 35.82 C 39.05 35.71 39.48 35.48 39.69 35.37 C 41.30 38.88 44.41 41.34 46.55 44.51 C 49.90 44.45 48.60 48.22 50.76 49.62 C 51.48 50.43 52.11 51.31 52.65 52.24 C 48.01 46.82 43.81 40.87 38.84 35.82 Z" />
<path fill="#000000" opacity="0.15" d=" M 4.09 53.77 C 6.17 57.79 10.29 60.77 14.90 60.84 C 26.28 60.88 37.66 60.88 49.04 60.84 C 53.70 60.80 57.86 57.78 59.95 53.71 C 60.08 59.08 55.31 62.52 50.70 64.00 L 13.34 64.00 C 8.83 62.48 3.78 59.16 4.09 53.77 Z" />
</g>
</svg>
