<?xml version="1.0" encoding="UTF-8" ?>
<!DOCTYPE svg PUBLIC "-//W3C//DTD SVG 1.1//EN" "http://www.w3.org/Graphics/SVG/1.1/DTD/svg11.dtd">
<svg width="64pt" height="64pt" viewBox="0 0 64 64" version="1.1" xmlns="http://www.w3.org/2000/svg">
<g id="#cde4f7fe">
<path fill="#cde4f7" opacity="1.00" d=" M 29.11 4.38 C 30.05 3.86 31.00 3.33 31.94 2.81 C 32.83 3.37 33.72 3.93 34.61 4.49 C 34.60 6.68 34.58 8.87 34.56 11.06 C 36.23 10.08 37.89 9.10 39.57 8.14 C 40.26 8.56 41.64 9.39 42.34 9.80 C 42.31 10.58 42.24 12.15 42.21 12.93 C 39.66 14.38 37.12 15.86 34.55 17.28 C 34.56 20.59 34.56 23.90 34.54 27.20 C 37.36 25.47 40.24 23.84 43.10 22.19 C 43.08 19.21 43.07 16.24 43.06 13.26 C 43.98 12.76 44.89 12.25 45.81 11.75 C 46.71 12.30 47.61 12.85 48.51 13.41 C 48.49 15.32 48.47 17.23 48.45 19.14 C 50.35 18.01 52.25 16.88 54.16 15.77 C 55.08 16.30 56.00 16.83 56.92 17.37 C 56.87 18.44 56.82 19.52 56.76 20.59 C 54.87 21.63 52.98 22.69 51.11 23.79 C 52.91 24.82 54.71 25.86 56.50 26.92 C 56.31 28.27 55.87 29.52 55.17 30.66 C 51.50 31.61 48.95 28.11 45.71 27.11 C 42.81 28.42 40.11 30.15 37.29 31.62 C 39.98 33.53 42.87 35.14 45.76 36.74 C 48.28 35.26 50.81 33.81 53.33 32.34 C 54.29 32.83 55.25 33.32 56.21 33.82 C 56.20 34.89 56.19 35.97 56.17 37.05 C 54.50 37.84 52.85 38.68 51.18 39.49 C 52.93 40.95 54.91 42.10 56.87 43.24 C 56.83 44.35 56.79 45.45 56.75 46.56 C 53.80 48.98 51.01 45.74 48.40 44.43 C 48.43 46.33 48.45 48.24 48.48 50.15 C 47.59 50.72 46.70 51.30 45.81 51.88 C 44.97 51.46 44.14 51.01 43.34 50.54 C 42.87 47.58 43.18 44.57 43.14 41.59 C 40.25 39.87 37.35 38.15 34.51 36.33 C 34.56 39.68 34.56 43.03 34.52 46.38 C 37.10 47.89 39.78 49.22 42.24 50.92 C 42.24 52.26 41.97 53.56 41.44 54.82 C 40.92 54.71 39.89 54.49 39.37 54.37 C 39.48 54.72 39.68 55.42 39.78 55.76 C 38.03 54.60 36.25 53.47 34.52 52.28 C 33.80 54.72 36.28 59.56 32.44 60.02 C 32.46 60.28 32.51 60.80 32.53 61.06 C 31.43 60.47 30.32 59.89 29.22 59.31 C 29.15 56.74 29.48 54.03 28.07 51.71 L 27.69 53.49 C 25.60 55.05 20.18 55.82 21.43 51.63 C 20.45 51.16 19.42 50.82 18.41 50.44 L 18.67 52.16 C 17.50 51.57 16.33 50.97 15.15 50.37 C 15.19 48.41 15.21 46.45 15.23 44.49 C 13.68 45.33 12.13 46.16 10.56 46.97 L 10.14 47.92 C 8.93 47.39 7.73 46.83 6.53 46.27 C 6.55 45.52 6.58 44.01 6.59 43.25 C 8.32 42.27 10.06 41.30 11.81 40.34 C 11.75 40.04 11.63 39.43 11.57 39.13 C 10.20 38.47 8.85 37.78 7.49 37.10 C 7.45 36.03 7.41 34.95 7.37 33.87 C 8.06 33.48 9.44 32.69 10.13 32.30 C 12.73 33.77 15.32 35.25 17.91 36.75 C 20.72 35.08 23.56 33.45 26.43 31.87 C 23.61 30.23 20.85 28.49 17.91 27.07 C 14.47 28.31 11.52 31.96 7.55 30.37 C 7.50 29.47 7.40 27.67 7.35 26.77 C 9.06 25.79 10.77 24.81 12.48 23.84 C 10.50 22.65 8.51 21.49 6.52 20.33 C 6.53 19.39 6.53 18.45 6.53 17.52 C 7.48 16.94 8.43 16.36 9.37 15.78 C 11.31 16.87 13.24 17.98 15.16 19.10 C 15.15 17.18 15.15 15.26 15.15 13.33 C 16.07 12.80 16.98 12.26 17.89 11.73 C 18.81 12.27 19.73 12.82 20.64 13.36 C 20.63 16.32 20.63 19.28 20.63 22.24 C 23.45 23.91 26.29 25.53 29.13 27.15 C 29.11 23.91 29.09 20.67 29.13 17.43 C 26.54 15.91 23.94 14.41 21.33 12.94 C 21.31 11.90 21.29 10.86 21.27 9.82 C 22.19 9.26 23.11 8.69 24.03 8.12 C 25.70 9.10 27.37 10.07 29.05 11.03 C 29.06 8.82 29.07 6.60 29.11 4.38 M 24.94 38.97 C 23.52 39.75 22.09 40.50 20.65 41.23 C 20.57 44.48 20.32 47.84 21.52 50.95 C 23.97 49.25 26.56 47.77 29.15 46.30 C 29.11 43.01 29.13 39.71 29.14 36.41 C 27.74 37.26 26.33 38.11 24.94 38.97 Z" />
</g>
</svg>
