<?xml version="1.0" encoding="UTF-8" ?>
<!DOCTYPE svg PUBLIC "-//W3C//DTD SVG 1.1//EN" "http://www.w3.org/Graphics/SVG/1.1/DTD/svg11.dtd">
<svg width="64pt" height="64pt" viewBox="0 0 64 64" version="1.1" xmlns="http://www.w3.org/2000/svg">
<g id="#00550fc3">
<path fill="#00550f" opacity="0.76" d=" M 12.01 3.02 C 25.34 2.97 38.66 2.97 51.99 3.02 L 52.02 3.99 C 38.67 4.00 25.33 4.00 11.98 4.00 L 12.01 3.02 Z" />
</g>
<g id="#008b1af6">
<path fill="#008b1a" opacity="0.96" d=" M 4.89 9.93 C 5.44 6.78 8.88 4.32 11.98 4.00 C 25.33 4.00 38.67 4.00 52.02 3.99 C 55.12 4.32 58.56 6.77 59.11 9.93 C 55.66 7.71 52.88 3.48 48.01 5.03 C 36.02 4.99 24.03 4.85 12.06 5.08 C 9.21 5.86 7.34 8.42 4.89 9.93 Z" />
</g>
<g id="#05ad20ff">
<path fill="#05ad20" opacity="1.00" d=" M 4.89 9.93 C 7.34 8.42 9.21 5.86 12.06 5.08 C 24.03 4.85 36.02 4.99 48.01 5.03 C 52.88 3.48 55.66 7.71 59.11 9.93 C 59.34 10.45 59.80 11.48 60.03 12.00 C 59.98 14.93 59.98 17.86 59.80 20.78 C 58.43 30.41 59.93 40.46 56.78 49.85 C 54.93 49.93 53.10 49.67 51.25 49.72 C 50.84 48.87 50.38 48.03 49.88 47.22 C 47.13 43.70 44.33 39.52 39.97 37.88 C 38.67 37.10 37.40 36.23 35.90 35.90 C 36.23 37.30 36.99 38.52 37.70 39.74 C 39.06 43.85 43.58 45.91 45.12 50.00 C 42.49 50.15 39.87 50.11 37.26 49.87 C 36.41 45.20 35.47 40.53 33.89 36.04 C 35.84 34.20 37.54 30.04 34.02 28.93 C 32.04 27.13 29.79 28.95 28.08 30.19 C 27.43 32.43 28.73 34.32 29.95 36.06 C 30.11 36.53 30.44 37.48 30.61 37.96 C 29.93 40.57 29.16 43.16 28.72 45.83 L 28.12 46.09 C 26.62 46.54 27.26 48.72 26.64 49.88 C 24.07 50.03 21.50 50.06 18.92 49.97 C 19.58 47.64 22.82 46.04 22.12 43.54 C 23.97 40.93 27.76 39.33 28.07 35.89 C 26.55 36.19 25.32 37.12 24.06 37.95 C 20.01 39.99 16.51 43.32 14.09 47.17 C 13.61 48.00 13.17 48.85 12.76 49.73 C 10.89 49.67 9.04 49.93 7.18 49.87 C 4.52 40.35 6.03 30.32 4.31 20.74 C 4.14 17.83 4.02 14.92 3.96 12.01 C 4.20 11.49 4.66 10.45 4.89 9.93 M 6.64 13.28 C 5.08 13.09 6.35 16.19 5.97 17.23 C 6.05 17.61 6.21 18.35 6.28 18.73 C 5.89 21.30 5.61 28.36 9.87 27.89 L 9.99 28.92 C 10.03 30.45 10.10 33.50 10.13 35.03 L 11.15 35.04 C 11.95 36.85 17.04 36.84 17.85 35.06 C 21.05 35.31 23.98 33.86 26.89 32.79 C 27.50 31.13 25.95 30.71 24.76 30.17 L 24.98 29.07 C 26.92 29.41 27.83 29.15 27.71 28.29 C 27.77 27.76 27.89 26.71 27.96 26.18 L 28.16 25.03 C 28.69 24.96 29.73 24.83 30.26 24.76 C 30.48 27.55 33.48 27.53 33.78 24.79 C 35.03 25.16 36.05 24.88 36.85 23.95 L 37.16 25.13 C 36.11 25.95 35.82 27.02 36.31 28.35 C 36.19 29.16 37.09 29.41 39.03 29.10 L 39.24 30.22 C 38.03 30.72 36.49 31.11 37.11 32.79 C 40.02 33.86 42.96 35.31 46.15 35.06 C 46.96 36.84 52.05 36.85 52.85 35.04 C 53.13 33.51 53.71 30.45 54.00 28.92 L 54.12 27.90 C 58.40 28.33 58.10 21.33 57.72 18.73 C 57.79 18.35 57.95 17.61 58.03 17.23 C 57.65 16.19 58.92 13.07 57.34 13.28 C 56.75 9.73 53.09 7.34 49.95 6.07 C 39.31 5.84 28.64 6.03 17.99 6.03 C 12.96 4.90 8.11 8.73 6.64 13.28 Z" />
</g>
<g id="#d3f3daff">
<path fill="#d3f3da" opacity="1.00" d=" M 6.64 13.28 C 8.11 8.73 12.96 4.90 17.99 6.03 C 28.64 6.03 39.31 5.84 49.95 6.07 C 53.09 7.34 56.75 9.73 57.34 13.28 C 57.09 13.32 56.60 13.38 56.35 13.41 C 54.43 10.60 51.86 7.96 48.25 7.71 C 37.51 6.73 26.41 6.30 15.71 7.62 C 12.18 8.13 9.55 10.54 7.64 13.40 C 7.39 13.37 6.89 13.31 6.64 13.28 Z" />
</g>
<g id="#c5f1ceff">
<path fill="#c5f1ce" opacity="1.00" d=" M 15.71 7.62 C 26.41 6.30 37.51 6.73 48.25 7.71 C 37.41 8.11 26.55 8.21 15.71 7.62 Z" />
</g>
<g id="#40d061ff">
<path fill="#40d061" opacity="1.00" d=" M 7.64 13.40 C 9.55 10.54 12.18 8.13 15.71 7.62 C 26.55 8.21 37.41 8.11 48.25 7.71 C 51.86 7.96 54.43 10.60 56.35 13.41 C 56.60 13.38 57.09 13.32 57.34 13.28 C 58.92 13.07 57.65 16.19 58.03 17.23 C 55.66 17.78 53.21 16.97 51.13 15.86 C 50.54 14.85 50.42 13.10 49.03 12.85 C 47.09 14.79 45.42 17.00 43.46 18.93 C 41.60 17.59 40.48 20.41 39.08 21.25 C 36.53 20.44 35.71 18.23 35.32 15.80 C 34.97 13.61 35.43 9.33 32.00 9.97 C 28.22 9.39 28.88 14.26 28.75 16.83 C 28.23 18.92 26.86 20.39 24.91 21.28 C 23.14 20.27 21.80 16.56 19.53 17.96 C 17.84 16.40 16.46 14.55 14.92 12.85 C 13.61 13.20 13.42 14.83 12.87 15.86 C 10.79 16.97 8.34 17.78 5.97 17.23 C 6.35 16.19 5.08 13.09 6.64 13.28 C 6.89 13.31 7.39 13.37 7.64 13.40 Z" />
</g>
<g id="#f9fefaff">
<path fill="#f9fefa" opacity="1.00" d=" M 28.75 16.83 C 28.88 14.26 28.22 9.39 32.00 9.97 C 35.43 9.33 34.97 13.61 35.32 15.80 C 34.91 18.81 34.48 21.82 33.78 24.79 C 33.48 27.53 30.48 27.55 30.26 24.76 C 29.46 22.18 28.89 19.53 28.75 16.83 Z" />
</g>
<g id="#00590cca">
<path fill="#00590c" opacity="0.79" d=" M 3.01 12.00 L 3.96 12.01 C 4.02 14.92 4.14 17.83 4.31 20.74 C 3.84 31.16 4.01 41.59 4.00 52.02 L 3.02 51.99 C 2.97 38.66 2.98 25.33 3.01 12.00 Z" />
<path fill="#00590c" opacity="0.79" d=" M 60.03 12.00 L 60.99 12.01 C 61.02 25.33 61.03 38.66 60.98 51.99 L 60.01 52.02 C 59.89 41.61 60.26 31.19 59.80 20.78 C 59.98 17.86 59.98 14.93 60.03 12.00 Z" />
</g>
<g id="#f7faf7ff">
<path fill="#f7faf7" opacity="1.00" d=" M 12.87 15.86 C 13.42 14.83 13.61 13.20 14.92 12.85 C 16.46 14.55 17.84 16.40 19.53 17.96 C 22.27 20.77 24.97 23.63 27.96 26.18 C 27.89 26.71 27.77 27.76 27.71 28.29 C 24.58 26.21 22.01 23.46 19.30 20.90 C 17.45 18.86 15.15 17.35 12.87 15.86 Z" />
</g>
<g id="#f7faf8ff">
<path fill="#f7faf8" opacity="1.00" d=" M 43.46 18.93 C 45.42 17.00 47.09 14.79 49.03 12.85 C 50.42 13.10 50.54 14.85 51.13 15.86 C 48.85 17.36 46.53 18.85 44.70 20.90 C 41.96 23.44 39.60 26.47 36.31 28.35 C 35.82 27.02 36.11 25.95 37.16 25.13 C 39.31 23.11 41.45 21.08 43.46 18.93 Z" />
</g>
<g id="#2ed155ff">
<path fill="#2ed155" opacity="1.00" d=" M 5.97 17.23 C 8.34 17.78 10.79 16.97 12.87 15.86 C 15.15 17.35 17.45 18.86 19.30 20.90 C 15.35 21.91 11.26 22.22 7.22 22.70 C 6.90 21.38 6.63 20.04 6.28 18.73 C 6.21 18.35 6.05 17.61 5.97 17.23 Z" />
<path fill="#2ed155" opacity="1.00" d=" M 44.70 20.90 C 46.53 18.85 48.85 17.36 51.13 15.86 C 53.21 16.97 55.66 17.78 58.03 17.23 C 57.95 17.61 57.79 18.35 57.72 18.73 C 57.37 20.04 57.10 21.38 56.78 22.70 C 52.74 22.22 48.64 21.91 44.70 20.90 Z" />
</g>
<g id="#19d04cff">
<path fill="#19d04c" opacity="1.00" d=" M 35.32 15.80 C 35.71 18.23 36.53 20.44 39.08 21.25 C 38.33 22.15 37.58 23.04 36.85 23.95 C 36.05 24.88 35.03 25.16 33.78 24.79 C 34.48 21.82 34.91 18.81 35.32 15.80 Z" />
<path fill="#19d04c" opacity="1.00" d=" M 24.91 21.28 C 26.86 20.39 28.23 18.92 28.75 16.83 C 28.89 19.53 29.46 22.18 30.26 24.76 C 29.73 24.83 28.69 24.96 28.16 25.03 C 27.13 23.74 26.02 22.51 24.91 21.28 Z" />
</g>
<g id="#278329ff">
<path fill="#278329" opacity="1.00" d=" M 19.53 17.96 C 21.80 16.56 23.14 20.27 24.91 21.28 C 26.02 22.51 27.13 23.74 28.16 25.03 L 27.96 26.18 C 24.97 23.63 22.27 20.77 19.53 17.96 Z" />
</g>
<g id="#278228ff">
<path fill="#278228" opacity="1.00" d=" M 39.08 21.25 C 40.48 20.41 41.60 17.59 43.46 18.93 C 41.45 21.08 39.31 23.11 37.16 25.13 L 36.85 23.95 C 37.58 23.04 38.33 22.15 39.08 21.25 Z" />
</g>
<g id="#0dcc47ff">
<path fill="#0dcc47" opacity="1.00" d=" M 6.28 18.73 C 6.63 20.04 6.90 21.38 7.22 22.70 C 11.26 22.22 15.35 21.91 19.30 20.90 C 22.01 23.46 24.58 26.21 27.71 28.29 C 27.83 29.15 26.92 29.41 24.98 29.07 C 23.09 28.54 21.19 28.01 19.23 27.74 C 16.42 27.16 13.48 26.57 10.73 27.68 L 9.87 27.89 C 5.61 28.36 5.89 21.30 6.28 18.73 Z" />
<path fill="#0dcc47" opacity="1.00" d=" M 56.78 22.70 C 57.10 21.38 57.37 20.04 57.72 18.73 C 58.10 21.33 58.40 28.33 54.12 27.90 L 53.22 27.80 C 50.40 27.30 47.49 26.62 44.72 27.61 C 42.80 28.03 40.92 28.56 39.03 29.10 C 37.09 29.41 36.19 29.16 36.31 28.35 C 39.60 26.47 41.96 23.44 44.70 20.90 C 48.64 21.91 52.74 22.22 56.78 22.70 Z" />
</g>
<g id="#039e1bfe">
<path fill="#039e1b" opacity="1.00" d=" M 4.31 20.74 C 6.03 30.32 4.52 40.35 7.18 49.87 C 9.04 49.93 10.89 49.67 12.76 49.73 C 17.06 53.31 18.80 45.08 22.12 43.54 C 22.82 46.04 19.58 47.64 18.92 49.97 C 21.50 50.06 24.07 50.03 26.64 49.88 C 27.26 48.72 26.62 46.54 28.12 46.09 C 26.71 49.07 26.92 51.42 28.75 53.13 C 30.31 53.36 33.42 53.82 34.98 54.05 C 35.29 48.32 35.54 42.35 32.77 37.14 C 32.23 37.34 31.15 37.75 30.61 37.96 C 30.44 37.48 30.11 36.53 29.95 36.06 C 31.26 36.05 32.58 36.05 33.89 36.04 C 35.47 40.53 36.41 45.20 37.26 49.87 C 39.87 50.11 42.49 50.15 45.12 50.00 C 43.58 45.91 39.06 43.85 37.70 39.74 C 41.45 42.83 45.11 46.12 47.83 50.18 C 48.65 51.82 50.23 50.13 51.25 49.72 C 53.10 49.67 54.93 49.93 56.78 49.85 C 59.93 40.46 58.43 30.41 59.80 20.78 C 60.26 31.19 59.89 41.61 60.01 52.02 C 59.60 55.95 55.95 59.59 52.02 60.01 C 38.67 59.99 25.33 60.00 11.98 60.01 C 8.05 59.60 4.40 55.95 4.00 52.02 C 4.01 41.59 3.84 31.16 4.31 20.74 Z" />
</g>
<g id="#00c127ff">
<path fill="#00c127" opacity="1.00" d=" M 10.73 27.68 C 13.48 26.57 16.42 27.16 19.23 27.74 C 16.40 27.74 13.57 27.72 10.73 27.68 Z" />
<path fill="#00c127" opacity="1.00" d=" M 44.72 27.61 C 47.49 26.62 50.40 27.30 53.22 27.80 C 50.38 27.75 47.55 27.69 44.72 27.61 Z" />
</g>
<g id="#144814ff">
<path fill="#144814" opacity="1.00" d=" M 9.87 27.89 L 10.73 27.68 C 13.57 27.72 16.40 27.74 19.23 27.74 C 21.19 28.01 23.09 28.54 24.98 29.07 L 24.76 30.17 C 19.94 29.00 14.93 29.04 9.99 28.92 L 9.87 27.89 Z" />
<path fill="#144814" opacity="1.00" d=" M 39.03 29.10 C 40.92 28.56 42.80 28.03 44.72 27.61 C 47.55 27.69 50.38 27.75 53.22 27.80 L 54.12 27.90 L 54.00 28.92 C 49.07 29.17 43.98 28.56 39.24 30.22 L 39.03 29.10 Z" />
</g>
<g id="#e7f4e9ff">
<path fill="#e7f4e9" opacity="1.00" d=" M 28.08 30.19 C 29.79 28.95 32.04 27.13 34.02 28.93 C 37.54 30.04 35.84 34.20 33.89 36.04 C 32.58 36.05 31.26 36.05 29.95 36.06 C 28.73 34.32 27.43 32.43 28.08 30.19 Z" />
</g>
<g id="#f7f8f8ff">
<path fill="#f7f8f8" opacity="1.00" d=" M 9.99 28.92 C 14.93 29.04 19.94 29.00 24.76 30.17 C 25.95 30.71 27.50 31.13 26.89 32.79 C 23.98 33.86 21.05 35.31 17.85 35.06 C 16.18 35.05 12.83 35.05 11.15 35.04 L 10.13 35.03 C 10.10 33.50 10.03 30.45 9.99 28.92 Z" />
<path fill="#f7f8f8" opacity="1.00" d=" M 39.24 30.22 C 43.98 28.56 49.07 29.17 54.00 28.92 C 53.71 30.45 53.13 33.51 52.85 35.04 C 51.17 35.05 47.82 35.05 46.15 35.06 C 42.96 35.31 40.02 33.86 37.11 32.79 C 36.49 31.11 38.03 30.72 39.24 30.22 Z" />
</g>
<g id="#19bd37ff">
<path fill="#19bd37" opacity="1.00" d=" M 11.15 35.04 C 12.83 35.05 16.18 35.05 17.85 35.06 C 17.04 36.84 11.95 36.85 11.15 35.04 Z" />
<path fill="#19bd37" opacity="1.00" d=" M 46.15 35.06 C 47.82 35.05 51.17 35.05 52.85 35.04 C 52.05 36.85 46.96 36.84 46.15 35.06 Z" />
</g>
<g id="#f5f8f6ff">
<path fill="#f5f8f6" opacity="1.00" d=" M 24.06 37.95 C 25.32 37.12 26.55 36.19 28.07 35.89 C 27.76 39.33 23.97 40.93 22.12 43.54 C 18.80 45.08 17.06 53.31 12.76 49.73 C 13.17 48.85 13.61 48.00 14.09 47.17 C 18.07 44.93 21.27 41.52 24.06 37.95 Z" />
<path fill="#f5f8f6" opacity="1.00" d=" M 35.90 35.90 C 37.40 36.23 38.67 37.10 39.97 37.88 C 42.99 41.21 45.65 45.28 49.88 47.22 C 50.38 48.03 50.84 48.87 51.25 49.72 C 50.23 50.13 48.65 51.82 47.83 50.18 C 45.11 46.12 41.45 42.83 37.70 39.74 C 36.99 38.52 36.23 37.30 35.90 35.90 Z" />
</g>
<g id="#f7f9f8ff">
<path fill="#f7f9f8" opacity="1.00" d=" M 30.61 37.96 C 31.15 37.75 32.23 37.34 32.77 37.14 C 35.54 42.35 35.29 48.32 34.98 54.05 C 33.42 53.82 30.31 53.36 28.75 53.13 C 28.75 51.31 28.73 47.66 28.72 45.83 C 29.16 43.16 29.93 40.57 30.61 37.96 Z" />
</g>
<g id="#3a5239ff">
<path fill="#3a5239" opacity="1.00" d=" M 14.09 47.17 C 16.51 43.32 20.01 39.99 24.06 37.95 C 21.27 41.52 18.07 44.93 14.09 47.17 Z" />
<path fill="#3a5239" opacity="1.00" d=" M 39.97 37.88 C 44.33 39.52 47.13 43.70 49.88 47.22 C 45.65 45.28 42.99 41.21 39.97 37.88 Z" />
</g>
<g id="#1ca332ff">
<path fill="#1ca332" opacity="1.00" d=" M 28.12 46.09 L 28.72 45.83 C 28.73 47.66 28.75 51.31 28.75 53.13 C 26.92 51.42 26.71 49.07 28.12 46.09 Z" />
</g>
<g id="#00510bcc">
<path fill="#00510b" opacity="0.80" d=" M 11.98 60.01 C 25.33 60.00 38.67 59.99 52.02 60.01 L 51.99 61.00 C 38.66 61.00 25.34 61.01 12.01 61.00 L 11.98 60.01 Z" />
</g>
<g id="#0000001d">
<path fill="#000000" opacity="0.11" d=" M 12.01 61.00 C 25.34 61.01 38.66 61.00 51.99 61.00 L 52.00 61.98 C 38.67 62.03 25.33 62.03 12.00 61.97 L 12.01 61.00 Z" />
</g>
</svg>
