<?xml version="1.0" encoding="UTF-8" ?>
<!DOCTYPE svg PUBLIC "-//W3C//DTD SVG 1.1//EN" "http://www.w3.org/Graphics/SVG/1.1/DTD/svg11.dtd">
<svg width="64pt" height="64pt" viewBox="0 0 64 64" version="1.1" xmlns="http://www.w3.org/2000/svg">
<g id="#02b002ff">
<path fill="#02b002" opacity="1.00" d=" M 12.49 3.60 C 24.31 2.96 36.20 3.51 48.04 3.31 C 54.54 2.77 60.80 8.43 60.72 14.99 C 60.74 26.33 60.70 37.67 60.69 49.00 C 60.84 55.18 55.23 60.86 49.05 60.70 C 37.67 60.72 26.30 60.73 14.93 60.70 C 8.74 60.85 3.14 55.15 3.31 48.97 C 3.30 37.61 3.25 26.25 3.29 14.89 C 3.27 9.59 7.42 4.82 12.49 3.60 M 6.81 13.51 L 6.01 13.65 C 6.02 17.27 6.59 20.90 6.57 24.54 C 9.42 24.57 12.38 24.98 15.16 24.35 C 15.38 23.96 15.83 23.18 16.06 22.79 C 19.15 26.05 22.31 29.26 25.68 32.22 C 21.79 36.32 17.76 40.29 13.67 44.19 C 15.69 46.52 18.02 48.57 20.12 50.84 C 24.07 46.86 28.07 42.92 32.01 38.92 C 36.23 42.66 40.18 46.75 44.15 50.77 C 46.25 48.54 48.54 46.50 50.54 44.18 C 46.44 40.42 42.63 36.36 38.61 32.51 C 38.87 32.21 39.39 31.59 39.65 31.29 C 41.88 31.22 44.27 31.81 46.34 30.74 C 50.42 29.82 56.13 29.04 57.30 24.23 C 57.64 20.59 57.86 16.91 58.06 13.25 L 57.05 13.50 C 56.31 9.35 52.28 6.21 48.10 6.22 C 37.38 6.11 26.64 6.11 15.92 6.22 C 11.65 6.17 7.81 9.41 6.81 13.51 Z" />
<path fill="#02b002" opacity="1.00" d=" M 12.94 19.38 C 15.24 17.16 17.47 14.87 19.99 12.90 C 24.54 15.87 27.88 20.35 32.11 23.75 C 36.17 20.22 39.78 16.18 44.03 12.88 C 46.71 14.58 48.81 17.01 51.02 19.25 L 50.38 20.37 C 48.31 18.21 46.20 16.10 44.07 14.00 C 40.13 18.03 36.02 21.91 32.07 25.94 C 28.11 21.95 24.17 17.95 20.16 14.02 C 18.16 15.99 16.23 18.04 14.16 19.94 L 12.94 19.38 Z" />
</g>
<g id="#ffffffff">
<path fill="#ffffff" opacity="1.00" d=" M 6.81 13.51 C 7.81 9.41 11.65 6.17 15.92 6.22 C 26.64 6.11 37.38 6.11 48.10 6.22 C 52.28 6.21 56.31 9.35 57.05 13.50 C 56.03 13.73 56.00 12.08 55.38 11.58 C 53.35 8.56 49.43 7.50 45.96 7.62 C 36.30 7.64 26.65 7.60 16.99 7.64 C 13.05 7.58 9.12 9.72 7.49 13.38 C 7.32 13.42 6.98 13.48 6.81 13.51 Z" />
<path fill="#ffffff" opacity="1.00" d=" M 14.16 19.94 C 16.23 18.04 18.16 15.99 20.16 14.02 C 24.17 17.95 28.11 21.95 32.07 25.94 C 36.02 21.91 40.13 18.03 44.07 14.00 C 46.20 16.10 48.31 18.21 50.38 20.37 C 46.97 24.17 43.06 27.49 39.65 31.29 C 39.39 31.59 38.87 32.21 38.61 32.51 C 42.63 36.36 46.44 40.42 50.54 44.18 C 48.54 46.50 46.25 48.54 44.15 50.77 C 40.18 46.75 36.23 42.66 32.01 38.92 C 28.07 42.92 24.07 46.86 20.12 50.84 C 18.02 48.57 15.69 46.52 13.67 44.19 C 17.76 40.29 21.79 36.32 25.68 32.22 C 22.31 29.26 19.15 26.05 16.06 22.79 C 15.42 22.07 14.79 21.36 14.15 20.64 C 14.15 20.47 14.16 20.12 14.16 19.94 Z" />
</g>
<g id="#44d655ff">
<path fill="#44d655" opacity="1.00" d=" M 7.49 13.38 C 9.12 9.72 13.05 7.58 16.99 7.64 C 26.65 7.60 36.30 7.64 45.96 7.62 C 49.43 7.50 53.35 8.56 55.38 11.58 C 56.00 12.08 56.03 13.73 57.05 13.50 L 58.06 13.25 C 57.86 16.91 57.64 20.59 57.30 24.23 C 56.13 29.04 50.42 29.82 46.34 30.74 C 44.27 31.81 41.88 31.22 39.65 31.29 C 43.06 27.49 46.97 24.17 50.38 20.37 L 51.02 19.25 C 48.81 17.01 46.71 14.58 44.03 12.88 C 39.78 16.18 36.17 20.22 32.11 23.75 C 27.88 20.35 24.54 15.87 19.99 12.90 C 17.47 14.87 15.24 17.16 12.94 19.38 L 14.16 19.94 C 14.16 20.12 14.15 20.47 14.15 20.64 C 14.79 21.36 15.42 22.07 16.06 22.79 C 15.83 23.18 15.38 23.96 15.16 24.35 C 12.38 24.98 9.42 24.57 6.57 24.54 C 6.59 20.90 6.02 17.27 6.01 13.65 L 6.81 13.51 C 6.98 13.48 7.32 13.42 7.49 13.38 Z" />
</g>
</svg>
