<?xml version="1.0" encoding="UTF-8" ?>
<!DOCTYPE svg PUBLIC "-//W3C//DTD SVG 1.1//EN" "http://www.w3.org/Graphics/SVG/1.1/DTD/svg11.dtd">
<svg width="64pt" height="64pt" viewBox="0 0 64 64" version="1.1" xmlns="http://www.w3.org/2000/svg">
<g id="#cececeff">
<path fill="#cecece" opacity="1.00" d=" M 19.97 9.38 C 26.08 6.11 34.11 4.80 40.21 8.78 C 44.54 11.49 45.77 17.48 43.88 22.03 C 42.02 27.05 37.15 30.14 35.17 35.08 C 34.31 37.09 34.47 39.33 34.45 41.47 C 31.82 41.44 29.19 41.44 26.56 41.45 C 26.43 38.55 26.37 35.52 27.67 32.83 C 29.59 28.14 34.32 25.06 35.46 20.00 C 35.92 18.12 35.06 16.35 34.09 14.80 C 30.26 12.69 25.68 13.62 22.04 15.69 C 21.40 13.57 20.70 11.47 19.97 9.38 Z" />
<path fill="#cecece" opacity="1.00" d=" M 25.01 48.16 C 27.02 43.90 33.98 43.89 35.80 48.30 C 38.29 52.84 33.83 58.45 28.85 57.42 C 25.35 55.89 23.06 51.79 25.01 48.16 Z" />
</g>
</svg>
