<?xml version="1.0" encoding="UTF-8" ?>
<!DOCTYPE svg PUBLIC "-//W3C//DTD SVG 1.1//EN" "http://www.w3.org/Graphics/SVG/1.1/DTD/svg11.dtd">
<svg width="64pt" height="64pt" viewBox="0 0 64 64" version="1.1" xmlns="http://www.w3.org/2000/svg">
<g id="#272727ff">
<path fill="#272727" opacity="1.00" d=" M 26.40 8.00 C 30.13 8.00 33.87 8.00 37.61 8.00 C 37.63 14.13 37.58 20.26 37.61 26.39 C 43.73 26.40 49.86 26.40 55.99 26.39 C 56.01 30.13 56.01 33.87 55.97 37.61 C 49.84 37.58 43.72 37.60 37.59 37.59 C 37.56 43.71 37.56 49.83 37.57 55.95 C 33.86 55.95 30.14 55.95 26.43 55.95 C 26.44 49.83 26.44 43.71 26.41 37.59 C 20.28 37.59 14.16 37.58 8.03 37.60 C 7.99 33.87 7.99 30.13 8.01 26.39 C 14.14 26.40 20.26 26.40 26.39 26.39 C 26.42 20.26 26.37 14.13 26.40 8.00 Z" />
</g>
</svg>
