<?xml version="1.0" encoding="UTF-8" ?>
<!DOCTYPE svg PUBLIC "-//W3C//DTD SVG 1.1//EN" "http://www.w3.org/Graphics/SVG/1.1/DTD/svg11.dtd">
<svg width="64pt" height="64pt" viewBox="0 0 64 64" version="1.1" xmlns="http://www.w3.org/2000/svg">
<g id="#292929ff">
<path fill="#292929" opacity="1.00" d=" M 42.47 14.51 C 50.04 13.85 58.36 15.77 63.99 21.12 C 58.33 20.17 52.71 18.18 46.89 18.76 C 43.59 18.99 40.52 20.37 37.32 21.12 C 42.73 25.17 47.07 31.00 47.49 37.95 C 47.34 43.00 46.10 48.65 41.59 51.62 C 36.86 56.20 29.84 54.94 24.05 53.67 C 20.51 50.19 16.01 46.73 15.98 41.26 C 15.57 40.78 14.73 39.84 14.32 39.36 C 15.61 35.38 16.36 31.15 18.53 27.51 C 20.35 25.08 22.81 23.25 24.91 21.09 C 20.29 20.47 15.63 19.57 10.95 19.93 C 7.56 20.71 4.15 22.71 0.65 21.15 C 1.16 16.76 5.98 16.25 9.42 15.52 C 15.71 14.08 22.44 14.25 28.47 16.67 C 33.07 19.07 38.11 16.14 42.47 14.51 M 20.68 36.96 C 19.66 42.43 24.01 47.18 28.76 49.11 C 34.98 51.10 42.11 45.51 41.88 38.99 C 41.94 32.18 36.49 26.94 31.14 23.52 C 26.68 27.03 21.57 30.96 20.68 36.96 Z" />
</g>
</svg>
