<?xml version="1.0" encoding="UTF-8" ?>
<!DOCTYPE svg PUBLIC "-//W3C//DTD SVG 1.1//EN" "http://www.w3.org/Graphics/SVG/1.1/DTD/svg11.dtd">
<svg width="64pt" height="64pt" viewBox="0 0 64 64" version="1.1" xmlns="http://www.w3.org/2000/svg">
<g id="#0052b6fa">
<path fill="#0052b6" opacity="0.98" d=" M 8.98 12.04 C 9.67 9.48 14.69 10.48 15.99 10.03 C 27.98 9.99 39.97 9.90 51.96 10.07 C 53.00 10.59 54.80 10.65 55.02 12.04 C 39.79 10.35 24.21 10.34 8.98 12.04 Z" />
</g>
<g id="#047ad6fe">
<path fill="#047ad6" opacity="1.00" d=" M 8.98 12.04 C 24.21 10.34 39.79 10.35 55.02 12.04 C 57.63 12.77 59.67 15.37 60.02 17.98 C 59.98 22.92 60.12 27.86 59.81 32.79 C 58.70 37.44 60.12 42.66 58.05 47.04 C 56.06 50.42 52.16 53.02 48.01 51.96 C 36.03 52.02 24.03 52.15 12.06 51.92 C 4.96 50.19 4.22 41.82 4.21 35.79 C 4.00 29.85 3.97 23.92 3.99 17.98 C 4.33 15.37 6.38 12.77 8.98 12.04 M 15.65 12.53 C 10.89 12.19 5.65 15.80 5.94 20.87 L 6.04 21.87 C 5.96 23.21 5.96 24.55 6.05 25.88 C 9.05 26.25 12.15 26.06 15.03 27.12 C 8.76 30.33 7.23 41.78 14.97 44.03 C 20.62 47.47 27.27 43.31 29.30 37.77 C 29.38 40.93 34.63 40.95 34.68 37.77 C 36.07 40.69 38.17 43.49 41.27 44.72 C 46.38 46.46 54.24 43.09 54.02 37.02 C 55.83 32.21 51.33 30.02 49.02 27.16 C 51.82 25.90 54.89 25.65 57.96 25.90 C 58.04 24.56 58.04 23.21 57.96 21.87 L 58.03 20.88 C 58.41 15.46 52.57 12.14 47.73 12.30 C 37.08 11.77 26.29 11.64 15.65 12.53 Z" />
</g>
<g id="#0088ebff">
<path fill="#0088eb" opacity="1.00" d=" M 15.65 12.53 C 26.29 11.64 37.08 11.77 47.73 12.30 C 52.57 12.14 58.41 15.46 58.03 20.88 C 55.30 21.11 52.54 21.13 49.88 21.79 C 41.30 24.17 32.56 18.75 23.98 22.00 C 17.97 24.26 12.05 20.52 5.94 20.87 C 5.65 15.80 10.89 12.19 15.65 12.53 Z" />
</g>
<g id="#003785c4">
<path fill="#003785" opacity="0.77" d=" M 3.04 18.03 L 3.99 17.98 C 3.97 23.92 4.00 29.85 4.21 35.79 C 4.14 39.19 4.00 42.60 3.98 46.01 L 3.01 45.99 C 3.03 36.67 2.86 27.35 3.04 18.03 Z" />
</g>
<g id="#003784c4">
<path fill="#003784" opacity="0.77" d=" M 60.02 17.98 L 60.98 18.01 C 60.97 27.33 61.14 36.65 60.96 45.97 L 60.02 46.02 C 59.99 41.61 59.90 37.20 59.81 32.79 C 60.12 27.86 59.98 22.92 60.02 17.98 Z" />
</g>
<g id="#1e6aa9ff">
<path fill="#1e6aa9" opacity="1.00" d=" M 5.94 20.87 C 12.05 20.52 17.97 24.26 23.98 22.00 C 32.56 18.75 41.30 24.17 49.88 21.79 C 52.54 21.13 55.30 21.11 58.03 20.88 L 57.96 21.87 C 53.49 21.90 49.24 23.41 44.99 24.64 C 36.73 21.67 27.91 20.92 19.67 24.51 C 15.16 24.09 10.75 21.68 6.04 21.87 L 5.94 20.87 Z" />
</g>
<g id="#edf6fcff">
<path fill="#edf6fc" opacity="1.00" d=" M 6.04 21.87 C 10.75 21.68 15.16 24.09 19.67 24.51 C 27.91 20.92 36.73 21.67 44.99 24.64 C 49.24 23.41 53.49 21.90 57.96 21.87 C 58.04 23.21 58.04 24.56 57.96 25.90 C 54.89 25.65 51.82 25.90 49.02 27.16 C 51.33 30.02 55.83 32.21 54.02 37.02 C 54.24 43.09 46.38 46.46 41.27 44.72 C 38.17 43.49 36.07 40.69 34.68 37.77 C 34.99 35.47 35.43 33.19 36.05 30.96 C 37.30 30.11 41.02 28.24 39.16 26.68 C 38.25 26.20 37.28 25.89 36.25 25.75 C 33.44 25.16 30.46 24.53 27.71 25.62 C 26.41 25.98 25.13 26.43 23.94 27.07 C 26.73 30.09 29.68 33.32 29.30 37.77 C 27.27 43.31 20.62 47.47 14.97 44.03 C 7.23 41.78 8.76 30.33 15.03 27.12 C 12.15 26.06 9.05 26.25 6.05 25.88 C 5.96 24.55 5.96 23.21 6.04 21.87 M 18.20 29.12 C 16.48 31.41 11.17 34.82 14.07 37.91 C 14.19 43.60 23.63 42.87 25.00 37.85 C 25.74 33.76 22.37 29.18 18.20 29.12 M 44.28 29.28 C 40.55 30.61 38.00 34.74 39.14 38.78 C 40.50 40.20 42.14 41.41 44.05 41.98 C 48.13 42.69 52.24 38.25 50.69 34.30 C 49.15 32.21 47.00 29.02 44.28 29.28 Z" />
</g>
<g id="#a5d5faff">
<path fill="#a5d5fa" opacity="1.00" d=" M 27.71 25.62 C 30.46 24.53 33.44 25.16 36.25 25.75 C 33.40 25.73 30.55 25.69 27.71 25.62 Z" />
</g>
<g id="#0683e1ff">
<path fill="#0683e1" opacity="1.00" d=" M 23.94 27.07 C 25.13 26.43 26.41 25.98 27.71 25.62 C 30.55 25.69 33.40 25.73 36.25 25.75 C 37.28 25.89 38.25 26.20 39.16 26.68 C 37.47 27.47 35.99 28.97 36.05 30.96 C 35.43 33.19 34.99 35.47 34.68 37.77 C 34.63 40.95 29.38 40.93 29.30 37.77 C 29.68 33.32 26.73 30.09 23.94 27.07 Z" />
</g>
<g id="#1a71bbff">
<path fill="#1a71bb" opacity="1.00" d=" M 36.05 30.96 C 35.99 28.97 37.47 27.47 39.16 26.68 C 41.02 28.24 37.30 30.11 36.05 30.96 Z" />
</g>
<g id="#0683e2ff">
<path fill="#0683e2" opacity="1.00" d=" M 18.20 29.12 C 22.37 29.18 25.74 33.76 25.00 37.85 C 21.64 39.75 16.89 41.44 14.07 37.91 C 11.17 34.82 16.48 31.41 18.20 29.12 Z" />
</g>
<g id="#1081d9ff">
<path fill="#1081d9" opacity="1.00" d=" M 44.28 29.28 C 47.00 29.02 49.15 32.21 50.69 34.30 C 52.24 38.25 48.13 42.69 44.05 41.98 C 42.14 41.41 40.50 40.20 39.14 38.78 C 38.00 34.74 40.55 30.61 44.28 29.28 Z" />
</g>
<g id="#005fbcf9">
<path fill="#005fbc" opacity="0.98" d=" M 58.05 47.04 C 60.12 42.66 58.70 37.44 59.81 32.79 C 59.90 37.20 59.99 41.61 60.02 46.02 C 59.98 46.46 59.89 47.34 59.85 47.78 C 58.10 50.12 56.27 52.56 53.28 53.31 C 39.11 52.80 24.93 52.88 10.76 53.26 C 7.69 52.68 5.92 50.08 4.15 47.78 C 4.11 47.33 4.02 46.45 3.98 46.01 C 4.00 42.60 4.14 39.19 4.21 35.79 C 4.22 41.82 4.96 50.19 12.06 51.92 C 24.03 52.15 36.03 52.02 48.01 51.96 C 52.16 53.02 56.06 50.42 58.05 47.04 Z" />
</g>
<g id="#2d6fa9ff">
<path fill="#2d6fa9" opacity="1.00" d=" M 14.07 37.91 C 16.89 41.44 21.64 39.75 25.00 37.85 C 23.63 42.87 14.19 43.60 14.07 37.91 Z" />
</g>
<g id="#00010329">
<path fill="#000103" opacity="0.16" d=" M 4.15 47.78 C 5.92 50.08 7.69 52.68 10.76 53.26 C 24.78 54.33 39.34 54.71 53.28 53.31 C 56.27 52.56 58.10 50.12 59.85 47.78 C 60.49 52.38 55.83 55.69 51.94 56.94 C 38.65 57.06 25.35 57.06 12.06 56.94 C 8.17 55.69 3.50 52.38 4.15 47.78 Z" />
</g>
<g id="#0050b3fc">
<path fill="#0050b3" opacity="1.00" d=" M 10.76 53.26 C 24.93 52.88 39.11 52.80 53.28 53.31 C 39.34 54.71 24.78 54.33 10.76 53.26 Z" />
</g>
</svg>
