<?xml version="1.0" encoding="UTF-8" ?>
<!DOCTYPE svg PUBLIC "-//W3C//DTD SVG 1.1//EN" "http://www.w3.org/Graphics/SVG/1.1/DTD/svg11.dtd">
<svg width="64pt" height="64pt" viewBox="0 0 64 64" version="1.1" xmlns="http://www.w3.org/2000/svg">
<g id="#6e8facff">
<path fill="#6e8fac" opacity="1.00" d=" M 4.37 9.88 C 6.75 6.28 10.53 3.24 15.06 3.39 C 26.40 3.35 37.74 3.35 49.07 3.39 C 52.09 3.31 54.78 4.85 57.10 6.62 C 58.46 10.95 59.79 15.38 59.45 19.97 C 59.04 27.91 59.15 36.01 56.72 43.66 C 52.04 43.84 47.35 43.79 42.67 43.66 C 44.08 41.87 45.34 39.97 46.31 37.91 L 46.46 37.58 C 44.59 36.84 42.47 36.75 40.54 37.34 C 40.49 35.49 40.48 33.65 40.47 31.81 C 45.96 31.61 52.24 31.43 56.46 27.42 C 58.76 23.95 58.31 19.48 57.95 15.55 C 57.79 14.30 57.44 13.10 57.05 11.91 C 55.14 8.21 51.25 5.82 47.07 5.95 C 37.03 5.87 26.99 5.87 16.95 5.95 C 12.26 5.75 7.97 8.84 6.47 13.25 C 6.19 14.27 5.95 15.30 5.74 16.34 C 5.66 20.00 6.12 23.67 7.28 27.15 C 8.60 28.39 9.99 29.62 11.72 30.26 C 19.13 33.05 27.19 32.69 34.97 32.81 C 34.98 34.30 34.97 35.79 34.95 37.28 C 32.92 36.58 30.64 36.63 28.68 37.55 L 28.85 37.88 C 29.89 39.88 31.16 41.76 32.52 43.56 C 24.13 44.23 15.66 44.84 7.29 43.67 C 3.94 32.87 5.19 21.43 4.40 10.31 L 4.37 9.88 Z" />
</g>
<g id="#e1eaf1ff">
<path fill="#e1eaf1" opacity="1.00" d=" M 6.47 13.25 C 7.97 8.84 12.26 5.75 16.95 5.95 C 26.99 5.87 37.03 5.87 47.07 5.95 C 51.25 5.82 55.14 8.21 57.05 11.91 C 54.08 10.59 51.47 8.09 48.07 8.03 C 40.39 7.72 32.70 8.04 25.02 7.91 C 21.12 7.97 17.15 7.60 13.30 8.43 C 10.68 9.47 8.68 11.58 6.47 13.25 Z" />
</g>
<g id="#63809bff">
<path fill="#63809b" opacity="1.00" d=" M 57.10 6.62 C 58.50 8.31 59.96 10.11 60.37 12.33 C 59.70 21.86 60.06 31.43 59.74 40.97 C 59.55 45.08 60.14 49.38 58.71 53.33 C 57.11 57.11 53.21 59.87 49.04 59.65 C 38.01 59.73 26.98 59.65 15.95 59.69 C 12.55 59.88 9.04 58.72 6.91 55.96 C 3.56 52.10 4.50 46.66 4.27 41.96 C 3.98 32.08 4.24 22.18 3.66 12.30 C 3.85 11.80 4.22 10.81 4.40 10.31 C 5.19 21.43 3.94 32.87 7.29 43.67 C 15.66 44.84 24.13 44.23 32.52 43.56 C 34.24 45.80 35.91 48.08 37.59 50.35 C 39.31 48.14 40.97 45.89 42.67 43.66 C 47.35 43.79 52.04 43.84 56.72 43.66 C 59.15 36.01 59.04 27.91 59.45 19.97 C 59.79 15.38 58.46 10.95 57.10 6.62 Z" />
</g>
<g id="#a9c4dcff">
<path fill="#a9c4dc" opacity="1.00" d=" M 13.30 8.43 C 17.15 7.60 21.12 7.97 25.02 7.91 C 32.70 8.04 40.39 7.72 48.07 8.03 C 51.47 8.09 54.08 10.59 57.05 11.91 C 57.44 13.10 57.79 14.30 57.95 15.55 C 57.85 16.06 57.65 17.07 57.55 17.58 C 56.89 16.44 56.24 15.30 55.57 14.16 C 47.77 15.90 39.71 15.44 31.91 13.91 C 30.18 13.40 28.56 14.33 26.90 14.65 C 26.50 14.75 25.72 14.94 25.33 15.03 C 24.70 13.86 23.77 13.53 22.53 14.04 C 17.16 15.98 11.46 17.03 5.74 16.34 C 5.95 15.30 6.19 14.27 6.47 13.25 C 8.68 11.58 10.68 9.47 13.30 8.43 Z" />
</g>
<g id="#3e5163e2">
<path fill="#3e5163" opacity="0.89" d=" M 3.06 18.03 C 3.02 16.11 3.19 14.17 3.66 12.30 C 4.24 22.18 3.98 32.08 4.27 41.96 C 4.50 46.66 3.56 52.10 6.91 55.96 C 9.04 58.72 12.55 59.88 15.95 59.69 C 26.98 59.65 38.01 59.73 49.04 59.65 C 53.21 59.87 57.11 57.11 58.71 53.33 C 60.14 49.38 59.55 45.08 59.74 40.97 C 60.06 31.43 59.70 21.86 60.37 12.33 C 61.28 16.16 60.83 20.11 60.90 24.01 C 60.82 32.66 61.00 41.32 60.76 49.96 C 60.41 55.92 54.97 60.92 49.01 60.84 C 37.65 60.89 26.28 60.91 14.91 60.84 C 8.65 60.91 3.12 55.34 3.17 49.08 C 3.08 38.73 3.16 28.38 3.06 18.03 Z" />
</g>
<g id="#9db9d3ff">
<path fill="#9db9d3" opacity="1.00" d=" M 31.91 13.91 C 39.71 15.44 47.77 15.90 55.57 14.16 C 56.24 15.30 56.89 16.44 57.55 17.58 C 57.25 19.03 56.93 20.46 56.60 21.90 C 51.83 22.41 46.89 23.00 42.19 21.75 C 38.46 19.56 35.83 15.87 31.91 13.91 Z" />
</g>
<g id="#96b3cdff">
<path fill="#96b3cd" opacity="1.00" d=" M 5.74 16.34 C 11.46 17.03 17.16 15.98 22.53 14.04 L 22.54 14.78 C 21.35 15.69 20.11 16.53 18.88 17.38 C 19.89 18.83 20.88 20.29 21.88 21.75 C 26.45 19.27 32.78 20.85 34.44 26.11 C 25.38 26.91 16.17 24.55 7.28 27.15 C 6.12 23.67 5.66 20.00 5.74 16.34 Z" />
</g>
<g id="#6396c1ff">
<path fill="#6396c1" opacity="1.00" d=" M 22.53 14.04 C 23.77 13.53 24.70 13.86 25.33 15.03 C 24.63 14.97 23.24 14.85 22.54 14.78 L 22.53 14.04 Z" />
</g>
<g id="#8eabc6ff">
<path fill="#8eabc6" opacity="1.00" d=" M 26.90 14.65 C 28.56 14.33 30.18 13.40 31.91 13.91 C 35.83 15.87 38.46 19.56 42.19 21.75 C 46.89 23.00 51.83 22.41 56.60 21.90 C 56.93 20.46 57.25 19.03 57.55 17.58 C 57.65 17.07 57.85 16.06 57.95 15.55 C 58.31 19.48 58.76 23.95 56.46 27.42 C 52.24 31.43 45.96 31.61 40.47 31.81 C 40.41 28.10 40.51 24.01 38.13 20.90 C 35.60 17.19 31.43 14.77 26.90 14.65 Z" />
</g>
<g id="#ffffffff">
<path fill="#ffffff" opacity="1.00" d=" M 22.54 14.78 C 23.24 14.85 24.63 14.97 25.33 15.03 C 25.72 14.94 26.50 14.75 26.90 14.65 C 31.43 14.77 35.60 17.19 38.13 20.90 C 40.51 24.01 40.41 28.10 40.47 31.81 C 40.48 33.65 40.49 35.49 40.54 37.34 L 40.55 37.74 C 42.43 38.19 44.40 38.14 46.31 37.91 C 45.34 39.97 44.08 41.87 42.67 43.66 C 40.97 45.89 39.31 48.14 37.59 50.35 C 35.91 48.08 34.24 45.80 32.52 43.56 C 31.16 41.76 29.89 39.88 28.85 37.88 C 30.87 38.20 32.97 38.22 34.95 37.66 L 34.95 37.28 C 34.97 35.79 34.98 34.30 34.97 32.81 C 34.93 30.57 34.77 28.33 34.44 26.11 C 32.78 20.85 26.45 19.27 21.88 21.75 C 20.88 20.29 19.89 18.83 18.88 17.38 C 20.11 16.53 21.35 15.69 22.54 14.78 Z" />
</g>
<g id="#87a5c0ff">
<path fill="#87a5c0" opacity="1.00" d=" M 7.28 27.15 C 16.17 24.55 25.38 26.91 34.44 26.11 C 34.77 28.33 34.93 30.57 34.97 32.81 C 27.19 32.69 19.13 33.05 11.72 30.26 C 9.99 29.62 8.60 28.39 7.28 27.15 Z" />
</g>
<g id="#08457aff">
<path fill="#08457a" opacity="1.00" d=" M 28.68 37.55 C 30.64 36.63 32.92 36.58 34.95 37.28 L 34.95 37.66 C 32.97 38.22 30.87 38.20 28.85 37.88 L 28.68 37.55 Z" />
</g>
<g id="#013f76ff">
<path fill="#013f76" opacity="1.00" d=" M 40.54 37.34 C 42.47 36.75 44.59 36.84 46.46 37.58 L 46.31 37.91 C 44.40 38.14 42.43 38.19 40.55 37.74 L 40.54 37.34 Z" />
</g>
</svg>
