<?xml version="1.0" encoding="UTF-8" ?>
<!DOCTYPE svg PUBLIC "-//W3C//DTD SVG 1.1//EN" "http://www.w3.org/Graphics/SVG/1.1/DTD/svg11.dtd">
<svg width="64pt" height="64pt" viewBox="0 0 64 64" version="1.1" xmlns="http://www.w3.org/2000/svg">
<g id="#e7e7e7ff">
<path fill="#e7e7e7" opacity="1.00" d=" M 4.33 3.48 C 21.19 3.08 38.09 3.46 54.97 3.30 C 56.76 3.37 58.65 3.09 60.38 3.68 C 60.77 5.09 60.68 6.58 60.71 8.03 C 60.63 24.71 60.73 41.39 60.74 58.07 C 60.87 59.27 60.55 60.96 58.94 60.69 C 41.97 60.83 25.01 60.67 8.04 60.76 C 6.61 60.63 5.01 61.02 3.69 60.31 C 2.95 59.04 3.39 57.44 3.24 56.04 C 3.32 39.70 3.34 23.36 3.30 7.02 C 3.58 5.99 2.78 3.57 4.33 3.48 Z" />
</g>
</svg>
