<?xml version="1.0" encoding="UTF-8" ?>
<!DOCTYPE svg PUBLIC "-//W3C//DTD SVG 1.1//EN" "http://www.w3.org/Graphics/SVG/1.1/DTD/svg11.dtd">
<svg width="64pt" height="64pt" viewBox="0 0 64 64" version="1.1" xmlns="http://www.w3.org/2000/svg">
<g id="#cc9522ff">
<path fill="#cc9522" opacity="1.00" d=" M 23.60 22.71 C 26.89 16.62 28.41 9.68 31.96 3.72 C 34.97 9.24 36.92 15.24 39.49 20.96 C 39.97 22.02 40.58 23.57 42.04 23.36 C 47.94 23.72 53.88 23.19 59.76 23.90 C 55.61 29.13 50.05 33.04 45.63 38.02 C 46.82 45.14 50.23 51.85 51.93 58.92 C 49.71 58.99 47.95 57.51 46.10 56.53 C 41.57 53.85 36.90 51.43 32.42 48.68 C 38.48 49.87 43.54 53.69 49.18 56.02 C 46.76 49.36 44.41 42.40 45.40 35.21 C 47.82 33.28 49.99 31.06 52.23 28.93 C 53.45 27.72 54.68 26.51 55.89 25.28 C 50.52 25.18 45.15 25.43 39.80 25.08 C 38.66 24.40 38.29 23.00 37.68 21.90 C 35.75 17.27 33.99 12.57 32.00 7.96 C 30.00 12.57 28.26 17.28 26.32 21.90 C 25.72 23.01 25.33 24.36 24.23 25.08 C 18.87 25.43 13.48 25.19 8.11 25.28 C 8.92 26.12 9.75 26.94 10.59 27.74 C 13.06 30.17 15.48 32.66 18.19 34.81 C 18.89 42.10 16.44 49.16 14.55 56.08 C 18.36 54.41 21.83 51.62 26.15 51.47 C 21.65 54.44 16.91 57.02 12.14 59.52 C 12.72 51.99 16.38 45.05 17.70 37.63 C 14.04 32.37 7.55 29.23 4.36 23.71 C 10.51 23.33 16.70 23.75 22.83 23.24 L 23.60 22.71 Z" />
</g>
<g id="#fefbefff">
<path fill="#fefbef" opacity="1.00" d=" M 26.32 21.90 C 28.26 17.28 30.00 12.57 32.00 7.96 C 33.99 12.57 35.75 17.27 37.68 21.90 C 33.90 21.54 30.10 21.55 26.32 21.90 Z" />
</g>
<g id="#fef7cfff">
<path fill="#fef7cf" opacity="1.00" d=" M 26.32 21.90 C 30.10 21.55 33.90 21.54 37.68 21.90 C 38.29 23.00 38.66 24.40 39.80 25.08 C 45.15 25.43 50.52 25.18 55.89 25.28 C 54.68 26.51 53.45 27.72 52.23 28.93 C 51.73 28.31 51.22 27.71 50.68 27.12 C 47.25 27.37 44.12 28.91 40.86 29.86 C 33.84 32.06 26.10 31.51 19.41 28.48 C 16.64 27.13 13.55 27.22 10.59 27.74 C 9.75 26.94 8.92 26.12 8.11 25.28 C 13.48 25.19 18.87 25.43 24.23 25.08 C 25.33 24.36 25.72 23.01 26.32 21.90 Z" />
</g>
<g id="#fff6c0ff">
<path fill="#fff6c0" opacity="1.00" d=" M 10.59 27.74 C 13.55 27.22 16.64 27.13 19.41 28.48 C 26.10 31.51 33.84 32.06 40.86 29.86 C 44.12 28.91 47.25 27.37 50.68 27.12 C 51.22 27.71 51.73 28.31 52.23 28.93 C 49.99 31.06 47.82 33.28 45.40 35.21 C 44.65 35.64 43.16 36.50 42.41 36.93 C 39.13 38.50 35.68 40.08 31.97 40.14 C 27.80 40.10 24.00 38.11 20.42 36.16 C 19.86 35.83 18.75 35.15 18.19 34.81 C 15.48 32.66 13.06 30.17 10.59 27.74 Z" />
</g>
<g id="#e4cd51ff">
<path fill="#e4cd51" opacity="1.00" d=" M 18.19 34.81 C 18.75 35.15 19.86 35.83 20.42 36.16 C 20.50 40.32 20.42 44.49 20.48 48.65 C 24.40 48.79 28.15 47.51 32.03 47.25 C 35.84 47.53 39.56 48.87 43.43 48.51 C 43.67 44.61 43.19 40.74 42.41 36.93 C 43.16 36.50 44.65 35.64 45.40 35.21 C 44.41 42.40 46.76 49.36 49.18 56.02 C 43.54 53.69 38.48 49.87 32.42 48.68 C 30.08 48.86 28.33 50.80 26.15 51.47 C 21.83 51.62 18.36 54.41 14.55 56.08 C 16.44 49.16 18.89 42.10 18.19 34.81 Z" />
</g>
<g id="#faee8dff">
<path fill="#faee8d" opacity="1.00" d=" M 20.42 36.16 C 24.00 38.11 27.80 40.10 31.97 40.14 C 35.68 40.08 39.13 38.50 42.41 36.93 C 43.19 40.74 43.67 44.61 43.43 48.51 C 39.56 48.87 35.84 47.53 32.03 47.25 C 28.15 47.51 24.40 48.79 20.48 48.65 C 20.42 44.49 20.50 40.32 20.42 36.16 Z" />
</g>
</svg>
