<?xml version="1.0" encoding="UTF-8" ?>
<!DOCTYPE svg PUBLIC "-//W3C//DTD SVG 1.1//EN" "http://www.w3.org/Graphics/SVG/1.1/DTD/svg11.dtd">
<svg width="64pt" height="64pt" viewBox="0 0 64 64" version="1.1" xmlns="http://www.w3.org/2000/svg">
<g id="#353535ff">
<path fill="#353535" opacity="1.00" d=" M 0.00 25.71 C 4.73 25.58 8.11 28.91 11.17 32.04 C 8.64 32.22 6.12 32.50 3.59 32.70 C 2.39 32.03 1.19 31.37 0.00 30.68 L 0.00 25.71 Z" />
<path fill="#353535" opacity="1.00" d=" M 20.31 32.28 C 23.63 29.34 27.03 25.30 31.97 25.91 C 36.96 25.21 40.33 29.30 43.60 32.31 C 41.28 32.70 38.96 33.11 36.64 33.50 C 34.26 30.50 29.81 30.59 27.35 33.45 C 25.00 33.07 22.66 32.67 20.31 32.28 Z" />
<path fill="#353535" opacity="1.00" d=" M 53.08 31.69 C 56.05 28.63 59.50 25.74 64.00 25.66 L 64.00 30.71 C 62.79 31.41 61.56 32.08 60.34 32.75 C 57.92 32.42 55.51 32.01 53.08 31.69 Z" />
</g>
<g id="#1c1c1cff">
<path fill="#1c1c1c" opacity="1.00" d=" M 46.93 34.31 C 49.37 35.00 51.32 33.04 53.08 31.69 C 55.51 32.01 57.92 32.42 60.34 32.75 C 56.61 35.65 53.26 40.16 48.02 39.90 C 43.28 40.14 39.87 36.40 36.64 33.50 C 38.96 33.11 41.28 32.70 43.60 32.31 C 44.63 33.10 45.73 33.82 46.93 34.31 Z" />
<path fill="#1c1c1c" opacity="1.00" d=" M 3.59 32.70 C 6.12 32.50 8.64 32.22 11.17 32.04 C 13.69 34.77 17.74 35.14 20.31 32.28 C 22.66 32.67 25.00 33.07 27.35 33.45 C 24.06 36.28 20.75 40.16 15.98 39.89 C 10.71 40.18 7.28 35.70 3.59 32.70 Z" />
</g>
</svg>
